<?xml version="1.0" encoding="utf-8" standalone="no"?>
<!DOCTYPE svg PUBLIC "-//W3C//DTD SVG 1.1//EN"
  "http://www.w3.org/Graphics/SVG/1.1/DTD/svg11.dtd">
<svg xmlns:xlink="http://www.w3.org/1999/xlink" width="562.696563pt" height="325.986375pt" viewBox="0 0 562.696563 325.986375" xmlns="http://www.w3.org/2000/svg" version="1.1">
 <metadata>
  <rdf:RDF xmlns:dc="http://purl.org/dc/elements/1.1/" xmlns:cc="http://creativecommons.org/ns#" xmlns:rdf="http://www.w3.org/1999/02/22-rdf-syntax-ns#">
   <cc:Work>
    <dc:type rdf:resource="http://purl.org/dc/dcmitype/StillImage"/>
    <dc:date>2023-12-12T10:49:06.354218</dc:date>
    <dc:format>image/svg+xml</dc:format>
    <dc:creator>
     <cc:Agent>
      <dc:title>Matplotlib v3.7.4, https://matplotlib.org/</dc:title>
     </cc:Agent>
    </dc:creator>
   </cc:Work>
  </rdf:RDF>
 </metadata>
 <defs>
  <style type="text/css">*{stroke-linejoin: round; stroke-linecap: butt}</style>
 </defs>
 <g id="figure_1">
  <g id="patch_1">
   <path d="M 0 325.986375 
L 562.696563 325.986375 
L 562.696563 0 
L 0 0 
z
" style="fill: #ffffff"/>
  </g>
  <g id="axes_1">
   <g id="patch_2">
    <path d="M 45.478125 288.430125 
L 402.598125 288.430125 
L 402.598125 22.318125 
L 45.478125 22.318125 
z
" style="fill: #ffffff"/>
   </g>
   <g id="matplotlib.axis_1">
    <g id="xtick_1">
     <g id="line2d_1">
      <path d="M 61.710852 288.430125 
L 61.710852 22.318125 
" clip-path="url(#pbd5c44a8c3)" style="fill: none; stroke: #b0b0b0; stroke-width: 0.8; stroke-linecap: square"/>
     </g>
     <g id="line2d_2">
      <defs>
       <path id="md9ef0ea322" d="M 0 0 
L 0 3.5 
" style="stroke: #000000; stroke-width: 0.8"/>
      </defs>
      <g>
       <use xlink:href="#md9ef0ea322" x="61.710852" y="288.430125" style="stroke: #000000; stroke-width: 0.8"/>
      </g>
     </g>
     <g id="text_1">
      <!-- 0.000 -->
      <g transform="translate(47.39679 303.028562) scale(0.1 -0.1)">
       <defs>
        <path id="DejaVuSans-30" d="M 2034 4250 
Q 1547 4250 1301 3770 
Q 1056 3291 1056 2328 
Q 1056 1369 1301 889 
Q 1547 409 2034 409 
Q 2525 409 2770 889 
Q 3016 1369 3016 2328 
Q 3016 3291 2770 3770 
Q 2525 4250 2034 4250 
z
M 2034 4750 
Q 2819 4750 3233 4129 
Q 3647 3509 3647 2328 
Q 3647 1150 3233 529 
Q 2819 -91 2034 -91 
Q 1250 -91 836 529 
Q 422 1150 422 2328 
Q 422 3509 836 4129 
Q 1250 4750 2034 4750 
z
" transform="scale(0.015625)"/>
        <path id="DejaVuSans-2e" d="M 684 794 
L 1344 794 
L 1344 0 
L 684 0 
L 684 794 
z
" transform="scale(0.015625)"/>
       </defs>
       <use xlink:href="#DejaVuSans-30"/>
       <use xlink:href="#DejaVuSans-2e" x="63.623047"/>
       <use xlink:href="#DejaVuSans-30" x="95.410156"/>
       <use xlink:href="#DejaVuSans-30" x="159.033203"/>
       <use xlink:href="#DejaVuSans-30" x="222.65625"/>
      </g>
     </g>
    </g>
    <g id="xtick_2">
     <g id="line2d_3">
      <path d="M 224.038125 288.430125 
L 224.038125 22.318125 
" clip-path="url(#pbd5c44a8c3)" style="fill: none; stroke: #b0b0b0; stroke-width: 0.8; stroke-linecap: square"/>
     </g>
     <g id="line2d_4">
      <g>
       <use xlink:href="#md9ef0ea322" x="224.038125" y="288.430125" style="stroke: #000000; stroke-width: 0.8"/>
      </g>
     </g>
     <g id="text_2">
      <!-- 0.002 -->
      <g transform="translate(209.724063 303.028562) scale(0.1 -0.1)">
       <defs>
        <path id="DejaVuSans-32" d="M 1228 531 
L 3431 531 
L 3431 0 
L 469 0 
L 469 531 
Q 828 903 1448 1529 
Q 2069 2156 2228 2338 
Q 2531 2678 2651 2914 
Q 2772 3150 2772 3378 
Q 2772 3750 2511 3984 
Q 2250 4219 1831 4219 
Q 1534 4219 1204 4116 
Q 875 4013 500 3803 
L 500 4441 
Q 881 4594 1212 4672 
Q 1544 4750 1819 4750 
Q 2544 4750 2975 4387 
Q 3406 4025 3406 3419 
Q 3406 3131 3298 2873 
Q 3191 2616 2906 2266 
Q 2828 2175 2409 1742 
Q 1991 1309 1228 531 
z
" transform="scale(0.015625)"/>
       </defs>
       <use xlink:href="#DejaVuSans-30"/>
       <use xlink:href="#DejaVuSans-2e" x="63.623047"/>
       <use xlink:href="#DejaVuSans-30" x="95.410156"/>
       <use xlink:href="#DejaVuSans-30" x="159.033203"/>
       <use xlink:href="#DejaVuSans-32" x="222.65625"/>
      </g>
     </g>
    </g>
    <g id="xtick_3">
     <g id="line2d_5">
      <path d="M 386.365398 288.430125 
L 386.365398 22.318125 
" clip-path="url(#pbd5c44a8c3)" style="fill: none; stroke: #b0b0b0; stroke-width: 0.8; stroke-linecap: square"/>
     </g>
     <g id="line2d_6">
      <g>
       <use xlink:href="#md9ef0ea322" x="386.365398" y="288.430125" style="stroke: #000000; stroke-width: 0.8"/>
      </g>
     </g>
     <g id="text_3">
      <!-- 0.004 -->
      <g transform="translate(372.051335 303.028562) scale(0.1 -0.1)">
       <defs>
        <path id="DejaVuSans-34" d="M 2419 4116 
L 825 1625 
L 2419 1625 
L 2419 4116 
z
M 2253 4666 
L 3047 4666 
L 3047 1625 
L 3713 1625 
L 3713 1100 
L 3047 1100 
L 3047 0 
L 2419 0 
L 2419 1100 
L 313 1100 
L 313 1709 
L 2253 4666 
z
" transform="scale(0.015625)"/>
       </defs>
       <use xlink:href="#DejaVuSans-30"/>
       <use xlink:href="#DejaVuSans-2e" x="63.623047"/>
       <use xlink:href="#DejaVuSans-30" x="95.410156"/>
       <use xlink:href="#DejaVuSans-30" x="159.033203"/>
       <use xlink:href="#DejaVuSans-34" x="222.65625"/>
      </g>
     </g>
    </g>
    <g id="text_4">
     <!-- Time (s) -->
     <g transform="translate(203.709219 316.706687) scale(0.1 -0.1)">
      <defs>
       <path id="DejaVuSans-54" d="M -19 4666 
L 3928 4666 
L 3928 4134 
L 2272 4134 
L 2272 0 
L 1638 0 
L 1638 4134 
L -19 4134 
L -19 4666 
z
" transform="scale(0.015625)"/>
       <path id="DejaVuSans-69" d="M 603 3500 
L 1178 3500 
L 1178 0 
L 603 0 
L 603 3500 
z
M 603 4863 
L 1178 4863 
L 1178 4134 
L 603 4134 
L 603 4863 
z
" transform="scale(0.015625)"/>
       <path id="DejaVuSans-6d" d="M 3328 2828 
Q 3544 3216 3844 3400 
Q 4144 3584 4550 3584 
Q 5097 3584 5394 3201 
Q 5691 2819 5691 2113 
L 5691 0 
L 5113 0 
L 5113 2094 
Q 5113 2597 4934 2840 
Q 4756 3084 4391 3084 
Q 3944 3084 3684 2787 
Q 3425 2491 3425 1978 
L 3425 0 
L 2847 0 
L 2847 2094 
Q 2847 2600 2669 2842 
Q 2491 3084 2119 3084 
Q 1678 3084 1418 2786 
Q 1159 2488 1159 1978 
L 1159 0 
L 581 0 
L 581 3500 
L 1159 3500 
L 1159 2956 
Q 1356 3278 1631 3431 
Q 1906 3584 2284 3584 
Q 2666 3584 2933 3390 
Q 3200 3197 3328 2828 
z
" transform="scale(0.015625)"/>
       <path id="DejaVuSans-65" d="M 3597 1894 
L 3597 1613 
L 953 1613 
Q 991 1019 1311 708 
Q 1631 397 2203 397 
Q 2534 397 2845 478 
Q 3156 559 3463 722 
L 3463 178 
Q 3153 47 2828 -22 
Q 2503 -91 2169 -91 
Q 1331 -91 842 396 
Q 353 884 353 1716 
Q 353 2575 817 3079 
Q 1281 3584 2069 3584 
Q 2775 3584 3186 3129 
Q 3597 2675 3597 1894 
z
M 3022 2063 
Q 3016 2534 2758 2815 
Q 2500 3097 2075 3097 
Q 1594 3097 1305 2825 
Q 1016 2553 972 2059 
L 3022 2063 
z
" transform="scale(0.015625)"/>
       <path id="DejaVuSans-20" transform="scale(0.015625)"/>
       <path id="DejaVuSans-28" d="M 1984 4856 
Q 1566 4138 1362 3434 
Q 1159 2731 1159 2009 
Q 1159 1288 1364 580 
Q 1569 -128 1984 -844 
L 1484 -844 
Q 1016 -109 783 600 
Q 550 1309 550 2009 
Q 550 2706 781 3412 
Q 1013 4119 1484 4856 
L 1984 4856 
z
" transform="scale(0.015625)"/>
       <path id="DejaVuSans-73" d="M 2834 3397 
L 2834 2853 
Q 2591 2978 2328 3040 
Q 2066 3103 1784 3103 
Q 1356 3103 1142 2972 
Q 928 2841 928 2578 
Q 928 2378 1081 2264 
Q 1234 2150 1697 2047 
L 1894 2003 
Q 2506 1872 2764 1633 
Q 3022 1394 3022 966 
Q 3022 478 2636 193 
Q 2250 -91 1575 -91 
Q 1294 -91 989 -36 
Q 684 19 347 128 
L 347 722 
Q 666 556 975 473 
Q 1284 391 1588 391 
Q 1994 391 2212 530 
Q 2431 669 2431 922 
Q 2431 1156 2273 1281 
Q 2116 1406 1581 1522 
L 1381 1569 
Q 847 1681 609 1914 
Q 372 2147 372 2553 
Q 372 3047 722 3315 
Q 1072 3584 1716 3584 
Q 2034 3584 2315 3537 
Q 2597 3491 2834 3397 
z
" transform="scale(0.015625)"/>
       <path id="DejaVuSans-29" d="M 513 4856 
L 1013 4856 
Q 1481 4119 1714 3412 
Q 1947 2706 1947 2009 
Q 1947 1309 1714 600 
Q 1481 -109 1013 -844 
L 513 -844 
Q 928 -128 1133 580 
Q 1338 1288 1338 2009 
Q 1338 2731 1133 3434 
Q 928 4138 513 4856 
z
" transform="scale(0.015625)"/>
      </defs>
      <use xlink:href="#DejaVuSans-54"/>
      <use xlink:href="#DejaVuSans-69" x="57.958984"/>
      <use xlink:href="#DejaVuSans-6d" x="85.742188"/>
      <use xlink:href="#DejaVuSans-65" x="183.154297"/>
      <use xlink:href="#DejaVuSans-20" x="244.677734"/>
      <use xlink:href="#DejaVuSans-28" x="276.464844"/>
      <use xlink:href="#DejaVuSans-73" x="315.478516"/>
      <use xlink:href="#DejaVuSans-29" x="367.578125"/>
     </g>
    </g>
   </g>
   <g id="matplotlib.axis_2">
    <g id="ytick_1">
     <g id="line2d_7">
      <path d="M 45.478125 276.334125 
L 402.598125 276.334125 
" clip-path="url(#pbd5c44a8c3)" style="fill: none; stroke: #b0b0b0; stroke-width: 0.8; stroke-linecap: square"/>
     </g>
     <g id="line2d_8">
      <defs>
       <path id="mf99f6cf52e" d="M 0 0 
L -3.5 0 
" style="stroke: #000000; stroke-width: 0.8"/>
      </defs>
      <g>
       <use xlink:href="#mf99f6cf52e" x="45.478125" y="276.334125" style="stroke: #000000; stroke-width: 0.8"/>
      </g>
     </g>
     <g id="text_5">
      <!-- $\mathdefault{10^{0}}$ -->
      <g transform="translate(20.878125 280.133344) scale(0.1 -0.1)">
       <defs>
        <path id="DejaVuSans-31" d="M 794 531 
L 1825 531 
L 1825 4091 
L 703 3866 
L 703 4441 
L 1819 4666 
L 2450 4666 
L 2450 531 
L 3481 531 
L 3481 0 
L 794 0 
L 794 531 
z
" transform="scale(0.015625)"/>
       </defs>
       <use xlink:href="#DejaVuSans-31" transform="translate(0 0.765625)"/>
       <use xlink:href="#DejaVuSans-30" transform="translate(63.623047 0.765625)"/>
       <use xlink:href="#DejaVuSans-30" transform="translate(128.203125 39.046875) scale(0.7)"/>
      </g>
     </g>
    </g>
    <g id="ytick_2">
     <g id="line2d_9">
      <path d="M 45.478125 200.060912 
L 402.598125 200.060912 
" clip-path="url(#pbd5c44a8c3)" style="fill: none; stroke: #b0b0b0; stroke-width: 0.8; stroke-linecap: square"/>
     </g>
     <g id="line2d_10">
      <g>
       <use xlink:href="#mf99f6cf52e" x="45.478125" y="200.060912" style="stroke: #000000; stroke-width: 0.8"/>
      </g>
     </g>
     <g id="text_6">
      <!-- $\mathdefault{10^{1}}$ -->
      <g transform="translate(20.878125 203.86013) scale(0.1 -0.1)">
       <use xlink:href="#DejaVuSans-31" transform="translate(0 0.684375)"/>
       <use xlink:href="#DejaVuSans-30" transform="translate(63.623047 0.684375)"/>
       <use xlink:href="#DejaVuSans-31" transform="translate(128.203125 38.965625) scale(0.7)"/>
      </g>
     </g>
    </g>
    <g id="ytick_3">
     <g id="line2d_11">
      <path d="M 45.478125 123.787698 
L 402.598125 123.787698 
" clip-path="url(#pbd5c44a8c3)" style="fill: none; stroke: #b0b0b0; stroke-width: 0.8; stroke-linecap: square"/>
     </g>
     <g id="line2d_12">
      <g>
       <use xlink:href="#mf99f6cf52e" x="45.478125" y="123.787698" style="stroke: #000000; stroke-width: 0.8"/>
      </g>
     </g>
     <g id="text_7">
      <!-- $\mathdefault{10^{2}}$ -->
      <g transform="translate(20.878125 127.586917) scale(0.1 -0.1)">
       <use xlink:href="#DejaVuSans-31" transform="translate(0 0.765625)"/>
       <use xlink:href="#DejaVuSans-30" transform="translate(63.623047 0.765625)"/>
       <use xlink:href="#DejaVuSans-32" transform="translate(128.203125 39.046875) scale(0.7)"/>
      </g>
     </g>
    </g>
    <g id="ytick_4">
     <g id="line2d_13">
      <path d="M 45.478125 47.514485 
L 402.598125 47.514485 
" clip-path="url(#pbd5c44a8c3)" style="fill: none; stroke: #b0b0b0; stroke-width: 0.8; stroke-linecap: square"/>
     </g>
     <g id="line2d_14">
      <g>
       <use xlink:href="#mf99f6cf52e" x="45.478125" y="47.514485" style="stroke: #000000; stroke-width: 0.8"/>
      </g>
     </g>
     <g id="text_8">
      <!-- $\mathdefault{10^{3}}$ -->
      <g transform="translate(20.878125 51.313703) scale(0.1 -0.1)">
       <defs>
        <path id="DejaVuSans-33" d="M 2597 2516 
Q 3050 2419 3304 2112 
Q 3559 1806 3559 1356 
Q 3559 666 3084 287 
Q 2609 -91 1734 -91 
Q 1441 -91 1130 -33 
Q 819 25 488 141 
L 488 750 
Q 750 597 1062 519 
Q 1375 441 1716 441 
Q 2309 441 2620 675 
Q 2931 909 2931 1356 
Q 2931 1769 2642 2001 
Q 2353 2234 1838 2234 
L 1294 2234 
L 1294 2753 
L 1863 2753 
Q 2328 2753 2575 2939 
Q 2822 3125 2822 3475 
Q 2822 3834 2567 4026 
Q 2313 4219 1838 4219 
Q 1578 4219 1281 4162 
Q 984 4106 628 3988 
L 628 4550 
Q 988 4650 1302 4700 
Q 1616 4750 1894 4750 
Q 2613 4750 3031 4423 
Q 3450 4097 3450 3541 
Q 3450 3153 3228 2886 
Q 3006 2619 2597 2516 
z
" transform="scale(0.015625)"/>
       </defs>
       <use xlink:href="#DejaVuSans-31" transform="translate(0 0.765625)"/>
       <use xlink:href="#DejaVuSans-30" transform="translate(63.623047 0.765625)"/>
       <use xlink:href="#DejaVuSans-33" transform="translate(128.203125 39.046875) scale(0.7)"/>
      </g>
     </g>
    </g>
    <g id="ytick_5">
     <g id="line2d_15">
      <path d="M 45.478125 288.148995 
L 402.598125 288.148995 
" clip-path="url(#pbd5c44a8c3)" style="fill: none; stroke: #b0b0b0; stroke-width: 0.8; stroke-linecap: square"/>
     </g>
     <g id="line2d_16">
      <defs>
       <path id="m90910c30ee" d="M 0 0 
L -2 0 
" style="stroke: #000000; stroke-width: 0.6"/>
      </defs>
      <g>
       <use xlink:href="#m90910c30ee" x="45.478125" y="288.148995" style="stroke: #000000; stroke-width: 0.6"/>
      </g>
     </g>
    </g>
    <g id="ytick_6">
     <g id="line2d_17">
      <path d="M 45.478125 283.725763 
L 402.598125 283.725763 
" clip-path="url(#pbd5c44a8c3)" style="fill: none; stroke: #b0b0b0; stroke-width: 0.8; stroke-linecap: square"/>
     </g>
     <g id="line2d_18">
      <g>
       <use xlink:href="#m90910c30ee" x="45.478125" y="283.725763" style="stroke: #000000; stroke-width: 0.6"/>
      </g>
     </g>
    </g>
    <g id="ytick_7">
     <g id="line2d_19">
      <path d="M 45.478125 279.824196 
L 402.598125 279.824196 
" clip-path="url(#pbd5c44a8c3)" style="fill: none; stroke: #b0b0b0; stroke-width: 0.8; stroke-linecap: square"/>
     </g>
     <g id="line2d_20">
      <g>
       <use xlink:href="#m90910c30ee" x="45.478125" y="279.824196" style="stroke: #000000; stroke-width: 0.6"/>
      </g>
     </g>
    </g>
    <g id="ytick_8">
     <g id="line2d_21">
      <path d="M 45.478125 253.3736 
L 402.598125 253.3736 
" clip-path="url(#pbd5c44a8c3)" style="fill: none; stroke: #b0b0b0; stroke-width: 0.8; stroke-linecap: square"/>
     </g>
     <g id="line2d_22">
      <g>
       <use xlink:href="#m90910c30ee" x="45.478125" y="253.3736" style="stroke: #000000; stroke-width: 0.6"/>
      </g>
     </g>
    </g>
    <g id="ytick_9">
     <g id="line2d_23">
      <path d="M 45.478125 239.942554 
L 402.598125 239.942554 
" clip-path="url(#pbd5c44a8c3)" style="fill: none; stroke: #b0b0b0; stroke-width: 0.8; stroke-linecap: square"/>
     </g>
     <g id="line2d_24">
      <g>
       <use xlink:href="#m90910c30ee" x="45.478125" y="239.942554" style="stroke: #000000; stroke-width: 0.6"/>
      </g>
     </g>
    </g>
    <g id="ytick_10">
     <g id="line2d_25">
      <path d="M 45.478125 230.413075 
L 402.598125 230.413075 
" clip-path="url(#pbd5c44a8c3)" style="fill: none; stroke: #b0b0b0; stroke-width: 0.8; stroke-linecap: square"/>
     </g>
     <g id="line2d_26">
      <g>
       <use xlink:href="#m90910c30ee" x="45.478125" y="230.413075" style="stroke: #000000; stroke-width: 0.6"/>
      </g>
     </g>
    </g>
    <g id="ytick_11">
     <g id="line2d_27">
      <path d="M 45.478125 223.021437 
L 402.598125 223.021437 
" clip-path="url(#pbd5c44a8c3)" style="fill: none; stroke: #b0b0b0; stroke-width: 0.8; stroke-linecap: square"/>
     </g>
     <g id="line2d_28">
      <g>
       <use xlink:href="#m90910c30ee" x="45.478125" y="223.021437" style="stroke: #000000; stroke-width: 0.6"/>
      </g>
     </g>
    </g>
    <g id="ytick_12">
     <g id="line2d_29">
      <path d="M 45.478125 216.982029 
L 402.598125 216.982029 
" clip-path="url(#pbd5c44a8c3)" style="fill: none; stroke: #b0b0b0; stroke-width: 0.8; stroke-linecap: square"/>
     </g>
     <g id="line2d_30">
      <g>
       <use xlink:href="#m90910c30ee" x="45.478125" y="216.982029" style="stroke: #000000; stroke-width: 0.6"/>
      </g>
     </g>
    </g>
    <g id="ytick_13">
     <g id="line2d_31">
      <path d="M 45.478125 211.875782 
L 402.598125 211.875782 
" clip-path="url(#pbd5c44a8c3)" style="fill: none; stroke: #b0b0b0; stroke-width: 0.8; stroke-linecap: square"/>
     </g>
     <g id="line2d_32">
      <g>
       <use xlink:href="#m90910c30ee" x="45.478125" y="211.875782" style="stroke: #000000; stroke-width: 0.6"/>
      </g>
     </g>
    </g>
    <g id="ytick_14">
     <g id="line2d_33">
      <path d="M 45.478125 207.45255 
L 402.598125 207.45255 
" clip-path="url(#pbd5c44a8c3)" style="fill: none; stroke: #b0b0b0; stroke-width: 0.8; stroke-linecap: square"/>
     </g>
     <g id="line2d_34">
      <g>
       <use xlink:href="#m90910c30ee" x="45.478125" y="207.45255" style="stroke: #000000; stroke-width: 0.6"/>
      </g>
     </g>
    </g>
    <g id="ytick_15">
     <g id="line2d_35">
      <path d="M 45.478125 203.550982 
L 402.598125 203.550982 
" clip-path="url(#pbd5c44a8c3)" style="fill: none; stroke: #b0b0b0; stroke-width: 0.8; stroke-linecap: square"/>
     </g>
     <g id="line2d_36">
      <g>
       <use xlink:href="#m90910c30ee" x="45.478125" y="203.550982" style="stroke: #000000; stroke-width: 0.6"/>
      </g>
     </g>
    </g>
    <g id="ytick_16">
     <g id="line2d_37">
      <path d="M 45.478125 177.100386 
L 402.598125 177.100386 
" clip-path="url(#pbd5c44a8c3)" style="fill: none; stroke: #b0b0b0; stroke-width: 0.8; stroke-linecap: square"/>
     </g>
     <g id="line2d_38">
      <g>
       <use xlink:href="#m90910c30ee" x="45.478125" y="177.100386" style="stroke: #000000; stroke-width: 0.6"/>
      </g>
     </g>
    </g>
    <g id="ytick_17">
     <g id="line2d_39">
      <path d="M 45.478125 163.66934 
L 402.598125 163.66934 
" clip-path="url(#pbd5c44a8c3)" style="fill: none; stroke: #b0b0b0; stroke-width: 0.8; stroke-linecap: square"/>
     </g>
     <g id="line2d_40">
      <g>
       <use xlink:href="#m90910c30ee" x="45.478125" y="163.66934" style="stroke: #000000; stroke-width: 0.6"/>
      </g>
     </g>
    </g>
    <g id="ytick_18">
     <g id="line2d_41">
      <path d="M 45.478125 154.139861 
L 402.598125 154.139861 
" clip-path="url(#pbd5c44a8c3)" style="fill: none; stroke: #b0b0b0; stroke-width: 0.8; stroke-linecap: square"/>
     </g>
     <g id="line2d_42">
      <g>
       <use xlink:href="#m90910c30ee" x="45.478125" y="154.139861" style="stroke: #000000; stroke-width: 0.6"/>
      </g>
     </g>
    </g>
    <g id="ytick_19">
     <g id="line2d_43">
      <path d="M 45.478125 146.748223 
L 402.598125 146.748223 
" clip-path="url(#pbd5c44a8c3)" style="fill: none; stroke: #b0b0b0; stroke-width: 0.8; stroke-linecap: square"/>
     </g>
     <g id="line2d_44">
      <g>
       <use xlink:href="#m90910c30ee" x="45.478125" y="146.748223" style="stroke: #000000; stroke-width: 0.6"/>
      </g>
     </g>
    </g>
    <g id="ytick_20">
     <g id="line2d_45">
      <path d="M 45.478125 140.708815 
L 402.598125 140.708815 
" clip-path="url(#pbd5c44a8c3)" style="fill: none; stroke: #b0b0b0; stroke-width: 0.8; stroke-linecap: square"/>
     </g>
     <g id="line2d_46">
      <g>
       <use xlink:href="#m90910c30ee" x="45.478125" y="140.708815" style="stroke: #000000; stroke-width: 0.6"/>
      </g>
     </g>
    </g>
    <g id="ytick_21">
     <g id="line2d_47">
      <path d="M 45.478125 135.602568 
L 402.598125 135.602568 
" clip-path="url(#pbd5c44a8c3)" style="fill: none; stroke: #b0b0b0; stroke-width: 0.8; stroke-linecap: square"/>
     </g>
     <g id="line2d_48">
      <g>
       <use xlink:href="#m90910c30ee" x="45.478125" y="135.602568" style="stroke: #000000; stroke-width: 0.6"/>
      </g>
     </g>
    </g>
    <g id="ytick_22">
     <g id="line2d_49">
      <path d="M 45.478125 131.179336 
L 402.598125 131.179336 
" clip-path="url(#pbd5c44a8c3)" style="fill: none; stroke: #b0b0b0; stroke-width: 0.8; stroke-linecap: square"/>
     </g>
     <g id="line2d_50">
      <g>
       <use xlink:href="#m90910c30ee" x="45.478125" y="131.179336" style="stroke: #000000; stroke-width: 0.6"/>
      </g>
     </g>
    </g>
    <g id="ytick_23">
     <g id="line2d_51">
      <path d="M 45.478125 127.277769 
L 402.598125 127.277769 
" clip-path="url(#pbd5c44a8c3)" style="fill: none; stroke: #b0b0b0; stroke-width: 0.8; stroke-linecap: square"/>
     </g>
     <g id="line2d_52">
      <g>
       <use xlink:href="#m90910c30ee" x="45.478125" y="127.277769" style="stroke: #000000; stroke-width: 0.6"/>
      </g>
     </g>
    </g>
    <g id="ytick_24">
     <g id="line2d_53">
      <path d="M 45.478125 100.827173 
L 402.598125 100.827173 
" clip-path="url(#pbd5c44a8c3)" style="fill: none; stroke: #b0b0b0; stroke-width: 0.8; stroke-linecap: square"/>
     </g>
     <g id="line2d_54">
      <g>
       <use xlink:href="#m90910c30ee" x="45.478125" y="100.827173" style="stroke: #000000; stroke-width: 0.6"/>
      </g>
     </g>
    </g>
    <g id="ytick_25">
     <g id="line2d_55">
      <path d="M 45.478125 87.396127 
L 402.598125 87.396127 
" clip-path="url(#pbd5c44a8c3)" style="fill: none; stroke: #b0b0b0; stroke-width: 0.8; stroke-linecap: square"/>
     </g>
     <g id="line2d_56">
      <g>
       <use xlink:href="#m90910c30ee" x="45.478125" y="87.396127" style="stroke: #000000; stroke-width: 0.6"/>
      </g>
     </g>
    </g>
    <g id="ytick_26">
     <g id="line2d_57">
      <path d="M 45.478125 77.866648 
L 402.598125 77.866648 
" clip-path="url(#pbd5c44a8c3)" style="fill: none; stroke: #b0b0b0; stroke-width: 0.8; stroke-linecap: square"/>
     </g>
     <g id="line2d_58">
      <g>
       <use xlink:href="#m90910c30ee" x="45.478125" y="77.866648" style="stroke: #000000; stroke-width: 0.6"/>
      </g>
     </g>
    </g>
    <g id="ytick_27">
     <g id="line2d_59">
      <path d="M 45.478125 70.47501 
L 402.598125 70.47501 
" clip-path="url(#pbd5c44a8c3)" style="fill: none; stroke: #b0b0b0; stroke-width: 0.8; stroke-linecap: square"/>
     </g>
     <g id="line2d_60">
      <g>
       <use xlink:href="#m90910c30ee" x="45.478125" y="70.47501" style="stroke: #000000; stroke-width: 0.6"/>
      </g>
     </g>
    </g>
    <g id="ytick_28">
     <g id="line2d_61">
      <path d="M 45.478125 64.435602 
L 402.598125 64.435602 
" clip-path="url(#pbd5c44a8c3)" style="fill: none; stroke: #b0b0b0; stroke-width: 0.8; stroke-linecap: square"/>
     </g>
     <g id="line2d_62">
      <g>
       <use xlink:href="#m90910c30ee" x="45.478125" y="64.435602" style="stroke: #000000; stroke-width: 0.6"/>
      </g>
     </g>
    </g>
    <g id="ytick_29">
     <g id="line2d_63">
      <path d="M 45.478125 59.329355 
L 402.598125 59.329355 
" clip-path="url(#pbd5c44a8c3)" style="fill: none; stroke: #b0b0b0; stroke-width: 0.8; stroke-linecap: square"/>
     </g>
     <g id="line2d_64">
      <g>
       <use xlink:href="#m90910c30ee" x="45.478125" y="59.329355" style="stroke: #000000; stroke-width: 0.6"/>
      </g>
     </g>
    </g>
    <g id="ytick_30">
     <g id="line2d_65">
      <path d="M 45.478125 54.906123 
L 402.598125 54.906123 
" clip-path="url(#pbd5c44a8c3)" style="fill: none; stroke: #b0b0b0; stroke-width: 0.8; stroke-linecap: square"/>
     </g>
     <g id="line2d_66">
      <g>
       <use xlink:href="#m90910c30ee" x="45.478125" y="54.906123" style="stroke: #000000; stroke-width: 0.6"/>
      </g>
     </g>
    </g>
    <g id="ytick_31">
     <g id="line2d_67">
      <path d="M 45.478125 51.004555 
L 402.598125 51.004555 
" clip-path="url(#pbd5c44a8c3)" style="fill: none; stroke: #b0b0b0; stroke-width: 0.8; stroke-linecap: square"/>
     </g>
     <g id="line2d_68">
      <g>
       <use xlink:href="#m90910c30ee" x="45.478125" y="51.004555" style="stroke: #000000; stroke-width: 0.6"/>
      </g>
     </g>
    </g>
    <g id="ytick_32">
     <g id="line2d_69">
      <path d="M 45.478125 24.553959 
L 402.598125 24.553959 
" clip-path="url(#pbd5c44a8c3)" style="fill: none; stroke: #b0b0b0; stroke-width: 0.8; stroke-linecap: square"/>
     </g>
     <g id="line2d_70">
      <g>
       <use xlink:href="#m90910c30ee" x="45.478125" y="24.553959" style="stroke: #000000; stroke-width: 0.6"/>
      </g>
     </g>
    </g>
    <g id="text_9">
     <!-- [-] -->
     <g transform="translate(14.798438 161.079594) rotate(-90) scale(0.1 -0.1)">
      <defs>
       <path id="DejaVuSans-5b" d="M 550 4863 
L 1875 4863 
L 1875 4416 
L 1125 4416 
L 1125 -397 
L 1875 -397 
L 1875 -844 
L 550 -844 
L 550 4863 
z
" transform="scale(0.015625)"/>
       <path id="DejaVuSans-2d" d="M 313 2009 
L 1997 2009 
L 1997 1497 
L 313 1497 
L 313 2009 
z
" transform="scale(0.015625)"/>
       <path id="DejaVuSans-5d" d="M 1947 4863 
L 1947 -844 
L 622 -844 
L 622 -397 
L 1369 -397 
L 1369 4416 
L 622 4416 
L 622 4863 
L 1947 4863 
z
" transform="scale(0.015625)"/>
      </defs>
      <use xlink:href="#DejaVuSans-5b"/>
      <use xlink:href="#DejaVuSans-2d" x="39.013672"/>
      <use xlink:href="#DejaVuSans-5d" x="75.097656"/>
     </g>
    </g>
   </g>
   <g id="line2d_71">
    <path d="M 61.710852 246.488442 
L 69.827216 276.334125 
L 77.94358 269.334873 
L 86.059943 267.425926 
L 94.176307 266.733026 
L 102.29267 266.454133 
L 110.409034 266.346708 
L 118.525398 266.319716 
L 126.641761 266.333908 
L 134.758125 266.370536 
L 142.874489 266.419858 
L 150.990852 266.476433 
L 159.107216 266.537029 
L 167.22358 266.599627 
L 175.339943 266.662914 
L 183.456307 266.726019 
L 191.57267 266.788352 
L 199.689034 266.849518 
L 207.805398 266.909257 
L 215.921761 266.967405 
L 224.038125 267.023868 
L 232.154489 267.078603 
L 240.270852 267.131604 
L 248.387216 267.182893 
L 256.50358 267.232508 
L 264.619943 267.280504 
L 272.736307 267.326942 
L 280.85267 267.371889 
L 288.969034 267.415416 
L 297.085398 267.457593 
L 305.201761 267.498491 
L 313.318125 267.53818 
L 321.434489 267.576727 
L 329.550852 267.614197 
L 337.667216 267.650652 
L 345.78358 267.686151 
L 353.899943 267.72075 
L 362.016307 267.754502 
L 370.13267 267.787457 
L 378.249034 267.819662 
L 386.365398 267.851162 
" clip-path="url(#pbd5c44a8c3)" style="fill: none; stroke: #0000ff; stroke-width: 1.5; stroke-linecap: square"/>
    <defs>
     <path id="m86e36b4bd8" d="M 0 0 
L -3 -0 
M 0 0 
L 1.5 2.4 
M 0 0 
L 1.5 -2.4 
" style="stroke: #0000ff"/>
    </defs>
    <g clip-path="url(#pbd5c44a8c3)">
     <use xlink:href="#m86e36b4bd8" x="61.710852" y="246.488442" style="fill: #0000ff; stroke: #0000ff"/>
     <use xlink:href="#m86e36b4bd8" x="69.827216" y="276.334125" style="fill: #0000ff; stroke: #0000ff"/>
     <use xlink:href="#m86e36b4bd8" x="77.94358" y="269.334873" style="fill: #0000ff; stroke: #0000ff"/>
     <use xlink:href="#m86e36b4bd8" x="86.059943" y="267.425926" style="fill: #0000ff; stroke: #0000ff"/>
     <use xlink:href="#m86e36b4bd8" x="94.176307" y="266.733026" style="fill: #0000ff; stroke: #0000ff"/>
     <use xlink:href="#m86e36b4bd8" x="102.29267" y="266.454133" style="fill: #0000ff; stroke: #0000ff"/>
     <use xlink:href="#m86e36b4bd8" x="110.409034" y="266.346708" style="fill: #0000ff; stroke: #0000ff"/>
     <use xlink:href="#m86e36b4bd8" x="118.525398" y="266.319716" style="fill: #0000ff; stroke: #0000ff"/>
     <use xlink:href="#m86e36b4bd8" x="126.641761" y="266.333908" style="fill: #0000ff; stroke: #0000ff"/>
     <use xlink:href="#m86e36b4bd8" x="134.758125" y="266.370536" style="fill: #0000ff; stroke: #0000ff"/>
     <use xlink:href="#m86e36b4bd8" x="142.874489" y="266.419858" style="fill: #0000ff; stroke: #0000ff"/>
     <use xlink:href="#m86e36b4bd8" x="150.990852" y="266.476433" style="fill: #0000ff; stroke: #0000ff"/>
     <use xlink:href="#m86e36b4bd8" x="159.107216" y="266.537029" style="fill: #0000ff; stroke: #0000ff"/>
     <use xlink:href="#m86e36b4bd8" x="167.22358" y="266.599627" style="fill: #0000ff; stroke: #0000ff"/>
     <use xlink:href="#m86e36b4bd8" x="175.339943" y="266.662914" style="fill: #0000ff; stroke: #0000ff"/>
     <use xlink:href="#m86e36b4bd8" x="183.456307" y="266.726019" style="fill: #0000ff; stroke: #0000ff"/>
     <use xlink:href="#m86e36b4bd8" x="191.57267" y="266.788352" style="fill: #0000ff; stroke: #0000ff"/>
     <use xlink:href="#m86e36b4bd8" x="199.689034" y="266.849518" style="fill: #0000ff; stroke: #0000ff"/>
     <use xlink:href="#m86e36b4bd8" x="207.805398" y="266.909257" style="fill: #0000ff; stroke: #0000ff"/>
     <use xlink:href="#m86e36b4bd8" x="215.921761" y="266.967405" style="fill: #0000ff; stroke: #0000ff"/>
     <use xlink:href="#m86e36b4bd8" x="224.038125" y="267.023868" style="fill: #0000ff; stroke: #0000ff"/>
     <use xlink:href="#m86e36b4bd8" x="232.154489" y="267.078603" style="fill: #0000ff; stroke: #0000ff"/>
     <use xlink:href="#m86e36b4bd8" x="240.270852" y="267.131604" style="fill: #0000ff; stroke: #0000ff"/>
     <use xlink:href="#m86e36b4bd8" x="248.387216" y="267.182893" style="fill: #0000ff; stroke: #0000ff"/>
     <use xlink:href="#m86e36b4bd8" x="256.50358" y="267.232508" style="fill: #0000ff; stroke: #0000ff"/>
     <use xlink:href="#m86e36b4bd8" x="264.619943" y="267.280504" style="fill: #0000ff; stroke: #0000ff"/>
     <use xlink:href="#m86e36b4bd8" x="272.736307" y="267.326942" style="fill: #0000ff; stroke: #0000ff"/>
     <use xlink:href="#m86e36b4bd8" x="280.85267" y="267.371889" style="fill: #0000ff; stroke: #0000ff"/>
     <use xlink:href="#m86e36b4bd8" x="288.969034" y="267.415416" style="fill: #0000ff; stroke: #0000ff"/>
     <use xlink:href="#m86e36b4bd8" x="297.085398" y="267.457593" style="fill: #0000ff; stroke: #0000ff"/>
     <use xlink:href="#m86e36b4bd8" x="305.201761" y="267.498491" style="fill: #0000ff; stroke: #0000ff"/>
     <use xlink:href="#m86e36b4bd8" x="313.318125" y="267.53818" style="fill: #0000ff; stroke: #0000ff"/>
     <use xlink:href="#m86e36b4bd8" x="321.434489" y="267.576727" style="fill: #0000ff; stroke: #0000ff"/>
     <use xlink:href="#m86e36b4bd8" x="329.550852" y="267.614197" style="fill: #0000ff; stroke: #0000ff"/>
     <use xlink:href="#m86e36b4bd8" x="337.667216" y="267.650652" style="fill: #0000ff; stroke: #0000ff"/>
     <use xlink:href="#m86e36b4bd8" x="345.78358" y="267.686151" style="fill: #0000ff; stroke: #0000ff"/>
     <use xlink:href="#m86e36b4bd8" x="353.899943" y="267.72075" style="fill: #0000ff; stroke: #0000ff"/>
     <use xlink:href="#m86e36b4bd8" x="362.016307" y="267.754502" style="fill: #0000ff; stroke: #0000ff"/>
     <use xlink:href="#m86e36b4bd8" x="370.13267" y="267.787457" style="fill: #0000ff; stroke: #0000ff"/>
     <use xlink:href="#m86e36b4bd8" x="378.249034" y="267.819662" style="fill: #0000ff; stroke: #0000ff"/>
     <use xlink:href="#m86e36b4bd8" x="386.365398" y="267.851162" style="fill: #0000ff; stroke: #0000ff"/>
    </g>
   </g>
   <g id="line2d_72">
    <path d="M 69.796181 326.986375 
L 69.827216 34.414125 
L 77.94358 92.875296 
L 86.059943 141.233284 
L 94.176307 173.994256 
L 102.29267 193.06111 
L 110.409034 204.416736 
L 118.525398 212.264383 
L 126.641761 218.391565 
L 134.758125 223.483465 
L 142.874489 227.837835 
L 150.990852 231.619106 
L 159.107216 234.940137 
L 167.22358 237.888136 
L 175.339943 240.533259 
L 183.456307 242.932149 
L 191.57267 245.130127 
L 199.689034 247.163066 
L 207.805398 249.05911 
L 215.921761 250.840215 
L 224.038125 252.523477 
L 232.154489 254.122224 
L 240.270852 255.646902 
L 248.387216 257.105754 
L 256.50358 258.505355 
L 264.619943 259.851014 
L 272.736307 261.147078 
L 280.85267 262.39716 
L 288.969034 263.604312 
L 297.085398 264.77115 
L 305.201761 265.899951 
L 313.318125 266.992726 
L 321.434489 268.051271 
L 329.550852 269.07721 
L 337.667216 270.072023 
L 345.78358 271.037074 
L 353.899943 271.973626 
L 362.016307 272.882859 
L 370.13267 273.765874 
L 378.249034 274.623711 
L 386.365398 275.457351 
" clip-path="url(#pbd5c44a8c3)" style="fill: none; stroke: #000000; stroke-width: 1.5; stroke-linecap: square"/>
    <defs>
     <path id="m1c2c5b1029" d="M 0 0 
L 3 0 
M 0 0 
L -1.5 -2.4 
M 0 0 
L -1.5 2.4 
" style="stroke: #000000"/>
    </defs>
    <g clip-path="url(#pbd5c44a8c3)">
     <use xlink:href="#m1c2c5b1029" x="67.341066" y="23472.019" style="stroke: #000000"/>
     <use xlink:href="#m1c2c5b1029" x="69.827216" y="34.414125" style="stroke: #000000"/>
     <use xlink:href="#m1c2c5b1029" x="77.94358" y="92.875296" style="stroke: #000000"/>
     <use xlink:href="#m1c2c5b1029" x="86.059943" y="141.233284" style="stroke: #000000"/>
     <use xlink:href="#m1c2c5b1029" x="94.176307" y="173.994256" style="stroke: #000000"/>
     <use xlink:href="#m1c2c5b1029" x="102.29267" y="193.06111" style="stroke: #000000"/>
     <use xlink:href="#m1c2c5b1029" x="110.409034" y="204.416736" style="stroke: #000000"/>
     <use xlink:href="#m1c2c5b1029" x="118.525398" y="212.264383" style="stroke: #000000"/>
     <use xlink:href="#m1c2c5b1029" x="126.641761" y="218.391565" style="stroke: #000000"/>
     <use xlink:href="#m1c2c5b1029" x="134.758125" y="223.483465" style="stroke: #000000"/>
     <use xlink:href="#m1c2c5b1029" x="142.874489" y="227.837835" style="stroke: #000000"/>
     <use xlink:href="#m1c2c5b1029" x="150.990852" y="231.619106" style="stroke: #000000"/>
     <use xlink:href="#m1c2c5b1029" x="159.107216" y="234.940137" style="stroke: #000000"/>
     <use xlink:href="#m1c2c5b1029" x="167.22358" y="237.888136" style="stroke: #000000"/>
     <use xlink:href="#m1c2c5b1029" x="175.339943" y="240.533259" style="stroke: #000000"/>
     <use xlink:href="#m1c2c5b1029" x="183.456307" y="242.932149" style="stroke: #000000"/>
     <use xlink:href="#m1c2c5b1029" x="191.57267" y="245.130127" style="stroke: #000000"/>
     <use xlink:href="#m1c2c5b1029" x="199.689034" y="247.163066" style="stroke: #000000"/>
     <use xlink:href="#m1c2c5b1029" x="207.805398" y="249.05911" style="stroke: #000000"/>
     <use xlink:href="#m1c2c5b1029" x="215.921761" y="250.840215" style="stroke: #000000"/>
     <use xlink:href="#m1c2c5b1029" x="224.038125" y="252.523477" style="stroke: #000000"/>
     <use xlink:href="#m1c2c5b1029" x="232.154489" y="254.122224" style="stroke: #000000"/>
     <use xlink:href="#m1c2c5b1029" x="240.270852" y="255.646902" style="stroke: #000000"/>
     <use xlink:href="#m1c2c5b1029" x="248.387216" y="257.105754" style="stroke: #000000"/>
     <use xlink:href="#m1c2c5b1029" x="256.50358" y="258.505355" style="stroke: #000000"/>
     <use xlink:href="#m1c2c5b1029" x="264.619943" y="259.851014" style="stroke: #000000"/>
     <use xlink:href="#m1c2c5b1029" x="272.736307" y="261.147078" style="stroke: #000000"/>
     <use xlink:href="#m1c2c5b1029" x="280.85267" y="262.39716" style="stroke: #000000"/>
     <use xlink:href="#m1c2c5b1029" x="288.969034" y="263.604312" style="stroke: #000000"/>
     <use xlink:href="#m1c2c5b1029" x="297.085398" y="264.77115" style="stroke: #000000"/>
     <use xlink:href="#m1c2c5b1029" x="305.201761" y="265.899951" style="stroke: #000000"/>
     <use xlink:href="#m1c2c5b1029" x="313.318125" y="266.992726" style="stroke: #000000"/>
     <use xlink:href="#m1c2c5b1029" x="321.434489" y="268.051271" style="stroke: #000000"/>
     <use xlink:href="#m1c2c5b1029" x="329.550852" y="269.07721" style="stroke: #000000"/>
     <use xlink:href="#m1c2c5b1029" x="337.667216" y="270.072023" style="stroke: #000000"/>
     <use xlink:href="#m1c2c5b1029" x="345.78358" y="271.037074" style="stroke: #000000"/>
     <use xlink:href="#m1c2c5b1029" x="353.899943" y="271.973626" style="stroke: #000000"/>
     <use xlink:href="#m1c2c5b1029" x="362.016307" y="272.882859" style="stroke: #000000"/>
     <use xlink:href="#m1c2c5b1029" x="370.13267" y="273.765874" style="stroke: #000000"/>
     <use xlink:href="#m1c2c5b1029" x="378.249034" y="274.623711" style="stroke: #000000"/>
     <use xlink:href="#m1c2c5b1029" x="386.365398" y="275.457351" style="stroke: #000000"/>
    </g>
   </g>
   <g id="patch_3">
    <path d="M 45.478125 288.430125 
L 45.478125 22.318125 
" style="fill: none; stroke: #000000; stroke-width: 0.8; stroke-linejoin: miter; stroke-linecap: square"/>
   </g>
   <g id="patch_4">
    <path d="M 402.598125 288.430125 
L 402.598125 22.318125 
" style="fill: none; stroke: #000000; stroke-width: 0.8; stroke-linejoin: miter; stroke-linecap: square"/>
   </g>
   <g id="patch_5">
    <path d="M 45.478125 288.430125 
L 402.598125 288.430125 
" style="fill: none; stroke: #000000; stroke-width: 0.8; stroke-linejoin: miter; stroke-linecap: square"/>
   </g>
   <g id="patch_6">
    <path d="M 45.478125 22.318125 
L 402.598125 22.318125 
" style="fill: none; stroke: #000000; stroke-width: 0.8; stroke-linejoin: miter; stroke-linecap: square"/>
   </g>
   <g id="text_10">
    <!-- Mass Conservation and Pressure Drop in Static Mixer -->
    <g transform="translate(65.59125 16.318125) scale(0.12 -0.12)">
     <defs>
      <path id="DejaVuSans-4d" d="M 628 4666 
L 1569 4666 
L 2759 1491 
L 3956 4666 
L 4897 4666 
L 4897 0 
L 4281 0 
L 4281 4097 
L 3078 897 
L 2444 897 
L 1241 4097 
L 1241 0 
L 628 0 
L 628 4666 
z
" transform="scale(0.015625)"/>
      <path id="DejaVuSans-61" d="M 2194 1759 
Q 1497 1759 1228 1600 
Q 959 1441 959 1056 
Q 959 750 1161 570 
Q 1363 391 1709 391 
Q 2188 391 2477 730 
Q 2766 1069 2766 1631 
L 2766 1759 
L 2194 1759 
z
M 3341 1997 
L 3341 0 
L 2766 0 
L 2766 531 
Q 2569 213 2275 61 
Q 1981 -91 1556 -91 
Q 1019 -91 701 211 
Q 384 513 384 1019 
Q 384 1609 779 1909 
Q 1175 2209 1959 2209 
L 2766 2209 
L 2766 2266 
Q 2766 2663 2505 2880 
Q 2244 3097 1772 3097 
Q 1472 3097 1187 3025 
Q 903 2953 641 2809 
L 641 3341 
Q 956 3463 1253 3523 
Q 1550 3584 1831 3584 
Q 2591 3584 2966 3190 
Q 3341 2797 3341 1997 
z
" transform="scale(0.015625)"/>
      <path id="DejaVuSans-43" d="M 4122 4306 
L 4122 3641 
Q 3803 3938 3442 4084 
Q 3081 4231 2675 4231 
Q 1875 4231 1450 3742 
Q 1025 3253 1025 2328 
Q 1025 1406 1450 917 
Q 1875 428 2675 428 
Q 3081 428 3442 575 
Q 3803 722 4122 1019 
L 4122 359 
Q 3791 134 3420 21 
Q 3050 -91 2638 -91 
Q 1578 -91 968 557 
Q 359 1206 359 2328 
Q 359 3453 968 4101 
Q 1578 4750 2638 4750 
Q 3056 4750 3426 4639 
Q 3797 4528 4122 4306 
z
" transform="scale(0.015625)"/>
      <path id="DejaVuSans-6f" d="M 1959 3097 
Q 1497 3097 1228 2736 
Q 959 2375 959 1747 
Q 959 1119 1226 758 
Q 1494 397 1959 397 
Q 2419 397 2687 759 
Q 2956 1122 2956 1747 
Q 2956 2369 2687 2733 
Q 2419 3097 1959 3097 
z
M 1959 3584 
Q 2709 3584 3137 3096 
Q 3566 2609 3566 1747 
Q 3566 888 3137 398 
Q 2709 -91 1959 -91 
Q 1206 -91 779 398 
Q 353 888 353 1747 
Q 353 2609 779 3096 
Q 1206 3584 1959 3584 
z
" transform="scale(0.015625)"/>
      <path id="DejaVuSans-6e" d="M 3513 2113 
L 3513 0 
L 2938 0 
L 2938 2094 
Q 2938 2591 2744 2837 
Q 2550 3084 2163 3084 
Q 1697 3084 1428 2787 
Q 1159 2491 1159 1978 
L 1159 0 
L 581 0 
L 581 3500 
L 1159 3500 
L 1159 2956 
Q 1366 3272 1645 3428 
Q 1925 3584 2291 3584 
Q 2894 3584 3203 3211 
Q 3513 2838 3513 2113 
z
" transform="scale(0.015625)"/>
      <path id="DejaVuSans-72" d="M 2631 2963 
Q 2534 3019 2420 3045 
Q 2306 3072 2169 3072 
Q 1681 3072 1420 2755 
Q 1159 2438 1159 1844 
L 1159 0 
L 581 0 
L 581 3500 
L 1159 3500 
L 1159 2956 
Q 1341 3275 1631 3429 
Q 1922 3584 2338 3584 
Q 2397 3584 2469 3576 
Q 2541 3569 2628 3553 
L 2631 2963 
z
" transform="scale(0.015625)"/>
      <path id="DejaVuSans-76" d="M 191 3500 
L 800 3500 
L 1894 563 
L 2988 3500 
L 3597 3500 
L 2284 0 
L 1503 0 
L 191 3500 
z
" transform="scale(0.015625)"/>
      <path id="DejaVuSans-74" d="M 1172 4494 
L 1172 3500 
L 2356 3500 
L 2356 3053 
L 1172 3053 
L 1172 1153 
Q 1172 725 1289 603 
Q 1406 481 1766 481 
L 2356 481 
L 2356 0 
L 1766 0 
Q 1100 0 847 248 
Q 594 497 594 1153 
L 594 3053 
L 172 3053 
L 172 3500 
L 594 3500 
L 594 4494 
L 1172 4494 
z
" transform="scale(0.015625)"/>
      <path id="DejaVuSans-64" d="M 2906 2969 
L 2906 4863 
L 3481 4863 
L 3481 0 
L 2906 0 
L 2906 525 
Q 2725 213 2448 61 
Q 2172 -91 1784 -91 
Q 1150 -91 751 415 
Q 353 922 353 1747 
Q 353 2572 751 3078 
Q 1150 3584 1784 3584 
Q 2172 3584 2448 3432 
Q 2725 3281 2906 2969 
z
M 947 1747 
Q 947 1113 1208 752 
Q 1469 391 1925 391 
Q 2381 391 2643 752 
Q 2906 1113 2906 1747 
Q 2906 2381 2643 2742 
Q 2381 3103 1925 3103 
Q 1469 3103 1208 2742 
Q 947 2381 947 1747 
z
" transform="scale(0.015625)"/>
      <path id="DejaVuSans-50" d="M 1259 4147 
L 1259 2394 
L 2053 2394 
Q 2494 2394 2734 2622 
Q 2975 2850 2975 3272 
Q 2975 3691 2734 3919 
Q 2494 4147 2053 4147 
L 1259 4147 
z
M 628 4666 
L 2053 4666 
Q 2838 4666 3239 4311 
Q 3641 3956 3641 3272 
Q 3641 2581 3239 2228 
Q 2838 1875 2053 1875 
L 1259 1875 
L 1259 0 
L 628 0 
L 628 4666 
z
" transform="scale(0.015625)"/>
      <path id="DejaVuSans-75" d="M 544 1381 
L 544 3500 
L 1119 3500 
L 1119 1403 
Q 1119 906 1312 657 
Q 1506 409 1894 409 
Q 2359 409 2629 706 
Q 2900 1003 2900 1516 
L 2900 3500 
L 3475 3500 
L 3475 0 
L 2900 0 
L 2900 538 
Q 2691 219 2414 64 
Q 2138 -91 1772 -91 
Q 1169 -91 856 284 
Q 544 659 544 1381 
z
M 1991 3584 
L 1991 3584 
z
" transform="scale(0.015625)"/>
      <path id="DejaVuSans-44" d="M 1259 4147 
L 1259 519 
L 2022 519 
Q 2988 519 3436 956 
Q 3884 1394 3884 2338 
Q 3884 3275 3436 3711 
Q 2988 4147 2022 4147 
L 1259 4147 
z
M 628 4666 
L 1925 4666 
Q 3281 4666 3915 4102 
Q 4550 3538 4550 2338 
Q 4550 1131 3912 565 
Q 3275 0 1925 0 
L 628 0 
L 628 4666 
z
" transform="scale(0.015625)"/>
      <path id="DejaVuSans-70" d="M 1159 525 
L 1159 -1331 
L 581 -1331 
L 581 3500 
L 1159 3500 
L 1159 2969 
Q 1341 3281 1617 3432 
Q 1894 3584 2278 3584 
Q 2916 3584 3314 3078 
Q 3713 2572 3713 1747 
Q 3713 922 3314 415 
Q 2916 -91 2278 -91 
Q 1894 -91 1617 61 
Q 1341 213 1159 525 
z
M 3116 1747 
Q 3116 2381 2855 2742 
Q 2594 3103 2138 3103 
Q 1681 3103 1420 2742 
Q 1159 2381 1159 1747 
Q 1159 1113 1420 752 
Q 1681 391 2138 391 
Q 2594 391 2855 752 
Q 3116 1113 3116 1747 
z
" transform="scale(0.015625)"/>
      <path id="DejaVuSans-53" d="M 3425 4513 
L 3425 3897 
Q 3066 4069 2747 4153 
Q 2428 4238 2131 4238 
Q 1616 4238 1336 4038 
Q 1056 3838 1056 3469 
Q 1056 3159 1242 3001 
Q 1428 2844 1947 2747 
L 2328 2669 
Q 3034 2534 3370 2195 
Q 3706 1856 3706 1288 
Q 3706 609 3251 259 
Q 2797 -91 1919 -91 
Q 1588 -91 1214 -16 
Q 841 59 441 206 
L 441 856 
Q 825 641 1194 531 
Q 1563 422 1919 422 
Q 2459 422 2753 634 
Q 3047 847 3047 1241 
Q 3047 1584 2836 1778 
Q 2625 1972 2144 2069 
L 1759 2144 
Q 1053 2284 737 2584 
Q 422 2884 422 3419 
Q 422 4038 858 4394 
Q 1294 4750 2059 4750 
Q 2388 4750 2728 4690 
Q 3069 4631 3425 4513 
z
" transform="scale(0.015625)"/>
      <path id="DejaVuSans-63" d="M 3122 3366 
L 3122 2828 
Q 2878 2963 2633 3030 
Q 2388 3097 2138 3097 
Q 1578 3097 1268 2742 
Q 959 2388 959 1747 
Q 959 1106 1268 751 
Q 1578 397 2138 397 
Q 2388 397 2633 464 
Q 2878 531 3122 666 
L 3122 134 
Q 2881 22 2623 -34 
Q 2366 -91 2075 -91 
Q 1284 -91 818 406 
Q 353 903 353 1747 
Q 353 2603 823 3093 
Q 1294 3584 2113 3584 
Q 2378 3584 2631 3529 
Q 2884 3475 3122 3366 
z
" transform="scale(0.015625)"/>
      <path id="DejaVuSans-78" d="M 3513 3500 
L 2247 1797 
L 3578 0 
L 2900 0 
L 1881 1375 
L 863 0 
L 184 0 
L 1544 1831 
L 300 3500 
L 978 3500 
L 1906 2253 
L 2834 3500 
L 3513 3500 
z
" transform="scale(0.015625)"/>
     </defs>
     <use xlink:href="#DejaVuSans-4d"/>
     <use xlink:href="#DejaVuSans-61" x="86.279297"/>
     <use xlink:href="#DejaVuSans-73" x="147.558594"/>
     <use xlink:href="#DejaVuSans-73" x="199.658203"/>
     <use xlink:href="#DejaVuSans-20" x="251.757812"/>
     <use xlink:href="#DejaVuSans-43" x="283.544922"/>
     <use xlink:href="#DejaVuSans-6f" x="353.369141"/>
     <use xlink:href="#DejaVuSans-6e" x="414.550781"/>
     <use xlink:href="#DejaVuSans-73" x="477.929688"/>
     <use xlink:href="#DejaVuSans-65" x="530.029297"/>
     <use xlink:href="#DejaVuSans-72" x="591.552734"/>
     <use xlink:href="#DejaVuSans-76" x="632.666016"/>
     <use xlink:href="#DejaVuSans-61" x="691.845703"/>
     <use xlink:href="#DejaVuSans-74" x="753.125"/>
     <use xlink:href="#DejaVuSans-69" x="792.333984"/>
     <use xlink:href="#DejaVuSans-6f" x="820.117188"/>
     <use xlink:href="#DejaVuSans-6e" x="881.298828"/>
     <use xlink:href="#DejaVuSans-20" x="944.677734"/>
     <use xlink:href="#DejaVuSans-61" x="976.464844"/>
     <use xlink:href="#DejaVuSans-6e" x="1037.744141"/>
     <use xlink:href="#DejaVuSans-64" x="1101.123047"/>
     <use xlink:href="#DejaVuSans-20" x="1164.599609"/>
     <use xlink:href="#DejaVuSans-50" x="1196.386719"/>
     <use xlink:href="#DejaVuSans-72" x="1254.939453"/>
     <use xlink:href="#DejaVuSans-65" x="1293.802734"/>
     <use xlink:href="#DejaVuSans-73" x="1355.326172"/>
     <use xlink:href="#DejaVuSans-73" x="1407.425781"/>
     <use xlink:href="#DejaVuSans-75" x="1459.525391"/>
     <use xlink:href="#DejaVuSans-72" x="1522.904297"/>
     <use xlink:href="#DejaVuSans-65" x="1561.767578"/>
     <use xlink:href="#DejaVuSans-20" x="1623.291016"/>
     <use xlink:href="#DejaVuSans-44" x="1655.078125"/>
     <use xlink:href="#DejaVuSans-72" x="1732.080078"/>
     <use xlink:href="#DejaVuSans-6f" x="1770.943359"/>
     <use xlink:href="#DejaVuSans-70" x="1832.125"/>
     <use xlink:href="#DejaVuSans-20" x="1895.601562"/>
     <use xlink:href="#DejaVuSans-69" x="1927.388672"/>
     <use xlink:href="#DejaVuSans-6e" x="1955.171875"/>
     <use xlink:href="#DejaVuSans-20" x="2018.550781"/>
     <use xlink:href="#DejaVuSans-53" x="2050.337891"/>
     <use xlink:href="#DejaVuSans-74" x="2113.814453"/>
     <use xlink:href="#DejaVuSans-61" x="2153.023438"/>
     <use xlink:href="#DejaVuSans-74" x="2214.302734"/>
     <use xlink:href="#DejaVuSans-69" x="2253.511719"/>
     <use xlink:href="#DejaVuSans-63" x="2281.294922"/>
     <use xlink:href="#DejaVuSans-20" x="2336.275391"/>
     <use xlink:href="#DejaVuSans-4d" x="2368.0625"/>
     <use xlink:href="#DejaVuSans-69" x="2454.341797"/>
     <use xlink:href="#DejaVuSans-78" x="2482.125"/>
     <use xlink:href="#DejaVuSans-65" x="2538.179688"/>
     <use xlink:href="#DejaVuSans-72" x="2599.703125"/>
    </g>
   </g>
   <g id="legend_1">
    <g id="patch_7">
     <path d="M 411.598125 61.674375 
L 555.496562 61.674375 
Q 557.496562 61.674375 557.496562 59.674375 
L 557.496562 31.318125 
Q 557.496562 29.318125 555.496562 29.318125 
L 411.598125 29.318125 
Q 409.598125 29.318125 409.598125 31.318125 
L 409.598125 59.674375 
Q 409.598125 61.674375 411.598125 61.674375 
z
" style="fill: #4c4c4c; opacity: 0.5; stroke: #4c4c4c; stroke-linejoin: miter"/>
    </g>
    <g id="patch_8">
     <path d="M 409.598125 59.674375 
L 553.496562 59.674375 
Q 555.496562 59.674375 555.496562 57.674375 
L 555.496562 29.318125 
Q 555.496562 27.318125 553.496562 27.318125 
L 409.598125 27.318125 
Q 407.598125 27.318125 407.598125 29.318125 
L 407.598125 57.674375 
Q 407.598125 59.674375 409.598125 59.674375 
z
" style="fill: #ffffff; stroke: #cccccc; stroke-linejoin: miter"/>
    </g>
    <g id="line2d_73">
     <path d="M 411.598125 35.416562 
L 421.598125 35.416562 
L 431.598125 35.416562 
" style="fill: none; stroke: #0000ff; stroke-width: 1.5; stroke-linecap: square"/>
     <g>
      <use xlink:href="#m86e36b4bd8" x="421.598125" y="35.416562" style="fill: #0000ff; stroke: #0000ff"/>
     </g>
    </g>
    <g id="text_11">
     <!-- Mass preservation [%] -->
     <g transform="translate(439.598125 38.916562) scale(0.1 -0.1)">
      <defs>
       <path id="DejaVuSans-25" d="M 4653 2053 
Q 4381 2053 4226 1822 
Q 4072 1591 4072 1178 
Q 4072 772 4226 539 
Q 4381 306 4653 306 
Q 4919 306 5073 539 
Q 5228 772 5228 1178 
Q 5228 1588 5073 1820 
Q 4919 2053 4653 2053 
z
M 4653 2450 
Q 5147 2450 5437 2106 
Q 5728 1763 5728 1178 
Q 5728 594 5436 251 
Q 5144 -91 4653 -91 
Q 4153 -91 3862 251 
Q 3572 594 3572 1178 
Q 3572 1766 3864 2108 
Q 4156 2450 4653 2450 
z
M 1428 4353 
Q 1159 4353 1004 4120 
Q 850 3888 850 3481 
Q 850 3069 1003 2837 
Q 1156 2606 1428 2606 
Q 1700 2606 1854 2837 
Q 2009 3069 2009 3481 
Q 2009 3884 1853 4118 
Q 1697 4353 1428 4353 
z
M 4250 4750 
L 4750 4750 
L 1831 -91 
L 1331 -91 
L 4250 4750 
z
M 1428 4750 
Q 1922 4750 2215 4408 
Q 2509 4066 2509 3481 
Q 2509 2891 2217 2550 
Q 1925 2209 1428 2209 
Q 931 2209 642 2551 
Q 353 2894 353 3481 
Q 353 4063 643 4406 
Q 934 4750 1428 4750 
z
" transform="scale(0.015625)"/>
      </defs>
      <use xlink:href="#DejaVuSans-4d"/>
      <use xlink:href="#DejaVuSans-61" x="86.279297"/>
      <use xlink:href="#DejaVuSans-73" x="147.558594"/>
      <use xlink:href="#DejaVuSans-73" x="199.658203"/>
      <use xlink:href="#DejaVuSans-20" x="251.757812"/>
      <use xlink:href="#DejaVuSans-70" x="283.544922"/>
      <use xlink:href="#DejaVuSans-72" x="347.021484"/>
      <use xlink:href="#DejaVuSans-65" x="385.884766"/>
      <use xlink:href="#DejaVuSans-73" x="447.408203"/>
      <use xlink:href="#DejaVuSans-65" x="499.507812"/>
      <use xlink:href="#DejaVuSans-72" x="561.03125"/>
      <use xlink:href="#DejaVuSans-76" x="602.144531"/>
      <use xlink:href="#DejaVuSans-61" x="661.324219"/>
      <use xlink:href="#DejaVuSans-74" x="722.603516"/>
      <use xlink:href="#DejaVuSans-69" x="761.8125"/>
      <use xlink:href="#DejaVuSans-6f" x="789.595703"/>
      <use xlink:href="#DejaVuSans-6e" x="850.777344"/>
      <use xlink:href="#DejaVuSans-20" x="914.15625"/>
      <use xlink:href="#DejaVuSans-5b" x="945.943359"/>
      <use xlink:href="#DejaVuSans-25" x="984.957031"/>
      <use xlink:href="#DejaVuSans-5d" x="1079.976562"/>
     </g>
    </g>
    <g id="line2d_74">
     <path d="M 411.598125 50.094688 
L 421.598125 50.094688 
L 431.598125 50.094688 
" style="fill: none; stroke: #000000; stroke-width: 1.5; stroke-linecap: square"/>
     <g>
      <use xlink:href="#m1c2c5b1029" x="421.598125" y="50.094688" style="stroke: #000000"/>
     </g>
    </g>
    <g id="text_12">
     <!-- Pressure drop [kPa] -->
     <g transform="translate(439.598125 53.594688) scale(0.1 -0.1)">
      <defs>
       <path id="DejaVuSans-6b" d="M 581 4863 
L 1159 4863 
L 1159 1991 
L 2875 3500 
L 3609 3500 
L 1753 1863 
L 3688 0 
L 2938 0 
L 1159 1709 
L 1159 0 
L 581 0 
L 581 4863 
z
" transform="scale(0.015625)"/>
      </defs>
      <use xlink:href="#DejaVuSans-50"/>
      <use xlink:href="#DejaVuSans-72" x="58.552734"/>
      <use xlink:href="#DejaVuSans-65" x="97.416016"/>
      <use xlink:href="#DejaVuSans-73" x="158.939453"/>
      <use xlink:href="#DejaVuSans-73" x="211.039062"/>
      <use xlink:href="#DejaVuSans-75" x="263.138672"/>
      <use xlink:href="#DejaVuSans-72" x="326.517578"/>
      <use xlink:href="#DejaVuSans-65" x="365.380859"/>
      <use xlink:href="#DejaVuSans-20" x="426.904297"/>
      <use xlink:href="#DejaVuSans-64" x="458.691406"/>
      <use xlink:href="#DejaVuSans-72" x="522.167969"/>
      <use xlink:href="#DejaVuSans-6f" x="561.03125"/>
      <use xlink:href="#DejaVuSans-70" x="622.212891"/>
      <use xlink:href="#DejaVuSans-20" x="685.689453"/>
      <use xlink:href="#DejaVuSans-5b" x="717.476562"/>
      <use xlink:href="#DejaVuSans-6b" x="756.490234"/>
      <use xlink:href="#DejaVuSans-50" x="814.400391"/>
      <use xlink:href="#DejaVuSans-61" x="870.203125"/>
      <use xlink:href="#DejaVuSans-5d" x="931.482422"/>
     </g>
    </g>
   </g>
  </g>
 </g>
 <defs>
  <clipPath id="pbd5c44a8c3">
   <rect x="45.478125" y="22.318125" width="357.12" height="266.112"/>
  </clipPath>
 </defs>
</svg>
