<?xml version="1.0" encoding="UTF-8"?>
<svg id="Plan_de_travail_1" xmlns="http://www.w3.org/2000/svg" xmlns:xlink="http://www.w3.org/1999/xlink" version="1.1" viewBox="0 0 351.8 240">
  <!-- Generator: Adobe Illustrator 29.1.0, SVG Export Plug-In . SVG Version: 2.1.0 Build 142)  -->
  <defs>
    <style>
      .st0 {
        stroke: #663408;
      }

      .st0, .st1, .st2, .st3, .st4, .st5, .st6, .st7, .st8, .st9, .st10 {
        fill: none;
        stroke-miterlimit: 100;
      }

      .st0, .st1, .st2, .st4, .st5 {
        stroke-width: .2px;
      }

      .st11 {
        fill: #630;
      }

      .st11, .st12, .st13, .st14, .st15, .st16, .st17 {
        fill-rule: evenodd;
      }

      .st12 {
        fill: #663408;
      }

      .st1, .st3 {
        stroke: #7e5b31;
      }

      .st13 {
        fill: #22525b;
      }

      .st18 {
        fill: #cbe2e6;
      }

      .st14 {
        fill: #626262;
      }

      .st2 {
        stroke: #464646;
      }

      .st19 {
        isolation: isolate;
      }

      .st20 {
        fill: #e9e3cc;
      }

      .st4 {
        stroke: #5a4617;
      }

      .st15, .st21 {
        fill: #464646;
      }

      .st22 {
        fill: #fff;
      }

      .st5 {
        stroke: #22525b;
      }

      .st16 {
        fill: #5a4617;
      }

      .st6 {
        stroke: #000;
      }

      .st6, .st7, .st9 {
        stroke-width: .8px;
      }

      .st7 {
        stroke: #ac401b;
      }

      .st8 {
        stroke: #630;
      }

      .st9, .st10 {
        stroke: #626262;
      }

      .st17 {
        fill: #7e5b31;
      }

      .st10 {
        stroke-width: .5px;
      }
    </style>
  </defs>
  <g id="Calque_1_xA0_Image">
    <image id="Calque_1_xA0_Image1" class="st19" width="1460" height="1000" transform="translate(.6 0) scale(.2)" xlink:href="dam-break-initial-configuration-1.png"/>
    <rect class="st22" x=".6" y="0" width="351.2" height="240"/>
  </g>
  <g id="Formes">
    <g id="Rectangle_1">
      <rect class="st20" x="59.2" y="15.1" width="272.7" height="194.8"/>
      <rect class="st6" x="59.2" y="15.1" width="272.7" height="194.8"/>
    </g>
    <g id="Rectangle_2">
      <rect class="st18" x="59.2" y="73.6" width="68.2" height="136.4"/>
      <rect class="st7" x="59.2" y="73.6" width="68.2" height="136.4"/>
    </g>
    <g id="Rectangle_1_copie">
      <rect class="st6" x="59.2" y="15.1" width="272.7" height="194.8"/>
    </g>
  </g>
  <g id="Flèches">
    <g id="Ligne_7">
      <polygon class="st14" points="50.3 18 51.4 18 50.1 15.2 48.7 18 49.9 18 49.9 207.2 48.7 207.2 50.1 210 51.4 207.2 50.3 207.2 50.3 18"/>
      <polygon class="st10" points="50.3 18 51.4 18 50.1 15.2 48.7 18 49.9 18 49.9 207.2 48.7 207.2 50.1 210 51.4 207.2 50.3 207.2 50.3 18"/>
    </g>
    <g id="Ligne_8">
      <polygon class="st14" points="332 218 329.3 216.6 329.3 217.8 62.4 217.8 62.4 216.6 59.7 218 62.4 219.4 62.4 218.2 329.3 218.2 329.3 219.4 332 218"/>
      <polygon class="st10" points="332 218 329.3 216.6 329.3 217.8 62.4 217.8 62.4 216.6 59.7 218 62.4 219.4 62.4 218.2 329.3 218.2 329.3 219.4 332 218"/>
    </g>
    <g id="Ligne_9">
      <polygon class="st14" points="127.4 66.8 124.7 65.5 124.7 66.6 62.3 66.6 62.3 65.5 59.6 66.8 62.3 68.2 62.3 67 124.7 67 124.7 68.2 127.4 66.8"/>
      <polygon class="st9" points="127.4 66.8 124.7 65.5 124.7 66.6 62.3 66.6 62.3 65.5 59.6 66.8 62.3 68.2 62.3 67 124.7 67 124.7 68.2 127.4 66.8"/>
    </g>
    <g id="Ligne_10">
      <polygon class="st14" points="134.4 76.3 135.6 76.3 134.2 73.6 132.9 76.3 134 76.3 134 206.1 132.9 206.1 134.2 208.8 135.6 206.1 134.4 206.1 134.4 76.3"/>
      <polygon class="st9" points="134.4 76.3 135.6 76.3 134.2 73.6 132.9 76.3 134 76.3 134 206.1 132.9 206.1 134.2 208.8 135.6 206.1 134.4 206.1 134.4 76.3"/>
    </g>
    <g id="Ligne_11">
      <polygon class="st11" points="253.7 49.5 253.7 22.6 253.3 22.6 253.3 49.5 252.1 49.5 253.5 52.2 254.9 49.5 253.7 49.5"/>
      <polygon class="st8" points="253.7 49.5 253.7 22.6 253.3 22.6 253.3 49.5 252.1 49.5 253.5 52.2 254.9 49.5 253.7 49.5"/>
    </g>
  </g>
  <g id="Text">
    <g id="Fluid_0">
      <path class="st16" d="M275.7,186.7v.4h.3c1,0,1,.1,1,.6v6.8c0,.5,0,.6-1,.6h-.3v.4h4.2v-.4h-.4c-1.2,0-1.2-.2-1.2-.6v-3.2h1.1c1.2,0,1.4.4,1.4,1.5h.3v-3.4h-.3c0,1.1-.1,1.5-1.4,1.5h-1.1v-3.3c0-.4,0-.5.6-.5h1.6c1.9,0,2.3.7,2.5,2.5h.3l-.4-2.9h-7.2ZM286,194.6v-8h-1.9v.5c.9,0,1,.1,1,.7v6.8c0,.6-.1.6-1,.6v.4h2.8v-.4c-.7,0-.9,0-.9-.6ZM293.3,194.4v-4.6h-1.9v.5c.9,0,1,.1,1,.7v2.3c0,1.1-.6,2-1.6,2s-1.1-.6-1.1-1.3v-4.3h-1.9v.5c.7,0,1,.4,1,1.2v1.9c0,1,0,2.2,2,2.2s1.3-.4,1.7-1.2v1.2h1.9v-.5c-1,.2-1.1.1-1.1-.6h0ZM296.9,194.6v-4.8h-1.8v.5c.8,0,1,.1,1,.7v3.5c0,.6-.1.6-1,.6v.4h2.8v-.4q-1,0-1-.5ZM296.4,188.4c.4,0,.7-.4.7-.7s-.3-.7-.7-.7-.7.4-.7.7.3.7.7.7ZM304,194.4v-7.9h-1.9v.5c.9,0,1,.1,1,.7v2.8c-.4-.5-.9-.8-1.6-.8-1.5,0-2.9,1.3-2.9,2.9s1.3,2.9,2.8,2.9,1.4-.4,1.7-.9v.9h1.9v-.5c-.9.2-1,.1-1-.6h0ZM303.1,194c0,.2,0,.3-.1.5-.4.6-1,.9-1.5.9s-1.1-.3-1.4-.8-.4-1.3-.4-1.8,0-1.3.4-1.8c.3-.4.8-.8,1.5-.8s1,.2,1.4.8c0,.1.1.3.1.5v2.5h0ZM315.2,188.4c-.6-1.2-1.7-1.5-2.2-1.5-.8,0-1.7.3-2.3,1.5-.4.9-.5,1.9-.5,2.9s.1,2.1.6,3.1c.6,1.1,1.5,1.3,2.1,1.3s1.7-.3,2.3-1.5c.4-.9.5-1.9.5-2.9s-.1-2-.5-2.9h0ZM314.5,193.9c-.2,1.2-.9,1.6-1.5,1.6s-1.3-.3-1.5-1.6c-.1-.8-.1-2-.1-2.7s0-1.7.1-2.4c.2-1.5,1.2-1.7,1.5-1.7s1.3.2,1.5,1.5c.1.7.1,1.7.1,2.5s0,2-.1,2.8h0Z"/>
      <path class="st4" d="M275.7,186.7v.4h.3c1,0,1,.1,1,.6v6.8c0,.5,0,.6-1,.6h-.3v.4h4.2v-.4h-.4c-1.2,0-1.2-.2-1.2-.6v-3.2h1.1c1.2,0,1.4.4,1.4,1.5h.3v-3.4h-.3c0,1.1-.1,1.5-1.4,1.5h-1.1v-3.3c0-.4,0-.5.6-.5h1.6c1.9,0,2.3.7,2.5,2.5h.3l-.4-2.9h-7.2ZM286,194.6v-8h-1.9v.5c.9,0,1,.1,1,.7v6.8c0,.6-.1.6-1,.6v.4h2.8v-.4c-.7,0-.9,0-.9-.6ZM293.3,194.4v-4.6h-1.9v.5c.9,0,1,.1,1,.7v2.3c0,1.1-.6,2-1.6,2s-1.1-.6-1.1-1.3v-4.3h-1.9v.5c.7,0,1,.4,1,1.2v1.9c0,1,0,2.2,2,2.2s1.3-.4,1.7-1.2v1.2h1.9v-.5c-1,.2-1.1.1-1.1-.6h0ZM296.9,194.6v-4.8h-1.8v.5c.8,0,1,.1,1,.7v3.5c0,.6-.1.6-1,.6v.4h2.8v-.4q-1,0-1-.5ZM296.4,188.4c.4,0,.7-.4.7-.7s-.3-.7-.7-.7-.7.4-.7.7.3.7.7.7ZM304,194.4v-7.9h-1.9v.5c.9,0,1,.1,1,.7v2.8c-.4-.5-.9-.8-1.6-.8-1.5,0-2.9,1.3-2.9,2.9s1.3,2.9,2.8,2.9,1.4-.4,1.7-.9v.9h1.9v-.5c-.9.2-1,.1-1-.6h0ZM303.1,194c0,.2,0,.3-.1.5-.4.6-1,.9-1.5.9s-1.1-.3-1.4-.8-.4-1.3-.4-1.8,0-1.3.4-1.8c.3-.4.8-.8,1.5-.8s1,.2,1.4.8c0,.1.1.3.1.5v2.5h0ZM315.2,188.4c-.6-1.2-1.7-1.5-2.2-1.5-.8,0-1.7.3-2.3,1.5-.4.9-.5,1.9-.5,2.9s.1,2.1.6,3.1c.6,1.1,1.5,1.3,2.1,1.3s1.7-.3,2.3-1.5c.4-.9.5-1.9.5-2.9s-.1-2-.5-2.9h0ZM314.5,193.9c-.2,1.2-.9,1.6-1.5,1.6s-1.3-.3-1.5-1.6c-.1-.8-.1-2-.1-2.7s0-1.7.1-2.4c.2-1.5,1.2-1.7,1.5-1.7s1.3.2,1.5,1.5c.1.7.1,1.7.1,2.5s0,2-.1,2.8h0Z"/>
    </g>
    <g id="Fluid_1">
      <path class="st13" d="M75.3,138.5v.4h.3c1,0,1,.1,1,.6v6.8c0,.5,0,.6-1,.6h-.3v.4h4.2v-.3h-.5c-1.2,0-1.2-.2-1.2-.6v-3.2h1.1c1.2,0,1.4.4,1.4,1.5h.3v-3.4h-.3c0,1.1,0,1.5-1.4,1.5h-1.1v-3.3c0-.4,0-.5.6-.5h1.6c1.9,0,2.3.7,2.5,2.5h.3l-.4-2.9h-7.1ZM85.6,146.4v-8h-1.9v.5c.9,0,1,.1,1,.7v6.8q0,.6-1,.6v.4h2.8v-.4c-.7,0-.9,0-.9-.6ZM92.9,146.2v-4.6h-1.9v.5c.9,0,1,.1,1,.7v2.3c0,1.1-.6,2-1.6,2s-1.1-.6-1.1-1.3v-4.3h-1.9v.5c.7,0,1,.4,1,1.2v1.9c0,1,0,2.2,2,2.2s1.3-.4,1.7-1.2v1.2h1.9v-.3c-1,0-1.1-.1-1.1-.8h0ZM96.5,146.4v-4.8h-1.8v.5c.8,0,1,.1,1,.7v3.5q0,.6-1,.6v.4h2.8v-.3c-1,0-1-.1-1-.6h0ZM96,140.2c.4,0,.7-.4.7-.7s-.3-.7-.7-.7-.7.4-.7.7.3.7.7.7ZM103.6,146.2v-7.9h-1.9v.5c.9,0,1,.1,1,.7v2.8c-.4-.5-.9-.8-1.6-.8-1.5,0-2.9,1.3-2.9,2.9s1.3,2.9,2.8,2.9,1.4-.4,1.7-.9v.9h1.9v-.3c-.9,0-1-.1-1-.8h0ZM102.7,145.8v.5c-.4.6-1,.9-1.5.9s-1.1-.3-1.4-.8-.4-1.3-.4-1.8,0-1.3.4-1.8c.3-.4.8-.8,1.5-.8s1,.2,1.4.8c0,.1,0,.3,0,.5v2.5h0ZM114.3,147c-1.2,0-1.2-.1-1.2-.6v-7.3c0-.2-.1-.3-.3-.3-.8.8-1.9.8-2.4.8v.4c.3,0,1,0,1.7-.3v6.7c0,.5,0,.6-1.2.6h-.4v.4h4.2v-.4h-.4,0Z"/>
      <path class="st5" d="M75.3,138.5v.4h.3c1,0,1,.1,1,.6v6.8c0,.5,0,.6-1,.6h-.3v.4h4.2v-.3h-.5c-1.2,0-1.2-.2-1.2-.6v-3.2h1.1c1.2,0,1.4.4,1.4,1.5h.3v-3.4h-.3c0,1.1,0,1.5-1.4,1.5h-1.1v-3.3c0-.4,0-.5.6-.5h1.6c1.9,0,2.3.7,2.5,2.5h.3l-.4-2.9h-7.1ZM85.6,146.4v-8h-1.9v.5c.9,0,1,.1,1,.7v6.8q0,.6-1,.6v.4h2.8v-.4c-.7,0-.9,0-.9-.6ZM92.9,146.2v-4.6h-1.9v.5c.9,0,1,.1,1,.7v2.3c0,1.1-.6,2-1.6,2s-1.1-.6-1.1-1.3v-4.3h-1.9v.5c.7,0,1,.4,1,1.2v1.9c0,1,0,2.2,2,2.2s1.3-.4,1.7-1.2v1.2h1.9v-.3c-1,0-1.1-.1-1.1-.8h0ZM96.5,146.4v-4.8h-1.8v.5c.8,0,1,.1,1,.7v3.5q0,.6-1,.6v.4h2.8v-.3c-1,0-1-.1-1-.6h0ZM96,140.2c.4,0,.7-.4.7-.7s-.3-.7-.7-.7-.7.4-.7.7.3.7.7.7ZM103.6,146.2v-7.9h-1.9v.5c.9,0,1,.1,1,.7v2.8c-.4-.5-.9-.8-1.6-.8-1.5,0-2.9,1.3-2.9,2.9s1.3,2.9,2.8,2.9,1.4-.4,1.7-.9v.9h1.9v-.3c-.9,0-1-.1-1-.8h0ZM102.7,145.8v.5c-.4.6-1,.9-1.5.9s-1.1-.3-1.4-.8-.4-1.3-.4-1.8,0-1.3.4-1.8c.3-.4.8-.8,1.5-.8s1,.2,1.4.8c0,.1,0,.3,0,.5v2.5h0ZM114.3,147c-1.2,0-1.2-.1-1.2-.6v-7.3c0-.2-.1-.3-.3-.3-.8.8-1.9.8-2.4.8v.4c.3,0,1,0,1.7-.3v6.7c0,.5,0,.6-1.2.6h-.4v.4h4.2v-.4h-.4,0Z"/>
    </g>
    <g id="L__x3D__14">
      <path class="st15" d="M182,231.8h-1c-.6,0-.6-.1-.5-.5l1.2-6.9c.1-.4.1-.6,1.3-.6h.4v-.4h-4.1v.4c-.1,0,.2,0,.2,0,1,0,1,.1.9.6l-1.1,6.8c-.1.5-.1.6-1.1.6h-.3v.4c-.1,0,6.7,0,6.7,0l.9-3.4h-.3c-.4,1.3-.9,3-3.2,3h0ZM196.7,229.9h-8.1c-.1,0-.3.1-.3.3s.1.3.3.3h8.1c.1,0,.3-.1.3-.3s-.1-.3-.3-.3ZM196.7,227.4h-8.1c-.1,0-.3.1-.3.3s.1.3.3.3h8.1c.1,0,.3-.1.3-.3s-.1-.3-.3-.3ZM203.7,231.1v-7.3c0-.2-.1-.3-.3-.3-.8.8-1.9.8-2.4.8v.4c.3,0,1,0,1.7-.3v6.7c0,.5,0,.6-1.2.6h-.4v.4h4.2v-.4h-.4c-1.2.1-1.2,0-1.2-.6h0ZM212.5,230v-.4h-1.3v-5.9c0-.2,0-.3-.2-.3s-.2,0-.3.2l-4,6.1v.4h3.5v1.1c0,.5,0,.6-1,.6h-.3v.4h3.6v-.4h-.3c-1,0-1-.1-1-.6v-1.2h1.3ZM210.3,229.6h-3.2l3.2-4.8v4.8Z"/>
      <path class="st2" d="M182,231.8h-1c-.6,0-.6-.1-.5-.5l1.2-6.9c.1-.4.1-.6,1.3-.6h.4v-.4h-4.1v.4c-.1,0,.2,0,.2,0,1,0,1,.1.9.6l-1.1,6.8c-.1.5-.1.6-1.1.6h-.3v.4c-.1,0,6.7,0,6.7,0l.9-3.4h-.3c-.4,1.3-.9,3-3.2,3h0ZM196.7,229.9h-8.1c-.1,0-.3.1-.3.3s.1.3.3.3h8.1c.1,0,.3-.1.3-.3s-.1-.3-.3-.3ZM196.7,227.4h-8.1c-.1,0-.3.1-.3.3s.1.3.3.3h8.1c.1,0,.3-.1.3-.3s-.1-.3-.3-.3ZM203.7,231.1v-7.3c0-.2-.1-.3-.3-.3-.8.8-1.9.8-2.4.8v.4c.3,0,1,0,1.7-.3v6.7c0,.5,0,.6-1.2.6h-.4v.4h4.2v-.4h-.4c-1.2.1-1.2,0-1.2-.6h0ZM212.5,230v-.4h-1.3v-5.9c0-.2,0-.3-.2-.3s-.2,0-.3.2l-4,6.1v.4h3.5v1.1c0,.5,0,.6-1,.6h-.3v.4h3.6v-.4h-.3c-1,0-1-.1-1-.6v-1.2h1.3ZM210.3,229.6h-3.2l3.2-4.8v4.8Z"/>
    </g>
    <g id="Linitial__x3D__7">
      <path class="st15" d="M143.8,148.7h-1.1c-.6,0-.6-.1-.5-.5l1.2-6.9c.1-.4.1-.6,1.3-.6h.4v-.4h-4.1v.4c-.1,0,.2,0,.2,0,1,0,1,.1.9.6l-1.1,6.8c-.1.5-.1.6-1.1.6h-.3v.4c-.1,0,6.7,0,6.7,0l.9-3.4h-.3c-.3,1.3-.8,3-3.1,3h0ZM148.3,149.2c.3,0,.4-.2.4-.4s-.2-.4-.4-.4c-.3,0-.4.2-.4.4s.2.4.4.4ZM148.6,152.8v-2.8h-1.1v.3c.5,0,.6,0,.6.4v2c0,.3-.1.3-.6.3v.2h1.6v-.2c-.5.2-.5.1-.5-.2ZM152.8,152.9v-1.4c0-.7,0-.9-.2-1.2-.1-.1-.4-.3-.8-.3-.6,0-.9.3-1.1.8v-.8h-1.1v.3c.5,0,.6.1.6.4v2c0,.3-.1.3-.6.3v.2h1.7v-.2c-.5,0-.6,0-.6-.3v-1.4c0-.8.5-1.2,1-1.2s.6.4.6.8v1.8c0,.3-.1.3-.6.3v.2h1.7v-.2c-.4.2-.6.2-.6-.1h0ZM154.6,149.2c.3,0,.4-.2.4-.4s-.2-.4-.4-.4c-.3,0-.4.2-.4.4s.2.4.4.4ZM154.9,152.8v-2.8h-1.1v.3c.5,0,.6,0,.6.4v2c0,.3-.1.3-.6.3v.2h1.6v-.2c-.4.2-.5.1-.5-.2ZM158,152.4c0,.6-.2.8-.5.8-.5,0-.5-.7-.5-.8v-2.1h1.1v-.2h-1.1v-1.4h-.2c0,.6-.2,1.4-1,1.5v.2h.6v2.1c0,.9.7,1,1,1,.5,0,.7-.5.7-1v-.5h-.1v.4ZM159.7,149.2c.3,0,.4-.2.4-.4s-.2-.4-.4-.4c-.3,0-.4.2-.4.4s0,.4.4.4ZM160,152.8v-2.8h-1.1v.3c.5,0,.6,0,.6.4v2c0,.3-.1.3-.6.3v.2h1.6v-.2c-.5.2-.5.1-.5-.2ZM164.2,152.7c0,.4-.2.5-.3.5-.2,0-.3-.3-.3-.4v-1.5c0-.3,0-.6-.3-.9-.3-.3-.7-.4-1-.4-.6,0-1.1.4-1.1.9s.2.4.3.4c.2,0,.3-.2.3-.3s0-.3-.4-.3c.2-.3.6-.3.8-.3.4,0,.8.3.8,1v.3c-.4,0-.9,0-1.4.3-.6.3-.5.3-.5.6-.1.6.4.7.9.7s1-.1,1.2-.5c0,.3,0,.5.4.5s.5,0,.6-.4v-.2h-.2c0-.1,0,0,0,0h.2ZM163.1,152.3c0,.7-.5.7-.9.7s-.7,0-.7-.3.3-1,1.6-1.1v.7h0ZM165.9,152.8v-4.7h-1.1v.3c.5,0,.6.1.6.4v3.9c0,.3-.1.3-.6.3v.2h1.6v-.2c-.3.1-.5,0-.5-.2ZM177.9,144.3h-8.1c-.1,0-.3.1-.3.3s.1.3.3.3h8.1c.1,0,.3-.1.3-.3s-.2-.3-.3-.3ZM177.9,146.8h-8.1c-.1,0-.3.1-.3.3s.1.3.3.3h8.1c.1,0,.3-.1.3-.3s-.2-.3-.3-.3ZM184.2,140.7c-1.6,0-1.6-.2-1.7-.4h-.3l-.4,2.7h.3c0-.2.2-1,.3-1.2.1-.1,1.1-.1,1.3-.1h2.7l-1.5,2.1c-1.2,1.8-1.6,3.6-1.6,4.9s0,.7.6.7.6-.6.6-.7v-.7c0-.7,0-1.4.1-2.1.1-.3.2-1.4.8-2.2l1.8-2.5c0-.1.1-.3.1-.5h-3.1Z"/>
      <path class="st2" d="M143.8,148.7h-1.1c-.6,0-.6-.1-.5-.5l1.2-6.9c.1-.4.1-.6,1.3-.6h.4v-.4h-4.1v.4c-.1,0,.2,0,.2,0,1,0,1,.1.9.6l-1.1,6.8c-.1.5-.1.6-1.1.6h-.3v.4c-.1,0,6.7,0,6.7,0l.9-3.4h-.3c-.3,1.3-.8,3-3.1,3h0ZM148.3,149.2c.3,0,.4-.2.4-.4s-.2-.4-.4-.4c-.3,0-.4.2-.4.4s.2.4.4.4ZM148.6,152.8v-2.8h-1.1v.3c.5,0,.6,0,.6.4v2c0,.3-.1.3-.6.3v.2h1.6v-.2c-.5.2-.5.1-.5-.2ZM152.8,152.9v-1.4c0-.7,0-.9-.2-1.2-.1-.1-.4-.3-.8-.3-.6,0-.9.3-1.1.8v-.8h-1.1v.3c.5,0,.6.1.6.4v2c0,.3-.1.3-.6.3v.2h1.7v-.2c-.5,0-.6,0-.6-.3v-1.4c0-.8.5-1.2,1-1.2s.6.4.6.8v1.8c0,.3-.1.3-.6.3v.2h1.7v-.2c-.4.2-.6.2-.6-.1h0ZM154.6,149.2c.3,0,.4-.2.4-.4s-.2-.4-.4-.4c-.3,0-.4.2-.4.4s.2.4.4.4ZM154.9,152.8v-2.8h-1.1v.3c.5,0,.6,0,.6.4v2c0,.3-.1.3-.6.3v.2h1.6v-.2c-.4.2-.5.1-.5-.2ZM158,152.4c0,.6-.2.8-.5.8-.5,0-.5-.7-.5-.8v-2.1h1.1v-.2h-1.1v-1.4h-.2c0,.6-.2,1.4-1,1.5v.2h.6v2.1c0,.9.7,1,1,1,.5,0,.7-.5.7-1v-.5h-.1v.4ZM159.7,149.2c.3,0,.4-.2.4-.4s-.2-.4-.4-.4c-.3,0-.4.2-.4.4s0,.4.4.4ZM160,152.8v-2.8h-1.1v.3c.5,0,.6,0,.6.4v2c0,.3-.1.3-.6.3v.2h1.6v-.2c-.5.2-.5.1-.5-.2ZM164.2,152.7c0,.4-.2.5-.3.5-.2,0-.3-.3-.3-.4v-1.5c0-.3,0-.6-.3-.9-.3-.3-.7-.4-1-.4-.6,0-1.1.4-1.1.9s.2.4.3.4c.2,0,.3-.2.3-.3s0-.3-.4-.3c.2-.3.6-.3.8-.3.4,0,.8.3.8,1v.3c-.4,0-.9,0-1.4.3-.6.3-.6.4-.6.7,0,.6.5.6,1,.6s.9,0,1.1-.4c0,.3.1.4.4.4s.5,0,.6-.4v-.2h-.1.2ZM163.1,152.3c0,.7-.5.6-.9.7-.4,0-.5,0-.7-.3-.2-.4.3-.9,1.6-1v.6h0ZM165.9,152.8v-4.7h-1.1v.3c.5,0,.6.1.6.4v3.9c0,.3-.1.3-.6.3v.2h1.6v-.2c-.3.1-.5,0-.5-.2ZM177.9,144.3h-8.1c-.1,0-.3.1-.3.3s.1.3.3.3h8.1c.1,0,.3-.1.3-.3s-.2-.3-.3-.3ZM177.9,146.8h-8.1c-.1,0-.3.1-.3.3s.1.3.3.3h8.1c.1,0,.3-.1.3-.3s-.2-.3-.3-.3ZM184.2,140.7c-1.6,0-1.6-.2-1.7-.4h-.3l-.4,2.7h.3c0-.2.2-1,.3-1.2.1-.1,1.1-.1,1.3-.1h2.7l-1.5,2.1c-1.2,1.8-1.6,3.6-1.6,4.9s0,.7.6.7.6-.6.6-.7v-.7c0-.7,0-1.4.1-2.1.1-.3.2-1.4.8-2.2l1.8-2.5c0-.1.1-.3.1-.5h-3.1Z"/>
    </g>
    <g id="H__x3D__10">
      <path class="st15" d="M14.5,112.5v.4c-.1,0,.2,0,.2,0q1,0,.9.6l-.5,3h-3.9l.5-3c.1-.5.1-.6,1.1-.6h.3v-.4h-3.7v.4c-.1,0,.2,0,.2,0q1,0,.9.6l-1.1,6.8c-.1.5-.1.6-1.1.6h-.3v.5h3.8v-.4c.1,0-.2,0-.2,0q-1,0-.9-.6l.6-3.4h3.9l-.6,3.4c-.1.5-.1.6-1.1.6h-.3v.4h3.7v-.4c.1,0-.2,0-.2,0q-1,0-.9-.6l1.1-6.8c0-.5,0-.6,1.1-.6h.3v-.4h-3.8,0ZM28.5,119.2h-8.1c-.1,0-.3,0-.3.3s.1.3.3.3h8.1c.1,0,.3,0,.3-.3s0-.3-.3-.3ZM28.5,116.6h-8.1c-.1,0-.3,0-.3.3s.1.3.3.3h8.1c.1,0,.3,0,.3-.3s0-.3-.3-.3ZM35.5,120.4v-7.3c0-.2-.1-.3-.3-.3-.8.8-1.9.8-2.4.8v.4c.3,0,1,0,1.7-.3v6.7c0,.5,0,.6-1.2.6h-.4v.4h4.2v-.4h-.4q-1.2,0-1.2-.6ZM43.6,114.2c-.6-1.2-1.7-1.5-2.2-1.5-.8,0-1.7.3-2.3,1.5-.4.9-.5,1.9-.5,2.9s0,2.1.6,3.1c.6,1.1,1.5,1.3,2.1,1.3s1.7-.3,2.3-1.5c.4-.9.5-1.9.5-2.9s0-1.9-.5-2.9ZM42.9,119.8c-.2,1.2-.9,1.6-1.5,1.6s-1.3-.3-1.5-1.6v-5.1c.2-1.5,1.2-1.7,1.5-1.7s1.3.2,1.5,1.5v5.3Z"/>
      <path class="st2" d="M14.5,112.5v.4c-.1,0,.2,0,.2,0q1,0,.9.6l-.5,3h-3.9l.5-3c.1-.5.1-.6,1.1-.6h.3v-.4h-3.7v.4c-.1,0,.2,0,.2,0q1,0,.9.6l-1.1,6.8c-.1.5-.1.6-1.1.6h-.3v.5h3.8v-.4c.1,0-.2,0-.2,0q-1,0-.9-.6l.6-3.4h3.9l-.6,3.4c-.1.5-.1.6-1.1.6h-.3v.4h3.7v-.4c.1,0-.2,0-.2,0q-1,0-.9-.6l1.1-6.8c0-.5,0-.6,1.1-.6h.3v-.4h-3.8,0ZM28.5,119.2h-8.1c-.1,0-.3,0-.3.3s.1.3.3.3h8.1c.1,0,.3,0,.3-.3s0-.3-.3-.3ZM28.5,116.6h-8.1c-.1,0-.3,0-.3.3s.1.3.3.3h8.1c.1,0,.3,0,.3-.3s0-.3-.3-.3ZM35.5,120.4v-7.3c0-.2-.1-.3-.3-.3-.8.8-1.9.8-2.4.8v.4c.3,0,1,0,1.7-.3v6.7c0,.5,0,.6-1.2.6h-.4v.4h4.2v-.4h-.4q-1.2,0-1.2-.6ZM43.6,114.2c-.6-1.2-1.7-1.5-2.2-1.5-.8,0-1.7.3-2.3,1.5-.4.9-.5,1.9-.5,2.9s0,2.1.6,3.1c.6,1.1,1.5,1.3,2.1,1.3s1.7-.3,2.3-1.5c.4-.9.5-1.9.5-2.9s0-1.9-.5-2.9ZM42.9,119.8c-.2,1.2-.9,1.6-1.5,1.6s-1.3-.3-1.5-1.6v-5.1c.2-1.5,1.2-1.7,1.5-1.7s1.3.2,1.5,1.5v5.3Z"/>
    </g>
    <g id="Hinitial__x3D__3.5">
      <path class="st15" d="M74.4,51.4c0-.5,0-.6,1.1-.6h.3v-.4h-3.7v.4h.3q1,0,.9.6l-.5,3h-3.9l.5-3c0-.5,0-.6,1.1-.6h.3v-.4h-3.7v.4h.2q1,0,.9.6l-1.1,6.8c0,.5,0,.6-1.1.6h-.3v.4h3.7v-.4h-.2q-1,0-.9-.6l.6-3.4h3.9l-.7,3.4c0,.5,0,.6-1.1.6h-.3v.4h3.7v-.4h-.2q-1,0-.9-.6s1.1-6.8,1.1-6.8ZM75.6,59c0,.2.2.4.4.4.3,0,.4-.2.4-.4s-.2-.4-.4-.4c-.3,0-.4.2-.4.4ZM76.2,63v-2.8h-1.1v.3c.5,0,.6,0,.6.4v2q0,.3-.6.3v.2h1.6v-.2c-.4,0-.5,0-.5-.2ZM80.5,63.1v-1.4c0-.7,0-.9-.2-1.2,0,0-.4-.3-.8-.3-.6,0-.9.3-1.1.8v-.8h-1.1v.3c.5,0,.6,0,.6.4v2q0,.3-.6.3v.2h1.7v-.2c-.5,0-.6,0-.6-.3v-1.4c0-.8.5-1.2,1-1.2s.6.4.6.8v1.9q0,.3-.6.3v.2h1.7v-.2c-.4,0-.6,0-.6-.2ZM82.6,63v-2.8h-1.1v.3c.5,0,.6,0,.6.4v2q0,.3-.6.3v.2h1.6v-.2c-.3,0-.5,0-.5-.2ZM82.3,59.4c.3,0,.4-.2.4-.4s-.2-.4-.4-.4c-.3,0-.4.2-.4.4s0,.4.4.4ZM85.7,62.6c0,.6-.2.8-.5.8-.5,0-.5-.7-.5-.8v-2.1h1.1v-.2h-1.1v-1.4h-.2c0,.6-.2,1.4-1,1.5v.2h.6v2.1c0,.9.7,1,1,1,.5,0,.7-.5.6-1.1v-.3h0v.3h0ZM87.3,59.4c.3,0,.4-.2.4-.4s-.2-.4-.4-.4c-.3,0-.4.2-.4.4s.2.4.4.4ZM87.6,63v-2.8h-1.1v.3c.5,0,.6,0,.6.4v2q0,.3-.6.3v.2h1.6v-.2c-.3,0-.5,0-.5-.2ZM91.8,62.9c0,.4-.2.3-.3.3-.2,0-.3,0-.3-.2v-1.5c0-.3,0-.6-.3-.9-.3-.3-.7-.4-1-.4-.6,0-1.1.4-1.1.9s.2.4.3.4c.2,0,.3-.2.3-.3s0-.3-.4-.3c.2-.3.6-.3.8-.3.4,0,.8.3.8,1v.3c-.4,0-.9,0-1.4.3-.6.3-.6.7-.5,1,.2.6.6.4,1,.5.5,0,.6,0,.9-.3,0,.3.2.3.6.3s.3,0,.6-.4v-.4h-.2.2ZM90.8,62.5c0,.7-.6.8-1,.8s-.6,0-.6-.4.3-1,1.6-1.1v.7ZM93.5,63v-4.7h-1.1v.3c.5,0,.6,0,.6.4v4q0,.3-.6.3v.2h1.6v-.2c-.4,0-.5,0-.5-.3ZM105.5,54.5h-8.1s-.3,0-.3.3,0,.3.3.3h8.1s.3,0,.3-.3,0-.3-.3-.3ZM105.5,57h-8.1s-.3,0-.3.3,0,.3.3.3h8.1s.3,0,.3-.3,0-.3-.3-.3ZM112.5,54.7c1.1-.4,1.8-1.3,1.8-2.3s-1.1-1.8-2.4-1.8-2.3.8-2.3,1.8.3.7.7.7.7-.3.7-.7c0-.6-.6-.6-.8-.6.4-.6,1.3-.8,1.7-.8s1.2.3,1.2,1.5,0,.9-.4,1.5-.8.7-1.2.7h-.5s-.2,0-.2.2,0,0,.3,0h.6c1.1,0,1.5.9,1.5,2.2s-.9,2.1-1.5,2.1-1.5-.2-2-1c.5,0,.9-.2.9-.7s-.4-.7-.7-.7-.7.2-.7.8c0,1.2,1.2,2,2.6,2s2.8-1.2,2.8-2.5-.8-2.3-2.1-2.5h0ZM117,57.9c-.4,0-.7.3-.7.7s.3.7.7.7.7-.3.7-.7-.3-.7-.7-.7ZM122.2,53.8c-.6,0-1.2.2-1.6.7v-2.5c.3,0,.7.2,1.1.2,1.6,0,2.5-1.2,2.5-1.4s0,0,0,0h0c-.3,0-.9.4-1.8.4s-1.1,0-1.7-.4h-.2v4.1c0,.2,0,.3.2.3h.2c0-.2.6-.9,1.7-.9s1,.6,1.1.8c.2.5.2,1,.2,1.6s0,1.2-.3,1.8c-.3.5-.8.8-1.4.8-.9,0-1.7-.7-1.9-1.5h.2c.4,0,.6-.3.6-.6s-.2-.6-.6-.6-.6,0-.6.7c0,1.1.9,2.4,2.4,2.4s2.8-1.2,2.8-2.9c-.2-1.5-1.2-2.8-2.6-2.8l-.3-.2Z"/>
      <path class="st2" d="M74.3,51.4c0-.5,0-.6,1.1-.6h.3v-.4h-3.7v.4h.3q1,0,.9.6l-.5,3h-3.9l.5-3c0-.5,0-.6,1.1-.6h.3v-.4h-3.7v.4h.2q1,0,.9.6l-1.1,6.8c0,.5,0,.6-1.1.6h-.3v.4h3.7v-.4h-.2q-1,0-.9-.6l.6-3.4h3.9l-.7,3.4c0,.5,0,.6-1.1.6h-.3v.4h3.7v-.4h-.2q-1,0-.9-.6s1.1-6.8,1.1-6.8ZM75.5,59c0,.2.2.4.4.4.3,0,.4-.2.4-.4s-.2-.4-.4-.4c-.3,0-.4.2-.4.4ZM76.1,63v-2.8h-1.1v.3c.5,0,.6,0,.6.4v2q0,.3-.6.3v.2h1.6v-.2c-.4,0-.5,0-.5-.2ZM80.4,63.1v-1.4c0-.7,0-.9-.2-1.2,0,0-.4-.3-.8-.3-.6,0-.9.3-1.1.8v-.8h-1.1v.3c.5,0,.6,0,.6.4v2q0,.3-.6.3v.2h1.7v-.2c-.5,0-.6,0-.6-.3v-1.4c0-.8.5-1.2,1-1.2s.6.4.6.8v1.9q0,.3-.6.3v.2h1.7v-.2c-.4,0-.6,0-.6-.2ZM82.5,63v-2.8h-1.1v.3c.5,0,.6,0,.6.4v2q0,.3-.6.3v.2h1.6v-.2c-.3,0-.5,0-.5-.2ZM82.2,59.4c.3,0,.4-.2.4-.4s-.2-.4-.4-.4c-.3,0-.4.2-.4.4s0,.4.4.4ZM85.6,62.6c0,.6-.2.8-.5.8-.5,0-.5-.7-.5-.8v-2.1h1.1v-.2h-1.1v-1.4h-.2c0,.6-.2,1.4-1,1.5v.2h.6v2.1c0,.9.7,1,1,1,.5,0,.7-.5.6-1.1v-.3h0v.3h0ZM87.2,59.4c.3,0,.4-.2.4-.4s-.2-.4-.4-.4c-.3,0-.4.2-.4.4s.2.4.4.4ZM87.5,63v-2.8h-1.1v.3c.5,0,.6,0,.6.4v2q0,.3-.6.3v.2h1.6v-.2c-.3,0-.5,0-.5-.2ZM91.7,62.9c0,.4-.2.3-.3.3-.2,0-.3,0-.3-.2v-1.5c0-.3,0-.6-.3-.9-.3-.3-.7-.4-1-.4-.6,0-1.1.4-1.1.9s.2.4.3.4c.2,0,.3-.2.3-.3s0-.3-.4-.3c.2-.3.6-.3.8-.3.4,0,.8.3.8,1v.2c-.4,0-.9,0-1.4.4-.6.3-.6.8-.5.9.2.5.5.5.9.5s.6,0,1-.3c0,.3.2.3.6.3s.3,0,.6-.4v-.4h-.2.2ZM90.7,62.5c0,.7-.5.8-.9.7-.3,0-.5,0-.6-.3-.2-.4.2-1,1.5-1.1,0,0,0,.7,0,.7ZM93.4,63v-4.7h-1.1v.3c.5,0,.6,0,.6.4v4q0,.3-.6.3v.2h1.6v-.2c-.4,0-.5,0-.5-.3ZM105.4,54.5h-8.1s-.3,0-.3.3,0,.3.3.3h8.1s.3,0,.3-.3,0-.3-.3-.3ZM105.4,57h-8.1s-.3,0-.3.3,0,.3.3.3h8.1s.3,0,.3-.3,0-.3-.3-.3ZM112.4,54.7c1.1-.4,1.8-1.3,1.8-2.3s-1.1-1.8-2.4-1.8-2.3.8-2.3,1.8.3.7.7.7.7-.3.7-.7c0-.6-.6-.6-.8-.6.4-.6,1.3-.8,1.7-.8s1.2.3,1.2,1.5,0,.9-.4,1.5-.8.7-1.2.7h-.5s-.2,0-.2.2,0,0,.3,0h.6c1.1,0,1.5.9,1.5,2.2s-.9,2.1-1.5,2.1-1.5-.2-2-1c.5,0,.9-.2.9-.7s-.4-.7-.7-.7-.7.2-.7.8c0,1.2,1.2,2,2.6,2s2.8-1.2,2.8-2.5-.8-2.3-2.1-2.5h0ZM116.9,57.9c-.4,0-.7.3-.7.7s.3.7.7.7.7-.3.7-.7-.3-.7-.7-.7ZM122.1,53.8c-.6,0-1.2.2-1.6.7v-2.5c.3,0,.7.2,1.1.2,1.6,0,2.5-1.2,2.5-1.4s0,0,0,0h0c-.3,0-.9.4-1.8.4s-1.1,0-1.7-.4h-.2v4.1c0,.2,0,.3.2.3h.2c0-.2.6-.9,1.7-.9s1,.6,1.1.8c.2.5.2,1,.2,1.6s0,1.2-.3,1.8c-.3.5-.8.8-1.4.8-.9,0-1.7-.7-1.9-1.5h.2c.4,0,.6-.3.6-.6s-.2-.6-.6-.6-.6,0-.6.7c0,1.1.9,2.4,2.4,2.4s2.8-1.2,2.8-2.9c-.2-1.5-1.2-2.8-2.6-2.8l-.3-.2Z"/>
    </g>
    <g id="g__x3D___x5B_0_x2C__-1_x5D_">
      <path class="st12" d="M269.1,34.7c-.5,0-1.1.2-1.5.5-.5-.3-1-.4-1.8-.4-2.1,0-2.7,1.1-2.7,1.9s.4,1.1.7,1.4c-.3.3-.4.7-.4,1.2s.2.9.5,1.2c-.5,0-1.1.5-1.1,1.1s.8,1.7,3.5,1.7,3.5-.8,3.5-1.7c0-1.3-1-1.7-1.2-1.8-.7-.3-1.5-.3-2.7-.3h-.7c-.4,0-.6,0-.8-.2-.1,0-.3-.3-.3-.6s0-.3.1-.4c.5.3,1.2.3,1.6.3,2.1,0,2.7-1.1,2.7-1.9s-.4-1.2-.5-1.2c.4-.2.6-.2.8-.2,0,0-.1.2-.1.3,0,.4.3.6.6.6s.6-.3.6-.6c0-.5-.2-.9-.8-.9h0ZM265,40.8h1.6c.4,0,2,0,2,.7s-.5,1.1-2.3,1.1-2.3-.6-2.3-1.1.8-.7,1-.7h0ZM265.9,38.1c-1.2,0-1.2-.9-1.2-1.4s0-1.4,1.2-1.4,1.2.9,1.2,1.4,0,1.4-1.2,1.4ZM281.6,35.9h-8.1c-.1,0-.3,0-.3.3s.1.3.3.3h8.1c.1,0,.3,0,.3-.3s-.2-.3-.3-.3ZM281.6,38.4h-8.1c-.1,0-.3,0-.3.3s.1.3.3.3h8.1c.1,0,.3,0,.3-.3s-.2-.3-.3-.3ZM287.8,31.4c.1,0,.3-.1.3-.3s-.1-.3-.3-.3h-1.6v13h1.6c.1,0,.3,0,.3-.3s-.1-.3-.3-.3h-1.1v-12h1.1s0,.2,0,.2ZM291.6,32c-.8,0-1.7.3-2.3,1.5-.4.9-.5,1.9-.5,2.9s.1,2.1.6,3.1c.6,1.1,1.5,1.3,2.1,1.3s1.7-.3,2.3-1.5c.4-.9.5-1.9.5-2.9s-.1-2.1-.5-3c-.6-1.2-1.7-1.4-2.2-1.4ZM293.1,39c-.2,1.2-.9,1.6-1.5,1.6s-1.3-.3-1.5-1.6c-.1-.8-.1-2-.1-2.7s0-1.7.1-2.4c.2-1.5,1.2-1.7,1.5-1.7s1.3.2,1.5,1.5c.1.7.1,1.7.1,2.5s0,2-.1,2.8ZM296.6,39.2c-.4,0-.7.3-.7.7s.3.7.7.7.3,0,.5-.2h.1v.2c0,1-.5,1.7-.9,2.2-.1,0-.1.2-.1.2h.1c.1,0,1.2-1,1.2-2.5-.1-.8-.4-1.4-.9-1.4h0ZM302.9,38.2h3.4v-.8h-3.4v.8ZM310.9,39.6v-7.3c0-.2,0-.3-.3-.3-.8.8-1.9.8-2.4.8v.4c.3,0,1,0,1.7-.3v6.7c0,.5,0,.6-1.2.6h-.4v.4h4.2v-.4h-.4c-1.2,0-1.2,0-1.2-.6h0ZM314.1,30.9c-.1,0-.3.1-.3.3s.1.3.3.3h1.1v12h-1.1c-.1,0-.3,0-.3.3s.1.3.3.3h1.6v-13h-1.6s0-.2,0-.2Z"/>
      <path class="st0" d="M269.1,34.7c-.5,0-1.1.2-1.5.5-.5-.3-1-.4-1.8-.4-2.1,0-2.7,1.1-2.7,1.9s.4,1.1.7,1.4c-.3.3-.4.7-.4,1.2s.2.9.5,1.2c-.5,0-1.1.5-1.1,1.1s.8,1.7,3.5,1.7,3.5-.8,3.5-1.7c0-1.3-1-1.7-1.2-1.8-.7-.3-1.5-.3-2.7-.3h-.7c-.4,0-.6,0-.8-.2-.1,0-.3-.3-.3-.6s0-.3.1-.4c.5.3,1.2.3,1.6.3,2.1,0,2.7-1.1,2.7-1.9s-.4-1.2-.5-1.2c.4-.2.6-.2.8-.2,0,0-.1.2-.1.3,0,.4.3.6.6.6s.6-.3.6-.6c0-.5-.2-.9-.8-.9h0ZM265,40.8h1.6c.4,0,2,0,2,.7s-.5,1.1-2.3,1.1-2.3-.6-2.3-1.1.8-.7,1-.7h0ZM265.9,38.1c-1.2,0-1.2-.9-1.2-1.4s0-1.4,1.2-1.4,1.2.9,1.2,1.4,0,1.4-1.2,1.4ZM281.6,35.9h-8.1c-.1,0-.3,0-.3.3s.1.3.3.3h8.1c.1,0,.3,0,.3-.3s-.2-.3-.3-.3ZM281.6,38.4h-8.1c-.1,0-.3,0-.3.3s.1.3.3.3h8.1c.1,0,.3,0,.3-.3s-.2-.3-.3-.3ZM287.8,31.4c.1,0,.3-.1.3-.3s-.1-.3-.3-.3h-1.6v13h1.6c.1,0,.3,0,.3-.3s-.1-.3-.3-.3h-1.1v-12h1.1s0,.2,0,.2ZM291.6,32c-.8,0-1.7.3-2.3,1.5-.4.9-.5,1.9-.5,2.9s.1,2.1.6,3.1c.6,1.1,1.5,1.3,2.1,1.3s1.7-.3,2.3-1.5c.4-.9.5-1.9.5-2.9s-.1-2.1-.5-3c-.6-1.2-1.7-1.4-2.2-1.4ZM293.1,39c-.2,1.2-.9,1.6-1.5,1.6s-1.3-.3-1.5-1.6c-.1-.8-.1-2-.1-2.7s0-1.7.1-2.4c.2-1.5,1.2-1.7,1.5-1.7s1.3.2,1.5,1.5c.1.7.1,1.7.1,2.5s0,2-.1,2.8ZM296.6,39.2c-.4,0-.7.3-.7.7s.3.7.7.7.3,0,.5-.2h.1v.2c0,1-.5,1.7-.9,2.2-.1,0-.1.2-.1.2h.1c.1,0,1.2-1,1.2-2.5-.1-.8-.4-1.4-.9-1.4h0ZM302.9,38.2h3.4v-.8h-3.4v.8ZM310.9,39.6v-7.3c0-.2,0-.3-.3-.3-.8.8-1.9.8-2.4.8v.4c.3,0,1,0,1.7-.3v6.7c0,.5,0,.6-1.2.6h-.4v.4h4.2v-.4h-.4c-1.2,0-1.2,0-1.2-.6h0ZM314.1,30.9c-.1,0-.3.1-.3.3s.1.3.3.3h1.1v12h-1.1c-.1,0-.3,0-.3.3s.1.3.3.3h1.6v-13h-1.6s0-.2,0-.2Z"/>
    </g>
    <rect class="st20" x="62.3" y="47.4" width="13" height="12.1"/>
    <rect class="st20" x="136.8" y="136" width="10.4" height="13.4"/>
    <rect class="st20" x="63.1" y="44.1" width="12.7" height="14.1"/>
    <g>
      <path class="st2" d="M145.8,143.7c0-.5,0-.6,1.1-.6h.3v-.4c.1,0-3.7,0-3.7,0v.4h.3c1,0,1,.1.9.6l-.5,3h-3.9l.5-3c0-.5,0-.6,1.1-.6h.3v-.4c.1,0-3.7,0-3.7,0v.4h.2c1,0,1,.1.9.6l-1.1,6.8c0,.5,0,.6-1.1.6h-.3v.4c-.1,0,3.7,0,3.7,0v-.4h-.2q-1,0-.9-.6l.6-3.4h3.9l-.7,3.4c0,.5,0,.6-1.1.6h-.3v.4c-.1,0,3.7,0,3.7,0v-.4h-.2q-1,0-.9-.6l1.1-6.8h0Z"/>
      <path class="st21" d="M145.9,143.7c0-.5,0-.6,1.1-.6h.3v-.4h-3.7v.4h.3c1,0,1,.1.9.6l-.5,3h-3.9l.5-3c0-.5,0-.6,1.1-.6h.3v-.4h-3.7v.4c-.1,0,.2,0,.2,0,1,0,1,.1.9.6l-1.1,6.8c-.1.5-.1.6-1.1.6h-.3v.4h3.7v-.4h-.2q-1,0-.9-.6l.6-3.4h3.9l-.7,3.4c-.1.5-.1.6-1.1.6h-.3v.4h3.7v-.4h-.2q-1,0-.9-.6l1.1-6.8h0Z"/>
    </g>
    <g id="Linitial__x3D__71">
      <path class="st21" d="M73.7,58.2h-.3c-.3,1.2-.8,2.7-3.1,2.7h-1.1q-.6,0-.5-.4l1.2-6.2c0-.4,0-.5,1.3-.5h.4v-.4c0,0-4.1,0-4.1,0v.4c0,0,.2,0,.2,0q1,0,.9.5l-1.1,6.1c0,.4,0,.5-1.1.5h-.3v.4c0,0,6.7,0,6.7,0l.9-3.1Z"/>
      <path class="st2" d="M73.7,58.2h-.3c-.3,1.2-.8,2.7-3.1,2.7h-1.1q-.6,0-.5-.4l1.2-6.2c0-.4,0-.5,1.3-.5h.4v-.4c0,0-4.1,0-4.1,0v.4c0,0,.2,0,.2,0q1,0,.9.5l-1.1,6.1c0,.4,0,.5-1.1.5h-.3v.4c0,0,6.7,0,6.7,0l.9-3.1Z"/>
    </g>
  </g>
  <g id="repere">
    <g id="Ligne_6">
      <polygon class="st17" points="59.8 186.5 58.6 189 59.7 189 59.4 209.9 59.6 209.9 59.8 189 60.9 189 59.8 186.5"/>
      <polygon class="st3" points="59.8 186.5 58.6 189 59.7 189 59.4 209.9 59.6 209.9 59.8 189 60.9 189 59.8 186.5"/>
    </g>
    <g id="Ligne_6_copie">
      <polygon class="st17" points="83 210.1 80.6 208.9 80.6 210 59.7 209.7 59.7 209.9 80.6 210.1 80.5 211.2 83 210.1"/>
      <polygon class="st3" points="83 210.1 80.6 208.9 80.6 210 59.7 209.7 59.7 209.9 80.6 210.1 80.5 211.2 83 210.1"/>
    </g>
    <g id="x">
      <path class="st17" d="M82.4,201c0,.3.2.3.3.3.2,0,.5-.1.5-.5,0-.6-.8-.7-1-.7-.5,0-.9.3-1.1.6-.2-.4-.6-.6-1.1-.6-1.1,0-1.7,1.2-1.7,1.5s0,.1.2.1.2,0,.2-.1c.3-.9.9-1.2,1.3-1.2s.5.2.5.6,0,.6-.2.9l-.3,1.3c0,.6-.5.9-.9.9,0,0-.3,0-.5-.2.3-.1.3-.4.3-.4,0-.3-.2-.3-.3-.3-.3,0-.5.2-.5.5,0,.5.5.7,1,.7s.9-.4,1.1-.6c.2.4.6.6,1.1.6,1.1,0,1.7-1.2,1.7-1.5s0-.1-.2-.1-.2,0-.2.2c-.2.6-.7,1.1-1.2,1.1s-.6-.2-.6-.6,0-.4.2-.8l.3-1.3c.2-.8.6-1,.9-1,0,0,.3,0,.5.2-.3.1-.3.4-.3.4h0Z"/>
      <path class="st1" d="M82.4,201c0,.3.2.3.3.3.2,0,.5-.1.5-.5,0-.6-.8-.7-1-.7-.5,0-.9.3-1.1.6-.2-.4-.6-.6-1.1-.6-1.1,0-1.7,1.2-1.7,1.5s0,.1.2.1.2,0,.2-.1c.3-.9.9-1.2,1.3-1.2s.5.2.5.6,0,.6-.2.9l-.3,1.3c0,.6-.5.9-.9.9,0,0-.3,0-.5-.2.3-.1.3-.4.3-.4,0-.3-.2-.3-.3-.3-.3,0-.5.2-.5.5,0,.5.5.7,1,.7s.9-.4,1.1-.6c.2.4.6.6,1.1.6,1.1,0,1.7-1.2,1.7-1.5s0-.1-.2-.1-.2,0-.2.2c-.2.6-.7,1.1-1.2,1.1s-.6-.2-.6-.6,0-.4.2-.8l.3-1.3c.2-.8.6-1,.9-1,0,0,.3,0,.5.2-.3.1-.3.4-.3.4h0Z"/>
    </g>
    <g id="y">
      <path class="st17" d="M67.5,188.9c-.3,0-.4.3-.4.4l-.6,2.6c0,.2-.5,1-1.2,1s-.6-.4-.6-.8.3-1.3.6-2v-.5c0-.5-.4-.8-.9-.8-1,0-1.4,1.3-1.4,1.5s0,.1.2.1.2,0,.2-.1c.3-1.1.7-1.2,1-1.2s.2.1.2.3,0,.4-.2.8c-.4.9-.5,1.4-.5,1.7,0,1,.7,1.2,1.3,1.2s.7-.1,1-.4c0,.5-.2,1-.7,1.5-.3.4-.7.6-1.1.6s-.5-.1-.6-.4c.3-.1.4-.3.4-.5s0-.3-.4-.3-.5.1-.5.6.4.8,1.1.8c1.1,0,2.1-1,2.4-1.9l1-3.9h0c0-.2-.2-.3-.4-.3h0Z"/>
      <path class="st1" d="M67.5,188.9c-.3,0-.4.3-.4.4l-.6,2.6c0,.2-.5,1-1.2,1s-.6-.4-.6-.8.3-1.3.6-2v-.5c0-.5-.4-.8-.9-.8-1,0-1.4,1.3-1.4,1.5s0,.1.2.1.2,0,.2-.1c.3-1.1.7-1.2,1-1.2s.2.1.2.3,0,.4-.2.8c-.4.9-.5,1.4-.5,1.7,0,1,.7,1.2,1.3,1.2s.7-.1,1-.4c0,.5-.2,1-.7,1.5-.3.4-.7.6-1.1.6s-.5-.1-.6-.4c.3-.1.4-.3.4-.5s0-.3-.4-.3-.5.1-.5.6.4.8,1.1.8c1.1,0,2.1-1,2.4-1.9l1-3.9h0c0-.2-.2-.3-.4-.3h0Z"/>
    </g>
  </g>
</svg>