<?xml version="1.0" encoding="utf-8"?>
<!-- Generator: Adobe Illustrator 27.9.3, SVG Export Plug-In . SVG Version: 9.03 Build 53313)  -->
<svg version="1.1" xmlns="http://www.w3.org/2000/svg" xmlns:xlink="http://www.w3.org/1999/xlink" x="0px" y="0px"
	 viewBox="0 0 1192.7 381.5" style="enable-background:new 0 0 1192.7 381.5;" xml:space="preserve">
<style type="text/css">
	.st0{fill:#FFFFFF;}
	.st1{fill:#77CBF8;}
	.st2{fill:#FEB176;}
	.st3{fill:none;stroke:#5C4336;stroke-width:2;stroke-miterlimit:10;}
	.st4{fill:none;stroke:#626262;stroke-miterlimit:10;stroke-dasharray:6,3;}
	.st5{fill:none;stroke:#626262;stroke-miterlimit:10;}
	.st6{fill:#626262;}
	.st7{fill:none;stroke:#000000;stroke-width:3;stroke-miterlimit:10;}
	.st8{fill:#464646;}
	.st9{stroke:#000000;stroke-width:0.5;stroke-miterlimit:10;}
	.st10{fill:none;stroke:#5A4617;stroke-width:2;stroke-miterlimit:10;}
	.st11{fill:#5A4617;}
	.st12{fill:#004466;stroke:#004466;stroke-width:0.75;stroke-miterlimit:10;}
	.st13{fill:#BF5300;stroke:#BF5300;stroke-width:0.75;stroke-miterlimit:10;}
</style>
<g id="Calque_1">
	<rect x="-0.2" y="14.1" class="st0" width="1193" height="353.3"/>
</g>
<g id="Fluids">
	<rect x="96.7" y="64.9" class="st1" width="988" height="247"/>
	<rect x="96.7" y="176.1" class="st2" width="988" height="24.6"/>
</g>
<g id="Interface">
	<line class="st3" x1="96.4" y1="175.1" x2="1084.4" y2="175.1"/>
	<line class="st3" x1="96.4" y1="201.6" x2="1084.4" y2="201.6"/>
</g>
<g id="Guide_lines">
	<line class="st4" x1="96.4" y1="175.1" x2="69.9" y2="175.1"/>
	<line class="st4" x1="96.4" y1="201.6" x2="69.9" y2="201.6"/>
	<line class="st4" x1="1110.9" y1="64.9" x2="1084.4" y2="64.9"/>
	<line class="st4" x1="1110.9" y1="311.9" x2="1084.4" y2="311.9"/>
	<line class="st4" x1="96.4" y1="338.3" x2="96.4" y2="311.9"/>
	<line class="st4" x1="1085.1" y1="338.3" x2="1085.1" y2="311.9"/>
</g>
<g id="Arrows">
	<g>
		<g>
			<line class="st5" x1="86.2" y1="176.7" x2="86.2" y2="200.1"/>
			<g>
				<polygon class="st6" points="82.1,180 82.8,180.7 86.2,177.1 89.5,180.7 90.2,180 86.2,175.6 				"/>
			</g>
			<g>
				<polygon class="st6" points="82.1,196.8 82.8,196.1 86.2,199.7 89.5,196.1 90.2,196.8 86.2,201.2 				"/>
			</g>
		</g>
	</g>
	<g>
		<g>
			<line class="st5" x1="1097.6" y1="65.9" x2="1097.6" y2="310.8"/>
			<g>
				<polygon class="st6" points="1093.5,69.3 1094.3,69.9 1097.6,66.3 1101,69.9 1101.7,69.3 1097.6,64.9 				"/>
			</g>
			<g>
				<polygon class="st6" points="1093.5,307.5 1094.3,306.8 1097.6,310.4 1101,306.8 1101.7,307.5 1097.6,311.9 				"/>
			</g>
		</g>
	</g>
	<g>
		<g>
			<line class="st5" x1="1083.6" y1="325.1" x2="97.5" y2="325.1"/>
			<g>
				<polygon class="st6" points="1080.3,321 1079.6,321.7 1083.2,325.1 1079.6,328.5 1080.3,329.2 1084.7,325.1 				"/>
			</g>
			<g>
				<polygon class="st6" points="100.8,321 101.5,321.7 97.9,325.1 101.5,328.5 100.8,329.2 96.4,325.1 				"/>
			</g>
		</g>
	</g>
</g>
<g id="Boundaries">
	<rect x="96.7" y="64.9" class="st7" width="988" height="247"/>
	<rect x="95.2" y="176.1" class="st2" width="4.5" height="24.5"/>
</g>
<g id="Dimensions">
	<g>
		<path class="st8" d="M29.9,196.5H21c0-0.6,0-0.6,0.3-0.9l4.6-5.1c1.3-1.5,2.5-3.4,2.5-5.3c0-2-1-3.9-3.2-3.9
			c-1.4,0-2.7,0.9-3.2,2.4c0.1,0,0.1,0,0.3,0c0.8,0,1.3,0.6,1.3,1.2c0,1-0.8,1.3-1.2,1.3c-0.1,0-1.3,0-1.3-1.3
			c0-2.1,1.8-4.3,4.5-4.3c2.9,0,5.1,1.9,5.1,4.7c0,2.4-1.4,3.7-5.2,7l-2.5,2.5h4.3c0.5,0,2.1,0,2.3-0.2c0.2-0.4,0.4-1.4,0.5-2.1h0.6
			L29.9,196.5z"/>
	</g>
	<g>
		<path class="st8" d="M45.5,197.3c-1.5,0-3-0.7-3-2.4c0-0.4,0.1-0.8,0.4-1.8c0.3-1.3,0.4-1.5,0.4-1.8c0-1.7-1.3-2-2.3-2h-2.6
			l-1.6,6.1c-0.1,0.3-0.1,0.4-0.1,0.5c0,0.2,0,0.4,1.4,0.4c0.5,0,0.7,0,0.7,0.3c0,0.4-0.3,0.4-0.5,0.4c-0.9,0-1.9-0.1-2.9-0.1
			c-0.9,0-1.9,0.1-2.8,0.1c-0.1,0-0.3,0-0.3-0.3c0-0.4,0.3-0.4,0.7-0.4c1.7,0,1.8-0.2,2-1l3.3-12.5c0.1-0.3,0.1-0.4,0.1-0.4
			c0-0.4-0.7-0.4-1.4-0.4c-0.5,0-0.7,0-0.7-0.3c0-0.4,0.3-0.4,0.7-0.4h6.4c3,0,4.9,1.6,4.9,3.4c0,1.7-1.7,3.7-5.1,4.5
			c1.2,0.4,2.1,1.4,2.1,2.7c0,0.5-0.1,1.5-0.2,2c-0.1,0.6-0.1,1.2-0.1,1.8c0,0.7,0.1,1.4,0.8,1.4c0.8,0,1.5-0.7,1.9-2
			c0.1-0.3,0.1-0.4,0.4-0.4c0.3,0,0.4,0.1,0.4,0.3C48.3,194.9,47.5,197.3,45.5,197.3z M42,181.8c-0.5,0-1.2,0-1.4,0
			s-0.4,0.1-0.5,0.8l-1.6,6.1h2.5c1.7,0,2.9-0.5,3.6-1.2c1.3-1.2,1.4-3.4,1.4-3.5C46,181.8,43.6,181.8,42,181.8z"/>
	</g>
	<g>
		<path class="st8" d="M49.7,198.8l-1.3,0v-0.4c0.8,0,0.9,0,0.9-0.5v-3.2c0-0.6-0.1-0.7-0.9-0.7v-0.4l1.7-0.1v4.4
			c0,0.5,0,0.5,0.8,0.5v0.4C50.6,198.8,50.1,198.8,49.7,198.8z M49.7,192.2c-0.4,0-0.6-0.3-0.6-0.6c0-0.3,0.2-0.6,0.6-0.6
			c0.4,0,0.6,0.3,0.6,0.6C50.3,191.9,50.1,192.2,49.7,192.2z"/>
		<path class="st8" d="M56.4,198.8l-1.4,0v-0.4c0.8,0,0.9,0,0.9-0.5v-2.8c0-0.7-0.1-1.3-0.9-1.3c-0.8,0-1.6,0.7-1.6,1.9v2.2
			c0,0.5,0.1,0.5,0.9,0.5v0.4l-1.3,0l-1.4,0v-0.4c0.8,0,0.9,0,0.9-0.5v-3.2c0-0.6-0.1-0.7-0.9-0.7v-0.4l1.7-0.1v1.3
			c0.3-0.7,0.9-1.3,1.8-1.3c0.7,0,1.1,0.2,1.3,0.4c0.4,0.4,0.4,0.8,0.4,1.8v2.3c0,0.4,0.3,0.4,0.9,0.4v0.4L56.4,198.8z"/>
		<path class="st8" d="M59.7,198.8l-1.3,0v-0.4c0.8,0,0.9,0,0.9-0.5v-6.2c0-0.6-0.1-0.7-0.9-0.7v-0.4l1.7-0.1v7.4
			c0,0.5,0.1,0.5,0.9,0.5v0.4L59.7,198.8z"/>
		<path class="st8" d="M64.3,199c-1.4,0-2.6-1.2-2.6-2.8c0-1.5,1.1-2.7,2.5-2.7c1.5,0,2.1,1.2,2.1,2.4c0,0.3,0,0.3-0.3,0.3h-3.3
			c0,0.4,0,1.2,0.4,1.8c0.3,0.4,0.8,0.8,1.4,0.8c0.1,0,1.2,0,1.6-1.2c0-0.1,0-0.2,0.2-0.2c0.1,0,0.2,0,0.2,0.1
			C66.3,197.6,65.8,199,64.3,199z M64.2,193.7c-0.4,0-1.4,0.3-1.5,2.1h2.8C65.5,195.3,65.4,193.7,64.2,193.7z"/>
		<path class="st8" d="M69.5,199c-0.4,0-1.5-0.1-1.5-1.6V194h-1v-0.3c1.2,0,1.5-1.3,1.5-2.3h0.3v2.2h1.7v0.4h-1.7v3.3
			c0,0.2,0,1.3,0.8,1.3c0.4,0,0.8-0.5,0.8-1.3v-0.7h0.3v0.7C70.7,198.1,70.3,199,69.5,199z"/>
	</g>
	<g>
		<path class="st8" d="M1114.2,198.4h-8.9c0-0.6,0-0.6,0.3-0.9l4.6-5.1c1.3-1.5,2.5-3.4,2.5-5.3c0-2-1-3.9-3.2-3.9
			c-1.4,0-2.7,0.9-3.2,2.4c0.1,0,0.1,0,0.3,0c0.8,0,1.3,0.6,1.3,1.2c0,1-0.8,1.3-1.2,1.3c-0.1,0-1.3,0-1.3-1.3
			c0-2.1,1.8-4.3,4.5-4.3c2.9,0,5.1,1.9,5.1,4.7c0,2.4-1.4,3.7-5.2,7l-2.5,2.5h4.3c0.5,0,2.1,0,2.3-0.2c0.2-0.4,0.4-1.4,0.5-2.1h0.6
			L1114.2,198.4z"/>
		<path class="st8" d="M1126.3,196.1c-1.1,2.3-2.9,2.8-4.2,2.8c-1.2,0-2.9-0.5-4-2.4c-1-1.8-1.1-4-1.1-5.8c0-1.9,0.1-3.8,0.9-5.4
			c1-2.2,2.7-2.9,4.2-2.9c1,0,3,0.4,4.1,2.7c0.8,1.8,1,3.7,1,5.6C1127.2,192.6,1127.1,194.5,1126.3,196.1z M1124.9,185.7
			c-0.5-2.4-2-2.8-2.8-2.8c-0.6,0-2.4,0.2-2.9,3.1c-0.2,1.3-0.2,2.9-0.2,4.4c0,1.4,0,3.6,0.3,5.1c0.4,2.3,1.8,2.9,2.8,2.9
			c1.1,0,2.4-0.7,2.8-3c0.3-1.5,0.3-3.2,0.3-5C1125.2,188.9,1125.2,187.1,1124.9,185.7z"/>
	</g>
	<g>
		<path class="st8" d="M1144.9,199.2c-1.5,0-3-0.7-3-2.4c0-0.4,0.1-0.8,0.4-1.8c0.3-1.3,0.4-1.5,0.4-1.8c0-1.7-1.3-2-2.3-2h-2.6
			l-1.6,6.1c-0.1,0.3-0.1,0.4-0.1,0.5c0,0.2,0,0.4,1.4,0.4c0.5,0,0.7,0,0.7,0.3c0,0.4-0.3,0.4-0.5,0.4c-1,0-1.9-0.1-2.9-0.1
			c-0.9,0-1.9,0.1-2.8,0.1c-0.1,0-0.3,0-0.3-0.3c0-0.4,0.3-0.4,0.7-0.4c1.7,0,1.8-0.2,2-1l3.3-12.5c0.1-0.3,0.1-0.4,0.1-0.4
			c0-0.4-0.7-0.4-1.4-0.4c-0.5,0-0.7,0-0.7-0.3c0-0.4,0.3-0.4,0.7-0.4h6.4c3,0,4.9,1.6,4.9,3.4c0,1.7-1.7,3.7-5.1,4.5
			c1.2,0.4,2.1,1.4,2.1,2.7c0,0.5-0.1,1.5-0.2,2c-0.1,0.6-0.1,1.2-0.1,1.8c0,0.7,0.1,1.4,0.8,1.4c0.8,0,1.5-0.7,1.9-2
			c0.1-0.3,0.1-0.4,0.4-0.4c0.3,0,0.4,0.1,0.4,0.3C1147.6,196.7,1146.9,199.2,1144.9,199.2z M1141.4,183.6c-0.5,0-1.2,0-1.4,0
			c-0.2,0-0.4,0.1-0.5,0.8l-1.6,6.1h2.5c1.7,0,2.9-0.5,3.6-1.2c1.3-1.2,1.4-3.4,1.4-3.5C1145.3,183.6,1142.9,183.6,1141.4,183.6z"/>
	</g>
	<g>
		<path class="st8" d="M1149.1,200.6l-1.3,0v-0.4c0.8,0,0.9,0,0.9-0.5v-3.2c0-0.6-0.1-0.7-0.9-0.7v-0.4l1.7-0.1v4.4
			c0,0.5,0,0.5,0.8,0.5v0.4C1149.9,200.6,1149.5,200.6,1149.1,200.6z M1149,194.1c-0.4,0-0.6-0.3-0.6-0.6c0-0.3,0.2-0.6,0.6-0.6
			c0.4,0,0.6,0.3,0.6,0.6C1149.7,193.7,1149.5,194.1,1149,194.1z"/>
		<path class="st8" d="M1155.8,200.6l-1.4,0v-0.4c0.8,0,0.9,0,0.9-0.5V197c0-0.7-0.1-1.3-0.9-1.3c-0.8,0-1.6,0.7-1.6,1.9v2.2
			c0,0.5,0.1,0.5,0.9,0.5v0.4l-1.3,0l-1.4,0v-0.4c0.8,0,0.9,0,0.9-0.5v-3.2c0-0.6-0.1-0.7-0.9-0.7v-0.4l1.7-0.1v1.3
			c0.3-0.7,0.9-1.3,1.8-1.3c0.7,0,1.1,0.2,1.3,0.4c0.4,0.4,0.4,0.8,0.4,1.8v2.3c0,0.4,0.3,0.4,0.9,0.4v0.4L1155.8,200.6z"/>
		<path class="st8" d="M1159.1,200.6l-1.3,0v-0.4c0.8,0,0.9,0,0.9-0.5v-6.2c0-0.6-0.1-0.7-0.9-0.7v-0.4l1.7-0.1v7.4
			c0,0.5,0.1,0.5,0.9,0.5v0.4L1159.1,200.6z"/>
		<path class="st8" d="M1163.7,200.8c-1.4,0-2.6-1.2-2.6-2.8c0-1.5,1.1-2.7,2.5-2.7c1.5,0,2.1,1.2,2.1,2.4c0,0.3,0,0.3-0.3,0.3h-3.3
			c0,0.4,0,1.2,0.4,1.8c0.3,0.4,0.8,0.8,1.4,0.8c0.1,0,1.2,0,1.6-1.2c0-0.1,0-0.2,0.2-0.2c0.1,0,0.2,0,0.2,0.1
			C1165.7,199.5,1165.2,200.8,1163.7,200.8z M1163.6,195.6c-0.4,0-1.4,0.3-1.5,2.1h2.8C1164.9,197.2,1164.8,195.6,1163.6,195.6z"/>
		<path class="st8" d="M1168.9,200.8c-0.4,0-1.5-0.1-1.5-1.6v-3.3h-1v-0.3c1.2,0,1.5-1.3,1.5-2.3h0.3v2.2h1.7v0.4h-1.7v3.3
			c0,0.2,0,1.3,0.8,1.3c0.4,0,0.8-0.5,0.8-1.3v-0.7h0.3v0.7C1170,199.9,1169.7,200.8,1168.9,200.8z"/>
	</g>
	<g>
		<g>
			<path class="st8" d="M568.9,354.5c-2.5,0-5-1.6-5-4.2c0-2.4,2.1-3.7,3.5-4.4c-0.6-0.4-1.5-1-1.8-1.3c-1-1.1-1.1-2.2-1.1-2.6
				c0-2.2,1.9-4,4.3-4c2.2,0,4.3,1.4,4.3,3.6c0,1.6-1.2,2.8-2.9,3.7c1.5,1,1.9,1.2,2.4,1.7c0.9,1,1.2,2.1,1.2,3
				C573.8,352.5,571.6,354.5,568.9,354.5z M570.8,348.1l-3-1.9c-2,1.1-2.8,2.7-2.8,4.1c0,2,1.7,3.5,3.8,3.5c2,0,3.8-1.2,3.8-3
				C572.6,349.3,571.5,348.6,570.8,348.1z M568.9,338.5c-1.7,0-3.3,1-3.3,2.5c0,0.4,0.1,1.2,1.2,1.9l3,1.9c1.4-0.8,2.4-2,2.4-3.4
				C572.1,339.8,570.6,338.5,568.9,338.5z"/>
			<path class="st8" d="M585,351.7c-1.1,2.3-2.9,2.8-4.2,2.8c-1.2,0-2.9-0.5-4-2.4c-1-1.8-1.1-4-1.1-5.8c0-1.9,0.1-3.8,0.9-5.4
				c1-2.2,2.7-2.9,4.2-2.9c1,0,3,0.4,4.1,2.7c0.8,1.8,1,3.7,1,5.6C585.9,348.1,585.8,350,585,351.7z M583.7,341.3
				c-0.5-2.4-2-2.8-2.8-2.8c-0.6,0-2.4,0.2-2.9,3.1c-0.2,1.3-0.2,2.9-0.2,4.4c0,1.4,0,3.6,0.3,5.1c0.4,2.3,1.8,2.9,2.8,2.9
				c1.1,0,2.4-0.7,2.8-3c0.3-1.5,0.3-3.2,0.3-5C583.9,344.4,583.9,342.6,583.7,341.3z"/>
		</g>
		<g>
			<path class="st8" d="M603.6,354.7c-1.5,0-3-0.7-3-2.4c0-0.4,0.1-0.8,0.4-1.8c0.3-1.3,0.4-1.5,0.4-1.8c0-1.7-1.3-2-2.3-2h-2.6
				l-1.6,6.1c-0.1,0.3-0.1,0.4-0.1,0.5c0,0.2,0,0.4,1.4,0.4c0.5,0,0.7,0,0.7,0.3c0,0.4-0.3,0.4-0.5,0.4c-0.9,0-1.9-0.1-2.9-0.1
				c-0.9,0-1.9,0.1-2.8,0.1c-0.1,0-0.3,0-0.3-0.3c0-0.4,0.3-0.4,0.7-0.4c1.7,0,1.8-0.2,2-1l3.3-12.5c0.1-0.3,0.1-0.4,0.1-0.4
				c0-0.4-0.7-0.4-1.4-0.4c-0.5,0-0.7,0-0.7-0.3c0-0.4,0.3-0.4,0.7-0.4h6.4c3,0,4.9,1.6,4.9,3.4c0,1.7-1.7,3.7-5.1,4.5
				c1.2,0.4,2.1,1.4,2.1,2.7c0,0.5-0.1,1.5-0.2,2c-0.1,0.6-0.1,1.2-0.1,1.8c0,0.7,0.1,1.4,0.8,1.4c0.8,0,1.5-0.7,1.9-2
				c0.1-0.3,0.1-0.4,0.4-0.4c0.3,0,0.4,0.1,0.4,0.3C606.4,352.3,605.7,354.7,603.6,354.7z M600.1,339.2c-0.5,0-1.2,0-1.4,0
				c-0.2,0-0.4,0.1-0.5,0.8l-1.6,6.1h2.5c1.7,0,2.9-0.5,3.6-1.2c1.3-1.2,1.4-3.4,1.4-3.5C604.1,339.2,601.7,339.2,600.1,339.2z"/>
		</g>
		<g>
			<path class="st8" d="M607.9,356.2l-1.3,0v-0.4c0.8,0,0.9,0,0.9-0.5v-3.2c0-0.6-0.1-0.7-0.9-0.7V351l1.7-0.1v4.4
				c0,0.5,0,0.5,0.8,0.5v0.4C608.7,356.2,608.3,356.2,607.9,356.2z M607.8,349.6c-0.4,0-0.6-0.3-0.6-0.6c0-0.3,0.2-0.6,0.6-0.6
				c0.4,0,0.6,0.3,0.6,0.6C608.4,349.3,608.2,349.6,607.8,349.6z"/>
			<path class="st8" d="M614.5,356.2l-1.4,0v-0.4c0.8,0,0.9,0,0.9-0.5v-2.8c0-0.7-0.1-1.3-0.9-1.3c-0.8,0-1.6,0.7-1.6,1.9v2.2
				c0,0.5,0.1,0.5,0.9,0.5v0.4l-1.3,0l-1.4,0v-0.4c0.8,0,0.9,0,0.9-0.5v-3.2c0-0.6-0.1-0.7-0.9-0.7V351l1.7-0.1v1.3
				c0.3-0.7,0.9-1.3,1.8-1.3c0.7,0,1.1,0.2,1.3,0.4c0.4,0.4,0.4,0.8,0.4,1.8v2.3c0,0.4,0.3,0.4,0.9,0.4v0.4L614.5,356.2z"/>
			<path class="st8" d="M617.9,356.2l-1.3,0v-0.4c0.8,0,0.9,0,0.9-0.5v-6.2c0-0.6-0.1-0.7-0.9-0.7V348l1.7-0.1v7.4
				c0,0.5,0.1,0.5,0.9,0.5v0.4L617.9,356.2z"/>
			<path class="st8" d="M622.5,356.4c-1.4,0-2.6-1.2-2.6-2.8c0-1.5,1.1-2.7,2.5-2.7c1.5,0,2.1,1.2,2.1,2.4c0,0.3,0,0.3-0.3,0.3h-3.3
				c0,0.4,0,1.2,0.4,1.8c0.3,0.4,0.8,0.8,1.4,0.8c0.1,0,1.2,0,1.6-1.2c0-0.1,0-0.2,0.2-0.2c0.1,0,0.2,0,0.2,0.1
				C624.5,355,623.9,356.4,622.5,356.4z M622.3,351.1c-0.4,0-1.4,0.3-1.5,2.1h2.8C623.7,352.7,623.5,351.1,622.3,351.1z"/>
			<path class="st8" d="M627.6,356.4c-0.4,0-1.5-0.1-1.5-1.6v-3.3h-1v-0.3c1.2,0,1.5-1.3,1.5-2.3h0.3v2.2h1.7v0.4h-1.7v3.3
				c0,0.2,0,1.3,0.8,1.3c0.4,0,0.8-0.5,0.8-1.3V354h0.3v0.7C628.8,355.5,628.5,356.4,627.6,356.4z"/>
		</g>
	</g>
</g>
<g id="BC">
	<g>
		<path d="M1037,135l-2.7,0.1v-0.7c1.6,0,1.9,0,1.9-1.1v-5.6c0-1.4-0.3-2.7-1.8-2.7c-1.5,0-3.2,1.3-3.2,3.8v4.4
			c0,1.1,0.3,1.1,1.9,1.1v0.7l-2.7-0.1l-2.7,0.1v-0.7c1.6,0,1.9,0,1.9-1.1v-6.4c0-1.2-0.2-1.3-1.9-1.3v-0.7l3.4-0.3v2.5
			c0.7-1.5,1.8-2.5,3.6-2.5c1.4,0,2.2,0.5,2.5,0.9c0.7,0.9,0.7,1.6,0.7,3.7v4.6c0,0.7,0.6,0.7,1.9,0.7v0.7L1037,135z"/>
		<path d="M1046.2,135.3c-2.8,0-5.3-2.3-5.3-5.4c0-3,2.3-5.6,5.3-5.6c2.9,0,5.3,2.5,5.3,5.6C1051.5,133,1049.1,135.3,1046.2,135.3z
			 M1048.9,126.4c-0.6-1-1.7-1.6-2.7-1.6c-1,0-2.1,0.5-2.7,1.6c-0.6,1.1-0.6,2.4-0.6,3.3c0,0.9,0,2.3,0.6,3.4
			c0.6,1.1,1.7,1.6,2.7,1.6c1.2,0,2.3-0.7,2.8-1.8c0.5-1.1,0.5-2.4,0.5-3.2C1049.5,128.8,1049.5,127.4,1048.9,126.4z"/>
		<path d="M1062.3,135l-2.7,0.1v-0.7c1.6,0,1.9,0,1.9-1.1v-5.6c0-1.4-0.3-2.7-1.8-2.7c-1.5,0-3.2,1.3-3.2,3.8v4.4
			c0,1.1,0.3,1.1,1.9,1.1v0.7l-2.7-0.1l-2.7,0.1v-0.7c1.6,0,1.9,0,1.9-1.1v-6.4c0-1.2-0.2-1.3-1.9-1.3v-0.7l3.4-0.3v2.5
			c0.7-1.5,1.8-2.5,3.6-2.5c1.4,0,2.2,0.5,2.5,0.9c0.7,0.9,0.7,1.6,0.7,3.7v4.6c0,0.7,0.6,0.7,1.9,0.7v0.7L1062.3,135z"/>
		<path d="M1071.5,135.3c-2.8,0-5.3-2.3-5.3-5.5c0-3,2.2-5.5,5-5.5c3,0,4.3,2.3,4.3,4.7c0,0.5-0.1,0.5-0.6,0.5h-6.7
			c0,0.9,0,2.4,0.7,3.6c0.6,0.9,1.5,1.6,2.7,1.6c0.2,0,2.4,0,3.2-2.5c0-0.2,0.1-0.3,0.3-0.3c0.1,0,0.3,0,0.3,0.3
			C1075.5,132.7,1074.4,135.3,1071.5,135.3z M1071.2,124.8c-0.8,0-2.8,0.6-3,4.2h5.7C1073.9,128.1,1073.7,124.8,1071.2,124.8z"/>
	</g>
	<g>
		<path d="M562.1,51.5c-1.8,0-2.8-1.3-3-1.7v0.2v4c0,1.1,0.3,1.1,1.9,1.1v0.7l-2.7-0.1l-2.7,0.1v-0.7c1.6,0,1.9,0,1.9-1.1V42.9
			c0-1.1-0.2-1.2-1.9-1.2v-0.7l3.5-0.3v1.6c0.5-0.5,1.5-1.6,3.4-1.6c2.7,0,5,2.4,5,5.4C567.5,49.2,565,51.5,562.1,51.5z M562.3,41.2
			c-1.2,0-2.4,0.7-3.1,1.9v5.4c0,0.5,0,0.5,0.3,1c0.6,1,1.6,1.5,2.5,1.5c1.8,0,3.5-2,3.5-4.9C565.5,43.4,564,41.2,562.3,41.2z"/>
		<path d="M574.3,51.5c-2.8,0-5.3-2.3-5.3-5.5c0-3,2.2-5.5,5-5.5c3,0,4.3,2.3,4.3,4.7c0,0.5-0.1,0.5-0.6,0.5H571
			c0,0.9,0,2.4,0.7,3.6c0.6,0.9,1.5,1.6,2.7,1.6c0.2,0,2.4,0,3.2-2.5c0-0.2,0.1-0.3,0.3-0.3c0.1,0,0.3,0,0.3,0.3
			C578.3,48.9,577.2,51.5,574.3,51.5z M574,41c-0.8,0-2.8,0.6-3,4.2h5.7C576.7,44.3,576.5,41,574,41z"/>
		<path d="M586.7,43.2c-0.5,0-1-0.4-1-1c0-0.6,0.5-0.9,0.6-0.9c0,0-0.1,0-0.3,0c-1.8,0-2.8,2.1-2.8,4.5v3.7c0,0.9,0,1.1,1.8,1.1h0.5
			v0.7c-1-0.1-2.1-0.1-3-0.1l-2.7,0.1v-0.7c1.6,0,1.9,0,1.9-1.1V43c0-1.2-0.2-1.3-1.9-1.3v-0.7l3.3-0.3v2.6c0.3-1,1.2-2.6,3-2.6
			c1,0,1.8,0.7,1.8,1.5S587.1,43.2,586.7,43.2z"/>
		<path d="M591.8,51.2l-2.6,0.1v-0.7c1.6,0,1.9,0,1.9-1.1V43c0-1.2-0.2-1.3-1.8-1.3v-0.7l3.4-0.3v8.8c0,0.9,0.1,1.1,1.7,1.1v0.7
			C593.5,51.2,592.7,51.2,591.8,51.2z M591.7,38c-0.7,0-1.3-0.6-1.3-1.3c0-0.6,0.5-1.3,1.3-1.3c0.7,0,1.3,0.6,1.3,1.3
			C593,37.4,592.5,38,591.7,38z"/>
		<path d="M601,51.5c-2.8,0-5.3-2.3-5.3-5.4c0-3,2.3-5.6,5.3-5.6c2.9,0,5.3,2.5,5.3,5.6C606.4,49.2,603.9,51.5,601,51.5z
			 M603.7,42.6c-0.6-1-1.7-1.6-2.7-1.6c-1,0-2.1,0.5-2.7,1.6c-0.6,1.1-0.6,2.4-0.6,3.3c0,0.9,0,2.3,0.6,3.4c0.6,1.1,1.7,1.6,2.7,1.6
			c1.2,0,2.3-0.7,2.8-1.8c0.5-1.1,0.5-2.4,0.5-3.2C604.4,45,604.4,43.6,603.7,42.6z"/>
		<path d="M616.2,51.5v-1.6c-0.6,0.8-1.7,1.6-3.2,1.6c-2.7,0-5.1-2.4-5.1-5.4c0-3.1,2.5-5.4,5.4-5.4c1.3,0,2.3,0.6,3,1.5v-5.2
			c0-1.2-0.2-1.3-1.9-1.3v-0.7l3.5-0.3v14.6c0,1.2,0.2,1.3,1.9,1.3v0.7L616.2,51.5z M616.2,43.5c0-0.4,0-0.5-0.3-0.9
			c-0.7-1.1-1.8-1.4-2.6-1.4c-1.3,0-2.2,0.8-2.7,1.5c-0.7,1.1-0.7,2.5-0.7,3.4c0,1,0.1,2.4,0.7,3.3c0.6,0.9,1.4,1.5,2.5,1.5
			c1,0,2.1-0.5,2.8-1.7c0.3-0.4,0.3-0.5,0.3-0.9V43.5z"/>
		<path d="M623.8,51.2l-2.6,0.1v-0.7c1.6,0,1.9,0,1.9-1.1V43c0-1.2-0.2-1.3-1.8-1.3v-0.7l3.4-0.3v8.8c0,0.9,0.1,1.1,1.7,1.1v0.7
			C625.5,51.2,624.7,51.2,623.8,51.2z M623.7,38c-0.7,0-1.3-0.6-1.3-1.3c0-0.6,0.5-1.3,1.3-1.3c0.7,0,1.3,0.6,1.3,1.3
			C625,37.4,624.5,38,623.7,38z"/>
		<path d="M633,51.5c-2.8,0-5.2-2.4-5.2-5.4c0-3,2.2-5.6,5.2-5.6c1.8,0,3.7,0.9,3.7,2.6c0,0.7-0.5,1.1-1.1,1.1
			c-0.7,0-1.1-0.5-1.1-1.1c0-0.3,0.1-1,1.1-1.1c-0.8-0.9-2.4-0.9-2.6-0.9c-1.3,0-3.2,1-3.2,4.9c0,3.9,2.1,4.9,3.4,4.9
			c0.9,0,2.4-0.3,3.1-2.5c0-0.1,0.1-0.2,0.3-0.2c0.1,0,0.3,0,0.3,0.2C637,48.6,636.3,51.5,633,51.5z"/>
	</g>
	<g>
		<path d="M562.1,295.7c-1.8,0-2.8-1.3-3-1.7v0.2v4c0,1.1,0.3,1.1,1.9,1.1v0.7l-2.7-0.1l-2.7,0.1v-0.7c1.6,0,1.9,0,1.9-1.1V287
			c0-1.1-0.2-1.2-1.9-1.2v-0.7l3.5-0.3v1.6c0.5-0.5,1.5-1.6,3.4-1.6c2.7,0,5,2.4,5,5.4C567.5,293.3,565,295.7,562.1,295.7z
			 M562.3,285.4c-1.2,0-2.4,0.7-3.1,1.9v5.4c0,0.5,0,0.5,0.3,1c0.6,1,1.6,1.5,2.5,1.5c1.8,0,3.5-2,3.5-4.9
			C565.5,287.5,564,285.4,562.3,285.4z"/>
		<path d="M574.3,295.7c-2.8,0-5.3-2.3-5.3-5.5c0-3,2.2-5.5,5-5.5c3,0,4.3,2.3,4.3,4.7c0,0.5-0.1,0.5-0.6,0.5H571
			c0,0.9,0,2.4,0.7,3.6c0.6,0.9,1.5,1.6,2.7,1.6c0.2,0,2.4,0,3.2-2.5c0-0.2,0.1-0.3,0.3-0.3c0.1,0,0.3,0,0.3,0.3
			C578.3,293,577.2,295.7,574.3,295.7z M574,285.2c-0.8,0-2.8,0.6-3,4.2h5.7C576.7,288.4,576.5,285.2,574,285.2z"/>
		<path d="M586.7,287.3c-0.5,0-1-0.4-1-1c0-0.6,0.5-0.9,0.6-0.9c0,0-0.1,0-0.3,0c-1.8,0-2.8,2.1-2.8,4.5v3.7c0,0.9,0,1.1,1.8,1.1
			h0.5v0.7c-1-0.1-2.1-0.1-3-0.1l-2.7,0.1v-0.7c1.6,0,1.9,0,1.9-1.1v-6.4c0-1.2-0.2-1.3-1.9-1.3v-0.7l3.3-0.3v2.6
			c0.3-1,1.2-2.6,3-2.6c1,0,1.8,0.7,1.8,1.5C587.7,287,587.1,287.3,586.7,287.3z"/>
		<path d="M591.8,295.3l-2.6,0.1v-0.7c1.6,0,1.9,0,1.9-1.1v-6.5c0-1.2-0.2-1.3-1.8-1.3v-0.7l3.4-0.3v8.8c0,0.9,0.1,1.1,1.7,1.1v0.7
			C593.5,295.4,592.7,295.3,591.8,295.3z M591.7,282.2c-0.7,0-1.3-0.6-1.3-1.3c0-0.6,0.5-1.3,1.3-1.3c0.7,0,1.3,0.6,1.3,1.3
			C593,281.5,592.5,282.2,591.7,282.2z"/>
		<path d="M601,295.7c-2.8,0-5.3-2.3-5.3-5.4c0-3,2.3-5.6,5.3-5.6c2.9,0,5.3,2.5,5.3,5.6C606.4,293.3,603.9,295.7,601,295.7z
			 M603.7,286.7c-0.6-1-1.7-1.6-2.7-1.6c-1,0-2.1,0.5-2.7,1.6c-0.6,1.1-0.6,2.4-0.6,3.3c0,0.9,0,2.3,0.6,3.4
			c0.6,1.1,1.7,1.6,2.7,1.6c1.2,0,2.3-0.7,2.8-1.8c0.5-1.1,0.5-2.4,0.5-3.2C604.4,289.2,604.4,287.8,603.7,286.7z"/>
		<path d="M616.2,295.7v-1.6c-0.6,0.8-1.7,1.6-3.2,1.6c-2.7,0-5.1-2.4-5.1-5.4c0-3.1,2.5-5.4,5.4-5.4c1.3,0,2.3,0.6,3,1.5v-5.2
			c0-1.2-0.2-1.3-1.9-1.3V279l3.5-0.3v14.6c0,1.2,0.2,1.3,1.9,1.3v0.7L616.2,295.7z M616.2,287.7c0-0.4,0-0.5-0.3-0.9
			c-0.7-1.1-1.8-1.4-2.6-1.4c-1.3,0-2.2,0.8-2.7,1.5c-0.7,1.1-0.7,2.5-0.7,3.4c0,1,0.1,2.4,0.7,3.3c0.6,0.9,1.4,1.5,2.5,1.5
			c1,0,2.1-0.5,2.8-1.7c0.3-0.4,0.3-0.5,0.3-0.9V287.7z"/>
		<path d="M623.8,295.3l-2.6,0.1v-0.7c1.6,0,1.9,0,1.9-1.1v-6.5c0-1.2-0.2-1.3-1.8-1.3v-0.7l3.4-0.3v8.8c0,0.9,0.1,1.1,1.7,1.1v0.7
			C625.5,295.4,624.7,295.3,623.8,295.3z M623.7,282.2c-0.7,0-1.3-0.6-1.3-1.3c0-0.6,0.5-1.3,1.3-1.3c0.7,0,1.3,0.6,1.3,1.3
			C625,281.5,624.5,282.2,623.7,282.2z"/>
		<path d="M633,295.7c-2.8,0-5.2-2.4-5.2-5.4c0-3,2.2-5.6,5.2-5.6c1.8,0,3.7,0.9,3.7,2.6c0,0.7-0.5,1.1-1.1,1.1
			c-0.7,0-1.1-0.5-1.1-1.1c0-0.3,0.1-1,1.1-1.1c-0.8-0.9-2.4-0.9-2.6-0.9c-1.3,0-3.2,1-3.2,4.9c0,3.9,2.1,4.9,3.4,4.9
			c0.9,0,2.4-0.3,3.1-2.5c0-0.1,0.1-0.2,0.3-0.2c0.1,0,0.3,0,0.3,0.2C637,292.8,636.3,295.7,633,295.7z"/>
	</g>
	<g>
		<path d="M117.4,196.5l-1.3,0v-0.4c0.8,0,0.9,0,0.9-0.5v-3.2c0-0.6-0.1-0.7-0.9-0.7v-0.4l1.7-0.1v4.4c0,0.5,0,0.5,0.8,0.5v0.4
			C118.2,196.5,117.8,196.5,117.4,196.5z M117.3,189.9c-0.4,0-0.6-0.3-0.6-0.6c0-0.3,0.2-0.6,0.6-0.6c0.4,0,0.6,0.3,0.6,0.6
			C118,189.6,117.7,189.9,117.3,189.9z"/>
		<path d="M124.1,196.5l-1.4,0v-0.4c0.8,0,0.9,0,0.9-0.5v-2.8c0-0.7-0.1-1.3-0.9-1.3c-0.8,0-1.6,0.7-1.6,1.9v2.2
			c0,0.5,0.1,0.5,0.9,0.5v0.4l-1.3,0l-1.4,0v-0.4c0.8,0,0.9,0,0.9-0.5v-3.2c0-0.6-0.1-0.7-0.9-0.7v-0.4l1.7-0.1v1.3
			c0.3-0.7,0.9-1.3,1.8-1.3c0.7,0,1.1,0.2,1.3,0.4c0.4,0.4,0.4,0.8,0.4,1.8v2.3c0,0.4,0.3,0.4,0.9,0.4v0.4L124.1,196.5z"/>
		<path d="M127.4,196.5l-1.3,0v-0.4c0.8,0,0.9,0,0.9-0.5v-6.2c0-0.6-0.1-0.7-0.9-0.7v-0.4l1.7-0.1v7.4c0,0.5,0.1,0.5,0.9,0.5v0.4
			L127.4,196.5z"/>
		<path d="M132,196.7c-1.4,0-2.6-1.2-2.6-2.8c0-1.5,1.1-2.7,2.5-2.7c1.5,0,2.1,1.2,2.1,2.4c0,0.3,0,0.3-0.3,0.3h-3.3
			c0,0.4,0,1.2,0.4,1.8c0.3,0.4,0.8,0.8,1.4,0.8c0.1,0,1.2,0,1.6-1.2c0-0.1,0-0.2,0.2-0.2c0.1,0,0.2,0,0.2,0.1
			C134,195.3,133.4,196.7,132,196.7z M131.8,191.4c-0.4,0-1.4,0.3-1.5,2.1h2.8C133.2,193.1,133.1,191.4,131.8,191.4z"/>
		<path d="M137.1,196.7c-0.4,0-1.5-0.1-1.5-1.6v-3.3h-1v-0.3c1.2,0,1.5-1.3,1.5-2.3h0.3v2.2h1.7v0.4h-1.7v3.3c0,0.2,0,1.3,0.8,1.3
			c0.4,0,0.8-0.5,0.8-1.3v-0.7h0.3v0.7C138.3,195.8,138,196.7,137.1,196.7z"/>
	</g>
	<g>
		<path class="st9" d="M110.5,194v-2.2c-0.7,1.5-1.8,2.2-3.1,2.2c-3.6,0-3.6-2.2-3.6-4.1v-3.6c0-2.1,0-2.2-1.9-2.2v-0.7l3.5-0.3v8
			c0,1.2,0.1,2.4,2.1,2.4c1.8,0,2.9-1.6,2.9-3.7v-4.3c0-1.2-0.2-1.3-1.9-1.3v-0.7l3.5-0.3v8.5c0,1.2,0.2,1.3,1.9,1.3v0.7L110.5,194z
			"/>
	</g>
	<g>
		<path d="M82,123.9c-0.6,0-0.9-0.5-0.9-1c-0.2,0.6-0.8,1-1.6,1c-0.8,0-1.9-0.3-1.9-1.3c0-0.5,0.3-1.2,1.2-1.6
			c0.8-0.4,1.6-0.4,2.2-0.4v-0.4c0-1.1-0.7-1.5-1.3-1.5c-0.4,0-1,0.1-1.3,0.6c0.6,0,0.6,0.4,0.6,0.6c0,0.3-0.2,0.6-0.6,0.6
			c-0.3,0-0.6-0.2-0.6-0.6c0-0.8,0.8-1.4,1.8-1.4c0.6,0,1.2,0.2,1.6,0.7c0.4,0.4,0.4,0.9,0.4,1.4v2.4c0,0.1,0,0.6,0.4,0.6
			c0.1,0,0.4-0.1,0.4-0.8V122H83v0.7C83,123.7,82.2,123.9,82,123.9z M81,120.9c-2,0.1-2.5,1.1-2.5,1.7c0,0.6,0.5,1,1.1,1
			c0.5,0,1.4-0.4,1.4-1.5V120.9z"/>
		<path d="M84.9,123.7l-1.3,0v-0.4c0.8,0,0.9,0,0.9-0.5v-3.2c0-0.6-0.1-0.7-0.9-0.7v-0.4l1.7-0.1v4.4c0,0.5,0,0.5,0.8,0.5v0.4
			C85.7,123.8,85.3,123.7,84.9,123.7z M84.8,117.2c-0.4,0-0.6-0.3-0.6-0.6c0-0.3,0.2-0.6,0.6-0.6c0.4,0,0.6,0.3,0.6,0.6
			C85.5,116.8,85.2,117.2,84.8,117.2z"/>
		<path d="M90.4,119.7c-0.3,0-0.5-0.2-0.5-0.5c0-0.3,0.2-0.5,0.3-0.5c0,0,0,0-0.1,0c-0.9,0-1.4,1.1-1.4,2.3v1.8c0,0.4,0,0.6,0.9,0.6
			h0.3v0.4c-0.5,0-1,0-1.5,0l-1.4,0v-0.4c0.8,0,0.9,0,0.9-0.5v-3.2c0-0.6-0.1-0.7-0.9-0.7v-0.4l1.7-0.1v1.3c0.2-0.5,0.6-1.3,1.5-1.3
			c0.5,0,0.9,0.3,0.9,0.7S90.6,119.7,90.4,119.7z"/>
	</g>
	<g>
		<path class="st9" d="M72,121.3v-2.2c-0.7,1.5-1.8,2.2-3.1,2.2c-3.6,0-3.6-2.2-3.6-4.1v-3.6c0-2.1,0-2.2-1.9-2.2v-0.7l3.5-0.3v8
			c0,1.2,0.1,2.4,2.1,2.4c1.8,0,2.9-1.6,2.9-3.7v-4.3c0-1.2-0.2-1.3-1.9-1.3v-0.7l3.5-0.3v8.5c0,1.2,0.2,1.3,1.9,1.3v0.7L72,121.3z"
			/>
	</g>
	<g>
		<path d="M83.5,265c-0.6,0-0.9-0.5-0.9-1c-0.2,0.6-0.8,1-1.6,1c-0.8,0-1.9-0.3-1.9-1.3c0-0.5,0.3-1.2,1.2-1.6
			c0.8-0.4,1.6-0.4,2.2-0.4v-0.4c0-1.1-0.7-1.5-1.3-1.5c-0.4,0-1,0.1-1.3,0.6c0.6,0,0.6,0.4,0.6,0.6c0,0.3-0.2,0.6-0.6,0.6
			c-0.3,0-0.6-0.2-0.6-0.6c0-0.8,0.8-1.4,1.8-1.4c0.6,0,1.2,0.2,1.6,0.7c0.4,0.4,0.4,0.9,0.4,1.4v2.4c0,0.1,0,0.6,0.4,0.6
			c0.1,0,0.4-0.1,0.4-0.8v-0.7h0.3v0.7C84.5,264.8,83.8,265,83.5,265z M82.5,262c-2,0.1-2.5,1.1-2.5,1.7c0,0.6,0.5,1,1.1,1
			c0.5,0,1.4-0.4,1.4-1.5V262z"/>
		<path d="M86.4,264.9l-1.3,0v-0.4c0.8,0,0.9,0,0.9-0.5v-3.2c0-0.6-0.1-0.7-0.9-0.7v-0.4l1.7-0.1v4.4c0,0.5,0,0.5,0.8,0.5v0.4
			C87.3,264.9,86.8,264.9,86.4,264.9z M86.4,258.3c-0.4,0-0.6-0.3-0.6-0.6c0-0.3,0.2-0.6,0.6-0.6c0.4,0,0.6,0.3,0.6,0.6
			C87,258,86.8,258.3,86.4,258.3z"/>
		<path d="M91.9,260.9c-0.3,0-0.5-0.2-0.5-0.5c0-0.3,0.2-0.5,0.3-0.5c0,0,0,0-0.1,0c-0.9,0-1.4,1.1-1.4,2.3v1.8c0,0.4,0,0.6,0.9,0.6
			h0.3v0.4c-0.5,0-1,0-1.5,0l-1.4,0v-0.4c0.8,0,0.9,0,0.9-0.5v-3.2c0-0.6-0.1-0.7-0.9-0.7v-0.4l1.7-0.1v1.3c0.2-0.5,0.6-1.3,1.5-1.3
			c0.5,0,0.9,0.3,0.9,0.7S92.1,260.9,91.9,260.9z"/>
	</g>
	<g>
		<path class="st9" d="M73.6,262.4v-2.2c-0.7,1.5-1.8,2.2-3.1,2.2c-3.6,0-3.6-2.2-3.6-4.1v-3.6c0-2.1,0-2.2-1.9-2.2v-0.7l3.5-0.3v8
			c0,1.2,0.1,2.4,2.1,2.4c1.8,0,2.9-1.6,2.9-3.7v-4.3c0-1.2-0.2-1.3-1.9-1.3v-0.7l3.5-0.3v8.5c0,1.2,0.2,1.3,1.9,1.3v0.7L73.6,262.4
			z"/>
	</g>
</g>
<g id="Calque_9">
	<g>
		<g>
			<line class="st10" x1="39.7" y1="327.3" x2="39.7" y2="355.2"/>
			<g>
				<polygon class="st11" points="39.7,320.2 35.6,330.2 39.7,327.8 43.8,330.2 				"/>
			</g>
		</g>
	</g>
	<g>
		<g>
			<line class="st10" x1="66.7" y1="354.2" x2="38.7" y2="354.2"/>
			<g>
				<polygon class="st11" points="73.7,354.2 63.8,350.2 66.1,354.2 63.8,358.3 				"/>
			</g>
		</g>
	</g>
	<g>
		<path class="st11" d="M82.8,356.7c-0.5,0-1.3-0.2-1.7-1.2c-0.3,0.5-0.9,1.2-1.8,1.2c-0.8,0-1.6-0.4-1.6-1.1c0-0.6,0.5-1,0.9-1
			c0.2,0,0.6,0.1,0.6,0.6c0,0.3-0.2,0.7-0.7,0.9c0.3,0.3,0.7,0.3,0.8,0.3c1.1,0,1.5-1.4,1.7-2.6l0.4-1.6c0.2-0.7,0.4-1.5,0.4-2
			c0-0.7-0.3-1.1-0.9-1.1c-0.7,0-1.7,0.7-2.1,2.3c-0.1,0.3-0.1,0.3-0.3,0.3c-0.1,0-0.3,0-0.3-0.2c0-0.4,1-2.8,2.8-2.8
			c0.5,0,1.3,0.1,1.7,1.2c0.2-0.3,0.8-1.2,1.8-1.2c0.5,0,1.6,0.2,1.6,1.1c0,0.7-0.6,1-0.9,1c-0.5,0-0.6-0.3-0.6-0.6
			c0,0,0-0.7,0.7-0.9c-0.3-0.3-0.7-0.3-0.8-0.3c-0.8,0-1.3,1-1.6,1.9l-0.6,2.5c-0.1,0.6-0.3,1.4-0.3,1.8c0,0.9,0.5,1.2,0.8,1.2
			c0.8,0,1.7-0.7,2.1-2.3c0.1-0.3,0.1-0.3,0.3-0.3c0.1,0,0.3,0,0.3,0.2C85.6,354.3,84.7,356.7,82.8,356.7z"/>
	</g>
	<g>
		<path class="st11" d="M48.5,328.6c-1,0-1.7-0.6-1.7-1.5c0-1,0.7-1.1,0.9-1.1c0.3,0,0.6,0.2,0.6,0.6c0,0.3-0.2,0.8-0.8,0.9
			c-0.1,0-0.1,0.1-0.1,0.1c0,0.1,0.3,0.8,1.1,0.8c0.9,0,2.2-0.8,2.9-3.8c-0.2,0.2-0.8,0.7-1.6,0.7c-1,0-2-0.5-2-2.1
			c0-0.9,0.5-2.3,0.9-3.5c0.3-0.7,0.4-1.2,0.4-1.6c0-0.5-0.2-0.5-0.4-0.5c-1,0-1.5,1.7-1.7,2.3c-0.1,0.3-0.1,0.3-0.3,0.3
			c-0.1,0-0.3,0-0.3-0.2c0-0.1,0.6-2.8,2.3-2.8c0.8,0,1.4,0.6,1.4,1.5c0,0.3-0.1,0.6-0.2,1c-0.5,1.2-1,2.8-1,3.9
			c0,0.6,0.2,1.4,1,1.4c1.1,0,1.8-1.1,1.9-1.6l1.3-5.3c0-0.1,0.2-0.7,0.7-0.7c0.4,0,0.5,0.3,0.5,0.5c0,0.1,0,0.1-0.1,0.3l-1.8,7.1
			C52,326.7,50.4,328.6,48.5,328.6z"/>
	</g>
</g>
<g id="Fluids_00000005228853529517031420000008014803970269336452_">
	<g>
		<path class="st12" d="M149,91.3c-0.3-2.5-0.7-3.5-3.4-3.5h-2.2c-0.8,0-0.9,0.1-0.9,0.7v4.6h1.5c1.7,0,1.9-0.6,1.9-2.1h0.5v4.8H146
			c0-1.5-0.2-2.1-1.9-2.1h-1.5v4.4c0,0.6,0,0.9,1.7,0.9h0.6v0.6c-0.6-0.1-2.3-0.1-3-0.1c-0.7,0-2.1,0-2.7,0.1V99h0.4
			c1.4,0,1.4-0.2,1.4-0.8v-9.4c0-0.6,0-0.8-1.4-0.8H139v-0.6h9.9l0.5,4.1H149z"/>
		<path class="st12" d="M152.8,99.5l-2,0.1V99c1.2,0,1.4,0,1.4-0.8v-9.4c0-0.9-0.1-1-1.4-1v-0.6l2.6-0.2v11.1c0,0.8,0.2,0.8,1.4,0.8
			v0.6L152.8,99.5z"/>
		<path class="st12" d="M162.3,99.7v-1.6c-0.5,1.1-1.3,1.6-2.3,1.6c-2.7,0-2.7-1.6-2.7-3V94c0-1.6,0-1.7-1.4-1.7v-0.6l2.6-0.2v6
			c0,0.9,0.1,1.8,1.6,1.8c1.3,0,2.2-1.2,2.2-2.8v-3.2c0-0.9-0.1-1-1.4-1v-0.6l2.6-0.2V98c0,0.9,0.1,1,1.4,1v0.6L162.3,99.7z"/>
		<path class="st12" d="M167.8,99.5l-2,0.1V99c1.2,0,1.4,0,1.4-0.8v-4.8c0-0.9-0.2-1-1.3-1v-0.6l2.5-0.2v6.6c0,0.7,0.1,0.8,1.3,0.8
			v0.6C169.1,99.5,168.4,99.5,167.8,99.5z M167.7,89.6c-0.5,0-1-0.5-1-1c0-0.4,0.4-1,1-1c0.5,0,1,0.5,1,1
			C168.7,89.1,168.3,89.6,167.7,89.6z"/>
		<path class="st12" d="M177.1,99.7v-1.2c-0.4,0.6-1.3,1.2-2.4,1.2c-2.1,0-3.8-1.8-3.8-4.1c0-2.3,1.9-4.1,4-4.1c1,0,1.7,0.5,2.3,1.1
			v-3.9c0-0.9-0.1-1-1.4-1v-0.6l2.6-0.2V98c0,0.9,0.1,1,1.4,1v0.6L177.1,99.7z M177.1,93.7c0-0.3,0-0.4-0.2-0.7
			c-0.6-0.8-1.3-1.1-1.9-1.1c-1,0-1.7,0.6-2,1.2c-0.5,0.8-0.6,1.9-0.6,2.6c0,0.7,0.1,1.8,0.5,2.5c0.4,0.7,1.1,1.2,1.9,1.2
			c0.8,0,1.6-0.4,2.1-1.3c0.2-0.3,0.2-0.3,0.2-0.7V93.7z"/>
		<path class="st12" d="M193.8,97.8c-0.8,1.7-2.2,2.1-3.1,2.1c-0.9,0-2.2-0.4-3-1.8c-0.7-1.4-0.8-3-0.8-4.3c0-1.4,0.1-2.8,0.7-4.1
			c0.7-1.7,2.1-2.1,3.1-2.1c0.8,0,2.2,0.3,3.1,2c0.6,1.3,0.7,2.8,0.7,4.2C194.5,95.2,194.4,96.6,193.8,97.8z M192.8,90
			c-0.3-1.8-1.5-2.1-2.1-2.1c-0.5,0-1.8,0.2-2.1,2.3c-0.1,1-0.1,2.2-0.1,3.3c0,1.1,0,2.7,0.2,3.8c0.3,1.7,1.4,2.2,2.1,2.2
			c0.8,0,1.8-0.5,2.1-2.3c0.2-1.2,0.2-2.4,0.2-3.7C193,92.4,193,91,192.8,90z"/>
	</g>
	<g>
		<path class="st13" d="M987.6,186.5c-0.3-2.5-0.7-3.5-3.4-3.5H982c-0.8,0-0.9,0.1-0.9,0.7v4.6h1.5c1.7,0,1.9-0.6,1.9-2.1h0.5v4.8
			h-0.5c0-1.5-0.2-2.1-1.9-2.1h-1.5v4.4c0,0.6,0,0.9,1.7,0.9h0.6v0.6c-0.6-0.1-2.3-0.1-3-0.1c-0.7,0-2.1,0-2.7,0.1v-0.6h0.4
			c1.4,0,1.4-0.2,1.4-0.8v-9.4c0-0.6,0-0.8-1.4-0.8h-0.4v-0.6h9.9l0.5,4.1H987.6z"/>
		<path class="st13" d="M991.4,194.6l-2,0.1v-0.6c1.2,0,1.4,0,1.4-0.8v-9.4c0-0.9-0.1-1-1.4-1v-0.6l2.6-0.2v11.1
			c0,0.8,0.2,0.8,1.4,0.8v0.6L991.4,194.6z"/>
		<path class="st13" d="M1000.8,194.9v-1.6c-0.5,1.1-1.3,1.6-2.3,1.6c-2.7,0-2.7-1.6-2.7-3v-2.7c0-1.6,0-1.7-1.4-1.7v-0.6l2.6-0.2v6
			c0,0.9,0.1,1.8,1.6,1.8c1.3,0,2.2-1.2,2.2-2.8v-3.2c0-0.9-0.1-1-1.4-1v-0.6l2.6-0.2v6.4c0,0.9,0.1,1,1.4,1v0.6L1000.8,194.9z"/>
		<path class="st13" d="M1006.4,194.6l-2,0.1v-0.6c1.2,0,1.4,0,1.4-0.8v-4.8c0-0.9-0.2-1-1.3-1v-0.6l2.5-0.2v6.6
			c0,0.7,0.1,0.8,1.3,0.8v0.6C1007.6,194.7,1007,194.6,1006.4,194.6z M1006.3,184.8c-0.5,0-1-0.5-1-1c0-0.4,0.4-1,1-1
			c0.5,0,1,0.5,1,1C1007.2,184.3,1006.9,184.8,1006.3,184.8z"/>
		<path class="st13" d="M1015.6,194.9v-1.2c-0.4,0.6-1.3,1.2-2.4,1.2c-2.1,0-3.8-1.8-3.8-4.1c0-2.3,1.9-4.1,4-4.1
			c1,0,1.7,0.5,2.3,1.1v-3.9c0-0.9-0.1-1-1.4-1v-0.6l2.6-0.2v10.9c0,0.9,0.1,1,1.4,1v0.6L1015.6,194.9z M1015.6,188.9
			c0-0.3,0-0.4-0.2-0.7c-0.6-0.8-1.3-1.1-1.9-1.1c-1,0-1.7,0.6-2,1.2c-0.5,0.8-0.6,1.9-0.6,2.6c0,0.7,0.1,1.8,0.5,2.5
			c0.4,0.7,1.1,1.2,1.9,1.2c0.8,0,1.6-0.4,2.1-1.3c0.2-0.3,0.2-0.3,0.2-0.7V188.9z"/>
		<path class="st13" d="M1029.4,194.6c-0.7,0-2.3,0-2.9,0.1v-0.6h0.6c1.6,0,1.7-0.2,1.7-0.9v-9.3c-0.9,0.5-2,0.5-2.4,0.5v-0.6
			c0.6,0,2.2,0,3.3-1.2c0.4,0,0.4,0,0.4,0.5v10.1c0,0.7,0.1,0.9,1.7,0.9h0.6v0.6C1031.7,194.6,1030.1,194.6,1029.4,194.6z"/>
	</g>
</g>
</svg>
