<?xml version="1.0" encoding="utf-8" standalone="no"?>
<!DOCTYPE svg PUBLIC "-//W3C//DTD SVG 1.1//EN"
  "http://www.w3.org/Graphics/SVG/1.1/DTD/svg11.dtd">
<svg xmlns:xlink="http://www.w3.org/1999/xlink" width="541.94375pt" height="277.314375pt" viewBox="0 0 541.94375 277.314375" xmlns="http://www.w3.org/2000/svg" version="1.1">
 <metadata>
  <rdf:RDF xmlns:dc="http://purl.org/dc/elements/1.1/" xmlns:cc="http://creativecommons.org/ns#" xmlns:rdf="http://www.w3.org/1999/02/22-rdf-syntax-ns#">
   <cc:Work>
    <dc:type rdf:resource="http://purl.org/dc/dcmitype/StillImage"/>
    <dc:date>2023-12-13T17:01:58.744412</dc:date>
    <dc:format>image/svg+xml</dc:format>
    <dc:creator>
     <cc:Agent>
      <dc:title>Matplotlib v3.7.4, https://matplotlib.org/</dc:title>
     </cc:Agent>
    </dc:creator>
   </cc:Work>
  </rdf:RDF>
 </metadata>
 <defs>
  <style type="text/css">*{stroke-linejoin: round; stroke-linecap: butt}</style>
 </defs>
 <g id="figure_1">
  <g id="patch_1">
   <path d="M 0 277.314375 
L 541.94375 277.314375 
L 541.94375 0 
L 0 0 
z
" style="fill: #ffffff"/>
  </g>
  <g id="axes_1">
   <g id="patch_2">
    <path d="M 45.478125 239.758125 
L 380.278125 239.758125 
L 380.278125 22.318125 
L 45.478125 22.318125 
z
" style="fill: #ffffff"/>
   </g>
   <g id="matplotlib.axis_1">
    <g id="xtick_1">
     <g id="line2d_1">
      <path d="M 60.696307 239.758125 
L 60.696307 22.318125 
" clip-path="url(#pdb1cd89ff5)" style="fill: none; stroke: #b0b0b0; stroke-width: 0.8; stroke-linecap: square"/>
     </g>
     <g id="line2d_2">
      <defs>
       <path id="mb1fc348d77" d="M 0 0 
L 0 3.5 
" style="stroke: #000000; stroke-width: 0.8"/>
      </defs>
      <g>
       <use xlink:href="#mb1fc348d77" x="60.696307" y="239.758125" style="stroke: #000000; stroke-width: 0.8"/>
      </g>
     </g>
     <g id="text_1">
      <!-- 0.000 -->
      <g transform="translate(46.382244 254.356562) scale(0.1 -0.1)">
       <defs>
        <path id="DejaVuSans-30" d="M 2034 4250 
Q 1547 4250 1301 3770 
Q 1056 3291 1056 2328 
Q 1056 1369 1301 889 
Q 1547 409 2034 409 
Q 2525 409 2770 889 
Q 3016 1369 3016 2328 
Q 3016 3291 2770 3770 
Q 2525 4250 2034 4250 
z
M 2034 4750 
Q 2819 4750 3233 4129 
Q 3647 3509 3647 2328 
Q 3647 1150 3233 529 
Q 2819 -91 2034 -91 
Q 1250 -91 836 529 
Q 422 1150 422 2328 
Q 422 3509 836 4129 
Q 1250 4750 2034 4750 
z
" transform="scale(0.015625)"/>
        <path id="DejaVuSans-2e" d="M 684 794 
L 1344 794 
L 1344 0 
L 684 0 
L 684 794 
z
" transform="scale(0.015625)"/>
       </defs>
       <use xlink:href="#DejaVuSans-30"/>
       <use xlink:href="#DejaVuSans-2e" x="63.623047"/>
       <use xlink:href="#DejaVuSans-30" x="95.410156"/>
       <use xlink:href="#DejaVuSans-30" x="159.033203"/>
       <use xlink:href="#DejaVuSans-30" x="222.65625"/>
      </g>
     </g>
    </g>
    <g id="xtick_2">
     <g id="line2d_3">
      <path d="M 212.878125 239.758125 
L 212.878125 22.318125 
" clip-path="url(#pdb1cd89ff5)" style="fill: none; stroke: #b0b0b0; stroke-width: 0.8; stroke-linecap: square"/>
     </g>
     <g id="line2d_4">
      <g>
       <use xlink:href="#mb1fc348d77" x="212.878125" y="239.758125" style="stroke: #000000; stroke-width: 0.8"/>
      </g>
     </g>
     <g id="text_2">
      <!-- 0.002 -->
      <g transform="translate(198.564063 254.356562) scale(0.1 -0.1)">
       <defs>
        <path id="DejaVuSans-32" d="M 1228 531 
L 3431 531 
L 3431 0 
L 469 0 
L 469 531 
Q 828 903 1448 1529 
Q 2069 2156 2228 2338 
Q 2531 2678 2651 2914 
Q 2772 3150 2772 3378 
Q 2772 3750 2511 3984 
Q 2250 4219 1831 4219 
Q 1534 4219 1204 4116 
Q 875 4013 500 3803 
L 500 4441 
Q 881 4594 1212 4672 
Q 1544 4750 1819 4750 
Q 2544 4750 2975 4387 
Q 3406 4025 3406 3419 
Q 3406 3131 3298 2873 
Q 3191 2616 2906 2266 
Q 2828 2175 2409 1742 
Q 1991 1309 1228 531 
z
" transform="scale(0.015625)"/>
       </defs>
       <use xlink:href="#DejaVuSans-30"/>
       <use xlink:href="#DejaVuSans-2e" x="63.623047"/>
       <use xlink:href="#DejaVuSans-30" x="95.410156"/>
       <use xlink:href="#DejaVuSans-30" x="159.033203"/>
       <use xlink:href="#DejaVuSans-32" x="222.65625"/>
      </g>
     </g>
    </g>
    <g id="xtick_3">
     <g id="line2d_5">
      <path d="M 365.059943 239.758125 
L 365.059943 22.318125 
" clip-path="url(#pdb1cd89ff5)" style="fill: none; stroke: #b0b0b0; stroke-width: 0.8; stroke-linecap: square"/>
     </g>
     <g id="line2d_6">
      <g>
       <use xlink:href="#mb1fc348d77" x="365.059943" y="239.758125" style="stroke: #000000; stroke-width: 0.8"/>
      </g>
     </g>
     <g id="text_3">
      <!-- 0.004 -->
      <g transform="translate(350.745881 254.356562) scale(0.1 -0.1)">
       <defs>
        <path id="DejaVuSans-34" d="M 2419 4116 
L 825 1625 
L 2419 1625 
L 2419 4116 
z
M 2253 4666 
L 3047 4666 
L 3047 1625 
L 3713 1625 
L 3713 1100 
L 3047 1100 
L 3047 0 
L 2419 0 
L 2419 1100 
L 313 1100 
L 313 1709 
L 2253 4666 
z
" transform="scale(0.015625)"/>
       </defs>
       <use xlink:href="#DejaVuSans-30"/>
       <use xlink:href="#DejaVuSans-2e" x="63.623047"/>
       <use xlink:href="#DejaVuSans-30" x="95.410156"/>
       <use xlink:href="#DejaVuSans-30" x="159.033203"/>
       <use xlink:href="#DejaVuSans-34" x="222.65625"/>
      </g>
     </g>
    </g>
    <g id="text_4">
     <!-- Time (s) -->
     <g transform="translate(192.549219 268.034687) scale(0.1 -0.1)">
      <defs>
       <path id="DejaVuSans-54" d="M -19 4666 
L 3928 4666 
L 3928 4134 
L 2272 4134 
L 2272 0 
L 1638 0 
L 1638 4134 
L -19 4134 
L -19 4666 
z
" transform="scale(0.015625)"/>
       <path id="DejaVuSans-69" d="M 603 3500 
L 1178 3500 
L 1178 0 
L 603 0 
L 603 3500 
z
M 603 4863 
L 1178 4863 
L 1178 4134 
L 603 4134 
L 603 4863 
z
" transform="scale(0.015625)"/>
       <path id="DejaVuSans-6d" d="M 3328 2828 
Q 3544 3216 3844 3400 
Q 4144 3584 4550 3584 
Q 5097 3584 5394 3201 
Q 5691 2819 5691 2113 
L 5691 0 
L 5113 0 
L 5113 2094 
Q 5113 2597 4934 2840 
Q 4756 3084 4391 3084 
Q 3944 3084 3684 2787 
Q 3425 2491 3425 1978 
L 3425 0 
L 2847 0 
L 2847 2094 
Q 2847 2600 2669 2842 
Q 2491 3084 2119 3084 
Q 1678 3084 1418 2786 
Q 1159 2488 1159 1978 
L 1159 0 
L 581 0 
L 581 3500 
L 1159 3500 
L 1159 2956 
Q 1356 3278 1631 3431 
Q 1906 3584 2284 3584 
Q 2666 3584 2933 3390 
Q 3200 3197 3328 2828 
z
" transform="scale(0.015625)"/>
       <path id="DejaVuSans-65" d="M 3597 1894 
L 3597 1613 
L 953 1613 
Q 991 1019 1311 708 
Q 1631 397 2203 397 
Q 2534 397 2845 478 
Q 3156 559 3463 722 
L 3463 178 
Q 3153 47 2828 -22 
Q 2503 -91 2169 -91 
Q 1331 -91 842 396 
Q 353 884 353 1716 
Q 353 2575 817 3079 
Q 1281 3584 2069 3584 
Q 2775 3584 3186 3129 
Q 3597 2675 3597 1894 
z
M 3022 2063 
Q 3016 2534 2758 2815 
Q 2500 3097 2075 3097 
Q 1594 3097 1305 2825 
Q 1016 2553 972 2059 
L 3022 2063 
z
" transform="scale(0.015625)"/>
       <path id="DejaVuSans-20" transform="scale(0.015625)"/>
       <path id="DejaVuSans-28" d="M 1984 4856 
Q 1566 4138 1362 3434 
Q 1159 2731 1159 2009 
Q 1159 1288 1364 580 
Q 1569 -128 1984 -844 
L 1484 -844 
Q 1016 -109 783 600 
Q 550 1309 550 2009 
Q 550 2706 781 3412 
Q 1013 4119 1484 4856 
L 1984 4856 
z
" transform="scale(0.015625)"/>
       <path id="DejaVuSans-73" d="M 2834 3397 
L 2834 2853 
Q 2591 2978 2328 3040 
Q 2066 3103 1784 3103 
Q 1356 3103 1142 2972 
Q 928 2841 928 2578 
Q 928 2378 1081 2264 
Q 1234 2150 1697 2047 
L 1894 2003 
Q 2506 1872 2764 1633 
Q 3022 1394 3022 966 
Q 3022 478 2636 193 
Q 2250 -91 1575 -91 
Q 1294 -91 989 -36 
Q 684 19 347 128 
L 347 722 
Q 666 556 975 473 
Q 1284 391 1588 391 
Q 1994 391 2212 530 
Q 2431 669 2431 922 
Q 2431 1156 2273 1281 
Q 2116 1406 1581 1522 
L 1381 1569 
Q 847 1681 609 1914 
Q 372 2147 372 2553 
Q 372 3047 722 3315 
Q 1072 3584 1716 3584 
Q 2034 3584 2315 3537 
Q 2597 3491 2834 3397 
z
" transform="scale(0.015625)"/>
       <path id="DejaVuSans-29" d="M 513 4856 
L 1013 4856 
Q 1481 4119 1714 3412 
Q 1947 2706 1947 2009 
Q 1947 1309 1714 600 
Q 1481 -109 1013 -844 
L 513 -844 
Q 928 -128 1133 580 
Q 1338 1288 1338 2009 
Q 1338 2731 1133 3434 
Q 928 4138 513 4856 
z
" transform="scale(0.015625)"/>
      </defs>
      <use xlink:href="#DejaVuSans-54"/>
      <use xlink:href="#DejaVuSans-69" x="57.958984"/>
      <use xlink:href="#DejaVuSans-6d" x="85.742188"/>
      <use xlink:href="#DejaVuSans-65" x="183.154297"/>
      <use xlink:href="#DejaVuSans-20" x="244.677734"/>
      <use xlink:href="#DejaVuSans-28" x="276.464844"/>
      <use xlink:href="#DejaVuSans-73" x="315.478516"/>
      <use xlink:href="#DejaVuSans-29" x="367.578125"/>
     </g>
    </g>
   </g>
   <g id="matplotlib.axis_2">
    <g id="ytick_1">
     <g id="line2d_7">
      <path d="M 45.478125 229.874489 
L 380.278125 229.874489 
" clip-path="url(#pdb1cd89ff5)" style="fill: none; stroke: #b0b0b0; stroke-width: 0.8; stroke-linecap: square"/>
     </g>
     <g id="line2d_8">
      <defs>
       <path id="m3bccab49c1" d="M 0 0 
L -3.5 0 
" style="stroke: #000000; stroke-width: 0.8"/>
      </defs>
      <g>
       <use xlink:href="#m3bccab49c1" x="45.478125" y="229.874489" style="stroke: #000000; stroke-width: 0.8"/>
      </g>
     </g>
     <g id="text_5">
      <!-- $\mathdefault{10^{0}}$ -->
      <g transform="translate(20.878125 233.673707) scale(0.1 -0.1)">
       <defs>
        <path id="DejaVuSans-31" d="M 794 531 
L 1825 531 
L 1825 4091 
L 703 3866 
L 703 4441 
L 1819 4666 
L 2450 4666 
L 2450 531 
L 3481 531 
L 3481 0 
L 794 0 
L 794 531 
z
" transform="scale(0.015625)"/>
       </defs>
       <use xlink:href="#DejaVuSans-31" transform="translate(0 0.765625)"/>
       <use xlink:href="#DejaVuSans-30" transform="translate(63.623047 0.765625)"/>
       <use xlink:href="#DejaVuSans-30" transform="translate(128.203125 39.046875) scale(0.7)"/>
      </g>
     </g>
    </g>
    <g id="ytick_2">
     <g id="line2d_9">
      <path d="M 45.478125 167.551679 
L 380.278125 167.551679 
" clip-path="url(#pdb1cd89ff5)" style="fill: none; stroke: #b0b0b0; stroke-width: 0.8; stroke-linecap: square"/>
     </g>
     <g id="line2d_10">
      <g>
       <use xlink:href="#m3bccab49c1" x="45.478125" y="167.551679" style="stroke: #000000; stroke-width: 0.8"/>
      </g>
     </g>
     <g id="text_6">
      <!-- $\mathdefault{10^{1}}$ -->
      <g transform="translate(20.878125 171.350898) scale(0.1 -0.1)">
       <use xlink:href="#DejaVuSans-31" transform="translate(0 0.684375)"/>
       <use xlink:href="#DejaVuSans-30" transform="translate(63.623047 0.684375)"/>
       <use xlink:href="#DejaVuSans-31" transform="translate(128.203125 38.965625) scale(0.7)"/>
      </g>
     </g>
    </g>
    <g id="ytick_3">
     <g id="line2d_11">
      <path d="M 45.478125 105.228869 
L 380.278125 105.228869 
" clip-path="url(#pdb1cd89ff5)" style="fill: none; stroke: #b0b0b0; stroke-width: 0.8; stroke-linecap: square"/>
     </g>
     <g id="line2d_12">
      <g>
       <use xlink:href="#m3bccab49c1" x="45.478125" y="105.228869" style="stroke: #000000; stroke-width: 0.8"/>
      </g>
     </g>
     <g id="text_7">
      <!-- $\mathdefault{10^{2}}$ -->
      <g transform="translate(20.878125 109.028088) scale(0.1 -0.1)">
       <use xlink:href="#DejaVuSans-31" transform="translate(0 0.765625)"/>
       <use xlink:href="#DejaVuSans-30" transform="translate(63.623047 0.765625)"/>
       <use xlink:href="#DejaVuSans-32" transform="translate(128.203125 39.046875) scale(0.7)"/>
      </g>
     </g>
    </g>
    <g id="ytick_4">
     <g id="line2d_13">
      <path d="M 45.478125 42.906059 
L 380.278125 42.906059 
" clip-path="url(#pdb1cd89ff5)" style="fill: none; stroke: #b0b0b0; stroke-width: 0.8; stroke-linecap: square"/>
     </g>
     <g id="line2d_14">
      <g>
       <use xlink:href="#m3bccab49c1" x="45.478125" y="42.906059" style="stroke: #000000; stroke-width: 0.8"/>
      </g>
     </g>
     <g id="text_8">
      <!-- $\mathdefault{10^{3}}$ -->
      <g transform="translate(20.878125 46.705278) scale(0.1 -0.1)">
       <defs>
        <path id="DejaVuSans-33" d="M 2597 2516 
Q 3050 2419 3304 2112 
Q 3559 1806 3559 1356 
Q 3559 666 3084 287 
Q 2609 -91 1734 -91 
Q 1441 -91 1130 -33 
Q 819 25 488 141 
L 488 750 
Q 750 597 1062 519 
Q 1375 441 1716 441 
Q 2309 441 2620 675 
Q 2931 909 2931 1356 
Q 2931 1769 2642 2001 
Q 2353 2234 1838 2234 
L 1294 2234 
L 1294 2753 
L 1863 2753 
Q 2328 2753 2575 2939 
Q 2822 3125 2822 3475 
Q 2822 3834 2567 4026 
Q 2313 4219 1838 4219 
Q 1578 4219 1281 4162 
Q 984 4106 628 3988 
L 628 4550 
Q 988 4650 1302 4700 
Q 1616 4750 1894 4750 
Q 2613 4750 3031 4423 
Q 3450 4097 3450 3541 
Q 3450 3153 3228 2886 
Q 3006 2619 2597 2516 
z
" transform="scale(0.015625)"/>
       </defs>
       <use xlink:href="#DejaVuSans-31" transform="translate(0 0.765625)"/>
       <use xlink:href="#DejaVuSans-30" transform="translate(63.623047 0.765625)"/>
       <use xlink:href="#DejaVuSans-33" transform="translate(128.203125 39.046875) scale(0.7)"/>
      </g>
     </g>
    </g>
    <g id="ytick_5">
     <g id="line2d_15">
      <path d="M 45.478125 239.528414 
L 380.278125 239.528414 
" clip-path="url(#pdb1cd89ff5)" style="fill: none; stroke: #b0b0b0; stroke-width: 0.8; stroke-linecap: square"/>
     </g>
     <g id="line2d_16">
      <defs>
       <path id="ma50edb4521" d="M 0 0 
L -2 0 
" style="stroke: #000000; stroke-width: 0.6"/>
      </defs>
      <g>
       <use xlink:href="#ma50edb4521" x="45.478125" y="239.528414" style="stroke: #000000; stroke-width: 0.6"/>
      </g>
     </g>
    </g>
    <g id="ytick_6">
     <g id="line2d_17">
      <path d="M 45.478125 235.914193 
L 380.278125 235.914193 
" clip-path="url(#pdb1cd89ff5)" style="fill: none; stroke: #b0b0b0; stroke-width: 0.8; stroke-linecap: square"/>
     </g>
     <g id="line2d_18">
      <g>
       <use xlink:href="#ma50edb4521" x="45.478125" y="235.914193" style="stroke: #000000; stroke-width: 0.6"/>
      </g>
     </g>
    </g>
    <g id="ytick_7">
     <g id="line2d_19">
      <path d="M 45.478125 232.726224 
L 380.278125 232.726224 
" clip-path="url(#pdb1cd89ff5)" style="fill: none; stroke: #b0b0b0; stroke-width: 0.8; stroke-linecap: square"/>
     </g>
     <g id="line2d_20">
      <g>
       <use xlink:href="#ma50edb4521" x="45.478125" y="232.726224" style="stroke: #000000; stroke-width: 0.6"/>
      </g>
     </g>
    </g>
    <g id="ytick_8">
     <g id="line2d_21">
      <path d="M 45.478125 211.113453 
L 380.278125 211.113453 
" clip-path="url(#pdb1cd89ff5)" style="fill: none; stroke: #b0b0b0; stroke-width: 0.8; stroke-linecap: square"/>
     </g>
     <g id="line2d_22">
      <g>
       <use xlink:href="#ma50edb4521" x="45.478125" y="211.113453" style="stroke: #000000; stroke-width: 0.6"/>
      </g>
     </g>
    </g>
    <g id="ytick_9">
     <g id="line2d_23">
      <path d="M 45.478125 200.138951 
L 380.278125 200.138951 
" clip-path="url(#pdb1cd89ff5)" style="fill: none; stroke: #b0b0b0; stroke-width: 0.8; stroke-linecap: square"/>
     </g>
     <g id="line2d_24">
      <g>
       <use xlink:href="#ma50edb4521" x="45.478125" y="200.138951" style="stroke: #000000; stroke-width: 0.6"/>
      </g>
     </g>
    </g>
    <g id="ytick_10">
     <g id="line2d_25">
      <path d="M 45.478125 192.352418 
L 380.278125 192.352418 
" clip-path="url(#pdb1cd89ff5)" style="fill: none; stroke: #b0b0b0; stroke-width: 0.8; stroke-linecap: square"/>
     </g>
     <g id="line2d_26">
      <g>
       <use xlink:href="#ma50edb4521" x="45.478125" y="192.352418" style="stroke: #000000; stroke-width: 0.6"/>
      </g>
     </g>
    </g>
    <g id="ytick_11">
     <g id="line2d_27">
      <path d="M 45.478125 186.312714 
L 380.278125 186.312714 
" clip-path="url(#pdb1cd89ff5)" style="fill: none; stroke: #b0b0b0; stroke-width: 0.8; stroke-linecap: square"/>
     </g>
     <g id="line2d_28">
      <g>
       <use xlink:href="#ma50edb4521" x="45.478125" y="186.312714" style="stroke: #000000; stroke-width: 0.6"/>
      </g>
     </g>
    </g>
    <g id="ytick_12">
     <g id="line2d_29">
      <path d="M 45.478125 181.377916 
L 380.278125 181.377916 
" clip-path="url(#pdb1cd89ff5)" style="fill: none; stroke: #b0b0b0; stroke-width: 0.8; stroke-linecap: square"/>
     </g>
     <g id="line2d_30">
      <g>
       <use xlink:href="#ma50edb4521" x="45.478125" y="181.377916" style="stroke: #000000; stroke-width: 0.6"/>
      </g>
     </g>
    </g>
    <g id="ytick_13">
     <g id="line2d_31">
      <path d="M 45.478125 177.205604 
L 380.278125 177.205604 
" clip-path="url(#pdb1cd89ff5)" style="fill: none; stroke: #b0b0b0; stroke-width: 0.8; stroke-linecap: square"/>
     </g>
     <g id="line2d_32">
      <g>
       <use xlink:href="#ma50edb4521" x="45.478125" y="177.205604" style="stroke: #000000; stroke-width: 0.6"/>
      </g>
     </g>
    </g>
    <g id="ytick_14">
     <g id="line2d_33">
      <path d="M 45.478125 173.591383 
L 380.278125 173.591383 
" clip-path="url(#pdb1cd89ff5)" style="fill: none; stroke: #b0b0b0; stroke-width: 0.8; stroke-linecap: square"/>
     </g>
     <g id="line2d_34">
      <g>
       <use xlink:href="#ma50edb4521" x="45.478125" y="173.591383" style="stroke: #000000; stroke-width: 0.6"/>
      </g>
     </g>
    </g>
    <g id="ytick_15">
     <g id="line2d_35">
      <path d="M 45.478125 170.403414 
L 380.278125 170.403414 
" clip-path="url(#pdb1cd89ff5)" style="fill: none; stroke: #b0b0b0; stroke-width: 0.8; stroke-linecap: square"/>
     </g>
     <g id="line2d_36">
      <g>
       <use xlink:href="#ma50edb4521" x="45.478125" y="170.403414" style="stroke: #000000; stroke-width: 0.6"/>
      </g>
     </g>
    </g>
    <g id="ytick_16">
     <g id="line2d_37">
      <path d="M 45.478125 148.790644 
L 380.278125 148.790644 
" clip-path="url(#pdb1cd89ff5)" style="fill: none; stroke: #b0b0b0; stroke-width: 0.8; stroke-linecap: square"/>
     </g>
     <g id="line2d_38">
      <g>
       <use xlink:href="#ma50edb4521" x="45.478125" y="148.790644" style="stroke: #000000; stroke-width: 0.6"/>
      </g>
     </g>
    </g>
    <g id="ytick_17">
     <g id="line2d_39">
      <path d="M 45.478125 137.816142 
L 380.278125 137.816142 
" clip-path="url(#pdb1cd89ff5)" style="fill: none; stroke: #b0b0b0; stroke-width: 0.8; stroke-linecap: square"/>
     </g>
     <g id="line2d_40">
      <g>
       <use xlink:href="#ma50edb4521" x="45.478125" y="137.816142" style="stroke: #000000; stroke-width: 0.6"/>
      </g>
     </g>
    </g>
    <g id="ytick_18">
     <g id="line2d_41">
      <path d="M 45.478125 130.029609 
L 380.278125 130.029609 
" clip-path="url(#pdb1cd89ff5)" style="fill: none; stroke: #b0b0b0; stroke-width: 0.8; stroke-linecap: square"/>
     </g>
     <g id="line2d_42">
      <g>
       <use xlink:href="#ma50edb4521" x="45.478125" y="130.029609" style="stroke: #000000; stroke-width: 0.6"/>
      </g>
     </g>
    </g>
    <g id="ytick_19">
     <g id="line2d_43">
      <path d="M 45.478125 123.989904 
L 380.278125 123.989904 
" clip-path="url(#pdb1cd89ff5)" style="fill: none; stroke: #b0b0b0; stroke-width: 0.8; stroke-linecap: square"/>
     </g>
     <g id="line2d_44">
      <g>
       <use xlink:href="#ma50edb4521" x="45.478125" y="123.989904" style="stroke: #000000; stroke-width: 0.6"/>
      </g>
     </g>
    </g>
    <g id="ytick_20">
     <g id="line2d_45">
      <path d="M 45.478125 119.055107 
L 380.278125 119.055107 
" clip-path="url(#pdb1cd89ff5)" style="fill: none; stroke: #b0b0b0; stroke-width: 0.8; stroke-linecap: square"/>
     </g>
     <g id="line2d_46">
      <g>
       <use xlink:href="#ma50edb4521" x="45.478125" y="119.055107" style="stroke: #000000; stroke-width: 0.6"/>
      </g>
     </g>
    </g>
    <g id="ytick_21">
     <g id="line2d_47">
      <path d="M 45.478125 114.882795 
L 380.278125 114.882795 
" clip-path="url(#pdb1cd89ff5)" style="fill: none; stroke: #b0b0b0; stroke-width: 0.8; stroke-linecap: square"/>
     </g>
     <g id="line2d_48">
      <g>
       <use xlink:href="#ma50edb4521" x="45.478125" y="114.882795" style="stroke: #000000; stroke-width: 0.6"/>
      </g>
     </g>
    </g>
    <g id="ytick_22">
     <g id="line2d_49">
      <path d="M 45.478125 111.268573 
L 380.278125 111.268573 
" clip-path="url(#pdb1cd89ff5)" style="fill: none; stroke: #b0b0b0; stroke-width: 0.8; stroke-linecap: square"/>
     </g>
     <g id="line2d_50">
      <g>
       <use xlink:href="#ma50edb4521" x="45.478125" y="111.268573" style="stroke: #000000; stroke-width: 0.6"/>
      </g>
     </g>
    </g>
    <g id="ytick_23">
     <g id="line2d_51">
      <path d="M 45.478125 108.080605 
L 380.278125 108.080605 
" clip-path="url(#pdb1cd89ff5)" style="fill: none; stroke: #b0b0b0; stroke-width: 0.8; stroke-linecap: square"/>
     </g>
     <g id="line2d_52">
      <g>
       <use xlink:href="#ma50edb4521" x="45.478125" y="108.080605" style="stroke: #000000; stroke-width: 0.6"/>
      </g>
     </g>
    </g>
    <g id="ytick_24">
     <g id="line2d_53">
      <path d="M 45.478125 86.467834 
L 380.278125 86.467834 
" clip-path="url(#pdb1cd89ff5)" style="fill: none; stroke: #b0b0b0; stroke-width: 0.8; stroke-linecap: square"/>
     </g>
     <g id="line2d_54">
      <g>
       <use xlink:href="#ma50edb4521" x="45.478125" y="86.467834" style="stroke: #000000; stroke-width: 0.6"/>
      </g>
     </g>
    </g>
    <g id="ytick_25">
     <g id="line2d_55">
      <path d="M 45.478125 75.493332 
L 380.278125 75.493332 
" clip-path="url(#pdb1cd89ff5)" style="fill: none; stroke: #b0b0b0; stroke-width: 0.8; stroke-linecap: square"/>
     </g>
     <g id="line2d_56">
      <g>
       <use xlink:href="#ma50edb4521" x="45.478125" y="75.493332" style="stroke: #000000; stroke-width: 0.6"/>
      </g>
     </g>
    </g>
    <g id="ytick_26">
     <g id="line2d_57">
      <path d="M 45.478125 67.706799 
L 380.278125 67.706799 
" clip-path="url(#pdb1cd89ff5)" style="fill: none; stroke: #b0b0b0; stroke-width: 0.8; stroke-linecap: square"/>
     </g>
     <g id="line2d_58">
      <g>
       <use xlink:href="#ma50edb4521" x="45.478125" y="67.706799" style="stroke: #000000; stroke-width: 0.6"/>
      </g>
     </g>
    </g>
    <g id="ytick_27">
     <g id="line2d_59">
      <path d="M 45.478125 61.667095 
L 380.278125 61.667095 
" clip-path="url(#pdb1cd89ff5)" style="fill: none; stroke: #b0b0b0; stroke-width: 0.8; stroke-linecap: square"/>
     </g>
     <g id="line2d_60">
      <g>
       <use xlink:href="#ma50edb4521" x="45.478125" y="61.667095" style="stroke: #000000; stroke-width: 0.6"/>
      </g>
     </g>
    </g>
    <g id="ytick_28">
     <g id="line2d_61">
      <path d="M 45.478125 56.732297 
L 380.278125 56.732297 
" clip-path="url(#pdb1cd89ff5)" style="fill: none; stroke: #b0b0b0; stroke-width: 0.8; stroke-linecap: square"/>
     </g>
     <g id="line2d_62">
      <g>
       <use xlink:href="#ma50edb4521" x="45.478125" y="56.732297" style="stroke: #000000; stroke-width: 0.6"/>
      </g>
     </g>
    </g>
    <g id="ytick_29">
     <g id="line2d_63">
      <path d="M 45.478125 52.559985 
L 380.278125 52.559985 
" clip-path="url(#pdb1cd89ff5)" style="fill: none; stroke: #b0b0b0; stroke-width: 0.8; stroke-linecap: square"/>
     </g>
     <g id="line2d_64">
      <g>
       <use xlink:href="#ma50edb4521" x="45.478125" y="52.559985" style="stroke: #000000; stroke-width: 0.6"/>
      </g>
     </g>
    </g>
    <g id="ytick_30">
     <g id="line2d_65">
      <path d="M 45.478125 48.945764 
L 380.278125 48.945764 
" clip-path="url(#pdb1cd89ff5)" style="fill: none; stroke: #b0b0b0; stroke-width: 0.8; stroke-linecap: square"/>
     </g>
     <g id="line2d_66">
      <g>
       <use xlink:href="#ma50edb4521" x="45.478125" y="48.945764" style="stroke: #000000; stroke-width: 0.6"/>
      </g>
     </g>
    </g>
    <g id="ytick_31">
     <g id="line2d_67">
      <path d="M 45.478125 45.757795 
L 380.278125 45.757795 
" clip-path="url(#pdb1cd89ff5)" style="fill: none; stroke: #b0b0b0; stroke-width: 0.8; stroke-linecap: square"/>
     </g>
     <g id="line2d_68">
      <g>
       <use xlink:href="#ma50edb4521" x="45.478125" y="45.757795" style="stroke: #000000; stroke-width: 0.6"/>
      </g>
     </g>
    </g>
    <g id="ytick_32">
     <g id="line2d_69">
      <path d="M 45.478125 24.145024 
L 380.278125 24.145024 
" clip-path="url(#pdb1cd89ff5)" style="fill: none; stroke: #b0b0b0; stroke-width: 0.8; stroke-linecap: square"/>
     </g>
     <g id="line2d_70">
      <g>
       <use xlink:href="#ma50edb4521" x="45.478125" y="24.145024" style="stroke: #000000; stroke-width: 0.6"/>
      </g>
     </g>
    </g>
    <g id="text_9">
     <!-- [-] -->
     <g transform="translate(14.798438 136.743594) rotate(-90) scale(0.1 -0.1)">
      <defs>
       <path id="DejaVuSans-5b" d="M 550 4863 
L 1875 4863 
L 1875 4416 
L 1125 4416 
L 1125 -397 
L 1875 -397 
L 1875 -844 
L 550 -844 
L 550 4863 
z
" transform="scale(0.015625)"/>
       <path id="DejaVuSans-2d" d="M 313 2009 
L 1997 2009 
L 1997 1497 
L 313 1497 
L 313 2009 
z
" transform="scale(0.015625)"/>
       <path id="DejaVuSans-5d" d="M 1947 4863 
L 1947 -844 
L 622 -844 
L 622 -397 
L 1369 -397 
L 1369 4416 
L 622 4416 
L 622 4863 
L 1947 4863 
z
" transform="scale(0.015625)"/>
      </defs>
      <use xlink:href="#DejaVuSans-5b"/>
      <use xlink:href="#DejaVuSans-2d" x="39.013672"/>
      <use xlink:href="#DejaVuSans-5d" x="75.097656"/>
     </g>
    </g>
   </g>
   <g id="line2d_71">
    <path d="M 60.696307 205.487594 
L 68.305398 229.874489 
L 75.914489 224.155403 
L 83.52358 222.595603 
L 91.13267 222.029435 
L 98.741761 221.801552 
L 106.350852 221.713774 
L 113.959943 221.691719 
L 121.569034 221.703315 
L 129.178125 221.733244 
L 136.787216 221.773545 
L 144.396307 221.819773 
L 152.005398 221.869286 
L 159.614489 221.920434 
L 167.22358 221.972146 
L 174.83267 222.023709 
L 182.441761 222.074642 
L 190.050852 222.124621 
L 197.659943 222.173433 
L 205.269034 222.220946 
L 212.878125 222.267082 
L 220.487216 222.311806 
L 228.096307 222.355113 
L 235.705398 222.397021 
L 243.314489 222.437562 
L 250.92358 222.476779 
L 258.53267 222.514723 
L 266.141761 222.55145 
L 273.750852 222.587015 
L 281.359943 222.621478 
L 288.969034 222.654896 
L 296.578125 222.687326 
L 304.187216 222.718822 
L 311.796307 222.749439 
L 319.405398 222.779226 
L 327.014489 222.808232 
L 334.62358 222.836503 
L 342.23267 222.864082 
L 349.841761 222.89101 
L 357.450852 222.917325 
L 365.059943 222.943063 
" clip-path="url(#pdb1cd89ff5)" style="fill: none; stroke: #0000ff; stroke-width: 1.5; stroke-linecap: square"/>
    <defs>
     <path id="mfcb887fffd" d="M 0 0 
L -3 -0 
M 0 0 
L 1.5 2.4 
M 0 0 
L 1.5 -2.4 
" style="stroke: #0000ff"/>
    </defs>
    <g clip-path="url(#pdb1cd89ff5)">
     <use xlink:href="#mfcb887fffd" x="60.696307" y="205.487594" style="fill: #0000ff; stroke: #0000ff"/>
     <use xlink:href="#mfcb887fffd" x="68.305398" y="229.874489" style="fill: #0000ff; stroke: #0000ff"/>
     <use xlink:href="#mfcb887fffd" x="75.914489" y="224.155403" style="fill: #0000ff; stroke: #0000ff"/>
     <use xlink:href="#mfcb887fffd" x="83.52358" y="222.595603" style="fill: #0000ff; stroke: #0000ff"/>
     <use xlink:href="#mfcb887fffd" x="91.13267" y="222.029435" style="fill: #0000ff; stroke: #0000ff"/>
     <use xlink:href="#mfcb887fffd" x="98.741761" y="221.801552" style="fill: #0000ff; stroke: #0000ff"/>
     <use xlink:href="#mfcb887fffd" x="106.350852" y="221.713774" style="fill: #0000ff; stroke: #0000ff"/>
     <use xlink:href="#mfcb887fffd" x="113.959943" y="221.691719" style="fill: #0000ff; stroke: #0000ff"/>
     <use xlink:href="#mfcb887fffd" x="121.569034" y="221.703315" style="fill: #0000ff; stroke: #0000ff"/>
     <use xlink:href="#mfcb887fffd" x="129.178125" y="221.733244" style="fill: #0000ff; stroke: #0000ff"/>
     <use xlink:href="#mfcb887fffd" x="136.787216" y="221.773545" style="fill: #0000ff; stroke: #0000ff"/>
     <use xlink:href="#mfcb887fffd" x="144.396307" y="221.819773" style="fill: #0000ff; stroke: #0000ff"/>
     <use xlink:href="#mfcb887fffd" x="152.005398" y="221.869286" style="fill: #0000ff; stroke: #0000ff"/>
     <use xlink:href="#mfcb887fffd" x="159.614489" y="221.920434" style="fill: #0000ff; stroke: #0000ff"/>
     <use xlink:href="#mfcb887fffd" x="167.22358" y="221.972146" style="fill: #0000ff; stroke: #0000ff"/>
     <use xlink:href="#mfcb887fffd" x="174.83267" y="222.023709" style="fill: #0000ff; stroke: #0000ff"/>
     <use xlink:href="#mfcb887fffd" x="182.441761" y="222.074642" style="fill: #0000ff; stroke: #0000ff"/>
     <use xlink:href="#mfcb887fffd" x="190.050852" y="222.124621" style="fill: #0000ff; stroke: #0000ff"/>
     <use xlink:href="#mfcb887fffd" x="197.659943" y="222.173433" style="fill: #0000ff; stroke: #0000ff"/>
     <use xlink:href="#mfcb887fffd" x="205.269034" y="222.220946" style="fill: #0000ff; stroke: #0000ff"/>
     <use xlink:href="#mfcb887fffd" x="212.878125" y="222.267082" style="fill: #0000ff; stroke: #0000ff"/>
     <use xlink:href="#mfcb887fffd" x="220.487216" y="222.311806" style="fill: #0000ff; stroke: #0000ff"/>
     <use xlink:href="#mfcb887fffd" x="228.096307" y="222.355113" style="fill: #0000ff; stroke: #0000ff"/>
     <use xlink:href="#mfcb887fffd" x="235.705398" y="222.397021" style="fill: #0000ff; stroke: #0000ff"/>
     <use xlink:href="#mfcb887fffd" x="243.314489" y="222.437562" style="fill: #0000ff; stroke: #0000ff"/>
     <use xlink:href="#mfcb887fffd" x="250.92358" y="222.476779" style="fill: #0000ff; stroke: #0000ff"/>
     <use xlink:href="#mfcb887fffd" x="258.53267" y="222.514723" style="fill: #0000ff; stroke: #0000ff"/>
     <use xlink:href="#mfcb887fffd" x="266.141761" y="222.55145" style="fill: #0000ff; stroke: #0000ff"/>
     <use xlink:href="#mfcb887fffd" x="273.750852" y="222.587015" style="fill: #0000ff; stroke: #0000ff"/>
     <use xlink:href="#mfcb887fffd" x="281.359943" y="222.621478" style="fill: #0000ff; stroke: #0000ff"/>
     <use xlink:href="#mfcb887fffd" x="288.969034" y="222.654896" style="fill: #0000ff; stroke: #0000ff"/>
     <use xlink:href="#mfcb887fffd" x="296.578125" y="222.687326" style="fill: #0000ff; stroke: #0000ff"/>
     <use xlink:href="#mfcb887fffd" x="304.187216" y="222.718822" style="fill: #0000ff; stroke: #0000ff"/>
     <use xlink:href="#mfcb887fffd" x="311.796307" y="222.749439" style="fill: #0000ff; stroke: #0000ff"/>
     <use xlink:href="#mfcb887fffd" x="319.405398" y="222.779226" style="fill: #0000ff; stroke: #0000ff"/>
     <use xlink:href="#mfcb887fffd" x="327.014489" y="222.808232" style="fill: #0000ff; stroke: #0000ff"/>
     <use xlink:href="#mfcb887fffd" x="334.62358" y="222.836503" style="fill: #0000ff; stroke: #0000ff"/>
     <use xlink:href="#mfcb887fffd" x="342.23267" y="222.864082" style="fill: #0000ff; stroke: #0000ff"/>
     <use xlink:href="#mfcb887fffd" x="349.841761" y="222.89101" style="fill: #0000ff; stroke: #0000ff"/>
     <use xlink:href="#mfcb887fffd" x="357.450852" y="222.917325" style="fill: #0000ff; stroke: #0000ff"/>
     <use xlink:href="#mfcb887fffd" x="365.059943" y="222.943063" style="fill: #0000ff; stroke: #0000ff"/>
    </g>
   </g>
   <g id="line2d_72">
    <path d="M 68.275444 278.314375 
L 68.305398 32.201761 
L 75.914489 79.970359 
L 83.52358 119.48365 
L 91.13267 146.252626 
L 98.741761 161.832144 
L 106.350852 171.110821 
L 113.959943 177.523131 
L 121.569034 182.529648 
L 129.178125 186.690237 
L 136.787216 190.248191 
L 144.396307 193.337866 
L 152.005398 196.051479 
L 159.614489 198.460287 
L 167.22358 200.621617 
L 174.83267 202.581748 
L 182.441761 204.377715 
L 190.050852 206.038829 
L 197.659943 207.588086 
L 205.269034 209.043426 
L 212.878125 210.418818 
L 220.487216 211.725154 
L 228.096307 212.970968 
L 235.705398 214.162995 
L 243.314489 215.306609 
L 250.92358 216.406146 
L 258.53267 217.465159 
L 266.141761 218.486601 
L 273.750852 219.472964 
L 281.359943 220.426387 
L 288.969034 221.34873 
L 296.578125 222.241636 
L 304.187216 223.106573 
L 311.796307 223.944866 
L 319.405398 224.757727 
L 327.014489 225.54627 
L 334.62358 226.311527 
L 342.23267 227.05446 
L 349.841761 227.775972 
L 357.450852 228.47691 
L 365.059943 229.158077 
" clip-path="url(#pdb1cd89ff5)" style="fill: none; stroke: #000000; stroke-width: 1.5; stroke-linecap: square"/>
    <defs>
     <path id="m4374e1fe09" d="M 0 0 
L 3 0 
M 0 0 
L -1.5 -2.4 
M 0 0 
L -1.5 2.4 
" style="stroke: #000000"/>
    </defs>
    <g clip-path="url(#pdb1cd89ff5)">
     <use xlink:href="#m4374e1fe09" x="65.879144" y="19967.635" style="stroke: #000000"/>
     <use xlink:href="#m4374e1fe09" x="68.305398" y="32.201761" style="stroke: #000000"/>
     <use xlink:href="#m4374e1fe09" x="75.914489" y="79.970359" style="stroke: #000000"/>
     <use xlink:href="#m4374e1fe09" x="83.52358" y="119.48365" style="stroke: #000000"/>
     <use xlink:href="#m4374e1fe09" x="91.13267" y="146.252626" style="stroke: #000000"/>
     <use xlink:href="#m4374e1fe09" x="98.741761" y="161.832144" style="stroke: #000000"/>
     <use xlink:href="#m4374e1fe09" x="106.350852" y="171.110821" style="stroke: #000000"/>
     <use xlink:href="#m4374e1fe09" x="113.959943" y="177.523131" style="stroke: #000000"/>
     <use xlink:href="#m4374e1fe09" x="121.569034" y="182.529648" style="stroke: #000000"/>
     <use xlink:href="#m4374e1fe09" x="129.178125" y="186.690237" style="stroke: #000000"/>
     <use xlink:href="#m4374e1fe09" x="136.787216" y="190.248191" style="stroke: #000000"/>
     <use xlink:href="#m4374e1fe09" x="144.396307" y="193.337866" style="stroke: #000000"/>
     <use xlink:href="#m4374e1fe09" x="152.005398" y="196.051479" style="stroke: #000000"/>
     <use xlink:href="#m4374e1fe09" x="159.614489" y="198.460287" style="stroke: #000000"/>
     <use xlink:href="#m4374e1fe09" x="167.22358" y="200.621617" style="stroke: #000000"/>
     <use xlink:href="#m4374e1fe09" x="174.83267" y="202.581748" style="stroke: #000000"/>
     <use xlink:href="#m4374e1fe09" x="182.441761" y="204.377715" style="stroke: #000000"/>
     <use xlink:href="#m4374e1fe09" x="190.050852" y="206.038829" style="stroke: #000000"/>
     <use xlink:href="#m4374e1fe09" x="197.659943" y="207.588086" style="stroke: #000000"/>
     <use xlink:href="#m4374e1fe09" x="205.269034" y="209.043426" style="stroke: #000000"/>
     <use xlink:href="#m4374e1fe09" x="212.878125" y="210.418818" style="stroke: #000000"/>
     <use xlink:href="#m4374e1fe09" x="220.487216" y="211.725154" style="stroke: #000000"/>
     <use xlink:href="#m4374e1fe09" x="228.096307" y="212.970968" style="stroke: #000000"/>
     <use xlink:href="#m4374e1fe09" x="235.705398" y="214.162995" style="stroke: #000000"/>
     <use xlink:href="#m4374e1fe09" x="243.314489" y="215.306609" style="stroke: #000000"/>
     <use xlink:href="#m4374e1fe09" x="250.92358" y="216.406146" style="stroke: #000000"/>
     <use xlink:href="#m4374e1fe09" x="258.53267" y="217.465159" style="stroke: #000000"/>
     <use xlink:href="#m4374e1fe09" x="266.141761" y="218.486601" style="stroke: #000000"/>
     <use xlink:href="#m4374e1fe09" x="273.750852" y="219.472964" style="stroke: #000000"/>
     <use xlink:href="#m4374e1fe09" x="281.359943" y="220.426387" style="stroke: #000000"/>
     <use xlink:href="#m4374e1fe09" x="288.969034" y="221.34873" style="stroke: #000000"/>
     <use xlink:href="#m4374e1fe09" x="296.578125" y="222.241636" style="stroke: #000000"/>
     <use xlink:href="#m4374e1fe09" x="304.187216" y="223.106573" style="stroke: #000000"/>
     <use xlink:href="#m4374e1fe09" x="311.796307" y="223.944866" style="stroke: #000000"/>
     <use xlink:href="#m4374e1fe09" x="319.405398" y="224.757727" style="stroke: #000000"/>
     <use xlink:href="#m4374e1fe09" x="327.014489" y="225.54627" style="stroke: #000000"/>
     <use xlink:href="#m4374e1fe09" x="334.62358" y="226.311527" style="stroke: #000000"/>
     <use xlink:href="#m4374e1fe09" x="342.23267" y="227.05446" style="stroke: #000000"/>
     <use xlink:href="#m4374e1fe09" x="349.841761" y="227.775972" style="stroke: #000000"/>
     <use xlink:href="#m4374e1fe09" x="357.450852" y="228.47691" style="stroke: #000000"/>
     <use xlink:href="#m4374e1fe09" x="365.059943" y="229.158077" style="stroke: #000000"/>
    </g>
   </g>
   <g id="patch_3">
    <path d="M 45.478125 239.758125 
L 45.478125 22.318125 
" style="fill: none; stroke: #000000; stroke-width: 0.8; stroke-linejoin: miter; stroke-linecap: square"/>
   </g>
   <g id="patch_4">
    <path d="M 380.278125 239.758125 
L 380.278125 22.318125 
" style="fill: none; stroke: #000000; stroke-width: 0.8; stroke-linejoin: miter; stroke-linecap: square"/>
   </g>
   <g id="patch_5">
    <path d="M 45.478125 239.758125 
L 380.278125 239.758125 
" style="fill: none; stroke: #000000; stroke-width: 0.8; stroke-linejoin: miter; stroke-linecap: square"/>
   </g>
   <g id="patch_6">
    <path d="M 45.478125 22.318125 
L 380.278125 22.318125 
" style="fill: none; stroke: #000000; stroke-width: 0.8; stroke-linejoin: miter; stroke-linecap: square"/>
   </g>
   <g id="text_10">
    <!-- Mass Conservation and Pressure Drop in Static Mixer -->
    <g transform="translate(54.43125 16.318125) scale(0.12 -0.12)">
     <defs>
      <path id="DejaVuSans-4d" d="M 628 4666 
L 1569 4666 
L 2759 1491 
L 3956 4666 
L 4897 4666 
L 4897 0 
L 4281 0 
L 4281 4097 
L 3078 897 
L 2444 897 
L 1241 4097 
L 1241 0 
L 628 0 
L 628 4666 
z
" transform="scale(0.015625)"/>
      <path id="DejaVuSans-61" d="M 2194 1759 
Q 1497 1759 1228 1600 
Q 959 1441 959 1056 
Q 959 750 1161 570 
Q 1363 391 1709 391 
Q 2188 391 2477 730 
Q 2766 1069 2766 1631 
L 2766 1759 
L 2194 1759 
z
M 3341 1997 
L 3341 0 
L 2766 0 
L 2766 531 
Q 2569 213 2275 61 
Q 1981 -91 1556 -91 
Q 1019 -91 701 211 
Q 384 513 384 1019 
Q 384 1609 779 1909 
Q 1175 2209 1959 2209 
L 2766 2209 
L 2766 2266 
Q 2766 2663 2505 2880 
Q 2244 3097 1772 3097 
Q 1472 3097 1187 3025 
Q 903 2953 641 2809 
L 641 3341 
Q 956 3463 1253 3523 
Q 1550 3584 1831 3584 
Q 2591 3584 2966 3190 
Q 3341 2797 3341 1997 
z
" transform="scale(0.015625)"/>
      <path id="DejaVuSans-43" d="M 4122 4306 
L 4122 3641 
Q 3803 3938 3442 4084 
Q 3081 4231 2675 4231 
Q 1875 4231 1450 3742 
Q 1025 3253 1025 2328 
Q 1025 1406 1450 917 
Q 1875 428 2675 428 
Q 3081 428 3442 575 
Q 3803 722 4122 1019 
L 4122 359 
Q 3791 134 3420 21 
Q 3050 -91 2638 -91 
Q 1578 -91 968 557 
Q 359 1206 359 2328 
Q 359 3453 968 4101 
Q 1578 4750 2638 4750 
Q 3056 4750 3426 4639 
Q 3797 4528 4122 4306 
z
" transform="scale(0.015625)"/>
      <path id="DejaVuSans-6f" d="M 1959 3097 
Q 1497 3097 1228 2736 
Q 959 2375 959 1747 
Q 959 1119 1226 758 
Q 1494 397 1959 397 
Q 2419 397 2687 759 
Q 2956 1122 2956 1747 
Q 2956 2369 2687 2733 
Q 2419 3097 1959 3097 
z
M 1959 3584 
Q 2709 3584 3137 3096 
Q 3566 2609 3566 1747 
Q 3566 888 3137 398 
Q 2709 -91 1959 -91 
Q 1206 -91 779 398 
Q 353 888 353 1747 
Q 353 2609 779 3096 
Q 1206 3584 1959 3584 
z
" transform="scale(0.015625)"/>
      <path id="DejaVuSans-6e" d="M 3513 2113 
L 3513 0 
L 2938 0 
L 2938 2094 
Q 2938 2591 2744 2837 
Q 2550 3084 2163 3084 
Q 1697 3084 1428 2787 
Q 1159 2491 1159 1978 
L 1159 0 
L 581 0 
L 581 3500 
L 1159 3500 
L 1159 2956 
Q 1366 3272 1645 3428 
Q 1925 3584 2291 3584 
Q 2894 3584 3203 3211 
Q 3513 2838 3513 2113 
z
" transform="scale(0.015625)"/>
      <path id="DejaVuSans-72" d="M 2631 2963 
Q 2534 3019 2420 3045 
Q 2306 3072 2169 3072 
Q 1681 3072 1420 2755 
Q 1159 2438 1159 1844 
L 1159 0 
L 581 0 
L 581 3500 
L 1159 3500 
L 1159 2956 
Q 1341 3275 1631 3429 
Q 1922 3584 2338 3584 
Q 2397 3584 2469 3576 
Q 2541 3569 2628 3553 
L 2631 2963 
z
" transform="scale(0.015625)"/>
      <path id="DejaVuSans-76" d="M 191 3500 
L 800 3500 
L 1894 563 
L 2988 3500 
L 3597 3500 
L 2284 0 
L 1503 0 
L 191 3500 
z
" transform="scale(0.015625)"/>
      <path id="DejaVuSans-74" d="M 1172 4494 
L 1172 3500 
L 2356 3500 
L 2356 3053 
L 1172 3053 
L 1172 1153 
Q 1172 725 1289 603 
Q 1406 481 1766 481 
L 2356 481 
L 2356 0 
L 1766 0 
Q 1100 0 847 248 
Q 594 497 594 1153 
L 594 3053 
L 172 3053 
L 172 3500 
L 594 3500 
L 594 4494 
L 1172 4494 
z
" transform="scale(0.015625)"/>
      <path id="DejaVuSans-64" d="M 2906 2969 
L 2906 4863 
L 3481 4863 
L 3481 0 
L 2906 0 
L 2906 525 
Q 2725 213 2448 61 
Q 2172 -91 1784 -91 
Q 1150 -91 751 415 
Q 353 922 353 1747 
Q 353 2572 751 3078 
Q 1150 3584 1784 3584 
Q 2172 3584 2448 3432 
Q 2725 3281 2906 2969 
z
M 947 1747 
Q 947 1113 1208 752 
Q 1469 391 1925 391 
Q 2381 391 2643 752 
Q 2906 1113 2906 1747 
Q 2906 2381 2643 2742 
Q 2381 3103 1925 3103 
Q 1469 3103 1208 2742 
Q 947 2381 947 1747 
z
" transform="scale(0.015625)"/>
      <path id="DejaVuSans-50" d="M 1259 4147 
L 1259 2394 
L 2053 2394 
Q 2494 2394 2734 2622 
Q 2975 2850 2975 3272 
Q 2975 3691 2734 3919 
Q 2494 4147 2053 4147 
L 1259 4147 
z
M 628 4666 
L 2053 4666 
Q 2838 4666 3239 4311 
Q 3641 3956 3641 3272 
Q 3641 2581 3239 2228 
Q 2838 1875 2053 1875 
L 1259 1875 
L 1259 0 
L 628 0 
L 628 4666 
z
" transform="scale(0.015625)"/>
      <path id="DejaVuSans-75" d="M 544 1381 
L 544 3500 
L 1119 3500 
L 1119 1403 
Q 1119 906 1312 657 
Q 1506 409 1894 409 
Q 2359 409 2629 706 
Q 2900 1003 2900 1516 
L 2900 3500 
L 3475 3500 
L 3475 0 
L 2900 0 
L 2900 538 
Q 2691 219 2414 64 
Q 2138 -91 1772 -91 
Q 1169 -91 856 284 
Q 544 659 544 1381 
z
M 1991 3584 
L 1991 3584 
z
" transform="scale(0.015625)"/>
      <path id="DejaVuSans-44" d="M 1259 4147 
L 1259 519 
L 2022 519 
Q 2988 519 3436 956 
Q 3884 1394 3884 2338 
Q 3884 3275 3436 3711 
Q 2988 4147 2022 4147 
L 1259 4147 
z
M 628 4666 
L 1925 4666 
Q 3281 4666 3915 4102 
Q 4550 3538 4550 2338 
Q 4550 1131 3912 565 
Q 3275 0 1925 0 
L 628 0 
L 628 4666 
z
" transform="scale(0.015625)"/>
      <path id="DejaVuSans-70" d="M 1159 525 
L 1159 -1331 
L 581 -1331 
L 581 3500 
L 1159 3500 
L 1159 2969 
Q 1341 3281 1617 3432 
Q 1894 3584 2278 3584 
Q 2916 3584 3314 3078 
Q 3713 2572 3713 1747 
Q 3713 922 3314 415 
Q 2916 -91 2278 -91 
Q 1894 -91 1617 61 
Q 1341 213 1159 525 
z
M 3116 1747 
Q 3116 2381 2855 2742 
Q 2594 3103 2138 3103 
Q 1681 3103 1420 2742 
Q 1159 2381 1159 1747 
Q 1159 1113 1420 752 
Q 1681 391 2138 391 
Q 2594 391 2855 752 
Q 3116 1113 3116 1747 
z
" transform="scale(0.015625)"/>
      <path id="DejaVuSans-53" d="M 3425 4513 
L 3425 3897 
Q 3066 4069 2747 4153 
Q 2428 4238 2131 4238 
Q 1616 4238 1336 4038 
Q 1056 3838 1056 3469 
Q 1056 3159 1242 3001 
Q 1428 2844 1947 2747 
L 2328 2669 
Q 3034 2534 3370 2195 
Q 3706 1856 3706 1288 
Q 3706 609 3251 259 
Q 2797 -91 1919 -91 
Q 1588 -91 1214 -16 
Q 841 59 441 206 
L 441 856 
Q 825 641 1194 531 
Q 1563 422 1919 422 
Q 2459 422 2753 634 
Q 3047 847 3047 1241 
Q 3047 1584 2836 1778 
Q 2625 1972 2144 2069 
L 1759 2144 
Q 1053 2284 737 2584 
Q 422 2884 422 3419 
Q 422 4038 858 4394 
Q 1294 4750 2059 4750 
Q 2388 4750 2728 4690 
Q 3069 4631 3425 4513 
z
" transform="scale(0.015625)"/>
      <path id="DejaVuSans-63" d="M 3122 3366 
L 3122 2828 
Q 2878 2963 2633 3030 
Q 2388 3097 2138 3097 
Q 1578 3097 1268 2742 
Q 959 2388 959 1747 
Q 959 1106 1268 751 
Q 1578 397 2138 397 
Q 2388 397 2633 464 
Q 2878 531 3122 666 
L 3122 134 
Q 2881 22 2623 -34 
Q 2366 -91 2075 -91 
Q 1284 -91 818 406 
Q 353 903 353 1747 
Q 353 2603 823 3093 
Q 1294 3584 2113 3584 
Q 2378 3584 2631 3529 
Q 2884 3475 3122 3366 
z
" transform="scale(0.015625)"/>
      <path id="DejaVuSans-78" d="M 3513 3500 
L 2247 1797 
L 3578 0 
L 2900 0 
L 1881 1375 
L 863 0 
L 184 0 
L 1544 1831 
L 300 3500 
L 978 3500 
L 1906 2253 
L 2834 3500 
L 3513 3500 
z
" transform="scale(0.015625)"/>
     </defs>
     <use xlink:href="#DejaVuSans-4d"/>
     <use xlink:href="#DejaVuSans-61" x="86.279297"/>
     <use xlink:href="#DejaVuSans-73" x="147.558594"/>
     <use xlink:href="#DejaVuSans-73" x="199.658203"/>
     <use xlink:href="#DejaVuSans-20" x="251.757812"/>
     <use xlink:href="#DejaVuSans-43" x="283.544922"/>
     <use xlink:href="#DejaVuSans-6f" x="353.369141"/>
     <use xlink:href="#DejaVuSans-6e" x="414.550781"/>
     <use xlink:href="#DejaVuSans-73" x="477.929688"/>
     <use xlink:href="#DejaVuSans-65" x="530.029297"/>
     <use xlink:href="#DejaVuSans-72" x="591.552734"/>
     <use xlink:href="#DejaVuSans-76" x="632.666016"/>
     <use xlink:href="#DejaVuSans-61" x="691.845703"/>
     <use xlink:href="#DejaVuSans-74" x="753.125"/>
     <use xlink:href="#DejaVuSans-69" x="792.333984"/>
     <use xlink:href="#DejaVuSans-6f" x="820.117188"/>
     <use xlink:href="#DejaVuSans-6e" x="881.298828"/>
     <use xlink:href="#DejaVuSans-20" x="944.677734"/>
     <use xlink:href="#DejaVuSans-61" x="976.464844"/>
     <use xlink:href="#DejaVuSans-6e" x="1037.744141"/>
     <use xlink:href="#DejaVuSans-64" x="1101.123047"/>
     <use xlink:href="#DejaVuSans-20" x="1164.599609"/>
     <use xlink:href="#DejaVuSans-50" x="1196.386719"/>
     <use xlink:href="#DejaVuSans-72" x="1254.939453"/>
     <use xlink:href="#DejaVuSans-65" x="1293.802734"/>
     <use xlink:href="#DejaVuSans-73" x="1355.326172"/>
     <use xlink:href="#DejaVuSans-73" x="1407.425781"/>
     <use xlink:href="#DejaVuSans-75" x="1459.525391"/>
     <use xlink:href="#DejaVuSans-72" x="1522.904297"/>
     <use xlink:href="#DejaVuSans-65" x="1561.767578"/>
     <use xlink:href="#DejaVuSans-20" x="1623.291016"/>
     <use xlink:href="#DejaVuSans-44" x="1655.078125"/>
     <use xlink:href="#DejaVuSans-72" x="1732.080078"/>
     <use xlink:href="#DejaVuSans-6f" x="1770.943359"/>
     <use xlink:href="#DejaVuSans-70" x="1832.125"/>
     <use xlink:href="#DejaVuSans-20" x="1895.601562"/>
     <use xlink:href="#DejaVuSans-69" x="1927.388672"/>
     <use xlink:href="#DejaVuSans-6e" x="1955.171875"/>
     <use xlink:href="#DejaVuSans-20" x="2018.550781"/>
     <use xlink:href="#DejaVuSans-53" x="2050.337891"/>
     <use xlink:href="#DejaVuSans-74" x="2113.814453"/>
     <use xlink:href="#DejaVuSans-61" x="2153.023438"/>
     <use xlink:href="#DejaVuSans-74" x="2214.302734"/>
     <use xlink:href="#DejaVuSans-69" x="2253.511719"/>
     <use xlink:href="#DejaVuSans-63" x="2281.294922"/>
     <use xlink:href="#DejaVuSans-20" x="2336.275391"/>
     <use xlink:href="#DejaVuSans-4d" x="2368.0625"/>
     <use xlink:href="#DejaVuSans-69" x="2454.341797"/>
     <use xlink:href="#DejaVuSans-78" x="2482.125"/>
     <use xlink:href="#DejaVuSans-65" x="2538.179688"/>
     <use xlink:href="#DejaVuSans-72" x="2599.703125"/>
    </g>
   </g>
   <g id="legend_1">
    <g id="patch_7">
     <path d="M 389.278125 61.674375 
L 534.74375 61.674375 
Q 536.74375 61.674375 536.74375 59.674375 
L 536.74375 31.318125 
Q 536.74375 29.318125 534.74375 29.318125 
L 389.278125 29.318125 
Q 387.278125 29.318125 387.278125 31.318125 
L 387.278125 59.674375 
Q 387.278125 61.674375 389.278125 61.674375 
z
" style="fill: #4c4c4c; opacity: 0.5; stroke: #4c4c4c; stroke-linejoin: miter"/>
    </g>
    <g id="patch_8">
     <path d="M 387.278125 59.674375 
L 532.74375 59.674375 
Q 534.74375 59.674375 534.74375 57.674375 
L 534.74375 29.318125 
Q 534.74375 27.318125 532.74375 27.318125 
L 387.278125 27.318125 
Q 385.278125 27.318125 385.278125 29.318125 
L 385.278125 57.674375 
Q 385.278125 59.674375 387.278125 59.674375 
z
" style="fill: #ffffff; stroke: #cccccc; stroke-linejoin: miter"/>
    </g>
    <g id="line2d_73">
     <path d="M 389.278125 35.416562 
L 399.278125 35.416562 
L 409.278125 35.416562 
" style="fill: none; stroke: #0000ff; stroke-width: 1.5; stroke-linecap: square"/>
     <g>
      <use xlink:href="#mfcb887fffd" x="399.278125" y="35.416562" style="fill: #0000ff; stroke: #0000ff"/>
     </g>
    </g>
    <g id="text_11">
     <!-- Mass conservation [%] -->
     <g transform="translate(417.278125 38.916562) scale(0.1 -0.1)">
      <defs>
       <path id="DejaVuSans-25" d="M 4653 2053 
Q 4381 2053 4226 1822 
Q 4072 1591 4072 1178 
Q 4072 772 4226 539 
Q 4381 306 4653 306 
Q 4919 306 5073 539 
Q 5228 772 5228 1178 
Q 5228 1588 5073 1820 
Q 4919 2053 4653 2053 
z
M 4653 2450 
Q 5147 2450 5437 2106 
Q 5728 1763 5728 1178 
Q 5728 594 5436 251 
Q 5144 -91 4653 -91 
Q 4153 -91 3862 251 
Q 3572 594 3572 1178 
Q 3572 1766 3864 2108 
Q 4156 2450 4653 2450 
z
M 1428 4353 
Q 1159 4353 1004 4120 
Q 850 3888 850 3481 
Q 850 3069 1003 2837 
Q 1156 2606 1428 2606 
Q 1700 2606 1854 2837 
Q 2009 3069 2009 3481 
Q 2009 3884 1853 4118 
Q 1697 4353 1428 4353 
z
M 4250 4750 
L 4750 4750 
L 1831 -91 
L 1331 -91 
L 4250 4750 
z
M 1428 4750 
Q 1922 4750 2215 4408 
Q 2509 4066 2509 3481 
Q 2509 2891 2217 2550 
Q 1925 2209 1428 2209 
Q 931 2209 642 2551 
Q 353 2894 353 3481 
Q 353 4063 643 4406 
Q 934 4750 1428 4750 
z
" transform="scale(0.015625)"/>
      </defs>
      <use xlink:href="#DejaVuSans-4d"/>
      <use xlink:href="#DejaVuSans-61" x="86.279297"/>
      <use xlink:href="#DejaVuSans-73" x="147.558594"/>
      <use xlink:href="#DejaVuSans-73" x="199.658203"/>
      <use xlink:href="#DejaVuSans-20" x="251.757812"/>
      <use xlink:href="#DejaVuSans-63" x="283.544922"/>
      <use xlink:href="#DejaVuSans-6f" x="338.525391"/>
      <use xlink:href="#DejaVuSans-6e" x="399.707031"/>
      <use xlink:href="#DejaVuSans-73" x="463.085938"/>
      <use xlink:href="#DejaVuSans-65" x="515.185547"/>
      <use xlink:href="#DejaVuSans-72" x="576.708984"/>
      <use xlink:href="#DejaVuSans-76" x="617.822266"/>
      <use xlink:href="#DejaVuSans-61" x="677.001953"/>
      <use xlink:href="#DejaVuSans-74" x="738.28125"/>
      <use xlink:href="#DejaVuSans-69" x="777.490234"/>
      <use xlink:href="#DejaVuSans-6f" x="805.273438"/>
      <use xlink:href="#DejaVuSans-6e" x="866.455078"/>
      <use xlink:href="#DejaVuSans-20" x="929.833984"/>
      <use xlink:href="#DejaVuSans-5b" x="961.621094"/>
      <use xlink:href="#DejaVuSans-25" x="1000.634766"/>
      <use xlink:href="#DejaVuSans-5d" x="1095.654297"/>
     </g>
    </g>
    <g id="line2d_74">
     <path d="M 389.278125 50.094687 
L 399.278125 50.094687 
L 409.278125 50.094687 
" style="fill: none; stroke: #000000; stroke-width: 1.5; stroke-linecap: square"/>
     <g>
      <use xlink:href="#m4374e1fe09" x="399.278125" y="50.094687" style="stroke: #000000"/>
     </g>
    </g>
    <g id="text_12">
     <!-- Pressure drop [kPa] -->
     <g transform="translate(417.278125 53.594687) scale(0.1 -0.1)">
      <defs>
       <path id="DejaVuSans-6b" d="M 581 4863 
L 1159 4863 
L 1159 1991 
L 2875 3500 
L 3609 3500 
L 1753 1863 
L 3688 0 
L 2938 0 
L 1159 1709 
L 1159 0 
L 581 0 
L 581 4863 
z
" transform="scale(0.015625)"/>
      </defs>
      <use xlink:href="#DejaVuSans-50"/>
      <use xlink:href="#DejaVuSans-72" x="58.552734"/>
      <use xlink:href="#DejaVuSans-65" x="97.416016"/>
      <use xlink:href="#DejaVuSans-73" x="158.939453"/>
      <use xlink:href="#DejaVuSans-73" x="211.039062"/>
      <use xlink:href="#DejaVuSans-75" x="263.138672"/>
      <use xlink:href="#DejaVuSans-72" x="326.517578"/>
      <use xlink:href="#DejaVuSans-65" x="365.380859"/>
      <use xlink:href="#DejaVuSans-20" x="426.904297"/>
      <use xlink:href="#DejaVuSans-64" x="458.691406"/>
      <use xlink:href="#DejaVuSans-72" x="522.167969"/>
      <use xlink:href="#DejaVuSans-6f" x="561.03125"/>
      <use xlink:href="#DejaVuSans-70" x="622.212891"/>
      <use xlink:href="#DejaVuSans-20" x="685.689453"/>
      <use xlink:href="#DejaVuSans-5b" x="717.476562"/>
      <use xlink:href="#DejaVuSans-6b" x="756.490234"/>
      <use xlink:href="#DejaVuSans-50" x="814.400391"/>
      <use xlink:href="#DejaVuSans-61" x="870.203125"/>
      <use xlink:href="#DejaVuSans-5d" x="931.482422"/>
     </g>
    </g>
   </g>
  </g>
 </g>
 <defs>
  <clipPath id="pdb1cd89ff5">
   <rect x="45.478125" y="22.318125" width="334.8" height="217.44"/>
  </clipPath>
 </defs>
</svg>
