<?xml version="1.0" encoding="UTF-8" standalone="no"?>
<!DOCTYPE svg PUBLIC "-//W3C//DTD SVG 1.1//EN"
 "http://www.w3.org/Graphics/SVG/1.1/DTD/svg11.dtd">
<!-- Generated by graphviz version 2.43.0 (0)
 -->
<!-- Title: /home/runner/work/lethe/lethe/source/dem/adaptive_sparse_contacts.cc Pages: 1 -->
<svg width="1844pt" height="379pt"
 viewBox="0.00 0.00 1843.50 379.00" xmlns="http://www.w3.org/2000/svg" xmlns:xlink="http://www.w3.org/1999/xlink">
<g id="graph0" class="graph" transform="scale(1 1) rotate(0) translate(4 375)">
<title>/home/runner/work/lethe/lethe/source/dem/adaptive_sparse_contacts.cc</title>
<!-- Node1 -->
<g id="Node000001" class="node">
<title>Node1</title>
<g id="a_Node000001"><a xlink:title=" ">
<polygon fill="#999999" stroke="#666666" points="1346.5,-371 1196.5,-371 1196.5,-330 1346.5,-330 1346.5,-371"/>
<text text-anchor="start" x="1204.5" y="-359" font-family="Helvetica,sans-Serif" font-size="10.00">/home/runner/work/lethe</text>
<text text-anchor="start" x="1204.5" y="-348" font-family="Helvetica,sans-Serif" font-size="10.00">/lethe/source/dem/adaptive</text>
<text text-anchor="middle" x="1271.5" y="-337" font-family="Helvetica,sans-Serif" font-size="10.00">_sparse_contacts.cc</text>
</a>
</g>
</g>
<!-- Node2 -->
<g id="Node000002" class="node">
<title>Node2</title>
<g id="a_Node000002"><a xlink:href="dem__properties_8h.html" target="_top" xlink:title="DEM particle property definitions and output name management.">
<polygon fill="white" stroke="#666666" points="177.5,-156.5 51.5,-156.5 51.5,-137.5 177.5,-137.5 177.5,-156.5"/>
<text text-anchor="middle" x="114.5" y="-144.5" font-family="Helvetica,sans-Serif" font-size="10.00">core/dem_properties.h</text>
</a>
</g>
</g>
<!-- Node1&#45;&gt;Node2 -->
<g id="edge1_Node000001_Node000002" class="edge">
<title>Node1&#45;&gt;Node2</title>
<g id="a_edge1_Node000001_Node000002"><a xlink:title=" ">
<path fill="none" stroke="#63b8ff" d="M1196.48,-336.43C981.62,-299.01 367.01,-191.98 173.55,-158.28"/>
<polygon fill="#63b8ff" stroke="#63b8ff" points="174.02,-154.81 163.57,-156.55 172.82,-161.71 174.02,-154.81"/>
</a>
</g>
</g>
<!-- Node5 -->
<g id="Node000005" class="node">
<title>Node5</title>
<g id="a_Node000005"><a xlink:href="adaptive__sparse__contacts_8h.html" target="_top" xlink:title=" ">
<polygon fill="white" stroke="#666666" points="1261.5,-294 1139.5,-294 1139.5,-264 1261.5,-264 1261.5,-294"/>
<text text-anchor="start" x="1147.5" y="-282" font-family="Helvetica,sans-Serif" font-size="10.00">dem/adaptive_sparse</text>
<text text-anchor="middle" x="1200.5" y="-271" font-family="Helvetica,sans-Serif" font-size="10.00">_contacts.h</text>
</a>
</g>
</g>
<!-- Node1&#45;&gt;Node5 -->
<g id="edge4_Node000001_Node000005" class="edge">
<title>Node1&#45;&gt;Node5</title>
<g id="a_edge4_Node000001_Node000005"><a xlink:title=" ">
<path fill="none" stroke="#63b8ff" d="M1251.34,-329.77C1242.25,-320.87 1231.49,-310.33 1222.21,-301.25"/>
<polygon fill="#63b8ff" stroke="#63b8ff" points="1224.44,-298.53 1214.84,-294.04 1219.54,-303.53 1224.44,-298.53"/>
</a>
</g>
</g>
<!-- Node33 -->
<g id="Node000033" class="node">
<title>Node33</title>
<g id="a_Node000033"><a xlink:title=" ">
<polygon fill="#e0e0e0" stroke="#999999" points="1407.5,-288.5 1279.5,-288.5 1279.5,-269.5 1407.5,-269.5 1407.5,-288.5"/>
<text text-anchor="middle" x="1343.5" y="-276.5" font-family="Helvetica,sans-Serif" font-size="10.00">deal.II/dofs/dof_tools.h</text>
</a>
</g>
</g>
<!-- Node1&#45;&gt;Node33 -->
<g id="edge47_Node000001_Node000033" class="edge">
<title>Node1&#45;&gt;Node33</title>
<g id="a_edge47_Node000001_Node000033"><a xlink:title=" ">
<path fill="none" stroke="#63b8ff" d="M1291.94,-329.77C1303.07,-319.02 1316.66,-305.91 1327.09,-295.84"/>
<polygon fill="#63b8ff" stroke="#63b8ff" points="1329.6,-298.28 1334.36,-288.82 1324.74,-293.25 1329.6,-298.28"/>
</a>
</g>
</g>
<!-- Node34 -->
<g id="Node000034" class="node">
<title>Node34</title>
<g id="a_Node000034"><a xlink:title=" ">
<polygon fill="#e0e0e0" stroke="#999999" points="1517.5,-288.5 1425.5,-288.5 1425.5,-269.5 1517.5,-269.5 1517.5,-288.5"/>
<text text-anchor="middle" x="1471.5" y="-276.5" font-family="Helvetica,sans-Serif" font-size="10.00">deal.II/fe/fe_q.h</text>
</a>
</g>
</g>
<!-- Node1&#45;&gt;Node34 -->
<g id="edge48_Node000001_Node000034" class="edge">
<title>Node1&#45;&gt;Node34</title>
<g id="a_edge48_Node000001_Node000034"><a xlink:title=" ">
<path fill="none" stroke="#63b8ff" d="M1327.74,-329.96C1363.04,-317.69 1407.39,-302.28 1437.42,-291.84"/>
<polygon fill="#63b8ff" stroke="#63b8ff" points="1438.73,-295.09 1447.03,-288.5 1436.43,-288.48 1438.73,-295.09"/>
</a>
</g>
</g>
<!-- Node3 -->
<g id="Node000003" class="node">
<title>Node3</title>
<g id="a_Node000003"><a xlink:title=" ">
<polygon fill="#e0e0e0" stroke="#999999" points="109.5,-90.5 65.5,-90.5 65.5,-71.5 109.5,-71.5 109.5,-90.5"/>
<text text-anchor="middle" x="87.5" y="-78.5" font-family="Helvetica,sans-Serif" font-size="10.00">string</text>
</a>
</g>
</g>
<!-- Node2&#45;&gt;Node3 -->
<g id="edge2_Node000002_Node000003" class="edge">
<title>Node2&#45;&gt;Node3</title>
<g id="a_edge2_Node000002_Node000003"><a xlink:title=" ">
<path fill="none" stroke="#63b8ff" d="M110.86,-137.37C106.86,-127.88 100.31,-112.36 95.16,-100.16"/>
<polygon fill="#63b8ff" stroke="#63b8ff" points="98.37,-98.76 91.26,-90.91 91.92,-101.48 98.37,-98.76"/>
</a>
</g>
</g>
<!-- Node4 -->
<g id="Node000004" class="node">
<title>Node4</title>
<g id="a_Node000004"><a xlink:title=" ">
<polygon fill="#e0e0e0" stroke="#999999" points="47,-90.5 0,-90.5 0,-71.5 47,-71.5 47,-90.5"/>
<text text-anchor="middle" x="23.5" y="-78.5" font-family="Helvetica,sans-Serif" font-size="10.00">vector</text>
</a>
</g>
</g>
<!-- Node2&#45;&gt;Node4 -->
<g id="edge3_Node000002_Node000004" class="edge">
<title>Node2&#45;&gt;Node4</title>
<g id="a_edge3_Node000002_Node000004"><a xlink:title=" ">
<path fill="none" stroke="#63b8ff" d="M102.23,-137.37C87.44,-126.97 62.35,-109.32 44.47,-96.75"/>
<polygon fill="#63b8ff" stroke="#63b8ff" points="46.06,-93.59 35.87,-90.7 42.04,-99.31 46.06,-93.59"/>
</a>
</g>
</g>
<!-- Node5&#45;&gt;Node4 -->
<g id="edge46_Node000005_Node000004" class="edge">
<title>Node5&#45;&gt;Node4</title>
<g id="a_edge46_Node000005_Node000004"><a xlink:title=" ">
<path fill="none" stroke="#63b8ff" d="M1139.36,-275.97C912.22,-267.87 125.66,-234.75 42.5,-162 25.24,-146.9 22.16,-119.25 22.26,-100.74"/>
<polygon fill="#63b8ff" stroke="#63b8ff" points="25.76,-100.72 22.64,-90.6 18.77,-100.46 25.76,-100.72"/>
</a>
</g>
</g>
<!-- Node6 -->
<g id="Node000006" class="node">
<title>Node6</title>
<g id="a_Node000006"><a xlink:href="data__containers_8h.html" target="_top" xlink:title=" ">
<polygon fill="white" stroke="#666666" points="899.5,-222.5 771.5,-222.5 771.5,-203.5 899.5,-203.5 899.5,-222.5"/>
<text text-anchor="middle" x="835.5" y="-210.5" font-family="Helvetica,sans-Serif" font-size="10.00">dem/data_containers.h</text>
</a>
</g>
</g>
<!-- Node5&#45;&gt;Node6 -->
<g id="edge5_Node000005_Node000006" class="edge">
<title>Node5&#45;&gt;Node6</title>
<g id="a_edge5_Node000005_Node000006"><a xlink:title=" ">
<path fill="none" stroke="#63b8ff" d="M1139.42,-267.81C1080.5,-257.91 988.83,-242.32 909.5,-228 903.25,-226.87 896.71,-225.67 890.21,-224.46"/>
<polygon fill="#63b8ff" stroke="#63b8ff" points="890.56,-220.96 880.09,-222.56 889.27,-227.84 890.56,-220.96"/>
</a>
</g>
</g>
<!-- Node14 -->
<g id="Node000014" class="node">
<title>Node14</title>
<g id="a_Node000014"><a xlink:title=" ">
<polygon fill="#e0e0e0" stroke="#999999" points="1557,-90.5 1442,-90.5 1442,-71.5 1557,-71.5 1557,-90.5"/>
<text text-anchor="middle" x="1499.5" y="-78.5" font-family="Helvetica,sans-Serif" font-size="10.00">deal.II/base/tensor.h</text>
</a>
</g>
</g>
<!-- Node5&#45;&gt;Node14 -->
<g id="edge40_Node000005_Node000014" class="edge">
<title>Node5&#45;&gt;Node14</title>
<g id="a_edge40_Node000005_Node000014"><a xlink:title=" ">
<path fill="none" stroke="#63b8ff" d="M1261.52,-265.44C1264.55,-264.93 1267.56,-264.45 1270.5,-264 1347.15,-252.39 1565.59,-285.58 1617.5,-228 1659.66,-181.24 1570.99,-121.91 1524.94,-95.61"/>
<polygon fill="#63b8ff" stroke="#63b8ff" points="1526.52,-92.48 1516.08,-90.66 1523.1,-98.59 1526.52,-92.48"/>
</a>
</g>
</g>
<!-- Node15 -->
<g id="Node000015" class="node">
<title>Node15</title>
<g id="a_Node000015"><a xlink:title=" ">
<polygon fill="#e0e0e0" stroke="#999999" points="1835.5,-90.5 1695.5,-90.5 1695.5,-71.5 1835.5,-71.5 1835.5,-90.5"/>
<text text-anchor="middle" x="1765.5" y="-78.5" font-family="Helvetica,sans-Serif" font-size="10.00">deal.II/dofs/dof_handler.h</text>
</a>
</g>
</g>
<!-- Node5&#45;&gt;Node15 -->
<g id="edge41_Node000005_Node000015" class="edge">
<title>Node5&#45;&gt;Node15</title>
<g id="a_edge41_Node000005_Node000015"><a xlink:title=" ">
<path fill="none" stroke="#63b8ff" d="M1261.52,-265.42C1264.55,-264.92 1267.56,-264.44 1270.5,-264 1351.34,-251.97 1563.73,-265.2 1636.5,-228 1694.11,-198.55 1737.65,-131.59 1755.98,-99.62"/>
<polygon fill="#63b8ff" stroke="#63b8ff" points="1759.22,-101 1761.04,-90.56 1753.11,-97.59 1759.22,-101"/>
</a>
</g>
</g>
<!-- Node28 -->
<g id="Node000028" class="node">
<title>Node28</title>
<g id="a_Node000028"><a xlink:href="dem__action__manager_8h.html" target="_top" xlink:title=" ">
<polygon fill="white" stroke="#666666" points="1073,-222.5 918,-222.5 918,-203.5 1073,-203.5 1073,-222.5"/>
<text text-anchor="middle" x="995.5" y="-210.5" font-family="Helvetica,sans-Serif" font-size="10.00">dem/dem_action_manager.h</text>
</a>
</g>
</g>
<!-- Node5&#45;&gt;Node28 -->
<g id="edge39_Node000005_Node000028" class="edge">
<title>Node5&#45;&gt;Node28</title>
<g id="a_edge39_Node000005_Node000028"><a xlink:title=" ">
<path fill="none" stroke="#63b8ff" d="M1155.51,-263.95C1118.61,-252.43 1067,-236.32 1032.48,-225.54"/>
<polygon fill="#63b8ff" stroke="#63b8ff" points="1033.37,-222.16 1022.78,-222.52 1031.28,-228.84 1033.37,-222.16"/>
</a>
</g>
</g>
<!-- Node29 -->
<g id="Node000029" class="node">
<title>Node29</title>
<g id="a_Node000029"><a xlink:title=" ">
<polygon fill="#e0e0e0" stroke="#999999" points="1186,-228 1091,-228 1091,-198 1186,-198 1186,-228"/>
<text text-anchor="start" x="1099" y="-216" font-family="Helvetica,sans-Serif" font-size="10.00">deal.II/lac/affine</text>
<text text-anchor="middle" x="1138.5" y="-205" font-family="Helvetica,sans-Serif" font-size="10.00">_constraints.h</text>
</a>
</g>
</g>
<!-- Node5&#45;&gt;Node29 -->
<g id="edge42_Node000005_Node000029" class="edge">
<title>Node5&#45;&gt;Node29</title>
<g id="a_edge42_Node000005_Node000029"><a xlink:title=" ">
<path fill="none" stroke="#63b8ff" d="M1186.74,-263.8C1178.71,-255.51 1168.43,-244.89 1159.41,-235.59"/>
<polygon fill="#63b8ff" stroke="#63b8ff" points="1161.69,-232.91 1152.22,-228.16 1156.67,-237.78 1161.69,-232.91"/>
</a>
</g>
</g>
<!-- Node30 -->
<g id="Node000030" class="node">
<title>Node30</title>
<g id="a_Node000030"><a xlink:title=" ">
<polygon fill="#e0e0e0" stroke="#999999" points="1322.5,-228 1204.5,-228 1204.5,-198 1322.5,-198 1322.5,-228"/>
<text text-anchor="start" x="1212.5" y="-216" font-family="Helvetica,sans-Serif" font-size="10.00">deal.II/lac/la_parallel</text>
<text text-anchor="middle" x="1263.5" y="-205" font-family="Helvetica,sans-Serif" font-size="10.00">_vector.h</text>
</a>
</g>
</g>
<!-- Node5&#45;&gt;Node30 -->
<g id="edge43_Node000005_Node000030" class="edge">
<title>Node5&#45;&gt;Node30</title>
<g id="a_edge43_Node000005_Node000030"><a xlink:title=" ">
<path fill="none" stroke="#63b8ff" d="M1214.48,-263.8C1222.72,-255.43 1233.3,-244.68 1242.52,-235.31"/>
<polygon fill="#63b8ff" stroke="#63b8ff" points="1245.04,-237.75 1249.56,-228.16 1240.05,-232.84 1245.04,-237.75"/>
</a>
</g>
</g>
<!-- Node31 -->
<g id="Node000031" class="node">
<title>Node31</title>
<g id="a_Node000031"><a xlink:title=" ">
<polygon fill="#e0e0e0" stroke="#999999" points="1458.5,-228 1340.5,-228 1340.5,-198 1458.5,-198 1458.5,-228"/>
<text text-anchor="start" x="1348.5" y="-216" font-family="Helvetica,sans-Serif" font-size="10.00">deal.II/lac/la_parallel</text>
<text text-anchor="middle" x="1399.5" y="-205" font-family="Helvetica,sans-Serif" font-size="10.00">_vector.templates.h</text>
</a>
</g>
</g>
<!-- Node5&#45;&gt;Node31 -->
<g id="edge44_Node000005_Node000031" class="edge">
<title>Node5&#45;&gt;Node31</title>
<g id="a_edge44_Node000005_Node000031"><a xlink:title=" ">
<path fill="none" stroke="#63b8ff" d="M1244.17,-263.95C1274.24,-254.28 1314.37,-241.38 1346.3,-231.11"/>
<polygon fill="#63b8ff" stroke="#63b8ff" points="1347.48,-234.41 1355.93,-228.01 1345.34,-227.74 1347.48,-234.41"/>
</a>
</g>
</g>
<!-- Node32 -->
<g id="Node000032" class="node">
<title>Node32</title>
<g id="a_Node000032"><a xlink:title=" ">
<polygon fill="#e0e0e0" stroke="#999999" points="1608,-228 1477,-228 1477,-198 1608,-198 1608,-228"/>
<text text-anchor="start" x="1485" y="-216" font-family="Helvetica,sans-Serif" font-size="10.00">deal.II/particles/particle</text>
<text text-anchor="middle" x="1542.5" y="-205" font-family="Helvetica,sans-Serif" font-size="10.00">_handler.h</text>
</a>
</g>
</g>
<!-- Node5&#45;&gt;Node32 -->
<g id="edge45_Node000005_Node000032" class="edge">
<title>Node5&#45;&gt;Node32</title>
<g id="a_edge45_Node000005_Node000032"><a xlink:title=" ">
<path fill="none" stroke="#63b8ff" d="M1261.57,-265.72C1264.59,-265.14 1267.58,-264.56 1270.5,-264 1354.85,-247.86 1378.34,-244.4 1466.73,-228.14"/>
<polygon fill="#63b8ff" stroke="#63b8ff" points="1467.45,-231.56 1476.65,-226.31 1466.18,-224.68 1467.45,-231.56"/>
</a>
</g>
</g>
<!-- Node6&#45;&gt;Node4 -->
<g id="edge37_Node000006_Node000004" class="edge">
<title>Node6&#45;&gt;Node4</title>
<g id="a_edge37_Node000006_Node000004"><a xlink:title=" ">
<path fill="none" stroke="#63b8ff" d="M771.24,-207.95C636.5,-198.28 315.45,-168.93 56.5,-96 54.61,-95.47 52.69,-94.86 50.77,-94.19"/>
<polygon fill="#63b8ff" stroke="#63b8ff" points="51.95,-90.89 41.36,-90.55 49.42,-97.42 51.95,-90.89"/>
</a>
</g>
</g>
<!-- Node7 -->
<g id="Node000007" class="node">
<title>Node7</title>
<g id="a_Node000007"><a xlink:href="core_2utilities_8h.html" target="_top" xlink:title=" ">
<polygon fill="white" stroke="#666666" points="770.5,-156.5 684.5,-156.5 684.5,-137.5 770.5,-137.5 770.5,-156.5"/>
<text text-anchor="middle" x="727.5" y="-144.5" font-family="Helvetica,sans-Serif" font-size="10.00">core/utilities.h</text>
</a>
</g>
</g>
<!-- Node6&#45;&gt;Node7 -->
<g id="edge6_Node000006_Node000007" class="edge">
<title>Node6&#45;&gt;Node7</title>
<g id="a_edge6_Node000006_Node000007"><a xlink:title=" ">
<path fill="none" stroke="#63b8ff" d="M820.93,-203.37C802.98,-192.73 772.23,-174.51 750.94,-161.89"/>
<polygon fill="#63b8ff" stroke="#63b8ff" points="752.57,-158.79 742.18,-156.7 749,-164.81 752.57,-158.79"/>
</a>
</g>
</g>
<!-- Node6&#45;&gt;Node14 -->
<g id="edge33_Node000006_Node000014" class="edge">
<title>Node6&#45;&gt;Node14</title>
<g id="a_edge33_Node000006_Node000014"><a xlink:title=" ">
<path fill="none" stroke="#63b8ff" d="M875.69,-203.49C886.61,-201.42 898.48,-199.41 909.5,-198 1028.14,-182.86 1343.08,-222.08 1446.5,-162 1470.2,-148.23 1485.33,-119.11 1493.11,-100.07"/>
<polygon fill="#63b8ff" stroke="#63b8ff" points="1496.4,-101.27 1496.69,-90.68 1489.86,-98.78 1496.4,-101.27"/>
</a>
</g>
</g>
<!-- Node17 -->
<g id="Node000017" class="node">
<title>Node17</title>
<g id="a_Node000017"><a xlink:title=" ">
<polygon fill="#e0e0e0" stroke="#999999" points="1295,-96 1164,-96 1164,-66 1295,-66 1295,-96"/>
<text text-anchor="start" x="1172" y="-84" font-family="Helvetica,sans-Serif" font-size="10.00">deal.II/particles/particle</text>
<text text-anchor="middle" x="1229.5" y="-73" font-family="Helvetica,sans-Serif" font-size="10.00">_iterator.h</text>
</a>
</g>
</g>
<!-- Node6&#45;&gt;Node17 -->
<g id="edge35_Node000006_Node000017" class="edge">
<title>Node6&#45;&gt;Node17</title>
<g id="a_edge35_Node000006_Node000017"><a xlink:title=" ">
<path fill="none" stroke="#63b8ff" d="M876.84,-203.5C930.3,-192.32 1020.36,-172.85 1052.5,-162 1103.1,-144.92 1158.82,-118.36 1193.97,-100.59"/>
<polygon fill="#63b8ff" stroke="#63b8ff" points="1195.56,-103.7 1202.88,-96.04 1192.38,-97.47 1195.56,-103.7"/>
</a>
</g>
</g>
<!-- Node23 -->
<g id="Node000023" class="node">
<title>Node23</title>
<g id="a_Node000023"><a xlink:href="boundary__cells__info__struct_8h.html" target="_top" xlink:title=" ">
<polygon fill="white" stroke="#666666" points="1437,-162 1322,-162 1322,-132 1437,-132 1437,-162"/>
<text text-anchor="start" x="1330" y="-150" font-family="Helvetica,sans-Serif" font-size="10.00">dem/boundary_cells</text>
<text text-anchor="middle" x="1379.5" y="-139" font-family="Helvetica,sans-Serif" font-size="10.00">_info_struct.h</text>
</a>
</g>
</g>
<!-- Node6&#45;&gt;Node23 -->
<g id="edge25_Node000006_Node000023" class="edge">
<title>Node6&#45;&gt;Node23</title>
<g id="a_edge25_Node000006_Node000023"><a xlink:title=" ">
<path fill="none" stroke="#63b8ff" d="M876.87,-203.45C887.47,-201.46 898.88,-199.49 909.5,-198 1083.2,-173.67 1128.71,-185.71 1302.5,-162 1305.56,-161.58 1308.69,-161.13 1311.85,-160.65"/>
<polygon fill="#63b8ff" stroke="#63b8ff" points="1312.66,-164.06 1321.99,-159.03 1311.56,-157.15 1312.66,-164.06"/>
</a>
</g>
</g>
<!-- Node24 -->
<g id="Node000024" class="node">
<title>Node24</title>
<g id="a_Node000024"><a xlink:title=" ">
<polygon fill="#e0e0e0" stroke="#999999" points="1677.5,-96 1575.5,-96 1575.5,-66 1677.5,-66 1677.5,-96"/>
<text text-anchor="start" x="1583.5" y="-84" font-family="Helvetica,sans-Serif" font-size="10.00">deal.II/distributed</text>
<text text-anchor="middle" x="1626.5" y="-73" font-family="Helvetica,sans-Serif" font-size="10.00">/tria.h</text>
</a>
</g>
</g>
<!-- Node6&#45;&gt;Node24 -->
<g id="edge34_Node000006_Node000024" class="edge">
<title>Node6&#45;&gt;Node24</title>
<g id="a_edge34_Node000006_Node000024"><a xlink:title=" ">
<path fill="none" stroke="#63b8ff" d="M875.68,-203.46C886.61,-201.4 898.47,-199.39 909.5,-198 1159.15,-166.55 1232.27,-230.1 1474.5,-162 1520.55,-149.05 1568.57,-120.92 1598.01,-101.72"/>
<polygon fill="#63b8ff" stroke="#63b8ff" points="1600.12,-104.51 1606.53,-96.07 1596.26,-98.68 1600.12,-104.51"/>
</a>
</g>
</g>
<!-- Node25 -->
<g id="Node000025" class="node">
<title>Node25</title>
<g id="a_Node000025"><a xlink:href="contact__info_8h.html" target="_top" xlink:title=" ">
<polygon fill="white" stroke="#666666" points="1293.5,-156.5 1183.5,-156.5 1183.5,-137.5 1293.5,-137.5 1293.5,-156.5"/>
<text text-anchor="middle" x="1238.5" y="-144.5" font-family="Helvetica,sans-Serif" font-size="10.00">dem/contact_info.h</text>
</a>
</g>
</g>
<!-- Node6&#45;&gt;Node25 -->
<g id="edge29_Node000006_Node000025" class="edge">
<title>Node6&#45;&gt;Node25</title>
<g id="a_edge29_Node000006_Node000025"><a xlink:title=" ">
<path fill="none" stroke="#63b8ff" d="M879.28,-203.45C889.2,-201.58 899.7,-199.67 909.5,-198 1000.91,-182.41 1107.03,-166.71 1173.48,-157.17"/>
<polygon fill="#63b8ff" stroke="#63b8ff" points="1173.99,-160.64 1183.39,-155.75 1173,-153.71 1173.99,-160.64"/>
</a>
</g>
</g>
<!-- Node26 -->
<g id="Node000026" class="node">
<title>Node26</title>
<g id="a_Node000026"><a xlink:title=" ">
<polygon fill="#e0e0e0" stroke="#999999" points="882,-156.5 789,-156.5 789,-137.5 882,-137.5 882,-156.5"/>
<text text-anchor="middle" x="835.5" y="-144.5" font-family="Helvetica,sans-Serif" font-size="10.00">unordered_map</text>
</a>
</g>
</g>
<!-- Node6&#45;&gt;Node26 -->
<g id="edge36_Node000006_Node000026" class="edge">
<title>Node6&#45;&gt;Node26</title>
<g id="a_edge36_Node000006_Node000026"><a xlink:title=" ">
<path fill="none" stroke="#63b8ff" d="M835.5,-203.37C835.5,-194.16 835.5,-179.29 835.5,-167.27"/>
<polygon fill="#63b8ff" stroke="#63b8ff" points="839,-166.91 835.5,-156.91 832,-166.91 839,-166.91"/>
</a>
</g>
</g>
<!-- Node27 -->
<g id="Node000027" class="node">
<title>Node27</title>
<g id="a_Node000027"><a xlink:href="unordered__dense_8h.html" target="_top" xlink:title=" ">
<polygon fill="white" stroke="#666666" points="1043,-156.5 900,-156.5 900,-137.5 1043,-137.5 1043,-156.5"/>
<text text-anchor="middle" x="971.5" y="-144.5" font-family="Helvetica,sans-Serif" font-size="10.00">ankerl/unordered_dense.h</text>
</a>
</g>
</g>
<!-- Node6&#45;&gt;Node27 -->
<g id="edge38_Node000006_Node000027" class="edge">
<title>Node6&#45;&gt;Node27</title>
<g id="a_edge38_Node000006_Node000027"><a xlink:title=" ">
<path fill="none" stroke="#63b8ff" d="M853.84,-203.37C876.96,-192.49 916.91,-173.69 943.77,-161.05"/>
<polygon fill="#63b8ff" stroke="#63b8ff" points="945.46,-164.12 953.01,-156.7 942.48,-157.79 945.46,-164.12"/>
</a>
</g>
</g>
<!-- Node7&#45;&gt;Node3 -->
<g id="edge22_Node000007_Node000003" class="edge">
<title>Node7&#45;&gt;Node3</title>
<g id="a_edge22_Node000007_Node000003"><a xlink:title=" ">
<path fill="none" stroke="#63b8ff" d="M684.08,-143.3C553.96,-135.07 172.87,-110.06 118.5,-96 116.81,-95.56 115.1,-95.04 113.39,-94.46"/>
<polygon fill="#63b8ff" stroke="#63b8ff" points="114.44,-91.11 103.85,-90.64 111.83,-97.6 114.44,-91.11"/>
</a>
</g>
</g>
<!-- Node7&#45;&gt;Node4 -->
<g id="edge24_Node000007_Node000004" class="edge">
<title>Node7&#45;&gt;Node4</title>
<g id="a_edge24_Node000007_Node000004"><a xlink:title=" ">
<path fill="none" stroke="#63b8ff" d="M684.15,-143.59C545.32,-135.77 117.24,-110.72 56.5,-96 54.34,-95.48 52.14,-94.83 49.95,-94.09"/>
<polygon fill="#63b8ff" stroke="#63b8ff" points="51.2,-90.82 40.61,-90.51 48.69,-97.36 51.2,-90.82"/>
</a>
</g>
</g>
<!-- Node8 -->
<g id="Node000008" class="node">
<title>Node8</title>
<g id="a_Node000008"><a xlink:href="output__struct_8h.html" target="_top" xlink:title=" ">
<polygon fill="white" stroke="#666666" points="339.5,-90.5 225.5,-90.5 225.5,-71.5 339.5,-71.5 339.5,-90.5"/>
<text text-anchor="middle" x="282.5" y="-78.5" font-family="Helvetica,sans-Serif" font-size="10.00">core/output_struct.h</text>
</a>
</g>
</g>
<!-- Node7&#45;&gt;Node8 -->
<g id="edge7_Node000007_Node000008" class="edge">
<title>Node7&#45;&gt;Node8</title>
<g id="a_edge7_Node000007_Node000008"><a xlink:title=" ">
<path fill="none" stroke="#63b8ff" d="M684.42,-141.42C613.94,-133.69 469.67,-116.81 348.5,-96 342.58,-94.98 336.39,-93.81 330.27,-92.59"/>
<polygon fill="#63b8ff" stroke="#63b8ff" points="330.6,-89.09 320.1,-90.5 329.19,-95.94 330.6,-89.09"/>
</a>
</g>
</g>
<!-- Node9 -->
<g id="Node000009" class="node">
<title>Node9</title>
<g id="a_Node000009"><a xlink:title=" ">
<polygon fill="#e0e0e0" stroke="#999999" points="248,-30 147,-30 147,0 248,0 248,-30"/>
<text text-anchor="start" x="155" y="-18" font-family="Helvetica,sans-Serif" font-size="10.00">deal.II/base/table</text>
<text text-anchor="middle" x="197.5" y="-7" font-family="Helvetica,sans-Serif" font-size="10.00">_handler.h</text>
</a>
</g>
</g>
<!-- Node7&#45;&gt;Node9 -->
<g id="edge13_Node000007_Node000009" class="edge">
<title>Node7&#45;&gt;Node9</title>
<g id="a_edge13_Node000007_Node000009"><a xlink:title=" ">
<path fill="none" stroke="#63b8ff" d="M684.36,-143.14C564.32,-135.01 234.07,-111.33 216.5,-96 200.84,-82.33 196.85,-58.33 196.32,-40.17"/>
<polygon fill="#63b8ff" stroke="#63b8ff" points="199.82,-40.04 196.35,-30.03 192.82,-40.01 199.82,-40.04"/>
</a>
</g>
</g>
<!-- Node11 -->
<g id="Node000011" class="node">
<title>Node11</title>
<g id="a_Node000011"><a xlink:title=" ">
<polygon fill="#e0e0e0" stroke="#999999" points="487.5,-96 357.5,-96 357.5,-66 487.5,-66 487.5,-96"/>
<text text-anchor="start" x="365.5" y="-84" font-family="Helvetica,sans-Serif" font-size="10.00">deal.II/base/conditional</text>
<text text-anchor="middle" x="422.5" y="-73" font-family="Helvetica,sans-Serif" font-size="10.00">_ostream.h</text>
</a>
</g>
</g>
<!-- Node7&#45;&gt;Node11 -->
<g id="edge10_Node000007_Node000011" class="edge">
<title>Node7&#45;&gt;Node11</title>
<g id="a_edge10_Node000007_Node000011"><a xlink:title=" ">
<path fill="none" stroke="#63b8ff" d="M686.68,-137.44C638.5,-127.32 557.39,-110.31 497.73,-97.79"/>
<polygon fill="#63b8ff" stroke="#63b8ff" points="498.11,-94.29 487.6,-95.66 496.67,-101.14 498.11,-94.29"/>
</a>
</g>
</g>
<!-- Node12 -->
<g id="Node000012" class="node">
<title>Node12</title>
<g id="a_Node000012"><a xlink:title=" ">
<polygon fill="#e0e0e0" stroke="#999999" points="633,-96 506,-96 506,-66 633,-66 633,-96"/>
<text text-anchor="start" x="514" y="-84" font-family="Helvetica,sans-Serif" font-size="10.00">deal.II/base/parameter</text>
<text text-anchor="middle" x="569.5" y="-73" font-family="Helvetica,sans-Serif" font-size="10.00">_handler.h</text>
</a>
</g>
</g>
<!-- Node7&#45;&gt;Node12 -->
<g id="edge11_Node000007_Node000012" class="edge">
<title>Node7&#45;&gt;Node12</title>
<g id="a_edge11_Node000007_Node000012"><a xlink:title=" ">
<path fill="none" stroke="#63b8ff" d="M706.19,-137.37C682.63,-127.82 644.01,-112.18 613.82,-99.95"/>
<polygon fill="#63b8ff" stroke="#63b8ff" points="614.93,-96.63 604.35,-96.12 612.3,-103.11 614.93,-96.63"/>
</a>
</g>
</g>
<!-- Node13 -->
<g id="Node000013" class="node">
<title>Node13</title>
<g id="a_Node000013"><a xlink:title=" ">
<polygon fill="#e0e0e0" stroke="#999999" points="1423.5,-90.5 1313.5,-90.5 1313.5,-71.5 1423.5,-71.5 1423.5,-90.5"/>
<text text-anchor="middle" x="1368.5" y="-78.5" font-family="Helvetica,sans-Serif" font-size="10.00">deal.II/base/point.h</text>
</a>
</g>
</g>
<!-- Node7&#45;&gt;Node13 -->
<g id="edge12_Node000007_Node000013" class="edge">
<title>Node7&#45;&gt;Node13</title>
<g id="a_edge12_Node000007_Node000013"><a xlink:title=" ">
<path fill="none" stroke="#63b8ff" d="M755.89,-137.44C763.79,-135.35 772.42,-133.33 780.5,-132 1010.83,-94.02 1073.41,-129.03 1304.5,-96 1310.78,-95.1 1317.36,-93.93 1323.82,-92.65"/>
<polygon fill="#63b8ff" stroke="#63b8ff" points="1324.72,-96.04 1333.79,-90.56 1323.29,-89.18 1324.72,-96.04"/>
</a>
</g>
</g>
<!-- Node7&#45;&gt;Node14 -->
<g id="edge14_Node000007_Node000014" class="edge">
<title>Node7&#45;&gt;Node14</title>
<g id="a_edge14_Node000007_Node000014"><a xlink:title=" ">
<path fill="none" stroke="#63b8ff" d="M755.6,-137.44C763.58,-135.32 772.32,-133.29 780.5,-132 1067.16,-86.71 1144.75,-133.79 1432.5,-96 1439.31,-95.11 1446.46,-93.9 1453.44,-92.57"/>
<polygon fill="#63b8ff" stroke="#63b8ff" points="1454.39,-95.95 1463.51,-90.56 1453.02,-89.09 1454.39,-95.95"/>
</a>
</g>
</g>
<!-- Node7&#45;&gt;Node15 -->
<g id="edge15_Node000007_Node000015" class="edge">
<title>Node7&#45;&gt;Node15</title>
<g id="a_edge15_Node000007_Node000015"><a xlink:title=" ">
<path fill="none" stroke="#63b8ff" d="M755.32,-137.43C763.37,-135.29 772.22,-133.24 780.5,-132 1179.02,-72.18 1285.84,-139.26 1686.5,-96 1695.25,-95.05 1704.5,-93.72 1713.46,-92.25"/>
<polygon fill="#63b8ff" stroke="#63b8ff" points="1714.16,-95.69 1723.42,-90.55 1712.98,-88.79 1714.16,-95.69"/>
</a>
</g>
</g>
<!-- Node16 -->
<g id="Node000016" class="node">
<title>Node16</title>
<g id="a_Node000016"><a xlink:title=" ">
<polygon fill="#e0e0e0" stroke="#999999" points="770,-90.5 651,-90.5 651,-71.5 770,-71.5 770,-90.5"/>
<text text-anchor="middle" x="710.5" y="-78.5" font-family="Helvetica,sans-Serif" font-size="10.00">deal.II/fe/fe_values.h</text>
</a>
</g>
</g>
<!-- Node7&#45;&gt;Node16 -->
<g id="edge16_Node000007_Node000016" class="edge">
<title>Node7&#45;&gt;Node16</title>
<g id="a_edge16_Node000007_Node000016"><a xlink:title=" ">
<path fill="none" stroke="#63b8ff" d="M725.21,-137.37C722.74,-128.07 718.73,-112.98 715.52,-100.9"/>
<polygon fill="#63b8ff" stroke="#63b8ff" points="718.82,-99.67 712.87,-90.91 712.05,-101.47 718.82,-99.67"/>
</a>
</g>
</g>
<!-- Node7&#45;&gt;Node17 -->
<g id="edge17_Node000007_Node000017" class="edge">
<title>Node7&#45;&gt;Node17</title>
<g id="a_edge17_Node000007_Node000017"><a xlink:title=" ">
<path fill="none" stroke="#63b8ff" d="M756.47,-137.44C764.22,-135.4 772.63,-133.41 780.5,-132 941.67,-103.15 987.37,-118.71 1153.62,-96.02"/>
<polygon fill="#63b8ff" stroke="#63b8ff" points="1154.28,-99.47 1163.7,-94.62 1153.32,-92.53 1154.28,-99.47"/>
</a>
</g>
</g>
<!-- Node18 -->
<g id="Node000018" class="node">
<title>Node18</title>
<g id="a_Node000018"><a xlink:title=" ">
<polygon fill="#e0e0e0" stroke="#999999" points="893,-96 788,-96 788,-66 893,-66 893,-96"/>
<text text-anchor="start" x="796" y="-84" font-family="Helvetica,sans-Serif" font-size="10.00">boost/archive/text</text>
<text text-anchor="middle" x="840.5" y="-73" font-family="Helvetica,sans-Serif" font-size="10.00">_iarchive.hpp</text>
</a>
</g>
</g>
<!-- Node7&#45;&gt;Node18 -->
<g id="edge18_Node000007_Node000018" class="edge">
<title>Node7&#45;&gt;Node18</title>
<g id="a_edge18_Node000007_Node000018"><a xlink:title=" ">
<path fill="none" stroke="#63b8ff" d="M742.74,-137.37C759.08,-128.11 785.55,-113.12 806.82,-101.07"/>
<polygon fill="#63b8ff" stroke="#63b8ff" points="808.6,-104.09 815.58,-96.12 805.15,-98 808.6,-104.09"/>
</a>
</g>
</g>
<!-- Node19 -->
<g id="Node000019" class="node">
<title>Node19</title>
<g id="a_Node000019"><a xlink:title=" ">
<polygon fill="#e0e0e0" stroke="#999999" points="1016,-96 911,-96 911,-66 1016,-66 1016,-96"/>
<text text-anchor="start" x="919" y="-84" font-family="Helvetica,sans-Serif" font-size="10.00">boost/archive/text</text>
<text text-anchor="middle" x="963.5" y="-73" font-family="Helvetica,sans-Serif" font-size="10.00">_oarchive.hpp</text>
</a>
</g>
</g>
<!-- Node7&#45;&gt;Node19 -->
<g id="edge19_Node000007_Node000019" class="edge">
<title>Node7&#45;&gt;Node19</title>
<g id="a_edge19_Node000007_Node000019"><a xlink:title=" ">
<path fill="none" stroke="#63b8ff" d="M759.33,-137.37C795.66,-127.51 855.97,-111.16 901.65,-98.77"/>
<polygon fill="#63b8ff" stroke="#63b8ff" points="902.71,-102.11 911.45,-96.12 900.88,-95.36 902.71,-102.11"/>
</a>
</g>
</g>
<!-- Node20 -->
<g id="Node000020" class="node">
<title>Node20</title>
<g id="a_Node000020"><a xlink:title=" ">
<polygon fill="#e0e0e0" stroke="#999999" points="1089,-90.5 1034,-90.5 1034,-71.5 1089,-71.5 1089,-90.5"/>
<text text-anchor="middle" x="1061.5" y="-78.5" font-family="Helvetica,sans-Serif" font-size="10.00">fstream</text>
</a>
</g>
</g>
<!-- Node7&#45;&gt;Node20 -->
<g id="edge20_Node000007_Node000020" class="edge">
<title>Node7&#45;&gt;Node20</title>
<g id="a_edge20_Node000007_Node000020"><a xlink:title=" ">
<path fill="none" stroke="#63b8ff" d="M757.35,-137.49C764.87,-135.52 772.95,-133.55 780.5,-132 888.32,-109.91 919.1,-124.12 1025.5,-96 1027.8,-95.39 1030.15,-94.69 1032.49,-93.92"/>
<polygon fill="#63b8ff" stroke="#63b8ff" points="1033.73,-97.19 1041.96,-90.52 1031.37,-90.6 1033.73,-97.19"/>
</a>
</g>
</g>
<!-- Node21 -->
<g id="Node000021" class="node">
<title>Node21</title>
<g id="a_Node000021"><a xlink:title=" ">
<polygon fill="#e0e0e0" stroke="#999999" points="1145.5,-90.5 1107.5,-90.5 1107.5,-71.5 1145.5,-71.5 1145.5,-90.5"/>
<text text-anchor="middle" x="1126.5" y="-78.5" font-family="Helvetica,sans-Serif" font-size="10.00">map</text>
</a>
</g>
</g>
<!-- Node7&#45;&gt;Node21 -->
<g id="edge21_Node000007_Node000021" class="edge">
<title>Node7&#45;&gt;Node21</title>
<g id="a_edge21_Node000007_Node000021"><a xlink:title=" ">
<path fill="none" stroke="#63b8ff" d="M756.76,-137.46C764.44,-135.44 772.74,-133.46 780.5,-132 920.3,-105.77 962.13,-136.43 1098.5,-96 1099.76,-95.63 1101.03,-95.2 1102.3,-94.73"/>
<polygon fill="#63b8ff" stroke="#63b8ff" points="1104.04,-97.79 1111.79,-90.56 1101.22,-91.38 1104.04,-97.79"/>
</a>
</g>
</g>
<!-- Node22 -->
<g id="Node000022" class="node">
<title>Node22</title>
<g id="a_Node000022"><a xlink:title=" ">
<polygon fill="#e0e0e0" stroke="#999999" points="169,-90.5 128,-90.5 128,-71.5 169,-71.5 169,-90.5"/>
<text text-anchor="middle" x="148.5" y="-78.5" font-family="Helvetica,sans-Serif" font-size="10.00">tuple</text>
</a>
</g>
</g>
<!-- Node7&#45;&gt;Node22 -->
<g id="edge23_Node000007_Node000022" class="edge">
<title>Node7&#45;&gt;Node22</title>
<g id="a_edge23_Node000007_Node000022"><a xlink:title=" ">
<path fill="none" stroke="#63b8ff" d="M684.22,-143.64C572.85,-137.3 278.48,-118.85 183.5,-96 181.19,-95.44 178.83,-94.77 176.49,-94.01"/>
<polygon fill="#63b8ff" stroke="#63b8ff" points="177.66,-90.71 167.06,-90.58 175.27,-97.29 177.66,-90.71"/>
</a>
</g>
</g>
<!-- Node8&#45;&gt;Node9 -->
<g id="edge8_Node000008_Node000009" class="edge">
<title>Node8&#45;&gt;Node9</title>
<g id="a_edge8_Node000008_Node000009"><a xlink:title=" ">
<path fill="none" stroke="#63b8ff" d="M271.04,-71.37C259.18,-62.44 240.25,-48.19 224.56,-36.38"/>
<polygon fill="#63b8ff" stroke="#63b8ff" points="226.34,-33.33 216.25,-30.12 222.13,-38.93 226.34,-33.33"/>
</a>
</g>
</g>
<!-- Node10 -->
<g id="Node000010" class="node">
<title>Node10</title>
<g id="a_Node000010"><a xlink:title=" ">
<polygon fill="#e0e0e0" stroke="#999999" points="385,-30 266,-30 266,0 385,0 385,-30"/>
<text text-anchor="start" x="274" y="-18" font-family="Helvetica,sans-Serif" font-size="10.00">deal.II/numerics/data</text>
<text text-anchor="middle" x="325.5" y="-7" font-family="Helvetica,sans-Serif" font-size="10.00">_postprocessor.h</text>
</a>
</g>
</g>
<!-- Node8&#45;&gt;Node10 -->
<g id="edge9_Node000008_Node000010" class="edge">
<title>Node8&#45;&gt;Node10</title>
<g id="a_edge9_Node000008_Node000010"><a xlink:title=" ">
<path fill="none" stroke="#63b8ff" d="M288.3,-71.37C293.87,-63.08 302.53,-50.18 310.1,-38.92"/>
<polygon fill="#63b8ff" stroke="#63b8ff" points="313.18,-40.61 315.85,-30.36 307.37,-36.71 313.18,-40.61"/>
</a>
</g>
</g>
<!-- Node23&#45;&gt;Node13 -->
<g id="edge26_Node000023_Node000013" class="edge">
<title>Node23&#45;&gt;Node13</title>
<g id="a_edge26_Node000023_Node000013"><a xlink:title=" ">
<path fill="none" stroke="#63b8ff" d="M1377.06,-131.8C1375.5,-122.7 1373.45,-110.79 1371.75,-100.9"/>
<polygon fill="#63b8ff" stroke="#63b8ff" points="1375.16,-100.11 1370.02,-90.84 1368.26,-101.29 1375.16,-100.11"/>
</a>
</g>
</g>
<!-- Node23&#45;&gt;Node14 -->
<g id="edge27_Node000023_Node000014" class="edge">
<title>Node23&#45;&gt;Node14</title>
<g id="a_edge27_Node000023_Node000014"><a xlink:title=" ">
<path fill="none" stroke="#63b8ff" d="M1405.83,-131.95C1426.32,-121.03 1454.56,-105.97 1474.66,-95.25"/>
<polygon fill="#63b8ff" stroke="#63b8ff" points="1476.35,-98.31 1483.53,-90.52 1473.06,-92.14 1476.35,-98.31"/>
</a>
</g>
</g>
<!-- Node23&#45;&gt;Node24 -->
<g id="edge28_Node000023_Node000024" class="edge">
<title>Node23&#45;&gt;Node24</title>
<g id="a_edge28_Node000023_Node000024"><a xlink:title=" ">
<path fill="none" stroke="#63b8ff" d="M1433.71,-131.95C1472.67,-121.86 1525.24,-108.24 1565.64,-97.77"/>
<polygon fill="#63b8ff" stroke="#63b8ff" points="1566.57,-101.14 1575.37,-95.25 1564.82,-94.37 1566.57,-101.14"/>
</a>
</g>
</g>
<!-- Node25&#45;&gt;Node13 -->
<g id="edge30_Node000025_Node000013" class="edge">
<title>Node25&#45;&gt;Node13</title>
<g id="a_edge30_Node000025_Node000013"><a xlink:title=" ">
<path fill="none" stroke="#63b8ff" d="M1256.03,-137.37C1278.03,-126.54 1315.99,-107.85 1341.65,-95.22"/>
<polygon fill="#63b8ff" stroke="#63b8ff" points="1343.4,-98.26 1350.83,-90.7 1340.31,-91.98 1343.4,-98.26"/>
</a>
</g>
</g>
<!-- Node25&#45;&gt;Node14 -->
<g id="edge31_Node000025_Node000014" class="edge">
<title>Node25&#45;&gt;Node14</title>
<g id="a_edge31_Node000025_Node000014"><a xlink:title=" ">
<path fill="none" stroke="#63b8ff" d="M1273.43,-137.44C1320.31,-125.94 1403.62,-105.51 1454.96,-92.92"/>
<polygon fill="#63b8ff" stroke="#63b8ff" points="1455.9,-96.3 1464.78,-90.51 1454.23,-89.5 1455.9,-96.3"/>
</a>
</g>
</g>
<!-- Node25&#45;&gt;Node17 -->
<g id="edge32_Node000025_Node000017" class="edge">
<title>Node25&#45;&gt;Node17</title>
<g id="a_edge32_Node000025_Node000017"><a xlink:title=" ">
<path fill="none" stroke="#63b8ff" d="M1237.29,-137.37C1236.17,-129.4 1234.45,-117.2 1232.91,-106.27"/>
<polygon fill="#63b8ff" stroke="#63b8ff" points="1236.38,-105.78 1231.52,-96.36 1229.45,-106.75 1236.38,-105.78"/>
</a>
</g>
</g>
</g>
</svg>
