<?xml version="1.0" encoding="UTF-8" standalone="no"?>
<!DOCTYPE svg PUBLIC "-//W3C//DTD SVG 1.1//EN"
 "http://www.w3.org/Graphics/SVG/1.1/DTD/svg11.dtd">
<!-- Generated by graphviz version 2.43.0 (0)
 -->
<!-- Title: /home/runner/work/lethe/lethe/include/dem/adaptive_sparse_contacts.h Pages: 1 -->
<svg width="2060pt" height="313pt"
 viewBox="0.00 0.00 2060.00 313.00" xmlns="http://www.w3.org/2000/svg" xmlns:xlink="http://www.w3.org/1999/xlink">
<g id="graph0" class="graph" transform="scale(1 1) rotate(0) translate(4 309)">
<title>/home/runner/work/lethe/lethe/include/dem/adaptive_sparse_contacts.h</title>
<!-- Node1 -->
<g id="Node000001" class="node">
<title>Node1</title>
<g id="a_Node000001"><a xlink:title=" ">
<polygon fill="#999999" stroke="#666666" points="1516,-305 1363,-305 1363,-264 1516,-264 1516,-305"/>
<text text-anchor="start" x="1371" y="-293" font-family="Helvetica,sans-Serif" font-size="10.00">/home/runner/work/lethe</text>
<text text-anchor="start" x="1371" y="-282" font-family="Helvetica,sans-Serif" font-size="10.00">/lethe/include/dem/adaptive</text>
<text text-anchor="middle" x="1439.5" y="-271" font-family="Helvetica,sans-Serif" font-size="10.00">_sparse_contacts.h</text>
</a>
</g>
</g>
<!-- Node2 -->
<g id="Node000002" class="node">
<title>Node2</title>
<g id="a_Node000002"><a xlink:href="data__containers_8h.html" target="_top" xlink:title=" ">
<polygon fill="white" stroke="#666666" points="899.5,-222.5 771.5,-222.5 771.5,-203.5 899.5,-203.5 899.5,-222.5"/>
<text text-anchor="middle" x="835.5" y="-210.5" font-family="Helvetica,sans-Serif" font-size="10.00">dem/data_containers.h</text>
</a>
</g>
</g>
<!-- Node1&#45;&gt;Node2 -->
<g id="edge1_Node000001_Node000002" class="edge">
<title>Node1&#45;&gt;Node2</title>
<g id="a_edge1_Node000001_Node000002"><a xlink:title=" ">
<path fill="none" stroke="#63b8ff" d="M1362.7,-274.66C1245.96,-261.23 1025.28,-235.84 909.96,-222.57"/>
<polygon fill="#63b8ff" stroke="#63b8ff" points="910.14,-219.07 899.81,-221.4 909.34,-226.02 910.14,-219.07"/>
</a>
</g>
</g>
<!-- Node10 -->
<g id="Node000010" class="node">
<title>Node10</title>
<g id="a_Node000010"><a xlink:title=" ">
<polygon fill="#e0e0e0" stroke="#999999" points="115,-90.5 0,-90.5 0,-71.5 115,-71.5 115,-90.5"/>
<text text-anchor="middle" x="57.5" y="-78.5" font-family="Helvetica,sans-Serif" font-size="10.00">deal.II/base/tensor.h</text>
</a>
</g>
</g>
<!-- Node1&#45;&gt;Node10 -->
<g id="edge36_Node000001_Node000010" class="edge">
<title>Node1&#45;&gt;Node10</title>
<g id="a_edge36_Node000001_Node000010"><a xlink:title=" ">
<path fill="none" stroke="#63b8ff" d="M1362.97,-282.14C1121.22,-276.93 376.91,-253.65 156.5,-162 121.84,-147.59 89.59,-117.08 71.81,-98.18"/>
<polygon fill="#63b8ff" stroke="#63b8ff" points="74.24,-95.65 64.91,-90.64 69.08,-100.38 74.24,-95.65"/>
</a>
</g>
</g>
<!-- Node11 -->
<g id="Node000011" class="node">
<title>Node11</title>
<g id="a_Node000011"><a xlink:title=" ">
<polygon fill="#e0e0e0" stroke="#999999" points="1769.5,-90.5 1629.5,-90.5 1629.5,-71.5 1769.5,-71.5 1769.5,-90.5"/>
<text text-anchor="middle" x="1699.5" y="-78.5" font-family="Helvetica,sans-Serif" font-size="10.00">deal.II/dofs/dof_handler.h</text>
</a>
</g>
</g>
<!-- Node1&#45;&gt;Node11 -->
<g id="edge37_Node000001_Node000011" class="edge">
<title>Node1&#45;&gt;Node11</title>
<g id="a_edge37_Node000001_Node000011"><a xlink:title=" ">
<path fill="none" stroke="#63b8ff" d="M1362.86,-279.44C1221.94,-269.39 944.69,-236.1 1042.5,-132 1086.56,-85.11 1556.61,-103.63 1620.5,-96 1628.95,-94.99 1637.87,-93.67 1646.54,-92.23"/>
<polygon fill="#63b8ff" stroke="#63b8ff" points="1647.31,-95.65 1656.58,-90.52 1646.13,-88.75 1647.31,-95.65"/>
</a>
</g>
</g>
<!-- Node20 -->
<g id="Node000020" class="node">
<title>Node20</title>
<g id="a_Node000020"><a xlink:title=" ">
<polygon fill="#e0e0e0" stroke="#999999" points="1835,-90.5 1788,-90.5 1788,-71.5 1835,-71.5 1835,-90.5"/>
<text text-anchor="middle" x="1811.5" y="-78.5" font-family="Helvetica,sans-Serif" font-size="10.00">vector</text>
</a>
</g>
</g>
<!-- Node1&#45;&gt;Node20 -->
<g id="edge42_Node000001_Node000020" class="edge">
<title>Node1&#45;&gt;Node20</title>
<g id="a_edge42_Node000001_Node000020"><a xlink:title=" ">
<path fill="none" stroke="#63b8ff" d="M1396.5,-263.92C1366.18,-247.39 1334.14,-222.55 1353.5,-198 1473.77,-45.45 1594.01,-156.81 1778.5,-96 1780.13,-95.46 1781.78,-94.88 1783.45,-94.27"/>
<polygon fill="#63b8ff" stroke="#63b8ff" points="1784.85,-97.48 1792.86,-90.54 1782.27,-90.97 1784.85,-97.48"/>
</a>
</g>
</g>
<!-- Node26 -->
<g id="Node000026" class="node">
<title>Node26</title>
<g id="a_Node000026"><a xlink:href="dem__action__manager_8h.html" target="_top" xlink:title=" ">
<polygon fill="white" stroke="#666666" points="1517,-222.5 1362,-222.5 1362,-203.5 1517,-203.5 1517,-222.5"/>
<text text-anchor="middle" x="1439.5" y="-210.5" font-family="Helvetica,sans-Serif" font-size="10.00">dem/dem_action_manager.h</text>
</a>
</g>
</g>
<!-- Node1&#45;&gt;Node26 -->
<g id="edge35_Node000001_Node000026" class="edge">
<title>Node1&#45;&gt;Node26</title>
<g id="a_edge35_Node000001_Node000026"><a xlink:title=" ">
<path fill="none" stroke="#63b8ff" d="M1439.5,-263.77C1439.5,-254.08 1439.5,-242.46 1439.5,-232.88"/>
<polygon fill="#63b8ff" stroke="#63b8ff" points="1443,-232.82 1439.5,-222.82 1436,-232.82 1443,-232.82"/>
</a>
</g>
</g>
<!-- Node27 -->
<g id="Node000027" class="node">
<title>Node27</title>
<g id="a_Node000027"><a xlink:title=" ">
<polygon fill="#e0e0e0" stroke="#999999" points="1630,-228 1535,-228 1535,-198 1630,-198 1630,-228"/>
<text text-anchor="start" x="1543" y="-216" font-family="Helvetica,sans-Serif" font-size="10.00">deal.II/lac/affine</text>
<text text-anchor="middle" x="1582.5" y="-205" font-family="Helvetica,sans-Serif" font-size="10.00">_constraints.h</text>
</a>
</g>
</g>
<!-- Node1&#45;&gt;Node27 -->
<g id="edge38_Node000001_Node000027" class="edge">
<title>Node1&#45;&gt;Node27</title>
<g id="a_edge38_Node000001_Node000027"><a xlink:title=" ">
<path fill="none" stroke="#63b8ff" d="M1479.71,-263.96C1499.97,-254.11 1524.39,-242.24 1544.35,-232.54"/>
<polygon fill="#63b8ff" stroke="#63b8ff" points="1546,-235.63 1553.46,-228.11 1542.94,-229.34 1546,-235.63"/>
</a>
</g>
</g>
<!-- Node28 -->
<g id="Node000028" class="node">
<title>Node28</title>
<g id="a_Node000028"><a xlink:title=" ">
<polygon fill="#e0e0e0" stroke="#999999" points="1766.5,-228 1648.5,-228 1648.5,-198 1766.5,-198 1766.5,-228"/>
<text text-anchor="start" x="1656.5" y="-216" font-family="Helvetica,sans-Serif" font-size="10.00">deal.II/lac/la_parallel</text>
<text text-anchor="middle" x="1707.5" y="-205" font-family="Helvetica,sans-Serif" font-size="10.00">_vector.h</text>
</a>
</g>
</g>
<!-- Node1&#45;&gt;Node28 -->
<g id="edge39_Node000001_Node000028" class="edge">
<title>Node1&#45;&gt;Node28</title>
<g id="a_edge39_Node000001_Node000028"><a xlink:title=" ">
<path fill="none" stroke="#63b8ff" d="M1514.87,-263.96C1555.37,-253.45 1604.78,-240.64 1643.41,-230.62"/>
<polygon fill="#63b8ff" stroke="#63b8ff" points="1644.7,-233.9 1653.5,-228 1642.94,-227.13 1644.7,-233.9"/>
</a>
</g>
</g>
<!-- Node29 -->
<g id="Node000029" class="node">
<title>Node29</title>
<g id="a_Node000029"><a xlink:title=" ">
<polygon fill="#e0e0e0" stroke="#999999" points="1902.5,-228 1784.5,-228 1784.5,-198 1902.5,-198 1902.5,-228"/>
<text text-anchor="start" x="1792.5" y="-216" font-family="Helvetica,sans-Serif" font-size="10.00">deal.II/lac/la_parallel</text>
<text text-anchor="middle" x="1843.5" y="-205" font-family="Helvetica,sans-Serif" font-size="10.00">_vector.templates.h</text>
</a>
</g>
</g>
<!-- Node1&#45;&gt;Node29 -->
<g id="edge40_Node000001_Node000029" class="edge">
<title>Node1&#45;&gt;Node29</title>
<g id="a_edge40_Node000001_Node000029"><a xlink:title=" ">
<path fill="none" stroke="#63b8ff" d="M1516.05,-271.73C1581.92,-261.41 1679.74,-245.59 1774.18,-228.21"/>
<polygon fill="#63b8ff" stroke="#63b8ff" points="1774.99,-231.61 1784.19,-226.35 1773.72,-224.73 1774.99,-231.61"/>
</a>
</g>
</g>
<!-- Node30 -->
<g id="Node000030" class="node">
<title>Node30</title>
<g id="a_Node000030"><a xlink:title=" ">
<polygon fill="#e0e0e0" stroke="#999999" points="2052,-228 1921,-228 1921,-198 2052,-198 2052,-228"/>
<text text-anchor="start" x="1929" y="-216" font-family="Helvetica,sans-Serif" font-size="10.00">deal.II/particles/particle</text>
<text text-anchor="middle" x="1986.5" y="-205" font-family="Helvetica,sans-Serif" font-size="10.00">_handler.h</text>
</a>
</g>
</g>
<!-- Node1&#45;&gt;Node30 -->
<g id="edge41_Node000001_Node000030" class="edge">
<title>Node1&#45;&gt;Node30</title>
<g id="a_edge41_Node000001_Node000030"><a xlink:title=" ">
<path fill="none" stroke="#63b8ff" d="M1516.15,-276.09C1607.61,-266.89 1765.34,-249.89 1910.69,-228.06"/>
<polygon fill="#63b8ff" stroke="#63b8ff" points="1911.33,-231.5 1920.69,-226.54 1910.28,-224.58 1911.33,-231.5"/>
</a>
</g>
</g>
<!-- Node3 -->
<g id="Node000003" class="node">
<title>Node3</title>
<g id="a_Node000003"><a xlink:href="core_2utilities_8h.html" target="_top" xlink:title=" ">
<polygon fill="white" stroke="#666666" points="956.5,-156.5 870.5,-156.5 870.5,-137.5 956.5,-137.5 956.5,-156.5"/>
<text text-anchor="middle" x="913.5" y="-144.5" font-family="Helvetica,sans-Serif" font-size="10.00">core/utilities.h</text>
</a>
</g>
</g>
<!-- Node2&#45;&gt;Node3 -->
<g id="edge2_Node000002_Node000003" class="edge">
<title>Node2&#45;&gt;Node3</title>
<g id="a_edge2_Node000002_Node000003"><a xlink:title=" ">
<path fill="none" stroke="#63b8ff" d="M846.02,-203.37C858.58,-193.06 879.81,-175.65 895.1,-163.09"/>
<polygon fill="#63b8ff" stroke="#63b8ff" points="897.39,-165.75 902.9,-156.7 892.95,-160.34 897.39,-165.75"/>
</a>
</g>
</g>
<!-- Node2&#45;&gt;Node10 -->
<g id="edge29_Node000002_Node000010" class="edge">
<title>Node2&#45;&gt;Node10</title>
<g id="a_edge29_Node000002_Node000010"><a xlink:title=" ">
<path fill="none" stroke="#63b8ff" d="M771.48,-209.17C639.84,-202.92 342.91,-186.54 244.5,-162 183.43,-146.77 116.75,-113.97 81.87,-95.44"/>
<polygon fill="#63b8ff" stroke="#63b8ff" points="83.38,-92.28 72.91,-90.62 80.06,-98.44 83.38,-92.28"/>
</a>
</g>
</g>
<!-- Node13 -->
<g id="Node000013" class="node">
<title>Node13</title>
<g id="a_Node000013"><a xlink:title=" ">
<polygon fill="#e0e0e0" stroke="#999999" points="393,-96 262,-96 262,-66 393,-66 393,-96"/>
<text text-anchor="start" x="270" y="-84" font-family="Helvetica,sans-Serif" font-size="10.00">deal.II/particles/particle</text>
<text text-anchor="middle" x="327.5" y="-73" font-family="Helvetica,sans-Serif" font-size="10.00">_iterator.h</text>
</a>
</g>
</g>
<!-- Node2&#45;&gt;Node13 -->
<g id="edge31_Node000002_Node000013" class="edge">
<title>Node2&#45;&gt;Node13</title>
<g id="a_edge31_Node000002_Node000013"><a xlink:title=" ">
<path fill="none" stroke="#63b8ff" d="M796.62,-203.48C754.33,-194.05 684.83,-178.04 625.5,-162 581.12,-150 570.81,-144.27 526.5,-132 483.48,-120.09 434.9,-107.86 396.51,-98.47"/>
<polygon fill="#63b8ff" stroke="#63b8ff" points="397.02,-95 386.47,-96.03 395.36,-101.8 397.02,-95"/>
</a>
</g>
</g>
<!-- Node2&#45;&gt;Node20 -->
<g id="edge33_Node000002_Node000020" class="edge">
<title>Node2&#45;&gt;Node20</title>
<g id="a_edge33_Node000002_Node000020"><a xlink:title=" ">
<path fill="none" stroke="#63b8ff" d="M858.06,-203.36C883.99,-193.41 927.84,-176.58 965.5,-162 999.75,-148.74 1006.58,-139.66 1042.5,-132 1362.79,-63.67 1459.26,-169.08 1778.5,-96 1780.67,-95.5 1782.88,-94.87 1785.07,-94.15"/>
<polygon fill="#63b8ff" stroke="#63b8ff" points="1786.31,-97.42 1794.41,-90.6 1783.82,-90.88 1786.31,-97.42"/>
</a>
</g>
</g>
<!-- Node21 -->
<g id="Node000021" class="node">
<title>Node21</title>
<g id="a_Node000021"><a xlink:href="boundary__cells__info__struct_8h.html" target="_top" xlink:title=" ">
<polygon fill="white" stroke="#666666" points="518,-162 403,-162 403,-132 518,-132 518,-162"/>
<text text-anchor="start" x="411" y="-150" font-family="Helvetica,sans-Serif" font-size="10.00">dem/boundary_cells</text>
<text text-anchor="middle" x="460.5" y="-139" font-family="Helvetica,sans-Serif" font-size="10.00">_info_struct.h</text>
</a>
</g>
</g>
<!-- Node2&#45;&gt;Node21 -->
<g id="edge21_Node000002_Node000021" class="edge">
<title>Node2&#45;&gt;Node21</title>
<g id="a_edge21_Node000002_Node000021"><a xlink:title=" ">
<path fill="none" stroke="#63b8ff" d="M785.31,-203.44C719.08,-192.13 602.23,-172.19 528.22,-159.56"/>
<polygon fill="#63b8ff" stroke="#63b8ff" points="528.51,-156.06 518.07,-157.82 527.33,-162.96 528.51,-156.06"/>
</a>
</g>
</g>
<!-- Node22 -->
<g id="Node000022" class="node">
<title>Node22</title>
<g id="a_Node000022"><a xlink:title=" ">
<polygon fill="#e0e0e0" stroke="#999999" points="513.5,-96 411.5,-96 411.5,-66 513.5,-66 513.5,-96"/>
<text text-anchor="start" x="419.5" y="-84" font-family="Helvetica,sans-Serif" font-size="10.00">deal.II/distributed</text>
<text text-anchor="middle" x="462.5" y="-73" font-family="Helvetica,sans-Serif" font-size="10.00">/tria.h</text>
</a>
</g>
</g>
<!-- Node2&#45;&gt;Node22 -->
<g id="edge30_Node000002_Node000022" class="edge">
<title>Node2&#45;&gt;Node22</title>
<g id="a_edge30_Node000002_Node000022"><a xlink:title=" ">
<path fill="none" stroke="#63b8ff" d="M814.51,-203.47C776.9,-188.31 695.42,-156.01 625.5,-132 591.14,-120.2 552.27,-108.22 521.1,-98.95"/>
<polygon fill="#63b8ff" stroke="#63b8ff" points="521.85,-95.52 511.27,-96.04 519.87,-102.24 521.85,-95.52"/>
</a>
</g>
</g>
<!-- Node23 -->
<g id="Node000023" class="node">
<title>Node23</title>
<g id="a_Node000023"><a xlink:href="contact__info_8h.html" target="_top" xlink:title=" ">
<polygon fill="white" stroke="#666666" points="363.5,-156.5 253.5,-156.5 253.5,-137.5 363.5,-137.5 363.5,-156.5"/>
<text text-anchor="middle" x="308.5" y="-144.5" font-family="Helvetica,sans-Serif" font-size="10.00">dem/contact_info.h</text>
</a>
</g>
</g>
<!-- Node2&#45;&gt;Node23 -->
<g id="edge25_Node000002_Node000023" class="edge">
<title>Node2&#45;&gt;Node23</title>
<g id="a_edge25_Node000002_Node000023"><a xlink:title=" ">
<path fill="none" stroke="#63b8ff" d="M771.32,-205.77C685.21,-197.17 527.55,-180.61 393.5,-162 385.2,-160.85 376.45,-159.53 367.86,-158.17"/>
<polygon fill="#63b8ff" stroke="#63b8ff" points="368.31,-154.7 357.88,-156.57 367.2,-161.61 368.31,-154.7"/>
</a>
</g>
</g>
<!-- Node24 -->
<g id="Node000024" class="node">
<title>Node24</title>
<g id="a_Node000024"><a xlink:title=" ">
<polygon fill="#e0e0e0" stroke="#999999" points="1144,-156.5 1051,-156.5 1051,-137.5 1144,-137.5 1144,-156.5"/>
<text text-anchor="middle" x="1097.5" y="-144.5" font-family="Helvetica,sans-Serif" font-size="10.00">unordered_map</text>
</a>
</g>
</g>
<!-- Node2&#45;&gt;Node24 -->
<g id="edge32_Node000002_Node000024" class="edge">
<title>Node2&#45;&gt;Node24</title>
<g id="a_edge32_Node000002_Node000024"><a xlink:title=" ">
<path fill="none" stroke="#63b8ff" d="M870.56,-203.44C917.62,-191.94 1001.25,-171.51 1052.79,-158.92"/>
<polygon fill="#63b8ff" stroke="#63b8ff" points="1053.76,-162.29 1062.64,-156.51 1052.1,-155.49 1053.76,-162.29"/>
</a>
</g>
</g>
<!-- Node25 -->
<g id="Node000025" class="node">
<title>Node25</title>
<g id="a_Node000025"><a xlink:href="unordered__dense_8h.html" target="_top" xlink:title=" ">
<polygon fill="white" stroke="#666666" points="1305,-156.5 1162,-156.5 1162,-137.5 1305,-137.5 1305,-156.5"/>
<text text-anchor="middle" x="1233.5" y="-144.5" font-family="Helvetica,sans-Serif" font-size="10.00">ankerl/unordered_dense.h</text>
</a>
</g>
</g>
<!-- Node2&#45;&gt;Node25 -->
<g id="edge34_Node000002_Node000025" class="edge">
<title>Node2&#45;&gt;Node25</title>
<g id="a_edge34_Node000002_Node000025"><a xlink:title=" ">
<path fill="none" stroke="#63b8ff" d="M891.55,-203.49C955.12,-193.76 1061.84,-177.22 1153.5,-162 1160.67,-160.81 1168.2,-159.53 1175.65,-158.25"/>
<polygon fill="#63b8ff" stroke="#63b8ff" points="1176.47,-161.66 1185.72,-156.5 1175.27,-154.76 1176.47,-161.66"/>
</a>
</g>
</g>
<!-- Node4 -->
<g id="Node000004" class="node">
<title>Node4</title>
<g id="a_Node000004"><a xlink:href="output__struct_8h.html" target="_top" xlink:title=" ">
<polygon fill="white" stroke="#666666" points="683.5,-90.5 569.5,-90.5 569.5,-71.5 683.5,-71.5 683.5,-90.5"/>
<text text-anchor="middle" x="626.5" y="-78.5" font-family="Helvetica,sans-Serif" font-size="10.00">core/output_struct.h</text>
</a>
</g>
</g>
<!-- Node3&#45;&gt;Node4 -->
<g id="edge3_Node000003_Node000004" class="edge">
<title>Node3&#45;&gt;Node4</title>
<g id="a_edge3_Node000003_Node000004"><a xlink:title=" ">
<path fill="none" stroke="#63b8ff" d="M875.09,-137.44C823.33,-125.89 731.17,-105.34 674.78,-92.77"/>
<polygon fill="#63b8ff" stroke="#63b8ff" points="675.2,-89.27 664.68,-90.51 673.68,-96.11 675.2,-89.27"/>
</a>
</g>
</g>
<!-- Node5 -->
<g id="Node000005" class="node">
<title>Node5</title>
<g id="a_Node000005"><a xlink:title=" ">
<polygon fill="#e0e0e0" stroke="#999999" points="592,-30 491,-30 491,0 592,0 592,-30"/>
<text text-anchor="start" x="499" y="-18" font-family="Helvetica,sans-Serif" font-size="10.00">deal.II/base/table</text>
<text text-anchor="middle" x="541.5" y="-7" font-family="Helvetica,sans-Serif" font-size="10.00">_handler.h</text>
</a>
</g>
</g>
<!-- Node3&#45;&gt;Node5 -->
<g id="edge9_Node000003_Node000005" class="edge">
<title>Node3&#45;&gt;Node5</title>
<g id="a_edge9_Node000003_Node000005"><a xlink:title=" ">
<path fill="none" stroke="#63b8ff" d="M870.34,-140.53C777.4,-128.66 566.2,-101.2 560.5,-96 545.23,-82.08 541.15,-58.32 540.49,-40.3"/>
<polygon fill="#63b8ff" stroke="#63b8ff" points="543.99,-40.2 540.45,-30.22 536.99,-40.23 543.99,-40.2"/>
</a>
</g>
</g>
<!-- Node7 -->
<g id="Node000007" class="node">
<title>Node7</title>
<g id="a_Node000007"><a xlink:title=" ">
<polygon fill="#e0e0e0" stroke="#999999" points="831.5,-96 701.5,-96 701.5,-66 831.5,-66 831.5,-96"/>
<text text-anchor="start" x="709.5" y="-84" font-family="Helvetica,sans-Serif" font-size="10.00">deal.II/base/conditional</text>
<text text-anchor="middle" x="766.5" y="-73" font-family="Helvetica,sans-Serif" font-size="10.00">_ostream.h</text>
</a>
</g>
</g>
<!-- Node3&#45;&gt;Node7 -->
<g id="edge6_Node000003_Node000007" class="edge">
<title>Node3&#45;&gt;Node7</title>
<g id="a_edge6_Node000003_Node000007"><a xlink:title=" ">
<path fill="none" stroke="#63b8ff" d="M893.67,-137.37C871.85,-127.87 836.14,-112.32 808.1,-100.11"/>
<polygon fill="#63b8ff" stroke="#63b8ff" points="809.49,-96.9 798.92,-96.12 806.69,-103.32 809.49,-96.9"/>
</a>
</g>
</g>
<!-- Node8 -->
<g id="Node000008" class="node">
<title>Node8</title>
<g id="a_Node000008"><a xlink:title=" ">
<polygon fill="#e0e0e0" stroke="#999999" points="977,-96 850,-96 850,-66 977,-66 977,-96"/>
<text text-anchor="start" x="858" y="-84" font-family="Helvetica,sans-Serif" font-size="10.00">deal.II/base/parameter</text>
<text text-anchor="middle" x="913.5" y="-73" font-family="Helvetica,sans-Serif" font-size="10.00">_handler.h</text>
</a>
</g>
</g>
<!-- Node3&#45;&gt;Node8 -->
<g id="edge7_Node000003_Node000008" class="edge">
<title>Node3&#45;&gt;Node8</title>
<g id="a_edge7_Node000003_Node000008"><a xlink:title=" ">
<path fill="none" stroke="#63b8ff" d="M913.5,-137.37C913.5,-129.49 913.5,-117.45 913.5,-106.6"/>
<polygon fill="#63b8ff" stroke="#63b8ff" points="917,-106.36 913.5,-96.36 910,-106.36 917,-106.36"/>
</a>
</g>
</g>
<!-- Node9 -->
<g id="Node000009" class="node">
<title>Node9</title>
<g id="a_Node000009"><a xlink:title=" ">
<polygon fill="#e0e0e0" stroke="#999999" points="243.5,-90.5 133.5,-90.5 133.5,-71.5 243.5,-71.5 243.5,-90.5"/>
<text text-anchor="middle" x="188.5" y="-78.5" font-family="Helvetica,sans-Serif" font-size="10.00">deal.II/base/point.h</text>
</a>
</g>
</g>
<!-- Node3&#45;&gt;Node9 -->
<g id="edge8_Node000003_Node000009" class="edge">
<title>Node3&#45;&gt;Node9</title>
<g id="a_edge8_Node000003_Node000009"><a xlink:title=" ">
<path fill="none" stroke="#63b8ff" d="M870.35,-144.82C764.54,-141.49 483.94,-129.9 252.5,-96 246.22,-95.08 239.64,-93.9 233.19,-92.61"/>
<polygon fill="#63b8ff" stroke="#63b8ff" points="233.72,-89.14 223.21,-90.52 232.28,-96 233.72,-89.14"/>
</a>
</g>
</g>
<!-- Node3&#45;&gt;Node10 -->
<g id="edge10_Node000003_Node000010" class="edge">
<title>Node3&#45;&gt;Node10</title>
<g id="a_edge10_Node000003_Node000010"><a xlink:title=" ">
<path fill="none" stroke="#63b8ff" d="M870.27,-144.08C727.31,-137.59 270.63,-115.79 124.5,-96 117.7,-95.08 110.55,-93.86 103.56,-92.52"/>
<polygon fill="#63b8ff" stroke="#63b8ff" points="103.99,-89.04 93.5,-90.51 102.62,-95.9 103.99,-89.04"/>
</a>
</g>
</g>
<!-- Node3&#45;&gt;Node11 -->
<g id="edge11_Node000003_Node000011" class="edge">
<title>Node3&#45;&gt;Node11</title>
<g id="a_edge11_Node000003_Node000011"><a xlink:title=" ">
<path fill="none" stroke="#63b8ff" d="M943.76,-137.46C952.34,-135.34 961.73,-133.31 970.5,-132 1256.66,-89.31 1333.09,-129.3 1620.5,-96 1628.95,-95.02 1637.87,-93.71 1646.55,-92.29"/>
<polygon fill="#63b8ff" stroke="#63b8ff" points="1647.32,-95.7 1656.59,-90.57 1646.14,-88.8 1647.32,-95.7"/>
</a>
</g>
</g>
<!-- Node12 -->
<g id="Node000012" class="node">
<title>Node12</title>
<g id="a_Node000012"><a xlink:title=" ">
<polygon fill="#e0e0e0" stroke="#999999" points="1114,-90.5 995,-90.5 995,-71.5 1114,-71.5 1114,-90.5"/>
<text text-anchor="middle" x="1054.5" y="-78.5" font-family="Helvetica,sans-Serif" font-size="10.00">deal.II/fe/fe_values.h</text>
</a>
</g>
</g>
<!-- Node3&#45;&gt;Node12 -->
<g id="edge12_Node000003_Node000012" class="edge">
<title>Node3&#45;&gt;Node12</title>
<g id="a_edge12_Node000003_Node000012"><a xlink:title=" ">
<path fill="none" stroke="#63b8ff" d="M932.52,-137.37C956.59,-126.44 998.27,-107.52 1026.11,-94.88"/>
<polygon fill="#63b8ff" stroke="#63b8ff" points="1027.68,-98.02 1035.34,-90.7 1024.78,-91.65 1027.68,-98.02"/>
</a>
</g>
</g>
<!-- Node3&#45;&gt;Node13 -->
<g id="edge13_Node000003_Node000013" class="edge">
<title>Node3&#45;&gt;Node13</title>
<g id="a_edge13_Node000003_Node000013"><a xlink:title=" ">
<path fill="none" stroke="#63b8ff" d="M870.28,-143.05C783.7,-136.86 582.68,-121.1 403.44,-96.05"/>
<polygon fill="#63b8ff" stroke="#63b8ff" points="403.69,-92.55 393.3,-94.62 402.71,-99.48 403.69,-92.55"/>
</a>
</g>
</g>
<!-- Node14 -->
<g id="Node000014" class="node">
<title>Node14</title>
<g id="a_Node000014"><a xlink:title=" ">
<polygon fill="#e0e0e0" stroke="#999999" points="1237,-96 1132,-96 1132,-66 1237,-66 1237,-96"/>
<text text-anchor="start" x="1140" y="-84" font-family="Helvetica,sans-Serif" font-size="10.00">boost/archive/text</text>
<text text-anchor="middle" x="1184.5" y="-73" font-family="Helvetica,sans-Serif" font-size="10.00">_iarchive.hpp</text>
</a>
</g>
</g>
<!-- Node3&#45;&gt;Node14 -->
<g id="edge14_Node000003_Node000014" class="edge">
<title>Node3&#45;&gt;Node14</title>
<g id="a_edge14_Node000003_Node000014"><a xlink:title=" ">
<path fill="none" stroke="#63b8ff" d="M947.85,-137.5C955.31,-135.67 963.17,-133.76 970.5,-132 1021.34,-119.82 1079.06,-106.35 1121.73,-96.47"/>
<polygon fill="#63b8ff" stroke="#63b8ff" points="1122.74,-99.83 1131.69,-94.16 1121.16,-93.01 1122.74,-99.83"/>
</a>
</g>
</g>
<!-- Node15 -->
<g id="Node000015" class="node">
<title>Node15</title>
<g id="a_Node000015"><a xlink:title=" ">
<polygon fill="#e0e0e0" stroke="#999999" points="1360,-96 1255,-96 1255,-66 1360,-66 1360,-96"/>
<text text-anchor="start" x="1263" y="-84" font-family="Helvetica,sans-Serif" font-size="10.00">boost/archive/text</text>
<text text-anchor="middle" x="1307.5" y="-73" font-family="Helvetica,sans-Serif" font-size="10.00">_oarchive.hpp</text>
</a>
</g>
</g>
<!-- Node3&#45;&gt;Node15 -->
<g id="edge15_Node000003_Node000015" class="edge">
<title>Node3&#45;&gt;Node15</title>
<g id="a_edge15_Node000003_Node000015"><a xlink:title=" ">
<path fill="none" stroke="#63b8ff" d="M945.62,-137.45C953.7,-135.48 962.39,-133.52 970.5,-132 1088.88,-109.81 1122.96,-117.43 1244.89,-96.18"/>
<polygon fill="#63b8ff" stroke="#63b8ff" points="1245.76,-99.58 1254.99,-94.39 1244.54,-92.69 1245.76,-99.58"/>
</a>
</g>
</g>
<!-- Node16 -->
<g id="Node000016" class="node">
<title>Node16</title>
<g id="a_Node000016"><a xlink:title=" ">
<polygon fill="#e0e0e0" stroke="#999999" points="1433,-90.5 1378,-90.5 1378,-71.5 1433,-71.5 1433,-90.5"/>
<text text-anchor="middle" x="1405.5" y="-78.5" font-family="Helvetica,sans-Serif" font-size="10.00">fstream</text>
</a>
</g>
</g>
<!-- Node3&#45;&gt;Node16 -->
<g id="edge16_Node000003_Node000016" class="edge">
<title>Node3&#45;&gt;Node16</title>
<g id="a_edge16_Node000003_Node000016"><a xlink:title=" ">
<path fill="none" stroke="#63b8ff" d="M944.68,-137.44C953.02,-135.4 962.06,-133.41 970.5,-132 1146.12,-102.68 1196.15,-136.67 1369.5,-96 1371.87,-95.44 1374.29,-94.76 1376.7,-94.01"/>
<polygon fill="#63b8ff" stroke="#63b8ff" points="1378.13,-97.22 1386.39,-90.58 1375.79,-90.62 1378.13,-97.22"/>
</a>
</g>
</g>
<!-- Node17 -->
<g id="Node000017" class="node">
<title>Node17</title>
<g id="a_Node000017"><a xlink:title=" ">
<polygon fill="#e0e0e0" stroke="#999999" points="1489.5,-90.5 1451.5,-90.5 1451.5,-71.5 1489.5,-71.5 1489.5,-90.5"/>
<text text-anchor="middle" x="1470.5" y="-78.5" font-family="Helvetica,sans-Serif" font-size="10.00">map</text>
</a>
</g>
</g>
<!-- Node3&#45;&gt;Node17 -->
<g id="edge17_Node000003_Node000017" class="edge">
<title>Node3&#45;&gt;Node17</title>
<g id="a_edge17_Node000003_Node000017"><a xlink:title=" ">
<path fill="none" stroke="#63b8ff" d="M944.37,-137.44C952.79,-135.37 961.95,-133.37 970.5,-132 1178.25,-98.8 1239.73,-152.09 1442.5,-96 1443.94,-95.6 1445.39,-95.13 1446.84,-94.6"/>
<polygon fill="#63b8ff" stroke="#63b8ff" points="1448.36,-97.75 1456.11,-90.53 1445.54,-91.35 1448.36,-97.75"/>
</a>
</g>
</g>
<!-- Node18 -->
<g id="Node000018" class="node">
<title>Node18</title>
<g id="a_Node000018"><a xlink:title=" ">
<polygon fill="#e0e0e0" stroke="#999999" points="1551.5,-90.5 1507.5,-90.5 1507.5,-71.5 1551.5,-71.5 1551.5,-90.5"/>
<text text-anchor="middle" x="1529.5" y="-78.5" font-family="Helvetica,sans-Serif" font-size="10.00">string</text>
</a>
</g>
</g>
<!-- Node3&#45;&gt;Node18 -->
<g id="edge18_Node000003_Node000018" class="edge">
<title>Node3&#45;&gt;Node18</title>
<g id="a_edge18_Node000003_Node000018"><a xlink:title=" ">
<path fill="none" stroke="#63b8ff" d="M944.07,-137.46C952.57,-135.37 961.84,-133.35 970.5,-132 1202.91,-95.81 1270.38,-153.31 1498.5,-96 1500.23,-95.56 1501.99,-95.04 1503.74,-94.44"/>
<polygon fill="#63b8ff" stroke="#63b8ff" points="1505.5,-97.51 1513.48,-90.54 1502.9,-91.01 1505.5,-97.51"/>
</a>
</g>
</g>
<!-- Node19 -->
<g id="Node000019" class="node">
<title>Node19</title>
<g id="a_Node000019"><a xlink:title=" ">
<polygon fill="#e0e0e0" stroke="#999999" points="1611,-90.5 1570,-90.5 1570,-71.5 1611,-71.5 1611,-90.5"/>
<text text-anchor="middle" x="1590.5" y="-78.5" font-family="Helvetica,sans-Serif" font-size="10.00">tuple</text>
</a>
</g>
</g>
<!-- Node3&#45;&gt;Node19 -->
<g id="edge19_Node000003_Node000019" class="edge">
<title>Node3&#45;&gt;Node19</title>
<g id="a_edge19_Node000003_Node000019"><a xlink:title=" ">
<path fill="none" stroke="#63b8ff" d="M943.77,-137.49C952.34,-135.38 961.74,-133.33 970.5,-132 1230.22,-92.51 1305.88,-160.69 1560.5,-96 1562.19,-95.57 1563.89,-95.05 1565.59,-94.46"/>
<polygon fill="#63b8ff" stroke="#63b8ff" points="1567.12,-97.61 1575.03,-90.57 1564.45,-91.14 1567.12,-97.61"/>
</a>
</g>
</g>
<!-- Node3&#45;&gt;Node20 -->
<g id="edge20_Node000003_Node000020" class="edge">
<title>Node3&#45;&gt;Node20</title>
<g id="a_edge20_Node000003_Node000020"><a xlink:title=" ">
<path fill="none" stroke="#63b8ff" d="M956.9,-138.68C973.06,-136.19 991.57,-133.64 1008.5,-132 1179,-115.49 1611.48,-134.05 1778.5,-96 1780.67,-95.51 1782.88,-94.88 1785.07,-94.16"/>
<polygon fill="#63b8ff" stroke="#63b8ff" points="1786.31,-97.43 1794.42,-90.6 1783.83,-90.89 1786.31,-97.43"/>
</a>
</g>
</g>
<!-- Node4&#45;&gt;Node5 -->
<g id="edge4_Node000004_Node000005" class="edge">
<title>Node4&#45;&gt;Node5</title>
<g id="a_edge4_Node000004_Node000005"><a xlink:title=" ">
<path fill="none" stroke="#63b8ff" d="M615.04,-71.37C603.18,-62.44 584.25,-48.19 568.56,-36.38"/>
<polygon fill="#63b8ff" stroke="#63b8ff" points="570.34,-33.33 560.25,-30.12 566.13,-38.93 570.34,-33.33"/>
</a>
</g>
</g>
<!-- Node6 -->
<g id="Node000006" class="node">
<title>Node6</title>
<g id="a_Node000006"><a xlink:title=" ">
<polygon fill="#e0e0e0" stroke="#999999" points="729,-30 610,-30 610,0 729,0 729,-30"/>
<text text-anchor="start" x="618" y="-18" font-family="Helvetica,sans-Serif" font-size="10.00">deal.II/numerics/data</text>
<text text-anchor="middle" x="669.5" y="-7" font-family="Helvetica,sans-Serif" font-size="10.00">_postprocessor.h</text>
</a>
</g>
</g>
<!-- Node4&#45;&gt;Node6 -->
<g id="edge5_Node000004_Node000006" class="edge">
<title>Node4&#45;&gt;Node6</title>
<g id="a_edge5_Node000004_Node000006"><a xlink:title=" ">
<path fill="none" stroke="#63b8ff" d="M632.3,-71.37C637.87,-63.08 646.53,-50.18 654.1,-38.92"/>
<polygon fill="#63b8ff" stroke="#63b8ff" points="657.18,-40.61 659.85,-30.36 651.37,-36.71 657.18,-40.61"/>
</a>
</g>
</g>
<!-- Node21&#45;&gt;Node9 -->
<g id="edge22_Node000021_Node000009" class="edge">
<title>Node21&#45;&gt;Node9</title>
<g id="a_edge22_Node000021_Node000009"><a xlink:title=" ">
<path fill="none" stroke="#63b8ff" d="M402.82,-132.43C352.69,-120.63 281.04,-103.77 234.64,-92.86"/>
<polygon fill="#63b8ff" stroke="#63b8ff" points="235.39,-89.44 224.86,-90.55 233.79,-96.25 235.39,-89.44"/>
</a>
</g>
</g>
<!-- Node21&#45;&gt;Node10 -->
<g id="edge23_Node000021_Node000010" class="edge">
<title>Node21&#45;&gt;Node10</title>
<g id="a_edge23_Node000021_Node000010"><a xlink:title=" ">
<path fill="none" stroke="#63b8ff" d="M402.77,-136.7C392.68,-135.11 382.29,-133.49 372.5,-132 262.39,-115.25 234.17,-115.4 124.5,-96 118.65,-94.97 112.54,-93.8 106.48,-92.6"/>
<polygon fill="#63b8ff" stroke="#63b8ff" points="106.89,-89.11 96.39,-90.55 105.5,-95.97 106.89,-89.11"/>
</a>
</g>
</g>
<!-- Node21&#45;&gt;Node22 -->
<g id="edge24_Node000021_Node000022" class="edge">
<title>Node21&#45;&gt;Node22</title>
<g id="a_edge24_Node000021_Node000022"><a xlink:title=" ">
<path fill="none" stroke="#63b8ff" d="M460.94,-131.8C461.18,-124.34 461.47,-114.99 461.74,-106.41"/>
<polygon fill="#63b8ff" stroke="#63b8ff" points="465.24,-106.27 462.06,-96.16 458.25,-106.05 465.24,-106.27"/>
</a>
</g>
</g>
<!-- Node23&#45;&gt;Node9 -->
<g id="edge26_Node000023_Node000009" class="edge">
<title>Node23&#45;&gt;Node9</title>
<g id="a_edge26_Node000023_Node000009"><a xlink:title=" ">
<path fill="none" stroke="#63b8ff" d="M292.32,-137.37C272.19,-126.63 237.59,-108.18 213.91,-95.55"/>
<polygon fill="#63b8ff" stroke="#63b8ff" points="215.28,-92.32 204.81,-90.7 211.99,-98.49 215.28,-92.32"/>
</a>
</g>
</g>
<!-- Node23&#45;&gt;Node10 -->
<g id="edge27_Node000023_Node000010" class="edge">
<title>Node23&#45;&gt;Node10</title>
<g id="a_edge27_Node000023_Node000010"><a xlink:title=" ">
<path fill="none" stroke="#63b8ff" d="M274.91,-137.44C229.92,-125.96 150.04,-105.6 100.65,-93"/>
<polygon fill="#63b8ff" stroke="#63b8ff" points="101.45,-89.59 90.89,-90.51 99.72,-96.38 101.45,-89.59"/>
</a>
</g>
</g>
<!-- Node23&#45;&gt;Node13 -->
<g id="edge28_Node000023_Node000013" class="edge">
<title>Node23&#45;&gt;Node13</title>
<g id="a_edge28_Node000023_Node000013"><a xlink:title=" ">
<path fill="none" stroke="#63b8ff" d="M311.06,-137.37C313.43,-129.4 317.05,-117.2 320.3,-106.27"/>
<polygon fill="#63b8ff" stroke="#63b8ff" points="323.75,-106.94 323.24,-96.36 317.04,-104.95 323.75,-106.94"/>
</a>
</g>
</g>
</g>
</svg>
