<?xml version="1.0" encoding="UTF-8" standalone="no"?>
<!DOCTYPE svg PUBLIC "-//W3C//DTD SVG 1.1//EN"
 "http://www.w3.org/Graphics/SVG/1.1/DTD/svg11.dtd">
<!-- Generated by graphviz version 2.43.0 (0)
 -->
<!-- Title: /home/runner/work/lethe/lethe/source/dem/adaptive_sparse_contacts.cc Pages: 1 -->
<svg width="2035pt" height="379pt"
 viewBox="0.00 0.00 2034.50 379.00" xmlns="http://www.w3.org/2000/svg" xmlns:xlink="http://www.w3.org/1999/xlink">
<g id="graph0" class="graph" transform="scale(1 1) rotate(0) translate(4 375)">
<title>/home/runner/work/lethe/lethe/source/dem/adaptive_sparse_contacts.cc</title>
<!-- Node1 -->
<g id="Node000001" class="node">
<title>Node1</title>
<g id="a_Node000001"><a xlink:title=" ">
<polygon fill="#999999" stroke="#666666" points="1406.5,-371 1256.5,-371 1256.5,-330 1406.5,-330 1406.5,-371"/>
<text text-anchor="start" x="1264.5" y="-359" font-family="Helvetica,sans-Serif" font-size="10.00">/home/runner/work/lethe</text>
<text text-anchor="start" x="1264.5" y="-348" font-family="Helvetica,sans-Serif" font-size="10.00">/lethe/source/dem/adaptive</text>
<text text-anchor="middle" x="1331.5" y="-337" font-family="Helvetica,sans-Serif" font-size="10.00">_sparse_contacts.cc</text>
</a>
</g>
</g>
<!-- Node2 -->
<g id="Node000002" class="node">
<title>Node2</title>
<g id="a_Node000002"><a xlink:href="dem__properties_8h.html" target="_top" xlink:title="DEM particle property definitions and output name management.">
<polygon fill="white" stroke="#666666" points="177.5,-156.5 51.5,-156.5 51.5,-137.5 177.5,-137.5 177.5,-156.5"/>
<text text-anchor="middle" x="114.5" y="-144.5" font-family="Helvetica,sans-Serif" font-size="10.00">core/dem_properties.h</text>
</a>
</g>
</g>
<!-- Node1&#45;&gt;Node2 -->
<g id="edge1_Node000001_Node000002" class="edge">
<title>Node1&#45;&gt;Node2</title>
<g id="a_edge1_Node000001_Node000002"><a xlink:title=" ">
<path fill="none" stroke="#63b8ff" d="M1256.29,-337.05C1033.46,-300.15 379.59,-191.89 175.85,-158.16"/>
<polygon fill="#63b8ff" stroke="#63b8ff" points="176.35,-154.69 165.92,-156.51 175.21,-161.6 176.35,-154.69"/>
</a>
</g>
</g>
<!-- Node5 -->
<g id="Node000005" class="node">
<title>Node5</title>
<g id="a_Node000005"><a xlink:href="adaptive__sparse__contacts_8h.html" target="_top" xlink:title=" ">
<polygon fill="white" stroke="#666666" points="1321.5,-294 1199.5,-294 1199.5,-264 1321.5,-264 1321.5,-294"/>
<text text-anchor="start" x="1207.5" y="-282" font-family="Helvetica,sans-Serif" font-size="10.00">dem/adaptive_sparse</text>
<text text-anchor="middle" x="1260.5" y="-271" font-family="Helvetica,sans-Serif" font-size="10.00">_contacts.h</text>
</a>
</g>
</g>
<!-- Node1&#45;&gt;Node5 -->
<g id="edge4_Node000001_Node000005" class="edge">
<title>Node1&#45;&gt;Node5</title>
<g id="a_edge4_Node000001_Node000005"><a xlink:title=" ">
<path fill="none" stroke="#63b8ff" d="M1311.34,-329.77C1302.25,-320.87 1291.49,-310.33 1282.21,-301.25"/>
<polygon fill="#63b8ff" stroke="#63b8ff" points="1284.44,-298.53 1274.84,-294.04 1279.54,-303.53 1284.44,-298.53"/>
</a>
</g>
</g>
<!-- Node35 -->
<g id="Node000035" class="node">
<title>Node35</title>
<g id="a_Node000035"><a xlink:title=" ">
<polygon fill="#e0e0e0" stroke="#999999" points="1467.5,-288.5 1339.5,-288.5 1339.5,-269.5 1467.5,-269.5 1467.5,-288.5"/>
<text text-anchor="middle" x="1403.5" y="-276.5" font-family="Helvetica,sans-Serif" font-size="10.00">deal.II/dofs/dof_tools.h</text>
</a>
</g>
</g>
<!-- Node1&#45;&gt;Node35 -->
<g id="edge49_Node000001_Node000035" class="edge">
<title>Node1&#45;&gt;Node35</title>
<g id="a_edge49_Node000001_Node000035"><a xlink:title=" ">
<path fill="none" stroke="#63b8ff" d="M1351.94,-329.77C1363.07,-319.02 1376.66,-305.91 1387.09,-295.84"/>
<polygon fill="#63b8ff" stroke="#63b8ff" points="1389.6,-298.28 1394.36,-288.82 1384.74,-293.25 1389.6,-298.28"/>
</a>
</g>
</g>
<!-- Node36 -->
<g id="Node000036" class="node">
<title>Node36</title>
<g id="a_Node000036"><a xlink:title=" ">
<polygon fill="#e0e0e0" stroke="#999999" points="1577.5,-288.5 1485.5,-288.5 1485.5,-269.5 1577.5,-269.5 1577.5,-288.5"/>
<text text-anchor="middle" x="1531.5" y="-276.5" font-family="Helvetica,sans-Serif" font-size="10.00">deal.II/fe/fe_q.h</text>
</a>
</g>
</g>
<!-- Node1&#45;&gt;Node36 -->
<g id="edge50_Node000001_Node000036" class="edge">
<title>Node1&#45;&gt;Node36</title>
<g id="a_edge50_Node000001_Node000036"><a xlink:title=" ">
<path fill="none" stroke="#63b8ff" d="M1387.74,-329.96C1423.04,-317.69 1467.39,-302.28 1497.42,-291.84"/>
<polygon fill="#63b8ff" stroke="#63b8ff" points="1498.73,-295.09 1507.03,-288.5 1496.43,-288.48 1498.73,-295.09"/>
</a>
</g>
</g>
<!-- Node3 -->
<g id="Node000003" class="node">
<title>Node3</title>
<g id="a_Node000003"><a xlink:title=" ">
<polygon fill="#e0e0e0" stroke="#999999" points="109.5,-90.5 65.5,-90.5 65.5,-71.5 109.5,-71.5 109.5,-90.5"/>
<text text-anchor="middle" x="87.5" y="-78.5" font-family="Helvetica,sans-Serif" font-size="10.00">string</text>
</a>
</g>
</g>
<!-- Node2&#45;&gt;Node3 -->
<g id="edge2_Node000002_Node000003" class="edge">
<title>Node2&#45;&gt;Node3</title>
<g id="a_edge2_Node000002_Node000003"><a xlink:title=" ">
<path fill="none" stroke="#63b8ff" d="M110.86,-137.37C106.86,-127.88 100.31,-112.36 95.16,-100.16"/>
<polygon fill="#63b8ff" stroke="#63b8ff" points="98.37,-98.76 91.26,-90.91 91.92,-101.48 98.37,-98.76"/>
</a>
</g>
</g>
<!-- Node4 -->
<g id="Node000004" class="node">
<title>Node4</title>
<g id="a_Node000004"><a xlink:title=" ">
<polygon fill="#e0e0e0" stroke="#999999" points="47,-90.5 0,-90.5 0,-71.5 47,-71.5 47,-90.5"/>
<text text-anchor="middle" x="23.5" y="-78.5" font-family="Helvetica,sans-Serif" font-size="10.00">vector</text>
</a>
</g>
</g>
<!-- Node2&#45;&gt;Node4 -->
<g id="edge3_Node000002_Node000004" class="edge">
<title>Node2&#45;&gt;Node4</title>
<g id="a_edge3_Node000002_Node000004"><a xlink:title=" ">
<path fill="none" stroke="#63b8ff" d="M102.23,-137.37C87.44,-126.97 62.35,-109.32 44.47,-96.75"/>
<polygon fill="#63b8ff" stroke="#63b8ff" points="46.06,-93.59 35.87,-90.7 42.04,-99.31 46.06,-93.59"/>
</a>
</g>
</g>
<!-- Node5&#45;&gt;Node4 -->
<g id="edge48_Node000005_Node000004" class="edge">
<title>Node5&#45;&gt;Node4</title>
<g id="a_edge48_Node000005_Node000004"><a xlink:title=" ">
<path fill="none" stroke="#63b8ff" d="M1199.44,-276.29C964.91,-269.17 130.52,-238.62 42.5,-162 25.2,-146.94 22.13,-119.28 22.25,-100.76"/>
<polygon fill="#63b8ff" stroke="#63b8ff" points="25.75,-100.73 22.63,-90.6 18.75,-100.47 25.75,-100.73"/>
</a>
</g>
</g>
<!-- Node6 -->
<g id="Node000006" class="node">
<title>Node6</title>
<g id="a_Node000006"><a xlink:href="data__containers_8h.html" target="_top" xlink:title=" ">
<polygon fill="white" stroke="#666666" points="959.5,-222.5 831.5,-222.5 831.5,-203.5 959.5,-203.5 959.5,-222.5"/>
<text text-anchor="middle" x="895.5" y="-210.5" font-family="Helvetica,sans-Serif" font-size="10.00">dem/data_containers.h</text>
</a>
</g>
</g>
<!-- Node5&#45;&gt;Node6 -->
<g id="edge5_Node000005_Node000006" class="edge">
<title>Node5&#45;&gt;Node6</title>
<g id="a_edge5_Node000005_Node000006"><a xlink:title=" ">
<path fill="none" stroke="#63b8ff" d="M1199.42,-267.81C1140.5,-257.91 1048.83,-242.32 969.5,-228 963.25,-226.87 956.71,-225.67 950.21,-224.46"/>
<polygon fill="#63b8ff" stroke="#63b8ff" points="950.56,-220.96 940.09,-222.56 949.27,-227.84 950.56,-220.96"/>
</a>
</g>
</g>
<!-- Node14 -->
<g id="Node000014" class="node">
<title>Node14</title>
<g id="a_Node000014"><a xlink:title=" ">
<polygon fill="#e0e0e0" stroke="#999999" points="1748,-90.5 1633,-90.5 1633,-71.5 1748,-71.5 1748,-90.5"/>
<text text-anchor="middle" x="1690.5" y="-78.5" font-family="Helvetica,sans-Serif" font-size="10.00">deal.II/base/tensor.h</text>
</a>
</g>
</g>
<!-- Node5&#45;&gt;Node14 -->
<g id="edge42_Node000005_Node000014" class="edge">
<title>Node5&#45;&gt;Node14</title>
<g id="a_edge42_Node000005_Node000014"><a xlink:title=" ">
<path fill="none" stroke="#63b8ff" d="M1321.52,-265.44C1324.55,-264.93 1327.56,-264.45 1330.5,-264 1407.15,-252.39 1623.08,-283.22 1677.5,-228 1710.91,-194.1 1702.44,-131.81 1695.45,-100.7"/>
<polygon fill="#63b8ff" stroke="#63b8ff" points="1698.8,-99.65 1693.03,-90.76 1692,-101.31 1698.8,-99.65"/>
</a>
</g>
</g>
<!-- Node15 -->
<g id="Node000015" class="node">
<title>Node15</title>
<g id="a_Node000015"><a xlink:title=" ">
<polygon fill="#e0e0e0" stroke="#999999" points="2026.5,-90.5 1886.5,-90.5 1886.5,-71.5 2026.5,-71.5 2026.5,-90.5"/>
<text text-anchor="middle" x="1956.5" y="-78.5" font-family="Helvetica,sans-Serif" font-size="10.00">deal.II/dofs/dof_handler.h</text>
</a>
</g>
</g>
<!-- Node5&#45;&gt;Node15 -->
<g id="edge43_Node000005_Node000015" class="edge">
<title>Node5&#45;&gt;Node15</title>
<g id="a_edge43_Node000005_Node000015"><a xlink:title=" ">
<path fill="none" stroke="#63b8ff" d="M1321.52,-265.42C1324.55,-264.91 1327.56,-264.44 1330.5,-264 1493.49,-239.81 1542.42,-277.79 1699.5,-228 1796.11,-197.38 1896.63,-127.1 1937.51,-96.59"/>
<polygon fill="#63b8ff" stroke="#63b8ff" points="1939.65,-99.36 1945.52,-90.54 1935.43,-93.77 1939.65,-99.36"/>
</a>
</g>
</g>
<!-- Node30 -->
<g id="Node000030" class="node">
<title>Node30</title>
<g id="a_Node000030"><a xlink:href="dem__action__manager_8h.html" target="_top" xlink:title=" ">
<polygon fill="white" stroke="#666666" points="1133,-222.5 978,-222.5 978,-203.5 1133,-203.5 1133,-222.5"/>
<text text-anchor="middle" x="1055.5" y="-210.5" font-family="Helvetica,sans-Serif" font-size="10.00">dem/dem_action_manager.h</text>
</a>
</g>
</g>
<!-- Node5&#45;&gt;Node30 -->
<g id="edge41_Node000005_Node000030" class="edge">
<title>Node5&#45;&gt;Node30</title>
<g id="a_edge41_Node000005_Node000030"><a xlink:title=" ">
<path fill="none" stroke="#63b8ff" d="M1215.51,-263.95C1178.61,-252.43 1127,-236.32 1092.48,-225.54"/>
<polygon fill="#63b8ff" stroke="#63b8ff" points="1093.37,-222.16 1082.78,-222.52 1091.28,-228.84 1093.37,-222.16"/>
</a>
</g>
</g>
<!-- Node31 -->
<g id="Node000031" class="node">
<title>Node31</title>
<g id="a_Node000031"><a xlink:title=" ">
<polygon fill="#e0e0e0" stroke="#999999" points="1246,-228 1151,-228 1151,-198 1246,-198 1246,-228"/>
<text text-anchor="start" x="1159" y="-216" font-family="Helvetica,sans-Serif" font-size="10.00">deal.II/lac/affine</text>
<text text-anchor="middle" x="1198.5" y="-205" font-family="Helvetica,sans-Serif" font-size="10.00">_constraints.h</text>
</a>
</g>
</g>
<!-- Node5&#45;&gt;Node31 -->
<g id="edge44_Node000005_Node000031" class="edge">
<title>Node5&#45;&gt;Node31</title>
<g id="a_edge44_Node000005_Node000031"><a xlink:title=" ">
<path fill="none" stroke="#63b8ff" d="M1246.74,-263.8C1238.71,-255.51 1228.43,-244.89 1219.41,-235.59"/>
<polygon fill="#63b8ff" stroke="#63b8ff" points="1221.69,-232.91 1212.22,-228.16 1216.67,-237.78 1221.69,-232.91"/>
</a>
</g>
</g>
<!-- Node32 -->
<g id="Node000032" class="node">
<title>Node32</title>
<g id="a_Node000032"><a xlink:title=" ">
<polygon fill="#e0e0e0" stroke="#999999" points="1382.5,-228 1264.5,-228 1264.5,-198 1382.5,-198 1382.5,-228"/>
<text text-anchor="start" x="1272.5" y="-216" font-family="Helvetica,sans-Serif" font-size="10.00">deal.II/lac/la_parallel</text>
<text text-anchor="middle" x="1323.5" y="-205" font-family="Helvetica,sans-Serif" font-size="10.00">_vector.h</text>
</a>
</g>
</g>
<!-- Node5&#45;&gt;Node32 -->
<g id="edge45_Node000005_Node000032" class="edge">
<title>Node5&#45;&gt;Node32</title>
<g id="a_edge45_Node000005_Node000032"><a xlink:title=" ">
<path fill="none" stroke="#63b8ff" d="M1274.48,-263.8C1282.72,-255.43 1293.3,-244.68 1302.52,-235.31"/>
<polygon fill="#63b8ff" stroke="#63b8ff" points="1305.04,-237.75 1309.56,-228.16 1300.05,-232.84 1305.04,-237.75"/>
</a>
</g>
</g>
<!-- Node33 -->
<g id="Node000033" class="node">
<title>Node33</title>
<g id="a_Node000033"><a xlink:title=" ">
<polygon fill="#e0e0e0" stroke="#999999" points="1518.5,-228 1400.5,-228 1400.5,-198 1518.5,-198 1518.5,-228"/>
<text text-anchor="start" x="1408.5" y="-216" font-family="Helvetica,sans-Serif" font-size="10.00">deal.II/lac/la_parallel</text>
<text text-anchor="middle" x="1459.5" y="-205" font-family="Helvetica,sans-Serif" font-size="10.00">_vector.templates.h</text>
</a>
</g>
</g>
<!-- Node5&#45;&gt;Node33 -->
<g id="edge46_Node000005_Node000033" class="edge">
<title>Node5&#45;&gt;Node33</title>
<g id="a_edge46_Node000005_Node000033"><a xlink:title=" ">
<path fill="none" stroke="#63b8ff" d="M1304.17,-263.95C1334.24,-254.28 1374.37,-241.38 1406.3,-231.11"/>
<polygon fill="#63b8ff" stroke="#63b8ff" points="1407.48,-234.41 1415.93,-228.01 1405.34,-227.74 1407.48,-234.41"/>
</a>
</g>
</g>
<!-- Node34 -->
<g id="Node000034" class="node">
<title>Node34</title>
<g id="a_Node000034"><a xlink:title=" ">
<polygon fill="#e0e0e0" stroke="#999999" points="1668,-228 1537,-228 1537,-198 1668,-198 1668,-228"/>
<text text-anchor="start" x="1545" y="-216" font-family="Helvetica,sans-Serif" font-size="10.00">deal.II/particles/particle</text>
<text text-anchor="middle" x="1602.5" y="-205" font-family="Helvetica,sans-Serif" font-size="10.00">_handler.h</text>
</a>
</g>
</g>
<!-- Node5&#45;&gt;Node34 -->
<g id="edge47_Node000005_Node000034" class="edge">
<title>Node5&#45;&gt;Node34</title>
<g id="a_edge47_Node000005_Node000034"><a xlink:title=" ">
<path fill="none" stroke="#63b8ff" d="M1321.57,-265.72C1324.59,-265.14 1327.58,-264.56 1330.5,-264 1414.85,-247.86 1438.34,-244.4 1526.73,-228.14"/>
<polygon fill="#63b8ff" stroke="#63b8ff" points="1527.45,-231.56 1536.65,-226.31 1526.18,-224.68 1527.45,-231.56"/>
</a>
</g>
</g>
<!-- Node6&#45;&gt;Node4 -->
<g id="edge39_Node000006_Node000004" class="edge">
<title>Node6&#45;&gt;Node4</title>
<g id="a_edge39_Node000006_Node000004"><a xlink:title=" ">
<path fill="none" stroke="#63b8ff" d="M831.46,-208.9C689.53,-200.8 338.75,-173.9 56.5,-96 54.61,-95.48 52.69,-94.87 50.76,-94.21"/>
<polygon fill="#63b8ff" stroke="#63b8ff" points="51.94,-90.91 41.35,-90.58 49.42,-97.45 51.94,-90.91"/>
</a>
</g>
</g>
<!-- Node7 -->
<g id="Node000007" class="node">
<title>Node7</title>
<g id="a_Node000007"><a xlink:href="utilities_8h.html" target="_top" xlink:title=" ">
<polygon fill="white" stroke="#666666" points="938.5,-156.5 852.5,-156.5 852.5,-137.5 938.5,-137.5 938.5,-156.5"/>
<text text-anchor="middle" x="895.5" y="-144.5" font-family="Helvetica,sans-Serif" font-size="10.00">core/utilities.h</text>
</a>
</g>
</g>
<!-- Node6&#45;&gt;Node7 -->
<g id="edge6_Node000006_Node000007" class="edge">
<title>Node6&#45;&gt;Node7</title>
<g id="a_edge6_Node000006_Node000007"><a xlink:title=" ">
<path fill="none" stroke="#63b8ff" d="M895.5,-203.37C895.5,-194.16 895.5,-179.29 895.5,-167.27"/>
<polygon fill="#63b8ff" stroke="#63b8ff" points="899,-166.91 895.5,-156.91 892,-166.91 899,-166.91"/>
</a>
</g>
</g>
<!-- Node6&#45;&gt;Node14 -->
<g id="edge35_Node000006_Node000014" class="edge">
<title>Node6&#45;&gt;Node14</title>
<g id="a_edge35_Node000006_Node000014"><a xlink:title=" ">
<path fill="none" stroke="#63b8ff" d="M935.29,-203.47C946.32,-201.38 958.34,-199.35 969.5,-198 1042.63,-189.13 1566.67,-196.98 1631.5,-162 1656.6,-148.45 1673.89,-119.05 1682.98,-99.91"/>
<polygon fill="#63b8ff" stroke="#63b8ff" points="1686.2,-101.3 1687.09,-90.74 1679.81,-98.44 1686.2,-101.3"/>
</a>
</g>
</g>
<!-- Node17 -->
<g id="Node000017" class="node">
<title>Node17</title>
<g id="a_Node000017"><a xlink:title=" ">
<polygon fill="#e0e0e0" stroke="#999999" points="1486,-96 1355,-96 1355,-66 1486,-66 1486,-96"/>
<text text-anchor="start" x="1363" y="-84" font-family="Helvetica,sans-Serif" font-size="10.00">deal.II/particles/particle</text>
<text text-anchor="middle" x="1420.5" y="-73" font-family="Helvetica,sans-Serif" font-size="10.00">_iterator.h</text>
</a>
</g>
</g>
<!-- Node6&#45;&gt;Node17 -->
<g id="edge37_Node000006_Node000017" class="edge">
<title>Node6&#45;&gt;Node17</title>
<g id="a_edge37_Node000006_Node000017"><a xlink:title=" ">
<path fill="none" stroke="#63b8ff" d="M929.95,-203.47C1015.86,-182.2 1240.83,-126.49 1353.78,-98.52"/>
<polygon fill="#63b8ff" stroke="#63b8ff" points="1354.83,-101.87 1363.69,-96.07 1353.14,-95.07 1354.83,-101.87"/>
</a>
</g>
</g>
<!-- Node25 -->
<g id="Node000025" class="node">
<title>Node25</title>
<g id="a_Node000025"><a xlink:href="boundary__cells__info__struct_8h.html" target="_top" xlink:title=" ">
<polygon fill="white" stroke="#666666" points="1622,-162 1507,-162 1507,-132 1622,-132 1622,-162"/>
<text text-anchor="start" x="1515" y="-150" font-family="Helvetica,sans-Serif" font-size="10.00">dem/boundary_cells</text>
<text text-anchor="middle" x="1564.5" y="-139" font-family="Helvetica,sans-Serif" font-size="10.00">_info_struct.h</text>
</a>
</g>
</g>
<!-- Node6&#45;&gt;Node25 -->
<g id="edge27_Node000006_Node000025" class="edge">
<title>Node6&#45;&gt;Node25</title>
<g id="a_edge27_Node000006_Node000025"><a xlink:title=" ">
<path fill="none" stroke="#63b8ff" d="M936.07,-203.43C946.89,-201.39 958.61,-199.4 969.5,-198 1199.71,-168.38 1260.29,-191.62 1490.5,-162 1492.58,-161.73 1494.68,-161.44 1496.81,-161.14"/>
<polygon fill="#63b8ff" stroke="#63b8ff" points="1497.49,-164.57 1506.84,-159.59 1496.42,-157.66 1497.49,-164.57"/>
</a>
</g>
</g>
<!-- Node26 -->
<g id="Node000026" class="node">
<title>Node26</title>
<g id="a_Node000026"><a xlink:title=" ">
<polygon fill="#e0e0e0" stroke="#999999" points="1868.5,-96 1766.5,-96 1766.5,-66 1868.5,-66 1868.5,-96"/>
<text text-anchor="start" x="1774.5" y="-84" font-family="Helvetica,sans-Serif" font-size="10.00">deal.II/distributed</text>
<text text-anchor="middle" x="1817.5" y="-73" font-family="Helvetica,sans-Serif" font-size="10.00">/tria.h</text>
</a>
</g>
</g>
<!-- Node6&#45;&gt;Node26 -->
<g id="edge36_Node000006_Node000026" class="edge">
<title>Node6&#45;&gt;Node26</title>
<g id="a_edge36_Node000006_Node000026"><a xlink:title=" ">
<path fill="none" stroke="#63b8ff" d="M935.29,-203.45C946.32,-201.36 958.34,-199.34 969.5,-198 1122.17,-179.67 1511.97,-201.78 1660.5,-162 1708.1,-149.25 1757.97,-120.87 1788.4,-101.58"/>
<polygon fill="#63b8ff" stroke="#63b8ff" points="1790.3,-104.51 1796.82,-96.15 1786.51,-98.62 1790.3,-104.51"/>
</a>
</g>
</g>
<!-- Node27 -->
<g id="Node000027" class="node">
<title>Node27</title>
<g id="a_Node000027"><a xlink:href="contact__info_8h.html" target="_top" xlink:title=" ">
<polygon fill="white" stroke="#666666" points="1481.5,-156.5 1371.5,-156.5 1371.5,-137.5 1481.5,-137.5 1481.5,-156.5"/>
<text text-anchor="middle" x="1426.5" y="-144.5" font-family="Helvetica,sans-Serif" font-size="10.00">dem/contact_info.h</text>
</a>
</g>
</g>
<!-- Node6&#45;&gt;Node27 -->
<g id="edge31_Node000006_Node000027" class="edge">
<title>Node6&#45;&gt;Node27</title>
<g id="a_edge31_Node000006_Node000027"><a xlink:title=" ">
<path fill="none" stroke="#63b8ff" d="M937.67,-203.43C948.05,-201.49 959.15,-199.54 969.5,-198 1108.46,-177.29 1272.4,-161.42 1361.26,-153.52"/>
<polygon fill="#63b8ff" stroke="#63b8ff" points="1361.8,-156.99 1371.45,-152.63 1361.18,-150.02 1361.8,-156.99"/>
</a>
</g>
</g>
<!-- Node28 -->
<g id="Node000028" class="node">
<title>Node28</title>
<g id="a_Node000028"><a xlink:title=" ">
<polygon fill="#e0e0e0" stroke="#999999" points="673,-156.5 580,-156.5 580,-137.5 673,-137.5 673,-156.5"/>
<text text-anchor="middle" x="626.5" y="-144.5" font-family="Helvetica,sans-Serif" font-size="10.00">unordered_map</text>
</a>
</g>
</g>
<!-- Node6&#45;&gt;Node28 -->
<g id="edge38_Node000006_Node000028" class="edge">
<title>Node6&#45;&gt;Node28</title>
<g id="a_edge38_Node000006_Node000028"><a xlink:title=" ">
<path fill="none" stroke="#63b8ff" d="M858.52,-203.49C816.01,-193.67 744.15,-176.94 682.5,-162 678.45,-161.02 674.23,-159.98 670.01,-158.94"/>
<polygon fill="#63b8ff" stroke="#63b8ff" points="670.79,-155.53 660.24,-156.52 669.1,-162.32 670.79,-155.53"/>
</a>
</g>
</g>
<!-- Node29 -->
<g id="Node000029" class="node">
<title>Node29</title>
<g id="a_Node000029"><a xlink:href="unordered__dense_8h.html" target="_top" xlink:title=" ">
<polygon fill="white" stroke="#666666" points="834,-156.5 691,-156.5 691,-137.5 834,-137.5 834,-156.5"/>
<text text-anchor="middle" x="762.5" y="-144.5" font-family="Helvetica,sans-Serif" font-size="10.00">ankerl/unordered_dense.h</text>
</a>
</g>
</g>
<!-- Node6&#45;&gt;Node29 -->
<g id="edge40_Node000006_Node000029" class="edge">
<title>Node6&#45;&gt;Node29</title>
<g id="a_edge40_Node000006_Node000029"><a xlink:title=" ">
<path fill="none" stroke="#63b8ff" d="M877.56,-203.37C854.96,-192.49 815.88,-173.69 789.62,-161.05"/>
<polygon fill="#63b8ff" stroke="#63b8ff" points="791.11,-157.88 780.58,-156.7 788.07,-164.19 791.11,-157.88"/>
</a>
</g>
</g>
<!-- Node7&#45;&gt;Node3 -->
<g id="edge24_Node000007_Node000003" class="edge">
<title>Node7&#45;&gt;Node3</title>
<g id="a_edge24_Node000007_Node000003"><a xlink:title=" ">
<path fill="none" stroke="#63b8ff" d="M868.21,-137.48C860.31,-135.34 851.63,-133.28 843.5,-132 524.81,-81.78 432.11,-171.72 118.5,-96 116.76,-95.58 115,-95.07 113.25,-94.48"/>
<polygon fill="#63b8ff" stroke="#63b8ff" points="114.09,-91.05 103.5,-90.6 111.5,-97.55 114.09,-91.05"/>
</a>
</g>
</g>
<!-- Node7&#45;&gt;Node4 -->
<g id="edge26_Node000007_Node000004" class="edge">
<title>Node7&#45;&gt;Node4</title>
<g id="a_edge26_Node000007_Node000004"><a xlink:title=" ">
<path fill="none" stroke="#63b8ff" d="M868.21,-137.46C860.31,-135.31 851.63,-133.26 843.5,-132 497.52,-78.17 397.94,-173.6 56.5,-96 54.33,-95.51 52.12,-94.88 49.93,-94.16"/>
<polygon fill="#63b8ff" stroke="#63b8ff" points="51.17,-90.89 40.58,-90.61 48.69,-97.43 51.17,-90.89"/>
</a>
</g>
</g>
<!-- Node8 -->
<g id="Node000008" class="node">
<title>Node8</title>
<g id="a_Node000008"><a xlink:href="output__struct_8h.html" target="_top" xlink:title=" ">
<polygon fill="white" stroke="#666666" points="531.5,-90.5 417.5,-90.5 417.5,-71.5 531.5,-71.5 531.5,-90.5"/>
<text text-anchor="middle" x="474.5" y="-78.5" font-family="Helvetica,sans-Serif" font-size="10.00">core/output_struct.h</text>
</a>
</g>
</g>
<!-- Node7&#45;&gt;Node8 -->
<g id="edge7_Node000007_Node000008" class="edge">
<title>Node7&#45;&gt;Node8</title>
<g id="a_edge7_Node000007_Node000008"><a xlink:title=" ">
<path fill="none" stroke="#63b8ff" d="M866.79,-137.48C859.26,-135.46 851.12,-133.47 843.5,-132 710.34,-106.3 674.3,-118.09 540.5,-96 534.36,-94.99 527.92,-93.79 521.57,-92.53"/>
<polygon fill="#63b8ff" stroke="#63b8ff" points="522.23,-89.09 511.74,-90.52 520.83,-95.95 522.23,-89.09"/>
</a>
</g>
</g>
<!-- Node9 -->
<g id="Node000009" class="node">
<title>Node9</title>
<g id="a_Node000009"><a xlink:title=" ">
<polygon fill="#e0e0e0" stroke="#999999" points="440,-30 339,-30 339,0 440,0 440,-30"/>
<text text-anchor="start" x="347" y="-18" font-family="Helvetica,sans-Serif" font-size="10.00">deal.II/base/table</text>
<text text-anchor="middle" x="389.5" y="-7" font-family="Helvetica,sans-Serif" font-size="10.00">_handler.h</text>
</a>
</g>
</g>
<!-- Node7&#45;&gt;Node9 -->
<g id="edge13_Node000007_Node000009" class="edge">
<title>Node7&#45;&gt;Node9</title>
<g id="a_edge13_Node000007_Node000009"><a xlink:title=" ">
<path fill="none" stroke="#63b8ff" d="M867.37,-137.43C859.69,-135.37 851.33,-133.37 843.5,-132 747.95,-115.32 482.05,-159.23 408.5,-96 392.74,-82.45 388.76,-58.43 388.26,-40.24"/>
<polygon fill="#63b8ff" stroke="#63b8ff" points="391.76,-40.09 388.31,-30.07 384.76,-40.05 391.76,-40.09"/>
</a>
</g>
</g>
<!-- Node11 -->
<g id="Node000011" class="node">
<title>Node11</title>
<g id="a_Node000011"><a xlink:title=" ">
<polygon fill="#e0e0e0" stroke="#999999" points="679.5,-96 549.5,-96 549.5,-66 679.5,-66 679.5,-96"/>
<text text-anchor="start" x="557.5" y="-84" font-family="Helvetica,sans-Serif" font-size="10.00">deal.II/base/conditional</text>
<text text-anchor="middle" x="614.5" y="-73" font-family="Helvetica,sans-Serif" font-size="10.00">_ostream.h</text>
</a>
</g>
</g>
<!-- Node7&#45;&gt;Node11 -->
<g id="edge10_Node000007_Node000011" class="edge">
<title>Node7&#45;&gt;Node11</title>
<g id="a_edge10_Node000007_Node000011"><a xlink:title=" ">
<path fill="none" stroke="#63b8ff" d="M864.77,-137.46C857.79,-135.6 850.4,-133.68 843.5,-132 792.41,-119.55 734.54,-106.93 689.77,-97.48"/>
<polygon fill="#63b8ff" stroke="#63b8ff" points="690.35,-94.03 679.84,-95.4 688.9,-100.88 690.35,-94.03"/>
</a>
</g>
</g>
<!-- Node12 -->
<g id="Node000012" class="node">
<title>Node12</title>
<g id="a_Node000012"><a xlink:title=" ">
<polygon fill="#e0e0e0" stroke="#999999" points="825,-96 698,-96 698,-66 825,-66 825,-96"/>
<text text-anchor="start" x="706" y="-84" font-family="Helvetica,sans-Serif" font-size="10.00">deal.II/base/parameter</text>
<text text-anchor="middle" x="761.5" y="-73" font-family="Helvetica,sans-Serif" font-size="10.00">_handler.h</text>
</a>
</g>
</g>
<!-- Node7&#45;&gt;Node12 -->
<g id="edge11_Node000007_Node000012" class="edge">
<title>Node7&#45;&gt;Node12</title>
<g id="a_edge11_Node000007_Node000012"><a xlink:title=" ">
<path fill="none" stroke="#63b8ff" d="M877.43,-137.37C857.7,-127.95 825.54,-112.59 800.09,-100.43"/>
<polygon fill="#63b8ff" stroke="#63b8ff" points="801.59,-97.27 791.05,-96.12 798.57,-103.58 801.59,-97.27"/>
</a>
</g>
</g>
<!-- Node13 -->
<g id="Node000013" class="node">
<title>Node13</title>
<g id="a_Node000013"><a xlink:title=" ">
<polygon fill="#e0e0e0" stroke="#999999" points="1614.5,-90.5 1504.5,-90.5 1504.5,-71.5 1614.5,-71.5 1614.5,-90.5"/>
<text text-anchor="middle" x="1559.5" y="-78.5" font-family="Helvetica,sans-Serif" font-size="10.00">deal.II/base/point.h</text>
</a>
</g>
</g>
<!-- Node7&#45;&gt;Node13 -->
<g id="edge12_Node000007_Node000013" class="edge">
<title>Node7&#45;&gt;Node13</title>
<g id="a_edge12_Node000007_Node000013"><a xlink:title=" ">
<path fill="none" stroke="#63b8ff" d="M938.65,-144.36C1037.59,-140.18 1288.25,-127.16 1495.5,-96 1501.7,-95.07 1508.2,-93.89 1514.58,-92.61"/>
<polygon fill="#63b8ff" stroke="#63b8ff" points="1515.37,-96.02 1524.44,-90.54 1513.94,-89.17 1515.37,-96.02"/>
</a>
</g>
</g>
<!-- Node7&#45;&gt;Node14 -->
<g id="edge14_Node000007_Node000014" class="edge">
<title>Node7&#45;&gt;Node14</title>
<g id="a_edge14_Node000007_Node000014"><a xlink:title=" ">
<path fill="none" stroke="#63b8ff" d="M938.79,-145.1C1051.88,-142.3 1365.29,-131.67 1623.5,-96 1630.22,-95.07 1637.28,-93.86 1644.19,-92.54"/>
<polygon fill="#63b8ff" stroke="#63b8ff" points="1645.03,-95.94 1654.15,-90.54 1643.65,-89.08 1645.03,-95.94"/>
</a>
</g>
</g>
<!-- Node7&#45;&gt;Node15 -->
<g id="edge15_Node000007_Node000015" class="edge">
<title>Node7&#45;&gt;Node15</title>
<g id="a_edge15_Node000007_Node000015"><a xlink:title=" ">
<path fill="none" stroke="#63b8ff" d="M938.62,-144.52C1103.15,-138.77 1691.45,-117.14 1877.5,-96 1886.05,-95.03 1895.08,-93.71 1903.86,-92.27"/>
<polygon fill="#63b8ff" stroke="#63b8ff" points="1904.74,-95.67 1914,-90.53 1903.56,-88.77 1904.74,-95.67"/>
</a>
</g>
</g>
<!-- Node16 -->
<g id="Node000016" class="node">
<title>Node16</title>
<g id="a_Node000016"><a xlink:title=" ">
<polygon fill="#e0e0e0" stroke="#999999" points="962,-90.5 843,-90.5 843,-71.5 962,-71.5 962,-90.5"/>
<text text-anchor="middle" x="902.5" y="-78.5" font-family="Helvetica,sans-Serif" font-size="10.00">deal.II/fe/fe_values.h</text>
</a>
</g>
</g>
<!-- Node7&#45;&gt;Node16 -->
<g id="edge16_Node000007_Node000016" class="edge">
<title>Node7&#45;&gt;Node16</title>
<g id="a_edge16_Node000007_Node000016"><a xlink:title=" ">
<path fill="none" stroke="#63b8ff" d="M896.44,-137.37C897.46,-128.07 899.11,-112.98 900.43,-100.9"/>
<polygon fill="#63b8ff" stroke="#63b8ff" points="903.92,-101.23 901.53,-90.91 896.96,-100.47 903.92,-101.23"/>
</a>
</g>
</g>
<!-- Node7&#45;&gt;Node17 -->
<g id="edge17_Node000007_Node000017" class="edge">
<title>Node7&#45;&gt;Node17</title>
<g id="a_edge17_Node000007_Node000017"><a xlink:title=" ">
<path fill="none" stroke="#63b8ff" d="M938.76,-142.27C1017.4,-135.24 1189.21,-118.83 1344.49,-96.08"/>
<polygon fill="#63b8ff" stroke="#63b8ff" points="1345.32,-99.49 1354.7,-94.57 1344.29,-92.57 1345.32,-99.49"/>
</a>
</g>
</g>
<!-- Node18 -->
<g id="Node000018" class="node">
<title>Node18</title>
<g id="a_Node000018"><a xlink:title=" ">
<polygon fill="#e0e0e0" stroke="#999999" points="1085,-96 980,-96 980,-66 1085,-66 1085,-96"/>
<text text-anchor="start" x="988" y="-84" font-family="Helvetica,sans-Serif" font-size="10.00">boost/archive/text</text>
<text text-anchor="middle" x="1032.5" y="-73" font-family="Helvetica,sans-Serif" font-size="10.00">_iarchive.hpp</text>
</a>
</g>
</g>
<!-- Node7&#45;&gt;Node18 -->
<g id="edge18_Node000007_Node000018" class="edge">
<title>Node7&#45;&gt;Node18</title>
<g id="a_edge18_Node000007_Node000018"><a xlink:title=" ">
<path fill="none" stroke="#63b8ff" d="M913.98,-137.37C934.14,-127.95 967.02,-112.59 993.04,-100.43"/>
<polygon fill="#63b8ff" stroke="#63b8ff" points="994.7,-103.52 1002.28,-96.12 991.74,-97.18 994.7,-103.52"/>
</a>
</g>
</g>
<!-- Node19 -->
<g id="Node000019" class="node">
<title>Node19</title>
<g id="a_Node000019"><a xlink:title=" ">
<polygon fill="#e0e0e0" stroke="#999999" points="1208,-96 1103,-96 1103,-66 1208,-66 1208,-96"/>
<text text-anchor="start" x="1111" y="-84" font-family="Helvetica,sans-Serif" font-size="10.00">boost/archive/text</text>
<text text-anchor="middle" x="1155.5" y="-73" font-family="Helvetica,sans-Serif" font-size="10.00">_oarchive.hpp</text>
</a>
</g>
</g>
<!-- Node7&#45;&gt;Node19 -->
<g id="edge19_Node000007_Node000019" class="edge">
<title>Node7&#45;&gt;Node19</title>
<g id="a_edge19_Node000007_Node000019"><a xlink:title=" ">
<path fill="none" stroke="#63b8ff" d="M930.29,-137.44C971.81,-127.22 1041.99,-109.94 1092.99,-97.39"/>
<polygon fill="#63b8ff" stroke="#63b8ff" points="1094.05,-100.73 1102.92,-94.94 1092.38,-93.93 1094.05,-100.73"/>
</a>
</g>
</g>
<!-- Node20 -->
<g id="Node000020" class="node">
<title>Node20</title>
<g id="a_Node000020"><a xlink:title=" ">
<polygon fill="#e0e0e0" stroke="#999999" points="1336.5,-96 1226.5,-96 1226.5,-66 1336.5,-66 1336.5,-96"/>
<text text-anchor="start" x="1234.5" y="-84" font-family="Helvetica,sans-Serif" font-size="10.00">boost/math/special</text>
<text text-anchor="middle" x="1281.5" y="-73" font-family="Helvetica,sans-Serif" font-size="10.00">_functions/erf.hpp</text>
</a>
</g>
</g>
<!-- Node7&#45;&gt;Node20 -->
<g id="edge20_Node000007_Node000020" class="edge">
<title>Node7&#45;&gt;Node20</title>
<g id="a_edge20_Node000007_Node000020"><a xlink:title=" ">
<path fill="none" stroke="#63b8ff" d="M938.61,-140.16C998.65,-131.85 1111.03,-115.59 1216.53,-96.11"/>
<polygon fill="#63b8ff" stroke="#63b8ff" points="1217.19,-99.55 1226.39,-94.28 1215.91,-92.67 1217.19,-99.55"/>
</a>
</g>
</g>
<!-- Node21 -->
<g id="Node000021" class="node">
<title>Node21</title>
<g id="a_Node000021"><a xlink:title=" ">
<polygon fill="#e0e0e0" stroke="#999999" points="183,-90.5 128,-90.5 128,-71.5 183,-71.5 183,-90.5"/>
<text text-anchor="middle" x="155.5" y="-78.5" font-family="Helvetica,sans-Serif" font-size="10.00">fstream</text>
</a>
</g>
</g>
<!-- Node7&#45;&gt;Node21 -->
<g id="edge21_Node000007_Node000021" class="edge">
<title>Node7&#45;&gt;Node21</title>
<g id="a_edge21_Node000007_Node000021"><a xlink:title=" ">
<path fill="none" stroke="#63b8ff" d="M867.94,-137.44C860.11,-135.32 851.53,-133.29 843.5,-132 557.39,-86.09 476,-155.98 192.5,-96 189.82,-95.43 187.08,-94.7 184.36,-93.87"/>
<polygon fill="#63b8ff" stroke="#63b8ff" points="185.34,-90.51 174.75,-90.56 183.06,-97.13 185.34,-90.51"/>
</a>
</g>
</g>
<!-- Node22 -->
<g id="Node000022" class="node">
<title>Node22</title>
<g id="a_Node000022"><a xlink:title=" ">
<polygon fill="#e0e0e0" stroke="#999999" points="239.5,-90.5 201.5,-90.5 201.5,-71.5 239.5,-71.5 239.5,-90.5"/>
<text text-anchor="middle" x="220.5" y="-78.5" font-family="Helvetica,sans-Serif" font-size="10.00">map</text>
</a>
</g>
</g>
<!-- Node7&#45;&gt;Node22 -->
<g id="edge22_Node000007_Node000022" class="edge">
<title>Node7&#45;&gt;Node22</title>
<g id="a_edge22_Node000007_Node000022"><a xlink:title=" ">
<path fill="none" stroke="#63b8ff" d="M867.93,-137.46C860.1,-135.35 851.53,-133.31 843.5,-132 582.03,-89.34 504.38,-164.63 248.5,-96 247.06,-95.61 245.6,-95.15 244.15,-94.62"/>
<polygon fill="#63b8ff" stroke="#63b8ff" points="245.45,-91.37 234.88,-90.57 242.64,-97.79 245.45,-91.37"/>
</a>
</g>
</g>
<!-- Node23 -->
<g id="Node000023" class="node">
<title>Node23</title>
<g id="a_Node000023"><a xlink:title=" ">
<polygon fill="#e0e0e0" stroke="#999999" points="301.5,-90.5 257.5,-90.5 257.5,-71.5 301.5,-71.5 301.5,-90.5"/>
<text text-anchor="middle" x="279.5" y="-78.5" font-family="Helvetica,sans-Serif" font-size="10.00">regex</text>
</a>
</g>
</g>
<!-- Node7&#45;&gt;Node23 -->
<g id="edge23_Node000007_Node000023" class="edge">
<title>Node7&#45;&gt;Node23</title>
<g id="a_edge23_Node000007_Node000023"><a xlink:title=" ">
<path fill="none" stroke="#63b8ff" d="M867.65,-137.43C859.9,-135.34 851.43,-133.32 843.5,-132 609.3,-92.95 540.79,-153.78 310.5,-96 308.77,-95.57 307.01,-95.04 305.26,-94.45"/>
<polygon fill="#63b8ff" stroke="#63b8ff" points="306.1,-91.01 295.52,-90.54 303.5,-97.51 306.1,-91.01"/>
</a>
</g>
</g>
<!-- Node24 -->
<g id="Node000024" class="node">
<title>Node24</title>
<g id="a_Node000024"><a xlink:title=" ">
<polygon fill="#e0e0e0" stroke="#999999" points="361,-90.5 320,-90.5 320,-71.5 361,-71.5 361,-90.5"/>
<text text-anchor="middle" x="340.5" y="-78.5" font-family="Helvetica,sans-Serif" font-size="10.00">tuple</text>
</a>
</g>
</g>
<!-- Node7&#45;&gt;Node24 -->
<g id="edge25_Node000007_Node000024" class="edge">
<title>Node7&#45;&gt;Node24</title>
<g id="a_edge25_Node000007_Node000024"><a xlink:title=" ">
<path fill="none" stroke="#63b8ff" d="M867.65,-137.48C859.89,-135.39 851.42,-133.36 843.5,-132 637.89,-96.73 578.69,-143.28 375.5,-96 373.19,-95.46 370.83,-94.8 368.48,-94.05"/>
<polygon fill="#63b8ff" stroke="#63b8ff" points="369.65,-90.75 359.05,-90.63 367.26,-97.33 369.65,-90.75"/>
</a>
</g>
</g>
<!-- Node8&#45;&gt;Node9 -->
<g id="edge8_Node000008_Node000009" class="edge">
<title>Node8&#45;&gt;Node9</title>
<g id="a_edge8_Node000008_Node000009"><a xlink:title=" ">
<path fill="none" stroke="#63b8ff" d="M463.04,-71.37C451.18,-62.44 432.25,-48.19 416.56,-36.38"/>
<polygon fill="#63b8ff" stroke="#63b8ff" points="418.34,-33.33 408.25,-30.12 414.13,-38.93 418.34,-33.33"/>
</a>
</g>
</g>
<!-- Node10 -->
<g id="Node000010" class="node">
<title>Node10</title>
<g id="a_Node000010"><a xlink:title=" ">
<polygon fill="#e0e0e0" stroke="#999999" points="577,-30 458,-30 458,0 577,0 577,-30"/>
<text text-anchor="start" x="466" y="-18" font-family="Helvetica,sans-Serif" font-size="10.00">deal.II/numerics/data</text>
<text text-anchor="middle" x="517.5" y="-7" font-family="Helvetica,sans-Serif" font-size="10.00">_postprocessor.h</text>
</a>
</g>
</g>
<!-- Node8&#45;&gt;Node10 -->
<g id="edge9_Node000008_Node000010" class="edge">
<title>Node8&#45;&gt;Node10</title>
<g id="a_edge9_Node000008_Node000010"><a xlink:title=" ">
<path fill="none" stroke="#63b8ff" d="M480.3,-71.37C485.87,-63.08 494.53,-50.18 502.1,-38.92"/>
<polygon fill="#63b8ff" stroke="#63b8ff" points="505.18,-40.61 507.85,-30.36 499.37,-36.71 505.18,-40.61"/>
</a>
</g>
</g>
<!-- Node25&#45;&gt;Node13 -->
<g id="edge28_Node000025_Node000013" class="edge">
<title>Node25&#45;&gt;Node13</title>
<g id="a_edge28_Node000025_Node000013"><a xlink:title=" ">
<path fill="none" stroke="#63b8ff" d="M1563.39,-131.8C1562.68,-122.7 1561.75,-110.79 1560.98,-100.9"/>
<polygon fill="#63b8ff" stroke="#63b8ff" points="1564.46,-100.54 1560.19,-90.84 1557.48,-101.09 1564.46,-100.54"/>
</a>
</g>
</g>
<!-- Node25&#45;&gt;Node14 -->
<g id="edge29_Node000025_Node000014" class="edge">
<title>Node25&#45;&gt;Node14</title>
<g id="a_edge29_Node000025_Node000014"><a xlink:title=" ">
<path fill="none" stroke="#63b8ff" d="M1592.15,-131.95C1613.76,-120.98 1643.58,-105.83 1664.7,-95.11"/>
<polygon fill="#63b8ff" stroke="#63b8ff" points="1666.4,-98.17 1673.73,-90.52 1663.23,-91.93 1666.4,-98.17"/>
</a>
</g>
</g>
<!-- Node25&#45;&gt;Node26 -->
<g id="edge30_Node000025_Node000026" class="edge">
<title>Node25&#45;&gt;Node26</title>
<g id="a_edge30_Node000025_Node000026"><a xlink:title=" ">
<path fill="none" stroke="#63b8ff" d="M1620.02,-131.95C1660.42,-121.74 1715.1,-107.9 1756.68,-97.39"/>
<polygon fill="#63b8ff" stroke="#63b8ff" points="1757.57,-100.77 1766.41,-94.92 1755.86,-93.98 1757.57,-100.77"/>
</a>
</g>
</g>
<!-- Node27&#45;&gt;Node13 -->
<g id="edge32_Node000027_Node000013" class="edge">
<title>Node27&#45;&gt;Node13</title>
<g id="a_edge32_Node000027_Node000013"><a xlink:title=" ">
<path fill="none" stroke="#63b8ff" d="M1444.44,-137.37C1467.04,-126.49 1506.12,-107.69 1532.38,-95.05"/>
<polygon fill="#63b8ff" stroke="#63b8ff" points="1533.93,-98.19 1541.42,-90.7 1530.89,-91.88 1533.93,-98.19"/>
</a>
</g>
</g>
<!-- Node27&#45;&gt;Node14 -->
<g id="edge33_Node000027_Node000014" class="edge">
<title>Node27&#45;&gt;Node14</title>
<g id="a_edge33_Node000027_Node000014"><a xlink:title=" ">
<path fill="none" stroke="#63b8ff" d="M1461.83,-137.44C1509.25,-125.94 1593.51,-105.51 1645.44,-92.92"/>
<polygon fill="#63b8ff" stroke="#63b8ff" points="1646.49,-96.27 1655.38,-90.51 1644.84,-89.47 1646.49,-96.27"/>
</a>
</g>
</g>
<!-- Node27&#45;&gt;Node17 -->
<g id="edge34_Node000027_Node000017" class="edge">
<title>Node27&#45;&gt;Node17</title>
<g id="a_edge34_Node000027_Node000017"><a xlink:title=" ">
<path fill="none" stroke="#63b8ff" d="M1425.69,-137.37C1424.95,-129.49 1423.82,-117.45 1422.81,-106.6"/>
<polygon fill="#63b8ff" stroke="#63b8ff" points="1426.26,-105.99 1421.85,-96.36 1419.3,-106.64 1426.26,-105.99"/>
</a>
</g>
</g>
</g>
</svg>
