<?xml version="1.0" encoding="UTF-8" standalone="no"?>
<!DOCTYPE svg PUBLIC "-//W3C//DTD SVG 1.1//EN"
 "http://www.w3.org/Graphics/SVG/1.1/DTD/svg11.dtd">
<!-- Generated by graphviz version 2.43.0 (0)
 -->
<!-- Title: /home/runner/work/lethe/lethe/include/dem/adaptive_sparse_contacts.h Pages: 1 -->
<svg width="2033pt" height="313pt"
 viewBox="0.00 0.00 2033.00 313.00" xmlns="http://www.w3.org/2000/svg" xmlns:xlink="http://www.w3.org/1999/xlink">
<g id="graph0" class="graph" transform="scale(1 1) rotate(0) translate(4 309)">
<title>/home/runner/work/lethe/lethe/include/dem/adaptive_sparse_contacts.h</title>
<!-- Node1 -->
<g id="Node000001" class="node">
<title>Node1</title>
<g id="a_Node000001"><a xlink:title=" ">
<polygon fill="#999999" stroke="#666666" points="1489,-305 1336,-305 1336,-264 1489,-264 1489,-305"/>
<text text-anchor="start" x="1344" y="-293" font-family="Helvetica,sans-Serif" font-size="10.00">/home/runner/work/lethe</text>
<text text-anchor="start" x="1344" y="-282" font-family="Helvetica,sans-Serif" font-size="10.00">/lethe/include/dem/adaptive</text>
<text text-anchor="middle" x="1412.5" y="-271" font-family="Helvetica,sans-Serif" font-size="10.00">_sparse_contacts.h</text>
</a>
</g>
</g>
<!-- Node2 -->
<g id="Node000002" class="node">
<title>Node2</title>
<g id="a_Node000002"><a xlink:href="data__containers_8h.html" target="_top" xlink:title=" ">
<polygon fill="white" stroke="#666666" points="772.5,-222.5 644.5,-222.5 644.5,-203.5 772.5,-203.5 772.5,-222.5"/>
<text text-anchor="middle" x="708.5" y="-210.5" font-family="Helvetica,sans-Serif" font-size="10.00">dem/data_containers.h</text>
</a>
</g>
</g>
<!-- Node1&#45;&gt;Node2 -->
<g id="edge1_Node000001_Node000002" class="edge">
<title>Node1&#45;&gt;Node2</title>
<g id="a_edge1_Node000001_Node000002"><a xlink:title=" ">
<path fill="none" stroke="#63b8ff" d="M1335.86,-277.21C1222.47,-267.7 1003.37,-248.6 817.5,-228 805.94,-226.72 793.71,-225.26 781.78,-223.77"/>
<polygon fill="#63b8ff" stroke="#63b8ff" points="782.22,-220.29 771.86,-222.52 781.34,-227.24 782.22,-220.29"/>
</a>
</g>
</g>
<!-- Node10 -->
<g id="Node000010" class="node">
<title>Node10</title>
<g id="a_Node000010"><a xlink:title=" ">
<polygon fill="#e0e0e0" stroke="#999999" points="115,-90.5 0,-90.5 0,-71.5 115,-71.5 115,-90.5"/>
<text text-anchor="middle" x="57.5" y="-78.5" font-family="Helvetica,sans-Serif" font-size="10.00">deal.II/base/tensor.h</text>
</a>
</g>
</g>
<!-- Node1&#45;&gt;Node10 -->
<g id="edge38_Node000001_Node000010" class="edge">
<title>Node1&#45;&gt;Node10</title>
<g id="a_edge38_Node000001_Node000010"><a xlink:title=" ">
<path fill="none" stroke="#63b8ff" d="M1335.8,-282.2C1097.08,-277.2 370.51,-254.58 156.5,-162 122.05,-147.1 89.73,-116.75 71.88,-98.01"/>
<polygon fill="#63b8ff" stroke="#63b8ff" points="74.32,-95.49 64.95,-90.55 69.19,-100.26 74.32,-95.49"/>
</a>
</g>
</g>
<!-- Node11 -->
<g id="Node000011" class="node">
<title>Node11</title>
<g id="a_Node000011"><a xlink:title=" ">
<polygon fill="#e0e0e0" stroke="#999999" points="671.5,-90.5 531.5,-90.5 531.5,-71.5 671.5,-71.5 671.5,-90.5"/>
<text text-anchor="middle" x="601.5" y="-78.5" font-family="Helvetica,sans-Serif" font-size="10.00">deal.II/dofs/dof_handler.h</text>
</a>
</g>
</g>
<!-- Node1&#45;&gt;Node11 -->
<g id="edge39_Node000001_Node000011" class="edge">
<title>Node1&#45;&gt;Node11</title>
<g id="a_edge39_Node000001_Node000011"><a xlink:title=" ">
<path fill="none" stroke="#63b8ff" d="M1335.66,-267.87C1230.59,-246.13 1036.42,-204.59 872.5,-162 787.93,-140.03 689.84,-109.9 638,-93.61"/>
<polygon fill="#63b8ff" stroke="#63b8ff" points="638.85,-90.2 628.26,-90.54 636.75,-96.88 638.85,-90.2"/>
</a>
</g>
</g>
<!-- Node22 -->
<g id="Node000022" class="node">
<title>Node22</title>
<g id="a_Node000022"><a xlink:title=" ">
<polygon fill="#e0e0e0" stroke="#999999" points="2025,-90.5 1978,-90.5 1978,-71.5 2025,-71.5 2025,-90.5"/>
<text text-anchor="middle" x="2001.5" y="-78.5" font-family="Helvetica,sans-Serif" font-size="10.00">vector</text>
</a>
</g>
</g>
<!-- Node1&#45;&gt;Node22 -->
<g id="edge44_Node000001_Node000022" class="edge">
<title>Node1&#45;&gt;Node22</title>
<g id="a_edge44_Node000001_Node000022"><a xlink:title=" ">
<path fill="none" stroke="#63b8ff" d="M1369.62,-263.85C1338.82,-247.07 1306.06,-221.94 1326.5,-198 1420.45,-87.98 1830.65,-136.66 1969.5,-96 1971.18,-95.51 1972.89,-94.95 1974.6,-94.34"/>
<polygon fill="#63b8ff" stroke="#63b8ff" points="1976.2,-97.48 1984.2,-90.53 1973.61,-90.97 1976.2,-97.48"/>
</a>
</g>
</g>
<!-- Node28 -->
<g id="Node000028" class="node">
<title>Node28</title>
<g id="a_Node000028"><a xlink:href="dem__action__manager_8h.html" target="_top" xlink:title=" ">
<polygon fill="white" stroke="#666666" points="1490,-222.5 1335,-222.5 1335,-203.5 1490,-203.5 1490,-222.5"/>
<text text-anchor="middle" x="1412.5" y="-210.5" font-family="Helvetica,sans-Serif" font-size="10.00">dem/dem_action_manager.h</text>
</a>
</g>
</g>
<!-- Node1&#45;&gt;Node28 -->
<g id="edge37_Node000001_Node000028" class="edge">
<title>Node1&#45;&gt;Node28</title>
<g id="a_edge37_Node000001_Node000028"><a xlink:title=" ">
<path fill="none" stroke="#63b8ff" d="M1412.5,-263.77C1412.5,-254.08 1412.5,-242.46 1412.5,-232.88"/>
<polygon fill="#63b8ff" stroke="#63b8ff" points="1416,-232.82 1412.5,-222.82 1409,-232.82 1416,-232.82"/>
</a>
</g>
</g>
<!-- Node29 -->
<g id="Node000029" class="node">
<title>Node29</title>
<g id="a_Node000029"><a xlink:title=" ">
<polygon fill="#e0e0e0" stroke="#999999" points="1603,-228 1508,-228 1508,-198 1603,-198 1603,-228"/>
<text text-anchor="start" x="1516" y="-216" font-family="Helvetica,sans-Serif" font-size="10.00">deal.II/lac/affine</text>
<text text-anchor="middle" x="1555.5" y="-205" font-family="Helvetica,sans-Serif" font-size="10.00">_constraints.h</text>
</a>
</g>
</g>
<!-- Node1&#45;&gt;Node29 -->
<g id="edge40_Node000001_Node000029" class="edge">
<title>Node1&#45;&gt;Node29</title>
<g id="a_edge40_Node000001_Node000029"><a xlink:title=" ">
<path fill="none" stroke="#63b8ff" d="M1452.71,-263.96C1472.97,-254.11 1497.39,-242.24 1517.35,-232.54"/>
<polygon fill="#63b8ff" stroke="#63b8ff" points="1519,-235.63 1526.46,-228.11 1515.94,-229.34 1519,-235.63"/>
</a>
</g>
</g>
<!-- Node30 -->
<g id="Node000030" class="node">
<title>Node30</title>
<g id="a_Node000030"><a xlink:title=" ">
<polygon fill="#e0e0e0" stroke="#999999" points="1739.5,-228 1621.5,-228 1621.5,-198 1739.5,-198 1739.5,-228"/>
<text text-anchor="start" x="1629.5" y="-216" font-family="Helvetica,sans-Serif" font-size="10.00">deal.II/lac/la_parallel</text>
<text text-anchor="middle" x="1680.5" y="-205" font-family="Helvetica,sans-Serif" font-size="10.00">_vector.h</text>
</a>
</g>
</g>
<!-- Node1&#45;&gt;Node30 -->
<g id="edge41_Node000001_Node000030" class="edge">
<title>Node1&#45;&gt;Node30</title>
<g id="a_edge41_Node000001_Node000030"><a xlink:title=" ">
<path fill="none" stroke="#63b8ff" d="M1487.87,-263.96C1528.37,-253.45 1577.78,-240.64 1616.41,-230.62"/>
<polygon fill="#63b8ff" stroke="#63b8ff" points="1617.7,-233.9 1626.5,-228 1615.94,-227.13 1617.7,-233.9"/>
</a>
</g>
</g>
<!-- Node31 -->
<g id="Node000031" class="node">
<title>Node31</title>
<g id="a_Node000031"><a xlink:title=" ">
<polygon fill="#e0e0e0" stroke="#999999" points="1875.5,-228 1757.5,-228 1757.5,-198 1875.5,-198 1875.5,-228"/>
<text text-anchor="start" x="1765.5" y="-216" font-family="Helvetica,sans-Serif" font-size="10.00">deal.II/lac/la_parallel</text>
<text text-anchor="middle" x="1816.5" y="-205" font-family="Helvetica,sans-Serif" font-size="10.00">_vector.templates.h</text>
</a>
</g>
</g>
<!-- Node1&#45;&gt;Node31 -->
<g id="edge42_Node000001_Node000031" class="edge">
<title>Node1&#45;&gt;Node31</title>
<g id="a_edge42_Node000001_Node000031"><a xlink:title=" ">
<path fill="none" stroke="#63b8ff" d="M1489.05,-271.73C1554.92,-261.41 1652.74,-245.59 1747.18,-228.21"/>
<polygon fill="#63b8ff" stroke="#63b8ff" points="1747.99,-231.61 1757.19,-226.35 1746.72,-224.73 1747.99,-231.61"/>
</a>
</g>
</g>
<!-- Node32 -->
<g id="Node000032" class="node">
<title>Node32</title>
<g id="a_Node000032"><a xlink:title=" ">
<polygon fill="#e0e0e0" stroke="#999999" points="2025,-228 1894,-228 1894,-198 2025,-198 2025,-228"/>
<text text-anchor="start" x="1902" y="-216" font-family="Helvetica,sans-Serif" font-size="10.00">deal.II/particles/particle</text>
<text text-anchor="middle" x="1959.5" y="-205" font-family="Helvetica,sans-Serif" font-size="10.00">_handler.h</text>
</a>
</g>
</g>
<!-- Node1&#45;&gt;Node32 -->
<g id="edge43_Node000001_Node000032" class="edge">
<title>Node1&#45;&gt;Node32</title>
<g id="a_edge43_Node000001_Node000032"><a xlink:title=" ">
<path fill="none" stroke="#63b8ff" d="M1489.15,-276.09C1580.61,-266.89 1738.34,-249.89 1883.69,-228.06"/>
<polygon fill="#63b8ff" stroke="#63b8ff" points="1884.33,-231.5 1893.69,-226.54 1883.28,-224.58 1884.33,-231.5"/>
</a>
</g>
</g>
<!-- Node3 -->
<g id="Node000003" class="node">
<title>Node3</title>
<g id="a_Node000003"><a xlink:href="utilities_8h.html" target="_top" xlink:title=" ">
<polygon fill="white" stroke="#666666" points="967.5,-156.5 881.5,-156.5 881.5,-137.5 967.5,-137.5 967.5,-156.5"/>
<text text-anchor="middle" x="924.5" y="-144.5" font-family="Helvetica,sans-Serif" font-size="10.00">core/utilities.h</text>
</a>
</g>
</g>
<!-- Node2&#45;&gt;Node3 -->
<g id="edge2_Node000002_Node000003" class="edge">
<title>Node2&#45;&gt;Node3</title>
<g id="a_edge2_Node000002_Node000003"><a xlink:title=" ">
<path fill="none" stroke="#63b8ff" d="M737.63,-203.37C775.9,-192.03 843.23,-172.08 885.76,-159.48"/>
<polygon fill="#63b8ff" stroke="#63b8ff" points="886.89,-162.79 895.49,-156.6 884.9,-156.08 886.89,-162.79"/>
</a>
</g>
</g>
<!-- Node2&#45;&gt;Node10 -->
<g id="edge31_Node000002_Node000010" class="edge">
<title>Node2&#45;&gt;Node10</title>
<g id="a_edge31_Node000002_Node000010"><a xlink:title=" ">
<path fill="none" stroke="#63b8ff" d="M644.38,-211.07C553.85,-208.41 384.03,-198.49 244.5,-162 183.92,-146.16 117.54,-113.88 82.46,-95.53"/>
<polygon fill="#63b8ff" stroke="#63b8ff" points="83.91,-92.34 73.43,-90.75 80.63,-98.52 83.91,-92.34"/>
</a>
</g>
</g>
<!-- Node13 -->
<g id="Node000013" class="node">
<title>Node13</title>
<g id="a_Node000013"><a xlink:title=" ">
<polygon fill="#e0e0e0" stroke="#999999" points="393,-96 262,-96 262,-66 393,-66 393,-96"/>
<text text-anchor="start" x="270" y="-84" font-family="Helvetica,sans-Serif" font-size="10.00">deal.II/particles/particle</text>
<text text-anchor="middle" x="327.5" y="-73" font-family="Helvetica,sans-Serif" font-size="10.00">_iterator.h</text>
</a>
</g>
</g>
<!-- Node2&#45;&gt;Node13 -->
<g id="edge33_Node000002_Node000013" class="edge">
<title>Node2&#45;&gt;Node13</title>
<g id="a_edge33_Node000002_Node000013"><a xlink:title=" ">
<path fill="none" stroke="#63b8ff" d="M689.08,-203.45C653.5,-187.99 575.31,-154.84 507.5,-132 470.29,-119.47 428.03,-107.61 393.8,-98.59"/>
<polygon fill="#63b8ff" stroke="#63b8ff" points="394.48,-95.15 383.92,-96 392.71,-101.92 394.48,-95.15"/>
</a>
</g>
</g>
<!-- Node2&#45;&gt;Node22 -->
<g id="edge35_Node000002_Node000022" class="edge">
<title>Node2&#45;&gt;Node22</title>
<g id="a_edge35_Node000002_Node000022"><a xlink:title=" ">
<path fill="none" stroke="#63b8ff" d="M772.73,-208.48C828.65,-203.47 910.81,-191.34 976.5,-162 996.47,-153.08 994.93,-139.43 1015.5,-132 1215.03,-59.91 1762.7,-143.35 1969.5,-96 1971.45,-95.55 1973.43,-94.99 1975.4,-94.35"/>
<polygon fill="#63b8ff" stroke="#63b8ff" points="1976.91,-97.51 1984.96,-90.64 1974.38,-90.99 1976.91,-97.51"/>
</a>
</g>
</g>
<!-- Node23 -->
<g id="Node000023" class="node">
<title>Node23</title>
<g id="a_Node000023"><a xlink:href="boundary__cells__info__struct_8h.html" target="_top" xlink:title=" ">
<polygon fill="white" stroke="#666666" points="499,-162 384,-162 384,-132 499,-132 499,-162"/>
<text text-anchor="start" x="392" y="-150" font-family="Helvetica,sans-Serif" font-size="10.00">dem/boundary_cells</text>
<text text-anchor="middle" x="441.5" y="-139" font-family="Helvetica,sans-Serif" font-size="10.00">_info_struct.h</text>
</a>
</g>
</g>
<!-- Node2&#45;&gt;Node23 -->
<g id="edge23_Node000002_Node000023" class="edge">
<title>Node2&#45;&gt;Node23</title>
<g id="a_edge23_Node000002_Node000023"><a xlink:title=" ">
<path fill="none" stroke="#63b8ff" d="M672.77,-203.44C631.05,-193.44 561.14,-176.68 509.08,-164.2"/>
<polygon fill="#63b8ff" stroke="#63b8ff" points="509.79,-160.77 499.25,-161.84 508.16,-167.58 509.79,-160.77"/>
</a>
</g>
</g>
<!-- Node24 -->
<g id="Node000024" class="node">
<title>Node24</title>
<g id="a_Node000024"><a xlink:title=" ">
<polygon fill="#e0e0e0" stroke="#999999" points="513.5,-96 411.5,-96 411.5,-66 513.5,-66 513.5,-96"/>
<text text-anchor="start" x="419.5" y="-84" font-family="Helvetica,sans-Serif" font-size="10.00">deal.II/distributed</text>
<text text-anchor="middle" x="462.5" y="-73" font-family="Helvetica,sans-Serif" font-size="10.00">/tria.h</text>
</a>
</g>
</g>
<!-- Node2&#45;&gt;Node24 -->
<g id="edge32_Node000002_Node000024" class="edge">
<title>Node2&#45;&gt;Node24</title>
<g id="a_edge32_Node000002_Node000024"><a xlink:title=" ">
<path fill="none" stroke="#63b8ff" d="M702.18,-203.12C690,-186.66 661.62,-151.31 629.5,-132 611.41,-121.12 563.45,-107.25 523.54,-96.88"/>
<polygon fill="#63b8ff" stroke="#63b8ff" points="524.41,-93.49 513.85,-94.39 522.67,-100.27 524.41,-93.49"/>
</a>
</g>
</g>
<!-- Node25 -->
<g id="Node000025" class="node">
<title>Node25</title>
<g id="a_Node000025"><a xlink:href="contact__info_8h.html" target="_top" xlink:title=" ">
<polygon fill="white" stroke="#666666" points="363.5,-156.5 253.5,-156.5 253.5,-137.5 363.5,-137.5 363.5,-156.5"/>
<text text-anchor="middle" x="308.5" y="-144.5" font-family="Helvetica,sans-Serif" font-size="10.00">dem/contact_info.h</text>
</a>
</g>
</g>
<!-- Node2&#45;&gt;Node25 -->
<g id="edge27_Node000002_Node000025" class="edge">
<title>Node2&#45;&gt;Node25</title>
<g id="a_edge27_Node000002_Node000025"><a xlink:title=" ">
<path fill="none" stroke="#63b8ff" d="M644.28,-203.56C576.89,-194.43 467.97,-178.89 374.5,-162 368.74,-160.96 362.71,-159.79 356.75,-158.59"/>
<polygon fill="#63b8ff" stroke="#63b8ff" points="357.31,-155.13 346.81,-156.54 355.9,-161.98 357.31,-155.13"/>
</a>
</g>
</g>
<!-- Node26 -->
<g id="Node000026" class="node">
<title>Node26</title>
<g id="a_Node000026"><a xlink:title=" ">
<polygon fill="#e0e0e0" stroke="#999999" points="1117,-156.5 1024,-156.5 1024,-137.5 1117,-137.5 1117,-156.5"/>
<text text-anchor="middle" x="1070.5" y="-144.5" font-family="Helvetica,sans-Serif" font-size="10.00">unordered_map</text>
</a>
</g>
</g>
<!-- Node2&#45;&gt;Node26 -->
<g id="edge34_Node000002_Node000026" class="edge">
<title>Node2&#45;&gt;Node26</title>
<g id="a_edge34_Node000002_Node000026"><a xlink:title=" ">
<path fill="none" stroke="#63b8ff" d="M766.11,-203.5C826.84,-194.29 925.18,-178.66 1009.5,-162 1014.57,-161 1019.85,-159.89 1025.11,-158.74"/>
<polygon fill="#63b8ff" stroke="#63b8ff" points="1026.1,-162.1 1035.1,-156.51 1024.57,-155.27 1026.1,-162.1"/>
</a>
</g>
</g>
<!-- Node27 -->
<g id="Node000027" class="node">
<title>Node27</title>
<g id="a_Node000027"><a xlink:href="unordered__dense_8h.html" target="_top" xlink:title=" ">
<polygon fill="white" stroke="#666666" points="1278,-156.5 1135,-156.5 1135,-137.5 1278,-137.5 1278,-156.5"/>
<text text-anchor="middle" x="1206.5" y="-144.5" font-family="Helvetica,sans-Serif" font-size="10.00">ankerl/unordered_dense.h</text>
</a>
</g>
</g>
<!-- Node2&#45;&gt;Node27 -->
<g id="edge36_Node000002_Node000027" class="edge">
<title>Node2&#45;&gt;Node27</title>
<g id="a_edge36_Node000002_Node000027"><a xlink:title=" ">
<path fill="none" stroke="#63b8ff" d="M772.73,-205.41C854.92,-196.73 1001.59,-180.39 1126.5,-162 1134.15,-160.87 1142.19,-159.59 1150.11,-158.26"/>
<polygon fill="#63b8ff" stroke="#63b8ff" points="1150.77,-161.7 1160.04,-156.57 1149.59,-154.8 1150.77,-161.7"/>
</a>
</g>
</g>
<!-- Node4 -->
<g id="Node000004" class="node">
<title>Node4</title>
<g id="a_Node000004"><a xlink:href="output__struct_8h.html" target="_top" xlink:title=" ">
<polygon fill="white" stroke="#666666" points="841.5,-90.5 727.5,-90.5 727.5,-71.5 841.5,-71.5 841.5,-90.5"/>
<text text-anchor="middle" x="784.5" y="-78.5" font-family="Helvetica,sans-Serif" font-size="10.00">core/output_struct.h</text>
</a>
</g>
</g>
<!-- Node3&#45;&gt;Node4 -->
<g id="edge3_Node000003_Node000004" class="edge">
<title>Node3&#45;&gt;Node4</title>
<g id="a_edge3_Node000003_Node000004"><a xlink:title=" ">
<path fill="none" stroke="#63b8ff" d="M905.62,-137.37C881.72,-126.44 840.33,-107.52 812.68,-94.88"/>
<polygon fill="#63b8ff" stroke="#63b8ff" points="814.08,-91.67 803.53,-90.7 811.17,-98.04 814.08,-91.67"/>
</a>
</g>
</g>
<!-- Node5 -->
<g id="Node000005" class="node">
<title>Node5</title>
<g id="a_Node000005"><a xlink:title=" ">
<polygon fill="#e0e0e0" stroke="#999999" points="750,-30 649,-30 649,0 750,0 750,-30"/>
<text text-anchor="start" x="657" y="-18" font-family="Helvetica,sans-Serif" font-size="10.00">deal.II/base/table</text>
<text text-anchor="middle" x="699.5" y="-7" font-family="Helvetica,sans-Serif" font-size="10.00">_handler.h</text>
</a>
</g>
</g>
<!-- Node3&#45;&gt;Node5 -->
<g id="edge9_Node000003_Node000005" class="edge">
<title>Node3&#45;&gt;Node5</title>
<g id="a_edge9_Node000003_Node000005"><a xlink:title=" ">
<path fill="none" stroke="#63b8ff" d="M881.04,-137.95C824.07,-127.03 729.99,-107.54 718.5,-96 704.07,-81.5 699.84,-58.18 698.92,-40.44"/>
<polygon fill="#63b8ff" stroke="#63b8ff" points="702.41,-40.18 698.7,-30.25 695.41,-40.33 702.41,-40.18"/>
</a>
</g>
</g>
<!-- Node7 -->
<g id="Node000007" class="node">
<title>Node7</title>
<g id="a_Node000007"><a xlink:title=" ">
<polygon fill="#e0e0e0" stroke="#999999" points="989.5,-96 859.5,-96 859.5,-66 989.5,-66 989.5,-96"/>
<text text-anchor="start" x="867.5" y="-84" font-family="Helvetica,sans-Serif" font-size="10.00">deal.II/base/conditional</text>
<text text-anchor="middle" x="924.5" y="-73" font-family="Helvetica,sans-Serif" font-size="10.00">_ostream.h</text>
</a>
</g>
</g>
<!-- Node3&#45;&gt;Node7 -->
<g id="edge6_Node000003_Node000007" class="edge">
<title>Node3&#45;&gt;Node7</title>
<g id="a_edge6_Node000003_Node000007"><a xlink:title=" ">
<path fill="none" stroke="#63b8ff" d="M924.5,-137.37C924.5,-129.49 924.5,-117.45 924.5,-106.6"/>
<polygon fill="#63b8ff" stroke="#63b8ff" points="928,-106.36 924.5,-96.36 921,-106.36 928,-106.36"/>
</a>
</g>
</g>
<!-- Node8 -->
<g id="Node000008" class="node">
<title>Node8</title>
<g id="a_Node000008"><a xlink:title=" ">
<polygon fill="#e0e0e0" stroke="#999999" points="1135,-96 1008,-96 1008,-66 1135,-66 1135,-96"/>
<text text-anchor="start" x="1016" y="-84" font-family="Helvetica,sans-Serif" font-size="10.00">deal.II/base/parameter</text>
<text text-anchor="middle" x="1071.5" y="-73" font-family="Helvetica,sans-Serif" font-size="10.00">_handler.h</text>
</a>
</g>
</g>
<!-- Node3&#45;&gt;Node8 -->
<g id="edge7_Node000003_Node000008" class="edge">
<title>Node3&#45;&gt;Node8</title>
<g id="a_edge7_Node000003_Node000008"><a xlink:title=" ">
<path fill="none" stroke="#63b8ff" d="M944.33,-137.37C966.15,-127.87 1001.86,-112.32 1029.9,-100.11"/>
<polygon fill="#63b8ff" stroke="#63b8ff" points="1031.31,-103.32 1039.08,-96.12 1028.51,-96.9 1031.31,-103.32"/>
</a>
</g>
</g>
<!-- Node9 -->
<g id="Node000009" class="node">
<title>Node9</title>
<g id="a_Node000009"><a xlink:title=" ">
<polygon fill="#e0e0e0" stroke="#999999" points="243.5,-90.5 133.5,-90.5 133.5,-71.5 243.5,-71.5 243.5,-90.5"/>
<text text-anchor="middle" x="188.5" y="-78.5" font-family="Helvetica,sans-Serif" font-size="10.00">deal.II/base/point.h</text>
</a>
</g>
</g>
<!-- Node3&#45;&gt;Node9 -->
<g id="edge8_Node000003_Node000009" class="edge">
<title>Node3&#45;&gt;Node9</title>
<g id="a_edge8_Node000003_Node000009"><a xlink:title=" ">
<path fill="none" stroke="#63b8ff" d="M881.42,-144.9C774.46,-141.71 488.37,-130.4 252.5,-96 246.22,-95.08 239.64,-93.9 233.19,-92.62"/>
<polygon fill="#63b8ff" stroke="#63b8ff" points="233.72,-89.15 223.21,-90.53 232.28,-96 233.72,-89.15"/>
</a>
</g>
</g>
<!-- Node3&#45;&gt;Node10 -->
<g id="edge10_Node000003_Node000010" class="edge">
<title>Node3&#45;&gt;Node10</title>
<g id="a_edge10_Node000003_Node000010"><a xlink:title=" ">
<path fill="none" stroke="#63b8ff" d="M881.36,-145.48C761.03,-143.55 411.69,-134.78 124.5,-96 117.7,-95.08 110.55,-93.86 103.56,-92.53"/>
<polygon fill="#63b8ff" stroke="#63b8ff" points="103.99,-89.05 93.5,-90.51 102.62,-95.91 103.99,-89.05"/>
</a>
</g>
</g>
<!-- Node3&#45;&gt;Node11 -->
<g id="edge11_Node000003_Node000011" class="edge">
<title>Node3&#45;&gt;Node11</title>
<g id="a_edge11_Node000003_Node000011"><a xlink:title=" ">
<path fill="none" stroke="#63b8ff" d="M881.27,-137.44C822.65,-125.82 718.01,-105.09 654.65,-92.53"/>
<polygon fill="#63b8ff" stroke="#63b8ff" points="654.96,-89.02 644.47,-90.51 653.6,-95.89 654.96,-89.02"/>
</a>
</g>
</g>
<!-- Node12 -->
<g id="Node000012" class="node">
<title>Node12</title>
<g id="a_Node000012"><a xlink:title=" ">
<polygon fill="#e0e0e0" stroke="#999999" points="1272,-90.5 1153,-90.5 1153,-71.5 1272,-71.5 1272,-90.5"/>
<text text-anchor="middle" x="1212.5" y="-78.5" font-family="Helvetica,sans-Serif" font-size="10.00">deal.II/fe/fe_values.h</text>
</a>
</g>
</g>
<!-- Node3&#45;&gt;Node12 -->
<g id="edge12_Node000003_Node000012" class="edge">
<title>Node3&#45;&gt;Node12</title>
<g id="a_edge12_Node000003_Node000012"><a xlink:title=" ">
<path fill="none" stroke="#63b8ff" d="M958.52,-137.48C966.08,-135.63 974.05,-133.72 981.5,-132 1043.33,-117.72 1114.76,-102.44 1161.62,-92.59"/>
<polygon fill="#63b8ff" stroke="#63b8ff" points="1162.46,-95.99 1171.53,-90.51 1161.02,-89.14 1162.46,-95.99"/>
</a>
</g>
</g>
<!-- Node3&#45;&gt;Node13 -->
<g id="edge13_Node000003_Node000013" class="edge">
<title>Node3&#45;&gt;Node13</title>
<g id="a_edge13_Node000003_Node000013"><a xlink:title=" ">
<path fill="none" stroke="#63b8ff" d="M881.38,-143.18C793.47,-137.13 587.05,-121.51 403.41,-96.04"/>
<polygon fill="#63b8ff" stroke="#63b8ff" points="403.68,-92.55 393.3,-94.62 402.71,-99.48 403.68,-92.55"/>
</a>
</g>
</g>
<!-- Node14 -->
<g id="Node000014" class="node">
<title>Node14</title>
<g id="a_Node000014"><a xlink:title=" ">
<polygon fill="#e0e0e0" stroke="#999999" points="1395,-96 1290,-96 1290,-66 1395,-66 1395,-96"/>
<text text-anchor="start" x="1298" y="-84" font-family="Helvetica,sans-Serif" font-size="10.00">boost/archive/text</text>
<text text-anchor="middle" x="1342.5" y="-73" font-family="Helvetica,sans-Serif" font-size="10.00">_iarchive.hpp</text>
</a>
</g>
</g>
<!-- Node3&#45;&gt;Node14 -->
<g id="edge14_Node000003_Node000014" class="edge">
<title>Node3&#45;&gt;Node14</title>
<g id="a_edge14_Node000003_Node000014"><a xlink:title=" ">
<path fill="none" stroke="#63b8ff" d="M956.31,-137.46C964.48,-135.47 973.28,-133.5 981.5,-132 1110.39,-108.53 1147.41,-118.53 1279.87,-96.16"/>
<polygon fill="#63b8ff" stroke="#63b8ff" points="1280.74,-99.57 1290,-94.42 1279.55,-92.67 1280.74,-99.57"/>
</a>
</g>
</g>
<!-- Node15 -->
<g id="Node000015" class="node">
<title>Node15</title>
<g id="a_Node000015"><a xlink:title=" ">
<polygon fill="#e0e0e0" stroke="#999999" points="1518,-96 1413,-96 1413,-66 1518,-66 1518,-96"/>
<text text-anchor="start" x="1421" y="-84" font-family="Helvetica,sans-Serif" font-size="10.00">boost/archive/text</text>
<text text-anchor="middle" x="1465.5" y="-73" font-family="Helvetica,sans-Serif" font-size="10.00">_oarchive.hpp</text>
</a>
</g>
</g>
<!-- Node3&#45;&gt;Node15 -->
<g id="edge15_Node000003_Node000015" class="edge">
<title>Node3&#45;&gt;Node15</title>
<g id="a_edge15_Node000003_Node000015"><a xlink:title=" ">
<path fill="none" stroke="#63b8ff" d="M955.38,-137.49C963.8,-135.42 972.95,-133.4 981.5,-132 1164.41,-101.94 1216.28,-124.36 1402.56,-96.16"/>
<polygon fill="#63b8ff" stroke="#63b8ff" points="1403.34,-99.58 1412.69,-94.6 1402.27,-92.67 1403.34,-99.58"/>
</a>
</g>
</g>
<!-- Node16 -->
<g id="Node000016" class="node">
<title>Node16</title>
<g id="a_Node000016"><a xlink:title=" ">
<polygon fill="#e0e0e0" stroke="#999999" points="1646.5,-96 1536.5,-96 1536.5,-66 1646.5,-66 1646.5,-96"/>
<text text-anchor="start" x="1544.5" y="-84" font-family="Helvetica,sans-Serif" font-size="10.00">boost/math/special</text>
<text text-anchor="middle" x="1591.5" y="-73" font-family="Helvetica,sans-Serif" font-size="10.00">_functions/erf.hpp</text>
</a>
</g>
</g>
<!-- Node3&#45;&gt;Node16 -->
<g id="edge16_Node000003_Node000016" class="edge">
<title>Node3&#45;&gt;Node16</title>
<g id="a_edge16_Node000003_Node000016"><a xlink:title=" ">
<path fill="none" stroke="#63b8ff" d="M955.07,-137.45C963.57,-135.36 972.84,-133.34 981.5,-132 1218.55,-95.36 1284.9,-129.13 1526.3,-96.01"/>
<polygon fill="#63b8ff" stroke="#63b8ff" points="1527.02,-99.44 1536.44,-94.59 1526.05,-92.51 1527.02,-99.44"/>
</a>
</g>
</g>
<!-- Node17 -->
<g id="Node000017" class="node">
<title>Node17</title>
<g id="a_Node000017"><a xlink:title=" ">
<polygon fill="#e0e0e0" stroke="#999999" points="1720,-90.5 1665,-90.5 1665,-71.5 1720,-71.5 1720,-90.5"/>
<text text-anchor="middle" x="1692.5" y="-78.5" font-family="Helvetica,sans-Serif" font-size="10.00">fstream</text>
</a>
</g>
</g>
<!-- Node3&#45;&gt;Node17 -->
<g id="edge17_Node000003_Node000017" class="edge">
<title>Node3&#45;&gt;Node17</title>
<g id="a_edge17_Node000003_Node000017"><a xlink:title=" ">
<path fill="none" stroke="#63b8ff" d="M954.76,-137.45C963.34,-135.33 972.73,-133.3 981.5,-132 1278.24,-88.03 1361.96,-157.81 1655.5,-96 1658.18,-95.44 1660.92,-94.71 1663.64,-93.88"/>
<polygon fill="#63b8ff" stroke="#63b8ff" points="1664.94,-97.14 1673.25,-90.57 1662.66,-90.52 1664.94,-97.14"/>
</a>
</g>
</g>
<!-- Node18 -->
<g id="Node000018" class="node">
<title>Node18</title>
<g id="a_Node000018"><a xlink:title=" ">
<polygon fill="#e0e0e0" stroke="#999999" points="1776.5,-90.5 1738.5,-90.5 1738.5,-71.5 1776.5,-71.5 1776.5,-90.5"/>
<text text-anchor="middle" x="1757.5" y="-78.5" font-family="Helvetica,sans-Serif" font-size="10.00">map</text>
</a>
</g>
</g>
<!-- Node3&#45;&gt;Node18 -->
<g id="edge18_Node000003_Node000018" class="edge">
<title>Node3&#45;&gt;Node18</title>
<g id="a_edge18_Node000003_Node000018"><a xlink:title=" ">
<path fill="none" stroke="#63b8ff" d="M954.46,-137.49C963.12,-135.35 972.63,-133.29 981.5,-132 1146.18,-108.04 1568.5,-138.12 1729.5,-96 1730.95,-95.62 1732.4,-95.16 1733.86,-94.65"/>
<polygon fill="#63b8ff" stroke="#63b8ff" points="1735.36,-97.81 1743.13,-90.61 1732.56,-91.39 1735.36,-97.81"/>
</a>
</g>
</g>
<!-- Node19 -->
<g id="Node000019" class="node">
<title>Node19</title>
<g id="a_Node000019"><a xlink:title=" ">
<polygon fill="#e0e0e0" stroke="#999999" points="1838.5,-90.5 1794.5,-90.5 1794.5,-71.5 1838.5,-71.5 1838.5,-90.5"/>
<text text-anchor="middle" x="1816.5" y="-78.5" font-family="Helvetica,sans-Serif" font-size="10.00">regex</text>
</a>
</g>
</g>
<!-- Node3&#45;&gt;Node19 -->
<g id="edge19_Node000003_Node000019" class="edge">
<title>Node3&#45;&gt;Node19</title>
<g id="a_edge19_Node000003_Node000019"><a xlink:title=" ">
<path fill="none" stroke="#63b8ff" d="M954.46,-137.47C963.12,-135.33 972.62,-133.28 981.5,-132 1335.55,-81.1 1437.6,-179.1 1785.5,-96 1787.24,-95.58 1789,-95.07 1790.75,-94.49"/>
<polygon fill="#63b8ff" stroke="#63b8ff" points="1792.5,-97.56 1800.5,-90.61 1789.92,-91.06 1792.5,-97.56"/>
</a>
</g>
</g>
<!-- Node20 -->
<g id="Node000020" class="node">
<title>Node20</title>
<g id="a_Node000020"><a xlink:title=" ">
<polygon fill="#e0e0e0" stroke="#999999" points="1900.5,-90.5 1856.5,-90.5 1856.5,-71.5 1900.5,-71.5 1900.5,-90.5"/>
<text text-anchor="middle" x="1878.5" y="-78.5" font-family="Helvetica,sans-Serif" font-size="10.00">string</text>
</a>
</g>
</g>
<!-- Node3&#45;&gt;Node20 -->
<g id="edge20_Node000003_Node000020" class="edge">
<title>Node3&#45;&gt;Node20</title>
<g id="a_edge20_Node000003_Node000020"><a xlink:title=" ">
<path fill="none" stroke="#63b8ff" d="M954.45,-137.46C963.11,-135.31 972.62,-133.26 981.5,-132 1172.19,-104.89 1660.09,-140.45 1847.5,-96 1849.24,-95.59 1851,-95.08 1852.75,-94.5"/>
<polygon fill="#63b8ff" stroke="#63b8ff" points="1854.5,-97.57 1862.5,-90.63 1851.92,-91.06 1854.5,-97.57"/>
</a>
</g>
</g>
<!-- Node21 -->
<g id="Node000021" class="node">
<title>Node21</title>
<g id="a_Node000021"><a xlink:title=" ">
<polygon fill="#e0e0e0" stroke="#999999" points="1960,-90.5 1919,-90.5 1919,-71.5 1960,-71.5 1960,-90.5"/>
<text text-anchor="middle" x="1939.5" y="-78.5" font-family="Helvetica,sans-Serif" font-size="10.00">tuple</text>
</a>
</g>
</g>
<!-- Node3&#45;&gt;Node21 -->
<g id="edge21_Node000003_Node000021" class="edge">
<title>Node3&#45;&gt;Node21</title>
<g id="a_edge21_Node000003_Node000021"><a xlink:title=" ">
<path fill="none" stroke="#63b8ff" d="M954.45,-137.44C963.11,-135.29 972.62,-133.25 981.5,-132 1185.86,-103.24 1708.93,-144.6 1909.5,-96 1911.19,-95.59 1912.9,-95.08 1914.6,-94.5"/>
<polygon fill="#63b8ff" stroke="#63b8ff" points="1916.12,-97.66 1924.05,-90.64 1913.47,-91.19 1916.12,-97.66"/>
</a>
</g>
</g>
<!-- Node3&#45;&gt;Node22 -->
<g id="edge22_Node000003_Node000022" class="edge">
<title>Node3&#45;&gt;Node22</title>
<g id="a_edge22_Node000003_Node000022"><a xlink:title=" ">
<path fill="none" stroke="#63b8ff" d="M954.16,-137.5C962.89,-135.33 972.52,-133.25 981.5,-132 1199.09,-101.64 1755.31,-144.89 1969.5,-96 1971.45,-95.55 1973.43,-94.99 1975.4,-94.35"/>
<polygon fill="#63b8ff" stroke="#63b8ff" points="1976.91,-97.52 1984.97,-90.64 1974.38,-90.99 1976.91,-97.52"/>
</a>
</g>
</g>
<!-- Node4&#45;&gt;Node5 -->
<g id="edge4_Node000004_Node000005" class="edge">
<title>Node4&#45;&gt;Node5</title>
<g id="a_edge4_Node000004_Node000005"><a xlink:title=" ">
<path fill="none" stroke="#63b8ff" d="M773.04,-71.37C761.18,-62.44 742.25,-48.19 726.56,-36.38"/>
<polygon fill="#63b8ff" stroke="#63b8ff" points="728.34,-33.33 718.25,-30.12 724.13,-38.93 728.34,-33.33"/>
</a>
</g>
</g>
<!-- Node6 -->
<g id="Node000006" class="node">
<title>Node6</title>
<g id="a_Node000006"><a xlink:title=" ">
<polygon fill="#e0e0e0" stroke="#999999" points="887,-30 768,-30 768,0 887,0 887,-30"/>
<text text-anchor="start" x="776" y="-18" font-family="Helvetica,sans-Serif" font-size="10.00">deal.II/numerics/data</text>
<text text-anchor="middle" x="827.5" y="-7" font-family="Helvetica,sans-Serif" font-size="10.00">_postprocessor.h</text>
</a>
</g>
</g>
<!-- Node4&#45;&gt;Node6 -->
<g id="edge5_Node000004_Node000006" class="edge">
<title>Node4&#45;&gt;Node6</title>
<g id="a_edge5_Node000004_Node000006"><a xlink:title=" ">
<path fill="none" stroke="#63b8ff" d="M790.3,-71.37C795.87,-63.08 804.53,-50.18 812.1,-38.92"/>
<polygon fill="#63b8ff" stroke="#63b8ff" points="815.18,-40.61 817.85,-30.36 809.37,-36.71 815.18,-40.61"/>
</a>
</g>
</g>
<!-- Node23&#45;&gt;Node9 -->
<g id="edge24_Node000023_Node000009" class="edge">
<title>Node23&#45;&gt;Node9</title>
<g id="a_edge24_Node000023_Node000009"><a xlink:title=" ">
<path fill="none" stroke="#63b8ff" d="M385.98,-131.95C339.65,-120.24 274.55,-103.77 231.96,-92.99"/>
<polygon fill="#63b8ff" stroke="#63b8ff" points="232.72,-89.58 222.17,-90.52 231.01,-96.36 232.72,-89.58"/>
</a>
</g>
</g>
<!-- Node23&#45;&gt;Node10 -->
<g id="edge25_Node000023_Node000010" class="edge">
<title>Node23&#45;&gt;Node10</title>
<g id="a_edge25_Node000023_Node000010"><a xlink:title=" ">
<path fill="none" stroke="#63b8ff" d="M383.94,-134.07C380.07,-133.35 376.23,-132.65 372.5,-132 262.77,-112.92 234.17,-115.4 124.5,-96 118.65,-94.97 112.54,-93.8 106.48,-92.6"/>
<polygon fill="#63b8ff" stroke="#63b8ff" points="106.89,-89.11 96.39,-90.55 105.5,-95.97 106.89,-89.11"/>
</a>
</g>
</g>
<!-- Node23&#45;&gt;Node24 -->
<g id="edge26_Node000023_Node000024" class="edge">
<title>Node23&#45;&gt;Node24</title>
<g id="a_edge26_Node000023_Node000024"><a xlink:title=" ">
<path fill="none" stroke="#63b8ff" d="M446.16,-131.8C448.66,-124.17 451.81,-114.57 454.68,-105.84"/>
<polygon fill="#63b8ff" stroke="#63b8ff" points="458.06,-106.76 457.85,-96.16 451.41,-104.57 458.06,-106.76"/>
</a>
</g>
</g>
<!-- Node25&#45;&gt;Node9 -->
<g id="edge28_Node000025_Node000009" class="edge">
<title>Node25&#45;&gt;Node9</title>
<g id="a_edge28_Node000025_Node000009"><a xlink:title=" ">
<path fill="none" stroke="#63b8ff" d="M292.32,-137.37C272.19,-126.63 237.59,-108.18 213.91,-95.55"/>
<polygon fill="#63b8ff" stroke="#63b8ff" points="215.28,-92.32 204.81,-90.7 211.99,-98.49 215.28,-92.32"/>
</a>
</g>
</g>
<!-- Node25&#45;&gt;Node10 -->
<g id="edge29_Node000025_Node000010" class="edge">
<title>Node25&#45;&gt;Node10</title>
<g id="a_edge29_Node000025_Node000010"><a xlink:title=" ">
<path fill="none" stroke="#63b8ff" d="M274.91,-137.44C229.92,-125.96 150.04,-105.6 100.65,-93"/>
<polygon fill="#63b8ff" stroke="#63b8ff" points="101.45,-89.59 90.89,-90.51 99.72,-96.38 101.45,-89.59"/>
</a>
</g>
</g>
<!-- Node25&#45;&gt;Node13 -->
<g id="edge30_Node000025_Node000013" class="edge">
<title>Node25&#45;&gt;Node13</title>
<g id="a_edge30_Node000025_Node000013"><a xlink:title=" ">
<path fill="none" stroke="#63b8ff" d="M311.06,-137.37C313.43,-129.4 317.05,-117.2 320.3,-106.27"/>
<polygon fill="#63b8ff" stroke="#63b8ff" points="323.75,-106.94 323.24,-96.36 317.04,-104.95 323.75,-106.94"/>
</a>
</g>
</g>
</g>
</svg>
