<?xml version="1.0" encoding="UTF-8" standalone="no"?>
<!DOCTYPE svg PUBLIC "-//W3C//DTD SVG 1.1//EN"
 "http://www.w3.org/Graphics/SVG/1.1/DTD/svg11.dtd">
<!-- Generated by graphviz version 2.43.0 (0)
 -->
<!-- Title: /home/runner/work/lethe/lethe/source/solvers/analytical_solutions.cc Pages: 1 -->
<svg width="2129pt" height="434pt"
 viewBox="0.00 0.00 2128.81 434.00" xmlns="http://www.w3.org/2000/svg" xmlns:xlink="http://www.w3.org/1999/xlink">
<g id="graph0" class="graph" transform="scale(1 1) rotate(0) translate(4 430)">
<title>/home/runner/work/lethe/lethe/source/solvers/analytical_solutions.cc</title>
<!-- Node1 -->
<g id="Node000001" class="node">
<title>Node1</title>
<g id="a_Node000001"><a xlink:title=" ">
<polygon fill="#999999" stroke="#666666" points="1684,-426 1547,-426 1547,-385 1684,-385 1684,-426"/>
<text text-anchor="start" x="1555" y="-414" font-family="Helvetica,sans-Serif" font-size="10.00">/home/runner/work/lethe</text>
<text text-anchor="start" x="1555" y="-403" font-family="Helvetica,sans-Serif" font-size="10.00">/lethe/source/solvers</text>
<text text-anchor="middle" x="1615.5" y="-392" font-family="Helvetica,sans-Serif" font-size="10.00">/analytical_solutions.cc</text>
</a>
</g>
</g>
<!-- Node2 -->
<g id="Node000002" class="node">
<title>Node2</title>
<g id="a_Node000002"><a xlink:href="analytical__solutions_8h.html" target="_top" xlink:title=" ">
<polygon fill="white" stroke="#666666" points="1667,-349 1564,-349 1564,-319 1667,-319 1667,-349"/>
<text text-anchor="start" x="1572" y="-337" font-family="Helvetica,sans-Serif" font-size="10.00">solvers/analytical</text>
<text text-anchor="middle" x="1615.5" y="-326" font-family="Helvetica,sans-Serif" font-size="10.00">_solutions.h</text>
</a>
</g>
</g>
<!-- Node1&#45;&gt;Node2 -->
<g id="edge1_Node000001_Node000002" class="edge">
<title>Node1&#45;&gt;Node2</title>
<g id="a_edge1_Node000001_Node000002"><a xlink:title=" ">
<path fill="none" stroke="#63b8ff" d="M1615.5,-384.77C1615.5,-376.85 1615.5,-367.63 1615.5,-359.3"/>
<polygon fill="#63b8ff" stroke="#63b8ff" points="1619,-359.04 1615.5,-349.04 1612,-359.04 1619,-359.04"/>
</a>
</g>
</g>
<!-- Node3 -->
<g id="Node000003" class="node">
<title>Node3</title>
<g id="a_Node000003"><a xlink:href="parameters_8h.html" target="_top" xlink:title=" ">
<polygon fill="white" stroke="#666666" points="1805.5,-283 1699.5,-283 1699.5,-264 1805.5,-264 1805.5,-283"/>
<text text-anchor="middle" x="1752.5" y="-271" font-family="Helvetica,sans-Serif" font-size="10.00">core/parameters.h</text>
</a>
</g>
</g>
<!-- Node2&#45;&gt;Node3 -->
<g id="edge2_Node000002_Node000003" class="edge">
<title>Node2&#45;&gt;Node3</title>
<g id="a_edge2_Node000002_Node000003"><a xlink:title=" ">
<path fill="none" stroke="#63b8ff" d="M1648.31,-318.99C1670.97,-309.31 1700.85,-296.56 1722.8,-287.18"/>
<polygon fill="#63b8ff" stroke="#63b8ff" points="1724.45,-290.29 1732.27,-283.14 1721.7,-283.85 1724.45,-290.29"/>
</a>
</g>
</g>
<!-- Node31 -->
<g id="Node000031" class="node">
<title>Node31</title>
<g id="a_Node000031"><a xlink:title=" ">
<polygon fill="#e0e0e0" stroke="#999999" points="125,-90.5 0,-90.5 0,-71.5 125,-71.5 125,-90.5"/>
<text text-anchor="middle" x="62.5" y="-78.5" font-family="Helvetica,sans-Serif" font-size="10.00">deal.II/base/function.h</text>
</a>
</g>
</g>
<!-- Node2&#45;&gt;Node31 -->
<g id="edge40_Node000002_Node000031" class="edge">
<title>Node2&#45;&gt;Node31</title>
<g id="a_edge40_Node000002_Node000031"><a xlink:title=" ">
<path fill="none" stroke="#63b8ff" d="M1563.8,-331.31C1381.99,-324.34 756.24,-291.8 259.5,-162 195.9,-145.38 125.45,-113.17 88.46,-95.1"/>
<polygon fill="#63b8ff" stroke="#63b8ff" points="89.89,-91.9 79.38,-90.62 86.79,-98.18 89.89,-91.9"/>
</a>
</g>
</g>
<!-- Node40 -->
<g id="Node000040" class="node">
<title>Node40</title>
<g id="a_Node000040"><a xlink:title=" ">
<polygon fill="#e0e0e0" stroke="#999999" points="1670,-162 1561,-162 1561,-132 1670,-132 1670,-162"/>
<text text-anchor="start" x="1569" y="-150" font-family="Helvetica,sans-Serif" font-size="10.00">deal.II/base/parsed</text>
<text text-anchor="middle" x="1615.5" y="-139" font-family="Helvetica,sans-Serif" font-size="10.00">_function.h</text>
</a>
</g>
</g>
<!-- Node2&#45;&gt;Node40 -->
<g id="edge41_Node000002_Node000040" class="edge">
<title>Node2&#45;&gt;Node40</title>
<g id="a_edge41_Node000002_Node000040"><a xlink:title=" ">
<path fill="none" stroke="#63b8ff" d="M1615.5,-318.79C1615.5,-287.3 1615.5,-211.36 1615.5,-172.22"/>
<polygon fill="#63b8ff" stroke="#63b8ff" points="1619,-172 1615.5,-162 1612,-172 1619,-172"/>
</a>
</g>
</g>
<!-- Node4 -->
<g id="Node000004" class="node">
<title>Node4</title>
<g id="a_Node000004"><a xlink:href="dimensionality_8h.html" target="_top" xlink:title=" ">
<polygon fill="white" stroke="#666666" points="2108,-156.5 1987,-156.5 1987,-137.5 2108,-137.5 2108,-156.5"/>
<text text-anchor="middle" x="2047.5" y="-144.5" font-family="Helvetica,sans-Serif" font-size="10.00">core/dimensionality.h</text>
</a>
</g>
</g>
<!-- Node3&#45;&gt;Node4 -->
<g id="edge3_Node000003_Node000004" class="edge">
<title>Node3&#45;&gt;Node4</title>
<g id="a_edge3_Node000003_Node000004"><a xlink:title=" ">
<path fill="none" stroke="#63b8ff" d="M1805.54,-270.78C1876.46,-267.38 1996.95,-257.32 2028.5,-228 2045.21,-212.47 2048.46,-185.15 2048.55,-166.81"/>
<polygon fill="#63b8ff" stroke="#63b8ff" points="2052.04,-166.65 2048.28,-156.74 2045.05,-166.83 2052.04,-166.65"/>
</a>
</g>
</g>
<!-- Node5 -->
<g id="Node000005" class="node">
<title>Node5</title>
<g id="a_Node000005"><a xlink:title=" ">
<polygon fill="#e0e0e0" stroke="#999999" points="2111,-30 1984,-30 1984,0 2111,0 2111,-30"/>
<text text-anchor="start" x="1992" y="-18" font-family="Helvetica,sans-Serif" font-size="10.00">deal.II/base/parameter</text>
<text text-anchor="middle" x="2047.5" y="-7" font-family="Helvetica,sans-Serif" font-size="10.00">_handler.h</text>
</a>
</g>
</g>
<!-- Node3&#45;&gt;Node5 -->
<g id="edge37_Node000003_Node000005" class="edge">
<title>Node3&#45;&gt;Node5</title>
<g id="a_edge37_Node000003_Node000005"><a xlink:title=" ">
<path fill="none" stroke="#63b8ff" d="M1805.59,-268.46C1879.14,-262.21 2007.68,-248.7 2049.5,-228 2096.36,-204.81 2131.52,-182.37 2117.5,-132 2107.53,-96.19 2083.2,-60.39 2066.03,-38.23"/>
<polygon fill="#63b8ff" stroke="#63b8ff" points="2068.58,-35.82 2059.62,-30.16 2063.1,-40.17 2068.58,-35.82"/>
</a>
</g>
</g>
<!-- Node6 -->
<g id="Node000006" class="node">
<title>Node6</title>
<g id="a_Node000006"><a xlink:href="ib__particle_8h.html" target="_top" xlink:title=" ">
<polygon fill="white" stroke="#666666" points="1564,-222.5 1463,-222.5 1463,-203.5 1564,-203.5 1564,-222.5"/>
<text text-anchor="middle" x="1513.5" y="-210.5" font-family="Helvetica,sans-Serif" font-size="10.00">core/ib_particle.h</text>
</a>
</g>
</g>
<!-- Node3&#45;&gt;Node6 -->
<g id="edge5_Node000003_Node000006" class="edge">
<title>Node3&#45;&gt;Node6</title>
<g id="a_edge5_Node000003_Node000006"><a xlink:title=" ">
<path fill="none" stroke="#63b8ff" d="M1717.75,-263.99C1675.53,-253.66 1604.25,-236.21 1558.04,-224.9"/>
<polygon fill="#63b8ff" stroke="#63b8ff" points="1558.84,-221.49 1548.29,-222.52 1557.18,-228.29 1558.84,-221.49"/>
</a>
</g>
</g>
<!-- Node15 -->
<g id="Node000015" class="node">
<title>Node15</title>
<g id="a_Node000015"><a xlink:href="core_2utilities_8h.html" target="_top" xlink:title=" ">
<polygon fill="#fff0f0" stroke="red" points="1666.5,-90.5 1580.5,-90.5 1580.5,-71.5 1666.5,-71.5 1666.5,-90.5"/>
<text text-anchor="middle" x="1623.5" y="-78.5" font-family="Helvetica,sans-Serif" font-size="10.00">core/utilities.h</text>
</a>
</g>
</g>
<!-- Node3&#45;&gt;Node15 -->
<g id="edge36_Node000003_Node000015" class="edge">
<title>Node3&#45;&gt;Node15</title>
<g id="a_edge36_Node000003_Node000015"><a xlink:title=" ">
<path fill="none" stroke="#63b8ff" d="M1744.19,-263.89C1736.28,-255.33 1724.42,-241.56 1716.5,-228 1693.36,-188.37 1704.6,-169.74 1678.5,-132 1669.14,-118.47 1655.46,-106.01 1644.09,-96.92"/>
<polygon fill="#63b8ff" stroke="#63b8ff" points="1646.01,-93.98 1635.95,-90.66 1641.74,-99.53 1646.01,-93.98"/>
</a>
</g>
</g>
<!-- Node3&#45;&gt;Node40 -->
<g id="edge38_Node000003_Node000040" class="edge">
<title>Node3&#45;&gt;Node40</title>
<g id="a_edge38_Node000003_Node000040"><a xlink:title=" ">
<path fill="none" stroke="#63b8ff" d="M1736.51,-263.99C1721.91,-255.8 1700.12,-242.56 1683.5,-228 1663.65,-210.61 1644.51,-187.3 1631.62,-170.34"/>
<polygon fill="#63b8ff" stroke="#63b8ff" points="1634.26,-168.03 1625.48,-162.1 1628.65,-172.21 1634.26,-168.03"/>
</a>
</g>
</g>
<!-- Node41 -->
<g id="Node000041" class="node">
<title>Node41</title>
<g id="a_Node000041"><a xlink:href="multiphysics_8h.html" target="_top" xlink:title="Identifiers for multiphysics modules and their solution fields.">
<polygon fill="white" stroke="#666666" points="2019.5,-222.5 1907.5,-222.5 1907.5,-203.5 2019.5,-203.5 2019.5,-222.5"/>
<text text-anchor="middle" x="1963.5" y="-210.5" font-family="Helvetica,sans-Serif" font-size="10.00">core/multiphysics.h</text>
</a>
</g>
</g>
<!-- Node3&#45;&gt;Node41 -->
<g id="edge33_Node000003_Node000041" class="edge">
<title>Node3&#45;&gt;Node41</title>
<g id="a_edge33_Node000003_Node000041"><a xlink:title=" ">
<path fill="none" stroke="#63b8ff" d="M1783.18,-263.99C1820.06,-253.77 1882.07,-236.58 1922.89,-225.26"/>
<polygon fill="#63b8ff" stroke="#63b8ff" points="1924.08,-228.56 1932.78,-222.52 1922.21,-221.82 1924.08,-228.56"/>
</a>
</g>
</g>
<!-- Node43 -->
<g id="Node000043" class="node">
<title>Node43</title>
<g id="a_Node000043"><a xlink:title=" ">
<polygon fill="#e0e0e0" stroke="#999999" points="1889,-228 1726,-228 1726,-198 1889,-198 1889,-228"/>
<text text-anchor="start" x="1734" y="-216" font-family="Helvetica,sans-Serif" font-size="10.00">deal.II/multigrid/mg</text>
<text text-anchor="middle" x="1807.5" y="-205" font-family="Helvetica,sans-Serif" font-size="10.00">_transfer_global_coarsening.h</text>
</a>
</g>
</g>
<!-- Node3&#45;&gt;Node43 -->
<g id="edge39_Node000003_Node000043" class="edge">
<title>Node3&#45;&gt;Node43</title>
<g id="a_edge39_Node000003_Node000043"><a xlink:title=" ">
<path fill="none" stroke="#63b8ff" d="M1760.62,-263.87C1767.59,-256.44 1777.96,-245.42 1787.18,-235.62"/>
<polygon fill="#63b8ff" stroke="#63b8ff" points="1789.93,-237.8 1794.23,-228.11 1784.83,-233 1789.93,-237.8"/>
</a>
</g>
</g>
<!-- Node4&#45;&gt;Node5 -->
<g id="edge4_Node000004_Node000005" class="edge">
<title>Node4&#45;&gt;Node5</title>
<g id="a_edge4_Node000004_Node000005"><a xlink:title=" ">
<path fill="none" stroke="#63b8ff" d="M2047.5,-137.47C2047.5,-118.04 2047.5,-69.87 2047.5,-40.36"/>
<polygon fill="#63b8ff" stroke="#63b8ff" points="2051,-40.07 2047.5,-30.07 2044,-40.07 2051,-40.07"/>
</a>
</g>
</g>
<!-- Node7 -->
<g id="Node000007" class="node">
<title>Node7</title>
<g id="a_Node000007"><a xlink:href="dem__properties_8h.html" target="_top" xlink:title="DEM particle property definitions and output name management.">
<polygon fill="white" stroke="#666666" points="1848.5,-90.5 1722.5,-90.5 1722.5,-71.5 1848.5,-71.5 1848.5,-90.5"/>
<text text-anchor="middle" x="1785.5" y="-78.5" font-family="Helvetica,sans-Serif" font-size="10.00">core/dem_properties.h</text>
</a>
</g>
</g>
<!-- Node6&#45;&gt;Node7 -->
<g id="edge6_Node000006_Node000007" class="edge">
<title>Node6&#45;&gt;Node7</title>
<g id="a_edge6_Node000006_Node000007"><a xlink:title=" ">
<path fill="none" stroke="#63b8ff" d="M1514.99,-203.45C1518.34,-186.9 1528.1,-150.5 1551.5,-132 1558.57,-126.41 1663.64,-105.41 1730.56,-92.47"/>
<polygon fill="#63b8ff" stroke="#63b8ff" points="1731.39,-95.88 1740.55,-90.54 1730.07,-89 1731.39,-95.88"/>
</a>
</g>
</g>
<!-- Node10 -->
<g id="Node000010" class="node">
<title>Node10</title>
<g id="a_Node000010"><a xlink:title=" ">
<polygon fill="#e0e0e0" stroke="#999999" points="1718,-24.5 1671,-24.5 1671,-5.5 1718,-5.5 1718,-24.5"/>
<text text-anchor="middle" x="1694.5" y="-12.5" font-family="Helvetica,sans-Serif" font-size="10.00">vector</text>
</a>
</g>
</g>
<!-- Node6&#45;&gt;Node10 -->
<g id="edge32_Node000006_Node000010" class="edge">
<title>Node6&#45;&gt;Node10</title>
<g id="a_edge32_Node000006_Node000010"><a xlink:title=" ">
<path fill="none" stroke="#63b8ff" d="M1512.09,-203.22C1510.01,-186.91 1508.14,-151.82 1526.5,-132 1572.81,-82.03 1627.42,-144.27 1675.5,-96 1691.44,-80 1694.94,-53.21 1695.28,-35.08"/>
<polygon fill="#63b8ff" stroke="#63b8ff" points="1698.78,-34.82 1695.16,-24.86 1691.78,-34.9 1698.78,-34.82"/>
</a>
</g>
</g>
<!-- Node11 -->
<g id="Node000011" class="node">
<title>Node11</title>
<g id="a_Node000011"><a xlink:href="shape_8h.html" target="_top" xlink:title=" ">
<polygon fill="white" stroke="#666666" points="1098,-156.5 1019,-156.5 1019,-137.5 1098,-137.5 1098,-156.5"/>
<text text-anchor="middle" x="1058.5" y="-144.5" font-family="Helvetica,sans-Serif" font-size="10.00">core/shape.h</text>
</a>
</g>
</g>
<!-- Node6&#45;&gt;Node11 -->
<g id="edge10_Node000006_Node000011" class="edge">
<title>Node6&#45;&gt;Node11</title>
<g id="a_edge10_Node000006_Node000011"><a xlink:title=" ">
<path fill="none" stroke="#63b8ff" d="M1462.63,-204.84C1374.72,-192.48 1195.44,-167.26 1108.29,-155"/>
<polygon fill="#63b8ff" stroke="#63b8ff" points="1108.52,-151.5 1098.13,-153.57 1107.54,-158.43 1108.52,-151.5"/>
</a>
</g>
</g>
<!-- Node13 -->
<g id="Node000013" class="node">
<title>Node13</title>
<g id="a_Node000013"><a xlink:title=" ">
<polygon fill="#e0e0e0" stroke="#999999" points="312.5,-24.5 202.5,-24.5 202.5,-5.5 312.5,-5.5 312.5,-24.5"/>
<text text-anchor="middle" x="257.5" y="-12.5" font-family="Helvetica,sans-Serif" font-size="10.00">deal.II/base/point.h</text>
</a>
</g>
</g>
<!-- Node6&#45;&gt;Node13 -->
<g id="edge31_Node000006_Node000013" class="edge">
<title>Node6&#45;&gt;Node13</title>
<g id="a_edge31_Node000006_Node000013"><a xlink:title=" ">
<path fill="none" stroke="#63b8ff" d="M1462.79,-211.57C1228.83,-209.05 261.3,-192.81 172.5,-96 149.37,-70.79 193.72,-44.03 226.6,-28.74"/>
<polygon fill="#63b8ff" stroke="#63b8ff" points="228.24,-31.84 235.93,-24.56 225.37,-25.45 228.24,-31.84"/>
</a>
</g>
</g>
<!-- Node6&#45;&gt;Node40 -->
<g id="edge30_Node000006_Node000040" class="edge">
<title>Node6&#45;&gt;Node40</title>
<g id="a_edge30_Node000006_Node000040"><a xlink:title=" ">
<path fill="none" stroke="#63b8ff" d="M1527.26,-203.37C1541.81,-194.24 1565.26,-179.53 1584.33,-167.56"/>
<polygon fill="#63b8ff" stroke="#63b8ff" points="1586.39,-170.4 1593,-162.12 1582.67,-164.47 1586.39,-170.4"/>
</a>
</g>
</g>
<!-- Node8 -->
<g id="Node000008" class="node">
<title>Node8</title>
<g id="a_Node000008"><a xlink:title=" ">
<polygon fill="#e0e0e0" stroke="#999999" points="1875.5,-24.5 1831.5,-24.5 1831.5,-5.5 1875.5,-5.5 1875.5,-24.5"/>
<text text-anchor="middle" x="1853.5" y="-12.5" font-family="Helvetica,sans-Serif" font-size="10.00">string</text>
</a>
</g>
</g>
<!-- Node7&#45;&gt;Node8 -->
<g id="edge7_Node000007_Node000008" class="edge">
<title>Node7&#45;&gt;Node8</title>
<g id="a_edge7_Node000007_Node000008"><a xlink:title=" ">
<path fill="none" stroke="#63b8ff" d="M1794.67,-71.37C1805.36,-61.31 1823.24,-44.48 1836.49,-32.01"/>
<polygon fill="#63b8ff" stroke="#63b8ff" points="1839.15,-34.31 1844.04,-24.91 1834.36,-29.21 1839.15,-34.31"/>
</a>
</g>
</g>
<!-- Node9 -->
<g id="Node000009" class="node">
<title>Node9</title>
<g id="a_Node000009"><a xlink:title=" ">
<polygon fill="#e0e0e0" stroke="#999999" points="1813,-24.5 1744,-24.5 1744,-5.5 1813,-5.5 1813,-24.5"/>
<text text-anchor="middle" x="1778.5" y="-12.5" font-family="Helvetica,sans-Serif" font-size="10.00">type_traits</text>
</a>
</g>
</g>
<!-- Node7&#45;&gt;Node9 -->
<g id="edge8_Node000007_Node000009" class="edge">
<title>Node7&#45;&gt;Node9</title>
<g id="a_edge8_Node000007_Node000009"><a xlink:title=" ">
<path fill="none" stroke="#63b8ff" d="M1784.56,-71.37C1783.54,-62.07 1781.89,-46.98 1780.57,-34.9"/>
<polygon fill="#63b8ff" stroke="#63b8ff" points="1784.04,-34.47 1779.47,-24.91 1777.08,-35.23 1784.04,-34.47"/>
</a>
</g>
</g>
<!-- Node7&#45;&gt;Node10 -->
<g id="edge9_Node000007_Node000010" class="edge">
<title>Node7&#45;&gt;Node10</title>
<g id="a_edge9_Node000007_Node000010"><a xlink:title=" ">
<path fill="none" stroke="#63b8ff" d="M1773.23,-71.37C1758.44,-60.97 1733.35,-43.32 1715.47,-30.75"/>
<polygon fill="#63b8ff" stroke="#63b8ff" points="1717.06,-27.59 1706.87,-24.7 1713.04,-33.31 1717.06,-27.59"/>
</a>
</g>
</g>
<!-- Node12 -->
<g id="Node000012" class="node">
<title>Node12</title>
<g id="a_Node000012"><a xlink:href="tensors__and__points__dimension__manipulation_8h.html" target="_top" xlink:title=" ">
<polygon fill="#fff0f0" stroke="red" points="333.5,-96 181.5,-96 181.5,-66 333.5,-66 333.5,-96"/>
<text text-anchor="start" x="189.5" y="-84" font-family="Helvetica,sans-Serif" font-size="10.00">core/tensors_and_points</text>
<text text-anchor="middle" x="257.5" y="-73" font-family="Helvetica,sans-Serif" font-size="10.00">_dimension_manipulation.h</text>
</a>
</g>
</g>
<!-- Node11&#45;&gt;Node12 -->
<g id="edge11_Node000011_Node000012" class="edge">
<title>Node11&#45;&gt;Node12</title>
<g id="a_edge11_Node000011_Node000012"><a xlink:title=" ">
<path fill="none" stroke="#63b8ff" d="M1018.79,-144.53C911.59,-140.29 607.17,-126.41 344.04,-96.11"/>
<polygon fill="#63b8ff" stroke="#63b8ff" points="344.25,-92.61 333.91,-94.93 343.44,-99.56 344.25,-92.61"/>
</a>
</g>
</g>
<!-- Node11&#45;&gt;Node15 -->
<g id="edge13_Node000011_Node000015" class="edge">
<title>Node11&#45;&gt;Node15</title>
<g id="a_edge13_Node000011_Node000015"><a xlink:title=" ">
<path fill="none" stroke="#63b8ff" d="M1098.28,-144.02C1184.24,-139.32 1393.55,-125.6 1566.5,-96 1571.64,-95.12 1577.01,-94.03 1582.3,-92.86"/>
<polygon fill="#63b8ff" stroke="#63b8ff" points="1583.37,-96.2 1592.31,-90.51 1581.77,-89.38 1583.37,-96.2"/>
</a>
</g>
</g>
<!-- Node21 -->
<g id="Node000021" class="node">
<title>Node21</title>
<g id="a_Node000021"><a xlink:title=" ">
<polygon fill="#e0e0e0" stroke="#999999" points="1637.5,-24.5 1497.5,-24.5 1497.5,-5.5 1637.5,-5.5 1637.5,-24.5"/>
<text text-anchor="middle" x="1567.5" y="-12.5" font-family="Helvetica,sans-Serif" font-size="10.00">deal.II/dofs/dof_handler.h</text>
</a>
</g>
</g>
<!-- Node11&#45;&gt;Node21 -->
<g id="edge25_Node000011_Node000021" class="edge">
<title>Node11&#45;&gt;Node21</title>
<g id="a_edge25_Node000011_Node000021"><a xlink:title=" ">
<path fill="none" stroke="#63b8ff" d="M1098.29,-144.11C1206.22,-138.66 1498.79,-121.67 1533.5,-96 1553.08,-81.51 1561.49,-53.49 1565.03,-34.76"/>
<polygon fill="#63b8ff" stroke="#63b8ff" points="1568.5,-35.17 1566.62,-24.74 1561.59,-34.06 1568.5,-35.17"/>
</a>
</g>
</g>
<!-- Node30 -->
<g id="Node000030" class="node">
<title>Node30</title>
<g id="a_Node000030"><a xlink:title=" ">
<polygon fill="#e0e0e0" stroke="#999999" points="503.5,-96 351.5,-96 351.5,-66 503.5,-66 503.5,-96"/>
<text text-anchor="start" x="359.5" y="-84" font-family="Helvetica,sans-Serif" font-size="10.00">deal.II/base/auto_derivative</text>
<text text-anchor="middle" x="427.5" y="-73" font-family="Helvetica,sans-Serif" font-size="10.00">_function.h</text>
</a>
</g>
</g>
<!-- Node11&#45;&gt;Node30 -->
<g id="edge19_Node000011_Node000030" class="edge">
<title>Node11&#45;&gt;Node30</title>
<g id="a_edge19_Node000011_Node000030"><a xlink:title=" ">
<path fill="none" stroke="#63b8ff" d="M1019,-143.36C930.47,-137.24 709.3,-120.77 514.08,-96.14"/>
<polygon fill="#63b8ff" stroke="#63b8ff" points="514.28,-92.64 503.92,-94.85 513.4,-99.59 514.28,-92.64"/>
</a>
</g>
</g>
<!-- Node11&#45;&gt;Node31 -->
<g id="edge20_Node000011_Node000031" class="edge">
<title>Node11&#45;&gt;Node31</title>
<g id="a_edge20_Node000011_Node000031"><a xlink:title=" ">
<path fill="none" stroke="#63b8ff" d="M1018.69,-144.75C893.78,-140.62 498.52,-125.91 172.5,-96 159.87,-94.84 146.45,-93.35 133.49,-91.78"/>
<polygon fill="#63b8ff" stroke="#63b8ff" points="133.58,-88.26 123.22,-90.5 132.71,-95.21 133.58,-88.26"/>
</a>
</g>
</g>
<!-- Node32 -->
<g id="Node000032" class="node">
<title>Node32</title>
<g id="a_Node000032"><a xlink:title=" ">
<polygon fill="#e0e0e0" stroke="#999999" points="645.5,-90.5 521.5,-90.5 521.5,-71.5 645.5,-71.5 645.5,-90.5"/>
<text text-anchor="middle" x="583.5" y="-78.5" font-family="Helvetica,sans-Serif" font-size="10.00">deal.II/grid/manifold.h</text>
</a>
</g>
</g>
<!-- Node11&#45;&gt;Node32 -->
<g id="edge21_Node000011_Node000032" class="edge">
<title>Node11&#45;&gt;Node32</title>
<g id="a_edge21_Node000011_Node000032"><a xlink:title=" ">
<path fill="none" stroke="#63b8ff" d="M1018.8,-142.04C946.24,-134.59 787.44,-117.3 654.5,-96 647.92,-94.94 641.01,-93.73 634.2,-92.45"/>
<polygon fill="#63b8ff" stroke="#63b8ff" points="634.81,-89.01 624.33,-90.57 633.5,-95.89 634.81,-89.01"/>
</a>
</g>
</g>
<!-- Node33 -->
<g id="Node000033" class="node">
<title>Node33</title>
<g id="a_Node000033"><a xlink:title=" ">
<polygon fill="#e0e0e0" stroke="#999999" points="779,-96 664,-96 664,-66 779,-66 779,-96"/>
<text text-anchor="start" x="672" y="-84" font-family="Helvetica,sans-Serif" font-size="10.00">deal.II/grid/manifold</text>
<text text-anchor="middle" x="721.5" y="-73" font-family="Helvetica,sans-Serif" font-size="10.00">_lib.h</text>
</a>
</g>
</g>
<!-- Node11&#45;&gt;Node33 -->
<g id="edge22_Node000011_Node000033" class="edge">
<title>Node11&#45;&gt;Node33</title>
<g id="a_edge22_Node000011_Node000033"><a xlink:title=" ">
<path fill="none" stroke="#63b8ff" d="M1018.94,-139.04C968.02,-130.01 876.54,-113.53 788.91,-96.25"/>
<polygon fill="#63b8ff" stroke="#63b8ff" points="789.56,-92.81 779.07,-94.31 788.2,-99.68 789.56,-92.81"/>
</a>
</g>
</g>
<!-- Node34 -->
<g id="Node000034" class="node">
<title>Node34</title>
<g id="a_Node000034"><a xlink:title=" ">
<polygon fill="#e0e0e0" stroke="#999999" points="912,-96 797,-96 797,-66 912,-66 912,-96"/>
<text text-anchor="start" x="805" y="-84" font-family="Helvetica,sans-Serif" font-size="10.00">boost/range/adaptor</text>
<text text-anchor="middle" x="854.5" y="-73" font-family="Helvetica,sans-Serif" font-size="10.00">/map.hpp</text>
</a>
</g>
</g>
<!-- Node11&#45;&gt;Node34 -->
<g id="edge23_Node000011_Node000034" class="edge">
<title>Node11&#45;&gt;Node34</title>
<g id="a_edge23_Node000011_Node000034"><a xlink:title=" ">
<path fill="none" stroke="#63b8ff" d="M1030.99,-137.37C999.91,-127.62 948.54,-111.5 909.21,-99.16"/>
<polygon fill="#63b8ff" stroke="#63b8ff" points="910.08,-95.77 899.49,-96.12 907.99,-102.45 910.08,-95.77"/>
</a>
</g>
</g>
<!-- Node35 -->
<g id="Node000035" class="node">
<title>Node35</title>
<g id="a_Node000035"><a xlink:title=" ">
<polygon fill="#e0e0e0" stroke="#999999" points="1046.5,-96 930.5,-96 930.5,-66 1046.5,-66 1046.5,-96"/>
<text text-anchor="start" x="938.5" y="-84" font-family="Helvetica,sans-Serif" font-size="10.00">deal.II/base/function</text>
<text text-anchor="middle" x="988.5" y="-73" font-family="Helvetica,sans-Serif" font-size="10.00">_signed_distance.h</text>
</a>
</g>
</g>
<!-- Node11&#45;&gt;Node35 -->
<g id="edge24_Node000011_Node000035" class="edge">
<title>Node11&#45;&gt;Node35</title>
<g id="a_edge24_Node000011_Node000035"><a xlink:title=" ">
<path fill="none" stroke="#63b8ff" d="M1049.06,-137.37C1039.48,-128.61 1024.28,-114.71 1011.51,-103.04"/>
<polygon fill="#63b8ff" stroke="#63b8ff" points="1013.68,-100.28 1003.94,-96.12 1008.96,-105.45 1013.68,-100.28"/>
</a>
</g>
</g>
<!-- Node36 -->
<g id="Node000036" class="node">
<title>Node36</title>
<g id="a_Node000036"><a xlink:title=" ">
<polygon fill="#e0e0e0" stroke="#999999" points="1192.5,-90.5 1064.5,-90.5 1064.5,-71.5 1192.5,-71.5 1192.5,-90.5"/>
<text text-anchor="middle" x="1128.5" y="-78.5" font-family="Helvetica,sans-Serif" font-size="10.00">deal.II/dofs/dof_tools.h</text>
</a>
</g>
</g>
<!-- Node11&#45;&gt;Node36 -->
<g id="edge26_Node000011_Node000036" class="edge">
<title>Node11&#45;&gt;Node36</title>
<g id="a_edge26_Node000011_Node000036"><a xlink:title=" ">
<path fill="none" stroke="#63b8ff" d="M1067.94,-137.37C1079.05,-127.21 1097.7,-110.16 1111.38,-97.65"/>
<polygon fill="#63b8ff" stroke="#63b8ff" points="1113.74,-100.24 1118.76,-90.91 1109.02,-95.07 1113.74,-100.24"/>
</a>
</g>
</g>
<!-- Node37 -->
<g id="Node000037" class="node">
<title>Node37</title>
<g id="a_Node000037"><a xlink:title=" ">
<polygon fill="#e0e0e0" stroke="#999999" points="1386.5,-90.5 1210.5,-90.5 1210.5,-71.5 1386.5,-71.5 1386.5,-90.5"/>
<text text-anchor="middle" x="1298.5" y="-78.5" font-family="Helvetica,sans-Serif" font-size="10.00">deal.II/physics/transformations.h</text>
</a>
</g>
</g>
<!-- Node11&#45;&gt;Node37 -->
<g id="edge27_Node000011_Node000037" class="edge">
<title>Node11&#45;&gt;Node37</title>
<g id="a_edge27_Node000011_Node000037"><a xlink:title=" ">
<path fill="none" stroke="#63b8ff" d="M1090.87,-137.37C1133.66,-125.96 1209.15,-105.83 1256.35,-93.24"/>
<polygon fill="#63b8ff" stroke="#63b8ff" points="1257.5,-96.56 1266.26,-90.6 1255.7,-89.79 1257.5,-96.56"/>
</a>
</g>
</g>
<!-- Node38 -->
<g id="Node000038" class="node">
<title>Node38</title>
<g id="a_Node000038"><a xlink:title=" ">
<polygon fill="#e0e0e0" stroke="#999999" points="1448.5,-90.5 1404.5,-90.5 1404.5,-71.5 1448.5,-71.5 1448.5,-90.5"/>
<text text-anchor="middle" x="1426.5" y="-78.5" font-family="Helvetica,sans-Serif" font-size="10.00">cfloat</text>
</a>
</g>
</g>
<!-- Node11&#45;&gt;Node38 -->
<g id="edge28_Node000011_Node000038" class="edge">
<title>Node11&#45;&gt;Node38</title>
<g id="a_edge28_Node000011_Node000038"><a xlink:title=" ">
<path fill="none" stroke="#63b8ff" d="M1098.18,-143.68C1161.97,-139.15 1290.8,-126.76 1395.5,-96 1397.14,-95.52 1398.8,-94.97 1400.46,-94.37"/>
<polygon fill="#63b8ff" stroke="#63b8ff" points="1401.83,-97.59 1409.77,-90.57 1399.19,-91.11 1401.83,-97.59"/>
</a>
</g>
</g>
<!-- Node39 -->
<g id="Node000039" class="node">
<title>Node39</title>
<g id="a_Node000039"><a xlink:title=" ">
<polygon fill="#e0e0e0" stroke="#999999" points="1524.5,-90.5 1466.5,-90.5 1466.5,-71.5 1524.5,-71.5 1524.5,-90.5"/>
<text text-anchor="middle" x="1495.5" y="-78.5" font-family="Helvetica,sans-Serif" font-size="10.00">memory</text>
</a>
</g>
</g>
<!-- Node11&#45;&gt;Node39 -->
<g id="edge29_Node000011_Node000039" class="edge">
<title>Node11&#45;&gt;Node39</title>
<g id="a_edge29_Node000011_Node000039"><a xlink:title=" ">
<path fill="none" stroke="#63b8ff" d="M1098.12,-144.03C1170.43,-139.79 1328.28,-127.46 1457.5,-96 1460.01,-95.39 1462.58,-94.66 1465.15,-93.87"/>
<polygon fill="#63b8ff" stroke="#63b8ff" points="1466.52,-97.1 1474.86,-90.58 1464.27,-90.48 1466.52,-97.1"/>
</a>
</g>
</g>
<!-- Node12&#45;&gt;Node13 -->
<g id="edge12_Node000012_Node000013" class="edge">
<title>Node12&#45;&gt;Node13</title>
<g id="a_edge12_Node000012_Node000013"><a xlink:title=" ">
<path fill="none" stroke="#63b8ff" d="M257.5,-65.8C257.5,-56.7 257.5,-44.79 257.5,-34.9"/>
<polygon fill="#63b8ff" stroke="#63b8ff" points="261,-34.84 257.5,-24.84 254,-34.84 261,-34.84"/>
</a>
</g>
</g>
<!-- Node15&#45;&gt;Node5 -->
<g id="edge14_Node000015_Node000005" class="edge">
<title>Node15&#45;&gt;Node5</title>
<g id="a_edge14_Node000015_Node000005"><a xlink:title=" ">
<path fill="none" stroke="#63b8ff" d="M1666.52,-73.26C1681.4,-70.94 1698.18,-68.34 1713.5,-66 1802.95,-52.35 1905.93,-36.98 1973.63,-26.94"/>
<polygon fill="#63b8ff" stroke="#63b8ff" points="1974.39,-30.36 1983.76,-25.43 1973.36,-23.44 1974.39,-30.36"/>
</a>
</g>
</g>
<!-- Node15&#45;&gt;Node8 -->
<g id="edge17_Node000015_Node000008" class="edge">
<title>Node15&#45;&gt;Node8</title>
<g id="a_edge17_Node000015_Node000008"><a xlink:title=" ">
<path fill="none" stroke="#63b8ff" d="M1665.8,-71.44C1706.3,-62.75 1768.84,-48.03 1821.5,-30 1822.93,-29.51 1824.39,-28.98 1825.86,-28.43"/>
<polygon fill="#63b8ff" stroke="#63b8ff" points="1827.49,-31.54 1835.43,-24.52 1824.85,-25.06 1827.49,-31.54"/>
</a>
</g>
</g>
<!-- Node15&#45;&gt;Node10 -->
<g id="edge18_Node000015_Node000010" class="edge">
<title>Node15&#45;&gt;Node10</title>
<g id="a_edge18_Node000015_Node000010"><a xlink:title=" ">
<path fill="none" stroke="#63b8ff" d="M1633.08,-71.37C1644.34,-61.21 1663.26,-44.16 1677.13,-31.65"/>
<polygon fill="#63b8ff" stroke="#63b8ff" points="1679.54,-34.2 1684.62,-24.91 1674.85,-29 1679.54,-34.2"/>
</a>
</g>
</g>
<!-- Node15&#45;&gt;Node13 -->
<g id="edge15_Node000015_Node000013" class="edge">
<title>Node15&#45;&gt;Node13</title>
<g id="a_edge15_Node000015_Node000013"><a xlink:title=" ">
<path fill="none" stroke="#63b8ff" d="M1580.14,-72.22C1565.39,-69.85 1548.77,-67.48 1533.5,-66 1071.17,-21.13 510.9,-16.22 322.69,-15.91"/>
<polygon fill="#63b8ff" stroke="#63b8ff" points="322.69,-12.41 312.69,-15.9 322.68,-19.41 322.69,-12.41"/>
</a>
</g>
</g>
<!-- Node15&#45;&gt;Node21 -->
<g id="edge16_Node000015_Node000021" class="edge">
<title>Node15&#45;&gt;Node21</title>
<g id="a_edge16_Node000015_Node000021"><a xlink:title=" ">
<path fill="none" stroke="#63b8ff" d="M1615.95,-71.37C1607.31,-61.5 1592.97,-45.11 1582.13,-32.72"/>
<polygon fill="#63b8ff" stroke="#63b8ff" points="1584.51,-30.13 1575.29,-24.91 1579.24,-34.74 1584.51,-30.13"/>
</a>
</g>
</g>
<!-- Node41&#45;&gt;Node8 -->
<g id="edge35_Node000041_Node000008" class="edge">
<title>Node41&#45;&gt;Node8</title>
<g id="a_edge35_Node000041_Node000008"><a xlink:title=" ">
<path fill="none" stroke="#63b8ff" d="M1946.16,-203.5C1930.67,-195.04 1908.48,-180.64 1895.5,-162 1867.82,-122.26 1858.24,-64.41 1855.03,-34.88"/>
<polygon fill="#63b8ff" stroke="#63b8ff" points="1858.5,-34.35 1854.07,-24.73 1851.53,-35.01 1858.5,-34.35"/>
</a>
</g>
</g>
<!-- Node42 -->
<g id="Node000042" class="node">
<title>Node42</title>
<g id="a_Node000042"><a xlink:title=" ">
<polygon fill="#e0e0e0" stroke="#999999" points="1968.5,-156.5 1904.5,-156.5 1904.5,-137.5 1968.5,-137.5 1968.5,-156.5"/>
<text text-anchor="middle" x="1936.5" y="-144.5" font-family="Helvetica,sans-Serif" font-size="10.00">algorithm</text>
</a>
</g>
</g>
<!-- Node41&#45;&gt;Node42 -->
<g id="edge34_Node000041_Node000042" class="edge">
<title>Node41&#45;&gt;Node42</title>
<g id="a_edge34_Node000041_Node000042"><a xlink:title=" ">
<path fill="none" stroke="#63b8ff" d="M1959.86,-203.37C1955.86,-193.88 1949.31,-178.36 1944.16,-166.16"/>
<polygon fill="#63b8ff" stroke="#63b8ff" points="1947.37,-164.76 1940.26,-156.91 1940.92,-167.48 1947.37,-164.76"/>
</a>
</g>
</g>
</g>
</svg>
