<?xml version="1.0" encoding="UTF-8" standalone="no"?>
<!DOCTYPE svg PUBLIC "-//W3C//DTD SVG 1.1//EN"
 "http://www.w3.org/Graphics/SVG/1.1/DTD/svg11.dtd">
<!-- Generated by graphviz version 2.43.0 (0)
 -->
<!-- Title: /home/runner/work/lethe/lethe/include/core/auxiliary_math_functions.h Pages: 1 -->
<svg width="1202pt" height="544pt"
 viewBox="0.00 0.00 1202.00 544.00" xmlns="http://www.w3.org/2000/svg" xmlns:xlink="http://www.w3.org/1999/xlink">
<g id="graph0" class="graph" transform="scale(1 1) rotate(0) translate(4 540)">
<title>/home/runner/work/lethe/lethe/include/core/auxiliary_math_functions.h</title>
<!-- Node1 -->
<g id="Node000001" class="node">
<title>Node1</title>
<g id="a_Node000001"><a xlink:title=" ">
<polygon fill="#999999" stroke="#666666" points="1006.5,-536 854.5,-536 854.5,-495 1006.5,-495 1006.5,-536"/>
<text text-anchor="start" x="862.5" y="-524" font-family="Helvetica,sans-Serif" font-size="10.00">/home/runner/work/lethe</text>
<text text-anchor="start" x="862.5" y="-513" font-family="Helvetica,sans-Serif" font-size="10.00">/lethe/include/core/auxiliary</text>
<text text-anchor="middle" x="930.5" y="-502" font-family="Helvetica,sans-Serif" font-size="10.00">_math_functions.h</text>
</a>
</g>
</g>
<!-- Node2 -->
<g id="Node000002" class="node">
<title>Node2</title>
<g id="a_Node000002"><a xlink:href="particle__particle__contact__force_8h.html" target="_top" xlink:title=" ">
<polygon fill="white" stroke="#666666" points="840,-459 693,-459 693,-418 840,-418 840,-459"/>
<text text-anchor="start" x="701" y="-447" font-family="Helvetica,sans-Serif" font-size="10.00">/home/runner/work/lethe</text>
<text text-anchor="start" x="701" y="-436" font-family="Helvetica,sans-Serif" font-size="10.00">/lethe/include/dem/particle</text>
<text text-anchor="middle" x="766.5" y="-425" font-family="Helvetica,sans-Serif" font-size="10.00">_particle_contact_force.h</text>
</a>
</g>
</g>
<!-- Node1&#45;&gt;Node2 -->
<g id="edge1_Node000001_Node000002" class="edge">
<title>Node1&#45;&gt;Node2</title>
<g id="a_edge1_Node000001_Node000002"><a xlink:title=" ">
<path fill="none" stroke="#63b8ff" d="M878.51,-490.72C856.18,-480.51 830.42,-468.73 809.23,-459.04"/>
<polygon fill="#63b8ff" stroke="#63b8ff" points="877.29,-494.01 887.84,-494.99 880.2,-487.65 877.29,-494.01"/>
</a>
</g>
</g>
<!-- Node20 -->
<g id="Node000020" class="node">
<title>Node20</title>
<g id="a_Node000020"><a xlink:href="particle__heat__transfer_8cc.html" target="_top" xlink:title=" ">
<polygon fill="white" stroke="#666666" points="1002.5,-459 858.5,-459 858.5,-418 1002.5,-418 1002.5,-459"/>
<text text-anchor="start" x="866.5" y="-447" font-family="Helvetica,sans-Serif" font-size="10.00">/home/runner/work/lethe</text>
<text text-anchor="start" x="866.5" y="-436" font-family="Helvetica,sans-Serif" font-size="10.00">/lethe/source/dem/particle</text>
<text text-anchor="middle" x="930.5" y="-425" font-family="Helvetica,sans-Serif" font-size="10.00">_heat_transfer.cc</text>
</a>
</g>
</g>
<!-- Node1&#45;&gt;Node20 -->
<g id="edge29_Node000001_Node000020" class="edge">
<title>Node1&#45;&gt;Node20</title>
<g id="a_edge29_Node000001_Node000020"><a xlink:title=" ">
<path fill="none" stroke="#63b8ff" d="M930.5,-484.69C930.5,-476.08 930.5,-466.9 930.5,-459.07"/>
<polygon fill="#63b8ff" stroke="#63b8ff" points="927,-484.79 930.5,-494.79 934,-484.79 927,-484.79"/>
</a>
</g>
</g>
<!-- Node21 -->
<g id="Node000021" class="node">
<title>Node21</title>
<g id="a_Node000021"><a xlink:href="particle__wall__contact__force_8cc.html" target="_top" xlink:title=" ">
<polygon fill="white" stroke="#666666" points="1164.5,-459 1020.5,-459 1020.5,-418 1164.5,-418 1164.5,-459"/>
<text text-anchor="start" x="1028.5" y="-447" font-family="Helvetica,sans-Serif" font-size="10.00">/home/runner/work/lethe</text>
<text text-anchor="start" x="1028.5" y="-436" font-family="Helvetica,sans-Serif" font-size="10.00">/lethe/source/dem/particle</text>
<text text-anchor="middle" x="1092.5" y="-425" font-family="Helvetica,sans-Serif" font-size="10.00">_wall_contact_force.cc</text>
</a>
</g>
</g>
<!-- Node1&#45;&gt;Node21 -->
<g id="edge30_Node000001_Node000021" class="edge">
<title>Node1&#45;&gt;Node21</title>
<g id="a_edge30_Node000001_Node000021"><a xlink:title=" ">
<path fill="none" stroke="#63b8ff" d="M981.86,-490.72C1003.91,-480.51 1029.36,-468.73 1050.29,-459.04"/>
<polygon fill="#63b8ff" stroke="#63b8ff" points="980.24,-487.61 972.64,-494.99 983.19,-493.97 980.24,-487.61"/>
</a>
</g>
</g>
<!-- Node3 -->
<g id="Node000003" class="node">
<title>Node3</title>
<g id="a_Node000003"><a xlink:href="dem_8h.html" target="_top" xlink:title=" ">
<polygon fill="white" stroke="#666666" points="473,-294 332,-294 332,-264 473,-264 473,-294"/>
<text text-anchor="start" x="340" y="-282" font-family="Helvetica,sans-Serif" font-size="10.00">/home/runner/work/lethe</text>
<text text-anchor="middle" x="402.5" y="-271" font-family="Helvetica,sans-Serif" font-size="10.00">/lethe/include/dem/dem.h</text>
</a>
</g>
</g>
<!-- Node2&#45;&gt;Node3 -->
<g id="edge2_Node000002_Node000003" class="edge">
<title>Node2&#45;&gt;Node3</title>
<g id="a_edge2_Node000002_Node000003"><a xlink:title=" ">
<path fill="none" stroke="#63b8ff" d="M711.61,-413.75C634.74,-380.49 497.42,-321.07 434.99,-294.06"/>
<polygon fill="#63b8ff" stroke="#63b8ff" points="710.57,-417.11 721.14,-417.87 713.35,-410.69 710.57,-417.11"/>
</a>
</g>
</g>
<!-- Node11 -->
<g id="Node000011" class="node">
<title>Node11</title>
<g id="a_Node000011"><a xlink:href="force__chains__visualization_8h.html" target="_top" xlink:title=" ">
<polygon fill="white" stroke="#666666" points="835,-382 698,-382 698,-341 835,-341 835,-382"/>
<text text-anchor="start" x="706" y="-370" font-family="Helvetica,sans-Serif" font-size="10.00">/home/runner/work/lethe</text>
<text text-anchor="start" x="706" y="-359" font-family="Helvetica,sans-Serif" font-size="10.00">/lethe/include/dem/force</text>
<text text-anchor="middle" x="766.5" y="-348" font-family="Helvetica,sans-Serif" font-size="10.00">_chains_visualization.h</text>
</a>
</g>
</g>
<!-- Node2&#45;&gt;Node11 -->
<g id="edge11_Node000002_Node000011" class="edge">
<title>Node2&#45;&gt;Node11</title>
<g id="a_edge11_Node000002_Node000011"><a xlink:title=" ">
<path fill="none" stroke="#63b8ff" d="M766.5,-407.69C766.5,-399.08 766.5,-389.9 766.5,-382.07"/>
<polygon fill="#63b8ff" stroke="#63b8ff" points="763,-407.79 766.5,-417.79 770,-407.79 763,-407.79"/>
</a>
</g>
</g>
<!-- Node12 -->
<g id="Node000012" class="node">
<title>Node12</title>
<g id="a_Node000012"><a xlink:href="set__particle__particle__contact__force__model_8h.html" target="_top" xlink:title=" ">
<polygon fill="white" stroke="#666666" points="738.5,-305 596.5,-305 596.5,-253 738.5,-253 738.5,-305"/>
<text text-anchor="start" x="604.5" y="-293" font-family="Helvetica,sans-Serif" font-size="10.00">/home/runner/work/lethe</text>
<text text-anchor="start" x="604.5" y="-282" font-family="Helvetica,sans-Serif" font-size="10.00">/lethe/include/dem/set</text>
<text text-anchor="start" x="604.5" y="-271" font-family="Helvetica,sans-Serif" font-size="10.00">_particle_particle_contact</text>
<text text-anchor="middle" x="667.5" y="-260" font-family="Helvetica,sans-Serif" font-size="10.00">_force_model.h</text>
</a>
</g>
</g>
<!-- Node2&#45;&gt;Node12 -->
<g id="edge24_Node000002_Node000012" class="edge">
<title>Node2&#45;&gt;Node12</title>
<g id="a_edge24_Node000002_Node000012"><a xlink:title=" ">
<path fill="none" stroke="#63b8ff" d="M720.04,-412.3C708.52,-404.04 697.27,-393.87 689.5,-382 674.42,-358.96 669.5,-327.32 667.98,-305.42"/>
<polygon fill="#63b8ff" stroke="#63b8ff" points="718.18,-415.27 728.42,-417.98 722.1,-409.47 718.18,-415.27"/>
</a>
</g>
</g>
<!-- Node17 -->
<g id="Node000017" class="node">
<title>Node17</title>
<g id="a_Node000017"><a xlink:href="ib__particles__dem_8h.html" target="_top" xlink:title=" ">
<polygon fill="white" stroke="#666666" points="1028,-382 891,-382 891,-341 1028,-341 1028,-382"/>
<text text-anchor="start" x="899" y="-370" font-family="Helvetica,sans-Serif" font-size="10.00">/home/runner/work/lethe</text>
<text text-anchor="start" x="899" y="-359" font-family="Helvetica,sans-Serif" font-size="10.00">/lethe/include/fem&#45;dem</text>
<text text-anchor="middle" x="959.5" y="-348" font-family="Helvetica,sans-Serif" font-size="10.00">/ib_particles_dem.h</text>
</a>
</g>
</g>
<!-- Node2&#45;&gt;Node17 -->
<g id="edge25_Node000002_Node000017" class="edge">
<title>Node2&#45;&gt;Node17</title>
<g id="a_edge25_Node000002_Node000017"><a xlink:title=" ">
<path fill="none" stroke="#63b8ff" d="M826.28,-414.27C852.87,-403.94 883.83,-391.9 909.21,-382.04"/>
<polygon fill="#63b8ff" stroke="#63b8ff" points="824.76,-411.11 816.7,-417.99 827.29,-417.63 824.76,-411.11"/>
</a>
</g>
</g>
<!-- Node19 -->
<g id="Node000019" class="node">
<title>Node19</title>
<g id="a_Node000019"><a xlink:href="particle__particle__contact__force_8cc.html" target="_top" xlink:title=" ">
<polygon fill="white" stroke="#666666" points="1190.5,-382 1046.5,-382 1046.5,-341 1190.5,-341 1190.5,-382"/>
<text text-anchor="start" x="1054.5" y="-370" font-family="Helvetica,sans-Serif" font-size="10.00">/home/runner/work/lethe</text>
<text text-anchor="start" x="1054.5" y="-359" font-family="Helvetica,sans-Serif" font-size="10.00">/lethe/source/dem/particle</text>
<text text-anchor="middle" x="1118.5" y="-348" font-family="Helvetica,sans-Serif" font-size="10.00">_particle_contact_force.cc</text>
</a>
</g>
</g>
<!-- Node2&#45;&gt;Node19 -->
<g id="edge28_Node000002_Node000019" class="edge">
<title>Node2&#45;&gt;Node19</title>
<g id="a_edge28_Node000002_Node000019"><a xlink:title=" ">
<path fill="none" stroke="#63b8ff" d="M850.24,-417.89C934.4,-400.22 957.43,-399.29 1037.5,-382 1040.33,-381.39 1043.21,-380.75 1046.12,-380.1"/>
<polygon fill="#63b8ff" stroke="#63b8ff" points="849.29,-414.51 840.23,-420.01 850.74,-421.36 849.29,-414.51"/>
</a>
</g>
</g>
<!-- Node4 -->
<g id="Node000004" class="node">
<title>Node4</title>
<g id="a_Node000004"><a xlink:href="cfd__dem__coupling_8h.html" target="_top" xlink:title=" ">
<polygon fill="white" stroke="#666666" points="292,-123.5 155,-123.5 155,-82.5 292,-82.5 292,-123.5"/>
<text text-anchor="start" x="163" y="-111.5" font-family="Helvetica,sans-Serif" font-size="10.00">/home/runner/work/lethe</text>
<text text-anchor="start" x="163" y="-100.5" font-family="Helvetica,sans-Serif" font-size="10.00">/lethe/include/fem&#45;dem</text>
<text text-anchor="middle" x="223.5" y="-89.5" font-family="Helvetica,sans-Serif" font-size="10.00">/cfd_dem_coupling.h</text>
</a>
</g>
</g>
<!-- Node3&#45;&gt;Node4 -->
<g id="edge3_Node000003_Node000004" class="edge">
<title>Node3&#45;&gt;Node4</title>
<g id="a_edge3_Node000003_Node000004"><a xlink:title=" ">
<path fill="none" stroke="#63b8ff" d="M321.33,-273.05C282.37,-266.09 238.95,-250.63 214.5,-217 194.6,-189.62 205.5,-148.02 214.8,-123.67"/>
<polygon fill="#63b8ff" stroke="#63b8ff" points="321.22,-276.58 331.65,-274.72 322.34,-269.67 321.22,-276.58"/>
</a>
</g>
</g>
<!-- Node6 -->
<g id="Node000006" class="node">
<title>Node6</title>
<g id="a_Node000006"><a xlink:href="cfd__dem__coupling__matrix__free_8h.html" target="_top" xlink:title=" ">
<polygon fill="white" stroke="#666666" points="402,-211.5 223,-211.5 223,-170.5 402,-170.5 402,-211.5"/>
<text text-anchor="start" x="231" y="-199.5" font-family="Helvetica,sans-Serif" font-size="10.00">/home/runner/work/lethe</text>
<text text-anchor="start" x="231" y="-188.5" font-family="Helvetica,sans-Serif" font-size="10.00">/lethe/include/fem&#45;dem</text>
<text text-anchor="middle" x="312.5" y="-177.5" font-family="Helvetica,sans-Serif" font-size="10.00">/cfd_dem_coupling_matrix_free.h</text>
</a>
</g>
</g>
<!-- Node3&#45;&gt;Node6 -->
<g id="edge5_Node000003_Node000006" class="edge">
<title>Node3&#45;&gt;Node6</title>
<g id="a_edge5_Node000003_Node000006"><a xlink:title=" ">
<path fill="none" stroke="#63b8ff" d="M380.12,-256.62C365.72,-242.86 347.15,-225.11 333.11,-211.69"/>
<polygon fill="#63b8ff" stroke="#63b8ff" points="377.99,-259.42 387.64,-263.8 382.83,-254.36 377.99,-259.42"/>
</a>
</g>
</g>
<!-- Node8 -->
<g id="Node000008" class="node">
<title>Node8</title>
<g id="a_Node000008"><a xlink:href="fluid__dynamics__vans_8h.html" target="_top" xlink:title=" ">
<polygon fill="white" stroke="#666666" points="166,-211.5 29,-211.5 29,-170.5 166,-170.5 166,-211.5"/>
<text text-anchor="start" x="37" y="-199.5" font-family="Helvetica,sans-Serif" font-size="10.00">/home/runner/work/lethe</text>
<text text-anchor="start" x="37" y="-188.5" font-family="Helvetica,sans-Serif" font-size="10.00">/lethe/include/fem&#45;dem</text>
<text text-anchor="middle" x="97.5" y="-177.5" font-family="Helvetica,sans-Serif" font-size="10.00">/fluid_dynamics_vans.h</text>
</a>
</g>
</g>
<!-- Node3&#45;&gt;Node8 -->
<g id="edge7_Node000003_Node000008" class="edge">
<title>Node3&#45;&gt;Node8</title>
<g id="a_edge7_Node000003_Node000008"><a xlink:title=" ">
<path fill="none" stroke="#63b8ff" d="M340.11,-261.29C295.55,-249.26 234.24,-232.47 180.5,-217 174.43,-215.25 168.11,-213.4 161.8,-211.54"/>
<polygon fill="#63b8ff" stroke="#63b8ff" points="339.35,-264.71 349.92,-263.94 341.18,-257.96 339.35,-264.71"/>
</a>
</g>
</g>
<!-- Node10 -->
<g id="Node000010" class="node">
<title>Node10</title>
<g id="a_Node000010"><a xlink:href="dem_8cc.html" target="_top" xlink:title=" ">
<polygon fill="white" stroke="#666666" points="563,-206 420,-206 420,-176 563,-176 563,-206"/>
<text text-anchor="start" x="428" y="-194" font-family="Helvetica,sans-Serif" font-size="10.00">/home/runner/work/lethe</text>
<text text-anchor="middle" x="491.5" y="-183" font-family="Helvetica,sans-Serif" font-size="10.00">/lethe/source/dem/dem.cc</text>
</a>
</g>
</g>
<!-- Node3&#45;&gt;Node10 -->
<g id="edge10_Node000003_Node000010" class="edge">
<title>Node3&#45;&gt;Node10</title>
<g id="a_edge10_Node000003_Node000010"><a xlink:title=" ">
<path fill="none" stroke="#63b8ff" d="M424.7,-256.55C440.97,-240.83 462.6,-219.92 476.78,-206.22"/>
<polygon fill="#63b8ff" stroke="#63b8ff" points="421.96,-254.33 417.2,-263.8 426.82,-259.37 421.96,-254.33"/>
</a>
</g>
</g>
<!-- Node5 -->
<g id="Node000005" class="node">
<title>Node5</title>
<g id="a_Node000005"><a xlink:href="cfd__dem__coupling_8cc.html" target="_top" xlink:title=" ">
<polygon fill="white" stroke="#666666" points="495,-41 358,-41 358,0 495,0 495,-41"/>
<text text-anchor="start" x="366" y="-29" font-family="Helvetica,sans-Serif" font-size="10.00">/home/runner/work/lethe</text>
<text text-anchor="start" x="366" y="-18" font-family="Helvetica,sans-Serif" font-size="10.00">/lethe/source/fem&#45;dem</text>
<text text-anchor="middle" x="426.5" y="-7" font-family="Helvetica,sans-Serif" font-size="10.00">/cfd_dem_coupling.cc</text>
</a>
</g>
</g>
<!-- Node4&#45;&gt;Node5 -->
<g id="edge4_Node000004_Node000005" class="edge">
<title>Node4&#45;&gt;Node5</title>
<g id="a_edge4_Node000004_Node000005"><a xlink:title=" ">
<path fill="none" stroke="#63b8ff" d="M282.43,-78.63C312.5,-66.71 348.66,-52.37 377.23,-41.04"/>
<polygon fill="#63b8ff" stroke="#63b8ff" points="280.91,-75.47 272.9,-82.41 283.49,-81.98 280.91,-75.47"/>
</a>
</g>
</g>
<!-- Node7 -->
<g id="Node000007" class="node">
<title>Node7</title>
<g id="a_Node000007"><a xlink:href="cfd__dem__coupling__matrix__free_8cc.html" target="_top" xlink:title=" ">
<polygon fill="white" stroke="#666666" points="529.5,-129 383.5,-129 383.5,-77 529.5,-77 529.5,-129"/>
<text text-anchor="start" x="391.5" y="-117" font-family="Helvetica,sans-Serif" font-size="10.00">/home/runner/work/lethe</text>
<text text-anchor="start" x="391.5" y="-106" font-family="Helvetica,sans-Serif" font-size="10.00">/lethe/source/fem&#45;dem</text>
<text text-anchor="start" x="391.5" y="-95" font-family="Helvetica,sans-Serif" font-size="10.00">/cfd_dem_coupling_matrix</text>
<text text-anchor="middle" x="456.5" y="-84" font-family="Helvetica,sans-Serif" font-size="10.00">_free.cc</text>
</a>
</g>
</g>
<!-- Node6&#45;&gt;Node7 -->
<g id="edge6_Node000006_Node000007" class="edge">
<title>Node6&#45;&gt;Node7</title>
<g id="a_edge6_Node000006_Node000007"><a xlink:title=" ">
<path fill="none" stroke="#63b8ff" d="M353.9,-165.28C372.87,-153.95 395.32,-140.54 414.38,-129.16"/>
<polygon fill="#63b8ff" stroke="#63b8ff" points="351.97,-162.35 345.18,-170.49 355.56,-168.36 351.97,-162.35"/>
</a>
</g>
</g>
<!-- Node8&#45;&gt;Node4 -->
<g id="edge8_Node000008_Node000004" class="edge">
<title>Node8&#45;&gt;Node4</title>
<g id="a_edge8_Node000008_Node000004"><a xlink:title=" ">
<path fill="none" stroke="#63b8ff" d="M134.59,-164.69C153.74,-151.61 176.77,-135.9 194.59,-123.74"/>
<polygon fill="#63b8ff" stroke="#63b8ff" points="132.38,-161.96 126.09,-170.49 136.32,-167.74 132.38,-161.96"/>
</a>
</g>
</g>
<!-- Node9 -->
<g id="Node000009" class="node">
<title>Node9</title>
<g id="a_Node000009"><a xlink:href="fluid__dynamics__vans_8cc.html" target="_top" xlink:title=" ">
<polygon fill="white" stroke="#666666" points="137,-123.5 0,-123.5 0,-82.5 137,-82.5 137,-123.5"/>
<text text-anchor="start" x="8" y="-111.5" font-family="Helvetica,sans-Serif" font-size="10.00">/home/runner/work/lethe</text>
<text text-anchor="start" x="8" y="-100.5" font-family="Helvetica,sans-Serif" font-size="10.00">/lethe/source/fem&#45;dem</text>
<text text-anchor="middle" x="68.5" y="-89.5" font-family="Helvetica,sans-Serif" font-size="10.00">/fluid_dynamics_vans.cc</text>
</a>
</g>
</g>
<!-- Node8&#45;&gt;Node9 -->
<g id="edge9_Node000008_Node000009" class="edge">
<title>Node8&#45;&gt;Node9</title>
<g id="a_edge9_Node000008_Node000009"><a xlink:title=" ">
<path fill="none" stroke="#63b8ff" d="M87.63,-160.73C83.52,-148.53 78.85,-134.69 75.15,-123.74"/>
<polygon fill="#63b8ff" stroke="#63b8ff" points="84.41,-162.13 90.92,-170.49 91.04,-159.89 84.41,-162.13"/>
</a>
</g>
</g>
<!-- Node11&#45;&gt;Node3 -->
<g id="edge12_Node000011_Node000003" class="edge">
<title>Node11&#45;&gt;Node3</title>
<g id="a_edge12_Node000011_Node000003"><a xlink:title=" ">
<path fill="none" stroke="#63b8ff" d="M687.61,-343.05C621.23,-328.37 527.54,-307.65 465.93,-294.03"/>
<polygon fill="#63b8ff" stroke="#63b8ff" points="687.09,-346.52 697.61,-345.26 688.6,-339.69 687.09,-346.52"/>
</a>
</g>
</g>
<!-- Node11&#45;&gt;Node12 -->
<g id="edge13_Node000011_Node000012" class="edge">
<title>Node11&#45;&gt;Node12</title>
<g id="a_edge13_Node000011_Node000012"><a xlink:title=" ">
<path fill="none" stroke="#63b8ff" d="M734.24,-334.26C722.79,-324.96 709.93,-314.5 698.59,-305.28"/>
<polygon fill="#63b8ff" stroke="#63b8ff" points="732.31,-337.21 742.28,-340.81 736.73,-331.78 732.31,-337.21"/>
</a>
</g>
</g>
<!-- Node14 -->
<g id="Node000014" class="node">
<title>Node14</title>
<g id="a_Node000014"><a xlink:href="fluid__dynamics__sharp_8cc.html" target="_top" xlink:title=" ">
<polygon fill="white" stroke="#666666" points="994,-123.5 855,-123.5 855,-82.5 994,-82.5 994,-123.5"/>
<text text-anchor="start" x="863" y="-111.5" font-family="Helvetica,sans-Serif" font-size="10.00">/home/runner/work/lethe</text>
<text text-anchor="start" x="863" y="-100.5" font-family="Helvetica,sans-Serif" font-size="10.00">/lethe/source/fem&#45;dem</text>
<text text-anchor="middle" x="924.5" y="-89.5" font-family="Helvetica,sans-Serif" font-size="10.00">/fluid_dynamics_sharp.cc</text>
</a>
</g>
</g>
<!-- Node11&#45;&gt;Node14 -->
<g id="edge23_Node000011_Node000014" class="edge">
<title>Node11&#45;&gt;Node14</title>
<g id="a_edge23_Node000011_Node000014"><a xlink:title=" ">
<path fill="none" stroke="#63b8ff" d="M845.11,-347.18C877.24,-338.91 913.38,-325.76 941.5,-305 979.79,-276.74 988.3,-262.42 1002.5,-217 1009.4,-194.94 1012.63,-185.77 1002.5,-165 994.06,-147.69 978.08,-133.85 962.77,-123.76"/>
<polygon fill="#63b8ff" stroke="#63b8ff" points="844.16,-343.8 835.28,-349.58 845.83,-350.6 844.16,-343.8"/>
</a>
</g>
</g>
<!-- Node15 -->
<g id="Node000015" class="node">
<title>Node15</title>
<g id="a_Node000015"><a xlink:href="set__particle__particle__contact__force__model_8cc.html" target="_top" xlink:title=" ">
<polygon fill="white" stroke="#666666" points="837.5,-217 695.5,-217 695.5,-165 837.5,-165 837.5,-217"/>
<text text-anchor="start" x="703.5" y="-205" font-family="Helvetica,sans-Serif" font-size="10.00">/home/runner/work/lethe</text>
<text text-anchor="start" x="703.5" y="-194" font-family="Helvetica,sans-Serif" font-size="10.00">/lethe/source/dem/set</text>
<text text-anchor="start" x="703.5" y="-183" font-family="Helvetica,sans-Serif" font-size="10.00">_particle_particle_contact</text>
<text text-anchor="middle" x="766.5" y="-172" font-family="Helvetica,sans-Serif" font-size="10.00">_force_model.cc</text>
</a>
</g>
</g>
<!-- Node11&#45;&gt;Node15 -->
<g id="edge22_Node000011_Node000015" class="edge">
<title>Node11&#45;&gt;Node15</title>
<g id="a_edge22_Node000011_Node000015"><a xlink:title=" ">
<path fill="none" stroke="#63b8ff" d="M766.5,-330.68C766.5,-298.44 766.5,-247.63 766.5,-217.28"/>
<polygon fill="#63b8ff" stroke="#63b8ff" points="763,-330.84 766.5,-340.84 770,-330.84 763,-330.84"/>
</a>
</g>
</g>
<!-- Node16 -->
<g id="Node000016" class="node">
<title>Node16</title>
<g id="a_Node000016"><a xlink:href="force__chains__visualization_8cc.html" target="_top" xlink:title=" ">
<polygon fill="white" stroke="#666666" points="932,-299.5 795,-299.5 795,-258.5 932,-258.5 932,-299.5"/>
<text text-anchor="start" x="803" y="-287.5" font-family="Helvetica,sans-Serif" font-size="10.00">/home/runner/work/lethe</text>
<text text-anchor="start" x="803" y="-276.5" font-family="Helvetica,sans-Serif" font-size="10.00">/lethe/source/dem/force</text>
<text text-anchor="middle" x="863.5" y="-265.5" font-family="Helvetica,sans-Serif" font-size="10.00">_chains_visualization.cc</text>
</a>
</g>
</g>
<!-- Node11&#45;&gt;Node16 -->
<g id="edge21_Node000011_Node000016" class="edge">
<title>Node11&#45;&gt;Node16</title>
<g id="a_edge21_Node000011_Node000016"><a xlink:title=" ">
<path fill="none" stroke="#63b8ff" d="M798.18,-334.21C811.73,-322.96 827.27,-310.06 839.8,-299.67"/>
<polygon fill="#63b8ff" stroke="#63b8ff" points="795.94,-331.52 790.48,-340.6 800.41,-336.91 795.94,-331.52"/>
</a>
</g>
</g>
<!-- Node12&#45;&gt;Node5 -->
<g id="edge18_Node000012_Node000005" class="edge">
<title>Node12&#45;&gt;Node5</title>
<g id="a_edge18_Node000012_Node000005"><a xlink:title=" ">
<path fill="none" stroke="#63b8ff" d="M653.57,-243.52C634.05,-199.22 594.54,-122.59 538.5,-77 520.49,-62.35 497.97,-50.25 477.85,-41.13"/>
<polygon fill="#63b8ff" stroke="#63b8ff" points="650.37,-244.94 657.55,-252.73 656.8,-242.16 650.37,-244.94"/>
</a>
</g>
</g>
<!-- Node12&#45;&gt;Node7 -->
<g id="edge19_Node000012_Node000007" class="edge">
<title>Node12&#45;&gt;Node7</title>
<g id="a_edge19_Node000012_Node000007"><a xlink:title=" ">
<path fill="none" stroke="#63b8ff" d="M639.3,-245.11C631.56,-236.02 623.18,-226.15 615.5,-217 596.22,-194.03 595.78,-183.9 572.5,-165 555.28,-151.02 534.35,-138.84 515.03,-129.11"/>
<polygon fill="#63b8ff" stroke="#63b8ff" points="636.76,-247.51 645.91,-252.85 642.08,-242.97 636.76,-247.51"/>
</a>
</g>
</g>
<!-- Node12&#45;&gt;Node10 -->
<g id="edge16_Node000012_Node000010" class="edge">
<title>Node12&#45;&gt;Node10</title>
<g id="a_edge16_Node000012_Node000010"><a xlink:title=" ">
<path fill="none" stroke="#63b8ff" d="M606.77,-248.32C577.42,-233.99 543.59,-217.45 520.2,-206.03"/>
<polygon fill="#63b8ff" stroke="#63b8ff" points="605.6,-251.65 616.12,-252.89 608.67,-245.36 605.6,-251.65"/>
</a>
</g>
</g>
<!-- Node13 -->
<g id="Node000013" class="node">
<title>Node13</title>
<g id="a_Node000013"><a xlink:href="fluid__dynamics__sharp_8h.html" target="_top" xlink:title=" ">
<polygon fill="white" stroke="#666666" points="993,-211.5 856,-211.5 856,-170.5 993,-170.5 993,-211.5"/>
<text text-anchor="start" x="864" y="-199.5" font-family="Helvetica,sans-Serif" font-size="10.00">/home/runner/work/lethe</text>
<text text-anchor="start" x="864" y="-188.5" font-family="Helvetica,sans-Serif" font-size="10.00">/lethe/include/fem&#45;dem</text>
<text text-anchor="middle" x="924.5" y="-177.5" font-family="Helvetica,sans-Serif" font-size="10.00">/fluid_dynamics_sharp.h</text>
</a>
</g>
</g>
<!-- Node12&#45;&gt;Node13 -->
<g id="edge14_Node000012_Node000013" class="edge">
<title>Node12&#45;&gt;Node13</title>
<g id="a_edge14_Node000012_Node000013"><a xlink:title=" ">
<path fill="none" stroke="#63b8ff" d="M748.31,-250.96C786.51,-238.17 831.27,-223.2 866.12,-211.54"/>
<polygon fill="#63b8ff" stroke="#63b8ff" points="747.12,-247.67 738.75,-254.16 749.34,-254.3 747.12,-247.67"/>
</a>
</g>
</g>
<!-- Node12&#45;&gt;Node14 -->
<g id="edge20_Node000012_Node000014" class="edge">
<title>Node12&#45;&gt;Node14</title>
<g id="a_edge20_Node000012_Node000014"><a xlink:title=" ">
<path fill="none" stroke="#63b8ff" d="M664.07,-242.51C663.69,-217.78 667.54,-185.63 686.5,-165 709.09,-140.42 793,-123.1 854.82,-113.34"/>
<polygon fill="#63b8ff" stroke="#63b8ff" points="660.57,-242.75 664.45,-252.61 667.57,-242.48 660.57,-242.75"/>
</a>
</g>
</g>
<!-- Node12&#45;&gt;Node15 -->
<g id="edge17_Node000012_Node000015" class="edge">
<title>Node12&#45;&gt;Node15</title>
<g id="a_edge17_Node000012_Node000015"><a xlink:title=" ">
<path fill="none" stroke="#63b8ff" d="M704.18,-246.13C715.14,-236.62 726.99,-226.32 737.39,-217.29"/>
<polygon fill="#63b8ff" stroke="#63b8ff" points="701.66,-243.69 696.4,-252.89 706.25,-248.98 701.66,-243.69"/>
</a>
</g>
</g>
<!-- Node13&#45;&gt;Node14 -->
<g id="edge15_Node000013_Node000014" class="edge">
<title>Node13&#45;&gt;Node14</title>
<g id="a_edge15_Node000013_Node000014"><a xlink:title=" ">
<path fill="none" stroke="#63b8ff" d="M924.5,-160.36C924.5,-148.26 924.5,-134.58 924.5,-123.74"/>
<polygon fill="#63b8ff" stroke="#63b8ff" points="921,-160.49 924.5,-170.49 928,-160.49 921,-160.49"/>
</a>
</g>
</g>
<!-- Node17&#45;&gt;Node13 -->
<g id="edge26_Node000017_Node000013" class="edge">
<title>Node17&#45;&gt;Node13</title>
<g id="a_edge26_Node000017_Node000013"><a xlink:title=" ">
<path fill="none" stroke="#63b8ff" d="M955.43,-331.04C952.22,-309.35 947.33,-279.19 941.5,-253 938.4,-239.05 934.06,-223.54 930.55,-211.65"/>
<polygon fill="#63b8ff" stroke="#63b8ff" points="951.97,-331.56 956.86,-340.96 958.89,-330.56 951.97,-331.56"/>
</a>
</g>
</g>
<!-- Node18 -->
<g id="Node000018" class="node">
<title>Node18</title>
<g id="a_Node000018"><a xlink:href="ib__particles__dem_8cc.html" target="_top" xlink:title=" ">
<polygon fill="white" stroke="#666666" points="1194,-299.5 1057,-299.5 1057,-258.5 1194,-258.5 1194,-299.5"/>
<text text-anchor="start" x="1065" y="-287.5" font-family="Helvetica,sans-Serif" font-size="10.00">/home/runner/work/lethe</text>
<text text-anchor="start" x="1065" y="-276.5" font-family="Helvetica,sans-Serif" font-size="10.00">/lethe/source/fem&#45;dem</text>
<text text-anchor="middle" x="1125.5" y="-265.5" font-family="Helvetica,sans-Serif" font-size="10.00">/ib_particles_dem.cc</text>
</a>
</g>
</g>
<!-- Node17&#45;&gt;Node18 -->
<g id="edge27_Node000017_Node000018" class="edge">
<title>Node17&#45;&gt;Node18</title>
<g id="a_edge27_Node000017_Node000018"><a xlink:title=" ">
<path fill="none" stroke="#63b8ff" d="M1009.15,-336.42C1033.38,-324.67 1062.15,-310.72 1085.02,-299.63"/>
<polygon fill="#63b8ff" stroke="#63b8ff" points="1007.58,-333.29 1000.11,-340.81 1010.63,-339.59 1007.58,-333.29"/>
</a>
</g>
</g>
</g>
</svg>
