<?xml version="1.0" encoding="UTF-8" standalone="no"?>
<!DOCTYPE svg PUBLIC "-//W3C//DTD SVG 1.1//EN"
 "http://www.w3.org/Graphics/SVG/1.1/DTD/svg11.dtd">
<!-- Generated by graphviz version 2.43.0 (0)
 -->
<!-- Title: /home/runner/work/lethe/lethe/include/core/boundary_conditions.h Pages: 1 -->
<svg width="2153pt" height="247pt"
 viewBox="0.00 0.00 2153.00 247.00" xmlns="http://www.w3.org/2000/svg" xmlns:xlink="http://www.w3.org/1999/xlink">
<g id="graph0" class="graph" transform="scale(1 1) rotate(0) translate(4 243)">
<title>/home/runner/work/lethe/lethe/include/core/boundary_conditions.h</title>
<!-- Node1 -->
<g id="Node000001" class="node">
<title>Node1</title>
<g id="a_Node000001"><a xlink:title=" ">
<polygon fill="#999999" stroke="#666666" points="960.5,-239 805.5,-239 805.5,-198 960.5,-198 960.5,-239"/>
<text text-anchor="start" x="813.5" y="-227" font-family="Helvetica,sans-Serif" font-size="10.00">/home/runner/work/lethe</text>
<text text-anchor="start" x="813.5" y="-216" font-family="Helvetica,sans-Serif" font-size="10.00">/lethe/include/core/boundary</text>
<text text-anchor="middle" x="883" y="-205" font-family="Helvetica,sans-Serif" font-size="10.00">_conditions.h</text>
</a>
</g>
</g>
<!-- Node2 -->
<g id="Node000002" class="node">
<title>Node2</title>
<g id="a_Node000002"><a xlink:href="periodic__boundary_8h.html" target="_top" xlink:title=" ">
<polygon fill="white" stroke="#666666" points="218,-156.5 80,-156.5 80,-137.5 218,-137.5 218,-156.5"/>
<text text-anchor="middle" x="149" y="-144.5" font-family="Helvetica,sans-Serif" font-size="10.00">core/periodic_boundary.h</text>
</a>
</g>
</g>
<!-- Node1&#45;&gt;Node2 -->
<g id="edge1_Node000001_Node000002" class="edge">
<title>Node1&#45;&gt;Node2</title>
<g id="a_edge1_Node000001_Node000002"><a xlink:title=" ">
<path fill="none" stroke="#63b8ff" d="M805.49,-210.16C665.1,-196.87 370.17,-168.94 228.4,-155.52"/>
<polygon fill="#63b8ff" stroke="#63b8ff" points="228.34,-152 218.05,-154.54 227.68,-158.97 228.34,-152"/>
</a>
</g>
</g>
<!-- Node4 -->
<g id="Node000004" class="node">
<title>Node4</title>
<g id="a_Node000004"><a xlink:title=" ">
<polygon fill="#e0e0e0" stroke="#999999" points="168,-90.5 130,-90.5 130,-71.5 168,-71.5 168,-90.5"/>
<text text-anchor="middle" x="149" y="-78.5" font-family="Helvetica,sans-Serif" font-size="10.00">map</text>
</a>
</g>
</g>
<!-- Node1&#45;&gt;Node4 -->
<g id="edge29_Node000001_Node000004" class="edge">
<title>Node1&#45;&gt;Node4</title>
<g id="a_edge29_Node000001_Node000004"><a xlink:title=" ">
<path fill="none" stroke="#63b8ff" d="M805.42,-212.57C673.16,-202.33 396.98,-172.92 177,-96 175.95,-95.63 174.89,-95.23 173.82,-94.81"/>
<polygon fill="#63b8ff" stroke="#63b8ff" points="174.95,-91.48 164.39,-90.57 172.08,-97.87 174.95,-91.48"/>
</a>
</g>
</g>
<!-- Node5 -->
<g id="Node000005" class="node">
<title>Node5</title>
<g id="a_Node000005"><a xlink:href="core_2utilities_8h.html" target="_top" xlink:title=" ">
<polygon fill="white" stroke="#666666" points="926,-156.5 840,-156.5 840,-137.5 926,-137.5 926,-156.5"/>
<text text-anchor="middle" x="883" y="-144.5" font-family="Helvetica,sans-Serif" font-size="10.00">core/utilities.h</text>
</a>
</g>
</g>
<!-- Node1&#45;&gt;Node5 -->
<g id="edge4_Node000001_Node000005" class="edge">
<title>Node1&#45;&gt;Node5</title>
<g id="a_edge4_Node000001_Node000005"><a xlink:title=" ">
<path fill="none" stroke="#63b8ff" d="M883,-197.77C883,-188.08 883,-176.46 883,-166.88"/>
<polygon fill="#63b8ff" stroke="#63b8ff" points="886.5,-166.82 883,-156.82 879.5,-166.82 886.5,-166.82"/>
</a>
</g>
</g>
<!-- Node11 -->
<g id="Node000011" class="node">
<title>Node11</title>
<g id="a_Node000011"><a xlink:title=" ">
<polygon fill="#e0e0e0" stroke="#999999" points="313.5,-96 186.5,-96 186.5,-66 313.5,-66 313.5,-96"/>
<text text-anchor="start" x="194.5" y="-84" font-family="Helvetica,sans-Serif" font-size="10.00">deal.II/base/parameter</text>
<text text-anchor="middle" x="250" y="-73" font-family="Helvetica,sans-Serif" font-size="10.00">_handler.h</text>
</a>
</g>
</g>
<!-- Node1&#45;&gt;Node11 -->
<g id="edge26_Node000001_Node000011" class="edge">
<title>Node1&#45;&gt;Node11</title>
<g id="a_edge26_Node000001_Node000011"><a xlink:title=" ">
<path fill="none" stroke="#63b8ff" d="M805.38,-200.89C682.4,-174.56 444.36,-123.61 323.81,-97.8"/>
<polygon fill="#63b8ff" stroke="#63b8ff" points="324.43,-94.35 313.92,-95.68 322.97,-101.2 324.43,-94.35"/>
</a>
</g>
</g>
<!-- Node24 -->
<g id="Node000024" class="node">
<title>Node24</title>
<g id="a_Node000024"><a xlink:title=" ">
<polygon fill="#e0e0e0" stroke="#999999" points="1069.5,-156.5 944.5,-156.5 944.5,-137.5 1069.5,-137.5 1069.5,-156.5"/>
<text text-anchor="middle" x="1007" y="-144.5" font-family="Helvetica,sans-Serif" font-size="10.00">deal.II/base/function.h</text>
</a>
</g>
</g>
<!-- Node1&#45;&gt;Node24 -->
<g id="edge25_Node000001_Node000024" class="edge">
<title>Node1&#45;&gt;Node24</title>
<g id="a_edge25_Node000001_Node000024"><a xlink:title=" ">
<path fill="none" stroke="#63b8ff" d="M917.87,-197.96C938.61,-186.33 964.4,-171.88 982.89,-161.51"/>
<polygon fill="#63b8ff" stroke="#63b8ff" points="984.82,-164.45 991.83,-156.5 981.39,-158.34 984.82,-164.45"/>
</a>
</g>
</g>
<!-- Node25 -->
<g id="Node000025" class="node">
<title>Node25</title>
<g id="a_Node000025"><a xlink:title=" ">
<polygon fill="#e0e0e0" stroke="#999999" points="1196.5,-162 1087.5,-162 1087.5,-132 1196.5,-132 1196.5,-162"/>
<text text-anchor="start" x="1095.5" y="-150" font-family="Helvetica,sans-Serif" font-size="10.00">deal.II/base/parsed</text>
<text text-anchor="middle" x="1142" y="-139" font-family="Helvetica,sans-Serif" font-size="10.00">_function.h</text>
</a>
</g>
</g>
<!-- Node1&#45;&gt;Node25 -->
<g id="edge27_Node000001_Node000025" class="edge">
<title>Node1&#45;&gt;Node25</title>
<g id="a_edge27_Node000001_Node000025"><a xlink:title=" ">
<path fill="none" stroke="#63b8ff" d="M955.84,-197.96C994.98,-187.45 1042.73,-174.64 1080.07,-164.62"/>
<polygon fill="#63b8ff" stroke="#63b8ff" points="1081.06,-167.98 1089.81,-162 1079.25,-161.22 1081.06,-167.98"/>
</a>
</g>
</g>
<!-- Node26 -->
<g id="Node000026" class="node">
<title>Node26</title>
<g id="a_Node000026"><a xlink:title=" ">
<polygon fill="#e0e0e0" stroke="#999999" points="1339.5,-156.5 1214.5,-156.5 1214.5,-137.5 1339.5,-137.5 1339.5,-156.5"/>
<text text-anchor="middle" x="1277" y="-144.5" font-family="Helvetica,sans-Serif" font-size="10.00">deal.II/base/patterns.h</text>
</a>
</g>
</g>
<!-- Node1&#45;&gt;Node26 -->
<g id="edge28_Node000001_Node000026" class="edge">
<title>Node1&#45;&gt;Node26</title>
<g id="a_edge28_Node000001_Node000026"><a xlink:title=" ">
<path fill="none" stroke="#63b8ff" d="M960.76,-204.69C1026.24,-193.77 1122.35,-177.43 1206,-162 1212.08,-160.88 1218.45,-159.67 1224.77,-158.45"/>
<polygon fill="#63b8ff" stroke="#63b8ff" points="1225.46,-161.88 1234.61,-156.54 1224.12,-155.01 1225.46,-161.88"/>
</a>
</g>
</g>
<!-- Node3 -->
<g id="Node000003" class="node">
<title>Node3</title>
<g id="a_Node000003"><a xlink:title=" ">
<polygon fill="#e0e0e0" stroke="#999999" points="112,-90.5 0,-90.5 0,-71.5 112,-71.5 112,-90.5"/>
<text text-anchor="middle" x="56" y="-78.5" font-family="Helvetica,sans-Serif" font-size="10.00">deal.II/base/types.h</text>
</a>
</g>
</g>
<!-- Node2&#45;&gt;Node3 -->
<g id="edge2_Node000002_Node000003" class="edge">
<title>Node2&#45;&gt;Node3</title>
<g id="a_edge2_Node000002_Node000003"><a xlink:title=" ">
<path fill="none" stroke="#63b8ff" d="M136.46,-137.37C121.2,-126.87 95.23,-109 76.93,-96.4"/>
<polygon fill="#63b8ff" stroke="#63b8ff" points="78.86,-93.48 68.64,-90.7 74.89,-99.25 78.86,-93.48"/>
</a>
</g>
</g>
<!-- Node2&#45;&gt;Node4 -->
<g id="edge3_Node000002_Node000004" class="edge">
<title>Node2&#45;&gt;Node4</title>
<g id="a_edge3_Node000002_Node000004"><a xlink:title=" ">
<path fill="none" stroke="#63b8ff" d="M149,-137.37C149,-128.16 149,-113.29 149,-101.27"/>
<polygon fill="#63b8ff" stroke="#63b8ff" points="152.5,-100.91 149,-90.91 145.5,-100.91 152.5,-100.91"/>
</a>
</g>
</g>
<!-- Node5&#45;&gt;Node4 -->
<g id="edge21_Node000005_Node000004" class="edge">
<title>Node5&#45;&gt;Node4</title>
<g id="a_edge21_Node000005_Node000004"><a xlink:title=" ">
<path fill="none" stroke="#63b8ff" d="M839.68,-145.15C706.25,-142.17 302.92,-130.47 177,-96 175.56,-95.61 174.1,-95.13 172.65,-94.61"/>
<polygon fill="#63b8ff" stroke="#63b8ff" points="173.95,-91.35 163.39,-90.54 171.14,-97.76 173.95,-91.35"/>
</a>
</g>
</g>
<!-- Node6 -->
<g id="Node000006" class="node">
<title>Node6</title>
<g id="a_Node000006"><a xlink:href="output__struct_8h.html" target="_top" xlink:title=" ">
<polygon fill="white" stroke="#666666" points="1139,-90.5 1025,-90.5 1025,-71.5 1139,-71.5 1139,-90.5"/>
<text text-anchor="middle" x="1082" y="-78.5" font-family="Helvetica,sans-Serif" font-size="10.00">core/output_struct.h</text>
</a>
</g>
</g>
<!-- Node5&#45;&gt;Node6 -->
<g id="edge5_Node000005_Node000006" class="edge">
<title>Node5&#45;&gt;Node6</title>
<g id="a_edge5_Node000005_Node000006"><a xlink:title=" ">
<path fill="none" stroke="#63b8ff" d="M909.84,-137.37C944.87,-126.1 1006.34,-106.33 1045.56,-93.72"/>
<polygon fill="#63b8ff" stroke="#63b8ff" points="1046.82,-96.99 1055.27,-90.6 1044.68,-90.33 1046.82,-96.99"/>
</a>
</g>
</g>
<!-- Node7 -->
<g id="Node000007" class="node">
<title>Node7</title>
<g id="a_Node000007"><a xlink:title=" ">
<polygon fill="#e0e0e0" stroke="#999999" points="1047.5,-30 946.5,-30 946.5,0 1047.5,0 1047.5,-30"/>
<text text-anchor="start" x="954.5" y="-18" font-family="Helvetica,sans-Serif" font-size="10.00">deal.II/base/table</text>
<text text-anchor="middle" x="997" y="-7" font-family="Helvetica,sans-Serif" font-size="10.00">_handler.h</text>
</a>
</g>
</g>
<!-- Node5&#45;&gt;Node7 -->
<g id="edge12_Node000005_Node000007" class="edge">
<title>Node5&#45;&gt;Node7</title>
<g id="a_edge12_Node000005_Node000007"><a xlink:title=" ">
<path fill="none" stroke="#63b8ff" d="M912.7,-137.39C933.68,-129.8 960.84,-116.68 977,-96 989.37,-80.18 994.19,-57.68 996.02,-40.56"/>
<polygon fill="#63b8ff" stroke="#63b8ff" points="999.53,-40.47 996.84,-30.22 992.56,-39.91 999.53,-40.47"/>
</a>
</g>
</g>
<!-- Node9 -->
<g id="Node000009" class="node">
<title>Node9</title>
<g id="a_Node000009"><a xlink:title=" ">
<polygon fill="#e0e0e0" stroke="#999999" points="1287,-96 1157,-96 1157,-66 1287,-66 1287,-96"/>
<text text-anchor="start" x="1165" y="-84" font-family="Helvetica,sans-Serif" font-size="10.00">deal.II/base/conditional</text>
<text text-anchor="middle" x="1222" y="-73" font-family="Helvetica,sans-Serif" font-size="10.00">_ostream.h</text>
</a>
</g>
</g>
<!-- Node5&#45;&gt;Node9 -->
<g id="edge8_Node000005_Node000009" class="edge">
<title>Node5&#45;&gt;Node9</title>
<g id="a_edge8_Node000005_Node000009"><a xlink:title=" ">
<path fill="none" stroke="#63b8ff" d="M912.85,-137.44C920.07,-135.51 927.78,-133.58 935,-132 1025.68,-112.18 1051.78,-112.85 1146.62,-96.21"/>
<polygon fill="#63b8ff" stroke="#63b8ff" points="1147.41,-99.63 1156.64,-94.44 1146.19,-92.74 1147.41,-99.63"/>
</a>
</g>
</g>
<!-- Node10 -->
<g id="Node000010" class="node">
<title>Node10</title>
<g id="a_Node000010"><a xlink:title=" ">
<polygon fill="#e0e0e0" stroke="#999999" points="1440.5,-96 1305.5,-96 1305.5,-66 1440.5,-66 1440.5,-96"/>
<text text-anchor="start" x="1313.5" y="-84" font-family="Helvetica,sans-Serif" font-size="10.00">deal.II/base/mpi_remote</text>
<text text-anchor="middle" x="1373" y="-73" font-family="Helvetica,sans-Serif" font-size="10.00">_point_evaluation.h</text>
</a>
</g>
</g>
<!-- Node5&#45;&gt;Node10 -->
<g id="edge9_Node000005_Node000010" class="edge">
<title>Node5&#45;&gt;Node10</title>
<g id="a_edge9_Node000005_Node000010"><a xlink:title=" ">
<path fill="none" stroke="#63b8ff" d="M911.42,-137.45C919.02,-135.41 927.28,-133.42 935,-132 1090.35,-103.54 1134.53,-117.82 1295.2,-96.02"/>
<polygon fill="#63b8ff" stroke="#63b8ff" points="1296.02,-99.44 1305.44,-94.6 1295.06,-92.5 1296.02,-99.44"/>
</a>
</g>
</g>
<!-- Node5&#45;&gt;Node11 -->
<g id="edge10_Node000005_Node000011" class="edge">
<title>Node5&#45;&gt;Node11</title>
<g id="a_edge10_Node000005_Node000011"><a xlink:title=" ">
<path fill="none" stroke="#63b8ff" d="M839.81,-142.73C729.74,-134.31 439.75,-111.54 323.58,-96.1"/>
<polygon fill="#63b8ff" stroke="#63b8ff" points="323.93,-92.62 313.54,-94.72 322.97,-99.55 323.93,-92.62"/>
</a>
</g>
</g>
<!-- Node12 -->
<g id="Node000012" class="node">
<title>Node12</title>
<g id="a_Node000012"><a xlink:title=" ">
<polygon fill="#e0e0e0" stroke="#999999" points="1569,-90.5 1459,-90.5 1459,-71.5 1569,-71.5 1569,-90.5"/>
<text text-anchor="middle" x="1514" y="-78.5" font-family="Helvetica,sans-Serif" font-size="10.00">deal.II/base/point.h</text>
</a>
</g>
</g>
<!-- Node5&#45;&gt;Node12 -->
<g id="edge11_Node000005_Node000012" class="edge">
<title>Node5&#45;&gt;Node12</title>
<g id="a_edge11_Node000005_Node000012"><a xlink:title=" ">
<path fill="none" stroke="#63b8ff" d="M910.85,-137.44C918.6,-135.35 927.07,-133.33 935,-132 1161.28,-94 1222.88,-128.6 1450,-96 1456.28,-95.1 1462.86,-93.93 1469.32,-92.64"/>
<polygon fill="#63b8ff" stroke="#63b8ff" points="1470.22,-96.03 1479.29,-90.56 1468.79,-89.18 1470.22,-96.03"/>
</a>
</g>
</g>
<!-- Node13 -->
<g id="Node000013" class="node">
<title>Node13</title>
<g id="a_Node000013"><a xlink:title=" ">
<polygon fill="#e0e0e0" stroke="#999999" points="1702.5,-90.5 1587.5,-90.5 1587.5,-71.5 1702.5,-71.5 1702.5,-90.5"/>
<text text-anchor="middle" x="1645" y="-78.5" font-family="Helvetica,sans-Serif" font-size="10.00">deal.II/base/tensor.h</text>
</a>
</g>
</g>
<!-- Node5&#45;&gt;Node13 -->
<g id="edge13_Node000005_Node000013" class="edge">
<title>Node5&#45;&gt;Node13</title>
<g id="a_edge13_Node000005_Node000013"><a xlink:title=" ">
<path fill="none" stroke="#63b8ff" d="M910.57,-137.44C918.39,-135.32 926.97,-133.29 935,-132 1217.59,-86.55 1294.23,-133.38 1578,-96 1584.81,-95.1 1591.96,-93.9 1598.94,-92.57"/>
<polygon fill="#63b8ff" stroke="#63b8ff" points="1599.89,-95.95 1609.01,-90.56 1598.52,-89.09 1599.89,-95.95"/>
</a>
</g>
</g>
<!-- Node14 -->
<g id="Node000014" class="node">
<title>Node14</title>
<g id="a_Node000014"><a xlink:title=" ">
<polygon fill="#e0e0e0" stroke="#999999" points="1861,-90.5 1721,-90.5 1721,-71.5 1861,-71.5 1861,-90.5"/>
<text text-anchor="middle" x="1791" y="-78.5" font-family="Helvetica,sans-Serif" font-size="10.00">deal.II/dofs/dof_handler.h</text>
</a>
</g>
</g>
<!-- Node5&#45;&gt;Node14 -->
<g id="edge14_Node000005_Node000014" class="edge">
<title>Node5&#45;&gt;Node14</title>
<g id="a_edge14_Node000005_Node000014"><a xlink:title=" ">
<path fill="none" stroke="#63b8ff" d="M910.29,-137.46C918.19,-135.32 926.87,-133.27 935,-132 1276.58,-78.75 1368.42,-134.24 1712,-96 1720.56,-95.05 1729.59,-93.74 1738.36,-92.3"/>
<polygon fill="#63b8ff" stroke="#63b8ff" points="1739.24,-95.7 1748.51,-90.57 1738.06,-88.8 1739.24,-95.7"/>
</a>
</g>
</g>
<!-- Node15 -->
<g id="Node000015" class="node">
<title>Node15</title>
<g id="a_Node000015"><a xlink:title=" ">
<polygon fill="#e0e0e0" stroke="#999999" points="1998.5,-90.5 1879.5,-90.5 1879.5,-71.5 1998.5,-71.5 1998.5,-90.5"/>
<text text-anchor="middle" x="1939" y="-78.5" font-family="Helvetica,sans-Serif" font-size="10.00">deal.II/fe/fe_values.h</text>
</a>
</g>
</g>
<!-- Node5&#45;&gt;Node15 -->
<g id="edge15_Node000005_Node000015" class="edge">
<title>Node5&#45;&gt;Node15</title>
<g id="a_edge15_Node000005_Node000015"><a xlink:title=" ">
<path fill="none" stroke="#63b8ff" d="M910.01,-137.5C917.98,-135.32 926.77,-133.25 935,-132 1346.15,-69.55 1457.09,-145.51 1870,-96 1877.34,-95.12 1885.07,-93.87 1892.59,-92.48"/>
<polygon fill="#63b8ff" stroke="#63b8ff" points="1893.51,-95.87 1902.65,-90.52 1892.17,-89 1893.51,-95.87"/>
</a>
</g>
</g>
<!-- Node16 -->
<g id="Node000016" class="node">
<title>Node16</title>
<g id="a_Node000016"><a xlink:title=" ">
<polygon fill="#e0e0e0" stroke="#999999" points="2145,-96 2017,-96 2017,-66 2145,-66 2145,-96"/>
<text text-anchor="start" x="2025" y="-84" font-family="Helvetica,sans-Serif" font-size="10.00">deal.II/numerics/vector</text>
<text text-anchor="middle" x="2081" y="-73" font-family="Helvetica,sans-Serif" font-size="10.00">_tools.h</text>
</a>
</g>
</g>
<!-- Node5&#45;&gt;Node16 -->
<g id="edge16_Node000005_Node000016" class="edge">
<title>Node5&#45;&gt;Node16</title>
<g id="a_edge16_Node000005_Node000016"><a xlink:title=" ">
<path fill="none" stroke="#63b8ff" d="M910.01,-137.47C917.98,-135.3 926.77,-133.23 935,-132 1403.58,-62.01 1531.99,-147.86 2006.78,-95.99"/>
<polygon fill="#63b8ff" stroke="#63b8ff" points="2007.44,-99.44 2016.99,-94.86 2006.67,-92.48 2007.44,-99.44"/>
</a>
</g>
</g>
<!-- Node17 -->
<g id="Node000017" class="node">
<title>Node17</title>
<g id="a_Node000017"><a xlink:title=" ">
<polygon fill="#e0e0e0" stroke="#999999" points="462.5,-96 331.5,-96 331.5,-66 462.5,-66 462.5,-96"/>
<text text-anchor="start" x="339.5" y="-84" font-family="Helvetica,sans-Serif" font-size="10.00">deal.II/particles/particle</text>
<text text-anchor="middle" x="397" y="-73" font-family="Helvetica,sans-Serif" font-size="10.00">_iterator.h</text>
</a>
</g>
</g>
<!-- Node5&#45;&gt;Node17 -->
<g id="edge17_Node000005_Node000017" class="edge">
<title>Node5&#45;&gt;Node17</title>
<g id="a_edge17_Node000005_Node000017"><a xlink:title=" ">
<path fill="none" stroke="#63b8ff" d="M839.87,-141.72C766.49,-134.22 612.48,-117.59 472.76,-96.22"/>
<polygon fill="#63b8ff" stroke="#63b8ff" points="473.15,-92.73 462.73,-94.67 472.08,-99.65 473.15,-92.73"/>
</a>
</g>
</g>
<!-- Node18 -->
<g id="Node000018" class="node">
<title>Node18</title>
<g id="a_Node000018"><a xlink:title=" ">
<polygon fill="#e0e0e0" stroke="#999999" points="585.5,-96 480.5,-96 480.5,-66 585.5,-66 585.5,-96"/>
<text text-anchor="start" x="488.5" y="-84" font-family="Helvetica,sans-Serif" font-size="10.00">boost/archive/text</text>
<text text-anchor="middle" x="533" y="-73" font-family="Helvetica,sans-Serif" font-size="10.00">_iarchive.hpp</text>
</a>
</g>
</g>
<!-- Node5&#45;&gt;Node18 -->
<g id="edge18_Node000005_Node000018" class="edge">
<title>Node5&#45;&gt;Node18</title>
<g id="a_edge18_Node000005_Node000018"><a xlink:title=" ">
<path fill="none" stroke="#63b8ff" d="M839.78,-139.27C785.15,-130.61 688,-114.64 595.61,-96.27"/>
<polygon fill="#63b8ff" stroke="#63b8ff" points="596.03,-92.78 585.53,-94.25 594.65,-99.64 596.03,-92.78"/>
</a>
</g>
</g>
<!-- Node19 -->
<g id="Node000019" class="node">
<title>Node19</title>
<g id="a_Node000019"><a xlink:title=" ">
<polygon fill="#e0e0e0" stroke="#999999" points="708.5,-96 603.5,-96 603.5,-66 708.5,-66 708.5,-96"/>
<text text-anchor="start" x="611.5" y="-84" font-family="Helvetica,sans-Serif" font-size="10.00">boost/archive/text</text>
<text text-anchor="middle" x="656" y="-73" font-family="Helvetica,sans-Serif" font-size="10.00">_oarchive.hpp</text>
</a>
</g>
</g>
<!-- Node5&#45;&gt;Node19 -->
<g id="edge19_Node000005_Node000019" class="edge">
<title>Node5&#45;&gt;Node19</title>
<g id="a_edge19_Node000005_Node000019"><a xlink:title=" ">
<path fill="none" stroke="#63b8ff" d="M852.39,-137.37C817.51,-127.54 759.67,-111.23 715.77,-98.85"/>
<polygon fill="#63b8ff" stroke="#63b8ff" points="716.64,-95.46 706.07,-96.12 714.74,-102.2 716.64,-95.46"/>
</a>
</g>
</g>
<!-- Node20 -->
<g id="Node000020" class="node">
<title>Node20</title>
<g id="a_Node000020"><a xlink:title=" ">
<polygon fill="#e0e0e0" stroke="#999999" points="781.5,-90.5 726.5,-90.5 726.5,-71.5 781.5,-71.5 781.5,-90.5"/>
<text text-anchor="middle" x="754" y="-78.5" font-family="Helvetica,sans-Serif" font-size="10.00">fstream</text>
</a>
</g>
</g>
<!-- Node5&#45;&gt;Node20 -->
<g id="edge20_Node000005_Node000020" class="edge">
<title>Node5&#45;&gt;Node20</title>
<g id="a_edge20_Node000005_Node000020"><a xlink:title=" ">
<path fill="none" stroke="#63b8ff" d="M865.6,-137.37C843.77,-126.54 806.11,-107.85 780.64,-95.22"/>
<polygon fill="#63b8ff" stroke="#63b8ff" points="782.05,-92.01 771.53,-90.7 778.94,-98.28 782.05,-92.01"/>
</a>
</g>
</g>
<!-- Node21 -->
<g id="Node000021" class="node">
<title>Node21</title>
<g id="a_Node000021"><a xlink:title=" ">
<polygon fill="#e0e0e0" stroke="#999999" points="844,-90.5 800,-90.5 800,-71.5 844,-71.5 844,-90.5"/>
<text text-anchor="middle" x="822" y="-78.5" font-family="Helvetica,sans-Serif" font-size="10.00">string</text>
</a>
</g>
</g>
<!-- Node5&#45;&gt;Node21 -->
<g id="edge22_Node000005_Node000021" class="edge">
<title>Node5&#45;&gt;Node21</title>
<g id="a_edge22_Node000005_Node000021"><a xlink:title=" ">
<path fill="none" stroke="#63b8ff" d="M874.77,-137.37C865.28,-127.4 849.44,-110.79 837.59,-98.36"/>
<polygon fill="#63b8ff" stroke="#63b8ff" points="839.92,-95.73 830.49,-90.91 834.85,-100.56 839.92,-95.73"/>
</a>
</g>
</g>
<!-- Node22 -->
<g id="Node000022" class="node">
<title>Node22</title>
<g id="a_Node000022"><a xlink:title=" ">
<polygon fill="#e0e0e0" stroke="#999999" points="903.5,-90.5 862.5,-90.5 862.5,-71.5 903.5,-71.5 903.5,-90.5"/>
<text text-anchor="middle" x="883" y="-78.5" font-family="Helvetica,sans-Serif" font-size="10.00">tuple</text>
</a>
</g>
</g>
<!-- Node5&#45;&gt;Node22 -->
<g id="edge23_Node000005_Node000022" class="edge">
<title>Node5&#45;&gt;Node22</title>
<g id="a_edge23_Node000005_Node000022"><a xlink:title=" ">
<path fill="none" stroke="#63b8ff" d="M883,-137.37C883,-128.16 883,-113.29 883,-101.27"/>
<polygon fill="#63b8ff" stroke="#63b8ff" points="886.5,-100.91 883,-90.91 879.5,-100.91 886.5,-100.91"/>
</a>
</g>
</g>
<!-- Node23 -->
<g id="Node000023" class="node">
<title>Node23</title>
<g id="a_Node000023"><a xlink:title=" ">
<polygon fill="#e0e0e0" stroke="#999999" points="968.5,-90.5 921.5,-90.5 921.5,-71.5 968.5,-71.5 968.5,-90.5"/>
<text text-anchor="middle" x="945" y="-78.5" font-family="Helvetica,sans-Serif" font-size="10.00">vector</text>
</a>
</g>
</g>
<!-- Node5&#45;&gt;Node23 -->
<g id="edge24_Node000005_Node000023" class="edge">
<title>Node5&#45;&gt;Node23</title>
<g id="a_edge24_Node000005_Node000023"><a xlink:title=" ">
<path fill="none" stroke="#63b8ff" d="M891.36,-137.37C901.01,-127.4 917.11,-110.79 929.15,-98.36"/>
<polygon fill="#63b8ff" stroke="#63b8ff" points="931.93,-100.52 936.37,-90.91 926.9,-95.65 931.93,-100.52"/>
</a>
</g>
</g>
<!-- Node6&#45;&gt;Node7 -->
<g id="edge6_Node000006_Node000007" class="edge">
<title>Node6&#45;&gt;Node7</title>
<g id="a_edge6_Node000006_Node000007"><a xlink:title=" ">
<path fill="none" stroke="#63b8ff" d="M1070.54,-71.37C1058.68,-62.44 1039.75,-48.19 1024.06,-36.38"/>
<polygon fill="#63b8ff" stroke="#63b8ff" points="1025.84,-33.33 1015.75,-30.12 1021.63,-38.93 1025.84,-33.33"/>
</a>
</g>
</g>
<!-- Node8 -->
<g id="Node000008" class="node">
<title>Node8</title>
<g id="a_Node000008"><a xlink:title=" ">
<polygon fill="#e0e0e0" stroke="#999999" points="1184.5,-30 1065.5,-30 1065.5,0 1184.5,0 1184.5,-30"/>
<text text-anchor="start" x="1073.5" y="-18" font-family="Helvetica,sans-Serif" font-size="10.00">deal.II/numerics/data</text>
<text text-anchor="middle" x="1125" y="-7" font-family="Helvetica,sans-Serif" font-size="10.00">_postprocessor.h</text>
</a>
</g>
</g>
<!-- Node6&#45;&gt;Node8 -->
<g id="edge7_Node000006_Node000008" class="edge">
<title>Node6&#45;&gt;Node8</title>
<g id="a_edge7_Node000006_Node000008"><a xlink:title=" ">
<path fill="none" stroke="#63b8ff" d="M1087.8,-71.37C1093.37,-63.08 1102.03,-50.18 1109.6,-38.92"/>
<polygon fill="#63b8ff" stroke="#63b8ff" points="1112.68,-40.61 1115.35,-30.36 1106.87,-36.71 1112.68,-40.61"/>
</a>
</g>
</g>
</g>
</svg>
