<?xml version="1.0" encoding="UTF-8" standalone="no"?>
<!DOCTYPE svg PUBLIC "-//W3C//DTD SVG 1.1//EN"
 "http://www.w3.org/Graphics/SVG/1.1/DTD/svg11.dtd">
<!-- Generated by graphviz version 2.43.0 (0)
 -->
<!-- Title: /home/runner/work/lethe/lethe/include/solvers/cahn_hilliard_filter.h Pages: 1 -->
<svg width="2192pt" height="423pt"
 viewBox="0.00 0.00 2191.50 423.00" xmlns="http://www.w3.org/2000/svg" xmlns:xlink="http://www.w3.org/1999/xlink">
<g id="graph0" class="graph" transform="scale(1 1) rotate(0) translate(4 419)">
<title>/home/runner/work/lethe/lethe/include/solvers/cahn_hilliard_filter.h</title>
<!-- Node1 -->
<g id="Node000001" class="node">
<title>Node1</title>
<g id="a_Node000001"><a xlink:title=" ">
<polygon fill="#999999" stroke="#666666" points="474.5,-415 337.5,-415 337.5,-374 474.5,-374 474.5,-415"/>
<text text-anchor="start" x="345.5" y="-403" font-family="Helvetica,sans-Serif" font-size="10.00">/home/runner/work/lethe</text>
<text text-anchor="start" x="345.5" y="-392" font-family="Helvetica,sans-Serif" font-size="10.00">/lethe/include/solvers</text>
<text text-anchor="middle" x="406" y="-381" font-family="Helvetica,sans-Serif" font-size="10.00">/cahn_hilliard_filter.h</text>
</a>
</g>
</g>
<!-- Node2 -->
<g id="Node000002" class="node">
<title>Node2</title>
<g id="a_Node000002"><a xlink:href="parameters__multiphysics_8h.html" target="_top" xlink:title=" ">
<polygon fill="white" stroke="#666666" points="492.5,-338 319.5,-338 319.5,-319 492.5,-319 492.5,-338"/>
<text text-anchor="middle" x="406" y="-326" font-family="Helvetica,sans-Serif" font-size="10.00">core/parameters_multiphysics.h</text>
</a>
</g>
</g>
<!-- Node1&#45;&gt;Node2 -->
<g id="edge1_Node000001_Node000002" class="edge">
<title>Node1&#45;&gt;Node2</title>
<g id="a_edge1_Node000001_Node000002"><a xlink:title=" ">
<path fill="none" stroke="#63b8ff" d="M406,-373.95C406,-365.85 406,-356.5 406,-348.47"/>
<polygon fill="#63b8ff" stroke="#63b8ff" points="409.5,-348.26 406,-338.26 402.5,-348.26 409.5,-348.26"/>
</a>
</g>
</g>
<!-- Node3 -->
<g id="Node000003" class="node">
<title>Node3</title>
<g id="a_Node000003"><a xlink:href="parameters_8h.html" target="_top" xlink:title=" ">
<polygon fill="white" stroke="#666666" points="393,-283 287,-283 287,-264 393,-264 393,-283"/>
<text text-anchor="middle" x="340" y="-271" font-family="Helvetica,sans-Serif" font-size="10.00">core/parameters.h</text>
</a>
</g>
</g>
<!-- Node2&#45;&gt;Node3 -->
<g id="edge2_Node000002_Node000003" class="edge">
<title>Node2&#45;&gt;Node3</title>
<g id="a_edge2_Node000002_Node000003"><a xlink:title=" ">
<path fill="none" stroke="#63b8ff" d="M395.4,-318.98C385.54,-311.07 370.65,-299.11 358.78,-289.58"/>
<polygon fill="#63b8ff" stroke="#63b8ff" points="360.79,-286.7 350.8,-283.17 356.4,-292.16 360.79,-286.7"/>
</a>
</g>
</g>
<!-- Node5 -->
<g id="Node000005" class="node">
<title>Node5</title>
<g id="a_Node000005"><a xlink:title=" ">
<polygon fill="#e0e0e0" stroke="#999999" points="209.5,-30 82.5,-30 82.5,0 209.5,0 209.5,-30"/>
<text text-anchor="start" x="90.5" y="-18" font-family="Helvetica,sans-Serif" font-size="10.00">deal.II/base/parameter</text>
<text text-anchor="middle" x="146" y="-7" font-family="Helvetica,sans-Serif" font-size="10.00">_handler.h</text>
</a>
</g>
</g>
<!-- Node2&#45;&gt;Node5 -->
<g id="edge37_Node000002_Node000005" class="edge">
<title>Node2&#45;&gt;Node5</title>
<g id="a_edge37_Node000002_Node000005"><a xlink:title=" ">
<path fill="none" stroke="#63b8ff" d="M319.4,-320.8C200.16,-309.14 0,-279.78 0,-214 0,-214 0,-214 0,-146 0,-91.77 56.87,-54.6 99.63,-34.31"/>
<polygon fill="#63b8ff" stroke="#63b8ff" points="101.15,-37.46 108.78,-30.12 98.23,-31.1 101.15,-37.46"/>
</a>
</g>
</g>
<!-- Node42 -->
<g id="Node000042" class="node">
<title>Node42</title>
<g id="a_Node000042"><a xlink:title=" ">
<polygon fill="#e0e0e0" stroke="#999999" points="533,-283 411,-283 411,-264 533,-264 533,-283"/>
<text text-anchor="middle" x="472" y="-271" font-family="Helvetica,sans-Serif" font-size="10.00">deal.II/base/utilities.h</text>
</a>
</g>
</g>
<!-- Node2&#45;&gt;Node42 -->
<g id="edge38_Node000002_Node000042" class="edge">
<title>Node2&#45;&gt;Node42</title>
<g id="a_edge38_Node000002_Node000042"><a xlink:title=" ">
<path fill="none" stroke="#63b8ff" d="M416.6,-318.98C426.46,-311.07 441.35,-299.11 453.22,-289.58"/>
<polygon fill="#63b8ff" stroke="#63b8ff" points="455.6,-292.16 461.2,-283.17 451.21,-286.7 455.6,-292.16"/>
</a>
</g>
</g>
<!-- Node43 -->
<g id="Node000043" class="node">
<title>Node43</title>
<g id="a_Node000043"><a xlink:title=" ">
<polygon fill="#e0e0e0" stroke="#999999" points="615,-283 551,-283 551,-264 615,-264 615,-283"/>
<text text-anchor="middle" x="583" y="-271" font-family="Helvetica,sans-Serif" font-size="10.00">algorithm</text>
</a>
</g>
</g>
<!-- Node2&#45;&gt;Node43 -->
<g id="edge39_Node000002_Node000043" class="edge">
<title>Node2&#45;&gt;Node43</title>
<g id="a_edge39_Node000002_Node000043"><a xlink:title=" ">
<path fill="none" stroke="#63b8ff" d="M434.44,-318.98C464.28,-310.05 511.38,-295.94 544.53,-286.02"/>
<polygon fill="#63b8ff" stroke="#63b8ff" points="545.76,-289.3 554.34,-283.08 543.76,-282.6 545.76,-289.3"/>
</a>
</g>
</g>
<!-- Node4 -->
<g id="Node000004" class="node">
<title>Node4</title>
<g id="a_Node000004"><a xlink:href="dimensionality_8h.html" target="_top" xlink:title=" ">
<polygon fill="white" stroke="#666666" points="149.5,-156.5 28.5,-156.5 28.5,-137.5 149.5,-137.5 149.5,-156.5"/>
<text text-anchor="middle" x="89" y="-144.5" font-family="Helvetica,sans-Serif" font-size="10.00">core/dimensionality.h</text>
</a>
</g>
</g>
<!-- Node3&#45;&gt;Node4 -->
<g id="edge3_Node000003_Node000004" class="edge">
<title>Node3&#45;&gt;Node4</title>
<g id="a_edge3_Node000003_Node000004"><a xlink:title=" ">
<path fill="none" stroke="#63b8ff" d="M286.96,-267.05C250.38,-261.45 201.74,-250.25 164,-228 136.78,-211.96 113.33,-183.09 100.21,-164.77"/>
<polygon fill="#63b8ff" stroke="#63b8ff" points="103.04,-162.72 94.47,-156.5 97.29,-166.72 103.04,-162.72"/>
</a>
</g>
</g>
<!-- Node3&#45;&gt;Node5 -->
<g id="edge34_Node000003_Node000005" class="edge">
<title>Node3&#45;&gt;Node5</title>
<g id="a_edge34_Node000003_Node000005"><a xlink:title=" ">
<path fill="none" stroke="#63b8ff" d="M286.97,-268.7C256.62,-263.76 220.1,-252.67 197,-228 171.5,-200.77 155.04,-89.81 148.81,-40.18"/>
<polygon fill="#63b8ff" stroke="#63b8ff" points="152.26,-39.54 147.57,-30.04 145.31,-40.39 152.26,-39.54"/>
</a>
</g>
</g>
<!-- Node6 -->
<g id="Node000006" class="node">
<title>Node6</title>
<g id="a_Node000006"><a xlink:href="ib__particle_8h.html" target="_top" xlink:title=" ">
<polygon fill="white" stroke="#666666" points="1029.5,-222.5 928.5,-222.5 928.5,-203.5 1029.5,-203.5 1029.5,-222.5"/>
<text text-anchor="middle" x="979" y="-210.5" font-family="Helvetica,sans-Serif" font-size="10.00">core/ib_particle.h</text>
</a>
</g>
</g>
<!-- Node3&#45;&gt;Node6 -->
<g id="edge5_Node000003_Node000006" class="edge">
<title>Node3&#45;&gt;Node6</title>
<g id="a_edge5_Node000003_Node000006"><a xlink:title=" ">
<path fill="none" stroke="#63b8ff" d="M393.08,-265.05C396.09,-264.68 399.08,-264.33 402,-264 589.85,-243 812.96,-225.88 918.24,-218.26"/>
<polygon fill="#63b8ff" stroke="#63b8ff" points="918.64,-221.75 928.36,-217.54 918.14,-214.76 918.64,-221.75"/>
</a>
</g>
</g>
<!-- Node14 -->
<g id="Node000014" class="node">
<title>Node14</title>
<g id="a_Node000014"><a xlink:href="utilities_8h.html" target="_top" xlink:title=" ">
<polygon fill="#fff0f0" stroke="red" points="474,-90.5 388,-90.5 388,-71.5 474,-71.5 474,-90.5"/>
<text text-anchor="middle" x="431" y="-78.5" font-family="Helvetica,sans-Serif" font-size="10.00">core/utilities.h</text>
</a>
</g>
</g>
<!-- Node3&#45;&gt;Node14 -->
<g id="edge33_Node000003_Node000014" class="edge">
<title>Node3&#45;&gt;Node14</title>
<g id="a_edge33_Node000003_Node000014"><a xlink:title=" ">
<path fill="none" stroke="#63b8ff" d="M382.75,-263.99C429.92,-254.16 500.25,-238.07 508,-228 541.21,-184.85 482.7,-125.32 450.33,-97.5"/>
<polygon fill="#63b8ff" stroke="#63b8ff" points="452.28,-94.56 442.36,-90.83 447.78,-99.93 452.28,-94.56"/>
</a>
</g>
</g>
<!-- Node39 -->
<g id="Node000039" class="node">
<title>Node39</title>
<g id="a_Node000039"><a xlink:title=" ">
<polygon fill="#e0e0e0" stroke="#999999" points="2183.5,-162 2074.5,-162 2074.5,-132 2183.5,-132 2183.5,-162"/>
<text text-anchor="start" x="2082.5" y="-150" font-family="Helvetica,sans-Serif" font-size="10.00">deal.II/base/parsed</text>
<text text-anchor="middle" x="2129" y="-139" font-family="Helvetica,sans-Serif" font-size="10.00">_function.h</text>
</a>
</g>
</g>
<!-- Node3&#45;&gt;Node39 -->
<g id="edge35_Node000003_Node000039" class="edge">
<title>Node3&#45;&gt;Node39</title>
<g id="a_edge35_Node000003_Node000039"><a xlink:title=" ">
<path fill="none" stroke="#63b8ff" d="M393.07,-264.94C396.09,-264.6 399.08,-264.28 402,-264 684.25,-236.72 755.96,-245.15 1039,-228 1492.89,-200.5 1609.25,-222.01 2060,-162 2061.29,-161.83 2062.6,-161.65 2063.92,-161.45"/>
<polygon fill="#63b8ff" stroke="#63b8ff" points="2064.8,-164.86 2074.13,-159.83 2063.7,-157.94 2064.8,-164.86"/>
</a>
</g>
</g>
<!-- Node40 -->
<g id="Node000040" class="node">
<title>Node40</title>
<g id="a_Node000040"><a xlink:href="multiphysics_8h.html" target="_top" xlink:title="Identifiers for multiphysics modules and their solution fields.">
<polygon fill="white" stroke="#666666" points="318,-222.5 206,-222.5 206,-203.5 318,-203.5 318,-222.5"/>
<text text-anchor="middle" x="262" y="-210.5" font-family="Helvetica,sans-Serif" font-size="10.00">core/multiphysics.h</text>
</a>
</g>
</g>
<!-- Node3&#45;&gt;Node40 -->
<g id="edge32_Node000003_Node000040" class="edge">
<title>Node3&#45;&gt;Node40</title>
<g id="a_edge32_Node000003_Node000040"><a xlink:title=" ">
<path fill="none" stroke="#63b8ff" d="M328.49,-263.87C316.16,-254.62 296.38,-239.78 281.59,-228.69"/>
<polygon fill="#63b8ff" stroke="#63b8ff" points="283.66,-225.87 273.56,-222.67 279.46,-231.47 283.66,-225.87"/>
</a>
</g>
</g>
<!-- Node41 -->
<g id="Node000041" class="node">
<title>Node41</title>
<g id="a_Node000041"><a xlink:title=" ">
<polygon fill="#e0e0e0" stroke="#999999" points="499.5,-228 336.5,-228 336.5,-198 499.5,-198 499.5,-228"/>
<text text-anchor="start" x="344.5" y="-216" font-family="Helvetica,sans-Serif" font-size="10.00">deal.II/multigrid/mg</text>
<text text-anchor="middle" x="418" y="-205" font-family="Helvetica,sans-Serif" font-size="10.00">_transfer_global_coarsening.h</text>
</a>
</g>
</g>
<!-- Node3&#45;&gt;Node41 -->
<g id="edge36_Node000003_Node000041" class="edge">
<title>Node3&#45;&gt;Node41</title>
<g id="a_edge36_Node000003_Node000041"><a xlink:title=" ">
<path fill="none" stroke="#63b8ff" d="M351.51,-263.87C361.9,-256.08 377.58,-244.32 391.1,-234.17"/>
<polygon fill="#63b8ff" stroke="#63b8ff" points="393.28,-236.91 399.18,-228.11 389.08,-231.31 393.28,-236.91"/>
</a>
</g>
</g>
<!-- Node4&#45;&gt;Node5 -->
<g id="edge4_Node000004_Node000005" class="edge">
<title>Node4&#45;&gt;Node5</title>
<g id="a_edge4_Node000004_Node000005"><a xlink:title=" ">
<path fill="none" stroke="#63b8ff" d="M92.74,-137.47C101.34,-117.86 122.75,-69.02 135.66,-39.59"/>
<polygon fill="#63b8ff" stroke="#63b8ff" points="139.02,-40.63 139.83,-30.07 132.61,-37.82 139.02,-40.63"/>
</a>
</g>
</g>
<!-- Node7 -->
<g id="Node000007" class="node">
<title>Node7</title>
<g id="a_Node000007"><a xlink:href="dem__properties_8h.html" target="_top" xlink:title="DEM particle property definitions and output name management.">
<polygon fill="white" stroke="#666666" points="370,-90.5 244,-90.5 244,-71.5 370,-71.5 370,-90.5"/>
<text text-anchor="middle" x="307" y="-78.5" font-family="Helvetica,sans-Serif" font-size="10.00">core/dem_properties.h</text>
</a>
</g>
</g>
<!-- Node6&#45;&gt;Node7 -->
<g id="edge6_Node000006_Node000007" class="edge">
<title>Node6&#45;&gt;Node7</title>
<g id="a_edge6_Node000006_Node000007"><a xlink:title=" ">
<path fill="none" stroke="#63b8ff" d="M934.59,-203.43C835.1,-184.23 586.79,-136.29 379,-96 373.15,-94.87 367.04,-93.68 360.95,-92.5"/>
<polygon fill="#63b8ff" stroke="#63b8ff" points="361.27,-88.99 350.78,-90.52 359.93,-95.86 361.27,-88.99"/>
</a>
</g>
</g>
<!-- Node9 -->
<g id="Node000009" class="node">
<title>Node9</title>
<g id="a_Node000009"><a xlink:title=" ">
<polygon fill="#e0e0e0" stroke="#999999" points="330.5,-24.5 283.5,-24.5 283.5,-5.5 330.5,-5.5 330.5,-24.5"/>
<text text-anchor="middle" x="307" y="-12.5" font-family="Helvetica,sans-Serif" font-size="10.00">vector</text>
</a>
</g>
</g>
<!-- Node6&#45;&gt;Node9 -->
<g id="edge31_Node000006_Node000009" class="edge">
<title>Node6&#45;&gt;Node9</title>
<g id="a_edge31_Node000006_Node000009"><a xlink:title=" ">
<path fill="none" stroke="#63b8ff" d="M928.42,-212.38C775.5,-212.33 323.07,-202.99 235,-96 215.16,-71.89 251.9,-45.17 279.81,-29.52"/>
<polygon fill="#63b8ff" stroke="#63b8ff" points="281.69,-32.48 288.84,-24.65 278.38,-26.31 281.69,-32.48"/>
</a>
</g>
</g>
<!-- Node10 -->
<g id="Node000010" class="node">
<title>Node10</title>
<g id="a_Node000010"><a xlink:href="shape_8h.html" target="_top" xlink:title=" ">
<polygon fill="white" stroke="#666666" points="1157.5,-156.5 1078.5,-156.5 1078.5,-137.5 1157.5,-137.5 1157.5,-156.5"/>
<text text-anchor="middle" x="1118" y="-144.5" font-family="Helvetica,sans-Serif" font-size="10.00">core/shape.h</text>
</a>
</g>
</g>
<!-- Node6&#45;&gt;Node10 -->
<g id="edge9_Node000006_Node000010" class="edge">
<title>Node6&#45;&gt;Node10</title>
<g id="a_edge9_Node000006_Node000010"><a xlink:title=" ">
<path fill="none" stroke="#63b8ff" d="M997.75,-203.37C1021.48,-192.44 1062.57,-173.52 1090.02,-160.88"/>
<polygon fill="#63b8ff" stroke="#63b8ff" points="1091.49,-164.06 1099.11,-156.7 1088.56,-157.7 1091.49,-164.06"/>
</a>
</g>
</g>
<!-- Node12 -->
<g id="Node000012" class="node">
<title>Node12</title>
<g id="a_Node000012"><a xlink:title=" ">
<polygon fill="#e0e0e0" stroke="#999999" points="1997,-24.5 1887,-24.5 1887,-5.5 1997,-5.5 1997,-24.5"/>
<text text-anchor="middle" x="1942" y="-12.5" font-family="Helvetica,sans-Serif" font-size="10.00">deal.II/base/point.h</text>
</a>
</g>
</g>
<!-- Node6&#45;&gt;Node12 -->
<g id="edge30_Node000006_Node000012" class="edge">
<title>Node6&#45;&gt;Node12</title>
<g id="a_edge30_Node000006_Node000012"><a xlink:title=" ">
<path fill="none" stroke="#63b8ff" d="M1009.93,-203.43C1018.04,-201.41 1026.81,-199.44 1035,-198 1253.27,-159.7 1878.53,-260.52 2027,-96 2049.92,-70.6 2005.64,-43.91 1972.83,-28.67"/>
<polygon fill="#63b8ff" stroke="#63b8ff" points="1974.08,-25.4 1963.52,-24.51 1971.22,-31.79 1974.08,-25.4"/>
</a>
</g>
</g>
<!-- Node6&#45;&gt;Node39 -->
<g id="edge29_Node000006_Node000039" class="edge">
<title>Node6&#45;&gt;Node39</title>
<g id="a_edge29_Node000006_Node000039"><a xlink:title=" ">
<path fill="none" stroke="#63b8ff" d="M1029.63,-210.69C1215.03,-205.75 1856.65,-187.18 2060,-162 2061.3,-161.84 2062.6,-161.67 2063.92,-161.49"/>
<polygon fill="#63b8ff" stroke="#63b8ff" points="2064.78,-164.9 2074.14,-159.92 2063.72,-157.98 2064.78,-164.9"/>
</a>
</g>
</g>
<!-- Node8 -->
<g id="Node000008" class="node">
<title>Node8</title>
<g id="a_Node000008"><a xlink:title=" ">
<polygon fill="#e0e0e0" stroke="#999999" points="423,-24.5 379,-24.5 379,-5.5 423,-5.5 423,-24.5"/>
<text text-anchor="middle" x="401" y="-12.5" font-family="Helvetica,sans-Serif" font-size="10.00">string</text>
</a>
</g>
</g>
<!-- Node7&#45;&gt;Node8 -->
<g id="edge7_Node000007_Node000008" class="edge">
<title>Node7&#45;&gt;Node8</title>
<g id="a_edge7_Node000007_Node000008"><a xlink:title=" ">
<path fill="none" stroke="#63b8ff" d="M319.68,-71.37C335.09,-60.87 361.35,-43 379.85,-30.4"/>
<polygon fill="#63b8ff" stroke="#63b8ff" points="381.93,-33.22 388.22,-24.7 377.99,-27.43 381.93,-33.22"/>
</a>
</g>
</g>
<!-- Node7&#45;&gt;Node9 -->
<g id="edge8_Node000007_Node000009" class="edge">
<title>Node7&#45;&gt;Node9</title>
<g id="a_edge8_Node000007_Node000009"><a xlink:title=" ">
<path fill="none" stroke="#63b8ff" d="M307,-71.37C307,-62.16 307,-47.29 307,-35.27"/>
<polygon fill="#63b8ff" stroke="#63b8ff" points="310.5,-34.91 307,-24.91 303.5,-34.91 310.5,-34.91"/>
</a>
</g>
</g>
<!-- Node11 -->
<g id="Node000011" class="node">
<title>Node11</title>
<g id="a_Node000011"><a xlink:href="tensors__and__points__dimension__manipulation_8h.html" target="_top" xlink:title=" ">
<polygon fill="#fff0f0" stroke="red" points="2018,-96 1866,-96 1866,-66 2018,-66 2018,-96"/>
<text text-anchor="start" x="1874" y="-84" font-family="Helvetica,sans-Serif" font-size="10.00">core/tensors_and_points</text>
<text text-anchor="middle" x="1942" y="-73" font-family="Helvetica,sans-Serif" font-size="10.00">_dimension_manipulation.h</text>
</a>
</g>
</g>
<!-- Node10&#45;&gt;Node11 -->
<g id="edge10_Node000010_Node000011" class="edge">
<title>Node10&#45;&gt;Node11</title>
<g id="a_edge10_Node000010_Node000011"><a xlink:title=" ">
<path fill="none" stroke="#63b8ff" d="M1157.78,-144.65C1267.38,-140.64 1583.15,-127.17 1855.52,-96.1"/>
<polygon fill="#63b8ff" stroke="#63b8ff" points="1856.06,-99.56 1865.59,-94.94 1855.26,-92.61 1856.06,-99.56"/>
</a>
</g>
</g>
<!-- Node10&#45;&gt;Node14 -->
<g id="edge12_Node000010_Node000014" class="edge">
<title>Node10&#45;&gt;Node14</title>
<g id="a_edge12_Node000010_Node000014"><a xlink:title=" ">
<path fill="none" stroke="#63b8ff" d="M1078.41,-143.84C958.19,-137.14 598.51,-115.92 483,-96 478.3,-95.19 473.4,-94.14 468.57,-92.99"/>
<polygon fill="#63b8ff" stroke="#63b8ff" points="469.41,-89.59 458.86,-90.51 467.68,-96.38 469.41,-89.59"/>
</a>
</g>
</g>
<!-- Node19 -->
<g id="Node000019" class="node">
<title>Node19</title>
<g id="a_Node000019"><a xlink:title=" ">
<polygon fill="#e0e0e0" stroke="#999999" points="1178,-24.5 1038,-24.5 1038,-5.5 1178,-5.5 1178,-24.5"/>
<text text-anchor="middle" x="1108" y="-12.5" font-family="Helvetica,sans-Serif" font-size="10.00">deal.II/dofs/dof_handler.h</text>
</a>
</g>
</g>
<!-- Node10&#45;&gt;Node19 -->
<g id="edge24_Node000010_Node000019" class="edge">
<title>Node10&#45;&gt;Node19</title>
<g id="a_edge24_Node000010_Node000019"><a xlink:title=" ">
<path fill="none" stroke="#63b8ff" d="M1157.57,-146.52C1297.7,-147.71 1758.07,-145.68 1685,-66 1652.12,-30.14 1339.12,-19.92 1188.38,-17.07"/>
<polygon fill="#63b8ff" stroke="#63b8ff" points="1188.31,-13.57 1178.25,-16.89 1188.19,-20.57 1188.31,-13.57"/>
</a>
</g>
</g>
<!-- Node29 -->
<g id="Node000029" class="node">
<title>Node29</title>
<g id="a_Node000029"><a xlink:title=" ">
<polygon fill="#e0e0e0" stroke="#999999" points="1256,-96 1104,-96 1104,-66 1256,-66 1256,-96"/>
<text text-anchor="start" x="1112" y="-84" font-family="Helvetica,sans-Serif" font-size="10.00">deal.II/base/auto_derivative</text>
<text text-anchor="middle" x="1180" y="-73" font-family="Helvetica,sans-Serif" font-size="10.00">_function.h</text>
</a>
</g>
</g>
<!-- Node10&#45;&gt;Node29 -->
<g id="edge18_Node000010_Node000029" class="edge">
<title>Node10&#45;&gt;Node29</title>
<g id="a_edge18_Node000010_Node000029"><a xlink:title=" ">
<path fill="none" stroke="#63b8ff" d="M1126.36,-137.37C1134.71,-128.75 1147.88,-115.15 1159.08,-103.59"/>
<polygon fill="#63b8ff" stroke="#63b8ff" points="1161.64,-105.98 1166.09,-96.36 1156.62,-101.11 1161.64,-105.98"/>
</a>
</g>
</g>
<!-- Node30 -->
<g id="Node000030" class="node">
<title>Node30</title>
<g id="a_Node000030"><a xlink:title=" ">
<polygon fill="#e0e0e0" stroke="#999999" points="1399.5,-90.5 1274.5,-90.5 1274.5,-71.5 1399.5,-71.5 1399.5,-90.5"/>
<text text-anchor="middle" x="1337" y="-78.5" font-family="Helvetica,sans-Serif" font-size="10.00">deal.II/base/function.h</text>
</a>
</g>
</g>
<!-- Node10&#45;&gt;Node30 -->
<g id="edge19_Node000010_Node000030" class="edge">
<title>Node10&#45;&gt;Node30</title>
<g id="a_edge19_Node000010_Node000030"><a xlink:title=" ">
<path fill="none" stroke="#63b8ff" d="M1147.54,-137.37C1186.34,-126.03 1254.6,-106.08 1297.72,-93.48"/>
<polygon fill="#63b8ff" stroke="#63b8ff" points="1298.97,-96.76 1307.58,-90.6 1297,-90.04 1298.97,-96.76"/>
</a>
</g>
</g>
<!-- Node31 -->
<g id="Node000031" class="node">
<title>Node31</title>
<g id="a_Node000031"><a xlink:title=" ">
<polygon fill="#e0e0e0" stroke="#999999" points="1542,-90.5 1418,-90.5 1418,-71.5 1542,-71.5 1542,-90.5"/>
<text text-anchor="middle" x="1480" y="-78.5" font-family="Helvetica,sans-Serif" font-size="10.00">deal.II/grid/manifold.h</text>
</a>
</g>
</g>
<!-- Node10&#45;&gt;Node31 -->
<g id="edge20_Node000010_Node000031" class="edge">
<title>Node10&#45;&gt;Node31</title>
<g id="a_edge20_Node000010_Node000031"><a xlink:title=" ">
<path fill="none" stroke="#63b8ff" d="M1157.59,-139.51C1213.63,-130.26 1319.27,-112.55 1409,-96 1415.08,-94.88 1421.45,-93.67 1427.77,-92.45"/>
<polygon fill="#63b8ff" stroke="#63b8ff" points="1428.46,-95.88 1437.61,-90.54 1427.12,-89.01 1428.46,-95.88"/>
</a>
</g>
</g>
<!-- Node32 -->
<g id="Node000032" class="node">
<title>Node32</title>
<g id="a_Node000032"><a xlink:title=" ">
<polygon fill="#e0e0e0" stroke="#999999" points="1675.5,-96 1560.5,-96 1560.5,-66 1675.5,-66 1675.5,-96"/>
<text text-anchor="start" x="1568.5" y="-84" font-family="Helvetica,sans-Serif" font-size="10.00">deal.II/grid/manifold</text>
<text text-anchor="middle" x="1618" y="-73" font-family="Helvetica,sans-Serif" font-size="10.00">_lib.h</text>
</a>
</g>
</g>
<!-- Node10&#45;&gt;Node32 -->
<g id="edge21_Node000010_Node000032" class="edge">
<title>Node10&#45;&gt;Node32</title>
<g id="a_edge21_Node000010_Node000032"><a xlink:title=" ">
<path fill="none" stroke="#63b8ff" d="M1157.57,-142.65C1232.29,-136.05 1399.44,-120.04 1550.4,-96"/>
<polygon fill="#63b8ff" stroke="#63b8ff" points="1551,-99.44 1560.32,-94.4 1549.89,-92.53 1551,-99.44"/>
</a>
</g>
</g>
<!-- Node33 -->
<g id="Node000033" class="node">
<title>Node33</title>
<g id="a_Node000033"><a xlink:title=" ">
<polygon fill="#e0e0e0" stroke="#999999" points="1847.5,-96 1732.5,-96 1732.5,-66 1847.5,-66 1847.5,-96"/>
<text text-anchor="start" x="1740.5" y="-84" font-family="Helvetica,sans-Serif" font-size="10.00">boost/range/adaptor</text>
<text text-anchor="middle" x="1790" y="-73" font-family="Helvetica,sans-Serif" font-size="10.00">/map.hpp</text>
</a>
</g>
</g>
<!-- Node10&#45;&gt;Node33 -->
<g id="edge22_Node000010_Node000033" class="edge">
<title>Node10&#45;&gt;Node33</title>
<g id="a_edge22_Node000010_Node000033"><a xlink:title=" ">
<path fill="none" stroke="#63b8ff" d="M1157.83,-144.18C1254.32,-139.46 1508.07,-125.07 1718,-96 1719.46,-95.8 1720.93,-95.59 1722.42,-95.36"/>
<polygon fill="#63b8ff" stroke="#63b8ff" points="1723,-98.82 1732.32,-93.79 1721.9,-91.9 1723,-98.82"/>
</a>
</g>
</g>
<!-- Node34 -->
<g id="Node000034" class="node">
<title>Node34</title>
<g id="a_Node000034"><a xlink:title=" ">
<polygon fill="#e0e0e0" stroke="#999999" points="608,-96 492,-96 492,-66 608,-66 608,-96"/>
<text text-anchor="start" x="500" y="-84" font-family="Helvetica,sans-Serif" font-size="10.00">deal.II/base/function</text>
<text text-anchor="middle" x="550" y="-73" font-family="Helvetica,sans-Serif" font-size="10.00">_signed_distance.h</text>
</a>
</g>
</g>
<!-- Node10&#45;&gt;Node34 -->
<g id="edge23_Node000010_Node000034" class="edge">
<title>Node10&#45;&gt;Node34</title>
<g id="a_edge23_Node000010_Node000034"><a xlink:title=" ">
<path fill="none" stroke="#63b8ff" d="M1078.2,-143.47C994.75,-137.87 795.21,-122.84 618.06,-96.05"/>
<polygon fill="#63b8ff" stroke="#63b8ff" points="618.45,-92.57 608.04,-94.52 617.39,-99.49 618.45,-92.57"/>
</a>
</g>
</g>
<!-- Node35 -->
<g id="Node000035" class="node">
<title>Node35</title>
<g id="a_Node000035"><a xlink:title=" ">
<polygon fill="#e0e0e0" stroke="#999999" points="754,-90.5 626,-90.5 626,-71.5 754,-71.5 754,-90.5"/>
<text text-anchor="middle" x="690" y="-78.5" font-family="Helvetica,sans-Serif" font-size="10.00">deal.II/dofs/dof_tools.h</text>
</a>
</g>
</g>
<!-- Node10&#45;&gt;Node35 -->
<g id="edge25_Node000010_Node000035" class="edge">
<title>Node10&#45;&gt;Node35</title>
<g id="a_edge25_Node000010_Node000035"><a xlink:title=" ">
<path fill="none" stroke="#63b8ff" d="M1078.24,-141.05C1012.49,-132.73 877.05,-114.96 763,-96 756.41,-94.91 749.51,-93.68 742.68,-92.43"/>
<polygon fill="#63b8ff" stroke="#63b8ff" points="743.26,-88.97 732.78,-90.57 741.97,-95.85 743.26,-88.97"/>
</a>
</g>
</g>
<!-- Node36 -->
<g id="Node000036" class="node">
<title>Node36</title>
<g id="a_Node000036"><a xlink:title=" ">
<polygon fill="#e0e0e0" stroke="#999999" points="948,-90.5 772,-90.5 772,-71.5 948,-71.5 948,-90.5"/>
<text text-anchor="middle" x="860" y="-78.5" font-family="Helvetica,sans-Serif" font-size="10.00">deal.II/physics/transformations.h</text>
</a>
</g>
</g>
<!-- Node10&#45;&gt;Node36 -->
<g id="edge26_Node000010_Node000036" class="edge">
<title>Node10&#45;&gt;Node36</title>
<g id="a_edge26_Node000010_Node000036"><a xlink:title=" ">
<path fill="none" stroke="#63b8ff" d="M1083.47,-137.44C1037.13,-125.94 954.78,-105.51 904.03,-92.92"/>
<polygon fill="#63b8ff" stroke="#63b8ff" points="904.87,-89.52 894.32,-90.51 903.19,-96.32 904.87,-89.52"/>
</a>
</g>
</g>
<!-- Node37 -->
<g id="Node000037" class="node">
<title>Node37</title>
<g id="a_Node000037"><a xlink:title=" ">
<polygon fill="#e0e0e0" stroke="#999999" points="1010,-90.5 966,-90.5 966,-71.5 1010,-71.5 1010,-90.5"/>
<text text-anchor="middle" x="988" y="-78.5" font-family="Helvetica,sans-Serif" font-size="10.00">cfloat</text>
</a>
</g>
</g>
<!-- Node10&#45;&gt;Node37 -->
<g id="edge27_Node000010_Node000037" class="edge">
<title>Node10&#45;&gt;Node37</title>
<g id="a_edge27_Node000010_Node000037"><a xlink:title=" ">
<path fill="none" stroke="#63b8ff" d="M1100.47,-137.37C1078.47,-126.54 1040.51,-107.85 1014.85,-95.22"/>
<polygon fill="#63b8ff" stroke="#63b8ff" points="1016.19,-91.98 1005.67,-90.7 1013.1,-98.26 1016.19,-91.98"/>
</a>
</g>
</g>
<!-- Node38 -->
<g id="Node000038" class="node">
<title>Node38</title>
<g id="a_Node000038"><a xlink:title=" ">
<polygon fill="#e0e0e0" stroke="#999999" points="1086,-90.5 1028,-90.5 1028,-71.5 1086,-71.5 1086,-90.5"/>
<text text-anchor="middle" x="1057" y="-78.5" font-family="Helvetica,sans-Serif" font-size="10.00">memory</text>
</a>
</g>
</g>
<!-- Node10&#45;&gt;Node38 -->
<g id="edge28_Node000010_Node000038" class="edge">
<title>Node10&#45;&gt;Node38</title>
<g id="a_edge28_Node000010_Node000038"><a xlink:title=" ">
<path fill="none" stroke="#63b8ff" d="M1109.77,-137.37C1100.28,-127.4 1084.44,-110.79 1072.59,-98.36"/>
<polygon fill="#63b8ff" stroke="#63b8ff" points="1074.92,-95.73 1065.49,-90.91 1069.85,-100.56 1074.92,-95.73"/>
</a>
</g>
</g>
<!-- Node11&#45;&gt;Node12 -->
<g id="edge11_Node000011_Node000012" class="edge">
<title>Node11&#45;&gt;Node12</title>
<g id="a_edge11_Node000011_Node000012"><a xlink:title=" ">
<path fill="none" stroke="#63b8ff" d="M1942,-65.8C1942,-56.7 1942,-44.79 1942,-34.9"/>
<polygon fill="#63b8ff" stroke="#63b8ff" points="1945.5,-34.84 1942,-24.84 1938.5,-34.84 1945.5,-34.84"/>
</a>
</g>
</g>
<!-- Node14&#45;&gt;Node5 -->
<g id="edge13_Node000014_Node000005" class="edge">
<title>Node14&#45;&gt;Node5</title>
<g id="a_edge13_Node000014_Node000005"><a xlink:title=" ">
<path fill="none" stroke="#63b8ff" d="M400.27,-71.45C393.3,-69.58 385.91,-67.67 379,-66 325.99,-53.18 265.79,-40.31 219.86,-30.83"/>
<polygon fill="#63b8ff" stroke="#63b8ff" points="220.49,-27.39 209.99,-28.8 219.08,-34.25 220.49,-27.39"/>
</a>
</g>
</g>
<!-- Node14&#45;&gt;Node8 -->
<g id="edge16_Node000014_Node000008" class="edge">
<title>Node14&#45;&gt;Node8</title>
<g id="a_edge16_Node000014_Node000008"><a xlink:title=" ">
<path fill="none" stroke="#63b8ff" d="M426.95,-71.37C422.51,-61.88 415.23,-46.36 409.51,-34.16"/>
<polygon fill="#63b8ff" stroke="#63b8ff" points="412.59,-32.47 405.17,-24.91 406.25,-35.45 412.59,-32.47"/>
</a>
</g>
</g>
<!-- Node14&#45;&gt;Node9 -->
<g id="edge17_Node000014_Node000009" class="edge">
<title>Node14&#45;&gt;Node9</title>
<g id="a_edge17_Node000014_Node000009"><a xlink:title=" ">
<path fill="none" stroke="#63b8ff" d="M414.28,-71.37C393.38,-60.59 357.41,-42.02 332.93,-29.38"/>
<polygon fill="#63b8ff" stroke="#63b8ff" points="334.35,-26.18 323.85,-24.7 331.14,-32.4 334.35,-26.18"/>
</a>
</g>
</g>
<!-- Node14&#45;&gt;Node12 -->
<g id="edge14_Node000014_Node000012" class="edge">
<title>Node14&#45;&gt;Node12</title>
<g id="a_edge14_Node000014_Node000012"><a xlink:title=" ">
<path fill="none" stroke="#63b8ff" d="M458.01,-71.47C465.98,-69.3 474.77,-67.23 483,-66 621.67,-45.24 1610.82,-23.01 1876.47,-17.36"/>
<polygon fill="#63b8ff" stroke="#63b8ff" points="1876.8,-20.86 1886.72,-17.15 1876.65,-13.86 1876.8,-20.86"/>
</a>
</g>
</g>
<!-- Node14&#45;&gt;Node19 -->
<g id="edge15_Node000014_Node000019" class="edge">
<title>Node14&#45;&gt;Node19</title>
<g id="a_edge15_Node000014_Node000019"><a xlink:title=" ">
<path fill="none" stroke="#63b8ff" d="M458.86,-71.49C466.61,-69.4 475.08,-67.37 483,-66 676.59,-32.49 907.88,-21.38 1027.48,-17.74"/>
<polygon fill="#63b8ff" stroke="#63b8ff" points="1027.75,-21.23 1037.65,-17.44 1027.55,-14.23 1027.75,-21.23"/>
</a>
</g>
</g>
</g>
</svg>
