<?xml version="1.0" encoding="UTF-8" standalone="no"?>
<!DOCTYPE svg PUBLIC "-//W3C//DTD SVG 1.1//EN"
 "http://www.w3.org/Graphics/SVG/1.1/DTD/svg11.dtd">
<!-- Generated by graphviz version 2.43.0 (0)
 -->
<!-- Title: /home/runner/work/lethe/lethe/include/fem&#45;dem/cfd_dem_simulation_parameters.h Pages: 1 -->
<svg width="1025pt" height="379pt"
 viewBox="0.00 0.00 1025.00 379.00" xmlns="http://www.w3.org/2000/svg" xmlns:xlink="http://www.w3.org/1999/xlink">
<g id="graph0" class="graph" transform="scale(1 1) rotate(0) translate(4 375)">
<title>/home/runner/work/lethe/lethe/include/fem&#45;dem/cfd_dem_simulation_parameters.h</title>
<!-- Node1 -->
<g id="Node000001" class="node">
<title>Node1</title>
<g id="a_Node000001"><a xlink:title=" ">
<polygon fill="#999999" stroke="#666666" points="636,-371 447,-371 447,-330 636,-330 636,-371"/>
<text text-anchor="start" x="455" y="-359" font-family="Helvetica,sans-Serif" font-size="10.00">/home/runner/work/lethe</text>
<text text-anchor="start" x="455" y="-348" font-family="Helvetica,sans-Serif" font-size="10.00">/lethe/include/fem&#45;dem</text>
<text text-anchor="middle" x="541.5" y="-337" font-family="Helvetica,sans-Serif" font-size="10.00">/cfd_dem_simulation_parameters.h</text>
</a>
</g>
</g>
<!-- Node2 -->
<g id="Node000002" class="node">
<title>Node2</title>
<g id="a_Node000002"><a xlink:href="cfd__dem__coupling_8h.html" target="_top" xlink:title=" ">
<polygon fill="white" stroke="#666666" points="610,-123.5 473,-123.5 473,-82.5 610,-82.5 610,-123.5"/>
<text text-anchor="start" x="481" y="-111.5" font-family="Helvetica,sans-Serif" font-size="10.00">/home/runner/work/lethe</text>
<text text-anchor="start" x="481" y="-100.5" font-family="Helvetica,sans-Serif" font-size="10.00">/lethe/include/fem&#45;dem</text>
<text text-anchor="middle" x="541.5" y="-89.5" font-family="Helvetica,sans-Serif" font-size="10.00">/cfd_dem_coupling.h</text>
</a>
</g>
</g>
<!-- Node1&#45;&gt;Node2 -->
<g id="edge1_Node000001_Node000002" class="edge">
<title>Node1&#45;&gt;Node2</title>
<g id="a_edge1_Node000001_Node000002"><a xlink:title=" ">
<path fill="none" stroke="#63b8ff" d="M541.5,-319.81C541.5,-269.01 541.5,-166.77 541.5,-123.77"/>
<polygon fill="#63b8ff" stroke="#63b8ff" points="538,-319.82 541.5,-329.82 545,-319.82 538,-319.82"/>
</a>
</g>
</g>
<!-- Node4 -->
<g id="Node000004" class="node">
<title>Node4</title>
<g id="a_Node000004"><a xlink:href="cfd__dem__coupling__matrix__free_8h.html" target="_top" xlink:title=" ">
<polygon fill="white" stroke="#666666" points="179,-211.5 0,-211.5 0,-170.5 179,-170.5 179,-211.5"/>
<text text-anchor="start" x="8" y="-199.5" font-family="Helvetica,sans-Serif" font-size="10.00">/home/runner/work/lethe</text>
<text text-anchor="start" x="8" y="-188.5" font-family="Helvetica,sans-Serif" font-size="10.00">/lethe/include/fem&#45;dem</text>
<text text-anchor="middle" x="89.5" y="-177.5" font-family="Helvetica,sans-Serif" font-size="10.00">/cfd_dem_coupling_matrix_free.h</text>
</a>
</g>
</g>
<!-- Node1&#45;&gt;Node4 -->
<g id="edge3_Node000001_Node000004" class="edge">
<title>Node1&#45;&gt;Node4</title>
<g id="a_edge3_Node000001_Node000004"><a xlink:title=" ">
<path fill="none" stroke="#63b8ff" d="M436.54,-344.12C338.54,-337.39 200.79,-323.01 155.5,-294 125.13,-274.55 105.88,-235.57 96.45,-211.83"/>
<polygon fill="#63b8ff" stroke="#63b8ff" points="436.58,-347.63 446.79,-344.81 437.04,-340.65 436.58,-347.63"/>
</a>
</g>
</g>
<!-- Node6 -->
<g id="Node000006" class="node">
<title>Node6</title>
<g id="a_Node000006"><a xlink:href="fluid__dynamics__sharp_8h.html" target="_top" xlink:title=" ">
<polygon fill="white" stroke="#666666" points="513,-294 376,-294 376,-253 513,-253 513,-294"/>
<text text-anchor="start" x="384" y="-282" font-family="Helvetica,sans-Serif" font-size="10.00">/home/runner/work/lethe</text>
<text text-anchor="start" x="384" y="-271" font-family="Helvetica,sans-Serif" font-size="10.00">/lethe/include/fem&#45;dem</text>
<text text-anchor="middle" x="444.5" y="-260" font-family="Helvetica,sans-Serif" font-size="10.00">/fluid_dynamics_sharp.h</text>
</a>
</g>
</g>
<!-- Node1&#45;&gt;Node6 -->
<g id="edge5_Node000001_Node000006" class="edge">
<title>Node1&#45;&gt;Node6</title>
<g id="a_edge5_Node000001_Node000006"><a xlink:title=" ">
<path fill="none" stroke="#63b8ff" d="M508.28,-323.82C495.73,-314.11 481.67,-303.24 469.94,-294.17"/>
<polygon fill="#63b8ff" stroke="#63b8ff" points="506.22,-326.64 516.27,-329.99 510.5,-321.1 506.22,-326.64"/>
</a>
</g>
</g>
<!-- Node8 -->
<g id="Node000008" class="node">
<title>Node8</title>
<g id="a_Node000008"><a xlink:href="fluid__dynamics__vans_8h.html" target="_top" xlink:title=" ">
<polygon fill="white" stroke="#666666" points="707,-211.5 570,-211.5 570,-170.5 707,-170.5 707,-211.5"/>
<text text-anchor="start" x="578" y="-199.5" font-family="Helvetica,sans-Serif" font-size="10.00">/home/runner/work/lethe</text>
<text text-anchor="start" x="578" y="-188.5" font-family="Helvetica,sans-Serif" font-size="10.00">/lethe/include/fem&#45;dem</text>
<text text-anchor="middle" x="638.5" y="-177.5" font-family="Helvetica,sans-Serif" font-size="10.00">/fluid_dynamics_vans.h</text>
</a>
</g>
</g>
<!-- Node1&#45;&gt;Node8 -->
<g id="edge7_Node000001_Node000008" class="edge">
<title>Node1&#45;&gt;Node8</title>
<g id="a_edge7_Node000001_Node000008"><a xlink:title=" ">
<path fill="none" stroke="#63b8ff" d="M558.23,-321.19C569.71,-301.9 585.36,-275.8 599.5,-253 608.11,-239.11 618.03,-223.6 625.71,-211.69"/>
<polygon fill="#63b8ff" stroke="#63b8ff" points="555.21,-319.43 553.12,-329.81 561.23,-323 555.21,-319.43"/>
</a>
</g>
</g>
<!-- Node10 -->
<g id="Node000010" class="node">
<title>Node10</title>
<g id="a_Node000010"><a xlink:href="fluid__dynamics__vans__matrix__free_8h.html" target="_top" xlink:title=" ">
<polygon fill="white" stroke="#666666" points="358,-294 165,-294 165,-253 358,-253 358,-294"/>
<text text-anchor="start" x="173" y="-282" font-family="Helvetica,sans-Serif" font-size="10.00">/home/runner/work/lethe</text>
<text text-anchor="start" x="173" y="-271" font-family="Helvetica,sans-Serif" font-size="10.00">/lethe/include/fem&#45;dem</text>
<text text-anchor="middle" x="261.5" y="-260" font-family="Helvetica,sans-Serif" font-size="10.00">/fluid_dynamics_vans_matrix_free.h</text>
</a>
</g>
</g>
<!-- Node1&#45;&gt;Node10 -->
<g id="edge10_Node000001_Node000010" class="edge">
<title>Node1&#45;&gt;Node10</title>
<g id="a_edge10_Node000001_Node000010"><a xlink:title=" ">
<path fill="none" stroke="#63b8ff" d="M458.8,-327.35C419.35,-316.78 372.57,-304.25 334.46,-294.04"/>
<polygon fill="#63b8ff" stroke="#63b8ff" points="458.1,-330.78 468.66,-329.99 459.91,-324.02 458.1,-330.78"/>
</a>
</g>
</g>
<!-- Node12 -->
<g id="Node000012" class="node">
<title>Node12</title>
<g id="a_Node000012"><a xlink:href="vans__assemblers_8h.html" target="_top" xlink:title="Assemblers for the Volume&#45;Averaged Navier&#45;Stokes (VANS) equations.">
<polygon fill="white" stroke="#666666" points="745,-294 608,-294 608,-253 745,-253 745,-294"/>
<text text-anchor="start" x="616" y="-282" font-family="Helvetica,sans-Serif" font-size="10.00">/home/runner/work/lethe</text>
<text text-anchor="start" x="616" y="-271" font-family="Helvetica,sans-Serif" font-size="10.00">/lethe/include/fem&#45;dem</text>
<text text-anchor="middle" x="676.5" y="-260" font-family="Helvetica,sans-Serif" font-size="10.00">/vans_assemblers.h</text>
</a>
</g>
</g>
<!-- Node1&#45;&gt;Node12 -->
<g id="edge13_Node000001_Node000012" class="edge">
<title>Node1&#45;&gt;Node12</title>
<g id="a_edge13_Node000001_Node000012"><a xlink:title=" ">
<path fill="none" stroke="#63b8ff" d="M585.75,-324.92C603.7,-314.95 624.15,-303.58 641.09,-294.17"/>
<polygon fill="#63b8ff" stroke="#63b8ff" points="583.66,-322.07 576.62,-329.99 587.06,-328.19 583.66,-322.07"/>
</a>
</g>
</g>
<!-- Node15 -->
<g id="Node000015" class="node">
<title>Node15</title>
<g id="a_Node000015"><a xlink:href="cfd__dem__simulation__parameters_8cc.html" target="_top" xlink:title=" ">
<polygon fill="white" stroke="#666666" points="957.5,-294 763.5,-294 763.5,-253 957.5,-253 957.5,-294"/>
<text text-anchor="start" x="771.5" y="-282" font-family="Helvetica,sans-Serif" font-size="10.00">/home/runner/work/lethe</text>
<text text-anchor="start" x="771.5" y="-271" font-family="Helvetica,sans-Serif" font-size="10.00">/lethe/source/fem&#45;dem</text>
<text text-anchor="middle" x="860.5" y="-260" font-family="Helvetica,sans-Serif" font-size="10.00">/cfd_dem_simulation_parameters.cc</text>
</a>
</g>
</g>
<!-- Node1&#45;&gt;Node15 -->
<g id="edge17_Node000001_Node000015" class="edge">
<title>Node1&#45;&gt;Node15</title>
<g id="a_edge17_Node000001_Node000015"><a xlink:title=" ">
<path fill="none" stroke="#63b8ff" d="M634.29,-327.68C679.53,-317.05 733.5,-304.36 777.38,-294.04"/>
<polygon fill="#63b8ff" stroke="#63b8ff" points="633.41,-324.29 624.48,-329.99 635.02,-331.11 633.41,-324.29"/>
</a>
</g>
</g>
<!-- Node3 -->
<g id="Node000003" class="node">
<title>Node3</title>
<g id="a_Node000003"><a xlink:href="cfd__dem__coupling_8cc.html" target="_top" xlink:title=" ">
<polygon fill="white" stroke="#666666" points="610,-41 473,-41 473,0 610,0 610,-41"/>
<text text-anchor="start" x="481" y="-29" font-family="Helvetica,sans-Serif" font-size="10.00">/home/runner/work/lethe</text>
<text text-anchor="start" x="481" y="-18" font-family="Helvetica,sans-Serif" font-size="10.00">/lethe/source/fem&#45;dem</text>
<text text-anchor="middle" x="541.5" y="-7" font-family="Helvetica,sans-Serif" font-size="10.00">/cfd_dem_coupling.cc</text>
</a>
</g>
</g>
<!-- Node2&#45;&gt;Node3 -->
<g id="edge2_Node000002_Node000003" class="edge">
<title>Node2&#45;&gt;Node3</title>
<g id="a_edge2_Node000002_Node000003"><a xlink:title=" ">
<path fill="none" stroke="#63b8ff" d="M541.5,-71.87C541.5,-61.6 541.5,-50.4 541.5,-41.17"/>
<polygon fill="#63b8ff" stroke="#63b8ff" points="538,-72.1 541.5,-82.1 545,-72.1 538,-72.1"/>
</a>
</g>
</g>
<!-- Node5 -->
<g id="Node000005" class="node">
<title>Node5</title>
<g id="a_Node000005"><a xlink:href="cfd__dem__coupling__matrix__free_8cc.html" target="_top" xlink:title=" ">
<polygon fill="white" stroke="#666666" points="162.5,-129 16.5,-129 16.5,-77 162.5,-77 162.5,-129"/>
<text text-anchor="start" x="24.5" y="-117" font-family="Helvetica,sans-Serif" font-size="10.00">/home/runner/work/lethe</text>
<text text-anchor="start" x="24.5" y="-106" font-family="Helvetica,sans-Serif" font-size="10.00">/lethe/source/fem&#45;dem</text>
<text text-anchor="start" x="24.5" y="-95" font-family="Helvetica,sans-Serif" font-size="10.00">/cfd_dem_coupling_matrix</text>
<text text-anchor="middle" x="89.5" y="-84" font-family="Helvetica,sans-Serif" font-size="10.00">_free.cc</text>
</a>
</g>
</g>
<!-- Node4&#45;&gt;Node5 -->
<g id="edge4_Node000004_Node000005" class="edge">
<title>Node4&#45;&gt;Node5</title>
<g id="a_edge4_Node000004_Node000005"><a xlink:title=" ">
<path fill="none" stroke="#63b8ff" d="M89.5,-160.44C89.5,-150.31 89.5,-139.08 89.5,-129.32"/>
<polygon fill="#63b8ff" stroke="#63b8ff" points="86,-160.49 89.5,-170.49 93,-160.49 86,-160.49"/>
</a>
</g>
</g>
<!-- Node7 -->
<g id="Node000007" class="node">
<title>Node7</title>
<g id="a_Node000007"><a xlink:href="fluid__dynamics__sharp_8cc.html" target="_top" xlink:title=" ">
<polygon fill="white" stroke="#666666" points="513,-211.5 374,-211.5 374,-170.5 513,-170.5 513,-211.5"/>
<text text-anchor="start" x="382" y="-199.5" font-family="Helvetica,sans-Serif" font-size="10.00">/home/runner/work/lethe</text>
<text text-anchor="start" x="382" y="-188.5" font-family="Helvetica,sans-Serif" font-size="10.00">/lethe/source/fem&#45;dem</text>
<text text-anchor="middle" x="443.5" y="-177.5" font-family="Helvetica,sans-Serif" font-size="10.00">/fluid_dynamics_sharp.cc</text>
</a>
</g>
</g>
<!-- Node6&#45;&gt;Node7 -->
<g id="edge6_Node000006_Node000007" class="edge">
<title>Node6&#45;&gt;Node7</title>
<g id="a_edge6_Node000006_Node000007"><a xlink:title=" ">
<path fill="none" stroke="#63b8ff" d="M444.13,-242.37C444,-232.1 443.86,-220.9 443.74,-211.67"/>
<polygon fill="#63b8ff" stroke="#63b8ff" points="440.63,-242.65 444.25,-252.6 447.63,-242.56 440.63,-242.65"/>
</a>
</g>
</g>
<!-- Node8&#45;&gt;Node2 -->
<g id="edge8_Node000008_Node000002" class="edge">
<title>Node8&#45;&gt;Node2</title>
<g id="a_edge8_Node000008_Node000002"><a xlink:title=" ">
<path fill="none" stroke="#63b8ff" d="M608.75,-163.62C594.25,-150.77 577.11,-135.57 563.76,-123.74"/>
<polygon fill="#63b8ff" stroke="#63b8ff" points="606.68,-166.47 616.49,-170.49 611.33,-161.23 606.68,-166.47"/>
</a>
</g>
</g>
<!-- Node9 -->
<g id="Node000009" class="node">
<title>Node9</title>
<g id="a_Node000009"><a xlink:href="fluid__dynamics__vans_8cc.html" target="_top" xlink:title=" ">
<polygon fill="white" stroke="#666666" points="765,-123.5 628,-123.5 628,-82.5 765,-82.5 765,-123.5"/>
<text text-anchor="start" x="636" y="-111.5" font-family="Helvetica,sans-Serif" font-size="10.00">/home/runner/work/lethe</text>
<text text-anchor="start" x="636" y="-100.5" font-family="Helvetica,sans-Serif" font-size="10.00">/lethe/source/fem&#45;dem</text>
<text text-anchor="middle" x="696.5" y="-89.5" font-family="Helvetica,sans-Serif" font-size="10.00">/fluid_dynamics_vans.cc</text>
</a>
</g>
</g>
<!-- Node8&#45;&gt;Node9 -->
<g id="edge9_Node000008_Node000009" class="edge">
<title>Node8&#45;&gt;Node9</title>
<g id="a_edge9_Node000008_Node000009"><a xlink:title=" ">
<path fill="none" stroke="#63b8ff" d="M657.26,-162.18C665.72,-149.64 675.5,-135.13 683.19,-123.74"/>
<polygon fill="#63b8ff" stroke="#63b8ff" points="654.35,-160.24 651.66,-170.49 660.15,-164.15 654.35,-160.24"/>
</a>
</g>
</g>
<!-- Node10&#45;&gt;Node4 -->
<g id="edge11_Node000010_Node000004" class="edge">
<title>Node10&#45;&gt;Node4</title>
<g id="a_edge11_Node000010_Node000004"><a xlink:title=" ">
<path fill="none" stroke="#63b8ff" d="M210.06,-248.42C184.95,-236.67 155.14,-222.72 131.44,-211.63"/>
<polygon fill="#63b8ff" stroke="#63b8ff" points="208.88,-251.74 219.42,-252.81 211.85,-245.4 208.88,-251.74"/>
</a>
</g>
</g>
<!-- Node11 -->
<g id="Node000011" class="node">
<title>Node11</title>
<g id="a_Node000011"><a xlink:href="fluid__dynamics__vans__matrix__free_8cc.html" target="_top" xlink:title=" ">
<polygon fill="white" stroke="#666666" points="356,-217 197,-217 197,-165 356,-165 356,-217"/>
<text text-anchor="start" x="205" y="-205" font-family="Helvetica,sans-Serif" font-size="10.00">/home/runner/work/lethe</text>
<text text-anchor="start" x="205" y="-194" font-family="Helvetica,sans-Serif" font-size="10.00">/lethe/source/fem&#45;dem</text>
<text text-anchor="start" x="205" y="-183" font-family="Helvetica,sans-Serif" font-size="10.00">/fluid_dynamics_vans_matrix</text>
<text text-anchor="middle" x="276.5" y="-172" font-family="Helvetica,sans-Serif" font-size="10.00">_free.cc</text>
</a>
</g>
</g>
<!-- Node10&#45;&gt;Node11 -->
<g id="edge12_Node000010_Node000011" class="edge">
<title>Node10&#45;&gt;Node11</title>
<g id="a_edge12_Node000010_Node000011"><a xlink:title=" ">
<path fill="none" stroke="#63b8ff" d="M267.04,-242.77C268.61,-234.35 270.3,-225.27 271.81,-217.16"/>
<polygon fill="#63b8ff" stroke="#63b8ff" points="263.6,-242.13 265.21,-252.6 270.48,-243.41 263.6,-242.13"/>
</a>
</g>
</g>
<!-- Node12&#45;&gt;Node8 -->
<g id="edge14_Node000012_Node000008" class="edge">
<title>Node12&#45;&gt;Node8</title>
<g id="a_edge14_Node000012_Node000008"><a xlink:title=" ">
<path fill="none" stroke="#63b8ff" d="M662.73,-243.34C657.76,-232.81 652.28,-221.19 647.79,-211.67"/>
<polygon fill="#63b8ff" stroke="#63b8ff" points="659.67,-245.05 667.11,-252.6 666,-242.06 659.67,-245.05"/>
</a>
</g>
</g>
<!-- Node13 -->
<g id="Node000013" class="node">
<title>Node13</title>
<g id="a_Node000013"><a xlink:href="particle__projector_8cc.html" target="_top" xlink:title=" ">
<polygon fill="white" stroke="#666666" points="1017,-211.5 880,-211.5 880,-170.5 1017,-170.5 1017,-211.5"/>
<text text-anchor="start" x="888" y="-199.5" font-family="Helvetica,sans-Serif" font-size="10.00">/home/runner/work/lethe</text>
<text text-anchor="start" x="888" y="-188.5" font-family="Helvetica,sans-Serif" font-size="10.00">/lethe/source/fem&#45;dem</text>
<text text-anchor="middle" x="948.5" y="-177.5" font-family="Helvetica,sans-Serif" font-size="10.00">/particle_projector.cc</text>
</a>
</g>
</g>
<!-- Node12&#45;&gt;Node13 -->
<g id="edge15_Node000012_Node000013" class="edge">
<title>Node12&#45;&gt;Node13</title>
<g id="a_edge15_Node000012_Node000013"><a xlink:title=" ">
<path fill="none" stroke="#63b8ff" d="M755.12,-250.83C790.74,-240.83 833.34,-228.62 871.5,-217 877.15,-215.28 883.01,-213.45 888.88,-211.6"/>
<polygon fill="#63b8ff" stroke="#63b8ff" points="753.95,-247.52 745.27,-253.59 755.84,-254.26 753.95,-247.52"/>
</a>
</g>
</g>
<!-- Node14 -->
<g id="Node000014" class="node">
<title>Node14</title>
<g id="a_Node000014"><a xlink:href="vans__assemblers_8cc.html" target="_top" xlink:title=" ">
<polygon fill="white" stroke="#666666" points="862,-211.5 725,-211.5 725,-170.5 862,-170.5 862,-211.5"/>
<text text-anchor="start" x="733" y="-199.5" font-family="Helvetica,sans-Serif" font-size="10.00">/home/runner/work/lethe</text>
<text text-anchor="start" x="733" y="-188.5" font-family="Helvetica,sans-Serif" font-size="10.00">/lethe/source/fem&#45;dem</text>
<text text-anchor="middle" x="793.5" y="-177.5" font-family="Helvetica,sans-Serif" font-size="10.00">/vans_assemblers.cc</text>
</a>
</g>
</g>
<!-- Node12&#45;&gt;Node14 -->
<g id="edge16_Node000012_Node000014" class="edge">
<title>Node12&#45;&gt;Node14</title>
<g id="a_edge16_Node000012_Node000014"><a xlink:title=" ">
<path fill="none" stroke="#63b8ff" d="M713.51,-247.04C730.07,-235.64 749.31,-222.4 764.77,-211.77"/>
<polygon fill="#63b8ff" stroke="#63b8ff" points="711.38,-244.26 705.12,-252.81 715.34,-250.02 711.38,-244.26"/>
</a>
</g>
</g>
</g>
</svg>
