<?xml version="1.0" encoding="UTF-8" standalone="no"?>
<!DOCTYPE svg PUBLIC "-//W3C//DTD SVG 1.1//EN"
 "http://www.w3.org/Graphics/SVG/1.1/DTD/svg11.dtd">
<!-- Generated by graphviz version 2.43.0 (0)
 -->
<!-- Title: /home/runner/work/lethe/lethe/include/core/checkpoint_control.h Pages: 1 -->
<svg width="2153pt" height="434pt"
 viewBox="0.00 0.00 2153.00 434.00" xmlns="http://www.w3.org/2000/svg" xmlns:xlink="http://www.w3.org/1999/xlink">
<g id="graph0" class="graph" transform="scale(1 1) rotate(0) translate(4 430)">
<title>/home/runner/work/lethe/lethe/include/core/checkpoint_control.h</title>
<!-- Node1 -->
<g id="Node000001" class="node">
<title>Node1</title>
<g id="a_Node000001"><a xlink:title=" ">
<polygon fill="#999999" stroke="#666666" points="2136,-426 1973,-426 1973,-385 2136,-385 2136,-426"/>
<text text-anchor="start" x="1981" y="-414" font-family="Helvetica,sans-Serif" font-size="10.00">/home/runner/work/lethe</text>
<text text-anchor="start" x="1981" y="-403" font-family="Helvetica,sans-Serif" font-size="10.00">/lethe/include/core/checkpoint</text>
<text text-anchor="middle" x="2054.5" y="-392" font-family="Helvetica,sans-Serif" font-size="10.00">_control.h</text>
</a>
</g>
</g>
<!-- Node2 -->
<g id="Node000002" class="node">
<title>Node2</title>
<g id="a_Node000002"><a xlink:href="parameters_8h.html" target="_top" xlink:title=" ">
<polygon fill="white" stroke="#666666" points="1189.5,-349 1083.5,-349 1083.5,-330 1189.5,-330 1189.5,-349"/>
<text text-anchor="middle" x="1136.5" y="-337" font-family="Helvetica,sans-Serif" font-size="10.00">core/parameters.h</text>
</a>
</g>
</g>
<!-- Node1&#45;&gt;Node2 -->
<g id="edge1_Node000001_Node000002" class="edge">
<title>Node1&#45;&gt;Node2</title>
<g id="a_edge1_Node000001_Node000002"><a xlink:title=" ">
<path fill="none" stroke="#63b8ff" d="M1972.63,-398.79C1791.92,-386.19 1362.12,-356.23 1199.93,-344.92"/>
<polygon fill="#63b8ff" stroke="#63b8ff" points="1199.86,-341.41 1189.64,-344.2 1199.37,-348.39 1199.86,-341.41"/>
</a>
</g>
</g>
<!-- Node21 -->
<g id="Node000021" class="node">
<title>Node21</title>
<g id="a_Node000021"><a xlink:title=" ">
<polygon fill="#e0e0e0" stroke="#999999" points="2022,-96 1917,-96 1917,-66 2022,-66 2022,-96"/>
<text text-anchor="start" x="1925" y="-84" font-family="Helvetica,sans-Serif" font-size="10.00">boost/archive/text</text>
<text text-anchor="middle" x="1969.5" y="-73" font-family="Helvetica,sans-Serif" font-size="10.00">_iarchive.hpp</text>
</a>
</g>
</g>
<!-- Node1&#45;&gt;Node21 -->
<g id="edge49_Node000001_Node000021" class="edge">
<title>Node1&#45;&gt;Node21</title>
<g id="a_edge49_Node000001_Node000021"><a xlink:title=" ">
<path fill="none" stroke="#63b8ff" d="M2054.5,-384.66C2054.5,-360.09 2054.5,-316.96 2054.5,-280 2054.5,-280 2054.5,-280 2054.5,-212 2054.5,-167.52 2019.22,-126.39 1994.11,-102.76"/>
<polygon fill="#63b8ff" stroke="#63b8ff" points="1996.45,-100.15 1986.7,-96.01 1991.73,-105.33 1996.45,-100.15"/>
</a>
</g>
</g>
<!-- Node22 -->
<g id="Node000022" class="node">
<title>Node22</title>
<g id="a_Node000022"><a xlink:title=" ">
<polygon fill="#e0e0e0" stroke="#999999" points="2145,-96 2040,-96 2040,-66 2145,-66 2145,-96"/>
<text text-anchor="start" x="2048" y="-84" font-family="Helvetica,sans-Serif" font-size="10.00">boost/archive/text</text>
<text text-anchor="middle" x="2092.5" y="-73" font-family="Helvetica,sans-Serif" font-size="10.00">_oarchive.hpp</text>
</a>
</g>
</g>
<!-- Node1&#45;&gt;Node22 -->
<g id="edge50_Node000001_Node000022" class="edge">
<title>Node1&#45;&gt;Node22</title>
<g id="a_edge50_Node000001_Node000022"><a xlink:title=" ">
<path fill="none" stroke="#63b8ff" d="M2064.48,-384.8C2075.74,-360.71 2092.5,-318.42 2092.5,-280 2092.5,-280 2092.5,-280 2092.5,-212 2092.5,-175.07 2092.5,-132.24 2092.5,-106.14"/>
<polygon fill="#63b8ff" stroke="#63b8ff" points="2096,-106.04 2092.5,-96.04 2089,-106.04 2096,-106.04"/>
</a>
</g>
</g>
<!-- Node3 -->
<g id="Node000003" class="node">
<title>Node3</title>
<g id="a_Node000003"><a xlink:href="dimensionality_8h.html" target="_top" xlink:title=" ">
<polygon fill="white" stroke="#666666" points="121,-222.5 0,-222.5 0,-203.5 121,-203.5 121,-222.5"/>
<text text-anchor="middle" x="60.5" y="-210.5" font-family="Helvetica,sans-Serif" font-size="10.00">core/dimensionality.h</text>
</a>
</g>
</g>
<!-- Node2&#45;&gt;Node3 -->
<g id="edge2_Node000002_Node000003" class="edge">
<title>Node2&#45;&gt;Node3</title>
<g id="a_edge2_Node000002_Node000003"><a xlink:title=" ">
<path fill="none" stroke="#63b8ff" d="M1083.25,-338.47C888.48,-338.04 221.73,-333.66 135.5,-294 106.5,-280.66 83.31,-250.48 70.77,-231.24"/>
<polygon fill="#63b8ff" stroke="#63b8ff" points="73.61,-229.18 65.34,-222.55 67.67,-232.89 73.61,-229.18"/>
</a>
</g>
</g>
<!-- Node4 -->
<g id="Node000004" class="node">
<title>Node4</title>
<g id="a_Node000004"><a xlink:title=" ">
<polygon fill="#e0e0e0" stroke="#999999" points="141,-96 14,-96 14,-66 141,-66 141,-96"/>
<text text-anchor="start" x="22" y="-84" font-family="Helvetica,sans-Serif" font-size="10.00">deal.II/base/parameter</text>
<text text-anchor="middle" x="77.5" y="-73" font-family="Helvetica,sans-Serif" font-size="10.00">_handler.h</text>
</a>
</g>
</g>
<!-- Node2&#45;&gt;Node4 -->
<g id="edge46_Node000002_Node000004" class="edge">
<title>Node2&#45;&gt;Node4</title>
<g id="a_edge46_Node000002_Node000004"><a xlink:title=" ">
<path fill="none" stroke="#63b8ff" d="M1083.39,-335.24C919.29,-324.6 422.4,-288.13 273.5,-228 201.38,-198.88 132.05,-136.61 98.49,-103.59"/>
<polygon fill="#63b8ff" stroke="#63b8ff" points="100.68,-100.83 91.13,-96.24 95.74,-105.78 100.68,-100.83"/>
</a>
</g>
</g>
<!-- Node5 -->
<g id="Node000005" class="node">
<title>Node5</title>
<g id="a_Node000005"><a xlink:href="ib__particle_8h.html" target="_top" xlink:title=" ">
<polygon fill="white" stroke="#666666" points="1124,-288.5 1023,-288.5 1023,-269.5 1124,-269.5 1124,-288.5"/>
<text text-anchor="middle" x="1073.5" y="-276.5" font-family="Helvetica,sans-Serif" font-size="10.00">core/ib_particle.h</text>
</a>
</g>
</g>
<!-- Node2&#45;&gt;Node5 -->
<g id="edge4_Node000002_Node000005" class="edge">
<title>Node2&#45;&gt;Node5</title>
<g id="a_edge4_Node000002_Node000005"><a xlink:title=" ">
<path fill="none" stroke="#63b8ff" d="M1127.2,-329.87C1117.53,-320.88 1102.16,-306.61 1090.34,-295.64"/>
<polygon fill="#63b8ff" stroke="#63b8ff" points="1092.54,-292.91 1082.83,-288.67 1087.78,-298.04 1092.54,-292.91"/>
</a>
</g>
</g>
<!-- Node13 -->
<g id="Node000013" class="node">
<title>Node13</title>
<g id="a_Node000013"><a xlink:href="core_2utilities_8h.html" target="_top" xlink:title=" ">
<polygon fill="white" stroke="#666666" points="445.5,-156.5 359.5,-156.5 359.5,-137.5 445.5,-137.5 445.5,-156.5"/>
<text text-anchor="middle" x="402.5" y="-144.5" font-family="Helvetica,sans-Serif" font-size="10.00">core/utilities.h</text>
</a>
</g>
</g>
<!-- Node2&#45;&gt;Node13 -->
<g id="edge45_Node000002_Node000013" class="edge">
<title>Node2&#45;&gt;Node13</title>
<g id="a_edge45_Node000002_Node000013"><a xlink:title=" ">
<path fill="none" stroke="#63b8ff" d="M1103.12,-329.98C1004.1,-304.7 703.42,-227.72 454.5,-162 451.1,-161.1 447.57,-160.16 444.03,-159.22"/>
<polygon fill="#63b8ff" stroke="#63b8ff" points="444.68,-155.77 434.11,-156.56 442.86,-162.53 444.68,-155.77"/>
</a>
</g>
</g>
<!-- Node36 -->
<g id="Node000036" class="node">
<title>Node36</title>
<g id="a_Node000036"><a xlink:title=" ">
<polygon fill="#e0e0e0" stroke="#999999" points="2026,-228 1917,-228 1917,-198 2026,-198 2026,-228"/>
<text text-anchor="start" x="1925" y="-216" font-family="Helvetica,sans-Serif" font-size="10.00">deal.II/base/parsed</text>
<text text-anchor="middle" x="1971.5" y="-205" font-family="Helvetica,sans-Serif" font-size="10.00">_function.h</text>
</a>
</g>
</g>
<!-- Node2&#45;&gt;Node36 -->
<g id="edge47_Node000002_Node000036" class="edge">
<title>Node2&#45;&gt;Node36</title>
<g id="a_edge47_Node000002_Node000036"><a xlink:title=" ">
<path fill="none" stroke="#63b8ff" d="M1189.6,-331.9C1314.35,-316.17 1635.75,-274.29 1902.5,-228 1903.97,-227.75 1905.45,-227.48 1906.95,-227.21"/>
<polygon fill="#63b8ff" stroke="#63b8ff" points="1907.74,-230.63 1916.94,-225.37 1906.47,-223.74 1907.74,-230.63"/>
</a>
</g>
</g>
<!-- Node37 -->
<g id="Node000037" class="node">
<title>Node37</title>
<g id="a_Node000037"><a xlink:href="multiphysics_8h.html" target="_top" xlink:title="Identifiers for multiphysics modules and their solution fields.">
<polygon fill="white" stroke="#666666" points="1254.5,-288.5 1142.5,-288.5 1142.5,-269.5 1254.5,-269.5 1254.5,-288.5"/>
<text text-anchor="middle" x="1198.5" y="-276.5" font-family="Helvetica,sans-Serif" font-size="10.00">core/multiphysics.h</text>
</a>
</g>
</g>
<!-- Node2&#45;&gt;Node37 -->
<g id="edge44_Node000002_Node000037" class="edge">
<title>Node2&#45;&gt;Node37</title>
<g id="a_edge44_Node000002_Node000037"><a xlink:title=" ">
<path fill="none" stroke="#63b8ff" d="M1145.65,-329.87C1155.17,-320.88 1170.3,-306.61 1181.93,-295.64"/>
<polygon fill="#63b8ff" stroke="#63b8ff" points="1184.44,-298.08 1189.31,-288.67 1179.64,-292.98 1184.44,-298.08"/>
</a>
</g>
</g>
<!-- Node38 -->
<g id="Node000038" class="node">
<title>Node38</title>
<g id="a_Node000038"><a xlink:title=" ">
<polygon fill="#e0e0e0" stroke="#999999" points="1436,-294 1273,-294 1273,-264 1436,-264 1436,-294"/>
<text text-anchor="start" x="1281" y="-282" font-family="Helvetica,sans-Serif" font-size="10.00">deal.II/multigrid/mg</text>
<text text-anchor="middle" x="1354.5" y="-271" font-family="Helvetica,sans-Serif" font-size="10.00">_transfer_global_coarsening.h</text>
</a>
</g>
</g>
<!-- Node2&#45;&gt;Node38 -->
<g id="edge48_Node000002_Node000038" class="edge">
<title>Node2&#45;&gt;Node38</title>
<g id="a_edge48_Node000002_Node000038"><a xlink:title=" ">
<path fill="none" stroke="#63b8ff" d="M1168.2,-329.99C1200.6,-321.3 1251.78,-307.57 1292.3,-296.69"/>
<polygon fill="#63b8ff" stroke="#63b8ff" points="1293.34,-300.04 1302.09,-294.06 1291.52,-293.28 1293.34,-300.04"/>
</a>
</g>
</g>
<!-- Node3&#45;&gt;Node4 -->
<g id="edge3_Node000003_Node000004" class="edge">
<title>Node3&#45;&gt;Node4</title>
<g id="a_edge3_Node000003_Node000004"><a xlink:title=" ">
<path fill="none" stroke="#63b8ff" d="M61.62,-203.47C64.16,-184.04 70.46,-135.87 74.31,-106.36"/>
<polygon fill="#63b8ff" stroke="#63b8ff" points="77.83,-106.44 75.66,-96.07 70.89,-105.53 77.83,-106.44"/>
</a>
</g>
</g>
<!-- Node6 -->
<g id="Node000006" class="node">
<title>Node6</title>
<g id="a_Node000006"><a xlink:href="dem__properties_8h.html" target="_top" xlink:title="DEM particle property definitions and output name management.">
<polygon fill="white" stroke="#666666" points="341.5,-156.5 215.5,-156.5 215.5,-137.5 341.5,-137.5 341.5,-156.5"/>
<text text-anchor="middle" x="278.5" y="-144.5" font-family="Helvetica,sans-Serif" font-size="10.00">core/dem_properties.h</text>
</a>
</g>
</g>
<!-- Node5&#45;&gt;Node6 -->
<g id="edge5_Node000005_Node000006" class="edge">
<title>Node5&#45;&gt;Node6</title>
<g id="a_edge5_Node000005_Node000006"><a xlink:title=" ">
<path fill="none" stroke="#63b8ff" d="M1022.56,-270.42C904.32,-252.69 602.1,-206.63 350.5,-162 344.25,-160.89 337.7,-159.68 331.2,-158.46"/>
<polygon fill="#63b8ff" stroke="#63b8ff" points="331.58,-154.96 321.1,-156.52 330.26,-161.84 331.58,-154.96"/>
</a>
</g>
</g>
<!-- Node8 -->
<g id="Node000008" class="node">
<title>Node8</title>
<g id="a_Node000008"><a xlink:title=" ">
<polygon fill="#e0e0e0" stroke="#999999" points="206,-90.5 159,-90.5 159,-71.5 206,-71.5 206,-90.5"/>
<text text-anchor="middle" x="182.5" y="-78.5" font-family="Helvetica,sans-Serif" font-size="10.00">vector</text>
</a>
</g>
</g>
<!-- Node5&#45;&gt;Node8 -->
<g id="edge43_Node000005_Node000008" class="edge">
<title>Node5&#45;&gt;Node8</title>
<g id="a_edge43_Node000005_Node000008"><a xlink:title=" ">
<path fill="none" stroke="#63b8ff" d="M1022.97,-278.41C856.36,-278.7 328.02,-270.87 206.5,-162 189.15,-146.45 184.12,-118.91 182.79,-100.56"/>
<polygon fill="#63b8ff" stroke="#63b8ff" points="186.28,-100.34 182.35,-90.5 179.29,-100.64 186.28,-100.34"/>
</a>
</g>
</g>
<!-- Node9 -->
<g id="Node000009" class="node">
<title>Node9</title>
<g id="a_Node000009"><a xlink:href="shape_8h.html" target="_top" xlink:title=" ">
<polygon fill="white" stroke="#666666" points="1217,-222.5 1138,-222.5 1138,-203.5 1217,-203.5 1217,-222.5"/>
<text text-anchor="middle" x="1177.5" y="-210.5" font-family="Helvetica,sans-Serif" font-size="10.00">core/shape.h</text>
</a>
</g>
</g>
<!-- Node5&#45;&gt;Node9 -->
<g id="edge8_Node000005_Node000009" class="edge">
<title>Node5&#45;&gt;Node9</title>
<g id="a_edge8_Node000005_Node000009"><a xlink:title=" ">
<path fill="none" stroke="#63b8ff" d="M1087.53,-269.37C1104.74,-258.78 1134.16,-240.67 1154.65,-228.06"/>
<polygon fill="#63b8ff" stroke="#63b8ff" points="1156.68,-230.92 1163.36,-222.7 1153.01,-224.96 1156.68,-230.92"/>
</a>
</g>
</g>
<!-- Node11 -->
<g id="Node000011" class="node">
<title>Node11</title>
<g id="a_Node000011"><a xlink:title=" ">
<polygon fill="#e0e0e0" stroke="#999999" points="1898.5,-90.5 1788.5,-90.5 1788.5,-71.5 1898.5,-71.5 1898.5,-90.5"/>
<text text-anchor="middle" x="1843.5" y="-78.5" font-family="Helvetica,sans-Serif" font-size="10.00">deal.II/base/point.h</text>
</a>
</g>
</g>
<!-- Node5&#45;&gt;Node11 -->
<g id="edge42_Node000005_Node000011" class="edge">
<title>Node5&#45;&gt;Node11</title>
<g id="a_edge42_Node000005_Node000011"><a xlink:title=" ">
<path fill="none" stroke="#63b8ff" d="M1107,-269.49C1115.6,-267.49 1124.86,-265.51 1133.5,-264 1228.72,-247.32 1933.28,-234.25 1997.5,-162 2006.36,-152.03 2005.34,-142.79 1997.5,-132 1990.74,-122.69 1929.62,-104.83 1886.45,-93.17"/>
<polygon fill="#63b8ff" stroke="#63b8ff" points="1887.29,-89.77 1876.72,-90.57 1885.48,-96.54 1887.29,-89.77"/>
</a>
</g>
</g>
<!-- Node5&#45;&gt;Node36 -->
<g id="edge41_Node000005_Node000036" class="edge">
<title>Node5&#45;&gt;Node36</title>
<g id="a_edge41_Node000005_Node000036"><a xlink:title=" ">
<path fill="none" stroke="#63b8ff" d="M1105.06,-269.5C1114.17,-267.35 1124.18,-265.29 1133.5,-264 1472.4,-216.93 1562.95,-270.14 1902.5,-228 1903.8,-227.84 1905.1,-227.67 1906.42,-227.49"/>
<polygon fill="#63b8ff" stroke="#63b8ff" points="1907.28,-230.89 1916.64,-225.92 1906.22,-223.98 1907.28,-230.89"/>
</a>
</g>
</g>
<!-- Node7 -->
<g id="Node000007" class="node">
<title>Node7</title>
<g id="a_Node000007"><a xlink:title=" ">
<polygon fill="#e0e0e0" stroke="#999999" points="268.5,-90.5 224.5,-90.5 224.5,-71.5 268.5,-71.5 268.5,-90.5"/>
<text text-anchor="middle" x="246.5" y="-78.5" font-family="Helvetica,sans-Serif" font-size="10.00">string</text>
</a>
</g>
</g>
<!-- Node6&#45;&gt;Node7 -->
<g id="edge6_Node000006_Node000007" class="edge">
<title>Node6&#45;&gt;Node7</title>
<g id="a_edge6_Node000006_Node000007"><a xlink:title=" ">
<path fill="none" stroke="#63b8ff" d="M274.18,-137.37C269.44,-127.88 261.68,-112.36 255.58,-100.16"/>
<polygon fill="#63b8ff" stroke="#63b8ff" points="258.56,-98.28 250.95,-90.91 252.29,-101.41 258.56,-98.28"/>
</a>
</g>
</g>
<!-- Node6&#45;&gt;Node8 -->
<g id="edge7_Node000006_Node000008" class="edge">
<title>Node6&#45;&gt;Node8</title>
<g id="a_edge7_Node000006_Node000008"><a xlink:title=" ">
<path fill="none" stroke="#63b8ff" d="M265.55,-137.37C249.81,-126.87 223,-109 204.1,-96.4"/>
<polygon fill="#63b8ff" stroke="#63b8ff" points="205.81,-93.33 195.55,-90.7 201.93,-99.16 205.81,-93.33"/>
</a>
</g>
</g>
<!-- Node10 -->
<g id="Node000010" class="node">
<title>Node10</title>
<g id="a_Node000010"><a xlink:href="tensors__and__points__dimension__manipulation_8h.html" target="_top" xlink:title=" ">
<polygon fill="white" stroke="#666666" points="1988.5,-162 1836.5,-162 1836.5,-132 1988.5,-132 1988.5,-162"/>
<text text-anchor="start" x="1844.5" y="-150" font-family="Helvetica,sans-Serif" font-size="10.00">core/tensors_and_points</text>
<text text-anchor="middle" x="1912.5" y="-139" font-family="Helvetica,sans-Serif" font-size="10.00">_dimension_manipulation.h</text>
</a>
</g>
</g>
<!-- Node9&#45;&gt;Node10 -->
<g id="edge9_Node000009_Node000010" class="edge">
<title>Node9&#45;&gt;Node10</title>
<g id="a_edge9_Node000009_Node000010"><a xlink:title=" ">
<path fill="none" stroke="#63b8ff" d="M1217.24,-209.99C1318.44,-204.63 1594.08,-188.58 1822.5,-162 1823.78,-161.85 1825.07,-161.7 1826.37,-161.54"/>
<polygon fill="#63b8ff" stroke="#63b8ff" points="1826.97,-164.99 1836.45,-160.25 1826.08,-158.05 1826.97,-164.99"/>
</a>
</g>
</g>
<!-- Node9&#45;&gt;Node13 -->
<g id="edge12_Node000009_Node000013" class="edge">
<title>Node9&#45;&gt;Node13</title>
<g id="a_edge12_Node000009_Node000013"><a xlink:title=" ">
<path fill="none" stroke="#63b8ff" d="M1137.75,-209.08C1098.54,-206.22 1036.89,-201.74 983.5,-198 748.42,-181.52 686.94,-200.82 454.5,-162 449.79,-161.21 444.89,-160.18 440.07,-159.04"/>
<polygon fill="#63b8ff" stroke="#63b8ff" points="440.9,-155.64 430.35,-156.57 439.18,-162.42 440.9,-155.64"/>
</a>
</g>
</g>
<!-- Node18 -->
<g id="Node000018" class="node">
<title>Node18</title>
<g id="a_Node000018"><a xlink:title=" ">
<polygon fill="#e0e0e0" stroke="#999999" points="1328.5,-90.5 1188.5,-90.5 1188.5,-71.5 1328.5,-71.5 1328.5,-90.5"/>
<text text-anchor="middle" x="1258.5" y="-78.5" font-family="Helvetica,sans-Serif" font-size="10.00">deal.II/dofs/dof_handler.h</text>
</a>
</g>
</g>
<!-- Node9&#45;&gt;Node18 -->
<g id="edge36_Node000009_Node000018" class="edge">
<title>Node9&#45;&gt;Node18</title>
<g id="a_edge36_Node000009_Node000018"><a xlink:title=" ">
<path fill="none" stroke="#63b8ff" d="M1217.03,-211.8C1346.34,-210.75 1750.71,-204.09 1789.5,-162 1798.54,-152.2 1798.48,-141.86 1789.5,-132 1774.55,-115.58 1483.65,-95.68 1338.9,-86.75"/>
<polygon fill="#63b8ff" stroke="#63b8ff" points="1338.93,-83.24 1328.74,-86.12 1338.51,-90.23 1338.93,-83.24"/>
</a>
</g>
</g>
<!-- Node26 -->
<g id="Node000026" class="node">
<title>Node26</title>
<g id="a_Node000026"><a xlink:title=" ">
<polygon fill="#e0e0e0" stroke="#999999" points="615.5,-162 463.5,-162 463.5,-132 615.5,-132 615.5,-162"/>
<text text-anchor="start" x="471.5" y="-150" font-family="Helvetica,sans-Serif" font-size="10.00">deal.II/base/auto_derivative</text>
<text text-anchor="middle" x="539.5" y="-139" font-family="Helvetica,sans-Serif" font-size="10.00">_function.h</text>
</a>
</g>
</g>
<!-- Node9&#45;&gt;Node26 -->
<g id="edge30_Node000009_Node000026" class="edge">
<title>Node9&#45;&gt;Node26</title>
<g id="a_edge30_Node000009_Node000026"><a xlink:title=" ">
<path fill="none" stroke="#63b8ff" d="M1137.83,-209.41C1048.36,-203.36 823.85,-186.98 625.92,-162.12"/>
<polygon fill="#63b8ff" stroke="#63b8ff" points="626.28,-158.64 615.92,-160.86 625.4,-165.59 626.28,-158.64"/>
</a>
</g>
</g>
<!-- Node27 -->
<g id="Node000027" class="node">
<title>Node27</title>
<g id="a_Node000027"><a xlink:title=" ">
<polygon fill="#e0e0e0" stroke="#999999" points="759,-156.5 634,-156.5 634,-137.5 759,-137.5 759,-156.5"/>
<text text-anchor="middle" x="696.5" y="-144.5" font-family="Helvetica,sans-Serif" font-size="10.00">deal.II/base/function.h</text>
</a>
</g>
</g>
<!-- Node9&#45;&gt;Node27 -->
<g id="edge31_Node000009_Node000027" class="edge">
<title>Node9&#45;&gt;Node27</title>
<g id="a_edge31_Node000009_Node000027"><a xlink:title=" ">
<path fill="none" stroke="#63b8ff" d="M1137.89,-208.09C1064.7,-200.67 903.46,-183.34 768.5,-162 761.82,-160.94 754.82,-159.72 747.91,-158.45"/>
<polygon fill="#63b8ff" stroke="#63b8ff" points="748.39,-154.98 737.91,-156.57 747.09,-161.86 748.39,-154.98"/>
</a>
</g>
</g>
<!-- Node28 -->
<g id="Node000028" class="node">
<title>Node28</title>
<g id="a_Node000028"><a xlink:title=" ">
<polygon fill="#e0e0e0" stroke="#999999" points="901.5,-156.5 777.5,-156.5 777.5,-137.5 901.5,-137.5 901.5,-156.5"/>
<text text-anchor="middle" x="839.5" y="-144.5" font-family="Helvetica,sans-Serif" font-size="10.00">deal.II/grid/manifold.h</text>
</a>
</g>
</g>
<!-- Node9&#45;&gt;Node28 -->
<g id="edge32_Node000009_Node000028" class="edge">
<title>Node9&#45;&gt;Node28</title>
<g id="a_edge32_Node000009_Node000028"><a xlink:title=" ">
<path fill="none" stroke="#63b8ff" d="M1137.83,-204.62C1085.83,-194.94 991.81,-177.36 911.5,-162 905.65,-160.88 899.54,-159.7 893.45,-158.53"/>
<polygon fill="#63b8ff" stroke="#63b8ff" points="893.76,-155.02 883.28,-156.56 892.43,-161.9 893.76,-155.02"/>
</a>
</g>
</g>
<!-- Node29 -->
<g id="Node000029" class="node">
<title>Node29</title>
<g id="a_Node000029"><a xlink:title=" ">
<polygon fill="#e0e0e0" stroke="#999999" points="1035,-162 920,-162 920,-132 1035,-132 1035,-162"/>
<text text-anchor="start" x="928" y="-150" font-family="Helvetica,sans-Serif" font-size="10.00">deal.II/grid/manifold</text>
<text text-anchor="middle" x="977.5" y="-139" font-family="Helvetica,sans-Serif" font-size="10.00">_lib.h</text>
</a>
</g>
</g>
<!-- Node9&#45;&gt;Node29 -->
<g id="edge33_Node000009_Node000029" class="edge">
<title>Node9&#45;&gt;Node29</title>
<g id="a_edge33_Node000009_Node000029"><a xlink:title=" ">
<path fill="none" stroke="#63b8ff" d="M1150.53,-203.37C1120.06,-193.62 1069.69,-177.5 1031.14,-165.16"/>
<polygon fill="#63b8ff" stroke="#63b8ff" points="1032.2,-161.83 1021.61,-162.12 1030.07,-168.5 1032.2,-161.83"/>
</a>
</g>
</g>
<!-- Node30 -->
<g id="Node000030" class="node">
<title>Node30</title>
<g id="a_Node000030"><a xlink:title=" ">
<polygon fill="#e0e0e0" stroke="#999999" points="1168,-162 1053,-162 1053,-132 1168,-132 1168,-162"/>
<text text-anchor="start" x="1061" y="-150" font-family="Helvetica,sans-Serif" font-size="10.00">boost/range/adaptor</text>
<text text-anchor="middle" x="1110.5" y="-139" font-family="Helvetica,sans-Serif" font-size="10.00">/map.hpp</text>
</a>
</g>
</g>
<!-- Node9&#45;&gt;Node30 -->
<g id="edge34_Node000009_Node000030" class="edge">
<title>Node9&#45;&gt;Node30</title>
<g id="a_edge34_Node000009_Node000030"><a xlink:title=" ">
<path fill="none" stroke="#63b8ff" d="M1168.46,-203.37C1159.29,-194.61 1144.75,-180.71 1132.52,-169.04"/>
<polygon fill="#63b8ff" stroke="#63b8ff" points="1134.93,-166.49 1125.28,-162.12 1130.09,-171.55 1134.93,-166.49"/>
</a>
</g>
</g>
<!-- Node31 -->
<g id="Node000031" class="node">
<title>Node31</title>
<g id="a_Node000031"><a xlink:title=" ">
<polygon fill="#e0e0e0" stroke="#999999" points="1302.5,-162 1186.5,-162 1186.5,-132 1302.5,-132 1302.5,-162"/>
<text text-anchor="start" x="1194.5" y="-150" font-family="Helvetica,sans-Serif" font-size="10.00">deal.II/base/function</text>
<text text-anchor="middle" x="1244.5" y="-139" font-family="Helvetica,sans-Serif" font-size="10.00">_signed_distance.h</text>
</a>
</g>
</g>
<!-- Node9&#45;&gt;Node31 -->
<g id="edge35_Node000009_Node000031" class="edge">
<title>Node9&#45;&gt;Node31</title>
<g id="a_edge35_Node000009_Node000031"><a xlink:title=" ">
<path fill="none" stroke="#63b8ff" d="M1186.54,-203.37C1195.71,-194.61 1210.25,-180.71 1222.48,-169.04"/>
<polygon fill="#63b8ff" stroke="#63b8ff" points="1224.91,-171.55 1229.72,-162.12 1220.07,-166.49 1224.91,-171.55"/>
</a>
</g>
</g>
<!-- Node32 -->
<g id="Node000032" class="node">
<title>Node32</title>
<g id="a_Node000032"><a xlink:title=" ">
<polygon fill="#e0e0e0" stroke="#999999" points="1448.5,-156.5 1320.5,-156.5 1320.5,-137.5 1448.5,-137.5 1448.5,-156.5"/>
<text text-anchor="middle" x="1384.5" y="-144.5" font-family="Helvetica,sans-Serif" font-size="10.00">deal.II/dofs/dof_tools.h</text>
</a>
</g>
</g>
<!-- Node9&#45;&gt;Node32 -->
<g id="edge37_Node000009_Node000032" class="edge">
<title>Node9&#45;&gt;Node32</title>
<g id="a_edge37_Node000009_Node000032"><a xlink:title=" ">
<path fill="none" stroke="#63b8ff" d="M1205.42,-203.37C1242.02,-192.05 1306.34,-172.16 1347.12,-159.56"/>
<polygon fill="#63b8ff" stroke="#63b8ff" points="1348.18,-162.89 1356.7,-156.6 1346.11,-156.21 1348.18,-162.89"/>
</a>
</g>
</g>
<!-- Node33 -->
<g id="Node000033" class="node">
<title>Node33</title>
<g id="a_Node000033"><a xlink:title=" ">
<polygon fill="#e0e0e0" stroke="#999999" points="1642.5,-156.5 1466.5,-156.5 1466.5,-137.5 1642.5,-137.5 1642.5,-156.5"/>
<text text-anchor="middle" x="1554.5" y="-144.5" font-family="Helvetica,sans-Serif" font-size="10.00">deal.II/physics/transformations.h</text>
</a>
</g>
</g>
<!-- Node9&#45;&gt;Node33 -->
<g id="edge38_Node000009_Node000033" class="edge">
<title>Node9&#45;&gt;Node33</title>
<g id="a_edge38_Node000009_Node000033"><a xlink:title=" ">
<path fill="none" stroke="#63b8ff" d="M1217.13,-205.27C1283.26,-194.05 1416.5,-171.43 1494.28,-158.22"/>
<polygon fill="#63b8ff" stroke="#63b8ff" points="1495.14,-161.63 1504.42,-156.5 1493.97,-154.73 1495.14,-161.63"/>
</a>
</g>
</g>
<!-- Node34 -->
<g id="Node000034" class="node">
<title>Node34</title>
<g id="a_Node000034"><a xlink:title=" ">
<polygon fill="#e0e0e0" stroke="#999999" points="1704.5,-156.5 1660.5,-156.5 1660.5,-137.5 1704.5,-137.5 1704.5,-156.5"/>
<text text-anchor="middle" x="1682.5" y="-144.5" font-family="Helvetica,sans-Serif" font-size="10.00">cfloat</text>
</a>
</g>
</g>
<!-- Node9&#45;&gt;Node34 -->
<g id="edge39_Node000009_Node000034" class="edge">
<title>Node9&#45;&gt;Node34</title>
<g id="a_edge39_Node000009_Node000034"><a xlink:title=" ">
<path fill="none" stroke="#63b8ff" d="M1217.29,-212.04C1299.78,-211.21 1494.76,-204.48 1651.5,-162 1653.18,-161.54 1654.89,-161.01 1656.6,-160.41"/>
<polygon fill="#63b8ff" stroke="#63b8ff" points="1658.17,-163.55 1666.13,-156.56 1655.55,-157.06 1658.17,-163.55"/>
</a>
</g>
</g>
<!-- Node35 -->
<g id="Node000035" class="node">
<title>Node35</title>
<g id="a_Node000035"><a xlink:title=" ">
<polygon fill="#e0e0e0" stroke="#999999" points="1780.5,-156.5 1722.5,-156.5 1722.5,-137.5 1780.5,-137.5 1780.5,-156.5"/>
<text text-anchor="middle" x="1751.5" y="-144.5" font-family="Helvetica,sans-Serif" font-size="10.00">memory</text>
</a>
</g>
</g>
<!-- Node9&#45;&gt;Node35 -->
<g id="edge40_Node000009_Node000035" class="edge">
<title>Node9&#45;&gt;Node35</title>
<g id="a_edge40_Node000009_Node000035"><a xlink:title=" ">
<path fill="none" stroke="#63b8ff" d="M1217.06,-211.8C1306.6,-210.6 1531.21,-203.34 1713.5,-162 1716.17,-161.39 1718.91,-160.65 1721.63,-159.82"/>
<polygon fill="#63b8ff" stroke="#63b8ff" points="1722.94,-163.07 1731.29,-156.55 1720.69,-156.44 1722.94,-163.07"/>
</a>
</g>
</g>
<!-- Node10&#45;&gt;Node11 -->
<g id="edge10_Node000010_Node000011" class="edge">
<title>Node10&#45;&gt;Node11</title>
<g id="a_edge10_Node000010_Node000011"><a xlink:title=" ">
<path fill="none" stroke="#63b8ff" d="M1897.19,-131.8C1886.32,-121.72 1871.74,-108.19 1860.51,-97.78"/>
<polygon fill="#63b8ff" stroke="#63b8ff" points="1862.75,-95.08 1853.04,-90.84 1857.99,-100.21 1862.75,-95.08"/>
</a>
</g>
</g>
<!-- Node12 -->
<g id="Node000012" class="node">
<title>Node12</title>
<g id="a_Node000012"><a xlink:title=" ">
<polygon fill="#e0e0e0" stroke="#999999" points="1667,-90.5 1552,-90.5 1552,-71.5 1667,-71.5 1667,-90.5"/>
<text text-anchor="middle" x="1609.5" y="-78.5" font-family="Helvetica,sans-Serif" font-size="10.00">deal.II/base/tensor.h</text>
</a>
</g>
</g>
<!-- Node10&#45;&gt;Node12 -->
<g id="edge11_Node000010_Node000012" class="edge">
<title>Node10&#45;&gt;Node12</title>
<g id="a_edge11_Node000010_Node000012"><a xlink:title=" ">
<path fill="none" stroke="#63b8ff" d="M1846.01,-131.95C1789.82,-120.09 1710.58,-103.35 1659.62,-92.59"/>
<polygon fill="#63b8ff" stroke="#63b8ff" points="1660.33,-89.16 1649.82,-90.52 1658.88,-96.01 1660.33,-89.16"/>
</a>
</g>
</g>
<!-- Node13&#45;&gt;Node4 -->
<g id="edge16_Node000013_Node000004" class="edge">
<title>Node13&#45;&gt;Node4</title>
<g id="a_edge16_Node000013_Node000004"><a xlink:title=" ">
<path fill="none" stroke="#63b8ff" d="M372.64,-137.49C365.42,-135.56 357.71,-133.61 350.5,-132 265.05,-112.88 240.43,-112.65 151.12,-96.27"/>
<polygon fill="#63b8ff" stroke="#63b8ff" points="151.56,-92.8 141.09,-94.42 150.29,-99.68 151.56,-92.8"/>
</a>
</g>
</g>
<!-- Node13&#45;&gt;Node7 -->
<g id="edge27_Node000013_Node000007" class="edge">
<title>Node13&#45;&gt;Node7</title>
<g id="a_edge27_Node000013_Node000007"><a xlink:title=" ">
<path fill="none" stroke="#63b8ff" d="M380.25,-137.44C355.16,-127.71 313.2,-111.19 277.5,-96 276.49,-95.57 275.47,-95.13 274.44,-94.69"/>
<polygon fill="#63b8ff" stroke="#63b8ff" points="275.69,-91.41 265.13,-90.57 272.86,-97.82 275.69,-91.41"/>
</a>
</g>
</g>
<!-- Node13&#45;&gt;Node8 -->
<g id="edge29_Node000013_Node000008" class="edge">
<title>Node13&#45;&gt;Node8</title>
<g id="a_edge29_Node000013_Node000008"><a xlink:title=" ">
<path fill="none" stroke="#63b8ff" d="M370.88,-137.47C364.15,-135.66 357.09,-133.77 350.5,-132 290.52,-115.93 274.23,-116.18 215.5,-96 214.07,-95.51 212.6,-94.98 211.14,-94.43"/>
<polygon fill="#63b8ff" stroke="#63b8ff" points="212.1,-91.05 201.52,-90.61 209.51,-97.55 212.1,-91.05"/>
</a>
</g>
</g>
<!-- Node13&#45;&gt;Node11 -->
<g id="edge17_Node000013_Node000011" class="edge">
<title>Node13&#45;&gt;Node11</title>
<g id="a_edge17_Node000013_Node000011"><a xlink:title=" ">
<path fill="none" stroke="#63b8ff" d="M429.51,-137.45C437.47,-135.27 446.27,-133.21 454.5,-132 723.27,-92.42 1405.26,-111.35 1676.5,-96 1710.04,-94.1 1747.29,-91.07 1778.08,-88.31"/>
<polygon fill="#63b8ff" stroke="#63b8ff" points="1778.62,-91.78 1788.27,-87.39 1777.99,-84.8 1778.62,-91.78"/>
</a>
</g>
</g>
<!-- Node13&#45;&gt;Node12 -->
<g id="edge19_Node000013_Node000012" class="edge">
<title>Node13&#45;&gt;Node12</title>
<g id="a_edge19_Node000013_Node000012"><a xlink:title=" ">
<path fill="none" stroke="#63b8ff" d="M429.78,-137.43C437.68,-135.29 446.37,-133.24 454.5,-132 842.75,-72.58 945.15,-114.09 1337.5,-96 1407.06,-92.79 1486.59,-88.64 1541.61,-85.7"/>
<polygon fill="#63b8ff" stroke="#63b8ff" points="1542.14,-89.17 1551.94,-85.14 1541.76,-82.18 1542.14,-89.17"/>
</a>
</g>
</g>
<!-- Node14 -->
<g id="Node000014" class="node">
<title>Node14</title>
<g id="a_Node000014"><a xlink:href="output__struct_8h.html" target="_top" xlink:title=" ">
<polygon fill="#fff0f0" stroke="red" points="400.5,-90.5 286.5,-90.5 286.5,-71.5 400.5,-71.5 400.5,-90.5"/>
<text text-anchor="middle" x="343.5" y="-78.5" font-family="Helvetica,sans-Serif" font-size="10.00">core/output_struct.h</text>
</a>
</g>
</g>
<!-- Node13&#45;&gt;Node14 -->
<g id="edge13_Node000013_Node000014" class="edge">
<title>Node13&#45;&gt;Node14</title>
<g id="a_edge13_Node000013_Node000014"><a xlink:title=" ">
<path fill="none" stroke="#63b8ff" d="M394.54,-137.37C385.36,-127.4 370.04,-110.79 358.58,-98.36"/>
<polygon fill="#63b8ff" stroke="#63b8ff" points="361.06,-95.89 351.71,-90.91 355.91,-100.63 361.06,-95.89"/>
</a>
</g>
</g>
<!-- Node15 -->
<g id="Node000015" class="node">
<title>Node15</title>
<g id="a_Node000015"><a xlink:title=" ">
<polygon fill="#e0e0e0" stroke="#999999" points="436,-30 335,-30 335,0 436,0 436,-30"/>
<text text-anchor="start" x="343" y="-18" font-family="Helvetica,sans-Serif" font-size="10.00">deal.II/base/table</text>
<text text-anchor="middle" x="385.5" y="-7" font-family="Helvetica,sans-Serif" font-size="10.00">_handler.h</text>
</a>
</g>
</g>
<!-- Node13&#45;&gt;Node15 -->
<g id="edge18_Node000013_Node000015" class="edge">
<title>Node13&#45;&gt;Node15</title>
<g id="a_edge18_Node000013_Node000015"><a xlink:title=" ">
<path fill="none" stroke="#63b8ff" d="M404.95,-137.47C408.81,-122.72 415.32,-91.56 409.5,-66 407.41,-56.82 403.42,-47.36 399.28,-39.18"/>
<polygon fill="#63b8ff" stroke="#63b8ff" points="402.29,-37.38 394.46,-30.24 396.13,-40.71 402.29,-37.38"/>
</a>
</g>
</g>
<!-- Node17 -->
<g id="Node000017" class="node">
<title>Node17</title>
<g id="a_Node000017"><a xlink:title=" ">
<polygon fill="#e0e0e0" stroke="#999999" points="586.5,-96 456.5,-96 456.5,-66 586.5,-66 586.5,-96"/>
<text text-anchor="start" x="464.5" y="-84" font-family="Helvetica,sans-Serif" font-size="10.00">deal.II/base/conditional</text>
<text text-anchor="middle" x="521.5" y="-73" font-family="Helvetica,sans-Serif" font-size="10.00">_ostream.h</text>
</a>
</g>
</g>
<!-- Node13&#45;&gt;Node17 -->
<g id="edge15_Node000013_Node000017" class="edge">
<title>Node13&#45;&gt;Node17</title>
<g id="a_edge15_Node000013_Node000017"><a xlink:title=" ">
<path fill="none" stroke="#63b8ff" d="M418.55,-137.37C435.83,-128.07 463.88,-112.99 486.33,-100.91"/>
<polygon fill="#63b8ff" stroke="#63b8ff" points="488.1,-103.93 495.25,-96.12 484.79,-97.77 488.1,-103.93"/>
</a>
</g>
</g>
<!-- Node13&#45;&gt;Node18 -->
<g id="edge20_Node000013_Node000018" class="edge">
<title>Node13&#45;&gt;Node18</title>
<g id="a_edge20_Node000013_Node000018"><a xlink:title=" ">
<path fill="none" stroke="#63b8ff" d="M430.07,-137.45C437.89,-135.33 446.47,-133.3 454.5,-132 725.65,-88.06 797.42,-114.25 1071.5,-96 1106.53,-93.67 1145.23,-90.81 1178.3,-88.3"/>
<polygon fill="#63b8ff" stroke="#63b8ff" points="1178.66,-91.78 1188.37,-87.53 1178.13,-84.8 1178.66,-91.78"/>
</a>
</g>
</g>
<!-- Node19 -->
<g id="Node000019" class="node">
<title>Node19</title>
<g id="a_Node000019"><a xlink:title=" ">
<polygon fill="#e0e0e0" stroke="#999999" points="724,-90.5 605,-90.5 605,-71.5 724,-71.5 724,-90.5"/>
<text text-anchor="middle" x="664.5" y="-78.5" font-family="Helvetica,sans-Serif" font-size="10.00">deal.II/fe/fe_values.h</text>
</a>
</g>
</g>
<!-- Node13&#45;&gt;Node19 -->
<g id="edge21_Node000013_Node000019" class="edge">
<title>Node13&#45;&gt;Node19</title>
<g id="a_edge21_Node000013_Node000019"><a xlink:title=" ">
<path fill="none" stroke="#63b8ff" d="M433.53,-137.49C440.43,-135.64 447.7,-133.72 454.5,-132 510.33,-117.84 574.81,-102.66 617.43,-92.79"/>
<polygon fill="#63b8ff" stroke="#63b8ff" points="618.29,-96.19 627.24,-90.52 616.71,-89.37 618.29,-96.19"/>
</a>
</g>
</g>
<!-- Node20 -->
<g id="Node000020" class="node">
<title>Node20</title>
<g id="a_Node000020"><a xlink:title=" ">
<polygon fill="#e0e0e0" stroke="#999999" points="873,-96 742,-96 742,-66 873,-66 873,-96"/>
<text text-anchor="start" x="750" y="-84" font-family="Helvetica,sans-Serif" font-size="10.00">deal.II/particles/particle</text>
<text text-anchor="middle" x="807.5" y="-73" font-family="Helvetica,sans-Serif" font-size="10.00">_iterator.h</text>
</a>
</g>
</g>
<!-- Node13&#45;&gt;Node20 -->
<g id="edge22_Node000013_Node000020" class="edge">
<title>Node13&#45;&gt;Node20</title>
<g id="a_edge22_Node000013_Node000020"><a xlink:title=" ">
<path fill="none" stroke="#63b8ff" d="M431.49,-137.46C438.94,-135.46 446.98,-133.49 454.5,-132 573.6,-108.37 607.72,-115.07 731.8,-96.04"/>
<polygon fill="#63b8ff" stroke="#63b8ff" points="732.34,-99.5 741.69,-94.5 731.27,-92.58 732.34,-99.5"/>
</a>
</g>
</g>
<!-- Node13&#45;&gt;Node21 -->
<g id="edge23_Node000013_Node000021" class="edge">
<title>Node13&#45;&gt;Node21</title>
<g id="a_edge23_Node000013_Node000021"><a xlink:title=" ">
<path fill="none" stroke="#63b8ff" d="M429.23,-137.5C437.27,-135.3 446.17,-133.21 454.5,-132 1090.52,-39.85 1264.66,-174.14 1906.89,-95.86"/>
<polygon fill="#63b8ff" stroke="#63b8ff" points="1907.36,-99.32 1916.86,-94.63 1906.51,-92.38 1907.36,-99.32"/>
</a>
</g>
</g>
<!-- Node13&#45;&gt;Node22 -->
<g id="edge24_Node000013_Node000022" class="edge">
<title>Node13&#45;&gt;Node22</title>
<g id="a_edge24_Node000013_Node000022"><a xlink:title=" ">
<path fill="none" stroke="#63b8ff" d="M429.23,-137.49C437.27,-135.28 446.17,-133.2 454.5,-132 1145.12,-32.63 1334.03,-181.43 2029.7,-96.04"/>
<polygon fill="#63b8ff" stroke="#63b8ff" points="2030.22,-99.51 2039.72,-94.8 2029.36,-92.56 2030.22,-99.51"/>
</a>
</g>
</g>
<!-- Node23 -->
<g id="Node000023" class="node">
<title>Node23</title>
<g id="a_Node000023"><a xlink:title=" ">
<polygon fill="#e0e0e0" stroke="#999999" points="946,-90.5 891,-90.5 891,-71.5 946,-71.5 946,-90.5"/>
<text text-anchor="middle" x="918.5" y="-78.5" font-family="Helvetica,sans-Serif" font-size="10.00">fstream</text>
</a>
</g>
</g>
<!-- Node13&#45;&gt;Node23 -->
<g id="edge25_Node000013_Node000023" class="edge">
<title>Node13&#45;&gt;Node23</title>
<g id="a_edge25_Node000013_Node000023"><a xlink:title=" ">
<path fill="none" stroke="#63b8ff" d="M430.63,-137.44C438.31,-135.38 446.67,-133.37 454.5,-132 642.53,-99.05 696.52,-139.04 882.5,-96 884.87,-95.45 887.29,-94.78 889.7,-94.02"/>
<polygon fill="#63b8ff" stroke="#63b8ff" points="891.13,-97.23 899.39,-90.6 888.8,-90.63 891.13,-97.23"/>
</a>
</g>
</g>
<!-- Node24 -->
<g id="Node000024" class="node">
<title>Node24</title>
<g id="a_Node000024"><a xlink:title=" ">
<polygon fill="#e0e0e0" stroke="#999999" points="1002.5,-90.5 964.5,-90.5 964.5,-71.5 1002.5,-71.5 1002.5,-90.5"/>
<text text-anchor="middle" x="983.5" y="-78.5" font-family="Helvetica,sans-Serif" font-size="10.00">map</text>
</a>
</g>
</g>
<!-- Node13&#45;&gt;Node24 -->
<g id="edge26_Node000013_Node000024" class="edge">
<title>Node13&#45;&gt;Node24</title>
<g id="a_edge26_Node000013_Node000024"><a xlink:title=" ">
<path fill="none" stroke="#63b8ff" d="M430.35,-137.45C438.1,-135.36 446.57,-133.34 454.5,-132 674.62,-94.81 740.21,-155.05 955.5,-96 956.94,-95.6 958.4,-95.13 959.84,-94.61"/>
<polygon fill="#63b8ff" stroke="#63b8ff" points="961.36,-97.76 969.11,-90.54 958.55,-91.35 961.36,-97.76"/>
</a>
</g>
</g>
<!-- Node25 -->
<g id="Node000025" class="node">
<title>Node25</title>
<g id="a_Node000025"><a xlink:title=" ">
<polygon fill="#e0e0e0" stroke="#999999" points="1062,-90.5 1021,-90.5 1021,-71.5 1062,-71.5 1062,-90.5"/>
<text text-anchor="middle" x="1041.5" y="-78.5" font-family="Helvetica,sans-Serif" font-size="10.00">tuple</text>
</a>
</g>
</g>
<!-- Node13&#45;&gt;Node25 -->
<g id="edge28_Node000013_Node000025" class="edge">
<title>Node13&#45;&gt;Node25</title>
<g id="a_edge28_Node000013_Node000025"><a xlink:title=" ">
<path fill="none" stroke="#63b8ff" d="M430.07,-137.49C437.9,-135.37 446.47,-133.33 454.5,-132 699.25,-91.55 771.18,-157.51 1011.5,-96 1013.18,-95.57 1014.89,-95.04 1016.59,-94.45"/>
<polygon fill="#63b8ff" stroke="#63b8ff" points="1018.12,-97.61 1026.03,-90.55 1015.45,-91.14 1018.12,-97.61"/>
</a>
</g>
</g>
<!-- Node14&#45;&gt;Node15 -->
<g id="edge14_Node000014_Node000015" class="edge">
<title>Node14&#45;&gt;Node15</title>
<g id="a_edge14_Node000014_Node000015"><a xlink:title=" ">
<path fill="none" stroke="#63b8ff" d="M349.16,-71.37C354.61,-63.08 363.07,-50.18 370.46,-38.92"/>
<polygon fill="#63b8ff" stroke="#63b8ff" points="373.52,-40.64 376.08,-30.36 367.66,-36.8 373.52,-40.64"/>
</a>
</g>
</g>
</g>
</svg>
