<?xml version="1.0" encoding="UTF-8" standalone="no"?>
<!DOCTYPE svg PUBLIC "-//W3C//DTD SVG 1.1//EN"
 "http://www.w3.org/Graphics/SVG/1.1/DTD/svg11.dtd">
<!-- Generated by graphviz version 2.43.0 (0)
 -->
<!-- Title: HyperRectangle&lt; dim &gt; Pages: 1 -->
<svg width="144pt" height="148pt"
 viewBox="0.00 0.00 144.00 148.00" xmlns="http://www.w3.org/2000/svg" xmlns:xlink="http://www.w3.org/1999/xlink">
<g id="graph0" class="graph" transform="scale(1 1) rotate(0) translate(4 144)">
<title>HyperRectangle&lt; dim &gt;</title>
<!-- Node1 -->
<g id="Node000001" class="node">
<title>Node1</title>
<g id="a_Node000001"><a xlink:title=" ">
<polygon fill="#999999" stroke="#666666" points="136,-19 0,-19 0,0 136,0 136,-19"/>
<text text-anchor="middle" x="68" y="-7" font-family="Helvetica,sans-Serif" font-size="10.00">HyperRectangle&lt; dim &gt;</text>
</a>
</g>
</g>
<!-- Node2 -->
<g id="Node000002" class="node">
<title>Node2</title>
<g id="a_Node000002"><a xlink:href="classShape.html" target="_top" xlink:title="A base class used to represent geometrical entities. Its main uses are to return signed distance and ...">
<polygon fill="white" stroke="#666666" points="112,-74 24,-74 24,-55 112,-55 112,-74"/>
<text text-anchor="middle" x="68" y="-62" font-family="Helvetica,sans-Serif" font-size="10.00">Shape&lt; dim &gt;</text>
</a>
</g>
</g>
<!-- Node2&#45;&gt;Node1 -->
<g id="edge1_Node000001_Node000002" class="edge">
<title>Node2&#45;&gt;Node1</title>
<g id="a_edge1_Node000001_Node000002"><a xlink:title=" ">
<path fill="none" stroke="#63b8ff" d="M68,-44.66C68,-35.93 68,-25.99 68,-19.09"/>
<polygon fill="#63b8ff" stroke="#63b8ff" points="64.5,-44.75 68,-54.75 71.5,-44.75 64.5,-44.75"/>
</a>
</g>
</g>
<!-- Node3 -->
<g id="Node000003" class="node">
<title>Node3</title>
<g id="a_Node000003"><a xlink:title=" ">
<polygon fill="white" stroke="#666666" points="133.5,-140 2.5,-140 2.5,-110 133.5,-110 133.5,-140"/>
<text text-anchor="start" x="10.5" y="-128" font-family="Helvetica,sans-Serif" font-size="10.00">AutoDerivativeFunction</text>
<text text-anchor="middle" x="68" y="-117" font-family="Helvetica,sans-Serif" font-size="10.00">&lt; dim &gt;</text>
</a>
</g>
</g>
<!-- Node3&#45;&gt;Node2 -->
<g id="edge2_Node000002_Node000003" class="edge">
<title>Node3&#45;&gt;Node2</title>
<g id="a_edge2_Node000002_Node000003"><a xlink:title=" ">
<path fill="none" stroke="#63b8ff" d="M68,-99.75C68,-90.72 68,-81.03 68,-74.27"/>
<polygon fill="#63b8ff" stroke="#63b8ff" points="64.5,-99.84 68,-109.84 71.5,-99.84 64.5,-99.84"/>
</a>
</g>
</g>
</g>
</svg>
