<?xml version="1.0" encoding="UTF-8" standalone="no"?>
<!DOCTYPE svg PUBLIC "-//W3C//DTD SVG 1.1//EN"
 "http://www.w3.org/Graphics/SVG/1.1/DTD/svg11.dtd">
<!-- Generated by graphviz version 2.43.0 (0)
 -->
<!-- Title: SurfaceTensionLinear Pages: 1 -->
<svg width="164pt" height="192pt"
 viewBox="0.00 0.00 164.00 192.00" xmlns="http://www.w3.org/2000/svg" xmlns:xlink="http://www.w3.org/1999/xlink">
<g id="graph0" class="graph" transform="scale(1 1) rotate(0) translate(4 188)">
<title>SurfaceTensionLinear</title>
<!-- Node1 -->
<g id="Node000001" class="node">
<title>Node1</title>
<g id="a_Node000001"><a xlink:title="Linear surface tension. The surface tension is given by: sigma_0 + dsimga/dT * (T&#45;T_0).">
<polygon fill="#999999" stroke="#666666" points="138,-74 18,-74 18,-55 138,-55 138,-74"/>
<text text-anchor="middle" x="78" y="-62" font-family="Helvetica,sans-Serif" font-size="10.00">SurfaceTensionLinear</text>
</a>
</g>
</g>
<!-- Node4 -->
<g id="Node000004" class="node">
<title>Node4</title>
<g id="a_Node000004"><a xlink:href="classSurfaceTensionPhaseChange.html" target="_top" xlink:title="Linear surface tension with phase change. The surface tension is given by: alpha_l*(sigma_0 + dsigma/...">
<polygon fill="white" stroke="#666666" points="156,-19 0,-19 0,0 156,0 156,-19"/>
<text text-anchor="middle" x="78" y="-7" font-family="Helvetica,sans-Serif" font-size="10.00">SurfaceTensionPhaseChange</text>
</a>
</g>
</g>
<!-- Node1&#45;&gt;Node4 -->
<g id="edge3_Node000001_Node000004" class="edge">
<title>Node1&#45;&gt;Node4</title>
<g id="a_edge3_Node000001_Node000004"><a xlink:title=" ">
<path fill="none" stroke="#63b8ff" d="M78,-44.66C78,-35.93 78,-25.99 78,-19.09"/>
<polygon fill="#63b8ff" stroke="#63b8ff" points="74.5,-44.75 78,-54.75 81.5,-44.75 74.5,-44.75"/>
</a>
</g>
</g>
<!-- Node2 -->
<g id="Node000002" class="node">
<title>Node2</title>
<g id="a_Node000002"><a xlink:href="classSurfaceTensionModel.html" target="_top" xlink:title="Abstract class that allows to calculate the surface tension coefficient.">
<polygon fill="white" stroke="#666666" points="138,-129 18,-129 18,-110 138,-110 138,-129"/>
<text text-anchor="middle" x="78" y="-117" font-family="Helvetica,sans-Serif" font-size="10.00">SurfaceTensionModel</text>
</a>
</g>
</g>
<!-- Node2&#45;&gt;Node1 -->
<g id="edge1_Node000001_Node000002" class="edge">
<title>Node2&#45;&gt;Node1</title>
<g id="a_edge1_Node000001_Node000002"><a xlink:title=" ">
<path fill="none" stroke="#63b8ff" d="M78,-99.66C78,-90.93 78,-80.99 78,-74.09"/>
<polygon fill="#63b8ff" stroke="#63b8ff" points="74.5,-99.75 78,-109.75 81.5,-99.75 74.5,-99.75"/>
</a>
</g>
</g>
<!-- Node3 -->
<g id="Node000003" class="node">
<title>Node3</title>
<g id="a_Node000003"><a xlink:href="classInterfacePropertyModel.html" target="_top" xlink:title="Abstract class that defines the interface for a interface property model. Interface property model pr...">
<polygon fill="white" stroke="#666666" points="143.5,-184 12.5,-184 12.5,-165 143.5,-165 143.5,-184"/>
<text text-anchor="middle" x="78" y="-172" font-family="Helvetica,sans-Serif" font-size="10.00">InterfacePropertyModel</text>
</a>
</g>
</g>
<!-- Node3&#45;&gt;Node2 -->
<g id="edge2_Node000002_Node000003" class="edge">
<title>Node3&#45;&gt;Node2</title>
<g id="a_edge2_Node000002_Node000003"><a xlink:title=" ">
<path fill="none" stroke="#63b8ff" d="M78,-154.66C78,-145.93 78,-135.99 78,-129.09"/>
<polygon fill="#63b8ff" stroke="#63b8ff" points="74.5,-154.75 78,-164.75 81.5,-154.75 74.5,-154.75"/>
</a>
</g>
</g>
</g>
</svg>
