<?xml version="1.0" encoding="UTF-8" standalone="no"?>
<!DOCTYPE svg PUBLIC "-//W3C//DTD SVG 1.1//EN"
 "http://www.w3.org/Graphics/SVG/1.1/DTD/svg11.dtd">
<!-- Generated by graphviz version 2.43.0 (0)
 -->
<!-- Title: SurfaceTensionModel Pages: 1 -->
<svg width="298pt" height="192pt"
 viewBox="0.00 0.00 298.00 192.00" xmlns="http://www.w3.org/2000/svg" xmlns:xlink="http://www.w3.org/1999/xlink">
<g id="graph0" class="graph" transform="scale(1 1) rotate(0) translate(4 188)">
<title>SurfaceTensionModel</title>
<!-- Node1 -->
<g id="Node000001" class="node">
<title>Node1</title>
<g id="a_Node000001"><a xlink:title="Abstract class that allows to calculate the surface tension coefficient.">
<polygon fill="#999999" stroke="#666666" points="199,-129 79,-129 79,-110 199,-110 199,-129"/>
<text text-anchor="middle" x="139" y="-117" font-family="Helvetica,sans-Serif" font-size="10.00">SurfaceTensionModel</text>
</a>
</g>
</g>
<!-- Node3 -->
<g id="Node000003" class="node">
<title>Node3</title>
<g id="a_Node000003"><a xlink:href="classSurfaceTensionConstant.html" target="_top" xlink:title="Constant surface tension.">
<polygon fill="white" stroke="#666666" points="134,-74 0,-74 0,-55 134,-55 134,-74"/>
<text text-anchor="middle" x="67" y="-62" font-family="Helvetica,sans-Serif" font-size="10.00">SurfaceTensionConstant</text>
</a>
</g>
</g>
<!-- Node1&#45;&gt;Node3 -->
<g id="edge2_Node000001_Node000003" class="edge">
<title>Node1&#45;&gt;Node3</title>
<g id="a_edge2_Node000001_Node000003"><a xlink:title=" ">
<path fill="none" stroke="#63b8ff" d="M119.13,-103.88C106.18,-94.34 89.7,-82.21 78.78,-74.17"/>
<polygon fill="#63b8ff" stroke="#63b8ff" points="117.3,-106.88 127.43,-109.98 121.45,-101.24 117.3,-106.88"/>
</a>
</g>
</g>
<!-- Node4 -->
<g id="Node000004" class="node">
<title>Node4</title>
<g id="a_Node000004"><a xlink:href="classSurfaceTensionLinear.html" target="_top" xlink:title="Linear surface tension. The surface tension is given by: sigma_0 + dsimga/dT * (T&#45;T_0).">
<polygon fill="white" stroke="#666666" points="272,-74 152,-74 152,-55 272,-55 272,-74"/>
<text text-anchor="middle" x="212" y="-62" font-family="Helvetica,sans-Serif" font-size="10.00">SurfaceTensionLinear</text>
</a>
</g>
</g>
<!-- Node1&#45;&gt;Node4 -->
<g id="edge3_Node000001_Node000004" class="edge">
<title>Node1&#45;&gt;Node4</title>
<g id="a_edge3_Node000001_Node000004"><a xlink:title=" ">
<path fill="none" stroke="#63b8ff" d="M159.14,-103.88C172.28,-94.34 188.98,-82.21 200.06,-74.17"/>
<polygon fill="#63b8ff" stroke="#63b8ff" points="156.76,-101.28 150.73,-109.98 160.88,-106.94 156.76,-101.28"/>
</a>
</g>
</g>
<!-- Node2 -->
<g id="Node000002" class="node">
<title>Node2</title>
<g id="a_Node000002"><a xlink:href="classInterfacePropertyModel.html" target="_top" xlink:title="Abstract class that defines the interface for a interface property model. Interface property model pr...">
<polygon fill="white" stroke="#666666" points="204.5,-184 73.5,-184 73.5,-165 204.5,-165 204.5,-184"/>
<text text-anchor="middle" x="139" y="-172" font-family="Helvetica,sans-Serif" font-size="10.00">InterfacePropertyModel</text>
</a>
</g>
</g>
<!-- Node2&#45;&gt;Node1 -->
<g id="edge1_Node000001_Node000002" class="edge">
<title>Node2&#45;&gt;Node1</title>
<g id="a_edge1_Node000001_Node000002"><a xlink:title=" ">
<path fill="none" stroke="#63b8ff" d="M139,-154.66C139,-145.93 139,-135.99 139,-129.09"/>
<polygon fill="#63b8ff" stroke="#63b8ff" points="135.5,-154.75 139,-164.75 142.5,-154.75 135.5,-154.75"/>
</a>
</g>
</g>
<!-- Node5 -->
<g id="Node000005" class="node">
<title>Node5</title>
<g id="a_Node000005"><a xlink:href="classSurfaceTensionPhaseChange.html" target="_top" xlink:title="Linear surface tension with phase change. The surface tension is given by: alpha_l*(sigma_0 + dsigma/...">
<polygon fill="white" stroke="#666666" points="290,-19 134,-19 134,0 290,0 290,-19"/>
<text text-anchor="middle" x="212" y="-7" font-family="Helvetica,sans-Serif" font-size="10.00">SurfaceTensionPhaseChange</text>
</a>
</g>
</g>
<!-- Node4&#45;&gt;Node5 -->
<g id="edge4_Node000004_Node000005" class="edge">
<title>Node4&#45;&gt;Node5</title>
<g id="a_edge4_Node000004_Node000005"><a xlink:title=" ">
<path fill="none" stroke="#63b8ff" d="M212,-44.66C212,-35.93 212,-25.99 212,-19.09"/>
<polygon fill="#63b8ff" stroke="#63b8ff" points="208.5,-44.75 212,-54.75 215.5,-44.75 208.5,-44.75"/>
</a>
</g>
</g>
</g>
</svg>
