<?xml version="1.0" encoding="UTF-8" standalone="no"?>
<!DOCTYPE svg PUBLIC "-//W3C//DTD SVG 1.1//EN"
 "http://www.w3.org/Graphics/SVG/1.1/DTD/svg11.dtd">
<!-- Generated by graphviz version 2.43.0 (0)
 -->
<!-- Title: CutHollowSphere&lt; dim &gt; Pages: 1 -->
<svg width="150pt" height="148pt"
 viewBox="0.00 0.00 150.00 148.00" xmlns="http://www.w3.org/2000/svg" xmlns:xlink="http://www.w3.org/1999/xlink">
<g id="graph0" class="graph" transform="scale(1 1) rotate(0) translate(4 144)">
<title>CutHollowSphere&lt; dim &gt;</title>
<!-- Node1 -->
<g id="Node000001" class="node">
<title>Node1</title>
<g id="a_Node000001"><a xlink:title=" ">
<polygon fill="#999999" stroke="#666666" points="142,-19 0,-19 0,0 142,0 142,-19"/>
<text text-anchor="middle" x="71" y="-7" font-family="Helvetica,sans-Serif" font-size="10.00">CutHollowSphere&lt; dim &gt;</text>
</a>
</g>
</g>
<!-- Node2 -->
<g id="Node000002" class="node">
<title>Node2</title>
<g id="a_Node000002"><a xlink:href="classShape.html" target="_top" xlink:title="A base class used to represent geometrical entities. Its main uses are to return signed distance and ...">
<polygon fill="white" stroke="#666666" points="115,-74 27,-74 27,-55 115,-55 115,-74"/>
<text text-anchor="middle" x="71" y="-62" font-family="Helvetica,sans-Serif" font-size="10.00">Shape&lt; dim &gt;</text>
</a>
</g>
</g>
<!-- Node2&#45;&gt;Node1 -->
<g id="edge1_Node000001_Node000002" class="edge">
<title>Node2&#45;&gt;Node1</title>
<g id="a_edge1_Node000001_Node000002"><a xlink:title=" ">
<path fill="none" stroke="#63b8ff" d="M71,-44.66C71,-35.93 71,-25.99 71,-19.09"/>
<polygon fill="#63b8ff" stroke="#63b8ff" points="67.5,-44.75 71,-54.75 74.5,-44.75 67.5,-44.75"/>
</a>
</g>
</g>
<!-- Node3 -->
<g id="Node000003" class="node">
<title>Node3</title>
<g id="a_Node000003"><a xlink:title=" ">
<polygon fill="white" stroke="#666666" points="136.5,-140 5.5,-140 5.5,-110 136.5,-110 136.5,-140"/>
<text text-anchor="start" x="13.5" y="-128" font-family="Helvetica,sans-Serif" font-size="10.00">AutoDerivativeFunction</text>
<text text-anchor="middle" x="71" y="-117" font-family="Helvetica,sans-Serif" font-size="10.00">&lt; dim &gt;</text>
</a>
</g>
</g>
<!-- Node3&#45;&gt;Node2 -->
<g id="edge2_Node000002_Node000003" class="edge">
<title>Node3&#45;&gt;Node2</title>
<g id="a_edge2_Node000002_Node000003"><a xlink:title=" ">
<path fill="none" stroke="#63b8ff" d="M71,-99.75C71,-90.72 71,-81.03 71,-74.27"/>
<polygon fill="#63b8ff" stroke="#63b8ff" points="67.5,-99.84 71,-109.84 74.5,-99.84 67.5,-99.84"/>
</a>
</g>
</g>
</g>
</svg>
