<?xml version="1.0" encoding="UTF-8" standalone="no"?>
<!DOCTYPE svg PUBLIC "-//W3C//DTD SVG 1.1//EN"
 "http://www.w3.org/Graphics/SVG/1.1/DTD/svg11.dtd">
<!-- Generated by graphviz version 2.43.0 (0)
 -->
<!-- Title: PhysicsSolver&lt; VectorType &gt; Pages: 1 -->
<svg width="1010pt" height="503pt"
 viewBox="0.00 0.00 1010.00 502.50" xmlns="http://www.w3.org/2000/svg" xmlns:xlink="http://www.w3.org/1999/xlink">
<g id="graph0" class="graph" transform="scale(1 1) rotate(0) translate(4 498.5)">
<title>PhysicsSolver&lt; VectorType &gt;</title>
<!-- Node1 -->
<g id="Node000001" class="node">
<title>Node1</title>
<g id="a_Node000001"><a xlink:title="Contain all the common elements of a physics solver. It creates the non&#45;linear solver as specified by...">
<polygon fill="#999999" stroke="#666666" points="160,-195.5 0,-195.5 0,-176.5 160,-176.5 160,-195.5"/>
<text text-anchor="middle" x="80" y="-183.5" font-family="Helvetica,sans-Serif" font-size="10.00">PhysicsSolver&lt; VectorType &gt;</text>
</a>
</g>
</g>
<!-- Node2 -->
<g id="Node000002" class="node">
<title>Node2</title>
<g id="a_Node000002"><a xlink:href="classAuxiliaryPhysics.html" target="_top" xlink:title=" ">
<polygon fill="white" stroke="#666666" points="350.5,-414 220.5,-414 220.5,-384 350.5,-384 350.5,-414"/>
<text text-anchor="start" x="228.5" y="-402" font-family="Helvetica,sans-Serif" font-size="10.00">AuxiliaryPhysics&lt; dim,</text>
<text text-anchor="middle" x="285.5" y="-391" font-family="Helvetica,sans-Serif" font-size="10.00"> GlobalVectorType &gt;</text>
</a>
</g>
</g>
<!-- Node1&#45;&gt;Node2 -->
<g id="edge1_Node000001_Node000002" class="edge">
<title>Node1&#45;&gt;Node2</title>
<g id="a_edge1_Node000001_Node000002"><a xlink:title=" ">
<path fill="none" stroke="#63b8ff" d="M90.29,-204.74C107.4,-237.74 146.7,-306.92 196,-351 211.25,-364.63 231.04,-375.83 248.04,-383.97"/>
<polygon fill="#63b8ff" stroke="#63b8ff" points="93.36,-203.05 85.7,-195.72 87.12,-206.22 93.36,-203.05"/>
</a>
</g>
</g>
<!-- Node7 -->
<g id="Node000007" class="node">
<title>Node7</title>
<g id="a_Node000007"><a xlink:href="classNavierStokesBase.html" target="_top" xlink:title=" ">
<polygon fill="white" stroke="#666666" points="359.5,-341.5 211.5,-341.5 211.5,-300.5 359.5,-300.5 359.5,-341.5"/>
<text text-anchor="start" x="219.5" y="-329.5" font-family="Helvetica,sans-Serif" font-size="10.00">NavierStokesBase&lt; dim,</text>
<text text-anchor="start" x="219.5" y="-318.5" font-family="Helvetica,sans-Serif" font-size="10.00"> GlobalBlockVectorType,</text>
<text text-anchor="middle" x="285.5" y="-307.5" font-family="Helvetica,sans-Serif" font-size="10.00"> std::vector&lt; IndexSet &gt; &gt;</text>
</a>
</g>
</g>
<!-- Node1&#45;&gt;Node7 -->
<g id="edge6_Node000001_Node000007" class="edge">
<title>Node1&#45;&gt;Node7</title>
<g id="a_edge6_Node000001_Node000007"><a xlink:title=" ">
<path fill="none" stroke="#63b8ff" d="M95.55,-203.13C115.88,-226.09 154.95,-266.76 196,-291 201.87,-294.46 208.19,-297.6 214.66,-300.42"/>
<polygon fill="#63b8ff" stroke="#63b8ff" points="98.14,-200.78 88.94,-195.54 92.86,-205.38 98.14,-200.78"/>
</a>
</g>
</g>
<!-- Node9 -->
<g id="Node000009" class="node">
<title>Node9</title>
<g id="a_Node000009"><a xlink:href="classNavierStokesBase.html" target="_top" xlink:title=" ">
<polygon fill="white" stroke="#666666" points="367.5,-282 203.5,-282 203.5,-252 367.5,-252 367.5,-282"/>
<text text-anchor="start" x="211.5" y="-270" font-family="Helvetica,sans-Serif" font-size="10.00">NavierStokesBase&lt; dim,</text>
<text text-anchor="middle" x="285.5" y="-259" font-family="Helvetica,sans-Serif" font-size="10.00"> GlobalVectorType, IndexSet &gt;</text>
</a>
</g>
</g>
<!-- Node1&#45;&gt;Node9 -->
<g id="edge8_Node000001_Node000009" class="edge">
<title>Node1&#45;&gt;Node9</title>
<g id="a_edge8_Node000001_Node000009"><a xlink:title=" ">
<path fill="none" stroke="#63b8ff" d="M106.72,-200.57C129.61,-213.09 164.28,-230.97 196,-243 204.48,-246.22 213.58,-249.19 222.59,-251.87"/>
<polygon fill="#63b8ff" stroke="#63b8ff" points="108.12,-197.34 97.68,-195.57 104.74,-203.47 108.12,-197.34"/>
</a>
</g>
</g>
<!-- Node15 -->
<g id="Node000015" class="node">
<title>Node15</title>
<g id="a_Node000015"><a xlink:href="classNavierStokesBase.html" target="_top" xlink:title=" ">
<polygon fill="white" stroke="#666666" points="370,-233.5 201,-233.5 201,-192.5 370,-192.5 370,-233.5"/>
<text text-anchor="start" x="209" y="-221.5" font-family="Helvetica,sans-Serif" font-size="10.00">NavierStokesBase&lt; dim,</text>
<text text-anchor="start" x="209" y="-210.5" font-family="Helvetica,sans-Serif" font-size="10.00"> LinearAlgebra::distributed</text>
<text text-anchor="middle" x="285.5" y="-199.5" font-family="Helvetica,sans-Serif" font-size="10.00">::Vector&lt; double &gt;, IndexSet &gt;</text>
</a>
</g>
</g>
<!-- Node1&#45;&gt;Node15 -->
<g id="edge14_Node000001_Node000015" class="edge">
<title>Node1&#45;&gt;Node15</title>
<g id="a_edge14_Node000001_Node000015"><a xlink:title=" ">
<path fill="none" stroke="#63b8ff" d="M162.72,-196.84C175.28,-198.51 188.27,-200.23 200.88,-201.9"/>
<polygon fill="#63b8ff" stroke="#63b8ff" points="163.12,-193.36 152.75,-195.52 162.2,-200.3 163.12,-193.36"/>
</a>
</g>
</g>
<!-- Node19 -->
<g id="Node000019" class="node">
<title>Node19</title>
<g id="a_Node000019"><a xlink:href="classPhysicsNonlinearSubequationsSolver.html" target="_top" xlink:title=" ">
<polygon fill="white" stroke="#666666" points="375,-174 196,-174 196,-144 375,-144 375,-174"/>
<text text-anchor="start" x="204" y="-162" font-family="Helvetica,sans-Serif" font-size="10.00">PhysicsNonlinearSubequations</text>
<text text-anchor="middle" x="285.5" y="-151" font-family="Helvetica,sans-Serif" font-size="10.00">Solver&lt; dim, GlobalVectorType &gt;</text>
</a>
</g>
</g>
<!-- Node1&#45;&gt;Node19 -->
<g id="edge18_Node000001_Node000019" class="edge">
<title>Node1&#45;&gt;Node19</title>
<g id="a_edge18_Node000001_Node000019"><a xlink:title=" ">
<path fill="none" stroke="#63b8ff" d="M162.68,-175.16C173.62,-173.71 184.88,-172.22 195.92,-170.75"/>
<polygon fill="#63b8ff" stroke="#63b8ff" points="162.2,-171.7 152.75,-176.48 163.12,-178.64 162.2,-171.7"/>
</a>
</g>
</g>
<!-- Node21 -->
<g id="Node000021" class="node">
<title>Node21</title>
<g id="a_Node000021"><a xlink:href="classAuxiliaryPhysics.html" target="_top" xlink:title=" ">
<polygon fill="white" stroke="#666666" points="350.5,-126 220.5,-126 220.5,-96 350.5,-96 350.5,-126"/>
<text text-anchor="start" x="228.5" y="-114" font-family="Helvetica,sans-Serif" font-size="10.00">AuxiliaryPhysics&lt; dim,</text>
<text text-anchor="middle" x="285.5" y="-103" font-family="Helvetica,sans-Serif" font-size="10.00"> VectorType &gt;</text>
</a>
</g>
</g>
<!-- Node1&#45;&gt;Node21 -->
<g id="edge20_Node000001_Node000021" class="edge">
<title>Node1&#45;&gt;Node21</title>
<g id="a_edge20_Node000001_Node000021"><a xlink:title=" ">
<path fill="none" stroke="#63b8ff" d="M109.34,-171.98C132.32,-160.96 165.74,-145.74 196,-135 205,-131.8 214.64,-128.79 224.13,-126.04"/>
<polygon fill="#63b8ff" stroke="#63b8ff" points="107.64,-168.91 100.17,-176.42 110.69,-175.21 107.64,-168.91"/>
</a>
</g>
</g>
<!-- Node23 -->
<g id="Node000023" class="node">
<title>Node23</title>
<g id="a_Node000023"><a xlink:href="classNavierStokesBase.html" target="_top" xlink:title=" ">
<polygon fill="white" stroke="#666666" points="354.5,-78 216.5,-78 216.5,-48 354.5,-48 354.5,-78"/>
<text text-anchor="start" x="224.5" y="-66" font-family="Helvetica,sans-Serif" font-size="10.00">NavierStokesBase&lt; dim,</text>
<text text-anchor="middle" x="285.5" y="-55" font-family="Helvetica,sans-Serif" font-size="10.00"> VectorType, DofsType &gt;</text>
</a>
</g>
</g>
<!-- Node1&#45;&gt;Node23 -->
<g id="edge22_Node000001_Node000023" class="edge">
<title>Node1&#45;&gt;Node23</title>
<g id="a_edge22_Node000001_Node000023"><a xlink:title=" ">
<path fill="none" stroke="#63b8ff" d="M96.45,-168.57C117.02,-146.41 155.55,-108.46 196,-87 202.47,-83.57 209.47,-80.59 216.6,-78.03"/>
<polygon fill="#63b8ff" stroke="#63b8ff" points="93.62,-166.47 89.47,-176.22 98.8,-171.19 93.62,-166.47"/>
</a>
</g>
</g>
<!-- Node24 -->
<g id="Node000024" class="node">
<title>Node24</title>
<g id="a_Node000024"><a xlink:href="classPhysicsNonlinearSubequationsSolver.html" target="_top" xlink:title="Non&#45;linear subequations solved inside a physics (or auxiliary physics) that are not part of the main ...">
<polygon fill="white" stroke="#666666" points="369,-30 202,-30 202,0 369,0 369,-30"/>
<text text-anchor="start" x="210" y="-18" font-family="Helvetica,sans-Serif" font-size="10.00">PhysicsNonlinearSubequations</text>
<text text-anchor="middle" x="285.5" y="-7" font-family="Helvetica,sans-Serif" font-size="10.00">Solver&lt; dim, VectorType &gt;</text>
</a>
</g>
</g>
<!-- Node1&#45;&gt;Node24 -->
<g id="edge23_Node000001_Node000024" class="edge">
<title>Node1&#45;&gt;Node24</title>
<g id="a_edge23_Node000001_Node000024"><a xlink:title=" ">
<path fill="none" stroke="#63b8ff" d="M90.37,-167.37C107.14,-135.96 145.33,-72.63 196,-39 201.17,-35.57 206.82,-32.62 212.69,-30.1"/>
<polygon fill="#63b8ff" stroke="#63b8ff" points="87.2,-165.88 85.69,-176.36 93.41,-169.11 87.2,-165.88"/>
</a>
</g>
</g>
<!-- Node3 -->
<g id="Node000003" class="node">
<title>Node3</title>
<g id="a_Node000003"><a xlink:href="classCahnHilliard.html" target="_top" xlink:title=" ">
<polygon fill="white" stroke="#666666" points="569,-494.5 451,-494.5 451,-475.5 569,-475.5 569,-494.5"/>
<text text-anchor="middle" x="510" y="-482.5" font-family="Helvetica,sans-Serif" font-size="10.00">CahnHilliard&lt; dim &gt;</text>
</a>
</g>
</g>
<!-- Node2&#45;&gt;Node3 -->
<g id="edge2_Node000002_Node000003" class="edge">
<title>Node2&#45;&gt;Node3</title>
<g id="a_edge2_Node000002_Node000003"><a xlink:title=" ">
<path fill="none" stroke="#63b8ff" d="M317.88,-419.35C342.34,-434.33 377.64,-454.1 411,-466 423.65,-470.51 437.62,-474.03 450.96,-476.75"/>
<polygon fill="#63b8ff" stroke="#63b8ff" points="319.72,-416.37 309.38,-414.06 316.03,-422.32 319.72,-416.37"/>
</a>
</g>
</g>
<!-- Node4 -->
<g id="Node000004" class="node">
<title>Node4</title>
<g id="a_Node000004"><a xlink:href="classConservativeLevelSet.html" target="_top" xlink:title=" ">
<polygon fill="white" stroke="#666666" points="571.5,-457 448.5,-457 448.5,-427 571.5,-427 571.5,-457"/>
<text text-anchor="start" x="456.5" y="-445" font-family="Helvetica,sans-Serif" font-size="10.00">ConservativeLevelSet</text>
<text text-anchor="middle" x="510" y="-434" font-family="Helvetica,sans-Serif" font-size="10.00">&lt; dim &gt;</text>
</a>
</g>
</g>
<!-- Node2&#45;&gt;Node4 -->
<g id="edge3_Node000002_Node000004" class="edge">
<title>Node2&#45;&gt;Node4</title>
<g id="a_edge3_Node000002_Node000004"><a xlink:title=" ">
<path fill="none" stroke="#63b8ff" d="M360.49,-413.3C389.05,-418.82 421.31,-425.05 448.45,-430.3"/>
<polygon fill="#63b8ff" stroke="#63b8ff" points="361.04,-409.84 350.56,-411.38 359.71,-416.71 361.04,-409.84"/>
</a>
</g>
</g>
<!-- Node5 -->
<g id="Node000005" class="node">
<title>Node5</title>
<g id="a_Node000005"><a xlink:href="classHeatTransfer.html" target="_top" xlink:title="Implementation of heat transfer as an auxiliary physics. The heat equation is weakly coupled to the v...">
<polygon fill="white" stroke="#666666" points="570,-408.5 450,-408.5 450,-389.5 570,-389.5 570,-408.5"/>
<text text-anchor="middle" x="510" y="-396.5" font-family="Helvetica,sans-Serif" font-size="10.00">HeatTransfer&lt; dim &gt;</text>
</a>
</g>
</g>
<!-- Node2&#45;&gt;Node5 -->
<g id="edge4_Node000002_Node000005" class="edge">
<title>Node2&#45;&gt;Node5</title>
<g id="a_edge4_Node000002_Node000005"><a xlink:title=" ">
<path fill="none" stroke="#63b8ff" d="M360.66,-399C389.71,-399 422.57,-399 449.96,-399"/>
<polygon fill="#63b8ff" stroke="#63b8ff" points="360.56,-395.5 350.56,-399 360.56,-402.5 360.56,-395.5"/>
</a>
</g>
</g>
<!-- Node6 -->
<g id="Node000006" class="node">
<title>Node6</title>
<g id="a_Node000006"><a xlink:href="classTracer.html" target="_top" xlink:title=" ">
<polygon fill="white" stroke="#666666" points="553.5,-371.5 466.5,-371.5 466.5,-352.5 553.5,-352.5 553.5,-371.5"/>
<text text-anchor="middle" x="510" y="-359.5" font-family="Helvetica,sans-Serif" font-size="10.00">Tracer&lt; dim &gt;</text>
</a>
</g>
</g>
<!-- Node2&#45;&gt;Node6 -->
<g id="edge5_Node000002_Node000006" class="edge">
<title>Node2&#45;&gt;Node6</title>
<g id="a_edge5_Node000002_Node000006"><a xlink:title=" ">
<path fill="none" stroke="#63b8ff" d="M360.79,-386.65C395.93,-380.8 436.62,-374.04 466.47,-369.07"/>
<polygon fill="#63b8ff" stroke="#63b8ff" points="359.85,-383.25 350.56,-388.35 361,-390.16 359.85,-383.25"/>
</a>
</g>
</g>
<!-- Node8 -->
<g id="Node000008" class="node">
<title>Node8</title>
<g id="a_Node000008"><a xlink:href="classFluidDynamicsBlock.html" target="_top" xlink:title=" ">
<polygon fill="white" stroke="#666666" points="568,-334 452,-334 452,-304 568,-304 568,-334"/>
<text text-anchor="start" x="460" y="-322" font-family="Helvetica,sans-Serif" font-size="10.00">FluidDynamicsBlock</text>
<text text-anchor="middle" x="510" y="-311" font-family="Helvetica,sans-Serif" font-size="10.00">&lt; dim &gt;</text>
</a>
</g>
</g>
<!-- Node7&#45;&gt;Node8 -->
<g id="edge7_Node000007_Node000008" class="edge">
<title>Node7&#45;&gt;Node8</title>
<g id="a_edge7_Node000007_Node000008"><a xlink:title=" ">
<path fill="none" stroke="#63b8ff" d="M369.97,-320.25C397.2,-320 426.8,-319.74 451.66,-319.52"/>
<polygon fill="#63b8ff" stroke="#63b8ff" points="369.63,-316.75 359.66,-320.34 369.69,-323.75 369.63,-316.75"/>
</a>
</g>
</g>
<!-- Node10 -->
<g id="Node000010" class="node">
<title>Node10</title>
<g id="a_Node000010"><a xlink:href="classFluidDynamicsMatrixBased.html" target="_top" xlink:title="A solver class for the Navier&#45;Stokes equation using GLS stabilization.">
<polygon fill="white" stroke="#666666" points="585.5,-283 434.5,-283 434.5,-253 585.5,-253 585.5,-283"/>
<text text-anchor="start" x="442.5" y="-271" font-family="Helvetica,sans-Serif" font-size="10.00">FluidDynamicsMatrixBased</text>
<text text-anchor="middle" x="510" y="-260" font-family="Helvetica,sans-Serif" font-size="10.00">&lt; dim &gt;</text>
</a>
</g>
</g>
<!-- Node9&#45;&gt;Node10 -->
<g id="edge9_Node000009_Node000010" class="edge">
<title>Node9&#45;&gt;Node10</title>
<g id="a_edge9_Node000009_Node000010"><a xlink:title=" ">
<path fill="none" stroke="#63b8ff" d="M377.8,-267.41C396.57,-267.49 416.12,-267.58 434.23,-267.66"/>
<polygon fill="#63b8ff" stroke="#63b8ff" points="377.79,-263.91 367.77,-267.37 377.76,-270.91 377.79,-263.91"/>
</a>
</g>
</g>
<!-- Node11 -->
<g id="Node000011" class="node">
<title>Node11</title>
<g id="a_Node000011"><a xlink:href="classFluidDynamicsNitsche.html" target="_top" xlink:title=" ">
<polygon fill="white" stroke="#666666" points="792,-350 666,-350 666,-320 792,-320 792,-350"/>
<text text-anchor="start" x="674" y="-338" font-family="Helvetica,sans-Serif" font-size="10.00">FluidDynamicsNitsche</text>
<text text-anchor="middle" x="729" y="-327" font-family="Helvetica,sans-Serif" font-size="10.00">&lt; dim, spacedim &gt;</text>
</a>
</g>
</g>
<!-- Node10&#45;&gt;Node11 -->
<g id="edge10_Node000010_Node000011" class="edge">
<title>Node10&#45;&gt;Node11</title>
<g id="a_edge10_Node000010_Node000011"><a xlink:title=" ">
<path fill="none" stroke="#63b8ff" d="M580.9,-285.88C590.42,-288.71 600,-291.78 609,-295 625.49,-300.9 628.55,-305 645,-311 653.6,-314.14 662.81,-317.14 671.85,-319.9"/>
<polygon fill="#63b8ff" stroke="#63b8ff" points="581.62,-282.44 571.04,-283.01 579.67,-289.17 581.62,-282.44"/>
</a>
</g>
</g>
<!-- Node12 -->
<g id="Node000012" class="node">
<title>Node12</title>
<g id="a_Node000012"><a xlink:href="classFluidDynamicsSharp.html" target="_top" xlink:title=" ">
<polygon fill="white" stroke="#666666" points="787.5,-302 670.5,-302 670.5,-272 787.5,-272 787.5,-302"/>
<text text-anchor="start" x="678.5" y="-290" font-family="Helvetica,sans-Serif" font-size="10.00">FluidDynamicsSharp</text>
<text text-anchor="middle" x="729" y="-279" font-family="Helvetica,sans-Serif" font-size="10.00">&lt; dim &gt;</text>
</a>
</g>
</g>
<!-- Node10&#45;&gt;Node12 -->
<g id="edge11_Node000010_Node000012" class="edge">
<title>Node10&#45;&gt;Node12</title>
<g id="a_edge11_Node000010_Node000012"><a xlink:title=" ">
<path fill="none" stroke="#63b8ff" d="M595.87,-275.43C620.81,-277.62 647.51,-279.95 670.32,-281.95"/>
<polygon fill="#63b8ff" stroke="#63b8ff" points="595.95,-271.92 585.68,-274.54 595.34,-278.9 595.95,-271.92"/>
</a>
</g>
</g>
<!-- Node13 -->
<g id="Node000013" class="node">
<title>Node13</title>
<g id="a_Node000013"><a xlink:href="classFluidDynamicsVANS.html" target="_top" xlink:title="Solver class for Volume&#45;Averaged Navier&#45;Stokes (VANS) equations with GLS stabilization.">
<polygon fill="white" stroke="#666666" points="791,-254 667,-254 667,-224 791,-224 791,-254"/>
<text text-anchor="start" x="675" y="-242" font-family="Helvetica,sans-Serif" font-size="10.00">FluidDynamicsVANS&lt;</text>
<text text-anchor="middle" x="729" y="-231" font-family="Helvetica,sans-Serif" font-size="10.00"> dim &gt;</text>
</a>
</g>
</g>
<!-- Node10&#45;&gt;Node13 -->
<g id="edge12_Node000010_Node000013" class="edge">
<title>Node10&#45;&gt;Node13</title>
<g id="a_edge12_Node000010_Node000013"><a xlink:title=" ">
<path fill="none" stroke="#63b8ff" d="M595.74,-256.68C619.46,-253.51 644.78,-250.12 666.85,-247.17"/>
<polygon fill="#63b8ff" stroke="#63b8ff" points="595.13,-253.23 585.68,-258.02 596.05,-260.16 595.13,-253.23"/>
</a>
</g>
</g>
<!-- Node14 -->
<g id="Node000014" class="node">
<title>Node14</title>
<g id="a_Node000014"><a xlink:href="classCFDDEMSolver.html" target="_top" xlink:title="Solver class for coupled Computational Fluid Dynamics and Discrete Element Method (CFD&#45;DEM) simulatio...">
<polygon fill="white" stroke="#666666" points="991,-248.5 860,-248.5 860,-229.5 991,-229.5 991,-248.5"/>
<text text-anchor="middle" x="925.5" y="-236.5" font-family="Helvetica,sans-Serif" font-size="10.00">CFDDEMSolver&lt; dim &gt;</text>
</a>
</g>
</g>
<!-- Node13&#45;&gt;Node14 -->
<g id="edge13_Node000013_Node000014" class="edge">
<title>Node13&#45;&gt;Node14</title>
<g id="a_edge13_Node000013_Node000014"><a xlink:title=" ">
<path fill="none" stroke="#63b8ff" d="M801.17,-239C820.3,-239 840.9,-239 859.67,-239"/>
<polygon fill="#63b8ff" stroke="#63b8ff" points="801.01,-235.5 791.01,-239 801.01,-242.5 801.01,-235.5"/>
</a>
</g>
</g>
<!-- Node16 -->
<g id="Node000016" class="node">
<title>Node16</title>
<g id="a_Node000016"><a xlink:href="classFluidDynamicsMatrixFree.html" target="_top" xlink:title="A solver for the incompressible Navier&#45;Stokes equations implemented in a matrix&#45;free fashion.">
<polygon fill="white" stroke="#666666" points="581,-225 439,-225 439,-195 581,-195 581,-225"/>
<text text-anchor="start" x="447" y="-213" font-family="Helvetica,sans-Serif" font-size="10.00">FluidDynamicsMatrixFree</text>
<text text-anchor="middle" x="510" y="-202" font-family="Helvetica,sans-Serif" font-size="10.00">&lt; dim &gt;</text>
</a>
</g>
</g>
<!-- Node15&#45;&gt;Node16 -->
<g id="edge15_Node000015_Node000016" class="edge">
<title>Node15&#45;&gt;Node16</title>
<g id="a_edge15_Node000015_Node000016"><a xlink:title=" ">
<path fill="none" stroke="#63b8ff" d="M380.43,-211.73C399.96,-211.47 420.22,-211.2 438.72,-210.95"/>
<polygon fill="#63b8ff" stroke="#63b8ff" points="380.25,-208.24 370.3,-211.87 380.35,-215.23 380.25,-208.24"/>
</a>
</g>
</g>
<!-- Node17 -->
<g id="Node000017" class="node">
<title>Node17</title>
<g id="a_Node000017"><a xlink:href="classFluidDynamicsVANSMatrixFree.html" target="_top" xlink:title="A solver for the Volume&#45;Averaged incompressible Navier&#45;Stokes equations implemented in a matrix&#45;free ...">
<polygon fill="white" stroke="#666666" points="813,-206 645,-206 645,-176 813,-176 813,-206"/>
<text text-anchor="start" x="653" y="-194" font-family="Helvetica,sans-Serif" font-size="10.00">FluidDynamicsVANSMatrixFree</text>
<text text-anchor="middle" x="729" y="-183" font-family="Helvetica,sans-Serif" font-size="10.00">&lt; dim &gt;</text>
</a>
</g>
</g>
<!-- Node16&#45;&gt;Node17 -->
<g id="edge16_Node000016_Node000017" class="edge">
<title>Node16&#45;&gt;Node17</title>
<g id="a_edge16_Node000016_Node000017"><a xlink:title=" ">
<path fill="none" stroke="#63b8ff" d="M591.3,-202.97C608.76,-201.44 627.27,-199.82 644.85,-198.28"/>
<polygon fill="#63b8ff" stroke="#63b8ff" points="590.81,-199.5 581.15,-203.86 591.42,-206.47 590.81,-199.5"/>
</a>
</g>
</g>
<!-- Node18 -->
<g id="Node000018" class="node">
<title>Node18</title>
<g id="a_Node000018"><a xlink:href="classCFDDEMMatrixFree.html" target="_top" xlink:title="Solver class for coupled Computational Fluid Dynamics and Discrete Element Method (CFD&#45;DEM) simulatio...">
<polygon fill="white" stroke="#666666" points="1002,-200.5 849,-200.5 849,-181.5 1002,-181.5 1002,-200.5"/>
<text text-anchor="middle" x="925.5" y="-188.5" font-family="Helvetica,sans-Serif" font-size="10.00">CFDDEMMatrixFree&lt; dim &gt;</text>
</a>
</g>
</g>
<!-- Node17&#45;&gt;Node18 -->
<g id="edge17_Node000017_Node000018" class="edge">
<title>Node17&#45;&gt;Node18</title>
<g id="a_edge17_Node000017_Node000018"><a xlink:title=" ">
<path fill="none" stroke="#63b8ff" d="M823.12,-191C831.73,-191 840.38,-191 848.81,-191"/>
<polygon fill="#63b8ff" stroke="#63b8ff" points="823.05,-187.5 813.05,-191 823.05,-194.5 823.05,-187.5"/>
</a>
</g>
</g>
<!-- Node20 -->
<g id="Node000020" class="node">
<title>Node20</title>
<g id="a_Node000020"><a xlink:href="classCLSAlgebraicInterfaceReinitialization.html" target="_top" xlink:title="CLS algebraic reinitialization solver.">
<polygon fill="white" stroke="#666666" points="609,-174 411,-174 411,-144 609,-144 609,-174"/>
<text text-anchor="start" x="419" y="-162" font-family="Helvetica,sans-Serif" font-size="10.00">CLSAlgebraicInterfaceReinitialization</text>
<text text-anchor="middle" x="510" y="-151" font-family="Helvetica,sans-Serif" font-size="10.00">&lt; dim &gt;</text>
</a>
</g>
</g>
<!-- Node19&#45;&gt;Node20 -->
<g id="edge19_Node000019_Node000020" class="edge">
<title>Node19&#45;&gt;Node20</title>
<g id="a_edge19_Node000019_Node000020"><a xlink:title=" ">
<path fill="none" stroke="#63b8ff" d="M385.35,-159C393.82,-159 402.38,-159 410.85,-159"/>
<polygon fill="#63b8ff" stroke="#63b8ff" points="385.08,-155.5 375.08,-159 385.08,-162.5 385.08,-155.5"/>
</a>
</g>
</g>
<!-- Node22 -->
<g id="Node000022" class="node">
<title>Node22</title>
<g id="a_Node000022"><a xlink:href="classTimeHarmonicMaxwell.html" target="_top" xlink:title=" ">
<polygon fill="white" stroke="#666666" points="575,-126 445,-126 445,-96 575,-96 575,-126"/>
<text text-anchor="start" x="453" y="-114" font-family="Helvetica,sans-Serif" font-size="10.00">TimeHarmonicMaxwell</text>
<text text-anchor="middle" x="510" y="-103" font-family="Helvetica,sans-Serif" font-size="10.00">&lt; dim &gt;</text>
</a>
</g>
</g>
<!-- Node21&#45;&gt;Node22 -->
<g id="edge21_Node000021_Node000022" class="edge">
<title>Node21&#45;&gt;Node22</title>
<g id="a_edge21_Node000021_Node000022"><a xlink:title=" ">
<path fill="none" stroke="#63b8ff" d="M360.79,-111C387.94,-111 418.41,-111 444.62,-111"/>
<polygon fill="#63b8ff" stroke="#63b8ff" points="360.56,-107.5 350.56,-111 360.56,-114.5 360.56,-107.5"/>
</a>
</g>
</g>
</g>
</svg>
