<?xml version="1.0" encoding="UTF-8" standalone="no"?>
<!DOCTYPE svg PUBLIC "-//W3C//DTD SVG 1.1//EN"
 "http://www.w3.org/Graphics/SVG/1.1/DTD/svg11.dtd">
<!-- Generated by graphviz version 2.43.0 (0)
 -->
<!-- Title: BoundaryConditions::BoundaryConditions Pages: 1 -->
<svg width="347pt" height="344pt"
 viewBox="0.00 0.00 347.00 344.00" xmlns="http://www.w3.org/2000/svg" xmlns:xlink="http://www.w3.org/1999/xlink">
<g id="graph0" class="graph" transform="scale(1 1) rotate(0) translate(4 340)">
<title>BoundaryConditions::BoundaryConditions</title>
<!-- Node1 -->
<g id="Node000001" class="node">
<title>Node1</title>
<g id="a_Node000001"><a xlink:title="This class is the base class for all boundary conditions. It stores the general information that all ...">
<polygon fill="#999999" stroke="#666666" points="121,-182.5 0,-182.5 0,-152.5 121,-152.5 121,-182.5"/>
<text text-anchor="start" x="8" y="-170.5" font-family="Helvetica,sans-Serif" font-size="10.00">BoundaryConditions</text>
<text text-anchor="middle" x="60.5" y="-159.5" font-family="Helvetica,sans-Serif" font-size="10.00">::BoundaryConditions</text>
</a>
</g>
</g>
<!-- Node2 -->
<g id="Node000002" class="node">
<title>Node2</title>
<g id="a_Node000002"><a xlink:href="classBoundaryConditions_1_1CLSBoundaryConditions.html" target="_top" xlink:title="This class manages the boundary conditions for CLS solver It introduces the boundary functions and de...">
<polygon fill="white" stroke="#666666" points="317.5,-336 178.5,-336 178.5,-295 317.5,-295 317.5,-336"/>
<text text-anchor="start" x="186.5" y="-324" font-family="Helvetica,sans-Serif" font-size="10.00">BoundaryConditions</text>
<text text-anchor="start" x="186.5" y="-313" font-family="Helvetica,sans-Serif" font-size="10.00">::CLSBoundaryConditions</text>
<text text-anchor="middle" x="248" y="-302" font-family="Helvetica,sans-Serif" font-size="10.00">&lt; dim &gt;</text>
</a>
</g>
</g>
<!-- Node1&#45;&gt;Node2 -->
<g id="edge1_Node000001_Node000002" class="edge">
<title>Node1&#45;&gt;Node2</title>
<g id="a_edge1_Node000001_Node000002"><a xlink:title=" ">
<path fill="none" stroke="#63b8ff" d="M74.81,-191.42C90.93,-218.27 120.51,-261.37 157,-286.5 163.49,-290.97 170.71,-294.78 178.16,-298.03"/>
<polygon fill="#63b8ff" stroke="#63b8ff" points="77.75,-189.51 69.68,-182.65 71.71,-193.05 77.75,-189.51"/>
</a>
</g>
</g>
<!-- Node3 -->
<g id="Node000003" class="node">
<title>Node3</title>
<g id="a_Node000003"><a xlink:href="classBoundaryConditions_1_1CahnHilliardBoundaryConditions.html" target="_top" xlink:title="This class manages the boundary conditions for the Cahn&#45;Hilliard solver It introduces the boundary fu...">
<polygon fill="white" stroke="#666666" points="338.5,-277 157.5,-277 157.5,-236 338.5,-236 338.5,-277"/>
<text text-anchor="start" x="165.5" y="-265" font-family="Helvetica,sans-Serif" font-size="10.00">BoundaryConditions</text>
<text text-anchor="start" x="165.5" y="-254" font-family="Helvetica,sans-Serif" font-size="10.00">::CahnHilliardBoundaryConditions</text>
<text text-anchor="middle" x="248" y="-243" font-family="Helvetica,sans-Serif" font-size="10.00">&lt; dim &gt;</text>
</a>
</g>
</g>
<!-- Node1&#45;&gt;Node3 -->
<g id="edge2_Node000001_Node000003" class="edge">
<title>Node1&#45;&gt;Node3</title>
<g id="a_edge2_Node000001_Node000003"><a xlink:title=" ">
<path fill="none" stroke="#63b8ff" d="M90.74,-188.55C109.11,-201.09 133.67,-216.62 157,-227.5 163.4,-230.48 170.19,-233.28 177.05,-235.88"/>
<polygon fill="#63b8ff" stroke="#63b8ff" points="92.47,-185.49 82.25,-182.67 88.48,-191.25 92.47,-185.49"/>
</a>
</g>
</g>
<!-- Node4 -->
<g id="Node000004" class="node">
<title>Node4</title>
<g id="a_Node000004"><a xlink:href="classBoundaryConditions_1_1HTBoundaryConditions.html" target="_top" xlink:title="This class manages the boundary conditions for Heat&#45;Transfer solver It introduces the boundary functi...">
<polygon fill="white" stroke="#666666" points="315,-218 181,-218 181,-177 315,-177 315,-218"/>
<text text-anchor="start" x="189" y="-206" font-family="Helvetica,sans-Serif" font-size="10.00">BoundaryConditions</text>
<text text-anchor="start" x="189" y="-195" font-family="Helvetica,sans-Serif" font-size="10.00">::HTBoundaryConditions</text>
<text text-anchor="middle" x="248" y="-184" font-family="Helvetica,sans-Serif" font-size="10.00">&lt; dim &gt;</text>
</a>
</g>
</g>
<!-- Node1&#45;&gt;Node4 -->
<g id="edge3_Node000001_Node000004" class="edge">
<title>Node1&#45;&gt;Node4</title>
<g id="a_edge3_Node000001_Node000004"><a xlink:title=" ">
<path fill="none" stroke="#63b8ff" d="M131.21,-178.77C147.52,-181.41 164.83,-184.21 180.97,-186.82"/>
<polygon fill="#63b8ff" stroke="#63b8ff" points="131.64,-175.3 121.21,-177.16 130.53,-182.21 131.64,-175.3"/>
</a>
</g>
</g>
<!-- Node5 -->
<g id="Node000005" class="node">
<title>Node5</title>
<g id="a_Node000005"><a xlink:href="classBoundaryConditions_1_1NSBoundaryConditions.html" target="_top" xlink:title="This class manages the boundary conditions for Navier&#45;Stokes solver It introduces the boundary functi...">
<polygon fill="white" stroke="#666666" points="315,-159 181,-159 181,-118 315,-118 315,-159"/>
<text text-anchor="start" x="189" y="-147" font-family="Helvetica,sans-Serif" font-size="10.00">BoundaryConditions</text>
<text text-anchor="start" x="189" y="-136" font-family="Helvetica,sans-Serif" font-size="10.00">::NSBoundaryConditions</text>
<text text-anchor="middle" x="248" y="-125" font-family="Helvetica,sans-Serif" font-size="10.00">&lt; dim &gt;</text>
</a>
</g>
</g>
<!-- Node1&#45;&gt;Node5 -->
<g id="edge4_Node000001_Node000005" class="edge">
<title>Node1&#45;&gt;Node5</title>
<g id="a_edge4_Node000001_Node000005"><a xlink:title=" ">
<path fill="none" stroke="#63b8ff" d="M131.21,-156.6C147.52,-154.05 164.83,-151.35 180.97,-148.82"/>
<polygon fill="#63b8ff" stroke="#63b8ff" points="130.55,-153.16 121.21,-158.16 131.64,-160.08 130.55,-153.16"/>
</a>
</g>
</g>
<!-- Node6 -->
<g id="Node000006" class="node">
<title>Node6</title>
<g id="a_Node000006"><a xlink:href="classBoundaryConditions_1_1TimeHarmonicMaxwellBoundaryConditions.html" target="_top" xlink:title="This class manages the boundary conditions for Time Harmonic Maxwell solver. It introduces the bounda...">
<polygon fill="white" stroke="#666666" points="339,-100 157,-100 157,-59 339,-59 339,-100"/>
<text text-anchor="start" x="165" y="-88" font-family="Helvetica,sans-Serif" font-size="10.00">BoundaryConditions</text>
<text text-anchor="start" x="165" y="-77" font-family="Helvetica,sans-Serif" font-size="10.00">::TimeHarmonicMaxwellBoundary</text>
<text text-anchor="middle" x="248" y="-66" font-family="Helvetica,sans-Serif" font-size="10.00">Conditions&lt; dim &gt;</text>
</a>
</g>
</g>
<!-- Node1&#45;&gt;Node6 -->
<g id="edge5_Node000001_Node000006" class="edge">
<title>Node1&#45;&gt;Node6</title>
<g id="a_edge5_Node000001_Node000006"><a xlink:title=" ">
<path fill="none" stroke="#63b8ff" d="M91.6,-146.82C109.94,-134.84 134.16,-120.08 157,-109.5 164.17,-106.18 171.82,-103.05 179.51,-100.15"/>
<polygon fill="#63b8ff" stroke="#63b8ff" points="89.51,-144 83.1,-152.45 93.37,-149.84 89.51,-144"/>
</a>
</g>
</g>
<!-- Node7 -->
<g id="Node000007" class="node">
<title>Node7</title>
<g id="a_Node000007"><a xlink:href="classBoundaryConditions_1_1TracerBoundaryConditions.html" target="_top" xlink:title="This class manages the boundary conditions for Tracer solver It introduces the boundary functions and...">
<polygon fill="white" stroke="#666666" points="323,-41 173,-41 173,0 323,0 323,-41"/>
<text text-anchor="start" x="181" y="-29" font-family="Helvetica,sans-Serif" font-size="10.00">BoundaryConditions</text>
<text text-anchor="start" x="181" y="-18" font-family="Helvetica,sans-Serif" font-size="10.00">::TracerBoundaryConditions</text>
<text text-anchor="middle" x="248" y="-7" font-family="Helvetica,sans-Serif" font-size="10.00">&lt; dim &gt;</text>
</a>
</g>
</g>
<!-- Node1&#45;&gt;Node7 -->
<g id="edge6_Node000001_Node000007" class="edge">
<title>Node1&#45;&gt;Node7</title>
<g id="a_edge6_Node000001_Node000007"><a xlink:title=" ">
<path fill="none" stroke="#63b8ff" d="M75.21,-143.63C91.52,-117.27 121.09,-75.28 157,-50.5 162.02,-47.04 167.46,-43.95 173.11,-41.2"/>
<polygon fill="#63b8ff" stroke="#63b8ff" points="72.18,-141.88 70.01,-152.25 78.18,-145.5 72.18,-141.88"/>
</a>
</g>
</g>
</g>
</svg>
