<?xml version="1.0" encoding="UTF-8" standalone="no"?>
<!DOCTYPE svg PUBLIC "-//W3C//DTD SVG 1.1//EN"
 "http://www.w3.org/Graphics/SVG/1.1/DTD/svg11.dtd">
<!-- Generated by graphviz version 2.43.0 (0)
 -->
<!-- Title: NavierStokesNonNewtonianStabilizedOperator&lt; dim, number &gt; Pages: 1 -->
<svg width="161pt" height="170pt"
 viewBox="0.00 0.00 161.00 170.00" xmlns="http://www.w3.org/2000/svg" xmlns:xlink="http://www.w3.org/1999/xlink">
<g id="graph0" class="graph" transform="scale(1 1) rotate(0) translate(4 166)">
<title>NavierStokesNonNewtonianStabilizedOperator&lt; dim, number &gt;</title>
<!-- Node1 -->
<g id="Node000001" class="node">
<title>Node1</title>
<g id="a_Node000001"><a xlink:title="Implements the matrix&#45;free operator to solve steady/transient non&#45;Newtonian Navier&#45;Stokes equations u...">
<polygon fill="#999999" stroke="#666666" points="153,-41 0,-41 0,0 153,0 153,-41"/>
<text text-anchor="start" x="8" y="-29" font-family="Helvetica,sans-Serif" font-size="10.00">NavierStokesNonNewtonian</text>
<text text-anchor="start" x="8" y="-18" font-family="Helvetica,sans-Serif" font-size="10.00">StabilizedOperator&lt; dim,</text>
<text text-anchor="middle" x="76.5" y="-7" font-family="Helvetica,sans-Serif" font-size="10.00"> number &gt;</text>
</a>
</g>
</g>
<!-- Node2 -->
<g id="Node000002" class="node">
<title>Node2</title>
<g id="a_Node000002"><a xlink:href="classNavierStokesOperatorBase.html" target="_top" xlink:title="A class that serves as base for all the matrix&#45;free Navier&#45;Stokes operators.">
<polygon fill="white" stroke="#666666" points="150.5,-107 2.5,-107 2.5,-77 150.5,-77 150.5,-107"/>
<text text-anchor="start" x="10.5" y="-95" font-family="Helvetica,sans-Serif" font-size="10.00">NavierStokesOperatorBase</text>
<text text-anchor="middle" x="76.5" y="-84" font-family="Helvetica,sans-Serif" font-size="10.00">&lt; dim, number &gt;</text>
</a>
</g>
</g>
<!-- Node2&#45;&gt;Node1 -->
<g id="edge1_Node000001_Node000002" class="edge">
<title>Node2&#45;&gt;Node1</title>
<g id="a_edge1_Node000001_Node000002"><a xlink:title=" ">
<path fill="none" stroke="#63b8ff" d="M76.5,-66.91C76.5,-58.47 76.5,-49.1 76.5,-41.07"/>
<polygon fill="#63b8ff" stroke="#63b8ff" points="73,-66.94 76.5,-76.94 80,-66.94 73,-66.94"/>
</a>
</g>
</g>
<!-- Node3 -->
<g id="Node000003" class="node">
<title>Node3</title>
<g id="a_Node000003"><a xlink:title=" ">
<polygon fill="white" stroke="#666666" points="140.5,-162 12.5,-162 12.5,-143 140.5,-143 140.5,-162"/>
<text text-anchor="middle" x="76.5" y="-150" font-family="Helvetica,sans-Serif" font-size="10.00">EnableObserverPointer</text>
</a>
</g>
</g>
<!-- Node3&#45;&gt;Node2 -->
<g id="edge2_Node000002_Node000003" class="edge">
<title>Node3&#45;&gt;Node2</title>
<g id="a_edge2_Node000002_Node000003"><a xlink:title=" ">
<path fill="none" stroke="#63b8ff" d="M76.5,-132.65C76.5,-124.36 76.5,-114.78 76.5,-107.11"/>
<polygon fill="#63b8ff" stroke="#63b8ff" points="73,-132.87 76.5,-142.87 80,-132.87 73,-132.87"/>
</a>
</g>
</g>
</g>
</svg>
