<?xml version="1.0" encoding="UTF-8" standalone="no"?>
<!DOCTYPE svg PUBLIC "-//W3C//DTD SVG 1.1//EN"
 "http://www.w3.org/Graphics/SVG/1.1/DTD/svg11.dtd">
<!-- Generated by graphviz version 2.43.0 (0)
 -->
<!-- Title: VolumeOfFluidFilterBase Pages: 1 -->
<svg width="290pt" height="82pt"
 viewBox="0.00 0.00 289.50 82.00" xmlns="http://www.w3.org/2000/svg" xmlns:xlink="http://www.w3.org/1999/xlink">
<g id="graph0" class="graph" transform="scale(1 1) rotate(0) translate(4 78)">
<title>VolumeOfFluidFilterBase</title>
<!-- Node1 -->
<g id="Node000001" class="node">
<title>Node1</title>
<g id="a_Node000001"><a xlink:title="Abstract class for filtering phase fraction in volume of fluid (VOF) simulations.">
<polygon fill="#999999" stroke="#666666" points="207,-74 70,-74 70,-55 207,-55 207,-74"/>
<text text-anchor="middle" x="138.5" y="-62" font-family="Helvetica,sans-Serif" font-size="10.00">VolumeOfFluidFilterBase</text>
</a>
</g>
</g>
<!-- Node2 -->
<g id="Node000002" class="node">
<title>Node2</title>
<g id="a_Node000002"><a xlink:href="classVolumeOfFluidNoFilter.html" target="_top" xlink:title="Default filter applied to phase fraction. The VolumeOfFluidNoFilter filter does not modify the phase ...">
<polygon fill="white" stroke="#666666" points="127,-19 0,-19 0,0 127,0 127,-19"/>
<text text-anchor="middle" x="63.5" y="-7" font-family="Helvetica,sans-Serif" font-size="10.00">VolumeOfFluidNoFilter</text>
</a>
</g>
</g>
<!-- Node1&#45;&gt;Node2 -->
<g id="edge1_Node000001_Node000002" class="edge">
<title>Node1&#45;&gt;Node2</title>
<g id="a_edge1_Node000001_Node000002"><a xlink:title=" ">
<path fill="none" stroke="#63b8ff" d="M118.19,-49.15C104.64,-39.57 87.26,-27.29 75.77,-19.17"/>
<polygon fill="#63b8ff" stroke="#63b8ff" points="116.26,-52.07 126.45,-54.98 120.3,-46.36 116.26,-52.07"/>
</a>
</g>
</g>
<!-- Node3 -->
<g id="Node000003" class="node">
<title>Node3</title>
<g id="a_Node000003"><a xlink:href="classVolumeOfFluidTanhFilter.html" target="_top" xlink:title="Filter phase fraction with a hyperbolic tangent function for VOF simulations.">
<polygon fill="white" stroke="#666666" points="281.5,-19 145.5,-19 145.5,0 281.5,0 281.5,-19"/>
<text text-anchor="middle" x="213.5" y="-7" font-family="Helvetica,sans-Serif" font-size="10.00">VolumeOfFluidTanhFilter</text>
</a>
</g>
</g>
<!-- Node1&#45;&gt;Node3 -->
<g id="edge2_Node000001_Node000003" class="edge">
<title>Node1&#45;&gt;Node3</title>
<g id="a_edge2_Node000001_Node000003"><a xlink:title=" ">
<path fill="none" stroke="#63b8ff" d="M158.81,-49.15C172.36,-39.57 189.74,-27.29 201.23,-19.17"/>
<polygon fill="#63b8ff" stroke="#63b8ff" points="156.7,-46.36 150.55,-54.98 160.74,-52.07 156.7,-46.36"/>
</a>
</g>
</g>
</g>
</svg>
