<?xml version="1.0" encoding="UTF-8" standalone="no"?>
<!DOCTYPE svg PUBLIC "-//W3C//DTD SVG 1.1//EN"
 "http://www.w3.org/Graphics/SVG/1.1/DTD/svg11.dtd">
<!-- Generated by graphviz version 2.43.0 (0)
 -->
<!-- Title: Shape&lt; dim &gt; Pages: 1 -->
<svg width="454pt" height="545pt"
 viewBox="0.00 0.00 454.00 545.00" xmlns="http://www.w3.org/2000/svg" xmlns:xlink="http://www.w3.org/1999/xlink">
<g id="graph0" class="graph" transform="scale(1 1) rotate(0) translate(4 541)">
<title>Shape&lt; dim &gt;</title>
<!-- Node1 -->
<g id="Node000001" class="node">
<title>Node1</title>
<g id="a_Node000001"><a xlink:title="A base class used to represent geometrical entities. Its main uses are to return signed distance and ...">
<polygon fill="#999999" stroke="#666666" points="255,-278 167,-278 167,-259 255,-259 255,-278"/>
<text text-anchor="middle" x="211" y="-266" font-family="Helvetica,sans-Serif" font-size="10.00">Shape&lt; dim &gt;</text>
</a>
</g>
</g>
<!-- Node3 -->
<g id="Node000003" class="node">
<title>Node3</title>
<g id="a_Node000003"><a xlink:href="classCompositeShape.html" target="_top" xlink:title="This class was designed so that specific composite shapes could be defined through the parameter file...">
<polygon fill="white" stroke="#666666" points="438.5,-537 298.5,-537 298.5,-518 438.5,-518 438.5,-537"/>
<text text-anchor="middle" x="368.5" y="-525" font-family="Helvetica,sans-Serif" font-size="10.00">CompositeShape&lt; dim &gt;</text>
</a>
</g>
</g>
<!-- Node1&#45;&gt;Node3 -->
<g id="edge2_Node000001_Node000003" class="edge">
<title>Node1&#45;&gt;Node3</title>
<g id="a_edge2_Node000001_Node000003"><a xlink:title=" ">
<path fill="none" stroke="#63b8ff" d="M212.32,-288.19C214.18,-334.2 225.51,-449.39 291,-509.5 294.62,-512.82 298.73,-515.56 303.13,-517.83"/>
<polygon fill="#63b8ff" stroke="#63b8ff" points="215.81,-287.95 212.02,-278.06 208.82,-288.16 215.81,-287.95"/>
</a>
</g>
</g>
<!-- Node4 -->
<g id="Node000004" class="node">
<title>Node4</title>
<g id="a_Node000004"><a xlink:href="classCone.html" target="_top" xlink:title=" ">
<polygon fill="white" stroke="#666666" points="410,-500 327,-500 327,-481 410,-481 410,-500"/>
<text text-anchor="middle" x="368.5" y="-488" font-family="Helvetica,sans-Serif" font-size="10.00">Cone&lt; dim &gt;</text>
</a>
</g>
</g>
<!-- Node1&#45;&gt;Node4 -->
<g id="edge3_Node000001_Node000004" class="edge">
<title>Node1&#45;&gt;Node4</title>
<g id="a_edge3_Node000001_Node000004"><a xlink:title=" ">
<path fill="none" stroke="#63b8ff" d="M213.69,-288.48C218.28,-329.51 234.7,-423.5 291,-472.5 300.88,-481.1 314.11,-485.78 326.78,-488.27"/>
<polygon fill="#63b8ff" stroke="#63b8ff" points="217.16,-288 212.69,-278.4 210.2,-288.69 217.16,-288"/>
</a>
</g>
</g>
<!-- Node5 -->
<g id="Node000005" class="node">
<title>Node5</title>
<g id="a_Node000005"><a xlink:href="classCutHollowSphere.html" target="_top" xlink:title=" ">
<polygon fill="white" stroke="#666666" points="439.5,-463 297.5,-463 297.5,-444 439.5,-444 439.5,-463"/>
<text text-anchor="middle" x="368.5" y="-451" font-family="Helvetica,sans-Serif" font-size="10.00">CutHollowSphere&lt; dim &gt;</text>
</a>
</g>
</g>
<!-- Node1&#45;&gt;Node5 -->
<g id="edge4_Node000001_Node000005" class="edge">
<title>Node1&#45;&gt;Node5</title>
<g id="a_edge4_Node000001_Node000005"><a xlink:title=" ">
<path fill="none" stroke="#63b8ff" d="M215.55,-288.22C222.97,-323.45 243.52,-397.1 291,-435.5 295.14,-438.85 299.79,-441.59 304.7,-443.84"/>
<polygon fill="#63b8ff" stroke="#63b8ff" points="218.95,-287.36 213.59,-278.22 212.08,-288.71 218.95,-287.36"/>
</a>
</g>
</g>
<!-- Node6 -->
<g id="Node000006" class="node">
<title>Node6</title>
<g id="a_Node000006"><a xlink:href="classCylinder.html" target="_top" xlink:title=" ">
<polygon fill="white" stroke="#666666" points="417.5,-426 319.5,-426 319.5,-407 417.5,-407 417.5,-426"/>
<text text-anchor="middle" x="368.5" y="-414" font-family="Helvetica,sans-Serif" font-size="10.00">Cylinder&lt; dim &gt;</text>
</a>
</g>
</g>
<!-- Node1&#45;&gt;Node6 -->
<g id="edge5_Node000001_Node000006" class="edge">
<title>Node1&#45;&gt;Node6</title>
<g id="a_edge5_Node000001_Node000006"><a xlink:title=" ">
<path fill="none" stroke="#63b8ff" d="M218.27,-287.83C228.64,-316.6 252.15,-370.3 291,-398.5 299.28,-404.51 309.28,-408.55 319.27,-411.24"/>
<polygon fill="#63b8ff" stroke="#63b8ff" points="221.5,-286.45 214.94,-278.14 214.88,-288.73 221.5,-286.45"/>
</a>
</g>
</g>
<!-- Node7 -->
<g id="Node000007" class="node">
<title>Node7</title>
<g id="a_Node000007"><a xlink:href="classCylindricalHelix.html" target="_top" xlink:title=" ">
<polygon fill="white" stroke="#666666" points="436,-389 301,-389 301,-370 436,-370 436,-389"/>
<text text-anchor="middle" x="368.5" y="-377" font-family="Helvetica,sans-Serif" font-size="10.00">CylindricalHelix&lt; dim &gt;</text>
</a>
</g>
</g>
<!-- Node1&#45;&gt;Node7 -->
<g id="edge6_Node000001_Node000007" class="edge">
<title>Node1&#45;&gt;Node7</title>
<g id="a_edge6_Node000001_Node000007"><a xlink:title=" ">
<path fill="none" stroke="#63b8ff" d="M222.56,-286.91C235.78,-308.23 260.44,-342.81 291,-361.5 296.59,-364.92 302.77,-367.68 309.13,-369.93"/>
<polygon fill="#63b8ff" stroke="#63b8ff" points="225.46,-284.93 217.32,-278.15 219.45,-288.53 225.46,-284.93"/>
</a>
</g>
</g>
<!-- Node8 -->
<g id="Node000008" class="node">
<title>Node8</title>
<g id="a_Node000008"><a xlink:href="classCylindricalTube.html" target="_top" xlink:title=" ">
<polygon fill="white" stroke="#666666" points="434.5,-352 302.5,-352 302.5,-333 434.5,-333 434.5,-352"/>
<text text-anchor="middle" x="368.5" y="-340" font-family="Helvetica,sans-Serif" font-size="10.00">CylindricalTube&lt; dim &gt;</text>
</a>
</g>
</g>
<!-- Node1&#45;&gt;Node8 -->
<g id="edge7_Node000001_Node000008" class="edge">
<title>Node1&#45;&gt;Node8</title>
<g id="a_edge7_Node000001_Node000008"><a xlink:title=" ">
<path fill="none" stroke="#63b8ff" d="M230.31,-284.61C245.57,-297.23 268.37,-314.29 291,-324.5 298.46,-327.87 306.63,-330.64 314.76,-332.92"/>
<polygon fill="#63b8ff" stroke="#63b8ff" points="232.56,-281.93 222.67,-278.14 228.04,-287.27 232.56,-281.93"/>
</a>
</g>
</g>
<!-- Node9 -->
<g id="Node000009" class="node">
<title>Node9</title>
<g id="a_Node000009"><a xlink:href="classDeathStar.html" target="_top" xlink:title=" ">
<polygon fill="white" stroke="#666666" points="422,-315 315,-315 315,-296 422,-296 422,-315"/>
<text text-anchor="middle" x="368.5" y="-303" font-family="Helvetica,sans-Serif" font-size="10.00">DeathStar&lt; dim &gt;</text>
</a>
</g>
</g>
<!-- Node1&#45;&gt;Node9 -->
<g id="edge8_Node000001_Node000009" class="edge">
<title>Node1&#45;&gt;Node9</title>
<g id="a_edge8_Node000001_Node000009"><a xlink:title=" ">
<path fill="none" stroke="#63b8ff" d="M261.4,-280.42C271.2,-282.77 281.43,-285.22 291,-287.5 302.55,-290.25 315.08,-293.21 326.6,-295.92"/>
<polygon fill="#63b8ff" stroke="#63b8ff" points="261.91,-276.94 251.37,-278.01 260.28,-283.75 261.91,-276.94"/>
</a>
</g>
</g>
<!-- Node10 -->
<g id="Node000010" class="node">
<title>Node10</title>
<g id="a_Node000010"><a xlink:href="classEllipsoid.html" target="_top" xlink:title=" ">
<polygon fill="white" stroke="#666666" points="418,-278 319,-278 319,-259 418,-259 418,-278"/>
<text text-anchor="middle" x="368.5" y="-266" font-family="Helvetica,sans-Serif" font-size="10.00">Ellipsoid&lt; dim &gt;</text>
</a>
</g>
</g>
<!-- Node1&#45;&gt;Node10 -->
<g id="edge9_Node000001_Node000010" class="edge">
<title>Node1&#45;&gt;Node10</title>
<g id="a_edge9_Node000001_Node000010"><a xlink:title=" ">
<path fill="none" stroke="#63b8ff" d="M265.32,-268.5C282.71,-268.5 301.92,-268.5 318.95,-268.5"/>
<polygon fill="#63b8ff" stroke="#63b8ff" points="265.32,-265 255.32,-268.5 265.32,-272 265.32,-265"/>
</a>
</g>
</g>
<!-- Node11 -->
<g id="Node000011" class="node">
<title>Node11</title>
<g id="a_Node000011"><a xlink:href="classHyperRectangle.html" target="_top" xlink:title=" ">
<polygon fill="white" stroke="#666666" points="436.5,-241 300.5,-241 300.5,-222 436.5,-222 436.5,-241"/>
<text text-anchor="middle" x="368.5" y="-229" font-family="Helvetica,sans-Serif" font-size="10.00">HyperRectangle&lt; dim &gt;</text>
</a>
</g>
</g>
<!-- Node1&#45;&gt;Node11 -->
<g id="edge10_Node000001_Node000011" class="edge">
<title>Node1&#45;&gt;Node11</title>
<g id="a_edge10_Node000001_Node000011"><a xlink:title=" ">
<path fill="none" stroke="#63b8ff" d="M261.4,-256.58C271.2,-254.23 281.43,-251.78 291,-249.5 302.55,-246.75 315.08,-243.79 326.6,-241.08"/>
<polygon fill="#63b8ff" stroke="#63b8ff" points="260.28,-253.25 251.37,-258.99 261.91,-260.06 260.28,-253.25"/>
</a>
</g>
</g>
<!-- Node12 -->
<g id="Node000012" class="node">
<title>Node12</title>
<g id="a_Node000012"><a xlink:href="classOpenCascadeShape.html" target="_top" xlink:title=" ">
<polygon fill="white" stroke="#666666" points="446,-204 291,-204 291,-185 446,-185 446,-204"/>
<text text-anchor="middle" x="368.5" y="-192" font-family="Helvetica,sans-Serif" font-size="10.00">OpenCascadeShape&lt; dim &gt;</text>
</a>
</g>
</g>
<!-- Node1&#45;&gt;Node12 -->
<g id="edge11_Node000001_Node000012" class="edge">
<title>Node1&#45;&gt;Node12</title>
<g id="a_edge11_Node000001_Node000012"><a xlink:title=" ">
<path fill="none" stroke="#63b8ff" d="M230.31,-252.39C245.57,-239.77 268.37,-222.71 291,-212.5 298.46,-209.13 306.63,-206.36 314.76,-204.08"/>
<polygon fill="#63b8ff" stroke="#63b8ff" points="228.04,-249.73 222.67,-258.86 232.56,-255.07 228.04,-249.73"/>
</a>
</g>
</g>
<!-- Node13 -->
<g id="Node000013" class="node">
<title>Node13</title>
<g id="a_Node000013"><a xlink:href="classPlane.html" target="_top" xlink:title=" ">
<polygon fill="white" stroke="#666666" points="411,-167 326,-167 326,-148 411,-148 411,-167"/>
<text text-anchor="middle" x="368.5" y="-155" font-family="Helvetica,sans-Serif" font-size="10.00">Plane&lt; dim &gt;</text>
</a>
</g>
</g>
<!-- Node1&#45;&gt;Node13 -->
<g id="edge12_Node000001_Node000013" class="edge">
<title>Node1&#45;&gt;Node13</title>
<g id="a_edge12_Node000001_Node000013"><a xlink:title=" ">
<path fill="none" stroke="#63b8ff" d="M222.56,-250.09C235.78,-228.77 260.44,-194.19 291,-175.5 301.48,-169.09 314.04,-164.97 325.93,-162.31"/>
<polygon fill="#63b8ff" stroke="#63b8ff" points="219.45,-248.47 217.32,-258.85 225.46,-252.07 219.45,-248.47"/>
</a>
</g>
</g>
<!-- Node14 -->
<g id="Node000014" class="node">
<title>Node14</title>
<g id="a_Node000014"><a xlink:href="classRBFShape.html" target="_top" xlink:title="RBF Shapes express the signed distance function as a linear combination of Radial Basis Functions (RB...">
<polygon fill="white" stroke="#666666" points="422,-130 315,-130 315,-111 422,-111 422,-130"/>
<text text-anchor="middle" x="368.5" y="-118" font-family="Helvetica,sans-Serif" font-size="10.00">RBFShape&lt; dim &gt;</text>
</a>
</g>
</g>
<!-- Node1&#45;&gt;Node14 -->
<g id="edge13_Node000001_Node000014" class="edge">
<title>Node1&#45;&gt;Node14</title>
<g id="a_edge13_Node000001_Node000014"><a xlink:title=" ">
<path fill="none" stroke="#63b8ff" d="M218.27,-249.17C228.64,-220.4 252.15,-166.7 291,-138.5 298.07,-133.37 306.38,-129.68 314.88,-127.03"/>
<polygon fill="#63b8ff" stroke="#63b8ff" points="214.88,-248.27 214.94,-258.86 221.5,-250.55 214.88,-248.27"/>
</a>
</g>
</g>
<!-- Node15 -->
<g id="Node000015" class="node">
<title>Node15</title>
<g id="a_Node000015"><a xlink:href="classSphere.html" target="_top" xlink:title=" ">
<polygon fill="white" stroke="#666666" points="414.5,-93 322.5,-93 322.5,-74 414.5,-74 414.5,-93"/>
<text text-anchor="middle" x="368.5" y="-81" font-family="Helvetica,sans-Serif" font-size="10.00">Sphere&lt; dim &gt;</text>
</a>
</g>
</g>
<!-- Node1&#45;&gt;Node15 -->
<g id="edge14_Node000001_Node000015" class="edge">
<title>Node1&#45;&gt;Node15</title>
<g id="a_edge14_Node000001_Node000015"><a xlink:title=" ">
<path fill="none" stroke="#63b8ff" d="M215.55,-248.78C222.97,-213.55 243.52,-139.9 291,-101.5 299.91,-94.29 311.21,-89.88 322.37,-87.2"/>
<polygon fill="#63b8ff" stroke="#63b8ff" points="212.08,-248.29 213.59,-258.78 218.95,-249.64 212.08,-248.29"/>
</a>
</g>
</g>
<!-- Node16 -->
<g id="Node000016" class="node">
<title>Node16</title>
<g id="a_Node000016"><a xlink:href="classSuperquadric.html" target="_top" xlink:title="This class defines superquadric shapes. Their signed distance function is: .">
<polygon fill="white" stroke="#666666" points="429.5,-56 307.5,-56 307.5,-37 429.5,-37 429.5,-56"/>
<text text-anchor="middle" x="368.5" y="-44" font-family="Helvetica,sans-Serif" font-size="10.00">Superquadric&lt; dim &gt;</text>
</a>
</g>
</g>
<!-- Node1&#45;&gt;Node16 -->
<g id="edge15_Node000001_Node000016" class="edge">
<title>Node1&#45;&gt;Node16</title>
<g id="a_edge15_Node000001_Node000016"><a xlink:title=" ">
<path fill="none" stroke="#63b8ff" d="M213.69,-248.52C218.28,-207.49 234.7,-113.5 291,-64.5 295.84,-60.29 301.48,-57.02 307.46,-54.48"/>
<polygon fill="#63b8ff" stroke="#63b8ff" points="210.2,-248.31 212.69,-258.6 217.16,-249 210.2,-248.31"/>
</a>
</g>
</g>
<!-- Node17 -->
<g id="Node000017" class="node">
<title>Node17</title>
<g id="a_Node000017"><a xlink:href="classTorus.html" target="_top" xlink:title=" ">
<polygon fill="white" stroke="#666666" points="410,-19 327,-19 327,0 410,0 410,-19"/>
<text text-anchor="middle" x="368.5" y="-7" font-family="Helvetica,sans-Serif" font-size="10.00">Torus&lt; dim &gt;</text>
</a>
</g>
</g>
<!-- Node1&#45;&gt;Node17 -->
<g id="edge16_Node000001_Node000017" class="edge">
<title>Node1&#45;&gt;Node17</title>
<g id="a_edge16_Node000001_Node000017"><a xlink:title=" ">
<path fill="none" stroke="#63b8ff" d="M212.32,-248.81C214.18,-202.8 225.51,-87.61 291,-27.5 300.75,-18.55 314.1,-13.8 326.91,-11.35"/>
<polygon fill="#63b8ff" stroke="#63b8ff" points="208.82,-248.84 212.02,-258.94 215.81,-249.05 208.82,-248.84"/>
</a>
</g>
</g>
<!-- Node2 -->
<g id="Node000002" class="node">
<title>Node2</title>
<g id="a_Node000002"><a xlink:title=" ">
<polygon fill="white" stroke="#666666" points="131,-283.5 0,-283.5 0,-253.5 131,-253.5 131,-283.5"/>
<text text-anchor="start" x="8" y="-271.5" font-family="Helvetica,sans-Serif" font-size="10.00">AutoDerivativeFunction</text>
<text text-anchor="middle" x="65.5" y="-260.5" font-family="Helvetica,sans-Serif" font-size="10.00">&lt; dim &gt;</text>
</a>
</g>
</g>
<!-- Node2&#45;&gt;Node1 -->
<g id="edge1_Node000001_Node000002" class="edge">
<title>Node2&#45;&gt;Node1</title>
<g id="a_edge1_Node000001_Node000002"><a xlink:title=" ">
<path fill="none" stroke="#63b8ff" d="M141.32,-268.5C150.01,-268.5 158.64,-268.5 166.7,-268.5"/>
<polygon fill="#63b8ff" stroke="#63b8ff" points="141.11,-265 131.11,-268.5 141.11,-272 141.11,-265"/>
</a>
</g>
</g>
</g>
</svg>
