<?xml version="1.0" encoding="UTF-8" standalone="no"?>
<!DOCTYPE svg PUBLIC "-//W3C//DTD SVG 1.1//EN"
 "http://www.w3.org/Graphics/SVG/1.1/DTD/svg11.dtd">
<!-- Generated by graphviz version 2.43.0 (0)
 -->
<!-- Title: ParticleParticleContactForceBase&lt; dim, PropertiesIndex &gt; Pages: 1 -->
<svg width="577pt" height="114pt"
 viewBox="0.00 0.00 577.00 113.50" xmlns="http://www.w3.org/2000/svg" xmlns:xlink="http://www.w3.org/1999/xlink">
<g id="graph0" class="graph" transform="scale(1 1) rotate(0) translate(4 109.5)">
<title>ParticleParticleContactForceBase&lt; dim, PropertiesIndex &gt;</title>
<!-- Node1 -->
<g id="Node000001" class="node">
<title>Node1</title>
<g id="a_Node000001"><a xlink:title="Base class for the particle&#45;particle contact force models This class does not implement any of the mo...">
<polygon fill="#999999" stroke="#666666" points="164,-64.5 0,-64.5 0,-34.5 164,-34.5 164,-64.5"/>
<text text-anchor="start" x="8" y="-52.5" font-family="Helvetica,sans-Serif" font-size="10.00">ParticleParticleContactForce</text>
<text text-anchor="middle" x="82" y="-41.5" font-family="Helvetica,sans-Serif" font-size="10.00">Base&lt; dim, PropertiesIndex &gt;</text>
</a>
</g>
</g>
<!-- Node2 -->
<g id="Node000002" class="node">
<title>Node2</title>
<g id="a_Node000002"><a xlink:href="classParticleParticleContactForce.html" target="_top" xlink:title=" ">
<polygon fill="white" stroke="#666666" points="376,-100 200,-100 200,-59 376,-59 376,-100"/>
<text text-anchor="start" x="208" y="-88" font-family="Helvetica,sans-Serif" font-size="10.00">ParticleParticleContactForce</text>
<text text-anchor="start" x="208" y="-77" font-family="Helvetica,sans-Serif" font-size="10.00">&lt; dim, PropertiesIndex, force</text>
<text text-anchor="middle" x="288" y="-66" font-family="Helvetica,sans-Serif" font-size="10.00">_model, rolling_friction_model &gt;</text>
</a>
</g>
</g>
<!-- Node1&#45;&gt;Node2 -->
<g id="edge1_Node000001_Node000002" class="edge">
<title>Node1&#45;&gt;Node2</title>
<g id="a_edge1_Node000001_Node000002"><a xlink:title=" ">
<path fill="none" stroke="#63b8ff" d="M174.13,-62.9C182.63,-64.15 191.24,-65.42 199.7,-66.66"/>
<polygon fill="#63b8ff" stroke="#63b8ff" points="174.62,-59.44 164.21,-61.44 173.6,-66.36 174.62,-59.44"/>
</a>
</g>
</g>
<!-- Node4 -->
<g id="Node000004" class="node">
<title>Node4</title>
<g id="a_Node000004"><a xlink:href="classParticleParticleContactForce.html" target="_top" xlink:title="Execute calculation of particle&#45;particle contact forces including linear, non&#45;linear contact models,...">
<polygon fill="white" stroke="#666666" points="376,-41 200,-41 200,0 376,0 376,-41"/>
<text text-anchor="start" x="208" y="-29" font-family="Helvetica,sans-Serif" font-size="10.00">ParticleParticleContactForce</text>
<text text-anchor="start" x="208" y="-18" font-family="Helvetica,sans-Serif" font-size="10.00">&lt; dim, PropertiesIndex, contact</text>
<text text-anchor="middle" x="288" y="-7" font-family="Helvetica,sans-Serif" font-size="10.00">_model, rolling_friction_model &gt;</text>
</a>
</g>
</g>
<!-- Node1&#45;&gt;Node4 -->
<g id="edge3_Node000001_Node000004" class="edge">
<title>Node1&#45;&gt;Node4</title>
<g id="a_edge3_Node000001_Node000004"><a xlink:title=" ">
<path fill="none" stroke="#63b8ff" d="M174.13,-36.55C182.63,-35.34 191.24,-34.11 199.7,-32.91"/>
<polygon fill="#63b8ff" stroke="#63b8ff" points="173.62,-33.08 164.21,-37.96 174.61,-40.01 173.62,-33.08"/>
</a>
</g>
</g>
<!-- Node3 -->
<g id="Node000003" class="node">
<title>Node3</title>
<g id="a_Node000003"><a xlink:href="classParticlesForceChains.html" target="_top" xlink:title="Class that carries out the calculation of particle&#45;particle contact force and the visualization of fo...">
<polygon fill="white" stroke="#666666" points="569,-105.5 412,-105.5 412,-53.5 569,-53.5 569,-105.5"/>
<text text-anchor="start" x="420" y="-93.5" font-family="Helvetica,sans-Serif" font-size="10.00">ParticlesForceChains</text>
<text text-anchor="start" x="420" y="-82.5" font-family="Helvetica,sans-Serif" font-size="10.00">&lt; dim, PropertiesIndex,</text>
<text text-anchor="start" x="420" y="-71.5" font-family="Helvetica,sans-Serif" font-size="10.00"> force_model, rolling_friction</text>
<text text-anchor="middle" x="490.5" y="-60.5" font-family="Helvetica,sans-Serif" font-size="10.00">_model &gt;</text>
</a>
</g>
</g>
<!-- Node2&#45;&gt;Node3 -->
<g id="edge2_Node000002_Node000003" class="edge">
<title>Node2&#45;&gt;Node3</title>
<g id="a_edge2_Node000002_Node000003"><a xlink:title=" ">
<path fill="none" stroke="#63b8ff" d="M386.19,-79.5C394.84,-79.5 403.51,-79.5 411.96,-79.5"/>
<polygon fill="#63b8ff" stroke="#63b8ff" points="386.07,-76 376.07,-79.5 386.07,-83 386.07,-76"/>
</a>
</g>
</g>
</g>
</svg>
