<?xml version="1.0" encoding="UTF-8" standalone="no"?>
<!DOCTYPE svg PUBLIC "-//W3C//DTD SVG 1.1//EN"
 "http://www.w3.org/Graphics/SVG/1.1/DTD/svg11.dtd">
<!-- Generated by graphviz version 2.43.0 (0)
 -->
<!-- Title: PhysicsSubequationsSolverBase Pages: 1 -->
<svg width="822pt" height="134pt"
 viewBox="0.00 0.00 822.00 134.00" xmlns="http://www.w3.org/2000/svg" xmlns:xlink="http://www.w3.org/1999/xlink">
<g id="graph0" class="graph" transform="scale(1 1) rotate(0) translate(4 130)">
<title>PhysicsSubequationsSolverBase</title>
<!-- Node1 -->
<g id="Node000001" class="node">
<title>Node1</title>
<g id="a_Node000001"><a xlink:title="Base class to solve subequations solved inside a physics (or auxiliary physics) that are not part of ...">
<polygon fill="#999999" stroke="#666666" points="174,-72.5 0,-72.5 0,-53.5 174,-53.5 174,-72.5"/>
<text text-anchor="middle" x="87" y="-60.5" font-family="Helvetica,sans-Serif" font-size="10.00">PhysicsSubequationsSolverBase</text>
</a>
</g>
</g>
<!-- Node2 -->
<g id="Node000002" class="node">
<title>Node2</title>
<g id="a_Node000002"><a xlink:href="classPhysicsNonlinearSubequationsSolver.html" target="_top" xlink:title=" ">
<polygon fill="white" stroke="#666666" points="389,-126 210,-126 210,-96 389,-96 389,-126"/>
<text text-anchor="start" x="218" y="-114" font-family="Helvetica,sans-Serif" font-size="10.00">PhysicsNonlinearSubequations</text>
<text text-anchor="middle" x="299.5" y="-103" font-family="Helvetica,sans-Serif" font-size="10.00">Solver&lt; dim, GlobalVectorType &gt;</text>
</a>
</g>
</g>
<!-- Node1&#45;&gt;Node2 -->
<g id="edge1_Node000001_Node000002" class="edge">
<title>Node1&#45;&gt;Node2</title>
<g id="a_edge1_Node000001_Node000002"><a xlink:title=" ">
<path fill="none" stroke="#63b8ff" d="M139.83,-74.82C167.86,-81.21 202.77,-89.17 232.7,-96"/>
<polygon fill="#63b8ff" stroke="#63b8ff" points="140.37,-71.35 129.84,-72.54 138.81,-78.18 140.37,-71.35"/>
</a>
</g>
</g>
<!-- Node4 -->
<g id="Node000004" class="node">
<title>Node4</title>
<g id="a_Node000004"><a xlink:href="classPhysicsLinearSubequationsSolver.html" target="_top" xlink:title="Linear subequations solved inside a physics (or auxiliary physics) that are not part of the main set ...">
<polygon fill="white" stroke="#666666" points="374,-78 225,-78 225,-48 374,-48 374,-78"/>
<text text-anchor="start" x="233" y="-66" font-family="Helvetica,sans-Serif" font-size="10.00">PhysicsLinearSubequations</text>
<text text-anchor="middle" x="299.5" y="-55" font-family="Helvetica,sans-Serif" font-size="10.00">Solver</text>
</a>
</g>
</g>
<!-- Node1&#45;&gt;Node4 -->
<g id="edge3_Node000001_Node000004" class="edge">
<title>Node1&#45;&gt;Node4</title>
<g id="a_edge3_Node000001_Node000004"><a xlink:title=" ">
<path fill="none" stroke="#63b8ff" d="M184.53,-63C198.08,-63 211.82,-63 224.85,-63"/>
<polygon fill="#63b8ff" stroke="#63b8ff" points="184.23,-59.5 174.23,-63 184.23,-66.5 184.23,-59.5"/>
</a>
</g>
</g>
<!-- Node9 -->
<g id="Node000009" class="node">
<title>Node9</title>
<g id="a_Node000009"><a xlink:href="classPhysicsNonlinearSubequationsSolver.html" target="_top" xlink:title="Non&#45;linear subequations solved inside a physics (or auxiliary physics) that are not part of the main ...">
<polygon fill="white" stroke="#666666" points="383,-30 216,-30 216,0 383,0 383,-30"/>
<text text-anchor="start" x="224" y="-18" font-family="Helvetica,sans-Serif" font-size="10.00">PhysicsNonlinearSubequations</text>
<text text-anchor="middle" x="299.5" y="-7" font-family="Helvetica,sans-Serif" font-size="10.00">Solver&lt; dim, VectorType &gt;</text>
</a>
</g>
</g>
<!-- Node1&#45;&gt;Node9 -->
<g id="edge8_Node000001_Node000009" class="edge">
<title>Node1&#45;&gt;Node9</title>
<g id="a_edge8_Node000001_Node000009"><a xlink:title=" ">
<path fill="none" stroke="#63b8ff" d="M139.83,-51.18C167.86,-44.79 202.77,-36.83 232.7,-30"/>
<polygon fill="#63b8ff" stroke="#63b8ff" points="138.81,-47.82 129.84,-53.46 140.37,-54.65 138.81,-47.82"/>
</a>
</g>
</g>
<!-- Node3 -->
<g id="Node000003" class="node">
<title>Node3</title>
<g id="a_Node000003"><a xlink:href="classCLSAlgebraicInterfaceReinitialization.html" target="_top" xlink:title="CLS algebraic reinitialization solver.">
<polygon fill="white" stroke="#666666" points="623,-126 425,-126 425,-96 623,-96 623,-126"/>
<text text-anchor="start" x="433" y="-114" font-family="Helvetica,sans-Serif" font-size="10.00">CLSAlgebraicInterfaceReinitialization</text>
<text text-anchor="middle" x="524" y="-103" font-family="Helvetica,sans-Serif" font-size="10.00">&lt; dim &gt;</text>
</a>
</g>
</g>
<!-- Node2&#45;&gt;Node3 -->
<g id="edge2_Node000002_Node000003" class="edge">
<title>Node2&#45;&gt;Node3</title>
<g id="a_edge2_Node000002_Node000003"><a xlink:title=" ">
<path fill="none" stroke="#63b8ff" d="M399.35,-111C407.82,-111 416.38,-111 424.85,-111"/>
<polygon fill="#63b8ff" stroke="#63b8ff" points="399.08,-107.5 389.08,-111 399.08,-114.5 399.08,-107.5"/>
</a>
</g>
</g>
<!-- Node5 -->
<g id="Node000005" class="node">
<title>Node5</title>
<g id="a_Node000005"><a xlink:href="classCLSLinearSubequationsSolver.html" target="_top" xlink:title="Generalized solver for CLS linear subequations.">
<polygon fill="white" stroke="#666666" points="604.5,-78 443.5,-78 443.5,-48 604.5,-48 604.5,-78"/>
<text text-anchor="start" x="451.5" y="-66" font-family="Helvetica,sans-Serif" font-size="10.00">CLSLinearSubequationsSolver</text>
<text text-anchor="middle" x="524" y="-55" font-family="Helvetica,sans-Serif" font-size="10.00">&lt; dim &gt;</text>
</a>
</g>
</g>
<!-- Node4&#45;&gt;Node5 -->
<g id="edge4_Node000004_Node000005" class="edge">
<title>Node4&#45;&gt;Node5</title>
<g id="a_edge4_Node000004_Node000005"><a xlink:title=" ">
<path fill="none" stroke="#63b8ff" d="M384.54,-63C403.8,-63 424.22,-63 443.3,-63"/>
<polygon fill="#63b8ff" stroke="#63b8ff" points="384.28,-59.5 374.28,-63 384.28,-66.5 384.28,-59.5"/>
</a>
</g>
</g>
<!-- Node8 -->
<g id="Node000008" class="node">
<title>Node8</title>
<g id="a_Node000008"><a xlink:href="classParticleProjector.html" target="_top" xlink:title="Particle information projection. This class manages the calculation of the projection of the particle...">
<polygon fill="white" stroke="#666666" points="576,-30 472,-30 472,0 576,0 576,-30"/>
<text text-anchor="start" x="480" y="-18" font-family="Helvetica,sans-Serif" font-size="10.00">ParticleProjector&lt;</text>
<text text-anchor="middle" x="524" y="-7" font-family="Helvetica,sans-Serif" font-size="10.00"> dim &gt;</text>
</a>
</g>
</g>
<!-- Node4&#45;&gt;Node8 -->
<g id="edge7_Node000004_Node000008" class="edge">
<title>Node4&#45;&gt;Node8</title>
<g id="a_edge7_Node000004_Node000008"><a xlink:title=" ">
<path fill="none" stroke="#63b8ff" d="M380.07,-45.83C410.61,-39.25 444.63,-31.91 471.82,-26.04"/>
<polygon fill="#63b8ff" stroke="#63b8ff" points="379.33,-42.41 370.29,-47.94 380.8,-49.26 379.33,-42.41"/>
</a>
</g>
</g>
<!-- Node6 -->
<g id="Node000006" class="node">
<title>Node6</title>
<g id="a_Node000006"><a xlink:href="classCLSCurvatureProjection.html" target="_top" xlink:title="CLS curvature L2 projection solver.">
<polygon fill="white" stroke="#666666" points="802,-102 671,-102 671,-72 802,-72 802,-102"/>
<text text-anchor="start" x="679" y="-90" font-family="Helvetica,sans-Serif" font-size="10.00">CLSCurvatureProjection</text>
<text text-anchor="middle" x="736.5" y="-79" font-family="Helvetica,sans-Serif" font-size="10.00">&lt; dim &gt;</text>
</a>
</g>
</g>
<!-- Node5&#45;&gt;Node6 -->
<g id="edge5_Node000005_Node000006" class="edge">
<title>Node5&#45;&gt;Node6</title>
<g id="a_edge5_Node000005_Node000006"><a xlink:title=" ">
<path fill="none" stroke="#63b8ff" d="M614.68,-73.22C633.56,-75.38 653.12,-77.61 670.87,-79.63"/>
<polygon fill="#63b8ff" stroke="#63b8ff" points="614.91,-69.73 604.58,-72.07 614.12,-76.68 614.91,-69.73"/>
</a>
</g>
</g>
<!-- Node7 -->
<g id="Node000007" class="node">
<title>Node7</title>
<g id="a_Node000007"><a xlink:href="classCLSPhaseGradientProjection.html" target="_top" xlink:title="CLS phase fraction gradient L2 projection solver.">
<polygon fill="white" stroke="#666666" points="814,-54 659,-54 659,-24 814,-24 814,-54"/>
<text text-anchor="start" x="667" y="-42" font-family="Helvetica,sans-Serif" font-size="10.00">CLSPhaseGradientProjection</text>
<text text-anchor="middle" x="736.5" y="-31" font-family="Helvetica,sans-Serif" font-size="10.00">&lt; dim &gt;</text>
</a>
</g>
</g>
<!-- Node5&#45;&gt;Node7 -->
<g id="edge6_Node000005_Node000007" class="edge">
<title>Node5&#45;&gt;Node7</title>
<g id="a_edge6_Node000005_Node000007"><a xlink:title=" ">
<path fill="none" stroke="#63b8ff" d="M614.7,-52.77C629.42,-51.09 644.57,-49.37 658.94,-47.73"/>
<polygon fill="#63b8ff" stroke="#63b8ff" points="614.12,-49.32 604.58,-53.93 614.91,-56.27 614.12,-49.32"/>
</a>
</g>
</g>
</g>
</svg>
