<?xml version="1.0" encoding="UTF-8" standalone="no"?>
<!DOCTYPE svg PUBLIC "-//W3C//DTD SVG 1.1//EN"
 "http://www.w3.org/Graphics/SVG/1.1/DTD/svg11.dtd">
<!-- Generated by graphviz version 2.43.0 (0)
 -->
<!-- Title: Tracer&lt; dim &gt; Pages: 1 -->
<svg width="168pt" height="148pt"
 viewBox="0.00 0.00 168.00 148.00" xmlns="http://www.w3.org/2000/svg" xmlns:xlink="http://www.w3.org/1999/xlink">
<g id="graph0" class="graph" transform="scale(1 1) rotate(0) translate(4 144)">
<title>Tracer&lt; dim &gt;</title>
<!-- Node1 -->
<g id="Node000001" class="node">
<title>Node1</title>
<g id="a_Node000001"><a xlink:title=" ">
<polygon fill="#999999" stroke="#666666" points="123.5,-19 36.5,-19 36.5,0 123.5,0 123.5,-19"/>
<text text-anchor="middle" x="80" y="-7" font-family="Helvetica,sans-Serif" font-size="10.00">Tracer&lt; dim &gt;</text>
</a>
</g>
</g>
<!-- Node2 -->
<g id="Node000002" class="node">
<title>Node2</title>
<g id="a_Node000002"><a xlink:href="classAuxiliaryPhysics.html" target="_top" xlink:title=" ">
<polygon fill="white" stroke="#666666" points="145,-85 15,-85 15,-55 145,-55 145,-85"/>
<text text-anchor="start" x="23" y="-73" font-family="Helvetica,sans-Serif" font-size="10.00">AuxiliaryPhysics&lt; dim,</text>
<text text-anchor="middle" x="80" y="-62" font-family="Helvetica,sans-Serif" font-size="10.00"> GlobalVectorType &gt;</text>
</a>
</g>
</g>
<!-- Node2&#45;&gt;Node1 -->
<g id="edge1_Node000001_Node000002" class="edge">
<title>Node2&#45;&gt;Node1</title>
<g id="a_edge1_Node000001_Node000002"><a xlink:title=" ">
<path fill="none" stroke="#63b8ff" d="M80,-44.75C80,-35.72 80,-26.03 80,-19.27"/>
<polygon fill="#63b8ff" stroke="#63b8ff" points="76.5,-44.84 80,-54.84 83.5,-44.84 76.5,-44.84"/>
</a>
</g>
</g>
<!-- Node3 -->
<g id="Node000003" class="node">
<title>Node3</title>
<g id="a_Node000003"><a xlink:href="classPhysicsSolver.html" target="_top" xlink:title="Contain all the common elements of a physics solver. It creates the non&#45;linear solver as specified by...">
<polygon fill="white" stroke="#666666" points="160,-140 0,-140 0,-121 160,-121 160,-140"/>
<text text-anchor="middle" x="80" y="-128" font-family="Helvetica,sans-Serif" font-size="10.00">PhysicsSolver&lt; VectorType &gt;</text>
</a>
</g>
</g>
<!-- Node3&#45;&gt;Node2 -->
<g id="edge2_Node000002_Node000003" class="edge">
<title>Node3&#45;&gt;Node2</title>
<g id="a_edge2_Node000002_Node000003"><a xlink:title=" ">
<path fill="none" stroke="#63b8ff" d="M80,-110.65C80,-102.36 80,-92.78 80,-85.11"/>
<polygon fill="#63b8ff" stroke="#63b8ff" points="76.5,-110.87 80,-120.87 83.5,-110.87 76.5,-110.87"/>
</a>
</g>
</g>
</g>
</svg>
