<?xml version="1.0" encoding="UTF-8" standalone="no"?>
<!DOCTYPE svg PUBLIC "-//W3C//DTD SVG 1.1//EN"
 "http://www.w3.org/Graphics/SVG/1.1/DTD/svg11.dtd">
<!-- Generated by graphviz version 2.43.0 (0)
 -->
<!-- Title: SpecificHeatModel Pages: 1 -->
<svg width="290pt" height="137pt"
 viewBox="0.00 0.00 290.00 137.00" xmlns="http://www.w3.org/2000/svg" xmlns:xlink="http://www.w3.org/1999/xlink">
<g id="graph0" class="graph" transform="scale(1 1) rotate(0) translate(4 133)">
<title>SpecificHeatModel</title>
<!-- Node1 -->
<g id="Node000001" class="node">
<title>Node1</title>
<g id="a_Node000001"><a xlink:title="Abstract class for calculating the specific heat of materials on quadrature points using the temperat...">
<polygon fill="#999999" stroke="#666666" points="189,-74 82,-74 82,-55 189,-55 189,-74"/>
<text text-anchor="middle" x="135.5" y="-62" font-family="Helvetica,sans-Serif" font-size="10.00">SpecificHeatModel</text>
</a>
</g>
</g>
<!-- Node3 -->
<g id="Node000003" class="node">
<title>Node3</title>
<g id="a_Node000003"><a xlink:href="classConstantSpecificHeat.html" target="_top" xlink:title="Constant specific heat model.">
<polygon fill="white" stroke="#666666" points="121,-19 0,-19 0,0 121,0 121,-19"/>
<text text-anchor="middle" x="60.5" y="-7" font-family="Helvetica,sans-Serif" font-size="10.00">ConstantSpecificHeat</text>
</a>
</g>
</g>
<!-- Node1&#45;&gt;Node3 -->
<g id="edge2_Node000001_Node000003" class="edge">
<title>Node1&#45;&gt;Node3</title>
<g id="a_edge2_Node000001_Node000003"><a xlink:title=" ">
<path fill="none" stroke="#63b8ff" d="M115.19,-49.15C101.64,-39.57 84.26,-27.29 72.77,-19.17"/>
<polygon fill="#63b8ff" stroke="#63b8ff" points="113.26,-52.07 123.45,-54.98 117.3,-46.36 113.26,-52.07"/>
</a>
</g>
</g>
<!-- Node4 -->
<g id="Node000004" class="node">
<title>Node4</title>
<g id="a_Node000004"><a xlink:href="classPhaseChangeSpecificHeat.html" target="_top" xlink:title="Phase change specific heat model.">
<polygon fill="white" stroke="#666666" points="282,-19 139,-19 139,0 282,0 282,-19"/>
<text text-anchor="middle" x="210.5" y="-7" font-family="Helvetica,sans-Serif" font-size="10.00">PhaseChangeSpecificHeat</text>
</a>
</g>
</g>
<!-- Node1&#45;&gt;Node4 -->
<g id="edge3_Node000001_Node000004" class="edge">
<title>Node1&#45;&gt;Node4</title>
<g id="a_edge3_Node000001_Node000004"><a xlink:title=" ">
<path fill="none" stroke="#63b8ff" d="M155.81,-49.15C169.36,-39.57 186.74,-27.29 198.23,-19.17"/>
<polygon fill="#63b8ff" stroke="#63b8ff" points="153.7,-46.36 147.55,-54.98 157.74,-52.07 153.7,-46.36"/>
</a>
</g>
</g>
<!-- Node2 -->
<g id="Node000002" class="node">
<title>Node2</title>
<g id="a_Node000002"><a xlink:href="classPhysicalPropertyModel.html" target="_top" xlink:title="Abstract class that defines the interface for a physical property model Physical property model provi...">
<polygon fill="white" stroke="#666666" points="199.5,-129 71.5,-129 71.5,-110 199.5,-110 199.5,-129"/>
<text text-anchor="middle" x="135.5" y="-117" font-family="Helvetica,sans-Serif" font-size="10.00">PhysicalPropertyModel</text>
</a>
</g>
</g>
<!-- Node2&#45;&gt;Node1 -->
<g id="edge1_Node000001_Node000002" class="edge">
<title>Node2&#45;&gt;Node1</title>
<g id="a_edge1_Node000001_Node000002"><a xlink:title=" ">
<path fill="none" stroke="#63b8ff" d="M135.5,-99.66C135.5,-90.93 135.5,-80.99 135.5,-74.09"/>
<polygon fill="#63b8ff" stroke="#63b8ff" points="132,-99.75 135.5,-109.75 139,-99.75 132,-99.75"/>
</a>
</g>
</g>
</g>
</svg>
