<?xml version="1.0" encoding="UTF-8" standalone="no"?>
<!DOCTYPE svg PUBLIC "-//W3C//DTD SVG 1.1//EN"
 "http://www.w3.org/Graphics/SVG/1.1/DTD/svg11.dtd">
<!-- Generated by graphviz version 2.43.0 (0)
 -->
<!-- Title: MortarManagerBase&lt; dim &gt; Pages: 1 -->
<svg width="268pt" height="104pt"
 viewBox="0.00 0.00 267.50 104.00" xmlns="http://www.w3.org/2000/svg" xmlns:xlink="http://www.w3.org/1999/xlink">
<g id="graph0" class="graph" transform="scale(1 1) rotate(0) translate(4 100)">
<title>MortarManagerBase&lt; dim &gt;</title>
<!-- Node1 -->
<g id="Node000001" class="node">
<title>Node1</title>
<g id="a_Node000001"><a xlink:title="Base class for the mortar manager.">
<polygon fill="#999999" stroke="#666666" points="190.5,-96 66.5,-96 66.5,-66 190.5,-66 190.5,-96"/>
<text text-anchor="start" x="74.5" y="-84" font-family="Helvetica,sans-Serif" font-size="10.00">MortarManagerBase&lt;</text>
<text text-anchor="middle" x="128.5" y="-73" font-family="Helvetica,sans-Serif" font-size="10.00"> dim &gt;</text>
</a>
</g>
</g>
<!-- Node2 -->
<g id="Node000002" class="node">
<title>Node2</title>
<g id="a_Node000002"><a xlink:href="classMortarManagerCircle.html" target="_top" xlink:title="Mortar manager class for circular interface.">
<polygon fill="white" stroke="#666666" points="119,-30 0,-30 0,0 119,0 119,-30"/>
<text text-anchor="start" x="8" y="-18" font-family="Helvetica,sans-Serif" font-size="10.00">MortarManagerCircle</text>
<text text-anchor="middle" x="59.5" y="-7" font-family="Helvetica,sans-Serif" font-size="10.00">&lt; dim &gt;</text>
</a>
</g>
</g>
<!-- Node1&#45;&gt;Node2 -->
<g id="edge1_Node000001_Node000002" class="edge">
<title>Node1&#45;&gt;Node2</title>
<g id="a_edge1_Node000001_Node000002"><a xlink:title=" ">
<path fill="none" stroke="#63b8ff" d="M105.78,-58.92C95.6,-49.49 83.87,-38.61 74.77,-30.16"/>
<polygon fill="#63b8ff" stroke="#63b8ff" points="103.47,-61.56 113.19,-65.8 108.24,-56.43 103.47,-61.56"/>
</a>
</g>
</g>
<!-- Node3 -->
<g id="Node000003" class="node">
<title>Node3</title>
<g id="a_Node000003"><a xlink:href="classMortarManagerLinear.html" target="_top" xlink:title="Mortar manager class for linear interface.">
<polygon fill="white" stroke="#666666" points="259.5,-30 137.5,-30 137.5,0 259.5,0 259.5,-30"/>
<text text-anchor="start" x="145.5" y="-18" font-family="Helvetica,sans-Serif" font-size="10.00">MortarManagerLinear</text>
<text text-anchor="middle" x="198.5" y="-7" font-family="Helvetica,sans-Serif" font-size="10.00">&lt; dim &gt;</text>
</a>
</g>
</g>
<!-- Node1&#45;&gt;Node3 -->
<g id="edge2_Node000001_Node000003" class="edge">
<title>Node1&#45;&gt;Node3</title>
<g id="a_edge2_Node000001_Node000003"><a xlink:title=" ">
<path fill="none" stroke="#63b8ff" d="M151.55,-58.92C161.87,-49.49 173.77,-38.61 183.01,-30.16"/>
<polygon fill="#63b8ff" stroke="#63b8ff" points="149.05,-56.47 144.04,-65.8 153.78,-61.63 149.05,-56.47"/>
</a>
</g>
</g>
</g>
</svg>
