<?xml version="1.0" encoding="UTF-8" standalone="no"?>
<!DOCTYPE svg PUBLIC "-//W3C//DTD SVG 1.1//EN"
 "http://www.w3.org/Graphics/SVG/1.1/DTD/svg11.dtd">
<!-- Generated by graphviz version 2.43.0 (0)
 -->
<!-- Title: PhysicsSolverStrategy&lt; VectorType &gt; Pages: 1 -->
<svg width="345pt" height="182pt"
 viewBox="0.00 0.00 345.00 182.00" xmlns="http://www.w3.org/2000/svg" xmlns:xlink="http://www.w3.org/1999/xlink">
<g id="graph0" class="graph" transform="scale(1 1) rotate(0) translate(4 178)">
<title>PhysicsSolverStrategy&lt; VectorType &gt;</title>
<!-- Node1 -->
<g id="Node000001" class="node">
<title>Node1</title>
<g id="a_Node000001"><a xlink:title="Base class that works as an interface for all solver strategies (either non&#45;linear or linear) for all...">
<polygon fill="#999999" stroke="#666666" points="125,-102 0,-102 0,-72 125,-72 125,-102"/>
<text text-anchor="start" x="8" y="-90" font-family="Helvetica,sans-Serif" font-size="10.00">PhysicsSolverStrategy</text>
<text text-anchor="middle" x="62.5" y="-79" font-family="Helvetica,sans-Serif" font-size="10.00">&lt; VectorType &gt;</text>
</a>
</g>
</g>
<!-- Node2 -->
<g id="Node000002" class="node">
<title>Node2</title>
<g id="a_Node000002"><a xlink:href="classInexactNewtonNonLinearSolverStrategy.html" target="_top" xlink:title="Non&#45;linear solver for non&#45;linear systems of equations which uses an inexact Newton method with &#160;relax...">
<polygon fill="white" stroke="#666666" points="334,-174 164,-174 164,-144 334,-144 334,-174"/>
<text text-anchor="start" x="172" y="-162" font-family="Helvetica,sans-Serif" font-size="10.00">InexactNewtonNonLinearSolver</text>
<text text-anchor="middle" x="249" y="-151" font-family="Helvetica,sans-Serif" font-size="10.00">Strategy&lt; VectorType &gt;</text>
</a>
</g>
</g>
<!-- Node1&#45;&gt;Node2 -->
<g id="edge1_Node000001_Node000002" class="edge">
<title>Node1&#45;&gt;Node2</title>
<g id="a_edge1_Node000001_Node000002"><a xlink:title=" ">
<path fill="none" stroke="#63b8ff" d="M99.64,-106.82C117.71,-116.2 140.13,-127.06 161,-135 169.49,-138.23 178.61,-141.23 187.62,-143.93"/>
<polygon fill="#63b8ff" stroke="#63b8ff" points="101.1,-103.63 90.62,-102.07 97.84,-109.83 101.1,-103.63"/>
</a>
</g>
</g>
<!-- Node3 -->
<g id="Node000003" class="node">
<title>Node3</title>
<g id="a_Node000003"><a xlink:href="classKinsolNewtonNonLinearSolverStrategy.html" target="_top" xlink:title="Non&#45;linear Newton solver for non&#45;linear systems of equations implemented in the SUNDIALS suite,...">
<polygon fill="white" stroke="#666666" points="331,-126 167,-126 167,-96 331,-96 331,-126"/>
<text text-anchor="start" x="175" y="-114" font-family="Helvetica,sans-Serif" font-size="10.00">KinsolNewtonNonLinearSolver</text>
<text text-anchor="middle" x="249" y="-103" font-family="Helvetica,sans-Serif" font-size="10.00">Strategy&lt; VectorType &gt;</text>
</a>
</g>
</g>
<!-- Node1&#45;&gt;Node3 -->
<g id="edge2_Node000001_Node000003" class="edge">
<title>Node1&#45;&gt;Node3</title>
<g id="a_edge2_Node000001_Node000003"><a xlink:title=" ">
<path fill="none" stroke="#63b8ff" d="M135.33,-96.34C145.61,-97.68 156.24,-99.06 166.68,-100.42"/>
<polygon fill="#63b8ff" stroke="#63b8ff" points="135.56,-92.84 125.19,-95.03 134.66,-99.79 135.56,-92.84"/>
</a>
</g>
</g>
<!-- Node4 -->
<g id="Node000004" class="node">
<title>Node4</title>
<g id="a_Node000004"><a xlink:href="classLinearSolverStrategy.html" target="_top" xlink:title="The linear solver strategy class is used to solve the physics as a linear problem.">
<polygon fill="white" stroke="#666666" points="308.5,-78 189.5,-78 189.5,-48 308.5,-48 308.5,-78"/>
<text text-anchor="start" x="197.5" y="-66" font-family="Helvetica,sans-Serif" font-size="10.00">LinearSolverStrategy</text>
<text text-anchor="middle" x="249" y="-55" font-family="Helvetica,sans-Serif" font-size="10.00">&lt; VectorType &gt;</text>
</a>
</g>
</g>
<!-- Node1&#45;&gt;Node4 -->
<g id="edge3_Node000001_Node000004" class="edge">
<title>Node1&#45;&gt;Node4</title>
<g id="a_edge3_Node000001_Node000004"><a xlink:title=" ">
<path fill="none" stroke="#63b8ff" d="M135.32,-77.66C153.26,-75.32 172.28,-72.85 189.49,-70.61"/>
<polygon fill="#63b8ff" stroke="#63b8ff" points="134.66,-74.21 125.19,-78.97 135.56,-81.16 134.66,-74.21"/>
</a>
</g>
</g>
<!-- Node5 -->
<g id="Node000005" class="node">
<title>Node5</title>
<g id="a_Node000005"><a xlink:href="classNewtonNonLinearSolverStrategy.html" target="_top" xlink:title="Non&#45;linear solver for non&#45;linear systems of equations which uses a Newton method with &#160;relaxation to ...">
<polygon fill="white" stroke="#666666" points="337,-30 161,-30 161,0 337,0 337,-30"/>
<text text-anchor="start" x="169" y="-18" font-family="Helvetica,sans-Serif" font-size="10.00">NewtonNonLinearSolverStrategy</text>
<text text-anchor="middle" x="249" y="-7" font-family="Helvetica,sans-Serif" font-size="10.00">&lt; VectorType &gt;</text>
</a>
</g>
</g>
<!-- Node1&#45;&gt;Node5 -->
<g id="edge4_Node000001_Node000005" class="edge">
<title>Node1&#45;&gt;Node5</title>
<g id="a_edge4_Node000001_Node000005"><a xlink:title=" ">
<path fill="none" stroke="#63b8ff" d="M99.64,-67.18C117.71,-57.8 140.13,-46.94 161,-39 169.49,-35.77 178.61,-32.77 187.62,-30.07"/>
<polygon fill="#63b8ff" stroke="#63b8ff" points="97.84,-64.17 90.62,-71.93 101.1,-70.37 97.84,-64.17"/>
</a>
</g>
</g>
</g>
</svg>
