<?xml version="1.0" encoding="UTF-8" standalone="no"?>
<!DOCTYPE svg PUBLIC "-//W3C//DTD SVG 1.1//EN"
 "http://www.w3.org/Graphics/SVG/1.1/DTD/svg11.dtd">
<!-- Generated by graphviz version 2.43.0 (0)
 -->
<!-- Title: ThermalConductivityPhaseChange Pages: 1 -->
<svg width="157pt" height="148pt"
 viewBox="0.00 0.00 157.00 148.00" xmlns="http://www.w3.org/2000/svg" xmlns:xlink="http://www.w3.org/1999/xlink">
<g id="graph0" class="graph" transform="scale(1 1) rotate(0) translate(4 144)">
<title>ThermalConductivityPhaseChange</title>
<!-- Node1 -->
<g id="Node000001" class="node">
<title>Node1</title>
<g id="a_Node000001"><a xlink:title="Implements a phase&#45;dependent thermal conductivity.">
<polygon fill="#999999" stroke="#666666" points="148.5,-30 0.5,-30 0.5,0 148.5,0 148.5,-30"/>
<text text-anchor="start" x="8.5" y="-18" font-family="Helvetica,sans-Serif" font-size="10.00">ThermalConductivityPhase</text>
<text text-anchor="middle" x="74.5" y="-7" font-family="Helvetica,sans-Serif" font-size="10.00">Change</text>
</a>
</g>
</g>
<!-- Node2 -->
<g id="Node000002" class="node">
<title>Node2</title>
<g id="a_Node000002"><a xlink:href="classThermalConductivityModel.html" target="_top" xlink:title="Abstract class that allows to calculate the thermal conductivity on each quadrature point using the t...">
<polygon fill="white" stroke="#666666" points="149,-85 0,-85 0,-66 149,-66 149,-85"/>
<text text-anchor="middle" x="74.5" y="-73" font-family="Helvetica,sans-Serif" font-size="10.00">ThermalConductivityModel</text>
</a>
</g>
</g>
<!-- Node2&#45;&gt;Node1 -->
<g id="edge1_Node000001_Node000002" class="edge">
<title>Node2&#45;&gt;Node1</title>
<g id="a_edge1_Node000001_Node000002"><a xlink:title=" ">
<path fill="none" stroke="#63b8ff" d="M74.5,-55.65C74.5,-47.36 74.5,-37.78 74.5,-30.11"/>
<polygon fill="#63b8ff" stroke="#63b8ff" points="71,-55.87 74.5,-65.87 78,-55.87 71,-55.87"/>
</a>
</g>
</g>
<!-- Node3 -->
<g id="Node000003" class="node">
<title>Node3</title>
<g id="a_Node000003"><a xlink:href="classPhysicalPropertyModel.html" target="_top" xlink:title="Abstract class that defines the interface for a physical property model Physical property model provi...">
<polygon fill="white" stroke="#666666" points="138.5,-140 10.5,-140 10.5,-121 138.5,-121 138.5,-140"/>
<text text-anchor="middle" x="74.5" y="-128" font-family="Helvetica,sans-Serif" font-size="10.00">PhysicalPropertyModel</text>
</a>
</g>
</g>
<!-- Node3&#45;&gt;Node2 -->
<g id="edge2_Node000002_Node000003" class="edge">
<title>Node3&#45;&gt;Node2</title>
<g id="a_edge2_Node000002_Node000003"><a xlink:title=" ">
<path fill="none" stroke="#63b8ff" d="M74.5,-110.66C74.5,-101.93 74.5,-91.99 74.5,-85.09"/>
<polygon fill="#63b8ff" stroke="#63b8ff" points="71,-110.75 74.5,-120.75 78,-110.75 71,-110.75"/>
</a>
</g>
</g>
</g>
</svg>
