<?xml version="1.0" encoding="UTF-8" standalone="no"?>
<!DOCTYPE svg PUBLIC "-//W3C//DTD SVG 1.1//EN"
 "http://www.w3.org/Graphics/SVG/1.1/DTD/svg11.dtd">
<!-- Generated by graphviz version 2.43.0 (0)
 -->
<!-- Title: MFNavierStokesPreconditionGMG&lt; dim &gt; Pages: 1 -->
<svg width="191pt" height="170pt"
 viewBox="0.00 0.00 191.00 170.00" xmlns="http://www.w3.org/2000/svg" xmlns:xlink="http://www.w3.org/1999/xlink">
<g id="graph0" class="graph" transform="scale(1 1) rotate(0) translate(4 166)">
<title>MFNavierStokesPreconditionGMG&lt; dim &gt;</title>
<!-- Node1 -->
<g id="Node000001" class="node">
<title>Node1</title>
<g id="a_Node000001"><a xlink:title="A geometric multigrid preconditioner implementation for incompressible flow.">
<polygon fill="#999999" stroke="#666666" points="170,-96 13,-96 13,-66 170,-66 170,-96"/>
<text text-anchor="start" x="21" y="-84" font-family="Helvetica,sans-Serif" font-size="10.00">MFNavierStokesPrecondition</text>
<text text-anchor="middle" x="91.5" y="-73" font-family="Helvetica,sans-Serif" font-size="10.00">GMG&lt; dim &gt;</text>
</a>
</g>
</g>
<!-- Node3 -->
<g id="Node000003" class="node">
<title>Node3</title>
<g id="a_Node000003"><a xlink:href="classMFNavierStokesVANSPreconditionGMG.html" target="_top" xlink:title="A geometric multigrid preconditioner implementation for incompressible VANS equations.">
<polygon fill="white" stroke="#666666" points="183,-30 0,-30 0,0 183,0 183,-30"/>
<text text-anchor="start" x="8" y="-18" font-family="Helvetica,sans-Serif" font-size="10.00">MFNavierStokesVANSPrecondition</text>
<text text-anchor="middle" x="91.5" y="-7" font-family="Helvetica,sans-Serif" font-size="10.00">GMG&lt; dim &gt;</text>
</a>
</g>
</g>
<!-- Node1&#45;&gt;Node3 -->
<g id="edge2_Node000001_Node000003" class="edge">
<title>Node1&#45;&gt;Node3</title>
<g id="a_edge2_Node000001_Node000003"><a xlink:title=" ">
<path fill="none" stroke="#63b8ff" d="M91.5,-55.54C91.5,-46.96 91.5,-37.61 91.5,-30.16"/>
<polygon fill="#63b8ff" stroke="#63b8ff" points="88,-55.8 91.5,-65.8 95,-55.8 88,-55.8"/>
</a>
</g>
</g>
<!-- Node2 -->
<g id="Node000002" class="node">
<title>Node2</title>
<g id="a_Node000002"><a xlink:href="classMFNavierStokesPreconditionGMGBase.html" target="_top" xlink:title="A geometric multigrid preconditioner compatible with the matrix&#45;free solver.">
<polygon fill="white" stroke="#666666" points="170,-162 13,-162 13,-132 170,-132 170,-162"/>
<text text-anchor="start" x="21" y="-150" font-family="Helvetica,sans-Serif" font-size="10.00">MFNavierStokesPrecondition</text>
<text text-anchor="middle" x="91.5" y="-139" font-family="Helvetica,sans-Serif" font-size="10.00">GMGBase&lt; dim &gt;</text>
</a>
</g>
</g>
<!-- Node2&#45;&gt;Node1 -->
<g id="edge1_Node000001_Node000002" class="edge">
<title>Node2&#45;&gt;Node1</title>
<g id="a_edge1_Node000001_Node000002"><a xlink:title=" ">
<path fill="none" stroke="#63b8ff" d="M91.5,-121.54C91.5,-112.96 91.5,-103.61 91.5,-96.16"/>
<polygon fill="#63b8ff" stroke="#63b8ff" points="88,-121.8 91.5,-131.8 95,-121.8 88,-121.8"/>
</a>
</g>
</g>
</g>
</svg>
