<?xml version="1.0" encoding="UTF-8" standalone="no"?>
<!DOCTYPE svg PUBLIC "-//W3C//DTD SVG 1.1//EN"
 "http://www.w3.org/Graphics/SVG/1.1/DTD/svg11.dtd">
<!-- Generated by graphviz version 2.43.0 (0)
 -->
<!-- Title: SignedDistanceTransformationBase Pages: 1 -->
<svg width="380pt" height="93pt"
 viewBox="0.00 0.00 380.00 93.00" xmlns="http://www.w3.org/2000/svg" xmlns:xlink="http://www.w3.org/1999/xlink">
<g id="graph0" class="graph" transform="scale(1 1) rotate(0) translate(4 89)">
<title>SignedDistanceTransformationBase</title>
<!-- Node1 -->
<g id="Node000001" class="node">
<title>Node1</title>
<g id="a_Node000001"><a xlink:title="Abstract class for the transformation of the signed distance to the phase fraction for the CLS solver...">
<polygon fill="#999999" stroke="#666666" points="275,-85 85,-85 85,-66 275,-66 275,-85"/>
<text text-anchor="middle" x="180" y="-73" font-family="Helvetica,sans-Serif" font-size="10.00">SignedDistanceTransformationBase</text>
</a>
</g>
</g>
<!-- Node2 -->
<g id="Node000002" class="node">
<title>Node2</title>
<g id="a_Node000002"><a xlink:href="classSignedDistanceTransformationPiecewisePolynomial.html" target="_top" xlink:title="Transforms the signed distance to the phase fraction with a piecewise polynomial function (degree 4).">
<polygon fill="white" stroke="#666666" points="166,-30 0,-30 0,0 166,0 166,-30"/>
<text text-anchor="start" x="8" y="-18" font-family="Helvetica,sans-Serif" font-size="10.00">SignedDistanceTransformation</text>
<text text-anchor="middle" x="83" y="-7" font-family="Helvetica,sans-Serif" font-size="10.00">PiecewisePolynomial</text>
</a>
</g>
</g>
<!-- Node1&#45;&gt;Node2 -->
<g id="edge1_Node000001_Node000002" class="edge">
<title>Node1&#45;&gt;Node2</title>
<g id="a_edge1_Node000001_Node000002"><a xlink:title=" ">
<path fill="none" stroke="#63b8ff" d="M156.88,-60.55C141.62,-51.36 121.71,-39.35 106.4,-30.11"/>
<polygon fill="#63b8ff" stroke="#63b8ff" points="155.32,-63.7 165.69,-65.87 158.93,-57.71 155.32,-63.7"/>
</a>
</g>
</g>
<!-- Node3 -->
<g id="Node000003" class="node">
<title>Node3</title>
<g id="a_Node000003"><a xlink:href="classSignedDistanceTransformationTanh.html" target="_top" xlink:title="Transforms the signed distance to the phase fraction with a hyperbolic tangent function.">
<polygon fill="white" stroke="#666666" points="372,-24.5 184,-24.5 184,-5.5 372,-5.5 372,-24.5"/>
<text text-anchor="middle" x="278" y="-12.5" font-family="Helvetica,sans-Serif" font-size="10.00">SignedDistanceTransformationTanh</text>
</a>
</g>
</g>
<!-- Node1&#45;&gt;Node3 -->
<g id="edge2_Node000001_Node000003" class="edge">
<title>Node1&#45;&gt;Node3</title>
<g id="a_edge2_Node000001_Node000003"><a xlink:title=" ">
<path fill="none" stroke="#63b8ff" d="M203.25,-60.62C221.94,-49.46 247.61,-34.14 263.48,-24.67"/>
<polygon fill="#63b8ff" stroke="#63b8ff" points="201.25,-57.74 194.46,-65.87 204.84,-63.75 201.25,-57.74"/>
</a>
</g>
</g>
</g>
</svg>
