<?xml version="1.0" encoding="UTF-8" standalone="no"?>
<!DOCTYPE svg PUBLIC "-//W3C//DTD SVG 1.1//EN"
 "http://www.w3.org/Graphics/SVG/1.1/DTD/svg11.dtd">
<!-- Generated by graphviz version 2.43.0 (0)
 -->
<!-- Title: CFDDEMSolver&lt; dim &gt; Pages: 1 -->
<svg width="172pt" height="280pt"
 viewBox="0.00 0.00 172.00 280.00" xmlns="http://www.w3.org/2000/svg" xmlns:xlink="http://www.w3.org/1999/xlink">
<g id="graph0" class="graph" transform="scale(1 1) rotate(0) translate(4 276)">
<title>CFDDEMSolver&lt; dim &gt;</title>
<!-- Node1 -->
<g id="Node000001" class="node">
<title>Node1</title>
<g id="a_Node000001"><a xlink:title="Solver class for coupled Computational Fluid Dynamics and Discrete Element Method (CFD&#45;DEM) simulatio...">
<polygon fill="#999999" stroke="#666666" points="147.5,-19 16.5,-19 16.5,0 147.5,0 147.5,-19"/>
<text text-anchor="middle" x="82" y="-7" font-family="Helvetica,sans-Serif" font-size="10.00">CFDDEMSolver&lt; dim &gt;</text>
</a>
</g>
</g>
<!-- Node2 -->
<g id="Node000002" class="node">
<title>Node2</title>
<g id="a_Node000002"><a xlink:href="classFluidDynamicsVANS.html" target="_top" xlink:title="Solver class for Volume&#45;Averaged Navier&#45;Stokes (VANS) equations with GLS stabilization.">
<polygon fill="white" stroke="#666666" points="144,-85 20,-85 20,-55 144,-55 144,-85"/>
<text text-anchor="start" x="28" y="-73" font-family="Helvetica,sans-Serif" font-size="10.00">FluidDynamicsVANS&lt;</text>
<text text-anchor="middle" x="82" y="-62" font-family="Helvetica,sans-Serif" font-size="10.00"> dim &gt;</text>
</a>
</g>
</g>
<!-- Node2&#45;&gt;Node1 -->
<g id="edge1_Node000001_Node000002" class="edge">
<title>Node2&#45;&gt;Node1</title>
<g id="a_edge1_Node000001_Node000002"><a xlink:title=" ">
<path fill="none" stroke="#63b8ff" d="M82,-44.75C82,-35.72 82,-26.03 82,-19.27"/>
<polygon fill="#63b8ff" stroke="#63b8ff" points="78.5,-44.84 82,-54.84 85.5,-44.84 78.5,-44.84"/>
</a>
</g>
</g>
<!-- Node3 -->
<g id="Node000003" class="node">
<title>Node3</title>
<g id="a_Node000003"><a xlink:href="classFluidDynamicsMatrixBased.html" target="_top" xlink:title="A solver class for the Navier&#45;Stokes equation using GLS stabilization.">
<polygon fill="white" stroke="#666666" points="157.5,-151 6.5,-151 6.5,-121 157.5,-121 157.5,-151"/>
<text text-anchor="start" x="14.5" y="-139" font-family="Helvetica,sans-Serif" font-size="10.00">FluidDynamicsMatrixBased</text>
<text text-anchor="middle" x="82" y="-128" font-family="Helvetica,sans-Serif" font-size="10.00">&lt; dim &gt;</text>
</a>
</g>
</g>
<!-- Node3&#45;&gt;Node2 -->
<g id="edge2_Node000002_Node000003" class="edge">
<title>Node3&#45;&gt;Node2</title>
<g id="a_edge2_Node000002_Node000003"><a xlink:title=" ">
<path fill="none" stroke="#63b8ff" d="M82,-110.54C82,-101.96 82,-92.61 82,-85.16"/>
<polygon fill="#63b8ff" stroke="#63b8ff" points="78.5,-110.8 82,-120.8 85.5,-110.8 78.5,-110.8"/>
</a>
</g>
</g>
<!-- Node4 -->
<g id="Node000004" class="node">
<title>Node4</title>
<g id="a_Node000004"><a xlink:href="classNavierStokesBase.html" target="_top" xlink:title=" ">
<polygon fill="white" stroke="#666666" points="164,-217 0,-217 0,-187 164,-187 164,-217"/>
<text text-anchor="start" x="8" y="-205" font-family="Helvetica,sans-Serif" font-size="10.00">NavierStokesBase&lt; dim,</text>
<text text-anchor="middle" x="82" y="-194" font-family="Helvetica,sans-Serif" font-size="10.00"> GlobalVectorType, IndexSet &gt;</text>
</a>
</g>
</g>
<!-- Node4&#45;&gt;Node3 -->
<g id="edge3_Node000003_Node000004" class="edge">
<title>Node4&#45;&gt;Node3</title>
<g id="a_edge3_Node000003_Node000004"><a xlink:title=" ">
<path fill="none" stroke="#63b8ff" d="M82,-176.54C82,-167.96 82,-158.61 82,-151.16"/>
<polygon fill="#63b8ff" stroke="#63b8ff" points="78.5,-176.8 82,-186.8 85.5,-176.8 78.5,-176.8"/>
</a>
</g>
</g>
<!-- Node5 -->
<g id="Node000005" class="node">
<title>Node5</title>
<g id="a_Node000005"><a xlink:href="classPhysicsSolver.html" target="_top" xlink:title="Contain all the common elements of a physics solver. It creates the non&#45;linear solver as specified by...">
<polygon fill="white" stroke="#666666" points="162,-272 2,-272 2,-253 162,-253 162,-272"/>
<text text-anchor="middle" x="82" y="-260" font-family="Helvetica,sans-Serif" font-size="10.00">PhysicsSolver&lt; VectorType &gt;</text>
</a>
</g>
</g>
<!-- Node5&#45;&gt;Node4 -->
<g id="edge4_Node000004_Node000005" class="edge">
<title>Node5&#45;&gt;Node4</title>
<g id="a_edge4_Node000004_Node000005"><a xlink:title=" ">
<path fill="none" stroke="#63b8ff" d="M82,-242.65C82,-234.36 82,-224.78 82,-217.11"/>
<polygon fill="#63b8ff" stroke="#63b8ff" points="78.5,-242.87 82,-252.87 85.5,-242.87 78.5,-242.87"/>
</a>
</g>
</g>
</g>
</svg>
