<?xml version="1.0" encoding="UTF-8" standalone="no"?>
<!DOCTYPE svg PUBLIC "-//W3C//DTD SVG 1.1//EN"
 "http://www.w3.org/Graphics/SVG/1.1/DTD/svg11.dtd">
<!-- Generated by graphviz version 2.43.0 (0)
 -->
<!-- Title: DensityModel Pages: 1 -->
<svg width="274pt" height="137pt"
 viewBox="0.00 0.00 273.50 137.00" xmlns="http://www.w3.org/2000/svg" xmlns:xlink="http://www.w3.org/1999/xlink">
<g id="graph0" class="graph" transform="scale(1 1) rotate(0) translate(4 133)">
<title>DensityModel</title>
<!-- Node1 -->
<g id="Node000001" class="node">
<title>Node1</title>
<g id="a_Node000001"><a xlink:title="Abstract class for calculating the density of materials.">
<polygon fill="#999999" stroke="#666666" points="162,-74 78,-74 78,-55 162,-55 162,-74"/>
<text text-anchor="middle" x="120" y="-62" font-family="Helvetica,sans-Serif" font-size="10.00">DensityModel</text>
</a>
</g>
</g>
<!-- Node3 -->
<g id="Node000003" class="node">
<title>Node3</title>
<g id="a_Node000003"><a xlink:href="classDensityConstant.html" target="_top" xlink:title="Constant density model.">
<polygon fill="white" stroke="#666666" points="98,-19 0,-19 0,0 98,0 98,-19"/>
<text text-anchor="middle" x="49" y="-7" font-family="Helvetica,sans-Serif" font-size="10.00">DensityConstant</text>
</a>
</g>
</g>
<!-- Node1&#45;&gt;Node3 -->
<g id="edge2_Node000001_Node000003" class="edge">
<title>Node1&#45;&gt;Node3</title>
<g id="a_edge2_Node000001_Node000003"><a xlink:title=" ">
<path fill="none" stroke="#63b8ff" d="M100.41,-48.88C87.63,-39.34 71.39,-27.21 60.61,-19.17"/>
<polygon fill="#63b8ff" stroke="#63b8ff" points="98.49,-51.81 108.59,-54.98 102.67,-46.2 98.49,-51.81"/>
</a>
</g>
</g>
<!-- Node4 -->
<g id="Node000004" class="node">
<title>Node4</title>
<g id="a_Node000004"><a xlink:href="classDensityIsothermalIdealGas.html" target="_top" xlink:title="Isothermal ideal gas density.">
<polygon fill="white" stroke="#666666" points="265.5,-19 116.5,-19 116.5,0 265.5,0 265.5,-19"/>
<text text-anchor="middle" x="191" y="-7" font-family="Helvetica,sans-Serif" font-size="10.00">DensityIsothermalIdealGas</text>
</a>
</g>
</g>
<!-- Node1&#45;&gt;Node4 -->
<g id="edge3_Node000001_Node000004" class="edge">
<title>Node1&#45;&gt;Node4</title>
<g id="a_edge3_Node000001_Node000004"><a xlink:title=" ">
<path fill="none" stroke="#63b8ff" d="M139.59,-48.88C152.37,-39.34 168.61,-27.21 179.39,-19.17"/>
<polygon fill="#63b8ff" stroke="#63b8ff" points="137.33,-46.2 131.41,-54.98 141.51,-51.81 137.33,-46.2"/>
</a>
</g>
</g>
<!-- Node2 -->
<g id="Node000002" class="node">
<title>Node2</title>
<g id="a_Node000002"><a xlink:href="classPhysicalPropertyModel.html" target="_top" xlink:title="Abstract class that defines the interface for a physical property model Physical property model provi...">
<polygon fill="white" stroke="#666666" points="184,-129 56,-129 56,-110 184,-110 184,-129"/>
<text text-anchor="middle" x="120" y="-117" font-family="Helvetica,sans-Serif" font-size="10.00">PhysicalPropertyModel</text>
</a>
</g>
</g>
<!-- Node2&#45;&gt;Node1 -->
<g id="edge1_Node000001_Node000002" class="edge">
<title>Node2&#45;&gt;Node1</title>
<g id="a_edge1_Node000001_Node000002"><a xlink:title=" ">
<path fill="none" stroke="#63b8ff" d="M120,-99.66C120,-90.93 120,-80.99 120,-74.09"/>
<polygon fill="#63b8ff" stroke="#63b8ff" points="116.5,-99.75 120,-109.75 123.5,-99.75 116.5,-99.75"/>
</a>
</g>
</g>
</g>
</svg>
