<?xml version="1.0" encoding="UTF-8" standalone="no"?>
<!DOCTYPE svg PUBLIC "-//W3C//DTD SVG 1.1//EN"
 "http://www.w3.org/Graphics/SVG/1.1/DTD/svg11.dtd">
<!-- Generated by graphviz version 2.43.0 (0)
 -->
<!-- Title: CouplingEvaluationBase&lt; dim, Number &gt; Pages: 1 -->
<svg width="359pt" height="86pt"
 viewBox="0.00 0.00 359.00 86.00" xmlns="http://www.w3.org/2000/svg" xmlns:xlink="http://www.w3.org/1999/xlink">
<g id="graph0" class="graph" transform="scale(1 1) rotate(0) translate(4 82)">
<title>CouplingEvaluationBase&lt; dim, Number &gt;</title>
<!-- Node1 -->
<g id="Node000001" class="node">
<title>Node1</title>
<g id="a_Node000001"><a xlink:title="Base class for coupling evaluation routines.">
<polygon fill="#999999" stroke="#666666" points="135,-54 0,-54 0,-24 135,-24 135,-54"/>
<text text-anchor="start" x="8" y="-42" font-family="Helvetica,sans-Serif" font-size="10.00">CouplingEvaluationBase</text>
<text text-anchor="middle" x="67.5" y="-31" font-family="Helvetica,sans-Serif" font-size="10.00">&lt; dim, Number &gt;</text>
</a>
</g>
</g>
<!-- Node2 -->
<g id="Node000002" class="node">
<title>Node2</title>
<g id="a_Node000002"><a xlink:href="classCouplingEvaluationSIPG.html" target="_top" xlink:title=" ">
<polygon fill="white" stroke="#666666" points="351,-78 171,-78 171,-48 351,-48 351,-78"/>
<text text-anchor="start" x="179" y="-66" font-family="Helvetica,sans-Serif" font-size="10.00">CouplingEvaluationSIPG</text>
<text text-anchor="middle" x="261" y="-55" font-family="Helvetica,sans-Serif" font-size="10.00">&lt; dim, n_components, Number &gt;</text>
</a>
</g>
</g>
<!-- Node1&#45;&gt;Node2 -->
<g id="edge1_Node000001_Node000002" class="edge">
<title>Node1&#45;&gt;Node2</title>
<g id="a_edge1_Node000001_Node000002"><a xlink:title=" ">
<path fill="none" stroke="#63b8ff" d="M145.36,-48.63C153.78,-49.69 162.41,-50.77 170.96,-51.84"/>
<polygon fill="#63b8ff" stroke="#63b8ff" points="145.57,-45.13 135.21,-47.36 144.7,-52.08 145.57,-45.13"/>
</a>
</g>
</g>
<!-- Node3 -->
<g id="Node000003" class="node">
<title>Node3</title>
<g id="a_Node000003"><a xlink:href="classNavierStokesCouplingEvaluation.html" target="_top" xlink:title=" ">
<polygon fill="white" stroke="#666666" points="349,-30 173,-30 173,0 349,0 349,-30"/>
<text text-anchor="start" x="181" y="-18" font-family="Helvetica,sans-Serif" font-size="10.00">NavierStokesCouplingEvaluation</text>
<text text-anchor="middle" x="261" y="-7" font-family="Helvetica,sans-Serif" font-size="10.00">&lt; dim, Number &gt;</text>
</a>
</g>
</g>
<!-- Node1&#45;&gt;Node3 -->
<g id="edge2_Node000001_Node000003" class="edge">
<title>Node1&#45;&gt;Node3</title>
<g id="a_edge2_Node000001_Node000003"><a xlink:title=" ">
<path fill="none" stroke="#63b8ff" d="M145.35,-29.37C154.44,-28.23 163.77,-27.06 172.98,-25.91"/>
<polygon fill="#63b8ff" stroke="#63b8ff" points="144.7,-25.92 135.21,-30.64 145.57,-32.87 144.7,-25.92"/>
</a>
</g>
</g>
</g>
</svg>
