<?xml version="1.0" encoding="UTF-8" standalone="no"?>
<!DOCTYPE svg PUBLIC "-//W3C//DTD SVG 1.1//EN"
 "http://www.w3.org/Graphics/SVG/1.1/DTD/svg11.dtd">
<!-- Generated by graphviz version 2.43.0 (0)
 -->
<!-- Title: VOFLinearSubequationsSolver&lt; dim &gt; Pages: 1 -->
<svg width="318pt" height="225pt"
 viewBox="0.00 0.00 317.50 225.00" xmlns="http://www.w3.org/2000/svg" xmlns:xlink="http://www.w3.org/1999/xlink">
<g id="graph0" class="graph" transform="scale(1 1) rotate(0) translate(4 221)">
<title>VOFLinearSubequationsSolver&lt; dim &gt;</title>
<!-- Node1 -->
<g id="Node000001" class="node">
<title>Node1</title>
<g id="a_Node000001"><a xlink:title="Generalized solver for VOF linear subequations.">
<polygon fill="#999999" stroke="#666666" points="231,-96 67,-96 67,-66 231,-66 231,-96"/>
<text text-anchor="start" x="75" y="-84" font-family="Helvetica,sans-Serif" font-size="10.00">VOFLinearSubequationsSolver</text>
<text text-anchor="middle" x="149" y="-73" font-family="Helvetica,sans-Serif" font-size="10.00">&lt; dim &gt;</text>
</a>
</g>
</g>
<!-- Node4 -->
<g id="Node000004" class="node">
<title>Node4</title>
<g id="a_Node000004"><a xlink:href="classVOFCurvatureProjection.html" target="_top" xlink:title="VOF curvature L2 projection solver.">
<polygon fill="white" stroke="#666666" points="134,-30 0,-30 0,0 134,0 134,-30"/>
<text text-anchor="start" x="8" y="-18" font-family="Helvetica,sans-Serif" font-size="10.00">VOFCurvatureProjection</text>
<text text-anchor="middle" x="67" y="-7" font-family="Helvetica,sans-Serif" font-size="10.00">&lt; dim &gt;</text>
</a>
</g>
</g>
<!-- Node1&#45;&gt;Node4 -->
<g id="edge3_Node000001_Node000004" class="edge">
<title>Node1&#45;&gt;Node4</title>
<g id="a_edge3_Node000001_Node000004"><a xlink:title=" ">
<path fill="none" stroke="#63b8ff" d="M122.71,-59.48C110.45,-49.91 96.18,-38.77 85.15,-30.16"/>
<polygon fill="#63b8ff" stroke="#63b8ff" points="120.76,-62.4 130.8,-65.8 125.07,-56.88 120.76,-62.4"/>
</a>
</g>
</g>
<!-- Node5 -->
<g id="Node000005" class="node">
<title>Node5</title>
<g id="a_Node000005"><a xlink:href="classVOFPhaseGradientProjection.html" target="_top" xlink:title="VOF phase fraction gradient L2 projection solver.">
<polygon fill="white" stroke="#666666" points="309.5,-30 152.5,-30 152.5,0 309.5,0 309.5,-30"/>
<text text-anchor="start" x="160.5" y="-18" font-family="Helvetica,sans-Serif" font-size="10.00">VOFPhaseGradientProjection</text>
<text text-anchor="middle" x="231" y="-7" font-family="Helvetica,sans-Serif" font-size="10.00">&lt; dim &gt;</text>
</a>
</g>
</g>
<!-- Node1&#45;&gt;Node5 -->
<g id="edge4_Node000001_Node000005" class="edge">
<title>Node1&#45;&gt;Node5</title>
<g id="a_edge4_Node000001_Node000005"><a xlink:title=" ">
<path fill="none" stroke="#63b8ff" d="M175.29,-59.48C187.55,-49.91 201.82,-38.77 212.85,-30.16"/>
<polygon fill="#63b8ff" stroke="#63b8ff" points="172.93,-56.88 167.2,-65.8 177.24,-62.4 172.93,-56.88"/>
</a>
</g>
</g>
<!-- Node2 -->
<g id="Node000002" class="node">
<title>Node2</title>
<g id="a_Node000002"><a xlink:href="classPhysicsLinearSubequationsSolver.html" target="_top" xlink:title="Linear subequations solved inside a physics (or auxiliary physics) that are not part of the main set ...">
<polygon fill="white" stroke="#666666" points="223.5,-162 74.5,-162 74.5,-132 223.5,-132 223.5,-162"/>
<text text-anchor="start" x="82.5" y="-150" font-family="Helvetica,sans-Serif" font-size="10.00">PhysicsLinearSubequations</text>
<text text-anchor="middle" x="149" y="-139" font-family="Helvetica,sans-Serif" font-size="10.00">Solver</text>
</a>
</g>
</g>
<!-- Node2&#45;&gt;Node1 -->
<g id="edge1_Node000001_Node000002" class="edge">
<title>Node2&#45;&gt;Node1</title>
<g id="a_edge1_Node000001_Node000002"><a xlink:title=" ">
<path fill="none" stroke="#63b8ff" d="M149,-121.54C149,-112.96 149,-103.61 149,-96.16"/>
<polygon fill="#63b8ff" stroke="#63b8ff" points="145.5,-121.8 149,-131.8 152.5,-121.8 145.5,-121.8"/>
</a>
</g>
</g>
<!-- Node3 -->
<g id="Node000003" class="node">
<title>Node3</title>
<g id="a_Node000003"><a xlink:href="classPhysicsSubequationsSolverBase.html" target="_top" xlink:title="Base class to solve subequations solved inside a physics (or auxiliary physics) that are not part of ...">
<polygon fill="white" stroke="#666666" points="236,-217 62,-217 62,-198 236,-198 236,-217"/>
<text text-anchor="middle" x="149" y="-205" font-family="Helvetica,sans-Serif" font-size="10.00">PhysicsSubequationsSolverBase</text>
</a>
</g>
</g>
<!-- Node3&#45;&gt;Node2 -->
<g id="edge2_Node000002_Node000003" class="edge">
<title>Node3&#45;&gt;Node2</title>
<g id="a_edge2_Node000002_Node000003"><a xlink:title=" ">
<path fill="none" stroke="#63b8ff" d="M149,-187.65C149,-179.36 149,-169.78 149,-162.11"/>
<polygon fill="#63b8ff" stroke="#63b8ff" points="145.5,-187.87 149,-197.87 152.5,-187.87 145.5,-187.87"/>
</a>
</g>
</g>
</g>
</svg>
