<?xml version="1.0" encoding="UTF-8" standalone="no"?>
<!DOCTYPE svg PUBLIC "-//W3C//DTD SVG 1.1//EN"
 "http://www.w3.org/Graphics/SVG/1.1/DTD/svg11.dtd">
<!-- Generated by graphviz version 2.43.0 (0)
 -->
<!-- Title: /home/runner/work/lethe/lethe/include/solvers/cls_subequations_interface.h Pages: 1 -->
<svg width="1079pt" height="302pt"
 viewBox="0.00 0.00 1079.13 302.00" xmlns="http://www.w3.org/2000/svg" xmlns:xlink="http://www.w3.org/1999/xlink">
<g id="graph0" class="graph" transform="scale(1 1) rotate(0) translate(4 298)">
<title>/home/runner/work/lethe/lethe/include/solvers/cls_subequations_interface.h</title>
<!-- Node1 -->
<g id="Node000001" class="node">
<title>Node1</title>
<g id="a_Node000001"><a xlink:title=" ">
<polygon fill="#999999" stroke="#666666" points="886.5,-294 725.5,-294 725.5,-253 886.5,-253 886.5,-294"/>
<text text-anchor="start" x="733.5" y="-282" font-family="Helvetica,sans-Serif" font-size="10.00">/home/runner/work/lethe</text>
<text text-anchor="start" x="733.5" y="-271" font-family="Helvetica,sans-Serif" font-size="10.00">/lethe/include/solvers</text>
<text text-anchor="middle" x="806" y="-260" font-family="Helvetica,sans-Serif" font-size="10.00">/cls_subequations_interface.h</text>
</a>
</g>
</g>
<!-- Node2 -->
<g id="Node000002" class="node">
<title>Node2</title>
<g id="a_Node000002"><a xlink:href="cls_8h.html" target="_top" xlink:title=" ">
<polygon fill="white" stroke="#666666" points="303,-118 157,-118 157,-88 303,-88 303,-118"/>
<text text-anchor="start" x="165" y="-106" font-family="Helvetica,sans-Serif" font-size="10.00">/home/runner/work/lethe</text>
<text text-anchor="middle" x="230" y="-95" font-family="Helvetica,sans-Serif" font-size="10.00">/lethe/include/solvers/cls.h</text>
</a>
</g>
</g>
<!-- Node1&#45;&gt;Node2 -->
<g id="edge1_Node000001_Node000002" class="edge">
<title>Node1&#45;&gt;Node2</title>
<g id="a_edge1_Node000001_Node000002"><a xlink:title=" ">
<path fill="none" stroke="#63b8ff" d="M715.29,-252.76C671.99,-242.87 619.58,-230.2 573,-217 461.55,-185.43 332.32,-140.57 269.02,-118.05"/>
<polygon fill="#63b8ff" stroke="#63b8ff" points="714.7,-256.22 725.23,-255.03 716.26,-249.4 714.7,-256.22"/>
</a>
</g>
</g>
<!-- Node5 -->
<g id="Node000005" class="node">
<title>Node5</title>
<g id="a_Node000005"><a xlink:href="cls__linear__subequations__solver_8h.html" target="_top" xlink:title=" ">
<polygon fill="white" stroke="#666666" points="719.5,-217 582.5,-217 582.5,-165 719.5,-165 719.5,-217"/>
<text text-anchor="start" x="590.5" y="-205" font-family="Helvetica,sans-Serif" font-size="10.00">/home/runner/work/lethe</text>
<text text-anchor="start" x="590.5" y="-194" font-family="Helvetica,sans-Serif" font-size="10.00">/lethe/include/solvers</text>
<text text-anchor="start" x="590.5" y="-183" font-family="Helvetica,sans-Serif" font-size="10.00">/cls_linear_subequations</text>
<text text-anchor="middle" x="651" y="-172" font-family="Helvetica,sans-Serif" font-size="10.00">_solver.h</text>
</a>
</g>
</g>
<!-- Node1&#45;&gt;Node5 -->
<g id="edge4_Node000001_Node000005" class="edge">
<title>Node1&#45;&gt;Node5</title>
<g id="a_edge4_Node000001_Node000005"><a xlink:title=" ">
<path fill="none" stroke="#63b8ff" d="M759.07,-248.13C740.18,-238.32 718.41,-227.01 699.38,-217.13"/>
<polygon fill="#63b8ff" stroke="#63b8ff" points="757.6,-251.3 768.08,-252.81 760.82,-245.09 757.6,-251.3"/>
</a>
</g>
</g>
<!-- Node8 -->
<g id="Node000008" class="node">
<title>Node8</title>
<g id="a_Node000008"><a xlink:href="cls__subequations__interface_8cc.html" target="_top" xlink:title=" ">
<polygon fill="white" stroke="#666666" points="930,-41 764,-41 764,0 930,0 930,-41"/>
<text text-anchor="start" x="772" y="-29" font-family="Helvetica,sans-Serif" font-size="10.00">/home/runner/work/lethe</text>
<text text-anchor="start" x="772" y="-18" font-family="Helvetica,sans-Serif" font-size="10.00">/lethe/source/solvers</text>
<text text-anchor="middle" x="847" y="-7" font-family="Helvetica,sans-Serif" font-size="10.00">/cls_subequations_interface.cc</text>
</a>
</g>
</g>
<!-- Node1&#45;&gt;Node8 -->
<g id="edge17_Node000001_Node000008" class="edge">
<title>Node1&#45;&gt;Node8</title>
<g id="a_edge17_Node000001_Node000008"><a xlink:title=" ">
<path fill="none" stroke="#63b8ff" d="M896.29,-251.55C957.59,-231.7 1032.65,-194.81 1062,-129 1071.41,-107.89 1076.15,-95.27 1062,-77 1045.56,-55.78 983.39,-41.23 930.11,-32.36"/>
<polygon fill="#63b8ff" stroke="#63b8ff" points="895.07,-248.26 886.58,-254.59 897.16,-254.94 895.07,-248.26"/>
</a>
</g>
</g>
<!-- Node12 -->
<g id="Node000012" class="node">
<title>Node12</title>
<g id="a_Node000012"><a xlink:href="cls__pde__based__interface__reinitialization_8h.html" target="_top" xlink:title=" ">
<polygon fill="white" stroke="#666666" points="955,-217 815,-217 815,-165 955,-165 955,-217"/>
<text text-anchor="start" x="823" y="-205" font-family="Helvetica,sans-Serif" font-size="10.00">/home/runner/work/lethe</text>
<text text-anchor="start" x="823" y="-194" font-family="Helvetica,sans-Serif" font-size="10.00">/lethe/include/solvers</text>
<text text-anchor="start" x="823" y="-183" font-family="Helvetica,sans-Serif" font-size="10.00">/cls_pde_based_interface</text>
<text text-anchor="middle" x="885" y="-172" font-family="Helvetica,sans-Serif" font-size="10.00">_reinitialization.h</text>
</a>
</g>
</g>
<!-- Node1&#45;&gt;Node12 -->
<g id="edge14_Node000001_Node000012" class="edge">
<title>Node1&#45;&gt;Node12</title>
<g id="a_edge14_Node000001_Node000012"><a xlink:title=" ">
<path fill="none" stroke="#63b8ff" d="M832.75,-245.25C841.67,-236.16 851.56,-226.08 860.31,-217.16"/>
<polygon fill="#63b8ff" stroke="#63b8ff" points="830.03,-243.01 825.53,-252.6 835.03,-247.92 830.03,-243.01"/>
</a>
</g>
</g>
<!-- Node3 -->
<g id="Node000003" class="node">
<title>Node3</title>
<g id="a_Node000003"><a xlink:href="cls_8cc.html" target="_top" xlink:title=" ">
<polygon fill="white" stroke="#666666" points="299.5,-41 162.5,-41 162.5,0 299.5,0 299.5,-41"/>
<text text-anchor="start" x="170.5" y="-29" font-family="Helvetica,sans-Serif" font-size="10.00">/home/runner/work/lethe</text>
<text text-anchor="start" x="170.5" y="-18" font-family="Helvetica,sans-Serif" font-size="10.00">/lethe/source/solvers</text>
<text text-anchor="middle" x="231" y="-7" font-family="Helvetica,sans-Serif" font-size="10.00">/cls.cc</text>
</a>
</g>
</g>
<!-- Node2&#45;&gt;Node3 -->
<g id="edge2_Node000002_Node000003" class="edge">
<title>Node2&#45;&gt;Node3</title>
<g id="a_edge2_Node000002_Node000003"><a xlink:title=" ">
<path fill="none" stroke="#63b8ff" d="M230.3,-77.94C230.45,-66.17 230.62,-52.19 230.76,-41.09"/>
<polygon fill="#63b8ff" stroke="#63b8ff" points="226.8,-77.94 230.17,-87.98 233.8,-78.02 226.8,-77.94"/>
</a>
</g>
</g>
<!-- Node4 -->
<g id="Node000004" class="node">
<title>Node4</title>
<g id="a_Node000004"><a xlink:href="multiphysics__interface_8cc.html" target="_top" xlink:title=" ">
<polygon fill="white" stroke="#666666" points="144,-41 0,-41 0,0 144,0 144,-41"/>
<text text-anchor="start" x="8" y="-29" font-family="Helvetica,sans-Serif" font-size="10.00">/home/runner/work/lethe</text>
<text text-anchor="start" x="8" y="-18" font-family="Helvetica,sans-Serif" font-size="10.00">/lethe/source/solvers</text>
<text text-anchor="middle" x="72" y="-7" font-family="Helvetica,sans-Serif" font-size="10.00">/multiphysics_interface.cc</text>
</a>
</g>
</g>
<!-- Node2&#45;&gt;Node4 -->
<g id="edge3_Node000002_Node000004" class="edge">
<title>Node2&#45;&gt;Node4</title>
<g id="a_edge3_Node000002_Node000004"><a xlink:title=" ">
<path fill="none" stroke="#63b8ff" d="M193.37,-83.34C168.51,-70.67 135.69,-53.95 110.45,-41.09"/>
<polygon fill="#63b8ff" stroke="#63b8ff" points="191.98,-86.56 202.48,-87.98 195.16,-80.32 191.98,-86.56"/>
</a>
</g>
</g>
<!-- Node5&#45;&gt;Node2 -->
<g id="edge5_Node000005_Node000002" class="edge">
<title>Node5&#45;&gt;Node2</title>
<g id="a_edge5_Node000005_Node000002"><a xlink:title=" ">
<path fill="none" stroke="#63b8ff" d="M572.39,-178.55C503.33,-167.85 400.37,-150.34 312,-129 299.12,-125.89 285.29,-121.92 272.72,-118.07"/>
<polygon fill="#63b8ff" stroke="#63b8ff" points="571.91,-182.02 582.33,-180.08 572.98,-175.1 571.91,-182.02"/>
</a>
</g>
</g>
<!-- Node6 -->
<g id="Node000006" class="node">
<title>Node6</title>
<g id="a_Node000006"><a xlink:href="cls__curvature__projection_8h.html" target="_top" xlink:title=" ">
<polygon fill="white" stroke="#666666" points="469,-123.5 321,-123.5 321,-82.5 469,-82.5 469,-123.5"/>
<text text-anchor="start" x="329" y="-111.5" font-family="Helvetica,sans-Serif" font-size="10.00">/home/runner/work/lethe</text>
<text text-anchor="start" x="329" y="-100.5" font-family="Helvetica,sans-Serif" font-size="10.00">/lethe/include/solvers</text>
<text text-anchor="middle" x="395" y="-89.5" font-family="Helvetica,sans-Serif" font-size="10.00">/cls_curvature_projection.h</text>
</a>
</g>
</g>
<!-- Node5&#45;&gt;Node6 -->
<g id="edge6_Node000005_Node000006" class="edge">
<title>Node5&#45;&gt;Node6</title>
<g id="a_edge6_Node000005_Node000006"><a xlink:title=" ">
<path fill="none" stroke="#63b8ff" d="M572.78,-163.72C534.31,-150.8 488.74,-135.49 453.37,-123.61"/>
<polygon fill="#63b8ff" stroke="#63b8ff" points="571.8,-167.09 582.4,-166.95 574.03,-160.45 571.8,-167.09"/>
</a>
</g>
</g>
<!-- Node5&#45;&gt;Node8 -->
<g id="edge13_Node000005_Node000008" class="edge">
<title>Node5&#45;&gt;Node8</title>
<g id="a_edge13_Node000005_Node000008"><a xlink:title=" ">
<path fill="none" stroke="#63b8ff" d="M729.75,-180.65C764.37,-172.52 802.62,-157.33 827,-129 848.17,-104.39 849.98,-64.7 848.85,-41.05"/>
<polygon fill="#63b8ff" stroke="#63b8ff" points="728.65,-177.31 719.62,-182.86 730.14,-184.15 728.65,-177.31"/>
</a>
</g>
</g>
<!-- Node9 -->
<g id="Node000009" class="node">
<title>Node9</title>
<g id="a_Node000009"><a xlink:href="cls__phase__gradient__projection_8h.html" target="_top" xlink:title=" ">
<polygon fill="white" stroke="#666666" points="663,-123.5 487,-123.5 487,-82.5 663,-82.5 663,-123.5"/>
<text text-anchor="start" x="495" y="-111.5" font-family="Helvetica,sans-Serif" font-size="10.00">/home/runner/work/lethe</text>
<text text-anchor="start" x="495" y="-100.5" font-family="Helvetica,sans-Serif" font-size="10.00">/lethe/include/solvers</text>
<text text-anchor="middle" x="575" y="-89.5" font-family="Helvetica,sans-Serif" font-size="10.00">/cls_phase_gradient_projection.h</text>
</a>
</g>
</g>
<!-- Node5&#45;&gt;Node9 -->
<g id="edge9_Node000005_Node000009" class="edge">
<title>Node5&#45;&gt;Node9</title>
<g id="a_edge9_Node000005_Node000009"><a xlink:title=" ">
<path fill="none" stroke="#63b8ff" d="M621.9,-157.07C611.95,-145.81 601.14,-133.58 592.41,-123.7"/>
<polygon fill="#63b8ff" stroke="#63b8ff" points="619.36,-159.49 628.61,-164.66 624.61,-154.85 619.36,-159.49"/>
</a>
</g>
</g>
<!-- Node11 -->
<g id="Node000011" class="node">
<title>Node11</title>
<g id="a_Node000011"><a xlink:href="cls__linear__subequations__solver_8cc.html" target="_top" xlink:title=" ">
<polygon fill="white" stroke="#666666" points="818.5,-129 681.5,-129 681.5,-77 818.5,-77 818.5,-129"/>
<text text-anchor="start" x="689.5" y="-117" font-family="Helvetica,sans-Serif" font-size="10.00">/home/runner/work/lethe</text>
<text text-anchor="start" x="689.5" y="-106" font-family="Helvetica,sans-Serif" font-size="10.00">/lethe/source/solvers</text>
<text text-anchor="start" x="689.5" y="-95" font-family="Helvetica,sans-Serif" font-size="10.00">/cls_linear_subequations</text>
<text text-anchor="middle" x="750" y="-84" font-family="Helvetica,sans-Serif" font-size="10.00">_solver.cc</text>
</a>
</g>
</g>
<!-- Node5&#45;&gt;Node11 -->
<g id="edge12_Node000005_Node000011" class="edge">
<title>Node5&#45;&gt;Node11</title>
<g id="a_edge12_Node000005_Node000011"><a xlink:title=" ">
<path fill="none" stroke="#63b8ff" d="M687.68,-158.13C698.64,-148.62 710.49,-138.32 720.89,-129.29"/>
<polygon fill="#63b8ff" stroke="#63b8ff" points="685.16,-155.69 679.9,-164.89 689.75,-160.98 685.16,-155.69"/>
</a>
</g>
</g>
<!-- Node7 -->
<g id="Node000007" class="node">
<title>Node7</title>
<g id="a_Node000007"><a xlink:href="cls__curvature__projection_8cc.html" target="_top" xlink:title=" ">
<polygon fill="white" stroke="#666666" points="471,-41 319,-41 319,0 471,0 471,-41"/>
<text text-anchor="start" x="327" y="-29" font-family="Helvetica,sans-Serif" font-size="10.00">/home/runner/work/lethe</text>
<text text-anchor="start" x="327" y="-18" font-family="Helvetica,sans-Serif" font-size="10.00">/lethe/source/solvers</text>
<text text-anchor="middle" x="395" y="-7" font-family="Helvetica,sans-Serif" font-size="10.00">/cls_curvature_projection.cc</text>
</a>
</g>
</g>
<!-- Node6&#45;&gt;Node7 -->
<g id="edge7_Node000006_Node000007" class="edge">
<title>Node6&#45;&gt;Node7</title>
<g id="a_edge7_Node000006_Node000007"><a xlink:title=" ">
<path fill="none" stroke="#63b8ff" d="M395,-71.87C395,-61.6 395,-50.4 395,-41.17"/>
<polygon fill="#63b8ff" stroke="#63b8ff" points="391.5,-72.1 395,-82.1 398.5,-72.1 391.5,-72.1"/>
</a>
</g>
</g>
<!-- Node6&#45;&gt;Node8 -->
<g id="edge8_Node000006_Node000008" class="edge">
<title>Node6&#45;&gt;Node8</title>
<g id="a_edge8_Node000006_Node000008"><a xlink:title=" ">
<path fill="none" stroke="#63b8ff" d="M466.25,-79.83C470.21,-78.82 474.15,-77.87 478,-77 575.18,-55.17 688.73,-39.55 763.93,-30.54"/>
<polygon fill="#63b8ff" stroke="#63b8ff" points="465.15,-76.5 456.38,-82.44 466.94,-83.26 465.15,-76.5"/>
</a>
</g>
</g>
<!-- Node9&#45;&gt;Node8 -->
<g id="edge11_Node000009_Node000008" class="edge">
<title>Node9&#45;&gt;Node8</title>
<g id="a_edge11_Node000009_Node000008"><a xlink:title=" ">
<path fill="none" stroke="#63b8ff" d="M650.84,-79.55C691.73,-67.45 741.71,-52.66 780.98,-41.04"/>
<polygon fill="#63b8ff" stroke="#63b8ff" points="649.79,-76.22 641.19,-82.41 651.77,-82.93 649.79,-76.22"/>
</a>
</g>
</g>
<!-- Node10 -->
<g id="Node000010" class="node">
<title>Node10</title>
<g id="a_Node000010"><a xlink:href="cls__phase__gradient__projection_8cc.html" target="_top" xlink:title=" ">
<polygon fill="white" stroke="#666666" points="670.5,-41 489.5,-41 489.5,0 670.5,0 670.5,-41"/>
<text text-anchor="start" x="497.5" y="-29" font-family="Helvetica,sans-Serif" font-size="10.00">/home/runner/work/lethe</text>
<text text-anchor="start" x="497.5" y="-18" font-family="Helvetica,sans-Serif" font-size="10.00">/lethe/source/solvers</text>
<text text-anchor="middle" x="580" y="-7" font-family="Helvetica,sans-Serif" font-size="10.00">/cls_phase_gradient_projection.cc</text>
</a>
</g>
</g>
<!-- Node9&#45;&gt;Node10 -->
<g id="edge10_Node000009_Node000010" class="edge">
<title>Node9&#45;&gt;Node10</title>
<g id="a_edge10_Node000009_Node000010"><a xlink:title=" ">
<path fill="none" stroke="#63b8ff" d="M576.87,-71.87C577.51,-61.6 578.21,-50.4 578.78,-41.17"/>
<polygon fill="#63b8ff" stroke="#63b8ff" points="573.36,-71.9 576.24,-82.1 580.35,-72.34 573.36,-71.9"/>
</a>
</g>
</g>
<!-- Node12&#45;&gt;Node8 -->
<g id="edge16_Node000012_Node000008" class="edge">
<title>Node12&#45;&gt;Node8</title>
<g id="a_edge16_Node000012_Node000008"><a xlink:title=" ">
<path fill="none" stroke="#63b8ff" d="M877.88,-154.78C873.27,-132.44 867.03,-102.97 861,-77 858.24,-65.09 854.9,-51.82 852.17,-41.23"/>
<polygon fill="#63b8ff" stroke="#63b8ff" points="874.5,-155.71 879.93,-164.81 881.35,-154.31 874.5,-155.71"/>
</a>
</g>
</g>
<!-- Node13 -->
<g id="Node000013" class="node">
<title>Node13</title>
<g id="a_Node000013"><a xlink:href="cls__pde__based__interface__reinitialization_8cc.html" target="_top" xlink:title=" ">
<polygon fill="white" stroke="#666666" points="1053,-129 913,-129 913,-77 1053,-77 1053,-129"/>
<text text-anchor="start" x="921" y="-117" font-family="Helvetica,sans-Serif" font-size="10.00">/home/runner/work/lethe</text>
<text text-anchor="start" x="921" y="-106" font-family="Helvetica,sans-Serif" font-size="10.00">/lethe/source/solvers</text>
<text text-anchor="start" x="921" y="-95" font-family="Helvetica,sans-Serif" font-size="10.00">/cls_pde_based_interface</text>
<text text-anchor="middle" x="983" y="-84" font-family="Helvetica,sans-Serif" font-size="10.00">_reinitialization.cc</text>
</a>
</g>
</g>
<!-- Node12&#45;&gt;Node13 -->
<g id="edge15_Node000012_Node000013" class="edge">
<title>Node12&#45;&gt;Node13</title>
<g id="a_edge15_Node000012_Node000013"><a xlink:title=" ">
<path fill="none" stroke="#63b8ff" d="M921.31,-158.13C932.16,-148.62 943.89,-138.32 954.19,-129.29"/>
<polygon fill="#63b8ff" stroke="#63b8ff" points="918.82,-155.67 913.61,-164.89 923.43,-160.93 918.82,-155.67"/>
</a>
</g>
</g>
</g>
</svg>
