<?xml version="1.0" encoding="UTF-8" standalone="no"?>
<!DOCTYPE svg PUBLIC "-//W3C//DTD SVG 1.1//EN"
 "http://www.w3.org/Graphics/SVG/1.1/DTD/svg11.dtd">
<!-- Generated by graphviz version 2.43.0 (0)
 -->
<!-- Title: /home/runner/work/lethe/lethe/include/solvers/cls_scratch_data.h Pages: 1 -->
<svg width="1056pt" height="302pt"
 viewBox="0.00 0.00 1056.00 302.00" xmlns="http://www.w3.org/2000/svg" xmlns:xlink="http://www.w3.org/1999/xlink">
<g id="graph0" class="graph" transform="scale(1 1) rotate(0) translate(4 298)">
<title>/home/runner/work/lethe/lethe/include/solvers/cls_scratch_data.h</title>
<!-- Node1 -->
<g id="Node000001" class="node">
<title>Node1</title>
<g id="a_Node000001"><a xlink:title=" ">
<polygon fill="#999999" stroke="#666666" points="544,-294 407,-294 407,-253 544,-253 544,-294"/>
<text text-anchor="start" x="415" y="-282" font-family="Helvetica,sans-Serif" font-size="10.00">/home/runner/work/lethe</text>
<text text-anchor="start" x="415" y="-271" font-family="Helvetica,sans-Serif" font-size="10.00">/lethe/include/solvers</text>
<text text-anchor="middle" x="475.5" y="-260" font-family="Helvetica,sans-Serif" font-size="10.00">/cls_scratch_data.h</text>
</a>
</g>
</g>
<!-- Node2 -->
<g id="Node000002" class="node">
<title>Node2</title>
<g id="a_Node000002"><a xlink:href="cls_8h.html" target="_top" xlink:title=" ">
<polygon fill="white" stroke="#666666" points="456.5,-118 310.5,-118 310.5,-88 456.5,-88 456.5,-118"/>
<text text-anchor="start" x="318.5" y="-106" font-family="Helvetica,sans-Serif" font-size="10.00">/home/runner/work/lethe</text>
<text text-anchor="middle" x="383.5" y="-95" font-family="Helvetica,sans-Serif" font-size="10.00">/lethe/include/solvers/cls.h</text>
</a>
</g>
</g>
<!-- Node1&#45;&gt;Node2 -->
<g id="edge1_Node000001_Node000002" class="edge">
<title>Node1&#45;&gt;Node2</title>
<g id="a_edge1_Node000001_Node000002"><a xlink:title=" ">
<path fill="none" stroke="#63b8ff" d="M475.65,-242.82C474.54,-220.13 470.27,-188.79 456.5,-165 445,-145.13 424.46,-128.86 408.1,-118.13"/>
<polygon fill="#63b8ff" stroke="#63b8ff" points="472.15,-243.01 475.96,-252.89 479.15,-242.79 472.15,-243.01"/>
</a>
</g>
</g>
<!-- Node5 -->
<g id="Node000005" class="node">
<title>Node5</title>
<g id="a_Node000005"><a xlink:href="cls__algebraic__interface__reinitialization_8h.html" target="_top" xlink:title=" ">
<polygon fill="white" stroke="#666666" points="447,-217 310,-217 310,-165 447,-165 447,-217"/>
<text text-anchor="start" x="318" y="-205" font-family="Helvetica,sans-Serif" font-size="10.00">/home/runner/work/lethe</text>
<text text-anchor="start" x="318" y="-194" font-family="Helvetica,sans-Serif" font-size="10.00">/lethe/include/solvers</text>
<text text-anchor="start" x="318" y="-183" font-family="Helvetica,sans-Serif" font-size="10.00">/cls_algebraic_interface</text>
<text text-anchor="middle" x="378.5" y="-172" font-family="Helvetica,sans-Serif" font-size="10.00">_reinitialization.h</text>
</a>
</g>
</g>
<!-- Node1&#45;&gt;Node5 -->
<g id="edge4_Node000001_Node000005" class="edge">
<title>Node1&#45;&gt;Node5</title>
<g id="a_edge4_Node000001_Node000005"><a xlink:title=" ">
<path fill="none" stroke="#63b8ff" d="M443.64,-246.06C432.44,-236.76 419.88,-226.35 408.81,-217.16"/>
<polygon fill="#63b8ff" stroke="#63b8ff" points="441.59,-248.91 451.52,-252.6 446.06,-243.52 441.59,-248.91"/>
</a>
</g>
</g>
<!-- Node8 -->
<g id="Node000008" class="node">
<title>Node8</title>
<g id="a_Node000008"><a xlink:href="cls__assemblers_8h.html" target="_top" xlink:title=" ">
<polygon fill="white" stroke="#666666" points="292,-211.5 155,-211.5 155,-170.5 292,-170.5 292,-211.5"/>
<text text-anchor="start" x="163" y="-199.5" font-family="Helvetica,sans-Serif" font-size="10.00">/home/runner/work/lethe</text>
<text text-anchor="start" x="163" y="-188.5" font-family="Helvetica,sans-Serif" font-size="10.00">/lethe/include/solvers</text>
<text text-anchor="middle" x="223.5" y="-177.5" font-family="Helvetica,sans-Serif" font-size="10.00">/cls_assemblers.h</text>
</a>
</g>
</g>
<!-- Node1&#45;&gt;Node8 -->
<g id="edge7_Node000001_Node000008" class="edge">
<title>Node1&#45;&gt;Node8</title>
<g id="a_edge7_Node000001_Node000008"><a xlink:title=" ">
<path fill="none" stroke="#63b8ff" d="M403.88,-249.91C372.18,-239.88 334.47,-227.9 300.5,-217 295.01,-215.24 289.31,-213.4 283.6,-211.56"/>
<polygon fill="#63b8ff" stroke="#63b8ff" points="402.92,-253.27 413.51,-252.95 405.03,-246.6 402.92,-253.27"/>
</a>
</g>
</g>
<!-- Node10 -->
<g id="Node000010" class="node">
<title>Node10</title>
<g id="a_Node000010"><a xlink:href="cls__linear__subequations__solver_8h.html" target="_top" xlink:title=" ">
<polygon fill="white" stroke="#666666" points="641,-217 504,-217 504,-165 641,-165 641,-217"/>
<text text-anchor="start" x="512" y="-205" font-family="Helvetica,sans-Serif" font-size="10.00">/home/runner/work/lethe</text>
<text text-anchor="start" x="512" y="-194" font-family="Helvetica,sans-Serif" font-size="10.00">/lethe/include/solvers</text>
<text text-anchor="start" x="512" y="-183" font-family="Helvetica,sans-Serif" font-size="10.00">/cls_linear_subequations</text>
<text text-anchor="middle" x="572.5" y="-172" font-family="Helvetica,sans-Serif" font-size="10.00">_solver.h</text>
</a>
</g>
</g>
<!-- Node1&#45;&gt;Node10 -->
<g id="edge11_Node000001_Node000010" class="edge">
<title>Node1&#45;&gt;Node10</title>
<g id="a_edge11_Node000001_Node000010"><a xlink:title=" ">
<path fill="none" stroke="#63b8ff" d="M507.36,-246.06C518.56,-236.76 531.12,-226.35 542.19,-217.16"/>
<polygon fill="#63b8ff" stroke="#63b8ff" points="504.94,-243.52 499.48,-252.6 509.41,-248.91 504.94,-243.52"/>
</a>
</g>
</g>
<!-- Node16 -->
<g id="Node000016" class="node">
<title>Node16</title>
<g id="a_Node000016"><a xlink:href="cls__scratch__data_8cc.html" target="_top" xlink:title=" ">
<polygon fill="white" stroke="#666666" points="796,-211.5 659,-211.5 659,-170.5 796,-170.5 796,-211.5"/>
<text text-anchor="start" x="667" y="-199.5" font-family="Helvetica,sans-Serif" font-size="10.00">/home/runner/work/lethe</text>
<text text-anchor="start" x="667" y="-188.5" font-family="Helvetica,sans-Serif" font-size="10.00">/lethe/source/solvers</text>
<text text-anchor="middle" x="727.5" y="-177.5" font-family="Helvetica,sans-Serif" font-size="10.00">/cls_scratch_data.cc</text>
</a>
</g>
</g>
<!-- Node1&#45;&gt;Node16 -->
<g id="edge21_Node000001_Node000016" class="edge">
<title>Node1&#45;&gt;Node16</title>
<g id="a_edge21_Node000001_Node000016"><a xlink:title=" ">
<path fill="none" stroke="#63b8ff" d="M547.12,-249.91C578.82,-239.88 616.53,-227.9 650.5,-217 655.99,-215.24 661.69,-213.4 667.4,-211.56"/>
<polygon fill="#63b8ff" stroke="#63b8ff" points="545.97,-246.6 537.49,-252.95 548.08,-253.27 545.97,-246.6"/>
</a>
</g>
</g>
<!-- Node3 -->
<g id="Node000003" class="node">
<title>Node3</title>
<g id="a_Node000003"><a xlink:href="cls_8cc.html" target="_top" xlink:title=" ">
<polygon fill="white" stroke="#666666" points="436,-41 299,-41 299,0 436,0 436,-41"/>
<text text-anchor="start" x="307" y="-29" font-family="Helvetica,sans-Serif" font-size="10.00">/home/runner/work/lethe</text>
<text text-anchor="start" x="307" y="-18" font-family="Helvetica,sans-Serif" font-size="10.00">/lethe/source/solvers</text>
<text text-anchor="middle" x="367.5" y="-7" font-family="Helvetica,sans-Serif" font-size="10.00">/cls.cc</text>
</a>
</g>
</g>
<!-- Node2&#45;&gt;Node3 -->
<g id="edge2_Node000002_Node000003" class="edge">
<title>Node2&#45;&gt;Node3</title>
<g id="a_edge2_Node000002_Node000003"><a xlink:title=" ">
<path fill="none" stroke="#63b8ff" d="M378.72,-77.94C376.38,-66.17 373.6,-52.19 371.39,-41.09"/>
<polygon fill="#63b8ff" stroke="#63b8ff" points="375.33,-78.85 380.71,-87.98 382.2,-77.49 375.33,-78.85"/>
</a>
</g>
</g>
<!-- Node4 -->
<g id="Node000004" class="node">
<title>Node4</title>
<g id="a_Node000004"><a xlink:href="multiphysics__interface_8cc.html" target="_top" xlink:title=" ">
<polygon fill="white" stroke="#666666" points="280.5,-41 136.5,-41 136.5,0 280.5,0 280.5,-41"/>
<text text-anchor="start" x="144.5" y="-29" font-family="Helvetica,sans-Serif" font-size="10.00">/home/runner/work/lethe</text>
<text text-anchor="start" x="144.5" y="-18" font-family="Helvetica,sans-Serif" font-size="10.00">/lethe/source/solvers</text>
<text text-anchor="middle" x="208.5" y="-7" font-family="Helvetica,sans-Serif" font-size="10.00">/multiphysics_interface.cc</text>
</a>
</g>
</g>
<!-- Node2&#45;&gt;Node4 -->
<g id="edge3_Node000002_Node000004" class="edge">
<title>Node2&#45;&gt;Node4</title>
<g id="a_edge3_Node000002_Node000004"><a xlink:title=" ">
<path fill="none" stroke="#63b8ff" d="M343.66,-83.67C316.03,-70.96 279.29,-54.06 251.09,-41.09"/>
<polygon fill="#63b8ff" stroke="#63b8ff" points="342.47,-86.98 353.02,-87.98 345.4,-80.62 342.47,-86.98"/>
</a>
</g>
</g>
<!-- Node6 -->
<g id="Node000006" class="node">
<title>Node6</title>
<g id="a_Node000006"><a xlink:href="cls__algebraic__interface__reinitialization_8cc.html" target="_top" xlink:title=" ">
<polygon fill="white" stroke="#666666" points="292,-129 155,-129 155,-77 292,-77 292,-129"/>
<text text-anchor="start" x="163" y="-117" font-family="Helvetica,sans-Serif" font-size="10.00">/home/runner/work/lethe</text>
<text text-anchor="start" x="163" y="-106" font-family="Helvetica,sans-Serif" font-size="10.00">/lethe/source/solvers</text>
<text text-anchor="start" x="163" y="-95" font-family="Helvetica,sans-Serif" font-size="10.00">/cls_algebraic_interface</text>
<text text-anchor="middle" x="223.5" y="-84" font-family="Helvetica,sans-Serif" font-size="10.00">_reinitialization.cc</text>
</a>
</g>
</g>
<!-- Node5&#45;&gt;Node6 -->
<g id="edge5_Node000005_Node000006" class="edge">
<title>Node5&#45;&gt;Node6</title>
<g id="a_edge5_Node000005_Node000006"><a xlink:title=" ">
<path fill="none" stroke="#63b8ff" d="M324.5,-160.04C306.32,-149.95 286.24,-138.81 268.81,-129.14"/>
<polygon fill="#63b8ff" stroke="#63b8ff" points="322.81,-163.1 333.25,-164.89 326.2,-156.98 322.81,-163.1"/>
</a>
</g>
</g>
<!-- Node7 -->
<g id="Node000007" class="node">
<title>Node7</title>
<g id="a_Node000007"><a xlink:href="cls__subequations__interface_8cc.html" target="_top" xlink:title=" ">
<polygon fill="white" stroke="#666666" points="620.5,-41 454.5,-41 454.5,0 620.5,0 620.5,-41"/>
<text text-anchor="start" x="462.5" y="-29" font-family="Helvetica,sans-Serif" font-size="10.00">/home/runner/work/lethe</text>
<text text-anchor="start" x="462.5" y="-18" font-family="Helvetica,sans-Serif" font-size="10.00">/lethe/source/solvers</text>
<text text-anchor="middle" x="537.5" y="-7" font-family="Helvetica,sans-Serif" font-size="10.00">/cls_subequations_interface.cc</text>
</a>
</g>
</g>
<!-- Node5&#45;&gt;Node7 -->
<g id="edge6_Node000005_Node000007" class="edge">
<title>Node5&#45;&gt;Node7</title>
<g id="a_edge6_Node000005_Node000007"><a xlink:title=" ">
<path fill="none" stroke="#63b8ff" d="M429.38,-159.03C441.92,-150.17 454.81,-139.92 465.5,-129 491.9,-102.03 514.66,-64.16 527.18,-41.32"/>
<polygon fill="#63b8ff" stroke="#63b8ff" points="427.04,-156.39 420.78,-164.93 431.01,-162.16 427.04,-156.39"/>
</a>
</g>
</g>
<!-- Node8&#45;&gt;Node2 -->
<g id="edge8_Node000008_Node000002" class="edge">
<title>Node8&#45;&gt;Node2</title>
<g id="a_edge8_Node000008_Node000002"><a xlink:title=" ">
<path fill="none" stroke="#63b8ff" d="M268.81,-165.65C297.42,-150.27 333.36,-130.95 357.31,-118.08"/>
<polygon fill="#63b8ff" stroke="#63b8ff" points="266.96,-162.67 259.81,-170.49 270.27,-168.83 266.96,-162.67"/>
</a>
</g>
</g>
<!-- Node8&#45;&gt;Node6 -->
<g id="edge9_Node000008_Node000006" class="edge">
<title>Node8&#45;&gt;Node6</title>
<g id="a_edge9_Node000008_Node000006"><a xlink:title=" ">
<path fill="none" stroke="#63b8ff" d="M223.5,-160.44C223.5,-150.31 223.5,-139.08 223.5,-129.32"/>
<polygon fill="#63b8ff" stroke="#63b8ff" points="220,-160.49 223.5,-170.49 227,-160.49 220,-160.49"/>
</a>
</g>
</g>
<!-- Node9 -->
<g id="Node000009" class="node">
<title>Node9</title>
<g id="a_Node000009"><a xlink:href="cls__assemblers_8cc.html" target="_top" xlink:title=" ">
<polygon fill="white" stroke="#666666" points="137,-123.5 0,-123.5 0,-82.5 137,-82.5 137,-123.5"/>
<text text-anchor="start" x="8" y="-111.5" font-family="Helvetica,sans-Serif" font-size="10.00">/home/runner/work/lethe</text>
<text text-anchor="start" x="8" y="-100.5" font-family="Helvetica,sans-Serif" font-size="10.00">/lethe/source/solvers</text>
<text text-anchor="middle" x="68.5" y="-89.5" font-family="Helvetica,sans-Serif" font-size="10.00">/cls_assemblers.cc</text>
</a>
</g>
</g>
<!-- Node8&#45;&gt;Node9 -->
<g id="edge10_Node000008_Node000009" class="edge">
<title>Node8&#45;&gt;Node9</title>
<g id="a_edge10_Node000008_Node000009"><a xlink:title=" ">
<path fill="none" stroke="#63b8ff" d="M179.43,-165.55C155.47,-152.26 126.24,-136.04 103.8,-123.59"/>
<polygon fill="#63b8ff" stroke="#63b8ff" points="177.89,-168.69 188.33,-170.49 181.28,-162.57 177.89,-168.69"/>
</a>
</g>
</g>
<!-- Node10&#45;&gt;Node2 -->
<g id="edge12_Node000010_Node000002" class="edge">
<title>Node10&#45;&gt;Node2</title>
<g id="a_edge12_Node000010_Node000002"><a xlink:title=" ">
<path fill="none" stroke="#63b8ff" d="M508.1,-160.7C476.4,-146.27 439.65,-129.55 414.32,-118.03"/>
<polygon fill="#63b8ff" stroke="#63b8ff" points="506.77,-163.94 517.33,-164.89 509.67,-157.57 506.77,-163.94"/>
</a>
</g>
</g>
<!-- Node10&#45;&gt;Node7 -->
<g id="edge20_Node000010_Node000007" class="edge">
<title>Node10&#45;&gt;Node7</title>
<g id="a_edge20_Node000010_Node000007"><a xlink:title=" ">
<path fill="none" stroke="#63b8ff" d="M551.96,-155.97C547.74,-147.44 543.86,-138.12 541.5,-129 533.77,-99.17 534.34,-63.14 535.73,-41.29"/>
<polygon fill="#63b8ff" stroke="#63b8ff" points="548.88,-157.63 556.63,-164.86 555.08,-154.38 548.88,-157.63"/>
</a>
</g>
</g>
<!-- Node11 -->
<g id="Node000011" class="node">
<title>Node11</title>
<g id="a_Node000011"><a xlink:href="cls__curvature__projection_8h.html" target="_top" xlink:title=" ">
<polygon fill="white" stroke="#666666" points="698.5,-123.5 550.5,-123.5 550.5,-82.5 698.5,-82.5 698.5,-123.5"/>
<text text-anchor="start" x="558.5" y="-111.5" font-family="Helvetica,sans-Serif" font-size="10.00">/home/runner/work/lethe</text>
<text text-anchor="start" x="558.5" y="-100.5" font-family="Helvetica,sans-Serif" font-size="10.00">/lethe/include/solvers</text>
<text text-anchor="middle" x="624.5" y="-89.5" font-family="Helvetica,sans-Serif" font-size="10.00">/cls_curvature_projection.h</text>
</a>
</g>
</g>
<!-- Node10&#45;&gt;Node11 -->
<g id="edge13_Node000010_Node000011" class="edge">
<title>Node10&#45;&gt;Node11</title>
<g id="a_edge13_Node000010_Node000011"><a xlink:title=" ">
<path fill="none" stroke="#63b8ff" d="M593,-156.09C599.64,-145.11 606.79,-133.3 612.59,-123.7"/>
<polygon fill="#63b8ff" stroke="#63b8ff" points="590,-154.29 587.82,-164.66 595.99,-157.92 590,-154.29"/>
</a>
</g>
</g>
<!-- Node13 -->
<g id="Node000013" class="node">
<title>Node13</title>
<g id="a_Node000013"><a xlink:href="cls__phase__gradient__projection_8h.html" target="_top" xlink:title=" ">
<polygon fill="white" stroke="#666666" points="892.5,-123.5 716.5,-123.5 716.5,-82.5 892.5,-82.5 892.5,-123.5"/>
<text text-anchor="start" x="724.5" y="-111.5" font-family="Helvetica,sans-Serif" font-size="10.00">/home/runner/work/lethe</text>
<text text-anchor="start" x="724.5" y="-100.5" font-family="Helvetica,sans-Serif" font-size="10.00">/lethe/include/solvers</text>
<text text-anchor="middle" x="804.5" y="-89.5" font-family="Helvetica,sans-Serif" font-size="10.00">/cls_phase_gradient_projection.h</text>
</a>
</g>
</g>
<!-- Node10&#45;&gt;Node13 -->
<g id="edge16_Node000010_Node000013" class="edge">
<title>Node10&#45;&gt;Node13</title>
<g id="a_edge16_Node000010_Node000013"><a xlink:title=" ">
<path fill="none" stroke="#63b8ff" d="M649.98,-161.28C683.44,-148.88 721.72,-134.68 751.81,-123.53"/>
<polygon fill="#63b8ff" stroke="#63b8ff" points="648.39,-158.14 640.23,-164.89 650.82,-164.7 648.39,-158.14"/>
</a>
</g>
</g>
<!-- Node15 -->
<g id="Node000015" class="node">
<title>Node15</title>
<g id="a_Node000015"><a xlink:href="cls__linear__subequations__solver_8cc.html" target="_top" xlink:title=" ">
<polygon fill="white" stroke="#666666" points="1048,-129 911,-129 911,-77 1048,-77 1048,-129"/>
<text text-anchor="start" x="919" y="-117" font-family="Helvetica,sans-Serif" font-size="10.00">/home/runner/work/lethe</text>
<text text-anchor="start" x="919" y="-106" font-family="Helvetica,sans-Serif" font-size="10.00">/lethe/source/solvers</text>
<text text-anchor="start" x="919" y="-95" font-family="Helvetica,sans-Serif" font-size="10.00">/cls_linear_subequations</text>
<text text-anchor="middle" x="979.5" y="-84" font-family="Helvetica,sans-Serif" font-size="10.00">_solver.cc</text>
</a>
</g>
</g>
<!-- Node10&#45;&gt;Node15 -->
<g id="edge19_Node000010_Node000015" class="edge">
<title>Node10&#45;&gt;Node15</title>
<g id="a_edge19_Node000010_Node000015"><a xlink:title=" ">
<path fill="none" stroke="#63b8ff" d="M651.14,-165.04C762.16,-140.51 794.79,-153.57 901.5,-129 904.55,-128.3 907.65,-127.53 910.77,-126.72"/>
<polygon fill="#63b8ff" stroke="#63b8ff" points="650.21,-161.66 641.23,-167.28 651.76,-168.49 650.21,-161.66"/>
</a>
</g>
</g>
<!-- Node11&#45;&gt;Node7 -->
<g id="edge15_Node000011_Node000007" class="edge">
<title>Node11&#45;&gt;Node7</title>
<g id="a_edge15_Node000011_Node000007"><a xlink:title=" ">
<path fill="none" stroke="#63b8ff" d="M595.4,-75.07C583.41,-63.98 569.78,-51.37 558.76,-41.17"/>
<polygon fill="#63b8ff" stroke="#63b8ff" points="593.28,-77.88 602.99,-82.1 598.03,-72.74 593.28,-77.88"/>
</a>
</g>
</g>
<!-- Node12 -->
<g id="Node000012" class="node">
<title>Node12</title>
<g id="a_Node000012"><a xlink:href="cls__curvature__projection_8cc.html" target="_top" xlink:title=" ">
<polygon fill="white" stroke="#666666" points="790.5,-41 638.5,-41 638.5,0 790.5,0 790.5,-41"/>
<text text-anchor="start" x="646.5" y="-29" font-family="Helvetica,sans-Serif" font-size="10.00">/home/runner/work/lethe</text>
<text text-anchor="start" x="646.5" y="-18" font-family="Helvetica,sans-Serif" font-size="10.00">/lethe/source/solvers</text>
<text text-anchor="middle" x="714.5" y="-7" font-family="Helvetica,sans-Serif" font-size="10.00">/cls_curvature_projection.cc</text>
</a>
</g>
</g>
<!-- Node11&#45;&gt;Node12 -->
<g id="edge14_Node000011_Node000012" class="edge">
<title>Node11&#45;&gt;Node12</title>
<g id="a_edge14_Node000011_Node000012"><a xlink:title=" ">
<path fill="none" stroke="#63b8ff" d="M654.25,-75.39C666.74,-64.22 681,-51.47 692.51,-41.17"/>
<polygon fill="#63b8ff" stroke="#63b8ff" points="651.87,-72.83 646.75,-82.1 656.53,-78.04 651.87,-72.83"/>
</a>
</g>
</g>
<!-- Node13&#45;&gt;Node7 -->
<g id="edge18_Node000013_Node000007" class="edge">
<title>Node13&#45;&gt;Node7</title>
<g id="a_edge18_Node000013_Node000007"><a xlink:title=" ">
<path fill="none" stroke="#63b8ff" d="M729.8,-79.48C689.71,-67.39 640.77,-52.64 602.3,-41.04"/>
<polygon fill="#63b8ff" stroke="#63b8ff" points="728.94,-82.87 739.53,-82.41 730.96,-76.17 728.94,-82.87"/>
</a>
</g>
</g>
<!-- Node14 -->
<g id="Node000014" class="node">
<title>Node14</title>
<g id="a_Node000014"><a xlink:href="cls__phase__gradient__projection_8cc.html" target="_top" xlink:title=" ">
<polygon fill="white" stroke="#666666" points="990,-41 809,-41 809,0 990,0 990,-41"/>
<text text-anchor="start" x="817" y="-29" font-family="Helvetica,sans-Serif" font-size="10.00">/home/runner/work/lethe</text>
<text text-anchor="start" x="817" y="-18" font-family="Helvetica,sans-Serif" font-size="10.00">/lethe/source/solvers</text>
<text text-anchor="middle" x="899.5" y="-7" font-family="Helvetica,sans-Serif" font-size="10.00">/cls_phase_gradient_projection.cc</text>
</a>
</g>
</g>
<!-- Node13&#45;&gt;Node14 -->
<g id="edge17_Node000013_Node000014" class="edge">
<title>Node13&#45;&gt;Node14</title>
<g id="a_edge17_Node000013_Node000014"><a xlink:title=" ">
<path fill="none" stroke="#63b8ff" d="M835.9,-75.39C849.08,-64.22 864.14,-51.47 876.29,-41.17"/>
<polygon fill="#63b8ff" stroke="#63b8ff" points="833.35,-72.97 827.98,-82.1 837.88,-78.31 833.35,-72.97"/>
</a>
</g>
</g>
</g>
</svg>
