<?xml version="1.0" encoding="UTF-8" standalone="no"?>
<!DOCTYPE svg PUBLIC "-//W3C//DTD SVG 1.1//EN"
 "http://www.w3.org/Graphics/SVG/1.1/DTD/svg11.dtd">
<!-- Generated by graphviz version 2.43.0 (0)
 -->
<!-- Title: /home/runner/work/lethe/lethe/source/solvers/cls_phase_gradient_projection.cc Pages: 1 -->
<svg width="1953pt" height="555pt"
 viewBox="0.00 0.00 1953.08 555.00" xmlns="http://www.w3.org/2000/svg" xmlns:xlink="http://www.w3.org/1999/xlink">
<g id="graph0" class="graph" transform="scale(1 1) rotate(0) translate(4 551)">
<title>/home/runner/work/lethe/lethe/source/solvers/cls_phase_gradient_projection.cc</title>
<!-- Node1 -->
<g id="Node000001" class="node">
<title>Node1</title>
<g id="a_Node000001"><a xlink:title=" ">
<polygon fill="#999999" stroke="#666666" points="1568.08,-547 1387.08,-547 1387.08,-506 1568.08,-506 1568.08,-547"/>
<text text-anchor="start" x="1395.08" y="-535" font-family="Helvetica,sans-Serif" font-size="10.00">/home/runner/work/lethe</text>
<text text-anchor="start" x="1395.08" y="-524" font-family="Helvetica,sans-Serif" font-size="10.00">/lethe/source/solvers</text>
<text text-anchor="middle" x="1477.58" y="-513" font-family="Helvetica,sans-Serif" font-size="10.00">/cls_phase_gradient_projection.cc</text>
</a>
</g>
</g>
<!-- Node2 -->
<g id="Node000002" class="node">
<title>Node2</title>
<g id="a_Node000002"><a xlink:href="cls__phase__gradient__projection_8h.html" target="_top" xlink:title=" ">
<polygon fill="white" stroke="#666666" points="1552.08,-470 1403.08,-470 1403.08,-440 1552.08,-440 1552.08,-470"/>
<text text-anchor="start" x="1411.08" y="-458" font-family="Helvetica,sans-Serif" font-size="10.00">solvers/cls_phase_gradient</text>
<text text-anchor="middle" x="1477.58" y="-447" font-family="Helvetica,sans-Serif" font-size="10.00">_projection.h</text>
</a>
</g>
</g>
<!-- Node1&#45;&gt;Node2 -->
<g id="edge1_Node000001_Node000002" class="edge">
<title>Node1&#45;&gt;Node2</title>
<g id="a_edge1_Node000001_Node000002"><a xlink:title=" ">
<path fill="none" stroke="#63b8ff" d="M1477.58,-505.77C1477.58,-497.85 1477.58,-488.63 1477.58,-480.3"/>
<polygon fill="#63b8ff" stroke="#63b8ff" points="1481.08,-480.04 1477.58,-470.04 1474.08,-480.04 1481.08,-480.04"/>
</a>
</g>
</g>
<!-- Node3 -->
<g id="Node000003" class="node">
<title>Node3</title>
<g id="a_Node000003"><a xlink:href="cls__linear__subequations__solver_8h.html" target="_top" xlink:title=" ">
<polygon fill="white" stroke="#666666" points="1467.08,-404 1336.08,-404 1336.08,-374 1467.08,-374 1467.08,-404"/>
<text text-anchor="start" x="1344.08" y="-392" font-family="Helvetica,sans-Serif" font-size="10.00">solvers/cls_linear</text>
<text text-anchor="middle" x="1401.58" y="-381" font-family="Helvetica,sans-Serif" font-size="10.00">_subequations_solver.h</text>
</a>
</g>
</g>
<!-- Node2&#45;&gt;Node3 -->
<g id="edge2_Node000002_Node000003" class="edge">
<title>Node2&#45;&gt;Node3</title>
<g id="a_edge2_Node000002_Node000003"><a xlink:title=" ">
<path fill="none" stroke="#63b8ff" d="M1460.71,-439.8C1450.58,-431.26 1437.5,-420.25 1426.23,-410.75"/>
<polygon fill="#63b8ff" stroke="#63b8ff" points="1428.3,-407.93 1418.4,-404.16 1423.79,-413.28 1428.3,-407.93"/>
</a>
</g>
</g>
<!-- Node116 -->
<g id="Node000116" class="node">
<title>Node116</title>
<g id="a_Node000116"><a xlink:title=" ">
<polygon fill="#e0e0e0" stroke="#999999" points="1622.08,-398.5 1485.08,-398.5 1485.08,-379.5 1622.08,-379.5 1622.08,-398.5"/>
<text text-anchor="middle" x="1553.58" y="-386.5" font-family="Helvetica,sans-Serif" font-size="10.00">deal.II/fe/fe_simplex_p.h</text>
</a>
</g>
</g>
<!-- Node2&#45;&gt;Node116 -->
<g id="edge50_Node000002_Node000116" class="edge">
<title>Node2&#45;&gt;Node116</title>
<g id="a_edge50_Node000002_Node000116"><a xlink:title=" ">
<path fill="none" stroke="#63b8ff" d="M1494.45,-439.8C1506.53,-429.62 1522.79,-415.93 1535.2,-405.48"/>
<polygon fill="#63b8ff" stroke="#63b8ff" points="1537.68,-407.96 1543.08,-398.84 1533.17,-402.61 1537.68,-407.96"/>
</a>
</g>
</g>
<!-- Node4 -->
<g id="Node000004" class="node">
<title>Node4</title>
<g id="a_Node000004"><a xlink:href="cls__scratch__data_8h.html" target="_top" xlink:title=" ">
<polygon fill="white" stroke="#666666" points="534.08,-338 425.08,-338 425.08,-308 534.08,-308 534.08,-338"/>
<text text-anchor="start" x="433.08" y="-326" font-family="Helvetica,sans-Serif" font-size="10.00">solvers/cls_scratch</text>
<text text-anchor="middle" x="479.58" y="-315" font-family="Helvetica,sans-Serif" font-size="10.00">_data.h</text>
</a>
</g>
</g>
<!-- Node3&#45;&gt;Node4 -->
<g id="edge3_Node000003_Node000004" class="edge">
<title>Node3&#45;&gt;Node4</title>
<g id="a_edge3_Node000003_Node000004"><a xlink:title=" ">
<path fill="none" stroke="#63b8ff" d="M1336.01,-383.45C1166.08,-371.65 712.92,-340.2 544.12,-328.48"/>
<polygon fill="#63b8ff" stroke="#63b8ff" points="544.36,-324.99 534.14,-327.79 543.87,-331.97 544.36,-324.99"/>
</a>
</g>
</g>
<!-- Node62 -->
<g id="Node000062" class="node">
<title>Node62</title>
<g id="a_Node000062"><a xlink:title=" ">
<polygon fill="#e0e0e0" stroke="#999999" points="1356.08,-85 1255.08,-85 1255.08,-55 1356.08,-55 1356.08,-85"/>
<text text-anchor="start" x="1263.08" y="-73" font-family="Helvetica,sans-Serif" font-size="10.00">deal.II/lac/trilinos</text>
<text text-anchor="middle" x="1305.58" y="-62" font-family="Helvetica,sans-Serif" font-size="10.00">_vector.h</text>
</a>
</g>
</g>
<!-- Node3&#45;&gt;Node62 -->
<g id="edge49_Node000003_Node000062" class="edge">
<title>Node3&#45;&gt;Node62</title>
<g id="a_edge49_Node000003_Node000062"><a xlink:title=" ">
<path fill="none" stroke="#63b8ff" d="M1401.58,-373.96C1401.58,-350.12 1401.58,-300.2 1401.58,-258 1401.58,-258 1401.58,-258 1401.58,-195.5 1401.58,-151.28 1363.13,-113.17 1334.9,-91.14"/>
<polygon fill="#63b8ff" stroke="#63b8ff" points="1336.98,-88.33 1326.89,-85.1 1332.76,-93.91 1336.98,-88.33"/>
</a>
</g>
</g>
<!-- Node64 -->
<g id="Node000064" class="node">
<title>Node64</title>
<g id="a_Node000064"><a xlink:title=" ">
<polygon fill="#e0e0e0" stroke="#999999" points="1335.58,-151 1233.58,-151 1233.58,-121 1335.58,-121 1335.58,-151"/>
<text text-anchor="start" x="1241.58" y="-139" font-family="Helvetica,sans-Serif" font-size="10.00">deal.II/distributed</text>
<text text-anchor="middle" x="1284.58" y="-128" font-family="Helvetica,sans-Serif" font-size="10.00">/tria_base.h</text>
</a>
</g>
</g>
<!-- Node3&#45;&gt;Node64 -->
<g id="edge46_Node000003_Node000064" class="edge">
<title>Node3&#45;&gt;Node64</title>
<g id="a_edge46_Node000003_Node000064"><a xlink:title=" ">
<path fill="none" stroke="#63b8ff" d="M1394.95,-373.79C1375.65,-332.37 1319.3,-211.49 1295.45,-160.32"/>
<polygon fill="#63b8ff" stroke="#63b8ff" points="1298.53,-158.64 1291.13,-151.06 1292.19,-161.6 1298.53,-158.64"/>
</a>
</g>
</g>
<!-- Node110 -->
<g id="Node000110" class="node">
<title>Node110</title>
<g id="a_Node000110"><a xlink:href="cls__subequations__interface_8h.html" target="_top" xlink:title=" ">
<polygon fill="white" stroke="#666666" points="1186.08,-338 1047.08,-338 1047.08,-308 1186.08,-308 1186.08,-338"/>
<text text-anchor="start" x="1055.08" y="-326" font-family="Helvetica,sans-Serif" font-size="10.00">solvers/cls_subequations</text>
<text text-anchor="middle" x="1116.58" y="-315" font-family="Helvetica,sans-Serif" font-size="10.00">_interface.h</text>
</a>
</g>
</g>
<!-- Node3&#45;&gt;Node110 -->
<g id="edge38_Node000003_Node000110" class="edge">
<title>Node3&#45;&gt;Node110</title>
<g id="a_edge38_Node000003_Node000110"><a xlink:title=" ">
<path fill="none" stroke="#63b8ff" d="M1339.04,-373.95C1294.77,-364.01 1235.27,-350.65 1188.95,-340.25"/>
<polygon fill="#63b8ff" stroke="#63b8ff" points="1189.5,-336.79 1178.98,-338.01 1187.97,-343.62 1189.5,-336.79"/>
</a>
</g>
</g>
<!-- Node111 -->
<g id="Node000111" class="node">
<title>Node111</title>
<g id="a_Node000111"><a xlink:href="physics__subequations__solver_8h.html" target="_top" xlink:title=" ">
<polygon fill="white" stroke="#666666" points="941.58,-272 779.58,-272 779.58,-242 941.58,-242 941.58,-272"/>
<text text-anchor="start" x="787.58" y="-260" font-family="Helvetica,sans-Serif" font-size="10.00">solvers/physics_subequations</text>
<text text-anchor="middle" x="860.58" y="-249" font-family="Helvetica,sans-Serif" font-size="10.00">_solver.h</text>
</a>
</g>
</g>
<!-- Node3&#45;&gt;Node111 -->
<g id="edge43_Node000003_Node000111" class="edge">
<title>Node3&#45;&gt;Node111</title>
<g id="a_edge43_Node000003_Node000111"><a xlink:title=" ">
<path fill="none" stroke="#63b8ff" d="M1335.83,-384.59C1262.21,-379.48 1139.93,-367.1 1038.58,-338 986.27,-322.98 929.52,-295.31 894.5,-276.78"/>
<polygon fill="#63b8ff" stroke="#63b8ff" points="896.12,-273.67 885.65,-272.04 892.82,-279.85 896.12,-273.67"/>
</a>
</g>
</g>
<!-- Node112 -->
<g id="Node000112" class="node">
<title>Node112</title>
<g id="a_Node000112"><a xlink:title=" ">
<polygon fill="#e0e0e0" stroke="#999999" points="1539.58,-332.5 1429.58,-332.5 1429.58,-313.5 1539.58,-313.5 1539.58,-332.5"/>
<text text-anchor="middle" x="1484.58" y="-320.5" font-family="Helvetica,sans-Serif" font-size="10.00">deal.II/base/timer.h</text>
</a>
</g>
</g>
<!-- Node3&#45;&gt;Node112 -->
<g id="edge44_Node000003_Node000112" class="edge">
<title>Node3&#45;&gt;Node112</title>
<g id="a_edge44_Node000003_Node000112"><a xlink:title=" ">
<path fill="none" stroke="#63b8ff" d="M1420,-373.8C1433.32,-363.53 1451.29,-349.67 1464.9,-339.18"/>
<polygon fill="#63b8ff" stroke="#63b8ff" points="1467.33,-341.72 1473.11,-332.84 1463.05,-336.18 1467.33,-341.72"/>
</a>
</g>
</g>
<!-- Node113 -->
<g id="Node000113" class="node">
<title>Node113</title>
<g id="a_Node000113"><a xlink:title=" ">
<polygon fill="#e0e0e0" stroke="#999999" points="1707.08,-332.5 1558.08,-332.5 1558.08,-313.5 1707.08,-313.5 1707.08,-332.5"/>
<text text-anchor="middle" x="1632.58" y="-320.5" font-family="Helvetica,sans-Serif" font-size="10.00">deal.II/base/work_stream.h</text>
</a>
</g>
</g>
<!-- Node3&#45;&gt;Node113 -->
<g id="edge45_Node000003_Node000113" class="edge">
<title>Node3&#45;&gt;Node113</title>
<g id="a_edge45_Node000003_Node000113"><a xlink:title=" ">
<path fill="none" stroke="#63b8ff" d="M1452.27,-373.95C1494.21,-362.34 1553.01,-346.05 1591.91,-335.27"/>
<polygon fill="#63b8ff" stroke="#63b8ff" points="1593.14,-338.56 1601.84,-332.52 1591.27,-331.81 1593.14,-338.56"/>
</a>
</g>
</g>
<!-- Node114 -->
<g id="Node000114" class="node">
<title>Node114</title>
<g id="a_Node000114"><a xlink:title=" ">
<polygon fill="#e0e0e0" stroke="#999999" points="1826.08,-338 1725.08,-338 1725.08,-308 1826.08,-308 1826.08,-338"/>
<text text-anchor="start" x="1733.08" y="-326" font-family="Helvetica,sans-Serif" font-size="10.00">deal.II/lac/trilinos</text>
<text text-anchor="middle" x="1775.58" y="-315" font-family="Helvetica,sans-Serif" font-size="10.00">_precondition.h</text>
</a>
</g>
</g>
<!-- Node3&#45;&gt;Node114 -->
<g id="edge47_Node000003_Node000114" class="edge">
<title>Node3&#45;&gt;Node114</title>
<g id="a_edge47_Node000003_Node000114"><a xlink:title=" ">
<path fill="none" stroke="#63b8ff" d="M1467.41,-375.58C1470.51,-375.03 1473.58,-374.51 1476.58,-374 1579.72,-356.64 1608.93,-358.34 1714.66,-338.28"/>
<polygon fill="#63b8ff" stroke="#63b8ff" points="1715.63,-341.66 1724.79,-336.34 1714.31,-334.79 1715.63,-341.66"/>
</a>
</g>
</g>
<!-- Node115 -->
<g id="Node000115" class="node">
<title>Node115</title>
<g id="a_Node000115"><a xlink:title=" ">
<polygon fill="#e0e0e0" stroke="#999999" points="1945.08,-338 1844.08,-338 1844.08,-308 1945.08,-308 1945.08,-338"/>
<text text-anchor="start" x="1852.08" y="-326" font-family="Helvetica,sans-Serif" font-size="10.00">deal.II/lac/trilinos</text>
<text text-anchor="middle" x="1894.58" y="-315" font-family="Helvetica,sans-Serif" font-size="10.00">_sparse_matrix.h</text>
</a>
</g>
</g>
<!-- Node3&#45;&gt;Node115 -->
<g id="edge48_Node000003_Node000115" class="edge">
<title>Node3&#45;&gt;Node115</title>
<g id="a_edge48_Node000003_Node000115"><a xlink:title=" ">
<path fill="none" stroke="#63b8ff" d="M1467.38,-375.39C1470.49,-374.9 1473.56,-374.43 1476.58,-374 1632.06,-351.73 1675.66,-364.04 1833.74,-338.17"/>
<polygon fill="#63b8ff" stroke="#63b8ff" points="1834.53,-341.59 1843.82,-336.5 1833.38,-334.68 1834.53,-341.59"/>
</a>
</g>
</g>
<!-- Node5 -->
<g id="Node000005" class="node">
<title>Node5</title>
<g id="a_Node000005"><a xlink:href="time__integration__utilities_8h.html" target="_top" xlink:title=" ">
<polygon fill="white" stroke="#666666" points="150.58,-151 28.58,-151 28.58,-121 150.58,-121 150.58,-151"/>
<text text-anchor="start" x="36.58" y="-139" font-family="Helvetica,sans-Serif" font-size="10.00">core/time_integration</text>
<text text-anchor="middle" x="89.58" y="-128" font-family="Helvetica,sans-Serif" font-size="10.00">_utilities.h</text>
</a>
</g>
</g>
<!-- Node4&#45;&gt;Node5 -->
<g id="edge4_Node000004_Node000005" class="edge">
<title>Node4&#45;&gt;Node5</title>
<g id="a_edge4_Node000004_Node000005"><a xlink:title=" ">
<path fill="none" stroke="#63b8ff" d="M424.68,-320.19C306.78,-315.74 37.85,-302.33 10.58,-272 -21.61,-236.2 28.67,-185.24 62.64,-157.29"/>
<polygon fill="#63b8ff" stroke="#63b8ff" points="64.83,-160.01 70.44,-151.03 60.45,-154.55 64.83,-160.01"/>
</a>
</g>
</g>
<!-- Node45 -->
<g id="Node000045" class="node">
<title>Node45</title>
<g id="a_Node000045"><a xlink:href="multiphysics__interface_8h.html" target="_top" xlink:title=" ">
<polygon fill="white" stroke="#666666" points="1077.08,-272 960.08,-272 960.08,-242 1077.08,-242 1077.08,-272"/>
<text text-anchor="start" x="968.08" y="-260" font-family="Helvetica,sans-Serif" font-size="10.00">solvers/multiphysics</text>
<text text-anchor="middle" x="1018.58" y="-249" font-family="Helvetica,sans-Serif" font-size="10.00">_interface.h</text>
</a>
</g>
</g>
<!-- Node4&#45;&gt;Node45 -->
<g id="edge7_Node000004_Node000045" class="edge">
<title>Node4&#45;&gt;Node45</title>
<g id="a_edge7_Node000004_Node000045"><a xlink:title=" ">
<path fill="none" stroke="#63b8ff" d="M534.2,-317.94C620.31,-311.15 793.04,-296 949.74,-272.02"/>
<polygon fill="#63b8ff" stroke="#63b8ff" points="950.69,-275.42 960.04,-270.43 949.62,-268.5 950.69,-275.42"/>
</a>
</g>
</g>
<!-- Node105 -->
<g id="Node000105" class="node">
<title>Node105</title>
<g id="a_Node000105"><a xlink:href="physics__scratch__data_8h.html" target="_top" xlink:title=" ">
<polygon fill="white" stroke="#666666" points="297.58,-272 165.58,-272 165.58,-242 297.58,-242 297.58,-272"/>
<text text-anchor="start" x="173.58" y="-260" font-family="Helvetica,sans-Serif" font-size="10.00">solvers/physics_scratch</text>
<text text-anchor="middle" x="231.58" y="-249" font-family="Helvetica,sans-Serif" font-size="10.00">_data.h</text>
</a>
</g>
</g>
<!-- Node4&#45;&gt;Node105 -->
<g id="edge33_Node000004_Node000105" class="edge">
<title>Node4&#45;&gt;Node105</title>
<g id="a_edge33_Node000004_Node000105"><a xlink:title=" ">
<path fill="none" stroke="#63b8ff" d="M425.16,-307.95C386.96,-298.1 335.73,-284.88 295.57,-274.51"/>
<polygon fill="#63b8ff" stroke="#63b8ff" points="296.44,-271.12 285.88,-272.01 294.69,-277.9 296.44,-271.12"/>
</a>
</g>
</g>
<!-- Node106 -->
<g id="Node000106" class="node">
<title>Node106</title>
<g id="a_Node000106"><a xlink:title=" ">
<polygon fill="#e0e0e0" stroke="#999999" points="481.58,-266.5 315.58,-266.5 315.58,-247.5 481.58,-247.5 481.58,-266.5"/>
<text text-anchor="middle" x="398.58" y="-254.5" font-family="Helvetica,sans-Serif" font-size="10.00">deal.II/dofs/dof_renumbering.h</text>
</a>
</g>
</g>
<!-- Node4&#45;&gt;Node106 -->
<g id="edge34_Node000004_Node000106" class="edge">
<title>Node4&#45;&gt;Node106</title>
<g id="a_edge34_Node000004_Node000106"><a xlink:title=" ">
<path fill="none" stroke="#63b8ff" d="M461.6,-307.8C448.6,-297.53 431.07,-283.67 417.79,-273.18"/>
<polygon fill="#63b8ff" stroke="#63b8ff" points="419.79,-270.3 409.77,-266.84 415.45,-275.79 419.79,-270.3"/>
</a>
</g>
</g>
<!-- Node107 -->
<g id="Node000107" class="node">
<title>Node107</title>
<g id="a_Node000107"><a xlink:title=" ">
<polygon fill="#e0e0e0" stroke="#999999" points="621.08,-272 500.08,-272 500.08,-242 621.08,-242 621.08,-272"/>
<text text-anchor="start" x="508.08" y="-260" font-family="Helvetica,sans-Serif" font-size="10.00">deal.II/fe/fe_interface</text>
<text text-anchor="middle" x="560.58" y="-249" font-family="Helvetica,sans-Serif" font-size="10.00">_values.h</text>
</a>
</g>
</g>
<!-- Node4&#45;&gt;Node107 -->
<g id="edge35_Node000004_Node000107" class="edge">
<title>Node4&#45;&gt;Node107</title>
<g id="a_edge35_Node000004_Node000107"><a xlink:title=" ">
<path fill="none" stroke="#63b8ff" d="M497.56,-307.8C508.46,-299.18 522.56,-288.04 534.66,-278.48"/>
<polygon fill="#63b8ff" stroke="#63b8ff" points="536.98,-281.11 542.65,-272.16 532.64,-275.62 536.98,-281.11"/>
</a>
</g>
</g>
<!-- Node108 -->
<g id="Node000108" class="node">
<title>Node108</title>
<g id="a_Node000108"><a xlink:title=" ">
<polygon fill="#e0e0e0" stroke="#999999" points="761.58,-266.5 639.58,-266.5 639.58,-247.5 761.58,-247.5 761.58,-266.5"/>
<text text-anchor="middle" x="700.58" y="-254.5" font-family="Helvetica,sans-Serif" font-size="10.00">deal.II/fe/fe_system.h</text>
</a>
</g>
</g>
<!-- Node4&#45;&gt;Node108 -->
<g id="edge36_Node000004_Node000108" class="edge">
<title>Node4&#45;&gt;Node108</title>
<g id="a_edge36_Node000004_Node000108"><a xlink:title=" ">
<path fill="none" stroke="#63b8ff" d="M528.08,-307.95C568.03,-296.38 623.97,-280.18 661.2,-269.41"/>
<polygon fill="#63b8ff" stroke="#63b8ff" points="662.54,-272.66 671.17,-266.52 660.59,-265.94 662.54,-272.66"/>
</a>
</g>
</g>
<!-- Node109 -->
<g id="Node000109" class="node">
<title>Node109</title>
<g id="a_Node000109"><a xlink:title=" ">
<polygon fill="#e0e0e0" stroke="#999999" points="147.58,-272 19.58,-272 19.58,-242 147.58,-242 147.58,-272"/>
<text text-anchor="start" x="27.58" y="-260" font-family="Helvetica,sans-Serif" font-size="10.00">deal.II/numerics/vector</text>
<text text-anchor="middle" x="83.58" y="-249" font-family="Helvetica,sans-Serif" font-size="10.00">_tools.h</text>
</a>
</g>
</g>
<!-- Node4&#45;&gt;Node109 -->
<g id="edge37_Node000004_Node000109" class="edge">
<title>Node4&#45;&gt;Node109</title>
<g id="a_edge37_Node000004_Node000109"><a xlink:title=" ">
<path fill="none" stroke="#63b8ff" d="M424.9,-314.15C362.66,-305.07 257.69,-289.35 157.63,-272.15"/>
<polygon fill="#63b8ff" stroke="#63b8ff" points="158.1,-268.68 147.65,-270.42 156.91,-275.57 158.1,-268.68"/>
</a>
</g>
</g>
<!-- Node6 -->
<g id="Node000006" class="node">
<title>Node6</title>
<g id="a_Node000006"><a xlink:href="parameters_8h.html" target="_top" xlink:title=" ">
<polygon fill="#fff0f0" stroke="red" points="571.58,-79.5 465.58,-79.5 465.58,-60.5 571.58,-60.5 571.58,-79.5"/>
<text text-anchor="middle" x="518.58" y="-67.5" font-family="Helvetica,sans-Serif" font-size="10.00">core/parameters.h</text>
</a>
</g>
</g>
<!-- Node5&#45;&gt;Node6 -->
<g id="edge5_Node000005_Node000006" class="edge">
<title>Node5&#45;&gt;Node6</title>
<g id="a_edge5_Node000005_Node000006"><a xlink:title=" ">
<path fill="none" stroke="#63b8ff" d="M150.59,-125.9C231.53,-113.82 373.71,-92.61 455.62,-80.39"/>
<polygon fill="#63b8ff" stroke="#63b8ff" points="456.17,-83.85 465.55,-78.91 455.14,-76.93 456.17,-83.85"/>
</a>
</g>
</g>
<!-- Node43 -->
<g id="Node000043" class="node">
<title>Node43</title>
<g id="a_Node000043"><a xlink:href="multiphysics_8h.html" target="_top" xlink:title="Identifiers for multiphysics modules and their solution fields.">
<polygon fill="white" stroke="#666666" points="806.58,-19 694.58,-19 694.58,0 806.58,0 806.58,-19"/>
<text text-anchor="middle" x="750.58" y="-7" font-family="Helvetica,sans-Serif" font-size="10.00">core/multiphysics.h</text>
</a>
</g>
</g>
<!-- Node6&#45;&gt;Node43 -->
<g id="edge6_Node000006_Node000043" class="edge">
<title>Node6&#45;&gt;Node43</title>
<g id="a_edge6_Node000006_Node000043"><a xlink:title=" ">
<path fill="none" stroke="#63b8ff" d="M552.32,-60.49C593.21,-50.18 662.2,-32.78 707.06,-21.47"/>
<polygon fill="#63b8ff" stroke="#63b8ff" points="707.96,-24.86 716.8,-19.02 706.25,-18.07 707.96,-24.86"/>
</a>
</g>
</g>
<!-- Node45&#45;&gt;Node43 -->
<g id="edge10_Node000045_Node000043" class="edge">
<title>Node45&#45;&gt;Node43</title>
<g id="a_edge10_Node000045_Node000043"><a xlink:title=" ">
<path fill="none" stroke="#63b8ff" d="M1016.25,-241.63C1011.25,-214.88 997.16,-156.88 964.58,-121 917.21,-68.84 839.48,-37.47 791.88,-22.12"/>
<polygon fill="#63b8ff" stroke="#63b8ff" points="792.79,-18.74 782.2,-19.09 790.7,-25.42 792.79,-18.74"/>
</a>
</g>
</g>
<!-- Node46 -->
<g id="Node000046" class="node">
<title>Node46</title>
<g id="a_Node000046"><a xlink:href="exceptions_8h.html" target="_top" xlink:title="Common exception declarations shared across multiple solvers in Lethe.">
<polygon fill="white" stroke="#666666" points="933.08,-206 830.08,-206 830.08,-187 933.08,-187 933.08,-206"/>
<text text-anchor="middle" x="881.58" y="-194" font-family="Helvetica,sans-Serif" font-size="10.00">core/exceptions.h</text>
</a>
</g>
</g>
<!-- Node45&#45;&gt;Node46 -->
<g id="edge8_Node000045_Node000046" class="edge">
<title>Node45&#45;&gt;Node46</title>
<g id="a_edge8_Node000045_Node000046"><a xlink:title=" ">
<path fill="none" stroke="#63b8ff" d="M985.77,-241.99C963.11,-232.31 933.23,-219.56 911.28,-210.18"/>
<polygon fill="#63b8ff" stroke="#63b8ff" points="912.38,-206.85 901.81,-206.14 909.63,-213.29 912.38,-206.85"/>
</a>
</g>
</g>
<!-- Node47 -->
<g id="Node000047" class="node">
<title>Node47</title>
<g id="a_Node000047"><a xlink:title=" ">
<polygon fill="#e0e0e0" stroke="#999999" points="955.58,-145.5 817.58,-145.5 817.58,-126.5 955.58,-126.5 955.58,-145.5"/>
<text text-anchor="middle" x="886.58" y="-133.5" font-family="Helvetica,sans-Serif" font-size="10.00">deal.II/base/exceptions.h</text>
</a>
</g>
</g>
<!-- Node45&#45;&gt;Node47 -->
<g id="edge27_Node000045_Node000047" class="edge">
<title>Node45&#45;&gt;Node47</title>
<g id="a_edge27_Node000045_Node000047"><a xlink:title=" ">
<path fill="none" stroke="#63b8ff" d="M1003.19,-241.95C987.86,-227.99 963.64,-205.96 942.58,-187 929.77,-175.46 915.24,-162.5 904.2,-152.66"/>
<polygon fill="#63b8ff" stroke="#63b8ff" points="906.31,-149.86 896.52,-145.83 901.66,-155.09 906.31,-149.86"/>
</a>
</g>
</g>
<!-- Node48 -->
<g id="Node000048" class="node">
<title>Node48</title>
<g id="a_Node000048"><a xlink:href="parameters__multiphysics_8h.html" target="_top" xlink:title=" ">
<polygon fill="#fff0f0" stroke="red" points="605.08,-145.5 432.08,-145.5 432.08,-126.5 605.08,-126.5 605.08,-145.5"/>
<text text-anchor="middle" x="518.58" y="-133.5" font-family="Helvetica,sans-Serif" font-size="10.00">core/parameters_multiphysics.h</text>
</a>
</g>
</g>
<!-- Node45&#45;&gt;Node48 -->
<g id="edge11_Node000045_Node000048" class="edge">
<title>Node45&#45;&gt;Node48</title>
<g id="a_edge11_Node000045_Node000048"><a xlink:title=" ">
<path fill="none" stroke="#63b8ff" d="M960.05,-243.49C956.85,-242.95 953.68,-242.45 950.58,-242 904.23,-235.27 565.1,-237.65 530.58,-206 517.02,-193.57 515.3,-171.73 516.16,-155.95"/>
<polygon fill="#63b8ff" stroke="#63b8ff" points="519.66,-156.03 517.1,-145.75 512.69,-155.38 519.66,-156.03"/>
</a>
</g>
</g>
<!-- Node51 -->
<g id="Node000051" class="node">
<title>Node51</title>
<g id="a_Node000051"><a xlink:href="simulation__control_8h.html" target="_top" xlink:title="Simulation control classes for managing time&#45;stepping and iteration control in Lethe.">
<polygon fill="#fff0f0" stroke="red" points="679.58,-206 539.58,-206 539.58,-187 679.58,-187 679.58,-206"/>
<text text-anchor="middle" x="609.58" y="-194" font-family="Helvetica,sans-Serif" font-size="10.00">core/simulation_control.h</text>
</a>
</g>
</g>
<!-- Node45&#45;&gt;Node51 -->
<g id="edge13_Node000045_Node000051" class="edge">
<title>Node45&#45;&gt;Node51</title>
<g id="a_edge13_Node000045_Node000051"><a xlink:title=" ">
<path fill="none" stroke="#63b8ff" d="M960.03,-243.66C956.84,-243.08 953.67,-242.52 950.58,-242 861.63,-227.06 758.91,-214.26 689.65,-206.27"/>
<polygon fill="#63b8ff" stroke="#63b8ff" points="690.02,-202.79 679.68,-205.13 689.22,-209.74 690.02,-202.79"/>
</a>
</g>
</g>
<!-- Node55 -->
<g id="Node000055" class="node">
<title>Node55</title>
<g id="a_Node000055"><a xlink:href="solid__base_8h.html" target="_top" xlink:title=" ">
<polygon fill="#fff0f0" stroke="red" points="1205.08,-206 1104.08,-206 1104.08,-187 1205.08,-187 1205.08,-206"/>
<text text-anchor="middle" x="1154.58" y="-194" font-family="Helvetica,sans-Serif" font-size="10.00">core/solid_base.h</text>
</a>
</g>
</g>
<!-- Node45&#45;&gt;Node55 -->
<g id="edge15_Node000045_Node000055" class="edge">
<title>Node45&#45;&gt;Node55</title>
<g id="a_edge15_Node000045_Node000055"><a xlink:title=" ">
<path fill="none" stroke="#63b8ff" d="M1051.16,-241.99C1073.64,-232.31 1103.3,-219.56 1125.09,-210.18"/>
<polygon fill="#63b8ff" stroke="#63b8ff" points="1126.69,-213.31 1134.5,-206.14 1123.93,-206.88 1126.69,-213.31"/>
</a>
</g>
</g>
<!-- Node57 -->
<g id="Node000057" class="node">
<title>Node57</title>
<g id="a_Node000057"><a xlink:href="vector_8h.html" target="_top" xlink:title=" ">
<polygon fill="#fff0f0" stroke="red" points="1177.58,-145.5 1097.58,-145.5 1097.58,-126.5 1177.58,-126.5 1177.58,-145.5"/>
<text text-anchor="middle" x="1137.58" y="-133.5" font-family="Helvetica,sans-Serif" font-size="10.00">core/vector.h</text>
</a>
</g>
</g>
<!-- Node45&#45;&gt;Node57 -->
<g id="edge22_Node000045_Node000057" class="edge">
<title>Node45&#45;&gt;Node57</title>
<g id="a_edge22_Node000045_Node000057"><a xlink:title=" ">
<path fill="none" stroke="#63b8ff" d="M1032.7,-241.88C1055.05,-219.54 1098.42,-176.16 1121.77,-152.81"/>
<polygon fill="#63b8ff" stroke="#63b8ff" points="1124.27,-155.26 1128.87,-145.71 1119.32,-150.31 1124.27,-155.26"/>
</a>
</g>
</g>
<!-- Node61 -->
<g id="Node000061" class="node">
<title>Node61</title>
<g id="a_Node000061"><a xlink:title=" ">
<polygon fill="#e0e0e0" stroke="#999999" points="1179.58,-85 1045.58,-85 1045.58,-55 1179.58,-55 1179.58,-85"/>
<text text-anchor="start" x="1053.58" y="-73" font-family="Helvetica,sans-Serif" font-size="10.00">deal.II/lac/trilinos</text>
<text text-anchor="middle" x="1112.58" y="-62" font-family="Helvetica,sans-Serif" font-size="10.00">_parallel_block_vector.h</text>
</a>
</g>
</g>
<!-- Node45&#45;&gt;Node61 -->
<g id="edge29_Node000045_Node000061" class="edge">
<title>Node45&#45;&gt;Node61</title>
<g id="a_edge29_Node000045_Node000061"><a xlink:title=" ">
<path fill="none" stroke="#63b8ff" d="M1025.8,-241.79C1041.97,-209.97 1081.21,-132.73 1100.91,-93.98"/>
<polygon fill="#63b8ff" stroke="#63b8ff" points="1104.05,-95.51 1105.46,-85 1097.81,-92.33 1104.05,-95.51"/>
</a>
</g>
</g>
<!-- Node45&#45;&gt;Node62 -->
<g id="edge30_Node000045_Node000062" class="edge">
<title>Node45&#45;&gt;Node62</title>
<g id="a_edge30_Node000045_Node000062"><a xlink:title=" ">
<path fill="none" stroke="#63b8ff" d="M1077.27,-243.62C1137.76,-230.73 1225.32,-211.64 1240.58,-206 1289.63,-187.87 1317.6,-195.79 1344.58,-151 1356.02,-132 1342.38,-109.16 1328.18,-92.76"/>
<polygon fill="#63b8ff" stroke="#63b8ff" points="1330.62,-90.25 1321.27,-85.27 1325.48,-94.99 1330.62,-90.25"/>
</a>
</g>
</g>
<!-- Node45&#45;&gt;Node64 -->
<g id="edge28_Node000045_Node000064" class="edge">
<title>Node45&#45;&gt;Node64</title>
<g id="a_edge28_Node000045_Node000064"><a xlink:title=" ">
<path fill="none" stroke="#63b8ff" d="M1077.2,-242.69C1130.44,-230.32 1202.48,-212.83 1214.58,-206 1235.52,-194.18 1254.61,-174.47 1267.55,-159.13"/>
<polygon fill="#63b8ff" stroke="#63b8ff" points="1270.46,-161.1 1274.08,-151.14 1265.04,-156.67 1270.46,-161.1"/>
</a>
</g>
</g>
<!-- Node66 -->
<g id="Node000066" class="node">
<title>Node66</title>
<g id="a_Node000066"><a xlink:href="auxiliary__physics_8h.html" target="_top" xlink:title=" ">
<polygon fill="#fff0f0" stroke="red" points="484.08,-206 335.08,-206 335.08,-187 484.08,-187 484.08,-206"/>
<text text-anchor="middle" x="409.58" y="-194" font-family="Helvetica,sans-Serif" font-size="10.00">solvers/auxiliary_physics.h</text>
</a>
</g>
</g>
<!-- Node45&#45;&gt;Node66 -->
<g id="edge23_Node000045_Node000066" class="edge">
<title>Node45&#45;&gt;Node66</title>
<g id="a_edge23_Node000045_Node000066"><a xlink:title=" ">
<path fill="none" stroke="#63b8ff" d="M960.06,-243.47C956.86,-242.94 953.68,-242.44 950.58,-242 750.62,-213.58 698.77,-223.71 497.58,-206 496.64,-205.92 495.7,-205.83 494.75,-205.75"/>
<polygon fill="#63b8ff" stroke="#63b8ff" points="494.74,-202.23 484.46,-204.82 494.11,-209.21 494.74,-202.23"/>
</a>
</g>
</g>
<!-- Node29 -->
<g id="Node000029" class="node">
<title>Node29</title>
<g id="a_Node000029"><a xlink:title=" ">
<polygon fill="#e0e0e0" stroke="#999999" points="735.58,-206 697.58,-206 697.58,-187 735.58,-187 735.58,-206"/>
<text text-anchor="middle" x="716.58" y="-194" font-family="Helvetica,sans-Serif" font-size="10.00">map</text>
</a>
</g>
</g>
<!-- Node45&#45;&gt;Node29 -->
<g id="edge31_Node000045_Node000029" class="edge">
<title>Node45&#45;&gt;Node29</title>
<g id="a_edge31_Node000045_Node000029"><a xlink:title=" ">
<path fill="none" stroke="#63b8ff" d="M960,-243.82C956.81,-243.2 953.66,-242.59 950.58,-242 862.4,-225.22 836.73,-227.36 745.69,-206.02"/>
<polygon fill="#63b8ff" stroke="#63b8ff" points="746.31,-202.57 735.78,-203.66 744.7,-209.38 746.31,-202.57"/>
</a>
</g>
</g>
<!-- Node41 -->
<g id="Node000041" class="node">
<title>Node41</title>
<g id="a_Node000041"><a xlink:title=" ">
<polygon fill="#e0e0e0" stroke="#999999" points="811.58,-206 753.58,-206 753.58,-187 811.58,-187 811.58,-206"/>
<text text-anchor="middle" x="782.58" y="-194" font-family="Helvetica,sans-Serif" font-size="10.00">memory</text>
</a>
</g>
</g>
<!-- Node45&#45;&gt;Node41 -->
<g id="edge32_Node000045_Node000041" class="edge">
<title>Node45&#45;&gt;Node41</title>
<g id="a_edge32_Node000045_Node000041"><a xlink:title=" ">
<path fill="none" stroke="#63b8ff" d="M962.05,-241.99C918.62,-231.22 859.76,-216.63 821.48,-207.14"/>
<polygon fill="#63b8ff" stroke="#63b8ff" points="822.29,-203.74 811.74,-204.73 820.61,-210.53 822.29,-203.74"/>
</a>
</g>
</g>
<!-- Node46&#45;&gt;Node47 -->
<g id="edge9_Node000046_Node000047" class="edge">
<title>Node46&#45;&gt;Node47</title>
<g id="a_edge9_Node000046_Node000047"><a xlink:title=" ">
<path fill="none" stroke="#63b8ff" d="M882.32,-186.87C883.01,-178.75 884.08,-166.31 884.97,-155.89"/>
<polygon fill="#63b8ff" stroke="#63b8ff" points="888.48,-155.93 885.84,-145.67 881.5,-155.33 888.48,-155.93"/>
</a>
</g>
</g>
<!-- Node48&#45;&gt;Node6 -->
<g id="edge12_Node000048_Node000006" class="edge">
<title>Node48&#45;&gt;Node6</title>
<g id="a_edge12_Node000048_Node000006"><a xlink:title=" ">
<path fill="none" stroke="#63b8ff" d="M518.58,-126.37C518.58,-117.16 518.58,-102.29 518.58,-90.27"/>
<polygon fill="#63b8ff" stroke="#63b8ff" points="522.08,-89.91 518.58,-79.91 515.08,-89.91 522.08,-89.91"/>
</a>
</g>
</g>
<!-- Node51&#45;&gt;Node6 -->
<g id="edge14_Node000051_Node000006" class="edge">
<title>Node51&#45;&gt;Node6</title>
<g id="a_edge14_Node000051_Node000006"><a xlink:title=" ">
<path fill="none" stroke="#63b8ff" d="M612.94,-186.94C618.11,-172.25 626.17,-141.85 613.58,-121 602.46,-102.57 582.03,-90.6 562.97,-83"/>
<polygon fill="#63b8ff" stroke="#63b8ff" points="564.07,-79.67 553.47,-79.51 561.65,-86.25 564.07,-79.67"/>
</a>
</g>
</g>
<!-- Node55&#45;&gt;Node6 -->
<g id="edge16_Node000055_Node000006" class="edge">
<title>Node55&#45;&gt;Node6</title>
<g id="a_edge16_Node000055_Node000006"><a xlink:title=" ">
<path fill="none" stroke="#63b8ff" d="M1137.27,-186.92C1104.47,-171.08 1030.62,-137.35 964.58,-121 830.9,-87.91 669.2,-76.68 581.91,-72.89"/>
<polygon fill="#63b8ff" stroke="#63b8ff" points="582.03,-69.4 571.89,-72.48 581.74,-76.39 582.03,-69.4"/>
</a>
</g>
</g>
<!-- Node55&#45;&gt;Node57 -->
<g id="edge17_Node000055_Node000057" class="edge">
<title>Node55&#45;&gt;Node57</title>
<g id="a_edge17_Node000055_Node000057"><a xlink:title=" ">
<path fill="none" stroke="#63b8ff" d="M1152.07,-186.87C1149.69,-178.66 1146.02,-166.04 1142.97,-155.55"/>
<polygon fill="#63b8ff" stroke="#63b8ff" points="1146.25,-154.29 1140.1,-145.67 1139.53,-156.25 1146.25,-154.29"/>
</a>
</g>
</g>
<!-- Node55&#45;&gt;Node62 -->
<g id="edge21_Node000055_Node000062" class="edge">
<title>Node55&#45;&gt;Node62</title>
<g id="a_edge21_Node000055_Node000062"><a xlink:title=" ">
<path fill="none" stroke="#63b8ff" d="M1161.3,-186.99C1173.1,-172.39 1198.74,-142.1 1224.58,-121 1238.57,-109.57 1255.38,-98.79 1270.06,-90.18"/>
<polygon fill="#63b8ff" stroke="#63b8ff" points="1271.94,-93.13 1278.87,-85.12 1268.46,-87.06 1271.94,-93.13"/>
</a>
</g>
</g>
<!-- Node55&#45;&gt;Node64 -->
<g id="edge20_Node000055_Node000064" class="edge">
<title>Node55&#45;&gt;Node64</title>
<g id="a_edge20_Node000055_Node000064"><a xlink:title=" ">
<path fill="none" stroke="#63b8ff" d="M1173.48,-186.99C1191.87,-178.72 1220.38,-165.89 1243.92,-155.3"/>
<polygon fill="#63b8ff" stroke="#63b8ff" points="1245.64,-158.36 1253.33,-151.06 1242.77,-151.98 1245.64,-158.36"/>
</a>
</g>
</g>
<!-- Node57&#45;&gt;Node61 -->
<g id="edge18_Node000057_Node000061" class="edge">
<title>Node57&#45;&gt;Node61</title>
<g id="a_edge18_Node000057_Node000061"><a xlink:title=" ">
<path fill="none" stroke="#63b8ff" d="M1134.21,-126.37C1131.07,-118.32 1126.23,-105.94 1121.93,-94.93"/>
<polygon fill="#63b8ff" stroke="#63b8ff" points="1125.09,-93.4 1118.19,-85.36 1118.57,-95.95 1125.09,-93.4"/>
</a>
</g>
</g>
<!-- Node57&#45;&gt;Node62 -->
<g id="edge19_Node000057_Node000062" class="edge">
<title>Node57&#45;&gt;Node62</title>
<g id="a_edge19_Node000057_Node000062"><a xlink:title=" ">
<path fill="none" stroke="#63b8ff" d="M1160.24,-126.37C1185.4,-116.78 1226.71,-101.05 1258.87,-88.8"/>
<polygon fill="#63b8ff" stroke="#63b8ff" points="1260.43,-91.95 1268.53,-85.12 1257.94,-85.4 1260.43,-91.95"/>
</a>
</g>
</g>
<!-- Node66&#45;&gt;Node6 -->
<g id="edge24_Node000066_Node000006" class="edge">
<title>Node66&#45;&gt;Node6</title>
<g id="a_edge24_Node000066_Node000006"><a xlink:title=" ">
<path fill="none" stroke="#63b8ff" d="M408.76,-186.74C407.83,-171.76 408,-140.92 422.58,-121 435.78,-102.97 457.42,-90.9 476.83,-83.14"/>
<polygon fill="#63b8ff" stroke="#63b8ff" points="478.27,-86.34 486.42,-79.58 475.83,-79.78 478.27,-86.34"/>
</a>
</g>
</g>
<!-- Node67 -->
<g id="Node000067" class="node">
<title>Node67</title>
<g id="a_Node000067"><a xlink:href="physics__solver_8h.html" target="_top" xlink:title=" ">
<polygon fill="#fff0f0" stroke="red" points="375.08,-145.5 254.08,-145.5 254.08,-126.5 375.08,-126.5 375.08,-145.5"/>
<text text-anchor="middle" x="314.58" y="-133.5" font-family="Helvetica,sans-Serif" font-size="10.00">core/physics_solver.h</text>
</a>
</g>
</g>
<!-- Node66&#45;&gt;Node67 -->
<g id="edge25_Node000066_Node000067" class="edge">
<title>Node66&#45;&gt;Node67</title>
<g id="a_edge25_Node000066_Node000067"><a xlink:title=" ">
<path fill="none" stroke="#63b8ff" d="M395.56,-186.87C380.27,-177.45 355.55,-162.23 337.44,-151.08"/>
<polygon fill="#63b8ff" stroke="#63b8ff" points="339.01,-147.93 328.66,-145.67 335.34,-153.89 339.01,-147.93"/>
</a>
</g>
</g>
<!-- Node67&#45;&gt;Node6 -->
<g id="edge26_Node000067_Node000006" class="edge">
<title>Node67&#45;&gt;Node6</title>
<g id="a_edge26_Node000067_Node000006"><a xlink:title=" ">
<path fill="none" stroke="#63b8ff" d="M342.09,-126.37C378.09,-115.08 441.29,-95.25 481.49,-82.64"/>
<polygon fill="#63b8ff" stroke="#63b8ff" points="482.69,-85.93 491.18,-79.6 480.59,-79.25 482.69,-85.93"/>
</a>
</g>
</g>
<!-- Node110&#45;&gt;Node45 -->
<g id="edge40_Node000110_Node000045" class="edge">
<title>Node110&#45;&gt;Node45</title>
<g id="a_edge40_Node000110_Node000045"><a xlink:title=" ">
<path fill="none" stroke="#63b8ff" d="M1094.83,-307.8C1081.26,-298.93 1063.59,-287.39 1048.68,-277.66"/>
<polygon fill="#63b8ff" stroke="#63b8ff" points="1050.56,-274.7 1040.27,-272.16 1046.73,-280.56 1050.56,-274.7"/>
</a>
</g>
</g>
<!-- Node82 -->
<g id="Node000082" class="node">
<title>Node82</title>
<g id="a_Node000082"><a xlink:href="cls__subequations_8h.html" target="_top" xlink:title=" ">
<polygon fill="white" stroke="#666666" points="1243.58,-266.5 1095.58,-266.5 1095.58,-247.5 1243.58,-247.5 1243.58,-266.5"/>
<text text-anchor="middle" x="1169.58" y="-254.5" font-family="Helvetica,sans-Serif" font-size="10.00">solvers/cls_subequations.h</text>
</a>
</g>
</g>
<!-- Node110&#45;&gt;Node82 -->
<g id="edge39_Node000110_Node000082" class="edge">
<title>Node110&#45;&gt;Node82</title>
<g id="a_edge39_Node000110_Node000082"><a xlink:title=" ">
<path fill="none" stroke="#63b8ff" d="M1128.34,-307.8C1136.44,-298.01 1147.24,-284.98 1155.75,-274.7"/>
<polygon fill="#63b8ff" stroke="#63b8ff" points="1158.57,-276.78 1162.26,-266.84 1153.18,-272.31 1158.57,-276.78"/>
</a>
</g>
</g>
<!-- Node110&#45;&gt;Node111 -->
<g id="edge41_Node000110_Node000111" class="edge">
<title>Node110&#45;&gt;Node111</title>
<g id="a_edge41_Node000110_Node000111"><a xlink:title=" ">
<path fill="none" stroke="#63b8ff" d="M1060.4,-307.95C1020.88,-298.08 967.87,-284.82 926.37,-274.45"/>
<polygon fill="#63b8ff" stroke="#63b8ff" points="927.18,-271.04 916.63,-272.01 925.48,-277.83 927.18,-271.04"/>
</a>
</g>
</g>
<!-- Node111&#45;&gt;Node67 -->
<g id="edge42_Node000111_Node000067" class="edge">
<title>Node111&#45;&gt;Node67</title>
<g id="a_edge42_Node000111_Node000067"><a xlink:title=" ">
<path fill="none" stroke="#63b8ff" d="M779.18,-243.06C776.28,-242.69 773.41,-242.33 770.58,-242 721.32,-236.18 361.99,-239.69 325.58,-206 312.11,-193.54 310.72,-171.71 311.84,-155.93"/>
<polygon fill="#63b8ff" stroke="#63b8ff" points="315.34,-156.06 312.95,-145.74 308.38,-155.3 315.34,-156.06"/>
</a>
</g>
</g>
</g>
</svg>
