<?xml version="1.0" encoding="UTF-8" standalone="no"?>
<!DOCTYPE svg PUBLIC "-//W3C//DTD SVG 1.1//EN"
 "http://www.w3.org/Graphics/SVG/1.1/DTD/svg11.dtd">
<!-- Generated by graphviz version 2.43.0 (0)
 -->
<!-- Title: /home/runner/work/lethe/lethe/include/solvers/cls_scratch_data.h Pages: 1 -->
<svg width="1062pt" height="302pt"
 viewBox="0.00 0.00 1061.50 302.00" xmlns="http://www.w3.org/2000/svg" xmlns:xlink="http://www.w3.org/1999/xlink">
<g id="graph0" class="graph" transform="scale(1 1) rotate(0) translate(4 298)">
<title>/home/runner/work/lethe/lethe/include/solvers/cls_scratch_data.h</title>
<!-- Node1 -->
<g id="Node000001" class="node">
<title>Node1</title>
<g id="a_Node000001"><a xlink:title=" ">
<polygon fill="#999999" stroke="#666666" points="569,-294 432,-294 432,-253 569,-253 569,-294"/>
<text text-anchor="start" x="440" y="-282" font-family="Helvetica,sans-Serif" font-size="10.00">/home/runner/work/lethe</text>
<text text-anchor="start" x="440" y="-271" font-family="Helvetica,sans-Serif" font-size="10.00">/lethe/include/solvers</text>
<text text-anchor="middle" x="500.5" y="-260" font-family="Helvetica,sans-Serif" font-size="10.00">/cls_scratch_data.h</text>
</a>
</g>
</g>
<!-- Node2 -->
<g id="Node000002" class="node">
<title>Node2</title>
<g id="a_Node000002"><a xlink:href="cls_8h.html" target="_top" xlink:title=" ">
<polygon fill="white" stroke="#666666" points="459.5,-118 313.5,-118 313.5,-88 459.5,-88 459.5,-118"/>
<text text-anchor="start" x="321.5" y="-106" font-family="Helvetica,sans-Serif" font-size="10.00">/home/runner/work/lethe</text>
<text text-anchor="middle" x="386.5" y="-95" font-family="Helvetica,sans-Serif" font-size="10.00">/lethe/include/solvers/cls.h</text>
</a>
</g>
</g>
<!-- Node1&#45;&gt;Node2 -->
<g id="edge1_Node000001_Node000002" class="edge">
<title>Node1&#45;&gt;Node2</title>
<g id="a_edge1_Node000001_Node000002"><a xlink:title=" ">
<path fill="none" stroke="#63b8ff" d="M501.48,-242.72C500.85,-219.71 496.83,-188.01 481.5,-165 467.27,-143.63 442.73,-128.16 422.15,-118.14"/>
<polygon fill="#63b8ff" stroke="#63b8ff" points="497.99,-242.96 501.56,-252.93 504.99,-242.9 497.99,-242.96"/>
</a>
</g>
</g>
<!-- Node5 -->
<g id="Node000005" class="node">
<title>Node5</title>
<g id="a_Node000005"><a xlink:href="cls__assemblers_8h.html" target="_top" xlink:title=" ">
<polygon fill="white" stroke="#666666" points="301,-211.5 164,-211.5 164,-170.5 301,-170.5 301,-211.5"/>
<text text-anchor="start" x="172" y="-199.5" font-family="Helvetica,sans-Serif" font-size="10.00">/home/runner/work/lethe</text>
<text text-anchor="start" x="172" y="-188.5" font-family="Helvetica,sans-Serif" font-size="10.00">/lethe/include/solvers</text>
<text text-anchor="middle" x="232.5" y="-177.5" font-family="Helvetica,sans-Serif" font-size="10.00">/cls_assemblers.h</text>
</a>
</g>
</g>
<!-- Node1&#45;&gt;Node5 -->
<g id="edge4_Node000001_Node000005" class="edge">
<title>Node1&#45;&gt;Node5</title>
<g id="a_edge4_Node000001_Node000005"><a xlink:title=" ">
<path fill="none" stroke="#63b8ff" d="M425.52,-249.98C385.28,-237.89 336.16,-223.14 297.54,-211.54"/>
<polygon fill="#63b8ff" stroke="#63b8ff" points="424.7,-253.39 435.28,-252.91 426.71,-246.68 424.7,-253.39"/>
</a>
</g>
</g>
<!-- Node8 -->
<g id="Node000008" class="node">
<title>Node8</title>
<g id="a_Node000008"><a xlink:href="cls__linear__subequations__solver_8h.html" target="_top" xlink:title=" ">
<polygon fill="white" stroke="#666666" points="672,-217 535,-217 535,-165 672,-165 672,-217"/>
<text text-anchor="start" x="543" y="-205" font-family="Helvetica,sans-Serif" font-size="10.00">/home/runner/work/lethe</text>
<text text-anchor="start" x="543" y="-194" font-family="Helvetica,sans-Serif" font-size="10.00">/lethe/include/solvers</text>
<text text-anchor="start" x="543" y="-183" font-family="Helvetica,sans-Serif" font-size="10.00">/cls_linear_subequations</text>
<text text-anchor="middle" x="603.5" y="-172" font-family="Helvetica,sans-Serif" font-size="10.00">_solver.h</text>
</a>
</g>
</g>
<!-- Node1&#45;&gt;Node8 -->
<g id="edge8_Node000001_Node000008" class="edge">
<title>Node1&#45;&gt;Node8</title>
<g id="a_edge8_Node000001_Node000008"><a xlink:title=" ">
<path fill="none" stroke="#63b8ff" d="M533.72,-246.54C545.72,-237.16 559.24,-226.59 571.16,-217.28"/>
<polygon fill="#63b8ff" stroke="#63b8ff" points="531.42,-243.89 525.7,-252.81 535.73,-249.41 531.42,-243.89"/>
</a>
</g>
</g>
<!-- Node15 -->
<g id="Node000015" class="node">
<title>Node15</title>
<g id="a_Node000015"><a xlink:href="cls__pde__based__interface__reinitialization_8h.html" target="_top" xlink:title=" ">
<polygon fill="white" stroke="#666666" points="472.5,-217 332.5,-217 332.5,-165 472.5,-165 472.5,-217"/>
<text text-anchor="start" x="340.5" y="-205" font-family="Helvetica,sans-Serif" font-size="10.00">/home/runner/work/lethe</text>
<text text-anchor="start" x="340.5" y="-194" font-family="Helvetica,sans-Serif" font-size="10.00">/lethe/include/solvers</text>
<text text-anchor="start" x="340.5" y="-183" font-family="Helvetica,sans-Serif" font-size="10.00">/cls_pde_based_interface</text>
<text text-anchor="middle" x="402.5" y="-172" font-family="Helvetica,sans-Serif" font-size="10.00">_reinitialization.h</text>
</a>
</g>
</g>
<!-- Node1&#45;&gt;Node15 -->
<g id="edge18_Node000001_Node000015" class="edge">
<title>Node1&#45;&gt;Node15</title>
<g id="a_edge18_Node000001_Node000015"><a xlink:title=" ">
<path fill="none" stroke="#63b8ff" d="M468.56,-246.26C457.23,-236.96 444.5,-226.5 433.27,-217.28"/>
<polygon fill="#63b8ff" stroke="#63b8ff" points="466.58,-249.16 476.53,-252.81 471.02,-243.76 466.58,-249.16"/>
</a>
</g>
</g>
<!-- Node16 -->
<g id="Node000016" class="node">
<title>Node16</title>
<g id="a_Node000016"><a xlink:href="cls__scratch__data_8cc.html" target="_top" xlink:title=" ">
<polygon fill="white" stroke="#666666" points="827,-211.5 690,-211.5 690,-170.5 827,-170.5 827,-211.5"/>
<text text-anchor="start" x="698" y="-199.5" font-family="Helvetica,sans-Serif" font-size="10.00">/home/runner/work/lethe</text>
<text text-anchor="start" x="698" y="-188.5" font-family="Helvetica,sans-Serif" font-size="10.00">/lethe/source/solvers</text>
<text text-anchor="middle" x="758.5" y="-177.5" font-family="Helvetica,sans-Serif" font-size="10.00">/cls_scratch_data.cc</text>
</a>
</g>
</g>
<!-- Node1&#45;&gt;Node16 -->
<g id="edge21_Node000001_Node000016" class="edge">
<title>Node1&#45;&gt;Node16</title>
<g id="a_edge21_Node000001_Node000016"><a xlink:title=" ">
<path fill="none" stroke="#63b8ff" d="M575.03,-249.95C607.73,-239.97 646.56,-228.03 681.5,-217 687,-215.27 692.71,-213.45 698.42,-211.61"/>
<polygon fill="#63b8ff" stroke="#63b8ff" points="573.63,-246.72 565.08,-252.98 575.67,-253.41 573.63,-246.72"/>
</a>
</g>
</g>
<!-- Node3 -->
<g id="Node000003" class="node">
<title>Node3</title>
<g id="a_Node000003"><a xlink:href="cls_8cc.html" target="_top" xlink:title=" ">
<polygon fill="white" stroke="#666666" points="475,-41 338,-41 338,0 475,0 475,-41"/>
<text text-anchor="start" x="346" y="-29" font-family="Helvetica,sans-Serif" font-size="10.00">/home/runner/work/lethe</text>
<text text-anchor="start" x="346" y="-18" font-family="Helvetica,sans-Serif" font-size="10.00">/lethe/source/solvers</text>
<text text-anchor="middle" x="406.5" y="-7" font-family="Helvetica,sans-Serif" font-size="10.00">/cls.cc</text>
</a>
</g>
</g>
<!-- Node2&#45;&gt;Node3 -->
<g id="edge2_Node000002_Node000003" class="edge">
<title>Node2&#45;&gt;Node3</title>
<g id="a_edge2_Node000002_Node000003"><a xlink:title=" ">
<path fill="none" stroke="#63b8ff" d="M392.48,-77.94C395.4,-66.17 398.87,-52.19 401.63,-41.09"/>
<polygon fill="#63b8ff" stroke="#63b8ff" points="389,-77.43 389.98,-87.98 395.79,-79.12 389,-77.43"/>
</a>
</g>
</g>
<!-- Node4 -->
<g id="Node000004" class="node">
<title>Node4</title>
<g id="a_Node000004"><a xlink:href="multiphysics__interface_8cc.html" target="_top" xlink:title=" ">
<polygon fill="white" stroke="#666666" points="319.5,-41 175.5,-41 175.5,0 319.5,0 319.5,-41"/>
<text text-anchor="start" x="183.5" y="-29" font-family="Helvetica,sans-Serif" font-size="10.00">/home/runner/work/lethe</text>
<text text-anchor="start" x="183.5" y="-18" font-family="Helvetica,sans-Serif" font-size="10.00">/lethe/source/solvers</text>
<text text-anchor="middle" x="247.5" y="-7" font-family="Helvetica,sans-Serif" font-size="10.00">/multiphysics_interface.cc</text>
</a>
</g>
</g>
<!-- Node2&#45;&gt;Node4 -->
<g id="edge3_Node000002_Node000004" class="edge">
<title>Node2&#45;&gt;Node4</title>
<g id="a_edge3_Node000002_Node000004"><a xlink:title=" ">
<path fill="none" stroke="#63b8ff" d="M353.4,-82.83C331.64,-70.23 303.24,-53.78 281.33,-41.09"/>
<polygon fill="#63b8ff" stroke="#63b8ff" points="351.88,-86 362.29,-87.98 355.39,-79.94 351.88,-86"/>
</a>
</g>
</g>
<!-- Node5&#45;&gt;Node2 -->
<g id="edge5_Node000005_Node000002" class="edge">
<title>Node5&#45;&gt;Node2</title>
<g id="a_edge5_Node000005_Node000002"><a xlink:title=" ">
<path fill="none" stroke="#63b8ff" d="M276.47,-165.45C303.94,-150.1 338.34,-130.9 361.29,-118.08"/>
<polygon fill="#63b8ff" stroke="#63b8ff" points="274.47,-162.55 267.44,-170.49 277.88,-168.67 274.47,-162.55"/>
</a>
</g>
</g>
<!-- Node6 -->
<g id="Node000006" class="node">
<title>Node6</title>
<g id="a_Node000006"><a xlink:href="cls__assemblers_8cc.html" target="_top" xlink:title=" ">
<polygon fill="white" stroke="#666666" points="137,-123.5 0,-123.5 0,-82.5 137,-82.5 137,-123.5"/>
<text text-anchor="start" x="8" y="-111.5" font-family="Helvetica,sans-Serif" font-size="10.00">/home/runner/work/lethe</text>
<text text-anchor="start" x="8" y="-100.5" font-family="Helvetica,sans-Serif" font-size="10.00">/lethe/source/solvers</text>
<text text-anchor="middle" x="68.5" y="-89.5" font-family="Helvetica,sans-Serif" font-size="10.00">/cls_assemblers.cc</text>
</a>
</g>
</g>
<!-- Node5&#45;&gt;Node6 -->
<g id="edge6_Node000005_Node000006" class="edge">
<title>Node5&#45;&gt;Node6</title>
<g id="a_edge6_Node000005_Node000006"><a xlink:title=" ">
<path fill="none" stroke="#63b8ff" d="M186.21,-165.72C160.79,-152.4 129.7,-136.09 105.85,-123.59"/>
<polygon fill="#63b8ff" stroke="#63b8ff" points="184.8,-168.94 195.29,-170.49 188.06,-162.74 184.8,-168.94"/>
</a>
</g>
</g>
<!-- Node7 -->
<g id="Node000007" class="node">
<title>Node7</title>
<g id="a_Node000007"><a xlink:href="cls__pde__based__interface__reinitialization_8cc.html" target="_top" xlink:title=" ">
<polygon fill="white" stroke="#666666" points="295.5,-129 155.5,-129 155.5,-77 295.5,-77 295.5,-129"/>
<text text-anchor="start" x="163.5" y="-117" font-family="Helvetica,sans-Serif" font-size="10.00">/home/runner/work/lethe</text>
<text text-anchor="start" x="163.5" y="-106" font-family="Helvetica,sans-Serif" font-size="10.00">/lethe/source/solvers</text>
<text text-anchor="start" x="163.5" y="-95" font-family="Helvetica,sans-Serif" font-size="10.00">/cls_pde_based_interface</text>
<text text-anchor="middle" x="225.5" y="-84" font-family="Helvetica,sans-Serif" font-size="10.00">_reinitialization.cc</text>
</a>
</g>
</g>
<!-- Node5&#45;&gt;Node7 -->
<g id="edge7_Node000005_Node000007" class="edge">
<title>Node5&#45;&gt;Node7</title>
<g id="a_edge7_Node000005_Node000007"><a xlink:title=" ">
<path fill="none" stroke="#63b8ff" d="M230.09,-160.44C229.27,-150.31 228.36,-139.08 227.56,-129.32"/>
<polygon fill="#63b8ff" stroke="#63b8ff" points="226.61,-160.8 230.91,-170.49 233.59,-160.23 226.61,-160.8"/>
</a>
</g>
</g>
<!-- Node8&#45;&gt;Node2 -->
<g id="edge9_Node000008_Node000002" class="edge">
<title>Node8&#45;&gt;Node2</title>
<g id="a_edge9_Node000008_Node000002"><a xlink:title=" ">
<path fill="none" stroke="#63b8ff" d="M530.5,-161.07C493.89,-146.56 451.22,-129.65 421.89,-118.03"/>
<polygon fill="#63b8ff" stroke="#63b8ff" points="529.57,-164.46 540.15,-164.89 532.14,-157.96 529.57,-164.46"/>
</a>
</g>
</g>
<!-- Node9 -->
<g id="Node000009" class="node">
<title>Node9</title>
<g id="a_Node000009"><a xlink:href="cls__curvature__projection_8h.html" target="_top" xlink:title=" ">
<polygon fill="white" stroke="#666666" points="1051.5,-123.5 903.5,-123.5 903.5,-82.5 1051.5,-82.5 1051.5,-123.5"/>
<text text-anchor="start" x="911.5" y="-111.5" font-family="Helvetica,sans-Serif" font-size="10.00">/home/runner/work/lethe</text>
<text text-anchor="start" x="911.5" y="-100.5" font-family="Helvetica,sans-Serif" font-size="10.00">/lethe/include/solvers</text>
<text text-anchor="middle" x="977.5" y="-89.5" font-family="Helvetica,sans-Serif" font-size="10.00">/cls_curvature_projection.h</text>
</a>
</g>
</g>
<!-- Node8&#45;&gt;Node9 -->
<g id="edge10_Node000008_Node000009" class="edge">
<title>Node8&#45;&gt;Node9</title>
<g id="a_edge10_Node000008_Node000009"><a xlink:title=" ">
<path fill="none" stroke="#63b8ff" d="M682.01,-165.03C774.37,-143.08 801.06,-149.16 889.5,-129 896.62,-127.38 904.03,-125.53 911.38,-123.59"/>
<polygon fill="#63b8ff" stroke="#63b8ff" points="681.15,-161.64 672.26,-167.39 682.8,-168.44 681.15,-161.64"/>
</a>
</g>
</g>
<!-- Node11 -->
<g id="Node000011" class="node">
<title>Node11</title>
<g id="a_Node000011"><a xlink:href="cls__subequations__interface_8cc.html" target="_top" xlink:title=" ">
<polygon fill="white" stroke="#666666" points="881.5,-41 715.5,-41 715.5,0 881.5,0 881.5,-41"/>
<text text-anchor="start" x="723.5" y="-29" font-family="Helvetica,sans-Serif" font-size="10.00">/home/runner/work/lethe</text>
<text text-anchor="start" x="723.5" y="-18" font-family="Helvetica,sans-Serif" font-size="10.00">/lethe/source/solvers</text>
<text text-anchor="middle" x="798.5" y="-7" font-family="Helvetica,sans-Serif" font-size="10.00">/cls_subequations_interface.cc</text>
</a>
</g>
</g>
<!-- Node8&#45;&gt;Node11 -->
<g id="edge17_Node000008_Node000011" class="edge">
<title>Node8&#45;&gt;Node11</title>
<g id="a_edge17_Node000008_Node000011"><a xlink:title=" ">
<path fill="none" stroke="#63b8ff" d="M682.2,-165.16C762.06,-148.26 808.29,-188.14 856.5,-129 871.1,-111.09 865.58,-98.25 856.5,-77 850.42,-62.77 838.71,-50.45 827.39,-41.05"/>
<polygon fill="#63b8ff" stroke="#63b8ff" points="681.21,-161.8 672.29,-167.51 682.82,-168.61 681.21,-161.8"/>
</a>
</g>
</g>
<!-- Node12 -->
<g id="Node000012" class="node">
<title>Node12</title>
<g id="a_Node000012"><a xlink:href="cls__phase__gradient__projection_8h.html" target="_top" xlink:title=" ">
<polygon fill="white" stroke="#666666" points="691.5,-123.5 515.5,-123.5 515.5,-82.5 691.5,-82.5 691.5,-123.5"/>
<text text-anchor="start" x="523.5" y="-111.5" font-family="Helvetica,sans-Serif" font-size="10.00">/home/runner/work/lethe</text>
<text text-anchor="start" x="523.5" y="-100.5" font-family="Helvetica,sans-Serif" font-size="10.00">/lethe/include/solvers</text>
<text text-anchor="middle" x="603.5" y="-89.5" font-family="Helvetica,sans-Serif" font-size="10.00">/cls_phase_gradient_projection.h</text>
</a>
</g>
</g>
<!-- Node8&#45;&gt;Node12 -->
<g id="edge13_Node000008_Node000012" class="edge">
<title>Node8&#45;&gt;Node12</title>
<g id="a_edge13_Node000008_Node000012"><a xlink:title=" ">
<path fill="none" stroke="#63b8ff" d="M603.5,-154.45C603.5,-143.94 603.5,-132.82 603.5,-123.7"/>
<polygon fill="#63b8ff" stroke="#63b8ff" points="600,-154.66 603.5,-164.66 607,-154.66 600,-154.66"/>
</a>
</g>
</g>
<!-- Node14 -->
<g id="Node000014" class="node">
<title>Node14</title>
<g id="a_Node000014"><a xlink:href="cls__linear__subequations__solver_8cc.html" target="_top" xlink:title=" ">
<polygon fill="white" stroke="#666666" points="847,-129 710,-129 710,-77 847,-77 847,-129"/>
<text text-anchor="start" x="718" y="-117" font-family="Helvetica,sans-Serif" font-size="10.00">/home/runner/work/lethe</text>
<text text-anchor="start" x="718" y="-106" font-family="Helvetica,sans-Serif" font-size="10.00">/lethe/source/solvers</text>
<text text-anchor="start" x="718" y="-95" font-family="Helvetica,sans-Serif" font-size="10.00">/cls_linear_subequations</text>
<text text-anchor="middle" x="778.5" y="-84" font-family="Helvetica,sans-Serif" font-size="10.00">_solver.cc</text>
</a>
</g>
</g>
<!-- Node8&#45;&gt;Node14 -->
<g id="edge16_Node000008_Node000014" class="edge">
<title>Node8&#45;&gt;Node14</title>
<g id="a_edge16_Node000008_Node000014"><a xlink:title=" ">
<path fill="none" stroke="#63b8ff" d="M663.63,-160.45C684.37,-150.26 707.39,-138.94 727.35,-129.14"/>
<polygon fill="#63b8ff" stroke="#63b8ff" points="662.02,-157.34 654.59,-164.89 665.11,-163.62 662.02,-157.34"/>
</a>
</g>
</g>
<!-- Node10 -->
<g id="Node000010" class="node">
<title>Node10</title>
<g id="a_Node000010"><a xlink:href="cls__curvature__projection_8cc.html" target="_top" xlink:title=" ">
<polygon fill="white" stroke="#666666" points="1053.5,-41 901.5,-41 901.5,0 1053.5,0 1053.5,-41"/>
<text text-anchor="start" x="909.5" y="-29" font-family="Helvetica,sans-Serif" font-size="10.00">/home/runner/work/lethe</text>
<text text-anchor="start" x="909.5" y="-18" font-family="Helvetica,sans-Serif" font-size="10.00">/lethe/source/solvers</text>
<text text-anchor="middle" x="977.5" y="-7" font-family="Helvetica,sans-Serif" font-size="10.00">/cls_curvature_projection.cc</text>
</a>
</g>
</g>
<!-- Node9&#45;&gt;Node10 -->
<g id="edge11_Node000009_Node000010" class="edge">
<title>Node9&#45;&gt;Node10</title>
<g id="a_edge11_Node000009_Node000010"><a xlink:title=" ">
<path fill="none" stroke="#63b8ff" d="M977.5,-71.87C977.5,-61.6 977.5,-50.4 977.5,-41.17"/>
<polygon fill="#63b8ff" stroke="#63b8ff" points="974,-72.1 977.5,-82.1 981,-72.1 974,-72.1"/>
</a>
</g>
</g>
<!-- Node9&#45;&gt;Node11 -->
<g id="edge12_Node000009_Node000011" class="edge">
<title>Node9&#45;&gt;Node11</title>
<g id="a_edge12_Node000009_Node000011"><a xlink:title=" ">
<path fill="none" stroke="#63b8ff" d="M924.31,-78.08C898.11,-66.3 866.92,-52.27 842.15,-41.13"/>
<polygon fill="#63b8ff" stroke="#63b8ff" points="923.16,-81.4 933.71,-82.31 926.03,-75.01 923.16,-81.4"/>
</a>
</g>
</g>
<!-- Node12&#45;&gt;Node11 -->
<g id="edge15_Node000012_Node000011" class="edge">
<title>Node12&#45;&gt;Node11</title>
<g id="a_edge15_Node000012_Node000011"><a xlink:title=" ">
<path fill="none" stroke="#63b8ff" d="M660.7,-78.39C689.39,-66.54 723.73,-52.37 750.95,-41.13"/>
<polygon fill="#63b8ff" stroke="#63b8ff" points="659.11,-75.26 651.2,-82.31 661.78,-81.73 659.11,-75.26"/>
</a>
</g>
</g>
<!-- Node13 -->
<g id="Node000013" class="node">
<title>Node13</title>
<g id="a_Node000013"><a xlink:href="cls__phase__gradient__projection_8cc.html" target="_top" xlink:title=" ">
<polygon fill="white" stroke="#666666" points="694,-41 513,-41 513,0 694,0 694,-41"/>
<text text-anchor="start" x="521" y="-29" font-family="Helvetica,sans-Serif" font-size="10.00">/home/runner/work/lethe</text>
<text text-anchor="start" x="521" y="-18" font-family="Helvetica,sans-Serif" font-size="10.00">/lethe/source/solvers</text>
<text text-anchor="middle" x="603.5" y="-7" font-family="Helvetica,sans-Serif" font-size="10.00">/cls_phase_gradient_projection.cc</text>
</a>
</g>
</g>
<!-- Node12&#45;&gt;Node13 -->
<g id="edge14_Node000012_Node000013" class="edge">
<title>Node12&#45;&gt;Node13</title>
<g id="a_edge14_Node000012_Node000013"><a xlink:title=" ">
<path fill="none" stroke="#63b8ff" d="M603.5,-71.87C603.5,-61.6 603.5,-50.4 603.5,-41.17"/>
<polygon fill="#63b8ff" stroke="#63b8ff" points="600,-72.1 603.5,-82.1 607,-72.1 600,-72.1"/>
</a>
</g>
</g>
<!-- Node15&#45;&gt;Node7 -->
<g id="edge19_Node000015_Node000007" class="edge">
<title>Node15&#45;&gt;Node7</title>
<g id="a_edge19_Node000015_Node000007"><a xlink:title=" ">
<path fill="none" stroke="#63b8ff" d="M341.68,-160.45C320.71,-150.26 297.42,-138.94 277.24,-129.14"/>
<polygon fill="#63b8ff" stroke="#63b8ff" points="340.3,-163.67 350.83,-164.89 343.36,-157.38 340.3,-163.67"/>
</a>
</g>
</g>
<!-- Node15&#45;&gt;Node11 -->
<g id="edge20_Node000015_Node000011" class="edge">
<title>Node15&#45;&gt;Node11</title>
<g id="a_edge20_Node000015_Node000011"><a xlink:title=" ">
<path fill="none" stroke="#63b8ff" d="M439.89,-157.78C449.57,-148.82 459.74,-138.83 468.5,-129 487.54,-107.63 482.25,-92.21 506.5,-77 581.9,-29.7 616.12,-57.95 703.5,-41 707.38,-40.25 711.36,-39.47 715.37,-38.67"/>
<polygon fill="#63b8ff" stroke="#63b8ff" points="437.3,-155.41 432.26,-164.73 442.01,-160.58 437.3,-155.41"/>
</a>
</g>
</g>
</g>
</svg>
