<?xml version="1.0" encoding="UTF-8" standalone="no"?>
<!DOCTYPE svg PUBLIC "-//W3C//DTD SVG 1.1//EN"
 "http://www.w3.org/Graphics/SVG/1.1/DTD/svg11.dtd">
<!-- Generated by graphviz version 2.43.0 (0)
 -->
<!-- Title: /home/runner/work/lethe/lethe/include/solvers/cls_assemblers.h Pages: 1 -->
<svg width="539pt" height="214pt"
 viewBox="0.00 0.00 539.00 214.00" xmlns="http://www.w3.org/2000/svg" xmlns:xlink="http://www.w3.org/1999/xlink">
<g id="graph0" class="graph" transform="scale(1 1) rotate(0) translate(4 210)">
<title>/home/runner/work/lethe/lethe/include/solvers/cls_assemblers.h</title>
<!-- Node1 -->
<g id="Node000001" class="node">
<title>Node1</title>
<g id="a_Node000001"><a xlink:title=" ">
<polygon fill="#999999" stroke="#666666" points="376,-206 239,-206 239,-165 376,-165 376,-206"/>
<text text-anchor="start" x="247" y="-194" font-family="Helvetica,sans-Serif" font-size="10.00">/home/runner/work/lethe</text>
<text text-anchor="start" x="247" y="-183" font-family="Helvetica,sans-Serif" font-size="10.00">/lethe/include/solvers</text>
<text text-anchor="middle" x="307.5" y="-172" font-family="Helvetica,sans-Serif" font-size="10.00">/cls_assemblers.h</text>
</a>
</g>
</g>
<!-- Node2 -->
<g id="Node000002" class="node">
<title>Node2</title>
<g id="a_Node000002"><a xlink:href="cls_8h.html" target="_top" xlink:title=" ">
<polygon fill="white" stroke="#666666" points="220.5,-118 74.5,-118 74.5,-88 220.5,-88 220.5,-118"/>
<text text-anchor="start" x="82.5" y="-106" font-family="Helvetica,sans-Serif" font-size="10.00">/home/runner/work/lethe</text>
<text text-anchor="middle" x="147.5" y="-95" font-family="Helvetica,sans-Serif" font-size="10.00">/lethe/include/solvers/cls.h</text>
</a>
</g>
</g>
<!-- Node1&#45;&gt;Node2 -->
<g id="edge1_Node000001_Node000002" class="edge">
<title>Node1&#45;&gt;Node2</title>
<g id="a_edge1_Node000001_Node000002"><a xlink:title=" ">
<path fill="none" stroke="#63b8ff" d="M259.35,-160.27C232.04,-146.53 198.81,-129.82 175.7,-118.19"/>
<polygon fill="#63b8ff" stroke="#63b8ff" points="257.85,-163.44 268.36,-164.81 261,-157.19 257.85,-163.44"/>
</a>
</g>
</g>
<!-- Node5 -->
<g id="Node000005" class="node">
<title>Node5</title>
<g id="a_Node000005"><a xlink:href="cls__algebraic__interface__reinitialization_8cc.html" target="_top" xlink:title=" ">
<polygon fill="white" stroke="#666666" points="376,-129 239,-129 239,-77 376,-77 376,-129"/>
<text text-anchor="start" x="247" y="-117" font-family="Helvetica,sans-Serif" font-size="10.00">/home/runner/work/lethe</text>
<text text-anchor="start" x="247" y="-106" font-family="Helvetica,sans-Serif" font-size="10.00">/lethe/source/solvers</text>
<text text-anchor="start" x="247" y="-95" font-family="Helvetica,sans-Serif" font-size="10.00">/cls_algebraic_interface</text>
<text text-anchor="middle" x="307.5" y="-84" font-family="Helvetica,sans-Serif" font-size="10.00">_reinitialization.cc</text>
</a>
</g>
</g>
<!-- Node1&#45;&gt;Node5 -->
<g id="edge4_Node000001_Node000005" class="edge">
<title>Node1&#45;&gt;Node5</title>
<g id="a_edge4_Node000001_Node000005"><a xlink:title=" ">
<path fill="none" stroke="#63b8ff" d="M307.5,-154.49C307.5,-146.15 307.5,-137.19 307.5,-129.16"/>
<polygon fill="#63b8ff" stroke="#63b8ff" points="304,-154.6 307.5,-164.6 311,-154.6 304,-154.6"/>
</a>
</g>
</g>
<!-- Node6 -->
<g id="Node000006" class="node">
<title>Node6</title>
<g id="a_Node000006"><a xlink:href="cls__assemblers_8cc.html" target="_top" xlink:title=" ">
<polygon fill="white" stroke="#666666" points="531,-123.5 394,-123.5 394,-82.5 531,-82.5 531,-123.5"/>
<text text-anchor="start" x="402" y="-111.5" font-family="Helvetica,sans-Serif" font-size="10.00">/home/runner/work/lethe</text>
<text text-anchor="start" x="402" y="-100.5" font-family="Helvetica,sans-Serif" font-size="10.00">/lethe/source/solvers</text>
<text text-anchor="middle" x="462.5" y="-89.5" font-family="Helvetica,sans-Serif" font-size="10.00">/cls_assemblers.cc</text>
</a>
</g>
</g>
<!-- Node1&#45;&gt;Node6 -->
<g id="edge5_Node000001_Node000006" class="edge">
<title>Node1&#45;&gt;Node6</title>
<g id="a_edge5_Node000001_Node000006"><a xlink:title=" ">
<path fill="none" stroke="#63b8ff" d="M354.46,-160.11C376.95,-148.43 403.54,-134.62 424.71,-123.63"/>
<polygon fill="#63b8ff" stroke="#63b8ff" points="352.68,-157.09 345.42,-164.81 355.9,-163.3 352.68,-157.09"/>
</a>
</g>
</g>
<!-- Node3 -->
<g id="Node000003" class="node">
<title>Node3</title>
<g id="a_Node000003"><a xlink:href="cls_8cc.html" target="_top" xlink:title=" ">
<polygon fill="white" stroke="#666666" points="137,-41 0,-41 0,0 137,0 137,-41"/>
<text text-anchor="start" x="8" y="-29" font-family="Helvetica,sans-Serif" font-size="10.00">/home/runner/work/lethe</text>
<text text-anchor="start" x="8" y="-18" font-family="Helvetica,sans-Serif" font-size="10.00">/lethe/source/solvers</text>
<text text-anchor="middle" x="68.5" y="-7" font-family="Helvetica,sans-Serif" font-size="10.00">/cls.cc</text>
</a>
</g>
</g>
<!-- Node2&#45;&gt;Node3 -->
<g id="edge2_Node000002_Node000003" class="edge">
<title>Node2&#45;&gt;Node3</title>
<g id="a_edge2_Node000002_Node000003"><a xlink:title=" ">
<path fill="none" stroke="#63b8ff" d="M126.67,-80.78C114.6,-68.48 99.51,-53.1 87.72,-41.09"/>
<polygon fill="#63b8ff" stroke="#63b8ff" points="124.24,-83.29 133.74,-87.98 129.23,-78.39 124.24,-83.29"/>
</a>
</g>
</g>
<!-- Node4 -->
<g id="Node000004" class="node">
<title>Node4</title>
<g id="a_Node000004"><a xlink:href="multiphysics__interface_8cc.html" target="_top" xlink:title=" ">
<polygon fill="white" stroke="#666666" points="299.5,-41 155.5,-41 155.5,0 299.5,0 299.5,-41"/>
<text text-anchor="start" x="163.5" y="-29" font-family="Helvetica,sans-Serif" font-size="10.00">/home/runner/work/lethe</text>
<text text-anchor="start" x="163.5" y="-18" font-family="Helvetica,sans-Serif" font-size="10.00">/lethe/source/solvers</text>
<text text-anchor="middle" x="227.5" y="-7" font-family="Helvetica,sans-Serif" font-size="10.00">/multiphysics_interface.cc</text>
</a>
</g>
</g>
<!-- Node2&#45;&gt;Node4 -->
<g id="edge3_Node000002_Node000004" class="edge">
<title>Node2&#45;&gt;Node4</title>
<g id="a_edge3_Node000002_Node000004"><a xlink:title=" ">
<path fill="none" stroke="#63b8ff" d="M168.59,-80.78C180.82,-68.48 196.1,-53.1 208.03,-41.09"/>
<polygon fill="#63b8ff" stroke="#63b8ff" points="166,-78.42 161.43,-87.98 170.97,-83.35 166,-78.42"/>
</a>
</g>
</g>
</g>
</svg>
