<?xml version="1.0" encoding="UTF-8" standalone="no"?>
<!DOCTYPE svg PUBLIC "-//W3C//DTD SVG 1.1//EN"
 "http://www.w3.org/Graphics/SVG/1.1/DTD/svg11.dtd">
<!-- Generated by graphviz version 2.43.0 (0)
 -->
<!-- Title: /home/runner/work/lethe/lethe/include/dem/contact_type.h Pages: 1 -->
<svg width="1479pt" height="621pt"
 viewBox="0.00 0.00 1479.00 621.00" xmlns="http://www.w3.org/2000/svg" xmlns:xlink="http://www.w3.org/1999/xlink">
<g id="graph0" class="graph" transform="scale(1 1) rotate(0) translate(4 617)">
<title>/home/runner/work/lethe/lethe/include/dem/contact_type.h</title>
<!-- Node1 -->
<g id="Node000001" class="node">
<title>Node1</title>
<g id="a_Node000001"><a xlink:title=" ">
<polygon fill="#999999" stroke="#666666" points="820.5,-613 674.5,-613 674.5,-572 820.5,-572 820.5,-613"/>
<text text-anchor="start" x="682.5" y="-601" font-family="Helvetica,sans-Serif" font-size="10.00">/home/runner/work/lethe</text>
<text text-anchor="start" x="682.5" y="-590" font-family="Helvetica,sans-Serif" font-size="10.00">/lethe/include/dem/contact</text>
<text text-anchor="middle" x="747.5" y="-579" font-family="Helvetica,sans-Serif" font-size="10.00">_type.h</text>
</a>
</g>
</g>
<!-- Node2 -->
<g id="Node000002" class="node">
<title>Node2</title>
<g id="a_Node000002"><a xlink:href="force__chains__visualization_8h.html" target="_top" xlink:title=" ">
<polygon fill="white" stroke="#666666" points="930,-382 793,-382 793,-341 930,-341 930,-382"/>
<text text-anchor="start" x="801" y="-370" font-family="Helvetica,sans-Serif" font-size="10.00">/home/runner/work/lethe</text>
<text text-anchor="start" x="801" y="-359" font-family="Helvetica,sans-Serif" font-size="10.00">/lethe/include/dem/force</text>
<text text-anchor="middle" x="861.5" y="-348" font-family="Helvetica,sans-Serif" font-size="10.00">_chains_visualization.h</text>
</a>
</g>
</g>
<!-- Node1&#45;&gt;Node2 -->
<g id="edge1_Node000001_Node000002" class="edge">
<title>Node1&#45;&gt;Node2</title>
<g id="a_edge1_Node000001_Node000002"><a xlink:title=" ">
<path fill="none" stroke="#63b8ff" d="M773.93,-564.6C796.99,-539.47 829.35,-499.78 846.5,-459 857.07,-433.84 860.28,-402.16 861.2,-382.11"/>
<polygon fill="#63b8ff" stroke="#63b8ff" points="771.36,-562.22 767.1,-571.92 776.48,-567 771.36,-562.22"/>
</a>
</g>
</g>
<!-- Node16 -->
<g id="Node000016" class="node">
<title>Node16</title>
<g id="a_Node000016"><a xlink:href="particle__heat__transfer_8h.html" target="_top" xlink:title=" ">
<polygon fill="white" stroke="#666666" points="1042,-536 895,-536 895,-495 1042,-495 1042,-536"/>
<text text-anchor="start" x="903" y="-524" font-family="Helvetica,sans-Serif" font-size="10.00">/home/runner/work/lethe</text>
<text text-anchor="start" x="903" y="-513" font-family="Helvetica,sans-Serif" font-size="10.00">/lethe/include/dem/particle</text>
<text text-anchor="middle" x="968.5" y="-502" font-family="Helvetica,sans-Serif" font-size="10.00">_heat_transfer.h</text>
</a>
</g>
</g>
<!-- Node1&#45;&gt;Node16 -->
<g id="edge22_Node000001_Node000016" class="edge">
<title>Node1&#45;&gt;Node16</title>
<g id="a_edge22_Node000001_Node000016"><a xlink:title=" ">
<path fill="none" stroke="#63b8ff" d="M814.75,-568.67C845.47,-558.25 881.47,-546.03 910.91,-536.04"/>
<polygon fill="#63b8ff" stroke="#63b8ff" points="813.33,-565.46 804.98,-571.99 815.58,-572.09 813.33,-565.46"/>
</a>
</g>
</g>
<!-- Node17 -->
<g id="Node000017" class="node">
<title>Node17</title>
<g id="a_Node000017"><a xlink:href="particle__particle__contact__force_8h.html" target="_top" xlink:title=" ">
<polygon fill="white" stroke="#666666" points="838,-459 691,-459 691,-418 838,-418 838,-459"/>
<text text-anchor="start" x="699" y="-447" font-family="Helvetica,sans-Serif" font-size="10.00">/home/runner/work/lethe</text>
<text text-anchor="start" x="699" y="-436" font-family="Helvetica,sans-Serif" font-size="10.00">/lethe/include/dem/particle</text>
<text text-anchor="middle" x="764.5" y="-425" font-family="Helvetica,sans-Serif" font-size="10.00">_particle_contact_force.h</text>
</a>
</g>
</g>
<!-- Node1&#45;&gt;Node17 -->
<g id="edge33_Node000001_Node000017" class="edge">
<title>Node1&#45;&gt;Node17</title>
<g id="a_edge33_Node000001_Node000017"><a xlink:title=" ">
<path fill="none" stroke="#63b8ff" d="M750.8,-561.98C754.18,-531.76 759.33,-485.64 762.26,-459.47"/>
<polygon fill="#63b8ff" stroke="#63b8ff" points="747.32,-561.61 749.68,-571.94 754.27,-562.39 747.32,-561.61"/>
</a>
</g>
</g>
<!-- Node22 -->
<g id="Node000022" class="node">
<title>Node22</title>
<g id="a_Node000022"><a xlink:href="particle__wall__contact__force_8cc.html" target="_top" xlink:title=" ">
<polygon fill="white" stroke="#666666" points="1200.5,-459 1056.5,-459 1056.5,-418 1200.5,-418 1200.5,-459"/>
<text text-anchor="start" x="1064.5" y="-447" font-family="Helvetica,sans-Serif" font-size="10.00">/home/runner/work/lethe</text>
<text text-anchor="start" x="1064.5" y="-436" font-family="Helvetica,sans-Serif" font-size="10.00">/lethe/source/dem/particle</text>
<text text-anchor="middle" x="1128.5" y="-425" font-family="Helvetica,sans-Serif" font-size="10.00">_wall_contact_force.cc</text>
</a>
</g>
</g>
<!-- Node1&#45;&gt;Node22 -->
<g id="edge45_Node000001_Node000022" class="edge">
<title>Node1&#45;&gt;Node22</title>
<g id="a_edge45_Node000001_Node000022"><a xlink:title=" ">
<path fill="none" stroke="#63b8ff" d="M830.87,-582.8C907.39,-573.64 1014.19,-557.57 1050.5,-536 1081.61,-517.51 1105.48,-481.73 1118.21,-459.32"/>
<polygon fill="#63b8ff" stroke="#63b8ff" points="830.28,-579.34 820.76,-583.99 831.1,-586.3 830.28,-579.34"/>
</a>
</g>
</g>
<!-- Node23 -->
<g id="Node000023" class="node">
<title>Node23</title>
<g id="a_Node000023"><a xlink:href="particle__particle__fine__search_8h.html" target="_top" xlink:title=" ">
<polygon fill="white" stroke="#666666" points="676,-536 529,-536 529,-495 676,-495 676,-536"/>
<text text-anchor="start" x="537" y="-524" font-family="Helvetica,sans-Serif" font-size="10.00">/home/runner/work/lethe</text>
<text text-anchor="start" x="537" y="-513" font-family="Helvetica,sans-Serif" font-size="10.00">/lethe/include/dem/particle</text>
<text text-anchor="middle" x="602.5" y="-502" font-family="Helvetica,sans-Serif" font-size="10.00">_particle_fine_search.h</text>
</a>
</g>
</g>
<!-- Node1&#45;&gt;Node23 -->
<g id="edge34_Node000001_Node000023" class="edge">
<title>Node1&#45;&gt;Node23</title>
<g id="a_edge34_Node000001_Node000023"><a xlink:title=" ">
<path fill="none" stroke="#63b8ff" d="M700.73,-567.31C681.18,-557.2 658.76,-545.6 640.28,-536.04"/>
<polygon fill="#63b8ff" stroke="#63b8ff" points="699.29,-570.5 709.78,-571.99 702.5,-564.29 699.29,-570.5"/>
</a>
</g>
</g>
<!-- Node25 -->
<g id="Node000025" class="node">
<title>Node25</title>
<g id="a_Node000025"><a xlink:href="particle__particle__fine__search_8cc.html" target="_top" xlink:title=" ">
<polygon fill="white" stroke="#666666" points="672.5,-459 528.5,-459 528.5,-418 672.5,-418 672.5,-459"/>
<text text-anchor="start" x="536.5" y="-447" font-family="Helvetica,sans-Serif" font-size="10.00">/home/runner/work/lethe</text>
<text text-anchor="start" x="536.5" y="-436" font-family="Helvetica,sans-Serif" font-size="10.00">/lethe/source/dem/particle</text>
<text text-anchor="middle" x="600.5" y="-425" font-family="Helvetica,sans-Serif" font-size="10.00">_particle_fine_search.cc</text>
</a>
</g>
</g>
<!-- Node1&#45;&gt;Node25 -->
<g id="edge44_Node000001_Node000025" class="edge">
<title>Node1&#45;&gt;Node25</title>
<g id="a_edge44_Node000001_Node000025"><a xlink:title=" ">
<path fill="none" stroke="#63b8ff" d="M732.91,-562.84C721.57,-542.38 704.44,-515.05 684.5,-495 670.69,-481.12 652.89,-468.76 637.23,-459.25"/>
<polygon fill="#63b8ff" stroke="#63b8ff" points="729.86,-564.57 737.7,-571.7 736.02,-561.24 729.86,-564.57"/>
</a>
</g>
</g>
<!-- Node26 -->
<g id="Node000026" class="node">
<title>Node26</title>
<g id="a_Node000026"><a xlink:href="update__fine__search__candidates_8h.html" target="_top" xlink:title=" ">
<polygon fill="white" stroke="#666666" points="511,-536 366,-536 366,-495 511,-495 511,-536"/>
<text text-anchor="start" x="374" y="-524" font-family="Helvetica,sans-Serif" font-size="10.00">/home/runner/work/lethe</text>
<text text-anchor="start" x="374" y="-513" font-family="Helvetica,sans-Serif" font-size="10.00">/lethe/include/dem/update</text>
<text text-anchor="middle" x="438.5" y="-502" font-family="Helvetica,sans-Serif" font-size="10.00">_fine_search_candidates.h</text>
</a>
</g>
</g>
<!-- Node1&#45;&gt;Node26 -->
<g id="edge37_Node000001_Node000026" class="edge">
<title>Node1&#45;&gt;Node26</title>
<g id="a_edge37_Node000001_Node000026"><a xlink:title=" ">
<path fill="none" stroke="#63b8ff" d="M664.26,-571.3C616.49,-559.7 557.08,-545.28 511.2,-534.15"/>
<polygon fill="#63b8ff" stroke="#63b8ff" points="663.72,-574.77 674.27,-573.73 665.37,-567.97 663.72,-574.77"/>
</a>
</g>
</g>
<!-- Node28 -->
<g id="Node000028" class="node">
<title>Node28</title>
<g id="a_Node000028"><a xlink:href="update__local__particle__containers_8h.html" target="_top" xlink:title=" ">
<polygon fill="white" stroke="#666666" points="267.5,-536 115.5,-536 115.5,-495 267.5,-495 267.5,-536"/>
<text text-anchor="start" x="123.5" y="-524" font-family="Helvetica,sans-Serif" font-size="10.00">/home/runner/work/lethe</text>
<text text-anchor="start" x="123.5" y="-513" font-family="Helvetica,sans-Serif" font-size="10.00">/lethe/include/dem/update</text>
<text text-anchor="middle" x="191.5" y="-502" font-family="Helvetica,sans-Serif" font-size="10.00">_local_particle_containers.h</text>
</a>
</g>
</g>
<!-- Node1&#45;&gt;Node28 -->
<g id="edge40_Node000001_Node000028" class="edge">
<title>Node1&#45;&gt;Node28</title>
<g id="a_edge40_Node000001_Node000028"><a xlink:title=" ">
<path fill="none" stroke="#63b8ff" d="M664.09,-580.25C556.63,-565.75 371.37,-540.76 267.59,-526.76"/>
<polygon fill="#63b8ff" stroke="#63b8ff" points="663.86,-583.75 674.24,-581.62 664.79,-576.81 663.86,-583.75"/>
</a>
</g>
</g>
<!-- Node3 -->
<g id="Node000003" class="node">
<title>Node3</title>
<g id="a_Node000003"><a xlink:href="dem_8h.html" target="_top" xlink:title=" ">
<polygon fill="white" stroke="#666666" points="1206,-294 1065,-294 1065,-264 1206,-264 1206,-294"/>
<text text-anchor="start" x="1073" y="-282" font-family="Helvetica,sans-Serif" font-size="10.00">/home/runner/work/lethe</text>
<text text-anchor="middle" x="1135.5" y="-271" font-family="Helvetica,sans-Serif" font-size="10.00">/lethe/include/dem/dem.h</text>
</a>
</g>
</g>
<!-- Node2&#45;&gt;Node3 -->
<g id="edge2_Node000002_Node000003" class="edge">
<title>Node2&#45;&gt;Node3</title>
<g id="a_edge2_Node000002_Node000003"><a xlink:title=" ">
<path fill="none" stroke="#63b8ff" d="M937.9,-338.05C985.84,-323.97 1046.19,-306.24 1087.5,-294.1"/>
<polygon fill="#63b8ff" stroke="#63b8ff" points="936.78,-334.73 928.17,-340.91 938.75,-341.45 936.78,-334.73"/>
</a>
</g>
</g>
<!-- Node11 -->
<g id="Node000011" class="node">
<title>Node11</title>
<g id="a_Node000011"><a xlink:href="set__particle__particle__contact__force__model_8h.html" target="_top" xlink:title=" ">
<polygon fill="white" stroke="#666666" points="810.5,-305 668.5,-305 668.5,-253 810.5,-253 810.5,-305"/>
<text text-anchor="start" x="676.5" y="-293" font-family="Helvetica,sans-Serif" font-size="10.00">/home/runner/work/lethe</text>
<text text-anchor="start" x="676.5" y="-282" font-family="Helvetica,sans-Serif" font-size="10.00">/lethe/include/dem/set</text>
<text text-anchor="start" x="676.5" y="-271" font-family="Helvetica,sans-Serif" font-size="10.00">_particle_particle_contact</text>
<text text-anchor="middle" x="739.5" y="-260" font-family="Helvetica,sans-Serif" font-size="10.00">_force_model.h</text>
</a>
</g>
</g>
<!-- Node2&#45;&gt;Node11 -->
<g id="edge11_Node000002_Node000011" class="edge">
<title>Node2&#45;&gt;Node11</title>
<g id="a_edge11_Node000002_Node000011"><a xlink:title=" ">
<path fill="none" stroke="#63b8ff" d="M822.96,-335.08C808.55,-325.57 792.19,-314.77 777.8,-305.28"/>
<polygon fill="#63b8ff" stroke="#63b8ff" points="821.38,-338.22 831.65,-340.81 825.23,-332.38 821.38,-338.22"/>
</a>
</g>
</g>
<!-- Node13 -->
<g id="Node000013" class="node">
<title>Node13</title>
<g id="a_Node000013"><a xlink:href="fluid__dynamics__sharp_8cc.html" target="_top" xlink:title=" ">
<polygon fill="white" stroke="#666666" points="636,-123.5 497,-123.5 497,-82.5 636,-82.5 636,-123.5"/>
<text text-anchor="start" x="505" y="-111.5" font-family="Helvetica,sans-Serif" font-size="10.00">/home/runner/work/lethe</text>
<text text-anchor="start" x="505" y="-100.5" font-family="Helvetica,sans-Serif" font-size="10.00">/lethe/source/fem&#45;dem</text>
<text text-anchor="middle" x="566.5" y="-89.5" font-family="Helvetica,sans-Serif" font-size="10.00">/fluid_dynamics_sharp.cc</text>
</a>
</g>
</g>
<!-- Node2&#45;&gt;Node13 -->
<g id="edge21_Node000002_Node000013" class="edge">
<title>Node2&#45;&gt;Node13</title>
<g id="a_edge21_Node000002_Node000013"><a xlink:title=" ">
<path fill="none" stroke="#63b8ff" d="M782.92,-346.47C734.38,-336.4 677.95,-321.69 659.5,-305 610.04,-260.26 635.61,-224.5 605.5,-165 598.23,-150.64 588.48,-135.39 580.55,-123.73"/>
<polygon fill="#63b8ff" stroke="#63b8ff" points="782.33,-349.92 792.82,-348.48 783.72,-343.06 782.33,-349.92"/>
</a>
</g>
</g>
<!-- Node14 -->
<g id="Node000014" class="node">
<title>Node14</title>
<g id="a_Node000014"><a xlink:href="set__particle__particle__contact__force__model_8cc.html" target="_top" xlink:title=" ">
<polygon fill="white" stroke="#666666" points="909.5,-217 767.5,-217 767.5,-165 909.5,-165 909.5,-217"/>
<text text-anchor="start" x="775.5" y="-205" font-family="Helvetica,sans-Serif" font-size="10.00">/home/runner/work/lethe</text>
<text text-anchor="start" x="775.5" y="-194" font-family="Helvetica,sans-Serif" font-size="10.00">/lethe/source/dem/set</text>
<text text-anchor="start" x="775.5" y="-183" font-family="Helvetica,sans-Serif" font-size="10.00">_particle_particle_contact</text>
<text text-anchor="middle" x="838.5" y="-172" font-family="Helvetica,sans-Serif" font-size="10.00">_force_model.cc</text>
</a>
</g>
</g>
<!-- Node2&#45;&gt;Node14 -->
<g id="edge20_Node000002_Node000014" class="edge">
<title>Node2&#45;&gt;Node14</title>
<g id="a_edge20_Node000002_Node000014"><a xlink:title=" ">
<path fill="none" stroke="#63b8ff" d="M857.42,-330.68C853.02,-298.44 846.09,-247.63 841.95,-217.28"/>
<polygon fill="#63b8ff" stroke="#63b8ff" points="853.99,-331.41 858.81,-340.84 860.93,-330.46 853.99,-331.41"/>
</a>
</g>
</g>
<!-- Node15 -->
<g id="Node000015" class="node">
<title>Node15</title>
<g id="a_Node000015"><a xlink:href="force__chains__visualization_8cc.html" target="_top" xlink:title=" ">
<polygon fill="white" stroke="#666666" points="1004,-299.5 867,-299.5 867,-258.5 1004,-258.5 1004,-299.5"/>
<text text-anchor="start" x="875" y="-287.5" font-family="Helvetica,sans-Serif" font-size="10.00">/home/runner/work/lethe</text>
<text text-anchor="start" x="875" y="-276.5" font-family="Helvetica,sans-Serif" font-size="10.00">/lethe/source/dem/force</text>
<text text-anchor="middle" x="935.5" y="-265.5" font-family="Helvetica,sans-Serif" font-size="10.00">_chains_visualization.cc</text>
</a>
</g>
</g>
<!-- Node2&#45;&gt;Node15 -->
<g id="edge19_Node000002_Node000015" class="edge">
<title>Node2&#45;&gt;Node15</title>
<g id="a_edge19_Node000002_Node000015"><a xlink:title=" ">
<path fill="none" stroke="#63b8ff" d="M886.83,-332.94C896.88,-322 908.22,-309.68 917.41,-299.67"/>
<polygon fill="#63b8ff" stroke="#63b8ff" points="883.98,-330.87 879.79,-340.6 889.13,-335.61 883.98,-330.87"/>
</a>
</g>
</g>
<!-- Node4 -->
<g id="Node000004" class="node">
<title>Node4</title>
<g id="a_Node000004"><a xlink:href="cfd__dem__coupling_8h.html" target="_top" xlink:title=" ">
<polygon fill="white" stroke="#666666" points="1471,-123.5 1334,-123.5 1334,-82.5 1471,-82.5 1471,-123.5"/>
<text text-anchor="start" x="1342" y="-111.5" font-family="Helvetica,sans-Serif" font-size="10.00">/home/runner/work/lethe</text>
<text text-anchor="start" x="1342" y="-100.5" font-family="Helvetica,sans-Serif" font-size="10.00">/lethe/include/fem&#45;dem</text>
<text text-anchor="middle" x="1402.5" y="-89.5" font-family="Helvetica,sans-Serif" font-size="10.00">/cfd_dem_coupling.h</text>
</a>
</g>
</g>
<!-- Node3&#45;&gt;Node4 -->
<g id="edge3_Node000003_Node000004" class="edge">
<title>Node3&#45;&gt;Node4</title>
<g id="a_edge3_Node000003_Node000004"><a xlink:title=" ">
<path fill="none" stroke="#63b8ff" d="M1216.4,-272.63C1294.79,-265.55 1405.67,-249.89 1432.5,-217 1454.56,-189.94 1433.43,-148.23 1417.19,-123.78"/>
<polygon fill="#63b8ff" stroke="#63b8ff" points="1215.7,-269.18 1206.04,-273.54 1216.31,-276.16 1215.7,-269.18"/>
</a>
</g>
</g>
<!-- Node6 -->
<g id="Node000006" class="node">
<title>Node6</title>
<g id="a_Node000006"><a xlink:href="cfd__dem__coupling__matrix__free_8h.html" target="_top" xlink:title=" ">
<polygon fill="white" stroke="#666666" points="1268,-211.5 1089,-211.5 1089,-170.5 1268,-170.5 1268,-211.5"/>
<text text-anchor="start" x="1097" y="-199.5" font-family="Helvetica,sans-Serif" font-size="10.00">/home/runner/work/lethe</text>
<text text-anchor="start" x="1097" y="-188.5" font-family="Helvetica,sans-Serif" font-size="10.00">/lethe/include/fem&#45;dem</text>
<text text-anchor="middle" x="1178.5" y="-177.5" font-family="Helvetica,sans-Serif" font-size="10.00">/cfd_dem_coupling_matrix_free.h</text>
</a>
</g>
</g>
<!-- Node3&#45;&gt;Node6 -->
<g id="edge5_Node000003_Node000006" class="edge">
<title>Node3&#45;&gt;Node6</title>
<g id="a_edge5_Node000003_Node000006"><a xlink:title=" ">
<path fill="none" stroke="#63b8ff" d="M1147.15,-254.68C1153.88,-241.22 1162.25,-224.49 1168.65,-211.69"/>
<polygon fill="#63b8ff" stroke="#63b8ff" points="1143.94,-253.29 1142.6,-263.8 1150.2,-256.42 1143.94,-253.29"/>
</a>
</g>
</g>
<!-- Node8 -->
<g id="Node000008" class="node">
<title>Node8</title>
<g id="a_Node000008"><a xlink:href="fluid__dynamics__vans_8h.html" target="_top" xlink:title=" ">
<polygon fill="white" stroke="#666666" points="1423,-211.5 1286,-211.5 1286,-170.5 1423,-170.5 1423,-211.5"/>
<text text-anchor="start" x="1294" y="-199.5" font-family="Helvetica,sans-Serif" font-size="10.00">/home/runner/work/lethe</text>
<text text-anchor="start" x="1294" y="-188.5" font-family="Helvetica,sans-Serif" font-size="10.00">/lethe/include/fem&#45;dem</text>
<text text-anchor="middle" x="1354.5" y="-177.5" font-family="Helvetica,sans-Serif" font-size="10.00">/fluid_dynamics_vans.h</text>
</a>
</g>
</g>
<!-- Node3&#45;&gt;Node8 -->
<g id="edge7_Node000003_Node000008" class="edge">
<title>Node3&#45;&gt;Node8</title>
<g id="a_edge7_Node000003_Node000008"><a xlink:title=" ">
<path fill="none" stroke="#63b8ff" d="M1180.94,-260.16C1216.99,-246 1267.34,-226.23 1304.53,-211.62"/>
<polygon fill="#63b8ff" stroke="#63b8ff" points="1179.2,-257.08 1171.17,-263.99 1181.76,-263.59 1179.2,-257.08"/>
</a>
</g>
</g>
<!-- Node10 -->
<g id="Node000010" class="node">
<title>Node10</title>
<g id="a_Node000010"><a xlink:href="dem_8cc.html" target="_top" xlink:title=" ">
<polygon fill="white" stroke="#666666" points="1071,-206 928,-206 928,-176 1071,-176 1071,-206"/>
<text text-anchor="start" x="936" y="-194" font-family="Helvetica,sans-Serif" font-size="10.00">/home/runner/work/lethe</text>
<text text-anchor="middle" x="999.5" y="-183" font-family="Helvetica,sans-Serif" font-size="10.00">/lethe/source/dem/dem.cc</text>
</a>
</g>
</g>
<!-- Node3&#45;&gt;Node10 -->
<g id="edge10_Node000003_Node000010" class="edge">
<title>Node3&#45;&gt;Node10</title>
<g id="a_edge10_Node000003_Node000010"><a xlink:title=" ">
<path fill="none" stroke="#63b8ff" d="M1104.85,-258.62C1079.55,-242.62 1044.26,-220.31 1021.64,-206"/>
<polygon fill="#63b8ff" stroke="#63b8ff" points="1103.02,-261.6 1113.34,-263.99 1106.76,-255.69 1103.02,-261.6"/>
</a>
</g>
</g>
<!-- Node5 -->
<g id="Node000005" class="node">
<title>Node5</title>
<g id="a_Node000005"><a xlink:href="cfd__dem__coupling_8cc.html" target="_top" xlink:title=" ">
<polygon fill="white" stroke="#666666" points="1096,-41 959,-41 959,0 1096,0 1096,-41"/>
<text text-anchor="start" x="967" y="-29" font-family="Helvetica,sans-Serif" font-size="10.00">/home/runner/work/lethe</text>
<text text-anchor="start" x="967" y="-18" font-family="Helvetica,sans-Serif" font-size="10.00">/lethe/source/fem&#45;dem</text>
<text text-anchor="middle" x="1027.5" y="-7" font-family="Helvetica,sans-Serif" font-size="10.00">/cfd_dem_coupling.cc</text>
</a>
</g>
</g>
<!-- Node4&#45;&gt;Node5 -->
<g id="edge4_Node000004_Node000005" class="edge">
<title>Node4&#45;&gt;Node5</title>
<g id="a_edge4_Node000004_Node000005"><a xlink:title=" ">
<path fill="none" stroke="#63b8ff" d="M1334.68,-79.71C1331.24,-78.75 1327.84,-77.84 1324.5,-77 1247.07,-57.44 1156.69,-41.51 1096.15,-31.82"/>
<polygon fill="#63b8ff" stroke="#63b8ff" points="1333.8,-83.09 1344.37,-82.49 1335.73,-76.37 1333.8,-83.09"/>
</a>
</g>
</g>
<!-- Node7 -->
<g id="Node000007" class="node">
<title>Node7</title>
<g id="a_Node000007"><a xlink:href="cfd__dem__coupling__matrix__free_8cc.html" target="_top" xlink:title=" ">
<polygon fill="white" stroke="#666666" points="1042.5,-129 896.5,-129 896.5,-77 1042.5,-77 1042.5,-129"/>
<text text-anchor="start" x="904.5" y="-117" font-family="Helvetica,sans-Serif" font-size="10.00">/home/runner/work/lethe</text>
<text text-anchor="start" x="904.5" y="-106" font-family="Helvetica,sans-Serif" font-size="10.00">/lethe/source/fem&#45;dem</text>
<text text-anchor="start" x="904.5" y="-95" font-family="Helvetica,sans-Serif" font-size="10.00">/cfd_dem_coupling_matrix</text>
<text text-anchor="middle" x="969.5" y="-84" font-family="Helvetica,sans-Serif" font-size="10.00">_free.cc</text>
</a>
</g>
</g>
<!-- Node6&#45;&gt;Node7 -->
<g id="edge6_Node000006_Node000007" class="edge">
<title>Node6&#45;&gt;Node7</title>
<g id="a_edge6_Node000006_Node000007"><a xlink:title=" ">
<path fill="none" stroke="#63b8ff" d="M1121.75,-166.65C1093.54,-155.04 1059.42,-141 1030.63,-129.16"/>
<polygon fill="#63b8ff" stroke="#63b8ff" points="1120.49,-169.92 1131.07,-170.49 1123.15,-163.44 1120.49,-169.92"/>
</a>
</g>
</g>
<!-- Node8&#45;&gt;Node4 -->
<g id="edge8_Node000008_Node000004" class="edge">
<title>Node8&#45;&gt;Node4</title>
<g id="a_edge8_Node000008_Node000004"><a xlink:title=" ">
<path fill="none" stroke="#63b8ff" d="M1370.43,-161.46C1377.33,-149.09 1385.24,-134.91 1391.48,-123.74"/>
<polygon fill="#63b8ff" stroke="#63b8ff" points="1367.2,-160.05 1365.39,-170.49 1373.32,-163.46 1367.2,-160.05"/>
</a>
</g>
</g>
<!-- Node9 -->
<g id="Node000009" class="node">
<title>Node9</title>
<g id="a_Node000009"><a xlink:href="fluid__dynamics__vans_8cc.html" target="_top" xlink:title=" ">
<polygon fill="white" stroke="#666666" points="1316,-123.5 1179,-123.5 1179,-82.5 1316,-82.5 1316,-123.5"/>
<text text-anchor="start" x="1187" y="-111.5" font-family="Helvetica,sans-Serif" font-size="10.00">/home/runner/work/lethe</text>
<text text-anchor="start" x="1187" y="-100.5" font-family="Helvetica,sans-Serif" font-size="10.00">/lethe/source/fem&#45;dem</text>
<text text-anchor="middle" x="1247.5" y="-89.5" font-family="Helvetica,sans-Serif" font-size="10.00">/fluid_dynamics_vans.cc</text>
</a>
</g>
</g>
<!-- Node8&#45;&gt;Node9 -->
<g id="edge9_Node000008_Node000009" class="edge">
<title>Node8&#45;&gt;Node9</title>
<g id="a_edge9_Node000008_Node000009"><a xlink:title=" ">
<path fill="none" stroke="#63b8ff" d="M1322.12,-163.98C1306.03,-151.05 1286.91,-135.68 1272.05,-123.74"/>
<polygon fill="#63b8ff" stroke="#63b8ff" points="1320.23,-166.95 1330.22,-170.49 1324.61,-161.49 1320.23,-166.95"/>
</a>
</g>
</g>
<!-- Node11&#45;&gt;Node5 -->
<g id="edge16_Node000011_Node000005" class="edge">
<title>Node11&#45;&gt;Node5</title>
<g id="a_edge16_Node000011_Node000005"><a xlink:title=" ">
<path fill="none" stroke="#63b8ff" d="M728.6,-242.87C723.43,-219.3 720.96,-188.4 734.5,-165 780.94,-84.71 887.85,-48.42 958.87,-32.7"/>
<polygon fill="#63b8ff" stroke="#63b8ff" points="725.25,-243.93 731.03,-252.81 732.05,-242.26 725.25,-243.93"/>
</a>
</g>
</g>
<!-- Node11&#45;&gt;Node7 -->
<g id="edge17_Node000011_Node000007" class="edge">
<title>Node11&#45;&gt;Node7</title>
<g id="a_edge17_Node000011_Node000007"><a xlink:title=" ">
<path fill="none" stroke="#63b8ff" d="M736.25,-242.69C735.97,-218.04 739.85,-185.92 758.5,-165 792.94,-126.36 850.18,-111.54 896.36,-106.15"/>
<polygon fill="#63b8ff" stroke="#63b8ff" points="732.76,-242.87 736.6,-252.74 739.75,-242.63 732.76,-242.87"/>
</a>
</g>
</g>
<!-- Node11&#45;&gt;Node10 -->
<g id="edge14_Node000011_Node000010" class="edge">
<title>Node11&#45;&gt;Node10</title>
<g id="a_edge14_Node000011_Node000010"><a xlink:title=" ">
<path fill="none" stroke="#63b8ff" d="M820.05,-251.36C865.32,-236.38 919.99,-218.3 957,-206.06"/>
<polygon fill="#63b8ff" stroke="#63b8ff" points="818.94,-248.04 810.54,-254.5 821.13,-254.68 818.94,-248.04"/>
</a>
</g>
</g>
<!-- Node12 -->
<g id="Node000012" class="node">
<title>Node12</title>
<g id="a_Node000012"><a xlink:href="fluid__dynamics__sharp_8h.html" target="_top" xlink:title=" ">
<polygon fill="white" stroke="#666666" points="597,-211.5 460,-211.5 460,-170.5 597,-170.5 597,-211.5"/>
<text text-anchor="start" x="468" y="-199.5" font-family="Helvetica,sans-Serif" font-size="10.00">/home/runner/work/lethe</text>
<text text-anchor="start" x="468" y="-188.5" font-family="Helvetica,sans-Serif" font-size="10.00">/lethe/include/fem&#45;dem</text>
<text text-anchor="middle" x="528.5" y="-177.5" font-family="Helvetica,sans-Serif" font-size="10.00">/fluid_dynamics_sharp.h</text>
</a>
</g>
</g>
<!-- Node11&#45;&gt;Node12 -->
<g id="edge12_Node000011_Node000012" class="edge">
<title>Node11&#45;&gt;Node12</title>
<g id="a_edge12_Node000011_Node000012"><a xlink:title=" ">
<path fill="none" stroke="#63b8ff" d="M668.63,-249.12C638.3,-236.75 603.66,-222.64 576.41,-211.53"/>
<polygon fill="#63b8ff" stroke="#63b8ff" points="667.32,-252.36 677.9,-252.89 669.96,-245.88 667.32,-252.36"/>
</a>
</g>
</g>
<!-- Node11&#45;&gt;Node13 -->
<g id="edge18_Node000011_Node000013" class="edge">
<title>Node11&#45;&gt;Node13</title>
<g id="a_edge18_Node000011_Node000013"><a xlink:title=" ">
<path fill="none" stroke="#63b8ff" d="M711.42,-245.18C687.22,-217.11 653.96,-179.06 639.5,-165 624.45,-150.38 606.37,-135.25 591.97,-123.72"/>
<polygon fill="#63b8ff" stroke="#63b8ff" points="708.81,-247.51 717.98,-252.81 714.11,-242.95 708.81,-247.51"/>
</a>
</g>
</g>
<!-- Node11&#45;&gt;Node14 -->
<g id="edge15_Node000011_Node000014" class="edge">
<title>Node11&#45;&gt;Node14</title>
<g id="a_edge15_Node000011_Node000014"><a xlink:title=" ">
<path fill="none" stroke="#63b8ff" d="M776.18,-246.13C787.13,-236.62 798.99,-226.32 809.39,-217.29"/>
<polygon fill="#63b8ff" stroke="#63b8ff" points="773.65,-243.69 768.4,-252.89 778.24,-248.98 773.65,-243.69"/>
</a>
</g>
</g>
<!-- Node12&#45;&gt;Node13 -->
<g id="edge13_Node000012_Node000013" class="edge">
<title>Node12&#45;&gt;Node13</title>
<g id="a_edge13_Node000012_Node000013"><a xlink:title=" ">
<path fill="none" stroke="#63b8ff" d="M541.27,-161.09C546.7,-148.81 552.89,-134.8 557.78,-123.74"/>
<polygon fill="#63b8ff" stroke="#63b8ff" points="537.96,-159.92 537.12,-170.49 544.36,-162.75 537.96,-159.92"/>
</a>
</g>
</g>
<!-- Node16&#45;&gt;Node17 -->
<g id="edge23_Node000016_Node000017" class="edge">
<title>Node16&#45;&gt;Node17</title>
<g id="a_edge23_Node000016_Node000017"><a xlink:title=" ">
<path fill="none" stroke="#63b8ff" d="M906.04,-491.54C877.77,-481.15 844.71,-468.99 817.65,-459.04"/>
<polygon fill="#63b8ff" stroke="#63b8ff" points="904.84,-494.82 915.43,-494.99 907.25,-488.25 904.84,-494.82"/>
</a>
</g>
</g>
<!-- Node21 -->
<g id="Node000021" class="node">
<title>Node21</title>
<g id="a_Node000021"><a xlink:href="particle__heat__transfer_8cc.html" target="_top" xlink:title=" ">
<polygon fill="white" stroke="#666666" points="1038.5,-459 894.5,-459 894.5,-418 1038.5,-418 1038.5,-459"/>
<text text-anchor="start" x="902.5" y="-447" font-family="Helvetica,sans-Serif" font-size="10.00">/home/runner/work/lethe</text>
<text text-anchor="start" x="902.5" y="-436" font-family="Helvetica,sans-Serif" font-size="10.00">/lethe/source/dem/particle</text>
<text text-anchor="middle" x="966.5" y="-425" font-family="Helvetica,sans-Serif" font-size="10.00">_heat_transfer.cc</text>
</a>
</g>
</g>
<!-- Node16&#45;&gt;Node21 -->
<g id="edge31_Node000016_Node000021" class="edge">
<title>Node16&#45;&gt;Node21</title>
<g id="a_edge31_Node000016_Node000021"><a xlink:title=" ">
<path fill="none" stroke="#63b8ff" d="M967.7,-484.69C967.47,-476.08 967.23,-466.9 967.02,-459.07"/>
<polygon fill="#63b8ff" stroke="#63b8ff" points="964.2,-484.89 967.97,-494.79 971.2,-484.7 964.2,-484.89"/>
</a>
</g>
</g>
<!-- Node16&#45;&gt;Node22 -->
<g id="edge32_Node000016_Node000022" class="edge">
<title>Node16&#45;&gt;Node22</title>
<g id="a_edge32_Node000016_Node000022"><a xlink:title=" ">
<path fill="none" stroke="#63b8ff" d="M1019.22,-490.72C1041,-480.51 1066.14,-468.73 1086.81,-459.04"/>
<polygon fill="#63b8ff" stroke="#63b8ff" points="1017.68,-487.58 1010.12,-494.99 1020.66,-493.92 1017.68,-487.58"/>
</a>
</g>
</g>
<!-- Node17&#45;&gt;Node2 -->
<g id="edge25_Node000017_Node000002" class="edge">
<title>Node17&#45;&gt;Node2</title>
<g id="a_edge25_Node000017_Node000002"><a xlink:title=" ">
<path fill="none" stroke="#63b8ff" d="M797.71,-411.82C810.26,-402.11 824.33,-391.24 836.05,-382.17"/>
<polygon fill="#63b8ff" stroke="#63b8ff" points="795.5,-409.1 789.73,-417.99 799.78,-414.64 795.5,-409.1"/>
</a>
</g>
</g>
<!-- Node17&#45;&gt;Node3 -->
<g id="edge24_Node000017_Node000003" class="edge">
<title>Node17&#45;&gt;Node3</title>
<g id="a_edge24_Node000017_Node000003"><a xlink:title=" ">
<path fill="none" stroke="#63b8ff" d="M845.23,-414.86C874.95,-405.72 908.63,-394.39 938.5,-382 1003.06,-355.21 1075.1,-315.14 1111.56,-294.08"/>
<polygon fill="#63b8ff" stroke="#63b8ff" points="843.87,-411.62 835.32,-417.87 845.9,-418.31 843.87,-411.62"/>
</a>
</g>
</g>
<!-- Node17&#45;&gt;Node11 -->
<g id="edge26_Node000017_Node000011" class="edge">
<title>Node17&#45;&gt;Node11</title>
<g id="a_edge26_Node000017_Node000011"><a xlink:title=" ">
<path fill="none" stroke="#63b8ff" d="M759.76,-407.69C755.05,-378.02 747.9,-332.98 743.48,-305.08"/>
<polygon fill="#63b8ff" stroke="#63b8ff" points="756.36,-408.54 761.38,-417.87 763.27,-407.45 756.36,-408.54"/>
</a>
</g>
</g>
<!-- Node18 -->
<g id="Node000018" class="node">
<title>Node18</title>
<g id="a_Node000018"><a xlink:href="ib__particles__dem_8h.html" target="_top" xlink:title=" ">
<polygon fill="white" stroke="#666666" points="574,-382 437,-382 437,-341 574,-341 574,-382"/>
<text text-anchor="start" x="445" y="-370" font-family="Helvetica,sans-Serif" font-size="10.00">/home/runner/work/lethe</text>
<text text-anchor="start" x="445" y="-359" font-family="Helvetica,sans-Serif" font-size="10.00">/lethe/include/fem&#45;dem</text>
<text text-anchor="middle" x="505.5" y="-348" font-family="Helvetica,sans-Serif" font-size="10.00">/ib_particles_dem.h</text>
</a>
</g>
</g>
<!-- Node17&#45;&gt;Node18 -->
<g id="edge27_Node000017_Node000018" class="edge">
<title>Node17&#45;&gt;Node18</title>
<g id="a_edge27_Node000017_Node000018"><a xlink:title=" ">
<path fill="none" stroke="#63b8ff" d="M687.07,-415.08C650.78,-404.57 607.93,-392.16 572.98,-382.04"/>
<polygon fill="#63b8ff" stroke="#63b8ff" points="686.54,-418.57 697.12,-417.99 688.49,-411.85 686.54,-418.57"/>
</a>
</g>
</g>
<!-- Node20 -->
<g id="Node000020" class="node">
<title>Node20</title>
<g id="a_Node000020"><a xlink:href="particle__particle__contact__force_8cc.html" target="_top" xlink:title=" ">
<polygon fill="white" stroke="#666666" points="736.5,-382 592.5,-382 592.5,-341 736.5,-341 736.5,-382"/>
<text text-anchor="start" x="600.5" y="-370" font-family="Helvetica,sans-Serif" font-size="10.00">/home/runner/work/lethe</text>
<text text-anchor="start" x="600.5" y="-359" font-family="Helvetica,sans-Serif" font-size="10.00">/lethe/source/dem/particle</text>
<text text-anchor="middle" x="664.5" y="-348" font-family="Helvetica,sans-Serif" font-size="10.00">_particle_contact_force.cc</text>
</a>
</g>
</g>
<!-- Node17&#45;&gt;Node20 -->
<g id="edge30_Node000017_Node000020" class="edge">
<title>Node17&#45;&gt;Node20</title>
<g id="a_edge30_Node000017_Node000020"><a xlink:title=" ">
<path fill="none" stroke="#63b8ff" d="M730.25,-411.82C717.31,-402.11 702.81,-391.24 690.73,-382.17"/>
<polygon fill="#63b8ff" stroke="#63b8ff" points="728.38,-414.79 738.48,-417.99 732.58,-409.19 728.38,-414.79"/>
</a>
</g>
</g>
<!-- Node18&#45;&gt;Node12 -->
<g id="edge28_Node000018_Node000012" class="edge">
<title>Node18&#45;&gt;Node12</title>
<g id="a_edge28_Node000018_Node000012"><a xlink:title=" ">
<path fill="none" stroke="#63b8ff" d="M471,-334.03C462.71,-325.73 454.97,-315.87 450.5,-305 441.7,-283.63 440.37,-273.77 450.5,-253 458.93,-235.69 474.92,-221.85 490.23,-211.76"/>
<polygon fill="#63b8ff" stroke="#63b8ff" points="468.66,-336.64 478.35,-340.91 473.44,-331.52 468.66,-336.64"/>
</a>
</g>
</g>
<!-- Node19 -->
<g id="Node000019" class="node">
<title>Node19</title>
<g id="a_Node000019"><a xlink:href="ib__particles__dem_8cc.html" target="_top" xlink:title=" ">
<polygon fill="white" stroke="#666666" points="597,-299.5 460,-299.5 460,-258.5 597,-258.5 597,-299.5"/>
<text text-anchor="start" x="468" y="-287.5" font-family="Helvetica,sans-Serif" font-size="10.00">/home/runner/work/lethe</text>
<text text-anchor="start" x="468" y="-276.5" font-family="Helvetica,sans-Serif" font-size="10.00">/lethe/source/fem&#45;dem</text>
<text text-anchor="middle" x="528.5" y="-265.5" font-family="Helvetica,sans-Serif" font-size="10.00">/ib_particles_dem.cc</text>
</a>
</g>
</g>
<!-- Node18&#45;&gt;Node19 -->
<g id="edge29_Node000018_Node000019" class="edge">
<title>Node18&#45;&gt;Node19</title>
<g id="a_edge29_Node000018_Node000019"><a xlink:title=" ">
<path fill="none" stroke="#63b8ff" d="M514.01,-330.69C516.97,-320.34 520.21,-309 522.88,-299.67"/>
<polygon fill="#63b8ff" stroke="#63b8ff" points="510.56,-330.02 511.18,-340.6 517.29,-331.95 510.56,-330.02"/>
</a>
</g>
</g>
<!-- Node24 -->
<g id="Node000024" class="node">
<title>Node24</title>
<g id="a_Node000024"><a xlink:href="dem__contact__manager_8cc.html" target="_top" xlink:title=" ">
<polygon fill="white" stroke="#666666" points="510,-459 373,-459 373,-418 510,-418 510,-459"/>
<text text-anchor="start" x="381" y="-447" font-family="Helvetica,sans-Serif" font-size="10.00">/home/runner/work/lethe</text>
<text text-anchor="start" x="381" y="-436" font-family="Helvetica,sans-Serif" font-size="10.00">/lethe/source/dem/dem</text>
<text text-anchor="middle" x="441.5" y="-425" font-family="Helvetica,sans-Serif" font-size="10.00">_contact_manager.cc</text>
</a>
</g>
</g>
<!-- Node23&#45;&gt;Node24 -->
<g id="edge35_Node000023_Node000024" class="edge">
<title>Node23&#45;&gt;Node24</title>
<g id="a_edge35_Node000023_Node000024"><a xlink:title=" ">
<path fill="none" stroke="#63b8ff" d="M551.45,-490.72C529.54,-480.51 504.24,-468.73 483.45,-459.04"/>
<polygon fill="#63b8ff" stroke="#63b8ff" points="550.07,-493.94 560.61,-494.99 553.03,-487.6 550.07,-493.94"/>
</a>
</g>
</g>
<!-- Node23&#45;&gt;Node25 -->
<g id="edge36_Node000023_Node000025" class="edge">
<title>Node23&#45;&gt;Node25</title>
<g id="a_edge36_Node000023_Node000025"><a xlink:title=" ">
<path fill="none" stroke="#63b8ff" d="M601.7,-484.69C601.47,-476.08 601.23,-466.9 601.02,-459.07"/>
<polygon fill="#63b8ff" stroke="#63b8ff" points="598.2,-484.89 601.97,-494.79 605.2,-484.7 598.2,-484.89"/>
</a>
</g>
</g>
<!-- Node26&#45;&gt;Node24 -->
<g id="edge38_Node000026_Node000024" class="edge">
<title>Node26&#45;&gt;Node24</title>
<g id="a_edge38_Node000026_Node000024"><a xlink:title=" ">
<path fill="none" stroke="#63b8ff" d="M439.69,-484.69C440.03,-476.08 440.4,-466.9 440.71,-459.07"/>
<polygon fill="#63b8ff" stroke="#63b8ff" points="436.19,-484.66 439.28,-494.79 443.18,-484.94 436.19,-484.66"/>
</a>
</g>
</g>
<!-- Node27 -->
<g id="Node000027" class="node">
<title>Node27</title>
<g id="a_Node000027"><a xlink:href="update__fine__search__candidates_8cc.html" target="_top" xlink:title=" ">
<polygon fill="white" stroke="#666666" points="355,-459 206,-459 206,-418 355,-418 355,-459"/>
<text text-anchor="start" x="214" y="-447" font-family="Helvetica,sans-Serif" font-size="10.00">/home/runner/work/lethe</text>
<text text-anchor="start" x="214" y="-436" font-family="Helvetica,sans-Serif" font-size="10.00">/lethe/source/dem/update</text>
<text text-anchor="middle" x="280.5" y="-425" font-family="Helvetica,sans-Serif" font-size="10.00">_fine_search_candidates.cc</text>
</a>
</g>
</g>
<!-- Node26&#45;&gt;Node27 -->
<g id="edge39_Node000026_Node000027" class="edge">
<title>Node26&#45;&gt;Node27</title>
<g id="a_edge39_Node000026_Node000027"><a xlink:title=" ">
<path fill="none" stroke="#63b8ff" d="M388.12,-490.59C366.68,-480.41 341.98,-468.69 321.66,-459.04"/>
<polygon fill="#63b8ff" stroke="#63b8ff" points="386.86,-493.86 397.4,-494.99 389.86,-487.54 386.86,-493.86"/>
</a>
</g>
</g>
<!-- Node28&#45;&gt;Node13 -->
<g id="edge43_Node000028_Node000013" class="edge">
<title>Node28&#45;&gt;Node13</title>
<g id="a_edge43_Node000028_Node000013"><a xlink:title=" ">
<path fill="none" stroke="#63b8ff" d="M105.31,-504.55C74.83,-496.8 42.86,-483.12 21.5,-459 -7.49,-426.28 2.5,-406.21 2.5,-362.5 2.5,-362.5 2.5,-362.5 2.5,-278 2.5,-175.66 345.87,-127.09 496.77,-110.69"/>
<polygon fill="#63b8ff" stroke="#63b8ff" points="104.6,-507.98 115.13,-506.86 106.2,-501.16 104.6,-507.98"/>
</a>
</g>
</g>
<!-- Node28&#45;&gt;Node24 -->
<g id="edge41_Node000028_Node000024" class="edge">
<title>Node28&#45;&gt;Node24</title>
<g id="a_edge41_Node000028_Node000024"><a xlink:title=" ">
<path fill="none" stroke="#63b8ff" d="M266.23,-492.08C301.26,-481.57 342.62,-469.16 376.36,-459.04"/>
<polygon fill="#63b8ff" stroke="#63b8ff" points="265.1,-488.76 256.53,-494.99 267.11,-495.47 265.1,-488.76"/>
</a>
</g>
</g>
<!-- Node29 -->
<g id="Node000029" class="node">
<title>Node29</title>
<g id="a_Node000029"><a xlink:href="update__local__particle__containers_8cc.html" target="_top" xlink:title=" ">
<polygon fill="white" stroke="#666666" points="188,-459 31,-459 31,-418 188,-418 188,-459"/>
<text text-anchor="start" x="39" y="-447" font-family="Helvetica,sans-Serif" font-size="10.00">/home/runner/work/lethe</text>
<text text-anchor="start" x="39" y="-436" font-family="Helvetica,sans-Serif" font-size="10.00">/lethe/source/dem/update</text>
<text text-anchor="middle" x="109.5" y="-425" font-family="Helvetica,sans-Serif" font-size="10.00">_local_particle_containers.cc</text>
</a>
</g>
</g>
<!-- Node28&#45;&gt;Node29 -->
<g id="edge42_Node000028_Node000029" class="edge">
<title>Node28&#45;&gt;Node29</title>
<g id="a_edge42_Node000028_Node000029"><a xlink:title=" ">
<path fill="none" stroke="#63b8ff" d="M162.29,-487.79C151.94,-478.32 140.48,-467.84 130.9,-459.07"/>
<polygon fill="#63b8ff" stroke="#63b8ff" points="160.21,-490.63 169.95,-494.79 164.93,-485.46 160.21,-490.63"/>
</a>
</g>
</g>
</g>
</svg>
