<?xml version="1.0" encoding="UTF-8" standalone="no"?>
<!DOCTYPE svg PUBLIC "-//W3C//DTD SVG 1.1//EN"
 "http://www.w3.org/Graphics/SVG/1.1/DTD/svg11.dtd">
<!-- Generated by graphviz version 2.43.0 (0)
 -->
<!-- Title: /home/runner/work/lethe/lethe/include/core/utilities.h Pages: 1 -->
<svg width="1763pt" height="170pt"
 viewBox="0.00 0.00 1763.00 170.00" xmlns="http://www.w3.org/2000/svg" xmlns:xlink="http://www.w3.org/1999/xlink">
<g id="graph0" class="graph" transform="scale(1 1) rotate(0) translate(4 166)">
<title>/home/runner/work/lethe/lethe/include/core/utilities.h</title>
<!-- Node1 -->
<g id="Node000001" class="node">
<title>Node1</title>
<g id="a_Node000001"><a xlink:title=" ">
<polygon fill="#999999" stroke="#666666" points="1133,-162 978,-162 978,-132 1133,-132 1133,-162"/>
<text text-anchor="start" x="986" y="-150" font-family="Helvetica,sans-Serif" font-size="10.00">/home/runner/work/lethe</text>
<text text-anchor="middle" x="1055.5" y="-139" font-family="Helvetica,sans-Serif" font-size="10.00">/lethe/include/core/utilities.h</text>
</a>
</g>
</g>
<!-- Node2 -->
<g id="Node000002" class="node">
<title>Node2</title>
<g id="a_Node000002"><a xlink:href="output__struct_8h.html" target="_top" xlink:title=" ">
<polygon fill="white" stroke="#666666" points="192.5,-90.5 78.5,-90.5 78.5,-71.5 192.5,-71.5 192.5,-90.5"/>
<text text-anchor="middle" x="135.5" y="-78.5" font-family="Helvetica,sans-Serif" font-size="10.00">core/output_struct.h</text>
</a>
</g>
</g>
<!-- Node1&#45;&gt;Node2 -->
<g id="edge1_Node000001_Node000002" class="edge">
<title>Node1&#45;&gt;Node2</title>
<g id="a_edge1_Node000001_Node000002"><a xlink:title=" ">
<path fill="none" stroke="#63b8ff" d="M977.99,-145.36C827.6,-143.26 485.95,-134.27 201.5,-96 194.79,-95.1 187.75,-93.89 180.87,-92.56"/>
<polygon fill="#63b8ff" stroke="#63b8ff" points="181.45,-89.11 170.95,-90.54 180.05,-95.97 181.45,-89.11"/>
</a>
</g>
</g>
<!-- Node3 -->
<g id="Node000003" class="node">
<title>Node3</title>
<g id="a_Node000003"><a xlink:title=" ">
<polygon fill="#e0e0e0" stroke="#999999" points="101,-30 0,-30 0,0 101,0 101,-30"/>
<text text-anchor="start" x="8" y="-18" font-family="Helvetica,sans-Serif" font-size="10.00">deal.II/base/table</text>
<text text-anchor="middle" x="50.5" y="-7" font-family="Helvetica,sans-Serif" font-size="10.00">_handler.h</text>
</a>
</g>
</g>
<!-- Node1&#45;&gt;Node3 -->
<g id="edge7_Node000001_Node000003" class="edge">
<title>Node1&#45;&gt;Node3</title>
<g id="a_edge7_Node000001_Node000003"><a xlink:title=" ">
<path fill="none" stroke="#63b8ff" d="M977.63,-144.58C750.77,-140.12 104.23,-124.9 69.5,-96 53.52,-82.7 49.58,-58.65 49.14,-40.38"/>
<polygon fill="#63b8ff" stroke="#63b8ff" points="52.64,-40.19 49.24,-30.16 45.64,-40.13 52.64,-40.19"/>
</a>
</g>
</g>
<!-- Node5 -->
<g id="Node000005" class="node">
<title>Node5</title>
<g id="a_Node000005"><a xlink:title=" ">
<polygon fill="#e0e0e0" stroke="#999999" points="340.5,-96 210.5,-96 210.5,-66 340.5,-66 340.5,-96"/>
<text text-anchor="start" x="218.5" y="-84" font-family="Helvetica,sans-Serif" font-size="10.00">deal.II/base/conditional</text>
<text text-anchor="middle" x="275.5" y="-73" font-family="Helvetica,sans-Serif" font-size="10.00">_ostream.h</text>
</a>
</g>
</g>
<!-- Node1&#45;&gt;Node5 -->
<g id="edge4_Node000001_Node000005" class="edge">
<title>Node1&#45;&gt;Node5</title>
<g id="a_edge4_Node000001_Node000005"><a xlink:title=" ">
<path fill="none" stroke="#63b8ff" d="M977.76,-143.38C849.39,-138.41 584.95,-125.49 350.94,-95.94"/>
<polygon fill="#63b8ff" stroke="#63b8ff" points="351.24,-92.45 340.88,-94.66 350.35,-99.39 351.24,-92.45"/>
</a>
</g>
</g>
<!-- Node6 -->
<g id="Node000006" class="node">
<title>Node6</title>
<g id="a_Node000006"><a xlink:title=" ">
<polygon fill="#e0e0e0" stroke="#999999" points="486,-96 359,-96 359,-66 486,-66 486,-96"/>
<text text-anchor="start" x="367" y="-84" font-family="Helvetica,sans-Serif" font-size="10.00">deal.II/base/parameter</text>
<text text-anchor="middle" x="422.5" y="-73" font-family="Helvetica,sans-Serif" font-size="10.00">_handler.h</text>
</a>
</g>
</g>
<!-- Node1&#45;&gt;Node6 -->
<g id="edge5_Node000001_Node000006" class="edge">
<title>Node1&#45;&gt;Node6</title>
<g id="a_edge5_Node000001_Node000006"><a xlink:title=" ">
<path fill="none" stroke="#63b8ff" d="M977.77,-141.53C871.38,-134.87 674.32,-120.56 496.22,-96"/>
<polygon fill="#63b8ff" stroke="#63b8ff" points="496.53,-92.51 486.14,-94.59 495.56,-99.44 496.53,-92.51"/>
</a>
</g>
</g>
<!-- Node7 -->
<g id="Node000007" class="node">
<title>Node7</title>
<g id="a_Node000007"><a xlink:title=" ">
<polygon fill="#e0e0e0" stroke="#999999" points="614.5,-90.5 504.5,-90.5 504.5,-71.5 614.5,-71.5 614.5,-90.5"/>
<text text-anchor="middle" x="559.5" y="-78.5" font-family="Helvetica,sans-Serif" font-size="10.00">deal.II/base/point.h</text>
</a>
</g>
</g>
<!-- Node1&#45;&gt;Node7 -->
<g id="edge6_Node000001_Node000007" class="edge">
<title>Node1&#45;&gt;Node7</title>
<g id="a_edge6_Node000001_Node000007"><a xlink:title=" ">
<path fill="none" stroke="#63b8ff" d="M977.72,-139.26C891.16,-131.23 747.31,-116.3 624.5,-96 618.59,-95.02 612.41,-93.87 606.3,-92.64"/>
<polygon fill="#63b8ff" stroke="#63b8ff" points="606.67,-89.15 596.16,-90.54 605.25,-96 606.67,-89.15"/>
</a>
</g>
</g>
<!-- Node8 -->
<g id="Node000008" class="node">
<title>Node8</title>
<g id="a_Node000008"><a xlink:title=" ">
<polygon fill="#e0e0e0" stroke="#999999" points="748,-90.5 633,-90.5 633,-71.5 748,-71.5 748,-90.5"/>
<text text-anchor="middle" x="690.5" y="-78.5" font-family="Helvetica,sans-Serif" font-size="10.00">deal.II/base/tensor.h</text>
</a>
</g>
</g>
<!-- Node1&#45;&gt;Node8 -->
<g id="edge8_Node000001_Node000008" class="edge">
<title>Node1&#45;&gt;Node8</title>
<g id="a_edge8_Node000001_Node000008"><a xlink:title=" ">
<path fill="none" stroke="#63b8ff" d="M977.86,-133.84C917.63,-124.2 832.12,-110.05 757.5,-96 751.81,-94.93 745.87,-93.76 739.97,-92.57"/>
<polygon fill="#63b8ff" stroke="#63b8ff" points="740.63,-89.13 730.13,-90.55 739.22,-95.99 740.63,-89.13"/>
</a>
</g>
</g>
<!-- Node9 -->
<g id="Node000009" class="node">
<title>Node9</title>
<g id="a_Node000009"><a xlink:title=" ">
<polygon fill="#e0e0e0" stroke="#999999" points="906.5,-90.5 766.5,-90.5 766.5,-71.5 906.5,-71.5 906.5,-90.5"/>
<text text-anchor="middle" x="836.5" y="-78.5" font-family="Helvetica,sans-Serif" font-size="10.00">deal.II/dofs/dof_handler.h</text>
</a>
</g>
</g>
<!-- Node1&#45;&gt;Node9 -->
<g id="edge9_Node000001_Node000009" class="edge">
<title>Node1&#45;&gt;Node9</title>
<g id="a_edge9_Node000001_Node000009"><a xlink:title=" ">
<path fill="none" stroke="#63b8ff" d="M1007.44,-131.95C967.85,-120.38 912.41,-104.18 875.53,-93.41"/>
<polygon fill="#63b8ff" stroke="#63b8ff" points="876.23,-89.96 865.65,-90.52 874.26,-96.68 876.23,-89.96"/>
</a>
</g>
</g>
<!-- Node10 -->
<g id="Node000010" class="node">
<title>Node10</title>
<g id="a_Node000010"><a xlink:title=" ">
<polygon fill="#e0e0e0" stroke="#999999" points="1044,-90.5 925,-90.5 925,-71.5 1044,-71.5 1044,-90.5"/>
<text text-anchor="middle" x="984.5" y="-78.5" font-family="Helvetica,sans-Serif" font-size="10.00">deal.II/fe/fe_values.h</text>
</a>
</g>
</g>
<!-- Node1&#45;&gt;Node10 -->
<g id="edge10_Node000001_Node000010" class="edge">
<title>Node1&#45;&gt;Node10</title>
<g id="a_edge10_Node000001_Node000010"><a xlink:title=" ">
<path fill="none" stroke="#63b8ff" d="M1039.74,-131.8C1028.57,-121.72 1013.56,-108.19 1002.01,-97.78"/>
<polygon fill="#63b8ff" stroke="#63b8ff" points="1004.08,-94.94 994.31,-90.84 999.4,-100.14 1004.08,-94.94"/>
</a>
</g>
</g>
<!-- Node11 -->
<g id="Node000011" class="node">
<title>Node11</title>
<g id="a_Node000011"><a xlink:title=" ">
<polygon fill="#e0e0e0" stroke="#999999" points="1193,-96 1062,-96 1062,-66 1193,-66 1193,-96"/>
<text text-anchor="start" x="1070" y="-84" font-family="Helvetica,sans-Serif" font-size="10.00">deal.II/particles/particle</text>
<text text-anchor="middle" x="1127.5" y="-73" font-family="Helvetica,sans-Serif" font-size="10.00">_iterator.h</text>
</a>
</g>
</g>
<!-- Node1&#45;&gt;Node11 -->
<g id="edge11_Node000001_Node000011" class="edge">
<title>Node1&#45;&gt;Node11</title>
<g id="a_edge11_Node000001_Node000011"><a xlink:title=" ">
<path fill="none" stroke="#63b8ff" d="M1071.48,-131.8C1080.99,-123.34 1093.23,-112.46 1103.84,-103.03"/>
<polygon fill="#63b8ff" stroke="#63b8ff" points="1106.42,-105.42 1111.57,-96.16 1101.77,-100.19 1106.42,-105.42"/>
</a>
</g>
</g>
<!-- Node12 -->
<g id="Node000012" class="node">
<title>Node12</title>
<g id="a_Node000012"><a xlink:title=" ">
<polygon fill="#e0e0e0" stroke="#999999" points="1316,-96 1211,-96 1211,-66 1316,-66 1316,-96"/>
<text text-anchor="start" x="1219" y="-84" font-family="Helvetica,sans-Serif" font-size="10.00">boost/archive/text</text>
<text text-anchor="middle" x="1263.5" y="-73" font-family="Helvetica,sans-Serif" font-size="10.00">_iarchive.hpp</text>
</a>
</g>
</g>
<!-- Node1&#45;&gt;Node12 -->
<g id="edge12_Node000001_Node000012" class="edge">
<title>Node1&#45;&gt;Node12</title>
<g id="a_edge12_Node000001_Node000012"><a xlink:title=" ">
<path fill="none" stroke="#63b8ff" d="M1101.15,-131.95C1132.71,-122.24 1174.88,-109.27 1208.33,-98.98"/>
<polygon fill="#63b8ff" stroke="#63b8ff" points="1209.43,-102.3 1217.96,-96.01 1207.37,-95.61 1209.43,-102.3"/>
</a>
</g>
</g>
<!-- Node13 -->
<g id="Node000013" class="node">
<title>Node13</title>
<g id="a_Node000013"><a xlink:title=" ">
<polygon fill="#e0e0e0" stroke="#999999" points="1439,-96 1334,-96 1334,-66 1439,-66 1439,-96"/>
<text text-anchor="start" x="1342" y="-84" font-family="Helvetica,sans-Serif" font-size="10.00">boost/archive/text</text>
<text text-anchor="middle" x="1386.5" y="-73" font-family="Helvetica,sans-Serif" font-size="10.00">_oarchive.hpp</text>
</a>
</g>
</g>
<!-- Node1&#45;&gt;Node13 -->
<g id="edge13_Node000001_Node000013" class="edge">
<title>Node1&#45;&gt;Node13</title>
<g id="a_edge13_Node000001_Node000013"><a xlink:title=" ">
<path fill="none" stroke="#63b8ff" d="M1133.07,-132.54C1184.69,-123.37 1254.26,-110.61 1324.1,-96.24"/>
<polygon fill="#63b8ff" stroke="#63b8ff" points="1324.87,-99.66 1333.96,-94.21 1323.46,-92.8 1324.87,-99.66"/>
</a>
</g>
</g>
<!-- Node14 -->
<g id="Node000014" class="node">
<title>Node14</title>
<g id="a_Node000014"><a xlink:title=" ">
<polygon fill="#e0e0e0" stroke="#999999" points="1512,-90.5 1457,-90.5 1457,-71.5 1512,-71.5 1512,-90.5"/>
<text text-anchor="middle" x="1484.5" y="-78.5" font-family="Helvetica,sans-Serif" font-size="10.00">fstream</text>
</a>
</g>
</g>
<!-- Node1&#45;&gt;Node14 -->
<g id="edge14_Node000001_Node000014" class="edge">
<title>Node1&#45;&gt;Node14</title>
<g id="a_edge14_Node000001_Node000014"><a xlink:title=" ">
<path fill="none" stroke="#63b8ff" d="M1133.35,-141.72C1213.4,-136.01 1341.17,-123.26 1448.5,-96 1450.8,-95.42 1453.16,-94.72 1455.51,-93.97"/>
<polygon fill="#63b8ff" stroke="#63b8ff" points="1456.73,-97.25 1464.98,-90.59 1454.38,-90.65 1456.73,-97.25"/>
</a>
</g>
</g>
<!-- Node15 -->
<g id="Node000015" class="node">
<title>Node15</title>
<g id="a_Node000015"><a xlink:title=" ">
<polygon fill="#e0e0e0" stroke="#999999" points="1568.5,-90.5 1530.5,-90.5 1530.5,-71.5 1568.5,-71.5 1568.5,-90.5"/>
<text text-anchor="middle" x="1549.5" y="-78.5" font-family="Helvetica,sans-Serif" font-size="10.00">map</text>
</a>
</g>
</g>
<!-- Node1&#45;&gt;Node15 -->
<g id="edge15_Node000001_Node000015" class="edge">
<title>Node1&#45;&gt;Node15</title>
<g id="a_edge15_Node000001_Node000015"><a xlink:title=" ">
<path fill="none" stroke="#63b8ff" d="M1133.41,-146.03C1227.3,-144.18 1388.96,-134.87 1521.5,-96 1522.76,-95.63 1524.03,-95.21 1525.31,-94.74"/>
<polygon fill="#63b8ff" stroke="#63b8ff" points="1527.04,-97.8 1534.79,-90.58 1524.23,-91.39 1527.04,-97.8"/>
</a>
</g>
</g>
<!-- Node16 -->
<g id="Node000016" class="node">
<title>Node16</title>
<g id="a_Node000016"><a xlink:title=" ">
<polygon fill="#e0e0e0" stroke="#999999" points="1630.5,-90.5 1586.5,-90.5 1586.5,-71.5 1630.5,-71.5 1630.5,-90.5"/>
<text text-anchor="middle" x="1608.5" y="-78.5" font-family="Helvetica,sans-Serif" font-size="10.00">string</text>
</a>
</g>
</g>
<!-- Node1&#45;&gt;Node16 -->
<g id="edge16_Node000001_Node000016" class="edge">
<title>Node1&#45;&gt;Node16</title>
<g id="a_edge16_Node000001_Node000016"><a xlink:title=" ">
<path fill="none" stroke="#63b8ff" d="M1133.41,-146.44C1236.67,-145.24 1423.75,-136.88 1577.5,-96 1579.19,-95.55 1580.9,-95.02 1582.6,-94.43"/>
<polygon fill="#63b8ff" stroke="#63b8ff" points="1584.17,-97.57 1592.14,-90.6 1581.55,-91.08 1584.17,-97.57"/>
</a>
</g>
</g>
<!-- Node17 -->
<g id="Node000017" class="node">
<title>Node17</title>
<g id="a_Node000017"><a xlink:title=" ">
<polygon fill="#e0e0e0" stroke="#999999" points="1690,-90.5 1649,-90.5 1649,-71.5 1690,-71.5 1690,-90.5"/>
<text text-anchor="middle" x="1669.5" y="-78.5" font-family="Helvetica,sans-Serif" font-size="10.00">tuple</text>
</a>
</g>
</g>
<!-- Node1&#45;&gt;Node17 -->
<g id="edge17_Node000001_Node000017" class="edge">
<title>Node1&#45;&gt;Node17</title>
<g id="a_edge17_Node000001_Node000017"><a xlink:title=" ">
<path fill="none" stroke="#63b8ff" d="M1133.04,-142.73C1269.29,-136.43 1546.04,-120.96 1639.5,-96 1640.99,-95.6 1642.5,-95.13 1644.01,-94.61"/>
<polygon fill="#63b8ff" stroke="#63b8ff" points="1645.78,-97.67 1653.7,-90.63 1643.12,-91.19 1645.78,-97.67"/>
</a>
</g>
</g>
<!-- Node18 -->
<g id="Node000018" class="node">
<title>Node18</title>
<g id="a_Node000018"><a xlink:title=" ">
<polygon fill="#e0e0e0" stroke="#999999" points="1755,-90.5 1708,-90.5 1708,-71.5 1755,-71.5 1755,-90.5"/>
<text text-anchor="middle" x="1731.5" y="-78.5" font-family="Helvetica,sans-Serif" font-size="10.00">vector</text>
</a>
</g>
</g>
<!-- Node1&#45;&gt;Node18 -->
<g id="edge18_Node000001_Node000018" class="edge">
<title>Node1&#45;&gt;Node18</title>
<g id="a_edge18_Node000001_Node000018"><a xlink:title=" ">
<path fill="none" stroke="#63b8ff" d="M1133.09,-143.22C1280.17,-137.41 1594.24,-122.31 1699.5,-96 1701.44,-95.51 1703.41,-94.92 1705.38,-94.26"/>
<polygon fill="#63b8ff" stroke="#63b8ff" points="1706.91,-97.42 1714.93,-90.5 1704.35,-90.9 1706.91,-97.42"/>
</a>
</g>
</g>
<!-- Node2&#45;&gt;Node3 -->
<g id="edge2_Node000002_Node000003" class="edge">
<title>Node2&#45;&gt;Node3</title>
<g id="a_edge2_Node000002_Node000003"><a xlink:title=" ">
<path fill="none" stroke="#63b8ff" d="M124.04,-71.37C112.18,-62.44 93.25,-48.19 77.56,-36.38"/>
<polygon fill="#63b8ff" stroke="#63b8ff" points="79.34,-33.33 69.25,-30.12 75.13,-38.93 79.34,-33.33"/>
</a>
</g>
</g>
<!-- Node4 -->
<g id="Node000004" class="node">
<title>Node4</title>
<g id="a_Node000004"><a xlink:title=" ">
<polygon fill="#e0e0e0" stroke="#999999" points="238,-30 119,-30 119,0 238,0 238,-30"/>
<text text-anchor="start" x="127" y="-18" font-family="Helvetica,sans-Serif" font-size="10.00">deal.II/numerics/data</text>
<text text-anchor="middle" x="178.5" y="-7" font-family="Helvetica,sans-Serif" font-size="10.00">_postprocessor.h</text>
</a>
</g>
</g>
<!-- Node2&#45;&gt;Node4 -->
<g id="edge3_Node000002_Node000004" class="edge">
<title>Node2&#45;&gt;Node4</title>
<g id="a_edge3_Node000002_Node000004"><a xlink:title=" ">
<path fill="none" stroke="#63b8ff" d="M141.3,-71.37C146.87,-63.08 155.53,-50.18 163.1,-38.92"/>
<polygon fill="#63b8ff" stroke="#63b8ff" points="166.18,-40.61 168.85,-30.36 160.37,-36.71 166.18,-40.61"/>
</a>
</g>
</g>
</g>
</svg>
