<?xml version="1.0" encoding="UTF-8" standalone="no"?>
<!DOCTYPE svg PUBLIC "-//W3C//DTD SVG 1.1//EN"
 "http://www.w3.org/Graphics/SVG/1.1/DTD/svg11.dtd">
<!-- Generated by graphviz version 2.43.0 (0)
 -->
<!-- Title: /home/runner/work/lethe/lethe/include/dem/data_containers.h Pages: 1 -->
<svg width="2036pt" height="247pt"
 viewBox="0.00 0.00 2035.50 247.00" xmlns="http://www.w3.org/2000/svg" xmlns:xlink="http://www.w3.org/1999/xlink">
<g id="graph0" class="graph" transform="scale(1 1) rotate(0) translate(4 243)">
<title>/home/runner/work/lethe/lethe/include/dem/data_containers.h</title>
<!-- Node1 -->
<g id="Node000001" class="node">
<title>Node1</title>
<g id="a_Node000001"><a xlink:title=" ">
<polygon fill="#999999" stroke="#666666" points="516.5,-239 379.5,-239 379.5,-198 516.5,-198 516.5,-239"/>
<text text-anchor="start" x="387.5" y="-227" font-family="Helvetica,sans-Serif" font-size="10.00">/home/runner/work/lethe</text>
<text text-anchor="start" x="387.5" y="-216" font-family="Helvetica,sans-Serif" font-size="10.00">/lethe/include/dem/data</text>
<text text-anchor="middle" x="448" y="-205" font-family="Helvetica,sans-Serif" font-size="10.00">_containers.h</text>
</a>
</g>
</g>
<!-- Node2 -->
<g id="Node000002" class="node">
<title>Node2</title>
<g id="a_Node000002"><a xlink:href="core_2utilities_8h.html" target="_top" xlink:title=" ">
<polygon fill="white" stroke="#666666" points="1219,-156.5 1133,-156.5 1133,-137.5 1219,-137.5 1219,-156.5"/>
<text text-anchor="middle" x="1176" y="-144.5" font-family="Helvetica,sans-Serif" font-size="10.00">core/utilities.h</text>
</a>
</g>
</g>
<!-- Node1&#45;&gt;Node2 -->
<g id="edge1_Node000001_Node000002" class="edge">
<title>Node1&#45;&gt;Node2</title>
<g id="a_edge1_Node000001_Node000002"><a xlink:title=" ">
<path fill="none" stroke="#63b8ff" d="M516.82,-210.93C661.24,-197.14 993.28,-165.44 1122.85,-153.07"/>
<polygon fill="#63b8ff" stroke="#63b8ff" points="1123.3,-156.55 1132.92,-152.11 1122.63,-149.58 1123.3,-156.55"/>
</a>
</g>
</g>
<!-- Node9 -->
<g id="Node000009" class="node">
<title>Node9</title>
<g id="a_Node000009"><a xlink:title=" ">
<polygon fill="#e0e0e0" stroke="#999999" points="235.5,-90.5 120.5,-90.5 120.5,-71.5 235.5,-71.5 235.5,-90.5"/>
<text text-anchor="middle" x="178" y="-78.5" font-family="Helvetica,sans-Serif" font-size="10.00">deal.II/base/tensor.h</text>
</a>
</g>
</g>
<!-- Node1&#45;&gt;Node9 -->
<g id="edge30_Node000001_Node000009" class="edge">
<title>Node1&#45;&gt;Node9</title>
<g id="a_edge30_Node000001_Node000009"><a xlink:title=" ">
<path fill="none" stroke="#63b8ff" d="M385.76,-197.87C358.52,-188.39 326.56,-176.01 299,-162 261.15,-142.75 220.67,-114.16 197.44,-96.87"/>
<polygon fill="#63b8ff" stroke="#63b8ff" points="199.24,-93.85 189.15,-90.64 195.04,-99.45 199.24,-93.85"/>
</a>
</g>
</g>
<!-- Node12 -->
<g id="Node000012" class="node">
<title>Node12</title>
<g id="a_Node000012"><a xlink:title=" ">
<polygon fill="#e0e0e0" stroke="#999999" points="513.5,-96 382.5,-96 382.5,-66 513.5,-66 513.5,-96"/>
<text text-anchor="start" x="390.5" y="-84" font-family="Helvetica,sans-Serif" font-size="10.00">deal.II/particles/particle</text>
<text text-anchor="middle" x="448" y="-73" font-family="Helvetica,sans-Serif" font-size="10.00">_iterator.h</text>
</a>
</g>
</g>
<!-- Node1&#45;&gt;Node12 -->
<g id="edge32_Node000001_Node000012" class="edge">
<title>Node1&#45;&gt;Node12</title>
<g id="a_edge32_Node000001_Node000012"><a xlink:title=" ">
<path fill="none" stroke="#63b8ff" d="M448,-197.8C448,-173.65 448,-132.72 448,-106.55"/>
<polygon fill="#63b8ff" stroke="#63b8ff" points="451.5,-106.33 448,-96.33 444.5,-106.33 451.5,-106.33"/>
</a>
</g>
</g>
<!-- Node21 -->
<g id="Node000021" class="node">
<title>Node21</title>
<g id="a_Node000021"><a xlink:title=" ">
<polygon fill="#e0e0e0" stroke="#999999" points="2027.5,-90.5 1980.5,-90.5 1980.5,-71.5 2027.5,-71.5 2027.5,-90.5"/>
<text text-anchor="middle" x="2004" y="-78.5" font-family="Helvetica,sans-Serif" font-size="10.00">vector</text>
</a>
</g>
</g>
<!-- Node1&#45;&gt;Node21 -->
<g id="edge34_Node000001_Node000021" class="edge">
<title>Node1&#45;&gt;Node21</title>
<g id="a_edge34_Node000001_Node000021"><a xlink:title=" ">
<path fill="none" stroke="#63b8ff" d="M516.67,-217.65C682.16,-217.21 1098.88,-211.1 1228,-162 1248.44,-154.23 1246.49,-139.58 1267,-132 1409.55,-79.29 1799.79,-119.19 1950,-96 1956.6,-94.98 1963.55,-93.5 1970.2,-91.87"/>
<polygon fill="#63b8ff" stroke="#63b8ff" points="1971.49,-95.15 1980.29,-89.25 1969.73,-88.38 1971.49,-95.15"/>
</a>
</g>
</g>
<!-- Node22 -->
<g id="Node000022" class="node">
<title>Node22</title>
<g id="a_Node000022"><a xlink:href="boundary__cells__info__struct_8h.html" target="_top" xlink:title=" ">
<polygon fill="white" stroke="#666666" points="238.5,-162 123.5,-162 123.5,-132 238.5,-132 238.5,-162"/>
<text text-anchor="start" x="131.5" y="-150" font-family="Helvetica,sans-Serif" font-size="10.00">dem/boundary_cells</text>
<text text-anchor="middle" x="181" y="-139" font-family="Helvetica,sans-Serif" font-size="10.00">_info_struct.h</text>
</a>
</g>
</g>
<!-- Node1&#45;&gt;Node22 -->
<g id="edge22_Node000001_Node000022" class="edge">
<title>Node1&#45;&gt;Node22</title>
<g id="a_edge22_Node000001_Node000022"><a xlink:title=" ">
<path fill="none" stroke="#63b8ff" d="M379.24,-199.6C337.7,-188.79 285.13,-175.11 244.56,-164.55"/>
<polygon fill="#63b8ff" stroke="#63b8ff" points="245.35,-161.13 234.79,-162 243.58,-167.91 245.35,-161.13"/>
</a>
</g>
</g>
<!-- Node23 -->
<g id="Node000023" class="node">
<title>Node23</title>
<g id="a_Node000023"><a xlink:title=" ">
<polygon fill="#e0e0e0" stroke="#999999" points="102,-96 0,-96 0,-66 102,-66 102,-96"/>
<text text-anchor="start" x="8" y="-84" font-family="Helvetica,sans-Serif" font-size="10.00">deal.II/distributed</text>
<text text-anchor="middle" x="51" y="-73" font-family="Helvetica,sans-Serif" font-size="10.00">/tria.h</text>
</a>
</g>
</g>
<!-- Node1&#45;&gt;Node23 -->
<g id="edge31_Node000001_Node000023" class="edge">
<title>Node1&#45;&gt;Node23</title>
<g id="a_edge31_Node000001_Node000023"><a xlink:title=" ">
<path fill="none" stroke="#63b8ff" d="M379.24,-211.94C294.91,-204.13 157.76,-187.89 114,-162 91.33,-148.59 73.7,-123.68 62.93,-105.21"/>
<polygon fill="#63b8ff" stroke="#63b8ff" points="65.85,-103.26 57.93,-96.23 59.74,-106.67 65.85,-103.26"/>
</a>
</g>
</g>
<!-- Node24 -->
<g id="Node000024" class="node">
<title>Node24</title>
<g id="a_Node000024"><a xlink:href="contact__info_8h.html" target="_top" xlink:title=" ">
<polygon fill="white" stroke="#666666" points="418,-156.5 308,-156.5 308,-137.5 418,-137.5 418,-156.5"/>
<text text-anchor="middle" x="363" y="-144.5" font-family="Helvetica,sans-Serif" font-size="10.00">dem/contact_info.h</text>
</a>
</g>
</g>
<!-- Node1&#45;&gt;Node24 -->
<g id="edge26_Node000001_Node000024" class="edge">
<title>Node1&#45;&gt;Node24</title>
<g id="a_edge26_Node000001_Node000024"><a xlink:title=" ">
<path fill="none" stroke="#63b8ff" d="M423.87,-197.77C410.47,-186.81 394.05,-173.39 381.65,-163.25"/>
<polygon fill="#63b8ff" stroke="#63b8ff" points="383.74,-160.44 373.79,-156.82 379.31,-165.86 383.74,-160.44"/>
</a>
</g>
</g>
<!-- Node25 -->
<g id="Node000025" class="node">
<title>Node25</title>
<g id="a_Node000025"><a xlink:title=" ">
<polygon fill="#e0e0e0" stroke="#999999" points="1368.5,-156.5 1275.5,-156.5 1275.5,-137.5 1368.5,-137.5 1368.5,-156.5"/>
<text text-anchor="middle" x="1322" y="-144.5" font-family="Helvetica,sans-Serif" font-size="10.00">unordered_map</text>
</a>
</g>
</g>
<!-- Node1&#45;&gt;Node25 -->
<g id="edge33_Node000001_Node000025" class="edge">
<title>Node1&#45;&gt;Node25</title>
<g id="a_edge33_Node000001_Node000025"><a xlink:title=" ">
<path fill="none" stroke="#63b8ff" d="M516.65,-216.45C657.12,-213.51 987.22,-202.5 1261,-162 1266.92,-161.12 1273.12,-159.98 1279.2,-158.72"/>
<polygon fill="#63b8ff" stroke="#63b8ff" points="1280.24,-162.07 1289.26,-156.51 1278.74,-155.23 1280.24,-162.07"/>
</a>
</g>
</g>
<!-- Node26 -->
<g id="Node000026" class="node">
<title>Node26</title>
<g id="a_Node000026"><a xlink:href="unordered__dense_8h.html" target="_top" xlink:title=" ">
<polygon fill="white" stroke="#666666" points="1529.5,-156.5 1386.5,-156.5 1386.5,-137.5 1529.5,-137.5 1529.5,-156.5"/>
<text text-anchor="middle" x="1458" y="-144.5" font-family="Helvetica,sans-Serif" font-size="10.00">ankerl/unordered_dense.h</text>
</a>
</g>
</g>
<!-- Node1&#45;&gt;Node26 -->
<g id="edge35_Node000001_Node000026" class="edge">
<title>Node1&#45;&gt;Node26</title>
<g id="a_edge35_Node000001_Node000026"><a xlink:title=" ">
<path fill="none" stroke="#63b8ff" d="M516.78,-216.07C671.25,-212.27 1057.3,-199.51 1378,-162 1386.65,-160.99 1395.78,-159.65 1404.66,-158.2"/>
<polygon fill="#63b8ff" stroke="#63b8ff" points="1405.26,-161.65 1414.54,-156.53 1404.09,-154.75 1405.26,-161.65"/>
</a>
</g>
</g>
<!-- Node3 -->
<g id="Node000003" class="node">
<title>Node3</title>
<g id="a_Node000003"><a xlink:href="output__struct_8h.html" target="_top" xlink:title=" ">
<polygon fill="white" stroke="#666666" points="646,-90.5 532,-90.5 532,-71.5 646,-71.5 646,-90.5"/>
<text text-anchor="middle" x="589" y="-78.5" font-family="Helvetica,sans-Serif" font-size="10.00">core/output_struct.h</text>
</a>
</g>
</g>
<!-- Node2&#45;&gt;Node3 -->
<g id="edge2_Node000002_Node000003" class="edge">
<title>Node2&#45;&gt;Node3</title>
<g id="a_edge2_Node000002_Node000003"><a xlink:title=" ">
<path fill="none" stroke="#63b8ff" d="M1132.91,-143.52C1043.46,-138.02 831.26,-123.06 655,-96 648.69,-95.03 642.08,-93.84 635.58,-92.57"/>
<polygon fill="#63b8ff" stroke="#63b8ff" points="636.02,-89.08 625.52,-90.52 634.62,-95.94 636.02,-89.08"/>
</a>
</g>
</g>
<!-- Node4 -->
<g id="Node000004" class="node">
<title>Node4</title>
<g id="a_Node000004"><a xlink:title=" ">
<polygon fill="#e0e0e0" stroke="#999999" points="1384.5,-30 1283.5,-30 1283.5,0 1384.5,0 1384.5,-30"/>
<text text-anchor="start" x="1291.5" y="-18" font-family="Helvetica,sans-Serif" font-size="10.00">deal.II/base/table</text>
<text text-anchor="middle" x="1334" y="-7" font-family="Helvetica,sans-Serif" font-size="10.00">_handler.h</text>
</a>
</g>
</g>
<!-- Node2&#45;&gt;Node4 -->
<g id="edge8_Node000002_Node000004" class="edge">
<title>Node2&#45;&gt;Node4</title>
<g id="a_edge8_Node000002_Node000004"><a xlink:title=" ">
<path fill="none" stroke="#63b8ff" d="M1206.26,-137.44C1214.84,-135.32 1224.23,-133.29 1233,-132 1310.05,-120.66 1879.36,-152.47 1933,-96 1942.18,-86.33 1942.03,-75.81 1933,-66 1897.08,-26.95 1540.21,-18.39 1394.99,-16.52"/>
<polygon fill="#63b8ff" stroke="#63b8ff" points="1394.95,-13.02 1384.91,-16.4 1394.86,-20.02 1394.95,-13.02"/>
</a>
</g>
</g>
<!-- Node6 -->
<g id="Node000006" class="node">
<title>Node6</title>
<g id="a_Node000006"><a xlink:title=" ">
<polygon fill="#e0e0e0" stroke="#999999" points="794,-96 664,-96 664,-66 794,-66 794,-96"/>
<text text-anchor="start" x="672" y="-84" font-family="Helvetica,sans-Serif" font-size="10.00">deal.II/base/conditional</text>
<text text-anchor="middle" x="729" y="-73" font-family="Helvetica,sans-Serif" font-size="10.00">_ostream.h</text>
</a>
</g>
</g>
<!-- Node2&#45;&gt;Node6 -->
<g id="edge5_Node000002_Node000006" class="edge">
<title>Node2&#45;&gt;Node6</title>
<g id="a_edge5_Node000002_Node000006"><a xlink:title=" ">
<path fill="none" stroke="#63b8ff" d="M1132.93,-140.93C1063.53,-132.61 922.71,-115.04 804,-96 803.9,-95.98 803.8,-95.97 803.69,-95.95"/>
<polygon fill="#63b8ff" stroke="#63b8ff" points="804.45,-92.53 794.01,-94.34 803.3,-99.43 804.45,-92.53"/>
</a>
</g>
</g>
<!-- Node7 -->
<g id="Node000007" class="node">
<title>Node7</title>
<g id="a_Node000007"><a xlink:title=" ">
<polygon fill="#e0e0e0" stroke="#999999" points="939.5,-96 812.5,-96 812.5,-66 939.5,-66 939.5,-96"/>
<text text-anchor="start" x="820.5" y="-84" font-family="Helvetica,sans-Serif" font-size="10.00">deal.II/base/parameter</text>
<text text-anchor="middle" x="876" y="-73" font-family="Helvetica,sans-Serif" font-size="10.00">_handler.h</text>
</a>
</g>
</g>
<!-- Node2&#45;&gt;Node7 -->
<g id="edge6_Node000002_Node000007" class="edge">
<title>Node2&#45;&gt;Node7</title>
<g id="a_edge6_Node000002_Node000007"><a xlink:title=" ">
<path fill="none" stroke="#63b8ff" d="M1135.85,-137.44C1088.38,-127.31 1008.43,-110.25 949.72,-97.73"/>
<polygon fill="#63b8ff" stroke="#63b8ff" points="950.26,-94.26 939.75,-95.6 948.8,-101.11 950.26,-94.26"/>
</a>
</g>
</g>
<!-- Node8 -->
<g id="Node000008" class="node">
<title>Node8</title>
<g id="a_Node000008"><a xlink:title=" ">
<polygon fill="#e0e0e0" stroke="#999999" points="364,-90.5 254,-90.5 254,-71.5 364,-71.5 364,-90.5"/>
<text text-anchor="middle" x="309" y="-78.5" font-family="Helvetica,sans-Serif" font-size="10.00">deal.II/base/point.h</text>
</a>
</g>
</g>
<!-- Node2&#45;&gt;Node8 -->
<g id="edge7_Node000002_Node000008" class="edge">
<title>Node2&#45;&gt;Node8</title>
<g id="a_edge7_Node000002_Node000008"><a xlink:title=" ">
<path fill="none" stroke="#63b8ff" d="M1132.68,-145.63C1011.85,-144.1 661.09,-136.24 373,-96 366.64,-95.11 359.98,-93.94 353.45,-92.64"/>
<polygon fill="#63b8ff" stroke="#63b8ff" points="353.87,-89.15 343.37,-90.53 352.44,-96 353.87,-89.15"/>
</a>
</g>
</g>
<!-- Node2&#45;&gt;Node9 -->
<g id="edge9_Node000002_Node000009" class="edge">
<title>Node2&#45;&gt;Node9</title>
<g id="a_edge9_Node000002_Node000009"><a xlink:title=" ">
<path fill="none" stroke="#63b8ff" d="M1132.63,-146.01C999.46,-145.55 584.86,-140.37 245,-96 238.19,-95.11 231.04,-93.91 224.06,-92.58"/>
<polygon fill="#63b8ff" stroke="#63b8ff" points="224.48,-89.1 213.99,-90.57 223.11,-95.96 224.48,-89.1"/>
</a>
</g>
</g>
<!-- Node10 -->
<g id="Node000010" class="node">
<title>Node10</title>
<g id="a_Node000010"><a xlink:title=" ">
<polygon fill="#e0e0e0" stroke="#999999" points="1098,-90.5 958,-90.5 958,-71.5 1098,-71.5 1098,-90.5"/>
<text text-anchor="middle" x="1028" y="-78.5" font-family="Helvetica,sans-Serif" font-size="10.00">deal.II/dofs/dof_handler.h</text>
</a>
</g>
</g>
<!-- Node2&#45;&gt;Node10 -->
<g id="edge10_Node000002_Node000010" class="edge">
<title>Node2&#45;&gt;Node10</title>
<g id="a_edge10_Node000002_Node000010"><a xlink:title=" ">
<path fill="none" stroke="#63b8ff" d="M1156.04,-137.37C1130.66,-126.39 1086.64,-107.36 1057.41,-94.72"/>
<polygon fill="#63b8ff" stroke="#63b8ff" points="1058.68,-91.46 1048.12,-90.7 1055.91,-97.88 1058.68,-91.46"/>
</a>
</g>
</g>
<!-- Node11 -->
<g id="Node000011" class="node">
<title>Node11</title>
<g id="a_Node000011"><a xlink:title=" ">
<polygon fill="#e0e0e0" stroke="#999999" points="1235.5,-90.5 1116.5,-90.5 1116.5,-71.5 1235.5,-71.5 1235.5,-90.5"/>
<text text-anchor="middle" x="1176" y="-78.5" font-family="Helvetica,sans-Serif" font-size="10.00">deal.II/fe/fe_values.h</text>
</a>
</g>
</g>
<!-- Node2&#45;&gt;Node11 -->
<g id="edge11_Node000002_Node000011" class="edge">
<title>Node2&#45;&gt;Node11</title>
<g id="a_edge11_Node000002_Node000011"><a xlink:title=" ">
<path fill="none" stroke="#63b8ff" d="M1176,-137.37C1176,-128.16 1176,-113.29 1176,-101.27"/>
<polygon fill="#63b8ff" stroke="#63b8ff" points="1179.5,-100.91 1176,-90.91 1172.5,-100.91 1179.5,-100.91"/>
</a>
</g>
</g>
<!-- Node2&#45;&gt;Node12 -->
<g id="edge12_Node000002_Node000012" class="edge">
<title>Node2&#45;&gt;Node12</title>
<g id="a_edge12_Node000002_Node000012"><a xlink:title=" ">
<path fill="none" stroke="#63b8ff" d="M1132.66,-144.3C1029.17,-139.9 759.35,-126.38 523.91,-96.02"/>
<polygon fill="#63b8ff" stroke="#63b8ff" points="524.15,-92.52 513.79,-94.7 523.25,-99.46 524.15,-92.52"/>
</a>
</g>
</g>
<!-- Node13 -->
<g id="Node000013" class="node">
<title>Node13</title>
<g id="a_Node000013"><a xlink:title=" ">
<polygon fill="#e0e0e0" stroke="#999999" points="1358.5,-96 1253.5,-96 1253.5,-66 1358.5,-66 1358.5,-96"/>
<text text-anchor="start" x="1261.5" y="-84" font-family="Helvetica,sans-Serif" font-size="10.00">boost/archive/text</text>
<text text-anchor="middle" x="1306" y="-73" font-family="Helvetica,sans-Serif" font-size="10.00">_iarchive.hpp</text>
</a>
</g>
</g>
<!-- Node2&#45;&gt;Node13 -->
<g id="edge13_Node000002_Node000013" class="edge">
<title>Node2&#45;&gt;Node13</title>
<g id="a_edge13_Node000002_Node000013"><a xlink:title=" ">
<path fill="none" stroke="#63b8ff" d="M1193.53,-137.37C1212.58,-127.99 1243.6,-112.72 1268.23,-100.59"/>
<polygon fill="#63b8ff" stroke="#63b8ff" points="1269.9,-103.67 1277.33,-96.12 1266.81,-97.39 1269.9,-103.67"/>
</a>
</g>
</g>
<!-- Node14 -->
<g id="Node000014" class="node">
<title>Node14</title>
<g id="a_Node000014"><a xlink:title=" ">
<polygon fill="#e0e0e0" stroke="#999999" points="1481.5,-96 1376.5,-96 1376.5,-66 1481.5,-66 1481.5,-96"/>
<text text-anchor="start" x="1384.5" y="-84" font-family="Helvetica,sans-Serif" font-size="10.00">boost/archive/text</text>
<text text-anchor="middle" x="1429" y="-73" font-family="Helvetica,sans-Serif" font-size="10.00">_oarchive.hpp</text>
</a>
</g>
</g>
<!-- Node2&#45;&gt;Node14 -->
<g id="edge14_Node000002_Node000014" class="edge">
<title>Node2&#45;&gt;Node14</title>
<g id="a_edge14_Node000002_Node000014"><a xlink:title=" ">
<path fill="none" stroke="#63b8ff" d="M1209.86,-137.44C1249.79,-127.33 1316.99,-110.34 1366.47,-97.82"/>
<polygon fill="#63b8ff" stroke="#63b8ff" points="1367.59,-101.15 1376.43,-95.3 1365.87,-94.36 1367.59,-101.15"/>
</a>
</g>
</g>
<!-- Node15 -->
<g id="Node000015" class="node">
<title>Node15</title>
<g id="a_Node000015"><a xlink:title=" ">
<polygon fill="#e0e0e0" stroke="#999999" points="1610,-96 1500,-96 1500,-66 1610,-66 1610,-96"/>
<text text-anchor="start" x="1508" y="-84" font-family="Helvetica,sans-Serif" font-size="10.00">boost/math/special</text>
<text text-anchor="middle" x="1555" y="-73" font-family="Helvetica,sans-Serif" font-size="10.00">_functions/erf.hpp</text>
</a>
</g>
</g>
<!-- Node2&#45;&gt;Node15 -->
<g id="edge15_Node000002_Node000015" class="edge">
<title>Node2&#45;&gt;Node15</title>
<g id="a_edge15_Node000002_Node000015"><a xlink:title=" ">
<path fill="none" stroke="#63b8ff" d="M1208.43,-137.43C1216.43,-135.48 1224.99,-133.54 1233,-132 1343.59,-110.76 1375.31,-116.07 1490.02,-96.08"/>
<polygon fill="#63b8ff" stroke="#63b8ff" points="1490.66,-99.52 1499.9,-94.34 1489.44,-92.63 1490.66,-99.52"/>
</a>
</g>
</g>
<!-- Node16 -->
<g id="Node000016" class="node">
<title>Node16</title>
<g id="a_Node000016"><a xlink:title=" ">
<polygon fill="#e0e0e0" stroke="#999999" points="1683.5,-90.5 1628.5,-90.5 1628.5,-71.5 1683.5,-71.5 1683.5,-90.5"/>
<text text-anchor="middle" x="1656" y="-78.5" font-family="Helvetica,sans-Serif" font-size="10.00">fstream</text>
</a>
</g>
</g>
<!-- Node2&#45;&gt;Node16 -->
<g id="edge16_Node000002_Node000016" class="edge">
<title>Node2&#45;&gt;Node16</title>
<g id="a_edge16_Node000002_Node000016"><a xlink:title=" ">
<path fill="none" stroke="#63b8ff" d="M1207.19,-137.46C1215.52,-135.42 1224.56,-133.42 1233,-132 1402.91,-103.37 1451.13,-134.84 1619,-96 1621.52,-95.42 1624.09,-94.7 1626.66,-93.91"/>
<polygon fill="#63b8ff" stroke="#63b8ff" points="1628.03,-97.14 1636.33,-90.56 1625.74,-90.52 1628.03,-97.14"/>
</a>
</g>
</g>
<!-- Node17 -->
<g id="Node000017" class="node">
<title>Node17</title>
<g id="a_Node000017"><a xlink:title=" ">
<polygon fill="#e0e0e0" stroke="#999999" points="1740,-90.5 1702,-90.5 1702,-71.5 1740,-71.5 1740,-90.5"/>
<text text-anchor="middle" x="1721" y="-78.5" font-family="Helvetica,sans-Serif" font-size="10.00">map</text>
</a>
</g>
</g>
<!-- Node2&#45;&gt;Node17 -->
<g id="edge17_Node000002_Node000017" class="edge">
<title>Node2&#45;&gt;Node17</title>
<g id="a_edge17_Node000002_Node000017"><a xlink:title=" ">
<path fill="none" stroke="#63b8ff" d="M1206.87,-137.45C1215.29,-135.38 1224.45,-133.38 1233,-132 1435.47,-99.44 1495.41,-150.87 1693,-96 1694.44,-95.6 1695.89,-95.12 1697.34,-94.59"/>
<polygon fill="#63b8ff" stroke="#63b8ff" points="1698.86,-97.75 1706.61,-90.52 1696.04,-91.34 1698.86,-97.75"/>
</a>
</g>
</g>
<!-- Node18 -->
<g id="Node000018" class="node">
<title>Node18</title>
<g id="a_Node000018"><a xlink:title=" ">
<polygon fill="#e0e0e0" stroke="#999999" points="1802,-90.5 1758,-90.5 1758,-71.5 1802,-71.5 1802,-90.5"/>
<text text-anchor="middle" x="1780" y="-78.5" font-family="Helvetica,sans-Serif" font-size="10.00">regex</text>
</a>
</g>
</g>
<!-- Node2&#45;&gt;Node18 -->
<g id="edge18_Node000002_Node000018" class="edge">
<title>Node2&#45;&gt;Node18</title>
<g id="a_edge18_Node000002_Node000018"><a xlink:title=" ">
<path fill="none" stroke="#63b8ff" d="M1206.57,-137.47C1215.07,-135.38 1224.34,-133.36 1233,-132 1460.13,-96.45 1526.08,-152.19 1749,-96 1750.73,-95.56 1752.49,-95.03 1754.24,-94.44"/>
<polygon fill="#63b8ff" stroke="#63b8ff" points="1756,-97.5 1763.98,-90.53 1753.4,-91.01 1756,-97.5"/>
</a>
</g>
</g>
<!-- Node19 -->
<g id="Node000019" class="node">
<title>Node19</title>
<g id="a_Node000019"><a xlink:title=" ">
<polygon fill="#e0e0e0" stroke="#999999" points="1864,-90.5 1820,-90.5 1820,-71.5 1864,-71.5 1864,-90.5"/>
<text text-anchor="middle" x="1842" y="-78.5" font-family="Helvetica,sans-Serif" font-size="10.00">string</text>
</a>
</g>
</g>
<!-- Node2&#45;&gt;Node19 -->
<g id="edge19_Node000002_Node000019" class="edge">
<title>Node2&#45;&gt;Node19</title>
<g id="a_edge19_Node000002_Node000019"><a xlink:title=" ">
<path fill="none" stroke="#63b8ff" d="M1206.56,-137.43C1215.06,-135.34 1224.34,-133.32 1233,-132 1487.44,-93.15 1561.19,-157.98 1811,-96 1812.73,-95.57 1814.49,-95.05 1816.24,-94.46"/>
<polygon fill="#63b8ff" stroke="#63b8ff" points="1818,-97.52 1825.99,-90.56 1815.4,-91.02 1818,-97.52"/>
</a>
</g>
</g>
<!-- Node20 -->
<g id="Node000020" class="node">
<title>Node20</title>
<g id="a_Node000020"><a xlink:title=" ">
<polygon fill="#e0e0e0" stroke="#999999" points="1923.5,-90.5 1882.5,-90.5 1882.5,-71.5 1923.5,-71.5 1923.5,-90.5"/>
<text text-anchor="middle" x="1903" y="-78.5" font-family="Helvetica,sans-Serif" font-size="10.00">tuple</text>
</a>
</g>
</g>
<!-- Node2&#45;&gt;Node20 -->
<g id="edge20_Node000002_Node000020" class="edge">
<title>Node2&#45;&gt;Node20</title>
<g id="a_edge20_Node000002_Node000020"><a xlink:title=" ">
<path fill="none" stroke="#63b8ff" d="M1206.26,-137.47C1214.84,-135.35 1224.23,-133.31 1233,-132 1514.76,-89.84 1596.71,-165.49 1873,-96 1874.69,-95.58 1876.39,-95.06 1878.09,-94.47"/>
<polygon fill="#63b8ff" stroke="#63b8ff" points="1879.62,-97.63 1887.53,-90.58 1876.96,-91.15 1879.62,-97.63"/>
</a>
</g>
</g>
<!-- Node2&#45;&gt;Node21 -->
<g id="edge21_Node000002_Node000021" class="edge">
<title>Node2&#45;&gt;Node21</title>
<g id="a_edge21_Node000002_Node000021"><a xlink:title=" ">
<path fill="none" stroke="#63b8ff" d="M1205.96,-137.5C1214.62,-135.35 1224.13,-133.3 1233,-132 1555.75,-84.88 1646.4,-161.13 1966,-96 1968.84,-95.42 1971.75,-94.66 1974.64,-93.8"/>
<polygon fill="#63b8ff" stroke="#63b8ff" points="1975.86,-97.09 1984.22,-90.58 1973.62,-90.45 1975.86,-97.09"/>
</a>
</g>
</g>
<!-- Node3&#45;&gt;Node4 -->
<g id="edge3_Node000003_Node000004" class="edge">
<title>Node3&#45;&gt;Node4</title>
<g id="a_edge3_Node000003_Node000004"><a xlink:title=" ">
<path fill="none" stroke="#63b8ff" d="M624.81,-71.48C634.56,-69.42 645.14,-67.4 655,-66 881.85,-33.74 1154.48,-21.67 1273.48,-17.71"/>
<polygon fill="#63b8ff" stroke="#63b8ff" points="1273.61,-21.2 1283.49,-17.38 1273.38,-14.21 1273.61,-21.2"/>
</a>
</g>
</g>
<!-- Node5 -->
<g id="Node000005" class="node">
<title>Node5</title>
<g id="a_Node000005"><a xlink:title=" ">
<polygon fill="#e0e0e0" stroke="#999999" points="648.5,-30 529.5,-30 529.5,0 648.5,0 648.5,-30"/>
<text text-anchor="start" x="537.5" y="-18" font-family="Helvetica,sans-Serif" font-size="10.00">deal.II/numerics/data</text>
<text text-anchor="middle" x="589" y="-7" font-family="Helvetica,sans-Serif" font-size="10.00">_postprocessor.h</text>
</a>
</g>
</g>
<!-- Node3&#45;&gt;Node5 -->
<g id="edge4_Node000003_Node000005" class="edge">
<title>Node3&#45;&gt;Node5</title>
<g id="a_edge4_Node000003_Node000005"><a xlink:title=" ">
<path fill="none" stroke="#63b8ff" d="M589,-71.37C589,-63.49 589,-51.45 589,-40.6"/>
<polygon fill="#63b8ff" stroke="#63b8ff" points="592.5,-40.36 589,-30.36 585.5,-40.36 592.5,-40.36"/>
</a>
</g>
</g>
<!-- Node22&#45;&gt;Node8 -->
<g id="edge23_Node000022_Node000008" class="edge">
<title>Node22&#45;&gt;Node8</title>
<g id="a_edge23_Node000022_Node000008"><a xlink:title=" ">
<path fill="none" stroke="#63b8ff" d="M209.09,-131.95C231.04,-120.98 261.33,-105.83 282.79,-95.11"/>
<polygon fill="#63b8ff" stroke="#63b8ff" points="284.59,-98.12 291.97,-90.52 281.46,-91.86 284.59,-98.12"/>
</a>
</g>
</g>
<!-- Node22&#45;&gt;Node9 -->
<g id="edge24_Node000022_Node000009" class="edge">
<title>Node22&#45;&gt;Node9</title>
<g id="a_edge24_Node000022_Node000009"><a xlink:title=" ">
<path fill="none" stroke="#63b8ff" d="M180.33,-131.8C179.91,-122.7 179.35,-110.79 178.89,-100.9"/>
<polygon fill="#63b8ff" stroke="#63b8ff" points="182.38,-100.67 178.41,-90.84 175.39,-101 182.38,-100.67"/>
</a>
</g>
</g>
<!-- Node22&#45;&gt;Node23 -->
<g id="edge25_Node000022_Node000023" class="edge">
<title>Node22&#45;&gt;Node23</title>
<g id="a_edge25_Node000022_Node000023"><a xlink:title=" ">
<path fill="none" stroke="#63b8ff" d="M152.47,-131.95C133.67,-122.7 108.86,-110.49 88.48,-100.45"/>
<polygon fill="#63b8ff" stroke="#63b8ff" points="89.98,-97.29 79.46,-96.01 86.89,-103.57 89.98,-97.29"/>
</a>
</g>
</g>
<!-- Node24&#45;&gt;Node8 -->
<g id="edge27_Node000024_Node000008" class="edge">
<title>Node24&#45;&gt;Node8</title>
<g id="a_edge27_Node000024_Node000008"><a xlink:title=" ">
<path fill="none" stroke="#63b8ff" d="M355.72,-137.37C347.39,-127.5 333.56,-111.11 323.11,-98.72"/>
<polygon fill="#63b8ff" stroke="#63b8ff" points="325.64,-96.29 316.51,-90.91 320.29,-100.81 325.64,-96.29"/>
</a>
</g>
</g>
<!-- Node24&#45;&gt;Node9 -->
<g id="edge28_Node000024_Node000009" class="edge">
<title>Node24&#45;&gt;Node9</title>
<g id="a_edge28_Node000024_Node000009"><a xlink:title=" ">
<path fill="none" stroke="#63b8ff" d="M338.05,-137.37C305.69,-126.17 249.06,-106.58 212.57,-93.96"/>
<polygon fill="#63b8ff" stroke="#63b8ff" points="213.44,-90.56 202.85,-90.6 211.16,-97.17 213.44,-90.56"/>
</a>
</g>
</g>
<!-- Node24&#45;&gt;Node12 -->
<g id="edge29_Node000024_Node000012" class="edge">
<title>Node24&#45;&gt;Node12</title>
<g id="a_edge29_Node000024_Node000012"><a xlink:title=" ">
<path fill="none" stroke="#63b8ff" d="M374.46,-137.37C386.32,-128.44 405.25,-114.19 420.94,-102.38"/>
<polygon fill="#63b8ff" stroke="#63b8ff" points="423.37,-104.93 429.25,-96.12 419.16,-99.33 423.37,-104.93"/>
</a>
</g>
</g>
</g>
</svg>
