<?xml version="1.0" encoding="UTF-8" standalone="no"?>
<!DOCTYPE svg PUBLIC "-//W3C//DTD SVG 1.1//EN"
 "http://www.w3.org/Graphics/SVG/1.1/DTD/svg11.dtd">
<!-- Generated by graphviz version 2.43.0 (0)
 -->
<!-- Title: /home/runner/work/lethe/lethe/include/dem/data_containers.h Pages: 1 -->
<svg width="1844pt" height="247pt"
 viewBox="0.00 0.00 1843.50 247.00" xmlns="http://www.w3.org/2000/svg" xmlns:xlink="http://www.w3.org/1999/xlink">
<g id="graph0" class="graph" transform="scale(1 1) rotate(0) translate(4 243)">
<title>/home/runner/work/lethe/lethe/include/dem/data_containers.h</title>
<!-- Node1 -->
<g id="Node000001" class="node">
<title>Node1</title>
<g id="a_Node000001"><a xlink:title=" ">
<polygon fill="#999999" stroke="#666666" points="516.5,-239 379.5,-239 379.5,-198 516.5,-198 516.5,-239"/>
<text text-anchor="start" x="387.5" y="-227" font-family="Helvetica,sans-Serif" font-size="10.00">/home/runner/work/lethe</text>
<text text-anchor="start" x="387.5" y="-216" font-family="Helvetica,sans-Serif" font-size="10.00">/lethe/include/dem/data</text>
<text text-anchor="middle" x="448" y="-205" font-family="Helvetica,sans-Serif" font-size="10.00">_containers.h</text>
</a>
</g>
</g>
<!-- Node2 -->
<g id="Node000002" class="node">
<title>Node2</title>
<g id="a_Node000002"><a xlink:href="core_2utilities_8h.html" target="_top" xlink:title=" ">
<polygon fill="white" stroke="#666666" points="1068,-156.5 982,-156.5 982,-137.5 1068,-137.5 1068,-156.5"/>
<text text-anchor="middle" x="1025" y="-144.5" font-family="Helvetica,sans-Serif" font-size="10.00">core/utilities.h</text>
</a>
</g>
</g>
<!-- Node1&#45;&gt;Node2 -->
<g id="edge1_Node000001_Node000002" class="edge">
<title>Node1&#45;&gt;Node2</title>
<g id="a_edge1_Node000001_Node000002"><a xlink:title=" ">
<path fill="none" stroke="#63b8ff" d="M516.74,-209.22C633.14,-195.2 866.61,-167.08 971.65,-154.43"/>
<polygon fill="#63b8ff" stroke="#63b8ff" points="972.2,-157.89 981.71,-153.21 971.36,-150.94 972.2,-157.89"/>
</a>
</g>
</g>
<!-- Node9 -->
<g id="Node000009" class="node">
<title>Node9</title>
<g id="a_Node000009"><a xlink:title=" ">
<polygon fill="#e0e0e0" stroke="#999999" points="235.5,-90.5 120.5,-90.5 120.5,-71.5 235.5,-71.5 235.5,-90.5"/>
<text text-anchor="middle" x="178" y="-78.5" font-family="Helvetica,sans-Serif" font-size="10.00">deal.II/base/tensor.h</text>
</a>
</g>
</g>
<!-- Node1&#45;&gt;Node9 -->
<g id="edge28_Node000001_Node000009" class="edge">
<title>Node1&#45;&gt;Node9</title>
<g id="a_edge28_Node000001_Node000009"><a xlink:title=" ">
<path fill="none" stroke="#63b8ff" d="M385.76,-197.87C358.52,-188.39 326.56,-176.01 299,-162 261.15,-142.75 220.67,-114.16 197.44,-96.87"/>
<polygon fill="#63b8ff" stroke="#63b8ff" points="199.24,-93.85 189.15,-90.64 195.04,-99.45 199.24,-93.85"/>
</a>
</g>
</g>
<!-- Node12 -->
<g id="Node000012" class="node">
<title>Node12</title>
<g id="a_Node000012"><a xlink:title=" ">
<polygon fill="#e0e0e0" stroke="#999999" points="513.5,-96 382.5,-96 382.5,-66 513.5,-66 513.5,-96"/>
<text text-anchor="start" x="390.5" y="-84" font-family="Helvetica,sans-Serif" font-size="10.00">deal.II/particles/particle</text>
<text text-anchor="middle" x="448" y="-73" font-family="Helvetica,sans-Serif" font-size="10.00">_iterator.h</text>
</a>
</g>
</g>
<!-- Node1&#45;&gt;Node12 -->
<g id="edge30_Node000001_Node000012" class="edge">
<title>Node1&#45;&gt;Node12</title>
<g id="a_edge30_Node000001_Node000012"><a xlink:title=" ">
<path fill="none" stroke="#63b8ff" d="M448,-197.8C448,-173.65 448,-132.72 448,-106.55"/>
<polygon fill="#63b8ff" stroke="#63b8ff" points="451.5,-106.33 448,-96.33 444.5,-106.33 451.5,-106.33"/>
</a>
</g>
</g>
<!-- Node19 -->
<g id="Node000019" class="node">
<title>Node19</title>
<g id="a_Node000019"><a xlink:title=" ">
<polygon fill="#e0e0e0" stroke="#999999" points="1835.5,-90.5 1788.5,-90.5 1788.5,-71.5 1835.5,-71.5 1835.5,-90.5"/>
<text text-anchor="middle" x="1812" y="-78.5" font-family="Helvetica,sans-Serif" font-size="10.00">vector</text>
</a>
</g>
</g>
<!-- Node1&#45;&gt;Node19 -->
<g id="edge32_Node000001_Node000019" class="edge">
<title>Node1&#45;&gt;Node19</title>
<g id="a_edge32_Node000001_Node000019"><a xlink:title=" ">
<path fill="none" stroke="#63b8ff" d="M516.53,-216.27C657.74,-212.97 976.33,-201.26 1077,-162 1097.37,-154.05 1095.5,-139.6 1116,-132 1254.35,-80.72 1635.26,-129.31 1779,-96 1781.17,-95.5 1783.37,-94.86 1785.56,-94.14"/>
<polygon fill="#63b8ff" stroke="#63b8ff" points="1786.81,-97.41 1794.91,-90.58 1784.32,-90.87 1786.81,-97.41"/>
</a>
</g>
</g>
<!-- Node20 -->
<g id="Node000020" class="node">
<title>Node20</title>
<g id="a_Node000020"><a xlink:href="boundary__cells__info__struct_8h.html" target="_top" xlink:title=" ">
<polygon fill="white" stroke="#666666" points="238.5,-162 123.5,-162 123.5,-132 238.5,-132 238.5,-162"/>
<text text-anchor="start" x="131.5" y="-150" font-family="Helvetica,sans-Serif" font-size="10.00">dem/boundary_cells</text>
<text text-anchor="middle" x="181" y="-139" font-family="Helvetica,sans-Serif" font-size="10.00">_info_struct.h</text>
</a>
</g>
</g>
<!-- Node1&#45;&gt;Node20 -->
<g id="edge20_Node000001_Node000020" class="edge">
<title>Node1&#45;&gt;Node20</title>
<g id="a_edge20_Node000001_Node000020"><a xlink:title=" ">
<path fill="none" stroke="#63b8ff" d="M379.24,-199.6C337.7,-188.79 285.13,-175.11 244.56,-164.55"/>
<polygon fill="#63b8ff" stroke="#63b8ff" points="245.35,-161.13 234.79,-162 243.58,-167.91 245.35,-161.13"/>
</a>
</g>
</g>
<!-- Node21 -->
<g id="Node000021" class="node">
<title>Node21</title>
<g id="a_Node000021"><a xlink:title=" ">
<polygon fill="#e0e0e0" stroke="#999999" points="102,-96 0,-96 0,-66 102,-66 102,-96"/>
<text text-anchor="start" x="8" y="-84" font-family="Helvetica,sans-Serif" font-size="10.00">deal.II/distributed</text>
<text text-anchor="middle" x="51" y="-73" font-family="Helvetica,sans-Serif" font-size="10.00">/tria.h</text>
</a>
</g>
</g>
<!-- Node1&#45;&gt;Node21 -->
<g id="edge29_Node000001_Node000021" class="edge">
<title>Node1&#45;&gt;Node21</title>
<g id="a_edge29_Node000001_Node000021"><a xlink:title=" ">
<path fill="none" stroke="#63b8ff" d="M379.24,-211.94C294.91,-204.13 157.76,-187.89 114,-162 91.33,-148.59 73.7,-123.68 62.93,-105.21"/>
<polygon fill="#63b8ff" stroke="#63b8ff" points="65.85,-103.26 57.93,-96.23 59.74,-106.67 65.85,-103.26"/>
</a>
</g>
</g>
<!-- Node22 -->
<g id="Node000022" class="node">
<title>Node22</title>
<g id="a_Node000022"><a xlink:href="contact__info_8h.html" target="_top" xlink:title=" ">
<polygon fill="white" stroke="#666666" points="418,-156.5 308,-156.5 308,-137.5 418,-137.5 418,-156.5"/>
<text text-anchor="middle" x="363" y="-144.5" font-family="Helvetica,sans-Serif" font-size="10.00">dem/contact_info.h</text>
</a>
</g>
</g>
<!-- Node1&#45;&gt;Node22 -->
<g id="edge24_Node000001_Node000022" class="edge">
<title>Node1&#45;&gt;Node22</title>
<g id="a_edge24_Node000001_Node000022"><a xlink:title=" ">
<path fill="none" stroke="#63b8ff" d="M423.87,-197.77C410.47,-186.81 394.05,-173.39 381.65,-163.25"/>
<polygon fill="#63b8ff" stroke="#63b8ff" points="383.74,-160.44 373.79,-156.82 379.31,-165.86 383.74,-160.44"/>
</a>
</g>
</g>
<!-- Node23 -->
<g id="Node000023" class="node">
<title>Node23</title>
<g id="a_Node000023"><a xlink:title=" ">
<polygon fill="#e0e0e0" stroke="#999999" points="1217.5,-156.5 1124.5,-156.5 1124.5,-137.5 1217.5,-137.5 1217.5,-156.5"/>
<text text-anchor="middle" x="1171" y="-144.5" font-family="Helvetica,sans-Serif" font-size="10.00">unordered_map</text>
</a>
</g>
</g>
<!-- Node1&#45;&gt;Node23 -->
<g id="edge31_Node000001_Node000023" class="edge">
<title>Node1&#45;&gt;Node23</title>
<g id="a_edge31_Node000001_Node000023"><a xlink:title=" ">
<path fill="none" stroke="#63b8ff" d="M516.52,-214.96C637.12,-209.79 894.9,-195.53 1110,-162 1115.78,-161.1 1121.82,-159.96 1127.76,-158.72"/>
<polygon fill="#63b8ff" stroke="#63b8ff" points="1128.59,-162.12 1137.61,-156.56 1127.09,-155.28 1128.59,-162.12"/>
</a>
</g>
</g>
<!-- Node24 -->
<g id="Node000024" class="node">
<title>Node24</title>
<g id="a_Node000024"><a xlink:href="unordered__dense_8h.html" target="_top" xlink:title=" ">
<polygon fill="white" stroke="#666666" points="1378.5,-156.5 1235.5,-156.5 1235.5,-137.5 1378.5,-137.5 1378.5,-156.5"/>
<text text-anchor="middle" x="1307" y="-144.5" font-family="Helvetica,sans-Serif" font-size="10.00">ankerl/unordered_dense.h</text>
</a>
</g>
</g>
<!-- Node1&#45;&gt;Node24 -->
<g id="edge33_Node000001_Node000024" class="edge">
<title>Node1&#45;&gt;Node24</title>
<g id="a_edge33_Node000001_Node000024"><a xlink:title=" ">
<path fill="none" stroke="#63b8ff" d="M516.74,-214.96C652.77,-209.42 965.76,-194.08 1227,-162 1235.45,-160.96 1244.36,-159.64 1253.05,-158.21"/>
<polygon fill="#63b8ff" stroke="#63b8ff" points="1253.83,-161.63 1263.11,-156.51 1252.66,-154.73 1253.83,-161.63"/>
</a>
</g>
</g>
<!-- Node3 -->
<g id="Node000003" class="node">
<title>Node3</title>
<g id="a_Node000003"><a xlink:href="output__struct_8h.html" target="_top" xlink:title=" ">
<polygon fill="white" stroke="#666666" points="1622,-90.5 1508,-90.5 1508,-71.5 1622,-71.5 1622,-90.5"/>
<text text-anchor="middle" x="1565" y="-78.5" font-family="Helvetica,sans-Serif" font-size="10.00">core/output_struct.h</text>
</a>
</g>
</g>
<!-- Node2&#45;&gt;Node3 -->
<g id="edge2_Node000002_Node000003" class="edge">
<title>Node2&#45;&gt;Node3</title>
<g id="a_edge2_Node000002_Node000003"><a xlink:title=" ">
<path fill="none" stroke="#63b8ff" d="M1055.88,-137.5C1064.3,-135.43 1073.45,-133.41 1082,-132 1263.34,-101.99 1312.01,-121.82 1494,-96 1501.1,-94.99 1508.56,-93.74 1515.87,-92.4"/>
<polygon fill="#63b8ff" stroke="#63b8ff" points="1516.52,-95.84 1525.7,-90.53 1515.22,-88.96 1516.52,-95.84"/>
</a>
</g>
</g>
<!-- Node4 -->
<g id="Node000004" class="node">
<title>Node4</title>
<g id="a_Node000004"><a xlink:title=" ">
<polygon fill="#e0e0e0" stroke="#999999" points="1530.5,-30 1429.5,-30 1429.5,0 1530.5,0 1530.5,-30"/>
<text text-anchor="start" x="1437.5" y="-18" font-family="Helvetica,sans-Serif" font-size="10.00">deal.II/base/table</text>
<text text-anchor="middle" x="1480" y="-7" font-family="Helvetica,sans-Serif" font-size="10.00">_handler.h</text>
</a>
</g>
</g>
<!-- Node2&#45;&gt;Node4 -->
<g id="edge8_Node000002_Node000004" class="edge">
<title>Node2&#45;&gt;Node4</title>
<g id="a_edge8_Node000002_Node000004"><a xlink:title=" ">
<path fill="none" stroke="#63b8ff" d="M1056.19,-137.47C1064.52,-135.43 1073.56,-133.43 1082,-132 1165.41,-117.87 1397.18,-151.54 1461,-96 1476.68,-82.35 1480.67,-58.35 1481.19,-40.19"/>
<polygon fill="#63b8ff" stroke="#63b8ff" points="1484.69,-40.02 1481.16,-30.03 1477.69,-40.05 1484.69,-40.02"/>
</a>
</g>
</g>
<!-- Node6 -->
<g id="Node000006" class="node">
<title>Node6</title>
<g id="a_Node000006"><a xlink:title=" ">
<polygon fill="#e0e0e0" stroke="#999999" points="1770,-96 1640,-96 1640,-66 1770,-66 1770,-96"/>
<text text-anchor="start" x="1648" y="-84" font-family="Helvetica,sans-Serif" font-size="10.00">deal.II/base/conditional</text>
<text text-anchor="middle" x="1705" y="-73" font-family="Helvetica,sans-Serif" font-size="10.00">_ostream.h</text>
</a>
</g>
</g>
<!-- Node2&#45;&gt;Node6 -->
<g id="edge5_Node000002_Node000006" class="edge">
<title>Node2&#45;&gt;Node6</title>
<g id="a_edge5_Node000002_Node000006"><a xlink:title=" ">
<path fill="none" stroke="#63b8ff" d="M1055.57,-137.45C1064.06,-135.36 1073.34,-133.34 1082,-132 1320.36,-95.2 1386.62,-125.92 1629.5,-96.08"/>
<polygon fill="#63b8ff" stroke="#63b8ff" points="1630.21,-99.51 1639.7,-94.8 1629.34,-92.57 1630.21,-99.51"/>
</a>
</g>
</g>
<!-- Node7 -->
<g id="Node000007" class="node">
<title>Node7</title>
<g id="a_Node000007"><a xlink:title=" ">
<polygon fill="#e0e0e0" stroke="#999999" points="658.5,-96 531.5,-96 531.5,-66 658.5,-66 658.5,-96"/>
<text text-anchor="start" x="539.5" y="-84" font-family="Helvetica,sans-Serif" font-size="10.00">deal.II/base/parameter</text>
<text text-anchor="middle" x="595" y="-73" font-family="Helvetica,sans-Serif" font-size="10.00">_handler.h</text>
</a>
</g>
</g>
<!-- Node2&#45;&gt;Node7 -->
<g id="edge6_Node000002_Node000007" class="edge">
<title>Node2&#45;&gt;Node7</title>
<g id="a_edge6_Node000002_Node000007"><a xlink:title=" ">
<path fill="none" stroke="#63b8ff" d="M981.75,-140.66C916.34,-132.42 788.09,-115.66 668.71,-96.06"/>
<polygon fill="#63b8ff" stroke="#63b8ff" points="669.1,-92.58 658.67,-94.41 667.96,-99.49 669.1,-92.58"/>
</a>
</g>
</g>
<!-- Node8 -->
<g id="Node000008" class="node">
<title>Node8</title>
<g id="a_Node000008"><a xlink:title=" ">
<polygon fill="#e0e0e0" stroke="#999999" points="364,-90.5 254,-90.5 254,-71.5 364,-71.5 364,-90.5"/>
<text text-anchor="middle" x="309" y="-78.5" font-family="Helvetica,sans-Serif" font-size="10.00">deal.II/base/point.h</text>
</a>
</g>
</g>
<!-- Node2&#45;&gt;Node8 -->
<g id="edge7_Node000002_Node000008" class="edge">
<title>Node2&#45;&gt;Node8</title>
<g id="a_edge7_Node000002_Node000008"><a xlink:title=" ">
<path fill="none" stroke="#63b8ff" d="M981.66,-144.75C876.71,-141.29 600.73,-129.47 373,-96 366.72,-95.08 360.14,-93.89 353.69,-92.6"/>
<polygon fill="#63b8ff" stroke="#63b8ff" points="354.22,-89.14 343.72,-90.51 352.79,-95.99 354.22,-89.14"/>
</a>
</g>
</g>
<!-- Node2&#45;&gt;Node9 -->
<g id="edge9_Node000002_Node000009" class="edge">
<title>Node2&#45;&gt;Node9</title>
<g id="a_edge9_Node000002_Node000009"><a xlink:title=" ">
<path fill="none" stroke="#63b8ff" d="M981.66,-145.38C863.17,-143.21 524,-133.9 245,-96 238.2,-95.08 231.05,-93.86 224.06,-92.52"/>
<polygon fill="#63b8ff" stroke="#63b8ff" points="224.49,-89.04 214,-90.5 223.12,-95.9 224.49,-89.04"/>
</a>
</g>
</g>
<!-- Node10 -->
<g id="Node000010" class="node">
<title>Node10</title>
<g id="a_Node000010"><a xlink:title=" ">
<polygon fill="#e0e0e0" stroke="#999999" points="817,-90.5 677,-90.5 677,-71.5 817,-71.5 817,-90.5"/>
<text text-anchor="middle" x="747" y="-78.5" font-family="Helvetica,sans-Serif" font-size="10.00">deal.II/dofs/dof_handler.h</text>
</a>
</g>
</g>
<!-- Node2&#45;&gt;Node10 -->
<g id="edge10_Node000002_Node000010" class="edge">
<title>Node2&#45;&gt;Node10</title>
<g id="a_edge10_Node000002_Node000010"><a xlink:title=" ">
<path fill="none" stroke="#63b8ff" d="M987.8,-137.44C937.65,-125.89 848.39,-105.34 793.76,-92.77"/>
<polygon fill="#63b8ff" stroke="#63b8ff" points="794.51,-89.35 783.98,-90.51 792.94,-96.17 794.51,-89.35"/>
</a>
</g>
</g>
<!-- Node11 -->
<g id="Node000011" class="node">
<title>Node11</title>
<g id="a_Node000011"><a xlink:title=" ">
<polygon fill="#e0e0e0" stroke="#999999" points="954.5,-90.5 835.5,-90.5 835.5,-71.5 954.5,-71.5 954.5,-90.5"/>
<text text-anchor="middle" x="895" y="-78.5" font-family="Helvetica,sans-Serif" font-size="10.00">deal.II/fe/fe_values.h</text>
</a>
</g>
</g>
<!-- Node2&#45;&gt;Node11 -->
<g id="edge11_Node000002_Node000011" class="edge">
<title>Node2&#45;&gt;Node11</title>
<g id="a_edge11_Node000002_Node000011"><a xlink:title=" ">
<path fill="none" stroke="#63b8ff" d="M1007.47,-137.37C985.47,-126.54 947.51,-107.85 921.85,-95.22"/>
<polygon fill="#63b8ff" stroke="#63b8ff" points="923.19,-91.98 912.67,-90.7 920.1,-98.26 923.19,-91.98"/>
</a>
</g>
</g>
<!-- Node2&#45;&gt;Node12 -->
<g id="edge12_Node000002_Node000012" class="edge">
<title>Node2&#45;&gt;Node12</title>
<g id="a_edge12_Node000002_Node000012"><a xlink:title=" ">
<path fill="none" stroke="#63b8ff" d="M981.78,-142.99C896.19,-136.75 698.88,-120.99 523.63,-96.16"/>
<polygon fill="#63b8ff" stroke="#63b8ff" points="524.11,-92.69 513.72,-94.74 523.12,-99.62 524.11,-92.69"/>
</a>
</g>
</g>
<!-- Node13 -->
<g id="Node000013" class="node">
<title>Node13</title>
<g id="a_Node000013"><a xlink:title=" ">
<polygon fill="#e0e0e0" stroke="#999999" points="1077.5,-96 972.5,-96 972.5,-66 1077.5,-66 1077.5,-96"/>
<text text-anchor="start" x="980.5" y="-84" font-family="Helvetica,sans-Serif" font-size="10.00">boost/archive/text</text>
<text text-anchor="middle" x="1025" y="-73" font-family="Helvetica,sans-Serif" font-size="10.00">_iarchive.hpp</text>
</a>
</g>
</g>
<!-- Node2&#45;&gt;Node13 -->
<g id="edge13_Node000002_Node000013" class="edge">
<title>Node2&#45;&gt;Node13</title>
<g id="a_edge13_Node000002_Node000013"><a xlink:title=" ">
<path fill="none" stroke="#63b8ff" d="M1025,-137.37C1025,-129.49 1025,-117.45 1025,-106.6"/>
<polygon fill="#63b8ff" stroke="#63b8ff" points="1028.5,-106.36 1025,-96.36 1021.5,-106.36 1028.5,-106.36"/>
</a>
</g>
</g>
<!-- Node14 -->
<g id="Node000014" class="node">
<title>Node14</title>
<g id="a_Node000014"><a xlink:title=" ">
<polygon fill="#e0e0e0" stroke="#999999" points="1200.5,-96 1095.5,-96 1095.5,-66 1200.5,-66 1200.5,-96"/>
<text text-anchor="start" x="1103.5" y="-84" font-family="Helvetica,sans-Serif" font-size="10.00">boost/archive/text</text>
<text text-anchor="middle" x="1148" y="-73" font-family="Helvetica,sans-Serif" font-size="10.00">_oarchive.hpp</text>
</a>
</g>
</g>
<!-- Node2&#45;&gt;Node14 -->
<g id="edge14_Node000002_Node000014" class="edge">
<title>Node2&#45;&gt;Node14</title>
<g id="a_edge14_Node000002_Node000014"><a xlink:title=" ">
<path fill="none" stroke="#63b8ff" d="M1041.59,-137.37C1059.53,-128.03 1088.7,-112.86 1111.96,-100.75"/>
<polygon fill="#63b8ff" stroke="#63b8ff" points="1113.62,-103.84 1120.87,-96.12 1110.38,-97.63 1113.62,-103.84"/>
</a>
</g>
</g>
<!-- Node15 -->
<g id="Node000015" class="node">
<title>Node15</title>
<g id="a_Node000015"><a xlink:title=" ">
<polygon fill="#e0e0e0" stroke="#999999" points="1273.5,-90.5 1218.5,-90.5 1218.5,-71.5 1273.5,-71.5 1273.5,-90.5"/>
<text text-anchor="middle" x="1246" y="-78.5" font-family="Helvetica,sans-Serif" font-size="10.00">fstream</text>
</a>
</g>
</g>
<!-- Node2&#45;&gt;Node15 -->
<g id="edge15_Node000002_Node000015" class="edge">
<title>Node2&#45;&gt;Node15</title>
<g id="a_edge15_Node000002_Node000015"><a xlink:title=" ">
<path fill="none" stroke="#63b8ff" d="M1058.22,-137.48C1103.42,-125.8 1181.87,-105.24 1210,-96 1211.86,-95.39 1213.77,-94.73 1215.69,-94.05"/>
<polygon fill="#63b8ff" stroke="#63b8ff" points="1217.04,-97.28 1225.2,-90.53 1214.6,-90.72 1217.04,-97.28"/>
</a>
</g>
</g>
<!-- Node16 -->
<g id="Node000016" class="node">
<title>Node16</title>
<g id="a_Node000016"><a xlink:title=" ">
<polygon fill="#e0e0e0" stroke="#999999" points="1330,-90.5 1292,-90.5 1292,-71.5 1330,-71.5 1330,-90.5"/>
<text text-anchor="middle" x="1311" y="-78.5" font-family="Helvetica,sans-Serif" font-size="10.00">map</text>
</a>
</g>
</g>
<!-- Node2&#45;&gt;Node16 -->
<g id="edge16_Node000002_Node000016" class="edge">
<title>Node2&#45;&gt;Node16</title>
<g id="a_edge16_Node000002_Node000016"><a xlink:title=" ">
<path fill="none" stroke="#63b8ff" d="M1058.07,-137.5C1065.9,-135.59 1074.22,-133.65 1082,-132 1170.78,-113.17 1196.86,-124.59 1283,-96 1284.22,-95.6 1285.45,-95.15 1286.68,-94.66"/>
<polygon fill="#63b8ff" stroke="#63b8ff" points="1288.24,-97.8 1295.93,-90.52 1285.38,-91.42 1288.24,-97.8"/>
</a>
</g>
</g>
<!-- Node17 -->
<g id="Node000017" class="node">
<title>Node17</title>
<g id="a_Node000017"><a xlink:title=" ">
<polygon fill="#e0e0e0" stroke="#999999" points="1392,-90.5 1348,-90.5 1348,-71.5 1392,-71.5 1392,-90.5"/>
<text text-anchor="middle" x="1370" y="-78.5" font-family="Helvetica,sans-Serif" font-size="10.00">string</text>
</a>
</g>
</g>
<!-- Node2&#45;&gt;Node17 -->
<g id="edge17_Node000002_Node000017" class="edge">
<title>Node2&#45;&gt;Node17</title>
<g id="a_edge17_Node000002_Node000017"><a xlink:title=" ">
<path fill="none" stroke="#63b8ff" d="M1057.43,-137.43C1065.43,-135.48 1073.99,-133.54 1082,-132 1195.26,-110.22 1228.21,-128.06 1339,-96 1340.64,-95.53 1342.3,-94.98 1343.96,-94.39"/>
<polygon fill="#63b8ff" stroke="#63b8ff" points="1345.33,-97.61 1353.28,-90.6 1342.69,-91.12 1345.33,-97.61"/>
</a>
</g>
</g>
<!-- Node18 -->
<g id="Node000018" class="node">
<title>Node18</title>
<g id="a_Node000018"><a xlink:title=" ">
<polygon fill="#e0e0e0" stroke="#999999" points="1451.5,-90.5 1410.5,-90.5 1410.5,-71.5 1451.5,-71.5 1451.5,-90.5"/>
<text text-anchor="middle" x="1431" y="-78.5" font-family="Helvetica,sans-Serif" font-size="10.00">tuple</text>
</a>
</g>
</g>
<!-- Node2&#45;&gt;Node18 -->
<g id="edge18_Node000002_Node000018" class="edge">
<title>Node2&#45;&gt;Node18</title>
<g id="a_edge18_Node000002_Node000018"><a xlink:title=" ">
<path fill="none" stroke="#63b8ff" d="M1056.5,-137.5C1064.76,-135.48 1073.67,-133.49 1082,-132 1222.46,-106.93 1263.66,-134.68 1401,-96 1402.64,-95.54 1404.29,-95 1405.95,-94.4"/>
<polygon fill="#63b8ff" stroke="#63b8ff" points="1407.3,-97.63 1415.18,-90.55 1404.6,-91.17 1407.3,-97.63"/>
</a>
</g>
</g>
<!-- Node2&#45;&gt;Node19 -->
<g id="edge19_Node000002_Node000019" class="edge">
<title>Node2&#45;&gt;Node19</title>
<g id="a_edge19_Node000002_Node000019"><a xlink:title=" ">
<path fill="none" stroke="#63b8ff" d="M1055.26,-137.44C1063.84,-135.32 1073.23,-133.29 1082,-132 1388.88,-86.8 1476.73,-165.63 1779,-96 1781.17,-95.5 1783.37,-94.87 1785.57,-94.15"/>
<polygon fill="#63b8ff" stroke="#63b8ff" points="1786.81,-97.42 1794.91,-90.59 1784.32,-90.88 1786.81,-97.42"/>
</a>
</g>
</g>
<!-- Node3&#45;&gt;Node4 -->
<g id="edge3_Node000003_Node000004" class="edge">
<title>Node3&#45;&gt;Node4</title>
<g id="a_edge3_Node000003_Node000004"><a xlink:title=" ">
<path fill="none" stroke="#63b8ff" d="M1553.54,-71.37C1541.68,-62.44 1522.75,-48.19 1507.06,-36.38"/>
<polygon fill="#63b8ff" stroke="#63b8ff" points="1508.84,-33.33 1498.75,-30.12 1504.63,-38.93 1508.84,-33.33"/>
</a>
</g>
</g>
<!-- Node5 -->
<g id="Node000005" class="node">
<title>Node5</title>
<g id="a_Node000005"><a xlink:title=" ">
<polygon fill="#e0e0e0" stroke="#999999" points="1667.5,-30 1548.5,-30 1548.5,0 1667.5,0 1667.5,-30"/>
<text text-anchor="start" x="1556.5" y="-18" font-family="Helvetica,sans-Serif" font-size="10.00">deal.II/numerics/data</text>
<text text-anchor="middle" x="1608" y="-7" font-family="Helvetica,sans-Serif" font-size="10.00">_postprocessor.h</text>
</a>
</g>
</g>
<!-- Node3&#45;&gt;Node5 -->
<g id="edge4_Node000003_Node000005" class="edge">
<title>Node3&#45;&gt;Node5</title>
<g id="a_edge4_Node000003_Node000005"><a xlink:title=" ">
<path fill="none" stroke="#63b8ff" d="M1570.8,-71.37C1576.37,-63.08 1585.03,-50.18 1592.6,-38.92"/>
<polygon fill="#63b8ff" stroke="#63b8ff" points="1595.68,-40.61 1598.35,-30.36 1589.87,-36.71 1595.68,-40.61"/>
</a>
</g>
</g>
<!-- Node20&#45;&gt;Node8 -->
<g id="edge21_Node000020_Node000008" class="edge">
<title>Node20&#45;&gt;Node8</title>
<g id="a_edge21_Node000020_Node000008"><a xlink:title=" ">
<path fill="none" stroke="#63b8ff" d="M209.09,-131.95C231.04,-120.98 261.33,-105.83 282.79,-95.11"/>
<polygon fill="#63b8ff" stroke="#63b8ff" points="284.59,-98.12 291.97,-90.52 281.46,-91.86 284.59,-98.12"/>
</a>
</g>
</g>
<!-- Node20&#45;&gt;Node9 -->
<g id="edge22_Node000020_Node000009" class="edge">
<title>Node20&#45;&gt;Node9</title>
<g id="a_edge22_Node000020_Node000009"><a xlink:title=" ">
<path fill="none" stroke="#63b8ff" d="M180.33,-131.8C179.91,-122.7 179.35,-110.79 178.89,-100.9"/>
<polygon fill="#63b8ff" stroke="#63b8ff" points="182.38,-100.67 178.41,-90.84 175.39,-101 182.38,-100.67"/>
</a>
</g>
</g>
<!-- Node20&#45;&gt;Node21 -->
<g id="edge23_Node000020_Node000021" class="edge">
<title>Node20&#45;&gt;Node21</title>
<g id="a_edge23_Node000020_Node000021"><a xlink:title=" ">
<path fill="none" stroke="#63b8ff" d="M152.47,-131.95C133.67,-122.7 108.86,-110.49 88.48,-100.45"/>
<polygon fill="#63b8ff" stroke="#63b8ff" points="89.98,-97.29 79.46,-96.01 86.89,-103.57 89.98,-97.29"/>
</a>
</g>
</g>
<!-- Node22&#45;&gt;Node8 -->
<g id="edge25_Node000022_Node000008" class="edge">
<title>Node22&#45;&gt;Node8</title>
<g id="a_edge25_Node000022_Node000008"><a xlink:title=" ">
<path fill="none" stroke="#63b8ff" d="M355.72,-137.37C347.39,-127.5 333.56,-111.11 323.11,-98.72"/>
<polygon fill="#63b8ff" stroke="#63b8ff" points="325.64,-96.29 316.51,-90.91 320.29,-100.81 325.64,-96.29"/>
</a>
</g>
</g>
<!-- Node22&#45;&gt;Node9 -->
<g id="edge26_Node000022_Node000009" class="edge">
<title>Node22&#45;&gt;Node9</title>
<g id="a_edge26_Node000022_Node000009"><a xlink:title=" ">
<path fill="none" stroke="#63b8ff" d="M338.05,-137.37C305.69,-126.17 249.06,-106.58 212.57,-93.96"/>
<polygon fill="#63b8ff" stroke="#63b8ff" points="213.44,-90.56 202.85,-90.6 211.16,-97.17 213.44,-90.56"/>
</a>
</g>
</g>
<!-- Node22&#45;&gt;Node12 -->
<g id="edge27_Node000022_Node000012" class="edge">
<title>Node22&#45;&gt;Node12</title>
<g id="a_edge27_Node000022_Node000012"><a xlink:title=" ">
<path fill="none" stroke="#63b8ff" d="M374.46,-137.37C386.32,-128.44 405.25,-114.19 420.94,-102.38"/>
<polygon fill="#63b8ff" stroke="#63b8ff" points="423.37,-104.93 429.25,-96.12 419.16,-99.33 423.37,-104.93"/>
</a>
</g>
</g>
</g>
</svg>
