<?xml version="1.0" encoding="UTF-8" standalone="no"?>
<!DOCTYPE svg PUBLIC "-//W3C//DTD SVG 1.1//EN"
 "http://www.w3.org/Graphics/SVG/1.1/DTD/svg11.dtd">
<!-- Generated by graphviz version 2.43.0 (0)
 -->
<!-- Title: /home/runner/work/lethe/lethe/include/dem/dem_solver_parameters.h Pages: 1 -->
<svg width="2349pt" height="500pt"
 viewBox="0.00 0.00 2348.50 500.00" xmlns="http://www.w3.org/2000/svg" xmlns:xlink="http://www.w3.org/1999/xlink">
<g id="graph0" class="graph" transform="scale(1 1) rotate(0) translate(4 496)">
<title>/home/runner/work/lethe/lethe/include/dem/dem_solver_parameters.h</title>
<!-- Node1 -->
<g id="Node000001" class="node">
<title>Node1</title>
<g id="a_Node000001"><a xlink:title=" ">
<polygon fill="#999999" stroke="#666666" points="415.5,-492 278.5,-492 278.5,-451 415.5,-451 415.5,-492"/>
<text text-anchor="start" x="286.5" y="-480" font-family="Helvetica,sans-Serif" font-size="10.00">/home/runner/work/lethe</text>
<text text-anchor="start" x="286.5" y="-469" font-family="Helvetica,sans-Serif" font-size="10.00">/lethe/include/dem/dem</text>
<text text-anchor="middle" x="347" y="-458" font-family="Helvetica,sans-Serif" font-size="10.00">_solver_parameters.h</text>
</a>
</g>
</g>
<!-- Node2 -->
<g id="Node000002" class="node">
<title>Node2</title>
<g id="a_Node000002"><a xlink:href="parameters_8h.html" target="_top" xlink:title=" ">
<polygon fill="white" stroke="#666666" points="480,-349 374,-349 374,-330 480,-330 480,-349"/>
<text text-anchor="middle" x="427" y="-337" font-family="Helvetica,sans-Serif" font-size="10.00">core/parameters.h</text>
</a>
</g>
</g>
<!-- Node1&#45;&gt;Node2 -->
<g id="edge1_Node000001_Node000002" class="edge">
<title>Node1&#45;&gt;Node2</title>
<g id="a_edge1_Node000001_Node000002"><a xlink:title=" ">
<path fill="none" stroke="#63b8ff" d="M375.04,-450.88C386.8,-441.31 399.67,-428.87 408,-415 418.29,-397.88 423.04,-375.31 425.22,-359.52"/>
<polygon fill="#63b8ff" stroke="#63b8ff" points="428.71,-359.73 426.38,-349.39 421.76,-358.92 428.71,-359.73"/>
</a>
</g>
</g>
<!-- Node39 -->
<g id="Node000039" class="node">
<title>Node39</title>
<g id="a_Node000039"><a xlink:href="parameters__lagrangian_8h.html" target="_top" xlink:title="Parameter structures for Lagrangian (DEM) particle simulations.">
<polygon fill="white" stroke="#666666" points="263.5,-409.5 100.5,-409.5 100.5,-390.5 263.5,-390.5 263.5,-409.5"/>
<text text-anchor="middle" x="182" y="-397.5" font-family="Helvetica,sans-Serif" font-size="10.00">core/parameters_lagrangian.h</text>
</a>
</g>
</g>
<!-- Node1&#45;&gt;Node39 -->
<g id="edge49_Node000001_Node000039" class="edge">
<title>Node1&#45;&gt;Node39</title>
<g id="a_edge49_Node000001_Node000039"><a xlink:title=" ">
<path fill="none" stroke="#63b8ff" d="M300.6,-450.96C271.99,-438.9 236.16,-423.81 211.42,-413.39"/>
<polygon fill="#63b8ff" stroke="#63b8ff" points="212.76,-410.16 202.19,-409.5 210.05,-416.61 212.76,-410.16"/>
</a>
</g>
</g>
<!-- Node41 -->
<g id="Node000041" class="node">
<title>Node41</title>
<g id="a_Node000041"><a xlink:href="solid__objects__parameters_8h.html" target="_top" xlink:title="Parameter classes for solid objects used in Nitsche immersed boundary and DEM simulations.">
<polygon fill="white" stroke="#666666" points="399,-415 295,-415 295,-385 399,-385 399,-415"/>
<text text-anchor="start" x="303" y="-403" font-family="Helvetica,sans-Serif" font-size="10.00">core/solid_objects</text>
<text text-anchor="middle" x="347" y="-392" font-family="Helvetica,sans-Serif" font-size="10.00">_parameters.h</text>
</a>
</g>
</g>
<!-- Node1&#45;&gt;Node41 -->
<g id="edge55_Node000001_Node000041" class="edge">
<title>Node1&#45;&gt;Node41</title>
<g id="a_edge55_Node000001_Node000041"><a xlink:title=" ">
<path fill="none" stroke="#63b8ff" d="M347,-450.77C347,-442.85 347,-433.63 347,-425.3"/>
<polygon fill="#63b8ff" stroke="#63b8ff" points="350.5,-425.04 347,-415.04 343.5,-425.04 350.5,-425.04"/>
</a>
</g>
</g>
<!-- Node3 -->
<g id="Node000003" class="node">
<title>Node3</title>
<g id="a_Node000003"><a xlink:href="dimensionality_8h.html" target="_top" xlink:title=" ">
<polygon fill="white" stroke="#666666" points="355.5,-222.5 234.5,-222.5 234.5,-203.5 355.5,-203.5 355.5,-222.5"/>
<text text-anchor="middle" x="295" y="-210.5" font-family="Helvetica,sans-Serif" font-size="10.00">core/dimensionality.h</text>
</a>
</g>
</g>
<!-- Node2&#45;&gt;Node3 -->
<g id="edge2_Node000002_Node000003" class="edge">
<title>Node2&#45;&gt;Node3</title>
<g id="a_edge2_Node000002_Node000003"><a xlink:title=" ">
<path fill="none" stroke="#63b8ff" d="M414.77,-329.81C402.92,-321.19 384.64,-307.38 370,-294 347.5,-273.44 323.81,-247.31 309.22,-230.62"/>
<polygon fill="#63b8ff" stroke="#63b8ff" points="311.66,-228.09 302.47,-222.83 306.37,-232.68 311.66,-228.09"/>
</a>
</g>
</g>
<!-- Node4 -->
<g id="Node000004" class="node">
<title>Node4</title>
<g id="a_Node000004"><a xlink:title=" ">
<polygon fill="#e0e0e0" stroke="#999999" points="183.5,-96 56.5,-96 56.5,-66 183.5,-66 183.5,-96"/>
<text text-anchor="start" x="64.5" y="-84" font-family="Helvetica,sans-Serif" font-size="10.00">deal.II/base/parameter</text>
<text text-anchor="middle" x="120" y="-73" font-family="Helvetica,sans-Serif" font-size="10.00">_handler.h</text>
</a>
</g>
</g>
<!-- Node2&#45;&gt;Node4 -->
<g id="edge46_Node000002_Node000004" class="edge">
<title>Node2&#45;&gt;Node4</title>
<g id="a_edge46_Node000002_Node000004"><a xlink:title=" ">
<path fill="none" stroke="#63b8ff" d="M425.11,-329.89C419.55,-306.24 401.24,-239.29 364,-198 317.5,-146.43 243.19,-115.72 188.78,-98.98"/>
<polygon fill="#63b8ff" stroke="#63b8ff" points="189.44,-95.52 178.86,-96.01 187.44,-102.23 189.44,-95.52"/>
</a>
</g>
</g>
<!-- Node5 -->
<g id="Node000005" class="node">
<title>Node5</title>
<g id="a_Node000005"><a xlink:href="ib__particle_8h.html" target="_top" xlink:title=" ">
<polygon fill="white" stroke="#666666" points="2124.5,-288.5 2023.5,-288.5 2023.5,-269.5 2124.5,-269.5 2124.5,-288.5"/>
<text text-anchor="middle" x="2074" y="-276.5" font-family="Helvetica,sans-Serif" font-size="10.00">core/ib_particle.h</text>
</a>
</g>
</g>
<!-- Node2&#45;&gt;Node5 -->
<g id="edge4_Node000002_Node000005" class="edge">
<title>Node2&#45;&gt;Node5</title>
<g id="a_edge4_Node000002_Node000005"><a xlink:title=" ">
<path fill="none" stroke="#63b8ff" d="M480.4,-336.6C726.7,-327.85 1752.21,-291.43 2013.31,-282.16"/>
<polygon fill="#63b8ff" stroke="#63b8ff" points="2013.49,-285.65 2023.36,-281.8 2013.24,-278.66 2013.49,-285.65"/>
</a>
</g>
</g>
<!-- Node13 -->
<g id="Node000013" class="node">
<title>Node13</title>
<g id="a_Node000013"><a xlink:href="core_2utilities_8h.html" target="_top" xlink:title=" ">
<polygon fill="white" stroke="#666666" points="462,-156.5 376,-156.5 376,-137.5 462,-137.5 462,-156.5"/>
<text text-anchor="middle" x="419" y="-144.5" font-family="Helvetica,sans-Serif" font-size="10.00">core/utilities.h</text>
</a>
</g>
</g>
<!-- Node2&#45;&gt;Node13 -->
<g id="edge45_Node000002_Node000013" class="edge">
<title>Node2&#45;&gt;Node13</title>
<g id="a_edge45_Node000002_Node000013"><a xlink:title=" ">
<path fill="none" stroke="#63b8ff" d="M426.64,-329.82C425.42,-300.87 421.49,-207.2 419.79,-166.82"/>
<polygon fill="#63b8ff" stroke="#63b8ff" points="423.28,-166.58 419.37,-156.73 416.29,-166.87 423.28,-166.58"/>
</a>
</g>
</g>
<!-- Node36 -->
<g id="Node000036" class="node">
<title>Node36</title>
<g id="a_Node000036"><a xlink:title=" ">
<polygon fill="#e0e0e0" stroke="#999999" points="2340.5,-228 2231.5,-228 2231.5,-198 2340.5,-198 2340.5,-228"/>
<text text-anchor="start" x="2239.5" y="-216" font-family="Helvetica,sans-Serif" font-size="10.00">deal.II/base/parsed</text>
<text text-anchor="middle" x="2286" y="-205" font-family="Helvetica,sans-Serif" font-size="10.00">_function.h</text>
</a>
</g>
</g>
<!-- Node2&#45;&gt;Node36 -->
<g id="edge47_Node000002_Node000036" class="edge">
<title>Node2&#45;&gt;Node36</title>
<g id="a_edge47_Node000002_Node000036"><a xlink:title=" ">
<path fill="none" stroke="#63b8ff" d="M480.14,-338.55C750.93,-338.62 1970.94,-336.55 2134,-294 2180.55,-281.85 2228.79,-253.25 2258.1,-233.75"/>
<polygon fill="#63b8ff" stroke="#63b8ff" points="2260.25,-236.52 2266.57,-228.02 2256.33,-230.73 2260.25,-236.52"/>
</a>
</g>
</g>
<!-- Node37 -->
<g id="Node000037" class="node">
<title>Node37</title>
<g id="a_Node000037"><a xlink:href="multiphysics_8h.html" target="_top" xlink:title="Identifiers for multiphysics modules and their solution fields.">
<polygon fill="white" stroke="#666666" points="562,-288.5 450,-288.5 450,-269.5 562,-269.5 562,-288.5"/>
<text text-anchor="middle" x="506" y="-276.5" font-family="Helvetica,sans-Serif" font-size="10.00">core/multiphysics.h</text>
</a>
</g>
</g>
<!-- Node2&#45;&gt;Node37 -->
<g id="edge44_Node000002_Node000037" class="edge">
<title>Node2&#45;&gt;Node37</title>
<g id="a_edge44_Node000002_Node000037"><a xlink:title=" ">
<path fill="none" stroke="#63b8ff" d="M438.66,-329.87C451.14,-320.62 471.18,-305.78 486.16,-294.69"/>
<polygon fill="#63b8ff" stroke="#63b8ff" points="488.34,-297.43 494.3,-288.67 484.18,-291.81 488.34,-297.43"/>
</a>
</g>
</g>
<!-- Node38 -->
<g id="Node000038" class="node">
<title>Node38</title>
<g id="a_Node000038"><a xlink:title=" ">
<polygon fill="#e0e0e0" stroke="#999999" points="743.5,-294 580.5,-294 580.5,-264 743.5,-264 743.5,-294"/>
<text text-anchor="start" x="588.5" y="-282" font-family="Helvetica,sans-Serif" font-size="10.00">deal.II/multigrid/mg</text>
<text text-anchor="middle" x="662" y="-271" font-family="Helvetica,sans-Serif" font-size="10.00">_transfer_global_coarsening.h</text>
</a>
</g>
</g>
<!-- Node2&#45;&gt;Node38 -->
<g id="edge48_Node000002_Node000038" class="edge">
<title>Node2&#45;&gt;Node38</title>
<g id="a_edge48_Node000002_Node000038"><a xlink:title=" ">
<path fill="none" stroke="#63b8ff" d="M461.17,-329.99C496.32,-321.24 551.97,-307.39 595.78,-296.48"/>
<polygon fill="#63b8ff" stroke="#63b8ff" points="596.64,-299.88 605.5,-294.06 594.95,-293.08 596.64,-299.88"/>
</a>
</g>
</g>
<!-- Node3&#45;&gt;Node4 -->
<g id="edge3_Node000003_Node000004" class="edge">
<title>Node3&#45;&gt;Node4</title>
<g id="a_edge3_Node000003_Node000004"><a xlink:title=" ">
<path fill="none" stroke="#63b8ff" d="M288.59,-203.35C276.55,-187.57 249.15,-153.73 220,-132 203.17,-119.45 182.71,-108.58 164.7,-100.21"/>
<polygon fill="#63b8ff" stroke="#63b8ff" points="166.09,-97 155.53,-96.07 163.2,-103.38 166.09,-97"/>
</a>
</g>
</g>
<!-- Node6 -->
<g id="Node000006" class="node">
<title>Node6</title>
<g id="a_Node000006"><a xlink:href="dem__properties_8h.html" target="_top" xlink:title="DEM particle property definitions and output name management.">
<polygon fill="white" stroke="#666666" points="2225,-156.5 2099,-156.5 2099,-137.5 2225,-137.5 2225,-156.5"/>
<text text-anchor="middle" x="2162" y="-144.5" font-family="Helvetica,sans-Serif" font-size="10.00">core/dem_properties.h</text>
</a>
</g>
</g>
<!-- Node5&#45;&gt;Node6 -->
<g id="edge5_Node000005_Node000006" class="edge">
<title>Node5&#45;&gt;Node6</title>
<g id="a_edge5_Node000005_Node000006"><a xlink:title=" ">
<path fill="none" stroke="#63b8ff" d="M2079.77,-269.47C2094.07,-248.36 2131.31,-193.34 2150.38,-165.17"/>
<polygon fill="#63b8ff" stroke="#63b8ff" points="2153.38,-166.97 2156.09,-156.73 2147.59,-163.05 2153.38,-166.97"/>
</a>
</g>
</g>
<!-- Node8 -->
<g id="Node000008" class="node">
<title>Node8</title>
<g id="a_Node000008"><a xlink:title=" ">
<polygon fill="#e0e0e0" stroke="#999999" points="2185.5,-90.5 2138.5,-90.5 2138.5,-71.5 2185.5,-71.5 2185.5,-90.5"/>
<text text-anchor="middle" x="2162" y="-78.5" font-family="Helvetica,sans-Serif" font-size="10.00">vector</text>
</a>
</g>
</g>
<!-- Node5&#45;&gt;Node8 -->
<g id="edge43_Node000005_Node000008" class="edge">
<title>Node5&#45;&gt;Node8</title>
<g id="a_edge43_Node000005_Node000008"><a xlink:title=" ">
<path fill="none" stroke="#63b8ff" d="M2096.84,-269.47C2133.68,-254.32 2205,-218.85 2234,-162 2240.06,-150.12 2240.18,-143.81 2234,-132 2225.36,-115.47 2208.48,-103.31 2193.25,-95.12"/>
<polygon fill="#63b8ff" stroke="#63b8ff" points="2194.57,-91.87 2184.06,-90.53 2191.44,-98.13 2194.57,-91.87"/>
</a>
</g>
</g>
<!-- Node9 -->
<g id="Node000009" class="node">
<title>Node9</title>
<g id="a_Node000009"><a xlink:href="shape_8h.html" target="_top" xlink:title=" ">
<polygon fill="white" stroke="#666666" points="1238.5,-222.5 1159.5,-222.5 1159.5,-203.5 1238.5,-203.5 1238.5,-222.5"/>
<text text-anchor="middle" x="1199" y="-210.5" font-family="Helvetica,sans-Serif" font-size="10.00">core/shape.h</text>
</a>
</g>
</g>
<!-- Node5&#45;&gt;Node9 -->
<g id="edge8_Node000005_Node000009" class="edge">
<title>Node5&#45;&gt;Node9</title>
<g id="a_edge8_Node000005_Node000009"><a xlink:title=" ">
<path fill="none" stroke="#63b8ff" d="M2023.49,-274.31C1868.74,-262.99 1402.32,-228.87 1248.68,-217.63"/>
<polygon fill="#63b8ff" stroke="#63b8ff" points="1248.82,-214.13 1238.59,-216.9 1248.31,-221.12 1248.82,-214.13"/>
</a>
</g>
</g>
<!-- Node11 -->
<g id="Node000011" class="node">
<title>Node11</title>
<g id="a_Node000011"><a xlink:title=" ">
<polygon fill="#e0e0e0" stroke="#999999" points="1984,-90.5 1874,-90.5 1874,-71.5 1984,-71.5 1984,-90.5"/>
<text text-anchor="middle" x="1929" y="-78.5" font-family="Helvetica,sans-Serif" font-size="10.00">deal.II/base/point.h</text>
</a>
</g>
</g>
<!-- Node5&#45;&gt;Node11 -->
<g id="edge42_Node000005_Node000011" class="edge">
<title>Node5&#45;&gt;Node11</title>
<g id="a_edge42_Node000005_Node000011"><a xlink:title=" ">
<path fill="none" stroke="#63b8ff" d="M2072.47,-269.42C2067.77,-245.2 2051.53,-175.27 2014,-132 1999.8,-115.63 1978.87,-103.23 1961.33,-94.87"/>
<polygon fill="#63b8ff" stroke="#63b8ff" points="1962.55,-91.58 1952,-90.64 1959.66,-97.95 1962.55,-91.58"/>
</a>
</g>
</g>
<!-- Node5&#45;&gt;Node36 -->
<g id="edge41_Node000005_Node000036" class="edge">
<title>Node5&#45;&gt;Node36</title>
<g id="a_edge41_Node000005_Node000036"><a xlink:title=" ">
<path fill="none" stroke="#63b8ff" d="M2102.59,-269.37C2135.03,-259.58 2188.73,-243.37 2229.66,-231.01"/>
<polygon fill="#63b8ff" stroke="#63b8ff" points="2230.68,-234.36 2239.24,-228.12 2228.66,-227.66 2230.68,-234.36"/>
</a>
</g>
</g>
<!-- Node7 -->
<g id="Node000007" class="node">
<title>Node7</title>
<g id="a_Node000007"><a xlink:title=" ">
<polygon fill="#e0e0e0" stroke="#999999" points="2093,-90.5 2049,-90.5 2049,-71.5 2093,-71.5 2093,-90.5"/>
<text text-anchor="middle" x="2071" y="-78.5" font-family="Helvetica,sans-Serif" font-size="10.00">string</text>
</a>
</g>
</g>
<!-- Node6&#45;&gt;Node7 -->
<g id="edge6_Node000006_Node000007" class="edge">
<title>Node6&#45;&gt;Node7</title>
<g id="a_edge6_Node000006_Node000007"><a xlink:title=" ">
<path fill="none" stroke="#63b8ff" d="M2149.73,-137.37C2134.94,-126.97 2109.85,-109.32 2091.97,-96.75"/>
<polygon fill="#63b8ff" stroke="#63b8ff" points="2093.56,-93.59 2083.37,-90.7 2089.54,-99.31 2093.56,-93.59"/>
</a>
</g>
</g>
<!-- Node6&#45;&gt;Node8 -->
<g id="edge7_Node000006_Node000008" class="edge">
<title>Node6&#45;&gt;Node8</title>
<g id="a_edge7_Node000006_Node000008"><a xlink:title=" ">
<path fill="none" stroke="#63b8ff" d="M2162,-137.37C2162,-128.16 2162,-113.29 2162,-101.27"/>
<polygon fill="#63b8ff" stroke="#63b8ff" points="2165.5,-100.91 2162,-90.91 2158.5,-100.91 2165.5,-100.91"/>
</a>
</g>
</g>
<!-- Node10 -->
<g id="Node000010" class="node">
<title>Node10</title>
<g id="a_Node000010"><a xlink:href="tensors__and__points__dimension__manipulation_8h.html" target="_top" xlink:title=" ">
<polygon fill="white" stroke="#666666" points="2005,-162 1853,-162 1853,-132 2005,-132 2005,-162"/>
<text text-anchor="start" x="1861" y="-150" font-family="Helvetica,sans-Serif" font-size="10.00">core/tensors_and_points</text>
<text text-anchor="middle" x="1929" y="-139" font-family="Helvetica,sans-Serif" font-size="10.00">_dimension_manipulation.h</text>
</a>
</g>
</g>
<!-- Node9&#45;&gt;Node10 -->
<g id="edge9_Node000009_Node000010" class="edge">
<title>Node9&#45;&gt;Node10</title>
<g id="a_edge9_Node000009_Node000010"><a xlink:title=" ">
<path fill="none" stroke="#63b8ff" d="M1238.75,-210.11C1338.56,-205.11 1607.92,-190.03 1842.5,-162.11"/>
<polygon fill="#63b8ff" stroke="#63b8ff" points="1843.08,-165.57 1852.59,-160.9 1842.24,-158.62 1843.08,-165.57"/>
</a>
</g>
</g>
<!-- Node9&#45;&gt;Node13 -->
<g id="edge12_Node000009_Node000013" class="edge">
<title>Node9&#45;&gt;Node13</title>
<g id="a_edge12_Node000009_Node000013"><a xlink:title=" ">
<path fill="none" stroke="#63b8ff" d="M1159.15,-211.64C1049.5,-210.13 734.26,-202.34 476,-162 470.59,-161.15 464.94,-160.05 459.38,-158.82"/>
<polygon fill="#63b8ff" stroke="#63b8ff" points="460.1,-155.4 449.57,-156.53 458.51,-162.22 460.1,-155.4"/>
</a>
</g>
</g>
<!-- Node18 -->
<g id="Node000018" class="node">
<title>Node18</title>
<g id="a_Node000018"><a xlink:title=" ">
<polygon fill="#e0e0e0" stroke="#999999" points="1325,-90.5 1185,-90.5 1185,-71.5 1325,-71.5 1325,-90.5"/>
<text text-anchor="middle" x="1255" y="-78.5" font-family="Helvetica,sans-Serif" font-size="10.00">deal.II/dofs/dof_handler.h</text>
</a>
</g>
</g>
<!-- Node9&#45;&gt;Node18 -->
<g id="edge36_Node000009_Node000018" class="edge">
<title>Node9&#45;&gt;Node18</title>
<g id="a_edge36_Node000009_Node000018"><a xlink:title=" ">
<path fill="none" stroke="#63b8ff" d="M1159.47,-212.19C1019.63,-212.45 554.36,-209.7 510,-162 500.92,-152.24 500.83,-141.68 510,-132 560.97,-78.2 1102.38,-104.48 1176,-96 1184.55,-95.01 1193.58,-93.69 1202.36,-92.24"/>
<polygon fill="#63b8ff" stroke="#63b8ff" points="1203.23,-95.65 1212.5,-90.51 1202.05,-88.75 1203.23,-95.65"/>
</a>
</g>
</g>
<!-- Node26 -->
<g id="Node000026" class="node">
<title>Node26</title>
<g id="a_Node000026"><a xlink:title=" ">
<polygon fill="#e0e0e0" stroke="#999999" points="1835,-162 1683,-162 1683,-132 1835,-132 1835,-162"/>
<text text-anchor="start" x="1691" y="-150" font-family="Helvetica,sans-Serif" font-size="10.00">deal.II/base/auto_derivative</text>
<text text-anchor="middle" x="1759" y="-139" font-family="Helvetica,sans-Serif" font-size="10.00">_function.h</text>
</a>
</g>
</g>
<!-- Node9&#45;&gt;Node26 -->
<g id="edge30_Node000009_Node000026" class="edge">
<title>Node9&#45;&gt;Node26</title>
<g id="a_edge30_Node000009_Node000026"><a xlink:title=" ">
<path fill="none" stroke="#63b8ff" d="M1238.5,-208.63C1318.47,-201.63 1505.44,-184.41 1672.61,-162.14"/>
<polygon fill="#63b8ff" stroke="#63b8ff" points="1673.13,-165.6 1682.58,-160.8 1672.2,-158.66 1673.13,-165.6"/>
</a>
</g>
</g>
<!-- Node27 -->
<g id="Node000027" class="node">
<title>Node27</title>
<g id="a_Node000027"><a xlink:title=" ">
<polygon fill="#e0e0e0" stroke="#999999" points="643.5,-156.5 518.5,-156.5 518.5,-137.5 643.5,-137.5 643.5,-156.5"/>
<text text-anchor="middle" x="581" y="-144.5" font-family="Helvetica,sans-Serif" font-size="10.00">deal.II/base/function.h</text>
</a>
</g>
</g>
<!-- Node9&#45;&gt;Node27 -->
<g id="edge31_Node000009_Node000027" class="edge">
<title>Node9&#45;&gt;Node27</title>
<g id="a_edge31_Node000009_Node000027"><a xlink:title=" ">
<path fill="none" stroke="#63b8ff" d="M1159.44,-209.75C1069.28,-204.32 841.7,-188.92 653,-162 645.89,-160.99 638.42,-159.74 631.1,-158.41"/>
<polygon fill="#63b8ff" stroke="#63b8ff" points="631.72,-154.97 621.24,-156.57 630.43,-161.85 631.72,-154.97"/>
</a>
</g>
</g>
<!-- Node28 -->
<g id="Node000028" class="node">
<title>Node28</title>
<g id="a_Node000028"><a xlink:title=" ">
<polygon fill="#e0e0e0" stroke="#999999" points="786,-156.5 662,-156.5 662,-137.5 786,-137.5 786,-156.5"/>
<text text-anchor="middle" x="724" y="-144.5" font-family="Helvetica,sans-Serif" font-size="10.00">deal.II/grid/manifold.h</text>
</a>
</g>
</g>
<!-- Node9&#45;&gt;Node28 -->
<g id="edge32_Node000009_Node000028" class="edge">
<title>Node9&#45;&gt;Node28</title>
<g id="a_edge32_Node000009_Node000028"><a xlink:title=" ">
<path fill="none" stroke="#63b8ff" d="M1159.4,-208C1087.03,-200.48 928.64,-183.1 796,-162 789.32,-160.94 782.32,-159.71 775.42,-158.44"/>
<polygon fill="#63b8ff" stroke="#63b8ff" points="775.89,-154.97 765.41,-156.56 774.59,-161.85 775.89,-154.97"/>
</a>
</g>
</g>
<!-- Node29 -->
<g id="Node000029" class="node">
<title>Node29</title>
<g id="a_Node000029"><a xlink:title=" ">
<polygon fill="#e0e0e0" stroke="#999999" points="919.5,-162 804.5,-162 804.5,-132 919.5,-132 919.5,-162"/>
<text text-anchor="start" x="812.5" y="-150" font-family="Helvetica,sans-Serif" font-size="10.00">deal.II/grid/manifold</text>
<text text-anchor="middle" x="862" y="-139" font-family="Helvetica,sans-Serif" font-size="10.00">_lib.h</text>
</a>
</g>
</g>
<!-- Node9&#45;&gt;Node29 -->
<g id="edge33_Node000009_Node000029" class="edge">
<title>Node9&#45;&gt;Node29</title>
<g id="a_edge33_Node000009_Node000029"><a xlink:title=" ">
<path fill="none" stroke="#63b8ff" d="M1159.14,-204.91C1108.32,-195.81 1017.49,-179.33 929.6,-162.09"/>
<polygon fill="#63b8ff" stroke="#63b8ff" points="930.21,-158.65 919.73,-160.15 928.86,-165.51 930.21,-158.65"/>
</a>
</g>
</g>
<!-- Node30 -->
<g id="Node000030" class="node">
<title>Node30</title>
<g id="a_Node000030"><a xlink:title=" ">
<polygon fill="#e0e0e0" stroke="#999999" points="1052.5,-162 937.5,-162 937.5,-132 1052.5,-132 1052.5,-162"/>
<text text-anchor="start" x="945.5" y="-150" font-family="Helvetica,sans-Serif" font-size="10.00">boost/range/adaptor</text>
<text text-anchor="middle" x="995" y="-139" font-family="Helvetica,sans-Serif" font-size="10.00">/map.hpp</text>
</a>
</g>
</g>
<!-- Node9&#45;&gt;Node30 -->
<g id="edge34_Node000009_Node000030" class="edge">
<title>Node9&#45;&gt;Node30</title>
<g id="a_edge34_Node000009_Node000030"><a xlink:title=" ">
<path fill="none" stroke="#63b8ff" d="M1171.49,-203.37C1140.41,-193.62 1089.04,-177.5 1049.71,-165.16"/>
<polygon fill="#63b8ff" stroke="#63b8ff" points="1050.58,-161.77 1039.99,-162.12 1048.49,-168.45 1050.58,-161.77"/>
</a>
</g>
</g>
<!-- Node31 -->
<g id="Node000031" class="node">
<title>Node31</title>
<g id="a_Node000031"><a xlink:title=" ">
<polygon fill="#e0e0e0" stroke="#999999" points="1187,-162 1071,-162 1071,-132 1187,-132 1187,-162"/>
<text text-anchor="start" x="1079" y="-150" font-family="Helvetica,sans-Serif" font-size="10.00">deal.II/base/function</text>
<text text-anchor="middle" x="1129" y="-139" font-family="Helvetica,sans-Serif" font-size="10.00">_signed_distance.h</text>
</a>
</g>
</g>
<!-- Node9&#45;&gt;Node31 -->
<g id="edge35_Node000009_Node000031" class="edge">
<title>Node9&#45;&gt;Node31</title>
<g id="a_edge35_Node000009_Node000031"><a xlink:title=" ">
<path fill="none" stroke="#63b8ff" d="M1189.56,-203.37C1179.98,-194.61 1164.78,-180.71 1152.01,-169.04"/>
<polygon fill="#63b8ff" stroke="#63b8ff" points="1154.18,-166.28 1144.44,-162.12 1149.46,-171.45 1154.18,-166.28"/>
</a>
</g>
</g>
<!-- Node32 -->
<g id="Node000032" class="node">
<title>Node32</title>
<g id="a_Node000032"><a xlink:title=" ">
<polygon fill="#e0e0e0" stroke="#999999" points="1333,-156.5 1205,-156.5 1205,-137.5 1333,-137.5 1333,-156.5"/>
<text text-anchor="middle" x="1269" y="-144.5" font-family="Helvetica,sans-Serif" font-size="10.00">deal.II/dofs/dof_tools.h</text>
</a>
</g>
</g>
<!-- Node9&#45;&gt;Node32 -->
<g id="edge37_Node000009_Node000032" class="edge">
<title>Node9&#45;&gt;Node32</title>
<g id="a_edge37_Node000009_Node000032"><a xlink:title=" ">
<path fill="none" stroke="#63b8ff" d="M1208.44,-203.37C1219.55,-193.21 1238.2,-176.16 1251.88,-163.65"/>
<polygon fill="#63b8ff" stroke="#63b8ff" points="1254.24,-166.24 1259.26,-156.91 1249.52,-161.07 1254.24,-166.24"/>
</a>
</g>
</g>
<!-- Node33 -->
<g id="Node000033" class="node">
<title>Node33</title>
<g id="a_Node000033"><a xlink:title=" ">
<polygon fill="#e0e0e0" stroke="#999999" points="1527,-156.5 1351,-156.5 1351,-137.5 1527,-137.5 1527,-156.5"/>
<text text-anchor="middle" x="1439" y="-144.5" font-family="Helvetica,sans-Serif" font-size="10.00">deal.II/physics/transformations.h</text>
</a>
</g>
</g>
<!-- Node9&#45;&gt;Node33 -->
<g id="edge38_Node000009_Node000033" class="edge">
<title>Node9&#45;&gt;Node33</title>
<g id="a_edge38_Node000009_Node000033"><a xlink:title=" ">
<path fill="none" stroke="#63b8ff" d="M1231.37,-203.37C1274.16,-191.96 1349.65,-171.83 1396.85,-159.24"/>
<polygon fill="#63b8ff" stroke="#63b8ff" points="1398,-162.56 1406.76,-156.6 1396.2,-155.79 1398,-162.56"/>
</a>
</g>
</g>
<!-- Node34 -->
<g id="Node000034" class="node">
<title>Node34</title>
<g id="a_Node000034"><a xlink:title=" ">
<polygon fill="#e0e0e0" stroke="#999999" points="1589,-156.5 1545,-156.5 1545,-137.5 1589,-137.5 1589,-156.5"/>
<text text-anchor="middle" x="1567" y="-144.5" font-family="Helvetica,sans-Serif" font-size="10.00">cfloat</text>
</a>
</g>
</g>
<!-- Node9&#45;&gt;Node34 -->
<g id="edge39_Node000009_Node000034" class="edge">
<title>Node9&#45;&gt;Node34</title>
<g id="a_edge39_Node000009_Node000034"><a xlink:title=" ">
<path fill="none" stroke="#63b8ff" d="M1238.68,-209.68C1302.47,-205.15 1431.3,-192.76 1536,-162 1537.64,-161.52 1539.3,-160.97 1540.96,-160.37"/>
<polygon fill="#63b8ff" stroke="#63b8ff" points="1542.33,-163.59 1550.27,-156.57 1539.69,-157.11 1542.33,-163.59"/>
</a>
</g>
</g>
<!-- Node35 -->
<g id="Node000035" class="node">
<title>Node35</title>
<g id="a_Node000035"><a xlink:title=" ">
<polygon fill="#e0e0e0" stroke="#999999" points="1665,-156.5 1607,-156.5 1607,-137.5 1665,-137.5 1665,-156.5"/>
<text text-anchor="middle" x="1636" y="-144.5" font-family="Helvetica,sans-Serif" font-size="10.00">memory</text>
</a>
</g>
</g>
<!-- Node9&#45;&gt;Node35 -->
<g id="edge40_Node000009_Node000035" class="edge">
<title>Node9&#45;&gt;Node35</title>
<g id="a_edge40_Node000009_Node000035"><a xlink:title=" ">
<path fill="none" stroke="#63b8ff" d="M1238.62,-210.03C1310.93,-205.79 1468.78,-193.46 1598,-162 1600.51,-161.39 1603.08,-160.66 1605.65,-159.87"/>
<polygon fill="#63b8ff" stroke="#63b8ff" points="1607.02,-163.1 1615.36,-156.58 1604.77,-156.48 1607.02,-163.1"/>
</a>
</g>
</g>
<!-- Node10&#45;&gt;Node11 -->
<g id="edge10_Node000010_Node000011" class="edge">
<title>Node10&#45;&gt;Node11</title>
<g id="a_edge10_Node000010_Node000011"><a xlink:title=" ">
<path fill="none" stroke="#63b8ff" d="M1929,-131.8C1929,-122.7 1929,-110.79 1929,-100.9"/>
<polygon fill="#63b8ff" stroke="#63b8ff" points="1932.5,-100.84 1929,-90.84 1925.5,-100.84 1932.5,-100.84"/>
</a>
</g>
</g>
<!-- Node12 -->
<g id="Node000012" class="node">
<title>Node12</title>
<g id="a_Node000012"><a xlink:title=" ">
<polygon fill="#e0e0e0" stroke="#999999" points="1657.5,-90.5 1542.5,-90.5 1542.5,-71.5 1657.5,-71.5 1657.5,-90.5"/>
<text text-anchor="middle" x="1600" y="-78.5" font-family="Helvetica,sans-Serif" font-size="10.00">deal.II/base/tensor.h</text>
</a>
</g>
</g>
<!-- Node10&#45;&gt;Node12 -->
<g id="edge11_Node000010_Node000012" class="edge">
<title>Node10&#45;&gt;Node12</title>
<g id="a_edge11_Node000010_Node000012"><a xlink:title=" ">
<path fill="none" stroke="#63b8ff" d="M1856.8,-131.95C1795.54,-120.04 1709.04,-103.21 1653.73,-92.45"/>
<polygon fill="#63b8ff" stroke="#63b8ff" points="1654.27,-88.99 1643.78,-90.52 1652.93,-95.86 1654.27,-88.99"/>
</a>
</g>
</g>
<!-- Node13&#45;&gt;Node4 -->
<g id="edge16_Node000013_Node000004" class="edge">
<title>Node13&#45;&gt;Node4</title>
<g id="a_edge16_Node000013_Node000004"><a xlink:title=" ">
<path fill="none" stroke="#63b8ff" d="M384.99,-137.43C377.43,-135.58 369.45,-133.68 362,-132 305.65,-119.26 241.61,-106.09 193.57,-96.46"/>
<polygon fill="#63b8ff" stroke="#63b8ff" points="194.07,-92.99 183.58,-94.47 192.7,-99.86 194.07,-92.99"/>
</a>
</g>
</g>
<!-- Node13&#45;&gt;Node7 -->
<g id="edge27_Node000013_Node000007" class="edge">
<title>Node13&#45;&gt;Node7</title>
<g id="a_edge27_Node000013_Node000007"><a xlink:title=" ">
<path fill="none" stroke="#63b8ff" d="M462.37,-138.17C477.4,-135.76 494.4,-133.38 510,-132 1166.73,-73.75 1337.05,-162.43 1993,-96 2008.16,-94.46 2024.81,-91.64 2038.81,-88.92"/>
<polygon fill="#63b8ff" stroke="#63b8ff" points="2039.82,-92.29 2048.94,-86.89 2038.44,-85.43 2039.82,-92.29"/>
</a>
</g>
</g>
<!-- Node13&#45;&gt;Node8 -->
<g id="edge29_Node000013_Node000008" class="edge">
<title>Node13&#45;&gt;Node8</title>
<g id="a_edge29_Node000013_Node000008"><a xlink:title=" ">
<path fill="none" stroke="#63b8ff" d="M462.37,-138.15C477.4,-135.74 494.4,-133.37 510,-132 1215.02,-70.06 1399.87,-184.88 2102,-96 2110.6,-94.91 2119.77,-93.11 2128.28,-91.15"/>
<polygon fill="#63b8ff" stroke="#63b8ff" points="2129.37,-94.49 2138.26,-88.73 2127.72,-87.69 2129.37,-94.49"/>
</a>
</g>
</g>
<!-- Node13&#45;&gt;Node11 -->
<g id="edge17_Node000013_Node000011" class="edge">
<title>Node13&#45;&gt;Node11</title>
<g id="a_edge17_Node000013_Node000011"><a xlink:title=" ">
<path fill="none" stroke="#63b8ff" d="M462.38,-138.23C477.41,-135.83 494.4,-133.44 510,-132 1022.3,-84.8 1152.99,-117.73 1667,-96 1733.99,-93.17 1810.55,-88.97 1863.54,-85.9"/>
<polygon fill="#63b8ff" stroke="#63b8ff" points="1864.03,-89.38 1873.81,-85.31 1863.63,-82.39 1864.03,-89.38"/>
</a>
</g>
</g>
<!-- Node13&#45;&gt;Node12 -->
<g id="edge19_Node000013_Node000012" class="edge">
<title>Node13&#45;&gt;Node12</title>
<g id="a_edge19_Node000013_Node000012"><a xlink:title=" ">
<path fill="none" stroke="#63b8ff" d="M462.39,-138.34C477.42,-135.95 494.41,-133.54 510,-132 874.81,-96.08 967.85,-113.63 1334,-96 1401.48,-92.75 1478.56,-88.65 1532.32,-85.73"/>
<polygon fill="#63b8ff" stroke="#63b8ff" points="1532.62,-89.22 1542.41,-85.18 1532.24,-82.23 1532.62,-89.22"/>
</a>
</g>
</g>
<!-- Node14 -->
<g id="Node000014" class="node">
<title>Node14</title>
<g id="a_Node000014"><a xlink:href="output__struct_8h.html" target="_top" xlink:title=" ">
<polygon fill="#fff0f0" stroke="red" points="571,-90.5 457,-90.5 457,-71.5 571,-71.5 571,-90.5"/>
<text text-anchor="middle" x="514" y="-78.5" font-family="Helvetica,sans-Serif" font-size="10.00">core/output_struct.h</text>
</a>
</g>
</g>
<!-- Node13&#45;&gt;Node14 -->
<g id="edge13_Node000013_Node000014" class="edge">
<title>Node13&#45;&gt;Node14</title>
<g id="a_edge13_Node000013_Node000014"><a xlink:title=" ">
<path fill="none" stroke="#63b8ff" d="M431.81,-137.37C447.39,-126.87 473.93,-109 492.62,-96.4"/>
<polygon fill="#63b8ff" stroke="#63b8ff" points="494.75,-99.19 501.09,-90.7 490.84,-93.38 494.75,-99.19"/>
</a>
</g>
</g>
<!-- Node15 -->
<g id="Node000015" class="node">
<title>Node15</title>
<g id="a_Node000015"><a xlink:title=" ">
<polygon fill="#e0e0e0" stroke="#999999" points="606.5,-30 505.5,-30 505.5,0 606.5,0 606.5,-30"/>
<text text-anchor="start" x="513.5" y="-18" font-family="Helvetica,sans-Serif" font-size="10.00">deal.II/base/table</text>
<text text-anchor="middle" x="556" y="-7" font-family="Helvetica,sans-Serif" font-size="10.00">_handler.h</text>
</a>
</g>
</g>
<!-- Node13&#45;&gt;Node15 -->
<g id="edge18_Node000013_Node000015" class="edge">
<title>Node13&#45;&gt;Node15</title>
<g id="a_edge18_Node000013_Node000015"><a xlink:title=" ">
<path fill="none" stroke="#63b8ff" d="M462.1,-138.53C504.83,-130.13 565.9,-115.15 580,-96 592.33,-79.25 583.31,-56.16 572.99,-39.09"/>
<polygon fill="#63b8ff" stroke="#63b8ff" points="575.65,-36.76 567.26,-30.3 569.79,-40.59 575.65,-36.76"/>
</a>
</g>
</g>
<!-- Node17 -->
<g id="Node000017" class="node">
<title>Node17</title>
<g id="a_Node000017"><a xlink:title=" ">
<polygon fill="#e0e0e0" stroke="#999999" points="757,-96 627,-96 627,-66 757,-66 757,-96"/>
<text text-anchor="start" x="635" y="-84" font-family="Helvetica,sans-Serif" font-size="10.00">deal.II/base/conditional</text>
<text text-anchor="middle" x="692" y="-73" font-family="Helvetica,sans-Serif" font-size="10.00">_ostream.h</text>
</a>
</g>
</g>
<!-- Node13&#45;&gt;Node17 -->
<g id="edge15_Node000013_Node000017" class="edge">
<title>Node13&#45;&gt;Node17</title>
<g id="a_edge15_Node000013_Node000017"><a xlink:title=" ">
<path fill="none" stroke="#63b8ff" d="M453.34,-137.49C460.81,-135.66 468.67,-133.75 476,-132 524.18,-120.51 578.5,-107.93 620.62,-98.27"/>
<polygon fill="#63b8ff" stroke="#63b8ff" points="621.53,-101.65 630.5,-96.01 619.97,-94.83 621.53,-101.65"/>
</a>
</g>
</g>
<!-- Node13&#45;&gt;Node18 -->
<g id="edge20_Node000013_Node000018" class="edge">
<title>Node13&#45;&gt;Node18</title>
<g id="a_edge20_Node000013_Node000018"><a xlink:title=" ">
<path fill="none" stroke="#63b8ff" d="M449.26,-137.44C457.84,-135.32 467.23,-133.29 476,-132 784.2,-86.64 866.48,-131.25 1176,-96 1184.55,-95.03 1193.58,-93.71 1202.36,-92.26"/>
<polygon fill="#63b8ff" stroke="#63b8ff" points="1203.24,-95.67 1212.5,-90.53 1202.05,-88.77 1203.24,-95.67"/>
</a>
</g>
</g>
<!-- Node19 -->
<g id="Node000019" class="node">
<title>Node19</title>
<g id="a_Node000019"><a xlink:title=" ">
<polygon fill="#e0e0e0" stroke="#999999" points="894.5,-90.5 775.5,-90.5 775.5,-71.5 894.5,-71.5 894.5,-90.5"/>
<text text-anchor="middle" x="835" y="-78.5" font-family="Helvetica,sans-Serif" font-size="10.00">deal.II/fe/fe_values.h</text>
</a>
</g>
</g>
<!-- Node13&#45;&gt;Node19 -->
<g id="edge21_Node000013_Node000019" class="edge">
<title>Node13&#45;&gt;Node19</title>
<g id="a_edge21_Node000013_Node000019"><a xlink:title=" ">
<path fill="none" stroke="#63b8ff" d="M450.81,-137.49C458.98,-135.49 467.78,-133.51 476,-132 603.73,-108.47 637.82,-116.93 766,-96 772.33,-94.97 778.97,-93.77 785.52,-92.51"/>
<polygon fill="#63b8ff" stroke="#63b8ff" points="786.55,-95.88 795.69,-90.52 785.2,-89.01 786.55,-95.88"/>
</a>
</g>
</g>
<!-- Node20 -->
<g id="Node000020" class="node">
<title>Node20</title>
<g id="a_Node000020"><a xlink:title=" ">
<polygon fill="#e0e0e0" stroke="#999999" points="1043.5,-96 912.5,-96 912.5,-66 1043.5,-66 1043.5,-96"/>
<text text-anchor="start" x="920.5" y="-84" font-family="Helvetica,sans-Serif" font-size="10.00">deal.II/particles/particle</text>
<text text-anchor="middle" x="978" y="-73" font-family="Helvetica,sans-Serif" font-size="10.00">_iterator.h</text>
</a>
</g>
</g>
<!-- Node13&#45;&gt;Node20 -->
<g id="edge22_Node000013_Node000020" class="edge">
<title>Node13&#45;&gt;Node20</title>
<g id="a_edge22_Node000013_Node000020"><a xlink:title=" ">
<path fill="none" stroke="#63b8ff" d="M449.88,-137.48C458.3,-135.41 467.45,-133.4 476,-132 661.16,-101.67 713.09,-121.09 902.29,-96.14"/>
<polygon fill="#63b8ff" stroke="#63b8ff" points="902.84,-99.6 912.29,-94.8 901.91,-92.66 902.84,-99.6"/>
</a>
</g>
</g>
<!-- Node21 -->
<g id="Node000021" class="node">
<title>Node21</title>
<g id="a_Node000021"><a xlink:title=" ">
<polygon fill="#e0e0e0" stroke="#999999" points="1166.5,-96 1061.5,-96 1061.5,-66 1166.5,-66 1166.5,-96"/>
<text text-anchor="start" x="1069.5" y="-84" font-family="Helvetica,sans-Serif" font-size="10.00">boost/archive/text</text>
<text text-anchor="middle" x="1114" y="-73" font-family="Helvetica,sans-Serif" font-size="10.00">_iarchive.hpp</text>
</a>
</g>
</g>
<!-- Node13&#45;&gt;Node21 -->
<g id="edge23_Node000013_Node000021" class="edge">
<title>Node13&#45;&gt;Node21</title>
<g id="a_edge23_Node000013_Node000021"><a xlink:title=" ">
<path fill="none" stroke="#63b8ff" d="M449.56,-137.43C458.06,-135.34 467.34,-133.32 476,-132 726.77,-93.69 796.94,-131.87 1051.29,-96.09"/>
<polygon fill="#63b8ff" stroke="#63b8ff" points="1051.79,-99.55 1061.2,-94.67 1050.8,-92.63 1051.79,-99.55"/>
</a>
</g>
</g>
<!-- Node22 -->
<g id="Node000022" class="node">
<title>Node22</title>
<g id="a_Node000022"><a xlink:title=" ">
<polygon fill="#e0e0e0" stroke="#999999" points="306.5,-96 201.5,-96 201.5,-66 306.5,-66 306.5,-96"/>
<text text-anchor="start" x="209.5" y="-84" font-family="Helvetica,sans-Serif" font-size="10.00">boost/archive/text</text>
<text text-anchor="middle" x="254" y="-73" font-family="Helvetica,sans-Serif" font-size="10.00">_oarchive.hpp</text>
</a>
</g>
</g>
<!-- Node13&#45;&gt;Node22 -->
<g id="edge24_Node000013_Node000022" class="edge">
<title>Node13&#45;&gt;Node22</title>
<g id="a_edge24_Node000013_Node000022"><a xlink:title=" ">
<path fill="none" stroke="#63b8ff" d="M396.75,-137.37C372.03,-127.78 331.46,-112.05 299.88,-99.8"/>
<polygon fill="#63b8ff" stroke="#63b8ff" points="300.98,-96.47 290.39,-96.12 298.45,-103 300.98,-96.47"/>
</a>
</g>
</g>
<!-- Node23 -->
<g id="Node000023" class="node">
<title>Node23</title>
<g id="a_Node000023"><a xlink:title=" ">
<polygon fill="#e0e0e0" stroke="#999999" points="379.5,-90.5 324.5,-90.5 324.5,-71.5 379.5,-71.5 379.5,-90.5"/>
<text text-anchor="middle" x="352" y="-78.5" font-family="Helvetica,sans-Serif" font-size="10.00">fstream</text>
</a>
</g>
</g>
<!-- Node13&#45;&gt;Node23 -->
<g id="edge25_Node000013_Node000023" class="edge">
<title>Node13&#45;&gt;Node23</title>
<g id="a_edge25_Node000013_Node000023"><a xlink:title=" ">
<path fill="none" stroke="#63b8ff" d="M409.96,-137.37C399.43,-127.31 381.81,-110.48 368.76,-98.01"/>
<polygon fill="#63b8ff" stroke="#63b8ff" points="370.97,-95.28 361.32,-90.91 366.14,-100.34 370.97,-95.28"/>
</a>
</g>
</g>
<!-- Node24 -->
<g id="Node000024" class="node">
<title>Node24</title>
<g id="a_Node000024"><a xlink:title=" ">
<polygon fill="#e0e0e0" stroke="#999999" points="38,-90.5 0,-90.5 0,-71.5 38,-71.5 38,-90.5"/>
<text text-anchor="middle" x="19" y="-78.5" font-family="Helvetica,sans-Serif" font-size="10.00">map</text>
</a>
</g>
</g>
<!-- Node13&#45;&gt;Node24 -->
<g id="edge26_Node000013_Node000024" class="edge">
<title>Node13&#45;&gt;Node24</title>
<g id="a_edge26_Node000013_Node000024"><a xlink:title=" ">
<path fill="none" stroke="#63b8ff" d="M375.9,-144.79C305.57,-141.81 162.37,-131.52 47,-96 45.74,-95.61 44.47,-95.17 43.21,-94.7"/>
<polygon fill="#63b8ff" stroke="#63b8ff" points="44.29,-91.35 33.73,-90.5 41.46,-97.75 44.29,-91.35"/>
</a>
</g>
</g>
<!-- Node25 -->
<g id="Node000025" class="node">
<title>Node25</title>
<g id="a_Node000025"><a xlink:title=" ">
<polygon fill="#e0e0e0" stroke="#999999" points="438.5,-90.5 397.5,-90.5 397.5,-71.5 438.5,-71.5 438.5,-90.5"/>
<text text-anchor="middle" x="418" y="-78.5" font-family="Helvetica,sans-Serif" font-size="10.00">tuple</text>
</a>
</g>
</g>
<!-- Node13&#45;&gt;Node25 -->
<g id="edge28_Node000013_Node000025" class="edge">
<title>Node13&#45;&gt;Node25</title>
<g id="a_edge28_Node000013_Node000025"><a xlink:title=" ">
<path fill="none" stroke="#63b8ff" d="M418.87,-137.37C418.72,-128.16 418.49,-113.29 418.3,-101.27"/>
<polygon fill="#63b8ff" stroke="#63b8ff" points="421.8,-100.85 418.14,-90.91 414.8,-100.96 421.8,-100.85"/>
</a>
</g>
</g>
<!-- Node14&#45;&gt;Node15 -->
<g id="edge14_Node000014_Node000015" class="edge">
<title>Node14&#45;&gt;Node15</title>
<g id="a_edge14_Node000014_Node000015"><a xlink:title=" ">
<path fill="none" stroke="#63b8ff" d="M519.66,-71.37C525.11,-63.08 533.57,-50.18 540.96,-38.92"/>
<polygon fill="#63b8ff" stroke="#63b8ff" points="544.02,-40.64 546.58,-30.36 538.16,-36.8 544.02,-40.64"/>
</a>
</g>
</g>
<!-- Node39&#45;&gt;Node2 -->
<g id="edge50_Node000039_Node000002" class="edge">
<title>Node39&#45;&gt;Node2</title>
<g id="a_edge50_Node000039_Node000002"><a xlink:title=" ">
<path fill="none" stroke="#63b8ff" d="M217.63,-390.49C260.9,-380.16 333.98,-362.71 381.34,-351.4"/>
<polygon fill="#63b8ff" stroke="#63b8ff" points="382.42,-354.74 391.33,-349.02 380.79,-347.93 382.42,-354.74"/>
</a>
</g>
</g>
<!-- Node39&#45;&gt;Node4 -->
<g id="edge51_Node000039_Node000004" class="edge">
<title>Node39&#45;&gt;Node4</title>
<g id="a_edge51_Node000039_Node000004"><a xlink:title=" ">
<path fill="none" stroke="#63b8ff" d="M172.16,-390.39C162.16,-381.13 146.9,-365.48 138,-349 122.89,-321.01 119,-311.81 119,-280 119,-280 119,-280 119,-212 119,-175.07 119.41,-132.24 119.7,-106.14"/>
<polygon fill="#63b8ff" stroke="#63b8ff" points="123.2,-106.08 119.82,-96.04 116.2,-106 123.2,-106.08"/>
</a>
</g>
</g>
<!-- Node39&#45;&gt;Node7 -->
<g id="edge54_Node000039_Node000007" class="edge">
<title>Node39&#45;&gt;Node7</title>
<g id="a_edge54_Node000039_Node000007"><a xlink:title=" ">
<path fill="none" stroke="#63b8ff" d="M193.87,-390.35C229.24,-365.12 337.92,-291.7 441,-264 779.29,-173.09 1709.81,-335.7 2014,-162 2038.37,-148.09 2054.96,-119.01 2063.7,-100.01"/>
<polygon fill="#63b8ff" stroke="#63b8ff" points="2066.99,-101.22 2067.75,-90.65 2060.57,-98.44 2066.99,-101.22"/>
</a>
</g>
</g>
<!-- Node39&#45;&gt;Node24 -->
<g id="edge52_Node000039_Node000024" class="edge">
<title>Node39&#45;&gt;Node24</title>
<g id="a_edge52_Node000039_Node000024"><a xlink:title=" ">
<path fill="none" stroke="#63b8ff" d="M158.7,-390.43C120.81,-374.8 50,-337.85 50,-280 50,-280 50,-280 50,-212 50,-171.17 35.35,-125.05 26.2,-100.2"/>
<polygon fill="#63b8ff" stroke="#63b8ff" points="29.39,-98.75 22.56,-90.66 22.85,-101.25 29.39,-98.75"/>
</a>
</g>
</g>
<!-- Node40 -->
<g id="Node000040" class="node">
<title>Node40</title>
<g id="a_Node000040"><a xlink:title=" ">
<polygon fill="#e0e0e0" stroke="#999999" points="179,-349 147,-349 147,-330 179,-330 179,-349"/>
<text text-anchor="middle" x="163" y="-337" font-family="Helvetica,sans-Serif" font-size="10.00">set</text>
</a>
</g>
</g>
<!-- Node39&#45;&gt;Node40 -->
<g id="edge53_Node000039_Node000040" class="edge">
<title>Node39&#45;&gt;Node40</title>
<g id="a_edge53_Node000039_Node000040"><a xlink:title=" ">
<path fill="none" stroke="#63b8ff" d="M179.2,-390.37C176.5,-382.07 172.35,-369.28 168.92,-358.72"/>
<polygon fill="#63b8ff" stroke="#63b8ff" points="172.23,-357.6 165.82,-349.17 165.58,-359.76 172.23,-357.6"/>
</a>
</g>
</g>
<!-- Node41&#45;&gt;Node2 -->
<g id="edge56_Node000041_Node000002" class="edge">
<title>Node41&#45;&gt;Node2</title>
<g id="a_edge56_Node000041_Node000002"><a xlink:title=" ">
<path fill="none" stroke="#63b8ff" d="M366.37,-384.84C378.57,-375.91 394.31,-364.41 406.69,-355.35"/>
<polygon fill="#63b8ff" stroke="#63b8ff" points="409.01,-357.99 415.01,-349.27 404.87,-352.34 409.01,-357.99"/>
</a>
</g>
</g>
<!-- Node41&#45;&gt;Node4 -->
<g id="edge57_Node000041_Node000004" class="edge">
<title>Node41&#45;&gt;Node4</title>
<g id="a_edge57_Node000041_Node000004"><a xlink:title=" ">
<path fill="none" stroke="#63b8ff" d="M336.95,-384.97C301.21,-335.06 180.04,-165.85 136.09,-104.47"/>
<polygon fill="#63b8ff" stroke="#63b8ff" points="138.86,-102.32 130.19,-96.23 133.16,-106.4 138.86,-102.32"/>
</a>
</g>
</g>
<!-- Node41&#45;&gt;Node36 -->
<g id="edge58_Node000041_Node000036" class="edge">
<title>Node41&#45;&gt;Node36</title>
<g id="a_edge58_Node000041_Node000036"><a xlink:title=" ">
<path fill="none" stroke="#63b8ff" d="M399.14,-397.85C680.46,-391.39 2010.99,-357.67 2182,-294 2215.36,-281.58 2246.74,-254.52 2266.13,-235.31"/>
<polygon fill="#63b8ff" stroke="#63b8ff" points="2268.68,-237.72 2273.2,-228.13 2263.69,-232.81 2268.68,-237.72"/>
</a>
</g>
</g>
</g>
</svg>
