<?xml version="1.0" encoding="UTF-8" standalone="no"?>
<!DOCTYPE svg PUBLIC "-//W3C//DTD SVG 1.1//EN"
 "http://www.w3.org/Graphics/SVG/1.1/DTD/svg11.dtd">
<!-- Generated by graphviz version 2.43.0 (0)
 -->
<!-- Title: /home/runner/work/lethe/lethe/include/dem/dem_post_processing.h Pages: 1 -->
<svg width="1763pt" height="247pt"
 viewBox="0.00 0.00 1763.00 247.00" xmlns="http://www.w3.org/2000/svg" xmlns:xlink="http://www.w3.org/1999/xlink">
<g id="graph0" class="graph" transform="scale(1 1) rotate(0) translate(4 243)">
<title>/home/runner/work/lethe/lethe/include/dem/dem_post_processing.h</title>
<!-- Node1 -->
<g id="Node000001" class="node">
<title>Node1</title>
<g id="a_Node000001"><a xlink:title=" ">
<polygon fill="#999999" stroke="#666666" points="1187,-239 1050,-239 1050,-198 1187,-198 1187,-239"/>
<text text-anchor="start" x="1058" y="-227" font-family="Helvetica,sans-Serif" font-size="10.00">/home/runner/work/lethe</text>
<text text-anchor="start" x="1058" y="-216" font-family="Helvetica,sans-Serif" font-size="10.00">/lethe/include/dem/dem</text>
<text text-anchor="middle" x="1118.5" y="-205" font-family="Helvetica,sans-Serif" font-size="10.00">_post_processing.h</text>
</a>
</g>
</g>
<!-- Node2 -->
<g id="Node000002" class="node">
<title>Node2</title>
<g id="a_Node000002"><a xlink:href="core_2utilities_8h.html" target="_top" xlink:title=" ">
<polygon fill="white" stroke="#666666" points="1098.5,-156.5 1012.5,-156.5 1012.5,-137.5 1098.5,-137.5 1098.5,-156.5"/>
<text text-anchor="middle" x="1055.5" y="-144.5" font-family="Helvetica,sans-Serif" font-size="10.00">core/utilities.h</text>
</a>
</g>
</g>
<!-- Node1&#45;&gt;Node2 -->
<g id="edge1_Node000001_Node000002" class="edge">
<title>Node1&#45;&gt;Node2</title>
<g id="a_edge1_Node000001_Node000002"><a xlink:title=" ">
<path fill="none" stroke="#63b8ff" d="M1100.62,-197.77C1091.07,-187.24 1079.45,-174.42 1070.4,-164.43"/>
<polygon fill="#63b8ff" stroke="#63b8ff" points="1072.8,-161.88 1063.49,-156.82 1067.62,-166.58 1072.8,-161.88"/>
</a>
</g>
</g>
<!-- Node20 -->
<g id="Node000020" class="node">
<title>Node20</title>
<g id="a_Node000020"><a xlink:title=" ">
<polygon fill="#e0e0e0" stroke="#999999" points="1248,-162 1117,-162 1117,-132 1248,-132 1248,-162"/>
<text text-anchor="start" x="1125" y="-150" font-family="Helvetica,sans-Serif" font-size="10.00">deal.II/particles/particle</text>
<text text-anchor="middle" x="1182.5" y="-139" font-family="Helvetica,sans-Serif" font-size="10.00">_handler.h</text>
</a>
</g>
</g>
<!-- Node1&#45;&gt;Node20 -->
<g id="edge20_Node000001_Node000020" class="edge">
<title>Node1&#45;&gt;Node20</title>
<g id="a_edge20_Node000001_Node000020"><a xlink:title=" ">
<path fill="none" stroke="#63b8ff" d="M1136.67,-197.77C1144.79,-188.95 1154.37,-178.54 1162.68,-169.53"/>
<polygon fill="#63b8ff" stroke="#63b8ff" points="1165.37,-171.77 1169.57,-162.04 1160.22,-167.02 1165.37,-171.77"/>
</a>
</g>
</g>
<!-- Node3 -->
<g id="Node000003" class="node">
<title>Node3</title>
<g id="a_Node000003"><a xlink:href="output__struct_8h.html" target="_top" xlink:title=" ">
<polygon fill="white" stroke="#666666" points="192.5,-90.5 78.5,-90.5 78.5,-71.5 192.5,-71.5 192.5,-90.5"/>
<text text-anchor="middle" x="135.5" y="-78.5" font-family="Helvetica,sans-Serif" font-size="10.00">core/output_struct.h</text>
</a>
</g>
</g>
<!-- Node2&#45;&gt;Node3 -->
<g id="edge2_Node000002_Node000003" class="edge">
<title>Node2&#45;&gt;Node3</title>
<g id="a_edge2_Node000002_Node000003"><a xlink:title=" ">
<path fill="none" stroke="#63b8ff" d="M1012.18,-145.76C886.35,-144.58 510.23,-137.54 201.5,-96 194.79,-95.1 187.75,-93.89 180.87,-92.56"/>
<polygon fill="#63b8ff" stroke="#63b8ff" points="181.45,-89.11 170.95,-90.54 180.05,-95.97 181.45,-89.11"/>
</a>
</g>
</g>
<!-- Node4 -->
<g id="Node000004" class="node">
<title>Node4</title>
<g id="a_Node000004"><a xlink:title=" ">
<polygon fill="#e0e0e0" stroke="#999999" points="101,-30 0,-30 0,0 101,0 101,-30"/>
<text text-anchor="start" x="8" y="-18" font-family="Helvetica,sans-Serif" font-size="10.00">deal.II/base/table</text>
<text text-anchor="middle" x="50.5" y="-7" font-family="Helvetica,sans-Serif" font-size="10.00">_handler.h</text>
</a>
</g>
</g>
<!-- Node2&#45;&gt;Node4 -->
<g id="edge8_Node000002_Node000004" class="edge">
<title>Node2&#45;&gt;Node4</title>
<g id="a_edge8_Node000002_Node000004"><a xlink:title=" ">
<path fill="none" stroke="#63b8ff" d="M1012.4,-145.25C827.15,-141.82 106.22,-126.56 69.5,-96 53.52,-82.7 49.58,-58.65 49.14,-40.38"/>
<polygon fill="#63b8ff" stroke="#63b8ff" points="52.64,-40.19 49.24,-30.16 45.64,-40.13 52.64,-40.19"/>
</a>
</g>
</g>
<!-- Node6 -->
<g id="Node000006" class="node">
<title>Node6</title>
<g id="a_Node000006"><a xlink:title=" ">
<polygon fill="#e0e0e0" stroke="#999999" points="340.5,-96 210.5,-96 210.5,-66 340.5,-66 340.5,-96"/>
<text text-anchor="start" x="218.5" y="-84" font-family="Helvetica,sans-Serif" font-size="10.00">deal.II/base/conditional</text>
<text text-anchor="middle" x="275.5" y="-73" font-family="Helvetica,sans-Serif" font-size="10.00">_ostream.h</text>
</a>
</g>
</g>
<!-- Node2&#45;&gt;Node6 -->
<g id="edge5_Node000002_Node000006" class="edge">
<title>Node2&#45;&gt;Node6</title>
<g id="a_edge5_Node000002_Node000006"><a xlink:title=" ">
<path fill="none" stroke="#63b8ff" d="M1012.41,-144.65C903.45,-140.87 607.92,-128.36 351.15,-95.97"/>
<polygon fill="#63b8ff" stroke="#63b8ff" points="351.24,-92.45 340.88,-94.66 350.35,-99.39 351.24,-92.45"/>
</a>
</g>
</g>
<!-- Node7 -->
<g id="Node000007" class="node">
<title>Node7</title>
<g id="a_Node000007"><a xlink:title=" ">
<polygon fill="#e0e0e0" stroke="#999999" points="486,-96 359,-96 359,-66 486,-66 486,-96"/>
<text text-anchor="start" x="367" y="-84" font-family="Helvetica,sans-Serif" font-size="10.00">deal.II/base/parameter</text>
<text text-anchor="middle" x="422.5" y="-73" font-family="Helvetica,sans-Serif" font-size="10.00">_handler.h</text>
</a>
</g>
</g>
<!-- Node2&#45;&gt;Node7 -->
<g id="edge6_Node000002_Node000007" class="edge">
<title>Node2&#45;&gt;Node7</title>
<g id="a_edge6_Node000002_Node000007"><a xlink:title=" ">
<path fill="none" stroke="#63b8ff" d="M1012.48,-143.64C919.95,-138.23 695.01,-123.4 496.19,-95.99"/>
<polygon fill="#63b8ff" stroke="#63b8ff" points="496.53,-92.51 486.14,-94.59 495.56,-99.44 496.53,-92.51"/>
</a>
</g>
</g>
<!-- Node8 -->
<g id="Node000008" class="node">
<title>Node8</title>
<g id="a_Node000008"><a xlink:title=" ">
<polygon fill="#e0e0e0" stroke="#999999" points="614.5,-90.5 504.5,-90.5 504.5,-71.5 614.5,-71.5 614.5,-90.5"/>
<text text-anchor="middle" x="559.5" y="-78.5" font-family="Helvetica,sans-Serif" font-size="10.00">deal.II/base/point.h</text>
</a>
</g>
</g>
<!-- Node2&#45;&gt;Node8 -->
<g id="edge7_Node000002_Node000008" class="edge">
<title>Node2&#45;&gt;Node8</title>
<g id="a_edge7_Node000002_Node000008"><a xlink:title=" ">
<path fill="none" stroke="#63b8ff" d="M1012.49,-142.4C934.72,-135.58 765.71,-119.34 624.5,-96 618.59,-95.02 612.41,-93.87 606.3,-92.64"/>
<polygon fill="#63b8ff" stroke="#63b8ff" points="606.67,-89.15 596.16,-90.54 605.25,-96 606.67,-89.15"/>
</a>
</g>
</g>
<!-- Node9 -->
<g id="Node000009" class="node">
<title>Node9</title>
<g id="a_Node000009"><a xlink:title=" ">
<polygon fill="#e0e0e0" stroke="#999999" points="748,-90.5 633,-90.5 633,-71.5 748,-71.5 748,-90.5"/>
<text text-anchor="middle" x="690.5" y="-78.5" font-family="Helvetica,sans-Serif" font-size="10.00">deal.II/base/tensor.h</text>
</a>
</g>
</g>
<!-- Node2&#45;&gt;Node9 -->
<g id="edge9_Node000002_Node000009" class="edge">
<title>Node2&#45;&gt;Node9</title>
<g id="a_edge9_Node000002_Node000009"><a xlink:title=" ">
<path fill="none" stroke="#63b8ff" d="M1012.47,-139.33C954.45,-130.21 847.98,-113.04 757.5,-96 751.81,-94.93 745.87,-93.76 739.97,-92.57"/>
<polygon fill="#63b8ff" stroke="#63b8ff" points="740.63,-89.13 730.13,-90.55 739.22,-95.99 740.63,-89.13"/>
</a>
</g>
</g>
<!-- Node10 -->
<g id="Node000010" class="node">
<title>Node10</title>
<g id="a_Node000010"><a xlink:title=" ">
<polygon fill="#e0e0e0" stroke="#999999" points="906.5,-90.5 766.5,-90.5 766.5,-71.5 906.5,-71.5 906.5,-90.5"/>
<text text-anchor="middle" x="836.5" y="-78.5" font-family="Helvetica,sans-Serif" font-size="10.00">deal.II/dofs/dof_handler.h</text>
</a>
</g>
</g>
<!-- Node2&#45;&gt;Node10 -->
<g id="edge10_Node000002_Node000010" class="edge">
<title>Node2&#45;&gt;Node10</title>
<g id="a_edge10_Node000002_Node000010"><a xlink:title=" ">
<path fill="none" stroke="#63b8ff" d="M1025.96,-137.37C987.16,-126.03 918.9,-106.08 875.78,-93.48"/>
<polygon fill="#63b8ff" stroke="#63b8ff" points="876.5,-90.04 865.92,-90.6 874.53,-96.76 876.5,-90.04"/>
</a>
</g>
</g>
<!-- Node11 -->
<g id="Node000011" class="node">
<title>Node11</title>
<g id="a_Node000011"><a xlink:title=" ">
<polygon fill="#e0e0e0" stroke="#999999" points="1044,-90.5 925,-90.5 925,-71.5 1044,-71.5 1044,-90.5"/>
<text text-anchor="middle" x="984.5" y="-78.5" font-family="Helvetica,sans-Serif" font-size="10.00">deal.II/fe/fe_values.h</text>
</a>
</g>
</g>
<!-- Node2&#45;&gt;Node11 -->
<g id="edge11_Node000002_Node000011" class="edge">
<title>Node2&#45;&gt;Node11</title>
<g id="a_edge11_Node000002_Node000011"><a xlink:title=" ">
<path fill="none" stroke="#63b8ff" d="M1045.92,-137.37C1034.66,-127.21 1015.74,-110.16 1001.87,-97.65"/>
<polygon fill="#63b8ff" stroke="#63b8ff" points="1004.15,-95 994.38,-90.91 999.46,-100.2 1004.15,-95"/>
</a>
</g>
</g>
<!-- Node12 -->
<g id="Node000012" class="node">
<title>Node12</title>
<g id="a_Node000012"><a xlink:title=" ">
<polygon fill="#e0e0e0" stroke="#999999" points="1193,-96 1062,-96 1062,-66 1193,-66 1193,-96"/>
<text text-anchor="start" x="1070" y="-84" font-family="Helvetica,sans-Serif" font-size="10.00">deal.II/particles/particle</text>
<text text-anchor="middle" x="1127.5" y="-73" font-family="Helvetica,sans-Serif" font-size="10.00">_iterator.h</text>
</a>
</g>
</g>
<!-- Node2&#45;&gt;Node12 -->
<g id="edge12_Node000002_Node000012" class="edge">
<title>Node2&#45;&gt;Node12</title>
<g id="a_edge12_Node000002_Node000012"><a xlink:title=" ">
<path fill="none" stroke="#63b8ff" d="M1065.21,-137.37C1075.06,-128.61 1090.7,-114.71 1103.84,-103.04"/>
<polygon fill="#63b8ff" stroke="#63b8ff" points="1106.47,-105.38 1111.62,-96.12 1101.82,-100.14 1106.47,-105.38"/>
</a>
</g>
</g>
<!-- Node13 -->
<g id="Node000013" class="node">
<title>Node13</title>
<g id="a_Node000013"><a xlink:title=" ">
<polygon fill="#e0e0e0" stroke="#999999" points="1316,-96 1211,-96 1211,-66 1316,-66 1316,-96"/>
<text text-anchor="start" x="1219" y="-84" font-family="Helvetica,sans-Serif" font-size="10.00">boost/archive/text</text>
<text text-anchor="middle" x="1263.5" y="-73" font-family="Helvetica,sans-Serif" font-size="10.00">_iarchive.hpp</text>
</a>
</g>
</g>
<!-- Node2&#45;&gt;Node13 -->
<g id="edge13_Node000002_Node000013" class="edge">
<title>Node2&#45;&gt;Node13</title>
<g id="a_edge13_Node000002_Node000013"><a xlink:title=" ">
<path fill="none" stroke="#63b8ff" d="M1083.55,-137.37C1115.31,-127.6 1167.84,-111.43 1207.97,-99.09"/>
<polygon fill="#63b8ff" stroke="#63b8ff" points="1209.1,-102.4 1217.62,-96.12 1207.04,-95.71 1209.1,-102.4"/>
</a>
</g>
</g>
<!-- Node14 -->
<g id="Node000014" class="node">
<title>Node14</title>
<g id="a_Node000014"><a xlink:title=" ">
<polygon fill="#e0e0e0" stroke="#999999" points="1439,-96 1334,-96 1334,-66 1439,-66 1439,-96"/>
<text text-anchor="start" x="1342" y="-84" font-family="Helvetica,sans-Serif" font-size="10.00">boost/archive/text</text>
<text text-anchor="middle" x="1386.5" y="-73" font-family="Helvetica,sans-Serif" font-size="10.00">_oarchive.hpp</text>
</a>
</g>
</g>
<!-- Node2&#45;&gt;Node14 -->
<g id="edge14_Node000002_Node000014" class="edge">
<title>Node2&#45;&gt;Node14</title>
<g id="a_edge14_Node000002_Node000014"><a xlink:title=" ">
<path fill="none" stroke="#63b8ff" d="M1085.93,-137.44C1093.29,-135.51 1101.15,-133.58 1108.5,-132 1201.01,-112.15 1227.87,-114.75 1324.12,-96.2"/>
<polygon fill="#63b8ff" stroke="#63b8ff" points="1324.83,-99.62 1333.97,-94.27 1323.49,-92.75 1324.83,-99.62"/>
</a>
</g>
</g>
<!-- Node15 -->
<g id="Node000015" class="node">
<title>Node15</title>
<g id="a_Node000015"><a xlink:title=" ">
<polygon fill="#e0e0e0" stroke="#999999" points="1512,-90.5 1457,-90.5 1457,-71.5 1512,-71.5 1512,-90.5"/>
<text text-anchor="middle" x="1484.5" y="-78.5" font-family="Helvetica,sans-Serif" font-size="10.00">fstream</text>
</a>
</g>
</g>
<!-- Node2&#45;&gt;Node15 -->
<g id="edge15_Node000002_Node000015" class="edge">
<title>Node2&#45;&gt;Node15</title>
<g id="a_edge15_Node000002_Node000015"><a xlink:title=" ">
<path fill="none" stroke="#63b8ff" d="M1084.48,-137.49C1092.23,-135.45 1100.64,-133.45 1108.5,-132 1257.95,-104.52 1300.83,-131.85 1448.5,-96 1450.86,-95.43 1453.28,-94.73 1455.69,-93.97"/>
<polygon fill="#63b8ff" stroke="#63b8ff" points="1457.12,-97.17 1465.37,-90.52 1454.78,-90.58 1457.12,-97.17"/>
</a>
</g>
</g>
<!-- Node16 -->
<g id="Node000016" class="node">
<title>Node16</title>
<g id="a_Node000016"><a xlink:title=" ">
<polygon fill="#e0e0e0" stroke="#999999" points="1568.5,-90.5 1530.5,-90.5 1530.5,-71.5 1568.5,-71.5 1568.5,-90.5"/>
<text text-anchor="middle" x="1549.5" y="-78.5" font-family="Helvetica,sans-Serif" font-size="10.00">map</text>
</a>
</g>
</g>
<!-- Node2&#45;&gt;Node16 -->
<g id="edge16_Node000002_Node000016" class="edge">
<title>Node2&#45;&gt;Node16</title>
<g id="a_edge16_Node000002_Node000016"><a xlink:title=" ">
<path fill="none" stroke="#63b8ff" d="M1084.18,-137.47C1092.01,-135.4 1100.53,-133.39 1108.5,-132 1290.01,-100.36 1344.19,-146.09 1521.5,-96 1522.77,-95.64 1524.04,-95.23 1525.31,-94.77"/>
<polygon fill="#63b8ff" stroke="#63b8ff" points="1527.03,-97.84 1534.81,-90.64 1524.24,-91.42 1527.03,-97.84"/>
</a>
</g>
</g>
<!-- Node17 -->
<g id="Node000017" class="node">
<title>Node17</title>
<g id="a_Node000017"><a xlink:title=" ">
<polygon fill="#e0e0e0" stroke="#999999" points="1630.5,-90.5 1586.5,-90.5 1586.5,-71.5 1630.5,-71.5 1630.5,-90.5"/>
<text text-anchor="middle" x="1608.5" y="-78.5" font-family="Helvetica,sans-Serif" font-size="10.00">string</text>
</a>
</g>
</g>
<!-- Node2&#45;&gt;Node17 -->
<g id="edge17_Node000002_Node000017" class="edge">
<title>Node2&#45;&gt;Node17</title>
<g id="a_edge17_Node000002_Node000017"><a xlink:title=" ">
<path fill="none" stroke="#63b8ff" d="M1083.9,-137.48C1091.8,-135.39 1100.43,-133.36 1108.5,-132 1314.63,-97.16 1374.96,-147.8 1577.5,-96 1579.23,-95.56 1580.99,-95.02 1582.73,-94.43"/>
<polygon fill="#63b8ff" stroke="#63b8ff" points="1584.5,-97.49 1592.48,-90.51 1581.89,-90.99 1584.5,-97.49"/>
</a>
</g>
</g>
<!-- Node18 -->
<g id="Node000018" class="node">
<title>Node18</title>
<g id="a_Node000018"><a xlink:title=" ">
<polygon fill="#e0e0e0" stroke="#999999" points="1690,-90.5 1649,-90.5 1649,-71.5 1690,-71.5 1690,-90.5"/>
<text text-anchor="middle" x="1669.5" y="-78.5" font-family="Helvetica,sans-Serif" font-size="10.00">tuple</text>
</a>
</g>
</g>
<!-- Node2&#45;&gt;Node18 -->
<g id="edge18_Node000002_Node000018" class="edge">
<title>Node2&#45;&gt;Node18</title>
<g id="a_edge18_Node000002_Node000018"><a xlink:title=" ">
<path fill="none" stroke="#63b8ff" d="M1083.89,-137.44C1091.79,-135.34 1100.42,-133.33 1108.5,-132 1341.91,-93.62 1410.44,-155.02 1639.5,-96 1641.18,-95.57 1642.89,-95.04 1644.59,-94.45"/>
<polygon fill="#63b8ff" stroke="#63b8ff" points="1646.12,-97.6 1654.03,-90.54 1643.45,-91.13 1646.12,-97.6"/>
</a>
</g>
</g>
<!-- Node19 -->
<g id="Node000019" class="node">
<title>Node19</title>
<g id="a_Node000019"><a xlink:title=" ">
<polygon fill="#e0e0e0" stroke="#999999" points="1755,-90.5 1708,-90.5 1708,-71.5 1755,-71.5 1755,-90.5"/>
<text text-anchor="middle" x="1731.5" y="-78.5" font-family="Helvetica,sans-Serif" font-size="10.00">vector</text>
</a>
</g>
</g>
<!-- Node2&#45;&gt;Node19 -->
<g id="edge19_Node000002_Node000019" class="edge">
<title>Node2&#45;&gt;Node19</title>
<g id="a_edge19_Node000002_Node000019"><a xlink:title=" ">
<path fill="none" stroke="#63b8ff" d="M1083.61,-137.47C1091.59,-135.35 1100.33,-133.32 1108.5,-132 1368.31,-90.19 1443.68,-157.69 1699.5,-96 1701.45,-95.53 1703.42,-94.95 1705.39,-94.29"/>
<polygon fill="#63b8ff" stroke="#63b8ff" points="1706.91,-97.46 1714.95,-90.56 1704.36,-90.94 1706.91,-97.46"/>
</a>
</g>
</g>
<!-- Node3&#45;&gt;Node4 -->
<g id="edge3_Node000003_Node000004" class="edge">
<title>Node3&#45;&gt;Node4</title>
<g id="a_edge3_Node000003_Node000004"><a xlink:title=" ">
<path fill="none" stroke="#63b8ff" d="M124.04,-71.37C112.18,-62.44 93.25,-48.19 77.56,-36.38"/>
<polygon fill="#63b8ff" stroke="#63b8ff" points="79.34,-33.33 69.25,-30.12 75.13,-38.93 79.34,-33.33"/>
</a>
</g>
</g>
<!-- Node5 -->
<g id="Node000005" class="node">
<title>Node5</title>
<g id="a_Node000005"><a xlink:title=" ">
<polygon fill="#e0e0e0" stroke="#999999" points="238,-30 119,-30 119,0 238,0 238,-30"/>
<text text-anchor="start" x="127" y="-18" font-family="Helvetica,sans-Serif" font-size="10.00">deal.II/numerics/data</text>
<text text-anchor="middle" x="178.5" y="-7" font-family="Helvetica,sans-Serif" font-size="10.00">_postprocessor.h</text>
</a>
</g>
</g>
<!-- Node3&#45;&gt;Node5 -->
<g id="edge4_Node000003_Node000005" class="edge">
<title>Node3&#45;&gt;Node5</title>
<g id="a_edge4_Node000003_Node000005"><a xlink:title=" ">
<path fill="none" stroke="#63b8ff" d="M141.3,-71.37C146.87,-63.08 155.53,-50.18 163.1,-38.92"/>
<polygon fill="#63b8ff" stroke="#63b8ff" points="166.18,-40.61 168.85,-30.36 160.37,-36.71 166.18,-40.61"/>
</a>
</g>
</g>
</g>
</svg>
