<?xml version="1.0" encoding="UTF-8" standalone="no"?>
<!DOCTYPE svg PUBLIC "-//W3C//DTD SVG 1.1//EN"
 "http://www.w3.org/Graphics/SVG/1.1/DTD/svg11.dtd">
<!-- Generated by graphviz version 2.43.0 (0)
 -->
<!-- Title: /home/runner/work/lethe/lethe/include/dem/dem_solver_parameters.h Pages: 1 -->
<svg width="2445pt" height="500pt"
 viewBox="0.00 0.00 2444.50 500.00" xmlns="http://www.w3.org/2000/svg" xmlns:xlink="http://www.w3.org/1999/xlink">
<g id="graph0" class="graph" transform="scale(1 1) rotate(0) translate(4 496)">
<title>/home/runner/work/lethe/lethe/include/dem/dem_solver_parameters.h</title>
<!-- Node1 -->
<g id="Node000001" class="node">
<title>Node1</title>
<g id="a_Node000001"><a xlink:title=" ">
<polygon fill="#999999" stroke="#666666" points="491.5,-492 354.5,-492 354.5,-451 491.5,-451 491.5,-492"/>
<text text-anchor="start" x="362.5" y="-480" font-family="Helvetica,sans-Serif" font-size="10.00">/home/runner/work/lethe</text>
<text text-anchor="start" x="362.5" y="-469" font-family="Helvetica,sans-Serif" font-size="10.00">/lethe/include/dem/dem</text>
<text text-anchor="middle" x="423" y="-458" font-family="Helvetica,sans-Serif" font-size="10.00">_solver_parameters.h</text>
</a>
</g>
</g>
<!-- Node2 -->
<g id="Node000002" class="node">
<title>Node2</title>
<g id="a_Node000002"><a xlink:href="parameters_8h.html" target="_top" xlink:title=" ">
<polygon fill="white" stroke="#666666" points="556,-349 450,-349 450,-330 556,-330 556,-349"/>
<text text-anchor="middle" x="503" y="-337" font-family="Helvetica,sans-Serif" font-size="10.00">core/parameters.h</text>
</a>
</g>
</g>
<!-- Node1&#45;&gt;Node2 -->
<g id="edge1_Node000001_Node000002" class="edge">
<title>Node1&#45;&gt;Node2</title>
<g id="a_edge1_Node000001_Node000002"><a xlink:title=" ">
<path fill="none" stroke="#63b8ff" d="M451.04,-450.88C462.8,-441.31 475.67,-428.87 484,-415 494.29,-397.88 499.04,-375.31 501.22,-359.52"/>
<polygon fill="#63b8ff" stroke="#63b8ff" points="504.71,-359.73 502.38,-349.39 497.76,-358.92 504.71,-359.73"/>
</a>
</g>
</g>
<!-- Node41 -->
<g id="Node000041" class="node">
<title>Node41</title>
<g id="a_Node000041"><a xlink:href="parameters__lagrangian_8h.html" target="_top" xlink:title="Parameter structures for Lagrangian (DEM) particle simulations.">
<polygon fill="white" stroke="#666666" points="336.5,-409.5 173.5,-409.5 173.5,-390.5 336.5,-390.5 336.5,-409.5"/>
<text text-anchor="middle" x="255" y="-397.5" font-family="Helvetica,sans-Serif" font-size="10.00">core/parameters_lagrangian.h</text>
</a>
</g>
</g>
<!-- Node1&#45;&gt;Node41 -->
<g id="edge51_Node000001_Node000041" class="edge">
<title>Node1&#45;&gt;Node41</title>
<g id="a_edge51_Node000001_Node000041"><a xlink:title=" ">
<path fill="none" stroke="#63b8ff" d="M375.76,-450.96C346.63,-438.9 310.15,-423.81 284.95,-413.39"/>
<polygon fill="#63b8ff" stroke="#63b8ff" points="286.13,-410.09 275.56,-409.5 283.46,-416.56 286.13,-410.09"/>
</a>
</g>
</g>
<!-- Node43 -->
<g id="Node000043" class="node">
<title>Node43</title>
<g id="a_Node000043"><a xlink:href="solid__objects__parameters_8h.html" target="_top" xlink:title="Parameter classes for solid objects used in Nitsche immersed boundary and DEM simulations.">
<polygon fill="white" stroke="#666666" points="475,-415 371,-415 371,-385 475,-385 475,-415"/>
<text text-anchor="start" x="379" y="-403" font-family="Helvetica,sans-Serif" font-size="10.00">core/solid_objects</text>
<text text-anchor="middle" x="423" y="-392" font-family="Helvetica,sans-Serif" font-size="10.00">_parameters.h</text>
</a>
</g>
</g>
<!-- Node1&#45;&gt;Node43 -->
<g id="edge57_Node000001_Node000043" class="edge">
<title>Node1&#45;&gt;Node43</title>
<g id="a_edge57_Node000001_Node000043"><a xlink:title=" ">
<path fill="none" stroke="#63b8ff" d="M423,-450.77C423,-442.85 423,-433.63 423,-425.3"/>
<polygon fill="#63b8ff" stroke="#63b8ff" points="426.5,-425.04 423,-415.04 419.5,-425.04 426.5,-425.04"/>
</a>
</g>
</g>
<!-- Node3 -->
<g id="Node000003" class="node">
<title>Node3</title>
<g id="a_Node000003"><a xlink:href="dimensionality_8h.html" target="_top" xlink:title=" ">
<polygon fill="white" stroke="#666666" points="431.5,-222.5 310.5,-222.5 310.5,-203.5 431.5,-203.5 431.5,-222.5"/>
<text text-anchor="middle" x="371" y="-210.5" font-family="Helvetica,sans-Serif" font-size="10.00">core/dimensionality.h</text>
</a>
</g>
</g>
<!-- Node2&#45;&gt;Node3 -->
<g id="edge2_Node000002_Node000003" class="edge">
<title>Node2&#45;&gt;Node3</title>
<g id="a_edge2_Node000002_Node000003"><a xlink:title=" ">
<path fill="none" stroke="#63b8ff" d="M490.77,-329.81C478.92,-321.19 460.64,-307.38 446,-294 423.5,-273.44 399.81,-247.31 385.22,-230.62"/>
<polygon fill="#63b8ff" stroke="#63b8ff" points="387.66,-228.09 378.47,-222.83 382.37,-232.68 387.66,-228.09"/>
</a>
</g>
</g>
<!-- Node4 -->
<g id="Node000004" class="node">
<title>Node4</title>
<g id="a_Node000004"><a xlink:title=" ">
<polygon fill="#e0e0e0" stroke="#999999" points="183.5,-96 56.5,-96 56.5,-66 183.5,-66 183.5,-96"/>
<text text-anchor="start" x="64.5" y="-84" font-family="Helvetica,sans-Serif" font-size="10.00">deal.II/base/parameter</text>
<text text-anchor="middle" x="120" y="-73" font-family="Helvetica,sans-Serif" font-size="10.00">_handler.h</text>
</a>
</g>
</g>
<!-- Node2&#45;&gt;Node4 -->
<g id="edge48_Node000002_Node000004" class="edge">
<title>Node2&#45;&gt;Node4</title>
<g id="a_edge48_Node000002_Node000004"><a xlink:title=" ">
<path fill="none" stroke="#63b8ff" d="M501.1,-329.9C495.49,-306.29 477.08,-239.44 440,-198 401.47,-154.94 381.57,-153.66 328,-132 303.76,-122.2 243.26,-108.05 193.73,-97.31"/>
<polygon fill="#63b8ff" stroke="#63b8ff" points="194.17,-93.82 183.66,-95.14 192.7,-100.67 194.17,-93.82"/>
</a>
</g>
</g>
<!-- Node5 -->
<g id="Node000005" class="node">
<title>Node5</title>
<g id="a_Node000005"><a xlink:href="ib__particle_8h.html" target="_top" xlink:title=" ">
<polygon fill="white" stroke="#666666" points="2220.5,-288.5 2119.5,-288.5 2119.5,-269.5 2220.5,-269.5 2220.5,-288.5"/>
<text text-anchor="middle" x="2170" y="-276.5" font-family="Helvetica,sans-Serif" font-size="10.00">core/ib_particle.h</text>
</a>
</g>
</g>
<!-- Node2&#45;&gt;Node5 -->
<g id="edge4_Node000002_Node000005" class="edge">
<title>Node2&#45;&gt;Node5</title>
<g id="a_edge4_Node000002_Node000005"><a xlink:title=" ">
<path fill="none" stroke="#63b8ff" d="M556.11,-336.64C803.96,-327.94 1845.94,-291.37 2109.32,-282.13"/>
<polygon fill="#63b8ff" stroke="#63b8ff" points="2109.58,-285.62 2119.45,-281.77 2109.34,-278.63 2109.58,-285.62"/>
</a>
</g>
</g>
<!-- Node13 -->
<g id="Node000013" class="node">
<title>Node13</title>
<g id="a_Node000013"><a xlink:href="core_2utilities_8h.html" target="_top" xlink:title=" ">
<polygon fill="white" stroke="#666666" points="558,-156.5 472,-156.5 472,-137.5 558,-137.5 558,-156.5"/>
<text text-anchor="middle" x="515" y="-144.5" font-family="Helvetica,sans-Serif" font-size="10.00">core/utilities.h</text>
</a>
</g>
</g>
<!-- Node2&#45;&gt;Node13 -->
<g id="edge47_Node000002_Node000013" class="edge">
<title>Node2&#45;&gt;Node13</title>
<g id="a_edge47_Node000002_Node000013"><a xlink:title=" ">
<path fill="none" stroke="#63b8ff" d="M503.55,-329.82C505.37,-300.87 511.27,-207.2 513.81,-166.82"/>
<polygon fill="#63b8ff" stroke="#63b8ff" points="517.31,-166.93 514.45,-156.73 510.33,-166.49 517.31,-166.93"/>
</a>
</g>
</g>
<!-- Node38 -->
<g id="Node000038" class="node">
<title>Node38</title>
<g id="a_Node000038"><a xlink:title=" ">
<polygon fill="#e0e0e0" stroke="#999999" points="2436.5,-228 2327.5,-228 2327.5,-198 2436.5,-198 2436.5,-228"/>
<text text-anchor="start" x="2335.5" y="-216" font-family="Helvetica,sans-Serif" font-size="10.00">deal.II/base/parsed</text>
<text text-anchor="middle" x="2382" y="-205" font-family="Helvetica,sans-Serif" font-size="10.00">_function.h</text>
</a>
</g>
</g>
<!-- Node2&#45;&gt;Node38 -->
<g id="edge49_Node000002_Node000038" class="edge">
<title>Node2&#45;&gt;Node38</title>
<g id="a_edge49_Node000002_Node000038"><a xlink:title=" ">
<path fill="none" stroke="#63b8ff" d="M556.31,-338.57C829.37,-338.73 2064.94,-337.05 2230,-294 2276.55,-281.86 2324.79,-253.25 2354.1,-233.75"/>
<polygon fill="#63b8ff" stroke="#63b8ff" points="2356.25,-236.53 2362.57,-228.02 2352.33,-230.73 2356.25,-236.53"/>
</a>
</g>
</g>
<!-- Node39 -->
<g id="Node000039" class="node">
<title>Node39</title>
<g id="a_Node000039"><a xlink:href="multiphysics_8h.html" target="_top" xlink:title="Identifiers for multiphysics modules and their solution fields.">
<polygon fill="white" stroke="#666666" points="640,-288.5 528,-288.5 528,-269.5 640,-269.5 640,-288.5"/>
<text text-anchor="middle" x="584" y="-276.5" font-family="Helvetica,sans-Serif" font-size="10.00">core/multiphysics.h</text>
</a>
</g>
</g>
<!-- Node2&#45;&gt;Node39 -->
<g id="edge46_Node000002_Node000039" class="edge">
<title>Node2&#45;&gt;Node39</title>
<g id="a_edge46_Node000002_Node000039"><a xlink:title=" ">
<path fill="none" stroke="#63b8ff" d="M514.95,-329.87C527.75,-320.62 548.3,-305.78 563.65,-294.69"/>
<polygon fill="#63b8ff" stroke="#63b8ff" points="565.94,-297.36 572,-288.67 561.84,-291.68 565.94,-297.36"/>
</a>
</g>
</g>
<!-- Node40 -->
<g id="Node000040" class="node">
<title>Node40</title>
<g id="a_Node000040"><a xlink:title=" ">
<polygon fill="#e0e0e0" stroke="#999999" points="821.5,-294 658.5,-294 658.5,-264 821.5,-264 821.5,-294"/>
<text text-anchor="start" x="666.5" y="-282" font-family="Helvetica,sans-Serif" font-size="10.00">deal.II/multigrid/mg</text>
<text text-anchor="middle" x="740" y="-271" font-family="Helvetica,sans-Serif" font-size="10.00">_transfer_global_coarsening.h</text>
</a>
</g>
</g>
<!-- Node2&#45;&gt;Node40 -->
<g id="edge50_Node000002_Node000040" class="edge">
<title>Node2&#45;&gt;Node40</title>
<g id="a_edge50_Node000002_Node000040"><a xlink:title=" ">
<path fill="none" stroke="#63b8ff" d="M537.46,-329.99C572.91,-321.24 629.03,-307.39 673.22,-296.48"/>
<polygon fill="#63b8ff" stroke="#63b8ff" points="674.15,-299.86 683.02,-294.06 672.47,-293.06 674.15,-299.86"/>
</a>
</g>
</g>
<!-- Node3&#45;&gt;Node4 -->
<g id="edge3_Node000003_Node000004" class="edge">
<title>Node3&#45;&gt;Node4</title>
<g id="a_edge3_Node000003_Node000004"><a xlink:title=" ">
<path fill="none" stroke="#63b8ff" d="M365.13,-203.07C353.8,-186.51 327.22,-151.02 296,-132 278.27,-121.2 232.76,-108.39 192.46,-98.44"/>
<polygon fill="#63b8ff" stroke="#63b8ff" points="193.16,-95.01 182.61,-96.04 191.5,-101.81 193.16,-95.01"/>
</a>
</g>
</g>
<!-- Node6 -->
<g id="Node000006" class="node">
<title>Node6</title>
<g id="a_Node000006"><a xlink:href="dem__properties_8h.html" target="_top" xlink:title="DEM particle property definitions and output name management.">
<polygon fill="white" stroke="#666666" points="2321,-156.5 2195,-156.5 2195,-137.5 2321,-137.5 2321,-156.5"/>
<text text-anchor="middle" x="2258" y="-144.5" font-family="Helvetica,sans-Serif" font-size="10.00">core/dem_properties.h</text>
</a>
</g>
</g>
<!-- Node5&#45;&gt;Node6 -->
<g id="edge5_Node000005_Node000006" class="edge">
<title>Node5&#45;&gt;Node6</title>
<g id="a_edge5_Node000005_Node000006"><a xlink:title=" ">
<path fill="none" stroke="#63b8ff" d="M2175.77,-269.47C2190.07,-248.36 2227.31,-193.34 2246.38,-165.17"/>
<polygon fill="#63b8ff" stroke="#63b8ff" points="2249.38,-166.97 2252.09,-156.73 2243.59,-163.05 2249.38,-166.97"/>
</a>
</g>
</g>
<!-- Node8 -->
<g id="Node000008" class="node">
<title>Node8</title>
<g id="a_Node000008"><a xlink:title=" ">
<polygon fill="#e0e0e0" stroke="#999999" points="2281.5,-90.5 2234.5,-90.5 2234.5,-71.5 2281.5,-71.5 2281.5,-90.5"/>
<text text-anchor="middle" x="2258" y="-78.5" font-family="Helvetica,sans-Serif" font-size="10.00">vector</text>
</a>
</g>
</g>
<!-- Node5&#45;&gt;Node8 -->
<g id="edge45_Node000005_Node000008" class="edge">
<title>Node5&#45;&gt;Node8</title>
<g id="a_edge45_Node000005_Node000008"><a xlink:title=" ">
<path fill="none" stroke="#63b8ff" d="M2192.84,-269.47C2229.68,-254.32 2301,-218.85 2330,-162 2336.06,-150.12 2336.18,-143.81 2330,-132 2321.36,-115.47 2304.48,-103.31 2289.25,-95.12"/>
<polygon fill="#63b8ff" stroke="#63b8ff" points="2290.57,-91.87 2280.06,-90.53 2287.44,-98.13 2290.57,-91.87"/>
</a>
</g>
</g>
<!-- Node9 -->
<g id="Node000009" class="node">
<title>Node9</title>
<g id="a_Node000009"><a xlink:href="shape_8h.html" target="_top" xlink:title=" ">
<polygon fill="white" stroke="#666666" points="1345.5,-222.5 1266.5,-222.5 1266.5,-203.5 1345.5,-203.5 1345.5,-222.5"/>
<text text-anchor="middle" x="1306" y="-210.5" font-family="Helvetica,sans-Serif" font-size="10.00">core/shape.h</text>
</a>
</g>
</g>
<!-- Node5&#45;&gt;Node9 -->
<g id="edge8_Node000005_Node000009" class="edge">
<title>Node5&#45;&gt;Node9</title>
<g id="a_edge8_Node000005_Node000009"><a xlink:title=" ">
<path fill="none" stroke="#63b8ff" d="M2119.5,-274.26C1966.37,-262.92 1508.46,-229 1356,-217.7"/>
<polygon fill="#63b8ff" stroke="#63b8ff" points="1356.21,-214.21 1345.98,-216.96 1355.7,-221.19 1356.21,-214.21"/>
</a>
</g>
</g>
<!-- Node11 -->
<g id="Node000011" class="node">
<title>Node11</title>
<g id="a_Node000011"><a xlink:title=" ">
<polygon fill="#e0e0e0" stroke="#999999" points="2080,-90.5 1970,-90.5 1970,-71.5 2080,-71.5 2080,-90.5"/>
<text text-anchor="middle" x="2025" y="-78.5" font-family="Helvetica,sans-Serif" font-size="10.00">deal.II/base/point.h</text>
</a>
</g>
</g>
<!-- Node5&#45;&gt;Node11 -->
<g id="edge44_Node000005_Node000011" class="edge">
<title>Node5&#45;&gt;Node11</title>
<g id="a_edge44_Node000005_Node000011"><a xlink:title=" ">
<path fill="none" stroke="#63b8ff" d="M2168.47,-269.42C2163.77,-245.2 2147.53,-175.27 2110,-132 2095.8,-115.63 2074.87,-103.23 2057.33,-94.87"/>
<polygon fill="#63b8ff" stroke="#63b8ff" points="2058.55,-91.58 2048,-90.64 2055.66,-97.95 2058.55,-91.58"/>
</a>
</g>
</g>
<!-- Node5&#45;&gt;Node38 -->
<g id="edge43_Node000005_Node000038" class="edge">
<title>Node5&#45;&gt;Node38</title>
<g id="a_edge43_Node000005_Node000038"><a xlink:title=" ">
<path fill="none" stroke="#63b8ff" d="M2198.59,-269.37C2231.03,-259.58 2284.73,-243.37 2325.66,-231.01"/>
<polygon fill="#63b8ff" stroke="#63b8ff" points="2326.68,-234.36 2335.24,-228.12 2324.66,-227.66 2326.68,-234.36"/>
</a>
</g>
</g>
<!-- Node7 -->
<g id="Node000007" class="node">
<title>Node7</title>
<g id="a_Node000007"><a xlink:title=" ">
<polygon fill="#e0e0e0" stroke="#999999" points="2189,-90.5 2145,-90.5 2145,-71.5 2189,-71.5 2189,-90.5"/>
<text text-anchor="middle" x="2167" y="-78.5" font-family="Helvetica,sans-Serif" font-size="10.00">string</text>
</a>
</g>
</g>
<!-- Node6&#45;&gt;Node7 -->
<g id="edge6_Node000006_Node000007" class="edge">
<title>Node6&#45;&gt;Node7</title>
<g id="a_edge6_Node000006_Node000007"><a xlink:title=" ">
<path fill="none" stroke="#63b8ff" d="M2245.73,-137.37C2230.94,-126.97 2205.85,-109.32 2187.97,-96.75"/>
<polygon fill="#63b8ff" stroke="#63b8ff" points="2189.56,-93.59 2179.37,-90.7 2185.54,-99.31 2189.56,-93.59"/>
</a>
</g>
</g>
<!-- Node6&#45;&gt;Node8 -->
<g id="edge7_Node000006_Node000008" class="edge">
<title>Node6&#45;&gt;Node8</title>
<g id="a_edge7_Node000006_Node000008"><a xlink:title=" ">
<path fill="none" stroke="#63b8ff" d="M2258,-137.37C2258,-128.16 2258,-113.29 2258,-101.27"/>
<polygon fill="#63b8ff" stroke="#63b8ff" points="2261.5,-100.91 2258,-90.91 2254.5,-100.91 2261.5,-100.91"/>
</a>
</g>
</g>
<!-- Node10 -->
<g id="Node000010" class="node">
<title>Node10</title>
<g id="a_Node000010"><a xlink:href="tensors__and__points__dimension__manipulation_8h.html" target="_top" xlink:title=" ">
<polygon fill="white" stroke="#666666" points="2101,-162 1949,-162 1949,-132 2101,-132 2101,-162"/>
<text text-anchor="start" x="1957" y="-150" font-family="Helvetica,sans-Serif" font-size="10.00">core/tensors_and_points</text>
<text text-anchor="middle" x="2025" y="-139" font-family="Helvetica,sans-Serif" font-size="10.00">_dimension_manipulation.h</text>
</a>
</g>
</g>
<!-- Node9&#45;&gt;Node10 -->
<g id="edge9_Node000009_Node000010" class="edge">
<title>Node9&#45;&gt;Node10</title>
<g id="a_edge9_Node000009_Node000010"><a xlink:title=" ">
<path fill="none" stroke="#63b8ff" d="M1345.8,-210.03C1444.44,-204.91 1708.25,-189.67 1938.35,-162.13"/>
<polygon fill="#63b8ff" stroke="#63b8ff" points="1939.08,-165.57 1948.59,-160.9 1938.24,-158.62 1939.08,-165.57"/>
</a>
</g>
</g>
<!-- Node9&#45;&gt;Node13 -->
<g id="edge12_Node000009_Node000013" class="edge">
<title>Node9&#45;&gt;Node13</title>
<g id="a_edge12_Node000009_Node000013"><a xlink:title=" ">
<path fill="none" stroke="#63b8ff" d="M1266.35,-211.7C1155.77,-210.35 834.82,-202.91 572,-162 566.59,-161.16 560.94,-160.05 555.38,-158.83"/>
<polygon fill="#63b8ff" stroke="#63b8ff" points="556.1,-155.4 545.57,-156.54 554.51,-162.22 556.1,-155.4"/>
</a>
</g>
</g>
<!-- Node18 -->
<g id="Node000018" class="node">
<title>Node18</title>
<g id="a_Node000018"><a xlink:title=" ">
<polygon fill="#e0e0e0" stroke="#999999" points="1517,-90.5 1377,-90.5 1377,-71.5 1517,-71.5 1517,-90.5"/>
<text text-anchor="middle" x="1447" y="-78.5" font-family="Helvetica,sans-Serif" font-size="10.00">deal.II/dofs/dof_handler.h</text>
</a>
</g>
</g>
<!-- Node9&#45;&gt;Node18 -->
<g id="edge38_Node000009_Node000018" class="edge">
<title>Node9&#45;&gt;Node18</title>
<g id="a_edge38_Node000009_Node000018"><a xlink:title=" ">
<path fill="none" stroke="#63b8ff" d="M1266.27,-212.24C1124.61,-212.7 650.21,-210.55 605,-162 595.91,-152.24 595.8,-141.65 605,-132 634.29,-101.29 1325.83,-100.71 1368,-96 1376.56,-95.04 1385.59,-93.73 1394.36,-92.3"/>
<polygon fill="#63b8ff" stroke="#63b8ff" points="1395.24,-95.7 1404.51,-90.56 1394.06,-88.8 1395.24,-95.7"/>
</a>
</g>
</g>
<!-- Node28 -->
<g id="Node000028" class="node">
<title>Node28</title>
<g id="a_Node000028"><a xlink:title=" ">
<polygon fill="#e0e0e0" stroke="#999999" points="1787,-162 1635,-162 1635,-132 1787,-132 1787,-162"/>
<text text-anchor="start" x="1643" y="-150" font-family="Helvetica,sans-Serif" font-size="10.00">deal.II/base/auto_derivative</text>
<text text-anchor="middle" x="1711" y="-139" font-family="Helvetica,sans-Serif" font-size="10.00">_function.h</text>
</a>
</g>
</g>
<!-- Node9&#45;&gt;Node28 -->
<g id="edge32_Node000009_Node000028" class="edge">
<title>Node9&#45;&gt;Node28</title>
<g id="a_edge32_Node000009_Node000028"><a xlink:title=" ">
<path fill="none" stroke="#63b8ff" d="M1345.68,-205.91C1404.34,-196.88 1517.95,-179.3 1624.58,-162.22"/>
<polygon fill="#63b8ff" stroke="#63b8ff" points="1625.23,-165.66 1634.55,-160.62 1624.12,-158.75 1625.23,-165.66"/>
</a>
</g>
</g>
<!-- Node29 -->
<g id="Node000029" class="node">
<title>Node29</title>
<g id="a_Node000029"><a xlink:title=" ">
<polygon fill="#e0e0e0" stroke="#999999" points="1930.5,-156.5 1805.5,-156.5 1805.5,-137.5 1930.5,-137.5 1930.5,-156.5"/>
<text text-anchor="middle" x="1868" y="-144.5" font-family="Helvetica,sans-Serif" font-size="10.00">deal.II/base/function.h</text>
</a>
</g>
</g>
<!-- Node9&#45;&gt;Node29 -->
<g id="edge33_Node000009_Node000029" class="edge">
<title>Node9&#45;&gt;Node29</title>
<g id="a_edge33_Node000009_Node000029"><a xlink:title=" ">
<path fill="none" stroke="#63b8ff" d="M1345.53,-209.19C1429.02,-202.97 1629.36,-186.65 1796,-162 1802.86,-160.99 1810.05,-159.77 1817.13,-158.48"/>
<polygon fill="#63b8ff" stroke="#63b8ff" points="1818.18,-161.85 1827.37,-156.57 1816.89,-154.97 1818.18,-161.85"/>
</a>
</g>
</g>
<!-- Node30 -->
<g id="Node000030" class="node">
<title>Node30</title>
<g id="a_Node000030"><a xlink:title=" ">
<polygon fill="#e0e0e0" stroke="#999999" points="738,-156.5 614,-156.5 614,-137.5 738,-137.5 738,-156.5"/>
<text text-anchor="middle" x="676" y="-144.5" font-family="Helvetica,sans-Serif" font-size="10.00">deal.II/grid/manifold.h</text>
</a>
</g>
</g>
<!-- Node9&#45;&gt;Node30 -->
<g id="edge34_Node000009_Node000030" class="edge">
<title>Node9&#45;&gt;Node30</title>
<g id="a_edge34_Node000009_Node000030"><a xlink:title=" ">
<path fill="none" stroke="#63b8ff" d="M1266.26,-209.84C1174.58,-204.57 941.33,-189.38 748,-162 740.81,-160.98 733.24,-159.72 725.83,-158.38"/>
<polygon fill="#63b8ff" stroke="#63b8ff" points="726.34,-154.91 715.86,-156.51 725.05,-161.79 726.34,-154.91"/>
</a>
</g>
</g>
<!-- Node31 -->
<g id="Node000031" class="node">
<title>Node31</title>
<g id="a_Node000031"><a xlink:title=" ">
<polygon fill="#e0e0e0" stroke="#999999" points="871.5,-162 756.5,-162 756.5,-132 871.5,-132 871.5,-162"/>
<text text-anchor="start" x="764.5" y="-150" font-family="Helvetica,sans-Serif" font-size="10.00">deal.II/grid/manifold</text>
<text text-anchor="middle" x="814" y="-139" font-family="Helvetica,sans-Serif" font-size="10.00">_lib.h</text>
</a>
</g>
</g>
<!-- Node9&#45;&gt;Node31 -->
<g id="edge35_Node000009_Node000031" class="edge">
<title>Node9&#45;&gt;Node31</title>
<g id="a_edge35_Node000009_Node000031"><a xlink:title=" ">
<path fill="none" stroke="#63b8ff" d="M1266.29,-208.52C1192.59,-201.79 1029.51,-185.72 881.84,-162.04"/>
<polygon fill="#63b8ff" stroke="#63b8ff" points="882.11,-158.54 871.68,-160.39 880.99,-165.45 882.11,-158.54"/>
</a>
</g>
</g>
<!-- Node32 -->
<g id="Node000032" class="node">
<title>Node32</title>
<g id="a_Node000032"><a xlink:title=" ">
<polygon fill="#e0e0e0" stroke="#999999" points="1004.5,-162 889.5,-162 889.5,-132 1004.5,-132 1004.5,-162"/>
<text text-anchor="start" x="897.5" y="-150" font-family="Helvetica,sans-Serif" font-size="10.00">boost/range/adaptor</text>
<text text-anchor="middle" x="947" y="-139" font-family="Helvetica,sans-Serif" font-size="10.00">/map.hpp</text>
</a>
</g>
</g>
<!-- Node9&#45;&gt;Node32 -->
<g id="edge36_Node000009_Node000032" class="edge">
<title>Node9&#45;&gt;Node32</title>
<g id="a_edge36_Node000009_Node000032"><a xlink:title=" ">
<path fill="none" stroke="#63b8ff" d="M1266.24,-205.66C1211.85,-196.89 1110.93,-180.24 1014.62,-162.08"/>
<polygon fill="#63b8ff" stroke="#63b8ff" points="1015.19,-158.62 1004.72,-160.2 1013.89,-165.5 1015.19,-158.62"/>
</a>
</g>
</g>
<!-- Node33 -->
<g id="Node000033" class="node">
<title>Node33</title>
<g id="a_Node000033"><a xlink:title=" ">
<polygon fill="#e0e0e0" stroke="#999999" points="1139,-162 1023,-162 1023,-132 1139,-132 1139,-162"/>
<text text-anchor="start" x="1031" y="-150" font-family="Helvetica,sans-Serif" font-size="10.00">deal.II/base/function</text>
<text text-anchor="middle" x="1081" y="-139" font-family="Helvetica,sans-Serif" font-size="10.00">_signed_distance.h</text>
</a>
</g>
</g>
<!-- Node9&#45;&gt;Node33 -->
<g id="edge37_Node000009_Node000033" class="edge">
<title>Node9&#45;&gt;Node33</title>
<g id="a_edge37_Node000009_Node000033"><a xlink:title=" ">
<path fill="none" stroke="#63b8ff" d="M1275.66,-203.37C1241.08,-193.54 1183.76,-177.23 1140.24,-164.85"/>
<polygon fill="#63b8ff" stroke="#63b8ff" points="1141.2,-161.49 1130.63,-162.12 1139.29,-168.22 1141.2,-161.49"/>
</a>
</g>
</g>
<!-- Node34 -->
<g id="Node000034" class="node">
<title>Node34</title>
<g id="a_Node000034"><a xlink:title=" ">
<polygon fill="#e0e0e0" stroke="#999999" points="1285,-156.5 1157,-156.5 1157,-137.5 1285,-137.5 1285,-156.5"/>
<text text-anchor="middle" x="1221" y="-144.5" font-family="Helvetica,sans-Serif" font-size="10.00">deal.II/dofs/dof_tools.h</text>
</a>
</g>
</g>
<!-- Node9&#45;&gt;Node34 -->
<g id="edge39_Node000009_Node000034" class="edge">
<title>Node9&#45;&gt;Node34</title>
<g id="a_edge39_Node000009_Node000034"><a xlink:title=" ">
<path fill="none" stroke="#63b8ff" d="M1294.54,-203.37C1280.72,-192.97 1257.29,-175.32 1240.59,-162.75"/>
<polygon fill="#63b8ff" stroke="#63b8ff" points="1242.65,-159.92 1232.55,-156.7 1238.44,-165.51 1242.65,-159.92"/>
</a>
</g>
</g>
<!-- Node35 -->
<g id="Node000035" class="node">
<title>Node35</title>
<g id="a_Node000035"><a xlink:title=" ">
<polygon fill="#e0e0e0" stroke="#999999" points="1479,-156.5 1303,-156.5 1303,-137.5 1479,-137.5 1479,-156.5"/>
<text text-anchor="middle" x="1391" y="-144.5" font-family="Helvetica,sans-Serif" font-size="10.00">deal.II/physics/transformations.h</text>
</a>
</g>
</g>
<!-- Node9&#45;&gt;Node35 -->
<g id="edge40_Node000009_Node000035" class="edge">
<title>Node9&#45;&gt;Node35</title>
<g id="a_edge40_Node000009_Node000035"><a xlink:title=" ">
<path fill="none" stroke="#63b8ff" d="M1317.46,-203.37C1331.28,-192.97 1354.71,-175.32 1371.41,-162.75"/>
<polygon fill="#63b8ff" stroke="#63b8ff" points="1373.56,-165.51 1379.45,-156.7 1369.35,-159.92 1373.56,-165.51"/>
</a>
</g>
</g>
<!-- Node36 -->
<g id="Node000036" class="node">
<title>Node36</title>
<g id="a_Node000036"><a xlink:title=" ">
<polygon fill="#e0e0e0" stroke="#999999" points="1541,-156.5 1497,-156.5 1497,-137.5 1541,-137.5 1541,-156.5"/>
<text text-anchor="middle" x="1519" y="-144.5" font-family="Helvetica,sans-Serif" font-size="10.00">cfloat</text>
</a>
</g>
</g>
<!-- Node9&#45;&gt;Node36 -->
<g id="edge41_Node000009_Node000036" class="edge">
<title>Node9&#45;&gt;Node36</title>
<g id="a_edge41_Node000009_Node000036"><a xlink:title=" ">
<path fill="none" stroke="#63b8ff" d="M1343.83,-203.43C1381.02,-194.59 1439.14,-179.62 1488,-162 1489.22,-161.56 1490.46,-161.09 1491.7,-160.61"/>
<polygon fill="#63b8ff" stroke="#63b8ff" points="1493.3,-163.73 1501.16,-156.63 1490.59,-157.28 1493.3,-163.73"/>
</a>
</g>
</g>
<!-- Node37 -->
<g id="Node000037" class="node">
<title>Node37</title>
<g id="a_Node000037"><a xlink:title=" ">
<polygon fill="#e0e0e0" stroke="#999999" points="1617,-156.5 1559,-156.5 1559,-137.5 1617,-137.5 1617,-156.5"/>
<text text-anchor="middle" x="1588" y="-144.5" font-family="Helvetica,sans-Serif" font-size="10.00">memory</text>
</a>
</g>
</g>
<!-- Node9&#45;&gt;Node37 -->
<g id="edge42_Node000009_Node000037" class="edge">
<title>Node9&#45;&gt;Node37</title>
<g id="a_edge42_Node000009_Node000037"><a xlink:title=" ">
<path fill="none" stroke="#63b8ff" d="M1345.74,-205.75C1394.41,-197.67 1479.1,-182.2 1550,-162 1552.28,-161.35 1554.62,-160.63 1556.97,-159.86"/>
<polygon fill="#63b8ff" stroke="#63b8ff" points="1558.18,-163.15 1566.48,-156.57 1555.89,-156.53 1558.18,-163.15"/>
</a>
</g>
</g>
<!-- Node10&#45;&gt;Node11 -->
<g id="edge10_Node000010_Node000011" class="edge">
<title>Node10&#45;&gt;Node11</title>
<g id="a_edge10_Node000010_Node000011"><a xlink:title=" ">
<path fill="none" stroke="#63b8ff" d="M2025,-131.8C2025,-122.7 2025,-110.79 2025,-100.9"/>
<polygon fill="#63b8ff" stroke="#63b8ff" points="2028.5,-100.84 2025,-90.84 2021.5,-100.84 2028.5,-100.84"/>
</a>
</g>
</g>
<!-- Node12 -->
<g id="Node000012" class="node">
<title>Node12</title>
<g id="a_Node000012"><a xlink:title=" ">
<polygon fill="#e0e0e0" stroke="#999999" points="1818.5,-90.5 1703.5,-90.5 1703.5,-71.5 1818.5,-71.5 1818.5,-90.5"/>
<text text-anchor="middle" x="1761" y="-78.5" font-family="Helvetica,sans-Serif" font-size="10.00">deal.II/base/tensor.h</text>
</a>
</g>
</g>
<!-- Node10&#45;&gt;Node12 -->
<g id="edge11_Node000010_Node000012" class="edge">
<title>Node10&#45;&gt;Node12</title>
<g id="a_edge11_Node000010_Node000012"><a xlink:title=" ">
<path fill="none" stroke="#63b8ff" d="M1967.06,-131.95C1918.62,-120.21 1850.51,-103.7 1806.07,-92.93"/>
<polygon fill="#63b8ff" stroke="#63b8ff" points="1806.68,-89.47 1796.13,-90.52 1805.03,-96.27 1806.68,-89.47"/>
</a>
</g>
</g>
<!-- Node13&#45;&gt;Node4 -->
<g id="edge16_Node000013_Node000004" class="edge">
<title>Node13&#45;&gt;Node4</title>
<g id="a_edge16_Node000013_Node000004"><a xlink:title=" ">
<path fill="none" stroke="#63b8ff" d="M482.88,-137.48C474.79,-135.51 466.11,-133.54 458,-132 344,-110.35 311.48,-115.11 193.71,-96.22"/>
<polygon fill="#63b8ff" stroke="#63b8ff" points="194,-92.72 183.57,-94.57 192.88,-99.63 194,-92.72"/>
</a>
</g>
</g>
<!-- Node13&#45;&gt;Node7 -->
<g id="edge29_Node000013_Node000007" class="edge">
<title>Node13&#45;&gt;Node7</title>
<g id="a_edge29_Node000013_Node000007"><a xlink:title=" ">
<path fill="none" stroke="#63b8ff" d="M558.35,-138.09C573.1,-135.71 589.72,-133.37 605,-132 1262.12,-73.17 1432.61,-162.47 2089,-96 2104.16,-94.46 2120.81,-91.64 2134.81,-88.92"/>
<polygon fill="#63b8ff" stroke="#63b8ff" points="2135.82,-92.29 2144.94,-86.89 2134.44,-85.43 2135.82,-92.29"/>
</a>
</g>
</g>
<!-- Node13&#45;&gt;Node8 -->
<g id="edge31_Node000013_Node000008" class="edge">
<title>Node13&#45;&gt;Node8</title>
<g id="a_edge31_Node000013_Node000008"><a xlink:title=" ">
<path fill="none" stroke="#63b8ff" d="M558.35,-138.07C573.1,-135.69 589.72,-133.36 605,-132 1310.41,-69.44 1495.43,-184.93 2198,-96 2206.6,-94.91 2215.77,-93.11 2224.28,-91.15"/>
<polygon fill="#63b8ff" stroke="#63b8ff" points="2225.37,-94.49 2234.26,-88.73 2223.72,-87.69 2225.37,-94.49"/>
</a>
</g>
</g>
<!-- Node13&#45;&gt;Node11 -->
<g id="edge17_Node000013_Node000011" class="edge">
<title>Node13&#45;&gt;Node11</title>
<g id="a_edge17_Node000013_Node000011"><a xlink:title=" ">
<path fill="none" stroke="#63b8ff" d="M558.35,-138.14C573.11,-135.76 589.73,-133.41 605,-132 1146.5,-82.11 1284.89,-123.28 1828,-96 1872.01,-93.79 1921.48,-90.27 1959.84,-87.31"/>
<polygon fill="#63b8ff" stroke="#63b8ff" points="1960.14,-90.8 1969.84,-86.54 1959.6,-83.82 1960.14,-90.8"/>
</a>
</g>
</g>
<!-- Node13&#45;&gt;Node12 -->
<g id="edge19_Node000013_Node000012" class="edge">
<title>Node13&#45;&gt;Node12</title>
<g id="a_edge19_Node000013_Node000012"><a xlink:title=" ">
<path fill="none" stroke="#63b8ff" d="M558.36,-138.22C573.11,-135.85 589.73,-133.48 605,-132 1012.73,-92.45 1116.85,-116.18 1526,-96 1582.29,-93.22 1646.11,-89.38 1693.03,-86.42"/>
<polygon fill="#63b8ff" stroke="#63b8ff" points="1693.31,-89.91 1703.07,-85.78 1692.87,-82.92 1693.31,-89.91"/>
</a>
</g>
</g>
<!-- Node14 -->
<g id="Node000014" class="node">
<title>Node14</title>
<g id="a_Node000014"><a xlink:href="output__struct_8h.html" target="_top" xlink:title=" ">
<polygon fill="#fff0f0" stroke="red" points="763,-90.5 649,-90.5 649,-71.5 763,-71.5 763,-90.5"/>
<text text-anchor="middle" x="706" y="-78.5" font-family="Helvetica,sans-Serif" font-size="10.00">core/output_struct.h</text>
</a>
</g>
</g>
<!-- Node13&#45;&gt;Node14 -->
<g id="edge13_Node000013_Node000014" class="edge">
<title>Node13&#45;&gt;Node14</title>
<g id="a_edge13_Node000013_Node000014"><a xlink:title=" ">
<path fill="none" stroke="#63b8ff" d="M540.76,-137.37C574.32,-126.12 633.13,-106.42 670.79,-93.8"/>
<polygon fill="#63b8ff" stroke="#63b8ff" points="671.97,-97.09 680.34,-90.6 669.75,-90.46 671.97,-97.09"/>
</a>
</g>
</g>
<!-- Node15 -->
<g id="Node000015" class="node">
<title>Node15</title>
<g id="a_Node000015"><a xlink:title=" ">
<polygon fill="#e0e0e0" stroke="#999999" points="798.5,-30 697.5,-30 697.5,0 798.5,0 798.5,-30"/>
<text text-anchor="start" x="705.5" y="-18" font-family="Helvetica,sans-Serif" font-size="10.00">deal.II/base/table</text>
<text text-anchor="middle" x="748" y="-7" font-family="Helvetica,sans-Serif" font-size="10.00">_handler.h</text>
</a>
</g>
</g>
<!-- Node13&#45;&gt;Node15 -->
<g id="edge18_Node000013_Node000015" class="edge">
<title>Node13&#45;&gt;Node15</title>
<g id="a_edge18_Node000013_Node000015"><a xlink:title=" ">
<path fill="none" stroke="#63b8ff" d="M558.18,-138.32C630.5,-125.35 768.59,-100.14 772,-96 785.43,-79.71 775.82,-56.06 765.03,-38.71"/>
<polygon fill="#63b8ff" stroke="#63b8ff" points="767.86,-36.65 759.4,-30.27 762.04,-40.53 767.86,-36.65"/>
</a>
</g>
</g>
<!-- Node17 -->
<g id="Node000017" class="node">
<title>Node17</title>
<g id="a_Node000017"><a xlink:title=" ">
<polygon fill="#e0e0e0" stroke="#999999" points="949,-96 819,-96 819,-66 949,-66 949,-96"/>
<text text-anchor="start" x="827" y="-84" font-family="Helvetica,sans-Serif" font-size="10.00">deal.II/base/conditional</text>
<text text-anchor="middle" x="884" y="-73" font-family="Helvetica,sans-Serif" font-size="10.00">_ostream.h</text>
</a>
</g>
</g>
<!-- Node13&#45;&gt;Node17 -->
<g id="edge15_Node000013_Node000017" class="edge">
<title>Node13&#45;&gt;Node17</title>
<g id="a_edge15_Node000013_Node000017"><a xlink:title=" ">
<path fill="none" stroke="#63b8ff" d="M547.74,-137.44C555.66,-135.51 564.11,-133.58 572,-132 674.76,-111.48 701.63,-113.14 805,-96 806.28,-95.79 807.56,-95.57 808.86,-95.36"/>
<polygon fill="#63b8ff" stroke="#63b8ff" points="809.65,-98.77 818.92,-93.65 808.48,-91.87 809.65,-98.77"/>
</a>
</g>
</g>
<!-- Node13&#45;&gt;Node18 -->
<g id="edge20_Node000013_Node000018" class="edge">
<title>Node13&#45;&gt;Node18</title>
<g id="a_edge20_Node000013_Node000018"><a xlink:title=" ">
<path fill="none" stroke="#63b8ff" d="M544.96,-137.48C553.62,-135.33 563.12,-133.28 572,-132 922.52,-81.52 1016.01,-134.98 1368,-96 1376.75,-95.03 1386,-93.69 1394.96,-92.21"/>
<polygon fill="#63b8ff" stroke="#63b8ff" points="1395.65,-95.64 1404.92,-90.5 1394.47,-88.74 1395.65,-95.64"/>
</a>
</g>
</g>
<!-- Node19 -->
<g id="Node000019" class="node">
<title>Node19</title>
<g id="a_Node000019"><a xlink:title=" ">
<polygon fill="#e0e0e0" stroke="#999999" points="1086.5,-90.5 967.5,-90.5 967.5,-71.5 1086.5,-71.5 1086.5,-90.5"/>
<text text-anchor="middle" x="1027" y="-78.5" font-family="Helvetica,sans-Serif" font-size="10.00">deal.II/fe/fe_values.h</text>
</a>
</g>
</g>
<!-- Node13&#45;&gt;Node19 -->
<g id="edge21_Node000013_Node000019" class="edge">
<title>Node13&#45;&gt;Node19</title>
<g id="a_edge21_Node000013_Node000019"><a xlink:title=" ">
<path fill="none" stroke="#63b8ff" d="M546.19,-137.46C554.52,-135.42 563.56,-133.42 572,-132 741.91,-103.37 787.55,-121.17 958,-96 964.74,-95 971.82,-93.78 978.77,-92.47"/>
<polygon fill="#63b8ff" stroke="#63b8ff" points="979.66,-95.86 988.81,-90.51 978.32,-88.99 979.66,-95.86"/>
</a>
</g>
</g>
<!-- Node20 -->
<g id="Node000020" class="node">
<title>Node20</title>
<g id="a_Node000020"><a xlink:title=" ">
<polygon fill="#e0e0e0" stroke="#999999" points="1235.5,-96 1104.5,-96 1104.5,-66 1235.5,-66 1235.5,-96"/>
<text text-anchor="start" x="1112.5" y="-84" font-family="Helvetica,sans-Serif" font-size="10.00">deal.II/particles/particle</text>
<text text-anchor="middle" x="1170" y="-73" font-family="Helvetica,sans-Serif" font-size="10.00">_iterator.h</text>
</a>
</g>
</g>
<!-- Node13&#45;&gt;Node20 -->
<g id="edge22_Node000013_Node000020" class="edge">
<title>Node13&#45;&gt;Node20</title>
<g id="a_edge22_Node000013_Node000020"><a xlink:title=" ">
<path fill="none" stroke="#63b8ff" d="M545.57,-137.46C554.07,-135.37 563.34,-133.35 572,-132 799.38,-96.54 862.68,-124.92 1094.21,-96.12"/>
<polygon fill="#63b8ff" stroke="#63b8ff" points="1094.82,-99.58 1104.3,-94.85 1093.94,-92.63 1094.82,-99.58"/>
</a>
</g>
</g>
<!-- Node21 -->
<g id="Node000021" class="node">
<title>Node21</title>
<g id="a_Node000021"><a xlink:title=" ">
<polygon fill="#e0e0e0" stroke="#999999" points="1358.5,-96 1253.5,-96 1253.5,-66 1358.5,-66 1358.5,-96"/>
<text text-anchor="start" x="1261.5" y="-84" font-family="Helvetica,sans-Serif" font-size="10.00">boost/archive/text</text>
<text text-anchor="middle" x="1306" y="-73" font-family="Helvetica,sans-Serif" font-size="10.00">_iarchive.hpp</text>
</a>
</g>
</g>
<!-- Node13&#45;&gt;Node21 -->
<g id="edge23_Node000013_Node000021" class="edge">
<title>Node13&#45;&gt;Node21</title>
<g id="a_edge23_Node000013_Node000021"><a xlink:title=" ">
<path fill="none" stroke="#63b8ff" d="M545.26,-137.45C553.84,-135.33 563.23,-133.3 572,-132 864.97,-88.58 946.55,-136.55 1243.02,-96.12"/>
<polygon fill="#63b8ff" stroke="#63b8ff" points="1243.78,-99.54 1253.2,-94.7 1242.82,-92.61 1243.78,-99.54"/>
</a>
</g>
</g>
<!-- Node22 -->
<g id="Node000022" class="node">
<title>Node22</title>
<g id="a_Node000022"><a xlink:title=" ">
<polygon fill="#e0e0e0" stroke="#999999" points="306.5,-96 201.5,-96 201.5,-66 306.5,-66 306.5,-96"/>
<text text-anchor="start" x="209.5" y="-84" font-family="Helvetica,sans-Serif" font-size="10.00">boost/archive/text</text>
<text text-anchor="middle" x="254" y="-73" font-family="Helvetica,sans-Serif" font-size="10.00">_oarchive.hpp</text>
</a>
</g>
</g>
<!-- Node13&#45;&gt;Node22 -->
<g id="edge24_Node000013_Node000022" class="edge">
<title>Node13&#45;&gt;Node22</title>
<g id="a_edge24_Node000013_Node000022"><a xlink:title=" ">
<path fill="none" stroke="#63b8ff" d="M480.34,-137.48C472.96,-135.67 465.22,-133.77 458,-132 410.66,-120.39 357.14,-107.27 316.8,-97.38"/>
<polygon fill="#63b8ff" stroke="#63b8ff" points="317.38,-93.92 306.84,-94.94 315.72,-100.72 317.38,-93.92"/>
</a>
</g>
</g>
<!-- Node23 -->
<g id="Node000023" class="node">
<title>Node23</title>
<g id="a_Node000023"><a xlink:title=" ">
<polygon fill="#e0e0e0" stroke="#999999" points="435,-96 325,-96 325,-66 435,-66 435,-96"/>
<text text-anchor="start" x="333" y="-84" font-family="Helvetica,sans-Serif" font-size="10.00">boost/math/special</text>
<text text-anchor="middle" x="380" y="-73" font-family="Helvetica,sans-Serif" font-size="10.00">_functions/erf.hpp</text>
</a>
</g>
</g>
<!-- Node13&#45;&gt;Node23 -->
<g id="edge25_Node000013_Node000023" class="edge">
<title>Node13&#45;&gt;Node23</title>
<g id="a_edge25_Node000013_Node000023"><a xlink:title=" ">
<path fill="none" stroke="#63b8ff" d="M496.79,-137.37C476.92,-127.95 444.52,-112.59 418.88,-100.43"/>
<polygon fill="#63b8ff" stroke="#63b8ff" points="420.31,-97.24 409.78,-96.12 417.31,-103.56 420.31,-97.24"/>
</a>
</g>
</g>
<!-- Node24 -->
<g id="Node000024" class="node">
<title>Node24</title>
<g id="a_Node000024"><a xlink:title=" ">
<polygon fill="#e0e0e0" stroke="#999999" points="508.5,-90.5 453.5,-90.5 453.5,-71.5 508.5,-71.5 508.5,-90.5"/>
<text text-anchor="middle" x="481" y="-78.5" font-family="Helvetica,sans-Serif" font-size="10.00">fstream</text>
</a>
</g>
</g>
<!-- Node13&#45;&gt;Node24 -->
<g id="edge26_Node000013_Node000024" class="edge">
<title>Node13&#45;&gt;Node24</title>
<g id="a_edge26_Node000013_Node000024"><a xlink:title=" ">
<path fill="none" stroke="#63b8ff" d="M510.41,-137.37C505.32,-127.78 496.96,-112.05 490.46,-99.8"/>
<polygon fill="#63b8ff" stroke="#63b8ff" points="493.51,-98.09 485.73,-90.91 487.33,-101.38 493.51,-98.09"/>
</a>
</g>
</g>
<!-- Node25 -->
<g id="Node000025" class="node">
<title>Node25</title>
<g id="a_Node000025"><a xlink:title=" ">
<polygon fill="#e0e0e0" stroke="#999999" points="38,-90.5 0,-90.5 0,-71.5 38,-71.5 38,-90.5"/>
<text text-anchor="middle" x="19" y="-78.5" font-family="Helvetica,sans-Serif" font-size="10.00">map</text>
</a>
</g>
</g>
<!-- Node13&#45;&gt;Node25 -->
<g id="edge27_Node000013_Node000025" class="edge">
<title>Node13&#45;&gt;Node25</title>
<g id="a_edge27_Node000013_Node000025"><a xlink:title=" ">
<path fill="none" stroke="#63b8ff" d="M471.74,-146.46C387.98,-146.26 198.54,-140.4 47,-96 45.74,-95.63 44.47,-95.21 43.19,-94.74"/>
<polygon fill="#63b8ff" stroke="#63b8ff" points="44.27,-91.39 33.71,-90.58 41.46,-97.8 44.27,-91.39"/>
</a>
</g>
</g>
<!-- Node26 -->
<g id="Node000026" class="node">
<title>Node26</title>
<g id="a_Node000026"><a xlink:title=" ">
<polygon fill="#e0e0e0" stroke="#999999" points="571,-90.5 527,-90.5 527,-71.5 571,-71.5 571,-90.5"/>
<text text-anchor="middle" x="549" y="-78.5" font-family="Helvetica,sans-Serif" font-size="10.00">regex</text>
</a>
</g>
</g>
<!-- Node13&#45;&gt;Node26 -->
<g id="edge28_Node000013_Node000026" class="edge">
<title>Node13&#45;&gt;Node26</title>
<g id="a_edge28_Node000013_Node000026"><a xlink:title=" ">
<path fill="none" stroke="#63b8ff" d="M519.59,-137.37C524.68,-127.78 533.04,-112.05 539.54,-99.8"/>
<polygon fill="#63b8ff" stroke="#63b8ff" points="542.67,-101.38 544.27,-90.91 536.49,-98.09 542.67,-101.38"/>
</a>
</g>
</g>
<!-- Node27 -->
<g id="Node000027" class="node">
<title>Node27</title>
<g id="a_Node000027"><a xlink:title=" ">
<polygon fill="#e0e0e0" stroke="#999999" points="630.5,-90.5 589.5,-90.5 589.5,-71.5 630.5,-71.5 630.5,-90.5"/>
<text text-anchor="middle" x="610" y="-78.5" font-family="Helvetica,sans-Serif" font-size="10.00">tuple</text>
</a>
</g>
</g>
<!-- Node13&#45;&gt;Node27 -->
<g id="edge30_Node000013_Node000027" class="edge">
<title>Node13&#45;&gt;Node27</title>
<g id="a_edge30_Node000013_Node000027"><a xlink:title=" ">
<path fill="none" stroke="#63b8ff" d="M527.81,-137.37C543.39,-126.87 569.93,-109 588.62,-96.4"/>
<polygon fill="#63b8ff" stroke="#63b8ff" points="590.75,-99.19 597.09,-90.7 586.84,-93.38 590.75,-99.19"/>
</a>
</g>
</g>
<!-- Node14&#45;&gt;Node15 -->
<g id="edge14_Node000014_Node000015" class="edge">
<title>Node14&#45;&gt;Node15</title>
<g id="a_edge14_Node000014_Node000015"><a xlink:title=" ">
<path fill="none" stroke="#63b8ff" d="M711.66,-71.37C717.11,-63.08 725.57,-50.18 732.96,-38.92"/>
<polygon fill="#63b8ff" stroke="#63b8ff" points="736.02,-40.64 738.58,-30.36 730.16,-36.8 736.02,-40.64"/>
</a>
</g>
</g>
<!-- Node41&#45;&gt;Node2 -->
<g id="edge52_Node000041_Node000002" class="edge">
<title>Node41&#45;&gt;Node2</title>
<g id="a_edge52_Node000041_Node000002"><a xlink:title=" ">
<path fill="none" stroke="#63b8ff" d="M291.06,-390.49C334.96,-380.14 409.15,-362.64 457.08,-351.33"/>
<polygon fill="#63b8ff" stroke="#63b8ff" points="457.97,-354.72 466.9,-349.02 456.36,-347.91 457.97,-354.72"/>
</a>
</g>
</g>
<!-- Node41&#45;&gt;Node4 -->
<g id="edge53_Node000041_Node000004" class="edge">
<title>Node41&#45;&gt;Node4</title>
<g id="a_edge53_Node000041_Node000004"><a xlink:title=" ">
<path fill="none" stroke="#63b8ff" d="M241.57,-390.32C216.26,-372.78 164,-330.46 164,-280 164,-280 164,-280 164,-212 164,-172.91 145.93,-130.54 132.95,-105.14"/>
<polygon fill="#63b8ff" stroke="#63b8ff" points="136.04,-103.49 128.28,-96.28 129.85,-106.76 136.04,-103.49"/>
</a>
</g>
</g>
<!-- Node41&#45;&gt;Node7 -->
<g id="edge56_Node000041_Node000007" class="edge">
<title>Node41&#45;&gt;Node7</title>
<g id="a_edge56_Node000041_Node000007"><a xlink:title=" ">
<path fill="none" stroke="#63b8ff" d="M267.12,-390.34C303.26,-365.1 414.22,-291.63 519,-264 861.57,-173.65 1802.45,-337.87 2110,-162 2134.36,-148.07 2150.95,-119 2159.7,-100.01"/>
<polygon fill="#63b8ff" stroke="#63b8ff" points="2162.99,-101.22 2163.75,-90.65 2156.56,-98.44 2162.99,-101.22"/>
</a>
</g>
</g>
<!-- Node41&#45;&gt;Node25 -->
<g id="edge54_Node000041_Node000025" class="edge">
<title>Node41&#45;&gt;Node25</title>
<g id="a_edge54_Node000041_Node000025"><a xlink:title=" ">
<path fill="none" stroke="#63b8ff" d="M221.85,-390.48C174.98,-376.2 95,-342.66 95,-280 95,-280 95,-280 95,-212 95,-165.46 58.25,-120.79 35.86,-97.89"/>
<polygon fill="#63b8ff" stroke="#63b8ff" points="38.2,-95.27 28.63,-90.73 33.27,-100.25 38.2,-95.27"/>
</a>
</g>
</g>
<!-- Node42 -->
<g id="Node000042" class="node">
<title>Node42</title>
<g id="a_Node000042"><a xlink:title=" ">
<polygon fill="#e0e0e0" stroke="#999999" points="254,-349 222,-349 222,-330 254,-330 254,-349"/>
<text text-anchor="middle" x="238" y="-337" font-family="Helvetica,sans-Serif" font-size="10.00">set</text>
</a>
</g>
</g>
<!-- Node41&#45;&gt;Node42 -->
<g id="edge55_Node000041_Node000042" class="edge">
<title>Node41&#45;&gt;Node42</title>
<g id="a_edge55_Node000041_Node000042"><a xlink:title=" ">
<path fill="none" stroke="#63b8ff" d="M252.49,-390.37C250.11,-382.16 246.44,-369.54 243.39,-359.05"/>
<polygon fill="#63b8ff" stroke="#63b8ff" points="246.67,-357.79 240.52,-349.17 239.95,-359.75 246.67,-357.79"/>
</a>
</g>
</g>
<!-- Node43&#45;&gt;Node2 -->
<g id="edge58_Node000043_Node000002" class="edge">
<title>Node43&#45;&gt;Node2</title>
<g id="a_edge58_Node000043_Node000002"><a xlink:title=" ">
<path fill="none" stroke="#63b8ff" d="M442.37,-384.84C454.57,-375.91 470.31,-364.41 482.69,-355.35"/>
<polygon fill="#63b8ff" stroke="#63b8ff" points="485.01,-357.99 491.01,-349.27 480.87,-352.34 485.01,-357.99"/>
</a>
</g>
</g>
<!-- Node43&#45;&gt;Node4 -->
<g id="edge59_Node000043_Node000004" class="edge">
<title>Node43&#45;&gt;Node4</title>
<g id="a_edge59_Node000043_Node000004"><a xlink:title=" ">
<path fill="none" stroke="#63b8ff" d="M382.97,-384.93C341.29,-367.42 282,-333.17 282,-280 282,-280 282,-280 282,-212 282,-155.32 220.94,-119.24 173.79,-99.82"/>
<polygon fill="#63b8ff" stroke="#63b8ff" points="174.85,-96.48 164.27,-96.05 172.27,-102.99 174.85,-96.48"/>
</a>
</g>
</g>
<!-- Node43&#45;&gt;Node38 -->
<g id="edge60_Node000043_Node000038" class="edge">
<title>Node43&#45;&gt;Node38</title>
<g id="a_edge60_Node000043_Node000038"><a xlink:title=" ">
<path fill="none" stroke="#63b8ff" d="M475.24,-397.88C758.62,-391.56 2105.01,-358.35 2278,-294 2311.36,-281.59 2342.74,-254.52 2362.13,-235.32"/>
<polygon fill="#63b8ff" stroke="#63b8ff" points="2364.68,-237.72 2369.2,-228.14 2359.69,-232.81 2364.68,-237.72"/>
</a>
</g>
</g>
</g>
</svg>
