<?xml version="1.0" encoding="UTF-8" standalone="no"?>
<!DOCTYPE svg PUBLIC "-//W3C//DTD SVG 1.1//EN"
 "http://www.w3.org/Graphics/SVG/1.1/DTD/svg11.dtd">
<!-- Generated by graphviz version 2.43.0 (0)
 -->
<!-- Title: /home/runner/work/lethe/lethe/include/dem/dem.h Pages: 1 -->
<svg width="557pt" height="280pt"
 viewBox="0.00 0.00 556.50 280.00" xmlns="http://www.w3.org/2000/svg" xmlns:xlink="http://www.w3.org/1999/xlink">
<g id="graph0" class="graph" transform="scale(1 1) rotate(0) translate(4 276)">
<title>/home/runner/work/lethe/lethe/include/dem/dem.h</title>
<!-- Node1 -->
<g id="Node000001" class="node">
<title>Node1</title>
<g id="a_Node000001"><a xlink:title=" ">
<polygon fill="#999999" stroke="#666666" points="340.5,-272 199.5,-272 199.5,-242 340.5,-242 340.5,-272"/>
<text text-anchor="start" x="207.5" y="-260" font-family="Helvetica,sans-Serif" font-size="10.00">/home/runner/work/lethe</text>
<text text-anchor="middle" x="270" y="-249" font-family="Helvetica,sans-Serif" font-size="10.00">/lethe/include/dem/dem.h</text>
</a>
</g>
</g>
<!-- Node2 -->
<g id="Node000002" class="node">
<title>Node2</title>
<g id="a_Node000002"><a xlink:href="cfd__dem__coupling_8h.html" target="_top" xlink:title=" ">
<polygon fill="white" stroke="#666666" points="301.5,-123.5 164.5,-123.5 164.5,-82.5 301.5,-82.5 301.5,-123.5"/>
<text text-anchor="start" x="172.5" y="-111.5" font-family="Helvetica,sans-Serif" font-size="10.00">/home/runner/work/lethe</text>
<text text-anchor="start" x="172.5" y="-100.5" font-family="Helvetica,sans-Serif" font-size="10.00">/lethe/include/fem&#45;dem</text>
<text text-anchor="middle" x="233" y="-89.5" font-family="Helvetica,sans-Serif" font-size="10.00">/cfd_dem_coupling.h</text>
</a>
</g>
</g>
<!-- Node1&#45;&gt;Node2 -->
<g id="edge1_Node000001_Node000002" class="edge">
<title>Node1&#45;&gt;Node2</title>
<g id="a_edge1_Node000001_Node000002"><a xlink:title=" ">
<path fill="none" stroke="#63b8ff" d="M253.96,-233.31C248.94,-225.08 243.95,-215.47 241,-206 232.39,-178.36 231.5,-144.56 231.99,-123.66"/>
<polygon fill="#63b8ff" stroke="#63b8ff" points="251.17,-235.43 259.53,-241.93 257.05,-231.63 251.17,-235.43"/>
</a>
</g>
</g>
<!-- Node4 -->
<g id="Node000004" class="node">
<title>Node4</title>
<g id="a_Node000004"><a xlink:href="cfd__dem__coupling__matrix__free_8h.html" target="_top" xlink:title=" ">
<polygon fill="white" stroke="#666666" points="183.5,-206 4.5,-206 4.5,-165 183.5,-165 183.5,-206"/>
<text text-anchor="start" x="12.5" y="-194" font-family="Helvetica,sans-Serif" font-size="10.00">/home/runner/work/lethe</text>
<text text-anchor="start" x="12.5" y="-183" font-family="Helvetica,sans-Serif" font-size="10.00">/lethe/include/fem&#45;dem</text>
<text text-anchor="middle" x="94" y="-172" font-family="Helvetica,sans-Serif" font-size="10.00">/cfd_dem_coupling_matrix_free.h</text>
</a>
</g>
</g>
<!-- Node1&#45;&gt;Node4 -->
<g id="edge3_Node000001_Node000004" class="edge">
<title>Node1&#45;&gt;Node4</title>
<g id="a_edge3_Node000001_Node000004"><a xlink:title=" ">
<path fill="none" stroke="#63b8ff" d="M224.83,-238.16C199.97,-228.35 169.09,-216.15 143.57,-206.07"/>
<polygon fill="#63b8ff" stroke="#63b8ff" points="223.8,-241.52 234.38,-241.94 226.37,-235.01 223.8,-241.52"/>
</a>
</g>
</g>
<!-- Node6 -->
<g id="Node000006" class="node">
<title>Node6</title>
<g id="a_Node000006"><a xlink:href="fluid__dynamics__vans_8h.html" target="_top" xlink:title=" ">
<polygon fill="white" stroke="#666666" points="387.5,-206 250.5,-206 250.5,-165 387.5,-165 387.5,-206"/>
<text text-anchor="start" x="258.5" y="-194" font-family="Helvetica,sans-Serif" font-size="10.00">/home/runner/work/lethe</text>
<text text-anchor="start" x="258.5" y="-183" font-family="Helvetica,sans-Serif" font-size="10.00">/lethe/include/fem&#45;dem</text>
<text text-anchor="middle" x="319" y="-172" font-family="Helvetica,sans-Serif" font-size="10.00">/fluid_dynamics_vans.h</text>
</a>
</g>
</g>
<!-- Node1&#45;&gt;Node6 -->
<g id="edge5_Node000001_Node000006" class="edge">
<title>Node1&#45;&gt;Node6</title>
<g id="a_edge5_Node000001_Node000006"><a xlink:title=" ">
<path fill="none" stroke="#63b8ff" d="M285.8,-233.59C292.05,-224.73 299.16,-214.63 305.2,-206.07"/>
<polygon fill="#63b8ff" stroke="#63b8ff" points="282.82,-231.75 279.92,-241.94 288.54,-235.78 282.82,-231.75"/>
</a>
</g>
</g>
<!-- Node8 -->
<g id="Node000008" class="node">
<title>Node8</title>
<g id="a_Node000008"><a xlink:href="dem_8cc.html" target="_top" xlink:title=" ">
<polygon fill="white" stroke="#666666" points="548.5,-200.5 405.5,-200.5 405.5,-170.5 548.5,-170.5 548.5,-200.5"/>
<text text-anchor="start" x="413.5" y="-188.5" font-family="Helvetica,sans-Serif" font-size="10.00">/home/runner/work/lethe</text>
<text text-anchor="middle" x="477" y="-177.5" font-family="Helvetica,sans-Serif" font-size="10.00">/lethe/source/dem/dem.cc</text>
</a>
</g>
</g>
<!-- Node1&#45;&gt;Node8 -->
<g id="edge8_Node000001_Node000008" class="edge">
<title>Node1&#45;&gt;Node8</title>
<g id="a_edge8_Node000001_Node000008"><a xlink:title=" ">
<path fill="none" stroke="#63b8ff" d="M321.47,-238.72C356.54,-226.95 402.36,-211.56 435.17,-200.54"/>
<polygon fill="#63b8ff" stroke="#63b8ff" points="320.26,-235.43 311.89,-241.94 322.48,-242.07 320.26,-235.43"/>
</a>
</g>
</g>
<!-- Node3 -->
<g id="Node000003" class="node">
<title>Node3</title>
<g id="a_Node000003"><a xlink:href="cfd__dem__coupling_8cc.html" target="_top" xlink:title=" ">
<polygon fill="white" stroke="#666666" points="301.5,-41 164.5,-41 164.5,0 301.5,0 301.5,-41"/>
<text text-anchor="start" x="172.5" y="-29" font-family="Helvetica,sans-Serif" font-size="10.00">/home/runner/work/lethe</text>
<text text-anchor="start" x="172.5" y="-18" font-family="Helvetica,sans-Serif" font-size="10.00">/lethe/source/fem&#45;dem</text>
<text text-anchor="middle" x="233" y="-7" font-family="Helvetica,sans-Serif" font-size="10.00">/cfd_dem_coupling.cc</text>
</a>
</g>
</g>
<!-- Node2&#45;&gt;Node3 -->
<g id="edge2_Node000002_Node000003" class="edge">
<title>Node2&#45;&gt;Node3</title>
<g id="a_edge2_Node000002_Node000003"><a xlink:title=" ">
<path fill="none" stroke="#63b8ff" d="M233,-71.87C233,-61.6 233,-50.4 233,-41.17"/>
<polygon fill="#63b8ff" stroke="#63b8ff" points="229.5,-72.1 233,-82.1 236.5,-72.1 229.5,-72.1"/>
</a>
</g>
</g>
<!-- Node5 -->
<g id="Node000005" class="node">
<title>Node5</title>
<g id="a_Node000005"><a xlink:href="cfd__dem__coupling__matrix__free_8cc.html" target="_top" xlink:title=" ">
<polygon fill="white" stroke="#666666" points="146,-129 0,-129 0,-77 146,-77 146,-129"/>
<text text-anchor="start" x="8" y="-117" font-family="Helvetica,sans-Serif" font-size="10.00">/home/runner/work/lethe</text>
<text text-anchor="start" x="8" y="-106" font-family="Helvetica,sans-Serif" font-size="10.00">/lethe/source/fem&#45;dem</text>
<text text-anchor="start" x="8" y="-95" font-family="Helvetica,sans-Serif" font-size="10.00">/cfd_dem_coupling_matrix</text>
<text text-anchor="middle" x="73" y="-84" font-family="Helvetica,sans-Serif" font-size="10.00">_free.cc</text>
</a>
</g>
</g>
<!-- Node4&#45;&gt;Node5 -->
<g id="edge4_Node000004_Node000005" class="edge">
<title>Node4&#45;&gt;Node5</title>
<g id="a_edge4_Node000004_Node000005"><a xlink:title=" ">
<path fill="none" stroke="#63b8ff" d="M86.24,-154.77C84.05,-146.35 81.68,-137.27 79.56,-129.16"/>
<polygon fill="#63b8ff" stroke="#63b8ff" points="82.9,-155.81 88.81,-164.6 89.67,-154.04 82.9,-155.81"/>
</a>
</g>
</g>
<!-- Node6&#45;&gt;Node2 -->
<g id="edge6_Node000006_Node000002" class="edge">
<title>Node6&#45;&gt;Node2</title>
<g id="a_edge6_Node000006_Node000002"><a xlink:title=" ">
<path fill="none" stroke="#63b8ff" d="M290.23,-157.57C278.38,-146.48 264.91,-133.87 254.01,-123.67"/>
<polygon fill="#63b8ff" stroke="#63b8ff" points="288.05,-160.32 297.74,-164.6 292.83,-155.21 288.05,-160.32"/>
</a>
</g>
</g>
<!-- Node7 -->
<g id="Node000007" class="node">
<title>Node7</title>
<g id="a_Node000007"><a xlink:href="fluid__dynamics__vans_8cc.html" target="_top" xlink:title=" ">
<polygon fill="white" stroke="#666666" points="456.5,-123.5 319.5,-123.5 319.5,-82.5 456.5,-82.5 456.5,-123.5"/>
<text text-anchor="start" x="327.5" y="-111.5" font-family="Helvetica,sans-Serif" font-size="10.00">/home/runner/work/lethe</text>
<text text-anchor="start" x="327.5" y="-100.5" font-family="Helvetica,sans-Serif" font-size="10.00">/lethe/source/fem&#45;dem</text>
<text text-anchor="middle" x="388" y="-89.5" font-family="Helvetica,sans-Serif" font-size="10.00">/fluid_dynamics_vans.cc</text>
</a>
</g>
</g>
<!-- Node6&#45;&gt;Node7 -->
<g id="edge7_Node000006_Node000007" class="edge">
<title>Node6&#45;&gt;Node7</title>
<g id="a_edge7_Node000006_Node000007"><a xlink:title=" ">
<path fill="none" stroke="#63b8ff" d="M342.62,-156.94C352,-146 362.56,-133.68 371.14,-123.67"/>
<polygon fill="#63b8ff" stroke="#63b8ff" points="339.91,-154.73 336.06,-164.6 345.22,-159.29 339.91,-154.73"/>
</a>
</g>
</g>
</g>
</svg>
