<?xml version="1.0" encoding="UTF-8" standalone="no"?>
<!DOCTYPE svg PUBLIC "-//W3C//DTD SVG 1.1//EN"
 "http://www.w3.org/Graphics/SVG/1.1/DTD/svg11.dtd">
<!-- Generated by graphviz version 2.43.0 (0)
 -->
<!-- Title: /home/runner/work/lethe/lethe/source/dem/distributions.cc Pages: 1 -->
<svg width="1914pt" height="533pt"
 viewBox="0.00 0.00 1913.50 533.00" xmlns="http://www.w3.org/2000/svg" xmlns:xlink="http://www.w3.org/1999/xlink">
<g id="graph0" class="graph" transform="scale(1 1) rotate(0) translate(4 529)">
<title>/home/runner/work/lethe/lethe/source/dem/distributions.cc</title>
<!-- Node1 -->
<g id="Node000001" class="node">
<title>Node1</title>
<g id="a_Node000001"><a xlink:title=" ">
<polygon fill="#999999" stroke="#666666" points="1035,-525 853,-525 853,-495 1035,-495 1035,-525"/>
<text text-anchor="start" x="861" y="-513" font-family="Helvetica,sans-Serif" font-size="10.00">/home/runner/work/lethe</text>
<text text-anchor="middle" x="944" y="-502" font-family="Helvetica,sans-Serif" font-size="10.00">/lethe/source/dem/distributions.cc</text>
</a>
</g>
</g>
<!-- Node2 -->
<g id="Node000002" class="node">
<title>Node2</title>
<g id="a_Node000002"><a xlink:href="utilities_8h.html" target="_top" xlink:title=" ">
<polygon fill="white" stroke="#666666" points="1020,-151 934,-151 934,-132 1020,-132 1020,-151"/>
<text text-anchor="middle" x="977" y="-139" font-family="Helvetica,sans-Serif" font-size="10.00">core/utilities.h</text>
</a>
</g>
</g>
<!-- Node1&#45;&gt;Node2 -->
<g id="edge1_Node000001_Node000002" class="edge">
<title>Node1&#45;&gt;Node2</title>
<g id="a_edge1_Node000001_Node000002"><a xlink:title=" ">
<path fill="none" stroke="#63b8ff" d="M852.67,-500.72C780.55,-488.56 692,-458.55 692,-384.5 692,-384.5 692,-384.5 692,-267 692,-167.07 840.97,-146.56 923.51,-142.86"/>
<polygon fill="#63b8ff" stroke="#63b8ff" points="923.85,-146.35 933.71,-142.48 923.59,-139.36 923.85,-146.35"/>
</a>
</g>
</g>
<!-- Node22 -->
<g id="Node000022" class="node">
<title>Node22</title>
<g id="a_Node000022"><a xlink:href="distributions_8h.html" target="_top" xlink:title=" ">
<polygon fill="white" stroke="#666666" points="876.5,-453.5 765.5,-453.5 765.5,-434.5 876.5,-434.5 876.5,-453.5"/>
<text text-anchor="middle" x="821" y="-441.5" font-family="Helvetica,sans-Serif" font-size="10.00">dem/distributions.h</text>
</a>
</g>
</g>
<!-- Node1&#45;&gt;Node22 -->
<g id="edge22_Node000001_Node000022" class="edge">
<title>Node1&#45;&gt;Node22</title>
<g id="a_edge22_Node000001_Node000022"><a xlink:title=" ">
<path fill="none" stroke="#63b8ff" d="M917.01,-494.95C896.01,-484.03 867.07,-468.97 846.47,-458.25"/>
<polygon fill="#63b8ff" stroke="#63b8ff" points="847.86,-455.03 837.37,-453.52 844.62,-461.24 847.86,-455.03"/>
</a>
</g>
</g>
<!-- Node44 -->
<g id="Node000044" class="node">
<title>Node44</title>
<g id="a_Node000044"><a xlink:title=" ">
<polygon fill="#e0e0e0" stroke="#999999" points="993.5,-459 894.5,-459 894.5,-429 993.5,-429 993.5,-459"/>
<text text-anchor="start" x="902.5" y="-447" font-family="Helvetica,sans-Serif" font-size="10.00">deal.II/lac/lapack</text>
<text text-anchor="middle" x="944" y="-436" font-family="Helvetica,sans-Serif" font-size="10.00">_full_matrix.h</text>
</a>
</g>
</g>
<!-- Node1&#45;&gt;Node44 -->
<g id="edge45_Node000001_Node000044" class="edge">
<title>Node1&#45;&gt;Node44</title>
<g id="a_edge45_Node000001_Node000044"><a xlink:title=" ">
<path fill="none" stroke="#63b8ff" d="M944,-494.8C944,-487.34 944,-477.99 944,-469.41"/>
<polygon fill="#63b8ff" stroke="#63b8ff" points="947.5,-469.16 944,-459.16 940.5,-469.16 947.5,-469.16"/>
</a>
</g>
</g>
<!-- Node45 -->
<g id="Node000045" class="node">
<title>Node45</title>
<g id="a_Node000045"><a xlink:title=" ">
<polygon fill="#e0e0e0" stroke="#999999" points="1070.5,-453.5 1011.5,-453.5 1011.5,-434.5 1070.5,-434.5 1070.5,-453.5"/>
<text text-anchor="middle" x="1041" y="-441.5" font-family="Helvetica,sans-Serif" font-size="10.00">numbers</text>
</a>
</g>
</g>
<!-- Node1&#45;&gt;Node45 -->
<g id="edge46_Node000001_Node000045" class="edge">
<title>Node1&#45;&gt;Node45</title>
<g id="a_edge46_Node000001_Node000045"><a xlink:title=" ">
<path fill="none" stroke="#63b8ff" d="M965.53,-494.8C981.48,-484.27 1003.15,-469.97 1019.18,-459.4"/>
<polygon fill="#63b8ff" stroke="#63b8ff" points="1021.46,-462.09 1027.88,-453.66 1017.6,-456.24 1021.46,-462.09"/>
</a>
</g>
</g>
<!-- Node46 -->
<g id="Node000046" class="node">
<title>Node46</title>
<g id="a_Node000046"><a xlink:title=" ">
<polygon fill="#e0e0e0" stroke="#999999" points="1145,-453.5 1089,-453.5 1089,-434.5 1145,-434.5 1145,-453.5"/>
<text text-anchor="middle" x="1117" y="-441.5" font-family="Helvetica,sans-Serif" font-size="10.00">numeric</text>
</a>
</g>
</g>
<!-- Node1&#45;&gt;Node46 -->
<g id="edge47_Node000001_Node000046" class="edge">
<title>Node1&#45;&gt;Node46</title>
<g id="a_edge47_Node000001_Node000046"><a xlink:title=" ">
<path fill="none" stroke="#63b8ff" d="M982.43,-494.98C1009.69,-485.01 1047.12,-471.26 1080,-459 1081.59,-458.41 1083.22,-457.8 1084.87,-457.18"/>
<polygon fill="#63b8ff" stroke="#63b8ff" points="1086.19,-460.42 1094.31,-453.62 1083.72,-453.87 1086.19,-460.42"/>
</a>
</g>
</g>
<!-- Node3 -->
<g id="Node000003" class="node">
<title>Node3</title>
<g id="a_Node000003"><a xlink:href="output__struct_8h.html" target="_top" xlink:title=" ">
<polygon fill="white" stroke="#666666" points="1454,-90.5 1340,-90.5 1340,-71.5 1454,-71.5 1454,-90.5"/>
<text text-anchor="middle" x="1397" y="-78.5" font-family="Helvetica,sans-Serif" font-size="10.00">core/output_struct.h</text>
</a>
</g>
</g>
<!-- Node2&#45;&gt;Node3 -->
<g id="edge2_Node000002_Node000003" class="edge">
<title>Node2&#45;&gt;Node3</title>
<g id="a_edge2_Node000002_Node000003"><a xlink:title=" ">
<path fill="none" stroke="#63b8ff" d="M1020.12,-135.96C1086.16,-128.78 1216.27,-113.79 1326,-96 1332.58,-94.93 1339.49,-93.71 1346.3,-92.43"/>
<polygon fill="#63b8ff" stroke="#63b8ff" points="1347,-95.86 1356.16,-90.54 1345.68,-88.99 1347,-95.86"/>
</a>
</g>
</g>
<!-- Node4 -->
<g id="Node000004" class="node">
<title>Node4</title>
<g id="a_Node000004"><a xlink:title=" ">
<polygon fill="#e0e0e0" stroke="#999999" points="1362.5,-30 1261.5,-30 1261.5,0 1362.5,0 1362.5,-30"/>
<text text-anchor="start" x="1269.5" y="-18" font-family="Helvetica,sans-Serif" font-size="10.00">deal.II/base/table</text>
<text text-anchor="middle" x="1312" y="-7" font-family="Helvetica,sans-Serif" font-size="10.00">_handler.h</text>
</a>
</g>
</g>
<!-- Node2&#45;&gt;Node4 -->
<g id="edge8_Node000002_Node000004" class="edge">
<title>Node2&#45;&gt;Node4</title>
<g id="a_edge8_Node000002_Node000004"><a xlink:title=" ">
<path fill="none" stroke="#63b8ff" d="M1020.21,-140.24C1097.23,-138.86 1253.88,-131.63 1293,-96 1308.28,-82.08 1312.35,-58.32 1313.01,-40.3"/>
<polygon fill="#63b8ff" stroke="#63b8ff" points="1316.51,-40.23 1313.05,-30.22 1309.51,-40.2 1316.51,-40.23"/>
</a>
</g>
</g>
<!-- Node6 -->
<g id="Node000006" class="node">
<title>Node6</title>
<g id="a_Node000006"><a xlink:title=" ">
<polygon fill="#e0e0e0" stroke="#999999" points="1602,-96 1472,-96 1472,-66 1602,-66 1602,-96"/>
<text text-anchor="start" x="1480" y="-84" font-family="Helvetica,sans-Serif" font-size="10.00">deal.II/base/conditional</text>
<text text-anchor="middle" x="1537" y="-73" font-family="Helvetica,sans-Serif" font-size="10.00">_ostream.h</text>
</a>
</g>
</g>
<!-- Node2&#45;&gt;Node6 -->
<g id="edge5_Node000002_Node000006" class="edge">
<title>Node2&#45;&gt;Node6</title>
<g id="a_edge5_Node000002_Node000006"><a xlink:title=" ">
<path fill="none" stroke="#63b8ff" d="M1020.07,-137.95C1103.39,-132.7 1292.63,-119.33 1461.61,-96.11"/>
<polygon fill="#63b8ff" stroke="#63b8ff" points="1462.26,-99.55 1471.69,-94.71 1461.3,-92.62 1462.26,-99.55"/>
</a>
</g>
</g>
<!-- Node7 -->
<g id="Node000007" class="node">
<title>Node7</title>
<g id="a_Node000007"><a xlink:title=" ">
<polygon fill="#e0e0e0" stroke="#999999" points="1905.5,-96 1778.5,-96 1778.5,-66 1905.5,-66 1905.5,-96"/>
<text text-anchor="start" x="1786.5" y="-84" font-family="Helvetica,sans-Serif" font-size="10.00">deal.II/base/parameter</text>
<text text-anchor="middle" x="1842" y="-73" font-family="Helvetica,sans-Serif" font-size="10.00">_handler.h</text>
</a>
</g>
</g>
<!-- Node2&#45;&gt;Node7 -->
<g id="edge6_Node000002_Node000007" class="edge">
<title>Node2&#45;&gt;Node7</title>
<g id="a_edge6_Node000002_Node000007"><a xlink:title=" ">
<path fill="none" stroke="#63b8ff" d="M1020.11,-140.09C1138.15,-138.55 1476.65,-131.26 1768.03,-95.99"/>
<polygon fill="#63b8ff" stroke="#63b8ff" points="1768.88,-99.41 1778.38,-94.72 1768.03,-92.46 1768.88,-99.41"/>
</a>
</g>
</g>
<!-- Node8 -->
<g id="Node000008" class="node">
<title>Node8</title>
<g id="a_Node000008"><a xlink:title=" ">
<polygon fill="#e0e0e0" stroke="#999999" points="238,-90.5 128,-90.5 128,-71.5 238,-71.5 238,-90.5"/>
<text text-anchor="middle" x="183" y="-78.5" font-family="Helvetica,sans-Serif" font-size="10.00">deal.II/base/point.h</text>
</a>
</g>
</g>
<!-- Node2&#45;&gt;Node8 -->
<g id="edge7_Node000002_Node000008" class="edge">
<title>Node2&#45;&gt;Node8</title>
<g id="a_edge7_Node000002_Node000008"><a xlink:title=" ">
<path fill="none" stroke="#63b8ff" d="M933.95,-138.75C798.33,-133.1 381.09,-114.64 247,-96 240.64,-95.12 233.98,-93.94 227.45,-92.65"/>
<polygon fill="#63b8ff" stroke="#63b8ff" points="227.87,-89.16 217.37,-90.54 226.44,-96.01 227.87,-89.16"/>
</a>
</g>
</g>
<!-- Node9 -->
<g id="Node000009" class="node">
<title>Node9</title>
<g id="a_Node000009"><a xlink:title=" ">
<polygon fill="#e0e0e0" stroke="#999999" points="371.5,-90.5 256.5,-90.5 256.5,-71.5 371.5,-71.5 371.5,-90.5"/>
<text text-anchor="middle" x="314" y="-78.5" font-family="Helvetica,sans-Serif" font-size="10.00">deal.II/base/tensor.h</text>
</a>
</g>
</g>
<!-- Node2&#45;&gt;Node9 -->
<g id="edge9_Node000002_Node000009" class="edge">
<title>Node2&#45;&gt;Node9</title>
<g id="a_edge9_Node000002_Node000009"><a xlink:title=" ">
<path fill="none" stroke="#63b8ff" d="M933.71,-139.27C835.03,-136.03 586.04,-125.4 380,-96 373.38,-95.06 366.43,-93.84 359.62,-92.51"/>
<polygon fill="#63b8ff" stroke="#63b8ff" points="360.31,-89.08 349.81,-90.51 358.91,-95.94 360.31,-89.08"/>
</a>
</g>
</g>
<!-- Node10 -->
<g id="Node000010" class="node">
<title>Node10</title>
<g id="a_Node000010"><a xlink:title=" ">
<polygon fill="#e0e0e0" stroke="#999999" points="1760,-90.5 1620,-90.5 1620,-71.5 1760,-71.5 1760,-90.5"/>
<text text-anchor="middle" x="1690" y="-78.5" font-family="Helvetica,sans-Serif" font-size="10.00">deal.II/dofs/dof_handler.h</text>
</a>
</g>
</g>
<!-- Node2&#45;&gt;Node10 -->
<g id="edge10_Node000002_Node000010" class="edge">
<title>Node2&#45;&gt;Node10</title>
<g id="a_edge10_Node000002_Node000010"><a xlink:title=" ">
<path fill="none" stroke="#63b8ff" d="M1020.2,-139.04C1122.94,-135.22 1389.79,-123.29 1611,-96 1619.35,-94.97 1628.15,-93.65 1636.73,-92.23"/>
<polygon fill="#63b8ff" stroke="#63b8ff" points="1637.4,-95.66 1646.66,-90.53 1636.21,-88.77 1637.4,-95.66"/>
</a>
</g>
</g>
<!-- Node11 -->
<g id="Node000011" class="node">
<title>Node11</title>
<g id="a_Node000011"><a xlink:title=" ">
<polygon fill="#e0e0e0" stroke="#999999" points="508.5,-90.5 389.5,-90.5 389.5,-71.5 508.5,-71.5 508.5,-90.5"/>
<text text-anchor="middle" x="449" y="-78.5" font-family="Helvetica,sans-Serif" font-size="10.00">deal.II/fe/fe_values.h</text>
</a>
</g>
</g>
<!-- Node2&#45;&gt;Node11 -->
<g id="edge11_Node000002_Node000011" class="edge">
<title>Node2&#45;&gt;Node11</title>
<g id="a_edge11_Node000002_Node000011"><a xlink:title=" ">
<path fill="none" stroke="#63b8ff" d="M933.69,-137.86C851.91,-132.52 669.33,-118.98 517,-96 510.59,-95.03 503.86,-93.85 497.25,-92.59"/>
<polygon fill="#63b8ff" stroke="#63b8ff" points="497.48,-89.07 486.99,-90.57 496.13,-95.94 497.48,-89.07"/>
</a>
</g>
</g>
<!-- Node12 -->
<g id="Node000012" class="node">
<title>Node12</title>
<g id="a_Node000012"><a xlink:title=" ">
<polygon fill="#e0e0e0" stroke="#999999" points="657.5,-96 526.5,-96 526.5,-66 657.5,-66 657.5,-96"/>
<text text-anchor="start" x="534.5" y="-84" font-family="Helvetica,sans-Serif" font-size="10.00">deal.II/particles/particle</text>
<text text-anchor="middle" x="592" y="-73" font-family="Helvetica,sans-Serif" font-size="10.00">_iterator.h</text>
</a>
</g>
</g>
<!-- Node2&#45;&gt;Node12 -->
<g id="edge12_Node000002_Node000012" class="edge">
<title>Node2&#45;&gt;Node12</title>
<g id="a_edge12_Node000002_Node000012"><a xlink:title=" ">
<path fill="none" stroke="#63b8ff" d="M933.89,-134.95C875.7,-127.33 768.56,-112.81 667.78,-96.26"/>
<polygon fill="#63b8ff" stroke="#63b8ff" points="668.18,-92.77 657.74,-94.6 667.04,-99.68 668.18,-92.77"/>
</a>
</g>
</g>
<!-- Node13 -->
<g id="Node000013" class="node">
<title>Node13</title>
<g id="a_Node000013"><a xlink:title=" ">
<polygon fill="#e0e0e0" stroke="#999999" points="780.5,-96 675.5,-96 675.5,-66 780.5,-66 780.5,-96"/>
<text text-anchor="start" x="683.5" y="-84" font-family="Helvetica,sans-Serif" font-size="10.00">boost/archive/text</text>
<text text-anchor="middle" x="728" y="-73" font-family="Helvetica,sans-Serif" font-size="10.00">_iarchive.hpp</text>
</a>
</g>
</g>
<!-- Node2&#45;&gt;Node13 -->
<g id="edge13_Node000002_Node000013" class="edge">
<title>Node2&#45;&gt;Node13</title>
<g id="a_edge13_Node000002_Node000013"><a xlink:title=" ">
<path fill="none" stroke="#63b8ff" d="M940.79,-131.99C901.5,-122.76 838.05,-107.85 790.64,-96.72"/>
<polygon fill="#63b8ff" stroke="#63b8ff" points="791.31,-93.28 780.78,-94.4 789.71,-100.09 791.31,-93.28"/>
</a>
</g>
</g>
<!-- Node14 -->
<g id="Node000014" class="node">
<title>Node14</title>
<g id="a_Node000014"><a xlink:title=" ">
<polygon fill="#e0e0e0" stroke="#999999" points="903.5,-96 798.5,-96 798.5,-66 903.5,-66 903.5,-96"/>
<text text-anchor="start" x="806.5" y="-84" font-family="Helvetica,sans-Serif" font-size="10.00">boost/archive/text</text>
<text text-anchor="middle" x="851" y="-73" font-family="Helvetica,sans-Serif" font-size="10.00">_oarchive.hpp</text>
</a>
</g>
</g>
<!-- Node2&#45;&gt;Node14 -->
<g id="edge14_Node000002_Node000014" class="edge">
<title>Node2&#45;&gt;Node14</title>
<g id="a_edge14_Node000002_Node000014"><a xlink:title=" ">
<path fill="none" stroke="#63b8ff" d="M958.68,-131.99C940.92,-123.75 913.41,-110.98 890.64,-100.4"/>
<polygon fill="#63b8ff" stroke="#63b8ff" points="892.08,-97.21 881.54,-96.18 889.13,-103.56 892.08,-97.21"/>
</a>
</g>
</g>
<!-- Node15 -->
<g id="Node000015" class="node">
<title>Node15</title>
<g id="a_Node000015"><a xlink:title=" ">
<polygon fill="#e0e0e0" stroke="#999999" points="1032,-96 922,-96 922,-66 1032,-66 1032,-96"/>
<text text-anchor="start" x="930" y="-84" font-family="Helvetica,sans-Serif" font-size="10.00">boost/math/special</text>
<text text-anchor="middle" x="977" y="-73" font-family="Helvetica,sans-Serif" font-size="10.00">_functions/erf.hpp</text>
</a>
</g>
</g>
<!-- Node2&#45;&gt;Node15 -->
<g id="edge15_Node000002_Node000015" class="edge">
<title>Node2&#45;&gt;Node15</title>
<g id="a_edge15_Node000002_Node000015"><a xlink:title=" ">
<path fill="none" stroke="#63b8ff" d="M977,-131.87C977,-125.11 977,-115.35 977,-106.26"/>
<polygon fill="#63b8ff" stroke="#63b8ff" points="980.5,-106.11 977,-96.11 973.5,-106.11 980.5,-106.11"/>
</a>
</g>
</g>
<!-- Node16 -->
<g id="Node000016" class="node">
<title>Node16</title>
<g id="a_Node000016"><a xlink:title=" ">
<polygon fill="#e0e0e0" stroke="#999999" points="1105.5,-90.5 1050.5,-90.5 1050.5,-71.5 1105.5,-71.5 1105.5,-90.5"/>
<text text-anchor="middle" x="1078" y="-78.5" font-family="Helvetica,sans-Serif" font-size="10.00">fstream</text>
</a>
</g>
</g>
<!-- Node2&#45;&gt;Node16 -->
<g id="edge16_Node000002_Node000016" class="edge">
<title>Node2&#45;&gt;Node16</title>
<g id="a_edge16_Node000002_Node000016"><a xlink:title=" ">
<path fill="none" stroke="#63b8ff" d="M991.9,-131.87C1008.31,-122.36 1034.93,-106.95 1054.23,-95.77"/>
<polygon fill="#63b8ff" stroke="#63b8ff" points="1056.14,-98.71 1063.04,-90.67 1052.63,-92.65 1056.14,-98.71"/>
</a>
</g>
</g>
<!-- Node17 -->
<g id="Node000017" class="node">
<title>Node17</title>
<g id="a_Node000017"><a xlink:title=" ">
<polygon fill="#e0e0e0" stroke="#999999" points="1162,-90.5 1124,-90.5 1124,-71.5 1162,-71.5 1162,-90.5"/>
<text text-anchor="middle" x="1143" y="-78.5" font-family="Helvetica,sans-Serif" font-size="10.00">map</text>
</a>
</g>
</g>
<!-- Node2&#45;&gt;Node17 -->
<g id="edge17_Node000002_Node000017" class="edge">
<title>Node2&#45;&gt;Node17</title>
<g id="a_edge17_Node000002_Node000017"><a xlink:title=" ">
<path fill="none" stroke="#63b8ff" d="M1007.9,-132C1036.19,-123.87 1079,-110.71 1115,-96 1115.86,-95.65 1116.73,-95.28 1117.6,-94.91"/>
<polygon fill="#63b8ff" stroke="#63b8ff" points="1119.32,-97.96 1126.91,-90.57 1116.36,-91.62 1119.32,-97.96"/>
</a>
</g>
</g>
<!-- Node18 -->
<g id="Node000018" class="node">
<title>Node18</title>
<g id="a_Node000018"><a xlink:title=" ">
<polygon fill="#e0e0e0" stroke="#999999" points="1224,-90.5 1180,-90.5 1180,-71.5 1224,-71.5 1224,-90.5"/>
<text text-anchor="middle" x="1202" y="-78.5" font-family="Helvetica,sans-Serif" font-size="10.00">regex</text>
</a>
</g>
</g>
<!-- Node2&#45;&gt;Node18 -->
<g id="edge18_Node000002_Node000018" class="edge">
<title>Node2&#45;&gt;Node18</title>
<g id="a_edge18_Node000002_Node000018"><a xlink:title=" ">
<path fill="none" stroke="#63b8ff" d="M1020.06,-133.17C1059.83,-125.8 1120.24,-113.09 1171,-96 1172.4,-95.53 1173.82,-95.02 1175.25,-94.47"/>
<polygon fill="#63b8ff" stroke="#63b8ff" points="1176.65,-97.68 1184.54,-90.61 1173.96,-91.22 1176.65,-97.68"/>
</a>
</g>
</g>
<!-- Node19 -->
<g id="Node000019" class="node">
<title>Node19</title>
<g id="a_Node000019"><a xlink:title=" ">
<polygon fill="#e0e0e0" stroke="#999999" points="44,-90.5 0,-90.5 0,-71.5 44,-71.5 44,-90.5"/>
<text text-anchor="middle" x="22" y="-78.5" font-family="Helvetica,sans-Serif" font-size="10.00">string</text>
</a>
</g>
</g>
<!-- Node2&#45;&gt;Node19 -->
<g id="edge19_Node000002_Node000019" class="edge">
<title>Node2&#45;&gt;Node19</title>
<g id="a_edge19_Node000002_Node000019"><a xlink:title=" ">
<path fill="none" stroke="#63b8ff" d="M933.88,-139.37C763.08,-134.78 139.12,-116.73 53,-96 51.26,-95.58 49.5,-95.07 47.75,-94.48"/>
<polygon fill="#63b8ff" stroke="#63b8ff" points="48.59,-91.05 38,-90.6 46,-97.55 48.59,-91.05"/>
</a>
</g>
</g>
<!-- Node20 -->
<g id="Node000020" class="node">
<title>Node20</title>
<g id="a_Node000020"><a xlink:title=" ">
<polygon fill="#e0e0e0" stroke="#999999" points="1283.5,-90.5 1242.5,-90.5 1242.5,-71.5 1283.5,-71.5 1283.5,-90.5"/>
<text text-anchor="middle" x="1263" y="-78.5" font-family="Helvetica,sans-Serif" font-size="10.00">tuple</text>
</a>
</g>
</g>
<!-- Node2&#45;&gt;Node20 -->
<g id="edge20_Node000002_Node000020" class="edge">
<title>Node2&#45;&gt;Node20</title>
<g id="a_edge20_Node000002_Node000020"><a xlink:title=" ">
<path fill="none" stroke="#63b8ff" d="M1020.4,-136.49C1072,-130.92 1160.27,-118.85 1233,-96 1234.44,-95.55 1235.9,-95.04 1237.36,-94.5"/>
<polygon fill="#63b8ff" stroke="#63b8ff" points="1238.96,-97.62 1246.81,-90.51 1236.23,-91.17 1238.96,-97.62"/>
</a>
</g>
</g>
<!-- Node21 -->
<g id="Node000021" class="node">
<title>Node21</title>
<g id="a_Node000021"><a xlink:title=" ">
<polygon fill="#e0e0e0" stroke="#999999" points="109.5,-90.5 62.5,-90.5 62.5,-71.5 109.5,-71.5 109.5,-90.5"/>
<text text-anchor="middle" x="86" y="-78.5" font-family="Helvetica,sans-Serif" font-size="10.00">vector</text>
</a>
</g>
</g>
<!-- Node2&#45;&gt;Node21 -->
<g id="edge21_Node000002_Node000021" class="edge">
<title>Node2&#45;&gt;Node21</title>
<g id="a_edge21_Node000002_Node000021"><a xlink:title=" ">
<path fill="none" stroke="#63b8ff" d="M933.96,-139.15C771.22,-133.91 198.67,-114.36 119,-96 116.83,-95.5 114.63,-94.87 112.43,-94.15"/>
<polygon fill="#63b8ff" stroke="#63b8ff" points="113.68,-90.88 103.09,-90.59 111.19,-97.42 113.68,-90.88"/>
</a>
</g>
</g>
<!-- Node3&#45;&gt;Node4 -->
<g id="edge3_Node000003_Node000004" class="edge">
<title>Node3&#45;&gt;Node4</title>
<g id="a_edge3_Node000003_Node000004"><a xlink:title=" ">
<path fill="none" stroke="#63b8ff" d="M1385.54,-71.37C1373.68,-62.44 1354.75,-48.19 1339.06,-36.38"/>
<polygon fill="#63b8ff" stroke="#63b8ff" points="1340.84,-33.33 1330.75,-30.12 1336.63,-38.93 1340.84,-33.33"/>
</a>
</g>
</g>
<!-- Node5 -->
<g id="Node000005" class="node">
<title>Node5</title>
<g id="a_Node000005"><a xlink:title=" ">
<polygon fill="#e0e0e0" stroke="#999999" points="1499.5,-30 1380.5,-30 1380.5,0 1499.5,0 1499.5,-30"/>
<text text-anchor="start" x="1388.5" y="-18" font-family="Helvetica,sans-Serif" font-size="10.00">deal.II/numerics/data</text>
<text text-anchor="middle" x="1440" y="-7" font-family="Helvetica,sans-Serif" font-size="10.00">_postprocessor.h</text>
</a>
</g>
</g>
<!-- Node3&#45;&gt;Node5 -->
<g id="edge4_Node000003_Node000005" class="edge">
<title>Node3&#45;&gt;Node5</title>
<g id="a_edge4_Node000003_Node000005"><a xlink:title=" ">
<path fill="none" stroke="#63b8ff" d="M1402.8,-71.37C1408.37,-63.08 1417.03,-50.18 1424.6,-38.92"/>
<polygon fill="#63b8ff" stroke="#63b8ff" points="1427.68,-40.61 1430.35,-30.36 1421.87,-36.71 1427.68,-40.61"/>
</a>
</g>
</g>
<!-- Node23 -->
<g id="Node000023" class="node">
<title>Node23</title>
<g id="a_Node000023"><a xlink:href="parameters__lagrangian_8h.html" target="_top" xlink:title="Parameter structures for Lagrangian (DEM) particle simulations.">
<polygon fill="white" stroke="#666666" points="1094.5,-393 931.5,-393 931.5,-374 1094.5,-374 1094.5,-393"/>
<text text-anchor="middle" x="1013" y="-381" font-family="Helvetica,sans-Serif" font-size="10.00">core/parameters_lagrangian.h</text>
</a>
</g>
</g>
<!-- Node22&#45;&gt;Node23 -->
<g id="edge23_Node000022_Node000023" class="edge">
<title>Node22&#45;&gt;Node23</title>
<g id="a_edge23_Node000022_Node000023"><a xlink:title=" ">
<path fill="none" stroke="#63b8ff" d="M848.92,-434.49C882.19,-424.36 937.95,-407.37 975.1,-396.05"/>
<polygon fill="#63b8ff" stroke="#63b8ff" points="976.5,-399.28 985.05,-393.02 974.46,-392.58 976.5,-399.28"/>
</a>
</g>
</g>
<!-- Node43 -->
<g id="Node000043" class="node">
<title>Node43</title>
<g id="a_Node000043"><a xlink:title=" ">
<polygon fill="#e0e0e0" stroke="#999999" points="848,-393 794,-393 794,-374 848,-374 848,-393"/>
<text text-anchor="middle" x="821" y="-381" font-family="Helvetica,sans-Serif" font-size="10.00">random</text>
</a>
</g>
</g>
<!-- Node22&#45;&gt;Node43 -->
<g id="edge44_Node000022_Node000043" class="edge">
<title>Node22&#45;&gt;Node43</title>
<g id="a_edge44_Node000022_Node000043"><a xlink:title=" ">
<path fill="none" stroke="#63b8ff" d="M821,-434.37C821,-426.25 821,-413.81 821,-403.39"/>
<polygon fill="#63b8ff" stroke="#63b8ff" points="824.5,-403.17 821,-393.17 817.5,-403.17 824.5,-403.17"/>
</a>
</g>
</g>
<!-- Node23&#45;&gt;Node7 -->
<g id="edge42_Node000023_Node000007" class="edge">
<title>Node23&#45;&gt;Node7</title>
<g id="a_edge42_Node000023_Node000007"><a xlink:title=" ">
<path fill="none" stroke="#63b8ff" d="M1094.68,-379.57C1300.84,-371.09 1826,-342.31 1826,-269 1826,-269 1826,-269 1826,-201 1826,-167.92 1832.15,-130.12 1836.82,-106.17"/>
<polygon fill="#63b8ff" stroke="#63b8ff" points="1840.29,-106.7 1838.84,-96.2 1833.43,-105.31 1840.29,-106.7"/>
</a>
</g>
</g>
<!-- Node23&#45;&gt;Node19 -->
<g id="edge43_Node000023_Node000019" class="edge">
<title>Node23&#45;&gt;Node19</title>
<g id="a_edge43_Node000023_Node000019"><a xlink:title=" ">
<path fill="none" stroke="#63b8ff" d="M978.44,-373.98C852.57,-342.58 407.43,-228.24 53,-96 51.79,-95.55 50.55,-95.07 49.31,-94.57"/>
<polygon fill="#63b8ff" stroke="#63b8ff" points="50.43,-91.25 39.86,-90.56 47.7,-97.69 50.43,-91.25"/>
</a>
</g>
</g>
<!-- Node24 -->
<g id="Node000024" class="node">
<title>Node24</title>
<g id="a_Node000024"><a xlink:href="parameters_8h.html" target="_top" xlink:title=" ">
<polygon fill="white" stroke="#666666" points="1088,-338 982,-338 982,-319 1088,-319 1088,-338"/>
<text text-anchor="middle" x="1035" y="-326" font-family="Helvetica,sans-Serif" font-size="10.00">core/parameters.h</text>
</a>
</g>
</g>
<!-- Node23&#45;&gt;Node24 -->
<g id="edge24_Node000023_Node000024" class="edge">
<title>Node23&#45;&gt;Node24</title>
<g id="a_edge24_Node000023_Node000024"><a xlink:title=" ">
<path fill="none" stroke="#63b8ff" d="M1016.63,-373.75C1019.58,-366.65 1023.83,-356.4 1027.51,-347.56"/>
<polygon fill="#63b8ff" stroke="#63b8ff" points="1030.83,-348.67 1031.43,-338.09 1024.37,-345.98 1030.83,-348.67"/>
</a>
</g>
</g>
<!-- Node24&#45;&gt;Node2 -->
<g id="edge38_Node000024_Node000002" class="edge">
<title>Node24&#45;&gt;Node2</title>
<g id="a_edge38_Node000024_Node000002"><a xlink:title=" ">
<path fill="none" stroke="#63b8ff" d="M1029.79,-318.91C1024.67,-310.15 1016.91,-296.02 1012,-283 996.09,-240.81 985.29,-188.76 980.25,-161.39"/>
<polygon fill="#63b8ff" stroke="#63b8ff" points="983.65,-160.5 978.45,-151.27 976.76,-161.72 983.65,-160.5"/>
</a>
</g>
</g>
<!-- Node24&#45;&gt;Node7 -->
<g id="edge39_Node000024_Node000007" class="edge">
<title>Node24&#45;&gt;Node7</title>
<g id="a_edge39_Node000024_Node000007"><a xlink:title=" ">
<path fill="none" stroke="#63b8ff" d="M1088.04,-325.25C1193.42,-319.14 1434.86,-296.83 1619,-217 1693.66,-184.63 1773.45,-131.13 1814.34,-102.16"/>
<polygon fill="#63b8ff" stroke="#63b8ff" points="1816.59,-104.85 1822.69,-96.19 1812.52,-99.15 1816.59,-104.85"/>
</a>
</g>
</g>
<!-- Node25 -->
<g id="Node000025" class="node">
<title>Node25</title>
<g id="a_Node000025"><a xlink:href="dimensionality_8h.html" target="_top" xlink:title=" ">
<polygon fill="white" stroke="#666666" points="1609.5,-211.5 1488.5,-211.5 1488.5,-192.5 1609.5,-192.5 1609.5,-211.5"/>
<text text-anchor="middle" x="1549" y="-199.5" font-family="Helvetica,sans-Serif" font-size="10.00">core/dimensionality.h</text>
</a>
</g>
</g>
<!-- Node24&#45;&gt;Node25 -->
<g id="edge25_Node000024_Node000025" class="edge">
<title>Node24&#45;&gt;Node25</title>
<g id="a_edge25_Node000024_Node000025"><a xlink:title=" ">
<path fill="none" stroke="#63b8ff" d="M1088.07,-322.37C1146.5,-316.02 1242.91,-303.46 1324,-283 1395.82,-264.87 1476.99,-233.08 1519.48,-215.53"/>
<polygon fill="#63b8ff" stroke="#63b8ff" points="1521.04,-218.67 1528.92,-211.59 1518.35,-212.21 1521.04,-218.67"/>
</a>
</g>
</g>
<!-- Node26 -->
<g id="Node000026" class="node">
<title>Node26</title>
<g id="a_Node000026"><a xlink:href="ib__particle_8h.html" target="_top" xlink:title=" ">
<polygon fill="white" stroke="#666666" points="835.5,-277.5 734.5,-277.5 734.5,-258.5 835.5,-258.5 835.5,-277.5"/>
<text text-anchor="middle" x="785" y="-265.5" font-family="Helvetica,sans-Serif" font-size="10.00">core/ib_particle.h</text>
</a>
</g>
</g>
<!-- Node24&#45;&gt;Node26 -->
<g id="edge27_Node000024_Node000026" class="edge">
<title>Node24&#45;&gt;Node26</title>
<g id="a_edge27_Node000024_Node000026"><a xlink:title=" ">
<path fill="none" stroke="#63b8ff" d="M998.65,-318.99C954.4,-308.64 879.61,-291.14 831.29,-279.83"/>
<polygon fill="#63b8ff" stroke="#63b8ff" points="831.93,-276.39 821.4,-277.52 830.34,-283.2 831.93,-276.39"/>
</a>
</g>
</g>
<!-- Node40 -->
<g id="Node000040" class="node">
<title>Node40</title>
<g id="a_Node000040"><a xlink:title=" ">
<polygon fill="#e0e0e0" stroke="#999999" points="964.5,-217 855.5,-217 855.5,-187 964.5,-187 964.5,-217"/>
<text text-anchor="start" x="863.5" y="-205" font-family="Helvetica,sans-Serif" font-size="10.00">deal.II/base/parsed</text>
<text text-anchor="middle" x="910" y="-194" font-family="Helvetica,sans-Serif" font-size="10.00">_function.h</text>
</a>
</g>
</g>
<!-- Node24&#45;&gt;Node40 -->
<g id="edge40_Node000024_Node000040" class="edge">
<title>Node24&#45;&gt;Node40</title>
<g id="a_edge40_Node000024_Node000040"><a xlink:title=" ">
<path fill="none" stroke="#63b8ff" d="M1022.88,-318.9C1011.17,-310.36 993.15,-296.59 979,-283 960.08,-264.82 940.75,-241.98 927.39,-225.36"/>
<polygon fill="#63b8ff" stroke="#63b8ff" points="929.94,-222.94 920.98,-217.29 924.46,-227.3 929.94,-222.94"/>
</a>
</g>
</g>
<!-- Node41 -->
<g id="Node000041" class="node">
<title>Node41</title>
<g id="a_Node000041"><a xlink:href="multiphysics_8h.html" target="_top" xlink:title="Identifiers for multiphysics modules and their solution fields.">
<polygon fill="white" stroke="#666666" points="1133,-277.5 1021,-277.5 1021,-258.5 1133,-258.5 1133,-277.5"/>
<text text-anchor="middle" x="1077" y="-265.5" font-family="Helvetica,sans-Serif" font-size="10.00">core/multiphysics.h</text>
</a>
</g>
</g>
<!-- Node24&#45;&gt;Node41 -->
<g id="edge37_Node000024_Node000041" class="edge">
<title>Node24&#45;&gt;Node41</title>
<g id="a_edge37_Node000024_Node000041"><a xlink:title=" ">
<path fill="none" stroke="#63b8ff" d="M1041.2,-318.87C1047.4,-310.23 1057.11,-296.7 1064.86,-285.92"/>
<polygon fill="#63b8ff" stroke="#63b8ff" points="1067.79,-287.83 1070.78,-277.67 1062.1,-283.75 1067.79,-287.83"/>
</a>
</g>
</g>
<!-- Node42 -->
<g id="Node000042" class="node">
<title>Node42</title>
<g id="a_Node000042"><a xlink:title=" ">
<polygon fill="#e0e0e0" stroke="#999999" points="1314.5,-283 1151.5,-283 1151.5,-253 1314.5,-253 1314.5,-283"/>
<text text-anchor="start" x="1159.5" y="-271" font-family="Helvetica,sans-Serif" font-size="10.00">deal.II/multigrid/mg</text>
<text text-anchor="middle" x="1233" y="-260" font-family="Helvetica,sans-Serif" font-size="10.00">_transfer_global_coarsening.h</text>
</a>
</g>
</g>
<!-- Node24&#45;&gt;Node42 -->
<g id="edge41_Node000024_Node000042" class="edge">
<title>Node24&#45;&gt;Node42</title>
<g id="a_edge41_Node000024_Node000042"><a xlink:title=" ">
<path fill="none" stroke="#63b8ff" d="M1063.79,-318.99C1093.03,-310.35 1139.11,-296.74 1175.8,-285.9"/>
<polygon fill="#63b8ff" stroke="#63b8ff" points="1176.8,-289.25 1185.4,-283.06 1174.82,-282.54 1176.8,-289.25"/>
</a>
</g>
</g>
<!-- Node25&#45;&gt;Node7 -->
<g id="edge26_Node000025_Node000007" class="edge">
<title>Node25&#45;&gt;Node7</title>
<g id="a_edge26_Node000025_Node000007"><a xlink:title=" ">
<path fill="none" stroke="#63b8ff" d="M1568.35,-192.48C1598.63,-179.2 1659.12,-152.94 1711,-132 1738.5,-120.9 1769.5,-109.04 1794.43,-99.66"/>
<polygon fill="#63b8ff" stroke="#63b8ff" points="1795.88,-102.85 1804.02,-96.06 1793.42,-96.3 1795.88,-102.85"/>
</a>
</g>
</g>
<!-- Node26&#45;&gt;Node8 -->
<g id="edge35_Node000026_Node000008" class="edge">
<title>Node26&#45;&gt;Node8</title>
<g id="a_edge35_Node000026_Node000008"><a xlink:title=" ">
<path fill="none" stroke="#63b8ff" d="M778.7,-258.12C758.88,-230.49 697.43,-146.99 668,-132 584.33,-89.39 339.84,-110.06 247,-96 240.8,-95.06 234.3,-93.88 227.92,-92.6"/>
<polygon fill="#63b8ff" stroke="#63b8ff" points="228.56,-89.16 218.06,-90.53 227.13,-96.01 228.56,-89.16"/>
</a>
</g>
</g>
<!-- Node26&#45;&gt;Node21 -->
<g id="edge36_Node000026_Node000021" class="edge">
<title>Node26&#45;&gt;Node21</title>
<g id="a_edge36_Node000026_Node000021"><a xlink:title=" ">
<path fill="none" stroke="#63b8ff" d="M772.87,-258.19C759.75,-248.5 738.36,-232.27 721,-217 680.65,-181.51 683.97,-154.14 635,-132 530.26,-84.65 230.77,-122.81 119,-96 116.84,-95.48 114.63,-94.83 112.44,-94.1"/>
<polygon fill="#63b8ff" stroke="#63b8ff" points="113.69,-90.83 103.1,-90.52 111.19,-97.37 113.69,-90.83"/>
</a>
</g>
</g>
<!-- Node27 -->
<g id="Node000027" class="node">
<title>Node27</title>
<g id="a_Node000027"><a xlink:href="dem__properties_8h.html" target="_top" xlink:title="DEM particle property definitions and output name management.">
<polygon fill="white" stroke="#666666" points="626,-151 500,-151 500,-132 626,-132 626,-151"/>
<text text-anchor="middle" x="563" y="-139" font-family="Helvetica,sans-Serif" font-size="10.00">core/dem_properties.h</text>
</a>
</g>
</g>
<!-- Node26&#45;&gt;Node27 -->
<g id="edge28_Node000026_Node000027" class="edge">
<title>Node26&#45;&gt;Node27</title>
<g id="a_edge28_Node000026_Node000027"><a xlink:title=" ">
<path fill="none" stroke="#63b8ff" d="M745.73,-258.42C715.35,-250.65 673.02,-237.27 640,-217 614.35,-201.26 590.37,-175.65 576.19,-158.94"/>
<polygon fill="#63b8ff" stroke="#63b8ff" points="578.78,-156.59 569.71,-151.12 573.39,-161.05 578.78,-156.59"/>
</a>
</g>
</g>
<!-- Node28 -->
<g id="Node000028" class="node">
<title>Node28</title>
<g id="a_Node000028"><a xlink:href="shape_8h.html" target="_top" xlink:title=" ">
<polygon fill="#fff0f0" stroke="red" points="837.5,-211.5 758.5,-211.5 758.5,-192.5 837.5,-192.5 837.5,-211.5"/>
<text text-anchor="middle" x="798" y="-199.5" font-family="Helvetica,sans-Serif" font-size="10.00">core/shape.h</text>
</a>
</g>
</g>
<!-- Node26&#45;&gt;Node28 -->
<g id="edge31_Node000026_Node000028" class="edge">
<title>Node26&#45;&gt;Node28</title>
<g id="a_edge31_Node000026_Node000028"><a xlink:title=" ">
<path fill="none" stroke="#63b8ff" d="M786.75,-258.37C788.64,-249.07 791.71,-233.98 794.16,-221.9"/>
<polygon fill="#63b8ff" stroke="#63b8ff" points="797.63,-222.4 796.19,-211.91 790.77,-221.01 797.63,-222.4"/>
</a>
</g>
</g>
<!-- Node26&#45;&gt;Node40 -->
<g id="edge34_Node000026_Node000040" class="edge">
<title>Node26&#45;&gt;Node40</title>
<g id="a_edge34_Node000026_Node000040"><a xlink:title=" ">
<path fill="none" stroke="#63b8ff" d="M801.86,-258.37C820.1,-249.03 849.73,-233.86 873.37,-221.75"/>
<polygon fill="#63b8ff" stroke="#63b8ff" points="875.12,-224.79 882.43,-217.12 871.93,-218.56 875.12,-224.79"/>
</a>
</g>
</g>
<!-- Node27&#45;&gt;Node19 -->
<g id="edge29_Node000027_Node000019" class="edge">
<title>Node27&#45;&gt;Node19</title>
<g id="a_edge29_Node000027_Node000019"><a xlink:title=" ">
<path fill="none" stroke="#63b8ff" d="M499.98,-133.4C495.25,-132.91 490.55,-132.44 486,-132 293.79,-113.4 239.93,-144.44 53,-96 51.31,-95.56 49.6,-95.04 47.89,-94.46"/>
<polygon fill="#63b8ff" stroke="#63b8ff" points="48.94,-91.1 38.35,-90.64 46.33,-97.6 48.94,-91.1"/>
</a>
</g>
</g>
<!-- Node27&#45;&gt;Node21 -->
<g id="edge30_Node000027_Node000021" class="edge">
<title>Node27&#45;&gt;Node21</title>
<g id="a_edge30_Node000027_Node000021"><a xlink:title=" ">
<path fill="none" stroke="#63b8ff" d="M499.97,-133.48C495.25,-132.97 490.55,-132.47 486,-132 322.99,-115.01 277.82,-136.47 119,-96 117.06,-95.5 115.08,-94.91 113.1,-94.25"/>
<polygon fill="#63b8ff" stroke="#63b8ff" points="114.06,-90.87 103.47,-90.57 111.56,-97.41 114.06,-90.87"/>
</a>
</g>
</g>
<!-- Node28&#45;&gt;Node2 -->
<g id="edge32_Node000028_Node000002" class="edge">
<title>Node28&#45;&gt;Node2</title>
<g id="a_edge32_Node000028_Node000002"><a xlink:title=" ">
<path fill="none" stroke="#63b8ff" d="M824.03,-192.49C854.92,-182.4 906.58,-165.51 941.22,-154.19"/>
<polygon fill="#63b8ff" stroke="#63b8ff" points="942.52,-157.45 950.94,-151.02 940.35,-150.8 942.52,-157.45"/>
</a>
</g>
</g>
<!-- Node28&#45;&gt;Node10 -->
<g id="edge33_Node000028_Node000010" class="edge">
<title>Node28&#45;&gt;Node10</title>
<g id="a_edge33_Node000028_Node000010"><a xlink:title=" ">
<path fill="none" stroke="#63b8ff" d="M824.46,-192.43C831.41,-190.42 838.94,-188.44 846,-187 1181.5,-118.61 1272.29,-146.12 1611,-96 1618.65,-94.87 1626.71,-93.57 1634.62,-92.23"/>
<polygon fill="#63b8ff" stroke="#63b8ff" points="1635.28,-95.66 1644.54,-90.51 1634.09,-88.77 1635.28,-95.66"/>
</a>
</g>
</g>
</g>
</svg>
