<?xml version="1.0" encoding="UTF-8" standalone="no"?>
<!DOCTYPE svg PUBLIC "-//W3C//DTD SVG 1.1//EN"
 "http://www.w3.org/Graphics/SVG/1.1/DTD/svg11.dtd">
<!-- Generated by graphviz version 2.43.0 (0)
 -->
<!-- Title: /home/runner/work/lethe/lethe/source/dem/distributions.cc Pages: 1 -->
<svg width="1914pt" height="533pt"
 viewBox="0.00 0.00 1913.50 533.00" xmlns="http://www.w3.org/2000/svg" xmlns:xlink="http://www.w3.org/1999/xlink">
<g id="graph0" class="graph" transform="scale(1 1) rotate(0) translate(4 529)">
<title>/home/runner/work/lethe/lethe/source/dem/distributions.cc</title>
<!-- Node1 -->
<g id="Node000001" class="node">
<title>Node1</title>
<g id="a_Node000001"><a xlink:title=" ">
<polygon fill="#999999" stroke="#666666" points="937,-525 755,-525 755,-495 937,-495 937,-525"/>
<text text-anchor="start" x="763" y="-513" font-family="Helvetica,sans-Serif" font-size="10.00">/home/runner/work/lethe</text>
<text text-anchor="middle" x="846" y="-502" font-family="Helvetica,sans-Serif" font-size="10.00">/lethe/source/dem/distributions.cc</text>
</a>
</g>
</g>
<!-- Node2 -->
<g id="Node000002" class="node">
<title>Node2</title>
<g id="a_Node000002"><a xlink:href="core_2utilities_8h.html" target="_top" xlink:title=" ">
<polygon fill="white" stroke="#666666" points="871,-151 785,-151 785,-132 871,-132 871,-151"/>
<text text-anchor="middle" x="828" y="-139" font-family="Helvetica,sans-Serif" font-size="10.00">core/utilities.h</text>
</a>
</g>
</g>
<!-- Node1&#45;&gt;Node2 -->
<g id="edge1_Node000001_Node000002" class="edge">
<title>Node1&#45;&gt;Node2</title>
<g id="a_edge1_Node000001_Node000002"><a xlink:title=" ">
<path fill="none" stroke="#63b8ff" d="M756.19,-494.95C653.37,-476.28 499,-439.14 499,-384.5 499,-384.5 499,-384.5 499,-267 499,-208.72 681.84,-168.14 774.91,-151.26"/>
<polygon fill="#63b8ff" stroke="#63b8ff" points="775.76,-154.67 784.99,-149.47 774.53,-147.78 775.76,-154.67"/>
</a>
</g>
</g>
<!-- Node22 -->
<g id="Node000022" class="node">
<title>Node22</title>
<g id="a_Node000022"><a xlink:href="distributions_8h.html" target="_top" xlink:title=" ">
<polygon fill="white" stroke="#666666" points="778.5,-453.5 667.5,-453.5 667.5,-434.5 778.5,-434.5 778.5,-453.5"/>
<text text-anchor="middle" x="723" y="-441.5" font-family="Helvetica,sans-Serif" font-size="10.00">dem/distributions.h</text>
</a>
</g>
</g>
<!-- Node1&#45;&gt;Node22 -->
<g id="edge22_Node000001_Node000022" class="edge">
<title>Node1&#45;&gt;Node22</title>
<g id="a_edge22_Node000001_Node000022"><a xlink:title=" ">
<path fill="none" stroke="#63b8ff" d="M819.01,-494.95C798.01,-484.03 769.07,-468.97 748.47,-458.25"/>
<polygon fill="#63b8ff" stroke="#63b8ff" points="749.86,-455.03 739.37,-453.52 746.62,-461.24 749.86,-455.03"/>
</a>
</g>
</g>
<!-- Node45 -->
<g id="Node000045" class="node">
<title>Node45</title>
<g id="a_Node000045"><a xlink:title=" ">
<polygon fill="#e0e0e0" stroke="#999999" points="895.5,-459 796.5,-459 796.5,-429 895.5,-429 895.5,-459"/>
<text text-anchor="start" x="804.5" y="-447" font-family="Helvetica,sans-Serif" font-size="10.00">deal.II/lac/lapack</text>
<text text-anchor="middle" x="846" y="-436" font-family="Helvetica,sans-Serif" font-size="10.00">_full_matrix.h</text>
</a>
</g>
</g>
<!-- Node1&#45;&gt;Node45 -->
<g id="edge47_Node000001_Node000045" class="edge">
<title>Node1&#45;&gt;Node45</title>
<g id="a_edge47_Node000001_Node000045"><a xlink:title=" ">
<path fill="none" stroke="#63b8ff" d="M846,-494.8C846,-487.34 846,-477.99 846,-469.41"/>
<polygon fill="#63b8ff" stroke="#63b8ff" points="849.5,-469.16 846,-459.16 842.5,-469.16 849.5,-469.16"/>
</a>
</g>
</g>
<!-- Node46 -->
<g id="Node000046" class="node">
<title>Node46</title>
<g id="a_Node000046"><a xlink:title=" ">
<polygon fill="#e0e0e0" stroke="#999999" points="972.5,-453.5 913.5,-453.5 913.5,-434.5 972.5,-434.5 972.5,-453.5"/>
<text text-anchor="middle" x="943" y="-441.5" font-family="Helvetica,sans-Serif" font-size="10.00">numbers</text>
</a>
</g>
</g>
<!-- Node1&#45;&gt;Node46 -->
<g id="edge48_Node000001_Node000046" class="edge">
<title>Node1&#45;&gt;Node46</title>
<g id="a_edge48_Node000001_Node000046"><a xlink:title=" ">
<path fill="none" stroke="#63b8ff" d="M867.53,-494.8C883.48,-484.27 905.15,-469.97 921.18,-459.4"/>
<polygon fill="#63b8ff" stroke="#63b8ff" points="923.46,-462.09 929.88,-453.66 919.6,-456.24 923.46,-462.09"/>
</a>
</g>
</g>
<!-- Node47 -->
<g id="Node000047" class="node">
<title>Node47</title>
<g id="a_Node000047"><a xlink:title=" ">
<polygon fill="#e0e0e0" stroke="#999999" points="1047,-453.5 991,-453.5 991,-434.5 1047,-434.5 1047,-453.5"/>
<text text-anchor="middle" x="1019" y="-441.5" font-family="Helvetica,sans-Serif" font-size="10.00">numeric</text>
</a>
</g>
</g>
<!-- Node1&#45;&gt;Node47 -->
<g id="edge49_Node000001_Node000047" class="edge">
<title>Node1&#45;&gt;Node47</title>
<g id="a_edge49_Node000001_Node000047"><a xlink:title=" ">
<path fill="none" stroke="#63b8ff" d="M884.43,-494.98C911.69,-485.01 949.12,-471.26 982,-459 983.59,-458.41 985.22,-457.8 986.87,-457.18"/>
<polygon fill="#63b8ff" stroke="#63b8ff" points="988.19,-460.42 996.31,-453.62 985.72,-453.87 988.19,-460.42"/>
</a>
</g>
</g>
<!-- Node3 -->
<g id="Node000003" class="node">
<title>Node3</title>
<g id="a_Node000003"><a xlink:href="output__struct_8h.html" target="_top" xlink:title=" ">
<polygon fill="white" stroke="#666666" points="1055,-90.5 941,-90.5 941,-71.5 1055,-71.5 1055,-90.5"/>
<text text-anchor="middle" x="998" y="-78.5" font-family="Helvetica,sans-Serif" font-size="10.00">core/output_struct.h</text>
</a>
</g>
</g>
<!-- Node2&#45;&gt;Node3 -->
<g id="edge2_Node000002_Node000003" class="edge">
<title>Node2&#45;&gt;Node3</title>
<g id="a_edge2_Node000002_Node000003"><a xlink:title=" ">
<path fill="none" stroke="#63b8ff" d="M852.72,-131.99C881.93,-121.94 930.7,-105.16 963.59,-93.84"/>
<polygon fill="#63b8ff" stroke="#63b8ff" points="964.93,-97.08 973.25,-90.52 962.66,-90.46 964.93,-97.08"/>
</a>
</g>
</g>
<!-- Node4 -->
<g id="Node000004" class="node">
<title>Node4</title>
<g id="a_Node000004"><a xlink:title=" ">
<polygon fill="#e0e0e0" stroke="#999999" points="963.5,-30 862.5,-30 862.5,0 963.5,0 963.5,-30"/>
<text text-anchor="start" x="870.5" y="-18" font-family="Helvetica,sans-Serif" font-size="10.00">deal.II/base/table</text>
<text text-anchor="middle" x="913" y="-7" font-family="Helvetica,sans-Serif" font-size="10.00">_handler.h</text>
</a>
</g>
</g>
<!-- Node2&#45;&gt;Node4 -->
<g id="edge8_Node000002_Node000004" class="edge">
<title>Node2&#45;&gt;Node4</title>
<g id="a_edge8_Node000002_Node000004"><a xlink:title=" ">
<path fill="none" stroke="#63b8ff" d="M848.03,-131.95C862.94,-124.57 882.6,-112.48 894,-96 905.33,-79.63 909.95,-57.36 911.82,-40.47"/>
<polygon fill="#63b8ff" stroke="#63b8ff" points="915.32,-40.52 912.68,-30.26 908.35,-39.93 915.32,-40.52"/>
</a>
</g>
</g>
<!-- Node6 -->
<g id="Node000006" class="node">
<title>Node6</title>
<g id="a_Node000006"><a xlink:title=" ">
<polygon fill="#e0e0e0" stroke="#999999" points="1203,-96 1073,-96 1073,-66 1203,-66 1203,-96"/>
<text text-anchor="start" x="1081" y="-84" font-family="Helvetica,sans-Serif" font-size="10.00">deal.II/base/conditional</text>
<text text-anchor="middle" x="1138" y="-73" font-family="Helvetica,sans-Serif" font-size="10.00">_ostream.h</text>
</a>
</g>
</g>
<!-- Node2&#45;&gt;Node6 -->
<g id="edge5_Node000002_Node000006" class="edge">
<title>Node2&#45;&gt;Node6</title>
<g id="a_edge5_Node000002_Node000006"><a xlink:title=" ">
<path fill="none" stroke="#63b8ff" d="M871.07,-132.39C916.25,-123.87 989.64,-110.04 1062.37,-96.31"/>
<polygon fill="#63b8ff" stroke="#63b8ff" points="1063.45,-99.66 1072.63,-94.37 1062.15,-92.79 1063.45,-99.66"/>
</a>
</g>
</g>
<!-- Node7 -->
<g id="Node000007" class="node">
<title>Node7</title>
<g id="a_Node000007"><a xlink:title=" ">
<polygon fill="#e0e0e0" stroke="#999999" points="1905.5,-96 1778.5,-96 1778.5,-66 1905.5,-66 1905.5,-96"/>
<text text-anchor="start" x="1786.5" y="-84" font-family="Helvetica,sans-Serif" font-size="10.00">deal.II/base/parameter</text>
<text text-anchor="middle" x="1842" y="-73" font-family="Helvetica,sans-Serif" font-size="10.00">_handler.h</text>
</a>
</g>
</g>
<!-- Node2&#45;&gt;Node7 -->
<g id="edge6_Node000002_Node000007" class="edge">
<title>Node2&#45;&gt;Node7</title>
<g id="a_edge6_Node000002_Node000007"><a xlink:title=" ">
<path fill="none" stroke="#63b8ff" d="M871.33,-140.64C1004.04,-140.59 1416.74,-137.01 1768.26,-95.95"/>
<polygon fill="#63b8ff" stroke="#63b8ff" points="1768.86,-99.4 1778.38,-94.75 1768.04,-92.45 1768.86,-99.4"/>
</a>
</g>
</g>
<!-- Node8 -->
<g id="Node000008" class="node">
<title>Node8</title>
<g id="a_Node000008"><a xlink:title=" ">
<polygon fill="#e0e0e0" stroke="#999999" points="1760,-90.5 1650,-90.5 1650,-71.5 1760,-71.5 1760,-90.5"/>
<text text-anchor="middle" x="1705" y="-78.5" font-family="Helvetica,sans-Serif" font-size="10.00">deal.II/base/point.h</text>
</a>
</g>
</g>
<!-- Node2&#45;&gt;Node8 -->
<g id="edge7_Node000002_Node000008" class="edge">
<title>Node2&#45;&gt;Node8</title>
<g id="a_edge7_Node000002_Node000008"><a xlink:title=" ">
<path fill="none" stroke="#63b8ff" d="M871.01,-136.29C887.28,-134.8 905.99,-133.19 923,-132 1241.74,-109.76 1324.3,-138.28 1641,-96 1647.44,-95.14 1654.19,-93.97 1660.79,-92.67"/>
<polygon fill="#63b8ff" stroke="#63b8ff" points="1661.9,-96.01 1670.97,-90.54 1660.47,-89.16 1661.9,-96.01"/>
</a>
</g>
</g>
<!-- Node9 -->
<g id="Node000009" class="node">
<title>Node9</title>
<g id="a_Node000009"><a xlink:title=" ">
<polygon fill="#e0e0e0" stroke="#999999" points="1336.5,-90.5 1221.5,-90.5 1221.5,-71.5 1336.5,-71.5 1336.5,-90.5"/>
<text text-anchor="middle" x="1279" y="-78.5" font-family="Helvetica,sans-Serif" font-size="10.00">deal.II/base/tensor.h</text>
</a>
</g>
</g>
<!-- Node2&#45;&gt;Node9 -->
<g id="edge9_Node000002_Node000009" class="edge">
<title>Node2&#45;&gt;Node9</title>
<g id="a_edge9_Node000002_Node000009"><a xlink:title=" ">
<path fill="none" stroke="#63b8ff" d="M871.24,-133.87C875.88,-133.22 880.53,-132.58 885,-132 1030,-113.21 1067.61,-118.98 1212,-96 1218.24,-95.01 1224.77,-93.82 1231.22,-92.57"/>
<polygon fill="#63b8ff" stroke="#63b8ff" points="1232.09,-95.96 1241.2,-90.56 1230.71,-89.1 1232.09,-95.96"/>
</a>
</g>
</g>
<!-- Node10 -->
<g id="Node000010" class="node">
<title>Node10</title>
<g id="a_Node000010"><a xlink:title=" ">
<polygon fill="#e0e0e0" stroke="#999999" points="1632,-90.5 1492,-90.5 1492,-71.5 1632,-71.5 1632,-90.5"/>
<text text-anchor="middle" x="1562" y="-78.5" font-family="Helvetica,sans-Serif" font-size="10.00">deal.II/dofs/dof_handler.h</text>
</a>
</g>
</g>
<!-- Node2&#45;&gt;Node10 -->
<g id="edge10_Node000002_Node000010" class="edge">
<title>Node2&#45;&gt;Node10</title>
<g id="a_edge10_Node000002_Node000010"><a xlink:title=" ">
<path fill="none" stroke="#63b8ff" d="M871.21,-133.65C875.86,-133.03 880.52,-132.47 885,-132 1149.82,-104.34 1218.59,-127.28 1483,-96 1491.45,-95 1500.37,-93.68 1509.05,-92.25"/>
<polygon fill="#63b8ff" stroke="#63b8ff" points="1509.82,-95.67 1519.08,-90.53 1508.64,-88.77 1509.82,-95.67"/>
</a>
</g>
</g>
<!-- Node11 -->
<g id="Node000011" class="node">
<title>Node11</title>
<g id="a_Node000011"><a xlink:title=" ">
<polygon fill="#e0e0e0" stroke="#999999" points="1473.5,-90.5 1354.5,-90.5 1354.5,-71.5 1473.5,-71.5 1473.5,-90.5"/>
<text text-anchor="middle" x="1414" y="-78.5" font-family="Helvetica,sans-Serif" font-size="10.00">deal.II/fe/fe_values.h</text>
</a>
</g>
</g>
<!-- Node2&#45;&gt;Node11 -->
<g id="edge11_Node000002_Node000011" class="edge">
<title>Node2&#45;&gt;Node11</title>
<g id="a_edge11_Node000002_Node000011"><a xlink:title=" ">
<path fill="none" stroke="#63b8ff" d="M871.22,-133.73C875.86,-133.1 880.53,-132.51 885,-132 1089.2,-108.83 1142.51,-124.78 1346,-96 1352.74,-95.05 1359.81,-93.83 1366.74,-92.52"/>
<polygon fill="#63b8ff" stroke="#63b8ff" points="1367.6,-95.92 1376.74,-90.55 1366.25,-89.05 1367.6,-95.92"/>
</a>
</g>
</g>
<!-- Node12 -->
<g id="Node000012" class="node">
<title>Node12</title>
<g id="a_Node000012"><a xlink:title=" ">
<polygon fill="#e0e0e0" stroke="#999999" points="314.5,-96 183.5,-96 183.5,-66 314.5,-66 314.5,-96"/>
<text text-anchor="start" x="191.5" y="-84" font-family="Helvetica,sans-Serif" font-size="10.00">deal.II/particles/particle</text>
<text text-anchor="middle" x="249" y="-73" font-family="Helvetica,sans-Serif" font-size="10.00">_iterator.h</text>
</a>
</g>
</g>
<!-- Node2&#45;&gt;Node12 -->
<g id="edge12_Node000002_Node000012" class="edge">
<title>Node2&#45;&gt;Node12</title>
<g id="a_edge12_Node000002_Node000012"><a xlink:title=" ">
<path fill="none" stroke="#63b8ff" d="M784.78,-133.74C780.13,-133.11 775.47,-132.51 771,-132 575.84,-109.63 522.73,-122.17 324.85,-96.16"/>
<polygon fill="#63b8ff" stroke="#63b8ff" points="325.08,-92.66 314.71,-94.81 324.16,-99.6 325.08,-92.66"/>
</a>
</g>
</g>
<!-- Node13 -->
<g id="Node000013" class="node">
<title>Node13</title>
<g id="a_Node000013"><a xlink:title=" ">
<polygon fill="#e0e0e0" stroke="#999999" points="437.5,-96 332.5,-96 332.5,-66 437.5,-66 437.5,-96"/>
<text text-anchor="start" x="340.5" y="-84" font-family="Helvetica,sans-Serif" font-size="10.00">boost/archive/text</text>
<text text-anchor="middle" x="385" y="-73" font-family="Helvetica,sans-Serif" font-size="10.00">_iarchive.hpp</text>
</a>
</g>
</g>
<!-- Node2&#45;&gt;Node13 -->
<g id="edge13_Node000002_Node000013" class="edge">
<title>Node2&#45;&gt;Node13</title>
<g id="a_edge13_Node000002_Node000013"><a xlink:title=" ">
<path fill="none" stroke="#63b8ff" d="M784.76,-133.88C780.12,-133.22 775.46,-132.58 771,-132 630.12,-113.7 591.03,-119.99 447.86,-96.2"/>
<polygon fill="#63b8ff" stroke="#63b8ff" points="448.27,-92.72 437.83,-94.52 447.11,-99.63 448.27,-92.72"/>
</a>
</g>
</g>
<!-- Node14 -->
<g id="Node000014" class="node">
<title>Node14</title>
<g id="a_Node000014"><a xlink:title=" ">
<polygon fill="#e0e0e0" stroke="#999999" points="560.5,-96 455.5,-96 455.5,-66 560.5,-66 560.5,-96"/>
<text text-anchor="start" x="463.5" y="-84" font-family="Helvetica,sans-Serif" font-size="10.00">boost/archive/text</text>
<text text-anchor="middle" x="508" y="-73" font-family="Helvetica,sans-Serif" font-size="10.00">_oarchive.hpp</text>
</a>
</g>
</g>
<!-- Node2&#45;&gt;Node14 -->
<g id="edge14_Node000002_Node000014" class="edge">
<title>Node2&#45;&gt;Node14</title>
<g id="a_edge14_Node000002_Node000014"><a xlink:title=" ">
<path fill="none" stroke="#63b8ff" d="M784.96,-133.77C735.65,-125.9 652.18,-112.12 570.66,-96.07"/>
<polygon fill="#63b8ff" stroke="#63b8ff" points="571.22,-92.61 560.73,-94.1 569.85,-99.48 571.22,-92.61"/>
</a>
</g>
</g>
<!-- Node15 -->
<g id="Node000015" class="node">
<title>Node15</title>
<g id="a_Node000015"><a xlink:title=" ">
<polygon fill="#e0e0e0" stroke="#999999" points="689,-96 579,-96 579,-66 689,-66 689,-96"/>
<text text-anchor="start" x="587" y="-84" font-family="Helvetica,sans-Serif" font-size="10.00">boost/math/special</text>
<text text-anchor="middle" x="634" y="-73" font-family="Helvetica,sans-Serif" font-size="10.00">_functions/erf.hpp</text>
</a>
</g>
</g>
<!-- Node2&#45;&gt;Node15 -->
<g id="edge15_Node000002_Node000015" class="edge">
<title>Node2&#45;&gt;Node15</title>
<g id="a_edge15_Node000002_Node000015"><a xlink:title=" ">
<path fill="none" stroke="#63b8ff" d="M799.79,-131.99C771.26,-123.39 726.38,-109.86 690.5,-99.04"/>
<polygon fill="#63b8ff" stroke="#63b8ff" points="691.23,-95.6 680.64,-96.06 689.2,-102.3 691.23,-95.6"/>
</a>
</g>
</g>
<!-- Node16 -->
<g id="Node000016" class="node">
<title>Node16</title>
<g id="a_Node000016"><a xlink:title=" ">
<polygon fill="#e0e0e0" stroke="#999999" points="762.5,-90.5 707.5,-90.5 707.5,-71.5 762.5,-71.5 762.5,-90.5"/>
<text text-anchor="middle" x="735" y="-78.5" font-family="Helvetica,sans-Serif" font-size="10.00">fstream</text>
</a>
</g>
</g>
<!-- Node2&#45;&gt;Node16 -->
<g id="edge16_Node000002_Node000016" class="edge">
<title>Node2&#45;&gt;Node16</title>
<g id="a_edge16_Node000002_Node000016"><a xlink:title=" ">
<path fill="none" stroke="#63b8ff" d="M814.28,-131.87C799.3,-122.45 775.11,-107.23 757.38,-96.08"/>
<polygon fill="#63b8ff" stroke="#63b8ff" points="759.11,-93.03 748.78,-90.67 755.38,-98.95 759.11,-93.03"/>
</a>
</g>
</g>
<!-- Node17 -->
<g id="Node000017" class="node">
<title>Node17</title>
<g id="a_Node000017"><a xlink:title=" ">
<polygon fill="#e0e0e0" stroke="#999999" points="38,-90.5 0,-90.5 0,-71.5 38,-71.5 38,-90.5"/>
<text text-anchor="middle" x="19" y="-78.5" font-family="Helvetica,sans-Serif" font-size="10.00">map</text>
</a>
</g>
</g>
<!-- Node2&#45;&gt;Node17 -->
<g id="edge17_Node000002_Node000017" class="edge">
<title>Node2&#45;&gt;Node17</title>
<g id="a_edge17_Node000002_Node000017"><a xlink:title=" ">
<path fill="none" stroke="#63b8ff" d="M785,-136.07C770.12,-134.63 753.34,-133.12 738,-132 584.65,-120.77 195.68,-135.21 47,-96 45.55,-95.62 44.1,-95.16 42.65,-94.64"/>
<polygon fill="#63b8ff" stroke="#63b8ff" points="43.94,-91.39 33.37,-90.6 41.14,-97.8 43.94,-91.39"/>
</a>
</g>
</g>
<!-- Node18 -->
<g id="Node000018" class="node">
<title>Node18</title>
<g id="a_Node000018"><a xlink:title=" ">
<polygon fill="#e0e0e0" stroke="#999999" points="825,-90.5 781,-90.5 781,-71.5 825,-71.5 825,-90.5"/>
<text text-anchor="middle" x="803" y="-78.5" font-family="Helvetica,sans-Serif" font-size="10.00">regex</text>
</a>
</g>
</g>
<!-- Node2&#45;&gt;Node18 -->
<g id="edge18_Node000002_Node000018" class="edge">
<title>Node2&#45;&gt;Node18</title>
<g id="a_edge18_Node000002_Node000018"><a xlink:title=" ">
<path fill="none" stroke="#63b8ff" d="M824.31,-131.87C820.73,-123.49 815.18,-110.51 810.65,-99.89"/>
<polygon fill="#63b8ff" stroke="#63b8ff" points="813.85,-98.49 806.7,-90.67 807.42,-101.24 813.85,-98.49"/>
</a>
</g>
</g>
<!-- Node19 -->
<g id="Node000019" class="node">
<title>Node19</title>
<g id="a_Node000019"><a xlink:title=" ">
<polygon fill="#e0e0e0" stroke="#999999" points="100,-90.5 56,-90.5 56,-71.5 100,-71.5 100,-90.5"/>
<text text-anchor="middle" x="78" y="-78.5" font-family="Helvetica,sans-Serif" font-size="10.00">string</text>
</a>
</g>
</g>
<!-- Node2&#45;&gt;Node19 -->
<g id="edge19_Node000002_Node000019" class="edge">
<title>Node2&#45;&gt;Node19</title>
<g id="a_edge19_Node000002_Node000019"><a xlink:title=" ">
<path fill="none" stroke="#63b8ff" d="M785,-136.11C770.12,-134.68 753.34,-133.16 738,-132 458.79,-110.83 380.94,-162.75 109,-96 107.27,-95.57 105.51,-95.05 103.76,-94.47"/>
<polygon fill="#63b8ff" stroke="#63b8ff" points="104.59,-91.03 94.01,-90.57 102,-97.53 104.59,-91.03"/>
</a>
</g>
</g>
<!-- Node20 -->
<g id="Node000020" class="node">
<title>Node20</title>
<g id="a_Node000020"><a xlink:title=" ">
<polygon fill="#e0e0e0" stroke="#999999" points="884.5,-90.5 843.5,-90.5 843.5,-71.5 884.5,-71.5 884.5,-90.5"/>
<text text-anchor="middle" x="864" y="-78.5" font-family="Helvetica,sans-Serif" font-size="10.00">tuple</text>
</a>
</g>
</g>
<!-- Node2&#45;&gt;Node20 -->
<g id="edge20_Node000002_Node000020" class="edge">
<title>Node2&#45;&gt;Node20</title>
<g id="a_edge20_Node000002_Node000020"><a xlink:title=" ">
<path fill="none" stroke="#63b8ff" d="M833.31,-131.87C838.58,-123.31 846.79,-109.97 853.39,-99.24"/>
<polygon fill="#63b8ff" stroke="#63b8ff" points="856.41,-101.02 858.67,-90.67 850.44,-97.35 856.41,-101.02"/>
</a>
</g>
</g>
<!-- Node21 -->
<g id="Node000021" class="node">
<title>Node21</title>
<g id="a_Node000021"><a xlink:title=" ">
<polygon fill="#e0e0e0" stroke="#999999" points="165.5,-90.5 118.5,-90.5 118.5,-71.5 165.5,-71.5 165.5,-90.5"/>
<text text-anchor="middle" x="142" y="-78.5" font-family="Helvetica,sans-Serif" font-size="10.00">vector</text>
</a>
</g>
</g>
<!-- Node2&#45;&gt;Node21 -->
<g id="edge21_Node000002_Node000021" class="edge">
<title>Node2&#45;&gt;Node21</title>
<g id="a_edge21_Node000002_Node000021"><a xlink:title=" ">
<path fill="none" stroke="#63b8ff" d="M784.79,-133.65C780.14,-133.03 775.48,-132.47 771,-132 506.62,-104.37 432.43,-158.23 174,-96 172.05,-95.53 170.08,-94.95 168.11,-94.3"/>
<polygon fill="#63b8ff" stroke="#63b8ff" points="169.14,-90.94 158.55,-90.56 166.59,-97.46 169.14,-90.94"/>
</a>
</g>
</g>
<!-- Node3&#45;&gt;Node4 -->
<g id="edge3_Node000003_Node000004" class="edge">
<title>Node3&#45;&gt;Node4</title>
<g id="a_edge3_Node000003_Node000004"><a xlink:title=" ">
<path fill="none" stroke="#63b8ff" d="M986.54,-71.37C974.68,-62.44 955.75,-48.19 940.06,-36.38"/>
<polygon fill="#63b8ff" stroke="#63b8ff" points="941.84,-33.33 931.75,-30.12 937.63,-38.93 941.84,-33.33"/>
</a>
</g>
</g>
<!-- Node5 -->
<g id="Node000005" class="node">
<title>Node5</title>
<g id="a_Node000005"><a xlink:title=" ">
<polygon fill="#e0e0e0" stroke="#999999" points="1100.5,-30 981.5,-30 981.5,0 1100.5,0 1100.5,-30"/>
<text text-anchor="start" x="989.5" y="-18" font-family="Helvetica,sans-Serif" font-size="10.00">deal.II/numerics/data</text>
<text text-anchor="middle" x="1041" y="-7" font-family="Helvetica,sans-Serif" font-size="10.00">_postprocessor.h</text>
</a>
</g>
</g>
<!-- Node3&#45;&gt;Node5 -->
<g id="edge4_Node000003_Node000005" class="edge">
<title>Node3&#45;&gt;Node5</title>
<g id="a_edge4_Node000003_Node000005"><a xlink:title=" ">
<path fill="none" stroke="#63b8ff" d="M1003.8,-71.37C1009.37,-63.08 1018.03,-50.18 1025.6,-38.92"/>
<polygon fill="#63b8ff" stroke="#63b8ff" points="1028.68,-40.61 1031.35,-30.36 1022.87,-36.71 1028.68,-40.61"/>
</a>
</g>
</g>
<!-- Node23 -->
<g id="Node000023" class="node">
<title>Node23</title>
<g id="a_Node000023"><a xlink:href="parameters__lagrangian_8h.html" target="_top" xlink:title="Parameter structures for Lagrangian (DEM) particle simulations.">
<polygon fill="white" stroke="#666666" points="1014.5,-393 851.5,-393 851.5,-374 1014.5,-374 1014.5,-393"/>
<text text-anchor="middle" x="933" y="-381" font-family="Helvetica,sans-Serif" font-size="10.00">core/parameters_lagrangian.h</text>
</a>
</g>
</g>
<!-- Node22&#45;&gt;Node23 -->
<g id="edge23_Node000022_Node000023" class="edge">
<title>Node22&#45;&gt;Node23</title>
<g id="a_edge23_Node000022_Node000023"><a xlink:title=" ">
<path fill="none" stroke="#63b8ff" d="M753.54,-434.49C790.24,-424.27 851.95,-407.08 892.58,-395.76"/>
<polygon fill="#63b8ff" stroke="#63b8ff" points="893.73,-399.07 902.43,-393.02 891.85,-392.33 893.73,-399.07"/>
</a>
</g>
</g>
<!-- Node44 -->
<g id="Node000044" class="node">
<title>Node44</title>
<g id="a_Node000044"><a xlink:title=" ">
<polygon fill="#e0e0e0" stroke="#999999" points="750,-393 696,-393 696,-374 750,-374 750,-393"/>
<text text-anchor="middle" x="723" y="-381" font-family="Helvetica,sans-Serif" font-size="10.00">random</text>
</a>
</g>
</g>
<!-- Node22&#45;&gt;Node44 -->
<g id="edge46_Node000022_Node000044" class="edge">
<title>Node22&#45;&gt;Node44</title>
<g id="a_edge46_Node000022_Node000044"><a xlink:title=" ">
<path fill="none" stroke="#63b8ff" d="M723,-434.37C723,-426.25 723,-413.81 723,-403.39"/>
<polygon fill="#63b8ff" stroke="#63b8ff" points="726.5,-403.17 723,-393.17 719.5,-403.17 726.5,-403.17"/>
</a>
</g>
</g>
<!-- Node23&#45;&gt;Node7 -->
<g id="edge42_Node000023_Node000007" class="edge">
<title>Node23&#45;&gt;Node7</title>
<g id="a_edge42_Node000023_Node000007"><a xlink:title=" ">
<path fill="none" stroke="#63b8ff" d="M1014.89,-380.65C1236.08,-374.56 1829,-350.63 1829,-269 1829,-269 1829,-269 1829,-201 1829,-168.02 1834,-130.2 1837.79,-106.21"/>
<polygon fill="#63b8ff" stroke="#63b8ff" points="1841.27,-106.67 1839.43,-96.23 1834.36,-105.53 1841.27,-106.67"/>
</a>
</g>
</g>
<!-- Node23&#45;&gt;Node17 -->
<g id="edge43_Node000023_Node000017" class="edge">
<title>Node23&#45;&gt;Node17</title>
<g id="a_edge43_Node000023_Node000017"><a xlink:title=" ">
<path fill="none" stroke="#63b8ff" d="M851.48,-382.44C787.03,-379.7 696.07,-369.7 623,-338 578.05,-318.5 537,-318 537,-269 537,-269 537,-269 537,-201 537,-89.64 152.08,-132.86 47,-96 45.95,-95.63 44.89,-95.23 43.82,-94.81"/>
<polygon fill="#63b8ff" stroke="#63b8ff" points="44.95,-91.48 34.39,-90.57 42.08,-97.86 44.95,-91.48"/>
</a>
</g>
</g>
<!-- Node23&#45;&gt;Node19 -->
<g id="edge45_Node000023_Node000019" class="edge">
<title>Node23&#45;&gt;Node19</title>
<g id="a_edge45_Node000023_Node000019"><a xlink:title=" ">
<path fill="none" stroke="#63b8ff" d="M857.08,-373.95C751.99,-359.95 575,-327.68 575,-269 575,-269 575,-269 575,-201 575,-168.53 576.68,-151.87 551,-132 473.07,-71.68 204.42,-120.64 109,-96 107.31,-95.56 105.6,-95.04 103.89,-94.46"/>
<polygon fill="#63b8ff" stroke="#63b8ff" points="104.93,-91.11 94.35,-90.64 102.33,-97.61 104.93,-91.11"/>
</a>
</g>
</g>
<!-- Node24 -->
<g id="Node000024" class="node">
<title>Node24</title>
<g id="a_Node000024"><a xlink:href="parameters_8h.html" target="_top" xlink:title=" ">
<polygon fill="white" stroke="#666666" points="1056,-338 950,-338 950,-319 1056,-319 1056,-338"/>
<text text-anchor="middle" x="1003" y="-326" font-family="Helvetica,sans-Serif" font-size="10.00">core/parameters.h</text>
</a>
</g>
</g>
<!-- Node23&#45;&gt;Node24 -->
<g id="edge24_Node000023_Node000024" class="edge">
<title>Node23&#45;&gt;Node24</title>
<g id="a_edge24_Node000023_Node000024"><a xlink:title=" ">
<path fill="none" stroke="#63b8ff" d="M944.25,-373.98C954.8,-366 970.8,-353.88 983.44,-344.31"/>
<polygon fill="#63b8ff" stroke="#63b8ff" points="985.69,-347 991.55,-338.17 981.46,-341.42 985.69,-347"/>
</a>
</g>
</g>
<!-- Node43 -->
<g id="Node000043" class="node">
<title>Node43</title>
<g id="a_Node000043"><a xlink:title=" ">
<polygon fill="#e0e0e0" stroke="#999999" points="1106,-338 1074,-338 1074,-319 1106,-319 1106,-338"/>
<text text-anchor="middle" x="1090" y="-326" font-family="Helvetica,sans-Serif" font-size="10.00">set</text>
</a>
</g>
</g>
<!-- Node23&#45;&gt;Node43 -->
<g id="edge44_Node000023_Node000043" class="edge">
<title>Node23&#45;&gt;Node43</title>
<g id="a_edge44_Node000023_Node000043"><a xlink:title=" ">
<path fill="none" stroke="#63b8ff" d="M958.31,-373.99C983.02,-365.68 1021.93,-352.57 1064.22,-338.26"/>
<polygon fill="#63b8ff" stroke="#63b8ff" points="1065.51,-341.52 1073.86,-334.99 1063.27,-334.88 1065.51,-341.52"/>
</a>
</g>
</g>
<!-- Node24&#45;&gt;Node2 -->
<g id="edge38_Node000024_Node000002" class="edge">
<title>Node24&#45;&gt;Node2</title>
<g id="a_edge38_Node000024_Node000002"><a xlink:title=" ">
<path fill="none" stroke="#63b8ff" d="M1056.09,-319.7C1126.8,-309.05 1243.78,-290.44 1250,-283 1258.55,-272.77 1257.49,-264.03 1250,-253 1208.49,-191.82 984.82,-159.69 881,-147.88"/>
<polygon fill="#63b8ff" stroke="#63b8ff" points="881.37,-144.4 871.04,-146.77 880.59,-151.35 881.37,-144.4"/>
</a>
</g>
</g>
<!-- Node24&#45;&gt;Node7 -->
<g id="edge39_Node000024_Node000007" class="edge">
<title>Node24&#45;&gt;Node7</title>
<g id="a_edge39_Node000024_Node000007"><a xlink:title=" ">
<path fill="none" stroke="#63b8ff" d="M1056.26,-319.61C1121.5,-309.77 1228.12,-293 1267,-283 1470.28,-230.74 1703.98,-138.7 1798.74,-99.97"/>
<polygon fill="#63b8ff" stroke="#63b8ff" points="1800.35,-103.09 1808.27,-96.06 1797.69,-96.62 1800.35,-103.09"/>
</a>
</g>
</g>
<!-- Node25 -->
<g id="Node000025" class="node">
<title>Node25</title>
<g id="a_Node000025"><a xlink:href="dimensionality_8h.html" target="_top" xlink:title=" ">
<polygon fill="white" stroke="#666666" points="1751.5,-211.5 1630.5,-211.5 1630.5,-192.5 1751.5,-192.5 1751.5,-211.5"/>
<text text-anchor="middle" x="1691" y="-199.5" font-family="Helvetica,sans-Serif" font-size="10.00">core/dimensionality.h</text>
</a>
</g>
</g>
<!-- Node24&#45;&gt;Node25 -->
<g id="edge25_Node000024_Node000025" class="edge">
<title>Node24&#45;&gt;Node25</title>
<g id="a_edge25_Node000024_Node000025"><a xlink:title=" ">
<path fill="none" stroke="#63b8ff" d="M1056.08,-320.02C1059.09,-319.66 1062.08,-319.32 1065,-319 1265.8,-297.27 1322.63,-334.18 1518,-283 1574.81,-268.12 1636,-235.42 1668.19,-216.76"/>
<polygon fill="#63b8ff" stroke="#63b8ff" points="1670,-219.76 1676.85,-211.68 1666.45,-213.72 1670,-219.76"/>
</a>
</g>
</g>
<!-- Node26 -->
<g id="Node000026" class="node">
<title>Node26</title>
<g id="a_Node000026"><a xlink:href="ib__particle_8h.html" target="_top" xlink:title=" ">
<polygon fill="white" stroke="#666666" points="890.5,-277.5 789.5,-277.5 789.5,-258.5 890.5,-258.5 890.5,-277.5"/>
<text text-anchor="middle" x="840" y="-265.5" font-family="Helvetica,sans-Serif" font-size="10.00">core/ib_particle.h</text>
</a>
</g>
</g>
<!-- Node24&#45;&gt;Node26 -->
<g id="edge27_Node000024_Node000026" class="edge">
<title>Node24&#45;&gt;Node26</title>
<g id="a_edge27_Node000024_Node000026"><a xlink:title=" ">
<path fill="none" stroke="#63b8ff" d="M979.3,-318.99C951.41,-308.99 904.93,-292.3 873.4,-280.99"/>
<polygon fill="#63b8ff" stroke="#63b8ff" points="874.32,-277.6 863.73,-277.52 871.96,-284.19 874.32,-277.6"/>
</a>
</g>
</g>
<!-- Node40 -->
<g id="Node000040" class="node">
<title>Node40</title>
<g id="a_Node000040"><a xlink:title=" ">
<polygon fill="#e0e0e0" stroke="#999999" points="1074.5,-217 965.5,-217 965.5,-187 1074.5,-187 1074.5,-217"/>
<text text-anchor="start" x="973.5" y="-205" font-family="Helvetica,sans-Serif" font-size="10.00">deal.II/base/parsed</text>
<text text-anchor="middle" x="1020" y="-194" font-family="Helvetica,sans-Serif" font-size="10.00">_function.h</text>
</a>
</g>
</g>
<!-- Node24&#45;&gt;Node40 -->
<g id="edge40_Node000024_Node000040" class="edge">
<title>Node24&#45;&gt;Node40</title>
<g id="a_edge40_Node000024_Node000040"><a xlink:title=" ">
<path fill="none" stroke="#63b8ff" d="M980.88,-318.95C965.8,-311.82 946.99,-300.06 938,-283 931.78,-271.21 931.47,-264.63 938,-253 945.43,-239.77 957.94,-229.63 970.98,-222.05"/>
<polygon fill="#63b8ff" stroke="#63b8ff" points="972.86,-225.01 980.03,-217.21 969.56,-218.84 972.86,-225.01"/>
</a>
</g>
</g>
<!-- Node41 -->
<g id="Node000041" class="node">
<title>Node41</title>
<g id="a_Node000041"><a xlink:href="multiphysics_8h.html" target="_top" xlink:title="Identifiers for multiphysics modules and their solution fields.">
<polygon fill="white" stroke="#666666" points="1059,-277.5 947,-277.5 947,-258.5 1059,-258.5 1059,-277.5"/>
<text text-anchor="middle" x="1003" y="-265.5" font-family="Helvetica,sans-Serif" font-size="10.00">core/multiphysics.h</text>
</a>
</g>
</g>
<!-- Node24&#45;&gt;Node41 -->
<g id="edge37_Node000024_Node000041" class="edge">
<title>Node24&#45;&gt;Node41</title>
<g id="a_edge37_Node000024_Node000041"><a xlink:title=" ">
<path fill="none" stroke="#63b8ff" d="M1003,-318.87C1003,-310.75 1003,-298.31 1003,-287.89"/>
<polygon fill="#63b8ff" stroke="#63b8ff" points="1006.5,-287.67 1003,-277.67 999.5,-287.67 1006.5,-287.67"/>
</a>
</g>
</g>
<!-- Node42 -->
<g id="Node000042" class="node">
<title>Node42</title>
<g id="a_Node000042"><a xlink:title=" ">
<polygon fill="#e0e0e0" stroke="#999999" points="1240.5,-283 1077.5,-283 1077.5,-253 1240.5,-253 1240.5,-283"/>
<text text-anchor="start" x="1085.5" y="-271" font-family="Helvetica,sans-Serif" font-size="10.00">deal.II/multigrid/mg</text>
<text text-anchor="middle" x="1159" y="-260" font-family="Helvetica,sans-Serif" font-size="10.00">_transfer_global_coarsening.h</text>
</a>
</g>
</g>
<!-- Node24&#45;&gt;Node42 -->
<g id="edge41_Node000024_Node000042" class="edge">
<title>Node24&#45;&gt;Node42</title>
<g id="a_edge41_Node000024_Node000042"><a xlink:title=" ">
<path fill="none" stroke="#63b8ff" d="M1025.68,-318.99C1048.23,-310.54 1083.49,-297.32 1112.08,-286.59"/>
<polygon fill="#63b8ff" stroke="#63b8ff" points="1113.36,-289.85 1121.5,-283.06 1110.9,-283.3 1113.36,-289.85"/>
</a>
</g>
</g>
<!-- Node25&#45;&gt;Node7 -->
<g id="edge26_Node000025_Node000007" class="edge">
<title>Node25&#45;&gt;Node7</title>
<g id="a_edge26_Node000025_Node000007"><a xlink:title=" ">
<path fill="none" stroke="#63b8ff" d="M1701.86,-192.44C1725.55,-173.77 1782.43,-128.95 1815.99,-102.5"/>
<polygon fill="#63b8ff" stroke="#63b8ff" points="1818.29,-105.14 1823.98,-96.2 1813.96,-99.64 1818.29,-105.14"/>
</a>
</g>
</g>
<!-- Node26&#45;&gt;Node8 -->
<g id="edge35_Node000026_Node000008" class="edge">
<title>Node26&#45;&gt;Node8</title>
<g id="a_edge35_Node000026_Node000008"><a xlink:title=" ">
<path fill="none" stroke="#63b8ff" d="M849.13,-258.46C867.76,-241.6 912.19,-204.17 957,-187 1243.37,-77.24 1338.94,-149.04 1641,-96 1646.74,-94.99 1652.75,-93.83 1658.69,-92.61"/>
<polygon fill="#63b8ff" stroke="#63b8ff" points="1659.49,-96.01 1668.55,-90.52 1658.04,-89.17 1659.49,-96.01"/>
</a>
</g>
</g>
<!-- Node26&#45;&gt;Node21 -->
<g id="edge36_Node000026_Node000021" class="edge">
<title>Node26&#45;&gt;Node21</title>
<g id="a_edge36_Node000026_Node000021"><a xlink:title=" ">
<path fill="none" stroke="#63b8ff" d="M830.58,-258.28C820.46,-248.68 804.18,-232.52 792,-217 764.37,-181.79 776.52,-154.79 738,-132 629.91,-68.05 296.05,-125.62 174,-96 172.06,-95.53 170.08,-94.95 168.12,-94.29"/>
<polygon fill="#63b8ff" stroke="#63b8ff" points="169.14,-90.93 158.56,-90.55 166.59,-97.45 169.14,-90.93"/>
</a>
</g>
</g>
<!-- Node27 -->
<g id="Node000027" class="node">
<title>Node27</title>
<g id="a_Node000027"><a xlink:href="dem__properties_8h.html" target="_top" xlink:title="DEM particle property definitions and output name management.">
<polygon fill="white" stroke="#666666" points="729,-151 603,-151 603,-132 729,-132 729,-151"/>
<text text-anchor="middle" x="666" y="-139" font-family="Helvetica,sans-Serif" font-size="10.00">core/dem_properties.h</text>
</a>
</g>
</g>
<!-- Node26&#45;&gt;Node27 -->
<g id="edge28_Node000026_Node000027" class="edge">
<title>Node26&#45;&gt;Node27</title>
<g id="a_edge28_Node000026_Node000027"><a xlink:title=" ">
<path fill="none" stroke="#63b8ff" d="M819.32,-258.47C798.97,-249.6 767.47,-234.56 743,-217 718.81,-199.64 694.76,-174.86 680.14,-158.72"/>
<polygon fill="#63b8ff" stroke="#63b8ff" points="682.66,-156.3 673.4,-151.16 677.44,-160.96 682.66,-156.3"/>
</a>
</g>
</g>
<!-- Node28 -->
<g id="Node000028" class="node">
<title>Node28</title>
<g id="a_Node000028"><a xlink:href="shape_8h.html" target="_top" xlink:title=" ">
<polygon fill="#fff0f0" stroke="red" points="879.5,-211.5 800.5,-211.5 800.5,-192.5 879.5,-192.5 879.5,-211.5"/>
<text text-anchor="middle" x="840" y="-199.5" font-family="Helvetica,sans-Serif" font-size="10.00">core/shape.h</text>
</a>
</g>
</g>
<!-- Node26&#45;&gt;Node28 -->
<g id="edge31_Node000026_Node000028" class="edge">
<title>Node26&#45;&gt;Node28</title>
<g id="a_edge31_Node000026_Node000028"><a xlink:title=" ">
<path fill="none" stroke="#63b8ff" d="M840,-258.37C840,-249.16 840,-234.29 840,-222.27"/>
<polygon fill="#63b8ff" stroke="#63b8ff" points="843.5,-221.91 840,-211.91 836.5,-221.91 843.5,-221.91"/>
</a>
</g>
</g>
<!-- Node26&#45;&gt;Node40 -->
<g id="edge34_Node000026_Node000040" class="edge">
<title>Node26&#45;&gt;Node40</title>
<g id="a_edge34_Node000026_Node000040"><a xlink:title=" ">
<path fill="none" stroke="#63b8ff" d="M864.28,-258.37C891.47,-248.7 936.26,-232.77 970.84,-220.48"/>
<polygon fill="#63b8ff" stroke="#63b8ff" points="972.05,-223.76 980.3,-217.12 969.71,-217.17 972.05,-223.76"/>
</a>
</g>
</g>
<!-- Node27&#45;&gt;Node19 -->
<g id="edge29_Node000027_Node000019" class="edge">
<title>Node27&#45;&gt;Node19</title>
<g id="a_edge29_Node000027_Node000019"><a xlink:title=" ">
<path fill="none" stroke="#63b8ff" d="M602.99,-133.36C598.26,-132.88 593.55,-132.42 589,-132 375.98,-112.26 316.31,-148.83 109,-96 107.27,-95.56 105.51,-95.03 103.77,-94.43"/>
<polygon fill="#63b8ff" stroke="#63b8ff" points="104.61,-91 94.02,-90.52 102,-97.49 104.61,-91"/>
</a>
</g>
</g>
<!-- Node27&#45;&gt;Node21 -->
<g id="edge30_Node000027_Node000021" class="edge">
<title>Node27&#45;&gt;Node21</title>
<g id="a_edge30_Node000027_Node000021"><a xlink:title=" ">
<path fill="none" stroke="#63b8ff" d="M602.98,-133.42C598.25,-132.93 593.55,-132.45 589,-132 404.76,-113.84 353.41,-141.71 174,-96 172.1,-95.52 170.18,-94.93 168.26,-94.28"/>
<polygon fill="#63b8ff" stroke="#63b8ff" points="169.49,-91.01 158.91,-90.62 166.94,-97.52 169.49,-91.01"/>
</a>
</g>
</g>
<!-- Node28&#45;&gt;Node2 -->
<g id="edge32_Node000028_Node000002" class="edge">
<title>Node28&#45;&gt;Node2</title>
<g id="a_edge32_Node000028_Node000002"><a xlink:title=" ">
<path fill="none" stroke="#63b8ff" d="M838.23,-192.37C836.55,-184.16 833.96,-171.54 831.81,-161.05"/>
<polygon fill="#63b8ff" stroke="#63b8ff" points="835.22,-160.26 829.78,-151.17 828.36,-161.67 835.22,-160.26"/>
</a>
</g>
</g>
<!-- Node28&#45;&gt;Node10 -->
<g id="edge33_Node000028_Node000010" class="edge">
<title>Node28&#45;&gt;Node10</title>
<g id="a_edge33_Node000028_Node000010"><a xlink:title=" ">
<path fill="none" stroke="#63b8ff" d="M847.11,-192.23C860.22,-176.8 889.92,-145.17 923,-132 1038.86,-85.88 1359.19,-110.9 1483,-96 1491.45,-94.98 1500.36,-93.65 1509.04,-92.22"/>
<polygon fill="#63b8ff" stroke="#63b8ff" points="1509.81,-95.64 1519.08,-90.5 1508.63,-88.74 1509.81,-95.64"/>
</a>
</g>
</g>
</g>
</svg>
