<?xml version="1.0" encoding="UTF-8" standalone="no"?>
<!DOCTYPE svg PUBLIC "-//W3C//DTD SVG 1.1//EN"
 "http://www.w3.org/Graphics/SVG/1.1/DTD/svg11.dtd">
<!-- Generated by graphviz version 2.43.0 (0)
 -->
<!-- Title: /home/runner/work/lethe/lethe/source/dem/distributions.cc Pages: 1 -->
<svg width="1889pt" height="533pt"
 viewBox="0.00 0.00 1889.00 533.00" xmlns="http://www.w3.org/2000/svg" xmlns:xlink="http://www.w3.org/1999/xlink">
<g id="graph0" class="graph" transform="scale(1 1) rotate(0) translate(4 529)">
<title>/home/runner/work/lethe/lethe/source/dem/distributions.cc</title>
<!-- Node1 -->
<g id="Node000001" class="node">
<title>Node1</title>
<g id="a_Node000001"><a xlink:title=" ">
<polygon fill="#999999" stroke="#666666" points="1353,-525 1171,-525 1171,-495 1353,-495 1353,-525"/>
<text text-anchor="start" x="1179" y="-513" font-family="Helvetica,sans-Serif" font-size="10.00">/home/runner/work/lethe</text>
<text text-anchor="middle" x="1262" y="-502" font-family="Helvetica,sans-Serif" font-size="10.00">/lethe/source/dem/distributions.cc</text>
</a>
</g>
</g>
<!-- Node2 -->
<g id="Node000002" class="node">
<title>Node2</title>
<g id="a_Node000002"><a xlink:href="core_2utilities_8h.html" target="_top" xlink:title=" ">
<polygon fill="white" stroke="#666666" points="999,-151 913,-151 913,-132 999,-132 999,-151"/>
<text text-anchor="middle" x="956" y="-139" font-family="Helvetica,sans-Serif" font-size="10.00">core/utilities.h</text>
</a>
</g>
</g>
<!-- Node1&#45;&gt;Node2 -->
<g id="edge1_Node000001_Node000002" class="edge">
<title>Node1&#45;&gt;Node2</title>
<g id="a_edge1_Node000001_Node000002"><a xlink:title=" ">
<path fill="none" stroke="#63b8ff" d="M1170.93,-500.14C1048.76,-485.68 847,-451.63 847,-384.5 847,-384.5 847,-384.5 847,-267 847,-216.28 898.85,-176.3 931.03,-156.37"/>
<polygon fill="#63b8ff" stroke="#63b8ff" points="933.13,-159.2 939.92,-151.06 929.54,-153.19 933.13,-159.2"/>
</a>
</g>
</g>
<!-- Node20 -->
<g id="Node000020" class="node">
<title>Node20</title>
<g id="a_Node000020"><a xlink:href="distributions_8h.html" target="_top" xlink:title=" ">
<polygon fill="white" stroke="#666666" points="1194.5,-453.5 1083.5,-453.5 1083.5,-434.5 1194.5,-434.5 1194.5,-453.5"/>
<text text-anchor="middle" x="1139" y="-441.5" font-family="Helvetica,sans-Serif" font-size="10.00">dem/distributions.h</text>
</a>
</g>
</g>
<!-- Node1&#45;&gt;Node20 -->
<g id="edge20_Node000001_Node000020" class="edge">
<title>Node1&#45;&gt;Node20</title>
<g id="a_edge20_Node000001_Node000020"><a xlink:title=" ">
<path fill="none" stroke="#63b8ff" d="M1235.01,-494.95C1214.01,-484.03 1185.07,-468.97 1164.47,-458.25"/>
<polygon fill="#63b8ff" stroke="#63b8ff" points="1165.86,-455.03 1155.37,-453.52 1162.62,-461.24 1165.86,-455.03"/>
</a>
</g>
</g>
<!-- Node43 -->
<g id="Node000043" class="node">
<title>Node43</title>
<g id="a_Node000043"><a xlink:title=" ">
<polygon fill="#e0e0e0" stroke="#999999" points="1311.5,-459 1212.5,-459 1212.5,-429 1311.5,-429 1311.5,-459"/>
<text text-anchor="start" x="1220.5" y="-447" font-family="Helvetica,sans-Serif" font-size="10.00">deal.II/lac/lapack</text>
<text text-anchor="middle" x="1262" y="-436" font-family="Helvetica,sans-Serif" font-size="10.00">_full_matrix.h</text>
</a>
</g>
</g>
<!-- Node1&#45;&gt;Node43 -->
<g id="edge45_Node000001_Node000043" class="edge">
<title>Node1&#45;&gt;Node43</title>
<g id="a_edge45_Node000001_Node000043"><a xlink:title=" ">
<path fill="none" stroke="#63b8ff" d="M1262,-494.8C1262,-487.34 1262,-477.99 1262,-469.41"/>
<polygon fill="#63b8ff" stroke="#63b8ff" points="1265.5,-469.16 1262,-459.16 1258.5,-469.16 1265.5,-469.16"/>
</a>
</g>
</g>
<!-- Node44 -->
<g id="Node000044" class="node">
<title>Node44</title>
<g id="a_Node000044"><a xlink:title=" ">
<polygon fill="#e0e0e0" stroke="#999999" points="1388.5,-453.5 1329.5,-453.5 1329.5,-434.5 1388.5,-434.5 1388.5,-453.5"/>
<text text-anchor="middle" x="1359" y="-441.5" font-family="Helvetica,sans-Serif" font-size="10.00">numbers</text>
</a>
</g>
</g>
<!-- Node1&#45;&gt;Node44 -->
<g id="edge46_Node000001_Node000044" class="edge">
<title>Node1&#45;&gt;Node44</title>
<g id="a_edge46_Node000001_Node000044"><a xlink:title=" ">
<path fill="none" stroke="#63b8ff" d="M1283.53,-494.8C1299.48,-484.27 1321.15,-469.97 1337.18,-459.4"/>
<polygon fill="#63b8ff" stroke="#63b8ff" points="1339.46,-462.09 1345.88,-453.66 1335.6,-456.24 1339.46,-462.09"/>
</a>
</g>
</g>
<!-- Node45 -->
<g id="Node000045" class="node">
<title>Node45</title>
<g id="a_Node000045"><a xlink:title=" ">
<polygon fill="#e0e0e0" stroke="#999999" points="1463,-453.5 1407,-453.5 1407,-434.5 1463,-434.5 1463,-453.5"/>
<text text-anchor="middle" x="1435" y="-441.5" font-family="Helvetica,sans-Serif" font-size="10.00">numeric</text>
</a>
</g>
</g>
<!-- Node1&#45;&gt;Node45 -->
<g id="edge47_Node000001_Node000045" class="edge">
<title>Node1&#45;&gt;Node45</title>
<g id="a_edge47_Node000001_Node000045"><a xlink:title=" ">
<path fill="none" stroke="#63b8ff" d="M1300.43,-494.98C1327.69,-485.01 1365.12,-471.26 1398,-459 1399.59,-458.41 1401.22,-457.8 1402.87,-457.18"/>
<polygon fill="#63b8ff" stroke="#63b8ff" points="1404.19,-460.42 1412.31,-453.62 1401.72,-453.87 1404.19,-460.42"/>
</a>
</g>
</g>
<!-- Node3 -->
<g id="Node000003" class="node">
<title>Node3</title>
<g id="a_Node000003"><a xlink:href="output__struct_8h.html" target="_top" xlink:title=" ">
<polygon fill="white" stroke="#666666" points="873,-90.5 759,-90.5 759,-71.5 873,-71.5 873,-90.5"/>
<text text-anchor="middle" x="816" y="-78.5" font-family="Helvetica,sans-Serif" font-size="10.00">core/output_struct.h</text>
</a>
</g>
</g>
<!-- Node2&#45;&gt;Node3 -->
<g id="edge2_Node000002_Node000003" class="edge">
<title>Node2&#45;&gt;Node3</title>
<g id="a_edge2_Node000002_Node000003"><a xlink:title=" ">
<path fill="none" stroke="#63b8ff" d="M935.64,-131.99C912,-122.12 872.8,-105.73 845.75,-94.43"/>
<polygon fill="#63b8ff" stroke="#63b8ff" points="846.96,-91.14 836.38,-90.52 844.26,-97.6 846.96,-91.14"/>
</a>
</g>
</g>
<!-- Node4 -->
<g id="Node000004" class="node">
<title>Node4</title>
<g id="a_Node000004"><a xlink:title=" ">
<polygon fill="#e0e0e0" stroke="#999999" points="781.5,-30 680.5,-30 680.5,0 781.5,0 781.5,-30"/>
<text text-anchor="start" x="688.5" y="-18" font-family="Helvetica,sans-Serif" font-size="10.00">deal.II/base/table</text>
<text text-anchor="middle" x="731" y="-7" font-family="Helvetica,sans-Serif" font-size="10.00">_handler.h</text>
</a>
</g>
</g>
<!-- Node2&#45;&gt;Node4 -->
<g id="edge8_Node000002_Node000004" class="edge">
<title>Node2&#45;&gt;Node4</title>
<g id="a_edge8_Node000002_Node000004"><a xlink:title=" ">
<path fill="none" stroke="#63b8ff" d="M912.56,-133.64C855.61,-124.27 761.56,-107.33 750,-96 735.31,-81.6 731.14,-58.07 730.29,-40.24"/>
<polygon fill="#63b8ff" stroke="#63b8ff" points="733.79,-39.96 730.14,-30.02 726.79,-40.07 733.79,-39.96"/>
</a>
</g>
</g>
<!-- Node6 -->
<g id="Node000006" class="node">
<title>Node6</title>
<g id="a_Node000006"><a xlink:title=" ">
<polygon fill="#e0e0e0" stroke="#999999" points="1021,-96 891,-96 891,-66 1021,-66 1021,-96"/>
<text text-anchor="start" x="899" y="-84" font-family="Helvetica,sans-Serif" font-size="10.00">deal.II/base/conditional</text>
<text text-anchor="middle" x="956" y="-73" font-family="Helvetica,sans-Serif" font-size="10.00">_ostream.h</text>
</a>
</g>
</g>
<!-- Node2&#45;&gt;Node6 -->
<g id="edge5_Node000002_Node000006" class="edge">
<title>Node2&#45;&gt;Node6</title>
<g id="a_edge5_Node000002_Node000006"><a xlink:title=" ">
<path fill="none" stroke="#63b8ff" d="M956,-131.87C956,-125.11 956,-115.35 956,-106.26"/>
<polygon fill="#63b8ff" stroke="#63b8ff" points="959.5,-106.11 956,-96.11 952.5,-106.11 959.5,-106.11"/>
</a>
</g>
</g>
<!-- Node7 -->
<g id="Node000007" class="node">
<title>Node7</title>
<g id="a_Node000007"><a xlink:title=" ">
<polygon fill="#e0e0e0" stroke="#999999" points="1862.5,-96 1735.5,-96 1735.5,-66 1862.5,-66 1862.5,-96"/>
<text text-anchor="start" x="1743.5" y="-84" font-family="Helvetica,sans-Serif" font-size="10.00">deal.II/base/parameter</text>
<text text-anchor="middle" x="1799" y="-73" font-family="Helvetica,sans-Serif" font-size="10.00">_handler.h</text>
</a>
</g>
</g>
<!-- Node2&#45;&gt;Node7 -->
<g id="edge6_Node000002_Node000007" class="edge">
<title>Node2&#45;&gt;Node7</title>
<g id="a_edge6_Node000002_Node000007"><a xlink:title=" ">
<path fill="none" stroke="#63b8ff" d="M999.26,-137.5C1135.05,-128.07 1554,-99 1725.08,-87.13"/>
<polygon fill="#63b8ff" stroke="#63b8ff" points="1725.52,-90.61 1735.25,-86.42 1725.03,-83.62 1725.52,-90.61"/>
</a>
</g>
</g>
<!-- Node8 -->
<g id="Node000008" class="node">
<title>Node8</title>
<g id="a_Node000008"><a xlink:title=" ">
<polygon fill="#e0e0e0" stroke="#999999" points="1441,-90.5 1331,-90.5 1331,-71.5 1441,-71.5 1441,-90.5"/>
<text text-anchor="middle" x="1386" y="-78.5" font-family="Helvetica,sans-Serif" font-size="10.00">deal.II/base/point.h</text>
</a>
</g>
</g>
<!-- Node2&#45;&gt;Node8 -->
<g id="edge7_Node000002_Node000008" class="edge">
<title>Node2&#45;&gt;Node8</title>
<g id="a_edge7_Node000002_Node000008"><a xlink:title=" ">
<path fill="none" stroke="#63b8ff" d="M999.01,-136.6C1067.61,-130.08 1205.88,-115.71 1322,-96 1327.82,-95.01 1333.91,-93.85 1339.92,-92.62"/>
<polygon fill="#63b8ff" stroke="#63b8ff" points="1340.84,-96.01 1349.9,-90.52 1339.39,-89.16 1340.84,-96.01"/>
</a>
</g>
</g>
<!-- Node9 -->
<g id="Node000009" class="node">
<title>Node9</title>
<g id="a_Node000009"><a xlink:title=" ">
<polygon fill="#e0e0e0" stroke="#999999" points="1154.5,-90.5 1039.5,-90.5 1039.5,-71.5 1154.5,-71.5 1154.5,-90.5"/>
<text text-anchor="middle" x="1097" y="-78.5" font-family="Helvetica,sans-Serif" font-size="10.00">deal.II/base/tensor.h</text>
</a>
</g>
</g>
<!-- Node2&#45;&gt;Node9 -->
<g id="edge9_Node000002_Node000009" class="edge">
<title>Node2&#45;&gt;Node9</title>
<g id="a_edge9_Node000002_Node000009"><a xlink:title=" ">
<path fill="none" stroke="#63b8ff" d="M976.5,-131.99C1000.31,-122.12 1039.79,-105.73 1067.04,-94.43"/>
<polygon fill="#63b8ff" stroke="#63b8ff" points="1068.58,-97.58 1076.47,-90.52 1065.89,-91.12 1068.58,-97.58"/>
</a>
</g>
</g>
<!-- Node10 -->
<g id="Node000010" class="node">
<title>Node10</title>
<g id="a_Node000010"><a xlink:title=" ">
<polygon fill="#e0e0e0" stroke="#999999" points="1313,-90.5 1173,-90.5 1173,-71.5 1313,-71.5 1313,-90.5"/>
<text text-anchor="middle" x="1243" y="-78.5" font-family="Helvetica,sans-Serif" font-size="10.00">deal.II/dofs/dof_handler.h</text>
</a>
</g>
</g>
<!-- Node2&#45;&gt;Node10 -->
<g id="edge10_Node000002_Node000010" class="edge">
<title>Node2&#45;&gt;Node10</title>
<g id="a_edge10_Node000002_Node000010"><a xlink:title=" ">
<path fill="none" stroke="#63b8ff" d="M997.73,-131.99C1048.96,-121.55 1135.83,-103.85 1191.25,-92.55"/>
<polygon fill="#63b8ff" stroke="#63b8ff" points="1192.12,-95.94 1201.22,-90.52 1190.72,-89.08 1192.12,-95.94"/>
</a>
</g>
</g>
<!-- Node11 -->
<g id="Node000011" class="node">
<title>Node11</title>
<g id="a_Node000011"><a xlink:title=" ">
<polygon fill="#e0e0e0" stroke="#999999" points="175.5,-90.5 56.5,-90.5 56.5,-71.5 175.5,-71.5 175.5,-90.5"/>
<text text-anchor="middle" x="116" y="-78.5" font-family="Helvetica,sans-Serif" font-size="10.00">deal.II/fe/fe_values.h</text>
</a>
</g>
</g>
<!-- Node2&#45;&gt;Node11 -->
<g id="edge11_Node000002_Node000011" class="edge">
<title>Node2&#45;&gt;Node11</title>
<g id="a_edge11_Node000002_Node000011"><a xlink:title=" ">
<path fill="none" stroke="#63b8ff" d="M912.8,-133.6C908.15,-133 903.48,-132.45 899,-132 582.38,-100.5 499.63,-136.2 184,-96 176.85,-95.09 169.33,-93.84 162,-92.46"/>
<polygon fill="#63b8ff" stroke="#63b8ff" points="162.67,-89.02 152.18,-90.52 161.31,-95.89 162.67,-89.02"/>
</a>
</g>
</g>
<!-- Node12 -->
<g id="Node000012" class="node">
<title>Node12</title>
<g id="a_Node000012"><a xlink:title=" ">
<polygon fill="#e0e0e0" stroke="#999999" points="324.5,-96 193.5,-96 193.5,-66 324.5,-66 324.5,-96"/>
<text text-anchor="start" x="201.5" y="-84" font-family="Helvetica,sans-Serif" font-size="10.00">deal.II/particles/particle</text>
<text text-anchor="middle" x="259" y="-73" font-family="Helvetica,sans-Serif" font-size="10.00">_iterator.h</text>
</a>
</g>
</g>
<!-- Node2&#45;&gt;Node12 -->
<g id="edge12_Node000002_Node000012" class="edge">
<title>Node2&#45;&gt;Node12</title>
<g id="a_edge12_Node000002_Node000012"><a xlink:title=" ">
<path fill="none" stroke="#63b8ff" d="M912.79,-133.66C908.14,-133.05 903.48,-132.48 899,-132 651.65,-105.74 584.84,-126.91 334.82,-96.13"/>
<polygon fill="#63b8ff" stroke="#63b8ff" points="335.06,-92.63 324.7,-94.87 334.19,-99.58 335.06,-92.63"/>
</a>
</g>
</g>
<!-- Node13 -->
<g id="Node000013" class="node">
<title>Node13</title>
<g id="a_Node000013"><a xlink:title=" ">
<polygon fill="#e0e0e0" stroke="#999999" points="447.5,-96 342.5,-96 342.5,-66 447.5,-66 447.5,-96"/>
<text text-anchor="start" x="350.5" y="-84" font-family="Helvetica,sans-Serif" font-size="10.00">boost/archive/text</text>
<text text-anchor="middle" x="395" y="-73" font-family="Helvetica,sans-Serif" font-size="10.00">_iarchive.hpp</text>
</a>
</g>
</g>
<!-- Node2&#45;&gt;Node13 -->
<g id="edge13_Node000002_Node000013" class="edge">
<title>Node2&#45;&gt;Node13</title>
<g id="a_edge13_Node000002_Node000013"><a xlink:title=" ">
<path fill="none" stroke="#63b8ff" d="M912.78,-133.74C908.13,-133.11 903.47,-132.51 899,-132 706.01,-109.79 652.97,-125.63 457.82,-96.14"/>
<polygon fill="#63b8ff" stroke="#63b8ff" points="458.23,-92.67 447.81,-94.61 457.17,-99.59 458.23,-92.67"/>
</a>
</g>
</g>
<!-- Node14 -->
<g id="Node000014" class="node">
<title>Node14</title>
<g id="a_Node000014"><a xlink:title=" ">
<polygon fill="#e0e0e0" stroke="#999999" points="570.5,-96 465.5,-96 465.5,-66 570.5,-66 570.5,-96"/>
<text text-anchor="start" x="473.5" y="-84" font-family="Helvetica,sans-Serif" font-size="10.00">boost/archive/text</text>
<text text-anchor="middle" x="518" y="-73" font-family="Helvetica,sans-Serif" font-size="10.00">_oarchive.hpp</text>
</a>
</g>
</g>
<!-- Node2&#45;&gt;Node14 -->
<g id="edge14_Node000002_Node000014" class="edge">
<title>Node2&#45;&gt;Node14</title>
<g id="a_edge14_Node000002_Node000014"><a xlink:title=" ">
<path fill="none" stroke="#63b8ff" d="M912.76,-133.89C908.12,-133.22 903.46,-132.58 899,-132 760.28,-113.86 721.8,-119.76 580.72,-96.18"/>
<polygon fill="#63b8ff" stroke="#63b8ff" points="581.27,-92.73 570.83,-94.51 580.1,-99.63 581.27,-92.73"/>
</a>
</g>
</g>
<!-- Node15 -->
<g id="Node000015" class="node">
<title>Node15</title>
<g id="a_Node000015"><a xlink:title=" ">
<polygon fill="#e0e0e0" stroke="#999999" points="643.5,-90.5 588.5,-90.5 588.5,-71.5 643.5,-71.5 643.5,-90.5"/>
<text text-anchor="middle" x="616" y="-78.5" font-family="Helvetica,sans-Serif" font-size="10.00">fstream</text>
</a>
</g>
</g>
<!-- Node2&#45;&gt;Node15 -->
<g id="edge15_Node000002_Node000015" class="edge">
<title>Node2&#45;&gt;Node15</title>
<g id="a_edge15_Node000002_Node000015"><a xlink:title=" ">
<path fill="none" stroke="#63b8ff" d="M912.74,-134.03C908.1,-133.35 903.45,-132.66 899,-132 789.25,-115.82 759.27,-124.29 652,-96 649.7,-95.39 647.35,-94.69 645,-93.92"/>
<polygon fill="#63b8ff" stroke="#63b8ff" points="646.13,-90.61 635.54,-90.52 643.77,-97.2 646.13,-90.61"/>
</a>
</g>
</g>
<!-- Node16 -->
<g id="Node000016" class="node">
<title>Node16</title>
<g id="a_Node000016"><a xlink:title=" ">
<polygon fill="#e0e0e0" stroke="#999999" points="38,-90.5 0,-90.5 0,-71.5 38,-71.5 38,-90.5"/>
<text text-anchor="middle" x="19" y="-78.5" font-family="Helvetica,sans-Serif" font-size="10.00">map</text>
</a>
</g>
</g>
<!-- Node2&#45;&gt;Node16 -->
<g id="edge16_Node000002_Node000016" class="edge">
<title>Node2&#45;&gt;Node16</title>
<g id="a_edge16_Node000002_Node000016"><a xlink:title=" ">
<path fill="none" stroke="#63b8ff" d="M912.8,-133.57C908.15,-132.97 903.48,-132.43 899,-132 710.35,-114 230.47,-143.42 47,-96 45.55,-95.63 44.09,-95.17 42.64,-94.66"/>
<polygon fill="#63b8ff" stroke="#63b8ff" points="43.93,-91.4 33.37,-90.63 41.14,-97.82 43.93,-91.4"/>
</a>
</g>
</g>
<!-- Node17 -->
<g id="Node000017" class="node">
<title>Node17</title>
<g id="a_Node000017"><a xlink:title=" ">
<polygon fill="#e0e0e0" stroke="#999999" points="1503,-90.5 1459,-90.5 1459,-71.5 1503,-71.5 1503,-90.5"/>
<text text-anchor="middle" x="1481" y="-78.5" font-family="Helvetica,sans-Serif" font-size="10.00">string</text>
</a>
</g>
</g>
<!-- Node2&#45;&gt;Node17 -->
<g id="edge17_Node000002_Node000017" class="edge">
<title>Node2&#45;&gt;Node17</title>
<g id="a_edge17_Node000002_Node000017"><a xlink:title=" ">
<path fill="none" stroke="#63b8ff" d="M999.12,-141.39C1085.98,-142.16 1287.6,-138.68 1450,-96 1451.69,-95.56 1453.4,-95.03 1455.11,-94.44"/>
<polygon fill="#63b8ff" stroke="#63b8ff" points="1456.67,-97.59 1464.64,-90.61 1454.06,-91.09 1456.67,-97.59"/>
</a>
</g>
</g>
<!-- Node18 -->
<g id="Node000018" class="node">
<title>Node18</title>
<g id="a_Node000018"><a xlink:title=" ">
<polygon fill="#e0e0e0" stroke="#999999" points="702.5,-90.5 661.5,-90.5 661.5,-71.5 702.5,-71.5 702.5,-90.5"/>
<text text-anchor="middle" x="682" y="-78.5" font-family="Helvetica,sans-Serif" font-size="10.00">tuple</text>
</a>
</g>
</g>
<!-- Node2&#45;&gt;Node18 -->
<g id="edge18_Node000002_Node000018" class="edge">
<title>Node2&#45;&gt;Node18</title>
<g id="a_edge18_Node000002_Node000018"><a xlink:title=" ">
<path fill="none" stroke="#63b8ff" d="M912.51,-133.46C853.96,-123.79 752.98,-106.43 717,-96 715.07,-95.44 713.09,-94.81 711.12,-94.14"/>
<polygon fill="#63b8ff" stroke="#63b8ff" points="711.98,-90.73 701.38,-90.54 709.55,-97.29 711.98,-90.73"/>
</a>
</g>
</g>
<!-- Node19 -->
<g id="Node000019" class="node">
<title>Node19</title>
<g id="a_Node000019"><a xlink:title=" ">
<polygon fill="#e0e0e0" stroke="#999999" points="1568.5,-90.5 1521.5,-90.5 1521.5,-71.5 1568.5,-71.5 1568.5,-90.5"/>
<text text-anchor="middle" x="1545" y="-78.5" font-family="Helvetica,sans-Serif" font-size="10.00">vector</text>
</a>
</g>
</g>
<!-- Node2&#45;&gt;Node19 -->
<g id="edge19_Node000002_Node000019" class="edge">
<title>Node2&#45;&gt;Node19</title>
<g id="a_edge19_Node000002_Node000019"><a xlink:title=" ">
<path fill="none" stroke="#63b8ff" d="M999.02,-138.84C1111.94,-134.2 1414.78,-119.85 1512,-96 1513.95,-95.52 1515.93,-94.94 1517.91,-94.29"/>
<polygon fill="#63b8ff" stroke="#63b8ff" points="1519.44,-97.46 1527.55,-90.63 1516.96,-90.91 1519.44,-97.46"/>
</a>
</g>
</g>
<!-- Node3&#45;&gt;Node4 -->
<g id="edge3_Node000003_Node000004" class="edge">
<title>Node3&#45;&gt;Node4</title>
<g id="a_edge3_Node000003_Node000004"><a xlink:title=" ">
<path fill="none" stroke="#63b8ff" d="M804.54,-71.37C792.68,-62.44 773.75,-48.19 758.06,-36.38"/>
<polygon fill="#63b8ff" stroke="#63b8ff" points="759.84,-33.33 749.75,-30.12 755.63,-38.93 759.84,-33.33"/>
</a>
</g>
</g>
<!-- Node5 -->
<g id="Node000005" class="node">
<title>Node5</title>
<g id="a_Node000005"><a xlink:title=" ">
<polygon fill="#e0e0e0" stroke="#999999" points="918.5,-30 799.5,-30 799.5,0 918.5,0 918.5,-30"/>
<text text-anchor="start" x="807.5" y="-18" font-family="Helvetica,sans-Serif" font-size="10.00">deal.II/numerics/data</text>
<text text-anchor="middle" x="859" y="-7" font-family="Helvetica,sans-Serif" font-size="10.00">_postprocessor.h</text>
</a>
</g>
</g>
<!-- Node3&#45;&gt;Node5 -->
<g id="edge4_Node000003_Node000005" class="edge">
<title>Node3&#45;&gt;Node5</title>
<g id="a_edge4_Node000003_Node000005"><a xlink:title=" ">
<path fill="none" stroke="#63b8ff" d="M821.8,-71.37C827.37,-63.08 836.03,-50.18 843.6,-38.92"/>
<polygon fill="#63b8ff" stroke="#63b8ff" points="846.68,-40.61 849.35,-30.36 840.87,-36.71 846.68,-40.61"/>
</a>
</g>
</g>
<!-- Node21 -->
<g id="Node000021" class="node">
<title>Node21</title>
<g id="a_Node000021"><a xlink:href="parameters__lagrangian_8h.html" target="_top" xlink:title="Parameter structures for Lagrangian (DEM) particle simulations.">
<polygon fill="white" stroke="#666666" points="1455.5,-393 1292.5,-393 1292.5,-374 1455.5,-374 1455.5,-393"/>
<text text-anchor="middle" x="1374" y="-381" font-family="Helvetica,sans-Serif" font-size="10.00">core/parameters_lagrangian.h</text>
</a>
</g>
</g>
<!-- Node20&#45;&gt;Node21 -->
<g id="edge21_Node000020_Node000021" class="edge">
<title>Node20&#45;&gt;Node21</title>
<g id="a_edge21_Node000020_Node000021"><a xlink:title=" ">
<path fill="none" stroke="#63b8ff" d="M1173.17,-434.49C1214.59,-424.18 1284.48,-406.78 1329.92,-395.47"/>
<polygon fill="#63b8ff" stroke="#63b8ff" points="1330.93,-398.83 1339.79,-393.02 1329.24,-392.04 1330.93,-398.83"/>
</a>
</g>
</g>
<!-- Node42 -->
<g id="Node000042" class="node">
<title>Node42</title>
<g id="a_Node000042"><a xlink:title=" ">
<polygon fill="#e0e0e0" stroke="#999999" points="1166,-393 1112,-393 1112,-374 1166,-374 1166,-393"/>
<text text-anchor="middle" x="1139" y="-381" font-family="Helvetica,sans-Serif" font-size="10.00">random</text>
</a>
</g>
</g>
<!-- Node20&#45;&gt;Node42 -->
<g id="edge44_Node000020_Node000042" class="edge">
<title>Node20&#45;&gt;Node42</title>
<g id="a_edge44_Node000020_Node000042"><a xlink:title=" ">
<path fill="none" stroke="#63b8ff" d="M1139,-434.37C1139,-426.25 1139,-413.81 1139,-403.39"/>
<polygon fill="#63b8ff" stroke="#63b8ff" points="1142.5,-403.17 1139,-393.17 1135.5,-403.17 1142.5,-403.17"/>
</a>
</g>
</g>
<!-- Node21&#45;&gt;Node7 -->
<g id="edge40_Node000021_Node000007" class="edge">
<title>Node21&#45;&gt;Node7</title>
<g id="a_edge40_Node000021_Node000007"><a xlink:title=" ">
<path fill="none" stroke="#63b8ff" d="M1455.74,-380.91C1599.14,-375.9 1881,-355.08 1881,-269 1881,-269 1881,-269 1881,-201 1881,-161.1 1849.36,-124.85 1825.39,-103.12"/>
<polygon fill="#63b8ff" stroke="#63b8ff" points="1827.44,-100.26 1817.61,-96.32 1822.83,-105.53 1827.44,-100.26"/>
</a>
</g>
</g>
<!-- Node21&#45;&gt;Node16 -->
<g id="edge41_Node000021_Node000016" class="edge">
<title>Node21&#45;&gt;Node16</title>
<g id="a_edge41_Node000021_Node000016"><a xlink:title=" ">
<path fill="none" stroke="#63b8ff" d="M1292.43,-380.23C1153.3,-374.12 885,-351.63 885,-269 885,-269 885,-269 885,-201 885,-13.32 226.62,-150.41 47,-96 45.74,-95.62 44.47,-95.18 43.2,-94.71"/>
<polygon fill="#63b8ff" stroke="#63b8ff" points="44.29,-91.36 33.73,-90.53 41.46,-97.77 44.29,-91.36"/>
</a>
</g>
</g>
<!-- Node21&#45;&gt;Node17 -->
<g id="edge43_Node000021_Node000017" class="edge">
<title>Node21&#45;&gt;Node17</title>
<g id="a_edge43_Node000021_Node000017"><a xlink:title=" ">
<path fill="none" stroke="#63b8ff" d="M1362.44,-373.82C1337.53,-354 1282.23,-303.18 1297,-253 1315.07,-191.62 1326.88,-174.16 1375,-132 1378.19,-129.2 1422.29,-108.79 1452.6,-94.93"/>
<polygon fill="#63b8ff" stroke="#63b8ff" points="1454.24,-98.03 1461.88,-90.69 1451.33,-91.66 1454.24,-98.03"/>
</a>
</g>
</g>
<!-- Node22 -->
<g id="Node000022" class="node">
<title>Node22</title>
<g id="a_Node000022"><a xlink:href="parameters_8h.html" target="_top" xlink:title=" ">
<polygon fill="white" stroke="#666666" points="1534,-338 1428,-338 1428,-319 1534,-319 1534,-338"/>
<text text-anchor="middle" x="1481" y="-326" font-family="Helvetica,sans-Serif" font-size="10.00">core/parameters.h</text>
</a>
</g>
</g>
<!-- Node21&#45;&gt;Node22 -->
<g id="edge22_Node000021_Node000022" class="edge">
<title>Node21&#45;&gt;Node22</title>
<g id="a_edge22_Node000021_Node000022"><a xlink:title=" ">
<path fill="none" stroke="#63b8ff" d="M1391.19,-373.98C1408.25,-365.54 1434.63,-352.47 1454.4,-342.68"/>
<polygon fill="#63b8ff" stroke="#63b8ff" points="1456.09,-345.75 1463.5,-338.17 1452.98,-339.47 1456.09,-345.75"/>
</a>
</g>
</g>
<!-- Node41 -->
<g id="Node000041" class="node">
<title>Node41</title>
<g id="a_Node000041"><a xlink:title=" ">
<polygon fill="#e0e0e0" stroke="#999999" points="1584,-338 1552,-338 1552,-319 1584,-319 1584,-338"/>
<text text-anchor="middle" x="1568" y="-326" font-family="Helvetica,sans-Serif" font-size="10.00">set</text>
</a>
</g>
</g>
<!-- Node21&#45;&gt;Node41 -->
<g id="edge42_Node000021_Node000041" class="edge">
<title>Node21&#45;&gt;Node41</title>
<g id="a_edge42_Node000021_Node000041"><a xlink:title=" ">
<path fill="none" stroke="#63b8ff" d="M1409.48,-373.93C1441.81,-365.95 1491.05,-353.37 1542.32,-338.05"/>
<polygon fill="#63b8ff" stroke="#63b8ff" points="1543.35,-341.39 1551.92,-335.15 1541.33,-334.69 1543.35,-341.39"/>
</a>
</g>
</g>
<!-- Node22&#45;&gt;Node2 -->
<g id="edge36_Node000022_Node000002" class="edge">
<title>Node22&#45;&gt;Node2</title>
<g id="a_edge36_Node000022_Node000002"><a xlink:title=" ">
<path fill="none" stroke="#63b8ff" d="M1437.72,-319C1400.1,-311.14 1344.36,-298.38 1297,-283 1177.26,-244.11 1040.29,-182.07 983.2,-155.39"/>
<polygon fill="#63b8ff" stroke="#63b8ff" points="984.65,-152.21 974.11,-151.13 981.68,-158.54 984.65,-152.21"/>
</a>
</g>
</g>
<!-- Node22&#45;&gt;Node7 -->
<g id="edge37_Node000022_Node000007" class="edge">
<title>Node22&#45;&gt;Node7</title>
<g id="a_edge37_Node000022_Node000007"><a xlink:title=" ">
<path fill="none" stroke="#63b8ff" d="M1534.01,-320.13C1613.39,-308.96 1754.95,-288.47 1765,-283 1799.56,-264.19 1809.97,-253.76 1824,-217 1838.31,-179.52 1822.99,-132.96 1810.82,-105.47"/>
<polygon fill="#63b8ff" stroke="#63b8ff" points="1813.93,-103.85 1806.54,-96.25 1807.58,-106.8 1813.93,-103.85"/>
</a>
</g>
</g>
<!-- Node23 -->
<g id="Node000023" class="node">
<title>Node23</title>
<g id="a_Node000023"><a xlink:href="dimensionality_8h.html" target="_top" xlink:title=" ">
<polygon fill="white" stroke="#666666" points="1814.5,-211.5 1693.5,-211.5 1693.5,-192.5 1814.5,-192.5 1814.5,-211.5"/>
<text text-anchor="middle" x="1754" y="-199.5" font-family="Helvetica,sans-Serif" font-size="10.00">core/dimensionality.h</text>
</a>
</g>
</g>
<!-- Node22&#45;&gt;Node23 -->
<g id="edge23_Node000022_Node000023" class="edge">
<title>Node22&#45;&gt;Node23</title>
<g id="a_edge23_Node000022_Node000023"><a xlink:title=" ">
<path fill="none" stroke="#63b8ff" d="M1534.15,-320.2C1609.15,-309.67 1737.78,-290.63 1745,-283 1760.28,-266.86 1760.05,-239.91 1757.68,-221.8"/>
<polygon fill="#63b8ff" stroke="#63b8ff" points="1761.12,-221.15 1756.05,-211.85 1754.21,-222.28 1761.12,-221.15"/>
</a>
</g>
</g>
<!-- Node24 -->
<g id="Node000024" class="node">
<title>Node24</title>
<g id="a_Node000024"><a xlink:href="ib__particle_8h.html" target="_top" xlink:title=" ">
<polygon fill="white" stroke="#666666" points="1406.5,-277.5 1305.5,-277.5 1305.5,-258.5 1406.5,-258.5 1406.5,-277.5"/>
<text text-anchor="middle" x="1356" y="-265.5" font-family="Helvetica,sans-Serif" font-size="10.00">core/ib_particle.h</text>
</a>
</g>
</g>
<!-- Node22&#45;&gt;Node24 -->
<g id="edge25_Node000022_Node000024" class="edge">
<title>Node22&#45;&gt;Node24</title>
<g id="a_edge25_Node000022_Node000024"><a xlink:title=" ">
<path fill="none" stroke="#63b8ff" d="M1462.82,-318.99C1441.99,-309.25 1407.63,-293.16 1383.52,-281.88"/>
<polygon fill="#63b8ff" stroke="#63b8ff" points="1384.74,-278.59 1374.2,-277.52 1381.77,-284.93 1384.74,-278.59"/>
</a>
</g>
</g>
<!-- Node38 -->
<g id="Node000038" class="node">
<title>Node38</title>
<g id="a_Node000038"><a xlink:title=" ">
<polygon fill="#e0e0e0" stroke="#999999" points="1675.5,-217 1566.5,-217 1566.5,-187 1675.5,-187 1675.5,-217"/>
<text text-anchor="start" x="1574.5" y="-205" font-family="Helvetica,sans-Serif" font-size="10.00">deal.II/base/parsed</text>
<text text-anchor="middle" x="1621" y="-194" font-family="Helvetica,sans-Serif" font-size="10.00">_function.h</text>
</a>
</g>
</g>
<!-- Node22&#45;&gt;Node38 -->
<g id="edge38_Node000022_Node000038" class="edge">
<title>Node22&#45;&gt;Node38</title>
<g id="a_edge38_Node000022_Node000038"><a xlink:title=" ">
<path fill="none" stroke="#63b8ff" d="M1534.09,-319.7C1604.8,-309.05 1721.78,-290.44 1728,-283 1749.44,-257.35 1712.83,-235.23 1676.73,-220.79"/>
<polygon fill="#63b8ff" stroke="#63b8ff" points="1677.7,-217.41 1667.11,-217.1 1675.2,-223.95 1677.7,-217.41"/>
</a>
</g>
</g>
<!-- Node39 -->
<g id="Node000039" class="node">
<title>Node39</title>
<g id="a_Node000039"><a xlink:href="multiphysics_8h.html" target="_top" xlink:title="Identifiers for multiphysics modules and their solution fields.">
<polygon fill="white" stroke="#666666" points="1537,-277.5 1425,-277.5 1425,-258.5 1537,-258.5 1537,-277.5"/>
<text text-anchor="middle" x="1481" y="-265.5" font-family="Helvetica,sans-Serif" font-size="10.00">core/multiphysics.h</text>
</a>
</g>
</g>
<!-- Node22&#45;&gt;Node39 -->
<g id="edge35_Node000022_Node000039" class="edge">
<title>Node22&#45;&gt;Node39</title>
<g id="a_edge35_Node000022_Node000039"><a xlink:title=" ">
<path fill="none" stroke="#63b8ff" d="M1481,-318.87C1481,-310.75 1481,-298.31 1481,-287.89"/>
<polygon fill="#63b8ff" stroke="#63b8ff" points="1484.5,-287.67 1481,-277.67 1477.5,-287.67 1484.5,-287.67"/>
</a>
</g>
</g>
<!-- Node40 -->
<g id="Node000040" class="node">
<title>Node40</title>
<g id="a_Node000040"><a xlink:title=" ">
<polygon fill="#e0e0e0" stroke="#999999" points="1718.5,-283 1555.5,-283 1555.5,-253 1718.5,-253 1718.5,-283"/>
<text text-anchor="start" x="1563.5" y="-271" font-family="Helvetica,sans-Serif" font-size="10.00">deal.II/multigrid/mg</text>
<text text-anchor="middle" x="1637" y="-260" font-family="Helvetica,sans-Serif" font-size="10.00">_transfer_global_coarsening.h</text>
</a>
</g>
</g>
<!-- Node22&#45;&gt;Node40 -->
<g id="edge39_Node000022_Node000040" class="edge">
<title>Node22&#45;&gt;Node40</title>
<g id="a_edge39_Node000022_Node000040"><a xlink:title=" ">
<path fill="none" stroke="#63b8ff" d="M1503.68,-318.99C1526.23,-310.54 1561.49,-297.32 1590.08,-286.59"/>
<polygon fill="#63b8ff" stroke="#63b8ff" points="1591.36,-289.85 1599.5,-283.06 1588.9,-283.3 1591.36,-289.85"/>
</a>
</g>
</g>
<!-- Node23&#45;&gt;Node7 -->
<g id="edge24_Node000023_Node000007" class="edge">
<title>Node23&#45;&gt;Node7</title>
<g id="a_edge24_Node000023_Node000007"><a xlink:title=" ">
<path fill="none" stroke="#63b8ff" d="M1757.24,-192.44C1764.03,-174.48 1779.97,-132.33 1790.07,-105.6"/>
<polygon fill="#63b8ff" stroke="#63b8ff" points="1793.37,-106.79 1793.63,-96.2 1786.82,-104.31 1793.37,-106.79"/>
</a>
</g>
</g>
<!-- Node24&#45;&gt;Node8 -->
<g id="edge33_Node000024_Node000008" class="edge">
<title>Node24&#45;&gt;Node8</title>
<g id="a_edge33_Node000024_Node000008"><a xlink:title=" ">
<path fill="none" stroke="#63b8ff" d="M1356.97,-258.43C1359.46,-237.03 1366.44,-179.52 1375,-132 1376.88,-121.56 1379.4,-109.99 1381.55,-100.62"/>
<polygon fill="#63b8ff" stroke="#63b8ff" points="1384.97,-101.35 1383.85,-90.81 1378.16,-99.75 1384.97,-101.35"/>
</a>
</g>
</g>
<!-- Node24&#45;&gt;Node19 -->
<g id="edge34_Node000024_Node000019" class="edge">
<title>Node24&#45;&gt;Node19</title>
<g id="a_edge34_Node000024_Node000019"><a xlink:title=" ">
<path fill="none" stroke="#63b8ff" d="M1374.62,-258.4C1408.08,-242.06 1478.62,-203.42 1519,-151 1530.45,-136.13 1537.32,-115.66 1541.09,-100.88"/>
<polygon fill="#63b8ff" stroke="#63b8ff" points="1544.56,-101.41 1543.4,-90.88 1537.74,-99.83 1544.56,-101.41"/>
</a>
</g>
</g>
<!-- Node25 -->
<g id="Node000025" class="node">
<title>Node25</title>
<g id="a_Node000025"><a xlink:href="dem__properties_8h.html" target="_top" xlink:title="DEM particle property definitions and output name management.">
<polygon fill="white" stroke="#666666" points="1510,-151 1384,-151 1384,-132 1510,-132 1510,-151"/>
<text text-anchor="middle" x="1447" y="-139" font-family="Helvetica,sans-Serif" font-size="10.00">core/dem_properties.h</text>
</a>
</g>
</g>
<!-- Node24&#45;&gt;Node25 -->
<g id="edge26_Node000024_Node000025" class="edge">
<title>Node24&#45;&gt;Node25</title>
<g id="a_edge26_Node000024_Node000025"><a xlink:title=" ">
<path fill="none" stroke="#63b8ff" d="M1362.25,-258.44C1377.19,-238.01 1415.15,-186.07 1434.8,-159.19"/>
<polygon fill="#63b8ff" stroke="#63b8ff" points="1437.63,-161.26 1440.7,-151.12 1431.97,-157.13 1437.63,-161.26"/>
</a>
</g>
</g>
<!-- Node26 -->
<g id="Node000026" class="node">
<title>Node26</title>
<g id="a_Node000026"><a xlink:href="shape_8h.html" target="_top" xlink:title=" ">
<polygon fill="#fff0f0" stroke="red" points="1282.5,-211.5 1203.5,-211.5 1203.5,-192.5 1282.5,-192.5 1282.5,-211.5"/>
<text text-anchor="middle" x="1243" y="-199.5" font-family="Helvetica,sans-Serif" font-size="10.00">core/shape.h</text>
</a>
</g>
</g>
<!-- Node24&#45;&gt;Node26 -->
<g id="edge29_Node000024_Node000026" class="edge">
<title>Node24&#45;&gt;Node26</title>
<g id="a_edge29_Node000024_Node000026"><a xlink:title=" ">
<path fill="none" stroke="#63b8ff" d="M1340.76,-258.37C1321.89,-247.68 1289.52,-229.35 1267.23,-216.72"/>
<polygon fill="#63b8ff" stroke="#63b8ff" points="1268.79,-213.58 1258.36,-211.7 1265.34,-219.67 1268.79,-213.58"/>
</a>
</g>
</g>
<!-- Node24&#45;&gt;Node38 -->
<g id="edge32_Node000024_Node000038" class="edge">
<title>Node24&#45;&gt;Node38</title>
<g id="a_edge32_Node000024_Node000038"><a xlink:title=" ">
<path fill="none" stroke="#63b8ff" d="M1391.46,-258.44C1433.6,-248.26 1504.71,-231.09 1556.64,-218.54"/>
<polygon fill="#63b8ff" stroke="#63b8ff" points="1557.53,-221.93 1566.43,-216.18 1555.88,-215.13 1557.53,-221.93"/>
</a>
</g>
</g>
<!-- Node25&#45;&gt;Node17 -->
<g id="edge27_Node000025_Node000017" class="edge">
<title>Node25&#45;&gt;Node17</title>
<g id="a_edge27_Node000025_Node000017"><a xlink:title=" ">
<path fill="none" stroke="#63b8ff" d="M1452.02,-131.87C1456.94,-123.4 1464.59,-110.24 1470.79,-99.57"/>
<polygon fill="#63b8ff" stroke="#63b8ff" points="1473.96,-101.07 1475.96,-90.67 1467.91,-97.55 1473.96,-101.07"/>
</a>
</g>
</g>
<!-- Node25&#45;&gt;Node19 -->
<g id="edge28_Node000025_Node000019" class="edge">
<title>Node25&#45;&gt;Node19</title>
<g id="a_edge28_Node000025_Node000019"><a xlink:title=" ">
<path fill="none" stroke="#63b8ff" d="M1461.46,-131.87C1477.31,-122.41 1502.97,-107.09 1521.68,-95.92"/>
<polygon fill="#63b8ff" stroke="#63b8ff" points="1523.69,-98.8 1530.48,-90.67 1520.1,-92.79 1523.69,-98.8"/>
</a>
</g>
</g>
<!-- Node26&#45;&gt;Node2 -->
<g id="edge30_Node000026_Node000002" class="edge">
<title>Node26&#45;&gt;Node2</title>
<g id="a_edge30_Node000026_Node000002"><a xlink:title=" ">
<path fill="none" stroke="#63b8ff" d="M1211.39,-192.44C1204.06,-190.55 1196.28,-188.64 1189,-187 1127.61,-173.2 1056.5,-160.02 1009.14,-151.64"/>
<polygon fill="#63b8ff" stroke="#63b8ff" points="1009.57,-148.16 999.12,-149.87 1008.36,-155.05 1009.57,-148.16"/>
</a>
</g>
</g>
<!-- Node26&#45;&gt;Node10 -->
<g id="edge31_Node000026_Node000010" class="edge">
<title>Node26&#45;&gt;Node10</title>
<g id="a_edge31_Node000026_Node000010"><a xlink:title=" ">
<path fill="none" stroke="#63b8ff" d="M1243,-192.44C1243,-173.41 1243,-127.19 1243,-100.97"/>
<polygon fill="#63b8ff" stroke="#63b8ff" points="1246.5,-100.8 1243,-90.8 1239.5,-100.8 1246.5,-100.8"/>
</a>
</g>
</g>
</g>
</svg>
