<?xml version="1.0" encoding="UTF-8" standalone="no"?>
<!DOCTYPE svg PUBLIC "-//W3C//DTD SVG 1.1//EN"
 "http://www.w3.org/Graphics/SVG/1.1/DTD/svg11.dtd">
<!-- Generated by graphviz version 2.43.0 (0)
 -->
<!-- Title: /home/runner/work/lethe/lethe/source/dem/explicit_euler_integrator.cc Pages: 1 -->
<svg width="2145pt" height="544pt"
 viewBox="0.00 0.00 2144.94 544.00" xmlns="http://www.w3.org/2000/svg" xmlns:xlink="http://www.w3.org/1999/xlink">
<g id="graph0" class="graph" transform="scale(1 1) rotate(0) translate(4 540)">
<title>/home/runner/work/lethe/lethe/source/dem/explicit_euler_integrator.cc</title>
<!-- Node1 -->
<g id="Node000001" class="node">
<title>Node1</title>
<g id="a_Node000001"><a xlink:title=" ">
<polygon fill="#999999" stroke="#666666" points="1201.44,-536 1058.44,-536 1058.44,-495 1201.44,-495 1201.44,-536"/>
<text text-anchor="start" x="1066.44" y="-524" font-family="Helvetica,sans-Serif" font-size="10.00">/home/runner/work/lethe</text>
<text text-anchor="start" x="1066.44" y="-513" font-family="Helvetica,sans-Serif" font-size="10.00">/lethe/source/dem/explicit</text>
<text text-anchor="middle" x="1129.94" y="-502" font-family="Helvetica,sans-Serif" font-size="10.00">_euler_integrator.cc</text>
</a>
</g>
</g>
<!-- Node2 -->
<g id="Node000002" class="node">
<title>Node2</title>
<g id="a_Node000002"><a xlink:href="dem__properties_8h.html" target="_top" xlink:title="DEM particle property definitions and output name management.">
<polygon fill="white" stroke="#666666" points="1993.94,-79.5 1867.94,-79.5 1867.94,-60.5 1993.94,-60.5 1993.94,-79.5"/>
<text text-anchor="middle" x="1930.94" y="-67.5" font-family="Helvetica,sans-Serif" font-size="10.00">core/dem_properties.h</text>
</a>
</g>
</g>
<!-- Node1&#45;&gt;Node2 -->
<g id="edge1_Node000001_Node000002" class="edge">
<title>Node1&#45;&gt;Node2</title>
<g id="a_edge1_Node000001_Node000002"><a xlink:title=" ">
<path fill="none" stroke="#63b8ff" d="M1201.56,-512.79C1431.62,-506.35 2136.94,-478.92 2136.94,-384.5 2136.94,-384.5 2136.94,-384.5 2136.94,-201 2136.94,-130.8 2050.32,-96.98 1989.42,-81.87"/>
<polygon fill="#63b8ff" stroke="#63b8ff" points="1990.04,-78.42 1979.5,-79.52 1988.43,-85.24 1990.04,-78.42"/>
</a>
</g>
</g>
<!-- Node5 -->
<g id="Node000005" class="node">
<title>Node5</title>
<g id="a_Node000005"><a xlink:href="tensors__and__points__dimension__manipulation_8h.html" target="_top" xlink:title=" ">
<polygon fill="white" stroke="#666666" points="1205.94,-151 1053.94,-151 1053.94,-121 1205.94,-121 1205.94,-151"/>
<text text-anchor="start" x="1061.94" y="-139" font-family="Helvetica,sans-Serif" font-size="10.00">core/tensors_and_points</text>
<text text-anchor="middle" x="1129.94" y="-128" font-family="Helvetica,sans-Serif" font-size="10.00">_dimension_manipulation.h</text>
</a>
</g>
</g>
<!-- Node1&#45;&gt;Node5 -->
<g id="edge4_Node000001_Node000005" class="edge">
<title>Node1&#45;&gt;Node5</title>
<g id="a_edge4_Node000001_Node000005"><a xlink:title=" ">
<path fill="none" stroke="#63b8ff" d="M1129.94,-494.68C1129.94,-469.19 1129.94,-423.55 1129.94,-384.5 1129.94,-384.5 1129.94,-384.5 1129.94,-267 1129.94,-230.07 1129.94,-187.24 1129.94,-161.14"/>
<polygon fill="#63b8ff" stroke="#63b8ff" points="1133.44,-161.04 1129.94,-151.04 1126.44,-161.04 1133.44,-161.04"/>
</a>
</g>
</g>
<!-- Node8 -->
<g id="Node000008" class="node">
<title>Node8</title>
<g id="a_Node000008"><a xlink:href="explicit__euler__integrator_8h.html" target="_top" xlink:title=" ">
<polygon fill="white" stroke="#666666" points="1048.44,-459 941.44,-459 941.44,-429 1048.44,-429 1048.44,-459"/>
<text text-anchor="start" x="949.44" y="-447" font-family="Helvetica,sans-Serif" font-size="10.00">dem/explicit_euler</text>
<text text-anchor="middle" x="994.94" y="-436" font-family="Helvetica,sans-Serif" font-size="10.00">_integrator.h</text>
</a>
</g>
</g>
<!-- Node1&#45;&gt;Node8 -->
<g id="edge7_Node000001_Node000008" class="edge">
<title>Node1&#45;&gt;Node8</title>
<g id="a_edge7_Node000001_Node000008"><a xlink:title=" ">
<path fill="none" stroke="#63b8ff" d="M1091.98,-494.96C1073.03,-485.2 1050.22,-473.46 1031.47,-463.81"/>
<polygon fill="#63b8ff" stroke="#63b8ff" points="1032.85,-460.58 1022.36,-459.11 1029.65,-466.8 1032.85,-460.58"/>
</a>
</g>
</g>
<!-- Node3 -->
<g id="Node000003" class="node">
<title>Node3</title>
<g id="a_Node000003"><a xlink:title=" ">
<polygon fill="#e0e0e0" stroke="#999999" points="1952.94,-19 1908.94,-19 1908.94,0 1952.94,0 1952.94,-19"/>
<text text-anchor="middle" x="1930.94" y="-7" font-family="Helvetica,sans-Serif" font-size="10.00">string</text>
</a>
</g>
</g>
<!-- Node2&#45;&gt;Node3 -->
<g id="edge2_Node000002_Node000003" class="edge">
<title>Node2&#45;&gt;Node3</title>
<g id="a_edge2_Node000002_Node000003"><a xlink:title=" ">
<path fill="none" stroke="#63b8ff" d="M1930.94,-60.37C1930.94,-52.25 1930.94,-39.81 1930.94,-29.39"/>
<polygon fill="#63b8ff" stroke="#63b8ff" points="1934.44,-29.17 1930.94,-19.17 1927.44,-29.17 1934.44,-29.17"/>
</a>
</g>
</g>
<!-- Node4 -->
<g id="Node000004" class="node">
<title>Node4</title>
<g id="a_Node000004"><a xlink:title=" ">
<polygon fill="#e0e0e0" stroke="#999999" points="1361.44,-19 1314.44,-19 1314.44,0 1361.44,0 1361.44,-19"/>
<text text-anchor="middle" x="1337.94" y="-7" font-family="Helvetica,sans-Serif" font-size="10.00">vector</text>
</a>
</g>
</g>
<!-- Node2&#45;&gt;Node4 -->
<g id="edge3_Node000002_Node000004" class="edge">
<title>Node2&#45;&gt;Node4</title>
<g id="a_edge3_Node000002_Node000004"><a xlink:title=" ">
<path fill="none" stroke="#63b8ff" d="M1891.08,-60.46C1880.66,-58.45 1869.41,-56.46 1858.94,-55 1676.12,-29.49 1455.03,-16.43 1371.81,-12.14"/>
<polygon fill="#63b8ff" stroke="#63b8ff" points="1371.84,-8.63 1361.67,-11.62 1371.48,-15.62 1371.84,-8.63"/>
</a>
</g>
</g>
<!-- Node6 -->
<g id="Node000006" class="node">
<title>Node6</title>
<g id="a_Node000006"><a xlink:title=" ">
<polygon fill="#e0e0e0" stroke="#999999" points="1184.94,-79.5 1074.94,-79.5 1074.94,-60.5 1184.94,-60.5 1184.94,-79.5"/>
<text text-anchor="middle" x="1129.94" y="-67.5" font-family="Helvetica,sans-Serif" font-size="10.00">deal.II/base/point.h</text>
</a>
</g>
</g>
<!-- Node5&#45;&gt;Node6 -->
<g id="edge5_Node000005_Node000006" class="edge">
<title>Node5&#45;&gt;Node6</title>
<g id="a_edge5_Node000005_Node000006"><a xlink:title=" ">
<path fill="none" stroke="#63b8ff" d="M1129.94,-120.8C1129.94,-111.7 1129.94,-99.79 1129.94,-89.9"/>
<polygon fill="#63b8ff" stroke="#63b8ff" points="1133.44,-89.84 1129.94,-79.84 1126.44,-89.84 1133.44,-89.84"/>
</a>
</g>
</g>
<!-- Node7 -->
<g id="Node000007" class="node">
<title>Node7</title>
<g id="a_Node000007"><a xlink:title=" ">
<polygon fill="#e0e0e0" stroke="#999999" points="893.44,-79.5 778.44,-79.5 778.44,-60.5 893.44,-60.5 893.44,-79.5"/>
<text text-anchor="middle" x="835.94" y="-67.5" font-family="Helvetica,sans-Serif" font-size="10.00">deal.II/base/tensor.h</text>
</a>
</g>
</g>
<!-- Node5&#45;&gt;Node7 -->
<g id="edge6_Node000005_Node000007" class="edge">
<title>Node5&#45;&gt;Node7</title>
<g id="a_edge6_Node000005_Node000007"><a xlink:title=" ">
<path fill="none" stroke="#63b8ff" d="M1065.43,-120.95C1011.03,-109.11 934.35,-92.42 884.89,-81.65"/>
<polygon fill="#63b8ff" stroke="#63b8ff" points="885.59,-78.22 875.07,-79.52 884.1,-85.06 885.59,-78.22"/>
</a>
</g>
</g>
<!-- Node9 -->
<g id="Node000009" class="node">
<title>Node9</title>
<g id="a_Node000009"><a xlink:href="integrator_8h.html" target="_top" xlink:title=" ">
<polygon fill="white" stroke="#666666" points="937.94,-393 839.94,-393 839.94,-374 937.94,-374 937.94,-393"/>
<text text-anchor="middle" x="888.94" y="-381" font-family="Helvetica,sans-Serif" font-size="10.00">dem/integrator.h</text>
</a>
</g>
</g>
<!-- Node8&#45;&gt;Node9 -->
<g id="edge8_Node000008_Node000009" class="edge">
<title>Node8&#45;&gt;Node9</title>
<g id="a_edge8_Node000008_Node000009"><a xlink:title=" ">
<path fill="none" stroke="#63b8ff" d="M969.56,-428.99C952.66,-419.66 930.57,-407.47 913.79,-398.21"/>
<polygon fill="#63b8ff" stroke="#63b8ff" points="915.05,-394.91 904.6,-393.14 911.66,-401.04 915.05,-394.91"/>
</a>
</g>
</g>
<!-- Node10 -->
<g id="Node000010" class="node">
<title>Node10</title>
<g id="a_Node000010"><a xlink:href="adaptive__sparse__contacts_8h.html" target="_top" xlink:title=" ">
<polygon fill="white" stroke="#666666" points="499.94,-283 377.94,-283 377.94,-253 499.94,-253 499.94,-283"/>
<text text-anchor="start" x="385.94" y="-271" font-family="Helvetica,sans-Serif" font-size="10.00">dem/adaptive_sparse</text>
<text text-anchor="middle" x="438.94" y="-260" font-family="Helvetica,sans-Serif" font-size="10.00">_contacts.h</text>
</a>
</g>
</g>
<!-- Node9&#45;&gt;Node10 -->
<g id="edge9_Node000009_Node000010" class="edge">
<title>Node9&#45;&gt;Node10</title>
<g id="a_edge9_Node000009_Node000010"><a xlink:title=" ">
<path fill="none" stroke="#63b8ff" d="M855.12,-373.97C780.72,-355.2 601.76,-310.07 504.51,-285.54"/>
<polygon fill="#63b8ff" stroke="#63b8ff" points="505.34,-282.14 494.79,-283.09 503.63,-288.93 505.34,-282.14"/>
</a>
</g>
</g>
<!-- Node11 -->
<g id="Node000011" class="node">
<title>Node11</title>
<g id="a_Node000011"><a xlink:href="data__containers_8h.html" target="_top" xlink:title=" ">
<polygon fill="white" stroke="#666666" points="899.94,-211.5 771.94,-211.5 771.94,-192.5 899.94,-192.5 899.94,-211.5"/>
<text text-anchor="middle" x="835.94" y="-199.5" font-family="Helvetica,sans-Serif" font-size="10.00">dem/data_containers.h</text>
</a>
</g>
</g>
<!-- Node9&#45;&gt;Node11 -->
<g id="edge41_Node000009_Node000011" class="edge">
<title>Node9&#45;&gt;Node11</title>
<g id="a_edge41_Node000009_Node000011"><a xlink:title=" ">
<path fill="none" stroke="#63b8ff" d="M886.39,-373.84C878.22,-346.18 852.63,-259.51 841.36,-221.35"/>
<polygon fill="#63b8ff" stroke="#63b8ff" points="844.66,-220.17 838.48,-211.57 837.95,-222.15 844.66,-220.17"/>
</a>
</g>
</g>
<!-- Node38 -->
<g id="Node000038" class="node">
<title>Node38</title>
<g id="a_Node000038"><a xlink:href="dem__solver__parameters_8h.html" target="_top" xlink:title=" ">
<polygon fill="white" stroke="#666666" points="1697.44,-338 1528.44,-338 1528.44,-319 1697.44,-319 1697.44,-338"/>
<text text-anchor="middle" x="1612.94" y="-326" font-family="Helvetica,sans-Serif" font-size="10.00">dem/dem_solver_parameters.h</text>
</a>
</g>
</g>
<!-- Node9&#45;&gt;Node38 -->
<g id="edge42_Node000009_Node000038" class="edge">
<title>Node9&#45;&gt;Node38</title>
<g id="a_edge42_Node000009_Node000038"><a xlink:title=" ">
<path fill="none" stroke="#63b8ff" d="M938.14,-378.9C1057.18,-370.18 1362.43,-347.84 1518.29,-336.43"/>
<polygon fill="#63b8ff" stroke="#63b8ff" points="1518.62,-339.91 1528.34,-335.69 1518.11,-332.93 1518.62,-339.91"/>
</a>
</g>
</g>
<!-- Node10&#45;&gt;Node4 -->
<g id="edge40_Node000010_Node000004" class="edge">
<title>Node10&#45;&gt;Node4</title>
<g id="a_edge40_Node000010_Node000004"><a xlink:title=" ">
<path fill="none" stroke="#63b8ff" d="M377.59,-264.36C264.01,-258.84 30.24,-244.26 5.94,-217 -2.93,-207.05 -0.66,-198.58 5.94,-187 62.99,-86.95 118.49,-87.63 228.94,-55 334.15,-23.92 1129.79,-12.92 1304.21,-10.87"/>
<polygon fill="#63b8ff" stroke="#63b8ff" points="1304.38,-14.37 1314.34,-10.75 1304.3,-7.37 1304.38,-14.37"/>
</a>
</g>
</g>
<!-- Node10&#45;&gt;Node7 -->
<g id="edge34_Node000010_Node000007" class="edge">
<title>Node10&#45;&gt;Node7</title>
<g id="a_edge34_Node000010_Node000007"><a xlink:title=" ">
<path fill="none" stroke="#63b8ff" d="M500.14,-265.2C575.45,-261.54 696.81,-250.48 724.94,-217 807.96,-118.21 365.13,-217.36 450.94,-121 497.07,-69.21 692.37,-95.37 760.94,-85 768.15,-83.91 775.72,-82.64 783.16,-81.32"/>
<polygon fill="#63b8ff" stroke="#63b8ff" points="783.98,-84.73 793.2,-79.51 782.73,-77.85 783.98,-84.73"/>
</a>
</g>
</g>
<!-- Node10&#45;&gt;Node11 -->
<g id="edge10_Node000010_Node000011" class="edge">
<title>Node10&#45;&gt;Node11</title>
<g id="a_edge10_Node000010_Node000011"><a xlink:title=" ">
<path fill="none" stroke="#63b8ff" d="M500.16,-257.82C564.43,-248.08 668.39,-232.05 757.94,-217 764.78,-215.85 771.95,-214.61 779.05,-213.36"/>
<polygon fill="#63b8ff" stroke="#63b8ff" points="780.13,-216.73 789.37,-211.53 778.91,-209.83 780.13,-216.73"/>
</a>
</g>
</g>
<!-- Node18 -->
<g id="Node000018" class="node">
<title>Node18</title>
<g id="a_Node000018"><a xlink:title=" ">
<polygon fill="#e0e0e0" stroke="#999999" points="751.94,-79.5 611.94,-79.5 611.94,-60.5 751.94,-60.5 751.94,-79.5"/>
<text text-anchor="middle" x="681.94" y="-67.5" font-family="Helvetica,sans-Serif" font-size="10.00">deal.II/dofs/dof_handler.h</text>
</a>
</g>
</g>
<!-- Node10&#45;&gt;Node18 -->
<g id="edge35_Node000010_Node000018" class="edge">
<title>Node10&#45;&gt;Node18</title>
<g id="a_edge35_Node000010_Node000018"><a xlink:title=" ">
<path fill="none" stroke="#63b8ff" d="M377.85,-264.17C266.67,-258.4 40.5,-243.51 16.94,-217 8.09,-207.03 8.36,-197.21 16.94,-187 90.83,-99.11 441.21,-77.81 601.53,-72.65"/>
<polygon fill="#63b8ff" stroke="#63b8ff" points="601.92,-76.14 611.81,-72.33 601.71,-69.14 601.92,-76.14"/>
</a>
</g>
</g>
<!-- Node33 -->
<g id="Node000033" class="node">
<title>Node33</title>
<g id="a_Node000033"><a xlink:href="dem__action__manager_8h.html" target="_top" xlink:title=" ">
<polygon fill="white" stroke="#666666" points="180.44,-211.5 25.44,-211.5 25.44,-192.5 180.44,-192.5 180.44,-211.5"/>
<text text-anchor="middle" x="102.94" y="-199.5" font-family="Helvetica,sans-Serif" font-size="10.00">dem/dem_action_manager.h</text>
</a>
</g>
</g>
<!-- Node10&#45;&gt;Node33 -->
<g id="edge33_Node000010_Node000033" class="edge">
<title>Node10&#45;&gt;Node33</title>
<g id="a_edge33_Node000010_Node000033"><a xlink:title=" ">
<path fill="none" stroke="#63b8ff" d="M377.71,-255.34C314.9,-243.37 218.11,-224.94 157.75,-213.44"/>
<polygon fill="#63b8ff" stroke="#63b8ff" points="158.13,-209.95 147.66,-211.52 156.82,-216.83 158.13,-209.95"/>
</a>
</g>
</g>
<!-- Node34 -->
<g id="Node000034" class="node">
<title>Node34</title>
<g id="a_Node000034"><a xlink:title=" ">
<polygon fill="#e0e0e0" stroke="#999999" points="293.44,-217 198.44,-217 198.44,-187 293.44,-187 293.44,-217"/>
<text text-anchor="start" x="206.44" y="-205" font-family="Helvetica,sans-Serif" font-size="10.00">deal.II/lac/affine</text>
<text text-anchor="middle" x="245.94" y="-194" font-family="Helvetica,sans-Serif" font-size="10.00">_constraints.h</text>
</a>
</g>
</g>
<!-- Node10&#45;&gt;Node34 -->
<g id="edge36_Node000010_Node000034" class="edge">
<title>Node10&#45;&gt;Node34</title>
<g id="a_edge36_Node000010_Node000034"><a xlink:title=" ">
<path fill="none" stroke="#63b8ff" d="M396.59,-252.95C367.55,-243.33 328.85,-230.49 297.94,-220.24"/>
<polygon fill="#63b8ff" stroke="#63b8ff" points="298.79,-216.84 288.2,-217.01 296.59,-223.48 298.79,-216.84"/>
</a>
</g>
</g>
<!-- Node35 -->
<g id="Node000035" class="node">
<title>Node35</title>
<g id="a_Node000035"><a xlink:title=" ">
<polygon fill="#e0e0e0" stroke="#999999" points="429.94,-217 311.94,-217 311.94,-187 429.94,-187 429.94,-217"/>
<text text-anchor="start" x="319.94" y="-205" font-family="Helvetica,sans-Serif" font-size="10.00">deal.II/lac/la_parallel</text>
<text text-anchor="middle" x="370.94" y="-194" font-family="Helvetica,sans-Serif" font-size="10.00">_vector.h</text>
</a>
</g>
</g>
<!-- Node10&#45;&gt;Node35 -->
<g id="edge37_Node000010_Node000035" class="edge">
<title>Node10&#45;&gt;Node35</title>
<g id="a_edge37_Node000010_Node000035"><a xlink:title=" ">
<path fill="none" stroke="#63b8ff" d="M423.85,-252.8C414.87,-244.34 403.31,-233.46 393.29,-224.03"/>
<polygon fill="#63b8ff" stroke="#63b8ff" points="395.67,-221.47 385.99,-217.16 390.88,-226.57 395.67,-221.47"/>
</a>
</g>
</g>
<!-- Node36 -->
<g id="Node000036" class="node">
<title>Node36</title>
<g id="a_Node000036"><a xlink:title=" ">
<polygon fill="#e0e0e0" stroke="#999999" points="565.94,-217 447.94,-217 447.94,-187 565.94,-187 565.94,-217"/>
<text text-anchor="start" x="455.94" y="-205" font-family="Helvetica,sans-Serif" font-size="10.00">deal.II/lac/la_parallel</text>
<text text-anchor="middle" x="506.94" y="-194" font-family="Helvetica,sans-Serif" font-size="10.00">_vector.templates.h</text>
</a>
</g>
</g>
<!-- Node10&#45;&gt;Node36 -->
<g id="edge38_Node000010_Node000036" class="edge">
<title>Node10&#45;&gt;Node36</title>
<g id="a_edge38_Node000010_Node000036"><a xlink:title=" ">
<path fill="none" stroke="#63b8ff" d="M454.04,-252.8C463.02,-244.34 474.58,-233.46 484.6,-224.03"/>
<polygon fill="#63b8ff" stroke="#63b8ff" points="487.01,-226.57 491.9,-217.16 482.21,-221.47 487.01,-226.57"/>
</a>
</g>
</g>
<!-- Node37 -->
<g id="Node000037" class="node">
<title>Node37</title>
<g id="a_Node000037"><a xlink:title=" ">
<polygon fill="#e0e0e0" stroke="#999999" points="715.44,-217 584.44,-217 584.44,-187 715.44,-187 715.44,-217"/>
<text text-anchor="start" x="592.44" y="-205" font-family="Helvetica,sans-Serif" font-size="10.00">deal.II/particles/particle</text>
<text text-anchor="middle" x="649.94" y="-194" font-family="Helvetica,sans-Serif" font-size="10.00">_handler.h</text>
</a>
</g>
</g>
<!-- Node10&#45;&gt;Node37 -->
<g id="edge39_Node000010_Node000037" class="edge">
<title>Node10&#45;&gt;Node37</title>
<g id="a_edge39_Node000010_Node000037"><a xlink:title=" ">
<path fill="none" stroke="#63b8ff" d="M485.25,-252.95C517.27,-243.24 560.04,-230.27 593.98,-219.98"/>
<polygon fill="#63b8ff" stroke="#63b8ff" points="595.19,-223.26 603.75,-217.01 593.16,-216.57 595.19,-223.26"/>
</a>
</g>
</g>
<!-- Node11&#45;&gt;Node4 -->
<g id="edge31_Node000011_Node000004" class="edge">
<title>Node11&#45;&gt;Node4</title>
<g id="a_edge31_Node000011_Node000004"><a xlink:title=" ">
<path fill="none" stroke="#63b8ff" d="M900.12,-198.71C1024.64,-193.64 1289.43,-179.6 1318.94,-151 1351.7,-119.25 1346.99,-59.84 1341.89,-29.45"/>
<polygon fill="#63b8ff" stroke="#63b8ff" points="1345.28,-28.53 1339.99,-19.35 1338.4,-29.82 1345.28,-28.53"/>
</a>
</g>
</g>
<!-- Node11&#45;&gt;Node7 -->
<g id="edge27_Node000011_Node000007" class="edge">
<title>Node11&#45;&gt;Node7</title>
<g id="a_edge27_Node000011_Node000007"><a xlink:title=" ">
<path fill="none" stroke="#63b8ff" d="M790.64,-192.46C779.94,-190.55 768.55,-188.62 757.94,-187 629.42,-167.36 386.9,-218.47 472.94,-121 515.63,-72.65 697.21,-94.92 760.94,-85 768.05,-83.89 775.52,-82.63 782.88,-81.32"/>
<polygon fill="#63b8ff" stroke="#63b8ff" points="783.58,-84.75 792.79,-79.51 782.33,-77.86 783.58,-84.75"/>
</a>
</g>
</g>
<!-- Node12 -->
<g id="Node000012" class="node">
<title>Node12</title>
<g id="a_Node000012"><a xlink:href="core_2utilities_8h.html" target="_top" xlink:title=" ">
<polygon fill="#fff0f0" stroke="red" points="1309.94,-145.5 1223.94,-145.5 1223.94,-126.5 1309.94,-126.5 1309.94,-145.5"/>
<text text-anchor="middle" x="1266.94" y="-133.5" font-family="Helvetica,sans-Serif" font-size="10.00">core/utilities.h</text>
</a>
</g>
</g>
<!-- Node11&#45;&gt;Node12 -->
<g id="edge11_Node000011_Node000012" class="edge">
<title>Node11&#45;&gt;Node12</title>
<g id="a_edge11_Node000011_Node000012"><a xlink:title=" ">
<path fill="none" stroke="#63b8ff" d="M900.07,-195.14C975.78,-187.63 1105.28,-172.9 1214.94,-151 1219.17,-150.16 1223.57,-149.16 1227.93,-148.1"/>
<polygon fill="#63b8ff" stroke="#63b8ff" points="1229.13,-151.4 1237.95,-145.53 1227.4,-144.62 1229.13,-151.4"/>
</a>
</g>
</g>
<!-- Node20 -->
<g id="Node000020" class="node">
<title>Node20</title>
<g id="a_Node000020"><a xlink:title=" ">
<polygon fill="#e0e0e0" stroke="#999999" points="1046.44,-85 915.44,-85 915.44,-55 1046.44,-55 1046.44,-85"/>
<text text-anchor="start" x="923.44" y="-73" font-family="Helvetica,sans-Serif" font-size="10.00">deal.II/particles/particle</text>
<text text-anchor="middle" x="980.94" y="-62" font-family="Helvetica,sans-Serif" font-size="10.00">_iterator.h</text>
</a>
</g>
</g>
<!-- Node11&#45;&gt;Node20 -->
<g id="edge29_Node000011_Node000020" class="edge">
<title>Node11&#45;&gt;Node20</title>
<g id="a_edge29_Node000011_Node000020"><a xlink:title=" ">
<path fill="none" stroke="#63b8ff" d="M792.05,-192.44C738.53,-181.55 654.03,-162.77 644.94,-151 636.8,-140.45 636.19,-131.06 644.94,-121 682.94,-77.33 845.78,-94.12 902.94,-85 903.71,-84.88 904.48,-84.75 905.25,-84.63"/>
<polygon fill="#63b8ff" stroke="#63b8ff" points="906.14,-88.03 915.44,-82.95 905,-81.12 906.14,-88.03"/>
</a>
</g>
</g>
<!-- Node28 -->
<g id="Node000028" class="node">
<title>Node28</title>
<g id="a_Node000028"><a xlink:href="boundary__cells__info__struct_8h.html" target="_top" xlink:title=" ">
<polygon fill="white" stroke="#666666" points="596.44,-151 481.44,-151 481.44,-121 596.44,-121 596.44,-151"/>
<text text-anchor="start" x="489.44" y="-139" font-family="Helvetica,sans-Serif" font-size="10.00">dem/boundary_cells</text>
<text text-anchor="middle" x="538.94" y="-128" font-family="Helvetica,sans-Serif" font-size="10.00">_info_struct.h</text>
</a>
</g>
</g>
<!-- Node11&#45;&gt;Node28 -->
<g id="edge19_Node000011_Node000028" class="edge">
<title>Node11&#45;&gt;Node28</title>
<g id="a_edge19_Node000011_Node000028"><a xlink:title=" ">
<path fill="none" stroke="#63b8ff" d="M796.2,-192.44C747.71,-181.99 664.98,-164.16 606.45,-151.55"/>
<polygon fill="#63b8ff" stroke="#63b8ff" points="607.05,-148.1 596.54,-149.41 605.58,-154.94 607.05,-148.1"/>
</a>
</g>
</g>
<!-- Node29 -->
<g id="Node000029" class="node">
<title>Node29</title>
<g id="a_Node000029"><a xlink:title=" ">
<polygon fill="#e0e0e0" stroke="#999999" points="339.94,-85 237.94,-85 237.94,-55 339.94,-55 339.94,-85"/>
<text text-anchor="start" x="245.94" y="-73" font-family="Helvetica,sans-Serif" font-size="10.00">deal.II/distributed</text>
<text text-anchor="middle" x="288.94" y="-62" font-family="Helvetica,sans-Serif" font-size="10.00">/tria.h</text>
</a>
</g>
</g>
<!-- Node11&#45;&gt;Node29 -->
<g id="edge28_Node000011_Node000029" class="edge">
<title>Node11&#45;&gt;Node29</title>
<g id="a_edge28_Node000011_Node000029"><a xlink:title=" ">
<path fill="none" stroke="#63b8ff" d="M771.85,-192.81C663.34,-178.93 454.76,-152.15 450.94,-151 402.99,-136.48 351.81,-108.94 320.1,-90.27"/>
<polygon fill="#63b8ff" stroke="#63b8ff" points="321.68,-87.14 311.3,-85.03 318.09,-93.15 321.68,-87.14"/>
</a>
</g>
</g>
<!-- Node30 -->
<g id="Node000030" class="node">
<title>Node30</title>
<g id="a_Node000030"><a xlink:href="contact__info_8h.html" target="_top" xlink:title=" ">
<polygon fill="white" stroke="#666666" points="1035.94,-145.5 925.94,-145.5 925.94,-126.5 1035.94,-126.5 1035.94,-145.5"/>
<text text-anchor="middle" x="980.94" y="-133.5" font-family="Helvetica,sans-Serif" font-size="10.00">dem/contact_info.h</text>
</a>
</g>
</g>
<!-- Node11&#45;&gt;Node30 -->
<g id="edge23_Node000011_Node000030" class="edge">
<title>Node11&#45;&gt;Node30</title>
<g id="a_edge23_Node000011_Node000030"><a xlink:title=" ">
<path fill="none" stroke="#63b8ff" d="M855.5,-192.37C880.26,-181.44 923.12,-162.52 951.75,-149.88"/>
<polygon fill="#63b8ff" stroke="#63b8ff" points="953.5,-152.94 961.24,-145.7 950.67,-146.54 953.5,-152.94"/>
</a>
</g>
</g>
<!-- Node31 -->
<g id="Node000031" class="node">
<title>Node31</title>
<g id="a_Node000031"><a xlink:title=" ">
<polygon fill="#e0e0e0" stroke="#999999" points="746.44,-145.5 653.44,-145.5 653.44,-126.5 746.44,-126.5 746.44,-145.5"/>
<text text-anchor="middle" x="699.94" y="-133.5" font-family="Helvetica,sans-Serif" font-size="10.00">unordered_map</text>
</a>
</g>
</g>
<!-- Node11&#45;&gt;Node31 -->
<g id="edge30_Node000011_Node000031" class="edge">
<title>Node11&#45;&gt;Node31</title>
<g id="a_edge30_Node000011_Node000031"><a xlink:title=" ">
<path fill="none" stroke="#63b8ff" d="M817.6,-192.37C794.49,-181.49 754.53,-162.69 727.68,-150.05"/>
<polygon fill="#63b8ff" stroke="#63b8ff" points="728.97,-146.79 718.43,-145.7 725.99,-153.12 728.97,-146.79"/>
</a>
</g>
</g>
<!-- Node32 -->
<g id="Node000032" class="node">
<title>Node32</title>
<g id="a_Node000032"><a xlink:href="unordered__dense_8h.html" target="_top" xlink:title=" ">
<polygon fill="white" stroke="#666666" points="907.44,-145.5 764.44,-145.5 764.44,-126.5 907.44,-126.5 907.44,-145.5"/>
<text text-anchor="middle" x="835.94" y="-133.5" font-family="Helvetica,sans-Serif" font-size="10.00">ankerl/unordered_dense.h</text>
</a>
</g>
</g>
<!-- Node11&#45;&gt;Node32 -->
<g id="edge32_Node000011_Node000032" class="edge">
<title>Node11&#45;&gt;Node32</title>
<g id="a_edge32_Node000011_Node000032"><a xlink:title=" ">
<path fill="none" stroke="#63b8ff" d="M835.94,-192.37C835.94,-183.16 835.94,-168.29 835.94,-156.27"/>
<polygon fill="#63b8ff" stroke="#63b8ff" points="839.44,-155.91 835.94,-145.91 832.44,-155.91 839.44,-155.91"/>
</a>
</g>
</g>
<!-- Node12&#45;&gt;Node3 -->
<g id="edge17_Node000012_Node000003" class="edge">
<title>Node12&#45;&gt;Node3</title>
<g id="a_edge17_Node000012_Node000003"><a xlink:title=" ">
<path fill="none" stroke="#63b8ff" d="M1280.57,-126.37C1308.24,-109.33 1373.49,-71.6 1433.94,-55 1522.12,-30.78 1802.86,-16.24 1898.6,-11.89"/>
<polygon fill="#63b8ff" stroke="#63b8ff" points="1898.99,-15.38 1908.82,-11.43 1898.67,-8.38 1898.99,-15.38"/>
</a>
</g>
</g>
<!-- Node12&#45;&gt;Node4 -->
<g id="edge18_Node000012_Node000004" class="edge">
<title>Node12&#45;&gt;Node4</title>
<g id="a_edge18_Node000012_Node000004"><a xlink:title=" ">
<path fill="none" stroke="#63b8ff" d="M1271.82,-126.44C1283.38,-106.19 1312.58,-54.97 1328.02,-27.9"/>
<polygon fill="#63b8ff" stroke="#63b8ff" points="1331.12,-29.54 1333.03,-19.12 1325.04,-26.07 1331.12,-29.54"/>
</a>
</g>
</g>
<!-- Node12&#45;&gt;Node6 -->
<g id="edge13_Node000012_Node000006" class="edge">
<title>Node12&#45;&gt;Node6</title>
<g id="a_edge13_Node000012_Node000006"><a xlink:title=" ">
<path fill="none" stroke="#63b8ff" d="M1248.47,-126.37C1225.18,-115.49 1184.93,-96.69 1157.88,-84.05"/>
<polygon fill="#63b8ff" stroke="#63b8ff" points="1159.11,-80.76 1148.57,-79.7 1156.14,-87.1 1159.11,-80.76"/>
</a>
</g>
</g>
<!-- Node12&#45;&gt;Node7 -->
<g id="edge14_Node000012_Node000007" class="edge">
<title>Node12&#45;&gt;Node7</title>
<g id="a_edge14_Node000012_Node000007"><a xlink:title=" ">
<path fill="none" stroke="#63b8ff" d="M1238.24,-126.47C1230.71,-124.45 1222.57,-122.46 1214.94,-121 1079.6,-95.02 1043.1,-106.35 906.94,-85 900.27,-83.95 893.27,-82.73 886.38,-81.45"/>
<polygon fill="#63b8ff" stroke="#63b8ff" points="886.88,-77.98 876.4,-79.55 885.56,-84.86 886.88,-77.98"/>
</a>
</g>
</g>
<!-- Node17 -->
<g id="Node000017" class="node">
<title>Node17</title>
<g id="a_Node000017"><a xlink:title=" ">
<polygon fill="#e0e0e0" stroke="#999999" points="1849.44,-85 1722.44,-85 1722.44,-55 1849.44,-55 1849.44,-85"/>
<text text-anchor="start" x="1730.44" y="-73" font-family="Helvetica,sans-Serif" font-size="10.00">deal.II/base/parameter</text>
<text text-anchor="middle" x="1785.94" y="-62" font-family="Helvetica,sans-Serif" font-size="10.00">_handler.h</text>
</a>
</g>
</g>
<!-- Node12&#45;&gt;Node17 -->
<g id="edge12_Node000012_Node000017" class="edge">
<title>Node12&#45;&gt;Node17</title>
<g id="a_edge12_Node000012_Node000017"><a xlink:title=" ">
<path fill="none" stroke="#63b8ff" d="M1309.95,-128.06C1325.1,-125.7 1342.26,-123.12 1357.94,-121 1482.08,-104.21 1626.93,-87.99 1712.29,-78.78"/>
<polygon fill="#63b8ff" stroke="#63b8ff" points="1712.84,-82.24 1722.4,-77.69 1712.09,-75.28 1712.84,-82.24"/>
</a>
</g>
</g>
<!-- Node12&#45;&gt;Node18 -->
<g id="edge15_Node000012_Node000018" class="edge">
<title>Node12&#45;&gt;Node18</title>
<g id="a_edge15_Node000012_Node000018"><a xlink:title=" ">
<path fill="none" stroke="#63b8ff" d="M1239.09,-126.5C1231.33,-124.41 1222.87,-122.38 1214.94,-121 1019.44,-87.07 966.96,-108.61 769.94,-85 760.6,-83.88 750.72,-82.5 741.09,-81.05"/>
<polygon fill="#63b8ff" stroke="#63b8ff" points="741.6,-77.59 731.19,-79.52 740.53,-84.51 741.6,-77.59"/>
</a>
</g>
</g>
<!-- Node12&#45;&gt;Node20 -->
<g id="edge16_Node000012_Node000020" class="edge">
<title>Node12&#45;&gt;Node20</title>
<g id="a_edge16_Node000012_Node000020"><a xlink:title=" ">
<path fill="none" stroke="#63b8ff" d="M1236.22,-126.44C1229.24,-124.58 1221.85,-122.67 1214.94,-121 1162.18,-108.27 1102.32,-95.51 1056.35,-86.06"/>
<polygon fill="#63b8ff" stroke="#63b8ff" points="1056.96,-82.62 1046.46,-84.04 1055.56,-89.48 1056.96,-82.62"/>
</a>
</g>
</g>
<!-- Node28&#45;&gt;Node6 -->
<g id="edge20_Node000028_Node000006" class="edge">
<title>Node28&#45;&gt;Node6</title>
<g id="a_edge20_Node000028_Node000006"><a xlink:title=" ">
<path fill="none" stroke="#63b8ff" d="M596.65,-126.91C612.31,-124.84 629.26,-122.72 644.94,-121 827.22,-100.99 874.3,-110.07 1055.94,-85 1063.42,-83.97 1071.29,-82.69 1078.98,-81.33"/>
<polygon fill="#63b8ff" stroke="#63b8ff" points="1079.76,-84.75 1088.97,-79.51 1078.5,-77.86 1079.76,-84.75"/>
</a>
</g>
</g>
<!-- Node28&#45;&gt;Node7 -->
<g id="edge21_Node000028_Node000007" class="edge">
<title>Node28&#45;&gt;Node7</title>
<g id="a_edge21_Node000028_Node000007"><a xlink:title=" ">
<path fill="none" stroke="#63b8ff" d="M596.56,-122.58C651.6,-110.72 733.69,-93.03 786.01,-81.76"/>
<polygon fill="#63b8ff" stroke="#63b8ff" points="787.03,-85.12 796.07,-79.59 785.55,-78.28 787.03,-85.12"/>
</a>
</g>
</g>
<!-- Node28&#45;&gt;Node29 -->
<g id="edge22_Node000028_Node000029" class="edge">
<title>Node28&#45;&gt;Node29</title>
<g id="a_edge22_Node000028_Node000029"><a xlink:title=" ">
<path fill="none" stroke="#63b8ff" d="M484.08,-120.95C444.51,-110.83 391.08,-97.15 350.13,-86.66"/>
<polygon fill="#63b8ff" stroke="#63b8ff" points="350.82,-83.23 340.27,-84.14 349.09,-90.01 350.82,-83.23"/>
</a>
</g>
</g>
<!-- Node30&#45;&gt;Node6 -->
<g id="edge24_Node000030_Node000006" class="edge">
<title>Node30&#45;&gt;Node6</title>
<g id="a_edge24_Node000030_Node000006"><a xlink:title=" ">
<path fill="none" stroke="#63b8ff" d="M1001.04,-126.37C1026.59,-115.39 1070.91,-96.36 1100.33,-83.72"/>
<polygon fill="#63b8ff" stroke="#63b8ff" points="1101.89,-86.86 1109.69,-79.7 1099.12,-80.43 1101.89,-86.86"/>
</a>
</g>
</g>
<!-- Node30&#45;&gt;Node7 -->
<g id="edge25_Node000030_Node000007" class="edge">
<title>Node30&#45;&gt;Node7</title>
<g id="a_edge25_Node000030_Node000007"><a xlink:title=" ">
<path fill="none" stroke="#63b8ff" d="M961.39,-126.37C936.63,-115.44 893.77,-96.52 865.14,-83.88"/>
<polygon fill="#63b8ff" stroke="#63b8ff" points="866.22,-80.54 855.65,-79.7 863.39,-86.94 866.22,-80.54"/>
</a>
</g>
</g>
<!-- Node30&#45;&gt;Node20 -->
<g id="edge26_Node000030_Node000020" class="edge">
<title>Node30&#45;&gt;Node20</title>
<g id="a_edge26_Node000030_Node000020"><a xlink:title=" ">
<path fill="none" stroke="#63b8ff" d="M980.94,-126.37C980.94,-118.49 980.94,-106.45 980.94,-95.6"/>
<polygon fill="#63b8ff" stroke="#63b8ff" points="984.44,-95.36 980.94,-85.36 977.44,-95.36 984.44,-95.36"/>
</a>
</g>
</g>
<!-- Node39 -->
<g id="Node000039" class="node">
<title>Node39</title>
<g id="a_Node000039"><a xlink:href="parameters_8h.html" target="_top" xlink:title=" ">
<polygon fill="white" stroke="#666666" points="1707.94,-211.5 1601.94,-211.5 1601.94,-192.5 1707.94,-192.5 1707.94,-211.5"/>
<text text-anchor="middle" x="1654.94" y="-199.5" font-family="Helvetica,sans-Serif" font-size="10.00">core/parameters.h</text>
</a>
</g>
</g>
<!-- Node38&#45;&gt;Node39 -->
<g id="edge43_Node000038_Node000039" class="edge">
<title>Node38&#45;&gt;Node39</title>
<g id="a_edge43_Node000038_Node000039"><a xlink:title=" ">
<path fill="none" stroke="#63b8ff" d="M1617.62,-318.84C1622.24,-310.02 1629.27,-295.85 1633.94,-283 1641.44,-262.39 1647.47,-237.89 1651.11,-221.48"/>
<polygon fill="#63b8ff" stroke="#63b8ff" points="1654.56,-222.08 1653.24,-211.56 1647.72,-220.61 1654.56,-222.08"/>
</a>
</g>
</g>
<!-- Node56 -->
<g id="Node000056" class="node">
<title>Node56</title>
<g id="a_Node000056"><a xlink:href="parameters__lagrangian_8h.html" target="_top" xlink:title="Parameter structures for Lagrangian (DEM) particle simulations.">
<polygon fill="white" stroke="#666666" points="1977.44,-277.5 1814.44,-277.5 1814.44,-258.5 1977.44,-258.5 1977.44,-277.5"/>
<text text-anchor="middle" x="1895.94" y="-265.5" font-family="Helvetica,sans-Serif" font-size="10.00">core/parameters_lagrangian.h</text>
</a>
</g>
</g>
<!-- Node38&#45;&gt;Node56 -->
<g id="edge56_Node000038_Node000056" class="edge">
<title>Node38&#45;&gt;Node56</title>
<g id="a_edge56_Node000038_Node000056"><a xlink:title=" ">
<path fill="none" stroke="#63b8ff" d="M1654.1,-318.99C1704.61,-308.55 1790.27,-290.85 1844.92,-279.55"/>
<polygon fill="#63b8ff" stroke="#63b8ff" points="1845.66,-282.97 1854.74,-277.52 1844.24,-276.11 1845.66,-282.97"/>
</a>
</g>
</g>
<!-- Node57 -->
<g id="Node000057" class="node">
<title>Node57</title>
<g id="a_Node000057"><a xlink:href="solid__objects__parameters_8h.html" target="_top" xlink:title="Parameter classes for solid objects used in Nitsche immersed boundary and DEM simulations.">
<polygon fill="white" stroke="#666666" points="1624.94,-283 1520.94,-283 1520.94,-253 1624.94,-253 1624.94,-283"/>
<text text-anchor="start" x="1528.94" y="-271" font-family="Helvetica,sans-Serif" font-size="10.00">core/solid_objects</text>
<text text-anchor="middle" x="1572.94" y="-260" font-family="Helvetica,sans-Serif" font-size="10.00">_parameters.h</text>
</a>
</g>
</g>
<!-- Node38&#45;&gt;Node57 -->
<g id="edge60_Node000038_Node000057" class="edge">
<title>Node38&#45;&gt;Node57</title>
<g id="a_edge60_Node000038_Node000057"><a xlink:title=" ">
<path fill="none" stroke="#63b8ff" d="M1607.04,-318.87C1602.12,-311.67 1594.87,-301.07 1588.33,-291.49"/>
<polygon fill="#63b8ff" stroke="#63b8ff" points="1591.13,-289.39 1582.6,-283.11 1585.35,-293.34 1591.13,-289.39"/>
</a>
</g>
</g>
<!-- Node39&#45;&gt;Node12 -->
<g id="edge52_Node000039_Node000012" class="edge">
<title>Node39&#45;&gt;Node12</title>
<g id="a_edge52_Node000039_Node000012"><a xlink:title=" ">
<path fill="none" stroke="#63b8ff" d="M1603.02,-192.44C1529.26,-180.27 1394.84,-158.1 1320.3,-145.8"/>
<polygon fill="#63b8ff" stroke="#63b8ff" points="1320.63,-142.31 1310.2,-144.13 1319.49,-149.22 1320.63,-142.31"/>
</a>
</g>
</g>
<!-- Node39&#45;&gt;Node17 -->
<g id="edge53_Node000039_Node000017" class="edge">
<title>Node39&#45;&gt;Node17</title>
<g id="a_edge53_Node000039_Node000017"><a xlink:title=" ">
<path fill="none" stroke="#63b8ff" d="M1708.23,-197.96C1809.19,-191.67 2020.25,-175.68 2041.94,-151 2050.75,-140.99 2050.42,-131.29 2041.94,-121 2041.57,-120.55 1935.22,-99.89 1859.73,-85.27"/>
<polygon fill="#63b8ff" stroke="#63b8ff" points="1860.24,-81.8 1849.76,-83.34 1858.91,-88.67 1860.24,-81.8"/>
</a>
</g>
</g>
<!-- Node40 -->
<g id="Node000040" class="node">
<title>Node40</title>
<g id="a_Node000040"><a xlink:href="dimensionality_8h.html" target="_top" xlink:title=" ">
<polygon fill="white" stroke="#666666" points="2032.44,-145.5 1911.44,-145.5 1911.44,-126.5 2032.44,-126.5 2032.44,-145.5"/>
<text text-anchor="middle" x="1971.94" y="-133.5" font-family="Helvetica,sans-Serif" font-size="10.00">core/dimensionality.h</text>
</a>
</g>
</g>
<!-- Node39&#45;&gt;Node40 -->
<g id="edge44_Node000039_Node000040" class="edge">
<title>Node39&#45;&gt;Node40</title>
<g id="a_edge44_Node000039_Node000040"><a xlink:title=" ">
<path fill="none" stroke="#63b8ff" d="M1697.51,-192.43C1746.92,-182.49 1830.84,-165.58 1902.94,-151 1908.41,-149.89 1914.12,-148.74 1919.81,-147.58"/>
<polygon fill="#63b8ff" stroke="#63b8ff" points="1920.88,-150.94 1929.98,-145.52 1919.49,-144.08 1920.88,-150.94"/>
</a>
</g>
</g>
<!-- Node41 -->
<g id="Node000041" class="node">
<title>Node41</title>
<g id="a_Node000041"><a xlink:href="ib__particle_8h.html" target="_top" xlink:title=" ">
<polygon fill="#fff0f0" stroke="red" points="1467.44,-145.5 1366.44,-145.5 1366.44,-126.5 1467.44,-126.5 1467.44,-145.5"/>
<text text-anchor="middle" x="1416.94" y="-133.5" font-family="Helvetica,sans-Serif" font-size="10.00">core/ib_particle.h</text>
</a>
</g>
</g>
<!-- Node39&#45;&gt;Node41 -->
<g id="edge46_Node000039_Node000041" class="edge">
<title>Node39&#45;&gt;Node41</title>
<g id="a_edge46_Node000039_Node000041"><a xlink:title=" ">
<path fill="none" stroke="#63b8ff" d="M1622.85,-192.37C1580.41,-180.96 1505.55,-160.83 1458.74,-148.24"/>
<polygon fill="#63b8ff" stroke="#63b8ff" points="1459.48,-144.81 1448.91,-145.6 1457.66,-151.57 1459.48,-144.81"/>
</a>
</g>
</g>
<!-- Node53 -->
<g id="Node000053" class="node">
<title>Node53</title>
<g id="a_Node000053"><a xlink:title=" ">
<polygon fill="#e0e0e0" stroke="#999999" points="1551.44,-85 1442.44,-85 1442.44,-55 1551.44,-55 1551.44,-85"/>
<text text-anchor="start" x="1450.44" y="-73" font-family="Helvetica,sans-Serif" font-size="10.00">deal.II/base/parsed</text>
<text text-anchor="middle" x="1496.94" y="-62" font-family="Helvetica,sans-Serif" font-size="10.00">_function.h</text>
</a>
</g>
</g>
<!-- Node39&#45;&gt;Node53 -->
<g id="edge54_Node000039_Node000053" class="edge">
<title>Node39&#45;&gt;Node53</title>
<g id="a_edge54_Node000039_Node000053"><a xlink:title=" ">
<path fill="none" stroke="#63b8ff" d="M1643.5,-192.29C1630.61,-182.42 1609.08,-165.79 1590.94,-151 1566.79,-131.3 1539.73,-108.15 1520.87,-91.84"/>
<polygon fill="#63b8ff" stroke="#63b8ff" points="1522.92,-88.99 1513.07,-85.08 1518.34,-94.28 1522.92,-88.99"/>
</a>
</g>
</g>
<!-- Node54 -->
<g id="Node000054" class="node">
<title>Node54</title>
<g id="a_Node000054"><a xlink:href="multiphysics_8h.html" target="_top" xlink:title="Identifiers for multiphysics modules and their solution fields.">
<polygon fill="white" stroke="#666666" points="1711.94,-145.5 1599.94,-145.5 1599.94,-126.5 1711.94,-126.5 1711.94,-145.5"/>
<text text-anchor="middle" x="1655.94" y="-133.5" font-family="Helvetica,sans-Serif" font-size="10.00">core/multiphysics.h</text>
</a>
</g>
</g>
<!-- Node39&#45;&gt;Node54 -->
<g id="edge51_Node000039_Node000054" class="edge">
<title>Node39&#45;&gt;Node54</title>
<g id="a_edge51_Node000039_Node000054"><a xlink:title=" ">
<path fill="none" stroke="#63b8ff" d="M1655.08,-192.37C1655.22,-183.16 1655.46,-168.29 1655.64,-156.27"/>
<polygon fill="#63b8ff" stroke="#63b8ff" points="1659.15,-155.96 1655.81,-145.91 1652.15,-155.85 1659.15,-155.96"/>
</a>
</g>
</g>
<!-- Node55 -->
<g id="Node000055" class="node">
<title>Node55</title>
<g id="a_Node000055"><a xlink:title=" ">
<polygon fill="#e0e0e0" stroke="#999999" points="1893.44,-151 1730.44,-151 1730.44,-121 1893.44,-121 1893.44,-151"/>
<text text-anchor="start" x="1738.44" y="-139" font-family="Helvetica,sans-Serif" font-size="10.00">deal.II/multigrid/mg</text>
<text text-anchor="middle" x="1811.94" y="-128" font-family="Helvetica,sans-Serif" font-size="10.00">_transfer_global_coarsening.h</text>
</a>
</g>
</g>
<!-- Node39&#45;&gt;Node55 -->
<g id="edge55_Node000039_Node000055" class="edge">
<title>Node39&#45;&gt;Node55</title>
<g id="a_edge55_Node000039_Node000055"><a xlink:title=" ">
<path fill="none" stroke="#63b8ff" d="M1676.12,-192.37C1699.53,-182.82 1737.9,-167.18 1767.9,-154.95"/>
<polygon fill="#63b8ff" stroke="#63b8ff" points="1769.38,-158.13 1777.32,-151.12 1766.74,-151.65 1769.38,-158.13"/>
</a>
</g>
</g>
<!-- Node40&#45;&gt;Node17 -->
<g id="edge45_Node000040_Node000017" class="edge">
<title>Node40&#45;&gt;Node17</title>
<g id="a_edge45_Node000040_Node000017"><a xlink:title=" ">
<path fill="none" stroke="#63b8ff" d="M1946.86,-126.37C1918.76,-116.7 1872.48,-100.77 1836.74,-88.48"/>
<polygon fill="#63b8ff" stroke="#63b8ff" points="1837.56,-85.06 1826.97,-85.12 1835.29,-91.68 1837.56,-85.06"/>
</a>
</g>
</g>
<!-- Node41&#45;&gt;Node2 -->
<g id="edge47_Node000041_Node000002" class="edge">
<title>Node41&#45;&gt;Node2</title>
<g id="a_edge47_Node000041_Node000002"><a xlink:title=" ">
<path fill="none" stroke="#63b8ff" d="M1467.5,-130.6C1549.79,-123.14 1717.73,-106.68 1858.94,-85 1865.71,-83.96 1872.81,-82.74 1879.8,-81.46"/>
<polygon fill="#63b8ff" stroke="#63b8ff" points="1880.74,-84.85 1889.92,-79.56 1879.45,-77.97 1880.74,-84.85"/>
</a>
</g>
</g>
<!-- Node41&#45;&gt;Node4 -->
<g id="edge50_Node000041_Node000004" class="edge">
<title>Node41&#45;&gt;Node4</title>
<g id="a_edge50_Node000041_Node000004"><a xlink:title=" ">
<path fill="none" stroke="#63b8ff" d="M1411.51,-126.44C1398.66,-106.19 1366.17,-54.97 1348.98,-27.9"/>
<polygon fill="#63b8ff" stroke="#63b8ff" points="1351.73,-25.69 1343.41,-19.12 1345.82,-29.44 1351.73,-25.69"/>
</a>
</g>
</g>
<!-- Node41&#45;&gt;Node6 -->
<g id="edge49_Node000041_Node000006" class="edge">
<title>Node41&#45;&gt;Node6</title>
<g id="a_edge49_Node000041_Node000006"><a xlink:title=" ">
<path fill="none" stroke="#63b8ff" d="M1378.54,-126.44C1326.77,-114.89 1234.62,-94.34 1178.22,-81.77"/>
<polygon fill="#63b8ff" stroke="#63b8ff" points="1178.65,-78.27 1168.13,-79.51 1177.12,-85.11 1178.65,-78.27"/>
</a>
</g>
</g>
<!-- Node41&#45;&gt;Node53 -->
<g id="edge48_Node000041_Node000053" class="edge">
<title>Node41&#45;&gt;Node53</title>
<g id="a_edge48_Node000041_Node000053"><a xlink:title=" ">
<path fill="none" stroke="#63b8ff" d="M1427.73,-126.37C1438.89,-117.44 1456.71,-103.19 1471.47,-91.38"/>
<polygon fill="#63b8ff" stroke="#63b8ff" points="1473.68,-94.1 1479.3,-85.12 1469.31,-88.63 1473.68,-94.1"/>
</a>
</g>
</g>
<!-- Node56&#45;&gt;Node3 -->
<g id="edge59_Node000056_Node000003" class="edge">
<title>Node56&#45;&gt;Node3</title>
<g id="a_edge59_Node000056_Node000003"><a xlink:title=" ">
<path fill="none" stroke="#63b8ff" d="M1952.36,-258.49C1982.36,-251.55 2018.25,-239.11 2043.94,-217 2068.96,-195.48 2070.17,-183.07 2077.94,-151 2093.31,-87.61 2009.92,-42.53 1962.32,-22.36"/>
<polygon fill="#63b8ff" stroke="#63b8ff" points="1963.62,-19.1 1953.04,-18.54 1960.96,-25.58 1963.62,-19.1"/>
</a>
</g>
</g>
<!-- Node56&#45;&gt;Node17 -->
<g id="edge58_Node000056_Node000017" class="edge">
<title>Node56&#45;&gt;Node17</title>
<g id="a_edge58_Node000056_Node000017"><a xlink:title=" ">
<path fill="none" stroke="#63b8ff" d="M1920.37,-258.43C1976.93,-237.3 2108.41,-180.17 2058.94,-121 2031.68,-88.38 1917.85,-92.59 1859.8,-84.85"/>
<polygon fill="#63b8ff" stroke="#63b8ff" points="1860.06,-81.35 1849.64,-83.26 1858.97,-88.27 1860.06,-81.35"/>
</a>
</g>
</g>
<!-- Node56&#45;&gt;Node39 -->
<g id="edge57_Node000056_Node000039" class="edge">
<title>Node56&#45;&gt;Node39</title>
<g id="a_edge57_Node000056_Node000039"><a xlink:title=" ">
<path fill="none" stroke="#63b8ff" d="M1863.44,-258.37C1820.47,-246.96 1744.67,-226.83 1697.27,-214.24"/>
<polygon fill="#63b8ff" stroke="#63b8ff" points="1697.88,-210.78 1687.32,-211.6 1696.08,-217.55 1697.88,-210.78"/>
</a>
</g>
</g>
<!-- Node57&#45;&gt;Node17 -->
<g id="edge62_Node000057_Node000017" class="edge">
<title>Node57&#45;&gt;Node17</title>
<g id="a_edge62_Node000057_Node000017"><a xlink:title=" ">
<path fill="none" stroke="#63b8ff" d="M1570,-252.89C1564.9,-224.2 1557.89,-158.59 1590.94,-121 1607.1,-102.62 1663.94,-89.39 1712.11,-81.17"/>
<polygon fill="#63b8ff" stroke="#63b8ff" points="1712.94,-84.58 1722.24,-79.49 1711.8,-77.67 1712.94,-84.58"/>
</a>
</g>
</g>
<!-- Node57&#45;&gt;Node39 -->
<g id="edge61_Node000057_Node000039" class="edge">
<title>Node57&#45;&gt;Node39</title>
<g id="a_edge61_Node000057_Node000039"><a xlink:title=" ">
<path fill="none" stroke="#63b8ff" d="M1591.14,-252.8C1604.3,-242.53 1622.06,-228.67 1635.5,-218.18"/>
<polygon fill="#63b8ff" stroke="#63b8ff" points="1637.88,-220.76 1643.61,-211.84 1633.58,-215.24 1637.88,-220.76"/>
</a>
</g>
</g>
<!-- Node57&#45;&gt;Node53 -->
<g id="edge63_Node000057_Node000053" class="edge">
<title>Node57&#45;&gt;Node53</title>
<g id="a_edge63_Node000057_Node000053"><a xlink:title=" ">
<path fill="none" stroke="#63b8ff" d="M1567.48,-252.9C1554.58,-219.65 1522.15,-136 1506.15,-94.75"/>
<polygon fill="#63b8ff" stroke="#63b8ff" points="1509.34,-93.29 1502.46,-85.23 1502.82,-95.82 1509.34,-93.29"/>
</a>
</g>
</g>
</g>
</svg>
