<?xml version="1.0" encoding="UTF-8" standalone="no"?>
<!DOCTYPE svg PUBLIC "-//W3C//DTD SVG 1.1//EN"
 "http://www.w3.org/Graphics/SVG/1.1/DTD/svg11.dtd">
<!-- Generated by graphviz version 2.43.0 (0)
 -->
<!-- Title: /home/runner/work/lethe/lethe/source/dem/explicit_euler_integrator.cc Pages: 1 -->
<svg width="1995pt" height="544pt"
 viewBox="0.00 0.00 1994.73 544.00" xmlns="http://www.w3.org/2000/svg" xmlns:xlink="http://www.w3.org/1999/xlink">
<g id="graph0" class="graph" transform="scale(1 1) rotate(0) translate(4 540)">
<title>/home/runner/work/lethe/lethe/source/dem/explicit_euler_integrator.cc</title>
<!-- Node1 -->
<g id="Node000001" class="node">
<title>Node1</title>
<g id="a_Node000001"><a xlink:title=" ">
<polygon fill="#999999" stroke="#666666" points="799.89,-536 656.89,-536 656.89,-495 799.89,-495 799.89,-536"/>
<text text-anchor="start" x="664.89" y="-524" font-family="Helvetica,sans-Serif" font-size="10.00">/home/runner/work/lethe</text>
<text text-anchor="start" x="664.89" y="-513" font-family="Helvetica,sans-Serif" font-size="10.00">/lethe/source/dem/explicit</text>
<text text-anchor="middle" x="728.39" y="-502" font-family="Helvetica,sans-Serif" font-size="10.00">_euler_integrator.cc</text>
</a>
</g>
</g>
<!-- Node2 -->
<g id="Node000002" class="node">
<title>Node2</title>
<g id="a_Node000002"><a xlink:href="dem__properties_8h.html" target="_top" xlink:title="DEM particle property definitions and output name management.">
<polygon fill="white" stroke="#666666" points="1387.39,-79.5 1261.39,-79.5 1261.39,-60.5 1387.39,-60.5 1387.39,-79.5"/>
<text text-anchor="middle" x="1324.39" y="-67.5" font-family="Helvetica,sans-Serif" font-size="10.00">core/dem_properties.h</text>
</a>
</g>
</g>
<!-- Node1&#45;&gt;Node2 -->
<g id="edge1_Node000001_Node000002" class="edge">
<title>Node1&#45;&gt;Node2</title>
<g id="a_edge1_Node000001_Node000002"><a xlink:title=" ">
<path fill="none" stroke="#63b8ff" d="M799.99,-510.27C935.36,-500.31 1215.39,-469.44 1215.39,-384.5 1215.39,-384.5 1215.39,-384.5 1215.39,-201 1215.39,-164.46 1212.32,-150.13 1234.39,-121 1247.63,-103.53 1268.84,-91.32 1287.34,-83.35"/>
<polygon fill="#63b8ff" stroke="#63b8ff" points="1288.76,-86.55 1296.71,-79.56 1286.13,-80.06 1288.76,-86.55"/>
</a>
</g>
</g>
<!-- Node5 -->
<g id="Node000005" class="node">
<title>Node5</title>
<g id="a_Node000005"><a xlink:href="tensors__and__points__dimension__manipulation_8h.html" target="_top" xlink:title=" ">
<polygon fill="white" stroke="#666666" points="844.39,-151 692.39,-151 692.39,-121 844.39,-121 844.39,-151"/>
<text text-anchor="start" x="700.39" y="-139" font-family="Helvetica,sans-Serif" font-size="10.00">core/tensors_and_points</text>
<text text-anchor="middle" x="768.39" y="-128" font-family="Helvetica,sans-Serif" font-size="10.00">_dimension_manipulation.h</text>
</a>
</g>
</g>
<!-- Node1&#45;&gt;Node5 -->
<g id="edge4_Node000001_Node000005" class="edge">
<title>Node1&#45;&gt;Node5</title>
<g id="a_edge4_Node000001_Node000005"><a xlink:title=" ">
<path fill="none" stroke="#63b8ff" d="M656.63,-506.78C538.59,-492.06 316.39,-455 316.39,-384.5 316.39,-384.5 316.39,-384.5 316.39,-267 316.39,-223.34 335.88,-209.33 373.39,-187 429.96,-153.34 602.13,-159.52 667.39,-151 672.19,-150.37 677.11,-149.72 682.08,-149.06"/>
<polygon fill="#63b8ff" stroke="#63b8ff" points="682.86,-152.48 692.31,-147.68 681.93,-145.55 682.86,-152.48"/>
</a>
</g>
</g>
<!-- Node8 -->
<g id="Node000008" class="node">
<title>Node8</title>
<g id="a_Node000008"><a xlink:href="explicit__euler__integrator_8h.html" target="_top" xlink:title=" ">
<polygon fill="white" stroke="#666666" points="781.89,-459 674.89,-459 674.89,-429 781.89,-429 781.89,-459"/>
<text text-anchor="start" x="682.89" y="-447" font-family="Helvetica,sans-Serif" font-size="10.00">dem/explicit_euler</text>
<text text-anchor="middle" x="728.39" y="-436" font-family="Helvetica,sans-Serif" font-size="10.00">_integrator.h</text>
</a>
</g>
</g>
<!-- Node1&#45;&gt;Node8 -->
<g id="edge7_Node000001_Node000008" class="edge">
<title>Node1&#45;&gt;Node8</title>
<g id="a_edge7_Node000001_Node000008"><a xlink:title=" ">
<path fill="none" stroke="#63b8ff" d="M728.39,-494.77C728.39,-486.85 728.39,-477.63 728.39,-469.3"/>
<polygon fill="#63b8ff" stroke="#63b8ff" points="731.89,-469.04 728.39,-459.04 724.89,-469.04 731.89,-469.04"/>
</a>
</g>
</g>
<!-- Node3 -->
<g id="Node000003" class="node">
<title>Node3</title>
<g id="a_Node000003"><a xlink:title=" ">
<polygon fill="#e0e0e0" stroke="#999999" points="1346.39,-19 1302.39,-19 1302.39,0 1346.39,0 1346.39,-19"/>
<text text-anchor="middle" x="1324.39" y="-7" font-family="Helvetica,sans-Serif" font-size="10.00">string</text>
</a>
</g>
</g>
<!-- Node2&#45;&gt;Node3 -->
<g id="edge2_Node000002_Node000003" class="edge">
<title>Node2&#45;&gt;Node3</title>
<g id="a_edge2_Node000002_Node000003"><a xlink:title=" ">
<path fill="none" stroke="#63b8ff" d="M1324.39,-60.37C1324.39,-52.25 1324.39,-39.81 1324.39,-29.39"/>
<polygon fill="#63b8ff" stroke="#63b8ff" points="1327.89,-29.17 1324.39,-19.17 1320.89,-29.17 1327.89,-29.17"/>
</a>
</g>
</g>
<!-- Node4 -->
<g id="Node000004" class="node">
<title>Node4</title>
<g id="a_Node000004"><a xlink:title=" ">
<polygon fill="#e0e0e0" stroke="#999999" points="1162.89,-19 1115.89,-19 1115.89,0 1162.89,0 1162.89,-19"/>
<text text-anchor="middle" x="1139.39" y="-7" font-family="Helvetica,sans-Serif" font-size="10.00">vector</text>
</a>
</g>
</g>
<!-- Node2&#45;&gt;Node4 -->
<g id="edge3_Node000002_Node000004" class="edge">
<title>Node2&#45;&gt;Node4</title>
<g id="a_edge3_Node000002_Node000004"><a xlink:title=" ">
<path fill="none" stroke="#63b8ff" d="M1297.49,-60.49C1264.57,-50.08 1208.79,-32.44 1173.05,-21.14"/>
<polygon fill="#63b8ff" stroke="#63b8ff" points="1173.69,-17.67 1163.1,-18 1171.58,-24.35 1173.69,-17.67"/>
</a>
</g>
</g>
<!-- Node6 -->
<g id="Node000006" class="node">
<title>Node6</title>
<g id="a_Node000006"><a xlink:title=" ">
<polygon fill="#e0e0e0" stroke="#999999" points="851.39,-79.5 741.39,-79.5 741.39,-60.5 851.39,-60.5 851.39,-79.5"/>
<text text-anchor="middle" x="796.39" y="-67.5" font-family="Helvetica,sans-Serif" font-size="10.00">deal.II/base/point.h</text>
</a>
</g>
</g>
<!-- Node5&#45;&gt;Node6 -->
<g id="edge5_Node000005_Node000006" class="edge">
<title>Node5&#45;&gt;Node6</title>
<g id="a_edge5_Node000005_Node000006"><a xlink:title=" ">
<path fill="none" stroke="#63b8ff" d="M774.61,-120.8C778.67,-111.5 784.02,-99.27 788.4,-89.26"/>
<polygon fill="#63b8ff" stroke="#63b8ff" points="791.72,-90.41 792.52,-79.84 785.31,-87.6 791.72,-90.41"/>
</a>
</g>
</g>
<!-- Node7 -->
<g id="Node000007" class="node">
<title>Node7</title>
<g id="a_Node000007"><a xlink:title=" ">
<polygon fill="#e0e0e0" stroke="#999999" points="561.89,-79.5 446.89,-79.5 446.89,-60.5 561.89,-60.5 561.89,-79.5"/>
<text text-anchor="middle" x="504.39" y="-67.5" font-family="Helvetica,sans-Serif" font-size="10.00">deal.II/base/tensor.h</text>
</a>
</g>
</g>
<!-- Node5&#45;&gt;Node7 -->
<g id="edge6_Node000005_Node000007" class="edge">
<title>Node5&#45;&gt;Node7</title>
<g id="a_edge6_Node000005_Node000007"><a xlink:title=" ">
<path fill="none" stroke="#63b8ff" d="M710.46,-120.95C662.02,-109.21 593.9,-92.7 549.46,-81.93"/>
<polygon fill="#63b8ff" stroke="#63b8ff" points="550.07,-78.47 539.53,-79.52 548.42,-85.27 550.07,-78.47"/>
</a>
</g>
</g>
<!-- Node9 -->
<g id="Node000009" class="node">
<title>Node9</title>
<g id="a_Node000009"><a xlink:href="integrator_8h.html" target="_top" xlink:title=" ">
<polygon fill="white" stroke="#666666" points="777.39,-393 679.39,-393 679.39,-374 777.39,-374 777.39,-393"/>
<text text-anchor="middle" x="728.39" y="-381" font-family="Helvetica,sans-Serif" font-size="10.00">dem/integrator.h</text>
</a>
</g>
</g>
<!-- Node8&#45;&gt;Node9 -->
<g id="edge8_Node000008_Node000009" class="edge">
<title>Node8&#45;&gt;Node9</title>
<g id="a_edge8_Node000008_Node000009"><a xlink:title=" ">
<path fill="none" stroke="#63b8ff" d="M728.39,-428.84C728.39,-421.21 728.39,-411.7 728.39,-403.45"/>
<polygon fill="#63b8ff" stroke="#63b8ff" points="731.89,-403.27 728.39,-393.27 724.89,-403.27 731.89,-403.27"/>
</a>
</g>
</g>
<!-- Node10 -->
<g id="Node000010" class="node">
<title>Node10</title>
<g id="a_Node000010"><a xlink:href="adaptive__sparse__contacts_8h.html" target="_top" xlink:title=" ">
<polygon fill="white" stroke="#666666" points="789.39,-283 667.39,-283 667.39,-253 789.39,-253 789.39,-283"/>
<text text-anchor="start" x="675.39" y="-271" font-family="Helvetica,sans-Serif" font-size="10.00">dem/adaptive_sparse</text>
<text text-anchor="middle" x="728.39" y="-260" font-family="Helvetica,sans-Serif" font-size="10.00">_contacts.h</text>
</a>
</g>
</g>
<!-- Node9&#45;&gt;Node10 -->
<g id="edge9_Node000009_Node000010" class="edge">
<title>Node9&#45;&gt;Node10</title>
<g id="a_edge9_Node000009_Node000010"><a xlink:title=" ">
<path fill="none" stroke="#63b8ff" d="M728.39,-373.97C728.39,-357.08 728.39,-318.85 728.39,-293.48"/>
<polygon fill="#63b8ff" stroke="#63b8ff" points="731.89,-293.18 728.39,-283.18 724.89,-293.18 731.89,-293.18"/>
</a>
</g>
</g>
<!-- Node11 -->
<g id="Node000011" class="node">
<title>Node11</title>
<g id="a_Node000011"><a xlink:href="data__containers_8h.html" target="_top" xlink:title=" ">
<polygon fill="white" stroke="#666666" points="288.39,-211.5 160.39,-211.5 160.39,-192.5 288.39,-192.5 288.39,-211.5"/>
<text text-anchor="middle" x="224.39" y="-199.5" font-family="Helvetica,sans-Serif" font-size="10.00">dem/data_containers.h</text>
</a>
</g>
</g>
<!-- Node9&#45;&gt;Node11 -->
<g id="edge42_Node000009_Node000011" class="edge">
<title>Node9&#45;&gt;Node11</title>
<g id="a_edge42_Node000009_Node000011"><a xlink:title=" ">
<path fill="none" stroke="#63b8ff" d="M704.42,-373.96C622.51,-344.79 353.5,-248.98 258.22,-215.05"/>
<polygon fill="#63b8ff" stroke="#63b8ff" points="259.11,-211.65 248.51,-211.59 256.76,-218.24 259.11,-211.65"/>
</a>
</g>
</g>
<!-- Node36 -->
<g id="Node000036" class="node">
<title>Node36</title>
<g id="a_Node000036"><a xlink:href="dem__solver__parameters_8h.html" target="_top" xlink:title=" ">
<polygon fill="white" stroke="#666666" points="1738.89,-338 1569.89,-338 1569.89,-319 1738.89,-319 1738.89,-338"/>
<text text-anchor="middle" x="1654.39" y="-326" font-family="Helvetica,sans-Serif" font-size="10.00">dem/dem_solver_parameters.h</text>
</a>
</g>
</g>
<!-- Node9&#45;&gt;Node36 -->
<g id="edge43_Node000009_Node000036" class="edge">
<title>Node9&#45;&gt;Node36</title>
<g id="a_edge43_Node000009_Node000036"><a xlink:title=" ">
<path fill="none" stroke="#63b8ff" d="M777.53,-379.69C924.83,-371.26 1364.58,-346.09 1559.54,-334.93"/>
<polygon fill="#63b8ff" stroke="#63b8ff" points="1559.98,-338.41 1569.76,-334.34 1559.58,-331.42 1559.98,-338.41"/>
</a>
</g>
</g>
<!-- Node10&#45;&gt;Node4 -->
<g id="edge41_Node000010_Node000004" class="edge">
<title>Node10&#45;&gt;Node4</title>
<g id="a_edge41_Node000010_Node000004"><a xlink:title=" ">
<path fill="none" stroke="#63b8ff" d="M789.51,-266.68C883.1,-264.92 1055.88,-256.27 1101.39,-217 1156.39,-169.55 1148.79,-70.85 1142.73,-29.44"/>
<polygon fill="#63b8ff" stroke="#63b8ff" points="1146.15,-28.69 1141.11,-19.37 1139.24,-29.8 1146.15,-28.69"/>
</a>
</g>
</g>
<!-- Node10&#45;&gt;Node7 -->
<g id="edge35_Node000010_Node000007" class="edge">
<title>Node10&#45;&gt;Node7</title>
<g id="a_edge35_Node000010_Node000007"><a xlink:title=" ">
<path fill="none" stroke="#63b8ff" d="M667.37,-267.61C576.1,-267.07 410.75,-259.99 373.39,-217 319.35,-154.81 431.05,-199.11 478.39,-151 494.6,-134.53 500.71,-107.85 503.01,-89.88"/>
<polygon fill="#63b8ff" stroke="#63b8ff" points="506.51,-90.05 504.02,-79.75 499.54,-89.35 506.51,-90.05"/>
</a>
</g>
</g>
<!-- Node10&#45;&gt;Node11 -->
<g id="edge10_Node000010_Node000011" class="edge">
<title>Node10&#45;&gt;Node11</title>
<g id="a_edge10_Node000010_Node000011"><a xlink:title=" ">
<path fill="none" stroke="#63b8ff" d="M667.35,-259.25C574.61,-247.47 398.49,-225.11 298.53,-212.41"/>
<polygon fill="#63b8ff" stroke="#63b8ff" points="298.87,-208.93 288.51,-211.14 297.99,-215.87 298.87,-208.93"/>
</a>
</g>
</g>
<!-- Node18 -->
<g id="Node000018" class="node">
<title>Node18</title>
<g id="a_Node000018"><a xlink:title=" ">
<polygon fill="#e0e0e0" stroke="#999999" points="1068.39,-79.5 928.39,-79.5 928.39,-60.5 1068.39,-60.5 1068.39,-79.5"/>
<text text-anchor="middle" x="998.39" y="-67.5" font-family="Helvetica,sans-Serif" font-size="10.00">deal.II/dofs/dof_handler.h</text>
</a>
</g>
</g>
<!-- Node10&#45;&gt;Node18 -->
<g id="edge36_Node000010_Node000018" class="edge">
<title>Node10&#45;&gt;Node18</title>
<g id="a_edge36_Node000010_Node000018"><a xlink:title=" ">
<path fill="none" stroke="#63b8ff" d="M789.45,-267.55C880.28,-266.92 1044.31,-259.7 1081.39,-217 1123.23,-168.82 1021.69,-158.07 1016.39,-151 1003.02,-133.15 999.27,-107.18 998.38,-89.72"/>
<polygon fill="#63b8ff" stroke="#63b8ff" points="1001.88,-89.56 998.13,-79.65 994.88,-89.73 1001.88,-89.56"/>
</a>
</g>
</g>
<!-- Node31 -->
<g id="Node000031" class="node">
<title>Node31</title>
<g id="a_Node000031"><a xlink:href="dem__action__manager_8h.html" target="_top" xlink:title=" ">
<polygon fill="white" stroke="#666666" points="537.89,-211.5 382.89,-211.5 382.89,-192.5 537.89,-192.5 537.89,-211.5"/>
<text text-anchor="middle" x="460.39" y="-199.5" font-family="Helvetica,sans-Serif" font-size="10.00">dem/dem_action_manager.h</text>
</a>
</g>
</g>
<!-- Node10&#45;&gt;Node31 -->
<g id="edge34_Node000010_Node000031" class="edge">
<title>Node10&#45;&gt;Node31</title>
<g id="a_edge34_Node000010_Node000031"><a xlink:title=" ">
<path fill="none" stroke="#63b8ff" d="M669.58,-252.95C620.3,-241.19 550.97,-224.63 505.86,-213.86"/>
<polygon fill="#63b8ff" stroke="#63b8ff" points="506.6,-210.44 496.06,-211.52 504.97,-217.24 506.6,-210.44"/>
</a>
</g>
</g>
<!-- Node32 -->
<g id="Node000032" class="node">
<title>Node32</title>
<g id="a_Node000032"><a xlink:title=" ">
<polygon fill="#e0e0e0" stroke="#999999" points="650.89,-217 555.89,-217 555.89,-187 650.89,-187 650.89,-217"/>
<text text-anchor="start" x="563.89" y="-205" font-family="Helvetica,sans-Serif" font-size="10.00">deal.II/lac/affine</text>
<text text-anchor="middle" x="603.39" y="-194" font-family="Helvetica,sans-Serif" font-size="10.00">_constraints.h</text>
</a>
</g>
</g>
<!-- Node10&#45;&gt;Node32 -->
<g id="edge37_Node000010_Node000032" class="edge">
<title>Node10&#45;&gt;Node32</title>
<g id="a_edge37_Node000010_Node000032"><a xlink:title=" ">
<path fill="none" stroke="#63b8ff" d="M700.96,-252.95C682.97,-243.74 659.25,-231.6 639.7,-221.59"/>
<polygon fill="#63b8ff" stroke="#63b8ff" points="641.26,-218.45 630.76,-217.01 638.07,-224.69 641.26,-218.45"/>
</a>
</g>
</g>
<!-- Node33 -->
<g id="Node000033" class="node">
<title>Node33</title>
<g id="a_Node000033"><a xlink:title=" ">
<polygon fill="#e0e0e0" stroke="#999999" points="787.39,-217 669.39,-217 669.39,-187 787.39,-187 787.39,-217"/>
<text text-anchor="start" x="677.39" y="-205" font-family="Helvetica,sans-Serif" font-size="10.00">deal.II/lac/la_parallel</text>
<text text-anchor="middle" x="728.39" y="-194" font-family="Helvetica,sans-Serif" font-size="10.00">_vector.h</text>
</a>
</g>
</g>
<!-- Node10&#45;&gt;Node33 -->
<g id="edge38_Node000010_Node000033" class="edge">
<title>Node10&#45;&gt;Node33</title>
<g id="a_edge38_Node000010_Node000033"><a xlink:title=" ">
<path fill="none" stroke="#63b8ff" d="M728.39,-252.8C728.39,-245.34 728.39,-235.99 728.39,-227.41"/>
<polygon fill="#63b8ff" stroke="#63b8ff" points="731.89,-227.16 728.39,-217.16 724.89,-227.16 731.89,-227.16"/>
</a>
</g>
</g>
<!-- Node34 -->
<g id="Node000034" class="node">
<title>Node34</title>
<g id="a_Node000034"><a xlink:title=" ">
<polygon fill="#e0e0e0" stroke="#999999" points="923.39,-217 805.39,-217 805.39,-187 923.39,-187 923.39,-217"/>
<text text-anchor="start" x="813.39" y="-205" font-family="Helvetica,sans-Serif" font-size="10.00">deal.II/lac/la_parallel</text>
<text text-anchor="middle" x="864.39" y="-194" font-family="Helvetica,sans-Serif" font-size="10.00">_vector.templates.h</text>
</a>
</g>
</g>
<!-- Node10&#45;&gt;Node34 -->
<g id="edge39_Node000010_Node000034" class="edge">
<title>Node10&#45;&gt;Node34</title>
<g id="a_edge39_Node000010_Node000034"><a xlink:title=" ">
<path fill="none" stroke="#63b8ff" d="M758.24,-252.95C777.99,-243.66 804.1,-231.38 825.47,-221.32"/>
<polygon fill="#63b8ff" stroke="#63b8ff" points="827.06,-224.44 834.62,-217.01 824.08,-218.1 827.06,-224.44"/>
</a>
</g>
</g>
<!-- Node35 -->
<g id="Node000035" class="node">
<title>Node35</title>
<g id="a_Node000035"><a xlink:title=" ">
<polygon fill="#e0e0e0" stroke="#999999" points="1072.89,-217 941.89,-217 941.89,-187 1072.89,-187 1072.89,-217"/>
<text text-anchor="start" x="949.89" y="-205" font-family="Helvetica,sans-Serif" font-size="10.00">deal.II/particles/particle</text>
<text text-anchor="middle" x="1007.39" y="-194" font-family="Helvetica,sans-Serif" font-size="10.00">_handler.h</text>
</a>
</g>
</g>
<!-- Node10&#45;&gt;Node35 -->
<g id="edge40_Node000010_Node000035" class="edge">
<title>Node10&#45;&gt;Node35</title>
<g id="a_edge40_Node000010_Node000035"><a xlink:title=" ">
<path fill="none" stroke="#63b8ff" d="M789.62,-252.95C832.96,-243.01 891.2,-229.65 936.55,-219.25"/>
<polygon fill="#63b8ff" stroke="#63b8ff" points="937.34,-222.66 946.31,-217.01 935.78,-215.84 937.34,-222.66"/>
</a>
</g>
</g>
<!-- Node11&#45;&gt;Node4 -->
<g id="edge32_Node000011_Node000004" class="edge">
<title>Node11&#45;&gt;Node4</title>
<g id="a_edge32_Node000011_Node000004"><a xlink:title=" ">
<path fill="none" stroke="#63b8ff" d="M160.25,-192.98C108.97,-185.16 42.88,-171.44 25.39,-151 -2.4,-118.51 -10.23,-85.82 19.39,-55 57.98,-14.85 923.29,-10.92 1105.79,-10.54"/>
<polygon fill="#63b8ff" stroke="#63b8ff" points="1105.88,-14.04 1115.87,-10.52 1105.87,-7.04 1105.88,-14.04"/>
</a>
</g>
</g>
<!-- Node11&#45;&gt;Node7 -->
<g id="edge28_Node000011_Node000007" class="edge">
<title>Node11&#45;&gt;Node7</title>
<g id="a_edge28_Node000011_Node000007"><a xlink:title=" ">
<path fill="none" stroke="#63b8ff" d="M218.27,-192.41C207.69,-176.43 188.74,-141.87 206.39,-121 235.26,-86.89 357.66,-76.04 436.34,-72.59"/>
<polygon fill="#63b8ff" stroke="#63b8ff" points="436.81,-76.07 446.66,-72.17 436.52,-69.08 436.81,-76.07"/>
</a>
</g>
</g>
<!-- Node12 -->
<g id="Node000012" class="node">
<title>Node12</title>
<g id="a_Node000012"><a xlink:href="core_2utilities_8h.html" target="_top" xlink:title=" ">
<polygon fill="#fff0f0" stroke="red" points="1111.39,-145.5 1025.39,-145.5 1025.39,-126.5 1111.39,-126.5 1111.39,-145.5"/>
<text text-anchor="middle" x="1068.39" y="-133.5" font-family="Helvetica,sans-Serif" font-size="10.00">core/utilities.h</text>
</a>
</g>
</g>
<!-- Node11&#45;&gt;Node12 -->
<g id="edge11_Node000011_Node000012" class="edge">
<title>Node11&#45;&gt;Node12</title>
<g id="a_edge11_Node000011_Node000012"><a xlink:title=" ">
<path fill="none" stroke="#63b8ff" d="M288.54,-194.66C314.83,-192.15 345.56,-189.31 373.39,-187 612.71,-167.15 898.78,-148.02 1015.19,-140.43"/>
<polygon fill="#63b8ff" stroke="#63b8ff" points="1015.51,-143.92 1025.26,-139.77 1015.06,-136.93 1015.51,-143.92"/>
</a>
</g>
</g>
<!-- Node20 -->
<g id="Node000020" class="node">
<title>Node20</title>
<g id="a_Node000020"><a xlink:title=" ">
<polygon fill="#e0e0e0" stroke="#999999" points="722.89,-85 591.89,-85 591.89,-55 722.89,-55 722.89,-85"/>
<text text-anchor="start" x="599.89" y="-73" font-family="Helvetica,sans-Serif" font-size="10.00">deal.II/particles/particle</text>
<text text-anchor="middle" x="657.39" y="-62" font-family="Helvetica,sans-Serif" font-size="10.00">_iterator.h</text>
</a>
</g>
</g>
<!-- Node11&#45;&gt;Node20 -->
<g id="edge30_Node000011_Node000020" class="edge">
<title>Node11&#45;&gt;Node20</title>
<g id="a_edge30_Node000011_Node000020"><a xlink:title=" ">
<path fill="none" stroke="#63b8ff" d="M268.85,-192.44C279.79,-190.5 291.5,-188.55 302.39,-187 378.27,-176.22 590.01,-203.98 645.39,-151 660.09,-136.94 662,-113.2 660.89,-95.22"/>
<polygon fill="#63b8ff" stroke="#63b8ff" points="664.36,-94.79 659.92,-85.17 657.39,-95.45 664.36,-94.79"/>
</a>
</g>
</g>
<!-- Node26 -->
<g id="Node000026" class="node">
<title>Node26</title>
<g id="a_Node000026"><a xlink:href="boundary__cells__info__struct_8h.html" target="_top" xlink:title=" ">
<polygon fill="white" stroke="#666666" points="158.89,-151 43.89,-151 43.89,-121 158.89,-121 158.89,-151"/>
<text text-anchor="start" x="51.89" y="-139" font-family="Helvetica,sans-Serif" font-size="10.00">dem/boundary_cells</text>
<text text-anchor="middle" x="101.39" y="-128" font-family="Helvetica,sans-Serif" font-size="10.00">_info_struct.h</text>
</a>
</g>
</g>
<!-- Node11&#45;&gt;Node26 -->
<g id="edge20_Node000011_Node000026" class="edge">
<title>Node11&#45;&gt;Node26</title>
<g id="a_edge20_Node000011_Node000026"><a xlink:title=" ">
<path fill="none" stroke="#63b8ff" d="M207.81,-192.37C189.86,-183.03 160.7,-167.86 137.43,-155.75"/>
<polygon fill="#63b8ff" stroke="#63b8ff" points="139.01,-152.63 128.52,-151.12 135.78,-158.84 139.01,-152.63"/>
</a>
</g>
</g>
<!-- Node27 -->
<g id="Node000027" class="node">
<title>Node27</title>
<g id="a_Node000027"><a xlink:title=" ">
<polygon fill="#e0e0e0" stroke="#999999" points="130.39,-85 28.39,-85 28.39,-55 130.39,-55 130.39,-85"/>
<text text-anchor="start" x="36.39" y="-73" font-family="Helvetica,sans-Serif" font-size="10.00">deal.II/distributed</text>
<text text-anchor="middle" x="79.39" y="-62" font-family="Helvetica,sans-Serif" font-size="10.00">/tria.h</text>
</a>
</g>
</g>
<!-- Node11&#45;&gt;Node27 -->
<g id="edge29_Node000011_Node000027" class="edge">
<title>Node11&#45;&gt;Node27</title>
<g id="a_edge29_Node000011_Node000027"><a xlink:title=" ">
<path fill="none" stroke="#63b8ff" d="M160.2,-192.57C111.31,-184.67 49.86,-171.06 34.39,-151 20.14,-132.5 36.95,-108.97 53.93,-92.22"/>
<polygon fill="#63b8ff" stroke="#63b8ff" points="56.7,-94.42 61.64,-85.05 51.93,-89.3 56.7,-94.42"/>
</a>
</g>
</g>
<!-- Node28 -->
<g id="Node000028" class="node">
<title>Node28</title>
<g id="a_Node000028"><a xlink:href="contact__info_8h.html" target="_top" xlink:title=" ">
<polygon fill="white" stroke="#666666" points="636.39,-145.5 526.39,-145.5 526.39,-126.5 636.39,-126.5 636.39,-145.5"/>
<text text-anchor="middle" x="581.39" y="-133.5" font-family="Helvetica,sans-Serif" font-size="10.00">dem/contact_info.h</text>
</a>
</g>
</g>
<!-- Node11&#45;&gt;Node28 -->
<g id="edge24_Node000011_Node000028" class="edge">
<title>Node11&#45;&gt;Node28</title>
<g id="a_edge24_Node000011_Node000028"><a xlink:title=" ">
<path fill="none" stroke="#63b8ff" d="M271.83,-192.48C281.92,-190.67 292.51,-188.77 302.39,-187 378.77,-173.3 466.91,-157.51 523.35,-147.4"/>
<polygon fill="#63b8ff" stroke="#63b8ff" points="524.28,-150.79 533.51,-145.58 523.05,-143.9 524.28,-150.79"/>
</a>
</g>
</g>
<!-- Node29 -->
<g id="Node000029" class="node">
<title>Node29</title>
<g id="a_Node000029"><a xlink:title=" ">
<polygon fill="#e0e0e0" stroke="#999999" points="308.89,-145.5 215.89,-145.5 215.89,-126.5 308.89,-126.5 308.89,-145.5"/>
<text text-anchor="middle" x="262.39" y="-133.5" font-family="Helvetica,sans-Serif" font-size="10.00">unordered_map</text>
</a>
</g>
</g>
<!-- Node11&#45;&gt;Node29 -->
<g id="edge31_Node000011_Node000029" class="edge">
<title>Node11&#45;&gt;Node29</title>
<g id="a_edge31_Node000011_Node000029"><a xlink:title=" ">
<path fill="none" stroke="#63b8ff" d="M229.52,-192.37C235.21,-182.78 244.55,-167.05 251.83,-154.8"/>
<polygon fill="#63b8ff" stroke="#63b8ff" points="255.01,-156.29 257.11,-145.91 248.99,-152.72 255.01,-156.29"/>
</a>
</g>
</g>
<!-- Node30 -->
<g id="Node000030" class="node">
<title>Node30</title>
<g id="a_Node000030"><a xlink:href="unordered__dense_8h.html" target="_top" xlink:title=" ">
<polygon fill="white" stroke="#666666" points="469.89,-145.5 326.89,-145.5 326.89,-126.5 469.89,-126.5 469.89,-145.5"/>
<text text-anchor="middle" x="398.39" y="-133.5" font-family="Helvetica,sans-Serif" font-size="10.00">ankerl/unordered_dense.h</text>
</a>
</g>
</g>
<!-- Node11&#45;&gt;Node30 -->
<g id="edge33_Node000011_Node000030" class="edge">
<title>Node11&#45;&gt;Node30</title>
<g id="a_edge33_Node000011_Node000030"><a xlink:title=" ">
<path fill="none" stroke="#63b8ff" d="M247.86,-192.37C278.17,-181.22 331.1,-161.75 365.44,-149.12"/>
<polygon fill="#63b8ff" stroke="#63b8ff" points="366.85,-152.33 375.02,-145.6 364.43,-145.76 366.85,-152.33"/>
</a>
</g>
</g>
<!-- Node12&#45;&gt;Node3 -->
<g id="edge18_Node000012_Node000003" class="edge">
<title>Node12&#45;&gt;Node3</title>
<g id="a_edge18_Node000012_Node000003"><a xlink:title=" ">
<path fill="none" stroke="#63b8ff" d="M1080.23,-126.33C1102.22,-110.51 1151.25,-76.62 1196.39,-55 1227.87,-39.93 1265.83,-27.39 1292.21,-19.5"/>
<polygon fill="#63b8ff" stroke="#63b8ff" points="1293.44,-22.78 1302.05,-16.61 1291.47,-16.07 1293.44,-22.78"/>
</a>
</g>
</g>
<!-- Node12&#45;&gt;Node4 -->
<g id="edge19_Node000012_Node000004" class="edge">
<title>Node12&#45;&gt;Node4</title>
<g id="a_edge19_Node000012_Node000004"><a xlink:title=" ">
<path fill="none" stroke="#63b8ff" d="M1073.27,-126.44C1084.83,-106.19 1114.03,-54.97 1129.47,-27.9"/>
<polygon fill="#63b8ff" stroke="#63b8ff" points="1132.57,-29.54 1134.48,-19.12 1126.49,-26.07 1132.57,-29.54"/>
</a>
</g>
</g>
<!-- Node12&#45;&gt;Node6 -->
<g id="edge13_Node000012_Node000006" class="edge">
<title>Node12&#45;&gt;Node6</title>
<g id="a_edge13_Node000012_Node000006"><a xlink:title=" ">
<path fill="none" stroke="#63b8ff" d="M1031.99,-126.44C983.03,-114.92 895.96,-94.43 842.48,-81.84"/>
<polygon fill="#63b8ff" stroke="#63b8ff" points="843.12,-78.4 832.58,-79.51 841.51,-85.21 843.12,-78.4"/>
</a>
</g>
</g>
<!-- Node12&#45;&gt;Node7 -->
<g id="edge14_Node000012_Node000007" class="edge">
<title>Node12&#45;&gt;Node7</title>
<g id="a_edge14_Node000012_Node000007"><a xlink:title=" ">
<path fill="none" stroke="#63b8ff" d="M1025.35,-131.66C940.42,-124.84 745.33,-107.97 582.39,-85 574.64,-83.91 566.47,-82.61 558.46,-81.25"/>
<polygon fill="#63b8ff" stroke="#63b8ff" points="558.89,-77.77 548.44,-79.5 557.69,-84.66 558.89,-77.77"/>
</a>
</g>
</g>
<!-- Node17 -->
<g id="Node000017" class="node">
<title>Node17</title>
<g id="a_Node000017"><a xlink:title=" ">
<polygon fill="#e0e0e0" stroke="#999999" points="1831.89,-85 1704.89,-85 1704.89,-55 1831.89,-55 1831.89,-85"/>
<text text-anchor="start" x="1712.89" y="-73" font-family="Helvetica,sans-Serif" font-size="10.00">deal.II/base/parameter</text>
<text text-anchor="middle" x="1768.39" y="-62" font-family="Helvetica,sans-Serif" font-size="10.00">_handler.h</text>
</a>
</g>
</g>
<!-- Node12&#45;&gt;Node17 -->
<g id="edge12_Node000012_Node000017" class="edge">
<title>Node12&#45;&gt;Node17</title>
<g id="a_edge12_Node000012_Node000017"><a xlink:title=" ">
<path fill="none" stroke="#63b8ff" d="M1111.65,-131.04C1228.02,-120.41 1548.73,-91.08 1694.53,-77.75"/>
<polygon fill="#63b8ff" stroke="#63b8ff" points="1695.08,-81.22 1704.72,-76.82 1694.44,-74.25 1695.08,-81.22"/>
</a>
</g>
</g>
<!-- Node12&#45;&gt;Node18 -->
<g id="edge15_Node000012_Node000018" class="edge">
<title>Node12&#45;&gt;Node18</title>
<g id="a_edge15_Node000012_Node000018"><a xlink:title=" ">
<path fill="none" stroke="#63b8ff" d="M1058.95,-126.37C1047.85,-116.21 1029.19,-99.16 1015.52,-86.65"/>
<polygon fill="#63b8ff" stroke="#63b8ff" points="1017.88,-84.07 1008.13,-79.91 1013.15,-89.24 1017.88,-84.07"/>
</a>
</g>
</g>
<!-- Node12&#45;&gt;Node20 -->
<g id="edge16_Node000012_Node000020" class="edge">
<title>Node12&#45;&gt;Node20</title>
<g id="a_edge16_Node000012_Node000020"><a xlink:title=" ">
<path fill="none" stroke="#63b8ff" d="M1025.35,-129.11C963.23,-120.5 844.59,-103.63 733.28,-85.11"/>
<polygon fill="#63b8ff" stroke="#63b8ff" points="733.66,-81.63 723.22,-83.43 732.51,-88.53 733.66,-81.63"/>
</a>
</g>
</g>
<!-- Node24 -->
<g id="Node000024" class="node">
<title>Node24</title>
<g id="a_Node000024"><a xlink:title=" ">
<polygon fill="#e0e0e0" stroke="#999999" points="1243.39,-79.5 1205.39,-79.5 1205.39,-60.5 1243.39,-60.5 1243.39,-79.5"/>
<text text-anchor="middle" x="1224.39" y="-67.5" font-family="Helvetica,sans-Serif" font-size="10.00">map</text>
</a>
</g>
</g>
<!-- Node12&#45;&gt;Node24 -->
<g id="edge17_Node000012_Node000024" class="edge">
<title>Node12&#45;&gt;Node24</title>
<g id="a_edge17_Node000012_Node000024"><a xlink:title=" ">
<path fill="none" stroke="#63b8ff" d="M1089.77,-126.43C1114.33,-116.54 1155.84,-99.77 1191.39,-85 1192.8,-84.42 1194.23,-83.82 1195.68,-83.21"/>
<polygon fill="#63b8ff" stroke="#63b8ff" points="1197.36,-86.3 1205.22,-79.19 1194.65,-79.85 1197.36,-86.3"/>
</a>
</g>
</g>
<!-- Node26&#45;&gt;Node6 -->
<g id="edge21_Node000026_Node000006" class="edge">
<title>Node26&#45;&gt;Node6</title>
<g id="a_edge21_Node000026_Node000006"><a xlink:title=" ">
<path fill="none" stroke="#63b8ff" d="M159.08,-126.63C174.44,-124.59 191.02,-122.55 206.39,-121 439.1,-97.53 499.81,-117.71 731.39,-85 737.77,-84.1 744.45,-82.93 751.01,-81.64"/>
<polygon fill="#63b8ff" stroke="#63b8ff" points="752.05,-85 761.14,-79.56 750.64,-78.15 752.05,-85"/>
</a>
</g>
</g>
<!-- Node26&#45;&gt;Node7 -->
<g id="edge22_Node000026_Node000007" class="edge">
<title>Node26&#45;&gt;Node7</title>
<g id="a_edge22_Node000026_Node000007"><a xlink:title=" ">
<path fill="none" stroke="#63b8ff" d="M159.12,-123.55C163.95,-122.66 168.75,-121.8 173.39,-121 264.36,-105.29 369.88,-89.83 436.87,-80.35"/>
<polygon fill="#63b8ff" stroke="#63b8ff" points="437.46,-83.8 446.87,-78.94 436.48,-76.87 437.46,-83.8"/>
</a>
</g>
</g>
<!-- Node26&#45;&gt;Node27 -->
<g id="edge23_Node000026_Node000027" class="edge">
<title>Node26&#45;&gt;Node27</title>
<g id="a_edge23_Node000026_Node000027"><a xlink:title=" ">
<path fill="none" stroke="#63b8ff" d="M96.51,-120.8C93.89,-113.17 90.59,-103.57 87.59,-94.84"/>
<polygon fill="#63b8ff" stroke="#63b8ff" points="90.82,-93.48 84.26,-85.16 84.2,-95.76 90.82,-93.48"/>
</a>
</g>
</g>
<!-- Node28&#45;&gt;Node6 -->
<g id="edge25_Node000028_Node000006" class="edge">
<title>Node28&#45;&gt;Node6</title>
<g id="a_edge25_Node000028_Node000006"><a xlink:title=" ">
<path fill="none" stroke="#63b8ff" d="M610.39,-126.37C648.48,-115.03 715.5,-95.08 757.84,-82.48"/>
<polygon fill="#63b8ff" stroke="#63b8ff" points="758.93,-85.8 767.52,-79.6 756.93,-79.1 758.93,-85.8"/>
</a>
</g>
</g>
<!-- Node28&#45;&gt;Node7 -->
<g id="edge26_Node000028_Node000007" class="edge">
<title>Node28&#45;&gt;Node7</title>
<g id="a_edge26_Node000028_Node000007"><a xlink:title=" ">
<path fill="none" stroke="#63b8ff" d="M571.01,-126.37C558.68,-116.12 537.89,-98.84 522.81,-86.31"/>
<polygon fill="#63b8ff" stroke="#63b8ff" points="525.04,-83.61 515.11,-79.91 520.56,-88.99 525.04,-83.61"/>
</a>
</g>
</g>
<!-- Node28&#45;&gt;Node20 -->
<g id="edge27_Node000028_Node000020" class="edge">
<title>Node28&#45;&gt;Node20</title>
<g id="a_edge27_Node000028_Node000020"><a xlink:title=" ">
<path fill="none" stroke="#63b8ff" d="M591.64,-126.37C602.14,-117.53 618.86,-103.45 632.81,-91.71"/>
<polygon fill="#63b8ff" stroke="#63b8ff" points="635.24,-94.23 640.63,-85.12 630.73,-88.88 635.24,-94.23"/>
</a>
</g>
</g>
<!-- Node37 -->
<g id="Node000037" class="node">
<title>Node37</title>
<g id="a_Node000037"><a xlink:href="parameters_8h.html" target="_top" xlink:title=" ">
<polygon fill="white" stroke="#666666" points="1737.39,-211.5 1631.39,-211.5 1631.39,-192.5 1737.39,-192.5 1737.39,-211.5"/>
<text text-anchor="middle" x="1684.39" y="-199.5" font-family="Helvetica,sans-Serif" font-size="10.00">core/parameters.h</text>
</a>
</g>
</g>
<!-- Node36&#45;&gt;Node37 -->
<g id="edge44_Node000036_Node000037" class="edge">
<title>Node36&#45;&gt;Node37</title>
<g id="a_edge44_Node000036_Node000037"><a xlink:title=" ">
<path fill="none" stroke="#63b8ff" d="M1644.51,-318.75C1636.01,-310.5 1624.35,-297.3 1619.39,-283 1615.03,-270.4 1613.5,-264.96 1619.39,-253 1627.18,-237.18 1642.65,-224.96 1656.55,-216.57"/>
<polygon fill="#63b8ff" stroke="#63b8ff" points="1658.36,-219.56 1665.35,-211.6 1654.92,-213.46 1658.36,-219.56"/>
</a>
</g>
</g>
<!-- Node54 -->
<g id="Node000054" class="node">
<title>Node54</title>
<g id="a_Node000054"><a xlink:href="parameters__lagrangian_8h.html" target="_top" xlink:title="Parameter structures for Lagrangian (DEM) particle simulations.">
<polygon fill="white" stroke="#666666" points="1790.89,-277.5 1627.89,-277.5 1627.89,-258.5 1790.89,-258.5 1790.89,-277.5"/>
<text text-anchor="middle" x="1709.39" y="-265.5" font-family="Helvetica,sans-Serif" font-size="10.00">core/parameters_lagrangian.h</text>
</a>
</g>
</g>
<!-- Node36&#45;&gt;Node54 -->
<g id="edge57_Node000036_Node000054" class="edge">
<title>Node36&#45;&gt;Node54</title>
<g id="a_edge57_Node000036_Node000054"><a xlink:title=" ">
<path fill="none" stroke="#63b8ff" d="M1662.51,-318.87C1670.8,-310.05 1683.86,-296.16 1694.1,-285.27"/>
<polygon fill="#63b8ff" stroke="#63b8ff" points="1696.95,-287.35 1701.25,-277.67 1691.85,-282.56 1696.95,-287.35"/>
</a>
</g>
</g>
<!-- Node56 -->
<g id="Node000056" class="node">
<title>Node56</title>
<g id="a_Node000056"><a xlink:href="solid__objects__parameters_8h.html" target="_top" xlink:title="Parameter classes for solid objects used in Nitsche immersed boundary and DEM simulations.">
<polygon fill="white" stroke="#666666" points="1964.39,-283 1860.39,-283 1860.39,-253 1964.39,-253 1964.39,-283"/>
<text text-anchor="start" x="1868.39" y="-271" font-family="Helvetica,sans-Serif" font-size="10.00">core/solid_objects</text>
<text text-anchor="middle" x="1912.39" y="-260" font-family="Helvetica,sans-Serif" font-size="10.00">_parameters.h</text>
</a>
</g>
</g>
<!-- Node36&#45;&gt;Node56 -->
<g id="edge63_Node000036_Node000056" class="edge">
<title>Node36&#45;&gt;Node56</title>
<g id="a_edge63_Node000036_Node000056"><a xlink:title=" ">
<path fill="none" stroke="#63b8ff" d="M1691.91,-318.99C1733.36,-309.6 1800.76,-294.31 1850.15,-283.11"/>
<polygon fill="#63b8ff" stroke="#63b8ff" points="1851.11,-286.48 1860.09,-280.86 1849.56,-279.66 1851.11,-286.48"/>
</a>
</g>
</g>
<!-- Node37&#45;&gt;Node12 -->
<g id="edge53_Node000037_Node000012" class="edge">
<title>Node37&#45;&gt;Node12</title>
<g id="a_edge53_Node000037_Node000012"><a xlink:title=" ">
<path fill="none" stroke="#63b8ff" d="M1650.44,-192.48C1641.37,-190.44 1631.55,-188.44 1622.39,-187 1597.87,-183.14 1255.26,-153.22 1121.42,-141.6"/>
<polygon fill="#63b8ff" stroke="#63b8ff" points="1121.66,-138.1 1111.4,-140.72 1121.06,-145.08 1121.66,-138.1"/>
</a>
</g>
</g>
<!-- Node37&#45;&gt;Node17 -->
<g id="edge54_Node000037_Node000017" class="edge">
<title>Node37&#45;&gt;Node17</title>
<g id="a_edge54_Node000037_Node000017"><a xlink:title=" ">
<path fill="none" stroke="#63b8ff" d="M1684.74,-192.34C1685.73,-176.83 1689.57,-143.81 1704.39,-121 1712.11,-109.13 1723.62,-98.88 1734.76,-90.8"/>
<polygon fill="#63b8ff" stroke="#63b8ff" points="1736.86,-93.6 1743.13,-85.06 1732.91,-87.83 1736.86,-93.6"/>
</a>
</g>
</g>
<!-- Node38 -->
<g id="Node000038" class="node">
<title>Node38</title>
<g id="a_Node000038"><a xlink:href="dimensionality_8h.html" target="_top" xlink:title=" ">
<polygon fill="white" stroke="#666666" points="1833.89,-145.5 1712.89,-145.5 1712.89,-126.5 1833.89,-126.5 1833.89,-145.5"/>
<text text-anchor="middle" x="1773.39" y="-133.5" font-family="Helvetica,sans-Serif" font-size="10.00">core/dimensionality.h</text>
</a>
</g>
</g>
<!-- Node37&#45;&gt;Node38 -->
<g id="edge45_Node000037_Node000038" class="edge">
<title>Node37&#45;&gt;Node38</title>
<g id="a_edge45_Node000037_Node000038"><a xlink:title=" ">
<path fill="none" stroke="#63b8ff" d="M1696.4,-192.37C1710.86,-181.97 1735.4,-164.32 1752.89,-151.75"/>
<polygon fill="#63b8ff" stroke="#63b8ff" points="1755.22,-154.38 1761.3,-145.7 1751.13,-148.7 1755.22,-154.38"/>
</a>
</g>
</g>
<!-- Node39 -->
<g id="Node000039" class="node">
<title>Node39</title>
<g id="a_Node000039"><a xlink:href="ib__particle_8h.html" target="_top" xlink:title=" ">
<polygon fill="#fff0f0" stroke="red" points="1525.89,-145.5 1424.89,-145.5 1424.89,-126.5 1525.89,-126.5 1525.89,-145.5"/>
<text text-anchor="middle" x="1475.39" y="-133.5" font-family="Helvetica,sans-Serif" font-size="10.00">core/ib_particle.h</text>
</a>
</g>
</g>
<!-- Node37&#45;&gt;Node39 -->
<g id="edge47_Node000037_Node000039" class="edge">
<title>Node37&#45;&gt;Node39</title>
<g id="a_edge47_Node000037_Node000039"><a xlink:title=" ">
<path fill="none" stroke="#63b8ff" d="M1656.21,-192.37C1619.25,-181.05 1554.31,-161.16 1513.14,-148.56"/>
<polygon fill="#63b8ff" stroke="#63b8ff" points="1514.05,-145.18 1503.47,-145.6 1512,-151.87 1514.05,-145.18"/>
</a>
</g>
</g>
<!-- Node51 -->
<g id="Node000051" class="node">
<title>Node51</title>
<g id="a_Node000051"><a xlink:title=" ">
<polygon fill="#e0e0e0" stroke="#999999" points="1958.89,-85 1849.89,-85 1849.89,-55 1958.89,-55 1958.89,-85"/>
<text text-anchor="start" x="1857.89" y="-73" font-family="Helvetica,sans-Serif" font-size="10.00">deal.II/base/parsed</text>
<text text-anchor="middle" x="1904.39" y="-62" font-family="Helvetica,sans-Serif" font-size="10.00">_function.h</text>
</a>
</g>
</g>
<!-- Node37&#45;&gt;Node51 -->
<g id="edge55_Node000037_Node000051" class="edge">
<title>Node37&#45;&gt;Node51</title>
<g id="a_edge55_Node000037_Node000051"><a xlink:title=" ">
<path fill="none" stroke="#63b8ff" d="M1737.42,-192.78C1770.21,-185.74 1811.89,-173.11 1843.39,-151 1864.45,-136.22 1881.48,-111.96 1892.13,-94.02"/>
<polygon fill="#63b8ff" stroke="#63b8ff" points="1895.19,-95.72 1897.11,-85.3 1889.12,-92.25 1895.19,-95.72"/>
</a>
</g>
</g>
<!-- Node52 -->
<g id="Node000052" class="node">
<title>Node52</title>
<g id="a_Node000052"><a xlink:href="multiphysics_8h.html" target="_top" xlink:title="Identifiers for multiphysics modules and their solution fields.">
<polygon fill="white" stroke="#666666" points="1656.39,-145.5 1544.39,-145.5 1544.39,-126.5 1656.39,-126.5 1656.39,-145.5"/>
<text text-anchor="middle" x="1600.39" y="-133.5" font-family="Helvetica,sans-Serif" font-size="10.00">core/multiphysics.h</text>
</a>
</g>
</g>
<!-- Node37&#45;&gt;Node52 -->
<g id="edge52_Node000037_Node000052" class="edge">
<title>Node37&#45;&gt;Node52</title>
<g id="a_edge52_Node000037_Node000052"><a xlink:title=" ">
<path fill="none" stroke="#63b8ff" d="M1673.07,-192.37C1659.54,-182.06 1636.68,-164.65 1620.21,-152.09"/>
<polygon fill="#63b8ff" stroke="#63b8ff" points="1621.89,-148.98 1611.81,-145.7 1617.64,-154.54 1621.89,-148.98"/>
</a>
</g>
</g>
<!-- Node53 -->
<g id="Node000053" class="node">
<title>Node53</title>
<g id="a_Node000053"><a xlink:title=" ">
<polygon fill="#e0e0e0" stroke="#999999" points="1406.89,-151 1243.89,-151 1243.89,-121 1406.89,-121 1406.89,-151"/>
<text text-anchor="start" x="1251.89" y="-139" font-family="Helvetica,sans-Serif" font-size="10.00">deal.II/multigrid/mg</text>
<text text-anchor="middle" x="1325.39" y="-128" font-family="Helvetica,sans-Serif" font-size="10.00">_transfer_global_coarsening.h</text>
</a>
</g>
</g>
<!-- Node37&#45;&gt;Node53 -->
<g id="edge56_Node000037_Node000053" class="edge">
<title>Node37&#45;&gt;Node53</title>
<g id="a_edge56_Node000037_Node000053"><a xlink:title=" ">
<path fill="none" stroke="#63b8ff" d="M1648.07,-192.45C1639.66,-190.56 1630.73,-188.64 1622.39,-187 1584.05,-179.45 1489.24,-163.67 1416.96,-151.85"/>
<polygon fill="#63b8ff" stroke="#63b8ff" points="1417.36,-148.36 1406.92,-150.21 1416.23,-155.27 1417.36,-148.36"/>
</a>
</g>
</g>
<!-- Node38&#45;&gt;Node17 -->
<g id="edge46_Node000038_Node000017" class="edge">
<title>Node38&#45;&gt;Node17</title>
<g id="a_edge46_Node000038_Node000017"><a xlink:title=" ">
<path fill="none" stroke="#63b8ff" d="M1772.72,-126.37C1772.1,-118.49 1771.16,-106.45 1770.32,-95.6"/>
<polygon fill="#63b8ff" stroke="#63b8ff" points="1773.78,-95.06 1769.52,-85.36 1766.81,-95.6 1773.78,-95.06"/>
</a>
</g>
</g>
<!-- Node39&#45;&gt;Node2 -->
<g id="edge48_Node000039_Node000002" class="edge">
<title>Node39&#45;&gt;Node2</title>
<g id="a_edge48_Node000039_Node000002"><a xlink:title=" ">
<path fill="none" stroke="#63b8ff" d="M1455.03,-126.37C1429.14,-115.39 1384.22,-96.36 1354.4,-83.72"/>
<polygon fill="#63b8ff" stroke="#63b8ff" points="1355.49,-80.38 1344.92,-79.7 1352.76,-86.82 1355.49,-80.38"/>
</a>
</g>
</g>
<!-- Node39&#45;&gt;Node4 -->
<g id="edge51_Node000039_Node000004" class="edge">
<title>Node39&#45;&gt;Node4</title>
<g id="a_edge51_Node000039_Node000004"><a xlink:title=" ">
<path fill="none" stroke="#63b8ff" d="M1469.64,-126.28C1458.02,-109.44 1429.96,-72.54 1396.39,-55 1323.52,-16.92 1224.72,-10.47 1173.44,-9.94"/>
<polygon fill="#63b8ff" stroke="#63b8ff" points="1173.26,-6.44 1163.25,-9.91 1173.24,-13.44 1173.26,-6.44"/>
</a>
</g>
</g>
<!-- Node39&#45;&gt;Node6 -->
<g id="edge50_Node000039_Node000006" class="edge">
<title>Node39&#45;&gt;Node6</title>
<g id="a_edge50_Node000039_Node000006"><a xlink:title=" ">
<path fill="none" stroke="#63b8ff" d="M1443.73,-126.5C1434.94,-124.41 1425.34,-122.38 1416.39,-121 1197.5,-87.33 1139.91,-105.53 919.39,-85 900.62,-83.25 880.26,-81.06 861.61,-78.93"/>
<polygon fill="#63b8ff" stroke="#63b8ff" points="861.79,-75.42 851.45,-77.75 860.98,-82.38 861.79,-75.42"/>
</a>
</g>
</g>
<!-- Node39&#45;&gt;Node51 -->
<g id="edge49_Node000039_Node000051" class="edge">
<title>Node39&#45;&gt;Node51</title>
<g id="a_edge49_Node000039_Node000051"><a xlink:title=" ">
<path fill="none" stroke="#63b8ff" d="M1508.9,-126.48C1517.49,-124.49 1526.75,-122.51 1535.39,-121 1667.12,-97.96 1704.64,-107.41 1839.91,-85.14"/>
<polygon fill="#63b8ff" stroke="#63b8ff" points="1840.54,-88.59 1849.83,-83.48 1839.38,-81.68 1840.54,-88.59"/>
</a>
</g>
</g>
<!-- Node54&#45;&gt;Node3 -->
<g id="edge62_Node000054_Node000003" class="edge">
<title>Node54&#45;&gt;Node3</title>
<g id="a_edge62_Node000054_Node000003"><a xlink:title=" ">
<path fill="none" stroke="#63b8ff" d="M1736.88,-258.44C1819.12,-231.55 2052.54,-145.17 1968.39,-55 1926.37,-9.97 1481.59,-9.46 1356.79,-10.22"/>
<polygon fill="#63b8ff" stroke="#63b8ff" points="1356.69,-6.72 1346.71,-10.29 1356.74,-13.72 1356.69,-6.72"/>
</a>
</g>
</g>
<!-- Node54&#45;&gt;Node17 -->
<g id="edge59_Node000054_Node000017" class="edge">
<title>Node54&#45;&gt;Node17</title>
<g id="a_edge59_Node000054_Node000017"><a xlink:title=" ">
<path fill="none" stroke="#63b8ff" d="M1726.68,-258.45C1757.05,-242.32 1819.1,-204.17 1843.39,-151 1848.94,-138.87 1849.69,-132.76 1843.39,-121 1836.5,-108.12 1824.66,-97.99 1812.4,-90.31"/>
<polygon fill="#63b8ff" stroke="#63b8ff" points="1813.88,-87.12 1803.47,-85.15 1810.38,-93.18 1813.88,-87.12"/>
</a>
</g>
</g>
<!-- Node54&#45;&gt;Node24 -->
<g id="edge60_Node000054_Node000024" class="edge">
<title>Node54&#45;&gt;Node24</title>
<g id="a_edge60_Node000054_Node000024"><a xlink:title=" ">
<path fill="none" stroke="#63b8ff" d="M1630.14,-258.47C1509,-243.73 1286.35,-209.31 1234.39,-151 1219.66,-134.46 1219.32,-107.8 1221.21,-89.85"/>
<polygon fill="#63b8ff" stroke="#63b8ff" points="1224.71,-90.12 1222.6,-79.74 1217.77,-89.17 1224.71,-90.12"/>
</a>
</g>
</g>
<!-- Node54&#45;&gt;Node37 -->
<g id="edge58_Node000054_Node000037" class="edge">
<title>Node54&#45;&gt;Node37</title>
<g id="a_edge58_Node000054_Node000037"><a xlink:title=" ">
<path fill="none" stroke="#63b8ff" d="M1706.02,-258.37C1702.35,-248.97 1696.37,-233.67 1691.63,-221.53"/>
<polygon fill="#63b8ff" stroke="#63b8ff" points="1694.77,-219.95 1687.87,-211.91 1688.25,-222.49 1694.77,-219.95"/>
</a>
</g>
</g>
<!-- Node55 -->
<g id="Node000055" class="node">
<title>Node55</title>
<g id="a_Node000055"><a xlink:title=" ">
<polygon fill="#e0e0e0" stroke="#999999" points="1613.39,-211.5 1581.39,-211.5 1581.39,-192.5 1613.39,-192.5 1613.39,-211.5"/>
<text text-anchor="middle" x="1597.39" y="-199.5" font-family="Helvetica,sans-Serif" font-size="10.00">set</text>
</a>
</g>
</g>
<!-- Node54&#45;&gt;Node55 -->
<g id="edge61_Node000054_Node000055" class="edge">
<title>Node54&#45;&gt;Node55</title>
<g id="a_edge61_Node000054_Node000055"><a xlink:title=" ">
<path fill="none" stroke="#63b8ff" d="M1694.29,-258.37C1675.59,-247.68 1643.5,-229.35 1621.41,-216.72"/>
<polygon fill="#63b8ff" stroke="#63b8ff" points="1623.04,-213.62 1612.62,-211.7 1619.56,-219.7 1623.04,-213.62"/>
</a>
</g>
</g>
<!-- Node56&#45;&gt;Node17 -->
<g id="edge65_Node000056_Node000017" class="edge">
<title>Node56&#45;&gt;Node17</title>
<g id="a_edge65_Node000056_Node000017"><a xlink:title=" ">
<path fill="none" stroke="#63b8ff" d="M1910.63,-252.88C1906.45,-224.74 1893.6,-160.94 1859.39,-121 1848.03,-107.74 1832.23,-97.35 1816.99,-89.56"/>
<polygon fill="#63b8ff" stroke="#63b8ff" points="1818.14,-86.23 1807.61,-85.05 1815.1,-92.54 1818.14,-86.23"/>
</a>
</g>
</g>
<!-- Node56&#45;&gt;Node37 -->
<g id="edge64_Node000056_Node000037" class="edge">
<title>Node56&#45;&gt;Node37</title>
<g id="a_edge64_Node000056_Node000037"><a xlink:title=" ">
<path fill="none" stroke="#63b8ff" d="M1862.36,-252.95C1820.96,-241.34 1762.93,-225.05 1724.54,-214.27"/>
<polygon fill="#63b8ff" stroke="#63b8ff" points="1725.31,-210.85 1714.74,-211.52 1723.42,-217.59 1725.31,-210.85"/>
</a>
</g>
</g>
<!-- Node56&#45;&gt;Node51 -->
<g id="edge66_Node000056_Node000051" class="edge">
<title>Node56&#45;&gt;Node51</title>
<g id="a_edge66_Node000056_Node000051"><a xlink:title=" ">
<path fill="none" stroke="#63b8ff" d="M1928.04,-252.92C1937.05,-243.71 1947.54,-230.85 1952.39,-217 1966.52,-176.74 1968.32,-160.58 1952.39,-121 1947.99,-110.06 1939.93,-100.17 1931.65,-92.13"/>
<polygon fill="#63b8ff" stroke="#63b8ff" points="1933.85,-89.4 1924.08,-85.28 1929.15,-94.59 1933.85,-89.4"/>
</a>
</g>
</g>
</g>
</svg>
