<?xml version="1.0" encoding="UTF-8" standalone="no"?>
<!DOCTYPE svg PUBLIC "-//W3C//DTD SVG 1.1//EN"
 "http://www.w3.org/Graphics/SVG/1.1/DTD/svg11.dtd">
<!-- Generated by graphviz version 2.43.0 (0)
 -->
<!-- Title: /home/runner/work/lethe/lethe/source/dem/find_contact_detection_step.cc Pages: 1 -->
<svg width="950pt" height="489pt"
 viewBox="0.00 0.00 950.00 489.00" xmlns="http://www.w3.org/2000/svg" xmlns:xlink="http://www.w3.org/1999/xlink">
<g id="graph0" class="graph" transform="scale(1 1) rotate(0) translate(4 485)">
<title>/home/runner/work/lethe/lethe/source/dem/find_contact_detection_step.cc</title>
<!-- Node1 -->
<g id="Node000001" class="node">
<title>Node1</title>
<g id="a_Node000001"><a xlink:title=" ">
<polygon fill="#999999" stroke="#666666" points="510.5,-481 361.5,-481 361.5,-440 510.5,-440 510.5,-481"/>
<text text-anchor="start" x="369.5" y="-469" font-family="Helvetica,sans-Serif" font-size="10.00">/home/runner/work/lethe</text>
<text text-anchor="start" x="369.5" y="-458" font-family="Helvetica,sans-Serif" font-size="10.00">/lethe/source/dem/find</text>
<text text-anchor="middle" x="436" y="-447" font-family="Helvetica,sans-Serif" font-size="10.00">_contact_detection_step.cc</text>
</a>
</g>
</g>
<!-- Node2 -->
<g id="Node000002" class="node">
<title>Node2</title>
<g id="a_Node000002"><a xlink:href="dem__action__manager_8h.html" target="_top" xlink:title=" ">
<polygon fill="white" stroke="#666666" points="427.5,-398.5 272.5,-398.5 272.5,-379.5 427.5,-379.5 427.5,-398.5"/>
<text text-anchor="middle" x="350" y="-386.5" font-family="Helvetica,sans-Serif" font-size="10.00">dem/dem_action_manager.h</text>
</a>
</g>
</g>
<!-- Node1&#45;&gt;Node2 -->
<g id="edge1_Node000001_Node000002" class="edge">
<title>Node1&#45;&gt;Node2</title>
<g id="a_edge1_Node000001_Node000002"><a xlink:title=" ">
<path fill="none" stroke="#63b8ff" d="M411.59,-439.77C398.03,-428.81 381.42,-415.39 368.87,-405.25"/>
<polygon fill="#63b8ff" stroke="#63b8ff" points="370.89,-402.38 360.91,-398.82 366.49,-407.83 370.89,-402.38"/>
</a>
</g>
</g>
<!-- Node3 -->
<g id="Node000003" class="node">
<title>Node3</title>
<g id="a_Node000003"><a xlink:href="find__contact__detection__step_8h.html" target="_top" xlink:title=" ">
<polygon fill="white" stroke="#666666" points="598,-404 446,-404 446,-374 598,-374 598,-404"/>
<text text-anchor="start" x="454" y="-392" font-family="Helvetica,sans-Serif" font-size="10.00">dem/find_contact_detection</text>
<text text-anchor="middle" x="522" y="-381" font-family="Helvetica,sans-Serif" font-size="10.00">_step.h</text>
</a>
</g>
</g>
<!-- Node1&#45;&gt;Node3 -->
<g id="edge2_Node000001_Node000003" class="edge">
<title>Node1&#45;&gt;Node3</title>
<g id="a_edge2_Node000001_Node000003"><a xlink:title=" ">
<path fill="none" stroke="#63b8ff" d="M460.41,-439.77C471.76,-430.6 485.25,-419.7 496.71,-410.44"/>
<polygon fill="#63b8ff" stroke="#63b8ff" points="499.05,-413.05 504.63,-404.04 494.65,-407.6 499.05,-413.05"/>
</a>
</g>
</g>
<!-- Node4 -->
<g id="Node000004" class="node">
<title>Node4</title>
<g id="a_Node000004"><a xlink:href="serial__solid_8h.html" target="_top" xlink:title=" ">
<polygon fill="white" stroke="#666666" points="574.5,-338 469.5,-338 469.5,-319 574.5,-319 574.5,-338"/>
<text text-anchor="middle" x="522" y="-326" font-family="Helvetica,sans-Serif" font-size="10.00">core/serial_solid.h</text>
</a>
</g>
</g>
<!-- Node3&#45;&gt;Node4 -->
<g id="edge3_Node000003_Node000004" class="edge">
<title>Node3&#45;&gt;Node4</title>
<g id="a_edge3_Node000003_Node000004"><a xlink:title=" ">
<path fill="none" stroke="#63b8ff" d="M522,-373.84C522,-366.21 522,-356.7 522,-348.45"/>
<polygon fill="#63b8ff" stroke="#63b8ff" points="525.5,-348.27 522,-338.27 518.5,-348.27 525.5,-348.27"/>
</a>
</g>
</g>
<!-- Node12 -->
<g id="Node000012" class="node">
<title>Node12</title>
<g id="a_Node000012"><a xlink:title=" ">
<polygon fill="#e0e0e0" stroke="#999999" points="220.5,-24.5 173.5,-24.5 173.5,-5.5 220.5,-5.5 220.5,-24.5"/>
<text text-anchor="middle" x="197" y="-12.5" font-family="Helvetica,sans-Serif" font-size="10.00">vector</text>
</a>
</g>
</g>
<!-- Node3&#45;&gt;Node12 -->
<g id="edge37_Node000003_Node000012" class="edge">
<title>Node3&#45;&gt;Node12</title>
<g id="a_edge37_Node000003_Node000012"><a xlink:title=" ">
<path fill="none" stroke="#63b8ff" d="M447.17,-373.98C308.15,-347.41 24,-290.49 24,-269 24,-269 24,-269 24,-140.5 24,-98.81 48.12,-91.64 81,-66 105.77,-46.68 139.15,-33.32 163.74,-25.31"/>
<polygon fill="#63b8ff" stroke="#63b8ff" points="164.86,-28.63 173.36,-22.3 162.77,-21.95 164.86,-28.63"/>
</a>
</g>
</g>
<!-- Node48 -->
<g id="Node000048" class="node">
<title>Node48</title>
<g id="a_Node000048"><a xlink:title=" ">
<polygon fill="#e0e0e0" stroke="#999999" points="692.5,-217 561.5,-217 561.5,-187 692.5,-187 692.5,-217"/>
<text text-anchor="start" x="569.5" y="-205" font-family="Helvetica,sans-Serif" font-size="10.00">deal.II/particles/particle</text>
<text text-anchor="middle" x="627" y="-194" font-family="Helvetica,sans-Serif" font-size="10.00">_handler.h</text>
</a>
</g>
</g>
<!-- Node3&#45;&gt;Node48 -->
<g id="edge36_Node000003_Node000048" class="edge">
<title>Node3&#45;&gt;Node48</title>
<g id="a_edge36_Node000003_Node000048"><a xlink:title=" ">
<path fill="none" stroke="#63b8ff" d="M598.08,-376.32C652.79,-363.51 722.88,-337.06 758,-283 777.27,-253.33 741.33,-232.92 702.26,-220.15"/>
<polygon fill="#63b8ff" stroke="#63b8ff" points="702.87,-216.67 692.29,-217.06 700.8,-223.36 702.87,-216.67"/>
</a>
</g>
</g>
<!-- Node5 -->
<g id="Node000005" class="node">
<title>Node5</title>
<g id="a_Node000005"><a xlink:href="pvd__handler_8h.html" target="_top" xlink:title=" ">
<polygon fill="white" stroke="#666666" points="819.5,-211.5 710.5,-211.5 710.5,-192.5 819.5,-192.5 819.5,-211.5"/>
<text text-anchor="middle" x="765" y="-199.5" font-family="Helvetica,sans-Serif" font-size="10.00">core/pvd_handler.h</text>
</a>
</g>
</g>
<!-- Node4&#45;&gt;Node5 -->
<g id="edge4_Node000004_Node000005" class="edge">
<title>Node4&#45;&gt;Node5</title>
<g id="a_edge4_Node000004_Node000005"><a xlink:title=" ">
<path fill="none" stroke="#63b8ff" d="M574.59,-324.8C636.53,-320.43 734.04,-309.46 758,-283 772.88,-266.57 771.98,-239.69 769.16,-221.68"/>
<polygon fill="#63b8ff" stroke="#63b8ff" points="772.58,-220.95 767.28,-211.78 765.7,-222.26 772.58,-220.95"/>
</a>
</g>
</g>
<!-- Node17 -->
<g id="Node000017" class="node">
<title>Node17</title>
<g id="a_Node000017"><a xlink:href="core_2utilities_8h.html" target="_top" xlink:title=" ">
<polygon fill="#fff0f0" stroke="red" points="176,-90.5 90,-90.5 90,-71.5 176,-71.5 176,-90.5"/>
<text text-anchor="middle" x="133" y="-78.5" font-family="Helvetica,sans-Serif" font-size="10.00">core/utilities.h</text>
</a>
</g>
</g>
<!-- Node4&#45;&gt;Node17 -->
<g id="edge31_Node000004_Node000017" class="edge">
<title>Node4&#45;&gt;Node17</title>
<g id="a_edge31_Node000004_Node000017"><a xlink:title=" ">
<path fill="none" stroke="#63b8ff" d="M469.35,-325.48C366.04,-320.98 144.77,-308.45 122,-283 75.77,-231.34 107.78,-139.07 124.55,-100.13"/>
<polygon fill="#63b8ff" stroke="#63b8ff" points="127.9,-101.2 128.79,-90.64 121.51,-98.34 127.9,-101.2"/>
</a>
</g>
</g>
<!-- Node22 -->
<g id="Node000022" class="node">
<title>Node22</title>
<g id="a_Node000022"><a xlink:title=" ">
<polygon fill="#e0e0e0" stroke="#999999" points="140,-24.5 0,-24.5 0,-5.5 140,-5.5 140,-24.5"/>
<text text-anchor="middle" x="70" y="-12.5" font-family="Helvetica,sans-Serif" font-size="10.00">deal.II/dofs/dof_handler.h</text>
</a>
</g>
</g>
<!-- Node4&#45;&gt;Node22 -->
<g id="edge33_Node000004_Node000022" class="edge">
<title>Node4&#45;&gt;Node22</title>
<g id="a_edge33_Node000004_Node000022"><a xlink:title=" ">
<path fill="none" stroke="#63b8ff" d="M469.22,-328.2C369.5,-328.54 158.17,-324.19 100,-283 67.88,-260.25 62,-242.36 62,-203 62,-203 62,-203 62,-140.5 62,-102.92 65.68,-59.08 68.04,-34.74"/>
<polygon fill="#63b8ff" stroke="#63b8ff" points="71.53,-35.04 69.05,-24.74 64.57,-34.34 71.53,-35.04"/>
</a>
</g>
</g>
<!-- Node45 -->
<g id="Node000045" class="node">
<title>Node45</title>
<g id="a_Node000045"><a xlink:href="simulation__control_8h.html" target="_top" xlink:title="Simulation control classes for managing time&#45;stepping and iteration control in Lethe.">
<polygon fill="white" stroke="#666666" points="271,-277.5 131,-277.5 131,-258.5 271,-258.5 271,-277.5"/>
<text text-anchor="middle" x="201" y="-265.5" font-family="Helvetica,sans-Serif" font-size="10.00">core/simulation_control.h</text>
</a>
</g>
</g>
<!-- Node4&#45;&gt;Node45 -->
<g id="edge19_Node000004_Node000045" class="edge">
<title>Node4&#45;&gt;Node45</title>
<g id="a_edge19_Node000004_Node000045"><a xlink:title=" ">
<path fill="none" stroke="#63b8ff" d="M475.32,-318.99C417.67,-308.49 319.66,-290.62 257.73,-279.34"/>
<polygon fill="#63b8ff" stroke="#63b8ff" points="258.2,-275.87 247.73,-277.52 256.94,-282.75 258.2,-275.87"/>
</a>
</g>
</g>
<!-- Node4&#45;&gt;Node48 -->
<g id="edge35_Node000004_Node000048" class="edge">
<title>Node4&#45;&gt;Node48</title>
<g id="a_edge35_Node000004_Node000048"><a xlink:title=" ">
<path fill="none" stroke="#63b8ff" d="M574.53,-324.29C632.51,-319.51 720.38,-308.24 741,-283 762.79,-256.33 725.05,-234.58 687.27,-220.52"/>
<polygon fill="#63b8ff" stroke="#63b8ff" points="688.29,-217.17 677.7,-217.11 685.95,-223.77 688.29,-217.17"/>
</a>
</g>
</g>
<!-- Node49 -->
<g id="Node000049" class="node">
<title>Node49</title>
<g id="a_Node000049"><a xlink:href="solid__objects__parameters_8h.html" target="_top" xlink:title="Parameter classes for solid objects used in Nitsche immersed boundary and DEM simulations.">
<polygon fill="white" stroke="#666666" points="942,-217 838,-217 838,-187 942,-187 942,-217"/>
<text text-anchor="start" x="846" y="-205" font-family="Helvetica,sans-Serif" font-size="10.00">core/solid_objects</text>
<text text-anchor="middle" x="890" y="-194" font-family="Helvetica,sans-Serif" font-size="10.00">_parameters.h</text>
</a>
</g>
</g>
<!-- Node4&#45;&gt;Node49 -->
<g id="edge26_Node000004_Node000049" class="edge">
<title>Node4&#45;&gt;Node49</title>
<g id="a_edge26_Node000004_Node000049"><a xlink:title=" ">
<path fill="none" stroke="#63b8ff" d="M574.91,-325.17C628.06,-321.27 711.41,-310.85 778,-283 812.21,-268.69 846.1,-242.34 867.48,-223.79"/>
<polygon fill="#63b8ff" stroke="#63b8ff" points="869.87,-226.36 875.04,-217.11 865.23,-221.11 869.87,-226.36"/>
</a>
</g>
</g>
<!-- Node14 -->
<g id="Node000014" class="node">
<title>Node14</title>
<g id="a_Node000014"><a xlink:href="tensors__and__points__dimension__manipulation_8h.html" target="_top" xlink:title=" ">
<polygon fill="#fff0f0" stroke="red" points="441,-283 289,-283 289,-253 441,-253 441,-283"/>
<text text-anchor="start" x="297" y="-271" font-family="Helvetica,sans-Serif" font-size="10.00">core/tensors_and_points</text>
<text text-anchor="middle" x="365" y="-260" font-family="Helvetica,sans-Serif" font-size="10.00">_dimension_manipulation.h</text>
</a>
</g>
</g>
<!-- Node4&#45;&gt;Node14 -->
<g id="edge30_Node000004_Node000014" class="edge">
<title>Node4&#45;&gt;Node14</title>
<g id="a_edge30_Node000004_Node000014"><a xlink:title=" ">
<path fill="none" stroke="#63b8ff" d="M499.17,-318.99C476.48,-310.54 441,-297.32 412.22,-286.59"/>
<polygon fill="#63b8ff" stroke="#63b8ff" points="413.34,-283.28 402.75,-283.06 410.89,-289.84 413.34,-283.28"/>
</a>
</g>
</g>
<!-- Node33 -->
<g id="Node000033" class="node">
<title>Node33</title>
<g id="a_Node000033"><a xlink:title=" ">
<polygon fill="#e0e0e0" stroke="#999999" points="584.5,-277.5 459.5,-277.5 459.5,-258.5 584.5,-258.5 584.5,-277.5"/>
<text text-anchor="middle" x="522" y="-265.5" font-family="Helvetica,sans-Serif" font-size="10.00">deal.II/base/function.h</text>
</a>
</g>
</g>
<!-- Node4&#45;&gt;Node33 -->
<g id="edge32_Node000004_Node000033" class="edge">
<title>Node4&#45;&gt;Node33</title>
<g id="a_edge32_Node000004_Node000033"><a xlink:title=" ">
<path fill="none" stroke="#63b8ff" d="M522,-318.87C522,-310.75 522,-298.31 522,-287.89"/>
<polygon fill="#63b8ff" stroke="#63b8ff" points="525.5,-287.67 522,-277.67 518.5,-287.67 525.5,-287.67"/>
</a>
</g>
</g>
<!-- Node50 -->
<g id="Node000050" class="node">
<title>Node50</title>
<g id="a_Node000050"><a xlink:title=" ">
<polygon fill="#e0e0e0" stroke="#999999" points="731.5,-277.5 602.5,-277.5 602.5,-258.5 731.5,-258.5 731.5,-277.5"/>
<text text-anchor="middle" x="667" y="-265.5" font-family="Helvetica,sans-Serif" font-size="10.00">deal.II/fe/mapping_fe.h</text>
</a>
</g>
</g>
<!-- Node4&#45;&gt;Node50 -->
<g id="edge34_Node000004_Node000050" class="edge">
<title>Node4&#45;&gt;Node50</title>
<g id="a_edge34_Node000004_Node000050"><a xlink:title=" ">
<path fill="none" stroke="#63b8ff" d="M543.08,-318.99C567.68,-309.07 608.53,-292.59 636.56,-281.28"/>
<polygon fill="#63b8ff" stroke="#63b8ff" points="637.93,-284.5 645.89,-277.52 635.31,-278.01 637.93,-284.5"/>
</a>
</g>
</g>
<!-- Node6 -->
<g id="Node000006" class="node">
<title>Node6</title>
<g id="a_Node000006"><a xlink:href="parameters_8h.html" target="_top" xlink:title=" ">
<polygon fill="white" stroke="#666666" points="525,-151 419,-151 419,-132 525,-132 525,-151"/>
<text text-anchor="middle" x="472" y="-139" font-family="Helvetica,sans-Serif" font-size="10.00">core/parameters.h</text>
</a>
</g>
</g>
<!-- Node5&#45;&gt;Node6 -->
<g id="edge5_Node000005_Node000006" class="edge">
<title>Node5&#45;&gt;Node6</title>
<g id="a_edge5_Node000005_Node000006"><a xlink:title=" ">
<path fill="none" stroke="#63b8ff" d="M727.39,-192.46C719.04,-190.62 710.23,-188.71 702,-187 642.83,-174.7 574.86,-161.69 528.24,-152.93"/>
<polygon fill="#63b8ff" stroke="#63b8ff" points="528.8,-149.48 518.33,-151.08 527.52,-156.36 528.8,-149.48"/>
</a>
</g>
</g>
<!-- Node7 -->
<g id="Node000007" class="node">
<title>Node7</title>
<g id="a_Node000007"><a xlink:href="dimensionality_8h.html" target="_top" xlink:title=" ">
<polygon fill="white" stroke="#666666" points="861.5,-90.5 740.5,-90.5 740.5,-71.5 861.5,-71.5 861.5,-90.5"/>
<text text-anchor="middle" x="801" y="-78.5" font-family="Helvetica,sans-Serif" font-size="10.00">core/dimensionality.h</text>
</a>
</g>
</g>
<!-- Node6&#45;&gt;Node7 -->
<g id="edge6_Node000006_Node000007" class="edge">
<title>Node6&#45;&gt;Node7</title>
<g id="a_edge6_Node000006_Node000007"><a xlink:title=" ">
<path fill="none" stroke="#63b8ff" d="M521.67,-131.97C572.9,-123.12 655.07,-108.83 726,-96 732.33,-94.85 738.96,-93.64 745.54,-92.42"/>
<polygon fill="#63b8ff" stroke="#63b8ff" points="746.61,-95.79 755.8,-90.52 745.33,-88.9 746.61,-95.79"/>
</a>
</g>
</g>
<!-- Node8 -->
<g id="Node000008" class="node">
<title>Node8</title>
<g id="a_Node000008"><a xlink:title=" ">
<polygon fill="#e0e0e0" stroke="#999999" points="819.5,-30 692.5,-30 692.5,0 819.5,0 819.5,-30"/>
<text text-anchor="start" x="700.5" y="-18" font-family="Helvetica,sans-Serif" font-size="10.00">deal.II/base/parameter</text>
<text text-anchor="middle" x="756" y="-7" font-family="Helvetica,sans-Serif" font-size="10.00">_handler.h</text>
</a>
</g>
</g>
<!-- Node6&#45;&gt;Node8 -->
<g id="edge16_Node000006_Node000008" class="edge">
<title>Node6&#45;&gt;Node8</title>
<g id="a_edge16_Node000006_Node000008"><a xlink:title=" ">
<path fill="none" stroke="#63b8ff" d="M525.3,-139.94C572.56,-137.19 641.82,-127.46 693,-96 715.44,-82.2 733.11,-57.36 743.95,-39.01"/>
<polygon fill="#63b8ff" stroke="#63b8ff" points="747.11,-40.52 748.99,-30.09 741.02,-37.08 747.11,-40.52"/>
</a>
</g>
</g>
<!-- Node9 -->
<g id="Node000009" class="node">
<title>Node9</title>
<g id="a_Node000009"><a xlink:href="ib__particle_8h.html" target="_top" xlink:title=" ">
<polygon fill="#fff0f0" stroke="red" points="333.5,-90.5 232.5,-90.5 232.5,-71.5 333.5,-71.5 333.5,-90.5"/>
<text text-anchor="middle" x="283" y="-78.5" font-family="Helvetica,sans-Serif" font-size="10.00">core/ib_particle.h</text>
</a>
</g>
</g>
<!-- Node6&#45;&gt;Node9 -->
<g id="edge8_Node000006_Node000009" class="edge">
<title>Node6&#45;&gt;Node9</title>
<g id="a_edge8_Node000006_Node000009"><a xlink:title=" ">
<path fill="none" stroke="#63b8ff" d="M444.52,-131.99C411.76,-121.86 356.88,-104.87 320.31,-93.55"/>
<polygon fill="#63b8ff" stroke="#63b8ff" points="321.1,-90.13 310.52,-90.52 319.03,-96.82 321.1,-90.13"/>
</a>
</g>
</g>
<!-- Node42 -->
<g id="Node000042" class="node">
<title>Node42</title>
<g id="a_Node000042"><a xlink:title=" ">
<polygon fill="#e0e0e0" stroke="#999999" points="416.5,-30 307.5,-30 307.5,0 416.5,0 416.5,-30"/>
<text text-anchor="start" x="315.5" y="-18" font-family="Helvetica,sans-Serif" font-size="10.00">deal.II/base/parsed</text>
<text text-anchor="middle" x="362" y="-7" font-family="Helvetica,sans-Serif" font-size="10.00">_function.h</text>
</a>
</g>
</g>
<!-- Node6&#45;&gt;Node42 -->
<g id="edge17_Node000006_Node000042" class="edge">
<title>Node6&#45;&gt;Node42</title>
<g id="a_edge17_Node000006_Node000042"><a xlink:title=" ">
<path fill="none" stroke="#63b8ff" d="M439.27,-131.9C419.91,-125.19 396.44,-113.92 382,-96 369.4,-80.36 364.6,-57.84 362.84,-40.68"/>
<polygon fill="#63b8ff" stroke="#63b8ff" points="366.3,-40.01 362.07,-30.3 359.32,-40.53 366.3,-40.01"/>
</a>
</g>
</g>
<!-- Node43 -->
<g id="Node000043" class="node">
<title>Node43</title>
<g id="a_Node000043"><a xlink:href="multiphysics_8h.html" target="_top" xlink:title="Identifiers for multiphysics modules and their solution fields.">
<polygon fill="white" stroke="#666666" points="684,-90.5 572,-90.5 572,-71.5 684,-71.5 684,-90.5"/>
<text text-anchor="middle" x="628" y="-78.5" font-family="Helvetica,sans-Serif" font-size="10.00">core/multiphysics.h</text>
</a>
</g>
</g>
<!-- Node6&#45;&gt;Node43 -->
<g id="edge11_Node000006_Node000043" class="edge">
<title>Node6&#45;&gt;Node43</title>
<g id="a_edge11_Node000006_Node000043"><a xlink:title=" ">
<path fill="none" stroke="#63b8ff" d="M494.68,-131.99C521.26,-122.03 565.48,-105.45 595.64,-94.13"/>
<polygon fill="#63b8ff" stroke="#63b8ff" points="597.15,-97.31 605.29,-90.52 594.7,-90.75 597.15,-97.31"/>
</a>
</g>
</g>
<!-- Node6&#45;&gt;Node17 -->
<g id="edge12_Node000006_Node000017" class="edge">
<title>Node6&#45;&gt;Node17</title>
<g id="a_edge12_Node000006_Node000017"><a xlink:title=" ">
<path fill="none" stroke="#63b8ff" d="M422.71,-131.99C359.69,-121.12 251.02,-102.37 186.19,-91.18"/>
<polygon fill="#63b8ff" stroke="#63b8ff" points="186.62,-87.7 176.17,-89.45 185.43,-94.6 186.62,-87.7"/>
</a>
</g>
</g>
<!-- Node44 -->
<g id="Node000044" class="node">
<title>Node44</title>
<g id="a_Node000044"><a xlink:title=" ">
<polygon fill="#e0e0e0" stroke="#999999" points="553.5,-96 390.5,-96 390.5,-66 553.5,-66 553.5,-96"/>
<text text-anchor="start" x="398.5" y="-84" font-family="Helvetica,sans-Serif" font-size="10.00">deal.II/multigrid/mg</text>
<text text-anchor="middle" x="472" y="-73" font-family="Helvetica,sans-Serif" font-size="10.00">_transfer_global_coarsening.h</text>
</a>
</g>
</g>
<!-- Node6&#45;&gt;Node44 -->
<g id="edge18_Node000006_Node000044" class="edge">
<title>Node6&#45;&gt;Node44</title>
<g id="a_edge18_Node000006_Node000044"><a xlink:title=" ">
<path fill="none" stroke="#63b8ff" d="M472,-131.87C472,-125.11 472,-115.35 472,-106.26"/>
<polygon fill="#63b8ff" stroke="#63b8ff" points="475.5,-106.11 472,-96.11 468.5,-106.11 475.5,-106.11"/>
</a>
</g>
</g>
<!-- Node7&#45;&gt;Node8 -->
<g id="edge7_Node000007_Node000008" class="edge">
<title>Node7&#45;&gt;Node8</title>
<g id="a_edge7_Node000007_Node000008"><a xlink:title=" ">
<path fill="none" stroke="#63b8ff" d="M794.93,-71.37C789.04,-62.99 779.85,-49.93 771.88,-38.59"/>
<polygon fill="#63b8ff" stroke="#63b8ff" points="774.71,-36.53 766.1,-30.36 768.99,-40.55 774.71,-36.53"/>
</a>
</g>
</g>
<!-- Node9&#45;&gt;Node42 -->
<g id="edge9_Node000009_Node000042" class="edge">
<title>Node9&#45;&gt;Node42</title>
<g id="a_edge9_Node000009_Node000042"><a xlink:title=" ">
<path fill="none" stroke="#63b8ff" d="M293.65,-71.37C304.57,-62.53 321.94,-48.45 336.44,-36.71"/>
<polygon fill="#63b8ff" stroke="#63b8ff" points="339.01,-39.13 344.58,-30.12 334.6,-33.69 339.01,-39.13"/>
</a>
</g>
</g>
<!-- Node9&#45;&gt;Node12 -->
<g id="edge10_Node000009_Node000012" class="edge">
<title>Node9&#45;&gt;Node12</title>
<g id="a_edge10_Node000009_Node000012"><a xlink:title=" ">
<path fill="none" stroke="#63b8ff" d="M271.4,-71.37C257.42,-60.97 233.71,-43.32 216.82,-30.75"/>
<polygon fill="#63b8ff" stroke="#63b8ff" points="218.8,-27.86 208.69,-24.7 214.62,-33.48 218.8,-27.86"/>
</a>
</g>
</g>
<!-- Node17&#45;&gt;Node8 -->
<g id="edge13_Node000017_Node000008" class="edge">
<title>Node17&#45;&gt;Node8</title>
<g id="a_edge13_Node000017_Node000008"><a xlink:title=" ">
<path fill="none" stroke="#63b8ff" d="M176.44,-72.78C191.47,-70.43 208.45,-67.92 224,-66 387.11,-45.81 579.25,-29.62 682.12,-21.56"/>
<polygon fill="#63b8ff" stroke="#63b8ff" points="682.7,-25.02 692.4,-20.76 682.16,-18.05 682.7,-25.02"/>
</a>
</g>
</g>
<!-- Node17&#45;&gt;Node12 -->
<g id="edge15_Node000017_Node000012" class="edge">
<title>Node17&#45;&gt;Node12</title>
<g id="a_edge15_Node000017_Node000012"><a xlink:title=" ">
<path fill="none" stroke="#63b8ff" d="M141.63,-71.37C151.69,-61.31 168.52,-44.48 180.99,-32.01"/>
<polygon fill="#63b8ff" stroke="#63b8ff" points="183.5,-34.45 188.09,-24.91 178.55,-29.5 183.5,-34.45"/>
</a>
</g>
</g>
<!-- Node17&#45;&gt;Node22 -->
<g id="edge14_Node000017_Node000022" class="edge">
<title>Node17&#45;&gt;Node22</title>
<g id="a_edge14_Node000017_Node000022"><a xlink:title=" ">
<path fill="none" stroke="#63b8ff" d="M124.5,-71.37C114.7,-61.4 98.34,-44.79 86.11,-32.36"/>
<polygon fill="#63b8ff" stroke="#63b8ff" points="88.28,-29.58 78.77,-24.91 83.29,-34.49 88.28,-29.58"/>
</a>
</g>
</g>
<!-- Node45&#45;&gt;Node6 -->
<g id="edge24_Node000045_Node000006" class="edge">
<title>Node45&#45;&gt;Node6</title>
<g id="a_edge24_Node000045_Node000006"><a xlink:title=" ">
<path fill="none" stroke="#63b8ff" d="M219.63,-258.44C266.33,-236.99 388.63,-180.8 444.02,-155.35"/>
<polygon fill="#63b8ff" stroke="#63b8ff" points="445.62,-158.47 453.24,-151.12 442.69,-152.11 445.62,-158.47"/>
</a>
</g>
</g>
<!-- Node46 -->
<g id="Node000046" class="node">
<title>Node46</title>
<g id="a_Node000046"><a xlink:href="bdf_8h.html" target="_top" xlink:title=" ">
<polygon fill="white" stroke="#666666" points="276.5,-211.5 211.5,-211.5 211.5,-192.5 276.5,-192.5 276.5,-211.5"/>
<text text-anchor="middle" x="244" y="-199.5" font-family="Helvetica,sans-Serif" font-size="10.00">core/bdf.h</text>
</a>
</g>
</g>
<!-- Node45&#45;&gt;Node46 -->
<g id="edge20_Node000045_Node000046" class="edge">
<title>Node45&#45;&gt;Node46</title>
<g id="a_edge20_Node000045_Node000046"><a xlink:title=" ">
<path fill="none" stroke="#63b8ff" d="M206.8,-258.37C213.3,-248.69 224.02,-232.74 232.28,-220.44"/>
<polygon fill="#63b8ff" stroke="#63b8ff" points="235.35,-222.16 238.02,-211.91 229.53,-218.25 235.35,-222.16"/>
</a>
</g>
</g>
<!-- Node45&#45;&gt;Node48 -->
<g id="edge25_Node000045_Node000048" class="edge">
<title>Node45&#45;&gt;Node48</title>
<g id="a_edge25_Node000045_Node000048"><a xlink:title=" ">
<path fill="none" stroke="#63b8ff" d="M247.74,-258.46C258.34,-256.59 269.55,-254.68 280,-253 373.22,-238.03 480.87,-222.84 551.24,-213.2"/>
<polygon fill="#63b8ff" stroke="#63b8ff" points="551.92,-216.64 561.35,-211.82 550.97,-209.7 551.92,-216.64"/>
</a>
</g>
</g>
<!-- Node46&#45;&gt;Node6 -->
<g id="edge21_Node000046_Node000006" class="edge">
<title>Node46&#45;&gt;Node6</title>
<g id="a_edge21_Node000046_Node000006"><a xlink:title=" ">
<path fill="none" stroke="#63b8ff" d="M276.67,-192.62C316.65,-182.36 384.48,-164.96 428.76,-153.59"/>
<polygon fill="#63b8ff" stroke="#63b8ff" points="429.84,-156.93 438.65,-151.06 428.1,-150.15 429.84,-156.93"/>
</a>
</g>
</g>
<!-- Node46&#45;&gt;Node12 -->
<g id="edge23_Node000046_Node000012" class="edge">
<title>Node46&#45;&gt;Node12</title>
<g id="a_edge23_Node000046_Node000012"><a xlink:title=" ">
<path fill="none" stroke="#63b8ff" d="M239.72,-192.35C235.01,-182.54 227.53,-165.96 223,-151 210.71,-110.4 202.95,-61.12 199.36,-34.77"/>
<polygon fill="#63b8ff" stroke="#63b8ff" points="202.81,-34.14 198.04,-24.68 195.87,-35.05 202.81,-34.14"/>
</a>
</g>
</g>
<!-- Node47 -->
<g id="Node000047" class="node">
<title>Node47</title>
<g id="a_Node000047"><a xlink:title=" ">
<polygon fill="#e0e0e0" stroke="#999999" points="338,-151 232,-151 232,-132 338,-132 338,-151"/>
<text text-anchor="middle" x="285" y="-139" font-family="Helvetica,sans-Serif" font-size="10.00">deal.II/lac/vector.h</text>
</a>
</g>
</g>
<!-- Node46&#45;&gt;Node47 -->
<g id="edge22_Node000046_Node000047" class="edge">
<title>Node46&#45;&gt;Node47</title>
<g id="a_edge22_Node000046_Node000047"><a xlink:title=" ">
<path fill="none" stroke="#63b8ff" d="M250.05,-192.37C256.11,-183.73 265.59,-170.2 273.14,-159.42"/>
<polygon fill="#63b8ff" stroke="#63b8ff" points="276.05,-161.37 278.93,-151.17 270.32,-157.35 276.05,-161.37"/>
</a>
</g>
</g>
<!-- Node49&#45;&gt;Node6 -->
<g id="edge27_Node000049_Node000006" class="edge">
<title>Node49&#45;&gt;Node6</title>
<g id="a_edge27_Node000049_Node000006"><a xlink:title=" ">
<path fill="none" stroke="#63b8ff" d="M837.83,-188.66C834.85,-188.07 831.89,-187.51 829,-187 726.85,-168.96 606.98,-155.6 535.38,-148.44"/>
<polygon fill="#63b8ff" stroke="#63b8ff" points="535.47,-144.93 525.18,-147.42 534.78,-151.89 535.47,-144.93"/>
</a>
</g>
</g>
<!-- Node49&#45;&gt;Node8 -->
<g id="edge28_Node000049_Node000008" class="edge">
<title>Node49&#45;&gt;Node8</title>
<g id="a_edge28_Node000049_Node000008"><a xlink:title=" ">
<path fill="none" stroke="#63b8ff" d="M897.13,-186.8C909.31,-160.32 930.38,-102.76 904,-66 886.81,-42.05 857.54,-29.43 829.55,-22.83"/>
<polygon fill="#63b8ff" stroke="#63b8ff" points="830.23,-19.39 819.72,-20.73 828.77,-26.24 830.23,-19.39"/>
</a>
</g>
</g>
<!-- Node49&#45;&gt;Node42 -->
<g id="edge29_Node000049_Node000042" class="edge">
<title>Node49&#45;&gt;Node42</title>
<g id="a_edge29_Node000049_Node000042"><a xlink:title=" ">
<path fill="none" stroke="#63b8ff" d="M893.03,-186.67C897.96,-158.92 904.14,-97.78 871,-66 839.53,-35.82 556.67,-22.52 426.74,-17.96"/>
<polygon fill="#63b8ff" stroke="#63b8ff" points="426.65,-14.45 416.53,-17.61 426.4,-21.45 426.65,-14.45"/>
</a>
</g>
</g>
</g>
</svg>
