<?xml version="1.0" encoding="UTF-8" standalone="no"?>
<!DOCTYPE svg PUBLIC "-//W3C//DTD SVG 1.1//EN"
 "http://www.w3.org/Graphics/SVG/1.1/DTD/svg11.dtd">
<!-- Generated by graphviz version 2.43.0 (0)
 -->
<!-- Title: /home/runner/work/lethe/lethe/source/dem/find_cell_neighbors.cc Pages: 1 -->
<svg width="2180pt" height="357pt"
 viewBox="0.00 0.00 2179.50 357.00" xmlns="http://www.w3.org/2000/svg" xmlns:xlink="http://www.w3.org/1999/xlink">
<g id="graph0" class="graph" transform="scale(1 1) rotate(0) translate(4 353)">
<title>/home/runner/work/lethe/lethe/source/dem/find_cell_neighbors.cc</title>
<!-- Node1 -->
<g id="Node000001" class="node">
<title>Node1</title>
<g id="a_Node000001"><a xlink:title=" ">
<polygon fill="#999999" stroke="#666666" points="349.5,-349 212.5,-349 212.5,-308 349.5,-308 349.5,-349"/>
<text text-anchor="start" x="220.5" y="-337" font-family="Helvetica,sans-Serif" font-size="10.00">/home/runner/work/lethe</text>
<text text-anchor="start" x="220.5" y="-326" font-family="Helvetica,sans-Serif" font-size="10.00">/lethe/source/dem/find</text>
<text text-anchor="middle" x="281" y="-315" font-family="Helvetica,sans-Serif" font-size="10.00">_cell_neighbors.cc</text>
</a>
</g>
</g>
<!-- Node2 -->
<g id="Node000002" class="node">
<title>Node2</title>
<g id="a_Node000002"><a xlink:href="find__cell__neighbors_8h.html" target="_top" xlink:title=" ">
<polygon fill="white" stroke="#666666" points="276,-272 132,-272 132,-253 276,-253 276,-272"/>
<text text-anchor="middle" x="204" y="-260" font-family="Helvetica,sans-Serif" font-size="10.00">dem/find_cell_neighbors.h</text>
</a>
</g>
</g>
<!-- Node1&#45;&gt;Node2 -->
<g id="edge1_Node000001_Node000002" class="edge">
<title>Node1&#45;&gt;Node2</title>
<g id="a_edge1_Node000001_Node000002"><a xlink:title=" ">
<path fill="none" stroke="#63b8ff" d="M257.48,-307.95C246.17,-298.55 232.82,-287.46 222.29,-278.7"/>
<polygon fill="#63b8ff" stroke="#63b8ff" points="224.47,-275.96 214.54,-272.26 219.99,-281.34 224.47,-275.96"/>
</a>
</g>
</g>
<!-- Node29 -->
<g id="Node000029" class="node">
<title>Node29</title>
<g id="a_Node000029"><a xlink:title=" ">
<polygon fill="#e0e0e0" stroke="#999999" points="422,-272 294,-272 294,-253 422,-253 422,-272"/>
<text text-anchor="middle" x="358" y="-260" font-family="Helvetica,sans-Serif" font-size="10.00">deal.II/grid/grid_tools.h</text>
</a>
</g>
</g>
<!-- Node1&#45;&gt;Node29 -->
<g id="edge39_Node000001_Node000029" class="edge">
<title>Node1&#45;&gt;Node29</title>
<g id="a_edge39_Node000001_Node000029"><a xlink:title=" ">
<path fill="none" stroke="#63b8ff" d="M304.52,-307.95C315.83,-298.55 329.18,-287.46 339.71,-278.7"/>
<polygon fill="#63b8ff" stroke="#63b8ff" points="342.01,-281.34 347.46,-272.26 337.53,-275.96 342.01,-281.34"/>
</a>
</g>
</g>
<!-- Node3 -->
<g id="Node000003" class="node">
<title>Node3</title>
<g id="a_Node000003"><a xlink:href="data__containers_8h.html" target="_top" xlink:title=" ">
<polygon fill="white" stroke="#666666" points="509,-217 381,-217 381,-198 509,-198 509,-217"/>
<text text-anchor="middle" x="445" y="-205" font-family="Helvetica,sans-Serif" font-size="10.00">dem/data_containers.h</text>
</a>
</g>
</g>
<!-- Node2&#45;&gt;Node3 -->
<g id="edge2_Node000002_Node000003" class="edge">
<title>Node2&#45;&gt;Node3</title>
<g id="a_edge2_Node000002_Node000003"><a xlink:title=" ">
<path fill="none" stroke="#63b8ff" d="M242.72,-252.98C284.41,-243.82 350.82,-229.21 396.09,-219.26"/>
<polygon fill="#63b8ff" stroke="#63b8ff" points="396.96,-222.65 405.98,-217.08 395.46,-215.81 396.96,-222.65"/>
</a>
</g>
</g>
<!-- Node25 -->
<g id="Node000025" class="node">
<title>Node25</title>
<g id="a_Node000025"><a xlink:title=" ">
<polygon fill="#e0e0e0" stroke="#999999" points="102,-96 0,-96 0,-66 102,-66 102,-96"/>
<text text-anchor="start" x="8" y="-84" font-family="Helvetica,sans-Serif" font-size="10.00">deal.II/distributed</text>
<text text-anchor="middle" x="51" y="-73" font-family="Helvetica,sans-Serif" font-size="10.00">/tria.h</text>
</a>
</g>
</g>
<!-- Node2&#45;&gt;Node25 -->
<g id="edge38_Node000002_Node000025" class="edge">
<title>Node2&#45;&gt;Node25</title>
<g id="a_edge38_Node000002_Node000025"><a xlink:title=" ">
<path fill="none" stroke="#63b8ff" d="M176.44,-252.95C139.89,-239.94 76.87,-211.34 50,-162 40.79,-145.09 41.85,-123.03 44.76,-106.36"/>
<polygon fill="#63b8ff" stroke="#63b8ff" points="48.24,-106.8 46.84,-96.3 41.39,-105.38 48.24,-106.8"/>
</a>
</g>
</g>
<!-- Node4 -->
<g id="Node000004" class="node">
<title>Node4</title>
<g id="a_Node000004"><a xlink:href="utilities_8h.html" target="_top" xlink:title=" ">
<polygon fill="white" stroke="#666666" points="1225,-156.5 1139,-156.5 1139,-137.5 1225,-137.5 1225,-156.5"/>
<text text-anchor="middle" x="1182" y="-144.5" font-family="Helvetica,sans-Serif" font-size="10.00">core/utilities.h</text>
</a>
</g>
</g>
<!-- Node3&#45;&gt;Node4 -->
<g id="edge3_Node000003_Node000004" class="edge">
<title>Node3&#45;&gt;Node4</title>
<g id="a_edge3_Node000003_Node000004"><a xlink:title=" ">
<path fill="none" stroke="#63b8ff" d="M509.11,-201.41C652.32,-190.04 996.01,-162.76 1128.58,-152.24"/>
<polygon fill="#63b8ff" stroke="#63b8ff" points="1129.19,-155.7 1138.88,-151.42 1128.63,-148.73 1129.19,-155.7"/>
</a>
</g>
</g>
<!-- Node11 -->
<g id="Node000011" class="node">
<title>Node11</title>
<g id="a_Node000011"><a xlink:title=" ">
<polygon fill="#e0e0e0" stroke="#999999" points="379.5,-90.5 264.5,-90.5 264.5,-71.5 379.5,-71.5 379.5,-90.5"/>
<text text-anchor="middle" x="322" y="-78.5" font-family="Helvetica,sans-Serif" font-size="10.00">deal.II/base/tensor.h</text>
</a>
</g>
</g>
<!-- Node3&#45;&gt;Node11 -->
<g id="edge32_Node000003_Node000011" class="edge">
<title>Node3&#45;&gt;Node11</title>
<g id="a_edge32_Node000003_Node000011"><a xlink:title=" ">
<path fill="none" stroke="#63b8ff" d="M454.12,-197.56C468.01,-182.86 491.32,-153.08 476,-132 469.24,-122.69 408.12,-104.83 364.95,-93.17"/>
<polygon fill="#63b8ff" stroke="#63b8ff" points="365.79,-89.77 355.22,-90.57 363.98,-96.54 365.79,-89.77"/>
</a>
</g>
</g>
<!-- Node14 -->
<g id="Node000014" class="node">
<title>Node14</title>
<g id="a_Node000014"><a xlink:title=" ">
<polygon fill="#e0e0e0" stroke="#999999" points="657.5,-96 526.5,-96 526.5,-66 657.5,-66 657.5,-96"/>
<text text-anchor="start" x="534.5" y="-84" font-family="Helvetica,sans-Serif" font-size="10.00">deal.II/particles/particle</text>
<text text-anchor="middle" x="592" y="-73" font-family="Helvetica,sans-Serif" font-size="10.00">_iterator.h</text>
</a>
</g>
</g>
<!-- Node3&#45;&gt;Node14 -->
<g id="edge34_Node000003_Node000014" class="edge">
<title>Node3&#45;&gt;Node14</title>
<g id="a_edge34_Node000003_Node000014"><a xlink:title=" ">
<path fill="none" stroke="#63b8ff" d="M509.15,-200.59C560.12,-194.41 625.5,-182.64 642,-162 657.03,-143.19 638.31,-119.61 619.65,-102.93"/>
<polygon fill="#63b8ff" stroke="#63b8ff" points="621.65,-100.03 611.75,-96.24 617.12,-105.38 621.65,-100.03"/>
</a>
</g>
</g>
<!-- Node23 -->
<g id="Node000023" class="node">
<title>Node23</title>
<g id="a_Node000023"><a xlink:title=" ">
<polygon fill="#e0e0e0" stroke="#999999" points="722.5,-90.5 675.5,-90.5 675.5,-71.5 722.5,-71.5 722.5,-90.5"/>
<text text-anchor="middle" x="699" y="-78.5" font-family="Helvetica,sans-Serif" font-size="10.00">vector</text>
</a>
</g>
</g>
<!-- Node3&#45;&gt;Node23 -->
<g id="edge36_Node000003_Node000023" class="edge">
<title>Node3&#45;&gt;Node23</title>
<g id="a_edge36_Node000003_Node000023"><a xlink:title=" ">
<path fill="none" stroke="#63b8ff" d="M509.01,-199.27C562.96,-192.08 634.95,-179.58 658,-162 678.03,-146.72 689.1,-118.91 694.55,-100.44"/>
<polygon fill="#63b8ff" stroke="#63b8ff" points="697.98,-101.14 697.19,-90.57 691.22,-99.33 697.98,-101.14"/>
</a>
</g>
</g>
<!-- Node24 -->
<g id="Node000024" class="node">
<title>Node24</title>
<g id="a_Node000024"><a xlink:href="boundary__cells__info__struct_8h.html" target="_top" xlink:title=" ">
<polygon fill="white" stroke="#666666" points="194.5,-162 79.5,-162 79.5,-132 194.5,-132 194.5,-162"/>
<text text-anchor="start" x="87.5" y="-150" font-family="Helvetica,sans-Serif" font-size="10.00">dem/boundary_cells</text>
<text text-anchor="middle" x="137" y="-139" font-family="Helvetica,sans-Serif" font-size="10.00">_info_struct.h</text>
</a>
</g>
</g>
<!-- Node3&#45;&gt;Node24 -->
<g id="edge24_Node000003_Node000024" class="edge">
<title>Node3&#45;&gt;Node24</title>
<g id="a_edge24_Node000003_Node000024"><a xlink:title=" ">
<path fill="none" stroke="#63b8ff" d="M396.93,-197.96C350.42,-189.63 277.69,-176.4 204.98,-162.17"/>
<polygon fill="#63b8ff" stroke="#63b8ff" points="205.21,-158.64 194.73,-160.15 203.86,-165.51 205.21,-158.64"/>
</a>
</g>
</g>
<!-- Node3&#45;&gt;Node25 -->
<g id="edge33_Node000003_Node000025" class="edge">
<title>Node3&#45;&gt;Node25</title>
<g id="a_edge33_Node000003_Node000025"><a xlink:title=" ">
<path fill="none" stroke="#63b8ff" d="M380.67,-207.44C285.76,-207.45 114.6,-201.75 70,-162 54.57,-148.25 50.52,-124.47 49.91,-106.4"/>
<polygon fill="#63b8ff" stroke="#63b8ff" points="53.41,-106.27 49.89,-96.28 46.41,-106.28 53.41,-106.27"/>
</a>
</g>
</g>
<!-- Node26 -->
<g id="Node000026" class="node">
<title>Node26</title>
<g id="a_Node000026"><a xlink:href="contact__info_8h.html" target="_top" xlink:title=" ">
<polygon fill="white" stroke="#666666" points="633,-156.5 523,-156.5 523,-137.5 633,-137.5 633,-156.5"/>
<text text-anchor="middle" x="578" y="-144.5" font-family="Helvetica,sans-Serif" font-size="10.00">dem/contact_info.h</text>
</a>
</g>
</g>
<!-- Node3&#45;&gt;Node26 -->
<g id="edge28_Node000003_Node000026" class="edge">
<title>Node3&#45;&gt;Node26</title>
<g id="a_edge28_Node000003_Node000026"><a xlink:title=" ">
<path fill="none" stroke="#63b8ff" d="M464.34,-197.99C486.7,-188.16 523.71,-171.88 549.4,-160.58"/>
<polygon fill="#63b8ff" stroke="#63b8ff" points="550.89,-163.75 558.64,-156.52 548.07,-157.34 550.89,-163.75"/>
</a>
</g>
</g>
<!-- Node27 -->
<g id="Node000027" class="node">
<title>Node27</title>
<g id="a_Node000027"><a xlink:title=" ">
<polygon fill="#e0e0e0" stroke="#999999" points="305.5,-156.5 212.5,-156.5 212.5,-137.5 305.5,-137.5 305.5,-156.5"/>
<text text-anchor="middle" x="259" y="-144.5" font-family="Helvetica,sans-Serif" font-size="10.00">unordered_map</text>
</a>
</g>
</g>
<!-- Node3&#45;&gt;Node27 -->
<g id="edge35_Node000003_Node000027" class="edge">
<title>Node3&#45;&gt;Node27</title>
<g id="a_edge35_Node000003_Node000027"><a xlink:title=" ">
<path fill="none" stroke="#63b8ff" d="M417.95,-197.99C385.72,-187.86 331.71,-170.87 295.72,-159.55"/>
<polygon fill="#63b8ff" stroke="#63b8ff" points="296.67,-156.18 286.08,-156.52 294.57,-162.86 296.67,-156.18"/>
</a>
</g>
</g>
<!-- Node28 -->
<g id="Node000028" class="node">
<title>Node28</title>
<g id="a_Node000028"><a xlink:href="unordered__dense_8h.html" target="_top" xlink:title=" ">
<polygon fill="white" stroke="#666666" points="466.5,-156.5 323.5,-156.5 323.5,-137.5 466.5,-137.5 466.5,-156.5"/>
<text text-anchor="middle" x="395" y="-144.5" font-family="Helvetica,sans-Serif" font-size="10.00">ankerl/unordered_dense.h</text>
</a>
</g>
</g>
<!-- Node3&#45;&gt;Node28 -->
<g id="edge37_Node000003_Node000028" class="edge">
<title>Node3&#45;&gt;Node28</title>
<g id="a_edge37_Node000003_Node000028"><a xlink:title=" ">
<path fill="none" stroke="#63b8ff" d="M437.62,-197.87C430.09,-189.05 418.21,-175.16 408.91,-164.27"/>
<polygon fill="#63b8ff" stroke="#63b8ff" points="411.57,-162 402.41,-156.67 406.24,-166.54 411.57,-162"/>
</a>
</g>
</g>
<!-- Node5 -->
<g id="Node000005" class="node">
<title>Node5</title>
<g id="a_Node000005"><a xlink:href="output__struct_8h.html" target="_top" xlink:title=" ">
<polygon fill="white" stroke="#666666" points="1582,-90.5 1468,-90.5 1468,-71.5 1582,-71.5 1582,-90.5"/>
<text text-anchor="middle" x="1525" y="-78.5" font-family="Helvetica,sans-Serif" font-size="10.00">core/output_struct.h</text>
</a>
</g>
</g>
<!-- Node4&#45;&gt;Node5 -->
<g id="edge4_Node000004_Node000005" class="edge">
<title>Node4&#45;&gt;Node5</title>
<g id="a_edge4_Node000004_Node000005"><a xlink:title=" ">
<path fill="none" stroke="#63b8ff" d="M1225.26,-138.61C1279.83,-129.19 1376.52,-112.19 1459,-96 1464.39,-94.94 1470.02,-93.8 1475.61,-92.65"/>
<polygon fill="#63b8ff" stroke="#63b8ff" points="1476.53,-96.03 1485.6,-90.56 1475.1,-89.18 1476.53,-96.03"/>
</a>
</g>
</g>
<!-- Node6 -->
<g id="Node000006" class="node">
<title>Node6</title>
<g id="a_Node000006"><a xlink:title=" ">
<polygon fill="#e0e0e0" stroke="#999999" points="1124.5,-30 1023.5,-30 1023.5,0 1124.5,0 1124.5,-30"/>
<text text-anchor="start" x="1031.5" y="-18" font-family="Helvetica,sans-Serif" font-size="10.00">deal.II/base/table</text>
<text text-anchor="middle" x="1074" y="-7" font-family="Helvetica,sans-Serif" font-size="10.00">_handler.h</text>
</a>
</g>
</g>
<!-- Node4&#45;&gt;Node6 -->
<g id="edge10_Node000004_Node000006" class="edge">
<title>Node4&#45;&gt;Node6</title>
<g id="a_edge10_Node000004_Node000006"><a xlink:title=" ">
<path fill="none" stroke="#63b8ff" d="M1138.81,-143.93C1038.25,-138.67 795.13,-123.24 771,-96 762.16,-86.02 762.37,-76.17 771,-66 801.41,-30.16 933.69,-19.97 1013.07,-17.1"/>
<polygon fill="#63b8ff" stroke="#63b8ff" points="1013.55,-20.59 1023.43,-16.76 1013.32,-13.59 1013.55,-20.59"/>
</a>
</g>
</g>
<!-- Node8 -->
<g id="Node000008" class="node">
<title>Node8</title>
<g id="a_Node000008"><a xlink:title=" ">
<polygon fill="#e0e0e0" stroke="#999999" points="1730,-96 1600,-96 1600,-66 1730,-66 1730,-96"/>
<text text-anchor="start" x="1608" y="-84" font-family="Helvetica,sans-Serif" font-size="10.00">deal.II/base/conditional</text>
<text text-anchor="middle" x="1665" y="-73" font-family="Helvetica,sans-Serif" font-size="10.00">_ostream.h</text>
</a>
</g>
</g>
<!-- Node4&#45;&gt;Node8 -->
<g id="edge7_Node000004_Node000008" class="edge">
<title>Node4&#45;&gt;Node8</title>
<g id="a_edge7_Node000004_Node000008"><a xlink:title=" ">
<path fill="none" stroke="#63b8ff" d="M1225.11,-141.67C1298.08,-134.13 1450.74,-117.48 1589.69,-96.14"/>
<polygon fill="#63b8ff" stroke="#63b8ff" points="1590.32,-99.59 1599.67,-94.6 1589.25,-92.67 1590.32,-99.59"/>
</a>
</g>
</g>
<!-- Node9 -->
<g id="Node000009" class="node">
<title>Node9</title>
<g id="a_Node000009"><a xlink:title=" ">
<polygon fill="#e0e0e0" stroke="#999999" points="1875.5,-96 1748.5,-96 1748.5,-66 1875.5,-66 1875.5,-96"/>
<text text-anchor="start" x="1756.5" y="-84" font-family="Helvetica,sans-Serif" font-size="10.00">deal.II/base/parameter</text>
<text text-anchor="middle" x="1812" y="-73" font-family="Helvetica,sans-Serif" font-size="10.00">_handler.h</text>
</a>
</g>
</g>
<!-- Node4&#45;&gt;Node9 -->
<g id="edge8_Node000004_Node000009" class="edge">
<title>Node4&#45;&gt;Node9</title>
<g id="a_edge8_Node000004_Node000009"><a xlink:title=" ">
<path fill="none" stroke="#63b8ff" d="M1225.15,-143.6C1317.4,-138.15 1540.81,-123.27 1738.38,-95.99"/>
<polygon fill="#63b8ff" stroke="#63b8ff" points="1738.94,-99.44 1748.36,-94.59 1737.97,-92.51 1738.94,-99.44"/>
</a>
</g>
</g>
<!-- Node10 -->
<g id="Node000010" class="node">
<title>Node10</title>
<g id="a_Node000010"><a xlink:title=" ">
<polygon fill="#e0e0e0" stroke="#999999" points="508,-90.5 398,-90.5 398,-71.5 508,-71.5 508,-90.5"/>
<text text-anchor="middle" x="453" y="-78.5" font-family="Helvetica,sans-Serif" font-size="10.00">deal.II/base/point.h</text>
</a>
</g>
</g>
<!-- Node4&#45;&gt;Node10 -->
<g id="edge9_Node000004_Node000010" class="edge">
<title>Node4&#45;&gt;Node10</title>
<g id="a_edge9_Node000004_Node000010"><a xlink:title=" ">
<path fill="none" stroke="#63b8ff" d="M1138.66,-144.79C1032.39,-141.38 750.55,-129.64 518,-96 511.63,-95.08 504.95,-93.89 498.39,-92.6"/>
<polygon fill="#63b8ff" stroke="#63b8ff" points="498.76,-89.11 488.26,-90.51 497.35,-95.96 498.76,-89.11"/>
</a>
</g>
</g>
<!-- Node4&#45;&gt;Node11 -->
<g id="edge11_Node000004_Node000011" class="edge">
<title>Node4&#45;&gt;Node11</title>
<g id="a_edge11_Node000004_Node000011"><a xlink:title=" ">
<path fill="none" stroke="#63b8ff" d="M1138.81,-145.44C1019.13,-143.43 673.34,-134.47 389,-96 382.2,-95.08 375.05,-93.86 368.06,-92.53"/>
<polygon fill="#63b8ff" stroke="#63b8ff" points="368.49,-89.04 358,-90.51 367.12,-95.91 368.49,-89.04"/>
</a>
</g>
</g>
<!-- Node12 -->
<g id="Node000012" class="node">
<title>Node12</title>
<g id="a_Node000012"><a xlink:title=" ">
<polygon fill="#e0e0e0" stroke="#999999" points="2034,-90.5 1894,-90.5 1894,-71.5 2034,-71.5 2034,-90.5"/>
<text text-anchor="middle" x="1964" y="-78.5" font-family="Helvetica,sans-Serif" font-size="10.00">deal.II/dofs/dof_handler.h</text>
</a>
</g>
</g>
<!-- Node4&#45;&gt;Node12 -->
<g id="edge12_Node000004_Node000012" class="edge">
<title>Node4&#45;&gt;Node12</title>
<g id="a_edge12_Node000004_Node000012"><a xlink:title=" ">
<path fill="none" stroke="#63b8ff" d="M1225.35,-144.49C1335.75,-140.31 1636.37,-126.79 1885,-96 1893.35,-94.97 1902.15,-93.64 1910.73,-92.22"/>
<polygon fill="#63b8ff" stroke="#63b8ff" points="1911.39,-95.66 1920.66,-90.52 1910.21,-88.76 1911.39,-95.66"/>
</a>
</g>
</g>
<!-- Node13 -->
<g id="Node000013" class="node">
<title>Node13</title>
<g id="a_Node000013"><a xlink:title=" ">
<polygon fill="#e0e0e0" stroke="#999999" points="2171.5,-90.5 2052.5,-90.5 2052.5,-71.5 2171.5,-71.5 2171.5,-90.5"/>
<text text-anchor="middle" x="2112" y="-78.5" font-family="Helvetica,sans-Serif" font-size="10.00">deal.II/fe/fe_values.h</text>
</a>
</g>
</g>
<!-- Node4&#45;&gt;Node13 -->
<g id="edge13_Node000004_Node000013" class="edge">
<title>Node4&#45;&gt;Node13</title>
<g id="a_edge13_Node000004_Node000013"><a xlink:title=" ">
<path fill="none" stroke="#63b8ff" d="M1225.2,-145.66C1351.56,-144.19 1731.18,-136.48 2043,-96 2050.17,-95.07 2057.7,-93.82 2065.06,-92.45"/>
<polygon fill="#63b8ff" stroke="#63b8ff" points="2065.77,-95.88 2074.92,-90.53 2064.43,-89.01 2065.77,-95.88"/>
</a>
</g>
</g>
<!-- Node4&#45;&gt;Node14 -->
<g id="edge14_Node000004_Node000014" class="edge">
<title>Node4&#45;&gt;Node14</title>
<g id="a_edge14_Node000004_Node000014"><a xlink:title=" ">
<path fill="none" stroke="#63b8ff" d="M1138.78,-143.09C1051.67,-136.95 848.62,-121.23 667.76,-96.02"/>
<polygon fill="#63b8ff" stroke="#63b8ff" points="668.19,-92.55 657.8,-94.62 667.21,-99.48 668.19,-92.55"/>
</a>
</g>
</g>
<!-- Node15 -->
<g id="Node000015" class="node">
<title>Node15</title>
<g id="a_Node000015"><a xlink:title=" ">
<polygon fill="#e0e0e0" stroke="#999999" points="884.5,-96 779.5,-96 779.5,-66 884.5,-66 884.5,-96"/>
<text text-anchor="start" x="787.5" y="-84" font-family="Helvetica,sans-Serif" font-size="10.00">boost/archive/text</text>
<text text-anchor="middle" x="832" y="-73" font-family="Helvetica,sans-Serif" font-size="10.00">_iarchive.hpp</text>
</a>
</g>
</g>
<!-- Node4&#45;&gt;Node15 -->
<g id="edge15_Node000004_Node000015" class="edge">
<title>Node4&#45;&gt;Node15</title>
<g id="a_edge15_Node000004_Node000015"><a xlink:title=" ">
<path fill="none" stroke="#63b8ff" d="M1138.94,-139.22C1084.45,-130.48 987.51,-114.43 894.58,-96.05"/>
<polygon fill="#63b8ff" stroke="#63b8ff" points="895.22,-92.61 884.73,-94.1 893.85,-99.48 895.22,-92.61"/>
</a>
</g>
</g>
<!-- Node16 -->
<g id="Node000016" class="node">
<title>Node16</title>
<g id="a_Node000016"><a xlink:title=" ">
<polygon fill="#e0e0e0" stroke="#999999" points="1007.5,-96 902.5,-96 902.5,-66 1007.5,-66 1007.5,-96"/>
<text text-anchor="start" x="910.5" y="-84" font-family="Helvetica,sans-Serif" font-size="10.00">boost/archive/text</text>
<text text-anchor="middle" x="955" y="-73" font-family="Helvetica,sans-Serif" font-size="10.00">_oarchive.hpp</text>
</a>
</g>
</g>
<!-- Node4&#45;&gt;Node16 -->
<g id="edge16_Node000004_Node000016" class="edge">
<title>Node4&#45;&gt;Node16</title>
<g id="a_edge16_Node000004_Node000016"><a xlink:title=" ">
<path fill="none" stroke="#63b8ff" d="M1151.39,-137.37C1116.51,-127.54 1058.67,-111.23 1014.77,-98.85"/>
<polygon fill="#63b8ff" stroke="#63b8ff" points="1015.64,-95.46 1005.07,-96.12 1013.74,-102.2 1015.64,-95.46"/>
</a>
</g>
</g>
<!-- Node17 -->
<g id="Node000017" class="node">
<title>Node17</title>
<g id="a_Node000017"><a xlink:title=" ">
<polygon fill="#e0e0e0" stroke="#999999" points="1136,-96 1026,-96 1026,-66 1136,-66 1136,-96"/>
<text text-anchor="start" x="1034" y="-84" font-family="Helvetica,sans-Serif" font-size="10.00">boost/math/special</text>
<text text-anchor="middle" x="1081" y="-73" font-family="Helvetica,sans-Serif" font-size="10.00">_functions/erf.hpp</text>
</a>
</g>
</g>
<!-- Node4&#45;&gt;Node17 -->
<g id="edge17_Node000004_Node000017" class="edge">
<title>Node4&#45;&gt;Node17</title>
<g id="a_edge17_Node000004_Node000017"><a xlink:title=" ">
<path fill="none" stroke="#63b8ff" d="M1168.38,-137.37C1153.97,-128.24 1130.75,-113.53 1111.87,-101.56"/>
<polygon fill="#63b8ff" stroke="#63b8ff" points="1113.6,-98.51 1103.28,-96.12 1109.85,-104.42 1113.6,-98.51"/>
</a>
</g>
</g>
<!-- Node18 -->
<g id="Node000018" class="node">
<title>Node18</title>
<g id="a_Node000018"><a xlink:title=" ">
<polygon fill="#e0e0e0" stroke="#999999" points="1209.5,-90.5 1154.5,-90.5 1154.5,-71.5 1209.5,-71.5 1209.5,-90.5"/>
<text text-anchor="middle" x="1182" y="-78.5" font-family="Helvetica,sans-Serif" font-size="10.00">fstream</text>
</a>
</g>
</g>
<!-- Node4&#45;&gt;Node18 -->
<g id="edge18_Node000004_Node000018" class="edge">
<title>Node4&#45;&gt;Node18</title>
<g id="a_edge18_Node000004_Node000018"><a xlink:title=" ">
<path fill="none" stroke="#63b8ff" d="M1182,-137.37C1182,-128.16 1182,-113.29 1182,-101.27"/>
<polygon fill="#63b8ff" stroke="#63b8ff" points="1185.5,-100.91 1182,-90.91 1178.5,-100.91 1185.5,-100.91"/>
</a>
</g>
</g>
<!-- Node19 -->
<g id="Node000019" class="node">
<title>Node19</title>
<g id="a_Node000019"><a xlink:title=" ">
<polygon fill="#e0e0e0" stroke="#999999" points="1266,-90.5 1228,-90.5 1228,-71.5 1266,-71.5 1266,-90.5"/>
<text text-anchor="middle" x="1247" y="-78.5" font-family="Helvetica,sans-Serif" font-size="10.00">map</text>
</a>
</g>
</g>
<!-- Node4&#45;&gt;Node19 -->
<g id="edge19_Node000004_Node000019" class="edge">
<title>Node4&#45;&gt;Node19</title>
<g id="a_edge19_Node000004_Node000019"><a xlink:title=" ">
<path fill="none" stroke="#63b8ff" d="M1190.77,-137.37C1200.98,-127.31 1218.08,-110.48 1230.74,-98.01"/>
<polygon fill="#63b8ff" stroke="#63b8ff" points="1233.29,-100.42 1237.96,-90.91 1228.37,-95.43 1233.29,-100.42"/>
</a>
</g>
</g>
<!-- Node20 -->
<g id="Node000020" class="node">
<title>Node20</title>
<g id="a_Node000020"><a xlink:title=" ">
<polygon fill="#e0e0e0" stroke="#999999" points="1328,-90.5 1284,-90.5 1284,-71.5 1328,-71.5 1328,-90.5"/>
<text text-anchor="middle" x="1306" y="-78.5" font-family="Helvetica,sans-Serif" font-size="10.00">regex</text>
</a>
</g>
</g>
<!-- Node4&#45;&gt;Node20 -->
<g id="edge20_Node000004_Node000020" class="edge">
<title>Node4&#45;&gt;Node20</title>
<g id="a_edge20_Node000004_Node000020"><a xlink:title=" ">
<path fill="none" stroke="#63b8ff" d="M1198.72,-137.37C1219.62,-126.59 1255.59,-108.02 1280.07,-95.38"/>
<polygon fill="#63b8ff" stroke="#63b8ff" points="1281.86,-98.4 1289.15,-90.7 1278.65,-92.18 1281.86,-98.4"/>
</a>
</g>
</g>
<!-- Node21 -->
<g id="Node000021" class="node">
<title>Node21</title>
<g id="a_Node000021"><a xlink:title=" ">
<polygon fill="#e0e0e0" stroke="#999999" points="1390,-90.5 1346,-90.5 1346,-71.5 1390,-71.5 1390,-90.5"/>
<text text-anchor="middle" x="1368" y="-78.5" font-family="Helvetica,sans-Serif" font-size="10.00">string</text>
</a>
</g>
</g>
<!-- Node4&#45;&gt;Node21 -->
<g id="edge21_Node000004_Node000021" class="edge">
<title>Node4&#45;&gt;Node21</title>
<g id="a_edge21_Node000004_Node000021"><a xlink:title=" ">
<path fill="none" stroke="#63b8ff" d="M1211.77,-137.48C1243.23,-128.22 1294.13,-112.53 1337,-96 1338.18,-95.55 1339.37,-95.07 1340.58,-94.58"/>
<polygon fill="#63b8ff" stroke="#63b8ff" points="1341.97,-97.79 1349.78,-90.64 1339.21,-91.36 1341.97,-97.79"/>
</a>
</g>
</g>
<!-- Node22 -->
<g id="Node000022" class="node">
<title>Node22</title>
<g id="a_Node000022"><a xlink:title=" ">
<polygon fill="#e0e0e0" stroke="#999999" points="1449.5,-90.5 1408.5,-90.5 1408.5,-71.5 1449.5,-71.5 1449.5,-90.5"/>
<text text-anchor="middle" x="1429" y="-78.5" font-family="Helvetica,sans-Serif" font-size="10.00">tuple</text>
</a>
</g>
</g>
<!-- Node4&#45;&gt;Node22 -->
<g id="edge22_Node000004_Node000022" class="edge">
<title>Node4&#45;&gt;Node22</title>
<g id="a_edge22_Node000004_Node000022"><a xlink:title=" ">
<path fill="none" stroke="#63b8ff" d="M1225.16,-138.82C1269.49,-130.81 1340.15,-116.26 1399,-96 1400.22,-95.58 1401.46,-95.12 1402.71,-94.64"/>
<polygon fill="#63b8ff" stroke="#63b8ff" points="1404.3,-97.77 1412.12,-90.63 1401.55,-91.33 1404.3,-97.77"/>
</a>
</g>
</g>
<!-- Node4&#45;&gt;Node23 -->
<g id="edge23_Node000004_Node000023" class="edge">
<title>Node4&#45;&gt;Node23</title>
<g id="a_edge23_Node000004_Node000023"><a xlink:title=" ">
<path fill="none" stroke="#63b8ff" d="M1138.76,-144.6C1058.55,-141.23 881.69,-130.25 737,-96 734.49,-95.4 731.91,-94.69 729.34,-93.91"/>
<polygon fill="#63b8ff" stroke="#63b8ff" points="730.22,-90.51 719.63,-90.62 727.98,-97.14 730.22,-90.51"/>
</a>
</g>
</g>
<!-- Node5&#45;&gt;Node6 -->
<g id="edge5_Node000005_Node000006" class="edge">
<title>Node5&#45;&gt;Node6</title>
<g id="a_edge5_Node000005_Node000006"><a xlink:title=" ">
<path fill="none" stroke="#63b8ff" d="M1487.41,-71.48C1478.15,-69.54 1468.24,-67.58 1459,-66 1345.1,-46.56 1211.09,-30.73 1134.99,-22.4"/>
<polygon fill="#63b8ff" stroke="#63b8ff" points="1134.96,-18.87 1124.64,-21.27 1134.21,-25.83 1134.96,-18.87"/>
</a>
</g>
</g>
<!-- Node7 -->
<g id="Node000007" class="node">
<title>Node7</title>
<g id="a_Node000007"><a xlink:title=" ">
<polygon fill="#e0e0e0" stroke="#999999" points="1584.5,-30 1465.5,-30 1465.5,0 1584.5,0 1584.5,-30"/>
<text text-anchor="start" x="1473.5" y="-18" font-family="Helvetica,sans-Serif" font-size="10.00">deal.II/numerics/data</text>
<text text-anchor="middle" x="1525" y="-7" font-family="Helvetica,sans-Serif" font-size="10.00">_postprocessor.h</text>
</a>
</g>
</g>
<!-- Node5&#45;&gt;Node7 -->
<g id="edge6_Node000005_Node000007" class="edge">
<title>Node5&#45;&gt;Node7</title>
<g id="a_edge6_Node000005_Node000007"><a xlink:title=" ">
<path fill="none" stroke="#63b8ff" d="M1525,-71.37C1525,-63.49 1525,-51.45 1525,-40.6"/>
<polygon fill="#63b8ff" stroke="#63b8ff" points="1528.5,-40.36 1525,-30.36 1521.5,-40.36 1528.5,-40.36"/>
</a>
</g>
</g>
<!-- Node24&#45;&gt;Node10 -->
<g id="edge25_Node000024_Node000010" class="edge">
<title>Node24&#45;&gt;Node10</title>
<g id="a_edge25_Node000024_Node000010"><a xlink:title=" ">
<path fill="none" stroke="#63b8ff" d="M194.73,-133.88C197.87,-133.24 200.97,-132.61 204,-132 286.11,-115.43 306.97,-112.95 389,-96 394.09,-94.95 399.4,-93.83 404.7,-92.69"/>
<polygon fill="#63b8ff" stroke="#63b8ff" points="405.75,-96.04 414.79,-90.51 404.28,-89.2 405.75,-96.04"/>
</a>
</g>
</g>
<!-- Node24&#45;&gt;Node11 -->
<g id="edge26_Node000024_Node000011" class="edge">
<title>Node24&#45;&gt;Node11</title>
<g id="a_edge26_Node000024_Node000011"><a xlink:title=" ">
<path fill="none" stroke="#63b8ff" d="M177.6,-131.95C210.61,-120.53 256.67,-104.6 287.82,-93.82"/>
<polygon fill="#63b8ff" stroke="#63b8ff" points="289.07,-97.09 297.38,-90.52 286.78,-90.48 289.07,-97.09"/>
</a>
</g>
</g>
<!-- Node24&#45;&gt;Node25 -->
<g id="edge27_Node000024_Node000025" class="edge">
<title>Node24&#45;&gt;Node25</title>
<g id="a_edge27_Node000024_Node000025"><a xlink:title=" ">
<path fill="none" stroke="#63b8ff" d="M117.91,-131.8C106.22,-123.1 91.07,-111.82 78.15,-102.2"/>
<polygon fill="#63b8ff" stroke="#63b8ff" points="80.14,-99.33 70.03,-96.16 75.97,-104.94 80.14,-99.33"/>
</a>
</g>
</g>
<!-- Node26&#45;&gt;Node10 -->
<g id="edge29_Node000026_Node000010" class="edge">
<title>Node26&#45;&gt;Node10</title>
<g id="a_edge29_Node000026_Node000010"><a xlink:title=" ">
<path fill="none" stroke="#63b8ff" d="M561.14,-137.37C540.08,-126.59 503.82,-108.02 479.14,-95.38"/>
<polygon fill="#63b8ff" stroke="#63b8ff" points="480.49,-92.14 469.99,-90.7 477.3,-98.37 480.49,-92.14"/>
</a>
</g>
</g>
<!-- Node26&#45;&gt;Node11 -->
<g id="edge30_Node000026_Node000011" class="edge">
<title>Node26&#45;&gt;Node11</title>
<g id="a_edge30_Node000026_Node000011"><a xlink:title=" ">
<path fill="none" stroke="#63b8ff" d="M543.74,-137.44C497.85,-125.96 416.39,-105.6 366.01,-93"/>
<polygon fill="#63b8ff" stroke="#63b8ff" points="366.61,-89.54 356.06,-90.51 364.91,-96.34 366.61,-89.54"/>
</a>
</g>
</g>
<!-- Node26&#45;&gt;Node14 -->
<g id="edge31_Node000026_Node000014" class="edge">
<title>Node26&#45;&gt;Node14</title>
<g id="a_edge31_Node000026_Node000014"><a xlink:title=" ">
<path fill="none" stroke="#63b8ff" d="M579.89,-137.37C581.63,-129.4 584.3,-117.2 586.69,-106.27"/>
<polygon fill="#63b8ff" stroke="#63b8ff" points="590.14,-106.88 588.86,-96.36 583.3,-105.38 590.14,-106.88"/>
</a>
</g>
</g>
</g>
</svg>
