<?xml version="1.0" encoding="UTF-8" standalone="no"?>
<!DOCTYPE svg PUBLIC "-//W3C//DTD SVG 1.1//EN"
 "http://www.w3.org/Graphics/SVG/1.1/DTD/svg11.dtd">
<!-- Generated by graphviz version 2.43.0 (0)
 -->
<!-- Title: /home/runner/work/lethe/lethe/include/solvers/flow_control.h Pages: 1 -->
<svg width="2181pt" height="434pt"
 viewBox="0.00 0.00 2180.65 434.00" xmlns="http://www.w3.org/2000/svg" xmlns:xlink="http://www.w3.org/1999/xlink">
<g id="graph0" class="graph" transform="scale(1 1) rotate(0) translate(4 430)">
<title>/home/runner/work/lethe/lethe/include/solvers/flow_control.h</title>
<!-- Node1 -->
<g id="Node000001" class="node">
<title>Node1</title>
<g id="a_Node000001"><a xlink:title=" ">
<polygon fill="#999999" stroke="#666666" points="1863.65,-426 1726.65,-426 1726.65,-385 1863.65,-385 1863.65,-426"/>
<text text-anchor="start" x="1734.65" y="-414" font-family="Helvetica,sans-Serif" font-size="10.00">/home/runner/work/lethe</text>
<text text-anchor="start" x="1734.65" y="-403" font-family="Helvetica,sans-Serif" font-size="10.00">/lethe/include/solvers</text>
<text text-anchor="middle" x="1795.15" y="-392" font-family="Helvetica,sans-Serif" font-size="10.00">/flow_control.h</text>
</a>
</g>
</g>
<!-- Node2 -->
<g id="Node000002" class="node">
<title>Node2</title>
<g id="a_Node000002"><a xlink:href="parameters_8h.html" target="_top" xlink:title=" ">
<polygon fill="white" stroke="#666666" points="1715.15,-349 1609.15,-349 1609.15,-330 1715.15,-330 1715.15,-349"/>
<text text-anchor="middle" x="1662.15" y="-337" font-family="Helvetica,sans-Serif" font-size="10.00">core/parameters.h</text>
</a>
</g>
</g>
<!-- Node1&#45;&gt;Node2 -->
<g id="edge1_Node000001_Node000002" class="edge">
<title>Node1&#45;&gt;Node2</title>
<g id="a_edge1_Node000001_Node000002"><a xlink:title=" ">
<path fill="none" stroke="#63b8ff" d="M1754.52,-384.95C1733.32,-374.75 1707.95,-362.54 1689.17,-353.5"/>
<polygon fill="#63b8ff" stroke="#63b8ff" points="1690.53,-350.27 1680,-349.09 1687.5,-356.58 1690.53,-350.27"/>
</a>
</g>
</g>
<!-- Node12 -->
<g id="Node000012" class="node">
<title>Node12</title>
<g id="a_Node000012"><a xlink:title=" ">
<polygon fill="#e0e0e0" stroke="#999999" points="2027.65,-90.5 1912.65,-90.5 1912.65,-71.5 2027.65,-71.5 2027.65,-90.5"/>
<text text-anchor="middle" x="1970.15" y="-78.5" font-family="Helvetica,sans-Serif" font-size="10.00">deal.II/base/tensor.h</text>
</a>
</g>
</g>
<!-- Node1&#45;&gt;Node12 -->
<g id="edge49_Node000001_Node000012" class="edge">
<title>Node1&#45;&gt;Node12</title>
<g id="a_edge49_Node000001_Node000012"><a xlink:title=" ">
<path fill="none" stroke="#63b8ff" d="M1863.81,-385.63C1912.84,-367.5 1970.15,-334.62 1970.15,-280 1970.15,-280 1970.15,-280 1970.15,-212 1970.15,-172.45 1970.15,-126.13 1970.15,-100.84"/>
<polygon fill="#63b8ff" stroke="#63b8ff" points="1973.65,-100.52 1970.15,-90.52 1966.65,-100.52 1973.65,-100.52"/>
</a>
</g>
</g>
<!-- Node3 -->
<g id="Node000003" class="node">
<title>Node3</title>
<g id="a_Node000003"><a xlink:href="dimensionality_8h.html" target="_top" xlink:title=" ">
<polygon fill="white" stroke="#666666" points="2119.65,-222.5 1998.65,-222.5 1998.65,-203.5 2119.65,-203.5 2119.65,-222.5"/>
<text text-anchor="middle" x="2059.15" y="-210.5" font-family="Helvetica,sans-Serif" font-size="10.00">core/dimensionality.h</text>
</a>
</g>
</g>
<!-- Node2&#45;&gt;Node3 -->
<g id="edge2_Node000002_Node000003" class="edge">
<title>Node2&#45;&gt;Node3</title>
<g id="a_edge2_Node000002_Node000003"><a xlink:title=" ">
<path fill="none" stroke="#63b8ff" d="M1654.57,-329.55C1642.58,-314.29 1622.25,-283.03 1639.15,-264 1661.9,-238.38 1874.67,-223.54 1988.33,-217.38"/>
<polygon fill="#63b8ff" stroke="#63b8ff" points="1988.55,-220.88 1998.35,-216.85 1988.17,-213.89 1988.55,-220.88"/>
</a>
</g>
</g>
<!-- Node4 -->
<g id="Node000004" class="node">
<title>Node4</title>
<g id="a_Node000004"><a xlink:title=" ">
<polygon fill="#e0e0e0" stroke="#999999" points="2172.65,-96 2045.65,-96 2045.65,-66 2172.65,-66 2172.65,-96"/>
<text text-anchor="start" x="2053.65" y="-84" font-family="Helvetica,sans-Serif" font-size="10.00">deal.II/base/parameter</text>
<text text-anchor="middle" x="2109.15" y="-73" font-family="Helvetica,sans-Serif" font-size="10.00">_handler.h</text>
</a>
</g>
</g>
<!-- Node2&#45;&gt;Node4 -->
<g id="edge46_Node000002_Node000004" class="edge">
<title>Node2&#45;&gt;Node4</title>
<g id="a_edge46_Node000002_Node000004"><a xlink:title=" ">
<path fill="none" stroke="#63b8ff" d="M1715.52,-334.52C1827.8,-324.85 2081.98,-295.79 2129.15,-228 2154.73,-191.24 2135.97,-136.48 2121.56,-105.53"/>
<polygon fill="#63b8ff" stroke="#63b8ff" points="2124.62,-103.83 2117.09,-96.37 2118.33,-106.9 2124.62,-103.83"/>
</a>
</g>
</g>
<!-- Node5 -->
<g id="Node000005" class="node">
<title>Node5</title>
<g id="a_Node000005"><a xlink:href="ib__particle_8h.html" target="_top" xlink:title=" ">
<polygon fill="white" stroke="#666666" points="1238.65,-288.5 1137.65,-288.5 1137.65,-269.5 1238.65,-269.5 1238.65,-288.5"/>
<text text-anchor="middle" x="1188.15" y="-276.5" font-family="Helvetica,sans-Serif" font-size="10.00">core/ib_particle.h</text>
</a>
</g>
</g>
<!-- Node2&#45;&gt;Node5 -->
<g id="edge4_Node000002_Node000005" class="edge">
<title>Node2&#45;&gt;Node5</title>
<g id="a_edge4_Node000002_Node000005"><a xlink:title=" ">
<path fill="none" stroke="#63b8ff" d="M1608.7,-331.9C1519.9,-320.94 1342.53,-299.05 1249.04,-287.52"/>
<polygon fill="#63b8ff" stroke="#63b8ff" points="1249.25,-284.01 1238.89,-286.26 1248.39,-290.96 1249.25,-284.01"/>
</a>
</g>
</g>
<!-- Node13 -->
<g id="Node000013" class="node">
<title>Node13</title>
<g id="a_Node000013"><a xlink:href="core_2utilities_8h.html" target="_top" xlink:title=" ">
<polygon fill="white" stroke="#666666" points="1618.15,-156.5 1532.15,-156.5 1532.15,-137.5 1618.15,-137.5 1618.15,-156.5"/>
<text text-anchor="middle" x="1575.15" y="-144.5" font-family="Helvetica,sans-Serif" font-size="10.00">core/utilities.h</text>
</a>
</g>
</g>
<!-- Node2&#45;&gt;Node13 -->
<g id="edge45_Node000002_Node000013" class="edge">
<title>Node2&#45;&gt;Node13</title>
<g id="a_edge45_Node000002_Node000013"><a xlink:title=" ">
<path fill="none" stroke="#63b8ff" d="M1654.53,-329.8C1647.26,-321.18 1636.38,-307.36 1629.15,-294 1605.64,-250.57 1588.18,-194.75 1580.11,-166.36"/>
<polygon fill="#63b8ff" stroke="#63b8ff" points="1583.45,-165.29 1577.4,-156.59 1576.7,-167.16 1583.45,-165.29"/>
</a>
</g>
</g>
<!-- Node36 -->
<g id="Node000036" class="node">
<title>Node36</title>
<g id="a_Node000036"><a xlink:title=" ">
<polygon fill="#e0e0e0" stroke="#999999" points="1553.65,-228 1444.65,-228 1444.65,-198 1553.65,-198 1553.65,-228"/>
<text text-anchor="start" x="1452.65" y="-216" font-family="Helvetica,sans-Serif" font-size="10.00">deal.II/base/parsed</text>
<text text-anchor="middle" x="1499.15" y="-205" font-family="Helvetica,sans-Serif" font-size="10.00">_function.h</text>
</a>
</g>
</g>
<!-- Node2&#45;&gt;Node36 -->
<g id="edge47_Node000002_Node000036" class="edge">
<title>Node2&#45;&gt;Node36</title>
<g id="a_edge47_Node000002_Node000036"><a xlink:title=" ">
<path fill="none" stroke="#63b8ff" d="M1637.02,-329.91C1617.13,-322.36 1589.27,-310.08 1568.15,-294 1546.77,-277.73 1527.27,-253.89 1514.5,-236.47"/>
<polygon fill="#63b8ff" stroke="#63b8ff" points="1517.12,-234.12 1508.45,-228.02 1511.42,-238.19 1517.12,-234.12"/>
</a>
</g>
</g>
<!-- Node37 -->
<g id="Node000037" class="node">
<title>Node37</title>
<g id="a_Node000037"><a xlink:href="multiphysics_8h.html" target="_top" xlink:title="Identifiers for multiphysics modules and their solution fields.">
<polygon fill="white" stroke="#666666" points="1760.15,-288.5 1648.15,-288.5 1648.15,-269.5 1760.15,-269.5 1760.15,-288.5"/>
<text text-anchor="middle" x="1704.15" y="-276.5" font-family="Helvetica,sans-Serif" font-size="10.00">core/multiphysics.h</text>
</a>
</g>
</g>
<!-- Node2&#45;&gt;Node37 -->
<g id="edge44_Node000002_Node000037" class="edge">
<title>Node2&#45;&gt;Node37</title>
<g id="a_edge44_Node000002_Node000037"><a xlink:title=" ">
<path fill="none" stroke="#63b8ff" d="M1668.35,-329.87C1674.55,-321.23 1684.26,-307.7 1692.01,-296.92"/>
<polygon fill="#63b8ff" stroke="#63b8ff" points="1694.94,-298.83 1697.93,-288.67 1689.25,-294.75 1694.94,-298.83"/>
</a>
</g>
</g>
<!-- Node38 -->
<g id="Node000038" class="node">
<title>Node38</title>
<g id="a_Node000038"><a xlink:title=" ">
<polygon fill="#e0e0e0" stroke="#999999" points="1941.65,-294 1778.65,-294 1778.65,-264 1941.65,-264 1941.65,-294"/>
<text text-anchor="start" x="1786.65" y="-282" font-family="Helvetica,sans-Serif" font-size="10.00">deal.II/multigrid/mg</text>
<text text-anchor="middle" x="1860.15" y="-271" font-family="Helvetica,sans-Serif" font-size="10.00">_transfer_global_coarsening.h</text>
</a>
</g>
</g>
<!-- Node2&#45;&gt;Node38 -->
<g id="edge48_Node000002_Node000038" class="edge">
<title>Node2&#45;&gt;Node38</title>
<g id="a_edge48_Node000002_Node000038"><a xlink:title=" ">
<path fill="none" stroke="#63b8ff" d="M1690.94,-329.99C1720.18,-321.35 1766.26,-307.74 1802.95,-296.9"/>
<polygon fill="#63b8ff" stroke="#63b8ff" points="1803.95,-300.25 1812.55,-294.06 1801.97,-293.54 1803.95,-300.25"/>
</a>
</g>
</g>
<!-- Node3&#45;&gt;Node4 -->
<g id="edge3_Node000003_Node000004" class="edge">
<title>Node3&#45;&gt;Node4</title>
<g id="a_edge3_Node000003_Node000004"><a xlink:title=" ">
<path fill="none" stroke="#63b8ff" d="M2062.43,-203.47C2069.97,-183.86 2088.76,-135.02 2100.08,-105.59"/>
<polygon fill="#63b8ff" stroke="#63b8ff" points="2103.42,-106.66 2103.74,-96.07 2096.88,-104.14 2103.42,-106.66"/>
</a>
</g>
</g>
<!-- Node6 -->
<g id="Node000006" class="node">
<title>Node6</title>
<g id="a_Node000006"><a xlink:href="dem__properties_8h.html" target="_top" xlink:title="DEM particle property definitions and output name management.">
<polygon fill="white" stroke="#666666" points="141.15,-156.5 15.15,-156.5 15.15,-137.5 141.15,-137.5 141.15,-156.5"/>
<text text-anchor="middle" x="78.15" y="-144.5" font-family="Helvetica,sans-Serif" font-size="10.00">core/dem_properties.h</text>
</a>
</g>
</g>
<!-- Node5&#45;&gt;Node6 -->
<g id="edge5_Node000005_Node000006" class="edge">
<title>Node5&#45;&gt;Node6</title>
<g id="a_edge5_Node000005_Node000006"><a xlink:title=" ">
<path fill="none" stroke="#63b8ff" d="M1137.39,-272.62C989.4,-256.84 545.61,-208.82 178.15,-162 168.24,-160.74 157.78,-159.34 147.52,-157.94"/>
<polygon fill="#63b8ff" stroke="#63b8ff" points="147.73,-154.43 137.34,-156.53 146.77,-161.37 147.73,-154.43"/>
</a>
</g>
</g>
<!-- Node8 -->
<g id="Node000008" class="node">
<title>Node8</title>
<g id="a_Node000008"><a xlink:title=" ">
<polygon fill="#e0e0e0" stroke="#999999" points="101.65,-90.5 54.65,-90.5 54.65,-71.5 101.65,-71.5 101.65,-90.5"/>
<text text-anchor="middle" x="78.15" y="-78.5" font-family="Helvetica,sans-Serif" font-size="10.00">vector</text>
</a>
</g>
</g>
<!-- Node5&#45;&gt;Node8 -->
<g id="edge43_Node000005_Node000008" class="edge">
<title>Node5&#45;&gt;Node8</title>
<g id="a_edge43_Node000005_Node000008"><a xlink:title=" ">
<path fill="none" stroke="#63b8ff" d="M1137.33,-277.02C920.63,-272.32 81.54,-248.61 6.15,-162 -14.46,-138.32 22.99,-111.27 51.17,-95.46"/>
<polygon fill="#63b8ff" stroke="#63b8ff" points="53.14,-98.38 60.28,-90.56 49.81,-92.22 53.14,-98.38"/>
</a>
</g>
</g>
<!-- Node9 -->
<g id="Node000009" class="node">
<title>Node9</title>
<g id="a_Node000009"><a xlink:href="shape_8h.html" target="_top" xlink:title=" ">
<polygon fill="white" stroke="#666666" points="1033.65,-222.5 954.65,-222.5 954.65,-203.5 1033.65,-203.5 1033.65,-222.5"/>
<text text-anchor="middle" x="994.15" y="-210.5" font-family="Helvetica,sans-Serif" font-size="10.00">core/shape.h</text>
</a>
</g>
</g>
<!-- Node5&#45;&gt;Node9 -->
<g id="edge8_Node000005_Node000009" class="edge">
<title>Node5&#45;&gt;Node9</title>
<g id="a_edge8_Node000005_Node000009"><a xlink:title=" ">
<path fill="none" stroke="#63b8ff" d="M1161.99,-269.37C1127.9,-258.12 1068.16,-238.42 1029.91,-225.8"/>
<polygon fill="#63b8ff" stroke="#63b8ff" points="1030.8,-222.41 1020.21,-222.6 1028.61,-229.05 1030.8,-222.41"/>
</a>
</g>
</g>
<!-- Node11 -->
<g id="Node000011" class="node">
<title>Node11</title>
<g id="a_Node000011"><a xlink:title=" ">
<polygon fill="#e0e0e0" stroke="#999999" points="1894.15,-90.5 1784.15,-90.5 1784.15,-71.5 1894.15,-71.5 1894.15,-90.5"/>
<text text-anchor="middle" x="1839.15" y="-78.5" font-family="Helvetica,sans-Serif" font-size="10.00">deal.II/base/point.h</text>
</a>
</g>
</g>
<!-- Node5&#45;&gt;Node11 -->
<g id="edge42_Node000005_Node000011" class="edge">
<title>Node5&#45;&gt;Node11</title>
<g id="a_edge42_Node000005_Node000011"><a xlink:title=" ">
<path fill="none" stroke="#63b8ff" d="M1211.36,-269.38C1254.78,-253.5 1351.5,-219.3 1435.15,-198 1519.29,-176.58 1543.55,-185.42 1627.15,-162 1694.52,-143.13 1770.59,-111.87 1810.77,-94.54"/>
<polygon fill="#63b8ff" stroke="#63b8ff" points="1812.17,-97.75 1819.95,-90.55 1809.38,-91.33 1812.17,-97.75"/>
</a>
</g>
</g>
<!-- Node5&#45;&gt;Node36 -->
<g id="edge41_Node000005_Node000036" class="edge">
<title>Node5&#45;&gt;Node36</title>
<g id="a_edge41_Node000005_Node000036"><a xlink:title=" ">
<path fill="none" stroke="#63b8ff" d="M1229.77,-269.44C1282.22,-258.64 1372.92,-239.98 1434.44,-227.32"/>
<polygon fill="#63b8ff" stroke="#63b8ff" points="1435.34,-230.7 1444.43,-225.26 1433.93,-223.85 1435.34,-230.7"/>
</a>
</g>
</g>
<!-- Node7 -->
<g id="Node000007" class="node">
<title>Node7</title>
<g id="a_Node000007"><a xlink:title=" ">
<polygon fill="#e0e0e0" stroke="#999999" points="265.15,-90.5 221.15,-90.5 221.15,-71.5 265.15,-71.5 265.15,-90.5"/>
<text text-anchor="middle" x="243.15" y="-78.5" font-family="Helvetica,sans-Serif" font-size="10.00">string</text>
</a>
</g>
</g>
<!-- Node6&#45;&gt;Node7 -->
<g id="edge6_Node000006_Node000007" class="edge">
<title>Node6&#45;&gt;Node7</title>
<g id="a_edge6_Node000006_Node000007"><a xlink:title=" ">
<path fill="none" stroke="#63b8ff" d="M100.4,-137.37C129.02,-126.27 178.91,-106.92 211.48,-94.28"/>
<polygon fill="#63b8ff" stroke="#63b8ff" points="212.93,-97.48 220.99,-90.6 210.4,-90.95 212.93,-97.48"/>
</a>
</g>
</g>
<!-- Node6&#45;&gt;Node8 -->
<g id="edge7_Node000006_Node000008" class="edge">
<title>Node6&#45;&gt;Node8</title>
<g id="a_edge7_Node000006_Node000008"><a xlink:title=" ">
<path fill="none" stroke="#63b8ff" d="M78.15,-137.37C78.15,-128.16 78.15,-113.29 78.15,-101.27"/>
<polygon fill="#63b8ff" stroke="#63b8ff" points="81.65,-100.91 78.15,-90.91 74.65,-100.91 81.65,-100.91"/>
</a>
</g>
</g>
<!-- Node10 -->
<g id="Node000010" class="node">
<title>Node10</title>
<g id="a_Node000010"><a xlink:href="tensors__and__points__dimension__manipulation_8h.html" target="_top" xlink:title=" ">
<polygon fill="white" stroke="#666666" points="1915.15,-162 1763.15,-162 1763.15,-132 1915.15,-132 1915.15,-162"/>
<text text-anchor="start" x="1771.15" y="-150" font-family="Helvetica,sans-Serif" font-size="10.00">core/tensors_and_points</text>
<text text-anchor="middle" x="1839.15" y="-139" font-family="Helvetica,sans-Serif" font-size="10.00">_dimension_manipulation.h</text>
</a>
</g>
</g>
<!-- Node9&#45;&gt;Node10 -->
<g id="edge9_Node000009_Node000010" class="edge">
<title>Node9&#45;&gt;Node10</title>
<g id="a_edge9_Node000009_Node000010"><a xlink:title=" ">
<path fill="none" stroke="#63b8ff" d="M1033.77,-209C1162.76,-199.23 1572.7,-168.18 1752.84,-154.54"/>
<polygon fill="#63b8ff" stroke="#63b8ff" points="1753.36,-158.01 1763.07,-153.76 1752.83,-151.03 1753.36,-158.01"/>
</a>
</g>
</g>
<!-- Node9&#45;&gt;Node13 -->
<g id="edge12_Node000009_Node000013" class="edge">
<title>Node9&#45;&gt;Node13</title>
<g id="a_edge12_Node000009_Node000013"><a xlink:title=" ">
<path fill="none" stroke="#63b8ff" d="M1033.95,-210.53C1122.49,-206.77 1342.27,-194.66 1523.15,-162 1527.67,-161.18 1532.37,-160.16 1537.02,-159.05"/>
<polygon fill="#63b8ff" stroke="#63b8ff" points="1538.18,-162.37 1547.01,-156.5 1536.45,-155.58 1538.18,-162.37"/>
</a>
</g>
</g>
<!-- Node18 -->
<g id="Node000018" class="node">
<title>Node18</title>
<g id="a_Node000018"><a xlink:title=" ">
<polygon fill="#e0e0e0" stroke="#999999" points="625.15,-90.5 485.15,-90.5 485.15,-71.5 625.15,-71.5 625.15,-90.5"/>
<text text-anchor="middle" x="555.15" y="-78.5" font-family="Helvetica,sans-Serif" font-size="10.00">deal.II/dofs/dof_handler.h</text>
</a>
</g>
</g>
<!-- Node9&#45;&gt;Node18 -->
<g id="edge36_Node000009_Node000018" class="edge">
<title>Node9&#45;&gt;Node18</title>
<g id="a_edge36_Node000009_Node000018"><a xlink:title=" ">
<path fill="none" stroke="#63b8ff" d="M954.56,-211.03C796.08,-206.98 214.67,-190.22 188.15,-162 179.02,-152.28 179.38,-142.04 188.15,-132 224.6,-90.24 378.4,-82.05 474.96,-81.15"/>
<polygon fill="#63b8ff" stroke="#63b8ff" points="475.01,-84.65 484.99,-81.09 474.96,-77.65 475.01,-84.65"/>
</a>
</g>
</g>
<!-- Node26 -->
<g id="Node000026" class="node">
<title>Node26</title>
<g id="a_Node000026"><a xlink:title=" ">
<polygon fill="#e0e0e0" stroke="#999999" points="1228.15,-162 1076.15,-162 1076.15,-132 1228.15,-132 1228.15,-162"/>
<text text-anchor="start" x="1084.15" y="-150" font-family="Helvetica,sans-Serif" font-size="10.00">deal.II/base/auto_derivative</text>
<text text-anchor="middle" x="1152.15" y="-139" font-family="Helvetica,sans-Serif" font-size="10.00">_function.h</text>
</a>
</g>
</g>
<!-- Node9&#45;&gt;Node26 -->
<g id="edge30_Node000009_Node000026" class="edge">
<title>Node9&#45;&gt;Node26</title>
<g id="a_edge30_Node000009_Node000026"><a xlink:title=" ">
<path fill="none" stroke="#63b8ff" d="M1015.46,-203.37C1039.02,-193.82 1077.64,-178.18 1107.83,-165.95"/>
<polygon fill="#63b8ff" stroke="#63b8ff" points="1109.35,-169.11 1117.3,-162.12 1106.72,-162.63 1109.35,-169.11"/>
</a>
</g>
</g>
<!-- Node27 -->
<g id="Node000027" class="node">
<title>Node27</title>
<g id="a_Node000027"><a xlink:title=" ">
<polygon fill="#e0e0e0" stroke="#999999" points="1371.65,-156.5 1246.65,-156.5 1246.65,-137.5 1371.65,-137.5 1371.65,-156.5"/>
<text text-anchor="middle" x="1309.15" y="-144.5" font-family="Helvetica,sans-Serif" font-size="10.00">deal.II/base/function.h</text>
</a>
</g>
</g>
<!-- Node9&#45;&gt;Node27 -->
<g id="edge31_Node000009_Node000027" class="edge">
<title>Node9&#45;&gt;Node27</title>
<g id="a_edge31_Node000009_Node000027"><a xlink:title=" ">
<path fill="none" stroke="#63b8ff" d="M1033.73,-203.96C1090.31,-192.46 1194.41,-171.31 1257.15,-158.56"/>
<polygon fill="#63b8ff" stroke="#63b8ff" points="1258.13,-161.94 1267.23,-156.52 1256.73,-155.08 1258.13,-161.94"/>
</a>
</g>
</g>
<!-- Node28 -->
<g id="Node000028" class="node">
<title>Node28</title>
<g id="a_Node000028"><a xlink:title=" ">
<polygon fill="#e0e0e0" stroke="#999999" points="1514.15,-156.5 1390.15,-156.5 1390.15,-137.5 1514.15,-137.5 1514.15,-156.5"/>
<text text-anchor="middle" x="1452.15" y="-144.5" font-family="Helvetica,sans-Serif" font-size="10.00">deal.II/grid/manifold.h</text>
</a>
</g>
</g>
<!-- Node9&#45;&gt;Node28 -->
<g id="edge32_Node000009_Node000028" class="edge">
<title>Node9&#45;&gt;Node28</title>
<g id="a_edge32_Node000009_Node000028"><a xlink:title=" ">
<path fill="none" stroke="#63b8ff" d="M1033.72,-207.71C1103.77,-199.93 1254.08,-182.4 1380.15,-162 1386.82,-160.92 1393.82,-159.69 1400.73,-158.41"/>
<polygon fill="#63b8ff" stroke="#63b8ff" points="1401.55,-161.81 1410.73,-156.52 1400.25,-154.94 1401.55,-161.81"/>
</a>
</g>
</g>
<!-- Node29 -->
<g id="Node000029" class="node">
<title>Node29</title>
<g id="a_Node000029"><a xlink:title=" ">
<polygon fill="#e0e0e0" stroke="#999999" points="312.65,-162 197.65,-162 197.65,-132 312.65,-132 312.65,-162"/>
<text text-anchor="start" x="205.65" y="-150" font-family="Helvetica,sans-Serif" font-size="10.00">deal.II/grid/manifold</text>
<text text-anchor="middle" x="255.15" y="-139" font-family="Helvetica,sans-Serif" font-size="10.00">_lib.h</text>
</a>
</g>
</g>
<!-- Node9&#45;&gt;Node29 -->
<g id="edge33_Node000009_Node000029" class="edge">
<title>Node9&#45;&gt;Node29</title>
<g id="a_edge33_Node000009_Node000029"><a xlink:title=" ">
<path fill="none" stroke="#63b8ff" d="M954.5,-210.92C851.69,-207.72 567.99,-196.38 322.83,-162.11"/>
<polygon fill="#63b8ff" stroke="#63b8ff" points="323.05,-158.61 312.66,-160.68 322.07,-165.54 323.05,-158.61"/>
</a>
</g>
</g>
<!-- Node30 -->
<g id="Node000030" class="node">
<title>Node30</title>
<g id="a_Node000030"><a xlink:title=" ">
<polygon fill="#e0e0e0" stroke="#999999" points="445.65,-162 330.65,-162 330.65,-132 445.65,-132 445.65,-162"/>
<text text-anchor="start" x="338.65" y="-150" font-family="Helvetica,sans-Serif" font-size="10.00">boost/range/adaptor</text>
<text text-anchor="middle" x="388.15" y="-139" font-family="Helvetica,sans-Serif" font-size="10.00">/map.hpp</text>
</a>
</g>
</g>
<!-- Node9&#45;&gt;Node30 -->
<g id="edge34_Node000009_Node000030" class="edge">
<title>Node9&#45;&gt;Node30</title>
<g id="a_edge34_Node000009_Node000030"><a xlink:title=" ">
<path fill="none" stroke="#63b8ff" d="M954.4,-209.86C866.42,-204.8 648.4,-190.42 455.84,-161.98"/>
<polygon fill="#63b8ff" stroke="#63b8ff" points="456.23,-158.5 445.82,-160.48 455.19,-165.42 456.23,-158.5"/>
</a>
</g>
</g>
<!-- Node31 -->
<g id="Node000031" class="node">
<title>Node31</title>
<g id="a_Node000031"><a xlink:title=" ">
<polygon fill="#e0e0e0" stroke="#999999" points="580.15,-162 464.15,-162 464.15,-132 580.15,-132 580.15,-162"/>
<text text-anchor="start" x="472.15" y="-150" font-family="Helvetica,sans-Serif" font-size="10.00">deal.II/base/function</text>
<text text-anchor="middle" x="522.15" y="-139" font-family="Helvetica,sans-Serif" font-size="10.00">_signed_distance.h</text>
</a>
</g>
</g>
<!-- Node9&#45;&gt;Node31 -->
<g id="edge35_Node000009_Node000031" class="edge">
<title>Node9&#45;&gt;Node31</title>
<g id="a_edge35_Node000009_Node000031"><a xlink:title=" ">
<path fill="none" stroke="#63b8ff" d="M954.61,-208.22C883.67,-201.2 729.9,-184.91 590.23,-162.09"/>
<polygon fill="#63b8ff" stroke="#63b8ff" points="590.64,-158.61 580.2,-160.44 589.5,-165.52 590.64,-158.61"/>
</a>
</g>
</g>
<!-- Node32 -->
<g id="Node000032" class="node">
<title>Node32</title>
<g id="a_Node000032"><a xlink:title=" ">
<polygon fill="#e0e0e0" stroke="#999999" points="726.15,-156.5 598.15,-156.5 598.15,-137.5 726.15,-137.5 726.15,-156.5"/>
<text text-anchor="middle" x="662.15" y="-144.5" font-family="Helvetica,sans-Serif" font-size="10.00">deal.II/dofs/dof_tools.h</text>
</a>
</g>
</g>
<!-- Node9&#45;&gt;Node32 -->
<g id="edge37_Node000009_Node000032" class="edge">
<title>Node9&#45;&gt;Node32</title>
<g id="a_edge37_Node000009_Node000032"><a xlink:title=" ">
<path fill="none" stroke="#63b8ff" d="M954.43,-204.34C895.09,-192.9 783.12,-171.32 716.32,-158.44"/>
<polygon fill="#63b8ff" stroke="#63b8ff" points="716.88,-154.99 706.4,-156.53 715.55,-161.86 716.88,-154.99"/>
</a>
</g>
</g>
<!-- Node33 -->
<g id="Node000033" class="node">
<title>Node33</title>
<g id="a_Node000033"><a xlink:title=" ">
<polygon fill="#e0e0e0" stroke="#999999" points="920.15,-156.5 744.15,-156.5 744.15,-137.5 920.15,-137.5 920.15,-156.5"/>
<text text-anchor="middle" x="832.15" y="-144.5" font-family="Helvetica,sans-Serif" font-size="10.00">deal.II/physics/transformations.h</text>
</a>
</g>
</g>
<!-- Node9&#45;&gt;Node33 -->
<g id="edge38_Node000009_Node000033" class="edge">
<title>Node9&#45;&gt;Node33</title>
<g id="a_edge38_Node000009_Node000033"><a xlink:title=" ">
<path fill="none" stroke="#63b8ff" d="M972.3,-203.37C944.2,-192.27 895.22,-172.92 863.25,-160.28"/>
<polygon fill="#63b8ff" stroke="#63b8ff" points="864.5,-157.02 853.91,-156.6 861.92,-163.53 864.5,-157.02"/>
</a>
</g>
</g>
<!-- Node34 -->
<g id="Node000034" class="node">
<title>Node34</title>
<g id="a_Node000034"><a xlink:title=" ">
<polygon fill="#e0e0e0" stroke="#999999" points="982.15,-156.5 938.15,-156.5 938.15,-137.5 982.15,-137.5 982.15,-156.5"/>
<text text-anchor="middle" x="960.15" y="-144.5" font-family="Helvetica,sans-Serif" font-size="10.00">cfloat</text>
</a>
</g>
</g>
<!-- Node9&#45;&gt;Node34 -->
<g id="edge39_Node000009_Node000034" class="edge">
<title>Node9&#45;&gt;Node34</title>
<g id="a_edge39_Node000009_Node000034"><a xlink:title=" ">
<path fill="none" stroke="#63b8ff" d="M989.56,-203.37C984.47,-193.78 976.11,-178.05 969.61,-165.8"/>
<polygon fill="#63b8ff" stroke="#63b8ff" points="972.66,-164.09 964.88,-156.91 966.48,-167.38 972.66,-164.09"/>
</a>
</g>
</g>
<!-- Node35 -->
<g id="Node000035" class="node">
<title>Node35</title>
<g id="a_Node000035"><a xlink:title=" ">
<polygon fill="#e0e0e0" stroke="#999999" points="1058.15,-156.5 1000.15,-156.5 1000.15,-137.5 1058.15,-137.5 1058.15,-156.5"/>
<text text-anchor="middle" x="1029.15" y="-144.5" font-family="Helvetica,sans-Serif" font-size="10.00">memory</text>
</a>
</g>
</g>
<!-- Node9&#45;&gt;Node35 -->
<g id="edge40_Node000009_Node000035" class="edge">
<title>Node9&#45;&gt;Node35</title>
<g id="a_edge40_Node000009_Node000035"><a xlink:title=" ">
<path fill="none" stroke="#63b8ff" d="M998.87,-203.37C1004.11,-193.78 1012.72,-178.05 1019.42,-165.8"/>
<polygon fill="#63b8ff" stroke="#63b8ff" points="1022.55,-167.36 1024.28,-156.91 1016.41,-164 1022.55,-167.36"/>
</a>
</g>
</g>
<!-- Node10&#45;&gt;Node11 -->
<g id="edge10_Node000010_Node000011" class="edge">
<title>Node10&#45;&gt;Node11</title>
<g id="a_edge10_Node000010_Node000011"><a xlink:title=" ">
<path fill="none" stroke="#63b8ff" d="M1839.15,-131.8C1839.15,-122.7 1839.15,-110.79 1839.15,-100.9"/>
<polygon fill="#63b8ff" stroke="#63b8ff" points="1842.65,-100.84 1839.15,-90.84 1835.65,-100.84 1842.65,-100.84"/>
</a>
</g>
</g>
<!-- Node10&#45;&gt;Node12 -->
<g id="edge11_Node000010_Node000012" class="edge">
<title>Node10&#45;&gt;Node12</title>
<g id="a_edge11_Node000010_Node000012"><a xlink:title=" ">
<path fill="none" stroke="#63b8ff" d="M1867.9,-131.95C1890.47,-120.93 1921.64,-105.7 1943.62,-94.96"/>
<polygon fill="#63b8ff" stroke="#63b8ff" points="1945.27,-98.05 1952.72,-90.52 1942.19,-91.76 1945.27,-98.05"/>
</a>
</g>
</g>
<!-- Node13&#45;&gt;Node4 -->
<g id="edge16_Node000013_Node000004" class="edge">
<title>Node13&#45;&gt;Node4</title>
<g id="a_edge16_Node000013_Node000004"><a xlink:title=" ">
<path fill="none" stroke="#63b8ff" d="M1618.3,-142.55C1698.54,-135.88 1876.3,-119.84 2035.62,-96.16"/>
<polygon fill="#63b8ff" stroke="#63b8ff" points="2036.23,-99.6 2045.6,-94.66 2035.19,-92.68 2036.23,-99.6"/>
</a>
</g>
</g>
<!-- Node13&#45;&gt;Node7 -->
<g id="edge27_Node000013_Node000007" class="edge">
<title>Node13&#45;&gt;Node7</title>
<g id="a_edge27_Node000013_Node000007"><a xlink:title=" ">
<path fill="none" stroke="#63b8ff" d="M1548.14,-137.47C1540.17,-135.3 1531.38,-133.23 1523.15,-132 1292.91,-97.51 708.69,-106.98 476.15,-96 404.39,-92.61 320.27,-87.2 275.33,-84.2"/>
<polygon fill="#63b8ff" stroke="#63b8ff" points="275.52,-80.7 265.31,-83.52 275.05,-87.68 275.52,-80.7"/>
</a>
</g>
</g>
<!-- Node13&#45;&gt;Node8 -->
<g id="edge29_Node000013_Node000008" class="edge">
<title>Node13&#45;&gt;Node8</title>
<g id="a_edge29_Node000013_Node000008"><a xlink:title=" ">
<path fill="none" stroke="#63b8ff" d="M1548.15,-137.44C1540.18,-135.26 1531.38,-133.2 1523.15,-132 1234.77,-89.82 502.96,-115.16 212.15,-96 177.95,-93.75 138.99,-89.49 111.93,-86.25"/>
<polygon fill="#63b8ff" stroke="#63b8ff" points="112.17,-82.76 101.82,-85.03 111.33,-89.71 112.17,-82.76"/>
</a>
</g>
</g>
<!-- Node13&#45;&gt;Node11 -->
<g id="edge17_Node000013_Node000011" class="edge">
<title>Node13&#45;&gt;Node11</title>
<g id="a_edge17_Node000013_Node000011"><a xlink:title=" ">
<path fill="none" stroke="#63b8ff" d="M1609.81,-137.46C1617.18,-135.66 1624.92,-133.76 1632.15,-132 1687.73,-118.46 1751.75,-103.02 1793.7,-92.92"/>
<polygon fill="#63b8ff" stroke="#63b8ff" points="1794.71,-96.28 1803.61,-90.54 1793.07,-89.48 1794.71,-96.28"/>
</a>
</g>
</g>
<!-- Node13&#45;&gt;Node12 -->
<g id="edge19_Node000013_Node000012" class="edge">
<title>Node13&#45;&gt;Node12</title>
<g id="a_edge19_Node000013_Node000012"><a xlink:title=" ">
<path fill="none" stroke="#63b8ff" d="M1618.26,-140.2C1681.08,-131.56 1801.4,-114.37 1903.15,-96 1908.99,-94.94 1915.11,-93.77 1921.17,-92.56"/>
<polygon fill="#63b8ff" stroke="#63b8ff" points="1922.15,-95.93 1931.25,-90.5 1920.75,-89.07 1922.15,-95.93"/>
</a>
</g>
</g>
<!-- Node14 -->
<g id="Node000014" class="node">
<title>Node14</title>
<g id="a_Node000014"><a xlink:href="output__struct_8h.html" target="_top" xlink:title=" ">
<polygon fill="#fff0f0" stroke="red" points="1728.15,-90.5 1614.15,-90.5 1614.15,-71.5 1728.15,-71.5 1728.15,-90.5"/>
<text text-anchor="middle" x="1671.15" y="-78.5" font-family="Helvetica,sans-Serif" font-size="10.00">core/output_struct.h</text>
</a>
</g>
</g>
<!-- Node13&#45;&gt;Node14 -->
<g id="edge13_Node000013_Node000014" class="edge">
<title>Node13&#45;&gt;Node14</title>
<g id="a_edge13_Node000013_Node000014"><a xlink:title=" ">
<path fill="none" stroke="#63b8ff" d="M1588.1,-137.37C1603.84,-126.87 1630.65,-109 1649.55,-96.4"/>
<polygon fill="#63b8ff" stroke="#63b8ff" points="1651.72,-99.16 1658.1,-90.7 1647.84,-93.33 1651.72,-99.16"/>
</a>
</g>
</g>
<!-- Node15 -->
<g id="Node000015" class="node">
<title>Node15</title>
<g id="a_Node000015"><a xlink:title=" ">
<polygon fill="#e0e0e0" stroke="#999999" points="1763.65,-30 1662.65,-30 1662.65,0 1763.65,0 1763.65,-30"/>
<text text-anchor="start" x="1670.65" y="-18" font-family="Helvetica,sans-Serif" font-size="10.00">deal.II/base/table</text>
<text text-anchor="middle" x="1713.15" y="-7" font-family="Helvetica,sans-Serif" font-size="10.00">_handler.h</text>
</a>
</g>
</g>
<!-- Node13&#45;&gt;Node15 -->
<g id="edge18_Node000013_Node000015" class="edge">
<title>Node13&#45;&gt;Node15</title>
<g id="a_edge18_Node000013_Node000015"><a xlink:title=" ">
<path fill="none" stroke="#63b8ff" d="M1610.47,-137.46C1655.77,-126.15 1729.46,-106.42 1737.15,-96 1749.57,-79.17 1740.37,-55.9 1729.97,-38.79"/>
<polygon fill="#63b8ff" stroke="#63b8ff" points="1732.61,-36.44 1724.2,-30 1726.76,-40.28 1732.61,-36.44"/>
</a>
</g>
</g>
<!-- Node17 -->
<g id="Node000017" class="node">
<title>Node17</title>
<g id="a_Node000017"><a xlink:title=" ">
<polygon fill="#e0e0e0" stroke="#999999" points="874.15,-96 744.15,-96 744.15,-66 874.15,-66 874.15,-96"/>
<text text-anchor="start" x="752.15" y="-84" font-family="Helvetica,sans-Serif" font-size="10.00">deal.II/base/conditional</text>
<text text-anchor="middle" x="809.15" y="-73" font-family="Helvetica,sans-Serif" font-size="10.00">_ostream.h</text>
</a>
</g>
</g>
<!-- Node13&#45;&gt;Node17 -->
<g id="edge15_Node000013_Node000017" class="edge">
<title>Node13&#45;&gt;Node17</title>
<g id="a_edge15_Node000013_Node000017"><a xlink:title=" ">
<path fill="none" stroke="#63b8ff" d="M1547.58,-137.44C1539.76,-135.32 1531.18,-133.29 1523.15,-132 1245.17,-87.26 1167.75,-129.54 884.61,-96.06"/>
<polygon fill="#63b8ff" stroke="#63b8ff" points="884.79,-92.55 874.45,-94.83 883.96,-99.5 884.79,-92.55"/>
</a>
</g>
</g>
<!-- Node13&#45;&gt;Node18 -->
<g id="edge20_Node000013_Node000018" class="edge">
<title>Node13&#45;&gt;Node18</title>
<g id="a_edge20_Node000013_Node000018"><a xlink:title=" ">
<path fill="none" stroke="#63b8ff" d="M1547.86,-137.46C1539.96,-135.31 1531.28,-133.26 1523.15,-132 1176.73,-78.11 1085.07,-117.6 735.15,-96 702.55,-93.99 666.66,-91.29 635.56,-88.81"/>
<polygon fill="#63b8ff" stroke="#63b8ff" points="635.46,-85.29 625.21,-87.97 634.9,-92.26 635.46,-85.29"/>
</a>
</g>
</g>
<!-- Node19 -->
<g id="Node000019" class="node">
<title>Node19</title>
<g id="a_Node000019"><a xlink:title=" ">
<polygon fill="#e0e0e0" stroke="#999999" points="1011.65,-90.5 892.65,-90.5 892.65,-71.5 1011.65,-71.5 1011.65,-90.5"/>
<text text-anchor="middle" x="952.15" y="-78.5" font-family="Helvetica,sans-Serif" font-size="10.00">deal.II/fe/fe_values.h</text>
</a>
</g>
</g>
<!-- Node13&#45;&gt;Node19 -->
<g id="edge21_Node000013_Node000019" class="edge">
<title>Node13&#45;&gt;Node19</title>
<g id="a_edge21_Node000013_Node000019"><a xlink:title=" ">
<path fill="none" stroke="#63b8ff" d="M1547.3,-137.45C1539.55,-135.36 1531.08,-133.34 1523.15,-132 1302.15,-94.7 1242.17,-126.66 1020.15,-96 1013.33,-95.06 1006.17,-93.84 999.16,-92.52"/>
<polygon fill="#63b8ff" stroke="#63b8ff" points="999.54,-89.02 989.05,-90.52 998.19,-95.89 999.54,-89.02"/>
</a>
</g>
</g>
<!-- Node20 -->
<g id="Node000020" class="node">
<title>Node20</title>
<g id="a_Node000020"><a xlink:title=" ">
<polygon fill="#e0e0e0" stroke="#999999" points="1160.65,-96 1029.65,-96 1029.65,-66 1160.65,-66 1160.65,-96"/>
<text text-anchor="start" x="1037.65" y="-84" font-family="Helvetica,sans-Serif" font-size="10.00">deal.II/particles/particle</text>
<text text-anchor="middle" x="1095.15" y="-73" font-family="Helvetica,sans-Serif" font-size="10.00">_iterator.h</text>
</a>
</g>
</g>
<!-- Node13&#45;&gt;Node20 -->
<g id="edge22_Node000013_Node000020" class="edge">
<title>Node13&#45;&gt;Node20</title>
<g id="a_edge22_Node000013_Node000020"><a xlink:title=" ">
<path fill="none" stroke="#63b8ff" d="M1546.73,-137.46C1539.13,-135.42 1530.87,-133.42 1523.15,-132 1370.81,-103.94 1327.42,-118.11 1170.85,-96.16"/>
<polygon fill="#63b8ff" stroke="#63b8ff" points="1171.26,-92.69 1160.87,-94.74 1170.27,-99.61 1171.26,-92.69"/>
</a>
</g>
</g>
<!-- Node21 -->
<g id="Node000021" class="node">
<title>Node21</title>
<g id="a_Node000021"><a xlink:title=" ">
<polygon fill="#e0e0e0" stroke="#999999" points="1283.65,-96 1178.65,-96 1178.65,-66 1283.65,-66 1283.65,-96"/>
<text text-anchor="start" x="1186.65" y="-84" font-family="Helvetica,sans-Serif" font-size="10.00">boost/archive/text</text>
<text text-anchor="middle" x="1231.15" y="-73" font-family="Helvetica,sans-Serif" font-size="10.00">_iarchive.hpp</text>
</a>
</g>
</g>
<!-- Node13&#45;&gt;Node21 -->
<g id="edge23_Node000013_Node000021" class="edge">
<title>Node13&#45;&gt;Node21</title>
<g id="a_edge23_Node000013_Node000021"><a xlink:title=" ">
<path fill="none" stroke="#63b8ff" d="M1545.59,-137.45C1538.29,-135.5 1530.47,-133.55 1523.15,-132 1424.68,-111.14 1395.96,-115.34 1293.79,-96.23"/>
<polygon fill="#63b8ff" stroke="#63b8ff" points="1294.15,-92.73 1283.67,-94.3 1292.84,-99.61 1294.15,-92.73"/>
</a>
</g>
</g>
<!-- Node22 -->
<g id="Node000022" class="node">
<title>Node22</title>
<g id="a_Node000022"><a xlink:title=" ">
<polygon fill="#e0e0e0" stroke="#999999" points="1406.65,-96 1301.65,-96 1301.65,-66 1406.65,-66 1406.65,-96"/>
<text text-anchor="start" x="1309.65" y="-84" font-family="Helvetica,sans-Serif" font-size="10.00">boost/archive/text</text>
<text text-anchor="middle" x="1354.15" y="-73" font-family="Helvetica,sans-Serif" font-size="10.00">_oarchive.hpp</text>
</a>
</g>
</g>
<!-- Node13&#45;&gt;Node22 -->
<g id="edge24_Node000013_Node000022" class="edge">
<title>Node13&#45;&gt;Node22</title>
<g id="a_edge24_Node000013_Node000022"><a xlink:title=" ">
<path fill="none" stroke="#63b8ff" d="M1545.34,-137.37C1511.46,-127.56 1455.32,-111.3 1412.61,-98.93"/>
<polygon fill="#63b8ff" stroke="#63b8ff" points="1413.47,-95.54 1402.89,-96.12 1411.52,-102.26 1413.47,-95.54"/>
</a>
</g>
</g>
<!-- Node23 -->
<g id="Node000023" class="node">
<title>Node23</title>
<g id="a_Node000023"><a xlink:title=" ">
<polygon fill="#e0e0e0" stroke="#999999" points="1479.65,-90.5 1424.65,-90.5 1424.65,-71.5 1479.65,-71.5 1479.65,-90.5"/>
<text text-anchor="middle" x="1452.15" y="-78.5" font-family="Helvetica,sans-Serif" font-size="10.00">fstream</text>
</a>
</g>
</g>
<!-- Node13&#45;&gt;Node23 -->
<g id="edge25_Node000013_Node000023" class="edge">
<title>Node13&#45;&gt;Node23</title>
<g id="a_edge25_Node000013_Node000023"><a xlink:title=" ">
<path fill="none" stroke="#63b8ff" d="M1558.56,-137.37C1537.84,-126.59 1502.15,-108.02 1477.87,-95.38"/>
<polygon fill="#63b8ff" stroke="#63b8ff" points="1479.35,-92.21 1468.87,-90.7 1476.12,-98.42 1479.35,-92.21"/>
</a>
</g>
</g>
<!-- Node24 -->
<g id="Node000024" class="node">
<title>Node24</title>
<g id="a_Node000024"><a xlink:title=" ">
<polygon fill="#e0e0e0" stroke="#999999" points="1536.15,-90.5 1498.15,-90.5 1498.15,-71.5 1536.15,-71.5 1536.15,-90.5"/>
<text text-anchor="middle" x="1517.15" y="-78.5" font-family="Helvetica,sans-Serif" font-size="10.00">map</text>
</a>
</g>
</g>
<!-- Node13&#45;&gt;Node24 -->
<g id="edge26_Node000013_Node000024" class="edge">
<title>Node13&#45;&gt;Node24</title>
<g id="a_edge26_Node000013_Node000024"><a xlink:title=" ">
<path fill="none" stroke="#63b8ff" d="M1567.33,-137.37C1558.3,-127.4 1543.24,-110.79 1531.98,-98.36"/>
<polygon fill="#63b8ff" stroke="#63b8ff" points="1534.53,-95.96 1525.22,-90.91 1529.34,-100.67 1534.53,-95.96"/>
</a>
</g>
</g>
<!-- Node25 -->
<g id="Node000025" class="node">
<title>Node25</title>
<g id="a_Node000025"><a xlink:title=" ">
<polygon fill="#e0e0e0" stroke="#999999" points="1595.65,-90.5 1554.65,-90.5 1554.65,-71.5 1595.65,-71.5 1595.65,-90.5"/>
<text text-anchor="middle" x="1575.15" y="-78.5" font-family="Helvetica,sans-Serif" font-size="10.00">tuple</text>
</a>
</g>
</g>
<!-- Node13&#45;&gt;Node25 -->
<g id="edge28_Node000013_Node000025" class="edge">
<title>Node13&#45;&gt;Node25</title>
<g id="a_edge28_Node000013_Node000025"><a xlink:title=" ">
<path fill="none" stroke="#63b8ff" d="M1575.15,-137.37C1575.15,-128.16 1575.15,-113.29 1575.15,-101.27"/>
<polygon fill="#63b8ff" stroke="#63b8ff" points="1578.65,-100.91 1575.15,-90.91 1571.65,-100.91 1578.65,-100.91"/>
</a>
</g>
</g>
<!-- Node14&#45;&gt;Node15 -->
<g id="edge14_Node000014_Node000015" class="edge">
<title>Node14&#45;&gt;Node15</title>
<g id="a_edge14_Node000014_Node000015"><a xlink:title=" ">
<path fill="none" stroke="#63b8ff" d="M1676.81,-71.37C1682.26,-63.08 1690.72,-50.18 1698.11,-38.92"/>
<polygon fill="#63b8ff" stroke="#63b8ff" points="1701.17,-40.64 1703.73,-30.36 1695.31,-36.8 1701.17,-40.64"/>
</a>
</g>
</g>
</g>
</svg>
