<?xml version="1.0" encoding="UTF-8" standalone="no"?>
<!DOCTYPE svg PUBLIC "-//W3C//DTD SVG 1.1//EN"
 "http://www.w3.org/Graphics/SVG/1.1/DTD/svg11.dtd">
<!-- Generated by graphviz version 2.43.0 (0)
 -->
<!-- Title: /home/runner/work/lethe/lethe/include/fem&#45;dem/fluid_dynamics_vans_matrix_free_operators.h Pages: 1 -->
<svg width="509pt" height="148pt"
 viewBox="0.00 0.00 508.50 148.00" xmlns="http://www.w3.org/2000/svg" xmlns:xlink="http://www.w3.org/1999/xlink">
<g id="graph0" class="graph" transform="scale(1 1) rotate(0) translate(4 144)">
<title>/home/runner/work/lethe/lethe/include/fem&#45;dem/fluid_dynamics_vans_matrix_free_operators.h</title>
<!-- Node1 -->
<g id="Node000001" class="node">
<title>Node1</title>
<g id="a_Node000001"><a xlink:title=" ">
<polygon fill="#999999" stroke="#666666" points="323.5,-140 164.5,-140 164.5,-88 323.5,-88 323.5,-140"/>
<text text-anchor="start" x="172.5" y="-128" font-family="Helvetica,sans-Serif" font-size="10.00">/home/runner/work/lethe</text>
<text text-anchor="start" x="172.5" y="-117" font-family="Helvetica,sans-Serif" font-size="10.00">/lethe/include/fem&#45;dem</text>
<text text-anchor="start" x="172.5" y="-106" font-family="Helvetica,sans-Serif" font-size="10.00">/fluid_dynamics_vans_matrix</text>
<text text-anchor="middle" x="244" y="-95" font-family="Helvetica,sans-Serif" font-size="10.00">_free_operators.h</text>
</a>
</g>
</g>
<!-- Node2 -->
<g id="Node000002" class="node">
<title>Node2</title>
<g id="a_Node000002"><a xlink:href="cfd__dem__coupling__matrix__free_8cc.html" target="_top" xlink:title=" ">
<polygon fill="white" stroke="#666666" points="146,-52 0,-52 0,0 146,0 146,-52"/>
<text text-anchor="start" x="8" y="-40" font-family="Helvetica,sans-Serif" font-size="10.00">/home/runner/work/lethe</text>
<text text-anchor="start" x="8" y="-29" font-family="Helvetica,sans-Serif" font-size="10.00">/lethe/source/fem&#45;dem</text>
<text text-anchor="start" x="8" y="-18" font-family="Helvetica,sans-Serif" font-size="10.00">/cfd_dem_coupling_matrix</text>
<text text-anchor="middle" x="73" y="-7" font-family="Helvetica,sans-Serif" font-size="10.00">_free.cc</text>
</a>
</g>
</g>
<!-- Node1&#45;&gt;Node2 -->
<g id="edge1_Node000001_Node000002" class="edge">
<title>Node1&#45;&gt;Node2</title>
<g id="a_edge1_Node000001_Node000002"><a xlink:title=" ">
<path fill="none" stroke="#63b8ff" d="M184.97,-83.31C164.78,-73.16 142.39,-61.9 122.98,-52.14"/>
<polygon fill="#63b8ff" stroke="#63b8ff" points="183.57,-86.53 194.08,-87.89 186.72,-80.27 183.57,-86.53"/>
</a>
</g>
</g>
<!-- Node3 -->
<g id="Node000003" class="node">
<title>Node3</title>
<g id="a_Node000003"><a xlink:href="fluid__dynamics__vans__matrix__free_8cc.html" target="_top" xlink:title=" ">
<polygon fill="white" stroke="#666666" points="323.5,-52 164.5,-52 164.5,0 323.5,0 323.5,-52"/>
<text text-anchor="start" x="172.5" y="-40" font-family="Helvetica,sans-Serif" font-size="10.00">/home/runner/work/lethe</text>
<text text-anchor="start" x="172.5" y="-29" font-family="Helvetica,sans-Serif" font-size="10.00">/lethe/source/fem&#45;dem</text>
<text text-anchor="start" x="172.5" y="-18" font-family="Helvetica,sans-Serif" font-size="10.00">/fluid_dynamics_vans_matrix</text>
<text text-anchor="middle" x="244" y="-7" font-family="Helvetica,sans-Serif" font-size="10.00">_free.cc</text>
</a>
</g>
</g>
<!-- Node1&#45;&gt;Node3 -->
<g id="edge2_Node000001_Node000003" class="edge">
<title>Node1&#45;&gt;Node3</title>
<g id="a_edge2_Node000001_Node000003"><a xlink:title=" ">
<path fill="none" stroke="#63b8ff" d="M244,-77.56C244,-69.04 244,-60.1 244,-52.16"/>
<polygon fill="#63b8ff" stroke="#63b8ff" points="240.5,-77.66 244,-87.66 247.5,-77.66 240.5,-77.66"/>
</a>
</g>
</g>
<!-- Node4 -->
<g id="Node000004" class="node">
<title>Node4</title>
<g id="a_Node000004"><a xlink:href="fluid__dynamics__vans__matrix__free__operators_8cc.html" target="_top" xlink:title=" ">
<polygon fill="white" stroke="#666666" points="500.5,-52 341.5,-52 341.5,0 500.5,0 500.5,-52"/>
<text text-anchor="start" x="349.5" y="-40" font-family="Helvetica,sans-Serif" font-size="10.00">/home/runner/work/lethe</text>
<text text-anchor="start" x="349.5" y="-29" font-family="Helvetica,sans-Serif" font-size="10.00">/lethe/source/fem&#45;dem</text>
<text text-anchor="start" x="349.5" y="-18" font-family="Helvetica,sans-Serif" font-size="10.00">/fluid_dynamics_vans_matrix</text>
<text text-anchor="middle" x="421" y="-7" font-family="Helvetica,sans-Serif" font-size="10.00">_free_operators.cc</text>
</a>
</g>
</g>
<!-- Node1&#45;&gt;Node4 -->
<g id="edge3_Node000001_Node000004" class="edge">
<title>Node1&#45;&gt;Node4</title>
<g id="a_edge3_Node000001_Node000004"><a xlink:title=" ">
<path fill="none" stroke="#63b8ff" d="M304.82,-83.45C325.79,-73.26 349.08,-61.94 369.26,-52.14"/>
<polygon fill="#63b8ff" stroke="#63b8ff" points="303.14,-80.38 295.67,-87.89 306.2,-86.67 303.14,-80.38"/>
</a>
</g>
</g>
</g>
</svg>
