<?xml version="1.0" encoding="UTF-8" standalone="no"?>
<!DOCTYPE svg PUBLIC "-//W3C//DTD SVG 1.1//EN"
 "http://www.w3.org/Graphics/SVG/1.1/DTD/svg11.dtd">
<!-- Generated by graphviz version 2.43.0 (0)
 -->
<!-- Title: /home/runner/work/lethe/lethe/include/solvers/fluid_dynamics_matrix_free_operators.h Pages: 1 -->
<svg width="560pt" height="412pt"
 viewBox="0.00 0.00 559.97 412.00" xmlns="http://www.w3.org/2000/svg" xmlns:xlink="http://www.w3.org/1999/xlink">
<g id="graph0" class="graph" transform="scale(1 1) rotate(0) translate(4 408)">
<title>/home/runner/work/lethe/lethe/include/solvers/fluid_dynamics_matrix_free_operators.h</title>
<!-- Node1 -->
<g id="Node000001" class="node">
<title>Node1</title>
<g id="a_Node000001"><a xlink:title=" ">
<polygon fill="#999999" stroke="#666666" points="360.97,-404 223.97,-404 223.97,-352 360.97,-352 360.97,-404"/>
<text text-anchor="start" x="231.97" y="-392" font-family="Helvetica,sans-Serif" font-size="10.00">/home/runner/work/lethe</text>
<text text-anchor="start" x="231.97" y="-381" font-family="Helvetica,sans-Serif" font-size="10.00">/lethe/include/solvers</text>
<text text-anchor="start" x="231.97" y="-370" font-family="Helvetica,sans-Serif" font-size="10.00">/fluid_dynamics_matrix</text>
<text text-anchor="middle" x="292.47" y="-359" font-family="Helvetica,sans-Serif" font-size="10.00">_free_operators.h</text>
</a>
</g>
</g>
<!-- Node2 -->
<g id="Node000002" class="node">
<title>Node2</title>
<g id="a_Node000002"><a xlink:href="fluid__dynamics__vans__matrix__free__operators_8h.html" target="_top" xlink:title=" ">
<polygon fill="white" stroke="#666666" points="177.97,-228 18.97,-228 18.97,-176 177.97,-176 177.97,-228"/>
<text text-anchor="start" x="26.97" y="-216" font-family="Helvetica,sans-Serif" font-size="10.00">/home/runner/work/lethe</text>
<text text-anchor="start" x="26.97" y="-205" font-family="Helvetica,sans-Serif" font-size="10.00">/lethe/include/fem&#45;dem</text>
<text text-anchor="start" x="26.97" y="-194" font-family="Helvetica,sans-Serif" font-size="10.00">/fluid_dynamics_vans_matrix</text>
<text text-anchor="middle" x="98.47" y="-183" font-family="Helvetica,sans-Serif" font-size="10.00">_free_operators.h</text>
</a>
</g>
</g>
<!-- Node1&#45;&gt;Node2 -->
<g id="edge1_Node000001_Node000002" class="edge">
<title>Node1&#45;&gt;Node2</title>
<g id="a_edge1_Node000001_Node000002"><a xlink:title=" ">
<path fill="none" stroke="#63b8ff" d="M242.23,-346.45C228.52,-337.29 214,-326.79 201.47,-316 169.9,-288.8 138.31,-252.46 118.6,-228.42"/>
<polygon fill="#63b8ff" stroke="#63b8ff" points="240.35,-349.41 250.63,-351.97 244.2,-343.56 240.35,-349.41"/>
</a>
</g>
</g>
<!-- Node6 -->
<g id="Node000006" class="node">
<title>Node6</title>
<g id="a_Node000006"><a xlink:href="fluid__dynamics__matrix__free_8h.html" target="_top" xlink:title=" ">
<polygon fill="white" stroke="#666666" points="374.47,-310.5 210.47,-310.5 210.47,-269.5 374.47,-269.5 374.47,-310.5"/>
<text text-anchor="start" x="218.47" y="-298.5" font-family="Helvetica,sans-Serif" font-size="10.00">/home/runner/work/lethe</text>
<text text-anchor="start" x="218.47" y="-287.5" font-family="Helvetica,sans-Serif" font-size="10.00">/lethe/include/solvers</text>
<text text-anchor="middle" x="292.47" y="-276.5" font-family="Helvetica,sans-Serif" font-size="10.00">/fluid_dynamics_matrix_free.h</text>
</a>
</g>
</g>
<!-- Node1&#45;&gt;Node6 -->
<g id="edge5_Node000001_Node000006" class="edge">
<title>Node1&#45;&gt;Node6</title>
<g id="a_edge5_Node000001_Node000006"><a xlink:title=" ">
<path fill="none" stroke="#63b8ff" d="M292.47,-341.45C292.47,-330.94 292.47,-319.82 292.47,-310.7"/>
<polygon fill="#63b8ff" stroke="#63b8ff" points="288.97,-341.66 292.47,-351.66 295.97,-341.66 288.97,-341.66"/>
</a>
</g>
</g>
<!-- Node10 -->
<g id="Node000010" class="node">
<title>Node10</title>
<g id="a_Node000010"><a xlink:href="fluid__dynamics__matrix__free__operators_8cc.html" target="_top" xlink:title=" ">
<polygon fill="white" stroke="#666666" points="529.97,-316 392.97,-316 392.97,-264 529.97,-264 529.97,-316"/>
<text text-anchor="start" x="400.97" y="-304" font-family="Helvetica,sans-Serif" font-size="10.00">/home/runner/work/lethe</text>
<text text-anchor="start" x="400.97" y="-293" font-family="Helvetica,sans-Serif" font-size="10.00">/lethe/source/solvers</text>
<text text-anchor="start" x="400.97" y="-282" font-family="Helvetica,sans-Serif" font-size="10.00">/fluid_dynamics_matrix</text>
<text text-anchor="middle" x="461.47" y="-271" font-family="Helvetica,sans-Serif" font-size="10.00">_free_operators.cc</text>
</a>
</g>
</g>
<!-- Node1&#45;&gt;Node10 -->
<g id="edge11_Node000001_Node000010" class="edge">
<title>Node1&#45;&gt;Node10</title>
<g id="a_edge11_Node000001_Node000010"><a xlink:title=" ">
<path fill="none" stroke="#63b8ff" d="M350.81,-347.31C370.77,-337.16 392.89,-325.9 412.08,-316.14"/>
<polygon fill="#63b8ff" stroke="#63b8ff" points="349.13,-344.24 341.81,-351.89 352.31,-350.48 349.13,-344.24"/>
</a>
</g>
</g>
<!-- Node3 -->
<g id="Node000003" class="node">
<title>Node3</title>
<g id="a_Node000003"><a xlink:href="cfd__dem__coupling__matrix__free_8cc.html" target="_top" xlink:title=" ">
<polygon fill="white" stroke="#666666" points="299.47,-52 153.47,-52 153.47,0 299.47,0 299.47,-52"/>
<text text-anchor="start" x="161.47" y="-40" font-family="Helvetica,sans-Serif" font-size="10.00">/home/runner/work/lethe</text>
<text text-anchor="start" x="161.47" y="-29" font-family="Helvetica,sans-Serif" font-size="10.00">/lethe/source/fem&#45;dem</text>
<text text-anchor="start" x="161.47" y="-18" font-family="Helvetica,sans-Serif" font-size="10.00">/cfd_dem_coupling_matrix</text>
<text text-anchor="middle" x="226.47" y="-7" font-family="Helvetica,sans-Serif" font-size="10.00">_free.cc</text>
</a>
</g>
</g>
<!-- Node2&#45;&gt;Node3 -->
<g id="edge2_Node000002_Node000003" class="edge">
<title>Node2&#45;&gt;Node3</title>
<g id="a_edge2_Node000002_Node000003"><a xlink:title=" ">
<path fill="none" stroke="#63b8ff" d="M35.89,-169.88C25.26,-161.68 15.67,-151.75 9.47,-140 -1.3,-119.55 -4.48,-106.42 9.47,-88 27.05,-64.8 97.46,-47.97 153.38,-37.93"/>
<polygon fill="#63b8ff" stroke="#63b8ff" points="34.02,-172.84 44.19,-175.82 38.09,-167.15 34.02,-172.84"/>
</a>
</g>
</g>
<!-- Node4 -->
<g id="Node000004" class="node">
<title>Node4</title>
<g id="a_Node000004"><a xlink:href="fluid__dynamics__vans__matrix__free_8cc.html" target="_top" xlink:title=" ">
<polygon fill="white" stroke="#666666" points="354.97,-140 195.97,-140 195.97,-88 354.97,-88 354.97,-140"/>
<text text-anchor="start" x="203.97" y="-128" font-family="Helvetica,sans-Serif" font-size="10.00">/home/runner/work/lethe</text>
<text text-anchor="start" x="203.97" y="-117" font-family="Helvetica,sans-Serif" font-size="10.00">/lethe/source/fem&#45;dem</text>
<text text-anchor="start" x="203.97" y="-106" font-family="Helvetica,sans-Serif" font-size="10.00">/fluid_dynamics_vans_matrix</text>
<text text-anchor="middle" x="275.47" y="-95" font-family="Helvetica,sans-Serif" font-size="10.00">_free.cc</text>
</a>
</g>
</g>
<!-- Node2&#45;&gt;Node4 -->
<g id="edge3_Node000002_Node000004" class="edge">
<title>Node2&#45;&gt;Node4</title>
<g id="a_edge3_Node000002_Node000004"><a xlink:title=" ">
<path fill="none" stroke="#63b8ff" d="M159.29,-171.45C180.27,-161.26 203.55,-149.94 223.74,-140.14"/>
<polygon fill="#63b8ff" stroke="#63b8ff" points="157.61,-168.38 150.14,-175.89 160.67,-174.67 157.61,-168.38"/>
</a>
</g>
</g>
<!-- Node5 -->
<g id="Node000005" class="node">
<title>Node5</title>
<g id="a_Node000005"><a xlink:href="fluid__dynamics__vans__matrix__free__operators_8cc.html" target="_top" xlink:title=" ">
<polygon fill="white" stroke="#666666" points="177.97,-140 18.97,-140 18.97,-88 177.97,-88 177.97,-140"/>
<text text-anchor="start" x="26.97" y="-128" font-family="Helvetica,sans-Serif" font-size="10.00">/home/runner/work/lethe</text>
<text text-anchor="start" x="26.97" y="-117" font-family="Helvetica,sans-Serif" font-size="10.00">/lethe/source/fem&#45;dem</text>
<text text-anchor="start" x="26.97" y="-106" font-family="Helvetica,sans-Serif" font-size="10.00">/fluid_dynamics_vans_matrix</text>
<text text-anchor="middle" x="98.47" y="-95" font-family="Helvetica,sans-Serif" font-size="10.00">_free_operators.cc</text>
</a>
</g>
</g>
<!-- Node2&#45;&gt;Node5 -->
<g id="edge4_Node000002_Node000005" class="edge">
<title>Node2&#45;&gt;Node5</title>
<g id="a_edge4_Node000002_Node000005"><a xlink:title=" ">
<path fill="none" stroke="#63b8ff" d="M98.47,-165.56C98.47,-157.04 98.47,-148.1 98.47,-140.16"/>
<polygon fill="#63b8ff" stroke="#63b8ff" points="94.97,-165.66 98.47,-175.66 101.97,-165.66 94.97,-165.66"/>
</a>
</g>
</g>
<!-- Node7 -->
<g id="Node000007" class="node">
<title>Node7</title>
<g id="a_Node000007"><a xlink:href="fluid__dynamics__vans__matrix__free_8h.html" target="_top" xlink:title=" ">
<polygon fill="white" stroke="#666666" points="388.97,-222.5 195.97,-222.5 195.97,-181.5 388.97,-181.5 388.97,-222.5"/>
<text text-anchor="start" x="203.97" y="-210.5" font-family="Helvetica,sans-Serif" font-size="10.00">/home/runner/work/lethe</text>
<text text-anchor="start" x="203.97" y="-199.5" font-family="Helvetica,sans-Serif" font-size="10.00">/lethe/include/fem&#45;dem</text>
<text text-anchor="middle" x="292.47" y="-188.5" font-family="Helvetica,sans-Serif" font-size="10.00">/fluid_dynamics_vans_matrix_free.h</text>
</a>
</g>
</g>
<!-- Node6&#45;&gt;Node7 -->
<g id="edge6_Node000006_Node000007" class="edge">
<title>Node6&#45;&gt;Node7</title>
<g id="a_edge6_Node000006_Node000007"><a xlink:title=" ">
<path fill="none" stroke="#63b8ff" d="M292.47,-259.36C292.47,-247.26 292.47,-233.58 292.47,-222.74"/>
<polygon fill="#63b8ff" stroke="#63b8ff" points="288.97,-259.49 292.47,-269.49 295.97,-259.49 288.97,-259.49"/>
</a>
</g>
</g>
<!-- Node9 -->
<g id="Node000009" class="node">
<title>Node9</title>
<g id="a_Node000009"><a xlink:href="fluid__dynamics__matrix__free_8cc.html" target="_top" xlink:title=" ">
<polygon fill="white" stroke="#666666" points="543.97,-228 406.97,-228 406.97,-176 543.97,-176 543.97,-228"/>
<text text-anchor="start" x="414.97" y="-216" font-family="Helvetica,sans-Serif" font-size="10.00">/home/runner/work/lethe</text>
<text text-anchor="start" x="414.97" y="-205" font-family="Helvetica,sans-Serif" font-size="10.00">/lethe/source/solvers</text>
<text text-anchor="start" x="414.97" y="-194" font-family="Helvetica,sans-Serif" font-size="10.00">/fluid_dynamics_matrix</text>
<text text-anchor="middle" x="475.47" y="-183" font-family="Helvetica,sans-Serif" font-size="10.00">_free.cc</text>
</a>
</g>
</g>
<!-- Node6&#45;&gt;Node9 -->
<g id="edge10_Node000006_Node000009" class="edge">
<title>Node6&#45;&gt;Node9</title>
<g id="a_edge10_Node000006_Node000009"><a xlink:title=" ">
<path fill="none" stroke="#63b8ff" d="M343.13,-265.19C367.64,-253.68 397.06,-239.85 421.94,-228.16"/>
<polygon fill="#63b8ff" stroke="#63b8ff" points="341.56,-262.06 334,-269.49 344.54,-268.4 341.56,-262.06"/>
</a>
</g>
</g>
<!-- Node7&#45;&gt;Node4 -->
<g id="edge9_Node000007_Node000004" class="edge">
<title>Node7&#45;&gt;Node4</title>
<g id="a_edge9_Node000007_Node000004"><a xlink:title=" ">
<path fill="none" stroke="#63b8ff" d="M286.63,-171.44C284.63,-161.31 282.41,-150.08 280.48,-140.32"/>
<polygon fill="#63b8ff" stroke="#63b8ff" points="283.24,-172.35 288.62,-181.49 290.11,-171 283.24,-172.35"/>
</a>
</g>
</g>
<!-- Node8 -->
<g id="Node000008" class="node">
<title>Node8</title>
<g id="a_Node000008"><a xlink:href="cfd__dem__coupling__matrix__free_8h.html" target="_top" xlink:title=" ">
<polygon fill="white" stroke="#666666" points="551.97,-134.5 372.97,-134.5 372.97,-93.5 551.97,-93.5 551.97,-134.5"/>
<text text-anchor="start" x="380.97" y="-122.5" font-family="Helvetica,sans-Serif" font-size="10.00">/home/runner/work/lethe</text>
<text text-anchor="start" x="380.97" y="-111.5" font-family="Helvetica,sans-Serif" font-size="10.00">/lethe/include/fem&#45;dem</text>
<text text-anchor="middle" x="462.47" y="-100.5" font-family="Helvetica,sans-Serif" font-size="10.00">/cfd_dem_coupling_matrix_free.h</text>
</a>
</g>
</g>
<!-- Node7&#45;&gt;Node8 -->
<g id="edge7_Node000007_Node000008" class="edge">
<title>Node7&#45;&gt;Node8</title>
<g id="a_edge7_Node000007_Node000008"><a xlink:title=" ">
<path fill="none" stroke="#63b8ff" d="M340.12,-176.9C366.52,-163.54 398.93,-147.15 423.76,-134.59"/>
<polygon fill="#63b8ff" stroke="#63b8ff" points="338.39,-173.85 331.05,-181.49 341.55,-180.09 338.39,-173.85"/>
</a>
</g>
</g>
<!-- Node8&#45;&gt;Node3 -->
<g id="edge8_Node000008_Node000003" class="edge">
<title>Node8&#45;&gt;Node3</title>
<g id="a_edge8_Node000008_Node000003"><a xlink:title=" ">
<path fill="none" stroke="#63b8ff" d="M399.22,-89.95C367.21,-78.29 328.3,-64.11 295.51,-52.16"/>
<polygon fill="#63b8ff" stroke="#63b8ff" points="398.33,-93.35 408.92,-93.49 400.72,-86.77 398.33,-93.35"/>
</a>
</g>
</g>
</g>
</svg>
