<?xml version="1.0" encoding="UTF-8" standalone="no"?>
<!DOCTYPE svg PUBLIC "-//W3C//DTD SVG 1.1//EN"
 "http://www.w3.org/Graphics/SVG/1.1/DTD/svg11.dtd">
<!-- Generated by graphviz version 2.43.0 (0)
 -->
<!-- Title: /home/runner/work/lethe/lethe/include/dem/force_chains_visualization.h Pages: 1 -->
<svg width="883pt" height="390pt"
 viewBox="0.00 0.00 883.00 390.00" xmlns="http://www.w3.org/2000/svg" xmlns:xlink="http://www.w3.org/1999/xlink">
<g id="graph0" class="graph" transform="scale(1 1) rotate(0) translate(4 386)">
<title>/home/runner/work/lethe/lethe/include/dem/force_chains_visualization.h</title>
<!-- Node1 -->
<g id="Node000001" class="node">
<title>Node1</title>
<g id="a_Node000001"><a xlink:title=" ">
<polygon fill="#999999" stroke="#666666" points="728,-382 591,-382 591,-341 728,-341 728,-382"/>
<text text-anchor="start" x="599" y="-370" font-family="Helvetica,sans-Serif" font-size="10.00">/home/runner/work/lethe</text>
<text text-anchor="start" x="599" y="-359" font-family="Helvetica,sans-Serif" font-size="10.00">/lethe/include/dem/force</text>
<text text-anchor="middle" x="659.5" y="-348" font-family="Helvetica,sans-Serif" font-size="10.00">_chains_visualization.h</text>
</a>
</g>
</g>
<!-- Node2 -->
<g id="Node000002" class="node">
<title>Node2</title>
<g id="a_Node000002"><a xlink:href="dem_8h.html" target="_top" xlink:title=" ">
<polygon fill="white" stroke="#666666" points="383,-294 242,-294 242,-264 383,-264 383,-294"/>
<text text-anchor="start" x="250" y="-282" font-family="Helvetica,sans-Serif" font-size="10.00">/home/runner/work/lethe</text>
<text text-anchor="middle" x="312.5" y="-271" font-family="Helvetica,sans-Serif" font-size="10.00">/lethe/include/dem/dem.h</text>
</a>
</g>
</g>
<!-- Node1&#45;&gt;Node2 -->
<g id="edge1_Node000001_Node000002" class="edge">
<title>Node1&#45;&gt;Node2</title>
<g id="a_edge1_Node000001_Node000002"><a xlink:title=" ">
<path fill="none" stroke="#63b8ff" d="M581.05,-342.3C518.03,-327.68 430.81,-307.45 373.08,-294.05"/>
<polygon fill="#63b8ff" stroke="#63b8ff" points="580.41,-345.75 590.94,-344.6 581.99,-338.93 580.41,-345.75"/>
</a>
</g>
</g>
<!-- Node10 -->
<g id="Node000010" class="node">
<title>Node10</title>
<g id="a_Node000010"><a xlink:href="set__particle__particle__contact__force__model_8h.html" target="_top" xlink:title=" ">
<polygon fill="white" stroke="#666666" points="681.5,-305 539.5,-305 539.5,-253 681.5,-253 681.5,-305"/>
<text text-anchor="start" x="547.5" y="-293" font-family="Helvetica,sans-Serif" font-size="10.00">/home/runner/work/lethe</text>
<text text-anchor="start" x="547.5" y="-282" font-family="Helvetica,sans-Serif" font-size="10.00">/lethe/include/dem/set</text>
<text text-anchor="start" x="547.5" y="-271" font-family="Helvetica,sans-Serif" font-size="10.00">_particle_particle_contact</text>
<text text-anchor="middle" x="610.5" y="-260" font-family="Helvetica,sans-Serif" font-size="10.00">_force_model.h</text>
</a>
</g>
</g>
<!-- Node1&#45;&gt;Node10 -->
<g id="edge10_Node000001_Node000010" class="edge">
<title>Node1&#45;&gt;Node10</title>
<g id="a_edge10_Node000001_Node000010"><a xlink:title=" ">
<path fill="none" stroke="#63b8ff" d="M642.08,-331.88C636.77,-323.15 630.97,-313.63 625.81,-305.16"/>
<polygon fill="#63b8ff" stroke="#63b8ff" points="639.2,-333.88 647.39,-340.6 645.18,-330.24 639.2,-333.88"/>
</a>
</g>
</g>
<!-- Node11 -->
<g id="Node000011" class="node">
<title>Node11</title>
<g id="a_Node000011"><a xlink:href="set__particle__particle__contact__force__model_8cc.html" target="_top" xlink:title=" ">
<polygon fill="white" stroke="#666666" points="799.5,-217 657.5,-217 657.5,-165 799.5,-165 799.5,-217"/>
<text text-anchor="start" x="665.5" y="-205" font-family="Helvetica,sans-Serif" font-size="10.00">/home/runner/work/lethe</text>
<text text-anchor="start" x="665.5" y="-194" font-family="Helvetica,sans-Serif" font-size="10.00">/lethe/source/dem/set</text>
<text text-anchor="start" x="665.5" y="-183" font-family="Helvetica,sans-Serif" font-size="10.00">_particle_particle_contact</text>
<text text-anchor="middle" x="728.5" y="-172" font-family="Helvetica,sans-Serif" font-size="10.00">_force_model.cc</text>
</a>
</g>
</g>
<!-- Node1&#45;&gt;Node11 -->
<g id="edge16_Node000001_Node000011" class="edge">
<title>Node1&#45;&gt;Node11</title>
<g id="a_edge16_Node000001_Node000011"><a xlink:title=" ">
<path fill="none" stroke="#63b8ff" d="M676.69,-332.1C681.5,-323.55 686.5,-314.04 690.5,-305 703.49,-275.67 714.68,-240.43 721.49,-217.19"/>
<polygon fill="#63b8ff" stroke="#63b8ff" points="673.57,-330.51 671.61,-340.92 679.63,-334 673.57,-330.51"/>
</a>
</g>
</g>
<!-- Node12 -->
<g id="Node000012" class="node">
<title>Node12</title>
<g id="a_Node000012"><a xlink:href="force__chains__visualization_8cc.html" target="_top" xlink:title=" ">
<polygon fill="white" stroke="#666666" points="875,-299.5 738,-299.5 738,-258.5 875,-258.5 875,-299.5"/>
<text text-anchor="start" x="746" y="-287.5" font-family="Helvetica,sans-Serif" font-size="10.00">/home/runner/work/lethe</text>
<text text-anchor="start" x="746" y="-276.5" font-family="Helvetica,sans-Serif" font-size="10.00">/lethe/source/dem/force</text>
<text text-anchor="middle" x="806.5" y="-265.5" font-family="Helvetica,sans-Serif" font-size="10.00">_chains_visualization.cc</text>
</a>
</g>
</g>
<!-- Node1&#45;&gt;Node12 -->
<g id="edge15_Node000001_Node000012" class="edge">
<title>Node1&#45;&gt;Node12</title>
<g id="a_edge15_Node000001_Node000012"><a xlink:title=" ">
<path fill="none" stroke="#63b8ff" d="M704.32,-335.96C725.59,-324.31 750.67,-310.57 770.66,-299.63"/>
<polygon fill="#63b8ff" stroke="#63b8ff" points="702.55,-332.93 695.46,-340.81 705.91,-339.07 702.55,-332.93"/>
</a>
</g>
</g>
<!-- Node3 -->
<g id="Node000003" class="node">
<title>Node3</title>
<g id="a_Node000003"><a xlink:href="cfd__dem__coupling_8h.html" target="_top" xlink:title=" ">
<polygon fill="white" stroke="#666666" points="292,-123.5 155,-123.5 155,-82.5 292,-82.5 292,-123.5"/>
<text text-anchor="start" x="163" y="-111.5" font-family="Helvetica,sans-Serif" font-size="10.00">/home/runner/work/lethe</text>
<text text-anchor="start" x="163" y="-100.5" font-family="Helvetica,sans-Serif" font-size="10.00">/lethe/include/fem&#45;dem</text>
<text text-anchor="middle" x="223.5" y="-89.5" font-family="Helvetica,sans-Serif" font-size="10.00">/cfd_dem_coupling.h</text>
</a>
</g>
</g>
<!-- Node2&#45;&gt;Node3 -->
<g id="edge2_Node000002_Node000003" class="edge">
<title>Node2&#45;&gt;Node3</title>
<g id="a_edge2_Node000002_Node000003"><a xlink:title=" ">
<path fill="none" stroke="#63b8ff" d="M262.3,-259.57C243.51,-249.94 224.16,-236.09 213.5,-217 197.18,-187.77 206.94,-147.53 215.35,-123.79"/>
<polygon fill="#63b8ff" stroke="#63b8ff" points="260.91,-262.79 271.43,-263.97 263.94,-256.48 260.91,-262.79"/>
</a>
</g>
</g>
<!-- Node5 -->
<g id="Node000005" class="node">
<title>Node5</title>
<g id="a_Node000005"><a xlink:href="cfd__dem__coupling__matrix__free_8h.html" target="_top" xlink:title=" ">
<polygon fill="white" stroke="#666666" points="402,-211.5 223,-211.5 223,-170.5 402,-170.5 402,-211.5"/>
<text text-anchor="start" x="231" y="-199.5" font-family="Helvetica,sans-Serif" font-size="10.00">/home/runner/work/lethe</text>
<text text-anchor="start" x="231" y="-188.5" font-family="Helvetica,sans-Serif" font-size="10.00">/lethe/include/fem&#45;dem</text>
<text text-anchor="middle" x="312.5" y="-177.5" font-family="Helvetica,sans-Serif" font-size="10.00">/cfd_dem_coupling_matrix_free.h</text>
</a>
</g>
</g>
<!-- Node2&#45;&gt;Node5 -->
<g id="edge4_Node000002_Node000005" class="edge">
<title>Node2&#45;&gt;Node5</title>
<g id="a_edge4_Node000002_Node000005"><a xlink:title=" ">
<path fill="none" stroke="#63b8ff" d="M312.5,-253.5C312.5,-240.25 312.5,-224.11 312.5,-211.69"/>
<polygon fill="#63b8ff" stroke="#63b8ff" points="309,-253.8 312.5,-263.8 316,-253.8 309,-253.8"/>
</a>
</g>
</g>
<!-- Node7 -->
<g id="Node000007" class="node">
<title>Node7</title>
<g id="a_Node000007"><a xlink:href="fluid__dynamics__vans_8h.html" target="_top" xlink:title=" ">
<polygon fill="white" stroke="#666666" points="166,-211.5 29,-211.5 29,-170.5 166,-170.5 166,-211.5"/>
<text text-anchor="start" x="37" y="-199.5" font-family="Helvetica,sans-Serif" font-size="10.00">/home/runner/work/lethe</text>
<text text-anchor="start" x="37" y="-188.5" font-family="Helvetica,sans-Serif" font-size="10.00">/lethe/include/fem&#45;dem</text>
<text text-anchor="middle" x="97.5" y="-177.5" font-family="Helvetica,sans-Serif" font-size="10.00">/fluid_dynamics_vans.h</text>
</a>
</g>
</g>
<!-- Node2&#45;&gt;Node7 -->
<g id="edge6_Node000002_Node000007" class="edge">
<title>Node2&#45;&gt;Node7</title>
<g id="a_edge6_Node000002_Node000007"><a xlink:title=" ">
<path fill="none" stroke="#63b8ff" d="M267.89,-260.16C232.49,-246 183.06,-226.23 146.56,-211.62"/>
<polygon fill="#63b8ff" stroke="#63b8ff" points="266.89,-263.53 277.48,-263.99 269.49,-257.03 266.89,-263.53"/>
</a>
</g>
</g>
<!-- Node9 -->
<g id="Node000009" class="node">
<title>Node9</title>
<g id="a_Node000009"><a xlink:href="dem_8cc.html" target="_top" xlink:title=" ">
<polygon fill="white" stroke="#666666" points="563,-206 420,-206 420,-176 563,-176 563,-206"/>
<text text-anchor="start" x="428" y="-194" font-family="Helvetica,sans-Serif" font-size="10.00">/home/runner/work/lethe</text>
<text text-anchor="middle" x="491.5" y="-183" font-family="Helvetica,sans-Serif" font-size="10.00">/lethe/source/dem/dem.cc</text>
</a>
</g>
</g>
<!-- Node2&#45;&gt;Node9 -->
<g id="edge9_Node000002_Node000009" class="edge">
<title>Node2&#45;&gt;Node9</title>
<g id="a_edge9_Node000002_Node000009"><a xlink:title=" ">
<path fill="none" stroke="#63b8ff" d="M350.67,-259.66C384.09,-243.6 431.93,-220.62 462.35,-206"/>
<polygon fill="#63b8ff" stroke="#63b8ff" points="349.16,-256.51 341.66,-263.99 352.19,-262.82 349.16,-256.51"/>
</a>
</g>
</g>
<!-- Node4 -->
<g id="Node000004" class="node">
<title>Node4</title>
<g id="a_Node000004"><a xlink:href="cfd__dem__coupling_8cc.html" target="_top" xlink:title=" ">
<polygon fill="white" stroke="#666666" points="495,-41 358,-41 358,0 495,0 495,-41"/>
<text text-anchor="start" x="366" y="-29" font-family="Helvetica,sans-Serif" font-size="10.00">/home/runner/work/lethe</text>
<text text-anchor="start" x="366" y="-18" font-family="Helvetica,sans-Serif" font-size="10.00">/lethe/source/fem&#45;dem</text>
<text text-anchor="middle" x="426.5" y="-7" font-family="Helvetica,sans-Serif" font-size="10.00">/cfd_dem_coupling.cc</text>
</a>
</g>
</g>
<!-- Node3&#45;&gt;Node4 -->
<g id="edge3_Node000003_Node000004" class="edge">
<title>Node3&#45;&gt;Node4</title>
<g id="a_edge3_Node000003_Node000004"><a xlink:title=" ">
<path fill="none" stroke="#63b8ff" d="M282.43,-78.63C312.5,-66.71 348.66,-52.37 377.23,-41.04"/>
<polygon fill="#63b8ff" stroke="#63b8ff" points="280.91,-75.47 272.9,-82.41 283.49,-81.98 280.91,-75.47"/>
</a>
</g>
</g>
<!-- Node6 -->
<g id="Node000006" class="node">
<title>Node6</title>
<g id="a_Node000006"><a xlink:href="cfd__dem__coupling__matrix__free_8cc.html" target="_top" xlink:title=" ">
<polygon fill="white" stroke="#666666" points="529.5,-129 383.5,-129 383.5,-77 529.5,-77 529.5,-129"/>
<text text-anchor="start" x="391.5" y="-117" font-family="Helvetica,sans-Serif" font-size="10.00">/home/runner/work/lethe</text>
<text text-anchor="start" x="391.5" y="-106" font-family="Helvetica,sans-Serif" font-size="10.00">/lethe/source/fem&#45;dem</text>
<text text-anchor="start" x="391.5" y="-95" font-family="Helvetica,sans-Serif" font-size="10.00">/cfd_dem_coupling_matrix</text>
<text text-anchor="middle" x="456.5" y="-84" font-family="Helvetica,sans-Serif" font-size="10.00">_free.cc</text>
</a>
</g>
</g>
<!-- Node5&#45;&gt;Node6 -->
<g id="edge5_Node000005_Node000006" class="edge">
<title>Node5&#45;&gt;Node6</title>
<g id="a_edge5_Node000005_Node000006"><a xlink:title=" ">
<path fill="none" stroke="#63b8ff" d="M353.9,-165.28C372.87,-153.95 395.32,-140.54 414.38,-129.16"/>
<polygon fill="#63b8ff" stroke="#63b8ff" points="351.97,-162.35 345.18,-170.49 355.56,-168.36 351.97,-162.35"/>
</a>
</g>
</g>
<!-- Node7&#45;&gt;Node3 -->
<g id="edge7_Node000007_Node000003" class="edge">
<title>Node7&#45;&gt;Node3</title>
<g id="a_edge7_Node000007_Node000003"><a xlink:title=" ">
<path fill="none" stroke="#63b8ff" d="M134.59,-164.69C153.74,-151.61 176.77,-135.9 194.59,-123.74"/>
<polygon fill="#63b8ff" stroke="#63b8ff" points="132.38,-161.96 126.09,-170.49 136.32,-167.74 132.38,-161.96"/>
</a>
</g>
</g>
<!-- Node8 -->
<g id="Node000008" class="node">
<title>Node8</title>
<g id="a_Node000008"><a xlink:href="fluid__dynamics__vans_8cc.html" target="_top" xlink:title=" ">
<polygon fill="white" stroke="#666666" points="137,-123.5 0,-123.5 0,-82.5 137,-82.5 137,-123.5"/>
<text text-anchor="start" x="8" y="-111.5" font-family="Helvetica,sans-Serif" font-size="10.00">/home/runner/work/lethe</text>
<text text-anchor="start" x="8" y="-100.5" font-family="Helvetica,sans-Serif" font-size="10.00">/lethe/source/fem&#45;dem</text>
<text text-anchor="middle" x="68.5" y="-89.5" font-family="Helvetica,sans-Serif" font-size="10.00">/fluid_dynamics_vans.cc</text>
</a>
</g>
</g>
<!-- Node7&#45;&gt;Node8 -->
<g id="edge8_Node000007_Node000008" class="edge">
<title>Node7&#45;&gt;Node8</title>
<g id="a_edge8_Node000007_Node000008"><a xlink:title=" ">
<path fill="none" stroke="#63b8ff" d="M87.63,-160.73C83.52,-148.53 78.85,-134.69 75.15,-123.74"/>
<polygon fill="#63b8ff" stroke="#63b8ff" points="84.41,-162.13 90.92,-170.49 91.04,-159.89 84.41,-162.13"/>
</a>
</g>
</g>
<!-- Node10&#45;&gt;Node4 -->
<g id="edge13_Node000010_Node000004" class="edge">
<title>Node10&#45;&gt;Node4</title>
<g id="a_edge13_Node000010_Node000004"><a xlink:title=" ">
<path fill="none" stroke="#63b8ff" d="M611.59,-242.71C611.21,-219.89 608.64,-189.92 599.5,-165 583.11,-120.32 574.52,-108.11 538.5,-77 521.26,-62.11 499.31,-50.09 479.43,-41.1"/>
<polygon fill="#63b8ff" stroke="#63b8ff" points="608.09,-242.97 611.62,-252.96 615.09,-242.95 608.09,-242.97"/>
</a>
</g>
</g>
<!-- Node10&#45;&gt;Node6 -->
<g id="edge14_Node000010_Node000006" class="edge">
<title>Node10&#45;&gt;Node6</title>
<g id="a_edge14_Node000010_Node000006"><a xlink:title=" ">
<path fill="none" stroke="#63b8ff" d="M605.74,-243.01C600.89,-218.79 591.29,-187.06 572.5,-165 559.74,-150.02 542.36,-138.19 524.93,-129.11"/>
<polygon fill="#63b8ff" stroke="#63b8ff" points="602.3,-243.67 607.54,-252.88 609.19,-242.42 602.3,-243.67"/>
</a>
</g>
</g>
<!-- Node10&#45;&gt;Node9 -->
<g id="edge11_Node000010_Node000009" class="edge">
<title>Node10&#45;&gt;Node9</title>
<g id="a_edge11_Node000010_Node000009"><a xlink:title=" ">
<path fill="none" stroke="#63b8ff" d="M567.63,-247.02C548.22,-232.99 526.24,-217.11 510.91,-206.03"/>
<polygon fill="#63b8ff" stroke="#63b8ff" points="565.61,-249.87 575.76,-252.89 569.71,-244.2 565.61,-249.87"/>
</a>
</g>
</g>
<!-- Node10&#45;&gt;Node11 -->
<g id="edge12_Node000010_Node000011" class="edge">
<title>Node10&#45;&gt;Node11</title>
<g id="a_edge12_Node000010_Node000011"><a xlink:title=" ">
<path fill="none" stroke="#63b8ff" d="M653.09,-246.96C666.46,-237.22 681.05,-226.58 693.81,-217.29"/>
<polygon fill="#63b8ff" stroke="#63b8ff" points="650.97,-244.18 644.95,-252.89 655.09,-249.83 650.97,-244.18"/>
</a>
</g>
</g>
</g>
</svg>
