<?xml version="1.0" encoding="UTF-8" standalone="no"?>
<!DOCTYPE svg PUBLIC "-//W3C//DTD SVG 1.1//EN"
 "http://www.w3.org/Graphics/SVG/1.1/DTD/svg11.dtd">
<!-- Generated by graphviz version 2.43.0 (0)
 -->
<!-- Title: /home/runner/work/lethe/lethe/include/core/grids.h Pages: 1 -->
<svg width="2552pt" height="412pt"
 viewBox="0.00 0.00 2552.15 412.00" xmlns="http://www.w3.org/2000/svg" xmlns:xlink="http://www.w3.org/1999/xlink">
<g id="graph0" class="graph" transform="scale(1 1) rotate(0) translate(4 408)">
<title>/home/runner/work/lethe/lethe/include/core/grids.h</title>
<!-- Node1 -->
<g id="Node000001" class="node">
<title>Node1</title>
<g id="a_Node000001"><a xlink:title=" ">
<polygon fill="#999999" stroke="#666666" points="333.5,-404 190.5,-404 190.5,-374 333.5,-374 333.5,-404"/>
<text text-anchor="start" x="198.5" y="-392" font-family="Helvetica,sans-Serif" font-size="10.00">/home/runner/work/lethe</text>
<text text-anchor="middle" x="262" y="-381" font-family="Helvetica,sans-Serif" font-size="10.00">/lethe/include/core/grids.h</text>
</a>
</g>
</g>
<!-- Node2 -->
<g id="Node000002" class="node">
<title>Node2</title>
<g id="a_Node000002"><a xlink:href="boundary__conditions_8h.html" target="_top" xlink:title=" ">
<polygon fill="white" stroke="#666666" points="639.5,-217 488.5,-217 488.5,-198 639.5,-198 639.5,-217"/>
<text text-anchor="middle" x="564" y="-205" font-family="Helvetica,sans-Serif" font-size="10.00">core/boundary_conditions.h</text>
</a>
</g>
</g>
<!-- Node1&#45;&gt;Node2 -->
<g id="edge1_Node000001_Node000002" class="edge">
<title>Node1&#45;&gt;Node2</title>
<g id="a_edge1_Node000001_Node000002"><a xlink:title=" ">
<path fill="none" stroke="#63b8ff" d="M268.41,-373.93C281.86,-346.09 315.82,-283.98 364,-253 397.92,-231.19 441.02,-219.97 478.52,-214.24"/>
<polygon fill="#63b8ff" stroke="#63b8ff" points="479.02,-217.7 488.43,-212.83 478.03,-210.77 479.02,-217.7"/>
</a>
</g>
</g>
<!-- Node24 -->
<g id="Node000024" class="node">
<title>Node24</title>
<g id="a_Node000024"><a xlink:href="manifolds_8h.html" target="_top" xlink:title=" ">
<polygon fill="white" stroke="#666666" points="177,-217 79,-217 79,-198 177,-198 177,-217"/>
<text text-anchor="middle" x="128" y="-205" font-family="Helvetica,sans-Serif" font-size="10.00">core/manifolds.h</text>
</a>
</g>
</g>
<!-- Node1&#45;&gt;Node24 -->
<g id="edge26_Node000001_Node000024" class="edge">
<title>Node1&#45;&gt;Node24</title>
<g id="a_edge26_Node000001_Node000024"><a xlink:title=" ">
<path fill="none" stroke="#63b8ff" d="M251.49,-373.91C227.13,-341.29 166.93,-260.65 140.63,-225.42"/>
<polygon fill="#63b8ff" stroke="#63b8ff" points="143.23,-223.05 134.45,-217.13 137.62,-227.24 143.23,-223.05"/>
</a>
</g>
</g>
<!-- Node25 -->
<g id="Node000025" class="node">
<title>Node25</title>
<g id="a_Node000025"><a xlink:title=" ">
<polygon fill="#e0e0e0" stroke="#999999" points="102,-162 0,-162 0,-132 102,-132 102,-162"/>
<text text-anchor="start" x="8" y="-150" font-family="Helvetica,sans-Serif" font-size="10.00">deal.II/distributed</text>
<text text-anchor="middle" x="51" y="-139" font-family="Helvetica,sans-Serif" font-size="10.00">/tria_base.h</text>
</a>
</g>
</g>
<!-- Node1&#45;&gt;Node25 -->
<g id="edge62_Node000001_Node000025" class="edge">
<title>Node1&#45;&gt;Node25</title>
<g id="a_edge62_Node000001_Node000025"><a xlink:title=" ">
<path fill="none" stroke="#63b8ff" d="M238.9,-373.92C198.4,-348.03 114.64,-288.85 70,-217 61.62,-203.51 56.87,-186.29 54.22,-172.42"/>
<polygon fill="#63b8ff" stroke="#63b8ff" points="57.6,-171.45 52.51,-162.16 50.7,-172.6 57.6,-171.45"/>
</a>
</g>
</g>
<!-- Node26 -->
<g id="Node000026" class="node">
<title>Node26</title>
<g id="a_Node000026"><a xlink:href="parameters_8h.html" target="_top" xlink:title=" ">
<polygon fill="white" stroke="#666666" points="560,-338 454,-338 454,-319 560,-319 560,-338"/>
<text text-anchor="middle" x="507" y="-326" font-family="Helvetica,sans-Serif" font-size="10.00">core/parameters.h</text>
</a>
</g>
</g>
<!-- Node1&#45;&gt;Node26 -->
<g id="edge31_Node000001_Node000026" class="edge">
<title>Node1&#45;&gt;Node26</title>
<g id="a_edge31_Node000001_Node000026"><a xlink:title=" ">
<path fill="none" stroke="#63b8ff" d="M320.68,-373.99C363.79,-363.7 421.52,-349.91 461.24,-340.43"/>
<polygon fill="#63b8ff" stroke="#63b8ff" points="462.26,-343.78 471.18,-338.05 460.64,-336.97 462.26,-343.78"/>
</a>
</g>
</g>
<!-- Node3 -->
<g id="Node000003" class="node">
<title>Node3</title>
<g id="a_Node000003"><a xlink:href="core_2utilities_8h.html" target="_top" xlink:title=" ">
<polygon fill="white" stroke="#666666" points="678,-156.5 592,-156.5 592,-137.5 678,-137.5 678,-156.5"/>
<text text-anchor="middle" x="635" y="-144.5" font-family="Helvetica,sans-Serif" font-size="10.00">core/utilities.h</text>
</a>
</g>
</g>
<!-- Node2&#45;&gt;Node3 -->
<g id="edge2_Node000002_Node000003" class="edge">
<title>Node2&#45;&gt;Node3</title>
<g id="a_edge2_Node000002_Node000003"><a xlink:title=" ">
<path fill="none" stroke="#63b8ff" d="M574.48,-197.87C585.49,-188.8 603.04,-174.34 616.41,-163.32"/>
<polygon fill="#63b8ff" stroke="#63b8ff" points="618.99,-165.73 624.48,-156.67 614.54,-160.33 618.99,-165.73"/>
</a>
</g>
</g>
<!-- Node8 -->
<g id="Node000008" class="node">
<title>Node8</title>
<g id="a_Node000008"><a xlink:title=" ">
<polygon fill="#e0e0e0" stroke="#999999" points="285.5,-96 158.5,-96 158.5,-66 285.5,-66 285.5,-96"/>
<text text-anchor="start" x="166.5" y="-84" font-family="Helvetica,sans-Serif" font-size="10.00">deal.II/base/parameter</text>
<text text-anchor="middle" x="222" y="-73" font-family="Helvetica,sans-Serif" font-size="10.00">_handler.h</text>
</a>
</g>
</g>
<!-- Node2&#45;&gt;Node8 -->
<g id="edge22_Node000002_Node000008" class="edge">
<title>Node2&#45;&gt;Node8</title>
<g id="a_edge22_Node000002_Node000008"><a xlink:title=" ">
<path fill="none" stroke="#63b8ff" d="M560.11,-197.89C552.45,-181.98 533.77,-148.16 507,-132 427.89,-84.26 391.5,-111.07 295.76,-96"/>
<polygon fill="#63b8ff" stroke="#63b8ff" points="296.13,-92.51 285.69,-94.3 294.96,-99.42 296.13,-92.51"/>
</a>
</g>
</g>
<!-- Node17 -->
<g id="Node000017" class="node">
<title>Node17</title>
<g id="a_Node000017"><a xlink:title=" ">
<polygon fill="#e0e0e0" stroke="#999999" points="342,-90.5 304,-90.5 304,-71.5 342,-71.5 342,-90.5"/>
<text text-anchor="middle" x="323" y="-78.5" font-family="Helvetica,sans-Serif" font-size="10.00">map</text>
</a>
</g>
</g>
<!-- Node2&#45;&gt;Node17 -->
<g id="edge25_Node000002_Node000017" class="edge">
<title>Node2&#45;&gt;Node17</title>
<g id="a_edge25_Node000002_Node000017"><a xlink:title=" ">
<path fill="none" stroke="#63b8ff" d="M563.9,-197.86C563.23,-182.2 559.44,-149.2 540,-132 476.28,-75.64 432.77,-122.72 352,-96 350.78,-95.6 349.54,-95.15 348.3,-94.67"/>
<polygon fill="#63b8ff" stroke="#63b8ff" points="349.51,-91.39 338.95,-90.62 346.73,-97.81 349.51,-91.39"/>
</a>
</g>
</g>
<!-- Node21 -->
<g id="Node000021" class="node">
<title>Node21</title>
<g id="a_Node000021"><a xlink:title=" ">
<polygon fill="#e0e0e0" stroke="#999999" points="948.5,-156.5 823.5,-156.5 823.5,-137.5 948.5,-137.5 948.5,-156.5"/>
<text text-anchor="middle" x="886" y="-144.5" font-family="Helvetica,sans-Serif" font-size="10.00">deal.II/base/function.h</text>
</a>
</g>
</g>
<!-- Node2&#45;&gt;Node21 -->
<g id="edge21_Node000002_Node000021" class="edge">
<title>Node2&#45;&gt;Node21</title>
<g id="a_edge21_Node000002_Node000021"><a xlink:title=" ">
<path fill="none" stroke="#63b8ff" d="M613.58,-198C664.25,-189.24 745.18,-175.07 815,-162 820.85,-160.9 826.98,-159.73 833.06,-158.55"/>
<polygon fill="#63b8ff" stroke="#63b8ff" points="834.08,-161.92 843.22,-156.57 832.74,-155.05 834.08,-161.92"/>
</a>
</g>
</g>
<!-- Node22 -->
<g id="Node000022" class="node">
<title>Node22</title>
<g id="a_Node000022"><a xlink:title=" ">
<polygon fill="#e0e0e0" stroke="#999999" points="805.5,-162 696.5,-162 696.5,-132 805.5,-132 805.5,-162"/>
<text text-anchor="start" x="704.5" y="-150" font-family="Helvetica,sans-Serif" font-size="10.00">deal.II/base/parsed</text>
<text text-anchor="middle" x="751" y="-139" font-family="Helvetica,sans-Serif" font-size="10.00">_function.h</text>
</a>
</g>
</g>
<!-- Node2&#45;&gt;Node22 -->
<g id="edge23_Node000002_Node000022" class="edge">
<title>Node2&#45;&gt;Node22</title>
<g id="a_edge23_Node000002_Node000022"><a xlink:title=" ">
<path fill="none" stroke="#63b8ff" d="M591.19,-197.99C618.57,-189.43 661.59,-175.97 696.1,-165.18"/>
<polygon fill="#63b8ff" stroke="#63b8ff" points="697.54,-168.39 706.04,-162.06 695.45,-161.71 697.54,-168.39"/>
</a>
</g>
</g>
<!-- Node23 -->
<g id="Node000023" class="node">
<title>Node23</title>
<g id="a_Node000023"><a xlink:title=" ">
<polygon fill="#e0e0e0" stroke="#999999" points="497.5,-156.5 372.5,-156.5 372.5,-137.5 497.5,-137.5 497.5,-156.5"/>
<text text-anchor="middle" x="435" y="-144.5" font-family="Helvetica,sans-Serif" font-size="10.00">deal.II/base/patterns.h</text>
</a>
</g>
</g>
<!-- Node2&#45;&gt;Node23 -->
<g id="edge24_Node000002_Node000023" class="edge">
<title>Node2&#45;&gt;Node23</title>
<g id="a_edge24_Node000002_Node000023"><a xlink:title=" ">
<path fill="none" stroke="#63b8ff" d="M545.24,-197.99C523.65,-188.2 487.97,-172.02 463.07,-160.73"/>
<polygon fill="#63b8ff" stroke="#63b8ff" points="464.33,-157.46 453.78,-156.52 461.44,-163.83 464.33,-157.46"/>
</a>
</g>
</g>
<!-- Node4 -->
<g id="Node000004" class="node">
<title>Node4</title>
<g id="a_Node000004"><a xlink:href="output__struct_8h.html" target="_top" xlink:title=" ">
<polygon fill="white" stroke="#666666" points="607,-90.5 493,-90.5 493,-71.5 607,-71.5 607,-90.5"/>
<text text-anchor="middle" x="550" y="-78.5" font-family="Helvetica,sans-Serif" font-size="10.00">core/output_struct.h</text>
</a>
</g>
</g>
<!-- Node3&#45;&gt;Node4 -->
<g id="edge3_Node000003_Node000004" class="edge">
<title>Node3&#45;&gt;Node4</title>
<g id="a_edge3_Node000003_Node000004"><a xlink:title=" ">
<path fill="none" stroke="#63b8ff" d="M623.54,-137.37C609.72,-126.97 586.29,-109.32 569.59,-96.75"/>
<polygon fill="#63b8ff" stroke="#63b8ff" points="571.65,-93.92 561.55,-90.7 567.44,-99.51 571.65,-93.92"/>
</a>
</g>
</g>
<!-- Node5 -->
<g id="Node000005" class="node">
<title>Node5</title>
<g id="a_Node000005"><a xlink:title=" ">
<polygon fill="#e0e0e0" stroke="#999999" points="642.5,-30 541.5,-30 541.5,0 642.5,0 642.5,-30"/>
<text text-anchor="start" x="549.5" y="-18" font-family="Helvetica,sans-Serif" font-size="10.00">deal.II/base/table</text>
<text text-anchor="middle" x="592" y="-7" font-family="Helvetica,sans-Serif" font-size="10.00">_handler.h</text>
</a>
</g>
</g>
<!-- Node3&#45;&gt;Node5 -->
<g id="edge9_Node000003_Node000005" class="edge">
<title>Node3&#45;&gt;Node5</title>
<g id="a_edge9_Node000003_Node000005"><a xlink:title=" ">
<path fill="none" stroke="#63b8ff" d="M633.59,-137.42C631.01,-122.58 624.96,-91.3 616,-66 612.81,-57 608.49,-47.46 604.39,-39.16"/>
<polygon fill="#63b8ff" stroke="#63b8ff" points="607.43,-37.41 599.77,-30.09 601.19,-40.59 607.43,-37.41"/>
</a>
</g>
</g>
<!-- Node7 -->
<g id="Node000007" class="node">
<title>Node7</title>
<g id="a_Node000007"><a xlink:title=" ">
<polygon fill="#e0e0e0" stroke="#999999" points="793,-96 663,-96 663,-66 793,-66 793,-96"/>
<text text-anchor="start" x="671" y="-84" font-family="Helvetica,sans-Serif" font-size="10.00">deal.II/base/conditional</text>
<text text-anchor="middle" x="728" y="-73" font-family="Helvetica,sans-Serif" font-size="10.00">_ostream.h</text>
</a>
</g>
</g>
<!-- Node3&#45;&gt;Node7 -->
<g id="edge6_Node000003_Node000007" class="edge">
<title>Node3&#45;&gt;Node7</title>
<g id="a_edge6_Node000003_Node000007"><a xlink:title=" ">
<path fill="none" stroke="#63b8ff" d="M647.54,-137.37C660.63,-128.36 681.61,-113.92 698.87,-102.05"/>
<polygon fill="#63b8ff" stroke="#63b8ff" points="701.23,-104.67 707.49,-96.12 697.27,-98.9 701.23,-104.67"/>
</a>
</g>
</g>
<!-- Node3&#45;&gt;Node8 -->
<g id="edge7_Node000003_Node000008" class="edge">
<title>Node3&#45;&gt;Node8</title>
<g id="a_edge7_Node000003_Node000008"><a xlink:title=" ">
<path fill="none" stroke="#63b8ff" d="M591.97,-139.65C575.69,-137.25 556.99,-134.5 540,-132 434.3,-116.45 405.2,-114.48 295.8,-96.09"/>
<polygon fill="#63b8ff" stroke="#63b8ff" points="296.11,-92.59 285.67,-94.38 294.95,-99.5 296.11,-92.59"/>
</a>
</g>
</g>
<!-- Node9 -->
<g id="Node000009" class="node">
<title>Node9</title>
<g id="a_Node000009"><a xlink:title=" ">
<polygon fill="#e0e0e0" stroke="#999999" points="2327,-90.5 2217,-90.5 2217,-71.5 2327,-71.5 2327,-90.5"/>
<text text-anchor="middle" x="2272" y="-78.5" font-family="Helvetica,sans-Serif" font-size="10.00">deal.II/base/point.h</text>
</a>
</g>
</g>
<!-- Node3&#45;&gt;Node9 -->
<g id="edge8_Node000003_Node000009" class="edge">
<title>Node3&#45;&gt;Node9</title>
<g id="a_edge8_Node000003_Node000009"><a xlink:title=" ">
<path fill="none" stroke="#63b8ff" d="M662.53,-137.45C670.66,-135.28 679.62,-133.21 688,-132 958.63,-92.83 1644.71,-105.4 1918,-96 2018.77,-92.53 2135.65,-87.76 2206.68,-84.78"/>
<polygon fill="#63b8ff" stroke="#63b8ff" points="2206.98,-88.27 2216.82,-84.36 2206.68,-81.28 2206.98,-88.27"/>
</a>
</g>
</g>
<!-- Node10 -->
<g id="Node000010" class="node">
<title>Node10</title>
<g id="a_Node000010"><a xlink:title=" ">
<polygon fill="#e0e0e0" stroke="#999999" points="1908.5,-90.5 1793.5,-90.5 1793.5,-71.5 1908.5,-71.5 1908.5,-90.5"/>
<text text-anchor="middle" x="1851" y="-78.5" font-family="Helvetica,sans-Serif" font-size="10.00">deal.II/base/tensor.h</text>
</a>
</g>
</g>
<!-- Node3&#45;&gt;Node10 -->
<g id="edge10_Node000003_Node000010" class="edge">
<title>Node3&#45;&gt;Node10</title>
<g id="a_edge10_Node000003_Node000010"><a xlink:title=" ">
<path fill="none" stroke="#63b8ff" d="M662.82,-137.45C670.87,-135.3 679.72,-133.26 688,-132 715.21,-127.87 1538.46,-94.56 1783.1,-84.72"/>
<polygon fill="#63b8ff" stroke="#63b8ff" points="1783.42,-88.21 1793.28,-84.31 1783.14,-81.22 1783.42,-88.21"/>
</a>
</g>
</g>
<!-- Node11 -->
<g id="Node000011" class="node">
<title>Node11</title>
<g id="a_Node000011"><a xlink:title=" ">
<polygon fill="#e0e0e0" stroke="#999999" points="1484,-90.5 1344,-90.5 1344,-71.5 1484,-71.5 1484,-90.5"/>
<text text-anchor="middle" x="1414" y="-78.5" font-family="Helvetica,sans-Serif" font-size="10.00">deal.II/dofs/dof_handler.h</text>
</a>
</g>
</g>
<!-- Node3&#45;&gt;Node11 -->
<g id="edge11_Node000003_Node000011" class="edge">
<title>Node3&#45;&gt;Node11</title>
<g id="a_edge11_Node000003_Node000011"><a xlink:title=" ">
<path fill="none" stroke="#63b8ff" d="M663.1,-137.44C671.08,-135.33 679.82,-133.29 688,-132 972.46,-86.99 1048.92,-129.19 1335,-96 1343.45,-95.02 1352.37,-93.71 1361.05,-92.28"/>
<polygon fill="#63b8ff" stroke="#63b8ff" points="1361.82,-95.7 1371.09,-90.57 1360.64,-88.8 1361.82,-95.7"/>
</a>
</g>
</g>
<!-- Node12 -->
<g id="Node000012" class="node">
<title>Node12</title>
<g id="a_Node000012"><a xlink:title=" ">
<polygon fill="#e0e0e0" stroke="#999999" points="930.5,-90.5 811.5,-90.5 811.5,-71.5 930.5,-71.5 930.5,-90.5"/>
<text text-anchor="middle" x="871" y="-78.5" font-family="Helvetica,sans-Serif" font-size="10.00">deal.II/fe/fe_values.h</text>
</a>
</g>
</g>
<!-- Node3&#45;&gt;Node12 -->
<g id="edge12_Node000003_Node000012" class="edge">
<title>Node3&#45;&gt;Node12</title>
<g id="a_edge12_Node000003_Node000012"><a xlink:title=" ">
<path fill="none" stroke="#63b8ff" d="M666.83,-137.37C708.91,-125.96 783.14,-105.83 829.56,-93.24"/>
<polygon fill="#63b8ff" stroke="#63b8ff" points="830.56,-96.59 839.3,-90.6 828.73,-89.84 830.56,-96.59"/>
</a>
</g>
</g>
<!-- Node13 -->
<g id="Node000013" class="node">
<title>Node13</title>
<g id="a_Node000013"><a xlink:title=" ">
<polygon fill="#e0e0e0" stroke="#999999" points="1079.5,-96 948.5,-96 948.5,-66 1079.5,-66 1079.5,-96"/>
<text text-anchor="start" x="956.5" y="-84" font-family="Helvetica,sans-Serif" font-size="10.00">deal.II/particles/particle</text>
<text text-anchor="middle" x="1014" y="-73" font-family="Helvetica,sans-Serif" font-size="10.00">_iterator.h</text>
</a>
</g>
</g>
<!-- Node3&#45;&gt;Node13 -->
<g id="edge13_Node000003_Node000013" class="edge">
<title>Node3&#45;&gt;Node13</title>
<g id="a_edge13_Node000003_Node000013"><a xlink:title=" ">
<path fill="none" stroke="#63b8ff" d="M664.85,-137.47C672.36,-135.5 680.45,-133.53 688,-132 795.74,-110.15 826.65,-114.26 938.29,-96.23"/>
<polygon fill="#63b8ff" stroke="#63b8ff" points="938.96,-99.67 948.26,-94.6 937.83,-92.76 938.96,-99.67"/>
</a>
</g>
</g>
<!-- Node14 -->
<g id="Node000014" class="node">
<title>Node14</title>
<g id="a_Node000014"><a xlink:title=" ">
<polygon fill="#e0e0e0" stroke="#999999" points="1202.5,-96 1097.5,-96 1097.5,-66 1202.5,-66 1202.5,-96"/>
<text text-anchor="start" x="1105.5" y="-84" font-family="Helvetica,sans-Serif" font-size="10.00">boost/archive/text</text>
<text text-anchor="middle" x="1150" y="-73" font-family="Helvetica,sans-Serif" font-size="10.00">_iarchive.hpp</text>
</a>
</g>
</g>
<!-- Node3&#45;&gt;Node14 -->
<g id="edge14_Node000003_Node000014" class="edge">
<title>Node3&#45;&gt;Node14</title>
<g id="a_edge14_Node000003_Node000014"><a xlink:title=" ">
<path fill="none" stroke="#63b8ff" d="M663.69,-137.48C671.51,-135.41 680.03,-133.4 688,-132 861.06,-101.6 910.5,-123.26 1087.3,-96.13"/>
<polygon fill="#63b8ff" stroke="#63b8ff" points="1087.85,-99.59 1097.18,-94.58 1086.76,-92.67 1087.85,-99.59"/>
</a>
</g>
</g>
<!-- Node15 -->
<g id="Node000015" class="node">
<title>Node15</title>
<g id="a_Node000015"><a xlink:title=" ">
<polygon fill="#e0e0e0" stroke="#999999" points="1325.5,-96 1220.5,-96 1220.5,-66 1325.5,-66 1325.5,-96"/>
<text text-anchor="start" x="1228.5" y="-84" font-family="Helvetica,sans-Serif" font-size="10.00">boost/archive/text</text>
<text text-anchor="middle" x="1273" y="-73" font-family="Helvetica,sans-Serif" font-size="10.00">_oarchive.hpp</text>
</a>
</g>
</g>
<!-- Node3&#45;&gt;Node15 -->
<g id="edge15_Node000003_Node000015" class="edge">
<title>Node3&#45;&gt;Node15</title>
<g id="a_edge15_Node000003_Node000015"><a xlink:title=" ">
<path fill="none" stroke="#63b8ff" d="M663.39,-137.44C671.29,-135.35 679.92,-133.33 688,-132 915.07,-94.56 979.27,-129.2 1210.14,-96.12"/>
<polygon fill="#63b8ff" stroke="#63b8ff" points="1210.81,-99.56 1220.2,-94.65 1209.79,-92.63 1210.81,-99.56"/>
</a>
</g>
</g>
<!-- Node16 -->
<g id="Node000016" class="node">
<title>Node16</title>
<g id="a_Node000016"><a xlink:title=" ">
<polygon fill="#e0e0e0" stroke="#999999" points="415.5,-90.5 360.5,-90.5 360.5,-71.5 415.5,-71.5 415.5,-90.5"/>
<text text-anchor="middle" x="388" y="-78.5" font-family="Helvetica,sans-Serif" font-size="10.00">fstream</text>
</a>
</g>
</g>
<!-- Node3&#45;&gt;Node16 -->
<g id="edge16_Node000003_Node000016" class="edge">
<title>Node3&#45;&gt;Node16</title>
<g id="a_edge16_Node000003_Node000016"><a xlink:title=" ">
<path fill="none" stroke="#63b8ff" d="M600.35,-137.43C592.98,-135.62 585.23,-133.74 578,-132 510.08,-115.67 491.81,-116.4 425,-96 423.08,-95.41 421.11,-94.78 419.14,-94.11"/>
<polygon fill="#63b8ff" stroke="#63b8ff" points="419.95,-90.69 409.36,-90.62 417.6,-97.28 419.95,-90.69"/>
</a>
</g>
</g>
<!-- Node3&#45;&gt;Node17 -->
<g id="edge17_Node000003_Node000017" class="edge">
<title>Node3&#45;&gt;Node17</title>
<g id="a_edge17_Node000003_Node000017"><a xlink:title=" ">
<path fill="none" stroke="#63b8ff" d="M602.25,-137.46C594.34,-135.54 585.89,-133.59 578,-132 478.3,-111.85 449.05,-126.43 352,-96 350.74,-95.6 349.47,-95.16 348.19,-94.69"/>
<polygon fill="#63b8ff" stroke="#63b8ff" points="349.18,-91.3 338.61,-90.56 346.41,-97.73 349.18,-91.3"/>
</a>
</g>
</g>
<!-- Node18 -->
<g id="Node000018" class="node">
<title>Node18</title>
<g id="a_Node000018"><a xlink:title=" ">
<polygon fill="#e0e0e0" stroke="#999999" points="2407,-90.5 2363,-90.5 2363,-71.5 2407,-71.5 2407,-90.5"/>
<text text-anchor="middle" x="2385" y="-78.5" font-family="Helvetica,sans-Serif" font-size="10.00">string</text>
</a>
</g>
</g>
<!-- Node3&#45;&gt;Node18 -->
<g id="edge18_Node000003_Node000018" class="edge">
<title>Node3&#45;&gt;Node18</title>
<g id="a_edge18_Node000003_Node000018"><a xlink:title=" ">
<path fill="none" stroke="#63b8ff" d="M662.26,-137.48C670.45,-135.28 679.52,-133.2 688,-132 1050.72,-80.87 1973.81,-150.77 2336,-96 2341.58,-95.16 2347.41,-93.87 2353.04,-92.4"/>
<polygon fill="#63b8ff" stroke="#63b8ff" points="2354.15,-95.72 2362.82,-89.64 2352.25,-88.99 2354.15,-95.72"/>
</a>
</g>
</g>
<!-- Node19 -->
<g id="Node000019" class="node">
<title>Node19</title>
<g id="a_Node000019"><a xlink:title=" ">
<polygon fill="#e0e0e0" stroke="#999999" points="474.5,-90.5 433.5,-90.5 433.5,-71.5 474.5,-71.5 474.5,-90.5"/>
<text text-anchor="middle" x="454" y="-78.5" font-family="Helvetica,sans-Serif" font-size="10.00">tuple</text>
</a>
</g>
</g>
<!-- Node3&#45;&gt;Node19 -->
<g id="edge19_Node000003_Node000019" class="edge">
<title>Node3&#45;&gt;Node19</title>
<g id="a_edge19_Node000003_Node000019"><a xlink:title=" ">
<path fill="none" stroke="#63b8ff" d="M605.97,-137.49C575.31,-128.25 525.7,-112.57 484,-96 482.99,-95.6 481.96,-95.18 480.92,-94.74"/>
<polygon fill="#63b8ff" stroke="#63b8ff" points="482.18,-91.47 471.62,-90.64 479.35,-97.88 482.18,-91.47"/>
</a>
</g>
</g>
<!-- Node20 -->
<g id="Node000020" class="node">
<title>Node20</title>
<g id="a_Node000020"><a xlink:title=" ">
<polygon fill="#e0e0e0" stroke="#999999" points="2490.5,-90.5 2443.5,-90.5 2443.5,-71.5 2490.5,-71.5 2490.5,-90.5"/>
<text text-anchor="middle" x="2467" y="-78.5" font-family="Helvetica,sans-Serif" font-size="10.00">vector</text>
</a>
</g>
</g>
<!-- Node3&#45;&gt;Node20 -->
<g id="edge20_Node000003_Node000020" class="edge">
<title>Node3&#45;&gt;Node20</title>
<g id="a_edge20_Node000003_Node000020"><a xlink:title=" ">
<path fill="none" stroke="#63b8ff" d="M662.25,-137.48C670.45,-135.28 679.52,-133.19 688,-132 1068.35,-78.58 2035.91,-151.26 2416,-96 2421.68,-95.17 2427.62,-93.92 2433.37,-92.49"/>
<polygon fill="#63b8ff" stroke="#63b8ff" points="2434.64,-95.77 2443.39,-89.79 2432.82,-89.01 2434.64,-95.77"/>
</a>
</g>
</g>
<!-- Node4&#45;&gt;Node5 -->
<g id="edge4_Node000004_Node000005" class="edge">
<title>Node4&#45;&gt;Node5</title>
<g id="a_edge4_Node000004_Node000005"><a xlink:title=" ">
<path fill="none" stroke="#63b8ff" d="M555.66,-71.37C561.11,-63.08 569.57,-50.18 576.96,-38.92"/>
<polygon fill="#63b8ff" stroke="#63b8ff" points="580.02,-40.64 582.58,-30.36 574.16,-36.8 580.02,-40.64"/>
</a>
</g>
</g>
<!-- Node6 -->
<g id="Node000006" class="node">
<title>Node6</title>
<g id="a_Node000006"><a xlink:title=" ">
<polygon fill="#e0e0e0" stroke="#999999" points="377.5,-30 258.5,-30 258.5,0 377.5,0 377.5,-30"/>
<text text-anchor="start" x="266.5" y="-18" font-family="Helvetica,sans-Serif" font-size="10.00">deal.II/numerics/data</text>
<text text-anchor="middle" x="318" y="-7" font-family="Helvetica,sans-Serif" font-size="10.00">_postprocessor.h</text>
</a>
</g>
</g>
<!-- Node4&#45;&gt;Node6 -->
<g id="edge5_Node000004_Node000006" class="edge">
<title>Node4&#45;&gt;Node6</title>
<g id="a_edge5_Node000004_Node000006"><a xlink:title=" ">
<path fill="none" stroke="#63b8ff" d="M518.71,-71.37C483.07,-61.54 423.95,-45.23 379.09,-32.85"/>
<polygon fill="#63b8ff" stroke="#63b8ff" points="379.74,-29.4 369.17,-30.12 377.88,-36.15 379.74,-29.4"/>
</a>
</g>
</g>
<!-- Node24&#45;&gt;Node3 -->
<g id="edge27_Node000024_Node000003" class="edge">
<title>Node24&#45;&gt;Node3</title>
<g id="a_edge27_Node000024_Node000003"><a xlink:title=" ">
<path fill="none" stroke="#63b8ff" d="M177.24,-199.29C180.54,-198.84 183.82,-198.41 187,-198 225.35,-193.1 471.47,-165.97 581.72,-153.85"/>
<polygon fill="#63b8ff" stroke="#63b8ff" points="582.4,-157.3 591.96,-152.72 581.63,-150.34 582.4,-157.3"/>
</a>
</g>
</g>
<!-- Node24&#45;&gt;Node6 -->
<g id="edge30_Node000024_Node000006" class="edge">
<title>Node24&#45;&gt;Node6</title>
<g id="a_edge30_Node000024_Node000006"><a xlink:title=" ">
<path fill="none" stroke="#63b8ff" d="M126.44,-197.96C122.58,-173.93 115.18,-104.9 149,-66 173.58,-37.74 213.29,-25.07 248.05,-19.55"/>
<polygon fill="#63b8ff" stroke="#63b8ff" points="248.77,-22.98 258.18,-18.11 247.79,-16.05 248.77,-22.98"/>
</a>
</g>
</g>
<!-- Node24&#45;&gt;Node8 -->
<g id="edge28_Node000024_Node000008" class="edge">
<title>Node24&#45;&gt;Node8</title>
<g id="a_edge28_Node000024_Node000008"><a xlink:title=" ">
<path fill="none" stroke="#63b8ff" d="M134.46,-197.94C148.9,-178.82 184.15,-132.13 205.25,-104.18"/>
<polygon fill="#63b8ff" stroke="#63b8ff" points="208.08,-106.25 211.31,-96.16 202.49,-102.03 208.08,-106.25"/>
</a>
</g>
</g>
<!-- Node24&#45;&gt;Node25 -->
<g id="edge29_Node000024_Node000025" class="edge">
<title>Node24&#45;&gt;Node25</title>
<g id="a_edge29_Node000024_Node000025"><a xlink:title=" ">
<path fill="none" stroke="#63b8ff" d="M116.64,-197.87C106.38,-190.08 90.9,-178.32 77.55,-168.17"/>
<polygon fill="#63b8ff" stroke="#63b8ff" points="79.66,-165.38 69.58,-162.11 75.42,-170.95 79.66,-165.38"/>
</a>
</g>
</g>
<!-- Node26&#45;&gt;Node3 -->
<g id="edge58_Node000026_Node000003" class="edge">
<title>Node26&#45;&gt;Node3</title>
<g id="a_edge58_Node000026_Node000003"><a xlink:title=" ">
<path fill="none" stroke="#63b8ff" d="M560.18,-320.61C604.23,-313.69 661.83,-301.38 676,-283 703.81,-246.92 669.58,-192.01 648.77,-164.68"/>
<polygon fill="#63b8ff" stroke="#63b8ff" points="651.28,-162.21 642.33,-156.53 645.78,-166.55 651.28,-162.21"/>
</a>
</g>
</g>
<!-- Node26&#45;&gt;Node8 -->
<g id="edge59_Node000026_Node000008" class="edge">
<title>Node26&#45;&gt;Node8</title>
<g id="a_edge59_Node000026_Node000008"><a xlink:title=" ">
<path fill="none" stroke="#63b8ff" d="M453.82,-321.76C424.36,-316.13 388.79,-305.01 364,-283 333.05,-255.53 348.53,-232.71 326,-198 302.42,-161.67 267.65,-125.41 244.92,-103.34"/>
<polygon fill="#63b8ff" stroke="#63b8ff" points="247.05,-100.54 237.41,-96.15 242.21,-105.59 247.05,-100.54"/>
</a>
</g>
</g>
<!-- Node26&#45;&gt;Node22 -->
<g id="edge60_Node000026_Node000022" class="edge">
<title>Node26&#45;&gt;Node22</title>
<g id="a_edge60_Node000026_Node000022"><a xlink:title=" ">
<path fill="none" stroke="#63b8ff" d="M560.22,-327.52C601.42,-324.81 657.58,-314.84 695,-283 728.39,-254.59 742.22,-203.03 747.68,-172.52"/>
<polygon fill="#63b8ff" stroke="#63b8ff" points="751.19,-172.74 749.33,-162.31 744.28,-171.62 751.19,-172.74"/>
</a>
</g>
</g>
<!-- Node27 -->
<g id="Node000027" class="node">
<title>Node27</title>
<g id="a_Node000027"><a xlink:href="dimensionality_8h.html" target="_top" xlink:title=" ">
<polygon fill="white" stroke="#666666" points="316.5,-217 195.5,-217 195.5,-198 316.5,-198 316.5,-217"/>
<text text-anchor="middle" x="256" y="-205" font-family="Helvetica,sans-Serif" font-size="10.00">core/dimensionality.h</text>
</a>
</g>
</g>
<!-- Node26&#45;&gt;Node27 -->
<g id="edge32_Node000026_Node000027" class="edge">
<title>Node26&#45;&gt;Node27</title>
<g id="a_edge32_Node000026_Node000027"><a xlink:title=" ">
<path fill="none" stroke="#63b8ff" d="M453.82,-321.57C417.39,-315.76 368.99,-304.49 331,-283 305.02,-268.3 281.78,-242.21 268.28,-225.13"/>
<polygon fill="#63b8ff" stroke="#63b8ff" points="271.01,-222.94 262.15,-217.13 265.46,-227.2 271.01,-222.94"/>
</a>
</g>
</g>
<!-- Node28 -->
<g id="Node000028" class="node">
<title>Node28</title>
<g id="a_Node000028"><a xlink:href="ib__particle_8h.html" target="_top" xlink:title=" ">
<polygon fill="white" stroke="#666666" points="1925.5,-277.5 1824.5,-277.5 1824.5,-258.5 1925.5,-258.5 1925.5,-277.5"/>
<text text-anchor="middle" x="1875" y="-265.5" font-family="Helvetica,sans-Serif" font-size="10.00">core/ib_particle.h</text>
</a>
</g>
</g>
<!-- Node26&#45;&gt;Node28 -->
<g id="edge34_Node000026_Node000028" class="edge">
<title>Node26&#45;&gt;Node28</title>
<g id="a_edge34_Node000026_Node000028"><a xlink:title=" ">
<path fill="none" stroke="#63b8ff" d="M560.21,-325.22C775.94,-316 1584.83,-281.41 1814.09,-271.6"/>
<polygon fill="#63b8ff" stroke="#63b8ff" points="1814.41,-275.09 1824.25,-271.17 1814.11,-268.1 1814.41,-275.09"/>
</a>
</g>
</g>
<!-- Node41 -->
<g id="Node000041" class="node">
<title>Node41</title>
<g id="a_Node000041"><a xlink:href="multiphysics_8h.html" target="_top" xlink:title="Identifiers for multiphysics modules and their solution fields.">
<polygon fill="white" stroke="#666666" points="485,-277.5 373,-277.5 373,-258.5 485,-258.5 485,-277.5"/>
<text text-anchor="middle" x="429" y="-265.5" font-family="Helvetica,sans-Serif" font-size="10.00">core/multiphysics.h</text>
</a>
</g>
</g>
<!-- Node26&#45;&gt;Node41 -->
<g id="edge57_Node000026_Node000041" class="edge">
<title>Node26&#45;&gt;Node41</title>
<g id="a_edge57_Node000026_Node000041"><a xlink:title=" ">
<path fill="none" stroke="#63b8ff" d="M495.49,-318.87C483.16,-309.62 463.38,-294.78 448.59,-283.69"/>
<polygon fill="#63b8ff" stroke="#63b8ff" points="450.66,-280.87 440.56,-277.67 446.46,-286.47 450.66,-280.87"/>
</a>
</g>
</g>
<!-- Node42 -->
<g id="Node000042" class="node">
<title>Node42</title>
<g id="a_Node000042"><a xlink:title=" ">
<polygon fill="#e0e0e0" stroke="#999999" points="666.5,-283 503.5,-283 503.5,-253 666.5,-253 666.5,-283"/>
<text text-anchor="start" x="511.5" y="-271" font-family="Helvetica,sans-Serif" font-size="10.00">deal.II/multigrid/mg</text>
<text text-anchor="middle" x="585" y="-260" font-family="Helvetica,sans-Serif" font-size="10.00">_transfer_global_coarsening.h</text>
</a>
</g>
</g>
<!-- Node26&#45;&gt;Node42 -->
<g id="edge61_Node000026_Node000042" class="edge">
<title>Node26&#45;&gt;Node42</title>
<g id="a_edge61_Node000026_Node000042"><a xlink:title=" ">
<path fill="none" stroke="#63b8ff" d="M518.51,-318.87C528.9,-311.08 544.58,-299.32 558.1,-289.17"/>
<polygon fill="#63b8ff" stroke="#63b8ff" points="560.28,-291.91 566.18,-283.11 556.08,-286.31 560.28,-291.91"/>
</a>
</g>
</g>
<!-- Node27&#45;&gt;Node8 -->
<g id="edge33_Node000027_Node000008" class="edge">
<title>Node27&#45;&gt;Node8</title>
<g id="a_edge33_Node000027_Node000008"><a xlink:title=" ">
<path fill="none" stroke="#63b8ff" d="M253.66,-197.94C248.55,-179.24 236.24,-134.13 228.56,-106.01"/>
<polygon fill="#63b8ff" stroke="#63b8ff" points="231.88,-104.89 225.87,-96.16 225.13,-106.73 231.88,-104.89"/>
</a>
</g>
</g>
<!-- Node28&#45;&gt;Node9 -->
<g id="edge55_Node000028_Node000009" class="edge">
<title>Node28&#45;&gt;Node9</title>
<g id="a_edge55_Node000028_Node000009"><a xlink:title=" ">
<path fill="none" stroke="#63b8ff" d="M1925.55,-263.76C2037.98,-255.4 2303.14,-228.86 2357,-162 2378.29,-135.57 2335.35,-109.49 2303.1,-94.6"/>
<polygon fill="#63b8ff" stroke="#63b8ff" points="2304.5,-91.39 2293.94,-90.53 2301.66,-97.79 2304.5,-91.39"/>
</a>
</g>
</g>
<!-- Node28&#45;&gt;Node20 -->
<g id="edge56_Node000028_Node000020" class="edge">
<title>Node28&#45;&gt;Node20</title>
<g id="a_edge56_Node000028_Node000020"><a xlink:title=" ">
<path fill="none" stroke="#63b8ff" d="M1925.76,-267.92C2023.02,-268.46 2241.62,-263.77 2418,-217 2475.1,-201.86 2507.02,-211.67 2539,-162 2546.22,-150.79 2545.18,-143.81 2539,-132 2530.36,-115.47 2513.48,-103.31 2498.25,-95.12"/>
<polygon fill="#63b8ff" stroke="#63b8ff" points="2499.57,-91.87 2489.06,-90.53 2496.44,-98.13 2499.57,-91.87"/>
</a>
</g>
</g>
<!-- Node28&#45;&gt;Node22 -->
<g id="edge54_Node000028_Node000022" class="edge">
<title>Node28&#45;&gt;Node22</title>
<g id="a_edge54_Node000028_Node000022"><a xlink:title=" ">
<path fill="none" stroke="#63b8ff" d="M1824.25,-264.08C1672.45,-254.9 1208.64,-223.6 815.87,-162.01"/>
<polygon fill="#63b8ff" stroke="#63b8ff" points="816.16,-158.51 805.73,-160.41 815.07,-165.43 816.16,-158.51"/>
</a>
</g>
</g>
<!-- Node29 -->
<g id="Node000029" class="node">
<title>Node29</title>
<g id="a_Node000029"><a xlink:href="dem__properties_8h.html" target="_top" xlink:title="DEM particle property definitions and output name management.">
<polygon fill="white" stroke="#666666" points="2530,-156.5 2404,-156.5 2404,-137.5 2530,-137.5 2530,-156.5"/>
<text text-anchor="middle" x="2467" y="-144.5" font-family="Helvetica,sans-Serif" font-size="10.00">core/dem_properties.h</text>
</a>
</g>
</g>
<!-- Node28&#45;&gt;Node29 -->
<g id="edge35_Node000028_Node000029" class="edge">
<title>Node28&#45;&gt;Node29</title>
<g id="a_edge35_Node000028_Node000029"><a xlink:title=" ">
<path fill="none" stroke="#63b8ff" d="M1925.92,-266.06C2039.01,-263.34 2307.65,-253.16 2390,-217 2416.35,-205.43 2439.89,-181.29 2453.81,-164.86"/>
<polygon fill="#63b8ff" stroke="#63b8ff" points="2456.9,-166.62 2460.51,-156.66 2451.48,-162.19 2456.9,-166.62"/>
</a>
</g>
</g>
<!-- Node30 -->
<g id="Node000030" class="node">
<title>Node30</title>
<g id="a_Node000030"><a xlink:href="shape_8h.html" target="_top" xlink:title=" ">
<polygon fill="white" stroke="#666666" points="1483.5,-217 1404.5,-217 1404.5,-198 1483.5,-198 1483.5,-217"/>
<text text-anchor="middle" x="1444" y="-205" font-family="Helvetica,sans-Serif" font-size="10.00">core/shape.h</text>
</a>
</g>
</g>
<!-- Node28&#45;&gt;Node30 -->
<g id="edge38_Node000028_Node000030" class="edge">
<title>Node28&#45;&gt;Node30</title>
<g id="a_edge38_Node000028_Node000030"><a xlink:title=" ">
<path fill="none" stroke="#63b8ff" d="M1824.29,-260.12C1741.07,-248.82 1576.51,-226.49 1493.85,-215.27"/>
<polygon fill="#63b8ff" stroke="#63b8ff" points="1494.08,-211.77 1483.7,-213.89 1493.14,-218.7 1494.08,-211.77"/>
</a>
</g>
</g>
<!-- Node29&#45;&gt;Node18 -->
<g id="edge36_Node000029_Node000018" class="edge">
<title>Node29&#45;&gt;Node18</title>
<g id="a_edge36_Node000029_Node000018"><a xlink:title=" ">
<path fill="none" stroke="#63b8ff" d="M2455.94,-137.37C2442.74,-127.06 2420.42,-109.65 2404.34,-97.09"/>
<polygon fill="#63b8ff" stroke="#63b8ff" points="2406.18,-94.09 2396.15,-90.7 2401.88,-99.61 2406.18,-94.09"/>
</a>
</g>
</g>
<!-- Node29&#45;&gt;Node20 -->
<g id="edge37_Node000029_Node000020" class="edge">
<title>Node29&#45;&gt;Node20</title>
<g id="a_edge37_Node000029_Node000020"><a xlink:title=" ">
<path fill="none" stroke="#63b8ff" d="M2467,-137.37C2467,-128.16 2467,-113.29 2467,-101.27"/>
<polygon fill="#63b8ff" stroke="#63b8ff" points="2470.5,-100.91 2467,-90.91 2463.5,-100.91 2470.5,-100.91"/>
</a>
</g>
</g>
<!-- Node30&#45;&gt;Node3 -->
<g id="edge42_Node000030_Node000003" class="edge">
<title>Node30&#45;&gt;Node3</title>
<g id="a_edge42_Node000030_Node000003"><a xlink:title=" ">
<path fill="none" stroke="#63b8ff" d="M1404.35,-206.94C1291.52,-207.59 959.34,-205.38 688,-162 683.15,-161.22 678.09,-160.19 673.12,-159.04"/>
<polygon fill="#63b8ff" stroke="#63b8ff" points="673.66,-155.56 663.11,-156.54 671.96,-162.36 673.66,-155.56"/>
</a>
</g>
</g>
<!-- Node30&#45;&gt;Node11 -->
<g id="edge49_Node000030_Node000011" class="edge">
<title>Node30&#45;&gt;Node11</title>
<g id="a_edge49_Node000030_Node000011"><a xlink:title=" ">
<path fill="none" stroke="#63b8ff" d="M1404.34,-206.95C1328.76,-206.86 1168.54,-201.85 1134,-162 1125.27,-151.92 1125.44,-142.22 1134,-132 1134.22,-131.73 1274.03,-106.86 1355.98,-92.3"/>
<polygon fill="#63b8ff" stroke="#63b8ff" points="1356.68,-95.73 1365.91,-90.54 1355.46,-88.84 1356.68,-95.73"/>
</a>
</g>
</g>
<!-- Node30&#45;&gt;Node21 -->
<g id="edge44_Node000030_Node000021" class="edge">
<title>Node30&#45;&gt;Node21</title>
<g id="a_edge44_Node000030_Node000021"><a xlink:title=" ">
<path fill="none" stroke="#63b8ff" d="M1404.47,-204.23C1321.46,-199.18 1123.03,-185.54 958,-162 950.89,-160.99 943.42,-159.74 936.1,-158.41"/>
<polygon fill="#63b8ff" stroke="#63b8ff" points="936.72,-154.97 926.24,-156.57 935.43,-161.85 936.72,-154.97"/>
</a>
</g>
</g>
<!-- Node31 -->
<g id="Node000031" class="node">
<title>Node31</title>
<g id="a_Node000031"><a xlink:href="tensors__and__points__dimension__manipulation_8h.html" target="_top" xlink:title=" ">
<polygon fill="white" stroke="#666666" points="2348,-162 2196,-162 2196,-132 2348,-132 2348,-162"/>
<text text-anchor="start" x="2204" y="-150" font-family="Helvetica,sans-Serif" font-size="10.00">core/tensors_and_points</text>
<text text-anchor="middle" x="2272" y="-139" font-family="Helvetica,sans-Serif" font-size="10.00">_dimension_manipulation.h</text>
</a>
</g>
</g>
<!-- Node30&#45;&gt;Node31 -->
<g id="edge39_Node000030_Node000031" class="edge">
<title>Node30&#45;&gt;Node31</title>
<g id="a_edge39_Node000030_Node000031"><a xlink:title=" ">
<path fill="none" stroke="#63b8ff" d="M1483.59,-205.57C1593.42,-202.68 1911.35,-192.25 2185.45,-162.09"/>
<polygon fill="#63b8ff" stroke="#63b8ff" points="2186.04,-165.55 2195.6,-160.97 2185.27,-158.59 2186.04,-165.55"/>
</a>
</g>
</g>
<!-- Node32 -->
<g id="Node000032" class="node">
<title>Node32</title>
<g id="a_Node000032"><a xlink:title=" ">
<polygon fill="#e0e0e0" stroke="#999999" points="1295,-162 1143,-162 1143,-132 1295,-132 1295,-162"/>
<text text-anchor="start" x="1151" y="-150" font-family="Helvetica,sans-Serif" font-size="10.00">deal.II/base/auto_derivative</text>
<text text-anchor="middle" x="1219" y="-139" font-family="Helvetica,sans-Serif" font-size="10.00">_function.h</text>
</a>
</g>
</g>
<!-- Node30&#45;&gt;Node32 -->
<g id="edge43_Node000030_Node000032" class="edge">
<title>Node30&#45;&gt;Node32</title>
<g id="a_edge43_Node000030_Node000032"><a xlink:title=" ">
<path fill="none" stroke="#63b8ff" d="M1411.28,-197.99C1377.77,-189.28 1324.8,-175.51 1282.93,-164.62"/>
<polygon fill="#63b8ff" stroke="#63b8ff" points="1283.65,-161.19 1273.09,-162.06 1281.89,-167.97 1283.65,-161.19"/>
</a>
</g>
</g>
<!-- Node33 -->
<g id="Node000033" class="node">
<title>Node33</title>
<g id="a_Node000033"><a xlink:title=" ">
<polygon fill="#e0e0e0" stroke="#999999" points="1437,-156.5 1313,-156.5 1313,-137.5 1437,-137.5 1437,-156.5"/>
<text text-anchor="middle" x="1375" y="-144.5" font-family="Helvetica,sans-Serif" font-size="10.00">deal.II/grid/manifold.h</text>
</a>
</g>
</g>
<!-- Node30&#45;&gt;Node33 -->
<g id="edge45_Node000030_Node000033" class="edge">
<title>Node30&#45;&gt;Node33</title>
<g id="a_edge45_Node000030_Node000033"><a xlink:title=" ">
<path fill="none" stroke="#63b8ff" d="M1433.82,-197.87C1423.12,-188.8 1406.06,-174.34 1393.07,-163.32"/>
<polygon fill="#63b8ff" stroke="#63b8ff" points="1395.11,-160.46 1385.22,-156.67 1390.59,-165.8 1395.11,-160.46"/>
</a>
</g>
</g>
<!-- Node34 -->
<g id="Node000034" class="node">
<title>Node34</title>
<g id="a_Node000034"><a xlink:title=" ">
<polygon fill="#e0e0e0" stroke="#999999" points="1570.5,-162 1455.5,-162 1455.5,-132 1570.5,-132 1570.5,-162"/>
<text text-anchor="start" x="1463.5" y="-150" font-family="Helvetica,sans-Serif" font-size="10.00">deal.II/grid/manifold</text>
<text text-anchor="middle" x="1513" y="-139" font-family="Helvetica,sans-Serif" font-size="10.00">_lib.h</text>
</a>
</g>
</g>
<!-- Node30&#45;&gt;Node34 -->
<g id="edge46_Node000030_Node000034" class="edge">
<title>Node30&#45;&gt;Node34</title>
<g id="a_edge46_Node000030_Node000034"><a xlink:title=" ">
<path fill="none" stroke="#63b8ff" d="M1454.18,-197.87C1463.2,-190.22 1476.72,-178.76 1488.53,-168.75"/>
<polygon fill="#63b8ff" stroke="#63b8ff" points="1490.99,-171.25 1496.35,-162.11 1486.46,-165.91 1490.99,-171.25"/>
</a>
</g>
</g>
<!-- Node35 -->
<g id="Node000035" class="node">
<title>Node35</title>
<g id="a_Node000035"><a xlink:title=" ">
<polygon fill="#e0e0e0" stroke="#999999" points="1703.5,-162 1588.5,-162 1588.5,-132 1703.5,-132 1703.5,-162"/>
<text text-anchor="start" x="1596.5" y="-150" font-family="Helvetica,sans-Serif" font-size="10.00">boost/range/adaptor</text>
<text text-anchor="middle" x="1646" y="-139" font-family="Helvetica,sans-Serif" font-size="10.00">/map.hpp</text>
</a>
</g>
</g>
<!-- Node30&#45;&gt;Node35 -->
<g id="edge47_Node000030_Node000035" class="edge">
<title>Node30&#45;&gt;Node35</title>
<g id="a_edge47_Node000030_Node000035"><a xlink:title=" ">
<path fill="none" stroke="#63b8ff" d="M1473.37,-197.99C1503.21,-189.35 1550.21,-175.74 1587.65,-164.9"/>
<polygon fill="#63b8ff" stroke="#63b8ff" points="1588.8,-168.21 1597.44,-162.06 1586.86,-161.48 1588.8,-168.21"/>
</a>
</g>
</g>
<!-- Node36 -->
<g id="Node000036" class="node">
<title>Node36</title>
<g id="a_Node000036"><a xlink:title=" ">
<polygon fill="#e0e0e0" stroke="#999999" points="1838,-162 1722,-162 1722,-132 1838,-132 1838,-162"/>
<text text-anchor="start" x="1730" y="-150" font-family="Helvetica,sans-Serif" font-size="10.00">deal.II/base/function</text>
<text text-anchor="middle" x="1780" y="-139" font-family="Helvetica,sans-Serif" font-size="10.00">_signed_distance.h</text>
</a>
</g>
</g>
<!-- Node30&#45;&gt;Node36 -->
<g id="edge48_Node000030_Node000036" class="edge">
<title>Node30&#45;&gt;Node36</title>
<g id="a_edge48_Node000030_Node000036"><a xlink:title=" ">
<path fill="none" stroke="#63b8ff" d="M1483.74,-200.46C1534.37,-192.65 1624.78,-178.31 1711.87,-162.16"/>
<polygon fill="#63b8ff" stroke="#63b8ff" points="1712.74,-165.56 1721.92,-160.29 1711.45,-158.68 1712.74,-165.56"/>
</a>
</g>
</g>
<!-- Node37 -->
<g id="Node000037" class="node">
<title>Node37</title>
<g id="a_Node000037"><a xlink:title=" ">
<polygon fill="#e0e0e0" stroke="#999999" points="1984,-156.5 1856,-156.5 1856,-137.5 1984,-137.5 1984,-156.5"/>
<text text-anchor="middle" x="1920" y="-144.5" font-family="Helvetica,sans-Serif" font-size="10.00">deal.II/dofs/dof_tools.h</text>
</a>
</g>
</g>
<!-- Node30&#45;&gt;Node37 -->
<g id="edge50_Node000030_Node000037" class="edge">
<title>Node30&#45;&gt;Node37</title>
<g id="a_edge50_Node000030_Node000037"><a xlink:title=" ">
<path fill="none" stroke="#63b8ff" d="M1483.61,-203.18C1555.99,-196.88 1714.41,-182 1847,-162 1853.86,-160.97 1861.06,-159.75 1868.15,-158.47"/>
<polygon fill="#63b8ff" stroke="#63b8ff" points="1869.21,-161.83 1878.41,-156.57 1867.94,-154.95 1869.21,-161.83"/>
</a>
</g>
</g>
<!-- Node38 -->
<g id="Node000038" class="node">
<title>Node38</title>
<g id="a_Node000038"><a xlink:title=" ">
<polygon fill="#e0e0e0" stroke="#999999" points="2178,-156.5 2002,-156.5 2002,-137.5 2178,-137.5 2178,-156.5"/>
<text text-anchor="middle" x="2090" y="-144.5" font-family="Helvetica,sans-Serif" font-size="10.00">deal.II/physics/transformations.h</text>
</a>
</g>
</g>
<!-- Node30&#45;&gt;Node38 -->
<g id="edge51_Node000030_Node000038" class="edge">
<title>Node30&#45;&gt;Node38</title>
<g id="a_edge51_Node000030_Node000038"><a xlink:title=" ">
<path fill="none" stroke="#63b8ff" d="M1483.7,-204.14C1574.2,-198.56 1802.71,-183.42 1993,-162 2003.38,-160.83 2014.36,-159.42 2025.05,-157.95"/>
<polygon fill="#63b8ff" stroke="#63b8ff" points="2025.77,-161.38 2035.19,-156.52 2024.8,-154.45 2025.77,-161.38"/>
</a>
</g>
</g>
<!-- Node39 -->
<g id="Node000039" class="node">
<title>Node39</title>
<g id="a_Node000039"><a xlink:title=" ">
<polygon fill="#e0e0e0" stroke="#999999" points="1011,-156.5 967,-156.5 967,-137.5 1011,-137.5 1011,-156.5"/>
<text text-anchor="middle" x="989" y="-144.5" font-family="Helvetica,sans-Serif" font-size="10.00">cfloat</text>
</a>
</g>
</g>
<!-- Node30&#45;&gt;Node39 -->
<g id="edge52_Node000030_Node000039" class="edge">
<title>Node30&#45;&gt;Node39</title>
<g id="a_edge52_Node000030_Node000039"><a xlink:title=" ">
<path fill="none" stroke="#63b8ff" d="M1404.36,-206.52C1328.41,-205.65 1157.71,-199.28 1020,-162 1018.31,-161.54 1016.61,-161.01 1014.9,-160.41"/>
<polygon fill="#63b8ff" stroke="#63b8ff" points="1015.95,-157.06 1005.37,-156.57 1013.33,-163.55 1015.95,-157.06"/>
</a>
</g>
</g>
<!-- Node40 -->
<g id="Node000040" class="node">
<title>Node40</title>
<g id="a_Node000040"><a xlink:title=" ">
<polygon fill="#e0e0e0" stroke="#999999" points="1087,-156.5 1029,-156.5 1029,-137.5 1087,-137.5 1087,-156.5"/>
<text text-anchor="middle" x="1058" y="-144.5" font-family="Helvetica,sans-Serif" font-size="10.00">memory</text>
</a>
</g>
</g>
<!-- Node30&#45;&gt;Node40 -->
<g id="edge53_Node000030_Node000040" class="edge">
<title>Node30&#45;&gt;Node40</title>
<g id="a_edge53_Node000030_Node000040"><a xlink:title=" ">
<path fill="none" stroke="#63b8ff" d="M1404.49,-203.77C1340.23,-198.8 1209.36,-186.45 1101,-162 1097.78,-161.27 1094.46,-160.41 1091.16,-159.47"/>
<polygon fill="#63b8ff" stroke="#63b8ff" points="1092.02,-156.07 1081.44,-156.5 1089.98,-162.77 1092.02,-156.07"/>
</a>
</g>
</g>
<!-- Node31&#45;&gt;Node9 -->
<g id="edge40_Node000031_Node000009" class="edge">
<title>Node31&#45;&gt;Node9</title>
<g id="a_edge40_Node000031_Node000009"><a xlink:title=" ">
<path fill="none" stroke="#63b8ff" d="M2272,-131.8C2272,-122.7 2272,-110.79 2272,-100.9"/>
<polygon fill="#63b8ff" stroke="#63b8ff" points="2275.5,-100.84 2272,-90.84 2268.5,-100.84 2275.5,-100.84"/>
</a>
</g>
</g>
<!-- Node31&#45;&gt;Node10 -->
<g id="edge41_Node000031_Node000010" class="edge">
<title>Node31&#45;&gt;Node10</title>
<g id="a_edge41_Node000031_Node000010"><a xlink:title=" ">
<path fill="none" stroke="#63b8ff" d="M2195.55,-133.35C2192.67,-132.89 2189.81,-132.44 2187,-132 2094.17,-117.45 1986.75,-101.64 1918.85,-91.78"/>
<polygon fill="#63b8ff" stroke="#63b8ff" points="1919.11,-88.28 1908.71,-90.31 1918.11,-95.21 1919.11,-88.28"/>
</a>
</g>
</g>
</g>
</svg>
