<?xml version="1.0" encoding="UTF-8" standalone="no"?>
<!DOCTYPE svg PUBLIC "-//W3C//DTD SVG 1.1//EN"
 "http://www.w3.org/Graphics/SVG/1.1/DTD/svg11.dtd">
<!-- Generated by graphviz version 2.43.0 (0)
 -->
<!-- Title: /home/runner/work/lethe/lethe/source/core/grid_birmingham_fluidized_bed.cc Pages: 1 -->
<svg width="632pt" height="181pt"
 viewBox="0.00 0.00 632.00 181.00" xmlns="http://www.w3.org/2000/svg" xmlns:xlink="http://www.w3.org/1999/xlink">
<g id="graph0" class="graph" transform="scale(1 1) rotate(0) translate(4 177)">
<title>/home/runner/work/lethe/lethe/source/core/grid_birmingham_fluidized_bed.cc</title>
<!-- Node1 -->
<g id="Node000001" class="node">
<title>Node1</title>
<g id="a_Node000001"><a xlink:title=" ">
<polygon fill="#999999" stroke="#666666" points="484,-173 320,-173 320,-132 484,-132 484,-173"/>
<text text-anchor="start" x="328" y="-161" font-family="Helvetica,sans-Serif" font-size="10.00">/home/runner/work/lethe</text>
<text text-anchor="start" x="328" y="-150" font-family="Helvetica,sans-Serif" font-size="10.00">/lethe/source/core/grid</text>
<text text-anchor="middle" x="402" y="-139" font-family="Helvetica,sans-Serif" font-size="10.00">_birmingham_fluidized_bed.cc</text>
</a>
</g>
</g>
<!-- Node2 -->
<g id="Node000002" class="node">
<title>Node2</title>
<g id="a_Node000002"><a xlink:href="grid__birmingham__fluidized__bed_8h.html" target="_top" xlink:title=" ">
<polygon fill="white" stroke="#666666" points="308,-96 184,-96 184,-66 308,-66 308,-96"/>
<text text-anchor="start" x="192" y="-84" font-family="Helvetica,sans-Serif" font-size="10.00">core/grid_birmingham</text>
<text text-anchor="middle" x="246" y="-73" font-family="Helvetica,sans-Serif" font-size="10.00">_fluidized_bed.h</text>
</a>
</g>
</g>
<!-- Node1&#45;&gt;Node2 -->
<g id="edge1_Node000001_Node000002" class="edge">
<title>Node1&#45;&gt;Node2</title>
<g id="a_edge1_Node000001_Node000002"><a xlink:title=" ">
<path fill="none" stroke="#63b8ff" d="M358.13,-131.96C335.84,-122.02 308.91,-110.03 287.03,-100.28"/>
<polygon fill="#63b8ff" stroke="#63b8ff" points="288.24,-96.99 277.68,-96.11 285.39,-103.38 288.24,-96.99"/>
</a>
</g>
</g>
<!-- Node7 -->
<g id="Node000007" class="node">
<title>Node7</title>
<g id="a_Node000007"><a xlink:title=" ">
<polygon fill="#e0e0e0" stroke="#999999" points="477.5,-90.5 326.5,-90.5 326.5,-71.5 477.5,-71.5 477.5,-90.5"/>
<text text-anchor="middle" x="402" y="-78.5" font-family="Helvetica,sans-Serif" font-size="10.00">deal.II/grid/grid_generator.h</text>
</a>
</g>
</g>
<!-- Node1&#45;&gt;Node7 -->
<g id="edge6_Node000001_Node000007" class="edge">
<title>Node1&#45;&gt;Node7</title>
<g id="a_edge6_Node000001_Node000007"><a xlink:title=" ">
<path fill="none" stroke="#63b8ff" d="M402,-131.77C402,-122.08 402,-110.46 402,-100.88"/>
<polygon fill="#63b8ff" stroke="#63b8ff" points="405.5,-100.82 402,-90.82 398.5,-100.82 405.5,-100.82"/>
</a>
</g>
</g>
<!-- Node8 -->
<g id="Node000008" class="node">
<title>Node8</title>
<g id="a_Node000008"><a xlink:title=" ">
<polygon fill="#e0e0e0" stroke="#999999" points="624,-90.5 496,-90.5 496,-71.5 624,-71.5 624,-90.5"/>
<text text-anchor="middle" x="560" y="-78.5" font-family="Helvetica,sans-Serif" font-size="10.00">deal.II/grid/grid_tools.h</text>
</a>
</g>
</g>
<!-- Node1&#45;&gt;Node8 -->
<g id="edge7_Node000001_Node000008" class="edge">
<title>Node1&#45;&gt;Node8</title>
<g id="a_edge7_Node000001_Node000008"><a xlink:title=" ">
<path fill="none" stroke="#63b8ff" d="M446.43,-131.96C473.59,-120.01 507.53,-105.08 531.2,-94.67"/>
<polygon fill="#63b8ff" stroke="#63b8ff" points="532.92,-97.73 540.67,-90.5 530.11,-91.33 532.92,-97.73"/>
</a>
</g>
</g>
<!-- Node3 -->
<g id="Node000003" class="node">
<title>Node3</title>
<g id="a_Node000003"><a xlink:title=" ">
<polygon fill="#e0e0e0" stroke="#999999" points="122,-24.5 0,-24.5 0,-5.5 122,-5.5 122,-24.5"/>
<text text-anchor="middle" x="61" y="-12.5" font-family="Helvetica,sans-Serif" font-size="10.00">deal.II/base/utilities.h</text>
</a>
</g>
</g>
<!-- Node2&#45;&gt;Node3 -->
<g id="edge2_Node000002_Node000003" class="edge">
<title>Node2&#45;&gt;Node3</title>
<g id="a_edge2_Node000002_Node000003"><a xlink:title=" ">
<path fill="none" stroke="#63b8ff" d="M205.4,-65.95C172.39,-54.53 126.33,-38.6 95.18,-27.82"/>
<polygon fill="#63b8ff" stroke="#63b8ff" points="96.22,-24.48 85.62,-24.52 93.93,-31.09 96.22,-24.48"/>
</a>
</g>
</g>
<!-- Node4 -->
<g id="Node000004" class="node">
<title>Node4</title>
<g id="a_Node000004"><a xlink:title=" ">
<polygon fill="#e0e0e0" stroke="#999999" points="255.5,-30 140.5,-30 140.5,0 255.5,0 255.5,-30"/>
<text text-anchor="start" x="148.5" y="-18" font-family="Helvetica,sans-Serif" font-size="10.00">deal.II/grid/manifold</text>
<text text-anchor="middle" x="198" y="-7" font-family="Helvetica,sans-Serif" font-size="10.00">_lib.h</text>
</a>
</g>
</g>
<!-- Node2&#45;&gt;Node4 -->
<g id="edge3_Node000002_Node000004" class="edge">
<title>Node2&#45;&gt;Node4</title>
<g id="a_edge3_Node000002_Node000004"><a xlink:title=" ">
<path fill="none" stroke="#63b8ff" d="M235.35,-65.8C229.32,-57.76 221.64,-47.53 214.82,-38.43"/>
<polygon fill="#63b8ff" stroke="#63b8ff" points="217.42,-36.06 208.62,-30.16 211.82,-40.26 217.42,-36.06"/>
</a>
</g>
</g>
<!-- Node5 -->
<g id="Node000005" class="node">
<title>Node5</title>
<g id="a_Node000005"><a xlink:title=" ">
<polygon fill="#e0e0e0" stroke="#999999" points="316,-24.5 274,-24.5 274,-5.5 316,-5.5 316,-24.5"/>
<text text-anchor="middle" x="295" y="-12.5" font-family="Helvetica,sans-Serif" font-size="10.00">array</text>
</a>
</g>
</g>
<!-- Node2&#45;&gt;Node5 -->
<g id="edge4_Node000002_Node000005" class="edge">
<title>Node2&#45;&gt;Node5</title>
<g id="a_edge4_Node000002_Node000005"><a xlink:title=" ">
<path fill="none" stroke="#63b8ff" d="M256.87,-65.8C264.29,-56.11 274.14,-43.24 281.98,-33.01"/>
<polygon fill="#63b8ff" stroke="#63b8ff" points="284.93,-34.91 288.23,-24.84 279.37,-30.66 284.93,-34.91"/>
</a>
</g>
</g>
<!-- Node6 -->
<g id="Node000006" class="node">
<title>Node6</title>
<g id="a_Node000006"><a xlink:title=" ">
<polygon fill="#e0e0e0" stroke="#999999" points="390,-24.5 334,-24.5 334,-5.5 390,-5.5 390,-24.5"/>
<text text-anchor="middle" x="362" y="-12.5" font-family="Helvetica,sans-Serif" font-size="10.00">sstream</text>
</a>
</g>
</g>
<!-- Node2&#45;&gt;Node6 -->
<g id="edge5_Node000002_Node000006" class="edge">
<title>Node2&#45;&gt;Node6</title>
<g id="a_edge5_Node000002_Node000006"><a xlink:title=" ">
<path fill="none" stroke="#63b8ff" d="M271.46,-65.95C291.17,-55.08 318.31,-40.11 337.72,-29.4"/>
<polygon fill="#63b8ff" stroke="#63b8ff" points="339.5,-32.41 346.56,-24.52 336.12,-26.28 339.5,-32.41"/>
</a>
</g>
</g>
</g>
</svg>
