<?xml version="1.0" encoding="UTF-8" standalone="no"?>
<!DOCTYPE svg PUBLIC "-//W3C//DTD SVG 1.1//EN"
 "http://www.w3.org/Graphics/SVG/1.1/DTD/svg11.dtd">
<!-- Generated by graphviz version 2.43.0 (0)
 -->
<!-- Title: /home/runner/work/lethe/lethe/source/core/grid_birmingham_fluidized_bed.cc Pages: 1 -->
<svg width="714pt" height="181pt"
 viewBox="0.00 0.00 714.00 181.00" xmlns="http://www.w3.org/2000/svg" xmlns:xlink="http://www.w3.org/1999/xlink">
<g id="graph0" class="graph" transform="scale(1 1) rotate(0) translate(4 177)">
<title>/home/runner/work/lethe/lethe/source/core/grid_birmingham_fluidized_bed.cc</title>
<!-- Node1 -->
<g id="Node000001" class="node">
<title>Node1</title>
<g id="a_Node000001"><a xlink:title=" ">
<polygon fill="#999999" stroke="#666666" points="526,-173 362,-173 362,-132 526,-132 526,-173"/>
<text text-anchor="start" x="370" y="-161" font-family="Helvetica,sans-Serif" font-size="10.00">/home/runner/work/lethe</text>
<text text-anchor="start" x="370" y="-150" font-family="Helvetica,sans-Serif" font-size="10.00">/lethe/source/core/grid</text>
<text text-anchor="middle" x="444" y="-139" font-family="Helvetica,sans-Serif" font-size="10.00">_birmingham_fluidized_bed.cc</text>
</a>
</g>
</g>
<!-- Node2 -->
<g id="Node000002" class="node">
<title>Node2</title>
<g id="a_Node000002"><a xlink:href="grid__birmingham__fluidized__bed_8h.html" target="_top" xlink:title=" ">
<polygon fill="white" stroke="#666666" points="506,-96 382,-96 382,-66 506,-66 506,-96"/>
<text text-anchor="start" x="390" y="-84" font-family="Helvetica,sans-Serif" font-size="10.00">core/grid_birmingham</text>
<text text-anchor="middle" x="444" y="-73" font-family="Helvetica,sans-Serif" font-size="10.00">_fluidized_bed.h</text>
</a>
</g>
</g>
<!-- Node1&#45;&gt;Node2 -->
<g id="edge1_Node000001_Node000002" class="edge">
<title>Node1&#45;&gt;Node2</title>
<g id="a_edge1_Node000001_Node000002"><a xlink:title=" ">
<path fill="none" stroke="#63b8ff" d="M444,-131.77C444,-123.85 444,-114.63 444,-106.3"/>
<polygon fill="#63b8ff" stroke="#63b8ff" points="447.5,-106.04 444,-96.04 440.5,-106.04 447.5,-106.04"/>
</a>
</g>
</g>
<!-- Node3 -->
<g id="Node000003" class="node">
<title>Node3</title>
<g id="a_Node000003"><a xlink:title=" ">
<polygon fill="#e0e0e0" stroke="#999999" points="122,-24.5 0,-24.5 0,-5.5 122,-5.5 122,-24.5"/>
<text text-anchor="middle" x="61" y="-12.5" font-family="Helvetica,sans-Serif" font-size="10.00">deal.II/base/utilities.h</text>
</a>
</g>
</g>
<!-- Node2&#45;&gt;Node3 -->
<g id="edge2_Node000002_Node000003" class="edge">
<title>Node2&#45;&gt;Node3</title>
<g id="a_edge2_Node000002_Node000003"><a xlink:title=" ">
<path fill="none" stroke="#63b8ff" d="M381.82,-70.8C318.57,-61.27 217.79,-45.61 131,-30 124.92,-28.91 118.55,-27.71 112.23,-26.49"/>
<polygon fill="#63b8ff" stroke="#63b8ff" points="112.89,-23.05 102.41,-24.56 111.55,-29.92 112.89,-23.05"/>
</a>
</g>
</g>
<!-- Node4 -->
<g id="Node000004" class="node">
<title>Node4</title>
<g id="a_Node000004"><a xlink:title=" ">
<polygon fill="#e0e0e0" stroke="#999999" points="291.5,-24.5 140.5,-24.5 140.5,-5.5 291.5,-5.5 291.5,-24.5"/>
<text text-anchor="middle" x="216" y="-12.5" font-family="Helvetica,sans-Serif" font-size="10.00">deal.II/grid/grid_generator.h</text>
</a>
</g>
</g>
<!-- Node2&#45;&gt;Node4 -->
<g id="edge3_Node000002_Node000004" class="edge">
<title>Node2&#45;&gt;Node4</title>
<g id="a_edge3_Node000002_Node000004"><a xlink:title=" ">
<path fill="none" stroke="#63b8ff" d="M393.96,-65.95C352.57,-54.34 294.54,-38.05 256.14,-27.27"/>
<polygon fill="#63b8ff" stroke="#63b8ff" points="256.92,-23.85 246.34,-24.52 255.02,-30.59 256.92,-23.85"/>
</a>
</g>
</g>
<!-- Node5 -->
<g id="Node000005" class="node">
<title>Node5</title>
<g id="a_Node000005"><a xlink:title=" ">
<polygon fill="#e0e0e0" stroke="#999999" points="438,-24.5 310,-24.5 310,-5.5 438,-5.5 438,-24.5"/>
<text text-anchor="middle" x="374" y="-12.5" font-family="Helvetica,sans-Serif" font-size="10.00">deal.II/grid/grid_tools.h</text>
</a>
</g>
</g>
<!-- Node2&#45;&gt;Node5 -->
<g id="edge4_Node000002_Node000005" class="edge">
<title>Node2&#45;&gt;Node5</title>
<g id="a_edge4_Node000002_Node000005"><a xlink:title=" ">
<path fill="none" stroke="#63b8ff" d="M428.46,-65.8C417.44,-55.72 402.65,-42.19 391.26,-31.78"/>
<polygon fill="#63b8ff" stroke="#63b8ff" points="393.42,-29.01 383.67,-24.84 388.69,-34.18 393.42,-29.01"/>
</a>
</g>
</g>
<!-- Node6 -->
<g id="Node000006" class="node">
<title>Node6</title>
<g id="a_Node000006"><a xlink:title=" ">
<polygon fill="#e0e0e0" stroke="#999999" points="571.5,-30 456.5,-30 456.5,0 571.5,0 571.5,-30"/>
<text text-anchor="start" x="464.5" y="-18" font-family="Helvetica,sans-Serif" font-size="10.00">deal.II/grid/manifold</text>
<text text-anchor="middle" x="514" y="-7" font-family="Helvetica,sans-Serif" font-size="10.00">_lib.h</text>
</a>
</g>
</g>
<!-- Node2&#45;&gt;Node6 -->
<g id="edge5_Node000002_Node000006" class="edge">
<title>Node2&#45;&gt;Node6</title>
<g id="a_edge5_Node000002_Node000006"><a xlink:title=" ">
<path fill="none" stroke="#63b8ff" d="M459.54,-65.8C468.78,-57.34 480.68,-46.46 491,-37.03"/>
<polygon fill="#63b8ff" stroke="#63b8ff" points="493.49,-39.49 498.51,-30.16 488.77,-34.33 493.49,-39.49"/>
</a>
</g>
</g>
<!-- Node7 -->
<g id="Node000007" class="node">
<title>Node7</title>
<g id="a_Node000007"><a xlink:title=" ">
<polygon fill="#e0e0e0" stroke="#999999" points="632,-24.5 590,-24.5 590,-5.5 632,-5.5 632,-24.5"/>
<text text-anchor="middle" x="611" y="-12.5" font-family="Helvetica,sans-Serif" font-size="10.00">array</text>
</a>
</g>
</g>
<!-- Node2&#45;&gt;Node7 -->
<g id="edge6_Node000002_Node000007" class="edge">
<title>Node2&#45;&gt;Node7</title>
<g id="a_edge6_Node000002_Node000007"><a xlink:title=" ">
<path fill="none" stroke="#63b8ff" d="M485.42,-65.93C512.79,-56.38 549.31,-43.15 581,-30 582.01,-29.58 583.03,-29.15 584.06,-28.7"/>
<polygon fill="#63b8ff" stroke="#63b8ff" points="585.65,-31.83 593.35,-24.55 582.79,-25.44 585.65,-31.83"/>
</a>
</g>
</g>
<!-- Node8 -->
<g id="Node000008" class="node">
<title>Node8</title>
<g id="a_Node000008"><a xlink:title=" ">
<polygon fill="#e0e0e0" stroke="#999999" points="706,-24.5 650,-24.5 650,-5.5 706,-5.5 706,-24.5"/>
<text text-anchor="middle" x="678" y="-12.5" font-family="Helvetica,sans-Serif" font-size="10.00">sstream</text>
</a>
</g>
</g>
<!-- Node2&#45;&gt;Node8 -->
<g id="edge7_Node000002_Node000008" class="edge">
<title>Node2&#45;&gt;Node8</title>
<g id="a_edge7_Node000002_Node000008"><a xlink:title=" ">
<path fill="none" stroke="#63b8ff" d="M506.17,-66.12C545.2,-56.95 596.41,-44.05 641,-30 642.92,-29.4 644.88,-28.75 646.85,-28.07"/>
<polygon fill="#63b8ff" stroke="#63b8ff" points="648.4,-31.24 656.62,-24.56 646.03,-24.65 648.4,-31.24"/>
</a>
</g>
</g>
</g>
</svg>
