<?xml version="1.0" encoding="UTF-8" standalone="no"?>
<!DOCTYPE svg PUBLIC "-//W3C//DTD SVG 1.1//EN"
 "http://www.w3.org/Graphics/SVG/1.1/DTD/svg11.dtd">
<!-- Generated by graphviz version 2.43.0 (0)
 -->
<!-- Title: /home/runner/work/lethe/lethe/include/core/grids.h Pages: 1 -->
<svg width="2560pt" height="412pt"
 viewBox="0.00 0.00 2560.15 412.00" xmlns="http://www.w3.org/2000/svg" xmlns:xlink="http://www.w3.org/1999/xlink">
<g id="graph0" class="graph" transform="scale(1 1) rotate(0) translate(4 408)">
<title>/home/runner/work/lethe/lethe/include/core/grids.h</title>
<!-- Node1 -->
<g id="Node000001" class="node">
<title>Node1</title>
<g id="a_Node000001"><a xlink:title=" ">
<polygon fill="#999999" stroke="#666666" points="335.5,-404 192.5,-404 192.5,-374 335.5,-374 335.5,-404"/>
<text text-anchor="start" x="200.5" y="-392" font-family="Helvetica,sans-Serif" font-size="10.00">/home/runner/work/lethe</text>
<text text-anchor="middle" x="264" y="-381" font-family="Helvetica,sans-Serif" font-size="10.00">/lethe/include/core/grids.h</text>
</a>
</g>
</g>
<!-- Node2 -->
<g id="Node000002" class="node">
<title>Node2</title>
<g id="a_Node000002"><a xlink:href="boundary__conditions_8h.html" target="_top" xlink:title=" ">
<polygon fill="white" stroke="#666666" points="645.5,-217 494.5,-217 494.5,-198 645.5,-198 645.5,-217"/>
<text text-anchor="middle" x="570" y="-205" font-family="Helvetica,sans-Serif" font-size="10.00">core/boundary_conditions.h</text>
</a>
</g>
</g>
<!-- Node1&#45;&gt;Node2 -->
<g id="edge1_Node000001_Node000002" class="edge">
<title>Node1&#45;&gt;Node2</title>
<g id="a_edge1_Node000001_Node000002"><a xlink:title=" ">
<path fill="none" stroke="#63b8ff" d="M270.4,-373.92C283.82,-346.04 317.75,-283.88 366,-253 401.04,-230.58 445.65,-219.32 484.21,-213.72"/>
<polygon fill="#63b8ff" stroke="#63b8ff" points="484.95,-217.15 494.4,-212.35 484.02,-210.21 484.95,-217.15"/>
</a>
</g>
</g>
<!-- Node26 -->
<g id="Node000026" class="node">
<title>Node26</title>
<g id="a_Node000026"><a xlink:href="manifolds_8h.html" target="_top" xlink:title=" ">
<polygon fill="white" stroke="#666666" points="179,-217 81,-217 81,-198 179,-198 179,-217"/>
<text text-anchor="middle" x="130" y="-205" font-family="Helvetica,sans-Serif" font-size="10.00">core/manifolds.h</text>
</a>
</g>
</g>
<!-- Node1&#45;&gt;Node26 -->
<g id="edge28_Node000001_Node000026" class="edge">
<title>Node1&#45;&gt;Node26</title>
<g id="a_edge28_Node000001_Node000026"><a xlink:title=" ">
<path fill="none" stroke="#63b8ff" d="M253.49,-373.91C229.13,-341.29 168.93,-260.65 142.63,-225.42"/>
<polygon fill="#63b8ff" stroke="#63b8ff" points="145.23,-223.05 136.45,-217.13 139.62,-227.24 145.23,-223.05"/>
</a>
</g>
</g>
<!-- Node27 -->
<g id="Node000027" class="node">
<title>Node27</title>
<g id="a_Node000027"><a xlink:title=" ">
<polygon fill="#e0e0e0" stroke="#999999" points="102,-162 0,-162 0,-132 102,-132 102,-162"/>
<text text-anchor="start" x="8" y="-150" font-family="Helvetica,sans-Serif" font-size="10.00">deal.II/distributed</text>
<text text-anchor="middle" x="51" y="-139" font-family="Helvetica,sans-Serif" font-size="10.00">/tria_base.h</text>
</a>
</g>
</g>
<!-- Node1&#45;&gt;Node27 -->
<g id="edge64_Node000001_Node000027" class="edge">
<title>Node1&#45;&gt;Node27</title>
<g id="a_edge64_Node000001_Node000027"><a xlink:title=" ">
<path fill="none" stroke="#63b8ff" d="M241.09,-373.8C200.89,-347.71 117.6,-288.25 72,-217 63.29,-203.38 58.02,-185.96 54.94,-172.02"/>
<polygon fill="#63b8ff" stroke="#63b8ff" points="58.37,-171.3 52.99,-162.17 51.5,-172.66 58.37,-171.3"/>
</a>
</g>
</g>
<!-- Node28 -->
<g id="Node000028" class="node">
<title>Node28</title>
<g id="a_Node000028"><a xlink:href="parameters_8h.html" target="_top" xlink:title=" ">
<polygon fill="white" stroke="#666666" points="562,-338 456,-338 456,-319 562,-319 562,-338"/>
<text text-anchor="middle" x="509" y="-326" font-family="Helvetica,sans-Serif" font-size="10.00">core/parameters.h</text>
</a>
</g>
</g>
<!-- Node1&#45;&gt;Node28 -->
<g id="edge33_Node000001_Node000028" class="edge">
<title>Node1&#45;&gt;Node28</title>
<g id="a_edge33_Node000001_Node000028"><a xlink:title=" ">
<path fill="none" stroke="#63b8ff" d="M322.68,-373.99C365.79,-363.7 423.52,-349.91 463.24,-340.43"/>
<polygon fill="#63b8ff" stroke="#63b8ff" points="464.26,-343.78 473.18,-338.05 462.64,-336.97 464.26,-343.78"/>
</a>
</g>
</g>
<!-- Node3 -->
<g id="Node000003" class="node">
<title>Node3</title>
<g id="a_Node000003"><a xlink:href="utilities_8h.html" target="_top" xlink:title=" ">
<polygon fill="white" stroke="#666666" points="686,-156.5 600,-156.5 600,-137.5 686,-137.5 686,-156.5"/>
<text text-anchor="middle" x="643" y="-144.5" font-family="Helvetica,sans-Serif" font-size="10.00">core/utilities.h</text>
</a>
</g>
</g>
<!-- Node2&#45;&gt;Node3 -->
<g id="edge2_Node000002_Node000003" class="edge">
<title>Node2&#45;&gt;Node3</title>
<g id="a_edge2_Node000002_Node000003"><a xlink:title=" ">
<path fill="none" stroke="#63b8ff" d="M580.77,-197.87C592.2,-188.71 610.48,-174.06 624.28,-163.01"/>
<polygon fill="#63b8ff" stroke="#63b8ff" points="626.57,-165.65 632.18,-156.67 622.19,-160.19 626.57,-165.65"/>
</a>
</g>
</g>
<!-- Node8 -->
<g id="Node000008" class="node">
<title>Node8</title>
<g id="a_Node000008"><a xlink:title=" ">
<polygon fill="#e0e0e0" stroke="#999999" points="285.5,-96 158.5,-96 158.5,-66 285.5,-66 285.5,-96"/>
<text text-anchor="start" x="166.5" y="-84" font-family="Helvetica,sans-Serif" font-size="10.00">deal.II/base/parameter</text>
<text text-anchor="middle" x="222" y="-73" font-family="Helvetica,sans-Serif" font-size="10.00">_handler.h</text>
</a>
</g>
</g>
<!-- Node2&#45;&gt;Node8 -->
<g id="edge24_Node000002_Node000008" class="edge">
<title>Node2&#45;&gt;Node8</title>
<g id="a_edge24_Node000002_Node000008"><a xlink:title=" ">
<path fill="none" stroke="#63b8ff" d="M566.12,-197.88C558.47,-181.95 539.81,-148.09 513,-132 431.52,-83.08 394.12,-111.29 295.72,-95.99"/>
<polygon fill="#63b8ff" stroke="#63b8ff" points="296.12,-92.51 285.68,-94.31 294.97,-99.41 296.12,-92.51"/>
</a>
</g>
</g>
<!-- Node18 -->
<g id="Node000018" class="node">
<title>Node18</title>
<g id="a_Node000018"><a xlink:title=" ">
<polygon fill="#e0e0e0" stroke="#999999" points="342,-90.5 304,-90.5 304,-71.5 342,-71.5 342,-90.5"/>
<text text-anchor="middle" x="323" y="-78.5" font-family="Helvetica,sans-Serif" font-size="10.00">map</text>
</a>
</g>
</g>
<!-- Node2&#45;&gt;Node18 -->
<g id="edge27_Node000002_Node000018" class="edge">
<title>Node2&#45;&gt;Node18</title>
<g id="a_edge27_Node000002_Node000018"><a xlink:title=" ">
<path fill="none" stroke="#63b8ff" d="M569.91,-197.84C569.26,-182.17 565.5,-149.13 546,-132 479.79,-73.83 434.57,-123.98 351,-96 349.78,-95.59 348.55,-95.14 347.32,-94.66"/>
<polygon fill="#63b8ff" stroke="#63b8ff" points="348.63,-91.41 338.07,-90.5 345.76,-97.79 348.63,-91.41"/>
</a>
</g>
</g>
<!-- Node23 -->
<g id="Node000023" class="node">
<title>Node23</title>
<g id="a_Node000023"><a xlink:title=" ">
<polygon fill="#e0e0e0" stroke="#999999" points="956.5,-156.5 831.5,-156.5 831.5,-137.5 956.5,-137.5 956.5,-156.5"/>
<text text-anchor="middle" x="894" y="-144.5" font-family="Helvetica,sans-Serif" font-size="10.00">deal.II/base/function.h</text>
</a>
</g>
</g>
<!-- Node2&#45;&gt;Node23 -->
<g id="edge23_Node000002_Node000023" class="edge">
<title>Node2&#45;&gt;Node23</title>
<g id="a_edge23_Node000002_Node000023"><a xlink:title=" ">
<path fill="none" stroke="#63b8ff" d="M620.46,-197.94C671.56,-189.2 752.85,-175.08 823,-162 829.08,-160.87 835.44,-159.65 841.76,-158.43"/>
<polygon fill="#63b8ff" stroke="#63b8ff" points="842.46,-161.86 851.6,-156.51 841.12,-154.99 842.46,-161.86"/>
</a>
</g>
</g>
<!-- Node24 -->
<g id="Node000024" class="node">
<title>Node24</title>
<g id="a_Node000024"><a xlink:title=" ">
<polygon fill="#e0e0e0" stroke="#999999" points="813.5,-162 704.5,-162 704.5,-132 813.5,-132 813.5,-162"/>
<text text-anchor="start" x="712.5" y="-150" font-family="Helvetica,sans-Serif" font-size="10.00">deal.II/base/parsed</text>
<text text-anchor="middle" x="759" y="-139" font-family="Helvetica,sans-Serif" font-size="10.00">_function.h</text>
</a>
</g>
</g>
<!-- Node2&#45;&gt;Node24 -->
<g id="edge25_Node000002_Node000024" class="edge">
<title>Node2&#45;&gt;Node24</title>
<g id="a_edge25_Node000002_Node000024"><a xlink:title=" ">
<path fill="none" stroke="#63b8ff" d="M597.48,-197.99C625.28,-189.39 669.01,-175.86 703.96,-165.04"/>
<polygon fill="#63b8ff" stroke="#63b8ff" points="705.04,-168.36 713.56,-162.06 702.97,-161.68 705.04,-168.36"/>
</a>
</g>
</g>
<!-- Node25 -->
<g id="Node000025" class="node">
<title>Node25</title>
<g id="a_Node000025"><a xlink:title=" ">
<polygon fill="#e0e0e0" stroke="#999999" points="503.5,-156.5 378.5,-156.5 378.5,-137.5 503.5,-137.5 503.5,-156.5"/>
<text text-anchor="middle" x="441" y="-144.5" font-family="Helvetica,sans-Serif" font-size="10.00">deal.II/base/patterns.h</text>
</a>
</g>
</g>
<!-- Node2&#45;&gt;Node25 -->
<g id="edge26_Node000002_Node000025" class="edge">
<title>Node2&#45;&gt;Node25</title>
<g id="a_edge26_Node000002_Node000025"><a xlink:title=" ">
<path fill="none" stroke="#63b8ff" d="M551.24,-197.99C529.65,-188.2 493.97,-172.02 469.07,-160.73"/>
<polygon fill="#63b8ff" stroke="#63b8ff" points="470.33,-157.46 459.78,-156.52 467.44,-163.83 470.33,-157.46"/>
</a>
</g>
</g>
<!-- Node4 -->
<g id="Node000004" class="node">
<title>Node4</title>
<g id="a_Node000004"><a xlink:href="output__struct_8h.html" target="_top" xlink:title=" ">
<polygon fill="white" stroke="#666666" points="798,-90.5 684,-90.5 684,-71.5 798,-71.5 798,-90.5"/>
<text text-anchor="middle" x="741" y="-78.5" font-family="Helvetica,sans-Serif" font-size="10.00">core/output_struct.h</text>
</a>
</g>
</g>
<!-- Node3&#45;&gt;Node4 -->
<g id="edge3_Node000003_Node000004" class="edge">
<title>Node3&#45;&gt;Node4</title>
<g id="a_edge3_Node000003_Node000004"><a xlink:title=" ">
<path fill="none" stroke="#63b8ff" d="M656.22,-137.37C672.36,-126.82 699.91,-108.84 719.21,-96.23"/>
<polygon fill="#63b8ff" stroke="#63b8ff" points="721.22,-99.1 727.68,-90.7 717.39,-93.24 721.22,-99.1"/>
</a>
</g>
</g>
<!-- Node5 -->
<g id="Node000005" class="node">
<title>Node5</title>
<g id="a_Node000005"><a xlink:title=" ">
<polygon fill="#e0e0e0" stroke="#999999" points="833.5,-30 732.5,-30 732.5,0 833.5,0 833.5,-30"/>
<text text-anchor="start" x="740.5" y="-18" font-family="Helvetica,sans-Serif" font-size="10.00">deal.II/base/table</text>
<text text-anchor="middle" x="783" y="-7" font-family="Helvetica,sans-Serif" font-size="10.00">_handler.h</text>
</a>
</g>
</g>
<!-- Node3&#45;&gt;Node5 -->
<g id="edge9_Node000003_Node000005" class="edge">
<title>Node3&#45;&gt;Node5</title>
<g id="a_edge9_Node000003_Node000005"><a xlink:title=" ">
<path fill="none" stroke="#63b8ff" d="M674.41,-137.46C720.88,-124.67 802.95,-101.47 807,-96 819.45,-79.19 810.24,-55.91 799.84,-38.8"/>
<polygon fill="#63b8ff" stroke="#63b8ff" points="802.48,-36.45 794.06,-30.01 796.63,-40.29 802.48,-36.45"/>
</a>
</g>
</g>
<!-- Node7 -->
<g id="Node000007" class="node">
<title>Node7</title>
<g id="a_Node000007"><a xlink:title=" ">
<polygon fill="#e0e0e0" stroke="#999999" points="984,-96 854,-96 854,-66 984,-66 984,-96"/>
<text text-anchor="start" x="862" y="-84" font-family="Helvetica,sans-Serif" font-size="10.00">deal.II/base/conditional</text>
<text text-anchor="middle" x="919" y="-73" font-family="Helvetica,sans-Serif" font-size="10.00">_ostream.h</text>
</a>
</g>
</g>
<!-- Node3&#45;&gt;Node7 -->
<g id="edge6_Node000003_Node000007" class="edge">
<title>Node3&#45;&gt;Node7</title>
<g id="a_edge6_Node000003_Node000007"><a xlink:title=" ">
<path fill="none" stroke="#63b8ff" d="M674.62,-137.44C681.65,-135.6 689.07,-133.69 696,-132 745.17,-120 800.71,-107.54 844.06,-98.07"/>
<polygon fill="#63b8ff" stroke="#63b8ff" points="844.93,-101.46 853.96,-95.91 843.44,-94.62 844.93,-101.46"/>
</a>
</g>
</g>
<!-- Node3&#45;&gt;Node8 -->
<g id="edge7_Node000003_Node000008" class="edge">
<title>Node3&#45;&gt;Node8</title>
<g id="a_edge7_Node000003_Node000008"><a xlink:title=" ">
<path fill="none" stroke="#63b8ff" d="M599.54,-139.72C582.81,-137.3 563.52,-134.52 546,-132 437.61,-116.41 407.82,-114.71 295.69,-96.07"/>
<polygon fill="#63b8ff" stroke="#63b8ff" points="296.11,-92.59 285.67,-94.39 294.96,-99.49 296.11,-92.59"/>
</a>
</g>
</g>
<!-- Node9 -->
<g id="Node000009" class="node">
<title>Node9</title>
<g id="a_Node000009"><a xlink:title=" ">
<polygon fill="#e0e0e0" stroke="#999999" points="2335,-90.5 2225,-90.5 2225,-71.5 2335,-71.5 2335,-90.5"/>
<text text-anchor="middle" x="2280" y="-78.5" font-family="Helvetica,sans-Serif" font-size="10.00">deal.II/base/point.h</text>
</a>
</g>
</g>
<!-- Node3&#45;&gt;Node9 -->
<g id="edge8_Node000003_Node000009" class="edge">
<title>Node3&#45;&gt;Node9</title>
<g id="a_edge8_Node000003_Node000009"><a xlink:title=" ">
<path fill="none" stroke="#63b8ff" d="M670.53,-137.44C678.66,-135.26 687.62,-133.2 696,-132 986.68,-90.22 1723.57,-107.81 2017,-96 2084.35,-93.29 2161.35,-89.06 2214.55,-85.96"/>
<polygon fill="#63b8ff" stroke="#63b8ff" points="2215.08,-89.43 2224.86,-85.35 2214.67,-82.44 2215.08,-89.43"/>
</a>
</g>
</g>
<!-- Node10 -->
<g id="Node000010" class="node">
<title>Node10</title>
<g id="a_Node000010"><a xlink:title=" ">
<polygon fill="#e0e0e0" stroke="#999999" points="2007.5,-90.5 1892.5,-90.5 1892.5,-71.5 2007.5,-71.5 2007.5,-90.5"/>
<text text-anchor="middle" x="1950" y="-78.5" font-family="Helvetica,sans-Serif" font-size="10.00">deal.II/base/tensor.h</text>
</a>
</g>
</g>
<!-- Node3&#45;&gt;Node10 -->
<g id="edge10_Node000003_Node000010" class="edge">
<title>Node3&#45;&gt;Node10</title>
<g id="a_edge10_Node000003_Node000010"><a xlink:title=" ">
<path fill="none" stroke="#63b8ff" d="M670.54,-137.49C678.66,-135.31 687.62,-133.24 696,-132 1130.64,-67.49 1245.03,-115.55 1684,-96 1751.49,-92.99 1828.57,-88.86 1882.32,-85.86"/>
<polygon fill="#63b8ff" stroke="#63b8ff" points="1882.63,-89.35 1892.42,-85.3 1882.24,-82.36 1882.63,-89.35"/>
</a>
</g>
</g>
<!-- Node11 -->
<g id="Node000011" class="node">
<title>Node11</title>
<g id="a_Node000011"><a xlink:title=" ">
<polygon fill="#e0e0e0" stroke="#999999" points="1675,-90.5 1535,-90.5 1535,-71.5 1675,-71.5 1675,-90.5"/>
<text text-anchor="middle" x="1605" y="-78.5" font-family="Helvetica,sans-Serif" font-size="10.00">deal.II/dofs/dof_handler.h</text>
</a>
</g>
</g>
<!-- Node3&#45;&gt;Node11 -->
<g id="edge11_Node000003_Node000011" class="edge">
<title>Node3&#45;&gt;Node11</title>
<g id="a_edge11_Node000003_Node000011"><a xlink:title=" ">
<path fill="none" stroke="#63b8ff" d="M670.82,-137.45C678.87,-135.31 687.72,-133.26 696,-132 1061.05,-76.53 1158.97,-136.3 1526,-96 1534.75,-95.04 1544,-93.7 1552.96,-92.23"/>
<polygon fill="#63b8ff" stroke="#63b8ff" points="1553.65,-95.66 1562.92,-90.52 1552.47,-88.76 1553.65,-95.66"/>
</a>
</g>
</g>
<!-- Node12 -->
<g id="Node000012" class="node">
<title>Node12</title>
<g id="a_Node000012"><a xlink:title=" ">
<polygon fill="#e0e0e0" stroke="#999999" points="1121.5,-90.5 1002.5,-90.5 1002.5,-71.5 1121.5,-71.5 1121.5,-90.5"/>
<text text-anchor="middle" x="1062" y="-78.5" font-family="Helvetica,sans-Serif" font-size="10.00">deal.II/fe/fe_values.h</text>
</a>
</g>
</g>
<!-- Node3&#45;&gt;Node12 -->
<g id="edge12_Node000003_Node000012" class="edge">
<title>Node3&#45;&gt;Node12</title>
<g id="a_edge12_Node000003_Node000012"><a xlink:title=" ">
<path fill="none" stroke="#63b8ff" d="M672.27,-137.5C679.94,-135.48 688.24,-133.49 696,-132 826.59,-106.96 861.74,-117.24 993,-96 999.33,-94.98 1005.97,-93.78 1012.52,-92.53"/>
<polygon fill="#63b8ff" stroke="#63b8ff" points="1013.55,-95.9 1022.69,-90.54 1012.2,-89.03 1013.55,-95.9"/>
</a>
</g>
</g>
<!-- Node13 -->
<g id="Node000013" class="node">
<title>Node13</title>
<g id="a_Node000013"><a xlink:title=" ">
<polygon fill="#e0e0e0" stroke="#999999" points="1270.5,-96 1139.5,-96 1139.5,-66 1270.5,-66 1270.5,-96"/>
<text text-anchor="start" x="1147.5" y="-84" font-family="Helvetica,sans-Serif" font-size="10.00">deal.II/particles/particle</text>
<text text-anchor="middle" x="1205" y="-73" font-family="Helvetica,sans-Serif" font-size="10.00">_iterator.h</text>
</a>
</g>
</g>
<!-- Node3&#45;&gt;Node13 -->
<g id="edge13_Node000003_Node000013" class="edge">
<title>Node3&#45;&gt;Node13</title>
<g id="a_edge13_Node000003_Node000013"><a xlink:title=" ">
<path fill="none" stroke="#63b8ff" d="M671.68,-137.44C679.51,-135.38 688.03,-133.37 696,-132 883.92,-99.66 936.96,-121.3 1129.14,-96.15"/>
<polygon fill="#63b8ff" stroke="#63b8ff" points="1129.84,-99.59 1139.29,-94.8 1128.92,-92.65 1129.84,-99.59"/>
</a>
</g>
</g>
<!-- Node14 -->
<g id="Node000014" class="node">
<title>Node14</title>
<g id="a_Node000014"><a xlink:title=" ">
<polygon fill="#e0e0e0" stroke="#999999" points="1393.5,-96 1288.5,-96 1288.5,-66 1393.5,-66 1393.5,-96"/>
<text text-anchor="start" x="1296.5" y="-84" font-family="Helvetica,sans-Serif" font-size="10.00">boost/archive/text</text>
<text text-anchor="middle" x="1341" y="-73" font-family="Helvetica,sans-Serif" font-size="10.00">_iarchive.hpp</text>
</a>
</g>
</g>
<!-- Node3&#45;&gt;Node14 -->
<g id="edge14_Node000003_Node000014" class="edge">
<title>Node3&#45;&gt;Node14</title>
<g id="a_edge14_Node000003_Node000014"><a xlink:title=" ">
<path fill="none" stroke="#63b8ff" d="M671.11,-137.48C679.09,-135.36 687.83,-133.32 696,-132 949.47,-91.12 1020.82,-132.14 1278.18,-96.1"/>
<polygon fill="#63b8ff" stroke="#63b8ff" points="1278.79,-99.55 1288.2,-94.68 1277.8,-92.62 1278.79,-99.55"/>
</a>
</g>
</g>
<!-- Node15 -->
<g id="Node000015" class="node">
<title>Node15</title>
<g id="a_Node000015"><a xlink:title=" ">
<polygon fill="#e0e0e0" stroke="#999999" points="1516.5,-96 1411.5,-96 1411.5,-66 1516.5,-66 1516.5,-96"/>
<text text-anchor="start" x="1419.5" y="-84" font-family="Helvetica,sans-Serif" font-size="10.00">boost/archive/text</text>
<text text-anchor="middle" x="1464" y="-73" font-family="Helvetica,sans-Serif" font-size="10.00">_oarchive.hpp</text>
</a>
</g>
</g>
<!-- Node3&#45;&gt;Node15 -->
<g id="edge15_Node000003_Node000015" class="edge">
<title>Node3&#45;&gt;Node15</title>
<g id="a_edge15_Node000003_Node000015"><a xlink:title=" ">
<path fill="none" stroke="#63b8ff" d="M670.83,-137.49C678.88,-135.35 687.72,-133.29 696,-132 1003.54,-84.08 1089.53,-138.17 1400.98,-96.12"/>
<polygon fill="#63b8ff" stroke="#63b8ff" points="1401.77,-99.54 1411.2,-94.71 1400.82,-92.6 1401.77,-99.54"/>
</a>
</g>
</g>
<!-- Node16 -->
<g id="Node000016" class="node">
<title>Node16</title>
<g id="a_Node000016"><a xlink:title=" ">
<polygon fill="#e0e0e0" stroke="#999999" points="470,-96 360,-96 360,-66 470,-66 470,-96"/>
<text text-anchor="start" x="368" y="-84" font-family="Helvetica,sans-Serif" font-size="10.00">boost/math/special</text>
<text text-anchor="middle" x="415" y="-73" font-family="Helvetica,sans-Serif" font-size="10.00">_functions/erf.hpp</text>
</a>
</g>
</g>
<!-- Node3&#45;&gt;Node16 -->
<g id="edge16_Node000003_Node000016" class="edge">
<title>Node3&#45;&gt;Node16</title>
<g id="a_edge16_Node000003_Node000016"><a xlink:title=" ">
<path fill="none" stroke="#63b8ff" d="M612.25,-137.37C577.22,-127.54 519.13,-111.23 475.03,-98.85"/>
<polygon fill="#63b8ff" stroke="#63b8ff" points="475.86,-95.45 465.29,-96.12 473.97,-102.19 475.86,-95.45"/>
</a>
</g>
</g>
<!-- Node17 -->
<g id="Node000017" class="node">
<title>Node17</title>
<g id="a_Node000017"><a xlink:title=" ">
<polygon fill="#e0e0e0" stroke="#999999" points="543.5,-90.5 488.5,-90.5 488.5,-71.5 543.5,-71.5 543.5,-90.5"/>
<text text-anchor="middle" x="516" y="-78.5" font-family="Helvetica,sans-Serif" font-size="10.00">fstream</text>
</a>
</g>
</g>
<!-- Node3&#45;&gt;Node17 -->
<g id="edge17_Node000003_Node000017" class="edge">
<title>Node3&#45;&gt;Node17</title>
<g id="a_edge17_Node000003_Node000017"><a xlink:title=" ">
<path fill="none" stroke="#63b8ff" d="M625.87,-137.37C604.38,-126.54 567.3,-107.85 542.23,-95.22"/>
<polygon fill="#63b8ff" stroke="#63b8ff" points="543.77,-92.07 533.26,-90.7 540.62,-98.32 543.77,-92.07"/>
</a>
</g>
</g>
<!-- Node3&#45;&gt;Node18 -->
<g id="edge18_Node000003_Node000018" class="edge">
<title>Node3&#45;&gt;Node18</title>
<g id="a_edge18_Node000003_Node000018"><a xlink:title=" ">
<path fill="none" stroke="#63b8ff" d="M609.09,-137.47C600.91,-135.54 592.16,-133.6 584,-132 481.16,-111.89 450.84,-127.81 351,-96 349.78,-95.61 348.54,-95.17 347.3,-94.7"/>
<polygon fill="#63b8ff" stroke="#63b8ff" points="348.6,-91.45 338.04,-90.59 345.76,-97.85 348.6,-91.45"/>
</a>
</g>
</g>
<!-- Node19 -->
<g id="Node000019" class="node">
<title>Node19</title>
<g id="a_Node000019"><a xlink:title=" ">
<polygon fill="#e0e0e0" stroke="#999999" points="606,-90.5 562,-90.5 562,-71.5 606,-71.5 606,-90.5"/>
<text text-anchor="middle" x="584" y="-78.5" font-family="Helvetica,sans-Serif" font-size="10.00">regex</text>
</a>
</g>
</g>
<!-- Node3&#45;&gt;Node19 -->
<g id="edge19_Node000003_Node000019" class="edge">
<title>Node3&#45;&gt;Node19</title>
<g id="a_edge19_Node000003_Node000019"><a xlink:title=" ">
<path fill="none" stroke="#63b8ff" d="M635.04,-137.37C625.86,-127.4 610.54,-110.79 599.08,-98.36"/>
<polygon fill="#63b8ff" stroke="#63b8ff" points="601.56,-95.89 592.21,-90.91 596.41,-100.63 601.56,-95.89"/>
</a>
</g>
</g>
<!-- Node20 -->
<g id="Node000020" class="node">
<title>Node20</title>
<g id="a_Node000020"><a xlink:title=" ">
<polygon fill="#e0e0e0" stroke="#999999" points="2415,-90.5 2371,-90.5 2371,-71.5 2415,-71.5 2415,-90.5"/>
<text text-anchor="middle" x="2393" y="-78.5" font-family="Helvetica,sans-Serif" font-size="10.00">string</text>
</a>
</g>
</g>
<!-- Node3&#45;&gt;Node20 -->
<g id="edge20_Node000003_Node000020" class="edge">
<title>Node3&#45;&gt;Node20</title>
<g id="a_edge20_Node000003_Node000020"><a xlink:title=" ">
<path fill="none" stroke="#63b8ff" d="M670.26,-137.48C678.45,-135.28 687.52,-133.2 696,-132 1058.72,-80.87 1981.81,-150.77 2344,-96 2349.58,-95.16 2355.41,-93.87 2361.04,-92.4"/>
<polygon fill="#63b8ff" stroke="#63b8ff" points="2362.15,-95.72 2370.82,-89.64 2360.25,-88.99 2362.15,-95.72"/>
</a>
</g>
</g>
<!-- Node21 -->
<g id="Node000021" class="node">
<title>Node21</title>
<g id="a_Node000021"><a xlink:title=" ">
<polygon fill="#e0e0e0" stroke="#999999" points="665.5,-90.5 624.5,-90.5 624.5,-71.5 665.5,-71.5 665.5,-90.5"/>
<text text-anchor="middle" x="645" y="-78.5" font-family="Helvetica,sans-Serif" font-size="10.00">tuple</text>
</a>
</g>
</g>
<!-- Node3&#45;&gt;Node21 -->
<g id="edge21_Node000003_Node000021" class="edge">
<title>Node3&#45;&gt;Node21</title>
<g id="a_edge21_Node000003_Node000021"><a xlink:title=" ">
<path fill="none" stroke="#63b8ff" d="M643.27,-137.37C643.56,-128.16 644.02,-113.29 644.4,-101.27"/>
<polygon fill="#63b8ff" stroke="#63b8ff" points="647.91,-101.01 644.72,-90.91 640.91,-100.79 647.91,-101.01"/>
</a>
</g>
</g>
<!-- Node22 -->
<g id="Node000022" class="node">
<title>Node22</title>
<g id="a_Node000022"><a xlink:title=" ">
<polygon fill="#e0e0e0" stroke="#999999" points="2498.5,-90.5 2451.5,-90.5 2451.5,-71.5 2498.5,-71.5 2498.5,-90.5"/>
<text text-anchor="middle" x="2475" y="-78.5" font-family="Helvetica,sans-Serif" font-size="10.00">vector</text>
</a>
</g>
</g>
<!-- Node3&#45;&gt;Node22 -->
<g id="edge22_Node000003_Node000022" class="edge">
<title>Node3&#45;&gt;Node22</title>
<g id="a_edge22_Node000003_Node000022"><a xlink:title=" ">
<path fill="none" stroke="#63b8ff" d="M670.25,-137.48C678.45,-135.28 687.52,-133.19 696,-132 1076.35,-78.58 2043.91,-151.26 2424,-96 2429.68,-95.17 2435.62,-93.92 2441.37,-92.49"/>
<polygon fill="#63b8ff" stroke="#63b8ff" points="2442.64,-95.77 2451.39,-89.79 2440.82,-89.01 2442.64,-95.77"/>
</a>
</g>
</g>
<!-- Node4&#45;&gt;Node5 -->
<g id="edge4_Node000004_Node000005" class="edge">
<title>Node4&#45;&gt;Node5</title>
<g id="a_edge4_Node000004_Node000005"><a xlink:title=" ">
<path fill="none" stroke="#63b8ff" d="M746.66,-71.37C752.11,-63.08 760.57,-50.18 767.96,-38.92"/>
<polygon fill="#63b8ff" stroke="#63b8ff" points="771.02,-40.64 773.58,-30.36 765.16,-36.8 771.02,-40.64"/>
</a>
</g>
</g>
<!-- Node6 -->
<g id="Node000006" class="node">
<title>Node6</title>
<g id="a_Node000006"><a xlink:title=" ">
<polygon fill="#e0e0e0" stroke="#999999" points="473.5,-30 354.5,-30 354.5,0 473.5,0 473.5,-30"/>
<text text-anchor="start" x="362.5" y="-18" font-family="Helvetica,sans-Serif" font-size="10.00">deal.II/numerics/data</text>
<text text-anchor="middle" x="414" y="-7" font-family="Helvetica,sans-Serif" font-size="10.00">_postprocessor.h</text>
</a>
</g>
</g>
<!-- Node4&#45;&gt;Node6 -->
<g id="edge5_Node000004_Node000006" class="edge">
<title>Node4&#45;&gt;Node6</title>
<g id="a_edge5_Node000004_Node000006"><a xlink:title=" ">
<path fill="none" stroke="#63b8ff" d="M701.24,-71.43C692.6,-69.61 683.5,-67.71 675,-66 610.21,-52.92 536.19,-38.82 483.57,-28.94"/>
<polygon fill="#63b8ff" stroke="#63b8ff" points="484.14,-25.49 473.67,-27.08 482.85,-32.37 484.14,-25.49"/>
</a>
</g>
</g>
<!-- Node26&#45;&gt;Node3 -->
<g id="edge29_Node000026_Node000003" class="edge">
<title>Node26&#45;&gt;Node3</title>
<g id="a_edge29_Node000026_Node000003"><a xlink:title=" ">
<path fill="none" stroke="#63b8ff" d="M179.24,-199.28C182.54,-198.84 185.82,-198.4 189,-198 227.95,-193.05 478.4,-165.83 589.76,-153.76"/>
<polygon fill="#63b8ff" stroke="#63b8ff" points="590.2,-157.23 599.77,-152.68 589.45,-150.28 590.2,-157.23"/>
</a>
</g>
</g>
<!-- Node26&#45;&gt;Node6 -->
<g id="edge32_Node000026_Node000006" class="edge">
<title>Node26&#45;&gt;Node6</title>
<g id="a_edge32_Node000026_Node000006"><a xlink:title=" ">
<path fill="none" stroke="#63b8ff" d="M128.18,-197.8C123.61,-173.32 114.43,-103.24 150,-66 176.09,-38.69 274.81,-25.92 343.83,-20.23"/>
<polygon fill="#63b8ff" stroke="#63b8ff" points="344.52,-23.69 354.21,-19.41 343.97,-16.71 344.52,-23.69"/>
</a>
</g>
</g>
<!-- Node26&#45;&gt;Node8 -->
<g id="edge30_Node000026_Node000008" class="edge">
<title>Node26&#45;&gt;Node8</title>
<g id="a_edge30_Node000026_Node000008"><a xlink:title=" ">
<path fill="none" stroke="#63b8ff" d="M136.32,-197.94C150.39,-178.91 184.66,-132.53 205.34,-104.54"/>
<polygon fill="#63b8ff" stroke="#63b8ff" points="208.41,-106.28 211.54,-96.16 202.78,-102.12 208.41,-106.28"/>
</a>
</g>
</g>
<!-- Node26&#45;&gt;Node27 -->
<g id="edge31_Node000026_Node000027" class="edge">
<title>Node26&#45;&gt;Node27</title>
<g id="a_edge31_Node000026_Node000027"><a xlink:title=" ">
<path fill="none" stroke="#63b8ff" d="M118.34,-197.87C107.82,-190.08 91.94,-178.32 78.24,-168.17"/>
<polygon fill="#63b8ff" stroke="#63b8ff" points="80.18,-165.25 70.06,-162.11 76.01,-170.88 80.18,-165.25"/>
</a>
</g>
</g>
<!-- Node28&#45;&gt;Node3 -->
<g id="edge60_Node000028_Node000003" class="edge">
<title>Node28&#45;&gt;Node3</title>
<g id="a_edge60_Node000028_Node000003"><a xlink:title=" ">
<path fill="none" stroke="#63b8ff" d="M562.18,-320.61C606.23,-313.69 663.83,-301.38 678,-283 705.49,-247.34 674.57,-192.24 655.59,-164.77"/>
<polygon fill="#63b8ff" stroke="#63b8ff" points="658.39,-162.67 649.72,-156.58 652.7,-166.75 658.39,-162.67"/>
</a>
</g>
</g>
<!-- Node28&#45;&gt;Node8 -->
<g id="edge61_Node000028_Node000008" class="edge">
<title>Node28&#45;&gt;Node8</title>
<g id="a_edge61_Node000028_Node000008"><a xlink:title=" ">
<path fill="none" stroke="#63b8ff" d="M455.82,-321.76C426.36,-316.13 390.79,-305.01 366,-283 335.05,-255.53 350.69,-232.6 328,-198 303.94,-161.31 268.28,-124.94 245.09,-102.97"/>
<polygon fill="#63b8ff" stroke="#63b8ff" points="247.43,-100.36 237.73,-96.09 242.64,-105.48 247.43,-100.36"/>
</a>
</g>
</g>
<!-- Node28&#45;&gt;Node24 -->
<g id="edge62_Node000028_Node000024" class="edge">
<title>Node28&#45;&gt;Node24</title>
<g id="a_edge62_Node000028_Node000024"><a xlink:title=" ">
<path fill="none" stroke="#63b8ff" d="M562.32,-327.1C603.3,-324.14 659.12,-314.03 697,-283 731.62,-254.64 747.8,-202.69 754.62,-172.17"/>
<polygon fill="#63b8ff" stroke="#63b8ff" points="758.06,-172.84 756.66,-162.34 751.2,-171.42 758.06,-172.84"/>
</a>
</g>
</g>
<!-- Node29 -->
<g id="Node000029" class="node">
<title>Node29</title>
<g id="a_Node000029"><a xlink:href="dimensionality_8h.html" target="_top" xlink:title=" ">
<polygon fill="white" stroke="#666666" points="318.5,-217 197.5,-217 197.5,-198 318.5,-198 318.5,-217"/>
<text text-anchor="middle" x="258" y="-205" font-family="Helvetica,sans-Serif" font-size="10.00">core/dimensionality.h</text>
</a>
</g>
</g>
<!-- Node28&#45;&gt;Node29 -->
<g id="edge34_Node000028_Node000029" class="edge">
<title>Node28&#45;&gt;Node29</title>
<g id="a_edge34_Node000028_Node000029"><a xlink:title=" ">
<path fill="none" stroke="#63b8ff" d="M455.82,-321.57C419.39,-315.76 370.99,-304.49 333,-283 307.02,-268.3 283.78,-242.21 270.28,-225.13"/>
<polygon fill="#63b8ff" stroke="#63b8ff" points="273.01,-222.94 264.15,-217.13 267.46,-227.2 273.01,-222.94"/>
</a>
</g>
</g>
<!-- Node30 -->
<g id="Node000030" class="node">
<title>Node30</title>
<g id="a_Node000030"><a xlink:href="ib__particle_8h.html" target="_top" xlink:title=" ">
<polygon fill="white" stroke="#666666" points="1933.5,-277.5 1832.5,-277.5 1832.5,-258.5 1933.5,-258.5 1933.5,-277.5"/>
<text text-anchor="middle" x="1883" y="-265.5" font-family="Helvetica,sans-Serif" font-size="10.00">core/ib_particle.h</text>
</a>
</g>
</g>
<!-- Node28&#45;&gt;Node30 -->
<g id="edge36_Node000028_Node000030" class="edge">
<title>Node28&#45;&gt;Node30</title>
<g id="a_edge36_Node000028_Node000030"><a xlink:title=" ">
<path fill="none" stroke="#63b8ff" d="M562.02,-325.24C778.16,-316.04 1592.17,-281.38 1822.15,-271.59"/>
<polygon fill="#63b8ff" stroke="#63b8ff" points="1822.49,-275.08 1832.33,-271.16 1822.19,-268.09 1822.49,-275.08"/>
</a>
</g>
</g>
<!-- Node43 -->
<g id="Node000043" class="node">
<title>Node43</title>
<g id="a_Node000043"><a xlink:href="multiphysics_8h.html" target="_top" xlink:title="Identifiers for multiphysics modules and their solution fields.">
<polygon fill="white" stroke="#666666" points="487,-277.5 375,-277.5 375,-258.5 487,-258.5 487,-277.5"/>
<text text-anchor="middle" x="431" y="-265.5" font-family="Helvetica,sans-Serif" font-size="10.00">core/multiphysics.h</text>
</a>
</g>
</g>
<!-- Node28&#45;&gt;Node43 -->
<g id="edge59_Node000028_Node000043" class="edge">
<title>Node28&#45;&gt;Node43</title>
<g id="a_edge59_Node000028_Node000043"><a xlink:title=" ">
<path fill="none" stroke="#63b8ff" d="M497.49,-318.87C485.16,-309.62 465.38,-294.78 450.59,-283.69"/>
<polygon fill="#63b8ff" stroke="#63b8ff" points="452.66,-280.87 442.56,-277.67 448.46,-286.47 452.66,-280.87"/>
</a>
</g>
</g>
<!-- Node44 -->
<g id="Node000044" class="node">
<title>Node44</title>
<g id="a_Node000044"><a xlink:title=" ">
<polygon fill="#e0e0e0" stroke="#999999" points="668.5,-283 505.5,-283 505.5,-253 668.5,-253 668.5,-283"/>
<text text-anchor="start" x="513.5" y="-271" font-family="Helvetica,sans-Serif" font-size="10.00">deal.II/multigrid/mg</text>
<text text-anchor="middle" x="587" y="-260" font-family="Helvetica,sans-Serif" font-size="10.00">_transfer_global_coarsening.h</text>
</a>
</g>
</g>
<!-- Node28&#45;&gt;Node44 -->
<g id="edge63_Node000028_Node000044" class="edge">
<title>Node28&#45;&gt;Node44</title>
<g id="a_edge63_Node000028_Node000044"><a xlink:title=" ">
<path fill="none" stroke="#63b8ff" d="M520.51,-318.87C530.9,-311.08 546.58,-299.32 560.1,-289.17"/>
<polygon fill="#63b8ff" stroke="#63b8ff" points="562.28,-291.91 568.18,-283.11 558.08,-286.31 562.28,-291.91"/>
</a>
</g>
</g>
<!-- Node29&#45;&gt;Node8 -->
<g id="edge35_Node000029_Node000008" class="edge">
<title>Node29&#45;&gt;Node8</title>
<g id="a_edge35_Node000029_Node000008"><a xlink:title=" ">
<path fill="none" stroke="#63b8ff" d="M255.53,-197.94C250.12,-179.24 237.07,-134.13 228.94,-106.01"/>
<polygon fill="#63b8ff" stroke="#63b8ff" points="232.23,-104.79 226.09,-96.16 225.51,-106.74 232.23,-104.79"/>
</a>
</g>
</g>
<!-- Node30&#45;&gt;Node9 -->
<g id="edge57_Node000030_Node000009" class="edge">
<title>Node30&#45;&gt;Node9</title>
<g id="a_edge57_Node000030_Node000009"><a xlink:title=" ">
<path fill="none" stroke="#63b8ff" d="M1933.55,-263.76C2045.98,-255.4 2311.14,-228.86 2365,-162 2386.29,-135.57 2343.35,-109.49 2311.1,-94.6"/>
<polygon fill="#63b8ff" stroke="#63b8ff" points="2312.5,-91.39 2301.94,-90.53 2309.66,-97.79 2312.5,-91.39"/>
</a>
</g>
</g>
<!-- Node30&#45;&gt;Node22 -->
<g id="edge58_Node000030_Node000022" class="edge">
<title>Node30&#45;&gt;Node22</title>
<g id="a_edge58_Node000030_Node000022"><a xlink:title=" ">
<path fill="none" stroke="#63b8ff" d="M1933.76,-267.92C2031.02,-268.46 2249.62,-263.77 2426,-217 2483.1,-201.86 2515.02,-211.67 2547,-162 2554.22,-150.79 2553.18,-143.81 2547,-132 2538.36,-115.47 2521.48,-103.31 2506.25,-95.12"/>
<polygon fill="#63b8ff" stroke="#63b8ff" points="2507.57,-91.87 2497.06,-90.53 2504.44,-98.13 2507.57,-91.87"/>
</a>
</g>
</g>
<!-- Node30&#45;&gt;Node24 -->
<g id="edge56_Node000030_Node000024" class="edge">
<title>Node30&#45;&gt;Node24</title>
<g id="a_edge56_Node000030_Node000024"><a xlink:title=" ">
<path fill="none" stroke="#63b8ff" d="M1832.25,-264.08C1680.45,-254.9 1216.64,-223.6 823.87,-162.01"/>
<polygon fill="#63b8ff" stroke="#63b8ff" points="824.16,-158.51 813.73,-160.41 823.07,-165.43 824.16,-158.51"/>
</a>
</g>
</g>
<!-- Node31 -->
<g id="Node000031" class="node">
<title>Node31</title>
<g id="a_Node000031"><a xlink:href="dem__properties_8h.html" target="_top" xlink:title="DEM particle property definitions and output name management.">
<polygon fill="white" stroke="#666666" points="2538,-156.5 2412,-156.5 2412,-137.5 2538,-137.5 2538,-156.5"/>
<text text-anchor="middle" x="2475" y="-144.5" font-family="Helvetica,sans-Serif" font-size="10.00">core/dem_properties.h</text>
</a>
</g>
</g>
<!-- Node30&#45;&gt;Node31 -->
<g id="edge37_Node000030_Node000031" class="edge">
<title>Node30&#45;&gt;Node31</title>
<g id="a_edge37_Node000030_Node000031"><a xlink:title=" ">
<path fill="none" stroke="#63b8ff" d="M1933.92,-266.06C2047.01,-263.34 2315.65,-253.16 2398,-217 2424.35,-205.43 2447.89,-181.29 2461.81,-164.86"/>
<polygon fill="#63b8ff" stroke="#63b8ff" points="2464.9,-166.62 2468.51,-156.66 2459.48,-162.19 2464.9,-166.62"/>
</a>
</g>
</g>
<!-- Node32 -->
<g id="Node000032" class="node">
<title>Node32</title>
<g id="a_Node000032"><a xlink:href="shape_8h.html" target="_top" xlink:title=" ">
<polygon fill="white" stroke="#666666" points="1491.5,-217 1412.5,-217 1412.5,-198 1491.5,-198 1491.5,-217"/>
<text text-anchor="middle" x="1452" y="-205" font-family="Helvetica,sans-Serif" font-size="10.00">core/shape.h</text>
</a>
</g>
</g>
<!-- Node30&#45;&gt;Node32 -->
<g id="edge40_Node000030_Node000032" class="edge">
<title>Node30&#45;&gt;Node32</title>
<g id="a_edge40_Node000030_Node000032"><a xlink:title=" ">
<path fill="none" stroke="#63b8ff" d="M1832.29,-260.12C1749.07,-248.82 1584.51,-226.49 1501.85,-215.27"/>
<polygon fill="#63b8ff" stroke="#63b8ff" points="1502.08,-211.77 1491.7,-213.89 1501.14,-218.7 1502.08,-211.77"/>
</a>
</g>
</g>
<!-- Node31&#45;&gt;Node20 -->
<g id="edge38_Node000031_Node000020" class="edge">
<title>Node31&#45;&gt;Node20</title>
<g id="a_edge38_Node000031_Node000020"><a xlink:title=" ">
<path fill="none" stroke="#63b8ff" d="M2463.94,-137.37C2450.74,-127.06 2428.42,-109.65 2412.34,-97.09"/>
<polygon fill="#63b8ff" stroke="#63b8ff" points="2414.18,-94.09 2404.15,-90.7 2409.88,-99.61 2414.18,-94.09"/>
</a>
</g>
</g>
<!-- Node31&#45;&gt;Node22 -->
<g id="edge39_Node000031_Node000022" class="edge">
<title>Node31&#45;&gt;Node22</title>
<g id="a_edge39_Node000031_Node000022"><a xlink:title=" ">
<path fill="none" stroke="#63b8ff" d="M2475,-137.37C2475,-128.16 2475,-113.29 2475,-101.27"/>
<polygon fill="#63b8ff" stroke="#63b8ff" points="2478.5,-100.91 2475,-90.91 2471.5,-100.91 2478.5,-100.91"/>
</a>
</g>
</g>
<!-- Node32&#45;&gt;Node3 -->
<g id="edge44_Node000032_Node000003" class="edge">
<title>Node32&#45;&gt;Node3</title>
<g id="a_edge44_Node000032_Node000003"><a xlink:title=" ">
<path fill="none" stroke="#63b8ff" d="M1412.35,-206.94C1299.52,-207.59 967.34,-205.38 696,-162 691.15,-161.22 686.09,-160.19 681.12,-159.04"/>
<polygon fill="#63b8ff" stroke="#63b8ff" points="681.66,-155.56 671.11,-156.54 679.96,-162.36 681.66,-155.56"/>
</a>
</g>
</g>
<!-- Node32&#45;&gt;Node11 -->
<g id="edge51_Node000032_Node000011" class="edge">
<title>Node32&#45;&gt;Node11</title>
<g id="a_edge51_Node000032_Node000011"><a xlink:title=" ">
<path fill="none" stroke="#63b8ff" d="M1412.34,-206.95C1336.76,-206.86 1176.54,-201.85 1142,-162 1133.27,-151.92 1133.02,-141.86 1142,-132 1170.85,-100.32 1483.53,-101.74 1526,-96 1533.95,-94.92 1542.32,-93.63 1550.52,-92.26"/>
<polygon fill="#63b8ff" stroke="#63b8ff" points="1551.13,-95.7 1560.4,-90.56 1549.95,-88.8 1551.13,-95.7"/>
</a>
</g>
</g>
<!-- Node32&#45;&gt;Node23 -->
<g id="edge46_Node000032_Node000023" class="edge">
<title>Node32&#45;&gt;Node23</title>
<g id="a_edge46_Node000032_Node000023"><a xlink:title=" ">
<path fill="none" stroke="#63b8ff" d="M1412.47,-204.23C1329.46,-199.18 1131.03,-185.54 966,-162 958.89,-160.99 951.42,-159.74 944.1,-158.41"/>
<polygon fill="#63b8ff" stroke="#63b8ff" points="944.72,-154.97 934.24,-156.57 943.43,-161.85 944.72,-154.97"/>
</a>
</g>
</g>
<!-- Node33 -->
<g id="Node000033" class="node">
<title>Node33</title>
<g id="a_Node000033"><a xlink:href="tensors__and__points__dimension__manipulation_8h.html" target="_top" xlink:title=" ">
<polygon fill="white" stroke="#666666" points="2356,-162 2204,-162 2204,-132 2356,-132 2356,-162"/>
<text text-anchor="start" x="2212" y="-150" font-family="Helvetica,sans-Serif" font-size="10.00">core/tensors_and_points</text>
<text text-anchor="middle" x="2280" y="-139" font-family="Helvetica,sans-Serif" font-size="10.00">_dimension_manipulation.h</text>
</a>
</g>
</g>
<!-- Node32&#45;&gt;Node33 -->
<g id="edge41_Node000032_Node000033" class="edge">
<title>Node32&#45;&gt;Node33</title>
<g id="a_edge41_Node000032_Node000033"><a xlink:title=" ">
<path fill="none" stroke="#63b8ff" d="M1491.59,-205.57C1601.42,-202.68 1919.35,-192.25 2193.45,-162.09"/>
<polygon fill="#63b8ff" stroke="#63b8ff" points="2194.04,-165.55 2203.6,-160.97 2193.27,-158.59 2194.04,-165.55"/>
</a>
</g>
</g>
<!-- Node34 -->
<g id="Node000034" class="node">
<title>Node34</title>
<g id="a_Node000034"><a xlink:title=" ">
<polygon fill="#e0e0e0" stroke="#999999" points="1303,-162 1151,-162 1151,-132 1303,-132 1303,-162"/>
<text text-anchor="start" x="1159" y="-150" font-family="Helvetica,sans-Serif" font-size="10.00">deal.II/base/auto_derivative</text>
<text text-anchor="middle" x="1227" y="-139" font-family="Helvetica,sans-Serif" font-size="10.00">_function.h</text>
</a>
</g>
</g>
<!-- Node32&#45;&gt;Node34 -->
<g id="edge45_Node000032_Node000034" class="edge">
<title>Node32&#45;&gt;Node34</title>
<g id="a_edge45_Node000032_Node000034"><a xlink:title=" ">
<path fill="none" stroke="#63b8ff" d="M1419.28,-197.99C1385.77,-189.28 1332.8,-175.51 1290.93,-164.62"/>
<polygon fill="#63b8ff" stroke="#63b8ff" points="1291.65,-161.19 1281.09,-162.06 1289.89,-167.97 1291.65,-161.19"/>
</a>
</g>
</g>
<!-- Node35 -->
<g id="Node000035" class="node">
<title>Node35</title>
<g id="a_Node000035"><a xlink:title=" ">
<polygon fill="#e0e0e0" stroke="#999999" points="1445,-156.5 1321,-156.5 1321,-137.5 1445,-137.5 1445,-156.5"/>
<text text-anchor="middle" x="1383" y="-144.5" font-family="Helvetica,sans-Serif" font-size="10.00">deal.II/grid/manifold.h</text>
</a>
</g>
</g>
<!-- Node32&#45;&gt;Node35 -->
<g id="edge47_Node000032_Node000035" class="edge">
<title>Node32&#45;&gt;Node35</title>
<g id="a_edge47_Node000032_Node000035"><a xlink:title=" ">
<path fill="none" stroke="#63b8ff" d="M1441.82,-197.87C1431.12,-188.8 1414.06,-174.34 1401.07,-163.32"/>
<polygon fill="#63b8ff" stroke="#63b8ff" points="1403.11,-160.46 1393.22,-156.67 1398.59,-165.8 1403.11,-160.46"/>
</a>
</g>
</g>
<!-- Node36 -->
<g id="Node000036" class="node">
<title>Node36</title>
<g id="a_Node000036"><a xlink:title=" ">
<polygon fill="#e0e0e0" stroke="#999999" points="1578.5,-162 1463.5,-162 1463.5,-132 1578.5,-132 1578.5,-162"/>
<text text-anchor="start" x="1471.5" y="-150" font-family="Helvetica,sans-Serif" font-size="10.00">deal.II/grid/manifold</text>
<text text-anchor="middle" x="1521" y="-139" font-family="Helvetica,sans-Serif" font-size="10.00">_lib.h</text>
</a>
</g>
</g>
<!-- Node32&#45;&gt;Node36 -->
<g id="edge48_Node000032_Node000036" class="edge">
<title>Node32&#45;&gt;Node36</title>
<g id="a_edge48_Node000032_Node000036"><a xlink:title=" ">
<path fill="none" stroke="#63b8ff" d="M1462.18,-197.87C1471.2,-190.22 1484.72,-178.76 1496.53,-168.75"/>
<polygon fill="#63b8ff" stroke="#63b8ff" points="1498.99,-171.25 1504.35,-162.11 1494.46,-165.91 1498.99,-171.25"/>
</a>
</g>
</g>
<!-- Node37 -->
<g id="Node000037" class="node">
<title>Node37</title>
<g id="a_Node000037"><a xlink:title=" ">
<polygon fill="#e0e0e0" stroke="#999999" points="1711.5,-162 1596.5,-162 1596.5,-132 1711.5,-132 1711.5,-162"/>
<text text-anchor="start" x="1604.5" y="-150" font-family="Helvetica,sans-Serif" font-size="10.00">boost/range/adaptor</text>
<text text-anchor="middle" x="1654" y="-139" font-family="Helvetica,sans-Serif" font-size="10.00">/map.hpp</text>
</a>
</g>
</g>
<!-- Node32&#45;&gt;Node37 -->
<g id="edge49_Node000032_Node000037" class="edge">
<title>Node32&#45;&gt;Node37</title>
<g id="a_edge49_Node000032_Node000037"><a xlink:title=" ">
<path fill="none" stroke="#63b8ff" d="M1481.37,-197.99C1511.21,-189.35 1558.21,-175.74 1595.65,-164.9"/>
<polygon fill="#63b8ff" stroke="#63b8ff" points="1596.8,-168.21 1605.44,-162.06 1594.86,-161.48 1596.8,-168.21"/>
</a>
</g>
</g>
<!-- Node38 -->
<g id="Node000038" class="node">
<title>Node38</title>
<g id="a_Node000038"><a xlink:title=" ">
<polygon fill="#e0e0e0" stroke="#999999" points="1846,-162 1730,-162 1730,-132 1846,-132 1846,-162"/>
<text text-anchor="start" x="1738" y="-150" font-family="Helvetica,sans-Serif" font-size="10.00">deal.II/base/function</text>
<text text-anchor="middle" x="1788" y="-139" font-family="Helvetica,sans-Serif" font-size="10.00">_signed_distance.h</text>
</a>
</g>
</g>
<!-- Node32&#45;&gt;Node38 -->
<g id="edge50_Node000032_Node000038" class="edge">
<title>Node32&#45;&gt;Node38</title>
<g id="a_edge50_Node000032_Node000038"><a xlink:title=" ">
<path fill="none" stroke="#63b8ff" d="M1491.74,-200.46C1542.37,-192.65 1632.78,-178.31 1719.87,-162.16"/>
<polygon fill="#63b8ff" stroke="#63b8ff" points="1720.74,-165.56 1729.92,-160.29 1719.45,-158.68 1720.74,-165.56"/>
</a>
</g>
</g>
<!-- Node39 -->
<g id="Node000039" class="node">
<title>Node39</title>
<g id="a_Node000039"><a xlink:title=" ">
<polygon fill="#e0e0e0" stroke="#999999" points="1992,-156.5 1864,-156.5 1864,-137.5 1992,-137.5 1992,-156.5"/>
<text text-anchor="middle" x="1928" y="-144.5" font-family="Helvetica,sans-Serif" font-size="10.00">deal.II/dofs/dof_tools.h</text>
</a>
</g>
</g>
<!-- Node32&#45;&gt;Node39 -->
<g id="edge52_Node000032_Node000039" class="edge">
<title>Node32&#45;&gt;Node39</title>
<g id="a_edge52_Node000032_Node000039"><a xlink:title=" ">
<path fill="none" stroke="#63b8ff" d="M1491.61,-203.18C1563.99,-196.88 1722.41,-182 1855,-162 1861.86,-160.97 1869.06,-159.75 1876.15,-158.47"/>
<polygon fill="#63b8ff" stroke="#63b8ff" points="1877.21,-161.83 1886.41,-156.57 1875.94,-154.95 1877.21,-161.83"/>
</a>
</g>
</g>
<!-- Node40 -->
<g id="Node000040" class="node">
<title>Node40</title>
<g id="a_Node000040"><a xlink:title=" ">
<polygon fill="#e0e0e0" stroke="#999999" points="2186,-156.5 2010,-156.5 2010,-137.5 2186,-137.5 2186,-156.5"/>
<text text-anchor="middle" x="2098" y="-144.5" font-family="Helvetica,sans-Serif" font-size="10.00">deal.II/physics/transformations.h</text>
</a>
</g>
</g>
<!-- Node32&#45;&gt;Node40 -->
<g id="edge53_Node000032_Node000040" class="edge">
<title>Node32&#45;&gt;Node40</title>
<g id="a_edge53_Node000032_Node000040"><a xlink:title=" ">
<path fill="none" stroke="#63b8ff" d="M1491.7,-204.14C1582.2,-198.56 1810.71,-183.42 2001,-162 2011.38,-160.83 2022.36,-159.42 2033.05,-157.95"/>
<polygon fill="#63b8ff" stroke="#63b8ff" points="2033.77,-161.38 2043.19,-156.52 2032.8,-154.45 2033.77,-161.38"/>
</a>
</g>
</g>
<!-- Node41 -->
<g id="Node000041" class="node">
<title>Node41</title>
<g id="a_Node000041"><a xlink:title=" ">
<polygon fill="#e0e0e0" stroke="#999999" points="1019,-156.5 975,-156.5 975,-137.5 1019,-137.5 1019,-156.5"/>
<text text-anchor="middle" x="997" y="-144.5" font-family="Helvetica,sans-Serif" font-size="10.00">cfloat</text>
</a>
</g>
</g>
<!-- Node32&#45;&gt;Node41 -->
<g id="edge54_Node000032_Node000041" class="edge">
<title>Node32&#45;&gt;Node41</title>
<g id="a_edge54_Node000032_Node000041"><a xlink:title=" ">
<path fill="none" stroke="#63b8ff" d="M1412.36,-206.52C1336.41,-205.65 1165.71,-199.28 1028,-162 1026.31,-161.54 1024.61,-161.01 1022.9,-160.41"/>
<polygon fill="#63b8ff" stroke="#63b8ff" points="1023.95,-157.06 1013.37,-156.57 1021.33,-163.55 1023.95,-157.06"/>
</a>
</g>
</g>
<!-- Node42 -->
<g id="Node000042" class="node">
<title>Node42</title>
<g id="a_Node000042"><a xlink:title=" ">
<polygon fill="#e0e0e0" stroke="#999999" points="1095,-156.5 1037,-156.5 1037,-137.5 1095,-137.5 1095,-156.5"/>
<text text-anchor="middle" x="1066" y="-144.5" font-family="Helvetica,sans-Serif" font-size="10.00">memory</text>
</a>
</g>
</g>
<!-- Node32&#45;&gt;Node42 -->
<g id="edge55_Node000032_Node000042" class="edge">
<title>Node32&#45;&gt;Node42</title>
<g id="a_edge55_Node000032_Node000042"><a xlink:title=" ">
<path fill="none" stroke="#63b8ff" d="M1412.49,-203.77C1348.23,-198.8 1217.36,-186.45 1109,-162 1105.78,-161.27 1102.46,-160.41 1099.16,-159.47"/>
<polygon fill="#63b8ff" stroke="#63b8ff" points="1100.02,-156.07 1089.44,-156.5 1097.98,-162.77 1100.02,-156.07"/>
</a>
</g>
</g>
<!-- Node33&#45;&gt;Node9 -->
<g id="edge42_Node000033_Node000009" class="edge">
<title>Node33&#45;&gt;Node9</title>
<g id="a_edge42_Node000033_Node000009"><a xlink:title=" ">
<path fill="none" stroke="#63b8ff" d="M2280,-131.8C2280,-122.7 2280,-110.79 2280,-100.9"/>
<polygon fill="#63b8ff" stroke="#63b8ff" points="2283.5,-100.84 2280,-90.84 2276.5,-100.84 2283.5,-100.84"/>
</a>
</g>
</g>
<!-- Node33&#45;&gt;Node10 -->
<g id="edge43_Node000033_Node000010" class="edge">
<title>Node33&#45;&gt;Node10</title>
<g id="a_edge43_Node000033_Node000010"><a xlink:title=" ">
<path fill="none" stroke="#63b8ff" d="M2207.58,-131.95C2146.14,-120.04 2059.37,-103.21 2003.9,-92.45"/>
<polygon fill="#63b8ff" stroke="#63b8ff" points="2004.4,-88.99 1993.92,-90.52 2003.07,-95.86 2004.4,-88.99"/>
</a>
</g>
</g>
</g>
</svg>
