<?xml version="1.0" encoding="UTF-8" standalone="no"?>
<!DOCTYPE svg PUBLIC "-//W3C//DTD SVG 1.1//EN"
 "http://www.w3.org/Graphics/SVG/1.1/DTD/svg11.dtd">
<!-- Generated by graphviz version 2.43.0 (0)
 -->
<!-- Title: /home/runner/work/lethe/lethe/source/core/grid_uniform_channel_with_meshed_square_prism.cc Pages: 1 -->
<svg width="2644pt" height="258pt"
 viewBox="0.00 0.00 2643.50 258.00" xmlns="http://www.w3.org/2000/svg" xmlns:xlink="http://www.w3.org/1999/xlink">
<g id="graph0" class="graph" transform="scale(1 1) rotate(0) translate(4 254)">
<title>/home/runner/work/lethe/lethe/source/core/grid_uniform_channel_with_meshed_square_prism.cc</title>
<!-- Node1 -->
<g id="Node000001" class="node">
<title>Node1</title>
<g id="a_Node000001"><a xlink:title=" ">
<polygon fill="#999999" stroke="#666666" points="1925,-250 1751,-250 1751,-198 1925,-198 1925,-250"/>
<text text-anchor="start" x="1759" y="-238" font-family="Helvetica,sans-Serif" font-size="10.00">/home/runner/work/lethe</text>
<text text-anchor="start" x="1759" y="-227" font-family="Helvetica,sans-Serif" font-size="10.00">/lethe/source/core/grid</text>
<text text-anchor="start" x="1759" y="-216" font-family="Helvetica,sans-Serif" font-size="10.00">_uniform_channel_with_meshed</text>
<text text-anchor="middle" x="1838" y="-205" font-family="Helvetica,sans-Serif" font-size="10.00">_square_prism.cc</text>
</a>
</g>
</g>
<!-- Node2 -->
<g id="Node000002" class="node">
<title>Node2</title>
<g id="a_Node000002"><a xlink:href="grid__uniform__channel__with__meshed__square__prism_8h.html" target="_top" xlink:title=" ">
<polygon fill="white" stroke="#666666" points="597.5,-162 430.5,-162 430.5,-132 597.5,-132 597.5,-162"/>
<text text-anchor="start" x="438.5" y="-150" font-family="Helvetica,sans-Serif" font-size="10.00">core/grid_uniform_channel</text>
<text text-anchor="middle" x="514" y="-139" font-family="Helvetica,sans-Serif" font-size="10.00">_with_meshed_square_prism.h</text>
</a>
</g>
</g>
<!-- Node1&#45;&gt;Node2 -->
<g id="edge1_Node000001_Node000002" class="edge">
<title>Node1&#45;&gt;Node2</title>
<g id="a_edge1_Node000001_Node000002"><a xlink:title=" ">
<path fill="none" stroke="#63b8ff" d="M1750.87,-218.06C1513,-204.59 853.89,-167.25 608.05,-153.33"/>
<polygon fill="#63b8ff" stroke="#63b8ff" points="607.9,-149.81 597.72,-152.74 607.5,-156.8 607.9,-149.81"/>
</a>
</g>
</g>
<!-- Node7 -->
<g id="Node000007" class="node">
<title>Node7</title>
<g id="a_Node000007"><a xlink:title=" ">
<polygon fill="#e0e0e0" stroke="#999999" points="711.5,-90.5 664.5,-90.5 664.5,-71.5 711.5,-71.5 711.5,-90.5"/>
<text text-anchor="middle" x="688" y="-78.5" font-family="Helvetica,sans-Serif" font-size="10.00">cmath</text>
</a>
</g>
</g>
<!-- Node1&#45;&gt;Node7 -->
<g id="edge31_Node000001_Node000007" class="edge">
<title>Node1&#45;&gt;Node7</title>
<g id="a_edge31_Node000001_Node000007"><a xlink:title=" ">
<path fill="none" stroke="#63b8ff" d="M1750.65,-217.62C1563.55,-205.08 1110.79,-169.23 738,-96 732.58,-94.94 726.89,-93.58 721.38,-92.13"/>
<polygon fill="#63b8ff" stroke="#63b8ff" points="722.29,-88.75 711.72,-89.47 720.43,-95.5 722.29,-88.75"/>
</a>
</g>
</g>
<!-- Node9 -->
<g id="Node000009" class="node">
<title>Node9</title>
<g id="a_Node000009"><a xlink:href="core_2utilities_8h.html" target="_top" xlink:title=" ">
<polygon fill="white" stroke="#666666" points="1788,-156.5 1702,-156.5 1702,-137.5 1788,-137.5 1788,-156.5"/>
<text text-anchor="middle" x="1745" y="-144.5" font-family="Helvetica,sans-Serif" font-size="10.00">core/utilities.h</text>
</a>
</g>
</g>
<!-- Node1&#45;&gt;Node9 -->
<g id="edge8_Node000001_Node000009" class="edge">
<title>Node1&#45;&gt;Node9</title>
<g id="a_edge8_Node000001_Node000009"><a xlink:title=" ">
<path fill="none" stroke="#63b8ff" d="M1806.77,-197.82C1792.37,-186.2 1775.76,-172.81 1763.4,-162.84"/>
<polygon fill="#63b8ff" stroke="#63b8ff" points="1765.58,-160.1 1755.59,-156.54 1761.18,-165.55 1765.58,-160.1"/>
</a>
</g>
</g>
<!-- Node29 -->
<g id="Node000029" class="node">
<title>Node29</title>
<g id="a_Node000029"><a xlink:title=" ">
<polygon fill="#e0e0e0" stroke="#999999" points="1870,-156.5 1806,-156.5 1806,-137.5 1870,-137.5 1870,-156.5"/>
<text text-anchor="middle" x="1838" y="-144.5" font-family="Helvetica,sans-Serif" font-size="10.00">algorithm</text>
</a>
</g>
</g>
<!-- Node1&#45;&gt;Node29 -->
<g id="edge29_Node000001_Node000029" class="edge">
<title>Node1&#45;&gt;Node29</title>
<g id="a_edge29_Node000001_Node000029"><a xlink:title=" ">
<path fill="none" stroke="#63b8ff" d="M1838,-197.61C1838,-187.58 1838,-176.25 1838,-166.96"/>
<polygon fill="#63b8ff" stroke="#63b8ff" points="1841.5,-166.85 1838,-156.85 1834.5,-166.85 1841.5,-166.85"/>
</a>
</g>
</g>
<!-- Node30 -->
<g id="Node000030" class="node">
<title>Node30</title>
<g id="a_Node000030"><a xlink:title=" ">
<polygon fill="#e0e0e0" stroke="#999999" points="1930,-156.5 1888,-156.5 1888,-137.5 1930,-137.5 1930,-156.5"/>
<text text-anchor="middle" x="1909" y="-144.5" font-family="Helvetica,sans-Serif" font-size="10.00">array</text>
</a>
</g>
</g>
<!-- Node1&#45;&gt;Node30 -->
<g id="edge30_Node000001_Node000030" class="edge">
<title>Node1&#45;&gt;Node30</title>
<g id="a_edge30_Node000001_Node000030"><a xlink:title=" ">
<path fill="none" stroke="#63b8ff" d="M1862.04,-197.61C1872.47,-186.59 1884.39,-174 1893.6,-164.26"/>
<polygon fill="#63b8ff" stroke="#63b8ff" points="1896.29,-166.52 1900.62,-156.85 1891.2,-161.71 1896.29,-166.52"/>
</a>
</g>
</g>
<!-- Node31 -->
<g id="Node000031" class="node">
<title>Node31</title>
<g id="a_Node000031"><a xlink:title=" ">
<polygon fill="#e0e0e0" stroke="#999999" points="1992,-156.5 1948,-156.5 1948,-137.5 1992,-137.5 1992,-156.5"/>
<text text-anchor="middle" x="1970" y="-144.5" font-family="Helvetica,sans-Serif" font-size="10.00">limits</text>
</a>
</g>
</g>
<!-- Node1&#45;&gt;Node31 -->
<g id="edge32_Node000001_Node000031" class="edge">
<title>Node1&#45;&gt;Node31</title>
<g id="a_edge32_Node000001_Node000031"><a xlink:title=" ">
<path fill="none" stroke="#63b8ff" d="M1882.32,-197.82C1903.55,-185.75 1928.16,-171.78 1945.88,-161.7"/>
<polygon fill="#63b8ff" stroke="#63b8ff" points="1948,-164.53 1954.96,-156.54 1944.54,-158.44 1948,-164.53"/>
</a>
</g>
</g>
<!-- Node32 -->
<g id="Node000032" class="node">
<title>Node32</title>
<g id="a_Node000032"><a xlink:title=" ">
<polygon fill="#e0e0e0" stroke="#999999" points="2069.5,-156.5 2010.5,-156.5 2010.5,-137.5 2069.5,-137.5 2069.5,-156.5"/>
<text text-anchor="middle" x="2040" y="-144.5" font-family="Helvetica,sans-Serif" font-size="10.00">numbers</text>
</a>
</g>
</g>
<!-- Node1&#45;&gt;Node32 -->
<g id="edge33_Node000001_Node000032" class="edge">
<title>Node1&#45;&gt;Node32</title>
<g id="a_edge33_Node000001_Node000032"><a xlink:title=" ">
<path fill="none" stroke="#63b8ff" d="M1905.54,-197.92C1939.87,-185.18 1980,-170.28 2007.43,-160.09"/>
<polygon fill="#63b8ff" stroke="#63b8ff" points="2008.76,-163.33 2016.92,-156.57 2006.33,-156.77 2008.76,-163.33"/>
</a>
</g>
</g>
<!-- Node3 -->
<g id="Node000003" class="node">
<title>Node3</title>
<g id="a_Node000003"><a xlink:title=" ">
<polygon fill="#e0e0e0" stroke="#999999" points="122,-90.5 0,-90.5 0,-71.5 122,-71.5 122,-90.5"/>
<text text-anchor="middle" x="61" y="-78.5" font-family="Helvetica,sans-Serif" font-size="10.00">deal.II/base/utilities.h</text>
</a>
</g>
</g>
<!-- Node2&#45;&gt;Node3 -->
<g id="edge2_Node000002_Node000003" class="edge">
<title>Node2&#45;&gt;Node3</title>
<g id="a_edge2_Node000002_Node000003"><a xlink:title=" ">
<path fill="none" stroke="#63b8ff" d="M430.46,-136.74C352.71,-127.74 233.72,-112.96 131,-96 124.66,-94.95 118.02,-93.76 111.45,-92.51"/>
<polygon fill="#63b8ff" stroke="#63b8ff" points="111.75,-89 101.26,-90.54 110.41,-95.88 111.75,-89"/>
</a>
</g>
</g>
<!-- Node4 -->
<g id="Node000004" class="node">
<title>Node4</title>
<g id="a_Node000004"><a xlink:title=" ">
<polygon fill="#e0e0e0" stroke="#999999" points="291.5,-90.5 140.5,-90.5 140.5,-71.5 291.5,-71.5 291.5,-90.5"/>
<text text-anchor="middle" x="216" y="-78.5" font-family="Helvetica,sans-Serif" font-size="10.00">deal.II/grid/grid_generator.h</text>
</a>
</g>
</g>
<!-- Node2&#45;&gt;Node4 -->
<g id="edge3_Node000002_Node000004" class="edge">
<title>Node2&#45;&gt;Node4</title>
<g id="a_edge3_Node000002_Node000004"><a xlink:title=" ">
<path fill="none" stroke="#63b8ff" d="M448.6,-131.95C393.46,-120.11 315.74,-103.42 265.61,-92.65"/>
<polygon fill="#63b8ff" stroke="#63b8ff" points="266.17,-89.2 255.66,-90.52 264.7,-96.04 266.17,-89.2"/>
</a>
</g>
</g>
<!-- Node5 -->
<g id="Node000005" class="node">
<title>Node5</title>
<g id="a_Node000005"><a xlink:title=" ">
<polygon fill="#e0e0e0" stroke="#999999" points="438,-90.5 310,-90.5 310,-71.5 438,-71.5 438,-90.5"/>
<text text-anchor="middle" x="374" y="-78.5" font-family="Helvetica,sans-Serif" font-size="10.00">deal.II/grid/grid_tools.h</text>
</a>
</g>
</g>
<!-- Node2&#45;&gt;Node5 -->
<g id="edge4_Node000002_Node000005" class="edge">
<title>Node2&#45;&gt;Node5</title>
<g id="a_edge4_Node000002_Node000005"><a xlink:title=" ">
<path fill="none" stroke="#63b8ff" d="M483.28,-131.95C459.05,-120.88 425.54,-105.56 402.04,-94.82"/>
<polygon fill="#63b8ff" stroke="#63b8ff" points="403.18,-91.49 392.63,-90.52 400.27,-97.86 403.18,-91.49"/>
</a>
</g>
</g>
<!-- Node6 -->
<g id="Node000006" class="node">
<title>Node6</title>
<g id="a_Node000006"><a xlink:title=" ">
<polygon fill="#e0e0e0" stroke="#999999" points="571.5,-96 456.5,-96 456.5,-66 571.5,-66 571.5,-96"/>
<text text-anchor="start" x="464.5" y="-84" font-family="Helvetica,sans-Serif" font-size="10.00">deal.II/grid/manifold</text>
<text text-anchor="middle" x="514" y="-73" font-family="Helvetica,sans-Serif" font-size="10.00">_lib.h</text>
</a>
</g>
</g>
<!-- Node2&#45;&gt;Node6 -->
<g id="edge5_Node000002_Node000006" class="edge">
<title>Node2&#45;&gt;Node6</title>
<g id="a_edge5_Node000002_Node000006"><a xlink:title=" ">
<path fill="none" stroke="#63b8ff" d="M514,-131.8C514,-124.34 514,-114.99 514,-106.41"/>
<polygon fill="#63b8ff" stroke="#63b8ff" points="517.5,-106.16 514,-96.16 510.5,-106.16 517.5,-106.16"/>
</a>
</g>
</g>
<!-- Node2&#45;&gt;Node7 -->
<g id="edge6_Node000002_Node000007" class="edge">
<title>Node2&#45;&gt;Node7</title>
<g id="a_edge6_Node000002_Node000007"><a xlink:title=" ">
<path fill="none" stroke="#63b8ff" d="M555.58,-131.99C583.79,-122.31 621.84,-108.9 655,-96 656.21,-95.53 657.44,-95.04 658.68,-94.55"/>
<polygon fill="#63b8ff" stroke="#63b8ff" points="660.27,-97.68 668.19,-90.64 657.61,-91.2 660.27,-97.68"/>
</a>
</g>
</g>
<!-- Node8 -->
<g id="Node000008" class="node">
<title>Node8</title>
<g id="a_Node000008"><a xlink:title=" ">
<polygon fill="#e0e0e0" stroke="#999999" points="646,-90.5 590,-90.5 590,-71.5 646,-71.5 646,-90.5"/>
<text text-anchor="middle" x="618" y="-78.5" font-family="Helvetica,sans-Serif" font-size="10.00">sstream</text>
</a>
</g>
</g>
<!-- Node2&#45;&gt;Node8 -->
<g id="edge7_Node000002_Node000008" class="edge">
<title>Node2&#45;&gt;Node8</title>
<g id="a_edge7_Node000002_Node000008"><a xlink:title=" ">
<path fill="none" stroke="#63b8ff" d="M536.82,-131.95C554.18,-121.27 577.94,-106.65 595.27,-95.98"/>
<polygon fill="#63b8ff" stroke="#63b8ff" points="597.48,-98.74 604.16,-90.52 593.81,-92.78 597.48,-98.74"/>
</a>
</g>
</g>
<!-- Node10 -->
<g id="Node000010" class="node">
<title>Node10</title>
<g id="a_Node000010"><a xlink:href="output__struct_8h.html" target="_top" xlink:title=" ">
<polygon fill="white" stroke="#666666" points="882,-90.5 768,-90.5 768,-71.5 882,-71.5 882,-90.5"/>
<text text-anchor="middle" x="825" y="-78.5" font-family="Helvetica,sans-Serif" font-size="10.00">core/output_struct.h</text>
</a>
</g>
</g>
<!-- Node9&#45;&gt;Node10 -->
<g id="edge9_Node000009_Node000010" class="edge">
<title>Node9&#45;&gt;Node10</title>
<g id="a_edge9_Node000009_Node000010"><a xlink:title=" ">
<path fill="none" stroke="#63b8ff" d="M1701.68,-145.76C1575.85,-144.58 1199.73,-137.54 891,-96 884.29,-95.1 877.25,-93.89 870.37,-92.56"/>
<polygon fill="#63b8ff" stroke="#63b8ff" points="870.95,-89.11 860.45,-90.54 869.55,-95.97 870.95,-89.11"/>
</a>
</g>
</g>
<!-- Node11 -->
<g id="Node000011" class="node">
<title>Node11</title>
<g id="a_Node000011"><a xlink:title=" ">
<polygon fill="#e0e0e0" stroke="#999999" points="790.5,-30 689.5,-30 689.5,0 790.5,0 790.5,-30"/>
<text text-anchor="start" x="697.5" y="-18" font-family="Helvetica,sans-Serif" font-size="10.00">deal.II/base/table</text>
<text text-anchor="middle" x="740" y="-7" font-family="Helvetica,sans-Serif" font-size="10.00">_handler.h</text>
</a>
</g>
</g>
<!-- Node9&#45;&gt;Node11 -->
<g id="edge15_Node000009_Node000011" class="edge">
<title>Node9&#45;&gt;Node11</title>
<g id="a_edge15_Node000009_Node000011"><a xlink:title=" ">
<path fill="none" stroke="#63b8ff" d="M1701.9,-145.25C1516.65,-141.82 795.72,-126.56 759,-96 743.02,-82.7 739.08,-58.65 738.64,-40.38"/>
<polygon fill="#63b8ff" stroke="#63b8ff" points="742.14,-40.19 738.74,-30.16 735.14,-40.13 742.14,-40.19"/>
</a>
</g>
</g>
<!-- Node13 -->
<g id="Node000013" class="node">
<title>Node13</title>
<g id="a_Node000013"><a xlink:title=" ">
<polygon fill="#e0e0e0" stroke="#999999" points="1030,-96 900,-96 900,-66 1030,-66 1030,-96"/>
<text text-anchor="start" x="908" y="-84" font-family="Helvetica,sans-Serif" font-size="10.00">deal.II/base/conditional</text>
<text text-anchor="middle" x="965" y="-73" font-family="Helvetica,sans-Serif" font-size="10.00">_ostream.h</text>
</a>
</g>
</g>
<!-- Node9&#45;&gt;Node13 -->
<g id="edge12_Node000009_Node000013" class="edge">
<title>Node9&#45;&gt;Node13</title>
<g id="a_edge12_Node000009_Node000013"><a xlink:title=" ">
<path fill="none" stroke="#63b8ff" d="M1701.91,-144.65C1592.95,-140.87 1297.42,-128.36 1040.65,-95.97"/>
<polygon fill="#63b8ff" stroke="#63b8ff" points="1040.74,-92.45 1030.38,-94.66 1039.85,-99.39 1040.74,-92.45"/>
</a>
</g>
</g>
<!-- Node14 -->
<g id="Node000014" class="node">
<title>Node14</title>
<g id="a_Node000014"><a xlink:title=" ">
<polygon fill="#e0e0e0" stroke="#999999" points="1175.5,-96 1048.5,-96 1048.5,-66 1175.5,-66 1175.5,-96"/>
<text text-anchor="start" x="1056.5" y="-84" font-family="Helvetica,sans-Serif" font-size="10.00">deal.II/base/parameter</text>
<text text-anchor="middle" x="1112" y="-73" font-family="Helvetica,sans-Serif" font-size="10.00">_handler.h</text>
</a>
</g>
</g>
<!-- Node9&#45;&gt;Node14 -->
<g id="edge13_Node000009_Node000014" class="edge">
<title>Node9&#45;&gt;Node14</title>
<g id="a_edge13_Node000009_Node000014"><a xlink:title=" ">
<path fill="none" stroke="#63b8ff" d="M1701.98,-143.64C1609.45,-138.23 1384.51,-123.4 1185.69,-95.99"/>
<polygon fill="#63b8ff" stroke="#63b8ff" points="1186.03,-92.51 1175.64,-94.59 1185.06,-99.44 1186.03,-92.51"/>
</a>
</g>
</g>
<!-- Node15 -->
<g id="Node000015" class="node">
<title>Node15</title>
<g id="a_Node000015"><a xlink:title=" ">
<polygon fill="#e0e0e0" stroke="#999999" points="1304,-90.5 1194,-90.5 1194,-71.5 1304,-71.5 1304,-90.5"/>
<text text-anchor="middle" x="1249" y="-78.5" font-family="Helvetica,sans-Serif" font-size="10.00">deal.II/base/point.h</text>
</a>
</g>
</g>
<!-- Node9&#45;&gt;Node15 -->
<g id="edge14_Node000009_Node000015" class="edge">
<title>Node9&#45;&gt;Node15</title>
<g id="a_edge14_Node000009_Node000015"><a xlink:title=" ">
<path fill="none" stroke="#63b8ff" d="M1701.99,-142.4C1624.22,-135.58 1455.21,-119.34 1314,-96 1308.09,-95.02 1301.91,-93.87 1295.8,-92.64"/>
<polygon fill="#63b8ff" stroke="#63b8ff" points="1296.17,-89.15 1285.66,-90.54 1294.75,-96 1296.17,-89.15"/>
</a>
</g>
</g>
<!-- Node16 -->
<g id="Node000016" class="node">
<title>Node16</title>
<g id="a_Node000016"><a xlink:title=" ">
<polygon fill="#e0e0e0" stroke="#999999" points="1437.5,-90.5 1322.5,-90.5 1322.5,-71.5 1437.5,-71.5 1437.5,-90.5"/>
<text text-anchor="middle" x="1380" y="-78.5" font-family="Helvetica,sans-Serif" font-size="10.00">deal.II/base/tensor.h</text>
</a>
</g>
</g>
<!-- Node9&#45;&gt;Node16 -->
<g id="edge16_Node000009_Node000016" class="edge">
<title>Node9&#45;&gt;Node16</title>
<g id="a_edge16_Node000009_Node000016"><a xlink:title=" ">
<path fill="none" stroke="#63b8ff" d="M1701.97,-139.33C1643.95,-130.21 1537.48,-113.04 1447,-96 1441.31,-94.93 1435.37,-93.76 1429.47,-92.57"/>
<polygon fill="#63b8ff" stroke="#63b8ff" points="1430.13,-89.13 1419.63,-90.55 1428.72,-95.99 1430.13,-89.13"/>
</a>
</g>
</g>
<!-- Node17 -->
<g id="Node000017" class="node">
<title>Node17</title>
<g id="a_Node000017"><a xlink:title=" ">
<polygon fill="#e0e0e0" stroke="#999999" points="1596,-90.5 1456,-90.5 1456,-71.5 1596,-71.5 1596,-90.5"/>
<text text-anchor="middle" x="1526" y="-78.5" font-family="Helvetica,sans-Serif" font-size="10.00">deal.II/dofs/dof_handler.h</text>
</a>
</g>
</g>
<!-- Node9&#45;&gt;Node17 -->
<g id="edge17_Node000009_Node000017" class="edge">
<title>Node9&#45;&gt;Node17</title>
<g id="a_edge17_Node000009_Node000017"><a xlink:title=" ">
<path fill="none" stroke="#63b8ff" d="M1715.46,-137.37C1676.66,-126.03 1608.4,-106.08 1565.28,-93.48"/>
<polygon fill="#63b8ff" stroke="#63b8ff" points="1566,-90.04 1555.42,-90.6 1564.03,-96.76 1566,-90.04"/>
</a>
</g>
</g>
<!-- Node18 -->
<g id="Node000018" class="node">
<title>Node18</title>
<g id="a_Node000018"><a xlink:title=" ">
<polygon fill="#e0e0e0" stroke="#999999" points="1733.5,-90.5 1614.5,-90.5 1614.5,-71.5 1733.5,-71.5 1733.5,-90.5"/>
<text text-anchor="middle" x="1674" y="-78.5" font-family="Helvetica,sans-Serif" font-size="10.00">deal.II/fe/fe_values.h</text>
</a>
</g>
</g>
<!-- Node9&#45;&gt;Node18 -->
<g id="edge18_Node000009_Node000018" class="edge">
<title>Node9&#45;&gt;Node18</title>
<g id="a_edge18_Node000009_Node000018"><a xlink:title=" ">
<path fill="none" stroke="#63b8ff" d="M1735.42,-137.37C1724.16,-127.21 1705.24,-110.16 1691.37,-97.65"/>
<polygon fill="#63b8ff" stroke="#63b8ff" points="1693.65,-95 1683.88,-90.91 1688.96,-100.2 1693.65,-95"/>
</a>
</g>
</g>
<!-- Node19 -->
<g id="Node000019" class="node">
<title>Node19</title>
<g id="a_Node000019"><a xlink:title=" ">
<polygon fill="#e0e0e0" stroke="#999999" points="1882.5,-96 1751.5,-96 1751.5,-66 1882.5,-66 1882.5,-96"/>
<text text-anchor="start" x="1759.5" y="-84" font-family="Helvetica,sans-Serif" font-size="10.00">deal.II/particles/particle</text>
<text text-anchor="middle" x="1817" y="-73" font-family="Helvetica,sans-Serif" font-size="10.00">_iterator.h</text>
</a>
</g>
</g>
<!-- Node9&#45;&gt;Node19 -->
<g id="edge19_Node000009_Node000019" class="edge">
<title>Node9&#45;&gt;Node19</title>
<g id="a_edge19_Node000009_Node000019"><a xlink:title=" ">
<path fill="none" stroke="#63b8ff" d="M1754.71,-137.37C1764.56,-128.61 1780.2,-114.71 1793.34,-103.04"/>
<polygon fill="#63b8ff" stroke="#63b8ff" points="1795.97,-105.38 1801.12,-96.12 1791.32,-100.14 1795.97,-105.38"/>
</a>
</g>
</g>
<!-- Node20 -->
<g id="Node000020" class="node">
<title>Node20</title>
<g id="a_Node000020"><a xlink:title=" ">
<polygon fill="#e0e0e0" stroke="#999999" points="2005.5,-96 1900.5,-96 1900.5,-66 2005.5,-66 2005.5,-96"/>
<text text-anchor="start" x="1908.5" y="-84" font-family="Helvetica,sans-Serif" font-size="10.00">boost/archive/text</text>
<text text-anchor="middle" x="1953" y="-73" font-family="Helvetica,sans-Serif" font-size="10.00">_iarchive.hpp</text>
</a>
</g>
</g>
<!-- Node9&#45;&gt;Node20 -->
<g id="edge20_Node000009_Node000020" class="edge">
<title>Node9&#45;&gt;Node20</title>
<g id="a_edge20_Node000009_Node000020"><a xlink:title=" ">
<path fill="none" stroke="#63b8ff" d="M1773.05,-137.37C1804.81,-127.6 1857.34,-111.43 1897.47,-99.09"/>
<polygon fill="#63b8ff" stroke="#63b8ff" points="1898.6,-102.4 1907.12,-96.12 1896.54,-95.71 1898.6,-102.4"/>
</a>
</g>
</g>
<!-- Node21 -->
<g id="Node000021" class="node">
<title>Node21</title>
<g id="a_Node000021"><a xlink:title=" ">
<polygon fill="#e0e0e0" stroke="#999999" points="2128.5,-96 2023.5,-96 2023.5,-66 2128.5,-66 2128.5,-96"/>
<text text-anchor="start" x="2031.5" y="-84" font-family="Helvetica,sans-Serif" font-size="10.00">boost/archive/text</text>
<text text-anchor="middle" x="2076" y="-73" font-family="Helvetica,sans-Serif" font-size="10.00">_oarchive.hpp</text>
</a>
</g>
</g>
<!-- Node9&#45;&gt;Node21 -->
<g id="edge21_Node000009_Node000021" class="edge">
<title>Node9&#45;&gt;Node21</title>
<g id="a_edge21_Node000009_Node000021"><a xlink:title=" ">
<path fill="none" stroke="#63b8ff" d="M1774.57,-137.49C1781.87,-135.54 1789.69,-133.58 1797,-132 1889.88,-111.88 1916.92,-114.77 2013.58,-96.2"/>
<polygon fill="#63b8ff" stroke="#63b8ff" points="2014.33,-99.62 2023.47,-94.27 2012.99,-92.75 2014.33,-99.62"/>
</a>
</g>
</g>
<!-- Node22 -->
<g id="Node000022" class="node">
<title>Node22</title>
<g id="a_Node000022"><a xlink:title=" ">
<polygon fill="#e0e0e0" stroke="#999999" points="2257,-96 2147,-96 2147,-66 2257,-66 2257,-96"/>
<text text-anchor="start" x="2155" y="-84" font-family="Helvetica,sans-Serif" font-size="10.00">boost/math/special</text>
<text text-anchor="middle" x="2202" y="-73" font-family="Helvetica,sans-Serif" font-size="10.00">_functions/erf.hpp</text>
</a>
</g>
</g>
<!-- Node9&#45;&gt;Node22 -->
<g id="edge22_Node000009_Node000022" class="edge">
<title>Node9&#45;&gt;Node22</title>
<g id="a_edge22_Node000009_Node000022"><a xlink:title=" ">
<path fill="none" stroke="#63b8ff" d="M1773.42,-137.48C1781.03,-135.44 1789.28,-133.44 1797,-132 1943.6,-104.7 1985.75,-119.64 2136.81,-96.06"/>
<polygon fill="#63b8ff" stroke="#63b8ff" points="2137.59,-99.48 2146.92,-94.45 2136.49,-92.57 2137.59,-99.48"/>
</a>
</g>
</g>
<!-- Node23 -->
<g id="Node000023" class="node">
<title>Node23</title>
<g id="a_Node000023"><a xlink:title=" ">
<polygon fill="#e0e0e0" stroke="#999999" points="2330.5,-90.5 2275.5,-90.5 2275.5,-71.5 2330.5,-71.5 2330.5,-90.5"/>
<text text-anchor="middle" x="2303" y="-78.5" font-family="Helvetica,sans-Serif" font-size="10.00">fstream</text>
</a>
</g>
</g>
<!-- Node9&#45;&gt;Node23 -->
<g id="edge23_Node000009_Node000023" class="edge">
<title>Node9&#45;&gt;Node23</title>
<g id="a_edge23_Node000009_Node000023"><a xlink:title=" ">
<path fill="none" stroke="#63b8ff" d="M1772.85,-137.48C1780.61,-135.38 1789.08,-133.36 1797,-132 2003.05,-96.67 2061.94,-141.45 2266,-96 2268.52,-95.44 2271.1,-94.74 2273.67,-93.96"/>
<polygon fill="#63b8ff" stroke="#63b8ff" points="2275.03,-97.19 2283.35,-90.62 2272.75,-90.57 2275.03,-97.19"/>
</a>
</g>
</g>
<!-- Node24 -->
<g id="Node000024" class="node">
<title>Node24</title>
<g id="a_Node000024"><a xlink:title=" ">
<polygon fill="#e0e0e0" stroke="#999999" points="2387,-90.5 2349,-90.5 2349,-71.5 2387,-71.5 2387,-90.5"/>
<text text-anchor="middle" x="2368" y="-78.5" font-family="Helvetica,sans-Serif" font-size="10.00">map</text>
</a>
</g>
</g>
<!-- Node9&#45;&gt;Node24 -->
<g id="edge24_Node000009_Node000024" class="edge">
<title>Node9&#45;&gt;Node24</title>
<g id="a_edge24_Node000009_Node000024"><a xlink:title=" ">
<path fill="none" stroke="#63b8ff" d="M1772.57,-137.49C1780.4,-135.38 1788.98,-133.33 1797,-132 2035.59,-92.37 2106.57,-159.33 2340,-96 2341.44,-95.61 2342.9,-95.14 2344.35,-94.61"/>
<polygon fill="#63b8ff" stroke="#63b8ff" points="2345.86,-97.77 2353.61,-90.56 2343.05,-91.36 2345.86,-97.77"/>
</a>
</g>
</g>
<!-- Node25 -->
<g id="Node000025" class="node">
<title>Node25</title>
<g id="a_Node000025"><a xlink:title=" ">
<polygon fill="#e0e0e0" stroke="#999999" points="2449,-90.5 2405,-90.5 2405,-71.5 2449,-71.5 2449,-90.5"/>
<text text-anchor="middle" x="2427" y="-78.5" font-family="Helvetica,sans-Serif" font-size="10.00">regex</text>
</a>
</g>
</g>
<!-- Node9&#45;&gt;Node25 -->
<g id="edge25_Node000009_Node000025" class="edge">
<title>Node9&#45;&gt;Node25</title>
<g id="a_edge25_Node000009_Node000025"><a xlink:title=" ">
<path fill="none" stroke="#63b8ff" d="M1772.57,-137.46C1780.39,-135.34 1788.97,-133.31 1797,-132 2060.23,-89.11 2137.08,-159.94 2396,-96 2397.73,-95.57 2399.49,-95.05 2401.24,-94.46"/>
<polygon fill="#63b8ff" stroke="#63b8ff" points="2403,-97.53 2410.99,-90.56 2400.4,-91.03 2403,-97.53"/>
</a>
</g>
</g>
<!-- Node26 -->
<g id="Node000026" class="node">
<title>Node26</title>
<g id="a_Node000026"><a xlink:title=" ">
<polygon fill="#e0e0e0" stroke="#999999" points="2511,-90.5 2467,-90.5 2467,-71.5 2511,-71.5 2511,-90.5"/>
<text text-anchor="middle" x="2489" y="-78.5" font-family="Helvetica,sans-Serif" font-size="10.00">string</text>
</a>
</g>
</g>
<!-- Node9&#45;&gt;Node26 -->
<g id="edge26_Node000009_Node000026" class="edge">
<title>Node9&#45;&gt;Node26</title>
<g id="a_edge26_Node000009_Node000026"><a xlink:title=" ">
<path fill="none" stroke="#63b8ff" d="M1772.56,-137.43C1780.39,-135.31 1788.97,-133.29 1797,-132 2087.52,-85.5 2172.17,-165.74 2458,-96 2459.74,-95.58 2461.49,-95.06 2463.24,-94.47"/>
<polygon fill="#63b8ff" stroke="#63b8ff" points="2465,-97.54 2472.99,-90.58 2462.41,-91.04 2465,-97.54"/>
</a>
</g>
</g>
<!-- Node27 -->
<g id="Node000027" class="node">
<title>Node27</title>
<g id="a_Node000027"><a xlink:title=" ">
<polygon fill="#e0e0e0" stroke="#999999" points="2570.5,-90.5 2529.5,-90.5 2529.5,-71.5 2570.5,-71.5 2570.5,-90.5"/>
<text text-anchor="middle" x="2550" y="-78.5" font-family="Helvetica,sans-Serif" font-size="10.00">tuple</text>
</a>
</g>
</g>
<!-- Node9&#45;&gt;Node27 -->
<g id="edge27_Node000009_Node000027" class="edge">
<title>Node9&#45;&gt;Node27</title>
<g id="a_edge27_Node000009_Node000027"><a xlink:title=" ">
<path fill="none" stroke="#63b8ff" d="M1772.29,-137.48C1780.19,-135.34 1788.87,-133.28 1797,-132 2114.81,-81.89 2207.74,-173.47 2520,-96 2521.69,-95.58 2523.4,-95.07 2525.09,-94.48"/>
<polygon fill="#63b8ff" stroke="#63b8ff" points="2526.62,-97.64 2534.54,-90.6 2523.96,-91.17 2526.62,-97.64"/>
</a>
</g>
</g>
<!-- Node28 -->
<g id="Node000028" class="node">
<title>Node28</title>
<g id="a_Node000028"><a xlink:title=" ">
<polygon fill="#e0e0e0" stroke="#999999" points="2635.5,-90.5 2588.5,-90.5 2588.5,-71.5 2635.5,-71.5 2635.5,-90.5"/>
<text text-anchor="middle" x="2612" y="-78.5" font-family="Helvetica,sans-Serif" font-size="10.00">vector</text>
</a>
</g>
</g>
<!-- Node9&#45;&gt;Node28 -->
<g id="edge28_Node000009_Node000028" class="edge">
<title>Node9&#45;&gt;Node28</title>
<g id="a_edge28_Node000009_Node000028"><a xlink:title=" ">
<path fill="none" stroke="#63b8ff" d="M1772.29,-137.46C1780.19,-135.32 1788.87,-133.27 1797,-132 2141.22,-78.4 2240.74,-175.14 2580,-96 2581.95,-95.55 2583.93,-94.98 2585.89,-94.33"/>
<polygon fill="#63b8ff" stroke="#63b8ff" points="2587.41,-97.49 2595.46,-90.61 2584.87,-90.97 2587.41,-97.49"/>
</a>
</g>
</g>
<!-- Node10&#45;&gt;Node11 -->
<g id="edge10_Node000010_Node000011" class="edge">
<title>Node10&#45;&gt;Node11</title>
<g id="a_edge10_Node000010_Node000011"><a xlink:title=" ">
<path fill="none" stroke="#63b8ff" d="M813.54,-71.37C801.68,-62.44 782.75,-48.19 767.06,-36.38"/>
<polygon fill="#63b8ff" stroke="#63b8ff" points="768.84,-33.33 758.75,-30.12 764.63,-38.93 768.84,-33.33"/>
</a>
</g>
</g>
<!-- Node12 -->
<g id="Node000012" class="node">
<title>Node12</title>
<g id="a_Node000012"><a xlink:title=" ">
<polygon fill="#e0e0e0" stroke="#999999" points="927.5,-30 808.5,-30 808.5,0 927.5,0 927.5,-30"/>
<text text-anchor="start" x="816.5" y="-18" font-family="Helvetica,sans-Serif" font-size="10.00">deal.II/numerics/data</text>
<text text-anchor="middle" x="868" y="-7" font-family="Helvetica,sans-Serif" font-size="10.00">_postprocessor.h</text>
</a>
</g>
</g>
<!-- Node10&#45;&gt;Node12 -->
<g id="edge11_Node000010_Node000012" class="edge">
<title>Node10&#45;&gt;Node12</title>
<g id="a_edge11_Node000010_Node000012"><a xlink:title=" ">
<path fill="none" stroke="#63b8ff" d="M830.8,-71.37C836.37,-63.08 845.03,-50.18 852.6,-38.92"/>
<polygon fill="#63b8ff" stroke="#63b8ff" points="855.68,-40.61 858.35,-30.36 849.87,-36.71 855.68,-40.61"/>
</a>
</g>
</g>
</g>
</svg>
