<?xml version="1.0" encoding="UTF-8" standalone="no"?>
<!DOCTYPE svg PUBLIC "-//W3C//DTD SVG 1.1//EN"
 "http://www.w3.org/Graphics/SVG/1.1/DTD/svg11.dtd">
<!-- Generated by graphviz version 2.43.0 (0)
 -->
<!-- Title: /home/runner/work/lethe/lethe/include/core/grid_uniform_channel_with_meshed_cylinder.h Pages: 1 -->
<svg width="344pt" height="148pt"
 viewBox="0.00 0.00 344.00 148.00" xmlns="http://www.w3.org/2000/svg" xmlns:xlink="http://www.w3.org/1999/xlink">
<g id="graph0" class="graph" transform="scale(1 1) rotate(0) translate(4 144)">
<title>/home/runner/work/lethe/lethe/include/core/grid_uniform_channel_with_meshed_cylinder.h</title>
<!-- Node1 -->
<g id="Node000001" class="node">
<title>Node1</title>
<g id="a_Node000001"><a xlink:title=" ">
<polygon fill="#999999" stroke="#666666" points="262,-140 88,-140 88,-88 262,-88 262,-140"/>
<text text-anchor="start" x="96" y="-128" font-family="Helvetica,sans-Serif" font-size="10.00">/home/runner/work/lethe</text>
<text text-anchor="start" x="96" y="-117" font-family="Helvetica,sans-Serif" font-size="10.00">/lethe/include/core/grid</text>
<text text-anchor="start" x="96" y="-106" font-family="Helvetica,sans-Serif" font-size="10.00">_uniform_channel_with_meshed</text>
<text text-anchor="middle" x="175" y="-95" font-family="Helvetica,sans-Serif" font-size="10.00">_cylinder.h</text>
</a>
</g>
</g>
<!-- Node2 -->
<g id="Node000002" class="node">
<title>Node2</title>
<g id="a_Node000002"><a xlink:href="grid__uniform__channel__with__meshed__cylinder_8cc.html" target="_top" xlink:title=" ">
<polygon fill="white" stroke="#666666" points="174,-52 0,-52 0,0 174,0 174,-52"/>
<text text-anchor="start" x="8" y="-40" font-family="Helvetica,sans-Serif" font-size="10.00">/home/runner/work/lethe</text>
<text text-anchor="start" x="8" y="-29" font-family="Helvetica,sans-Serif" font-size="10.00">/lethe/source/core/grid</text>
<text text-anchor="start" x="8" y="-18" font-family="Helvetica,sans-Serif" font-size="10.00">_uniform_channel_with_meshed</text>
<text text-anchor="middle" x="87" y="-7" font-family="Helvetica,sans-Serif" font-size="10.00">_cylinder.cc</text>
</a>
</g>
</g>
<!-- Node1&#45;&gt;Node2 -->
<g id="edge1_Node000001_Node000002" class="edge">
<title>Node1&#45;&gt;Node2</title>
<g id="a_edge1_Node000001_Node000002"><a xlink:title=" ">
<path fill="none" stroke="#63b8ff" d="M141.88,-80.63C132.24,-71.21 121.86,-61.06 112.74,-52.16"/>
<polygon fill="#63b8ff" stroke="#63b8ff" points="139.47,-83.18 149.07,-87.66 144.37,-78.17 139.47,-83.18"/>
</a>
</g>
</g>
<!-- Node3 -->
<g id="Node000003" class="node">
<title>Node3</title>
<g id="a_Node000003"><a xlink:href="grids_8cc.html" target="_top" xlink:title=" ">
<polygon fill="white" stroke="#666666" points="336,-41 192,-41 192,-11 336,-11 336,-41"/>
<text text-anchor="start" x="200" y="-29" font-family="Helvetica,sans-Serif" font-size="10.00">/home/runner/work/lethe</text>
<text text-anchor="middle" x="264" y="-18" font-family="Helvetica,sans-Serif" font-size="10.00">/lethe/source/core/grids.cc</text>
</a>
</g>
</g>
<!-- Node1&#45;&gt;Node3 -->
<g id="edge2_Node000001_Node000003" class="edge">
<title>Node1&#45;&gt;Node3</title>
<g id="a_edge2_Node000001_Node000003"><a xlink:title=" ">
<path fill="none" stroke="#63b8ff" d="M208.42,-80.71C222.52,-67.08 238.21,-51.92 249.31,-41.2"/>
<polygon fill="#63b8ff" stroke="#63b8ff" points="205.98,-78.2 201.22,-87.66 210.84,-83.23 205.98,-78.2"/>
</a>
</g>
</g>
</g>
</svg>
