<?xml version="1.0" encoding="UTF-8" standalone="no"?>
<!DOCTYPE svg PUBLIC "-//W3C//DTD SVG 1.1//EN"
 "http://www.w3.org/Graphics/SVG/1.1/DTD/svg11.dtd">
<!-- Generated by graphviz version 2.43.0 (0)
 -->
<!-- Title: /home/runner/work/lethe/lethe/source/core/grid_uniform_channel_with_meshed_cylinder.cc Pages: 1 -->
<svg width="2217pt" height="258pt"
 viewBox="0.00 0.00 2216.50 258.00" xmlns="http://www.w3.org/2000/svg" xmlns:xlink="http://www.w3.org/1999/xlink">
<g id="graph0" class="graph" transform="scale(1 1) rotate(0) translate(4 254)">
<title>/home/runner/work/lethe/lethe/source/core/grid_uniform_channel_with_meshed_cylinder.cc</title>
<!-- Node1 -->
<g id="Node000001" class="node">
<title>Node1</title>
<g id="a_Node000001"><a xlink:title=" ">
<polygon fill="#999999" stroke="#666666" points="1662,-250 1488,-250 1488,-198 1662,-198 1662,-250"/>
<text text-anchor="start" x="1496" y="-238" font-family="Helvetica,sans-Serif" font-size="10.00">/home/runner/work/lethe</text>
<text text-anchor="start" x="1496" y="-227" font-family="Helvetica,sans-Serif" font-size="10.00">/lethe/source/core/grid</text>
<text text-anchor="start" x="1496" y="-216" font-family="Helvetica,sans-Serif" font-size="10.00">_uniform_channel_with_meshed</text>
<text text-anchor="middle" x="1575" y="-205" font-family="Helvetica,sans-Serif" font-size="10.00">_cylinder.cc</text>
</a>
</g>
</g>
<!-- Node2 -->
<g id="Node000002" class="node">
<title>Node2</title>
<g id="a_Node000002"><a xlink:href="grid__uniform__channel__with__meshed__cylinder_8h.html" target="_top" xlink:title=" ">
<polygon fill="white" stroke="#666666" points="417,-162 271,-162 271,-132 417,-132 417,-162"/>
<text text-anchor="start" x="279" y="-150" font-family="Helvetica,sans-Serif" font-size="10.00">core/grid_uniform_channel</text>
<text text-anchor="middle" x="344" y="-139" font-family="Helvetica,sans-Serif" font-size="10.00">_with_meshed_cylinder.h</text>
</a>
</g>
</g>
<!-- Node1&#45;&gt;Node2 -->
<g id="edge1_Node000001_Node000002" class="edge">
<title>Node1&#45;&gt;Node2</title>
<g id="a_edge1_Node000001_Node000002"><a xlink:title=" ">
<path fill="none" stroke="#63b8ff" d="M1487.95,-217.7C1260.48,-203.84 650.55,-166.68 427.32,-153.08"/>
<polygon fill="#63b8ff" stroke="#63b8ff" points="427.5,-149.58 417.31,-152.47 427.08,-156.57 427.5,-149.58"/>
</a>
</g>
</g>
<!-- Node7 -->
<g id="Node000007" class="node">
<title>Node7</title>
<g id="a_Node000007"><a xlink:href="core_2utilities_8h.html" target="_top" xlink:title=" ">
<polygon fill="white" stroke="#666666" points="1481,-156.5 1395,-156.5 1395,-137.5 1481,-137.5 1481,-156.5"/>
<text text-anchor="middle" x="1438" y="-144.5" font-family="Helvetica,sans-Serif" font-size="10.00">core/utilities.h</text>
</a>
</g>
</g>
<!-- Node1&#45;&gt;Node7 -->
<g id="edge6_Node000001_Node000007" class="edge">
<title>Node1&#45;&gt;Node7</title>
<g id="a_edge6_Node000001_Node000007"><a xlink:title=" ">
<path fill="none" stroke="#63b8ff" d="M1529,-197.82C1506.76,-185.64 1480.96,-171.52 1462.52,-161.42"/>
<polygon fill="#63b8ff" stroke="#63b8ff" points="1464.06,-158.28 1453.61,-156.54 1460.7,-164.42 1464.06,-158.28"/>
</a>
</g>
</g>
<!-- Node25 -->
<g id="Node000025" class="node">
<title>Node25</title>
<g id="a_Node000025"><a xlink:title=" ">
<polygon fill="#e0e0e0" stroke="#999999" points="1650.5,-156.5 1499.5,-156.5 1499.5,-137.5 1650.5,-137.5 1650.5,-156.5"/>
<text text-anchor="middle" x="1575" y="-144.5" font-family="Helvetica,sans-Serif" font-size="10.00">deal.II/grid/grid_generator.h</text>
</a>
</g>
</g>
<!-- Node1&#45;&gt;Node25 -->
<g id="edge25_Node000001_Node000025" class="edge">
<title>Node1&#45;&gt;Node25</title>
<g id="a_edge25_Node000001_Node000025"><a xlink:title=" ">
<path fill="none" stroke="#63b8ff" d="M1575,-197.61C1575,-187.58 1575,-176.25 1575,-166.96"/>
<polygon fill="#63b8ff" stroke="#63b8ff" points="1578.5,-166.85 1575,-156.85 1571.5,-166.85 1578.5,-166.85"/>
</a>
</g>
</g>
<!-- Node26 -->
<g id="Node000026" class="node">
<title>Node26</title>
<g id="a_Node000026"><a xlink:title=" ">
<polygon fill="#e0e0e0" stroke="#999999" points="1727.5,-156.5 1668.5,-156.5 1668.5,-137.5 1727.5,-137.5 1727.5,-156.5"/>
<text text-anchor="middle" x="1698" y="-144.5" font-family="Helvetica,sans-Serif" font-size="10.00">numbers</text>
</a>
</g>
</g>
<!-- Node1&#45;&gt;Node26 -->
<g id="edge26_Node000001_Node000026" class="edge">
<title>Node1&#45;&gt;Node26</title>
<g id="a_edge26_Node000001_Node000026"><a xlink:title=" ">
<path fill="none" stroke="#63b8ff" d="M1616.3,-197.82C1635.9,-185.86 1658.58,-172.03 1675.07,-161.98"/>
<polygon fill="#63b8ff" stroke="#63b8ff" points="1677.27,-164.74 1683.99,-156.54 1673.63,-158.76 1677.27,-164.74"/>
</a>
</g>
</g>
<!-- Node27 -->
<g id="Node000027" class="node">
<title>Node27</title>
<g id="a_Node000027"><a xlink:title=" ">
<polygon fill="#e0e0e0" stroke="#999999" points="1778,-156.5 1746,-156.5 1746,-137.5 1778,-137.5 1778,-156.5"/>
<text text-anchor="middle" x="1762" y="-144.5" font-family="Helvetica,sans-Serif" font-size="10.00">set</text>
</a>
</g>
</g>
<!-- Node1&#45;&gt;Node27 -->
<g id="edge27_Node000001_Node000027" class="edge">
<title>Node1&#45;&gt;Node27</title>
<g id="a_edge27_Node000001_Node000027"><a xlink:title=" ">
<path fill="none" stroke="#63b8ff" d="M1648.54,-197.96C1676.61,-187.72 1708.66,-175.18 1737,-162 1737.55,-161.74 1738.1,-161.48 1738.66,-161.21"/>
<polygon fill="#63b8ff" stroke="#63b8ff" points="1740.41,-164.25 1747.65,-156.52 1737.17,-158.04 1740.41,-164.25"/>
</a>
</g>
</g>
<!-- Node3 -->
<g id="Node000003" class="node">
<title>Node3</title>
<g id="a_Node000003"><a xlink:title=" ">
<polygon fill="#e0e0e0" stroke="#999999" points="122,-90.5 0,-90.5 0,-71.5 122,-71.5 122,-90.5"/>
<text text-anchor="middle" x="61" y="-78.5" font-family="Helvetica,sans-Serif" font-size="10.00">deal.II/base/utilities.h</text>
</a>
</g>
</g>
<!-- Node2&#45;&gt;Node3 -->
<g id="edge2_Node000002_Node000003" class="edge">
<title>Node2&#45;&gt;Node3</title>
<g id="a_edge2_Node000002_Node000003"><a xlink:title=" ">
<path fill="none" stroke="#63b8ff" d="M281.89,-131.95C229.75,-120.16 156.34,-103.56 108.71,-92.79"/>
<polygon fill="#63b8ff" stroke="#63b8ff" points="109.19,-89.31 98.66,-90.52 107.64,-96.14 109.19,-89.31"/>
</a>
</g>
</g>
<!-- Node4 -->
<g id="Node000004" class="node">
<title>Node4</title>
<g id="a_Node000004"><a xlink:title=" ">
<polygon fill="#e0e0e0" stroke="#999999" points="268,-90.5 140,-90.5 140,-71.5 268,-71.5 268,-90.5"/>
<text text-anchor="middle" x="204" y="-78.5" font-family="Helvetica,sans-Serif" font-size="10.00">deal.II/grid/grid_tools.h</text>
</a>
</g>
</g>
<!-- Node2&#45;&gt;Node4 -->
<g id="edge3_Node000002_Node000004" class="edge">
<title>Node2&#45;&gt;Node4</title>
<g id="a_edge3_Node000002_Node000004"><a xlink:title=" ">
<path fill="none" stroke="#63b8ff" d="M313.28,-131.95C289.05,-120.88 255.54,-105.56 232.04,-94.82"/>
<polygon fill="#63b8ff" stroke="#63b8ff" points="233.18,-91.49 222.63,-90.52 230.27,-97.86 233.18,-91.49"/>
</a>
</g>
</g>
<!-- Node5 -->
<g id="Node000005" class="node">
<title>Node5</title>
<g id="a_Node000005"><a xlink:title=" ">
<polygon fill="#e0e0e0" stroke="#999999" points="401.5,-96 286.5,-96 286.5,-66 401.5,-66 401.5,-96"/>
<text text-anchor="start" x="294.5" y="-84" font-family="Helvetica,sans-Serif" font-size="10.00">deal.II/grid/manifold</text>
<text text-anchor="middle" x="344" y="-73" font-family="Helvetica,sans-Serif" font-size="10.00">_lib.h</text>
</a>
</g>
</g>
<!-- Node2&#45;&gt;Node5 -->
<g id="edge4_Node000002_Node000005" class="edge">
<title>Node2&#45;&gt;Node5</title>
<g id="a_edge4_Node000002_Node000005"><a xlink:title=" ">
<path fill="none" stroke="#63b8ff" d="M344,-131.8C344,-124.34 344,-114.99 344,-106.41"/>
<polygon fill="#63b8ff" stroke="#63b8ff" points="347.5,-106.16 344,-96.16 340.5,-106.16 347.5,-106.16"/>
</a>
</g>
</g>
<!-- Node6 -->
<g id="Node000006" class="node">
<title>Node6</title>
<g id="a_Node000006"><a xlink:title=" ">
<polygon fill="#e0e0e0" stroke="#999999" points="476,-90.5 420,-90.5 420,-71.5 476,-71.5 476,-90.5"/>
<text text-anchor="middle" x="448" y="-78.5" font-family="Helvetica,sans-Serif" font-size="10.00">sstream</text>
</a>
</g>
</g>
<!-- Node2&#45;&gt;Node6 -->
<g id="edge5_Node000002_Node000006" class="edge">
<title>Node2&#45;&gt;Node6</title>
<g id="a_edge5_Node000002_Node000006"><a xlink:title=" ">
<path fill="none" stroke="#63b8ff" d="M366.82,-131.95C384.18,-121.27 407.94,-106.65 425.27,-95.98"/>
<polygon fill="#63b8ff" stroke="#63b8ff" points="427.48,-98.74 434.16,-90.52 423.81,-92.78 427.48,-98.74"/>
</a>
</g>
</g>
<!-- Node8 -->
<g id="Node000008" class="node">
<title>Node8</title>
<g id="a_Node000008"><a xlink:href="output__struct_8h.html" target="_top" xlink:title=" ">
<polygon fill="white" stroke="#666666" points="646,-90.5 532,-90.5 532,-71.5 646,-71.5 646,-90.5"/>
<text text-anchor="middle" x="589" y="-78.5" font-family="Helvetica,sans-Serif" font-size="10.00">core/output_struct.h</text>
</a>
</g>
</g>
<!-- Node7&#45;&gt;Node8 -->
<g id="edge7_Node000007_Node000008" class="edge">
<title>Node7&#45;&gt;Node8</title>
<g id="a_edge7_Node000007_Node000008"><a xlink:title=" ">
<path fill="none" stroke="#63b8ff" d="M1394.92,-145.44C1276.34,-143.43 935.36,-134.48 655,-96 648.29,-95.08 641.25,-93.86 634.37,-92.53"/>
<polygon fill="#63b8ff" stroke="#63b8ff" points="634.95,-89.07 624.46,-90.51 633.56,-95.93 634.95,-89.07"/>
</a>
</g>
</g>
<!-- Node9 -->
<g id="Node000009" class="node">
<title>Node9</title>
<g id="a_Node000009"><a xlink:title=" ">
<polygon fill="#e0e0e0" stroke="#999999" points="554.5,-30 453.5,-30 453.5,0 554.5,0 554.5,-30"/>
<text text-anchor="start" x="461.5" y="-18" font-family="Helvetica,sans-Serif" font-size="10.00">deal.II/base/table</text>
<text text-anchor="middle" x="504" y="-7" font-family="Helvetica,sans-Serif" font-size="10.00">_handler.h</text>
</a>
</g>
</g>
<!-- Node7&#45;&gt;Node9 -->
<g id="edge13_Node000007_Node000009" class="edge">
<title>Node7&#45;&gt;Node9</title>
<g id="a_edge13_Node000007_Node000009"><a xlink:title=" ">
<path fill="none" stroke="#63b8ff" d="M1394.77,-145.07C1217.85,-141.06 556.82,-124.26 523,-96 507.05,-82.67 503.1,-58.62 502.65,-40.36"/>
<polygon fill="#63b8ff" stroke="#63b8ff" points="506.16,-40.18 502.75,-30.15 499.16,-40.12 506.16,-40.18"/>
</a>
</g>
</g>
<!-- Node11 -->
<g id="Node000011" class="node">
<title>Node11</title>
<g id="a_Node000011"><a xlink:title=" ">
<polygon fill="#e0e0e0" stroke="#999999" points="794,-96 664,-96 664,-66 794,-66 794,-96"/>
<text text-anchor="start" x="672" y="-84" font-family="Helvetica,sans-Serif" font-size="10.00">deal.II/base/conditional</text>
<text text-anchor="middle" x="729" y="-73" font-family="Helvetica,sans-Serif" font-size="10.00">_ostream.h</text>
</a>
</g>
</g>
<!-- Node7&#45;&gt;Node11 -->
<g id="edge10_Node000007_Node000011" class="edge">
<title>Node7&#45;&gt;Node11</title>
<g id="a_edge10_Node000007_Node000011"><a xlink:title=" ">
<path fill="none" stroke="#63b8ff" d="M1394.79,-144.17C1293.52,-139.55 1032.89,-125.69 804.54,-95.96"/>
<polygon fill="#63b8ff" stroke="#63b8ff" points="804.75,-92.46 794.38,-94.63 803.84,-99.4 804.75,-92.46"/>
</a>
</g>
</g>
<!-- Node12 -->
<g id="Node000012" class="node">
<title>Node12</title>
<g id="a_Node000012"><a xlink:title=" ">
<polygon fill="#e0e0e0" stroke="#999999" points="939.5,-96 812.5,-96 812.5,-66 939.5,-66 939.5,-96"/>
<text text-anchor="start" x="820.5" y="-84" font-family="Helvetica,sans-Serif" font-size="10.00">deal.II/base/parameter</text>
<text text-anchor="middle" x="876" y="-73" font-family="Helvetica,sans-Serif" font-size="10.00">_handler.h</text>
</a>
</g>
</g>
<!-- Node7&#45;&gt;Node12 -->
<g id="edge11_Node000007_Node000012" class="edge">
<title>Node7&#45;&gt;Node12</title>
<g id="a_edge11_Node000007_Node000012"><a xlink:title=" ">
<path fill="none" stroke="#63b8ff" d="M1395,-142.88C1311.3,-136.52 1120.46,-120.68 949.57,-95.99"/>
<polygon fill="#63b8ff" stroke="#63b8ff" points="950.05,-92.53 939.65,-94.55 949.04,-99.45 950.05,-92.53"/>
</a>
</g>
</g>
<!-- Node13 -->
<g id="Node000013" class="node">
<title>Node13</title>
<g id="a_Node000013"><a xlink:title=" ">
<polygon fill="#e0e0e0" stroke="#999999" points="1068,-90.5 958,-90.5 958,-71.5 1068,-71.5 1068,-90.5"/>
<text text-anchor="middle" x="1013" y="-78.5" font-family="Helvetica,sans-Serif" font-size="10.00">deal.II/base/point.h</text>
</a>
</g>
</g>
<!-- Node7&#45;&gt;Node13 -->
<g id="edge12_Node000007_Node000013" class="edge">
<title>Node7&#45;&gt;Node13</title>
<g id="a_edge12_Node000007_Node000013"><a xlink:title=" ">
<path fill="none" stroke="#63b8ff" d="M1394.89,-141.06C1327.18,-133.07 1191.86,-116.14 1078,-96 1072.25,-94.98 1066.23,-93.82 1060.27,-92.61"/>
<polygon fill="#63b8ff" stroke="#63b8ff" points="1060.88,-89.16 1050.37,-90.55 1059.45,-96.01 1060.88,-89.16"/>
</a>
</g>
</g>
<!-- Node14 -->
<g id="Node000014" class="node">
<title>Node14</title>
<g id="a_Node000014"><a xlink:title=" ">
<polygon fill="#e0e0e0" stroke="#999999" points="1201.5,-90.5 1086.5,-90.5 1086.5,-71.5 1201.5,-71.5 1201.5,-90.5"/>
<text text-anchor="middle" x="1144" y="-78.5" font-family="Helvetica,sans-Serif" font-size="10.00">deal.II/base/tensor.h</text>
</a>
</g>
</g>
<!-- Node7&#45;&gt;Node14 -->
<g id="edge14_Node000007_Node000014" class="edge">
<title>Node7&#45;&gt;Node14</title>
<g id="a_edge14_Node000007_Node000014"><a xlink:title=" ">
<path fill="none" stroke="#63b8ff" d="M1398.65,-137.44C1345.52,-125.87 1250.83,-105.26 1193.1,-92.69"/>
<polygon fill="#63b8ff" stroke="#63b8ff" points="1193.63,-89.22 1183.11,-90.51 1192.14,-96.06 1193.63,-89.22"/>
</a>
</g>
</g>
<!-- Node15 -->
<g id="Node000015" class="node">
<title>Node15</title>
<g id="a_Node000015"><a xlink:title=" ">
<polygon fill="#e0e0e0" stroke="#999999" points="1360,-90.5 1220,-90.5 1220,-71.5 1360,-71.5 1360,-90.5"/>
<text text-anchor="middle" x="1290" y="-78.5" font-family="Helvetica,sans-Serif" font-size="10.00">deal.II/dofs/dof_handler.h</text>
</a>
</g>
</g>
<!-- Node7&#45;&gt;Node15 -->
<g id="edge15_Node000007_Node000015" class="edge">
<title>Node7&#45;&gt;Node15</title>
<g id="a_edge15_Node000007_Node000015"><a xlink:title=" ">
<path fill="none" stroke="#63b8ff" d="M1418.04,-137.37C1392.66,-126.39 1348.64,-107.36 1319.41,-94.72"/>
<polygon fill="#63b8ff" stroke="#63b8ff" points="1320.68,-91.46 1310.12,-90.7 1317.91,-97.88 1320.68,-91.46"/>
</a>
</g>
</g>
<!-- Node16 -->
<g id="Node000016" class="node">
<title>Node16</title>
<g id="a_Node000016"><a xlink:title=" ">
<polygon fill="#e0e0e0" stroke="#999999" points="1497.5,-90.5 1378.5,-90.5 1378.5,-71.5 1497.5,-71.5 1497.5,-90.5"/>
<text text-anchor="middle" x="1438" y="-78.5" font-family="Helvetica,sans-Serif" font-size="10.00">deal.II/fe/fe_values.h</text>
</a>
</g>
</g>
<!-- Node7&#45;&gt;Node16 -->
<g id="edge16_Node000007_Node000016" class="edge">
<title>Node7&#45;&gt;Node16</title>
<g id="a_edge16_Node000007_Node000016"><a xlink:title=" ">
<path fill="none" stroke="#63b8ff" d="M1438,-137.37C1438,-128.16 1438,-113.29 1438,-101.27"/>
<polygon fill="#63b8ff" stroke="#63b8ff" points="1441.5,-100.91 1438,-90.91 1434.5,-100.91 1441.5,-100.91"/>
</a>
</g>
</g>
<!-- Node17 -->
<g id="Node000017" class="node">
<title>Node17</title>
<g id="a_Node000017"><a xlink:title=" ">
<polygon fill="#e0e0e0" stroke="#999999" points="1646.5,-96 1515.5,-96 1515.5,-66 1646.5,-66 1646.5,-96"/>
<text text-anchor="start" x="1523.5" y="-84" font-family="Helvetica,sans-Serif" font-size="10.00">deal.II/particles/particle</text>
<text text-anchor="middle" x="1581" y="-73" font-family="Helvetica,sans-Serif" font-size="10.00">_iterator.h</text>
</a>
</g>
</g>
<!-- Node7&#45;&gt;Node17 -->
<g id="edge17_Node000007_Node000017" class="edge">
<title>Node7&#45;&gt;Node17</title>
<g id="a_edge17_Node000007_Node000017"><a xlink:title=" ">
<path fill="none" stroke="#63b8ff" d="M1457.29,-137.37C1478.43,-127.91 1512.96,-112.45 1540.17,-100.27"/>
<polygon fill="#63b8ff" stroke="#63b8ff" points="1541.76,-103.4 1549.46,-96.12 1538.9,-97.01 1541.76,-103.4"/>
</a>
</g>
</g>
<!-- Node18 -->
<g id="Node000018" class="node">
<title>Node18</title>
<g id="a_Node000018"><a xlink:title=" ">
<polygon fill="#e0e0e0" stroke="#999999" points="1769.5,-96 1664.5,-96 1664.5,-66 1769.5,-66 1769.5,-96"/>
<text text-anchor="start" x="1672.5" y="-84" font-family="Helvetica,sans-Serif" font-size="10.00">boost/archive/text</text>
<text text-anchor="middle" x="1717" y="-73" font-family="Helvetica,sans-Serif" font-size="10.00">_iarchive.hpp</text>
</a>
</g>
</g>
<!-- Node7&#45;&gt;Node18 -->
<g id="edge18_Node000007_Node000018" class="edge">
<title>Node7&#45;&gt;Node18</title>
<g id="a_edge18_Node000007_Node000018"><a xlink:title=" ">
<path fill="none" stroke="#63b8ff" d="M1469.33,-137.48C1476.44,-135.62 1483.97,-133.69 1491,-132 1560.83,-115.17 1581.04,-112.6 1654.25,-96.37"/>
<polygon fill="#63b8ff" stroke="#63b8ff" points="1655.44,-99.69 1664.44,-94.1 1653.91,-92.86 1655.44,-99.69"/>
</a>
</g>
</g>
<!-- Node19 -->
<g id="Node000019" class="node">
<title>Node19</title>
<g id="a_Node000019"><a xlink:title=" ">
<polygon fill="#e0e0e0" stroke="#999999" points="1892.5,-96 1787.5,-96 1787.5,-66 1892.5,-66 1892.5,-96"/>
<text text-anchor="start" x="1795.5" y="-84" font-family="Helvetica,sans-Serif" font-size="10.00">boost/archive/text</text>
<text text-anchor="middle" x="1840" y="-73" font-family="Helvetica,sans-Serif" font-size="10.00">_oarchive.hpp</text>
</a>
</g>
</g>
<!-- Node7&#45;&gt;Node19 -->
<g id="edge19_Node000007_Node000019" class="edge">
<title>Node7&#45;&gt;Node19</title>
<g id="a_edge19_Node000007_Node000019"><a xlink:title=" ">
<path fill="none" stroke="#63b8ff" d="M1467.55,-137.45C1475.15,-135.45 1483.34,-133.48 1491,-132 1614.43,-108.1 1650.17,-117.92 1777.37,-96.17"/>
<polygon fill="#63b8ff" stroke="#63b8ff" points="1778.25,-99.57 1787.5,-94.41 1777.04,-92.67 1778.25,-99.57"/>
</a>
</g>
</g>
<!-- Node20 -->
<g id="Node000020" class="node">
<title>Node20</title>
<g id="a_Node000020"><a xlink:title=" ">
<polygon fill="#e0e0e0" stroke="#999999" points="1965.5,-90.5 1910.5,-90.5 1910.5,-71.5 1965.5,-71.5 1965.5,-90.5"/>
<text text-anchor="middle" x="1938" y="-78.5" font-family="Helvetica,sans-Serif" font-size="10.00">fstream</text>
</a>
</g>
</g>
<!-- Node7&#45;&gt;Node20 -->
<g id="edge20_Node000007_Node000020" class="edge">
<title>Node7&#45;&gt;Node20</title>
<g id="a_edge20_Node000007_Node000020"><a xlink:title=" ">
<path fill="none" stroke="#63b8ff" d="M1466.68,-137.47C1474.51,-135.4 1483.03,-133.39 1491,-132 1671.63,-100.47 1723.43,-137.65 1902,-96 1904.37,-95.45 1906.79,-94.77 1909.2,-94.01"/>
<polygon fill="#63b8ff" stroke="#63b8ff" points="1910.63,-97.22 1918.89,-90.59 1908.29,-90.62 1910.63,-97.22"/>
</a>
</g>
</g>
<!-- Node21 -->
<g id="Node000021" class="node">
<title>Node21</title>
<g id="a_Node000021"><a xlink:title=" ">
<polygon fill="#e0e0e0" stroke="#999999" points="2022,-90.5 1984,-90.5 1984,-71.5 2022,-71.5 2022,-90.5"/>
<text text-anchor="middle" x="2003" y="-78.5" font-family="Helvetica,sans-Serif" font-size="10.00">map</text>
</a>
</g>
</g>
<!-- Node7&#45;&gt;Node21 -->
<g id="edge21_Node000007_Node000021" class="edge">
<title>Node7&#45;&gt;Node21</title>
<g id="a_edge21_Node000007_Node000021"><a xlink:title=" ">
<path fill="none" stroke="#63b8ff" d="M1466.4,-137.47C1474.3,-135.38 1482.93,-133.35 1491,-132 1703.73,-96.3 1767.05,-153.32 1975,-96 1976.44,-95.6 1977.9,-95.13 1979.34,-94.6"/>
<polygon fill="#63b8ff" stroke="#63b8ff" points="1980.86,-97.76 1988.61,-90.53 1978.04,-91.35 1980.86,-97.76"/>
</a>
</g>
</g>
<!-- Node22 -->
<g id="Node000022" class="node">
<title>Node22</title>
<g id="a_Node000022"><a xlink:title=" ">
<polygon fill="#e0e0e0" stroke="#999999" points="2084,-90.5 2040,-90.5 2040,-71.5 2084,-71.5 2084,-90.5"/>
<text text-anchor="middle" x="2062" y="-78.5" font-family="Helvetica,sans-Serif" font-size="10.00">string</text>
</a>
</g>
</g>
<!-- Node7&#45;&gt;Node22 -->
<g id="edge22_Node000007_Node000022" class="edge">
<title>Node7&#45;&gt;Node22</title>
<g id="a_edge22_Node000007_Node000022"><a xlink:title=" ">
<path fill="none" stroke="#63b8ff" d="M1466.39,-137.43C1474.29,-135.34 1482.92,-133.32 1491,-132 1728.37,-93.11 1797.67,-154.43 2031,-96 2032.73,-95.57 2034.49,-95.04 2036.24,-94.45"/>
<polygon fill="#63b8ff" stroke="#63b8ff" points="2038,-97.51 2045.98,-90.54 2035.4,-91.01 2038,-97.51"/>
</a>
</g>
</g>
<!-- Node23 -->
<g id="Node000023" class="node">
<title>Node23</title>
<g id="a_Node000023"><a xlink:title=" ">
<polygon fill="#e0e0e0" stroke="#999999" points="2143.5,-90.5 2102.5,-90.5 2102.5,-71.5 2143.5,-71.5 2143.5,-90.5"/>
<text text-anchor="middle" x="2123" y="-78.5" font-family="Helvetica,sans-Serif" font-size="10.00">tuple</text>
</a>
</g>
</g>
<!-- Node7&#45;&gt;Node23 -->
<g id="edge23_Node000007_Node000023" class="edge">
<title>Node7&#45;&gt;Node23</title>
<g id="a_edge23_Node000007_Node000023"><a xlink:title=" ">
<path fill="none" stroke="#63b8ff" d="M1466.11,-137.47C1474.08,-135.35 1482.82,-133.31 1491,-132 1755.65,-89.56 1833.18,-161.84 2093,-96 2094.69,-95.57 2096.39,-95.05 2098.09,-94.46"/>
<polygon fill="#63b8ff" stroke="#63b8ff" points="2099.62,-97.62 2107.53,-90.57 2096.95,-91.15 2099.62,-97.62"/>
</a>
</g>
</g>
<!-- Node24 -->
<g id="Node000024" class="node">
<title>Node24</title>
<g id="a_Node000024"><a xlink:title=" ">
<polygon fill="#e0e0e0" stroke="#999999" points="2208.5,-90.5 2161.5,-90.5 2161.5,-71.5 2208.5,-71.5 2208.5,-90.5"/>
<text text-anchor="middle" x="2185" y="-78.5" font-family="Helvetica,sans-Serif" font-size="10.00">vector</text>
</a>
</g>
</g>
<!-- Node7&#45;&gt;Node24 -->
<g id="edge24_Node000007_Node000024" class="edge">
<title>Node7&#45;&gt;Node24</title>
<g id="a_edge24_Node000007_Node000024"><a xlink:title=" ">
<path fill="none" stroke="#63b8ff" d="M1466.1,-137.44C1474.08,-135.32 1482.82,-133.29 1491,-132 1782.07,-86.14 1866.33,-164.14 2153,-96 2154.95,-95.54 2156.92,-94.96 2158.89,-94.31"/>
<polygon fill="#63b8ff" stroke="#63b8ff" points="2160.41,-97.47 2168.45,-90.58 2157.86,-90.95 2160.41,-97.47"/>
</a>
</g>
</g>
<!-- Node8&#45;&gt;Node9 -->
<g id="edge8_Node000008_Node000009" class="edge">
<title>Node8&#45;&gt;Node9</title>
<g id="a_edge8_Node000008_Node000009"><a xlink:title=" ">
<path fill="none" stroke="#63b8ff" d="M577.54,-71.37C565.68,-62.44 546.75,-48.19 531.06,-36.38"/>
<polygon fill="#63b8ff" stroke="#63b8ff" points="532.84,-33.33 522.75,-30.12 528.63,-38.93 532.84,-33.33"/>
</a>
</g>
</g>
<!-- Node10 -->
<g id="Node000010" class="node">
<title>Node10</title>
<g id="a_Node000010"><a xlink:title=" ">
<polygon fill="#e0e0e0" stroke="#999999" points="691.5,-30 572.5,-30 572.5,0 691.5,0 691.5,-30"/>
<text text-anchor="start" x="580.5" y="-18" font-family="Helvetica,sans-Serif" font-size="10.00">deal.II/numerics/data</text>
<text text-anchor="middle" x="632" y="-7" font-family="Helvetica,sans-Serif" font-size="10.00">_postprocessor.h</text>
</a>
</g>
</g>
<!-- Node8&#45;&gt;Node10 -->
<g id="edge9_Node000008_Node000010" class="edge">
<title>Node8&#45;&gt;Node10</title>
<g id="a_edge9_Node000008_Node000010"><a xlink:title=" ">
<path fill="none" stroke="#63b8ff" d="M594.8,-71.37C600.37,-63.08 609.03,-50.18 616.6,-38.92"/>
<polygon fill="#63b8ff" stroke="#63b8ff" points="619.68,-40.61 622.35,-30.36 613.87,-36.71 619.68,-40.61"/>
</a>
</g>
</g>
</g>
</svg>
