<?xml version="1.0" encoding="UTF-8" standalone="no"?>
<!DOCTYPE svg PUBLIC "-//W3C//DTD SVG 1.1//EN"
 "http://www.w3.org/Graphics/SVG/1.1/DTD/svg11.dtd">
<!-- Generated by graphviz version 2.43.0 (0)
 -->
<!-- Title: /home/runner/work/lethe/lethe/source/core/grid_uniform_channel_with_meshed_cylinder.cc Pages: 1 -->
<svg width="2578pt" height="258pt"
 viewBox="0.00 0.00 2577.50 258.00" xmlns="http://www.w3.org/2000/svg" xmlns:xlink="http://www.w3.org/1999/xlink">
<g id="graph0" class="graph" transform="scale(1 1) rotate(0) translate(4 254)">
<title>/home/runner/work/lethe/lethe/source/core/grid_uniform_channel_with_meshed_cylinder.cc</title>
<!-- Node1 -->
<g id="Node000001" class="node">
<title>Node1</title>
<g id="a_Node000001"><a xlink:title=" ">
<polygon fill="#999999" stroke="#666666" points="1838,-250 1664,-250 1664,-198 1838,-198 1838,-250"/>
<text text-anchor="start" x="1672" y="-238" font-family="Helvetica,sans-Serif" font-size="10.00">/home/runner/work/lethe</text>
<text text-anchor="start" x="1672" y="-227" font-family="Helvetica,sans-Serif" font-size="10.00">/lethe/source/core/grid</text>
<text text-anchor="start" x="1672" y="-216" font-family="Helvetica,sans-Serif" font-size="10.00">_uniform_channel_with_meshed</text>
<text text-anchor="middle" x="1751" y="-205" font-family="Helvetica,sans-Serif" font-size="10.00">_cylinder.cc</text>
</a>
</g>
</g>
<!-- Node2 -->
<g id="Node000002" class="node">
<title>Node2</title>
<g id="a_Node000002"><a xlink:href="grid__uniform__channel__with__meshed__cylinder_8h.html" target="_top" xlink:title=" ">
<polygon fill="white" stroke="#666666" points="517,-162 371,-162 371,-132 517,-132 517,-162"/>
<text text-anchor="start" x="379" y="-150" font-family="Helvetica,sans-Serif" font-size="10.00">core/grid_uniform_channel</text>
<text text-anchor="middle" x="444" y="-139" font-family="Helvetica,sans-Serif" font-size="10.00">_with_meshed_cylinder.h</text>
</a>
</g>
</g>
<!-- Node1&#45;&gt;Node2 -->
<g id="edge1_Node000001_Node000002" class="edge">
<title>Node1&#45;&gt;Node2</title>
<g id="a_edge1_Node000001_Node000002"><a xlink:title=" ">
<path fill="none" stroke="#63b8ff" d="M1663.98,-218.01C1425.13,-204.3 761.57,-166.22 527.25,-152.78"/>
<polygon fill="#63b8ff" stroke="#63b8ff" points="527.27,-149.27 517.09,-152.19 526.87,-156.26 527.27,-149.27"/>
</a>
</g>
</g>
<!-- Node8 -->
<g id="Node000008" class="node">
<title>Node8</title>
<g id="a_Node000008"><a xlink:href="core_2utilities_8h.html" target="_top" xlink:title=" ">
<polygon fill="white" stroke="#666666" points="1794,-156.5 1708,-156.5 1708,-137.5 1794,-137.5 1794,-156.5"/>
<text text-anchor="middle" x="1751" y="-144.5" font-family="Helvetica,sans-Serif" font-size="10.00">core/utilities.h</text>
</a>
</g>
</g>
<!-- Node1&#45;&gt;Node8 -->
<g id="edge7_Node000001_Node000008" class="edge">
<title>Node1&#45;&gt;Node8</title>
<g id="a_edge7_Node000001_Node000008"><a xlink:title=" ">
<path fill="none" stroke="#63b8ff" d="M1751,-197.61C1751,-187.58 1751,-176.25 1751,-166.96"/>
<polygon fill="#63b8ff" stroke="#63b8ff" points="1754.5,-166.85 1751,-156.85 1747.5,-166.85 1754.5,-166.85"/>
</a>
</g>
</g>
<!-- Node28 -->
<g id="Node000028" class="node">
<title>Node28</title>
<g id="a_Node000028"><a xlink:title=" ">
<polygon fill="#e0e0e0" stroke="#999999" points="1871.5,-156.5 1812.5,-156.5 1812.5,-137.5 1871.5,-137.5 1871.5,-156.5"/>
<text text-anchor="middle" x="1842" y="-144.5" font-family="Helvetica,sans-Serif" font-size="10.00">numbers</text>
</a>
</g>
</g>
<!-- Node1&#45;&gt;Node28 -->
<g id="edge28_Node000001_Node000028" class="edge">
<title>Node1&#45;&gt;Node28</title>
<g id="a_edge28_Node000001_Node000028"><a xlink:title=" ">
<path fill="none" stroke="#63b8ff" d="M1781.55,-197.82C1795.52,-186.31 1811.59,-173.07 1823.65,-163.13"/>
<polygon fill="#63b8ff" stroke="#63b8ff" points="1826.14,-165.61 1831.63,-156.54 1821.69,-160.2 1826.14,-165.61"/>
</a>
</g>
</g>
<!-- Node3 -->
<g id="Node000003" class="node">
<title>Node3</title>
<g id="a_Node000003"><a xlink:title=" ">
<polygon fill="#e0e0e0" stroke="#999999" points="122,-90.5 0,-90.5 0,-71.5 122,-71.5 122,-90.5"/>
<text text-anchor="middle" x="61" y="-78.5" font-family="Helvetica,sans-Serif" font-size="10.00">deal.II/base/utilities.h</text>
</a>
</g>
</g>
<!-- Node2&#45;&gt;Node3 -->
<g id="edge2_Node000002_Node000003" class="edge">
<title>Node2&#45;&gt;Node3</title>
<g id="a_edge2_Node000002_Node000003"><a xlink:title=" ">
<path fill="none" stroke="#63b8ff" d="M370.82,-135.13C307.3,-125.51 212.92,-110.73 131,-96 124.92,-94.91 118.55,-93.71 112.23,-92.49"/>
<polygon fill="#63b8ff" stroke="#63b8ff" points="112.89,-89.05 102.41,-90.56 111.55,-95.92 112.89,-89.05"/>
</a>
</g>
</g>
<!-- Node4 -->
<g id="Node000004" class="node">
<title>Node4</title>
<g id="a_Node000004"><a xlink:title=" ">
<polygon fill="#e0e0e0" stroke="#999999" points="291.5,-90.5 140.5,-90.5 140.5,-71.5 291.5,-71.5 291.5,-90.5"/>
<text text-anchor="middle" x="216" y="-78.5" font-family="Helvetica,sans-Serif" font-size="10.00">deal.II/grid/grid_generator.h</text>
</a>
</g>
</g>
<!-- Node2&#45;&gt;Node4 -->
<g id="edge3_Node000002_Node000004" class="edge">
<title>Node2&#45;&gt;Node4</title>
<g id="a_edge3_Node000002_Node000004"><a xlink:title=" ">
<path fill="none" stroke="#63b8ff" d="M393.96,-131.95C352.57,-120.34 294.54,-104.05 256.14,-93.27"/>
<polygon fill="#63b8ff" stroke="#63b8ff" points="256.92,-89.85 246.34,-90.52 255.02,-96.59 256.92,-89.85"/>
</a>
</g>
</g>
<!-- Node5 -->
<g id="Node000005" class="node">
<title>Node5</title>
<g id="a_Node000005"><a xlink:title=" ">
<polygon fill="#e0e0e0" stroke="#999999" points="438,-90.5 310,-90.5 310,-71.5 438,-71.5 438,-90.5"/>
<text text-anchor="middle" x="374" y="-78.5" font-family="Helvetica,sans-Serif" font-size="10.00">deal.II/grid/grid_tools.h</text>
</a>
</g>
</g>
<!-- Node2&#45;&gt;Node5 -->
<g id="edge4_Node000002_Node000005" class="edge">
<title>Node2&#45;&gt;Node5</title>
<g id="a_edge4_Node000002_Node000005"><a xlink:title=" ">
<path fill="none" stroke="#63b8ff" d="M428.46,-131.8C417.44,-121.72 402.65,-108.19 391.26,-97.78"/>
<polygon fill="#63b8ff" stroke="#63b8ff" points="393.42,-95.01 383.67,-90.84 388.69,-100.18 393.42,-95.01"/>
</a>
</g>
</g>
<!-- Node6 -->
<g id="Node000006" class="node">
<title>Node6</title>
<g id="a_Node000006"><a xlink:title=" ">
<polygon fill="#e0e0e0" stroke="#999999" points="571.5,-96 456.5,-96 456.5,-66 571.5,-66 571.5,-96"/>
<text text-anchor="start" x="464.5" y="-84" font-family="Helvetica,sans-Serif" font-size="10.00">deal.II/grid/manifold</text>
<text text-anchor="middle" x="514" y="-73" font-family="Helvetica,sans-Serif" font-size="10.00">_lib.h</text>
</a>
</g>
</g>
<!-- Node2&#45;&gt;Node6 -->
<g id="edge5_Node000002_Node000006" class="edge">
<title>Node2&#45;&gt;Node6</title>
<g id="a_edge5_Node000002_Node000006"><a xlink:title=" ">
<path fill="none" stroke="#63b8ff" d="M459.54,-131.8C468.78,-123.34 480.68,-112.46 491,-103.03"/>
<polygon fill="#63b8ff" stroke="#63b8ff" points="493.49,-105.49 498.51,-96.16 488.77,-100.33 493.49,-105.49"/>
</a>
</g>
</g>
<!-- Node7 -->
<g id="Node000007" class="node">
<title>Node7</title>
<g id="a_Node000007"><a xlink:title=" ">
<polygon fill="#e0e0e0" stroke="#999999" points="646,-90.5 590,-90.5 590,-71.5 646,-71.5 646,-90.5"/>
<text text-anchor="middle" x="618" y="-78.5" font-family="Helvetica,sans-Serif" font-size="10.00">sstream</text>
</a>
</g>
</g>
<!-- Node2&#45;&gt;Node7 -->
<g id="edge6_Node000002_Node000007" class="edge">
<title>Node2&#45;&gt;Node7</title>
<g id="a_edge6_Node000002_Node000007"><a xlink:title=" ">
<path fill="none" stroke="#63b8ff" d="M482.11,-132C509.37,-121.98 546.95,-108.16 580,-96 581.63,-95.4 583.31,-94.78 584.99,-94.16"/>
<polygon fill="#63b8ff" stroke="#63b8ff" points="586.52,-97.33 594.69,-90.59 584.1,-90.76 586.52,-97.33"/>
</a>
</g>
</g>
<!-- Node9 -->
<g id="Node000009" class="node">
<title>Node9</title>
<g id="a_Node000009"><a xlink:href="output__struct_8h.html" target="_top" xlink:title=" ">
<polygon fill="white" stroke="#666666" points="816,-90.5 702,-90.5 702,-71.5 816,-71.5 816,-90.5"/>
<text text-anchor="middle" x="759" y="-78.5" font-family="Helvetica,sans-Serif" font-size="10.00">core/output_struct.h</text>
</a>
</g>
</g>
<!-- Node8&#45;&gt;Node9 -->
<g id="edge8_Node000008_Node000009" class="edge">
<title>Node8&#45;&gt;Node9</title>
<g id="a_edge8_Node000008_Node000009"><a xlink:title=" ">
<path fill="none" stroke="#63b8ff" d="M1707.86,-146.04C1575.38,-145.66 1162.97,-140.7 825,-96 818.21,-95.1 811.08,-93.88 804.12,-92.54"/>
<polygon fill="#63b8ff" stroke="#63b8ff" points="804.6,-89.07 794.1,-90.5 803.21,-95.93 804.6,-89.07"/>
</a>
</g>
</g>
<!-- Node10 -->
<g id="Node000010" class="node">
<title>Node10</title>
<g id="a_Node000010"><a xlink:title=" ">
<polygon fill="#e0e0e0" stroke="#999999" points="724.5,-30 623.5,-30 623.5,0 724.5,0 724.5,-30"/>
<text text-anchor="start" x="631.5" y="-18" font-family="Helvetica,sans-Serif" font-size="10.00">deal.II/base/table</text>
<text text-anchor="middle" x="674" y="-7" font-family="Helvetica,sans-Serif" font-size="10.00">_handler.h</text>
</a>
</g>
</g>
<!-- Node8&#45;&gt;Node10 -->
<g id="edge14_Node000008_Node000010" class="edge">
<title>Node8&#45;&gt;Node10</title>
<g id="a_edge14_Node000008_Node000010"><a xlink:title=" ">
<path fill="none" stroke="#63b8ff" d="M1707.72,-145.4C1513.81,-142.51 732.65,-128.89 693,-96 677,-82.73 673.06,-58.68 672.63,-40.4"/>
<polygon fill="#63b8ff" stroke="#63b8ff" points="676.13,-40.2 672.73,-30.17 669.13,-40.13 676.13,-40.2"/>
</a>
</g>
</g>
<!-- Node12 -->
<g id="Node000012" class="node">
<title>Node12</title>
<g id="a_Node000012"><a xlink:title=" ">
<polygon fill="#e0e0e0" stroke="#999999" points="964,-96 834,-96 834,-66 964,-66 964,-96"/>
<text text-anchor="start" x="842" y="-84" font-family="Helvetica,sans-Serif" font-size="10.00">deal.II/base/conditional</text>
<text text-anchor="middle" x="899" y="-73" font-family="Helvetica,sans-Serif" font-size="10.00">_ostream.h</text>
</a>
</g>
</g>
<!-- Node8&#45;&gt;Node12 -->
<g id="edge11_Node000008_Node000012" class="edge">
<title>Node8&#45;&gt;Node12</title>
<g id="a_edge11_Node000008_Node000012"><a xlink:title=" ">
<path fill="none" stroke="#63b8ff" d="M1707.87,-145.04C1591.32,-142.07 1260.2,-131.07 974.52,-95.94"/>
<polygon fill="#63b8ff" stroke="#63b8ff" points="974.73,-92.44 964.37,-94.68 973.87,-99.39 974.73,-92.44"/>
</a>
</g>
</g>
<!-- Node13 -->
<g id="Node000013" class="node">
<title>Node13</title>
<g id="a_Node000013"><a xlink:title=" ">
<polygon fill="#e0e0e0" stroke="#999999" points="1109.5,-96 982.5,-96 982.5,-66 1109.5,-66 1109.5,-96"/>
<text text-anchor="start" x="990.5" y="-84" font-family="Helvetica,sans-Serif" font-size="10.00">deal.II/base/parameter</text>
<text text-anchor="middle" x="1046" y="-73" font-family="Helvetica,sans-Serif" font-size="10.00">_handler.h</text>
</a>
</g>
</g>
<!-- Node8&#45;&gt;Node13 -->
<g id="edge12_Node000008_Node000013" class="edge">
<title>Node8&#45;&gt;Node13</title>
<g id="a_edge12_Node000008_Node000013"><a xlink:title=" ">
<path fill="none" stroke="#63b8ff" d="M1707.91,-144.24C1606.95,-139.75 1347.09,-126.16 1119.75,-95.99"/>
<polygon fill="#63b8ff" stroke="#63b8ff" points="1120.01,-92.49 1109.63,-94.63 1119.08,-99.43 1120.01,-92.49"/>
</a>
</g>
</g>
<!-- Node14 -->
<g id="Node000014" class="node">
<title>Node14</title>
<g id="a_Node000014"><a xlink:title=" ">
<polygon fill="#e0e0e0" stroke="#999999" points="1238,-90.5 1128,-90.5 1128,-71.5 1238,-71.5 1238,-90.5"/>
<text text-anchor="middle" x="1183" y="-78.5" font-family="Helvetica,sans-Serif" font-size="10.00">deal.II/base/point.h</text>
</a>
</g>
</g>
<!-- Node8&#45;&gt;Node14 -->
<g id="edge13_Node000008_Node000014" class="edge">
<title>Node8&#45;&gt;Node14</title>
<g id="a_edge13_Node000008_Node000014"><a xlink:title=" ">
<path fill="none" stroke="#63b8ff" d="M1707.73,-143.35C1620.42,-137.65 1417.06,-122.52 1248,-96 1241.79,-95.03 1235.28,-93.83 1228.88,-92.56"/>
<polygon fill="#63b8ff" stroke="#63b8ff" points="1229.47,-89.1 1218.96,-90.5 1228.05,-95.96 1229.47,-89.1"/>
</a>
</g>
</g>
<!-- Node15 -->
<g id="Node000015" class="node">
<title>Node15</title>
<g id="a_Node000015"><a xlink:title=" ">
<polygon fill="#e0e0e0" stroke="#999999" points="1371.5,-90.5 1256.5,-90.5 1256.5,-71.5 1371.5,-71.5 1371.5,-90.5"/>
<text text-anchor="middle" x="1314" y="-78.5" font-family="Helvetica,sans-Serif" font-size="10.00">deal.II/base/tensor.h</text>
</a>
</g>
</g>
<!-- Node8&#45;&gt;Node15 -->
<g id="edge15_Node000008_Node000015" class="edge">
<title>Node8&#45;&gt;Node15</title>
<g id="a_edge15_Node000008_Node000015"><a xlink:title=" ">
<path fill="none" stroke="#63b8ff" d="M1707.84,-141.18C1638.64,-133.24 1498.71,-116.22 1381,-96 1375.07,-94.98 1368.87,-93.82 1362.73,-92.61"/>
<polygon fill="#63b8ff" stroke="#63b8ff" points="1363.02,-89.1 1352.53,-90.54 1361.64,-95.96 1363.02,-89.1"/>
</a>
</g>
</g>
<!-- Node16 -->
<g id="Node000016" class="node">
<title>Node16</title>
<g id="a_Node000016"><a xlink:title=" ">
<polygon fill="#e0e0e0" stroke="#999999" points="1530,-90.5 1390,-90.5 1390,-71.5 1530,-71.5 1530,-90.5"/>
<text text-anchor="middle" x="1460" y="-78.5" font-family="Helvetica,sans-Serif" font-size="10.00">deal.II/dofs/dof_handler.h</text>
</a>
</g>
</g>
<!-- Node8&#45;&gt;Node16 -->
<g id="edge16_Node000008_Node000016" class="edge">
<title>Node8&#45;&gt;Node16</title>
<g id="a_edge16_Node000008_Node000016"><a xlink:title=" ">
<path fill="none" stroke="#63b8ff" d="M1712.06,-137.44C1659.46,-125.87 1565.74,-105.26 1508.59,-92.69"/>
<polygon fill="#63b8ff" stroke="#63b8ff" points="1509.23,-89.24 1498.71,-90.51 1507.73,-96.08 1509.23,-89.24"/>
</a>
</g>
</g>
<!-- Node17 -->
<g id="Node000017" class="node">
<title>Node17</title>
<g id="a_Node000017"><a xlink:title=" ">
<polygon fill="#e0e0e0" stroke="#999999" points="1667.5,-90.5 1548.5,-90.5 1548.5,-71.5 1667.5,-71.5 1667.5,-90.5"/>
<text text-anchor="middle" x="1608" y="-78.5" font-family="Helvetica,sans-Serif" font-size="10.00">deal.II/fe/fe_values.h</text>
</a>
</g>
</g>
<!-- Node8&#45;&gt;Node17 -->
<g id="edge17_Node000008_Node000017" class="edge">
<title>Node8&#45;&gt;Node17</title>
<g id="a_edge17_Node000008_Node000017"><a xlink:title=" ">
<path fill="none" stroke="#63b8ff" d="M1731.71,-137.37C1707.3,-126.44 1665.03,-107.52 1636.79,-94.88"/>
<polygon fill="#63b8ff" stroke="#63b8ff" points="1637.99,-91.59 1627.44,-90.7 1635.13,-97.98 1637.99,-91.59"/>
</a>
</g>
</g>
<!-- Node18 -->
<g id="Node000018" class="node">
<title>Node18</title>
<g id="a_Node000018"><a xlink:title=" ">
<polygon fill="#e0e0e0" stroke="#999999" points="1816.5,-96 1685.5,-96 1685.5,-66 1816.5,-66 1816.5,-96"/>
<text text-anchor="start" x="1693.5" y="-84" font-family="Helvetica,sans-Serif" font-size="10.00">deal.II/particles/particle</text>
<text text-anchor="middle" x="1751" y="-73" font-family="Helvetica,sans-Serif" font-size="10.00">_iterator.h</text>
</a>
</g>
</g>
<!-- Node8&#45;&gt;Node18 -->
<g id="edge18_Node000008_Node000018" class="edge">
<title>Node8&#45;&gt;Node18</title>
<g id="a_edge18_Node000008_Node000018"><a xlink:title=" ">
<path fill="none" stroke="#63b8ff" d="M1751,-137.37C1751,-129.49 1751,-117.45 1751,-106.6"/>
<polygon fill="#63b8ff" stroke="#63b8ff" points="1754.5,-106.36 1751,-96.36 1747.5,-106.36 1754.5,-106.36"/>
</a>
</g>
</g>
<!-- Node19 -->
<g id="Node000019" class="node">
<title>Node19</title>
<g id="a_Node000019"><a xlink:title=" ">
<polygon fill="#e0e0e0" stroke="#999999" points="1939.5,-96 1834.5,-96 1834.5,-66 1939.5,-66 1939.5,-96"/>
<text text-anchor="start" x="1842.5" y="-84" font-family="Helvetica,sans-Serif" font-size="10.00">boost/archive/text</text>
<text text-anchor="middle" x="1887" y="-73" font-family="Helvetica,sans-Serif" font-size="10.00">_iarchive.hpp</text>
</a>
</g>
</g>
<!-- Node8&#45;&gt;Node19 -->
<g id="edge19_Node000008_Node000019" class="edge">
<title>Node8&#45;&gt;Node19</title>
<g id="a_edge19_Node000008_Node000019"><a xlink:title=" ">
<path fill="none" stroke="#63b8ff" d="M1769.34,-137.37C1789.36,-127.95 1822,-112.59 1847.83,-100.43"/>
<polygon fill="#63b8ff" stroke="#63b8ff" points="1849.45,-103.54 1857,-96.12 1846.47,-97.21 1849.45,-103.54"/>
</a>
</g>
</g>
<!-- Node20 -->
<g id="Node000020" class="node">
<title>Node20</title>
<g id="a_Node000020"><a xlink:title=" ">
<polygon fill="#e0e0e0" stroke="#999999" points="2062.5,-96 1957.5,-96 1957.5,-66 2062.5,-66 2062.5,-96"/>
<text text-anchor="start" x="1965.5" y="-84" font-family="Helvetica,sans-Serif" font-size="10.00">boost/archive/text</text>
<text text-anchor="middle" x="2010" y="-73" font-family="Helvetica,sans-Serif" font-size="10.00">_oarchive.hpp</text>
</a>
</g>
</g>
<!-- Node8&#45;&gt;Node20 -->
<g id="edge20_Node000008_Node000020" class="edge">
<title>Node8&#45;&gt;Node20</title>
<g id="a_edge20_Node000008_Node000020"><a xlink:title=" ">
<path fill="none" stroke="#63b8ff" d="M1782.92,-137.46C1789.86,-135.63 1797.17,-133.73 1804,-132 1852.12,-119.81 1906.72,-106.58 1947.61,-96.8"/>
<polygon fill="#63b8ff" stroke="#63b8ff" points="1948.52,-100.18 1957.43,-94.45 1946.89,-93.37 1948.52,-100.18"/>
</a>
</g>
</g>
<!-- Node21 -->
<g id="Node000021" class="node">
<title>Node21</title>
<g id="a_Node000021"><a xlink:title=" ">
<polygon fill="#e0e0e0" stroke="#999999" points="2191,-96 2081,-96 2081,-66 2191,-66 2191,-96"/>
<text text-anchor="start" x="2089" y="-84" font-family="Helvetica,sans-Serif" font-size="10.00">boost/math/special</text>
<text text-anchor="middle" x="2136" y="-73" font-family="Helvetica,sans-Serif" font-size="10.00">_functions/erf.hpp</text>
</a>
</g>
</g>
<!-- Node8&#45;&gt;Node21 -->
<g id="edge21_Node000008_Node000021" class="edge">
<title>Node8&#45;&gt;Node21</title>
<g id="a_edge21_Node000008_Node000021"><a xlink:title=" ">
<path fill="none" stroke="#63b8ff" d="M1780.56,-137.49C1788.16,-135.5 1796.35,-133.52 1804,-132 1918.77,-109.22 1951.91,-116.45 2071.03,-96.07"/>
<polygon fill="#63b8ff" stroke="#63b8ff" points="2071.65,-99.52 2080.9,-94.35 2070.45,-92.62 2071.65,-99.52"/>
</a>
</g>
</g>
<!-- Node22 -->
<g id="Node000022" class="node">
<title>Node22</title>
<g id="a_Node000022"><a xlink:title=" ">
<polygon fill="#e0e0e0" stroke="#999999" points="2264.5,-90.5 2209.5,-90.5 2209.5,-71.5 2264.5,-71.5 2264.5,-90.5"/>
<text text-anchor="middle" x="2237" y="-78.5" font-family="Helvetica,sans-Serif" font-size="10.00">fstream</text>
</a>
</g>
</g>
<!-- Node8&#45;&gt;Node22 -->
<g id="edge22_Node000008_Node000022" class="edge">
<title>Node8&#45;&gt;Node22</title>
<g id="a_edge22_Node000008_Node000022"><a xlink:title=" ">
<path fill="none" stroke="#63b8ff" d="M1779.69,-137.48C1787.51,-135.42 1796.03,-133.4 1804,-132 1978.04,-101.33 2027.78,-135.63 2200,-96 2202.52,-95.42 2205.1,-94.71 2207.66,-93.92"/>
<polygon fill="#63b8ff" stroke="#63b8ff" points="2209.03,-97.15 2217.34,-90.57 2206.74,-90.53 2209.03,-97.15"/>
</a>
</g>
</g>
<!-- Node23 -->
<g id="Node000023" class="node">
<title>Node23</title>
<g id="a_Node000023"><a xlink:title=" ">
<polygon fill="#e0e0e0" stroke="#999999" points="2321,-90.5 2283,-90.5 2283,-71.5 2321,-71.5 2321,-90.5"/>
<text text-anchor="middle" x="2302" y="-78.5" font-family="Helvetica,sans-Serif" font-size="10.00">map</text>
</a>
</g>
</g>
<!-- Node8&#45;&gt;Node23 -->
<g id="edge23_Node000008_Node000023" class="edge">
<title>Node8&#45;&gt;Node23</title>
<g id="a_edge23_Node000008_Node000023"><a xlink:title=" ">
<path fill="none" stroke="#63b8ff" d="M1779.4,-137.48C1787.3,-135.39 1795.93,-133.36 1804,-132 2010.57,-97.1 2072.09,-151.89 2274,-96 2275.44,-95.6 2276.89,-95.13 2278.34,-94.6"/>
<polygon fill="#63b8ff" stroke="#63b8ff" points="2279.86,-97.75 2287.61,-90.53 2277.04,-91.35 2279.86,-97.75"/>
</a>
</g>
</g>
<!-- Node24 -->
<g id="Node000024" class="node">
<title>Node24</title>
<g id="a_Node000024"><a xlink:title=" ">
<polygon fill="#e0e0e0" stroke="#999999" points="2383,-90.5 2339,-90.5 2339,-71.5 2383,-71.5 2383,-90.5"/>
<text text-anchor="middle" x="2361" y="-78.5" font-family="Helvetica,sans-Serif" font-size="10.00">regex</text>
</a>
</g>
</g>
<!-- Node8&#45;&gt;Node24 -->
<g id="edge24_Node000008_Node000024" class="edge">
<title>Node8&#45;&gt;Node24</title>
<g id="a_edge24_Node000008_Node000024"><a xlink:title=" ">
<path fill="none" stroke="#63b8ff" d="M1779.39,-137.44C1787.29,-135.35 1795.92,-133.33 1804,-132 2035.21,-93.91 2102.74,-153.12 2330,-96 2331.73,-95.56 2333.49,-95.04 2335.24,-94.44"/>
<polygon fill="#63b8ff" stroke="#63b8ff" points="2337,-97.51 2344.98,-90.54 2334.4,-91.01 2337,-97.51"/>
</a>
</g>
</g>
<!-- Node25 -->
<g id="Node000025" class="node">
<title>Node25</title>
<g id="a_Node000025"><a xlink:title=" ">
<polygon fill="#e0e0e0" stroke="#999999" points="2445,-90.5 2401,-90.5 2401,-71.5 2445,-71.5 2445,-90.5"/>
<text text-anchor="middle" x="2423" y="-78.5" font-family="Helvetica,sans-Serif" font-size="10.00">string</text>
</a>
</g>
</g>
<!-- Node8&#45;&gt;Node25 -->
<g id="edge25_Node000008_Node000025" class="edge">
<title>Node8&#45;&gt;Node25</title>
<g id="a_edge25_Node000008_Node000025"><a xlink:title=" ">
<path fill="none" stroke="#63b8ff" d="M1779.11,-137.47C1787.09,-135.36 1795.83,-133.32 1804,-132 2062.49,-90.36 2137.85,-158.92 2392,-96 2393.73,-95.57 2395.49,-95.05 2397.24,-94.46"/>
<polygon fill="#63b8ff" stroke="#63b8ff" points="2399,-97.52 2406.99,-90.56 2396.4,-91.02 2399,-97.52"/>
</a>
</g>
</g>
<!-- Node26 -->
<g id="Node000026" class="node">
<title>Node26</title>
<g id="a_Node000026"><a xlink:title=" ">
<polygon fill="#e0e0e0" stroke="#999999" points="2504.5,-90.5 2463.5,-90.5 2463.5,-71.5 2504.5,-71.5 2504.5,-90.5"/>
<text text-anchor="middle" x="2484" y="-78.5" font-family="Helvetica,sans-Serif" font-size="10.00">tuple</text>
</a>
</g>
</g>
<!-- Node8&#45;&gt;Node26 -->
<g id="edge26_Node000008_Node000026" class="edge">
<title>Node8&#45;&gt;Node26</title>
<g id="a_edge26_Node000008_Node000026"><a xlink:title=" ">
<path fill="none" stroke="#63b8ff" d="M1779.1,-137.44C1787.08,-135.32 1795.82,-133.29 1804,-132 2089.78,-86.82 2173.38,-166.45 2454,-96 2455.69,-95.58 2457.39,-95.06 2459.09,-94.47"/>
<polygon fill="#63b8ff" stroke="#63b8ff" points="2460.62,-97.63 2468.54,-90.58 2457.96,-91.15 2460.62,-97.63"/>
</a>
</g>
</g>
<!-- Node27 -->
<g id="Node000027" class="node">
<title>Node27</title>
<g id="a_Node000027"><a xlink:title=" ">
<polygon fill="#e0e0e0" stroke="#999999" points="2569.5,-90.5 2522.5,-90.5 2522.5,-71.5 2569.5,-71.5 2569.5,-90.5"/>
<text text-anchor="middle" x="2546" y="-78.5" font-family="Helvetica,sans-Serif" font-size="10.00">vector</text>
</a>
</g>
</g>
<!-- Node8&#45;&gt;Node27 -->
<g id="edge27_Node000008_Node000027" class="edge">
<title>Node8&#45;&gt;Node27</title>
<g id="a_edge27_Node000008_Node000027"><a xlink:title=" ">
<path fill="none" stroke="#63b8ff" d="M1778.83,-137.49C1786.88,-135.35 1795.72,-133.29 1804,-132 2116.2,-83.39 2206.47,-168.5 2514,-96 2515.95,-95.54 2517.93,-94.97 2519.89,-94.32"/>
<polygon fill="#63b8ff" stroke="#63b8ff" points="2521.41,-97.48 2529.45,-90.59 2518.87,-90.96 2521.41,-97.48"/>
</a>
</g>
</g>
<!-- Node9&#45;&gt;Node10 -->
<g id="edge9_Node000009_Node000010" class="edge">
<title>Node9&#45;&gt;Node10</title>
<g id="a_edge9_Node000009_Node000010"><a xlink:title=" ">
<path fill="none" stroke="#63b8ff" d="M747.54,-71.37C735.68,-62.44 716.75,-48.19 701.06,-36.38"/>
<polygon fill="#63b8ff" stroke="#63b8ff" points="702.84,-33.33 692.75,-30.12 698.63,-38.93 702.84,-33.33"/>
</a>
</g>
</g>
<!-- Node11 -->
<g id="Node000011" class="node">
<title>Node11</title>
<g id="a_Node000011"><a xlink:title=" ">
<polygon fill="#e0e0e0" stroke="#999999" points="861.5,-30 742.5,-30 742.5,0 861.5,0 861.5,-30"/>
<text text-anchor="start" x="750.5" y="-18" font-family="Helvetica,sans-Serif" font-size="10.00">deal.II/numerics/data</text>
<text text-anchor="middle" x="802" y="-7" font-family="Helvetica,sans-Serif" font-size="10.00">_postprocessor.h</text>
</a>
</g>
</g>
<!-- Node9&#45;&gt;Node11 -->
<g id="edge10_Node000009_Node000011" class="edge">
<title>Node9&#45;&gt;Node11</title>
<g id="a_edge10_Node000009_Node000011"><a xlink:title=" ">
<path fill="none" stroke="#63b8ff" d="M764.8,-71.37C770.37,-63.08 779.03,-50.18 786.6,-38.92"/>
<polygon fill="#63b8ff" stroke="#63b8ff" points="789.68,-40.61 792.35,-30.36 783.87,-36.71 789.68,-40.61"/>
</a>
</g>
</g>
</g>
</svg>
