<?xml version="1.0" encoding="UTF-8" standalone="no"?>
<!DOCTYPE svg PUBLIC "-//W3C//DTD SVG 1.1//EN"
 "http://www.w3.org/Graphics/SVG/1.1/DTD/svg11.dtd">
<!-- Generated by graphviz version 2.43.0 (0)
 -->
<!-- Title: /home/runner/work/lethe/lethe/source/core/grid_cylinder.cc Pages: 1 -->
<svg width="338pt" height="170pt"
 viewBox="0.00 0.00 338.00 170.00" xmlns="http://www.w3.org/2000/svg" xmlns:xlink="http://www.w3.org/1999/xlink">
<g id="graph0" class="graph" transform="scale(1 1) rotate(0) translate(4 166)">
<title>/home/runner/work/lethe/lethe/source/core/grid_cylinder.cc</title>
<!-- Node1 -->
<g id="Node000001" class="node">
<title>Node1</title>
<g id="a_Node000001"><a xlink:title=" ">
<polygon fill="#999999" stroke="#666666" points="266.5,-162 129.5,-162 129.5,-121 266.5,-121 266.5,-162"/>
<text text-anchor="start" x="137.5" y="-150" font-family="Helvetica,sans-Serif" font-size="10.00">/home/runner/work/lethe</text>
<text text-anchor="start" x="137.5" y="-139" font-family="Helvetica,sans-Serif" font-size="10.00">/lethe/source/core/grid</text>
<text text-anchor="middle" x="198" y="-128" font-family="Helvetica,sans-Serif" font-size="10.00">_cylinder.cc</text>
</a>
</g>
</g>
<!-- Node2 -->
<g id="Node000002" class="node">
<title>Node2</title>
<g id="a_Node000002"><a xlink:href="grid__cylinder_8h.html" target="_top" xlink:title=" ">
<polygon fill="white" stroke="#666666" points="254,-85 142,-85 142,-66 254,-66 254,-85"/>
<text text-anchor="middle" x="198" y="-73" font-family="Helvetica,sans-Serif" font-size="10.00">core/grid_cylinder.h</text>
</a>
</g>
</g>
<!-- Node1&#45;&gt;Node2 -->
<g id="edge1_Node000001_Node000002" class="edge">
<title>Node1&#45;&gt;Node2</title>
<g id="a_edge1_Node000001_Node000002"><a xlink:title=" ">
<path fill="none" stroke="#63b8ff" d="M198,-120.95C198,-112.85 198,-103.5 198,-95.47"/>
<polygon fill="#63b8ff" stroke="#63b8ff" points="201.5,-95.26 198,-85.26 194.5,-95.26 201.5,-95.26"/>
</a>
</g>
</g>
<!-- Node3 -->
<g id="Node000003" class="node">
<title>Node3</title>
<g id="a_Node000003"><a xlink:title=" ">
<polygon fill="#e0e0e0" stroke="#999999" points="122,-24.5 0,-24.5 0,-5.5 122,-5.5 122,-24.5"/>
<text text-anchor="middle" x="61" y="-12.5" font-family="Helvetica,sans-Serif" font-size="10.00">deal.II/base/utilities.h</text>
</a>
</g>
</g>
<!-- Node2&#45;&gt;Node3 -->
<g id="edge2_Node000002_Node000003" class="edge">
<title>Node2&#45;&gt;Node3</title>
<g id="a_edge2_Node000002_Node000003"><a xlink:title=" ">
<path fill="none" stroke="#63b8ff" d="M178.08,-65.99C155.05,-56.16 116.92,-39.88 90.46,-28.58"/>
<polygon fill="#63b8ff" stroke="#63b8ff" points="91.52,-25.22 80.95,-24.52 88.77,-31.66 91.52,-25.22"/>
</a>
</g>
</g>
<!-- Node4 -->
<g id="Node000004" class="node">
<title>Node4</title>
<g id="a_Node000004"><a xlink:title=" ">
<polygon fill="#e0e0e0" stroke="#999999" points="255.5,-30 140.5,-30 140.5,0 255.5,0 255.5,-30"/>
<text text-anchor="start" x="148.5" y="-18" font-family="Helvetica,sans-Serif" font-size="10.00">deal.II/grid/manifold</text>
<text text-anchor="middle" x="198" y="-7" font-family="Helvetica,sans-Serif" font-size="10.00">_lib.h</text>
</a>
</g>
</g>
<!-- Node2&#45;&gt;Node4 -->
<g id="edge3_Node000002_Node000004" class="edge">
<title>Node2&#45;&gt;Node4</title>
<g id="a_edge3_Node000002_Node000004"><a xlink:title=" ">
<path fill="none" stroke="#63b8ff" d="M198,-65.87C198,-59.11 198,-49.35 198,-40.26"/>
<polygon fill="#63b8ff" stroke="#63b8ff" points="201.5,-40.11 198,-30.11 194.5,-40.11 201.5,-40.11"/>
</a>
</g>
</g>
<!-- Node5 -->
<g id="Node000005" class="node">
<title>Node5</title>
<g id="a_Node000005"><a xlink:title=" ">
<polygon fill="#e0e0e0" stroke="#999999" points="330,-24.5 274,-24.5 274,-5.5 330,-5.5 330,-24.5"/>
<text text-anchor="middle" x="302" y="-12.5" font-family="Helvetica,sans-Serif" font-size="10.00">sstream</text>
</a>
</g>
</g>
<!-- Node2&#45;&gt;Node5 -->
<g id="edge4_Node000002_Node000005" class="edge">
<title>Node2&#45;&gt;Node5</title>
<g id="a_edge4_Node000002_Node000005"><a xlink:title=" ">
<path fill="none" stroke="#63b8ff" d="M213.35,-65.87C230.32,-56.32 257.9,-40.81 277.79,-29.62"/>
<polygon fill="#63b8ff" stroke="#63b8ff" points="279.59,-32.62 286.59,-24.67 276.16,-26.52 279.59,-32.62"/>
</a>
</g>
</g>
</g>
</svg>
