<?xml version="1.0" encoding="UTF-8" standalone="no"?>
<!DOCTYPE svg PUBLIC "-//W3C//DTD SVG 1.1//EN"
 "http://www.w3.org/Graphics/SVG/1.1/DTD/svg11.dtd">
<!-- Generated by graphviz version 2.43.0 (0)
 -->
<!-- Title: /home/runner/work/lethe/lethe/include/solvers/heat_transfer_scratch_data.h Pages: 1 -->
<svg width="606pt" height="291pt"
 viewBox="0.00 0.00 606.00 291.00" xmlns="http://www.w3.org/2000/svg" xmlns:xlink="http://www.w3.org/1999/xlink">
<g id="graph0" class="graph" transform="scale(1 1) rotate(0) translate(4 287)">
<title>/home/runner/work/lethe/lethe/include/solvers/heat_transfer_scratch_data.h</title>
<!-- Node1 -->
<g id="Node000001" class="node">
<title>Node1</title>
<g id="a_Node000001"><a xlink:title=" ">
<polygon fill="#999999" stroke="#666666" points="446,-283 285,-283 285,-242 446,-242 446,-283"/>
<text text-anchor="start" x="293" y="-271" font-family="Helvetica,sans-Serif" font-size="10.00">/home/runner/work/lethe</text>
<text text-anchor="start" x="293" y="-260" font-family="Helvetica,sans-Serif" font-size="10.00">/lethe/include/solvers</text>
<text text-anchor="middle" x="365.5" y="-249" font-family="Helvetica,sans-Serif" font-size="10.00">/heat_transfer_scratch_data.h</text>
</a>
</g>
</g>
<!-- Node2 -->
<g id="Node000002" class="node">
<title>Node2</title>
<g id="a_Node000002"><a xlink:href="heat__transfer_8h.html" target="_top" xlink:title=" ">
<polygon fill="white" stroke="#666666" points="328,-118 191,-118 191,-77 328,-77 328,-118"/>
<text text-anchor="start" x="199" y="-106" font-family="Helvetica,sans-Serif" font-size="10.00">/home/runner/work/lethe</text>
<text text-anchor="start" x="199" y="-95" font-family="Helvetica,sans-Serif" font-size="10.00">/lethe/include/solvers</text>
<text text-anchor="middle" x="259.5" y="-84" font-family="Helvetica,sans-Serif" font-size="10.00">/heat_transfer.h</text>
</a>
</g>
</g>
<!-- Node1&#45;&gt;Node2 -->
<g id="edge1_Node000001_Node000002" class="edge">
<title>Node1&#45;&gt;Node2</title>
<g id="a_edge1_Node000001_Node000002"><a xlink:title=" ">
<path fill="none" stroke="#63b8ff" d="M311.96,-236.46C299.61,-228.36 287.7,-218.23 279.5,-206 261.63,-179.36 258.64,-141.04 258.67,-118.08"/>
<polygon fill="#63b8ff" stroke="#63b8ff" points="310.19,-239.49 320.54,-241.75 313.86,-233.53 310.19,-239.49"/>
</a>
</g>
</g>
<!-- Node6 -->
<g id="Node000006" class="node">
<title>Node6</title>
<g id="a_Node000006"><a xlink:href="heat__transfer__assemblers_8h.html" target="_top" xlink:title=" ">
<polygon fill="white" stroke="#666666" points="443,-200.5 288,-200.5 288,-159.5 443,-159.5 443,-200.5"/>
<text text-anchor="start" x="296" y="-188.5" font-family="Helvetica,sans-Serif" font-size="10.00">/home/runner/work/lethe</text>
<text text-anchor="start" x="296" y="-177.5" font-family="Helvetica,sans-Serif" font-size="10.00">/lethe/include/solvers</text>
<text text-anchor="middle" x="365.5" y="-166.5" font-family="Helvetica,sans-Serif" font-size="10.00">/heat_transfer_assemblers.h</text>
</a>
</g>
</g>
<!-- Node1&#45;&gt;Node6 -->
<g id="edge5_Node000001_Node000006" class="edge">
<title>Node1&#45;&gt;Node6</title>
<g id="a_edge5_Node000001_Node000006"><a xlink:title=" ">
<path fill="none" stroke="#63b8ff" d="M365.5,-231.37C365.5,-221.1 365.5,-209.9 365.5,-200.67"/>
<polygon fill="#63b8ff" stroke="#63b8ff" points="362,-231.6 365.5,-241.6 369,-231.6 362,-231.6"/>
</a>
</g>
</g>
<!-- Node7 -->
<g id="Node000007" class="node">
<title>Node7</title>
<g id="a_Node000007"><a xlink:href="heat__transfer__scratch__data_8cc.html" target="_top" xlink:title=" ">
<polygon fill="white" stroke="#666666" points="598,-206 461,-206 461,-154 598,-154 598,-206"/>
<text text-anchor="start" x="469" y="-194" font-family="Helvetica,sans-Serif" font-size="10.00">/home/runner/work/lethe</text>
<text text-anchor="start" x="469" y="-183" font-family="Helvetica,sans-Serif" font-size="10.00">/lethe/source/solvers</text>
<text text-anchor="start" x="469" y="-172" font-family="Helvetica,sans-Serif" font-size="10.00">/heat_transfer_scratch</text>
<text text-anchor="middle" x="529.5" y="-161" font-family="Helvetica,sans-Serif" font-size="10.00">_data.cc</text>
</a>
</g>
</g>
<!-- Node1&#45;&gt;Node7 -->
<g id="edge8_Node000001_Node000007" class="edge">
<title>Node1&#45;&gt;Node7</title>
<g id="a_edge8_Node000001_Node000007"><a xlink:title=" ">
<path fill="none" stroke="#63b8ff" d="M414.61,-237.39C434.72,-227.52 457.99,-216.1 478.31,-206.13"/>
<polygon fill="#63b8ff" stroke="#63b8ff" points="413.05,-234.26 405.62,-241.81 416.14,-240.54 413.05,-234.26"/>
</a>
</g>
</g>
<!-- Node3 -->
<g id="Node000003" class="node">
<title>Node3</title>
<g id="a_Node000003"><a xlink:href="heat__transfer_8cc.html" target="_top" xlink:title=" ">
<polygon fill="white" stroke="#666666" points="137,-41 0,-41 0,0 137,0 137,-41"/>
<text text-anchor="start" x="8" y="-29" font-family="Helvetica,sans-Serif" font-size="10.00">/home/runner/work/lethe</text>
<text text-anchor="start" x="8" y="-18" font-family="Helvetica,sans-Serif" font-size="10.00">/lethe/source/solvers</text>
<text text-anchor="middle" x="68.5" y="-7" font-family="Helvetica,sans-Serif" font-size="10.00">/heat_transfer.cc</text>
</a>
</g>
</g>
<!-- Node2&#45;&gt;Node3 -->
<g id="edge2_Node000002_Node000003" class="edge">
<title>Node2&#45;&gt;Node3</title>
<g id="a_edge2_Node000002_Node000003"><a xlink:title=" ">
<path fill="none" stroke="#63b8ff" d="M200.33,-73.27C174.02,-62.94 143.38,-50.9 118.27,-41.04"/>
<polygon fill="#63b8ff" stroke="#63b8ff" points="199.23,-76.59 209.82,-76.99 201.79,-70.08 199.23,-76.59"/>
</a>
</g>
</g>
<!-- Node4 -->
<g id="Node000004" class="node">
<title>Node4</title>
<g id="a_Node000004"><a xlink:href="heat__transfer__assemblers_8cc.html" target="_top" xlink:title=" ">
<polygon fill="white" stroke="#666666" points="477.5,-41 317.5,-41 317.5,0 477.5,0 477.5,-41"/>
<text text-anchor="start" x="325.5" y="-29" font-family="Helvetica,sans-Serif" font-size="10.00">/home/runner/work/lethe</text>
<text text-anchor="start" x="325.5" y="-18" font-family="Helvetica,sans-Serif" font-size="10.00">/lethe/source/solvers</text>
<text text-anchor="middle" x="397.5" y="-7" font-family="Helvetica,sans-Serif" font-size="10.00">/heat_transfer_assemblers.cc</text>
</a>
</g>
</g>
<!-- Node2&#45;&gt;Node4 -->
<g id="edge3_Node000002_Node000004" class="edge">
<title>Node2&#45;&gt;Node4</title>
<g id="a_edge3_Node000002_Node000004"><a xlink:title=" ">
<path fill="none" stroke="#63b8ff" d="M304.22,-72.19C322.7,-62.15 343.83,-50.67 361.3,-41.17"/>
<polygon fill="#63b8ff" stroke="#63b8ff" points="302.51,-69.14 295.4,-76.99 305.86,-75.29 302.51,-69.14"/>
</a>
</g>
</g>
<!-- Node5 -->
<g id="Node000005" class="node">
<title>Node5</title>
<g id="a_Node000005"><a xlink:href="multiphysics__interface_8cc.html" target="_top" xlink:title=" ">
<polygon fill="white" stroke="#666666" points="299.5,-41 155.5,-41 155.5,0 299.5,0 299.5,-41"/>
<text text-anchor="start" x="163.5" y="-29" font-family="Helvetica,sans-Serif" font-size="10.00">/home/runner/work/lethe</text>
<text text-anchor="start" x="163.5" y="-18" font-family="Helvetica,sans-Serif" font-size="10.00">/lethe/source/solvers</text>
<text text-anchor="middle" x="227.5" y="-7" font-family="Helvetica,sans-Serif" font-size="10.00">/multiphysics_interface.cc</text>
</a>
</g>
</g>
<!-- Node2&#45;&gt;Node5 -->
<g id="edge4_Node000002_Node000005" class="edge">
<title>Node2&#45;&gt;Node5</title>
<g id="a_edge4_Node000002_Node000005"><a xlink:title=" ">
<path fill="none" stroke="#63b8ff" d="M247.15,-67.55C243.37,-58.69 239.3,-49.15 235.85,-41.07"/>
<polygon fill="#63b8ff" stroke="#63b8ff" points="243.95,-68.97 251.09,-76.79 250.39,-66.22 243.95,-68.97"/>
</a>
</g>
</g>
<!-- Node6&#45;&gt;Node2 -->
<g id="edge6_Node000006_Node000002" class="edge">
<title>Node6&#45;&gt;Node2</title>
<g id="a_edge6_Node000006_Node000002"><a xlink:title=" ">
<path fill="none" stroke="#63b8ff" d="M331.56,-153.22C316.64,-141.9 299.41,-128.81 285.53,-118.27"/>
<polygon fill="#63b8ff" stroke="#63b8ff" points="329.49,-156.05 339.57,-159.31 333.72,-150.47 329.49,-156.05"/>
</a>
</g>
</g>
<!-- Node6&#45;&gt;Node4 -->
<g id="edge7_Node000006_Node000004" class="edge">
<title>Node6&#45;&gt;Node4</title>
<g id="a_edge7_Node000006_Node000004"><a xlink:title=" ">
<path fill="none" stroke="#63b8ff" d="M371.52,-149.39C377.94,-117.79 387.93,-68.63 393.46,-41.38"/>
<polygon fill="#63b8ff" stroke="#63b8ff" points="368.05,-148.87 369.49,-159.37 374.91,-150.27 368.05,-148.87"/>
</a>
</g>
</g>
</g>
</svg>
