<?xml version="1.0" encoding="UTF-8" standalone="no"?>
<!DOCTYPE svg PUBLIC "-//W3C//DTD SVG 1.1//EN"
 "http://www.w3.org/Graphics/SVG/1.1/DTD/svg11.dtd">
<!-- Generated by graphviz version 2.43.0 (0)
 -->
<!-- Title: /home/runner/work/lethe/lethe/include/core/ib_stencil.h Pages: 1 -->
<svg width="2024pt" height="368pt"
 viewBox="0.00 0.00 2024.23 368.00" xmlns="http://www.w3.org/2000/svg" xmlns:xlink="http://www.w3.org/1999/xlink">
<g id="graph0" class="graph" transform="scale(1 1) rotate(0) translate(4 364)">
<title>/home/runner/work/lethe/lethe/include/core/ib_stencil.h</title>
<!-- Node1 -->
<g id="Node000001" class="node">
<title>Node1</title>
<g id="a_Node000001"><a xlink:title=" ">
<polygon fill="#999999" stroke="#666666" points="1978.23,-360 1841.23,-360 1841.23,-319 1978.23,-319 1978.23,-360"/>
<text text-anchor="start" x="1849.23" y="-348" font-family="Helvetica,sans-Serif" font-size="10.00">/home/runner/work/lethe</text>
<text text-anchor="start" x="1849.23" y="-337" font-family="Helvetica,sans-Serif" font-size="10.00">/lethe/include/core/ib</text>
<text text-anchor="middle" x="1909.73" y="-326" font-family="Helvetica,sans-Serif" font-size="10.00">_stencil.h</text>
</a>
</g>
</g>
<!-- Node2 -->
<g id="Node000002" class="node">
<title>Node2</title>
<g id="a_Node000002"><a xlink:href="ib__particle_8h.html" target="_top" xlink:title=" ">
<polygon fill="white" stroke="#666666" points="1900.23,-283 1799.23,-283 1799.23,-264 1900.23,-264 1900.23,-283"/>
<text text-anchor="middle" x="1849.73" y="-271" font-family="Helvetica,sans-Serif" font-size="10.00">core/ib_particle.h</text>
</a>
</g>
</g>
<!-- Node1&#45;&gt;Node2 -->
<g id="edge1_Node000001_Node000002" class="edge">
<title>Node1&#45;&gt;Node2</title>
<g id="a_edge1_Node000001_Node000002"><a xlink:title=" ">
<path fill="none" stroke="#63b8ff" d="M1891.4,-318.95C1882.94,-309.92 1873.01,-299.33 1864.96,-290.75"/>
<polygon fill="#63b8ff" stroke="#63b8ff" points="1867.33,-288.16 1857.94,-283.26 1862.23,-292.95 1867.33,-288.16"/>
</a>
</g>
</g>
<!-- Node5 -->
<g id="Node000005" class="node">
<title>Node5</title>
<g id="a_Node000005"><a xlink:title=" ">
<polygon fill="#e0e0e0" stroke="#999999" points="2016.23,-90.5 1969.23,-90.5 1969.23,-71.5 2016.23,-71.5 2016.23,-90.5"/>
<text text-anchor="middle" x="1992.73" y="-78.5" font-family="Helvetica,sans-Serif" font-size="10.00">vector</text>
</a>
</g>
</g>
<!-- Node1&#45;&gt;Node5 -->
<g id="edge44_Node000001_Node000005" class="edge">
<title>Node1&#45;&gt;Node5</title>
<g id="a_edge44_Node000001_Node000005"><a xlink:title=" ">
<path fill="none" stroke="#63b8ff" d="M1924.87,-318.75C1947.52,-287.54 1988.54,-223.98 1997.73,-162 2000.81,-141.2 1998.51,-117.08 1996.11,-100.8"/>
<polygon fill="#63b8ff" stroke="#63b8ff" points="1999.56,-100.23 1994.49,-90.93 1992.65,-101.36 1999.56,-100.23"/>
</a>
</g>
</g>
<!-- Node3 -->
<g id="Node000003" class="node">
<title>Node3</title>
<g id="a_Node000003"><a xlink:href="dem__properties_8h.html" target="_top" xlink:title="DEM particle property definitions and output name management.">
<polygon fill="white" stroke="#666666" points="1945.73,-156.5 1819.73,-156.5 1819.73,-137.5 1945.73,-137.5 1945.73,-156.5"/>
<text text-anchor="middle" x="1882.73" y="-144.5" font-family="Helvetica,sans-Serif" font-size="10.00">core/dem_properties.h</text>
</a>
</g>
</g>
<!-- Node2&#45;&gt;Node3 -->
<g id="edge2_Node000002_Node000003" class="edge">
<title>Node2&#45;&gt;Node3</title>
<g id="a_edge2_Node000002_Node000003"><a xlink:title=" ">
<path fill="none" stroke="#63b8ff" d="M1843.42,-263.98C1833.79,-249.87 1817.58,-220.94 1827.73,-198 1834.28,-183.19 1847.63,-170.88 1859.54,-162.18"/>
<polygon fill="#63b8ff" stroke="#63b8ff" points="1861.56,-165.04 1867.83,-156.5 1857.61,-159.26 1861.56,-165.04"/>
</a>
</g>
</g>
<!-- Node2&#45;&gt;Node5 -->
<g id="edge43_Node000002_Node000005" class="edge">
<title>Node2&#45;&gt;Node5</title>
<g id="a_edge43_Node000002_Node000005"><a xlink:title=" ">
<path fill="none" stroke="#63b8ff" d="M1892.15,-263.95C1913.75,-257.51 1938.75,-246.51 1954.73,-228 1986.45,-191.26 1992.16,-131.2 1992.89,-100.84"/>
<polygon fill="#63b8ff" stroke="#63b8ff" points="1996.39,-100.79 1992.97,-90.77 1989.39,-100.74 1996.39,-100.79"/>
</a>
</g>
</g>
<!-- Node6 -->
<g id="Node000006" class="node">
<title>Node6</title>
<g id="a_Node000006"><a xlink:href="shape_8h.html" target="_top" xlink:title=" ">
<polygon fill="white" stroke="#666666" points="1022.23,-222.5 943.23,-222.5 943.23,-203.5 1022.23,-203.5 1022.23,-222.5"/>
<text text-anchor="middle" x="982.73" y="-210.5" font-family="Helvetica,sans-Serif" font-size="10.00">core/shape.h</text>
</a>
</g>
</g>
<!-- Node2&#45;&gt;Node6 -->
<g id="edge5_Node000002_Node000006" class="edge">
<title>Node2&#45;&gt;Node6</title>
<g id="a_edge5_Node000002_Node000006"><a xlink:title=" ">
<path fill="none" stroke="#63b8ff" d="M1799.05,-269.08C1645.21,-258.7 1184.83,-227.64 1032.37,-217.35"/>
<polygon fill="#63b8ff" stroke="#63b8ff" points="1032.57,-213.86 1022.36,-216.67 1032.1,-220.84 1032.57,-213.86"/>
</a>
</g>
</g>
<!-- Node8 -->
<g id="Node000008" class="node">
<title>Node8</title>
<g id="a_Node000008"><a xlink:title=" ">
<polygon fill="#e0e0e0" stroke="#999999" points="146.73,-90.5 36.73,-90.5 36.73,-71.5 146.73,-71.5 146.73,-90.5"/>
<text text-anchor="middle" x="91.73" y="-78.5" font-family="Helvetica,sans-Serif" font-size="10.00">deal.II/base/point.h</text>
</a>
</g>
</g>
<!-- Node2&#45;&gt;Node8 -->
<g id="edge42_Node000002_Node000008" class="edge">
<title>Node2&#45;&gt;Node8</title>
<g id="a_edge42_Node000002_Node000008"><a xlink:title=" ">
<path fill="none" stroke="#63b8ff" d="M1799.06,-270.44C1660.48,-264.72 1263.51,-247.75 933.73,-228 727.57,-215.66 147.48,-313.13 6.73,-162 -16.59,-136.96 27.82,-110.15 60.76,-94.8"/>
<polygon fill="#63b8ff" stroke="#63b8ff" points="62.42,-97.89 70.11,-90.6 59.55,-91.51 62.42,-97.89"/>
</a>
</g>
</g>
<!-- Node36 -->
<g id="Node000036" class="node">
<title>Node36</title>
<g id="a_Node000036"><a xlink:title=" ">
<polygon fill="#e0e0e0" stroke="#999999" points="1945.23,-228 1836.23,-228 1836.23,-198 1945.23,-198 1945.23,-228"/>
<text text-anchor="start" x="1844.23" y="-216" font-family="Helvetica,sans-Serif" font-size="10.00">deal.II/base/parsed</text>
<text text-anchor="middle" x="1890.73" y="-205" font-family="Helvetica,sans-Serif" font-size="10.00">_function.h</text>
</a>
</g>
</g>
<!-- Node2&#45;&gt;Node36 -->
<g id="edge41_Node000002_Node000036" class="edge">
<title>Node2&#45;&gt;Node36</title>
<g id="a_edge41_Node000002_Node000036"><a xlink:title=" ">
<path fill="none" stroke="#63b8ff" d="M1855.78,-263.87C1860.82,-256.67 1868.25,-246.07 1874.96,-236.49"/>
<polygon fill="#63b8ff" stroke="#63b8ff" points="1877.96,-238.31 1880.83,-228.11 1872.23,-234.29 1877.96,-238.31"/>
</a>
</g>
</g>
<!-- Node4 -->
<g id="Node000004" class="node">
<title>Node4</title>
<g id="a_Node000004"><a xlink:title=" ">
<polygon fill="#e0e0e0" stroke="#999999" points="1950.73,-90.5 1906.73,-90.5 1906.73,-71.5 1950.73,-71.5 1950.73,-90.5"/>
<text text-anchor="middle" x="1928.73" y="-78.5" font-family="Helvetica,sans-Serif" font-size="10.00">string</text>
</a>
</g>
</g>
<!-- Node3&#45;&gt;Node4 -->
<g id="edge3_Node000003_Node000004" class="edge">
<title>Node3&#45;&gt;Node4</title>
<g id="a_edge3_Node000003_Node000004"><a xlink:title=" ">
<path fill="none" stroke="#63b8ff" d="M1888.93,-137.37C1895.96,-127.59 1907.58,-111.42 1916.45,-99.08"/>
<polygon fill="#63b8ff" stroke="#63b8ff" points="1919.33,-101.07 1922.33,-90.91 1913.65,-96.98 1919.33,-101.07"/>
</a>
</g>
</g>
<!-- Node3&#45;&gt;Node5 -->
<g id="edge4_Node000003_Node000005" class="edge">
<title>Node3&#45;&gt;Node5</title>
<g id="a_edge4_Node000003_Node000005"><a xlink:title=" ">
<path fill="none" stroke="#63b8ff" d="M1897.56,-137.37C1915.85,-126.73 1947.16,-108.51 1968.85,-95.89"/>
<polygon fill="#63b8ff" stroke="#63b8ff" points="1970.89,-98.75 1977.78,-90.7 1967.37,-92.7 1970.89,-98.75"/>
</a>
</g>
</g>
<!-- Node7 -->
<g id="Node000007" class="node">
<title>Node7</title>
<g id="a_Node000007"><a xlink:href="tensors__and__points__dimension__manipulation_8h.html" target="_top" xlink:title=" ">
<polygon fill="white" stroke="#666666" points="167.73,-162 15.73,-162 15.73,-132 167.73,-132 167.73,-162"/>
<text text-anchor="start" x="23.73" y="-150" font-family="Helvetica,sans-Serif" font-size="10.00">core/tensors_and_points</text>
<text text-anchor="middle" x="91.73" y="-139" font-family="Helvetica,sans-Serif" font-size="10.00">_dimension_manipulation.h</text>
</a>
</g>
</g>
<!-- Node6&#45;&gt;Node7 -->
<g id="edge6_Node000006_Node000007" class="edge">
<title>Node6&#45;&gt;Node7</title>
<g id="a_edge6_Node000006_Node000007"><a xlink:title=" ">
<path fill="none" stroke="#63b8ff" d="M943.18,-210.97C827.24,-207.63 477.94,-195.44 178.32,-162.1"/>
<polygon fill="#63b8ff" stroke="#63b8ff" points="178.46,-158.6 168.13,-160.96 177.68,-165.55 178.46,-158.6"/>
</a>
</g>
</g>
<!-- Node10 -->
<g id="Node000010" class="node">
<title>Node10</title>
<g id="a_Node000010"><a xlink:href="core_2utilities_8h.html" target="_top" xlink:title=" ">
<polygon fill="white" stroke="#666666" points="1188.73,-156.5 1102.73,-156.5 1102.73,-137.5 1188.73,-137.5 1188.73,-156.5"/>
<text text-anchor="middle" x="1145.73" y="-144.5" font-family="Helvetica,sans-Serif" font-size="10.00">core/utilities.h</text>
</a>
</g>
</g>
<!-- Node6&#45;&gt;Node10 -->
<g id="edge9_Node000006_Node000010" class="edge">
<title>Node6&#45;&gt;Node10</title>
<g id="a_edge9_Node000006_Node000010"><a xlink:title=" ">
<path fill="none" stroke="#63b8ff" d="M1004.71,-203.37C1032.98,-192.27 1082.26,-172.92 1114.44,-160.28"/>
<polygon fill="#63b8ff" stroke="#63b8ff" points="1115.8,-163.51 1123.83,-156.6 1113.24,-156.99 1115.8,-163.51"/>
</a>
</g>
</g>
<!-- Node16 -->
<g id="Node000016" class="node">
<title>Node16</title>
<g id="a_Node000016"><a xlink:title=" ">
<polygon fill="#e0e0e0" stroke="#999999" points="512.73,-90.5 372.73,-90.5 372.73,-71.5 512.73,-71.5 512.73,-90.5"/>
<text text-anchor="middle" x="442.73" y="-78.5" font-family="Helvetica,sans-Serif" font-size="10.00">deal.II/dofs/dof_handler.h</text>
</a>
</g>
</g>
<!-- Node6&#45;&gt;Node16 -->
<g id="edge36_Node000006_Node000016" class="edge">
<title>Node6&#45;&gt;Node16</title>
<g id="a_edge36_Node000006_Node000016"><a xlink:title=" ">
<path fill="none" stroke="#63b8ff" d="M1001.01,-203.3C1029.72,-188.53 1079.74,-157.68 1055.73,-132 1015.12,-88.56 580.76,-103.2 521.73,-96 513.38,-94.98 504.57,-93.67 495.99,-92.25"/>
<polygon fill="#63b8ff" stroke="#63b8ff" points="496.51,-88.79 486.06,-90.55 495.33,-95.69 496.51,-88.79"/>
</a>
</g>
</g>
<!-- Node26 -->
<g id="Node000026" class="node">
<title>Node26</title>
<g id="a_Node000026"><a xlink:title=" ">
<polygon fill="#e0e0e0" stroke="#999999" points="1358.73,-162 1206.73,-162 1206.73,-132 1358.73,-132 1358.73,-162"/>
<text text-anchor="start" x="1214.73" y="-150" font-family="Helvetica,sans-Serif" font-size="10.00">deal.II/base/auto_derivative</text>
<text text-anchor="middle" x="1282.73" y="-139" font-family="Helvetica,sans-Serif" font-size="10.00">_function.h</text>
</a>
</g>
</g>
<!-- Node6&#45;&gt;Node26 -->
<g id="edge30_Node000006_Node000026" class="edge">
<title>Node6&#45;&gt;Node26</title>
<g id="a_edge30_Node000006_Node000026"><a xlink:title=" ">
<path fill="none" stroke="#63b8ff" d="M1022.25,-203.57C1069.11,-193.57 1148.22,-176.69 1206.99,-164.16"/>
<polygon fill="#63b8ff" stroke="#63b8ff" points="1207.93,-167.54 1216.98,-162.03 1206.47,-160.69 1207.93,-167.54"/>
</a>
</g>
</g>
<!-- Node27 -->
<g id="Node000027" class="node">
<title>Node27</title>
<g id="a_Node000027"><a xlink:title=" ">
<polygon fill="#e0e0e0" stroke="#999999" points="1502.23,-156.5 1377.23,-156.5 1377.23,-137.5 1502.23,-137.5 1502.23,-156.5"/>
<text text-anchor="middle" x="1439.73" y="-144.5" font-family="Helvetica,sans-Serif" font-size="10.00">deal.II/base/function.h</text>
</a>
</g>
</g>
<!-- Node6&#45;&gt;Node27 -->
<g id="edge31_Node000006_Node000027" class="edge">
<title>Node6&#45;&gt;Node27</title>
<g id="a_edge31_Node000006_Node000027"><a xlink:title=" ">
<path fill="none" stroke="#63b8ff" d="M1022.47,-207.67C1092.45,-199.87 1242.14,-182.34 1367.73,-162 1374.4,-160.92 1381.4,-159.68 1388.31,-158.41"/>
<polygon fill="#63b8ff" stroke="#63b8ff" points="1389.13,-161.81 1398.31,-156.52 1387.83,-154.93 1389.13,-161.81"/>
</a>
</g>
</g>
<!-- Node28 -->
<g id="Node000028" class="node">
<title>Node28</title>
<g id="a_Node000028"><a xlink:title=" ">
<polygon fill="#e0e0e0" stroke="#999999" points="1644.73,-156.5 1520.73,-156.5 1520.73,-137.5 1644.73,-137.5 1644.73,-156.5"/>
<text text-anchor="middle" x="1582.73" y="-144.5" font-family="Helvetica,sans-Serif" font-size="10.00">deal.II/grid/manifold.h</text>
</a>
</g>
</g>
<!-- Node6&#45;&gt;Node28 -->
<g id="edge32_Node000006_Node000028" class="edge">
<title>Node6&#45;&gt;Node28</title>
<g id="a_edge32_Node000006_Node000028"><a xlink:title=" ">
<path fill="none" stroke="#63b8ff" d="M1022.37,-209.62C1110.62,-204.02 1329.83,-188.46 1511.73,-162 1518.58,-161 1525.77,-159.79 1532.83,-158.49"/>
<polygon fill="#63b8ff" stroke="#63b8ff" points="1533.87,-161.86 1543.04,-156.56 1532.57,-154.98 1533.87,-161.86"/>
</a>
</g>
</g>
<!-- Node29 -->
<g id="Node000029" class="node">
<title>Node29</title>
<g id="a_Node000029"><a xlink:title=" ">
<polygon fill="#e0e0e0" stroke="#999999" points="301.23,-162 186.23,-162 186.23,-132 301.23,-132 301.23,-162"/>
<text text-anchor="start" x="194.23" y="-150" font-family="Helvetica,sans-Serif" font-size="10.00">deal.II/grid/manifold</text>
<text text-anchor="middle" x="243.73" y="-139" font-family="Helvetica,sans-Serif" font-size="10.00">_lib.h</text>
</a>
</g>
</g>
<!-- Node6&#45;&gt;Node29 -->
<g id="edge33_Node000006_Node000029" class="edge">
<title>Node6&#45;&gt;Node29</title>
<g id="a_edge33_Node000006_Node000029"><a xlink:title=" ">
<path fill="none" stroke="#63b8ff" d="M943.08,-210.92C840.27,-207.72 556.57,-196.38 311.41,-162.11"/>
<polygon fill="#63b8ff" stroke="#63b8ff" points="311.63,-158.61 301.24,-160.68 310.65,-165.54 311.63,-158.61"/>
</a>
</g>
</g>
<!-- Node30 -->
<g id="Node000030" class="node">
<title>Node30</title>
<g id="a_Node000030"><a xlink:title=" ">
<polygon fill="#e0e0e0" stroke="#999999" points="434.23,-162 319.23,-162 319.23,-132 434.23,-132 434.23,-162"/>
<text text-anchor="start" x="327.23" y="-150" font-family="Helvetica,sans-Serif" font-size="10.00">boost/range/adaptor</text>
<text text-anchor="middle" x="376.73" y="-139" font-family="Helvetica,sans-Serif" font-size="10.00">/map.hpp</text>
</a>
</g>
</g>
<!-- Node6&#45;&gt;Node30 -->
<g id="edge34_Node000006_Node000030" class="edge">
<title>Node6&#45;&gt;Node30</title>
<g id="a_edge34_Node000006_Node000030"><a xlink:title=" ">
<path fill="none" stroke="#63b8ff" d="M942.98,-209.86C854.99,-204.8 636.98,-190.42 444.42,-161.98"/>
<polygon fill="#63b8ff" stroke="#63b8ff" points="444.8,-158.5 434.4,-160.48 443.77,-165.42 444.8,-158.5"/>
</a>
</g>
</g>
<!-- Node31 -->
<g id="Node000031" class="node">
<title>Node31</title>
<g id="a_Node000031"><a xlink:title=" ">
<polygon fill="#e0e0e0" stroke="#999999" points="568.73,-162 452.73,-162 452.73,-132 568.73,-132 568.73,-162"/>
<text text-anchor="start" x="460.73" y="-150" font-family="Helvetica,sans-Serif" font-size="10.00">deal.II/base/function</text>
<text text-anchor="middle" x="510.73" y="-139" font-family="Helvetica,sans-Serif" font-size="10.00">_signed_distance.h</text>
</a>
</g>
</g>
<!-- Node6&#45;&gt;Node31 -->
<g id="edge35_Node000006_Node000031" class="edge">
<title>Node6&#45;&gt;Node31</title>
<g id="a_edge35_Node000006_Node000031"><a xlink:title=" ">
<path fill="none" stroke="#63b8ff" d="M943.19,-208.22C872.25,-201.2 718.47,-184.91 578.81,-162.09"/>
<polygon fill="#63b8ff" stroke="#63b8ff" points="579.21,-158.61 568.78,-160.44 578.07,-165.52 579.21,-158.61"/>
</a>
</g>
</g>
<!-- Node32 -->
<g id="Node000032" class="node">
<title>Node32</title>
<g id="a_Node000032"><a xlink:title=" ">
<polygon fill="#e0e0e0" stroke="#999999" points="714.73,-156.5 586.73,-156.5 586.73,-137.5 714.73,-137.5 714.73,-156.5"/>
<text text-anchor="middle" x="650.73" y="-144.5" font-family="Helvetica,sans-Serif" font-size="10.00">deal.II/dofs/dof_tools.h</text>
</a>
</g>
</g>
<!-- Node6&#45;&gt;Node32 -->
<g id="edge37_Node000006_Node000032" class="edge">
<title>Node6&#45;&gt;Node32</title>
<g id="a_edge37_Node000006_Node000032"><a xlink:title=" ">
<path fill="none" stroke="#63b8ff" d="M943.01,-204.34C883.66,-192.9 771.69,-171.32 704.89,-158.44"/>
<polygon fill="#63b8ff" stroke="#63b8ff" points="705.46,-154.99 694.97,-156.53 704.13,-161.86 705.46,-154.99"/>
</a>
</g>
</g>
<!-- Node33 -->
<g id="Node000033" class="node">
<title>Node33</title>
<g id="a_Node000033"><a xlink:title=" ">
<polygon fill="#e0e0e0" stroke="#999999" points="908.73,-156.5 732.73,-156.5 732.73,-137.5 908.73,-137.5 908.73,-156.5"/>
<text text-anchor="middle" x="820.73" y="-144.5" font-family="Helvetica,sans-Serif" font-size="10.00">deal.II/physics/transformations.h</text>
</a>
</g>
</g>
<!-- Node6&#45;&gt;Node33 -->
<g id="edge38_Node000006_Node000033" class="edge">
<title>Node6&#45;&gt;Node33</title>
<g id="a_edge38_Node000006_Node000033"><a xlink:title=" ">
<path fill="none" stroke="#63b8ff" d="M960.88,-203.37C932.78,-192.27 883.8,-172.92 851.82,-160.28"/>
<polygon fill="#63b8ff" stroke="#63b8ff" points="853.07,-157.02 842.49,-156.6 850.5,-163.53 853.07,-157.02"/>
</a>
</g>
</g>
<!-- Node34 -->
<g id="Node000034" class="node">
<title>Node34</title>
<g id="a_Node000034"><a xlink:title=" ">
<polygon fill="#e0e0e0" stroke="#999999" points="970.73,-156.5 926.73,-156.5 926.73,-137.5 970.73,-137.5 970.73,-156.5"/>
<text text-anchor="middle" x="948.73" y="-144.5" font-family="Helvetica,sans-Serif" font-size="10.00">cfloat</text>
</a>
</g>
</g>
<!-- Node6&#45;&gt;Node34 -->
<g id="edge39_Node000006_Node000034" class="edge">
<title>Node6&#45;&gt;Node34</title>
<g id="a_edge39_Node000006_Node000034"><a xlink:title=" ">
<path fill="none" stroke="#63b8ff" d="M978.14,-203.37C973.05,-193.78 964.69,-178.05 958.18,-165.8"/>
<polygon fill="#63b8ff" stroke="#63b8ff" points="961.24,-164.09 953.46,-156.91 955.06,-167.38 961.24,-164.09"/>
</a>
</g>
</g>
<!-- Node35 -->
<g id="Node000035" class="node">
<title>Node35</title>
<g id="a_Node000035"><a xlink:title=" ">
<polygon fill="#e0e0e0" stroke="#999999" points="1046.73,-156.5 988.73,-156.5 988.73,-137.5 1046.73,-137.5 1046.73,-156.5"/>
<text text-anchor="middle" x="1017.73" y="-144.5" font-family="Helvetica,sans-Serif" font-size="10.00">memory</text>
</a>
</g>
</g>
<!-- Node6&#45;&gt;Node35 -->
<g id="edge40_Node000006_Node000035" class="edge">
<title>Node6&#45;&gt;Node35</title>
<g id="a_edge40_Node000006_Node000035"><a xlink:title=" ">
<path fill="none" stroke="#63b8ff" d="M987.45,-203.37C992.69,-193.78 1001.29,-178.05 1007.99,-165.8"/>
<polygon fill="#63b8ff" stroke="#63b8ff" points="1011.13,-167.36 1012.86,-156.91 1004.99,-164 1011.13,-167.36"/>
</a>
</g>
</g>
<!-- Node7&#45;&gt;Node8 -->
<g id="edge7_Node000007_Node000008" class="edge">
<title>Node7&#45;&gt;Node8</title>
<g id="a_edge7_Node000007_Node000008"><a xlink:title=" ">
<path fill="none" stroke="#63b8ff" d="M91.73,-131.8C91.73,-122.7 91.73,-110.79 91.73,-100.9"/>
<polygon fill="#63b8ff" stroke="#63b8ff" points="95.23,-100.84 91.73,-90.84 88.23,-100.84 95.23,-100.84"/>
</a>
</g>
</g>
<!-- Node9 -->
<g id="Node000009" class="node">
<title>Node9</title>
<g id="a_Node000009"><a xlink:title=" ">
<polygon fill="#e0e0e0" stroke="#999999" points="317.23,-90.5 202.23,-90.5 202.23,-71.5 317.23,-71.5 317.23,-90.5"/>
<text text-anchor="middle" x="259.73" y="-78.5" font-family="Helvetica,sans-Serif" font-size="10.00">deal.II/base/tensor.h</text>
</a>
</g>
</g>
<!-- Node7&#45;&gt;Node9 -->
<g id="edge8_Node000007_Node000009" class="edge">
<title>Node7&#45;&gt;Node9</title>
<g id="a_edge8_Node000007_Node000009"><a xlink:title=" ">
<path fill="none" stroke="#63b8ff" d="M128.59,-131.95C158.32,-120.63 199.68,-104.88 227.95,-94.1"/>
<polygon fill="#63b8ff" stroke="#63b8ff" points="229.27,-97.35 237.37,-90.52 226.78,-90.81 229.27,-97.35"/>
</a>
</g>
</g>
<!-- Node10&#45;&gt;Node4 -->
<g id="edge27_Node000010_Node000004" class="edge">
<title>Node10&#45;&gt;Node4</title>
<g id="a_edge27_Node000010_Node000004"><a xlink:title=" ">
<path fill="none" stroke="#63b8ff" d="M1173.02,-137.49C1180.92,-135.34 1189.6,-133.29 1197.73,-132 1505.41,-83.23 1594.97,-169.38 1897.73,-96 1899.46,-95.58 1901.22,-95.06 1902.97,-94.48"/>
<polygon fill="#63b8ff" stroke="#63b8ff" points="1904.73,-97.55 1912.72,-90.59 1902.14,-91.04 1904.73,-97.55"/>
</a>
</g>
</g>
<!-- Node10&#45;&gt;Node5 -->
<g id="edge29_Node000010_Node000005" class="edge">
<title>Node10&#45;&gt;Node5</title>
<g id="a_edge29_Node000010_Node000005"><a xlink:title=" ">
<path fill="none" stroke="#63b8ff" d="M1173.02,-137.47C1180.91,-135.32 1189.6,-133.27 1197.73,-132 1532.7,-79.62 1629.17,-171.38 1959.73,-96 1961.9,-95.51 1964.1,-94.88 1966.29,-94.16"/>
<polygon fill="#63b8ff" stroke="#63b8ff" points="1967.54,-97.43 1975.64,-90.6 1965.05,-90.89 1967.54,-97.43"/>
</a>
</g>
</g>
<!-- Node10&#45;&gt;Node8 -->
<g id="edge15_Node000010_Node000008" class="edge">
<title>Node10&#45;&gt;Node8</title>
<g id="a_edge15_Node000010_Node000008"><a xlink:title=" ">
<path fill="none" stroke="#63b8ff" d="M1102.36,-138.24C1087.61,-135.87 1070.99,-133.5 1055.73,-132 673.68,-94.44 575.07,-130.39 192.73,-96 180.88,-94.93 168.3,-93.46 156.18,-91.87"/>
<polygon fill="#63b8ff" stroke="#63b8ff" points="156.51,-88.39 146.13,-90.52 155.57,-95.32 156.51,-88.39"/>
</a>
</g>
</g>
<!-- Node10&#45;&gt;Node9 -->
<g id="edge17_Node000010_Node000009" class="edge">
<title>Node10&#45;&gt;Node9</title>
<g id="a_edge17_Node000010_Node000009"><a xlink:title=" ">
<path fill="none" stroke="#63b8ff" d="M1102.36,-138.33C1087.6,-135.97 1070.98,-133.58 1055.73,-132 749.39,-100.29 670.37,-124.57 363.73,-96 351.75,-94.88 339.04,-93.41 326.76,-91.84"/>
<polygon fill="#63b8ff" stroke="#63b8ff" points="326.95,-88.34 316.58,-90.51 326.04,-95.28 326.95,-88.34"/>
</a>
</g>
</g>
<!-- Node11 -->
<g id="Node000011" class="node">
<title>Node11</title>
<g id="a_Node000011"><a xlink:href="output__struct_8h.html" target="_top" xlink:title=" ">
<polygon fill="white" stroke="#666666" points="1062.73,-90.5 948.73,-90.5 948.73,-71.5 1062.73,-71.5 1062.73,-90.5"/>
<text text-anchor="middle" x="1005.73" y="-78.5" font-family="Helvetica,sans-Serif" font-size="10.00">core/output_struct.h</text>
</a>
</g>
</g>
<!-- Node10&#45;&gt;Node11 -->
<g id="edge10_Node000010_Node000011" class="edge">
<title>Node10&#45;&gt;Node11</title>
<g id="a_edge10_Node000010_Node000011"><a xlink:title=" ">
<path fill="none" stroke="#63b8ff" d="M1126.85,-137.37C1102.94,-126.44 1061.56,-107.52 1033.91,-94.88"/>
<polygon fill="#63b8ff" stroke="#63b8ff" points="1035.31,-91.67 1024.76,-90.7 1032.4,-98.04 1035.31,-91.67"/>
</a>
</g>
</g>
<!-- Node12 -->
<g id="Node000012" class="node">
<title>Node12</title>
<g id="a_Node000012"><a xlink:title=" ">
<polygon fill="#e0e0e0" stroke="#999999" points="971.23,-30 870.23,-30 870.23,0 971.23,0 971.23,-30"/>
<text text-anchor="start" x="878.23" y="-18" font-family="Helvetica,sans-Serif" font-size="10.00">deal.II/base/table</text>
<text text-anchor="middle" x="920.73" y="-7" font-family="Helvetica,sans-Serif" font-size="10.00">_handler.h</text>
</a>
</g>
</g>
<!-- Node10&#45;&gt;Node12 -->
<g id="edge16_Node000010_Node000012" class="edge">
<title>Node10&#45;&gt;Node12</title>
<g id="a_edge16_Node000010_Node000012"><a xlink:title=" ">
<path fill="none" stroke="#63b8ff" d="M1111.07,-137.47C1103.69,-135.66 1095.95,-133.76 1088.73,-132 1022.53,-115.87 987.81,-144.27 939.73,-96 925.29,-81.51 921.06,-58.18 920.14,-40.45"/>
<polygon fill="#63b8ff" stroke="#63b8ff" points="923.63,-40.18 919.93,-30.26 916.64,-40.33 923.63,-40.18"/>
</a>
</g>
</g>
<!-- Node14 -->
<g id="Node000014" class="node">
<title>Node14</title>
<g id="a_Node000014"><a xlink:title=" ">
<polygon fill="#e0e0e0" stroke="#999999" points="1210.73,-96 1080.73,-96 1080.73,-66 1210.73,-66 1210.73,-96"/>
<text text-anchor="start" x="1088.73" y="-84" font-family="Helvetica,sans-Serif" font-size="10.00">deal.II/base/conditional</text>
<text text-anchor="middle" x="1145.73" y="-73" font-family="Helvetica,sans-Serif" font-size="10.00">_ostream.h</text>
</a>
</g>
</g>
<!-- Node10&#45;&gt;Node14 -->
<g id="edge13_Node000010_Node000014" class="edge">
<title>Node10&#45;&gt;Node14</title>
<g id="a_edge13_Node000010_Node000014"><a xlink:title=" ">
<path fill="none" stroke="#63b8ff" d="M1145.73,-137.37C1145.73,-129.49 1145.73,-117.45 1145.73,-106.6"/>
<polygon fill="#63b8ff" stroke="#63b8ff" points="1149.23,-106.36 1145.73,-96.36 1142.23,-106.36 1149.23,-106.36"/>
</a>
</g>
</g>
<!-- Node15 -->
<g id="Node000015" class="node">
<title>Node15</title>
<g id="a_Node000015"><a xlink:title=" ">
<polygon fill="#e0e0e0" stroke="#999999" points="1356.23,-96 1229.23,-96 1229.23,-66 1356.23,-66 1356.23,-96"/>
<text text-anchor="start" x="1237.23" y="-84" font-family="Helvetica,sans-Serif" font-size="10.00">deal.II/base/parameter</text>
<text text-anchor="middle" x="1292.73" y="-73" font-family="Helvetica,sans-Serif" font-size="10.00">_handler.h</text>
</a>
</g>
</g>
<!-- Node10&#45;&gt;Node15 -->
<g id="edge14_Node000010_Node000015" class="edge">
<title>Node10&#45;&gt;Node15</title>
<g id="a_edge14_Node000010_Node000015"><a xlink:title=" ">
<path fill="none" stroke="#63b8ff" d="M1165.55,-137.37C1187.38,-127.87 1223.09,-112.32 1251.12,-100.11"/>
<polygon fill="#63b8ff" stroke="#63b8ff" points="1252.53,-103.32 1260.3,-96.12 1249.74,-96.9 1252.53,-103.32"/>
</a>
</g>
</g>
<!-- Node10&#45;&gt;Node16 -->
<g id="edge18_Node000010_Node000016" class="edge">
<title>Node10&#45;&gt;Node16</title>
<g id="a_edge18_Node000010_Node000016"><a xlink:title=" ">
<path fill="none" stroke="#63b8ff" d="M1115.16,-137.44C1106.66,-135.34 1097.39,-133.33 1088.73,-132 839.14,-93.73 772.44,-126.08 521.73,-96 513.28,-94.99 504.36,-93.66 495.68,-92.23"/>
<polygon fill="#63b8ff" stroke="#63b8ff" points="496.09,-88.75 485.65,-90.51 494.91,-95.64 496.09,-88.75"/>
</a>
</g>
</g>
<!-- Node17 -->
<g id="Node000017" class="node">
<title>Node17</title>
<g id="a_Node000017"><a xlink:title=" ">
<polygon fill="#e0e0e0" stroke="#999999" points="1493.23,-90.5 1374.23,-90.5 1374.23,-71.5 1493.23,-71.5 1493.23,-90.5"/>
<text text-anchor="middle" x="1433.73" y="-78.5" font-family="Helvetica,sans-Serif" font-size="10.00">deal.II/fe/fe_values.h</text>
</a>
</g>
</g>
<!-- Node10&#45;&gt;Node17 -->
<g id="edge19_Node000010_Node000017" class="edge">
<title>Node10&#45;&gt;Node17</title>
<g id="a_edge19_Node000010_Node000017"><a xlink:title=" ">
<path fill="none" stroke="#63b8ff" d="M1176.45,-137.43C1183.43,-135.57 1190.82,-133.66 1197.73,-132 1215.53,-127.72 1319.16,-105.95 1383.03,-92.59"/>
<polygon fill="#63b8ff" stroke="#63b8ff" points="1383.85,-95.99 1392.92,-90.52 1382.42,-89.14 1383.85,-95.99"/>
</a>
</g>
</g>
<!-- Node18 -->
<g id="Node000018" class="node">
<title>Node18</title>
<g id="a_Node000018"><a xlink:title=" ">
<polygon fill="#e0e0e0" stroke="#999999" points="1642.23,-96 1511.23,-96 1511.23,-66 1642.23,-66 1642.23,-96"/>
<text text-anchor="start" x="1519.23" y="-84" font-family="Helvetica,sans-Serif" font-size="10.00">deal.II/particles/particle</text>
<text text-anchor="middle" x="1576.73" y="-73" font-family="Helvetica,sans-Serif" font-size="10.00">_iterator.h</text>
</a>
</g>
</g>
<!-- Node10&#45;&gt;Node18 -->
<g id="edge20_Node000010_Node000018" class="edge">
<title>Node10&#45;&gt;Node18</title>
<g id="a_edge20_Node000010_Node000018"><a xlink:title=" ">
<path fill="none" stroke="#63b8ff" d="M1174.43,-137.47C1181.96,-135.45 1190.11,-133.47 1197.73,-132 1328.62,-106.79 1366.07,-116.23 1501.11,-96.18"/>
<polygon fill="#63b8ff" stroke="#63b8ff" points="1501.64,-99.64 1511,-94.68 1500.59,-92.71 1501.64,-99.64"/>
</a>
</g>
</g>
<!-- Node19 -->
<g id="Node000019" class="node">
<title>Node19</title>
<g id="a_Node000019"><a xlink:title=" ">
<polygon fill="#e0e0e0" stroke="#999999" points="1765.23,-96 1660.23,-96 1660.23,-66 1765.23,-66 1765.23,-96"/>
<text text-anchor="start" x="1668.23" y="-84" font-family="Helvetica,sans-Serif" font-size="10.00">boost/archive/text</text>
<text text-anchor="middle" x="1712.73" y="-73" font-family="Helvetica,sans-Serif" font-size="10.00">_iarchive.hpp</text>
</a>
</g>
</g>
<!-- Node10&#45;&gt;Node19 -->
<g id="edge21_Node000010_Node000019" class="edge">
<title>Node10&#45;&gt;Node19</title>
<g id="a_edge21_Node000010_Node000019"><a xlink:title=" ">
<path fill="none" stroke="#63b8ff" d="M1173.58,-137.49C1181.34,-135.4 1189.8,-133.37 1197.73,-132 1393.97,-98.1 1449.87,-125.8 1649.97,-96.12"/>
<polygon fill="#63b8ff" stroke="#63b8ff" points="1650.55,-99.57 1659.92,-94.62 1649.51,-92.65 1650.55,-99.57"/>
</a>
</g>
</g>
<!-- Node20 -->
<g id="Node000020" class="node">
<title>Node20</title>
<g id="a_Node000020"><a xlink:title=" ">
<polygon fill="#e0e0e0" stroke="#999999" points="1888.23,-96 1783.23,-96 1783.23,-66 1888.23,-66 1888.23,-96"/>
<text text-anchor="start" x="1791.23" y="-84" font-family="Helvetica,sans-Serif" font-size="10.00">boost/archive/text</text>
<text text-anchor="middle" x="1835.73" y="-73" font-family="Helvetica,sans-Serif" font-size="10.00">_oarchive.hpp</text>
</a>
</g>
</g>
<!-- Node10&#45;&gt;Node20 -->
<g id="edge22_Node000010_Node000020" class="edge">
<title>Node10&#45;&gt;Node20</title>
<g id="a_edge22_Node000010_Node000020"><a xlink:title=" ">
<path fill="none" stroke="#63b8ff" d="M1173.3,-137.47C1181.12,-135.36 1189.7,-133.32 1197.73,-132 1448.06,-90.92 1518.66,-131.8 1773.02,-96.09"/>
<polygon fill="#63b8ff" stroke="#63b8ff" points="1773.52,-99.55 1782.92,-94.67 1772.53,-92.62 1773.52,-99.55"/>
</a>
</g>
</g>
<!-- Node21 -->
<g id="Node000021" class="node">
<title>Node21</title>
<g id="a_Node000021"><a xlink:title=" ">
<polygon fill="#e0e0e0" stroke="#999999" points="640.73,-96 530.73,-96 530.73,-66 640.73,-66 640.73,-96"/>
<text text-anchor="start" x="538.73" y="-84" font-family="Helvetica,sans-Serif" font-size="10.00">boost/math/special</text>
<text text-anchor="middle" x="585.73" y="-73" font-family="Helvetica,sans-Serif" font-size="10.00">_functions/erf.hpp</text>
</a>
</g>
</g>
<!-- Node10&#45;&gt;Node21 -->
<g id="edge23_Node000010_Node000021" class="edge">
<title>Node10&#45;&gt;Node21</title>
<g id="a_edge23_Node000010_Node000021"><a xlink:title=" ">
<path fill="none" stroke="#63b8ff" d="M1114.85,-137.47C1106.43,-135.4 1097.28,-133.39 1088.73,-132 898.71,-101.08 845.11,-124.19 650.76,-96.01"/>
<polygon fill="#63b8ff" stroke="#63b8ff" points="651.2,-92.53 640.8,-94.54 650.18,-99.46 651.2,-92.53"/>
</a>
</g>
</g>
<!-- Node22 -->
<g id="Node000022" class="node">
<title>Node22</title>
<g id="a_Node000022"><a xlink:title=" ">
<polygon fill="#e0e0e0" stroke="#999999" points="714.23,-90.5 659.23,-90.5 659.23,-71.5 714.23,-71.5 714.23,-90.5"/>
<text text-anchor="middle" x="686.73" y="-78.5" font-family="Helvetica,sans-Serif" font-size="10.00">fstream</text>
</a>
</g>
</g>
<!-- Node10&#45;&gt;Node22 -->
<g id="edge24_Node000010_Node000022" class="edge">
<title>Node10&#45;&gt;Node22</title>
<g id="a_edge24_Node000010_Node000022"><a xlink:title=" ">
<path fill="none" stroke="#63b8ff" d="M1114.54,-137.49C1106.2,-135.45 1097.16,-133.44 1088.73,-132 928.06,-104.49 882.44,-133.17 723.73,-96 721.21,-95.41 718.63,-94.69 716.07,-93.9"/>
<polygon fill="#63b8ff" stroke="#63b8ff" points="716.99,-90.51 706.4,-90.54 714.7,-97.12 716.99,-90.51"/>
</a>
</g>
</g>
<!-- Node23 -->
<g id="Node000023" class="node">
<title>Node23</title>
<g id="a_Node000023"><a xlink:title=" ">
<polygon fill="#e0e0e0" stroke="#999999" points="770.73,-90.5 732.73,-90.5 732.73,-71.5 770.73,-71.5 770.73,-90.5"/>
<text text-anchor="middle" x="751.73" y="-78.5" font-family="Helvetica,sans-Serif" font-size="10.00">map</text>
</a>
</g>
</g>
<!-- Node10&#45;&gt;Node23 -->
<g id="edge25_Node000010_Node000023" class="edge">
<title>Node10&#45;&gt;Node23</title>
<g id="a_edge25_Node000010_Node000023"><a xlink:title=" ">
<path fill="none" stroke="#63b8ff" d="M1113.92,-137.44C1105.75,-135.45 1096.95,-133.48 1088.73,-132 952.66,-107.46 912.22,-135.51 779.73,-96 778.47,-95.62 777.2,-95.19 775.93,-94.72"/>
<polygon fill="#63b8ff" stroke="#63b8ff" points="777.01,-91.38 766.44,-90.55 774.19,-97.78 777.01,-91.38"/>
</a>
</g>
</g>
<!-- Node24 -->
<g id="Node000024" class="node">
<title>Node24</title>
<g id="a_Node000024"><a xlink:title=" ">
<polygon fill="#e0e0e0" stroke="#999999" points="832.73,-90.5 788.73,-90.5 788.73,-71.5 832.73,-71.5 832.73,-90.5"/>
<text text-anchor="middle" x="810.73" y="-78.5" font-family="Helvetica,sans-Serif" font-size="10.00">regex</text>
</a>
</g>
</g>
<!-- Node10&#45;&gt;Node24 -->
<g id="edge26_Node000010_Node000024" class="edge">
<title>Node10&#45;&gt;Node24</title>
<g id="a_edge26_Node000010_Node000024"><a xlink:title=" ">
<path fill="none" stroke="#63b8ff" d="M1113.29,-137.46C1105.29,-135.51 1096.73,-133.56 1088.73,-132 979.84,-110.74 948.21,-127.13 841.73,-96 840.09,-95.52 838.43,-94.97 836.77,-94.38"/>
<polygon fill="#63b8ff" stroke="#63b8ff" points="838.04,-91.11 827.46,-90.58 835.4,-97.6 838.04,-91.11"/>
</a>
</g>
</g>
<!-- Node25 -->
<g id="Node000025" class="node">
<title>Node25</title>
<g id="a_Node000025"><a xlink:title=" ">
<polygon fill="#e0e0e0" stroke="#999999" points="892.23,-90.5 851.23,-90.5 851.23,-71.5 892.23,-71.5 892.23,-90.5"/>
<text text-anchor="middle" x="871.73" y="-78.5" font-family="Helvetica,sans-Serif" font-size="10.00">tuple</text>
</a>
</g>
</g>
<!-- Node10&#45;&gt;Node25 -->
<g id="edge28_Node000010_Node000025" class="edge">
<title>Node10&#45;&gt;Node25</title>
<g id="a_edge28_Node000010_Node000025"><a xlink:title=" ">
<path fill="none" stroke="#63b8ff" d="M1112.03,-137.45C1104.38,-135.59 1096.29,-133.68 1088.73,-132 1008.22,-114.16 985.79,-119.41 906.73,-96 904.84,-95.44 902.92,-94.82 901,-94.16"/>
<polygon fill="#63b8ff" stroke="#63b8ff" points="902.08,-90.84 891.49,-90.65 899.65,-97.4 902.08,-90.84"/>
</a>
</g>
</g>
<!-- Node11&#45;&gt;Node12 -->
<g id="edge11_Node000011_Node000012" class="edge">
<title>Node11&#45;&gt;Node12</title>
<g id="a_edge11_Node000011_Node000012"><a xlink:title=" ">
<path fill="none" stroke="#63b8ff" d="M994.26,-71.37C982.41,-62.44 963.48,-48.19 947.79,-36.38"/>
<polygon fill="#63b8ff" stroke="#63b8ff" points="949.57,-33.33 939.47,-30.12 945.36,-38.93 949.57,-33.33"/>
</a>
</g>
</g>
<!-- Node13 -->
<g id="Node000013" class="node">
<title>Node13</title>
<g id="a_Node000013"><a xlink:title=" ">
<polygon fill="#e0e0e0" stroke="#999999" points="1108.23,-30 989.23,-30 989.23,0 1108.23,0 1108.23,-30"/>
<text text-anchor="start" x="997.23" y="-18" font-family="Helvetica,sans-Serif" font-size="10.00">deal.II/numerics/data</text>
<text text-anchor="middle" x="1048.73" y="-7" font-family="Helvetica,sans-Serif" font-size="10.00">_postprocessor.h</text>
</a>
</g>
</g>
<!-- Node11&#45;&gt;Node13 -->
<g id="edge12_Node000011_Node000013" class="edge">
<title>Node11&#45;&gt;Node13</title>
<g id="a_edge12_Node000011_Node000013"><a xlink:title=" ">
<path fill="none" stroke="#63b8ff" d="M1011.53,-71.37C1017.1,-63.08 1025.76,-50.18 1033.33,-38.92"/>
<polygon fill="#63b8ff" stroke="#63b8ff" points="1036.41,-40.61 1039.08,-30.36 1030.6,-36.71 1036.41,-40.61"/>
</a>
</g>
</g>
</g>
</svg>
