<?xml version="1.0" encoding="UTF-8" standalone="no"?>
<!DOCTYPE svg PUBLIC "-//W3C//DTD SVG 1.1//EN"
 "http://www.w3.org/Graphics/SVG/1.1/DTD/svg11.dtd">
<!-- Generated by graphviz version 2.43.0 (0)
 -->
<!-- Title: /home/runner/work/lethe/lethe/include/core/ib_particle.h Pages: 1 -->
<svg width="2123pt" height="313pt"
 viewBox="0.00 0.00 2123.00 313.00" xmlns="http://www.w3.org/2000/svg" xmlns:xlink="http://www.w3.org/1999/xlink">
<g id="graph0" class="graph" transform="scale(1 1) rotate(0) translate(4 309)">
<title>/home/runner/work/lethe/lethe/include/core/ib_particle.h</title>
<!-- Node1 -->
<g id="Node000001" class="node">
<title>Node1</title>
<g id="a_Node000001"><a xlink:title=" ">
<polygon fill="#999999" stroke="#666666" points="1085,-305 948,-305 948,-264 1085,-264 1085,-305"/>
<text text-anchor="start" x="956" y="-293" font-family="Helvetica,sans-Serif" font-size="10.00">/home/runner/work/lethe</text>
<text text-anchor="start" x="956" y="-282" font-family="Helvetica,sans-Serif" font-size="10.00">/lethe/include/core/ib</text>
<text text-anchor="middle" x="1016.5" y="-271" font-family="Helvetica,sans-Serif" font-size="10.00">_particle.h</text>
</a>
</g>
</g>
<!-- Node2 -->
<g id="Node000002" class="node">
<title>Node2</title>
<g id="a_Node000002"><a xlink:href="dem__properties_8h.html" target="_top" xlink:title="DEM particle property definitions and output name management.">
<polygon fill="white" stroke="#666666" points="177.5,-156.5 51.5,-156.5 51.5,-137.5 177.5,-137.5 177.5,-156.5"/>
<text text-anchor="middle" x="114.5" y="-144.5" font-family="Helvetica,sans-Serif" font-size="10.00">core/dem_properties.h</text>
</a>
</g>
</g>
<!-- Node1&#45;&gt;Node2 -->
<g id="edge1_Node000001_Node000002" class="edge">
<title>Node1&#45;&gt;Node2</title>
<g id="a_edge1_Node000001_Node000002"><a xlink:title=" ">
<path fill="none" stroke="#63b8ff" d="M947.96,-273.2C779.64,-247.92 347.55,-183.01 181.18,-158.02"/>
<polygon fill="#63b8ff" stroke="#63b8ff" points="181.5,-154.53 171.09,-156.5 180.46,-161.45 181.5,-154.53"/>
</a>
</g>
</g>
<!-- Node4 -->
<g id="Node000004" class="node">
<title>Node4</title>
<g id="a_Node000004"><a xlink:title=" ">
<polygon fill="#e0e0e0" stroke="#999999" points="47,-90.5 0,-90.5 0,-71.5 47,-71.5 47,-90.5"/>
<text text-anchor="middle" x="23.5" y="-78.5" font-family="Helvetica,sans-Serif" font-size="10.00">vector</text>
</a>
</g>
</g>
<!-- Node1&#45;&gt;Node4 -->
<g id="edge42_Node000001_Node000004" class="edge">
<title>Node1&#45;&gt;Node4</title>
<g id="a_edge42_Node000001_Node000004"><a xlink:title=" ">
<path fill="none" stroke="#63b8ff" d="M947.81,-279.53C736.9,-266.7 108.88,-223.64 42.5,-162 25.78,-146.47 22.53,-119.15 22.45,-100.81"/>
<polygon fill="#63b8ff" stroke="#63b8ff" points="25.95,-100.83 22.72,-90.74 18.95,-100.65 25.95,-100.83"/>
</a>
</g>
</g>
<!-- Node5 -->
<g id="Node000005" class="node">
<title>Node5</title>
<g id="a_Node000005"><a xlink:href="shape_8h.html" target="_top" xlink:title=" ">
<polygon fill="white" stroke="#666666" points="1056,-222.5 977,-222.5 977,-203.5 1056,-203.5 1056,-222.5"/>
<text text-anchor="middle" x="1016.5" y="-210.5" font-family="Helvetica,sans-Serif" font-size="10.00">core/shape.h</text>
</a>
</g>
</g>
<!-- Node1&#45;&gt;Node5 -->
<g id="edge4_Node000001_Node000005" class="edge">
<title>Node1&#45;&gt;Node5</title>
<g id="a_edge4_Node000001_Node000005"><a xlink:title=" ">
<path fill="none" stroke="#63b8ff" d="M1016.5,-263.77C1016.5,-254.08 1016.5,-242.46 1016.5,-232.88"/>
<polygon fill="#63b8ff" stroke="#63b8ff" points="1020,-232.82 1016.5,-222.82 1013,-232.82 1020,-232.82"/>
</a>
</g>
</g>
<!-- Node7 -->
<g id="Node000007" class="node">
<title>Node7</title>
<g id="a_Node000007"><a xlink:title=" ">
<polygon fill="#e0e0e0" stroke="#999999" points="1904.5,-90.5 1794.5,-90.5 1794.5,-71.5 1904.5,-71.5 1904.5,-90.5"/>
<text text-anchor="middle" x="1849.5" y="-78.5" font-family="Helvetica,sans-Serif" font-size="10.00">deal.II/base/point.h</text>
</a>
</g>
</g>
<!-- Node1&#45;&gt;Node7 -->
<g id="edge41_Node000001_Node000007" class="edge">
<title>Node1&#45;&gt;Node7</title>
<g id="a_edge41_Node000001_Node000007"><a xlink:title=" ">
<path fill="none" stroke="#63b8ff" d="M1085.3,-279.78C1292.65,-267.88 1900.79,-227.63 1958.5,-162 1984.33,-132.62 1930.35,-107.59 1889.51,-93.7"/>
<polygon fill="#63b8ff" stroke="#63b8ff" points="1890.59,-90.37 1879.99,-90.58 1888.4,-97.02 1890.59,-90.37"/>
</a>
</g>
</g>
<!-- Node35 -->
<g id="Node000035" class="node">
<title>Node35</title>
<g id="a_Node000035"><a xlink:title=" ">
<polygon fill="#e0e0e0" stroke="#999999" points="2115,-228 2006,-228 2006,-198 2115,-198 2115,-228"/>
<text text-anchor="start" x="2014" y="-216" font-family="Helvetica,sans-Serif" font-size="10.00">deal.II/base/parsed</text>
<text text-anchor="middle" x="2060.5" y="-205" font-family="Helvetica,sans-Serif" font-size="10.00">_function.h</text>
</a>
</g>
</g>
<!-- Node1&#45;&gt;Node35 -->
<g id="edge40_Node000001_Node000035" class="edge">
<title>Node1&#45;&gt;Node35</title>
<g id="a_edge40_Node000001_Node000035"><a xlink:title=" ">
<path fill="none" stroke="#63b8ff" d="M1085.08,-282.97C1244.71,-280.99 1653.32,-271.7 1991.5,-228 1992.8,-227.83 1994.1,-227.65 1995.42,-227.47"/>
<polygon fill="#63b8ff" stroke="#63b8ff" points="1996.29,-230.87 2005.63,-225.87 1995.21,-223.96 1996.29,-230.87"/>
</a>
</g>
</g>
<!-- Node3 -->
<g id="Node000003" class="node">
<title>Node3</title>
<g id="a_Node000003"><a xlink:title=" ">
<polygon fill="#e0e0e0" stroke="#999999" points="109.5,-90.5 65.5,-90.5 65.5,-71.5 109.5,-71.5 109.5,-90.5"/>
<text text-anchor="middle" x="87.5" y="-78.5" font-family="Helvetica,sans-Serif" font-size="10.00">string</text>
</a>
</g>
</g>
<!-- Node2&#45;&gt;Node3 -->
<g id="edge2_Node000002_Node000003" class="edge">
<title>Node2&#45;&gt;Node3</title>
<g id="a_edge2_Node000002_Node000003"><a xlink:title=" ">
<path fill="none" stroke="#63b8ff" d="M110.86,-137.37C106.86,-127.88 100.31,-112.36 95.16,-100.16"/>
<polygon fill="#63b8ff" stroke="#63b8ff" points="98.37,-98.76 91.26,-90.91 91.92,-101.48 98.37,-98.76"/>
</a>
</g>
</g>
<!-- Node2&#45;&gt;Node4 -->
<g id="edge3_Node000002_Node000004" class="edge">
<title>Node2&#45;&gt;Node4</title>
<g id="a_edge3_Node000002_Node000004"><a xlink:title=" ">
<path fill="none" stroke="#63b8ff" d="M102.23,-137.37C87.44,-126.97 62.35,-109.32 44.47,-96.75"/>
<polygon fill="#63b8ff" stroke="#63b8ff" points="46.06,-93.59 35.87,-90.7 42.04,-99.31 46.06,-93.59"/>
</a>
</g>
</g>
<!-- Node6 -->
<g id="Node000006" class="node">
<title>Node6</title>
<g id="a_Node000006"><a xlink:href="tensors__and__points__dimension__manipulation_8h.html" target="_top" xlink:title=" ">
<polygon fill="white" stroke="#666666" points="1092.5,-162 940.5,-162 940.5,-132 1092.5,-132 1092.5,-162"/>
<text text-anchor="start" x="948.5" y="-150" font-family="Helvetica,sans-Serif" font-size="10.00">core/tensors_and_points</text>
<text text-anchor="middle" x="1016.5" y="-139" font-family="Helvetica,sans-Serif" font-size="10.00">_dimension_manipulation.h</text>
</a>
</g>
</g>
<!-- Node5&#45;&gt;Node6 -->
<g id="edge5_Node000005_Node000006" class="edge">
<title>Node5&#45;&gt;Node6</title>
<g id="a_edge5_Node000005_Node000006"><a xlink:title=" ">
<path fill="none" stroke="#63b8ff" d="M1016.5,-203.37C1016.5,-195.49 1016.5,-183.45 1016.5,-172.6"/>
<polygon fill="#63b8ff" stroke="#63b8ff" points="1020,-172.36 1016.5,-162.36 1013,-172.36 1020,-172.36"/>
</a>
</g>
</g>
<!-- Node9 -->
<g id="Node000009" class="node">
<title>Node9</title>
<g id="a_Node000009"><a xlink:href="utilities_8h.html" target="_top" xlink:title=" ">
<polygon fill="white" stroke="#666666" points="922.5,-156.5 836.5,-156.5 836.5,-137.5 922.5,-137.5 922.5,-156.5"/>
<text text-anchor="middle" x="879.5" y="-144.5" font-family="Helvetica,sans-Serif" font-size="10.00">core/utilities.h</text>
</a>
</g>
</g>
<!-- Node5&#45;&gt;Node9 -->
<g id="edge8_Node000005_Node000009" class="edge">
<title>Node5&#45;&gt;Node9</title>
<g id="a_edge8_Node000005_Node000009"><a xlink:title=" ">
<path fill="none" stroke="#63b8ff" d="M998.02,-203.37C974.74,-192.49 934.49,-173.69 907.44,-161.05"/>
<polygon fill="#63b8ff" stroke="#63b8ff" points="908.66,-157.76 898.12,-156.7 905.7,-164.1 908.66,-157.76"/>
</a>
</g>
</g>
<!-- Node15 -->
<g id="Node000015" class="node">
<title>Node15</title>
<g id="a_Node000015"><a xlink:title=" ">
<polygon fill="#e0e0e0" stroke="#999999" points="267.5,-90.5 127.5,-90.5 127.5,-71.5 267.5,-71.5 267.5,-90.5"/>
<text text-anchor="middle" x="197.5" y="-78.5" font-family="Helvetica,sans-Serif" font-size="10.00">deal.II/dofs/dof_handler.h</text>
</a>
</g>
</g>
<!-- Node5&#45;&gt;Node15 -->
<g id="edge35_Node000005_Node000015" class="edge">
<title>Node5&#45;&gt;Node15</title>
<g id="a_edge35_Node000005_Node000015"><a xlink:title=" ">
<path fill="none" stroke="#63b8ff" d="M976.82,-206.36C937.38,-199.65 875.93,-186.2 827.5,-162 808.25,-152.38 809.56,-139.79 789.5,-132 686.69,-92.07 404.15,-107.88 294.5,-96 283.88,-94.85 272.64,-93.42 261.71,-91.92"/>
<polygon fill="#63b8ff" stroke="#63b8ff" points="262.18,-88.45 251.8,-90.53 261.21,-95.38 262.18,-88.45"/>
</a>
</g>
</g>
<!-- Node25 -->
<g id="Node000025" class="node">
<title>Node25</title>
<g id="a_Node000025"><a xlink:title=" ">
<polygon fill="#e0e0e0" stroke="#999999" points="1262.5,-162 1110.5,-162 1110.5,-132 1262.5,-132 1262.5,-162"/>
<text text-anchor="start" x="1118.5" y="-150" font-family="Helvetica,sans-Serif" font-size="10.00">deal.II/base/auto_derivative</text>
<text text-anchor="middle" x="1186.5" y="-139" font-family="Helvetica,sans-Serif" font-size="10.00">_function.h</text>
</a>
</g>
</g>
<!-- Node5&#45;&gt;Node25 -->
<g id="edge29_Node000005_Node000025" class="edge">
<title>Node5&#45;&gt;Node25</title>
<g id="a_edge29_Node000005_Node000025"><a xlink:title=" ">
<path fill="none" stroke="#63b8ff" d="M1039.43,-203.37C1064.89,-193.78 1106.69,-178.05 1139.23,-165.8"/>
<polygon fill="#63b8ff" stroke="#63b8ff" points="1140.88,-168.91 1149.01,-162.12 1138.41,-162.36 1140.88,-168.91"/>
</a>
</g>
</g>
<!-- Node26 -->
<g id="Node000026" class="node">
<title>Node26</title>
<g id="a_Node000026"><a xlink:title=" ">
<polygon fill="#e0e0e0" stroke="#999999" points="1406,-156.5 1281,-156.5 1281,-137.5 1406,-137.5 1406,-156.5"/>
<text text-anchor="middle" x="1343.5" y="-144.5" font-family="Helvetica,sans-Serif" font-size="10.00">deal.II/base/function.h</text>
</a>
</g>
</g>
<!-- Node5&#45;&gt;Node26 -->
<g id="edge30_Node000005_Node000026" class="edge">
<title>Node5&#45;&gt;Node26</title>
<g id="a_edge30_Node000005_Node000026"><a xlink:title=" ">
<path fill="none" stroke="#63b8ff" d="M1056.27,-204.22C1114.76,-192.77 1224.11,-171.37 1289.71,-158.53"/>
<polygon fill="#63b8ff" stroke="#63b8ff" points="1290.71,-161.9 1299.85,-156.54 1289.36,-155.03 1290.71,-161.9"/>
</a>
</g>
</g>
<!-- Node27 -->
<g id="Node000027" class="node">
<title>Node27</title>
<g id="a_Node000027"><a xlink:title=" ">
<polygon fill="#e0e0e0" stroke="#999999" points="1548.5,-156.5 1424.5,-156.5 1424.5,-137.5 1548.5,-137.5 1548.5,-156.5"/>
<text text-anchor="middle" x="1486.5" y="-144.5" font-family="Helvetica,sans-Serif" font-size="10.00">deal.II/grid/manifold.h</text>
</a>
</g>
</g>
<!-- Node5&#45;&gt;Node27 -->
<g id="edge31_Node000005_Node000027" class="edge">
<title>Node5&#45;&gt;Node27</title>
<g id="a_edge31_Node000005_Node000027"><a xlink:title=" ">
<path fill="none" stroke="#63b8ff" d="M1056.27,-207.95C1128.19,-200.42 1284.54,-183.09 1415.5,-162 1422.08,-160.94 1428.99,-159.72 1435.8,-158.45"/>
<polygon fill="#63b8ff" stroke="#63b8ff" points="1436.5,-161.88 1445.66,-156.56 1435.18,-155 1436.5,-161.88"/>
</a>
</g>
</g>
<!-- Node28 -->
<g id="Node000028" class="node">
<title>Node28</title>
<g id="a_Node000028"><a xlink:title=" ">
<polygon fill="#e0e0e0" stroke="#999999" points="1682,-162 1567,-162 1567,-132 1682,-132 1682,-162"/>
<text text-anchor="start" x="1575" y="-150" font-family="Helvetica,sans-Serif" font-size="10.00">deal.II/grid/manifold</text>
<text text-anchor="middle" x="1624.5" y="-139" font-family="Helvetica,sans-Serif" font-size="10.00">_lib.h</text>
</a>
</g>
</g>
<!-- Node5&#45;&gt;Node28 -->
<g id="edge32_Node000005_Node000028" class="edge">
<title>Node5&#45;&gt;Node28</title>
<g id="a_edge32_Node000005_Node000028"><a xlink:title=" ">
<path fill="none" stroke="#63b8ff" d="M1056.06,-209.89C1144.15,-204.86 1363.28,-190.52 1556.76,-161.99"/>
<polygon fill="#63b8ff" stroke="#63b8ff" points="1557.46,-165.42 1566.83,-160.48 1556.42,-158.5 1557.46,-165.42"/>
</a>
</g>
</g>
<!-- Node29 -->
<g id="Node000029" class="node">
<title>Node29</title>
<g id="a_Node000029"><a xlink:title=" ">
<polygon fill="#e0e0e0" stroke="#999999" points="1815,-162 1700,-162 1700,-132 1815,-132 1815,-162"/>
<text text-anchor="start" x="1708" y="-150" font-family="Helvetica,sans-Serif" font-size="10.00">boost/range/adaptor</text>
<text text-anchor="middle" x="1757.5" y="-139" font-family="Helvetica,sans-Serif" font-size="10.00">/map.hpp</text>
</a>
</g>
</g>
<!-- Node5&#45;&gt;Node29 -->
<g id="edge33_Node000005_Node000029" class="edge">
<title>Node5&#45;&gt;Node29</title>
<g id="a_edge33_Node000005_Node000029"><a xlink:title=" ">
<path fill="none" stroke="#63b8ff" d="M1056.26,-210.93C1159.38,-207.75 1443.93,-196.45 1689.79,-162.12"/>
<polygon fill="#63b8ff" stroke="#63b8ff" points="1690.58,-165.54 1699.99,-160.68 1689.6,-158.61 1690.58,-165.54"/>
</a>
</g>
</g>
<!-- Node30 -->
<g id="Node000030" class="node">
<title>Node30</title>
<g id="a_Node000030"><a xlink:title=" ">
<polygon fill="#e0e0e0" stroke="#999999" points="1949.5,-162 1833.5,-162 1833.5,-132 1949.5,-132 1949.5,-162"/>
<text text-anchor="start" x="1841.5" y="-150" font-family="Helvetica,sans-Serif" font-size="10.00">deal.II/base/function</text>
<text text-anchor="middle" x="1891.5" y="-139" font-family="Helvetica,sans-Serif" font-size="10.00">_signed_distance.h</text>
</a>
</g>
</g>
<!-- Node5&#45;&gt;Node30 -->
<g id="edge34_Node000005_Node000030" class="edge">
<title>Node5&#45;&gt;Node30</title>
<g id="a_edge34_Node000005_Node000030"><a xlink:title=" ">
<path fill="none" stroke="#63b8ff" d="M1056.21,-211.57C1172.65,-209.86 1523.3,-201.68 1823.28,-162.02"/>
<polygon fill="#63b8ff" stroke="#63b8ff" points="1824.04,-165.45 1833.48,-160.66 1823.11,-158.51 1824.04,-165.45"/>
</a>
</g>
</g>
<!-- Node31 -->
<g id="Node000031" class="node">
<title>Node31</title>
<g id="a_Node000031"><a xlink:title=" ">
<polygon fill="#e0e0e0" stroke="#999999" points="448.5,-156.5 320.5,-156.5 320.5,-137.5 448.5,-137.5 448.5,-156.5"/>
<text text-anchor="middle" x="384.5" y="-144.5" font-family="Helvetica,sans-Serif" font-size="10.00">deal.II/dofs/dof_tools.h</text>
</a>
</g>
</g>
<!-- Node5&#45;&gt;Node31 -->
<g id="edge36_Node000005_Node000031" class="edge">
<title>Node5&#45;&gt;Node31</title>
<g id="a_edge36_Node000005_Node000031"><a xlink:title=" ">
<path fill="none" stroke="#63b8ff" d="M976.69,-209.81C884.86,-204.47 651.21,-189.17 457.5,-162 450.12,-160.97 442.37,-159.69 434.77,-158.32"/>
<polygon fill="#63b8ff" stroke="#63b8ff" points="435.39,-154.88 424.92,-156.5 434.12,-161.76 435.39,-154.88"/>
</a>
</g>
</g>
<!-- Node32 -->
<g id="Node000032" class="node">
<title>Node32</title>
<g id="a_Node000032"><a xlink:title=" ">
<polygon fill="#e0e0e0" stroke="#999999" points="642.5,-156.5 466.5,-156.5 466.5,-137.5 642.5,-137.5 642.5,-156.5"/>
<text text-anchor="middle" x="554.5" y="-144.5" font-family="Helvetica,sans-Serif" font-size="10.00">deal.II/physics/transformations.h</text>
</a>
</g>
</g>
<!-- Node5&#45;&gt;Node32 -->
<g id="edge37_Node000005_Node000032" class="edge">
<title>Node5&#45;&gt;Node32</title>
<g id="a_edge37_Node000005_Node000032"><a xlink:title=" ">
<path fill="none" stroke="#63b8ff" d="M976.79,-206.66C909.73,-197.61 769.78,-178.64 651.5,-162 642.25,-160.7 632.5,-159.31 622.89,-157.93"/>
<polygon fill="#63b8ff" stroke="#63b8ff" points="623.36,-154.47 612.97,-156.51 622.37,-161.39 623.36,-154.47"/>
</a>
</g>
</g>
<!-- Node33 -->
<g id="Node000033" class="node">
<title>Node33</title>
<g id="a_Node000033"><a xlink:title=" ">
<polygon fill="#e0e0e0" stroke="#999999" points="704.5,-156.5 660.5,-156.5 660.5,-137.5 704.5,-137.5 704.5,-156.5"/>
<text text-anchor="middle" x="682.5" y="-144.5" font-family="Helvetica,sans-Serif" font-size="10.00">cfloat</text>
</a>
</g>
</g>
<!-- Node5&#45;&gt;Node33 -->
<g id="edge38_Node000005_Node000033" class="edge">
<title>Node5&#45;&gt;Node33</title>
<g id="a_edge38_Node000005_Node000033"><a xlink:title=" ">
<path fill="none" stroke="#63b8ff" d="M976.53,-208.75C917.84,-203.22 805.35,-189.8 713.5,-162 711.87,-161.51 710.21,-160.95 708.55,-160.34"/>
<polygon fill="#63b8ff" stroke="#63b8ff" points="709.83,-157.08 699.25,-156.52 707.17,-163.56 709.83,-157.08"/>
</a>
</g>
</g>
<!-- Node34 -->
<g id="Node000034" class="node">
<title>Node34</title>
<g id="a_Node000034"><a xlink:title=" ">
<polygon fill="#e0e0e0" stroke="#999999" points="780.5,-156.5 722.5,-156.5 722.5,-137.5 780.5,-137.5 780.5,-156.5"/>
<text text-anchor="middle" x="751.5" y="-144.5" font-family="Helvetica,sans-Serif" font-size="10.00">memory</text>
</a>
</g>
</g>
<!-- Node5&#45;&gt;Node34 -->
<g id="edge39_Node000005_Node000034" class="edge">
<title>Node5&#45;&gt;Node34</title>
<g id="a_edge39_Node000005_Node000034"><a xlink:title=" ">
<path fill="none" stroke="#63b8ff" d="M976.93,-204.25C932.31,-195.24 857.74,-179.38 794.5,-162 791.73,-161.24 788.88,-160.41 786.02,-159.55"/>
<polygon fill="#63b8ff" stroke="#63b8ff" points="786.98,-156.18 776.39,-156.54 784.89,-162.86 786.98,-156.18"/>
</a>
</g>
</g>
<!-- Node6&#45;&gt;Node7 -->
<g id="edge6_Node000006_Node000007" class="edge">
<title>Node6&#45;&gt;Node7</title>
<g id="a_edge6_Node000006_Node000007"><a xlink:title=" ">
<path fill="none" stroke="#63b8ff" d="M1092.9,-133.01C1095.8,-132.64 1098.67,-132.31 1101.5,-132 1404.15,-99.21 1483.81,-136.66 1785.5,-96 1791.94,-95.13 1798.68,-93.96 1805.29,-92.65"/>
<polygon fill="#63b8ff" stroke="#63b8ff" points="1806.4,-95.99 1815.47,-90.52 1804.97,-89.14 1806.4,-95.99"/>
</a>
</g>
</g>
<!-- Node8 -->
<g id="Node000008" class="node">
<title>Node8</title>
<g id="a_Node000008"><a xlink:title=" ">
<polygon fill="#e0e0e0" stroke="#999999" points="1776,-90.5 1661,-90.5 1661,-71.5 1776,-71.5 1776,-90.5"/>
<text text-anchor="middle" x="1718.5" y="-78.5" font-family="Helvetica,sans-Serif" font-size="10.00">deal.II/base/tensor.h</text>
</a>
</g>
</g>
<!-- Node6&#45;&gt;Node8 -->
<g id="edge7_Node000006_Node000008" class="edge">
<title>Node6&#45;&gt;Node8</title>
<g id="a_edge7_Node000006_Node000008"><a xlink:title=" ">
<path fill="none" stroke="#63b8ff" d="M1092.91,-133.05C1095.8,-132.68 1098.68,-132.32 1101.5,-132 1345.31,-104.02 1409.39,-129.55 1652.5,-96 1659.13,-95.09 1666.08,-93.88 1672.89,-92.56"/>
<polygon fill="#63b8ff" stroke="#63b8ff" points="1673.59,-95.99 1682.7,-90.57 1672.2,-89.13 1673.59,-95.99"/>
</a>
</g>
</g>
<!-- Node9&#45;&gt;Node3 -->
<g id="edge26_Node000009_Node000003" class="edge">
<title>Node9&#45;&gt;Node3</title>
<g id="a_edge26_Node000009_Node000003"><a xlink:title=" ">
<path fill="none" stroke="#63b8ff" d="M836.13,-138.35C821.37,-135.99 804.76,-133.59 789.5,-132 492.46,-101.01 408.67,-166.67 118.5,-96 116.76,-95.58 115.01,-95.06 113.25,-94.47"/>
<polygon fill="#63b8ff" stroke="#63b8ff" points="114.09,-91.04 103.51,-90.59 111.5,-97.54 114.09,-91.04"/>
</a>
</g>
</g>
<!-- Node9&#45;&gt;Node4 -->
<g id="edge28_Node000009_Node000004" class="edge">
<title>Node9&#45;&gt;Node4</title>
<g id="a_edge28_Node000009_Node000004"><a xlink:title=" ">
<path fill="none" stroke="#63b8ff" d="M836.13,-138.31C821.38,-135.94 804.76,-133.56 789.5,-132 465.01,-98.89 374.44,-168.82 56.5,-96 54.33,-95.5 52.12,-94.87 49.93,-94.15"/>
<polygon fill="#63b8ff" stroke="#63b8ff" points="51.18,-90.88 40.59,-90.59 48.69,-97.42 51.18,-90.88"/>
</a>
</g>
</g>
<!-- Node9&#45;&gt;Node7 -->
<g id="edge14_Node000009_Node000007" class="edge">
<title>Node9&#45;&gt;Node7</title>
<g id="a_edge14_Node000009_Node000007"><a xlink:title=" ">
<path fill="none" stroke="#63b8ff" d="M906.78,-137.44C914.68,-135.3 923.37,-133.25 931.5,-132 1306.98,-74.27 1408.75,-144.77 1785.5,-96 1792.17,-95.14 1799.17,-93.93 1806,-92.57"/>
<polygon fill="#63b8ff" stroke="#63b8ff" points="1806.74,-95.99 1815.81,-90.51 1805.31,-89.14 1806.74,-95.99"/>
</a>
</g>
</g>
<!-- Node9&#45;&gt;Node8 -->
<g id="edge16_Node000009_Node000008" class="edge">
<title>Node9&#45;&gt;Node8</title>
<g id="a_edge16_Node000009_Node000008"><a xlink:title=" ">
<path fill="none" stroke="#63b8ff" d="M906.79,-137.48C914.69,-135.34 923.37,-133.28 931.5,-132 1248.43,-82.01 1334.34,-137.42 1652.5,-96 1659.29,-95.12 1666.42,-93.91 1673.38,-92.56"/>
<polygon fill="#63b8ff" stroke="#63b8ff" points="1674.3,-95.95 1683.4,-90.53 1672.9,-89.09 1674.3,-95.95"/>
</a>
</g>
</g>
<!-- Node10 -->
<g id="Node000010" class="node">
<title>Node10</title>
<g id="a_Node000010"><a xlink:href="output__struct_8h.html" target="_top" xlink:title=" ">
<polygon fill="white" stroke="#666666" points="437.5,-90.5 323.5,-90.5 323.5,-71.5 437.5,-71.5 437.5,-90.5"/>
<text text-anchor="middle" x="380.5" y="-78.5" font-family="Helvetica,sans-Serif" font-size="10.00">core/output_struct.h</text>
</a>
</g>
</g>
<!-- Node9&#45;&gt;Node10 -->
<g id="edge9_Node000009_Node000010" class="edge">
<title>Node9&#45;&gt;Node10</title>
<g id="a_edge9_Node000009_Node000010"><a xlink:title=" ">
<path fill="none" stroke="#63b8ff" d="M848.31,-137.47C839.98,-135.43 830.94,-133.43 822.5,-132 656.99,-103.9 612.43,-121.46 446.5,-96 440.19,-95.03 433.58,-93.84 427.08,-92.57"/>
<polygon fill="#63b8ff" stroke="#63b8ff" points="427.52,-89.09 417.02,-90.52 426.12,-95.95 427.52,-89.09"/>
</a>
</g>
</g>
<!-- Node11 -->
<g id="Node000011" class="node">
<title>Node11</title>
<g id="a_Node000011"><a xlink:title=" ">
<polygon fill="#e0e0e0" stroke="#999999" points="346,-30 245,-30 245,0 346,0 346,-30"/>
<text text-anchor="start" x="253" y="-18" font-family="Helvetica,sans-Serif" font-size="10.00">deal.II/base/table</text>
<text text-anchor="middle" x="295.5" y="-7" font-family="Helvetica,sans-Serif" font-size="10.00">_handler.h</text>
</a>
</g>
</g>
<!-- Node9&#45;&gt;Node11 -->
<g id="edge15_Node000009_Node000011" class="edge">
<title>Node9&#45;&gt;Node11</title>
<g id="a_edge15_Node000009_Node000011"><a xlink:title=" ">
<path fill="none" stroke="#63b8ff" d="M848.93,-137.48C840.43,-135.39 831.16,-133.36 822.5,-132 766.6,-123.22 357.63,-132.63 314.5,-96 298.66,-82.54 294.69,-58.51 294.21,-40.29"/>
<polygon fill="#63b8ff" stroke="#63b8ff" points="297.72,-40.13 294.28,-30.1 290.72,-40.08 297.72,-40.13"/>
</a>
</g>
</g>
<!-- Node13 -->
<g id="Node000013" class="node">
<title>Node13</title>
<g id="a_Node000013"><a xlink:title=" ">
<polygon fill="#e0e0e0" stroke="#999999" points="585.5,-96 455.5,-96 455.5,-66 585.5,-66 585.5,-96"/>
<text text-anchor="start" x="463.5" y="-84" font-family="Helvetica,sans-Serif" font-size="10.00">deal.II/base/conditional</text>
<text text-anchor="middle" x="520.5" y="-73" font-family="Helvetica,sans-Serif" font-size="10.00">_ostream.h</text>
</a>
</g>
</g>
<!-- Node9&#45;&gt;Node13 -->
<g id="edge12_Node000009_Node000013" class="edge">
<title>Node9&#45;&gt;Node13</title>
<g id="a_edge12_Node000009_Node000013"><a xlink:title=" ">
<path fill="none" stroke="#63b8ff" d="M846.75,-137.46C838.84,-135.53 830.39,-133.59 822.5,-132 722.37,-111.8 696.16,-113.37 595.5,-96 595.4,-95.98 595.3,-95.96 595.19,-95.95"/>
<polygon fill="#63b8ff" stroke="#63b8ff" points="595.98,-92.53 585.52,-94.25 594.77,-99.43 595.98,-92.53"/>
</a>
</g>
</g>
<!-- Node14 -->
<g id="Node000014" class="node">
<title>Node14</title>
<g id="a_Node000014"><a xlink:title=" ">
<polygon fill="#e0e0e0" stroke="#999999" points="731,-96 604,-96 604,-66 731,-66 731,-96"/>
<text text-anchor="start" x="612" y="-84" font-family="Helvetica,sans-Serif" font-size="10.00">deal.II/base/parameter</text>
<text text-anchor="middle" x="667.5" y="-73" font-family="Helvetica,sans-Serif" font-size="10.00">_handler.h</text>
</a>
</g>
</g>
<!-- Node9&#45;&gt;Node14 -->
<g id="edge13_Node000009_Node000014" class="edge">
<title>Node9&#45;&gt;Node14</title>
<g id="a_edge13_Node000009_Node000014"><a xlink:title=" ">
<path fill="none" stroke="#63b8ff" d="M850.91,-137.37C818.47,-127.58 764.77,-111.37 723.84,-99.01"/>
<polygon fill="#63b8ff" stroke="#63b8ff" points="724.84,-95.66 714.26,-96.12 722.82,-102.36 724.84,-95.66"/>
</a>
</g>
</g>
<!-- Node9&#45;&gt;Node15 -->
<g id="edge17_Node000009_Node000015" class="edge">
<title>Node9&#45;&gt;Node15</title>
<g id="a_edge17_Node000009_Node000015"><a xlink:title=" ">
<path fill="none" stroke="#63b8ff" d="M848.93,-137.45C840.43,-135.36 831.16,-133.34 822.5,-132 584.36,-95.12 520.86,-123.84 281.5,-96 272.44,-94.95 262.87,-93.59 253.56,-92.13"/>
<polygon fill="#63b8ff" stroke="#63b8ff" points="254.03,-88.66 243.6,-90.52 252.91,-95.57 254.03,-88.66"/>
</a>
</g>
</g>
<!-- Node16 -->
<g id="Node000016" class="node">
<title>Node16</title>
<g id="a_Node000016"><a xlink:title=" ">
<polygon fill="#e0e0e0" stroke="#999999" points="868,-90.5 749,-90.5 749,-71.5 868,-71.5 868,-90.5"/>
<text text-anchor="middle" x="808.5" y="-78.5" font-family="Helvetica,sans-Serif" font-size="10.00">deal.II/fe/fe_values.h</text>
</a>
</g>
</g>
<!-- Node9&#45;&gt;Node16 -->
<g id="edge18_Node000009_Node000016" class="edge">
<title>Node9&#45;&gt;Node16</title>
<g id="a_edge18_Node000009_Node000016"><a xlink:title=" ">
<path fill="none" stroke="#63b8ff" d="M869.92,-137.37C858.66,-127.21 839.74,-110.16 825.87,-97.65"/>
<polygon fill="#63b8ff" stroke="#63b8ff" points="828.15,-95 818.38,-90.91 823.46,-100.2 828.15,-95"/>
</a>
</g>
</g>
<!-- Node17 -->
<g id="Node000017" class="node">
<title>Node17</title>
<g id="a_Node000017"><a xlink:title=" ">
<polygon fill="#e0e0e0" stroke="#999999" points="1017,-96 886,-96 886,-66 1017,-66 1017,-96"/>
<text text-anchor="start" x="894" y="-84" font-family="Helvetica,sans-Serif" font-size="10.00">deal.II/particles/particle</text>
<text text-anchor="middle" x="951.5" y="-73" font-family="Helvetica,sans-Serif" font-size="10.00">_iterator.h</text>
</a>
</g>
</g>
<!-- Node9&#45;&gt;Node17 -->
<g id="edge19_Node000009_Node000017" class="edge">
<title>Node9&#45;&gt;Node17</title>
<g id="a_edge19_Node000009_Node000017"><a xlink:title=" ">
<path fill="none" stroke="#63b8ff" d="M889.21,-137.37C899.06,-128.61 914.7,-114.71 927.84,-103.04"/>
<polygon fill="#63b8ff" stroke="#63b8ff" points="930.47,-105.38 935.62,-96.12 925.82,-100.14 930.47,-105.38"/>
</a>
</g>
</g>
<!-- Node18 -->
<g id="Node000018" class="node">
<title>Node18</title>
<g id="a_Node000018"><a xlink:title=" ">
<polygon fill="#e0e0e0" stroke="#999999" points="1140,-96 1035,-96 1035,-66 1140,-66 1140,-96"/>
<text text-anchor="start" x="1043" y="-84" font-family="Helvetica,sans-Serif" font-size="10.00">boost/archive/text</text>
<text text-anchor="middle" x="1087.5" y="-73" font-family="Helvetica,sans-Serif" font-size="10.00">_iarchive.hpp</text>
</a>
</g>
</g>
<!-- Node9&#45;&gt;Node18 -->
<g id="edge20_Node000009_Node000018" class="edge">
<title>Node9&#45;&gt;Node18</title>
<g id="a_edge20_Node000009_Node000018"><a xlink:title=" ">
<path fill="none" stroke="#63b8ff" d="M907.55,-137.37C939.31,-127.6 991.84,-111.43 1031.97,-99.09"/>
<polygon fill="#63b8ff" stroke="#63b8ff" points="1033.1,-102.4 1041.62,-96.12 1031.04,-95.71 1033.1,-102.4"/>
</a>
</g>
</g>
<!-- Node19 -->
<g id="Node000019" class="node">
<title>Node19</title>
<g id="a_Node000019"><a xlink:title=" ">
<polygon fill="#e0e0e0" stroke="#999999" points="1263,-96 1158,-96 1158,-66 1263,-66 1263,-96"/>
<text text-anchor="start" x="1166" y="-84" font-family="Helvetica,sans-Serif" font-size="10.00">boost/archive/text</text>
<text text-anchor="middle" x="1210.5" y="-73" font-family="Helvetica,sans-Serif" font-size="10.00">_oarchive.hpp</text>
</a>
</g>
</g>
<!-- Node9&#45;&gt;Node19 -->
<g id="edge21_Node000009_Node000019" class="edge">
<title>Node9&#45;&gt;Node19</title>
<g id="a_edge21_Node000009_Node000019"><a xlink:title=" ">
<path fill="none" stroke="#63b8ff" d="M909.07,-137.49C916.37,-135.54 924.19,-133.58 931.5,-132 1024.38,-111.88 1051.42,-114.77 1148.08,-96.2"/>
<polygon fill="#63b8ff" stroke="#63b8ff" points="1148.83,-99.62 1157.97,-94.27 1147.49,-92.75 1148.83,-99.62"/>
</a>
</g>
</g>
<!-- Node20 -->
<g id="Node000020" class="node">
<title>Node20</title>
<g id="a_Node000020"><a xlink:title=" ">
<polygon fill="#e0e0e0" stroke="#999999" points="1391.5,-96 1281.5,-96 1281.5,-66 1391.5,-66 1391.5,-96"/>
<text text-anchor="start" x="1289.5" y="-84" font-family="Helvetica,sans-Serif" font-size="10.00">boost/math/special</text>
<text text-anchor="middle" x="1336.5" y="-73" font-family="Helvetica,sans-Serif" font-size="10.00">_functions/erf.hpp</text>
</a>
</g>
</g>
<!-- Node9&#45;&gt;Node20 -->
<g id="edge22_Node000009_Node000020" class="edge">
<title>Node9&#45;&gt;Node20</title>
<g id="a_edge22_Node000009_Node000020"><a xlink:title=" ">
<path fill="none" stroke="#63b8ff" d="M907.92,-137.48C915.53,-135.44 923.78,-133.44 931.5,-132 1078.1,-104.7 1120.25,-119.64 1271.31,-96.06"/>
<polygon fill="#63b8ff" stroke="#63b8ff" points="1272.09,-99.48 1281.42,-94.45 1270.99,-92.57 1272.09,-99.48"/>
</a>
</g>
</g>
<!-- Node21 -->
<g id="Node000021" class="node">
<title>Node21</title>
<g id="a_Node000021"><a xlink:title=" ">
<polygon fill="#e0e0e0" stroke="#999999" points="1465,-90.5 1410,-90.5 1410,-71.5 1465,-71.5 1465,-90.5"/>
<text text-anchor="middle" x="1437.5" y="-78.5" font-family="Helvetica,sans-Serif" font-size="10.00">fstream</text>
</a>
</g>
</g>
<!-- Node9&#45;&gt;Node21 -->
<g id="edge23_Node000009_Node000021" class="edge">
<title>Node9&#45;&gt;Node21</title>
<g id="a_edge23_Node000009_Node000021"><a xlink:title=" ">
<path fill="none" stroke="#63b8ff" d="M907.35,-137.48C915.11,-135.38 923.58,-133.36 931.5,-132 1137.55,-96.67 1196.44,-141.45 1400.5,-96 1403.02,-95.44 1405.6,-94.74 1408.17,-93.96"/>
<polygon fill="#63b8ff" stroke="#63b8ff" points="1409.53,-97.19 1417.85,-90.62 1407.25,-90.57 1409.53,-97.19"/>
</a>
</g>
</g>
<!-- Node22 -->
<g id="Node000022" class="node">
<title>Node22</title>
<g id="a_Node000022"><a xlink:title=" ">
<polygon fill="#e0e0e0" stroke="#999999" points="1521.5,-90.5 1483.5,-90.5 1483.5,-71.5 1521.5,-71.5 1521.5,-90.5"/>
<text text-anchor="middle" x="1502.5" y="-78.5" font-family="Helvetica,sans-Serif" font-size="10.00">map</text>
</a>
</g>
</g>
<!-- Node9&#45;&gt;Node22 -->
<g id="edge24_Node000009_Node000022" class="edge">
<title>Node9&#45;&gt;Node22</title>
<g id="a_edge24_Node000009_Node000022"><a xlink:title=" ">
<path fill="none" stroke="#63b8ff" d="M907.07,-137.49C914.9,-135.38 923.48,-133.33 931.5,-132 1170.09,-92.37 1241.07,-159.33 1474.5,-96 1475.94,-95.61 1477.4,-95.14 1478.85,-94.61"/>
<polygon fill="#63b8ff" stroke="#63b8ff" points="1480.36,-97.77 1488.11,-90.56 1477.55,-91.36 1480.36,-97.77"/>
</a>
</g>
</g>
<!-- Node23 -->
<g id="Node000023" class="node">
<title>Node23</title>
<g id="a_Node000023"><a xlink:title=" ">
<polygon fill="#e0e0e0" stroke="#999999" points="1583.5,-90.5 1539.5,-90.5 1539.5,-71.5 1583.5,-71.5 1583.5,-90.5"/>
<text text-anchor="middle" x="1561.5" y="-78.5" font-family="Helvetica,sans-Serif" font-size="10.00">regex</text>
</a>
</g>
</g>
<!-- Node9&#45;&gt;Node23 -->
<g id="edge25_Node000009_Node000023" class="edge">
<title>Node9&#45;&gt;Node23</title>
<g id="a_edge25_Node000009_Node000023"><a xlink:title=" ">
<path fill="none" stroke="#63b8ff" d="M907.07,-137.46C914.89,-135.34 923.47,-133.31 931.5,-132 1194.73,-89.11 1271.58,-159.94 1530.5,-96 1532.23,-95.57 1533.99,-95.05 1535.74,-94.46"/>
<polygon fill="#63b8ff" stroke="#63b8ff" points="1537.5,-97.53 1545.49,-90.56 1534.9,-91.03 1537.5,-97.53"/>
</a>
</g>
</g>
<!-- Node24 -->
<g id="Node000024" class="node">
<title>Node24</title>
<g id="a_Node000024"><a xlink:title=" ">
<polygon fill="#e0e0e0" stroke="#999999" points="1643,-90.5 1602,-90.5 1602,-71.5 1643,-71.5 1643,-90.5"/>
<text text-anchor="middle" x="1622.5" y="-78.5" font-family="Helvetica,sans-Serif" font-size="10.00">tuple</text>
</a>
</g>
</g>
<!-- Node9&#45;&gt;Node24 -->
<g id="edge27_Node000009_Node000024" class="edge">
<title>Node9&#45;&gt;Node24</title>
<g id="a_edge27_Node000009_Node000024"><a xlink:title=" ">
<path fill="none" stroke="#63b8ff" d="M907.06,-137.43C914.89,-135.31 923.47,-133.29 931.5,-132 1222.02,-85.5 1307.11,-167.51 1592.5,-96 1594.19,-95.58 1595.89,-95.06 1597.59,-94.47"/>
<polygon fill="#63b8ff" stroke="#63b8ff" points="1599.12,-97.63 1607.04,-90.59 1596.46,-91.16 1599.12,-97.63"/>
</a>
</g>
</g>
<!-- Node10&#45;&gt;Node11 -->
<g id="edge10_Node000010_Node000011" class="edge">
<title>Node10&#45;&gt;Node11</title>
<g id="a_edge10_Node000010_Node000011"><a xlink:title=" ">
<path fill="none" stroke="#63b8ff" d="M369.04,-71.37C357.18,-62.44 338.25,-48.19 322.56,-36.38"/>
<polygon fill="#63b8ff" stroke="#63b8ff" points="324.34,-33.33 314.25,-30.12 320.13,-38.93 324.34,-33.33"/>
</a>
</g>
</g>
<!-- Node12 -->
<g id="Node000012" class="node">
<title>Node12</title>
<g id="a_Node000012"><a xlink:title=" ">
<polygon fill="#e0e0e0" stroke="#999999" points="483,-30 364,-30 364,0 483,0 483,-30"/>
<text text-anchor="start" x="372" y="-18" font-family="Helvetica,sans-Serif" font-size="10.00">deal.II/numerics/data</text>
<text text-anchor="middle" x="423.5" y="-7" font-family="Helvetica,sans-Serif" font-size="10.00">_postprocessor.h</text>
</a>
</g>
</g>
<!-- Node10&#45;&gt;Node12 -->
<g id="edge11_Node000010_Node000012" class="edge">
<title>Node10&#45;&gt;Node12</title>
<g id="a_edge11_Node000010_Node000012"><a xlink:title=" ">
<path fill="none" stroke="#63b8ff" d="M386.3,-71.37C391.87,-63.08 400.53,-50.18 408.1,-38.92"/>
<polygon fill="#63b8ff" stroke="#63b8ff" points="411.18,-40.61 413.85,-30.36 405.37,-36.71 411.18,-40.61"/>
</a>
</g>
</g>
</g>
</svg>
