<?xml version="1.0" encoding="UTF-8" standalone="no"?>
<!DOCTYPE svg PUBLIC "-//W3C//DTD SVG 1.1//EN"
 "http://www.w3.org/Graphics/SVG/1.1/DTD/svg11.dtd">
<!-- Generated by graphviz version 2.43.0 (0)
 -->
<!-- Title: /home/runner/work/lethe/lethe/include/core/ib_stencil.h Pages: 1 -->
<svg width="1877pt" height="368pt"
 viewBox="0.00 0.00 1877.23 368.00" xmlns="http://www.w3.org/2000/svg" xmlns:xlink="http://www.w3.org/1999/xlink">
<g id="graph0" class="graph" transform="scale(1 1) rotate(0) translate(4 364)">
<title>/home/runner/work/lethe/lethe/include/core/ib_stencil.h</title>
<!-- Node1 -->
<g id="Node000001" class="node">
<title>Node1</title>
<g id="a_Node000001"><a xlink:title=" ">
<polygon fill="#999999" stroke="#666666" points="1836.23,-360 1699.23,-360 1699.23,-319 1836.23,-319 1836.23,-360"/>
<text text-anchor="start" x="1707.23" y="-348" font-family="Helvetica,sans-Serif" font-size="10.00">/home/runner/work/lethe</text>
<text text-anchor="start" x="1707.23" y="-337" font-family="Helvetica,sans-Serif" font-size="10.00">/lethe/include/core/ib</text>
<text text-anchor="middle" x="1767.73" y="-326" font-family="Helvetica,sans-Serif" font-size="10.00">_stencil.h</text>
</a>
</g>
</g>
<!-- Node2 -->
<g id="Node000002" class="node">
<title>Node2</title>
<g id="a_Node000002"><a xlink:href="ib__particle_8h.html" target="_top" xlink:title=" ">
<polygon fill="white" stroke="#666666" points="1758.23,-283 1657.23,-283 1657.23,-264 1758.23,-264 1758.23,-283"/>
<text text-anchor="middle" x="1707.73" y="-271" font-family="Helvetica,sans-Serif" font-size="10.00">core/ib_particle.h</text>
</a>
</g>
</g>
<!-- Node1&#45;&gt;Node2 -->
<g id="edge1_Node000001_Node000002" class="edge">
<title>Node1&#45;&gt;Node2</title>
<g id="a_edge1_Node000001_Node000002"><a xlink:title=" ">
<path fill="none" stroke="#63b8ff" d="M1749.4,-318.95C1740.94,-309.92 1731.01,-299.33 1722.96,-290.75"/>
<polygon fill="#63b8ff" stroke="#63b8ff" points="1725.33,-288.16 1715.94,-283.26 1720.23,-292.95 1725.33,-288.16"/>
</a>
</g>
</g>
<!-- Node5 -->
<g id="Node000005" class="node">
<title>Node5</title>
<g id="a_Node000005"><a xlink:title=" ">
<polygon fill="#e0e0e0" stroke="#999999" points="1869.23,-90.5 1822.23,-90.5 1822.23,-71.5 1869.23,-71.5 1869.23,-90.5"/>
<text text-anchor="middle" x="1845.73" y="-78.5" font-family="Helvetica,sans-Serif" font-size="10.00">vector</text>
</a>
</g>
</g>
<!-- Node1&#45;&gt;Node5 -->
<g id="edge42_Node000001_Node000005" class="edge">
<title>Node1&#45;&gt;Node5</title>
<g id="a_edge42_Node000001_Node000005"><a xlink:title=" ">
<path fill="none" stroke="#63b8ff" d="M1782.58,-318.99C1805.05,-287.85 1846.09,-224.09 1855.73,-162 1858.97,-141.1 1854.9,-116.99 1851.02,-100.75"/>
<polygon fill="#63b8ff" stroke="#63b8ff" points="1854.36,-99.7 1848.46,-90.9 1847.59,-101.46 1854.36,-99.7"/>
</a>
</g>
</g>
<!-- Node3 -->
<g id="Node000003" class="node">
<title>Node3</title>
<g id="a_Node000003"><a xlink:href="dem__properties_8h.html" target="_top" xlink:title="DEM particle property definitions and output name management.">
<polygon fill="white" stroke="#666666" points="1803.73,-156.5 1677.73,-156.5 1677.73,-137.5 1803.73,-137.5 1803.73,-156.5"/>
<text text-anchor="middle" x="1740.73" y="-144.5" font-family="Helvetica,sans-Serif" font-size="10.00">core/dem_properties.h</text>
</a>
</g>
</g>
<!-- Node2&#45;&gt;Node3 -->
<g id="edge2_Node000002_Node000003" class="edge">
<title>Node2&#45;&gt;Node3</title>
<g id="a_edge2_Node000002_Node000003"><a xlink:title=" ">
<path fill="none" stroke="#63b8ff" d="M1701.42,-263.98C1691.79,-249.87 1675.58,-220.94 1685.73,-198 1692.28,-183.19 1705.63,-170.88 1717.54,-162.18"/>
<polygon fill="#63b8ff" stroke="#63b8ff" points="1719.56,-165.04 1725.83,-156.5 1715.61,-159.26 1719.56,-165.04"/>
</a>
</g>
</g>
<!-- Node2&#45;&gt;Node5 -->
<g id="edge41_Node000002_Node000005" class="edge">
<title>Node2&#45;&gt;Node5</title>
<g id="a_edge41_Node000002_Node000005"><a xlink:title=" ">
<path fill="none" stroke="#63b8ff" d="M1751.18,-263.92C1772.67,-257.51 1797.24,-246.53 1812.73,-228 1843.61,-191.05 1847.07,-131.08 1846.63,-100.79"/>
<polygon fill="#63b8ff" stroke="#63b8ff" points="1850.13,-100.63 1846.32,-90.74 1843.13,-100.85 1850.13,-100.63"/>
</a>
</g>
</g>
<!-- Node6 -->
<g id="Node000006" class="node">
<title>Node6</title>
<g id="a_Node000006"><a xlink:href="shape_8h.html" target="_top" xlink:title=" ">
<polygon fill="white" stroke="#666666" points="1022.23,-222.5 943.23,-222.5 943.23,-203.5 1022.23,-203.5 1022.23,-222.5"/>
<text text-anchor="middle" x="982.73" y="-210.5" font-family="Helvetica,sans-Serif" font-size="10.00">core/shape.h</text>
</a>
</g>
</g>
<!-- Node2&#45;&gt;Node6 -->
<g id="edge5_Node000002_Node000006" class="edge">
<title>Node2&#45;&gt;Node6</title>
<g id="a_edge5_Node000002_Node000006"><a xlink:title=" ">
<path fill="none" stroke="#63b8ff" d="M1657.03,-268.41C1523.75,-257.66 1164.68,-228.68 1032.47,-218.01"/>
<polygon fill="#63b8ff" stroke="#63b8ff" points="1032.49,-214.5 1022.24,-217.19 1031.93,-221.48 1032.49,-214.5"/>
</a>
</g>
</g>
<!-- Node8 -->
<g id="Node000008" class="node">
<title>Node8</title>
<g id="a_Node000008"><a xlink:title=" ">
<polygon fill="#e0e0e0" stroke="#999999" points="146.73,-90.5 36.73,-90.5 36.73,-71.5 146.73,-71.5 146.73,-90.5"/>
<text text-anchor="middle" x="91.73" y="-78.5" font-family="Helvetica,sans-Serif" font-size="10.00">deal.II/base/point.h</text>
</a>
</g>
</g>
<!-- Node2&#45;&gt;Node8 -->
<g id="edge40_Node000002_Node000008" class="edge">
<title>Node2&#45;&gt;Node8</title>
<g id="a_edge40_Node000002_Node000008"><a xlink:title=" ">
<path fill="none" stroke="#63b8ff" d="M1657.07,-269.82C1533.55,-263.24 1207.04,-245.52 934.73,-228 728.41,-214.73 147.64,-313.29 6.73,-162 -16.59,-136.96 27.82,-110.15 60.76,-94.8"/>
<polygon fill="#63b8ff" stroke="#63b8ff" points="62.42,-97.89 70.11,-90.6 59.55,-91.51 62.42,-97.89"/>
</a>
</g>
</g>
<!-- Node34 -->
<g id="Node000034" class="node">
<title>Node34</title>
<g id="a_Node000034"><a xlink:title=" ">
<polygon fill="#e0e0e0" stroke="#999999" points="1803.23,-228 1694.23,-228 1694.23,-198 1803.23,-198 1803.23,-228"/>
<text text-anchor="start" x="1702.23" y="-216" font-family="Helvetica,sans-Serif" font-size="10.00">deal.II/base/parsed</text>
<text text-anchor="middle" x="1748.73" y="-205" font-family="Helvetica,sans-Serif" font-size="10.00">_function.h</text>
</a>
</g>
</g>
<!-- Node2&#45;&gt;Node34 -->
<g id="edge39_Node000002_Node000034" class="edge">
<title>Node2&#45;&gt;Node34</title>
<g id="a_edge39_Node000002_Node000034"><a xlink:title=" ">
<path fill="none" stroke="#63b8ff" d="M1713.78,-263.87C1718.82,-256.67 1726.25,-246.07 1732.96,-236.49"/>
<polygon fill="#63b8ff" stroke="#63b8ff" points="1735.96,-238.31 1738.83,-228.11 1730.23,-234.29 1735.96,-238.31"/>
</a>
</g>
</g>
<!-- Node4 -->
<g id="Node000004" class="node">
<title>Node4</title>
<g id="a_Node000004"><a xlink:title=" ">
<polygon fill="#e0e0e0" stroke="#999999" points="1803.73,-90.5 1759.73,-90.5 1759.73,-71.5 1803.73,-71.5 1803.73,-90.5"/>
<text text-anchor="middle" x="1781.73" y="-78.5" font-family="Helvetica,sans-Serif" font-size="10.00">string</text>
</a>
</g>
</g>
<!-- Node3&#45;&gt;Node4 -->
<g id="edge3_Node000003_Node000004" class="edge">
<title>Node3&#45;&gt;Node4</title>
<g id="a_edge3_Node000003_Node000004"><a xlink:title=" ">
<path fill="none" stroke="#63b8ff" d="M1746.26,-137.37C1752.46,-127.69 1762.68,-111.74 1770.56,-99.44"/>
<polygon fill="#63b8ff" stroke="#63b8ff" points="1773.57,-101.21 1776.02,-90.91 1767.68,-97.44 1773.57,-101.21"/>
</a>
</g>
</g>
<!-- Node3&#45;&gt;Node5 -->
<g id="edge4_Node000003_Node000005" class="edge">
<title>Node3&#45;&gt;Node5</title>
<g id="a_edge4_Node000003_Node000005"><a xlink:title=" ">
<path fill="none" stroke="#63b8ff" d="M1754.89,-137.37C1772.27,-126.78 1801.97,-108.67 1822.66,-96.06"/>
<polygon fill="#63b8ff" stroke="#63b8ff" points="1824.74,-98.89 1831.46,-90.7 1821.09,-92.92 1824.74,-98.89"/>
</a>
</g>
</g>
<!-- Node7 -->
<g id="Node000007" class="node">
<title>Node7</title>
<g id="a_Node000007"><a xlink:href="tensors__and__points__dimension__manipulation_8h.html" target="_top" xlink:title=" ">
<polygon fill="white" stroke="#666666" points="167.73,-162 15.73,-162 15.73,-132 167.73,-132 167.73,-162"/>
<text text-anchor="start" x="23.73" y="-150" font-family="Helvetica,sans-Serif" font-size="10.00">core/tensors_and_points</text>
<text text-anchor="middle" x="91.73" y="-139" font-family="Helvetica,sans-Serif" font-size="10.00">_dimension_manipulation.h</text>
</a>
</g>
</g>
<!-- Node6&#45;&gt;Node7 -->
<g id="edge6_Node000006_Node000007" class="edge">
<title>Node6&#45;&gt;Node7</title>
<g id="a_edge6_Node000006_Node000007"><a xlink:title=" ">
<path fill="none" stroke="#63b8ff" d="M943.19,-210.97C827.24,-207.63 477.94,-195.44 178.32,-162.1"/>
<polygon fill="#63b8ff" stroke="#63b8ff" points="178.46,-158.6 168.13,-160.96 177.68,-165.55 178.46,-158.6"/>
</a>
</g>
</g>
<!-- Node10 -->
<g id="Node000010" class="node">
<title>Node10</title>
<g id="a_Node000010"><a xlink:href="core_2utilities_8h.html" target="_top" xlink:title=" ">
<polygon fill="white" stroke="#666666" points="1188.73,-156.5 1102.73,-156.5 1102.73,-137.5 1188.73,-137.5 1188.73,-156.5"/>
<text text-anchor="middle" x="1145.73" y="-144.5" font-family="Helvetica,sans-Serif" font-size="10.00">core/utilities.h</text>
</a>
</g>
</g>
<!-- Node6&#45;&gt;Node10 -->
<g id="edge9_Node000006_Node000010" class="edge">
<title>Node6&#45;&gt;Node10</title>
<g id="a_edge9_Node000006_Node000010"><a xlink:title=" ">
<path fill="none" stroke="#63b8ff" d="M1004.71,-203.37C1032.98,-192.27 1082.26,-172.92 1114.44,-160.28"/>
<polygon fill="#63b8ff" stroke="#63b8ff" points="1115.8,-163.51 1123.83,-156.6 1113.25,-156.99 1115.8,-163.51"/>
</a>
</g>
</g>
<!-- Node16 -->
<g id="Node000016" class="node">
<title>Node16</title>
<g id="a_Node000016"><a xlink:title=" ">
<polygon fill="#e0e0e0" stroke="#999999" points="555.73,-90.5 415.73,-90.5 415.73,-71.5 555.73,-71.5 555.73,-90.5"/>
<text text-anchor="middle" x="485.73" y="-78.5" font-family="Helvetica,sans-Serif" font-size="10.00">deal.II/dofs/dof_handler.h</text>
</a>
</g>
</g>
<!-- Node6&#45;&gt;Node16 -->
<g id="edge34_Node000006_Node000016" class="edge">
<title>Node6&#45;&gt;Node16</title>
<g id="a_edge34_Node000006_Node000016"><a xlink:title=" ">
<path fill="none" stroke="#63b8ff" d="M1000.99,-203.31C1029.68,-188.57 1079.66,-157.75 1055.73,-132 1018.49,-91.93 619.01,-102.78 564.73,-96 556.38,-94.96 547.58,-93.63 539,-92.2"/>
<polygon fill="#63b8ff" stroke="#63b8ff" points="539.52,-88.74 529.07,-90.5 538.33,-95.64 539.52,-88.74"/>
</a>
</g>
</g>
<!-- Node24 -->
<g id="Node000024" class="node">
<title>Node24</title>
<g id="a_Node000024"><a xlink:title=" ">
<polygon fill="#e0e0e0" stroke="#999999" points="1358.73,-162 1206.73,-162 1206.73,-132 1358.73,-132 1358.73,-162"/>
<text text-anchor="start" x="1214.73" y="-150" font-family="Helvetica,sans-Serif" font-size="10.00">deal.II/base/auto_derivative</text>
<text text-anchor="middle" x="1282.73" y="-139" font-family="Helvetica,sans-Serif" font-size="10.00">_function.h</text>
</a>
</g>
</g>
<!-- Node6&#45;&gt;Node24 -->
<g id="edge28_Node000006_Node000024" class="edge">
<title>Node6&#45;&gt;Node24</title>
<g id="a_edge28_Node000006_Node000024"><a xlink:title=" ">
<path fill="none" stroke="#63b8ff" d="M1022.26,-203.57C1069.11,-193.57 1148.22,-176.69 1207,-164.16"/>
<polygon fill="#63b8ff" stroke="#63b8ff" points="1207.93,-167.54 1216.98,-162.03 1206.47,-160.69 1207.93,-167.54"/>
</a>
</g>
</g>
<!-- Node25 -->
<g id="Node000025" class="node">
<title>Node25</title>
<g id="a_Node000025"><a xlink:title=" ">
<polygon fill="#e0e0e0" stroke="#999999" points="1502.23,-156.5 1377.23,-156.5 1377.23,-137.5 1502.23,-137.5 1502.23,-156.5"/>
<text text-anchor="middle" x="1439.73" y="-144.5" font-family="Helvetica,sans-Serif" font-size="10.00">deal.II/base/function.h</text>
</a>
</g>
</g>
<!-- Node6&#45;&gt;Node25 -->
<g id="edge29_Node000006_Node000025" class="edge">
<title>Node6&#45;&gt;Node25</title>
<g id="a_edge29_Node000006_Node000025"><a xlink:title=" ">
<path fill="none" stroke="#63b8ff" d="M1022.47,-207.67C1092.45,-199.87 1242.14,-182.34 1367.73,-162 1374.4,-160.92 1381.4,-159.68 1388.31,-158.41"/>
<polygon fill="#63b8ff" stroke="#63b8ff" points="1389.13,-161.81 1398.31,-156.52 1387.83,-154.93 1389.13,-161.81"/>
</a>
</g>
</g>
<!-- Node26 -->
<g id="Node000026" class="node">
<title>Node26</title>
<g id="a_Node000026"><a xlink:title=" ">
<polygon fill="#e0e0e0" stroke="#999999" points="1644.73,-156.5 1520.73,-156.5 1520.73,-137.5 1644.73,-137.5 1644.73,-156.5"/>
<text text-anchor="middle" x="1582.73" y="-144.5" font-family="Helvetica,sans-Serif" font-size="10.00">deal.II/grid/manifold.h</text>
</a>
</g>
</g>
<!-- Node6&#45;&gt;Node26 -->
<g id="edge30_Node000006_Node000026" class="edge">
<title>Node6&#45;&gt;Node26</title>
<g id="a_edge30_Node000006_Node000026"><a xlink:title=" ">
<path fill="none" stroke="#63b8ff" d="M1022.37,-209.62C1110.62,-204.02 1329.83,-188.46 1511.73,-162 1518.58,-161 1525.77,-159.79 1532.83,-158.49"/>
<polygon fill="#63b8ff" stroke="#63b8ff" points="1533.87,-161.86 1543.04,-156.56 1532.57,-154.98 1533.87,-161.86"/>
</a>
</g>
</g>
<!-- Node27 -->
<g id="Node000027" class="node">
<title>Node27</title>
<g id="a_Node000027"><a xlink:title=" ">
<polygon fill="#e0e0e0" stroke="#999999" points="301.23,-162 186.23,-162 186.23,-132 301.23,-132 301.23,-162"/>
<text text-anchor="start" x="194.23" y="-150" font-family="Helvetica,sans-Serif" font-size="10.00">deal.II/grid/manifold</text>
<text text-anchor="middle" x="243.73" y="-139" font-family="Helvetica,sans-Serif" font-size="10.00">_lib.h</text>
</a>
</g>
</g>
<!-- Node6&#45;&gt;Node27 -->
<g id="edge31_Node000006_Node000027" class="edge">
<title>Node6&#45;&gt;Node27</title>
<g id="a_edge31_Node000006_Node000027"><a xlink:title=" ">
<path fill="none" stroke="#63b8ff" d="M943.08,-210.92C840.27,-207.72 556.57,-196.38 311.41,-162.11"/>
<polygon fill="#63b8ff" stroke="#63b8ff" points="311.63,-158.61 301.24,-160.68 310.65,-165.54 311.63,-158.61"/>
</a>
</g>
</g>
<!-- Node28 -->
<g id="Node000028" class="node">
<title>Node28</title>
<g id="a_Node000028"><a xlink:title=" ">
<polygon fill="#e0e0e0" stroke="#999999" points="434.23,-162 319.23,-162 319.23,-132 434.23,-132 434.23,-162"/>
<text text-anchor="start" x="327.23" y="-150" font-family="Helvetica,sans-Serif" font-size="10.00">boost/range/adaptor</text>
<text text-anchor="middle" x="376.73" y="-139" font-family="Helvetica,sans-Serif" font-size="10.00">/map.hpp</text>
</a>
</g>
</g>
<!-- Node6&#45;&gt;Node28 -->
<g id="edge32_Node000006_Node000028" class="edge">
<title>Node6&#45;&gt;Node28</title>
<g id="a_edge32_Node000006_Node000028"><a xlink:title=" ">
<path fill="none" stroke="#63b8ff" d="M942.98,-209.86C854.99,-204.8 636.98,-190.42 444.42,-161.98"/>
<polygon fill="#63b8ff" stroke="#63b8ff" points="444.8,-158.5 434.4,-160.48 443.77,-165.42 444.8,-158.5"/>
</a>
</g>
</g>
<!-- Node29 -->
<g id="Node000029" class="node">
<title>Node29</title>
<g id="a_Node000029"><a xlink:title=" ">
<polygon fill="#e0e0e0" stroke="#999999" points="568.73,-162 452.73,-162 452.73,-132 568.73,-132 568.73,-162"/>
<text text-anchor="start" x="460.73" y="-150" font-family="Helvetica,sans-Serif" font-size="10.00">deal.II/base/function</text>
<text text-anchor="middle" x="510.73" y="-139" font-family="Helvetica,sans-Serif" font-size="10.00">_signed_distance.h</text>
</a>
</g>
</g>
<!-- Node6&#45;&gt;Node29 -->
<g id="edge33_Node000006_Node000029" class="edge">
<title>Node6&#45;&gt;Node29</title>
<g id="a_edge33_Node000006_Node000029"><a xlink:title=" ">
<path fill="none" stroke="#63b8ff" d="M943.19,-208.22C872.25,-201.2 718.47,-184.91 578.81,-162.09"/>
<polygon fill="#63b8ff" stroke="#63b8ff" points="579.21,-158.61 568.78,-160.44 578.07,-165.52 579.21,-158.61"/>
</a>
</g>
</g>
<!-- Node30 -->
<g id="Node000030" class="node">
<title>Node30</title>
<g id="a_Node000030"><a xlink:title=" ">
<polygon fill="#e0e0e0" stroke="#999999" points="714.73,-156.5 586.73,-156.5 586.73,-137.5 714.73,-137.5 714.73,-156.5"/>
<text text-anchor="middle" x="650.73" y="-144.5" font-family="Helvetica,sans-Serif" font-size="10.00">deal.II/dofs/dof_tools.h</text>
</a>
</g>
</g>
<!-- Node6&#45;&gt;Node30 -->
<g id="edge35_Node000006_Node000030" class="edge">
<title>Node6&#45;&gt;Node30</title>
<g id="a_edge35_Node000006_Node000030"><a xlink:title=" ">
<path fill="none" stroke="#63b8ff" d="M943.01,-204.34C883.66,-192.9 771.69,-171.32 704.89,-158.44"/>
<polygon fill="#63b8ff" stroke="#63b8ff" points="705.46,-154.99 694.98,-156.53 704.13,-161.86 705.46,-154.99"/>
</a>
</g>
</g>
<!-- Node31 -->
<g id="Node000031" class="node">
<title>Node31</title>
<g id="a_Node000031"><a xlink:title=" ">
<polygon fill="#e0e0e0" stroke="#999999" points="908.73,-156.5 732.73,-156.5 732.73,-137.5 908.73,-137.5 908.73,-156.5"/>
<text text-anchor="middle" x="820.73" y="-144.5" font-family="Helvetica,sans-Serif" font-size="10.00">deal.II/physics/transformations.h</text>
</a>
</g>
</g>
<!-- Node6&#45;&gt;Node31 -->
<g id="edge36_Node000006_Node000031" class="edge">
<title>Node6&#45;&gt;Node31</title>
<g id="a_edge36_Node000006_Node000031"><a xlink:title=" ">
<path fill="none" stroke="#63b8ff" d="M960.88,-203.37C932.78,-192.27 883.8,-172.92 851.82,-160.28"/>
<polygon fill="#63b8ff" stroke="#63b8ff" points="853.07,-157.02 842.49,-156.6 850.5,-163.53 853.07,-157.02"/>
</a>
</g>
</g>
<!-- Node32 -->
<g id="Node000032" class="node">
<title>Node32</title>
<g id="a_Node000032"><a xlink:title=" ">
<polygon fill="#e0e0e0" stroke="#999999" points="970.73,-156.5 926.73,-156.5 926.73,-137.5 970.73,-137.5 970.73,-156.5"/>
<text text-anchor="middle" x="948.73" y="-144.5" font-family="Helvetica,sans-Serif" font-size="10.00">cfloat</text>
</a>
</g>
</g>
<!-- Node6&#45;&gt;Node32 -->
<g id="edge37_Node000006_Node000032" class="edge">
<title>Node6&#45;&gt;Node32</title>
<g id="a_edge37_Node000006_Node000032"><a xlink:title=" ">
<path fill="none" stroke="#63b8ff" d="M978.14,-203.37C973.05,-193.78 964.69,-178.05 958.18,-165.8"/>
<polygon fill="#63b8ff" stroke="#63b8ff" points="961.24,-164.09 953.46,-156.91 955.06,-167.38 961.24,-164.09"/>
</a>
</g>
</g>
<!-- Node33 -->
<g id="Node000033" class="node">
<title>Node33</title>
<g id="a_Node000033"><a xlink:title=" ">
<polygon fill="#e0e0e0" stroke="#999999" points="1046.73,-156.5 988.73,-156.5 988.73,-137.5 1046.73,-137.5 1046.73,-156.5"/>
<text text-anchor="middle" x="1017.73" y="-144.5" font-family="Helvetica,sans-Serif" font-size="10.00">memory</text>
</a>
</g>
</g>
<!-- Node6&#45;&gt;Node33 -->
<g id="edge38_Node000006_Node000033" class="edge">
<title>Node6&#45;&gt;Node33</title>
<g id="a_edge38_Node000006_Node000033"><a xlink:title=" ">
<path fill="none" stroke="#63b8ff" d="M987.45,-203.37C992.69,-193.78 1001.29,-178.05 1007.99,-165.8"/>
<polygon fill="#63b8ff" stroke="#63b8ff" points="1011.13,-167.36 1012.86,-156.91 1004.99,-164 1011.13,-167.36"/>
</a>
</g>
</g>
<!-- Node7&#45;&gt;Node8 -->
<g id="edge7_Node000007_Node000008" class="edge">
<title>Node7&#45;&gt;Node8</title>
<g id="a_edge7_Node000007_Node000008"><a xlink:title=" ">
<path fill="none" stroke="#63b8ff" d="M91.73,-131.8C91.73,-122.7 91.73,-110.79 91.73,-100.9"/>
<polygon fill="#63b8ff" stroke="#63b8ff" points="95.23,-100.84 91.73,-90.84 88.23,-100.84 95.23,-100.84"/>
</a>
</g>
</g>
<!-- Node9 -->
<g id="Node000009" class="node">
<title>Node9</title>
<g id="a_Node000009"><a xlink:title=" ">
<polygon fill="#e0e0e0" stroke="#999999" points="339.23,-90.5 224.23,-90.5 224.23,-71.5 339.23,-71.5 339.23,-90.5"/>
<text text-anchor="middle" x="281.73" y="-78.5" font-family="Helvetica,sans-Serif" font-size="10.00">deal.II/base/tensor.h</text>
</a>
</g>
</g>
<!-- Node7&#45;&gt;Node9 -->
<g id="edge8_Node000007_Node000009" class="edge">
<title>Node7&#45;&gt;Node9</title>
<g id="a_edge8_Node000007_Node000009"><a xlink:title=" ">
<path fill="none" stroke="#63b8ff" d="M133.42,-131.95C167.33,-120.53 214.63,-104.6 246.63,-93.82"/>
<polygon fill="#63b8ff" stroke="#63b8ff" points="248.08,-97.03 256.44,-90.52 245.85,-90.39 248.08,-97.03"/>
</a>
</g>
</g>
<!-- Node10&#45;&gt;Node4 -->
<g id="edge25_Node000010_Node000004" class="edge">
<title>Node10&#45;&gt;Node4</title>
<g id="a_edge25_Node000010_Node000004"><a xlink:title=" ">
<path fill="none" stroke="#63b8ff" d="M1173.3,-137.49C1181.13,-135.37 1189.7,-133.33 1197.73,-132 1440.72,-91.79 1511.76,-155.65 1750.73,-96 1752.46,-95.57 1754.22,-95.04 1755.97,-94.45"/>
<polygon fill="#63b8ff" stroke="#63b8ff" points="1757.73,-97.51 1765.71,-90.55 1755.13,-91.02 1757.73,-97.51"/>
</a>
</g>
</g>
<!-- Node10&#45;&gt;Node5 -->
<g id="edge27_Node000010_Node000005" class="edge">
<title>Node10&#45;&gt;Node5</title>
<g id="a_edge27_Node000010_Node000005"><a xlink:title=" ">
<path fill="none" stroke="#63b8ff" d="M1173.29,-137.45C1181.12,-135.34 1189.7,-133.3 1197.73,-132 1468,-88.18 1546.13,-158.38 1812.73,-96 1814.89,-95.49 1817.1,-94.85 1819.29,-94.13"/>
<polygon fill="#63b8ff" stroke="#63b8ff" points="1820.54,-97.4 1828.63,-90.56 1818.04,-90.86 1820.54,-97.4"/>
</a>
</g>
</g>
<!-- Node10&#45;&gt;Node8 -->
<g id="edge15_Node000010_Node000008" class="edge">
<title>Node10&#45;&gt;Node8</title>
<g id="a_edge15_Node000010_Node000008"><a xlink:title=" ">
<path fill="none" stroke="#63b8ff" d="M1102.36,-138.25C1087.61,-135.88 1070.99,-133.51 1055.73,-132 683.42,-95.19 587.71,-125.17 214.73,-96 195.93,-94.53 175.56,-92.42 156.92,-90.29"/>
<polygon fill="#63b8ff" stroke="#63b8ff" points="157.09,-86.78 146.75,-89.1 156.28,-93.74 157.09,-86.78"/>
</a>
</g>
</g>
<!-- Node10&#45;&gt;Node9 -->
<g id="edge17_Node000010_Node000009" class="edge">
<title>Node10&#45;&gt;Node9</title>
<g id="a_edge17_Node000010_Node000009"><a xlink:title=" ">
<path fill="none" stroke="#63b8ff" d="M1102.35,-138.36C1087.6,-136 1070.98,-133.61 1055.73,-132 768.43,-101.76 694.61,-120.09 406.73,-96 388.18,-94.45 368.13,-92.38 349.63,-90.31"/>
<polygon fill="#63b8ff" stroke="#63b8ff" points="349.87,-86.81 339.54,-89.16 349.08,-93.77 349.87,-86.81"/>
</a>
</g>
</g>
<!-- Node11 -->
<g id="Node000011" class="node">
<title>Node11</title>
<g id="a_Node000011"><a xlink:href="output__struct_8h.html" target="_top" xlink:title=" ">
<polygon fill="white" stroke="#666666" points="915.73,-90.5 801.73,-90.5 801.73,-71.5 915.73,-71.5 915.73,-90.5"/>
<text text-anchor="middle" x="858.73" y="-78.5" font-family="Helvetica,sans-Serif" font-size="10.00">core/output_struct.h</text>
</a>
</g>
</g>
<!-- Node10&#45;&gt;Node11 -->
<g id="edge10_Node000010_Node000011" class="edge">
<title>Node10&#45;&gt;Node11</title>
<g id="a_edge10_Node000010_Node000011"><a xlink:title=" ">
<path fill="none" stroke="#63b8ff" d="M1111.7,-137.49C1104.15,-135.64 1096.17,-133.72 1088.73,-132 1055.02,-124.2 965.27,-104.84 908.37,-92.63"/>
<polygon fill="#63b8ff" stroke="#63b8ff" points="909.01,-89.19 898.5,-90.51 907.54,-96.03 909.01,-89.19"/>
</a>
</g>
</g>
<!-- Node12 -->
<g id="Node000012" class="node">
<title>Node12</title>
<g id="a_Node000012"><a xlink:title=" ">
<polygon fill="#e0e0e0" stroke="#999999" points="824.23,-30 723.23,-30 723.23,0 824.23,0 824.23,-30"/>
<text text-anchor="start" x="731.23" y="-18" font-family="Helvetica,sans-Serif" font-size="10.00">deal.II/base/table</text>
<text text-anchor="middle" x="773.73" y="-7" font-family="Helvetica,sans-Serif" font-size="10.00">_handler.h</text>
</a>
</g>
</g>
<!-- Node10&#45;&gt;Node12 -->
<g id="edge16_Node000010_Node000012" class="edge">
<title>Node10&#45;&gt;Node12</title>
<g id="a_edge16_Node000010_Node000012"><a xlink:title=" ">
<path fill="none" stroke="#63b8ff" d="M1113.92,-137.47C1105.75,-135.48 1096.95,-133.5 1088.73,-132 1023.55,-120.08 842.13,-140.15 792.73,-96 777.32,-82.23 773.26,-58.45 772.64,-40.38"/>
<polygon fill="#63b8ff" stroke="#63b8ff" points="776.14,-40.26 772.63,-30.27 769.14,-40.28 776.14,-40.26"/>
</a>
</g>
</g>
<!-- Node14 -->
<g id="Node000014" class="node">
<title>Node14</title>
<g id="a_Node000014"><a xlink:title=" ">
<polygon fill="#e0e0e0" stroke="#999999" points="1063.73,-96 933.73,-96 933.73,-66 1063.73,-66 1063.73,-96"/>
<text text-anchor="start" x="941.73" y="-84" font-family="Helvetica,sans-Serif" font-size="10.00">deal.II/base/conditional</text>
<text text-anchor="middle" x="998.73" y="-73" font-family="Helvetica,sans-Serif" font-size="10.00">_ostream.h</text>
</a>
</g>
</g>
<!-- Node10&#45;&gt;Node14 -->
<g id="edge13_Node000010_Node000014" class="edge">
<title>Node10&#45;&gt;Node14</title>
<g id="a_edge13_Node000010_Node000014"><a xlink:title=" ">
<path fill="none" stroke="#63b8ff" d="M1125.9,-137.37C1104.08,-127.87 1068.36,-112.32 1040.33,-100.11"/>
<polygon fill="#63b8ff" stroke="#63b8ff" points="1041.71,-96.9 1031.15,-96.12 1038.92,-103.32 1041.71,-96.9"/>
</a>
</g>
</g>
<!-- Node15 -->
<g id="Node000015" class="node">
<title>Node15</title>
<g id="a_Node000015"><a xlink:title=" ">
<polygon fill="#e0e0e0" stroke="#999999" points="1209.23,-96 1082.23,-96 1082.23,-66 1209.23,-66 1209.23,-96"/>
<text text-anchor="start" x="1090.23" y="-84" font-family="Helvetica,sans-Serif" font-size="10.00">deal.II/base/parameter</text>
<text text-anchor="middle" x="1145.73" y="-73" font-family="Helvetica,sans-Serif" font-size="10.00">_handler.h</text>
</a>
</g>
</g>
<!-- Node10&#45;&gt;Node15 -->
<g id="edge14_Node000010_Node000015" class="edge">
<title>Node10&#45;&gt;Node15</title>
<g id="a_edge14_Node000010_Node000015"><a xlink:title=" ">
<path fill="none" stroke="#63b8ff" d="M1145.73,-137.37C1145.73,-129.49 1145.73,-117.45 1145.73,-106.6"/>
<polygon fill="#63b8ff" stroke="#63b8ff" points="1149.23,-106.36 1145.73,-96.36 1142.23,-106.36 1149.23,-106.36"/>
</a>
</g>
</g>
<!-- Node10&#45;&gt;Node16 -->
<g id="edge18_Node000010_Node000016" class="edge">
<title>Node10&#45;&gt;Node16</title>
<g id="a_edge18_Node000010_Node000016"><a xlink:title=" ">
<path fill="none" stroke="#63b8ff" d="M1115.16,-137.46C1106.66,-135.37 1097.39,-133.35 1088.73,-132 858.08,-96.03 796.43,-124.41 564.73,-96 556.38,-94.98 547.58,-93.66 538.99,-92.24"/>
<polygon fill="#63b8ff" stroke="#63b8ff" points="539.51,-88.78 529.06,-90.54 538.33,-95.68 539.51,-88.78"/>
</a>
</g>
</g>
<!-- Node17 -->
<g id="Node000017" class="node">
<title>Node17</title>
<g id="a_Node000017"><a xlink:title=" ">
<polygon fill="#e0e0e0" stroke="#999999" points="1346.23,-90.5 1227.23,-90.5 1227.23,-71.5 1346.23,-71.5 1346.23,-90.5"/>
<text text-anchor="middle" x="1286.73" y="-78.5" font-family="Helvetica,sans-Serif" font-size="10.00">deal.II/fe/fe_values.h</text>
</a>
</g>
</g>
<!-- Node10&#45;&gt;Node17 -->
<g id="edge19_Node000010_Node000017" class="edge">
<title>Node10&#45;&gt;Node17</title>
<g id="a_edge19_Node000010_Node000017"><a xlink:title=" ">
<path fill="none" stroke="#63b8ff" d="M1164.74,-137.37C1188.82,-126.44 1230.5,-107.52 1258.34,-94.88"/>
<polygon fill="#63b8ff" stroke="#63b8ff" points="1259.9,-98.02 1267.56,-90.7 1257.01,-91.65 1259.9,-98.02"/>
</a>
</g>
</g>
<!-- Node18 -->
<g id="Node000018" class="node">
<title>Node18</title>
<g id="a_Node000018"><a xlink:title=" ">
<polygon fill="#e0e0e0" stroke="#999999" points="1495.23,-96 1364.23,-96 1364.23,-66 1495.23,-66 1495.23,-96"/>
<text text-anchor="start" x="1372.23" y="-84" font-family="Helvetica,sans-Serif" font-size="10.00">deal.II/particles/particle</text>
<text text-anchor="middle" x="1429.73" y="-73" font-family="Helvetica,sans-Serif" font-size="10.00">_iterator.h</text>
</a>
</g>
</g>
<!-- Node10&#45;&gt;Node18 -->
<g id="edge20_Node000010_Node000018" class="edge">
<title>Node10&#45;&gt;Node18</title>
<g id="a_edge20_Node000010_Node000018"><a xlink:title=" ">
<path fill="none" stroke="#63b8ff" d="M1176.46,-137.45C1183.43,-135.59 1190.82,-133.67 1197.73,-132 1249.66,-119.42 1308.52,-106.75 1353.95,-97.32"/>
<polygon fill="#63b8ff" stroke="#63b8ff" points="1354.94,-100.69 1364.02,-95.23 1353.52,-93.83 1354.94,-100.69"/>
</a>
</g>
</g>
<!-- Node19 -->
<g id="Node000019" class="node">
<title>Node19</title>
<g id="a_Node000019"><a xlink:title=" ">
<polygon fill="#e0e0e0" stroke="#999999" points="1618.23,-96 1513.23,-96 1513.23,-66 1618.23,-66 1618.23,-96"/>
<text text-anchor="start" x="1521.23" y="-84" font-family="Helvetica,sans-Serif" font-size="10.00">boost/archive/text</text>
<text text-anchor="middle" x="1565.73" y="-73" font-family="Helvetica,sans-Serif" font-size="10.00">_iarchive.hpp</text>
</a>
</g>
</g>
<!-- Node10&#45;&gt;Node19 -->
<g id="edge21_Node000010_Node000019" class="edge">
<title>Node10&#45;&gt;Node19</title>
<g id="a_edge21_Node000010_Node000019"><a xlink:title=" ">
<path fill="none" stroke="#63b8ff" d="M1174.43,-137.47C1181.96,-135.45 1190.11,-133.46 1197.73,-132 1329.48,-106.68 1367.58,-118.8 1502.98,-96.18"/>
<polygon fill="#63b8ff" stroke="#63b8ff" points="1503.63,-99.62 1512.9,-94.5 1502.45,-92.72 1503.63,-99.62"/>
</a>
</g>
</g>
<!-- Node20 -->
<g id="Node000020" class="node">
<title>Node20</title>
<g id="a_Node000020"><a xlink:title=" ">
<polygon fill="#e0e0e0" stroke="#999999" points="1741.23,-96 1636.23,-96 1636.23,-66 1741.23,-66 1741.23,-96"/>
<text text-anchor="start" x="1644.23" y="-84" font-family="Helvetica,sans-Serif" font-size="10.00">boost/archive/text</text>
<text text-anchor="middle" x="1688.73" y="-73" font-family="Helvetica,sans-Serif" font-size="10.00">_oarchive.hpp</text>
</a>
</g>
</g>
<!-- Node10&#45;&gt;Node20 -->
<g id="edge22_Node000010_Node000020" class="edge">
<title>Node10&#45;&gt;Node20</title>
<g id="a_edge22_Node000010_Node000020"><a xlink:title=" ">
<path fill="none" stroke="#63b8ff" d="M1173.86,-137.44C1181.54,-135.37 1189.9,-133.37 1197.73,-132 1383.41,-99.5 1436.43,-124.63 1625.91,-96.14"/>
<polygon fill="#63b8ff" stroke="#63b8ff" points="1626.56,-99.58 1635.91,-94.6 1625.5,-92.66 1626.56,-99.58"/>
</a>
</g>
</g>
<!-- Node21 -->
<g id="Node000021" class="node">
<title>Node21</title>
<g id="a_Node000021"><a xlink:title=" ">
<polygon fill="#e0e0e0" stroke="#999999" points="629.23,-90.5 574.23,-90.5 574.23,-71.5 629.23,-71.5 629.23,-90.5"/>
<text text-anchor="middle" x="601.73" y="-78.5" font-family="Helvetica,sans-Serif" font-size="10.00">fstream</text>
</a>
</g>
</g>
<!-- Node10&#45;&gt;Node21 -->
<g id="edge23_Node000010_Node000021" class="edge">
<title>Node10&#45;&gt;Node21</title>
<g id="a_edge23_Node000010_Node000021"><a xlink:title=" ">
<path fill="none" stroke="#63b8ff" d="M1114.85,-137.46C1106.43,-135.39 1097.28,-133.38 1088.73,-132 890.66,-99.97 834.5,-139.94 638.73,-96 636.21,-95.43 633.63,-94.73 631.06,-93.95"/>
<polygon fill="#63b8ff" stroke="#63b8ff" points="631.98,-90.56 621.38,-90.61 629.7,-97.18 631.98,-90.56"/>
</a>
</g>
</g>
<!-- Node22 -->
<g id="Node000022" class="node">
<title>Node22</title>
<g id="a_Node000022"><a xlink:title=" ">
<polygon fill="#e0e0e0" stroke="#999999" points="685.73,-90.5 647.73,-90.5 647.73,-71.5 685.73,-71.5 685.73,-90.5"/>
<text text-anchor="middle" x="666.73" y="-78.5" font-family="Helvetica,sans-Serif" font-size="10.00">map</text>
</a>
</g>
</g>
<!-- Node10&#45;&gt;Node22 -->
<g id="edge24_Node000010_Node000022" class="edge">
<title>Node10&#45;&gt;Node22</title>
<g id="a_edge24_Node000010_Node000022"><a xlink:title=" ">
<path fill="none" stroke="#63b8ff" d="M1114.54,-137.45C1106.21,-135.41 1097.17,-133.41 1088.73,-132 915.3,-102.95 863.85,-144.15 694.73,-96 693.46,-95.64 692.19,-95.22 690.91,-94.76"/>
<polygon fill="#63b8ff" stroke="#63b8ff" points="691.99,-91.41 681.42,-90.63 689.19,-97.83 691.99,-91.41"/>
</a>
</g>
</g>
<!-- Node23 -->
<g id="Node000023" class="node">
<title>Node23</title>
<g id="a_Node000023"><a xlink:title=" ">
<polygon fill="#e0e0e0" stroke="#999999" points="745.23,-90.5 704.23,-90.5 704.23,-71.5 745.23,-71.5 745.23,-90.5"/>
<text text-anchor="middle" x="724.73" y="-78.5" font-family="Helvetica,sans-Serif" font-size="10.00">tuple</text>
</a>
</g>
</g>
<!-- Node10&#45;&gt;Node23 -->
<g id="edge26_Node000010_Node000023" class="edge">
<title>Node10&#45;&gt;Node23</title>
<g id="a_edge26_Node000010_Node000023"><a xlink:title=" ">
<path fill="none" stroke="#63b8ff" d="M1114.23,-137.48C1105.98,-135.46 1097.06,-133.47 1088.73,-132 943.88,-106.4 902.44,-131.64 759.73,-96 757.42,-95.42 755.07,-94.73 752.73,-93.96"/>
<polygon fill="#63b8ff" stroke="#63b8ff" points="753.9,-90.67 743.31,-90.52 751.5,-97.24 753.9,-90.67"/>
</a>
</g>
</g>
<!-- Node11&#45;&gt;Node12 -->
<g id="edge11_Node000011_Node000012" class="edge">
<title>Node11&#45;&gt;Node12</title>
<g id="a_edge11_Node000011_Node000012"><a xlink:title=" ">
<path fill="none" stroke="#63b8ff" d="M847.26,-71.37C835.41,-62.44 816.48,-48.19 800.79,-36.38"/>
<polygon fill="#63b8ff" stroke="#63b8ff" points="802.57,-33.33 792.47,-30.12 798.36,-38.93 802.57,-33.33"/>
</a>
</g>
</g>
<!-- Node13 -->
<g id="Node000013" class="node">
<title>Node13</title>
<g id="a_Node000013"><a xlink:title=" ">
<polygon fill="#e0e0e0" stroke="#999999" points="961.23,-30 842.23,-30 842.23,0 961.23,0 961.23,-30"/>
<text text-anchor="start" x="850.23" y="-18" font-family="Helvetica,sans-Serif" font-size="10.00">deal.II/numerics/data</text>
<text text-anchor="middle" x="901.73" y="-7" font-family="Helvetica,sans-Serif" font-size="10.00">_postprocessor.h</text>
</a>
</g>
</g>
<!-- Node11&#45;&gt;Node13 -->
<g id="edge12_Node000011_Node000013" class="edge">
<title>Node11&#45;&gt;Node13</title>
<g id="a_edge12_Node000011_Node000013"><a xlink:title=" ">
<path fill="none" stroke="#63b8ff" d="M864.53,-71.37C870.1,-63.08 878.76,-50.18 886.33,-38.92"/>
<polygon fill="#63b8ff" stroke="#63b8ff" points="889.41,-40.61 892.08,-30.36 883.6,-36.71 889.41,-40.61"/>
</a>
</g>
</g>
</g>
</svg>
