<?xml version="1.0" encoding="UTF-8" standalone="no"?>
<!DOCTYPE svg PUBLIC "-//W3C//DTD SVG 1.1//EN"
 "http://www.w3.org/Graphics/SVG/1.1/DTD/svg11.dtd">
<!-- Generated by graphviz version 2.43.0 (0)
 -->
<!-- Title: /home/runner/work/lethe/lethe/include/core/ib_particle.h Pages: 1 -->
<svg width="1832pt" height="313pt"
 viewBox="0.00 0.00 1832.37 313.00" xmlns="http://www.w3.org/2000/svg" xmlns:xlink="http://www.w3.org/1999/xlink">
<g id="graph0" class="graph" transform="scale(1 1) rotate(0) translate(4 309)">
<title>/home/runner/work/lethe/lethe/include/core/ib_particle.h</title>
<!-- Node1 -->
<g id="Node000001" class="node">
<title>Node1</title>
<g id="a_Node000001"><a xlink:title=" ">
<polygon fill="#999999" stroke="#666666" points="235.87,-305 98.87,-305 98.87,-264 235.87,-264 235.87,-305"/>
<text text-anchor="start" x="106.87" y="-293" font-family="Helvetica,sans-Serif" font-size="10.00">/home/runner/work/lethe</text>
<text text-anchor="start" x="106.87" y="-282" font-family="Helvetica,sans-Serif" font-size="10.00">/lethe/include/core/ib</text>
<text text-anchor="middle" x="167.37" y="-271" font-family="Helvetica,sans-Serif" font-size="10.00">_particle.h</text>
</a>
</g>
</g>
<!-- Node2 -->
<g id="Node000002" class="node">
<title>Node2</title>
<g id="a_Node000002"><a xlink:href="dem__properties_8h.html" target="_top" xlink:title="DEM particle property definitions and output name management.">
<polygon fill="white" stroke="#666666" points="139.37,-156.5 13.37,-156.5 13.37,-137.5 139.37,-137.5 139.37,-156.5"/>
<text text-anchor="middle" x="76.37" y="-144.5" font-family="Helvetica,sans-Serif" font-size="10.00">core/dem_properties.h</text>
</a>
</g>
</g>
<!-- Node1&#45;&gt;Node2 -->
<g id="edge1_Node000001_Node000002" class="edge">
<title>Node1&#45;&gt;Node2</title>
<g id="a_edge1_Node000001_Node000002"><a xlink:title=" ">
<path fill="none" stroke="#63b8ff" d="M154.13,-263.8C136.3,-237.24 104.84,-190.4 87.92,-165.2"/>
<polygon fill="#63b8ff" stroke="#63b8ff" points="90.68,-163.04 82.2,-156.69 84.87,-166.94 90.68,-163.04"/>
</a>
</g>
</g>
<!-- Node4 -->
<g id="Node000004" class="node">
<title>Node4</title>
<g id="a_Node000004"><a xlink:title=" ">
<polygon fill="#e0e0e0" stroke="#999999" points="84.87,-90.5 37.87,-90.5 37.87,-71.5 84.87,-71.5 84.87,-90.5"/>
<text text-anchor="middle" x="61.37" y="-78.5" font-family="Helvetica,sans-Serif" font-size="10.00">vector</text>
</a>
</g>
</g>
<!-- Node1&#45;&gt;Node4 -->
<g id="edge40_Node000001_Node000004" class="edge">
<title>Node1&#45;&gt;Node4</title>
<g id="a_edge40_Node000001_Node000004"><a xlink:title=" ">
<path fill="none" stroke="#63b8ff" d="M121.59,-263.95C82.43,-244.46 28.67,-210.42 4.37,-162 -1.61,-150.08 -1.14,-144.15 4.37,-132 11.14,-117.04 24.84,-104.79 37.12,-96.16"/>
<polygon fill="#63b8ff" stroke="#63b8ff" points="39.25,-98.95 45.68,-90.53 35.4,-93.1 39.25,-98.95"/>
</a>
</g>
</g>
<!-- Node5 -->
<g id="Node000005" class="node">
<title>Node5</title>
<g id="a_Node000005"><a xlink:href="shape_8h.html" target="_top" xlink:title=" ">
<polygon fill="white" stroke="#666666" points="892.87,-222.5 813.87,-222.5 813.87,-203.5 892.87,-203.5 892.87,-222.5"/>
<text text-anchor="middle" x="853.37" y="-210.5" font-family="Helvetica,sans-Serif" font-size="10.00">core/shape.h</text>
</a>
</g>
</g>
<!-- Node1&#45;&gt;Node5 -->
<g id="edge4_Node000001_Node000005" class="edge">
<title>Node1&#45;&gt;Node5</title>
<g id="a_edge4_Node000001_Node000005"><a xlink:title=" ">
<path fill="none" stroke="#63b8ff" d="M235.97,-276.55C374.12,-262.55 682.95,-231.27 803.66,-219.04"/>
<polygon fill="#63b8ff" stroke="#63b8ff" points="804.13,-222.51 813.73,-218.02 803.43,-215.54 804.13,-222.51"/>
</a>
</g>
</g>
<!-- Node7 -->
<g id="Node000007" class="node">
<title>Node7</title>
<g id="a_Node000007"><a xlink:title=" ">
<polygon fill="#e0e0e0" stroke="#999999" points="275.37,-90.5 165.37,-90.5 165.37,-71.5 275.37,-71.5 275.37,-90.5"/>
<text text-anchor="middle" x="220.37" y="-78.5" font-family="Helvetica,sans-Serif" font-size="10.00">deal.II/base/point.h</text>
</a>
</g>
</g>
<!-- Node1&#45;&gt;Node7 -->
<g id="edge39_Node000001_Node000007" class="edge">
<title>Node1&#45;&gt;Node7</title>
<g id="a_edge39_Node000001_Node000007"><a xlink:title=" ">
<path fill="none" stroke="#63b8ff" d="M166.94,-263.67C166.94,-234.04 169.42,-176.89 186.37,-132 190.92,-119.94 198.92,-107.95 206.02,-98.74"/>
<polygon fill="#63b8ff" stroke="#63b8ff" points="208.84,-100.81 212.41,-90.84 203.4,-96.41 208.84,-100.81"/>
</a>
</g>
</g>
<!-- Node33 -->
<g id="Node000033" class="node">
<title>Node33</title>
<g id="a_Node000033"><a xlink:title=" ">
<polygon fill="#e0e0e0" stroke="#999999" points="1019.87,-228 910.87,-228 910.87,-198 1019.87,-198 1019.87,-228"/>
<text text-anchor="start" x="918.87" y="-216" font-family="Helvetica,sans-Serif" font-size="10.00">deal.II/base/parsed</text>
<text text-anchor="middle" x="965.37" y="-205" font-family="Helvetica,sans-Serif" font-size="10.00">_function.h</text>
</a>
</g>
</g>
<!-- Node1&#45;&gt;Node33 -->
<g id="edge38_Node000001_Node000033" class="edge">
<title>Node1&#45;&gt;Node33</title>
<g id="a_edge38_Node000001_Node000033"><a xlink:title=" ">
<path fill="none" stroke="#63b8ff" d="M236.02,-281.51C364.63,-277.09 650.6,-263.95 900.64,-227.95"/>
<polygon fill="#63b8ff" stroke="#63b8ff" points="901.25,-231.4 910.65,-226.5 900.25,-224.47 901.25,-231.4"/>
</a>
</g>
</g>
<!-- Node3 -->
<g id="Node000003" class="node">
<title>Node3</title>
<g id="a_Node000003"><a xlink:title=" ">
<polygon fill="#e0e0e0" stroke="#999999" points="147.37,-90.5 103.37,-90.5 103.37,-71.5 147.37,-71.5 147.37,-90.5"/>
<text text-anchor="middle" x="125.37" y="-78.5" font-family="Helvetica,sans-Serif" font-size="10.00">string</text>
</a>
</g>
</g>
<!-- Node2&#45;&gt;Node3 -->
<g id="edge2_Node000002_Node000003" class="edge">
<title>Node2&#45;&gt;Node3</title>
<g id="a_edge2_Node000002_Node000003"><a xlink:title=" ">
<path fill="none" stroke="#63b8ff" d="M82.97,-137.37C90.46,-127.59 102.84,-111.42 112.29,-99.08"/>
<polygon fill="#63b8ff" stroke="#63b8ff" points="115.25,-100.97 118.55,-90.91 109.69,-96.72 115.25,-100.97"/>
</a>
</g>
</g>
<!-- Node2&#45;&gt;Node4 -->
<g id="edge3_Node000002_Node000004" class="edge">
<title>Node2&#45;&gt;Node4</title>
<g id="a_edge3_Node000002_Node000004"><a xlink:title=" ">
<path fill="none" stroke="#63b8ff" d="M74.34,-137.37C72.16,-128.07 68.63,-112.98 65.8,-100.9"/>
<polygon fill="#63b8ff" stroke="#63b8ff" points="69.14,-99.84 63.45,-90.91 62.33,-101.44 69.14,-99.84"/>
</a>
</g>
</g>
<!-- Node6 -->
<g id="Node000006" class="node">
<title>Node6</title>
<g id="a_Node000006"><a xlink:href="tensors__and__points__dimension__manipulation_8h.html" target="_top" xlink:title=" ">
<polygon fill="white" stroke="#666666" points="825.37,-162 673.37,-162 673.37,-132 825.37,-132 825.37,-162"/>
<text text-anchor="start" x="681.37" y="-150" font-family="Helvetica,sans-Serif" font-size="10.00">core/tensors_and_points</text>
<text text-anchor="middle" x="749.37" y="-139" font-family="Helvetica,sans-Serif" font-size="10.00">_dimension_manipulation.h</text>
</a>
</g>
</g>
<!-- Node5&#45;&gt;Node6 -->
<g id="edge5_Node000005_Node000006" class="edge">
<title>Node5&#45;&gt;Node6</title>
<g id="a_edge5_Node000005_Node000006"><a xlink:title=" ">
<path fill="none" stroke="#63b8ff" d="M839.34,-203.37C824.43,-194.2 800.38,-179.39 780.89,-167.4"/>
<polygon fill="#63b8ff" stroke="#63b8ff" points="782.65,-164.38 772.3,-162.12 778.99,-170.34 782.65,-164.38"/>
</a>
</g>
</g>
<!-- Node9 -->
<g id="Node000009" class="node">
<title>Node9</title>
<g id="a_Node000009"><a xlink:href="core_2utilities_8h.html" target="_top" xlink:title=" ">
<polygon fill="white" stroke="#666666" points="967.37,-156.5 881.37,-156.5 881.37,-137.5 967.37,-137.5 967.37,-156.5"/>
<text text-anchor="middle" x="924.37" y="-144.5" font-family="Helvetica,sans-Serif" font-size="10.00">core/utilities.h</text>
</a>
</g>
</g>
<!-- Node5&#45;&gt;Node9 -->
<g id="edge8_Node000005_Node000009" class="edge">
<title>Node5&#45;&gt;Node9</title>
<g id="a_edge8_Node000005_Node000009"><a xlink:title=" ">
<path fill="none" stroke="#63b8ff" d="M862.94,-203.37C874.21,-193.21 893.13,-176.16 907,-163.65"/>
<polygon fill="#63b8ff" stroke="#63b8ff" points="909.4,-166.2 914.49,-156.91 904.72,-161 909.4,-166.2"/>
</a>
</g>
</g>
<!-- Node15 -->
<g id="Node000015" class="node">
<title>Node15</title>
<g id="a_Node000015"><a xlink:title=" ">
<polygon fill="#e0e0e0" stroke="#999999" points="567.37,-90.5 427.37,-90.5 427.37,-71.5 567.37,-71.5 567.37,-90.5"/>
<text text-anchor="middle" x="497.37" y="-78.5" font-family="Helvetica,sans-Serif" font-size="10.00">deal.II/dofs/dof_handler.h</text>
</a>
</g>
</g>
<!-- Node5&#45;&gt;Node15 -->
<g id="edge33_Node000005_Node000015" class="edge">
<title>Node5&#45;&gt;Node15</title>
<g id="a_edge33_Node000005_Node000015"><a xlink:title=" ">
<path fill="none" stroke="#63b8ff" d="M854.17,-203.47C855.2,-186.97 854.85,-150.64 834.37,-132 791.54,-93.05 633.54,-105.05 576.37,-96 569,-94.83 561.26,-93.54 553.62,-92.23"/>
<polygon fill="#63b8ff" stroke="#63b8ff" points="554.14,-88.77 543.69,-90.5 552.94,-95.66 554.14,-88.77"/>
</a>
</g>
</g>
<!-- Node23 -->
<g id="Node000023" class="node">
<title>Node23</title>
<g id="a_Node000023"><a xlink:title=" ">
<polygon fill="#e0e0e0" stroke="#999999" points="1137.37,-162 985.37,-162 985.37,-132 1137.37,-132 1137.37,-162"/>
<text text-anchor="start" x="993.37" y="-150" font-family="Helvetica,sans-Serif" font-size="10.00">deal.II/base/auto_derivative</text>
<text text-anchor="middle" x="1061.37" y="-139" font-family="Helvetica,sans-Serif" font-size="10.00">_function.h</text>
</a>
</g>
</g>
<!-- Node5&#45;&gt;Node23 -->
<g id="edge27_Node000005_Node000023" class="edge">
<title>Node5&#45;&gt;Node23</title>
<g id="a_edge27_Node000005_Node000023"><a xlink:title=" ">
<path fill="none" stroke="#63b8ff" d="M881.42,-203.37C913.17,-193.6 965.71,-177.43 1005.84,-165.09"/>
<polygon fill="#63b8ff" stroke="#63b8ff" points="1006.96,-168.4 1015.49,-162.12 1004.9,-161.71 1006.96,-168.4"/>
</a>
</g>
</g>
<!-- Node24 -->
<g id="Node000024" class="node">
<title>Node24</title>
<g id="a_Node000024"><a xlink:title=" ">
<polygon fill="#e0e0e0" stroke="#999999" points="1280.87,-156.5 1155.87,-156.5 1155.87,-137.5 1280.87,-137.5 1280.87,-156.5"/>
<text text-anchor="middle" x="1218.37" y="-144.5" font-family="Helvetica,sans-Serif" font-size="10.00">deal.II/base/function.h</text>
</a>
</g>
</g>
<!-- Node5&#45;&gt;Node24 -->
<g id="edge28_Node000005_Node000024" class="edge">
<title>Node5&#45;&gt;Node24</title>
<g id="a_edge28_Node000005_Node000024"><a xlink:title=" ">
<path fill="none" stroke="#63b8ff" d="M880.11,-203.49C886.99,-201.5 894.41,-199.52 901.37,-198 1008.89,-174.54 1037.88,-180.51 1146.37,-162 1152.71,-160.92 1159.35,-159.72 1165.93,-158.49"/>
<polygon fill="#63b8ff" stroke="#63b8ff" points="1166.99,-161.85 1176.17,-156.54 1165.69,-154.97 1166.99,-161.85"/>
</a>
</g>
</g>
<!-- Node25 -->
<g id="Node000025" class="node">
<title>Node25</title>
<g id="a_Node000025"><a xlink:title=" ">
<polygon fill="#e0e0e0" stroke="#999999" points="1423.37,-156.5 1299.37,-156.5 1299.37,-137.5 1423.37,-137.5 1423.37,-156.5"/>
<text text-anchor="middle" x="1361.37" y="-144.5" font-family="Helvetica,sans-Serif" font-size="10.00">deal.II/grid/manifold.h</text>
</a>
</g>
</g>
<!-- Node5&#45;&gt;Node25 -->
<g id="edge29_Node000005_Node000025" class="edge">
<title>Node5&#45;&gt;Node25</title>
<g id="a_edge29_Node000005_Node000025"><a xlink:title=" ">
<path fill="none" stroke="#63b8ff" d="M879.3,-203.45C886.39,-201.39 894.12,-199.38 901.37,-198 1071.49,-165.61 1117.93,-186.56 1289.37,-162 1296.47,-160.98 1303.94,-159.73 1311.27,-158.41"/>
<polygon fill="#63b8ff" stroke="#63b8ff" points="1311.94,-161.84 1321.12,-156.56 1310.65,-154.96 1311.94,-161.84"/>
</a>
</g>
</g>
<!-- Node26 -->
<g id="Node000026" class="node">
<title>Node26</title>
<g id="a_Node000026"><a xlink:title=" ">
<polygon fill="#e0e0e0" stroke="#999999" points="1556.87,-162 1441.87,-162 1441.87,-132 1556.87,-132 1556.87,-162"/>
<text text-anchor="start" x="1449.87" y="-150" font-family="Helvetica,sans-Serif" font-size="10.00">deal.II/grid/manifold</text>
<text text-anchor="middle" x="1499.37" y="-139" font-family="Helvetica,sans-Serif" font-size="10.00">_lib.h</text>
</a>
</g>
</g>
<!-- Node5&#45;&gt;Node26 -->
<g id="edge30_Node000005_Node000026" class="edge">
<title>Node5&#45;&gt;Node26</title>
<g id="a_edge30_Node000005_Node000026"><a xlink:title=" ">
<path fill="none" stroke="#63b8ff" d="M878.78,-203.48C886,-201.36 893.93,-199.32 901.37,-198 1130.97,-157.23 1196.2,-193.22 1431.47,-161.96"/>
<polygon fill="#63b8ff" stroke="#63b8ff" points="1432.27,-165.39 1441.71,-160.58 1431.33,-158.45 1432.27,-165.39"/>
</a>
</g>
</g>
<!-- Node27 -->
<g id="Node000027" class="node">
<title>Node27</title>
<g id="a_Node000027"><a xlink:title=" ">
<polygon fill="#e0e0e0" stroke="#999999" points="1689.87,-162 1574.87,-162 1574.87,-132 1689.87,-132 1689.87,-162"/>
<text text-anchor="start" x="1582.87" y="-150" font-family="Helvetica,sans-Serif" font-size="10.00">boost/range/adaptor</text>
<text text-anchor="middle" x="1632.37" y="-139" font-family="Helvetica,sans-Serif" font-size="10.00">/map.hpp</text>
</a>
</g>
</g>
<!-- Node5&#45;&gt;Node27 -->
<g id="edge31_Node000005_Node000027" class="edge">
<title>Node5&#45;&gt;Node27</title>
<g id="a_edge31_Node000005_Node000027"><a xlink:title=" ">
<path fill="none" stroke="#63b8ff" d="M878.52,-203.48C885.81,-201.34 893.84,-199.28 901.37,-198 1189.86,-148.79 1271.12,-199.66 1564.77,-162.06"/>
<polygon fill="#63b8ff" stroke="#63b8ff" points="1565.4,-165.51 1574.86,-160.75 1564.5,-158.57 1565.4,-165.51"/>
</a>
</g>
</g>
<!-- Node28 -->
<g id="Node000028" class="node">
<title>Node28</title>
<g id="a_Node000028"><a xlink:title=" ">
<polygon fill="#e0e0e0" stroke="#999999" points="1824.37,-162 1708.37,-162 1708.37,-132 1824.37,-132 1824.37,-162"/>
<text text-anchor="start" x="1716.37" y="-150" font-family="Helvetica,sans-Serif" font-size="10.00">deal.II/base/function</text>
<text text-anchor="middle" x="1766.37" y="-139" font-family="Helvetica,sans-Serif" font-size="10.00">_signed_distance.h</text>
</a>
</g>
</g>
<!-- Node5&#45;&gt;Node28 -->
<g id="edge32_Node000005_Node000028" class="edge">
<title>Node5&#45;&gt;Node28</title>
<g id="a_edge32_Node000005_Node000028"><a xlink:title=" ">
<path fill="none" stroke="#63b8ff" d="M878.51,-203.44C885.8,-201.3 893.83,-199.25 901.37,-198 1248.35,-140.42 1345.34,-205.23 1698.37,-161.96"/>
<polygon fill="#63b8ff" stroke="#63b8ff" points="1698.87,-165.43 1708.36,-160.72 1698,-158.48 1698.87,-165.43"/>
</a>
</g>
</g>
<!-- Node29 -->
<g id="Node000029" class="node">
<title>Node29</title>
<g id="a_Node000029"><a xlink:title=" ">
<polygon fill="#e0e0e0" stroke="#999999" points="323.37,-156.5 195.37,-156.5 195.37,-137.5 323.37,-137.5 323.37,-156.5"/>
<text text-anchor="middle" x="259.37" y="-144.5" font-family="Helvetica,sans-Serif" font-size="10.00">deal.II/dofs/dof_tools.h</text>
</a>
</g>
</g>
<!-- Node5&#45;&gt;Node29 -->
<g id="edge34_Node000005_Node000029" class="edge">
<title>Node5&#45;&gt;Node29</title>
<g id="a_edge34_Node000005_Node000029"><a xlink:title=" ">
<path fill="none" stroke="#63b8ff" d="M813.67,-209.47C726.35,-203.62 511.13,-187.66 332.37,-162 325.16,-160.97 317.59,-159.71 310.17,-158.38"/>
<polygon fill="#63b8ff" stroke="#63b8ff" points="310.65,-154.91 300.18,-156.53 309.37,-161.79 310.65,-154.91"/>
</a>
</g>
</g>
<!-- Node30 -->
<g id="Node000030" class="node">
<title>Node30</title>
<g id="a_Node000030"><a xlink:title=" ">
<polygon fill="#e0e0e0" stroke="#999999" points="517.37,-156.5 341.37,-156.5 341.37,-137.5 517.37,-137.5 517.37,-156.5"/>
<text text-anchor="middle" x="429.37" y="-144.5" font-family="Helvetica,sans-Serif" font-size="10.00">deal.II/physics/transformations.h</text>
</a>
</g>
</g>
<!-- Node5&#45;&gt;Node30 -->
<g id="edge35_Node000005_Node000030" class="edge">
<title>Node5&#45;&gt;Node30</title>
<g id="a_edge35_Node000005_Node000030"><a xlink:title=" ">
<path fill="none" stroke="#63b8ff" d="M813.86,-206.04C741.11,-195.06 585.26,-171.53 495.93,-158.05"/>
<polygon fill="#63b8ff" stroke="#63b8ff" points="496.31,-154.57 485.9,-156.53 495.27,-161.49 496.31,-154.57"/>
</a>
</g>
</g>
<!-- Node31 -->
<g id="Node000031" class="node">
<title>Node31</title>
<g id="a_Node000031"><a xlink:title=" ">
<polygon fill="#e0e0e0" stroke="#999999" points="579.37,-156.5 535.37,-156.5 535.37,-137.5 579.37,-137.5 579.37,-156.5"/>
<text text-anchor="middle" x="557.37" y="-144.5" font-family="Helvetica,sans-Serif" font-size="10.00">cfloat</text>
</a>
</g>
</g>
<!-- Node5&#45;&gt;Node31 -->
<g id="edge36_Node000005_Node000031" class="edge">
<title>Node5&#45;&gt;Node31</title>
<g id="a_edge36_Node000005_Node000031"><a xlink:title=" ">
<path fill="none" stroke="#63b8ff" d="M813.58,-207.49C761.11,-200.87 666.29,-186.56 588.37,-162 586.92,-161.55 585.46,-161.04 583.99,-160.5"/>
<polygon fill="#63b8ff" stroke="#63b8ff" points="585.04,-157.15 574.46,-156.59 582.38,-163.63 585.04,-157.15"/>
</a>
</g>
</g>
<!-- Node32 -->
<g id="Node000032" class="node">
<title>Node32</title>
<g id="a_Node000032"><a xlink:title=" ">
<polygon fill="#e0e0e0" stroke="#999999" points="655.37,-156.5 597.37,-156.5 597.37,-137.5 655.37,-137.5 655.37,-156.5"/>
<text text-anchor="middle" x="626.37" y="-144.5" font-family="Helvetica,sans-Serif" font-size="10.00">memory</text>
</a>
</g>
</g>
<!-- Node5&#45;&gt;Node32 -->
<g id="edge37_Node000005_Node000032" class="edge">
<title>Node5&#45;&gt;Node32</title>
<g id="a_edge37_Node000005_Node000032"><a xlink:title=" ">
<path fill="none" stroke="#63b8ff" d="M816.84,-203.42C778.56,-194.18 716.8,-178.55 664.37,-162 662.45,-161.4 660.5,-160.75 658.53,-160.09"/>
<polygon fill="#63b8ff" stroke="#63b8ff" points="659.34,-156.66 648.75,-156.65 657.02,-163.27 659.34,-156.66"/>
</a>
</g>
</g>
<!-- Node6&#45;&gt;Node7 -->
<g id="edge6_Node000006_Node000007" class="edge">
<title>Node6&#45;&gt;Node7</title>
<g id="a_edge6_Node000006_Node000007"><a xlink:title=" ">
<path fill="none" stroke="#63b8ff" d="M672.95,-133.16C670.05,-132.75 667.18,-132.37 664.37,-132 496.13,-110.2 451.98,-122.17 284.37,-96 278.39,-95.07 272.14,-93.92 265.98,-92.68"/>
<polygon fill="#63b8ff" stroke="#63b8ff" points="266.27,-89.17 255.77,-90.54 264.84,-96.02 266.27,-89.17"/>
</a>
</g>
</g>
<!-- Node8 -->
<g id="Node000008" class="node">
<title>Node8</title>
<g id="a_Node000008"><a xlink:title=" ">
<polygon fill="#e0e0e0" stroke="#999999" points="408.87,-90.5 293.87,-90.5 293.87,-71.5 408.87,-71.5 408.87,-90.5"/>
<text text-anchor="middle" x="351.37" y="-78.5" font-family="Helvetica,sans-Serif" font-size="10.00">deal.II/base/tensor.h</text>
</a>
</g>
</g>
<!-- Node6&#45;&gt;Node8 -->
<g id="edge7_Node000006_Node000008" class="edge">
<title>Node6&#45;&gt;Node8</title>
<g id="a_edge7_Node000006_Node000008"><a xlink:title=" ">
<path fill="none" stroke="#63b8ff" d="M672.92,-133.34C670.03,-132.89 667.17,-132.44 664.37,-132 555.18,-115.02 527.16,-115.31 418.37,-96 412.52,-94.96 406.4,-93.8 400.34,-92.59"/>
<polygon fill="#63b8ff" stroke="#63b8ff" points="400.76,-89.1 390.26,-90.54 399.36,-95.96 400.76,-89.1"/>
</a>
</g>
</g>
<!-- Node9&#45;&gt;Node3 -->
<g id="edge24_Node000009_Node000003" class="edge">
<title>Node9&#45;&gt;Node3</title>
<g id="a_edge24_Node000009_Node000003"><a xlink:title=" ">
<path fill="none" stroke="#63b8ff" d="M880.99,-138.34C866.24,-135.98 849.62,-133.59 834.37,-132 534.23,-100.77 449.57,-167.32 156.37,-96 154.63,-95.58 152.87,-95.06 151.12,-94.47"/>
<polygon fill="#63b8ff" stroke="#63b8ff" points="151.96,-91.04 141.37,-90.59 149.36,-97.54 151.96,-91.04"/>
</a>
</g>
</g>
<!-- Node9&#45;&gt;Node4 -->
<g id="edge26_Node000009_Node000004" class="edge">
<title>Node9&#45;&gt;Node4</title>
<g id="a_edge26_Node000009_Node000004"><a xlink:title=" ">
<path fill="none" stroke="#63b8ff" d="M881,-138.3C866.24,-135.94 849.63,-133.55 834.37,-132 506.78,-98.65 415.35,-169.44 94.37,-96 92.2,-95.5 89.99,-94.87 87.8,-94.16"/>
<polygon fill="#63b8ff" stroke="#63b8ff" points="89.04,-90.88 78.45,-90.6 86.55,-97.43 89.04,-90.88"/>
</a>
</g>
</g>
<!-- Node9&#45;&gt;Node7 -->
<g id="edge14_Node000009_Node000007" class="edge">
<title>Node9&#45;&gt;Node7</title>
<g id="a_edge14_Node000009_Node000007"><a xlink:title=" ">
<path fill="none" stroke="#63b8ff" d="M880.98,-138.45C866.23,-136.1 849.61,-133.68 834.37,-132 590.87,-105.15 526.92,-130.27 284.37,-96 278.01,-95.1 271.35,-93.92 264.82,-92.62"/>
<polygon fill="#63b8ff" stroke="#63b8ff" points="265.24,-89.13 254.74,-90.51 263.81,-95.99 265.24,-89.13"/>
</a>
</g>
</g>
<!-- Node9&#45;&gt;Node8 -->
<g id="edge16_Node000009_Node000008" class="edge">
<title>Node9&#45;&gt;Node8</title>
<g id="a_edge16_Node000009_Node000008"><a xlink:title=" ">
<path fill="none" stroke="#63b8ff" d="M880.96,-138.64C866.2,-136.3 849.59,-133.84 834.37,-132 650.13,-109.72 601.97,-123.03 418.37,-96 411.96,-95.06 405.25,-93.88 398.65,-92.62"/>
<polygon fill="#63b8ff" stroke="#63b8ff" points="398.93,-89.1 388.44,-90.57 397.55,-95.97 398.93,-89.1"/>
</a>
</g>
</g>
<!-- Node10 -->
<g id="Node000010" class="node">
<title>Node10</title>
<g id="a_Node000010"><a xlink:href="output__struct_8h.html" target="_top" xlink:title=" ">
<polygon fill="white" stroke="#666666" points="1459.37,-90.5 1345.37,-90.5 1345.37,-71.5 1459.37,-71.5 1459.37,-90.5"/>
<text text-anchor="middle" x="1402.37" y="-78.5" font-family="Helvetica,sans-Serif" font-size="10.00">core/output_struct.h</text>
</a>
</g>
</g>
<!-- Node9&#45;&gt;Node10 -->
<g id="edge9_Node000009_Node000010" class="edge">
<title>Node9&#45;&gt;Node10</title>
<g id="a_edge9_Node000009_Node000010"><a xlink:title=" ">
<path fill="none" stroke="#63b8ff" d="M952.78,-137.46C960.39,-135.42 968.64,-133.42 976.37,-132 1132.33,-103.29 1174.51,-119.37 1331.37,-96 1338.21,-94.98 1345.4,-93.75 1352.47,-92.45"/>
<polygon fill="#63b8ff" stroke="#63b8ff" points="1353.51,-95.81 1362.68,-90.51 1352.2,-88.94 1353.51,-95.81"/>
</a>
</g>
</g>
<!-- Node11 -->
<g id="Node000011" class="node">
<title>Node11</title>
<g id="a_Node000011"><a xlink:title=" ">
<polygon fill="#e0e0e0" stroke="#999999" points="1367.87,-30 1266.87,-30 1266.87,0 1367.87,0 1367.87,-30"/>
<text text-anchor="start" x="1274.87" y="-18" font-family="Helvetica,sans-Serif" font-size="10.00">deal.II/base/table</text>
<text text-anchor="middle" x="1317.37" y="-7" font-family="Helvetica,sans-Serif" font-size="10.00">_handler.h</text>
</a>
</g>
</g>
<!-- Node9&#45;&gt;Node11 -->
<g id="edge15_Node000009_Node000011" class="edge">
<title>Node9&#45;&gt;Node11</title>
<g id="a_edge15_Node000009_Node000011"><a xlink:title=" ">
<path fill="none" stroke="#63b8ff" d="M953.07,-137.44C960.6,-135.42 968.74,-133.45 976.37,-132 1046.89,-118.63 1243.34,-143.26 1297.37,-96 1313.05,-82.27 1317.37,-58.28 1318.17,-40.14"/>
<polygon fill="#63b8ff" stroke="#63b8ff" points="1321.67,-40.05 1318.29,-30 1314.67,-39.96 1321.67,-40.05"/>
</a>
</g>
</g>
<!-- Node13 -->
<g id="Node000013" class="node">
<title>Node13</title>
<g id="a_Node000013"><a xlink:title=" ">
<polygon fill="#e0e0e0" stroke="#999999" points="1607.37,-96 1477.37,-96 1477.37,-66 1607.37,-66 1607.37,-96"/>
<text text-anchor="start" x="1485.37" y="-84" font-family="Helvetica,sans-Serif" font-size="10.00">deal.II/base/conditional</text>
<text text-anchor="middle" x="1542.37" y="-73" font-family="Helvetica,sans-Serif" font-size="10.00">_ostream.h</text>
</a>
</g>
</g>
<!-- Node9&#45;&gt;Node13 -->
<g id="edge12_Node000009_Node000013" class="edge">
<title>Node9&#45;&gt;Node13</title>
<g id="a_edge12_Node000009_Node000013"><a xlink:title=" ">
<path fill="none" stroke="#63b8ff" d="M952.22,-137.46C959.97,-135.37 968.44,-133.34 976.37,-132 1189.26,-95.89 1249.16,-123.56 1466.91,-96.08"/>
<polygon fill="#63b8ff" stroke="#63b8ff" points="1467.59,-99.52 1477.06,-94.77 1466.7,-92.58 1467.59,-99.52"/>
</a>
</g>
</g>
<!-- Node14 -->
<g id="Node000014" class="node">
<title>Node14</title>
<g id="a_Node000014"><a xlink:title=" ">
<polygon fill="#e0e0e0" stroke="#999999" points="1752.87,-96 1625.87,-96 1625.87,-66 1752.87,-66 1752.87,-96"/>
<text text-anchor="start" x="1633.87" y="-84" font-family="Helvetica,sans-Serif" font-size="10.00">deal.II/base/parameter</text>
<text text-anchor="middle" x="1689.37" y="-73" font-family="Helvetica,sans-Serif" font-size="10.00">_handler.h</text>
</a>
</g>
</g>
<!-- Node9&#45;&gt;Node14 -->
<g id="edge13_Node000009_Node000014" class="edge">
<title>Node9&#45;&gt;Node14</title>
<g id="a_edge13_Node000009_Node000014"><a xlink:title=" ">
<path fill="none" stroke="#63b8ff" d="M951.93,-137.44C959.76,-135.32 968.34,-133.29 976.37,-132 1254.34,-87.26 1331.81,-129.88 1615.56,-95.96"/>
<polygon fill="#63b8ff" stroke="#63b8ff" points="1616.24,-99.4 1625.74,-94.72 1615.39,-92.45 1616.24,-99.4"/>
</a>
</g>
</g>
<!-- Node9&#45;&gt;Node15 -->
<g id="edge17_Node000009_Node000015" class="edge">
<title>Node9&#45;&gt;Node15</title>
<g id="a_edge17_Node000009_Node000015"><a xlink:title=" ">
<path fill="none" stroke="#63b8ff" d="M892.55,-137.48C884.39,-135.49 875.58,-133.51 867.37,-132 739.2,-108.42 705.24,-115.38 576.37,-96 568.9,-94.88 561.04,-93.6 553.31,-92.29"/>
<polygon fill="#63b8ff" stroke="#63b8ff" points="553.7,-88.8 543.25,-90.55 552.51,-95.7 553.7,-88.8"/>
</a>
</g>
</g>
<!-- Node16 -->
<g id="Node000016" class="node">
<title>Node16</title>
<g id="a_Node000016"><a xlink:title=" ">
<polygon fill="#e0e0e0" stroke="#999999" points="704.87,-90.5 585.87,-90.5 585.87,-71.5 704.87,-71.5 704.87,-90.5"/>
<text text-anchor="middle" x="645.37" y="-78.5" font-family="Helvetica,sans-Serif" font-size="10.00">deal.II/fe/fe_values.h</text>
</a>
</g>
</g>
<!-- Node9&#45;&gt;Node16 -->
<g id="edge18_Node000009_Node000016" class="edge">
<title>Node9&#45;&gt;Node16</title>
<g id="a_edge18_Node000009_Node000016"><a xlink:title=" ">
<path fill="none" stroke="#63b8ff" d="M890.03,-137.45C882.56,-135.63 874.71,-133.73 867.37,-132 807.84,-117.99 739.13,-102.64 694.11,-92.69"/>
<polygon fill="#63b8ff" stroke="#63b8ff" points="694.84,-89.27 684.32,-90.53 693.33,-96.11 694.84,-89.27"/>
</a>
</g>
</g>
<!-- Node17 -->
<g id="Node000017" class="node">
<title>Node17</title>
<g id="a_Node000017"><a xlink:title=" ">
<polygon fill="#e0e0e0" stroke="#999999" points="853.87,-96 722.87,-96 722.87,-66 853.87,-66 853.87,-96"/>
<text text-anchor="start" x="730.87" y="-84" font-family="Helvetica,sans-Serif" font-size="10.00">deal.II/particles/particle</text>
<text text-anchor="middle" x="788.37" y="-73" font-family="Helvetica,sans-Serif" font-size="10.00">_iterator.h</text>
</a>
</g>
</g>
<!-- Node9&#45;&gt;Node17 -->
<g id="edge19_Node000009_Node000017" class="edge">
<title>Node9&#45;&gt;Node17</title>
<g id="a_edge19_Node000009_Node000017"><a xlink:title=" ">
<path fill="none" stroke="#63b8ff" d="M906.02,-137.37C886.01,-127.95 853.36,-112.59 827.53,-100.43"/>
<polygon fill="#63b8ff" stroke="#63b8ff" points="828.9,-97.21 818.36,-96.12 825.92,-103.54 828.9,-97.21"/>
</a>
</g>
</g>
<!-- Node18 -->
<g id="Node000018" class="node">
<title>Node18</title>
<g id="a_Node000018"><a xlink:title=" ">
<polygon fill="#e0e0e0" stroke="#999999" points="976.87,-96 871.87,-96 871.87,-66 976.87,-66 976.87,-96"/>
<text text-anchor="start" x="879.87" y="-84" font-family="Helvetica,sans-Serif" font-size="10.00">boost/archive/text</text>
<text text-anchor="middle" x="924.37" y="-73" font-family="Helvetica,sans-Serif" font-size="10.00">_iarchive.hpp</text>
</a>
</g>
</g>
<!-- Node9&#45;&gt;Node18 -->
<g id="edge20_Node000009_Node000018" class="edge">
<title>Node9&#45;&gt;Node18</title>
<g id="a_edge20_Node000009_Node000018"><a xlink:title=" ">
<path fill="none" stroke="#63b8ff" d="M924.37,-137.37C924.37,-129.49 924.37,-117.45 924.37,-106.6"/>
<polygon fill="#63b8ff" stroke="#63b8ff" points="927.87,-106.36 924.37,-96.36 920.87,-106.36 927.87,-106.36"/>
</a>
</g>
</g>
<!-- Node19 -->
<g id="Node000019" class="node">
<title>Node19</title>
<g id="a_Node000019"><a xlink:title=" ">
<polygon fill="#e0e0e0" stroke="#999999" points="1099.87,-96 994.87,-96 994.87,-66 1099.87,-66 1099.87,-96"/>
<text text-anchor="start" x="1002.87" y="-84" font-family="Helvetica,sans-Serif" font-size="10.00">boost/archive/text</text>
<text text-anchor="middle" x="1047.37" y="-73" font-family="Helvetica,sans-Serif" font-size="10.00">_oarchive.hpp</text>
</a>
</g>
</g>
<!-- Node9&#45;&gt;Node19 -->
<g id="edge21_Node000009_Node000019" class="edge">
<title>Node9&#45;&gt;Node19</title>
<g id="a_edge21_Node000009_Node000019"><a xlink:title=" ">
<path fill="none" stroke="#63b8ff" d="M940.95,-137.37C958.9,-128.03 988.06,-112.86 1011.33,-100.75"/>
<polygon fill="#63b8ff" stroke="#63b8ff" points="1012.98,-103.84 1020.24,-96.12 1009.75,-97.63 1012.98,-103.84"/>
</a>
</g>
</g>
<!-- Node20 -->
<g id="Node000020" class="node">
<title>Node20</title>
<g id="a_Node000020"><a xlink:title=" ">
<polygon fill="#e0e0e0" stroke="#999999" points="1172.87,-90.5 1117.87,-90.5 1117.87,-71.5 1172.87,-71.5 1172.87,-90.5"/>
<text text-anchor="middle" x="1145.37" y="-78.5" font-family="Helvetica,sans-Serif" font-size="10.00">fstream</text>
</a>
</g>
</g>
<!-- Node9&#45;&gt;Node20 -->
<g id="edge22_Node000009_Node000020" class="edge">
<title>Node9&#45;&gt;Node20</title>
<g id="a_edge22_Node000009_Node000020"><a xlink:title=" ">
<path fill="none" stroke="#63b8ff" d="M956.06,-137.47C1006.72,-123.83 1101.02,-98.38 1108.37,-96 1110.23,-95.4 1112.13,-94.75 1114.05,-94.09"/>
<polygon fill="#63b8ff" stroke="#63b8ff" points="1115.36,-97.34 1123.58,-90.64 1112.98,-90.75 1115.36,-97.34"/>
</a>
</g>
</g>
<!-- Node21 -->
<g id="Node000021" class="node">
<title>Node21</title>
<g id="a_Node000021"><a xlink:title=" ">
<polygon fill="#e0e0e0" stroke="#999999" points="1229.37,-90.5 1191.37,-90.5 1191.37,-71.5 1229.37,-71.5 1229.37,-90.5"/>
<text text-anchor="middle" x="1210.37" y="-78.5" font-family="Helvetica,sans-Serif" font-size="10.00">map</text>
</a>
</g>
</g>
<!-- Node9&#45;&gt;Node21 -->
<g id="edge23_Node000009_Node000021" class="edge">
<title>Node9&#45;&gt;Node21</title>
<g id="a_edge23_Node000009_Node000021"><a xlink:title=" ">
<path fill="none" stroke="#63b8ff" d="M954.23,-137.47C961.44,-135.55 969.16,-133.6 976.37,-132 1066.67,-111.96 1093.32,-124.38 1181.37,-96 1182.62,-95.59 1183.89,-95.15 1185.17,-94.66"/>
<polygon fill="#63b8ff" stroke="#63b8ff" points="1186.95,-97.7 1194.74,-90.52 1184.17,-91.28 1186.95,-97.7"/>
</a>
</g>
</g>
<!-- Node22 -->
<g id="Node000022" class="node">
<title>Node22</title>
<g id="a_Node000022"><a xlink:title=" ">
<polygon fill="#e0e0e0" stroke="#999999" points="1288.87,-90.5 1247.87,-90.5 1247.87,-71.5 1288.87,-71.5 1288.87,-90.5"/>
<text text-anchor="middle" x="1268.37" y="-78.5" font-family="Helvetica,sans-Serif" font-size="10.00">tuple</text>
</a>
</g>
</g>
<!-- Node9&#45;&gt;Node22 -->
<g id="edge25_Node000009_Node000022" class="edge">
<title>Node9&#45;&gt;Node22</title>
<g id="a_edge25_Node000009_Node000022"><a xlink:title=" ">
<path fill="none" stroke="#63b8ff" d="M953.36,-137.5C960.82,-135.5 968.85,-133.52 976.37,-132 1091.57,-108.67 1125.62,-129.23 1238.37,-96 1239.81,-95.57 1241.28,-95.09 1242.74,-94.56"/>
<polygon fill="#63b8ff" stroke="#63b8ff" points="1244.32,-97.69 1252.21,-90.62 1241.63,-91.23 1244.32,-97.69"/>
</a>
</g>
</g>
<!-- Node10&#45;&gt;Node11 -->
<g id="edge10_Node000010_Node000011" class="edge">
<title>Node10&#45;&gt;Node11</title>
<g id="a_edge10_Node000010_Node000011"><a xlink:title=" ">
<path fill="none" stroke="#63b8ff" d="M1390.9,-71.37C1379.05,-62.44 1360.12,-48.19 1344.43,-36.38"/>
<polygon fill="#63b8ff" stroke="#63b8ff" points="1346.21,-33.33 1336.11,-30.12 1342,-38.93 1346.21,-33.33"/>
</a>
</g>
</g>
<!-- Node12 -->
<g id="Node000012" class="node">
<title>Node12</title>
<g id="a_Node000012"><a xlink:title=" ">
<polygon fill="#e0e0e0" stroke="#999999" points="1504.87,-30 1385.87,-30 1385.87,0 1504.87,0 1504.87,-30"/>
<text text-anchor="start" x="1393.87" y="-18" font-family="Helvetica,sans-Serif" font-size="10.00">deal.II/numerics/data</text>
<text text-anchor="middle" x="1445.37" y="-7" font-family="Helvetica,sans-Serif" font-size="10.00">_postprocessor.h</text>
</a>
</g>
</g>
<!-- Node10&#45;&gt;Node12 -->
<g id="edge11_Node000010_Node000012" class="edge">
<title>Node10&#45;&gt;Node12</title>
<g id="a_edge11_Node000010_Node000012"><a xlink:title=" ">
<path fill="none" stroke="#63b8ff" d="M1408.16,-71.37C1413.74,-63.08 1422.4,-50.18 1429.97,-38.92"/>
<polygon fill="#63b8ff" stroke="#63b8ff" points="1433.05,-40.61 1435.72,-30.36 1427.24,-36.71 1433.05,-40.61"/>
</a>
</g>
</g>
</g>
</svg>
