<?xml version="1.0" encoding="UTF-8" standalone="no"?>
<!DOCTYPE svg PUBLIC "-//W3C//DTD SVG 1.1//EN"
 "http://www.w3.org/Graphics/SVG/1.1/DTD/svg11.dtd">
<!-- Generated by graphviz version 2.43.0 (0)
 -->
<!-- Title: Graphical Class Hierarchy Pages: 1 -->
<svg width="422pt" height="124pt"
 viewBox="0.00 0.00 422.00 123.50" xmlns="http://www.w3.org/2000/svg" xmlns:xlink="http://www.w3.org/1999/xlink">
<g id="graph0" class="graph" transform="scale(1 1) rotate(0) translate(4 119.5)">
<title>Graphical Class Hierarchy</title>
<!-- Node0 -->
<g id="Node000000" class="node">
<title>Node0</title>
<g id="a_Node000000"><a xlink:href="classPhysicsFaceAssemblerBase.html" target="_top" xlink:title="Base class for assembler objects of physics and subequations that require a face assembly....">
<polygon fill="white" stroke="#666666" points="197,-67.5 0,-67.5 0,-37.5 197,-37.5 197,-67.5"/>
<text text-anchor="start" x="8" y="-55.5" font-family="Helvetica,sans-Serif" font-size="10.00">PhysicsFaceAssemblerBase</text>
<text text-anchor="middle" x="98.5" y="-44.5" font-family="Helvetica,sans-Serif" font-size="10.00">&lt; ScratchDataType, CopyDataType &gt;</text>
</a>
</g>
</g>
<!-- Node1 -->
<g id="Node000001" class="node">
<title>Node1</title>
<g id="a_Node000001"><a xlink:href="classTracerAssemblerBoundaryNitsche.html" target="_top" xlink:title="Assembles Nitsche&#39;s method for boundary faces. This assembler is only required when solving the Trace...">
<polygon fill="white" stroke="#666666" points="414,-115.5 233,-115.5 233,-85.5 414,-85.5 414,-115.5"/>
<text text-anchor="start" x="241" y="-103.5" font-family="Helvetica,sans-Serif" font-size="10.00">TracerAssemblerBoundaryNitsche</text>
<text text-anchor="middle" x="323.5" y="-92.5" font-family="Helvetica,sans-Serif" font-size="10.00">&lt; dim &gt;</text>
</a>
</g>
</g>
<!-- Node0&#45;&gt;Node1 -->
<g id="edge189_Node000000_Node000001" class="edge">
<title>Node0&#45;&gt;Node1</title>
<g id="a_edge189_Node000000_Node000001"><a xlink:title=" ">
<path fill="none" stroke="#63b8ff" d="M179.25,-69.67C203.28,-74.84 229.47,-80.48 252.8,-85.5"/>
<polygon fill="#63b8ff" stroke="#63b8ff" points="179.96,-66.24 169.45,-67.56 178.49,-73.08 179.96,-66.24"/>
</a>
</g>
</g>
<!-- Node2 -->
<g id="Node000002" class="node">
<title>Node2</title>
<g id="a_Node000002"><a xlink:href="classTracerAssemblerSIPG.html" target="_top" xlink:title="Assembles the symmetric interior penalty (SIPG) method (or Nitsche&#39;s method) for internal faces....">
<polygon fill="white" stroke="#666666" points="383.5,-67.5 263.5,-67.5 263.5,-37.5 383.5,-37.5 383.5,-67.5"/>
<text text-anchor="start" x="271.5" y="-55.5" font-family="Helvetica,sans-Serif" font-size="10.00">TracerAssemblerSIPG</text>
<text text-anchor="middle" x="323.5" y="-44.5" font-family="Helvetica,sans-Serif" font-size="10.00">&lt; dim &gt;</text>
</a>
</g>
</g>
<!-- Node0&#45;&gt;Node2 -->
<g id="edge190_Node000000_Node000002" class="edge">
<title>Node0&#45;&gt;Node2</title>
<g id="a_edge190_Node000000_Node000002"><a xlink:title=" ">
<path fill="none" stroke="#63b8ff" d="M207.35,-52.5C226.61,-52.5 246.01,-52.5 263.25,-52.5"/>
<polygon fill="#63b8ff" stroke="#63b8ff" points="207.31,-49 197.31,-52.5 207.31,-56 207.31,-49"/>
</a>
</g>
</g>
<!-- Node3 -->
<g id="Node000003" class="node">
<title>Node3</title>
<g id="a_Node000003"><a xlink:href="classVOFAssemblerSIPG.html" target="_top" xlink:title="Assembles the symmetric interior penalty Galerkin (SIPG) method (or Nitsche&#39;s method) for internal fa...">
<polygon fill="white" stroke="#666666" points="399,-19 248,-19 248,0 399,0 399,-19"/>
<text text-anchor="middle" x="323.5" y="-7" font-family="Helvetica,sans-Serif" font-size="10.00">VOFAssemblerSIPG&lt; dim &gt;</text>
</a>
</g>
</g>
<!-- Node0&#45;&gt;Node3 -->
<g id="edge191_Node000000_Node000003" class="edge">
<title>Node0&#45;&gt;Node3</title>
<g id="a_edge191_Node000000_Node000003"><a xlink:title=" ">
<path fill="none" stroke="#63b8ff" d="M187.67,-35.5C216.73,-29.89 248.01,-23.86 273.12,-19.02"/>
<polygon fill="#63b8ff" stroke="#63b8ff" points="186.65,-32.13 177.49,-37.46 187.98,-39 186.65,-32.13"/>
</a>
</g>
</g>
</g>
</svg>
