<?xml version="1.0" encoding="UTF-8" standalone="no"?>
<!DOCTYPE svg PUBLIC "-//W3C//DTD SVG 1.1//EN"
 "http://www.w3.org/Graphics/SVG/1.1/DTD/svg11.dtd">
<!-- Generated by graphviz version 2.43.0 (0)
 -->
<!-- Title: Graphical Class Hierarchy Pages: 1 -->
<svg width="349pt" height="194pt"
 viewBox="0.00 0.00 349.00 193.50" xmlns="http://www.w3.org/2000/svg" xmlns:xlink="http://www.w3.org/1999/xlink">
<g id="graph0" class="graph" transform="scale(1 1) rotate(0) translate(4 189.5)">
<title>Graphical Class Hierarchy</title>
<!-- Node0 -->
<g id="Node000000" class="node">
<title>Node0</title>
<g id="a_Node000000"><a xlink:title=" ">
<polygon fill="#e0e0e0" stroke="#999999" points="134,-96.5 0,-96.5 0,-77.5 134,-77.5 134,-96.5"/>
<text text-anchor="middle" x="67" y="-84.5" font-family="Helvetica,sans-Serif" font-size="10.00">dealii::DataOutInterface</text>
</a>
</g>
</g>
<!-- Node1 -->
<g id="Node000001" class="node">
<title>Node1</title>
<g id="a_Node000001"><a xlink:href="classVisualization.html" target="_top" xlink:title=" ">
<polygon fill="white" stroke="#666666" points="325.5,-185.5 185.5,-185.5 185.5,-144.5 325.5,-144.5 325.5,-185.5"/>
<text text-anchor="start" x="193.5" y="-173.5" font-family="Helvetica,sans-Serif" font-size="10.00">Visualization&lt; dim,</text>
<text text-anchor="start" x="193.5" y="-162.5" font-family="Helvetica,sans-Serif" font-size="10.00"> DEM::CFDDEMProperties</text>
<text text-anchor="middle" x="255.5" y="-151.5" font-family="Helvetica,sans-Serif" font-size="10.00">::PropertiesIndex &gt;</text>
</a>
</g>
</g>
<!-- Node0&#45;&gt;Node1 -->
<g id="edge45_Node000000_Node000001" class="edge">
<title>Node0&#45;&gt;Node1</title>
<g id="a_edge45_Node000000_Node000001"><a xlink:title=" ">
<path fill="none" stroke="#63b8ff" d="M95.93,-101.06C116.25,-111.06 144.53,-124.52 170,-135 177.77,-138.2 186.03,-141.38 194.21,-144.42"/>
<polygon fill="#63b8ff" stroke="#63b8ff" points="97.44,-97.9 86.92,-96.59 94.33,-104.17 97.44,-97.9"/>
</a>
</g>
</g>
<!-- Node2 -->
<g id="Node000002" class="node">
<title>Node2</title>
<g id="a_Node000002"><a xlink:href="structFluidDynamicsSharp_1_1Visualization__IB.html" target="_top" xlink:title="Defines a struct with methods that allow the generation of a visualisation of the IB_particles....">
<polygon fill="white" stroke="#666666" points="326.5,-126 184.5,-126 184.5,-96 326.5,-96 326.5,-126"/>
<text text-anchor="start" x="192.5" y="-114" font-family="Helvetica,sans-Serif" font-size="10.00">FluidDynamicsSharp</text>
<text text-anchor="middle" x="255.5" y="-103" font-family="Helvetica,sans-Serif" font-size="10.00">&lt; dim &gt;::Visualization_IB</text>
</a>
</g>
</g>
<!-- Node0&#45;&gt;Node2 -->
<g id="edge46_Node000000_Node000002" class="edge">
<title>Node0&#45;&gt;Node2</title>
<g id="a_edge46_Node000000_Node000002"><a xlink:title=" ">
<path fill="none" stroke="#63b8ff" d="M144.11,-96.79C157.46,-98.51 171.29,-100.29 184.46,-101.99"/>
<polygon fill="#63b8ff" stroke="#63b8ff" points="144.38,-93.3 134.02,-95.5 143.49,-100.24 144.38,-93.3"/>
</a>
</g>
</g>
<!-- Node3 -->
<g id="Node000003" class="node">
<title>Node3</title>
<g id="a_Node000003"><a xlink:href="classInterfaceTools_1_1InterfaceReconstructionDataOut.html" target="_top" xlink:title="Interface to build the patches of the interface reconstruction vertices for visualization....">
<polygon fill="white" stroke="#666666" points="341,-78 170,-78 170,-48 341,-48 341,-78"/>
<text text-anchor="start" x="178" y="-66" font-family="Helvetica,sans-Serif" font-size="10.00">InterfaceTools::Interface</text>
<text text-anchor="middle" x="255.5" y="-55" font-family="Helvetica,sans-Serif" font-size="10.00">ReconstructionDataOut&lt; dim &gt;</text>
</a>
</g>
</g>
<!-- Node0&#45;&gt;Node3 -->
<g id="edge47_Node000000_Node000003" class="edge">
<title>Node0&#45;&gt;Node3</title>
<g id="a_edge47_Node000000_Node000003"><a xlink:title=" ">
<path fill="none" stroke="#63b8ff" d="M143.96,-77.23C152.52,-76.12 161.29,-75 169.95,-73.88"/>
<polygon fill="#63b8ff" stroke="#63b8ff" points="143.49,-73.76 134.02,-78.5 144.38,-80.7 143.49,-73.76"/>
</a>
</g>
</g>
<!-- Node4 -->
<g id="Node000004" class="node">
<title>Node4</title>
<g id="a_Node000004"><a xlink:href="classVisualization.html" target="_top" xlink:title="Building patches of particle properties for visualization. This function is taken from Aspect and dea...">
<polygon fill="white" stroke="#666666" points="312,-30 199,-30 199,0 312,0 312,-30"/>
<text text-anchor="start" x="207" y="-18" font-family="Helvetica,sans-Serif" font-size="10.00">Visualization&lt; dim,</text>
<text text-anchor="middle" x="255.5" y="-7" font-family="Helvetica,sans-Serif" font-size="10.00"> PropertiesIndex &gt;</text>
</a>
</g>
</g>
<!-- Node0&#45;&gt;Node4 -->
<g id="edge48_Node000000_Node000004" class="edge">
<title>Node0&#45;&gt;Node4</title>
<g id="a_edge48_Node000000_Node000004"><a xlink:title=" ">
<path fill="none" stroke="#63b8ff" d="M94.99,-72.82C115.26,-62.53 143.89,-48.78 170,-39 179.14,-35.58 188.99,-32.37 198.63,-29.47"/>
<polygon fill="#63b8ff" stroke="#63b8ff" points="93.34,-69.73 86.04,-77.41 96.53,-75.96 93.34,-69.73"/>
</a>
</g>
</g>
</g>
</svg>
