<?xml version="1.0" encoding="UTF-8" standalone="no"?>
<!DOCTYPE svg PUBLIC "-//W3C//DTD SVG 1.1//EN"
 "http://www.w3.org/Graphics/SVG/1.1/DTD/svg11.dtd">
<!-- Generated by graphviz version 2.43.0 (0)
 -->
<!-- Title: Graphical Class Hierarchy Pages: 1 -->
<svg width="245pt" height="138pt"
 viewBox="0.00 0.00 245.00 138.00" xmlns="http://www.w3.org/2000/svg" xmlns:xlink="http://www.w3.org/1999/xlink">
<g id="graph0" class="graph" transform="scale(1 1) rotate(0) translate(4 134)">
<title>Graphical Class Hierarchy</title>
<!-- Node0 -->
<g id="Node000000" class="node">
<title>Node0</title>
<g id="a_Node000000"><a xlink:href="classDistribution.html" target="_top" xlink:title=" ">
<polygon fill="white" stroke="#666666" points="74,-74 0,-74 0,-55 74,-55 74,-74"/>
<text text-anchor="middle" x="37" y="-62" font-family="Helvetica,sans-Serif" font-size="10.00">Distribution</text>
</a>
</g>
</g>
<!-- Node1 -->
<g id="Node000001" class="node">
<title>Node1</title>
<g id="a_Node000001"><a xlink:href="classCustomDistribution.html" target="_top" xlink:title=" ">
<polygon fill="white" stroke="#666666" points="229,-130 118,-130 118,-111 229,-111 229,-130"/>
<text text-anchor="middle" x="173.5" y="-118" font-family="Helvetica,sans-Serif" font-size="10.00">CustomDistribution</text>
</a>
</g>
</g>
<!-- Node0&#45;&gt;Node1 -->
<g id="edge49_Node000000_Node000001" class="edge">
<title>Node0&#45;&gt;Node1</title>
<g id="a_edge49_Node000000_Node000001"><a xlink:title=" ">
<path fill="none" stroke="#63b8ff" d="M62.62,-79.11C76.26,-86.78 93.7,-95.93 110,-102.5 117.86,-105.66 126.47,-108.52 134.73,-110.98"/>
<polygon fill="#63b8ff" stroke="#63b8ff" points="64.26,-76.02 53.85,-74.08 60.78,-82.09 64.26,-76.02"/>
</a>
</g>
</g>
<!-- Node2 -->
<g id="Node000002" class="node">
<title>Node2</title>
<g id="a_Node000002"><a xlink:href="classLogNormalDistribution.html" target="_top" xlink:title=" ">
<polygon fill="white" stroke="#666666" points="237,-93 110,-93 110,-74 237,-74 237,-93"/>
<text text-anchor="middle" x="173.5" y="-81" font-family="Helvetica,sans-Serif" font-size="10.00">LogNormalDistribution</text>
</a>
</g>
</g>
<!-- Node0&#45;&gt;Node2 -->
<g id="edge50_Node000000_Node000002" class="edge">
<title>Node0&#45;&gt;Node2</title>
<g id="a_edge50_Node000000_Node000002"><a xlink:title=" ">
<path fill="none" stroke="#63b8ff" d="M83.95,-70.99C92.3,-72.17 101.14,-73.42 109.87,-74.65"/>
<polygon fill="#63b8ff" stroke="#63b8ff" points="84.43,-67.52 74.04,-69.59 83.46,-74.46 84.43,-67.52"/>
</a>
</g>
</g>
<!-- Node3 -->
<g id="Node000003" class="node">
<title>Node3</title>
<g id="a_Node000003"><a xlink:href="classNormalDistribution.html" target="_top" xlink:title=" ">
<polygon fill="white" stroke="#666666" points="228.5,-56 118.5,-56 118.5,-37 228.5,-37 228.5,-56"/>
<text text-anchor="middle" x="173.5" y="-44" font-family="Helvetica,sans-Serif" font-size="10.00">NormalDistribution</text>
</a>
</g>
</g>
<!-- Node0&#45;&gt;Node3 -->
<g id="edge51_Node000000_Node000003" class="edge">
<title>Node0&#45;&gt;Node3</title>
<g id="a_edge51_Node000000_Node000003"><a xlink:title=" ">
<path fill="none" stroke="#63b8ff" d="M84.28,-58.31C95.27,-56.84 107.08,-55.25 118.39,-53.74"/>
<polygon fill="#63b8ff" stroke="#63b8ff" points="83.49,-54.88 74.04,-59.68 84.42,-61.82 83.49,-54.88"/>
</a>
</g>
</g>
<!-- Node4 -->
<g id="Node000004" class="node">
<title>Node4</title>
<g id="a_Node000004"><a xlink:href="classUniformDistribution.html" target="_top" xlink:title=" ">
<polygon fill="white" stroke="#666666" points="230,-19 117,-19 117,0 230,0 230,-19"/>
<text text-anchor="middle" x="173.5" y="-7" font-family="Helvetica,sans-Serif" font-size="10.00">UniformDistribution</text>
</a>
</g>
</g>
<!-- Node0&#45;&gt;Node4 -->
<g id="edge52_Node000000_Node000004" class="edge">
<title>Node0&#45;&gt;Node4</title>
<g id="a_edge52_Node000000_Node000004"><a xlink:title=" ">
<path fill="none" stroke="#63b8ff" d="M64.22,-50.06C77.66,-43 94.44,-34.71 110,-28.5 118.74,-25.01 128.39,-21.79 137.43,-19.03"/>
<polygon fill="#63b8ff" stroke="#63b8ff" points="62.26,-47.13 55.08,-54.93 65.55,-53.31 62.26,-47.13"/>
</a>
</g>
</g>
</g>
</svg>
