<?xml version="1.0" encoding="UTF-8" standalone="no"?>
<!DOCTYPE svg PUBLIC "-//W3C//DTD SVG 1.1//EN"
 "http://www.w3.org/Graphics/SVG/1.1/DTD/svg11.dtd">
<!-- Generated by graphviz version 2.43.0 (0)
 -->
<!-- Title: Graphical Class Hierarchy Pages: 1 -->
<svg width="1024pt" height="529pt"
 viewBox="0.00 0.00 1024.00 528.50" xmlns="http://www.w3.org/2000/svg" xmlns:xlink="http://www.w3.org/1999/xlink">
<g id="graph0" class="graph" transform="scale(1 1) rotate(0) translate(4 524.5)">
<title>Graphical Class Hierarchy</title>
<!-- Node0 -->
<g id="Node000000" class="node">
<title>Node0</title>
<g id="a_Node000000"><a xlink:href="classPhysicsSolver.html" target="_top" xlink:title="Contain all the common elements of a physics solver. It creates the non&#45;linear solver as specified by...">
<polygon fill="white" stroke="#666666" points="167,-321.5 7,-321.5 7,-302.5 167,-302.5 167,-321.5"/>
<text text-anchor="middle" x="87" y="-309.5" font-family="Helvetica,sans-Serif" font-size="10.00">PhysicsSolver&lt; VectorType &gt;</text>
</a>
</g>
</g>
<!-- Node1 -->
<g id="Node000001" class="node">
<title>Node1</title>
<g id="a_Node000001"><a xlink:href="classAuxiliaryPhysics.html" target="_top" xlink:title=" ">
<polygon fill="white" stroke="#666666" points="364.5,-354 234.5,-354 234.5,-324 364.5,-324 364.5,-354"/>
<text text-anchor="start" x="242.5" y="-342" font-family="Helvetica,sans-Serif" font-size="10.00">AuxiliaryPhysics&lt; dim,</text>
<text text-anchor="middle" x="299.5" y="-331" font-family="Helvetica,sans-Serif" font-size="10.00"> GlobalVectorType &gt;</text>
</a>
</g>
</g>
<!-- Node0&#45;&gt;Node1 -->
<g id="edge195_Node000000_Node000001" class="edge">
<title>Node0&#45;&gt;Node1</title>
<g id="a_edge195_Node000000_Node000001"><a xlink:title=" ">
<path fill="none" stroke="#63b8ff" d="M172.27,-322.81C192.97,-325.46 214.81,-328.26 234.38,-330.78"/>
<polygon fill="#63b8ff" stroke="#63b8ff" points="172.58,-319.32 162.21,-321.52 171.69,-326.26 172.58,-319.32"/>
</a>
</g>
</g>
<!-- Node6 -->
<g id="Node000006" class="node">
<title>Node6</title>
<g id="a_Node000006"><a xlink:href="classNavierStokesBase.html" target="_top" xlink:title=" ">
<polygon fill="white" stroke="#666666" points="373.5,-305.5 225.5,-305.5 225.5,-264.5 373.5,-264.5 373.5,-305.5"/>
<text text-anchor="start" x="233.5" y="-293.5" font-family="Helvetica,sans-Serif" font-size="10.00">NavierStokesBase&lt; dim,</text>
<text text-anchor="start" x="233.5" y="-282.5" font-family="Helvetica,sans-Serif" font-size="10.00"> GlobalBlockVectorType,</text>
<text text-anchor="middle" x="299.5" y="-271.5" font-family="Helvetica,sans-Serif" font-size="10.00"> std::vector&lt; IndexSet &gt; &gt;</text>
</a>
</g>
</g>
<!-- Node0&#45;&gt;Node6 -->
<g id="edge200_Node000000_Node000006" class="edge">
<title>Node0&#45;&gt;Node6</title>
<g id="a_edge200_Node000000_Node000006"><a xlink:title=" ">
<path fill="none" stroke="#63b8ff" d="M172.42,-301.17C189.93,-298.93 208.24,-296.58 225.31,-294.39"/>
<polygon fill="#63b8ff" stroke="#63b8ff" points="171.69,-297.74 162.21,-302.48 172.58,-304.68 171.69,-297.74"/>
</a>
</g>
</g>
<!-- Node8 -->
<g id="Node000008" class="node">
<title>Node8</title>
<g id="a_Node000008"><a xlink:href="classNavierStokesBase.html" target="_top" xlink:title=" ">
<polygon fill="white" stroke="#666666" points="381.5,-246 217.5,-246 217.5,-216 381.5,-216 381.5,-246"/>
<text text-anchor="start" x="225.5" y="-234" font-family="Helvetica,sans-Serif" font-size="10.00">NavierStokesBase&lt; dim,</text>
<text text-anchor="middle" x="299.5" y="-223" font-family="Helvetica,sans-Serif" font-size="10.00"> GlobalVectorType, IndexSet &gt;</text>
</a>
</g>
</g>
<!-- Node0&#45;&gt;Node8 -->
<g id="edge202_Node000000_Node000008" class="edge">
<title>Node0&#45;&gt;Node8</title>
<g id="a_edge202_Node000000_Node000008"><a xlink:title=" ">
<path fill="none" stroke="#63b8ff" d="M115.66,-297.81C140.06,-285.65 176.79,-268.23 210,-256 219.59,-252.47 229.91,-249.14 240.01,-246.14"/>
<polygon fill="#63b8ff" stroke="#63b8ff" points="114,-294.72 106.64,-302.34 117.14,-300.98 114,-294.72"/>
</a>
</g>
</g>
<!-- Node14 -->
<g id="Node000014" class="node">
<title>Node14</title>
<g id="a_Node000014"><a xlink:href="classNavierStokesBase.html" target="_top" xlink:title=" ">
<polygon fill="white" stroke="#666666" points="384,-520.5 215,-520.5 215,-479.5 384,-479.5 384,-520.5"/>
<text text-anchor="start" x="223" y="-508.5" font-family="Helvetica,sans-Serif" font-size="10.00">NavierStokesBase&lt; dim,</text>
<text text-anchor="start" x="223" y="-497.5" font-family="Helvetica,sans-Serif" font-size="10.00"> LinearAlgebra::distributed</text>
<text text-anchor="middle" x="299.5" y="-486.5" font-family="Helvetica,sans-Serif" font-size="10.00">::Vector&lt; double &gt;, IndexSet &gt;</text>
</a>
</g>
</g>
<!-- Node0&#45;&gt;Node14 -->
<g id="edge208_Node000000_Node000014" class="edge">
<title>Node0&#45;&gt;Node14</title>
<g id="a_edge208_Node000000_Node000014"><a xlink:title=" ">
<path fill="none" stroke="#63b8ff" d="M98.17,-330.53C116.53,-362.42 158.19,-427.92 210,-466 216.9,-471.07 224.64,-475.48 232.61,-479.29"/>
<polygon fill="#63b8ff" stroke="#63b8ff" points="101.19,-328.77 93.23,-321.78 95.1,-332.21 101.19,-328.77"/>
</a>
</g>
</g>
<!-- Node18 -->
<g id="Node000018" class="node">
<title>Node18</title>
<g id="a_Node000018"><a xlink:href="classPhysicsNonlinearSubequationsSolver.html" target="_top" xlink:title=" ">
<polygon fill="white" stroke="#666666" points="389,-150 210,-150 210,-120 389,-120 389,-150"/>
<text text-anchor="start" x="218" y="-138" font-family="Helvetica,sans-Serif" font-size="10.00">PhysicsNonlinearSubequations</text>
<text text-anchor="middle" x="299.5" y="-127" font-family="Helvetica,sans-Serif" font-size="10.00">Solver&lt; dim, GlobalVectorType &gt;</text>
</a>
</g>
</g>
<!-- Node0&#45;&gt;Node18 -->
<g id="edge212_Node000000_Node000018" class="edge">
<title>Node0&#45;&gt;Node18</title>
<g id="a_edge212_Node000000_Node000018"><a xlink:title=" ">
<path fill="none" stroke="#63b8ff" d="M97.55,-293.5C115.24,-261.13 156.22,-194.33 210,-159 215.19,-155.59 220.85,-152.66 226.72,-150.15"/>
<polygon fill="#63b8ff" stroke="#63b8ff" points="94.44,-291.89 92.83,-302.36 100.62,-295.19 94.44,-291.89"/>
</a>
</g>
</g>
<!-- Node27 -->
<g id="Node000027" class="node">
<title>Node27</title>
<g id="a_Node000027"><a xlink:href="classAuxiliaryPhysics.html" target="_top" xlink:title=" ">
<polygon fill="white" stroke="#666666" points="364.5,-457 234.5,-457 234.5,-427 364.5,-427 364.5,-457"/>
<text text-anchor="start" x="242.5" y="-445" font-family="Helvetica,sans-Serif" font-size="10.00">AuxiliaryPhysics&lt; dim,</text>
<text text-anchor="middle" x="299.5" y="-434" font-family="Helvetica,sans-Serif" font-size="10.00"> VectorType &gt;</text>
</a>
</g>
</g>
<!-- Node0&#45;&gt;Node27 -->
<g id="edge214_Node000000_Node000027" class="edge">
<title>Node0&#45;&gt;Node27</title>
<g id="a_edge214_Node000000_Node000027"><a xlink:title=" ">
<path fill="none" stroke="#63b8ff" d="M104.9,-328.96C127.25,-350.58 168.64,-387.9 210,-411 221.09,-417.19 233.63,-422.49 245.72,-426.86"/>
<polygon fill="#63b8ff" stroke="#63b8ff" points="107.16,-326.27 97.57,-321.77 102.26,-331.27 107.16,-326.27"/>
</a>
</g>
</g>
<!-- Node29 -->
<g id="Node000029" class="node">
<title>Node29</title>
<g id="a_Node000029"><a xlink:href="classNavierStokesBase.html" target="_top" xlink:title=" ">
<polygon fill="white" stroke="#666666" points="368.5,-402 230.5,-402 230.5,-372 368.5,-372 368.5,-402"/>
<text text-anchor="start" x="238.5" y="-390" font-family="Helvetica,sans-Serif" font-size="10.00">NavierStokesBase&lt; dim,</text>
<text text-anchor="middle" x="299.5" y="-379" font-family="Helvetica,sans-Serif" font-size="10.00"> VectorType, DofsType &gt;</text>
</a>
</g>
</g>
<!-- Node0&#45;&gt;Node29 -->
<g id="edge216_Node000000_Node000029" class="edge">
<title>Node0&#45;&gt;Node29</title>
<g id="a_edge216_Node000000_Node000029"><a xlink:title=" ">
<path fill="none" stroke="#63b8ff" d="M117.83,-325.76C142.27,-336.73 177.94,-352 210,-363 219.19,-366.15 229.02,-369.16 238.67,-371.92"/>
<polygon fill="#63b8ff" stroke="#63b8ff" points="118.96,-322.43 108.4,-321.5 116.07,-328.81 118.96,-322.43"/>
</a>
</g>
</g>
<!-- Node26 -->
<g id="Node000026" class="node">
<title>Node26</title>
<g id="a_Node000026"><a xlink:href="classPhysicsNonlinearSubequationsSolver.html" target="_top" xlink:title="Non&#45;linear subequations solved inside a physics (or auxiliary physics) that are not part of the main ...">
<polygon fill="white" stroke="#666666" points="383,-198 216,-198 216,-168 383,-168 383,-198"/>
<text text-anchor="start" x="224" y="-186" font-family="Helvetica,sans-Serif" font-size="10.00">PhysicsNonlinearSubequations</text>
<text text-anchor="middle" x="299.5" y="-175" font-family="Helvetica,sans-Serif" font-size="10.00">Solver&lt; dim, VectorType &gt;</text>
</a>
</g>
</g>
<!-- Node0&#45;&gt;Node26 -->
<g id="edge217_Node000000_Node000026" class="edge">
<title>Node0&#45;&gt;Node26</title>
<g id="a_edge217_Node000000_Node000026"><a xlink:title=" ">
<path fill="none" stroke="#63b8ff" d="M103.16,-294.84C124.66,-271.56 166.28,-230.19 210,-207 216.47,-203.57 223.47,-200.59 230.6,-198.03"/>
<polygon fill="#63b8ff" stroke="#63b8ff" points="100.55,-292.51 96.42,-302.27 105.73,-297.21 100.55,-292.51"/>
</a>
</g>
</g>
<!-- Node2 -->
<g id="Node000002" class="node">
<title>Node2</title>
<g id="a_Node000002"><a xlink:href="classCahnHilliard.html" target="_top" xlink:title=" ">
<polygon fill="white" stroke="#666666" points="583,-383.5 465,-383.5 465,-364.5 583,-364.5 583,-383.5"/>
<text text-anchor="middle" x="524" y="-371.5" font-family="Helvetica,sans-Serif" font-size="10.00">CahnHilliard&lt; dim &gt;</text>
</a>
</g>
</g>
<!-- Node1&#45;&gt;Node2 -->
<g id="edge196_Node000001_Node000002" class="edge">
<title>Node1&#45;&gt;Node2</title>
<g id="a_edge196_Node000001_Node000002"><a xlink:title=" ">
<path fill="none" stroke="#63b8ff" d="M374.74,-350.68C404.04,-355.29 437.19,-360.5 464.71,-364.83"/>
<polygon fill="#63b8ff" stroke="#63b8ff" points="374.98,-347.17 364.56,-349.08 373.89,-354.09 374.98,-347.17"/>
</a>
</g>
</g>
<!-- Node3 -->
<g id="Node000003" class="node">
<title>Node3</title>
<g id="a_Node000003"><a xlink:href="classHeatTransfer.html" target="_top" xlink:title="Implementation of heat transfer as an auxiliary physics. The heat equation is weakly coupled to the v...">
<polygon fill="white" stroke="#666666" points="584,-346.5 464,-346.5 464,-327.5 584,-327.5 584,-346.5"/>
<text text-anchor="middle" x="524" y="-334.5" font-family="Helvetica,sans-Serif" font-size="10.00">HeatTransfer&lt; dim &gt;</text>
</a>
</g>
</g>
<!-- Node1&#45;&gt;Node3 -->
<g id="edge197_Node000001_Node000003" class="edge">
<title>Node1&#45;&gt;Node3</title>
<g id="a_edge197_Node000001_Node000003"><a xlink:title=" ">
<path fill="none" stroke="#63b8ff" d="M374.66,-338.33C403.71,-338.07 436.57,-337.78 463.96,-337.53"/>
<polygon fill="#63b8ff" stroke="#63b8ff" points="374.53,-334.83 364.56,-338.42 374.59,-341.83 374.53,-334.83"/>
</a>
</g>
</g>
<!-- Node4 -->
<g id="Node000004" class="node">
<title>Node4</title>
<g id="a_Node000004"><a xlink:href="classTracer.html" target="_top" xlink:title=" ">
<polygon fill="white" stroke="#666666" points="567.5,-309.5 480.5,-309.5 480.5,-290.5 567.5,-290.5 567.5,-309.5"/>
<text text-anchor="middle" x="524" y="-297.5" font-family="Helvetica,sans-Serif" font-size="10.00">Tracer&lt; dim &gt;</text>
</a>
</g>
</g>
<!-- Node1&#45;&gt;Node4 -->
<g id="edge198_Node000001_Node000004" class="edge">
<title>Node1&#45;&gt;Node4</title>
<g id="a_edge198_Node000001_Node000004"><a xlink:title=" ">
<path fill="none" stroke="#63b8ff" d="M374.79,-325.98C409.93,-319.82 450.62,-312.69 480.47,-307.46"/>
<polygon fill="#63b8ff" stroke="#63b8ff" points="373.8,-322.6 364.56,-327.77 375.01,-329.49 373.8,-322.6"/>
</a>
</g>
</g>
<!-- Node5 -->
<g id="Node000005" class="node">
<title>Node5</title>
<g id="a_Node000005"><a xlink:href="classVolumeOfFluid.html" target="_top" xlink:title=" ">
<polygon fill="white" stroke="#666666" points="589,-420.5 459,-420.5 459,-401.5 589,-401.5 589,-420.5"/>
<text text-anchor="middle" x="524" y="-408.5" font-family="Helvetica,sans-Serif" font-size="10.00">VolumeOfFluid&lt; dim &gt;</text>
</a>
</g>
</g>
<!-- Node1&#45;&gt;Node5 -->
<g id="edge199_Node000001_Node000005" class="edge">
<title>Node1&#45;&gt;Node5</title>
<g id="a_edge199_Node000001_Node000005"><a xlink:title=" ">
<path fill="none" stroke="#63b8ff" d="M374.01,-356.25C379.19,-358.28 384.23,-360.52 389,-363 407.48,-372.61 406.14,-384.16 425,-393 435.49,-397.92 447.21,-401.49 458.79,-404.09"/>
<polygon fill="#63b8ff" stroke="#63b8ff" points="375.2,-352.96 364.6,-352.84 372.81,-359.54 375.2,-352.96"/>
</a>
</g>
</g>
<!-- Node7 -->
<g id="Node000007" class="node">
<title>Node7</title>
<g id="a_Node000007"><a xlink:href="classFluidDynamicsBlock.html" target="_top" xlink:title=" ">
<polygon fill="white" stroke="#666666" points="582,-272 466,-272 466,-242 582,-242 582,-272"/>
<text text-anchor="start" x="474" y="-260" font-family="Helvetica,sans-Serif" font-size="10.00">FluidDynamicsBlock</text>
<text text-anchor="middle" x="524" y="-249" font-family="Helvetica,sans-Serif" font-size="10.00">&lt; dim &gt;</text>
</a>
</g>
</g>
<!-- Node6&#45;&gt;Node7 -->
<g id="edge201_Node000006_Node000007" class="edge">
<title>Node6&#45;&gt;Node7</title>
<g id="a_edge201_Node000006_Node000007"><a xlink:title=" ">
<path fill="none" stroke="#63b8ff" d="M383.61,-274.54C410.93,-271.1 440.69,-267.36 465.66,-264.22"/>
<polygon fill="#63b8ff" stroke="#63b8ff" points="383.15,-271.07 373.66,-275.79 384.02,-278.02 383.15,-271.07"/>
</a>
</g>
</g>
<!-- Node9 -->
<g id="Node000009" class="node">
<title>Node9</title>
<g id="a_Node000009"><a xlink:href="classFluidDynamicsMatrixBased.html" target="_top" xlink:title="A solver class for the Navier&#45;Stokes equation using GLS stabilization.">
<polygon fill="white" stroke="#666666" points="599.5,-224 448.5,-224 448.5,-194 599.5,-194 599.5,-224"/>
<text text-anchor="start" x="456.5" y="-212" font-family="Helvetica,sans-Serif" font-size="10.00">FluidDynamicsMatrixBased</text>
<text text-anchor="middle" x="524" y="-201" font-family="Helvetica,sans-Serif" font-size="10.00">&lt; dim &gt;</text>
</a>
</g>
</g>
<!-- Node8&#45;&gt;Node9 -->
<g id="edge203_Node000008_Node000009" class="edge">
<title>Node8&#45;&gt;Node9</title>
<g id="a_edge203_Node000008_Node000009"><a xlink:title=" ">
<path fill="none" stroke="#63b8ff" d="M391.8,-221.97C410.57,-220.12 430.12,-218.18 448.23,-216.39"/>
<polygon fill="#63b8ff" stroke="#63b8ff" points="391.38,-218.5 381.77,-222.96 392.07,-225.46 391.38,-218.5"/>
</a>
</g>
</g>
<!-- Node10 -->
<g id="Node000010" class="node">
<title>Node10</title>
<g id="a_Node000010"><a xlink:href="classFluidDynamicsNitsche.html" target="_top" xlink:title=" ">
<polygon fill="white" stroke="#666666" points="806,-224 680,-224 680,-194 806,-194 806,-224"/>
<text text-anchor="start" x="688" y="-212" font-family="Helvetica,sans-Serif" font-size="10.00">FluidDynamicsNitsche</text>
<text text-anchor="middle" x="743" y="-201" font-family="Helvetica,sans-Serif" font-size="10.00">&lt; dim, spacedim &gt;</text>
</a>
</g>
</g>
<!-- Node9&#45;&gt;Node10 -->
<g id="edge204_Node000009_Node000010" class="edge">
<title>Node9&#45;&gt;Node10</title>
<g id="a_edge204_Node000009_Node000010"><a xlink:title=" ">
<path fill="none" stroke="#63b8ff" d="M609.91,-209C633.21,-209 658.03,-209 679.8,-209"/>
<polygon fill="#63b8ff" stroke="#63b8ff" points="609.68,-205.5 599.68,-209 609.68,-212.5 609.68,-205.5"/>
</a>
</g>
</g>
<!-- Node11 -->
<g id="Node000011" class="node">
<title>Node11</title>
<g id="a_Node000011"><a xlink:href="classFluidDynamicsSharp.html" target="_top" xlink:title=" ">
<polygon fill="white" stroke="#666666" points="801.5,-176 684.5,-176 684.5,-146 801.5,-146 801.5,-176"/>
<text text-anchor="start" x="692.5" y="-164" font-family="Helvetica,sans-Serif" font-size="10.00">FluidDynamicsSharp</text>
<text text-anchor="middle" x="743" y="-153" font-family="Helvetica,sans-Serif" font-size="10.00">&lt; dim &gt;</text>
</a>
</g>
</g>
<!-- Node9&#45;&gt;Node11 -->
<g id="edge205_Node000009_Node000011" class="edge">
<title>Node9&#45;&gt;Node11</title>
<g id="a_edge205_Node000009_Node000011"><a xlink:title=" ">
<path fill="none" stroke="#63b8ff" d="M602.84,-191.78C629.75,-185.83 659.4,-179.27 684.4,-173.74"/>
<polygon fill="#63b8ff" stroke="#63b8ff" points="602.07,-188.37 593.06,-193.94 603.58,-195.2 602.07,-188.37"/>
</a>
</g>
</g>
<!-- Node12 -->
<g id="Node000012" class="node">
<title>Node12</title>
<g id="a_Node000012"><a xlink:href="classFluidDynamicsVANS.html" target="_top" xlink:title="Solver class for Volume&#45;Averaged Navier&#45;Stokes (VANS) equations with GLS stabilization.">
<polygon fill="white" stroke="#666666" points="805,-272 681,-272 681,-242 805,-242 805,-272"/>
<text text-anchor="start" x="689" y="-260" font-family="Helvetica,sans-Serif" font-size="10.00">FluidDynamicsVANS&lt;</text>
<text text-anchor="middle" x="743" y="-249" font-family="Helvetica,sans-Serif" font-size="10.00"> dim &gt;</text>
</a>
</g>
</g>
<!-- Node9&#45;&gt;Node12 -->
<g id="edge206_Node000009_Node000012" class="edge">
<title>Node9&#45;&gt;Node12</title>
<g id="a_edge206_Node000009_Node000012"><a xlink:title=" ">
<path fill="none" stroke="#63b8ff" d="M603.1,-226.28C628.66,-231.93 656.67,-238.12 680.8,-243.46"/>
<polygon fill="#63b8ff" stroke="#63b8ff" points="603.58,-222.8 593.06,-224.06 602.07,-229.63 603.58,-222.8"/>
</a>
</g>
</g>
<!-- Node13 -->
<g id="Node000013" class="node">
<title>Node13</title>
<g id="a_Node000013"><a xlink:href="classCFDDEMSolver.html" target="_top" xlink:title="Solver class for coupled Computational Fluid Dynamics and Discrete Element Method (CFD&#45;DEM) simulatio...">
<polygon fill="white" stroke="#666666" points="1005,-266.5 874,-266.5 874,-247.5 1005,-247.5 1005,-266.5"/>
<text text-anchor="middle" x="939.5" y="-254.5" font-family="Helvetica,sans-Serif" font-size="10.00">CFDDEMSolver&lt; dim &gt;</text>
</a>
</g>
</g>
<!-- Node12&#45;&gt;Node13 -->
<g id="edge207_Node000012_Node000013" class="edge">
<title>Node12&#45;&gt;Node13</title>
<g id="a_edge207_Node000012_Node000013"><a xlink:title=" ">
<path fill="none" stroke="#63b8ff" d="M815.17,-257C834.3,-257 854.9,-257 873.67,-257"/>
<polygon fill="#63b8ff" stroke="#63b8ff" points="815.01,-253.5 805.01,-257 815.01,-260.5 815.01,-253.5"/>
</a>
</g>
</g>
<!-- Node15 -->
<g id="Node000015" class="node">
<title>Node15</title>
<g id="a_Node000015"><a xlink:href="classFluidDynamicsMatrixFree.html" target="_top" xlink:title="A solver for the incompressible Navier&#45;Stokes equations implemented in a matrix&#45;free fashion.">
<polygon fill="white" stroke="#666666" points="595,-517 453,-517 453,-487 595,-487 595,-517"/>
<text text-anchor="start" x="461" y="-505" font-family="Helvetica,sans-Serif" font-size="10.00">FluidDynamicsMatrixFree</text>
<text text-anchor="middle" x="524" y="-494" font-family="Helvetica,sans-Serif" font-size="10.00">&lt; dim &gt;</text>
</a>
</g>
</g>
<!-- Node14&#45;&gt;Node15 -->
<g id="edge209_Node000014_Node000015" class="edge">
<title>Node14&#45;&gt;Node15</title>
<g id="a_edge209_Node000014_Node000015"><a xlink:title=" ">
<path fill="none" stroke="#63b8ff" d="M394.43,-500.84C413.96,-501.02 434.22,-501.2 452.72,-501.37"/>
<polygon fill="#63b8ff" stroke="#63b8ff" points="394.33,-497.34 384.3,-500.75 394.27,-504.34 394.33,-497.34"/>
</a>
</g>
</g>
<!-- Node16 -->
<g id="Node000016" class="node">
<title>Node16</title>
<g id="a_Node000016"><a xlink:href="classFluidDynamicsVANSMatrixFree.html" target="_top" xlink:title="A solver for the Volume&#45;Averaged incompressible Navier&#45;Stokes equations implemented in a matrix&#45;free ...">
<polygon fill="white" stroke="#666666" points="827,-517 659,-517 659,-487 827,-487 827,-517"/>
<text text-anchor="start" x="667" y="-505" font-family="Helvetica,sans-Serif" font-size="10.00">FluidDynamicsVANSMatrixFree</text>
<text text-anchor="middle" x="743" y="-494" font-family="Helvetica,sans-Serif" font-size="10.00">&lt; dim &gt;</text>
</a>
</g>
</g>
<!-- Node15&#45;&gt;Node16 -->
<g id="edge210_Node000015_Node000016" class="edge">
<title>Node15&#45;&gt;Node16</title>
<g id="a_edge210_Node000015_Node000016"><a xlink:title=" ">
<path fill="none" stroke="#63b8ff" d="M605.3,-502C622.76,-502 641.27,-502 658.85,-502"/>
<polygon fill="#63b8ff" stroke="#63b8ff" points="605.15,-498.5 595.15,-502 605.15,-505.5 605.15,-498.5"/>
</a>
</g>
</g>
<!-- Node17 -->
<g id="Node000017" class="node">
<title>Node17</title>
<g id="a_Node000017"><a xlink:href="classCFDDEMMatrixFree.html" target="_top" xlink:title="Solver class for coupled Computational Fluid Dynamics and Discrete Element Method (CFD&#45;DEM) simulatio...">
<polygon fill="white" stroke="#666666" points="1016,-511.5 863,-511.5 863,-492.5 1016,-492.5 1016,-511.5"/>
<text text-anchor="middle" x="939.5" y="-499.5" font-family="Helvetica,sans-Serif" font-size="10.00">CFDDEMMatrixFree&lt; dim &gt;</text>
</a>
</g>
</g>
<!-- Node16&#45;&gt;Node17 -->
<g id="edge211_Node000016_Node000017" class="edge">
<title>Node16&#45;&gt;Node17</title>
<g id="a_edge211_Node000016_Node000017"><a xlink:title=" ">
<path fill="none" stroke="#63b8ff" d="M837.12,-502C845.73,-502 854.38,-502 862.81,-502"/>
<polygon fill="#63b8ff" stroke="#63b8ff" points="837.05,-498.5 827.05,-502 837.05,-505.5 837.05,-498.5"/>
</a>
</g>
</g>
<!-- Node19 -->
<g id="Node000019" class="node">
<title>Node19</title>
<g id="a_Node000019"><a xlink:href="classVOFAlgebraicInterfaceReinitialization.html" target="_top" xlink:title="VOF algebraic reinitialization solver.">
<polygon fill="white" stroke="#666666" points="623,-150 425,-150 425,-120 623,-120 623,-150"/>
<text text-anchor="start" x="433" y="-138" font-family="Helvetica,sans-Serif" font-size="10.00">VOFAlgebraicInterfaceReinitialization</text>
<text text-anchor="middle" x="524" y="-127" font-family="Helvetica,sans-Serif" font-size="10.00">&lt; dim &gt;</text>
</a>
</g>
</g>
<!-- Node18&#45;&gt;Node19 -->
<g id="edge213_Node000018_Node000019" class="edge">
<title>Node18&#45;&gt;Node19</title>
<g id="a_edge213_Node000018_Node000019"><a xlink:title=" ">
<path fill="none" stroke="#63b8ff" d="M399.35,-135C407.82,-135 416.38,-135 424.85,-135"/>
<polygon fill="#63b8ff" stroke="#63b8ff" points="399.08,-131.5 389.08,-135 399.08,-138.5 399.08,-131.5"/>
</a>
</g>
</g>
<!-- Node28 -->
<g id="Node000028" class="node">
<title>Node28</title>
<g id="a_Node000028"><a xlink:href="classTimeHarmonicMaxwell.html" target="_top" xlink:title=" ">
<polygon fill="white" stroke="#666666" points="589,-469 459,-469 459,-439 589,-439 589,-469"/>
<text text-anchor="start" x="467" y="-457" font-family="Helvetica,sans-Serif" font-size="10.00">TimeHarmonicMaxwell</text>
<text text-anchor="middle" x="524" y="-446" font-family="Helvetica,sans-Serif" font-size="10.00">&lt; dim &gt;</text>
</a>
</g>
</g>
<!-- Node27&#45;&gt;Node28 -->
<g id="edge215_Node000027_Node000028" class="edge">
<title>Node27&#45;&gt;Node28</title>
<g id="a_edge215_Node000027_Node000028"><a xlink:title=" ">
<path fill="none" stroke="#63b8ff" d="M374.79,-446.01C401.94,-447.47 432.41,-449.11 458.62,-450.53"/>
<polygon fill="#63b8ff" stroke="#63b8ff" points="374.73,-442.5 364.56,-445.45 374.35,-449.49 374.73,-442.5"/>
</a>
</g>
</g>
<!-- Node20 -->
<g id="Node000020" class="node">
<title>Node20</title>
<g id="a_Node000020"><a xlink:href="classPhysicsSubequationsSolverBase.html" target="_top" xlink:title="Base class to solve subequations solved inside a physics (or auxiliary physics) that are not part of ...">
<polygon fill="white" stroke="#666666" points="174,-144.5 0,-144.5 0,-125.5 174,-125.5 174,-144.5"/>
<text text-anchor="middle" x="87" y="-132.5" font-family="Helvetica,sans-Serif" font-size="10.00">PhysicsSubequationsSolverBase</text>
</a>
</g>
</g>
<!-- Node20&#45;&gt;Node18 -->
<g id="edge218_Node000020_Node000018" class="edge">
<title>Node20&#45;&gt;Node18</title>
<g id="a_edge218_Node000020_Node000018"><a xlink:title=" ">
<path fill="none" stroke="#63b8ff" d="M184.43,-135C192.85,-135 201.33,-135 209.68,-135"/>
<polygon fill="#63b8ff" stroke="#63b8ff" points="184.23,-131.5 174.23,-135 184.23,-138.5 184.23,-131.5"/>
</a>
</g>
</g>
<!-- Node20&#45;&gt;Node26 -->
<g id="edge224_Node000020_Node000026" class="edge">
<title>Node20&#45;&gt;Node26</title>
<g id="a_edge224_Node000020_Node000026"><a xlink:title=" ">
<path fill="none" stroke="#63b8ff" d="M139.83,-146.82C167.86,-153.21 202.77,-161.17 232.7,-168"/>
<polygon fill="#63b8ff" stroke="#63b8ff" points="140.37,-143.35 129.84,-144.54 138.81,-150.18 140.37,-143.35"/>
</a>
</g>
</g>
<!-- Node21 -->
<g id="Node000021" class="node">
<title>Node21</title>
<g id="a_Node000021"><a xlink:href="classPhysicsLinearSubequationsSolver.html" target="_top" xlink:title="Linear subequations solved inside a physics (or auxiliary physics) that are not part of the main set ...">
<polygon fill="white" stroke="#666666" points="374,-102 225,-102 225,-72 374,-72 374,-102"/>
<text text-anchor="start" x="233" y="-90" font-family="Helvetica,sans-Serif" font-size="10.00">PhysicsLinearSubequations</text>
<text text-anchor="middle" x="299.5" y="-79" font-family="Helvetica,sans-Serif" font-size="10.00">Solver</text>
</a>
</g>
</g>
<!-- Node20&#45;&gt;Node21 -->
<g id="edge219_Node000020_Node000021" class="edge">
<title>Node20&#45;&gt;Node21</title>
<g id="a_edge219_Node000020_Node000021"><a xlink:title=" ">
<path fill="none" stroke="#63b8ff" d="M139.83,-123.18C167.86,-116.79 202.77,-108.83 232.7,-102"/>
<polygon fill="#63b8ff" stroke="#63b8ff" points="138.81,-119.82 129.84,-125.46 140.37,-126.65 138.81,-119.82"/>
</a>
</g>
</g>
<!-- Node22 -->
<g id="Node000022" class="node">
<title>Node22</title>
<g id="a_Node000022"><a xlink:href="classParticleProjector.html" target="_top" xlink:title="Particle information projection. This class manages the calculation of the projection of the particle...">
<polygon fill="white" stroke="#666666" points="576,-102 472,-102 472,-72 576,-72 576,-102"/>
<text text-anchor="start" x="480" y="-90" font-family="Helvetica,sans-Serif" font-size="10.00">ParticleProjector&lt;</text>
<text text-anchor="middle" x="524" y="-79" font-family="Helvetica,sans-Serif" font-size="10.00"> dim &gt;</text>
</a>
</g>
</g>
<!-- Node21&#45;&gt;Node22 -->
<g id="edge220_Node000021_Node000022" class="edge">
<title>Node21&#45;&gt;Node22</title>
<g id="a_edge220_Node000021_Node000022"><a xlink:title=" ">
<path fill="none" stroke="#63b8ff" d="M384.55,-87C413.94,-87 446.02,-87 471.9,-87"/>
<polygon fill="#63b8ff" stroke="#63b8ff" points="384.28,-83.5 374.28,-87 384.28,-90.5 384.28,-83.5"/>
</a>
</g>
</g>
<!-- Node23 -->
<g id="Node000023" class="node">
<title>Node23</title>
<g id="a_Node000023"><a xlink:href="classVOFLinearSubequationsSolver.html" target="_top" xlink:title="Generalized solver for VOF linear subequations.">
<polygon fill="white" stroke="#666666" points="606,-54 442,-54 442,-24 606,-24 606,-54"/>
<text text-anchor="start" x="450" y="-42" font-family="Helvetica,sans-Serif" font-size="10.00">VOFLinearSubequationsSolver</text>
<text text-anchor="middle" x="524" y="-31" font-family="Helvetica,sans-Serif" font-size="10.00">&lt; dim &gt;</text>
</a>
</g>
</g>
<!-- Node21&#45;&gt;Node23 -->
<g id="edge221_Node000021_Node000023" class="edge">
<title>Node21&#45;&gt;Node23</title>
<g id="a_edge221_Node000021_Node000023"><a xlink:title=" ">
<path fill="none" stroke="#63b8ff" d="M380.07,-69.83C404.05,-64.66 430.18,-59.02 453.46,-54"/>
<polygon fill="#63b8ff" stroke="#63b8ff" points="379.33,-66.41 370.29,-71.94 380.8,-73.26 379.33,-66.41"/>
</a>
</g>
</g>
<!-- Node24 -->
<g id="Node000024" class="node">
<title>Node24</title>
<g id="a_Node000024"><a xlink:href="classVOFCurvatureProjection.html" target="_top" xlink:title="VOF curvature L2 projection solver.">
<polygon fill="white" stroke="#666666" points="810,-78 676,-78 676,-48 810,-48 810,-78"/>
<text text-anchor="start" x="684" y="-66" font-family="Helvetica,sans-Serif" font-size="10.00">VOFCurvatureProjection</text>
<text text-anchor="middle" x="743" y="-55" font-family="Helvetica,sans-Serif" font-size="10.00">&lt; dim &gt;</text>
</a>
</g>
</g>
<!-- Node23&#45;&gt;Node24 -->
<g id="edge222_Node000023_Node000024" class="edge">
<title>Node23&#45;&gt;Node24</title>
<g id="a_edge222_Node000023_Node000024"><a xlink:title=" ">
<path fill="none" stroke="#63b8ff" d="M616.18,-49.08C636.2,-51.3 657.03,-53.6 675.85,-55.68"/>
<polygon fill="#63b8ff" stroke="#63b8ff" points="616.44,-45.59 606.11,-47.97 615.67,-52.55 616.44,-45.59"/>
</a>
</g>
</g>
<!-- Node25 -->
<g id="Node000025" class="node">
<title>Node25</title>
<g id="a_Node000025"><a xlink:href="classVOFPhaseGradientProjection.html" target="_top" xlink:title="VOF phase fraction gradient L2 projection solver.">
<polygon fill="white" stroke="#666666" points="821.5,-30 664.5,-30 664.5,0 821.5,0 821.5,-30"/>
<text text-anchor="start" x="672.5" y="-18" font-family="Helvetica,sans-Serif" font-size="10.00">VOFPhaseGradientProjection</text>
<text text-anchor="middle" x="743" y="-7" font-family="Helvetica,sans-Serif" font-size="10.00">&lt; dim &gt;</text>
</a>
</g>
</g>
<!-- Node23&#45;&gt;Node25 -->
<g id="edge223_Node000023_Node000025" class="edge">
<title>Node23&#45;&gt;Node25</title>
<g id="a_edge223_Node000023_Node000025"><a xlink:title=" ">
<path fill="none" stroke="#63b8ff" d="M616.47,-28.88C632.36,-27.13 648.74,-25.31 664.22,-23.6"/>
<polygon fill="#63b8ff" stroke="#63b8ff" points="615.67,-25.45 606.11,-30.03 616.44,-32.41 615.67,-25.45"/>
</a>
</g>
</g>
</g>
</svg>
