<?xml version="1.0" encoding="UTF-8" standalone="no"?>
<!DOCTYPE svg PUBLIC "-//W3C//DTD SVG 1.1//EN"
 "http://www.w3.org/Graphics/SVG/1.1/DTD/svg11.dtd">
<!-- Generated by graphviz version 2.43.0 (0)
 -->
<!-- Title: Graphical Class Hierarchy Pages: 1 -->
<svg width="553pt" height="877pt"
 viewBox="0.00 0.00 553.00 876.50" xmlns="http://www.w3.org/2000/svg" xmlns:xlink="http://www.w3.org/1999/xlink">
<g id="graph0" class="graph" transform="scale(1 1) rotate(0) translate(4 872.5)">
<title>Graphical Class Hierarchy</title>
<!-- Node0 -->
<g id="Node000000" class="node">
<title>Node0</title>
<g id="a_Node000000"><a xlink:href="classPhysicalPropertyModel.html" target="_top" xlink:title="Abstract class that defines the interface for a physical property model Physical property model provi...">
<polygon fill="white" stroke="#666666" points="128,-572.5 0,-572.5 0,-553.5 128,-553.5 128,-572.5"/>
<text text-anchor="middle" x="64" y="-560.5" font-family="Helvetica,sans-Serif" font-size="10.00">PhysicalPropertyModel</text>
</a>
</g>
</g>
<!-- Node1 -->
<g id="Node000001" class="node">
<title>Node1</title>
<g id="a_Node000001"><a xlink:href="classDensityModel.html" target="_top" xlink:title="Abstract class for calculating the density of materials.">
<polygon fill="white" stroke="#666666" points="287.5,-831.5 203.5,-831.5 203.5,-812.5 287.5,-812.5 287.5,-831.5"/>
<text text-anchor="middle" x="245.5" y="-819.5" font-family="Helvetica,sans-Serif" font-size="10.00">DensityModel</text>
</a>
</g>
</g>
<!-- Node0&#45;&gt;Node1 -->
<g id="edge107_Node000000_Node000001" class="edge">
<title>Node0&#45;&gt;Node1</title>
<g id="a_edge107_Node000000_Node000001"><a xlink:title=" ">
<path fill="none" stroke="#63b8ff" d="M67.84,-582.56C75.29,-626.82 99.48,-735.42 164,-795 174.83,-805 189.48,-811.31 203.32,-815.28"/>
<polygon fill="#63b8ff" stroke="#63b8ff" points="71.28,-581.87 66.26,-572.54 64.36,-582.96 71.28,-581.87"/>
</a>
</g>
</g>
<!-- Node4 -->
<g id="Node000004" class="node">
<title>Node4</title>
<g id="a_Node000004"><a xlink:href="classElectricConductivityModel.html" target="_top" xlink:title="Abstract class that allows to calculate the electric conductivity on each quadrature point.">
<polygon fill="white" stroke="#666666" points="317.5,-785.5 173.5,-785.5 173.5,-766.5 317.5,-766.5 317.5,-785.5"/>
<text text-anchor="middle" x="245.5" y="-773.5" font-family="Helvetica,sans-Serif" font-size="10.00">ElectricConductivityModel</text>
</a>
</g>
</g>
<!-- Node0&#45;&gt;Node4 -->
<g id="edge110_Node000000_Node000004" class="edge">
<title>Node0&#45;&gt;Node4</title>
<g id="a_edge110_Node000000_Node000004"><a xlink:title=" ">
<path fill="none" stroke="#63b8ff" d="M71.26,-582.54C83.62,-618.25 114.31,-694.57 164,-740 177.22,-752.09 195.17,-760.65 210.77,-766.38"/>
<polygon fill="#63b8ff" stroke="#63b8ff" points="74.51,-581.21 68.02,-572.84 67.87,-583.43 74.51,-581.21"/>
</a>
</g>
</g>
<!-- Node6 -->
<g id="Node000006" class="node">
<title>Node6</title>
<g id="a_Node000006"><a xlink:href="classElectricPermittivityModel.html" target="_top" xlink:title="Abstract class that allows to calculate the electric permittivity real and imaginary part on each qua...">
<polygon fill="white" stroke="#666666" points="315.5,-730.5 175.5,-730.5 175.5,-711.5 315.5,-711.5 315.5,-730.5"/>
<text text-anchor="middle" x="245.5" y="-718.5" font-family="Helvetica,sans-Serif" font-size="10.00">ElectricPermittivityModel</text>
</a>
</g>
</g>
<!-- Node0&#45;&gt;Node6 -->
<g id="edge112_Node000000_Node000006" class="edge">
<title>Node0&#45;&gt;Node6</title>
<g id="a_edge112_Node000000_Node000006"><a xlink:title=" ">
<path fill="none" stroke="#63b8ff" d="M79.7,-580.36C98.22,-601.74 131.57,-638.56 164,-666 184.93,-683.71 211.61,-701.03 228.38,-711.36"/>
<polygon fill="#63b8ff" stroke="#63b8ff" points="82.31,-578.04 73.14,-572.73 77,-582.6 82.31,-578.04"/>
</a>
</g>
</g>
<!-- Node8 -->
<g id="Node000008" class="node">
<title>Node8</title>
<g id="a_Node000008"><a xlink:href="classMagneticPermeabilityModel.html" target="_top" xlink:title="Abstract class that allows to calculate the magnetic permeability on each quadrature point.">
<polygon fill="white" stroke="#666666" points="322.5,-656.5 168.5,-656.5 168.5,-637.5 322.5,-637.5 322.5,-656.5"/>
<text text-anchor="middle" x="245.5" y="-644.5" font-family="Helvetica,sans-Serif" font-size="10.00">MagneticPermeabilityModel</text>
</a>
</g>
</g>
<!-- Node0&#45;&gt;Node8 -->
<g id="edge114_Node000000_Node000008" class="edge">
<title>Node0&#45;&gt;Node8</title>
<g id="a_edge114_Node000000_Node000008"><a xlink:title=" ">
<path fill="none" stroke="#63b8ff" d="M88.58,-577.94C108.25,-590.01 137.28,-606.92 164,-619 179.64,-626.07 197.63,-632.49 212.64,-637.38"/>
<polygon fill="#63b8ff" stroke="#63b8ff" points="90.33,-574.91 79.99,-572.61 86.64,-580.86 90.33,-574.91"/>
</a>
</g>
</g>
<!-- Node10 -->
<g id="Node000010" class="node">
<title>Node10</title>
<g id="a_Node000010"><a xlink:href="classRheologicalModel.html" target="_top" xlink:title="Abstract class that allows to calculate the non&#45;Newtonian viscosity on each quadrature point and the ...">
<polygon fill="white" stroke="#666666" points="297.5,-609.5 193.5,-609.5 193.5,-590.5 297.5,-590.5 297.5,-609.5"/>
<text text-anchor="middle" x="245.5" y="-597.5" font-family="Helvetica,sans-Serif" font-size="10.00">RheologicalModel</text>
</a>
</g>
</g>
<!-- Node0&#45;&gt;Node10 -->
<g id="edge116_Node000000_Node000010" class="edge">
<title>Node0&#45;&gt;Node10</title>
<g id="a_edge116_Node000000_Node000010"><a xlink:title=" ">
<path fill="none" stroke="#63b8ff" d="M121.2,-574.58C145.93,-579.68 174.63,-585.6 198.12,-590.44"/>
<polygon fill="#63b8ff" stroke="#63b8ff" points="121.73,-571.12 111.23,-572.53 120.31,-577.98 121.73,-571.12"/>
</a>
</g>
</g>
<!-- Node15 -->
<g id="Node000015" class="node">
<title>Node15</title>
<g id="a_Node000015"><a xlink:href="classSpecificHeatModel.html" target="_top" xlink:title="Abstract class for calculating the specific heat of materials on quadrature points using the temperat...">
<polygon fill="white" stroke="#666666" points="299,-535.5 192,-535.5 192,-516.5 299,-516.5 299,-535.5"/>
<text text-anchor="middle" x="245.5" y="-523.5" font-family="Helvetica,sans-Serif" font-size="10.00">SpecificHeatModel</text>
</a>
</g>
</g>
<!-- Node0&#45;&gt;Node15 -->
<g id="edge121_Node000000_Node000015" class="edge">
<title>Node0&#45;&gt;Node15</title>
<g id="a_edge121_Node000000_Node000015"><a xlink:title=" ">
<path fill="none" stroke="#63b8ff" d="M121.2,-551.42C145.93,-546.32 174.63,-540.4 198.12,-535.56"/>
<polygon fill="#63b8ff" stroke="#63b8ff" points="120.31,-548.02 111.23,-553.47 121.73,-554.88 120.31,-548.02"/>
</a>
</g>
</g>
<!-- Node18 -->
<g id="Node000018" class="node">
<title>Node18</title>
<g id="a_Node000018"><a xlink:href="classThermalConductivityModel.html" target="_top" xlink:title="Abstract class that allows to calculate the thermal conductivity on each quadrature point using the t...">
<polygon fill="white" stroke="#666666" points="320,-442.5 171,-442.5 171,-423.5 320,-423.5 320,-442.5"/>
<text text-anchor="middle" x="245.5" y="-430.5" font-family="Helvetica,sans-Serif" font-size="10.00">ThermalConductivityModel</text>
</a>
</g>
</g>
<!-- Node0&#45;&gt;Node18 -->
<g id="edge124_Node000000_Node000018" class="edge">
<title>Node0&#45;&gt;Node18</title>
<g id="a_edge124_Node000000_Node000018"><a xlink:title=" ">
<path fill="none" stroke="#63b8ff" d="M86.43,-547.48C123.96,-520.3 200.53,-464.84 231.28,-442.57"/>
<polygon fill="#63b8ff" stroke="#63b8ff" points="84.25,-544.74 78.2,-553.44 88.35,-550.41 84.25,-544.74"/>
</a>
</g>
</g>
<!-- Node22 -->
<g id="Node000022" class="node">
<title>Node22</title>
<g id="a_Node000022"><a xlink:href="classThermalExpansionModel.html" target="_top" xlink:title="Abstract class that allows to calculate the thermal expansion coefficient (with unit of inverse tempe...">
<polygon fill="white" stroke="#666666" points="314,-338.5 177,-338.5 177,-319.5 314,-319.5 314,-338.5"/>
<text text-anchor="middle" x="245.5" y="-326.5" font-family="Helvetica,sans-Serif" font-size="10.00">ThermalExpansionModel</text>
</a>
</g>
</g>
<!-- Node0&#45;&gt;Node22 -->
<g id="edge128_Node000000_Node000022" class="edge">
<title>Node0&#45;&gt;Node22</title>
<g id="a_edge128_Node000000_Node000022"><a xlink:title=" ">
<path fill="none" stroke="#63b8ff" d="M75.9,-544.7C93.24,-516.07 128.77,-459.38 164,-415 187.4,-385.53 218.75,-353.99 234.53,-338.59"/>
<polygon fill="#63b8ff" stroke="#63b8ff" points="72.9,-542.9 70.74,-553.28 78.9,-546.51 72.9,-542.9"/>
</a>
</g>
</g>
<!-- Node25 -->
<g id="Node000025" class="node">
<title>Node25</title>
<g id="a_Node000025"><a xlink:href="classTracerDiffusivityModel.html" target="_top" xlink:title="Abstract class that allows to calculates the tracer diffusivity.">
<polygon fill="white" stroke="#666666" points="308.5,-246.5 182.5,-246.5 182.5,-227.5 308.5,-227.5 308.5,-246.5"/>
<text text-anchor="middle" x="245.5" y="-234.5" font-family="Helvetica,sans-Serif" font-size="10.00">TracerDiffusivityModel</text>
</a>
</g>
</g>
<!-- Node0&#45;&gt;Node25 -->
<g id="edge131_Node000000_Node000025" class="edge">
<title>Node0&#45;&gt;Node25</title>
<g id="a_edge131_Node000000_Node000025"><a xlink:title=" ">
<path fill="none" stroke="#63b8ff" d="M69.5,-543.26C80.31,-498.79 110.84,-388.56 164,-311 182.68,-283.75 213.15,-259.36 230.76,-246.53"/>
<polygon fill="#63b8ff" stroke="#63b8ff" points="66.07,-542.56 67.18,-553.09 72.88,-544.17 66.07,-542.56"/>
</a>
</g>
</g>
<!-- Node29 -->
<g id="Node000029" class="node">
<title>Node29</title>
<g id="a_Node000029"><a xlink:href="classTracerReactionPrefactorModel.html" target="_top" xlink:title="Abstract class to calculate the tracer reaction prefactor.">
<polygon fill="white" stroke="#666666" points="327,-110.5 164,-110.5 164,-91.5 327,-91.5 327,-110.5"/>
<text text-anchor="middle" x="245.5" y="-98.5" font-family="Helvetica,sans-Serif" font-size="10.00">TracerReactionPrefactorModel</text>
</a>
</g>
</g>
<!-- Node0&#45;&gt;Node29 -->
<g id="edge135_Node000000_Node000029" class="edge">
<title>Node0&#45;&gt;Node29</title>
<g id="a_edge135_Node000000_Node000029"><a xlink:title=" ">
<path fill="none" stroke="#63b8ff" d="M68.37,-543.38C78.1,-489.55 109.08,-335.83 164,-219 184.47,-175.46 220.14,-130.15 236.22,-110.75"/>
<polygon fill="#63b8ff" stroke="#63b8ff" points="64.92,-542.84 66.62,-553.3 71.81,-544.06 64.92,-542.84"/>
</a>
</g>
</g>
<!-- Node2 -->
<g id="Node000002" class="node">
<title>Node2</title>
<g id="a_Node000002"><a xlink:href="classDensityConstant.html" target="_top" xlink:title="Constant density model.">
<polygon fill="white" stroke="#666666" points="503,-868.5 405,-868.5 405,-849.5 503,-849.5 503,-868.5"/>
<text text-anchor="middle" x="454" y="-856.5" font-family="Helvetica,sans-Serif" font-size="10.00">DensityConstant</text>
</a>
</g>
</g>
<!-- Node1&#45;&gt;Node2 -->
<g id="edge108_Node000001_Node000002" class="edge">
<title>Node1&#45;&gt;Node2</title>
<g id="a_edge108_Node000001_Node000002"><a xlink:title=" ">
<path fill="none" stroke="#63b8ff" d="M297.64,-831.16C330.43,-837.04 372.72,-844.62 404.9,-850.38"/>
<polygon fill="#63b8ff" stroke="#63b8ff" points="298.25,-827.72 287.79,-829.4 297.02,-834.61 298.25,-827.72"/>
</a>
</g>
</g>
<!-- Node3 -->
<g id="Node000003" class="node">
<title>Node3</title>
<g id="a_Node000003"><a xlink:href="classDensityIsothermalIdealGas.html" target="_top" xlink:title="Isothermal ideal gas density.">
<polygon fill="white" stroke="#666666" points="528.5,-831.5 379.5,-831.5 379.5,-812.5 528.5,-812.5 528.5,-831.5"/>
<text text-anchor="middle" x="454" y="-819.5" font-family="Helvetica,sans-Serif" font-size="10.00">DensityIsothermalIdealGas</text>
</a>
</g>
</g>
<!-- Node1&#45;&gt;Node3 -->
<g id="edge109_Node000001_Node000003" class="edge">
<title>Node1&#45;&gt;Node3</title>
<g id="a_edge109_Node000001_Node000003"><a xlink:title=" ">
<path fill="none" stroke="#63b8ff" d="M297.96,-822C322.49,-822 352.29,-822 379.18,-822"/>
<polygon fill="#63b8ff" stroke="#63b8ff" points="297.79,-818.5 287.79,-822 297.79,-825.5 297.79,-818.5"/>
</a>
</g>
</g>
<!-- Node5 -->
<g id="Node000005" class="node">
<title>Node5</title>
<g id="a_Node000005"><a xlink:href="classConstantElectricConductivity.html" target="_top" xlink:title="Constant electric conductivity.">
<polygon fill="white" stroke="#666666" points="533,-794.5 375,-794.5 375,-775.5 533,-775.5 533,-794.5"/>
<text text-anchor="middle" x="454" y="-782.5" font-family="Helvetica,sans-Serif" font-size="10.00">ConstantElectricConductivity</text>
</a>
</g>
</g>
<!-- Node4&#45;&gt;Node5 -->
<g id="edge111_Node000004_Node000005" class="edge">
<title>Node4&#45;&gt;Node5</title>
<g id="a_edge111_Node000004_Node000005"><a xlink:title=" ">
<path fill="none" stroke="#63b8ff" d="M327.63,-779.54C343.13,-780.21 359.33,-780.92 374.73,-781.59"/>
<polygon fill="#63b8ff" stroke="#63b8ff" points="327.71,-776.04 317.57,-779.1 327.4,-783.03 327.71,-776.04"/>
</a>
</g>
</g>
<!-- Node7 -->
<g id="Node000007" class="node">
<title>Node7</title>
<g id="a_Node000007"><a xlink:href="classConstantElectricPermittivity.html" target="_top" xlink:title="Constant electric permittivity.">
<polygon fill="white" stroke="#666666" points="531,-757.5 377,-757.5 377,-738.5 531,-738.5 531,-757.5"/>
<text text-anchor="middle" x="454" y="-745.5" font-family="Helvetica,sans-Serif" font-size="10.00">ConstantElectricPermittivity</text>
</a>
</g>
</g>
<!-- Node6&#45;&gt;Node7 -->
<g id="edge113_Node000006_Node000007" class="edge">
<title>Node6&#45;&gt;Node7</title>
<g id="a_edge113_Node000006_Node000007"><a xlink:title=" ">
<path fill="none" stroke="#63b8ff" d="M325.66,-731.35C343.57,-733.69 362.49,-736.17 380.12,-738.47"/>
<polygon fill="#63b8ff" stroke="#63b8ff" points="325.92,-727.85 315.55,-730.03 325.01,-734.8 325.92,-727.85"/>
</a>
</g>
</g>
<!-- Node9 -->
<g id="Node000009" class="node">
<title>Node9</title>
<g id="a_Node000009"><a xlink:href="classConstantMagneticPermeability.html" target="_top" xlink:title="Constant magnetic permeability.">
<polygon fill="white" stroke="#666666" points="537.5,-720.5 370.5,-720.5 370.5,-701.5 537.5,-701.5 537.5,-720.5"/>
<text text-anchor="middle" x="454" y="-708.5" font-family="Helvetica,sans-Serif" font-size="10.00">ConstantMagneticPermeability</text>
</a>
</g>
</g>
<!-- Node8&#45;&gt;Node9 -->
<g id="edge115_Node000008_Node000009" class="edge">
<title>Node8&#45;&gt;Node9</title>
<g id="a_edge115_Node000008_Node000009"><a xlink:title=" ">
<path fill="none" stroke="#63b8ff" d="M276.88,-660.73C300.09,-670.79 333.07,-684.17 363,-693 374,-696.24 385.94,-699.09 397.41,-701.5"/>
<polygon fill="#63b8ff" stroke="#63b8ff" points="278.13,-657.46 267.57,-656.64 275.32,-663.87 278.13,-657.46"/>
</a>
</g>
</g>
<!-- Node11 -->
<g id="Node000011" class="node">
<title>Node11</title>
<g id="a_Node000011"><a xlink:href="classCarreau.html" target="_top" xlink:title=" ">
<polygon fill="white" stroke="#666666" points="481.5,-683.5 426.5,-683.5 426.5,-664.5 481.5,-664.5 481.5,-683.5"/>
<text text-anchor="middle" x="454" y="-671.5" font-family="Helvetica,sans-Serif" font-size="10.00">Carreau</text>
</a>
</g>
</g>
<!-- Node10&#45;&gt;Node11 -->
<g id="edge117_Node000010_Node000011" class="edge">
<title>Node10&#45;&gt;Node11</title>
<g id="a_edge117_Node000010_Node000011"><a xlink:title=" ">
<path fill="none" stroke="#63b8ff" d="M289.65,-612.89C302.04,-617.29 315.34,-622.71 327,-629 344.6,-638.49 344.74,-647.84 363,-656 383.22,-665.04 408.02,-669.57 426.46,-671.82"/>
<polygon fill="#63b8ff" stroke="#63b8ff" points="290.56,-609.5 279.96,-609.58 288.3,-616.12 290.56,-609.5"/>
</a>
</g>
</g>
<!-- Node12 -->
<g id="Node000012" class="node">
<title>Node12</title>
<g id="a_Node000012"><a xlink:href="classNewtonian.html" target="_top" xlink:title=" ">
<polygon fill="white" stroke="#666666" points="488.5,-646.5 419.5,-646.5 419.5,-627.5 488.5,-627.5 488.5,-646.5"/>
<text text-anchor="middle" x="454" y="-634.5" font-family="Helvetica,sans-Serif" font-size="10.00">Newtonian</text>
</a>
</g>
</g>
<!-- Node10&#45;&gt;Node12 -->
<g id="edge118_Node000010_Node000012" class="edge">
<title>Node10&#45;&gt;Node12</title>
<g id="a_edge118_Node000010_Node000012"><a xlink:title=" ">
<path fill="none" stroke="#63b8ff" d="M307.6,-610.95C344.12,-617.49 389.13,-625.56 419.32,-630.96"/>
<polygon fill="#63b8ff" stroke="#63b8ff" points="308.01,-607.46 297.54,-609.15 306.77,-614.35 308.01,-607.46"/>
</a>
</g>
</g>
<!-- Node13 -->
<g id="Node000013" class="node">
<title>Node13</title>
<g id="a_Node000013"><a xlink:href="classPhaseChangeRheology.html" target="_top" xlink:title=" ">
<polygon fill="white" stroke="#666666" points="518,-609.5 390,-609.5 390,-590.5 518,-590.5 518,-609.5"/>
<text text-anchor="middle" x="454" y="-597.5" font-family="Helvetica,sans-Serif" font-size="10.00">PhaseChangeRheology</text>
</a>
</g>
</g>
<!-- Node10&#45;&gt;Node13 -->
<g id="edge119_Node000010_Node000013" class="edge">
<title>Node10&#45;&gt;Node13</title>
<g id="a_edge119_Node000010_Node000013"><a xlink:title=" ">
<path fill="none" stroke="#63b8ff" d="M307.64,-600C333.59,-600 363.84,-600 390,-600"/>
<polygon fill="#63b8ff" stroke="#63b8ff" points="307.54,-596.5 297.54,-600 307.54,-603.5 307.54,-596.5"/>
</a>
</g>
</g>
<!-- Node14 -->
<g id="Node000014" class="node">
<title>Node14</title>
<g id="a_Node000014"><a xlink:href="classPowerLaw.html" target="_top" xlink:title=" ">
<polygon fill="white" stroke="#666666" points="487,-572.5 421,-572.5 421,-553.5 487,-553.5 487,-572.5"/>
<text text-anchor="middle" x="454" y="-560.5" font-family="Helvetica,sans-Serif" font-size="10.00">PowerLaw</text>
</a>
</g>
</g>
<!-- Node10&#45;&gt;Node14 -->
<g id="edge120_Node000010_Node000014" class="edge">
<title>Node10&#45;&gt;Node14</title>
<g id="a_edge120_Node000010_Node000014"><a xlink:title=" ">
<path fill="none" stroke="#63b8ff" d="M307.76,-589.02C344.88,-582.37 390.73,-574.16 420.86,-568.76"/>
<polygon fill="#63b8ff" stroke="#63b8ff" points="306.77,-585.65 297.54,-590.85 308.01,-592.54 306.77,-585.65"/>
</a>
</g>
</g>
<!-- Node16 -->
<g id="Node000016" class="node">
<title>Node16</title>
<g id="a_Node000016"><a xlink:href="classConstantSpecificHeat.html" target="_top" xlink:title="Constant specific heat model.">
<polygon fill="white" stroke="#666666" points="514.5,-535.5 393.5,-535.5 393.5,-516.5 514.5,-516.5 514.5,-535.5"/>
<text text-anchor="middle" x="454" y="-523.5" font-family="Helvetica,sans-Serif" font-size="10.00">ConstantSpecificHeat</text>
</a>
</g>
</g>
<!-- Node15&#45;&gt;Node16 -->
<g id="edge122_Node000015_Node000016" class="edge">
<title>Node15&#45;&gt;Node16</title>
<g id="a_edge122_Node000015_Node000016"><a xlink:title=" ">
<path fill="none" stroke="#63b8ff" d="M309.49,-526C336.08,-526 366.9,-526 393.15,-526"/>
<polygon fill="#63b8ff" stroke="#63b8ff" points="309.14,-522.5 299.14,-526 309.14,-529.5 309.14,-522.5"/>
</a>
</g>
</g>
<!-- Node17 -->
<g id="Node000017" class="node">
<title>Node17</title>
<g id="a_Node000017"><a xlink:href="classPhaseChangeSpecificHeat.html" target="_top" xlink:title="Phase change specific heat model.">
<polygon fill="white" stroke="#666666" points="525.5,-498.5 382.5,-498.5 382.5,-479.5 525.5,-479.5 525.5,-498.5"/>
<text text-anchor="middle" x="454" y="-486.5" font-family="Helvetica,sans-Serif" font-size="10.00">PhaseChangeSpecificHeat</text>
</a>
</g>
</g>
<!-- Node15&#45;&gt;Node17 -->
<g id="edge123_Node000015_Node000017" class="edge">
<title>Node15&#45;&gt;Node17</title>
<g id="a_edge123_Node000015_Node000017"><a xlink:title=" ">
<path fill="none" stroke="#63b8ff" d="M309.15,-514.78C338.07,-509.59 372.06,-503.5 399.74,-498.54"/>
<polygon fill="#63b8ff" stroke="#63b8ff" points="308.37,-511.36 299.14,-516.57 309.6,-518.25 308.37,-511.36"/>
</a>
</g>
</g>
<!-- Node19 -->
<g id="Node000019" class="node">
<title>Node19</title>
<g id="a_Node000019"><a xlink:href="classConstantThermalConductivity.html" target="_top" xlink:title="Constant thermal conductivity.">
<polygon fill="white" stroke="#666666" points="535,-461.5 373,-461.5 373,-442.5 535,-442.5 535,-461.5"/>
<text text-anchor="middle" x="454" y="-449.5" font-family="Helvetica,sans-Serif" font-size="10.00">ConstantThermalConductivity</text>
</a>
</g>
</g>
<!-- Node18&#45;&gt;Node19 -->
<g id="edge125_Node000018_Node000019" class="edge">
<title>Node18&#45;&gt;Node19</title>
<g id="a_edge125_Node000018_Node000019"><a xlink:title=" ">
<path fill="none" stroke="#63b8ff" d="M330.27,-440.71C344.28,-442 358.78,-443.33 372.7,-444.61"/>
<polygon fill="#63b8ff" stroke="#63b8ff" points="330.46,-437.21 320.18,-439.78 329.81,-444.18 330.46,-437.21"/>
</a>
</g>
</g>
<!-- Node20 -->
<g id="Node000020" class="node">
<title>Node20</title>
<g id="a_Node000020"><a xlink:href="classThermalConductivityLinear.html" target="_top" xlink:title="Implements a linear temperature&#45;dependent thermal conductivity of the form k = A + BT.">
<polygon fill="white" stroke="#666666" points="528.5,-424.5 379.5,-424.5 379.5,-405.5 528.5,-405.5 528.5,-424.5"/>
<text text-anchor="middle" x="454" y="-412.5" font-family="Helvetica,sans-Serif" font-size="10.00">ThermalConductivityLinear</text>
</a>
</g>
</g>
<!-- Node18&#45;&gt;Node20 -->
<g id="edge126_Node000018_Node000020" class="edge">
<title>Node18&#45;&gt;Node20</title>
<g id="a_edge126_Node000018_Node000020"><a xlink:title=" ">
<path fill="none" stroke="#63b8ff" d="M330.21,-425.7C346.48,-424.28 363.43,-422.81 379.35,-421.42"/>
<polygon fill="#63b8ff" stroke="#63b8ff" points="329.83,-422.22 320.18,-426.58 330.44,-429.2 329.83,-422.22"/>
</a>
</g>
</g>
<!-- Node21 -->
<g id="Node000021" class="node">
<title>Node21</title>
<g id="a_Node000021"><a xlink:href="classThermalConductivityPhaseChange.html" target="_top" xlink:title="Implements a phase&#45;dependent thermal conductivity.">
<polygon fill="white" stroke="#666666" points="528,-387 380,-387 380,-357 528,-357 528,-387"/>
<text text-anchor="start" x="388" y="-375" font-family="Helvetica,sans-Serif" font-size="10.00">ThermalConductivityPhase</text>
<text text-anchor="middle" x="454" y="-364" font-family="Helvetica,sans-Serif" font-size="10.00">Change</text>
</a>
</g>
</g>
<!-- Node18&#45;&gt;Node21 -->
<g id="edge127_Node000018_Node000021" class="edge">
<title>Node18&#45;&gt;Node21</title>
<g id="a_edge127_Node000018_Node000021"><a xlink:title=" ">
<path fill="none" stroke="#63b8ff" d="M286.15,-420.44C308.64,-413.39 337.34,-404.53 363,-397 374.2,-393.71 386.22,-390.3 397.72,-387.09"/>
<polygon fill="#63b8ff" stroke="#63b8ff" points="285.09,-417.1 276.6,-423.44 287.19,-423.78 285.09,-417.1"/>
</a>
</g>
</g>
<!-- Node23 -->
<g id="Node000023" class="node">
<title>Node23</title>
<g id="a_Node000023"><a xlink:href="classConstantThermalExpansion.html" target="_top" xlink:title="Constant thermal expansion coefficient.">
<polygon fill="white" stroke="#666666" points="529.5,-338.5 378.5,-338.5 378.5,-319.5 529.5,-319.5 529.5,-338.5"/>
<text text-anchor="middle" x="454" y="-326.5" font-family="Helvetica,sans-Serif" font-size="10.00">ConstantThermalExpansion</text>
</a>
</g>
</g>
<!-- Node22&#45;&gt;Node23 -->
<g id="edge129_Node000022_Node000023" class="edge">
<title>Node22&#45;&gt;Node23</title>
<g id="a_edge129_Node000022_Node000023"><a xlink:title=" ">
<path fill="none" stroke="#63b8ff" d="M324.4,-329C342.11,-329 360.89,-329 378.45,-329"/>
<polygon fill="#63b8ff" stroke="#63b8ff" points="324.12,-325.5 314.12,-329 324.12,-332.5 324.12,-325.5"/>
</a>
</g>
</g>
<!-- Node24 -->
<g id="Node000024" class="node">
<title>Node24</title>
<g id="a_Node000024"><a xlink:href="classThermalExpansionPhaseChange.html" target="_top" xlink:title="Implements a phase&#45;dependent thermal expansion coefficient.">
<polygon fill="white" stroke="#666666" points="540.5,-301.5 367.5,-301.5 367.5,-282.5 540.5,-282.5 540.5,-301.5"/>
<text text-anchor="middle" x="454" y="-289.5" font-family="Helvetica,sans-Serif" font-size="10.00">ThermalExpansionPhaseChange</text>
</a>
</g>
</g>
<!-- Node22&#45;&gt;Node24 -->
<g id="edge130_Node000022_Node000024" class="edge">
<title>Node22&#45;&gt;Node24</title>
<g id="a_edge130_Node000022_Node000024"><a xlink:title=" ">
<path fill="none" stroke="#63b8ff" d="M309.64,-317.69C338.43,-312.53 372.14,-306.49 399.64,-301.56"/>
<polygon fill="#63b8ff" stroke="#63b8ff" points="308.9,-314.26 299.68,-319.47 310.14,-321.15 308.9,-314.26"/>
</a>
</g>
</g>
<!-- Node26 -->
<g id="Node000026" class="node">
<title>Node26</title>
<g id="a_Node000026"><a xlink:href="classConstantTracerDiffusivity.html" target="_top" xlink:title="Constant tracer diffusivity.">
<polygon fill="white" stroke="#666666" points="524,-264.5 384,-264.5 384,-245.5 524,-245.5 524,-264.5"/>
<text text-anchor="middle" x="454" y="-252.5" font-family="Helvetica,sans-Serif" font-size="10.00">ConstantTracerDiffusivity</text>
</a>
</g>
</g>
<!-- Node25&#45;&gt;Node26 -->
<g id="edge132_Node000025_Node000026" class="edge">
<title>Node25&#45;&gt;Node26</title>
<g id="a_edge132_Node000025_Node000026"><a xlink:title=" ">
<path fill="none" stroke="#63b8ff" d="M318.89,-243.31C339.92,-245.14 362.83,-247.14 383.67,-248.96"/>
<polygon fill="#63b8ff" stroke="#63b8ff" points="319,-239.81 308.74,-242.43 318.4,-246.78 319,-239.81"/>
</a>
</g>
</g>
<!-- Node27 -->
<g id="Node000027" class="node">
<title>Node27</title>
<g id="a_Node000027"><a xlink:href="classGaussianLevelsetTracerDiffusivity.html" target="_top" xlink:title="Diffusivity that depends on the Gaussian of the level set.">
<polygon fill="white" stroke="#666666" points="545,-227.5 363,-227.5 363,-208.5 545,-208.5 545,-227.5"/>
<text text-anchor="middle" x="454" y="-215.5" font-family="Helvetica,sans-Serif" font-size="10.00">GaussianLevelsetTracerDiffusivity</text>
</a>
</g>
</g>
<!-- Node25&#45;&gt;Node27 -->
<g id="edge133_Node000025_Node000027" class="edge">
<title>Node25&#45;&gt;Node27</title>
<g id="a_edge133_Node000025_Node000027"><a xlink:title=" ">
<path fill="none" stroke="#63b8ff" d="M318.87,-230.34C333.02,-229.04 348.02,-227.66 362.67,-226.31"/>
<polygon fill="#63b8ff" stroke="#63b8ff" points="318.37,-226.87 308.74,-231.27 319.02,-233.84 318.37,-226.87"/>
</a>
</g>
</g>
<!-- Node28 -->
<g id="Node000028" class="node">
<title>Node28</title>
<g id="a_Node000028"><a xlink:href="classTanhLevelsetTracerDiffusivity.html" target="_top" xlink:title="Diffusivity that depends on the tanh of the level set.">
<polygon fill="white" stroke="#666666" points="534,-190.5 374,-190.5 374,-171.5 534,-171.5 534,-190.5"/>
<text text-anchor="middle" x="454" y="-178.5" font-family="Helvetica,sans-Serif" font-size="10.00">TanhLevelsetTracerDiffusivity</text>
</a>
</g>
</g>
<!-- Node25&#45;&gt;Node28 -->
<g id="edge134_Node000025_Node000028" class="edge">
<title>Node25&#45;&gt;Node28</title>
<g id="a_edge134_Node000025_Node000028"><a xlink:title=" ">
<path fill="none" stroke="#63b8ff" d="M283.65,-224.16C306.4,-216.56 336.19,-207.07 363,-200 375.97,-196.58 390.12,-193.36 403.28,-190.57"/>
<polygon fill="#63b8ff" stroke="#63b8ff" points="282.41,-220.89 274.05,-227.4 284.64,-227.52 282.41,-220.89"/>
</a>
</g>
</g>
<!-- Node30 -->
<g id="Node000030" class="node">
<title>Node30</title>
<g id="a_Node000030"><a xlink:href="classConstantTracerReactionPrefactor.html" target="_top" xlink:title="Constant tracer reaction prefactor.">
<polygon fill="white" stroke="#666666" points="542,-153.5 366,-153.5 366,-134.5 542,-134.5 542,-153.5"/>
<text text-anchor="middle" x="454" y="-141.5" font-family="Helvetica,sans-Serif" font-size="10.00">ConstantTracerReactionPrefactor</text>
</a>
</g>
</g>
<!-- Node29&#45;&gt;Node30 -->
<g id="edge136_Node000029_Node000030" class="edge">
<title>Node29&#45;&gt;Node30</title>
<g id="a_edge136_Node000029_Node000030"><a xlink:title=" ">
<path fill="none" stroke="#63b8ff" d="M302.26,-112.61C335.17,-119.46 376.31,-128.03 407.3,-134.48"/>
<polygon fill="#63b8ff" stroke="#63b8ff" points="302.83,-109.16 292.33,-110.54 301.41,-116.01 302.83,-109.16"/>
</a>
</g>
</g>
<!-- Node31 -->
<g id="Node000031" class="node">
<title>Node31</title>
<g id="a_Node000031"><a xlink:href="classGaussianLevelsetTracerReactionPrefactor.html" target="_top" xlink:title="Reaction prefactor that depends on the Gaussian of the level set.">
<polygon fill="white" stroke="#666666" points="541.5,-116 366.5,-116 366.5,-86 541.5,-86 541.5,-116"/>
<text text-anchor="start" x="374.5" y="-104" font-family="Helvetica,sans-Serif" font-size="10.00">GaussianLevelsetTracerReaction</text>
<text text-anchor="middle" x="454" y="-93" font-family="Helvetica,sans-Serif" font-size="10.00">Prefactor</text>
</a>
</g>
</g>
<!-- Node29&#45;&gt;Node31 -->
<g id="edge137_Node000029_Node000031" class="edge">
<title>Node29&#45;&gt;Node31</title>
<g id="a_edge137_Node000029_Node000031"><a xlink:title=" ">
<path fill="none" stroke="#63b8ff" d="M337.5,-101C347.03,-101 356.71,-101 366.19,-101"/>
<polygon fill="#63b8ff" stroke="#63b8ff" points="337.23,-97.5 327.23,-101 337.23,-104.5 337.23,-97.5"/>
</a>
</g>
</g>
<!-- Node32 -->
<g id="Node000032" class="node">
<title>Node32</title>
<g id="a_Node000032"><a xlink:href="classNoneTracerReactionPrefactor.html" target="_top" xlink:title="Dummy tracer reaction prefactor model.">
<polygon fill="white" stroke="#666666" points="533,-67.5 375,-67.5 375,-48.5 533,-48.5 533,-67.5"/>
<text text-anchor="middle" x="454" y="-55.5" font-family="Helvetica,sans-Serif" font-size="10.00">NoneTracerReactionPrefactor</text>
</a>
</g>
</g>
<!-- Node29&#45;&gt;Node32 -->
<g id="edge138_Node000029_Node000032" class="edge">
<title>Node29&#45;&gt;Node32</title>
<g id="a_edge138_Node000029_Node000032"><a xlink:title=" ">
<path fill="none" stroke="#63b8ff" d="M302.26,-89.39C335.17,-82.54 376.31,-73.97 407.3,-67.52"/>
<polygon fill="#63b8ff" stroke="#63b8ff" points="301.41,-85.99 292.33,-91.46 302.83,-92.84 301.41,-85.99"/>
</a>
</g>
</g>
<!-- Node33 -->
<g id="Node000033" class="node">
<title>Node33</title>
<g id="a_Node000033"><a xlink:href="classTanhLevelsetTracerReactionPrefactor.html" target="_top" xlink:title="Tanh level&#45;set&#45;dependent tracer reaction prefactor.">
<polygon fill="white" stroke="#666666" points="530,-30 378,-30 378,0 530,0 530,-30"/>
<text text-anchor="start" x="386" y="-18" font-family="Helvetica,sans-Serif" font-size="10.00">TanhLevelsetTracerReaction</text>
<text text-anchor="middle" x="454" y="-7" font-family="Helvetica,sans-Serif" font-size="10.00">Prefactor</text>
</a>
</g>
</g>
<!-- Node29&#45;&gt;Node33 -->
<g id="edge139_Node000029_Node000033" class="edge">
<title>Node29&#45;&gt;Node33</title>
<g id="a_edge139_Node000029_Node000033"><a xlink:title=" ">
<path fill="none" stroke="#63b8ff" d="M270.52,-86.12C293.55,-72.36 329.64,-52.12 363,-39 371.28,-35.74 380.15,-32.78 388.98,-30.13"/>
<polygon fill="#63b8ff" stroke="#63b8ff" points="268.53,-83.23 261.79,-91.4 272.15,-89.22 268.53,-83.23"/>
</a>
</g>
</g>
</g>
</svg>
