<?xml version="1.0" encoding="UTF-8" standalone="no"?>
<!DOCTYPE svg PUBLIC "-//W3C//DTD SVG 1.1//EN"
 "http://www.w3.org/Graphics/SVG/1.1/DTD/svg11.dtd">
<!-- Generated by graphviz version 2.43.0 (0)
 -->
<!-- Title: Graphical Class Hierarchy Pages: 1 -->
<svg width="513pt" height="122pt"
 viewBox="0.00 0.00 513.00 122.00" xmlns="http://www.w3.org/2000/svg" xmlns:xlink="http://www.w3.org/1999/xlink">
<g id="graph0" class="graph" transform="scale(1 1) rotate(0) translate(4 118)">
<title>Graphical Class Hierarchy</title>
<!-- Node0 -->
<g id="Node000000" class="node">
<title>Node0</title>
<g id="a_Node000000"><a xlink:href="classSimulationControl.html" target="_top" xlink:title="Base class for controlling steady&#45;state and transient simulations in Lethe.">
<polygon fill="white" stroke="#666666" points="104,-77 0,-77 0,-58 104,-58 104,-77"/>
<text text-anchor="middle" x="52" y="-65" font-family="Helvetica,sans-Serif" font-size="10.00">SimulationControl</text>
</a>
</g>
</g>
<!-- Node1 -->
<g id="Node000001" class="node">
<title>Node1</title>
<g id="a_Node000001"><a xlink:href="classSimulationControlRayTracing.html" target="_top" xlink:title="Simulation control for ray tracing simulations.">
<polygon fill="white" stroke="#666666" points="298,-114 140,-114 140,-95 298,-95 298,-114"/>
<text text-anchor="middle" x="219" y="-102" font-family="Helvetica,sans-Serif" font-size="10.00">SimulationControlRayTracing</text>
</a>
</g>
</g>
<!-- Node0&#45;&gt;Node1 -->
<g id="edge231_Node000000_Node000001" class="edge">
<title>Node0&#45;&gt;Node1</title>
<g id="a_edge231_Node000000_Node000001"><a xlink:title=" ">
<path fill="none" stroke="#63b8ff" d="M105.27,-79.22C127.86,-84.29 153.97,-90.14 175.37,-94.94"/>
<polygon fill="#63b8ff" stroke="#63b8ff" points="106.02,-75.8 95.49,-77.03 104.48,-82.63 106.02,-75.8"/>
</a>
</g>
</g>
<!-- Node2 -->
<g id="Node000002" class="node">
<title>Node2</title>
<g id="a_Node000002"><a xlink:href="classSimulationControlSteady.html" target="_top" xlink:title="Simulation control for steady&#45;state simulations.">
<polygon fill="white" stroke="#666666" points="288,-77 150,-77 150,-58 288,-58 288,-77"/>
<text text-anchor="middle" x="219" y="-65" font-family="Helvetica,sans-Serif" font-size="10.00">SimulationControlSteady</text>
</a>
</g>
</g>
<!-- Node0&#45;&gt;Node2 -->
<g id="edge232_Node000000_Node000002" class="edge">
<title>Node0&#45;&gt;Node2</title>
<g id="a_edge232_Node000000_Node000002"><a xlink:title=" ">
<path fill="none" stroke="#63b8ff" d="M114.63,-67.5C126.08,-67.5 138.11,-67.5 149.74,-67.5"/>
<polygon fill="#63b8ff" stroke="#63b8ff" points="114.3,-64 104.3,-67.5 114.3,-71 114.3,-64"/>
</a>
</g>
</g>
<!-- Node3 -->
<g id="Node000003" class="node">
<title>Node3</title>
<g id="a_Node000003"><a xlink:href="classSimulationControlTransient.html" target="_top" xlink:title="Simulation control for transient simulations.">
<polygon fill="white" stroke="#666666" points="293.5,-40 144.5,-40 144.5,-21 293.5,-21 293.5,-40"/>
<text text-anchor="middle" x="219" y="-28" font-family="Helvetica,sans-Serif" font-size="10.00">SimulationControlTransient</text>
</a>
</g>
</g>
<!-- Node0&#45;&gt;Node3 -->
<g id="edge233_Node000000_Node000003" class="edge">
<title>Node0&#45;&gt;Node3</title>
<g id="a_edge233_Node000000_Node000003"><a xlink:title=" ">
<path fill="none" stroke="#63b8ff" d="M105.27,-55.78C127.86,-50.71 153.97,-44.86 175.37,-40.06"/>
<polygon fill="#63b8ff" stroke="#63b8ff" points="104.48,-52.37 95.49,-57.97 106.02,-59.2 104.48,-52.37"/>
</a>
</g>
</g>
<!-- Node4 -->
<g id="Node000004" class="node">
<title>Node4</title>
<g id="a_Node000004"><a xlink:href="classSimulationControlAdjointSteady.html" target="_top" xlink:title="Simulation control for adjoint steady&#45;state simulations.">
<polygon fill="white" stroke="#666666" points="489,-67.5 350,-67.5 350,-37.5 489,-37.5 489,-67.5"/>
<text text-anchor="start" x="358" y="-55.5" font-family="Helvetica,sans-Serif" font-size="10.00">SimulationControlAdjoint</text>
<text text-anchor="middle" x="419.5" y="-44.5" font-family="Helvetica,sans-Serif" font-size="10.00">Steady</text>
</a>
</g>
</g>
<!-- Node3&#45;&gt;Node4 -->
<g id="edge234_Node000003_Node000004" class="edge">
<title>Node3&#45;&gt;Node4</title>
<g id="a_edge234_Node000003_Node000004"><a xlink:title=" ">
<path fill="none" stroke="#63b8ff" d="M303.67,-39.77C319.08,-41.48 335.01,-43.25 349.92,-44.9"/>
<polygon fill="#63b8ff" stroke="#63b8ff" points="303.96,-36.28 293.63,-38.66 303.19,-43.24 303.96,-36.28"/>
</a>
</g>
</g>
<!-- Node5 -->
<g id="Node000005" class="node">
<title>Node5</title>
<g id="a_Node000005"><a xlink:href="classSimulationControlTransientDEM.html" target="_top" xlink:title="Transient simulation control tailored for the Discrete Element Method (DEM)">
<polygon fill="white" stroke="#666666" points="505,-19 334,-19 334,0 505,0 505,-19"/>
<text text-anchor="middle" x="419.5" y="-7" font-family="Helvetica,sans-Serif" font-size="10.00">SimulationControlTransientDEM</text>
</a>
</g>
</g>
<!-- Node3&#45;&gt;Node5 -->
<g id="edge235_Node000003_Node000005" class="edge">
<title>Node3&#45;&gt;Node5</title>
<g id="a_edge235_Node000003_Node000005"><a xlink:title=" ">
<path fill="none" stroke="#63b8ff" d="M303.58,-21.66C313.62,-20.6 323.89,-19.51 333.94,-18.45"/>
<polygon fill="#63b8ff" stroke="#63b8ff" points="303.21,-18.18 293.63,-22.71 303.94,-25.14 303.21,-18.18"/>
</a>
</g>
</g>
</g>
</svg>
