<?xml version="1.0" encoding="UTF-8" standalone="no"?>
<!DOCTYPE svg PUBLIC "-//W3C//DTD SVG 1.1//EN"
 "http://www.w3.org/Graphics/SVG/1.1/DTD/svg11.dtd">
<!-- Generated by graphviz version 2.43.0 (0)
 -->
<!-- Title: Graphical Class Hierarchy Pages: 1 -->
<svg width="361pt" height="422pt"
 viewBox="0.00 0.00 361.00 422.00" xmlns="http://www.w3.org/2000/svg" xmlns:xlink="http://www.w3.org/1999/xlink">
<g id="graph0" class="graph" transform="scale(1 1) rotate(0) translate(4 418)">
<title>Graphical Class Hierarchy</title>
<!-- Node0 -->
<g id="Node000000" class="node">
<title>Node0</title>
<g id="a_Node000000"><a xlink:title=" ">
<polygon fill="#e0e0e0" stroke="#999999" points="138,-216.5 0,-216.5 0,-197.5 138,-197.5 138,-216.5"/>
<text text-anchor="middle" x="69" y="-204.5" font-family="Helvetica,sans-Serif" font-size="10.00">DataPostprocessorScalar</text>
</a>
</g>
</g>
<!-- Node1 -->
<g id="Node000001" class="node">
<title>Node1</title>
<g id="a_Node000001"><a xlink:href="classBoundaryPostprocessor.html" target="_top" xlink:title="BoundaryPostprocessor Post&#45;processor class used to attach the boundary id to the faces when outputtin...">
<polygon fill="white" stroke="#666666" points="329,-414 198,-414 198,-384 329,-384 329,-414"/>
<text text-anchor="start" x="206" y="-402" font-family="Helvetica,sans-Serif" font-size="10.00">BoundaryPostprocessor</text>
<text text-anchor="middle" x="263.5" y="-391" font-family="Helvetica,sans-Serif" font-size="10.00">&lt; dim &gt;</text>
</a>
</g>
</g>
<!-- Node0&#45;&gt;Node1 -->
<g id="edge32_Node000000_Node000001" class="edge">
<title>Node0&#45;&gt;Node1</title>
<g id="a_edge32_Node000000_Node000001"><a xlink:title=" ">
<path fill="none" stroke="#63b8ff" d="M76.51,-226.3C89.36,-261.42 121.41,-335.79 174,-375 181.15,-380.33 189.4,-384.47 197.94,-387.7"/>
<polygon fill="#63b8ff" stroke="#63b8ff" points="79.76,-225 73.13,-216.74 73.16,-227.33 79.76,-225"/>
</a>
</g>
</g>
<!-- Node2 -->
<g id="Node000002" class="node">
<title>Node2</title>
<g id="a_Node000002"><a xlink:href="classDensityPostprocessor.html" target="_top" xlink:title="Compute the density scalar field of a material within a domain.">
<polygon fill="white" stroke="#666666" points="324.5,-366 202.5,-366 202.5,-336 324.5,-336 324.5,-366"/>
<text text-anchor="start" x="210.5" y="-354" font-family="Helvetica,sans-Serif" font-size="10.00">DensityPostprocessor</text>
<text text-anchor="middle" x="263.5" y="-343" font-family="Helvetica,sans-Serif" font-size="10.00">&lt; dim &gt;</text>
</a>
</g>
</g>
<!-- Node0&#45;&gt;Node2 -->
<g id="edge33_Node000000_Node000002" class="edge">
<title>Node0&#45;&gt;Node2</title>
<g id="a_edge33_Node000000_Node000002"><a xlink:title=" ">
<path fill="none" stroke="#63b8ff" d="M80.97,-225.51C97.67,-252.05 132,-300.62 174,-327 182.63,-332.42 192.47,-336.63 202.39,-339.89"/>
<polygon fill="#63b8ff" stroke="#63b8ff" points="83.85,-223.51 75.64,-216.81 77.88,-227.17 83.85,-223.51"/>
</a>
</g>
</g>
<!-- Node3 -->
<g id="Node000003" class="node">
<title>Node3</title>
<g id="a_Node000003"><a xlink:href="classDivergencePostprocessor.html" target="_top" xlink:title="Compute the velocity divergence scalar field within a domain.">
<polygon fill="white" stroke="#666666" points="333.5,-318 193.5,-318 193.5,-288 333.5,-288 333.5,-318"/>
<text text-anchor="start" x="201.5" y="-306" font-family="Helvetica,sans-Serif" font-size="10.00">DivergencePostprocessor</text>
<text text-anchor="middle" x="263.5" y="-295" font-family="Helvetica,sans-Serif" font-size="10.00">&lt; dim &gt;</text>
</a>
</g>
</g>
<!-- Node0&#45;&gt;Node3 -->
<g id="edge34_Node000000_Node000003" class="edge">
<title>Node0&#45;&gt;Node3</title>
<g id="a_edge34_Node000000_Node000003"><a xlink:title=" ">
<path fill="none" stroke="#63b8ff" d="M88.77,-222.96C108.71,-239.19 141.77,-264.01 174,-279 181.22,-282.36 188.99,-285.32 196.83,-287.91"/>
<polygon fill="#63b8ff" stroke="#63b8ff" points="91,-220.27 81.06,-216.59 86.53,-225.66 91,-220.27"/>
</a>
</g>
</g>
<!-- Node4 -->
<g id="Node000004" class="node">
<title>Node4</title>
<g id="a_Node000004"><a xlink:href="classDynamicViscosityPostprocessor.html" target="_top" xlink:title="Compute the dynamic viscosity scalar field of a fluid within a domain.">
<polygon fill="white" stroke="#666666" points="350,-270 177,-270 177,-240 350,-240 350,-270"/>
<text text-anchor="start" x="185" y="-258" font-family="Helvetica,sans-Serif" font-size="10.00">DynamicViscosityPostprocessor</text>
<text text-anchor="middle" x="263.5" y="-247" font-family="Helvetica,sans-Serif" font-size="10.00">&lt; dim &gt;</text>
</a>
</g>
</g>
<!-- Node0&#45;&gt;Node4 -->
<g id="edge35_Node000000_Node000004" class="edge">
<title>Node0&#45;&gt;Node4</title>
<g id="a_edge35_Node000000_Node000004"><a xlink:title=" ">
<path fill="none" stroke="#63b8ff" d="M118.27,-219.04C143.68,-225.37 175.08,-233.2 202.09,-239.94"/>
<polygon fill="#63b8ff" stroke="#63b8ff" points="119.04,-215.62 108.49,-216.6 117.35,-222.41 119.04,-215.62"/>
</a>
</g>
</g>
<!-- Node5 -->
<g id="Node000005" class="node">
<title>Node5</title>
<g id="a_Node000005"><a xlink:href="classKinematicViscosityPostprocessor.html" target="_top" xlink:title="Compute the kinematic viscosity scalar field of a fluid within a domain.">
<polygon fill="white" stroke="#666666" points="353,-222 174,-222 174,-192 353,-192 353,-222"/>
<text text-anchor="start" x="182" y="-210" font-family="Helvetica,sans-Serif" font-size="10.00">KinematicViscosityPostprocessor</text>
<text text-anchor="middle" x="263.5" y="-199" font-family="Helvetica,sans-Serif" font-size="10.00">&lt; dim &gt;</text>
</a>
</g>
</g>
<!-- Node0&#45;&gt;Node5 -->
<g id="edge36_Node000000_Node000005" class="edge">
<title>Node0&#45;&gt;Node5</title>
<g id="a_edge36_Node000000_Node000005"><a xlink:title=" ">
<path fill="none" stroke="#63b8ff" d="M148.31,-207C156.73,-207 165.35,-207 173.89,-207"/>
<polygon fill="#63b8ff" stroke="#63b8ff" points="148.14,-203.5 138.14,-207 148.14,-210.5 148.14,-203.5"/>
</a>
</g>
</g>
<!-- Node6 -->
<g id="Node000006" class="node">
<title>Node6</title>
<g id="a_Node000006"><a xlink:href="classLevelsetPostprocessor.html" target="_top" xlink:title="Compute level set field for a given shape within a domain.">
<polygon fill="white" stroke="#666666" points="326.5,-174 200.5,-174 200.5,-144 326.5,-144 326.5,-174"/>
<text text-anchor="start" x="208.5" y="-162" font-family="Helvetica,sans-Serif" font-size="10.00">LevelsetPostprocessor</text>
<text text-anchor="middle" x="263.5" y="-151" font-family="Helvetica,sans-Serif" font-size="10.00">&lt; dim &gt;</text>
</a>
</g>
</g>
<!-- Node0&#45;&gt;Node6 -->
<g id="edge37_Node000000_Node000006" class="edge">
<title>Node0&#45;&gt;Node6</title>
<g id="a_edge37_Node000000_Node000006"><a xlink:title=" ">
<path fill="none" stroke="#63b8ff" d="M118.27,-194.96C143.68,-188.63 175.08,-180.8 202.09,-174.06"/>
<polygon fill="#63b8ff" stroke="#63b8ff" points="117.35,-191.59 108.49,-197.4 119.04,-198.38 117.35,-191.59"/>
</a>
</g>
</g>
<!-- Node7 -->
<g id="Node000007" class="node">
<title>Node7</title>
<g id="a_Node000007"><a xlink:href="classQCriterionPostprocessor.html" target="_top" xlink:title="Compute the Q&#45;criterion scalar field within a domain.">
<polygon fill="white" stroke="#666666" points="330.5,-126 196.5,-126 196.5,-96 330.5,-96 330.5,-126"/>
<text text-anchor="start" x="204.5" y="-114" font-family="Helvetica,sans-Serif" font-size="10.00">QCriterionPostprocessor</text>
<text text-anchor="middle" x="263.5" y="-103" font-family="Helvetica,sans-Serif" font-size="10.00">&lt; dim &gt;</text>
</a>
</g>
</g>
<!-- Node0&#45;&gt;Node7 -->
<g id="edge38_Node000000_Node000007" class="edge">
<title>Node0&#45;&gt;Node7</title>
<g id="a_edge38_Node000000_Node000007"><a xlink:title=" ">
<path fill="none" stroke="#63b8ff" d="M88.77,-191.04C108.71,-174.81 141.77,-149.99 174,-135 181.22,-131.64 188.99,-128.68 196.83,-126.09"/>
<polygon fill="#63b8ff" stroke="#63b8ff" points="86.53,-188.34 81.06,-197.41 91,-193.73 86.53,-188.34"/>
</a>
</g>
</g>
<!-- Node8 -->
<g id="Node000008" class="node">
<title>Node8</title>
<g id="a_Node000008"><a xlink:href="classScalarFunctionPostprocessor.html" target="_top" xlink:title="Compute a scalar field for a given function within a domain.">
<polygon fill="white" stroke="#666666" points="341.5,-78 185.5,-78 185.5,-48 341.5,-48 341.5,-78"/>
<text text-anchor="start" x="193.5" y="-66" font-family="Helvetica,sans-Serif" font-size="10.00">ScalarFunctionPostprocessor</text>
<text text-anchor="middle" x="263.5" y="-55" font-family="Helvetica,sans-Serif" font-size="10.00">&lt; dim &gt;</text>
</a>
</g>
</g>
<!-- Node0&#45;&gt;Node8 -->
<g id="edge39_Node000000_Node000008" class="edge">
<title>Node0&#45;&gt;Node8</title>
<g id="a_edge39_Node000000_Node000008"><a xlink:title=" ">
<path fill="none" stroke="#63b8ff" d="M80.97,-188.49C97.67,-161.95 132,-113.38 174,-87 179.53,-83.53 185.55,-80.55 191.78,-78.01"/>
<polygon fill="#63b8ff" stroke="#63b8ff" points="77.88,-186.83 75.64,-197.19 83.85,-190.49 77.88,-186.83"/>
</a>
</g>
</g>
<!-- Node9 -->
<g id="Node000009" class="node">
<title>Node9</title>
<g id="a_Node000009"><a xlink:href="classShearRatePostprocessor.html" target="_top" xlink:title="Compute the shear rate scalar field within a domain.">
<polygon fill="white" stroke="#666666" points="331,-30 196,-30 196,0 331,0 331,-30"/>
<text text-anchor="start" x="204" y="-18" font-family="Helvetica,sans-Serif" font-size="10.00">ShearRatePostprocessor</text>
<text text-anchor="middle" x="263.5" y="-7" font-family="Helvetica,sans-Serif" font-size="10.00">&lt; dim &gt;</text>
</a>
</g>
</g>
<!-- Node0&#45;&gt;Node9 -->
<g id="edge40_Node000000_Node000009" class="edge">
<title>Node0&#45;&gt;Node9</title>
<g id="a_edge40_Node000000_Node000009"><a xlink:title=" ">
<path fill="none" stroke="#63b8ff" d="M76.51,-187.7C89.36,-152.58 121.41,-78.21 174,-39 180.51,-34.15 187.94,-30.28 195.66,-27.19"/>
<polygon fill="#63b8ff" stroke="#63b8ff" points="73.16,-186.67 73.13,-197.26 79.76,-189 73.16,-186.67"/>
</a>
</g>
</g>
</g>
</svg>
