<?xml version="1.0" encoding="UTF-8" standalone="no"?>
<!DOCTYPE svg PUBLIC "-//W3C//DTD SVG 1.1//EN"
 "http://www.w3.org/Graphics/SVG/1.1/DTD/svg11.dtd">
<!-- Generated by graphviz version 2.43.0 (0)
 -->
<!-- Title: Graphical Class Hierarchy Pages: 1 -->
<svg width="422pt" height="76pt"
 viewBox="0.00 0.00 422.00 75.50" xmlns="http://www.w3.org/2000/svg" xmlns:xlink="http://www.w3.org/1999/xlink">
<g id="graph0" class="graph" transform="scale(1 1) rotate(0) translate(4 71.5)">
<title>Graphical Class Hierarchy</title>
<!-- Node0 -->
<g id="Node000000" class="node">
<title>Node0</title>
<g id="a_Node000000"><a xlink:href="classSignedDistanceTransformationBase.html" target="_top" xlink:title="Abstract class for the transformation of the signed distance to the phase fraction for the VOF solver...">
<polygon fill="white" stroke="#666666" points="190,-40 0,-40 0,-21 190,-21 190,-40"/>
<text text-anchor="middle" x="95" y="-28" font-family="Helvetica,sans-Serif" font-size="10.00">SignedDistanceTransformationBase</text>
</a>
</g>
</g>
<!-- Node1 -->
<g id="Node000001" class="node">
<title>Node1</title>
<g id="a_Node000001"><a xlink:href="classSignedDistanceTransformationPiecewisePolynomial.html" target="_top" xlink:title="Transforms the signed distance to the phase fraction with a piecewise polynomial function (degree 4).">
<polygon fill="white" stroke="#666666" points="403,-67.5 237,-67.5 237,-37.5 403,-37.5 403,-67.5"/>
<text text-anchor="start" x="245" y="-55.5" font-family="Helvetica,sans-Serif" font-size="10.00">SignedDistanceTransformation</text>
<text text-anchor="middle" x="320" y="-44.5" font-family="Helvetica,sans-Serif" font-size="10.00">PiecewisePolynomial</text>
</a>
</g>
</g>
<!-- Node0&#45;&gt;Node1 -->
<g id="edge229_Node000000_Node000001" class="edge">
<title>Node0&#45;&gt;Node1</title>
<g id="a_edge229_Node000000_Node000001"><a xlink:title=" ">
<path fill="none" stroke="#63b8ff" d="M200.44,-40.8C212.62,-42.01 224.92,-43.22 236.74,-44.38"/>
<polygon fill="#63b8ff" stroke="#63b8ff" points="200.54,-37.3 190.25,-39.8 199.86,-44.26 200.54,-37.3"/>
</a>
</g>
</g>
<!-- Node2 -->
<g id="Node000002" class="node">
<title>Node2</title>
<g id="a_Node000002"><a xlink:href="classSignedDistanceTransformationTanh.html" target="_top" xlink:title="Transforms the signed distance to the phase fraction with a hyperbolic tangent function.">
<polygon fill="white" stroke="#666666" points="414,-19 226,-19 226,0 414,0 414,-19"/>
<text text-anchor="middle" x="320" y="-7" font-family="Helvetica,sans-Serif" font-size="10.00">SignedDistanceTransformationTanh</text>
</a>
</g>
</g>
<!-- Node0&#45;&gt;Node2 -->
<g id="edge230_Node000000_Node000002" class="edge">
<title>Node0&#45;&gt;Node2</title>
<g id="a_edge230_Node000000_Node000002"><a xlink:title=" ">
<path fill="none" stroke="#63b8ff" d="M200.23,-20.68C208.76,-19.88 217.35,-19.07 225.8,-18.28"/>
<polygon fill="#63b8ff" stroke="#63b8ff" points="199.88,-17.2 190.25,-21.62 200.53,-24.17 199.88,-17.2"/>
</a>
</g>
</g>
</g>
</svg>
