<?xml version="1.0" encoding="UTF-8" standalone="no"?>
<!DOCTYPE svg PUBLIC "-//W3C//DTD SVG 1.1//EN"
 "http://www.w3.org/Graphics/SVG/1.1/DTD/svg11.dtd">
<!-- Generated by graphviz version 2.43.0 (0)
 -->
<!-- Title: Graphical Class Hierarchy Pages: 1 -->
<svg width="334pt" height="86pt"
 viewBox="0.00 0.00 334.00 86.00" xmlns="http://www.w3.org/2000/svg" xmlns:xlink="http://www.w3.org/1999/xlink">
<g id="graph0" class="graph" transform="scale(1 1) rotate(0) translate(4 82)">
<title>Graphical Class Hierarchy</title>
<!-- Node0 -->
<g id="Node000000" class="node">
<title>Node0</title>
<g id="a_Node000000"><a xlink:href="classIntegrator.html" target="_top" xlink:title="Base interface for classes that carry out the integration of the velocity and position of particles w...">
<polygon fill="white" stroke="#666666" points="150,-54 0,-54 0,-24 150,-24 150,-54"/>
<text text-anchor="start" x="8" y="-42" font-family="Helvetica,sans-Serif" font-size="10.00">Integrator&lt; dim, Properties</text>
<text text-anchor="middle" x="75" y="-31" font-family="Helvetica,sans-Serif" font-size="10.00">Index &gt;</text>
</a>
</g>
</g>
<!-- Node1 -->
<g id="Node000001" class="node">
<title>Node1</title>
<g id="a_Node000001"><a xlink:href="classExplicitEulerIntegrator.html" target="_top" xlink:title="Implementation of a classical explicit euler scheme for the integration of the particle motion....">
<polygon fill="white" stroke="#666666" points="326,-78 186,-78 186,-48 326,-48 326,-78"/>
<text text-anchor="start" x="194" y="-66" font-family="Helvetica,sans-Serif" font-size="10.00">ExplicitEulerIntegrator</text>
<text text-anchor="middle" x="256" y="-55" font-family="Helvetica,sans-Serif" font-size="10.00">&lt; dim, PropertiesIndex &gt;</text>
</a>
</g>
</g>
<!-- Node0&#45;&gt;Node1 -->
<g id="edge78_Node000000_Node000001" class="edge">
<title>Node0&#45;&gt;Node1</title>
<g id="a_edge78_Node000000_Node000001"><a xlink:title=" ">
<path fill="none" stroke="#63b8ff" d="M160.15,-50.28C168.75,-51.44 177.42,-52.6 185.84,-53.73"/>
<polygon fill="#63b8ff" stroke="#63b8ff" points="160.47,-46.79 150.1,-48.93 159.54,-53.73 160.47,-46.79"/>
</a>
</g>
</g>
<!-- Node2 -->
<g id="Node000002" class="node">
<title>Node2</title>
<g id="a_Node000002"><a xlink:href="classVelocityVerletIntegrator.html" target="_top" xlink:title="Implementation of a classical velocity verlet scheme for the integration of the particle motion....">
<polygon fill="white" stroke="#666666" points="326,-30 186,-30 186,0 326,0 326,-30"/>
<text text-anchor="start" x="194" y="-18" font-family="Helvetica,sans-Serif" font-size="10.00">VelocityVerletIntegrator</text>
<text text-anchor="middle" x="256" y="-7" font-family="Helvetica,sans-Serif" font-size="10.00">&lt; dim, PropertiesIndex &gt;</text>
</a>
</g>
</g>
<!-- Node0&#45;&gt;Node2 -->
<g id="edge79_Node000000_Node000002" class="edge">
<title>Node0&#45;&gt;Node2</title>
<g id="a_edge79_Node000000_Node000002"><a xlink:title=" ">
<path fill="none" stroke="#63b8ff" d="M160.15,-27.72C168.75,-26.56 177.42,-25.4 185.84,-24.27"/>
<polygon fill="#63b8ff" stroke="#63b8ff" points="159.54,-24.27 150.1,-29.07 160.47,-31.21 159.54,-24.27"/>
</a>
</g>
</g>
</g>
</svg>
