<?xml version="1.0" encoding="UTF-8" standalone="no"?>
<!DOCTYPE svg PUBLIC "-//W3C//DTD SVG 1.1//EN"
 "http://www.w3.org/Graphics/SVG/1.1/DTD/svg11.dtd">
<!-- Generated by graphviz version 2.43.0 (0)
 -->
<!-- Title: Graphical Class Hierarchy Pages: 1 -->
<svg width="506pt" height="545pt"
 viewBox="0.00 0.00 506.00 545.00" xmlns="http://www.w3.org/2000/svg" xmlns:xlink="http://www.w3.org/1999/xlink">
<g id="graph0" class="graph" transform="scale(1 1) rotate(0) translate(4 541)">
<title>Graphical Class Hierarchy</title>
<!-- Node0 -->
<g id="Node000000" class="node">
<title>Node0</title>
<g id="a_Node000000"><a xlink:title=" ">
<polygon fill="#e0e0e0" stroke="#999999" points="131,-321 0,-321 0,-302 131,-302 131,-321"/>
<text text-anchor="middle" x="65.5" y="-309" font-family="Helvetica,sans-Serif" font-size="10.00">AutoDerivativeFunction</text>
</a>
</g>
</g>
<!-- Node1 -->
<g id="Node000001" class="node">
<title>Node1</title>
<g id="a_Node000001"><a xlink:href="classPeriodicHillsPullBack.html" target="_top" xlink:title=" ">
<polygon fill="white" stroke="#666666" points="296.5,-374.5 177.5,-374.5 177.5,-344.5 296.5,-344.5 296.5,-374.5"/>
<text text-anchor="start" x="185.5" y="-362.5" font-family="Helvetica,sans-Serif" font-size="10.00">PeriodicHillsPullBack</text>
<text text-anchor="middle" x="237" y="-351.5" font-family="Helvetica,sans-Serif" font-size="10.00">&lt; dim, spacedim &gt;</text>
</a>
</g>
</g>
<!-- Node0&#45;&gt;Node1 -->
<g id="edge1_Node000000_Node000001" class="edge">
<title>Node0&#45;&gt;Node1</title>
<g id="a_edge1_Node000000_Node000001"><a xlink:title=" ">
<path fill="none" stroke="#63b8ff" d="M110.2,-323.87C132.35,-330.15 159.45,-337.82 182.81,-344.44"/>
<polygon fill="#63b8ff" stroke="#63b8ff" points="110.97,-320.46 100.39,-321.1 109.06,-327.19 110.97,-320.46"/>
</a>
</g>
</g>
<!-- Node2 -->
<g id="Node000002" class="node">
<title>Node2</title>
<g id="a_Node000002"><a xlink:href="classPeriodicHillsPushForward.html" target="_top" xlink:title="The push_forward &amp; the pull_back classes create the vector_value functions gradient function and beca...">
<polygon fill="white" stroke="#666666" points="307,-326.5 167,-326.5 167,-296.5 307,-296.5 307,-326.5"/>
<text text-anchor="start" x="175" y="-314.5" font-family="Helvetica,sans-Serif" font-size="10.00">PeriodicHillsPushForward</text>
<text text-anchor="middle" x="237" y="-303.5" font-family="Helvetica,sans-Serif" font-size="10.00">&lt; dim, spacedim &gt;</text>
</a>
</g>
</g>
<!-- Node0&#45;&gt;Node2 -->
<g id="edge2_Node000000_Node000002" class="edge">
<title>Node0&#45;&gt;Node2</title>
<g id="a_edge2_Node000000_Node000002"><a xlink:title=" ">
<path fill="none" stroke="#63b8ff" d="M141.32,-311.5C149.8,-311.5 158.41,-311.5 166.82,-311.5"/>
<polygon fill="#63b8ff" stroke="#63b8ff" points="141.06,-308 131.06,-311.5 141.06,-315 141.06,-308"/>
</a>
</g>
</g>
<!-- Node3 -->
<g id="Node000003" class="node">
<title>Node3</title>
<g id="a_Node000003"><a xlink:href="classShape.html" target="_top" xlink:title="A base class used to represent geometrical entities. Its main uses are to return signed distance and ...">
<polygon fill="white" stroke="#666666" points="281,-278 193,-278 193,-259 281,-259 281,-278"/>
<text text-anchor="middle" x="237" y="-266" font-family="Helvetica,sans-Serif" font-size="10.00">Shape&lt; dim &gt;</text>
</a>
</g>
</g>
<!-- Node0&#45;&gt;Node3 -->
<g id="edge3_Node000000_Node000003" class="edge">
<title>Node0&#45;&gt;Node3</title>
<g id="a_edge3_Node000000_Node000003"><a xlink:title=" ">
<path fill="none" stroke="#63b8ff" d="M114.02,-299.44C140.73,-292.67 173.6,-284.33 198.49,-278.02"/>
<polygon fill="#63b8ff" stroke="#63b8ff" points="112.95,-296.11 104.12,-301.96 114.67,-302.89 112.95,-296.11"/>
</a>
</g>
</g>
<!-- Node4 -->
<g id="Node000004" class="node">
<title>Node4</title>
<g id="a_Node000004"><a xlink:href="classCompositeShape.html" target="_top" xlink:title="This class was designed so that specific composite shapes could be defined through the parameter file...">
<polygon fill="white" stroke="#666666" points="490.5,-537 350.5,-537 350.5,-518 490.5,-518 490.5,-537"/>
<text text-anchor="middle" x="420.5" y="-525" font-family="Helvetica,sans-Serif" font-size="10.00">CompositeShape&lt; dim &gt;</text>
</a>
</g>
</g>
<!-- Node3&#45;&gt;Node4 -->
<g id="edge4_Node000003_Node000004" class="edge">
<title>Node3&#45;&gt;Node4</title>
<g id="a_edge4_Node000003_Node000004"><a xlink:title=" ">
<path fill="none" stroke="#63b8ff" d="M291,-276.12C297.03,-278.89 302.59,-282.58 307,-287.5 373.76,-361.89 274.85,-436.38 343,-509.5 346.07,-512.79 349.62,-515.54 353.47,-517.82"/>
<polygon fill="#63b8ff" stroke="#63b8ff" points="291.82,-272.69 281.22,-272.5 289.38,-279.26 291.82,-272.69"/>
</a>
</g>
</g>
<!-- Node5 -->
<g id="Node000005" class="node">
<title>Node5</title>
<g id="a_Node000005"><a xlink:href="classCone.html" target="_top" xlink:title=" ">
<polygon fill="white" stroke="#666666" points="462,-500 379,-500 379,-481 462,-481 462,-500"/>
<text text-anchor="middle" x="420.5" y="-488" font-family="Helvetica,sans-Serif" font-size="10.00">Cone&lt; dim &gt;</text>
</a>
</g>
</g>
<!-- Node3&#45;&gt;Node5 -->
<g id="edge5_Node000003_Node000005" class="edge">
<title>Node3&#45;&gt;Node5</title>
<g id="a_edge5_Node000003_Node000005"><a xlink:title=" ">
<path fill="none" stroke="#63b8ff" d="M290.86,-276.26C296.91,-279 302.51,-282.65 307,-287.5 363.92,-348.95 284.93,-412.13 343,-472.5 352.27,-482.14 365.65,-487.03 378.64,-489.41"/>
<polygon fill="#63b8ff" stroke="#63b8ff" points="291.65,-272.82 281.06,-272.65 289.23,-279.39 291.65,-272.82"/>
</a>
</g>
</g>
<!-- Node6 -->
<g id="Node000006" class="node">
<title>Node6</title>
<g id="a_Node000006"><a xlink:href="classCutHollowSphere.html" target="_top" xlink:title=" ">
<polygon fill="white" stroke="#666666" points="491.5,-463 349.5,-463 349.5,-444 491.5,-444 491.5,-463"/>
<text text-anchor="middle" x="420.5" y="-451" font-family="Helvetica,sans-Serif" font-size="10.00">CutHollowSphere&lt; dim &gt;</text>
</a>
</g>
</g>
<!-- Node3&#45;&gt;Node6 -->
<g id="edge6_Node000003_Node000006" class="edge">
<title>Node3&#45;&gt;Node6</title>
<g id="a_edge6_Node000003_Node000006"><a xlink:title=" ">
<path fill="none" stroke="#63b8ff" d="M290.87,-276.56C296.88,-279.26 302.46,-282.82 307,-287.5 354.14,-336.08 294.95,-387.81 343,-435.5 346.39,-438.86 350.28,-441.64 354.48,-443.94"/>
<polygon fill="#63b8ff" stroke="#63b8ff" points="291.77,-273.16 281.18,-272.98 289.35,-279.72 291.77,-273.16"/>
</a>
</g>
</g>
<!-- Node7 -->
<g id="Node000007" class="node">
<title>Node7</title>
<g id="a_Node000007"><a xlink:href="classCylinder.html" target="_top" xlink:title=" ">
<polygon fill="white" stroke="#666666" points="469.5,-426 371.5,-426 371.5,-407 469.5,-407 469.5,-426"/>
<text text-anchor="middle" x="420.5" y="-414" font-family="Helvetica,sans-Serif" font-size="10.00">Cylinder&lt; dim &gt;</text>
</a>
</g>
</g>
<!-- Node3&#45;&gt;Node7 -->
<g id="edge7_Node000003_Node000007" class="edge">
<title>Node3&#45;&gt;Node7</title>
<g id="a_edge7_Node000003_Node000007"><a xlink:title=" ">
<path fill="none" stroke="#63b8ff" d="M290.77,-276.98C296.74,-279.62 302.34,-283.05 307,-287.5 344.49,-323.34 304.85,-363.37 343,-398.5 350.83,-405.71 360.99,-410.2 371.33,-412.95"/>
<polygon fill="#63b8ff" stroke="#63b8ff" points="291.76,-273.62 281.17,-273.46 289.35,-280.19 291.76,-273.62"/>
</a>
</g>
</g>
<!-- Node8 -->
<g id="Node000008" class="node">
<title>Node8</title>
<g id="a_Node000008"><a xlink:href="classCylindricalHelix.html" target="_top" xlink:title=" ">
<polygon fill="white" stroke="#666666" points="488,-389 353,-389 353,-370 488,-370 488,-389"/>
<text text-anchor="middle" x="420.5" y="-377" font-family="Helvetica,sans-Serif" font-size="10.00">CylindricalHelix&lt; dim &gt;</text>
</a>
</g>
</g>
<!-- Node3&#45;&gt;Node8 -->
<g id="edge8_Node000003_Node000008" class="edge">
<title>Node3&#45;&gt;Node8</title>
<g id="a_edge8_Node000003_Node000008"><a xlink:title=" ">
<path fill="none" stroke="#63b8ff" d="M290.66,-277.82C296.56,-280.32 302.17,-283.49 307,-287.5 335.13,-310.88 314.44,-338.66 343,-361.5 347.26,-364.91 352.06,-367.69 357.12,-369.96"/>
<polygon fill="#63b8ff" stroke="#63b8ff" points="291.83,-274.52 281.24,-274.41 289.45,-281.1 291.83,-274.52"/>
</a>
</g>
</g>
<!-- Node9 -->
<g id="Node000009" class="node">
<title>Node9</title>
<g id="a_Node000009"><a xlink:href="classCylindricalTube.html" target="_top" xlink:title=" ">
<polygon fill="white" stroke="#666666" points="486.5,-352 354.5,-352 354.5,-333 486.5,-333 486.5,-352"/>
<text text-anchor="middle" x="420.5" y="-340" font-family="Helvetica,sans-Serif" font-size="10.00">CylindricalTube&lt; dim &gt;</text>
</a>
</g>
</g>
<!-- Node3&#45;&gt;Node9 -->
<g id="edge9_Node000003_Node000009" class="edge">
<title>Node3&#45;&gt;Node9</title>
<g id="a_edge9_Node000003_Node000009"><a xlink:title=" ">
<path fill="none" stroke="#63b8ff" d="M290.68,-279.82C296.37,-281.96 301.93,-284.5 307,-287.5 326.75,-299.18 323.03,-313.2 343,-324.5 349.06,-327.93 355.73,-330.7 362.55,-332.95"/>
<polygon fill="#63b8ff" stroke="#63b8ff" points="291.63,-276.44 281.04,-276.56 289.39,-283.08 291.63,-276.44"/>
</a>
</g>
</g>
<!-- Node10 -->
<g id="Node000010" class="node">
<title>Node10</title>
<g id="a_Node000010"><a xlink:href="classDeathStar.html" target="_top" xlink:title=" ">
<polygon fill="white" stroke="#666666" points="474,-315 367,-315 367,-296 474,-296 474,-315"/>
<text text-anchor="middle" x="420.5" y="-303" font-family="Helvetica,sans-Serif" font-size="10.00">DeathStar&lt; dim &gt;</text>
</a>
</g>
</g>
<!-- Node3&#45;&gt;Node10 -->
<g id="edge10_Node000003_Node000010" class="edge">
<title>Node3&#45;&gt;Node10</title>
<g id="a_edge10_Node000003_Node000010"><a xlink:title=" ">
<path fill="none" stroke="#63b8ff" d="M291.02,-279.31C316.87,-284.58 347.68,-290.86 372.66,-295.95"/>
<polygon fill="#63b8ff" stroke="#63b8ff" points="291.51,-275.84 281.01,-277.27 290.11,-282.7 291.51,-275.84"/>
</a>
</g>
</g>
<!-- Node11 -->
<g id="Node000011" class="node">
<title>Node11</title>
<g id="a_Node000011"><a xlink:href="classEllipsoid.html" target="_top" xlink:title=" ">
<polygon fill="white" stroke="#666666" points="470,-278 371,-278 371,-259 470,-259 470,-278"/>
<text text-anchor="middle" x="420.5" y="-266" font-family="Helvetica,sans-Serif" font-size="10.00">Ellipsoid&lt; dim &gt;</text>
</a>
</g>
</g>
<!-- Node3&#45;&gt;Node11 -->
<g id="edge11_Node000003_Node000011" class="edge">
<title>Node3&#45;&gt;Node11</title>
<g id="a_edge11_Node000003_Node000011"><a xlink:title=" ">
<path fill="none" stroke="#63b8ff" d="M291.12,-268.5C316.28,-268.5 346.13,-268.5 370.71,-268.5"/>
<polygon fill="#63b8ff" stroke="#63b8ff" points="291.01,-265 281.01,-268.5 291.01,-272 291.01,-265"/>
</a>
</g>
</g>
<!-- Node12 -->
<g id="Node000012" class="node">
<title>Node12</title>
<g id="a_Node000012"><a xlink:href="classHyperRectangle.html" target="_top" xlink:title=" ">
<polygon fill="white" stroke="#666666" points="488.5,-241 352.5,-241 352.5,-222 488.5,-222 488.5,-241"/>
<text text-anchor="middle" x="420.5" y="-229" font-family="Helvetica,sans-Serif" font-size="10.00">HyperRectangle&lt; dim &gt;</text>
</a>
</g>
</g>
<!-- Node3&#45;&gt;Node12 -->
<g id="edge12_Node000003_Node000012" class="edge">
<title>Node3&#45;&gt;Node12</title>
<g id="a_edge12_Node000003_Node000012"><a xlink:title=" ">
<path fill="none" stroke="#63b8ff" d="M291.02,-257.69C316.87,-252.42 347.68,-246.14 372.66,-241.05"/>
<polygon fill="#63b8ff" stroke="#63b8ff" points="290.11,-254.3 281.01,-259.73 291.51,-261.16 290.11,-254.3"/>
</a>
</g>
</g>
<!-- Node13 -->
<g id="Node000013" class="node">
<title>Node13</title>
<g id="a_Node000013"><a xlink:href="classOpenCascadeShape.html" target="_top" xlink:title=" ">
<polygon fill="white" stroke="#666666" points="498,-204 343,-204 343,-185 498,-185 498,-204"/>
<text text-anchor="middle" x="420.5" y="-192" font-family="Helvetica,sans-Serif" font-size="10.00">OpenCascadeShape&lt; dim &gt;</text>
</a>
</g>
</g>
<!-- Node3&#45;&gt;Node13 -->
<g id="edge13_Node000003_Node000013" class="edge">
<title>Node3&#45;&gt;Node13</title>
<g id="a_edge13_Node000003_Node000013"><a xlink:title=" ">
<path fill="none" stroke="#63b8ff" d="M262.25,-253.66C283.04,-241.46 314.14,-224.46 343,-213.5 352.59,-209.86 363.13,-206.72 373.24,-204.1"/>
<polygon fill="#63b8ff" stroke="#63b8ff" points="260.26,-250.77 253.46,-258.89 263.84,-256.79 260.26,-250.77"/>
</a>
</g>
</g>
<!-- Node14 -->
<g id="Node000014" class="node">
<title>Node14</title>
<g id="a_Node000014"><a xlink:href="classPlane.html" target="_top" xlink:title=" ">
<polygon fill="white" stroke="#666666" points="463,-167 378,-167 378,-148 463,-148 463,-167"/>
<text text-anchor="middle" x="420.5" y="-155" font-family="Helvetica,sans-Serif" font-size="10.00">Plane&lt; dim &gt;</text>
</a>
</g>
</g>
<!-- Node3&#45;&gt;Node14 -->
<g id="edge14_Node000003_Node000014" class="edge">
<title>Node3&#45;&gt;Node14</title>
<g id="a_edge14_Node000003_Node000014"><a xlink:title=" ">
<path fill="none" stroke="#63b8ff" d="M252.8,-251.25C271.65,-230.4 306.21,-195.72 343,-176.5 353.67,-170.92 366.05,-166.94 377.69,-164.1"/>
<polygon fill="#63b8ff" stroke="#63b8ff" points="250.17,-248.95 246.16,-258.76 255.41,-253.59 250.17,-248.95"/>
</a>
</g>
</g>
<!-- Node15 -->
<g id="Node000015" class="node">
<title>Node15</title>
<g id="a_Node000015"><a xlink:href="classRBFShape.html" target="_top" xlink:title="RBF Shapes express the signed distance function as a linear combination of Radial Basis Functions (RB...">
<polygon fill="white" stroke="#666666" points="474,-130 367,-130 367,-111 474,-111 474,-130"/>
<text text-anchor="middle" x="420.5" y="-118" font-family="Helvetica,sans-Serif" font-size="10.00">RBFShape&lt; dim &gt;</text>
</a>
</g>
</g>
<!-- Node3&#45;&gt;Node15 -->
<g id="edge15_Node000003_Node000015" class="edge">
<title>Node3&#45;&gt;Node15</title>
<g id="a_edge15_Node000003_Node000015"><a xlink:title=" ">
<path fill="none" stroke="#63b8ff" d="M247.76,-250.1C263.76,-221.79 298.29,-167.88 343,-139.5 350.16,-134.95 358.34,-131.49 366.63,-128.86"/>
<polygon fill="#63b8ff" stroke="#63b8ff" points="244.64,-248.51 242.89,-258.96 250.77,-251.88 244.64,-248.51"/>
</a>
</g>
</g>
<!-- Node16 -->
<g id="Node000016" class="node">
<title>Node16</title>
<g id="a_Node000016"><a xlink:href="classSphere.html" target="_top" xlink:title=" ">
<polygon fill="white" stroke="#666666" points="466.5,-93 374.5,-93 374.5,-74 466.5,-74 466.5,-93"/>
<text text-anchor="middle" x="420.5" y="-81" font-family="Helvetica,sans-Serif" font-size="10.00">Sphere&lt; dim &gt;</text>
</a>
</g>
</g>
<!-- Node3&#45;&gt;Node16 -->
<g id="edge16_Node000003_Node000016" class="edge">
<title>Node3&#45;&gt;Node16</title>
<g id="a_edge16_Node000003_Node000016"><a xlink:title=" ">
<path fill="none" stroke="#63b8ff" d="M244.61,-249.32C257.66,-214.43 290.12,-140.66 343,-102.5 352.1,-95.93 363.22,-91.62 374.13,-88.8"/>
<polygon fill="#63b8ff" stroke="#63b8ff" points="241.29,-248.22 241.18,-258.82 247.87,-250.6 241.29,-248.22"/>
</a>
</g>
</g>
<!-- Node17 -->
<g id="Node000017" class="node">
<title>Node17</title>
<g id="a_Node000017"><a xlink:href="classSuperquadric.html" target="_top" xlink:title="This class defines superquadric shapes. Their signed distance function is: .">
<polygon fill="white" stroke="#666666" points="481.5,-56 359.5,-56 359.5,-37 481.5,-37 481.5,-56"/>
<text text-anchor="middle" x="420.5" y="-44" font-family="Helvetica,sans-Serif" font-size="10.00">Superquadric&lt; dim &gt;</text>
</a>
</g>
</g>
<!-- Node3&#45;&gt;Node17 -->
<g id="edge17_Node000003_Node000017" class="edge">
<title>Node3&#45;&gt;Node17</title>
<g id="a_edge17_Node000003_Node000017"><a xlink:title=" ">
<path fill="none" stroke="#63b8ff" d="M242.39,-248.81C252.56,-207.99 281.67,-113.93 343,-65.5 347.94,-61.6 353.58,-58.49 359.5,-56"/>
<polygon fill="#63b8ff" stroke="#63b8ff" points="238.97,-248.08 240.07,-258.62 245.78,-249.69 238.97,-248.08"/>
</a>
</g>
</g>
<!-- Node18 -->
<g id="Node000018" class="node">
<title>Node18</title>
<g id="a_Node000018"><a xlink:href="classTorus.html" target="_top" xlink:title=" ">
<polygon fill="white" stroke="#666666" points="462,-19 379,-19 379,0 462,0 462,-19"/>
<text text-anchor="middle" x="420.5" y="-7" font-family="Helvetica,sans-Serif" font-size="10.00">Torus&lt; dim &gt;</text>
</a>
</g>
</g>
<!-- Node3&#45;&gt;Node18 -->
<g id="edge18_Node000003_Node000018" class="edge">
<title>Node3&#45;&gt;Node18</title>
<g id="a_edge18_Node000003_Node000018"><a xlink:title=" ">
<path fill="none" stroke="#63b8ff" d="M240.68,-248.8C248.03,-202.8 272.83,-87.72 343,-28.5 353.04,-20.03 366.31,-15.24 378.97,-12.56"/>
<polygon fill="#63b8ff" stroke="#63b8ff" points="237.19,-248.53 239.18,-258.93 244.11,-249.56 237.19,-248.53"/>
</a>
</g>
</g>
</g>
</svg>
