<?xml version="1.0" encoding="UTF-8" standalone="no"?>
<!DOCTYPE svg PUBLIC "-//W3C//DTD SVG 1.1//EN"
 "http://www.w3.org/Graphics/SVG/1.1/DTD/svg11.dtd">
<!-- Generated by graphviz version 2.43.0 (0)
 -->
<!-- Title: Graphical Class Hierarchy Pages: 1 -->
<svg width="317pt" height="64pt"
 viewBox="0.00 0.00 317.00 64.00" xmlns="http://www.w3.org/2000/svg" xmlns:xlink="http://www.w3.org/1999/xlink">
<g id="graph0" class="graph" transform="scale(1 1) rotate(0) translate(4 60)">
<title>Graphical Class Hierarchy</title>
<!-- Node0 -->
<g id="Node000000" class="node">
<title>Node0</title>
<g id="a_Node000000"><a xlink:href="classVolumeOfFluidFilterBase.html" target="_top" xlink:title="Abstract class for filtering phase fraction in volume of fluid (VOF) simulations.">
<polygon fill="white" stroke="#666666" points="137,-37 0,-37 0,-18 137,-18 137,-37"/>
<text text-anchor="middle" x="68.5" y="-25" font-family="Helvetica,sans-Serif" font-size="10.00">VolumeOfFluidFilterBase</text>
</a>
</g>
</g>
<!-- Node1 -->
<g id="Node000001" class="node">
<title>Node1</title>
<g id="a_Node000001"><a xlink:href="classVolumeOfFluidNoFilter.html" target="_top" xlink:title="Default filter applied to phase fraction. The VolumeOfFluidNoFilter filter does not modify the phase ...">
<polygon fill="white" stroke="#666666" points="304.5,-56 177.5,-56 177.5,-37 304.5,-37 304.5,-56"/>
<text text-anchor="middle" x="241" y="-44" font-family="Helvetica,sans-Serif" font-size="10.00">VolumeOfFluidNoFilter</text>
</a>
</g>
</g>
<!-- Node0&#45;&gt;Node1 -->
<g id="edge237_Node000000_Node000001" class="edge">
<title>Node0&#45;&gt;Node1</title>
<g id="a_edge237_Node000000_Node000001"><a xlink:title=" ">
<path fill="none" stroke="#63b8ff" d="M147.35,-36.18C157.4,-37.3 167.58,-38.43 177.34,-39.52"/>
<polygon fill="#63b8ff" stroke="#63b8ff" points="147.7,-32.69 137.38,-35.06 146.93,-39.65 147.7,-32.69"/>
</a>
</g>
</g>
<!-- Node2 -->
<g id="Node000002" class="node">
<title>Node2</title>
<g id="a_Node000002"><a xlink:href="classVolumeOfFluidTanhFilter.html" target="_top" xlink:title="Filter phase fraction with a hyperbolic tangent function for VOF simulations.">
<polygon fill="white" stroke="#666666" points="309,-19 173,-19 173,0 309,0 309,-19"/>
<text text-anchor="middle" x="241" y="-7" font-family="Helvetica,sans-Serif" font-size="10.00">VolumeOfFluidTanhFilter</text>
</a>
</g>
</g>
<!-- Node0&#45;&gt;Node2 -->
<g id="edge238_Node000000_Node000002" class="edge">
<title>Node0&#45;&gt;Node2</title>
<g id="a_edge238_Node000000_Node000002"><a xlink:title=" ">
<path fill="none" stroke="#63b8ff" d="M147.34,-19.28C155.88,-18.38 164.52,-17.47 172.91,-16.58"/>
<polygon fill="#63b8ff" stroke="#63b8ff" points="146.95,-15.8 137.38,-20.33 147.69,-22.76 146.95,-15.8"/>
</a>
</g>
</g>
</g>
</svg>
