<?xml version="1.0" encoding="UTF-8" standalone="no"?>
<!DOCTYPE svg PUBLIC "-//W3C//DTD SVG 1.1//EN"
 "http://www.w3.org/Graphics/SVG/1.1/DTD/svg11.dtd">
<!-- Generated by graphviz version 2.43.0 (0)
 -->
<!-- Title: Graphical Class Hierarchy Pages: 1 -->
<svg width="1027pt" height="509pt"
 viewBox="0.00 0.00 1027.00 508.50" xmlns="http://www.w3.org/2000/svg" xmlns:xlink="http://www.w3.org/1999/xlink">
<g id="graph0" class="graph" transform="scale(1 1) rotate(0) translate(4 504.5)">
<title>Graphical Class Hierarchy</title>
<!-- Node0 -->
<g id="Node000000" class="node">
<title>Node0</title>
<g id="a_Node000000"><a xlink:href="classPhysicsSolver.html" target="_top" xlink:title="Contain all the common elements of a physics solver. It creates the non&#45;linear solver as specified by...">
<polygon fill="white" stroke="#666666" points="167,-297.5 7,-297.5 7,-278.5 167,-278.5 167,-297.5"/>
<text text-anchor="middle" x="87" y="-285.5" font-family="Helvetica,sans-Serif" font-size="10.00">PhysicsSolver&lt; VectorType &gt;</text>
</a>
</g>
</g>
<!-- Node1 -->
<g id="Node000001" class="node">
<title>Node1</title>
<g id="a_Node000001"><a xlink:href="classAuxiliaryPhysics.html" target="_top" xlink:title=" ">
<polygon fill="white" stroke="#666666" points="364.5,-330 234.5,-330 234.5,-300 364.5,-300 364.5,-330"/>
<text text-anchor="start" x="242.5" y="-318" font-family="Helvetica,sans-Serif" font-size="10.00">AuxiliaryPhysics&lt; dim,</text>
<text text-anchor="middle" x="299.5" y="-307" font-family="Helvetica,sans-Serif" font-size="10.00"> GlobalVectorType &gt;</text>
</a>
</g>
</g>
<!-- Node0&#45;&gt;Node1 -->
<g id="edge200_Node000000_Node000001" class="edge">
<title>Node0&#45;&gt;Node1</title>
<g id="a_edge200_Node000000_Node000001"><a xlink:title=" ">
<path fill="none" stroke="#63b8ff" d="M172.27,-298.81C192.97,-301.46 214.81,-304.26 234.38,-306.78"/>
<polygon fill="#63b8ff" stroke="#63b8ff" points="172.58,-295.32 162.21,-297.52 171.69,-302.26 172.58,-295.32"/>
</a>
</g>
</g>
<!-- Node6 -->
<g id="Node000006" class="node">
<title>Node6</title>
<g id="a_Node000006"><a xlink:href="classNavierStokesBase.html" target="_top" xlink:title=" ">
<polygon fill="white" stroke="#666666" points="373.5,-281.5 225.5,-281.5 225.5,-240.5 373.5,-240.5 373.5,-281.5"/>
<text text-anchor="start" x="233.5" y="-269.5" font-family="Helvetica,sans-Serif" font-size="10.00">NavierStokesBase&lt; dim,</text>
<text text-anchor="start" x="233.5" y="-258.5" font-family="Helvetica,sans-Serif" font-size="10.00"> GlobalBlockVectorType,</text>
<text text-anchor="middle" x="299.5" y="-247.5" font-family="Helvetica,sans-Serif" font-size="10.00"> std::vector&lt; IndexSet &gt; &gt;</text>
</a>
</g>
</g>
<!-- Node0&#45;&gt;Node6 -->
<g id="edge205_Node000000_Node000006" class="edge">
<title>Node0&#45;&gt;Node6</title>
<g id="a_edge205_Node000000_Node000006"><a xlink:title=" ">
<path fill="none" stroke="#63b8ff" d="M172.42,-277.17C189.93,-274.93 208.24,-272.58 225.31,-270.39"/>
<polygon fill="#63b8ff" stroke="#63b8ff" points="171.69,-273.74 162.21,-278.48 172.58,-280.68 171.69,-273.74"/>
</a>
</g>
</g>
<!-- Node8 -->
<g id="Node000008" class="node">
<title>Node8</title>
<g id="a_Node000008"><a xlink:href="classNavierStokesBase.html" target="_top" xlink:title=" ">
<polygon fill="white" stroke="#666666" points="381.5,-222 217.5,-222 217.5,-192 381.5,-192 381.5,-222"/>
<text text-anchor="start" x="225.5" y="-210" font-family="Helvetica,sans-Serif" font-size="10.00">NavierStokesBase&lt; dim,</text>
<text text-anchor="middle" x="299.5" y="-199" font-family="Helvetica,sans-Serif" font-size="10.00"> GlobalVectorType, IndexSet &gt;</text>
</a>
</g>
</g>
<!-- Node0&#45;&gt;Node8 -->
<g id="edge207_Node000000_Node000008" class="edge">
<title>Node0&#45;&gt;Node8</title>
<g id="a_edge207_Node000000_Node000008"><a xlink:title=" ">
<path fill="none" stroke="#63b8ff" d="M115.66,-273.81C140.06,-261.65 176.79,-244.23 210,-232 219.59,-228.47 229.91,-225.14 240.01,-222.14"/>
<polygon fill="#63b8ff" stroke="#63b8ff" points="114,-270.72 106.64,-278.34 117.14,-276.98 114,-270.72"/>
</a>
</g>
</g>
<!-- Node14 -->
<g id="Node000014" class="node">
<title>Node14</title>
<g id="a_Node000014"><a xlink:href="classNavierStokesBase.html" target="_top" xlink:title=" ">
<polygon fill="white" stroke="#666666" points="384,-500.5 215,-500.5 215,-459.5 384,-459.5 384,-500.5"/>
<text text-anchor="start" x="223" y="-488.5" font-family="Helvetica,sans-Serif" font-size="10.00">NavierStokesBase&lt; dim,</text>
<text text-anchor="start" x="223" y="-477.5" font-family="Helvetica,sans-Serif" font-size="10.00"> LinearAlgebra::distributed</text>
<text text-anchor="middle" x="299.5" y="-466.5" font-family="Helvetica,sans-Serif" font-size="10.00">::Vector&lt; double &gt;, IndexSet &gt;</text>
</a>
</g>
</g>
<!-- Node0&#45;&gt;Node14 -->
<g id="edge213_Node000000_Node000014" class="edge">
<title>Node0&#45;&gt;Node14</title>
<g id="a_edge213_Node000000_Node000014"><a xlink:title=" ">
<path fill="none" stroke="#63b8ff" d="M97.85,-306.38C116,-338.65 157.69,-405.78 210,-445 217.4,-450.55 225.8,-455.35 234.41,-459.46"/>
<polygon fill="#63b8ff" stroke="#63b8ff" points="100.88,-304.63 92.99,-297.56 94.75,-308 100.88,-304.63"/>
</a>
</g>
</g>
<!-- Node18 -->
<g id="Node000018" class="node">
<title>Node18</title>
<g id="a_Node000018"><a xlink:href="classPhysicsNonlinearSubequationsSolver.html" target="_top" xlink:title=" ">
<polygon fill="white" stroke="#666666" points="389,-126 210,-126 210,-96 389,-96 389,-126"/>
<text text-anchor="start" x="218" y="-114" font-family="Helvetica,sans-Serif" font-size="10.00">PhysicsNonlinearSubequations</text>
<text text-anchor="middle" x="299.5" y="-103" font-family="Helvetica,sans-Serif" font-size="10.00">Solver&lt; dim, GlobalVectorType &gt;</text>
</a>
</g>
</g>
<!-- Node0&#45;&gt;Node18 -->
<g id="edge217_Node000000_Node000018" class="edge">
<title>Node0&#45;&gt;Node18</title>
<g id="a_edge217_Node000000_Node000018"><a xlink:title=" ">
<path fill="none" stroke="#63b8ff" d="M97.55,-269.5C115.24,-237.13 156.22,-170.33 210,-135 215.19,-131.59 220.85,-128.66 226.72,-126.15"/>
<polygon fill="#63b8ff" stroke="#63b8ff" points="94.44,-267.89 92.83,-278.36 100.62,-271.19 94.44,-267.89"/>
</a>
</g>
</g>
<!-- Node27 -->
<g id="Node000027" class="node">
<title>Node27</title>
<g id="a_Node000027"><a xlink:href="classAuxiliaryPhysics.html" target="_top" xlink:title=" ">
<polygon fill="white" stroke="#666666" points="364.5,-436 234.5,-436 234.5,-406 364.5,-406 364.5,-436"/>
<text text-anchor="start" x="242.5" y="-424" font-family="Helvetica,sans-Serif" font-size="10.00">AuxiliaryPhysics&lt; dim,</text>
<text text-anchor="middle" x="299.5" y="-413" font-family="Helvetica,sans-Serif" font-size="10.00"> VectorType &gt;</text>
</a>
</g>
</g>
<!-- Node0&#45;&gt;Node27 -->
<g id="edge219_Node000000_Node000027" class="edge">
<title>Node0&#45;&gt;Node27</title>
<g id="a_edge219_Node000000_Node000027"><a xlink:title=" ">
<path fill="none" stroke="#63b8ff" d="M105.01,-304.77C127.47,-326.19 168.99,-363.29 210,-387 222.68,-394.33 237.24,-400.68 250.84,-405.83"/>
<polygon fill="#63b8ff" stroke="#63b8ff" points="107.26,-302.08 97.64,-297.65 102.4,-307.11 107.26,-302.08"/>
</a>
</g>
</g>
<!-- Node29 -->
<g id="Node000029" class="node">
<title>Node29</title>
<g id="a_Node000029"><a xlink:href="classNavierStokesBase.html" target="_top" xlink:title=" ">
<polygon fill="white" stroke="#666666" points="368.5,-378 230.5,-378 230.5,-348 368.5,-348 368.5,-378"/>
<text text-anchor="start" x="238.5" y="-366" font-family="Helvetica,sans-Serif" font-size="10.00">NavierStokesBase&lt; dim,</text>
<text text-anchor="middle" x="299.5" y="-355" font-family="Helvetica,sans-Serif" font-size="10.00"> VectorType, DofsType &gt;</text>
</a>
</g>
</g>
<!-- Node0&#45;&gt;Node29 -->
<g id="edge221_Node000000_Node000029" class="edge">
<title>Node0&#45;&gt;Node29</title>
<g id="a_edge221_Node000000_Node000029"><a xlink:title=" ">
<path fill="none" stroke="#63b8ff" d="M117.83,-301.76C142.27,-312.73 177.94,-328 210,-339 219.19,-342.15 229.02,-345.16 238.67,-347.92"/>
<polygon fill="#63b8ff" stroke="#63b8ff" points="118.96,-298.43 108.4,-297.5 116.07,-304.81 118.96,-298.43"/>
</a>
</g>
</g>
<!-- Node26 -->
<g id="Node000026" class="node">
<title>Node26</title>
<g id="a_Node000026"><a xlink:href="classPhysicsNonlinearSubequationsSolver.html" target="_top" xlink:title="Non&#45;linear subequations solved inside a physics (or auxiliary physics) that are not part of the main ...">
<polygon fill="white" stroke="#666666" points="383,-174 216,-174 216,-144 383,-144 383,-174"/>
<text text-anchor="start" x="224" y="-162" font-family="Helvetica,sans-Serif" font-size="10.00">PhysicsNonlinearSubequations</text>
<text text-anchor="middle" x="299.5" y="-151" font-family="Helvetica,sans-Serif" font-size="10.00">Solver&lt; dim, VectorType &gt;</text>
</a>
</g>
</g>
<!-- Node0&#45;&gt;Node26 -->
<g id="edge222_Node000000_Node000026" class="edge">
<title>Node0&#45;&gt;Node26</title>
<g id="a_edge222_Node000000_Node000026"><a xlink:title=" ">
<path fill="none" stroke="#63b8ff" d="M103.16,-270.84C124.66,-247.56 166.28,-206.19 210,-183 216.47,-179.57 223.47,-176.59 230.6,-174.03"/>
<polygon fill="#63b8ff" stroke="#63b8ff" points="100.55,-268.51 96.42,-278.27 105.73,-273.21 100.55,-268.51"/>
</a>
</g>
</g>
<!-- Node2 -->
<g id="Node000002" class="node">
<title>Node2</title>
<g id="a_Node000002"><a xlink:href="classCahnHilliard.html" target="_top" xlink:title=" ">
<polygon fill="white" stroke="#666666" points="584.5,-364.5 466.5,-364.5 466.5,-345.5 584.5,-345.5 584.5,-364.5"/>
<text text-anchor="middle" x="525.5" y="-352.5" font-family="Helvetica,sans-Serif" font-size="10.00">CahnHilliard&lt; dim &gt;</text>
</a>
</g>
</g>
<!-- Node1&#45;&gt;Node2 -->
<g id="edge201_Node000001_Node000002" class="edge">
<title>Node1&#45;&gt;Node2</title>
<g id="a_edge201_Node000001_Node000002"><a xlink:title=" ">
<path fill="none" stroke="#63b8ff" d="M374.76,-328.26C406.33,-333.9 442.42,-340.34 471.26,-345.49"/>
<polygon fill="#63b8ff" stroke="#63b8ff" points="375.15,-324.77 364.69,-326.46 373.92,-331.67 375.15,-324.77"/>
</a>
</g>
</g>
<!-- Node3 -->
<g id="Node000003" class="node">
<title>Node3</title>
<g id="a_Node000003"><a xlink:href="classConservativeLevelSet.html" target="_top" xlink:title=" ">
<polygon fill="white" stroke="#666666" points="587,-327 464,-327 464,-297 587,-297 587,-327"/>
<text text-anchor="start" x="472" y="-315" font-family="Helvetica,sans-Serif" font-size="10.00">ConservativeLevelSet</text>
<text text-anchor="middle" x="525.5" y="-304" font-family="Helvetica,sans-Serif" font-size="10.00">&lt; dim &gt;</text>
</a>
</g>
</g>
<!-- Node1&#45;&gt;Node3 -->
<g id="edge202_Node000001_Node000003" class="edge">
<title>Node1&#45;&gt;Node3</title>
<g id="a_edge202_Node000001_Node000003"><a xlink:title=" ">
<path fill="none" stroke="#63b8ff" d="M374.74,-314.01C403.63,-313.62 436.32,-313.18 463.77,-312.81"/>
<polygon fill="#63b8ff" stroke="#63b8ff" points="374.64,-310.51 364.69,-314.14 374.74,-317.51 374.64,-310.51"/>
</a>
</g>
</g>
<!-- Node4 -->
<g id="Node000004" class="node">
<title>Node4</title>
<g id="a_Node000004"><a xlink:href="classHeatTransfer.html" target="_top" xlink:title="Implementation of heat transfer as an auxiliary physics. The heat equation is weakly coupled to the v...">
<polygon fill="white" stroke="#666666" points="585.5,-278.5 465.5,-278.5 465.5,-259.5 585.5,-259.5 585.5,-278.5"/>
<text text-anchor="middle" x="525.5" y="-266.5" font-family="Helvetica,sans-Serif" font-size="10.00">HeatTransfer&lt; dim &gt;</text>
</a>
</g>
</g>
<!-- Node1&#45;&gt;Node4 -->
<g id="edge203_Node000001_Node000004" class="edge">
<title>Node1&#45;&gt;Node4</title>
<g id="a_edge203_Node000001_Node000004"><a xlink:title=" ">
<path fill="none" stroke="#63b8ff" d="M374.86,-298.56C391.36,-295 408.76,-291.31 425,-288 440.68,-284.8 457.79,-281.48 473.32,-278.52"/>
<polygon fill="#63b8ff" stroke="#63b8ff" points="373.77,-295.21 364.73,-300.75 375.25,-302.05 373.77,-295.21"/>
</a>
</g>
</g>
<!-- Node5 -->
<g id="Node000005" class="node">
<title>Node5</title>
<g id="a_Node000005"><a xlink:href="classTracer.html" target="_top" xlink:title=" ">
<polygon fill="white" stroke="#666666" points="569,-401.5 482,-401.5 482,-382.5 569,-382.5 569,-401.5"/>
<text text-anchor="middle" x="525.5" y="-389.5" font-family="Helvetica,sans-Serif" font-size="10.00">Tracer&lt; dim &gt;</text>
</a>
</g>
</g>
<!-- Node1&#45;&gt;Node5 -->
<g id="edge204_Node000001_Node000005" class="edge">
<title>Node1&#45;&gt;Node5</title>
<g id="a_edge204_Node000001_Node000005"><a xlink:title=" ">
<path fill="none" stroke="#63b8ff" d="M374.62,-332C379.61,-334.08 384.45,-336.41 389,-339 408.39,-350.05 405.16,-363.79 425,-374 442.33,-382.91 463.33,-387.48 481.57,-389.8"/>
<polygon fill="#63b8ff" stroke="#63b8ff" points="375.49,-328.59 364.9,-328.3 372.99,-335.13 375.49,-328.59"/>
</a>
</g>
</g>
<!-- Node7 -->
<g id="Node000007" class="node">
<title>Node7</title>
<g id="a_Node000007"><a xlink:href="classFluidDynamicsBlock.html" target="_top" xlink:title=" ">
<polygon fill="white" stroke="#666666" points="583.5,-241 467.5,-241 467.5,-211 583.5,-211 583.5,-241"/>
<text text-anchor="start" x="475.5" y="-229" font-family="Helvetica,sans-Serif" font-size="10.00">FluidDynamicsBlock</text>
<text text-anchor="middle" x="525.5" y="-218" font-family="Helvetica,sans-Serif" font-size="10.00">&lt; dim &gt;</text>
</a>
</g>
</g>
<!-- Node6&#45;&gt;Node7 -->
<g id="edge206_Node000006_Node000007" class="edge">
<title>Node6&#45;&gt;Node7</title>
<g id="a_edge206_Node000006_Node000007"><a xlink:title=" ">
<path fill="none" stroke="#63b8ff" d="M383.65,-248.01C411.45,-243.66 441.8,-238.92 467.18,-234.96"/>
<polygon fill="#63b8ff" stroke="#63b8ff" points="382.88,-244.59 373.54,-249.59 383.96,-251.5 382.88,-244.59"/>
</a>
</g>
</g>
<!-- Node9 -->
<g id="Node000009" class="node">
<title>Node9</title>
<g id="a_Node000009"><a xlink:href="classFluidDynamicsMatrixBased.html" target="_top" xlink:title="A solver class for the Navier&#45;Stokes equation using GLS stabilization.">
<polygon fill="white" stroke="#666666" points="601,-193 450,-193 450,-163 601,-163 601,-193"/>
<text text-anchor="start" x="458" y="-181" font-family="Helvetica,sans-Serif" font-size="10.00">FluidDynamicsMatrixBased</text>
<text text-anchor="middle" x="525.5" y="-170" font-family="Helvetica,sans-Serif" font-size="10.00">&lt; dim &gt;</text>
</a>
</g>
</g>
<!-- Node8&#45;&gt;Node9 -->
<g id="edge208_Node000008_Node000009" class="edge">
<title>Node8&#45;&gt;Node9</title>
<g id="a_edge208_Node000008_Node000009"><a xlink:title=" ">
<path fill="none" stroke="#63b8ff" d="M391.71,-195.19C411.07,-192.69 431.27,-190.07 449.92,-187.66"/>
<polygon fill="#63b8ff" stroke="#63b8ff" points="391.15,-191.73 381.69,-196.49 392.05,-198.68 391.15,-191.73"/>
</a>
</g>
</g>
<!-- Node10 -->
<g id="Node000010" class="node">
<title>Node10</title>
<g id="a_Node000010"><a xlink:href="classFluidDynamicsNitsche.html" target="_top" xlink:title=" ">
<polygon fill="white" stroke="#666666" points="809,-193 683,-193 683,-163 809,-163 809,-193"/>
<text text-anchor="start" x="691" y="-181" font-family="Helvetica,sans-Serif" font-size="10.00">FluidDynamicsNitsche</text>
<text text-anchor="middle" x="746" y="-170" font-family="Helvetica,sans-Serif" font-size="10.00">&lt; dim, spacedim &gt;</text>
</a>
</g>
</g>
<!-- Node9&#45;&gt;Node10 -->
<g id="edge209_Node000009_Node000010" class="edge">
<title>Node9&#45;&gt;Node10</title>
<g id="a_edge209_Node000009_Node000010"><a xlink:title=" ">
<path fill="none" stroke="#63b8ff" d="M611.18,-178C635.01,-178 660.48,-178 682.74,-178"/>
<polygon fill="#63b8ff" stroke="#63b8ff" points="611.08,-174.5 601.08,-178 611.08,-181.5 611.08,-174.5"/>
</a>
</g>
</g>
<!-- Node11 -->
<g id="Node000011" class="node">
<title>Node11</title>
<g id="a_Node000011"><a xlink:href="classFluidDynamicsSharp.html" target="_top" xlink:title=" ">
<polygon fill="white" stroke="#666666" points="804.5,-145 687.5,-145 687.5,-115 804.5,-115 804.5,-145"/>
<text text-anchor="start" x="695.5" y="-133" font-family="Helvetica,sans-Serif" font-size="10.00">FluidDynamicsSharp</text>
<text text-anchor="middle" x="746" y="-122" font-family="Helvetica,sans-Serif" font-size="10.00">&lt; dim &gt;</text>
</a>
</g>
</g>
<!-- Node9&#45;&gt;Node11 -->
<g id="edge210_Node000009_Node000011" class="edge">
<title>Node9&#45;&gt;Node11</title>
<g id="a_edge210_Node000009_Node000011"><a xlink:title=" ">
<path fill="none" stroke="#63b8ff" d="M604.92,-160.77C632.14,-154.79 662.13,-148.21 687.36,-142.66"/>
<polygon fill="#63b8ff" stroke="#63b8ff" points="604.05,-157.38 595.04,-162.94 605.55,-164.22 604.05,-157.38"/>
</a>
</g>
</g>
<!-- Node12 -->
<g id="Node000012" class="node">
<title>Node12</title>
<g id="a_Node000012"><a xlink:href="classFluidDynamicsVANS.html" target="_top" xlink:title="Solver class for Volume&#45;Averaged Navier&#45;Stokes (VANS) equations with GLS stabilization.">
<polygon fill="white" stroke="#666666" points="808,-241 684,-241 684,-211 808,-211 808,-241"/>
<text text-anchor="start" x="692" y="-229" font-family="Helvetica,sans-Serif" font-size="10.00">FluidDynamicsVANS&lt;</text>
<text text-anchor="middle" x="746" y="-218" font-family="Helvetica,sans-Serif" font-size="10.00"> dim &gt;</text>
</a>
</g>
</g>
<!-- Node9&#45;&gt;Node12 -->
<g id="edge211_Node000009_Node000012" class="edge">
<title>Node9&#45;&gt;Node12</title>
<g id="a_edge211_Node000009_Node000012"><a xlink:title=" ">
<path fill="none" stroke="#63b8ff" d="M604.84,-195.21C630.79,-200.91 659.27,-207.17 683.74,-212.54"/>
<polygon fill="#63b8ff" stroke="#63b8ff" points="605.55,-191.78 595.04,-193.06 604.05,-198.62 605.55,-191.78"/>
</a>
</g>
</g>
<!-- Node13 -->
<g id="Node000013" class="node">
<title>Node13</title>
<g id="a_Node000013"><a xlink:href="classCFDDEMSolver.html" target="_top" xlink:title="Solver class for coupled Computational Fluid Dynamics and Discrete Element Method (CFD&#45;DEM) simulatio...">
<polygon fill="white" stroke="#666666" points="1008,-235.5 877,-235.5 877,-216.5 1008,-216.5 1008,-235.5"/>
<text text-anchor="middle" x="942.5" y="-223.5" font-family="Helvetica,sans-Serif" font-size="10.00">CFDDEMSolver&lt; dim &gt;</text>
</a>
</g>
</g>
<!-- Node12&#45;&gt;Node13 -->
<g id="edge212_Node000012_Node000013" class="edge">
<title>Node12&#45;&gt;Node13</title>
<g id="a_edge212_Node000012_Node000013"><a xlink:title=" ">
<path fill="none" stroke="#63b8ff" d="M818.17,-226C837.3,-226 857.9,-226 876.67,-226"/>
<polygon fill="#63b8ff" stroke="#63b8ff" points="818.01,-222.5 808.01,-226 818.01,-229.5 818.01,-222.5"/>
</a>
</g>
</g>
<!-- Node15 -->
<g id="Node000015" class="node">
<title>Node15</title>
<g id="a_Node000015"><a xlink:href="classFluidDynamicsMatrixFree.html" target="_top" xlink:title="A solver for the incompressible Navier&#45;Stokes equations implemented in a matrix&#45;free fashion.">
<polygon fill="white" stroke="#666666" points="596.5,-498 454.5,-498 454.5,-468 596.5,-468 596.5,-498"/>
<text text-anchor="start" x="462.5" y="-486" font-family="Helvetica,sans-Serif" font-size="10.00">FluidDynamicsMatrixFree</text>
<text text-anchor="middle" x="525.5" y="-475" font-family="Helvetica,sans-Serif" font-size="10.00">&lt; dim &gt;</text>
</a>
</g>
</g>
<!-- Node14&#45;&gt;Node15 -->
<g id="edge214_Node000014_Node000015" class="edge">
<title>Node14&#45;&gt;Node15</title>
<g id="a_edge214_Node000014_Node000015"><a xlink:title=" ">
<path fill="none" stroke="#63b8ff" d="M394.34,-481.26C414.47,-481.53 435.39,-481.81 454.43,-482.06"/>
<polygon fill="#63b8ff" stroke="#63b8ff" points="394.27,-477.76 384.23,-481.12 394.18,-484.76 394.27,-477.76"/>
</a>
</g>
</g>
<!-- Node16 -->
<g id="Node000016" class="node">
<title>Node16</title>
<g id="a_Node000016"><a xlink:href="classFluidDynamicsVANSMatrixFree.html" target="_top" xlink:title="A solver for the Volume&#45;Averaged incompressible Navier&#45;Stokes equations implemented in a matrix&#45;free ...">
<polygon fill="white" stroke="#666666" points="830,-498 662,-498 662,-468 830,-468 830,-498"/>
<text text-anchor="start" x="670" y="-486" font-family="Helvetica,sans-Serif" font-size="10.00">FluidDynamicsVANSMatrixFree</text>
<text text-anchor="middle" x="746" y="-475" font-family="Helvetica,sans-Serif" font-size="10.00">&lt; dim &gt;</text>
</a>
</g>
</g>
<!-- Node15&#45;&gt;Node16 -->
<g id="edge215_Node000015_Node000016" class="edge">
<title>Node15&#45;&gt;Node16</title>
<g id="a_edge215_Node000015_Node000016"><a xlink:title=" ">
<path fill="none" stroke="#63b8ff" d="M606.64,-483C624.55,-483 643.59,-483 661.62,-483"/>
<polygon fill="#63b8ff" stroke="#63b8ff" points="606.54,-479.5 596.54,-483 606.54,-486.5 606.54,-479.5"/>
</a>
</g>
</g>
<!-- Node17 -->
<g id="Node000017" class="node">
<title>Node17</title>
<g id="a_Node000017"><a xlink:href="classCFDDEMMatrixFree.html" target="_top" xlink:title="Solver class for coupled Computational Fluid Dynamics and Discrete Element Method (CFD&#45;DEM) simulatio...">
<polygon fill="white" stroke="#666666" points="1019,-492.5 866,-492.5 866,-473.5 1019,-473.5 1019,-492.5"/>
<text text-anchor="middle" x="942.5" y="-480.5" font-family="Helvetica,sans-Serif" font-size="10.00">CFDDEMMatrixFree&lt; dim &gt;</text>
</a>
</g>
</g>
<!-- Node16&#45;&gt;Node17 -->
<g id="edge216_Node000016_Node000017" class="edge">
<title>Node16&#45;&gt;Node17</title>
<g id="a_edge216_Node000016_Node000017"><a xlink:title=" ">
<path fill="none" stroke="#63b8ff" d="M840.12,-483C848.73,-483 857.38,-483 865.81,-483"/>
<polygon fill="#63b8ff" stroke="#63b8ff" points="840.05,-479.5 830.05,-483 840.05,-486.5 840.05,-479.5"/>
</a>
</g>
</g>
<!-- Node19 -->
<g id="Node000019" class="node">
<title>Node19</title>
<g id="a_Node000019"><a xlink:href="classCLSPDEBasedInterfaceReinitialization.html" target="_top" xlink:title="CLS PDE&#45;based reinitialization solver.">
<polygon fill="white" stroke="#666666" points="626,-126 425,-126 425,-96 626,-96 626,-126"/>
<text text-anchor="start" x="433" y="-114" font-family="Helvetica,sans-Serif" font-size="10.00">CLSPDEBasedInterfaceReinitialization</text>
<text text-anchor="middle" x="525.5" y="-103" font-family="Helvetica,sans-Serif" font-size="10.00">&lt; dim &gt;</text>
</a>
</g>
</g>
<!-- Node18&#45;&gt;Node19 -->
<g id="edge218_Node000018_Node000019" class="edge">
<title>Node18&#45;&gt;Node19</title>
<g id="a_edge218_Node000018_Node000019"><a xlink:title=" ">
<path fill="none" stroke="#63b8ff" d="M399.29,-111C407.75,-111 416.31,-111 424.78,-111"/>
<polygon fill="#63b8ff" stroke="#63b8ff" points="399.03,-107.5 389.03,-111 399.03,-114.5 399.03,-107.5"/>
</a>
</g>
</g>
<!-- Node28 -->
<g id="Node000028" class="node">
<title>Node28</title>
<g id="a_Node000028"><a xlink:href="classTimeHarmonicMaxwell.html" target="_top" xlink:title=" ">
<polygon fill="white" stroke="#666666" points="590.5,-450 460.5,-450 460.5,-420 590.5,-420 590.5,-450"/>
<text text-anchor="start" x="468.5" y="-438" font-family="Helvetica,sans-Serif" font-size="10.00">TimeHarmonicMaxwell</text>
<text text-anchor="middle" x="525.5" y="-427" font-family="Helvetica,sans-Serif" font-size="10.00">&lt; dim &gt;</text>
</a>
</g>
</g>
<!-- Node27&#45;&gt;Node28 -->
<g id="edge220_Node000027_Node000028" class="edge">
<title>Node27&#45;&gt;Node28</title>
<g id="a_edge220_Node000027_Node000028"><a xlink:title=" ">
<path fill="none" stroke="#63b8ff" d="M374.72,-425.64C402.41,-427.37 433.59,-429.32 460.3,-430.99"/>
<polygon fill="#63b8ff" stroke="#63b8ff" points="374.89,-422.14 364.69,-425.01 374.45,-429.13 374.89,-422.14"/>
</a>
</g>
</g>
<!-- Node20 -->
<g id="Node000020" class="node">
<title>Node20</title>
<g id="a_Node000020"><a xlink:href="classPhysicsSubequationsSolverBase.html" target="_top" xlink:title="Base class to solve subequations solved inside a physics (or auxiliary physics) that are not part of ...">
<polygon fill="white" stroke="#666666" points="174,-120.5 0,-120.5 0,-101.5 174,-101.5 174,-120.5"/>
<text text-anchor="middle" x="87" y="-108.5" font-family="Helvetica,sans-Serif" font-size="10.00">PhysicsSubequationsSolverBase</text>
</a>
</g>
</g>
<!-- Node20&#45;&gt;Node18 -->
<g id="edge223_Node000020_Node000018" class="edge">
<title>Node20&#45;&gt;Node18</title>
<g id="a_edge223_Node000020_Node000018"><a xlink:title=" ">
<path fill="none" stroke="#63b8ff" d="M184.43,-111C192.85,-111 201.33,-111 209.68,-111"/>
<polygon fill="#63b8ff" stroke="#63b8ff" points="184.23,-107.5 174.23,-111 184.23,-114.5 184.23,-107.5"/>
</a>
</g>
</g>
<!-- Node20&#45;&gt;Node26 -->
<g id="edge229_Node000020_Node000026" class="edge">
<title>Node20&#45;&gt;Node26</title>
<g id="a_edge229_Node000020_Node000026"><a xlink:title=" ">
<path fill="none" stroke="#63b8ff" d="M139.83,-122.82C167.86,-129.21 202.77,-137.17 232.7,-144"/>
<polygon fill="#63b8ff" stroke="#63b8ff" points="140.37,-119.35 129.84,-120.54 138.81,-126.18 140.37,-119.35"/>
</a>
</g>
</g>
<!-- Node21 -->
<g id="Node000021" class="node">
<title>Node21</title>
<g id="a_Node000021"><a xlink:href="classPhysicsLinearSubequationsSolver.html" target="_top" xlink:title="Linear subequations solved inside a physics (or auxiliary physics) that are not part of the main set ...">
<polygon fill="white" stroke="#666666" points="374,-78 225,-78 225,-48 374,-48 374,-78"/>
<text text-anchor="start" x="233" y="-66" font-family="Helvetica,sans-Serif" font-size="10.00">PhysicsLinearSubequations</text>
<text text-anchor="middle" x="299.5" y="-55" font-family="Helvetica,sans-Serif" font-size="10.00">Solver</text>
</a>
</g>
</g>
<!-- Node20&#45;&gt;Node21 -->
<g id="edge224_Node000020_Node000021" class="edge">
<title>Node20&#45;&gt;Node21</title>
<g id="a_edge224_Node000020_Node000021"><a xlink:title=" ">
<path fill="none" stroke="#63b8ff" d="M139.83,-99.18C167.86,-92.79 202.77,-84.83 232.7,-78"/>
<polygon fill="#63b8ff" stroke="#63b8ff" points="138.81,-95.82 129.84,-101.46 140.37,-102.65 138.81,-95.82"/>
</a>
</g>
</g>
<!-- Node22 -->
<g id="Node000022" class="node">
<title>Node22</title>
<g id="a_Node000022"><a xlink:href="classCLSLinearSubequationsSolver.html" target="_top" xlink:title="Generalized solver for CLS linear subequations.">
<polygon fill="white" stroke="#666666" points="606,-78 445,-78 445,-48 606,-48 606,-78"/>
<text text-anchor="start" x="453" y="-66" font-family="Helvetica,sans-Serif" font-size="10.00">CLSLinearSubequationsSolver</text>
<text text-anchor="middle" x="525.5" y="-55" font-family="Helvetica,sans-Serif" font-size="10.00">&lt; dim &gt;</text>
</a>
</g>
</g>
<!-- Node21&#45;&gt;Node22 -->
<g id="edge225_Node000021_Node000022" class="edge">
<title>Node21&#45;&gt;Node22</title>
<g id="a_edge225_Node000021_Node000022"><a xlink:title=" ">
<path fill="none" stroke="#63b8ff" d="M384.35,-63C404.08,-63 425.07,-63 444.62,-63"/>
<polygon fill="#63b8ff" stroke="#63b8ff" points="384.16,-59.5 374.16,-63 384.16,-66.5 384.16,-59.5"/>
</a>
</g>
</g>
<!-- Node25 -->
<g id="Node000025" class="node">
<title>Node25</title>
<g id="a_Node000025"><a xlink:href="classParticleProjector.html" target="_top" xlink:title="Particle information projection. This class manages the calculation of the projection of the particle...">
<polygon fill="white" stroke="#666666" points="577.5,-30 473.5,-30 473.5,0 577.5,0 577.5,-30"/>
<text text-anchor="start" x="481.5" y="-18" font-family="Helvetica,sans-Serif" font-size="10.00">ParticleProjector&lt;</text>
<text text-anchor="middle" x="525.5" y="-7" font-family="Helvetica,sans-Serif" font-size="10.00"> dim &gt;</text>
</a>
</g>
</g>
<!-- Node21&#45;&gt;Node25 -->
<g id="edge228_Node000021_Node000025" class="edge">
<title>Node21&#45;&gt;Node25</title>
<g id="a_edge228_Node000021_Node000025"><a xlink:title=" ">
<path fill="none" stroke="#63b8ff" d="M380.65,-45.83C411.52,-39.21 445.91,-31.84 473.32,-25.97"/>
<polygon fill="#63b8ff" stroke="#63b8ff" points="379.81,-42.43 370.76,-47.94 381.27,-49.27 379.81,-42.43"/>
</a>
</g>
</g>
<!-- Node23 -->
<g id="Node000023" class="node">
<title>Node23</title>
<g id="a_Node000023"><a xlink:href="classCLSCurvatureProjection.html" target="_top" xlink:title="CLS curvature L2 projection solver.">
<polygon fill="white" stroke="#666666" points="811.5,-86 680.5,-86 680.5,-56 811.5,-56 811.5,-86"/>
<text text-anchor="start" x="688.5" y="-74" font-family="Helvetica,sans-Serif" font-size="10.00">CLSCurvatureProjection</text>
<text text-anchor="middle" x="746" y="-63" font-family="Helvetica,sans-Serif" font-size="10.00">&lt; dim &gt;</text>
</a>
</g>
</g>
<!-- Node22&#45;&gt;Node23 -->
<g id="edge226_Node000022_Node000023" class="edge">
<title>Node22&#45;&gt;Node23</title>
<g id="a_edge226_Node000022_Node000023"><a xlink:title=" ">
<path fill="none" stroke="#63b8ff" d="M616.12,-66.28C637.6,-67.07 660.14,-67.89 680.25,-68.63"/>
<polygon fill="#63b8ff" stroke="#63b8ff" points="616.12,-62.78 606,-65.91 615.87,-69.77 616.12,-62.78"/>
</a>
</g>
</g>
<!-- Node24 -->
<g id="Node000024" class="node">
<title>Node24</title>
<g id="a_Node000024"><a xlink:href="classCLSPhaseGradientProjection.html" target="_top" xlink:title="CLS phase indicator gradient L2 projection solver.">
<polygon fill="white" stroke="#666666" points="823.5,-38 668.5,-38 668.5,-8 823.5,-8 823.5,-38"/>
<text text-anchor="start" x="676.5" y="-26" font-family="Helvetica,sans-Serif" font-size="10.00">CLSPhaseGradientProjection</text>
<text text-anchor="middle" x="746" y="-15" font-family="Helvetica,sans-Serif" font-size="10.00">&lt; dim &gt;</text>
</a>
</g>
</g>
<!-- Node22&#45;&gt;Node24 -->
<g id="edge227_Node000022_Node000024" class="edge">
<title>Node22&#45;&gt;Node24</title>
<g id="a_edge227_Node000022_Node000024"><a xlink:title=" ">
<path fill="none" stroke="#63b8ff" d="M616.14,-46.59C633.51,-43.41 651.57,-40.1 668.48,-37.01"/>
<polygon fill="#63b8ff" stroke="#63b8ff" points="615.21,-43.2 606,-48.45 616.47,-50.09 615.21,-43.2"/>
</a>
</g>
</g>
</g>
</svg>
