<?xml version="1.0" encoding="UTF-8" standalone="no"?>
<!DOCTYPE svg PUBLIC "-//W3C//DTD SVG 1.1//EN"
 "http://www.w3.org/Graphics/SVG/1.1/DTD/svg11.dtd">
<!-- Generated by graphviz version 2.43.0 (0)
 -->
<!-- Title: /home/runner/work/lethe/lethe/source/dem/input_parameter_inspection.cc Pages: 1 -->
<svg width="858pt" height="544pt"
 viewBox="0.00 0.00 858.00 544.00" xmlns="http://www.w3.org/2000/svg" xmlns:xlink="http://www.w3.org/1999/xlink">
<g id="graph0" class="graph" transform="scale(1 1) rotate(0) translate(4 540)">
<title>/home/runner/work/lethe/lethe/source/dem/input_parameter_inspection.cc</title>
<!-- Node1 -->
<g id="Node000001" class="node">
<title>Node1</title>
<g id="a_Node000001"><a xlink:title=" ">
<polygon fill="#999999" stroke="#666666" points="386,-536 244,-536 244,-495 386,-495 386,-536"/>
<text text-anchor="start" x="252" y="-524" font-family="Helvetica,sans-Serif" font-size="10.00">/home/runner/work/lethe</text>
<text text-anchor="start" x="252" y="-513" font-family="Helvetica,sans-Serif" font-size="10.00">/lethe/source/dem/input</text>
<text text-anchor="middle" x="315" y="-502" font-family="Helvetica,sans-Serif" font-size="10.00">_parameter_inspection.cc</text>
</a>
</g>
</g>
<!-- Node2 -->
<g id="Node000002" class="node">
<title>Node2</title>
<g id="a_Node000002"><a xlink:href="input__parameter__inspection_8h.html" target="_top" xlink:title=" ">
<polygon fill="white" stroke="#666666" points="376,-459 254,-459 254,-429 376,-429 376,-459"/>
<text text-anchor="start" x="262" y="-447" font-family="Helvetica,sans-Serif" font-size="10.00">dem/input_parameter</text>
<text text-anchor="middle" x="315" y="-436" font-family="Helvetica,sans-Serif" font-size="10.00">_inspection.h</text>
</a>
</g>
</g>
<!-- Node1&#45;&gt;Node2 -->
<g id="edge1_Node000001_Node000002" class="edge">
<title>Node1&#45;&gt;Node2</title>
<g id="a_edge1_Node000001_Node000002"><a xlink:title=" ">
<path fill="none" stroke="#63b8ff" d="M315,-494.77C315,-486.85 315,-477.63 315,-469.3"/>
<polygon fill="#63b8ff" stroke="#63b8ff" points="318.5,-469.04 315,-459.04 311.5,-469.04 318.5,-469.04"/>
</a>
</g>
</g>
<!-- Node3 -->
<g id="Node000003" class="node">
<title>Node3</title>
<g id="a_Node000003"><a xlink:href="dem__solver__parameters_8h.html" target="_top" xlink:title=" ">
<polygon fill="white" stroke="#666666" points="320.5,-393 151.5,-393 151.5,-374 320.5,-374 320.5,-393"/>
<text text-anchor="middle" x="236" y="-381" font-family="Helvetica,sans-Serif" font-size="10.00">dem/dem_solver_parameters.h</text>
</a>
</g>
</g>
<!-- Node2&#45;&gt;Node3 -->
<g id="edge2_Node000002_Node000003" class="edge">
<title>Node2&#45;&gt;Node3</title>
<g id="a_edge2_Node000002_Node000003"><a xlink:title=" ">
<path fill="none" stroke="#63b8ff" d="M295.88,-428.84C283.82,-419.91 268.29,-408.41 256.06,-399.35"/>
<polygon fill="#63b8ff" stroke="#63b8ff" points="257.96,-396.4 247.84,-393.27 253.79,-402.03 257.96,-396.4"/>
</a>
</g>
</g>
<!-- Node45 -->
<g id="Node000045" class="node">
<title>Node45</title>
<g id="a_Node000045"><a xlink:href="distributions_8h.html" target="_top" xlink:title=" ">
<polygon fill="white" stroke="#666666" points="449.5,-393 338.5,-393 338.5,-374 449.5,-374 449.5,-393"/>
<text text-anchor="middle" x="394" y="-381" font-family="Helvetica,sans-Serif" font-size="10.00">dem/distributions.h</text>
</a>
</g>
</g>
<!-- Node2&#45;&gt;Node45 -->
<g id="edge32_Node000002_Node000045" class="edge">
<title>Node2&#45;&gt;Node45</title>
<g id="a_edge32_Node000002_Node000045"><a xlink:title=" ">
<path fill="none" stroke="#63b8ff" d="M334.12,-428.84C346.18,-419.91 361.71,-408.41 373.94,-399.35"/>
<polygon fill="#63b8ff" stroke="#63b8ff" points="376.21,-402.03 382.16,-393.27 372.04,-396.4 376.21,-402.03"/>
</a>
</g>
</g>
<!-- Node4 -->
<g id="Node000004" class="node">
<title>Node4</title>
<g id="a_Node000004"><a xlink:href="parameters_8h.html" target="_top" xlink:title=" ">
<polygon fill="white" stroke="#666666" points="289,-272 183,-272 183,-253 289,-253 289,-272"/>
<text text-anchor="middle" x="236" y="-260" font-family="Helvetica,sans-Serif" font-size="10.00">core/parameters.h</text>
</a>
</g>
</g>
<!-- Node3&#45;&gt;Node4 -->
<g id="edge3_Node000003_Node000004" class="edge">
<title>Node3&#45;&gt;Node4</title>
<g id="a_edge3_Node000003_Node000004"><a xlink:title=" ">
<path fill="none" stroke="#63b8ff" d="M236,-373.94C236,-354.91 236,-308.69 236,-282.47"/>
<polygon fill="#63b8ff" stroke="#63b8ff" points="239.5,-282.3 236,-272.3 232.5,-282.3 239.5,-282.3"/>
</a>
</g>
</g>
<!-- Node43 -->
<g id="Node000043" class="node">
<title>Node43</title>
<g id="a_Node000043"><a xlink:href="parameters__lagrangian_8h.html" target="_top" xlink:title="Parameter structures for Lagrangian (DEM) particle simulations.">
<polygon fill="white" stroke="#666666" points="451.5,-332.5 288.5,-332.5 288.5,-313.5 451.5,-313.5 451.5,-332.5"/>
<text text-anchor="middle" x="370" y="-320.5" font-family="Helvetica,sans-Serif" font-size="10.00">core/parameters_lagrangian.h</text>
</a>
</g>
</g>
<!-- Node3&#45;&gt;Node43 -->
<g id="edge24_Node000003_Node000043" class="edge">
<title>Node3&#45;&gt;Node43</title>
<g id="a_edge24_Node000003_Node000043"><a xlink:title=" ">
<path fill="none" stroke="#63b8ff" d="M255.48,-373.99C278.01,-364.16 315.31,-347.88 341.19,-336.58"/>
<polygon fill="#63b8ff" stroke="#63b8ff" points="342.73,-339.73 350.49,-332.52 339.93,-333.31 342.73,-339.73"/>
</a>
</g>
</g>
<!-- Node44 -->
<g id="Node000044" class="node">
<title>Node44</title>
<g id="a_Node000044"><a xlink:href="solid__objects__parameters_8h.html" target="_top" xlink:title="Parameter classes for solid objects used in Nitsche immersed boundary and DEM simulations.">
<polygon fill="white" stroke="#666666" points="149,-338 45,-338 45,-308 149,-308 149,-338"/>
<text text-anchor="start" x="53" y="-326" font-family="Helvetica,sans-Serif" font-size="10.00">core/solid_objects</text>
<text text-anchor="middle" x="97" y="-315" font-family="Helvetica,sans-Serif" font-size="10.00">_parameters.h</text>
</a>
</g>
</g>
<!-- Node3&#45;&gt;Node44 -->
<g id="edge28_Node000003_Node000044" class="edge">
<title>Node3&#45;&gt;Node44</title>
<g id="a_edge28_Node000003_Node000044"><a xlink:title=" ">
<path fill="none" stroke="#63b8ff" d="M215.79,-373.99C195.96,-365.65 165.1,-352.66 139.81,-342.02"/>
<polygon fill="#63b8ff" stroke="#63b8ff" points="140.99,-338.72 130.42,-338.06 138.28,-345.17 140.99,-338.72"/>
</a>
</g>
</g>
<!-- Node5 -->
<g id="Node000005" class="node">
<title>Node5</title>
<g id="a_Node000005"><a xlink:href="dimensionality_8h.html" target="_top" xlink:title=" ">
<polygon fill="white" stroke="#666666" points="225.5,-145.5 104.5,-145.5 104.5,-126.5 225.5,-126.5 225.5,-145.5"/>
<text text-anchor="middle" x="165" y="-133.5" font-family="Helvetica,sans-Serif" font-size="10.00">core/dimensionality.h</text>
</a>
</g>
</g>
<!-- Node4&#45;&gt;Node5 -->
<g id="edge4_Node000004_Node000005" class="edge">
<title>Node4&#45;&gt;Node5</title>
<g id="a_edge4_Node000004_Node000005"><a xlink:title=" ">
<path fill="none" stroke="#63b8ff" d="M208.71,-252.88C192,-246.03 171.96,-234.62 162,-217 151.34,-198.14 154.77,-172.59 159.09,-155.49"/>
<polygon fill="#63b8ff" stroke="#63b8ff" points="162.52,-156.2 161.91,-145.63 155.79,-154.28 162.52,-156.2"/>
</a>
</g>
</g>
<!-- Node6 -->
<g id="Node000006" class="node">
<title>Node6</title>
<g id="a_Node000006"><a xlink:title=" ">
<polygon fill="#e0e0e0" stroke="#999999" points="228.5,-30 101.5,-30 101.5,0 228.5,0 228.5,-30"/>
<text text-anchor="start" x="109.5" y="-18" font-family="Helvetica,sans-Serif" font-size="10.00">deal.II/base/parameter</text>
<text text-anchor="middle" x="165" y="-7" font-family="Helvetica,sans-Serif" font-size="10.00">_handler.h</text>
</a>
</g>
</g>
<!-- Node4&#45;&gt;Node6 -->
<g id="edge21_Node000004_Node000006" class="edge">
<title>Node4&#45;&gt;Node6</title>
<g id="a_edge21_Node000004_Node000006"><a xlink:title=" ">
<path fill="none" stroke="#63b8ff" d="M213.49,-252.94C178.93,-238.3 114.72,-204.72 95,-151 79.52,-108.82 115.56,-63.05 141.46,-37.11"/>
<polygon fill="#63b8ff" stroke="#63b8ff" points="144.03,-39.5 148.78,-30.03 139.16,-34.47 144.03,-39.5"/>
</a>
</g>
</g>
<!-- Node7 -->
<g id="Node000007" class="node">
<title>Node7</title>
<g id="a_Node000007"><a xlink:href="ib__particle_8h.html" target="_top" xlink:title=" ">
<polygon fill="white" stroke="#666666" points="669.5,-211.5 568.5,-211.5 568.5,-192.5 669.5,-192.5 669.5,-211.5"/>
<text text-anchor="middle" x="619" y="-199.5" font-family="Helvetica,sans-Serif" font-size="10.00">core/ib_particle.h</text>
</a>
</g>
</g>
<!-- Node4&#45;&gt;Node7 -->
<g id="edge6_Node000004_Node000007" class="edge">
<title>Node4&#45;&gt;Node7</title>
<g id="a_edge6_Node000004_Node000007"><a xlink:title=" ">
<path fill="none" stroke="#63b8ff" d="M289.08,-255.28C352.36,-247.58 461.24,-233.46 554,-217 559.75,-215.98 565.77,-214.82 571.72,-213.6"/>
<polygon fill="#63b8ff" stroke="#63b8ff" points="572.55,-217.01 581.63,-211.54 571.12,-210.15 572.55,-217.01"/>
</a>
</g>
</g>
<!-- Node15 -->
<g id="Node000015" class="node">
<title>Node15</title>
<g id="a_Node000015"><a xlink:href="utilities_8h.html" target="_top" xlink:title=" ">
<polygon fill="#fff0f0" stroke="red" points="632,-85 546,-85 546,-66 632,-66 632,-85"/>
<text text-anchor="middle" x="589" y="-73" font-family="Helvetica,sans-Serif" font-size="10.00">core/utilities.h</text>
</a>
</g>
</g>
<!-- Node4&#45;&gt;Node15 -->
<g id="edge20_Node000004_Node000015" class="edge">
<title>Node4&#45;&gt;Node15</title>
<g id="a_edge20_Node000004_Node000015"><a xlink:title=" ">
<path fill="none" stroke="#63b8ff" d="M289.11,-256.49C351.72,-249.81 451.27,-236.52 483,-217 495.9,-209.07 552.41,-129.14 577.23,-93.5"/>
<polygon fill="#63b8ff" stroke="#63b8ff" points="580.24,-95.3 583.07,-85.09 574.49,-91.3 580.24,-95.3"/>
</a>
</g>
</g>
<!-- Node40 -->
<g id="Node000040" class="node">
<title>Node40</title>
<g id="a_Node000040"><a xlink:title=" ">
<polygon fill="#e0e0e0" stroke="#999999" points="352.5,-151 243.5,-151 243.5,-121 352.5,-121 352.5,-151"/>
<text text-anchor="start" x="251.5" y="-139" font-family="Helvetica,sans-Serif" font-size="10.00">deal.II/base/parsed</text>
<text text-anchor="middle" x="298" y="-128" font-family="Helvetica,sans-Serif" font-size="10.00">_function.h</text>
</a>
</g>
</g>
<!-- Node4&#45;&gt;Node40 -->
<g id="edge22_Node000004_Node000040" class="edge">
<title>Node4&#45;&gt;Node40</title>
<g id="a_edge22_Node000004_Node000040"><a xlink:title=" ">
<path fill="none" stroke="#63b8ff" d="M213.88,-252.95C198.8,-245.82 179.99,-234.06 171,-217 164.78,-205.21 163.49,-198.02 171,-187 179.05,-175.17 207.77,-163.38 235.86,-154.22"/>
<polygon fill="#63b8ff" stroke="#63b8ff" points="237.26,-157.45 245.74,-151.09 235.15,-150.77 237.26,-157.45"/>
</a>
</g>
</g>
<!-- Node41 -->
<g id="Node000041" class="node">
<title>Node41</title>
<g id="a_Node000041"><a xlink:href="multiphysics_8h.html" target="_top" xlink:title="Identifiers for multiphysics modules and their solution fields.">
<polygon fill="white" stroke="#666666" points="292,-211.5 180,-211.5 180,-192.5 292,-192.5 292,-211.5"/>
<text text-anchor="middle" x="236" y="-199.5" font-family="Helvetica,sans-Serif" font-size="10.00">core/multiphysics.h</text>
</a>
</g>
</g>
<!-- Node4&#45;&gt;Node41 -->
<g id="edge19_Node000004_Node000041" class="edge">
<title>Node4&#45;&gt;Node41</title>
<g id="a_edge19_Node000004_Node000041"><a xlink:title=" ">
<path fill="none" stroke="#63b8ff" d="M236,-252.87C236,-244.75 236,-232.31 236,-221.89"/>
<polygon fill="#63b8ff" stroke="#63b8ff" points="239.5,-221.67 236,-211.67 232.5,-221.67 239.5,-221.67"/>
</a>
</g>
</g>
<!-- Node42 -->
<g id="Node000042" class="node">
<title>Node42</title>
<g id="a_Node000042"><a xlink:title=" ">
<polygon fill="#e0e0e0" stroke="#999999" points="473.5,-217 310.5,-217 310.5,-187 473.5,-187 473.5,-217"/>
<text text-anchor="start" x="318.5" y="-205" font-family="Helvetica,sans-Serif" font-size="10.00">deal.II/multigrid/mg</text>
<text text-anchor="middle" x="392" y="-194" font-family="Helvetica,sans-Serif" font-size="10.00">_transfer_global_coarsening.h</text>
</a>
</g>
</g>
<!-- Node4&#45;&gt;Node42 -->
<g id="edge23_Node000004_Node000042" class="edge">
<title>Node4&#45;&gt;Node42</title>
<g id="a_edge23_Node000004_Node000042"><a xlink:title=" ">
<path fill="none" stroke="#63b8ff" d="M258.68,-252.99C281.23,-244.54 316.49,-231.32 345.08,-220.59"/>
<polygon fill="#63b8ff" stroke="#63b8ff" points="346.36,-223.85 354.5,-217.06 343.9,-217.3 346.36,-223.85"/>
</a>
</g>
</g>
<!-- Node5&#45;&gt;Node6 -->
<g id="edge5_Node000005_Node000006" class="edge">
<title>Node5&#45;&gt;Node6</title>
<g id="a_edge5_Node000005_Node000006"><a xlink:title=" ">
<path fill="none" stroke="#63b8ff" d="M165,-126.44C165,-108.64 165,-67.07 165,-40.31"/>
<polygon fill="#63b8ff" stroke="#63b8ff" points="168.5,-40.2 165,-30.2 161.5,-40.2 168.5,-40.2"/>
</a>
</g>
</g>
<!-- Node8 -->
<g id="Node000008" class="node">
<title>Node8</title>
<g id="a_Node000008"><a xlink:href="dem__properties_8h.html" target="_top" xlink:title="DEM particle property definitions and output name management.">
<polygon fill="white" stroke="#666666" points="822,-85 696,-85 696,-66 822,-66 822,-85"/>
<text text-anchor="middle" x="759" y="-73" font-family="Helvetica,sans-Serif" font-size="10.00">core/dem_properties.h</text>
</a>
</g>
</g>
<!-- Node7&#45;&gt;Node8 -->
<g id="edge7_Node000007_Node000008" class="edge">
<title>Node7&#45;&gt;Node8</title>
<g id="a_edge7_Node000007_Node000008"><a xlink:title=" ">
<path fill="none" stroke="#63b8ff" d="M632.98,-192.4C647.78,-183.03 671.5,-167.18 690,-151 710.83,-132.79 732.05,-108.91 745.36,-93.15"/>
<polygon fill="#63b8ff" stroke="#63b8ff" points="748.17,-95.24 751.88,-85.32 742.79,-90.76 748.17,-95.24"/>
</a>
</g>
</g>
<!-- Node10 -->
<g id="Node000010" class="node">
<title>Node10</title>
<g id="a_Node000010"><a xlink:title=" ">
<polygon fill="#e0e0e0" stroke="#999999" points="691.5,-24.5 644.5,-24.5 644.5,-5.5 691.5,-5.5 691.5,-24.5"/>
<text text-anchor="middle" x="668" y="-12.5" font-family="Helvetica,sans-Serif" font-size="10.00">vector</text>
</a>
</g>
</g>
<!-- Node7&#45;&gt;Node10 -->
<g id="edge18_Node000007_Node000010" class="edge">
<title>Node7&#45;&gt;Node10</title>
<g id="a_edge18_Node000007_Node000010"><a xlink:title=" ">
<path fill="none" stroke="#63b8ff" d="M628.05,-192.4C637.15,-183.14 650.69,-167.5 657,-151 672.01,-111.78 671.43,-61.59 669.71,-34.81"/>
<polygon fill="#63b8ff" stroke="#63b8ff" points="673.18,-34.28 668.92,-24.58 666.2,-34.82 673.18,-34.28"/>
</a>
</g>
</g>
<!-- Node11 -->
<g id="Node000011" class="node">
<title>Node11</title>
<g id="a_Node000011"><a xlink:href="shape_8h.html" target="_top" xlink:title=" ">
<polygon fill="#fff0f0" stroke="red" points="647.5,-145.5 568.5,-145.5 568.5,-126.5 647.5,-126.5 647.5,-145.5"/>
<text text-anchor="middle" x="608" y="-133.5" font-family="Helvetica,sans-Serif" font-size="10.00">core/shape.h</text>
</a>
</g>
</g>
<!-- Node7&#45;&gt;Node11 -->
<g id="edge10_Node000007_Node000011" class="edge">
<title>Node7&#45;&gt;Node11</title>
<g id="a_edge10_Node000007_Node000011"><a xlink:title=" ">
<path fill="none" stroke="#63b8ff" d="M617.52,-192.37C615.92,-183.07 613.32,-167.98 611.25,-155.9"/>
<polygon fill="#63b8ff" stroke="#63b8ff" points="614.67,-155.17 609.53,-145.91 607.78,-156.35 614.67,-155.17"/>
</a>
</g>
</g>
<!-- Node13 -->
<g id="Node000013" class="node">
<title>Node13</title>
<g id="a_Node000013"><a xlink:title=" ">
<polygon fill="#e0e0e0" stroke="#999999" points="591,-24.5 481,-24.5 481,-5.5 591,-5.5 591,-24.5"/>
<text text-anchor="middle" x="536" y="-12.5" font-family="Helvetica,sans-Serif" font-size="10.00">deal.II/base/point.h</text>
</a>
</g>
</g>
<!-- Node7&#45;&gt;Node13 -->
<g id="edge17_Node000007_Node000013" class="edge">
<title>Node7&#45;&gt;Node13</title>
<g id="a_edge17_Node000007_Node000013"><a xlink:title=" ">
<path fill="none" stroke="#63b8ff" d="M605.21,-192.49C591.92,-183.63 572.08,-168.6 560,-151 542.42,-125.39 542.41,-115.59 537,-85 534.04,-68.23 534.06,-48.8 534.66,-34.84"/>
<polygon fill="#63b8ff" stroke="#63b8ff" points="538.17,-34.77 535.25,-24.58 531.18,-34.36 538.17,-34.77"/>
</a>
</g>
</g>
<!-- Node7&#45;&gt;Node40 -->
<g id="edge16_Node000007_Node000040" class="edge">
<title>Node7&#45;&gt;Node40</title>
<g id="a_edge16_Node000007_Node000040"><a xlink:title=" ">
<path fill="none" stroke="#63b8ff" d="M576.04,-192.44C521.23,-181.51 425.93,-162.51 362.41,-149.84"/>
<polygon fill="#63b8ff" stroke="#63b8ff" points="362.99,-146.39 352.5,-147.87 361.63,-153.25 362.99,-146.39"/>
</a>
</g>
</g>
<!-- Node9 -->
<g id="Node000009" class="node">
<title>Node9</title>
<g id="a_Node000009"><a xlink:title=" ">
<polygon fill="#e0e0e0" stroke="#999999" points="781,-24.5 737,-24.5 737,-5.5 781,-5.5 781,-24.5"/>
<text text-anchor="middle" x="759" y="-12.5" font-family="Helvetica,sans-Serif" font-size="10.00">string</text>
</a>
</g>
</g>
<!-- Node8&#45;&gt;Node9 -->
<g id="edge8_Node000008_Node000009" class="edge">
<title>Node8&#45;&gt;Node9</title>
<g id="a_edge8_Node000008_Node000009"><a xlink:title=" ">
<path fill="none" stroke="#63b8ff" d="M759,-65.87C759,-57.75 759,-45.31 759,-34.89"/>
<polygon fill="#63b8ff" stroke="#63b8ff" points="762.5,-34.67 759,-24.67 755.5,-34.67 762.5,-34.67"/>
</a>
</g>
</g>
<!-- Node8&#45;&gt;Node10 -->
<g id="edge9_Node000008_Node000010" class="edge">
<title>Node8&#45;&gt;Node10</title>
<g id="a_edge9_Node000008_Node000010"><a xlink:title=" ">
<path fill="none" stroke="#63b8ff" d="M745.57,-65.87C730.92,-56.45 707.24,-41.23 689.9,-30.08"/>
<polygon fill="#63b8ff" stroke="#63b8ff" points="691.79,-27.13 681.48,-24.67 688,-33.02 691.79,-27.13"/>
</a>
</g>
</g>
<!-- Node11&#45;&gt;Node15 -->
<g id="edge11_Node000011_Node000015" class="edge">
<title>Node11&#45;&gt;Node15</title>
<g id="a_edge11_Node000011_Node000015"><a xlink:title=" ">
<path fill="none" stroke="#63b8ff" d="M605.2,-126.37C602.5,-118.07 598.35,-105.28 594.92,-94.72"/>
<polygon fill="#63b8ff" stroke="#63b8ff" points="598.23,-93.6 591.82,-85.17 591.58,-95.76 598.23,-93.6"/>
</a>
</g>
</g>
<!-- Node15&#45;&gt;Node6 -->
<g id="edge12_Node000015_Node000006" class="edge">
<title>Node15&#45;&gt;Node6</title>
<g id="a_edge12_Node000015_Node000006"><a xlink:title=" ">
<path fill="none" stroke="#63b8ff" d="M545.62,-68.51C473.27,-58.53 327.19,-38.38 238.53,-26.15"/>
<polygon fill="#63b8ff" stroke="#63b8ff" points="238.93,-22.67 228.55,-24.77 237.97,-29.6 238.93,-22.67"/>
</a>
</g>
</g>
<!-- Node15&#45;&gt;Node9 -->
<g id="edge14_Node000015_Node000009" class="edge">
<title>Node15&#45;&gt;Node9</title>
<g id="a_edge14_Node000015_Node000009"><a xlink:title=" ">
<path fill="none" stroke="#63b8ff" d="M613.72,-65.99C643.76,-55.66 694.51,-38.19 727.37,-26.88"/>
<polygon fill="#63b8ff" stroke="#63b8ff" points="728.64,-30.15 736.96,-23.59 726.36,-23.53 728.64,-30.15"/>
</a>
</g>
</g>
<!-- Node15&#45;&gt;Node10 -->
<g id="edge15_Node000015_Node000010" class="edge">
<title>Node15&#45;&gt;Node10</title>
<g id="a_edge15_Node000015_Node000010"><a xlink:title=" ">
<path fill="none" stroke="#63b8ff" d="M600.66,-65.87C613.14,-56.62 633.18,-41.78 648.16,-30.69"/>
<polygon fill="#63b8ff" stroke="#63b8ff" points="650.34,-33.43 656.3,-24.67 646.18,-27.81 650.34,-33.43"/>
</a>
</g>
</g>
<!-- Node15&#45;&gt;Node13 -->
<g id="edge13_Node000015_Node000013" class="edge">
<title>Node15&#45;&gt;Node13</title>
<g id="a_edge13_Node000015_Node000013"><a xlink:title=" ">
<path fill="none" stroke="#63b8ff" d="M581.18,-65.87C573.19,-57.05 560.61,-43.16 550.74,-32.27"/>
<polygon fill="#63b8ff" stroke="#63b8ff" points="553.16,-29.73 543.85,-24.67 547.97,-34.43 553.16,-29.73"/>
</a>
</g>
</g>
<!-- Node43&#45;&gt;Node4 -->
<g id="edge25_Node000043_Node000004" class="edge">
<title>Node43&#45;&gt;Node4</title>
<g id="a_edge25_Node000043_Node000004"><a xlink:title=" ">
<path fill="none" stroke="#63b8ff" d="M350.52,-313.49C327.99,-303.66 290.69,-287.38 264.81,-276.08"/>
<polygon fill="#63b8ff" stroke="#63b8ff" points="266.07,-272.81 255.51,-272.02 263.27,-279.23 266.07,-272.81"/>
</a>
</g>
</g>
<!-- Node43&#45;&gt;Node6 -->
<g id="edge26_Node000043_Node000006" class="edge">
<title>Node43&#45;&gt;Node6</title>
<g id="a_edge26_Node000043_Node000006"><a xlink:title=" ">
<path fill="none" stroke="#63b8ff" d="M387.46,-313.45C426.38,-293.19 514.44,-239.96 483,-187 430.63,-98.79 315.27,-53.48 238.84,-32.27"/>
<polygon fill="#63b8ff" stroke="#63b8ff" points="239.36,-28.78 228.8,-29.55 237.54,-35.54 239.36,-28.78"/>
</a>
</g>
</g>
<!-- Node43&#45;&gt;Node9 -->
<g id="edge27_Node000043_Node000009" class="edge">
<title>Node43&#45;&gt;Node9</title>
<g id="a_edge27_Node000043_Node000009"><a xlink:title=" ">
<path fill="none" stroke="#63b8ff" d="M413.87,-313.46C532.36,-290.08 850,-225.35 850,-203 850,-203 850,-203 850,-135 850,-103.19 849.38,-91.96 831,-66 819.86,-50.26 802.11,-37.86 787.02,-29.34"/>
<polygon fill="#63b8ff" stroke="#63b8ff" points="788.52,-26.17 778.05,-24.54 785.22,-32.34 788.52,-26.17"/>
</a>
</g>
</g>
<!-- Node44&#45;&gt;Node4 -->
<g id="edge29_Node000044_Node000004" class="edge">
<title>Node44&#45;&gt;Node4</title>
<g id="a_edge29_Node000044_Node000004"><a xlink:title=" ">
<path fill="none" stroke="#63b8ff" d="M130.29,-307.99C153.38,-298.27 183.87,-285.44 206.16,-276.06"/>
<polygon fill="#63b8ff" stroke="#63b8ff" points="207.61,-279.24 215.47,-272.14 204.9,-272.79 207.61,-279.24"/>
</a>
</g>
</g>
<!-- Node44&#45;&gt;Node6 -->
<g id="edge30_Node000044_Node000006" class="edge">
<title>Node44&#45;&gt;Node6</title>
<g id="a_edge30_Node000044_Node000006"><a xlink:title=" ">
<path fill="none" stroke="#63b8ff" d="M74.01,-307.81C45.33,-288.13 0,-249.64 0,-203 0,-203 0,-203 0,-135 0,-82.46 55.71,-50.8 102.39,-33.49"/>
<polygon fill="#63b8ff" stroke="#63b8ff" points="103.63,-36.77 111.88,-30.12 101.29,-30.17 103.63,-36.77"/>
</a>
</g>
</g>
<!-- Node44&#45;&gt;Node40 -->
<g id="edge31_Node000044_Node000040" class="edge">
<title>Node44&#45;&gt;Node40</title>
<g id="a_edge31_Node000044_Node000040"><a xlink:title=" ">
<path fill="none" stroke="#63b8ff" d="M100.12,-307.63C106.76,-280.34 124.83,-220.75 162,-187 173.81,-176.28 207.27,-163.92 238.05,-154.16"/>
<polygon fill="#63b8ff" stroke="#63b8ff" points="239.41,-157.41 247.92,-151.1 237.33,-150.72 239.41,-157.41"/>
</a>
</g>
</g>
<!-- Node45&#45;&gt;Node43 -->
<g id="edge33_Node000045_Node000043" class="edge">
<title>Node45&#45;&gt;Node43</title>
<g id="a_edge33_Node000045_Node000043"><a xlink:title=" ">
<path fill="none" stroke="#63b8ff" d="M390.46,-373.87C387.06,-365.57 381.81,-352.78 377.48,-342.22"/>
<polygon fill="#63b8ff" stroke="#63b8ff" points="380.59,-340.59 373.56,-332.67 374.11,-343.25 380.59,-340.59"/>
</a>
</g>
</g>
<!-- Node46 -->
<g id="Node000046" class="node">
<title>Node46</title>
<g id="a_Node000046"><a xlink:title=" ">
<polygon fill="#e0e0e0" stroke="#999999" points="524,-332.5 470,-332.5 470,-313.5 524,-313.5 524,-332.5"/>
<text text-anchor="middle" x="497" y="-320.5" font-family="Helvetica,sans-Serif" font-size="10.00">random</text>
</a>
</g>
</g>
<!-- Node45&#45;&gt;Node46 -->
<g id="edge34_Node000045_Node000046" class="edge">
<title>Node45&#45;&gt;Node46</title>
<g id="a_edge34_Node000045_Node000046"><a xlink:title=" ">
<path fill="none" stroke="#63b8ff" d="M409.2,-373.87C426.01,-364.32 453.32,-348.81 473.02,-337.62"/>
<polygon fill="#63b8ff" stroke="#63b8ff" points="474.77,-340.65 481.74,-332.67 471.32,-334.56 474.77,-340.65"/>
</a>
</g>
</g>
</g>
</svg>
