<?xml version="1.0" encoding="UTF-8" standalone="no"?>
<!DOCTYPE svg PUBLIC "-//W3C//DTD SVG 1.1//EN"
 "http://www.w3.org/Graphics/SVG/1.1/DTD/svg11.dtd">
<!-- Generated by graphviz version 2.43.0 (0)
 -->
<!-- Title: /home/runner/work/lethe/lethe/include/dem/input_parameter_inspection.h Pages: 1 -->
<svg width="2176pt" height="489pt"
 viewBox="0.00 0.00 2175.52 489.00" xmlns="http://www.w3.org/2000/svg" xmlns:xlink="http://www.w3.org/1999/xlink">
<g id="graph0" class="graph" transform="scale(1 1) rotate(0) translate(4 485)">
<title>/home/runner/work/lethe/lethe/include/dem/input_parameter_inspection.h</title>
<!-- Node1 -->
<g id="Node000001" class="node">
<title>Node1</title>
<g id="a_Node000001"><a xlink:title=" ">
<polygon fill="#999999" stroke="#666666" points="501.5,-481 364.5,-481 364.5,-440 501.5,-440 501.5,-481"/>
<text text-anchor="start" x="372.5" y="-469" font-family="Helvetica,sans-Serif" font-size="10.00">/home/runner/work/lethe</text>
<text text-anchor="start" x="372.5" y="-458" font-family="Helvetica,sans-Serif" font-size="10.00">/lethe/include/dem/input</text>
<text text-anchor="middle" x="433" y="-447" font-family="Helvetica,sans-Serif" font-size="10.00">_parameter_inspection.h</text>
</a>
</g>
</g>
<!-- Node2 -->
<g id="Node000002" class="node">
<title>Node2</title>
<g id="a_Node000002"><a xlink:href="dem__solver__parameters_8h.html" target="_top" xlink:title=" ">
<polygon fill="white" stroke="#666666" points="438.5,-404 269.5,-404 269.5,-385 438.5,-385 438.5,-404"/>
<text text-anchor="middle" x="354" y="-392" font-family="Helvetica,sans-Serif" font-size="10.00">dem/dem_solver_parameters.h</text>
</a>
</g>
</g>
<!-- Node1&#45;&gt;Node2 -->
<g id="edge1_Node000001_Node000002" class="edge">
<title>Node1&#45;&gt;Node2</title>
<g id="a_edge1_Node000001_Node000002"><a xlink:title=" ">
<path fill="none" stroke="#63b8ff" d="M408.87,-439.95C397.27,-430.55 383.57,-419.46 372.77,-410.7"/>
<polygon fill="#63b8ff" stroke="#63b8ff" points="374.79,-407.84 364.81,-404.26 370.38,-413.27 374.79,-407.84"/>
</a>
</g>
</g>
<!-- Node43 -->
<g id="Node000043" class="node">
<title>Node43</title>
<g id="a_Node000043"><a xlink:href="distributions_8h.html" target="_top" xlink:title=" ">
<polygon fill="white" stroke="#666666" points="621.5,-404 510.5,-404 510.5,-385 621.5,-385 621.5,-404"/>
<text text-anchor="middle" x="566" y="-392" font-family="Helvetica,sans-Serif" font-size="10.00">dem/distributions.h</text>
</a>
</g>
</g>
<!-- Node1&#45;&gt;Node43 -->
<g id="edge48_Node000001_Node000043" class="edge">
<title>Node1&#45;&gt;Node43</title>
<g id="a_edge48_Node000001_Node000043"><a xlink:title=" ">
<path fill="none" stroke="#63b8ff" d="M473.63,-439.95C494.83,-429.75 520.2,-417.54 538.98,-408.5"/>
<polygon fill="#63b8ff" stroke="#63b8ff" points="540.65,-411.58 548.15,-404.09 537.62,-405.27 540.65,-411.58"/>
</a>
</g>
</g>
<!-- Node3 -->
<g id="Node000003" class="node">
<title>Node3</title>
<g id="a_Node000003"><a xlink:href="parameters_8h.html" target="_top" xlink:title=" ">
<polygon fill="white" stroke="#666666" points="366,-283 260,-283 260,-264 366,-264 366,-283"/>
<text text-anchor="middle" x="313" y="-271" font-family="Helvetica,sans-Serif" font-size="10.00">core/parameters.h</text>
</a>
</g>
</g>
<!-- Node2&#45;&gt;Node3 -->
<g id="edge2_Node000002_Node000003" class="edge">
<title>Node2&#45;&gt;Node3</title>
<g id="a_edge2_Node000002_Node000003"><a xlink:title=" ">
<path fill="none" stroke="#63b8ff" d="M351.05,-384.94C344.43,-365.74 328.28,-318.86 319.3,-292.77"/>
<polygon fill="#63b8ff" stroke="#63b8ff" points="322.6,-291.62 316.03,-283.3 315.98,-293.9 322.6,-291.62"/>
</a>
</g>
</g>
<!-- Node40 -->
<g id="Node000040" class="node">
<title>Node40</title>
<g id="a_Node000040"><a xlink:href="parameters__lagrangian_8h.html" target="_top" xlink:title="Parameter structures for Lagrangian (DEM) particle simulations.">
<polygon fill="white" stroke="#666666" points="647.5,-343.5 484.5,-343.5 484.5,-324.5 647.5,-324.5 647.5,-343.5"/>
<text text-anchor="middle" x="566" y="-331.5" font-family="Helvetica,sans-Serif" font-size="10.00">core/parameters_lagrangian.h</text>
</a>
</g>
</g>
<!-- Node2&#45;&gt;Node40 -->
<g id="edge38_Node000002_Node000040" class="edge">
<title>Node2&#45;&gt;Node40</title>
<g id="a_edge38_Node000002_Node000040"><a xlink:title=" ">
<path fill="none" stroke="#63b8ff" d="M384.83,-384.99C421.96,-374.75 484.45,-357.5 525.46,-346.19"/>
<polygon fill="#63b8ff" stroke="#63b8ff" points="526.43,-349.55 535.14,-343.52 524.57,-342.8 526.43,-349.55"/>
</a>
</g>
</g>
<!-- Node42 -->
<g id="Node000042" class="node">
<title>Node42</title>
<g id="a_Node000042"><a xlink:href="solid__objects__parameters_8h.html" target="_top" xlink:title="Parameter classes for solid objects used in Nitsche immersed boundary and DEM simulations.">
<polygon fill="white" stroke="#666666" points="213,-349 109,-349 109,-319 213,-319 213,-349"/>
<text text-anchor="start" x="117" y="-337" font-family="Helvetica,sans-Serif" font-size="10.00">core/solid_objects</text>
<text text-anchor="middle" x="161" y="-326" font-family="Helvetica,sans-Serif" font-size="10.00">_parameters.h</text>
</a>
</g>
</g>
<!-- Node2&#45;&gt;Node42 -->
<g id="edge44_Node000002_Node000042" class="edge">
<title>Node2&#45;&gt;Node42</title>
<g id="a_edge44_Node000002_Node000042"><a xlink:title=" ">
<path fill="none" stroke="#63b8ff" d="M325.94,-384.99C297.55,-376.39 252.9,-362.86 217.21,-352.04"/>
<polygon fill="#63b8ff" stroke="#63b8ff" points="217.99,-348.62 207.4,-349.06 215.95,-355.31 217.99,-348.62"/>
</a>
</g>
</g>
<!-- Node4 -->
<g id="Node000004" class="node">
<title>Node4</title>
<g id="a_Node000004"><a xlink:href="dimensionality_8h.html" target="_top" xlink:title=" ">
<polygon fill="white" stroke="#666666" points="149.5,-156.5 28.5,-156.5 28.5,-137.5 149.5,-137.5 149.5,-156.5"/>
<text text-anchor="middle" x="89" y="-144.5" font-family="Helvetica,sans-Serif" font-size="10.00">core/dimensionality.h</text>
</a>
</g>
</g>
<!-- Node3&#45;&gt;Node4 -->
<g id="edge3_Node000003_Node000004" class="edge">
<title>Node3&#45;&gt;Node4</title>
<g id="a_edge3_Node000003_Node000004"><a xlink:title=" ">
<path fill="none" stroke="#63b8ff" d="M260.89,-263.96C230.93,-257.39 193.5,-246.25 164,-228 137.53,-211.63 114.28,-183.54 100.93,-165.37"/>
<polygon fill="#63b8ff" stroke="#63b8ff" points="103.54,-163.01 94.89,-156.89 97.84,-167.07 103.54,-163.01"/>
</a>
</g>
</g>
<!-- Node5 -->
<g id="Node000005" class="node">
<title>Node5</title>
<g id="a_Node000005"><a xlink:title=" ">
<polygon fill="#e0e0e0" stroke="#999999" points="241.5,-30 114.5,-30 114.5,0 241.5,0 241.5,-30"/>
<text text-anchor="start" x="122.5" y="-18" font-family="Helvetica,sans-Serif" font-size="10.00">deal.II/base/parameter</text>
<text text-anchor="middle" x="178" y="-7" font-family="Helvetica,sans-Serif" font-size="10.00">_handler.h</text>
</a>
</g>
</g>
<!-- Node3&#45;&gt;Node5 -->
<g id="edge35_Node000003_Node000005" class="edge">
<title>Node3&#45;&gt;Node5</title>
<g id="a_edge35_Node000003_Node000005"><a xlink:title=" ">
<path fill="none" stroke="#63b8ff" d="M286.02,-263.88C267.41,-256.77 243.21,-245.06 227,-228 177.45,-175.86 174.5,-83.99 176.24,-40.34"/>
<polygon fill="#63b8ff" stroke="#63b8ff" points="179.75,-40.27 176.78,-30.1 172.76,-39.9 179.75,-40.27"/>
</a>
</g>
</g>
<!-- Node6 -->
<g id="Node000006" class="node">
<title>Node6</title>
<g id="a_Node000006"><a xlink:href="ib__particle_8h.html" target="_top" xlink:title=" ">
<polygon fill="white" stroke="#666666" points="948.5,-222.5 847.5,-222.5 847.5,-203.5 948.5,-203.5 948.5,-222.5"/>
<text text-anchor="middle" x="898" y="-210.5" font-family="Helvetica,sans-Serif" font-size="10.00">core/ib_particle.h</text>
</a>
</g>
</g>
<!-- Node3&#45;&gt;Node6 -->
<g id="edge5_Node000003_Node000006" class="edge">
<title>Node3&#45;&gt;Node6</title>
<g id="a_edge5_Node000003_Node000006"><a xlink:title=" ">
<path fill="none" stroke="#63b8ff" d="M366.21,-267.18C475.02,-256.3 722.41,-231.56 837.29,-220.07"/>
<polygon fill="#63b8ff" stroke="#63b8ff" points="837.72,-223.55 847.32,-219.07 837.02,-216.58 837.72,-223.55"/>
</a>
</g>
</g>
<!-- Node14 -->
<g id="Node000014" class="node">
<title>Node14</title>
<g id="a_Node000014"><a xlink:href="core_2utilities_8h.html" target="_top" xlink:title=" ">
<polygon fill="#fff0f0" stroke="red" points="1912,-90.5 1826,-90.5 1826,-71.5 1912,-71.5 1912,-90.5"/>
<text text-anchor="middle" x="1869" y="-78.5" font-family="Helvetica,sans-Serif" font-size="10.00">core/utilities.h</text>
</a>
</g>
</g>
<!-- Node3&#45;&gt;Node14 -->
<g id="edge34_Node000003_Node000014" class="edge">
<title>Node3&#45;&gt;Node14</title>
<g id="a_edge34_Node000003_Node000014"><a xlink:title=" ">
<path fill="none" stroke="#63b8ff" d="M366.15,-270.37C476.51,-265.61 738.43,-252.54 957,-228 1335.61,-185.5 1429.4,-165.47 1804,-96 1809.53,-94.97 1815.32,-93.83 1821.05,-92.65"/>
<polygon fill="#63b8ff" stroke="#63b8ff" points="1822.2,-95.99 1831.27,-90.51 1820.76,-89.14 1822.2,-95.99"/>
</a>
</g>
</g>
<!-- Node37 -->
<g id="Node000037" class="node">
<title>Node37</title>
<g id="a_Node000037"><a xlink:title=" ">
<polygon fill="#e0e0e0" stroke="#999999" points="315.5,-162 206.5,-162 206.5,-132 315.5,-132 315.5,-162"/>
<text text-anchor="start" x="214.5" y="-150" font-family="Helvetica,sans-Serif" font-size="10.00">deal.II/base/parsed</text>
<text text-anchor="middle" x="261" y="-139" font-family="Helvetica,sans-Serif" font-size="10.00">_function.h</text>
</a>
</g>
</g>
<!-- Node3&#45;&gt;Node37 -->
<g id="edge36_Node000003_Node000037" class="edge">
<title>Node3&#45;&gt;Node37</title>
<g id="a_edge36_Node000003_Node000037"><a xlink:title=" ">
<path fill="none" stroke="#63b8ff" d="M283.5,-263.97C266.06,-257.24 245.41,-245.93 235,-228 224.54,-209.99 233.8,-187.22 244.06,-170.59"/>
<polygon fill="#63b8ff" stroke="#63b8ff" points="247.11,-172.31 249.74,-162.04 241.29,-168.43 247.11,-172.31"/>
</a>
</g>
</g>
<!-- Node38 -->
<g id="Node000038" class="node">
<title>Node38</title>
<g id="a_Node000038"><a xlink:href="multiphysics_8h.html" target="_top" xlink:title="Identifiers for multiphysics modules and their solution fields.">
<polygon fill="white" stroke="#666666" points="356,-222.5 244,-222.5 244,-203.5 356,-203.5 356,-222.5"/>
<text text-anchor="middle" x="300" y="-210.5" font-family="Helvetica,sans-Serif" font-size="10.00">core/multiphysics.h</text>
</a>
</g>
</g>
<!-- Node3&#45;&gt;Node38 -->
<g id="edge33_Node000003_Node000038" class="edge">
<title>Node3&#45;&gt;Node38</title>
<g id="a_edge33_Node000003_Node000038"><a xlink:title=" ">
<path fill="none" stroke="#63b8ff" d="M311.08,-263.87C309.26,-255.66 306.45,-243.04 304.12,-232.55"/>
<polygon fill="#63b8ff" stroke="#63b8ff" points="307.51,-231.67 301.93,-222.67 300.68,-233.19 307.51,-231.67"/>
</a>
</g>
</g>
<!-- Node39 -->
<g id="Node000039" class="node">
<title>Node39</title>
<g id="a_Node000039"><a xlink:title=" ">
<polygon fill="#e0e0e0" stroke="#999999" points="537.5,-228 374.5,-228 374.5,-198 537.5,-198 537.5,-228"/>
<text text-anchor="start" x="382.5" y="-216" font-family="Helvetica,sans-Serif" font-size="10.00">deal.II/multigrid/mg</text>
<text text-anchor="middle" x="456" y="-205" font-family="Helvetica,sans-Serif" font-size="10.00">_transfer_global_coarsening.h</text>
</a>
</g>
</g>
<!-- Node3&#45;&gt;Node39 -->
<g id="edge37_Node000003_Node000039" class="edge">
<title>Node3&#45;&gt;Node39</title>
<g id="a_edge37_Node000003_Node000039"><a xlink:title=" ">
<path fill="none" stroke="#63b8ff" d="M333.79,-263.99C354.28,-255.61 386.22,-242.55 412.31,-231.87"/>
<polygon fill="#63b8ff" stroke="#63b8ff" points="413.69,-235.09 421.62,-228.06 411.04,-228.61 413.69,-235.09"/>
</a>
</g>
</g>
<!-- Node4&#45;&gt;Node5 -->
<g id="edge4_Node000004_Node000005" class="edge">
<title>Node4&#45;&gt;Node5</title>
<g id="a_edge4_Node000004_Node000005"><a xlink:title=" ">
<path fill="none" stroke="#63b8ff" d="M94.84,-137.47C108.44,-117.61 142.58,-67.74 162.64,-38.44"/>
<polygon fill="#63b8ff" stroke="#63b8ff" points="165.61,-40.3 168.37,-30.07 159.83,-36.34 165.61,-40.3"/>
</a>
</g>
</g>
<!-- Node7 -->
<g id="Node000007" class="node">
<title>Node7</title>
<g id="a_Node000007"><a xlink:href="dem__properties_8h.html" target="_top" xlink:title="DEM particle property definitions and output name management.">
<polygon fill="white" stroke="#666666" points="2094,-90.5 1968,-90.5 1968,-71.5 2094,-71.5 2094,-90.5"/>
<text text-anchor="middle" x="2031" y="-78.5" font-family="Helvetica,sans-Serif" font-size="10.00">core/dem_properties.h</text>
</a>
</g>
</g>
<!-- Node6&#45;&gt;Node7 -->
<g id="edge6_Node000006_Node000007" class="edge">
<title>Node6&#45;&gt;Node7</title>
<g id="a_edge6_Node000006_Node000007"><a xlink:title=" ">
<path fill="none" stroke="#63b8ff" d="M948.65,-211.79C1146.64,-210.67 1861.97,-203.75 1954,-162 1983.57,-148.59 2007.56,-118.19 2020.52,-98.97"/>
<polygon fill="#63b8ff" stroke="#63b8ff" points="2023.47,-100.85 2025.96,-90.55 2017.59,-97.04 2023.47,-100.85"/>
</a>
</g>
</g>
<!-- Node9 -->
<g id="Node000009" class="node">
<title>Node9</title>
<g id="a_Node000009"><a xlink:title=" ">
<polygon fill="#e0e0e0" stroke="#999999" points="1963.5,-24.5 1916.5,-24.5 1916.5,-5.5 1963.5,-5.5 1963.5,-24.5"/>
<text text-anchor="middle" x="1940" y="-12.5" font-family="Helvetica,sans-Serif" font-size="10.00">vector</text>
</a>
</g>
</g>
<!-- Node6&#45;&gt;Node9 -->
<g id="edge32_Node000006_Node000009" class="edge">
<title>Node6&#45;&gt;Node9</title>
<g id="a_edge32_Node000006_Node000009"><a xlink:title=" ">
<path fill="none" stroke="#63b8ff" d="M948.64,-209.63C1144.8,-200.01 1847.43,-161.21 1921,-96 1938.16,-80.79 1941.27,-53.16 1941.2,-34.69"/>
<polygon fill="#63b8ff" stroke="#63b8ff" points="1944.69,-34.44 1940.84,-24.57 1937.7,-34.69 1944.69,-34.44"/>
</a>
</g>
</g>
<!-- Node10 -->
<g id="Node000010" class="node">
<title>Node10</title>
<g id="a_Node000010"><a xlink:href="shape_8h.html" target="_top" xlink:title=" ">
<polygon fill="white" stroke="#666666" points="1155.5,-156.5 1076.5,-156.5 1076.5,-137.5 1155.5,-137.5 1155.5,-156.5"/>
<text text-anchor="middle" x="1116" y="-144.5" font-family="Helvetica,sans-Serif" font-size="10.00">core/shape.h</text>
</a>
</g>
</g>
<!-- Node6&#45;&gt;Node10 -->
<g id="edge9_Node000006_Node000010" class="edge">
<title>Node6&#45;&gt;Node10</title>
<g id="a_edge9_Node000006_Node000010"><a xlink:title=" ">
<path fill="none" stroke="#63b8ff" d="M927.4,-203.37C966.03,-192.03 1033.98,-172.08 1076.9,-159.48"/>
<polygon fill="#63b8ff" stroke="#63b8ff" points="1078.11,-162.77 1086.72,-156.6 1076.14,-156.06 1078.11,-162.77"/>
</a>
</g>
</g>
<!-- Node12 -->
<g id="Node000012" class="node">
<title>Node12</title>
<g id="a_Node000012"><a xlink:title=" ">
<polygon fill="#e0e0e0" stroke="#999999" points="1021,-24.5 911,-24.5 911,-5.5 1021,-5.5 1021,-24.5"/>
<text text-anchor="middle" x="966" y="-12.5" font-family="Helvetica,sans-Serif" font-size="10.00">deal.II/base/point.h</text>
</a>
</g>
</g>
<!-- Node6&#45;&gt;Node12 -->
<g id="edge31_Node000006_Node000012" class="edge">
<title>Node6&#45;&gt;Node12</title>
<g id="a_edge31_Node000006_Node000012"><a xlink:title=" ">
<path fill="none" stroke="#63b8ff" d="M847.29,-206.31C704.99,-189.83 309.95,-140.44 273,-96 264.48,-85.75 263.92,-75.76 273,-66 315.19,-20.66 735.66,-15.89 900.34,-15.77"/>
<polygon fill="#63b8ff" stroke="#63b8ff" points="900.81,-19.27 910.81,-15.77 900.81,-12.27 900.81,-19.27"/>
</a>
</g>
</g>
<!-- Node6&#45;&gt;Node37 -->
<g id="edge30_Node000006_Node000037" class="edge">
<title>Node6&#45;&gt;Node37</title>
<g id="a_edge30_Node000006_Node000037"><a xlink:title=" ">
<path fill="none" stroke="#63b8ff" d="M847.14,-207.82C752.65,-199.91 543.65,-181.77 368,-162 354.29,-160.46 339.62,-158.64 325.67,-156.84"/>
<polygon fill="#63b8ff" stroke="#63b8ff" points="326.03,-153.36 315.66,-155.54 325.13,-160.3 326.03,-153.36"/>
</a>
</g>
</g>
<!-- Node8 -->
<g id="Node000008" class="node">
<title>Node8</title>
<g id="a_Node000008"><a xlink:title=" ">
<polygon fill="#e0e0e0" stroke="#999999" points="2053,-24.5 2009,-24.5 2009,-5.5 2053,-5.5 2053,-24.5"/>
<text text-anchor="middle" x="2031" y="-12.5" font-family="Helvetica,sans-Serif" font-size="10.00">string</text>
</a>
</g>
</g>
<!-- Node7&#45;&gt;Node8 -->
<g id="edge7_Node000007_Node000008" class="edge">
<title>Node7&#45;&gt;Node8</title>
<g id="a_edge7_Node000007_Node000008"><a xlink:title=" ">
<path fill="none" stroke="#63b8ff" d="M2031,-71.37C2031,-62.16 2031,-47.29 2031,-35.27"/>
<polygon fill="#63b8ff" stroke="#63b8ff" points="2034.5,-34.91 2031,-24.91 2027.5,-34.91 2034.5,-34.91"/>
</a>
</g>
</g>
<!-- Node7&#45;&gt;Node9 -->
<g id="edge8_Node000007_Node000009" class="edge">
<title>Node7&#45;&gt;Node9</title>
<g id="a_edge8_Node000007_Node000009"><a xlink:title=" ">
<path fill="none" stroke="#63b8ff" d="M2018.73,-71.37C2003.94,-60.97 1978.85,-43.32 1960.97,-30.75"/>
<polygon fill="#63b8ff" stroke="#63b8ff" points="1962.56,-27.59 1952.37,-24.7 1958.54,-33.31 1962.56,-27.59"/>
</a>
</g>
</g>
<!-- Node11 -->
<g id="Node000011" class="node">
<title>Node11</title>
<g id="a_Node000011"><a xlink:href="tensors__and__points__dimension__manipulation_8h.html" target="_top" xlink:title=" ">
<polygon fill="#fff0f0" stroke="red" points="1042,-96 890,-96 890,-66 1042,-66 1042,-96"/>
<text text-anchor="start" x="898" y="-84" font-family="Helvetica,sans-Serif" font-size="10.00">core/tensors_and_points</text>
<text text-anchor="middle" x="966" y="-73" font-family="Helvetica,sans-Serif" font-size="10.00">_dimension_manipulation.h</text>
</a>
</g>
</g>
<!-- Node10&#45;&gt;Node11 -->
<g id="edge10_Node000010_Node000011" class="edge">
<title>Node10&#45;&gt;Node11</title>
<g id="a_edge10_Node000010_Node000011"><a xlink:title=" ">
<path fill="none" stroke="#63b8ff" d="M1095.77,-137.37C1073.5,-127.87 1037.06,-112.32 1008.45,-100.11"/>
<polygon fill="#63b8ff" stroke="#63b8ff" points="1009.65,-96.82 999.08,-96.12 1006.91,-103.26 1009.65,-96.82"/>
</a>
</g>
</g>
<!-- Node10&#45;&gt;Node14 -->
<g id="edge12_Node000010_Node000014" class="edge">
<title>Node10&#45;&gt;Node14</title>
<g id="a_edge12_Node000010_Node000014"><a xlink:title=" ">
<path fill="none" stroke="#63b8ff" d="M1155.51,-145.5C1262.11,-143.63 1564.29,-135.03 1812,-96 1817.41,-95.15 1823.06,-94.04 1828.61,-92.81"/>
<polygon fill="#63b8ff" stroke="#63b8ff" points="1829.49,-96.2 1838.43,-90.52 1827.89,-89.39 1829.49,-96.2"/>
</a>
</g>
</g>
<!-- Node19 -->
<g id="Node000019" class="node">
<title>Node19</title>
<g id="a_Node000019"><a xlink:title=" ">
<polygon fill="#e0e0e0" stroke="#999999" points="1883,-24.5 1743,-24.5 1743,-5.5 1883,-5.5 1883,-24.5"/>
<text text-anchor="middle" x="1813" y="-12.5" font-family="Helvetica,sans-Serif" font-size="10.00">deal.II/dofs/dof_handler.h</text>
</a>
</g>
</g>
<!-- Node10&#45;&gt;Node19 -->
<g id="edge25_Node000010_Node000019" class="edge">
<title>Node10&#45;&gt;Node19</title>
<g id="a_edge25_Node000010_Node000019"><a xlink:title=" ">
<path fill="none" stroke="#63b8ff" d="M1155.72,-145.36C1290.85,-142.85 1727.23,-132.01 1778,-96 1798.06,-81.77 1806.75,-53.44 1810.43,-34.6"/>
<polygon fill="#63b8ff" stroke="#63b8ff" points="1813.91,-34.99 1812.09,-24.55 1807.01,-33.84 1813.91,-34.99"/>
</a>
</g>
</g>
<!-- Node27 -->
<g id="Node000027" class="node">
<title>Node27</title>
<g id="a_Node000027"><a xlink:title=" ">
<polygon fill="#e0e0e0" stroke="#999999" points="1350,-96 1198,-96 1198,-66 1350,-66 1350,-96"/>
<text text-anchor="start" x="1206" y="-84" font-family="Helvetica,sans-Serif" font-size="10.00">deal.II/base/auto_derivative</text>
<text text-anchor="middle" x="1274" y="-73" font-family="Helvetica,sans-Serif" font-size="10.00">_function.h</text>
</a>
</g>
</g>
<!-- Node10&#45;&gt;Node27 -->
<g id="edge19_Node000010_Node000027" class="edge">
<title>Node10&#45;&gt;Node27</title>
<g id="a_edge19_Node000010_Node000027"><a xlink:title=" ">
<path fill="none" stroke="#63b8ff" d="M1137.31,-137.37C1160.87,-127.82 1199.49,-112.18 1229.68,-99.95"/>
<polygon fill="#63b8ff" stroke="#63b8ff" points="1231.2,-103.11 1239.15,-96.12 1228.57,-96.63 1231.2,-103.11"/>
</a>
</g>
</g>
<!-- Node28 -->
<g id="Node000028" class="node">
<title>Node28</title>
<g id="a_Node000028"><a xlink:title=" ">
<polygon fill="#e0e0e0" stroke="#999999" points="1493.5,-90.5 1368.5,-90.5 1368.5,-71.5 1493.5,-71.5 1493.5,-90.5"/>
<text text-anchor="middle" x="1431" y="-78.5" font-family="Helvetica,sans-Serif" font-size="10.00">deal.II/base/function.h</text>
</a>
</g>
</g>
<!-- Node10&#45;&gt;Node28 -->
<g id="edge20_Node000010_Node000028" class="edge">
<title>Node10&#45;&gt;Node28</title>
<g id="a_edge20_Node000010_Node000028"><a xlink:title=" ">
<path fill="none" stroke="#63b8ff" d="M1155.58,-137.96C1212.16,-126.46 1316.26,-105.31 1379,-92.56"/>
<polygon fill="#63b8ff" stroke="#63b8ff" points="1379.98,-95.94 1389.08,-90.52 1378.58,-89.08 1379.98,-95.94"/>
</a>
</g>
</g>
<!-- Node29 -->
<g id="Node000029" class="node">
<title>Node29</title>
<g id="a_Node000029"><a xlink:title=" ">
<polygon fill="#e0e0e0" stroke="#999999" points="1636,-90.5 1512,-90.5 1512,-71.5 1636,-71.5 1636,-90.5"/>
<text text-anchor="middle" x="1574" y="-78.5" font-family="Helvetica,sans-Serif" font-size="10.00">deal.II/grid/manifold.h</text>
</a>
</g>
</g>
<!-- Node10&#45;&gt;Node29 -->
<g id="edge21_Node000010_Node000029" class="edge">
<title>Node10&#45;&gt;Node29</title>
<g id="a_edge21_Node000010_Node000029"><a xlink:title=" ">
<path fill="none" stroke="#63b8ff" d="M1155.57,-141.71C1225.62,-133.93 1375.93,-116.4 1502,-96 1508.67,-94.92 1515.67,-93.69 1522.58,-92.41"/>
<polygon fill="#63b8ff" stroke="#63b8ff" points="1523.4,-95.81 1532.58,-90.52 1522.1,-88.94 1523.4,-95.81"/>
</a>
</g>
</g>
<!-- Node30 -->
<g id="Node000030" class="node">
<title>Node30</title>
<g id="a_Node000030"><a xlink:title=" ">
<polygon fill="#e0e0e0" stroke="#999999" points="1769.5,-96 1654.5,-96 1654.5,-66 1769.5,-66 1769.5,-96"/>
<text text-anchor="start" x="1662.5" y="-84" font-family="Helvetica,sans-Serif" font-size="10.00">deal.II/grid/manifold</text>
<text text-anchor="middle" x="1712" y="-73" font-family="Helvetica,sans-Serif" font-size="10.00">_lib.h</text>
</a>
</g>
</g>
<!-- Node10&#45;&gt;Node30 -->
<g id="edge22_Node000010_Node000030" class="edge">
<title>Node10&#45;&gt;Node30</title>
<g id="a_edge22_Node000010_Node000030"><a xlink:title=" ">
<path fill="none" stroke="#63b8ff" d="M1155.67,-143.77C1242.41,-138.57 1455.59,-124.01 1644.23,-95.99"/>
<polygon fill="#63b8ff" stroke="#63b8ff" points="1644.96,-99.42 1654.33,-94.48 1643.92,-92.5 1644.96,-99.42"/>
</a>
</g>
</g>
<!-- Node31 -->
<g id="Node000031" class="node">
<title>Node31</title>
<g id="a_Node000031"><a xlink:title=" ">
<polygon fill="#e0e0e0" stroke="#999999" points="397.5,-96 282.5,-96 282.5,-66 397.5,-66 397.5,-96"/>
<text text-anchor="start" x="290.5" y="-84" font-family="Helvetica,sans-Serif" font-size="10.00">boost/range/adaptor</text>
<text text-anchor="middle" x="340" y="-73" font-family="Helvetica,sans-Serif" font-size="10.00">/map.hpp</text>
</a>
</g>
</g>
<!-- Node10&#45;&gt;Node31 -->
<g id="edge23_Node000010_Node000031" class="edge">
<title>Node10&#45;&gt;Node31</title>
<g id="a_edge23_Node000010_Node000031"><a xlink:title=" ">
<path fill="none" stroke="#63b8ff" d="M1076.22,-145.08C969.53,-142.22 668.08,-131.51 407.68,-95.95"/>
<polygon fill="#63b8ff" stroke="#63b8ff" points="408.04,-92.47 397.66,-94.57 407.08,-99.4 408.04,-92.47"/>
</a>
</g>
</g>
<!-- Node32 -->
<g id="Node000032" class="node">
<title>Node32</title>
<g id="a_Node000032"><a xlink:title=" ">
<polygon fill="#e0e0e0" stroke="#999999" points="532,-96 416,-96 416,-66 532,-66 532,-96"/>
<text text-anchor="start" x="424" y="-84" font-family="Helvetica,sans-Serif" font-size="10.00">deal.II/base/function</text>
<text text-anchor="middle" x="474" y="-73" font-family="Helvetica,sans-Serif" font-size="10.00">_signed_distance.h</text>
</a>
</g>
</g>
<!-- Node10&#45;&gt;Node32 -->
<g id="edge24_Node000010_Node000032" class="edge">
<title>Node10&#45;&gt;Node32</title>
<g id="a_edge24_Node000010_Node000032"><a xlink:title=" ">
<path fill="none" stroke="#63b8ff" d="M1076.42,-144.19C984.39,-139.62 748.75,-125.93 542.16,-96.05"/>
<polygon fill="#63b8ff" stroke="#63b8ff" points="542.43,-92.55 532.03,-94.57 541.42,-99.48 542.43,-92.55"/>
</a>
</g>
</g>
<!-- Node33 -->
<g id="Node000033" class="node">
<title>Node33</title>
<g id="a_Node000033"><a xlink:title=" ">
<polygon fill="#e0e0e0" stroke="#999999" points="678,-90.5 550,-90.5 550,-71.5 678,-71.5 678,-90.5"/>
<text text-anchor="middle" x="614" y="-78.5" font-family="Helvetica,sans-Serif" font-size="10.00">deal.II/dofs/dof_tools.h</text>
</a>
</g>
</g>
<!-- Node10&#45;&gt;Node33 -->
<g id="edge26_Node000010_Node000033" class="edge">
<title>Node10&#45;&gt;Node33</title>
<g id="a_edge26_Node000010_Node000033"><a xlink:title=" ">
<path fill="none" stroke="#63b8ff" d="M1076.24,-142.35C1000.34,-135.17 829.66,-117.96 687,-96 680.14,-94.94 672.95,-93.72 665.86,-92.43"/>
<polygon fill="#63b8ff" stroke="#63b8ff" points="666.07,-88.91 655.6,-90.53 664.79,-95.79 666.07,-88.91"/>
</a>
</g>
</g>
<!-- Node34 -->
<g id="Node000034" class="node">
<title>Node34</title>
<g id="a_Node000034"><a xlink:title=" ">
<polygon fill="#e0e0e0" stroke="#999999" points="872,-90.5 696,-90.5 696,-71.5 872,-71.5 872,-90.5"/>
<text text-anchor="middle" x="784" y="-78.5" font-family="Helvetica,sans-Serif" font-size="10.00">deal.II/physics/transformations.h</text>
</a>
</g>
</g>
<!-- Node10&#45;&gt;Node34 -->
<g id="edge27_Node000010_Node000034" class="edge">
<title>Node10&#45;&gt;Node34</title>
<g id="a_edge27_Node000010_Node000034"><a xlink:title=" ">
<path fill="none" stroke="#63b8ff" d="M1076.28,-138.34C1016.94,-126.9 904.97,-105.32 838.17,-92.44"/>
<polygon fill="#63b8ff" stroke="#63b8ff" points="838.73,-88.99 828.25,-90.53 837.4,-95.86 838.73,-88.99"/>
</a>
</g>
</g>
<!-- Node35 -->
<g id="Node000035" class="node">
<title>Node35</title>
<g id="a_Node000035"><a xlink:title=" ">
<polygon fill="#e0e0e0" stroke="#999999" points="1104,-90.5 1060,-90.5 1060,-71.5 1104,-71.5 1104,-90.5"/>
<text text-anchor="middle" x="1082" y="-78.5" font-family="Helvetica,sans-Serif" font-size="10.00">cfloat</text>
</a>
</g>
</g>
<!-- Node10&#45;&gt;Node35 -->
<g id="edge28_Node000010_Node000035" class="edge">
<title>Node10&#45;&gt;Node35</title>
<g id="a_edge28_Node000010_Node000035"><a xlink:title=" ">
<path fill="none" stroke="#63b8ff" d="M1111.41,-137.37C1106.32,-127.78 1097.96,-112.05 1091.46,-99.8"/>
<polygon fill="#63b8ff" stroke="#63b8ff" points="1094.51,-98.09 1086.73,-90.91 1088.33,-101.38 1094.51,-98.09"/>
</a>
</g>
</g>
<!-- Node36 -->
<g id="Node000036" class="node">
<title>Node36</title>
<g id="a_Node000036"><a xlink:title=" ">
<polygon fill="#e0e0e0" stroke="#999999" points="1180,-90.5 1122,-90.5 1122,-71.5 1180,-71.5 1180,-90.5"/>
<text text-anchor="middle" x="1151" y="-78.5" font-family="Helvetica,sans-Serif" font-size="10.00">memory</text>
</a>
</g>
</g>
<!-- Node10&#45;&gt;Node36 -->
<g id="edge29_Node000010_Node000036" class="edge">
<title>Node10&#45;&gt;Node36</title>
<g id="a_edge29_Node000010_Node000036"><a xlink:title=" ">
<path fill="none" stroke="#63b8ff" d="M1120.72,-137.37C1125.96,-127.78 1134.57,-112.05 1141.27,-99.8"/>
<polygon fill="#63b8ff" stroke="#63b8ff" points="1144.4,-101.36 1146.13,-90.91 1138.26,-98 1144.4,-101.36"/>
</a>
</g>
</g>
<!-- Node11&#45;&gt;Node12 -->
<g id="edge11_Node000011_Node000012" class="edge">
<title>Node11&#45;&gt;Node12</title>
<g id="a_edge11_Node000011_Node000012"><a xlink:title=" ">
<path fill="none" stroke="#63b8ff" d="M966,-65.8C966,-56.7 966,-44.79 966,-34.9"/>
<polygon fill="#63b8ff" stroke="#63b8ff" points="969.5,-34.84 966,-24.84 962.5,-34.84 969.5,-34.84"/>
</a>
</g>
</g>
<!-- Node14&#45;&gt;Node5 -->
<g id="edge13_Node000014_Node000005" class="edge">
<title>Node14&#45;&gt;Node5</title>
<g id="a_edge13_Node000014_Node000005"><a xlink:title=" ">
<path fill="none" stroke="#63b8ff" d="M1825.62,-72.23C1810.59,-69.83 1793.6,-67.44 1778,-66 1475.74,-38.13 524.35,-21.42 251.7,-17.11"/>
<polygon fill="#63b8ff" stroke="#63b8ff" points="251.57,-13.61 241.52,-16.95 251.46,-20.61 251.57,-13.61"/>
</a>
</g>
</g>
<!-- Node14&#45;&gt;Node8 -->
<g id="edge17_Node000014_Node000008" class="edge">
<title>Node14&#45;&gt;Node8</title>
<g id="a_edge17_Node000014_Node000008"><a xlink:title=" ">
<path fill="none" stroke="#63b8ff" d="M1890.85,-71.37C1918.95,-60.27 1967.93,-40.92 1999.9,-28.28"/>
<polygon fill="#63b8ff" stroke="#63b8ff" points="2001.23,-31.53 2009.24,-24.6 1998.65,-25.02 2001.23,-31.53"/>
</a>
</g>
</g>
<!-- Node14&#45;&gt;Node9 -->
<g id="edge18_Node000014_Node000009" class="edge">
<title>Node14&#45;&gt;Node9</title>
<g id="a_edge18_Node000014_Node000009"><a xlink:title=" ">
<path fill="none" stroke="#63b8ff" d="M1878.58,-71.37C1889.84,-61.21 1908.76,-44.16 1922.63,-31.65"/>
<polygon fill="#63b8ff" stroke="#63b8ff" points="1925.04,-34.2 1930.12,-24.91 1920.35,-29 1925.04,-34.2"/>
</a>
</g>
</g>
<!-- Node14&#45;&gt;Node12 -->
<g id="edge14_Node000014_Node000012" class="edge">
<title>Node14&#45;&gt;Node12</title>
<g id="a_edge14_Node000014_Node000012"><a xlink:title=" ">
<path fill="none" stroke="#63b8ff" d="M1825.6,-72.5C1810.56,-70.12 1793.58,-67.67 1778,-66 1501.26,-36.25 1169.4,-22.68 1031.28,-18"/>
<polygon fill="#63b8ff" stroke="#63b8ff" points="1031.39,-14.5 1021.28,-17.67 1031.16,-21.5 1031.39,-14.5"/>
</a>
</g>
</g>
<!-- Node14&#45;&gt;Node19 -->
<g id="edge15_Node000014_Node000019" class="edge">
<title>Node14&#45;&gt;Node19</title>
<g id="a_edge15_Node000014_Node000019"><a xlink:title=" ">
<path fill="none" stroke="#63b8ff" d="M1861.45,-71.37C1852.81,-61.5 1838.47,-45.11 1827.63,-32.72"/>
<polygon fill="#63b8ff" stroke="#63b8ff" points="1830.01,-30.13 1820.79,-24.91 1824.74,-34.74 1830.01,-30.13"/>
</a>
</g>
</g>
<!-- Node25 -->
<g id="Node000025" class="node">
<title>Node25</title>
<g id="a_Node000025"><a xlink:title=" ">
<polygon fill="#e0e0e0" stroke="#999999" points="2147,-24.5 2109,-24.5 2109,-5.5 2147,-5.5 2147,-24.5"/>
<text text-anchor="middle" x="2128" y="-12.5" font-family="Helvetica,sans-Serif" font-size="10.00">map</text>
</a>
</g>
</g>
<!-- Node14&#45;&gt;Node25 -->
<g id="edge16_Node000014_Node000025" class="edge">
<title>Node14&#45;&gt;Node25</title>
<g id="a_edge16_Node000014_Node000025"><a xlink:title=" ">
<path fill="none" stroke="#63b8ff" d="M1903.66,-71.44C1955.16,-58.71 2050.94,-35.04 2098.97,-23.17"/>
<polygon fill="#63b8ff" stroke="#63b8ff" points="2099.86,-26.56 2108.73,-20.76 2098.19,-19.76 2099.86,-26.56"/>
</a>
</g>
</g>
<!-- Node40&#45;&gt;Node3 -->
<g id="edge39_Node000040_Node000003" class="edge">
<title>Node40&#45;&gt;Node3</title>
<g id="a_edge39_Node000040_Node000003"><a xlink:title=" ">
<path fill="none" stroke="#63b8ff" d="M529.21,-324.49C484.43,-314.14 408.74,-296.64 359.84,-285.33"/>
<polygon fill="#63b8ff" stroke="#63b8ff" points="360.36,-281.86 349.83,-283.02 358.79,-288.68 360.36,-281.86"/>
</a>
</g>
</g>
<!-- Node40&#45;&gt;Node5 -->
<g id="edge40_Node000040_Node000005" class="edge">
<title>Node40&#45;&gt;Node5</title>
<g id="a_edge40_Node000040_Node000005"><a xlink:title=" ">
<path fill="none" stroke="#63b8ff" d="M567.73,-324.32C571.9,-300.55 579.86,-233.81 546,-198 491.44,-140.31 444.58,-191.86 371,-162 348.04,-152.68 345.12,-144.97 324,-132 297.17,-115.53 288.17,-114.9 263,-96 239.11,-78.06 214.55,-54.25 198.01,-37.28"/>
<polygon fill="#63b8ff" stroke="#63b8ff" points="200.46,-34.79 191.01,-30.02 195.42,-39.65 200.46,-34.79"/>
</a>
</g>
</g>
<!-- Node40&#45;&gt;Node8 -->
<g id="edge43_Node000040_Node000008" class="edge">
<title>Node40&#45;&gt;Node8</title>
<g id="a_edge43_Node000040_Node000008"><a xlink:title=" ">
<path fill="none" stroke="#63b8ff" d="M619.37,-324.47C631.71,-322.58 644.8,-320.66 657,-319 1247.23,-238.81 1422.43,-348.93 1988,-162 2043.95,-143.51 2073.47,-147 2103,-96 2109.68,-84.46 2109.18,-77.81 2103,-66 2094.36,-49.47 2077.48,-37.31 2062.25,-29.12"/>
<polygon fill="#63b8ff" stroke="#63b8ff" points="2063.57,-25.87 2053.06,-24.53 2060.44,-32.13 2063.57,-25.87"/>
</a>
</g>
</g>
<!-- Node40&#45;&gt;Node25 -->
<g id="edge41_Node000040_Node000025" class="edge">
<title>Node40&#45;&gt;Node25</title>
<g id="a_edge41_Node000040_Node000025"><a xlink:title=" ">
<path fill="none" stroke="#63b8ff" d="M614.03,-324.43C627.86,-322.28 642.99,-320.24 657,-319 739.48,-311.69 2081.75,-333.97 2147,-283 2172.07,-263.42 2166,-245.81 2166,-214 2166,-214 2166,-214 2166,-146 2166,-104.44 2147.89,-58.3 2136.67,-33.71"/>
<polygon fill="#63b8ff" stroke="#63b8ff" points="2139.79,-32.12 2132.36,-24.57 2133.46,-35.11 2139.79,-32.12"/>
</a>
</g>
</g>
<!-- Node41 -->
<g id="Node000041" class="node">
<title>Node41</title>
<g id="a_Node000041"><a xlink:title=" ">
<polygon fill="#e0e0e0" stroke="#999999" points="2138,-283 2106,-283 2106,-264 2138,-264 2138,-283"/>
<text text-anchor="middle" x="2122" y="-271" font-family="Helvetica,sans-Serif" font-size="10.00">set</text>
</a>
</g>
</g>
<!-- Node40&#45;&gt;Node41 -->
<g id="edge42_Node000040_Node000041" class="edge">
<title>Node40&#45;&gt;Node41</title>
<g id="a_edge42_Node000040_Node000041"><a xlink:title=" ">
<path fill="none" stroke="#63b8ff" d="M614.03,-324.44C627.86,-322.29 642.99,-320.25 657,-319 974.73,-290.69 1776.62,-330.86 2092,-283 2093.29,-282.8 2094.61,-282.57 2095.94,-282.3"/>
<polygon fill="#63b8ff" stroke="#63b8ff" points="2097.09,-285.62 2105.97,-279.84 2095.43,-278.83 2097.09,-285.62"/>
</a>
</g>
</g>
<!-- Node42&#45;&gt;Node3 -->
<g id="edge45_Node000042_Node000003" class="edge">
<title>Node42&#45;&gt;Node3</title>
<g id="a_edge45_Node000042_Node000003"><a xlink:title=" ">
<path fill="none" stroke="#63b8ff" d="M197.41,-318.99C222.88,-309.18 256.59,-296.21 281.03,-286.81"/>
<polygon fill="#63b8ff" stroke="#63b8ff" points="282.48,-290 290.55,-283.14 279.96,-283.46 282.48,-290"/>
</a>
</g>
</g>
<!-- Node42&#45;&gt;Node5 -->
<g id="edge46_Node000042_Node000005" class="edge">
<title>Node42&#45;&gt;Node5</title>
<g id="a_edge46_Node000042_Node000005"><a xlink:title=" ">
<path fill="none" stroke="#63b8ff" d="M110.5,-318.96C63.28,-302.4 0,-269.79 0,-214 0,-214 0,-214 0,-146 0,-87.22 64.08,-52.18 115.34,-33.55"/>
<polygon fill="#63b8ff" stroke="#63b8ff" points="116.79,-36.75 125.08,-30.15 114.48,-30.14 116.79,-36.75"/>
</a>
</g>
</g>
<!-- Node42&#45;&gt;Node37 -->
<g id="edge47_Node000042_Node000037" class="edge">
<title>Node42&#45;&gt;Node37</title>
<g id="a_edge47_Node000042_Node000037"><a xlink:title=" ">
<path fill="none" stroke="#63b8ff" d="M167.11,-318.86C178.07,-293.9 202.25,-240.64 227,-198 232.4,-188.7 238.92,-178.84 244.8,-170.35"/>
<polygon fill="#63b8ff" stroke="#63b8ff" points="247.72,-172.28 250.62,-162.09 242,-168.25 247.72,-172.28"/>
</a>
</g>
</g>
<!-- Node43&#45;&gt;Node40 -->
<g id="edge49_Node000043_Node000040" class="edge">
<title>Node43&#45;&gt;Node40</title>
<g id="a_edge49_Node000043_Node000040"><a xlink:title=" ">
<path fill="none" stroke="#63b8ff" d="M566,-384.87C566,-376.75 566,-364.31 566,-353.89"/>
<polygon fill="#63b8ff" stroke="#63b8ff" points="569.5,-353.67 566,-343.67 562.5,-353.67 569.5,-353.67"/>
</a>
</g>
</g>
<!-- Node44 -->
<g id="Node000044" class="node">
<title>Node44</title>
<g id="a_Node000044"><a xlink:title=" ">
<polygon fill="#e0e0e0" stroke="#999999" points="720,-343.5 666,-343.5 666,-324.5 720,-324.5 720,-343.5"/>
<text text-anchor="middle" x="693" y="-331.5" font-family="Helvetica,sans-Serif" font-size="10.00">random</text>
</a>
</g>
</g>
<!-- Node43&#45;&gt;Node44 -->
<g id="edge50_Node000043_Node000044" class="edge">
<title>Node43&#45;&gt;Node44</title>
<g id="a_edge50_Node000043_Node000044"><a xlink:title=" ">
<path fill="none" stroke="#63b8ff" d="M584.47,-384.99C605.72,-375.2 640.85,-359.02 665.37,-347.73"/>
<polygon fill="#63b8ff" stroke="#63b8ff" points="666.89,-350.88 674.51,-343.52 663.96,-344.52 666.89,-350.88"/>
</a>
</g>
</g>
</g>
</svg>
