<?xml version="1.0" encoding="UTF-8" standalone="no"?>
<!DOCTYPE svg PUBLIC "-//W3C//DTD SVG 1.1//EN"
 "http://www.w3.org/Graphics/SVG/1.1/DTD/svg11.dtd">
<!-- Generated by graphviz version 2.43.0 (0)
 -->
<!-- Title: /home/runner/work/lethe/lethe/source/dem/input_parameter_inspection.cc Pages: 1 -->
<svg width="916pt" height="544pt"
 viewBox="0.00 0.00 916.00 544.00" xmlns="http://www.w3.org/2000/svg" xmlns:xlink="http://www.w3.org/1999/xlink">
<g id="graph0" class="graph" transform="scale(1 1) rotate(0) translate(4 540)">
<title>/home/runner/work/lethe/lethe/source/dem/input_parameter_inspection.cc</title>
<!-- Node1 -->
<g id="Node000001" class="node">
<title>Node1</title>
<g id="a_Node000001"><a xlink:title=" ">
<polygon fill="#999999" stroke="#666666" points="571,-536 429,-536 429,-495 571,-495 571,-536"/>
<text text-anchor="start" x="437" y="-524" font-family="Helvetica,sans-Serif" font-size="10.00">/home/runner/work/lethe</text>
<text text-anchor="start" x="437" y="-513" font-family="Helvetica,sans-Serif" font-size="10.00">/lethe/source/dem/input</text>
<text text-anchor="middle" x="500" y="-502" font-family="Helvetica,sans-Serif" font-size="10.00">_parameter_inspection.cc</text>
</a>
</g>
</g>
<!-- Node2 -->
<g id="Node000002" class="node">
<title>Node2</title>
<g id="a_Node000002"><a xlink:href="input__parameter__inspection_8h.html" target="_top" xlink:title=" ">
<polygon fill="white" stroke="#666666" points="561,-459 439,-459 439,-429 561,-429 561,-459"/>
<text text-anchor="start" x="447" y="-447" font-family="Helvetica,sans-Serif" font-size="10.00">dem/input_parameter</text>
<text text-anchor="middle" x="500" y="-436" font-family="Helvetica,sans-Serif" font-size="10.00">_inspection.h</text>
</a>
</g>
</g>
<!-- Node1&#45;&gt;Node2 -->
<g id="edge1_Node000001_Node000002" class="edge">
<title>Node1&#45;&gt;Node2</title>
<g id="a_edge1_Node000001_Node000002"><a xlink:title=" ">
<path fill="none" stroke="#63b8ff" d="M500,-494.77C500,-486.85 500,-477.63 500,-469.3"/>
<polygon fill="#63b8ff" stroke="#63b8ff" points="503.5,-469.04 500,-459.04 496.5,-469.04 503.5,-469.04"/>
</a>
</g>
</g>
<!-- Node3 -->
<g id="Node000003" class="node">
<title>Node3</title>
<g id="a_Node000003"><a xlink:href="dem__solver__parameters_8h.html" target="_top" xlink:title=" ">
<polygon fill="white" stroke="#666666" points="505.5,-393 336.5,-393 336.5,-374 505.5,-374 505.5,-393"/>
<text text-anchor="middle" x="421" y="-381" font-family="Helvetica,sans-Serif" font-size="10.00">dem/dem_solver_parameters.h</text>
</a>
</g>
</g>
<!-- Node2&#45;&gt;Node3 -->
<g id="edge2_Node000002_Node000003" class="edge">
<title>Node2&#45;&gt;Node3</title>
<g id="a_edge2_Node000002_Node000003"><a xlink:title=" ">
<path fill="none" stroke="#63b8ff" d="M480.88,-428.84C468.82,-419.91 453.29,-408.41 441.06,-399.35"/>
<polygon fill="#63b8ff" stroke="#63b8ff" points="442.96,-396.4 432.84,-393.27 438.79,-402.03 442.96,-396.4"/>
</a>
</g>
</g>
<!-- Node44 -->
<g id="Node000044" class="node">
<title>Node44</title>
<g id="a_Node000044"><a xlink:href="distributions_8h.html" target="_top" xlink:title=" ">
<polygon fill="white" stroke="#666666" points="634.5,-393 523.5,-393 523.5,-374 634.5,-374 634.5,-393"/>
<text text-anchor="middle" x="579" y="-381" font-family="Helvetica,sans-Serif" font-size="10.00">dem/distributions.h</text>
</a>
</g>
</g>
<!-- Node2&#45;&gt;Node44 -->
<g id="edge35_Node000002_Node000044" class="edge">
<title>Node2&#45;&gt;Node44</title>
<g id="a_edge35_Node000002_Node000044"><a xlink:title=" ">
<path fill="none" stroke="#63b8ff" d="M519.12,-428.84C531.18,-419.91 546.71,-408.41 558.94,-399.35"/>
<polygon fill="#63b8ff" stroke="#63b8ff" points="561.21,-402.03 567.16,-393.27 557.04,-396.4 561.21,-402.03"/>
</a>
</g>
</g>
<!-- Node4 -->
<g id="Node000004" class="node">
<title>Node4</title>
<g id="a_Node000004"><a xlink:href="parameters_8h.html" target="_top" xlink:title=" ">
<polygon fill="white" stroke="#666666" points="474,-272 368,-272 368,-253 474,-253 474,-272"/>
<text text-anchor="middle" x="421" y="-260" font-family="Helvetica,sans-Serif" font-size="10.00">core/parameters.h</text>
</a>
</g>
</g>
<!-- Node3&#45;&gt;Node4 -->
<g id="edge3_Node000003_Node000004" class="edge">
<title>Node3&#45;&gt;Node4</title>
<g id="a_edge3_Node000003_Node000004"><a xlink:title=" ">
<path fill="none" stroke="#63b8ff" d="M421,-373.94C421,-354.91 421,-308.69 421,-282.47"/>
<polygon fill="#63b8ff" stroke="#63b8ff" points="424.5,-282.3 421,-272.3 417.5,-282.3 424.5,-282.3"/>
</a>
</g>
</g>
<!-- Node41 -->
<g id="Node000041" class="node">
<title>Node41</title>
<g id="a_Node000041"><a xlink:href="parameters__lagrangian_8h.html" target="_top" xlink:title="Parameter structures for Lagrangian (DEM) particle simulations.">
<polygon fill="white" stroke="#666666" points="620.5,-332.5 457.5,-332.5 457.5,-313.5 620.5,-313.5 620.5,-332.5"/>
<text text-anchor="middle" x="539" y="-320.5" font-family="Helvetica,sans-Serif" font-size="10.00">core/parameters_lagrangian.h</text>
</a>
</g>
</g>
<!-- Node3&#45;&gt;Node41 -->
<g id="edge25_Node000003_Node000041" class="edge">
<title>Node3&#45;&gt;Node41</title>
<g id="a_edge25_Node000003_Node000041"><a xlink:title=" ">
<path fill="none" stroke="#63b8ff" d="M438.16,-373.99C457.73,-364.29 489.97,-348.31 512.72,-337.03"/>
<polygon fill="#63b8ff" stroke="#63b8ff" points="514.42,-340.09 521.82,-332.52 511.31,-333.82 514.42,-340.09"/>
</a>
</g>
</g>
<!-- Node43 -->
<g id="Node000043" class="node">
<title>Node43</title>
<g id="a_Node000043"><a xlink:href="solid__objects__parameters_8h.html" target="_top" xlink:title="Parameter classes for solid objects used in Nitsche immersed boundary and DEM simulations.">
<polygon fill="white" stroke="#666666" points="242,-338 138,-338 138,-308 242,-308 242,-338"/>
<text text-anchor="start" x="146" y="-326" font-family="Helvetica,sans-Serif" font-size="10.00">core/solid_objects</text>
<text text-anchor="middle" x="190" y="-315" font-family="Helvetica,sans-Serif" font-size="10.00">_parameters.h</text>
</a>
</g>
</g>
<!-- Node3&#45;&gt;Node43 -->
<g id="edge31_Node000003_Node000043" class="edge">
<title>Node3&#45;&gt;Node43</title>
<g id="a_edge31_Node000003_Node000043"><a xlink:title=" ">
<path fill="none" stroke="#63b8ff" d="M387.41,-373.99C352.12,-365.06 295.81,-350.8 252.34,-339.79"/>
<polygon fill="#63b8ff" stroke="#63b8ff" points="252.99,-336.34 242.44,-337.28 251.27,-343.13 252.99,-336.34"/>
</a>
</g>
</g>
<!-- Node5 -->
<g id="Node000005" class="node">
<title>Node5</title>
<g id="a_Node000005"><a xlink:href="dimensionality_8h.html" target="_top" xlink:title=" ">
<polygon fill="white" stroke="#666666" points="435.5,-145.5 314.5,-145.5 314.5,-126.5 435.5,-126.5 435.5,-145.5"/>
<text text-anchor="middle" x="375" y="-133.5" font-family="Helvetica,sans-Serif" font-size="10.00">core/dimensionality.h</text>
</a>
</g>
</g>
<!-- Node4&#45;&gt;Node5 -->
<g id="edge4_Node000004_Node000005" class="edge">
<title>Node4&#45;&gt;Node5</title>
<g id="a_edge4_Node000004_Node000005"><a xlink:title=" ">
<path fill="none" stroke="#63b8ff" d="M420.27,-252.95C418.86,-238.81 415.03,-209.82 406,-187 401.38,-175.32 394.04,-163.32 387.66,-154.01"/>
<polygon fill="#63b8ff" stroke="#63b8ff" points="390.4,-151.81 381.75,-145.7 384.7,-155.87 390.4,-151.81"/>
</a>
</g>
</g>
<!-- Node6 -->
<g id="Node000006" class="node">
<title>Node6</title>
<g id="a_Node000006"><a xlink:title=" ">
<polygon fill="#e0e0e0" stroke="#999999" points="527.5,-30 400.5,-30 400.5,0 527.5,0 527.5,-30"/>
<text text-anchor="start" x="408.5" y="-18" font-family="Helvetica,sans-Serif" font-size="10.00">deal.II/base/parameter</text>
<text text-anchor="middle" x="464" y="-7" font-family="Helvetica,sans-Serif" font-size="10.00">_handler.h</text>
</a>
</g>
</g>
<!-- Node4&#45;&gt;Node6 -->
<g id="edge22_Node000004_Node000006" class="edge">
<title>Node4&#45;&gt;Node6</title>
<g id="a_edge22_Node000004_Node000006"><a xlink:title=" ">
<path fill="none" stroke="#63b8ff" d="M422.96,-252.94C427.16,-234.41 437.2,-189.2 444,-151 450.86,-112.46 457.2,-67.43 460.83,-40.34"/>
<polygon fill="#63b8ff" stroke="#63b8ff" points="464.32,-40.61 462.17,-30.23 457.38,-39.69 464.32,-40.61"/>
</a>
</g>
</g>
<!-- Node7 -->
<g id="Node000007" class="node">
<title>Node7</title>
<g id="a_Node000007"><a xlink:href="ib__particle_8h.html" target="_top" xlink:title=" ">
<polygon fill="white" stroke="#666666" points="631.5,-211.5 530.5,-211.5 530.5,-192.5 631.5,-192.5 631.5,-211.5"/>
<text text-anchor="middle" x="581" y="-199.5" font-family="Helvetica,sans-Serif" font-size="10.00">core/ib_particle.h</text>
</a>
</g>
</g>
<!-- Node4&#45;&gt;Node7 -->
<g id="edge6_Node000004_Node000007" class="edge">
<title>Node4&#45;&gt;Node7</title>
<g id="a_edge6_Node000004_Node000007"><a xlink:title=" ">
<path fill="none" stroke="#63b8ff" d="M444.27,-252.99C471.64,-242.99 517.27,-226.3 548.22,-214.99"/>
<polygon fill="#63b8ff" stroke="#63b8ff" points="549.52,-218.24 557.71,-211.52 547.11,-211.66 549.52,-218.24"/>
</a>
</g>
</g>
<!-- Node15 -->
<g id="Node000015" class="node">
<title>Node15</title>
<g id="a_Node000015"><a xlink:href="core_2utilities_8h.html" target="_top" xlink:title=" ">
<polygon fill="#fff0f0" stroke="red" points="836,-85 750,-85 750,-66 836,-66 836,-85"/>
<text text-anchor="middle" x="793" y="-73" font-family="Helvetica,sans-Serif" font-size="10.00">core/utilities.h</text>
</a>
</g>
</g>
<!-- Node4&#45;&gt;Node15 -->
<g id="edge21_Node000004_Node000015" class="edge">
<title>Node4&#45;&gt;Node15</title>
<g id="a_edge21_Node000004_Node000015"><a xlink:title=" ">
<path fill="none" stroke="#63b8ff" d="M474.27,-255.44C519.64,-249.17 586.01,-237.37 641,-217 697.35,-196.13 718.28,-195.19 759,-151 773.72,-135.03 782.97,-111.59 788.05,-95.29"/>
<polygon fill="#63b8ff" stroke="#63b8ff" points="791.52,-95.89 790.91,-85.32 784.79,-93.96 791.52,-95.89"/>
</a>
</g>
</g>
<!-- Node38 -->
<g id="Node000038" class="node">
<title>Node38</title>
<g id="a_Node000038"><a xlink:title=" ">
<polygon fill="#e0e0e0" stroke="#999999" points="137.5,-151 28.5,-151 28.5,-121 137.5,-121 137.5,-151"/>
<text text-anchor="start" x="36.5" y="-139" font-family="Helvetica,sans-Serif" font-size="10.00">deal.II/base/parsed</text>
<text text-anchor="middle" x="83" y="-128" font-family="Helvetica,sans-Serif" font-size="10.00">_function.h</text>
</a>
</g>
</g>
<!-- Node4&#45;&gt;Node38 -->
<g id="edge23_Node000004_Node000038" class="edge">
<title>Node4&#45;&gt;Node38</title>
<g id="a_edge23_Node000004_Node000038"><a xlink:title=" ">
<path fill="none" stroke="#63b8ff" d="M367.69,-261.69C285.28,-260.79 132.51,-254.01 95,-217 80.53,-202.72 78.59,-179 79.63,-161.09"/>
<polygon fill="#63b8ff" stroke="#63b8ff" points="83.12,-161.36 80.55,-151.08 76.15,-160.72 83.12,-161.36"/>
</a>
</g>
</g>
<!-- Node39 -->
<g id="Node000039" class="node">
<title>Node39</title>
<g id="a_Node000039"><a xlink:href="multiphysics_8h.html" target="_top" xlink:title="Identifiers for multiphysics modules and their solution fields.">
<polygon fill="white" stroke="#666666" points="216,-211.5 104,-211.5 104,-192.5 216,-192.5 216,-211.5"/>
<text text-anchor="middle" x="160" y="-199.5" font-family="Helvetica,sans-Serif" font-size="10.00">core/multiphysics.h</text>
</a>
</g>
</g>
<!-- Node4&#45;&gt;Node39 -->
<g id="edge20_Node000004_Node000039" class="edge">
<title>Node4&#45;&gt;Node39</title>
<g id="a_edge20_Node000004_Node000039"><a xlink:title=" ">
<path fill="none" stroke="#63b8ff" d="M383.05,-252.99C336.75,-242.62 258.45,-225.07 208.01,-213.76"/>
<polygon fill="#63b8ff" stroke="#63b8ff" points="208.52,-210.29 198,-211.52 206.99,-217.12 208.52,-210.29"/>
</a>
</g>
</g>
<!-- Node40 -->
<g id="Node000040" class="node">
<title>Node40</title>
<g id="a_Node000040"><a xlink:title=" ">
<polygon fill="#e0e0e0" stroke="#999999" points="397.5,-217 234.5,-217 234.5,-187 397.5,-187 397.5,-217"/>
<text text-anchor="start" x="242.5" y="-205" font-family="Helvetica,sans-Serif" font-size="10.00">deal.II/multigrid/mg</text>
<text text-anchor="middle" x="316" y="-194" font-family="Helvetica,sans-Serif" font-size="10.00">_transfer_global_coarsening.h</text>
</a>
</g>
</g>
<!-- Node4&#45;&gt;Node40 -->
<g id="edge24_Node000004_Node000040" class="edge">
<title>Node4&#45;&gt;Node40</title>
<g id="a_edge24_Node000004_Node000040"><a xlink:title=" ">
<path fill="none" stroke="#63b8ff" d="M405.51,-252.87C391,-244.78 368.81,-232.42 350.16,-222.03"/>
<polygon fill="#63b8ff" stroke="#63b8ff" points="351.77,-218.92 341.33,-217.11 348.37,-225.04 351.77,-218.92"/>
</a>
</g>
</g>
<!-- Node5&#45;&gt;Node6 -->
<g id="edge5_Node000005_Node000006" class="edge">
<title>Node5&#45;&gt;Node6</title>
<g id="a_edge5_Node000005_Node000006"><a xlink:title=" ">
<path fill="none" stroke="#63b8ff" d="M381.4,-126.44C395.01,-108.25 427.19,-65.21 447.13,-38.55"/>
<polygon fill="#63b8ff" stroke="#63b8ff" points="450.19,-40.3 453.38,-30.2 444.59,-36.11 450.19,-40.3"/>
</a>
</g>
</g>
<!-- Node8 -->
<g id="Node000008" class="node">
<title>Node8</title>
<g id="a_Node000008"><a xlink:href="dem__properties_8h.html" target="_top" xlink:title="DEM particle property definitions and output name management.">
<polygon fill="white" stroke="#666666" points="732,-85 606,-85 606,-66 732,-66 732,-85"/>
<text text-anchor="middle" x="669" y="-73" font-family="Helvetica,sans-Serif" font-size="10.00">core/dem_properties.h</text>
</a>
</g>
</g>
<!-- Node7&#45;&gt;Node8 -->
<g id="edge7_Node000007_Node000008" class="edge">
<title>Node7&#45;&gt;Node8</title>
<g id="a_edge7_Node000007_Node000008"><a xlink:title=" ">
<path fill="none" stroke="#63b8ff" d="M587.05,-192.44C601.43,-172.1 637.88,-120.53 656.95,-93.54"/>
<polygon fill="#63b8ff" stroke="#63b8ff" points="660,-95.3 662.91,-85.12 654.28,-91.26 660,-95.3"/>
</a>
</g>
</g>
<!-- Node10 -->
<g id="Node000010" class="node">
<title>Node10</title>
<g id="a_Node000010"><a xlink:title=" ">
<polygon fill="#e0e0e0" stroke="#999999" points="636.5,-24.5 589.5,-24.5 589.5,-5.5 636.5,-5.5 636.5,-24.5"/>
<text text-anchor="middle" x="613" y="-12.5" font-family="Helvetica,sans-Serif" font-size="10.00">vector</text>
</a>
</g>
</g>
<!-- Node7&#45;&gt;Node10 -->
<g id="edge19_Node000007_Node000010" class="edge">
<title>Node7&#45;&gt;Node10</title>
<g id="a_edge19_Node000007_Node000010"><a xlink:title=" ">
<path fill="none" stroke="#63b8ff" d="M577.07,-192.4C567.61,-170.43 545.69,-110.83 564,-66 569.73,-51.97 581.5,-39.75 592.07,-30.9"/>
<polygon fill="#63b8ff" stroke="#63b8ff" points="594.44,-33.48 600.15,-24.56 590.12,-27.98 594.44,-33.48"/>
</a>
</g>
</g>
<!-- Node11 -->
<g id="Node000011" class="node">
<title>Node11</title>
<g id="a_Node000011"><a xlink:href="shape_8h.html" target="_top" xlink:title=" ">
<polygon fill="#fff0f0" stroke="red" points="749.5,-145.5 670.5,-145.5 670.5,-126.5 749.5,-126.5 749.5,-145.5"/>
<text text-anchor="middle" x="710" y="-133.5" font-family="Helvetica,sans-Serif" font-size="10.00">core/shape.h</text>
</a>
</g>
</g>
<!-- Node7&#45;&gt;Node11 -->
<g id="edge10_Node000007_Node000011" class="edge">
<title>Node7&#45;&gt;Node11</title>
<g id="a_edge10_Node000007_Node000011"><a xlink:title=" ">
<path fill="none" stroke="#63b8ff" d="M598.4,-192.37C620.23,-181.54 657.89,-162.85 683.36,-150.22"/>
<polygon fill="#63b8ff" stroke="#63b8ff" points="685.06,-153.28 692.47,-145.7 681.95,-147.01 685.06,-153.28"/>
</a>
</g>
</g>
<!-- Node13 -->
<g id="Node000013" class="node">
<title>Node13</title>
<g id="a_Node000013"><a xlink:title=" ">
<polygon fill="#e0e0e0" stroke="#999999" points="765,-24.5 655,-24.5 655,-5.5 765,-5.5 765,-24.5"/>
<text text-anchor="middle" x="710" y="-12.5" font-family="Helvetica,sans-Serif" font-size="10.00">deal.II/base/point.h</text>
</a>
</g>
</g>
<!-- Node7&#45;&gt;Node13 -->
<g id="edge18_Node000007_Node000013" class="edge">
<title>Node7&#45;&gt;Node13</title>
<g id="a_edge18_Node000007_Node000013"><a xlink:title=" ">
<path fill="none" stroke="#63b8ff" d="M579.34,-192.38C575.43,-169.31 567.98,-105.3 597,-66 611.09,-46.92 634.09,-34.99 655.67,-27.6"/>
<polygon fill="#63b8ff" stroke="#63b8ff" points="656.97,-30.86 665.45,-24.52 654.86,-24.19 656.97,-30.86"/>
</a>
</g>
</g>
<!-- Node7&#45;&gt;Node38 -->
<g id="edge17_Node000007_Node000038" class="edge">
<title>Node7&#45;&gt;Node38</title>
<g id="a_edge17_Node000007_Node000038"><a xlink:title=" ">
<path fill="none" stroke="#63b8ff" d="M530.05,-194.45C438.85,-182.73 247.93,-158.2 147.66,-145.31"/>
<polygon fill="#63b8ff" stroke="#63b8ff" points="148.02,-141.83 137.65,-144.02 147.13,-148.77 148.02,-141.83"/>
</a>
</g>
</g>
<!-- Node9 -->
<g id="Node000009" class="node">
<title>Node9</title>
<g id="a_Node000009"><a xlink:title=" ">
<polygon fill="#e0e0e0" stroke="#999999" points="827,-24.5 783,-24.5 783,-5.5 827,-5.5 827,-24.5"/>
<text text-anchor="middle" x="805" y="-12.5" font-family="Helvetica,sans-Serif" font-size="10.00">string</text>
</a>
</g>
</g>
<!-- Node8&#45;&gt;Node9 -->
<g id="edge8_Node000008_Node000009" class="edge">
<title>Node8&#45;&gt;Node9</title>
<g id="a_edge8_Node000008_Node000009"><a xlink:title=" ">
<path fill="none" stroke="#63b8ff" d="M689.58,-65.94C710.8,-57.09 744.8,-42.78 774,-30 775,-29.56 776.02,-29.11 777.05,-28.66"/>
<polygon fill="#63b8ff" stroke="#63b8ff" points="778.64,-31.78 786.34,-24.51 775.79,-25.39 778.64,-31.78"/>
</a>
</g>
</g>
<!-- Node8&#45;&gt;Node10 -->
<g id="edge9_Node000008_Node000010" class="edge">
<title>Node8&#45;&gt;Node10</title>
<g id="a_edge9_Node000008_Node000010"><a xlink:title=" ">
<path fill="none" stroke="#63b8ff" d="M660.74,-65.87C652.22,-56.97 638.74,-42.89 628.27,-31.95"/>
<polygon fill="#63b8ff" stroke="#63b8ff" points="630.74,-29.47 621.3,-24.67 625.68,-34.31 630.74,-29.47"/>
</a>
</g>
</g>
<!-- Node11&#45;&gt;Node15 -->
<g id="edge11_Node000011_Node000015" class="edge">
<title>Node11&#45;&gt;Node15</title>
<g id="a_edge11_Node000011_Node000015"><a xlink:title=" ">
<path fill="none" stroke="#63b8ff" d="M722.25,-126.37C735.36,-117.12 756.42,-102.28 772.15,-91.19"/>
<polygon fill="#63b8ff" stroke="#63b8ff" points="774.55,-93.79 780.7,-85.17 770.51,-88.07 774.55,-93.79"/>
</a>
</g>
</g>
<!-- Node15&#45;&gt;Node6 -->
<g id="edge12_Node000015_Node000006" class="edge">
<title>Node15&#45;&gt;Node6</title>
<g id="a_edge12_Node000015_Node000006"><a xlink:title=" ">
<path fill="none" stroke="#63b8ff" d="M749.99,-66.85C696.17,-57.28 603.16,-40.74 537.86,-29.13"/>
<polygon fill="#63b8ff" stroke="#63b8ff" points="538.08,-25.62 527.63,-27.31 536.86,-32.51 538.08,-25.62"/>
</a>
</g>
</g>
<!-- Node15&#45;&gt;Node9 -->
<g id="edge15_Node000015_Node000009" class="edge">
<title>Node15&#45;&gt;Node9</title>
<g id="a_edge15_Node000015_Node000009"><a xlink:title=" ">
<path fill="none" stroke="#63b8ff" d="M794.77,-65.87C796.45,-57.66 799.04,-45.04 801.19,-34.55"/>
<polygon fill="#63b8ff" stroke="#63b8ff" points="804.64,-35.17 803.22,-24.67 797.78,-33.76 804.64,-35.17"/>
</a>
</g>
</g>
<!-- Node15&#45;&gt;Node10 -->
<g id="edge16_Node000015_Node000010" class="edge">
<title>Node15&#45;&gt;Node10</title>
<g id="a_edge16_Node000015_Node000010"><a xlink:title=" ">
<path fill="none" stroke="#63b8ff" d="M761.14,-65.92C731.14,-57.59 685.11,-44.17 646,-30 644.61,-29.5 643.19,-28.97 641.77,-28.42"/>
<polygon fill="#63b8ff" stroke="#63b8ff" points="642.99,-25.14 632.41,-24.64 640.37,-31.63 642.99,-25.14"/>
</a>
</g>
</g>
<!-- Node15&#45;&gt;Node13 -->
<g id="edge13_Node000015_Node000013" class="edge">
<title>Node15&#45;&gt;Node13</title>
<g id="a_edge13_Node000015_Node000013"><a xlink:title=" ">
<path fill="none" stroke="#63b8ff" d="M780.75,-65.87C767.64,-56.62 746.58,-41.78 730.85,-30.69"/>
<polygon fill="#63b8ff" stroke="#63b8ff" points="732.49,-27.57 722.3,-24.67 728.45,-33.29 732.49,-27.57"/>
</a>
</g>
</g>
<!-- Node26 -->
<g id="Node000026" class="node">
<title>Node26</title>
<g id="a_Node000026"><a xlink:title=" ">
<polygon fill="#e0e0e0" stroke="#999999" points="908,-24.5 870,-24.5 870,-5.5 908,-5.5 908,-24.5"/>
<text text-anchor="middle" x="889" y="-12.5" font-family="Helvetica,sans-Serif" font-size="10.00">map</text>
</a>
</g>
</g>
<!-- Node15&#45;&gt;Node26 -->
<g id="edge14_Node000015_Node000026" class="edge">
<title>Node15&#45;&gt;Node26</title>
<g id="a_edge14_Node000015_Node000026"><a xlink:title=" ">
<path fill="none" stroke="#63b8ff" d="M807.17,-65.87C822.69,-56.41 847.83,-41.09 866.15,-29.92"/>
<polygon fill="#63b8ff" stroke="#63b8ff" points="868.06,-32.86 874.78,-24.67 864.42,-26.88 868.06,-32.86"/>
</a>
</g>
</g>
<!-- Node41&#45;&gt;Node4 -->
<g id="edge26_Node000041_Node000004" class="edge">
<title>Node41&#45;&gt;Node4</title>
<g id="a_edge26_Node000041_Node000004"><a xlink:title=" ">
<path fill="none" stroke="#63b8ff" d="M521.84,-313.49C502.27,-303.79 470.03,-287.81 447.28,-276.53"/>
<polygon fill="#63b8ff" stroke="#63b8ff" points="448.69,-273.32 438.18,-272.02 445.58,-279.59 448.69,-273.32"/>
</a>
</g>
</g>
<!-- Node41&#45;&gt;Node6 -->
<g id="edge27_Node000041_Node000006" class="edge">
<title>Node41&#45;&gt;Node6</title>
<g id="a_edge27_Node000041_Node000006"><a xlink:title=" ">
<path fill="none" stroke="#63b8ff" d="M534.31,-313.33C524.36,-294.08 502,-246.05 502,-203 502,-203 502,-203 502,-135 502,-100.46 487.3,-62.85 476.18,-39.34"/>
<polygon fill="#63b8ff" stroke="#63b8ff" points="479.24,-37.62 471.69,-30.19 472.95,-40.71 479.24,-37.62"/>
</a>
</g>
</g>
<!-- Node41&#45;&gt;Node9 -->
<g id="edge30_Node000041_Node000009" class="edge">
<title>Node41&#45;&gt;Node9</title>
<g id="a_edge30_Node000041_Node000009"><a xlink:title=" ">
<path fill="none" stroke="#63b8ff" d="M594.13,-313.48C686.86,-297.58 864,-259.78 864,-203 864,-203 864,-203 864,-135 864,-103.19 859.45,-94.33 845,-66 838.73,-53.72 829.15,-41.6 820.93,-32.37"/>
<polygon fill="#63b8ff" stroke="#63b8ff" points="823.27,-29.74 813.91,-24.78 818.14,-34.5 823.27,-29.74"/>
</a>
</g>
</g>
<!-- Node41&#45;&gt;Node26 -->
<g id="edge28_Node000041_Node000026" class="edge">
<title>Node41&#45;&gt;Node26</title>
<g id="a_edge28_Node000041_Node000026"><a xlink:title=" ">
<path fill="none" stroke="#63b8ff" d="M591.57,-313.47C663.92,-301.54 787.52,-280.38 807,-272 854.94,-251.38 902,-255.18 902,-203 902,-203 902,-203 902,-135 902,-99.28 896.14,-57.88 892.29,-34.53"/>
<polygon fill="#63b8ff" stroke="#63b8ff" points="895.73,-33.89 890.59,-24.62 888.83,-35.07 895.73,-33.89"/>
</a>
</g>
</g>
<!-- Node42 -->
<g id="Node000042" class="node">
<title>Node42</title>
<g id="a_Node000042"><a xlink:title=" ">
<polygon fill="#e0e0e0" stroke="#999999" points="562,-272 530,-272 530,-253 562,-253 562,-272"/>
<text text-anchor="middle" x="546" y="-260" font-family="Helvetica,sans-Serif" font-size="10.00">set</text>
</a>
</g>
</g>
<!-- Node41&#45;&gt;Node42 -->
<g id="edge29_Node000041_Node000042" class="edge">
<title>Node41&#45;&gt;Node42</title>
<g id="a_edge29_Node000041_Node000042"><a xlink:title=" ">
<path fill="none" stroke="#63b8ff" d="M540.03,-313.37C541,-305.25 542.49,-292.81 543.74,-282.39"/>
<polygon fill="#63b8ff" stroke="#63b8ff" points="547.25,-282.51 544.96,-272.17 540.3,-281.68 547.25,-282.51"/>
</a>
</g>
</g>
<!-- Node43&#45;&gt;Node4 -->
<g id="edge32_Node000043_Node000004" class="edge">
<title>Node43&#45;&gt;Node4</title>
<g id="a_edge32_Node000043_Node000004"><a xlink:title=" ">
<path fill="none" stroke="#63b8ff" d="M242.13,-308.8C282.93,-298.47 339.01,-284.26 377.43,-274.53"/>
<polygon fill="#63b8ff" stroke="#63b8ff" points="378.46,-277.88 387.29,-272.04 376.74,-271.1 378.46,-277.88"/>
</a>
</g>
</g>
<!-- Node43&#45;&gt;Node6 -->
<g id="edge33_Node000043_Node000006" class="edge">
<title>Node43&#45;&gt;Node6</title>
<g id="a_edge33_Node000043_Node000006"><a xlink:title=" ">
<path fill="none" stroke="#63b8ff" d="M137.83,-312.6C81.58,-299.11 0,-268.29 0,-203 0,-203 0,-203 0,-135 0,-55.45 259.15,-28.34 390.11,-19.72"/>
<polygon fill="#63b8ff" stroke="#63b8ff" points="390.7,-23.19 400.46,-19.06 390.25,-16.2 390.7,-23.19"/>
</a>
</g>
</g>
<!-- Node43&#45;&gt;Node38 -->
<g id="edge34_Node000043_Node000038" class="edge">
<title>Node43&#45;&gt;Node38</title>
<g id="a_edge34_Node000043_Node000038"><a xlink:title=" ">
<path fill="none" stroke="#63b8ff" d="M165.71,-307.87C138.47,-290.47 95.8,-258.09 78,-217 70.38,-199.4 72.41,-177.57 75.91,-161.16"/>
<polygon fill="#63b8ff" stroke="#63b8ff" points="79.36,-161.8 78.34,-151.26 72.56,-160.13 79.36,-161.8"/>
</a>
</g>
</g>
<!-- Node44&#45;&gt;Node41 -->
<g id="edge36_Node000044_Node000041" class="edge">
<title>Node44&#45;&gt;Node41</title>
<g id="a_edge36_Node000044_Node000041"><a xlink:title=" ">
<path fill="none" stroke="#63b8ff" d="M573.1,-373.87C567.25,-365.31 558.13,-351.97 550.79,-341.24"/>
<polygon fill="#63b8ff" stroke="#63b8ff" points="553.46,-338.95 544.93,-332.67 547.68,-342.9 553.46,-338.95"/>
</a>
</g>
</g>
<!-- Node45 -->
<g id="Node000045" class="node">
<title>Node45</title>
<g id="a_Node000045"><a xlink:title=" ">
<polygon fill="#e0e0e0" stroke="#999999" points="693,-332.5 639,-332.5 639,-313.5 693,-313.5 693,-332.5"/>
<text text-anchor="middle" x="666" y="-320.5" font-family="Helvetica,sans-Serif" font-size="10.00">random</text>
</a>
</g>
</g>
<!-- Node44&#45;&gt;Node45 -->
<g id="edge37_Node000044_Node000045" class="edge">
<title>Node44&#45;&gt;Node45</title>
<g id="a_edge37_Node000044_Node000045"><a xlink:title=" ">
<path fill="none" stroke="#63b8ff" d="M591.84,-373.87C605.72,-364.54 628.07,-349.51 644.61,-338.38"/>
<polygon fill="#63b8ff" stroke="#63b8ff" points="646.76,-341.15 653.11,-332.67 642.86,-335.34 646.76,-341.15"/>
</a>
</g>
</g>
</g>
</svg>
