<?xml version="1.0" encoding="UTF-8" standalone="no"?>
<!DOCTYPE svg PUBLIC "-//W3C//DTD SVG 1.1//EN"
 "http://www.w3.org/Graphics/SVG/1.1/DTD/svg11.dtd">
<!-- Generated by graphviz version 2.43.0 (0)
 -->
<!-- Title: /home/runner/work/lethe/lethe/include/dem/insertion_list.h Pages: 1 -->
<svg width="812pt" height="214pt"
 viewBox="0.00 0.00 812.00 214.00" xmlns="http://www.w3.org/2000/svg" xmlns:xlink="http://www.w3.org/1999/xlink">
<g id="graph0" class="graph" transform="scale(1 1) rotate(0) translate(4 210)">
<title>/home/runner/work/lethe/lethe/include/dem/insertion_list.h</title>
<!-- Node1 -->
<g id="Node000001" class="node">
<title>Node1</title>
<g id="a_Node000001"><a xlink:title=" ">
<polygon fill="#999999" stroke="#666666" points="562,-206 409,-206 409,-165 562,-165 562,-206"/>
<text text-anchor="start" x="417" y="-194" font-family="Helvetica,sans-Serif" font-size="10.00">/home/runner/work/lethe</text>
<text text-anchor="start" x="417" y="-183" font-family="Helvetica,sans-Serif" font-size="10.00">/lethe/include/dem/insertion</text>
<text text-anchor="middle" x="485.5" y="-172" font-family="Helvetica,sans-Serif" font-size="10.00">_list.h</text>
</a>
</g>
</g>
<!-- Node2 -->
<g id="Node000002" class="node">
<title>Node2</title>
<g id="a_Node000002"><a xlink:href="set__insertion__method_8h.html" target="_top" xlink:title=" ">
<polygon fill="white" stroke="#666666" points="298,-129 161,-129 161,-88 298,-88 298,-129"/>
<text text-anchor="start" x="169" y="-117" font-family="Helvetica,sans-Serif" font-size="10.00">/home/runner/work/lethe</text>
<text text-anchor="start" x="169" y="-106" font-family="Helvetica,sans-Serif" font-size="10.00">/lethe/include/dem/set</text>
<text text-anchor="middle" x="229.5" y="-95" font-family="Helvetica,sans-Serif" font-size="10.00">_insertion_method.h</text>
</a>
</g>
</g>
<!-- Node1&#45;&gt;Node2 -->
<g id="edge1_Node000001_Node000002" class="edge">
<title>Node1&#45;&gt;Node2</title>
<g id="a_edge1_Node000001_Node000002"><a xlink:title=" ">
<path fill="none" stroke="#63b8ff" d="M408.97,-162.08C373.1,-151.57 330.75,-139.16 296.2,-129.04"/>
<polygon fill="#63b8ff" stroke="#63b8ff" points="408.33,-165.54 418.91,-164.99 410.29,-158.82 408.33,-165.54"/>
</a>
</g>
</g>
<!-- Node6 -->
<g id="Node000006" class="node">
<title>Node6</title>
<g id="a_Node000006"><a xlink:href="insertion_8cc.html" target="_top" xlink:title=" ">
<polygon fill="white" stroke="#666666" points="480.5,-123.5 316.5,-123.5 316.5,-93.5 480.5,-93.5 480.5,-123.5"/>
<text text-anchor="start" x="324.5" y="-111.5" font-family="Helvetica,sans-Serif" font-size="10.00">/home/runner/work/lethe</text>
<text text-anchor="middle" x="398.5" y="-100.5" font-family="Helvetica,sans-Serif" font-size="10.00">/lethe/source/dem/insertion.cc</text>
</a>
</g>
</g>
<!-- Node1&#45;&gt;Node6 -->
<g id="edge5_Node000001_Node000006" class="edge">
<title>Node1&#45;&gt;Node6</title>
<g id="a_edge5_Node000001_Node000006"><a xlink:title=" ">
<path fill="none" stroke="#63b8ff" d="M454.96,-158.17C441.47,-146.55 426.16,-133.34 414.89,-123.63"/>
<polygon fill="#63b8ff" stroke="#63b8ff" points="452.78,-160.92 462.64,-164.79 457.35,-155.61 452.78,-160.92"/>
</a>
</g>
</g>
<!-- Node7 -->
<g id="Node000007" class="node">
<title>Node7</title>
<g id="a_Node000007"><a xlink:href="insertion__list_8cc.html" target="_top" xlink:title=" ">
<polygon fill="white" stroke="#666666" points="648.5,-129 498.5,-129 498.5,-88 648.5,-88 648.5,-129"/>
<text text-anchor="start" x="506.5" y="-117" font-family="Helvetica,sans-Serif" font-size="10.00">/home/runner/work/lethe</text>
<text text-anchor="start" x="506.5" y="-106" font-family="Helvetica,sans-Serif" font-size="10.00">/lethe/source/dem/insertion</text>
<text text-anchor="middle" x="573.5" y="-95" font-family="Helvetica,sans-Serif" font-size="10.00">_list.cc</text>
</a>
</g>
</g>
<!-- Node1&#45;&gt;Node7 -->
<g id="edge6_Node000001_Node000007" class="edge">
<title>Node1&#45;&gt;Node7</title>
<g id="a_edge6_Node000001_Node000007"><a xlink:title=" ">
<path fill="none" stroke="#63b8ff" d="M516.51,-158.07C527.71,-148.52 540.15,-137.93 550.53,-129.07"/>
<polygon fill="#63b8ff" stroke="#63b8ff" points="513.96,-155.64 508.62,-164.79 518.5,-160.97 513.96,-155.64"/>
</a>
</g>
</g>
<!-- Node8 -->
<g id="Node000008" class="node">
<title>Node8</title>
<g id="a_Node000008"><a xlink:href="ray__tracing_8cc.html" target="_top" xlink:title=" ">
<polygon fill="white" stroke="#666666" points="804,-129 667,-129 667,-88 804,-88 804,-129"/>
<text text-anchor="start" x="675" y="-117" font-family="Helvetica,sans-Serif" font-size="10.00">/home/runner/work/lethe</text>
<text text-anchor="start" x="675" y="-106" font-family="Helvetica,sans-Serif" font-size="10.00">/lethe/source/dem/ray</text>
<text text-anchor="middle" x="735.5" y="-95" font-family="Helvetica,sans-Serif" font-size="10.00">_tracing.cc</text>
</a>
</g>
</g>
<!-- Node1&#45;&gt;Node8 -->
<g id="edge7_Node000001_Node000008" class="edge">
<title>Node1&#45;&gt;Node8</title>
<g id="a_edge7_Node000001_Node000008"><a xlink:title=" ">
<path fill="none" stroke="#63b8ff" d="M560.23,-162.08C595.27,-151.57 636.62,-139.16 670.36,-129.04"/>
<polygon fill="#63b8ff" stroke="#63b8ff" points="559.1,-158.76 550.53,-164.99 561.12,-165.47 559.1,-158.76"/>
</a>
</g>
</g>
<!-- Node3 -->
<g id="Node000003" class="node">
<title>Node3</title>
<g id="a_Node000003"><a xlink:href="dem_8cc.html" target="_top" xlink:title=" ">
<polygon fill="white" stroke="#666666" points="143,-41 0,-41 0,-11 143,-11 143,-41"/>
<text text-anchor="start" x="8" y="-29" font-family="Helvetica,sans-Serif" font-size="10.00">/home/runner/work/lethe</text>
<text text-anchor="middle" x="71.5" y="-18" font-family="Helvetica,sans-Serif" font-size="10.00">/lethe/source/dem/dem.cc</text>
</a>
</g>
</g>
<!-- Node2&#45;&gt;Node3 -->
<g id="edge2_Node000002_Node000003" class="edge">
<title>Node2&#45;&gt;Node3</title>
<g id="a_edge2_Node000002_Node000003"><a xlink:title=" ">
<path fill="none" stroke="#63b8ff" d="M181.6,-83.09C154.7,-69.39 122.07,-52.77 99.35,-41.19"/>
<polygon fill="#63b8ff" stroke="#63b8ff" points="180.35,-86.39 190.85,-87.81 183.53,-80.15 180.35,-86.39"/>
</a>
</g>
</g>
<!-- Node4 -->
<g id="Node000004" class="node">
<title>Node4</title>
<g id="a_Node000004"><a xlink:href="cfd__dem__coupling_8cc.html" target="_top" xlink:title=" ">
<polygon fill="white" stroke="#666666" points="298,-46.5 161,-46.5 161,-5.5 298,-5.5 298,-46.5"/>
<text text-anchor="start" x="169" y="-34.5" font-family="Helvetica,sans-Serif" font-size="10.00">/home/runner/work/lethe</text>
<text text-anchor="start" x="169" y="-23.5" font-family="Helvetica,sans-Serif" font-size="10.00">/lethe/source/fem&#45;dem</text>
<text text-anchor="middle" x="229.5" y="-12.5" font-family="Helvetica,sans-Serif" font-size="10.00">/cfd_dem_coupling.cc</text>
</a>
</g>
</g>
<!-- Node2&#45;&gt;Node4 -->
<g id="edge3_Node000002_Node000004" class="edge">
<title>Node2&#45;&gt;Node4</title>
<g id="a_edge3_Node000002_Node000004"><a xlink:title=" ">
<path fill="none" stroke="#63b8ff" d="M229.5,-77.37C229.5,-67.1 229.5,-55.9 229.5,-46.67"/>
<polygon fill="#63b8ff" stroke="#63b8ff" points="226,-77.6 229.5,-87.6 233,-77.6 226,-77.6"/>
</a>
</g>
</g>
<!-- Node5 -->
<g id="Node000005" class="node">
<title>Node5</title>
<g id="a_Node000005"><a xlink:href="cfd__dem__coupling__matrix__free_8cc.html" target="_top" xlink:title=" ">
<polygon fill="white" stroke="#666666" points="462.5,-52 316.5,-52 316.5,0 462.5,0 462.5,-52"/>
<text text-anchor="start" x="324.5" y="-40" font-family="Helvetica,sans-Serif" font-size="10.00">/home/runner/work/lethe</text>
<text text-anchor="start" x="324.5" y="-29" font-family="Helvetica,sans-Serif" font-size="10.00">/lethe/source/fem&#45;dem</text>
<text text-anchor="start" x="324.5" y="-18" font-family="Helvetica,sans-Serif" font-size="10.00">/cfd_dem_coupling_matrix</text>
<text text-anchor="middle" x="389.5" y="-7" font-family="Helvetica,sans-Serif" font-size="10.00">_free.cc</text>
</a>
</g>
</g>
<!-- Node2&#45;&gt;Node5 -->
<g id="edge4_Node000002_Node000005" class="edge">
<title>Node2&#45;&gt;Node5</title>
<g id="a_edge4_Node000002_Node000005"><a xlink:title=" ">
<path fill="none" stroke="#63b8ff" d="M277.68,-83.26C297.24,-73.42 319.83,-62.06 339.56,-52.13"/>
<polygon fill="#63b8ff" stroke="#63b8ff" points="276,-80.19 268.64,-87.81 279.15,-86.44 276,-80.19"/>
</a>
</g>
</g>
</g>
</svg>
