<?xml version="1.0" encoding="UTF-8" standalone="no"?>
<!DOCTYPE svg PUBLIC "-//W3C//DTD SVG 1.1//EN"
 "http://www.w3.org/Graphics/SVG/1.1/DTD/svg11.dtd">
<!-- Generated by graphviz version 2.43.0 (0)
 -->
<!-- Title: /home/runner/work/lethe/lethe/source/dem/insertion_file.cc Pages: 1 -->
<svg width="2255pt" height="544pt"
 viewBox="0.00 0.00 2255.00 544.00" xmlns="http://www.w3.org/2000/svg" xmlns:xlink="http://www.w3.org/1999/xlink">
<g id="graph0" class="graph" transform="scale(1 1) rotate(0) translate(4 540)">
<title>/home/runner/work/lethe/lethe/source/dem/insertion_file.cc</title>
<!-- Node1 -->
<g id="Node000001" class="node">
<title>Node1</title>
<g id="a_Node000001"><a xlink:title=" ">
<polygon fill="#999999" stroke="#666666" points="569.5,-536 419.5,-536 419.5,-495 569.5,-495 569.5,-536"/>
<text text-anchor="start" x="427.5" y="-524" font-family="Helvetica,sans-Serif" font-size="10.00">/home/runner/work/lethe</text>
<text text-anchor="start" x="427.5" y="-513" font-family="Helvetica,sans-Serif" font-size="10.00">/lethe/source/dem/insertion</text>
<text text-anchor="middle" x="494.5" y="-502" font-family="Helvetica,sans-Serif" font-size="10.00">_file.cc</text>
</a>
</g>
</g>
<!-- Node2 -->
<g id="Node000002" class="node">
<title>Node2</title>
<g id="a_Node000002"><a xlink:href="core_2utilities_8h.html" target="_top" xlink:title=" ">
<polygon fill="white" stroke="#666666" points="1121.5,-156.5 1035.5,-156.5 1035.5,-137.5 1121.5,-137.5 1121.5,-156.5"/>
<text text-anchor="middle" x="1078.5" y="-144.5" font-family="Helvetica,sans-Serif" font-size="10.00">core/utilities.h</text>
</a>
</g>
</g>
<!-- Node1&#45;&gt;Node2 -->
<g id="edge1_Node000001_Node000002" class="edge">
<title>Node1&#45;&gt;Node2</title>
<g id="a_edge1_Node000001_Node000002"><a xlink:title=" ">
<path fill="none" stroke="#63b8ff" d="M449.72,-494.85C413.16,-475.42 367.5,-441.88 367.5,-395.5 367.5,-395.5 367.5,-395.5 367.5,-267 367.5,-200.37 859.47,-162.25 1024.94,-151.31"/>
<polygon fill="#63b8ff" stroke="#63b8ff" points="1025.61,-154.78 1035.36,-150.63 1025.15,-147.79 1025.61,-154.78"/>
</a>
</g>
</g>
<!-- Node22 -->
<g id="Node000022" class="node">
<title>Node22</title>
<g id="a_Node000022"><a xlink:href="insertion__file_8h.html" target="_top" xlink:title=" ">
<polygon fill="white" stroke="#666666" points="679,-459 566,-459 566,-440 679,-440 679,-459"/>
<text text-anchor="middle" x="622.5" y="-447" font-family="Helvetica,sans-Serif" font-size="10.00">dem/insertion_file.h</text>
</a>
</g>
</g>
<!-- Node1&#45;&gt;Node22 -->
<g id="edge22_Node000001_Node000022" class="edge">
<title>Node1&#45;&gt;Node22</title>
<g id="a_edge22_Node000001_Node000022"><a xlink:title=" ">
<path fill="none" stroke="#63b8ff" d="M533.6,-494.95C553.82,-484.84 577.97,-472.76 596,-463.75"/>
<polygon fill="#63b8ff" stroke="#63b8ff" points="597.94,-466.69 605.32,-459.09 594.81,-460.43 597.94,-466.69"/>
</a>
</g>
</g>
<!-- Node3 -->
<g id="Node000003" class="node">
<title>Node3</title>
<g id="a_Node000003"><a xlink:href="output__struct_8h.html" target="_top" xlink:title=" ">
<polygon fill="white" stroke="#666666" points="1300.5,-90.5 1186.5,-90.5 1186.5,-71.5 1300.5,-71.5 1300.5,-90.5"/>
<text text-anchor="middle" x="1243.5" y="-78.5" font-family="Helvetica,sans-Serif" font-size="10.00">core/output_struct.h</text>
</a>
</g>
</g>
<!-- Node2&#45;&gt;Node3 -->
<g id="edge2_Node000002_Node000003" class="edge">
<title>Node2&#45;&gt;Node3</title>
<g id="a_edge2_Node000002_Node000003"><a xlink:title=" ">
<path fill="none" stroke="#63b8ff" d="M1100.75,-137.37C1129.37,-126.27 1179.26,-106.92 1211.83,-94.28"/>
<polygon fill="#63b8ff" stroke="#63b8ff" points="1213.28,-97.48 1221.34,-90.6 1210.75,-90.95 1213.28,-97.48"/>
</a>
</g>
</g>
<!-- Node4 -->
<g id="Node000004" class="node">
<title>Node4</title>
<g id="a_Node000004"><a xlink:title=" ">
<polygon fill="#e0e0e0" stroke="#999999" points="1209,-30 1108,-30 1108,0 1209,0 1209,-30"/>
<text text-anchor="start" x="1116" y="-18" font-family="Helvetica,sans-Serif" font-size="10.00">deal.II/base/table</text>
<text text-anchor="middle" x="1158.5" y="-7" font-family="Helvetica,sans-Serif" font-size="10.00">_handler.h</text>
</a>
</g>
</g>
<!-- Node2&#45;&gt;Node4 -->
<g id="edge8_Node000002_Node000004" class="edge">
<title>Node2&#45;&gt;Node4</title>
<g id="a_edge8_Node000002_Node000004"><a xlink:title=" ">
<path fill="none" stroke="#63b8ff" d="M1093.97,-137.36C1108,-128.72 1128.18,-114.11 1139.5,-96 1150.05,-79.12 1154.75,-56.89 1156.83,-40.15"/>
<polygon fill="#63b8ff" stroke="#63b8ff" points="1160.33,-40.36 1157.86,-30.05 1153.37,-39.65 1160.33,-40.36"/>
</a>
</g>
</g>
<!-- Node6 -->
<g id="Node000006" class="node">
<title>Node6</title>
<g id="a_Node000006"><a xlink:title=" ">
<polygon fill="#e0e0e0" stroke="#999999" points="1448.5,-96 1318.5,-96 1318.5,-66 1448.5,-66 1448.5,-96"/>
<text text-anchor="start" x="1326.5" y="-84" font-family="Helvetica,sans-Serif" font-size="10.00">deal.II/base/conditional</text>
<text text-anchor="middle" x="1383.5" y="-73" font-family="Helvetica,sans-Serif" font-size="10.00">_ostream.h</text>
</a>
</g>
</g>
<!-- Node2&#45;&gt;Node6 -->
<g id="edge5_Node000002_Node000006" class="edge">
<title>Node2&#45;&gt;Node6</title>
<g id="a_edge5_Node000002_Node000006"><a xlink:title=" ">
<path fill="none" stroke="#63b8ff" d="M1119.32,-137.44C1167.5,-127.32 1248.61,-110.31 1308.27,-97.79"/>
<polygon fill="#63b8ff" stroke="#63b8ff" points="1309.33,-101.14 1318.4,-95.66 1307.89,-94.29 1309.33,-101.14"/>
</a>
</g>
</g>
<!-- Node7 -->
<g id="Node000007" class="node">
<title>Node7</title>
<g id="a_Node000007"><a xlink:title=" ">
<polygon fill="#e0e0e0" stroke="#999999" points="1906,-96 1779,-96 1779,-66 1906,-66 1906,-96"/>
<text text-anchor="start" x="1787" y="-84" font-family="Helvetica,sans-Serif" font-size="10.00">deal.II/base/parameter</text>
<text text-anchor="middle" x="1842.5" y="-73" font-family="Helvetica,sans-Serif" font-size="10.00">_handler.h</text>
</a>
</g>
</g>
<!-- Node2&#45;&gt;Node7 -->
<g id="edge6_Node000002_Node000007" class="edge">
<title>Node2&#45;&gt;Node7</title>
<g id="a_edge6_Node000002_Node000007"><a xlink:title=" ">
<path fill="none" stroke="#63b8ff" d="M1121.54,-144.64C1229,-140.87 1517.88,-128.43 1768.83,-95.97"/>
<polygon fill="#63b8ff" stroke="#63b8ff" points="1769.41,-99.42 1778.87,-94.66 1768.5,-92.48 1769.41,-99.42"/>
</a>
</g>
</g>
<!-- Node8 -->
<g id="Node000008" class="node">
<title>Node8</title>
<g id="a_Node000008"><a xlink:title=" ">
<polygon fill="#e0e0e0" stroke="#999999" points="1760.5,-90.5 1650.5,-90.5 1650.5,-71.5 1760.5,-71.5 1760.5,-90.5"/>
<text text-anchor="middle" x="1705.5" y="-78.5" font-family="Helvetica,sans-Serif" font-size="10.00">deal.II/base/point.h</text>
</a>
</g>
</g>
<!-- Node2&#45;&gt;Node8 -->
<g id="edge7_Node000002_Node000008" class="edge">
<title>Node2&#45;&gt;Node8</title>
<g id="a_edge7_Node000002_Node000008"><a xlink:title=" ">
<path fill="none" stroke="#63b8ff" d="M1121.81,-144.03C1216.52,-139.31 1448.96,-125.49 1641.5,-96 1647.7,-95.05 1654.19,-93.86 1660.57,-92.58"/>
<polygon fill="#63b8ff" stroke="#63b8ff" points="1661.37,-95.99 1670.44,-90.51 1659.93,-89.14 1661.37,-95.99"/>
</a>
</g>
</g>
<!-- Node9 -->
<g id="Node000009" class="node">
<title>Node9</title>
<g id="a_Node000009"><a xlink:title=" ">
<polygon fill="#e0e0e0" stroke="#999999" points="510,-90.5 395,-90.5 395,-71.5 510,-71.5 510,-90.5"/>
<text text-anchor="middle" x="452.5" y="-78.5" font-family="Helvetica,sans-Serif" font-size="10.00">deal.II/base/tensor.h</text>
</a>
</g>
</g>
<!-- Node2&#45;&gt;Node9 -->
<g id="edge9_Node000002_Node000009" class="edge">
<title>Node2&#45;&gt;Node9</title>
<g id="a_edge9_Node000002_Node000009"><a xlink:title=" ">
<path fill="none" stroke="#63b8ff" d="M1035.16,-143.85C940.95,-138.8 710.57,-124.41 519.5,-96 513.1,-95.05 506.39,-93.87 499.79,-92.6"/>
<polygon fill="#63b8ff" stroke="#63b8ff" points="500.07,-89.08 489.57,-90.55 498.69,-95.95 500.07,-89.08"/>
</a>
</g>
</g>
<!-- Node10 -->
<g id="Node000010" class="node">
<title>Node10</title>
<g id="a_Node000010"><a xlink:title=" ">
<polygon fill="#e0e0e0" stroke="#999999" points="668.5,-90.5 528.5,-90.5 528.5,-71.5 668.5,-71.5 668.5,-90.5"/>
<text text-anchor="middle" x="598.5" y="-78.5" font-family="Helvetica,sans-Serif" font-size="10.00">deal.II/dofs/dof_handler.h</text>
</a>
</g>
</g>
<!-- Node2&#45;&gt;Node10 -->
<g id="edge10_Node000002_Node000010" class="edge">
<title>Node2&#45;&gt;Node10</title>
<g id="a_edge10_Node000002_Node000010"><a xlink:title=" ">
<path fill="none" stroke="#63b8ff" d="M1035.38,-141.36C961.81,-133.28 807.4,-115.6 677.5,-96 670.03,-94.87 662.18,-93.6 654.45,-92.28"/>
<polygon fill="#63b8ff" stroke="#63b8ff" points="654.84,-88.8 644.39,-90.54 653.64,-95.69 654.84,-88.8"/>
</a>
</g>
</g>
<!-- Node11 -->
<g id="Node000011" class="node">
<title>Node11</title>
<g id="a_Node000011"><a xlink:title=" ">
<polygon fill="#e0e0e0" stroke="#999999" points="806,-90.5 687,-90.5 687,-71.5 806,-71.5 806,-90.5"/>
<text text-anchor="middle" x="746.5" y="-78.5" font-family="Helvetica,sans-Serif" font-size="10.00">deal.II/fe/fe_values.h</text>
</a>
</g>
</g>
<!-- Node2&#45;&gt;Node11 -->
<g id="edge11_Node000002_Node000011" class="edge">
<title>Node2&#45;&gt;Node11</title>
<g id="a_edge11_Node000002_Node000011"><a xlink:title=" ">
<path fill="none" stroke="#63b8ff" d="M1035.19,-137.93C983.03,-128.18 892.8,-111.19 815.5,-96 809.81,-94.88 803.87,-93.7 797.95,-92.51"/>
<polygon fill="#63b8ff" stroke="#63b8ff" points="798.57,-89.07 788.08,-90.52 797.19,-95.93 798.57,-89.07"/>
</a>
</g>
</g>
<!-- Node12 -->
<g id="Node000012" class="node">
<title>Node12</title>
<g id="a_Node000012"><a xlink:title=" ">
<polygon fill="#e0e0e0" stroke="#999999" points="131,-96 0,-96 0,-66 131,-66 131,-96"/>
<text text-anchor="start" x="8" y="-84" font-family="Helvetica,sans-Serif" font-size="10.00">deal.II/particles/particle</text>
<text text-anchor="middle" x="65.5" y="-73" font-family="Helvetica,sans-Serif" font-size="10.00">_iterator.h</text>
</a>
</g>
</g>
<!-- Node2&#45;&gt;Node12 -->
<g id="edge12_Node000002_Node000012" class="edge">
<title>Node2&#45;&gt;Node12</title>
<g id="a_edge12_Node000002_Node000012"><a xlink:title=" ">
<path fill="none" stroke="#63b8ff" d="M1035.27,-145.75C902.84,-144.55 491.04,-137.6 141.27,-96.11"/>
<polygon fill="#63b8ff" stroke="#63b8ff" points="141.54,-92.62 131.2,-94.9 140.71,-99.57 141.54,-92.62"/>
</a>
</g>
</g>
<!-- Node13 -->
<g id="Node000013" class="node">
<title>Node13</title>
<g id="a_Node000013"><a xlink:title=" ">
<polygon fill="#e0e0e0" stroke="#999999" points="254,-96 149,-96 149,-66 254,-66 254,-96"/>
<text text-anchor="start" x="157" y="-84" font-family="Helvetica,sans-Serif" font-size="10.00">boost/archive/text</text>
<text text-anchor="middle" x="201.5" y="-73" font-family="Helvetica,sans-Serif" font-size="10.00">_iarchive.hpp</text>
</a>
</g>
</g>
<!-- Node2&#45;&gt;Node13 -->
<g id="edge13_Node000002_Node000013" class="edge">
<title>Node2&#45;&gt;Node13</title>
<g id="a_edge13_Node000002_Node000013"><a xlink:title=" ">
<path fill="none" stroke="#63b8ff" d="M1035.34,-145.85C914.7,-144.89 563.74,-138.49 264.48,-96.13"/>
<polygon fill="#63b8ff" stroke="#63b8ff" points="264.7,-92.63 254.3,-94.68 263.7,-99.56 264.7,-92.63"/>
</a>
</g>
</g>
<!-- Node14 -->
<g id="Node000014" class="node">
<title>Node14</title>
<g id="a_Node000014"><a xlink:title=" ">
<polygon fill="#e0e0e0" stroke="#999999" points="377,-96 272,-96 272,-66 377,-66 377,-96"/>
<text text-anchor="start" x="280" y="-84" font-family="Helvetica,sans-Serif" font-size="10.00">boost/archive/text</text>
<text text-anchor="middle" x="324.5" y="-73" font-family="Helvetica,sans-Serif" font-size="10.00">_oarchive.hpp</text>
</a>
</g>
</g>
<!-- Node2&#45;&gt;Node14 -->
<g id="edge14_Node000002_Node000014" class="edge">
<title>Node2&#45;&gt;Node14</title>
<g id="a_edge14_Node000002_Node000014"><a xlink:title=" ">
<path fill="none" stroke="#63b8ff" d="M1035.26,-145.18C927.32,-142.66 637.24,-132.84 387.3,-96.13"/>
<polygon fill="#63b8ff" stroke="#63b8ff" points="387.71,-92.65 377.31,-94.64 386.68,-99.57 387.71,-92.65"/>
</a>
</g>
</g>
<!-- Node15 -->
<g id="Node000015" class="node">
<title>Node15</title>
<g id="a_Node000015"><a xlink:title=" ">
<polygon fill="#e0e0e0" stroke="#999999" points="934.5,-96 824.5,-96 824.5,-66 934.5,-66 934.5,-96"/>
<text text-anchor="start" x="832.5" y="-84" font-family="Helvetica,sans-Serif" font-size="10.00">boost/math/special</text>
<text text-anchor="middle" x="879.5" y="-73" font-family="Helvetica,sans-Serif" font-size="10.00">_functions/erf.hpp</text>
</a>
</g>
</g>
<!-- Node2&#45;&gt;Node15 -->
<g id="edge15_Node000002_Node000015" class="edge">
<title>Node2&#45;&gt;Node15</title>
<g id="a_edge15_Node000002_Node000015"><a xlink:title=" ">
<path fill="none" stroke="#63b8ff" d="M1051.66,-137.37C1021.47,-127.66 971.66,-111.64 933.36,-99.32"/>
<polygon fill="#63b8ff" stroke="#63b8ff" points="933.98,-95.85 923.39,-96.12 931.84,-102.51 933.98,-95.85"/>
</a>
</g>
</g>
<!-- Node16 -->
<g id="Node000016" class="node">
<title>Node16</title>
<g id="a_Node000016"><a xlink:title=" ">
<polygon fill="#e0e0e0" stroke="#999999" points="1008,-90.5 953,-90.5 953,-71.5 1008,-71.5 1008,-90.5"/>
<text text-anchor="middle" x="980.5" y="-78.5" font-family="Helvetica,sans-Serif" font-size="10.00">fstream</text>
</a>
</g>
</g>
<!-- Node2&#45;&gt;Node16 -->
<g id="edge16_Node000002_Node000016" class="edge">
<title>Node2&#45;&gt;Node16</title>
<g id="a_edge16_Node000002_Node000016"><a xlink:title=" ">
<path fill="none" stroke="#63b8ff" d="M1065.28,-137.37C1049.14,-126.82 1021.59,-108.84 1002.29,-96.23"/>
<polygon fill="#63b8ff" stroke="#63b8ff" points="1004.11,-93.24 993.82,-90.7 1000.28,-99.1 1004.11,-93.24"/>
</a>
</g>
</g>
<!-- Node17 -->
<g id="Node000017" class="node">
<title>Node17</title>
<g id="a_Node000017"><a xlink:title=" ">
<polygon fill="#e0e0e0" stroke="#999999" points="1504.5,-90.5 1466.5,-90.5 1466.5,-71.5 1504.5,-71.5 1504.5,-90.5"/>
<text text-anchor="middle" x="1485.5" y="-78.5" font-family="Helvetica,sans-Serif" font-size="10.00">map</text>
</a>
</g>
</g>
<!-- Node2&#45;&gt;Node17 -->
<g id="edge17_Node000002_Node000017" class="edge">
<title>Node2&#45;&gt;Node17</title>
<g id="a_edge17_Node000002_Node000017"><a xlink:title=" ">
<path fill="none" stroke="#63b8ff" d="M1121.54,-144.94C1192.88,-142.18 1339.47,-132.17 1457.5,-96 1458.76,-95.61 1460.03,-95.18 1461.29,-94.7"/>
<polygon fill="#63b8ff" stroke="#63b8ff" points="1463.04,-97.76 1470.77,-90.51 1460.21,-91.35 1463.04,-97.76"/>
</a>
</g>
</g>
<!-- Node18 -->
<g id="Node000018" class="node">
<title>Node18</title>
<g id="a_Node000018"><a xlink:title=" ">
<polygon fill="#e0e0e0" stroke="#999999" points="1070.5,-90.5 1026.5,-90.5 1026.5,-71.5 1070.5,-71.5 1070.5,-90.5"/>
<text text-anchor="middle" x="1048.5" y="-78.5" font-family="Helvetica,sans-Serif" font-size="10.00">regex</text>
</a>
</g>
</g>
<!-- Node2&#45;&gt;Node18 -->
<g id="edge18_Node000002_Node000018" class="edge">
<title>Node2&#45;&gt;Node18</title>
<g id="a_edge18_Node000002_Node000018"><a xlink:title=" ">
<path fill="none" stroke="#63b8ff" d="M1074.45,-137.37C1070.01,-127.88 1062.73,-112.36 1057.01,-100.16"/>
<polygon fill="#63b8ff" stroke="#63b8ff" points="1060.09,-98.47 1052.67,-90.91 1053.75,-101.45 1060.09,-98.47"/>
</a>
</g>
</g>
<!-- Node19 -->
<g id="Node000019" class="node">
<title>Node19</title>
<g id="a_Node000019"><a xlink:title=" ">
<polygon fill="#e0e0e0" stroke="#999999" points="1566.5,-90.5 1522.5,-90.5 1522.5,-71.5 1566.5,-71.5 1566.5,-90.5"/>
<text text-anchor="middle" x="1544.5" y="-78.5" font-family="Helvetica,sans-Serif" font-size="10.00">string</text>
</a>
</g>
</g>
<!-- Node2&#45;&gt;Node19 -->
<g id="edge19_Node000002_Node000019" class="edge">
<title>Node2&#45;&gt;Node19</title>
<g id="a_edge19_Node000002_Node000019"><a xlink:title=" ">
<path fill="none" stroke="#63b8ff" d="M1121.63,-145.43C1200.73,-143.43 1373.72,-134.58 1513.5,-96 1515.18,-95.54 1516.89,-94.99 1518.59,-94.39"/>
<polygon fill="#63b8ff" stroke="#63b8ff" points="1520.17,-97.53 1528.12,-90.53 1517.54,-91.04 1520.17,-97.53"/>
</a>
</g>
</g>
<!-- Node20 -->
<g id="Node000020" class="node">
<title>Node20</title>
<g id="a_Node000020"><a xlink:title=" ">
<polygon fill="#e0e0e0" stroke="#999999" points="1130,-90.5 1089,-90.5 1089,-71.5 1130,-71.5 1130,-90.5"/>
<text text-anchor="middle" x="1109.5" y="-78.5" font-family="Helvetica,sans-Serif" font-size="10.00">tuple</text>
</a>
</g>
</g>
<!-- Node2&#45;&gt;Node20 -->
<g id="edge20_Node000002_Node000020" class="edge">
<title>Node2&#45;&gt;Node20</title>
<g id="a_edge20_Node000002_Node000020"><a xlink:title=" ">
<path fill="none" stroke="#63b8ff" d="M1082.68,-137.37C1087.28,-127.88 1094.79,-112.36 1100.7,-100.16"/>
<polygon fill="#63b8ff" stroke="#63b8ff" points="1103.98,-101.43 1105.19,-90.91 1097.68,-98.38 1103.98,-101.43"/>
</a>
</g>
</g>
<!-- Node21 -->
<g id="Node000021" class="node">
<title>Node21</title>
<g id="a_Node000021"><a xlink:title=" ">
<polygon fill="#e0e0e0" stroke="#999999" points="1632,-90.5 1585,-90.5 1585,-71.5 1632,-71.5 1632,-90.5"/>
<text text-anchor="middle" x="1608.5" y="-78.5" font-family="Helvetica,sans-Serif" font-size="10.00">vector</text>
</a>
</g>
</g>
<!-- Node2&#45;&gt;Node21 -->
<g id="edge21_Node000002_Node000021" class="edge">
<title>Node2&#45;&gt;Node21</title>
<g id="a_edge21_Node000002_Node000021"><a xlink:title=" ">
<path fill="none" stroke="#63b8ff" d="M1121.8,-145.98C1209.06,-145.01 1411.68,-137.96 1575.5,-96 1577.44,-95.5 1579.42,-94.91 1581.4,-94.25"/>
<polygon fill="#63b8ff" stroke="#63b8ff" points="1582.94,-97.41 1591.03,-90.56 1580.44,-90.87 1582.94,-97.41"/>
</a>
</g>
</g>
<!-- Node3&#45;&gt;Node4 -->
<g id="edge3_Node000003_Node000004" class="edge">
<title>Node3&#45;&gt;Node4</title>
<g id="a_edge3_Node000003_Node000004"><a xlink:title=" ">
<path fill="none" stroke="#63b8ff" d="M1232.04,-71.37C1220.18,-62.44 1201.25,-48.19 1185.56,-36.38"/>
<polygon fill="#63b8ff" stroke="#63b8ff" points="1187.34,-33.33 1177.25,-30.12 1183.13,-38.93 1187.34,-33.33"/>
</a>
</g>
</g>
<!-- Node5 -->
<g id="Node000005" class="node">
<title>Node5</title>
<g id="a_Node000005"><a xlink:title=" ">
<polygon fill="#e0e0e0" stroke="#999999" points="1346,-30 1227,-30 1227,0 1346,0 1346,-30"/>
<text text-anchor="start" x="1235" y="-18" font-family="Helvetica,sans-Serif" font-size="10.00">deal.II/numerics/data</text>
<text text-anchor="middle" x="1286.5" y="-7" font-family="Helvetica,sans-Serif" font-size="10.00">_postprocessor.h</text>
</a>
</g>
</g>
<!-- Node3&#45;&gt;Node5 -->
<g id="edge4_Node000003_Node000005" class="edge">
<title>Node3&#45;&gt;Node5</title>
<g id="a_edge4_Node000003_Node000005"><a xlink:title=" ">
<path fill="none" stroke="#63b8ff" d="M1249.3,-71.37C1254.87,-63.08 1263.53,-50.18 1271.1,-38.92"/>
<polygon fill="#63b8ff" stroke="#63b8ff" points="1274.18,-40.61 1276.85,-30.36 1268.37,-36.71 1274.18,-40.61"/>
</a>
</g>
</g>
<!-- Node23 -->
<g id="Node000023" class="node">
<title>Node23</title>
<g id="a_Node000023"><a xlink:href="insertion_8h.html" target="_top" xlink:title=" ">
<polygon fill="white" stroke="#666666" points="733,-404 640,-404 640,-385 733,-385 733,-404"/>
<text text-anchor="middle" x="686.5" y="-392" font-family="Helvetica,sans-Serif" font-size="10.00">dem/insertion.h</text>
</a>
</g>
</g>
<!-- Node22&#45;&gt;Node23 -->
<g id="edge23_Node000022_Node000023" class="edge">
<title>Node22&#45;&gt;Node23</title>
<g id="a_edge23_Node000022_Node000023"><a xlink:title=" ">
<path fill="none" stroke="#63b8ff" d="M632.78,-439.98C642.34,-432.07 656.78,-420.11 668.28,-410.58"/>
<polygon fill="#63b8ff" stroke="#63b8ff" points="670.56,-413.24 676.03,-404.17 666.1,-407.85 670.56,-413.24"/>
</a>
</g>
</g>
<!-- Node23&#45;&gt;Node12 -->
<g id="edge56_Node000023_Node000012" class="edge">
<title>Node23&#45;&gt;Node12</title>
<g id="a_edge56_Node000023_Node000012"><a xlink:title=" ">
<path fill="none" stroke="#63b8ff" d="M639.69,-392.83C506.93,-389.66 137.5,-371.62 137.5,-269 137.5,-269 137.5,-269 137.5,-206.5 137.5,-166.07 108.7,-126.98 87.53,-103.71"/>
<polygon fill="#63b8ff" stroke="#63b8ff" points="89.82,-101.04 80.42,-96.16 84.73,-105.84 89.82,-101.04"/>
</a>
</g>
</g>
<!-- Node23&#45;&gt;Node13 -->
<g id="edge57_Node000023_Node000013" class="edge">
<title>Node23&#45;&gt;Node13</title>
<g id="a_edge57_Node000023_Node000013"><a xlink:title=" ">
<path fill="none" stroke="#63b8ff" d="M639.66,-390.84C522.2,-382.9 224.5,-354.35 224.5,-269 224.5,-269 224.5,-269 224.5,-206.5 224.5,-170.92 215.3,-130.56 208.54,-105.69"/>
<polygon fill="#63b8ff" stroke="#63b8ff" points="211.9,-104.71 205.83,-96.03 205.17,-106.61 211.9,-104.71"/>
</a>
</g>
</g>
<!-- Node23&#45;&gt;Node14 -->
<g id="edge58_Node000023_Node000014" class="edge">
<title>Node23&#45;&gt;Node14</title>
<g id="a_edge58_Node000023_Node000014"><a xlink:title=" ">
<path fill="none" stroke="#63b8ff" d="M639.78,-391.62C573,-387.95 454.93,-377.51 424.5,-349 397.83,-324.01 405.5,-305.54 405.5,-269 405.5,-269 405.5,-269 405.5,-206.5 405.5,-164.62 372.89,-125.76 349.06,-102.96"/>
<polygon fill="#63b8ff" stroke="#63b8ff" points="351.4,-100.35 341.68,-96.13 346.64,-105.49 351.4,-100.35"/>
</a>
</g>
</g>
<!-- Node24 -->
<g id="Node000024" class="node">
<title>Node24</title>
<g id="a_Node000024"><a xlink:href="dem__solver__parameters_8h.html" target="_top" xlink:title=" ">
<polygon fill="white" stroke="#666666" points="1660,-343.5 1491,-343.5 1491,-324.5 1660,-324.5 1660,-343.5"/>
<text text-anchor="middle" x="1575.5" y="-331.5" font-family="Helvetica,sans-Serif" font-size="10.00">dem/dem_solver_parameters.h</text>
</a>
</g>
</g>
<!-- Node23&#45;&gt;Node24 -->
<g id="edge24_Node000023_Node000024" class="edge">
<title>Node23&#45;&gt;Node24</title>
<g id="a_edge24_Node000023_Node000024"><a xlink:title=" ">
<path fill="none" stroke="#63b8ff" d="M733.37,-390.88C847.63,-384.42 1149.66,-366.97 1401.5,-349 1427.12,-347.17 1454.85,-345.02 1480.48,-342.96"/>
<polygon fill="#63b8ff" stroke="#63b8ff" points="1480.88,-346.44 1490.56,-342.14 1480.31,-339.46 1480.88,-346.44"/>
</a>
</g>
</g>
<!-- Node47 -->
<g id="Node000047" class="node">
<title>Node47</title>
<g id="a_Node000047"><a xlink:href="distributions_8h.html" target="_top" xlink:title=" ">
<polygon fill="white" stroke="#666666" points="545,-343.5 434,-343.5 434,-324.5 545,-324.5 545,-343.5"/>
<text text-anchor="middle" x="489.5" y="-331.5" font-family="Helvetica,sans-Serif" font-size="10.00">dem/distributions.h</text>
</a>
</g>
</g>
<!-- Node23&#45;&gt;Node47 -->
<g id="edge47_Node000023_Node000047" class="edge">
<title>Node23&#45;&gt;Node47</title>
<g id="a_edge47_Node000023_Node000047"><a xlink:title=" ">
<path fill="none" stroke="#63b8ff" d="M657.85,-384.99C623.57,-374.81 566.02,-357.72 527.9,-346.4"/>
<polygon fill="#63b8ff" stroke="#63b8ff" points="528.76,-343.01 518.18,-343.52 526.77,-349.72 528.76,-343.01"/>
</a>
</g>
</g>
<!-- Node49 -->
<g id="Node000049" class="node">
<title>Node49</title>
<g id="a_Node000049"><a xlink:title=" ">
<polygon fill="#e0e0e0" stroke="#999999" points="682,-349 563,-349 563,-319 682,-319 682,-349"/>
<text text-anchor="start" x="571" y="-337" font-family="Helvetica,sans-Serif" font-size="10.00">deal.II/base/data_out</text>
<text text-anchor="middle" x="622.5" y="-326" font-family="Helvetica,sans-Serif" font-size="10.00">_base.h</text>
</a>
</g>
</g>
<!-- Node23&#45;&gt;Node49 -->
<g id="edge50_Node000023_Node000049" class="edge">
<title>Node23&#45;&gt;Node49</title>
<g id="a_edge50_Node000023_Node000049"><a xlink:title=" ">
<path fill="none" stroke="#63b8ff" d="M677.06,-384.87C668.77,-377.3 656.39,-365.98 645.51,-356.04"/>
<polygon fill="#63b8ff" stroke="#63b8ff" points="647.68,-353.28 637.94,-349.11 642.96,-358.44 647.68,-353.28"/>
</a>
</g>
</g>
<!-- Node50 -->
<g id="Node000050" class="node">
<title>Node50</title>
<g id="a_Node000050"><a xlink:title=" ">
<polygon fill="#e0e0e0" stroke="#999999" points="802.5,-349 700.5,-349 700.5,-319 802.5,-319 802.5,-349"/>
<text text-anchor="start" x="708.5" y="-337" font-family="Helvetica,sans-Serif" font-size="10.00">deal.II/distributed</text>
<text text-anchor="middle" x="751.5" y="-326" font-family="Helvetica,sans-Serif" font-size="10.00">/tria.h</text>
</a>
</g>
</g>
<!-- Node23&#45;&gt;Node50 -->
<g id="edge51_Node000023_Node000050" class="edge">
<title>Node23&#45;&gt;Node50</title>
<g id="a_edge51_Node000023_Node000050"><a xlink:title=" ">
<path fill="none" stroke="#63b8ff" d="M696.09,-384.87C704.5,-377.3 717.08,-365.98 728.13,-356.04"/>
<polygon fill="#63b8ff" stroke="#63b8ff" points="730.73,-358.41 735.82,-349.11 726.04,-353.2 730.73,-358.41"/>
</a>
</g>
</g>
<!-- Node51 -->
<g id="Node000051" class="node">
<title>Node51</title>
<g id="a_Node000051"><a xlink:title=" ">
<polygon fill="#e0e0e0" stroke="#999999" points="926.5,-349 820.5,-349 820.5,-319 926.5,-319 926.5,-349"/>
<text text-anchor="start" x="828.5" y="-337" font-family="Helvetica,sans-Serif" font-size="10.00">deal.II/grid/filtered</text>
<text text-anchor="middle" x="873.5" y="-326" font-family="Helvetica,sans-Serif" font-size="10.00">_iterator.h</text>
</a>
</g>
</g>
<!-- Node23&#45;&gt;Node51 -->
<g id="edge52_Node000023_Node000051" class="edge">
<title>Node23&#45;&gt;Node51</title>
<g id="a_edge52_Node000023_Node000051"><a xlink:title=" ">
<path fill="none" stroke="#63b8ff" d="M713.69,-384.99C741.07,-376.43 784.09,-362.97 818.6,-352.18"/>
<polygon fill="#63b8ff" stroke="#63b8ff" points="820.04,-355.39 828.54,-349.06 817.95,-348.71 820.04,-355.39"/>
</a>
</g>
</g>
<!-- Node52 -->
<g id="Node000052" class="node">
<title>Node52</title>
<g id="a_Node000052"><a xlink:title=" ">
<polygon fill="#e0e0e0" stroke="#999999" points="1096,-343.5 945,-343.5 945,-324.5 1096,-324.5 1096,-343.5"/>
<text text-anchor="middle" x="1020.5" y="-331.5" font-family="Helvetica,sans-Serif" font-size="10.00">deal.II/grid/grid_generator.h</text>
</a>
</g>
</g>
<!-- Node23&#45;&gt;Node52 -->
<g id="edge53_Node000023_Node000052" class="edge">
<title>Node23&#45;&gt;Node52</title>
<g id="a_edge53_Node000023_Node000052"><a xlink:title=" ">
<path fill="none" stroke="#63b8ff" d="M733.29,-385.3C793.11,-374.83 896.7,-356.68 961.76,-345.29"/>
<polygon fill="#63b8ff" stroke="#63b8ff" points="962.61,-348.69 971.86,-343.52 961.4,-341.8 962.61,-348.69"/>
</a>
</g>
</g>
<!-- Node53 -->
<g id="Node000053" class="node">
<title>Node53</title>
<g id="a_Node000053"><a xlink:title=" ">
<polygon fill="#e0e0e0" stroke="#999999" points="1242.5,-343.5 1114.5,-343.5 1114.5,-324.5 1242.5,-324.5 1242.5,-343.5"/>
<text text-anchor="middle" x="1178.5" y="-331.5" font-family="Helvetica,sans-Serif" font-size="10.00">deal.II/grid/grid_tools.h</text>
</a>
</g>
</g>
<!-- Node23&#45;&gt;Node53 -->
<g id="edge54_Node000023_Node000053" class="edge">
<title>Node23&#45;&gt;Node53</title>
<g id="a_edge54_Node000023_Node000053"><a xlink:title=" ">
<path fill="none" stroke="#63b8ff" d="M733.16,-389.83C810.71,-383.44 970.92,-369.02 1105.5,-349 1112.61,-347.94 1120.08,-346.68 1127.42,-345.36"/>
<polygon fill="#63b8ff" stroke="#63b8ff" points="1128.1,-348.79 1137.29,-343.53 1126.82,-341.91 1128.1,-348.79"/>
</a>
</g>
</g>
<!-- Node54 -->
<g id="Node000054" class="node">
<title>Node54</title>
<g id="a_Node000054"><a xlink:title=" ">
<polygon fill="#e0e0e0" stroke="#999999" points="1392,-349 1261,-349 1261,-319 1392,-319 1392,-349"/>
<text text-anchor="start" x="1269" y="-337" font-family="Helvetica,sans-Serif" font-size="10.00">deal.II/particles/particle</text>
<text text-anchor="middle" x="1326.5" y="-326" font-family="Helvetica,sans-Serif" font-size="10.00">_handler.h</text>
</a>
</g>
</g>
<!-- Node23&#45;&gt;Node54 -->
<g id="edge55_Node000023_Node000054" class="edge">
<title>Node23&#45;&gt;Node54</title>
<g id="a_edge55_Node000023_Node000054"><a xlink:title=" ">
<path fill="none" stroke="#63b8ff" d="M733.18,-391.5C828.49,-387.05 1052.47,-374.75 1250.7,-349"/>
<polygon fill="#63b8ff" stroke="#63b8ff" points="1251.25,-352.46 1260.71,-347.69 1250.34,-345.52 1251.25,-352.46"/>
</a>
</g>
</g>
<!-- Node25 -->
<g id="Node000025" class="node">
<title>Node25</title>
<g id="a_Node000025"><a xlink:href="parameters_8h.html" target="_top" xlink:title=" ">
<polygon fill="white" stroke="#666666" points="1850.5,-217 1744.5,-217 1744.5,-198 1850.5,-198 1850.5,-217"/>
<text text-anchor="middle" x="1797.5" y="-205" font-family="Helvetica,sans-Serif" font-size="10.00">core/parameters.h</text>
</a>
</g>
</g>
<!-- Node24&#45;&gt;Node25 -->
<g id="edge25_Node000024_Node000025" class="edge">
<title>Node24&#45;&gt;Node25</title>
<g id="a_edge25_Node000024_Node000025"><a xlink:title=" ">
<path fill="none" stroke="#63b8ff" d="M1590.76,-324.44C1628.62,-303.21 1727.14,-247.96 1773.15,-222.15"/>
<polygon fill="#63b8ff" stroke="#63b8ff" points="1775.12,-225.06 1782.13,-217.12 1771.7,-218.96 1775.12,-225.06"/>
</a>
</g>
</g>
<!-- Node44 -->
<g id="Node000044" class="node">
<title>Node44</title>
<g id="a_Node000044"><a xlink:href="parameters__lagrangian_8h.html" target="_top" xlink:title="Parameter structures for Lagrangian (DEM) particle simulations.">
<polygon fill="white" stroke="#666666" points="1583,-277.5 1420,-277.5 1420,-258.5 1583,-258.5 1583,-277.5"/>
<text text-anchor="middle" x="1501.5" y="-265.5" font-family="Helvetica,sans-Serif" font-size="10.00">core/parameters_lagrangian.h</text>
</a>
</g>
</g>
<!-- Node24&#45;&gt;Node44 -->
<g id="edge37_Node000024_Node000044" class="edge">
<title>Node24&#45;&gt;Node44</title>
<g id="a_edge37_Node000024_Node000044"><a xlink:title=" ">
<path fill="none" stroke="#63b8ff" d="M1565.52,-324.37C1553.78,-314.21 1534.06,-297.16 1519.6,-284.65"/>
<polygon fill="#63b8ff" stroke="#63b8ff" points="1521.65,-281.8 1511.8,-277.91 1517.07,-287.09 1521.65,-281.8"/>
</a>
</g>
</g>
<!-- Node46 -->
<g id="Node000046" class="node">
<title>Node46</title>
<g id="a_Node000046"><a xlink:href="solid__objects__parameters_8h.html" target="_top" xlink:title="Parameter classes for solid objects used in Nitsche immersed boundary and DEM simulations.">
<polygon fill="white" stroke="#666666" points="2053.5,-283 1949.5,-283 1949.5,-253 2053.5,-253 2053.5,-283"/>
<text text-anchor="start" x="1957.5" y="-271" font-family="Helvetica,sans-Serif" font-size="10.00">core/solid_objects</text>
<text text-anchor="middle" x="2001.5" y="-260" font-family="Helvetica,sans-Serif" font-size="10.00">_parameters.h</text>
</a>
</g>
</g>
<!-- Node24&#45;&gt;Node46 -->
<g id="edge43_Node000024_Node000046" class="edge">
<title>Node24&#45;&gt;Node46</title>
<g id="a_edge43_Node000024_Node000046"><a xlink:title=" ">
<path fill="none" stroke="#63b8ff" d="M1632.51,-324.44C1712.39,-312.44 1857.05,-290.7 1939.51,-278.31"/>
<polygon fill="#63b8ff" stroke="#63b8ff" points="1940.13,-281.76 1949.5,-276.81 1939.09,-274.84 1940.13,-281.76"/>
</a>
</g>
</g>
<!-- Node25&#45;&gt;Node2 -->
<g id="edge33_Node000025_Node000002" class="edge">
<title>Node25&#45;&gt;Node2</title>
<g id="a_edge33_Node000025_Node000002"><a xlink:title=" ">
<path fill="none" stroke="#63b8ff" d="M1744.34,-202.17C1611.33,-191.35 1265.29,-163.2 1131.96,-152.35"/>
<polygon fill="#63b8ff" stroke="#63b8ff" points="1131.86,-148.83 1121.61,-151.51 1131.29,-155.81 1131.86,-148.83"/>
</a>
</g>
</g>
<!-- Node25&#45;&gt;Node7 -->
<g id="edge34_Node000025_Node000007" class="edge">
<title>Node25&#45;&gt;Node7</title>
<g id="a_edge34_Node000025_Node000007"><a xlink:title=" ">
<path fill="none" stroke="#63b8ff" d="M1803.7,-197.7C1809.57,-189 1818.24,-175.12 1823.5,-162 1830.7,-144.02 1835.61,-122.62 1838.63,-106.49"/>
<polygon fill="#63b8ff" stroke="#63b8ff" points="1842.14,-106.71 1840.42,-96.26 1835.25,-105.5 1842.14,-106.71"/>
</a>
</g>
</g>
<!-- Node26 -->
<g id="Node000026" class="node">
<title>Node26</title>
<g id="a_Node000026"><a xlink:href="dimensionality_8h.html" target="_top" xlink:title=" ">
<polygon fill="white" stroke="#666666" points="1814,-156.5 1693,-156.5 1693,-137.5 1814,-137.5 1814,-156.5"/>
<text text-anchor="middle" x="1753.5" y="-144.5" font-family="Helvetica,sans-Serif" font-size="10.00">core/dimensionality.h</text>
</a>
</g>
</g>
<!-- Node25&#45;&gt;Node26 -->
<g id="edge26_Node000025_Node000026" class="edge">
<title>Node25&#45;&gt;Node26</title>
<g id="a_edge26_Node000025_Node000026"><a xlink:title=" ">
<path fill="none" stroke="#63b8ff" d="M1791.01,-197.87C1784.51,-189.23 1774.34,-175.7 1766.22,-164.92"/>
<polygon fill="#63b8ff" stroke="#63b8ff" points="1768.83,-162.56 1760.02,-156.67 1763.23,-166.76 1768.83,-162.56"/>
</a>
</g>
</g>
<!-- Node27 -->
<g id="Node000027" class="node">
<title>Node27</title>
<g id="a_Node000027"><a xlink:href="ib__particle_8h.html" target="_top" xlink:title=" ">
<polygon fill="#fff0f0" stroke="red" points="1675,-156.5 1574,-156.5 1574,-137.5 1675,-137.5 1675,-156.5"/>
<text text-anchor="middle" x="1624.5" y="-144.5" font-family="Helvetica,sans-Serif" font-size="10.00">core/ib_particle.h</text>
</a>
</g>
</g>
<!-- Node25&#45;&gt;Node27 -->
<g id="edge28_Node000025_Node000027" class="edge">
<title>Node25&#45;&gt;Node27</title>
<g id="a_edge28_Node000025_Node000027"><a xlink:title=" ">
<path fill="none" stroke="#63b8ff" d="M1772.34,-197.99C1742.62,-187.94 1692.98,-171.16 1659.51,-159.84"/>
<polygon fill="#63b8ff" stroke="#63b8ff" points="1660.28,-156.4 1649.69,-156.52 1658.04,-163.04 1660.28,-156.4"/>
</a>
</g>
</g>
<!-- Node41 -->
<g id="Node000041" class="node">
<title>Node41</title>
<g id="a_Node000041"><a xlink:title=" ">
<polygon fill="#e0e0e0" stroke="#999999" points="2247,-96 2138,-96 2138,-66 2247,-66 2247,-96"/>
<text text-anchor="start" x="2146" y="-84" font-family="Helvetica,sans-Serif" font-size="10.00">deal.II/base/parsed</text>
<text text-anchor="middle" x="2192.5" y="-73" font-family="Helvetica,sans-Serif" font-size="10.00">_function.h</text>
</a>
</g>
</g>
<!-- Node25&#45;&gt;Node41 -->
<g id="edge35_Node000025_Node000041" class="edge">
<title>Node25&#45;&gt;Node41</title>
<g id="a_edge35_Node000025_Node000041"><a xlink:title=" ">
<path fill="none" stroke="#63b8ff" d="M1850.65,-207.44C1942.83,-207.92 2126.93,-203.48 2173.5,-162 2188.93,-148.25 2192.99,-124.47 2193.6,-106.4"/>
<polygon fill="#63b8ff" stroke="#63b8ff" points="2197.1,-106.29 2193.61,-96.28 2190.1,-106.28 2197.1,-106.29"/>
</a>
</g>
</g>
<!-- Node42 -->
<g id="Node000042" class="node">
<title>Node42</title>
<g id="a_Node000042"><a xlink:href="multiphysics_8h.html" target="_top" xlink:title="Identifiers for multiphysics modules and their solution fields.">
<polygon fill="white" stroke="#666666" points="1982.5,-156.5 1870.5,-156.5 1870.5,-137.5 1982.5,-137.5 1982.5,-156.5"/>
<text text-anchor="middle" x="1926.5" y="-144.5" font-family="Helvetica,sans-Serif" font-size="10.00">core/multiphysics.h</text>
</a>
</g>
</g>
<!-- Node25&#45;&gt;Node42 -->
<g id="edge32_Node000025_Node000042" class="edge">
<title>Node25&#45;&gt;Node42</title>
<g id="a_edge32_Node000025_Node000042"><a xlink:title=" ">
<path fill="none" stroke="#63b8ff" d="M1816.26,-197.99C1837.85,-188.2 1873.53,-172.02 1898.43,-160.73"/>
<polygon fill="#63b8ff" stroke="#63b8ff" points="1900.06,-163.83 1907.72,-156.52 1897.17,-157.46 1900.06,-163.83"/>
</a>
</g>
</g>
<!-- Node43 -->
<g id="Node000043" class="node">
<title>Node43</title>
<g id="a_Node000043"><a xlink:title=" ">
<polygon fill="#e0e0e0" stroke="#999999" points="2164,-162 2001,-162 2001,-132 2164,-132 2164,-162"/>
<text text-anchor="start" x="2009" y="-150" font-family="Helvetica,sans-Serif" font-size="10.00">deal.II/multigrid/mg</text>
<text text-anchor="middle" x="2082.5" y="-139" font-family="Helvetica,sans-Serif" font-size="10.00">_transfer_global_coarsening.h</text>
</a>
</g>
</g>
<!-- Node25&#45;&gt;Node43 -->
<g id="edge36_Node000025_Node000043" class="edge">
<title>Node25&#45;&gt;Node43</title>
<g id="a_edge36_Node000025_Node000043"><a xlink:title=" ">
<path fill="none" stroke="#63b8ff" d="M1838.94,-197.99C1882.18,-189.12 1950.99,-174.99 2004.46,-164.02"/>
<polygon fill="#63b8ff" stroke="#63b8ff" points="2005.17,-167.45 2014.26,-162.01 2003.76,-160.59 2005.17,-167.45"/>
</a>
</g>
</g>
<!-- Node26&#45;&gt;Node7 -->
<g id="edge27_Node000026_Node000007" class="edge">
<title>Node26&#45;&gt;Node7</title>
<g id="a_edge27_Node000026_Node000007"><a xlink:title=" ">
<path fill="none" stroke="#63b8ff" d="M1765.5,-137.37C1778.03,-128.36 1798.11,-113.92 1814.62,-102.05"/>
<polygon fill="#63b8ff" stroke="#63b8ff" points="1816.8,-104.8 1822.87,-96.12 1812.71,-99.11 1816.8,-104.8"/>
</a>
</g>
</g>
<!-- Node27&#45;&gt;Node8 -->
<g id="edge30_Node000027_Node000008" class="edge">
<title>Node27&#45;&gt;Node8</title>
<g id="a_edge30_Node000027_Node000008"><a xlink:title=" ">
<path fill="none" stroke="#63b8ff" d="M1635.42,-137.37C1648.47,-127.06 1670.51,-109.65 1686.4,-97.09"/>
<polygon fill="#63b8ff" stroke="#63b8ff" points="1688.81,-99.64 1694.49,-90.7 1684.47,-94.15 1688.81,-99.64"/>
</a>
</g>
</g>
<!-- Node27&#45;&gt;Node21 -->
<g id="edge31_Node000027_Node000021" class="edge">
<title>Node27&#45;&gt;Node21</title>
<g id="a_edge31_Node000027_Node000021"><a xlink:title=" ">
<path fill="none" stroke="#63b8ff" d="M1622.34,-137.37C1620.02,-128.07 1616.24,-112.98 1613.22,-100.9"/>
<polygon fill="#63b8ff" stroke="#63b8ff" points="1616.55,-99.76 1610.73,-90.91 1609.76,-101.46 1616.55,-99.76"/>
</a>
</g>
</g>
<!-- Node27&#45;&gt;Node41 -->
<g id="edge29_Node000027_Node000041" class="edge">
<title>Node27&#45;&gt;Node41</title>
<g id="a_edge29_Node000027_Node000041"><a xlink:title=" ">
<path fill="none" stroke="#63b8ff" d="M1657.67,-137.44C1666.35,-135.43 1675.74,-133.45 1684.5,-132 1842.47,-105.91 2030.48,-91.74 2127.46,-85.66"/>
<polygon fill="#63b8ff" stroke="#63b8ff" points="2127.92,-89.14 2137.69,-85.03 2127.49,-82.15 2127.92,-89.14"/>
</a>
</g>
</g>
<!-- Node44&#45;&gt;Node7 -->
<g id="edge39_Node000044_Node000007" class="edge">
<title>Node44&#45;&gt;Node7</title>
<g id="a_edge39_Node000044_Node000007"><a xlink:title=" ">
<path fill="none" stroke="#63b8ff" d="M1506.02,-258.19C1511.09,-248.24 1519.54,-231.53 1526.5,-217 1544.46,-179.52 1532.6,-157.41 1565.5,-132 1635.87,-77.65 1676.14,-110.25 1768.77,-95.97"/>
<polygon fill="#63b8ff" stroke="#63b8ff" points="1769.53,-99.39 1778.81,-94.27 1768.37,-92.49 1769.53,-99.39"/>
</a>
</g>
</g>
<!-- Node44&#45;&gt;Node17 -->
<g id="edge40_Node000044_Node000017" class="edge">
<title>Node44&#45;&gt;Node17</title>
<g id="a_edge40_Node000044_Node000017"><a xlink:title=" ">
<path fill="none" stroke="#63b8ff" d="M1485.28,-258.38C1471.29,-249.93 1452.03,-235.61 1443.5,-217 1427.76,-182.66 1430.57,-167.5 1443.5,-132 1448.3,-118.82 1458.28,-106.7 1467.3,-97.69"/>
<polygon fill="#63b8ff" stroke="#63b8ff" points="1469.93,-100.02 1474.83,-90.63 1465.14,-94.92 1469.93,-100.02"/>
</a>
</g>
</g>
<!-- Node44&#45;&gt;Node19 -->
<g id="edge42_Node000044_Node000019" class="edge">
<title>Node44&#45;&gt;Node19</title>
<g id="a_edge42_Node000044_Node000019"><a xlink:title=" ">
<path fill="none" stroke="#63b8ff" d="M1494.61,-258.22C1485.29,-245.25 1470.49,-220.13 1476.5,-198 1487.04,-159.17 1514.22,-120.04 1530.85,-98.62"/>
<polygon fill="#63b8ff" stroke="#63b8ff" points="1533.76,-100.58 1537.25,-90.57 1528.28,-96.22 1533.76,-100.58"/>
</a>
</g>
</g>
<!-- Node44&#45;&gt;Node25 -->
<g id="edge38_Node000044_Node000025" class="edge">
<title>Node44&#45;&gt;Node25</title>
<g id="a_edge38_Node000044_Node000025"><a xlink:title=" ">
<path fill="none" stroke="#63b8ff" d="M1544.54,-258.49C1597.48,-248.03 1687.34,-230.27 1744.48,-218.98"/>
<polygon fill="#63b8ff" stroke="#63b8ff" points="1745.28,-222.39 1754.41,-217.02 1743.92,-215.52 1745.28,-222.39"/>
</a>
</g>
</g>
<!-- Node45 -->
<g id="Node000045" class="node">
<title>Node45</title>
<g id="a_Node000045"><a xlink:title=" ">
<polygon fill="#e0e0e0" stroke="#999999" points="1517.5,-217 1485.5,-217 1485.5,-198 1517.5,-198 1517.5,-217"/>
<text text-anchor="middle" x="1501.5" y="-205" font-family="Helvetica,sans-Serif" font-size="10.00">set</text>
</a>
</g>
</g>
<!-- Node44&#45;&gt;Node45 -->
<g id="edge41_Node000044_Node000045" class="edge">
<title>Node44&#45;&gt;Node45</title>
<g id="a_edge41_Node000044_Node000045"><a xlink:title=" ">
<path fill="none" stroke="#63b8ff" d="M1501.5,-258.37C1501.5,-250.25 1501.5,-237.81 1501.5,-227.39"/>
<polygon fill="#63b8ff" stroke="#63b8ff" points="1505,-227.17 1501.5,-217.17 1498,-227.17 1505,-227.17"/>
</a>
</g>
</g>
<!-- Node46&#45;&gt;Node7 -->
<g id="edge45_Node000046_Node000007" class="edge">
<title>Node46&#45;&gt;Node7</title>
<g id="a_edge45_Node000046_Node000007"><a xlink:title=" ">
<path fill="none" stroke="#63b8ff" d="M2047.07,-252.99C2112.03,-230.77 2218.68,-184.52 2173.5,-132 2141.01,-94.23 2003.56,-84.62 1916.32,-82.4"/>
<polygon fill="#63b8ff" stroke="#63b8ff" points="1916.28,-78.9 1906.2,-82.17 1916.12,-85.9 1916.28,-78.9"/>
</a>
</g>
</g>
<!-- Node46&#45;&gt;Node25 -->
<g id="edge44_Node000046_Node000025" class="edge">
<title>Node46&#45;&gt;Node25</title>
<g id="a_edge44_Node000046_Node000025"><a xlink:title=" ">
<path fill="none" stroke="#63b8ff" d="M1952.64,-252.99C1917.28,-242.85 1870.1,-229.32 1837.09,-219.85"/>
<polygon fill="#63b8ff" stroke="#63b8ff" points="1837.91,-216.45 1827.33,-217.05 1835.98,-223.17 1837.91,-216.45"/>
</a>
</g>
</g>
<!-- Node46&#45;&gt;Node41 -->
<g id="edge46_Node000046_Node000041" class="edge">
<title>Node46&#45;&gt;Node41</title>
<g id="a_edge46_Node000046_Node000041"><a xlink:title=" ">
<path fill="none" stroke="#63b8ff" d="M2053.53,-259.9C2086.37,-253.27 2128.17,-240.67 2158.5,-217 2181.15,-199.32 2184.65,-189.64 2192.5,-162 2197.65,-143.87 2197.34,-122.49 2195.91,-106.39"/>
<polygon fill="#63b8ff" stroke="#63b8ff" points="2199.36,-105.75 2194.8,-96.19 2192.41,-106.52 2199.36,-105.75"/>
</a>
</g>
</g>
<!-- Node47&#45;&gt;Node44 -->
<g id="edge48_Node000047_Node000044" class="edge">
<title>Node47&#45;&gt;Node44</title>
<g id="a_edge48_Node000047_Node000044"><a xlink:title=" ">
<path fill="none" stroke="#63b8ff" d="M523.53,-324.48C533.16,-322.36 543.69,-320.32 553.5,-319 865.63,-276.91 1240.01,-269.8 1409.78,-268.9"/>
<polygon fill="#63b8ff" stroke="#63b8ff" points="1409.94,-272.4 1419.93,-268.85 1409.91,-265.4 1409.94,-272.4"/>
</a>
</g>
</g>
<!-- Node48 -->
<g id="Node000048" class="node">
<title>Node48</title>
<g id="a_Node000048"><a xlink:title=" ">
<polygon fill="#e0e0e0" stroke="#999999" points="516.5,-277.5 462.5,-277.5 462.5,-258.5 516.5,-258.5 516.5,-277.5"/>
<text text-anchor="middle" x="489.5" y="-265.5" font-family="Helvetica,sans-Serif" font-size="10.00">random</text>
</a>
</g>
</g>
<!-- Node47&#45;&gt;Node48 -->
<g id="edge49_Node000047_Node000048" class="edge">
<title>Node47&#45;&gt;Node48</title>
<g id="a_edge49_Node000047_Node000048"><a xlink:title=" ">
<path fill="none" stroke="#63b8ff" d="M489.5,-324.37C489.5,-315.16 489.5,-300.29 489.5,-288.27"/>
<polygon fill="#63b8ff" stroke="#63b8ff" points="493,-287.91 489.5,-277.91 486,-287.91 493,-287.91"/>
</a>
</g>
</g>
</g>
</svg>
