<?xml version="1.0" encoding="UTF-8" standalone="no"?>
<!DOCTYPE svg PUBLIC "-//W3C//DTD SVG 1.1//EN"
 "http://www.w3.org/Graphics/SVG/1.1/DTD/svg11.dtd">
<!-- Generated by graphviz version 2.43.0 (0)
 -->
<!-- Title: /home/runner/work/lethe/lethe/source/dem/insertion_list.cc Pages: 1 -->
<svg width="1875pt" height="478pt"
 viewBox="0.00 0.00 1875.00 478.00" xmlns="http://www.w3.org/2000/svg" xmlns:xlink="http://www.w3.org/1999/xlink">
<g id="graph0" class="graph" transform="scale(1 1) rotate(0) translate(4 474)">
<title>/home/runner/work/lethe/lethe/source/dem/insertion_list.cc</title>
<!-- Node1 -->
<g id="Node000001" class="node">
<title>Node1</title>
<g id="a_Node000001"><a xlink:title=" ">
<polygon fill="#999999" stroke="#666666" points="1172.5,-470 1022.5,-470 1022.5,-429 1172.5,-429 1172.5,-470"/>
<text text-anchor="start" x="1030.5" y="-458" font-family="Helvetica,sans-Serif" font-size="10.00">/home/runner/work/lethe</text>
<text text-anchor="start" x="1030.5" y="-447" font-family="Helvetica,sans-Serif" font-size="10.00">/lethe/source/dem/insertion</text>
<text text-anchor="middle" x="1097.5" y="-436" font-family="Helvetica,sans-Serif" font-size="10.00">_list.cc</text>
</a>
</g>
</g>
<!-- Node2 -->
<g id="Node000002" class="node">
<title>Node2</title>
<g id="a_Node000002"><a xlink:href="insertion__list_8h.html" target="_top" xlink:title=" ">
<polygon fill="white" stroke="#666666" points="1154,-393 1041,-393 1041,-374 1154,-374 1154,-393"/>
<text text-anchor="middle" x="1097.5" y="-381" font-family="Helvetica,sans-Serif" font-size="10.00">dem/insertion_list.h</text>
</a>
</g>
</g>
<!-- Node1&#45;&gt;Node2 -->
<g id="edge1_Node000001_Node000002" class="edge">
<title>Node1&#45;&gt;Node2</title>
<g id="a_edge1_Node000001_Node000002"><a xlink:title=" ">
<path fill="none" stroke="#63b8ff" d="M1097.5,-428.95C1097.5,-420.85 1097.5,-411.5 1097.5,-403.47"/>
<polygon fill="#63b8ff" stroke="#63b8ff" points="1101,-403.26 1097.5,-393.26 1094,-403.26 1101,-403.26"/>
</a>
</g>
</g>
<!-- Node3 -->
<g id="Node000003" class="node">
<title>Node3</title>
<g id="a_Node000003"><a xlink:href="insertion_8h.html" target="_top" xlink:title=" ">
<polygon fill="white" stroke="#666666" points="1144,-338 1051,-338 1051,-319 1144,-319 1144,-338"/>
<text text-anchor="middle" x="1097.5" y="-326" font-family="Helvetica,sans-Serif" font-size="10.00">dem/insertion.h</text>
</a>
</g>
</g>
<!-- Node2&#45;&gt;Node3 -->
<g id="edge2_Node000002_Node000003" class="edge">
<title>Node2&#45;&gt;Node3</title>
<g id="a_edge2_Node000002_Node000003"><a xlink:title=" ">
<path fill="none" stroke="#63b8ff" d="M1097.5,-373.75C1097.5,-366.8 1097.5,-356.85 1097.5,-348.13"/>
<polygon fill="#63b8ff" stroke="#63b8ff" points="1101,-348.09 1097.5,-338.09 1094,-348.09 1101,-348.09"/>
</a>
</g>
</g>
<!-- Node4 -->
<g id="Node000004" class="node">
<title>Node4</title>
<g id="a_Node000004"><a xlink:href="dem__solver__parameters_8h.html" target="_top" xlink:title=" ">
<polygon fill="white" stroke="#666666" points="739,-277.5 570,-277.5 570,-258.5 739,-258.5 739,-277.5"/>
<text text-anchor="middle" x="654.5" y="-265.5" font-family="Helvetica,sans-Serif" font-size="10.00">dem/dem_solver_parameters.h</text>
</a>
</g>
</g>
<!-- Node3&#45;&gt;Node4 -->
<g id="edge3_Node000003_Node000004" class="edge">
<title>Node3&#45;&gt;Node4</title>
<g id="a_edge3_Node000003_Node000004"><a xlink:title=" ">
<path fill="none" stroke="#63b8ff" d="M1050.93,-321.35C974.27,-311.23 820.88,-290.97 729,-278.84"/>
<polygon fill="#63b8ff" stroke="#63b8ff" points="729.31,-275.35 718.93,-277.51 728.39,-282.29 729.31,-275.35"/>
</a>
</g>
</g>
<!-- Node23 -->
<g id="Node000023" class="node">
<title>Node23</title>
<g id="a_Node000023"><a xlink:title=" ">
<polygon fill="#e0e0e0" stroke="#999999" points="914,-30 783,-30 783,0 914,0 914,-30"/>
<text text-anchor="start" x="791" y="-18" font-family="Helvetica,sans-Serif" font-size="10.00">deal.II/particles/particle</text>
<text text-anchor="middle" x="848.5" y="-7" font-family="Helvetica,sans-Serif" font-size="10.00">_iterator.h</text>
</a>
</g>
</g>
<!-- Node3&#45;&gt;Node23 -->
<g id="edge36_Node000003_Node000023" class="edge">
<title>Node3&#45;&gt;Node23</title>
<g id="a_edge36_Node000003_Node000023"><a xlink:title=" ">
<path fill="none" stroke="#63b8ff" d="M1054.79,-318.94C1030.58,-312.37 1000.93,-301.23 979.5,-283 948.26,-256.43 933.5,-244.01 933.5,-203 933.5,-203 933.5,-203 933.5,-140.5 933.5,-98.23 899.66,-59.74 874.69,-37.08"/>
<polygon fill="#63b8ff" stroke="#63b8ff" points="876.77,-34.26 866.94,-30.3 872.16,-39.52 876.77,-34.26"/>
</a>
</g>
</g>
<!-- Node24 -->
<g id="Node000024" class="node">
<title>Node24</title>
<g id="a_Node000024"><a xlink:title=" ">
<polygon fill="#e0e0e0" stroke="#999999" points="1037,-30 932,-30 932,0 1037,0 1037,-30"/>
<text text-anchor="start" x="940" y="-18" font-family="Helvetica,sans-Serif" font-size="10.00">boost/archive/text</text>
<text text-anchor="middle" x="984.5" y="-7" font-family="Helvetica,sans-Serif" font-size="10.00">_iarchive.hpp</text>
</a>
</g>
</g>
<!-- Node3&#45;&gt;Node24 -->
<g id="edge37_Node000003_Node000024" class="edge">
<title>Node3&#45;&gt;Node24</title>
<g id="a_edge37_Node000003_Node000024"><a xlink:title=" ">
<path fill="none" stroke="#63b8ff" d="M1069.98,-318.94C1050.99,-311.86 1026.24,-300.16 1009.5,-283 982.01,-254.82 971.5,-242.36 971.5,-203 971.5,-203 971.5,-203 971.5,-140.5 971.5,-105.48 976.65,-65.21 980.47,-40.18"/>
<polygon fill="#63b8ff" stroke="#63b8ff" points="983.95,-40.56 982.05,-30.14 977.04,-39.47 983.95,-40.56"/>
</a>
</g>
</g>
<!-- Node25 -->
<g id="Node000025" class="node">
<title>Node25</title>
<g id="a_Node000025"><a xlink:title=" ">
<polygon fill="#e0e0e0" stroke="#999999" points="1160,-30 1055,-30 1055,0 1160,0 1160,-30"/>
<text text-anchor="start" x="1063" y="-18" font-family="Helvetica,sans-Serif" font-size="10.00">boost/archive/text</text>
<text text-anchor="middle" x="1107.5" y="-7" font-family="Helvetica,sans-Serif" font-size="10.00">_oarchive.hpp</text>
</a>
</g>
</g>
<!-- Node3&#45;&gt;Node25 -->
<g id="edge38_Node000003_Node000025" class="edge">
<title>Node3&#45;&gt;Node25</title>
<g id="a_edge38_Node000003_Node000025"><a xlink:title=" ">
<path fill="none" stroke="#63b8ff" d="M1076.6,-318.91C1061.32,-311.57 1041.27,-299.56 1029.5,-283 1008.26,-253.13 1009.5,-239.65 1009.5,-203 1009.5,-203 1009.5,-203 1009.5,-140.5 1009.5,-96.19 1048.31,-58.34 1077.08,-36.37"/>
<polygon fill="#63b8ff" stroke="#63b8ff" points="1079.29,-39.09 1085.26,-30.34 1075.14,-33.46 1079.29,-39.09"/>
</a>
</g>
</g>
<!-- Node46 -->
<g id="Node000046" class="node">
<title>Node46</title>
<g id="a_Node000046"><a xlink:href="distributions_8h.html" target="_top" xlink:title=" ">
<polygon fill="white" stroke="#666666" points="905,-277.5 794,-277.5 794,-258.5 905,-258.5 905,-277.5"/>
<text text-anchor="middle" x="849.5" y="-265.5" font-family="Helvetica,sans-Serif" font-size="10.00">dem/distributions.h</text>
</a>
</g>
</g>
<!-- Node3&#45;&gt;Node46 -->
<g id="edge27_Node000003_Node000046" class="edge">
<title>Node3&#45;&gt;Node46</title>
<g id="a_edge27_Node000003_Node000046"><a xlink:title=" ">
<path fill="none" stroke="#63b8ff" d="M1061.44,-318.99C1017.54,-308.64 943.35,-291.14 895.42,-279.83"/>
<polygon fill="#63b8ff" stroke="#63b8ff" points="896.14,-276.41 885.6,-277.52 894.53,-283.22 896.14,-276.41"/>
</a>
</g>
</g>
<!-- Node48 -->
<g id="Node000048" class="node">
<title>Node48</title>
<g id="a_Node000048"><a xlink:title=" ">
<polygon fill="#e0e0e0" stroke="#999999" points="1157,-283 1038,-283 1038,-253 1157,-253 1157,-283"/>
<text text-anchor="start" x="1046" y="-271" font-family="Helvetica,sans-Serif" font-size="10.00">deal.II/base/data_out</text>
<text text-anchor="middle" x="1097.5" y="-260" font-family="Helvetica,sans-Serif" font-size="10.00">_base.h</text>
</a>
</g>
</g>
<!-- Node3&#45;&gt;Node48 -->
<g id="edge30_Node000003_Node000048" class="edge">
<title>Node3&#45;&gt;Node48</title>
<g id="a_edge30_Node000003_Node000048"><a xlink:title=" ">
<path fill="none" stroke="#63b8ff" d="M1097.5,-318.87C1097.5,-312.11 1097.5,-302.35 1097.5,-293.26"/>
<polygon fill="#63b8ff" stroke="#63b8ff" points="1101,-293.11 1097.5,-283.11 1094,-293.11 1101,-293.11"/>
</a>
</g>
</g>
<!-- Node49 -->
<g id="Node000049" class="node">
<title>Node49</title>
<g id="a_Node000049"><a xlink:title=" ">
<polygon fill="#e0e0e0" stroke="#999999" points="1277.5,-283 1175.5,-283 1175.5,-253 1277.5,-253 1277.5,-283"/>
<text text-anchor="start" x="1183.5" y="-271" font-family="Helvetica,sans-Serif" font-size="10.00">deal.II/distributed</text>
<text text-anchor="middle" x="1226.5" y="-260" font-family="Helvetica,sans-Serif" font-size="10.00">/tria.h</text>
</a>
</g>
</g>
<!-- Node3&#45;&gt;Node49 -->
<g id="edge31_Node000003_Node000049" class="edge">
<title>Node3&#45;&gt;Node49</title>
<g id="a_edge31_Node000003_Node000049"><a xlink:title=" ">
<path fill="none" stroke="#63b8ff" d="M1116.26,-318.99C1134.44,-310.75 1162.6,-297.98 1185.92,-287.4"/>
<polygon fill="#63b8ff" stroke="#63b8ff" points="1187.57,-290.5 1195.24,-283.18 1184.68,-284.12 1187.57,-290.5"/>
</a>
</g>
</g>
<!-- Node50 -->
<g id="Node000050" class="node">
<title>Node50</title>
<g id="a_Node000050"><a xlink:title=" ">
<polygon fill="#e0e0e0" stroke="#999999" points="1401.5,-283 1295.5,-283 1295.5,-253 1401.5,-253 1401.5,-283"/>
<text text-anchor="start" x="1303.5" y="-271" font-family="Helvetica,sans-Serif" font-size="10.00">deal.II/grid/filtered</text>
<text text-anchor="middle" x="1348.5" y="-260" font-family="Helvetica,sans-Serif" font-size="10.00">_iterator.h</text>
</a>
</g>
</g>
<!-- Node3&#45;&gt;Node50 -->
<g id="edge32_Node000003_Node000050" class="edge">
<title>Node3&#45;&gt;Node50</title>
<g id="a_edge32_Node000003_Node000050"><a xlink:title=" ">
<path fill="none" stroke="#63b8ff" d="M1134,-318.99C1173.6,-309.76 1237.57,-294.85 1285.36,-283.72"/>
<polygon fill="#63b8ff" stroke="#63b8ff" points="1286.35,-287.08 1295.3,-281.4 1284.76,-280.26 1286.35,-287.08"/>
</a>
</g>
</g>
<!-- Node51 -->
<g id="Node000051" class="node">
<title>Node51</title>
<g id="a_Node000051"><a xlink:title=" ">
<polygon fill="#e0e0e0" stroke="#999999" points="1571,-277.5 1420,-277.5 1420,-258.5 1571,-258.5 1571,-277.5"/>
<text text-anchor="middle" x="1495.5" y="-265.5" font-family="Helvetica,sans-Serif" font-size="10.00">deal.II/grid/grid_generator.h</text>
</a>
</g>
</g>
<!-- Node3&#45;&gt;Node51 -->
<g id="edge33_Node000003_Node000051" class="edge">
<title>Node3&#45;&gt;Node51</title>
<g id="a_edge33_Node000003_Node000051"><a xlink:title=" ">
<path fill="none" stroke="#63b8ff" d="M1144.21,-321.19C1205.43,-312.84 1316.1,-297.48 1410.5,-283 1418.38,-281.79 1426.67,-280.48 1434.85,-279.16"/>
<polygon fill="#63b8ff" stroke="#63b8ff" points="1435.43,-282.61 1444.74,-277.55 1434.31,-275.7 1435.43,-282.61"/>
</a>
</g>
</g>
<!-- Node52 -->
<g id="Node000052" class="node">
<title>Node52</title>
<g id="a_Node000052"><a xlink:title=" ">
<polygon fill="#e0e0e0" stroke="#999999" points="1717.5,-277.5 1589.5,-277.5 1589.5,-258.5 1717.5,-258.5 1717.5,-277.5"/>
<text text-anchor="middle" x="1653.5" y="-265.5" font-family="Helvetica,sans-Serif" font-size="10.00">deal.II/grid/grid_tools.h</text>
</a>
</g>
</g>
<!-- Node3&#45;&gt;Node52 -->
<g id="edge34_Node000003_Node000052" class="edge">
<title>Node3&#45;&gt;Node52</title>
<g id="a_edge34_Node000003_Node000052"><a xlink:title=" ">
<path fill="none" stroke="#63b8ff" d="M1144.3,-324.71C1230.77,-319.22 1421.25,-305.55 1580.5,-283 1587.7,-281.98 1595.27,-280.73 1602.7,-279.4"/>
<polygon fill="#63b8ff" stroke="#63b8ff" points="1603.49,-282.81 1612.69,-277.55 1602.22,-275.93 1603.49,-282.81"/>
</a>
</g>
</g>
<!-- Node53 -->
<g id="Node000053" class="node">
<title>Node53</title>
<g id="a_Node000053"><a xlink:title=" ">
<polygon fill="#e0e0e0" stroke="#999999" points="1867,-283 1736,-283 1736,-253 1867,-253 1867,-283"/>
<text text-anchor="start" x="1744" y="-271" font-family="Helvetica,sans-Serif" font-size="10.00">deal.II/particles/particle</text>
<text text-anchor="middle" x="1801.5" y="-260" font-family="Helvetica,sans-Serif" font-size="10.00">_handler.h</text>
</a>
</g>
</g>
<!-- Node3&#45;&gt;Node53 -->
<g id="edge35_Node000003_Node000053" class="edge">
<title>Node3&#45;&gt;Node53</title>
<g id="a_edge35_Node000003_Node000053"><a xlink:title=" ">
<path fill="none" stroke="#63b8ff" d="M1144.24,-326.01C1247.35,-322.35 1502.26,-311.12 1725.77,-282.98"/>
<polygon fill="#63b8ff" stroke="#63b8ff" points="1726.24,-286.45 1735.72,-281.72 1725.35,-279.51 1726.24,-286.45"/>
</a>
</g>
</g>
<!-- Node5 -->
<g id="Node000005" class="node">
<title>Node5</title>
<g id="a_Node000005"><a xlink:href="parameters_8h.html" target="_top" xlink:title=" ">
<polygon fill="white" stroke="#666666" points="579.5,-151 473.5,-151 473.5,-132 579.5,-132 579.5,-151"/>
<text text-anchor="middle" x="526.5" y="-139" font-family="Helvetica,sans-Serif" font-size="10.00">core/parameters.h</text>
</a>
</g>
</g>
<!-- Node4&#45;&gt;Node5 -->
<g id="edge4_Node000004_Node000005" class="edge">
<title>Node4&#45;&gt;Node5</title>
<g id="a_edge4_Node000004_Node000005"><a xlink:title=" ">
<path fill="none" stroke="#63b8ff" d="M645.7,-258.44C624.42,-237.74 569.9,-184.71 542.59,-158.15"/>
<polygon fill="#63b8ff" stroke="#63b8ff" points="544.97,-155.58 535.36,-151.12 540.09,-160.6 544.97,-155.58"/>
</a>
</g>
</g>
<!-- Node44 -->
<g id="Node000044" class="node">
<title>Node44</title>
<g id="a_Node000044"><a xlink:href="parameters__lagrangian_8h.html" target="_top" xlink:title="Parameter structures for Lagrangian (DEM) particle simulations.">
<polygon fill="white" stroke="#666666" points="819,-211.5 656,-211.5 656,-192.5 819,-192.5 819,-211.5"/>
<text text-anchor="middle" x="737.5" y="-199.5" font-family="Helvetica,sans-Serif" font-size="10.00">core/parameters_lagrangian.h</text>
</a>
</g>
</g>
<!-- Node4&#45;&gt;Node44 -->
<g id="edge19_Node000004_Node000044" class="edge">
<title>Node4&#45;&gt;Node44</title>
<g id="a_edge19_Node000004_Node000044"><a xlink:title=" ">
<path fill="none" stroke="#63b8ff" d="M665.69,-258.37C679.06,-248.06 701.65,-230.65 717.92,-218.09"/>
<polygon fill="#63b8ff" stroke="#63b8ff" points="720.44,-220.58 726.22,-211.7 716.16,-215.03 720.44,-220.58"/>
</a>
</g>
</g>
<!-- Node45 -->
<g id="Node000045" class="node">
<title>Node45</title>
<g id="a_Node000045"><a xlink:href="solid__objects__parameters_8h.html" target="_top" xlink:title="Parameter classes for solid objects used in Nitsche immersed boundary and DEM simulations.">
<polygon fill="white" stroke="#666666" points="514.5,-217 410.5,-217 410.5,-187 514.5,-187 514.5,-217"/>
<text text-anchor="start" x="418.5" y="-205" font-family="Helvetica,sans-Serif" font-size="10.00">core/solid_objects</text>
<text text-anchor="middle" x="462.5" y="-194" font-family="Helvetica,sans-Serif" font-size="10.00">_parameters.h</text>
</a>
</g>
</g>
<!-- Node4&#45;&gt;Node45 -->
<g id="edge23_Node000004_Node000045" class="edge">
<title>Node4&#45;&gt;Node45</title>
<g id="a_edge23_Node000004_Node000045"><a xlink:title=" ">
<path fill="none" stroke="#63b8ff" d="M628.61,-258.37C599.48,-248.66 551.42,-232.64 514.47,-220.32"/>
<polygon fill="#63b8ff" stroke="#63b8ff" points="515.44,-216.96 504.85,-217.12 513.23,-223.6 515.44,-216.96"/>
</a>
</g>
</g>
<!-- Node6 -->
<g id="Node000006" class="node">
<title>Node6</title>
<g id="a_Node000006"><a xlink:href="dimensionality_8h.html" target="_top" xlink:title=" ">
<polygon fill="white" stroke="#666666" points="361,-90.5 240,-90.5 240,-71.5 361,-71.5 361,-90.5"/>
<text text-anchor="middle" x="300.5" y="-78.5" font-family="Helvetica,sans-Serif" font-size="10.00">core/dimensionality.h</text>
</a>
</g>
</g>
<!-- Node5&#45;&gt;Node6 -->
<g id="edge5_Node000005_Node000006" class="edge">
<title>Node5&#45;&gt;Node6</title>
<g id="a_edge5_Node000005_Node000006"><a xlink:title=" ">
<path fill="none" stroke="#63b8ff" d="M493.64,-131.99C453.89,-121.7 386.87,-104.36 343.17,-93.04"/>
<polygon fill="#63b8ff" stroke="#63b8ff" points="343.96,-89.63 333.4,-90.52 342.21,-96.41 343.96,-89.63"/>
</a>
</g>
</g>
<!-- Node7 -->
<g id="Node000007" class="node">
<title>Node7</title>
<g id="a_Node000007"><a xlink:title=" ">
<polygon fill="#e0e0e0" stroke="#999999" points="702,-30 575,-30 575,0 702,0 702,-30"/>
<text text-anchor="start" x="583" y="-18" font-family="Helvetica,sans-Serif" font-size="10.00">deal.II/base/parameter</text>
<text text-anchor="middle" x="638.5" y="-7" font-family="Helvetica,sans-Serif" font-size="10.00">_handler.h</text>
</a>
</g>
</g>
<!-- Node5&#45;&gt;Node7 -->
<g id="edge16_Node000005_Node000007" class="edge">
<title>Node5&#45;&gt;Node7</title>
<g id="a_edge16_Node000005_Node000007"><a xlink:title=" ">
<path fill="none" stroke="#63b8ff" d="M579.66,-132.3C619.77,-124.91 669.95,-112.64 682.5,-96 696.49,-77.46 680.04,-53.93 663.42,-37.2"/>
<polygon fill="#63b8ff" stroke="#63b8ff" points="665.54,-34.38 655.88,-30.03 660.72,-39.46 665.54,-34.38"/>
</a>
</g>
</g>
<!-- Node8 -->
<g id="Node000008" class="node">
<title>Node8</title>
<g id="a_Node000008"><a xlink:href="ib__particle_8h.html" target="_top" xlink:title=" ">
<polygon fill="#fff0f0" stroke="red" points="222,-90.5 121,-90.5 121,-71.5 222,-71.5 222,-90.5"/>
<text text-anchor="middle" x="171.5" y="-78.5" font-family="Helvetica,sans-Serif" font-size="10.00">core/ib_particle.h</text>
</a>
</g>
</g>
<!-- Node5&#45;&gt;Node8 -->
<g id="edge7_Node000005_Node000008" class="edge">
<title>Node5&#45;&gt;Node8</title>
<g id="a_edge7_Node000005_Node000008"><a xlink:title=" ">
<path fill="none" stroke="#63b8ff" d="M473.26,-133.77C414.02,-125.97 315.56,-112.12 231.5,-96 226.44,-95.03 221.17,-93.93 215.93,-92.78"/>
<polygon fill="#63b8ff" stroke="#63b8ff" points="216.51,-89.33 205.98,-90.54 214.97,-96.15 216.51,-89.33"/>
</a>
</g>
</g>
<!-- Node41 -->
<g id="Node000041" class="node">
<title>Node41</title>
<g id="a_Node000041"><a xlink:title=" ">
<polygon fill="#e0e0e0" stroke="#999999" points="109,-30 0,-30 0,0 109,0 109,-30"/>
<text text-anchor="start" x="8" y="-18" font-family="Helvetica,sans-Serif" font-size="10.00">deal.II/base/parsed</text>
<text text-anchor="middle" x="54.5" y="-7" font-family="Helvetica,sans-Serif" font-size="10.00">_function.h</text>
</a>
</g>
</g>
<!-- Node5&#45;&gt;Node41 -->
<g id="edge17_Node000005_Node000041" class="edge">
<title>Node5&#45;&gt;Node41</title>
<g id="a_edge17_Node000005_Node000041"><a xlink:title=" ">
<path fill="none" stroke="#63b8ff" d="M473.45,-140.08C375.92,-138.45 172.62,-130.85 112.5,-96 90.26,-83.11 74.18,-57.89 64.67,-39.2"/>
<polygon fill="#63b8ff" stroke="#63b8ff" points="67.79,-37.61 60.3,-30.12 61.48,-40.65 67.79,-37.61"/>
</a>
</g>
</g>
<!-- Node42 -->
<g id="Node000042" class="node">
<title>Node42</title>
<g id="a_Node000042"><a xlink:href="multiphysics_8h.html" target="_top" xlink:title="Identifiers for multiphysics modules and their solution fields.">
<polygon fill="white" stroke="#666666" points="491.5,-90.5 379.5,-90.5 379.5,-71.5 491.5,-71.5 491.5,-90.5"/>
<text text-anchor="middle" x="435.5" y="-78.5" font-family="Helvetica,sans-Serif" font-size="10.00">core/multiphysics.h</text>
</a>
</g>
</g>
<!-- Node5&#45;&gt;Node42 -->
<g id="edge9_Node000005_Node000042" class="edge">
<title>Node5&#45;&gt;Node42</title>
<g id="a_edge9_Node000005_Node000042"><a xlink:title=" ">
<path fill="none" stroke="#63b8ff" d="M513.07,-131.87C498.42,-122.45 474.74,-107.23 457.4,-96.08"/>
<polygon fill="#63b8ff" stroke="#63b8ff" points="459.29,-93.13 448.98,-90.67 455.5,-99.02 459.29,-93.13"/>
</a>
</g>
</g>
<!-- Node16 -->
<g id="Node000016" class="node">
<title>Node16</title>
<g id="a_Node000016"><a xlink:href="utilities_8h.html" target="_top" xlink:title=" ">
<polygon fill="#fff0f0" stroke="red" points="891.5,-90.5 805.5,-90.5 805.5,-71.5 891.5,-71.5 891.5,-90.5"/>
<text text-anchor="middle" x="848.5" y="-78.5" font-family="Helvetica,sans-Serif" font-size="10.00">core/utilities.h</text>
</a>
</g>
</g>
<!-- Node5&#45;&gt;Node16 -->
<g id="edge10_Node000005_Node000016" class="edge">
<title>Node5&#45;&gt;Node16</title>
<g id="a_edge10_Node000005_Node000016"><a xlink:title=" ">
<path fill="none" stroke="#63b8ff" d="M573.32,-131.99C632.39,-121.26 733.7,-102.86 795.54,-91.62"/>
<polygon fill="#63b8ff" stroke="#63b8ff" points="796.27,-95.05 805.49,-89.81 795.02,-88.16 796.27,-95.05"/>
</a>
</g>
</g>
<!-- Node43 -->
<g id="Node000043" class="node">
<title>Node43</title>
<g id="a_Node000043"><a xlink:title=" ">
<polygon fill="#e0e0e0" stroke="#999999" points="673,-96 510,-96 510,-66 673,-66 673,-96"/>
<text text-anchor="start" x="518" y="-84" font-family="Helvetica,sans-Serif" font-size="10.00">deal.II/multigrid/mg</text>
<text text-anchor="middle" x="591.5" y="-73" font-family="Helvetica,sans-Serif" font-size="10.00">_transfer_global_coarsening.h</text>
</a>
</g>
</g>
<!-- Node5&#45;&gt;Node43 -->
<g id="edge18_Node000005_Node000043" class="edge">
<title>Node5&#45;&gt;Node43</title>
<g id="a_edge18_Node000005_Node000043"><a xlink:title=" ">
<path fill="none" stroke="#63b8ff" d="M536.09,-131.87C544.5,-124.3 557.08,-112.98 568.13,-103.04"/>
<polygon fill="#63b8ff" stroke="#63b8ff" points="570.73,-105.41 575.82,-96.11 566.04,-100.2 570.73,-105.41"/>
</a>
</g>
</g>
<!-- Node6&#45;&gt;Node7 -->
<g id="edge6_Node000006_Node000007" class="edge">
<title>Node6&#45;&gt;Node7</title>
<g id="a_edge6_Node000006_Node000007"><a xlink:title=" ">
<path fill="none" stroke="#63b8ff" d="M342.68,-71.47C351.85,-69.64 361.5,-67.74 370.5,-66 436.09,-53.32 510.83,-39.42 564.69,-29.51"/>
<polygon fill="#63b8ff" stroke="#63b8ff" points="565.63,-32.89 574.83,-27.64 564.36,-26.01 565.63,-32.89"/>
</a>
</g>
</g>
<!-- Node8&#45;&gt;Node41 -->
<g id="edge8_Node000008_Node000041" class="edge">
<title>Node8&#45;&gt;Node41</title>
<g id="a_edge8_Node000008_Node000041"><a xlink:title=" ">
<path fill="none" stroke="#63b8ff" d="M155.72,-71.37C138.8,-62.11 111.4,-47.12 89.37,-35.07"/>
<polygon fill="#63b8ff" stroke="#63b8ff" points="90.76,-31.84 80.31,-30.12 87.4,-37.99 90.76,-31.84"/>
</a>
</g>
</g>
<!-- Node16&#45;&gt;Node7 -->
<g id="edge11_Node000016_Node000007" class="edge">
<title>Node16&#45;&gt;Node7</title>
<g id="a_edge11_Node000016_Node000007"><a xlink:title=" ">
<path fill="none" stroke="#63b8ff" d="M820.18,-71.37C788.12,-61.6 735.08,-45.43 694.56,-33.09"/>
<polygon fill="#63b8ff" stroke="#63b8ff" points="695.4,-29.68 684.82,-30.12 693.36,-36.38 695.4,-29.68"/>
</a>
</g>
</g>
<!-- Node16&#45;&gt;Node23 -->
<g id="edge12_Node000016_Node000023" class="edge">
<title>Node16&#45;&gt;Node23</title>
<g id="a_edge12_Node000016_Node000023"><a xlink:title=" ">
<path fill="none" stroke="#63b8ff" d="M848.5,-71.37C848.5,-63.49 848.5,-51.45 848.5,-40.6"/>
<polygon fill="#63b8ff" stroke="#63b8ff" points="852,-40.36 848.5,-30.36 845,-40.36 852,-40.36"/>
</a>
</g>
</g>
<!-- Node16&#45;&gt;Node24 -->
<g id="edge13_Node000016_Node000024" class="edge">
<title>Node16&#45;&gt;Node24</title>
<g id="a_edge13_Node000016_Node000024"><a xlink:title=" ">
<path fill="none" stroke="#63b8ff" d="M866.84,-71.37C886.86,-61.95 919.5,-46.59 945.33,-34.43"/>
<polygon fill="#63b8ff" stroke="#63b8ff" points="946.95,-37.54 954.5,-30.12 943.97,-31.21 946.95,-37.54"/>
</a>
</g>
</g>
<!-- Node16&#45;&gt;Node25 -->
<g id="edge14_Node000016_Node000025" class="edge">
<title>Node16&#45;&gt;Node25</title>
<g id="a_edge14_Node000016_Node000025"><a xlink:title=" ">
<path fill="none" stroke="#63b8ff" d="M883.16,-71.44C924.38,-61.25 993.99,-44.05 1044.76,-31.5"/>
<polygon fill="#63b8ff" stroke="#63b8ff" points="1045.78,-34.86 1054.65,-29.06 1044.1,-28.06 1045.78,-34.86"/>
</a>
</g>
</g>
<!-- Node10 -->
<g id="Node000010" class="node">
<title>Node10</title>
<g id="a_Node000010"><a xlink:title=" ">
<polygon fill="#e0e0e0" stroke="#999999" points="764.5,-24.5 720.5,-24.5 720.5,-5.5 764.5,-5.5 764.5,-24.5"/>
<text text-anchor="middle" x="742.5" y="-12.5" font-family="Helvetica,sans-Serif" font-size="10.00">string</text>
</a>
</g>
</g>
<!-- Node16&#45;&gt;Node10 -->
<g id="edge15_Node000016_Node000010" class="edge">
<title>Node16&#45;&gt;Node10</title>
<g id="a_edge15_Node000016_Node000010"><a xlink:title=" ">
<path fill="none" stroke="#63b8ff" d="M834.2,-71.37C816.58,-60.73 786.41,-42.51 765.51,-29.89"/>
<polygon fill="#63b8ff" stroke="#63b8ff" points="767.28,-26.87 756.91,-24.7 763.66,-32.86 767.28,-26.87"/>
</a>
</g>
</g>
<!-- Node44&#45;&gt;Node5 -->
<g id="edge20_Node000044_Node000005" class="edge">
<title>Node44&#45;&gt;Node5</title>
<g id="a_edge20_Node000044_Node000005"><a xlink:title=" ">
<path fill="none" stroke="#63b8ff" d="M706.82,-192.49C669.94,-182.27 607.93,-165.08 567.11,-153.76"/>
<polygon fill="#63b8ff" stroke="#63b8ff" points="567.79,-150.32 557.22,-151.02 565.92,-157.06 567.79,-150.32"/>
</a>
</g>
</g>
<!-- Node44&#45;&gt;Node7 -->
<g id="edge21_Node000044_Node000007" class="edge">
<title>Node44&#45;&gt;Node7</title>
<g id="a_edge21_Node000044_Node000007"><a xlink:title=" ">
<path fill="none" stroke="#63b8ff" d="M736.76,-192.38C734.49,-169.85 725.98,-108.07 698.5,-66 691.01,-54.53 680.09,-44.33 669.61,-36.18"/>
<polygon fill="#63b8ff" stroke="#63b8ff" points="671.5,-33.23 661.38,-30.1 667.35,-38.86 671.5,-33.23"/>
</a>
</g>
</g>
<!-- Node44&#45;&gt;Node10 -->
<g id="edge22_Node000044_Node000010" class="edge">
<title>Node44&#45;&gt;Node10</title>
<g id="a_edge22_Node000044_Node000010"><a xlink:title=" ">
<path fill="none" stroke="#63b8ff" d="M741.18,-192.35C745.13,-182.53 751.17,-165.95 753.5,-151 759.33,-113.67 757.58,-103.56 753.5,-66 752.35,-55.46 749.89,-43.88 747.58,-34.52"/>
<polygon fill="#63b8ff" stroke="#63b8ff" points="750.94,-33.55 745.03,-24.76 744.17,-35.32 750.94,-33.55"/>
</a>
</g>
</g>
<!-- Node45&#45;&gt;Node5 -->
<g id="edge24_Node000045_Node000005" class="edge">
<title>Node45&#45;&gt;Node5</title>
<g id="a_edge24_Node000045_Node000005"><a xlink:title=" ">
<path fill="none" stroke="#63b8ff" d="M477.99,-186.84C487.47,-178.17 499.61,-167.08 509.38,-158.15"/>
<polygon fill="#63b8ff" stroke="#63b8ff" points="511.89,-160.6 516.91,-151.27 507.17,-155.43 511.89,-160.6"/>
</a>
</g>
</g>
<!-- Node45&#45;&gt;Node7 -->
<g id="edge25_Node000045_Node000007" class="edge">
<title>Node45&#45;&gt;Node7</title>
<g id="a_edge25_Node000045_Node000007"><a xlink:title=" ">
<path fill="none" stroke="#63b8ff" d="M410.1,-198.48C292.41,-191.04 24.1,-163.21 112.5,-66 142.34,-33.19 427.33,-21.42 564.9,-17.62"/>
<polygon fill="#63b8ff" stroke="#63b8ff" points="565.04,-21.12 574.94,-17.35 564.85,-14.12 565.04,-21.12"/>
</a>
</g>
</g>
<!-- Node45&#45;&gt;Node41 -->
<g id="edge26_Node000045_Node000041" class="edge">
<title>Node45&#45;&gt;Node41</title>
<g id="a_edge26_Node000045_Node000041"><a xlink:title=" ">
<path fill="none" stroke="#63b8ff" d="M410.3,-199.29C324,-195.56 156.33,-184.14 108.5,-151 72.12,-125.8 60.24,-71.79 56.37,-40.26"/>
<polygon fill="#63b8ff" stroke="#63b8ff" points="59.83,-39.71 55.31,-30.13 52.87,-40.44 59.83,-39.71"/>
</a>
</g>
</g>
<!-- Node46&#45;&gt;Node44 -->
<g id="edge28_Node000046_Node000044" class="edge">
<title>Node46&#45;&gt;Node44</title>
<g id="a_edge28_Node000046_Node000044"><a xlink:title=" ">
<path fill="none" stroke="#63b8ff" d="M834.4,-258.37C815.69,-247.68 783.6,-229.35 761.51,-216.72"/>
<polygon fill="#63b8ff" stroke="#63b8ff" points="763.14,-213.62 752.72,-211.7 759.67,-219.7 763.14,-213.62"/>
</a>
</g>
</g>
<!-- Node47 -->
<g id="Node000047" class="node">
<title>Node47</title>
<g id="a_Node000047"><a xlink:title=" ">
<polygon fill="#e0e0e0" stroke="#999999" points="891.5,-211.5 837.5,-211.5 837.5,-192.5 891.5,-192.5 891.5,-211.5"/>
<text text-anchor="middle" x="864.5" y="-199.5" font-family="Helvetica,sans-Serif" font-size="10.00">random</text>
</a>
</g>
</g>
<!-- Node46&#45;&gt;Node47 -->
<g id="edge29_Node000046_Node000047" class="edge">
<title>Node46&#45;&gt;Node47</title>
<g id="a_edge29_Node000046_Node000047"><a xlink:title=" ">
<path fill="none" stroke="#63b8ff" d="M851.52,-258.37C853.7,-249.07 857.24,-233.98 860.07,-221.9"/>
<polygon fill="#63b8ff" stroke="#63b8ff" points="863.54,-222.44 862.41,-211.91 856.72,-220.84 863.54,-222.44"/>
</a>
</g>
</g>
</g>
</svg>
