<?xml version="1.0" encoding="UTF-8" standalone="no"?>
<!DOCTYPE svg PUBLIC "-//W3C//DTD SVG 1.1//EN"
 "http://www.w3.org/Graphics/SVG/1.1/DTD/svg11.dtd">
<!-- Generated by graphviz version 2.43.0 (0)
 -->
<!-- Title: /home/runner/work/lethe/lethe/include/dem/insertion.h Pages: 1 -->
<svg width="1915pt" height="357pt"
 viewBox="0.00 0.00 1914.50 357.00" xmlns="http://www.w3.org/2000/svg" xmlns:xlink="http://www.w3.org/1999/xlink">
<g id="graph0" class="graph" transform="scale(1 1) rotate(0) translate(4 353)">
<title>/home/runner/work/lethe/lethe/include/dem/insertion.h</title>
<!-- Node1 -->
<g id="Node000001" class="node">
<title>Node1</title>
<g id="a_Node000001"><a xlink:title=" ">
<polygon fill="#999999" stroke="#666666" points="1113.5,-349 951.5,-349 951.5,-319 1113.5,-319 1113.5,-349"/>
<text text-anchor="start" x="959.5" y="-337" font-family="Helvetica,sans-Serif" font-size="10.00">/home/runner/work/lethe</text>
<text text-anchor="middle" x="1032.5" y="-326" font-family="Helvetica,sans-Serif" font-size="10.00">/lethe/include/dem/insertion.h</text>
</a>
</g>
</g>
<!-- Node2 -->
<g id="Node000002" class="node">
<title>Node2</title>
<g id="a_Node000002"><a xlink:href="dem_8h.html" target="_top" xlink:title=" ">
<polygon fill="white" stroke="#666666" points="383,-277.5 242,-277.5 242,-247.5 383,-247.5 383,-277.5"/>
<text text-anchor="start" x="250" y="-265.5" font-family="Helvetica,sans-Serif" font-size="10.00">/home/runner/work/lethe</text>
<text text-anchor="middle" x="312.5" y="-254.5" font-family="Helvetica,sans-Serif" font-size="10.00">/lethe/include/dem/dem.h</text>
</a>
</g>
</g>
<!-- Node1&#45;&gt;Node2 -->
<g id="edge1_Node000001_Node000002" class="edge">
<title>Node1&#45;&gt;Node2</title>
<g id="a_edge1_Node000001_Node000002"><a xlink:title=" ">
<path fill="none" stroke="#63b8ff" d="M941.09,-326.75C826.17,-318.52 622.92,-302.76 449.5,-283 427.9,-280.54 404.45,-277.38 383.16,-274.33"/>
<polygon fill="#63b8ff" stroke="#63b8ff" points="941.02,-330.25 951.25,-327.47 941.52,-323.27 941.02,-330.25"/>
</a>
</g>
</g>
<!-- Node10 -->
<g id="Node000010" class="node">
<title>Node10</title>
<g id="a_Node000010"><a xlink:href="insertion__file_8h.html" target="_top" xlink:title=" ">
<polygon fill="white" stroke="#666666" points="767,-283 614,-283 614,-242 767,-242 767,-283"/>
<text text-anchor="start" x="622" y="-271" font-family="Helvetica,sans-Serif" font-size="10.00">/home/runner/work/lethe</text>
<text text-anchor="start" x="622" y="-260" font-family="Helvetica,sans-Serif" font-size="10.00">/lethe/include/dem/insertion</text>
<text text-anchor="middle" x="690.5" y="-249" font-family="Helvetica,sans-Serif" font-size="10.00">_file.h</text>
</a>
</g>
</g>
<!-- Node1&#45;&gt;Node10 -->
<g id="edge10_Node000001_Node000010" class="edge">
<title>Node1&#45;&gt;Node10</title>
<g id="a_edge10_Node000001_Node000010"><a xlink:title=" ">
<path fill="none" stroke="#63b8ff" d="M946.61,-317.03C896.6,-307.55 832.39,-295.06 775.5,-283 772.83,-282.44 770.12,-281.85 767.39,-281.26"/>
<polygon fill="#63b8ff" stroke="#63b8ff" points="946.26,-320.53 956.74,-318.95 947.57,-313.65 946.26,-320.53"/>
</a>
</g>
</g>
<!-- Node14 -->
<g id="Node000014" class="node">
<title>Node14</title>
<g id="a_Node000014"><a xlink:href="insertion__list_8h.html" target="_top" xlink:title=" ">
<polygon fill="white" stroke="#666666" points="938,-283 785,-283 785,-242 938,-242 938,-283"/>
<text text-anchor="start" x="793" y="-271" font-family="Helvetica,sans-Serif" font-size="10.00">/home/runner/work/lethe</text>
<text text-anchor="start" x="793" y="-260" font-family="Helvetica,sans-Serif" font-size="10.00">/lethe/include/dem/insertion</text>
<text text-anchor="middle" x="861.5" y="-249" font-family="Helvetica,sans-Serif" font-size="10.00">_list.h</text>
</a>
</g>
</g>
<!-- Node1&#45;&gt;Node14 -->
<g id="edge17_Node000001_Node000014" class="edge">
<title>Node1&#45;&gt;Node14</title>
<g id="a_edge17_Node000001_Node000014"><a xlink:title=" ">
<path fill="none" stroke="#63b8ff" d="M988.61,-315.16C964.46,-305.35 934.45,-293.15 909.66,-283.07"/>
<polygon fill="#63b8ff" stroke="#63b8ff" points="987.31,-318.41 997.9,-318.94 989.95,-311.93 987.31,-318.41"/>
</a>
</g>
</g>
<!-- Node16 -->
<g id="Node000016" class="node">
<title>Node16</title>
<g id="a_Node000016"><a xlink:href="insertion__plane_8h.html" target="_top" xlink:title=" ">
<polygon fill="white" stroke="#666666" points="1109,-283 956,-283 956,-242 1109,-242 1109,-283"/>
<text text-anchor="start" x="964" y="-271" font-family="Helvetica,sans-Serif" font-size="10.00">/home/runner/work/lethe</text>
<text text-anchor="start" x="964" y="-260" font-family="Helvetica,sans-Serif" font-size="10.00">/lethe/include/dem/insertion</text>
<text text-anchor="middle" x="1032.5" y="-249" font-family="Helvetica,sans-Serif" font-size="10.00">_plane.h</text>
</a>
</g>
</g>
<!-- Node1&#45;&gt;Node16 -->
<g id="edge21_Node000001_Node000016" class="edge">
<title>Node1&#45;&gt;Node16</title>
<g id="a_edge21_Node000001_Node000016"><a xlink:title=" ">
<path fill="none" stroke="#63b8ff" d="M1032.5,-308.91C1032.5,-300.47 1032.5,-291.1 1032.5,-283.07"/>
<polygon fill="#63b8ff" stroke="#63b8ff" points="1029,-308.94 1032.5,-318.94 1036,-308.94 1029,-308.94"/>
</a>
</g>
</g>
<!-- Node18 -->
<g id="Node000018" class="node">
<title>Node18</title>
<g id="a_Node000018"><a xlink:href="insertion__volume_8h.html" target="_top" xlink:title=" ">
<polygon fill="white" stroke="#666666" points="1280,-283 1127,-283 1127,-242 1280,-242 1280,-283"/>
<text text-anchor="start" x="1135" y="-271" font-family="Helvetica,sans-Serif" font-size="10.00">/home/runner/work/lethe</text>
<text text-anchor="start" x="1135" y="-260" font-family="Helvetica,sans-Serif" font-size="10.00">/lethe/include/dem/insertion</text>
<text text-anchor="middle" x="1203.5" y="-249" font-family="Helvetica,sans-Serif" font-size="10.00">_volume.h</text>
</a>
</g>
</g>
<!-- Node1&#45;&gt;Node18 -->
<g id="edge24_Node000001_Node000018" class="edge">
<title>Node1&#45;&gt;Node18</title>
<g id="a_edge24_Node000001_Node000018"><a xlink:title=" ">
<path fill="none" stroke="#63b8ff" d="M1076.39,-315.16C1100.54,-305.35 1130.55,-293.15 1155.34,-283.07"/>
<polygon fill="#63b8ff" stroke="#63b8ff" points="1075.05,-311.93 1067.1,-318.94 1077.69,-318.41 1075.05,-311.93"/>
</a>
</g>
</g>
<!-- Node20 -->
<g id="Node000020" class="node">
<title>Node20</title>
<g id="a_Node000020"><a xlink:href="ray__tracing_8h.html" target="_top" xlink:title=" ">
<polygon fill="white" stroke="#666666" points="596,-283 459,-283 459,-242 596,-242 596,-283"/>
<text text-anchor="start" x="467" y="-271" font-family="Helvetica,sans-Serif" font-size="10.00">/home/runner/work/lethe</text>
<text text-anchor="start" x="467" y="-260" font-family="Helvetica,sans-Serif" font-size="10.00">/lethe/include/dem/ray</text>
<text text-anchor="middle" x="527.5" y="-249" font-family="Helvetica,sans-Serif" font-size="10.00">_tracing.h</text>
</a>
</g>
</g>
<!-- Node1&#45;&gt;Node20 -->
<g id="edge27_Node000001_Node000020" class="edge">
<title>Node1&#45;&gt;Node20</title>
<g id="a_edge27_Node000001_Node000020"><a xlink:title=" ">
<path fill="none" stroke="#63b8ff" d="M941.06,-325.83C854.05,-318.18 719.68,-304.22 604.5,-283 601.79,-282.5 599.03,-281.96 596.25,-281.39"/>
<polygon fill="#63b8ff" stroke="#63b8ff" points="940.9,-329.33 951.17,-326.71 941.51,-322.36 940.9,-329.33"/>
</a>
</g>
</g>
<!-- Node21 -->
<g id="Node000021" class="node">
<title>Node21</title>
<g id="a_Node000021"><a xlink:href="read__checkpoint_8h.html" target="_top" xlink:title=" ">
<polygon fill="white" stroke="#666666" points="1724,-283 1587,-283 1587,-242 1724,-242 1724,-283"/>
<text text-anchor="start" x="1595" y="-271" font-family="Helvetica,sans-Serif" font-size="10.00">/home/runner/work/lethe</text>
<text text-anchor="start" x="1595" y="-260" font-family="Helvetica,sans-Serif" font-size="10.00">/lethe/include/dem/read</text>
<text text-anchor="middle" x="1655.5" y="-249" font-family="Helvetica,sans-Serif" font-size="10.00">_checkpoint.h</text>
</a>
</g>
</g>
<!-- Node1&#45;&gt;Node21 -->
<g id="edge29_Node000001_Node000021" class="edge">
<title>Node1&#45;&gt;Node21</title>
<g id="a_edge29_Node000001_Node000021"><a xlink:title=" ">
<path fill="none" stroke="#63b8ff" d="M1123.81,-325.34C1223.81,-316.6 1388.84,-301.15 1530.5,-283 1548.8,-280.66 1568.55,-277.75 1586.83,-274.9"/>
<polygon fill="#63b8ff" stroke="#63b8ff" points="1123.4,-321.86 1113.74,-326.22 1124,-328.84 1123.4,-321.86"/>
</a>
</g>
</g>
<!-- Node23 -->
<g id="Node000023" class="node">
<title>Node23</title>
<g id="a_Node000023"><a xlink:href="write__checkpoint_8h.html" target="_top" xlink:title=" ">
<polygon fill="white" stroke="#666666" points="1521,-283 1384,-283 1384,-242 1521,-242 1521,-283"/>
<text text-anchor="start" x="1392" y="-271" font-family="Helvetica,sans-Serif" font-size="10.00">/home/runner/work/lethe</text>
<text text-anchor="start" x="1392" y="-260" font-family="Helvetica,sans-Serif" font-size="10.00">/lethe/include/dem/write</text>
<text text-anchor="middle" x="1452.5" y="-249" font-family="Helvetica,sans-Serif" font-size="10.00">_checkpoint.h</text>
</a>
</g>
</g>
<!-- Node1&#45;&gt;Node23 -->
<g id="edge32_Node000001_Node000023" class="edge">
<title>Node1&#45;&gt;Node23</title>
<g id="a_edge32_Node000001_Node000023"><a xlink:title=" ">
<path fill="none" stroke="#63b8ff" d="M1124.3,-317.81C1202.47,-304.87 1313.03,-286.58 1383.75,-274.88"/>
<polygon fill="#63b8ff" stroke="#63b8ff" points="1123.27,-314.43 1113.98,-319.52 1124.42,-321.34 1123.27,-314.43"/>
</a>
</g>
</g>
<!-- Node25 -->
<g id="Node000025" class="node">
<title>Node25</title>
<g id="a_Node000025"><a xlink:href="insertion_8cc.html" target="_top" xlink:title=" ">
<polygon fill="white" stroke="#666666" points="1906.5,-277.5 1742.5,-277.5 1742.5,-247.5 1906.5,-247.5 1906.5,-277.5"/>
<text text-anchor="start" x="1750.5" y="-265.5" font-family="Helvetica,sans-Serif" font-size="10.00">/home/runner/work/lethe</text>
<text text-anchor="middle" x="1824.5" y="-254.5" font-family="Helvetica,sans-Serif" font-size="10.00">/lethe/source/dem/insertion.cc</text>
</a>
</g>
</g>
<!-- Node1&#45;&gt;Node25 -->
<g id="edge35_Node000001_Node000025" class="edge">
<title>Node1&#45;&gt;Node25</title>
<g id="a_edge35_Node000001_Node000025"><a xlink:title=" ">
<path fill="none" stroke="#63b8ff" d="M1123.81,-330.56C1258.01,-326.06 1516.14,-313.89 1733.5,-283 1743.58,-281.57 1754.21,-279.66 1764.5,-277.6"/>
<polygon fill="#63b8ff" stroke="#63b8ff" points="1123.46,-327.07 1113.58,-330.9 1123.69,-334.07 1123.46,-327.07"/>
</a>
</g>
</g>
<!-- Node3 -->
<g id="Node000003" class="node">
<title>Node3</title>
<g id="a_Node000003"><a xlink:href="cfd__dem__coupling_8h.html" target="_top" xlink:title=" ">
<polygon fill="white" stroke="#666666" points="292,-123.5 155,-123.5 155,-82.5 292,-82.5 292,-123.5"/>
<text text-anchor="start" x="163" y="-111.5" font-family="Helvetica,sans-Serif" font-size="10.00">/home/runner/work/lethe</text>
<text text-anchor="start" x="163" y="-100.5" font-family="Helvetica,sans-Serif" font-size="10.00">/lethe/include/fem&#45;dem</text>
<text text-anchor="middle" x="223.5" y="-89.5" font-family="Helvetica,sans-Serif" font-size="10.00">/cfd_dem_coupling.h</text>
</a>
</g>
</g>
<!-- Node2&#45;&gt;Node3 -->
<g id="edge2_Node000002_Node000003" class="edge">
<title>Node2&#45;&gt;Node3</title>
<g id="a_edge2_Node000002_Node000003"><a xlink:title=" ">
<path fill="none" stroke="#63b8ff" d="M256.79,-243.07C239.87,-234.57 223.21,-222.57 213.5,-206 198.57,-180.51 207.21,-145.19 215.13,-123.51"/>
<polygon fill="#63b8ff" stroke="#63b8ff" points="255.62,-246.39 266.17,-247.44 258.58,-240.05 255.62,-246.39"/>
</a>
</g>
</g>
<!-- Node5 -->
<g id="Node000005" class="node">
<title>Node5</title>
<g id="a_Node000005"><a xlink:href="cfd__dem__coupling__matrix__free_8h.html" target="_top" xlink:title=" ">
<polygon fill="white" stroke="#666666" points="402,-206 223,-206 223,-165 402,-165 402,-206"/>
<text text-anchor="start" x="231" y="-194" font-family="Helvetica,sans-Serif" font-size="10.00">/home/runner/work/lethe</text>
<text text-anchor="start" x="231" y="-183" font-family="Helvetica,sans-Serif" font-size="10.00">/lethe/include/fem&#45;dem</text>
<text text-anchor="middle" x="312.5" y="-172" font-family="Helvetica,sans-Serif" font-size="10.00">/cfd_dem_coupling_matrix_free.h</text>
</a>
</g>
</g>
<!-- Node2&#45;&gt;Node5 -->
<g id="edge4_Node000002_Node000005" class="edge">
<title>Node2&#45;&gt;Node5</title>
<g id="a_edge4_Node000002_Node000005"><a xlink:title=" ">
<path fill="none" stroke="#63b8ff" d="M312.5,-237.23C312.5,-227.2 312.5,-215.71 312.5,-206.2"/>
<polygon fill="#63b8ff" stroke="#63b8ff" points="309,-237.39 312.5,-247.39 316,-237.39 309,-237.39"/>
</a>
</g>
</g>
<!-- Node7 -->
<g id="Node000007" class="node">
<title>Node7</title>
<g id="a_Node000007"><a xlink:href="fluid__dynamics__vans_8h.html" target="_top" xlink:title=" ">
<polygon fill="white" stroke="#666666" points="166,-206 29,-206 29,-165 166,-165 166,-206"/>
<text text-anchor="start" x="37" y="-194" font-family="Helvetica,sans-Serif" font-size="10.00">/home/runner/work/lethe</text>
<text text-anchor="start" x="37" y="-183" font-family="Helvetica,sans-Serif" font-size="10.00">/lethe/include/fem&#45;dem</text>
<text text-anchor="middle" x="97.5" y="-172" font-family="Helvetica,sans-Serif" font-size="10.00">/fluid_dynamics_vans.h</text>
</a>
</g>
</g>
<!-- Node2&#45;&gt;Node7 -->
<g id="edge6_Node000002_Node000007" class="edge">
<title>Node2&#45;&gt;Node7</title>
<g id="a_edge6_Node000002_Node000007"><a xlink:title=" ">
<path fill="none" stroke="#63b8ff" d="M262.55,-244.08C229.99,-232.72 187.45,-217.88 153.71,-206.11"/>
<polygon fill="#63b8ff" stroke="#63b8ff" points="261.72,-247.49 272.31,-247.48 264.02,-240.88 261.72,-247.49"/>
</a>
</g>
</g>
<!-- Node9 -->
<g id="Node000009" class="node">
<title>Node9</title>
<g id="a_Node000009"><a xlink:href="dem_8cc.html" target="_top" xlink:title=" ">
<polygon fill="white" stroke="#666666" points="1195,-118 1052,-118 1052,-88 1195,-88 1195,-118"/>
<text text-anchor="start" x="1060" y="-106" font-family="Helvetica,sans-Serif" font-size="10.00">/home/runner/work/lethe</text>
<text text-anchor="middle" x="1123.5" y="-95" font-family="Helvetica,sans-Serif" font-size="10.00">/lethe/source/dem/dem.cc</text>
</a>
</g>
</g>
<!-- Node2&#45;&gt;Node9 -->
<g id="edge9_Node000002_Node000009" class="edge">
<title>Node2&#45;&gt;Node9</title>
<g id="a_edge9_Node000002_Node000009"><a xlink:title=" ">
<path fill="none" stroke="#63b8ff" d="M351.76,-242.68C370.37,-232.92 392.44,-220.1 410.5,-206 430.32,-190.52 426.86,-175.95 449.5,-165 502.75,-139.25 889.28,-116.27 1051.81,-107.63"/>
<polygon fill="#63b8ff" stroke="#63b8ff" points="349.95,-239.68 342.65,-247.36 353.15,-245.9 349.95,-239.68"/>
</a>
</g>
</g>
<!-- Node4 -->
<g id="Node000004" class="node">
<title>Node4</title>
<g id="a_Node000004"><a xlink:href="cfd__dem__coupling_8cc.html" target="_top" xlink:title=" ">
<polygon fill="white" stroke="#666666" points="585,-41 448,-41 448,0 585,0 585,-41"/>
<text text-anchor="start" x="456" y="-29" font-family="Helvetica,sans-Serif" font-size="10.00">/home/runner/work/lethe</text>
<text text-anchor="start" x="456" y="-18" font-family="Helvetica,sans-Serif" font-size="10.00">/lethe/source/fem&#45;dem</text>
<text text-anchor="middle" x="516.5" y="-7" font-family="Helvetica,sans-Serif" font-size="10.00">/cfd_dem_coupling.cc</text>
</a>
</g>
</g>
<!-- Node3&#45;&gt;Node4 -->
<g id="edge3_Node000003_Node000004" class="edge">
<title>Node3&#45;&gt;Node4</title>
<g id="a_edge3_Node000003_Node000004"><a xlink:title=" ">
<path fill="none" stroke="#63b8ff" d="M302.02,-80.43C347.53,-67.92 404.29,-52.33 447.98,-40.33"/>
<polygon fill="#63b8ff" stroke="#63b8ff" points="300.91,-77.1 292.2,-83.13 302.77,-83.85 300.91,-77.1"/>
</a>
</g>
</g>
<!-- Node6 -->
<g id="Node000006" class="node">
<title>Node6</title>
<g id="a_Node000006"><a xlink:href="cfd__dem__coupling__matrix__free_8cc.html" target="_top" xlink:title=" ">
<polygon fill="white" stroke="#666666" points="669.5,-129 523.5,-129 523.5,-77 669.5,-77 669.5,-129"/>
<text text-anchor="start" x="531.5" y="-117" font-family="Helvetica,sans-Serif" font-size="10.00">/home/runner/work/lethe</text>
<text text-anchor="start" x="531.5" y="-106" font-family="Helvetica,sans-Serif" font-size="10.00">/lethe/source/fem&#45;dem</text>
<text text-anchor="start" x="531.5" y="-95" font-family="Helvetica,sans-Serif" font-size="10.00">/cfd_dem_coupling_matrix</text>
<text text-anchor="middle" x="596.5" y="-84" font-family="Helvetica,sans-Serif" font-size="10.00">_free.cc</text>
</a>
</g>
</g>
<!-- Node5&#45;&gt;Node6 -->
<g id="edge5_Node000005_Node000006" class="edge">
<title>Node5&#45;&gt;Node6</title>
<g id="a_edge5_Node000005_Node000006"><a xlink:title=" ">
<path fill="none" stroke="#63b8ff" d="M391.36,-162.15C432.67,-150.44 482.92,-136.19 523.35,-124.73"/>
<polygon fill="#63b8ff" stroke="#63b8ff" points="390.28,-158.82 381.61,-164.91 392.19,-165.55 390.28,-158.82"/>
</a>
</g>
</g>
<!-- Node7&#45;&gt;Node3 -->
<g id="edge7_Node000007_Node000003" class="edge">
<title>Node7&#45;&gt;Node3</title>
<g id="a_edge7_Node000007_Node000003"><a xlink:title=" ">
<path fill="none" stroke="#63b8ff" d="M136.86,-159.35C154.81,-147.88 175.76,-134.5 192.56,-123.77"/>
<polygon fill="#63b8ff" stroke="#63b8ff" points="134.87,-156.47 128.32,-164.81 138.63,-162.37 134.87,-156.47"/>
</a>
</g>
</g>
<!-- Node8 -->
<g id="Node000008" class="node">
<title>Node8</title>
<g id="a_Node000008"><a xlink:href="fluid__dynamics__vans_8cc.html" target="_top" xlink:title=" ">
<polygon fill="white" stroke="#666666" points="137,-123.5 0,-123.5 0,-82.5 137,-82.5 137,-123.5"/>
<text text-anchor="start" x="8" y="-111.5" font-family="Helvetica,sans-Serif" font-size="10.00">/home/runner/work/lethe</text>
<text text-anchor="start" x="8" y="-100.5" font-family="Helvetica,sans-Serif" font-size="10.00">/lethe/source/fem&#45;dem</text>
<text text-anchor="middle" x="68.5" y="-89.5" font-family="Helvetica,sans-Serif" font-size="10.00">/fluid_dynamics_vans.cc</text>
</a>
</g>
</g>
<!-- Node7&#45;&gt;Node8 -->
<g id="edge8_Node000007_Node000008" class="edge">
<title>Node7&#45;&gt;Node8</title>
<g id="a_edge8_Node000007_Node000008"><a xlink:title=" ">
<path fill="none" stroke="#63b8ff" d="M86.88,-155.01C83.12,-144.57 78.98,-133.09 75.59,-123.67"/>
<polygon fill="#63b8ff" stroke="#63b8ff" points="83.65,-156.38 90.33,-164.6 90.23,-154.01 83.65,-156.38"/>
</a>
</g>
</g>
<!-- Node11 -->
<g id="Node000011" class="node">
<title>Node11</title>
<g id="a_Node000011"><a xlink:href="set__insertion__method_8h.html" target="_top" xlink:title=" ">
<polygon fill="white" stroke="#666666" points="1088,-206 951,-206 951,-165 1088,-165 1088,-206"/>
<text text-anchor="start" x="959" y="-194" font-family="Helvetica,sans-Serif" font-size="10.00">/home/runner/work/lethe</text>
<text text-anchor="start" x="959" y="-183" font-family="Helvetica,sans-Serif" font-size="10.00">/lethe/include/dem/set</text>
<text text-anchor="middle" x="1019.5" y="-172" font-family="Helvetica,sans-Serif" font-size="10.00">_insertion_method.h</text>
</a>
</g>
</g>
<!-- Node10&#45;&gt;Node11 -->
<g id="edge11_Node000010_Node000011" class="edge">
<title>Node10&#45;&gt;Node11</title>
<g id="a_edge11_Node000010_Node000011"><a xlink:title=" ">
<path fill="none" stroke="#63b8ff" d="M777.6,-241.55C850.9,-225.33 871.14,-222.42 941.5,-206 944.49,-205.3 947.54,-204.58 950.62,-203.84"/>
<polygon fill="#63b8ff" stroke="#63b8ff" points="776.4,-238.23 767.4,-243.81 777.92,-245.06 776.4,-238.23"/>
</a>
</g>
</g>
<!-- Node12 -->
<g id="Node000012" class="node">
<title>Node12</title>
<g id="a_Node000012"><a xlink:href="insertion__file_8cc.html" target="_top" xlink:title=" ">
<polygon fill="white" stroke="#666666" points="764.5,-206 614.5,-206 614.5,-165 764.5,-165 764.5,-206"/>
<text text-anchor="start" x="622.5" y="-194" font-family="Helvetica,sans-Serif" font-size="10.00">/home/runner/work/lethe</text>
<text text-anchor="start" x="622.5" y="-183" font-family="Helvetica,sans-Serif" font-size="10.00">/lethe/source/dem/insertion</text>
<text text-anchor="middle" x="689.5" y="-172" font-family="Helvetica,sans-Serif" font-size="10.00">_file.cc</text>
</a>
</g>
</g>
<!-- Node10&#45;&gt;Node12 -->
<g id="edge15_Node000010_Node000012" class="edge">
<title>Node10&#45;&gt;Node12</title>
<g id="a_edge15_Node000010_Node000012"><a xlink:title=" ">
<path fill="none" stroke="#63b8ff" d="M690.1,-231.69C689.99,-223.08 689.87,-213.9 689.76,-206.07"/>
<polygon fill="#63b8ff" stroke="#63b8ff" points="686.6,-231.84 690.24,-241.79 693.6,-231.75 686.6,-231.84"/>
</a>
</g>
</g>
<!-- Node13 -->
<g id="Node000013" class="node">
<title>Node13</title>
<g id="a_Node000013"><a xlink:href="ray__tracing_8cc.html" target="_top" xlink:title=" ">
<polygon fill="white" stroke="#666666" points="596,-206 459,-206 459,-165 596,-165 596,-206"/>
<text text-anchor="start" x="467" y="-194" font-family="Helvetica,sans-Serif" font-size="10.00">/home/runner/work/lethe</text>
<text text-anchor="start" x="467" y="-183" font-family="Helvetica,sans-Serif" font-size="10.00">/lethe/source/dem/ray</text>
<text text-anchor="middle" x="527.5" y="-172" font-family="Helvetica,sans-Serif" font-size="10.00">_tracing.cc</text>
</a>
</g>
</g>
<!-- Node10&#45;&gt;Node13 -->
<g id="edge16_Node000010_Node000013" class="edge">
<title>Node10&#45;&gt;Node13</title>
<g id="a_edge16_Node000010_Node000013"><a xlink:title=" ">
<path fill="none" stroke="#63b8ff" d="M638.82,-237.72C616.64,-227.51 591.03,-215.73 569.97,-206.04"/>
<polygon fill="#63b8ff" stroke="#63b8ff" points="637.55,-240.99 648.1,-241.99 640.48,-234.63 637.55,-240.99"/>
</a>
</g>
</g>
<!-- Node11&#45;&gt;Node4 -->
<g id="edge13_Node000011_Node000004" class="edge">
<title>Node11&#45;&gt;Node4</title>
<g id="a_edge13_Node000011_Node000004"><a xlink:title=" ">
<path fill="none" stroke="#63b8ff" d="M949.19,-161.71C849.97,-129.56 670.58,-71.43 577,-41.1"/>
<polygon fill="#63b8ff" stroke="#63b8ff" points="948.23,-165.09 958.83,-164.84 950.39,-158.43 948.23,-165.09"/>
</a>
</g>
</g>
<!-- Node11&#45;&gt;Node6 -->
<g id="edge14_Node000011_Node000006" class="edge">
<title>Node11&#45;&gt;Node6</title>
<g id="a_edge14_Node000011_Node000006"><a xlink:title=" ">
<path fill="none" stroke="#63b8ff" d="M940.74,-164.91C841.3,-143.95 737.59,-126.36 669.81,-115.44"/>
<polygon fill="#63b8ff" stroke="#63b8ff" points="940.15,-168.36 950.66,-167.01 941.6,-161.51 940.15,-168.36"/>
</a>
</g>
</g>
<!-- Node11&#45;&gt;Node9 -->
<g id="edge12_Node000011_Node000009" class="edge">
<title>Node11&#45;&gt;Node9</title>
<g id="a_edge12_Node000011_Node000009"><a xlink:title=" ">
<path fill="none" stroke="#63b8ff" d="M1053.14,-158.47C1070.42,-145.09 1090.8,-129.31 1105.17,-118.19"/>
<polygon fill="#63b8ff" stroke="#63b8ff" points="1050.71,-155.92 1044.94,-164.81 1054.99,-161.45 1050.71,-155.92"/>
</a>
</g>
</g>
<!-- Node14&#45;&gt;Node11 -->
<g id="edge18_Node000014_Node000011" class="edge">
<title>Node14&#45;&gt;Node11</title>
<g id="a_edge18_Node000014_Node000011"><a xlink:title=" ">
<path fill="none" stroke="#63b8ff" d="M911.88,-237.59C933.32,-227.41 958.01,-215.69 978.33,-206.04"/>
<polygon fill="#63b8ff" stroke="#63b8ff" points="910.13,-234.54 902.6,-241.99 913.13,-240.86 910.13,-234.54"/>
</a>
</g>
</g>
<!-- Node14&#45;&gt;Node13 -->
<g id="edge20_Node000014_Node000013" class="edge">
<title>Node14&#45;&gt;Node13</title>
<g id="a_edge20_Node000014_Node000013"><a xlink:title=" ">
<path fill="none" stroke="#63b8ff" d="M774.53,-241.81C698.38,-225.26 677.67,-222.66 605.5,-206 602.51,-205.31 599.45,-204.59 596.37,-203.86"/>
<polygon fill="#63b8ff" stroke="#63b8ff" points="774.1,-245.3 784.62,-244.01 775.59,-238.46 774.1,-245.3"/>
</a>
</g>
</g>
<!-- Node15 -->
<g id="Node000015" class="node">
<title>Node15</title>
<g id="a_Node000015"><a xlink:href="insertion__list_8cc.html" target="_top" xlink:title=" ">
<polygon fill="white" stroke="#666666" points="932.5,-206 782.5,-206 782.5,-165 932.5,-165 932.5,-206"/>
<text text-anchor="start" x="790.5" y="-194" font-family="Helvetica,sans-Serif" font-size="10.00">/home/runner/work/lethe</text>
<text text-anchor="start" x="790.5" y="-183" font-family="Helvetica,sans-Serif" font-size="10.00">/lethe/source/dem/insertion</text>
<text text-anchor="middle" x="857.5" y="-172" font-family="Helvetica,sans-Serif" font-size="10.00">_list.cc</text>
</a>
</g>
</g>
<!-- Node14&#45;&gt;Node15 -->
<g id="edge19_Node000014_Node000015" class="edge">
<title>Node14&#45;&gt;Node15</title>
<g id="a_edge19_Node000014_Node000015"><a xlink:title=" ">
<path fill="none" stroke="#63b8ff" d="M859.91,-231.69C859.45,-223.08 858.96,-213.9 858.54,-206.07"/>
<polygon fill="#63b8ff" stroke="#63b8ff" points="856.42,-232 860.45,-241.79 863.41,-231.62 856.42,-232"/>
</a>
</g>
</g>
<!-- Node16&#45;&gt;Node11 -->
<g id="edge22_Node000016_Node000011" class="edge">
<title>Node16&#45;&gt;Node11</title>
<g id="a_edge22_Node000016_Node000011"><a xlink:title=" ">
<path fill="none" stroke="#63b8ff" d="M1027.33,-231.69C1025.84,-223.08 1024.25,-213.9 1022.89,-206.07"/>
<polygon fill="#63b8ff" stroke="#63b8ff" points="1023.93,-232.54 1029.08,-241.79 1030.83,-231.34 1023.93,-232.54"/>
</a>
</g>
</g>
<!-- Node17 -->
<g id="Node000017" class="node">
<title>Node17</title>
<g id="a_Node000017"><a xlink:href="insertion__plane_8cc.html" target="_top" xlink:title=" ">
<polygon fill="white" stroke="#666666" points="1256.5,-206 1106.5,-206 1106.5,-165 1256.5,-165 1256.5,-206"/>
<text text-anchor="start" x="1114.5" y="-194" font-family="Helvetica,sans-Serif" font-size="10.00">/home/runner/work/lethe</text>
<text text-anchor="start" x="1114.5" y="-183" font-family="Helvetica,sans-Serif" font-size="10.00">/lethe/source/dem/insertion</text>
<text text-anchor="middle" x="1181.5" y="-172" font-family="Helvetica,sans-Serif" font-size="10.00">_plane.cc</text>
</a>
</g>
</g>
<!-- Node16&#45;&gt;Node17 -->
<g id="edge23_Node000016_Node000017" class="edge">
<title>Node16&#45;&gt;Node17</title>
<g id="a_edge23_Node000016_Node000017"><a xlink:title=" ">
<path fill="none" stroke="#63b8ff" d="M1080.28,-237.45C1100.44,-227.3 1123.6,-215.64 1142.68,-206.04"/>
<polygon fill="#63b8ff" stroke="#63b8ff" points="1078.62,-234.37 1071.26,-241.99 1081.76,-240.62 1078.62,-234.37"/>
</a>
</g>
</g>
<!-- Node18&#45;&gt;Node11 -->
<g id="edge25_Node000018_Node000011" class="edge">
<title>Node18&#45;&gt;Node11</title>
<g id="a_edge25_Node000018_Node000011"><a xlink:title=" ">
<path fill="none" stroke="#63b8ff" d="M1146.17,-238.13C1120.9,-227.83 1091.53,-215.86 1067.44,-206.04"/>
<polygon fill="#63b8ff" stroke="#63b8ff" points="1145.06,-241.46 1155.64,-241.99 1147.7,-234.97 1145.06,-241.46"/>
</a>
</g>
</g>
<!-- Node19 -->
<g id="Node000019" class="node">
<title>Node19</title>
<g id="a_Node000019"><a xlink:href="insertion__volume_8cc.html" target="_top" xlink:title=" ">
<polygon fill="white" stroke="#666666" points="1424.5,-206 1274.5,-206 1274.5,-165 1424.5,-165 1424.5,-206"/>
<text text-anchor="start" x="1282.5" y="-194" font-family="Helvetica,sans-Serif" font-size="10.00">/home/runner/work/lethe</text>
<text text-anchor="start" x="1282.5" y="-183" font-family="Helvetica,sans-Serif" font-size="10.00">/lethe/source/dem/insertion</text>
<text text-anchor="middle" x="1349.5" y="-172" font-family="Helvetica,sans-Serif" font-size="10.00">_volume.cc</text>
</a>
</g>
</g>
<!-- Node18&#45;&gt;Node19 -->
<g id="edge26_Node000018_Node000019" class="edge">
<title>Node18&#45;&gt;Node19</title>
<g id="a_edge26_Node000018_Node000019"><a xlink:title=" ">
<path fill="none" stroke="#63b8ff" d="M1250.59,-237.31C1270.27,-227.2 1292.85,-215.6 1311.46,-206.04"/>
<polygon fill="#63b8ff" stroke="#63b8ff" points="1248.77,-234.31 1241.48,-241.99 1251.97,-240.53 1248.77,-234.31"/>
</a>
</g>
</g>
<!-- Node20&#45;&gt;Node13 -->
<g id="edge28_Node000020_Node000013" class="edge">
<title>Node20&#45;&gt;Node13</title>
<g id="a_edge28_Node000020_Node000013"><a xlink:title=" ">
<path fill="none" stroke="#63b8ff" d="M527.5,-231.69C527.5,-223.08 527.5,-213.9 527.5,-206.07"/>
<polygon fill="#63b8ff" stroke="#63b8ff" points="524,-231.79 527.5,-241.79 531,-231.79 524,-231.79"/>
</a>
</g>
</g>
<!-- Node21&#45;&gt;Node9 -->
<g id="edge30_Node000021_Node000009" class="edge">
<title>Node21&#45;&gt;Node9</title>
<g id="a_edge30_Node000021_Node000009"><a xlink:title=" ">
<path fill="none" stroke="#63b8ff" d="M1726.5,-238.25C1751.59,-228.49 1775.37,-216.89 1782.5,-206 1792.48,-190.75 1794.78,-178.47 1782.5,-165 1743.5,-122.23 1357.62,-109 1195.08,-105.3"/>
<polygon fill="#63b8ff" stroke="#63b8ff" points="1724.97,-235.09 1716.86,-241.9 1727.45,-241.63 1724.97,-235.09"/>
</a>
</g>
</g>
<!-- Node22 -->
<g id="Node000022" class="node">
<title>Node22</title>
<g id="a_Node000022"><a xlink:href="read__checkpoint_8cc.html" target="_top" xlink:title=" ">
<polygon fill="white" stroke="#666666" points="1773,-206 1636,-206 1636,-165 1773,-165 1773,-206"/>
<text text-anchor="start" x="1644" y="-194" font-family="Helvetica,sans-Serif" font-size="10.00">/home/runner/work/lethe</text>
<text text-anchor="start" x="1644" y="-183" font-family="Helvetica,sans-Serif" font-size="10.00">/lethe/source/dem/read</text>
<text text-anchor="middle" x="1704.5" y="-172" font-family="Helvetica,sans-Serif" font-size="10.00">_checkpoint.cc</text>
</a>
</g>
</g>
<!-- Node21&#45;&gt;Node22 -->
<g id="edge31_Node000021_Node000022" class="edge">
<title>Node21&#45;&gt;Node22</title>
<g id="a_edge31_Node000021_Node000022"><a xlink:title=" ">
<path fill="none" stroke="#63b8ff" d="M1673.86,-233.39C1679.81,-224.3 1686.26,-214.41 1691.71,-206.07"/>
<polygon fill="#63b8ff" stroke="#63b8ff" points="1670.91,-231.51 1668.37,-241.79 1676.77,-235.34 1670.91,-231.51"/>
</a>
</g>
</g>
<!-- Node23&#45;&gt;Node9 -->
<g id="edge33_Node000023_Node000009" class="edge">
<title>Node23&#45;&gt;Node9</title>
<g id="a_edge33_Node000023_Node000009"><a xlink:title=" ">
<path fill="none" stroke="#63b8ff" d="M1454.75,-231.72C1454.66,-210.3 1450.75,-182.25 1433.5,-165 1400.72,-132.23 1276.12,-116.14 1195.22,-108.99"/>
<polygon fill="#63b8ff" stroke="#63b8ff" points="1451.25,-231.85 1454.52,-241.93 1458.25,-232.01 1451.25,-231.85"/>
</a>
</g>
</g>
<!-- Node24 -->
<g id="Node000024" class="node">
<title>Node24</title>
<g id="a_Node000024"><a xlink:href="write__checkpoint_8cc.html" target="_top" xlink:title=" ">
<polygon fill="white" stroke="#666666" points="1618,-206 1481,-206 1481,-165 1618,-165 1618,-206"/>
<text text-anchor="start" x="1489" y="-194" font-family="Helvetica,sans-Serif" font-size="10.00">/home/runner/work/lethe</text>
<text text-anchor="start" x="1489" y="-183" font-family="Helvetica,sans-Serif" font-size="10.00">/lethe/source/dem/write</text>
<text text-anchor="middle" x="1549.5" y="-172" font-family="Helvetica,sans-Serif" font-size="10.00">_checkpoint.cc</text>
</a>
</g>
</g>
<!-- Node23&#45;&gt;Node24 -->
<g id="edge34_Node000023_Node000024" class="edge">
<title>Node23&#45;&gt;Node24</title>
<g id="a_edge34_Node000023_Node000024"><a xlink:title=" ">
<path fill="none" stroke="#63b8ff" d="M1485.72,-235.82C1498.27,-226.11 1512.33,-215.24 1524.06,-206.17"/>
<polygon fill="#63b8ff" stroke="#63b8ff" points="1483.5,-233.1 1477.73,-241.99 1487.78,-238.64 1483.5,-233.1"/>
</a>
</g>
</g>
</g>
</svg>
