<?xml version="1.0" encoding="UTF-8" standalone="no"?>
<!DOCTYPE svg PUBLIC "-//W3C//DTD SVG 1.1//EN"
 "http://www.w3.org/Graphics/SVG/1.1/DTD/svg11.dtd">
<!-- Generated by graphviz version 2.43.0 (0)
 -->
<!-- Title: /home/runner/work/lethe/lethe/include/dem/insertion_file.h Pages: 1 -->
<svg width="630pt" height="214pt"
 viewBox="0.00 0.00 630.00 214.00" xmlns="http://www.w3.org/2000/svg" xmlns:xlink="http://www.w3.org/1999/xlink">
<g id="graph0" class="graph" transform="scale(1 1) rotate(0) translate(4 210)">
<title>/home/runner/work/lethe/lethe/include/dem/insertion_file.h</title>
<!-- Node1 -->
<g id="Node000001" class="node">
<title>Node1</title>
<g id="a_Node000001"><a xlink:title=" ">
<polygon fill="#999999" stroke="#666666" points="468,-206 315,-206 315,-165 468,-165 468,-206"/>
<text text-anchor="start" x="323" y="-194" font-family="Helvetica,sans-Serif" font-size="10.00">/home/runner/work/lethe</text>
<text text-anchor="start" x="323" y="-183" font-family="Helvetica,sans-Serif" font-size="10.00">/lethe/include/dem/insertion</text>
<text text-anchor="middle" x="391.5" y="-172" font-family="Helvetica,sans-Serif" font-size="10.00">_file.h</text>
</a>
</g>
</g>
<!-- Node2 -->
<g id="Node000002" class="node">
<title>Node2</title>
<g id="a_Node000002"><a xlink:href="set__insertion__method_8h.html" target="_top" xlink:title=" ">
<polygon fill="white" stroke="#666666" points="298,-129 161,-129 161,-88 298,-88 298,-129"/>
<text text-anchor="start" x="169" y="-117" font-family="Helvetica,sans-Serif" font-size="10.00">/home/runner/work/lethe</text>
<text text-anchor="start" x="169" y="-106" font-family="Helvetica,sans-Serif" font-size="10.00">/lethe/include/dem/set</text>
<text text-anchor="middle" x="229.5" y="-95" font-family="Helvetica,sans-Serif" font-size="10.00">_insertion_method.h</text>
</a>
</g>
</g>
<!-- Node1&#45;&gt;Node2 -->
<g id="edge1_Node000001_Node000002" class="edge">
<title>Node1&#45;&gt;Node2</title>
<g id="a_edge1_Node000001_Node000002"><a xlink:title=" ">
<path fill="none" stroke="#63b8ff" d="M340.14,-160.72C318.09,-150.51 292.64,-138.73 271.71,-129.04"/>
<polygon fill="#63b8ff" stroke="#63b8ff" points="338.81,-163.97 349.36,-164.99 341.76,-157.61 338.81,-163.97"/>
</a>
</g>
</g>
<!-- Node6 -->
<g id="Node000006" class="node">
<title>Node6</title>
<g id="a_Node000006"><a xlink:href="insertion__file_8cc.html" target="_top" xlink:title=" ">
<polygon fill="white" stroke="#666666" points="466.5,-129 316.5,-129 316.5,-88 466.5,-88 466.5,-129"/>
<text text-anchor="start" x="324.5" y="-117" font-family="Helvetica,sans-Serif" font-size="10.00">/home/runner/work/lethe</text>
<text text-anchor="start" x="324.5" y="-106" font-family="Helvetica,sans-Serif" font-size="10.00">/lethe/source/dem/insertion</text>
<text text-anchor="middle" x="391.5" y="-95" font-family="Helvetica,sans-Serif" font-size="10.00">_file.cc</text>
</a>
</g>
</g>
<!-- Node1&#45;&gt;Node6 -->
<g id="edge5_Node000001_Node000006" class="edge">
<title>Node1&#45;&gt;Node6</title>
<g id="a_edge5_Node000001_Node000006"><a xlink:title=" ">
<path fill="none" stroke="#63b8ff" d="M391.5,-154.69C391.5,-146.08 391.5,-136.9 391.5,-129.07"/>
<polygon fill="#63b8ff" stroke="#63b8ff" points="388,-154.79 391.5,-164.79 395,-154.79 388,-154.79"/>
</a>
</g>
</g>
<!-- Node7 -->
<g id="Node000007" class="node">
<title>Node7</title>
<g id="a_Node000007"><a xlink:href="ray__tracing_8cc.html" target="_top" xlink:title=" ">
<polygon fill="white" stroke="#666666" points="622,-129 485,-129 485,-88 622,-88 622,-129"/>
<text text-anchor="start" x="493" y="-117" font-family="Helvetica,sans-Serif" font-size="10.00">/home/runner/work/lethe</text>
<text text-anchor="start" x="493" y="-106" font-family="Helvetica,sans-Serif" font-size="10.00">/lethe/source/dem/ray</text>
<text text-anchor="middle" x="553.5" y="-95" font-family="Helvetica,sans-Serif" font-size="10.00">_tracing.cc</text>
</a>
</g>
</g>
<!-- Node1&#45;&gt;Node7 -->
<g id="edge6_Node000001_Node000007" class="edge">
<title>Node1&#45;&gt;Node7</title>
<g id="a_edge6_Node000001_Node000007"><a xlink:title=" ">
<path fill="none" stroke="#63b8ff" d="M442.86,-160.72C464.91,-150.51 490.36,-138.73 511.29,-129.04"/>
<polygon fill="#63b8ff" stroke="#63b8ff" points="441.24,-157.61 433.64,-164.99 444.19,-163.97 441.24,-157.61"/>
</a>
</g>
</g>
<!-- Node3 -->
<g id="Node000003" class="node">
<title>Node3</title>
<g id="a_Node000003"><a xlink:href="dem_8cc.html" target="_top" xlink:title=" ">
<polygon fill="white" stroke="#666666" points="143,-41 0,-41 0,-11 143,-11 143,-41"/>
<text text-anchor="start" x="8" y="-29" font-family="Helvetica,sans-Serif" font-size="10.00">/home/runner/work/lethe</text>
<text text-anchor="middle" x="71.5" y="-18" font-family="Helvetica,sans-Serif" font-size="10.00">/lethe/source/dem/dem.cc</text>
</a>
</g>
</g>
<!-- Node2&#45;&gt;Node3 -->
<g id="edge2_Node000002_Node000003" class="edge">
<title>Node2&#45;&gt;Node3</title>
<g id="a_edge2_Node000002_Node000003"><a xlink:title=" ">
<path fill="none" stroke="#63b8ff" d="M181.6,-83.09C154.7,-69.39 122.07,-52.77 99.35,-41.19"/>
<polygon fill="#63b8ff" stroke="#63b8ff" points="180.35,-86.39 190.85,-87.81 183.53,-80.15 180.35,-86.39"/>
</a>
</g>
</g>
<!-- Node4 -->
<g id="Node000004" class="node">
<title>Node4</title>
<g id="a_Node000004"><a xlink:href="cfd__dem__coupling_8cc.html" target="_top" xlink:title=" ">
<polygon fill="white" stroke="#666666" points="298,-46.5 161,-46.5 161,-5.5 298,-5.5 298,-46.5"/>
<text text-anchor="start" x="169" y="-34.5" font-family="Helvetica,sans-Serif" font-size="10.00">/home/runner/work/lethe</text>
<text text-anchor="start" x="169" y="-23.5" font-family="Helvetica,sans-Serif" font-size="10.00">/lethe/source/fem&#45;dem</text>
<text text-anchor="middle" x="229.5" y="-12.5" font-family="Helvetica,sans-Serif" font-size="10.00">/cfd_dem_coupling.cc</text>
</a>
</g>
</g>
<!-- Node2&#45;&gt;Node4 -->
<g id="edge3_Node000002_Node000004" class="edge">
<title>Node2&#45;&gt;Node4</title>
<g id="a_edge3_Node000002_Node000004"><a xlink:title=" ">
<path fill="none" stroke="#63b8ff" d="M229.5,-77.37C229.5,-67.1 229.5,-55.9 229.5,-46.67"/>
<polygon fill="#63b8ff" stroke="#63b8ff" points="226,-77.6 229.5,-87.6 233,-77.6 226,-77.6"/>
</a>
</g>
</g>
<!-- Node5 -->
<g id="Node000005" class="node">
<title>Node5</title>
<g id="a_Node000005"><a xlink:href="cfd__dem__coupling__matrix__free_8cc.html" target="_top" xlink:title=" ">
<polygon fill="white" stroke="#666666" points="462.5,-52 316.5,-52 316.5,0 462.5,0 462.5,-52"/>
<text text-anchor="start" x="324.5" y="-40" font-family="Helvetica,sans-Serif" font-size="10.00">/home/runner/work/lethe</text>
<text text-anchor="start" x="324.5" y="-29" font-family="Helvetica,sans-Serif" font-size="10.00">/lethe/source/fem&#45;dem</text>
<text text-anchor="start" x="324.5" y="-18" font-family="Helvetica,sans-Serif" font-size="10.00">/cfd_dem_coupling_matrix</text>
<text text-anchor="middle" x="389.5" y="-7" font-family="Helvetica,sans-Serif" font-size="10.00">_free.cc</text>
</a>
</g>
</g>
<!-- Node2&#45;&gt;Node5 -->
<g id="edge4_Node000002_Node000005" class="edge">
<title>Node2&#45;&gt;Node5</title>
<g id="a_edge4_Node000002_Node000005"><a xlink:title=" ">
<path fill="none" stroke="#63b8ff" d="M277.68,-83.26C297.24,-73.42 319.83,-62.06 339.56,-52.13"/>
<polygon fill="#63b8ff" stroke="#63b8ff" points="276,-80.19 268.64,-87.81 279.15,-86.44 276,-80.19"/>
</a>
</g>
</g>
</g>
</svg>
