<?xml version="1.0" encoding="UTF-8" standalone="no"?>
<!DOCTYPE svg PUBLIC "-//W3C//DTD SVG 1.1//EN"
 "http://www.w3.org/Graphics/SVG/1.1/DTD/svg11.dtd">
<!-- Generated by graphviz version 2.43.0 (0)
 -->
<!-- Title: /home/runner/work/lethe/lethe/include/dem/insertion_plane.h Pages: 1 -->
<svg width="1918pt" height="544pt"
 viewBox="0.00 0.00 1917.50 544.00" xmlns="http://www.w3.org/2000/svg" xmlns:xlink="http://www.w3.org/1999/xlink">
<g id="graph0" class="graph" transform="scale(1 1) rotate(0) translate(4 540)">
<title>/home/runner/work/lethe/lethe/include/dem/insertion_plane.h</title>
<!-- Node1 -->
<g id="Node000001" class="node">
<title>Node1</title>
<g id="a_Node000001"><a xlink:title=" ">
<polygon fill="#999999" stroke="#666666" points="1216.5,-536 1063.5,-536 1063.5,-495 1216.5,-495 1216.5,-536"/>
<text text-anchor="start" x="1071.5" y="-524" font-family="Helvetica,sans-Serif" font-size="10.00">/home/runner/work/lethe</text>
<text text-anchor="start" x="1071.5" y="-513" font-family="Helvetica,sans-Serif" font-size="10.00">/lethe/include/dem/insertion</text>
<text text-anchor="middle" x="1140" y="-502" font-family="Helvetica,sans-Serif" font-size="10.00">_plane.h</text>
</a>
</g>
</g>
<!-- Node2 -->
<g id="Node000002" class="node">
<title>Node2</title>
<g id="a_Node000002"><a xlink:href="insertion_8h.html" target="_top" xlink:title=" ">
<polygon fill="white" stroke="#666666" points="1186.5,-459 1093.5,-459 1093.5,-440 1186.5,-440 1186.5,-459"/>
<text text-anchor="middle" x="1140" y="-447" font-family="Helvetica,sans-Serif" font-size="10.00">dem/insertion.h</text>
</a>
</g>
</g>
<!-- Node1&#45;&gt;Node2 -->
<g id="edge1_Node000001_Node000002" class="edge">
<title>Node1&#45;&gt;Node2</title>
<g id="a_edge1_Node000001_Node000002"><a xlink:title=" ">
<path fill="none" stroke="#63b8ff" d="M1140,-494.95C1140,-486.85 1140,-477.5 1140,-469.47"/>
<polygon fill="#63b8ff" stroke="#63b8ff" points="1143.5,-469.26 1140,-459.26 1136.5,-469.26 1143.5,-469.26"/>
</a>
</g>
</g>
<!-- Node3 -->
<g id="Node000003" class="node">
<title>Node3</title>
<g id="a_Node000003"><a xlink:href="dem__solver__parameters_8h.html" target="_top" xlink:title=" ">
<polygon fill="white" stroke="#666666" points="793.5,-398.5 624.5,-398.5 624.5,-379.5 793.5,-379.5 793.5,-398.5"/>
<text text-anchor="middle" x="709" y="-386.5" font-family="Helvetica,sans-Serif" font-size="10.00">dem/dem_solver_parameters.h</text>
</a>
</g>
</g>
<!-- Node2&#45;&gt;Node3 -->
<g id="edge2_Node000002_Node000003" class="edge">
<title>Node2&#45;&gt;Node3</title>
<g id="a_edge2_Node000002_Node000003"><a xlink:title=" ">
<path fill="none" stroke="#63b8ff" d="M1093.47,-442.18C1018.54,-432.01 870.57,-411.93 781.65,-399.86"/>
<polygon fill="#63b8ff" stroke="#63b8ff" points="782.02,-396.38 771.64,-398.5 781.08,-403.32 782.02,-396.38"/>
</a>
</g>
</g>
<!-- Node22 -->
<g id="Node000022" class="node">
<title>Node22</title>
<g id="a_Node000022"><a xlink:title=" ">
<polygon fill="#e0e0e0" stroke="#999999" points="958.5,-30 827.5,-30 827.5,0 958.5,0 958.5,-30"/>
<text text-anchor="start" x="835.5" y="-18" font-family="Helvetica,sans-Serif" font-size="10.00">deal.II/particles/particle</text>
<text text-anchor="middle" x="893" y="-7" font-family="Helvetica,sans-Serif" font-size="10.00">_iterator.h</text>
</a>
</g>
</g>
<!-- Node2&#45;&gt;Node22 -->
<g id="edge47_Node000002_Node000022" class="edge">
<title>Node2&#45;&gt;Node22</title>
<g id="a_edge47_Node000002_Node000022"><a xlink:title=" ">
<path fill="none" stroke="#63b8ff" d="M1097.29,-439.94C1073.08,-433.37 1043.43,-422.23 1022,-404 990.76,-377.43 976,-365.01 976,-324 976,-324 976,-324 976,-135 976,-94.94 943.97,-58.73 919.71,-37.05"/>
<polygon fill="#63b8ff" stroke="#63b8ff" points="921.7,-34.14 911.83,-30.27 917.13,-39.44 921.7,-34.14"/>
</a>
</g>
</g>
<!-- Node23 -->
<g id="Node000023" class="node">
<title>Node23</title>
<g id="a_Node000023"><a xlink:title=" ">
<polygon fill="#e0e0e0" stroke="#999999" points="1081.5,-30 976.5,-30 976.5,0 1081.5,0 1081.5,-30"/>
<text text-anchor="start" x="984.5" y="-18" font-family="Helvetica,sans-Serif" font-size="10.00">boost/archive/text</text>
<text text-anchor="middle" x="1029" y="-7" font-family="Helvetica,sans-Serif" font-size="10.00">_iarchive.hpp</text>
</a>
</g>
</g>
<!-- Node2&#45;&gt;Node23 -->
<g id="edge48_Node000002_Node000023" class="edge">
<title>Node2&#45;&gt;Node23</title>
<g id="a_edge48_Node000002_Node000023"><a xlink:title=" ">
<path fill="none" stroke="#63b8ff" d="M1112.48,-439.94C1093.49,-432.86 1068.74,-421.16 1052,-404 1024.51,-375.82 1014,-363.36 1014,-324 1014,-324 1014,-324 1014,-135 1014,-101.95 1019.76,-64.15 1024.15,-40.18"/>
<polygon fill="#63b8ff" stroke="#63b8ff" points="1027.61,-40.69 1026.04,-30.21 1020.73,-39.39 1027.61,-40.69"/>
</a>
</g>
</g>
<!-- Node24 -->
<g id="Node000024" class="node">
<title>Node24</title>
<g id="a_Node000024"><a xlink:title=" ">
<polygon fill="#e0e0e0" stroke="#999999" points="1204.5,-30 1099.5,-30 1099.5,0 1204.5,0 1204.5,-30"/>
<text text-anchor="start" x="1107.5" y="-18" font-family="Helvetica,sans-Serif" font-size="10.00">boost/archive/text</text>
<text text-anchor="middle" x="1152" y="-7" font-family="Helvetica,sans-Serif" font-size="10.00">_oarchive.hpp</text>
</a>
</g>
</g>
<!-- Node2&#45;&gt;Node24 -->
<g id="edge49_Node000002_Node000024" class="edge">
<title>Node2&#45;&gt;Node24</title>
<g id="a_edge49_Node000002_Node000024"><a xlink:title=" ">
<path fill="none" stroke="#63b8ff" d="M1119.1,-439.91C1103.82,-432.57 1083.77,-420.56 1072,-404 1050.76,-374.13 1052,-360.65 1052,-324 1052,-324 1052,-324 1052,-135 1052,-92.02 1090.71,-56.46 1119.96,-35.72"/>
<polygon fill="#63b8ff" stroke="#63b8ff" points="1122.02,-38.55 1128.3,-30.02 1118.07,-32.77 1122.02,-38.55"/>
</a>
</g>
</g>
<!-- Node46 -->
<g id="Node000046" class="node">
<title>Node46</title>
<g id="a_Node000046"><a xlink:href="distributions_8h.html" target="_top" xlink:title=" ">
<polygon fill="white" stroke="#666666" points="947.5,-398.5 836.5,-398.5 836.5,-379.5 947.5,-379.5 947.5,-398.5"/>
<text text-anchor="middle" x="892" y="-386.5" font-family="Helvetica,sans-Serif" font-size="10.00">dem/distributions.h</text>
</a>
</g>
</g>
<!-- Node2&#45;&gt;Node46 -->
<g id="edge38_Node000002_Node000046" class="edge">
<title>Node2&#45;&gt;Node46</title>
<g id="a_edge38_Node000002_Node000046"><a xlink:title=" ">
<path fill="none" stroke="#63b8ff" d="M1103.94,-439.99C1060.04,-429.64 985.85,-412.14 937.92,-400.83"/>
<polygon fill="#63b8ff" stroke="#63b8ff" points="938.64,-397.41 928.1,-398.52 937.03,-404.22 938.64,-397.41"/>
</a>
</g>
</g>
<!-- Node48 -->
<g id="Node000048" class="node">
<title>Node48</title>
<g id="a_Node000048"><a xlink:title=" ">
<polygon fill="#e0e0e0" stroke="#999999" points="1199.5,-404 1080.5,-404 1080.5,-374 1199.5,-374 1199.5,-404"/>
<text text-anchor="start" x="1088.5" y="-392" font-family="Helvetica,sans-Serif" font-size="10.00">deal.II/base/data_out</text>
<text text-anchor="middle" x="1140" y="-381" font-family="Helvetica,sans-Serif" font-size="10.00">_base.h</text>
</a>
</g>
</g>
<!-- Node2&#45;&gt;Node48 -->
<g id="edge41_Node000002_Node000048" class="edge">
<title>Node2&#45;&gt;Node48</title>
<g id="a_edge41_Node000002_Node000048"><a xlink:title=" ">
<path fill="none" stroke="#63b8ff" d="M1140,-439.87C1140,-433.11 1140,-423.35 1140,-414.26"/>
<polygon fill="#63b8ff" stroke="#63b8ff" points="1143.5,-414.11 1140,-404.11 1136.5,-414.11 1143.5,-414.11"/>
</a>
</g>
</g>
<!-- Node49 -->
<g id="Node000049" class="node">
<title>Node49</title>
<g id="a_Node000049"><a xlink:title=" ">
<polygon fill="#e0e0e0" stroke="#999999" points="1320,-404 1218,-404 1218,-374 1320,-374 1320,-404"/>
<text text-anchor="start" x="1226" y="-392" font-family="Helvetica,sans-Serif" font-size="10.00">deal.II/distributed</text>
<text text-anchor="middle" x="1269" y="-381" font-family="Helvetica,sans-Serif" font-size="10.00">/tria.h</text>
</a>
</g>
</g>
<!-- Node2&#45;&gt;Node49 -->
<g id="edge42_Node000002_Node000049" class="edge">
<title>Node2&#45;&gt;Node49</title>
<g id="a_edge42_Node000002_Node000049"><a xlink:title=" ">
<path fill="none" stroke="#63b8ff" d="M1158.76,-439.99C1176.94,-431.75 1205.1,-418.98 1228.42,-408.4"/>
<polygon fill="#63b8ff" stroke="#63b8ff" points="1230.07,-411.5 1237.74,-404.18 1227.18,-405.12 1230.07,-411.5"/>
</a>
</g>
</g>
<!-- Node50 -->
<g id="Node000050" class="node">
<title>Node50</title>
<g id="a_Node000050"><a xlink:title=" ">
<polygon fill="#e0e0e0" stroke="#999999" points="1444,-404 1338,-404 1338,-374 1444,-374 1444,-404"/>
<text text-anchor="start" x="1346" y="-392" font-family="Helvetica,sans-Serif" font-size="10.00">deal.II/grid/filtered</text>
<text text-anchor="middle" x="1391" y="-381" font-family="Helvetica,sans-Serif" font-size="10.00">_iterator.h</text>
</a>
</g>
</g>
<!-- Node2&#45;&gt;Node50 -->
<g id="edge43_Node000002_Node000050" class="edge">
<title>Node2&#45;&gt;Node50</title>
<g id="a_edge43_Node000002_Node000050"><a xlink:title=" ">
<path fill="none" stroke="#63b8ff" d="M1176.5,-439.99C1216.1,-430.76 1280.07,-415.85 1327.86,-404.72"/>
<polygon fill="#63b8ff" stroke="#63b8ff" points="1328.85,-408.08 1337.8,-402.4 1327.26,-401.26 1328.85,-408.08"/>
</a>
</g>
</g>
<!-- Node51 -->
<g id="Node000051" class="node">
<title>Node51</title>
<g id="a_Node000051"><a xlink:title=" ">
<polygon fill="#e0e0e0" stroke="#999999" points="1613.5,-398.5 1462.5,-398.5 1462.5,-379.5 1613.5,-379.5 1613.5,-398.5"/>
<text text-anchor="middle" x="1538" y="-386.5" font-family="Helvetica,sans-Serif" font-size="10.00">deal.II/grid/grid_generator.h</text>
</a>
</g>
</g>
<!-- Node2&#45;&gt;Node51 -->
<g id="edge44_Node000002_Node000051" class="edge">
<title>Node2&#45;&gt;Node51</title>
<g id="a_edge44_Node000002_Node000051"><a xlink:title=" ">
<path fill="none" stroke="#63b8ff" d="M1186.71,-442.19C1247.93,-433.84 1358.6,-418.48 1453,-404 1460.88,-402.79 1469.17,-401.48 1477.35,-400.16"/>
<polygon fill="#63b8ff" stroke="#63b8ff" points="1477.93,-403.61 1487.24,-398.55 1476.81,-396.7 1477.93,-403.61"/>
</a>
</g>
</g>
<!-- Node52 -->
<g id="Node000052" class="node">
<title>Node52</title>
<g id="a_Node000052"><a xlink:title=" ">
<polygon fill="#e0e0e0" stroke="#999999" points="1760,-398.5 1632,-398.5 1632,-379.5 1760,-379.5 1760,-398.5"/>
<text text-anchor="middle" x="1696" y="-386.5" font-family="Helvetica,sans-Serif" font-size="10.00">deal.II/grid/grid_tools.h</text>
</a>
</g>
</g>
<!-- Node2&#45;&gt;Node52 -->
<g id="edge45_Node000002_Node000052" class="edge">
<title>Node2&#45;&gt;Node52</title>
<g id="a_edge45_Node000002_Node000052"><a xlink:title=" ">
<path fill="none" stroke="#63b8ff" d="M1186.8,-445.71C1273.27,-440.22 1463.75,-426.55 1623,-404 1630.2,-402.98 1637.77,-401.73 1645.2,-400.4"/>
<polygon fill="#63b8ff" stroke="#63b8ff" points="1645.99,-403.81 1655.19,-398.55 1644.72,-396.93 1645.99,-403.81"/>
</a>
</g>
</g>
<!-- Node53 -->
<g id="Node000053" class="node">
<title>Node53</title>
<g id="a_Node000053"><a xlink:title=" ">
<polygon fill="#e0e0e0" stroke="#999999" points="1909.5,-404 1778.5,-404 1778.5,-374 1909.5,-374 1909.5,-404"/>
<text text-anchor="start" x="1786.5" y="-392" font-family="Helvetica,sans-Serif" font-size="10.00">deal.II/particles/particle</text>
<text text-anchor="middle" x="1844" y="-381" font-family="Helvetica,sans-Serif" font-size="10.00">_handler.h</text>
</a>
</g>
</g>
<!-- Node2&#45;&gt;Node53 -->
<g id="edge46_Node000002_Node000053" class="edge">
<title>Node2&#45;&gt;Node53</title>
<g id="a_edge46_Node000002_Node000053"><a xlink:title=" ">
<path fill="none" stroke="#63b8ff" d="M1186.74,-447.01C1289.85,-443.35 1544.76,-432.12 1768.27,-403.98"/>
<polygon fill="#63b8ff" stroke="#63b8ff" points="1768.74,-407.45 1778.22,-402.72 1767.85,-400.51 1768.74,-407.45"/>
</a>
</g>
</g>
<!-- Node4 -->
<g id="Node000004" class="node">
<title>Node4</title>
<g id="a_Node000004"><a xlink:href="parameters_8h.html" target="_top" xlink:title=" ">
<polygon fill="white" stroke="#666666" points="479,-272 373,-272 373,-253 479,-253 479,-272"/>
<text text-anchor="middle" x="426" y="-260" font-family="Helvetica,sans-Serif" font-size="10.00">core/parameters.h</text>
</a>
</g>
</g>
<!-- Node3&#45;&gt;Node4 -->
<g id="edge3_Node000003_Node000004" class="edge">
<title>Node3&#45;&gt;Node4</title>
<g id="a_edge3_Node000003_Node000004"><a xlink:title=" ">
<path fill="none" stroke="#63b8ff" d="M689.55,-379.44C640.68,-357.94 512.53,-301.57 454.86,-276.2"/>
<polygon fill="#63b8ff" stroke="#63b8ff" points="456.15,-272.94 445.59,-272.12 453.33,-279.35 456.15,-272.94"/>
</a>
</g>
</g>
<!-- Node43 -->
<g id="Node000043" class="node">
<title>Node43</title>
<g id="a_Node000043"><a xlink:href="parameters__lagrangian_8h.html" target="_top" xlink:title="Parameter structures for Lagrangian (DEM) particle simulations.">
<polygon fill="white" stroke="#666666" points="861.5,-332.5 698.5,-332.5 698.5,-313.5 861.5,-313.5 861.5,-332.5"/>
<text text-anchor="middle" x="780" y="-320.5" font-family="Helvetica,sans-Serif" font-size="10.00">core/parameters_lagrangian.h</text>
</a>
</g>
</g>
<!-- Node3&#45;&gt;Node43 -->
<g id="edge28_Node000003_Node000043" class="edge">
<title>Node3&#45;&gt;Node43</title>
<g id="a_edge28_Node000003_Node000043"><a xlink:title=" ">
<path fill="none" stroke="#63b8ff" d="M718.58,-379.37C729.84,-369.21 748.76,-352.16 762.63,-339.65"/>
<polygon fill="#63b8ff" stroke="#63b8ff" points="765.04,-342.2 770.12,-332.91 760.35,-337 765.04,-342.2"/>
</a>
</g>
</g>
<!-- Node45 -->
<g id="Node000045" class="node">
<title>Node45</title>
<g id="a_Node000045"><a xlink:href="solid__objects__parameters_8h.html" target="_top" xlink:title="Parameter classes for solid objects used in Nitsche immersed boundary and DEM simulations.">
<polygon fill="white" stroke="#666666" points="284,-338 180,-338 180,-308 284,-308 284,-338"/>
<text text-anchor="start" x="188" y="-326" font-family="Helvetica,sans-Serif" font-size="10.00">core/solid_objects</text>
<text text-anchor="middle" x="232" y="-315" font-family="Helvetica,sans-Serif" font-size="10.00">_parameters.h</text>
</a>
</g>
</g>
<!-- Node3&#45;&gt;Node45 -->
<g id="edge34_Node000003_Node000045" class="edge">
<title>Node3&#45;&gt;Node45</title>
<g id="a_edge34_Node000003_Node000045"><a xlink:title=" ">
<path fill="none" stroke="#63b8ff" d="M645.16,-379.44C553.38,-367.12 385.18,-344.55 294.27,-332.36"/>
<polygon fill="#63b8ff" stroke="#63b8ff" points="294.49,-328.85 284.11,-330.99 293.56,-335.79 294.49,-328.85"/>
</a>
</g>
</g>
<!-- Node5 -->
<g id="Node000005" class="node">
<title>Node5</title>
<g id="a_Node000005"><a xlink:href="dimensionality_8h.html" target="_top" xlink:title=" ">
<polygon fill="white" stroke="#666666" points="478.5,-145.5 357.5,-145.5 357.5,-126.5 478.5,-126.5 478.5,-145.5"/>
<text text-anchor="middle" x="418" y="-133.5" font-family="Helvetica,sans-Serif" font-size="10.00">core/dimensionality.h</text>
</a>
</g>
</g>
<!-- Node4&#45;&gt;Node5 -->
<g id="edge4_Node000004_Node000005" class="edge">
<title>Node4&#45;&gt;Node5</title>
<g id="a_edge4_Node000004_Node000005"><a xlink:title=" ">
<path fill="none" stroke="#63b8ff" d="M429.88,-252.76C435.57,-238.82 444.98,-210.7 440,-187 437.65,-175.82 432.64,-164.1 428,-154.81"/>
<polygon fill="#63b8ff" stroke="#63b8ff" points="431.02,-153.03 423.24,-145.83 424.83,-156.31 431.02,-153.03"/>
</a>
</g>
</g>
<!-- Node6 -->
<g id="Node000006" class="node">
<title>Node6</title>
<g id="a_Node000006"><a xlink:title=" ">
<polygon fill="#e0e0e0" stroke="#999999" points="481.5,-30 354.5,-30 354.5,0 481.5,0 481.5,-30"/>
<text text-anchor="start" x="362.5" y="-18" font-family="Helvetica,sans-Serif" font-size="10.00">deal.II/base/parameter</text>
<text text-anchor="middle" x="418" y="-7" font-family="Helvetica,sans-Serif" font-size="10.00">_handler.h</text>
</a>
</g>
</g>
<!-- Node4&#45;&gt;Node6 -->
<g id="edge25_Node000004_Node000006" class="edge">
<title>Node4&#45;&gt;Node6</title>
<g id="a_edge25_Node000004_Node000006"><a xlink:title=" ">
<path fill="none" stroke="#63b8ff" d="M425.85,-252.8C425.17,-237.9 421.91,-207.18 407,-187 388.75,-162.29 363.04,-177.79 348,-151 325.79,-111.44 364.94,-64.16 393.08,-37.35"/>
<polygon fill="#63b8ff" stroke="#63b8ff" points="395.69,-39.71 400.66,-30.35 390.94,-34.56 395.69,-39.71"/>
</a>
</g>
</g>
<!-- Node7 -->
<g id="Node000007" class="node">
<title>Node7</title>
<g id="a_Node000007"><a xlink:href="ib__particle_8h.html" target="_top" xlink:title=" ">
<polygon fill="white" stroke="#666666" points="636.5,-211.5 535.5,-211.5 535.5,-192.5 636.5,-192.5 636.5,-211.5"/>
<text text-anchor="middle" x="586" y="-199.5" font-family="Helvetica,sans-Serif" font-size="10.00">core/ib_particle.h</text>
</a>
</g>
</g>
<!-- Node4&#45;&gt;Node7 -->
<g id="edge6_Node000004_Node000007" class="edge">
<title>Node4&#45;&gt;Node7</title>
<g id="a_edge6_Node000004_Node000007"><a xlink:title=" ">
<path fill="none" stroke="#63b8ff" d="M449.27,-252.99C476.64,-242.99 522.27,-226.3 553.22,-214.99"/>
<polygon fill="#63b8ff" stroke="#63b8ff" points="554.52,-218.24 562.71,-211.52 552.11,-211.66 554.52,-218.24"/>
</a>
</g>
</g>
<!-- Node15 -->
<g id="Node000015" class="node">
<title>Node15</title>
<g id="a_Node000015"><a xlink:href="core_2utilities_8h.html" target="_top" xlink:title=" ">
<polygon fill="#fff0f0" stroke="red" points="790,-85 704,-85 704,-66 790,-66 790,-85"/>
<text text-anchor="middle" x="747" y="-73" font-family="Helvetica,sans-Serif" font-size="10.00">core/utilities.h</text>
</a>
</g>
</g>
<!-- Node4&#45;&gt;Node15 -->
<g id="edge24_Node000004_Node000015" class="edge">
<title>Node4&#45;&gt;Node15</title>
<g id="a_edge24_Node000004_Node000015"><a xlink:title=" ">
<path fill="none" stroke="#63b8ff" d="M479.33,-255.59C524.73,-249.42 591.12,-237.68 646,-217 701.15,-196.22 731.47,-202 761,-151 771.06,-133.62 764.16,-110.5 756.94,-94.64"/>
<polygon fill="#63b8ff" stroke="#63b8ff" points="759.92,-92.79 752.32,-85.41 753.66,-95.92 759.92,-92.79"/>
</a>
</g>
</g>
<!-- Node40 -->
<g id="Node000040" class="node">
<title>Node40</title>
<g id="a_Node000040"><a xlink:title=" ">
<polygon fill="#e0e0e0" stroke="#999999" points="300.5,-151 191.5,-151 191.5,-121 300.5,-121 300.5,-151"/>
<text text-anchor="start" x="199.5" y="-139" font-family="Helvetica,sans-Serif" font-size="10.00">deal.II/base/parsed</text>
<text text-anchor="middle" x="246" y="-128" font-family="Helvetica,sans-Serif" font-size="10.00">_function.h</text>
</a>
</g>
</g>
<!-- Node4&#45;&gt;Node40 -->
<g id="edge26_Node000004_Node000040" class="edge">
<title>Node4&#45;&gt;Node40</title>
<g id="a_edge26_Node000004_Node000040"><a xlink:title=" ">
<path fill="none" stroke="#63b8ff" d="M372.7,-257.19C341.39,-252.08 302.98,-240.99 277,-217 261.25,-202.45 253.41,-178.97 249.57,-161.2"/>
<polygon fill="#63b8ff" stroke="#63b8ff" points="252.98,-160.44 247.69,-151.26 246.1,-161.74 252.98,-160.44"/>
</a>
</g>
</g>
<!-- Node41 -->
<g id="Node000041" class="node">
<title>Node41</title>
<g id="a_Node000041"><a xlink:href="multiphysics_8h.html" target="_top" xlink:title="Identifiers for multiphysics modules and their solution fields.">
<polygon fill="white" stroke="#666666" points="398,-211.5 286,-211.5 286,-192.5 398,-192.5 398,-211.5"/>
<text text-anchor="middle" x="342" y="-199.5" font-family="Helvetica,sans-Serif" font-size="10.00">core/multiphysics.h</text>
</a>
</g>
</g>
<!-- Node4&#45;&gt;Node41 -->
<g id="edge23_Node000004_Node000041" class="edge">
<title>Node4&#45;&gt;Node41</title>
<g id="a_edge23_Node000004_Node000041"><a xlink:title=" ">
<path fill="none" stroke="#63b8ff" d="M413.61,-252.87C400.21,-243.54 378.62,-228.51 362.65,-217.38"/>
<polygon fill="#63b8ff" stroke="#63b8ff" points="364.65,-214.51 354.45,-211.67 360.65,-220.25 364.65,-214.51"/>
</a>
</g>
</g>
<!-- Node42 -->
<g id="Node000042" class="node">
<title>Node42</title>
<g id="a_Node000042"><a xlink:title=" ">
<polygon fill="#e0e0e0" stroke="#999999" points="229.5,-217 66.5,-217 66.5,-187 229.5,-187 229.5,-217"/>
<text text-anchor="start" x="74.5" y="-205" font-family="Helvetica,sans-Serif" font-size="10.00">deal.II/multigrid/mg</text>
<text text-anchor="middle" x="148" y="-194" font-family="Helvetica,sans-Serif" font-size="10.00">_transfer_global_coarsening.h</text>
</a>
</g>
</g>
<!-- Node4&#45;&gt;Node42 -->
<g id="edge27_Node000004_Node000042" class="edge">
<title>Node4&#45;&gt;Node42</title>
<g id="a_edge27_Node000004_Node000042"><a xlink:title=" ">
<path fill="none" stroke="#63b8ff" d="M385.58,-252.99C343.49,-244.14 276.56,-230.05 224.45,-219.09"/>
<polygon fill="#63b8ff" stroke="#63b8ff" points="225.07,-215.64 214.57,-217.01 223.63,-222.49 225.07,-215.64"/>
</a>
</g>
</g>
<!-- Node5&#45;&gt;Node6 -->
<g id="edge5_Node000005_Node000006" class="edge">
<title>Node5&#45;&gt;Node6</title>
<g id="a_edge5_Node000005_Node000006"><a xlink:title=" ">
<path fill="none" stroke="#63b8ff" d="M418,-126.44C418,-108.64 418,-67.07 418,-40.31"/>
<polygon fill="#63b8ff" stroke="#63b8ff" points="421.5,-40.2 418,-30.2 414.5,-40.2 421.5,-40.2"/>
</a>
</g>
</g>
<!-- Node8 -->
<g id="Node000008" class="node">
<title>Node8</title>
<g id="a_Node000008"><a xlink:href="dem__properties_8h.html" target="_top" xlink:title="DEM particle property definitions and output name management.">
<polygon fill="white" stroke="#666666" points="648,-85 522,-85 522,-66 648,-66 648,-85"/>
<text text-anchor="middle" x="585" y="-73" font-family="Helvetica,sans-Serif" font-size="10.00">core/dem_properties.h</text>
</a>
</g>
</g>
<!-- Node7&#45;&gt;Node8 -->
<g id="edge7_Node000007_Node000008" class="edge">
<title>Node7&#45;&gt;Node8</title>
<g id="a_edge7_Node000007_Node000008"><a xlink:title=" ">
<path fill="none" stroke="#63b8ff" d="M585.93,-192.44C585.77,-172.54 585.37,-122.76 585.15,-95.35"/>
<polygon fill="#63b8ff" stroke="#63b8ff" points="588.65,-95.09 585.07,-85.12 581.65,-95.15 588.65,-95.09"/>
</a>
</g>
</g>
<!-- Node10 -->
<g id="Node000010" class="node">
<title>Node10</title>
<g id="a_Node000010"><a xlink:title=" ">
<polygon fill="#e0e0e0" stroke="#999999" points="562.5,-24.5 515.5,-24.5 515.5,-5.5 562.5,-5.5 562.5,-24.5"/>
<text text-anchor="middle" x="539" y="-12.5" font-family="Helvetica,sans-Serif" font-size="10.00">vector</text>
</a>
</g>
</g>
<!-- Node7&#45;&gt;Node10 -->
<g id="edge22_Node000007_Node000010" class="edge">
<title>Node7&#45;&gt;Node10</title>
<g id="a_edge22_Node000007_Node000010"><a xlink:title=" ">
<path fill="none" stroke="#63b8ff" d="M577.98,-192.26C561.85,-174 525.93,-129.81 513,-85 507.81,-67.01 517.04,-47.06 525.9,-33.25"/>
<polygon fill="#63b8ff" stroke="#63b8ff" points="528.96,-34.99 531.8,-24.78 523.21,-30.99 528.96,-34.99"/>
</a>
</g>
</g>
<!-- Node11 -->
<g id="Node000011" class="node">
<title>Node11</title>
<g id="a_Node000011"><a xlink:href="shape_8h.html" target="_top" xlink:title=" ">
<polygon fill="#fff0f0" stroke="red" points="751.5,-145.5 672.5,-145.5 672.5,-126.5 751.5,-126.5 751.5,-145.5"/>
<text text-anchor="middle" x="712" y="-133.5" font-family="Helvetica,sans-Serif" font-size="10.00">core/shape.h</text>
</a>
</g>
</g>
<!-- Node7&#45;&gt;Node11 -->
<g id="edge10_Node000007_Node000011" class="edge">
<title>Node7&#45;&gt;Node11</title>
<g id="a_edge10_Node000007_Node000011"><a xlink:title=" ">
<path fill="none" stroke="#63b8ff" d="M602.99,-192.37C624.22,-181.59 660.78,-163.02 685.65,-150.38"/>
<polygon fill="#63b8ff" stroke="#63b8ff" points="687.54,-153.35 694.87,-145.7 684.37,-147.11 687.54,-153.35"/>
</a>
</g>
</g>
<!-- Node13 -->
<g id="Node000013" class="node">
<title>Node13</title>
<g id="a_Node000013"><a xlink:title=" ">
<polygon fill="#e0e0e0" stroke="#999999" points="691,-24.5 581,-24.5 581,-5.5 691,-5.5 691,-24.5"/>
<text text-anchor="middle" x="636" y="-12.5" font-family="Helvetica,sans-Serif" font-size="10.00">deal.II/base/point.h</text>
</a>
</g>
</g>
<!-- Node7&#45;&gt;Node13 -->
<g id="edge21_Node000007_Node000013" class="edge">
<title>Node7&#45;&gt;Node13</title>
<g id="a_edge21_Node000007_Node000013"><a xlink:title=" ">
<path fill="none" stroke="#63b8ff" d="M593.57,-192.49C609.14,-174.33 644.39,-129.77 657,-85 661.92,-67.54 654.55,-47.75 647.22,-33.86"/>
<polygon fill="#63b8ff" stroke="#63b8ff" points="650.09,-31.82 642.07,-24.9 644.02,-35.31 650.09,-31.82"/>
</a>
</g>
</g>
<!-- Node7&#45;&gt;Node40 -->
<g id="edge20_Node000007_Node000040" class="edge">
<title>Node7&#45;&gt;Node40</title>
<g id="a_edge20_Node000007_Node000040"><a xlink:title=" ">
<path fill="none" stroke="#63b8ff" d="M540.5,-192.44C481.46,-181.32 378.09,-161.86 310.85,-149.21"/>
<polygon fill="#63b8ff" stroke="#63b8ff" points="311.26,-145.72 300.79,-147.31 309.97,-152.6 311.26,-145.72"/>
</a>
</g>
</g>
<!-- Node9 -->
<g id="Node000009" class="node">
<title>Node9</title>
<g id="a_Node000009"><a xlink:title=" ">
<polygon fill="#e0e0e0" stroke="#999999" points="753,-24.5 709,-24.5 709,-5.5 753,-5.5 753,-24.5"/>
<text text-anchor="middle" x="731" y="-12.5" font-family="Helvetica,sans-Serif" font-size="10.00">string</text>
</a>
</g>
</g>
<!-- Node8&#45;&gt;Node9 -->
<g id="edge8_Node000008_Node000009" class="edge">
<title>Node8&#45;&gt;Node9</title>
<g id="a_edge8_Node000008_Node000009"><a xlink:title=" ">
<path fill="none" stroke="#63b8ff" d="M608.5,-65.84C631.85,-57.13 668.6,-43.15 700,-30 701.01,-29.58 702.03,-29.14 703.06,-28.7"/>
<polygon fill="#63b8ff" stroke="#63b8ff" points="704.64,-31.83 712.38,-24.61 701.82,-25.42 704.64,-31.83"/>
</a>
</g>
</g>
<!-- Node8&#45;&gt;Node10 -->
<g id="edge9_Node000008_Node000010" class="edge">
<title>Node8&#45;&gt;Node10</title>
<g id="a_edge9_Node000008_Node000010"><a xlink:title=" ">
<path fill="none" stroke="#63b8ff" d="M578.21,-65.87C571.35,-57.14 560.57,-43.43 552.05,-32.59"/>
<polygon fill="#63b8ff" stroke="#63b8ff" points="554.75,-30.36 545.82,-24.67 549.25,-34.69 554.75,-30.36"/>
</a>
</g>
</g>
<!-- Node11&#45;&gt;Node15 -->
<g id="edge11_Node000011_Node000015" class="edge">
<title>Node11&#45;&gt;Node15</title>
<g id="a_edge11_Node000011_Node000015"><a xlink:title=" ">
<path fill="none" stroke="#63b8ff" d="M717.16,-126.37C722.23,-117.9 730.1,-104.74 736.49,-94.07"/>
<polygon fill="#63b8ff" stroke="#63b8ff" points="739.68,-95.55 741.81,-85.17 733.68,-91.95 739.68,-95.55"/>
</a>
</g>
</g>
<!-- Node15&#45;&gt;Node6 -->
<g id="edge12_Node000015_Node000006" class="edge">
<title>Node15&#45;&gt;Node6</title>
<g id="a_edge12_Node000015_Node000006"><a xlink:title=" ">
<path fill="none" stroke="#63b8ff" d="M703.99,-66.85C650.17,-57.28 557.16,-40.74 491.86,-29.13"/>
<polygon fill="#63b8ff" stroke="#63b8ff" points="492.08,-25.62 481.63,-27.31 490.86,-32.51 492.08,-25.62"/>
</a>
</g>
</g>
<!-- Node15&#45;&gt;Node9 -->
<g id="edge18_Node000015_Node000009" class="edge">
<title>Node15&#45;&gt;Node9</title>
<g id="a_edge18_Node000015_Node000009"><a xlink:title=" ">
<path fill="none" stroke="#63b8ff" d="M744.64,-65.87C742.39,-57.66 738.94,-45.04 736.07,-34.55"/>
<polygon fill="#63b8ff" stroke="#63b8ff" points="739.38,-33.39 733.37,-24.67 732.63,-35.24 739.38,-33.39"/>
</a>
</g>
</g>
<!-- Node15&#45;&gt;Node10 -->
<g id="edge19_Node000015_Node000010" class="edge">
<title>Node15&#45;&gt;Node10</title>
<g id="a_edge19_Node000015_Node000010"><a xlink:title=" ">
<path fill="none" stroke="#63b8ff" d="M706.18,-65.97C670.38,-58.05 617.15,-45.22 572,-30 570.56,-29.52 569.1,-29 567.63,-28.45"/>
<polygon fill="#63b8ff" stroke="#63b8ff" points="568.59,-25.07 558,-24.64 566.01,-31.58 568.59,-25.07"/>
</a>
</g>
</g>
<!-- Node15&#45;&gt;Node13 -->
<g id="edge13_Node000015_Node000013" class="edge">
<title>Node15&#45;&gt;Node13</title>
<g id="a_edge13_Node000015_Node000013"><a xlink:title=" ">
<path fill="none" stroke="#63b8ff" d="M730.62,-65.87C712.42,-56.28 682.8,-40.67 661.55,-29.47"/>
<polygon fill="#63b8ff" stroke="#63b8ff" points="662.92,-26.23 652.45,-24.67 659.66,-32.43 662.92,-26.23"/>
</a>
</g>
</g>
<!-- Node15&#45;&gt;Node22 -->
<g id="edge14_Node000015_Node000022" class="edge">
<title>Node15&#45;&gt;Node22</title>
<g id="a_edge14_Node000015_Node000022"><a xlink:title=" ">
<path fill="none" stroke="#63b8ff" d="M768.23,-65.99C789.15,-57.61 821.76,-44.55 848.39,-33.87"/>
<polygon fill="#63b8ff" stroke="#63b8ff" points="849.92,-37.03 857.9,-30.06 847.32,-30.53 849.92,-37.03"/>
</a>
</g>
</g>
<!-- Node15&#45;&gt;Node23 -->
<g id="edge15_Node000015_Node000023" class="edge">
<title>Node15&#45;&gt;Node23</title>
<g id="a_edge15_Node000015_Node000023"><a xlink:title=" ">
<path fill="none" stroke="#63b8ff" d="M790.27,-66.15C832.78,-57.86 899.75,-44.59 966.59,-30.27"/>
<polygon fill="#63b8ff" stroke="#63b8ff" points="967.41,-33.68 976.45,-28.16 965.94,-26.84 967.41,-33.68"/>
</a>
</g>
</g>
<!-- Node15&#45;&gt;Node24 -->
<g id="edge16_Node000015_Node000024" class="edge">
<title>Node15&#45;&gt;Node24</title>
<g id="a_edge16_Node000015_Node000024"><a xlink:title=" ">
<path fill="none" stroke="#63b8ff" d="M790.11,-70.28C853.61,-63.77 976.21,-50.06 1089.6,-30.15"/>
<polygon fill="#63b8ff" stroke="#63b8ff" points="1090.26,-33.59 1099.49,-28.39 1089.04,-26.69 1090.26,-33.59"/>
</a>
</g>
</g>
<!-- Node27 -->
<g id="Node000027" class="node">
<title>Node27</title>
<g id="a_Node000027"><a xlink:title=" ">
<polygon fill="#e0e0e0" stroke="#999999" points="809,-24.5 771,-24.5 771,-5.5 809,-5.5 809,-24.5"/>
<text text-anchor="middle" x="790" y="-12.5" font-family="Helvetica,sans-Serif" font-size="10.00">map</text>
</a>
</g>
</g>
<!-- Node15&#45;&gt;Node27 -->
<g id="edge17_Node000015_Node000027" class="edge">
<title>Node15&#45;&gt;Node27</title>
<g id="a_edge17_Node000015_Node000027"><a xlink:title=" ">
<path fill="none" stroke="#63b8ff" d="M753.34,-65.87C759.7,-57.23 769.64,-43.7 777.57,-32.92"/>
<polygon fill="#63b8ff" stroke="#63b8ff" points="780.53,-34.8 783.63,-24.67 774.89,-30.65 780.53,-34.8"/>
</a>
</g>
</g>
<!-- Node43&#45;&gt;Node4 -->
<g id="edge29_Node000043_Node000004" class="edge">
<title>Node43&#45;&gt;Node4</title>
<g id="a_edge29_Node000043_Node000004"><a xlink:title=" ">
<path fill="none" stroke="#63b8ff" d="M728.53,-313.49C664.69,-302.94 555.96,-284.98 487.72,-273.7"/>
<polygon fill="#63b8ff" stroke="#63b8ff" points="487.97,-270.19 477.54,-272.02 486.83,-277.1 487.97,-270.19"/>
</a>
</g>
</g>
<!-- Node43&#45;&gt;Node6 -->
<g id="edge30_Node000043_Node000006" class="edge">
<title>Node43&#45;&gt;Node6</title>
<g id="a_edge30_Node000043_Node000006"><a xlink:title=" ">
<path fill="none" stroke="#63b8ff" d="M730.63,-313.46C674.24,-301.31 582.51,-273.86 526,-217 493.54,-184.34 508.41,-161.77 487,-121 471.29,-91.09 449.34,-58.94 434.44,-38.21"/>
<polygon fill="#63b8ff" stroke="#63b8ff" points="437.23,-36.1 428.53,-30.06 431.57,-40.21 437.23,-36.1"/>
</a>
</g>
</g>
<!-- Node43&#45;&gt;Node9 -->
<g id="edge33_Node000043_Node000009" class="edge">
<title>Node43&#45;&gt;Node9</title>
<g id="a_edge33_Node000043_Node000009"><a xlink:title=" ">
<path fill="none" stroke="#63b8ff" d="M784.81,-313.35C795.04,-294.13 818,-246.16 818,-203 818,-203 818,-203 818,-135 818,-103.19 817.03,-92.2 799,-66 788.51,-50.75 771.81,-38.38 757.59,-29.75"/>
<polygon fill="#63b8ff" stroke="#63b8ff" points="759.1,-26.59 748.69,-24.63 755.61,-32.65 759.1,-26.59"/>
</a>
</g>
</g>
<!-- Node43&#45;&gt;Node27 -->
<g id="edge31_Node000043_Node000027" class="edge">
<title>Node43&#45;&gt;Node27</title>
<g id="a_edge31_Node000043_Node000027"><a xlink:title=" ">
<path fill="none" stroke="#63b8ff" d="M791.89,-313.3C803.58,-304.19 821.19,-288.87 832,-272 849.52,-244.66 856,-235.47 856,-203 856,-203 856,-203 856,-135 856,-93.91 825.54,-53.73 806.01,-32.19"/>
<polygon fill="#63b8ff" stroke="#63b8ff" points="808.3,-29.52 798.9,-24.63 803.2,-34.31 808.3,-29.52"/>
</a>
</g>
</g>
<!-- Node44 -->
<g id="Node000044" class="node">
<title>Node44</title>
<g id="a_Node000044"><a xlink:title=" ">
<polygon fill="#e0e0e0" stroke="#999999" points="916,-272 884,-272 884,-253 916,-253 916,-272"/>
<text text-anchor="middle" x="900" y="-260" font-family="Helvetica,sans-Serif" font-size="10.00">set</text>
</a>
</g>
</g>
<!-- Node43&#45;&gt;Node44 -->
<g id="edge32_Node000043_Node000044" class="edge">
<title>Node43&#45;&gt;Node44</title>
<g id="a_edge32_Node000043_Node000044"><a xlink:title=" ">
<path fill="none" stroke="#63b8ff" d="M797.45,-313.49C817.7,-303.62 851.27,-287.26 874.45,-275.95"/>
<polygon fill="#63b8ff" stroke="#63b8ff" points="876.23,-278.98 883.69,-271.45 873.16,-272.69 876.23,-278.98"/>
</a>
</g>
</g>
<!-- Node45&#45;&gt;Node4 -->
<g id="edge35_Node000045_Node000004" class="edge">
<title>Node45&#45;&gt;Node4</title>
<g id="a_edge35_Node000045_Node000004"><a xlink:title=" ">
<path fill="none" stroke="#63b8ff" d="M278.47,-307.99C311.95,-297.89 356.57,-284.44 387.94,-274.98"/>
<polygon fill="#63b8ff" stroke="#63b8ff" points="389.07,-278.29 397.63,-272.05 387.05,-271.59 389.07,-278.29"/>
</a>
</g>
</g>
<!-- Node45&#45;&gt;Node6 -->
<g id="edge36_Node000045_Node000006" class="edge">
<title>Node45&#45;&gt;Node6</title>
<g id="a_edge36_Node000045_Node000006"><a xlink:title=" ">
<path fill="none" stroke="#63b8ff" d="M179.93,-317.96C111.53,-309.49 0,-283.35 0,-203 0,-203 0,-203 0,-135 0,-64.34 223.73,-33.38 343.83,-21.85"/>
<polygon fill="#63b8ff" stroke="#63b8ff" points="344.43,-25.3 354.06,-20.89 343.78,-18.34 344.43,-25.3"/>
</a>
</g>
</g>
<!-- Node45&#45;&gt;Node40 -->
<g id="edge37_Node000045_Node000040" class="edge">
<title>Node45&#45;&gt;Node40</title>
<g id="a_edge37_Node000045_Node000040"><a xlink:title=" ">
<path fill="none" stroke="#63b8ff" d="M184.02,-307.93C118.79,-286.36 14.81,-241.81 57,-187 72.27,-167.16 132.69,-153.59 181.16,-145.64"/>
<polygon fill="#63b8ff" stroke="#63b8ff" points="181.98,-149.06 191.31,-144.03 180.88,-142.14 181.98,-149.06"/>
</a>
</g>
</g>
<!-- Node46&#45;&gt;Node43 -->
<g id="edge39_Node000046_Node000043" class="edge">
<title>Node46&#45;&gt;Node43</title>
<g id="a_edge39_Node000046_Node000043"><a xlink:title=" ">
<path fill="none" stroke="#63b8ff" d="M876.9,-379.37C858.19,-368.68 826.1,-350.35 804.01,-337.72"/>
<polygon fill="#63b8ff" stroke="#63b8ff" points="805.64,-334.62 795.22,-332.7 802.17,-340.7 805.64,-334.62"/>
</a>
</g>
</g>
<!-- Node47 -->
<g id="Node000047" class="node">
<title>Node47</title>
<g id="a_Node000047"><a xlink:title=" ">
<polygon fill="#e0e0e0" stroke="#999999" points="934,-332.5 880,-332.5 880,-313.5 934,-313.5 934,-332.5"/>
<text text-anchor="middle" x="907" y="-320.5" font-family="Helvetica,sans-Serif" font-size="10.00">random</text>
</a>
</g>
</g>
<!-- Node46&#45;&gt;Node47 -->
<g id="edge40_Node000046_Node000047" class="edge">
<title>Node46&#45;&gt;Node47</title>
<g id="a_edge40_Node000046_Node000047"><a xlink:title=" ">
<path fill="none" stroke="#63b8ff" d="M894.02,-379.37C896.2,-370.07 899.74,-354.98 902.57,-342.9"/>
<polygon fill="#63b8ff" stroke="#63b8ff" points="906.04,-343.44 904.91,-332.91 899.22,-341.84 906.04,-343.44"/>
</a>
</g>
</g>
</g>
</svg>
