<?xml version="1.0" encoding="UTF-8" standalone="no"?>
<!DOCTYPE svg PUBLIC "-//W3C//DTD SVG 1.1//EN"
 "http://www.w3.org/Graphics/SVG/1.1/DTD/svg11.dtd">
<!-- Generated by graphviz version 2.43.0 (0)
 -->
<!-- Title: /home/runner/work/lethe/lethe/source/dem/insertion_plane.cc Pages: 1 -->
<svg width="1538pt" height="478pt"
 viewBox="0.00 0.00 1538.00 478.00" xmlns="http://www.w3.org/2000/svg" xmlns:xlink="http://www.w3.org/1999/xlink">
<g id="graph0" class="graph" transform="scale(1 1) rotate(0) translate(4 474)">
<title>/home/runner/work/lethe/lethe/source/dem/insertion_plane.cc</title>
<!-- Node1 -->
<g id="Node000001" class="node">
<title>Node1</title>
<g id="a_Node000001"><a xlink:title=" ">
<polygon fill="#999999" stroke="#666666" points="511.5,-470 361.5,-470 361.5,-429 511.5,-429 511.5,-470"/>
<text text-anchor="start" x="369.5" y="-458" font-family="Helvetica,sans-Serif" font-size="10.00">/home/runner/work/lethe</text>
<text text-anchor="start" x="369.5" y="-447" font-family="Helvetica,sans-Serif" font-size="10.00">/lethe/source/dem/insertion</text>
<text text-anchor="middle" x="436.5" y="-436" font-family="Helvetica,sans-Serif" font-size="10.00">_plane.cc</text>
</a>
</g>
</g>
<!-- Node2 -->
<g id="Node000002" class="node">
<title>Node2</title>
<g id="a_Node000002"><a xlink:href="tensors__and__points__dimension__manipulation_8h.html" target="_top" xlink:title=" ">
<polygon fill="white" stroke="#666666" points="268.5,-96 116.5,-96 116.5,-66 268.5,-66 268.5,-96"/>
<text text-anchor="start" x="124.5" y="-84" font-family="Helvetica,sans-Serif" font-size="10.00">core/tensors_and_points</text>
<text text-anchor="middle" x="192.5" y="-73" font-family="Helvetica,sans-Serif" font-size="10.00">_dimension_manipulation.h</text>
</a>
</g>
</g>
<!-- Node1&#45;&gt;Node2 -->
<g id="edge1_Node000001_Node000002" class="edge">
<title>Node1&#45;&gt;Node2</title>
<g id="a_edge1_Node000001_Node000002"><a xlink:title=" ">
<path fill="none" stroke="#63b8ff" d="M361.22,-437.39C300.62,-423.69 225.5,-393.74 225.5,-329.5 225.5,-329.5 225.5,-329.5 225.5,-201 225.5,-166.86 212.73,-129.14 203.08,-105.51"/>
<polygon fill="#63b8ff" stroke="#63b8ff" points="206.3,-104.15 199.18,-96.3 199.85,-106.87 206.3,-104.15"/>
</a>
</g>
</g>
<!-- Node5 -->
<g id="Node000005" class="node">
<title>Node5</title>
<g id="a_Node000005"><a xlink:href="insertion__plane_8h.html" target="_top" xlink:title=" ">
<polygon fill="white" stroke="#666666" points="499,-393 374,-393 374,-374 499,-374 499,-393"/>
<text text-anchor="middle" x="436.5" y="-381" font-family="Helvetica,sans-Serif" font-size="10.00">dem/insertion_plane.h</text>
</a>
</g>
</g>
<!-- Node1&#45;&gt;Node5 -->
<g id="edge4_Node000001_Node000005" class="edge">
<title>Node1&#45;&gt;Node5</title>
<g id="a_edge4_Node000001_Node000005"><a xlink:title=" ">
<path fill="none" stroke="#63b8ff" d="M436.5,-428.95C436.5,-420.85 436.5,-411.5 436.5,-403.47"/>
<polygon fill="#63b8ff" stroke="#63b8ff" points="440,-403.26 436.5,-393.26 433,-403.26 440,-403.26"/>
</a>
</g>
</g>
<!-- Node52 -->
<g id="Node000052" class="node">
<title>Node52</title>
<g id="a_Node000052"><a xlink:title=" ">
<polygon fill="#e0e0e0" stroke="#999999" points="581.5,-393 517.5,-393 517.5,-374 581.5,-374 581.5,-393"/>
<text text-anchor="middle" x="549.5" y="-381" font-family="Helvetica,sans-Serif" font-size="10.00">algorithm</text>
</a>
</g>
</g>
<!-- Node1&#45;&gt;Node52 -->
<g id="edge47_Node000001_Node000052" class="edge">
<title>Node1&#45;&gt;Node52</title>
<g id="a_edge47_Node000001_Node000052"><a xlink:title=" ">
<path fill="none" stroke="#63b8ff" d="M471.02,-428.95C488.54,-419.03 509.4,-407.21 525.21,-398.25"/>
<polygon fill="#63b8ff" stroke="#63b8ff" points="527.35,-401.07 534.33,-393.09 523.9,-394.97 527.35,-401.07"/>
</a>
</g>
</g>
<!-- Node3 -->
<g id="Node000003" class="node">
<title>Node3</title>
<g id="a_Node000003"><a xlink:title=" ">
<polygon fill="#e0e0e0" stroke="#999999" points="638.5,-24.5 528.5,-24.5 528.5,-5.5 638.5,-5.5 638.5,-24.5"/>
<text text-anchor="middle" x="583.5" y="-12.5" font-family="Helvetica,sans-Serif" font-size="10.00">deal.II/base/point.h</text>
</a>
</g>
</g>
<!-- Node2&#45;&gt;Node3 -->
<g id="edge2_Node000002_Node000003" class="edge">
<title>Node2&#45;&gt;Node3</title>
<g id="a_edge2_Node000002_Node000003"><a xlink:title=" ">
<path fill="none" stroke="#63b8ff" d="M268.8,-69.62C335,-60.29 433.33,-45.69 518.5,-30 524.03,-28.98 529.82,-27.84 535.56,-26.67"/>
<polygon fill="#63b8ff" stroke="#63b8ff" points="536.7,-30 545.77,-24.53 535.26,-23.15 536.7,-30"/>
</a>
</g>
</g>
<!-- Node4 -->
<g id="Node000004" class="node">
<title>Node4</title>
<g id="a_Node000004"><a xlink:title=" ">
<polygon fill="#e0e0e0" stroke="#999999" points="115,-24.5 0,-24.5 0,-5.5 115,-5.5 115,-24.5"/>
<text text-anchor="middle" x="57.5" y="-12.5" font-family="Helvetica,sans-Serif" font-size="10.00">deal.II/base/tensor.h</text>
</a>
</g>
</g>
<!-- Node2&#45;&gt;Node4 -->
<g id="edge3_Node000002_Node000004" class="edge">
<title>Node2&#45;&gt;Node4</title>
<g id="a_edge3_Node000002_Node000004"><a xlink:title=" ">
<path fill="none" stroke="#63b8ff" d="M162.87,-65.95C139.51,-54.88 107.2,-39.56 84.53,-28.82"/>
<polygon fill="#63b8ff" stroke="#63b8ff" points="86,-25.64 75.47,-24.52 83,-31.96 86,-25.64"/>
</a>
</g>
</g>
<!-- Node6 -->
<g id="Node000006" class="node">
<title>Node6</title>
<g id="a_Node000006"><a xlink:href="insertion_8h.html" target="_top" xlink:title=" ">
<polygon fill="white" stroke="#666666" points="636,-338 543,-338 543,-319 636,-319 636,-338"/>
<text text-anchor="middle" x="589.5" y="-326" font-family="Helvetica,sans-Serif" font-size="10.00">dem/insertion.h</text>
</a>
</g>
</g>
<!-- Node5&#45;&gt;Node6 -->
<g id="edge5_Node000005_Node000006" class="edge">
<title>Node5&#45;&gt;Node6</title>
<g id="a_edge5_Node000005_Node000006"><a xlink:title=" ">
<path fill="none" stroke="#63b8ff" d="M461.08,-373.98C486.55,-365.16 526.54,-351.31 555.13,-341.41"/>
<polygon fill="#63b8ff" stroke="#63b8ff" points="556.42,-344.66 564.73,-338.08 554.13,-338.05 556.42,-344.66"/>
</a>
</g>
</g>
<!-- Node7 -->
<g id="Node000007" class="node">
<title>Node7</title>
<g id="a_Node000007"><a xlink:href="dem__solver__parameters_8h.html" target="_top" xlink:title=" ">
<polygon fill="white" stroke="#666666" points="1376,-277.5 1207,-277.5 1207,-258.5 1376,-258.5 1376,-277.5"/>
<text text-anchor="middle" x="1291.5" y="-265.5" font-family="Helvetica,sans-Serif" font-size="10.00">dem/dem_solver_parameters.h</text>
</a>
</g>
</g>
<!-- Node6&#45;&gt;Node7 -->
<g id="edge6_Node000006_Node000007" class="edge">
<title>Node6&#45;&gt;Node7</title>
<g id="a_edge6_Node000006_Node000007"><a xlink:title=" ">
<path fill="none" stroke="#63b8ff" d="M636.22,-325.31C738.4,-320.24 989.37,-306.35 1198.5,-283 1208.48,-281.89 1219.03,-280.5 1229.3,-279.03"/>
<polygon fill="#63b8ff" stroke="#63b8ff" points="1230.06,-282.46 1239.45,-277.55 1229.05,-275.53 1230.06,-282.46"/>
</a>
</g>
</g>
<!-- Node23 -->
<g id="Node000023" class="node">
<title>Node23</title>
<g id="a_Node000023"><a xlink:title=" ">
<polygon fill="#e0e0e0" stroke="#999999" points="264,-30 133,-30 133,0 264,0 264,-30"/>
<text text-anchor="start" x="141" y="-18" font-family="Helvetica,sans-Serif" font-size="10.00">deal.II/particles/particle</text>
<text text-anchor="middle" x="198.5" y="-7" font-family="Helvetica,sans-Serif" font-size="10.00">_iterator.h</text>
</a>
</g>
</g>
<!-- Node6&#45;&gt;Node23 -->
<g id="edge44_Node000006_Node000023" class="edge">
<title>Node6&#45;&gt;Node23</title>
<g id="a_edge44_Node000006_Node000023"><a xlink:title=" ">
<path fill="none" stroke="#63b8ff" d="M542.82,-323.95C479.93,-318.36 372.21,-305.75 340.5,-283 307.53,-259.34 296.5,-243.58 296.5,-203 296.5,-203 296.5,-203 296.5,-140.5 296.5,-106.33 297.58,-93.65 277.5,-66 268.28,-53.3 254.75,-43.06 241.49,-35.24"/>
<polygon fill="#63b8ff" stroke="#63b8ff" points="242.85,-31.99 232.41,-30.2 239.46,-38.11 242.85,-31.99"/>
</a>
</g>
</g>
<!-- Node24 -->
<g id="Node000024" class="node">
<title>Node24</title>
<g id="a_Node000024"><a xlink:title=" ">
<polygon fill="#e0e0e0" stroke="#999999" points="387,-30 282,-30 282,0 387,0 387,-30"/>
<text text-anchor="start" x="290" y="-18" font-family="Helvetica,sans-Serif" font-size="10.00">boost/archive/text</text>
<text text-anchor="middle" x="334.5" y="-7" font-family="Helvetica,sans-Serif" font-size="10.00">_iarchive.hpp</text>
</a>
</g>
</g>
<!-- Node6&#45;&gt;Node24 -->
<g id="edge45_Node000006_Node000024" class="edge">
<title>Node6&#45;&gt;Node24</title>
<g id="a_edge45_Node000006_Node000024"><a xlink:title=" ">
<path fill="none" stroke="#63b8ff" d="M542.66,-323C486.47,-316.76 396.57,-303.83 370.5,-283 340.04,-258.66 334.5,-241.99 334.5,-203 334.5,-203 334.5,-203 334.5,-140.5 334.5,-105.67 334.5,-65.35 334.5,-40.26"/>
<polygon fill="#63b8ff" stroke="#63b8ff" points="338,-40.19 334.5,-30.19 331,-40.19 338,-40.19"/>
</a>
</g>
</g>
<!-- Node25 -->
<g id="Node000025" class="node">
<title>Node25</title>
<g id="a_Node000025"><a xlink:title=" ">
<polygon fill="#e0e0e0" stroke="#999999" points="510,-30 405,-30 405,0 510,0 510,-30"/>
<text text-anchor="start" x="413" y="-18" font-family="Helvetica,sans-Serif" font-size="10.00">boost/archive/text</text>
<text text-anchor="middle" x="457.5" y="-7" font-family="Helvetica,sans-Serif" font-size="10.00">_oarchive.hpp</text>
</a>
</g>
</g>
<!-- Node6&#45;&gt;Node25 -->
<g id="edge46_Node000006_Node000025" class="edge">
<title>Node6&#45;&gt;Node25</title>
<g id="a_edge46_Node000006_Node000025"><a xlink:title=" ">
<path fill="none" stroke="#63b8ff" d="M542.86,-322.71C491.25,-316.46 412.55,-303.8 391.5,-283 365.5,-257.32 372.5,-239.54 372.5,-203 372.5,-203 372.5,-203 372.5,-140.5 372.5,-98.23 406.34,-59.74 431.31,-37.08"/>
<polygon fill="#63b8ff" stroke="#63b8ff" points="433.84,-39.52 439.06,-30.3 429.23,-34.26 433.84,-39.52"/>
</a>
</g>
</g>
<!-- Node45 -->
<g id="Node000045" class="node">
<title>Node45</title>
<g id="a_Node000045"><a xlink:href="distributions_8h.html" target="_top" xlink:title=" ">
<polygon fill="white" stroke="#666666" points="512,-277.5 401,-277.5 401,-258.5 512,-258.5 512,-277.5"/>
<text text-anchor="middle" x="456.5" y="-265.5" font-family="Helvetica,sans-Serif" font-size="10.00">dem/distributions.h</text>
</a>
</g>
</g>
<!-- Node6&#45;&gt;Node45 -->
<g id="edge36_Node000006_Node000045" class="edge">
<title>Node6&#45;&gt;Node45</title>
<g id="a_edge36_Node000006_Node000045"><a xlink:title=" ">
<path fill="none" stroke="#63b8ff" d="M570.16,-318.99C547.8,-309.16 510.79,-292.88 485.1,-281.58"/>
<polygon fill="#63b8ff" stroke="#63b8ff" points="486.43,-278.34 475.86,-277.52 483.61,-284.75 486.43,-278.34"/>
</a>
</g>
</g>
<!-- Node47 -->
<g id="Node000047" class="node">
<title>Node47</title>
<g id="a_Node000047"><a xlink:title=" ">
<polygon fill="#e0e0e0" stroke="#999999" points="649,-283 530,-283 530,-253 649,-253 649,-283"/>
<text text-anchor="start" x="538" y="-271" font-family="Helvetica,sans-Serif" font-size="10.00">deal.II/base/data_out</text>
<text text-anchor="middle" x="589.5" y="-260" font-family="Helvetica,sans-Serif" font-size="10.00">_base.h</text>
</a>
</g>
</g>
<!-- Node6&#45;&gt;Node47 -->
<g id="edge39_Node000006_Node000047" class="edge">
<title>Node6&#45;&gt;Node47</title>
<g id="a_edge39_Node000006_Node000047"><a xlink:title=" ">
<path fill="none" stroke="#63b8ff" d="M589.5,-318.87C589.5,-312.11 589.5,-302.35 589.5,-293.26"/>
<polygon fill="#63b8ff" stroke="#63b8ff" points="593,-293.11 589.5,-283.11 586,-293.11 593,-293.11"/>
</a>
</g>
</g>
<!-- Node48 -->
<g id="Node000048" class="node">
<title>Node48</title>
<g id="a_Node000048"><a xlink:title=" ">
<polygon fill="#e0e0e0" stroke="#999999" points="769.5,-283 667.5,-283 667.5,-253 769.5,-253 769.5,-283"/>
<text text-anchor="start" x="675.5" y="-271" font-family="Helvetica,sans-Serif" font-size="10.00">deal.II/distributed</text>
<text text-anchor="middle" x="718.5" y="-260" font-family="Helvetica,sans-Serif" font-size="10.00">/tria.h</text>
</a>
</g>
</g>
<!-- Node6&#45;&gt;Node48 -->
<g id="edge40_Node000006_Node000048" class="edge">
<title>Node6&#45;&gt;Node48</title>
<g id="a_edge40_Node000006_Node000048"><a xlink:title=" ">
<path fill="none" stroke="#63b8ff" d="M608.26,-318.99C626.44,-310.75 654.6,-297.98 677.92,-287.4"/>
<polygon fill="#63b8ff" stroke="#63b8ff" points="679.57,-290.5 687.24,-283.18 676.68,-284.12 679.57,-290.5"/>
</a>
</g>
</g>
<!-- Node49 -->
<g id="Node000049" class="node">
<title>Node49</title>
<g id="a_Node000049"><a xlink:title=" ">
<polygon fill="#e0e0e0" stroke="#999999" points="893.5,-283 787.5,-283 787.5,-253 893.5,-253 893.5,-283"/>
<text text-anchor="start" x="795.5" y="-271" font-family="Helvetica,sans-Serif" font-size="10.00">deal.II/grid/filtered</text>
<text text-anchor="middle" x="840.5" y="-260" font-family="Helvetica,sans-Serif" font-size="10.00">_iterator.h</text>
</a>
</g>
</g>
<!-- Node6&#45;&gt;Node49 -->
<g id="edge41_Node000006_Node000049" class="edge">
<title>Node6&#45;&gt;Node49</title>
<g id="a_edge41_Node000006_Node000049"><a xlink:title=" ">
<path fill="none" stroke="#63b8ff" d="M626,-318.99C665.6,-309.76 729.57,-294.85 777.36,-283.72"/>
<polygon fill="#63b8ff" stroke="#63b8ff" points="778.35,-287.08 787.3,-281.4 776.76,-280.26 778.35,-287.08"/>
</a>
</g>
</g>
<!-- Node50 -->
<g id="Node000050" class="node">
<title>Node50</title>
<g id="a_Node000050"><a xlink:title=" ">
<polygon fill="#e0e0e0" stroke="#999999" points="1039.5,-277.5 911.5,-277.5 911.5,-258.5 1039.5,-258.5 1039.5,-277.5"/>
<text text-anchor="middle" x="975.5" y="-265.5" font-family="Helvetica,sans-Serif" font-size="10.00">deal.II/grid/grid_tools.h</text>
</a>
</g>
</g>
<!-- Node6&#45;&gt;Node50 -->
<g id="edge42_Node000006_Node000050" class="edge">
<title>Node6&#45;&gt;Node50</title>
<g id="a_edge42_Node000006_Node000050"><a xlink:title=" ">
<path fill="none" stroke="#63b8ff" d="M636.01,-321.6C697.24,-313.67 808.16,-298.74 902.5,-283 909.09,-281.9 915.99,-280.67 922.82,-279.42"/>
<polygon fill="#63b8ff" stroke="#63b8ff" points="923.53,-282.84 932.72,-277.56 922.24,-275.96 923.53,-282.84"/>
</a>
</g>
</g>
<!-- Node51 -->
<g id="Node000051" class="node">
<title>Node51</title>
<g id="a_Node000051"><a xlink:title=" ">
<polygon fill="#e0e0e0" stroke="#999999" points="1189,-283 1058,-283 1058,-253 1189,-253 1189,-283"/>
<text text-anchor="start" x="1066" y="-271" font-family="Helvetica,sans-Serif" font-size="10.00">deal.II/particles/particle</text>
<text text-anchor="middle" x="1123.5" y="-260" font-family="Helvetica,sans-Serif" font-size="10.00">_handler.h</text>
</a>
</g>
</g>
<!-- Node6&#45;&gt;Node51 -->
<g id="edge43_Node000006_Node000051" class="edge">
<title>Node6&#45;&gt;Node51</title>
<g id="a_edge43_Node000006_Node000051"><a xlink:title=" ">
<path fill="none" stroke="#63b8ff" d="M636.25,-324.33C717.64,-318.52 890.83,-304.84 1047.41,-283.07"/>
<polygon fill="#63b8ff" stroke="#63b8ff" points="1048.29,-286.48 1057.7,-281.62 1047.31,-279.55 1048.29,-286.48"/>
</a>
</g>
</g>
<!-- Node8 -->
<g id="Node000008" class="node">
<title>Node8</title>
<g id="a_Node000008"><a xlink:href="parameters_8h.html" target="_top" xlink:title=" ">
<polygon fill="white" stroke="#666666" points="1156.5,-151 1050.5,-151 1050.5,-132 1156.5,-132 1156.5,-151"/>
<text text-anchor="middle" x="1103.5" y="-139" font-family="Helvetica,sans-Serif" font-size="10.00">core/parameters.h</text>
</a>
</g>
</g>
<!-- Node7&#45;&gt;Node8 -->
<g id="edge7_Node000007_Node000008" class="edge">
<title>Node7&#45;&gt;Node8</title>
<g id="a_edge7_Node000007_Node000008"><a xlink:title=" ">
<path fill="none" stroke="#63b8ff" d="M1278.58,-258.44C1246.78,-237.39 1164.48,-182.88 1125.11,-156.81"/>
<polygon fill="#63b8ff" stroke="#63b8ff" points="1126.78,-153.72 1116.51,-151.12 1122.92,-159.56 1126.78,-153.72"/>
</a>
</g>
</g>
<!-- Node42 -->
<g id="Node000042" class="node">
<title>Node42</title>
<g id="a_Node000042"><a xlink:href="parameters__lagrangian_8h.html" target="_top" xlink:title="Parameter structures for Lagrangian (DEM) particle simulations.">
<polygon fill="white" stroke="#666666" points="828,-211.5 665,-211.5 665,-192.5 828,-192.5 828,-211.5"/>
<text text-anchor="middle" x="746.5" y="-199.5" font-family="Helvetica,sans-Serif" font-size="10.00">core/parameters_lagrangian.h</text>
</a>
</g>
</g>
<!-- Node7&#45;&gt;Node42 -->
<g id="edge26_Node000007_Node000042" class="edge">
<title>Node7&#45;&gt;Node42</title>
<g id="a_edge26_Node000007_Node000042"><a xlink:title=" ">
<path fill="none" stroke="#63b8ff" d="M1237.46,-258.5C1224.7,-256.59 1211.13,-254.65 1198.5,-253 1073.99,-236.75 929.74,-221.39 838.32,-212.09"/>
<polygon fill="#63b8ff" stroke="#63b8ff" points="838.57,-208.6 828.27,-211.07 837.87,-215.56 838.57,-208.6"/>
</a>
</g>
</g>
<!-- Node44 -->
<g id="Node000044" class="node">
<title>Node44</title>
<g id="a_Node000044"><a xlink:href="solid__objects__parameters_8h.html" target="_top" xlink:title="Parameter classes for solid objects used in Nitsche immersed boundary and DEM simulations.">
<polygon fill="white" stroke="#666666" points="1416.5,-217 1312.5,-217 1312.5,-187 1416.5,-187 1416.5,-217"/>
<text text-anchor="start" x="1320.5" y="-205" font-family="Helvetica,sans-Serif" font-size="10.00">core/solid_objects</text>
<text text-anchor="middle" x="1364.5" y="-194" font-family="Helvetica,sans-Serif" font-size="10.00">_parameters.h</text>
</a>
</g>
</g>
<!-- Node7&#45;&gt;Node44 -->
<g id="edge32_Node000007_Node000044" class="edge">
<title>Node7&#45;&gt;Node44</title>
<g id="a_edge32_Node000007_Node000044"><a xlink:title=" ">
<path fill="none" stroke="#63b8ff" d="M1301.35,-258.37C1311.34,-249.61 1327.19,-235.71 1340.51,-224.04"/>
<polygon fill="#63b8ff" stroke="#63b8ff" points="1343.19,-226.34 1348.4,-217.12 1338.57,-221.08 1343.19,-226.34"/>
</a>
</g>
</g>
<!-- Node9 -->
<g id="Node000009" class="node">
<title>Node9</title>
<g id="a_Node000009"><a xlink:href="dimensionality_8h.html" target="_top" xlink:title=" ">
<polygon fill="white" stroke="#666666" points="1097,-90.5 976,-90.5 976,-71.5 1097,-71.5 1097,-90.5"/>
<text text-anchor="middle" x="1036.5" y="-78.5" font-family="Helvetica,sans-Serif" font-size="10.00">core/dimensionality.h</text>
</a>
</g>
</g>
<!-- Node8&#45;&gt;Node9 -->
<g id="edge8_Node000008_Node000009" class="edge">
<title>Node8&#45;&gt;Node9</title>
<g id="a_edge8_Node000008_Node000009"><a xlink:title=" ">
<path fill="none" stroke="#63b8ff" d="M1093.61,-131.87C1083.22,-122.8 1066.66,-108.34 1054.05,-97.32"/>
<polygon fill="#63b8ff" stroke="#63b8ff" points="1056.26,-94.61 1046.43,-90.67 1051.66,-99.88 1056.26,-94.61"/>
</a>
</g>
</g>
<!-- Node10 -->
<g id="Node000010" class="node">
<title>Node10</title>
<g id="a_Node000010"><a xlink:title=" ">
<polygon fill="#e0e0e0" stroke="#999999" points="902,-30 775,-30 775,0 902,0 902,-30"/>
<text text-anchor="start" x="783" y="-18" font-family="Helvetica,sans-Serif" font-size="10.00">deal.II/base/parameter</text>
<text text-anchor="middle" x="838.5" y="-7" font-family="Helvetica,sans-Serif" font-size="10.00">_handler.h</text>
</a>
</g>
</g>
<!-- Node8&#45;&gt;Node10 -->
<g id="edge23_Node000008_Node000010" class="edge">
<title>Node8&#45;&gt;Node10</title>
<g id="a_edge23_Node000008_Node000010"><a xlink:title=" ">
<path fill="none" stroke="#63b8ff" d="M1050.36,-138.46C983.89,-134.72 875.51,-124.35 848.5,-96 834.67,-81.48 833.19,-58.16 834.56,-40.43"/>
<polygon fill="#63b8ff" stroke="#63b8ff" points="838.07,-40.57 835.7,-30.25 831.11,-39.79 838.07,-40.57"/>
</a>
</g>
</g>
<!-- Node11 -->
<g id="Node000011" class="node">
<title>Node11</title>
<g id="a_Node000011"><a xlink:href="ib__particle_8h.html" target="_top" xlink:title=" ">
<polygon fill="#fff0f0" stroke="red" points="958,-90.5 857,-90.5 857,-71.5 958,-71.5 958,-90.5"/>
<text text-anchor="middle" x="907.5" y="-78.5" font-family="Helvetica,sans-Serif" font-size="10.00">core/ib_particle.h</text>
</a>
</g>
</g>
<!-- Node8&#45;&gt;Node11 -->
<g id="edge10_Node000008_Node000011" class="edge">
<title>Node8&#45;&gt;Node11</title>
<g id="a_edge10_Node000008_Node000011"><a xlink:title=" ">
<path fill="none" stroke="#63b8ff" d="M1075,-131.99C1040.89,-121.81 983.63,-104.72 945.71,-93.4"/>
<polygon fill="#63b8ff" stroke="#63b8ff" points="946.62,-90.02 936.03,-90.52 944.62,-96.73 946.62,-90.02"/>
</a>
</g>
</g>
<!-- Node39 -->
<g id="Node000039" class="node">
<title>Node39</title>
<g id="a_Node000039"><a xlink:title=" ">
<polygon fill="#e0e0e0" stroke="#999999" points="1530,-30 1421,-30 1421,0 1530,0 1530,-30"/>
<text text-anchor="start" x="1429" y="-18" font-family="Helvetica,sans-Serif" font-size="10.00">deal.II/base/parsed</text>
<text text-anchor="middle" x="1475.5" y="-7" font-family="Helvetica,sans-Serif" font-size="10.00">_function.h</text>
</a>
</g>
</g>
<!-- Node8&#45;&gt;Node39 -->
<g id="edge24_Node000008_Node000039" class="edge">
<title>Node8&#45;&gt;Node39</title>
<g id="a_edge24_Node000008_Node000039"><a xlink:title=" ">
<path fill="none" stroke="#63b8ff" d="M1156.8,-138.02C1234.84,-133.55 1375.61,-122.06 1418.5,-96 1440.12,-82.86 1455.82,-58.09 1465.21,-39.58"/>
<polygon fill="#63b8ff" stroke="#63b8ff" points="1468.48,-40.83 1469.65,-30.3 1462.17,-37.81 1468.48,-40.83"/>
</a>
</g>
</g>
<!-- Node40 -->
<g id="Node000040" class="node">
<title>Node40</title>
<g id="a_Node000040"><a xlink:href="multiphysics_8h.html" target="_top" xlink:title="Identifiers for multiphysics modules and their solution fields.">
<polygon fill="white" stroke="#666666" points="1227.5,-90.5 1115.5,-90.5 1115.5,-71.5 1227.5,-71.5 1227.5,-90.5"/>
<text text-anchor="middle" x="1171.5" y="-78.5" font-family="Helvetica,sans-Serif" font-size="10.00">core/multiphysics.h</text>
</a>
</g>
</g>
<!-- Node8&#45;&gt;Node40 -->
<g id="edge13_Node000008_Node000040" class="edge">
<title>Node8&#45;&gt;Node40</title>
<g id="a_edge13_Node000008_Node000040"><a xlink:title=" ">
<path fill="none" stroke="#63b8ff" d="M1113.53,-131.87C1124.08,-122.8 1140.89,-108.34 1153.69,-97.32"/>
<polygon fill="#63b8ff" stroke="#63b8ff" points="1156.13,-99.84 1161.43,-90.67 1151.56,-94.54 1156.13,-99.84"/>
</a>
</g>
</g>
<!-- Node16 -->
<g id="Node000016" class="node">
<title>Node16</title>
<g id="a_Node000016"><a xlink:href="core_2utilities_8h.html" target="_top" xlink:title=" ">
<polygon fill="#fff0f0" stroke="red" points="626.5,-90.5 540.5,-90.5 540.5,-71.5 626.5,-71.5 626.5,-90.5"/>
<text text-anchor="middle" x="583.5" y="-78.5" font-family="Helvetica,sans-Serif" font-size="10.00">core/utilities.h</text>
</a>
</g>
</g>
<!-- Node8&#45;&gt;Node16 -->
<g id="edge14_Node000008_Node000016" class="edge">
<title>Node8&#45;&gt;Node16</title>
<g id="a_edge14_Node000008_Node000016"><a xlink:title=" ">
<path fill="none" stroke="#63b8ff" d="M1050.29,-134.51C950.54,-123.29 736.51,-99.21 636.74,-87.99"/>
<polygon fill="#63b8ff" stroke="#63b8ff" points="636.91,-84.49 626.58,-86.85 636.13,-91.44 636.91,-84.49"/>
</a>
</g>
</g>
<!-- Node41 -->
<g id="Node000041" class="node">
<title>Node41</title>
<g id="a_Node000041"><a xlink:title=" ">
<polygon fill="#e0e0e0" stroke="#999999" points="1409,-96 1246,-96 1246,-66 1409,-66 1409,-96"/>
<text text-anchor="start" x="1254" y="-84" font-family="Helvetica,sans-Serif" font-size="10.00">deal.II/multigrid/mg</text>
<text text-anchor="middle" x="1327.5" y="-73" font-family="Helvetica,sans-Serif" font-size="10.00">_transfer_global_coarsening.h</text>
</a>
</g>
</g>
<!-- Node8&#45;&gt;Node41 -->
<g id="edge25_Node000008_Node000041" class="edge">
<title>Node8&#45;&gt;Node41</title>
<g id="a_edge25_Node000008_Node000041"><a xlink:title=" ">
<path fill="none" stroke="#63b8ff" d="M1136.07,-131.99C1169.43,-123.28 1222.17,-109.51 1263.85,-98.62"/>
<polygon fill="#63b8ff" stroke="#63b8ff" points="1264.86,-101.98 1273.65,-96.06 1263.09,-95.2 1264.86,-101.98"/>
</a>
</g>
</g>
<!-- Node9&#45;&gt;Node10 -->
<g id="edge9_Node000009_Node000010" class="edge">
<title>Node9&#45;&gt;Node10</title>
<g id="a_edge9_Node000009_Node000010"><a xlink:title=" ">
<path fill="none" stroke="#63b8ff" d="M1009.8,-71.37C979.76,-61.66 930.19,-45.64 892.09,-33.32"/>
<polygon fill="#63b8ff" stroke="#63b8ff" points="892.76,-29.86 882.17,-30.12 890.61,-36.52 892.76,-29.86"/>
</a>
</g>
</g>
<!-- Node11&#45;&gt;Node3 -->
<g id="edge12_Node000011_Node000003" class="edge">
<title>Node11&#45;&gt;Node3</title>
<g id="a_edge12_Node000011_Node000003"><a xlink:title=" ">
<path fill="none" stroke="#63b8ff" d="M860.93,-71.41C808.85,-61.72 722.02,-45.31 647.5,-30 642.41,-28.95 637.09,-27.83 631.8,-26.7"/>
<polygon fill="#63b8ff" stroke="#63b8ff" points="632.22,-23.21 621.71,-24.52 630.74,-30.06 632.22,-23.21"/>
</a>
</g>
</g>
<!-- Node11&#45;&gt;Node39 -->
<g id="edge11_Node000011_Node000039" class="edge">
<title>Node11&#45;&gt;Node39</title>
<g id="a_edge11_Node000011_Node000039"><a xlink:title=" ">
<path fill="none" stroke="#63b8ff" d="M940.67,-71.44C949.35,-69.43 958.74,-67.45 967.5,-66 1125.47,-39.91 1313.48,-25.74 1410.46,-19.66"/>
<polygon fill="#63b8ff" stroke="#63b8ff" points="1410.92,-23.14 1420.69,-19.03 1410.49,-16.15 1410.92,-23.14"/>
</a>
</g>
</g>
<!-- Node16&#45;&gt;Node3 -->
<g id="edge16_Node000016_Node000003" class="edge">
<title>Node16&#45;&gt;Node3</title>
<g id="a_edge16_Node000016_Node000003"><a xlink:title=" ">
<path fill="none" stroke="#63b8ff" d="M583.5,-71.37C583.5,-62.16 583.5,-47.29 583.5,-35.27"/>
<polygon fill="#63b8ff" stroke="#63b8ff" points="587,-34.91 583.5,-24.91 580,-34.91 587,-34.91"/>
</a>
</g>
</g>
<!-- Node16&#45;&gt;Node4 -->
<g id="edge17_Node000016_Node000004" class="edge">
<title>Node16&#45;&gt;Node4</title>
<g id="a_edge17_Node000016_Node000004"><a xlink:title=" ">
<path fill="none" stroke="#63b8ff" d="M540.18,-76.76C458.4,-70.31 275.8,-54.37 123.5,-30 117.28,-29 110.75,-27.81 104.33,-26.54"/>
<polygon fill="#63b8ff" stroke="#63b8ff" points="104.88,-23.08 94.38,-24.51 103.48,-29.94 104.88,-23.08"/>
</a>
</g>
</g>
<!-- Node16&#45;&gt;Node10 -->
<g id="edge15_Node000016_Node000010" class="edge">
<title>Node16&#45;&gt;Node10</title>
<g id="a_edge15_Node000016_Node000010"><a xlink:title=" ">
<path fill="none" stroke="#63b8ff" d="M617.63,-71.44C657.11,-61.52 723.05,-44.98 772.62,-32.53"/>
<polygon fill="#63b8ff" stroke="#63b8ff" points="773.77,-35.85 782.62,-30.02 772.07,-29.06 773.77,-35.85"/>
</a>
</g>
</g>
<!-- Node16&#45;&gt;Node23 -->
<g id="edge18_Node000016_Node000023" class="edge">
<title>Node16&#45;&gt;Node23</title>
<g id="a_edge18_Node000016_Node000023"><a xlink:title=" ">
<path fill="none" stroke="#63b8ff" d="M540.42,-73.46C482.27,-64.54 375.17,-47.83 274.3,-30.29"/>
<polygon fill="#63b8ff" stroke="#63b8ff" points="274.7,-26.81 264.25,-28.54 273.5,-33.7 274.7,-26.81"/>
</a>
</g>
</g>
<!-- Node16&#45;&gt;Node24 -->
<g id="edge19_Node000016_Node000024" class="edge">
<title>Node16&#45;&gt;Node24</title>
<g id="a_edge19_Node000016_Node000024"><a xlink:title=" ">
<path fill="none" stroke="#63b8ff" d="M550.18,-71.44C511.12,-61.4 445.57,-44.55 396.97,-32.06"/>
<polygon fill="#63b8ff" stroke="#63b8ff" points="397.74,-28.64 387.18,-29.54 395.99,-35.42 397.74,-28.64"/>
</a>
</g>
</g>
<!-- Node16&#45;&gt;Node25 -->
<g id="edge20_Node000016_Node000025" class="edge">
<title>Node16&#45;&gt;Node25</title>
<g id="a_edge20_Node000016_Node000025"><a xlink:title=" ">
<path fill="none" stroke="#63b8ff" d="M566.51,-71.37C548.12,-62.03 518.25,-46.86 494.42,-34.75"/>
<polygon fill="#63b8ff" stroke="#63b8ff" points="495.79,-31.52 485.29,-30.12 492.62,-37.76 495.79,-31.52"/>
</a>
</g>
</g>
<!-- Node27 -->
<g id="Node000027" class="node">
<title>Node27</title>
<g id="a_Node000027"><a xlink:title=" ">
<polygon fill="#e0e0e0" stroke="#999999" points="694.5,-24.5 656.5,-24.5 656.5,-5.5 694.5,-5.5 694.5,-24.5"/>
<text text-anchor="middle" x="675.5" y="-12.5" font-family="Helvetica,sans-Serif" font-size="10.00">map</text>
</a>
</g>
</g>
<!-- Node16&#45;&gt;Node27 -->
<g id="edge21_Node000016_Node000027" class="edge">
<title>Node16&#45;&gt;Node27</title>
<g id="a_edge21_Node000016_Node000027"><a xlink:title=" ">
<path fill="none" stroke="#63b8ff" d="M595.91,-71.37C610.86,-60.97 636.22,-43.32 654.3,-30.75"/>
<polygon fill="#63b8ff" stroke="#63b8ff" points="656.78,-33.28 663,-24.7 652.79,-27.54 656.78,-33.28"/>
</a>
</g>
</g>
<!-- Node13 -->
<g id="Node000013" class="node">
<title>Node13</title>
<g id="a_Node000013"><a xlink:title=" ">
<polygon fill="#e0e0e0" stroke="#999999" points="756.5,-24.5 712.5,-24.5 712.5,-5.5 756.5,-5.5 756.5,-24.5"/>
<text text-anchor="middle" x="734.5" y="-12.5" font-family="Helvetica,sans-Serif" font-size="10.00">string</text>
</a>
</g>
</g>
<!-- Node16&#45;&gt;Node13 -->
<g id="edge22_Node000016_Node000013" class="edge">
<title>Node16&#45;&gt;Node13</title>
<g id="a_edge22_Node000016_Node000013"><a xlink:title=" ">
<path fill="none" stroke="#63b8ff" d="M604.82,-71.34C628.88,-61.51 669.13,-44.92 703.5,-30 704.5,-29.57 705.52,-29.12 706.55,-28.67"/>
<polygon fill="#63b8ff" stroke="#63b8ff" points="708.14,-31.79 715.85,-24.53 705.29,-25.4 708.14,-31.79"/>
</a>
</g>
</g>
<!-- Node42&#45;&gt;Node8 -->
<g id="edge27_Node000042_Node000008" class="edge">
<title>Node42&#45;&gt;Node8</title>
<g id="a_edge27_Node000042_Node000008"><a xlink:title=" ">
<path fill="none" stroke="#63b8ff" d="M798.41,-192.49C862.79,-181.94 972.43,-163.98 1041.26,-152.7"/>
<polygon fill="#63b8ff" stroke="#63b8ff" points="1042.22,-156.09 1051.53,-151.02 1041.09,-149.18 1042.22,-156.09"/>
</a>
</g>
</g>
<!-- Node42&#45;&gt;Node10 -->
<g id="edge28_Node000042_Node000010" class="edge">
<title>Node42&#45;&gt;Node10</title>
<g id="a_edge28_Node000042_Node000010"><a xlink:title=" ">
<path fill="none" stroke="#63b8ff" d="M750.93,-192.15C755.94,-182.16 764.32,-165.42 771.5,-151 791.03,-111.79 813.68,-66.12 827.01,-39.21"/>
<polygon fill="#63b8ff" stroke="#63b8ff" points="830.17,-40.71 831.47,-30.2 823.9,-37.6 830.17,-40.71"/>
</a>
</g>
</g>
<!-- Node42&#45;&gt;Node27 -->
<g id="edge29_Node000042_Node000027" class="edge">
<title>Node42&#45;&gt;Node27</title>
<g id="a_edge29_Node000042_Node000027"><a xlink:title=" ">
<path fill="none" stroke="#63b8ff" d="M739.53,-192.28C732.14,-182.67 720.59,-166.51 713.5,-151 695.34,-111.28 683.97,-60.94 678.79,-34.37"/>
<polygon fill="#63b8ff" stroke="#63b8ff" points="682.23,-33.72 676.95,-24.53 675.35,-35.01 682.23,-33.72"/>
</a>
</g>
</g>
<!-- Node42&#45;&gt;Node13 -->
<g id="edge31_Node000042_Node000013" class="edge">
<title>Node42&#45;&gt;Node13</title>
<g id="a_edge31_Node000042_Node000013"><a xlink:title=" ">
<path fill="none" stroke="#63b8ff" d="M740.55,-192.27C734.39,-182.65 725.16,-166.49 721.5,-151 711.84,-110.09 721.97,-60.6 728.99,-34.38"/>
<polygon fill="#63b8ff" stroke="#63b8ff" points="732.39,-35.24 731.74,-24.66 725.65,-33.33 732.39,-35.24"/>
</a>
</g>
</g>
<!-- Node43 -->
<g id="Node000043" class="node">
<title>Node43</title>
<g id="a_Node000043"><a xlink:title=" ">
<polygon fill="#e0e0e0" stroke="#999999" points="762.5,-151 730.5,-151 730.5,-132 762.5,-132 762.5,-151"/>
<text text-anchor="middle" x="746.5" y="-139" font-family="Helvetica,sans-Serif" font-size="10.00">set</text>
</a>
</g>
</g>
<!-- Node42&#45;&gt;Node43 -->
<g id="edge30_Node000042_Node000043" class="edge">
<title>Node42&#45;&gt;Node43</title>
<g id="a_edge30_Node000042_Node000043"><a xlink:title=" ">
<path fill="none" stroke="#63b8ff" d="M746.5,-192.37C746.5,-184.25 746.5,-171.81 746.5,-161.39"/>
<polygon fill="#63b8ff" stroke="#63b8ff" points="750,-161.17 746.5,-151.17 743,-161.17 750,-161.17"/>
</a>
</g>
</g>
<!-- Node44&#45;&gt;Node8 -->
<g id="edge33_Node000044_Node000008" class="edge">
<title>Node44&#45;&gt;Node8</title>
<g id="a_edge33_Node000044_Node000008"><a xlink:title=" ">
<path fill="none" stroke="#63b8ff" d="M1312.31,-189.3C1265.43,-178.79 1197.14,-163.49 1151.57,-153.27"/>
<polygon fill="#63b8ff" stroke="#63b8ff" points="1152.16,-149.82 1141.64,-151.05 1150.63,-156.65 1152.16,-149.82"/>
</a>
</g>
</g>
<!-- Node44&#45;&gt;Node10 -->
<g id="edge34_Node000044_Node000010" class="edge">
<title>Node44&#45;&gt;Node10</title>
<g id="a_edge34_Node000044_Node000010"><a xlink:title=" ">
<path fill="none" stroke="#63b8ff" d="M1379.08,-186.6C1404.51,-159.79 1451.27,-101.71 1418.5,-66 1384.93,-29.41 1061.07,-19.53 912.42,-16.92"/>
<polygon fill="#63b8ff" stroke="#63b8ff" points="912.08,-13.41 902.02,-16.74 911.96,-20.41 912.08,-13.41"/>
</a>
</g>
</g>
<!-- Node44&#45;&gt;Node39 -->
<g id="edge35_Node000044_Node000039" class="edge">
<title>Node44&#45;&gt;Node39</title>
<g id="a_edge35_Node000044_Node000039"><a xlink:title=" ">
<path fill="none" stroke="#63b8ff" d="M1404.57,-186.91C1421.58,-178.94 1440.08,-167.25 1451.5,-151 1474.8,-117.84 1477.73,-69.08 1477.07,-40.13"/>
<polygon fill="#63b8ff" stroke="#63b8ff" points="1480.56,-39.94 1476.68,-30.08 1473.57,-40.21 1480.56,-39.94"/>
</a>
</g>
</g>
<!-- Node45&#45;&gt;Node42 -->
<g id="edge37_Node000045_Node000042" class="edge">
<title>Node45&#45;&gt;Node42</title>
<g id="a_edge37_Node000045_Node000042"><a xlink:title=" ">
<path fill="none" stroke="#63b8ff" d="M495.31,-258.44C547.73,-246.87 641.12,-226.26 698.07,-213.69"/>
<polygon fill="#63b8ff" stroke="#63b8ff" points="698.91,-217.09 707.92,-211.51 697.4,-210.25 698.91,-217.09"/>
</a>
</g>
</g>
<!-- Node46 -->
<g id="Node000046" class="node">
<title>Node46</title>
<g id="a_Node000046"><a xlink:title=" ">
<polygon fill="#e0e0e0" stroke="#999999" points="483.5,-211.5 429.5,-211.5 429.5,-192.5 483.5,-192.5 483.5,-211.5"/>
<text text-anchor="middle" x="456.5" y="-199.5" font-family="Helvetica,sans-Serif" font-size="10.00">random</text>
</a>
</g>
</g>
<!-- Node45&#45;&gt;Node46 -->
<g id="edge38_Node000045_Node000046" class="edge">
<title>Node45&#45;&gt;Node46</title>
<g id="a_edge38_Node000045_Node000046"><a xlink:title=" ">
<path fill="none" stroke="#63b8ff" d="M456.5,-258.37C456.5,-249.16 456.5,-234.29 456.5,-222.27"/>
<polygon fill="#63b8ff" stroke="#63b8ff" points="460,-221.91 456.5,-211.91 453,-221.91 460,-221.91"/>
</a>
</g>
</g>
</g>
</svg>
