<?xml version="1.0" encoding="UTF-8" standalone="no"?>
<!DOCTYPE svg PUBLIC "-//W3C//DTD SVG 1.1//EN"
 "http://www.w3.org/Graphics/SVG/1.1/DTD/svg11.dtd">
<!-- Generated by graphviz version 2.43.0 (0)
 -->
<!-- Title: /home/runner/work/lethe/lethe/include/dem/insertion.h Pages: 1 -->
<svg width="3229pt" height="489pt"
 viewBox="0.00 0.00 3228.50 489.00" xmlns="http://www.w3.org/2000/svg" xmlns:xlink="http://www.w3.org/1999/xlink">
<g id="graph0" class="graph" transform="scale(1 1) rotate(0) translate(4 485)">
<title>/home/runner/work/lethe/lethe/include/dem/insertion.h</title>
<!-- Node1 -->
<g id="Node000001" class="node">
<title>Node1</title>
<g id="a_Node000001"><a xlink:title=" ">
<polygon fill="#999999" stroke="#666666" points="2532,-481 2370,-481 2370,-451 2532,-451 2532,-481"/>
<text text-anchor="start" x="2378" y="-469" font-family="Helvetica,sans-Serif" font-size="10.00">/home/runner/work/lethe</text>
<text text-anchor="middle" x="2451" y="-458" font-family="Helvetica,sans-Serif" font-size="10.00">/lethe/include/dem/insertion.h</text>
</a>
</g>
</g>
<!-- Node2 -->
<g id="Node000002" class="node">
<title>Node2</title>
<g id="a_Node000002"><a xlink:href="dem__solver__parameters_8h.html" target="_top" xlink:title=" ">
<polygon fill="white" stroke="#666666" points="615.5,-409.5 446.5,-409.5 446.5,-390.5 615.5,-390.5 615.5,-409.5"/>
<text text-anchor="middle" x="531" y="-397.5" font-family="Helvetica,sans-Serif" font-size="10.00">dem/dem_solver_parameters.h</text>
</a>
</g>
</g>
<!-- Node1&#45;&gt;Node2 -->
<g id="edge1_Node000001_Node000002" class="edge">
<title>Node1&#45;&gt;Node2</title>
<g id="a_edge1_Node000001_Node000002"><a xlink:title=" ">
<path fill="none" stroke="#63b8ff" d="M2369.81,-464.97C2116.87,-464.41 1320.65,-459 663,-415 646.53,-413.9 628.94,-412.32 612.15,-410.61"/>
<polygon fill="#63b8ff" stroke="#63b8ff" points="612.12,-407.09 601.81,-409.53 611.4,-414.05 612.12,-407.09"/>
</a>
</g>
</g>
<!-- Node21 -->
<g id="Node000021" class="node">
<title>Node21</title>
<g id="a_Node000021"><a xlink:title=" ">
<polygon fill="#e0e0e0" stroke="#999999" points="2249.5,-30 2118.5,-30 2118.5,0 2249.5,0 2249.5,-30"/>
<text text-anchor="start" x="2126.5" y="-18" font-family="Helvetica,sans-Serif" font-size="10.00">deal.II/particles/particle</text>
<text text-anchor="middle" x="2184" y="-7" font-family="Helvetica,sans-Serif" font-size="10.00">_iterator.h</text>
</a>
</g>
</g>
<!-- Node1&#45;&gt;Node21 -->
<g id="edge57_Node000001_Node000021" class="edge">
<title>Node1&#45;&gt;Node21</title>
<g id="a_edge57_Node000001_Node000021"><a xlink:title=" ">
<path fill="none" stroke="#63b8ff" d="M2399.51,-450.96C2377.51,-443.06 2352.65,-431.42 2334,-415 2303.04,-387.75 2287,-376.24 2287,-335 2287,-335 2287,-335 2287,-146 2287,-107.19 2276.24,-96.31 2252,-66 2242.57,-54.21 2229.72,-43.82 2217.73,-35.6"/>
<polygon fill="#63b8ff" stroke="#63b8ff" points="2219.5,-32.57 2209.21,-30.01 2215.66,-38.42 2219.5,-32.57"/>
</a>
</g>
</g>
<!-- Node22 -->
<g id="Node000022" class="node">
<title>Node22</title>
<g id="a_Node000022"><a xlink:title=" ">
<polygon fill="#e0e0e0" stroke="#999999" points="2372.5,-30 2267.5,-30 2267.5,0 2372.5,0 2372.5,-30"/>
<text text-anchor="start" x="2275.5" y="-18" font-family="Helvetica,sans-Serif" font-size="10.00">boost/archive/text</text>
<text text-anchor="middle" x="2320" y="-7" font-family="Helvetica,sans-Serif" font-size="10.00">_iarchive.hpp</text>
</a>
</g>
</g>
<!-- Node1&#45;&gt;Node22 -->
<g id="edge58_Node000001_Node000022" class="edge">
<title>Node1&#45;&gt;Node22</title>
<g id="a_edge58_Node000001_Node000022"><a xlink:title=" ">
<path fill="none" stroke="#63b8ff" d="M2415.47,-450.94C2397.92,-442.6 2377.47,-430.57 2363,-415 2336.2,-386.17 2325,-374.36 2325,-335 2325,-335 2325,-335 2325,-146 2325,-109.04 2322.96,-66.22 2321.48,-40.13"/>
<polygon fill="#63b8ff" stroke="#63b8ff" points="2324.97,-39.82 2320.89,-30.04 2317.98,-40.22 2324.97,-39.82"/>
</a>
</g>
</g>
<!-- Node23 -->
<g id="Node000023" class="node">
<title>Node23</title>
<g id="a_Node000023"><a xlink:title=" ">
<polygon fill="#e0e0e0" stroke="#999999" points="2495.5,-30 2390.5,-30 2390.5,0 2495.5,0 2495.5,-30"/>
<text text-anchor="start" x="2398.5" y="-18" font-family="Helvetica,sans-Serif" font-size="10.00">boost/archive/text</text>
<text text-anchor="middle" x="2443" y="-7" font-family="Helvetica,sans-Serif" font-size="10.00">_oarchive.hpp</text>
</a>
</g>
</g>
<!-- Node1&#45;&gt;Node23 -->
<g id="edge59_Node000001_Node000023" class="edge">
<title>Node1&#45;&gt;Node23</title>
<g id="a_edge59_Node000001_Node000023"><a xlink:title=" ">
<path fill="none" stroke="#63b8ff" d="M2423.48,-450.86C2409.39,-442.29 2393.12,-430.09 2383,-415 2362.58,-384.56 2363,-371.65 2363,-335 2363,-335 2363,-335 2363,-146 2363,-102.48 2395.92,-61.3 2419.53,-37.36"/>
<polygon fill="#63b8ff" stroke="#63b8ff" points="2422.12,-39.72 2426.81,-30.22 2417.22,-34.72 2422.12,-39.72"/>
</a>
</g>
</g>
<!-- Node44 -->
<g id="Node000044" class="node">
<title>Node44</title>
<g id="a_Node000044"><a xlink:href="distributions_8h.html" target="_top" xlink:title=" ">
<polygon fill="white" stroke="#666666" points="783.5,-409.5 672.5,-409.5 672.5,-390.5 783.5,-390.5 783.5,-409.5"/>
<text text-anchor="middle" x="728" y="-397.5" font-family="Helvetica,sans-Serif" font-size="10.00">dem/distributions.h</text>
</a>
</g>
</g>
<!-- Node1&#45;&gt;Node44 -->
<g id="edge48_Node000001_Node000044" class="edge">
<title>Node1&#45;&gt;Node44</title>
<g id="a_edge48_Node000001_Node000044"><a xlink:title=" ">
<path fill="none" stroke="#63b8ff" d="M2369.92,-461.99C2075.07,-451.04 1063.07,-413.45 794.09,-403.46"/>
<polygon fill="#63b8ff" stroke="#63b8ff" points="793.84,-399.94 783.71,-403.07 793.58,-406.94 793.84,-399.94"/>
</a>
</g>
</g>
<!-- Node46 -->
<g id="Node000046" class="node">
<title>Node46</title>
<g id="a_Node000046"><a xlink:title=" ">
<polygon fill="#e0e0e0" stroke="#999999" points="2510.5,-415 2391.5,-415 2391.5,-385 2510.5,-385 2510.5,-415"/>
<text text-anchor="start" x="2399.5" y="-403" font-family="Helvetica,sans-Serif" font-size="10.00">deal.II/base/data_out</text>
<text text-anchor="middle" x="2451" y="-392" font-family="Helvetica,sans-Serif" font-size="10.00">_base.h</text>
</a>
</g>
</g>
<!-- Node1&#45;&gt;Node46 -->
<g id="edge51_Node000001_Node000046" class="edge">
<title>Node1&#45;&gt;Node46</title>
<g id="a_edge51_Node000001_Node000046"><a xlink:title=" ">
<path fill="none" stroke="#63b8ff" d="M2451,-450.8C2451,-443.34 2451,-433.99 2451,-425.41"/>
<polygon fill="#63b8ff" stroke="#63b8ff" points="2454.5,-425.16 2451,-415.16 2447.5,-425.16 2454.5,-425.16"/>
</a>
</g>
</g>
<!-- Node47 -->
<g id="Node000047" class="node">
<title>Node47</title>
<g id="a_Node000047"><a xlink:title=" ">
<polygon fill="#e0e0e0" stroke="#999999" points="2631,-415 2529,-415 2529,-385 2631,-385 2631,-415"/>
<text text-anchor="start" x="2537" y="-403" font-family="Helvetica,sans-Serif" font-size="10.00">deal.II/distributed</text>
<text text-anchor="middle" x="2580" y="-392" font-family="Helvetica,sans-Serif" font-size="10.00">/tria.h</text>
</a>
</g>
</g>
<!-- Node1&#45;&gt;Node47 -->
<g id="edge52_Node000001_Node000047" class="edge">
<title>Node1&#45;&gt;Node47</title>
<g id="a_edge52_Node000001_Node000047"><a xlink:title=" ">
<path fill="none" stroke="#63b8ff" d="M2479.31,-450.95C2497.88,-441.74 2522.36,-429.6 2542.54,-419.59"/>
<polygon fill="#63b8ff" stroke="#63b8ff" points="2544.35,-422.59 2551.76,-415.01 2541.24,-416.32 2544.35,-422.59"/>
</a>
</g>
</g>
<!-- Node48 -->
<g id="Node000048" class="node">
<title>Node48</title>
<g id="a_Node000048"><a xlink:title=" ">
<polygon fill="#e0e0e0" stroke="#999999" points="2755,-415 2649,-415 2649,-385 2755,-385 2755,-415"/>
<text text-anchor="start" x="2657" y="-403" font-family="Helvetica,sans-Serif" font-size="10.00">deal.II/grid/filtered</text>
<text text-anchor="middle" x="2702" y="-392" font-family="Helvetica,sans-Serif" font-size="10.00">_iterator.h</text>
</a>
</g>
</g>
<!-- Node1&#45;&gt;Node48 -->
<g id="edge53_Node000001_Node000048" class="edge">
<title>Node1&#45;&gt;Node48</title>
<g id="a_edge53_Node000001_Node000048"><a xlink:title=" ">
<path fill="none" stroke="#63b8ff" d="M2506.08,-450.95C2545.28,-440.96 2598.02,-427.51 2638.91,-417.09"/>
<polygon fill="#63b8ff" stroke="#63b8ff" points="2639.94,-420.44 2648.77,-414.57 2638.21,-413.65 2639.94,-420.44"/>
</a>
</g>
</g>
<!-- Node49 -->
<g id="Node000049" class="node">
<title>Node49</title>
<g id="a_Node000049"><a xlink:title=" ">
<polygon fill="#e0e0e0" stroke="#999999" points="2924.5,-409.5 2773.5,-409.5 2773.5,-390.5 2924.5,-390.5 2924.5,-409.5"/>
<text text-anchor="middle" x="2849" y="-397.5" font-family="Helvetica,sans-Serif" font-size="10.00">deal.II/grid/grid_generator.h</text>
</a>
</g>
</g>
<!-- Node1&#45;&gt;Node49 -->
<g id="edge54_Node000001_Node000049" class="edge">
<title>Node1&#45;&gt;Node49</title>
<g id="a_edge54_Node000001_Node000049"><a xlink:title=" ">
<path fill="none" stroke="#63b8ff" d="M2532.08,-452.16C2595.28,-442.12 2685.24,-427.78 2764,-415 2771.58,-413.77 2779.53,-412.47 2787.41,-411.18"/>
<polygon fill="#63b8ff" stroke="#63b8ff" points="2788.01,-414.63 2797.31,-409.55 2786.88,-407.72 2788.01,-414.63"/>
</a>
</g>
</g>
<!-- Node50 -->
<g id="Node000050" class="node">
<title>Node50</title>
<g id="a_Node000050"><a xlink:title=" ">
<polygon fill="#e0e0e0" stroke="#999999" points="3071,-409.5 2943,-409.5 2943,-390.5 3071,-390.5 3071,-409.5"/>
<text text-anchor="middle" x="3007" y="-397.5" font-family="Helvetica,sans-Serif" font-size="10.00">deal.II/grid/grid_tools.h</text>
</a>
</g>
</g>
<!-- Node1&#45;&gt;Node50 -->
<g id="edge55_Node000001_Node000050" class="edge">
<title>Node1&#45;&gt;Node50</title>
<g id="a_edge55_Node000001_Node000050"><a xlink:title=" ">
<path fill="none" stroke="#63b8ff" d="M2532.03,-458.76C2628.19,-450.86 2793.26,-435.74 2934,-415 2941.11,-413.95 2948.58,-412.7 2955.92,-411.38"/>
<polygon fill="#63b8ff" stroke="#63b8ff" points="2956.6,-414.81 2965.8,-409.55 2955.33,-407.93 2956.6,-414.81"/>
</a>
</g>
</g>
<!-- Node51 -->
<g id="Node000051" class="node">
<title>Node51</title>
<g id="a_Node000051"><a xlink:title=" ">
<polygon fill="#e0e0e0" stroke="#999999" points="3220.5,-415 3089.5,-415 3089.5,-385 3220.5,-385 3220.5,-415"/>
<text text-anchor="start" x="3097.5" y="-403" font-family="Helvetica,sans-Serif" font-size="10.00">deal.II/particles/particle</text>
<text text-anchor="middle" x="3155" y="-392" font-family="Helvetica,sans-Serif" font-size="10.00">_handler.h</text>
</a>
</g>
</g>
<!-- Node1&#45;&gt;Node51 -->
<g id="edge56_Node000001_Node000051" class="edge">
<title>Node1&#45;&gt;Node51</title>
<g id="a_edge56_Node000001_Node000051"><a xlink:title=" ">
<path fill="none" stroke="#63b8ff" d="M2532.21,-461.28C2650.39,-455.26 2876.81,-441.43 3079.28,-414.99"/>
<polygon fill="#63b8ff" stroke="#63b8ff" points="3079.76,-418.46 3089.21,-413.69 3078.84,-411.52 3079.76,-418.46"/>
</a>
</g>
</g>
<!-- Node3 -->
<g id="Node000003" class="node">
<title>Node3</title>
<g id="a_Node000003"><a xlink:href="parameters_8h.html" target="_top" xlink:title=" ">
<polygon fill="white" stroke="#666666" points="480,-283 374,-283 374,-264 480,-264 480,-283"/>
<text text-anchor="middle" x="427" y="-271" font-family="Helvetica,sans-Serif" font-size="10.00">core/parameters.h</text>
</a>
</g>
</g>
<!-- Node2&#45;&gt;Node3 -->
<g id="edge2_Node000002_Node000003" class="edge">
<title>Node2&#45;&gt;Node3</title>
<g id="a_edge2_Node000002_Node000003"><a xlink:title=" ">
<path fill="none" stroke="#63b8ff" d="M519.44,-390.22C507.5,-380.81 488.72,-365.05 475,-349 459.75,-331.15 445.63,-308.12 436.7,-292.41"/>
<polygon fill="#63b8ff" stroke="#63b8ff" points="439.55,-290.33 431.63,-283.28 433.43,-293.73 439.55,-290.33"/>
</a>
</g>
</g>
<!-- Node42 -->
<g id="Node000042" class="node">
<title>Node42</title>
<g id="a_Node000042"><a xlink:href="parameters__lagrangian_8h.html" target="_top" xlink:title="Parameter structures for Lagrangian (DEM) particle simulations.">
<polygon fill="white" stroke="#666666" points="647.5,-343.5 484.5,-343.5 484.5,-324.5 647.5,-324.5 647.5,-343.5"/>
<text text-anchor="middle" x="566" y="-331.5" font-family="Helvetica,sans-Serif" font-size="10.00">core/parameters_lagrangian.h</text>
</a>
</g>
</g>
<!-- Node2&#45;&gt;Node42 -->
<g id="edge40_Node000002_Node000042" class="edge">
<title>Node2&#45;&gt;Node42</title>
<g id="a_edge40_Node000002_Node000042"><a xlink:title=" ">
<path fill="none" stroke="#63b8ff" d="M535.72,-390.37C540.96,-380.78 549.57,-365.05 556.27,-352.8"/>
<polygon fill="#63b8ff" stroke="#63b8ff" points="559.4,-354.36 561.13,-343.91 553.26,-351 559.4,-354.36"/>
</a>
</g>
</g>
<!-- Node43 -->
<g id="Node000043" class="node">
<title>Node43</title>
<g id="a_Node000043"><a xlink:href="solid__objects__parameters_8h.html" target="_top" xlink:title="Parameter classes for solid objects used in Nitsche immersed boundary and DEM simulations.">
<polygon fill="white" stroke="#666666" points="301,-349 197,-349 197,-319 301,-319 301,-349"/>
<text text-anchor="start" x="205" y="-337" font-family="Helvetica,sans-Serif" font-size="10.00">core/solid_objects</text>
<text text-anchor="middle" x="249" y="-326" font-family="Helvetica,sans-Serif" font-size="10.00">_parameters.h</text>
</a>
</g>
</g>
<!-- Node2&#45;&gt;Node43 -->
<g id="edge44_Node000002_Node000043" class="edge">
<title>Node2&#45;&gt;Node43</title>
<g id="a_edge44_Node000002_Node000043"><a xlink:title=" ">
<path fill="none" stroke="#63b8ff" d="M493.26,-390.44C446.61,-379.85 366.57,-361.68 310.88,-349.04"/>
<polygon fill="#63b8ff" stroke="#63b8ff" points="311.66,-345.63 301.13,-346.83 310.11,-352.46 311.66,-345.63"/>
</a>
</g>
</g>
<!-- Node4 -->
<g id="Node000004" class="node">
<title>Node4</title>
<g id="a_Node000004"><a xlink:href="dimensionality_8h.html" target="_top" xlink:title=" ">
<polygon fill="white" stroke="#666666" points="149.5,-156.5 28.5,-156.5 28.5,-137.5 149.5,-137.5 149.5,-156.5"/>
<text text-anchor="middle" x="89" y="-144.5" font-family="Helvetica,sans-Serif" font-size="10.00">core/dimensionality.h</text>
</a>
</g>
</g>
<!-- Node3&#45;&gt;Node4 -->
<g id="edge3_Node000003_Node000004" class="edge">
<title>Node3&#45;&gt;Node4</title>
<g id="a_edge3_Node000003_Node000004"><a xlink:title=" ">
<path fill="none" stroke="#63b8ff" d="M373.91,-273.27C318.4,-271.93 230.3,-263.59 164,-228 136.16,-213.06 112.9,-183.87 99.98,-165.18"/>
<polygon fill="#63b8ff" stroke="#63b8ff" points="102.8,-163.11 94.34,-156.73 96.98,-166.99 102.8,-163.11"/>
</a>
</g>
</g>
<!-- Node5 -->
<g id="Node000005" class="node">
<title>Node5</title>
<g id="a_Node000005"><a xlink:title=" ">
<polygon fill="#e0e0e0" stroke="#999999" points="241.5,-30 114.5,-30 114.5,0 241.5,0 241.5,-30"/>
<text text-anchor="start" x="122.5" y="-18" font-family="Helvetica,sans-Serif" font-size="10.00">deal.II/base/parameter</text>
<text text-anchor="middle" x="178" y="-7" font-family="Helvetica,sans-Serif" font-size="10.00">_handler.h</text>
</a>
</g>
</g>
<!-- Node3&#45;&gt;Node5 -->
<g id="edge37_Node000003_Node000005" class="edge">
<title>Node3&#45;&gt;Node5</title>
<g id="a_edge37_Node000003_Node000005"><a xlink:title=" ">
<path fill="none" stroke="#63b8ff" d="M373.88,-269.45C313.44,-264.8 220.1,-253.58 197,-228 149.74,-175.67 162.38,-83.56 171.88,-40.05"/>
<polygon fill="#63b8ff" stroke="#63b8ff" points="175.34,-40.62 174.19,-30.09 168.52,-39.04 175.34,-40.62"/>
</a>
</g>
</g>
<!-- Node6 -->
<g id="Node000006" class="node">
<title>Node6</title>
<g id="a_Node000006"><a xlink:href="ib__particle_8h.html" target="_top" xlink:title=" ">
<polygon fill="white" stroke="#666666" points="695.5,-222.5 594.5,-222.5 594.5,-203.5 695.5,-203.5 695.5,-222.5"/>
<text text-anchor="middle" x="645" y="-210.5" font-family="Helvetica,sans-Serif" font-size="10.00">core/ib_particle.h</text>
</a>
</g>
</g>
<!-- Node3&#45;&gt;Node6 -->
<g id="edge5_Node000003_Node000006" class="edge">
<title>Node3&#45;&gt;Node6</title>
<g id="a_edge5_Node000003_Node000006"><a xlink:title=" ">
<path fill="none" stroke="#63b8ff" d="M458.7,-263.99C496.96,-253.73 561.41,-236.43 603.58,-225.12"/>
<polygon fill="#63b8ff" stroke="#63b8ff" points="604.51,-228.49 613.26,-222.52 602.7,-221.73 604.51,-228.49"/>
</a>
</g>
</g>
<!-- Node14 -->
<g id="Node000014" class="node">
<title>Node14</title>
<g id="a_Node000014"><a xlink:href="core_2utilities_8h.html" target="_top" xlink:title=" ">
<polygon fill="#fff0f0" stroke="red" points="2221,-90.5 2135,-90.5 2135,-71.5 2221,-71.5 2221,-90.5"/>
<text text-anchor="middle" x="2178" y="-78.5" font-family="Helvetica,sans-Serif" font-size="10.00">core/utilities.h</text>
</a>
</g>
</g>
<!-- Node3&#45;&gt;Node14 -->
<g id="edge36_Node000003_Node000014" class="edge">
<title>Node3&#45;&gt;Node14</title>
<g id="a_edge36_Node000003_Node000014"><a xlink:title=" ">
<path fill="none" stroke="#63b8ff" d="M480.02,-267.2C637.31,-251.44 1114.96,-203.44 1511,-162 1784.41,-133.39 1855.79,-146.55 2126,-96 2130.46,-95.17 2135.1,-94.14 2139.69,-93.04"/>
<polygon fill="#63b8ff" stroke="#63b8ff" points="2140.75,-96.38 2149.58,-90.51 2139.02,-89.59 2140.75,-96.38"/>
</a>
</g>
</g>
<!-- Node39 -->
<g id="Node000039" class="node">
<title>Node39</title>
<g id="a_Node000039"><a xlink:title=" ">
<polygon fill="#e0e0e0" stroke="#999999" points="315.5,-162 206.5,-162 206.5,-132 315.5,-132 315.5,-162"/>
<text text-anchor="start" x="214.5" y="-150" font-family="Helvetica,sans-Serif" font-size="10.00">deal.II/base/parsed</text>
<text text-anchor="middle" x="261" y="-139" font-family="Helvetica,sans-Serif" font-size="10.00">_function.h</text>
</a>
</g>
</g>
<!-- Node3&#45;&gt;Node39 -->
<g id="edge38_Node000003_Node000039" class="edge">
<title>Node3&#45;&gt;Node39</title>
<g id="a_edge38_Node000003_Node000039"><a xlink:title=" ">
<path fill="none" stroke="#63b8ff" d="M458.42,-263.97C476.34,-257.32 497.3,-246.09 508,-228 514.79,-216.52 516.44,-208.32 508,-198 456.9,-135.53 409.11,-178.02 330,-162 328.54,-161.7 327.06,-161.4 325.57,-161.1"/>
<polygon fill="#63b8ff" stroke="#63b8ff" points="326.11,-157.64 315.61,-159.08 324.72,-164.5 326.11,-157.64"/>
</a>
</g>
</g>
<!-- Node40 -->
<g id="Node000040" class="node">
<title>Node40</title>
<g id="a_Node000040"><a xlink:href="multiphysics_8h.html" target="_top" xlink:title="Identifiers for multiphysics modules and their solution fields.">
<polygon fill="white" stroke="#666666" points="318,-222.5 206,-222.5 206,-203.5 318,-203.5 318,-222.5"/>
<text text-anchor="middle" x="262" y="-210.5" font-family="Helvetica,sans-Serif" font-size="10.00">core/multiphysics.h</text>
</a>
</g>
</g>
<!-- Node3&#45;&gt;Node40 -->
<g id="edge35_Node000003_Node000040" class="edge">
<title>Node3&#45;&gt;Node40</title>
<g id="a_edge35_Node000003_Node000040"><a xlink:title=" ">
<path fill="none" stroke="#63b8ff" d="M403.01,-263.99C374.78,-253.99 327.72,-237.3 295.81,-225.99"/>
<polygon fill="#63b8ff" stroke="#63b8ff" points="296.62,-222.56 286.02,-222.52 294.28,-229.16 296.62,-222.56"/>
</a>
</g>
</g>
<!-- Node41 -->
<g id="Node000041" class="node">
<title>Node41</title>
<g id="a_Node000041"><a xlink:title=" ">
<polygon fill="#e0e0e0" stroke="#999999" points="499.5,-228 336.5,-228 336.5,-198 499.5,-198 499.5,-228"/>
<text text-anchor="start" x="344.5" y="-216" font-family="Helvetica,sans-Serif" font-size="10.00">deal.II/multigrid/mg</text>
<text text-anchor="middle" x="418" y="-205" font-family="Helvetica,sans-Serif" font-size="10.00">_transfer_global_coarsening.h</text>
</a>
</g>
</g>
<!-- Node3&#45;&gt;Node41 -->
<g id="edge39_Node000003_Node000041" class="edge">
<title>Node3&#45;&gt;Node41</title>
<g id="a_edge39_Node000003_Node000041"><a xlink:title=" ">
<path fill="none" stroke="#63b8ff" d="M425.67,-263.87C424.63,-257.11 423.13,-247.35 421.73,-238.26"/>
<polygon fill="#63b8ff" stroke="#63b8ff" points="425.15,-237.47 420.17,-228.11 418.23,-238.53 425.15,-237.47"/>
</a>
</g>
</g>
<!-- Node4&#45;&gt;Node5 -->
<g id="edge4_Node000004_Node000005" class="edge">
<title>Node4&#45;&gt;Node5</title>
<g id="a_edge4_Node000004_Node000005"><a xlink:title=" ">
<path fill="none" stroke="#63b8ff" d="M94.84,-137.47C108.44,-117.61 142.58,-67.74 162.64,-38.44"/>
<polygon fill="#63b8ff" stroke="#63b8ff" points="165.61,-40.3 168.37,-30.07 159.83,-36.34 165.61,-40.3"/>
</a>
</g>
</g>
<!-- Node7 -->
<g id="Node000007" class="node">
<title>Node7</title>
<g id="a_Node000007"><a xlink:href="dem__properties_8h.html" target="_top" xlink:title="DEM particle property definitions and output name management.">
<polygon fill="white" stroke="#666666" points="2117,-90.5 1991,-90.5 1991,-71.5 2117,-71.5 2117,-90.5"/>
<text text-anchor="middle" x="2054" y="-78.5" font-family="Helvetica,sans-Serif" font-size="10.00">core/dem_properties.h</text>
</a>
</g>
</g>
<!-- Node6&#45;&gt;Node7 -->
<g id="edge6_Node000006_Node000007" class="edge">
<title>Node6&#45;&gt;Node7</title>
<g id="a_edge6_Node000006_Node000007"><a xlink:title=" ">
<path fill="none" stroke="#63b8ff" d="M695.58,-208.96C871.56,-198.06 1473.27,-158.35 1967,-96 1976.03,-94.86 1985.56,-93.49 1994.87,-92.07"/>
<polygon fill="#63b8ff" stroke="#63b8ff" points="1995.51,-95.51 2004.85,-90.51 1994.43,-88.59 1995.51,-95.51"/>
</a>
</g>
</g>
<!-- Node9 -->
<g id="Node000009" class="node">
<title>Node9</title>
<g id="a_Node000009"><a xlink:title=" ">
<polygon fill="#e0e0e0" stroke="#999999" points="1879.5,-24.5 1832.5,-24.5 1832.5,-5.5 1879.5,-5.5 1879.5,-24.5"/>
<text text-anchor="middle" x="1856" y="-12.5" font-family="Helvetica,sans-Serif" font-size="10.00">vector</text>
</a>
</g>
</g>
<!-- Node6&#45;&gt;Node9 -->
<g id="edge34_Node000006_Node000009" class="edge">
<title>Node6&#45;&gt;Node9</title>
<g id="a_edge34_Node000006_Node000009"><a xlink:title=" ">
<path fill="none" stroke="#63b8ff" d="M612.09,-203.46C539.7,-183.24 377.81,-129.39 439,-66 488.57,-14.65 1611.74,-15.31 1822.19,-15.88"/>
<polygon fill="#63b8ff" stroke="#63b8ff" points="1822.32,-19.38 1832.33,-15.91 1822.34,-12.38 1822.32,-19.38"/>
</a>
</g>
</g>
<!-- Node10 -->
<g id="Node000010" class="node">
<title>Node10</title>
<g id="a_Node000010"><a xlink:href="shape_8h.html" target="_top" xlink:title=" ">
<polygon fill="white" stroke="#666666" points="1240.5,-156.5 1161.5,-156.5 1161.5,-137.5 1240.5,-137.5 1240.5,-156.5"/>
<text text-anchor="middle" x="1201" y="-144.5" font-family="Helvetica,sans-Serif" font-size="10.00">core/shape.h</text>
</a>
</g>
</g>
<!-- Node6&#45;&gt;Node10 -->
<g id="edge9_Node000006_Node000010" class="edge">
<title>Node6&#45;&gt;Node10</title>
<g id="a_edge9_Node000006_Node000010"><a xlink:title=" ">
<path fill="none" stroke="#63b8ff" d="M695.82,-206.15C801.92,-193.94 1045.9,-165.85 1151.16,-153.74"/>
<polygon fill="#63b8ff" stroke="#63b8ff" points="1151.67,-157.2 1161.2,-152.58 1150.87,-150.25 1151.67,-157.2"/>
</a>
</g>
</g>
<!-- Node12 -->
<g id="Node000012" class="node">
<title>Node12</title>
<g id="a_Node000012"><a xlink:title=" ">
<polygon fill="#e0e0e0" stroke="#999999" points="717,-24.5 607,-24.5 607,-5.5 717,-5.5 717,-24.5"/>
<text text-anchor="middle" x="662" y="-12.5" font-family="Helvetica,sans-Serif" font-size="10.00">deal.II/base/point.h</text>
</a>
</g>
</g>
<!-- Node6&#45;&gt;Node12 -->
<g id="edge33_Node000006_Node000012" class="edge">
<title>Node6&#45;&gt;Node12</title>
<g id="a_edge33_Node000006_Node000012"><a xlink:title=" ">
<path fill="none" stroke="#63b8ff" d="M605.48,-203.43C597.07,-201.63 588.24,-199.74 580,-198 502.73,-181.69 455.86,-223.24 406,-162 379.06,-128.91 378.88,-98.93 406,-66 429.72,-37.2 528.98,-24.76 596.7,-19.55"/>
<polygon fill="#63b8ff" stroke="#63b8ff" points="597.15,-23.03 606.86,-18.8 596.64,-16.05 597.15,-23.03"/>
</a>
</g>
</g>
<!-- Node6&#45;&gt;Node39 -->
<g id="edge32_Node000006_Node000039" class="edge">
<title>Node6&#45;&gt;Node39</title>
<g id="a_edge32_Node000006_Node000039"><a xlink:title=" ">
<path fill="none" stroke="#63b8ff" d="M594.4,-203.57C525.31,-192.05 401.39,-171.4 325.64,-158.77"/>
<polygon fill="#63b8ff" stroke="#63b8ff" points="326.18,-155.32 315.74,-157.12 325.03,-162.22 326.18,-155.32"/>
</a>
</g>
</g>
<!-- Node8 -->
<g id="Node000008" class="node">
<title>Node8</title>
<g id="a_Node000008"><a xlink:title=" ">
<polygon fill="#e0e0e0" stroke="#999999" points="2100,-24.5 2056,-24.5 2056,-5.5 2100,-5.5 2100,-24.5"/>
<text text-anchor="middle" x="2078" y="-12.5" font-family="Helvetica,sans-Serif" font-size="10.00">string</text>
</a>
</g>
</g>
<!-- Node7&#45;&gt;Node8 -->
<g id="edge7_Node000007_Node000008" class="edge">
<title>Node7&#45;&gt;Node8</title>
<g id="a_edge7_Node000007_Node000008"><a xlink:title=" ">
<path fill="none" stroke="#63b8ff" d="M2057.24,-71.37C2060.76,-61.97 2066.5,-46.67 2071.05,-34.53"/>
<polygon fill="#63b8ff" stroke="#63b8ff" points="2074.43,-35.5 2074.66,-24.91 2067.87,-33.04 2074.43,-35.5"/>
</a>
</g>
</g>
<!-- Node7&#45;&gt;Node9 -->
<g id="edge8_Node000007_Node000009" class="edge">
<title>Node7&#45;&gt;Node9</title>
<g id="a_edge8_Node000007_Node000009"><a xlink:title=" ">
<path fill="none" stroke="#63b8ff" d="M2022.35,-71.5C1988.89,-62.25 1934.73,-46.57 1889,-30 1887.61,-29.5 1886.19,-28.97 1884.77,-28.42"/>
<polygon fill="#63b8ff" stroke="#63b8ff" points="1885.99,-25.14 1875.41,-24.64 1883.37,-31.63 1885.99,-25.14"/>
</a>
</g>
</g>
<!-- Node11 -->
<g id="Node000011" class="node">
<title>Node11</title>
<g id="a_Node000011"><a xlink:href="tensors__and__points__dimension__manipulation_8h.html" target="_top" xlink:title=" ">
<polygon fill="#fff0f0" stroke="red" points="738,-96 586,-96 586,-66 738,-66 738,-96"/>
<text text-anchor="start" x="594" y="-84" font-family="Helvetica,sans-Serif" font-size="10.00">core/tensors_and_points</text>
<text text-anchor="middle" x="662" y="-73" font-family="Helvetica,sans-Serif" font-size="10.00">_dimension_manipulation.h</text>
</a>
</g>
</g>
<!-- Node10&#45;&gt;Node11 -->
<g id="edge10_Node000010_Node000011" class="edge">
<title>Node10&#45;&gt;Node11</title>
<g id="a_edge10_Node000010_Node000011"><a xlink:title=" ">
<path fill="none" stroke="#63b8ff" d="M1161.44,-142.36C1084.1,-135.1 907.25,-117.71 748.38,-96.15"/>
<polygon fill="#63b8ff" stroke="#63b8ff" points="748.81,-92.67 738.43,-94.79 747.86,-99.61 748.81,-92.67"/>
</a>
</g>
</g>
<!-- Node10&#45;&gt;Node14 -->
<g id="edge12_Node000010_Node000014" class="edge">
<title>Node10&#45;&gt;Node14</title>
<g id="a_edge12_Node000010_Node000014"><a xlink:title=" ">
<path fill="none" stroke="#63b8ff" d="M1240.63,-144.96C1394.37,-140.76 1951.41,-123.91 2126,-96 2130.77,-95.24 2135.73,-94.21 2140.61,-93.06"/>
<polygon fill="#63b8ff" stroke="#63b8ff" points="2141.6,-96.42 2150.44,-90.57 2139.88,-89.64 2141.6,-96.42"/>
</a>
</g>
</g>
<!-- Node19 -->
<g id="Node000019" class="node">
<title>Node19</title>
<g id="a_Node000019"><a xlink:title=" ">
<polygon fill="#e0e0e0" stroke="#999999" points="2038,-24.5 1898,-24.5 1898,-5.5 2038,-5.5 2038,-24.5"/>
<text text-anchor="middle" x="1968" y="-12.5" font-family="Helvetica,sans-Serif" font-size="10.00">deal.II/dofs/dof_handler.h</text>
</a>
</g>
</g>
<!-- Node10&#45;&gt;Node19 -->
<g id="edge27_Node000010_Node000019" class="edge">
<title>Node10&#45;&gt;Node19</title>
<g id="a_edge27_Node000010_Node000019"><a xlink:title=" ">
<path fill="none" stroke="#63b8ff" d="M1240.57,-144.58C1390.46,-139.04 1916.28,-118.11 1944,-96 1962.3,-81.41 1967.06,-53.41 1968.09,-34.72"/>
<polygon fill="#63b8ff" stroke="#63b8ff" points="1971.58,-34.8 1968.33,-24.72 1964.59,-34.63 1971.58,-34.8"/>
</a>
</g>
</g>
<!-- Node29 -->
<g id="Node000029" class="node">
<title>Node29</title>
<g id="a_Node000029"><a xlink:title=" ">
<polygon fill="#e0e0e0" stroke="#999999" points="908,-96 756,-96 756,-66 908,-66 908,-96"/>
<text text-anchor="start" x="764" y="-84" font-family="Helvetica,sans-Serif" font-size="10.00">deal.II/base/auto_derivative</text>
<text text-anchor="middle" x="832" y="-73" font-family="Helvetica,sans-Serif" font-size="10.00">_function.h</text>
</a>
</g>
</g>
<!-- Node10&#45;&gt;Node29 -->
<g id="edge21_Node000010_Node000029" class="edge">
<title>Node10&#45;&gt;Node29</title>
<g id="a_edge21_Node000010_Node000029"><a xlink:title=" ">
<path fill="none" stroke="#63b8ff" d="M1161.16,-139.09C1103.37,-129.07 994.85,-110.25 918.24,-96.96"/>
<polygon fill="#63b8ff" stroke="#63b8ff" points="918.58,-93.46 908.12,-95.2 917.38,-100.36 918.58,-93.46"/>
</a>
</g>
</g>
<!-- Node30 -->
<g id="Node000030" class="node">
<title>Node30</title>
<g id="a_Node000030"><a xlink:title=" ">
<polygon fill="#e0e0e0" stroke="#999999" points="1051.5,-90.5 926.5,-90.5 926.5,-71.5 1051.5,-71.5 1051.5,-90.5"/>
<text text-anchor="middle" x="989" y="-78.5" font-family="Helvetica,sans-Serif" font-size="10.00">deal.II/base/function.h</text>
</a>
</g>
</g>
<!-- Node10&#45;&gt;Node30 -->
<g id="edge22_Node000010_Node000030" class="edge">
<title>Node10&#45;&gt;Node30</title>
<g id="a_edge22_Node000010_Node000030"><a xlink:title=" ">
<path fill="none" stroke="#63b8ff" d="M1172.41,-137.37C1134.92,-126.05 1069.04,-106.16 1027.28,-93.56"/>
<polygon fill="#63b8ff" stroke="#63b8ff" points="1028.06,-90.14 1017.48,-90.6 1026.04,-96.84 1028.06,-90.14"/>
</a>
</g>
</g>
<!-- Node31 -->
<g id="Node000031" class="node">
<title>Node31</title>
<g id="a_Node000031"><a xlink:title=" ">
<polygon fill="#e0e0e0" stroke="#999999" points="1194,-90.5 1070,-90.5 1070,-71.5 1194,-71.5 1194,-90.5"/>
<text text-anchor="middle" x="1132" y="-78.5" font-family="Helvetica,sans-Serif" font-size="10.00">deal.II/grid/manifold.h</text>
</a>
</g>
</g>
<!-- Node10&#45;&gt;Node31 -->
<g id="edge23_Node000010_Node000031" class="edge">
<title>Node10&#45;&gt;Node31</title>
<g id="a_edge23_Node000010_Node000031"><a xlink:title=" ">
<path fill="none" stroke="#63b8ff" d="M1191.69,-137.37C1180.85,-127.31 1162.7,-110.48 1149.26,-98.01"/>
<polygon fill="#63b8ff" stroke="#63b8ff" points="1151.31,-95.14 1141.6,-90.91 1146.55,-100.27 1151.31,-95.14"/>
</a>
</g>
</g>
<!-- Node32 -->
<g id="Node000032" class="node">
<title>Node32</title>
<g id="a_Node000032"><a xlink:title=" ">
<polygon fill="#e0e0e0" stroke="#999999" points="1327.5,-96 1212.5,-96 1212.5,-66 1327.5,-66 1327.5,-96"/>
<text text-anchor="start" x="1220.5" y="-84" font-family="Helvetica,sans-Serif" font-size="10.00">deal.II/grid/manifold</text>
<text text-anchor="middle" x="1270" y="-73" font-family="Helvetica,sans-Serif" font-size="10.00">_lib.h</text>
</a>
</g>
</g>
<!-- Node10&#45;&gt;Node32 -->
<g id="edge24_Node000010_Node000032" class="edge">
<title>Node10&#45;&gt;Node32</title>
<g id="a_edge24_Node000010_Node000032"><a xlink:title=" ">
<path fill="none" stroke="#63b8ff" d="M1210.31,-137.37C1219.75,-128.61 1234.73,-114.71 1247.32,-103.04"/>
<polygon fill="#63b8ff" stroke="#63b8ff" points="1249.83,-105.48 1254.78,-96.12 1245.07,-100.35 1249.83,-105.48"/>
</a>
</g>
</g>
<!-- Node33 -->
<g id="Node000033" class="node">
<title>Node33</title>
<g id="a_Node000033"><a xlink:title=" ">
<polygon fill="#e0e0e0" stroke="#999999" points="1460.5,-96 1345.5,-96 1345.5,-66 1460.5,-66 1460.5,-96"/>
<text text-anchor="start" x="1353.5" y="-84" font-family="Helvetica,sans-Serif" font-size="10.00">boost/range/adaptor</text>
<text text-anchor="middle" x="1403" y="-73" font-family="Helvetica,sans-Serif" font-size="10.00">/map.hpp</text>
</a>
</g>
</g>
<!-- Node10&#45;&gt;Node33 -->
<g id="edge25_Node000010_Node000033" class="edge">
<title>Node10&#45;&gt;Node33</title>
<g id="a_edge25_Node000010_Node000033"><a xlink:title=" ">
<path fill="none" stroke="#63b8ff" d="M1228.24,-137.37C1259.02,-127.62 1309.88,-111.5 1348.82,-99.16"/>
<polygon fill="#63b8ff" stroke="#63b8ff" points="1349.97,-102.47 1358.45,-96.12 1347.86,-95.8 1349.97,-102.47"/>
</a>
</g>
</g>
<!-- Node34 -->
<g id="Node000034" class="node">
<title>Node34</title>
<g id="a_Node000034"><a xlink:title=" ">
<polygon fill="#e0e0e0" stroke="#999999" points="1595,-96 1479,-96 1479,-66 1595,-66 1595,-96"/>
<text text-anchor="start" x="1487" y="-84" font-family="Helvetica,sans-Serif" font-size="10.00">deal.II/base/function</text>
<text text-anchor="middle" x="1537" y="-73" font-family="Helvetica,sans-Serif" font-size="10.00">_signed_distance.h</text>
</a>
</g>
</g>
<!-- Node10&#45;&gt;Node34 -->
<g id="edge26_Node000010_Node000034" class="edge">
<title>Node10&#45;&gt;Node34</title>
<g id="a_edge26_Node000010_Node000034"><a xlink:title=" ">
<path fill="none" stroke="#63b8ff" d="M1240.55,-138.86C1290.98,-129.7 1381.14,-113.15 1468.92,-95.99"/>
<polygon fill="#63b8ff" stroke="#63b8ff" points="1469.64,-99.42 1478.78,-94.06 1468.29,-92.55 1469.64,-99.42"/>
</a>
</g>
</g>
<!-- Node35 -->
<g id="Node000035" class="node">
<title>Node35</title>
<g id="a_Node000035"><a xlink:title=" ">
<polygon fill="#e0e0e0" stroke="#999999" points="1741,-90.5 1613,-90.5 1613,-71.5 1741,-71.5 1741,-90.5"/>
<text text-anchor="middle" x="1677" y="-78.5" font-family="Helvetica,sans-Serif" font-size="10.00">deal.II/dofs/dof_tools.h</text>
</a>
</g>
</g>
<!-- Node10&#45;&gt;Node35 -->
<g id="edge28_Node000010_Node000035" class="edge">
<title>Node10&#45;&gt;Node35</title>
<g id="a_edge28_Node000010_Node000035"><a xlink:title=" ">
<path fill="none" stroke="#63b8ff" d="M1240.59,-141.97C1312.95,-134.4 1471.33,-116.93 1604,-96 1610.77,-94.93 1617.86,-93.71 1624.87,-92.43"/>
<polygon fill="#63b8ff" stroke="#63b8ff" points="1625.82,-95.82 1635.01,-90.55 1624.54,-88.93 1625.82,-95.82"/>
</a>
</g>
</g>
<!-- Node36 -->
<g id="Node000036" class="node">
<title>Node36</title>
<g id="a_Node000036"><a xlink:title=" ">
<polygon fill="#e0e0e0" stroke="#999999" points="1935,-90.5 1759,-90.5 1759,-71.5 1935,-71.5 1935,-90.5"/>
<text text-anchor="middle" x="1847" y="-78.5" font-family="Helvetica,sans-Serif" font-size="10.00">deal.II/physics/transformations.h</text>
</a>
</g>
</g>
<!-- Node10&#45;&gt;Node36 -->
<g id="edge29_Node000010_Node000036" class="edge">
<title>Node10&#45;&gt;Node36</title>
<g id="a_edge29_Node000010_Node000036"><a xlink:title=" ">
<path fill="none" stroke="#63b8ff" d="M1240.69,-143.1C1331.18,-136.34 1559.66,-118.39 1750,-96 1760.18,-94.8 1770.94,-93.39 1781.45,-91.94"/>
<polygon fill="#63b8ff" stroke="#63b8ff" points="1782,-95.4 1791.41,-90.53 1781.02,-88.46 1782,-95.4"/>
</a>
</g>
</g>
<!-- Node37 -->
<g id="Node000037" class="node">
<title>Node37</title>
<g id="a_Node000037"><a xlink:title=" ">
<polygon fill="#e0e0e0" stroke="#999999" points="492,-90.5 448,-90.5 448,-71.5 492,-71.5 492,-90.5"/>
<text text-anchor="middle" x="470" y="-78.5" font-family="Helvetica,sans-Serif" font-size="10.00">cfloat</text>
</a>
</g>
</g>
<!-- Node10&#45;&gt;Node37 -->
<g id="edge30_Node000010_Node000037" class="edge">
<title>Node10&#45;&gt;Node37</title>
<g id="a_edge30_Node000010_Node000037"><a xlink:title=" ">
<path fill="none" stroke="#63b8ff" d="M1161.32,-145C1032.57,-141.46 627.53,-128.01 501,-96 499.27,-95.56 497.51,-95.03 495.76,-94.44"/>
<polygon fill="#63b8ff" stroke="#63b8ff" points="496.6,-91 486.02,-90.53 494,-97.5 496.6,-91"/>
</a>
</g>
</g>
<!-- Node38 -->
<g id="Node000038" class="node">
<title>Node38</title>
<g id="a_Node000038"><a xlink:title=" ">
<polygon fill="#e0e0e0" stroke="#999999" points="568,-90.5 510,-90.5 510,-71.5 568,-71.5 568,-90.5"/>
<text text-anchor="middle" x="539" y="-78.5" font-family="Helvetica,sans-Serif" font-size="10.00">memory</text>
</a>
</g>
</g>
<!-- Node10&#45;&gt;Node38 -->
<g id="edge31_Node000010_Node000038" class="edge">
<title>Node10&#45;&gt;Node38</title>
<g id="a_edge31_Node000010_Node000038"><a xlink:title=" ">
<path fill="none" stroke="#63b8ff" d="M1161.39,-146.54C1061.87,-147.1 793.8,-143.68 577,-96 574.32,-95.41 571.58,-94.68 568.86,-93.86"/>
<polygon fill="#63b8ff" stroke="#63b8ff" points="569.8,-90.48 559.2,-90.6 567.56,-97.11 569.8,-90.48"/>
</a>
</g>
</g>
<!-- Node11&#45;&gt;Node12 -->
<g id="edge11_Node000011_Node000012" class="edge">
<title>Node11&#45;&gt;Node12</title>
<g id="a_edge11_Node000011_Node000012"><a xlink:title=" ">
<path fill="none" stroke="#63b8ff" d="M662,-65.8C662,-56.7 662,-44.79 662,-34.9"/>
<polygon fill="#63b8ff" stroke="#63b8ff" points="665.5,-34.84 662,-24.84 658.5,-34.84 665.5,-34.84"/>
</a>
</g>
</g>
<!-- Node14&#45;&gt;Node5 -->
<g id="edge13_Node000014_Node000005" class="edge">
<title>Node14&#45;&gt;Node5</title>
<g id="a_edge13_Node000014_Node000005"><a xlink:title=" ">
<path fill="none" stroke="#63b8ff" d="M2151.27,-71.49C2143.23,-69.29 2134.33,-67.2 2126,-66 1789.83,-17.5 937.51,-39.66 598,-30 476.71,-26.55 335.75,-21.67 251.87,-18.68"/>
<polygon fill="#63b8ff" stroke="#63b8ff" points="251.8,-15.18 241.68,-18.32 251.55,-22.17 251.8,-15.18"/>
</a>
</g>
</g>
<!-- Node14&#45;&gt;Node8 -->
<g id="edge19_Node000014_Node000008" class="edge">
<title>Node14&#45;&gt;Node8</title>
<g id="a_edge19_Node000014_Node000008"><a xlink:title=" ">
<path fill="none" stroke="#63b8ff" d="M2164.51,-71.37C2148.04,-60.82 2119.93,-42.84 2100.24,-30.23"/>
<polygon fill="#63b8ff" stroke="#63b8ff" points="2101.9,-27.14 2091.59,-24.7 2098.13,-33.04 2101.9,-27.14"/>
</a>
</g>
</g>
<!-- Node14&#45;&gt;Node9 -->
<g id="edge20_Node000014_Node000009" class="edge">
<title>Node14&#45;&gt;Node9</title>
<g id="a_edge20_Node000014_Node000009"><a xlink:title=" ">
<path fill="none" stroke="#63b8ff" d="M2148.71,-71.5C2141.34,-69.53 2133.41,-67.56 2126,-66 2021.73,-44.12 1991.51,-59.03 1889,-30 1887.11,-29.47 1885.19,-28.85 1883.27,-28.18"/>
<polygon fill="#63b8ff" stroke="#63b8ff" points="1884.45,-24.89 1873.86,-24.54 1881.92,-31.41 1884.45,-24.89"/>
</a>
</g>
</g>
<!-- Node14&#45;&gt;Node12 -->
<g id="edge14_Node000014_Node000012" class="edge">
<title>Node14&#45;&gt;Node12</title>
<g id="a_edge14_Node000014_Node000012"><a xlink:title=" ">
<path fill="none" stroke="#63b8ff" d="M2150.99,-71.47C2143.02,-69.3 2134.23,-67.23 2126,-66 1850.46,-24.76 974.17,-17.49 727.3,-16.25"/>
<polygon fill="#63b8ff" stroke="#63b8ff" points="727.07,-12.75 717.05,-16.2 727.04,-19.75 727.07,-12.75"/>
</a>
</g>
</g>
<!-- Node14&#45;&gt;Node19 -->
<g id="edge15_Node000014_Node000019" class="edge">
<title>Node14&#45;&gt;Node19</title>
<g id="a_edge15_Node000014_Node000019"><a xlink:title=" ">
<path fill="none" stroke="#63b8ff" d="M2149.68,-71.37C2112.55,-60.05 2047.29,-40.16 2005.92,-27.56"/>
<polygon fill="#63b8ff" stroke="#63b8ff" points="2006.79,-24.16 1996.21,-24.6 2004.75,-30.86 2006.79,-24.16"/>
</a>
</g>
</g>
<!-- Node14&#45;&gt;Node21 -->
<g id="edge16_Node000014_Node000021" class="edge">
<title>Node14&#45;&gt;Node21</title>
<g id="a_edge16_Node000014_Node000021"><a xlink:title=" ">
<path fill="none" stroke="#63b8ff" d="M2178.81,-71.37C2179.55,-63.49 2180.68,-51.45 2181.69,-40.6"/>
<polygon fill="#63b8ff" stroke="#63b8ff" points="2185.2,-40.64 2182.65,-30.36 2178.24,-39.99 2185.2,-40.64"/>
</a>
</g>
</g>
<!-- Node14&#45;&gt;Node22 -->
<g id="edge17_Node000014_Node000022" class="edge">
<title>Node14&#45;&gt;Node22</title>
<g id="a_edge17_Node000014_Node000022"><a xlink:title=" ">
<path fill="none" stroke="#63b8ff" d="M2197.15,-71.37C2218.14,-61.91 2252.43,-46.45 2279.46,-34.27"/>
<polygon fill="#63b8ff" stroke="#63b8ff" points="2281,-37.42 2288.68,-30.12 2278.13,-31.03 2281,-37.42"/>
</a>
</g>
</g>
<!-- Node14&#45;&gt;Node23 -->
<g id="edge18_Node000014_Node000023" class="edge">
<title>Node14&#45;&gt;Node23</title>
<g id="a_edge18_Node000014_Node000023"><a xlink:title=" ">
<path fill="none" stroke="#63b8ff" d="M2213.46,-71.44C2256.13,-61.13 2328.5,-43.65 2380.59,-31.07"/>
<polygon fill="#63b8ff" stroke="#63b8ff" points="2381.49,-34.45 2390.39,-28.71 2379.85,-27.65 2381.49,-34.45"/>
</a>
</g>
</g>
<!-- Node42&#45;&gt;Node3 -->
<g id="edge41_Node000042_Node000003" class="edge">
<title>Node42&#45;&gt;Node3</title>
<g id="a_edge41_Node000042_Node000003"><a xlink:title=" ">
<path fill="none" stroke="#63b8ff" d="M545.79,-324.49C522.32,-314.62 483.39,-298.23 456.54,-286.93"/>
<polygon fill="#63b8ff" stroke="#63b8ff" points="457.81,-283.67 447.24,-283.02 455.1,-290.12 457.81,-283.67"/>
</a>
</g>
</g>
<!-- Node42&#45;&gt;Node5 -->
<g id="edge42_Node000042_Node000005" class="edge">
<title>Node42&#45;&gt;Node5</title>
<g id="a_edge42_Node000042_Node000005"><a xlink:title=" ">
<path fill="none" stroke="#63b8ff" d="M566.1,-324.26C565.86,-300.34 561.8,-233.24 525,-198 478.6,-153.56 443.32,-188.96 385,-162 312.26,-128.38 238.2,-68.65 201.55,-37.01"/>
<polygon fill="#63b8ff" stroke="#63b8ff" points="203.73,-34.27 193.89,-30.34 199.13,-39.55 203.73,-34.27"/>
</a>
</g>
</g>
<!-- Node42&#45;&gt;Node8 -->
<g id="edge43_Node000042_Node000008" class="edge">
<title>Node42&#45;&gt;Node8</title>
<g id="a_edge43_Node000042_Node000008"><a xlink:title=" ">
<path fill="none" stroke="#63b8ff" d="M637.91,-324.47C655.58,-322.52 674.46,-320.56 692,-319 778.35,-311.29 2249,-300.7 2249,-214 2249,-214 2249,-214 2249,-146 2249,-109.46 2255.08,-92.58 2230,-66 2191.79,-25.5 2162.27,-49.19 2110,-30 2108.61,-29.49 2107.2,-28.95 2105.78,-28.39"/>
<polygon fill="#63b8ff" stroke="#63b8ff" points="2107.04,-25.13 2096.46,-24.53 2104.36,-31.59 2107.04,-25.13"/>
</a>
</g>
</g>
<!-- Node43&#45;&gt;Node3 -->
<g id="edge45_Node000043_Node000003" class="edge">
<title>Node43&#45;&gt;Node3</title>
<g id="a_edge45_Node000043_Node000003"><a xlink:title=" ">
<path fill="none" stroke="#63b8ff" d="M291.64,-318.99C322.09,-308.98 362.59,-295.67 391.33,-286.22"/>
<polygon fill="#63b8ff" stroke="#63b8ff" points="392.57,-289.5 400.97,-283.05 390.38,-282.85 392.57,-289.5"/>
</a>
</g>
</g>
<!-- Node43&#45;&gt;Node5 -->
<g id="edge46_Node000043_Node000005" class="edge">
<title>Node43&#45;&gt;Node5</title>
<g id="a_edge46_Node000043_Node000005"><a xlink:title=" ">
<path fill="none" stroke="#63b8ff" d="M196.8,-330.62C123.79,-324.17 0,-300.48 0,-214 0,-214 0,-214 0,-146 0,-87.22 64.08,-52.18 115.34,-33.55"/>
<polygon fill="#63b8ff" stroke="#63b8ff" points="116.79,-36.75 125.08,-30.15 114.48,-30.14 116.79,-36.75"/>
</a>
</g>
</g>
<!-- Node43&#45;&gt;Node39 -->
<g id="edge47_Node000043_Node000039" class="edge">
<title>Node43&#45;&gt;Node39</title>
<g id="a_edge47_Node000043_Node000039"><a xlink:title=" ">
<path fill="none" stroke="#63b8ff" d="M235.9,-318.87C214.45,-293.92 176.19,-240.66 197,-198 203.01,-185.68 213.68,-175.51 224.61,-167.63"/>
<polygon fill="#63b8ff" stroke="#63b8ff" points="226.59,-170.52 232.95,-162.05 222.69,-164.7 226.59,-170.52"/>
</a>
</g>
</g>
<!-- Node44&#45;&gt;Node42 -->
<g id="edge49_Node000044_Node000042" class="edge">
<title>Node44&#45;&gt;Node42</title>
<g id="a_edge49_Node000044_Node000042"><a xlink:title=" ">
<path fill="none" stroke="#63b8ff" d="M706.15,-390.37C678.05,-379.27 629.07,-359.92 597.1,-347.28"/>
<polygon fill="#63b8ff" stroke="#63b8ff" points="598.35,-344.02 587.76,-343.6 595.77,-350.53 598.35,-344.02"/>
</a>
</g>
</g>
<!-- Node45 -->
<g id="Node000045" class="node">
<title>Node45</title>
<g id="a_Node000045"><a xlink:title=" ">
<polygon fill="#e0e0e0" stroke="#999999" points="755,-343.5 701,-343.5 701,-324.5 755,-324.5 755,-343.5"/>
<text text-anchor="middle" x="728" y="-331.5" font-family="Helvetica,sans-Serif" font-size="10.00">random</text>
</a>
</g>
</g>
<!-- Node44&#45;&gt;Node45 -->
<g id="edge50_Node000044_Node000045" class="edge">
<title>Node44&#45;&gt;Node45</title>
<g id="a_edge50_Node000044_Node000045"><a xlink:title=" ">
<path fill="none" stroke="#63b8ff" d="M728,-390.37C728,-381.16 728,-366.29 728,-354.27"/>
<polygon fill="#63b8ff" stroke="#63b8ff" points="731.5,-353.91 728,-343.91 724.5,-353.91 731.5,-353.91"/>
</a>
</g>
</g>
</g>
</svg>
