<?xml version="1.0" encoding="UTF-8" standalone="no"?>
<!DOCTYPE svg PUBLIC "-//W3C//DTD SVG 1.1//EN"
 "http://www.w3.org/Graphics/SVG/1.1/DTD/svg11.dtd">
<!-- Generated by graphviz version 2.43.0 (0)
 -->
<!-- Title: /home/runner/work/lethe/lethe/include/core/interface_tools.h Pages: 1 -->
<svg width="397pt" height="203pt"
 viewBox="0.00 0.00 396.50 203.00" xmlns="http://www.w3.org/2000/svg" xmlns:xlink="http://www.w3.org/1999/xlink">
<g id="graph0" class="graph" transform="scale(1 1) rotate(0) translate(4 199)">
<title>/home/runner/work/lethe/lethe/include/core/interface_tools.h</title>
<!-- Node1 -->
<g id="Node000001" class="node">
<title>Node1</title>
<g id="a_Node000001"><a xlink:title=" ">
<polygon fill="#999999" stroke="#666666" points="307,-195 154,-195 154,-154 307,-154 307,-195"/>
<text text-anchor="start" x="162" y="-183" font-family="Helvetica,sans-Serif" font-size="10.00">/home/runner/work/lethe</text>
<text text-anchor="start" x="162" y="-172" font-family="Helvetica,sans-Serif" font-size="10.00">/lethe/include/core/interface</text>
<text text-anchor="middle" x="230.5" y="-161" font-family="Helvetica,sans-Serif" font-size="10.00">_tools.h</text>
</a>
</g>
</g>
<!-- Node2 -->
<g id="Node000002" class="node">
<title>Node2</title>
<g id="a_Node000002"><a xlink:href="cls_8h.html" target="_top" xlink:title=" ">
<polygon fill="white" stroke="#666666" points="220.5,-112.5 74.5,-112.5 74.5,-82.5 220.5,-82.5 220.5,-112.5"/>
<text text-anchor="start" x="82.5" y="-100.5" font-family="Helvetica,sans-Serif" font-size="10.00">/home/runner/work/lethe</text>
<text text-anchor="middle" x="147.5" y="-89.5" font-family="Helvetica,sans-Serif" font-size="10.00">/lethe/include/solvers/cls.h</text>
</a>
</g>
</g>
<!-- Node1&#45;&gt;Node2 -->
<g id="edge1_Node000001_Node000002" class="edge">
<title>Node1&#45;&gt;Node2</title>
<g id="a_edge1_Node000001_Node000002"><a xlink:title=" ">
<path fill="none" stroke="#63b8ff" d="M201,-146.84C188.22,-135.3 173.79,-122.25 163.13,-112.63"/>
<polygon fill="#63b8ff" stroke="#63b8ff" points="198.93,-149.69 208.69,-153.79 203.62,-144.49 198.93,-149.69"/>
</a>
</g>
</g>
<!-- Node5 -->
<g id="Node000005" class="node">
<title>Node5</title>
<g id="a_Node000005"><a xlink:href="interface__tools_8cc.html" target="_top" xlink:title=" ">
<polygon fill="white" stroke="#666666" points="388.5,-118 238.5,-118 238.5,-77 388.5,-77 388.5,-118"/>
<text text-anchor="start" x="246.5" y="-106" font-family="Helvetica,sans-Serif" font-size="10.00">/home/runner/work/lethe</text>
<text text-anchor="start" x="246.5" y="-95" font-family="Helvetica,sans-Serif" font-size="10.00">/lethe/source/core/interface</text>
<text text-anchor="middle" x="313.5" y="-84" font-family="Helvetica,sans-Serif" font-size="10.00">_tools.cc</text>
</a>
</g>
</g>
<!-- Node1&#45;&gt;Node5 -->
<g id="edge4_Node000001_Node000005" class="edge">
<title>Node1&#45;&gt;Node5</title>
<g id="a_edge4_Node000001_Node000005"><a xlink:title=" ">
<path fill="none" stroke="#63b8ff" d="M259.75,-147.07C270.31,-137.52 282.04,-126.93 291.84,-118.07"/>
<polygon fill="#63b8ff" stroke="#63b8ff" points="257.38,-144.49 252.31,-153.79 262.07,-149.69 257.38,-144.49"/>
</a>
</g>
</g>
<!-- Node3 -->
<g id="Node000003" class="node">
<title>Node3</title>
<g id="a_Node000003"><a xlink:href="cls_8cc.html" target="_top" xlink:title=" ">
<polygon fill="white" stroke="#666666" points="137,-41 0,-41 0,0 137,0 137,-41"/>
<text text-anchor="start" x="8" y="-29" font-family="Helvetica,sans-Serif" font-size="10.00">/home/runner/work/lethe</text>
<text text-anchor="start" x="8" y="-18" font-family="Helvetica,sans-Serif" font-size="10.00">/lethe/source/solvers</text>
<text text-anchor="middle" x="68.5" y="-7" font-family="Helvetica,sans-Serif" font-size="10.00">/cls.cc</text>
</a>
</g>
</g>
<!-- Node2&#45;&gt;Node3 -->
<g id="edge2_Node000002_Node000003" class="edge">
<title>Node2&#45;&gt;Node3</title>
<g id="a_edge2_Node000002_Node000003"><a xlink:title=" ">
<path fill="none" stroke="#63b8ff" d="M125.26,-75.38C113.96,-64.66 100.33,-51.72 89.25,-41.2"/>
<polygon fill="#63b8ff" stroke="#63b8ff" points="122.98,-78.05 132.64,-82.39 127.8,-72.97 122.98,-78.05"/>
</a>
</g>
</g>
<!-- Node4 -->
<g id="Node000004" class="node">
<title>Node4</title>
<g id="a_Node000004"><a xlink:href="multiphysics__interface_8cc.html" target="_top" xlink:title=" ">
<polygon fill="white" stroke="#666666" points="299.5,-41 155.5,-41 155.5,0 299.5,0 299.5,-41"/>
<text text-anchor="start" x="163.5" y="-29" font-family="Helvetica,sans-Serif" font-size="10.00">/home/runner/work/lethe</text>
<text text-anchor="start" x="163.5" y="-18" font-family="Helvetica,sans-Serif" font-size="10.00">/lethe/source/solvers</text>
<text text-anchor="middle" x="227.5" y="-7" font-family="Helvetica,sans-Serif" font-size="10.00">/multiphysics_interface.cc</text>
</a>
</g>
</g>
<!-- Node2&#45;&gt;Node4 -->
<g id="edge3_Node000002_Node000004" class="edge">
<title>Node2&#45;&gt;Node4</title>
<g id="a_edge3_Node000002_Node000004"><a xlink:title=" ">
<path fill="none" stroke="#63b8ff" d="M170.02,-75.38C181.46,-64.66 195.27,-51.72 206.48,-41.2"/>
<polygon fill="#63b8ff" stroke="#63b8ff" points="167.45,-73 162.55,-82.39 172.24,-78.11 167.45,-73"/>
</a>
</g>
</g>
</g>
</svg>
