<?xml version="1.0" encoding="UTF-8" standalone="no"?>
<!DOCTYPE svg PUBLIC "-//W3C//DTD SVG 1.1//EN"
 "http://www.w3.org/Graphics/SVG/1.1/DTD/svg11.dtd">
<!-- Generated by graphviz version 2.43.0 (0)
 -->
<!-- Title: /home/runner/work/lethe/lethe/include/core/interface_property_model.h Pages: 1 -->
<svg width="2834pt" height="621pt"
 viewBox="0.00 0.00 2833.50 621.00" xmlns="http://www.w3.org/2000/svg" xmlns:xlink="http://www.w3.org/1999/xlink">
<g id="graph0" class="graph" transform="scale(1 1) rotate(0) translate(4 617)">
<title>/home/runner/work/lethe/lethe/include/core/interface_property_model.h</title>
<!-- Node1 -->
<g id="Node000001" class="node">
<title>Node1</title>
<g id="a_Node000001"><a xlink:title=" ">
<polygon fill="#999999" stroke="#666666" points="1831,-613 1678,-613 1678,-572 1831,-572 1831,-613"/>
<text text-anchor="start" x="1686" y="-601" font-family="Helvetica,sans-Serif" font-size="10.00">/home/runner/work/lethe</text>
<text text-anchor="start" x="1686" y="-590" font-family="Helvetica,sans-Serif" font-size="10.00">/lethe/include/core/interface</text>
<text text-anchor="middle" x="1754.5" y="-579" font-family="Helvetica,sans-Serif" font-size="10.00">_property_model.h</text>
</a>
</g>
</g>
<!-- Node2 -->
<g id="Node000002" class="node">
<title>Node2</title>
<g id="a_Node000002"><a xlink:href="parameters_8h.html" target="_top" xlink:title=" ">
<polygon fill="white" stroke="#666666" points="1780.5,-349 1674.5,-349 1674.5,-330 1780.5,-330 1780.5,-349"/>
<text text-anchor="middle" x="1727.5" y="-337" font-family="Helvetica,sans-Serif" font-size="10.00">core/parameters.h</text>
</a>
</g>
</g>
<!-- Node1&#45;&gt;Node2 -->
<g id="edge1_Node000001_Node000002" class="edge">
<title>Node1&#45;&gt;Node2</title>
<g id="a_edge1_Node000001_Node000002"><a xlink:title=" ">
<path fill="none" stroke="#63b8ff" d="M1742.18,-571.76C1736.5,-561.51 1730.39,-548.53 1727.5,-536 1712.92,-472.71 1720.14,-394.79 1724.71,-359.49"/>
<polygon fill="#63b8ff" stroke="#63b8ff" points="1728.23,-359.62 1726.13,-349.23 1721.29,-358.66 1728.23,-359.62"/>
</a>
</g>
</g>
<!-- Node41 -->
<g id="Node000041" class="node">
<title>Node41</title>
<g id="a_Node000041"><a xlink:href="physical__property__model_8h.html" target="_top" xlink:title=" ">
<polygon fill="white" stroke="#666666" points="1864.5,-536 1736.5,-536 1736.5,-506 1864.5,-506 1864.5,-536"/>
<text text-anchor="start" x="1744.5" y="-524" font-family="Helvetica,sans-Serif" font-size="10.00">core/physical_property</text>
<text text-anchor="middle" x="1800.5" y="-513" font-family="Helvetica,sans-Serif" font-size="10.00">_model.h</text>
</a>
</g>
</g>
<!-- Node1&#45;&gt;Node41 -->
<g id="edge51_Node000001_Node000041" class="edge">
<title>Node1&#45;&gt;Node41</title>
<g id="a_edge51_Node000001_Node000041"><a xlink:title=" ">
<path fill="none" stroke="#63b8ff" d="M1767.56,-571.77C1773.16,-563.31 1779.73,-553.38 1785.52,-544.63"/>
<polygon fill="#63b8ff" stroke="#63b8ff" points="1788.61,-546.31 1791.21,-536.04 1782.77,-542.45 1788.61,-546.31"/>
</a>
</g>
</g>
<!-- Node3 -->
<g id="Node000003" class="node">
<title>Node3</title>
<g id="a_Node000003"><a xlink:href="dimensionality_8h.html" target="_top" xlink:title=" ">
<polygon fill="white" stroke="#666666" points="902,-222.5 781,-222.5 781,-203.5 902,-203.5 902,-222.5"/>
<text text-anchor="middle" x="841.5" y="-210.5" font-family="Helvetica,sans-Serif" font-size="10.00">core/dimensionality.h</text>
</a>
</g>
</g>
<!-- Node2&#45;&gt;Node3 -->
<g id="edge2_Node000002_Node000003" class="edge">
<title>Node2&#45;&gt;Node3</title>
<g id="a_edge2_Node000002_Node000003"><a xlink:title=" ">
<path fill="none" stroke="#63b8ff" d="M1674.28,-333.24C1598.95,-325.62 1456.97,-310.58 1336.5,-294 1177.94,-272.18 991.81,-240.44 899.5,-224.28"/>
<polygon fill="#63b8ff" stroke="#63b8ff" points="899.97,-220.81 889.52,-222.53 898.76,-227.7 899.97,-220.81"/>
</a>
</g>
</g>
<!-- Node4 -->
<g id="Node000004" class="node">
<title>Node4</title>
<g id="a_Node000004"><a xlink:title=" ">
<polygon fill="#e0e0e0" stroke="#999999" points="127,-96 0,-96 0,-66 127,-66 127,-96"/>
<text text-anchor="start" x="8" y="-84" font-family="Helvetica,sans-Serif" font-size="10.00">deal.II/base/parameter</text>
<text text-anchor="middle" x="63.5" y="-73" font-family="Helvetica,sans-Serif" font-size="10.00">_handler.h</text>
</a>
</g>
</g>
<!-- Node2&#45;&gt;Node4 -->
<g id="edge48_Node000002_Node000004" class="edge">
<title>Node2&#45;&gt;Node4</title>
<g id="a_edge48_Node000002_Node000004"><a xlink:title=" ">
<path fill="none" stroke="#63b8ff" d="M1674.11,-336.02C1571.06,-330.88 1337.67,-317.54 1142.5,-294 786.04,-251.01 695.87,-240.45 345.5,-162 264.92,-143.96 173.2,-116.65 116.83,-99.07"/>
<polygon fill="#63b8ff" stroke="#63b8ff" points="117.66,-95.66 107.07,-96.01 115.57,-102.34 117.66,-95.66"/>
</a>
</g>
</g>
<!-- Node5 -->
<g id="Node000005" class="node">
<title>Node5</title>
<g id="a_Node000005"><a xlink:href="ib__particle_8h.html" target="_top" xlink:title=" ">
<polygon fill="white" stroke="#666666" points="2303,-288.5 2202,-288.5 2202,-269.5 2303,-269.5 2303,-288.5"/>
<text text-anchor="middle" x="2252.5" y="-276.5" font-family="Helvetica,sans-Serif" font-size="10.00">core/ib_particle.h</text>
</a>
</g>
</g>
<!-- Node2&#45;&gt;Node5 -->
<g id="edge4_Node000002_Node000005" class="edge">
<title>Node2&#45;&gt;Node5</title>
<g id="a_edge4_Node000002_Node000005"><a xlink:title=" ">
<path fill="none" stroke="#63b8ff" d="M1780.73,-332.57C1878.99,-321.62 2088.28,-298.3 2191.85,-286.76"/>
<polygon fill="#63b8ff" stroke="#63b8ff" points="2192.29,-290.23 2201.84,-285.64 2191.52,-283.27 2192.29,-290.23"/>
</a>
</g>
</g>
<!-- Node13 -->
<g id="Node000013" class="node">
<title>Node13</title>
<g id="a_Node000013"><a xlink:href="utilities_8h.html" target="_top" xlink:title=" ">
<polygon fill="white" stroke="#666666" points="899.5,-156.5 813.5,-156.5 813.5,-137.5 899.5,-137.5 899.5,-156.5"/>
<text text-anchor="middle" x="856.5" y="-144.5" font-family="Helvetica,sans-Serif" font-size="10.00">core/utilities.h</text>
</a>
</g>
</g>
<!-- Node2&#45;&gt;Node13 -->
<g id="edge47_Node000002_Node000013" class="edge">
<title>Node2&#45;&gt;Node13</title>
<g id="a_edge47_Node000002_Node000013"><a xlink:title=" ">
<path fill="none" stroke="#63b8ff" d="M1688.38,-329.94C1546.84,-298.99 1061.47,-192.83 905.31,-158.68"/>
<polygon fill="#63b8ff" stroke="#63b8ff" points="906.03,-155.25 895.51,-156.53 904.53,-162.09 906.03,-155.25"/>
</a>
</g>
</g>
<!-- Node38 -->
<g id="Node000038" class="node">
<title>Node38</title>
<g id="a_Node000038"><a xlink:title=" ">
<polygon fill="#e0e0e0" stroke="#999999" points="1698,-228 1589,-228 1589,-198 1698,-198 1698,-228"/>
<text text-anchor="start" x="1597" y="-216" font-family="Helvetica,sans-Serif" font-size="10.00">deal.II/base/parsed</text>
<text text-anchor="middle" x="1643.5" y="-205" font-family="Helvetica,sans-Serif" font-size="10.00">_function.h</text>
</a>
</g>
</g>
<!-- Node2&#45;&gt;Node38 -->
<g id="edge49_Node000002_Node000038" class="edge">
<title>Node2&#45;&gt;Node38</title>
<g id="a_edge49_Node000002_Node000038"><a xlink:title=" ">
<path fill="none" stroke="#63b8ff" d="M1707.77,-329.88C1693.09,-322.45 1673.73,-310.35 1662.5,-294 1651.23,-277.59 1646.6,-255.32 1644.72,-238.44"/>
<polygon fill="#63b8ff" stroke="#63b8ff" points="1648.19,-237.91 1643.84,-228.25 1641.21,-238.51 1648.19,-237.91"/>
</a>
</g>
</g>
<!-- Node39 -->
<g id="Node000039" class="node">
<title>Node39</title>
<g id="a_Node000039"><a xlink:href="multiphysics_8h.html" target="_top" xlink:title="Identifiers for multiphysics modules and their solution fields.">
<polygon fill="white" stroke="#666666" points="1783.5,-288.5 1671.5,-288.5 1671.5,-269.5 1783.5,-269.5 1783.5,-288.5"/>
<text text-anchor="middle" x="1727.5" y="-276.5" font-family="Helvetica,sans-Serif" font-size="10.00">core/multiphysics.h</text>
</a>
</g>
</g>
<!-- Node2&#45;&gt;Node39 -->
<g id="edge46_Node000002_Node000039" class="edge">
<title>Node2&#45;&gt;Node39</title>
<g id="a_edge46_Node000002_Node000039"><a xlink:title=" ">
<path fill="none" stroke="#63b8ff" d="M1727.5,-329.87C1727.5,-321.75 1727.5,-309.31 1727.5,-298.89"/>
<polygon fill="#63b8ff" stroke="#63b8ff" points="1731,-298.67 1727.5,-288.67 1724,-298.67 1731,-298.67"/>
</a>
</g>
</g>
<!-- Node40 -->
<g id="Node000040" class="node">
<title>Node40</title>
<g id="a_Node000040"><a xlink:title=" ">
<polygon fill="#e0e0e0" stroke="#999999" points="1965,-294 1802,-294 1802,-264 1965,-264 1965,-294"/>
<text text-anchor="start" x="1810" y="-282" font-family="Helvetica,sans-Serif" font-size="10.00">deal.II/multigrid/mg</text>
<text text-anchor="middle" x="1883.5" y="-271" font-family="Helvetica,sans-Serif" font-size="10.00">_transfer_global_coarsening.h</text>
</a>
</g>
</g>
<!-- Node2&#45;&gt;Node40 -->
<g id="edge50_Node000002_Node000040" class="edge">
<title>Node2&#45;&gt;Node40</title>
<g id="a_edge50_Node000002_Node000040"><a xlink:title=" ">
<path fill="none" stroke="#63b8ff" d="M1750.18,-329.99C1772.73,-321.54 1807.99,-308.32 1836.58,-297.59"/>
<polygon fill="#63b8ff" stroke="#63b8ff" points="1837.86,-300.85 1846,-294.06 1835.4,-294.3 1837.86,-300.85"/>
</a>
</g>
</g>
<!-- Node3&#45;&gt;Node4 -->
<g id="edge3_Node000003_Node000004" class="edge">
<title>Node3&#45;&gt;Node4</title>
<g id="a_edge3_Node000003_Node000004"><a xlink:title=" ">
<path fill="none" stroke="#63b8ff" d="M786.57,-203.47C669.36,-185.15 385.9,-140.27 137.13,-96.09"/>
<polygon fill="#63b8ff" stroke="#63b8ff" points="137.64,-92.62 127.18,-94.32 136.42,-99.51 137.64,-92.62"/>
</a>
</g>
</g>
<!-- Node6 -->
<g id="Node000006" class="node">
<title>Node6</title>
<g id="a_Node000006"><a xlink:href="dem__properties_8h.html" target="_top" xlink:title="DEM particle property definitions and output name management.">
<polygon fill="white" stroke="#666666" points="2625.5,-156.5 2499.5,-156.5 2499.5,-137.5 2625.5,-137.5 2625.5,-156.5"/>
<text text-anchor="middle" x="2562.5" y="-144.5" font-family="Helvetica,sans-Serif" font-size="10.00">core/dem_properties.h</text>
</a>
</g>
</g>
<!-- Node5&#45;&gt;Node6 -->
<g id="edge5_Node000005_Node000006" class="edge">
<title>Node5&#45;&gt;Node6</title>
<g id="a_edge5_Node000005_Node000006"><a xlink:title=" ">
<path fill="none" stroke="#63b8ff" d="M2303.22,-275.65C2352.54,-271.46 2428.2,-259.89 2485.5,-228 2513.45,-212.44 2537.52,-183.43 2551,-164.95"/>
<polygon fill="#63b8ff" stroke="#63b8ff" points="2553.98,-166.79 2556.89,-156.6 2548.26,-162.76 2553.98,-166.79"/>
</a>
</g>
</g>
<!-- Node8 -->
<g id="Node000008" class="node">
<title>Node8</title>
<g id="a_Node000008"><a xlink:title=" ">
<polygon fill="#e0e0e0" stroke="#999999" points="2618,-90.5 2571,-90.5 2571,-71.5 2618,-71.5 2618,-90.5"/>
<text text-anchor="middle" x="2594.5" y="-78.5" font-family="Helvetica,sans-Serif" font-size="10.00">vector</text>
</a>
</g>
</g>
<!-- Node5&#45;&gt;Node8 -->
<g id="edge45_Node000005_Node000008" class="edge">
<title>Node5&#45;&gt;Node8</title>
<g id="a_edge45_Node000005_Node000008"><a xlink:title=" ">
<path fill="none" stroke="#63b8ff" d="M2303.13,-273.42C2357.44,-267.37 2445.59,-254.25 2517.5,-228 2573.58,-207.53 2604.39,-213.55 2634.5,-162 2647.15,-140.34 2627.9,-114.15 2611.98,-97.78"/>
<polygon fill="#63b8ff" stroke="#63b8ff" points="2614.2,-95.06 2604.58,-90.6 2609.32,-100.08 2614.2,-95.06"/>
</a>
</g>
</g>
<!-- Node9 -->
<g id="Node000009" class="node">
<title>Node9</title>
<g id="a_Node000009"><a xlink:href="shape_8h.html" target="_top" xlink:title=" ">
<polygon fill="white" stroke="#666666" points="1795,-222.5 1716,-222.5 1716,-203.5 1795,-203.5 1795,-222.5"/>
<text text-anchor="middle" x="1755.5" y="-210.5" font-family="Helvetica,sans-Serif" font-size="10.00">core/shape.h</text>
</a>
</g>
</g>
<!-- Node5&#45;&gt;Node9 -->
<g id="edge8_Node000005_Node000009" class="edge">
<title>Node5&#45;&gt;Node9</title>
<g id="a_edge8_Node000005_Node000009"><a xlink:title=" ">
<path fill="none" stroke="#63b8ff" d="M2201.65,-271.45C2106.03,-259.14 1900.52,-232.68 1805.53,-220.44"/>
<polygon fill="#63b8ff" stroke="#63b8ff" points="1805.69,-216.93 1795.33,-219.13 1804.8,-223.88 1805.69,-216.93"/>
</a>
</g>
</g>
<!-- Node11 -->
<g id="Node000011" class="node">
<title>Node11</title>
<g id="a_Node000011"><a xlink:title=" ">
<polygon fill="#e0e0e0" stroke="#999999" points="1778.5,-90.5 1668.5,-90.5 1668.5,-71.5 1778.5,-71.5 1778.5,-90.5"/>
<text text-anchor="middle" x="1723.5" y="-78.5" font-family="Helvetica,sans-Serif" font-size="10.00">deal.II/base/point.h</text>
</a>
</g>
</g>
<!-- Node5&#45;&gt;Node11 -->
<g id="edge44_Node000005_Node000011" class="edge">
<title>Node5&#45;&gt;Node11</title>
<g id="a_edge44_Node000005_Node000011"><a xlink:title=" ">
<path fill="none" stroke="#63b8ff" d="M2284.13,-269.5C2354.16,-249.28 2511.55,-195.24 2452.5,-132 2430,-107.91 1963.44,-89.98 1788.76,-84.08"/>
<polygon fill="#63b8ff" stroke="#63b8ff" points="1788.78,-80.58 1778.67,-83.75 1788.55,-87.58 1788.78,-80.58"/>
</a>
</g>
</g>
<!-- Node5&#45;&gt;Node38 -->
<g id="edge43_Node000005_Node000038" class="edge">
<title>Node5&#45;&gt;Node38</title>
<g id="a_edge43_Node000005_Node000038"><a xlink:title=" ">
<path fill="none" stroke="#63b8ff" d="M2201.9,-275.46C2107.03,-270.23 1895.85,-256.45 1708.27,-227.98"/>
<polygon fill="#63b8ff" stroke="#63b8ff" points="1708.64,-224.5 1698.23,-226.44 1707.58,-231.42 1708.64,-224.5"/>
</a>
</g>
</g>
<!-- Node7 -->
<g id="Node000007" class="node">
<title>Node7</title>
<g id="a_Node000007"><a xlink:title=" ">
<polygon fill="#e0e0e0" stroke="#999999" points="2230.5,-90.5 2186.5,-90.5 2186.5,-71.5 2230.5,-71.5 2230.5,-90.5"/>
<text text-anchor="middle" x="2208.5" y="-78.5" font-family="Helvetica,sans-Serif" font-size="10.00">string</text>
</a>
</g>
</g>
<!-- Node6&#45;&gt;Node7 -->
<g id="edge6_Node000006_Node000007" class="edge">
<title>Node6&#45;&gt;Node7</title>
<g id="a_edge6_Node000006_Node000007"><a xlink:title=" ">
<path fill="none" stroke="#63b8ff" d="M2515.67,-137.48C2505.71,-135.67 2495.26,-133.77 2485.5,-132 2396.88,-115.95 2292.29,-97.09 2240.66,-87.79"/>
<polygon fill="#63b8ff" stroke="#63b8ff" points="2241.23,-84.34 2230.76,-86.01 2239.98,-91.23 2241.23,-84.34"/>
</a>
</g>
</g>
<!-- Node6&#45;&gt;Node8 -->
<g id="edge7_Node000006_Node000008" class="edge">
<title>Node6&#45;&gt;Node8</title>
<g id="a_edge7_Node000006_Node000008"><a xlink:title=" ">
<path fill="none" stroke="#63b8ff" d="M2566.82,-137.37C2571.56,-127.88 2579.32,-112.36 2585.42,-100.16"/>
<polygon fill="#63b8ff" stroke="#63b8ff" points="2588.71,-101.41 2590.05,-90.91 2582.44,-98.28 2588.71,-101.41"/>
</a>
</g>
</g>
<!-- Node10 -->
<g id="Node000010" class="node">
<title>Node10</title>
<g id="a_Node000010"><a xlink:href="tensors__and__points__dimension__manipulation_8h.html" target="_top" xlink:title=" ">
<polygon fill="white" stroke="#666666" points="1107.5,-162 955.5,-162 955.5,-132 1107.5,-132 1107.5,-162"/>
<text text-anchor="start" x="963.5" y="-150" font-family="Helvetica,sans-Serif" font-size="10.00">core/tensors_and_points</text>
<text text-anchor="middle" x="1031.5" y="-139" font-family="Helvetica,sans-Serif" font-size="10.00">_dimension_manipulation.h</text>
</a>
</g>
</g>
<!-- Node9&#45;&gt;Node10 -->
<g id="edge9_Node000009_Node000010" class="edge">
<title>Node9&#45;&gt;Node10</title>
<g id="a_edge9_Node000009_Node000010"><a xlink:title=" ">
<path fill="none" stroke="#63b8ff" d="M1730.09,-203.44C1722.87,-201.33 1714.94,-199.29 1707.5,-198 1451.54,-153.45 1379.82,-190.46 1118.1,-162.09"/>
<polygon fill="#63b8ff" stroke="#63b8ff" points="1118.23,-158.58 1107.9,-160.96 1117.46,-165.54 1118.23,-158.58"/>
</a>
</g>
</g>
<!-- Node9&#45;&gt;Node13 -->
<g id="edge12_Node000009_Node000013" class="edge">
<title>Node9&#45;&gt;Node13</title>
<g id="a_edge12_Node000009_Node000013"><a xlink:title=" ">
<path fill="none" stroke="#63b8ff" d="M1730.35,-203.44C1723.06,-201.3 1715.04,-199.25 1707.5,-198 1359.02,-140.13 1263.14,-212.37 913.5,-162 907.95,-161.2 902.16,-160.1 896.48,-158.86"/>
<polygon fill="#63b8ff" stroke="#63b8ff" points="896.99,-155.39 886.46,-156.52 895.4,-162.2 896.99,-155.39"/>
</a>
</g>
</g>
<!-- Node18 -->
<g id="Node000018" class="node">
<title>Node18</title>
<g id="a_Node000018"><a xlink:title=" ">
<polygon fill="#e0e0e0" stroke="#999999" points="1516.5,-90.5 1376.5,-90.5 1376.5,-71.5 1516.5,-71.5 1516.5,-90.5"/>
<text text-anchor="middle" x="1446.5" y="-78.5" font-family="Helvetica,sans-Serif" font-size="10.00">deal.II/dofs/dof_handler.h</text>
</a>
</g>
</g>
<!-- Node9&#45;&gt;Node18 -->
<g id="edge38_Node000009_Node000018" class="edge">
<title>Node9&#45;&gt;Node18</title>
<g id="a_edge38_Node000009_Node000018"><a xlink:title=" ">
<path fill="none" stroke="#63b8ff" d="M1730.35,-203.45C1723.06,-201.31 1715.03,-199.26 1707.5,-198 1624.01,-184.05 1004.93,-223.25 946.5,-162 937.3,-152.35 937.48,-141.82 946.5,-132 978.25,-97.42 1320.95,-102.1 1367.5,-96 1375.55,-94.94 1384.03,-93.64 1392.33,-92.26"/>
<polygon fill="#63b8ff" stroke="#63b8ff" points="1393.05,-95.69 1402.32,-90.55 1391.87,-88.79 1393.05,-95.69"/>
</a>
</g>
</g>
<!-- Node28 -->
<g id="Node000028" class="node">
<title>Node28</title>
<g id="a_Node000028"><a xlink:title=" ">
<polygon fill="#e0e0e0" stroke="#999999" points="2023.5,-162 1871.5,-162 1871.5,-132 2023.5,-132 2023.5,-162"/>
<text text-anchor="start" x="1879.5" y="-150" font-family="Helvetica,sans-Serif" font-size="10.00">deal.II/base/auto_derivative</text>
<text text-anchor="middle" x="1947.5" y="-139" font-family="Helvetica,sans-Serif" font-size="10.00">_function.h</text>
</a>
</g>
</g>
<!-- Node9&#45;&gt;Node28 -->
<g id="edge32_Node000009_Node000028" class="edge">
<title>Node9&#45;&gt;Node28</title>
<g id="a_edge32_Node000009_Node000028"><a xlink:title=" ">
<path fill="none" stroke="#63b8ff" d="M1781.39,-203.37C1810.52,-193.66 1858.58,-177.64 1895.53,-165.32"/>
<polygon fill="#63b8ff" stroke="#63b8ff" points="1896.77,-168.6 1905.15,-162.12 1894.56,-161.96 1896.77,-168.6"/>
</a>
</g>
</g>
<!-- Node29 -->
<g id="Node000029" class="node">
<title>Node29</title>
<g id="a_Node000029"><a xlink:title=" ">
<polygon fill="#e0e0e0" stroke="#999999" points="2167,-156.5 2042,-156.5 2042,-137.5 2167,-137.5 2167,-156.5"/>
<text text-anchor="middle" x="2104.5" y="-144.5" font-family="Helvetica,sans-Serif" font-size="10.00">deal.II/base/function.h</text>
</a>
</g>
</g>
<!-- Node9&#45;&gt;Node29 -->
<g id="edge33_Node000009_Node000029" class="edge">
<title>Node9&#45;&gt;Node29</title>
<g id="a_edge33_Node000009_Node000029"><a xlink:title=" ">
<path fill="none" stroke="#63b8ff" d="M1795.44,-204.96C1849.3,-195.44 1948.21,-177.8 2032.5,-162 2038.58,-160.86 2044.94,-159.65 2051.26,-158.44"/>
<polygon fill="#63b8ff" stroke="#63b8ff" points="2051.96,-161.87 2061.11,-156.53 2050.63,-154.99 2051.96,-161.87"/>
</a>
</g>
</g>
<!-- Node30 -->
<g id="Node000030" class="node">
<title>Node30</title>
<g id="a_Node000030"><a xlink:title=" ">
<polygon fill="#e0e0e0" stroke="#999999" points="2309.5,-156.5 2185.5,-156.5 2185.5,-137.5 2309.5,-137.5 2309.5,-156.5"/>
<text text-anchor="middle" x="2247.5" y="-144.5" font-family="Helvetica,sans-Serif" font-size="10.00">deal.II/grid/manifold.h</text>
</a>
</g>
</g>
<!-- Node9&#45;&gt;Node30 -->
<g id="edge34_Node000009_Node000030" class="edge">
<title>Node9&#45;&gt;Node30</title>
<g id="a_edge34_Node000009_Node000030"><a xlink:title=" ">
<path fill="none" stroke="#63b8ff" d="M1795.11,-208.32C1869.89,-201.13 2036.91,-184.02 2176.5,-162 2183.17,-160.95 2190.17,-159.72 2197.07,-158.44"/>
<polygon fill="#63b8ff" stroke="#63b8ff" points="2197.88,-161.85 2207.05,-156.53 2196.57,-154.97 2197.88,-161.85"/>
</a>
</g>
</g>
<!-- Node31 -->
<g id="Node000031" class="node">
<title>Node31</title>
<g id="a_Node000031"><a xlink:title=" ">
<polygon fill="#e0e0e0" stroke="#999999" points="2443,-162 2328,-162 2328,-132 2443,-132 2443,-162"/>
<text text-anchor="start" x="2336" y="-150" font-family="Helvetica,sans-Serif" font-size="10.00">deal.II/grid/manifold</text>
<text text-anchor="middle" x="2385.5" y="-139" font-family="Helvetica,sans-Serif" font-size="10.00">_lib.h</text>
</a>
</g>
</g>
<!-- Node9&#45;&gt;Node31 -->
<g id="edge35_Node000009_Node000031" class="edge">
<title>Node9&#45;&gt;Node31</title>
<g id="a_edge35_Node000009_Node000031"><a xlink:title=" ">
<path fill="none" stroke="#63b8ff" d="M1795.28,-210.08C1886.11,-205.34 2115.84,-191.4 2317.93,-161.96"/>
<polygon fill="#63b8ff" stroke="#63b8ff" points="2318.45,-165.42 2327.83,-160.5 2317.43,-158.49 2318.45,-165.42"/>
</a>
</g>
</g>
<!-- Node32 -->
<g id="Node000032" class="node">
<title>Node32</title>
<g id="a_Node000032"><a xlink:title=" ">
<polygon fill="#e0e0e0" stroke="#999999" points="1241,-162 1126,-162 1126,-132 1241,-132 1241,-162"/>
<text text-anchor="start" x="1134" y="-150" font-family="Helvetica,sans-Serif" font-size="10.00">boost/range/adaptor</text>
<text text-anchor="middle" x="1183.5" y="-139" font-family="Helvetica,sans-Serif" font-size="10.00">/map.hpp</text>
</a>
</g>
</g>
<!-- Node9&#45;&gt;Node32 -->
<g id="edge36_Node000009_Node000032" class="edge">
<title>Node9&#45;&gt;Node32</title>
<g id="a_edge36_Node000009_Node000032"><a xlink:title=" ">
<path fill="none" stroke="#63b8ff" d="M1729.83,-203.46C1722.67,-201.37 1714.84,-199.35 1707.5,-198 1510.32,-161.87 1453.99,-189.96 1251.24,-161.96"/>
<polygon fill="#63b8ff" stroke="#63b8ff" points="1251.55,-158.47 1241.16,-160.54 1250.57,-165.4 1251.55,-158.47"/>
</a>
</g>
</g>
<!-- Node33 -->
<g id="Node000033" class="node">
<title>Node33</title>
<g id="a_Node000033"><a xlink:title=" ">
<polygon fill="#e0e0e0" stroke="#999999" points="1375.5,-162 1259.5,-162 1259.5,-132 1375.5,-132 1375.5,-162"/>
<text text-anchor="start" x="1267.5" y="-150" font-family="Helvetica,sans-Serif" font-size="10.00">deal.II/base/function</text>
<text text-anchor="middle" x="1317.5" y="-139" font-family="Helvetica,sans-Serif" font-size="10.00">_signed_distance.h</text>
</a>
</g>
</g>
<!-- Node9&#45;&gt;Node33 -->
<g id="edge37_Node000009_Node000033" class="edge">
<title>Node9&#45;&gt;Node33</title>
<g id="a_edge37_Node000009_Node000033"><a xlink:title=" ">
<path fill="none" stroke="#63b8ff" d="M1729.3,-203.47C1722.28,-201.43 1714.65,-199.43 1707.5,-198 1569.04,-170.31 1528.93,-184.14 1385.59,-162.06"/>
<polygon fill="#63b8ff" stroke="#63b8ff" points="1385.96,-158.58 1375.54,-160.48 1384.88,-165.49 1385.96,-158.58"/>
</a>
</g>
</g>
<!-- Node34 -->
<g id="Node000034" class="node">
<title>Node34</title>
<g id="a_Node000034"><a xlink:title=" ">
<polygon fill="#e0e0e0" stroke="#999999" points="1521.5,-156.5 1393.5,-156.5 1393.5,-137.5 1521.5,-137.5 1521.5,-156.5"/>
<text text-anchor="middle" x="1457.5" y="-144.5" font-family="Helvetica,sans-Serif" font-size="10.00">deal.II/dofs/dof_tools.h</text>
</a>
</g>
</g>
<!-- Node9&#45;&gt;Node34 -->
<g id="edge39_Node000009_Node000034" class="edge">
<title>Node9&#45;&gt;Node34</title>
<g id="a_edge39_Node000009_Node000034"><a xlink:title=" ">
<path fill="none" stroke="#63b8ff" d="M1727.69,-203.45C1721.1,-201.54 1714.08,-199.61 1707.5,-198 1688.72,-193.39 1579.05,-171.77 1511.36,-158.51"/>
<polygon fill="#63b8ff" stroke="#63b8ff" points="1511.77,-155.03 1501.28,-156.54 1510.42,-161.9 1511.77,-155.03"/>
</a>
</g>
</g>
<!-- Node35 -->
<g id="Node000035" class="node">
<title>Node35</title>
<g id="a_Node000035"><a xlink:title=" ">
<polygon fill="#e0e0e0" stroke="#999999" points="1715.5,-156.5 1539.5,-156.5 1539.5,-137.5 1715.5,-137.5 1715.5,-156.5"/>
<text text-anchor="middle" x="1627.5" y="-144.5" font-family="Helvetica,sans-Serif" font-size="10.00">deal.II/physics/transformations.h</text>
</a>
</g>
</g>
<!-- Node9&#45;&gt;Node35 -->
<g id="edge40_Node000009_Node000035" class="edge">
<title>Node9&#45;&gt;Node35</title>
<g id="a_edge40_Node000009_Node000035"><a xlink:title=" ">
<path fill="none" stroke="#63b8ff" d="M1738.24,-203.37C1716.58,-192.54 1679.21,-173.85 1653.93,-161.22"/>
<polygon fill="#63b8ff" stroke="#63b8ff" points="1655.41,-158.04 1644.9,-156.7 1652.28,-164.3 1655.41,-158.04"/>
</a>
</g>
</g>
<!-- Node36 -->
<g id="Node000036" class="node">
<title>Node36</title>
<g id="a_Node000036"><a xlink:title=" ">
<polygon fill="#e0e0e0" stroke="#999999" points="1777.5,-156.5 1733.5,-156.5 1733.5,-137.5 1777.5,-137.5 1777.5,-156.5"/>
<text text-anchor="middle" x="1755.5" y="-144.5" font-family="Helvetica,sans-Serif" font-size="10.00">cfloat</text>
</a>
</g>
</g>
<!-- Node9&#45;&gt;Node36 -->
<g id="edge41_Node000009_Node000036" class="edge">
<title>Node9&#45;&gt;Node36</title>
<g id="a_edge41_Node000009_Node000036"><a xlink:title=" ">
<path fill="none" stroke="#63b8ff" d="M1755.5,-203.37C1755.5,-194.16 1755.5,-179.29 1755.5,-167.27"/>
<polygon fill="#63b8ff" stroke="#63b8ff" points="1759,-166.91 1755.5,-156.91 1752,-166.91 1759,-166.91"/>
</a>
</g>
</g>
<!-- Node37 -->
<g id="Node000037" class="node">
<title>Node37</title>
<g id="a_Node000037"><a xlink:title=" ">
<polygon fill="#e0e0e0" stroke="#999999" points="1853.5,-156.5 1795.5,-156.5 1795.5,-137.5 1853.5,-137.5 1853.5,-156.5"/>
<text text-anchor="middle" x="1824.5" y="-144.5" font-family="Helvetica,sans-Serif" font-size="10.00">memory</text>
</a>
</g>
</g>
<!-- Node9&#45;&gt;Node37 -->
<g id="edge42_Node000009_Node000037" class="edge">
<title>Node9&#45;&gt;Node37</title>
<g id="a_edge42_Node000009_Node000037"><a xlink:title=" ">
<path fill="none" stroke="#63b8ff" d="M1764.81,-203.37C1775.65,-193.31 1793.8,-176.48 1807.24,-164.01"/>
<polygon fill="#63b8ff" stroke="#63b8ff" points="1809.95,-166.27 1814.9,-156.91 1805.19,-161.14 1809.95,-166.27"/>
</a>
</g>
</g>
<!-- Node10&#45;&gt;Node11 -->
<g id="edge10_Node000010_Node000011" class="edge">
<title>Node10&#45;&gt;Node11</title>
<g id="a_edge10_Node000010_Node000011"><a xlink:title=" ">
<path fill="none" stroke="#63b8ff" d="M1107.91,-133.06C1110.8,-132.68 1113.68,-132.33 1116.5,-132 1356.77,-104.31 1420.03,-129.94 1659.5,-96 1665.86,-95.1 1672.52,-93.92 1679.05,-92.62"/>
<polygon fill="#63b8ff" stroke="#63b8ff" points="1680.06,-95.98 1689.13,-90.51 1678.62,-89.13 1680.06,-95.98"/>
</a>
</g>
</g>
<!-- Node12 -->
<g id="Node000012" class="node">
<title>Node12</title>
<g id="a_Node000012"><a xlink:title=" ">
<polygon fill="#e0e0e0" stroke="#999999" points="1650,-90.5 1535,-90.5 1535,-71.5 1650,-71.5 1650,-90.5"/>
<text text-anchor="middle" x="1592.5" y="-78.5" font-family="Helvetica,sans-Serif" font-size="10.00">deal.II/base/tensor.h</text>
</a>
</g>
</g>
<!-- Node10&#45;&gt;Node12 -->
<g id="edge11_Node000010_Node000012" class="edge">
<title>Node10&#45;&gt;Node12</title>
<g id="a_edge11_Node000010_Node000012"><a xlink:title=" ">
<path fill="none" stroke="#63b8ff" d="M1107.92,-133.13C1110.81,-132.74 1113.68,-132.36 1116.5,-132 1297.55,-109.16 1344.98,-122.71 1525.5,-96 1531.9,-95.05 1538.61,-93.87 1545.21,-92.61"/>
<polygon fill="#63b8ff" stroke="#63b8ff" points="1546.31,-95.96 1555.43,-90.56 1544.94,-89.09 1546.31,-95.96"/>
</a>
</g>
</g>
<!-- Node13&#45;&gt;Node4 -->
<g id="edge16_Node000013_Node000004" class="edge">
<title>Node13&#45;&gt;Node4</title>
<g id="a_edge16_Node000013_Node000004"><a xlink:title=" ">
<path fill="none" stroke="#63b8ff" d="M813.29,-143.14C670.75,-133.7 220.26,-103.72 137.32,-95.77"/>
<polygon fill="#63b8ff" stroke="#63b8ff" points="137.45,-92.26 127.13,-94.67 136.7,-99.22 137.45,-92.26"/>
</a>
</g>
</g>
<!-- Node13&#45;&gt;Node7 -->
<g id="edge29_Node000013_Node000007" class="edge">
<title>Node13&#45;&gt;Node7</title>
<g id="a_edge29_Node000013_Node000007"><a xlink:title=" ">
<path fill="none" stroke="#63b8ff" d="M899.86,-138.23C914.61,-135.85 931.23,-133.48 946.5,-132 1072.01,-119.79 1991,-89.15 2176.08,-83.06"/>
<polygon fill="#63b8ff" stroke="#63b8ff" points="2176.37,-86.55 2186.25,-82.73 2176.14,-79.56 2176.37,-86.55"/>
</a>
</g>
</g>
<!-- Node13&#45;&gt;Node8 -->
<g id="edge31_Node000013_Node000008" class="edge">
<title>Node13&#45;&gt;Node8</title>
<g id="a_edge31_Node000013_Node000008"><a xlink:title=" ">
<path fill="none" stroke="#63b8ff" d="M899.85,-138.12C914.6,-135.74 931.23,-133.4 946.5,-132 1519.01,-79.71 1664.94,-115.33 2239.5,-96 2357.5,-92.03 2497.53,-86.17 2560.66,-83.47"/>
<polygon fill="#63b8ff" stroke="#63b8ff" points="2560.98,-86.95 2570.82,-83.03 2560.68,-79.96 2560.98,-86.95"/>
</a>
</g>
</g>
<!-- Node13&#45;&gt;Node11 -->
<g id="edge17_Node000013_Node000011" class="edge">
<title>Node13&#45;&gt;Node11</title>
<g id="a_edge17_Node000013_Node000011"><a xlink:title=" ">
<path fill="none" stroke="#63b8ff" d="M899.87,-138.32C914.63,-135.96 931.24,-133.57 946.5,-132 1262.13,-99.57 1345.01,-138.05 1659.5,-96 1665.94,-95.14 1672.69,-93.97 1679.29,-92.66"/>
<polygon fill="#63b8ff" stroke="#63b8ff" points="1680.4,-96.01 1689.47,-90.53 1678.97,-89.15 1680.4,-96.01"/>
</a>
</g>
</g>
<!-- Node13&#45;&gt;Node12 -->
<g id="edge19_Node000013_Node000012" class="edge">
<title>Node13&#45;&gt;Node12</title>
<g id="a_edge19_Node000013_Node000012"><a xlink:title=" ">
<path fill="none" stroke="#63b8ff" d="M899.88,-138.42C914.64,-136.07 931.25,-133.66 946.5,-132 1202.82,-104.16 1269.98,-130.46 1525.5,-96 1532.3,-95.08 1539.45,-93.87 1546.44,-92.53"/>
<polygon fill="#63b8ff" stroke="#63b8ff" points="1547.38,-95.91 1556.5,-90.51 1546.01,-89.05 1547.38,-95.91"/>
</a>
</g>
</g>
<!-- Node14 -->
<g id="Node000014" class="node">
<title>Node14</title>
<g id="a_Node000014"><a xlink:href="output__struct_8h.html" target="_top" xlink:title=" ">
<polygon fill="#fff0f0" stroke="red" points="381.5,-90.5 267.5,-90.5 267.5,-71.5 381.5,-71.5 381.5,-90.5"/>
<text text-anchor="middle" x="324.5" y="-78.5" font-family="Helvetica,sans-Serif" font-size="10.00">core/output_struct.h</text>
</a>
</g>
</g>
<!-- Node13&#45;&gt;Node14 -->
<g id="edge13_Node000013_Node000014" class="edge">
<title>Node13&#45;&gt;Node14</title>
<g id="a_edge13_Node000013_Node000014"><a xlink:title=" ">
<path fill="none" stroke="#63b8ff" d="M813.44,-142.58C731.69,-135.82 548.5,-119.34 395.5,-96 388.74,-94.97 381.65,-93.74 374.67,-92.45"/>
<polygon fill="#63b8ff" stroke="#63b8ff" points="375.05,-88.96 364.57,-90.53 373.74,-95.84 375.05,-88.96"/>
</a>
</g>
</g>
<!-- Node15 -->
<g id="Node000015" class="node">
<title>Node15</title>
<g id="a_Node000015"><a xlink:title=" ">
<polygon fill="#e0e0e0" stroke="#999999" points="417,-30 316,-30 316,0 417,0 417,-30"/>
<text text-anchor="start" x="324" y="-18" font-family="Helvetica,sans-Serif" font-size="10.00">deal.II/base/table</text>
<text text-anchor="middle" x="366.5" y="-7" font-family="Helvetica,sans-Serif" font-size="10.00">_handler.h</text>
</a>
</g>
</g>
<!-- Node13&#45;&gt;Node15 -->
<g id="edge18_Node000013_Node000015" class="edge">
<title>Node13&#45;&gt;Node15</title>
<g id="a_edge18_Node000013_Node000015"><a xlink:title=" ">
<path fill="none" stroke="#63b8ff" d="M813.31,-142.86C711.32,-135.17 461.56,-114.66 428.5,-96 405.57,-83.05 388.23,-57.85 377.81,-39.17"/>
<polygon fill="#63b8ff" stroke="#63b8ff" points="380.77,-37.29 372.99,-30.1 374.59,-40.57 380.77,-37.29"/>
</a>
</g>
</g>
<!-- Node17 -->
<g id="Node000017" class="node">
<title>Node17</title>
<g id="a_Node000017"><a xlink:title=" ">
<polygon fill="#e0e0e0" stroke="#999999" points="567.5,-96 437.5,-96 437.5,-66 567.5,-66 567.5,-96"/>
<text text-anchor="start" x="445.5" y="-84" font-family="Helvetica,sans-Serif" font-size="10.00">deal.II/base/conditional</text>
<text text-anchor="middle" x="502.5" y="-73" font-family="Helvetica,sans-Serif" font-size="10.00">_ostream.h</text>
</a>
</g>
</g>
<!-- Node13&#45;&gt;Node17 -->
<g id="edge15_Node000013_Node000017" class="edge">
<title>Node13&#45;&gt;Node17</title>
<g id="a_edge15_Node000013_Node000017"><a xlink:title=" ">
<path fill="none" stroke="#63b8ff" d="M813.3,-138.43C760.27,-129.1 667.3,-112.65 577.9,-96.25"/>
<polygon fill="#63b8ff" stroke="#63b8ff" points="578.33,-92.77 567.86,-94.4 577.07,-99.65 578.33,-92.77"/>
</a>
</g>
</g>
<!-- Node13&#45;&gt;Node18 -->
<g id="edge20_Node000013_Node000018" class="edge">
<title>Node13&#45;&gt;Node18</title>
<g id="a_edge20_Node000013_Node000018"><a xlink:title=" ">
<path fill="none" stroke="#63b8ff" d="M887.38,-137.45C895.79,-135.39 904.95,-133.38 913.5,-132 1113.33,-99.75 1166.73,-121.69 1367.5,-96 1375.65,-94.96 1384.24,-93.65 1392.64,-92.26"/>
<polygon fill="#63b8ff" stroke="#63b8ff" points="1393.47,-95.67 1402.74,-90.53 1392.29,-88.77 1393.47,-95.67"/>
</a>
</g>
</g>
<!-- Node19 -->
<g id="Node000019" class="node">
<title>Node19</title>
<g id="a_Node000019"><a xlink:title=" ">
<polygon fill="#e0e0e0" stroke="#999999" points="705,-90.5 586,-90.5 586,-71.5 705,-71.5 705,-90.5"/>
<text text-anchor="middle" x="645.5" y="-78.5" font-family="Helvetica,sans-Serif" font-size="10.00">deal.II/fe/fe_values.h</text>
</a>
</g>
</g>
<!-- Node13&#45;&gt;Node19 -->
<g id="edge21_Node000013_Node000019" class="edge">
<title>Node13&#45;&gt;Node19</title>
<g id="a_edge21_Node000013_Node000019"><a xlink:title=" ">
<path fill="none" stroke="#63b8ff" d="M828.04,-137.37C790.74,-126.05 725.17,-106.16 683.6,-93.56"/>
<polygon fill="#63b8ff" stroke="#63b8ff" points="684.43,-90.15 673.84,-90.6 682.4,-96.85 684.43,-90.15"/>
</a>
</g>
</g>
<!-- Node20 -->
<g id="Node000020" class="node">
<title>Node20</title>
<g id="a_Node000020"><a xlink:title=" ">
<polygon fill="#e0e0e0" stroke="#999999" points="854,-96 723,-96 723,-66 854,-66 854,-96"/>
<text text-anchor="start" x="731" y="-84" font-family="Helvetica,sans-Serif" font-size="10.00">deal.II/particles/particle</text>
<text text-anchor="middle" x="788.5" y="-73" font-family="Helvetica,sans-Serif" font-size="10.00">_iterator.h</text>
</a>
</g>
</g>
<!-- Node13&#45;&gt;Node20 -->
<g id="edge22_Node000013_Node000020" class="edge">
<title>Node13&#45;&gt;Node20</title>
<g id="a_edge22_Node000013_Node000020"><a xlink:title=" ">
<path fill="none" stroke="#63b8ff" d="M847.33,-137.37C838.02,-128.61 823.26,-114.71 810.85,-103.04"/>
<polygon fill="#63b8ff" stroke="#63b8ff" points="813.18,-100.42 803.5,-96.12 808.38,-105.52 813.18,-100.42"/>
</a>
</g>
</g>
<!-- Node21 -->
<g id="Node000021" class="node">
<title>Node21</title>
<g id="a_Node000021"><a xlink:title=" ">
<polygon fill="#e0e0e0" stroke="#999999" points="977,-96 872,-96 872,-66 977,-66 977,-96"/>
<text text-anchor="start" x="880" y="-84" font-family="Helvetica,sans-Serif" font-size="10.00">boost/archive/text</text>
<text text-anchor="middle" x="924.5" y="-73" font-family="Helvetica,sans-Serif" font-size="10.00">_iarchive.hpp</text>
</a>
</g>
</g>
<!-- Node13&#45;&gt;Node21 -->
<g id="edge23_Node000013_Node000021" class="edge">
<title>Node13&#45;&gt;Node21</title>
<g id="a_edge23_Node000013_Node000021"><a xlink:title=" ">
<path fill="none" stroke="#63b8ff" d="M865.67,-137.37C874.98,-128.61 889.74,-114.71 902.15,-103.04"/>
<polygon fill="#63b8ff" stroke="#63b8ff" points="904.62,-105.52 909.5,-96.12 899.82,-100.42 904.62,-105.52"/>
</a>
</g>
</g>
<!-- Node22 -->
<g id="Node000022" class="node">
<title>Node22</title>
<g id="a_Node000022"><a xlink:title=" ">
<polygon fill="#e0e0e0" stroke="#999999" points="1100,-96 995,-96 995,-66 1100,-66 1100,-96"/>
<text text-anchor="start" x="1003" y="-84" font-family="Helvetica,sans-Serif" font-size="10.00">boost/archive/text</text>
<text text-anchor="middle" x="1047.5" y="-73" font-family="Helvetica,sans-Serif" font-size="10.00">_oarchive.hpp</text>
</a>
</g>
</g>
<!-- Node13&#45;&gt;Node22 -->
<g id="edge24_Node000013_Node000022" class="edge">
<title>Node13&#45;&gt;Node22</title>
<g id="a_edge24_Node000013_Node000022"><a xlink:title=" ">
<path fill="none" stroke="#63b8ff" d="M882.26,-137.37C911.24,-127.66 959.05,-111.64 995.81,-99.32"/>
<polygon fill="#63b8ff" stroke="#63b8ff" points="997,-102.61 1005.37,-96.12 994.78,-95.97 997,-102.61"/>
</a>
</g>
</g>
<!-- Node23 -->
<g id="Node000023" class="node">
<title>Node23</title>
<g id="a_Node000023"><a xlink:title=" ">
<polygon fill="#e0e0e0" stroke="#999999" points="1228.5,-96 1118.5,-96 1118.5,-66 1228.5,-66 1228.5,-96"/>
<text text-anchor="start" x="1126.5" y="-84" font-family="Helvetica,sans-Serif" font-size="10.00">boost/math/special</text>
<text text-anchor="middle" x="1173.5" y="-73" font-family="Helvetica,sans-Serif" font-size="10.00">_functions/erf.hpp</text>
</a>
</g>
</g>
<!-- Node13&#45;&gt;Node23 -->
<g id="edge25_Node000013_Node000023" class="edge">
<title>Node13&#45;&gt;Node23</title>
<g id="a_edge25_Node000013_Node000023"><a xlink:title=" ">
<path fill="none" stroke="#63b8ff" d="M889.88,-137.46C897.62,-135.57 905.83,-133.65 913.5,-132 996.63,-114.13 1020.42,-113.32 1108.33,-95.99"/>
<polygon fill="#63b8ff" stroke="#63b8ff" points="1109.08,-99.41 1118.2,-94.03 1107.71,-92.54 1109.08,-99.41"/>
</a>
</g>
</g>
<!-- Node24 -->
<g id="Node000024" class="node">
<title>Node24</title>
<g id="a_Node000024"><a xlink:title=" ">
<polygon fill="#e0e0e0" stroke="#999999" points="1302,-90.5 1247,-90.5 1247,-71.5 1302,-71.5 1302,-90.5"/>
<text text-anchor="middle" x="1274.5" y="-78.5" font-family="Helvetica,sans-Serif" font-size="10.00">fstream</text>
</a>
</g>
</g>
<!-- Node13&#45;&gt;Node24 -->
<g id="edge26_Node000013_Node000024" class="edge">
<title>Node13&#45;&gt;Node24</title>
<g id="a_edge26_Node000013_Node000024"><a xlink:title=" ">
<path fill="none" stroke="#63b8ff" d="M888,-137.49C896.25,-135.47 905.17,-133.48 913.5,-132 1056.15,-106.67 1096.64,-129.9 1237.5,-96 1239.95,-95.41 1242.47,-94.7 1244.97,-93.92"/>
<polygon fill="#63b8ff" stroke="#63b8ff" points="1246.13,-97.22 1254.43,-90.64 1243.84,-90.61 1246.13,-97.22"/>
</a>
</g>
</g>
<!-- Node25 -->
<g id="Node000025" class="node">
<title>Node25</title>
<g id="a_Node000025"><a xlink:title=" ">
<polygon fill="#e0e0e0" stroke="#999999" points="1358.5,-90.5 1320.5,-90.5 1320.5,-71.5 1358.5,-71.5 1358.5,-90.5"/>
<text text-anchor="middle" x="1339.5" y="-78.5" font-family="Helvetica,sans-Serif" font-size="10.00">map</text>
</a>
</g>
</g>
<!-- Node13&#45;&gt;Node25 -->
<g id="edge27_Node000013_Node000025" class="edge">
<title>Node13&#45;&gt;Node25</title>
<g id="a_edge27_Node000013_Node000025"><a xlink:title=" ">
<path fill="none" stroke="#63b8ff" d="M887.68,-137.44C896.02,-135.4 905.06,-133.41 913.5,-132 1088.24,-102.79 1139.75,-143.27 1310.5,-96 1311.95,-95.6 1313.41,-95.13 1314.87,-94.61"/>
<polygon fill="#63b8ff" stroke="#63b8ff" points="1316.41,-97.75 1324.25,-90.62 1313.68,-91.31 1316.41,-97.75"/>
</a>
</g>
</g>
<!-- Node26 -->
<g id="Node000026" class="node">
<title>Node26</title>
<g id="a_Node000026"><a xlink:title=" ">
<polygon fill="#e0e0e0" stroke="#999999" points="189.5,-90.5 145.5,-90.5 145.5,-71.5 189.5,-71.5 189.5,-90.5"/>
<text text-anchor="middle" x="167.5" y="-78.5" font-family="Helvetica,sans-Serif" font-size="10.00">regex</text>
</a>
</g>
</g>
<!-- Node13&#45;&gt;Node26 -->
<g id="edge28_Node000013_Node000026" class="edge">
<title>Node13&#45;&gt;Node26</title>
<g id="a_edge28_Node000013_Node000026"><a xlink:title=" ">
<path fill="none" stroke="#63b8ff" d="M813.07,-143.12C671.14,-133.64 228.3,-103.61 198.5,-96 196.77,-95.56 195.01,-95.03 193.27,-94.43"/>
<polygon fill="#63b8ff" stroke="#63b8ff" points="194.11,-90.99 183.52,-90.51 191.5,-97.49 194.11,-90.99"/>
</a>
</g>
</g>
<!-- Node27 -->
<g id="Node000027" class="node">
<title>Node27</title>
<g id="a_Node000027"><a xlink:title=" ">
<polygon fill="#e0e0e0" stroke="#999999" points="249,-90.5 208,-90.5 208,-71.5 249,-71.5 249,-90.5"/>
<text text-anchor="middle" x="228.5" y="-78.5" font-family="Helvetica,sans-Serif" font-size="10.00">tuple</text>
</a>
</g>
</g>
<!-- Node13&#45;&gt;Node27 -->
<g id="edge30_Node000013_Node000027" class="edge">
<title>Node13&#45;&gt;Node27</title>
<g id="a_edge30_Node000013_Node000027"><a xlink:title=" ">
<path fill="none" stroke="#63b8ff" d="M813.35,-142.81C680.56,-132.94 285.27,-103.12 258.5,-96 257.01,-95.6 255.5,-95.13 253.99,-94.62"/>
<polygon fill="#63b8ff" stroke="#63b8ff" points="254.88,-91.2 244.3,-90.64 252.22,-97.67 254.88,-91.2"/>
</a>
</g>
</g>
<!-- Node14&#45;&gt;Node15 -->
<g id="edge14_Node000014_Node000015" class="edge">
<title>Node14&#45;&gt;Node15</title>
<g id="a_edge14_Node000014_Node000015"><a xlink:title=" ">
<path fill="none" stroke="#63b8ff" d="M330.16,-71.37C335.61,-63.08 344.07,-50.18 351.46,-38.92"/>
<polygon fill="#63b8ff" stroke="#63b8ff" points="354.52,-40.64 357.08,-30.36 348.66,-36.8 354.52,-40.64"/>
</a>
</g>
</g>
<!-- Node41&#45;&gt;Node2 -->
<g id="edge52_Node000041_Node000002" class="edge">
<title>Node41&#45;&gt;Node2</title>
<g id="a_edge52_Node000041_Node000002"><a xlink:title=" ">
<path fill="none" stroke="#63b8ff" d="M1794.77,-505.91C1781.67,-473.71 1749.54,-394.7 1734.94,-358.8"/>
<polygon fill="#63b8ff" stroke="#63b8ff" points="1738.02,-357.08 1731.01,-349.13 1731.54,-359.72 1738.02,-357.08"/>
</a>
</g>
</g>
<!-- Node42 -->
<g id="Node000042" class="node">
<title>Node42</title>
<g id="a_Node000042"><a xlink:href="simulation__control_8h.html" target="_top" xlink:title="Simulation control classes for managing time&#45;stepping and iteration control in Lethe.">
<polygon fill="white" stroke="#666666" points="1959.5,-470 1819.5,-470 1819.5,-451 1959.5,-451 1959.5,-470"/>
<text text-anchor="middle" x="1889.5" y="-458" font-family="Helvetica,sans-Serif" font-size="10.00">core/simulation_control.h</text>
</a>
</g>
</g>
<!-- Node41&#45;&gt;Node42 -->
<g id="edge53_Node000041_Node000042" class="edge">
<title>Node41&#45;&gt;Node42</title>
<g id="a_edge53_Node000041_Node000042"><a xlink:title=" ">
<path fill="none" stroke="#63b8ff" d="M1822.04,-505.84C1835.97,-496.68 1854.03,-484.82 1867.95,-475.66"/>
<polygon fill="#63b8ff" stroke="#63b8ff" points="1869.99,-478.51 1876.42,-470.09 1866.15,-472.66 1869.99,-478.51"/>
</a>
</g>
</g>
<!-- Node42&#45;&gt;Node2 -->
<g id="edge58_Node000042_Node000002" class="edge">
<title>Node42&#45;&gt;Node2</title>
<g id="a_edge58_Node000042_Node000002"><a xlink:title=" ">
<path fill="none" stroke="#63b8ff" d="M1897.41,-450.8C1909.97,-435.91 1931.48,-405.2 1915.5,-385 1900.06,-365.47 1839.31,-353.63 1791,-347.13"/>
<polygon fill="#63b8ff" stroke="#63b8ff" points="1791.26,-343.63 1780.89,-345.82 1790.36,-350.57 1791.26,-343.63"/>
</a>
</g>
</g>
<!-- Node43 -->
<g id="Node000043" class="node">
<title>Node43</title>
<g id="a_Node000043"><a xlink:href="bdf_8h.html" target="_top" xlink:title=" ">
<polygon fill="white" stroke="#666666" points="2376,-409.5 2311,-409.5 2311,-390.5 2376,-390.5 2376,-409.5"/>
<text text-anchor="middle" x="2343.5" y="-397.5" font-family="Helvetica,sans-Serif" font-size="10.00">core/bdf.h</text>
</a>
</g>
</g>
<!-- Node42&#45;&gt;Node43 -->
<g id="edge54_Node000042_Node000043" class="edge">
<title>Node42&#45;&gt;Node43</title>
<g id="a_edge54_Node000042_Node000043"><a xlink:title=" ">
<path fill="none" stroke="#63b8ff" d="M1955.52,-450.99C2050.01,-438.82 2221.2,-416.76 2300.74,-406.51"/>
<polygon fill="#63b8ff" stroke="#63b8ff" points="2301.41,-409.95 2310.88,-405.2 2300.52,-403.01 2301.41,-409.95"/>
</a>
</g>
</g>
<!-- Node45 -->
<g id="Node000045" class="node">
<title>Node45</title>
<g id="a_Node000045"><a xlink:title=" ">
<polygon fill="#e0e0e0" stroke="#999999" points="1906,-415 1775,-415 1775,-385 1906,-385 1906,-415"/>
<text text-anchor="start" x="1783" y="-403" font-family="Helvetica,sans-Serif" font-size="10.00">deal.II/particles/particle</text>
<text text-anchor="middle" x="1840.5" y="-392" font-family="Helvetica,sans-Serif" font-size="10.00">_handler.h</text>
</a>
</g>
</g>
<!-- Node42&#45;&gt;Node45 -->
<g id="edge59_Node000042_Node000045" class="edge">
<title>Node42&#45;&gt;Node45</title>
<g id="a_edge59_Node000042_Node000045"><a xlink:title=" ">
<path fill="none" stroke="#63b8ff" d="M1882.27,-450.87C1876.11,-443.52 1867,-432.63 1858.85,-422.91"/>
<polygon fill="#63b8ff" stroke="#63b8ff" points="1861.43,-420.53 1852.32,-415.11 1856.06,-425.03 1861.43,-420.53"/>
</a>
</g>
</g>
<!-- Node43&#45;&gt;Node2 -->
<g id="edge55_Node000043_Node000002" class="edge">
<title>Node43&#45;&gt;Node2</title>
<g id="a_edge55_Node000043_Node000002"><a xlink:title=" ">
<path fill="none" stroke="#63b8ff" d="M2310.82,-395.9C2212.86,-386.59 1920.46,-358.83 1790.72,-346.5"/>
<polygon fill="#63b8ff" stroke="#63b8ff" points="1790.83,-343 1780.54,-345.54 1790.16,-349.97 1790.83,-343"/>
</a>
</g>
</g>
<!-- Node43&#45;&gt;Node8 -->
<g id="edge57_Node000043_Node000008" class="edge">
<title>Node43&#45;&gt;Node8</title>
<g id="a_edge57_Node000043_Node000008"><a xlink:title=" ">
<path fill="none" stroke="#63b8ff" d="M2376.24,-394.94C2462.87,-383.28 2691.5,-346.25 2691.5,-280 2691.5,-280 2691.5,-280 2691.5,-212 2691.5,-161.73 2644.32,-118.35 2615.77,-96.7"/>
<polygon fill="#63b8ff" stroke="#63b8ff" points="2617.72,-93.78 2607.58,-90.69 2613.58,-99.43 2617.72,-93.78"/>
</a>
</g>
</g>
<!-- Node44 -->
<g id="Node000044" class="node">
<title>Node44</title>
<g id="a_Node000044"><a xlink:title=" ">
<polygon fill="#e0e0e0" stroke="#999999" points="2825.5,-349 2719.5,-349 2719.5,-330 2825.5,-330 2825.5,-349"/>
<text text-anchor="middle" x="2772.5" y="-337" font-family="Helvetica,sans-Serif" font-size="10.00">deal.II/lac/vector.h</text>
</a>
</g>
</g>
<!-- Node43&#45;&gt;Node44 -->
<g id="edge56_Node000043_Node000044" class="edge">
<title>Node43&#45;&gt;Node44</title>
<g id="a_edge56_Node000043_Node000044"><a xlink:title=" ">
<path fill="none" stroke="#63b8ff" d="M2376.1,-394.55C2447.06,-384.88 2616.57,-361.76 2709.28,-349.12"/>
<polygon fill="#63b8ff" stroke="#63b8ff" points="2709.94,-352.56 2719.37,-347.74 2708.99,-345.63 2709.94,-352.56"/>
</a>
</g>
</g>
</g>
</svg>
