<?xml version="1.0" encoding="UTF-8" standalone="no"?>
<!DOCTYPE svg PUBLIC "-//W3C//DTD SVG 1.1//EN"
 "http://www.w3.org/Graphics/SVG/1.1/DTD/svg11.dtd">
<!-- Generated by graphviz version 2.43.0 (0)
 -->
<!-- Title: /home/runner/work/lethe/lethe/include/core/interface_tools.h Pages: 1 -->
<svg width="401pt" height="203pt"
 viewBox="0.00 0.00 401.00 203.00" xmlns="http://www.w3.org/2000/svg" xmlns:xlink="http://www.w3.org/1999/xlink">
<g id="graph0" class="graph" transform="scale(1 1) rotate(0) translate(4 199)">
<title>/home/runner/work/lethe/lethe/include/core/interface_tools.h</title>
<!-- Node1 -->
<g id="Node000001" class="node">
<title>Node1</title>
<g id="a_Node000001"><a xlink:title=" ">
<polygon fill="#999999" stroke="#666666" points="310.5,-195 157.5,-195 157.5,-154 310.5,-154 310.5,-195"/>
<text text-anchor="start" x="165.5" y="-183" font-family="Helvetica,sans-Serif" font-size="10.00">/home/runner/work/lethe</text>
<text text-anchor="start" x="165.5" y="-172" font-family="Helvetica,sans-Serif" font-size="10.00">/lethe/include/core/interface</text>
<text text-anchor="middle" x="234" y="-161" font-family="Helvetica,sans-Serif" font-size="10.00">_tools.h</text>
</a>
</g>
</g>
<!-- Node2 -->
<g id="Node000002" class="node">
<title>Node2</title>
<g id="a_Node000002"><a xlink:href="vof_8h.html" target="_top" xlink:title=" ">
<polygon fill="white" stroke="#666666" points="225,-112.5 77,-112.5 77,-82.5 225,-82.5 225,-112.5"/>
<text text-anchor="start" x="85" y="-100.5" font-family="Helvetica,sans-Serif" font-size="10.00">/home/runner/work/lethe</text>
<text text-anchor="middle" x="151" y="-89.5" font-family="Helvetica,sans-Serif" font-size="10.00">/lethe/include/solvers/vof.h</text>
</a>
</g>
</g>
<!-- Node1&#45;&gt;Node2 -->
<g id="edge1_Node000001_Node000002" class="edge">
<title>Node1&#45;&gt;Node2</title>
<g id="a_edge1_Node000001_Node000002"><a xlink:title=" ">
<path fill="none" stroke="#63b8ff" d="M204.5,-146.84C191.72,-135.3 177.29,-122.25 166.63,-112.63"/>
<polygon fill="#63b8ff" stroke="#63b8ff" points="202.43,-149.69 212.19,-153.79 207.12,-144.49 202.43,-149.69"/>
</a>
</g>
</g>
<!-- Node5 -->
<g id="Node000005" class="node">
<title>Node5</title>
<g id="a_Node000005"><a xlink:href="interface__tools_8cc.html" target="_top" xlink:title=" ">
<polygon fill="white" stroke="#666666" points="393,-118 243,-118 243,-77 393,-77 393,-118"/>
<text text-anchor="start" x="251" y="-106" font-family="Helvetica,sans-Serif" font-size="10.00">/home/runner/work/lethe</text>
<text text-anchor="start" x="251" y="-95" font-family="Helvetica,sans-Serif" font-size="10.00">/lethe/source/core/interface</text>
<text text-anchor="middle" x="318" y="-84" font-family="Helvetica,sans-Serif" font-size="10.00">_tools.cc</text>
</a>
</g>
</g>
<!-- Node1&#45;&gt;Node5 -->
<g id="edge4_Node000001_Node000005" class="edge">
<title>Node1&#45;&gt;Node5</title>
<g id="a_edge4_Node000001_Node000005"><a xlink:title=" ">
<path fill="none" stroke="#63b8ff" d="M263.6,-147.07C274.29,-137.52 286.16,-126.93 296.08,-118.07"/>
<polygon fill="#63b8ff" stroke="#63b8ff" points="261.2,-144.52 256.07,-153.79 265.86,-149.75 261.2,-144.52"/>
</a>
</g>
</g>
<!-- Node3 -->
<g id="Node000003" class="node">
<title>Node3</title>
<g id="a_Node000003"><a xlink:href="multiphysics__interface_8cc.html" target="_top" xlink:title=" ">
<polygon fill="white" stroke="#666666" points="144,-41 0,-41 0,0 144,0 144,-41"/>
<text text-anchor="start" x="8" y="-29" font-family="Helvetica,sans-Serif" font-size="10.00">/home/runner/work/lethe</text>
<text text-anchor="start" x="8" y="-18" font-family="Helvetica,sans-Serif" font-size="10.00">/lethe/source/solvers</text>
<text text-anchor="middle" x="72" y="-7" font-family="Helvetica,sans-Serif" font-size="10.00">/multiphysics_interface.cc</text>
</a>
</g>
</g>
<!-- Node2&#45;&gt;Node3 -->
<g id="edge2_Node000002_Node000003" class="edge">
<title>Node2&#45;&gt;Node3</title>
<g id="a_edge2_Node000002_Node000003"><a xlink:title=" ">
<path fill="none" stroke="#63b8ff" d="M128.76,-75.38C117.46,-64.66 103.83,-51.72 92.75,-41.2"/>
<polygon fill="#63b8ff" stroke="#63b8ff" points="126.48,-78.05 136.14,-82.39 131.3,-72.97 126.48,-78.05"/>
</a>
</g>
</g>
<!-- Node4 -->
<g id="Node000004" class="node">
<title>Node4</title>
<g id="a_Node000004"><a xlink:href="vof_8cc.html" target="_top" xlink:title=" ">
<polygon fill="white" stroke="#666666" points="299.5,-41 162.5,-41 162.5,0 299.5,0 299.5,-41"/>
<text text-anchor="start" x="170.5" y="-29" font-family="Helvetica,sans-Serif" font-size="10.00">/home/runner/work/lethe</text>
<text text-anchor="start" x="170.5" y="-18" font-family="Helvetica,sans-Serif" font-size="10.00">/lethe/source/solvers</text>
<text text-anchor="middle" x="231" y="-7" font-family="Helvetica,sans-Serif" font-size="10.00">/vof.cc</text>
</a>
</g>
</g>
<!-- Node2&#45;&gt;Node4 -->
<g id="edge3_Node000002_Node000004" class="edge">
<title>Node2&#45;&gt;Node4</title>
<g id="a_edge3_Node000002_Node000004"><a xlink:title=" ">
<path fill="none" stroke="#63b8ff" d="M173.52,-75.38C184.96,-64.66 198.77,-51.72 209.98,-41.2"/>
<polygon fill="#63b8ff" stroke="#63b8ff" points="170.95,-73 166.05,-82.39 175.74,-78.11 170.95,-73"/>
</a>
</g>
</g>
</g>
</svg>
