<?xml version="1.0" encoding="UTF-8" standalone="no"?>
<!DOCTYPE svg PUBLIC "-//W3C//DTD SVG 1.1//EN"
 "http://www.w3.org/Graphics/SVG/1.1/DTD/svg11.dtd">
<!-- Generated by graphviz version 2.43.0 (0)
 -->
<!-- Title: /home/runner/work/lethe/lethe/source/core/interface_tools.cc Pages: 1 -->
<svg width="2273pt" height="566pt"
 viewBox="0.00 0.00 2273.31 566.00" xmlns="http://www.w3.org/2000/svg" xmlns:xlink="http://www.w3.org/1999/xlink">
<g id="graph0" class="graph" transform="scale(1 1) rotate(0) translate(4 562)">
<title>/home/runner/work/lethe/lethe/source/core/interface_tools.cc</title>
<!-- Node1 -->
<g id="Node000001" class="node">
<title>Node1</title>
<g id="a_Node000001"><a xlink:title=" ">
<polygon fill="#999999" stroke="#666666" points="1630,-558 1480,-558 1480,-517 1630,-517 1630,-558"/>
<text text-anchor="start" x="1488" y="-546" font-family="Helvetica,sans-Serif" font-size="10.00">/home/runner/work/lethe</text>
<text text-anchor="start" x="1488" y="-535" font-family="Helvetica,sans-Serif" font-size="10.00">/lethe/source/core/interface</text>
<text text-anchor="middle" x="1555" y="-524" font-family="Helvetica,sans-Serif" font-size="10.00">_tools.cc</text>
</a>
</g>
</g>
<!-- Node2 -->
<g id="Node000002" class="node">
<title>Node2</title>
<g id="a_Node000002"><a xlink:href="interface__tools_8h.html" target="_top" xlink:title=" ">
<polygon fill="white" stroke="#666666" points="1247,-475.5 1125,-475.5 1125,-456.5 1247,-456.5 1247,-475.5"/>
<text text-anchor="middle" x="1186" y="-463.5" font-family="Helvetica,sans-Serif" font-size="10.00">core/interface_tools.h</text>
</a>
</g>
</g>
<!-- Node1&#45;&gt;Node2 -->
<g id="edge1_Node000001_Node000002" class="edge">
<title>Node1&#45;&gt;Node2</title>
<g id="a_edge1_Node000001_Node000002"><a xlink:title=" ">
<path fill="none" stroke="#63b8ff" d="M1479.99,-522.87C1419.48,-511.81 1332.21,-495.69 1256,-481 1250.23,-479.89 1244.2,-478.71 1238.2,-477.52"/>
<polygon fill="#63b8ff" stroke="#63b8ff" points="1238.67,-474.05 1228.18,-475.53 1237.31,-480.91 1238.67,-474.05"/>
</a>
</g>
</g>
<!-- Node18 -->
<g id="Node000018" class="node">
<title>Node18</title>
<g id="a_Node000018"><a xlink:href="output__struct_8h.html" target="_top" xlink:title=" ">
<polygon fill="#fff0f0" stroke="red" points="114,-24.5 0,-24.5 0,-5.5 114,-5.5 114,-24.5"/>
<text text-anchor="middle" x="57" y="-12.5" font-family="Helvetica,sans-Serif" font-size="10.00">core/output_struct.h</text>
</a>
</g>
</g>
<!-- Node1&#45;&gt;Node18 -->
<g id="edge59_Node000001_Node000018" class="edge">
<title>Node1&#45;&gt;Node18</title>
<g id="a_edge59_Node000001_Node000018"><a xlink:title=" ">
<path fill="none" stroke="#63b8ff" d="M1479.77,-533.77C1173.67,-522.17 38,-474.21 38,-401 38,-401 38,-401 38,-146 38,-106.04 46.9,-59.9 52.51,-34.75"/>
<polygon fill="#63b8ff" stroke="#63b8ff" points="55.98,-35.29 54.82,-24.76 49.16,-33.72 55.98,-35.29"/>
</a>
</g>
</g>
<!-- Node38 -->
<g id="Node000038" class="node">
<title>Node38</title>
<g id="a_Node000038"><a xlink:title=" ">
<polygon fill="#e0e0e0" stroke="#999999" points="1393,-475.5 1265,-475.5 1265,-456.5 1393,-456.5 1393,-475.5"/>
<text text-anchor="middle" x="1329" y="-463.5" font-family="Helvetica,sans-Serif" font-size="10.00">deal.II/dofs/dof_tools.h</text>
</a>
</g>
</g>
<!-- Node1&#45;&gt;Node38 -->
<g id="edge60_Node000001_Node000038" class="edge">
<title>Node1&#45;&gt;Node38</title>
<g id="a_edge60_Node000001_Node000038"><a xlink:title=" ">
<path fill="none" stroke="#63b8ff" d="M1491.44,-516.96C1451.22,-504.58 1400.58,-489.01 1366.62,-478.57"/>
<polygon fill="#63b8ff" stroke="#63b8ff" points="1367.24,-475.1 1356.65,-475.5 1365.18,-481.79 1367.24,-475.1"/>
</a>
</g>
</g>
<!-- Node71 -->
<g id="Node000071" class="node">
<title>Node71</title>
<g id="a_Node000071"><a xlink:title=" ">
<polygon fill="#e0e0e0" stroke="#999999" points="1547,-475.5 1411,-475.5 1411,-456.5 1547,-456.5 1547,-475.5"/>
<text text-anchor="middle" x="1479" y="-463.5" font-family="Helvetica,sans-Serif" font-size="10.00">deal.II/hp/fe_collection.h</text>
</a>
</g>
</g>
<!-- Node1&#45;&gt;Node71 -->
<g id="edge61_Node000001_Node000071" class="edge">
<title>Node1&#45;&gt;Node71</title>
<g id="a_edge61_Node000001_Node000071"><a xlink:title=" ">
<path fill="none" stroke="#63b8ff" d="M1533.42,-516.77C1521.67,-506.02 1507.33,-492.91 1496.32,-482.84"/>
<polygon fill="#63b8ff" stroke="#63b8ff" points="1498.39,-479.99 1488.64,-475.82 1493.66,-485.15 1498.39,-479.99"/>
</a>
</g>
</g>
<!-- Node72 -->
<g id="Node000072" class="node">
<title>Node72</title>
<g id="a_Node000072"><a xlink:title=" ">
<polygon fill="#e0e0e0" stroke="#999999" points="1697,-475.5 1565,-475.5 1565,-456.5 1697,-456.5 1697,-475.5"/>
<text text-anchor="middle" x="1631" y="-463.5" font-family="Helvetica,sans-Serif" font-size="10.00">deal.II/hp/q_collection.h</text>
</a>
</g>
</g>
<!-- Node1&#45;&gt;Node72 -->
<g id="edge62_Node000001_Node000072" class="edge">
<title>Node1&#45;&gt;Node72</title>
<g id="a_edge62_Node000001_Node000072"><a xlink:title=" ">
<path fill="none" stroke="#63b8ff" d="M1576.58,-516.77C1588.33,-506.02 1602.67,-492.91 1613.68,-482.84"/>
<polygon fill="#63b8ff" stroke="#63b8ff" points="1616.34,-485.15 1621.36,-475.82 1611.61,-479.99 1616.34,-485.15"/>
</a>
</g>
</g>
<!-- Node73 -->
<g id="Node000073" class="node">
<title>Node73</title>
<g id="a_Node000073"><a xlink:title=" ">
<polygon fill="#e0e0e0" stroke="#999999" points="1834.5,-481 1715.5,-481 1715.5,-451 1834.5,-451 1834.5,-481"/>
<text text-anchor="start" x="1723.5" y="-469" font-family="Helvetica,sans-Serif" font-size="10.00">deal.II/non_matching</text>
<text text-anchor="middle" x="1775" y="-458" font-family="Helvetica,sans-Serif" font-size="10.00">/fe_values.h</text>
</a>
</g>
</g>
<!-- Node1&#45;&gt;Node73 -->
<g id="edge63_Node000001_Node000073" class="edge">
<title>Node1&#45;&gt;Node73</title>
<g id="a_edge63_Node000001_Node000073"><a xlink:title=" ">
<path fill="none" stroke="#63b8ff" d="M1616.87,-516.96C1649.55,-506.63 1689.3,-494.07 1720.76,-484.13"/>
<polygon fill="#63b8ff" stroke="#63b8ff" points="1722.19,-487.35 1730.67,-481 1720.08,-480.68 1722.19,-487.35"/>
</a>
</g>
</g>
<!-- Node74 -->
<g id="Node000074" class="node">
<title>Node74</title>
<g id="a_Node000074"><a xlink:title=" ">
<polygon fill="#e0e0e0" stroke="#999999" points="1971.5,-481 1852.5,-481 1852.5,-451 1971.5,-451 1971.5,-481"/>
<text text-anchor="start" x="1860.5" y="-469" font-family="Helvetica,sans-Serif" font-size="10.00">deal.II/non_matching</text>
<text text-anchor="middle" x="1912" y="-458" font-family="Helvetica,sans-Serif" font-size="10.00">/mesh_classifier.h</text>
</a>
</g>
</g>
<!-- Node1&#45;&gt;Node74 -->
<g id="edge64_Node000001_Node000074" class="edge">
<title>Node1&#45;&gt;Node74</title>
<g id="a_edge64_Node000001_Node000074"><a xlink:title=" ">
<path fill="none" stroke="#63b8ff" d="M1630.2,-522.34C1686.17,-511.74 1764.71,-496.72 1842.35,-481.32"/>
<polygon fill="#63b8ff" stroke="#63b8ff" points="1843.18,-484.72 1852.31,-479.34 1841.81,-477.85 1843.18,-484.72"/>
</a>
</g>
</g>
<!-- Node75 -->
<g id="Node000075" class="node">
<title>Node75</title>
<g id="a_Node000075"><a xlink:title=" ">
<polygon fill="#e0e0e0" stroke="#999999" points="2124,-481 1990,-481 1990,-451 2124,-451 2124,-481"/>
<text text-anchor="start" x="1998" y="-469" font-family="Helvetica,sans-Serif" font-size="10.00">deal.II/non_matching</text>
<text text-anchor="middle" x="2057" y="-458" font-family="Helvetica,sans-Serif" font-size="10.00">/quadrature_generator.h</text>
</a>
</g>
</g>
<!-- Node1&#45;&gt;Node75 -->
<g id="edge65_Node000001_Node000075" class="edge">
<title>Node1&#45;&gt;Node75</title>
<g id="a_edge65_Node000001_Node000075"><a xlink:title=" ">
<path fill="none" stroke="#63b8ff" d="M1630.2,-527.92C1713.29,-518.16 1851.28,-501.14 1979.87,-481.13"/>
<polygon fill="#63b8ff" stroke="#63b8ff" points="1980.56,-484.56 1989.9,-479.56 1979.48,-477.65 1980.56,-484.56"/>
</a>
</g>
</g>
<!-- Node3 -->
<g id="Node000003" class="node">
<title>Node3</title>
<g id="a_Node000003"><a xlink:href="lethe__grid__tools_8h.html" target="_top" xlink:title=" ">
<polygon fill="white" stroke="#666666" points="594,-409.5 466,-409.5 466,-390.5 594,-390.5 594,-409.5"/>
<text text-anchor="middle" x="530" y="-397.5" font-family="Helvetica,sans-Serif" font-size="10.00">core/lethe_grid_tools.h</text>
</a>
</g>
</g>
<!-- Node2&#45;&gt;Node3 -->
<g id="edge2_Node000002_Node000003" class="edge">
<title>Node2&#45;&gt;Node3</title>
<g id="a_edge2_Node000002_Node000003"><a xlink:title=" ">
<path fill="none" stroke="#63b8ff" d="M1124.76,-460.29C1022.97,-452.27 812.55,-434.88 635,-415 623.83,-413.75 612.01,-412.3 600.49,-410.81"/>
<polygon fill="#63b8ff" stroke="#63b8ff" points="600.84,-407.33 590.47,-409.5 599.93,-414.27 600.84,-407.33"/>
</a>
</g>
</g>
<!-- Node17 -->
<g id="Node000017" class="node">
<title>Node17</title>
<g id="a_Node000017"><a xlink:href="utilities_8h.html" target="_top" xlink:title=" ">
<polygon fill="#fff0f0" stroke="red" points="422,-90.5 336,-90.5 336,-71.5 422,-71.5 422,-90.5"/>
<text text-anchor="middle" x="379" y="-78.5" font-family="Helvetica,sans-Serif" font-size="10.00">core/utilities.h</text>
</a>
</g>
</g>
<!-- Node2&#45;&gt;Node17 -->
<g id="edge38_Node000002_Node000017" class="edge">
<title>Node2&#45;&gt;Node17</title>
<g id="a_edge38_Node000002_Node000017"><a xlink:title=" ">
<path fill="none" stroke="#63b8ff" d="M1124.96,-464.41C973,-462.38 581.05,-453.44 457,-415 401.81,-397.9 380.07,-394.92 345,-349 311.17,-304.7 319.4,-283.25 312,-228 310.23,-214.78 307.57,-210.57 312,-198 318.83,-178.62 330.07,-179.4 341,-162 353.61,-141.92 364.82,-117 371.74,-100.36"/>
<polygon fill="#63b8ff" stroke="#63b8ff" points="375.12,-101.34 375.64,-90.75 368.63,-98.7 375.12,-101.34"/>
</a>
</g>
</g>
<!-- Node2&#45;&gt;Node18 -->
<g id="edge33_Node000002_Node000018" class="edge">
<title>Node2&#45;&gt;Node18</title>
<g id="a_edge33_Node000002_Node000018"><a xlink:title=" ">
<path fill="none" stroke="#63b8ff" d="M1125,-463.24C973.56,-458.49 583.57,-443.76 457,-415 379.58,-397.41 357.81,-391.9 291,-349 164.2,-267.58 86.28,-90.73 63.79,-33.94"/>
<polygon fill="#63b8ff" stroke="#63b8ff" points="67.01,-32.57 60.13,-24.52 60.48,-35.1 67.01,-32.57"/>
</a>
</g>
</g>
<!-- Node21 -->
<g id="Node000021" class="node">
<title>Node21</title>
<g id="a_Node000021"><a xlink:title=" ">
<polygon fill="#e0e0e0" stroke="#999999" points="262,-30 132,-30 132,0 262,0 262,-30"/>
<text text-anchor="start" x="140" y="-18" font-family="Helvetica,sans-Serif" font-size="10.00">deal.II/base/conditional</text>
<text text-anchor="middle" x="197" y="-7" font-family="Helvetica,sans-Serif" font-size="10.00">_ostream.h</text>
</a>
</g>
</g>
<!-- Node2&#45;&gt;Node21 -->
<g id="edge46_Node000002_Node000021" class="edge">
<title>Node2&#45;&gt;Node21</title>
<g id="a_edge46_Node000002_Node000021"><a xlink:title=" ">
<path fill="none" stroke="#63b8ff" d="M1124.9,-464.06C897.62,-459.78 114,-437.58 114,-335 114,-335 114,-335 114,-146 114,-102.02 148.16,-60.97 172.65,-37.19"/>
<polygon fill="#63b8ff" stroke="#63b8ff" points="175.31,-39.49 180.2,-30.09 170.52,-34.39 175.31,-39.49"/>
</a>
</g>
</g>
<!-- Node22 -->
<g id="Node000022" class="node">
<title>Node22</title>
<g id="a_Node000022"><a xlink:title=" ">
<polygon fill="#e0e0e0" stroke="#999999" points="899,-24.5 759,-24.5 759,-5.5 899,-5.5 899,-24.5"/>
<text text-anchor="middle" x="829" y="-12.5" font-family="Helvetica,sans-Serif" font-size="10.00">deal.II/dofs/dof_handler.h</text>
</a>
</g>
</g>
<!-- Node2&#45;&gt;Node22 -->
<g id="edge49_Node000002_Node000022" class="edge">
<title>Node2&#45;&gt;Node22</title>
<g id="a_edge49_Node000002_Node000022"><a xlink:title=" ">
<path fill="none" stroke="#63b8ff" d="M1222.88,-456.47C1233.51,-454.32 1245.17,-452.27 1256,-451 1310.55,-444.59 2201.54,-449.84 2244,-415 2272.25,-391.82 2263,-371.54 2263,-335 2263,-335 2263,-335 2263,-146 2263,-77.49 1211.07,-30.97 909.13,-19.03"/>
<polygon fill="#63b8ff" stroke="#63b8ff" points="909.27,-15.53 899.14,-18.64 908.99,-22.53 909.27,-15.53"/>
</a>
</g>
</g>
<!-- Node33 -->
<g id="Node000033" class="node">
<title>Node33</title>
<g id="a_Node000033"><a xlink:title=" ">
<polygon fill="#e0e0e0" stroke="#999999" points="729.5,-283 604.5,-283 604.5,-264 729.5,-264 729.5,-283"/>
<text text-anchor="middle" x="667" y="-271" font-family="Helvetica,sans-Serif" font-size="10.00">deal.II/base/function.h</text>
</a>
</g>
</g>
<!-- Node2&#45;&gt;Node33 -->
<g id="edge48_Node000002_Node000033" class="edge">
<title>Node2&#45;&gt;Node33</title>
<g id="a_edge48_Node000002_Node000033"><a xlink:title=" ">
<path fill="none" stroke="#63b8ff" d="M1124.68,-462.53C1023.66,-457.66 827.22,-444.62 765,-415 726.97,-396.9 720.49,-383.96 697,-349 685.25,-331.51 676.92,-308.71 672.06,-292.96"/>
<polygon fill="#63b8ff" stroke="#63b8ff" points="675.42,-291.96 669.26,-283.34 668.7,-293.92 675.42,-291.96"/>
</a>
</g>
</g>
<!-- Node50 -->
<g id="Node000050" class="node">
<title>Node50</title>
<g id="a_Node000050"><a xlink:title=" ">
<polygon fill="#e0e0e0" stroke="#999999" points="1057.5,-283 928.5,-283 928.5,-264 1057.5,-264 1057.5,-283"/>
<text text-anchor="middle" x="993" y="-271" font-family="Helvetica,sans-Serif" font-size="10.00">deal.II/fe/mapping_fe.h</text>
</a>
</g>
</g>
<!-- Node2&#45;&gt;Node50 -->
<g id="edge52_Node000002_Node000050" class="edge">
<title>Node2&#45;&gt;Node50</title>
<g id="a_edge52_Node000002_Node000050"><a xlink:title=" ">
<path fill="none" stroke="#63b8ff" d="M1124.79,-462.04C1088.92,-457 1045.58,-444.62 1019,-415 988.43,-380.94 988.42,-322.99 990.8,-293.28"/>
<polygon fill="#63b8ff" stroke="#63b8ff" points="994.31,-293.36 991.81,-283.07 987.34,-292.67 994.31,-293.36"/>
</a>
</g>
</g>
<!-- Node52 -->
<g id="Node000052" class="node">
<title>Node52</title>
<g id="a_Node000052"><a xlink:href="solutions__output_8h.html" target="_top" xlink:title=" ">
<polygon fill="white" stroke="#666666" points="905.5,-409.5 774.5,-409.5 774.5,-390.5 905.5,-390.5 905.5,-409.5"/>
<text text-anchor="middle" x="840" y="-397.5" font-family="Helvetica,sans-Serif" font-size="10.00">core/solutions_output.h</text>
</a>
</g>
</g>
<!-- Node2&#45;&gt;Node52 -->
<g id="edge34_Node000002_Node000052" class="edge">
<title>Node2&#45;&gt;Node52</title>
<g id="a_edge34_Node000002_Node000052"><a xlink:title=" ">
<path fill="none" stroke="#63b8ff" d="M1139.7,-456.44C1076.64,-444.77 963.88,-423.91 896.1,-411.38"/>
<polygon fill="#63b8ff" stroke="#63b8ff" points="896.5,-407.89 886.03,-409.51 895.23,-414.77 896.5,-407.89"/>
</a>
</g>
</g>
<!-- Node55 -->
<g id="Node000055" class="node">
<title>Node55</title>
<g id="a_Node000055"><a xlink:href="vector_8h.html" target="_top" xlink:title=" ">
<polygon fill="white" stroke="#666666" points="1108,-409.5 1028,-409.5 1028,-390.5 1108,-390.5 1108,-409.5"/>
<text text-anchor="middle" x="1068" y="-397.5" font-family="Helvetica,sans-Serif" font-size="10.00">core/vector.h</text>
</a>
</g>
</g>
<!-- Node2&#45;&gt;Node55 -->
<g id="edge39_Node000002_Node000055" class="edge">
<title>Node2&#45;&gt;Node55</title>
<g id="a_edge39_Node000002_Node000055"><a xlink:title=" ">
<path fill="none" stroke="#63b8ff" d="M1170.09,-456.37C1150.29,-445.63 1116.27,-427.18 1092.99,-414.55"/>
<polygon fill="#63b8ff" stroke="#63b8ff" points="1094.5,-411.39 1084.04,-409.7 1091.16,-417.54 1094.5,-411.39"/>
</a>
</g>
</g>
<!-- Node62 -->
<g id="Node000062" class="node">
<title>Node62</title>
<g id="a_Node000062"><a xlink:title=" ">
<polygon fill="#e0e0e0" stroke="#999999" points="1245.5,-415 1126.5,-415 1126.5,-385 1245.5,-385 1245.5,-415"/>
<text text-anchor="start" x="1134.5" y="-403" font-family="Helvetica,sans-Serif" font-size="10.00">deal.II/base/data_out</text>
<text text-anchor="middle" x="1186" y="-392" font-family="Helvetica,sans-Serif" font-size="10.00">_base.h</text>
</a>
</g>
</g>
<!-- Node2&#45;&gt;Node62 -->
<g id="edge47_Node000002_Node000062" class="edge">
<title>Node2&#45;&gt;Node62</title>
<g id="a_edge47_Node000002_Node000062"><a xlink:title=" ">
<path fill="none" stroke="#63b8ff" d="M1186,-456.37C1186,-448.49 1186,-436.45 1186,-425.6"/>
<polygon fill="#63b8ff" stroke="#63b8ff" points="1189.5,-425.36 1186,-415.36 1182.5,-425.36 1189.5,-425.36"/>
</a>
</g>
</g>
<!-- Node63 -->
<g id="Node000063" class="node">
<title>Node63</title>
<g id="a_Node000063"><a xlink:title=" ">
<polygon fill="#e0e0e0" stroke="#999999" points="1344.5,-409.5 1263.5,-409.5 1263.5,-390.5 1344.5,-390.5 1344.5,-409.5"/>
<text text-anchor="middle" x="1304" y="-397.5" font-family="Helvetica,sans-Serif" font-size="10.00">deal.II/fe/fe.h</text>
</a>
</g>
</g>
<!-- Node2&#45;&gt;Node63 -->
<g id="edge50_Node000002_Node000063" class="edge">
<title>Node2&#45;&gt;Node63</title>
<g id="a_edge50_Node000002_Node000063"><a xlink:title=" ">
<path fill="none" stroke="#63b8ff" d="M1201.91,-456.37C1221.71,-445.63 1255.73,-427.18 1279.01,-414.55"/>
<polygon fill="#63b8ff" stroke="#63b8ff" points="1280.84,-417.54 1287.96,-409.7 1277.5,-411.39 1280.84,-417.54"/>
</a>
</g>
</g>
<!-- Node64 -->
<g id="Node000064" class="node">
<title>Node64</title>
<g id="a_Node000064"><a xlink:title=" ">
<polygon fill="#e0e0e0" stroke="#999999" points="1455,-409.5 1363,-409.5 1363,-390.5 1455,-390.5 1455,-409.5"/>
<text text-anchor="middle" x="1409" y="-397.5" font-family="Helvetica,sans-Serif" font-size="10.00">deal.II/fe/fe_q.h</text>
</a>
</g>
</g>
<!-- Node2&#45;&gt;Node64 -->
<g id="edge51_Node000002_Node000064" class="edge">
<title>Node2&#45;&gt;Node64</title>
<g id="a_edge51_Node000002_Node000064"><a xlink:title=" ">
<path fill="none" stroke="#63b8ff" d="M1216.07,-456.37C1255.67,-445 1325.39,-425 1369.29,-412.4"/>
<polygon fill="#63b8ff" stroke="#63b8ff" points="1370.4,-415.72 1379.05,-409.6 1368.47,-408.99 1370.4,-415.72"/>
</a>
</g>
</g>
<!-- Node65 -->
<g id="Node000065" class="node">
<title>Node65</title>
<g id="a_Node000065"><a xlink:title=" ">
<polygon fill="#e0e0e0" stroke="#999999" points="1601,-409.5 1473,-409.5 1473,-390.5 1601,-390.5 1601,-409.5"/>
<text text-anchor="middle" x="1537" y="-397.5" font-family="Helvetica,sans-Serif" font-size="10.00">deal.II/grid/grid_tools.h</text>
</a>
</g>
</g>
<!-- Node2&#45;&gt;Node65 -->
<g id="edge53_Node000002_Node000065" class="edge">
<title>Node2&#45;&gt;Node65</title>
<g id="a_edge53_Node000002_Node000065"><a xlink:title=" ">
<path fill="none" stroke="#63b8ff" d="M1227.79,-456.46C1237.07,-454.61 1246.86,-452.7 1256,-451 1348.23,-433.8 1371.7,-431.84 1464,-415 1470.17,-413.88 1476.62,-412.67 1483.03,-411.46"/>
<polygon fill="#63b8ff" stroke="#63b8ff" points="1483.85,-414.87 1493.02,-409.57 1482.54,-407.99 1483.85,-414.87"/>
</a>
</g>
</g>
<!-- Node66 -->
<g id="Node000066" class="node">
<title>Node66</title>
<g id="a_Node000066"><a xlink:title=" ">
<polygon fill="#e0e0e0" stroke="#999999" points="1718.5,-415 1619.5,-415 1619.5,-385 1718.5,-385 1718.5,-415"/>
<text text-anchor="start" x="1627.5" y="-403" font-family="Helvetica,sans-Serif" font-size="10.00">deal.II/lac/lapack</text>
<text text-anchor="middle" x="1669" y="-392" font-family="Helvetica,sans-Serif" font-size="10.00">_full_matrix.h</text>
</a>
</g>
</g>
<!-- Node2&#45;&gt;Node66 -->
<g id="edge54_Node000002_Node000066" class="edge">
<title>Node2&#45;&gt;Node66</title>
<g id="a_edge54_Node000002_Node000066"><a xlink:title=" ">
<path fill="none" stroke="#63b8ff" d="M1225.13,-456.49C1235.16,-454.49 1245.95,-452.51 1256,-451 1409.18,-427.95 1452.3,-440.76 1609.19,-414.97"/>
<polygon fill="#63b8ff" stroke="#63b8ff" points="1609.91,-418.4 1619.2,-413.3 1608.76,-411.5 1609.91,-418.4"/>
</a>
</g>
</g>
<!-- Node67 -->
<g id="Node000067" class="node">
<title>Node67</title>
<g id="a_Node000067"><a xlink:title=" ">
<polygon fill="#e0e0e0" stroke="#999999" points="1861.5,-415 1736.5,-415 1736.5,-385 1861.5,-385 1861.5,-415"/>
<text text-anchor="start" x="1744.5" y="-403" font-family="Helvetica,sans-Serif" font-size="10.00">deal.II/matrix_free</text>
<text text-anchor="middle" x="1799" y="-392" font-family="Helvetica,sans-Serif" font-size="10.00">/fe_point_evaluation.h</text>
</a>
</g>
</g>
<!-- Node2&#45;&gt;Node67 -->
<g id="edge55_Node000002_Node000067" class="edge">
<title>Node2&#45;&gt;Node67</title>
<g id="a_edge55_Node000002_Node000067"><a xlink:title=" ">
<path fill="none" stroke="#63b8ff" d="M1224.37,-456.45C1234.6,-454.41 1245.69,-452.42 1256,-451 1461.17,-422.77 1517.78,-442.75 1726.3,-415.12"/>
<polygon fill="#63b8ff" stroke="#63b8ff" points="1726.9,-418.58 1736.35,-413.77 1725.97,-411.64 1726.9,-418.58"/>
</a>
</g>
</g>
<!-- Node68 -->
<g id="Node000068" class="node">
<title>Node68</title>
<g id="a_Node000068"><a xlink:title=" ">
<polygon fill="#e0e0e0" stroke="#999999" points="2010.5,-415 1879.5,-415 1879.5,-385 2010.5,-385 2010.5,-415"/>
<text text-anchor="start" x="1887.5" y="-403" font-family="Helvetica,sans-Serif" font-size="10.00">deal.II/non_matching</text>
<text text-anchor="middle" x="1945" y="-392" font-family="Helvetica,sans-Serif" font-size="10.00">/fe_immersed_values.h</text>
</a>
</g>
</g>
<!-- Node2&#45;&gt;Node68 -->
<g id="edge56_Node000002_Node000068" class="edge">
<title>Node2&#45;&gt;Node68</title>
<g id="a_edge56_Node000002_Node000068"><a xlink:title=" ">
<path fill="none" stroke="#63b8ff" d="M1223.62,-456.48C1234.06,-454.39 1245.43,-452.36 1256,-451 1524.25,-416.49 1597.48,-447.74 1869.14,-415.12"/>
<polygon fill="#63b8ff" stroke="#63b8ff" points="1869.8,-418.57 1879.3,-413.88 1868.95,-411.62 1869.8,-418.57"/>
</a>
</g>
</g>
<!-- Node69 -->
<g id="Node000069" class="node">
<title>Node69</title>
<g id="a_Node000069"><a xlink:title=" ">
<polygon fill="#e0e0e0" stroke="#999999" points="2157,-415 2029,-415 2029,-385 2157,-385 2157,-415"/>
<text text-anchor="start" x="2037" y="-403" font-family="Helvetica,sans-Serif" font-size="10.00">deal.II/numerics/vector</text>
<text text-anchor="middle" x="2093" y="-392" font-family="Helvetica,sans-Serif" font-size="10.00">_tools.h</text>
</a>
</g>
</g>
<!-- Node2&#45;&gt;Node69 -->
<g id="edge57_Node000002_Node000069" class="edge">
<title>Node2&#45;&gt;Node69</title>
<g id="a_edge57_Node000002_Node000069"><a xlink:title=" ">
<path fill="none" stroke="#63b8ff" d="M1223.25,-456.47C1233.79,-454.35 1245.3,-452.31 1256,-451 1590.1,-409.95 1680.68,-454.23 2018.91,-415"/>
<polygon fill="#63b8ff" stroke="#63b8ff" points="2019.46,-418.45 2028.99,-413.81 2018.65,-411.5 2019.46,-418.45"/>
</a>
</g>
</g>
<!-- Node70 -->
<g id="Node000070" class="node">
<title>Node70</title>
<g id="a_Node000070"><a xlink:title=" ">
<polygon fill="#e0e0e0" stroke="#999999" points="2235,-409.5 2175,-409.5 2175,-390.5 2235,-390.5 2235,-409.5"/>
<text text-anchor="middle" x="2205" y="-397.5" font-family="Helvetica,sans-Serif" font-size="10.00">iostream</text>
</a>
</g>
</g>
<!-- Node2&#45;&gt;Node70 -->
<g id="edge58_Node000002_Node000070" class="edge">
<title>Node2&#45;&gt;Node70</title>
<g id="a_edge58_Node000002_Node000070"><a xlink:title=" ">
<path fill="none" stroke="#63b8ff" d="M1222.88,-456.49C1233.51,-454.35 1245.17,-452.29 1256,-451 1657.92,-403.16 1768.68,-492.27 2166,-415 2169.01,-414.41 2172.1,-413.64 2175.16,-412.74"/>
<polygon fill="#63b8ff" stroke="#63b8ff" points="2176.28,-416.06 2184.69,-409.61 2174.09,-409.41 2176.28,-416.06"/>
</a>
</g>
</g>
<!-- Node4 -->
<g id="Node000004" class="node">
<title>Node4</title>
<g id="a_Node000004"><a xlink:href="serial__solid_8h.html" target="_top" xlink:title=" ">
<polygon fill="white" stroke="#666666" points="582.5,-343.5 477.5,-343.5 477.5,-324.5 582.5,-324.5 582.5,-343.5"/>
<text text-anchor="middle" x="530" y="-331.5" font-family="Helvetica,sans-Serif" font-size="10.00">core/serial_solid.h</text>
</a>
</g>
</g>
<!-- Node3&#45;&gt;Node4 -->
<g id="edge3_Node000003_Node000004" class="edge">
<title>Node3&#45;&gt;Node4</title>
<g id="a_edge3_Node000003_Node000004"><a xlink:title=" ">
<path fill="none" stroke="#63b8ff" d="M530,-390.37C530,-381.16 530,-366.29 530,-354.27"/>
<polygon fill="#63b8ff" stroke="#63b8ff" points="533.5,-353.91 530,-343.91 526.5,-353.91 533.5,-353.91"/>
</a>
</g>
</g>
<!-- Node16 -->
<g id="Node000016" class="node">
<title>Node16</title>
<g id="a_Node000016"><a xlink:title=" ">
<polygon fill="#e0e0e0" stroke="#999999" points="395.5,-24.5 280.5,-24.5 280.5,-5.5 395.5,-5.5 395.5,-24.5"/>
<text text-anchor="middle" x="338" y="-12.5" font-family="Helvetica,sans-Serif" font-size="10.00">deal.II/base/tensor.h</text>
</a>
</g>
</g>
<!-- Node3&#45;&gt;Node16 -->
<g id="edge30_Node000003_Node000016" class="edge">
<title>Node3&#45;&gt;Node16</title>
<g id="a_edge30_Node000003_Node000016"><a xlink:title=" ">
<path fill="none" stroke="#63b8ff" d="M471.5,-390.47C433.72,-383.24 384.43,-370.51 345,-349 245.35,-294.62 209.69,-268.73 171,-162 146.73,-95.06 244.64,-48.65 300.89,-28.04"/>
<polygon fill="#63b8ff" stroke="#63b8ff" points="302.29,-31.26 310.54,-24.61 299.95,-24.66 302.29,-31.26"/>
</a>
</g>
</g>
<!-- Node3&#45;&gt;Node22 -->
<g id="edge31_Node000003_Node000022" class="edge">
<title>Node3&#45;&gt;Node22</title>
<g id="a_edge31_Node000003_Node000022"><a xlink:title=" ">
<path fill="none" stroke="#63b8ff" d="M546.05,-390.35C576.46,-374.28 644.92,-339.56 706,-319 774.67,-295.89 812.27,-332.69 865,-283 888.24,-261.1 885,-245.93 885,-214 885,-214 885,-214 885,-146 885,-102.39 858.09,-56.78 841.58,-32.89"/>
<polygon fill="#63b8ff" stroke="#63b8ff" points="844.31,-30.68 835.64,-24.58 838.61,-34.75 844.31,-30.68"/>
</a>
</g>
</g>
<!-- Node51 -->
<g id="Node000051" class="node">
<title>Node51</title>
<g id="a_Node000051"><a xlink:title=" ">
<polygon fill="#e0e0e0" stroke="#999999" points="459.5,-349 354.5,-349 354.5,-319 459.5,-319 459.5,-349"/>
<text text-anchor="start" x="362.5" y="-337" font-family="Helvetica,sans-Serif" font-size="10.00">deal.II/fe/mapping</text>
<text text-anchor="middle" x="407" y="-326" font-family="Helvetica,sans-Serif" font-size="10.00">_q_cache.h</text>
</a>
</g>
</g>
<!-- Node3&#45;&gt;Node51 -->
<g id="edge32_Node000003_Node000051" class="edge">
<title>Node3&#45;&gt;Node51</title>
<g id="a_edge32_Node000003_Node000051"><a xlink:title=" ">
<path fill="none" stroke="#63b8ff" d="M513.41,-390.37C495.47,-381.03 466.3,-365.86 443.04,-353.75"/>
<polygon fill="#63b8ff" stroke="#63b8ff" points="444.62,-350.63 434.13,-349.12 441.38,-356.84 444.62,-350.63"/>
</a>
</g>
</g>
<!-- Node5 -->
<g id="Node000005" class="node">
<title>Node5</title>
<g id="a_Node000005"><a xlink:href="pvd__handler_8h.html" target="_top" xlink:title=" ">
<polygon fill="white" stroke="#666666" points="856.5,-283 747.5,-283 747.5,-264 856.5,-264 856.5,-283"/>
<text text-anchor="middle" x="802" y="-271" font-family="Helvetica,sans-Serif" font-size="10.00">core/pvd_handler.h</text>
</a>
</g>
</g>
<!-- Node4&#45;&gt;Node5 -->
<g id="edge4_Node000004_Node000005" class="edge">
<title>Node4&#45;&gt;Node5</title>
<g id="a_edge4_Node000004_Node000005"><a xlink:title=" ">
<path fill="none" stroke="#63b8ff" d="M569.55,-324.49C617.9,-314.1 699.75,-296.49 752.3,-285.19"/>
<polygon fill="#63b8ff" stroke="#63b8ff" points="753.36,-288.54 762.4,-283.02 751.89,-281.7 753.36,-288.54"/>
</a>
</g>
</g>
<!-- Node4&#45;&gt;Node17 -->
<g id="edge25_Node000004_Node000017" class="edge">
<title>Node4&#45;&gt;Node17</title>
<g id="a_edge25_Node000004_Node000017"><a xlink:title=" ">
<path fill="none" stroke="#63b8ff" d="M494.22,-324.47C445.8,-312.69 364.14,-291.89 353,-283 321.68,-258.02 304.57,-233.57 323,-198 335.76,-173.37 360.47,-186.22 374,-162 384.47,-143.24 384.13,-118.02 382.21,-100.94"/>
<polygon fill="#63b8ff" stroke="#63b8ff" points="385.62,-100.02 380.74,-90.61 378.69,-101 385.62,-100.02"/>
</a>
</g>
</g>
<!-- Node4&#45;&gt;Node22 -->
<g id="edge27_Node000004_Node000022" class="edge">
<title>Node4&#45;&gt;Node22</title>
<g id="a_edge27_Node000004_Node000022"><a xlink:title=" ">
<path fill="none" stroke="#63b8ff" d="M535.64,-324.23C545.67,-309.36 568.13,-279.35 595,-264 657.92,-228.06 699.85,-276.14 754,-228 812.14,-176.31 825.21,-76.64 828.15,-35.01"/>
<polygon fill="#63b8ff" stroke="#63b8ff" points="831.65,-35.08 828.74,-24.89 824.66,-34.67 831.65,-35.08"/>
</a>
</g>
</g>
<!-- Node45 -->
<g id="Node000045" class="node">
<title>Node45</title>
<g id="a_Node000045"><a xlink:href="simulation__control_8h.html" target="_top" xlink:title="Simulation control classes for managing time&#45;stepping and iteration control in Lethe.">
<polygon fill="white" stroke="#666666" points="510,-283 370,-283 370,-264 510,-264 510,-283"/>
<text text-anchor="middle" x="440" y="-271" font-family="Helvetica,sans-Serif" font-size="10.00">core/simulation_control.h</text>
</a>
</g>
</g>
<!-- Node4&#45;&gt;Node45 -->
<g id="edge14_Node000004_Node000045" class="edge">
<title>Node4&#45;&gt;Node45</title>
<g id="a_edge14_Node000004_Node000045"><a xlink:title=" ">
<path fill="none" stroke="#63b8ff" d="M516.72,-324.37C502.36,-315.04 479.24,-300.01 462.13,-288.88"/>
<polygon fill="#63b8ff" stroke="#63b8ff" points="463.63,-285.68 453.33,-283.17 459.81,-291.55 463.63,-285.68"/>
</a>
</g>
</g>
<!-- Node48 -->
<g id="Node000048" class="node">
<title>Node48</title>
<g id="a_Node000048"><a xlink:title=" ">
<polygon fill="#e0e0e0" stroke="#999999" points="463.5,-228 332.5,-228 332.5,-198 463.5,-198 463.5,-228"/>
<text text-anchor="start" x="340.5" y="-216" font-family="Helvetica,sans-Serif" font-size="10.00">deal.II/particles/particle</text>
<text text-anchor="middle" x="398" y="-205" font-family="Helvetica,sans-Serif" font-size="10.00">_handler.h</text>
</a>
</g>
</g>
<!-- Node4&#45;&gt;Node48 -->
<g id="edge29_Node000004_Node000048" class="edge">
<title>Node4&#45;&gt;Node48</title>
<g id="a_edge29_Node000004_Node000048"><a xlink:title=" ">
<path fill="none" stroke="#63b8ff" d="M492.76,-324.47C445.48,-313.26 369.03,-293.76 361,-283 349.95,-268.21 361.05,-249.68 373.9,-235.56"/>
<polygon fill="#63b8ff" stroke="#63b8ff" points="376.59,-237.81 381.09,-228.21 371.59,-232.91 376.59,-237.81"/>
</a>
</g>
</g>
<!-- Node49 -->
<g id="Node000049" class="node">
<title>Node49</title>
<g id="a_Node000049"><a xlink:href="solid__objects__parameters_8h.html" target="_top" xlink:title="Parameter classes for solid objects used in Nitsche immersed boundary and DEM simulations.">
<polygon fill="white" stroke="#666666" points="745,-228 641,-228 641,-198 745,-198 745,-228"/>
<text text-anchor="start" x="649" y="-216" font-family="Helvetica,sans-Serif" font-size="10.00">core/solid_objects</text>
<text text-anchor="middle" x="693" y="-205" font-family="Helvetica,sans-Serif" font-size="10.00">_parameters.h</text>
</a>
</g>
</g>
<!-- Node4&#45;&gt;Node49 -->
<g id="edge19_Node000004_Node000049" class="edge">
<title>Node4&#45;&gt;Node49</title>
<g id="a_edge19_Node000004_Node000049"><a xlink:title=" ">
<path fill="none" stroke="#63b8ff" d="M531.84,-324.1C535.28,-309.59 544.04,-280.75 562,-264 581.09,-246.2 607.17,-234.54 631.04,-226.99"/>
<polygon fill="#63b8ff" stroke="#63b8ff" points="632.16,-230.31 640.75,-224.11 630.17,-223.6 632.16,-230.31"/>
</a>
</g>
</g>
<!-- Node14 -->
<g id="Node000014" class="node">
<title>Node14</title>
<g id="a_Node000014"><a xlink:href="tensors__and__points__dimension__manipulation_8h.html" target="_top" xlink:title=" ">
<polygon fill="#fff0f0" stroke="red" points="332,-162 180,-162 180,-132 332,-132 332,-162"/>
<text text-anchor="start" x="188" y="-150" font-family="Helvetica,sans-Serif" font-size="10.00">core/tensors_and_points</text>
<text text-anchor="middle" x="256" y="-139" font-family="Helvetica,sans-Serif" font-size="10.00">_dimension_manipulation.h</text>
</a>
</g>
</g>
<!-- Node4&#45;&gt;Node14 -->
<g id="edge23_Node000004_Node000014" class="edge">
<title>Node4&#45;&gt;Node14</title>
<g id="a_edge23_Node000004_Node000014"><a xlink:title=" ">
<path fill="none" stroke="#63b8ff" d="M492.98,-324.5C484.77,-322.65 476.09,-320.73 468,-319 389.07,-302.11 348.4,-338.71 290,-283 259.78,-254.18 254.87,-202.76 254.86,-172.38"/>
<polygon fill="#63b8ff" stroke="#63b8ff" points="258.37,-172.29 255.05,-162.22 251.37,-172.16 258.37,-172.29"/>
</a>
</g>
</g>
<!-- Node4&#45;&gt;Node33 -->
<g id="edge26_Node000004_Node000033" class="edge">
<title>Node4&#45;&gt;Node33</title>
<g id="a_edge26_Node000004_Node000033"><a xlink:title=" ">
<path fill="none" stroke="#63b8ff" d="M549.92,-324.49C572.95,-314.66 611.08,-298.38 637.54,-287.08"/>
<polygon fill="#63b8ff" stroke="#63b8ff" points="639.23,-290.16 647.05,-283.02 636.48,-283.72 639.23,-290.16"/>
</a>
</g>
</g>
<!-- Node4&#45;&gt;Node50 -->
<g id="edge28_Node000004_Node000050" class="edge">
<title>Node4&#45;&gt;Node50</title>
<g id="a_edge28_Node000004_Node000050"><a xlink:title=" ">
<path fill="none" stroke="#63b8ff" d="M582.66,-326.35C664.87,-315.96 824.02,-295.85 918.13,-283.96"/>
<polygon fill="#63b8ff" stroke="#63b8ff" points="918.67,-287.42 928.15,-282.69 917.79,-280.47 918.67,-287.42"/>
</a>
</g>
</g>
<!-- Node6 -->
<g id="Node000006" class="node">
<title>Node6</title>
<g id="a_Node000006"><a xlink:href="parameters_8h.html" target="_top" xlink:title=" ">
<polygon fill="#fff0f0" stroke="red" points="627,-156.5 521,-156.5 521,-137.5 627,-137.5 627,-156.5"/>
<text text-anchor="middle" x="574" y="-144.5" font-family="Helvetica,sans-Serif" font-size="10.00">core/parameters.h</text>
</a>
</g>
</g>
<!-- Node5&#45;&gt;Node6 -->
<g id="edge5_Node000005_Node000006" class="edge">
<title>Node5&#45;&gt;Node6</title>
<g id="a_edge5_Node000005_Node000006"><a xlink:title=" ">
<path fill="none" stroke="#63b8ff" d="M755.49,-263.99C712.37,-255.45 651.96,-241.65 632,-228 608.94,-212.23 591.75,-184.15 582.29,-165.81"/>
<polygon fill="#63b8ff" stroke="#63b8ff" points="585.39,-164.19 577.84,-156.75 579.11,-167.27 585.39,-164.19"/>
</a>
</g>
</g>
<!-- Node6&#45;&gt;Node17 -->
<g id="edge6_Node000006_Node000017" class="edge">
<title>Node6&#45;&gt;Node17</title>
<g id="a_edge6_Node000006_Node000017"><a xlink:title=" ">
<path fill="none" stroke="#63b8ff" d="M547.7,-137.37C513.44,-126.12 453.39,-106.42 414.95,-93.8"/>
<polygon fill="#63b8ff" stroke="#63b8ff" points="415.79,-90.39 405.19,-90.6 413.6,-97.04 415.79,-90.39"/>
</a>
</g>
</g>
<!-- Node8 -->
<g id="Node000008" class="node">
<title>Node8</title>
<g id="a_Node000008"><a xlink:title=" ">
<polygon fill="#e0e0e0" stroke="#999999" points="590.5,-30 463.5,-30 463.5,0 590.5,0 590.5,-30"/>
<text text-anchor="start" x="471.5" y="-18" font-family="Helvetica,sans-Serif" font-size="10.00">deal.II/base/parameter</text>
<text text-anchor="middle" x="527" y="-7" font-family="Helvetica,sans-Serif" font-size="10.00">_handler.h</text>
</a>
</g>
</g>
<!-- Node6&#45;&gt;Node8 -->
<g id="edge12_Node000006_Node000008" class="edge">
<title>Node6&#45;&gt;Node8</title>
<g id="a_edge12_Node000006_Node000008"><a xlink:title=" ">
<path fill="none" stroke="#63b8ff" d="M568.05,-137.16C561.75,-127.45 551.93,-111.2 546,-96 538.96,-77.95 534.05,-56.56 530.98,-40.44"/>
<polygon fill="#63b8ff" stroke="#63b8ff" points="534.36,-39.46 529.15,-30.23 527.47,-40.69 534.36,-39.46"/>
</a>
</g>
</g>
<!-- Node42 -->
<g id="Node000042" class="node">
<title>Node42</title>
<g id="a_Node000042"><a xlink:title=" ">
<polygon fill="#e0e0e0" stroke="#999999" points="664.5,-96 555.5,-96 555.5,-66 664.5,-66 664.5,-96"/>
<text text-anchor="start" x="563.5" y="-84" font-family="Helvetica,sans-Serif" font-size="10.00">deal.II/base/parsed</text>
<text text-anchor="middle" x="610" y="-73" font-family="Helvetica,sans-Serif" font-size="10.00">_function.h</text>
</a>
</g>
</g>
<!-- Node6&#45;&gt;Node42 -->
<g id="edge13_Node000006_Node000042" class="edge">
<title>Node6&#45;&gt;Node42</title>
<g id="a_edge13_Node000006_Node000042"><a xlink:title=" ">
<path fill="none" stroke="#63b8ff" d="M578.86,-137.37C583.47,-129.16 590.63,-116.44 596.92,-105.26"/>
<polygon fill="#63b8ff" stroke="#63b8ff" points="600.07,-106.79 601.92,-96.36 593.97,-103.36 600.07,-106.79"/>
</a>
</g>
</g>
<!-- Node17&#45;&gt;Node18 -->
<g id="edge7_Node000017_Node000018" class="edge">
<title>Node17&#45;&gt;Node18</title>
<g id="a_edge7_Node000017_Node000018"><a xlink:title=" ">
<path fill="none" stroke="#63b8ff" d="M335.93,-71.81C285.02,-62.07 197.77,-45.23 123,-30 117.69,-28.92 112.15,-27.77 106.63,-26.62"/>
<polygon fill="#63b8ff" stroke="#63b8ff" points="107.27,-23.18 96.77,-24.54 105.83,-30.03 107.27,-23.18"/>
</a>
</g>
</g>
<!-- Node17&#45;&gt;Node21 -->
<g id="edge8_Node000017_Node000021" class="edge">
<title>Node17&#45;&gt;Node21</title>
<g id="a_edge8_Node000017_Node000021"><a xlink:title=" ">
<path fill="none" stroke="#63b8ff" d="M354.45,-71.37C326.96,-61.7 281.67,-45.77 246.71,-33.48"/>
<polygon fill="#63b8ff" stroke="#63b8ff" points="247.74,-30.13 237.14,-30.12 245.41,-36.73 247.74,-30.13"/>
</a>
</g>
</g>
<!-- Node17&#45;&gt;Node8 -->
<g id="edge9_Node000017_Node000008" class="edge">
<title>Node17&#45;&gt;Node8</title>
<g id="a_edge9_Node000017_Node000008"><a xlink:title=" ">
<path fill="none" stroke="#63b8ff" d="M398.96,-71.37C420.94,-61.87 456.89,-46.32 485.11,-34.11"/>
<polygon fill="#63b8ff" stroke="#63b8ff" points="486.57,-37.3 494.36,-30.12 483.79,-30.87 486.57,-37.3"/>
</a>
</g>
</g>
<!-- Node17&#45;&gt;Node16 -->
<g id="edge10_Node000017_Node000016" class="edge">
<title>Node17&#45;&gt;Node16</title>
<g id="a_edge10_Node000017_Node000016"><a xlink:title=" ">
<path fill="none" stroke="#63b8ff" d="M373.47,-71.37C367.27,-61.69 357.05,-45.74 349.17,-33.44"/>
<polygon fill="#63b8ff" stroke="#63b8ff" points="352.05,-31.44 343.7,-24.91 346.15,-35.21 352.05,-31.44"/>
</a>
</g>
</g>
<!-- Node17&#45;&gt;Node22 -->
<g id="edge11_Node000017_Node000022" class="edge">
<title>Node17&#45;&gt;Node22</title>
<g id="a_edge11_Node000017_Node000022"><a xlink:title=" ">
<path fill="none" stroke="#63b8ff" d="M422.15,-73.86C500.04,-62.78 664.79,-39.35 759,-25.95"/>
<polygon fill="#63b8ff" stroke="#63b8ff" points="759.61,-29.4 769.01,-24.53 758.62,-22.47 759.61,-29.4"/>
</a>
</g>
</g>
<!-- Node45&#45;&gt;Node6 -->
<g id="edge17_Node000045_Node000006" class="edge">
<title>Node45&#45;&gt;Node6</title>
<g id="a_edge17_Node000045_Node000006"><a xlink:title=" ">
<path fill="none" stroke="#63b8ff" d="M490.91,-263.92C513.53,-257.6 538.67,-246.71 555,-228 569.85,-210.98 573.6,-184.43 574.3,-166.64"/>
<polygon fill="#63b8ff" stroke="#63b8ff" points="577.8,-166.67 574.41,-156.63 570.8,-166.59 577.8,-166.67"/>
</a>
</g>
</g>
<!-- Node46 -->
<g id="Node000046" class="node">
<title>Node46</title>
<g id="a_Node000046"><a xlink:href="bdf_8h.html" target="_top" xlink:title=" ">
<polygon fill="#fff0f0" stroke="red" points="546.5,-222.5 481.5,-222.5 481.5,-203.5 546.5,-203.5 546.5,-222.5"/>
<text text-anchor="middle" x="514" y="-210.5" font-family="Helvetica,sans-Serif" font-size="10.00">core/bdf.h</text>
</a>
</g>
</g>
<!-- Node45&#45;&gt;Node46 -->
<g id="edge15_Node000045_Node000046" class="edge">
<title>Node45&#45;&gt;Node46</title>
<g id="a_edge15_Node000045_Node000046"><a xlink:title=" ">
<path fill="none" stroke="#63b8ff" d="M450.92,-263.87C462.51,-254.71 481.03,-240.06 495.02,-229.01"/>
<polygon fill="#63b8ff" stroke="#63b8ff" points="497.36,-231.61 503.04,-222.67 493.02,-226.12 497.36,-231.61"/>
</a>
</g>
</g>
<!-- Node45&#45;&gt;Node48 -->
<g id="edge18_Node000045_Node000048" class="edge">
<title>Node45&#45;&gt;Node48</title>
<g id="a_edge18_Node000045_Node000048"><a xlink:title=" ">
<path fill="none" stroke="#63b8ff" d="M433.8,-263.87C428.63,-256.67 421.02,-246.07 414.15,-236.49"/>
<polygon fill="#63b8ff" stroke="#63b8ff" points="416.81,-234.2 408.13,-228.11 411.12,-238.28 416.81,-234.2"/>
</a>
</g>
</g>
<!-- Node46&#45;&gt;Node6 -->
<g id="edge16_Node000046_Node000006" class="edge">
<title>Node46&#45;&gt;Node6</title>
<g id="a_edge16_Node000046_Node000006"><a xlink:title=" ">
<path fill="none" stroke="#63b8ff" d="M522.09,-203.37C531.43,-193.4 547.01,-176.79 558.66,-164.36"/>
<polygon fill="#63b8ff" stroke="#63b8ff" points="561.37,-166.59 565.65,-156.91 556.26,-161.81 561.37,-166.59"/>
</a>
</g>
</g>
<!-- Node49&#45;&gt;Node6 -->
<g id="edge20_Node000049_Node000006" class="edge">
<title>Node49&#45;&gt;Node6</title>
<g id="a_edge20_Node000049_Node000006"><a xlink:title=" ">
<path fill="none" stroke="#63b8ff" d="M666.88,-197.95C646.66,-187.08 618.82,-172.11 598.91,-161.4"/>
<polygon fill="#63b8ff" stroke="#63b8ff" points="600.3,-158.17 589.84,-156.52 596.99,-164.34 600.3,-158.17"/>
</a>
</g>
</g>
<!-- Node49&#45;&gt;Node8 -->
<g id="edge21_Node000049_Node000008" class="edge">
<title>Node49&#45;&gt;Node8</title>
<g id="a_edge21_Node000049_Node000008"><a xlink:title=" ">
<path fill="none" stroke="#63b8ff" d="M695.53,-197.64C699.71,-169.07 704.7,-104.52 673,-66 655.03,-44.16 627.07,-31.84 600.4,-24.88"/>
<polygon fill="#63b8ff" stroke="#63b8ff" points="601.19,-21.48 590.65,-22.56 599.57,-28.28 601.19,-21.48"/>
</a>
</g>
</g>
<!-- Node49&#45;&gt;Node42 -->
<g id="edge22_Node000049_Node000042" class="edge">
<title>Node49&#45;&gt;Node42</title>
<g id="a_edge22_Node000049_Node000042"><a xlink:title=" ">
<path fill="none" stroke="#63b8ff" d="M683.96,-197.84C669.68,-175.47 641.76,-131.74 624.61,-104.88"/>
<polygon fill="#63b8ff" stroke="#63b8ff" points="627.36,-102.69 619.03,-96.14 621.46,-106.45 627.36,-102.69"/>
</a>
</g>
</g>
<!-- Node14&#45;&gt;Node16 -->
<g id="edge24_Node000014_Node000016" class="edge">
<title>Node14&#45;&gt;Node16</title>
<g id="a_edge24_Node000014_Node000016"><a xlink:title=" ">
<path fill="none" stroke="#63b8ff" d="M264.93,-131.84C280.02,-107.92 310.52,-59.56 326.94,-33.53"/>
<polygon fill="#63b8ff" stroke="#63b8ff" points="330.11,-35.07 332.48,-24.75 324.19,-31.34 330.11,-35.07"/>
</a>
</g>
</g>
<!-- Node52&#45;&gt;Node5 -->
<g id="edge35_Node000052_Node000005" class="edge">
<title>Node52&#45;&gt;Node5</title>
<g id="a_edge35_Node000052_Node000005"><a xlink:title=" ">
<path fill="none" stroke="#63b8ff" d="M774.16,-390.65C748.51,-383.82 721.58,-371.44 706,-349 698.4,-338.05 698.82,-330.24 706,-319 715.92,-303.47 732.8,-293.28 749.67,-286.62"/>
<polygon fill="#63b8ff" stroke="#63b8ff" points="751.31,-289.76 759.55,-283.1 748.96,-283.16 751.31,-289.76"/>
</a>
</g>
</g>
<!-- Node53 -->
<g id="Node000053" class="node">
<title>Node53</title>
<g id="a_Node000053"><a xlink:title=" ">
<polygon fill="#e0e0e0" stroke="#999999" points="834.5,-349 715.5,-349 715.5,-319 834.5,-319 834.5,-349"/>
<text text-anchor="start" x="723.5" y="-337" font-family="Helvetica,sans-Serif" font-size="10.00">deal.II/numerics/data</text>
<text text-anchor="middle" x="775" y="-326" font-family="Helvetica,sans-Serif" font-size="10.00">_out.h</text>
</a>
</g>
</g>
<!-- Node52&#45;&gt;Node53 -->
<g id="edge36_Node000052_Node000053" class="edge">
<title>Node52&#45;&gt;Node53</title>
<g id="a_edge36_Node000052_Node000053"><a xlink:title=" ">
<path fill="none" stroke="#63b8ff" d="M831.23,-390.37C822.48,-381.75 808.67,-368.15 796.93,-356.59"/>
<polygon fill="#63b8ff" stroke="#63b8ff" points="799.17,-353.88 789.58,-349.36 794.25,-358.87 799.17,-353.88"/>
</a>
</g>
</g>
<!-- Node54 -->
<g id="Node000054" class="node">
<title>Node54</title>
<g id="a_Node000054"><a xlink:title=" ">
<polygon fill="#e0e0e0" stroke="#999999" points="971.5,-349 852.5,-349 852.5,-319 971.5,-319 971.5,-349"/>
<text text-anchor="start" x="860.5" y="-337" font-family="Helvetica,sans-Serif" font-size="10.00">deal.II/numerics/data</text>
<text text-anchor="middle" x="912" y="-326" font-family="Helvetica,sans-Serif" font-size="10.00">_out_faces.h</text>
</a>
</g>
</g>
<!-- Node52&#45;&gt;Node54 -->
<g id="edge37_Node000052_Node000054" class="edge">
<title>Node52&#45;&gt;Node54</title>
<g id="a_edge37_Node000052_Node000054"><a xlink:title=" ">
<path fill="none" stroke="#63b8ff" d="M849.71,-390.37C859.56,-381.61 875.2,-367.71 888.34,-356.04"/>
<polygon fill="#63b8ff" stroke="#63b8ff" points="890.97,-358.38 896.12,-349.12 886.32,-353.14 890.97,-358.38"/>
</a>
</g>
</g>
<!-- Node56 -->
<g id="Node000056" class="node">
<title>Node56</title>
<g id="a_Node000056"><a xlink:title=" ">
<polygon fill="#e0e0e0" stroke="#999999" points="1808,-349 1690,-349 1690,-319 1808,-319 1808,-349"/>
<text text-anchor="start" x="1698" y="-337" font-family="Helvetica,sans-Serif" font-size="10.00">deal.II/lac/la_parallel</text>
<text text-anchor="middle" x="1749" y="-326" font-family="Helvetica,sans-Serif" font-size="10.00">_block_vector.h</text>
</a>
</g>
</g>
<!-- Node55&#45;&gt;Node56 -->
<g id="edge40_Node000055_Node000056" class="edge">
<title>Node55&#45;&gt;Node56</title>
<g id="a_edge40_Node000055_Node000056"><a xlink:title=" ">
<path fill="none" stroke="#63b8ff" d="M1094.49,-390.47C1102.02,-388.35 1110.27,-386.31 1118,-385 1361.93,-343.52 1430.69,-381.34 1679.67,-349.04"/>
<polygon fill="#63b8ff" stroke="#63b8ff" points="1680.29,-352.49 1689.74,-347.71 1679.37,-345.55 1680.29,-352.49"/>
</a>
</g>
</g>
<!-- Node57 -->
<g id="Node000057" class="node">
<title>Node57</title>
<g id="a_Node000057"><a xlink:title=" ">
<polygon fill="#e0e0e0" stroke="#999999" points="1146,-349 1028,-349 1028,-319 1146,-319 1146,-349"/>
<text text-anchor="start" x="1036" y="-337" font-family="Helvetica,sans-Serif" font-size="10.00">deal.II/lac/la_parallel</text>
<text text-anchor="middle" x="1087" y="-326" font-family="Helvetica,sans-Serif" font-size="10.00">_vector.h</text>
</a>
</g>
</g>
<!-- Node55&#45;&gt;Node57 -->
<g id="edge41_Node000055_Node000057" class="edge">
<title>Node55&#45;&gt;Node57</title>
<g id="a_edge41_Node000055_Node000057"><a xlink:title=" ">
<path fill="none" stroke="#63b8ff" d="M1070.56,-390.37C1072.93,-382.4 1076.55,-370.2 1079.8,-359.27"/>
<polygon fill="#63b8ff" stroke="#63b8ff" points="1083.25,-359.94 1082.74,-349.36 1076.54,-357.95 1083.25,-359.94"/>
</a>
</g>
</g>
<!-- Node58 -->
<g id="Node000058" class="node">
<title>Node58</title>
<g id="a_Node000058"><a xlink:title=" ">
<polygon fill="#e0e0e0" stroke="#999999" points="1283.5,-349 1164.5,-349 1164.5,-319 1283.5,-319 1283.5,-349"/>
<text text-anchor="start" x="1172.5" y="-337" font-family="Helvetica,sans-Serif" font-size="10.00">deal.II/lac/read_write</text>
<text text-anchor="middle" x="1224" y="-326" font-family="Helvetica,sans-Serif" font-size="10.00">_vector.h</text>
</a>
</g>
</g>
<!-- Node55&#45;&gt;Node58 -->
<g id="edge42_Node000055_Node000058" class="edge">
<title>Node55&#45;&gt;Node58</title>
<g id="a_edge42_Node000055_Node000058"><a xlink:title=" ">
<path fill="none" stroke="#63b8ff" d="M1089.04,-390.37C1112.3,-380.82 1150.43,-365.18 1180.24,-352.95"/>
<polygon fill="#63b8ff" stroke="#63b8ff" points="1181.67,-356.15 1189.59,-349.12 1179.01,-349.67 1181.67,-356.15"/>
</a>
</g>
</g>
<!-- Node59 -->
<g id="Node000059" class="node">
<title>Node59</title>
<g id="a_Node000059"><a xlink:title=" ">
<polygon fill="#e0e0e0" stroke="#999999" points="1436,-349 1302,-349 1302,-319 1436,-319 1436,-349"/>
<text text-anchor="start" x="1310" y="-337" font-family="Helvetica,sans-Serif" font-size="10.00">deal.II/lac/trilinos</text>
<text text-anchor="middle" x="1369" y="-326" font-family="Helvetica,sans-Serif" font-size="10.00">_parallel_block_vector.h</text>
</a>
</g>
</g>
<!-- Node55&#45;&gt;Node59 -->
<g id="edge43_Node000055_Node000059" class="edge">
<title>Node55&#45;&gt;Node59</title>
<g id="a_edge43_Node000055_Node000059"><a xlink:title=" ">
<path fill="none" stroke="#63b8ff" d="M1096.99,-390.48C1103.85,-388.57 1111.16,-386.64 1118,-385 1150.34,-377.26 1230.66,-361.48 1291.8,-349.71"/>
<polygon fill="#63b8ff" stroke="#63b8ff" points="1292.66,-353.11 1301.82,-347.78 1291.34,-346.23 1292.66,-353.11"/>
</a>
</g>
</g>
<!-- Node60 -->
<g id="Node000060" class="node">
<title>Node60</title>
<g id="a_Node000060"><a xlink:title=" ">
<polygon fill="#e0e0e0" stroke="#999999" points="1555.5,-349 1454.5,-349 1454.5,-319 1555.5,-319 1555.5,-349"/>
<text text-anchor="start" x="1462.5" y="-337" font-family="Helvetica,sans-Serif" font-size="10.00">deal.II/lac/trilinos</text>
<text text-anchor="middle" x="1505" y="-326" font-family="Helvetica,sans-Serif" font-size="10.00">_vector.h</text>
</a>
</g>
</g>
<!-- Node55&#45;&gt;Node60 -->
<g id="edge44_Node000055_Node000060" class="edge">
<title>Node55&#45;&gt;Node60</title>
<g id="a_edge44_Node000055_Node000060"><a xlink:title=" ">
<path fill="none" stroke="#63b8ff" d="M1095.32,-390.48C1102.63,-388.44 1110.57,-386.44 1118,-385 1258.32,-357.82 1299.06,-372.94 1444.18,-348.98"/>
<polygon fill="#63b8ff" stroke="#63b8ff" points="1445.07,-352.38 1454.35,-347.27 1443.9,-345.48 1445.07,-352.38"/>
</a>
</g>
</g>
<!-- Node61 -->
<g id="Node000061" class="node">
<title>Node61</title>
<g id="a_Node000061"><a xlink:title=" ">
<polygon fill="#e0e0e0" stroke="#999999" points="1672,-349 1574,-349 1574,-319 1672,-319 1672,-349"/>
<text text-anchor="start" x="1582" y="-337" font-family="Helvetica,sans-Serif" font-size="10.00">deal.II/lac/vector</text>
<text text-anchor="middle" x="1623" y="-326" font-family="Helvetica,sans-Serif" font-size="10.00">_operation.h</text>
</a>
</g>
</g>
<!-- Node55&#45;&gt;Node61 -->
<g id="edge45_Node000055_Node000061" class="edge">
<title>Node55&#45;&gt;Node61</title>
<g id="a_edge45_Node000055_Node000061"><a xlink:title=" ">
<path fill="none" stroke="#63b8ff" d="M1094.77,-390.48C1102.22,-388.39 1110.37,-386.36 1118,-385 1310.95,-350.55 1366.36,-379.48 1563.63,-349.04"/>
<polygon fill="#63b8ff" stroke="#63b8ff" points="1564.41,-352.46 1573.75,-347.44 1563.32,-345.54 1564.41,-352.46"/>
</a>
</g>
</g>
</g>
</svg>
