<?xml version="1.0" encoding="UTF-8" standalone="no"?>
<!DOCTYPE svg PUBLIC "-//W3C//DTD SVG 1.1//EN"
 "http://www.w3.org/Graphics/SVG/1.1/DTD/svg11.dtd">
<!-- Generated by graphviz version 2.43.0 (0)
 -->
<!-- Title: /home/runner/work/lethe/lethe/include/solvers/isothermal_compressible_navier_stokes_cls_assembler.h Pages: 1 -->
<svg width="654pt" height="148pt"
 viewBox="0.00 0.00 654.00 148.00" xmlns="http://www.w3.org/2000/svg" xmlns:xlink="http://www.w3.org/1999/xlink">
<g id="graph0" class="graph" transform="scale(1 1) rotate(0) translate(4 144)">
<title>/home/runner/work/lethe/lethe/include/solvers/isothermal_compressible_navier_stokes_cls_assembler.h</title>
<!-- Node1 -->
<g id="Node000001" class="node">
<title>Node1</title>
<g id="a_Node000001"><a xlink:title=" ">
<polygon fill="#999999" stroke="#666666" points="391,-140 218,-140 218,-88 391,-88 391,-140"/>
<text text-anchor="start" x="226" y="-128" font-family="Helvetica,sans-Serif" font-size="10.00">/home/runner/work/lethe</text>
<text text-anchor="start" x="226" y="-117" font-family="Helvetica,sans-Serif" font-size="10.00">/lethe/include/solvers</text>
<text text-anchor="start" x="226" y="-106" font-family="Helvetica,sans-Serif" font-size="10.00">/isothermal_compressible</text>
<text text-anchor="middle" x="304.5" y="-95" font-family="Helvetica,sans-Serif" font-size="10.00">_navier_stokes_cls_assembler.h</text>
</a>
</g>
</g>
<!-- Node2 -->
<g id="Node000002" class="node">
<title>Node2</title>
<g id="a_Node000002"><a xlink:href="fluid__dynamics__sharp_8cc.html" target="_top" xlink:title=" ">
<polygon fill="white" stroke="#666666" points="139,-46.5 0,-46.5 0,-5.5 139,-5.5 139,-46.5"/>
<text text-anchor="start" x="8" y="-34.5" font-family="Helvetica,sans-Serif" font-size="10.00">/home/runner/work/lethe</text>
<text text-anchor="start" x="8" y="-23.5" font-family="Helvetica,sans-Serif" font-size="10.00">/lethe/source/fem&#45;dem</text>
<text text-anchor="middle" x="69.5" y="-12.5" font-family="Helvetica,sans-Serif" font-size="10.00">/fluid_dynamics_sharp.cc</text>
</a>
</g>
</g>
<!-- Node1&#45;&gt;Node2 -->
<g id="edge1_Node000001_Node000002" class="edge">
<title>Node1&#45;&gt;Node2</title>
<g id="a_edge1_Node000001_Node000002"><a xlink:title=" ">
<path fill="none" stroke="#63b8ff" d="M226.45,-84.44C192.46,-72 153.48,-57.73 122.87,-46.53"/>
<polygon fill="#63b8ff" stroke="#63b8ff" points="225.3,-87.74 235.9,-87.89 227.71,-81.17 225.3,-87.74"/>
</a>
</g>
</g>
<!-- Node3 -->
<g id="Node000003" class="node">
<title>Node3</title>
<g id="a_Node000003"><a xlink:href="fluid__dynamics__block_8cc.html" target="_top" xlink:title=" ">
<polygon fill="white" stroke="#666666" points="295.5,-46.5 157.5,-46.5 157.5,-5.5 295.5,-5.5 295.5,-46.5"/>
<text text-anchor="start" x="165.5" y="-34.5" font-family="Helvetica,sans-Serif" font-size="10.00">/home/runner/work/lethe</text>
<text text-anchor="start" x="165.5" y="-23.5" font-family="Helvetica,sans-Serif" font-size="10.00">/lethe/source/solvers</text>
<text text-anchor="middle" x="226.5" y="-12.5" font-family="Helvetica,sans-Serif" font-size="10.00">/fluid_dynamics_block.cc</text>
</a>
</g>
</g>
<!-- Node1&#45;&gt;Node3 -->
<g id="edge2_Node000001_Node000003" class="edge">
<title>Node1&#45;&gt;Node3</title>
<g id="a_edge2_Node000001_Node000003"><a xlink:title=" ">
<path fill="none" stroke="#63b8ff" d="M274.63,-80.07C264.42,-68.81 253.33,-56.58 244.37,-46.7"/>
<polygon fill="#63b8ff" stroke="#63b8ff" points="272.21,-82.61 281.52,-87.66 277.39,-77.9 272.21,-82.61"/>
</a>
</g>
</g>
<!-- Node4 -->
<g id="Node000004" class="node">
<title>Node4</title>
<g id="a_Node000004"><a xlink:href="fluid__dynamics__matrix__based_8cc.html" target="_top" xlink:title=" ">
<polygon fill="white" stroke="#666666" points="451,-52 314,-52 314,0 451,0 451,-52"/>
<text text-anchor="start" x="322" y="-40" font-family="Helvetica,sans-Serif" font-size="10.00">/home/runner/work/lethe</text>
<text text-anchor="start" x="322" y="-29" font-family="Helvetica,sans-Serif" font-size="10.00">/lethe/source/solvers</text>
<text text-anchor="start" x="322" y="-18" font-family="Helvetica,sans-Serif" font-size="10.00">/fluid_dynamics_matrix</text>
<text text-anchor="middle" x="382.5" y="-7" font-family="Helvetica,sans-Serif" font-size="10.00">_based.cc</text>
</a>
</g>
</g>
<!-- Node1&#45;&gt;Node4 -->
<g id="edge3_Node000001_Node000004" class="edge">
<title>Node1&#45;&gt;Node4</title>
<g id="a_edge3_Node000001_Node000004"><a xlink:title=" ">
<path fill="none" stroke="#63b8ff" d="M334.36,-80.08C342.76,-70.81 351.76,-60.89 359.68,-52.16"/>
<polygon fill="#63b8ff" stroke="#63b8ff" points="331.61,-77.9 327.48,-87.66 336.79,-82.61 331.61,-77.9"/>
</a>
</g>
</g>
<!-- Node5 -->
<g id="Node000005" class="node">
<title>Node5</title>
<g id="a_Node000005"><a xlink:href="isothermal__compressible__navier__stokes__cls__assembler_8cc.html" target="_top" xlink:title=" ">
<polygon fill="white" stroke="#666666" points="646,-52 469,-52 469,0 646,0 646,-52"/>
<text text-anchor="start" x="477" y="-40" font-family="Helvetica,sans-Serif" font-size="10.00">/home/runner/work/lethe</text>
<text text-anchor="start" x="477" y="-29" font-family="Helvetica,sans-Serif" font-size="10.00">/lethe/source/solvers</text>
<text text-anchor="start" x="477" y="-18" font-family="Helvetica,sans-Serif" font-size="10.00">/isothermal_compressible</text>
<text text-anchor="middle" x="557.5" y="-7" font-family="Helvetica,sans-Serif" font-size="10.00">_navier_stokes_cls_assembler.cc</text>
</a>
</g>
</g>
<!-- Node1&#45;&gt;Node5 -->
<g id="edge4_Node000001_Node000005" class="edge">
<title>Node1&#45;&gt;Node5</title>
<g id="a_edge4_Node000001_Node000005"><a xlink:title=" ">
<path fill="none" stroke="#63b8ff" d="M388.21,-84.54C419.02,-74.07 453.67,-62.3 483.55,-52.14"/>
<polygon fill="#63b8ff" stroke="#63b8ff" points="386.7,-81.36 378.36,-87.89 388.95,-87.99 386.7,-81.36"/>
</a>
</g>
</g>
</g>
</svg>
