<?xml version="1.0" encoding="UTF-8" standalone="no"?>
<!DOCTYPE svg PUBLIC "-//W3C//DTD SVG 1.1//EN"
 "http://www.w3.org/Graphics/SVG/1.1/DTD/svg11.dtd">
<!-- Generated by graphviz version 2.43.0 (0)
 -->
<!-- Title: /home/runner/work/lethe/lethe/source/dem/lagrangian_post_processing.cc Pages: 1 -->
<svg width="2073pt" height="566pt"
 viewBox="0.00 0.00 2073.00 566.00" xmlns="http://www.w3.org/2000/svg" xmlns:xlink="http://www.w3.org/1999/xlink">
<g id="graph0" class="graph" transform="scale(1 1) rotate(0) translate(4 562)">
<title>/home/runner/work/lethe/lethe/source/dem/lagrangian_post_processing.cc</title>
<!-- Node1 -->
<g id="Node000001" class="node">
<title>Node1</title>
<g id="a_Node000001"><a xlink:title=" ">
<polygon fill="#999999" stroke="#666666" points="1414.5,-558 1255.5,-558 1255.5,-517 1414.5,-517 1414.5,-558"/>
<text text-anchor="start" x="1263.5" y="-546" font-family="Helvetica,sans-Serif" font-size="10.00">/home/runner/work/lethe</text>
<text text-anchor="start" x="1263.5" y="-535" font-family="Helvetica,sans-Serif" font-size="10.00">/lethe/source/dem/lagrangian</text>
<text text-anchor="middle" x="1335" y="-524" font-family="Helvetica,sans-Serif" font-size="10.00">_post_processing.cc</text>
</a>
</g>
</g>
<!-- Node2 -->
<g id="Node000002" class="node">
<title>Node2</title>
<g id="a_Node000002"><a xlink:href="dem__properties_8h.html" target="_top" xlink:title="DEM particle property definitions and output name management.">
<polygon fill="white" stroke="#666666" points="1357,-90.5 1231,-90.5 1231,-71.5 1357,-71.5 1357,-90.5"/>
<text text-anchor="middle" x="1294" y="-78.5" font-family="Helvetica,sans-Serif" font-size="10.00">core/dem_properties.h</text>
</a>
</g>
</g>
<!-- Node1&#45;&gt;Node2 -->
<g id="edge1_Node000001_Node000002" class="edge">
<title>Node1&#45;&gt;Node2</title>
<g id="a_edge1_Node000001_Node000002"><a xlink:title=" ">
<path fill="none" stroke="#63b8ff" d="M1325.8,-516.78C1314.56,-490.83 1297,-443.51 1297,-401 1297,-401 1297,-401 1297,-212 1297,-172.44 1295.59,-126.12 1294.71,-100.84"/>
<polygon fill="#63b8ff" stroke="#63b8ff" points="1298.19,-100.38 1294.33,-90.52 1291.2,-100.64 1298.19,-100.38"/>
</a>
</g>
</g>
<!-- Node5 -->
<g id="Node000005" class="node">
<title>Node5</title>
<g id="a_Node000005"><a xlink:href="solutions__output_8h.html" target="_top" xlink:title=" ">
<polygon fill="white" stroke="#666666" points="1713.5,-475.5 1582.5,-475.5 1582.5,-456.5 1713.5,-456.5 1713.5,-475.5"/>
<text text-anchor="middle" x="1648" y="-463.5" font-family="Helvetica,sans-Serif" font-size="10.00">core/solutions_output.h</text>
</a>
</g>
</g>
<!-- Node1&#45;&gt;Node5 -->
<g id="edge4_Node000001_Node000005" class="edge">
<title>Node1&#45;&gt;Node5</title>
<g id="a_edge4_Node000001_Node000005"><a xlink:title=" ">
<path fill="none" stroke="#63b8ff" d="M1414.79,-518.78C1473.25,-505.8 1550.68,-488.61 1599.93,-477.67"/>
<polygon fill="#63b8ff" stroke="#63b8ff" points="1600.69,-481.09 1609.7,-475.5 1599.18,-474.26 1600.69,-481.09"/>
</a>
</g>
</g>
<!-- Node20 -->
<g id="Node000020" class="node">
<title>Node20</title>
<g id="a_Node000020"><a xlink:title=" ">
<polygon fill="#e0e0e0" stroke="#999999" points="1235,-24.5 1095,-24.5 1095,-5.5 1235,-5.5 1235,-24.5"/>
<text text-anchor="middle" x="1165" y="-12.5" font-family="Helvetica,sans-Serif" font-size="10.00">deal.II/dofs/dof_handler.h</text>
</a>
</g>
</g>
<!-- Node1&#45;&gt;Node20 -->
<g id="edge73_Node000001_Node000020" class="edge">
<title>Node1&#45;&gt;Node20</title>
<g id="a_edge73_Node000001_Node000020"><a xlink:title=" ">
<path fill="none" stroke="#63b8ff" d="M1335,-516.75C1335,-490.37 1335,-442.17 1335,-401 1335,-401 1335,-401 1335,-333 1335,-213.54 1439.57,-160.12 1366,-66 1356.99,-54.47 1278.22,-37.4 1222.01,-26.49"/>
<polygon fill="#63b8ff" stroke="#63b8ff" points="1222.64,-23.04 1212.15,-24.59 1221.31,-29.91 1222.64,-23.04"/>
</a>
</g>
</g>
<!-- Node41 -->
<g id="Node000041" class="node">
<title>Node41</title>
<g id="a_Node000041"><a xlink:title=" ">
<polygon fill="#e0e0e0" stroke="#999999" points="1932.5,-415 1813.5,-415 1813.5,-385 1932.5,-385 1932.5,-415"/>
<text text-anchor="start" x="1821.5" y="-403" font-family="Helvetica,sans-Serif" font-size="10.00">deal.II/numerics/data</text>
<text text-anchor="middle" x="1873" y="-392" font-family="Helvetica,sans-Serif" font-size="10.00">_out.h</text>
</a>
</g>
</g>
<!-- Node1&#45;&gt;Node41 -->
<g id="edge74_Node000001_Node000041" class="edge">
<title>Node1&#45;&gt;Node41</title>
<g id="a_edge74_Node000001_Node000041"><a xlink:title=" ">
<path fill="none" stroke="#63b8ff" d="M1414.86,-533.17C1494.61,-527.97 1619.84,-514.73 1723,-481 1767.49,-466.45 1814.42,-439.23 1843.7,-420.61"/>
<polygon fill="#63b8ff" stroke="#63b8ff" points="1845.69,-423.5 1852.2,-415.14 1841.89,-417.61 1845.69,-423.5"/>
</a>
</g>
</g>
<!-- Node43 -->
<g id="Node000043" class="node">
<title>Node43</title>
<g id="a_Node000043"><a xlink:href="lagrangian__post__processing_8h.html" target="_top" xlink:title=" ">
<polygon fill="white" stroke="#666666" points="1149.5,-481 1030.5,-481 1030.5,-451 1149.5,-451 1149.5,-481"/>
<text text-anchor="start" x="1038.5" y="-469" font-family="Helvetica,sans-Serif" font-size="10.00">dem/lagrangian_post</text>
<text text-anchor="middle" x="1090" y="-458" font-family="Helvetica,sans-Serif" font-size="10.00">_processing.h</text>
</a>
</g>
</g>
<!-- Node1&#45;&gt;Node43 -->
<g id="edge32_Node000001_Node000043" class="edge">
<title>Node1&#45;&gt;Node43</title>
<g id="a_edge32_Node000001_Node000043"><a xlink:title=" ">
<path fill="none" stroke="#63b8ff" d="M1266.1,-516.96C1229.23,-506.5 1184.29,-493.75 1149.04,-483.75"/>
<polygon fill="#63b8ff" stroke="#63b8ff" points="1149.94,-480.37 1139.37,-481 1148.03,-487.1 1149.94,-480.37"/>
</a>
</g>
</g>
<!-- Node3 -->
<g id="Node000003" class="node">
<title>Node3</title>
<g id="a_Node000003"><a xlink:title=" ">
<polygon fill="#e0e0e0" stroke="#999999" points="1316,-24.5 1272,-24.5 1272,-5.5 1316,-5.5 1316,-24.5"/>
<text text-anchor="middle" x="1294" y="-12.5" font-family="Helvetica,sans-Serif" font-size="10.00">string</text>
</a>
</g>
</g>
<!-- Node2&#45;&gt;Node3 -->
<g id="edge2_Node000002_Node000003" class="edge">
<title>Node2&#45;&gt;Node3</title>
<g id="a_edge2_Node000002_Node000003"><a xlink:title=" ">
<path fill="none" stroke="#63b8ff" d="M1294,-71.37C1294,-62.16 1294,-47.29 1294,-35.27"/>
<polygon fill="#63b8ff" stroke="#63b8ff" points="1297.5,-34.91 1294,-24.91 1290.5,-34.91 1297.5,-34.91"/>
</a>
</g>
</g>
<!-- Node4 -->
<g id="Node000004" class="node">
<title>Node4</title>
<g id="a_Node000004"><a xlink:title=" ">
<polygon fill="#e0e0e0" stroke="#999999" points="1076.5,-24.5 1029.5,-24.5 1029.5,-5.5 1076.5,-5.5 1076.5,-24.5"/>
<text text-anchor="middle" x="1053" y="-12.5" font-family="Helvetica,sans-Serif" font-size="10.00">vector</text>
</a>
</g>
</g>
<!-- Node2&#45;&gt;Node4 -->
<g id="edge3_Node000002_Node000004" class="edge">
<title>Node2&#45;&gt;Node4</title>
<g id="a_edge3_Node000002_Node000004"><a xlink:title=" ">
<path fill="none" stroke="#63b8ff" d="M1249.18,-71.46C1206.64,-62.84 1141.2,-48.2 1086,-30 1084.37,-29.46 1082.72,-28.88 1081.05,-28.27"/>
<polygon fill="#63b8ff" stroke="#63b8ff" points="1082.23,-24.97 1071.64,-24.54 1079.65,-31.48 1082.23,-24.97"/>
</a>
</g>
</g>
<!-- Node6 -->
<g id="Node000006" class="node">
<title>Node6</title>
<g id="a_Node000006"><a xlink:href="pvd__handler_8h.html" target="_top" xlink:title=" ">
<polygon fill="white" stroke="#666666" points="1658.5,-409.5 1549.5,-409.5 1549.5,-390.5 1658.5,-390.5 1658.5,-409.5"/>
<text text-anchor="middle" x="1604" y="-397.5" font-family="Helvetica,sans-Serif" font-size="10.00">core/pvd_handler.h</text>
</a>
</g>
</g>
<!-- Node5&#45;&gt;Node6 -->
<g id="edge5_Node000005_Node000006" class="edge">
<title>Node5&#45;&gt;Node6</title>
<g id="a_edge5_Node000005_Node000006"><a xlink:title=" ">
<path fill="none" stroke="#63b8ff" d="M1642.07,-456.37C1635.41,-446.69 1624.44,-430.74 1615.99,-418.44"/>
<polygon fill="#63b8ff" stroke="#63b8ff" points="1618.67,-416.16 1610.12,-409.91 1612.9,-420.13 1618.67,-416.16"/>
</a>
</g>
</g>
<!-- Node5&#45;&gt;Node41 -->
<g id="edge30_Node000005_Node000041" class="edge">
<title>Node5&#45;&gt;Node41</title>
<g id="a_edge30_Node000005_Node000041"><a xlink:title=" ">
<path fill="none" stroke="#63b8ff" d="M1678.34,-456.37C1712.92,-446.54 1770.24,-430.23 1813.76,-417.85"/>
<polygon fill="#63b8ff" stroke="#63b8ff" points="1814.71,-421.22 1823.37,-415.12 1812.8,-414.49 1814.71,-421.22"/>
</a>
</g>
</g>
<!-- Node42 -->
<g id="Node000042" class="node">
<title>Node42</title>
<g id="a_Node000042"><a xlink:title=" ">
<polygon fill="#e0e0e0" stroke="#999999" points="1795.5,-415 1676.5,-415 1676.5,-385 1795.5,-385 1795.5,-415"/>
<text text-anchor="start" x="1684.5" y="-403" font-family="Helvetica,sans-Serif" font-size="10.00">deal.II/numerics/data</text>
<text text-anchor="middle" x="1736" y="-392" font-family="Helvetica,sans-Serif" font-size="10.00">_out_faces.h</text>
</a>
</g>
</g>
<!-- Node5&#45;&gt;Node42 -->
<g id="edge31_Node000005_Node000042" class="edge">
<title>Node5&#45;&gt;Node42</title>
<g id="a_edge31_Node000005_Node000042"><a xlink:title=" ">
<path fill="none" stroke="#63b8ff" d="M1659.87,-456.37C1672.25,-447.36 1692.11,-432.92 1708.43,-421.05"/>
<polygon fill="#63b8ff" stroke="#63b8ff" points="1710.56,-423.83 1716.59,-415.12 1706.45,-418.17 1710.56,-423.83"/>
</a>
</g>
</g>
<!-- Node7 -->
<g id="Node000007" class="node">
<title>Node7</title>
<g id="a_Node000007"><a xlink:href="parameters_8h.html" target="_top" xlink:title=" ">
<polygon fill="white" stroke="#666666" points="1657,-283 1551,-283 1551,-264 1657,-264 1657,-283"/>
<text text-anchor="middle" x="1604" y="-271" font-family="Helvetica,sans-Serif" font-size="10.00">core/parameters.h</text>
</a>
</g>
</g>
<!-- Node6&#45;&gt;Node7 -->
<g id="edge6_Node000006_Node000007" class="edge">
<title>Node6&#45;&gt;Node7</title>
<g id="a_edge6_Node000006_Node000007"><a xlink:title=" ">
<path fill="none" stroke="#63b8ff" d="M1604,-390.44C1604,-370.54 1604,-320.76 1604,-293.35"/>
<polygon fill="#63b8ff" stroke="#63b8ff" points="1607.5,-293.12 1604,-283.12 1600.5,-293.12 1607.5,-293.12"/>
</a>
</g>
</g>
<!-- Node8 -->
<g id="Node000008" class="node">
<title>Node8</title>
<g id="a_Node000008"><a xlink:href="dimensionality_8h.html" target="_top" xlink:title=" ">
<polygon fill="white" stroke="#666666" points="2036.5,-222.5 1915.5,-222.5 1915.5,-203.5 2036.5,-203.5 2036.5,-222.5"/>
<text text-anchor="middle" x="1976" y="-210.5" font-family="Helvetica,sans-Serif" font-size="10.00">core/dimensionality.h</text>
</a>
</g>
</g>
<!-- Node7&#45;&gt;Node8 -->
<g id="edge7_Node000007_Node000008" class="edge">
<title>Node7&#45;&gt;Node8</title>
<g id="a_edge7_Node000007_Node000008"><a xlink:title=" ">
<path fill="none" stroke="#63b8ff" d="M1657.3,-264.12C1724.41,-253.56 1839.63,-235.45 1911.6,-224.13"/>
<polygon fill="#63b8ff" stroke="#63b8ff" points="1912.56,-227.52 1921.89,-222.51 1911.47,-220.6 1912.56,-227.52"/>
</a>
</g>
</g>
<!-- Node9 -->
<g id="Node000009" class="node">
<title>Node9</title>
<g id="a_Node000009"><a xlink:title=" ">
<polygon fill="#e0e0e0" stroke="#999999" points="1912.5,-30 1785.5,-30 1785.5,0 1912.5,0 1912.5,-30"/>
<text text-anchor="start" x="1793.5" y="-18" font-family="Helvetica,sans-Serif" font-size="10.00">deal.II/base/parameter</text>
<text text-anchor="middle" x="1849" y="-7" font-family="Helvetica,sans-Serif" font-size="10.00">_handler.h</text>
</a>
</g>
</g>
<!-- Node7&#45;&gt;Node9 -->
<g id="edge27_Node000007_Node000009" class="edge">
<title>Node7&#45;&gt;Node9</title>
<g id="a_edge27_Node000007_Node000009"><a xlink:title=" ">
<path fill="none" stroke="#63b8ff" d="M1657.26,-269.23C1716.68,-264.4 1807.46,-253.04 1830,-228 1877.18,-175.59 1864.58,-83.52 1855.11,-40.03"/>
<polygon fill="#63b8ff" stroke="#63b8ff" points="1858.47,-39.03 1852.8,-30.08 1851.65,-40.61 1858.47,-39.03"/>
</a>
</g>
</g>
<!-- Node10 -->
<g id="Node000010" class="node">
<title>Node10</title>
<g id="a_Node000010"><a xlink:href="ib__particle_8h.html" target="_top" xlink:title=" ">
<polygon fill="white" stroke="#666666" points="1268.5,-222.5 1167.5,-222.5 1167.5,-203.5 1268.5,-203.5 1268.5,-222.5"/>
<text text-anchor="middle" x="1218" y="-210.5" font-family="Helvetica,sans-Serif" font-size="10.00">core/ib_particle.h</text>
</a>
</g>
</g>
<!-- Node7&#45;&gt;Node10 -->
<g id="edge9_Node000007_Node000010" class="edge">
<title>Node7&#45;&gt;Node10</title>
<g id="a_edge9_Node000007_Node000010"><a xlink:title=" ">
<path fill="none" stroke="#63b8ff" d="M1550.73,-264.43C1479.53,-253.64 1353.62,-234.55 1278.78,-223.21"/>
<polygon fill="#63b8ff" stroke="#63b8ff" points="1278.99,-219.7 1268.57,-221.66 1277.94,-226.62 1278.99,-219.7"/>
</a>
</g>
</g>
<!-- Node15 -->
<g id="Node000015" class="node">
<title>Node15</title>
<g id="a_Node000015"><a xlink:href="core_2utilities_8h.html" target="_top" xlink:title=" ">
<polygon fill="#fff0f0" stroke="red" points="1099,-90.5 1013,-90.5 1013,-71.5 1099,-71.5 1099,-90.5"/>
<text text-anchor="middle" x="1056" y="-78.5" font-family="Helvetica,sans-Serif" font-size="10.00">core/utilities.h</text>
</a>
</g>
</g>
<!-- Node7&#45;&gt;Node15 -->
<g id="edge26_Node000007_Node000015" class="edge">
<title>Node7&#45;&gt;Node15</title>
<g id="a_edge26_Node000007_Node000015"><a xlink:title=" ">
<path fill="none" stroke="#63b8ff" d="M1550.65,-269.41C1440,-262.67 1192.99,-245.84 1159,-228 1106.69,-200.54 1075.2,-133.12 1062.51,-100.4"/>
<polygon fill="#63b8ff" stroke="#63b8ff" points="1065.68,-98.9 1058.92,-90.75 1059.12,-101.34 1065.68,-98.9"/>
</a>
</g>
</g>
<!-- Node38 -->
<g id="Node000038" class="node">
<title>Node38</title>
<g id="a_Node000038"><a xlink:title=" ">
<polygon fill="#e0e0e0" stroke="#999999" points="1735.5,-162 1626.5,-162 1626.5,-132 1735.5,-132 1735.5,-162"/>
<text text-anchor="start" x="1634.5" y="-150" font-family="Helvetica,sans-Serif" font-size="10.00">deal.II/base/parsed</text>
<text text-anchor="middle" x="1681" y="-139" font-family="Helvetica,sans-Serif" font-size="10.00">_function.h</text>
</a>
</g>
</g>
<!-- Node7&#45;&gt;Node38 -->
<g id="edge28_Node000007_Node000038" class="edge">
<title>Node7&#45;&gt;Node38</title>
<g id="a_edge28_Node000007_Node000038"><a xlink:title=" ">
<path fill="none" stroke="#63b8ff" d="M1620.54,-263.99C1633.76,-256.34 1651.72,-243.87 1662,-228 1672.82,-211.29 1677.49,-189.05 1679.5,-172.26"/>
<polygon fill="#63b8ff" stroke="#63b8ff" points="1683,-172.41 1680.47,-162.12 1676.03,-171.74 1683,-172.41"/>
</a>
</g>
</g>
<!-- Node39 -->
<g id="Node000039" class="node">
<title>Node39</title>
<g id="a_Node000039"><a xlink:href="multiphysics_8h.html" target="_top" xlink:title="Identifiers for multiphysics modules and their solution fields.">
<polygon fill="white" stroke="#666666" points="1821,-222.5 1709,-222.5 1709,-203.5 1821,-203.5 1821,-222.5"/>
<text text-anchor="middle" x="1765" y="-210.5" font-family="Helvetica,sans-Serif" font-size="10.00">core/multiphysics.h</text>
</a>
</g>
</g>
<!-- Node7&#45;&gt;Node39 -->
<g id="edge25_Node000007_Node000039" class="edge">
<title>Node7&#45;&gt;Node39</title>
<g id="a_edge25_Node000007_Node000039"><a xlink:title=" ">
<path fill="none" stroke="#63b8ff" d="M1627.41,-263.99C1654.95,-253.99 1700.87,-237.3 1732.01,-225.99"/>
<polygon fill="#63b8ff" stroke="#63b8ff" points="1733.36,-229.22 1741.56,-222.52 1730.97,-222.64 1733.36,-229.22"/>
</a>
</g>
</g>
<!-- Node40 -->
<g id="Node000040" class="node">
<title>Node40</title>
<g id="a_Node000040"><a xlink:title=" ">
<polygon fill="#e0e0e0" stroke="#999999" points="1652.5,-228 1489.5,-228 1489.5,-198 1652.5,-198 1652.5,-228"/>
<text text-anchor="start" x="1497.5" y="-216" font-family="Helvetica,sans-Serif" font-size="10.00">deal.II/multigrid/mg</text>
<text text-anchor="middle" x="1571" y="-205" font-family="Helvetica,sans-Serif" font-size="10.00">_transfer_global_coarsening.h</text>
</a>
</g>
</g>
<!-- Node7&#45;&gt;Node40 -->
<g id="edge29_Node000007_Node000040" class="edge">
<title>Node7&#45;&gt;Node40</title>
<g id="a_edge29_Node000007_Node000040"><a xlink:title=" ">
<path fill="none" stroke="#63b8ff" d="M1599.13,-263.87C1595.15,-256.81 1589.33,-246.5 1584.02,-237.08"/>
<polygon fill="#63b8ff" stroke="#63b8ff" points="1586.92,-235.1 1578.96,-228.11 1580.83,-238.54 1586.92,-235.1"/>
</a>
</g>
</g>
<!-- Node8&#45;&gt;Node9 -->
<g id="edge8_Node000008_Node000009" class="edge">
<title>Node8&#45;&gt;Node9</title>
<g id="a_edge8_Node000008_Node000009"><a xlink:title=" ">
<path fill="none" stroke="#63b8ff" d="M1970.38,-203.33C1951.74,-174.55 1891.54,-81.65 1863.55,-38.46"/>
<polygon fill="#63b8ff" stroke="#63b8ff" points="1866.47,-36.53 1858.1,-30.04 1860.6,-40.33 1866.47,-36.53"/>
</a>
</g>
</g>
<!-- Node10&#45;&gt;Node2 -->
<g id="edge10_Node000010_Node000002" class="edge">
<title>Node10&#45;&gt;Node2</title>
<g id="a_edge10_Node000010_Node000002"><a xlink:title=" ">
<path fill="none" stroke="#63b8ff" d="M1222.99,-203.47C1235.28,-182.45 1267.21,-127.82 1283.75,-99.54"/>
<polygon fill="#63b8ff" stroke="#63b8ff" points="1286.87,-101.13 1288.9,-90.73 1280.83,-97.6 1286.87,-101.13"/>
</a>
</g>
</g>
<!-- Node10&#45;&gt;Node4 -->
<g id="edge24_Node000010_Node000004" class="edge">
<title>Node10&#45;&gt;Node4</title>
<g id="a_edge24_Node000010_Node000004"><a xlink:title=" ">
<path fill="none" stroke="#63b8ff" d="M1217.9,-203.35C1217.35,-187.87 1214.41,-154.89 1200,-132 1170.04,-84.43 1113.48,-48.19 1079.93,-29.69"/>
<polygon fill="#63b8ff" stroke="#63b8ff" points="1081.18,-26.39 1070.71,-24.73 1077.86,-32.55 1081.18,-26.39"/>
</a>
</g>
</g>
<!-- Node11 -->
<g id="Node000011" class="node">
<title>Node11</title>
<g id="a_Node000011"><a xlink:href="shape_8h.html" target="_top" xlink:title=" ">
<polygon fill="#fff0f0" stroke="red" points="1190.5,-156.5 1111.5,-156.5 1111.5,-137.5 1190.5,-137.5 1190.5,-156.5"/>
<text text-anchor="middle" x="1151" y="-144.5" font-family="Helvetica,sans-Serif" font-size="10.00">core/shape.h</text>
</a>
</g>
</g>
<!-- Node10&#45;&gt;Node11 -->
<g id="edge11_Node000010_Node000011" class="edge">
<title>Node10&#45;&gt;Node11</title>
<g id="a_edge11_Node000010_Node000011"><a xlink:title=" ">
<path fill="none" stroke="#63b8ff" d="M1208.96,-203.37C1198.43,-193.31 1180.81,-176.48 1167.76,-164.01"/>
<polygon fill="#63b8ff" stroke="#63b8ff" points="1169.97,-161.28 1160.32,-156.91 1165.14,-166.34 1169.97,-161.28"/>
</a>
</g>
</g>
<!-- Node13 -->
<g id="Node000013" class="node">
<title>Node13</title>
<g id="a_Node000013"><a xlink:title=" ">
<polygon fill="#e0e0e0" stroke="#999999" points="805,-24.5 695,-24.5 695,-5.5 805,-5.5 805,-24.5"/>
<text text-anchor="middle" x="750" y="-12.5" font-family="Helvetica,sans-Serif" font-size="10.00">deal.II/base/point.h</text>
</a>
</g>
</g>
<!-- Node10&#45;&gt;Node13 -->
<g id="edge23_Node000010_Node000013" class="edge">
<title>Node10&#45;&gt;Node13</title>
<g id="a_edge23_Node000010_Node000013"><a xlink:title=" ">
<path fill="none" stroke="#63b8ff" d="M1197.59,-203.45C1123.39,-172.38 867.73,-65.31 779.9,-28.52"/>
<polygon fill="#63b8ff" stroke="#63b8ff" points="781.09,-25.23 770.52,-24.59 778.39,-31.68 781.09,-25.23"/>
</a>
</g>
</g>
<!-- Node10&#45;&gt;Node38 -->
<g id="edge22_Node000010_Node000038" class="edge">
<title>Node10&#45;&gt;Node38</title>
<g id="a_edge22_Node000010_Node000038"><a xlink:title=" ">
<path fill="none" stroke="#63b8ff" d="M1268.87,-204.97C1353.56,-193.26 1523.29,-169.8 1616.34,-156.94"/>
<polygon fill="#63b8ff" stroke="#63b8ff" points="1617.04,-160.37 1626.47,-155.54 1616.08,-153.44 1617.04,-160.37"/>
</a>
</g>
</g>
<!-- Node11&#45;&gt;Node15 -->
<g id="edge12_Node000011_Node000015" class="edge">
<title>Node11&#45;&gt;Node15</title>
<g id="a_edge12_Node000011_Node000015"><a xlink:title=" ">
<path fill="none" stroke="#63b8ff" d="M1138.19,-137.37C1122.61,-126.87 1096.07,-109 1077.38,-96.4"/>
<polygon fill="#63b8ff" stroke="#63b8ff" points="1079.16,-93.38 1068.91,-90.7 1075.25,-99.19 1079.16,-93.38"/>
</a>
</g>
</g>
<!-- Node11&#45;&gt;Node20 -->
<g id="edge21_Node000011_Node000020" class="edge">
<title>Node11&#45;&gt;Node20</title>
<g id="a_edge21_Node000011_Node000020"><a xlink:title=" ">
<path fill="none" stroke="#63b8ff" d="M1151.92,-137.47C1154.14,-116.82 1159.86,-63.72 1162.95,-35.04"/>
<polygon fill="#63b8ff" stroke="#63b8ff" points="1166.47,-35.05 1164.06,-24.73 1159.51,-34.3 1166.47,-35.05"/>
</a>
</g>
</g>
<!-- Node15&#45;&gt;Node3 -->
<g id="edge19_Node000015_Node000003" class="edge">
<title>Node15&#45;&gt;Node3</title>
<g id="a_edge19_Node000015_Node000003"><a xlink:title=" ">
<path fill="none" stroke="#63b8ff" d="M1088.64,-71.46C1126.16,-61.6 1189.59,-44.85 1244,-30 1249.79,-28.42 1255.96,-26.71 1261.91,-25.05"/>
<polygon fill="#63b8ff" stroke="#63b8ff" points="1262.93,-28.4 1271.62,-22.33 1261.04,-21.66 1262.93,-28.4"/>
</a>
</g>
</g>
<!-- Node15&#45;&gt;Node4 -->
<g id="edge20_Node000015_Node000004" class="edge">
<title>Node15&#45;&gt;Node4</title>
<g id="a_edge20_Node000015_Node000004"><a xlink:title=" ">
<path fill="none" stroke="#63b8ff" d="M1055.6,-71.37C1055.16,-62.07 1054.45,-46.98 1053.89,-34.9"/>
<polygon fill="#63b8ff" stroke="#63b8ff" points="1057.38,-34.73 1053.42,-24.91 1050.39,-35.06 1057.38,-34.73"/>
</a>
</g>
</g>
<!-- Node15&#45;&gt;Node9 -->
<g id="edge13_Node000015_Node000009" class="edge">
<title>Node15&#45;&gt;Node9</title>
<g id="a_edge13_Node000015_Node000009"><a xlink:title=" ">
<path fill="none" stroke="#63b8ff" d="M1099.34,-76.29C1132.83,-73.44 1180.35,-69.42 1222,-66 1421.93,-49.6 1657.8,-30.99 1775.07,-21.79"/>
<polygon fill="#63b8ff" stroke="#63b8ff" points="1775.66,-25.25 1785.36,-20.98 1775.11,-18.27 1775.66,-25.25"/>
</a>
</g>
</g>
<!-- Node15&#45;&gt;Node13 -->
<g id="edge14_Node000015_Node000013" class="edge">
<title>Node15&#45;&gt;Node13</title>
<g id="a_edge14_Node000015_Node000013"><a xlink:title=" ">
<path fill="none" stroke="#63b8ff" d="M1014.18,-71.42C966.1,-61.54 884.82,-44.76 815,-30 809.98,-28.94 804.74,-27.82 799.51,-26.7"/>
<polygon fill="#63b8ff" stroke="#63b8ff" points="800.03,-23.24 789.52,-24.56 798.56,-30.08 800.03,-23.24"/>
</a>
</g>
</g>
<!-- Node14 -->
<g id="Node000014" class="node">
<title>Node14</title>
<g id="a_Node000014"><a xlink:title=" ">
<polygon fill="#e0e0e0" stroke="#999999" points="676.5,-24.5 561.5,-24.5 561.5,-5.5 676.5,-5.5 676.5,-24.5"/>
<text text-anchor="middle" x="619" y="-12.5" font-family="Helvetica,sans-Serif" font-size="10.00">deal.II/base/tensor.h</text>
</a>
</g>
</g>
<!-- Node15&#45;&gt;Node14 -->
<g id="edge15_Node000015_Node000014" class="edge">
<title>Node15&#45;&gt;Node14</title>
<g id="a_edge15_Node000015_Node000014"><a xlink:title=" ">
<path fill="none" stroke="#63b8ff" d="M1012.84,-75.18C943.64,-67.24 803.71,-50.22 686,-30 680.07,-28.98 673.87,-27.82 667.73,-26.61"/>
<polygon fill="#63b8ff" stroke="#63b8ff" points="668.02,-23.1 657.53,-24.54 666.64,-29.96 668.02,-23.1"/>
</a>
</g>
</g>
<!-- Node15&#45;&gt;Node20 -->
<g id="edge16_Node000015_Node000020" class="edge">
<title>Node15&#45;&gt;Node20</title>
<g id="a_edge16_Node000015_Node000020"><a xlink:title=" ">
<path fill="none" stroke="#63b8ff" d="M1070.7,-71.37C1088.82,-60.73 1119.85,-42.51 1141.34,-29.89"/>
<polygon fill="#63b8ff" stroke="#63b8ff" points="1143.33,-32.78 1150.18,-24.7 1139.79,-26.74 1143.33,-32.78"/>
</a>
</g>
</g>
<!-- Node22 -->
<g id="Node000022" class="node">
<title>Node22</title>
<g id="a_Node000022"><a xlink:title=" ">
<polygon fill="#e0e0e0" stroke="#999999" points="954.5,-30 823.5,-30 823.5,0 954.5,0 954.5,-30"/>
<text text-anchor="start" x="831.5" y="-18" font-family="Helvetica,sans-Serif" font-size="10.00">deal.II/particles/particle</text>
<text text-anchor="middle" x="889" y="-7" font-family="Helvetica,sans-Serif" font-size="10.00">_iterator.h</text>
</a>
</g>
</g>
<!-- Node15&#45;&gt;Node22 -->
<g id="edge17_Node000015_Node000022" class="edge">
<title>Node15&#45;&gt;Node22</title>
<g id="a_edge17_Node000015_Node000022"><a xlink:title=" ">
<path fill="none" stroke="#63b8ff" d="M1033.48,-71.37C1008.47,-61.78 967.4,-46.05 935.43,-33.8"/>
<polygon fill="#63b8ff" stroke="#63b8ff" points="936.42,-30.43 925.83,-30.12 933.92,-36.96 936.42,-30.43"/>
</a>
</g>
</g>
<!-- Node26 -->
<g id="Node000026" class="node">
<title>Node26</title>
<g id="a_Node000026"><a xlink:title=" ">
<polygon fill="#e0e0e0" stroke="#999999" points="1011,-24.5 973,-24.5 973,-5.5 1011,-5.5 1011,-24.5"/>
<text text-anchor="middle" x="992" y="-12.5" font-family="Helvetica,sans-Serif" font-size="10.00">map</text>
</a>
</g>
</g>
<!-- Node15&#45;&gt;Node26 -->
<g id="edge18_Node000015_Node000026" class="edge">
<title>Node15&#45;&gt;Node26</title>
<g id="a_edge18_Node000015_Node000026"><a xlink:title=" ">
<path fill="none" stroke="#63b8ff" d="M1047.37,-71.37C1037.31,-61.31 1020.48,-44.48 1008.01,-32.01"/>
<polygon fill="#63b8ff" stroke="#63b8ff" points="1010.45,-29.5 1000.91,-24.91 1005.5,-34.45 1010.45,-29.5"/>
</a>
</g>
</g>
<!-- Node43&#45;&gt;Node6 -->
<g id="edge33_Node000043_Node000006" class="edge">
<title>Node43&#45;&gt;Node6</title>
<g id="a_edge33_Node000043_Node000006"><a xlink:title=" ">
<path fill="none" stroke="#63b8ff" d="M1149.74,-460.45C1236.36,-453.38 1401.7,-438.13 1541,-415 1546.81,-414.04 1552.88,-412.88 1558.87,-411.65"/>
<polygon fill="#63b8ff" stroke="#63b8ff" points="1559.76,-415.04 1568.81,-409.53 1558.3,-408.19 1559.76,-415.04"/>
</a>
</g>
</g>
<!-- Node44 -->
<g id="Node000044" class="node">
<title>Node44</title>
<g id="a_Node000044"><a xlink:href="adaptive__sparse__contacts_8h.html" target="_top" xlink:title=" ">
<polygon fill="white" stroke="#666666" points="681,-228 559,-228 559,-198 681,-198 681,-228"/>
<text text-anchor="start" x="567" y="-216" font-family="Helvetica,sans-Serif" font-size="10.00">dem/adaptive_sparse</text>
<text text-anchor="middle" x="620" y="-205" font-family="Helvetica,sans-Serif" font-size="10.00">_contacts.h</text>
</a>
</g>
</g>
<!-- Node43&#45;&gt;Node44 -->
<g id="edge34_Node000043_Node000044" class="edge">
<title>Node43&#45;&gt;Node44</title>
<g id="a_edge34_Node000043_Node000044"><a xlink:title=" ">
<path fill="none" stroke="#63b8ff" d="M1030.4,-455.8C990.71,-448.23 938.14,-435.37 895,-415 791.29,-366.04 686.9,-275.91 642.37,-235.08"/>
<polygon fill="#63b8ff" stroke="#63b8ff" points="644.49,-232.27 634.77,-228.06 639.73,-237.41 644.49,-232.27"/>
</a>
</g>
</g>
<!-- Node45 -->
<g id="Node000045" class="node">
<title>Node45</title>
<g id="a_Node000045"><a xlink:href="data__containers_8h.html" target="_top" xlink:title=" ">
<polygon fill="white" stroke="#666666" points="903,-156.5 775,-156.5 775,-137.5 903,-137.5 903,-156.5"/>
<text text-anchor="middle" x="839" y="-144.5" font-family="Helvetica,sans-Serif" font-size="10.00">dem/data_containers.h</text>
</a>
</g>
</g>
<!-- Node43&#45;&gt;Node45 -->
<g id="edge59_Node000043_Node000045" class="edge">
<title>Node43&#45;&gt;Node45</title>
<g id="a_edge59_Node000043_Node000045"><a xlink:title=" ">
<path fill="none" stroke="#63b8ff" d="M1035.69,-450.96C982.38,-433.52 909,-398.06 909,-335 909,-335 909,-335 909,-272.5 909,-228.77 875.78,-186.21 855.11,-163.96"/>
<polygon fill="#63b8ff" stroke="#63b8ff" points="857.6,-161.5 848.15,-156.72 852.56,-166.35 857.6,-161.5"/>
</a>
</g>
</g>
<!-- Node47 -->
<g id="Node000047" class="node">
<title>Node47</title>
<g id="a_Node000047"><a xlink:title=" ">
<polygon fill="#e0e0e0" stroke="#999999" points="274,-30 172,-30 172,0 274,0 274,-30"/>
<text text-anchor="start" x="180" y="-18" font-family="Helvetica,sans-Serif" font-size="10.00">deal.II/distributed</text>
<text text-anchor="middle" x="223" y="-7" font-family="Helvetica,sans-Serif" font-size="10.00">/tria.h</text>
</a>
</g>
</g>
<!-- Node43&#45;&gt;Node47 -->
<g id="edge72_Node000043_Node000047" class="edge">
<title>Node43&#45;&gt;Node47</title>
<g id="a_edge72_Node000043_Node000047"><a xlink:title=" ">
<path fill="none" stroke="#63b8ff" d="M1030.23,-464.21C802.25,-460.42 0,-439.64 0,-335 0,-335 0,-335 0,-146 0,-70.77 95.9,-38.3 161.92,-24.86"/>
<polygon fill="#63b8ff" stroke="#63b8ff" points="162.69,-28.28 171.84,-22.94 161.36,-21.41 162.69,-28.28"/>
</a>
</g>
</g>
<!-- Node56 -->
<g id="Node000056" class="node">
<title>Node56</title>
<g id="a_Node000056"><a xlink:href="dem__solver__parameters_8h.html" target="_top" xlink:title=" ">
<polygon fill="white" stroke="#666666" points="1531.5,-409.5 1362.5,-409.5 1362.5,-390.5 1531.5,-390.5 1531.5,-409.5"/>
<text text-anchor="middle" x="1447" y="-397.5" font-family="Helvetica,sans-Serif" font-size="10.00">dem/dem_solver_parameters.h</text>
</a>
</g>
</g>
<!-- Node43&#45;&gt;Node56 -->
<g id="edge60_Node000043_Node000056" class="edge">
<title>Node43&#45;&gt;Node56</title>
<g id="a_edge60_Node000043_Node000056"><a xlink:title=" ">
<path fill="none" stroke="#63b8ff" d="M1149.75,-454.29C1216.36,-442.35 1323.33,-423.17 1389.15,-411.37"/>
<polygon fill="#63b8ff" stroke="#63b8ff" points="1390.13,-414.75 1399.35,-409.54 1388.89,-407.86 1390.13,-414.75"/>
</a>
</g>
</g>
<!-- Node44&#45;&gt;Node4 -->
<g id="edge58_Node000044_Node000004" class="edge">
<title>Node44&#45;&gt;Node4</title>
<g id="a_edge58_Node000044_Node000004"><a xlink:title=" ">
<path fill="none" stroke="#63b8ff" d="M681.15,-212.48C742.83,-210.54 839.09,-200.71 912,-162 964.19,-134.29 962.87,-108.44 1004,-66 1014.97,-54.68 1027.4,-42 1037,-32.24"/>
<polygon fill="#63b8ff" stroke="#63b8ff" points="1039.78,-34.4 1044.3,-24.82 1034.79,-29.49 1039.78,-34.4"/>
</a>
</g>
</g>
<!-- Node44&#45;&gt;Node14 -->
<g id="edge52_Node000044_Node000014" class="edge">
<title>Node44&#45;&gt;Node14</title>
<g id="a_edge52_Node000044_Node000014"><a xlink:title=" ">
<path fill="none" stroke="#63b8ff" d="M558.85,-211.12C420.01,-208.5 90.37,-198.47 57,-162 -12.58,-85.97 387.51,-38.25 551.4,-22.12"/>
<polygon fill="#63b8ff" stroke="#63b8ff" points="551.76,-25.6 561.37,-21.15 551.08,-18.64 551.76,-25.6"/>
</a>
</g>
</g>
<!-- Node44&#45;&gt;Node20 -->
<g id="edge53_Node000044_Node000020" class="edge">
<title>Node44&#45;&gt;Node20</title>
<g id="a_edge53_Node000044_Node000020"><a xlink:title=" ">
<path fill="none" stroke="#63b8ff" d="M681.08,-206.87C747.07,-200.34 854.87,-186.82 945,-162 1020.35,-141.25 1046.65,-144.43 1108,-96 1129.58,-78.96 1146.59,-51.65 1156.23,-33.76"/>
<polygon fill="#63b8ff" stroke="#63b8ff" points="1159.43,-35.19 1160.91,-24.7 1153.21,-31.97 1159.43,-35.19"/>
</a>
</g>
</g>
<!-- Node44&#45;&gt;Node45 -->
<g id="edge35_Node000044_Node000045" class="edge">
<title>Node44&#45;&gt;Node45</title>
<g id="a_edge35_Node000044_Node000045"><a xlink:title=" ">
<path fill="none" stroke="#63b8ff" d="M668.06,-197.95C707.65,-186.38 763.09,-170.18 799.97,-159.41"/>
<polygon fill="#63b8ff" stroke="#63b8ff" points="801.24,-162.68 809.85,-156.52 799.27,-155.96 801.24,-162.68"/>
</a>
</g>
</g>
<!-- Node51 -->
<g id="Node000051" class="node">
<title>Node51</title>
<g id="a_Node000051"><a xlink:href="dem__action__manager_8h.html" target="_top" xlink:title=" ">
<polygon fill="white" stroke="#666666" points="221.5,-156.5 66.5,-156.5 66.5,-137.5 221.5,-137.5 221.5,-156.5"/>
<text text-anchor="middle" x="144" y="-144.5" font-family="Helvetica,sans-Serif" font-size="10.00">dem/dem_action_manager.h</text>
</a>
</g>
</g>
<!-- Node44&#45;&gt;Node51 -->
<g id="edge51_Node000044_Node000051" class="edge">
<title>Node44&#45;&gt;Node51</title>
<g id="a_edge51_Node000044_Node000051"><a xlink:title=" ">
<path fill="none" stroke="#63b8ff" d="M558.78,-204.8C481.91,-195.61 346.02,-178.88 230,-162 221.72,-160.79 212.99,-159.46 204.41,-158.1"/>
<polygon fill="#63b8ff" stroke="#63b8ff" points="204.86,-154.63 194.43,-156.5 203.75,-161.54 204.86,-154.63"/>
</a>
</g>
</g>
<!-- Node52 -->
<g id="Node000052" class="node">
<title>Node52</title>
<g id="a_Node000052"><a xlink:title=" ">
<polygon fill="#e0e0e0" stroke="#999999" points="334.5,-162 239.5,-162 239.5,-132 334.5,-132 334.5,-162"/>
<text text-anchor="start" x="247.5" y="-150" font-family="Helvetica,sans-Serif" font-size="10.00">deal.II/lac/affine</text>
<text text-anchor="middle" x="287" y="-139" font-family="Helvetica,sans-Serif" font-size="10.00">_constraints.h</text>
</a>
</g>
</g>
<!-- Node44&#45;&gt;Node52 -->
<g id="edge54_Node000044_Node000052" class="edge">
<title>Node44&#45;&gt;Node52</title>
<g id="a_edge54_Node000044_Node000052"><a xlink:title=" ">
<path fill="none" stroke="#63b8ff" d="M558.94,-202.05C505.18,-193.04 424.53,-178.9 344.76,-162.08"/>
<polygon fill="#63b8ff" stroke="#63b8ff" points="345.04,-158.56 334.54,-159.91 343.59,-165.41 345.04,-158.56"/>
</a>
</g>
</g>
<!-- Node53 -->
<g id="Node000053" class="node">
<title>Node53</title>
<g id="a_Node000053"><a xlink:title=" ">
<polygon fill="#e0e0e0" stroke="#999999" points="471,-162 353,-162 353,-132 471,-132 471,-162"/>
<text text-anchor="start" x="361" y="-150" font-family="Helvetica,sans-Serif" font-size="10.00">deal.II/lac/la_parallel</text>
<text text-anchor="middle" x="412" y="-139" font-family="Helvetica,sans-Serif" font-size="10.00">_vector.h</text>
</a>
</g>
</g>
<!-- Node44&#45;&gt;Node53 -->
<g id="edge55_Node000044_Node000053" class="edge">
<title>Node44&#45;&gt;Node53</title>
<g id="a_edge55_Node000044_Node000053"><a xlink:title=" ">
<path fill="none" stroke="#63b8ff" d="M574.35,-197.95C542.79,-188.24 500.62,-175.27 467.17,-164.98"/>
<polygon fill="#63b8ff" stroke="#63b8ff" points="468.13,-161.61 457.54,-162.01 466.07,-168.3 468.13,-161.61"/>
</a>
</g>
</g>
<!-- Node54 -->
<g id="Node000054" class="node">
<title>Node54</title>
<g id="a_Node000054"><a xlink:title=" ">
<polygon fill="#e0e0e0" stroke="#999999" points="607,-162 489,-162 489,-132 607,-132 607,-162"/>
<text text-anchor="start" x="497" y="-150" font-family="Helvetica,sans-Serif" font-size="10.00">deal.II/lac/la_parallel</text>
<text text-anchor="middle" x="548" y="-139" font-family="Helvetica,sans-Serif" font-size="10.00">_vector.templates.h</text>
</a>
</g>
</g>
<!-- Node44&#45;&gt;Node54 -->
<g id="edge56_Node000044_Node000054" class="edge">
<title>Node44&#45;&gt;Node54</title>
<g id="a_edge56_Node000044_Node000054"><a xlink:title=" ">
<path fill="none" stroke="#63b8ff" d="M604.02,-197.8C594.51,-189.34 582.27,-178.46 571.66,-169.03"/>
<polygon fill="#63b8ff" stroke="#63b8ff" points="573.73,-166.19 563.93,-162.16 569.08,-171.42 573.73,-166.19"/>
</a>
</g>
</g>
<!-- Node55 -->
<g id="Node000055" class="node">
<title>Node55</title>
<g id="a_Node000055"><a xlink:title=" ">
<polygon fill="#e0e0e0" stroke="#999999" points="756.5,-162 625.5,-162 625.5,-132 756.5,-132 756.5,-162"/>
<text text-anchor="start" x="633.5" y="-150" font-family="Helvetica,sans-Serif" font-size="10.00">deal.II/particles/particle</text>
<text text-anchor="middle" x="691" y="-139" font-family="Helvetica,sans-Serif" font-size="10.00">_handler.h</text>
</a>
</g>
</g>
<!-- Node44&#45;&gt;Node55 -->
<g id="edge57_Node000044_Node000055" class="edge">
<title>Node44&#45;&gt;Node55</title>
<g id="a_edge57_Node000044_Node000055"><a xlink:title=" ">
<path fill="none" stroke="#63b8ff" d="M635.76,-197.8C645.13,-189.34 657.2,-178.46 667.67,-169.03"/>
<polygon fill="#63b8ff" stroke="#63b8ff" points="670.2,-171.46 675.29,-162.16 665.52,-166.26 670.2,-171.46"/>
</a>
</g>
</g>
<!-- Node45&#45;&gt;Node4 -->
<g id="edge49_Node000045_Node000004" class="edge">
<title>Node45&#45;&gt;Node4</title>
<g id="a_edge49_Node000045_Node000004"><a xlink:title=" ">
<path fill="none" stroke="#63b8ff" d="M853.04,-137.47C889.24,-115.48 986,-56.7 1030.29,-29.79"/>
<polygon fill="#63b8ff" stroke="#63b8ff" points="1032.18,-32.74 1038.91,-24.56 1028.54,-26.76 1032.18,-32.74"/>
</a>
</g>
</g>
<!-- Node45&#45;&gt;Node15 -->
<g id="edge36_Node000045_Node000015" class="edge">
<title>Node45&#45;&gt;Node15</title>
<g id="a_edge36_Node000045_Node000015"><a xlink:title=" ">
<path fill="none" stroke="#63b8ff" d="M868.27,-137.37C906.71,-126.03 974.35,-106.08 1017.08,-93.48"/>
<polygon fill="#63b8ff" stroke="#63b8ff" points="1018.25,-96.78 1026.85,-90.6 1016.27,-90.07 1018.25,-96.78"/>
</a>
</g>
</g>
<!-- Node45&#45;&gt;Node14 -->
<g id="edge45_Node000045_Node000014" class="edge">
<title>Node45&#45;&gt;Node14</title>
<g id="a_edge45_Node000045_Node000014"><a xlink:title=" ">
<path fill="none" stroke="#63b8ff" d="M798.97,-137.46C788.3,-135.42 776.75,-133.42 766,-132 712.32,-124.89 316.85,-135.68 280,-96 270.93,-86.23 271.29,-76.09 280,-66 314.31,-26.26 462.47,-17.55 551.17,-15.97"/>
<polygon fill="#63b8ff" stroke="#63b8ff" points="551.47,-19.47 561.42,-15.82 551.36,-12.47 551.47,-19.47"/>
</a>
</g>
</g>
<!-- Node45&#45;&gt;Node22 -->
<g id="edge47_Node000045_Node000022" class="edge">
<title>Node45&#45;&gt;Node22</title>
<g id="a_edge47_Node000045_Node000022"><a xlink:title=" ">
<path fill="none" stroke="#63b8ff" d="M842.28,-137.47C849.82,-117.86 868.61,-69.02 879.93,-39.59"/>
<polygon fill="#63b8ff" stroke="#63b8ff" points="883.27,-40.66 883.59,-30.07 876.73,-38.14 883.27,-40.66"/>
</a>
</g>
</g>
<!-- Node46 -->
<g id="Node000046" class="node">
<title>Node46</title>
<g id="a_Node000046"><a xlink:href="boundary__cells__info__struct_8h.html" target="_top" xlink:title=" ">
<polygon fill="white" stroke="#666666" points="676.5,-96 561.5,-96 561.5,-66 676.5,-66 676.5,-96"/>
<text text-anchor="start" x="569.5" y="-84" font-family="Helvetica,sans-Serif" font-size="10.00">dem/boundary_cells</text>
<text text-anchor="middle" x="619" y="-73" font-family="Helvetica,sans-Serif" font-size="10.00">_info_struct.h</text>
</a>
</g>
</g>
<!-- Node45&#45;&gt;Node46 -->
<g id="edge37_Node000045_Node000046" class="edge">
<title>Node45&#45;&gt;Node46</title>
<g id="a_edge37_Node000045_Node000046"><a xlink:title=" ">
<path fill="none" stroke="#63b8ff" d="M809.33,-137.37C775.6,-127.56 719.71,-111.3 677.2,-98.93"/>
<polygon fill="#63b8ff" stroke="#63b8ff" points="678.1,-95.55 667.52,-96.12 676.15,-102.27 678.1,-95.55"/>
</a>
</g>
</g>
<!-- Node45&#45;&gt;Node47 -->
<g id="edge46_Node000045_Node000047" class="edge">
<title>Node45&#45;&gt;Node47</title>
<g id="a_edge46_Node000045_Node000047"><a xlink:title=" ">
<path fill="none" stroke="#63b8ff" d="M798.98,-137.45C788.3,-135.41 776.75,-133.42 766,-132 656.43,-117.57 363.86,-154.33 270,-96 249.68,-83.37 237.12,-58.48 230.15,-39.79"/>
<polygon fill="#63b8ff" stroke="#63b8ff" points="233.41,-38.49 226.85,-30.17 226.79,-40.77 233.41,-38.49"/>
</a>
</g>
</g>
<!-- Node48 -->
<g id="Node000048" class="node">
<title>Node48</title>
<g id="a_Node000048"><a xlink:href="contact__info_8h.html" target="_top" xlink:title=" ">
<polygon fill="white" stroke="#666666" points="805,-90.5 695,-90.5 695,-71.5 805,-71.5 805,-90.5"/>
<text text-anchor="middle" x="750" y="-78.5" font-family="Helvetica,sans-Serif" font-size="10.00">dem/contact_info.h</text>
</a>
</g>
</g>
<!-- Node45&#45;&gt;Node48 -->
<g id="edge41_Node000045_Node000048" class="edge">
<title>Node45&#45;&gt;Node48</title>
<g id="a_edge41_Node000045_Node000048"><a xlink:title=" ">
<path fill="none" stroke="#63b8ff" d="M827,-137.37C812.53,-126.97 787.99,-109.32 770.51,-96.75"/>
<polygon fill="#63b8ff" stroke="#63b8ff" points="772.26,-93.7 762.1,-90.7 768.17,-99.38 772.26,-93.7"/>
</a>
</g>
</g>
<!-- Node49 -->
<g id="Node000049" class="node">
<title>Node49</title>
<g id="a_Node000049"><a xlink:title=" ">
<polygon fill="#e0e0e0" stroke="#999999" points="382.5,-90.5 289.5,-90.5 289.5,-71.5 382.5,-71.5 382.5,-90.5"/>
<text text-anchor="middle" x="336" y="-78.5" font-family="Helvetica,sans-Serif" font-size="10.00">unordered_map</text>
</a>
</g>
</g>
<!-- Node45&#45;&gt;Node49 -->
<g id="edge48_Node000045_Node000049" class="edge">
<title>Node45&#45;&gt;Node49</title>
<g id="a_edge48_Node000045_Node000049"><a xlink:title=" ">
<path fill="none" stroke="#63b8ff" d="M798.19,-137.47C787.73,-135.48 776.47,-133.5 766,-132 600.27,-108.21 555.95,-124.74 391,-96 386.16,-95.16 381.12,-94.11 376.13,-92.97"/>
<polygon fill="#63b8ff" stroke="#63b8ff" points="376.62,-89.49 366.08,-90.54 374.98,-96.29 376.62,-89.49"/>
</a>
</g>
</g>
<!-- Node50 -->
<g id="Node000050" class="node">
<title>Node50</title>
<g id="a_Node000050"><a xlink:href="unordered__dense_8h.html" target="_top" xlink:title=" ">
<polygon fill="white" stroke="#666666" points="543.5,-90.5 400.5,-90.5 400.5,-71.5 543.5,-71.5 543.5,-90.5"/>
<text text-anchor="middle" x="472" y="-78.5" font-family="Helvetica,sans-Serif" font-size="10.00">ankerl/unordered_dense.h</text>
</a>
</g>
</g>
<!-- Node45&#45;&gt;Node50 -->
<g id="edge50_Node000045_Node000050" class="edge">
<title>Node45&#45;&gt;Node50</title>
<g id="a_edge50_Node000045_Node000050"><a xlink:title=" ">
<path fill="none" stroke="#63b8ff" d="M795.41,-137.48C785.73,-135.63 775.52,-133.72 766,-132 671.52,-114.96 647.64,-112.18 553,-96 545.94,-94.79 538.54,-93.52 531.19,-92.26"/>
<polygon fill="#63b8ff" stroke="#63b8ff" points="531.7,-88.79 521.25,-90.54 530.51,-95.69 531.7,-88.79"/>
</a>
</g>
</g>
<!-- Node46&#45;&gt;Node13 -->
<g id="edge38_Node000046_Node000013" class="edge">
<title>Node46&#45;&gt;Node13</title>
<g id="a_edge38_Node000046_Node000013"><a xlink:title=" ">
<path fill="none" stroke="#63b8ff" d="M647.75,-65.95C670.32,-54.93 701.49,-39.7 723.47,-28.96"/>
<polygon fill="#63b8ff" stroke="#63b8ff" points="725.12,-32.05 732.57,-24.52 722.04,-25.76 725.12,-32.05"/>
</a>
</g>
</g>
<!-- Node46&#45;&gt;Node14 -->
<g id="edge39_Node000046_Node000014" class="edge">
<title>Node46&#45;&gt;Node14</title>
<g id="a_edge39_Node000046_Node000014"><a xlink:title=" ">
<path fill="none" stroke="#63b8ff" d="M619,-65.8C619,-56.7 619,-44.79 619,-34.9"/>
<polygon fill="#63b8ff" stroke="#63b8ff" points="622.5,-34.84 619,-24.84 615.5,-34.84 622.5,-34.84"/>
</a>
</g>
</g>
<!-- Node46&#45;&gt;Node47 -->
<g id="edge40_Node000046_Node000047" class="edge">
<title>Node46&#45;&gt;Node47</title>
<g id="a_edge40_Node000046_Node000047"><a xlink:title=" ">
<path fill="none" stroke="#63b8ff" d="M561.45,-67.58C558.59,-67.03 555.77,-66.5 553,-66 459.65,-49.04 350.71,-33.32 284.31,-24.19"/>
<polygon fill="#63b8ff" stroke="#63b8ff" points="284.42,-20.67 274.03,-22.79 283.47,-27.61 284.42,-20.67"/>
</a>
</g>
</g>
<!-- Node48&#45;&gt;Node13 -->
<g id="edge42_Node000048_Node000013" class="edge">
<title>Node48&#45;&gt;Node13</title>
<g id="a_edge42_Node000048_Node000013"><a xlink:title=" ">
<path fill="none" stroke="#63b8ff" d="M750,-71.37C750,-62.16 750,-47.29 750,-35.27"/>
<polygon fill="#63b8ff" stroke="#63b8ff" points="753.5,-34.91 750,-24.91 746.5,-34.91 753.5,-34.91"/>
</a>
</g>
</g>
<!-- Node48&#45;&gt;Node14 -->
<g id="edge43_Node000048_Node000014" class="edge">
<title>Node48&#45;&gt;Node14</title>
<g id="a_edge43_Node000048_Node000014"><a xlink:title=" ">
<path fill="none" stroke="#63b8ff" d="M732.33,-71.37C710.16,-60.54 671.92,-41.85 646.05,-29.22"/>
<polygon fill="#63b8ff" stroke="#63b8ff" points="647.33,-25.94 636.81,-24.7 644.25,-32.23 647.33,-25.94"/>
</a>
</g>
</g>
<!-- Node48&#45;&gt;Node22 -->
<g id="edge44_Node000048_Node000022" class="edge">
<title>Node48&#45;&gt;Node22</title>
<g id="a_edge44_Node000048_Node000022"><a xlink:title=" ">
<path fill="none" stroke="#63b8ff" d="M768.75,-71.37C789.21,-61.95 822.57,-46.59 848.97,-34.43"/>
<polygon fill="#63b8ff" stroke="#63b8ff" points="850.72,-37.48 858.34,-30.12 847.8,-31.12 850.72,-37.48"/>
</a>
</g>
</g>
<!-- Node56&#45;&gt;Node7 -->
<g id="edge61_Node000056_Node000007" class="edge">
<title>Node56&#45;&gt;Node7</title>
<g id="a_edge61_Node000056_Node000007"><a xlink:title=" ">
<path fill="none" stroke="#63b8ff" d="M1466.76,-390.36C1485.81,-381.52 1514.91,-366.6 1537,-349 1558.58,-331.81 1579.14,-307.32 1591.66,-291.17"/>
<polygon fill="#63b8ff" stroke="#63b8ff" points="1594.48,-293.24 1597.74,-283.16 1588.91,-289.01 1594.48,-293.24"/>
</a>
</g>
</g>
<!-- Node57 -->
<g id="Node000057" class="node">
<title>Node57</title>
<g id="a_Node000057"><a xlink:href="parameters__lagrangian_8h.html" target="_top" xlink:title="Parameter structures for Lagrangian (DEM) particle simulations.">
<polygon fill="white" stroke="#666666" points="1527.5,-343.5 1364.5,-343.5 1364.5,-324.5 1527.5,-324.5 1527.5,-343.5"/>
<text text-anchor="middle" x="1446" y="-331.5" font-family="Helvetica,sans-Serif" font-size="10.00">core/parameters_lagrangian.h</text>
</a>
</g>
</g>
<!-- Node56&#45;&gt;Node57 -->
<g id="edge62_Node000056_Node000057" class="edge">
<title>Node56&#45;&gt;Node57</title>
<g id="a_edge62_Node000056_Node000057"><a xlink:title=" ">
<path fill="none" stroke="#63b8ff" d="M1446.87,-390.37C1446.72,-381.16 1446.49,-366.29 1446.3,-354.27"/>
<polygon fill="#63b8ff" stroke="#63b8ff" points="1449.8,-353.85 1446.14,-343.91 1442.8,-353.96 1449.8,-353.85"/>
</a>
</g>
</g>
<!-- Node59 -->
<g id="Node000059" class="node">
<title>Node59</title>
<g id="a_Node000059"><a xlink:href="solid__objects__parameters_8h.html" target="_top" xlink:title="Parameter classes for solid objects used in Nitsche immersed boundary and DEM simulations.">
<polygon fill="white" stroke="#666666" points="1837,-349 1733,-349 1733,-319 1837,-319 1837,-349"/>
<text text-anchor="start" x="1741" y="-337" font-family="Helvetica,sans-Serif" font-size="10.00">core/solid_objects</text>
<text text-anchor="middle" x="1785" y="-326" font-family="Helvetica,sans-Serif" font-size="10.00">_parameters.h</text>
</a>
</g>
</g>
<!-- Node56&#45;&gt;Node59 -->
<g id="edge68_Node000056_Node000059" class="edge">
<title>Node56&#45;&gt;Node59</title>
<g id="a_edge68_Node000056_Node000059"><a xlink:title=" ">
<path fill="none" stroke="#63b8ff" d="M1492.23,-390.44C1551.61,-379.19 1656.09,-359.41 1722.86,-346.77"/>
<polygon fill="#63b8ff" stroke="#63b8ff" points="1723.66,-350.18 1732.83,-344.88 1722.35,-343.3 1723.66,-350.18"/>
</a>
</g>
</g>
<!-- Node57&#45;&gt;Node3 -->
<g id="edge67_Node000057_Node000003" class="edge">
<title>Node57&#45;&gt;Node3</title>
<g id="a_edge67_Node000057_Node000003"><a xlink:title=" ">
<path fill="none" stroke="#63b8ff" d="M1443.18,-324.45C1437.04,-305.04 1423,-256.08 1423,-214 1423,-214 1423,-214 1423,-146 1423,-108.88 1423.17,-94.18 1399,-66 1380.11,-43.97 1349.33,-30.92 1325.97,-23.7"/>
<polygon fill="#63b8ff" stroke="#63b8ff" points="1326.73,-20.28 1316.15,-20.88 1324.79,-27.01 1326.73,-20.28"/>
</a>
</g>
</g>
<!-- Node57&#45;&gt;Node7 -->
<g id="edge63_Node000057_Node000007" class="edge">
<title>Node57&#45;&gt;Node7</title>
<g id="a_edge63_Node000057_Node000007"><a xlink:title=" ">
<path fill="none" stroke="#63b8ff" d="M1468.97,-324.49C1495.89,-314.53 1540.67,-297.95 1571.23,-286.63"/>
<polygon fill="#63b8ff" stroke="#63b8ff" points="1572.84,-289.77 1581,-283.02 1570.4,-283.21 1572.84,-289.77"/>
</a>
</g>
</g>
<!-- Node57&#45;&gt;Node9 -->
<g id="edge64_Node000057_Node000009" class="edge">
<title>Node57&#45;&gt;Node9</title>
<g id="a_edge64_Node000057_Node000009"><a xlink:title=" ">
<path fill="none" stroke="#63b8ff" d="M1447.84,-324.39C1451.84,-304.85 1461,-255.65 1461,-214 1461,-214 1461,-214 1461,-146 1461,-80.4 1662.92,-41.79 1775.43,-25.37"/>
<polygon fill="#63b8ff" stroke="#63b8ff" points="1775.96,-28.83 1785.36,-23.95 1774.97,-21.9 1775.96,-28.83"/>
</a>
</g>
</g>
<!-- Node57&#45;&gt;Node26 -->
<g id="edge65_Node000057_Node000026" class="edge">
<title>Node57&#45;&gt;Node26</title>
<g id="a_edge65_Node000057_Node000026"><a xlink:title=" ">
<path fill="none" stroke="#63b8ff" d="M1388.31,-324.49C1319.14,-312.17 1201.93,-284.36 1117,-228 1052.65,-185.3 1036.08,-166.25 1004,-96 995.09,-76.49 992.54,-51.78 991.93,-35.02"/>
<polygon fill="#63b8ff" stroke="#63b8ff" points="995.43,-34.79 991.77,-24.85 988.43,-34.91 995.43,-34.79"/>
</a>
</g>
</g>
<!-- Node58 -->
<g id="Node000058" class="node">
<title>Node58</title>
<g id="a_Node000058"><a xlink:title=" ">
<polygon fill="#e0e0e0" stroke="#999999" points="1395,-283 1363,-283 1363,-264 1395,-264 1395,-283"/>
<text text-anchor="middle" x="1379" y="-271" font-family="Helvetica,sans-Serif" font-size="10.00">set</text>
</a>
</g>
</g>
<!-- Node57&#45;&gt;Node58 -->
<g id="edge66_Node000057_Node000058" class="edge">
<title>Node57&#45;&gt;Node58</title>
<g id="a_edge66_Node000057_Node000058"><a xlink:title=" ">
<path fill="none" stroke="#63b8ff" d="M1436.11,-324.37C1425.72,-315.3 1409.16,-300.84 1396.55,-289.82"/>
<polygon fill="#63b8ff" stroke="#63b8ff" points="1398.76,-287.11 1388.93,-283.17 1394.16,-292.38 1398.76,-287.11"/>
</a>
</g>
</g>
<!-- Node59&#45;&gt;Node7 -->
<g id="edge69_Node000059_Node000007" class="edge">
<title>Node59&#45;&gt;Node7</title>
<g id="a_edge69_Node000059_Node000007"><a xlink:title=" ">
<path fill="none" stroke="#63b8ff" d="M1741.65,-318.99C1710.68,-308.98 1669.5,-295.67 1640.27,-286.22"/>
<polygon fill="#63b8ff" stroke="#63b8ff" points="1641.06,-282.8 1630.47,-283.05 1638.9,-289.46 1641.06,-282.8"/>
</a>
</g>
</g>
<!-- Node59&#45;&gt;Node9 -->
<g id="edge70_Node000059_Node000009" class="edge">
<title>Node59&#45;&gt;Node9</title>
<g id="a_edge70_Node000059_Node000009"><a xlink:title=" ">
<path fill="none" stroke="#63b8ff" d="M1837.01,-333.19C1917.98,-330.45 2065,-311.98 2065,-214 2065,-214 2065,-214 2065,-146 2065,-77.87 1985.13,-44.52 1922.52,-28.86"/>
<polygon fill="#63b8ff" stroke="#63b8ff" points="1923.18,-25.41 1912.64,-26.49 1921.55,-32.22 1923.18,-25.41"/>
</a>
</g>
</g>
<!-- Node59&#45;&gt;Node38 -->
<g id="edge71_Node000059_Node000038" class="edge">
<title>Node59&#45;&gt;Node38</title>
<g id="a_edge71_Node000059_Node000038"><a xlink:title=" ">
<path fill="none" stroke="#63b8ff" d="M1797.56,-318.72C1818.94,-292.6 1857.55,-236.31 1830,-198 1810.74,-171.22 1776.43,-158.58 1745.59,-152.7"/>
<polygon fill="#63b8ff" stroke="#63b8ff" points="1746.17,-149.25 1735.72,-151.02 1744.99,-156.15 1746.17,-149.25"/>
</a>
</g>
</g>
</g>
</svg>
