<?xml version="1.0" encoding="UTF-8" standalone="no"?>
<!DOCTYPE svg PUBLIC "-//W3C//DTD SVG 1.1//EN"
 "http://www.w3.org/Graphics/SVG/1.1/DTD/svg11.dtd">
<!-- Generated by graphviz version 2.43.0 (0)
 -->
<!-- Title: /home/runner/work/lethe/lethe/include/core/lethe_grid_tools.h Pages: 1 -->
<svg width="1359pt" height="555pt"
 viewBox="0.00 0.00 1358.50 555.00" xmlns="http://www.w3.org/2000/svg" xmlns:xlink="http://www.w3.org/1999/xlink">
<g id="graph0" class="graph" transform="scale(1 1) rotate(0) translate(4 551)">
<title>/home/runner/work/lethe/lethe/include/core/lethe_grid_tools.h</title>
<!-- Node1 -->
<g id="Node000001" class="node">
<title>Node1</title>
<g id="a_Node000001"><a xlink:title=" ">
<polygon fill="#999999" stroke="#666666" points="1266.5,-547 1129.5,-547 1129.5,-506 1266.5,-506 1266.5,-547"/>
<text text-anchor="start" x="1137.5" y="-535" font-family="Helvetica,sans-Serif" font-size="10.00">/home/runner/work/lethe</text>
<text text-anchor="start" x="1137.5" y="-524" font-family="Helvetica,sans-Serif" font-size="10.00">/lethe/include/core/lethe</text>
<text text-anchor="middle" x="1198" y="-513" font-family="Helvetica,sans-Serif" font-size="10.00">_grid_tools.h</text>
</a>
</g>
</g>
<!-- Node2 -->
<g id="Node000002" class="node">
<title>Node2</title>
<g id="a_Node000002"><a xlink:href="serial__solid_8h.html" target="_top" xlink:title=" ">
<polygon fill="white" stroke="#666666" points="923.5,-464.5 818.5,-464.5 818.5,-445.5 923.5,-445.5 923.5,-464.5"/>
<text text-anchor="middle" x="871" y="-452.5" font-family="Helvetica,sans-Serif" font-size="10.00">core/serial_solid.h</text>
</a>
</g>
</g>
<!-- Node1&#45;&gt;Node2 -->
<g id="edge1_Node000001_Node000002" class="edge">
<title>Node1&#45;&gt;Node2</title>
<g id="a_edge1_Node000001_Node000002"><a xlink:title=" ">
<path fill="none" stroke="#63b8ff" d="M1129.45,-510.93C1067.21,-497.7 976.89,-478.51 921.16,-466.66"/>
<polygon fill="#63b8ff" stroke="#63b8ff" points="921.68,-463.19 911.17,-464.54 920.22,-470.04 921.68,-463.19"/>
</a>
</g>
</g>
<!-- Node14 -->
<g id="Node000014" class="node">
<title>Node14</title>
<g id="a_Node000014"><a xlink:title=" ">
<polygon fill="#e0e0e0" stroke="#999999" points="1018.5,-24.5 903.5,-24.5 903.5,-5.5 1018.5,-5.5 1018.5,-24.5"/>
<text text-anchor="middle" x="961" y="-12.5" font-family="Helvetica,sans-Serif" font-size="10.00">deal.II/base/tensor.h</text>
</a>
</g>
</g>
<!-- Node1&#45;&gt;Node14 -->
<g id="edge46_Node000001_Node000014" class="edge">
<title>Node1&#45;&gt;Node14</title>
<g id="a_edge46_Node000001_Node000014"><a xlink:title=" ">
<path fill="none" stroke="#63b8ff" d="M1202.7,-505.81C1208.32,-480.46 1217,-434.96 1217,-395.5 1217,-395.5 1217,-395.5 1217,-146 1217,-108.88 1220.27,-91.19 1193,-66 1169.4,-44.2 1088.43,-30.4 1028.77,-22.95"/>
<polygon fill="#63b8ff" stroke="#63b8ff" points="1028.99,-19.45 1018.64,-21.72 1028.14,-26.4 1028.99,-19.45"/>
</a>
</g>
</g>
<!-- Node20 -->
<g id="Node000020" class="node">
<title>Node20</title>
<g id="a_Node000020"><a xlink:title=" ">
<polygon fill="#e0e0e0" stroke="#999999" points="885,-24.5 745,-24.5 745,-5.5 885,-5.5 885,-24.5"/>
<text text-anchor="middle" x="815" y="-12.5" font-family="Helvetica,sans-Serif" font-size="10.00">deal.II/dofs/dof_handler.h</text>
</a>
</g>
</g>
<!-- Node1&#45;&gt;Node20 -->
<g id="edge47_Node000001_Node000020" class="edge">
<title>Node1&#45;&gt;Node20</title>
<g id="a_edge47_Node000001_Node000020"><a xlink:title=" ">
<path fill="none" stroke="#63b8ff" d="M1193.3,-505.81C1187.68,-480.46 1179,-434.96 1179,-395.5 1179,-395.5 1179,-395.5 1179,-146 1179,-107.01 1174.13,-89.47 1143,-66 1098.53,-32.47 949.99,-38.8 895,-30 887.64,-28.82 879.91,-27.53 872.28,-26.23"/>
<polygon fill="#63b8ff" stroke="#63b8ff" points="872.79,-22.77 862.34,-24.52 871.6,-29.67 872.79,-22.77"/>
</a>
</g>
</g>
<!-- Node49 -->
<g id="Node000049" class="node">
<title>Node49</title>
<g id="a_Node000049"><a xlink:title=" ">
<polygon fill="#e0e0e0" stroke="#999999" points="1350.5,-470 1245.5,-470 1245.5,-440 1350.5,-440 1350.5,-470"/>
<text text-anchor="start" x="1253.5" y="-458" font-family="Helvetica,sans-Serif" font-size="10.00">deal.II/fe/mapping</text>
<text text-anchor="middle" x="1298" y="-447" font-family="Helvetica,sans-Serif" font-size="10.00">_q_cache.h</text>
</a>
</g>
</g>
<!-- Node1&#45;&gt;Node49 -->
<g id="edge48_Node000001_Node000049" class="edge">
<title>Node1&#45;&gt;Node49</title>
<g id="a_edge48_Node000001_Node000049"><a xlink:title=" ">
<path fill="none" stroke="#63b8ff" d="M1226.12,-505.96C1239.58,-496.6 1255.67,-485.42 1269.22,-476.01"/>
<polygon fill="#63b8ff" stroke="#63b8ff" points="1271.48,-478.69 1277.69,-470.11 1267.48,-472.95 1271.48,-478.69"/>
</a>
</g>
</g>
<!-- Node3 -->
<g id="Node000003" class="node">
<title>Node3</title>
<g id="a_Node000003"><a xlink:href="pvd__handler_8h.html" target="_top" xlink:title=" ">
<polygon fill="white" stroke="#666666" points="742.5,-404 633.5,-404 633.5,-385 742.5,-385 742.5,-404"/>
<text text-anchor="middle" x="688" y="-392" font-family="Helvetica,sans-Serif" font-size="10.00">core/pvd_handler.h</text>
</a>
</g>
</g>
<!-- Node2&#45;&gt;Node3 -->
<g id="edge2_Node000002_Node000003" class="edge">
<title>Node2&#45;&gt;Node3</title>
<g id="a_edge2_Node000002_Node000003"><a xlink:title=" ">
<path fill="none" stroke="#63b8ff" d="M844.39,-445.49C812.81,-435.4 759.99,-418.51 724.58,-407.19"/>
<polygon fill="#63b8ff" stroke="#63b8ff" points="725.23,-403.73 714.64,-404.02 723.1,-410.4 725.23,-403.73"/>
</a>
</g>
</g>
<!-- Node12 -->
<g id="Node000012" class="node">
<title>Node12</title>
<g id="a_Node000012"><a xlink:href="tensors__and__points__dimension__manipulation_8h.html" target="_top" xlink:title=" ">
<polygon fill="white" stroke="#666666" points="966,-96 814,-96 814,-66 966,-66 966,-96"/>
<text text-anchor="start" x="822" y="-84" font-family="Helvetica,sans-Serif" font-size="10.00">core/tensors_and_points</text>
<text text-anchor="middle" x="890" y="-73" font-family="Helvetica,sans-Serif" font-size="10.00">_dimension_manipulation.h</text>
</a>
</g>
</g>
<!-- Node2&#45;&gt;Node12 -->
<g id="edge40_Node000002_Node000012" class="edge">
<title>Node2&#45;&gt;Node12</title>
<g id="a_edge40_Node000002_Node000012"><a xlink:title=" ">
<path fill="none" stroke="#63b8ff" d="M873.84,-445.05C884.9,-409.63 925.12,-275.7 938,-162 939.5,-148.75 942.98,-144.37 938,-132 933.6,-121.06 925.53,-111.17 917.25,-103.13"/>
<polygon fill="#63b8ff" stroke="#63b8ff" points="919.45,-100.4 909.69,-96.28 914.76,-105.59 919.45,-100.4"/>
</a>
</g>
</g>
<!-- Node15 -->
<g id="Node000015" class="node">
<title>Node15</title>
<g id="a_Node000015"><a xlink:href="utilities_8h.html" target="_top" xlink:title=" ">
<polygon fill="#fff0f0" stroke="red" points="745,-90.5 659,-90.5 659,-71.5 745,-71.5 745,-90.5"/>
<text text-anchor="middle" x="702" y="-78.5" font-family="Helvetica,sans-Serif" font-size="10.00">core/utilities.h</text>
</a>
</g>
</g>
<!-- Node2&#45;&gt;Node15 -->
<g id="edge41_Node000002_Node000015" class="edge">
<title>Node2&#45;&gt;Node15</title>
<g id="a_edge41_Node000002_Node000015"><a xlink:title=" ">
<path fill="none" stroke="#63b8ff" d="M864.46,-445.28C850.91,-426.29 821,-379.37 821,-335 821,-335 821,-335 821,-212 821,-175.46 824.7,-160.64 802,-132 787.6,-113.83 764.86,-101.73 744.71,-93.99"/>
<polygon fill="#63b8ff" stroke="#63b8ff" points="745.66,-90.62 735.07,-90.54 743.3,-97.2 745.66,-90.62"/>
</a>
</g>
</g>
<!-- Node2&#45;&gt;Node20 -->
<g id="edge43_Node000002_Node000020" class="edge">
<title>Node2&#45;&gt;Node20</title>
<g id="a_edge43_Node000002_Node000020"><a xlink:title=" ">
<path fill="none" stroke="#63b8ff" d="M923.61,-449.95C988.52,-443.89 1093.78,-430.26 1122,-404 1145.29,-382.33 1141,-366.81 1141,-335 1141,-335 1141,-335 1141,-146 1141,-109.12 1146.46,-90.62 1119,-66 1081.46,-32.35 944.72,-38.35 895,-30 887.93,-28.81 880.5,-27.54 873.15,-26.27"/>
<polygon fill="#63b8ff" stroke="#63b8ff" points="873.66,-22.81 863.21,-24.55 872.46,-29.71 873.66,-22.81"/>
</a>
</g>
</g>
<!-- Node31 -->
<g id="Node000031" class="node">
<title>Node31</title>
<g id="a_Node000031"><a xlink:title=" ">
<polygon fill="#e0e0e0" stroke="#999999" points="1109.5,-90.5 984.5,-90.5 984.5,-71.5 1109.5,-71.5 1109.5,-90.5"/>
<text text-anchor="middle" x="1047" y="-78.5" font-family="Helvetica,sans-Serif" font-size="10.00">deal.II/base/function.h</text>
</a>
</g>
</g>
<!-- Node2&#45;&gt;Node31 -->
<g id="edge42_Node000002_Node000031" class="edge">
<title>Node2&#45;&gt;Node31</title>
<g id="a_edge42_Node000002_Node000031"><a xlink:title=" ">
<path fill="none" stroke="#63b8ff" d="M876.85,-445.36C883.36,-435.55 894.03,-418.97 902,-404 961.84,-291.56 1020.05,-149.55 1039.87,-100.02"/>
<polygon fill="#63b8ff" stroke="#63b8ff" points="1043.15,-101.24 1043.59,-90.66 1036.64,-98.65 1043.15,-101.24"/>
</a>
</g>
</g>
<!-- Node43 -->
<g id="Node000043" class="node">
<title>Node43</title>
<g id="a_Node000043"><a xlink:href="simulation__control_8h.html" target="_top" xlink:title="Simulation control classes for managing time&#45;stepping and iteration control in Lethe.">
<polygon fill="white" stroke="#666666" points="531,-404 391,-404 391,-385 531,-385 531,-404"/>
<text text-anchor="middle" x="461" y="-392" font-family="Helvetica,sans-Serif" font-size="10.00">core/simulation_control.h</text>
</a>
</g>
</g>
<!-- Node2&#45;&gt;Node43 -->
<g id="edge29_Node000002_Node000043" class="edge">
<title>Node2&#45;&gt;Node43</title>
<g id="a_edge29_Node000002_Node000043"><a xlink:title=" ">
<path fill="none" stroke="#63b8ff" d="M818.24,-446.47C745.02,-436.03 612.46,-417.11 531.03,-405.49"/>
<polygon fill="#63b8ff" stroke="#63b8ff" points="531.26,-401.99 520.87,-404.04 530.27,-408.92 531.26,-401.99"/>
</a>
</g>
</g>
<!-- Node46 -->
<g id="Node000046" class="node">
<title>Node46</title>
<g id="a_Node000046"><a xlink:title=" ">
<polygon fill="#e0e0e0" stroke="#999999" points="618.5,-349 487.5,-349 487.5,-319 618.5,-319 618.5,-349"/>
<text text-anchor="start" x="495.5" y="-337" font-family="Helvetica,sans-Serif" font-size="10.00">deal.II/particles/particle</text>
<text text-anchor="middle" x="553" y="-326" font-family="Helvetica,sans-Serif" font-size="10.00">_handler.h</text>
</a>
</g>
</g>
<!-- Node2&#45;&gt;Node46 -->
<g id="edge45_Node000002_Node000046" class="edge">
<title>Node2&#45;&gt;Node46</title>
<g id="a_edge45_Node000002_Node000046"><a xlink:title=" ">
<path fill="none" stroke="#63b8ff" d="M818.48,-451.92C766.42,-447.96 685.72,-436.56 624,-404 602.45,-392.63 583,-372.7 569.93,-357.17"/>
<polygon fill="#63b8ff" stroke="#63b8ff" points="572.37,-354.63 563.35,-349.08 566.94,-359.05 572.37,-354.63"/>
</a>
</g>
</g>
<!-- Node47 -->
<g id="Node000047" class="node">
<title>Node47</title>
<g id="a_Node000047"><a xlink:href="solid__objects__parameters_8h.html" target="_top" xlink:title="Parameter classes for solid objects used in Nitsche immersed boundary and DEM simulations.">
<polygon fill="white" stroke="#666666" points="791,-349 687,-349 687,-319 791,-319 791,-349"/>
<text text-anchor="start" x="695" y="-337" font-family="Helvetica,sans-Serif" font-size="10.00">core/solid_objects</text>
<text text-anchor="middle" x="739" y="-326" font-family="Helvetica,sans-Serif" font-size="10.00">_parameters.h</text>
</a>
</g>
</g>
<!-- Node2&#45;&gt;Node47 -->
<g id="edge36_Node000002_Node000047" class="edge">
<title>Node2&#45;&gt;Node47</title>
<g id="a_edge36_Node000002_Node000047"><a xlink:title=" ">
<path fill="none" stroke="#63b8ff" d="M858.83,-445.23C845.67,-435.58 824.26,-419.39 807,-404 790.1,-388.94 772.18,-370.64 758.98,-356.68"/>
<polygon fill="#63b8ff" stroke="#63b8ff" points="761.18,-353.91 751.79,-349.01 756.08,-358.7 761.18,-353.91"/>
</a>
</g>
</g>
<!-- Node48 -->
<g id="Node000048" class="node">
<title>Node48</title>
<g id="a_Node000048"><a xlink:title=" ">
<polygon fill="#e0e0e0" stroke="#999999" points="1112.5,-404 983.5,-404 983.5,-385 1112.5,-385 1112.5,-404"/>
<text text-anchor="middle" x="1048" y="-392" font-family="Helvetica,sans-Serif" font-size="10.00">deal.II/fe/mapping_fe.h</text>
</a>
</g>
</g>
<!-- Node2&#45;&gt;Node48 -->
<g id="edge44_Node000002_Node000048" class="edge">
<title>Node2&#45;&gt;Node48</title>
<g id="a_edge44_Node000002_Node000048"><a xlink:title=" ">
<path fill="none" stroke="#63b8ff" d="M896.74,-445.49C927.28,-435.4 978.37,-418.51 1012.62,-407.19"/>
<polygon fill="#63b8ff" stroke="#63b8ff" points="1013.84,-410.48 1022.23,-404.02 1011.64,-403.83 1013.84,-410.48"/>
</a>
</g>
</g>
<!-- Node4 -->
<g id="Node000004" class="node">
<title>Node4</title>
<g id="a_Node000004"><a xlink:href="parameters_8h.html" target="_top" xlink:title=" ">
<polygon fill="white" stroke="#666666" points="494,-283 388,-283 388,-264 494,-264 494,-283"/>
<text text-anchor="middle" x="441" y="-271" font-family="Helvetica,sans-Serif" font-size="10.00">core/parameters.h</text>
</a>
</g>
</g>
<!-- Node3&#45;&gt;Node4 -->
<g id="edge3_Node000003_Node000004" class="edge">
<title>Node3&#45;&gt;Node4</title>
<g id="a_edge3_Node000003_Node000004"><a xlink:title=" ">
<path fill="none" stroke="#63b8ff" d="M683.43,-384.81C674.7,-369.08 654.06,-335.95 627,-319 606.36,-306.07 548.27,-293.34 502.45,-284.83"/>
<polygon fill="#63b8ff" stroke="#63b8ff" points="503.04,-281.38 492.58,-283.03 501.79,-288.27 503.04,-281.38"/>
</a>
</g>
</g>
<!-- Node5 -->
<g id="Node000005" class="node">
<title>Node5</title>
<g id="a_Node000005"><a xlink:href="dimensionality_8h.html" target="_top" xlink:title=" ">
<polygon fill="white" stroke="#666666" points="232.5,-156.5 111.5,-156.5 111.5,-137.5 232.5,-137.5 232.5,-156.5"/>
<text text-anchor="middle" x="172" y="-144.5" font-family="Helvetica,sans-Serif" font-size="10.00">core/dimensionality.h</text>
</a>
</g>
</g>
<!-- Node4&#45;&gt;Node5 -->
<g id="edge4_Node000004_Node000005" class="edge">
<title>Node4&#45;&gt;Node5</title>
<g id="a_edge4_Node000004_Node000005"><a xlink:title=" ">
<path fill="none" stroke="#63b8ff" d="M387.94,-269.76C323.15,-265.3 218.72,-254.18 191,-228 174.41,-212.33 171.13,-185.05 171.01,-166.75"/>
<polygon fill="#63b8ff" stroke="#63b8ff" points="174.51,-166.79 171.25,-156.71 167.51,-166.63 174.51,-166.79"/>
</a>
</g>
</g>
<!-- Node6 -->
<g id="Node000006" class="node">
<title>Node6</title>
<g id="a_Node000006"><a xlink:title=" ">
<polygon fill="#e0e0e0" stroke="#999999" points="390.5,-30 263.5,-30 263.5,0 390.5,0 390.5,-30"/>
<text text-anchor="start" x="271.5" y="-18" font-family="Helvetica,sans-Serif" font-size="10.00">deal.II/base/parameter</text>
<text text-anchor="middle" x="327" y="-7" font-family="Helvetica,sans-Serif" font-size="10.00">_handler.h</text>
</a>
</g>
</g>
<!-- Node4&#45;&gt;Node6 -->
<g id="edge26_Node000004_Node000006" class="edge">
<title>Node4&#45;&gt;Node6</title>
<g id="a_edge26_Node000004_Node000006"><a xlink:title=" ">
<path fill="none" stroke="#63b8ff" d="M387.92,-272.72C331.57,-270.95 241.24,-262.3 172,-228 133.68,-209.02 118.94,-201.26 102,-162 71.19,-90.6 176.33,-50.22 253.16,-30.78"/>
<polygon fill="#63b8ff" stroke="#63b8ff" points="254.44,-34.07 263.32,-28.29 252.77,-27.27 254.44,-34.07"/>
</a>
</g>
</g>
<!-- Node7 -->
<g id="Node000007" class="node">
<title>Node7</title>
<g id="a_Node000007"><a xlink:href="ib__particle_8h.html" target="_top" xlink:title=" ">
<polygon fill="white" stroke="#666666" points="651.5,-222.5 550.5,-222.5 550.5,-203.5 651.5,-203.5 651.5,-222.5"/>
<text text-anchor="middle" x="601" y="-210.5" font-family="Helvetica,sans-Serif" font-size="10.00">core/ib_particle.h</text>
</a>
</g>
</g>
<!-- Node4&#45;&gt;Node7 -->
<g id="edge6_Node000004_Node000007" class="edge">
<title>Node4&#45;&gt;Node7</title>
<g id="a_edge6_Node000004_Node000007"><a xlink:title=" ">
<path fill="none" stroke="#63b8ff" d="M464.27,-263.99C491.64,-253.99 537.27,-237.3 568.22,-225.99"/>
<polygon fill="#63b8ff" stroke="#63b8ff" points="569.52,-229.24 577.71,-222.52 567.11,-222.66 569.52,-229.24"/>
</a>
</g>
</g>
<!-- Node4&#45;&gt;Node15 -->
<g id="edge25_Node000004_Node000015" class="edge">
<title>Node4&#45;&gt;Node15</title>
<g id="a_edge25_Node000004_Node000015"><a xlink:title=" ">
<path fill="none" stroke="#63b8ff" d="M494.17,-268.67C551.82,-263.37 638.63,-251.63 661,-228 690.64,-196.69 661.44,-172.93 675,-132 678.78,-120.6 685.07,-108.74 690.62,-99.43"/>
<polygon fill="#63b8ff" stroke="#63b8ff" points="693.7,-101.12 696.02,-90.78 687.76,-97.42 693.7,-101.12"/>
</a>
</g>
</g>
<!-- Node40 -->
<g id="Node000040" class="node">
<title>Node40</title>
<g id="a_Node000040"><a xlink:title=" ">
<polygon fill="#e0e0e0" stroke="#999999" points="792.5,-162 683.5,-162 683.5,-132 792.5,-132 792.5,-162"/>
<text text-anchor="start" x="691.5" y="-150" font-family="Helvetica,sans-Serif" font-size="10.00">deal.II/base/parsed</text>
<text text-anchor="middle" x="738" y="-139" font-family="Helvetica,sans-Serif" font-size="10.00">_function.h</text>
</a>
</g>
</g>
<!-- Node4&#45;&gt;Node40 -->
<g id="edge27_Node000004_Node000040" class="edge">
<title>Node4&#45;&gt;Node40</title>
<g id="a_edge27_Node000004_Node000040"><a xlink:title=" ">
<path fill="none" stroke="#63b8ff" d="M494.21,-268.53C558.72,-262.81 662.72,-250.38 694,-228 712.95,-214.44 724.64,-190.09 731.17,-171.8"/>
<polygon fill="#63b8ff" stroke="#63b8ff" points="734.55,-172.7 734.35,-162.11 727.9,-170.52 734.55,-172.7"/>
</a>
</g>
</g>
<!-- Node41 -->
<g id="Node000041" class="node">
<title>Node41</title>
<g id="a_Node000041"><a xlink:href="multiphysics_8h.html" target="_top" xlink:title="Identifiers for multiphysics modules and their solution fields.">
<polygon fill="white" stroke="#666666" points="312,-222.5 200,-222.5 200,-203.5 312,-203.5 312,-222.5"/>
<text text-anchor="middle" x="256" y="-210.5" font-family="Helvetica,sans-Serif" font-size="10.00">core/multiphysics.h</text>
</a>
</g>
</g>
<!-- Node4&#45;&gt;Node41 -->
<g id="edge24_Node000004_Node000041" class="edge">
<title>Node4&#45;&gt;Node41</title>
<g id="a_edge24_Node000004_Node000041"><a xlink:title=" ">
<path fill="none" stroke="#63b8ff" d="M414.1,-263.99C382.04,-253.86 328.32,-236.87 292.52,-225.55"/>
<polygon fill="#63b8ff" stroke="#63b8ff" points="293.52,-222.19 282.93,-222.52 291.41,-228.87 293.52,-222.19"/>
</a>
</g>
</g>
<!-- Node42 -->
<g id="Node000042" class="node">
<title>Node42</title>
<g id="a_Node000042"><a xlink:title=" ">
<polygon fill="#e0e0e0" stroke="#999999" points="493.5,-228 330.5,-228 330.5,-198 493.5,-198 493.5,-228"/>
<text text-anchor="start" x="338.5" y="-216" font-family="Helvetica,sans-Serif" font-size="10.00">deal.II/multigrid/mg</text>
<text text-anchor="middle" x="412" y="-205" font-family="Helvetica,sans-Serif" font-size="10.00">_transfer_global_coarsening.h</text>
</a>
</g>
</g>
<!-- Node4&#45;&gt;Node42 -->
<g id="edge28_Node000004_Node000042" class="edge">
<title>Node4&#45;&gt;Node42</title>
<g id="a_edge28_Node000004_Node000042"><a xlink:title=" ">
<path fill="none" stroke="#63b8ff" d="M436.72,-263.87C433.22,-256.81 428.11,-246.5 423.44,-237.08"/>
<polygon fill="#63b8ff" stroke="#63b8ff" points="426.57,-235.52 419,-228.11 420.3,-238.63 426.57,-235.52"/>
</a>
</g>
</g>
<!-- Node5&#45;&gt;Node6 -->
<g id="edge5_Node000005_Node000006" class="edge">
<title>Node5&#45;&gt;Node6</title>
<g id="a_edge5_Node000005_Node000006"><a xlink:title=" ">
<path fill="none" stroke="#63b8ff" d="M178.81,-137.37C191.28,-121.91 219.06,-88.97 247,-66 260.83,-54.63 277.44,-43.85 291.92,-35.24"/>
<polygon fill="#63b8ff" stroke="#63b8ff" points="293.75,-38.22 300.63,-30.16 290.23,-32.17 293.75,-38.22"/>
</a>
</g>
</g>
<!-- Node8 -->
<g id="Node000008" class="node">
<title>Node8</title>
<g id="a_Node000008"><a xlink:href="dem__properties_8h.html" target="_top" xlink:title="DEM particle property definitions and output name management.">
<polygon fill="#fff0f0" stroke="red" points="551,-90.5 425,-90.5 425,-71.5 551,-71.5 551,-90.5"/>
<text text-anchor="middle" x="488" y="-78.5" font-family="Helvetica,sans-Serif" font-size="10.00">core/dem_properties.h</text>
</a>
</g>
</g>
<!-- Node7&#45;&gt;Node8 -->
<g id="edge7_Node000007_Node000008" class="edge">
<title>Node7&#45;&gt;Node8</title>
<g id="a_edge7_Node000007_Node000008"><a xlink:title=" ">
<path fill="none" stroke="#63b8ff" d="M593.59,-203.47C575.07,-182.17 526.58,-126.38 502.29,-98.44"/>
<polygon fill="#63b8ff" stroke="#63b8ff" points="504.79,-95.98 495.59,-90.73 499.51,-100.57 504.79,-95.98"/>
</a>
</g>
</g>
<!-- Node10 -->
<g id="Node000010" class="node">
<title>Node10</title>
<g id="a_Node000010"><a xlink:title=" ">
<polygon fill="#e0e0e0" stroke="#999999" points="539.5,-24.5 492.5,-24.5 492.5,-5.5 539.5,-5.5 539.5,-24.5"/>
<text text-anchor="middle" x="516" y="-12.5" font-family="Helvetica,sans-Serif" font-size="10.00">vector</text>
</a>
</g>
</g>
<!-- Node7&#45;&gt;Node10 -->
<g id="edge23_Node000007_Node000010" class="edge">
<title>Node7&#45;&gt;Node10</title>
<g id="a_edge23_Node000007_Node000010"><a xlink:title=" ">
<path fill="none" stroke="#63b8ff" d="M599.93,-203.26C596.77,-179.79 586.02,-113.89 560,-66 553.08,-53.27 542.4,-41.02 533.29,-31.84"/>
<polygon fill="#63b8ff" stroke="#63b8ff" points="535.44,-29.05 525.82,-24.62 530.58,-34.08 535.44,-29.05"/>
</a>
</g>
</g>
<!-- Node11 -->
<g id="Node000011" class="node">
<title>Node11</title>
<g id="a_Node000011"><a xlink:href="shape_8h.html" target="_top" xlink:title=" ">
<polygon fill="#fff0f0" stroke="red" points="928.5,-156.5 849.5,-156.5 849.5,-137.5 928.5,-137.5 928.5,-156.5"/>
<text text-anchor="middle" x="889" y="-144.5" font-family="Helvetica,sans-Serif" font-size="10.00">core/shape.h</text>
</a>
</g>
</g>
<!-- Node7&#45;&gt;Node11 -->
<g id="edge9_Node000007_Node000011" class="edge">
<title>Node7&#45;&gt;Node11</title>
<g id="a_edge9_Node000007_Node000011"><a xlink:title=" ">
<path fill="none" stroke="#63b8ff" d="M639.54,-203.44C691.6,-191.87 784.35,-171.26 840.91,-158.69"/>
<polygon fill="#63b8ff" stroke="#63b8ff" points="841.68,-162.1 850.69,-156.51 840.16,-155.27 841.68,-162.1"/>
</a>
</g>
</g>
<!-- Node13 -->
<g id="Node000013" class="node">
<title>Node13</title>
<g id="a_Node000013"><a xlink:title=" ">
<polygon fill="#e0e0e0" stroke="#999999" points="727,-24.5 617,-24.5 617,-5.5 727,-5.5 727,-24.5"/>
<text text-anchor="middle" x="672" y="-12.5" font-family="Helvetica,sans-Serif" font-size="10.00">deal.II/base/point.h</text>
</a>
</g>
</g>
<!-- Node7&#45;&gt;Node13 -->
<g id="edge22_Node000007_Node000013" class="edge">
<title>Node7&#45;&gt;Node13</title>
<g id="a_edge22_Node000007_Node000013"><a xlink:title=" ">
<path fill="none" stroke="#63b8ff" d="M603.6,-203.35C610.51,-180.6 630.13,-117.37 650,-66 654.17,-55.22 659.36,-43.37 663.65,-33.91"/>
<polygon fill="#63b8ff" stroke="#63b8ff" points="666.86,-35.3 667.86,-24.75 660.5,-32.37 666.86,-35.3"/>
</a>
</g>
</g>
<!-- Node7&#45;&gt;Node40 -->
<g id="edge21_Node000007_Node000040" class="edge">
<title>Node7&#45;&gt;Node40</title>
<g id="a_edge21_Node000007_Node000040"><a xlink:title=" ">
<path fill="none" stroke="#63b8ff" d="M619.48,-203.37C639.64,-193.95 672.52,-178.59 698.54,-166.43"/>
<polygon fill="#63b8ff" stroke="#63b8ff" points="700.2,-169.52 707.78,-162.12 697.24,-163.18 700.2,-169.52"/>
</a>
</g>
</g>
<!-- Node8&#45;&gt;Node10 -->
<g id="edge8_Node000008_Node000010" class="edge">
<title>Node8&#45;&gt;Node10</title>
<g id="a_edge8_Node000008_Node000010"><a xlink:title=" ">
<path fill="none" stroke="#63b8ff" d="M491.78,-71.37C495.93,-61.88 502.72,-46.36 508.05,-34.16"/>
<polygon fill="#63b8ff" stroke="#63b8ff" points="511.3,-35.47 512.1,-24.91 504.89,-32.66 511.3,-35.47"/>
</a>
</g>
</g>
<!-- Node11&#45;&gt;Node12 -->
<g id="edge10_Node000011_Node000012" class="edge">
<title>Node11&#45;&gt;Node12</title>
<g id="a_edge10_Node000011_Node000012"><a xlink:title=" ">
<path fill="none" stroke="#63b8ff" d="M889.13,-137.37C889.26,-129.49 889.45,-117.45 889.62,-106.6"/>
<polygon fill="#63b8ff" stroke="#63b8ff" points="893.12,-106.41 889.78,-96.36 886.12,-106.3 893.12,-106.41"/>
</a>
</g>
</g>
<!-- Node11&#45;&gt;Node15 -->
<g id="edge13_Node000011_Node000015" class="edge">
<title>Node11&#45;&gt;Node15</title>
<g id="a_edge13_Node000011_Node000015"><a xlink:title=" ">
<path fill="none" stroke="#63b8ff" d="M863.78,-137.37C831.07,-126.17 773.83,-106.58 736.94,-93.96"/>
<polygon fill="#63b8ff" stroke="#63b8ff" points="737.71,-90.52 727.12,-90.6 735.45,-97.15 737.71,-90.52"/>
</a>
</g>
</g>
<!-- Node11&#45;&gt;Node20 -->
<g id="edge20_Node000011_Node000020" class="edge">
<title>Node11&#45;&gt;Node20</title>
<g id="a_edge20_Node000011_Node000020"><a xlink:title=" ">
<path fill="none" stroke="#63b8ff" d="M860.54,-137.39C841.11,-129.86 816.83,-116.8 805,-96 794.12,-76.85 800.39,-51.02 806.84,-33.96"/>
<polygon fill="#63b8ff" stroke="#63b8ff" points="810.12,-35.18 810.73,-24.6 803.66,-32.49 810.12,-35.18"/>
</a>
</g>
</g>
<!-- Node11&#45;&gt;Node31 -->
<g id="edge19_Node000011_Node000031" class="edge">
<title>Node11&#45;&gt;Node31</title>
<g id="a_edge19_Node000011_Node000031"><a xlink:title=" ">
<path fill="none" stroke="#63b8ff" d="M910.31,-137.37C937.6,-126.32 985.07,-107.08 1016.27,-94.45"/>
<polygon fill="#63b8ff" stroke="#63b8ff" points="1017.82,-97.59 1025.78,-90.6 1015.19,-91.11 1017.82,-97.59"/>
</a>
</g>
</g>
<!-- Node12&#45;&gt;Node13 -->
<g id="edge11_Node000012_Node000013" class="edge">
<title>Node12&#45;&gt;Node13</title>
<g id="a_edge11_Node000012_Node000013"><a xlink:title=" ">
<path fill="none" stroke="#63b8ff" d="M842.16,-65.95C802.75,-54.38 747.57,-38.18 710.85,-27.41"/>
<polygon fill="#63b8ff" stroke="#63b8ff" points="711.59,-23.98 701.01,-24.52 709.62,-30.69 711.59,-23.98"/>
</a>
</g>
</g>
<!-- Node12&#45;&gt;Node14 -->
<g id="edge12_Node000012_Node000014" class="edge">
<title>Node12&#45;&gt;Node14</title>
<g id="a_edge12_Node000012_Node000014"><a xlink:title=" ">
<path fill="none" stroke="#63b8ff" d="M905.76,-65.8C916.93,-55.72 931.94,-42.19 943.49,-31.78"/>
<polygon fill="#63b8ff" stroke="#63b8ff" points="946.1,-34.14 951.19,-24.84 941.42,-28.94 946.1,-34.14"/>
</a>
</g>
</g>
<!-- Node15&#45;&gt;Node6 -->
<g id="edge14_Node000015_Node000006" class="edge">
<title>Node15&#45;&gt;Node6</title>
<g id="a_edge14_Node000015_Node000006"><a xlink:title=" ">
<path fill="none" stroke="#63b8ff" d="M658.98,-72.66C596.01,-61.91 477.88,-41.75 400.85,-28.6"/>
<polygon fill="#63b8ff" stroke="#63b8ff" points="401.18,-25.11 390.73,-26.88 400,-32.01 401.18,-25.11"/>
</a>
</g>
</g>
<!-- Node15&#45;&gt;Node10 -->
<g id="edge18_Node000015_Node000010" class="edge">
<title>Node15&#45;&gt;Node10</title>
<g id="a_edge18_Node000015_Node000010"><a xlink:title=" ">
<path fill="none" stroke="#63b8ff" d="M676.92,-71.37C643.92,-60.02 585.86,-40.04 549.24,-27.44"/>
<polygon fill="#63b8ff" stroke="#63b8ff" points="550.11,-24.04 539.52,-24.09 547.83,-30.65 550.11,-24.04"/>
</a>
</g>
</g>
<!-- Node15&#45;&gt;Node13 -->
<g id="edge15_Node000015_Node000013" class="edge">
<title>Node15&#45;&gt;Node13</title>
<g id="a_edge15_Node000015_Node000013"><a xlink:title=" ">
<path fill="none" stroke="#63b8ff" d="M697.95,-71.37C693.51,-61.88 686.23,-46.36 680.51,-34.16"/>
<polygon fill="#63b8ff" stroke="#63b8ff" points="683.59,-32.47 676.17,-24.91 677.25,-35.45 683.59,-32.47"/>
</a>
</g>
</g>
<!-- Node15&#45;&gt;Node14 -->
<g id="edge16_Node000015_Node000014" class="edge">
<title>Node15&#45;&gt;Node14</title>
<g id="a_edge16_Node000015_Node000014"><a xlink:title=" ">
<path fill="none" stroke="#63b8ff" d="M736.66,-71.44C783.18,-59.94 865.85,-39.51 916.8,-26.92"/>
<polygon fill="#63b8ff" stroke="#63b8ff" points="917.68,-30.31 926.54,-24.51 916,-23.52 917.68,-30.31"/>
</a>
</g>
</g>
<!-- Node15&#45;&gt;Node20 -->
<g id="edge17_Node000015_Node000020" class="edge">
<title>Node15&#45;&gt;Node20</title>
<g id="a_edge17_Node000015_Node000020"><a xlink:title=" ">
<path fill="none" stroke="#63b8ff" d="M717.24,-71.37C736.11,-60.68 768.48,-42.35 790.77,-29.72"/>
<polygon fill="#63b8ff" stroke="#63b8ff" points="792.66,-32.67 799.64,-24.7 789.21,-26.58 792.66,-32.67"/>
</a>
</g>
</g>
<!-- Node43&#45;&gt;Node4 -->
<g id="edge34_Node000043_Node000004" class="edge">
<title>Node43&#45;&gt;Node4</title>
<g id="a_edge34_Node000043_Node000004"><a xlink:title=" ">
<path fill="none" stroke="#63b8ff" d="M459.56,-384.94C456.36,-365.91 448.59,-319.69 444.19,-293.47"/>
<polygon fill="#63b8ff" stroke="#63b8ff" points="447.59,-292.58 442.48,-283.3 440.69,-293.74 447.59,-292.58"/>
</a>
</g>
</g>
<!-- Node44 -->
<g id="Node000044" class="node">
<title>Node44</title>
<g id="a_Node000044"><a xlink:href="bdf_8h.html" target="_top" xlink:title=" ">
<polygon fill="white" stroke="#666666" points="298.5,-343.5 233.5,-343.5 233.5,-324.5 298.5,-324.5 298.5,-343.5"/>
<text text-anchor="middle" x="266" y="-331.5" font-family="Helvetica,sans-Serif" font-size="10.00">core/bdf.h</text>
</a>
</g>
</g>
<!-- Node43&#45;&gt;Node44 -->
<g id="edge30_Node000043_Node000044" class="edge">
<title>Node43&#45;&gt;Node44</title>
<g id="a_edge30_Node000043_Node000044"><a xlink:title=" ">
<path fill="none" stroke="#63b8ff" d="M432.65,-384.99C398.71,-374.81 341.74,-357.72 304.01,-346.4"/>
<polygon fill="#63b8ff" stroke="#63b8ff" points="304.97,-343.04 294.39,-343.52 302.96,-349.74 304.97,-343.04"/>
</a>
</g>
</g>
<!-- Node43&#45;&gt;Node46 -->
<g id="edge35_Node000043_Node000046" class="edge">
<title>Node43&#45;&gt;Node46</title>
<g id="a_edge35_Node000043_Node000046"><a xlink:title=" ">
<path fill="none" stroke="#63b8ff" d="M474.57,-384.87C487.06,-376.93 506.02,-364.87 522.18,-354.6"/>
<polygon fill="#63b8ff" stroke="#63b8ff" points="524.24,-357.43 530.8,-349.11 520.49,-351.53 524.24,-357.43"/>
</a>
</g>
</g>
<!-- Node44&#45;&gt;Node4 -->
<g id="edge31_Node000044_Node000004" class="edge">
<title>Node44&#45;&gt;Node4</title>
<g id="a_edge31_Node000044_Node000004"><a xlink:title=" ">
<path fill="none" stroke="#63b8ff" d="M291.45,-324.49C321.64,-314.4 372.16,-297.51 406.02,-286.19"/>
<polygon fill="#63b8ff" stroke="#63b8ff" points="407.15,-289.51 415.52,-283.02 404.93,-282.87 407.15,-289.51"/>
</a>
</g>
</g>
<!-- Node44&#45;&gt;Node10 -->
<g id="edge33_Node000044_Node000010" class="edge">
<title>Node44&#45;&gt;Node10</title>
<g id="a_edge33_Node000044_Node000010"><a xlink:title=" ">
<path fill="none" stroke="#63b8ff" d="M254.61,-324.43C227.58,-303.01 163.82,-245.46 191,-198 198.2,-185.42 403.26,-72.91 416,-66 440.19,-52.87 468.26,-38.95 488.5,-29.14"/>
<polygon fill="#63b8ff" stroke="#63b8ff" points="490.26,-32.17 497.75,-24.67 487.22,-25.87 490.26,-32.17"/>
</a>
</g>
</g>
<!-- Node45 -->
<g id="Node000045" class="node">
<title>Node45</title>
<g id="a_Node000045"><a xlink:title=" ">
<polygon fill="#e0e0e0" stroke="#999999" points="106,-283 0,-283 0,-264 106,-264 106,-283"/>
<text text-anchor="middle" x="53" y="-271" font-family="Helvetica,sans-Serif" font-size="10.00">deal.II/lac/vector.h</text>
</a>
</g>
</g>
<!-- Node44&#45;&gt;Node45 -->
<g id="edge32_Node000044_Node000045" class="edge">
<title>Node44&#45;&gt;Node45</title>
<g id="a_edge32_Node000044_Node000045"><a xlink:title=" ">
<path fill="none" stroke="#63b8ff" d="M235.03,-324.49C197.72,-314.25 134.94,-297 93.73,-285.69"/>
<polygon fill="#63b8ff" stroke="#63b8ff" points="94.58,-282.29 84.01,-283.02 92.73,-289.04 94.58,-282.29"/>
</a>
</g>
</g>
<!-- Node47&#45;&gt;Node4 -->
<g id="edge37_Node000047_Node000004" class="edge">
<title>Node47&#45;&gt;Node4</title>
<g id="a_edge37_Node000047_Node000004"><a xlink:title=" ">
<path fill="none" stroke="#63b8ff" d="M686.64,-322.5C680.69,-321.32 674.71,-320.13 669,-319 609.59,-307.26 541.44,-293.99 495.24,-285.01"/>
<polygon fill="#63b8ff" stroke="#63b8ff" points="495.63,-281.52 485.15,-283.05 494.3,-288.4 495.63,-281.52"/>
</a>
</g>
</g>
<!-- Node47&#45;&gt;Node6 -->
<g id="edge38_Node000047_Node000006" class="edge">
<title>Node47&#45;&gt;Node6</title>
<g id="a_edge38_Node000047_Node000006"><a xlink:title=" ">
<path fill="none" stroke="#63b8ff" d="M705.74,-319C664.94,-301.03 594.6,-267.42 541,-228 460,-168.43 379.97,-78.77 345.13,-37.81"/>
<polygon fill="#63b8ff" stroke="#63b8ff" points="347.72,-35.44 338.59,-30.06 342.37,-39.96 347.72,-35.44"/>
</a>
</g>
</g>
<!-- Node47&#45;&gt;Node40 -->
<g id="edge39_Node000047_Node000040" class="edge">
<title>Node47&#45;&gt;Node40</title>
<g id="a_edge39_Node000047_Node000040"><a xlink:title=" ">
<path fill="none" stroke="#63b8ff" d="M738.92,-318.79C738.75,-287.3 738.34,-211.36 738.13,-172.22"/>
<polygon fill="#63b8ff" stroke="#63b8ff" points="741.63,-171.99 738.08,-162 734.63,-172.02 741.63,-171.99"/>
</a>
</g>
</g>
</g>
</svg>
