<?xml version="1.0" encoding="UTF-8" standalone="no"?>
<!DOCTYPE svg PUBLIC "-//W3C//DTD SVG 1.1//EN"
 "http://www.w3.org/Graphics/SVG/1.1/DTD/svg11.dtd">
<!-- Generated by graphviz version 2.43.0 (0)
 -->
<!-- Title: /home/runner/work/lethe/lethe/include/core/lethe_grid_tools.h Pages: 1 -->
<svg width="3169pt" height="478pt"
 viewBox="0.00 0.00 3168.50 478.00" xmlns="http://www.w3.org/2000/svg" xmlns:xlink="http://www.w3.org/1999/xlink">
<g id="graph0" class="graph" transform="scale(1 1) rotate(0) translate(4 474)">
<title>/home/runner/work/lethe/lethe/include/core/lethe_grid_tools.h</title>
<!-- Node1 -->
<g id="Node000001" class="node">
<title>Node1</title>
<g id="a_Node000001"><a xlink:title=" ">
<polygon fill="#999999" stroke="#666666" points="2112.5,-470 1975.5,-470 1975.5,-429 2112.5,-429 2112.5,-470"/>
<text text-anchor="start" x="1983.5" y="-458" font-family="Helvetica,sans-Serif" font-size="10.00">/home/runner/work/lethe</text>
<text text-anchor="start" x="1983.5" y="-447" font-family="Helvetica,sans-Serif" font-size="10.00">/lethe/include/core/lethe</text>
<text text-anchor="middle" x="2044" y="-436" font-family="Helvetica,sans-Serif" font-size="10.00">_grid_tools.h</text>
</a>
</g>
</g>
<!-- Node2 -->
<g id="Node000002" class="node">
<title>Node2</title>
<g id="a_Node000002"><a xlink:href="interface__tools_8h.html" target="_top" xlink:title=" ">
<polygon fill="white" stroke="#666666" points="392.5,-387.5 239.5,-387.5 239.5,-346.5 392.5,-346.5 392.5,-387.5"/>
<text text-anchor="start" x="247.5" y="-375.5" font-family="Helvetica,sans-Serif" font-size="10.00">/home/runner/work/lethe</text>
<text text-anchor="start" x="247.5" y="-364.5" font-family="Helvetica,sans-Serif" font-size="10.00">/lethe/include/core/interface</text>
<text text-anchor="middle" x="316" y="-353.5" font-family="Helvetica,sans-Serif" font-size="10.00">_tools.h</text>
</a>
</g>
</g>
<!-- Node1&#45;&gt;Node2 -->
<g id="edge1_Node000001_Node000002" class="edge">
<title>Node1&#45;&gt;Node2</title>
<g id="a_edge1_Node000001_Node000002"><a xlink:title=" ">
<path fill="none" stroke="#63b8ff" d="M1965.05,-448.27C1681.15,-447.06 712.81,-439.53 407,-393 398.09,-391.64 388.81,-389.72 379.73,-387.53"/>
<polygon fill="#63b8ff" stroke="#63b8ff" points="1965.24,-451.77 1975.26,-448.31 1965.27,-444.77 1965.24,-451.77"/>
</a>
</g>
</g>
<!-- Node7 -->
<g id="Node000007" class="node">
<title>Node7</title>
<g id="a_Node000007"><a xlink:href="particle__wall__contact__force_8h.html" target="_top" xlink:title=" ">
<polygon fill="white" stroke="#666666" points="1021.5,-387.5 874.5,-387.5 874.5,-346.5 1021.5,-346.5 1021.5,-387.5"/>
<text text-anchor="start" x="882.5" y="-375.5" font-family="Helvetica,sans-Serif" font-size="10.00">/home/runner/work/lethe</text>
<text text-anchor="start" x="882.5" y="-364.5" font-family="Helvetica,sans-Serif" font-size="10.00">/lethe/include/dem/particle</text>
<text text-anchor="middle" x="948" y="-353.5" font-family="Helvetica,sans-Serif" font-size="10.00">_wall_contact_force.h</text>
</a>
</g>
</g>
<!-- Node1&#45;&gt;Node7 -->
<g id="edge6_Node000001_Node000007" class="edge">
<title>Node1&#45;&gt;Node7</title>
<g id="a_edge6_Node000001_Node000007"><a xlink:title=" ">
<path fill="none" stroke="#63b8ff" d="M1965.42,-442.73C1761.84,-427.78 1219.38,-387.93 1021.53,-373.4"/>
<polygon fill="#63b8ff" stroke="#63b8ff" points="1965.21,-446.22 1975.44,-443.46 1965.72,-439.24 1965.21,-446.22"/>
</a>
</g>
</g>
<!-- Node14 -->
<g id="Node000014" class="node">
<title>Node14</title>
<g id="a_Node000014"><a xlink:href="fluid__dynamics__vans_8cc.html" target="_top" xlink:title=" ">
<polygon fill="white" stroke="#666666" points="1602.5,-123.5 1465.5,-123.5 1465.5,-82.5 1602.5,-82.5 1602.5,-123.5"/>
<text text-anchor="start" x="1473.5" y="-111.5" font-family="Helvetica,sans-Serif" font-size="10.00">/home/runner/work/lethe</text>
<text text-anchor="start" x="1473.5" y="-100.5" font-family="Helvetica,sans-Serif" font-size="10.00">/lethe/source/fem&#45;dem</text>
<text text-anchor="middle" x="1534" y="-89.5" font-family="Helvetica,sans-Serif" font-size="10.00">/fluid_dynamics_vans.cc</text>
</a>
</g>
</g>
<!-- Node1&#45;&gt;Node14 -->
<g id="edge30_Node000001_Node000014" class="edge">
<title>Node1&#45;&gt;Node14</title>
<g id="a_edge30_Node000001_Node000014"><a xlink:title=" ">
<path fill="none" stroke="#63b8ff" d="M1965.33,-444.4C1838.79,-437.05 1601.39,-419.84 1574,-393 1554.69,-374.08 1539.77,-185.71 1535.34,-123.69"/>
<polygon fill="#63b8ff" stroke="#63b8ff" points="1965.18,-447.9 1975.36,-444.98 1965.58,-440.91 1965.18,-447.9"/>
</a>
</g>
</g>
<!-- Node20 -->
<g id="Node000020" class="node">
<title>Node20</title>
<g id="a_Node000020"><a xlink:href="fluid__dynamics__sharp_8cc.html" target="_top" xlink:title=" ">
<polygon fill="white" stroke="#666666" points="616.5,-123.5 477.5,-123.5 477.5,-82.5 616.5,-82.5 616.5,-123.5"/>
<text text-anchor="start" x="485.5" y="-111.5" font-family="Helvetica,sans-Serif" font-size="10.00">/home/runner/work/lethe</text>
<text text-anchor="start" x="485.5" y="-100.5" font-family="Helvetica,sans-Serif" font-size="10.00">/lethe/source/fem&#45;dem</text>
<text text-anchor="middle" x="547" y="-89.5" font-family="Helvetica,sans-Serif" font-size="10.00">/fluid_dynamics_sharp.cc</text>
</a>
</g>
</g>
<!-- Node1&#45;&gt;Node20 -->
<g id="edge29_Node000001_Node000020" class="edge">
<title>Node1&#45;&gt;Node20</title>
<g id="a_edge29_Node000001_Node000020"><a xlink:title=" ">
<path fill="none" stroke="#63b8ff" d="M1965,-447.11C1736.64,-442.71 1078.5,-427.33 866,-393 663.77,-360.33 529.55,-401.25 440,-217 429.9,-196.21 428.39,-184.98 440,-165 450.8,-146.42 469.61,-133.03 488.47,-123.61"/>
<polygon fill="#63b8ff" stroke="#63b8ff" points="1965.15,-450.61 1975.22,-447.3 1965.29,-443.61 1965.15,-450.61"/>
</a>
</g>
</g>
<!-- Node23 -->
<g id="Node000023" class="node">
<title>Node23</title>
<g id="a_Node000023"><a xlink:href="lethe__grid__tools_8cc.html" target="_top" xlink:title=" ">
<polygon fill="white" stroke="#666666" points="1719.5,-387.5 1582.5,-387.5 1582.5,-346.5 1719.5,-346.5 1719.5,-387.5"/>
<text text-anchor="start" x="1590.5" y="-375.5" font-family="Helvetica,sans-Serif" font-size="10.00">/home/runner/work/lethe</text>
<text text-anchor="start" x="1590.5" y="-364.5" font-family="Helvetica,sans-Serif" font-size="10.00">/lethe/source/core/lethe</text>
<text text-anchor="middle" x="1651" y="-353.5" font-family="Helvetica,sans-Serif" font-size="10.00">_grid_tools.cc</text>
</a>
</g>
</g>
<!-- Node1&#45;&gt;Node23 -->
<g id="edge26_Node000001_Node000023" class="edge">
<title>Node1&#45;&gt;Node23</title>
<g id="a_edge26_Node000001_Node000023"><a xlink:title=" ">
<path fill="none" stroke="#63b8ff" d="M1965.2,-437.65C1901.1,-428.1 1808.57,-412.66 1729,-393 1722.51,-391.4 1715.78,-389.54 1709.1,-387.58"/>
<polygon fill="#63b8ff" stroke="#63b8ff" points="1964.83,-441.14 1975.23,-439.13 1965.85,-434.21 1964.83,-441.14"/>
</a>
</g>
</g>
<!-- Node24 -->
<g id="Node000024" class="node">
<title>Node24</title>
<g id="a_Node000024"><a xlink:href="serial__solid_8cc.html" target="_top" xlink:title=" ">
<polygon fill="white" stroke="#666666" points="1874.5,-387.5 1737.5,-387.5 1737.5,-346.5 1874.5,-346.5 1874.5,-387.5"/>
<text text-anchor="start" x="1745.5" y="-375.5" font-family="Helvetica,sans-Serif" font-size="10.00">/home/runner/work/lethe</text>
<text text-anchor="start" x="1745.5" y="-364.5" font-family="Helvetica,sans-Serif" font-size="10.00">/lethe/source/core/serial</text>
<text text-anchor="middle" x="1806" y="-353.5" font-family="Helvetica,sans-Serif" font-size="10.00">_solid.cc</text>
</a>
</g>
</g>
<!-- Node1&#45;&gt;Node24 -->
<g id="edge27_Node000001_Node000024" class="edge">
<title>Node1&#45;&gt;Node24</title>
<g id="a_edge27_Node000001_Node000024"><a xlink:title=" ">
<path fill="none" stroke="#63b8ff" d="M1976.28,-425.59C1940.75,-413.58 1897.69,-399.01 1863.76,-387.54"/>
<polygon fill="#63b8ff" stroke="#63b8ff" points="1975.49,-429.02 1986.08,-428.91 1977.73,-422.39 1975.49,-429.02"/>
</a>
</g>
</g>
<!-- Node25 -->
<g id="Node000025" class="node">
<title>Node25</title>
<g id="a_Node000025"><a xlink:href="ray__tracing_8cc.html" target="_top" xlink:title=" ">
<polygon fill="white" stroke="#666666" points="2029.5,-387.5 1892.5,-387.5 1892.5,-346.5 2029.5,-346.5 2029.5,-387.5"/>
<text text-anchor="start" x="1900.5" y="-375.5" font-family="Helvetica,sans-Serif" font-size="10.00">/home/runner/work/lethe</text>
<text text-anchor="start" x="1900.5" y="-364.5" font-family="Helvetica,sans-Serif" font-size="10.00">/lethe/source/dem/ray</text>
<text text-anchor="middle" x="1961" y="-353.5" font-family="Helvetica,sans-Serif" font-size="10.00">_tracing.cc</text>
</a>
</g>
</g>
<!-- Node1&#45;&gt;Node25 -->
<g id="edge28_Node000001_Node000025" class="edge">
<title>Node1&#45;&gt;Node25</title>
<g id="a_edge28_Node000001_Node000025"><a xlink:title=" ">
<path fill="none" stroke="#63b8ff" d="M2016.24,-421.57C2004.8,-410.48 1991.8,-397.87 1981.28,-387.67"/>
<polygon fill="#63b8ff" stroke="#63b8ff" points="2013.87,-424.15 2023.48,-428.6 2018.74,-419.13 2013.87,-424.15"/>
</a>
</g>
</g>
<!-- Node26 -->
<g id="Node000026" class="node">
<title>Node26</title>
<g id="a_Node000026"><a xlink:href="fluid__dynamics__vans__matrix__free_8cc.html" target="_top" xlink:title=" ">
<polygon fill="white" stroke="#666666" points="2206.5,-393 2047.5,-393 2047.5,-341 2206.5,-341 2206.5,-393"/>
<text text-anchor="start" x="2055.5" y="-381" font-family="Helvetica,sans-Serif" font-size="10.00">/home/runner/work/lethe</text>
<text text-anchor="start" x="2055.5" y="-370" font-family="Helvetica,sans-Serif" font-size="10.00">/lethe/source/fem&#45;dem</text>
<text text-anchor="start" x="2055.5" y="-359" font-family="Helvetica,sans-Serif" font-size="10.00">/fluid_dynamics_vans_matrix</text>
<text text-anchor="middle" x="2127" y="-348" font-family="Helvetica,sans-Serif" font-size="10.00">_free.cc</text>
</a>
</g>
</g>
<!-- Node1&#45;&gt;Node26 -->
<g id="edge31_Node000001_Node000026" class="edge">
<title>Node1&#45;&gt;Node26</title>
<g id="a_edge31_Node000001_Node000026"><a xlink:title=" ">
<path fill="none" stroke="#63b8ff" d="M2071.82,-421.52C2081.26,-412.36 2091.77,-402.17 2101.06,-393.16"/>
<polygon fill="#63b8ff" stroke="#63b8ff" points="2069.26,-419.13 2064.52,-428.6 2074.13,-424.15 2069.26,-419.13"/>
</a>
</g>
</g>
<!-- Node27 -->
<g id="Node000027" class="node">
<title>Node27</title>
<g id="a_Node000027"><a xlink:href="particle__projector_8cc.html" target="_top" xlink:title=" ">
<polygon fill="white" stroke="#666666" points="2361.5,-387.5 2224.5,-387.5 2224.5,-346.5 2361.5,-346.5 2361.5,-387.5"/>
<text text-anchor="start" x="2232.5" y="-375.5" font-family="Helvetica,sans-Serif" font-size="10.00">/home/runner/work/lethe</text>
<text text-anchor="start" x="2232.5" y="-364.5" font-family="Helvetica,sans-Serif" font-size="10.00">/lethe/source/fem&#45;dem</text>
<text text-anchor="middle" x="2293" y="-353.5" font-family="Helvetica,sans-Serif" font-size="10.00">/particle_projector.cc</text>
</a>
</g>
</g>
<!-- Node1&#45;&gt;Node27 -->
<g id="edge32_Node000001_Node000027" class="edge">
<title>Node1&#45;&gt;Node27</title>
<g id="a_edge32_Node000001_Node000027"><a xlink:title=" ">
<path fill="none" stroke="#63b8ff" d="M2114.77,-425.7C2145.84,-415.68 2182.73,-403.77 2216,-393 2221.48,-391.23 2227.18,-389.38 2232.89,-387.53"/>
<polygon fill="#63b8ff" stroke="#63b8ff" points="2113.35,-422.48 2104.9,-428.88 2115.5,-429.14 2113.35,-422.48"/>
</a>
</g>
</g>
<!-- Node28 -->
<g id="Node000028" class="node">
<title>Node28</title>
<g id="a_Node000028"><a xlink:href="fluid__dynamics__matrix__free_8cc.html" target="_top" xlink:title=" ">
<polygon fill="white" stroke="#666666" points="2516.5,-393 2379.5,-393 2379.5,-341 2516.5,-341 2516.5,-393"/>
<text text-anchor="start" x="2387.5" y="-381" font-family="Helvetica,sans-Serif" font-size="10.00">/home/runner/work/lethe</text>
<text text-anchor="start" x="2387.5" y="-370" font-family="Helvetica,sans-Serif" font-size="10.00">/lethe/source/solvers</text>
<text text-anchor="start" x="2387.5" y="-359" font-family="Helvetica,sans-Serif" font-size="10.00">/fluid_dynamics_matrix</text>
<text text-anchor="middle" x="2448" y="-348" font-family="Helvetica,sans-Serif" font-size="10.00">_free.cc</text>
</a>
</g>
</g>
<!-- Node1&#45;&gt;Node28 -->
<g id="edge33_Node000001_Node000028" class="edge">
<title>Node1&#45;&gt;Node28</title>
<g id="a_edge33_Node000001_Node000028"><a xlink:title=" ">
<path fill="none" stroke="#63b8ff" d="M2122.56,-438.45C2189.21,-429.14 2287.1,-413.62 2371,-393 2373.73,-392.33 2376.5,-391.61 2379.3,-390.86"/>
<polygon fill="#63b8ff" stroke="#63b8ff" points="2121.97,-434.99 2112.55,-439.83 2122.93,-441.93 2121.97,-434.99"/>
</a>
</g>
</g>
<!-- Node29 -->
<g id="Node000029" class="node">
<title>Node29</title>
<g id="a_Node000029"><a xlink:href="heat__transfer__assemblers_8cc.html" target="_top" xlink:title=" ">
<polygon fill="white" stroke="#666666" points="2695,-387.5 2535,-387.5 2535,-346.5 2695,-346.5 2695,-387.5"/>
<text text-anchor="start" x="2543" y="-375.5" font-family="Helvetica,sans-Serif" font-size="10.00">/home/runner/work/lethe</text>
<text text-anchor="start" x="2543" y="-364.5" font-family="Helvetica,sans-Serif" font-size="10.00">/lethe/source/solvers</text>
<text text-anchor="middle" x="2615" y="-353.5" font-family="Helvetica,sans-Serif" font-size="10.00">/heat_transfer_assemblers.cc</text>
</a>
</g>
</g>
<!-- Node1&#45;&gt;Node29 -->
<g id="edge34_Node000001_Node000029" class="edge">
<title>Node1&#45;&gt;Node29</title>
<g id="a_edge34_Node000001_Node000029"><a xlink:title=" ">
<path fill="none" stroke="#63b8ff" d="M2122.98,-443.28C2218.94,-436.05 2385.45,-420.65 2526,-393 2533.87,-391.45 2542.07,-389.55 2550.15,-387.5"/>
<polygon fill="#63b8ff" stroke="#63b8ff" points="2122.49,-439.81 2112.78,-444.04 2123.01,-446.79 2122.49,-439.81"/>
</a>
</g>
</g>
<!-- Node30 -->
<g id="Node000030" class="node">
<title>Node30</title>
<g id="a_Node000030"><a xlink:href="navier__stokes__base_8cc.html" target="_top" xlink:title=" ">
<polygon fill="white" stroke="#666666" points="2850.5,-387.5 2713.5,-387.5 2713.5,-346.5 2850.5,-346.5 2850.5,-387.5"/>
<text text-anchor="start" x="2721.5" y="-375.5" font-family="Helvetica,sans-Serif" font-size="10.00">/home/runner/work/lethe</text>
<text text-anchor="start" x="2721.5" y="-364.5" font-family="Helvetica,sans-Serif" font-size="10.00">/lethe/source/solvers</text>
<text text-anchor="middle" x="2782" y="-353.5" font-family="Helvetica,sans-Serif" font-size="10.00">/navier_stokes_base.cc</text>
</a>
</g>
</g>
<!-- Node1&#45;&gt;Node30 -->
<g id="edge35_Node000001_Node000030" class="edge">
<title>Node1&#45;&gt;Node30</title>
<g id="a_edge35_Node000001_Node000030"><a xlink:title=" ">
<path fill="none" stroke="#63b8ff" d="M2122.85,-447.61C2247.45,-444.92 2496.98,-434.33 2704,-393 2711.25,-391.55 2718.78,-389.66 2726.16,-387.57"/>
<polygon fill="#63b8ff" stroke="#63b8ff" points="2122.57,-444.11 2112.64,-447.82 2122.71,-451.11 2122.57,-444.11"/>
</a>
</g>
</g>
<!-- Node31 -->
<g id="Node000031" class="node">
<title>Node31</title>
<g id="a_Node000031"><a xlink:href="stabilization_8cc.html" target="_top" xlink:title=" ">
<polygon fill="white" stroke="#666666" points="3005.5,-387.5 2868.5,-387.5 2868.5,-346.5 3005.5,-346.5 3005.5,-387.5"/>
<text text-anchor="start" x="2876.5" y="-375.5" font-family="Helvetica,sans-Serif" font-size="10.00">/home/runner/work/lethe</text>
<text text-anchor="start" x="2876.5" y="-364.5" font-family="Helvetica,sans-Serif" font-size="10.00">/lethe/source/solvers</text>
<text text-anchor="middle" x="2937" y="-353.5" font-family="Helvetica,sans-Serif" font-size="10.00">/stabilization.cc</text>
</a>
</g>
</g>
<!-- Node1&#45;&gt;Node31 -->
<g id="edge36_Node000001_Node000031" class="edge">
<title>Node1&#45;&gt;Node31</title>
<g id="a_edge36_Node000001_Node000031"><a xlink:title=" ">
<path fill="none" stroke="#63b8ff" d="M2123.03,-445.6C2299.35,-438.73 2720.32,-420 2860,-393 2867.31,-391.59 2874.9,-389.69 2882.33,-387.56"/>
<polygon fill="#63b8ff" stroke="#63b8ff" points="2122.65,-442.11 2112.79,-446 2122.92,-449.11 2122.65,-442.11"/>
</a>
</g>
</g>
<!-- Node32 -->
<g id="Node000032" class="node">
<title>Node32</title>
<g id="a_Node000032"><a xlink:href="tracer_8cc.html" target="_top" xlink:title=" ">
<polygon fill="white" stroke="#666666" points="3160.5,-387.5 3023.5,-387.5 3023.5,-346.5 3160.5,-346.5 3160.5,-387.5"/>
<text text-anchor="start" x="3031.5" y="-375.5" font-family="Helvetica,sans-Serif" font-size="10.00">/home/runner/work/lethe</text>
<text text-anchor="start" x="3031.5" y="-364.5" font-family="Helvetica,sans-Serif" font-size="10.00">/lethe/source/solvers</text>
<text text-anchor="middle" x="3092" y="-353.5" font-family="Helvetica,sans-Serif" font-size="10.00">/tracer.cc</text>
</a>
</g>
</g>
<!-- Node1&#45;&gt;Node32 -->
<g id="edge37_Node000001_Node000032" class="edge">
<title>Node1&#45;&gt;Node32</title>
<g id="a_edge37_Node000001_Node000032"><a xlink:title=" ">
<path fill="none" stroke="#63b8ff" d="M2122.75,-446.6C2322.39,-441.38 2844.54,-424.99 3015,-393 3022.46,-391.6 3030.2,-389.68 3037.77,-387.52"/>
<polygon fill="#63b8ff" stroke="#63b8ff" points="2122.54,-443.11 2112.63,-446.87 2122.72,-450.11 2122.54,-443.11"/>
</a>
</g>
</g>
<!-- Node3 -->
<g id="Node000003" class="node">
<title>Node3</title>
<g id="a_Node000003"><a xlink:href="cls_8h.html" target="_top" xlink:title=" ">
<polygon fill="white" stroke="#666666" points="224,-294 78,-294 78,-264 224,-264 224,-294"/>
<text text-anchor="start" x="86" y="-282" font-family="Helvetica,sans-Serif" font-size="10.00">/home/runner/work/lethe</text>
<text text-anchor="middle" x="151" y="-271" font-family="Helvetica,sans-Serif" font-size="10.00">/lethe/include/solvers/cls.h</text>
</a>
</g>
</g>
<!-- Node2&#45;&gt;Node3 -->
<g id="edge2_Node000002_Node000003" class="edge">
<title>Node2&#45;&gt;Node3</title>
<g id="a_edge2_Node000002_Node000003"><a xlink:title=" ">
<path fill="none" stroke="#63b8ff" d="M269.66,-341.84C240.1,-326.44 202.82,-307.01 178.01,-294.08"/>
<polygon fill="#63b8ff" stroke="#63b8ff" points="268.07,-344.97 278.56,-346.49 271.31,-338.76 268.07,-344.97"/>
</a>
</g>
</g>
<!-- Node6 -->
<g id="Node000006" class="node">
<title>Node6</title>
<g id="a_Node000006"><a xlink:href="interface__tools_8cc.html" target="_top" xlink:title=" ">
<polygon fill="white" stroke="#666666" points="392,-299.5 242,-299.5 242,-258.5 392,-258.5 392,-299.5"/>
<text text-anchor="start" x="250" y="-287.5" font-family="Helvetica,sans-Serif" font-size="10.00">/home/runner/work/lethe</text>
<text text-anchor="start" x="250" y="-276.5" font-family="Helvetica,sans-Serif" font-size="10.00">/lethe/source/core/interface</text>
<text text-anchor="middle" x="317" y="-265.5" font-family="Helvetica,sans-Serif" font-size="10.00">_tools.cc</text>
</a>
</g>
</g>
<!-- Node2&#45;&gt;Node6 -->
<g id="edge5_Node000002_Node000006" class="edge">
<title>Node2&#45;&gt;Node6</title>
<g id="a_edge5_Node000002_Node000006"><a xlink:title=" ">
<path fill="none" stroke="#63b8ff" d="M316.34,-336.36C316.49,-324.26 316.64,-310.58 316.77,-299.74"/>
<polygon fill="#63b8ff" stroke="#63b8ff" points="312.84,-336.45 316.23,-346.49 319.84,-336.53 312.84,-336.45"/>
</a>
</g>
</g>
<!-- Node4 -->
<g id="Node000004" class="node">
<title>Node4</title>
<g id="a_Node000004"><a xlink:href="cls_8cc.html" target="_top" xlink:title=" ">
<polygon fill="white" stroke="#666666" points="299.5,-211.5 162.5,-211.5 162.5,-170.5 299.5,-170.5 299.5,-211.5"/>
<text text-anchor="start" x="170.5" y="-199.5" font-family="Helvetica,sans-Serif" font-size="10.00">/home/runner/work/lethe</text>
<text text-anchor="start" x="170.5" y="-188.5" font-family="Helvetica,sans-Serif" font-size="10.00">/lethe/source/solvers</text>
<text text-anchor="middle" x="231" y="-177.5" font-family="Helvetica,sans-Serif" font-size="10.00">/cls.cc</text>
</a>
</g>
</g>
<!-- Node3&#45;&gt;Node4 -->
<g id="edge3_Node000003_Node000004" class="edge">
<title>Node3&#45;&gt;Node4</title>
<g id="a_edge3_Node000003_Node000004"><a xlink:title=" ">
<path fill="none" stroke="#63b8ff" d="M171.25,-256.23C184,-242.53 200.32,-224.98 212.68,-211.69"/>
<polygon fill="#63b8ff" stroke="#63b8ff" points="168.46,-254.09 164.21,-263.8 173.58,-258.86 168.46,-254.09"/>
</a>
</g>
</g>
<!-- Node5 -->
<g id="Node000005" class="node">
<title>Node5</title>
<g id="a_Node000005"><a xlink:href="multiphysics__interface_8cc.html" target="_top" xlink:title=" ">
<polygon fill="white" stroke="#666666" points="144,-211.5 0,-211.5 0,-170.5 144,-170.5 144,-211.5"/>
<text text-anchor="start" x="8" y="-199.5" font-family="Helvetica,sans-Serif" font-size="10.00">/home/runner/work/lethe</text>
<text text-anchor="start" x="8" y="-188.5" font-family="Helvetica,sans-Serif" font-size="10.00">/lethe/source/solvers</text>
<text text-anchor="middle" x="72" y="-177.5" font-family="Helvetica,sans-Serif" font-size="10.00">/multiphysics_interface.cc</text>
</a>
</g>
</g>
<!-- Node3&#45;&gt;Node5 -->
<g id="edge4_Node000003_Node000005" class="edge">
<title>Node3&#45;&gt;Node5</title>
<g id="a_edge4_Node000003_Node000005"><a xlink:title=" ">
<path fill="none" stroke="#63b8ff" d="M131.01,-256.23C118.42,-242.53 102.3,-224.98 90.09,-211.69"/>
<polygon fill="#63b8ff" stroke="#63b8ff" points="128.61,-258.8 137.95,-263.8 133.77,-254.07 128.61,-258.8"/>
</a>
</g>
</g>
<!-- Node8 -->
<g id="Node000008" class="node">
<title>Node8</title>
<g id="a_Node000008"><a xlink:href="dem_8h.html" target="_top" xlink:title=" ">
<polygon fill="white" stroke="#666666" points="1312.5,-294 1171.5,-294 1171.5,-264 1312.5,-264 1312.5,-294"/>
<text text-anchor="start" x="1179.5" y="-282" font-family="Helvetica,sans-Serif" font-size="10.00">/home/runner/work/lethe</text>
<text text-anchor="middle" x="1242" y="-271" font-family="Helvetica,sans-Serif" font-size="10.00">/lethe/include/dem/dem.h</text>
</a>
</g>
</g>
<!-- Node7&#45;&gt;Node8 -->
<g id="edge7_Node000007_Node000008" class="edge">
<title>Node7&#45;&gt;Node8</title>
<g id="a_edge7_Node000007_Node000008"><a xlink:title=" ">
<path fill="none" stroke="#63b8ff" d="M1024.51,-343.62C1078.06,-327.96 1147.96,-307.51 1193.87,-294.08"/>
<polygon fill="#63b8ff" stroke="#63b8ff" points="1023.33,-340.32 1014.71,-346.49 1025.29,-347.04 1023.33,-340.32"/>
</a>
</g>
</g>
<!-- Node16 -->
<g id="Node000016" class="node">
<title>Node16</title>
<g id="a_Node000016"><a xlink:href="set__particle__wall__contact__force__model_8h.html" target="_top" xlink:title=" ">
<polygon fill="white" stroke="#666666" points="1016.5,-305 879.5,-305 879.5,-253 1016.5,-253 1016.5,-305"/>
<text text-anchor="start" x="887.5" y="-293" font-family="Helvetica,sans-Serif" font-size="10.00">/home/runner/work/lethe</text>
<text text-anchor="start" x="887.5" y="-282" font-family="Helvetica,sans-Serif" font-size="10.00">/lethe/include/dem/set</text>
<text text-anchor="start" x="887.5" y="-271" font-family="Helvetica,sans-Serif" font-size="10.00">_particle_wall_contact</text>
<text text-anchor="middle" x="948" y="-260" font-family="Helvetica,sans-Serif" font-size="10.00">_force_model.h</text>
</a>
</g>
</g>
<!-- Node7&#45;&gt;Node16 -->
<g id="edge16_Node000007_Node000016" class="edge">
<title>Node7&#45;&gt;Node16</title>
<g id="a_edge16_Node000007_Node000016"><a xlink:title=" ">
<path fill="none" stroke="#63b8ff" d="M948,-336.44C948,-326.31 948,-315.08 948,-305.32"/>
<polygon fill="#63b8ff" stroke="#63b8ff" points="944.5,-336.49 948,-346.49 951.5,-336.49 944.5,-336.49"/>
</a>
</g>
</g>
<!-- Node18 -->
<g id="Node000018" class="node">
<title>Node18</title>
<g id="a_Node000018"><a xlink:href="ib__particles__dem_8h.html" target="_top" xlink:title=" ">
<polygon fill="white" stroke="#666666" points="698.5,-299.5 561.5,-299.5 561.5,-258.5 698.5,-258.5 698.5,-299.5"/>
<text text-anchor="start" x="569.5" y="-287.5" font-family="Helvetica,sans-Serif" font-size="10.00">/home/runner/work/lethe</text>
<text text-anchor="start" x="569.5" y="-276.5" font-family="Helvetica,sans-Serif" font-size="10.00">/lethe/include/fem&#45;dem</text>
<text text-anchor="middle" x="630" y="-265.5" font-family="Helvetica,sans-Serif" font-size="10.00">/ib_particles_dem.h</text>
</a>
</g>
</g>
<!-- Node7&#45;&gt;Node18 -->
<g id="edge21_Node000007_Node000018" class="edge">
<title>Node7&#45;&gt;Node18</title>
<g id="a_edge21_Node000007_Node000018"><a xlink:title=" ">
<path fill="none" stroke="#63b8ff" d="M864.44,-346.1C818.15,-334.74 759.68,-319.84 708,-305 702.12,-303.31 696.02,-301.49 689.93,-299.62"/>
<polygon fill="#63b8ff" stroke="#63b8ff" points="863.88,-349.56 874.42,-348.54 865.54,-342.76 863.88,-349.56"/>
</a>
</g>
</g>
<!-- Node22 -->
<g id="Node000022" class="node">
<title>Node22</title>
<g id="a_Node000022"><a xlink:href="particle__wall__contact__force_8cc.html" target="_top" xlink:title=" ">
<polygon fill="white" stroke="#666666" points="861,-299.5 717,-299.5 717,-258.5 861,-258.5 861,-299.5"/>
<text text-anchor="start" x="725" y="-287.5" font-family="Helvetica,sans-Serif" font-size="10.00">/home/runner/work/lethe</text>
<text text-anchor="start" x="725" y="-276.5" font-family="Helvetica,sans-Serif" font-size="10.00">/lethe/source/dem/particle</text>
<text text-anchor="middle" x="789" y="-265.5" font-family="Helvetica,sans-Serif" font-size="10.00">_wall_contact_force.cc</text>
</a>
</g>
</g>
<!-- Node7&#45;&gt;Node22 -->
<g id="edge25_Node000007_Node000022" class="edge">
<title>Node7&#45;&gt;Node22</title>
<g id="a_edge25_Node000007_Node000022"><a xlink:title=" ">
<path fill="none" stroke="#63b8ff" d="M903.12,-341.72C878.48,-328.4 848.33,-312.09 825.21,-299.59"/>
<polygon fill="#63b8ff" stroke="#63b8ff" points="901.46,-344.81 911.92,-346.49 904.79,-338.65 901.46,-344.81"/>
</a>
</g>
</g>
<!-- Node9 -->
<g id="Node000009" class="node">
<title>Node9</title>
<g id="a_Node000009"><a xlink:href="cfd__dem__coupling_8h.html" target="_top" xlink:title=" ">
<polygon fill="white" stroke="#666666" points="1428.5,-123.5 1291.5,-123.5 1291.5,-82.5 1428.5,-82.5 1428.5,-123.5"/>
<text text-anchor="start" x="1299.5" y="-111.5" font-family="Helvetica,sans-Serif" font-size="10.00">/home/runner/work/lethe</text>
<text text-anchor="start" x="1299.5" y="-100.5" font-family="Helvetica,sans-Serif" font-size="10.00">/lethe/include/fem&#45;dem</text>
<text text-anchor="middle" x="1360" y="-89.5" font-family="Helvetica,sans-Serif" font-size="10.00">/cfd_dem_coupling.h</text>
</a>
</g>
</g>
<!-- Node8&#45;&gt;Node9 -->
<g id="edge8_Node000008_Node000009" class="edge">
<title>Node8&#45;&gt;Node9</title>
<g id="a_edge8_Node000008_Node000009"><a xlink:title=" ">
<path fill="none" stroke="#63b8ff" d="M1289.33,-259.31C1308.26,-249.49 1328.5,-235.56 1341,-217 1360,-188.78 1362.09,-147.84 1361.39,-123.77"/>
<polygon fill="#63b8ff" stroke="#63b8ff" points="1287.61,-256.26 1280.18,-263.81 1290.7,-262.54 1287.61,-256.26"/>
</a>
</g>
</g>
<!-- Node11 -->
<g id="Node000011" class="node">
<title>Node11</title>
<g id="a_Node000011"><a xlink:href="cfd__dem__coupling__matrix__free_8h.html" target="_top" xlink:title=" ">
<polygon fill="white" stroke="#666666" points="1331.5,-211.5 1152.5,-211.5 1152.5,-170.5 1331.5,-170.5 1331.5,-211.5"/>
<text text-anchor="start" x="1160.5" y="-199.5" font-family="Helvetica,sans-Serif" font-size="10.00">/home/runner/work/lethe</text>
<text text-anchor="start" x="1160.5" y="-188.5" font-family="Helvetica,sans-Serif" font-size="10.00">/lethe/include/fem&#45;dem</text>
<text text-anchor="middle" x="1242" y="-177.5" font-family="Helvetica,sans-Serif" font-size="10.00">/cfd_dem_coupling_matrix_free.h</text>
</a>
</g>
</g>
<!-- Node8&#45;&gt;Node11 -->
<g id="edge10_Node000008_Node000011" class="edge">
<title>Node8&#45;&gt;Node11</title>
<g id="a_edge10_Node000008_Node000011"><a xlink:title=" ">
<path fill="none" stroke="#63b8ff" d="M1242,-253.5C1242,-240.25 1242,-224.11 1242,-211.69"/>
<polygon fill="#63b8ff" stroke="#63b8ff" points="1238.5,-253.8 1242,-263.8 1245.5,-253.8 1238.5,-253.8"/>
</a>
</g>
</g>
<!-- Node13 -->
<g id="Node000013" class="node">
<title>Node13</title>
<g id="a_Node000013"><a xlink:href="fluid__dynamics__vans_8h.html" target="_top" xlink:title=" ">
<polygon fill="white" stroke="#666666" points="1525.5,-211.5 1388.5,-211.5 1388.5,-170.5 1525.5,-170.5 1525.5,-211.5"/>
<text text-anchor="start" x="1396.5" y="-199.5" font-family="Helvetica,sans-Serif" font-size="10.00">/home/runner/work/lethe</text>
<text text-anchor="start" x="1396.5" y="-188.5" font-family="Helvetica,sans-Serif" font-size="10.00">/lethe/include/fem&#45;dem</text>
<text text-anchor="middle" x="1457" y="-177.5" font-family="Helvetica,sans-Serif" font-size="10.00">/fluid_dynamics_vans.h</text>
</a>
</g>
</g>
<!-- Node8&#45;&gt;Node13 -->
<g id="edge12_Node000008_Node000013" class="edge">
<title>Node8&#45;&gt;Node13</title>
<g id="a_edge12_Node000008_Node000013"><a xlink:title=" ">
<path fill="none" stroke="#63b8ff" d="M1286.61,-260.16C1322.01,-246 1371.44,-226.23 1407.94,-211.62"/>
<polygon fill="#63b8ff" stroke="#63b8ff" points="1285.01,-257.03 1277.02,-263.99 1287.61,-263.53 1285.01,-257.03"/>
</a>
</g>
</g>
<!-- Node15 -->
<g id="Node000015" class="node">
<title>Node15</title>
<g id="a_Node000015"><a xlink:href="dem_8cc.html" target="_top" xlink:title=" ">
<polygon fill="white" stroke="#666666" points="1134.5,-206 991.5,-206 991.5,-176 1134.5,-176 1134.5,-206"/>
<text text-anchor="start" x="999.5" y="-194" font-family="Helvetica,sans-Serif" font-size="10.00">/home/runner/work/lethe</text>
<text text-anchor="middle" x="1063" y="-183" font-family="Helvetica,sans-Serif" font-size="10.00">/lethe/source/dem/dem.cc</text>
</a>
</g>
</g>
<!-- Node8&#45;&gt;Node15 -->
<g id="edge15_Node000008_Node000015" class="edge">
<title>Node8&#45;&gt;Node15</title>
<g id="a_edge15_Node000008_Node000015"><a xlink:title=" ">
<path fill="none" stroke="#63b8ff" d="M1203.83,-259.66C1170.41,-243.6 1122.57,-220.62 1092.15,-206"/>
<polygon fill="#63b8ff" stroke="#63b8ff" points="1202.31,-262.82 1212.84,-263.99 1205.34,-256.51 1202.31,-262.82"/>
</a>
</g>
</g>
<!-- Node10 -->
<g id="Node000010" class="node">
<title>Node10</title>
<g id="a_Node000010"><a xlink:href="cfd__dem__coupling_8cc.html" target="_top" xlink:title=" ">
<polygon fill="white" stroke="#666666" points="1133.5,-41 996.5,-41 996.5,0 1133.5,0 1133.5,-41"/>
<text text-anchor="start" x="1004.5" y="-29" font-family="Helvetica,sans-Serif" font-size="10.00">/home/runner/work/lethe</text>
<text text-anchor="start" x="1004.5" y="-18" font-family="Helvetica,sans-Serif" font-size="10.00">/lethe/source/fem&#45;dem</text>
<text text-anchor="middle" x="1065" y="-7" font-family="Helvetica,sans-Serif" font-size="10.00">/cfd_dem_coupling.cc</text>
</a>
</g>
</g>
<!-- Node9&#45;&gt;Node10 -->
<g id="edge9_Node000009_Node000010" class="edge">
<title>Node9&#45;&gt;Node10</title>
<g id="a_edge9_Node000009_Node000010"><a xlink:title=" ">
<path fill="none" stroke="#63b8ff" d="M1281.28,-80.52C1235.28,-67.97 1177.79,-52.28 1133.65,-40.23"/>
<polygon fill="#63b8ff" stroke="#63b8ff" points="1280.64,-83.97 1291.21,-83.23 1282.48,-77.22 1280.64,-83.97"/>
</a>
</g>
</g>
<!-- Node12 -->
<g id="Node000012" class="node">
<title>Node12</title>
<g id="a_Node000012"><a xlink:href="cfd__dem__coupling__matrix__free_8cc.html" target="_top" xlink:title=" ">
<polygon fill="white" stroke="#666666" points="1109,-129 963,-129 963,-77 1109,-77 1109,-129"/>
<text text-anchor="start" x="971" y="-117" font-family="Helvetica,sans-Serif" font-size="10.00">/home/runner/work/lethe</text>
<text text-anchor="start" x="971" y="-106" font-family="Helvetica,sans-Serif" font-size="10.00">/lethe/source/fem&#45;dem</text>
<text text-anchor="start" x="971" y="-95" font-family="Helvetica,sans-Serif" font-size="10.00">/cfd_dem_coupling_matrix</text>
<text text-anchor="middle" x="1036" y="-84" font-family="Helvetica,sans-Serif" font-size="10.00">_free.cc</text>
</a>
</g>
</g>
<!-- Node11&#45;&gt;Node12 -->
<g id="edge11_Node000011_Node000012" class="edge">
<title>Node11&#45;&gt;Node12</title>
<g id="a_edge11_Node000011_Node000012"><a xlink:title=" ">
<path fill="none" stroke="#63b8ff" d="M1185.7,-166.5C1157.97,-154.92 1124.51,-140.95 1096.26,-129.16"/>
<polygon fill="#63b8ff" stroke="#63b8ff" points="1184.68,-169.86 1195.26,-170.49 1187.38,-163.4 1184.68,-169.86"/>
</a>
</g>
</g>
<!-- Node13&#45;&gt;Node9 -->
<g id="edge13_Node000013_Node000009" class="edge">
<title>Node13&#45;&gt;Node9</title>
<g id="a_edge13_Node000013_Node000009"><a xlink:title=" ">
<path fill="none" stroke="#63b8ff" d="M1427.25,-163.62C1412.75,-150.77 1395.61,-135.57 1382.26,-123.74"/>
<polygon fill="#63b8ff" stroke="#63b8ff" points="1425.18,-166.47 1434.99,-170.49 1429.83,-161.23 1425.18,-166.47"/>
</a>
</g>
</g>
<!-- Node13&#45;&gt;Node14 -->
<g id="edge14_Node000013_Node000014" class="edge">
<title>Node13&#45;&gt;Node14</title>
<g id="a_edge14_Node000013_Node000014"><a xlink:title=" ">
<path fill="none" stroke="#63b8ff" d="M1481.26,-162.9C1492.63,-150.2 1505.93,-135.35 1516.33,-123.74"/>
<polygon fill="#63b8ff" stroke="#63b8ff" points="1478.54,-160.7 1474.47,-170.49 1483.75,-165.37 1478.54,-160.7"/>
</a>
</g>
</g>
<!-- Node16&#45;&gt;Node10 -->
<g id="edge19_Node000016_Node000010" class="edge">
<title>Node16&#45;&gt;Node10</title>
<g id="a_edge19_Node000016_Node000010"><a xlink:title=" ">
<path fill="none" stroke="#63b8ff" d="M869.81,-250.77C844.55,-240.28 821.18,-228.15 814,-217 801.49,-197.57 802.82,-185.23 814,-165 851.69,-96.79 935.98,-58.54 996.48,-38.99"/>
<polygon fill="#63b8ff" stroke="#63b8ff" points="868.59,-254.05 879.17,-254.55 871.21,-247.56 868.59,-254.05"/>
</a>
</g>
</g>
<!-- Node16&#45;&gt;Node12 -->
<g id="edge20_Node000016_Node000012" class="edge">
<title>Node16&#45;&gt;Node12</title>
<g id="a_edge20_Node000016_Node000012"><a xlink:title=" ">
<path fill="none" stroke="#63b8ff" d="M875.27,-248.67C853.66,-238.39 834.09,-226.94 828,-217 815.92,-197.3 814.15,-183.5 828,-165 844.47,-143.01 909.8,-126.26 962.91,-115.93"/>
<polygon fill="#63b8ff" stroke="#63b8ff" points="874.08,-251.98 884.63,-253 877.02,-245.62 874.08,-251.98"/>
</a>
</g>
</g>
<!-- Node16&#45;&gt;Node15 -->
<g id="edge17_Node000016_Node000015" class="edge">
<title>Node16&#45;&gt;Node15</title>
<g id="a_edge17_Node000016_Node000015"><a xlink:title=" ">
<path fill="none" stroke="#63b8ff" d="M989.68,-246.83C1008.38,-232.85 1029.49,-217.06 1044.25,-206.03"/>
<polygon fill="#63b8ff" stroke="#63b8ff" points="987.48,-244.1 981.57,-252.89 991.68,-249.71 987.48,-244.1"/>
</a>
</g>
</g>
<!-- Node17 -->
<g id="Node000017" class="node">
<title>Node17</title>
<g id="a_Node000017"><a xlink:href="set__particle__wall__contact__force__model_8cc.html" target="_top" xlink:title=" ">
<polygon fill="white" stroke="#666666" points="973.5,-217 836.5,-217 836.5,-165 973.5,-165 973.5,-217"/>
<text text-anchor="start" x="844.5" y="-205" font-family="Helvetica,sans-Serif" font-size="10.00">/home/runner/work/lethe</text>
<text text-anchor="start" x="844.5" y="-194" font-family="Helvetica,sans-Serif" font-size="10.00">/lethe/source/dem/set</text>
<text text-anchor="start" x="844.5" y="-183" font-family="Helvetica,sans-Serif" font-size="10.00">_particle_wall_contact</text>
<text text-anchor="middle" x="905" y="-172" font-family="Helvetica,sans-Serif" font-size="10.00">_force_model.cc</text>
</a>
</g>
</g>
<!-- Node16&#45;&gt;Node17 -->
<g id="edge18_Node000016_Node000017" class="edge">
<title>Node16&#45;&gt;Node17</title>
<g id="a_edge18_Node000016_Node000017"><a xlink:title=" ">
<path fill="none" stroke="#63b8ff" d="M930.84,-243.68C926.41,-234.82 921.73,-225.45 917.58,-217.16"/>
<polygon fill="#63b8ff" stroke="#63b8ff" points="927.73,-245.28 935.33,-252.66 933.99,-242.15 927.73,-245.28"/>
</a>
</g>
</g>
<!-- Node19 -->
<g id="Node000019" class="node">
<title>Node19</title>
<g id="a_Node000019"><a xlink:href="fluid__dynamics__sharp_8h.html" target="_top" xlink:title=" ">
<polygon fill="white" stroke="#666666" points="741.5,-211.5 604.5,-211.5 604.5,-170.5 741.5,-170.5 741.5,-211.5"/>
<text text-anchor="start" x="612.5" y="-199.5" font-family="Helvetica,sans-Serif" font-size="10.00">/home/runner/work/lethe</text>
<text text-anchor="start" x="612.5" y="-188.5" font-family="Helvetica,sans-Serif" font-size="10.00">/lethe/include/fem&#45;dem</text>
<text text-anchor="middle" x="673" y="-177.5" font-family="Helvetica,sans-Serif" font-size="10.00">/fluid_dynamics_sharp.h</text>
</a>
</g>
</g>
<!-- Node18&#45;&gt;Node19 -->
<g id="edge22_Node000018_Node000019" class="edge">
<title>Node18&#45;&gt;Node19</title>
<g id="a_edge22_Node000018_Node000019"><a xlink:title=" ">
<path fill="none" stroke="#63b8ff" d="M644.27,-249.46C650.46,-237.09 657.54,-222.91 663.13,-211.74"/>
<polygon fill="#63b8ff" stroke="#63b8ff" points="641.1,-247.98 639.76,-258.49 647.36,-251.11 641.1,-247.98"/>
</a>
</g>
</g>
<!-- Node21 -->
<g id="Node000021" class="node">
<title>Node21</title>
<g id="a_Node000021"><a xlink:href="ib__particles__dem_8cc.html" target="_top" xlink:title=" ">
<polygon fill="white" stroke="#666666" points="586.5,-211.5 449.5,-211.5 449.5,-170.5 586.5,-170.5 586.5,-211.5"/>
<text text-anchor="start" x="457.5" y="-199.5" font-family="Helvetica,sans-Serif" font-size="10.00">/home/runner/work/lethe</text>
<text text-anchor="start" x="457.5" y="-188.5" font-family="Helvetica,sans-Serif" font-size="10.00">/lethe/source/fem&#45;dem</text>
<text text-anchor="middle" x="518" y="-177.5" font-family="Helvetica,sans-Serif" font-size="10.00">/ib_particles_dem.cc</text>
</a>
</g>
</g>
<!-- Node18&#45;&gt;Node21 -->
<g id="edge24_Node000018_Node000021" class="edge">
<title>Node18&#45;&gt;Node21</title>
<g id="a_edge24_Node000018_Node000021"><a xlink:title=" ">
<path fill="none" stroke="#63b8ff" d="M596.57,-252.33C579.64,-239.33 559.4,-223.79 543.7,-211.74"/>
<polygon fill="#63b8ff" stroke="#63b8ff" points="594.52,-255.17 604.59,-258.49 598.79,-249.62 594.52,-255.17"/>
</a>
</g>
</g>
<!-- Node19&#45;&gt;Node20 -->
<g id="edge23_Node000019_Node000020" class="edge">
<title>Node19&#45;&gt;Node20</title>
<g id="a_edge23_Node000019_Node000020"><a xlink:title=" ">
<path fill="none" stroke="#63b8ff" d="M635.91,-164.69C616.76,-151.61 593.73,-135.9 575.91,-123.74"/>
<polygon fill="#63b8ff" stroke="#63b8ff" points="634.18,-167.74 644.41,-170.49 638.12,-161.96 634.18,-167.74"/>
</a>
</g>
</g>
</g>
</svg>
