<?xml version="1.0" encoding="UTF-8" standalone="no"?>
<!DOCTYPE svg PUBLIC "-//W3C//DTD SVG 1.1//EN"
 "http://www.w3.org/Graphics/SVG/1.1/DTD/svg11.dtd">
<!-- Generated by graphviz version 2.43.0 (0)
 -->
<!-- Title: /home/runner/work/lethe/lethe/source/core/lethe_grid_tools.cc Pages: 1 -->
<svg width="1845pt" height="555pt"
 viewBox="0.00 0.00 1844.81 555.00" xmlns="http://www.w3.org/2000/svg" xmlns:xlink="http://www.w3.org/1999/xlink">
<g id="graph0" class="graph" transform="scale(1 1) rotate(0) translate(4 551)">
<title>/home/runner/work/lethe/lethe/source/core/lethe_grid_tools.cc</title>
<!-- Node1 -->
<g id="Node000001" class="node">
<title>Node1</title>
<g id="a_Node000001"><a xlink:title=" ">
<polygon fill="#999999" stroke="#666666" points="1311.81,-547 1174.81,-547 1174.81,-506 1311.81,-506 1311.81,-547"/>
<text text-anchor="start" x="1182.81" y="-535" font-family="Helvetica,sans-Serif" font-size="10.00">/home/runner/work/lethe</text>
<text text-anchor="start" x="1182.81" y="-524" font-family="Helvetica,sans-Serif" font-size="10.00">/lethe/source/core/lethe</text>
<text text-anchor="middle" x="1243.31" y="-513" font-family="Helvetica,sans-Serif" font-size="10.00">_grid_tools.cc</text>
</a>
</g>
</g>
<!-- Node2 -->
<g id="Node000002" class="node">
<title>Node2</title>
<g id="a_Node000002"><a xlink:href="dem__properties_8h.html" target="_top" xlink:title="DEM particle property definitions and output name management.">
<polygon fill="white" stroke="#666666" points="154.31,-79.5 28.31,-79.5 28.31,-60.5 154.31,-60.5 154.31,-79.5"/>
<text text-anchor="middle" x="91.31" y="-67.5" font-family="Helvetica,sans-Serif" font-size="10.00">core/dem_properties.h</text>
</a>
</g>
</g>
<!-- Node1&#45;&gt;Node2 -->
<g id="edge1_Node000001_Node000002" class="edge">
<title>Node1&#45;&gt;Node2</title>
<g id="a_edge1_Node000001_Node000002"><a xlink:title=" ">
<path fill="none" stroke="#63b8ff" d="M1174.71,-525.29C914.13,-523.58 0.31,-509.12 0.31,-390 0.31,-390 0.31,-390 0.31,-195.5 0.31,-161.33 -0.17,-149.07 19.31,-121 30.24,-105.26 47.83,-92.91 62.88,-84.42"/>
<polygon fill="#63b8ff" stroke="#63b8ff" points="64.67,-87.44 71.85,-79.64 61.38,-81.26 64.67,-87.44"/>
</a>
</g>
</g>
<!-- Node5 -->
<g id="Node000005" class="node">
<title>Node5</title>
<g id="a_Node000005"><a xlink:href="lethe__grid__tools_8h.html" target="_top" xlink:title=" ">
<polygon fill="white" stroke="#666666" points="1141.31,-464.5 1013.31,-464.5 1013.31,-445.5 1141.31,-445.5 1141.31,-464.5"/>
<text text-anchor="middle" x="1077.31" y="-452.5" font-family="Helvetica,sans-Serif" font-size="10.00">core/lethe_grid_tools.h</text>
</a>
</g>
</g>
<!-- Node1&#45;&gt;Node5 -->
<g id="edge4_Node000001_Node000005" class="edge">
<title>Node1&#45;&gt;Node5</title>
<g id="a_edge4_Node000001_Node000005"><a xlink:title=" ">
<path fill="none" stroke="#63b8ff" d="M1196.63,-505.96C1167.85,-493.9 1131.81,-478.81 1106.91,-468.39"/>
<polygon fill="#63b8ff" stroke="#63b8ff" points="1108.2,-465.14 1097.62,-464.5 1105.5,-471.59 1108.2,-465.14"/>
</a>
</g>
</g>
<!-- Node6 -->
<g id="Node000006" class="node">
<title>Node6</title>
<g id="a_Node000006"><a xlink:href="serial__solid_8h.html" target="_top" xlink:title=" ">
<polygon fill="white" stroke="#666666" points="686.81,-398.5 581.81,-398.5 581.81,-379.5 686.81,-379.5 686.81,-398.5"/>
<text text-anchor="middle" x="634.31" y="-386.5" font-family="Helvetica,sans-Serif" font-size="10.00">core/serial_solid.h</text>
</a>
</g>
</g>
<!-- Node1&#45;&gt;Node6 -->
<g id="edge45_Node000001_Node000006" class="edge">
<title>Node1&#45;&gt;Node6</title>
<g id="a_edge45_Node000001_Node000006"><a xlink:title=" ">
<path fill="none" stroke="#63b8ff" d="M1174.61,-512.58C1118.25,-501.79 1036.44,-485.69 965.31,-470 861.68,-447.14 740.64,-417.01 677.55,-401.04"/>
<polygon fill="#63b8ff" stroke="#63b8ff" points="678.12,-397.57 667.57,-398.51 676.4,-404.36 678.12,-397.57"/>
</a>
</g>
</g>
<!-- Node13 -->
<g id="Node000013" class="node">
<title>Node13</title>
<g id="a_Node000013"><a xlink:href="tensors__and__points__dimension__manipulation_8h.html" target="_top" xlink:title=" ">
<polygon fill="#fff0f0" stroke="red" points="1052.31,-338 900.31,-338 900.31,-308 1052.31,-308 1052.31,-338"/>
<text text-anchor="start" x="908.31" y="-326" font-family="Helvetica,sans-Serif" font-size="10.00">core/tensors_and_points</text>
<text text-anchor="middle" x="976.31" y="-315" font-family="Helvetica,sans-Serif" font-size="10.00">_dimension_manipulation.h</text>
</a>
</g>
</g>
<!-- Node1&#45;&gt;Node13 -->
<g id="edge46_Node000001_Node000013" class="edge">
<title>Node1&#45;&gt;Node13</title>
<g id="a_edge46_Node000001_Node000013"><a xlink:title=" ">
<path fill="none" stroke="#63b8ff" d="M1174.72,-517.91C1112.68,-509.61 1027.57,-494.17 1004.31,-470 972.94,-437.39 971.41,-380.97 973.56,-348.64"/>
<polygon fill="#63b8ff" stroke="#63b8ff" points="977.08,-348.55 974.43,-338.29 970.1,-347.96 977.08,-348.55"/>
</a>
</g>
</g>
<!-- Node50 -->
<g id="Node000050" class="node">
<title>Node50</title>
<g id="a_Node000050"><a xlink:title=" ">
<polygon fill="#e0e0e0" stroke="#999999" points="1251.81,-404 1146.81,-404 1146.81,-374 1251.81,-374 1251.81,-404"/>
<text text-anchor="start" x="1154.81" y="-392" font-family="Helvetica,sans-Serif" font-size="10.00">deal.II/fe/mapping</text>
<text text-anchor="middle" x="1199.31" y="-381" font-family="Helvetica,sans-Serif" font-size="10.00">_q_cache.h</text>
</a>
</g>
</g>
<!-- Node1&#45;&gt;Node50 -->
<g id="edge50_Node000001_Node000050" class="edge">
<title>Node1&#45;&gt;Node50</title>
<g id="a_edge50_Node000001_Node000050"><a xlink:title=" ">
<path fill="none" stroke="#63b8ff" d="M1216.17,-505.91C1205.35,-496.43 1194.1,-484.05 1188.31,-470 1180.96,-452.13 1184.71,-430.32 1189.74,-413.99"/>
<polygon fill="#63b8ff" stroke="#63b8ff" points="1193.19,-414.73 1193.13,-404.14 1186.57,-412.46 1193.19,-414.73"/>
</a>
</g>
</g>
<!-- Node51 -->
<g id="Node000051" class="node">
<title>Node51</title>
<g id="a_Node000051"><a xlink:title=" ">
<polygon fill="#e0e0e0" stroke="#999999" points="1289.31,-464.5 1197.31,-464.5 1197.31,-445.5 1289.31,-445.5 1289.31,-464.5"/>
<text text-anchor="middle" x="1243.31" y="-452.5" font-family="Helvetica,sans-Serif" font-size="10.00">deal.II/fe/fe_q.h</text>
</a>
</g>
</g>
<!-- Node1&#45;&gt;Node51 -->
<g id="edge47_Node000001_Node000051" class="edge">
<title>Node1&#45;&gt;Node51</title>
<g id="a_edge47_Node000001_Node000051"><a xlink:title=" ">
<path fill="none" stroke="#63b8ff" d="M1243.31,-505.77C1243.31,-496.08 1243.31,-484.46 1243.31,-474.88"/>
<polygon fill="#63b8ff" stroke="#63b8ff" points="1246.81,-474.82 1243.31,-464.82 1239.81,-474.82 1246.81,-474.82"/>
</a>
</g>
</g>
<!-- Node52 -->
<g id="Node000052" class="node">
<title>Node52</title>
<g id="a_Node000052"><a xlink:title=" ">
<polygon fill="#e0e0e0" stroke="#999999" points="1412.81,-470 1307.81,-470 1307.81,-440 1412.81,-440 1412.81,-470"/>
<text text-anchor="start" x="1315.81" y="-458" font-family="Helvetica,sans-Serif" font-size="10.00">deal.II/fe/mapping</text>
<text text-anchor="middle" x="1360.31" y="-447" font-family="Helvetica,sans-Serif" font-size="10.00">_manifold.h</text>
</a>
</g>
</g>
<!-- Node1&#45;&gt;Node52 -->
<g id="edge48_Node000001_Node000052" class="edge">
<title>Node1&#45;&gt;Node52</title>
<g id="a_edge48_Node000001_Node000052"><a xlink:title=" ">
<path fill="none" stroke="#63b8ff" d="M1276.22,-505.96C1292.26,-496.42 1311.51,-484.99 1327.54,-475.47"/>
<polygon fill="#63b8ff" stroke="#63b8ff" points="1329.75,-478.23 1336.56,-470.11 1326.17,-472.21 1329.75,-478.23"/>
</a>
</g>
</g>
<!-- Node53 -->
<g id="Node000053" class="node">
<title>Node53</title>
<g id="a_Node000053"><a xlink:title=" ">
<polygon fill="#e0e0e0" stroke="#999999" points="1561.81,-464.5 1430.81,-464.5 1430.81,-445.5 1561.81,-445.5 1561.81,-464.5"/>
<text text-anchor="middle" x="1496.31" y="-452.5" font-family="Helvetica,sans-Serif" font-size="10.00">deal.II/fe/mapping_q1.h</text>
</a>
</g>
</g>
<!-- Node1&#45;&gt;Node53 -->
<g id="edge49_Node000001_Node000053" class="edge">
<title>Node1&#45;&gt;Node53</title>
<g id="a_edge49_Node000001_Node000053"><a xlink:title=" ">
<path fill="none" stroke="#63b8ff" d="M1312.11,-506.6C1357.92,-494.02 1416.56,-477.91 1455.23,-467.29"/>
<polygon fill="#63b8ff" stroke="#63b8ff" points="1456.38,-470.6 1465.1,-464.58 1454.53,-463.85 1456.38,-470.6"/>
</a>
</g>
</g>
<!-- Node54 -->
<g id="Node000054" class="node">
<title>Node54</title>
<g id="a_Node000054"><a xlink:title=" ">
<polygon fill="#e0e0e0" stroke="#999999" points="1708.31,-464.5 1580.31,-464.5 1580.31,-445.5 1708.31,-445.5 1708.31,-464.5"/>
<text text-anchor="middle" x="1644.31" y="-452.5" font-family="Helvetica,sans-Serif" font-size="10.00">deal.II/grid/grid_tools.h</text>
</a>
</g>
</g>
<!-- Node1&#45;&gt;Node54 -->
<g id="edge51_Node000001_Node000054" class="edge">
<title>Node1&#45;&gt;Node54</title>
<g id="a_edge51_Node000001_Node000054"><a xlink:title=" ">
<path fill="none" stroke="#63b8ff" d="M1311.86,-514.35C1378.28,-503.44 1481.8,-486.16 1571.31,-470 1577.56,-468.87 1584.11,-467.66 1590.61,-466.44"/>
<polygon fill="#63b8ff" stroke="#63b8ff" points="1591.55,-469.82 1600.72,-464.52 1590.25,-462.94 1591.55,-469.82"/>
</a>
</g>
</g>
<!-- Node55 -->
<g id="Node000055" class="node">
<title>Node55</title>
<g id="a_Node000055"><a xlink:title=" ">
<polygon fill="#e0e0e0" stroke="#999999" points="1773.81,-464.5 1726.81,-464.5 1726.81,-445.5 1773.81,-445.5 1773.81,-464.5"/>
<text text-anchor="middle" x="1750.31" y="-452.5" font-family="Helvetica,sans-Serif" font-size="10.00">cmath</text>
</a>
</g>
</g>
<!-- Node1&#45;&gt;Node55 -->
<g id="edge52_Node000001_Node000055" class="edge">
<title>Node1&#45;&gt;Node55</title>
<g id="a_edge52_Node000001_Node000055"><a xlink:title=" ">
<path fill="none" stroke="#63b8ff" d="M1311.95,-523.56C1405.17,-519.57 1576.35,-507.33 1717.31,-470 1719.25,-469.49 1721.23,-468.88 1723.2,-468.21"/>
<polygon fill="#63b8ff" stroke="#63b8ff" points="1724.75,-471.37 1732.83,-464.51 1722.24,-464.83 1724.75,-471.37"/>
</a>
</g>
</g>
<!-- Node56 -->
<g id="Node000056" class="node">
<title>Node56</title>
<g id="a_Node000056"><a xlink:title=" ">
<polygon fill="#e0e0e0" stroke="#999999" points="1836.81,-464.5 1791.81,-464.5 1791.81,-445.5 1836.81,-445.5 1836.81,-464.5"/>
<text text-anchor="middle" x="1814.31" y="-452.5" font-family="Helvetica,sans-Serif" font-size="10.00">utility</text>
</a>
</g>
</g>
<!-- Node1&#45;&gt;Node56 -->
<g id="edge53_Node000001_Node000056" class="edge">
<title>Node1&#45;&gt;Node56</title>
<g id="a_edge53_Node000001_Node000056"><a xlink:title=" ">
<path fill="none" stroke="#63b8ff" d="M1311.93,-525.45C1415.75,-523.81 1618.16,-514.52 1783.31,-470 1785,-469.55 1786.71,-469.01 1788.41,-468.42"/>
<polygon fill="#63b8ff" stroke="#63b8ff" points="1789.98,-471.56 1797.95,-464.57 1787.36,-465.07 1789.98,-471.56"/>
</a>
</g>
</g>
<!-- Node3 -->
<g id="Node000003" class="node">
<title>Node3</title>
<g id="a_Node000003"><a xlink:title=" ">
<polygon fill="#e0e0e0" stroke="#999999" points="151.31,-19 107.31,-19 107.31,0 151.31,0 151.31,-19"/>
<text text-anchor="middle" x="129.31" y="-7" font-family="Helvetica,sans-Serif" font-size="10.00">string</text>
</a>
</g>
</g>
<!-- Node2&#45;&gt;Node3 -->
<g id="edge2_Node000002_Node000003" class="edge">
<title>Node2&#45;&gt;Node3</title>
<g id="a_edge2_Node000002_Node000003"><a xlink:title=" ">
<path fill="none" stroke="#63b8ff" d="M96.92,-60.37C102.48,-51.81 111.14,-38.47 118.11,-27.74"/>
<polygon fill="#63b8ff" stroke="#63b8ff" points="121.17,-29.46 123.68,-19.17 115.3,-25.65 121.17,-29.46"/>
</a>
</g>
</g>
<!-- Node4 -->
<g id="Node000004" class="node">
<title>Node4</title>
<g id="a_Node000004"><a xlink:title=" ">
<polygon fill="#e0e0e0" stroke="#999999" points="75.81,-19 28.81,-19 28.81,0 75.81,0 75.81,-19"/>
<text text-anchor="middle" x="52.31" y="-7" font-family="Helvetica,sans-Serif" font-size="10.00">vector</text>
</a>
</g>
</g>
<!-- Node2&#45;&gt;Node4 -->
<g id="edge3_Node000002_Node000004" class="edge">
<title>Node2&#45;&gt;Node4</title>
<g id="a_edge3_Node000002_Node000004"><a xlink:title=" ">
<path fill="none" stroke="#63b8ff" d="M85.56,-60.37C79.86,-51.81 70.96,-38.47 63.81,-27.74"/>
<polygon fill="#63b8ff" stroke="#63b8ff" points="66.55,-25.55 58.09,-19.17 60.73,-29.43 66.55,-25.55"/>
</a>
</g>
</g>
<!-- Node5&#45;&gt;Node6 -->
<g id="edge5_Node000005_Node000006" class="edge">
<title>Node5&#45;&gt;Node6</title>
<g id="a_edge5_Node000005_Node000006"><a xlink:title=" ">
<path fill="none" stroke="#63b8ff" d="M1018.03,-445.44C934.43,-433.36 782.58,-411.42 697.12,-399.07"/>
<polygon fill="#63b8ff" stroke="#63b8ff" points="697.43,-395.58 687.03,-397.62 696.43,-402.51 697.43,-395.58"/>
</a>
</g>
</g>
<!-- Node15 -->
<g id="Node000015" class="node">
<title>Node15</title>
<g id="a_Node000015"><a xlink:title=" ">
<polygon fill="#e0e0e0" stroke="#999999" points="1099.81,-79.5 984.81,-79.5 984.81,-60.5 1099.81,-60.5 1099.81,-79.5"/>
<text text-anchor="middle" x="1042.31" y="-67.5" font-family="Helvetica,sans-Serif" font-size="10.00">deal.II/base/tensor.h</text>
</a>
</g>
</g>
<!-- Node5&#45;&gt;Node15 -->
<g id="edge42_Node000005_Node000015" class="edge">
<title>Node5&#45;&gt;Node15</title>
<g id="a_edge42_Node000005_Node000015"><a xlink:title=" ">
<path fill="none" stroke="#63b8ff" d="M1082.02,-445.47C1092.79,-425.11 1118.31,-371.8 1118.31,-324 1118.31,-324 1118.31,-324 1118.31,-195.5 1118.31,-150.84 1082.25,-108.63 1059.81,-86.69"/>
<polygon fill="#63b8ff" stroke="#63b8ff" points="1061.92,-83.87 1052.25,-79.55 1057.12,-88.96 1061.92,-83.87"/>
</a>
</g>
</g>
<!-- Node21 -->
<g id="Node000021" class="node">
<title>Node21</title>
<g id="a_Node000021"><a xlink:title=" ">
<polygon fill="#e0e0e0" stroke="#999999" points="942.31,-79.5 802.31,-79.5 802.31,-60.5 942.31,-60.5 942.31,-79.5"/>
<text text-anchor="middle" x="872.31" y="-67.5" font-family="Helvetica,sans-Serif" font-size="10.00">deal.II/dofs/dof_handler.h</text>
</a>
</g>
</g>
<!-- Node5&#45;&gt;Node21 -->
<g id="edge43_Node000005_Node000021" class="edge">
<title>Node5&#45;&gt;Node21</title>
<g id="a_edge43_Node000005_Node000021"><a xlink:title=" ">
<path fill="none" stroke="#63b8ff" d="M1077.65,-445.48C1078.43,-424.72 1080.31,-369.83 1080.31,-324 1080.31,-324 1080.31,-324 1080.31,-256 1080.31,-164.21 965.83,-106.79 906.73,-83.27"/>
<polygon fill="#63b8ff" stroke="#63b8ff" points="907.99,-80 897.4,-79.65 905.46,-86.53 907.99,-80"/>
</a>
</g>
</g>
<!-- Node5&#45;&gt;Node50 -->
<g id="edge44_Node000005_Node000050" class="edge">
<title>Node5&#45;&gt;Node50</title>
<g id="a_edge44_Node000005_Node000050"><a xlink:title=" ">
<path fill="none" stroke="#63b8ff" d="M1093.77,-445.37C1111.49,-436.07 1140.24,-420.99 1163.26,-408.91"/>
<polygon fill="#63b8ff" stroke="#63b8ff" points="1165.18,-411.86 1172.41,-404.12 1161.92,-405.66 1165.18,-411.86"/>
</a>
</g>
</g>
<!-- Node7 -->
<g id="Node000007" class="node">
<title>Node7</title>
<g id="a_Node000007"><a xlink:href="pvd__handler_8h.html" target="_top" xlink:title=" ">
<polygon fill="white" stroke="#666666" points="655.81,-266.5 546.81,-266.5 546.81,-247.5 655.81,-247.5 655.81,-266.5"/>
<text text-anchor="middle" x="601.31" y="-254.5" font-family="Helvetica,sans-Serif" font-size="10.00">core/pvd_handler.h</text>
</a>
</g>
</g>
<!-- Node6&#45;&gt;Node7 -->
<g id="edge6_Node000006_Node000007" class="edge">
<title>Node6&#45;&gt;Node7</title>
<g id="a_edge6_Node000006_Node000007"><a xlink:title=" ">
<path fill="none" stroke="#63b8ff" d="M592.43,-379.47C569.57,-372.45 543.17,-359.94 529.31,-338 522.2,-326.73 523.13,-319.81 529.31,-308 537.96,-291.47 554.83,-279.31 570.07,-271.12"/>
<polygon fill="#63b8ff" stroke="#63b8ff" points="571.87,-274.13 579.26,-266.53 568.75,-267.87 571.87,-274.13"/>
</a>
</g>
</g>
<!-- Node16 -->
<g id="Node000016" class="node">
<title>Node16</title>
<g id="a_Node000016"><a xlink:href="core_2utilities_8h.html" target="_top" xlink:title=" ">
<polygon fill="#fff0f0" stroke="red" points="838.31,-145.5 752.31,-145.5 752.31,-126.5 838.31,-126.5 838.31,-145.5"/>
<text text-anchor="middle" x="795.31" y="-133.5" font-family="Helvetica,sans-Serif" font-size="10.00">core/utilities.h</text>
</a>
</g>
</g>
<!-- Node6&#45;&gt;Node16 -->
<g id="edge37_Node000006_Node000016" class="edge">
<title>Node6&#45;&gt;Node16</title>
<g id="a_edge37_Node000006_Node000016"><a xlink:title=" ">
<path fill="none" stroke="#63b8ff" d="M612.26,-379.47C595.19,-371.55 572.75,-357.96 562.31,-338 556.13,-326.19 554.61,-318.88 562.31,-308 590.08,-268.76 623.84,-297.94 664.31,-272 715.7,-239.07 761.87,-182.28 783.06,-154.01"/>
<polygon fill="#63b8ff" stroke="#63b8ff" points="786.14,-155.72 789.26,-145.59 780.51,-151.57 786.14,-155.72"/>
</a>
</g>
</g>
<!-- Node6&#45;&gt;Node21 -->
<g id="edge39_Node000006_Node000021" class="edge">
<title>Node6&#45;&gt;Node21</title>
<g id="a_edge39_Node000006_Node000021"><a xlink:title=" ">
<path fill="none" stroke="#63b8ff" d="M686.93,-382.39C744.04,-375.22 830.19,-360.93 853.31,-338 879.27,-312.27 872.31,-294.54 872.31,-258 872.31,-258 872.31,-258 872.31,-195.5 872.31,-157.99 872.31,-114.13 872.31,-89.76"/>
<polygon fill="#63b8ff" stroke="#63b8ff" points="875.81,-89.75 872.31,-79.75 868.81,-89.75 875.81,-89.75"/>
</a>
</g>
</g>
<!-- Node44 -->
<g id="Node000044" class="node">
<title>Node44</title>
<g id="a_Node000044"><a xlink:href="simulation__control_8h.html" target="_top" xlink:title="Simulation control classes for managing time&#45;stepping and iteration control in Lethe.">
<polygon fill="white" stroke="#666666" points="439.31,-332.5 299.31,-332.5 299.31,-313.5 439.31,-313.5 439.31,-332.5"/>
<text text-anchor="middle" x="369.31" y="-320.5" font-family="Helvetica,sans-Serif" font-size="10.00">core/simulation_control.h</text>
</a>
</g>
</g>
<!-- Node6&#45;&gt;Node44 -->
<g id="edge24_Node000006_Node000044" class="edge">
<title>Node6&#45;&gt;Node44</title>
<g id="a_edge24_Node000006_Node000044"><a xlink:title=" ">
<path fill="none" stroke="#63b8ff" d="M598.85,-379.44C551.25,-367.94 466.67,-347.51 414.54,-334.92"/>
<polygon fill="#63b8ff" stroke="#63b8ff" points="415.11,-331.46 404.57,-332.51 413.47,-338.26 415.11,-331.46"/>
</a>
</g>
</g>
<!-- Node47 -->
<g id="Node000047" class="node">
<title>Node47</title>
<g id="a_Node000047"><a xlink:title=" ">
<polygon fill="#e0e0e0" stroke="#999999" points="528.81,-272 397.81,-272 397.81,-242 528.81,-242 528.81,-272"/>
<text text-anchor="start" x="405.81" y="-260" font-family="Helvetica,sans-Serif" font-size="10.00">deal.II/particles/particle</text>
<text text-anchor="middle" x="463.31" y="-249" font-family="Helvetica,sans-Serif" font-size="10.00">_handler.h</text>
</a>
</g>
</g>
<!-- Node6&#45;&gt;Node47 -->
<g id="edge41_Node000006_Node000047" class="edge">
<title>Node6&#45;&gt;Node47</title>
<g id="a_edge41_Node000006_Node000047"><a xlink:title=" ">
<path fill="none" stroke="#63b8ff" d="M604.13,-379.47C579.91,-371.56 546,-357.97 521.31,-338 501.96,-322.34 485.91,-298.73 475.63,-281.21"/>
<polygon fill="#63b8ff" stroke="#63b8ff" points="478.51,-279.18 470.54,-272.19 472.41,-282.62 478.51,-279.18"/>
</a>
</g>
</g>
<!-- Node48 -->
<g id="Node000048" class="node">
<title>Node48</title>
<g id="a_Node000048"><a xlink:href="solid__objects__parameters_8h.html" target="_top" xlink:title="Parameter classes for solid objects used in Nitsche immersed boundary and DEM simulations.">
<polygon fill="white" stroke="#666666" points="257.31,-272 153.31,-272 153.31,-242 257.31,-242 257.31,-272"/>
<text text-anchor="start" x="161.31" y="-260" font-family="Helvetica,sans-Serif" font-size="10.00">core/solid_objects</text>
<text text-anchor="middle" x="205.31" y="-249" font-family="Helvetica,sans-Serif" font-size="10.00">_parameters.h</text>
</a>
</g>
</g>
<!-- Node6&#45;&gt;Node48 -->
<g id="edge31_Node000006_Node000048" class="edge">
<title>Node6&#45;&gt;Node48</title>
<g id="a_edge31_Node000006_Node000048"><a xlink:title=" ">
<path fill="none" stroke="#63b8ff" d="M581.55,-384.22C498.27,-377.61 340.65,-362.3 290.31,-338 262.46,-324.55 237.61,-298.71 222.07,-280.02"/>
<polygon fill="#63b8ff" stroke="#63b8ff" points="224.62,-277.6 215.62,-272.01 219.17,-281.99 224.62,-277.6"/>
</a>
</g>
</g>
<!-- Node6&#45;&gt;Node13 -->
<g id="edge35_Node000006_Node000013" class="edge">
<title>Node6&#45;&gt;Node13</title>
<g id="a_edge35_Node000006_Node000013"><a xlink:title=" ">
<path fill="none" stroke="#63b8ff" d="M680.08,-379.44C733.93,-369.36 824.44,-352.42 891.27,-339.91"/>
<polygon fill="#63b8ff" stroke="#63b8ff" points="892.18,-343.3 901.37,-338.02 890.9,-336.42 892.18,-343.3"/>
</a>
</g>
</g>
<!-- Node32 -->
<g id="Node000032" class="node">
<title>Node32</title>
<g id="a_Node000032"><a xlink:title=" ">
<polygon fill="#e0e0e0" stroke="#999999" points="696.81,-332.5 571.81,-332.5 571.81,-313.5 696.81,-313.5 696.81,-332.5"/>
<text text-anchor="middle" x="634.31" y="-320.5" font-family="Helvetica,sans-Serif" font-size="10.00">deal.II/base/function.h</text>
</a>
</g>
</g>
<!-- Node6&#45;&gt;Node32 -->
<g id="edge38_Node000006_Node000032" class="edge">
<title>Node6&#45;&gt;Node32</title>
<g id="a_edge38_Node000006_Node000032"><a xlink:title=" ">
<path fill="none" stroke="#63b8ff" d="M634.31,-379.37C634.31,-370.16 634.31,-355.29 634.31,-343.27"/>
<polygon fill="#63b8ff" stroke="#63b8ff" points="637.81,-342.91 634.31,-332.91 630.81,-342.91 637.81,-342.91"/>
</a>
</g>
</g>
<!-- Node49 -->
<g id="Node000049" class="node">
<title>Node49</title>
<g id="a_Node000049"><a xlink:title=" ">
<polygon fill="#e0e0e0" stroke="#999999" points="843.81,-332.5 714.81,-332.5 714.81,-313.5 843.81,-313.5 843.81,-332.5"/>
<text text-anchor="middle" x="779.31" y="-320.5" font-family="Helvetica,sans-Serif" font-size="10.00">deal.II/fe/mapping_fe.h</text>
</a>
</g>
</g>
<!-- Node6&#45;&gt;Node49 -->
<g id="edge40_Node000006_Node000049" class="edge">
<title>Node6&#45;&gt;Node49</title>
<g id="a_edge40_Node000006_Node000049"><a xlink:title=" ">
<path fill="none" stroke="#63b8ff" d="M653.87,-379.37C678.62,-368.44 721.49,-349.52 750.12,-336.88"/>
<polygon fill="#63b8ff" stroke="#63b8ff" points="751.87,-339.94 759.6,-332.7 749.04,-333.54 751.87,-339.94"/>
</a>
</g>
</g>
<!-- Node8 -->
<g id="Node000008" class="node">
<title>Node8</title>
<g id="a_Node000008"><a xlink:href="parameters_8h.html" target="_top" xlink:title=" ">
<polygon fill="white" stroke="#666666" points="492.31,-206 386.31,-206 386.31,-187 492.31,-187 492.31,-206"/>
<text text-anchor="middle" x="439.31" y="-194" font-family="Helvetica,sans-Serif" font-size="10.00">core/parameters.h</text>
</a>
</g>
</g>
<!-- Node7&#45;&gt;Node8 -->
<g id="edge7_Node000007_Node000008" class="edge">
<title>Node7&#45;&gt;Node8</title>
<g id="a_edge7_Node000007_Node000008"><a xlink:title=" ">
<path fill="none" stroke="#63b8ff" d="M577.76,-247.49C550.04,-237.49 503.84,-220.8 472.51,-209.49"/>
<polygon fill="#63b8ff" stroke="#63b8ff" points="473.49,-206.12 462.9,-206.02 471.11,-212.71 473.49,-206.12"/>
</a>
</g>
</g>
<!-- Node9 -->
<g id="Node000009" class="node">
<title>Node9</title>
<g id="a_Node000009"><a xlink:href="dimensionality_8h.html" target="_top" xlink:title=" ">
<polygon fill="white" stroke="#666666" points="383.81,-145.5 262.81,-145.5 262.81,-126.5 383.81,-126.5 383.81,-145.5"/>
<text text-anchor="middle" x="323.31" y="-133.5" font-family="Helvetica,sans-Serif" font-size="10.00">core/dimensionality.h</text>
</a>
</g>
</g>
<!-- Node8&#45;&gt;Node9 -->
<g id="edge8_Node000008_Node000009" class="edge">
<title>Node8&#45;&gt;Node9</title>
<g id="a_edge8_Node000008_Node000009"><a xlink:title=" ">
<path fill="none" stroke="#63b8ff" d="M422.2,-186.87C403.09,-177.23 371.95,-161.53 349.72,-150.31"/>
<polygon fill="#63b8ff" stroke="#63b8ff" points="351,-147.05 340.5,-145.67 347.85,-153.3 351,-147.05"/>
</a>
</g>
</g>
<!-- Node10 -->
<g id="Node000010" class="node">
<title>Node10</title>
<g id="a_Node000010"><a xlink:title=" ">
<polygon fill="#e0e0e0" stroke="#999999" points="566.81,-85 439.81,-85 439.81,-55 566.81,-55 566.81,-85"/>
<text text-anchor="start" x="447.81" y="-73" font-family="Helvetica,sans-Serif" font-size="10.00">deal.II/base/parameter</text>
<text text-anchor="middle" x="503.31" y="-62" font-family="Helvetica,sans-Serif" font-size="10.00">_handler.h</text>
</a>
</g>
</g>
<!-- Node8&#45;&gt;Node10 -->
<g id="edge21_Node000008_Node000010" class="edge">
<title>Node8&#45;&gt;Node10</title>
<g id="a_edge21_Node000008_Node000010"><a xlink:title=" ">
<path fill="none" stroke="#63b8ff" d="M492.42,-194.38C561.83,-191.67 677.72,-182.43 704.31,-151 712.93,-140.82 712.53,-131.5 704.31,-121 688.48,-100.75 627.64,-87.52 577.01,-79.79"/>
<polygon fill="#63b8ff" stroke="#63b8ff" points="577.43,-76.32 567.03,-78.32 576.41,-83.24 577.43,-76.32"/>
</a>
</g>
</g>
<!-- Node11 -->
<g id="Node000011" class="node">
<title>Node11</title>
<g id="a_Node000011"><a xlink:href="ib__particle_8h.html" target="_top" xlink:title=" ">
<polygon fill="#fff0f0" stroke="red" points="129.81,-145.5 28.81,-145.5 28.81,-126.5 129.81,-126.5 129.81,-145.5"/>
<text text-anchor="middle" x="79.31" y="-133.5" font-family="Helvetica,sans-Serif" font-size="10.00">core/ib_particle.h</text>
</a>
</g>
</g>
<!-- Node8&#45;&gt;Node11 -->
<g id="edge10_Node000008_Node000011" class="edge">
<title>Node8&#45;&gt;Node11</title>
<g id="a_edge10_Node000008_Node000011"><a xlink:title=" ">
<path fill="none" stroke="#63b8ff" d="M386.97,-186.99C321.35,-176.33 209.12,-158.09 139.87,-146.84"/>
<polygon fill="#63b8ff" stroke="#63b8ff" points="140.41,-143.38 129.98,-145.23 139.29,-150.29 140.41,-143.38"/>
</a>
</g>
</g>
<!-- Node41 -->
<g id="Node000041" class="node">
<title>Node41</title>
<g id="a_Node000041"><a xlink:title=" ">
<polygon fill="#e0e0e0" stroke="#999999" points="281.81,-85 172.81,-85 172.81,-55 281.81,-55 281.81,-85"/>
<text text-anchor="start" x="180.81" y="-73" font-family="Helvetica,sans-Serif" font-size="10.00">deal.II/base/parsed</text>
<text text-anchor="middle" x="227.31" y="-62" font-family="Helvetica,sans-Serif" font-size="10.00">_function.h</text>
</a>
</g>
</g>
<!-- Node8&#45;&gt;Node41 -->
<g id="edge22_Node000008_Node000041" class="edge">
<title>Node8&#45;&gt;Node41</title>
<g id="a_edge22_Node000008_Node000041"><a xlink:title=" ">
<path fill="none" stroke="#63b8ff" d="M393.5,-186.96C341.84,-176.96 263.65,-160.55 253.31,-151 237.78,-136.65 231.5,-112.95 228.98,-95.06"/>
<polygon fill="#63b8ff" stroke="#63b8ff" points="232.45,-94.61 227.86,-85.06 225.49,-95.39 232.45,-94.61"/>
</a>
</g>
</g>
<!-- Node42 -->
<g id="Node000042" class="node">
<title>Node42</title>
<g id="a_Node000042"><a xlink:href="multiphysics_8h.html" target="_top" xlink:title="Identifiers for multiphysics modules and their solution fields.">
<polygon fill="white" stroke="#666666" points="514.31,-145.5 402.31,-145.5 402.31,-126.5 514.31,-126.5 514.31,-145.5"/>
<text text-anchor="middle" x="458.31" y="-133.5" font-family="Helvetica,sans-Serif" font-size="10.00">core/multiphysics.h</text>
</a>
</g>
</g>
<!-- Node8&#45;&gt;Node42 -->
<g id="edge14_Node000008_Node000042" class="edge">
<title>Node8&#45;&gt;Node42</title>
<g id="a_edge14_Node000008_Node000042"><a xlink:title=" ">
<path fill="none" stroke="#63b8ff" d="M442.12,-186.87C444.81,-178.57 448.97,-165.78 452.39,-155.22"/>
<polygon fill="#63b8ff" stroke="#63b8ff" points="455.74,-156.26 455.5,-145.67 449.08,-154.1 455.74,-156.26"/>
</a>
</g>
</g>
<!-- Node8&#45;&gt;Node16 -->
<g id="edge15_Node000008_Node000016" class="edge">
<title>Node8&#45;&gt;Node16</title>
<g id="a_edge15_Node000008_Node000016"><a xlink:title=" ">
<path fill="none" stroke="#63b8ff" d="M492.5,-189.1C552.49,-181.54 652.83,-167.82 738.31,-151 743.06,-150.07 748.01,-149 752.92,-147.87"/>
<polygon fill="#63b8ff" stroke="#63b8ff" points="753.95,-151.23 762.88,-145.52 752.34,-144.42 753.95,-151.23"/>
</a>
</g>
</g>
<!-- Node43 -->
<g id="Node000043" class="node">
<title>Node43</title>
<g id="a_Node000043"><a xlink:title=" ">
<polygon fill="#e0e0e0" stroke="#999999" points="695.81,-151 532.81,-151 532.81,-121 695.81,-121 695.81,-151"/>
<text text-anchor="start" x="540.81" y="-139" font-family="Helvetica,sans-Serif" font-size="10.00">deal.II/multigrid/mg</text>
<text text-anchor="middle" x="614.31" y="-128" font-family="Helvetica,sans-Serif" font-size="10.00">_transfer_global_coarsening.h</text>
</a>
</g>
</g>
<!-- Node8&#45;&gt;Node43 -->
<g id="edge23_Node000008_Node000043" class="edge">
<title>Node8&#45;&gt;Node43</title>
<g id="a_edge23_Node000008_Node000043"><a xlink:title=" ">
<path fill="none" stroke="#63b8ff" d="M464.76,-186.99C490.28,-178.46 530.29,-165.09 562.52,-154.32"/>
<polygon fill="#63b8ff" stroke="#63b8ff" points="563.87,-157.55 572.24,-151.06 561.65,-150.92 563.87,-157.55"/>
</a>
</g>
</g>
<!-- Node9&#45;&gt;Node10 -->
<g id="edge9_Node000009_Node000010" class="edge">
<title>Node9&#45;&gt;Node10</title>
<g id="a_edge9_Node000009_Node000010"><a xlink:title=" ">
<path fill="none" stroke="#63b8ff" d="M347.59,-126.37C374.78,-116.7 419.57,-100.77 454.15,-88.48"/>
<polygon fill="#63b8ff" stroke="#63b8ff" points="455.36,-91.76 463.61,-85.12 453.02,-85.17 455.36,-91.76"/>
</a>
</g>
</g>
<!-- Node11&#45;&gt;Node2 -->
<g id="edge11_Node000011_Node000002" class="edge">
<title>Node11&#45;&gt;Node2</title>
<g id="a_edge11_Node000011_Node000002"><a xlink:title=" ">
<path fill="none" stroke="#63b8ff" d="M80.93,-126.37C82.68,-117.07 85.5,-101.98 87.77,-89.9"/>
<polygon fill="#63b8ff" stroke="#63b8ff" points="91.24,-90.38 89.64,-79.91 84.36,-89.09 91.24,-90.38"/>
</a>
</g>
</g>
<!-- Node11&#45;&gt;Node4 -->
<g id="edge13_Node000011_Node000004" class="edge">
<title>Node11&#45;&gt;Node4</title>
<g id="a_edge13_Node000011_Node000004"><a xlink:title=" ">
<path fill="none" stroke="#63b8ff" d="M62.26,-126.35C47.83,-117.98 28.11,-103.79 19.31,-85 13.66,-72.93 15.13,-67.66 19.31,-55 22.77,-44.54 29.74,-34.53 36.39,-26.66"/>
<polygon fill="#63b8ff" stroke="#63b8ff" points="39.17,-28.8 43.3,-19.04 33.99,-24.1 39.17,-28.8"/>
</a>
</g>
</g>
<!-- Node11&#45;&gt;Node41 -->
<g id="edge12_Node000011_Node000041" class="edge">
<title>Node11&#45;&gt;Node41</title>
<g id="a_edge12_Node000011_Node000041"><a xlink:title=" ">
<path fill="none" stroke="#63b8ff" d="M99.27,-126.37C121.25,-116.87 157.2,-101.32 185.43,-89.11"/>
<polygon fill="#63b8ff" stroke="#63b8ff" points="186.88,-92.3 194.67,-85.12 184.1,-85.87 186.88,-92.3"/>
</a>
</g>
</g>
<!-- Node16&#45;&gt;Node3 -->
<g id="edge19_Node000016_Node000003" class="edge">
<title>Node16&#45;&gt;Node3</title>
<g id="a_edge19_Node000016_Node000003"><a xlink:title=" ">
<path fill="none" stroke="#63b8ff" d="M783.22,-126.32C758.64,-109.21 700.5,-71.35 645.31,-55 553.91,-27.92 259.89,-15.17 161.63,-11.59"/>
<polygon fill="#63b8ff" stroke="#63b8ff" points="161.55,-8.08 151.43,-11.23 161.3,-15.08 161.55,-8.08"/>
</a>
</g>
</g>
<!-- Node16&#45;&gt;Node4 -->
<g id="edge20_Node000016_Node000004" class="edge">
<title>Node16&#45;&gt;Node4</title>
<g id="a_edge20_Node000016_Node000004"><a xlink:title=" ">
<path fill="none" stroke="#63b8ff" d="M767.42,-126.47C737.12,-117.02 687.39,-101 645.31,-85 613.68,-72.97 608.19,-63.05 575.31,-55 368.81,-4.44 309.15,-46.36 98.31,-19 94.35,-18.49 90.21,-17.85 86.11,-17.17"/>
<polygon fill="#63b8ff" stroke="#63b8ff" points="86.57,-13.7 76.11,-15.4 85.35,-20.59 86.57,-13.7"/>
</a>
</g>
</g>
<!-- Node16&#45;&gt;Node10 -->
<g id="edge16_Node000016_Node000010" class="edge">
<title>Node16&#45;&gt;Node10</title>
<g id="a_edge16_Node000016_Node000010"><a xlink:title=" ">
<path fill="none" stroke="#63b8ff" d="M761.3,-126.46C753.74,-124.62 745.76,-122.71 738.31,-121 684.53,-108.68 623.57,-95.74 577.22,-86.11"/>
<polygon fill="#63b8ff" stroke="#63b8ff" points="577.77,-82.65 567.27,-84.04 576.35,-89.5 577.77,-82.65"/>
</a>
</g>
</g>
<!-- Node16&#45;&gt;Node15 -->
<g id="edge17_Node000016_Node000015" class="edge">
<title>Node16&#45;&gt;Node15</title>
<g id="a_edge17_Node000016_Node000015"><a xlink:title=" ">
<path fill="none" stroke="#63b8ff" d="M828.37,-126.44C872.55,-114.99 950.92,-94.68 999.55,-82.08"/>
<polygon fill="#63b8ff" stroke="#63b8ff" points="1000.65,-85.41 1009.45,-79.51 998.9,-78.63 1000.65,-85.41"/>
</a>
</g>
</g>
<!-- Node16&#45;&gt;Node21 -->
<g id="edge18_Node000016_Node000021" class="edge">
<title>Node16&#45;&gt;Node21</title>
<g id="a_edge18_Node000016_Node000021"><a xlink:title=" ">
<path fill="none" stroke="#63b8ff" d="M805.7,-126.37C818.03,-116.12 838.82,-98.84 853.9,-86.31"/>
<polygon fill="#63b8ff" stroke="#63b8ff" points="856.15,-88.99 861.6,-79.91 851.67,-83.61 856.15,-88.99"/>
</a>
</g>
</g>
<!-- Node44&#45;&gt;Node8 -->
<g id="edge29_Node000044_Node000008" class="edge">
<title>Node44&#45;&gt;Node8</title>
<g id="a_edge29_Node000044_Node000008"><a xlink:title=" ">
<path fill="none" stroke="#63b8ff" d="M369.66,-313.42C370.62,-298.04 374.29,-265.22 388.31,-242 395.43,-230.21 406.72,-219.89 416.87,-212.16"/>
<polygon fill="#63b8ff" stroke="#63b8ff" points="418.94,-214.99 425.01,-206.31 414.85,-209.31 418.94,-214.99"/>
</a>
</g>
</g>
<!-- Node45 -->
<g id="Node000045" class="node">
<title>Node45</title>
<g id="a_Node000045"><a xlink:href="bdf_8h.html" target="_top" xlink:title=" ">
<polygon fill="white" stroke="#666666" points="340.81,-266.5 275.81,-266.5 275.81,-247.5 340.81,-247.5 340.81,-266.5"/>
<text text-anchor="middle" x="308.31" y="-254.5" font-family="Helvetica,sans-Serif" font-size="10.00">core/bdf.h</text>
</a>
</g>
</g>
<!-- Node44&#45;&gt;Node45 -->
<g id="edge25_Node000044_Node000045" class="edge">
<title>Node44&#45;&gt;Node45</title>
<g id="a_edge25_Node000044_Node000045"><a xlink:title=" ">
<path fill="none" stroke="#63b8ff" d="M361.09,-313.37C351.59,-303.4 335.76,-286.79 323.91,-274.36"/>
<polygon fill="#63b8ff" stroke="#63b8ff" points="326.23,-271.73 316.8,-266.91 321.17,-276.56 326.23,-271.73"/>
</a>
</g>
</g>
<!-- Node44&#45;&gt;Node47 -->
<g id="edge30_Node000044_Node000047" class="edge">
<title>Node44&#45;&gt;Node47</title>
<g id="a_edge30_Node000044_Node000047"><a xlink:title=" ">
<path fill="none" stroke="#63b8ff" d="M381.99,-313.37C395.22,-304.36 416.43,-289.92 433.87,-278.05"/>
<polygon fill="#63b8ff" stroke="#63b8ff" points="436.28,-280.64 442.58,-272.12 432.35,-274.85 436.28,-280.64"/>
</a>
</g>
</g>
<!-- Node45&#45;&gt;Node4 -->
<g id="edge28_Node000045_Node000004" class="edge">
<title>Node45&#45;&gt;Node4</title>
<g id="a_edge28_Node000045_Node000004"><a xlink:title=" ">
<path fill="none" stroke="#63b8ff" d="M283.6,-247.41C214.43,-223.32 23.62,-156.5 19.31,-151 -7.05,-117.31 -3,-94.94 12.31,-55 16.55,-43.94 24.95,-33.91 32.96,-26.18"/>
<polygon fill="#63b8ff" stroke="#63b8ff" points="35.56,-28.55 40.67,-19.27 30.89,-23.33 35.56,-28.55"/>
</a>
</g>
</g>
<!-- Node45&#45;&gt;Node8 -->
<g id="edge26_Node000045_Node000008" class="edge">
<title>Node45&#45;&gt;Node8</title>
<g id="a_edge26_Node000045_Node000008"><a xlink:title=" ">
<path fill="none" stroke="#63b8ff" d="M327.36,-247.49C349.29,-237.7 385.52,-221.52 410.81,-210.23"/>
<polygon fill="#63b8ff" stroke="#63b8ff" points="412.54,-213.29 420.24,-206.02 409.68,-206.9 412.54,-213.29"/>
</a>
</g>
</g>
<!-- Node46 -->
<g id="Node000046" class="node">
<title>Node46</title>
<g id="a_Node000046"><a xlink:title=" ">
<polygon fill="#e0e0e0" stroke="#999999" points="368.31,-206 262.31,-206 262.31,-187 368.31,-187 368.31,-206"/>
<text text-anchor="middle" x="315.31" y="-194" font-family="Helvetica,sans-Serif" font-size="10.00">deal.II/lac/vector.h</text>
</a>
</g>
</g>
<!-- Node45&#45;&gt;Node46 -->
<g id="edge27_Node000045_Node000046" class="edge">
<title>Node45&#45;&gt;Node46</title>
<g id="a_edge27_Node000045_Node000046"><a xlink:title=" ">
<path fill="none" stroke="#63b8ff" d="M309.35,-247.37C310.32,-239.25 311.81,-226.81 313.05,-216.39"/>
<polygon fill="#63b8ff" stroke="#63b8ff" points="316.56,-216.51 314.28,-206.17 309.61,-215.68 316.56,-216.51"/>
</a>
</g>
</g>
<!-- Node48&#45;&gt;Node8 -->
<g id="edge32_Node000048_Node000008" class="edge">
<title>Node48&#45;&gt;Node8</title>
<g id="a_edge32_Node000048_Node000008"><a xlink:title=" ">
<path fill="none" stroke="#63b8ff" d="M257.54,-242.94C298.92,-232.6 356.1,-218.3 395.21,-208.53"/>
<polygon fill="#63b8ff" stroke="#63b8ff" points="396.14,-211.9 404.99,-206.08 394.44,-205.11 396.14,-211.9"/>
</a>
</g>
</g>
<!-- Node48&#45;&gt;Node10 -->
<g id="edge33_Node000048_Node000010" class="edge">
<title>Node48&#45;&gt;Node10</title>
<g id="a_edge33_Node000048_Node000010"><a xlink:title=" ">
<path fill="none" stroke="#63b8ff" d="M209.55,-241.61C219.42,-208.52 243.81,-129.22 253.31,-121 279.29,-98.53 365.65,-84.92 429.64,-77.7"/>
<polygon fill="#63b8ff" stroke="#63b8ff" points="430.14,-81.16 439.7,-76.59 429.38,-74.21 430.14,-81.16"/>
</a>
</g>
</g>
<!-- Node48&#45;&gt;Node41 -->
<g id="edge34_Node000048_Node000041" class="edge">
<title>Node48&#45;&gt;Node41</title>
<g id="a_edge34_Node000048_Node000041"><a xlink:title=" ">
<path fill="none" stroke="#63b8ff" d="M207,-241.79C210.76,-210.24 219.82,-134.04 224.46,-94.97"/>
<polygon fill="#63b8ff" stroke="#63b8ff" points="227.94,-95.35 225.65,-85 220.99,-94.52 227.94,-95.35"/>
</a>
</g>
</g>
<!-- Node13&#45;&gt;Node15 -->
<g id="edge36_Node000013_Node000015" class="edge">
<title>Node13&#45;&gt;Node15</title>
<g id="a_edge36_Node000013_Node000015"><a xlink:title=" ">
<path fill="none" stroke="#63b8ff" d="M980.05,-307.79C991.29,-265.06 1024.75,-137.79 1037.4,-89.69"/>
<polygon fill="#63b8ff" stroke="#63b8ff" points="1040.86,-90.29 1040.02,-79.73 1034.09,-88.51 1040.86,-90.29"/>
</a>
</g>
</g>
</g>
</svg>
