<?xml version="1.0" encoding="UTF-8" standalone="no"?>
<!DOCTYPE svg PUBLIC "-//W3C//DTD SVG 1.1//EN"
 "http://www.w3.org/Graphics/SVG/1.1/DTD/svg11.dtd">
<!-- Generated by graphviz version 2.43.0 (0)
 -->
<!-- Title: /home/runner/work/lethe/lethe/source/dem/log_collision_data.cc Pages: 1 -->
<svg width="1862pt" height="555pt"
 viewBox="0.00 0.00 1862.00 555.00" xmlns="http://www.w3.org/2000/svg" xmlns:xlink="http://www.w3.org/1999/xlink">
<g id="graph0" class="graph" transform="scale(1 1) rotate(0) translate(4 551)">
<title>/home/runner/work/lethe/lethe/source/dem/log_collision_data.cc</title>
<!-- Node1 -->
<g id="Node000001" class="node">
<title>Node1</title>
<g id="a_Node000001"><a xlink:title=" ">
<polygon fill="#999999" stroke="#666666" points="566.5,-547 429.5,-547 429.5,-506 566.5,-506 566.5,-547"/>
<text text-anchor="start" x="437.5" y="-535" font-family="Helvetica,sans-Serif" font-size="10.00">/home/runner/work/lethe</text>
<text text-anchor="start" x="437.5" y="-524" font-family="Helvetica,sans-Serif" font-size="10.00">/lethe/source/dem/log</text>
<text text-anchor="middle" x="498" y="-513" font-family="Helvetica,sans-Serif" font-size="10.00">_collision_data.cc</text>
</a>
</g>
</g>
<!-- Node2 -->
<g id="Node000002" class="node">
<title>Node2</title>
<g id="a_Node000002"><a xlink:href="log__collision__data_8h.html" target="_top" xlink:title=" ">
<polygon fill="white" stroke="#666666" points="498,-470 360,-470 360,-451 498,-451 498,-470"/>
<text text-anchor="middle" x="429" y="-458" font-family="Helvetica,sans-Serif" font-size="10.00">dem/log_collision_data.h</text>
</a>
</g>
</g>
<!-- Node1&#45;&gt;Node2 -->
<g id="edge1_Node000001_Node000002" class="edge">
<title>Node1&#45;&gt;Node2</title>
<g id="a_edge1_Node000001_Node000002"><a xlink:title=" ">
<path fill="none" stroke="#63b8ff" d="M476.92,-505.95C466.99,-496.74 455.3,-485.9 445.95,-477.23"/>
<polygon fill="#63b8ff" stroke="#63b8ff" points="448.16,-474.49 438.44,-470.26 443.4,-479.63 448.16,-474.49"/>
</a>
</g>
</g>
<!-- Node64 -->
<g id="Node000064" class="node">
<title>Node64</title>
<g id="a_Node000064"><a xlink:title=" ">
<polygon fill="#e0e0e0" stroke="#999999" points="620,-470 516,-470 516,-451 620,-451 620,-470"/>
<text text-anchor="middle" x="568" y="-458" font-family="Helvetica,sans-Serif" font-size="10.00">deal.II/base/mpi.h</text>
</a>
</g>
</g>
<!-- Node1&#45;&gt;Node64 -->
<g id="edge68_Node000001_Node000064" class="edge">
<title>Node1&#45;&gt;Node64</title>
<g id="a_edge68_Node000001_Node000064"><a xlink:title=" ">
<path fill="none" stroke="#63b8ff" d="M519.38,-505.95C529.46,-496.74 541.32,-485.9 550.8,-477.23"/>
<polygon fill="#63b8ff" stroke="#63b8ff" points="553.4,-479.59 558.42,-470.26 548.68,-474.43 553.4,-479.59"/>
</a>
</g>
</g>
<!-- Node3 -->
<g id="Node000003" class="node">
<title>Node3</title>
<g id="a_Node000003"><a xlink:href="tensors__and__points__dimension__manipulation_8h.html" target="_top" xlink:title=" ">
<polygon fill="white" stroke="#666666" points="231,-96 79,-96 79,-66 231,-66 231,-96"/>
<text text-anchor="start" x="87" y="-84" font-family="Helvetica,sans-Serif" font-size="10.00">core/tensors_and_points</text>
<text text-anchor="middle" x="155" y="-73" font-family="Helvetica,sans-Serif" font-size="10.00">_dimension_manipulation.h</text>
</a>
</g>
</g>
<!-- Node2&#45;&gt;Node3 -->
<g id="edge2_Node000002_Node000003" class="edge">
<title>Node2&#45;&gt;Node3</title>
<g id="a_edge2_Node000002_Node000003"><a xlink:title=" ">
<path fill="none" stroke="#63b8ff" d="M359.96,-455.36C293.69,-450.04 199.71,-438.51 172,-415 147.25,-393.99 148,-378.47 148,-346 148,-346 148,-346 148,-212 148,-175.02 150.86,-132.2 152.92,-106.12"/>
<polygon fill="#63b8ff" stroke="#63b8ff" points="156.42,-106.28 153.75,-96.03 149.44,-105.71 156.42,-106.28"/>
</a>
</g>
</g>
<!-- Node5 -->
<g id="Node000005" class="node">
<title>Node5</title>
<g id="a_Node000005"><a xlink:title=" ">
<polygon fill="#e0e0e0" stroke="#999999" points="533.5,-24.5 418.5,-24.5 418.5,-5.5 533.5,-5.5 533.5,-24.5"/>
<text text-anchor="middle" x="476" y="-12.5" font-family="Helvetica,sans-Serif" font-size="10.00">deal.II/base/tensor.h</text>
</a>
</g>
</g>
<!-- Node2&#45;&gt;Node5 -->
<g id="edge66_Node000002_Node000005" class="edge">
<title>Node2&#45;&gt;Node5</title>
<g id="a_edge66_Node000002_Node000005"><a xlink:title=" ">
<path fill="none" stroke="#63b8ff" d="M359.69,-455.9C287.87,-448 186,-423.18 186,-346 186,-346 186,-346 186,-278 186,-175.29 199.73,-132.51 278,-66 283.83,-61.05 371.84,-40.04 428.54,-26.88"/>
<polygon fill="#63b8ff" stroke="#63b8ff" points="429.44,-30.26 438.39,-24.6 427.86,-23.44 429.44,-30.26"/>
</a>
</g>
</g>
<!-- Node6 -->
<g id="Node000006" class="node">
<title>Node6</title>
<g id="a_Node000006"><a xlink:href="dem__contact__manager_8h.html" target="_top" xlink:title=" ">
<polygon fill="white" stroke="#666666" points="765.5,-415 604.5,-415 604.5,-396 765.5,-396 765.5,-415"/>
<text text-anchor="middle" x="685" y="-403" font-family="Helvetica,sans-Serif" font-size="10.00">dem/dem_contact_manager.h</text>
</a>
</g>
</g>
<!-- Node2&#45;&gt;Node6 -->
<g id="edge5_Node000002_Node000006" class="edge">
<title>Node2&#45;&gt;Node6</title>
<g id="a_edge5_Node000002_Node000006"><a xlink:title=" ">
<path fill="none" stroke="#63b8ff" d="M470.13,-450.98C514.6,-441.78 585.55,-427.09 633.65,-417.13"/>
<polygon fill="#63b8ff" stroke="#63b8ff" points="634.46,-420.54 643.55,-415.08 633.04,-413.68 634.46,-420.54"/>
</a>
</g>
</g>
<!-- Node63 -->
<g id="Node000063" class="node">
<title>Node63</title>
<g id="a_Node000063"><a xlink:title=" ">
<polygon fill="#e0e0e0" stroke="#999999" points="896,-415 784,-415 784,-396 896,-396 896,-415"/>
<text text-anchor="middle" x="840" y="-403" font-family="Helvetica,sans-Serif" font-size="10.00">deal.II/base/types.h</text>
</a>
</g>
</g>
<!-- Node2&#45;&gt;Node63 -->
<g id="edge67_Node000002_Node000063" class="edge">
<title>Node2&#45;&gt;Node63</title>
<g id="a_edge67_Node000002_Node000063"><a xlink:title=" ">
<path fill="none" stroke="#63b8ff" d="M495.03,-450.98C571.58,-441.11 697.02,-424.94 773.69,-415.05"/>
<polygon fill="#63b8ff" stroke="#63b8ff" points="774.24,-418.51 783.71,-413.76 773.35,-411.57 774.24,-418.51"/>
</a>
</g>
</g>
<!-- Node4 -->
<g id="Node000004" class="node">
<title>Node4</title>
<g id="a_Node000004"><a xlink:title=" ">
<polygon fill="#e0e0e0" stroke="#999999" points="400,-24.5 290,-24.5 290,-5.5 400,-5.5 400,-24.5"/>
<text text-anchor="middle" x="345" y="-12.5" font-family="Helvetica,sans-Serif" font-size="10.00">deal.II/base/point.h</text>
</a>
</g>
</g>
<!-- Node3&#45;&gt;Node4 -->
<g id="edge3_Node000003_Node000004" class="edge">
<title>Node3&#45;&gt;Node4</title>
<g id="a_edge3_Node000003_Node000004"><a xlink:title=" ">
<path fill="none" stroke="#63b8ff" d="M196.7,-65.95C230.6,-54.53 277.91,-38.6 309.9,-27.82"/>
<polygon fill="#63b8ff" stroke="#63b8ff" points="311.35,-31.03 319.71,-24.52 309.12,-24.39 311.35,-31.03"/>
</a>
</g>
</g>
<!-- Node3&#45;&gt;Node5 -->
<g id="edge4_Node000003_Node000005" class="edge">
<title>Node3&#45;&gt;Node5</title>
<g id="a_edge4_Node000003_Node000005"><a xlink:title=" ">
<path fill="none" stroke="#63b8ff" d="M227.3,-66C278.15,-56.1 347.78,-42.42 409,-30 414.39,-28.91 420.01,-27.75 425.62,-26.59"/>
<polygon fill="#63b8ff" stroke="#63b8ff" points="426.55,-29.98 435.63,-24.52 425.12,-23.12 426.55,-29.98"/>
</a>
</g>
</g>
<!-- Node7 -->
<g id="Node000007" class="node">
<title>Node7</title>
<g id="a_Node000007"><a xlink:href="adaptive__sparse__contacts_8h.html" target="_top" xlink:title=" ">
<polygon fill="white" stroke="#666666" points="1478,-228 1356,-228 1356,-198 1478,-198 1478,-228"/>
<text text-anchor="start" x="1364" y="-216" font-family="Helvetica,sans-Serif" font-size="10.00">dem/adaptive_sparse</text>
<text text-anchor="middle" x="1417" y="-205" font-family="Helvetica,sans-Serif" font-size="10.00">_contacts.h</text>
</a>
</g>
</g>
<!-- Node6&#45;&gt;Node7 -->
<g id="edge6_Node000006_Node000007" class="edge">
<title>Node6&#45;&gt;Node7</title>
<g id="a_edge6_Node000006_Node000007"><a xlink:title=" ">
<path fill="none" stroke="#63b8ff" d="M765.93,-396.38C872.34,-385.55 1049.34,-366.92 1079,-360 1163.2,-340.35 1182.75,-328.57 1262,-294 1304.76,-275.35 1352.19,-250.17 1383.18,-233.08"/>
<polygon fill="#63b8ff" stroke="#63b8ff" points="1385.2,-235.96 1392.25,-228.05 1381.81,-229.84 1385.2,-235.96"/>
</a>
</g>
</g>
<!-- Node8 -->
<g id="Node000008" class="node">
<title>Node8</title>
<g id="a_Node000008"><a xlink:href="data__containers_8h.html" target="_top" xlink:title=" ">
<polygon fill="white" stroke="#666666" points="965,-156.5 837,-156.5 837,-137.5 965,-137.5 965,-156.5"/>
<text text-anchor="middle" x="901" y="-144.5" font-family="Helvetica,sans-Serif" font-size="10.00">dem/data_containers.h</text>
</a>
</g>
</g>
<!-- Node6&#45;&gt;Node8 -->
<g id="edge37_Node000006_Node000008" class="edge">
<title>Node6&#45;&gt;Node8</title>
<g id="a_edge37_Node000006_Node000008"><a xlink:title=" ">
<path fill="none" stroke="#63b8ff" d="M758.94,-395.99C821.59,-384.45 907.77,-357.36 950,-294 956.35,-284.47 961.44,-228.26 949,-198 943.3,-184.12 931.76,-171.91 921.43,-163.02"/>
<polygon fill="#63b8ff" stroke="#63b8ff" points="923.52,-160.2 913.54,-156.64 919.12,-165.65 923.52,-160.2"/>
</a>
</g>
</g>
<!-- Node37 -->
<g id="Node000037" class="node">
<title>Node37</title>
<g id="a_Node000037"><a xlink:href="find__boundary__cells__information_8h.html" target="_top" xlink:title=" ">
<polygon fill="white" stroke="#666666" points="536,-360 398,-360 398,-330 536,-330 536,-360"/>
<text text-anchor="start" x="406" y="-348" font-family="Helvetica,sans-Serif" font-size="10.00">dem/find_boundary_cells</text>
<text text-anchor="middle" x="467" y="-337" font-family="Helvetica,sans-Serif" font-size="10.00">_information.h</text>
</a>
</g>
</g>
<!-- Node6&#45;&gt;Node37 -->
<g id="edge38_Node000006_Node000037" class="edge">
<title>Node6&#45;&gt;Node37</title>
<g id="a_edge38_Node000006_Node000037"><a xlink:title=" ">
<path fill="none" stroke="#63b8ff" d="M653.3,-395.99C620.9,-387.3 569.72,-373.57 529.2,-362.69"/>
<polygon fill="#63b8ff" stroke="#63b8ff" points="529.98,-359.28 519.41,-360.06 528.16,-366.04 529.98,-359.28"/>
</a>
</g>
</g>
<!-- Node60 -->
<g id="Node000060" class="node">
<title>Node60</title>
<g id="a_Node000060"><a xlink:href="particle__particle__broad__search_8h.html" target="_top" xlink:title=" ">
<polygon fill="white" stroke="#666666" points="1190,-294 1070,-294 1070,-264 1190,-264 1190,-294"/>
<text text-anchor="start" x="1078" y="-282" font-family="Helvetica,sans-Serif" font-size="10.00">dem/particle_particle</text>
<text text-anchor="middle" x="1130" y="-271" font-family="Helvetica,sans-Serif" font-size="10.00">_broad_search.h</text>
</a>
</g>
</g>
<!-- Node6&#45;&gt;Node60 -->
<g id="edge52_Node000006_Node000060" class="edge">
<title>Node6&#45;&gt;Node60</title>
<g id="a_edge52_Node000006_Node000060"><a xlink:title=" ">
<path fill="none" stroke="#63b8ff" d="M763.5,-395.97C865.04,-384.76 1030.46,-365.81 1043,-360 1071.55,-346.78 1097.1,-320.7 1113.02,-301.91"/>
<polygon fill="#63b8ff" stroke="#63b8ff" points="1115.78,-304.06 1119.42,-294.11 1110.37,-299.61 1115.78,-304.06"/>
</a>
</g>
</g>
<!-- Node62 -->
<g id="Node000062" class="node">
<title>Node62</title>
<g id="a_Node000062"><a xlink:href="particle__wall__broad__search_8h.html" target="_top" xlink:title=" ">
<polygon fill="white" stroke="#666666" points="753.5,-360 616.5,-360 616.5,-330 753.5,-330 753.5,-360"/>
<text text-anchor="start" x="624.5" y="-348" font-family="Helvetica,sans-Serif" font-size="10.00">dem/particle_wall_broad</text>
<text text-anchor="middle" x="685" y="-337" font-family="Helvetica,sans-Serif" font-size="10.00">_search.h</text>
</a>
</g>
</g>
<!-- Node6&#45;&gt;Node62 -->
<g id="edge58_Node000006_Node000062" class="edge">
<title>Node6&#45;&gt;Node62</title>
<g id="a_edge58_Node000006_Node000062"><a xlink:title=" ">
<path fill="none" stroke="#63b8ff" d="M685,-395.87C685,-389.11 685,-379.35 685,-370.26"/>
<polygon fill="#63b8ff" stroke="#63b8ff" points="688.5,-370.11 685,-360.11 681.5,-370.11 688.5,-370.11"/>
</a>
</g>
</g>
<!-- Node7&#45;&gt;Node5 -->
<g id="edge30_Node000007_Node000005" class="edge">
<title>Node7&#45;&gt;Node5</title>
<g id="a_edge30_Node000007_Node000005"><a xlink:title=" ">
<path fill="none" stroke="#63b8ff" d="M1355.76,-200.92C1301.65,-190.57 1227.23,-174.85 1200,-162 1180.22,-152.66 1181.44,-139.77 1161,-132 949.84,-51.73 869.12,-164.94 654,-96 629.68,-88.21 627.89,-77.33 605,-66 574.46,-50.88 538.15,-37.17 511.84,-27.94"/>
<polygon fill="#63b8ff" stroke="#63b8ff" points="512.88,-24.59 502.29,-24.63 510.59,-31.21 512.88,-24.59"/>
</a>
</g>
</g>
<!-- Node7&#45;&gt;Node8 -->
<g id="edge7_Node000007_Node000008" class="edge">
<title>Node7&#45;&gt;Node8</title>
<g id="a_edge7_Node000007_Node000008"><a xlink:title=" ">
<path fill="none" stroke="#63b8ff" d="M1355.98,-202.94C1344.05,-201.24 1331.64,-199.52 1320,-198 1183.34,-180.15 1148.81,-178.62 1012,-162 1000.17,-160.56 987.65,-159.01 975.43,-157.48"/>
<polygon fill="#63b8ff" stroke="#63b8ff" points="975.62,-153.98 965.26,-156.21 974.75,-160.92 975.62,-153.98"/>
</a>
</g>
</g>
<!-- Node15 -->
<g id="Node000015" class="node">
<title>Node15</title>
<g id="a_Node000015"><a xlink:title=" ">
<polygon fill="#e0e0e0" stroke="#999999" points="1242,-24.5 1102,-24.5 1102,-5.5 1242,-5.5 1242,-24.5"/>
<text text-anchor="middle" x="1172" y="-12.5" font-family="Helvetica,sans-Serif" font-size="10.00">deal.II/dofs/dof_handler.h</text>
</a>
</g>
</g>
<!-- Node7&#45;&gt;Node15 -->
<g id="edge31_Node000007_Node000015" class="edge">
<title>Node7&#45;&gt;Node15</title>
<g id="a_edge31_Node000007_Node000015"><a xlink:title=" ">
<path fill="none" stroke="#63b8ff" d="M1478.35,-212.22C1566.8,-211.09 1723.44,-203.14 1759,-162 1767.72,-151.91 1767.47,-142.3 1759,-132 1742.25,-111.62 1382.52,-50.55 1234.64,-26.19"/>
<polygon fill="#63b8ff" stroke="#63b8ff" points="1234.8,-22.67 1224.36,-24.5 1233.66,-29.58 1234.8,-22.67"/>
</a>
</g>
</g>
<!-- Node26 -->
<g id="Node000026" class="node">
<title>Node26</title>
<g id="a_Node000026"><a xlink:title=" ">
<polygon fill="#e0e0e0" stroke="#999999" points="1320.5,-24.5 1273.5,-24.5 1273.5,-5.5 1320.5,-5.5 1320.5,-24.5"/>
<text text-anchor="middle" x="1297" y="-12.5" font-family="Helvetica,sans-Serif" font-size="10.00">vector</text>
</a>
</g>
</g>
<!-- Node7&#45;&gt;Node26 -->
<g id="edge36_Node000007_Node000026" class="edge">
<title>Node7&#45;&gt;Node26</title>
<g id="a_edge36_Node000007_Node000026"><a xlink:title=" ">
<path fill="none" stroke="#63b8ff" d="M1478.02,-208.21C1578.96,-201.3 1771.67,-185.23 1792,-162 1820.11,-129.9 1820.61,-97.65 1792,-66 1761.09,-31.81 1437.69,-19.88 1330.96,-16.85"/>
<polygon fill="#63b8ff" stroke="#63b8ff" points="1330.85,-13.35 1320.75,-16.57 1330.65,-20.35 1330.85,-13.35"/>
</a>
</g>
</g>
<!-- Node32 -->
<g id="Node000032" class="node">
<title>Node32</title>
<g id="a_Node000032"><a xlink:href="dem__action__manager_8h.html" target="_top" xlink:title=" ">
<polygon fill="white" stroke="#666666" points="1364.5,-156.5 1209.5,-156.5 1209.5,-137.5 1364.5,-137.5 1364.5,-156.5"/>
<text text-anchor="middle" x="1287" y="-144.5" font-family="Helvetica,sans-Serif" font-size="10.00">dem/dem_action_manager.h</text>
</a>
</g>
</g>
<!-- Node7&#45;&gt;Node32 -->
<g id="edge29_Node000007_Node000032" class="edge">
<title>Node7&#45;&gt;Node32</title>
<g id="a_edge29_Node000007_Node000032"><a xlink:title=" ">
<path fill="none" stroke="#63b8ff" d="M1388.47,-197.95C1366.07,-186.93 1335.14,-171.7 1313.33,-160.96"/>
<polygon fill="#63b8ff" stroke="#63b8ff" points="1314.82,-157.79 1304.3,-156.52 1311.73,-164.07 1314.82,-157.79"/>
</a>
</g>
</g>
<!-- Node33 -->
<g id="Node000033" class="node">
<title>Node33</title>
<g id="a_Node000033"><a xlink:title=" ">
<polygon fill="#e0e0e0" stroke="#999999" points="1477.5,-162 1382.5,-162 1382.5,-132 1477.5,-132 1477.5,-162"/>
<text text-anchor="start" x="1390.5" y="-150" font-family="Helvetica,sans-Serif" font-size="10.00">deal.II/lac/affine</text>
<text text-anchor="middle" x="1430" y="-139" font-family="Helvetica,sans-Serif" font-size="10.00">_constraints.h</text>
</a>
</g>
</g>
<!-- Node7&#45;&gt;Node33 -->
<g id="edge32_Node000007_Node000033" class="edge">
<title>Node7&#45;&gt;Node33</title>
<g id="a_edge32_Node000007_Node000033"><a xlink:title=" ">
<path fill="none" stroke="#63b8ff" d="M1419.89,-197.8C1421.42,-190.26 1423.34,-180.78 1425.1,-172.13"/>
<polygon fill="#63b8ff" stroke="#63b8ff" points="1428.56,-172.66 1427.12,-162.16 1421.7,-171.27 1428.56,-172.66"/>
</a>
</g>
</g>
<!-- Node34 -->
<g id="Node000034" class="node">
<title>Node34</title>
<g id="a_Node000034"><a xlink:title=" ">
<polygon fill="#e0e0e0" stroke="#999999" points="1614,-162 1496,-162 1496,-132 1614,-132 1614,-162"/>
<text text-anchor="start" x="1504" y="-150" font-family="Helvetica,sans-Serif" font-size="10.00">deal.II/lac/la_parallel</text>
<text text-anchor="middle" x="1555" y="-139" font-family="Helvetica,sans-Serif" font-size="10.00">_vector.h</text>
</a>
</g>
</g>
<!-- Node7&#45;&gt;Node34 -->
<g id="edge33_Node000007_Node000034" class="edge">
<title>Node7&#45;&gt;Node34</title>
<g id="a_edge33_Node000007_Node000034"><a xlink:title=" ">
<path fill="none" stroke="#63b8ff" d="M1447.28,-197.95C1467.33,-188.66 1493.81,-176.38 1515.51,-166.32"/>
<polygon fill="#63b8ff" stroke="#63b8ff" points="1517.19,-169.39 1524.79,-162.01 1514.24,-163.04 1517.19,-169.39"/>
</a>
</g>
</g>
<!-- Node35 -->
<g id="Node000035" class="node">
<title>Node35</title>
<g id="a_Node000035"><a xlink:title=" ">
<polygon fill="#e0e0e0" stroke="#999999" points="1750,-162 1632,-162 1632,-132 1750,-132 1750,-162"/>
<text text-anchor="start" x="1640" y="-150" font-family="Helvetica,sans-Serif" font-size="10.00">deal.II/lac/la_parallel</text>
<text text-anchor="middle" x="1691" y="-139" font-family="Helvetica,sans-Serif" font-size="10.00">_vector.templates.h</text>
</a>
</g>
</g>
<!-- Node7&#45;&gt;Node35 -->
<g id="edge34_Node000007_Node000035" class="edge">
<title>Node7&#45;&gt;Node35</title>
<g id="a_edge34_Node000007_Node000035"><a xlink:title=" ">
<path fill="none" stroke="#63b8ff" d="M1477.13,-197.95C1519.9,-187.97 1577.44,-174.53 1622.06,-164.1"/>
<polygon fill="#63b8ff" stroke="#63b8ff" points="1623.01,-167.48 1631.95,-161.79 1621.42,-160.66 1623.01,-167.48"/>
</a>
</g>
</g>
<!-- Node36 -->
<g id="Node000036" class="node">
<title>Node36</title>
<g id="a_Node000036"><a xlink:title=" ">
<polygon fill="#e0e0e0" stroke="#999999" points="1152.5,-162 1021.5,-162 1021.5,-132 1152.5,-132 1152.5,-162"/>
<text text-anchor="start" x="1029.5" y="-150" font-family="Helvetica,sans-Serif" font-size="10.00">deal.II/particles/particle</text>
<text text-anchor="middle" x="1087" y="-139" font-family="Helvetica,sans-Serif" font-size="10.00">_handler.h</text>
</a>
</g>
</g>
<!-- Node7&#45;&gt;Node36 -->
<g id="edge35_Node000007_Node000036" class="edge">
<title>Node7&#45;&gt;Node36</title>
<g id="a_edge35_Node000007_Node000036"><a xlink:title=" ">
<path fill="none" stroke="#63b8ff" d="M1355.7,-200.11C1301.17,-189.54 1221.22,-174.03 1162.71,-162.68"/>
<polygon fill="#63b8ff" stroke="#63b8ff" points="1163.26,-159.22 1152.78,-160.76 1161.93,-166.1 1163.26,-159.22"/>
</a>
</g>
</g>
<!-- Node8&#45;&gt;Node5 -->
<g id="edge23_Node000008_Node000005" class="edge">
<title>Node8&#45;&gt;Node5</title>
<g id="a_edge23_Node000008_Node000005"><a xlink:title=" ">
<path fill="none" stroke="#63b8ff" d="M836.93,-140.57C779.16,-134.29 692.56,-121.35 621,-96 573.76,-79.27 523.63,-48.24 496.45,-30.13"/>
<polygon fill="#63b8ff" stroke="#63b8ff" points="498.39,-27.22 488.14,-24.53 494.47,-33.02 498.39,-27.22"/>
</a>
</g>
</g>
<!-- Node9 -->
<g id="Node000009" class="node">
<title>Node9</title>
<g id="a_Node000009"><a xlink:href="utilities_8h.html" target="_top" xlink:title=" ">
<polygon fill="#fff0f0" stroke="red" points="749,-90.5 663,-90.5 663,-71.5 749,-71.5 749,-90.5"/>
<text text-anchor="middle" x="706" y="-78.5" font-family="Helvetica,sans-Serif" font-size="10.00">core/utilities.h</text>
</a>
</g>
</g>
<!-- Node8&#45;&gt;Node9 -->
<g id="edge8_Node000008_Node000009" class="edge">
<title>Node8&#45;&gt;Node9</title>
<g id="a_edge8_Node000008_Node000009"><a xlink:title=" ">
<path fill="none" stroke="#63b8ff" d="M874.7,-137.37C840.44,-126.12 780.39,-106.42 741.95,-93.8"/>
<polygon fill="#63b8ff" stroke="#63b8ff" points="742.79,-90.39 732.19,-90.6 740.6,-97.04 742.79,-90.39"/>
</a>
</g>
</g>
<!-- Node17 -->
<g id="Node000017" class="node">
<title>Node17</title>
<g id="a_Node000017"><a xlink:title=" ">
<polygon fill="#e0e0e0" stroke="#999999" points="1058.5,-30 927.5,-30 927.5,0 1058.5,0 1058.5,-30"/>
<text text-anchor="start" x="935.5" y="-18" font-family="Helvetica,sans-Serif" font-size="10.00">deal.II/particles/particle</text>
<text text-anchor="middle" x="993" y="-7" font-family="Helvetica,sans-Serif" font-size="10.00">_iterator.h</text>
</a>
</g>
</g>
<!-- Node8&#45;&gt;Node17 -->
<g id="edge25_Node000008_Node000017" class="edge">
<title>Node8&#45;&gt;Node17</title>
<g id="a_edge25_Node000008_Node000017"><a xlink:title=" ">
<path fill="none" stroke="#63b8ff" d="M935.01,-137.48C969.36,-128.1 1018.9,-112.2 1030,-96 1042.56,-77.66 1028.96,-54.38 1014.84,-37.67"/>
<polygon fill="#63b8ff" stroke="#63b8ff" points="1017.27,-35.14 1007.98,-30.05 1012.06,-39.82 1017.27,-35.14"/>
</a>
</g>
</g>
<!-- Node8&#45;&gt;Node26 -->
<g id="edge27_Node000008_Node000026" class="edge">
<title>Node8&#45;&gt;Node26</title>
<g id="a_edge27_Node000008_Node000026"><a xlink:title=" ">
<path fill="none" stroke="#63b8ff" d="M926.98,-137.47C996.48,-114.66 1186.56,-52.25 1263.76,-26.91"/>
<polygon fill="#63b8ff" stroke="#63b8ff" points="1265.04,-30.18 1273.45,-23.73 1262.86,-23.52 1265.04,-30.18"/>
</a>
</g>
</g>
<!-- Node27 -->
<g id="Node000027" class="node">
<title>Node27</title>
<g id="a_Node000027"><a xlink:href="boundary__cells__info__struct_8h.html" target="_top" xlink:title=" ">
<polygon fill="white" stroke="#666666" points="402.5,-96 287.5,-96 287.5,-66 402.5,-66 402.5,-96"/>
<text text-anchor="start" x="295.5" y="-84" font-family="Helvetica,sans-Serif" font-size="10.00">dem/boundary_cells</text>
<text text-anchor="middle" x="345" y="-73" font-family="Helvetica,sans-Serif" font-size="10.00">_info_struct.h</text>
</a>
</g>
</g>
<!-- Node8&#45;&gt;Node27 -->
<g id="edge15_Node000008_Node000027" class="edge">
<title>Node8&#45;&gt;Node27</title>
<g id="a_edge15_Node000008_Node000027"><a xlink:title=" ">
<path fill="none" stroke="#63b8ff" d="M836.71,-139.51C717.05,-127.43 467.94,-102.22 412.63,-95.72"/>
<polygon fill="#63b8ff" stroke="#63b8ff" points="413.04,-92.24 402.67,-94.45 412.15,-99.19 413.04,-92.24"/>
</a>
</g>
</g>
<!-- Node28 -->
<g id="Node000028" class="node">
<title>Node28</title>
<g id="a_Node000028"><a xlink:title=" ">
<polygon fill="#e0e0e0" stroke="#999999" points="102,-30 0,-30 0,0 102,0 102,-30"/>
<text text-anchor="start" x="8" y="-18" font-family="Helvetica,sans-Serif" font-size="10.00">deal.II/distributed</text>
<text text-anchor="middle" x="51" y="-7" font-family="Helvetica,sans-Serif" font-size="10.00">/tria.h</text>
</a>
</g>
</g>
<!-- Node8&#45;&gt;Node28 -->
<g id="edge24_Node000008_Node000028" class="edge">
<title>Node8&#45;&gt;Node28</title>
<g id="a_edge24_Node000008_Node000028"><a xlink:title=" ">
<path fill="none" stroke="#63b8ff" d="M836.7,-138.87C813.21,-136.44 786.43,-133.86 762,-132 685.23,-126.14 129.14,-145.29 70,-96 54.03,-82.69 50.08,-58.64 49.64,-40.38"/>
<polygon fill="#63b8ff" stroke="#63b8ff" points="53.15,-40.19 49.74,-30.16 46.15,-40.12 53.15,-40.19"/>
</a>
</g>
</g>
<!-- Node29 -->
<g id="Node000029" class="node">
<title>Node29</title>
<g id="a_Node000029"><a xlink:href="contact__info_8h.html" target="_top" xlink:title=" ">
<polygon fill="white" stroke="#666666" points="531,-90.5 421,-90.5 421,-71.5 531,-71.5 531,-90.5"/>
<text text-anchor="middle" x="476" y="-78.5" font-family="Helvetica,sans-Serif" font-size="10.00">dem/contact_info.h</text>
</a>
</g>
</g>
<!-- Node8&#45;&gt;Node29 -->
<g id="edge19_Node000008_Node000029" class="edge">
<title>Node8&#45;&gt;Node29</title>
<g id="a_edge19_Node000008_Node000029"><a xlink:title=" ">
<path fill="none" stroke="#63b8ff" d="M836.83,-138.18C765.41,-129.19 646.65,-113.43 545,-96 538.83,-94.94 532.37,-93.75 525.99,-92.51"/>
<polygon fill="#63b8ff" stroke="#63b8ff" points="526.55,-89.06 516.06,-90.56 525.19,-95.92 526.55,-89.06"/>
</a>
</g>
</g>
<!-- Node30 -->
<g id="Node000030" class="node">
<title>Node30</title>
<g id="a_Node000030"><a xlink:title=" ">
<polygon fill="#e0e0e0" stroke="#999999" points="860.5,-90.5 767.5,-90.5 767.5,-71.5 860.5,-71.5 860.5,-90.5"/>
<text text-anchor="middle" x="814" y="-78.5" font-family="Helvetica,sans-Serif" font-size="10.00">unordered_map</text>
</a>
</g>
</g>
<!-- Node8&#45;&gt;Node30 -->
<g id="edge26_Node000008_Node000030" class="edge">
<title>Node8&#45;&gt;Node30</title>
<g id="a_edge26_Node000008_Node000030"><a xlink:title=" ">
<path fill="none" stroke="#63b8ff" d="M889.27,-137.37C875.13,-126.97 851.14,-109.32 834.05,-96.75"/>
<polygon fill="#63b8ff" stroke="#63b8ff" points="835.95,-93.81 825.83,-90.7 831.81,-99.44 835.95,-93.81"/>
</a>
</g>
</g>
<!-- Node31 -->
<g id="Node000031" class="node">
<title>Node31</title>
<g id="a_Node000031"><a xlink:href="unordered__dense_8h.html" target="_top" xlink:title=" ">
<polygon fill="white" stroke="#666666" points="1021.5,-90.5 878.5,-90.5 878.5,-71.5 1021.5,-71.5 1021.5,-90.5"/>
<text text-anchor="middle" x="950" y="-78.5" font-family="Helvetica,sans-Serif" font-size="10.00">ankerl/unordered_dense.h</text>
</a>
</g>
</g>
<!-- Node8&#45;&gt;Node31 -->
<g id="edge28_Node000008_Node000031" class="edge">
<title>Node8&#45;&gt;Node31</title>
<g id="a_edge28_Node000008_Node000031"><a xlink:title=" ">
<path fill="none" stroke="#63b8ff" d="M907.61,-137.37C915.09,-127.59 927.47,-111.42 936.93,-99.08"/>
<polygon fill="#63b8ff" stroke="#63b8ff" points="939.88,-100.97 943.18,-90.91 934.32,-96.72 939.88,-100.97"/>
</a>
</g>
</g>
<!-- Node9&#45;&gt;Node4 -->
<g id="edge9_Node000009_Node000004" class="edge">
<title>Node9&#45;&gt;Node4</title>
<g id="a_edge9_Node000009_Node000004"><a xlink:title=" ">
<path fill="none" stroke="#63b8ff" d="M662.6,-73.37C604.64,-64.36 498.84,-47.38 409,-30 403.63,-28.96 398.01,-27.82 392.43,-26.65"/>
<polygon fill="#63b8ff" stroke="#63b8ff" points="393.01,-23.19 382.5,-24.52 391.55,-30.04 393.01,-23.19"/>
</a>
</g>
</g>
<!-- Node9&#45;&gt;Node5 -->
<g id="edge10_Node000009_Node000005" class="edge">
<title>Node9&#45;&gt;Node5</title>
<g id="a_edge10_Node000009_Node000005"><a xlink:title=" ">
<path fill="none" stroke="#63b8ff" d="M674.98,-71.37C634.06,-59.98 561.93,-39.91 516.68,-27.32"/>
<polygon fill="#63b8ff" stroke="#63b8ff" points="517.47,-23.91 506.89,-24.6 515.59,-30.65 517.47,-23.91"/>
</a>
</g>
</g>
<!-- Node9&#45;&gt;Node15 -->
<g id="edge11_Node000009_Node000015" class="edge">
<title>Node9&#45;&gt;Node15</title>
<g id="a_edge11_Node000009_Node000015"><a xlink:title=" ">
<path fill="none" stroke="#63b8ff" d="M734.71,-71.46C742.23,-69.45 750.38,-67.46 758,-66 893.79,-39.96 929.8,-47.14 1067,-30 1077.37,-28.7 1088.31,-27.29 1099.06,-25.88"/>
<polygon fill="#63b8ff" stroke="#63b8ff" points="1099.83,-29.31 1109.28,-24.54 1098.91,-22.37 1099.83,-29.31"/>
</a>
</g>
</g>
<!-- Node9&#45;&gt;Node17 -->
<g id="edge12_Node000009_Node000017" class="edge">
<title>Node9&#45;&gt;Node17</title>
<g id="a_edge12_Node000009_Node000017"><a xlink:title=" ">
<path fill="none" stroke="#63b8ff" d="M736.73,-71.44C743.7,-69.57 751.09,-67.66 758,-66 811.08,-53.22 871.32,-40.43 917.52,-30.99"/>
<polygon fill="#63b8ff" stroke="#63b8ff" points="918.35,-34.4 927.45,-28.97 916.95,-27.54 918.35,-34.4"/>
</a>
</g>
</g>
<!-- Node22 -->
<g id="Node000022" class="node">
<title>Node22</title>
<g id="a_Node000022"><a xlink:title=" ">
<polygon fill="#e0e0e0" stroke="#999999" points="671,-24.5 633,-24.5 633,-5.5 671,-5.5 671,-24.5"/>
<text text-anchor="middle" x="652" y="-12.5" font-family="Helvetica,sans-Serif" font-size="10.00">map</text>
</a>
</g>
</g>
<!-- Node9&#45;&gt;Node22 -->
<g id="edge13_Node000009_Node000022" class="edge">
<title>Node9&#45;&gt;Node22</title>
<g id="a_edge13_Node000009_Node000022"><a xlink:title=" ">
<path fill="none" stroke="#63b8ff" d="M698.72,-71.37C690.39,-61.5 676.56,-45.11 666.11,-32.72"/>
<polygon fill="#63b8ff" stroke="#63b8ff" points="668.64,-30.29 659.51,-24.91 663.29,-34.81 668.64,-30.29"/>
</a>
</g>
</g>
<!-- Node9&#45;&gt;Node26 -->
<g id="edge14_Node000009_Node000026" class="edge">
<title>Node9&#45;&gt;Node26</title>
<g id="a_edge14_Node000009_Node000026"><a xlink:title=" ">
<path fill="none" stroke="#63b8ff" d="M733.85,-71.46C741.6,-69.36 750.07,-67.34 758,-66 974.6,-29.28 1035.02,-70.23 1251,-30 1255.15,-29.23 1259.46,-28.21 1263.71,-27.08"/>
<polygon fill="#63b8ff" stroke="#63b8ff" points="1264.74,-30.43 1273.38,-24.29 1262.8,-23.7 1264.74,-30.43"/>
</a>
</g>
</g>
<!-- Node27&#45;&gt;Node4 -->
<g id="edge16_Node000027_Node000004" class="edge">
<title>Node27&#45;&gt;Node4</title>
<g id="a_edge16_Node000027_Node000004"><a xlink:title=" ">
<path fill="none" stroke="#63b8ff" d="M345,-65.8C345,-56.7 345,-44.79 345,-34.9"/>
<polygon fill="#63b8ff" stroke="#63b8ff" points="348.5,-34.84 345,-24.84 341.5,-34.84 348.5,-34.84"/>
</a>
</g>
</g>
<!-- Node27&#45;&gt;Node5 -->
<g id="edge17_Node000027_Node000005" class="edge">
<title>Node27&#45;&gt;Node5</title>
<g id="a_edge17_Node000027_Node000005"><a xlink:title=" ">
<path fill="none" stroke="#63b8ff" d="M373.75,-65.95C396.32,-54.93 427.49,-39.7 449.47,-28.96"/>
<polygon fill="#63b8ff" stroke="#63b8ff" points="451.12,-32.05 458.57,-24.52 448.04,-25.76 451.12,-32.05"/>
</a>
</g>
</g>
<!-- Node27&#45;&gt;Node28 -->
<g id="edge18_Node000027_Node000028" class="edge">
<title>Node27&#45;&gt;Node28</title>
<g id="a_edge18_Node000027_Node000028"><a xlink:title=" ">
<path fill="none" stroke="#63b8ff" d="M287.27,-67.43C236.78,-56.44 163.7,-40.53 112.21,-29.32"/>
<polygon fill="#63b8ff" stroke="#63b8ff" points="112.73,-25.86 102.21,-27.15 111.24,-32.7 112.73,-25.86"/>
</a>
</g>
</g>
<!-- Node29&#45;&gt;Node4 -->
<g id="edge20_Node000029_Node000004" class="edge">
<title>Node29&#45;&gt;Node4</title>
<g id="a_edge20_Node000029_Node000004"><a xlink:title=" ">
<path fill="none" stroke="#63b8ff" d="M458.33,-71.37C436.16,-60.54 397.92,-41.85 372.05,-29.22"/>
<polygon fill="#63b8ff" stroke="#63b8ff" points="373.33,-25.94 362.81,-24.7 370.25,-32.23 373.33,-25.94"/>
</a>
</g>
</g>
<!-- Node29&#45;&gt;Node5 -->
<g id="edge21_Node000029_Node000005" class="edge">
<title>Node29&#45;&gt;Node5</title>
<g id="a_edge21_Node000029_Node000005"><a xlink:title=" ">
<path fill="none" stroke="#63b8ff" d="M476,-71.37C476,-62.16 476,-47.29 476,-35.27"/>
<polygon fill="#63b8ff" stroke="#63b8ff" points="479.5,-34.91 476,-24.91 472.5,-34.91 479.5,-34.91"/>
</a>
</g>
</g>
<!-- Node29&#45;&gt;Node17 -->
<g id="edge22_Node000029_Node000017" class="edge">
<title>Node29&#45;&gt;Node17</title>
<g id="a_edge22_Node000029_Node000017"><a xlink:title=" ">
<path fill="none" stroke="#63b8ff" d="M531.33,-73.15C624.23,-61.65 811.69,-38.44 916.92,-25.42"/>
<polygon fill="#63b8ff" stroke="#63b8ff" points="917.66,-28.85 927.15,-24.15 916.8,-21.91 917.66,-28.85"/>
</a>
</g>
</g>
<!-- Node37&#45;&gt;Node8 -->
<g id="edge41_Node000037_Node000008" class="edge">
<title>Node37&#45;&gt;Node8</title>
<g id="a_edge41_Node000037_Node000008"><a xlink:title=" ">
<path fill="none" stroke="#63b8ff" d="M536.26,-335.76C613.89,-326.01 734.58,-309.19 778,-294 834.35,-274.29 862.98,-278.39 895,-228 906.7,-209.58 906.33,-183.74 904.28,-166.46"/>
<polygon fill="#63b8ff" stroke="#63b8ff" points="907.73,-165.89 902.8,-156.51 900.8,-166.92 907.73,-165.89"/>
</a>
</g>
</g>
<!-- Node37&#45;&gt;Node26 -->
<g id="edge51_Node000037_Node000026" class="edge">
<title>Node37&#45;&gt;Node26</title>
<g id="a_edge51_Node000037_Node000026"><a xlink:title=" ">
<path fill="none" stroke="#63b8ff" d="M536.02,-336.56C558.63,-334.27 583.87,-331.86 607,-330 745.71,-318.85 1854,-353.15 1854,-214 1854,-214 1854,-214 1854,-146 1854,-106.44 1847.5,-88.55 1815,-66 1775.27,-38.42 1439.62,-22 1330.86,-17.36"/>
<polygon fill="#63b8ff" stroke="#63b8ff" points="1330.91,-13.86 1320.77,-16.94 1330.62,-20.86 1330.91,-13.86"/>
</a>
</g>
</g>
<!-- Node37&#45;&gt;Node27 -->
<g id="edge39_Node000037_Node000027" class="edge">
<title>Node37&#45;&gt;Node27</title>
<g id="a_edge39_Node000037_Node000027"><a xlink:title=" ">
<path fill="none" stroke="#63b8ff" d="M397.93,-339.86C366.06,-334.07 330.95,-321.34 311,-294 269.01,-236.45 308.66,-146.68 331.46,-104.86"/>
<polygon fill="#63b8ff" stroke="#63b8ff" points="334.59,-106.44 336.44,-96 328.49,-103.01 334.59,-106.44"/>
</a>
</g>
</g>
<!-- Node37&#45;&gt;Node28 -->
<g id="edge49_Node000037_Node000028" class="edge">
<title>Node37&#45;&gt;Node28</title>
<g id="a_edge49_Node000037_Node000028"><a xlink:title=" ">
<path fill="none" stroke="#63b8ff" d="M397.65,-330.64C365.03,-322.7 326.3,-310.84 294,-294 169.85,-229.28 109.33,-222.33 49,-96 40.7,-78.62 41.98,-56.6 44.89,-40.07"/>
<polygon fill="#63b8ff" stroke="#63b8ff" points="48.35,-40.6 46.96,-30.1 41.5,-39.18 48.35,-40.6"/>
</a>
</g>
</g>
<!-- Node37&#45;&gt;Node29 -->
<g id="edge40_Node000037_Node000029" class="edge">
<title>Node37&#45;&gt;Node29</title>
<g id="a_edge40_Node000037_Node000029"><a xlink:title=" ">
<path fill="none" stroke="#63b8ff" d="M397.93,-338.18C368.62,-331.89 337.11,-319.23 319,-294 311.23,-283.17 314.35,-276.5 319,-264 346.75,-189.36 420.36,-124.87 456.05,-96.87"/>
<polygon fill="#63b8ff" stroke="#63b8ff" points="458.47,-99.43 464.25,-90.55 454.2,-93.88 458.47,-99.43"/>
</a>
</g>
</g>
<!-- Node38 -->
<g id="Node000038" class="node">
<title>Node38</title>
<g id="a_Node000038"><a xlink:href="dem__solver__parameters_8h.html" target="_top" xlink:title=" ">
<polygon fill="white" stroke="#666666" points="769.5,-288.5 600.5,-288.5 600.5,-269.5 769.5,-269.5 769.5,-288.5"/>
<text text-anchor="middle" x="685" y="-276.5" font-family="Helvetica,sans-Serif" font-size="10.00">dem/dem_solver_parameters.h</text>
</a>
</g>
</g>
<!-- Node37&#45;&gt;Node38 -->
<g id="edge42_Node000037_Node000038" class="edge">
<title>Node37&#45;&gt;Node38</title>
<g id="a_edge42_Node000037_Node000038"><a xlink:title=" ">
<path fill="none" stroke="#63b8ff" d="M514.84,-329.95C554.25,-318.38 609.43,-302.18 646.15,-291.41"/>
<polygon fill="#63b8ff" stroke="#63b8ff" points="647.38,-294.69 655.99,-288.52 645.41,-287.98 647.38,-294.69"/>
</a>
</g>
</g>
<!-- Node59 -->
<g id="Node000059" class="node">
<title>Node59</title>
<g id="a_Node000059"><a xlink:title=" ">
<polygon fill="#e0e0e0" stroke="#999999" points="456,-288.5 328,-288.5 328,-269.5 456,-269.5 456,-288.5"/>
<text text-anchor="middle" x="392" y="-276.5" font-family="Helvetica,sans-Serif" font-size="10.00">deal.II/grid/grid_tools.h</text>
</a>
</g>
</g>
<!-- Node37&#45;&gt;Node59 -->
<g id="edge50_Node000037_Node000059" class="edge">
<title>Node37&#45;&gt;Node59</title>
<g id="a_edge50_Node000037_Node000059"><a xlink:title=" ">
<path fill="none" stroke="#63b8ff" d="M450.36,-329.8C438.43,-319.62 422.39,-305.93 410.14,-295.48"/>
<polygon fill="#63b8ff" stroke="#63b8ff" points="412.24,-292.67 402.36,-288.84 407.7,-298 412.24,-292.67"/>
</a>
</g>
</g>
<!-- Node39 -->
<g id="Node000039" class="node">
<title>Node39</title>
<g id="a_Node000039"><a xlink:href="parameters_8h.html" target="_top" xlink:title=" ">
<polygon fill="#fff0f0" stroke="red" points="753,-156.5 647,-156.5 647,-137.5 753,-137.5 753,-156.5"/>
<text text-anchor="middle" x="700" y="-144.5" font-family="Helvetica,sans-Serif" font-size="10.00">core/parameters.h</text>
</a>
</g>
</g>
<!-- Node38&#45;&gt;Node39 -->
<g id="edge43_Node000038_Node000039" class="edge">
<title>Node38&#45;&gt;Node39</title>
<g id="a_edge43_Node000038_Node000039"><a xlink:title=" ">
<path fill="none" stroke="#63b8ff" d="M685.98,-269.47C688.37,-248.82 694.49,-195.72 697.8,-167.04"/>
<polygon fill="#63b8ff" stroke="#63b8ff" points="701.32,-167.07 698.99,-156.73 694.37,-166.26 701.32,-167.07"/>
</a>
</g>
</g>
<!-- Node57 -->
<g id="Node000057" class="node">
<title>Node57</title>
<g id="a_Node000057"><a xlink:href="parameters__lagrangian_8h.html" target="_top" xlink:title="Parameter structures for Lagrangian (DEM) particle simulations.">
<polygon fill="#fff0f0" stroke="red" points="886.5,-222.5 723.5,-222.5 723.5,-203.5 886.5,-203.5 886.5,-222.5"/>
<text text-anchor="middle" x="805" y="-210.5" font-family="Helvetica,sans-Serif" font-size="10.00">core/parameters_lagrangian.h</text>
</a>
</g>
</g>
<!-- Node38&#45;&gt;Node57 -->
<g id="edge45_Node000038_Node000057" class="edge">
<title>Node38&#45;&gt;Node57</title>
<g id="a_edge45_Node000038_Node000057"><a xlink:title=" ">
<path fill="none" stroke="#63b8ff" d="M701.18,-269.37C721.31,-258.63 755.91,-240.18 779.59,-227.55"/>
<polygon fill="#63b8ff" stroke="#63b8ff" points="781.51,-230.49 788.69,-222.7 778.22,-224.32 781.51,-230.49"/>
</a>
</g>
</g>
<!-- Node58 -->
<g id="Node000058" class="node">
<title>Node58</title>
<g id="a_Node000058"><a xlink:href="solid__objects__parameters_8h.html" target="_top" xlink:title="Parameter classes for solid objects used in Nitsche immersed boundary and DEM simulations.">
<polygon fill="#fff0f0" stroke="red" points="667,-228 563,-228 563,-198 667,-198 667,-228"/>
<text text-anchor="start" x="571" y="-216" font-family="Helvetica,sans-Serif" font-size="10.00">core/solid_objects</text>
<text text-anchor="middle" x="615" y="-205" font-family="Helvetica,sans-Serif" font-size="10.00">_parameters.h</text>
</a>
</g>
</g>
<!-- Node38&#45;&gt;Node58 -->
<g id="edge47_Node000038_Node000058" class="edge">
<title>Node38&#45;&gt;Node58</title>
<g id="a_edge47_Node000038_Node000058"><a xlink:title=" ">
<path fill="none" stroke="#63b8ff" d="M675.56,-269.37C665.98,-260.61 650.78,-246.71 638.01,-235.04"/>
<polygon fill="#63b8ff" stroke="#63b8ff" points="640.18,-232.28 630.44,-228.12 635.46,-237.45 640.18,-232.28"/>
</a>
</g>
</g>
<!-- Node39&#45;&gt;Node9 -->
<g id="edge44_Node000039_Node000009" class="edge">
<title>Node39&#45;&gt;Node9</title>
<g id="a_edge44_Node000039_Node000009"><a xlink:title=" ">
<path fill="none" stroke="#63b8ff" d="M700.81,-137.37C701.68,-128.07 703.1,-112.98 704.23,-100.9"/>
<polygon fill="#63b8ff" stroke="#63b8ff" points="707.72,-101.19 705.17,-90.91 700.75,-100.53 707.72,-101.19"/>
</a>
</g>
</g>
<!-- Node57&#45;&gt;Node39 -->
<g id="edge46_Node000057_Node000039" class="edge">
<title>Node57&#45;&gt;Node39</title>
<g id="a_edge46_Node000057_Node000039"><a xlink:title=" ">
<path fill="none" stroke="#63b8ff" d="M790.84,-203.37C773.46,-192.78 743.76,-174.67 723.07,-162.06"/>
<polygon fill="#63b8ff" stroke="#63b8ff" points="724.63,-158.92 714.27,-156.7 720.99,-164.89 724.63,-158.92"/>
</a>
</g>
</g>
<!-- Node58&#45;&gt;Node39 -->
<g id="edge48_Node000058_Node000039" class="edge">
<title>Node58&#45;&gt;Node39</title>
<g id="a_edge48_Node000058_Node000039"><a xlink:title=" ">
<path fill="none" stroke="#63b8ff" d="M633.86,-197.8C647.64,-187.43 666.26,-173.4 680.24,-162.88"/>
<polygon fill="#63b8ff" stroke="#63b8ff" points="682.37,-165.66 688.25,-156.84 678.16,-160.06 682.37,-165.66"/>
</a>
</g>
</g>
<!-- Node60&#45;&gt;Node7 -->
<g id="edge53_Node000060_Node000007" class="edge">
<title>Node60&#45;&gt;Node7</title>
<g id="a_edge53_Node000060_Node000007"><a xlink:title=" ">
<path fill="none" stroke="#63b8ff" d="M1190.16,-264.58C1235.59,-254.45 1298.06,-240.52 1345.94,-229.85"/>
<polygon fill="#63b8ff" stroke="#63b8ff" points="1346.93,-233.21 1355.93,-227.62 1345.4,-226.38 1346.93,-233.21"/>
</a>
</g>
</g>
<!-- Node60&#45;&gt;Node8 -->
<g id="edge54_Node000060_Node000008" class="edge">
<title>Node60&#45;&gt;Node8</title>
<g id="a_edge54_Node000060_Node000008"><a xlink:title=" ">
<path fill="none" stroke="#63b8ff" d="M1108.36,-263.95C1075.4,-242.58 1015.35,-203.77 1005,-198 980.23,-184.19 951.05,-170.36 929.91,-160.76"/>
<polygon fill="#63b8ff" stroke="#63b8ff" points="931.08,-157.44 920.52,-156.53 928.2,-163.83 931.08,-157.44"/>
</a>
</g>
</g>
<!-- Node60&#45;&gt;Node17 -->
<g id="edge57_Node000060_Node000017" class="edge">
<title>Node60&#45;&gt;Node17</title>
<g id="a_edge57_Node000060_Node000017"><a xlink:title=" ">
<path fill="none" stroke="#63b8ff" d="M1114.02,-263.58C1083.05,-235.46 1017.41,-174.92 1012,-162 1006.84,-149.7 1006.98,-144.35 1012,-132 1020.39,-111.32 1038.61,-116.68 1047,-96 1052.02,-83.65 1052.34,-78.22 1047,-66 1041.96,-54.48 1032.82,-44.42 1023.46,-36.41"/>
<polygon fill="#63b8ff" stroke="#63b8ff" points="1025.65,-33.67 1015.65,-30.17 1021.28,-39.15 1025.65,-33.67"/>
</a>
</g>
</g>
<!-- Node60&#45;&gt;Node36 -->
<g id="edge56_Node000060_Node000036" class="edge">
<title>Node60&#45;&gt;Node36</title>
<g id="a_edge56_Node000060_Node000036"><a xlink:title=" ">
<path fill="none" stroke="#63b8ff" d="M1129.88,-263.97C1129.33,-247.65 1127.14,-220.1 1119,-198 1115.49,-188.48 1109.96,-178.9 1104.46,-170.7"/>
<polygon fill="#63b8ff" stroke="#63b8ff" points="1107.25,-168.57 1098.62,-162.41 1101.53,-172.6 1107.25,-168.57"/>
</a>
</g>
</g>
<!-- Node61 -->
<g id="Node000061" class="node">
<title>Node61</title>
<g id="a_Node000061"><a xlink:title=" ">
<polygon fill="#e0e0e0" stroke="#999999" points="1311,-222.5 1171,-222.5 1171,-203.5 1311,-203.5 1311,-222.5"/>
<text text-anchor="middle" x="1241" y="-210.5" font-family="Helvetica,sans-Serif" font-size="10.00">deal.II/particles/particle.h</text>
</a>
</g>
</g>
<!-- Node60&#45;&gt;Node61 -->
<g id="edge55_Node000060_Node000061" class="edge">
<title>Node60&#45;&gt;Node61</title>
<g id="a_edge55_Node000060_Node000061"><a xlink:title=" ">
<path fill="none" stroke="#63b8ff" d="M1154.36,-263.95C1173.14,-253.13 1198.95,-238.24 1217.51,-227.54"/>
<polygon fill="#63b8ff" stroke="#63b8ff" points="1219.31,-230.54 1226.23,-222.52 1215.82,-224.48 1219.31,-230.54"/>
</a>
</g>
</g>
<!-- Node62&#45;&gt;Node7 -->
<g id="edge59_Node000062_Node000007" class="edge">
<title>Node62&#45;&gt;Node7</title>
<g id="a_edge59_Node000062_Node000007"><a xlink:title=" ">
<path fill="none" stroke="#63b8ff" d="M753.65,-342.85C853.05,-339.95 1042.32,-329.75 1199,-294 1263.13,-279.37 1334.07,-250.89 1377.08,-232.16"/>
<polygon fill="#63b8ff" stroke="#63b8ff" points="1378.6,-235.31 1386.35,-228.09 1375.79,-228.91 1378.6,-235.31"/>
</a>
</g>
</g>
<!-- Node62&#45;&gt;Node8 -->
<g id="edge62_Node000062_Node000008" class="edge">
<title>Node62&#45;&gt;Node8</title>
<g id="a_edge62_Node000062_Node000008"><a xlink:title=" ">
<path fill="none" stroke="#63b8ff" d="M753.58,-339.43C817.85,-333.55 907.2,-320.72 929,-294 959.64,-256.45 930.27,-195.44 912.43,-165.58"/>
<polygon fill="#63b8ff" stroke="#63b8ff" points="915.18,-163.38 906.93,-156.73 909.24,-167.07 915.18,-163.38"/>
</a>
</g>
</g>
<!-- Node62&#45;&gt;Node22 -->
<g id="edge65_Node000062_Node000022" class="edge">
<title>Node62&#45;&gt;Node22</title>
<g id="a_edge65_Node000062_Node000022"><a xlink:title=" ">
<path fill="none" stroke="#63b8ff" d="M647.49,-330C628.86,-321.67 606.99,-309.64 591,-294 566.96,-270.49 562.5,-260.54 554,-228 533.79,-150.64 602.86,-66.67 635.66,-32.18"/>
<polygon fill="#63b8ff" stroke="#63b8ff" points="638.32,-34.47 642.79,-24.86 633.3,-29.58 638.32,-34.47"/>
</a>
</g>
</g>
<!-- Node62&#45;&gt;Node27 -->
<g id="edge60_Node000062_Node000027" class="edge">
<title>Node62&#45;&gt;Node27</title>
<g id="a_edge60_Node000062_Node000027"><a xlink:title=" ">
<path fill="none" stroke="#63b8ff" d="M616.46,-332.66C585.17,-325.21 548.78,-313.16 520,-294 443.37,-242.97 382.86,-148.46 357.68,-104.98"/>
<polygon fill="#63b8ff" stroke="#63b8ff" points="360.58,-102.99 352.59,-96.03 354.5,-106.46 360.58,-102.99"/>
</a>
</g>
</g>
<!-- Node62&#45;&gt;Node29 -->
<g id="edge61_Node000062_Node000029" class="edge">
<title>Node62&#45;&gt;Node29</title>
<g id="a_edge61_Node000062_Node000029"><a xlink:title=" ">
<path fill="none" stroke="#63b8ff" d="M616.3,-331.83C591.52,-324.46 565.02,-312.7 546,-294 491.05,-239.96 479.23,-141.97 476.69,-100.91"/>
<polygon fill="#63b8ff" stroke="#63b8ff" points="480.18,-100.52 476.19,-90.71 473.19,-100.87 480.18,-100.52"/>
</a>
</g>
</g>
<!-- Node62&#45;&gt;Node36 -->
<g id="edge64_Node000062_Node000036" class="edge">
<title>Node62&#45;&gt;Node36</title>
<g id="a_edge64_Node000062_Node000036"><a xlink:title=" ">
<path fill="none" stroke="#63b8ff" d="M753.7,-342.65C809.64,-338.91 889.05,-327.44 950,-294 1004.87,-263.89 1050.33,-203.9 1072.47,-170.97"/>
<polygon fill="#63b8ff" stroke="#63b8ff" points="1075.51,-172.72 1078.09,-162.44 1069.67,-168.87 1075.51,-172.72"/>
</a>
</g>
</g>
<!-- Node62&#45;&gt;Node38 -->
<g id="edge63_Node000062_Node000038" class="edge">
<title>Node62&#45;&gt;Node38</title>
<g id="a_edge63_Node000062_Node000038"><a xlink:title=" ">
<path fill="none" stroke="#63b8ff" d="M685,-329.8C685,-320.7 685,-308.79 685,-298.9"/>
<polygon fill="#63b8ff" stroke="#63b8ff" points="688.5,-298.84 685,-288.84 681.5,-298.84 688.5,-298.84"/>
</a>
</g>
</g>
</g>
</svg>
