<?xml version="1.0" encoding="UTF-8" standalone="no"?>
<!DOCTYPE svg PUBLIC "-//W3C//DTD SVG 1.1//EN"
 "http://www.w3.org/Graphics/SVG/1.1/DTD/svg11.dtd">
<!-- Generated by graphviz version 2.43.0 (0)
 -->
<!-- Title: /home/runner/work/lethe/lethe/source/dem/log_collision_data.cc Pages: 1 -->
<svg width="1917pt" height="555pt"
 viewBox="0.00 0.00 1916.69 555.00" xmlns="http://www.w3.org/2000/svg" xmlns:xlink="http://www.w3.org/1999/xlink">
<g id="graph0" class="graph" transform="scale(1 1) rotate(0) translate(4 551)">
<title>/home/runner/work/lethe/lethe/source/dem/log_collision_data.cc</title>
<!-- Node1 -->
<g id="Node000001" class="node">
<title>Node1</title>
<g id="a_Node000001"><a xlink:title=" ">
<polygon fill="#999999" stroke="#666666" points="405.19,-547 268.19,-547 268.19,-506 405.19,-506 405.19,-547"/>
<text text-anchor="start" x="276.19" y="-535" font-family="Helvetica,sans-Serif" font-size="10.00">/home/runner/work/lethe</text>
<text text-anchor="start" x="276.19" y="-524" font-family="Helvetica,sans-Serif" font-size="10.00">/lethe/source/dem/log</text>
<text text-anchor="middle" x="336.69" y="-513" font-family="Helvetica,sans-Serif" font-size="10.00">_collision_data.cc</text>
</a>
</g>
</g>
<!-- Node2 -->
<g id="Node000002" class="node">
<title>Node2</title>
<g id="a_Node000002"><a xlink:href="log__collision__data_8h.html" target="_top" xlink:title=" ">
<polygon fill="white" stroke="#666666" points="336.69,-470 198.69,-470 198.69,-451 336.69,-451 336.69,-470"/>
<text text-anchor="middle" x="267.69" y="-458" font-family="Helvetica,sans-Serif" font-size="10.00">dem/log_collision_data.h</text>
</a>
</g>
</g>
<!-- Node1&#45;&gt;Node2 -->
<g id="edge1_Node000001_Node000002" class="edge">
<title>Node1&#45;&gt;Node2</title>
<g id="a_edge1_Node000001_Node000002"><a xlink:title=" ">
<path fill="none" stroke="#63b8ff" d="M315.61,-505.95C305.68,-496.74 293.99,-485.9 284.65,-477.23"/>
<polygon fill="#63b8ff" stroke="#63b8ff" points="286.85,-474.49 277.14,-470.26 282.09,-479.63 286.85,-474.49"/>
</a>
</g>
</g>
<!-- Node64 -->
<g id="Node000064" class="node">
<title>Node64</title>
<g id="a_Node000064"><a xlink:title=" ">
<polygon fill="#e0e0e0" stroke="#999999" points="458.69,-470 354.69,-470 354.69,-451 458.69,-451 458.69,-470"/>
<text text-anchor="middle" x="406.69" y="-458" font-family="Helvetica,sans-Serif" font-size="10.00">deal.II/base/mpi.h</text>
</a>
</g>
</g>
<!-- Node1&#45;&gt;Node64 -->
<g id="edge69_Node000001_Node000064" class="edge">
<title>Node1&#45;&gt;Node64</title>
<g id="a_edge69_Node000001_Node000064"><a xlink:title=" ">
<path fill="none" stroke="#63b8ff" d="M358.07,-505.95C368.15,-496.74 380.01,-485.9 389.49,-477.23"/>
<polygon fill="#63b8ff" stroke="#63b8ff" points="392.09,-479.59 397.11,-470.26 387.37,-474.43 392.09,-479.59"/>
</a>
</g>
</g>
<!-- Node3 -->
<g id="Node000003" class="node">
<title>Node3</title>
<g id="a_Node000003"><a xlink:href="tensors__and__points__dimension__manipulation_8h.html" target="_top" xlink:title=" ">
<polygon fill="white" stroke="#666666" points="169.69,-96 17.69,-96 17.69,-66 169.69,-66 169.69,-96"/>
<text text-anchor="start" x="25.69" y="-84" font-family="Helvetica,sans-Serif" font-size="10.00">core/tensors_and_points</text>
<text text-anchor="middle" x="93.69" y="-73" font-family="Helvetica,sans-Serif" font-size="10.00">_dimension_manipulation.h</text>
</a>
</g>
</g>
<!-- Node2&#45;&gt;Node3 -->
<g id="edge2_Node000002_Node000003" class="edge">
<title>Node2&#45;&gt;Node3</title>
<g id="a_edge2_Node000002_Node000003"><a xlink:title=" ">
<path fill="none" stroke="#63b8ff" d="M198.46,-458.11C160.93,-453.87 116.14,-442.68 85.69,-415 61.67,-393.16 61.69,-378.47 61.69,-346 61.69,-346 61.69,-346 61.69,-212 61.69,-174 74.74,-131.52 84.17,-105.78"/>
<polygon fill="#63b8ff" stroke="#63b8ff" points="87.55,-106.74 87.82,-96.15 81.01,-104.26 87.55,-106.74"/>
</a>
</g>
</g>
<!-- Node5 -->
<g id="Node000005" class="node">
<title>Node5</title>
<g id="a_Node000005"><a xlink:title=" ">
<polygon fill="#e0e0e0" stroke="#999999" points="431.19,-24.5 316.19,-24.5 316.19,-5.5 431.19,-5.5 431.19,-24.5"/>
<text text-anchor="middle" x="373.69" y="-12.5" font-family="Helvetica,sans-Serif" font-size="10.00">deal.II/base/tensor.h</text>
</a>
</g>
</g>
<!-- Node2&#45;&gt;Node5 -->
<g id="edge67_Node000002_Node000005" class="edge">
<title>Node2&#45;&gt;Node5</title>
<g id="a_edge67_Node000002_Node000005"><a xlink:title=" ">
<path fill="none" stroke="#63b8ff" d="M227.45,-450.99C177.75,-437.84 99.69,-407.42 99.69,-346 99.69,-346 99.69,-346 99.69,-212 99.69,-170.54 117.42,-160.33 147.69,-132 203.76,-79.53 288.1,-44.77 336.32,-27.91"/>
<polygon fill="#63b8ff" stroke="#63b8ff" points="337.72,-31.13 346.04,-24.58 335.45,-24.51 337.72,-31.13"/>
</a>
</g>
</g>
<!-- Node6 -->
<g id="Node000006" class="node">
<title>Node6</title>
<g id="a_Node000006"><a xlink:href="dem__contact__manager_8h.html" target="_top" xlink:title=" ">
<polygon fill="white" stroke="#666666" points="605.19,-415 444.19,-415 444.19,-396 605.19,-396 605.19,-415"/>
<text text-anchor="middle" x="524.69" y="-403" font-family="Helvetica,sans-Serif" font-size="10.00">dem/dem_contact_manager.h</text>
</a>
</g>
</g>
<!-- Node2&#45;&gt;Node6 -->
<g id="edge5_Node000002_Node000006" class="edge">
<title>Node2&#45;&gt;Node6</title>
<g id="a_edge5_Node000002_Node000006"><a xlink:title=" ">
<path fill="none" stroke="#63b8ff" d="M308.98,-450.98C353.62,-441.78 424.85,-427.09 473.14,-417.13"/>
<polygon fill="#63b8ff" stroke="#63b8ff" points="473.99,-420.53 483.08,-415.08 472.58,-413.67 473.99,-420.53"/>
</a>
</g>
</g>
<!-- Node63 -->
<g id="Node000063" class="node">
<title>Node63</title>
<g id="a_Node000063"><a xlink:title=" ">
<polygon fill="#e0e0e0" stroke="#999999" points="735.69,-415 623.69,-415 623.69,-396 735.69,-396 735.69,-415"/>
<text text-anchor="middle" x="679.69" y="-403" font-family="Helvetica,sans-Serif" font-size="10.00">deal.II/base/types.h</text>
</a>
</g>
</g>
<!-- Node2&#45;&gt;Node63 -->
<g id="edge68_Node000002_Node000063" class="edge">
<title>Node2&#45;&gt;Node63</title>
<g id="a_edge68_Node000002_Node000063"><a xlink:title=" ">
<path fill="none" stroke="#63b8ff" d="M334.02,-450.97C401.5,-442.3 509.38,-428.42 613.46,-415.03"/>
<polygon fill="#63b8ff" stroke="#63b8ff" points="614.05,-418.48 623.52,-413.73 613.16,-411.54 614.05,-418.48"/>
</a>
</g>
</g>
<!-- Node4 -->
<g id="Node000004" class="node">
<title>Node4</title>
<g id="a_Node000004"><a xlink:title=" ">
<polygon fill="#e0e0e0" stroke="#999999" points="223.69,-24.5 113.69,-24.5 113.69,-5.5 223.69,-5.5 223.69,-24.5"/>
<text text-anchor="middle" x="168.69" y="-12.5" font-family="Helvetica,sans-Serif" font-size="10.00">deal.II/base/point.h</text>
</a>
</g>
</g>
<!-- Node3&#45;&gt;Node4 -->
<g id="edge3_Node000003_Node000004" class="edge">
<title>Node3&#45;&gt;Node4</title>
<g id="a_edge3_Node000003_Node000004"><a xlink:title=" ">
<path fill="none" stroke="#63b8ff" d="M110.34,-65.8C122.26,-55.62 138.3,-41.93 150.55,-31.48"/>
<polygon fill="#63b8ff" stroke="#63b8ff" points="152.99,-34 158.33,-24.84 148.45,-28.67 152.99,-34"/>
</a>
</g>
</g>
<!-- Node3&#45;&gt;Node5 -->
<g id="edge4_Node000003_Node000005" class="edge">
<title>Node3&#45;&gt;Node5</title>
<g id="a_edge4_Node000003_Node000005"><a xlink:title=" ">
<path fill="none" stroke="#63b8ff" d="M155.14,-65.95C206.73,-54.16 279.37,-37.56 326.49,-26.79"/>
<polygon fill="#63b8ff" stroke="#63b8ff" points="327.46,-30.16 336.43,-24.52 325.9,-23.33 327.46,-30.16"/>
</a>
</g>
</g>
<!-- Node7 -->
<g id="Node000007" class="node">
<title>Node7</title>
<g id="a_Node000007"><a xlink:href="adaptive__sparse__contacts_8h.html" target="_top" xlink:title=" ">
<polygon fill="white" stroke="#666666" points="1413.69,-294 1291.69,-294 1291.69,-264 1413.69,-264 1413.69,-294"/>
<text text-anchor="start" x="1299.69" y="-282" font-family="Helvetica,sans-Serif" font-size="10.00">dem/adaptive_sparse</text>
<text text-anchor="middle" x="1352.69" y="-271" font-family="Helvetica,sans-Serif" font-size="10.00">_contacts.h</text>
</a>
</g>
</g>
<!-- Node6&#45;&gt;Node7 -->
<g id="edge6_Node000006_Node000007" class="edge">
<title>Node6&#45;&gt;Node7</title>
<g id="a_edge6_Node000006_Node000007"><a xlink:title=" ">
<path fill="none" stroke="#63b8ff" d="M605.63,-396.72C608.69,-396.47 611.72,-396.23 614.69,-396 751.42,-385.55 1100.5,-403.05 1230.69,-360 1268.6,-347.46 1306.08,-320.03 1329.29,-300.8"/>
<polygon fill="#63b8ff" stroke="#63b8ff" points="1331.8,-303.26 1337.17,-294.13 1327.27,-297.92 1331.8,-303.26"/>
</a>
</g>
</g>
<!-- Node8 -->
<g id="Node000008" class="node">
<title>Node8</title>
<g id="a_Node000008"><a xlink:href="data__containers_8h.html" target="_top" xlink:title=" ">
<polygon fill="white" stroke="#666666" points="667.69,-222.5 539.69,-222.5 539.69,-203.5 667.69,-203.5 667.69,-222.5"/>
<text text-anchor="middle" x="603.69" y="-210.5" font-family="Helvetica,sans-Serif" font-size="10.00">dem/data_containers.h</text>
</a>
</g>
</g>
<!-- Node6&#45;&gt;Node8 -->
<g id="edge37_Node000006_Node000008" class="edge">
<title>Node6&#45;&gt;Node8</title>
<g id="a_edge37_Node000006_Node000008"><a xlink:title=" ">
<path fill="none" stroke="#63b8ff" d="M528.29,-395.82C540.37,-366.69 579.64,-272 596.21,-232.04"/>
<polygon fill="#63b8ff" stroke="#63b8ff" points="599.47,-233.31 600.07,-222.73 593.01,-230.63 599.47,-233.31"/>
</a>
</g>
</g>
<!-- Node30 -->
<g id="Node000030" class="node">
<title>Node30</title>
<g id="a_Node000030"><a xlink:title=" ">
<polygon fill="#e0e0e0" stroke="#999999" points="259.19,-156.5 166.19,-156.5 166.19,-137.5 259.19,-137.5 259.19,-156.5"/>
<text text-anchor="middle" x="212.69" y="-144.5" font-family="Helvetica,sans-Serif" font-size="10.00">unordered_map</text>
</a>
</g>
</g>
<!-- Node6&#45;&gt;Node30 -->
<g id="edge66_Node000006_Node000030" class="edge">
<title>Node6&#45;&gt;Node30</title>
<g id="a_edge66_Node000006_Node000030"><a xlink:title=" ">
<path fill="none" stroke="#63b8ff" d="M475.56,-395.99C389.17,-379.91 215.84,-342.32 180.69,-294 152.03,-254.6 182.63,-194.45 200.98,-165.19"/>
<polygon fill="#63b8ff" stroke="#63b8ff" points="204.1,-166.81 206.63,-156.52 198.23,-162.99 204.1,-166.81"/>
</a>
</g>
</g>
<!-- Node37 -->
<g id="Node000037" class="node">
<title>Node37</title>
<g id="a_Node000037"><a xlink:href="find__boundary__cells__information_8h.html" target="_top" xlink:title=" ">
<polygon fill="white" stroke="#666666" points="531.69,-360 393.69,-360 393.69,-330 531.69,-330 531.69,-360"/>
<text text-anchor="start" x="401.69" y="-348" font-family="Helvetica,sans-Serif" font-size="10.00">dem/find_boundary_cells</text>
<text text-anchor="middle" x="462.69" y="-337" font-family="Helvetica,sans-Serif" font-size="10.00">_information.h</text>
</a>
</g>
</g>
<!-- Node6&#45;&gt;Node37 -->
<g id="edge38_Node000006_Node000037" class="edge">
<title>Node6&#45;&gt;Node37</title>
<g id="a_edge38_Node000006_Node000037"><a xlink:title=" ">
<path fill="none" stroke="#63b8ff" d="M515.54,-395.87C507.52,-388.3 495.52,-376.98 484.99,-367.04"/>
<polygon fill="#63b8ff" stroke="#63b8ff" points="487.33,-364.43 477.65,-360.11 482.52,-369.52 487.33,-364.43"/>
</a>
</g>
</g>
<!-- Node60 -->
<g id="Node000060" class="node">
<title>Node60</title>
<g id="a_Node000060"><a xlink:href="particle__particle__broad__search_8h.html" target="_top" xlink:title=" ">
<polygon fill="white" stroke="#666666" points="1221.69,-360 1101.69,-360 1101.69,-330 1221.69,-330 1221.69,-360"/>
<text text-anchor="start" x="1109.69" y="-348" font-family="Helvetica,sans-Serif" font-size="10.00">dem/particle_particle</text>
<text text-anchor="middle" x="1161.69" y="-337" font-family="Helvetica,sans-Serif" font-size="10.00">_broad_search.h</text>
</a>
</g>
</g>
<!-- Node6&#45;&gt;Node60 -->
<g id="edge52_Node000006_Node000060" class="edge">
<title>Node6&#45;&gt;Node60</title>
<g id="a_edge52_Node000006_Node000060"><a xlink:title=" ">
<path fill="none" stroke="#63b8ff" d="M605.64,-396.84C608.7,-396.56 611.72,-396.28 614.69,-396 785.84,-380.1 987.15,-361.8 1091.31,-352.37"/>
<polygon fill="#63b8ff" stroke="#63b8ff" points="1091.74,-355.84 1101.38,-351.45 1091.11,-348.87 1091.74,-355.84"/>
</a>
</g>
</g>
<!-- Node62 -->
<g id="Node000062" class="node">
<title>Node62</title>
<g id="a_Node000062"><a xlink:href="particle__wall__broad__search_8h.html" target="_top" xlink:title=" ">
<polygon fill="white" stroke="#666666" points="753.19,-360 616.19,-360 616.19,-330 753.19,-330 753.19,-360"/>
<text text-anchor="start" x="624.19" y="-348" font-family="Helvetica,sans-Serif" font-size="10.00">dem/particle_wall_broad</text>
<text text-anchor="middle" x="684.69" y="-337" font-family="Helvetica,sans-Serif" font-size="10.00">_search.h</text>
</a>
</g>
</g>
<!-- Node6&#45;&gt;Node62 -->
<g id="edge58_Node000006_Node000062" class="edge">
<title>Node6&#45;&gt;Node62</title>
<g id="a_edge58_Node000006_Node000062"><a xlink:title=" ">
<path fill="none" stroke="#63b8ff" d="M547.96,-395.99C571.08,-387.54 607.24,-374.32 636.57,-363.59"/>
<polygon fill="#63b8ff" stroke="#63b8ff" points="638.04,-366.79 646.23,-360.06 635.63,-360.21 638.04,-366.79"/>
</a>
</g>
</g>
<!-- Node7&#45;&gt;Node5 -->
<g id="edge30_Node000007_Node000005" class="edge">
<title>Node7&#45;&gt;Node5</title>
<g id="a_edge30_Node000007_Node000005"><a xlink:title=" ">
<path fill="none" stroke="#63b8ff" d="M1329.28,-263.93C1300.7,-247.07 1250.62,-218.53 1205.69,-198 1129.71,-163.28 1111.04,-151 1029.69,-132 873.97,-95.62 828,-129.75 671.69,-96 630.89,-87.19 622.81,-77.53 582.69,-66 528.92,-50.54 466.42,-36.03 423.87,-26.67"/>
<polygon fill="#63b8ff" stroke="#63b8ff" points="424.56,-23.24 414.04,-24.52 423.06,-30.07 424.56,-23.24"/>
</a>
</g>
</g>
<!-- Node7&#45;&gt;Node8 -->
<g id="edge7_Node000007_Node000008" class="edge">
<title>Node7&#45;&gt;Node8</title>
<g id="a_edge7_Node000007_Node000008"><a xlink:title=" ">
<path fill="none" stroke="#63b8ff" d="M1291.63,-271.76C1265.49,-269.19 1234.61,-266.29 1206.69,-264 971.38,-244.73 910.84,-258.29 676.69,-228 669.13,-227.02 661.17,-225.75 653.39,-224.37"/>
<polygon fill="#63b8ff" stroke="#63b8ff" points="653.8,-220.89 643.33,-222.51 652.53,-227.77 653.8,-220.89"/>
</a>
</g>
</g>
<!-- Node15 -->
<g id="Node000015" class="node">
<title>Node15</title>
<g id="a_Node000015"><a xlink:title=" ">
<polygon fill="#e0e0e0" stroke="#999999" points="1329.69,-24.5 1189.69,-24.5 1189.69,-5.5 1329.69,-5.5 1329.69,-24.5"/>
<text text-anchor="middle" x="1259.69" y="-12.5" font-family="Helvetica,sans-Serif" font-size="10.00">deal.II/dofs/dof_handler.h</text>
</a>
</g>
</g>
<!-- Node7&#45;&gt;Node15 -->
<g id="edge31_Node000007_Node000015" class="edge">
<title>Node7&#45;&gt;Node15</title>
<g id="a_edge31_Node000007_Node000015"><a xlink:title=" ">
<path fill="none" stroke="#63b8ff" d="M1405.11,-263.98C1423.07,-256.4 1441.25,-244.97 1451.69,-228 1489.42,-166.68 1495.72,-122.97 1451.69,-66 1437.19,-47.24 1382.73,-34.19 1335.5,-26.14"/>
<polygon fill="#63b8ff" stroke="#63b8ff" points="1335.99,-22.67 1325.55,-24.5 1334.85,-29.58 1335.99,-22.67"/>
</a>
</g>
</g>
<!-- Node26 -->
<g id="Node000026" class="node">
<title>Node26</title>
<g id="a_Node000026"><a xlink:title=" ">
<polygon fill="#e0e0e0" stroke="#999999" points="933.19,-24.5 886.19,-24.5 886.19,-5.5 933.19,-5.5 933.19,-24.5"/>
<text text-anchor="middle" x="909.69" y="-12.5" font-family="Helvetica,sans-Serif" font-size="10.00">vector</text>
</a>
</g>
</g>
<!-- Node7&#45;&gt;Node26 -->
<g id="edge36_Node000007_Node000026" class="edge">
<title>Node7&#45;&gt;Node26</title>
<g id="a_edge36_Node000007_Node000026"><a xlink:title=" ">
<path fill="none" stroke="#63b8ff" d="M1381.94,-263.95C1395.78,-255.6 1410.95,-243.58 1418.69,-228 1424.63,-216.06 1425.83,-209.26 1418.69,-198 1313.33,-31.85 1039.19,-15.77 943.36,-15.4"/>
<polygon fill="#63b8ff" stroke="#63b8ff" points="943.34,-11.9 933.35,-15.41 943.35,-18.9 943.34,-11.9"/>
</a>
</g>
</g>
<!-- Node32 -->
<g id="Node000032" class="node">
<title>Node32</title>
<g id="a_Node000032"><a xlink:href="dem__action__manager_8h.html" target="_top" xlink:title=" ">
<polygon fill="white" stroke="#666666" points="1659.19,-222.5 1504.19,-222.5 1504.19,-203.5 1659.19,-203.5 1659.19,-222.5"/>
<text text-anchor="middle" x="1581.69" y="-210.5" font-family="Helvetica,sans-Serif" font-size="10.00">dem/dem_action_manager.h</text>
</a>
</g>
</g>
<!-- Node7&#45;&gt;Node32 -->
<g id="edge29_Node000007_Node000032" class="edge">
<title>Node7&#45;&gt;Node32</title>
<g id="a_edge29_Node000007_Node000032"><a xlink:title=" ">
<path fill="none" stroke="#63b8ff" d="M1402.95,-263.95C1444.52,-252.34 1502.81,-236.05 1541.37,-225.27"/>
<polygon fill="#63b8ff" stroke="#63b8ff" points="1542.53,-228.58 1551.22,-222.52 1540.64,-221.84 1542.53,-228.58"/>
</a>
</g>
</g>
<!-- Node33 -->
<g id="Node000033" class="node">
<title>Node33</title>
<g id="a_Node000033"><a xlink:title=" ">
<polygon fill="#e0e0e0" stroke="#999999" points="1772.19,-228 1677.19,-228 1677.19,-198 1772.19,-198 1772.19,-228"/>
<text text-anchor="start" x="1685.19" y="-216" font-family="Helvetica,sans-Serif" font-size="10.00">deal.II/lac/affine</text>
<text text-anchor="middle" x="1724.69" y="-205" font-family="Helvetica,sans-Serif" font-size="10.00">_constraints.h</text>
</a>
</g>
</g>
<!-- Node7&#45;&gt;Node33 -->
<g id="edge32_Node000007_Node000033" class="edge">
<title>Node7&#45;&gt;Node33</title>
<g id="a_edge32_Node000007_Node000033"><a xlink:title=" ">
<path fill="none" stroke="#63b8ff" d="M1413.85,-269.95C1475.53,-261.47 1573.67,-246.97 1667.19,-228.21"/>
<polygon fill="#63b8ff" stroke="#63b8ff" points="1667.99,-231.62 1677.1,-226.2 1666.6,-224.76 1667.99,-231.62"/>
</a>
</g>
</g>
<!-- Node34 -->
<g id="Node000034" class="node">
<title>Node34</title>
<g id="a_Node000034"><a xlink:title=" ">
<polygon fill="#e0e0e0" stroke="#999999" points="1908.69,-228 1790.69,-228 1790.69,-198 1908.69,-198 1908.69,-228"/>
<text text-anchor="start" x="1798.69" y="-216" font-family="Helvetica,sans-Serif" font-size="10.00">deal.II/lac/la_parallel</text>
<text text-anchor="middle" x="1849.69" y="-205" font-family="Helvetica,sans-Serif" font-size="10.00">_vector.h</text>
</a>
</g>
</g>
<!-- Node7&#45;&gt;Node34 -->
<g id="edge33_Node000007_Node000034" class="edge">
<title>Node7&#45;&gt;Node34</title>
<g id="a_edge33_Node000007_Node000034"><a xlink:title=" ">
<path fill="none" stroke="#63b8ff" d="M1414.02,-272.55C1495.45,-264.93 1643.92,-249.73 1780.2,-228.15"/>
<polygon fill="#63b8ff" stroke="#63b8ff" points="1781.09,-231.56 1790.41,-226.52 1779.98,-224.64 1781.09,-231.56"/>
</a>
</g>
</g>
<!-- Node35 -->
<g id="Node000035" class="node">
<title>Node35</title>
<g id="a_Node000035"><a xlink:title=" ">
<polygon fill="#e0e0e0" stroke="#999999" points="1409.69,-228 1291.69,-228 1291.69,-198 1409.69,-198 1409.69,-228"/>
<text text-anchor="start" x="1299.69" y="-216" font-family="Helvetica,sans-Serif" font-size="10.00">deal.II/lac/la_parallel</text>
<text text-anchor="middle" x="1350.69" y="-205" font-family="Helvetica,sans-Serif" font-size="10.00">_vector.templates.h</text>
</a>
</g>
</g>
<!-- Node7&#45;&gt;Node35 -->
<g id="edge34_Node000007_Node000035" class="edge">
<title>Node7&#45;&gt;Node35</title>
<g id="a_edge34_Node000007_Node000035"><a xlink:title=" ">
<path fill="none" stroke="#63b8ff" d="M1352.25,-263.8C1352.01,-256.34 1351.72,-246.99 1351.45,-238.41"/>
<polygon fill="#63b8ff" stroke="#63b8ff" points="1354.94,-238.05 1351.13,-228.16 1347.95,-238.27 1354.94,-238.05"/>
</a>
</g>
</g>
<!-- Node36 -->
<g id="Node000036" class="node">
<title>Node36</title>
<g id="a_Node000036"><a xlink:title=" ">
<polygon fill="#e0e0e0" stroke="#999999" points="1197.19,-228 1066.19,-228 1066.19,-198 1197.19,-198 1197.19,-228"/>
<text text-anchor="start" x="1074.19" y="-216" font-family="Helvetica,sans-Serif" font-size="10.00">deal.II/particles/particle</text>
<text text-anchor="middle" x="1131.69" y="-205" font-family="Helvetica,sans-Serif" font-size="10.00">_handler.h</text>
</a>
</g>
</g>
<!-- Node7&#45;&gt;Node36 -->
<g id="edge35_Node000007_Node000036" class="edge">
<title>Node7&#45;&gt;Node36</title>
<g id="a_edge35_Node000007_Node000036"><a xlink:title=" ">
<path fill="none" stroke="#63b8ff" d="M1304.19,-263.95C1270.51,-254.2 1225.47,-241.16 1189.86,-230.84"/>
<polygon fill="#63b8ff" stroke="#63b8ff" points="1190.66,-227.43 1180.08,-228.01 1188.71,-234.16 1190.66,-227.43"/>
</a>
</g>
</g>
<!-- Node8&#45;&gt;Node5 -->
<g id="edge23_Node000008_Node000005" class="edge">
<title>Node8&#45;&gt;Node5</title>
<g id="a_edge23_Node000008_Node000005"><a xlink:title=" ">
<path fill="none" stroke="#63b8ff" d="M603.67,-203.3C603.11,-178.14 597.93,-104.67 557.69,-66 526.8,-36.31 480.11,-23.86 441.49,-18.81"/>
<polygon fill="#63b8ff" stroke="#63b8ff" points="441.69,-15.31 431.35,-17.63 440.88,-22.26 441.69,-15.31"/>
</a>
</g>
</g>
<!-- Node9 -->
<g id="Node000009" class="node">
<title>Node9</title>
<g id="a_Node000009"><a xlink:href="core_2utilities_8h.html" target="_top" xlink:title=" ">
<polygon fill="#fff0f0" stroke="red" points="766.69,-90.5 680.69,-90.5 680.69,-71.5 766.69,-71.5 766.69,-90.5"/>
<text text-anchor="middle" x="723.69" y="-78.5" font-family="Helvetica,sans-Serif" font-size="10.00">core/utilities.h</text>
</a>
</g>
</g>
<!-- Node8&#45;&gt;Node9 -->
<g id="edge8_Node000008_Node000009" class="edge">
<title>Node8&#45;&gt;Node9</title>
<g id="a_edge8_Node000008_Node000009"><a xlink:title=" ">
<path fill="none" stroke="#63b8ff" d="M610.72,-203.39C622.95,-188.5 649.1,-157.15 672.69,-132 683.8,-120.16 696.9,-107.34 707.03,-97.65"/>
<polygon fill="#63b8ff" stroke="#63b8ff" points="709.59,-100.05 714.44,-90.63 704.77,-94.97 709.59,-100.05"/>
</a>
</g>
</g>
<!-- Node17 -->
<g id="Node000017" class="node">
<title>Node17</title>
<g id="a_Node000017"><a xlink:title=" ">
<polygon fill="#e0e0e0" stroke="#999999" points="850.19,-30 719.19,-30 719.19,0 850.19,0 850.19,-30"/>
<text text-anchor="start" x="727.19" y="-18" font-family="Helvetica,sans-Serif" font-size="10.00">deal.II/particles/particle</text>
<text text-anchor="middle" x="784.69" y="-7" font-family="Helvetica,sans-Serif" font-size="10.00">_iterator.h</text>
</a>
</g>
</g>
<!-- Node8&#45;&gt;Node17 -->
<g id="edge25_Node000008_Node000017" class="edge">
<title>Node8&#45;&gt;Node17</title>
<g id="a_edge25_Node000008_Node000017"><a xlink:title=" ">
<path fill="none" stroke="#63b8ff" d="M616.47,-203.37C630.56,-193.72 653.75,-177.39 672.69,-162 688.07,-149.5 689.4,-143.3 705.69,-132 734.44,-112.06 755.83,-124.8 775.69,-96 786.82,-79.86 788.46,-57.39 787.66,-40.37"/>
<polygon fill="#63b8ff" stroke="#63b8ff" points="791.13,-39.79 786.86,-30.1 784.15,-40.34 791.13,-39.79"/>
</a>
</g>
</g>
<!-- Node8&#45;&gt;Node26 -->
<g id="edge27_Node000008_Node000026" class="edge">
<title>Node8&#45;&gt;Node26</title>
<g id="a_edge27_Node000008_Node000026"><a xlink:title=" ">
<path fill="none" stroke="#63b8ff" d="M648.08,-203.47C657.53,-201.66 667.44,-199.76 676.69,-198 761.12,-181.91 802.98,-219.69 866.69,-162 903.33,-128.83 909.38,-66.2 909.99,-34.86"/>
<polygon fill="#63b8ff" stroke="#63b8ff" points="913.49,-34.85 910.01,-24.84 906.49,-34.83 913.49,-34.85"/>
</a>
</g>
</g>
<!-- Node27 -->
<g id="Node000027" class="node">
<title>Node27</title>
<g id="a_Node000027"><a xlink:href="boundary__cells__info__struct_8h.html" target="_top" xlink:title=" ">
<polygon fill="white" stroke="#666666" points="392.19,-162 277.19,-162 277.19,-132 392.19,-132 392.19,-162"/>
<text text-anchor="start" x="285.19" y="-150" font-family="Helvetica,sans-Serif" font-size="10.00">dem/boundary_cells</text>
<text text-anchor="middle" x="334.69" y="-139" font-family="Helvetica,sans-Serif" font-size="10.00">_info_struct.h</text>
</a>
</g>
</g>
<!-- Node8&#45;&gt;Node27 -->
<g id="edge15_Node000008_Node000027" class="edge">
<title>Node8&#45;&gt;Node27</title>
<g id="a_edge15_Node000008_Node000027"><a xlink:title=" ">
<path fill="none" stroke="#63b8ff" d="M567.69,-203.44C525.53,-193.4 454.77,-176.57 402.27,-164.08"/>
<polygon fill="#63b8ff" stroke="#63b8ff" points="402.9,-160.63 392.36,-161.72 401.28,-167.44 402.9,-160.63"/>
</a>
</g>
</g>
<!-- Node28 -->
<g id="Node000028" class="node">
<title>Node28</title>
<g id="a_Node000028"><a xlink:title=" ">
<polygon fill="#e0e0e0" stroke="#999999" points="548.69,-96 446.69,-96 446.69,-66 548.69,-66 548.69,-96"/>
<text text-anchor="start" x="454.69" y="-84" font-family="Helvetica,sans-Serif" font-size="10.00">deal.II/distributed</text>
<text text-anchor="middle" x="497.69" y="-73" font-family="Helvetica,sans-Serif" font-size="10.00">/tria.h</text>
</a>
</g>
</g>
<!-- Node8&#45;&gt;Node28 -->
<g id="edge24_Node000008_Node000028" class="edge">
<title>Node8&#45;&gt;Node28</title>
<g id="a_edge24_Node000008_Node000028"><a xlink:title=" ">
<path fill="none" stroke="#63b8ff" d="M596.74,-203.47C580.47,-183.52 539.53,-133.31 515.68,-104.06"/>
<polygon fill="#63b8ff" stroke="#63b8ff" points="518.19,-101.61 509.16,-96.07 512.77,-106.03 518.19,-101.61"/>
</a>
</g>
</g>
<!-- Node29 -->
<g id="Node000029" class="node">
<title>Node29</title>
<g id="a_Node000029"><a xlink:href="contact__info_8h.html" target="_top" xlink:title=" ">
<polygon fill="white" stroke="#666666" points="428.69,-90.5 318.69,-90.5 318.69,-71.5 428.69,-71.5 428.69,-90.5"/>
<text text-anchor="middle" x="373.69" y="-78.5" font-family="Helvetica,sans-Serif" font-size="10.00">dem/contact_info.h</text>
</a>
</g>
</g>
<!-- Node8&#45;&gt;Node29 -->
<g id="edge19_Node000008_Node000029" class="edge">
<title>Node8&#45;&gt;Node29</title>
<g id="a_edge19_Node000008_Node000029"><a xlink:title=" ">
<path fill="none" stroke="#63b8ff" d="M588.6,-203.47C549.61,-181.43 445.27,-122.46 397.8,-95.63"/>
<polygon fill="#63b8ff" stroke="#63b8ff" points="399.27,-92.43 388.84,-90.56 395.82,-98.53 399.27,-92.43"/>
</a>
</g>
</g>
<!-- Node8&#45;&gt;Node30 -->
<g id="edge26_Node000008_Node000030" class="edge">
<title>Node8&#45;&gt;Node30</title>
<g id="a_edge26_Node000008_Node000030"><a xlink:title=" ">
<path fill="none" stroke="#63b8ff" d="M539.57,-204.43C471.71,-195.95 361.65,-180.9 267.69,-162 263.22,-161.1 258.58,-160.07 253.96,-158.98"/>
<polygon fill="#63b8ff" stroke="#63b8ff" points="254.52,-155.52 243.98,-156.55 252.86,-162.32 254.52,-155.52"/>
</a>
</g>
</g>
<!-- Node31 -->
<g id="Node000031" class="node">
<title>Node31</title>
<g id="a_Node000031"><a xlink:href="unordered__dense_8h.html" target="_top" xlink:title=" ">
<polygon fill="white" stroke="#666666" points="858.19,-156.5 715.19,-156.5 715.19,-137.5 858.19,-137.5 858.19,-156.5"/>
<text text-anchor="middle" x="786.69" y="-144.5" font-family="Helvetica,sans-Serif" font-size="10.00">ankerl/unordered_dense.h</text>
</a>
</g>
</g>
<!-- Node8&#45;&gt;Node31 -->
<g id="edge28_Node000008_Node000031" class="edge">
<title>Node8&#45;&gt;Node31</title>
<g id="a_edge28_Node000008_Node000031"><a xlink:title=" ">
<path fill="none" stroke="#63b8ff" d="M628.37,-203.37C660.39,-192.17 716.4,-172.58 752.49,-159.96"/>
<polygon fill="#63b8ff" stroke="#63b8ff" points="753.83,-163.2 762.11,-156.6 751.52,-156.59 753.83,-163.2"/>
</a>
</g>
</g>
<!-- Node9&#45;&gt;Node4 -->
<g id="edge9_Node000009_Node000004" class="edge">
<title>Node9&#45;&gt;Node4</title>
<g id="a_edge9_Node000009_Node000004"><a xlink:title=" ">
<path fill="none" stroke="#63b8ff" d="M680.6,-75.03C583.81,-63.87 348.68,-36.76 233.9,-23.52"/>
<polygon fill="#63b8ff" stroke="#63b8ff" points="234.18,-20.03 223.84,-22.36 233.37,-26.98 234.18,-20.03"/>
</a>
</g>
</g>
<!-- Node9&#45;&gt;Node5 -->
<g id="edge10_Node000009_Node000005" class="edge">
<title>Node9&#45;&gt;Node5</title>
<g id="a_edge10_Node000009_Node000005"><a xlink:title=" ">
<path fill="none" stroke="#63b8ff" d="M680.42,-72.09C617.32,-60.55 499.97,-39.09 430.14,-26.32"/>
<polygon fill="#63b8ff" stroke="#63b8ff" points="430.66,-22.86 420.2,-24.5 429.41,-29.75 430.66,-22.86"/>
</a>
</g>
</g>
<!-- Node9&#45;&gt;Node15 -->
<g id="edge11_Node000009_Node000015" class="edge">
<title>Node9&#45;&gt;Node15</title>
<g id="a_edge11_Node000009_Node000015"><a xlink:title=" ">
<path fill="none" stroke="#63b8ff" d="M767.1,-74.82C856.98,-64.09 1064.61,-39.29 1179.54,-25.57"/>
<polygon fill="#63b8ff" stroke="#63b8ff" points="1180.17,-29.02 1189.68,-24.36 1179.34,-22.07 1180.17,-29.02"/>
</a>
</g>
</g>
<!-- Node9&#45;&gt;Node17 -->
<g id="edge12_Node000009_Node000017" class="edge">
<title>Node9&#45;&gt;Node17</title>
<g id="a_edge12_Node000009_Node000017"><a xlink:title=" ">
<path fill="none" stroke="#63b8ff" d="M731.92,-71.37C740.06,-62.83 752.85,-49.41 763.8,-37.92"/>
<polygon fill="#63b8ff" stroke="#63b8ff" points="766.64,-40.01 771,-30.36 761.57,-35.18 766.64,-40.01"/>
</a>
</g>
</g>
<!-- Node22 -->
<g id="Node000022" class="node">
<title>Node22</title>
<g id="a_Node000022"><a xlink:title=" ">
<polygon fill="#e0e0e0" stroke="#999999" points="681.69,-24.5 643.69,-24.5 643.69,-5.5 681.69,-5.5 681.69,-24.5"/>
<text text-anchor="middle" x="662.69" y="-12.5" font-family="Helvetica,sans-Serif" font-size="10.00">map</text>
</a>
</g>
</g>
<!-- Node9&#45;&gt;Node22 -->
<g id="edge13_Node000009_Node000022" class="edge">
<title>Node9&#45;&gt;Node22</title>
<g id="a_edge13_Node000009_Node000022"><a xlink:title=" ">
<path fill="none" stroke="#63b8ff" d="M715.46,-71.37C705.97,-61.4 690.14,-44.79 678.29,-32.36"/>
<polygon fill="#63b8ff" stroke="#63b8ff" points="680.61,-29.73 671.18,-24.91 675.55,-34.56 680.61,-29.73"/>
</a>
</g>
</g>
<!-- Node9&#45;&gt;Node26 -->
<g id="edge14_Node000009_Node000026" class="edge">
<title>Node9&#45;&gt;Node26</title>
<g id="a_edge14_Node000009_Node000026"><a xlink:title=" ">
<path fill="none" stroke="#63b8ff" d="M748.78,-71.37C781.77,-60.02 839.84,-40.04 876.45,-27.44"/>
<polygon fill="#63b8ff" stroke="#63b8ff" points="877.86,-30.65 886.18,-24.09 875.58,-24.04 877.86,-30.65"/>
</a>
</g>
</g>
<!-- Node27&#45;&gt;Node4 -->
<g id="edge16_Node000027_Node000004" class="edge">
<title>Node27&#45;&gt;Node4</title>
<g id="a_edge16_Node000027_Node000004"><a xlink:title=" ">
<path fill="none" stroke="#63b8ff" d="M277,-133.68C273.85,-133.09 270.74,-132.53 267.69,-132 210.44,-122.05 46.85,-139.83 8.69,-96 -23.77,-58.71 46.01,-36.86 103.43,-25.67"/>
<polygon fill="#63b8ff" stroke="#63b8ff" points="104.42,-29.05 113.61,-23.77 103.14,-22.16 104.42,-29.05"/>
</a>
</g>
</g>
<!-- Node27&#45;&gt;Node5 -->
<g id="edge17_Node000027_Node000005" class="edge">
<title>Node27&#45;&gt;Node5</title>
<g id="a_edge17_Node000027_Node000005"><a xlink:title=" ">
<path fill="none" stroke="#63b8ff" d="M324.06,-131.93C313.09,-115.56 298.97,-87.97 309.69,-66 317.4,-50.2 332.78,-37.93 346.53,-29.5"/>
<polygon fill="#63b8ff" stroke="#63b8ff" points="348.3,-32.52 355.24,-24.51 344.82,-26.45 348.3,-32.52"/>
</a>
</g>
</g>
<!-- Node27&#45;&gt;Node28 -->
<g id="edge18_Node000027_Node000028" class="edge">
<title>Node27&#45;&gt;Node28</title>
<g id="a_edge18_Node000027_Node000028"><a xlink:title=" ">
<path fill="none" stroke="#63b8ff" d="M370.46,-131.95C394.56,-122.49 426.55,-109.93 452.42,-99.78"/>
<polygon fill="#63b8ff" stroke="#63b8ff" points="453.97,-102.93 462,-96.01 451.42,-96.41 453.97,-102.93"/>
</a>
</g>
</g>
<!-- Node29&#45;&gt;Node4 -->
<g id="edge20_Node000029_Node000004" class="edge">
<title>Node29&#45;&gt;Node4</title>
<g id="a_edge20_Node000029_Node000004"><a xlink:title=" ">
<path fill="none" stroke="#63b8ff" d="M346.04,-71.37C309.87,-60.08 246.36,-40.25 205.97,-27.64"/>
<polygon fill="#63b8ff" stroke="#63b8ff" points="206.82,-24.24 196.23,-24.6 204.73,-30.92 206.82,-24.24"/>
</a>
</g>
</g>
<!-- Node29&#45;&gt;Node5 -->
<g id="edge21_Node000029_Node000005" class="edge">
<title>Node29&#45;&gt;Node5</title>
<g id="a_edge21_Node000029_Node000005"><a xlink:title=" ">
<path fill="none" stroke="#63b8ff" d="M373.69,-71.37C373.69,-62.16 373.69,-47.29 373.69,-35.27"/>
<polygon fill="#63b8ff" stroke="#63b8ff" points="377.19,-34.91 373.69,-24.91 370.19,-34.91 377.19,-34.91"/>
</a>
</g>
</g>
<!-- Node29&#45;&gt;Node17 -->
<g id="edge22_Node000029_Node000017" class="edge">
<title>Node29&#45;&gt;Node17</title>
<g id="a_edge22_Node000029_Node000017"><a xlink:title=" ">
<path fill="none" stroke="#63b8ff" d="M410.49,-71.46C419.37,-69.54 428.85,-67.59 437.69,-66 549.47,-45.85 578.3,-46.37 690.69,-30 696.55,-29.15 702.61,-28.26 708.7,-27.36"/>
<polygon fill="#63b8ff" stroke="#63b8ff" points="709.58,-30.77 718.96,-25.85 708.56,-23.84 709.58,-30.77"/>
</a>
</g>
</g>
<!-- Node37&#45;&gt;Node8 -->
<g id="edge41_Node000037_Node000008" class="edge">
<title>Node37&#45;&gt;Node8</title>
<g id="a_edge41_Node000037_Node000008"><a xlink:title=" ">
<path fill="none" stroke="#63b8ff" d="M478.05,-329.84C504.57,-305.39 558.77,-255.42 586.5,-229.85"/>
<polygon fill="#63b8ff" stroke="#63b8ff" points="589.22,-232.1 594.2,-222.75 584.48,-226.95 589.22,-232.1"/>
</a>
</g>
</g>
<!-- Node37&#45;&gt;Node26 -->
<g id="edge51_Node000037_Node000026" class="edge">
<title>Node37&#45;&gt;Node26</title>
<g id="a_edge51_Node000037_Node000026"><a xlink:title=" ">
<path fill="none" stroke="#63b8ff" d="M531.81,-336.81C639.24,-325.43 837.28,-303.59 868.69,-294 930.67,-275.09 953.58,-274.52 998.69,-228 1029.91,-195.81 1047.2,-173.28 1029.69,-132 1010.09,-85.79 962.06,-48.99 933.06,-30.04"/>
<polygon fill="#63b8ff" stroke="#63b8ff" points="934.69,-26.93 924.37,-24.52 930.93,-32.84 934.69,-26.93"/>
</a>
</g>
</g>
<!-- Node37&#45;&gt;Node27 -->
<g id="edge39_Node000037_Node000027" class="edge">
<title>Node37&#45;&gt;Node27</title>
<g id="a_edge39_Node000037_Node000027"><a xlink:title=" ">
<path fill="none" stroke="#63b8ff" d="M393.66,-340.86C322.82,-336.01 219.53,-323.9 194.69,-294 154.49,-245.61 239.1,-193.45 293.54,-166.49"/>
<polygon fill="#63b8ff" stroke="#63b8ff" points="295.18,-169.59 302.65,-162.07 292.13,-163.29 295.18,-169.59"/>
</a>
</g>
</g>
<!-- Node37&#45;&gt;Node28 -->
<g id="edge49_Node000037_Node000028" class="edge">
<title>Node37&#45;&gt;Node28</title>
<g id="a_edge49_Node000037_Node000028"><a xlink:title=" ">
<path fill="none" stroke="#63b8ff" d="M461.6,-329.57C460.89,-319.59 460.05,-306 459.69,-294 458.41,-251.35 452.97,-240.13 459.69,-198 464.96,-165 478.15,-128.65 487.51,-105.59"/>
<polygon fill="#63b8ff" stroke="#63b8ff" points="490.77,-106.86 491.37,-96.28 484.31,-104.18 490.77,-106.86"/>
</a>
</g>
</g>
<!-- Node37&#45;&gt;Node29 -->
<g id="edge40_Node000037_Node000029" class="edge">
<title>Node37&#45;&gt;Node29</title>
<g id="a_edge40_Node000037_Node000029"><a xlink:title=" ">
<path fill="none" stroke="#63b8ff" d="M442.27,-329.94C418.27,-313.58 377.12,-286 340.69,-264 260.65,-215.66 204.15,-242.57 156.69,-162 149.92,-150.51 148.39,-142.43 156.69,-132 175.43,-108.46 251.6,-95.06 308.44,-88.17"/>
<polygon fill="#63b8ff" stroke="#63b8ff" points="308.93,-91.64 318.45,-87 308.12,-84.69 308.93,-91.64"/>
</a>
</g>
</g>
<!-- Node38 -->
<g id="Node000038" class="node">
<title>Node38</title>
<g id="a_Node000038"><a xlink:href="dem__solver__parameters_8h.html" target="_top" xlink:title=" ">
<polygon fill="white" stroke="#666666" points="860.19,-288.5 691.19,-288.5 691.19,-269.5 860.19,-269.5 860.19,-288.5"/>
<text text-anchor="middle" x="775.69" y="-276.5" font-family="Helvetica,sans-Serif" font-size="10.00">dem/dem_solver_parameters.h</text>
</a>
</g>
</g>
<!-- Node37&#45;&gt;Node38 -->
<g id="edge42_Node000037_Node000038" class="edge">
<title>Node37&#45;&gt;Node38</title>
<g id="a_edge42_Node000037_Node000038"><a xlink:title=" ">
<path fill="none" stroke="#63b8ff" d="M531.38,-329.95C589.42,-318.09 671.27,-301.35 723.91,-290.59"/>
<polygon fill="#63b8ff" stroke="#63b8ff" points="724.94,-293.95 734.04,-288.52 723.54,-287.09 724.94,-293.95"/>
</a>
</g>
</g>
<!-- Node59 -->
<g id="Node000059" class="node">
<title>Node59</title>
<g id="a_Node000059"><a xlink:title=" ">
<polygon fill="#e0e0e0" stroke="#999999" points="331.69,-288.5 203.69,-288.5 203.69,-269.5 331.69,-269.5 331.69,-288.5"/>
<text text-anchor="middle" x="267.69" y="-276.5" font-family="Helvetica,sans-Serif" font-size="10.00">deal.II/grid/grid_tools.h</text>
</a>
</g>
</g>
<!-- Node37&#45;&gt;Node59 -->
<g id="edge50_Node000037_Node000059" class="edge">
<title>Node37&#45;&gt;Node59</title>
<g id="a_edge50_Node000037_Node000059"><a xlink:title=" ">
<path fill="none" stroke="#63b8ff" d="M419.9,-329.95C384.95,-318.48 336.13,-302.46 303.29,-291.68"/>
<polygon fill="#63b8ff" stroke="#63b8ff" points="304.24,-288.31 293.64,-288.52 302.05,-294.96 304.24,-288.31"/>
</a>
</g>
</g>
<!-- Node39 -->
<g id="Node000039" class="node">
<title>Node39</title>
<g id="a_Node000039"><a xlink:href="parameters_8h.html" target="_top" xlink:title=" ">
<polygon fill="#fff0f0" stroke="red" points="1020.69,-156.5 914.69,-156.5 914.69,-137.5 1020.69,-137.5 1020.69,-156.5"/>
<text text-anchor="middle" x="967.69" y="-144.5" font-family="Helvetica,sans-Serif" font-size="10.00">core/parameters.h</text>
</a>
</g>
</g>
<!-- Node38&#45;&gt;Node39 -->
<g id="edge43_Node000038_Node000039" class="edge">
<title>Node38&#45;&gt;Node39</title>
<g id="a_edge43_Node000038_Node000039"><a xlink:title=" ">
<path fill="none" stroke="#63b8ff" d="M850.26,-269.49C902.01,-261.88 964.46,-248.67 980.69,-228 994.64,-210.24 985.99,-183.3 977.59,-165.68"/>
<polygon fill="#63b8ff" stroke="#63b8ff" points="980.56,-163.79 972.85,-156.52 974.34,-167.01 980.56,-163.79"/>
</a>
</g>
</g>
<!-- Node57 -->
<g id="Node000057" class="node">
<title>Node57</title>
<g id="a_Node000057"><a xlink:href="parameters__lagrangian_8h.html" target="_top" xlink:title="Parameter structures for Lagrangian (DEM) particle simulations.">
<polygon fill="#fff0f0" stroke="red" points="849.19,-222.5 686.19,-222.5 686.19,-203.5 849.19,-203.5 849.19,-222.5"/>
<text text-anchor="middle" x="767.69" y="-210.5" font-family="Helvetica,sans-Serif" font-size="10.00">core/parameters_lagrangian.h</text>
</a>
</g>
</g>
<!-- Node38&#45;&gt;Node57 -->
<g id="edge45_Node000038_Node000057" class="edge">
<title>Node38&#45;&gt;Node57</title>
<g id="a_edge45_Node000038_Node000057"><a xlink:title=" ">
<path fill="none" stroke="#63b8ff" d="M774.61,-269.37C773.45,-260.07 771.56,-244.98 770.05,-232.9"/>
<polygon fill="#63b8ff" stroke="#63b8ff" points="773.52,-232.39 768.8,-222.91 766.57,-233.26 773.52,-232.39"/>
</a>
</g>
</g>
<!-- Node58 -->
<g id="Node000058" class="node">
<title>Node58</title>
<g id="a_Node000058"><a xlink:href="solid__objects__parameters_8h.html" target="_top" xlink:title="Parameter classes for solid objects used in Nitsche immersed boundary and DEM simulations.">
<polygon fill="#fff0f0" stroke="red" points="971.69,-228 867.69,-228 867.69,-198 971.69,-198 971.69,-228"/>
<text text-anchor="start" x="875.69" y="-216" font-family="Helvetica,sans-Serif" font-size="10.00">core/solid_objects</text>
<text text-anchor="middle" x="919.69" y="-205" font-family="Helvetica,sans-Serif" font-size="10.00">_parameters.h</text>
</a>
</g>
</g>
<!-- Node38&#45;&gt;Node58 -->
<g id="edge47_Node000038_Node000058" class="edge">
<title>Node38&#45;&gt;Node58</title>
<g id="a_edge47_Node000038_Node000058"><a xlink:title=" ">
<path fill="none" stroke="#63b8ff" d="M795.11,-269.37C816.4,-259.91 851.17,-244.45 878.58,-232.27"/>
<polygon fill="#63b8ff" stroke="#63b8ff" points="880.21,-235.38 887.93,-228.12 877.37,-228.98 880.21,-235.38"/>
</a>
</g>
</g>
<!-- Node39&#45;&gt;Node9 -->
<g id="edge44_Node000039_Node000009" class="edge">
<title>Node39&#45;&gt;Node9</title>
<g id="a_edge44_Node000039_Node000009"><a xlink:title=" ">
<path fill="none" stroke="#63b8ff" d="M935.04,-137.44C891.39,-125.99 813.98,-105.68 765.94,-93.08"/>
<polygon fill="#63b8ff" stroke="#63b8ff" points="766.71,-89.67 756.15,-90.51 764.94,-96.44 766.71,-89.67"/>
</a>
</g>
</g>
<!-- Node57&#45;&gt;Node39 -->
<g id="edge46_Node000057_Node000039" class="edge">
<title>Node57&#45;&gt;Node39</title>
<g id="a_edge46_Node000057_Node000039"><a xlink:title=" ">
<path fill="none" stroke="#63b8ff" d="M794.66,-203.37C829.88,-192.1 891.65,-172.33 931.07,-159.72"/>
<polygon fill="#63b8ff" stroke="#63b8ff" points="932.37,-162.98 940.83,-156.6 930.24,-156.31 932.37,-162.98"/>
</a>
</g>
</g>
<!-- Node58&#45;&gt;Node39 -->
<g id="edge48_Node000058_Node000039" class="edge">
<title>Node58&#45;&gt;Node39</title>
<g id="a_edge48_Node000058_Node000039"><a xlink:title=" ">
<path fill="none" stroke="#63b8ff" d="M930.34,-197.8C937.61,-188.11 947.26,-175.24 954.93,-165.01"/>
<polygon fill="#63b8ff" stroke="#63b8ff" points="957.86,-166.94 961.06,-156.84 952.26,-162.74 957.86,-166.94"/>
</a>
</g>
</g>
<!-- Node60&#45;&gt;Node7 -->
<g id="edge53_Node000060_Node000007" class="edge">
<title>Node60&#45;&gt;Node7</title>
<g id="a_edge53_Node000060_Node000007"><a xlink:title=" ">
<path fill="none" stroke="#63b8ff" d="M1203.61,-329.95C1232.34,-320.33 1270.65,-307.49 1301.24,-297.24"/>
<polygon fill="#63b8ff" stroke="#63b8ff" points="1302.5,-300.51 1310.87,-294.01 1300.28,-293.87 1302.5,-300.51"/>
</a>
</g>
</g>
<!-- Node60&#45;&gt;Node8 -->
<g id="edge54_Node000060_Node000008" class="edge">
<title>Node60&#45;&gt;Node8</title>
<g id="a_edge54_Node000060_Node000008"><a xlink:title=" ">
<path fill="none" stroke="#63b8ff" d="M1101.58,-342.8C989.72,-339.73 754.37,-329.19 681.69,-294 673.87,-290.21 638.81,-252.56 618.46,-230.29"/>
<polygon fill="#63b8ff" stroke="#63b8ff" points="620.78,-227.65 611.46,-222.61 615.61,-232.36 620.78,-227.65"/>
</a>
</g>
</g>
<!-- Node60&#45;&gt;Node17 -->
<g id="edge57_Node000060_Node000017" class="edge">
<title>Node60&#45;&gt;Node17</title>
<g id="a_edge57_Node000060_Node000017"><a xlink:title=" ">
<path fill="none" stroke="#63b8ff" d="M1188.14,-329.86C1201.12,-321.36 1215.49,-309.22 1222.69,-294 1234.65,-268.73 1206.87,-199.38 1205.69,-198 1116.19,-93.33 955.47,-47.02 860.61,-27.99"/>
<polygon fill="#63b8ff" stroke="#63b8ff" points="861,-24.5 850.51,-26.02 859.65,-31.37 861,-24.5"/>
</a>
</g>
</g>
<!-- Node60&#45;&gt;Node36 -->
<g id="edge56_Node000060_Node000036" class="edge">
<title>Node60&#45;&gt;Node36</title>
<g id="a_edge56_Node000060_Node000036"><a xlink:title=" ">
<path fill="none" stroke="#63b8ff" d="M1179.09,-329.94C1196.55,-314.04 1219.17,-287.32 1206.69,-264 1199.8,-251.12 1187.96,-240.99 1175.7,-233.31"/>
<polygon fill="#63b8ff" stroke="#63b8ff" points="1177.17,-230.12 1166.76,-228.15 1173.67,-236.18 1177.17,-230.12"/>
</a>
</g>
</g>
<!-- Node61 -->
<g id="Node000061" class="node">
<title>Node61</title>
<g id="a_Node000061"><a xlink:title=" ">
<polygon fill="#e0e0e0" stroke="#999999" points="1197.69,-288.5 1057.69,-288.5 1057.69,-269.5 1197.69,-269.5 1197.69,-288.5"/>
<text text-anchor="middle" x="1127.69" y="-276.5" font-family="Helvetica,sans-Serif" font-size="10.00">deal.II/particles/particle.h</text>
</a>
</g>
</g>
<!-- Node60&#45;&gt;Node61 -->
<g id="edge55_Node000060_Node000061" class="edge">
<title>Node60&#45;&gt;Node61</title>
<g id="a_edge55_Node000060_Node000061"><a xlink:title=" ">
<path fill="none" stroke="#63b8ff" d="M1154.15,-329.8C1149.16,-320.41 1142.58,-308.02 1137.23,-297.95"/>
<polygon fill="#63b8ff" stroke="#63b8ff" points="1140.17,-296.03 1132.39,-288.84 1133.99,-299.32 1140.17,-296.03"/>
</a>
</g>
</g>
<!-- Node62&#45;&gt;Node7 -->
<g id="edge59_Node000062_Node000007" class="edge">
<title>Node62&#45;&gt;Node7</title>
<g id="a_edge59_Node000062_Node000007"><a xlink:title=" ">
<path fill="none" stroke="#63b8ff" d="M753.51,-337.41C853.37,-327.85 1044.25,-309.57 1206.69,-294 1231.09,-291.66 1257.78,-289.1 1281.59,-286.82"/>
<polygon fill="#63b8ff" stroke="#63b8ff" points="1281.98,-290.3 1291.6,-285.86 1281.31,-283.33 1281.98,-290.3"/>
</a>
</g>
</g>
<!-- Node62&#45;&gt;Node8 -->
<g id="edge62_Node000062_Node000008" class="edge">
<title>Node62&#45;&gt;Node8</title>
<g id="a_edge62_Node000062_Node000008"><a xlink:title=" ">
<path fill="none" stroke="#63b8ff" d="M674.24,-329.79C667.09,-319.91 657.54,-306.34 649.69,-294 636.31,-272.95 622.19,-247.92 613.18,-231.53"/>
<polygon fill="#63b8ff" stroke="#63b8ff" points="616.15,-229.66 608.28,-222.55 610,-233.01 616.15,-229.66"/>
</a>
</g>
</g>
<!-- Node62&#45;&gt;Node22 -->
<g id="edge65_Node000062_Node000022" class="edge">
<title>Node62&#45;&gt;Node22</title>
<g id="a_edge65_Node000062_Node000022"><a xlink:title=" ">
<path fill="none" stroke="#63b8ff" d="M651.17,-329.98C613.92,-312.35 555.71,-278.17 530.69,-228 491.79,-150 595.4,-63.76 641.68,-30.33"/>
<polygon fill="#63b8ff" stroke="#63b8ff" points="643.71,-33.18 649.85,-24.54 639.67,-27.46 643.71,-33.18"/>
</a>
</g>
</g>
<!-- Node62&#45;&gt;Node27 -->
<g id="edge60_Node000062_Node000027" class="edge">
<title>Node62&#45;&gt;Node27</title>
<g id="a_edge60_Node000062_Node000027"><a xlink:title=" ">
<path fill="none" stroke="#63b8ff" d="M616.03,-340.1C569.17,-334.82 507.21,-322.53 459.69,-294 408.4,-263.2 367.64,-203.93 347.82,-171.17"/>
<polygon fill="#63b8ff" stroke="#63b8ff" points="350.67,-169.12 342.57,-162.3 344.65,-172.69 350.67,-169.12"/>
</a>
</g>
</g>
<!-- Node62&#45;&gt;Node29 -->
<g id="edge61_Node000062_Node000029" class="edge">
<title>Node62&#45;&gt;Node29</title>
<g id="a_edge61_Node000062_Node000029"><a xlink:title=" ">
<path fill="none" stroke="#63b8ff" d="M664.74,-329.98C634.89,-308.78 577.13,-266.91 530.69,-228 476.94,-182.97 417.27,-125.14 389.51,-97.74"/>
<polygon fill="#63b8ff" stroke="#63b8ff" points="391.82,-95.11 382.25,-90.56 386.9,-100.08 391.82,-95.11"/>
</a>
</g>
</g>
<!-- Node62&#45;&gt;Node36 -->
<g id="edge64_Node000062_Node000036" class="edge">
<title>Node62&#45;&gt;Node36</title>
<g id="a_edge64_Node000062_Node000036"><a xlink:title=" ">
<path fill="none" stroke="#63b8ff" d="M753.44,-342.23C820.1,-338.47 923,-327.21 1005.69,-294 1027.32,-285.32 1029.14,-276.69 1048.69,-264 1064.97,-253.44 1083.43,-242.24 1098.8,-233.13"/>
<polygon fill="#63b8ff" stroke="#63b8ff" points="1100.62,-236.12 1107.46,-228.02 1097.07,-230.09 1100.62,-236.12"/>
</a>
</g>
</g>
<!-- Node62&#45;&gt;Node38 -->
<g id="edge63_Node000062_Node000038" class="edge">
<title>Node62&#45;&gt;Node38</title>
<g id="a_edge63_Node000062_Node000038"><a xlink:title=" ">
<path fill="none" stroke="#63b8ff" d="M704.89,-329.8C719.72,-319.37 739.81,-305.24 754.8,-294.69"/>
<polygon fill="#63b8ff" stroke="#63b8ff" points="757.21,-297.27 763.38,-288.66 753.19,-291.55 757.21,-297.27"/>
</a>
</g>
</g>
</g>
</svg>
