<?xml version="1.0" encoding="UTF-8" standalone="no"?>
<!DOCTYPE svg PUBLIC "-//W3C//DTD SVG 1.1//EN"
 "http://www.w3.org/Graphics/SVG/1.1/DTD/svg11.dtd">
<!-- Generated by graphviz version 2.43.0 (0)
 -->
<!-- Title: /home/runner/work/lethe/lethe/include/dem/log_collision_data.h Pages: 1 -->
<svg width="837pt" height="368pt"
 viewBox="0.00 0.00 837.00 368.00" xmlns="http://www.w3.org/2000/svg" xmlns:xlink="http://www.w3.org/1999/xlink">
<g id="graph0" class="graph" transform="scale(1 1) rotate(0) translate(4 364)">
<title>/home/runner/work/lethe/lethe/include/dem/log_collision_data.h</title>
<!-- Node1 -->
<g id="Node000001" class="node">
<title>Node1</title>
<g id="a_Node000001"><a xlink:title=" ">
<polygon fill="#999999" stroke="#666666" points="683,-360 546,-360 546,-319 683,-319 683,-360"/>
<text text-anchor="start" x="554" y="-348" font-family="Helvetica,sans-Serif" font-size="10.00">/home/runner/work/lethe</text>
<text text-anchor="start" x="554" y="-337" font-family="Helvetica,sans-Serif" font-size="10.00">/lethe/include/dem/log</text>
<text text-anchor="middle" x="614.5" y="-326" font-family="Helvetica,sans-Serif" font-size="10.00">_collision_data.h</text>
</a>
</g>
</g>
<!-- Node2 -->
<g id="Node000002" class="node">
<title>Node2</title>
<g id="a_Node000002"><a xlink:href="dem_8h.html" target="_top" xlink:title=" ">
<polygon fill="white" stroke="#666666" points="480,-277.5 339,-277.5 339,-247.5 480,-247.5 480,-277.5"/>
<text text-anchor="start" x="347" y="-265.5" font-family="Helvetica,sans-Serif" font-size="10.00">/home/runner/work/lethe</text>
<text text-anchor="middle" x="409.5" y="-254.5" font-family="Helvetica,sans-Serif" font-size="10.00">/lethe/include/dem/dem.h</text>
</a>
</g>
</g>
<!-- Node1&#45;&gt;Node2 -->
<g id="edge1_Node000001_Node000002" class="edge">
<title>Node1&#45;&gt;Node2</title>
<g id="a_edge1_Node000001_Node000002"><a xlink:title=" ">
<path fill="none" stroke="#63b8ff" d="M551.38,-315.41C517.59,-303.05 477.06,-288.22 447.99,-277.58"/>
<polygon fill="#63b8ff" stroke="#63b8ff" points="550.58,-318.84 561.17,-318.99 552.99,-312.27 550.58,-318.84"/>
</a>
</g>
</g>
<!-- Node10 -->
<g id="Node000010" class="node">
<title>Node10</title>
<g id="a_Node000010"><a xlink:href="fluid__dynamics__sharp_8h.html" target="_top" xlink:title=" ">
<polygon fill="white" stroke="#666666" points="635,-283 498,-283 498,-242 635,-242 635,-283"/>
<text text-anchor="start" x="506" y="-271" font-family="Helvetica,sans-Serif" font-size="10.00">/home/runner/work/lethe</text>
<text text-anchor="start" x="506" y="-260" font-family="Helvetica,sans-Serif" font-size="10.00">/lethe/include/fem&#45;dem</text>
<text text-anchor="middle" x="566.5" y="-249" font-family="Helvetica,sans-Serif" font-size="10.00">/fluid_dynamics_sharp.h</text>
</a>
</g>
</g>
<!-- Node1&#45;&gt;Node10 -->
<g id="edge10_Node000001_Node000010" class="edge">
<title>Node1&#45;&gt;Node10</title>
<g id="a_edge10_Node000001_Node000010"><a xlink:title=" ">
<path fill="none" stroke="#63b8ff" d="M596.33,-310.11C590.56,-301.09 584.31,-291.33 579.03,-283.07"/>
<polygon fill="#63b8ff" stroke="#63b8ff" points="593.55,-312.26 601.89,-318.79 599.45,-308.49 593.55,-312.26"/>
</a>
</g>
</g>
<!-- Node11 -->
<g id="Node000011" class="node">
<title>Node11</title>
<g id="a_Node000011"><a xlink:href="fluid__dynamics__sharp_8cc.html" target="_top" xlink:title=" ">
<polygon fill="white" stroke="#666666" points="719,-206 580,-206 580,-165 719,-165 719,-206"/>
<text text-anchor="start" x="588" y="-194" font-family="Helvetica,sans-Serif" font-size="10.00">/home/runner/work/lethe</text>
<text text-anchor="start" x="588" y="-183" font-family="Helvetica,sans-Serif" font-size="10.00">/lethe/source/fem&#45;dem</text>
<text text-anchor="middle" x="649.5" y="-172" font-family="Helvetica,sans-Serif" font-size="10.00">/fluid_dynamics_sharp.cc</text>
</a>
</g>
</g>
<!-- Node1&#45;&gt;Node11 -->
<g id="edge13_Node000001_Node000011" class="edge">
<title>Node1&#45;&gt;Node11</title>
<g id="a_edge13_Node000001_Node000011"><a xlink:title=" ">
<path fill="none" stroke="#63b8ff" d="M632.92,-310.19C637.52,-301.76 641.89,-292.29 644.5,-283 651.75,-257.16 651.89,-225.92 650.98,-206.13"/>
<polygon fill="#63b8ff" stroke="#63b8ff" points="629.88,-308.46 627.9,-318.87 635.94,-311.96 629.88,-308.46"/>
</a>
</g>
</g>
<!-- Node12 -->
<g id="Node000012" class="node">
<title>Node12</title>
<g id="a_Node000012"><a xlink:href="log__collision__data_8cc.html" target="_top" xlink:title=" ">
<polygon fill="white" stroke="#666666" points="829,-283 692,-283 692,-242 829,-242 829,-283"/>
<text text-anchor="start" x="700" y="-271" font-family="Helvetica,sans-Serif" font-size="10.00">/home/runner/work/lethe</text>
<text text-anchor="start" x="700" y="-260" font-family="Helvetica,sans-Serif" font-size="10.00">/lethe/source/dem/log</text>
<text text-anchor="middle" x="760.5" y="-249" font-family="Helvetica,sans-Serif" font-size="10.00">_collision_data.cc</text>
</a>
</g>
</g>
<!-- Node1&#45;&gt;Node12 -->
<g id="edge12_Node000001_Node000012" class="edge">
<title>Node1&#45;&gt;Node12</title>
<g id="a_edge12_Node000001_Node000012"><a xlink:title=" ">
<path fill="none" stroke="#63b8ff" d="M661.59,-314.31C681.27,-304.2 703.85,-292.6 722.46,-283.04"/>
<polygon fill="#63b8ff" stroke="#63b8ff" points="659.77,-311.31 652.48,-318.99 662.97,-317.53 659.77,-311.31"/>
</a>
</g>
</g>
<!-- Node3 -->
<g id="Node000003" class="node">
<title>Node3</title>
<g id="a_Node000003"><a xlink:href="cfd__dem__coupling_8h.html" target="_top" xlink:title=" ">
<polygon fill="white" stroke="#666666" points="540,-123.5 403,-123.5 403,-82.5 540,-82.5 540,-123.5"/>
<text text-anchor="start" x="411" y="-111.5" font-family="Helvetica,sans-Serif" font-size="10.00">/home/runner/work/lethe</text>
<text text-anchor="start" x="411" y="-100.5" font-family="Helvetica,sans-Serif" font-size="10.00">/lethe/include/fem&#45;dem</text>
<text text-anchor="middle" x="471.5" y="-89.5" font-family="Helvetica,sans-Serif" font-size="10.00">/cfd_dem_coupling.h</text>
</a>
</g>
</g>
<!-- Node2&#45;&gt;Node3 -->
<g id="edge2_Node000002_Node000003" class="edge">
<title>Node2&#45;&gt;Node3</title>
<g id="a_edge2_Node000002_Node000003"><a xlink:title=" ">
<path fill="none" stroke="#63b8ff" d="M461.43,-243.01C477.85,-234.42 494.15,-222.39 503.5,-206 518.59,-179.57 501.21,-145.14 486.77,-123.81"/>
<polygon fill="#63b8ff" stroke="#63b8ff" points="459.79,-239.91 452.33,-247.44 462.85,-246.21 459.79,-239.91"/>
</a>
</g>
</g>
<!-- Node5 -->
<g id="Node000005" class="node">
<title>Node5</title>
<g id="a_Node000005"><a xlink:href="cfd__dem__coupling__matrix__free_8h.html" target="_top" xlink:title=" ">
<polygon fill="white" stroke="#666666" points="179,-206 0,-206 0,-165 179,-165 179,-206"/>
<text text-anchor="start" x="8" y="-194" font-family="Helvetica,sans-Serif" font-size="10.00">/home/runner/work/lethe</text>
<text text-anchor="start" x="8" y="-183" font-family="Helvetica,sans-Serif" font-size="10.00">/lethe/include/fem&#45;dem</text>
<text text-anchor="middle" x="89.5" y="-172" font-family="Helvetica,sans-Serif" font-size="10.00">/cfd_dem_coupling_matrix_free.h</text>
</a>
</g>
</g>
<!-- Node2&#45;&gt;Node5 -->
<g id="edge4_Node000002_Node000005" class="edge">
<title>Node2&#45;&gt;Node5</title>
<g id="a_edge4_Node000002_Node000005"><a xlink:title=" ">
<path fill="none" stroke="#63b8ff" d="M339.79,-245.16C290.69,-233.65 224.74,-218.2 172.86,-206.04"/>
<polygon fill="#63b8ff" stroke="#63b8ff" points="339.15,-248.61 349.69,-247.48 340.75,-241.79 339.15,-248.61"/>
</a>
</g>
</g>
<!-- Node7 -->
<g id="Node000007" class="node">
<title>Node7</title>
<g id="a_Node000007"><a xlink:href="fluid__dynamics__vans_8h.html" target="_top" xlink:title=" ">
<polygon fill="white" stroke="#666666" points="334,-206 197,-206 197,-165 334,-165 334,-206"/>
<text text-anchor="start" x="205" y="-194" font-family="Helvetica,sans-Serif" font-size="10.00">/home/runner/work/lethe</text>
<text text-anchor="start" x="205" y="-183" font-family="Helvetica,sans-Serif" font-size="10.00">/lethe/include/fem&#45;dem</text>
<text text-anchor="middle" x="265.5" y="-172" font-family="Helvetica,sans-Serif" font-size="10.00">/fluid_dynamics_vans.h</text>
</a>
</g>
</g>
<!-- Node2&#45;&gt;Node7 -->
<g id="edge6_Node000002_Node000007" class="edge">
<title>Node2&#45;&gt;Node7</title>
<g id="a_edge6_Node000002_Node000007"><a xlink:title=" ">
<path fill="none" stroke="#63b8ff" d="M373.3,-242.65C351.86,-231.48 324.74,-217.35 303.06,-206.06"/>
<polygon fill="#63b8ff" stroke="#63b8ff" points="371.93,-245.88 382.41,-247.39 375.16,-239.67 371.93,-245.88"/>
</a>
</g>
</g>
<!-- Node9 -->
<g id="Node000009" class="node">
<title>Node9</title>
<g id="a_Node000009"><a xlink:href="dem_8cc.html" target="_top" xlink:title=" ">
<polygon fill="white" stroke="#666666" points="495,-200.5 352,-200.5 352,-170.5 495,-170.5 495,-200.5"/>
<text text-anchor="start" x="360" y="-188.5" font-family="Helvetica,sans-Serif" font-size="10.00">/home/runner/work/lethe</text>
<text text-anchor="middle" x="423.5" y="-177.5" font-family="Helvetica,sans-Serif" font-size="10.00">/lethe/source/dem/dem.cc</text>
</a>
</g>
</g>
<!-- Node2&#45;&gt;Node9 -->
<g id="edge9_Node000002_Node000009" class="edge">
<title>Node2&#45;&gt;Node9</title>
<g id="a_edge9_Node000002_Node000009"><a xlink:title=" ">
<path fill="none" stroke="#63b8ff" d="M414,-237.41C416.27,-225.24 418.95,-210.9 420.88,-200.54"/>
<polygon fill="#63b8ff" stroke="#63b8ff" points="410.53,-236.92 412.13,-247.39 417.41,-238.21 410.53,-236.92"/>
</a>
</g>
</g>
<!-- Node4 -->
<g id="Node000004" class="node">
<title>Node4</title>
<g id="a_Node000004"><a xlink:href="cfd__dem__coupling_8cc.html" target="_top" xlink:title=" ">
<polygon fill="white" stroke="#666666" points="540,-41 403,-41 403,0 540,0 540,-41"/>
<text text-anchor="start" x="411" y="-29" font-family="Helvetica,sans-Serif" font-size="10.00">/home/runner/work/lethe</text>
<text text-anchor="start" x="411" y="-18" font-family="Helvetica,sans-Serif" font-size="10.00">/lethe/source/fem&#45;dem</text>
<text text-anchor="middle" x="471.5" y="-7" font-family="Helvetica,sans-Serif" font-size="10.00">/cfd_dem_coupling.cc</text>
</a>
</g>
</g>
<!-- Node3&#45;&gt;Node4 -->
<g id="edge3_Node000003_Node000004" class="edge">
<title>Node3&#45;&gt;Node4</title>
<g id="a_edge3_Node000003_Node000004"><a xlink:title=" ">
<path fill="none" stroke="#63b8ff" d="M471.5,-71.87C471.5,-61.6 471.5,-50.4 471.5,-41.17"/>
<polygon fill="#63b8ff" stroke="#63b8ff" points="468,-72.1 471.5,-82.1 475,-72.1 468,-72.1"/>
</a>
</g>
</g>
<!-- Node6 -->
<g id="Node000006" class="node">
<title>Node6</title>
<g id="a_Node000006"><a xlink:href="cfd__dem__coupling__matrix__free_8cc.html" target="_top" xlink:title=" ">
<polygon fill="white" stroke="#666666" points="162.5,-129 16.5,-129 16.5,-77 162.5,-77 162.5,-129"/>
<text text-anchor="start" x="24.5" y="-117" font-family="Helvetica,sans-Serif" font-size="10.00">/home/runner/work/lethe</text>
<text text-anchor="start" x="24.5" y="-106" font-family="Helvetica,sans-Serif" font-size="10.00">/lethe/source/fem&#45;dem</text>
<text text-anchor="start" x="24.5" y="-95" font-family="Helvetica,sans-Serif" font-size="10.00">/cfd_dem_coupling_matrix</text>
<text text-anchor="middle" x="89.5" y="-84" font-family="Helvetica,sans-Serif" font-size="10.00">_free.cc</text>
</a>
</g>
</g>
<!-- Node5&#45;&gt;Node6 -->
<g id="edge5_Node000005_Node000006" class="edge">
<title>Node5&#45;&gt;Node6</title>
<g id="a_edge5_Node000005_Node000006"><a xlink:title=" ">
<path fill="none" stroke="#63b8ff" d="M89.5,-154.49C89.5,-146.15 89.5,-137.19 89.5,-129.16"/>
<polygon fill="#63b8ff" stroke="#63b8ff" points="86,-154.6 89.5,-164.6 93,-154.6 86,-154.6"/>
</a>
</g>
</g>
<!-- Node7&#45;&gt;Node3 -->
<g id="edge7_Node000007_Node000003" class="edge">
<title>Node7&#45;&gt;Node3</title>
<g id="a_edge7_Node000007_Node000003"><a xlink:title=" ">
<path fill="none" stroke="#63b8ff" d="M325.3,-161.13C355.82,-149.21 392.51,-134.87 421.5,-123.54"/>
<polygon fill="#63b8ff" stroke="#63b8ff" points="323.67,-158.01 315.63,-164.91 326.22,-164.53 323.67,-158.01"/>
</a>
</g>
</g>
<!-- Node8 -->
<g id="Node000008" class="node">
<title>Node8</title>
<g id="a_Node000008"><a xlink:href="fluid__dynamics__vans_8cc.html" target="_top" xlink:title=" ">
<polygon fill="white" stroke="#666666" points="334,-123.5 197,-123.5 197,-82.5 334,-82.5 334,-123.5"/>
<text text-anchor="start" x="205" y="-111.5" font-family="Helvetica,sans-Serif" font-size="10.00">/home/runner/work/lethe</text>
<text text-anchor="start" x="205" y="-100.5" font-family="Helvetica,sans-Serif" font-size="10.00">/lethe/source/fem&#45;dem</text>
<text text-anchor="middle" x="265.5" y="-89.5" font-family="Helvetica,sans-Serif" font-size="10.00">/fluid_dynamics_vans.cc</text>
</a>
</g>
</g>
<!-- Node7&#45;&gt;Node8 -->
<g id="edge8_Node000007_Node000008" class="edge">
<title>Node7&#45;&gt;Node8</title>
<g id="a_edge8_Node000007_Node000008"><a xlink:title=" ">
<path fill="none" stroke="#63b8ff" d="M265.5,-154.37C265.5,-144.1 265.5,-132.9 265.5,-123.67"/>
<polygon fill="#63b8ff" stroke="#63b8ff" points="262,-154.6 265.5,-164.6 269,-154.6 262,-154.6"/>
</a>
</g>
</g>
<!-- Node10&#45;&gt;Node11 -->
<g id="edge11_Node000010_Node000011" class="edge">
<title>Node10&#45;&gt;Node11</title>
<g id="a_edge11_Node000010_Node000011"><a xlink:title=" ">
<path fill="none" stroke="#63b8ff" d="M595.75,-235.07C606.31,-225.52 618.04,-214.93 627.84,-206.07"/>
<polygon fill="#63b8ff" stroke="#63b8ff" points="593.38,-232.49 588.31,-241.79 598.07,-237.69 593.38,-232.49"/>
</a>
</g>
</g>
</g>
</svg>
