<?xml version="1.0" encoding="UTF-8" standalone="no"?>
<!DOCTYPE svg PUBLIC "-//W3C//DTD SVG 1.1//EN"
 "http://www.w3.org/Graphics/SVG/1.1/DTD/svg11.dtd">
<!-- Generated by graphviz version 2.43.0 (0)
 -->
<!-- Title: /home/runner/work/lethe/lethe/include/core/magnetic_permeability_model.h Pages: 1 -->
<svg width="2840pt" height="621pt"
 viewBox="0.00 0.00 2839.50 621.00" xmlns="http://www.w3.org/2000/svg" xmlns:xlink="http://www.w3.org/1999/xlink">
<g id="graph0" class="graph" transform="scale(1 1) rotate(0) translate(4 617)">
<title>/home/runner/work/lethe/lethe/include/core/magnetic_permeability_model.h</title>
<!-- Node1 -->
<g id="Node000001" class="node">
<title>Node1</title>
<g id="a_Node000001"><a xlink:title=" ">
<polygon fill="#999999" stroke="#666666" points="1844,-613 1689,-613 1689,-572 1844,-572 1844,-613"/>
<text text-anchor="start" x="1697" y="-601" font-family="Helvetica,sans-Serif" font-size="10.00">/home/runner/work/lethe</text>
<text text-anchor="start" x="1697" y="-590" font-family="Helvetica,sans-Serif" font-size="10.00">/lethe/include/core/magnetic</text>
<text text-anchor="middle" x="1766.5" y="-579" font-family="Helvetica,sans-Serif" font-size="10.00">_permeability_model.h</text>
</a>
</g>
</g>
<!-- Node2 -->
<g id="Node000002" class="node">
<title>Node2</title>
<g id="a_Node000002"><a xlink:href="parameters_8h.html" target="_top" xlink:title=" ">
<polygon fill="white" stroke="#666666" points="1792.5,-349 1686.5,-349 1686.5,-330 1792.5,-330 1792.5,-349"/>
<text text-anchor="middle" x="1739.5" y="-337" font-family="Helvetica,sans-Serif" font-size="10.00">core/parameters.h</text>
</a>
</g>
</g>
<!-- Node1&#45;&gt;Node2 -->
<g id="edge1_Node000001_Node000002" class="edge">
<title>Node1&#45;&gt;Node2</title>
<g id="a_edge1_Node000001_Node000002"><a xlink:title=" ">
<path fill="none" stroke="#63b8ff" d="M1754.18,-571.76C1748.5,-561.51 1742.39,-548.53 1739.5,-536 1724.92,-472.71 1732.14,-394.79 1736.71,-359.49"/>
<polygon fill="#63b8ff" stroke="#63b8ff" points="1740.23,-359.62 1738.13,-349.23 1733.29,-358.66 1740.23,-359.62"/>
</a>
</g>
</g>
<!-- Node39 -->
<g id="Node000039" class="node">
<title>Node39</title>
<g id="a_Node000039"><a xlink:href="physical__property__model_8h.html" target="_top" xlink:title=" ">
<polygon fill="white" stroke="#666666" points="1876.5,-536 1748.5,-536 1748.5,-506 1876.5,-506 1876.5,-536"/>
<text text-anchor="start" x="1756.5" y="-524" font-family="Helvetica,sans-Serif" font-size="10.00">core/physical_property</text>
<text text-anchor="middle" x="1812.5" y="-513" font-family="Helvetica,sans-Serif" font-size="10.00">_model.h</text>
</a>
</g>
</g>
<!-- Node1&#45;&gt;Node39 -->
<g id="edge49_Node000001_Node000039" class="edge">
<title>Node1&#45;&gt;Node39</title>
<g id="a_edge49_Node000001_Node000039"><a xlink:title=" ">
<path fill="none" stroke="#63b8ff" d="M1779.56,-571.77C1785.16,-563.31 1791.73,-553.38 1797.52,-544.63"/>
<polygon fill="#63b8ff" stroke="#63b8ff" points="1800.61,-546.31 1803.21,-536.04 1794.77,-542.45 1800.61,-546.31"/>
</a>
</g>
</g>
<!-- Node3 -->
<g id="Node000003" class="node">
<title>Node3</title>
<g id="a_Node000003"><a xlink:href="dimensionality_8h.html" target="_top" xlink:title=" ">
<polygon fill="white" stroke="#666666" points="908,-222.5 787,-222.5 787,-203.5 908,-203.5 908,-222.5"/>
<text text-anchor="middle" x="847.5" y="-210.5" font-family="Helvetica,sans-Serif" font-size="10.00">core/dimensionality.h</text>
</a>
</g>
</g>
<!-- Node2&#45;&gt;Node3 -->
<g id="edge2_Node000002_Node000003" class="edge">
<title>Node2&#45;&gt;Node3</title>
<g id="a_edge2_Node000002_Node000003"><a xlink:title=" ">
<path fill="none" stroke="#63b8ff" d="M1686.33,-333.27C1610.69,-325.64 1467.77,-310.58 1346.5,-294 1186.67,-272.15 999.03,-240.42 905.97,-224.27"/>
<polygon fill="#63b8ff" stroke="#63b8ff" points="906.36,-220.79 895.91,-222.52 905.16,-227.69 906.36,-220.79"/>
</a>
</g>
</g>
<!-- Node4 -->
<g id="Node000004" class="node">
<title>Node4</title>
<g id="a_Node000004"><a xlink:title=" ">
<polygon fill="#e0e0e0" stroke="#999999" points="127,-96 0,-96 0,-66 127,-66 127,-96"/>
<text text-anchor="start" x="8" y="-84" font-family="Helvetica,sans-Serif" font-size="10.00">deal.II/base/parameter</text>
<text text-anchor="middle" x="63.5" y="-73" font-family="Helvetica,sans-Serif" font-size="10.00">_handler.h</text>
</a>
</g>
</g>
<!-- Node2&#45;&gt;Node4 -->
<g id="edge46_Node000002_Node000004" class="edge">
<title>Node2&#45;&gt;Node4</title>
<g id="a_edge46_Node000002_Node000004"><a xlink:title=" ">
<path fill="none" stroke="#63b8ff" d="M1686.15,-336.04C1582.6,-330.91 1347.27,-317.56 1150.5,-294 791.39,-251 700.56,-240.49 347.5,-162 266.37,-143.96 173.99,-116.65 117.22,-99.07"/>
<polygon fill="#63b8ff" stroke="#63b8ff" points="117.97,-95.64 107.39,-96.01 115.89,-102.32 117.97,-95.64"/>
</a>
</g>
</g>
<!-- Node5 -->
<g id="Node000005" class="node">
<title>Node5</title>
<g id="a_Node000005"><a xlink:href="ib__particle_8h.html" target="_top" xlink:title=" ">
<polygon fill="white" stroke="#666666" points="2312,-288.5 2211,-288.5 2211,-269.5 2312,-269.5 2312,-288.5"/>
<text text-anchor="middle" x="2261.5" y="-276.5" font-family="Helvetica,sans-Serif" font-size="10.00">core/ib_particle.h</text>
</a>
</g>
</g>
<!-- Node2&#45;&gt;Node5 -->
<g id="edge4_Node000002_Node000005" class="edge">
<title>Node2&#45;&gt;Node5</title>
<g id="a_edge4_Node000002_Node000005"><a xlink:title=" ">
<path fill="none" stroke="#63b8ff" d="M1792.91,-332.51C1890.63,-321.56 2097.62,-298.37 2200.63,-286.82"/>
<polygon fill="#63b8ff" stroke="#63b8ff" points="2201.32,-290.27 2210.86,-285.67 2200.54,-283.31 2201.32,-290.27"/>
</a>
</g>
</g>
<!-- Node13 -->
<g id="Node000013" class="node">
<title>Node13</title>
<g id="a_Node000013"><a xlink:href="core_2utilities_8h.html" target="_top" xlink:title=" ">
<polygon fill="white" stroke="#666666" points="906.5,-156.5 820.5,-156.5 820.5,-137.5 906.5,-137.5 906.5,-156.5"/>
<text text-anchor="middle" x="863.5" y="-144.5" font-family="Helvetica,sans-Serif" font-size="10.00">core/utilities.h</text>
</a>
</g>
</g>
<!-- Node2&#45;&gt;Node13 -->
<g id="edge45_Node000002_Node000013" class="edge">
<title>Node2&#45;&gt;Node13</title>
<g id="a_edge45_Node000002_Node000013"><a xlink:title=" ">
<path fill="none" stroke="#63b8ff" d="M1697.64,-329.92C1576.87,-305.07 1217.43,-230.45 920.5,-162 916.31,-161.03 911.95,-160.01 907.6,-158.96"/>
<polygon fill="#63b8ff" stroke="#63b8ff" points="908.06,-155.48 897.52,-156.52 906.42,-162.28 908.06,-155.48"/>
</a>
</g>
</g>
<!-- Node36 -->
<g id="Node000036" class="node">
<title>Node36</title>
<g id="a_Node000036"><a xlink:title=" ">
<polygon fill="#e0e0e0" stroke="#999999" points="1710,-228 1601,-228 1601,-198 1710,-198 1710,-228"/>
<text text-anchor="start" x="1609" y="-216" font-family="Helvetica,sans-Serif" font-size="10.00">deal.II/base/parsed</text>
<text text-anchor="middle" x="1655.5" y="-205" font-family="Helvetica,sans-Serif" font-size="10.00">_function.h</text>
</a>
</g>
</g>
<!-- Node2&#45;&gt;Node36 -->
<g id="edge47_Node000002_Node000036" class="edge">
<title>Node2&#45;&gt;Node36</title>
<g id="a_edge47_Node000002_Node000036"><a xlink:title=" ">
<path fill="none" stroke="#63b8ff" d="M1719.77,-329.88C1705.09,-322.45 1685.73,-310.35 1674.5,-294 1663.23,-277.59 1658.6,-255.32 1656.72,-238.44"/>
<polygon fill="#63b8ff" stroke="#63b8ff" points="1660.19,-237.91 1655.84,-228.25 1653.21,-238.51 1660.19,-237.91"/>
</a>
</g>
</g>
<!-- Node37 -->
<g id="Node000037" class="node">
<title>Node37</title>
<g id="a_Node000037"><a xlink:href="multiphysics_8h.html" target="_top" xlink:title="Identifiers for multiphysics modules and their solution fields.">
<polygon fill="white" stroke="#666666" points="1795.5,-288.5 1683.5,-288.5 1683.5,-269.5 1795.5,-269.5 1795.5,-288.5"/>
<text text-anchor="middle" x="1739.5" y="-276.5" font-family="Helvetica,sans-Serif" font-size="10.00">core/multiphysics.h</text>
</a>
</g>
</g>
<!-- Node2&#45;&gt;Node37 -->
<g id="edge44_Node000002_Node000037" class="edge">
<title>Node2&#45;&gt;Node37</title>
<g id="a_edge44_Node000002_Node000037"><a xlink:title=" ">
<path fill="none" stroke="#63b8ff" d="M1739.5,-329.87C1739.5,-321.75 1739.5,-309.31 1739.5,-298.89"/>
<polygon fill="#63b8ff" stroke="#63b8ff" points="1743,-298.67 1739.5,-288.67 1736,-298.67 1743,-298.67"/>
</a>
</g>
</g>
<!-- Node38 -->
<g id="Node000038" class="node">
<title>Node38</title>
<g id="a_Node000038"><a xlink:title=" ">
<polygon fill="#e0e0e0" stroke="#999999" points="1977,-294 1814,-294 1814,-264 1977,-264 1977,-294"/>
<text text-anchor="start" x="1822" y="-282" font-family="Helvetica,sans-Serif" font-size="10.00">deal.II/multigrid/mg</text>
<text text-anchor="middle" x="1895.5" y="-271" font-family="Helvetica,sans-Serif" font-size="10.00">_transfer_global_coarsening.h</text>
</a>
</g>
</g>
<!-- Node2&#45;&gt;Node38 -->
<g id="edge48_Node000002_Node000038" class="edge">
<title>Node2&#45;&gt;Node38</title>
<g id="a_edge48_Node000002_Node000038"><a xlink:title=" ">
<path fill="none" stroke="#63b8ff" d="M1762.18,-329.99C1784.73,-321.54 1819.99,-308.32 1848.58,-297.59"/>
<polygon fill="#63b8ff" stroke="#63b8ff" points="1849.86,-300.85 1858,-294.06 1847.4,-294.3 1849.86,-300.85"/>
</a>
</g>
</g>
<!-- Node3&#45;&gt;Node4 -->
<g id="edge3_Node000003_Node000004" class="edge">
<title>Node3&#45;&gt;Node4</title>
<g id="a_edge3_Node000003_Node000004"><a xlink:title=" ">
<path fill="none" stroke="#63b8ff" d="M792.1,-203.5C673.89,-185.24 388,-140.46 137.21,-96.1"/>
<polygon fill="#63b8ff" stroke="#63b8ff" points="137.64,-92.62 127.18,-94.32 136.42,-99.51 137.64,-92.62"/>
</a>
</g>
</g>
<!-- Node6 -->
<g id="Node000006" class="node">
<title>Node6</title>
<g id="a_Node000006"><a xlink:href="dem__properties_8h.html" target="_top" xlink:title="DEM particle property definitions and output name management.">
<polygon fill="white" stroke="#666666" points="2631.5,-156.5 2505.5,-156.5 2505.5,-137.5 2631.5,-137.5 2631.5,-156.5"/>
<text text-anchor="middle" x="2568.5" y="-144.5" font-family="Helvetica,sans-Serif" font-size="10.00">core/dem_properties.h</text>
</a>
</g>
</g>
<!-- Node5&#45;&gt;Node6 -->
<g id="edge5_Node000005_Node000006" class="edge">
<title>Node5&#45;&gt;Node6</title>
<g id="a_edge5_Node000005_Node000006"><a xlink:title=" ">
<path fill="none" stroke="#63b8ff" d="M2312.03,-275.47C2360.73,-271.15 2435.13,-259.48 2491.5,-228 2519.43,-212.4 2543.51,-183.41 2556.99,-164.94"/>
<polygon fill="#63b8ff" stroke="#63b8ff" points="2559.97,-166.78 2562.88,-156.6 2554.26,-162.74 2559.97,-166.78"/>
</a>
</g>
</g>
<!-- Node8 -->
<g id="Node000008" class="node">
<title>Node8</title>
<g id="a_Node000008"><a xlink:title=" ">
<polygon fill="#e0e0e0" stroke="#999999" points="2637,-90.5 2590,-90.5 2590,-71.5 2637,-71.5 2637,-90.5"/>
<text text-anchor="middle" x="2613.5" y="-78.5" font-family="Helvetica,sans-Serif" font-size="10.00">vector</text>
</a>
</g>
</g>
<!-- Node5&#45;&gt;Node8 -->
<g id="edge43_Node000005_Node000008" class="edge">
<title>Node5&#45;&gt;Node8</title>
<g id="a_edge43_Node000005_Node000008"><a xlink:title=" ">
<path fill="none" stroke="#63b8ff" d="M2312.33,-273.14C2365.88,-266.91 2452.06,-253.68 2522.5,-228 2578.96,-207.42 2610.1,-213.83 2640.5,-162 2652.26,-141.94 2639.08,-116.03 2627.35,-99.21"/>
<polygon fill="#63b8ff" stroke="#63b8ff" points="2629.94,-96.83 2621.15,-90.9 2624.33,-101.01 2629.94,-96.83"/>
</a>
</g>
</g>
<!-- Node9 -->
<g id="Node000009" class="node">
<title>Node9</title>
<g id="a_Node000009"><a xlink:href="shape_8h.html" target="_top" xlink:title=" ">
<polygon fill="white" stroke="#666666" points="1807,-222.5 1728,-222.5 1728,-203.5 1807,-203.5 1807,-222.5"/>
<text text-anchor="middle" x="1767.5" y="-210.5" font-family="Helvetica,sans-Serif" font-size="10.00">core/shape.h</text>
</a>
</g>
</g>
<!-- Node5&#45;&gt;Node9 -->
<g id="edge8_Node000005_Node000009" class="edge">
<title>Node5&#45;&gt;Node9</title>
<g id="a_edge8_Node000005_Node000009"><a xlink:title=" ">
<path fill="none" stroke="#63b8ff" d="M2210.95,-271.45C2115.91,-259.14 1911.65,-232.68 1817.23,-220.44"/>
<polygon fill="#63b8ff" stroke="#63b8ff" points="1817.45,-216.94 1807.09,-219.13 1816.55,-223.88 1817.45,-216.94"/>
</a>
</g>
</g>
<!-- Node11 -->
<g id="Node000011" class="node">
<title>Node11</title>
<g id="a_Node000011"><a xlink:title=" ">
<polygon fill="#e0e0e0" stroke="#999999" points="1587.5,-90.5 1477.5,-90.5 1477.5,-71.5 1587.5,-71.5 1587.5,-90.5"/>
<text text-anchor="middle" x="1532.5" y="-78.5" font-family="Helvetica,sans-Serif" font-size="10.00">deal.II/base/point.h</text>
</a>
</g>
</g>
<!-- Node5&#45;&gt;Node11 -->
<g id="edge42_Node000005_Node000011" class="edge">
<title>Node5&#45;&gt;Node11</title>
<g id="a_edge42_Node000005_Node000011"><a xlink:title=" ">
<path fill="none" stroke="#63b8ff" d="M2292.51,-269.43C2361.57,-248.97 2517.5,-194.27 2458.5,-132 2428.93,-100.79 1803.79,-86.85 1597.73,-83.09"/>
<polygon fill="#63b8ff" stroke="#63b8ff" points="1597.72,-79.59 1587.66,-82.91 1597.59,-86.59 1597.72,-79.59"/>
</a>
</g>
</g>
<!-- Node5&#45;&gt;Node36 -->
<g id="edge41_Node000005_Node000036" class="edge">
<title>Node5&#45;&gt;Node36</title>
<g id="a_edge41_Node000005_Node000036"><a xlink:title=" ">
<path fill="none" stroke="#63b8ff" d="M2210.81,-275.42C2116.27,-270.14 1906.57,-256.31 1720.21,-227.97"/>
<polygon fill="#63b8ff" stroke="#63b8ff" points="1720.65,-224.5 1710.23,-226.44 1719.58,-231.42 1720.65,-224.5"/>
</a>
</g>
</g>
<!-- Node7 -->
<g id="Node000007" class="node">
<title>Node7</title>
<g id="a_Node000007"><a xlink:title=" ">
<polygon fill="#e0e0e0" stroke="#999999" points="2163.5,-90.5 2119.5,-90.5 2119.5,-71.5 2163.5,-71.5 2163.5,-90.5"/>
<text text-anchor="middle" x="2141.5" y="-78.5" font-family="Helvetica,sans-Serif" font-size="10.00">string</text>
</a>
</g>
</g>
<!-- Node6&#45;&gt;Node7 -->
<g id="edge6_Node000006_Node000007" class="edge">
<title>Node6&#45;&gt;Node7</title>
<g id="a_edge6_Node000006_Node000007"><a xlink:title=" ">
<path fill="none" stroke="#63b8ff" d="M2523.35,-137.5C2512.91,-135.61 2501.83,-133.68 2491.5,-132 2374.9,-113.08 2235.82,-94.35 2173.94,-86.22"/>
<polygon fill="#63b8ff" stroke="#63b8ff" points="2174.03,-82.7 2163.66,-84.87 2173.12,-89.64 2174.03,-82.7"/>
</a>
</g>
</g>
<!-- Node6&#45;&gt;Node8 -->
<g id="edge7_Node000006_Node000008" class="edge">
<title>Node6&#45;&gt;Node8</title>
<g id="a_edge7_Node000006_Node000008"><a xlink:title=" ">
<path fill="none" stroke="#63b8ff" d="M2574.57,-137.37C2581.37,-127.69 2592.59,-111.74 2601.24,-99.44"/>
<polygon fill="#63b8ff" stroke="#63b8ff" points="2604.35,-101.1 2607.24,-90.91 2598.62,-97.07 2604.35,-101.1"/>
</a>
</g>
</g>
<!-- Node10 -->
<g id="Node000010" class="node">
<title>Node10</title>
<g id="a_Node000010"><a xlink:href="tensors__and__points__dimension__manipulation_8h.html" target="_top" xlink:title=" ">
<polygon fill="white" stroke="#666666" points="1114.5,-162 962.5,-162 962.5,-132 1114.5,-132 1114.5,-162"/>
<text text-anchor="start" x="970.5" y="-150" font-family="Helvetica,sans-Serif" font-size="10.00">core/tensors_and_points</text>
<text text-anchor="middle" x="1038.5" y="-139" font-family="Helvetica,sans-Serif" font-size="10.00">_dimension_manipulation.h</text>
</a>
</g>
</g>
<!-- Node9&#45;&gt;Node10 -->
<g id="edge9_Node000009_Node000010" class="edge">
<title>Node9&#45;&gt;Node10</title>
<g id="a_edge9_Node000009_Node000010"><a xlink:title=" ">
<path fill="none" stroke="#63b8ff" d="M1742.09,-203.44C1734.87,-201.32 1726.94,-199.29 1719.5,-198 1461.37,-153.14 1389.04,-190.63 1125.18,-162.1"/>
<polygon fill="#63b8ff" stroke="#63b8ff" points="1125.23,-158.58 1114.9,-160.97 1124.46,-165.54 1125.23,-158.58"/>
</a>
</g>
</g>
<!-- Node9&#45;&gt;Node13 -->
<g id="edge12_Node000009_Node000013" class="edge">
<title>Node9&#45;&gt;Node13</title>
<g id="a_edge12_Node000009_Node000013"><a xlink:title=" ">
<path fill="none" stroke="#63b8ff" d="M1742.35,-203.44C1735.06,-201.3 1727.04,-199.25 1719.5,-198 1368.82,-139.82 1272.35,-212.64 920.5,-162 914.95,-161.2 909.16,-160.1 903.48,-158.86"/>
<polygon fill="#63b8ff" stroke="#63b8ff" points="903.99,-155.39 893.46,-156.52 902.4,-162.21 903.99,-155.39"/>
</a>
</g>
</g>
<!-- Node18 -->
<g id="Node000018" class="node">
<title>Node18</title>
<g id="a_Node000018"><a xlink:title=" ">
<polygon fill="#e0e0e0" stroke="#999999" points="1325.5,-90.5 1185.5,-90.5 1185.5,-71.5 1325.5,-71.5 1325.5,-90.5"/>
<text text-anchor="middle" x="1255.5" y="-78.5" font-family="Helvetica,sans-Serif" font-size="10.00">deal.II/dofs/dof_handler.h</text>
</a>
</g>
</g>
<!-- Node9&#45;&gt;Node18 -->
<g id="edge36_Node000009_Node000018" class="edge">
<title>Node9&#45;&gt;Node18</title>
<g id="a_edge36_Node000009_Node000018"><a xlink:title=" ">
<path fill="none" stroke="#63b8ff" d="M1742.35,-203.45C1735.06,-201.3 1727.03,-199.26 1719.5,-198 1635.46,-183.97 1012.32,-223.65 953.5,-162 895.88,-101.6 898.09,-142.76 1175.5,-96 1182.57,-94.81 1190,-93.54 1197.35,-92.26"/>
<polygon fill="#63b8ff" stroke="#63b8ff" points="1198.04,-95.7 1207.29,-90.54 1196.84,-88.8 1198.04,-95.7"/>
</a>
</g>
</g>
<!-- Node26 -->
<g id="Node000026" class="node">
<title>Node26</title>
<g id="a_Node000026"><a xlink:title=" ">
<polygon fill="#e0e0e0" stroke="#999999" points="2163.5,-162 2011.5,-162 2011.5,-132 2163.5,-132 2163.5,-162"/>
<text text-anchor="start" x="2019.5" y="-150" font-family="Helvetica,sans-Serif" font-size="10.00">deal.II/base/auto_derivative</text>
<text text-anchor="middle" x="2087.5" y="-139" font-family="Helvetica,sans-Serif" font-size="10.00">_function.h</text>
</a>
</g>
</g>
<!-- Node9&#45;&gt;Node26 -->
<g id="edge30_Node000009_Node000026" class="edge">
<title>Node9&#45;&gt;Node26</title>
<g id="a_edge30_Node000009_Node000026"><a xlink:title=" ">
<path fill="none" stroke="#63b8ff" d="M1807.06,-204.09C1856.82,-194.14 1943.47,-176.81 2007.32,-164.04"/>
<polygon fill="#63b8ff" stroke="#63b8ff" points="2008.25,-167.42 2017.37,-162.03 2006.87,-160.56 2008.25,-167.42"/>
</a>
</g>
</g>
<!-- Node27 -->
<g id="Node000027" class="node">
<title>Node27</title>
<g id="a_Node000027"><a xlink:title=" ">
<polygon fill="#e0e0e0" stroke="#999999" points="2307,-156.5 2182,-156.5 2182,-137.5 2307,-137.5 2307,-156.5"/>
<text text-anchor="middle" x="2244.5" y="-144.5" font-family="Helvetica,sans-Serif" font-size="10.00">deal.II/base/function.h</text>
</a>
</g>
</g>
<!-- Node9&#45;&gt;Node27 -->
<g id="edge31_Node000009_Node000027" class="edge">
<title>Node9&#45;&gt;Node27</title>
<g id="a_edge31_Node000009_Node000027"><a xlink:title=" ">
<path fill="none" stroke="#63b8ff" d="M1807.01,-208.04C1879.61,-200.56 2039.03,-183.19 2172.5,-162 2179.18,-160.94 2186.18,-159.72 2193.08,-158.45"/>
<polygon fill="#63b8ff" stroke="#63b8ff" points="2193.91,-161.85 2203.09,-156.56 2192.61,-154.97 2193.91,-161.85"/>
</a>
</g>
</g>
<!-- Node28 -->
<g id="Node000028" class="node">
<title>Node28</title>
<g id="a_Node000028"><a xlink:title=" ">
<polygon fill="#e0e0e0" stroke="#999999" points="2449.5,-156.5 2325.5,-156.5 2325.5,-137.5 2449.5,-137.5 2449.5,-156.5"/>
<text text-anchor="middle" x="2387.5" y="-144.5" font-family="Helvetica,sans-Serif" font-size="10.00">deal.II/grid/manifold.h</text>
</a>
</g>
</g>
<!-- Node9&#45;&gt;Node28 -->
<g id="edge32_Node000009_Node000028" class="edge">
<title>Node9&#45;&gt;Node28</title>
<g id="a_edge32_Node000009_Node000028"><a xlink:title=" ">
<path fill="none" stroke="#63b8ff" d="M1807.28,-209.8C1897.95,-204.47 2126.8,-189.27 2316.5,-162 2323.6,-160.98 2331.06,-159.72 2338.37,-158.38"/>
<polygon fill="#63b8ff" stroke="#63b8ff" points="2339.02,-161.81 2348.19,-156.51 2337.71,-154.94 2339.02,-161.81"/>
</a>
</g>
</g>
<!-- Node29 -->
<g id="Node000029" class="node">
<title>Node29</title>
<g id="a_Node000029"><a xlink:title=" ">
<polygon fill="#e0e0e0" stroke="#999999" points="1248,-162 1133,-162 1133,-132 1248,-132 1248,-162"/>
<text text-anchor="start" x="1141" y="-150" font-family="Helvetica,sans-Serif" font-size="10.00">deal.II/grid/manifold</text>
<text text-anchor="middle" x="1190.5" y="-139" font-family="Helvetica,sans-Serif" font-size="10.00">_lib.h</text>
</a>
</g>
</g>
<!-- Node9&#45;&gt;Node29 -->
<g id="edge33_Node000009_Node000029" class="edge">
<title>Node9&#45;&gt;Node29</title>
<g id="a_edge33_Node000009_Node000029"><a xlink:title=" ">
<path fill="none" stroke="#63b8ff" d="M1741.83,-203.45C1734.67,-201.36 1726.84,-199.34 1719.5,-198 1519.73,-161.5 1462.62,-190.51 1258.18,-162.11"/>
<polygon fill="#63b8ff" stroke="#63b8ff" points="1258.41,-158.6 1248.01,-160.66 1257.42,-165.53 1258.41,-158.6"/>
</a>
</g>
</g>
<!-- Node30 -->
<g id="Node000030" class="node">
<title>Node30</title>
<g id="a_Node000030"><a xlink:title=" ">
<polygon fill="#e0e0e0" stroke="#999999" points="1381,-162 1266,-162 1266,-132 1381,-132 1381,-162"/>
<text text-anchor="start" x="1274" y="-150" font-family="Helvetica,sans-Serif" font-size="10.00">boost/range/adaptor</text>
<text text-anchor="middle" x="1323.5" y="-139" font-family="Helvetica,sans-Serif" font-size="10.00">/map.hpp</text>
</a>
</g>
</g>
<!-- Node9&#45;&gt;Node30 -->
<g id="edge34_Node000009_Node000030" class="edge">
<title>Node9&#45;&gt;Node30</title>
<g id="a_edge34_Node000009_Node000030"><a xlink:title=" ">
<path fill="none" stroke="#63b8ff" d="M1741.3,-203.46C1734.28,-201.42 1726.65,-199.42 1719.5,-198 1578.47,-169.94 1537.6,-184.38 1391.42,-162.02"/>
<polygon fill="#63b8ff" stroke="#63b8ff" points="1391.6,-158.51 1381.18,-160.42 1390.52,-165.42 1391.6,-158.51"/>
</a>
</g>
</g>
<!-- Node31 -->
<g id="Node000031" class="node">
<title>Node31</title>
<g id="a_Node000031"><a xlink:title=" ">
<polygon fill="#e0e0e0" stroke="#999999" points="1515.5,-162 1399.5,-162 1399.5,-132 1515.5,-132 1515.5,-162"/>
<text text-anchor="start" x="1407.5" y="-150" font-family="Helvetica,sans-Serif" font-size="10.00">deal.II/base/function</text>
<text text-anchor="middle" x="1457.5" y="-139" font-family="Helvetica,sans-Serif" font-size="10.00">_signed_distance.h</text>
</a>
</g>
</g>
<!-- Node9&#45;&gt;Node31 -->
<g id="edge35_Node000009_Node000031" class="edge">
<title>Node9&#45;&gt;Node31</title>
<g id="a_edge35_Node000009_Node000031"><a xlink:title=" ">
<path fill="none" stroke="#63b8ff" d="M1739.96,-203.45C1733.3,-201.52 1726.17,-199.58 1719.5,-198 1636.85,-178.37 1612.7,-178.94 1525.65,-162.18"/>
<polygon fill="#63b8ff" stroke="#63b8ff" points="1526.07,-158.7 1515.59,-160.22 1524.73,-165.57 1526.07,-158.7"/>
</a>
</g>
</g>
<!-- Node32 -->
<g id="Node000032" class="node">
<title>Node32</title>
<g id="a_Node000032"><a xlink:title=" ">
<polygon fill="#e0e0e0" stroke="#999999" points="1661.5,-156.5 1533.5,-156.5 1533.5,-137.5 1661.5,-137.5 1661.5,-156.5"/>
<text text-anchor="middle" x="1597.5" y="-144.5" font-family="Helvetica,sans-Serif" font-size="10.00">deal.II/dofs/dof_tools.h</text>
</a>
</g>
</g>
<!-- Node9&#45;&gt;Node32 -->
<g id="edge37_Node000009_Node000032" class="edge">
<title>Node9&#45;&gt;Node32</title>
<g id="a_edge37_Node000009_Node000032"><a xlink:title=" ">
<path fill="none" stroke="#63b8ff" d="M1744.57,-203.37C1714.96,-192.22 1663.25,-172.75 1629.7,-160.12"/>
<polygon fill="#63b8ff" stroke="#63b8ff" points="1630.93,-156.84 1620.33,-156.6 1628.46,-163.4 1630.93,-156.84"/>
</a>
</g>
</g>
<!-- Node33 -->
<g id="Node000033" class="node">
<title>Node33</title>
<g id="a_Node000033"><a xlink:title=" ">
<polygon fill="#e0e0e0" stroke="#999999" points="1855.5,-156.5 1679.5,-156.5 1679.5,-137.5 1855.5,-137.5 1855.5,-156.5"/>
<text text-anchor="middle" x="1767.5" y="-144.5" font-family="Helvetica,sans-Serif" font-size="10.00">deal.II/physics/transformations.h</text>
</a>
</g>
</g>
<!-- Node9&#45;&gt;Node33 -->
<g id="edge38_Node000009_Node000033" class="edge">
<title>Node9&#45;&gt;Node33</title>
<g id="a_edge38_Node000009_Node000033"><a xlink:title=" ">
<path fill="none" stroke="#63b8ff" d="M1767.5,-203.37C1767.5,-194.16 1767.5,-179.29 1767.5,-167.27"/>
<polygon fill="#63b8ff" stroke="#63b8ff" points="1771,-166.91 1767.5,-156.91 1764,-166.91 1771,-166.91"/>
</a>
</g>
</g>
<!-- Node34 -->
<g id="Node000034" class="node">
<title>Node34</title>
<g id="a_Node000034"><a xlink:title=" ">
<polygon fill="#e0e0e0" stroke="#999999" points="1917.5,-156.5 1873.5,-156.5 1873.5,-137.5 1917.5,-137.5 1917.5,-156.5"/>
<text text-anchor="middle" x="1895.5" y="-144.5" font-family="Helvetica,sans-Serif" font-size="10.00">cfloat</text>
</a>
</g>
</g>
<!-- Node9&#45;&gt;Node34 -->
<g id="edge39_Node000009_Node000034" class="edge">
<title>Node9&#45;&gt;Node34</title>
<g id="a_edge39_Node000009_Node000034"><a xlink:title=" ">
<path fill="none" stroke="#63b8ff" d="M1784.76,-203.37C1806.42,-192.54 1843.79,-173.85 1869.07,-161.22"/>
<polygon fill="#63b8ff" stroke="#63b8ff" points="1870.72,-164.3 1878.1,-156.7 1867.59,-158.04 1870.72,-164.3"/>
</a>
</g>
</g>
<!-- Node35 -->
<g id="Node000035" class="node">
<title>Node35</title>
<g id="a_Node000035"><a xlink:title=" ">
<polygon fill="#e0e0e0" stroke="#999999" points="1993.5,-156.5 1935.5,-156.5 1935.5,-137.5 1993.5,-137.5 1993.5,-156.5"/>
<text text-anchor="middle" x="1964.5" y="-144.5" font-family="Helvetica,sans-Serif" font-size="10.00">memory</text>
</a>
</g>
</g>
<!-- Node9&#45;&gt;Node35 -->
<g id="edge40_Node000009_Node000035" class="edge">
<title>Node9&#45;&gt;Node35</title>
<g id="a_edge40_Node000009_Node000035"><a xlink:title=" ">
<path fill="none" stroke="#63b8ff" d="M1796.07,-203.47C1828,-193.83 1881.18,-177.47 1926.5,-162 1928.35,-161.37 1930.24,-160.71 1932.15,-160.04"/>
<polygon fill="#63b8ff" stroke="#63b8ff" points="1933.43,-163.3 1941.66,-156.62 1931.06,-156.71 1933.43,-163.3"/>
</a>
</g>
</g>
<!-- Node10&#45;&gt;Node11 -->
<g id="edge10_Node000010_Node000011" class="edge">
<title>Node10&#45;&gt;Node11</title>
<g id="a_edge10_Node000010_Node000011"><a xlink:title=" ">
<path fill="none" stroke="#63b8ff" d="M1114.92,-133.19C1117.82,-132.78 1120.68,-132.38 1123.5,-132 1276.29,-111.46 1316.3,-120.51 1468.5,-96 1474.4,-95.05 1480.57,-93.9 1486.66,-92.67"/>
<polygon fill="#63b8ff" stroke="#63b8ff" points="1487.69,-96.03 1496.75,-90.56 1486.25,-89.18 1487.69,-96.03"/>
</a>
</g>
</g>
<!-- Node12 -->
<g id="Node000012" class="node">
<title>Node12</title>
<g id="a_Node000012"><a xlink:title=" ">
<polygon fill="#e0e0e0" stroke="#999999" points="1459,-90.5 1344,-90.5 1344,-71.5 1459,-71.5 1459,-90.5"/>
<text text-anchor="middle" x="1401.5" y="-78.5" font-family="Helvetica,sans-Serif" font-size="10.00">deal.II/base/tensor.h</text>
</a>
</g>
</g>
<!-- Node10&#45;&gt;Node12 -->
<g id="edge11_Node000010_Node000012" class="edge">
<title>Node10&#45;&gt;Node12</title>
<g id="a_edge11_Node000010_Node000012"><a xlink:title=" ">
<path fill="none" stroke="#63b8ff" d="M1114.65,-133.29C1195.1,-119.85 1313.25,-100.01 1334.5,-96 1340.19,-94.93 1346.13,-93.75 1352.03,-92.56"/>
<polygon fill="#63b8ff" stroke="#63b8ff" points="1352.78,-95.98 1361.87,-90.55 1351.37,-89.12 1352.78,-95.98"/>
</a>
</g>
</g>
<!-- Node13&#45;&gt;Node4 -->
<g id="edge16_Node000013_Node000004" class="edge">
<title>Node13&#45;&gt;Node4</title>
<g id="a_edge16_Node000013_Node000004"><a xlink:title=" ">
<path fill="none" stroke="#63b8ff" d="M820.39,-143.18C676.91,-133.78 220.28,-103.69 137.16,-95.75"/>
<polygon fill="#63b8ff" stroke="#63b8ff" points="137.45,-92.26 127.13,-94.67 136.7,-99.22 137.45,-92.26"/>
</a>
</g>
</g>
<!-- Node13&#45;&gt;Node7 -->
<g id="edge27_Node000013_Node000007" class="edge">
<title>Node13&#45;&gt;Node7</title>
<g id="a_edge27_Node000013_Node000007"><a xlink:title=" ">
<path fill="none" stroke="#63b8ff" d="M906.86,-138.25C921.62,-135.88 938.24,-133.5 953.5,-132 1187.19,-108.98 1943.77,-87.39 2109.31,-82.86"/>
<polygon fill="#63b8ff" stroke="#63b8ff" points="2109.44,-86.36 2119.34,-82.59 2109.25,-79.37 2109.44,-86.36"/>
</a>
</g>
</g>
<!-- Node13&#45;&gt;Node8 -->
<g id="edge29_Node000013_Node000008" class="edge">
<title>Node13&#45;&gt;Node8</title>
<g id="a_edge29_Node000013_Node000008"><a xlink:title=" ">
<path fill="none" stroke="#63b8ff" d="M906.85,-138.14C921.61,-135.76 938.23,-133.41 953.5,-132 1493.23,-82.25 1630.74,-112.6 2172.5,-96 2324.29,-91.35 2505.46,-85.51 2579.47,-83.11"/>
<polygon fill="#63b8ff" stroke="#63b8ff" points="2579.72,-86.6 2589.6,-82.78 2579.49,-79.6 2579.72,-86.6"/>
</a>
</g>
</g>
<!-- Node13&#45;&gt;Node11 -->
<g id="edge17_Node000013_Node000011" class="edge">
<title>Node13&#45;&gt;Node11</title>
<g id="a_edge17_Node000013_Node000011"><a xlink:title=" ">
<path fill="none" stroke="#63b8ff" d="M906.89,-138.49C921.64,-136.14 938.26,-133.72 953.5,-132 1181.51,-106.34 1241.38,-128.6 1468.5,-96 1474.78,-95.1 1481.36,-93.93 1487.82,-92.64"/>
<polygon fill="#63b8ff" stroke="#63b8ff" points="1488.72,-96.03 1497.79,-90.56 1487.29,-89.18 1488.72,-96.03"/>
</a>
</g>
</g>
<!-- Node13&#45;&gt;Node12 -->
<g id="edge19_Node000013_Node000012" class="edge">
<title>Node13&#45;&gt;Node12</title>
<g id="a_edge19_Node000013_Node000012"><a xlink:title=" ">
<path fill="none" stroke="#63b8ff" d="M906.91,-138.71C921.67,-136.37 938.28,-133.9 953.5,-132 1122.28,-110.92 1166.32,-121.43 1334.5,-96 1340.9,-95.03 1347.61,-93.84 1354.21,-92.57"/>
<polygon fill="#63b8ff" stroke="#63b8ff" points="1355.31,-95.92 1364.42,-90.52 1353.93,-89.05 1355.31,-95.92"/>
</a>
</g>
</g>
<!-- Node14 -->
<g id="Node000014" class="node">
<title>Node14</title>
<g id="a_Node000014"><a xlink:href="output__struct_8h.html" target="_top" xlink:title=" ">
<polygon fill="#fff0f0" stroke="red" points="259.5,-90.5 145.5,-90.5 145.5,-71.5 259.5,-71.5 259.5,-90.5"/>
<text text-anchor="middle" x="202.5" y="-78.5" font-family="Helvetica,sans-Serif" font-size="10.00">core/output_struct.h</text>
</a>
</g>
</g>
<!-- Node13&#45;&gt;Node14 -->
<g id="edge13_Node000013_Node000014" class="edge">
<title>Node13&#45;&gt;Node14</title>
<g id="a_edge13_Node000013_Node000014"><a xlink:title=" ">
<path fill="none" stroke="#63b8ff" d="M820.22,-142.95C702.69,-134.59 379.37,-110.88 273.5,-96 266.4,-95 258.94,-93.75 251.63,-92.42"/>
<polygon fill="#63b8ff" stroke="#63b8ff" points="252.28,-88.98 241.8,-90.55 250.97,-95.85 252.28,-88.98"/>
</a>
</g>
</g>
<!-- Node15 -->
<g id="Node000015" class="node">
<title>Node15</title>
<g id="a_Node000015"><a xlink:title=" ">
<polygon fill="#e0e0e0" stroke="#999999" points="295,-30 194,-30 194,0 295,0 295,-30"/>
<text text-anchor="start" x="202" y="-18" font-family="Helvetica,sans-Serif" font-size="10.00">deal.II/base/table</text>
<text text-anchor="middle" x="244.5" y="-7" font-family="Helvetica,sans-Serif" font-size="10.00">_handler.h</text>
</a>
</g>
</g>
<!-- Node13&#45;&gt;Node15 -->
<g id="edge18_Node000013_Node000015" class="edge">
<title>Node13&#45;&gt;Node15</title>
<g id="a_edge18_Node000013_Node000015"><a xlink:title=" ">
<path fill="none" stroke="#63b8ff" d="M820.45,-143.08C693.65,-134.35 328.99,-108.3 306.5,-96 283.29,-83.3 265.93,-57.87 255.58,-39.07"/>
<polygon fill="#63b8ff" stroke="#63b8ff" points="258.67,-37.44 250.93,-30.21 252.47,-40.69 258.67,-37.44"/>
</a>
</g>
</g>
<!-- Node17 -->
<g id="Node000017" class="node">
<title>Node17</title>
<g id="a_Node000017"><a xlink:title=" ">
<polygon fill="#e0e0e0" stroke="#999999" points="445.5,-96 315.5,-96 315.5,-66 445.5,-66 445.5,-96"/>
<text text-anchor="start" x="323.5" y="-84" font-family="Helvetica,sans-Serif" font-size="10.00">deal.II/base/conditional</text>
<text text-anchor="middle" x="380.5" y="-73" font-family="Helvetica,sans-Serif" font-size="10.00">_ostream.h</text>
</a>
</g>
</g>
<!-- Node13&#45;&gt;Node17 -->
<g id="edge15_Node000013_Node000017" class="edge">
<title>Node13&#45;&gt;Node17</title>
<g id="a_edge15_Node000013_Node000017"><a xlink:title=" ">
<path fill="none" stroke="#63b8ff" d="M820.39,-141.67C747.42,-134.13 594.76,-117.48 455.81,-96.14"/>
<polygon fill="#63b8ff" stroke="#63b8ff" points="456.25,-92.67 445.83,-94.6 455.18,-99.59 456.25,-92.67"/>
</a>
</g>
</g>
<!-- Node13&#45;&gt;Node18 -->
<g id="edge20_Node000013_Node000018" class="edge">
<title>Node13&#45;&gt;Node18</title>
<g id="a_edge20_Node000013_Node000018"><a xlink:title=" ">
<path fill="none" stroke="#63b8ff" d="M895.93,-137.44C903.93,-135.49 912.5,-133.54 920.5,-132 1032.89,-110.32 1062.45,-113.87 1175.5,-96 1182.86,-94.84 1190.59,-93.56 1198.22,-92.26"/>
<polygon fill="#63b8ff" stroke="#63b8ff" points="1198.9,-95.69 1208.16,-90.55 1197.72,-88.8 1198.9,-95.69"/>
</a>
</g>
</g>
<!-- Node19 -->
<g id="Node000019" class="node">
<title>Node19</title>
<g id="a_Node000019"><a xlink:title=" ">
<polygon fill="#e0e0e0" stroke="#999999" points="583,-90.5 464,-90.5 464,-71.5 583,-71.5 583,-90.5"/>
<text text-anchor="middle" x="523.5" y="-78.5" font-family="Helvetica,sans-Serif" font-size="10.00">deal.II/fe/fe_values.h</text>
</a>
</g>
</g>
<!-- Node13&#45;&gt;Node19 -->
<g id="edge21_Node000013_Node000019" class="edge">
<title>Node13&#45;&gt;Node19</title>
<g id="a_edge21_Node000013_Node000019"><a xlink:title=" ">
<path fill="none" stroke="#63b8ff" d="M820.11,-138.32C766.38,-128.74 672.09,-111.7 591.5,-96 585.82,-94.89 579.87,-93.71 573.96,-92.51"/>
<polygon fill="#63b8ff" stroke="#63b8ff" points="574.6,-89.07 564.1,-90.51 573.2,-95.93 574.6,-89.07"/>
</a>
</g>
</g>
<!-- Node20 -->
<g id="Node000020" class="node">
<title>Node20</title>
<g id="a_Node000020"><a xlink:title=" ">
<polygon fill="#e0e0e0" stroke="#999999" points="732,-96 601,-96 601,-66 732,-66 732,-96"/>
<text text-anchor="start" x="609" y="-84" font-family="Helvetica,sans-Serif" font-size="10.00">deal.II/particles/particle</text>
<text text-anchor="middle" x="666.5" y="-73" font-family="Helvetica,sans-Serif" font-size="10.00">_iterator.h</text>
</a>
</g>
</g>
<!-- Node13&#45;&gt;Node20 -->
<g id="edge22_Node000013_Node000020" class="edge">
<title>Node13&#45;&gt;Node20</title>
<g id="a_edge22_Node000013_Node000020"><a xlink:title=" ">
<path fill="none" stroke="#63b8ff" d="M836.93,-137.37C807.04,-127.66 757.73,-111.64 719.82,-99.32"/>
<polygon fill="#63b8ff" stroke="#63b8ff" points="720.54,-95.88 709.95,-96.12 718.38,-102.53 720.54,-95.88"/>
</a>
</g>
</g>
<!-- Node21 -->
<g id="Node000021" class="node">
<title>Node21</title>
<g id="a_Node000021"><a xlink:title=" ">
<polygon fill="#e0e0e0" stroke="#999999" points="855,-96 750,-96 750,-66 855,-66 855,-96"/>
<text text-anchor="start" x="758" y="-84" font-family="Helvetica,sans-Serif" font-size="10.00">boost/archive/text</text>
<text text-anchor="middle" x="802.5" y="-73" font-family="Helvetica,sans-Serif" font-size="10.00">_iarchive.hpp</text>
</a>
</g>
</g>
<!-- Node13&#45;&gt;Node21 -->
<g id="edge23_Node000013_Node000021" class="edge">
<title>Node13&#45;&gt;Node21</title>
<g id="a_edge23_Node000013_Node000021"><a xlink:title=" ">
<path fill="none" stroke="#63b8ff" d="M855.27,-137.37C847.14,-128.83 834.34,-115.41 823.39,-103.92"/>
<polygon fill="#63b8ff" stroke="#63b8ff" points="825.62,-101.18 816.19,-96.36 820.55,-106.01 825.62,-101.18"/>
</a>
</g>
</g>
<!-- Node22 -->
<g id="Node000022" class="node">
<title>Node22</title>
<g id="a_Node000022"><a xlink:title=" ">
<polygon fill="#e0e0e0" stroke="#999999" points="978,-96 873,-96 873,-66 978,-66 978,-96"/>
<text text-anchor="start" x="881" y="-84" font-family="Helvetica,sans-Serif" font-size="10.00">boost/archive/text</text>
<text text-anchor="middle" x="925.5" y="-73" font-family="Helvetica,sans-Serif" font-size="10.00">_oarchive.hpp</text>
</a>
</g>
</g>
<!-- Node13&#45;&gt;Node22 -->
<g id="edge24_Node000013_Node000022" class="edge">
<title>Node13&#45;&gt;Node22</title>
<g id="a_edge24_Node000013_Node000022"><a xlink:title=" ">
<path fill="none" stroke="#63b8ff" d="M871.86,-137.37C880.21,-128.75 893.38,-115.15 904.58,-103.59"/>
<polygon fill="#63b8ff" stroke="#63b8ff" points="907.14,-105.98 911.59,-96.36 902.12,-101.11 907.14,-105.98"/>
</a>
</g>
</g>
<!-- Node23 -->
<g id="Node000023" class="node">
<title>Node23</title>
<g id="a_Node000023"><a xlink:title=" ">
<polygon fill="#e0e0e0" stroke="#999999" points="1051,-90.5 996,-90.5 996,-71.5 1051,-71.5 1051,-90.5"/>
<text text-anchor="middle" x="1023.5" y="-78.5" font-family="Helvetica,sans-Serif" font-size="10.00">fstream</text>
</a>
</g>
</g>
<!-- Node13&#45;&gt;Node23 -->
<g id="edge25_Node000013_Node000023" class="edge">
<title>Node13&#45;&gt;Node23</title>
<g id="a_edge25_Node000013_Node000023"><a xlink:title=" ">
<path fill="none" stroke="#63b8ff" d="M885.08,-137.37C912.71,-126.32 960.79,-107.08 992.38,-94.45"/>
<polygon fill="#63b8ff" stroke="#63b8ff" points="994.02,-97.56 1002.01,-90.6 991.42,-91.06 994.02,-97.56"/>
</a>
</g>
</g>
<!-- Node24 -->
<g id="Node000024" class="node">
<title>Node24</title>
<g id="a_Node000024"><a xlink:title=" ">
<polygon fill="#e0e0e0" stroke="#999999" points="1107.5,-90.5 1069.5,-90.5 1069.5,-71.5 1107.5,-71.5 1107.5,-90.5"/>
<text text-anchor="middle" x="1088.5" y="-78.5" font-family="Helvetica,sans-Serif" font-size="10.00">map</text>
</a>
</g>
</g>
<!-- Node13&#45;&gt;Node24 -->
<g id="edge26_Node000013_Node000024" class="edge">
<title>Node13&#45;&gt;Node24</title>
<g id="a_edge26_Node000013_Node000024"><a xlink:title=" ">
<path fill="none" stroke="#63b8ff" d="M897.73,-137.46C951.84,-123.92 1051.83,-98.8 1059.5,-96 1060.55,-95.62 1061.61,-95.21 1062.68,-94.78"/>
<polygon fill="#63b8ff" stroke="#63b8ff" points="1064.45,-97.82 1072.18,-90.58 1061.62,-91.42 1064.45,-97.82"/>
</a>
</g>
</g>
<!-- Node25 -->
<g id="Node000025" class="node">
<title>Node25</title>
<g id="a_Node000025"><a xlink:title=" ">
<polygon fill="#e0e0e0" stroke="#999999" points="1167,-90.5 1126,-90.5 1126,-71.5 1167,-71.5 1167,-90.5"/>
<text text-anchor="middle" x="1146.5" y="-78.5" font-family="Helvetica,sans-Serif" font-size="10.00">tuple</text>
</a>
</g>
</g>
<!-- Node13&#45;&gt;Node25 -->
<g id="edge28_Node000013_Node000025" class="edge">
<title>Node13&#45;&gt;Node25</title>
<g id="a_edge28_Node000013_Node000025"><a xlink:title=" ">
<path fill="none" stroke="#63b8ff" d="M896.88,-137.45C904.61,-135.57 912.83,-133.65 920.5,-132 1007.1,-113.43 1032.13,-122.95 1116.5,-96 1117.9,-95.55 1119.33,-95.05 1120.75,-94.52"/>
<polygon fill="#63b8ff" stroke="#63b8ff" points="1122.13,-97.74 1129.98,-90.62 1119.41,-91.29 1122.13,-97.74"/>
</a>
</g>
</g>
<!-- Node14&#45;&gt;Node15 -->
<g id="edge14_Node000014_Node000015" class="edge">
<title>Node14&#45;&gt;Node15</title>
<g id="a_edge14_Node000014_Node000015"><a xlink:title=" ">
<path fill="none" stroke="#63b8ff" d="M208.16,-71.37C213.61,-63.08 222.07,-50.18 229.46,-38.92"/>
<polygon fill="#63b8ff" stroke="#63b8ff" points="232.52,-40.64 235.08,-30.36 226.66,-36.8 232.52,-40.64"/>
</a>
</g>
</g>
<!-- Node39&#45;&gt;Node2 -->
<g id="edge50_Node000039_Node000002" class="edge">
<title>Node39&#45;&gt;Node2</title>
<g id="a_edge50_Node000039_Node000002"><a xlink:title=" ">
<path fill="none" stroke="#63b8ff" d="M1806.77,-505.91C1793.67,-473.71 1761.54,-394.7 1746.94,-358.8"/>
<polygon fill="#63b8ff" stroke="#63b8ff" points="1750.02,-357.08 1743.01,-349.13 1743.54,-359.72 1750.02,-357.08"/>
</a>
</g>
</g>
<!-- Node40 -->
<g id="Node000040" class="node">
<title>Node40</title>
<g id="a_Node000040"><a xlink:href="simulation__control_8h.html" target="_top" xlink:title="Simulation control classes for managing time&#45;stepping and iteration control in Lethe.">
<polygon fill="white" stroke="#666666" points="1971.5,-470 1831.5,-470 1831.5,-451 1971.5,-451 1971.5,-470"/>
<text text-anchor="middle" x="1901.5" y="-458" font-family="Helvetica,sans-Serif" font-size="10.00">core/simulation_control.h</text>
</a>
</g>
</g>
<!-- Node39&#45;&gt;Node40 -->
<g id="edge51_Node000039_Node000040" class="edge">
<title>Node39&#45;&gt;Node40</title>
<g id="a_edge51_Node000039_Node000040"><a xlink:title=" ">
<path fill="none" stroke="#63b8ff" d="M1834.04,-505.84C1847.97,-496.68 1866.03,-484.82 1879.95,-475.66"/>
<polygon fill="#63b8ff" stroke="#63b8ff" points="1881.99,-478.51 1888.42,-470.09 1878.15,-472.66 1881.99,-478.51"/>
</a>
</g>
</g>
<!-- Node40&#45;&gt;Node2 -->
<g id="edge56_Node000040_Node000002" class="edge">
<title>Node40&#45;&gt;Node2</title>
<g id="a_edge56_Node000040_Node000002"><a xlink:title=" ">
<path fill="none" stroke="#63b8ff" d="M1909.41,-450.8C1921.97,-435.91 1943.48,-405.2 1927.5,-385 1912.06,-365.47 1851.31,-353.63 1803,-347.13"/>
<polygon fill="#63b8ff" stroke="#63b8ff" points="1803.26,-343.63 1792.89,-345.82 1802.36,-350.57 1803.26,-343.63"/>
</a>
</g>
</g>
<!-- Node41 -->
<g id="Node000041" class="node">
<title>Node41</title>
<g id="a_Node000041"><a xlink:href="bdf_8h.html" target="_top" xlink:title=" ">
<polygon fill="white" stroke="#666666" points="2385,-409.5 2320,-409.5 2320,-390.5 2385,-390.5 2385,-409.5"/>
<text text-anchor="middle" x="2352.5" y="-397.5" font-family="Helvetica,sans-Serif" font-size="10.00">core/bdf.h</text>
</a>
</g>
</g>
<!-- Node40&#45;&gt;Node41 -->
<g id="edge52_Node000040_Node000041" class="edge">
<title>Node40&#45;&gt;Node41</title>
<g id="a_edge52_Node000040_Node000041"><a xlink:title=" ">
<path fill="none" stroke="#63b8ff" d="M1967.08,-450.99C2060.84,-438.83 2230.58,-416.81 2309.73,-406.55"/>
<polygon fill="#63b8ff" stroke="#63b8ff" points="2310.36,-410 2319.82,-405.24 2309.46,-403.05 2310.36,-410"/>
</a>
</g>
</g>
<!-- Node43 -->
<g id="Node000043" class="node">
<title>Node43</title>
<g id="a_Node000043"><a xlink:title=" ">
<polygon fill="#e0e0e0" stroke="#999999" points="1918,-415 1787,-415 1787,-385 1918,-385 1918,-415"/>
<text text-anchor="start" x="1795" y="-403" font-family="Helvetica,sans-Serif" font-size="10.00">deal.II/particles/particle</text>
<text text-anchor="middle" x="1852.5" y="-392" font-family="Helvetica,sans-Serif" font-size="10.00">_handler.h</text>
</a>
</g>
</g>
<!-- Node40&#45;&gt;Node43 -->
<g id="edge57_Node000040_Node000043" class="edge">
<title>Node40&#45;&gt;Node43</title>
<g id="a_edge57_Node000040_Node000043"><a xlink:title=" ">
<path fill="none" stroke="#63b8ff" d="M1894.27,-450.87C1888.11,-443.52 1879,-432.63 1870.85,-422.91"/>
<polygon fill="#63b8ff" stroke="#63b8ff" points="1873.43,-420.53 1864.32,-415.11 1868.06,-425.03 1873.43,-420.53"/>
</a>
</g>
</g>
<!-- Node41&#45;&gt;Node2 -->
<g id="edge53_Node000041_Node000002" class="edge">
<title>Node41&#45;&gt;Node2</title>
<g id="a_edge53_Node000041_Node000002"><a xlink:title=" ">
<path fill="none" stroke="#63b8ff" d="M2319.98,-395.9C2222.61,-386.6 1932.24,-358.89 1802.89,-346.55"/>
<polygon fill="#63b8ff" stroke="#63b8ff" points="1803.03,-343.05 1792.74,-345.58 1802.36,-350.02 1803.03,-343.05"/>
</a>
</g>
</g>
<!-- Node41&#45;&gt;Node8 -->
<g id="edge55_Node000041_Node000008" class="edge">
<title>Node41&#45;&gt;Node8</title>
<g id="a_edge55_Node000041_Node000008"><a xlink:title=" ">
<path fill="none" stroke="#63b8ff" d="M2385.27,-394.84C2471.39,-383 2697.5,-345.66 2697.5,-280 2697.5,-280 2697.5,-280 2697.5,-212 2697.5,-163.96 2656.53,-119.61 2631.81,-97.23"/>
<polygon fill="#63b8ff" stroke="#63b8ff" points="2633.97,-94.47 2624.14,-90.51 2629.36,-99.73 2633.97,-94.47"/>
</a>
</g>
</g>
<!-- Node42 -->
<g id="Node000042" class="node">
<title>Node42</title>
<g id="a_Node000042"><a xlink:title=" ">
<polygon fill="#e0e0e0" stroke="#999999" points="2831.5,-349 2725.5,-349 2725.5,-330 2831.5,-330 2831.5,-349"/>
<text text-anchor="middle" x="2778.5" y="-337" font-family="Helvetica,sans-Serif" font-size="10.00">deal.II/lac/vector.h</text>
</a>
</g>
</g>
<!-- Node41&#45;&gt;Node42 -->
<g id="edge54_Node000041_Node000042" class="edge">
<title>Node41&#45;&gt;Node42</title>
<g id="a_edge54_Node000041_Node000042"><a xlink:title=" ">
<path fill="none" stroke="#63b8ff" d="M2385.22,-394.51C2455.74,-384.82 2623.08,-361.84 2715.12,-349.2"/>
<polygon fill="#63b8ff" stroke="#63b8ff" points="2715.71,-352.65 2725.15,-347.83 2714.76,-345.72 2715.71,-352.65"/>
</a>
</g>
</g>
</g>
</svg>
