<?xml version="1.0" encoding="UTF-8" standalone="no"?>
<!DOCTYPE svg PUBLIC "-//W3C//DTD SVG 1.1//EN"
 "http://www.w3.org/Graphics/SVG/1.1/DTD/svg11.dtd">
<!-- Generated by graphviz version 2.43.0 (0)
 -->
<!-- Title: /home/runner/work/lethe/lethe/source/core/magnetic_permeability_model.cc Pages: 1 -->
<svg width="2197pt" height="621pt"
 viewBox="0.00 0.00 2196.50 621.00" xmlns="http://www.w3.org/2000/svg" xmlns:xlink="http://www.w3.org/1999/xlink">
<g id="graph0" class="graph" transform="scale(1 1) rotate(0) translate(4 617)">
<title>/home/runner/work/lethe/lethe/source/core/magnetic_permeability_model.cc</title>
<!-- Node1 -->
<g id="Node000001" class="node">
<title>Node1</title>
<g id="a_Node000001"><a xlink:title=" ">
<polygon fill="#999999" stroke="#666666" points="1204,-613 1052,-613 1052,-572 1204,-572 1204,-613"/>
<text text-anchor="start" x="1060" y="-601" font-family="Helvetica,sans-Serif" font-size="10.00">/home/runner/work/lethe</text>
<text text-anchor="start" x="1060" y="-590" font-family="Helvetica,sans-Serif" font-size="10.00">/lethe/source/core/magnetic</text>
<text text-anchor="middle" x="1128" y="-579" font-family="Helvetica,sans-Serif" font-size="10.00">_permeability_model.cc</text>
</a>
</g>
</g>
<!-- Node2 -->
<g id="Node000002" class="node">
<title>Node2</title>
<g id="a_Node000002"><a xlink:href="magnetic__permeability__model_8h.html" target="_top" xlink:title=" ">
<polygon fill="white" stroke="#666666" points="1205,-536 1051,-536 1051,-506 1205,-506 1205,-536"/>
<text text-anchor="start" x="1059" y="-524" font-family="Helvetica,sans-Serif" font-size="10.00">core/magnetic_permeability</text>
<text text-anchor="middle" x="1128" y="-513" font-family="Helvetica,sans-Serif" font-size="10.00">_model.h</text>
</a>
</g>
</g>
<!-- Node1&#45;&gt;Node2 -->
<g id="edge1_Node000001_Node000002" class="edge">
<title>Node1&#45;&gt;Node2</title>
<g id="a_edge1_Node000001_Node000002"><a xlink:title=" ">
<path fill="none" stroke="#63b8ff" d="M1128,-571.77C1128,-563.85 1128,-554.63 1128,-546.3"/>
<polygon fill="#63b8ff" stroke="#63b8ff" points="1131.5,-546.04 1128,-536.04 1124.5,-546.04 1131.5,-546.04"/>
</a>
</g>
</g>
<!-- Node3 -->
<g id="Node000003" class="node">
<title>Node3</title>
<g id="a_Node000003"><a xlink:href="parameters_8h.html" target="_top" xlink:title=" ">
<polygon fill="white" stroke="#666666" points="1208,-283 1102,-283 1102,-264 1208,-264 1208,-283"/>
<text text-anchor="middle" x="1155" y="-271" font-family="Helvetica,sans-Serif" font-size="10.00">core/parameters.h</text>
</a>
</g>
</g>
<!-- Node2&#45;&gt;Node3 -->
<g id="edge2_Node000002_Node000003" class="edge">
<title>Node2&#45;&gt;Node3</title>
<g id="a_edge2_Node000002_Node000003"><a xlink:title=" ">
<path fill="none" stroke="#63b8ff" d="M1138.07,-505.92C1144.3,-496.31 1151.71,-483.01 1155,-470 1170.92,-407.03 1163.04,-328.96 1158.04,-293.55"/>
<polygon fill="#63b8ff" stroke="#63b8ff" points="1161.44,-292.63 1156.5,-283.26 1154.52,-293.67 1161.44,-292.63"/>
</a>
</g>
</g>
<!-- Node42 -->
<g id="Node000042" class="node">
<title>Node42</title>
<g id="a_Node000042"><a xlink:href="physical__property__model_8h.html" target="_top" xlink:title=" ">
<polygon fill="white" stroke="#666666" points="1146,-470 1018,-470 1018,-440 1146,-440 1146,-470"/>
<text text-anchor="start" x="1026" y="-458" font-family="Helvetica,sans-Serif" font-size="10.00">core/physical_property</text>
<text text-anchor="middle" x="1082" y="-447" font-family="Helvetica,sans-Serif" font-size="10.00">_model.h</text>
</a>
</g>
</g>
<!-- Node2&#45;&gt;Node42 -->
<g id="edge37_Node000002_Node000042" class="edge">
<title>Node2&#45;&gt;Node42</title>
<g id="a_edge37_Node000002_Node000042"><a xlink:title=" ">
<path fill="none" stroke="#63b8ff" d="M1117.79,-505.8C1112.01,-497.76 1104.66,-487.53 1098.12,-478.43"/>
<polygon fill="#63b8ff" stroke="#63b8ff" points="1100.86,-476.24 1092.18,-470.16 1095.17,-480.33 1100.86,-476.24"/>
</a>
</g>
</g>
<!-- Node4 -->
<g id="Node000004" class="node">
<title>Node4</title>
<g id="a_Node000004"><a xlink:href="dimensionality_8h.html" target="_top" xlink:title=" ">
<polygon fill="white" stroke="#666666" points="2188.5,-156.5 2067.5,-156.5 2067.5,-137.5 2188.5,-137.5 2188.5,-156.5"/>
<text text-anchor="middle" x="2128" y="-144.5" font-family="Helvetica,sans-Serif" font-size="10.00">core/dimensionality.h</text>
</a>
</g>
</g>
<!-- Node3&#45;&gt;Node4 -->
<g id="edge3_Node000003_Node000004" class="edge">
<title>Node3&#45;&gt;Node4</title>
<g id="a_edge3_Node000003_Node000004"><a xlink:title=" ">
<path fill="none" stroke="#63b8ff" d="M1208,-272.18C1389.12,-270.76 1976.46,-263.43 2053,-228 2081.97,-214.59 2105.16,-184.43 2117.72,-165.21"/>
<polygon fill="#63b8ff" stroke="#63b8ff" points="2120.81,-166.87 2123.15,-156.54 2114.88,-163.16 2120.81,-166.87"/>
</a>
</g>
</g>
<!-- Node5 -->
<g id="Node000005" class="node">
<title>Node5</title>
<g id="a_Node000005"><a xlink:title=" ">
<polygon fill="#e0e0e0" stroke="#999999" points="2102.5,-30 1975.5,-30 1975.5,0 2102.5,0 2102.5,-30"/>
<text text-anchor="start" x="1983.5" y="-18" font-family="Helvetica,sans-Serif" font-size="10.00">deal.II/base/parameter</text>
<text text-anchor="middle" x="2039" y="-7" font-family="Helvetica,sans-Serif" font-size="10.00">_handler.h</text>
</a>
</g>
</g>
<!-- Node3&#45;&gt;Node5 -->
<g id="edge34_Node000003_Node000005" class="edge">
<title>Node3&#45;&gt;Node5</title>
<g id="a_edge34_Node000003_Node000005"><a xlink:title=" ">
<path fill="none" stroke="#63b8ff" d="M1208.14,-269.44C1387.44,-258.62 1962.19,-219.67 2020,-162 2052.03,-130.05 2048.85,-72.49 2043.84,-40.01"/>
<polygon fill="#63b8ff" stroke="#63b8ff" points="2047.27,-39.28 2042.12,-30.02 2040.37,-40.47 2047.27,-39.28"/>
</a>
</g>
</g>
<!-- Node6 -->
<g id="Node000006" class="node">
<title>Node6</title>
<g id="a_Node000006"><a xlink:href="ib__particle_8h.html" target="_top" xlink:title=" ">
<polygon fill="white" stroke="#666666" points="1126.5,-222.5 1025.5,-222.5 1025.5,-203.5 1126.5,-203.5 1126.5,-222.5"/>
<text text-anchor="middle" x="1076" y="-210.5" font-family="Helvetica,sans-Serif" font-size="10.00">core/ib_particle.h</text>
</a>
</g>
</g>
<!-- Node3&#45;&gt;Node6 -->
<g id="edge5_Node000003_Node000006" class="edge">
<title>Node3&#45;&gt;Node6</title>
<g id="a_edge5_Node000003_Node000006"><a xlink:title=" ">
<path fill="none" stroke="#63b8ff" d="M1143.34,-263.87C1130.86,-254.62 1110.82,-239.78 1095.84,-228.69"/>
<polygon fill="#63b8ff" stroke="#63b8ff" points="1097.82,-225.81 1087.7,-222.67 1093.66,-231.43 1097.82,-225.81"/>
</a>
</g>
</g>
<!-- Node14 -->
<g id="Node000014" class="node">
<title>Node14</title>
<g id="a_Node000014"><a xlink:href="core_2utilities_8h.html" target="_top" xlink:title=" ">
<polygon fill="#fff0f0" stroke="red" points="430,-90.5 344,-90.5 344,-71.5 430,-71.5 430,-90.5"/>
<text text-anchor="middle" x="387" y="-78.5" font-family="Helvetica,sans-Serif" font-size="10.00">core/utilities.h</text>
</a>
</g>
</g>
<!-- Node3&#45;&gt;Node14 -->
<g id="edge33_Node000003_Node000014" class="edge">
<title>Node3&#45;&gt;Node14</title>
<g id="a_edge33_Node000003_Node000014"><a xlink:title=" ">
<path fill="none" stroke="#63b8ff" d="M1119.17,-263.95C1014.37,-238.89 699.34,-163.13 439,-96 435.44,-95.08 431.75,-94.12 428.05,-93.14"/>
<polygon fill="#63b8ff" stroke="#63b8ff" points="428.88,-89.74 418.32,-90.55 427.08,-96.5 428.88,-89.74"/>
</a>
</g>
</g>
<!-- Node39 -->
<g id="Node000039" class="node">
<title>Node39</title>
<g id="a_Node000039"><a xlink:title=" ">
<polygon fill="#e0e0e0" stroke="#999999" points="2010.5,-162 1901.5,-162 1901.5,-132 2010.5,-132 2010.5,-162"/>
<text text-anchor="start" x="1909.5" y="-150" font-family="Helvetica,sans-Serif" font-size="10.00">deal.II/base/parsed</text>
<text text-anchor="middle" x="1956" y="-139" font-family="Helvetica,sans-Serif" font-size="10.00">_function.h</text>
</a>
</g>
</g>
<!-- Node3&#45;&gt;Node39 -->
<g id="edge35_Node000003_Node000039" class="edge">
<title>Node3&#45;&gt;Node39</title>
<g id="a_edge35_Node000003_Node000039"><a xlink:title=" ">
<path fill="none" stroke="#63b8ff" d="M1154.25,-263.9C1153.4,-248.02 1154.17,-214.23 1174,-198 1235.39,-147.77 1808.3,-171.91 1887,-162 1888.3,-161.84 1889.6,-161.66 1890.92,-161.48"/>
<polygon fill="#63b8ff" stroke="#63b8ff" points="1891.79,-164.89 1901.14,-159.9 1890.72,-157.97 1891.79,-164.89"/>
</a>
</g>
</g>
<!-- Node40 -->
<g id="Node000040" class="node">
<title>Node40</title>
<g id="a_Node000040"><a xlink:href="multiphysics_8h.html" target="_top" xlink:title="Identifiers for multiphysics modules and their solution fields.">
<polygon fill="white" stroke="#666666" points="1295,-222.5 1183,-222.5 1183,-203.5 1295,-203.5 1295,-222.5"/>
<text text-anchor="middle" x="1239" y="-210.5" font-family="Helvetica,sans-Serif" font-size="10.00">core/multiphysics.h</text>
</a>
</g>
</g>
<!-- Node3&#45;&gt;Node40 -->
<g id="edge32_Node000003_Node000040" class="edge">
<title>Node3&#45;&gt;Node40</title>
<g id="a_edge32_Node000003_Node000040"><a xlink:title=" ">
<path fill="none" stroke="#63b8ff" d="M1167.39,-263.87C1180.79,-254.54 1202.38,-239.51 1218.35,-228.38"/>
<polygon fill="#63b8ff" stroke="#63b8ff" points="1220.35,-231.25 1226.55,-222.67 1216.35,-225.51 1220.35,-231.25"/>
</a>
</g>
</g>
<!-- Node41 -->
<g id="Node000041" class="node">
<title>Node41</title>
<g id="a_Node000041"><a xlink:title=" ">
<polygon fill="#e0e0e0" stroke="#999999" points="1476.5,-228 1313.5,-228 1313.5,-198 1476.5,-198 1476.5,-228"/>
<text text-anchor="start" x="1321.5" y="-216" font-family="Helvetica,sans-Serif" font-size="10.00">deal.II/multigrid/mg</text>
<text text-anchor="middle" x="1395" y="-205" font-family="Helvetica,sans-Serif" font-size="10.00">_transfer_global_coarsening.h</text>
</a>
</g>
</g>
<!-- Node3&#45;&gt;Node41 -->
<g id="edge36_Node000003_Node000041" class="edge">
<title>Node3&#45;&gt;Node41</title>
<g id="a_edge36_Node000003_Node000041"><a xlink:title=" ">
<path fill="none" stroke="#63b8ff" d="M1189.9,-263.99C1225.8,-255.24 1282.63,-241.39 1327.37,-230.48"/>
<polygon fill="#63b8ff" stroke="#63b8ff" points="1328.41,-233.83 1337.3,-228.06 1326.76,-227.03 1328.41,-233.83"/>
</a>
</g>
</g>
<!-- Node4&#45;&gt;Node5 -->
<g id="edge4_Node000004_Node000005" class="edge">
<title>Node4&#45;&gt;Node5</title>
<g id="a_edge4_Node000004_Node000005"><a xlink:title=" ">
<path fill="none" stroke="#63b8ff" d="M2122.16,-137.47C2108.56,-117.61 2074.42,-67.74 2054.36,-38.44"/>
<polygon fill="#63b8ff" stroke="#63b8ff" points="2057.17,-36.34 2048.63,-30.07 2051.39,-40.3 2057.17,-36.34"/>
</a>
</g>
</g>
<!-- Node7 -->
<g id="Node000007" class="node">
<title>Node7</title>
<g id="a_Node000007"><a xlink:href="dem__properties_8h.html" target="_top" xlink:title="DEM particle property definitions and output name management.">
<polygon fill="white" stroke="#666666" points="326,-90.5 200,-90.5 200,-71.5 326,-71.5 326,-90.5"/>
<text text-anchor="middle" x="263" y="-78.5" font-family="Helvetica,sans-Serif" font-size="10.00">core/dem_properties.h</text>
</a>
</g>
</g>
<!-- Node6&#45;&gt;Node7 -->
<g id="edge6_Node000006_Node000007" class="edge">
<title>Node6&#45;&gt;Node7</title>
<g id="a_edge6_Node000006_Node000007"><a xlink:title=" ">
<path fill="none" stroke="#63b8ff" d="M1025.13,-204.7C904.89,-187.28 593.75,-141.39 335,-96 328.74,-94.9 322.19,-93.7 315.7,-92.48"/>
<polygon fill="#63b8ff" stroke="#63b8ff" points="316.07,-88.99 305.59,-90.55 314.76,-95.86 316.07,-88.99"/>
</a>
</g>
</g>
<!-- Node9 -->
<g id="Node000009" class="node">
<title>Node9</title>
<g id="a_Node000009"><a xlink:title=" ">
<polygon fill="#e0e0e0" stroke="#999999" points="247.5,-24.5 200.5,-24.5 200.5,-5.5 247.5,-5.5 247.5,-24.5"/>
<text text-anchor="middle" x="224" y="-12.5" font-family="Helvetica,sans-Serif" font-size="10.00">vector</text>
</a>
</g>
</g>
<!-- Node6&#45;&gt;Node9 -->
<g id="edge31_Node000006_Node000009" class="edge">
<title>Node6&#45;&gt;Node9</title>
<g id="a_edge31_Node000006_Node000009"><a xlink:title=" ">
<path fill="none" stroke="#63b8ff" d="M1025.33,-209.29C845.38,-199.14 244.97,-160.64 191,-96 175.19,-77.07 193.22,-49.53 208.2,-32.2"/>
<polygon fill="#63b8ff" stroke="#63b8ff" points="210.98,-34.34 215.14,-24.59 205.81,-29.62 210.98,-34.34"/>
</a>
</g>
</g>
<!-- Node10 -->
<g id="Node000010" class="node">
<title>Node10</title>
<g id="a_Node000010"><a xlink:href="shape_8h.html" target="_top" xlink:title=" ">
<polygon fill="white" stroke="#666666" points="1115.5,-156.5 1036.5,-156.5 1036.5,-137.5 1115.5,-137.5 1115.5,-156.5"/>
<text text-anchor="middle" x="1076" y="-144.5" font-family="Helvetica,sans-Serif" font-size="10.00">core/shape.h</text>
</a>
</g>
</g>
<!-- Node6&#45;&gt;Node10 -->
<g id="edge9_Node000006_Node000010" class="edge">
<title>Node6&#45;&gt;Node10</title>
<g id="a_edge9_Node000006_Node000010"><a xlink:title=" ">
<path fill="none" stroke="#63b8ff" d="M1076,-203.37C1076,-194.16 1076,-179.29 1076,-167.27"/>
<polygon fill="#63b8ff" stroke="#63b8ff" points="1079.5,-166.91 1076,-156.91 1072.5,-166.91 1079.5,-166.91"/>
</a>
</g>
</g>
<!-- Node12 -->
<g id="Node000012" class="node">
<title>Node12</title>
<g id="a_Node000012"><a xlink:title=" ">
<polygon fill="#e0e0e0" stroke="#999999" points="1952,-24.5 1842,-24.5 1842,-5.5 1952,-5.5 1952,-24.5"/>
<text text-anchor="middle" x="1897" y="-12.5" font-family="Helvetica,sans-Serif" font-size="10.00">deal.II/base/point.h</text>
</a>
</g>
</g>
<!-- Node6&#45;&gt;Node12 -->
<g id="edge30_Node000006_Node000012" class="edge">
<title>Node6&#45;&gt;Node12</title>
<g id="a_edge30_Node000006_Node000012"><a xlink:title=" ">
<path fill="none" stroke="#63b8ff" d="M1120.31,-203.49C1130.99,-201.57 1142.39,-199.62 1153,-198 1244.75,-184.03 1920.51,-165.52 1982,-96 2004.61,-70.44 1960.7,-43.9 1928,-28.72"/>
<polygon fill="#63b8ff" stroke="#63b8ff" points="1929.28,-25.45 1918.72,-24.57 1926.42,-31.84 1929.28,-25.45"/>
</a>
</g>
</g>
<!-- Node6&#45;&gt;Node39 -->
<g id="edge29_Node000006_Node000039" class="edge">
<title>Node6&#45;&gt;Node39</title>
<g id="a_edge29_Node000006_Node000039"><a xlink:title=" ">
<path fill="none" stroke="#63b8ff" d="M1110.56,-203.46C1120.35,-201.34 1131.04,-199.3 1141,-198 1470.13,-154.91 1557.62,-203.12 1887,-162 1888.3,-161.84 1889.6,-161.67 1890.92,-161.48"/>
<polygon fill="#63b8ff" stroke="#63b8ff" points="1891.78,-164.89 1901.14,-159.91 1890.72,-157.97 1891.78,-164.89"/>
</a>
</g>
</g>
<!-- Node8 -->
<g id="Node000008" class="node">
<title>Node8</title>
<g id="a_Node000008"><a xlink:title=" ">
<polygon fill="#e0e0e0" stroke="#999999" points="323,-24.5 279,-24.5 279,-5.5 323,-5.5 323,-24.5"/>
<text text-anchor="middle" x="301" y="-12.5" font-family="Helvetica,sans-Serif" font-size="10.00">string</text>
</a>
</g>
</g>
<!-- Node7&#45;&gt;Node8 -->
<g id="edge7_Node000007_Node000008" class="edge">
<title>Node7&#45;&gt;Node8</title>
<g id="a_edge7_Node000007_Node000008"><a xlink:title=" ">
<path fill="none" stroke="#63b8ff" d="M268.12,-71.37C273.82,-61.78 283.16,-46.05 290.43,-33.8"/>
<polygon fill="#63b8ff" stroke="#63b8ff" points="293.62,-35.29 295.71,-24.91 287.6,-31.72 293.62,-35.29"/>
</a>
</g>
</g>
<!-- Node7&#45;&gt;Node9 -->
<g id="edge8_Node000007_Node000009" class="edge">
<title>Node7&#45;&gt;Node9</title>
<g id="a_edge8_Node000007_Node000009"><a xlink:title=" ">
<path fill="none" stroke="#63b8ff" d="M257.74,-71.37C251.9,-61.78 242.31,-46.05 234.85,-33.8"/>
<polygon fill="#63b8ff" stroke="#63b8ff" points="237.62,-31.62 229.43,-24.91 231.64,-35.27 237.62,-31.62"/>
</a>
</g>
</g>
<!-- Node11 -->
<g id="Node000011" class="node">
<title>Node11</title>
<g id="a_Node000011"><a xlink:href="tensors__and__points__dimension__manipulation_8h.html" target="_top" xlink:title=" ">
<polygon fill="#fff0f0" stroke="red" points="1973,-96 1821,-96 1821,-66 1973,-66 1973,-96"/>
<text text-anchor="start" x="1829" y="-84" font-family="Helvetica,sans-Serif" font-size="10.00">core/tensors_and_points</text>
<text text-anchor="middle" x="1897" y="-73" font-family="Helvetica,sans-Serif" font-size="10.00">_dimension_manipulation.h</text>
</a>
</g>
</g>
<!-- Node10&#45;&gt;Node11 -->
<g id="edge10_Node000010_Node000011" class="edge">
<title>Node10&#45;&gt;Node11</title>
<g id="a_edge10_Node000010_Node000011"><a xlink:title=" ">
<path fill="none" stroke="#63b8ff" d="M1115.61,-144.64C1224.78,-140.61 1539.26,-127.08 1810.56,-96.09"/>
<polygon fill="#63b8ff" stroke="#63b8ff" points="1811.06,-99.56 1820.59,-94.94 1810.26,-92.61 1811.06,-99.56"/>
</a>
</g>
</g>
<!-- Node10&#45;&gt;Node14 -->
<g id="edge12_Node000010_Node000014" class="edge">
<title>Node10&#45;&gt;Node14</title>
<g id="a_edge12_Node000010_Node000014"><a xlink:title=" ">
<path fill="none" stroke="#63b8ff" d="M1036.37,-143.09C901.71,-133.19 468.52,-101.09 439,-96 434.3,-95.19 429.4,-94.14 424.57,-92.99"/>
<polygon fill="#63b8ff" stroke="#63b8ff" points="425.41,-89.59 414.86,-90.52 423.68,-96.38 425.41,-89.59"/>
</a>
</g>
</g>
<!-- Node19 -->
<g id="Node000019" class="node">
<title>Node19</title>
<g id="a_Node000019"><a xlink:title=" ">
<polygon fill="#e0e0e0" stroke="#999999" points="530,-24.5 390,-24.5 390,-5.5 530,-5.5 530,-24.5"/>
<text text-anchor="middle" x="460" y="-12.5" font-family="Helvetica,sans-Serif" font-size="10.00">deal.II/dofs/dof_handler.h</text>
</a>
</g>
</g>
<!-- Node10&#45;&gt;Node19 -->
<g id="edge24_Node000010_Node000019" class="edge">
<title>Node10&#45;&gt;Node19</title>
<g id="a_edge24_Node000010_Node000019"><a xlink:title=" ">
<path fill="none" stroke="#63b8ff" d="M1036.1,-142.85C917.69,-133.41 575.18,-105.45 553,-96 544.11,-92.21 501.09,-53.59 476.79,-31.43"/>
<polygon fill="#63b8ff" stroke="#63b8ff" points="479.09,-28.78 469.35,-24.61 474.36,-33.95 479.09,-28.78"/>
</a>
</g>
</g>
<!-- Node29 -->
<g id="Node000029" class="node">
<title>Node29</title>
<g id="a_Node000029"><a xlink:title=" ">
<polygon fill="#e0e0e0" stroke="#999999" points="714,-96 562,-96 562,-66 714,-66 714,-96"/>
<text text-anchor="start" x="570" y="-84" font-family="Helvetica,sans-Serif" font-size="10.00">deal.II/base/auto_derivative</text>
<text text-anchor="middle" x="638" y="-73" font-family="Helvetica,sans-Serif" font-size="10.00">_function.h</text>
</a>
</g>
</g>
<!-- Node10&#45;&gt;Node29 -->
<g id="edge18_Node000010_Node000029" class="edge">
<title>Node10&#45;&gt;Node29</title>
<g id="a_edge18_Node000010_Node000029"><a xlink:title=" ">
<path fill="none" stroke="#63b8ff" d="M1036.37,-140.64C972.95,-132 844.47,-114.26 724.51,-96.06"/>
<polygon fill="#63b8ff" stroke="#63b8ff" points="724.83,-92.57 714.42,-94.52 723.78,-99.49 724.83,-92.57"/>
</a>
</g>
</g>
<!-- Node30 -->
<g id="Node000030" class="node">
<title>Node30</title>
<g id="a_Node000030"><a xlink:title=" ">
<polygon fill="#e0e0e0" stroke="#999999" points="857.5,-90.5 732.5,-90.5 732.5,-71.5 857.5,-71.5 857.5,-90.5"/>
<text text-anchor="middle" x="795" y="-78.5" font-family="Helvetica,sans-Serif" font-size="10.00">deal.II/base/function.h</text>
</a>
</g>
</g>
<!-- Node10&#45;&gt;Node30 -->
<g id="edge19_Node000010_Node000030" class="edge">
<title>Node10&#45;&gt;Node30</title>
<g id="a_edge19_Node000010_Node000030"><a xlink:title=" ">
<path fill="none" stroke="#63b8ff" d="M1038.39,-137.44C987.71,-125.89 897.48,-105.34 842.27,-92.77"/>
<polygon fill="#63b8ff" stroke="#63b8ff" points="842.91,-89.32 832.38,-90.51 841.36,-96.15 842.91,-89.32"/>
</a>
</g>
</g>
<!-- Node31 -->
<g id="Node000031" class="node">
<title>Node31</title>
<g id="a_Node000031"><a xlink:title=" ">
<polygon fill="#e0e0e0" stroke="#999999" points="1000,-90.5 876,-90.5 876,-71.5 1000,-71.5 1000,-90.5"/>
<text text-anchor="middle" x="938" y="-78.5" font-family="Helvetica,sans-Serif" font-size="10.00">deal.II/grid/manifold.h</text>
</a>
</g>
</g>
<!-- Node10&#45;&gt;Node31 -->
<g id="edge20_Node000010_Node000031" class="edge">
<title>Node10&#45;&gt;Node31</title>
<g id="a_edge20_Node000010_Node000031"><a xlink:title=" ">
<path fill="none" stroke="#63b8ff" d="M1057.39,-137.37C1033.93,-126.49 993.39,-107.69 966.14,-95.05"/>
<polygon fill="#63b8ff" stroke="#63b8ff" points="967.3,-91.73 956.76,-90.7 964.36,-98.08 967.3,-91.73"/>
</a>
</g>
</g>
<!-- Node32 -->
<g id="Node000032" class="node">
<title>Node32</title>
<g id="a_Node000032"><a xlink:title=" ">
<polygon fill="#e0e0e0" stroke="#999999" points="1133.5,-96 1018.5,-96 1018.5,-66 1133.5,-66 1133.5,-96"/>
<text text-anchor="start" x="1026.5" y="-84" font-family="Helvetica,sans-Serif" font-size="10.00">deal.II/grid/manifold</text>
<text text-anchor="middle" x="1076" y="-73" font-family="Helvetica,sans-Serif" font-size="10.00">_lib.h</text>
</a>
</g>
</g>
<!-- Node10&#45;&gt;Node32 -->
<g id="edge21_Node000010_Node000032" class="edge">
<title>Node10&#45;&gt;Node32</title>
<g id="a_edge21_Node000010_Node000032"><a xlink:title=" ">
<path fill="none" stroke="#63b8ff" d="M1076,-137.37C1076,-129.49 1076,-117.45 1076,-106.6"/>
<polygon fill="#63b8ff" stroke="#63b8ff" points="1079.5,-106.36 1076,-96.36 1072.5,-106.36 1079.5,-106.36"/>
</a>
</g>
</g>
<!-- Node33 -->
<g id="Node000033" class="node">
<title>Node33</title>
<g id="a_Node000033"><a xlink:title=" ">
<polygon fill="#e0e0e0" stroke="#999999" points="1266.5,-96 1151.5,-96 1151.5,-66 1266.5,-66 1266.5,-96"/>
<text text-anchor="start" x="1159.5" y="-84" font-family="Helvetica,sans-Serif" font-size="10.00">boost/range/adaptor</text>
<text text-anchor="middle" x="1209" y="-73" font-family="Helvetica,sans-Serif" font-size="10.00">/map.hpp</text>
</a>
</g>
</g>
<!-- Node10&#45;&gt;Node33 -->
<g id="edge22_Node000010_Node000033" class="edge">
<title>Node10&#45;&gt;Node33</title>
<g id="a_edge22_Node000010_Node000033"><a xlink:title=" ">
<path fill="none" stroke="#63b8ff" d="M1093.94,-137.37C1113.43,-127.99 1145.16,-112.72 1170.36,-100.59"/>
<polygon fill="#63b8ff" stroke="#63b8ff" points="1172.17,-103.61 1179.67,-96.12 1169.14,-97.3 1172.17,-103.61"/>
</a>
</g>
</g>
<!-- Node34 -->
<g id="Node000034" class="node">
<title>Node34</title>
<g id="a_Node000034"><a xlink:title=" ">
<polygon fill="#e0e0e0" stroke="#999999" points="1401,-96 1285,-96 1285,-66 1401,-66 1401,-96"/>
<text text-anchor="start" x="1293" y="-84" font-family="Helvetica,sans-Serif" font-size="10.00">deal.II/base/function</text>
<text text-anchor="middle" x="1343" y="-73" font-family="Helvetica,sans-Serif" font-size="10.00">_signed_distance.h</text>
</a>
</g>
</g>
<!-- Node10&#45;&gt;Node34 -->
<g id="edge23_Node000010_Node000034" class="edge">
<title>Node10&#45;&gt;Node34</title>
<g id="a_edge23_Node000010_Node000034"><a xlink:title=" ">
<path fill="none" stroke="#63b8ff" d="M1111.73,-137.44C1153.38,-127.45 1223.14,-110.73 1275.17,-98.26"/>
<polygon fill="#63b8ff" stroke="#63b8ff" points="1276.09,-101.64 1285,-95.9 1274.46,-94.83 1276.09,-101.64"/>
</a>
</g>
</g>
<!-- Node35 -->
<g id="Node000035" class="node">
<title>Node35</title>
<g id="a_Node000035"><a xlink:title=" ">
<polygon fill="#e0e0e0" stroke="#999999" points="1547,-90.5 1419,-90.5 1419,-71.5 1547,-71.5 1547,-90.5"/>
<text text-anchor="middle" x="1483" y="-78.5" font-family="Helvetica,sans-Serif" font-size="10.00">deal.II/dofs/dof_tools.h</text>
</a>
</g>
</g>
<!-- Node10&#45;&gt;Node35 -->
<g id="edge25_Node000010_Node000035" class="edge">
<title>Node10&#45;&gt;Node35</title>
<g id="a_edge25_Node000010_Node000035"><a xlink:title=" ">
<path fill="none" stroke="#63b8ff" d="M1115.67,-140.6C1178.32,-131.94 1303.94,-114.1 1410,-96 1416.58,-94.88 1423.48,-93.64 1430.31,-92.37"/>
<polygon fill="#63b8ff" stroke="#63b8ff" points="1431.02,-95.8 1440.21,-90.51 1429.73,-88.92 1431.02,-95.8"/>
</a>
</g>
</g>
<!-- Node36 -->
<g id="Node000036" class="node">
<title>Node36</title>
<g id="a_Node000036"><a xlink:title=" ">
<polygon fill="#e0e0e0" stroke="#999999" points="1741,-90.5 1565,-90.5 1565,-71.5 1741,-71.5 1741,-90.5"/>
<text text-anchor="middle" x="1653" y="-78.5" font-family="Helvetica,sans-Serif" font-size="10.00">deal.II/physics/transformations.h</text>
</a>
</g>
</g>
<!-- Node10&#45;&gt;Node36 -->
<g id="edge26_Node000010_Node000036" class="edge">
<title>Node10&#45;&gt;Node36</title>
<g id="a_edge26_Node000010_Node000036"><a xlink:title=" ">
<path fill="none" stroke="#63b8ff" d="M1115.57,-142.41C1197.75,-134.84 1392.83,-116.27 1556,-96 1565.88,-94.77 1576.31,-93.38 1586.52,-91.95"/>
<polygon fill="#63b8ff" stroke="#63b8ff" points="1587.22,-95.39 1596.63,-90.52 1586.24,-88.46 1587.22,-95.39"/>
</a>
</g>
</g>
<!-- Node37 -->
<g id="Node000037" class="node">
<title>Node37</title>
<g id="a_Node000037"><a xlink:title=" ">
<polygon fill="#e0e0e0" stroke="#999999" points="1803,-90.5 1759,-90.5 1759,-71.5 1803,-71.5 1803,-90.5"/>
<text text-anchor="middle" x="1781" y="-78.5" font-family="Helvetica,sans-Serif" font-size="10.00">cfloat</text>
</a>
</g>
</g>
<!-- Node10&#45;&gt;Node37 -->
<g id="edge27_Node000010_Node000037" class="edge">
<title>Node10&#45;&gt;Node37</title>
<g id="a_edge27_Node000010_Node000037"><a xlink:title=" ">
<path fill="none" stroke="#63b8ff" d="M1115.52,-144.88C1240.91,-141.03 1628.61,-126.88 1750,-96 1751.73,-95.56 1753.49,-95.03 1755.24,-94.43"/>
<polygon fill="#63b8ff" stroke="#63b8ff" points="1757,-97.49 1764.98,-90.52 1754.39,-91 1757,-97.49"/>
</a>
</g>
</g>
<!-- Node38 -->
<g id="Node000038" class="node">
<title>Node38</title>
<g id="a_Node000038"><a xlink:title=" ">
<polygon fill="#e0e0e0" stroke="#999999" points="506,-90.5 448,-90.5 448,-71.5 506,-71.5 506,-90.5"/>
<text text-anchor="middle" x="477" y="-78.5" font-family="Helvetica,sans-Serif" font-size="10.00">memory</text>
</a>
</g>
</g>
<!-- Node10&#45;&gt;Node38 -->
<g id="edge28_Node000010_Node000038" class="edge">
<title>Node10&#45;&gt;Node38</title>
<g id="a_edge28_Node000010_Node000038"><a xlink:title=" ">
<path fill="none" stroke="#63b8ff" d="M1036.41,-142.96C917.78,-133.77 570.26,-106.3 520,-96 516.59,-95.3 513.07,-94.42 509.58,-93.45"/>
<polygon fill="#63b8ff" stroke="#63b8ff" points="510.54,-90.08 499.95,-90.53 508.5,-96.78 510.54,-90.08"/>
</a>
</g>
</g>
<!-- Node11&#45;&gt;Node12 -->
<g id="edge11_Node000011_Node000012" class="edge">
<title>Node11&#45;&gt;Node12</title>
<g id="a_edge11_Node000011_Node000012"><a xlink:title=" ">
<path fill="none" stroke="#63b8ff" d="M1897,-65.8C1897,-56.7 1897,-44.79 1897,-34.9"/>
<polygon fill="#63b8ff" stroke="#63b8ff" points="1900.5,-34.84 1897,-24.84 1893.5,-34.84 1900.5,-34.84"/>
</a>
</g>
</g>
<!-- Node14&#45;&gt;Node5 -->
<g id="edge13_Node000014_Node000005" class="edge">
<title>Node14&#45;&gt;Node5</title>
<g id="a_edge13_Node000014_Node000005"><a xlink:title=" ">
<path fill="none" stroke="#63b8ff" d="M413.73,-71.49C421.77,-69.29 430.67,-67.2 439,-66 773.85,-17.68 1624.39,-63.98 1961,-30 1962.31,-29.87 1963.63,-29.73 1964.96,-29.58"/>
<polygon fill="#63b8ff" stroke="#63b8ff" points="1965.78,-33 1975.26,-28.26 1964.9,-26.05 1965.78,-33"/>
</a>
</g>
</g>
<!-- Node14&#45;&gt;Node8 -->
<g id="edge16_Node000014_Node000008" class="edge">
<title>Node14&#45;&gt;Node8</title>
<g id="a_edge16_Node000014_Node000008"><a xlink:title=" ">
<path fill="none" stroke="#63b8ff" d="M375.4,-71.37C361.42,-60.97 337.71,-43.32 320.82,-30.75"/>
<polygon fill="#63b8ff" stroke="#63b8ff" points="322.8,-27.86 312.69,-24.7 318.62,-33.48 322.8,-27.86"/>
</a>
</g>
</g>
<!-- Node14&#45;&gt;Node9 -->
<g id="edge17_Node000014_Node000009" class="edge">
<title>Node14&#45;&gt;Node9</title>
<g id="a_edge17_Node000014_Node000009"><a xlink:title=" ">
<path fill="none" stroke="#63b8ff" d="M365.02,-71.37C336.75,-60.27 287.46,-40.92 255.29,-28.28"/>
<polygon fill="#63b8ff" stroke="#63b8ff" points="256.48,-24.99 245.89,-24.6 253.92,-31.51 256.48,-24.99"/>
</a>
</g>
</g>
<!-- Node14&#45;&gt;Node12 -->
<g id="edge14_Node000014_Node000012" class="edge">
<title>Node14&#45;&gt;Node12</title>
<g id="a_edge14_Node000014_Node000012"><a xlink:title=" ">
<path fill="none" stroke="#63b8ff" d="M414.01,-71.47C421.98,-69.3 430.77,-67.23 439,-66 713.25,-24.93 1585.12,-17.54 1831.55,-16.26"/>
<polygon fill="#63b8ff" stroke="#63b8ff" points="1831.8,-19.76 1841.78,-16.21 1831.76,-12.76 1831.8,-19.76"/>
</a>
</g>
</g>
<!-- Node14&#45;&gt;Node19 -->
<g id="edge15_Node000014_Node000019" class="edge">
<title>Node14&#45;&gt;Node19</title>
<g id="a_edge15_Node000014_Node000019"><a xlink:title=" ">
<path fill="none" stroke="#63b8ff" d="M396.85,-71.37C408.43,-61.21 427.88,-44.16 442.14,-31.65"/>
<polygon fill="#63b8ff" stroke="#63b8ff" points="444.63,-34.13 449.84,-24.91 440.02,-28.87 444.63,-34.13"/>
</a>
</g>
</g>
<!-- Node42&#45;&gt;Node3 -->
<g id="edge38_Node000042_Node000003" class="edge">
<title>Node42&#45;&gt;Node3</title>
<g id="a_edge38_Node000042_Node000003"><a xlink:title=" ">
<path fill="none" stroke="#63b8ff" d="M1093.75,-439.9C1101.27,-430.29 1110.76,-416.99 1117,-404 1135.04,-366.47 1146.34,-318.65 1151.57,-292.9"/>
<polygon fill="#63b8ff" stroke="#63b8ff" points="1155.02,-293.51 1153.5,-283.03 1148.15,-292.17 1155.02,-293.51"/>
</a>
</g>
</g>
<!-- Node43 -->
<g id="Node000043" class="node">
<title>Node43</title>
<g id="a_Node000043"><a xlink:href="simulation__control_8h.html" target="_top" xlink:title="Simulation control classes for managing time&#45;stepping and iteration control in Lethe.">
<polygon fill="white" stroke="#666666" points="1108,-404 968,-404 968,-385 1108,-385 1108,-404"/>
<text text-anchor="middle" x="1038" y="-392" font-family="Helvetica,sans-Serif" font-size="10.00">core/simulation_control.h</text>
</a>
</g>
</g>
<!-- Node42&#45;&gt;Node43 -->
<g id="edge39_Node000042_Node000043" class="edge">
<title>Node42&#45;&gt;Node43</title>
<g id="a_edge39_Node000042_Node000043"><a xlink:title=" ">
<path fill="none" stroke="#63b8ff" d="M1071.35,-439.84C1065.16,-431.61 1057.31,-421.18 1050.79,-412.51"/>
<polygon fill="#63b8ff" stroke="#63b8ff" points="1053.4,-410.15 1044.59,-404.27 1047.81,-414.36 1053.4,-410.15"/>
</a>
</g>
</g>
<!-- Node43&#45;&gt;Node3 -->
<g id="edge44_Node000043_Node000003" class="edge">
<title>Node43&#45;&gt;Node3</title>
<g id="a_edge44_Node000043_Node000003"><a xlink:title=" ">
<path fill="none" stroke="#63b8ff" d="M1046.41,-384.94C1065.8,-365.23 1113.86,-316.34 1139.04,-290.73"/>
<polygon fill="#63b8ff" stroke="#63b8ff" points="1141.83,-292.89 1146.35,-283.3 1136.84,-287.98 1141.83,-292.89"/>
</a>
</g>
</g>
<!-- Node44 -->
<g id="Node000044" class="node">
<title>Node44</title>
<g id="a_Node000044"><a xlink:href="bdf_8h.html" target="_top" xlink:title=" ">
<polygon fill="white" stroke="#666666" points="1069.5,-343.5 1004.5,-343.5 1004.5,-324.5 1069.5,-324.5 1069.5,-343.5"/>
<text text-anchor="middle" x="1037" y="-331.5" font-family="Helvetica,sans-Serif" font-size="10.00">core/bdf.h</text>
</a>
</g>
</g>
<!-- Node43&#45;&gt;Node44 -->
<g id="edge40_Node000043_Node000044" class="edge">
<title>Node43&#45;&gt;Node44</title>
<g id="a_edge40_Node000043_Node000044"><a xlink:title=" ">
<path fill="none" stroke="#63b8ff" d="M1037.85,-384.87C1037.71,-376.75 1037.5,-364.31 1037.32,-353.89"/>
<polygon fill="#63b8ff" stroke="#63b8ff" points="1040.82,-353.61 1037.15,-343.67 1033.82,-353.73 1040.82,-353.61"/>
</a>
</g>
</g>
<!-- Node46 -->
<g id="Node000046" class="node">
<title>Node46</title>
<g id="a_Node000046"><a xlink:title=" ">
<polygon fill="#e0e0e0" stroke="#999999" points="986.5,-349 855.5,-349 855.5,-319 986.5,-319 986.5,-349"/>
<text text-anchor="start" x="863.5" y="-337" font-family="Helvetica,sans-Serif" font-size="10.00">deal.II/particles/particle</text>
<text text-anchor="middle" x="921" y="-326" font-family="Helvetica,sans-Serif" font-size="10.00">_handler.h</text>
</a>
</g>
</g>
<!-- Node43&#45;&gt;Node46 -->
<g id="edge45_Node000043_Node000046" class="edge">
<title>Node43&#45;&gt;Node46</title>
<g id="a_edge45_Node000043_Node000046"><a xlink:title=" ">
<path fill="none" stroke="#63b8ff" d="M1020.99,-384.99C1004.65,-376.82 979.41,-364.2 958.37,-353.69"/>
<polygon fill="#63b8ff" stroke="#63b8ff" points="959.86,-350.52 949.36,-349.18 956.73,-356.78 959.86,-350.52"/>
</a>
</g>
</g>
<!-- Node44&#45;&gt;Node3 -->
<g id="edge41_Node000044_Node000003" class="edge">
<title>Node44&#45;&gt;Node3</title>
<g id="a_edge41_Node000044_Node000003"><a xlink:title=" ">
<path fill="none" stroke="#63b8ff" d="M1054.16,-324.49C1073.73,-314.79 1105.97,-298.81 1128.72,-287.53"/>
<polygon fill="#63b8ff" stroke="#63b8ff" points="1130.42,-290.59 1137.82,-283.02 1127.31,-284.32 1130.42,-290.59"/>
</a>
</g>
</g>
<!-- Node44&#45;&gt;Node9 -->
<g id="edge43_Node000044_Node000009" class="edge">
<title>Node44&#45;&gt;Node9</title>
<g id="a_edge43_Node000044_Node000009"><a xlink:title=" ">
<path fill="none" stroke="#63b8ff" d="M1014.69,-324.44C1008.69,-322.4 1002.16,-320.41 996,-319 901.95,-297.46 134,-310.49 134,-214 134,-214 134,-214 134,-146 134,-96.96 177.84,-53.05 204.32,-31"/>
<polygon fill="#63b8ff" stroke="#63b8ff" points="206.64,-33.62 212.23,-24.63 202.25,-28.17 206.64,-33.62"/>
</a>
</g>
</g>
<!-- Node45 -->
<g id="Node000045" class="node">
<title>Node45</title>
<g id="a_Node000045"><a xlink:title=" ">
<polygon fill="#e0e0e0" stroke="#999999" points="106,-283 0,-283 0,-264 106,-264 106,-283"/>
<text text-anchor="middle" x="53" y="-271" font-family="Helvetica,sans-Serif" font-size="10.00">deal.II/lac/vector.h</text>
</a>
</g>
</g>
<!-- Node44&#45;&gt;Node45 -->
<g id="edge42_Node000044_Node000045" class="edge">
<title>Node44&#45;&gt;Node45</title>
<g id="a_edge42_Node000044_Node000045"><a xlink:title=" ">
<path fill="none" stroke="#63b8ff" d="M1015.61,-324.4C1009.38,-322.25 1002.51,-320.22 996,-319 612.99,-247.3 508.3,-315.55 120,-283 118.89,-282.91 117.77,-282.81 116.64,-282.71"/>
<polygon fill="#63b8ff" stroke="#63b8ff" points="116.65,-279.19 106.35,-281.68 115.96,-286.16 116.65,-279.19"/>
</a>
</g>
</g>
</g>
</svg>
