<?xml version="1.0" encoding="UTF-8" standalone="no"?>
<!DOCTYPE svg PUBLIC "-//W3C//DTD SVG 1.1//EN"
 "http://www.w3.org/Graphics/SVG/1.1/DTD/svg11.dtd">
<!-- Generated by graphviz version 2.43.0 (0)
 -->
<!-- Title: /home/runner/work/lethe/lethe/include/core/manifolds.h Pages: 1 -->
<svg width="1879pt" height="236pt"
 viewBox="0.00 0.00 1878.50 236.00" xmlns="http://www.w3.org/2000/svg" xmlns:xlink="http://www.w3.org/1999/xlink">
<g id="graph0" class="graph" transform="scale(1 1) rotate(0) translate(4 232)">
<title>/home/runner/work/lethe/lethe/include/core/manifolds.h</title>
<!-- Node1 -->
<g id="Node000001" class="node">
<title>Node1</title>
<g id="a_Node000001"><a xlink:title=" ">
<polygon fill="#999999" stroke="#666666" points="1801,-228 1634,-228 1634,-198 1801,-198 1801,-228"/>
<text text-anchor="start" x="1642" y="-216" font-family="Helvetica,sans-Serif" font-size="10.00">/home/runner/work/lethe</text>
<text text-anchor="middle" x="1717.5" y="-205" font-family="Helvetica,sans-Serif" font-size="10.00">/lethe/include/core/manifolds.h</text>
</a>
</g>
</g>
<!-- Node2 -->
<g id="Node000002" class="node">
<title>Node2</title>
<g id="a_Node000002"><a xlink:href="core_2utilities_8h.html" target="_top" xlink:title=" ">
<polygon fill="white" stroke="#666666" points="1118.5,-156.5 1032.5,-156.5 1032.5,-137.5 1118.5,-137.5 1118.5,-156.5"/>
<text text-anchor="middle" x="1075.5" y="-144.5" font-family="Helvetica,sans-Serif" font-size="10.00">core/utilities.h</text>
</a>
</g>
</g>
<!-- Node1&#45;&gt;Node2 -->
<g id="edge1_Node000001_Node000002" class="edge">
<title>Node1&#45;&gt;Node2</title>
<g id="a_edge1_Node000001_Node000002"><a xlink:title=" ">
<path fill="none" stroke="#63b8ff" d="M1633.9,-203.67C1499.87,-190.31 1240.66,-164.47 1128.91,-153.32"/>
<polygon fill="#63b8ff" stroke="#63b8ff" points="1129.18,-149.83 1118.88,-152.32 1128.49,-156.8 1129.18,-149.83"/>
</a>
</g>
</g>
<!-- Node5 -->
<g id="Node000005" class="node">
<title>Node5</title>
<g id="a_Node000005"><a xlink:title=" ">
<polygon fill="#e0e0e0" stroke="#999999" points="1019,-30 900,-30 900,0 1019,0 1019,-30"/>
<text text-anchor="start" x="908" y="-18" font-family="Helvetica,sans-Serif" font-size="10.00">deal.II/numerics/data</text>
<text text-anchor="middle" x="959.5" y="-7" font-family="Helvetica,sans-Serif" font-size="10.00">_postprocessor.h</text>
</a>
</g>
</g>
<!-- Node1&#45;&gt;Node5 -->
<g id="edge22_Node000001_Node000005" class="edge">
<title>Node1&#45;&gt;Node5</title>
<g id="a_edge22_Node000001_Node000005"><a xlink:title=" ">
<path fill="none" stroke="#63b8ff" d="M1723.65,-197.68C1735.08,-168.59 1755.47,-102.27 1721.5,-66 1674.77,-16.11 1208.75,-14.15 1029.36,-15.28"/>
<polygon fill="#63b8ff" stroke="#63b8ff" points="1029.22,-11.78 1019.25,-15.35 1029.27,-18.78 1029.22,-11.78"/>
</a>
</g>
</g>
<!-- Node7 -->
<g id="Node000007" class="node">
<title>Node7</title>
<g id="a_Node000007"><a xlink:title=" ">
<polygon fill="#e0e0e0" stroke="#999999" points="1712,-96 1585,-96 1585,-66 1712,-66 1712,-96"/>
<text text-anchor="start" x="1593" y="-84" font-family="Helvetica,sans-Serif" font-size="10.00">deal.II/base/parameter</text>
<text text-anchor="middle" x="1648.5" y="-73" font-family="Helvetica,sans-Serif" font-size="10.00">_handler.h</text>
</a>
</g>
</g>
<!-- Node1&#45;&gt;Node7 -->
<g id="edge20_Node000001_Node000007" class="edge">
<title>Node1&#45;&gt;Node7</title>
<g id="a_edge20_Node000001_Node000007"><a xlink:title=" ">
<path fill="none" stroke="#63b8ff" d="M1709.98,-197.84C1698.16,-175.57 1675.11,-132.13 1660.83,-105.23"/>
<polygon fill="#63b8ff" stroke="#63b8ff" points="1663.79,-103.33 1656.01,-96.14 1657.6,-106.62 1663.79,-103.33"/>
</a>
</g>
</g>
<!-- Node20 -->
<g id="Node000020" class="node">
<title>Node20</title>
<g id="a_Node000020"><a xlink:title=" ">
<polygon fill="#e0e0e0" stroke="#999999" points="1870.5,-162 1768.5,-162 1768.5,-132 1870.5,-132 1870.5,-162"/>
<text text-anchor="start" x="1776.5" y="-150" font-family="Helvetica,sans-Serif" font-size="10.00">deal.II/distributed</text>
<text text-anchor="middle" x="1819.5" y="-139" font-family="Helvetica,sans-Serif" font-size="10.00">/tria_base.h</text>
</a>
</g>
</g>
<!-- Node1&#45;&gt;Node20 -->
<g id="edge21_Node000001_Node000020" class="edge">
<title>Node1&#45;&gt;Node20</title>
<g id="a_edge21_Node000001_Node000020"><a xlink:title=" ">
<path fill="none" stroke="#63b8ff" d="M1739.88,-197.95C1754.1,-189.03 1772.7,-177.36 1788.35,-167.54"/>
<polygon fill="#63b8ff" stroke="#63b8ff" points="1790.56,-170.29 1797.17,-162.01 1786.84,-164.36 1790.56,-170.29"/>
</a>
</g>
</g>
<!-- Node3 -->
<g id="Node000003" class="node">
<title>Node3</title>
<g id="a_Node000003"><a xlink:href="output__struct_8h.html" target="_top" xlink:title=" ">
<polygon fill="white" stroke="#666666" points="150.5,-90.5 36.5,-90.5 36.5,-71.5 150.5,-71.5 150.5,-90.5"/>
<text text-anchor="middle" x="93.5" y="-78.5" font-family="Helvetica,sans-Serif" font-size="10.00">core/output_struct.h</text>
</a>
</g>
</g>
<!-- Node2&#45;&gt;Node3 -->
<g id="edge2_Node000002_Node000003" class="edge">
<title>Node2&#45;&gt;Node3</title>
<g id="a_edge2_Node000002_Node000003"><a xlink:title=" ">
<path fill="none" stroke="#63b8ff" d="M1032.36,-146C900.82,-145.52 493.42,-140.26 159.5,-96 152.79,-95.11 145.75,-93.91 138.86,-92.58"/>
<polygon fill="#63b8ff" stroke="#63b8ff" points="139.44,-89.13 128.95,-90.57 138.05,-95.99 139.44,-89.13"/>
</a>
</g>
</g>
<!-- Node4 -->
<g id="Node000004" class="node">
<title>Node4</title>
<g id="a_Node000004"><a xlink:title=" ">
<polygon fill="#e0e0e0" stroke="#999999" points="101,-30 0,-30 0,0 101,0 101,-30"/>
<text text-anchor="start" x="8" y="-18" font-family="Helvetica,sans-Serif" font-size="10.00">deal.II/base/table</text>
<text text-anchor="middle" x="50.5" y="-7" font-family="Helvetica,sans-Serif" font-size="10.00">_handler.h</text>
</a>
</g>
</g>
<!-- Node2&#45;&gt;Node4 -->
<g id="edge8_Node000002_Node000004" class="edge">
<title>Node2&#45;&gt;Node4</title>
<g id="a_edge8_Node000002_Node000004"><a xlink:title=" ">
<path fill="none" stroke="#63b8ff" d="M1032.44,-145.59C839.54,-143.52 62.71,-132.93 27.5,-96 12.81,-80.59 22.64,-56.42 33.64,-38.68"/>
<polygon fill="#63b8ff" stroke="#63b8ff" points="36.75,-40.33 39.37,-30.07 30.92,-36.45 36.75,-40.33"/>
</a>
</g>
</g>
<!-- Node6 -->
<g id="Node000006" class="node">
<title>Node6</title>
<g id="a_Node000006"><a xlink:title=" ">
<polygon fill="#e0e0e0" stroke="#999999" points="298.5,-96 168.5,-96 168.5,-66 298.5,-66 298.5,-96"/>
<text text-anchor="start" x="176.5" y="-84" font-family="Helvetica,sans-Serif" font-size="10.00">deal.II/base/conditional</text>
<text text-anchor="middle" x="233.5" y="-73" font-family="Helvetica,sans-Serif" font-size="10.00">_ostream.h</text>
</a>
</g>
</g>
<!-- Node2&#45;&gt;Node6 -->
<g id="edge5_Node000002_Node000006" class="edge">
<title>Node2&#45;&gt;Node6</title>
<g id="a_edge5_Node000002_Node000006"><a xlink:title=" ">
<path fill="none" stroke="#63b8ff" d="M1032.44,-145.04C916.85,-142.06 590,-131.06 308.79,-96.06"/>
<polygon fill="#63b8ff" stroke="#63b8ff" points="309.16,-92.58 298.8,-94.8 308.29,-99.52 309.16,-92.58"/>
</a>
</g>
</g>
<!-- Node2&#45;&gt;Node7 -->
<g id="edge6_Node000002_Node000007" class="edge">
<title>Node2&#45;&gt;Node7</title>
<g id="a_edge6_Node000002_Node000007"><a xlink:title=" ">
<path fill="none" stroke="#63b8ff" d="M1118.8,-142.99C1204.07,-136.77 1399.93,-121.07 1574.95,-95.99"/>
<polygon fill="#63b8ff" stroke="#63b8ff" points="1575.46,-99.45 1584.86,-94.55 1574.46,-92.52 1575.46,-99.45"/>
</a>
</g>
</g>
<!-- Node8 -->
<g id="Node000008" class="node">
<title>Node8</title>
<g id="a_Node000008"><a xlink:title=" ">
<polygon fill="#e0e0e0" stroke="#999999" points="426.5,-90.5 316.5,-90.5 316.5,-71.5 426.5,-71.5 426.5,-90.5"/>
<text text-anchor="middle" x="371.5" y="-78.5" font-family="Helvetica,sans-Serif" font-size="10.00">deal.II/base/point.h</text>
</a>
</g>
</g>
<!-- Node2&#45;&gt;Node8 -->
<g id="edge7_Node000002_Node000008" class="edge">
<title>Node2&#45;&gt;Node8</title>
<g id="a_edge7_Node000002_Node000008"><a xlink:title=" ">
<path fill="none" stroke="#63b8ff" d="M1032.2,-144.67C928.6,-141.04 658.49,-128.94 435.5,-96 429.22,-95.07 422.64,-93.89 416.19,-92.59"/>
<polygon fill="#63b8ff" stroke="#63b8ff" points="416.72,-89.13 406.22,-90.5 415.29,-95.98 416.72,-89.13"/>
</a>
</g>
</g>
<!-- Node9 -->
<g id="Node000009" class="node">
<title>Node9</title>
<g id="a_Node000009"><a xlink:title=" ">
<polygon fill="#e0e0e0" stroke="#999999" points="560,-90.5 445,-90.5 445,-71.5 560,-71.5 560,-90.5"/>
<text text-anchor="middle" x="502.5" y="-78.5" font-family="Helvetica,sans-Serif" font-size="10.00">deal.II/base/tensor.h</text>
</a>
</g>
</g>
<!-- Node2&#45;&gt;Node9 -->
<g id="edge9_Node000002_Node000009" class="edge">
<title>Node2&#45;&gt;Node9</title>
<g id="a_edge9_Node000002_Node000009"><a xlink:title=" ">
<path fill="none" stroke="#63b8ff" d="M1032.32,-143.31C944.7,-137.49 739.86,-122.14 569.5,-96 563.18,-95.03 556.56,-93.85 550.04,-92.59"/>
<polygon fill="#63b8ff" stroke="#63b8ff" points="550.43,-89.1 539.93,-90.56 549.05,-95.96 550.43,-89.1"/>
</a>
</g>
</g>
<!-- Node10 -->
<g id="Node000010" class="node">
<title>Node10</title>
<g id="a_Node000010"><a xlink:title=" ">
<polygon fill="#e0e0e0" stroke="#999999" points="718.5,-90.5 578.5,-90.5 578.5,-71.5 718.5,-71.5 718.5,-90.5"/>
<text text-anchor="middle" x="648.5" y="-78.5" font-family="Helvetica,sans-Serif" font-size="10.00">deal.II/dofs/dof_handler.h</text>
</a>
</g>
</g>
<!-- Node2&#45;&gt;Node10 -->
<g id="edge10_Node000002_Node000010" class="edge">
<title>Node2&#45;&gt;Node10</title>
<g id="a_edge10_Node000002_Node000010"><a xlink:title=" ">
<path fill="none" stroke="#63b8ff" d="M1032.3,-140.26C966.45,-131.39 837.03,-113.57 727.5,-96 720.31,-94.85 712.77,-93.58 705.31,-92.3"/>
<polygon fill="#63b8ff" stroke="#63b8ff" points="705.7,-88.81 695.24,-90.54 704.49,-95.71 705.7,-88.81"/>
</a>
</g>
</g>
<!-- Node11 -->
<g id="Node000011" class="node">
<title>Node11</title>
<g id="a_Node000011"><a xlink:title=" ">
<polygon fill="#e0e0e0" stroke="#999999" points="856,-90.5 737,-90.5 737,-71.5 856,-71.5 856,-90.5"/>
<text text-anchor="middle" x="796.5" y="-78.5" font-family="Helvetica,sans-Serif" font-size="10.00">deal.II/fe/fe_values.h</text>
</a>
</g>
</g>
<!-- Node2&#45;&gt;Node11 -->
<g id="edge11_Node000002_Node000011" class="edge">
<title>Node2&#45;&gt;Node11</title>
<g id="a_edge11_Node000002_Node000011"><a xlink:title=" ">
<path fill="none" stroke="#63b8ff" d="M1038.16,-137.44C987.84,-125.89 898.25,-105.34 843.43,-92.77"/>
<polygon fill="#63b8ff" stroke="#63b8ff" points="844.15,-89.34 833.62,-90.51 842.58,-96.16 844.15,-89.34"/>
</a>
</g>
</g>
<!-- Node12 -->
<g id="Node000012" class="node">
<title>Node12</title>
<g id="a_Node000012"><a xlink:title=" ">
<polygon fill="#e0e0e0" stroke="#999999" points="1005,-96 874,-96 874,-66 1005,-66 1005,-96"/>
<text text-anchor="start" x="882" y="-84" font-family="Helvetica,sans-Serif" font-size="10.00">deal.II/particles/particle</text>
<text text-anchor="middle" x="939.5" y="-73" font-family="Helvetica,sans-Serif" font-size="10.00">_iterator.h</text>
</a>
</g>
</g>
<!-- Node2&#45;&gt;Node12 -->
<g id="edge12_Node000002_Node000012" class="edge">
<title>Node2&#45;&gt;Node12</title>
<g id="a_edge12_Node000002_Node000012"><a xlink:title=" ">
<path fill="none" stroke="#63b8ff" d="M1057.16,-137.37C1037.14,-127.95 1004.5,-112.59 978.67,-100.43"/>
<polygon fill="#63b8ff" stroke="#63b8ff" points="980.03,-97.21 969.5,-96.12 977.05,-103.54 980.03,-97.21"/>
</a>
</g>
</g>
<!-- Node13 -->
<g id="Node000013" class="node">
<title>Node13</title>
<g id="a_Node000013"><a xlink:title=" ">
<polygon fill="#e0e0e0" stroke="#999999" points="1128,-96 1023,-96 1023,-66 1128,-66 1128,-96"/>
<text text-anchor="start" x="1031" y="-84" font-family="Helvetica,sans-Serif" font-size="10.00">boost/archive/text</text>
<text text-anchor="middle" x="1075.5" y="-73" font-family="Helvetica,sans-Serif" font-size="10.00">_iarchive.hpp</text>
</a>
</g>
</g>
<!-- Node2&#45;&gt;Node13 -->
<g id="edge13_Node000002_Node000013" class="edge">
<title>Node2&#45;&gt;Node13</title>
<g id="a_edge13_Node000002_Node000013"><a xlink:title=" ">
<path fill="none" stroke="#63b8ff" d="M1075.5,-137.37C1075.5,-129.49 1075.5,-117.45 1075.5,-106.6"/>
<polygon fill="#63b8ff" stroke="#63b8ff" points="1079,-106.36 1075.5,-96.36 1072,-106.36 1079,-106.36"/>
</a>
</g>
</g>
<!-- Node14 -->
<g id="Node000014" class="node">
<title>Node14</title>
<g id="a_Node000014"><a xlink:title=" ">
<polygon fill="#e0e0e0" stroke="#999999" points="1251,-96 1146,-96 1146,-66 1251,-66 1251,-96"/>
<text text-anchor="start" x="1154" y="-84" font-family="Helvetica,sans-Serif" font-size="10.00">boost/archive/text</text>
<text text-anchor="middle" x="1198.5" y="-73" font-family="Helvetica,sans-Serif" font-size="10.00">_oarchive.hpp</text>
</a>
</g>
</g>
<!-- Node2&#45;&gt;Node14 -->
<g id="edge14_Node000002_Node000014" class="edge">
<title>Node2&#45;&gt;Node14</title>
<g id="a_edge14_Node000002_Node000014"><a xlink:title=" ">
<path fill="none" stroke="#63b8ff" d="M1092.09,-137.37C1110.03,-128.03 1139.2,-112.86 1162.46,-100.75"/>
<polygon fill="#63b8ff" stroke="#63b8ff" points="1164.12,-103.84 1171.37,-96.12 1160.88,-97.63 1164.12,-103.84"/>
</a>
</g>
</g>
<!-- Node15 -->
<g id="Node000015" class="node">
<title>Node15</title>
<g id="a_Node000015"><a xlink:title=" ">
<polygon fill="#e0e0e0" stroke="#999999" points="1324,-90.5 1269,-90.5 1269,-71.5 1324,-71.5 1324,-90.5"/>
<text text-anchor="middle" x="1296.5" y="-78.5" font-family="Helvetica,sans-Serif" font-size="10.00">fstream</text>
</a>
</g>
</g>
<!-- Node2&#45;&gt;Node15 -->
<g id="edge15_Node000002_Node000015" class="edge">
<title>Node2&#45;&gt;Node15</title>
<g id="a_edge15_Node000002_Node000015"><a xlink:title=" ">
<path fill="none" stroke="#63b8ff" d="M1111.07,-137.42C1148.35,-128.17 1208.49,-112.54 1259.5,-96 1261.36,-95.4 1263.27,-94.75 1265.19,-94.09"/>
<polygon fill="#63b8ff" stroke="#63b8ff" points="1266.5,-97.34 1274.71,-90.64 1264.12,-90.75 1266.5,-97.34"/>
</a>
</g>
</g>
<!-- Node16 -->
<g id="Node000016" class="node">
<title>Node16</title>
<g id="a_Node000016"><a xlink:title=" ">
<polygon fill="#e0e0e0" stroke="#999999" points="1380.5,-90.5 1342.5,-90.5 1342.5,-71.5 1380.5,-71.5 1380.5,-90.5"/>
<text text-anchor="middle" x="1361.5" y="-78.5" font-family="Helvetica,sans-Serif" font-size="10.00">map</text>
</a>
</g>
</g>
<!-- Node2&#45;&gt;Node16 -->
<g id="edge16_Node000002_Node000016" class="edge">
<title>Node2&#45;&gt;Node16</title>
<g id="a_edge16_Node000002_Node000016"><a xlink:title=" ">
<path fill="none" stroke="#63b8ff" d="M1118.66,-141.06C1170.43,-134.34 1259.39,-120.31 1332.5,-96 1333.72,-95.59 1334.96,-95.15 1336.2,-94.67"/>
<polygon fill="#63b8ff" stroke="#63b8ff" points="1337.77,-97.8 1345.55,-90.61 1334.98,-91.38 1337.77,-97.8"/>
</a>
</g>
</g>
<!-- Node17 -->
<g id="Node000017" class="node">
<title>Node17</title>
<g id="a_Node000017"><a xlink:title=" ">
<polygon fill="#e0e0e0" stroke="#999999" points="1442.5,-90.5 1398.5,-90.5 1398.5,-71.5 1442.5,-71.5 1442.5,-90.5"/>
<text text-anchor="middle" x="1420.5" y="-78.5" font-family="Helvetica,sans-Serif" font-size="10.00">string</text>
</a>
</g>
</g>
<!-- Node2&#45;&gt;Node17 -->
<g id="edge17_Node000002_Node000017" class="edge">
<title>Node2&#45;&gt;Node17</title>
<g id="a_edge17_Node000002_Node000017"><a xlink:title=" ">
<path fill="none" stroke="#63b8ff" d="M1118.71,-142.78C1180.01,-137.39 1295.24,-124.24 1389.5,-96 1391.13,-95.51 1392.79,-94.95 1394.45,-94.35"/>
<polygon fill="#63b8ff" stroke="#63b8ff" points="1395.83,-97.57 1403.76,-90.54 1393.18,-91.09 1395.83,-97.57"/>
</a>
</g>
</g>
<!-- Node18 -->
<g id="Node000018" class="node">
<title>Node18</title>
<g id="a_Node000018"><a xlink:title=" ">
<polygon fill="#e0e0e0" stroke="#999999" points="1502,-90.5 1461,-90.5 1461,-71.5 1502,-71.5 1502,-90.5"/>
<text text-anchor="middle" x="1481.5" y="-78.5" font-family="Helvetica,sans-Serif" font-size="10.00">tuple</text>
</a>
</g>
</g>
<!-- Node2&#45;&gt;Node18 -->
<g id="edge18_Node000002_Node000018" class="edge">
<title>Node2&#45;&gt;Node18</title>
<g id="a_edge18_Node000002_Node000018"><a xlink:title=" ">
<path fill="none" stroke="#63b8ff" d="M1118.67,-144.51C1189.5,-141.13 1334.25,-130.28 1451.5,-96 1452.95,-95.58 1454.41,-95.09 1455.88,-94.57"/>
<polygon fill="#63b8ff" stroke="#63b8ff" points="1457.45,-97.7 1465.35,-90.63 1454.77,-91.24 1457.45,-97.7"/>
</a>
</g>
</g>
<!-- Node19 -->
<g id="Node000019" class="node">
<title>Node19</title>
<g id="a_Node000019"><a xlink:title=" ">
<polygon fill="#e0e0e0" stroke="#999999" points="1567,-90.5 1520,-90.5 1520,-71.5 1567,-71.5 1567,-90.5"/>
<text text-anchor="middle" x="1543.5" y="-78.5" font-family="Helvetica,sans-Serif" font-size="10.00">vector</text>
</a>
</g>
</g>
<!-- Node2&#45;&gt;Node19 -->
<g id="edge19_Node000002_Node000019" class="edge">
<title>Node2&#45;&gt;Node19</title>
<g id="a_edge19_Node000002_Node000019"><a xlink:title=" ">
<path fill="none" stroke="#63b8ff" d="M1118.55,-145.12C1197.51,-142.61 1370.29,-132.97 1510.5,-96 1512.44,-95.49 1514.42,-94.88 1516.39,-94.22"/>
<polygon fill="#63b8ff" stroke="#63b8ff" points="1517.94,-97.37 1526.02,-90.52 1515.43,-90.84 1517.94,-97.37"/>
</a>
</g>
</g>
<!-- Node3&#45;&gt;Node4 -->
<g id="edge3_Node000003_Node000004" class="edge">
<title>Node3&#45;&gt;Node4</title>
<g id="a_edge3_Node000003_Node000004"><a xlink:title=" ">
<path fill="none" stroke="#63b8ff" d="M87.7,-71.37C82.13,-63.08 73.47,-50.18 65.9,-38.92"/>
<polygon fill="#63b8ff" stroke="#63b8ff" points="68.63,-36.71 60.15,-30.36 62.82,-40.61 68.63,-36.71"/>
</a>
</g>
</g>
<!-- Node3&#45;&gt;Node5 -->
<g id="edge4_Node000003_Node000005" class="edge">
<title>Node3&#45;&gt;Node5</title>
<g id="a_edge4_Node000003_Node000005"><a xlink:title=" ">
<path fill="none" stroke="#63b8ff" d="M128.96,-71.48C138.8,-69.39 149.52,-67.36 159.5,-66 427.86,-29.35 750.57,-19.53 889.88,-16.92"/>
<polygon fill="#63b8ff" stroke="#63b8ff" points="890.06,-20.42 899.99,-16.74 889.93,-13.42 890.06,-20.42"/>
</a>
</g>
</g>
</g>
</svg>
