<?xml version="1.0" encoding="UTF-8" standalone="no"?>
<!DOCTYPE svg PUBLIC "-//W3C//DTD SVG 1.1//EN"
 "http://www.w3.org/Graphics/SVG/1.1/DTD/svg11.dtd">
<!-- Generated by graphviz version 2.43.0 (0)
 -->
<!-- Title: /home/runner/work/lethe/lethe/source/core/mortar_coupling_manager.cc Pages: 1 -->
<svg width="2136pt" height="445pt"
 viewBox="0.00 0.00 2135.50 445.00" xmlns="http://www.w3.org/2000/svg" xmlns:xlink="http://www.w3.org/1999/xlink">
<g id="graph0" class="graph" transform="scale(1 1) rotate(0) translate(4 441)">
<title>/home/runner/work/lethe/lethe/source/core/mortar_coupling_manager.cc</title>
<!-- Node1 -->
<g id="Node000001" class="node">
<title>Node1</title>
<g id="a_Node000001"><a xlink:title=" ">
<polygon fill="#999999" stroke="#666666" points="552,-437 412,-437 412,-396 552,-396 552,-437"/>
<text text-anchor="start" x="420" y="-425" font-family="Helvetica,sans-Serif" font-size="10.00">/home/runner/work/lethe</text>
<text text-anchor="start" x="420" y="-414" font-family="Helvetica,sans-Serif" font-size="10.00">/lethe/source/core/mortar</text>
<text text-anchor="middle" x="482" y="-403" font-family="Helvetica,sans-Serif" font-size="10.00">_coupling_manager.cc</text>
</a>
</g>
</g>
<!-- Node2 -->
<g id="Node000002" class="node">
<title>Node2</title>
<g id="a_Node000002"><a xlink:title=" ">
<polygon fill="#e0e0e0" stroke="#999999" points="114,-288.5 0,-288.5 0,-269.5 114,-269.5 114,-288.5"/>
<text text-anchor="middle" x="57" y="-276.5" font-family="Helvetica,sans-Serif" font-size="10.00">deal.II/base/config.h</text>
</a>
</g>
</g>
<!-- Node1&#45;&gt;Node2 -->
<g id="edge1_Node000001_Node000002" class="edge">
<title>Node1&#45;&gt;Node2</title>
<g id="a_edge1_Node000001_Node000002"><a xlink:title=" ">
<path fill="none" stroke="#63b8ff" d="M411.87,-399.63C369.33,-389.47 314.14,-375.34 266,-360 200.99,-339.28 126.82,-309.34 86.65,-292.58"/>
<polygon fill="#63b8ff" stroke="#63b8ff" points="87.77,-289.26 77.2,-288.62 85.06,-295.71 87.77,-289.26"/>
</a>
</g>
</g>
<!-- Node3 -->
<g id="Node000003" class="node">
<title>Node3</title>
<g id="a_Node000003"><a xlink:href="mortar__coupling__manager_8h.html" target="_top" xlink:title=" ">
<polygon fill="white" stroke="#666666" points="395,-360 275,-360 275,-330 395,-330 395,-360"/>
<text text-anchor="start" x="283" y="-348" font-family="Helvetica,sans-Serif" font-size="10.00">core/mortar_coupling</text>
<text text-anchor="middle" x="335" y="-337" font-family="Helvetica,sans-Serif" font-size="10.00">_manager.h</text>
</a>
</g>
</g>
<!-- Node1&#45;&gt;Node3 -->
<g id="edge2_Node000001_Node000003" class="edge">
<title>Node1&#45;&gt;Node3</title>
<g id="a_edge2_Node000001_Node000003"><a xlink:title=" ">
<path fill="none" stroke="#63b8ff" d="M440.66,-395.96C419.75,-386.07 394.51,-374.13 373.94,-364.41"/>
<polygon fill="#63b8ff" stroke="#63b8ff" points="375.39,-361.22 364.85,-360.11 372.39,-367.55 375.39,-361.22"/>
</a>
</g>
</g>
<!-- Node46 -->
<g id="Node000046" class="node">
<title>Node46</title>
<g id="a_Node000046"><a xlink:title=" ">
<polygon fill="#e0e0e0" stroke="#999999" points="551,-354.5 413,-354.5 413,-335.5 551,-335.5 551,-354.5"/>
<text text-anchor="middle" x="482" y="-342.5" font-family="Helvetica,sans-Serif" font-size="10.00">deal.II/base/exceptions.h</text>
</a>
</g>
</g>
<!-- Node1&#45;&gt;Node46 -->
<g id="edge43_Node000001_Node000046" class="edge">
<title>Node1&#45;&gt;Node46</title>
<g id="a_edge43_Node000001_Node000046"><a xlink:title=" ">
<path fill="none" stroke="#63b8ff" d="M482,-395.77C482,-386.08 482,-374.46 482,-364.88"/>
<polygon fill="#63b8ff" stroke="#63b8ff" points="485.5,-364.82 482,-354.82 478.5,-364.82 485.5,-364.82"/>
</a>
</g>
</g>
<!-- Node47 -->
<g id="Node000047" class="node">
<title>Node47</title>
<g id="a_Node000047"><a xlink:title=" ">
<polygon fill="#e0e0e0" stroke="#999999" points="740.5,-360 569.5,-360 569.5,-330 740.5,-330 740.5,-360"/>
<text text-anchor="start" x="577.5" y="-348" font-family="Helvetica,sans-Serif" font-size="10.00">deal.II/base/mpi_noncontiguous</text>
<text text-anchor="middle" x="655" y="-337" font-family="Helvetica,sans-Serif" font-size="10.00">_partitioner.templates.h</text>
</a>
</g>
</g>
<!-- Node1&#45;&gt;Node47 -->
<g id="edge44_Node000001_Node000047" class="edge">
<title>Node1&#45;&gt;Node47</title>
<g id="a_edge44_Node000001_Node000047"><a xlink:title=" ">
<path fill="none" stroke="#63b8ff" d="M530.65,-395.96C555.8,-385.85 586.26,-373.62 610.74,-363.78"/>
<polygon fill="#63b8ff" stroke="#63b8ff" points="612.17,-366.98 620.14,-360 609.56,-360.48 612.17,-366.98"/>
</a>
</g>
</g>
<!-- Node48 -->
<g id="Node000048" class="node">
<title>Node48</title>
<g id="a_Node000048"><a xlink:title=" ">
<polygon fill="#e0e0e0" stroke="#999999" points="881.5,-354.5 758.5,-354.5 758.5,-335.5 881.5,-335.5 881.5,-354.5"/>
<text text-anchor="middle" x="820" y="-342.5" font-family="Helvetica,sans-Serif" font-size="10.00">deal.II/fe/fe_nothing.h</text>
</a>
</g>
</g>
<!-- Node1&#45;&gt;Node48 -->
<g id="edge45_Node000001_Node000048" class="edge">
<title>Node1&#45;&gt;Node48</title>
<g id="a_edge45_Node000001_Node000048"><a xlink:title=" ">
<path fill="none" stroke="#63b8ff" d="M552.03,-401.1C616.43,-387.86 710.41,-368.53 768.26,-356.64"/>
<polygon fill="#63b8ff" stroke="#63b8ff" points="769.18,-360.02 778.27,-354.58 767.77,-353.17 769.18,-360.02"/>
</a>
</g>
</g>
<!-- Node3&#45;&gt;Node2 -->
<g id="edge3_Node000003_Node000002" class="edge">
<title>Node3&#45;&gt;Node2</title>
<g id="a_edge3_Node000003_Node000002"><a xlink:title=" ">
<path fill="none" stroke="#63b8ff" d="M274.68,-330.11C223.5,-318.33 151.1,-301.66 104.1,-290.84"/>
<polygon fill="#63b8ff" stroke="#63b8ff" points="104.72,-287.39 94.19,-288.56 103.15,-294.22 104.72,-287.39"/>
</a>
</g>
</g>
<!-- Node4 -->
<g id="Node000004" class="node">
<title>Node4</title>
<g id="a_Node000004"><a xlink:href="parameters_8h.html" target="_top" xlink:title=" ">
<polygon fill="white" stroke="#666666" points="522,-288.5 416,-288.5 416,-269.5 522,-269.5 522,-288.5"/>
<text text-anchor="middle" x="469" y="-276.5" font-family="Helvetica,sans-Serif" font-size="10.00">core/parameters.h</text>
</a>
</g>
</g>
<!-- Node3&#45;&gt;Node4 -->
<g id="edge4_Node000003_Node000004" class="edge">
<title>Node3&#45;&gt;Node4</title>
<g id="a_edge4_Node000003_Node000004"><a xlink:title=" ">
<path fill="none" stroke="#63b8ff" d="M364.41,-329.95C387.49,-318.93 419.38,-303.7 441.86,-292.96"/>
<polygon fill="#63b8ff" stroke="#63b8ff" points="443.65,-295.99 451.17,-288.52 440.63,-289.67 443.65,-295.99"/>
</a>
</g>
</g>
<!-- Node15 -->
<g id="Node000015" class="node">
<title>Node15</title>
<g id="a_Node000015"><a xlink:href="utilities_8h.html" target="_top" xlink:title=" ">
<polygon fill="#fff0f0" stroke="red" points="381,-90.5 295,-90.5 295,-71.5 381,-71.5 381,-90.5"/>
<text text-anchor="middle" x="338" y="-78.5" font-family="Helvetica,sans-Serif" font-size="10.00">core/utilities.h</text>
</a>
</g>
</g>
<!-- Node3&#45;&gt;Node15 -->
<g id="edge39_Node000003_Node000015" class="edge">
<title>Node3&#45;&gt;Node15</title>
<g id="a_edge39_Node000003_Node000015"><a xlink:title=" ">
<path fill="none" stroke="#63b8ff" d="M395.04,-331.46C448.7,-319.81 520.45,-302.94 531,-294 555.44,-273.28 553.41,-259.36 560,-228 562.74,-214.95 566.91,-209.4 560,-198 548.92,-179.72 423.9,-121.09 366.5,-94.87"/>
<polygon fill="#63b8ff" stroke="#63b8ff" points="367.8,-91.62 357.25,-90.67 364.9,-97.99 367.8,-91.62"/>
</a>
</g>
</g>
<!-- Node43 -->
<g id="Node000043" class="node">
<title>Node43</title>
<g id="a_Node000043"><a xlink:title=" ">
<polygon fill="#e0e0e0" stroke="#999999" points="778.5,-294 607.5,-294 607.5,-264 778.5,-264 778.5,-294"/>
<text text-anchor="start" x="615.5" y="-282" font-family="Helvetica,sans-Serif" font-size="10.00">deal.II/base/mpi_noncontiguous</text>
<text text-anchor="middle" x="693" y="-271" font-family="Helvetica,sans-Serif" font-size="10.00">_partitioner.h</text>
</a>
</g>
</g>
<!-- Node3&#45;&gt;Node43 -->
<g id="edge40_Node000003_Node000043" class="edge">
<title>Node3&#45;&gt;Node43</title>
<g id="a_edge40_Node000003_Node000043"><a xlink:title=" ">
<path fill="none" stroke="#63b8ff" d="M395.19,-331.68C398.17,-331.11 401.12,-330.54 404,-330 468.68,-317.85 541.71,-305.22 598.17,-295.7"/>
<polygon fill="#63b8ff" stroke="#63b8ff" points="598.88,-299.13 608.16,-294.02 597.72,-292.22 598.88,-299.13"/>
</a>
</g>
</g>
<!-- Node44 -->
<g id="Node000044" class="node">
<title>Node44</title>
<g id="a_Node000044"><a xlink:title=" ">
<polygon fill="#e0e0e0" stroke="#999999" points="254,-288.5 132,-288.5 132,-269.5 254,-269.5 254,-288.5"/>
<text text-anchor="middle" x="193" y="-276.5" font-family="Helvetica,sans-Serif" font-size="10.00">deal.II/fe/fe_system.h</text>
</a>
</g>
</g>
<!-- Node3&#45;&gt;Node44 -->
<g id="edge41_Node000003_Node000044" class="edge">
<title>Node3&#45;&gt;Node44</title>
<g id="a_edge41_Node000003_Node000044"><a xlink:title=" ">
<path fill="none" stroke="#63b8ff" d="M303.84,-329.95C279.15,-318.83 244.97,-303.42 221.12,-292.67"/>
<polygon fill="#63b8ff" stroke="#63b8ff" points="222.45,-289.44 211.9,-288.52 219.58,-295.82 222.45,-289.44"/>
</a>
</g>
</g>
<!-- Node45 -->
<g id="Node000045" class="node">
<title>Node45</title>
<g id="a_Node000045"><a xlink:title=" ">
<polygon fill="#e0e0e0" stroke="#999999" points="397.5,-294 272.5,-294 272.5,-264 397.5,-264 397.5,-294"/>
<text text-anchor="start" x="280.5" y="-282" font-family="Helvetica,sans-Serif" font-size="10.00">deal.II/matrix_free</text>
<text text-anchor="middle" x="335" y="-271" font-family="Helvetica,sans-Serif" font-size="10.00">/fe_point_evaluation.h</text>
</a>
</g>
</g>
<!-- Node3&#45;&gt;Node45 -->
<g id="edge42_Node000003_Node000045" class="edge">
<title>Node3&#45;&gt;Node45</title>
<g id="a_edge42_Node000003_Node000045"><a xlink:title=" ">
<path fill="none" stroke="#63b8ff" d="M335,-329.8C335,-322.34 335,-312.99 335,-304.41"/>
<polygon fill="#63b8ff" stroke="#63b8ff" points="338.5,-304.16 335,-294.16 331.5,-304.16 338.5,-304.16"/>
</a>
</g>
</g>
<!-- Node5 -->
<g id="Node000005" class="node">
<title>Node5</title>
<g id="a_Node000005"><a xlink:href="dimensionality_8h.html" target="_top" xlink:title=" ">
<polygon fill="white" stroke="#666666" points="185.5,-156.5 64.5,-156.5 64.5,-137.5 185.5,-137.5 185.5,-156.5"/>
<text text-anchor="middle" x="125" y="-144.5" font-family="Helvetica,sans-Serif" font-size="10.00">core/dimensionality.h</text>
</a>
</g>
</g>
<!-- Node4&#45;&gt;Node5 -->
<g id="edge5_Node000004_Node000005" class="edge">
<title>Node4&#45;&gt;Node5</title>
<g id="a_edge5_Node000004_Node000005"><a xlink:title=" ">
<path fill="none" stroke="#63b8ff" d="M431.4,-269.44C423.05,-267.59 414.23,-265.69 406,-264 321.38,-246.63 292.54,-266.08 215,-228 183.43,-212.5 154.49,-182.82 138.35,-164.3"/>
<polygon fill="#63b8ff" stroke="#63b8ff" points="141.01,-162.02 131.87,-156.66 135.67,-166.55 141.01,-162.02"/>
</a>
</g>
</g>
<!-- Node6 -->
<g id="Node000006" class="node">
<title>Node6</title>
<g id="a_Node000006"><a xlink:title=" ">
<polygon fill="#e0e0e0" stroke="#999999" points="186.5,-30 59.5,-30 59.5,0 186.5,0 186.5,-30"/>
<text text-anchor="start" x="67.5" y="-18" font-family="Helvetica,sans-Serif" font-size="10.00">deal.II/base/parameter</text>
<text text-anchor="middle" x="123" y="-7" font-family="Helvetica,sans-Serif" font-size="10.00">_handler.h</text>
</a>
</g>
</g>
<!-- Node4&#45;&gt;Node6 -->
<g id="edge36_Node000004_Node000006" class="edge">
<title>Node4&#45;&gt;Node6</title>
<g id="a_edge36_Node000004_Node000006"><a xlink:title=" ">
<path fill="none" stroke="#63b8ff" d="M432.44,-269.43C423.8,-267.53 414.59,-265.6 406,-264 246.3,-234.21 135.87,-302.89 55,-162 30.47,-119.26 71.95,-66.17 100.17,-37.23"/>
<polygon fill="#63b8ff" stroke="#63b8ff" points="102.74,-39.62 107.36,-30.08 97.81,-34.65 102.74,-39.62"/>
</a>
</g>
</g>
<!-- Node7 -->
<g id="Node000007" class="node">
<title>Node7</title>
<g id="a_Node000007"><a xlink:href="ib__particle_8h.html" target="_top" xlink:title=" ">
<polygon fill="white" stroke="#666666" points="988.5,-222.5 887.5,-222.5 887.5,-203.5 988.5,-203.5 988.5,-222.5"/>
<text text-anchor="middle" x="938" y="-210.5" font-family="Helvetica,sans-Serif" font-size="10.00">core/ib_particle.h</text>
</a>
</g>
</g>
<!-- Node4&#45;&gt;Node7 -->
<g id="edge7_Node000004_Node000007" class="edge">
<title>Node4&#45;&gt;Node7</title>
<g id="a_edge7_Node000004_Node000007"><a xlink:title=" ">
<path fill="none" stroke="#63b8ff" d="M522.34,-270.72C610.16,-258.74 784.66,-234.93 877.15,-222.3"/>
<polygon fill="#63b8ff" stroke="#63b8ff" points="877.77,-225.75 887.2,-220.93 876.82,-218.82 877.77,-225.75"/>
</a>
</g>
</g>
<!-- Node4&#45;&gt;Node15 -->
<g id="edge35_Node000004_Node000015" class="edge">
<title>Node4&#45;&gt;Node15</title>
<g id="a_edge35_Node000004_Node000015"><a xlink:title=" ">
<path fill="none" stroke="#63b8ff" d="M430.66,-269.48C367.57,-255.44 248.72,-228.9 248,-228 212.38,-183.42 280.52,-123.77 317.04,-96.59"/>
<polygon fill="#63b8ff" stroke="#63b8ff" points="319.11,-99.42 325.14,-90.71 314.99,-93.75 319.11,-99.42"/>
</a>
</g>
</g>
<!-- Node40 -->
<g id="Node000040" class="node">
<title>Node40</title>
<g id="a_Node000040"><a xlink:title=" ">
<polygon fill="#e0e0e0" stroke="#999999" points="2127.5,-162 2018.5,-162 2018.5,-132 2127.5,-132 2127.5,-162"/>
<text text-anchor="start" x="2026.5" y="-150" font-family="Helvetica,sans-Serif" font-size="10.00">deal.II/base/parsed</text>
<text text-anchor="middle" x="2073" y="-139" font-family="Helvetica,sans-Serif" font-size="10.00">_function.h</text>
</a>
</g>
</g>
<!-- Node4&#45;&gt;Node40 -->
<g id="edge37_Node000004_Node000040" class="edge">
<title>Node4&#45;&gt;Node40</title>
<g id="a_edge37_Node000004_Node000040"><a xlink:title=" ">
<path fill="none" stroke="#63b8ff" d="M522.09,-271.86C545.63,-269.25 573.68,-266.28 599,-264 1222.56,-207.81 1383.72,-247.09 2004,-162 2005.48,-161.8 2006.97,-161.58 2008.47,-161.36"/>
<polygon fill="#63b8ff" stroke="#63b8ff" points="2009.19,-164.79 2018.5,-159.73 2008.06,-157.88 2009.19,-164.79"/>
</a>
</g>
</g>
<!-- Node41 -->
<g id="Node000041" class="node">
<title>Node41</title>
<g id="a_Node000041"><a xlink:href="multiphysics_8h.html" target="_top" xlink:title="Identifiers for multiphysics modules and their solution fields.">
<polygon fill="white" stroke="#666666" points="369,-222.5 257,-222.5 257,-203.5 369,-203.5 369,-222.5"/>
<text text-anchor="middle" x="313" y="-210.5" font-family="Helvetica,sans-Serif" font-size="10.00">core/multiphysics.h</text>
</a>
</g>
</g>
<!-- Node4&#45;&gt;Node41 -->
<g id="edge34_Node000004_Node000041" class="edge">
<title>Node4&#45;&gt;Node41</title>
<g id="a_edge34_Node000004_Node000041"><a xlink:title=" ">
<path fill="none" stroke="#63b8ff" d="M447.96,-269.37C421.02,-258.32 374.14,-239.08 343.34,-226.45"/>
<polygon fill="#63b8ff" stroke="#63b8ff" points="344.53,-223.15 333.95,-222.6 341.88,-229.63 344.53,-223.15"/>
</a>
</g>
</g>
<!-- Node42 -->
<g id="Node000042" class="node">
<title>Node42</title>
<g id="a_Node000042"><a xlink:title=" ">
<polygon fill="#e0e0e0" stroke="#999999" points="550.5,-228 387.5,-228 387.5,-198 550.5,-198 550.5,-228"/>
<text text-anchor="start" x="395.5" y="-216" font-family="Helvetica,sans-Serif" font-size="10.00">deal.II/multigrid/mg</text>
<text text-anchor="middle" x="469" y="-205" font-family="Helvetica,sans-Serif" font-size="10.00">_transfer_global_coarsening.h</text>
</a>
</g>
</g>
<!-- Node4&#45;&gt;Node42 -->
<g id="edge38_Node000004_Node000042" class="edge">
<title>Node4&#45;&gt;Node42</title>
<g id="a_edge38_Node000004_Node000042"><a xlink:title=" ">
<path fill="none" stroke="#63b8ff" d="M469,-269.37C469,-261.49 469,-249.45 469,-238.6"/>
<polygon fill="#63b8ff" stroke="#63b8ff" points="472.5,-238.36 469,-228.36 465.5,-238.36 472.5,-238.36"/>
</a>
</g>
</g>
<!-- Node5&#45;&gt;Node6 -->
<g id="edge6_Node000005_Node000006" class="edge">
<title>Node5&#45;&gt;Node6</title>
<g id="a_edge6_Node000005_Node000006"><a xlink:title=" ">
<path fill="none" stroke="#63b8ff" d="M124.87,-137.47C124.57,-118.04 123.83,-69.87 123.37,-40.36"/>
<polygon fill="#63b8ff" stroke="#63b8ff" points="126.87,-40.01 123.22,-30.07 119.87,-40.12 126.87,-40.01"/>
</a>
</g>
</g>
<!-- Node8 -->
<g id="Node000008" class="node">
<title>Node8</title>
<g id="a_Node000008"><a xlink:href="dem__properties_8h.html" target="_top" xlink:title="DEM particle property definitions and output name management.">
<polygon fill="white" stroke="#666666" points="277,-90.5 151,-90.5 151,-71.5 277,-71.5 277,-90.5"/>
<text text-anchor="middle" x="214" y="-78.5" font-family="Helvetica,sans-Serif" font-size="10.00">core/dem_properties.h</text>
</a>
</g>
</g>
<!-- Node7&#45;&gt;Node8 -->
<g id="edge8_Node000007_Node000008" class="edge">
<title>Node7&#45;&gt;Node8</title>
<g id="a_edge8_Node000007_Node000008"><a xlink:title=" ">
<path fill="none" stroke="#63b8ff" d="M887.23,-208.87C805.05,-203.21 638.07,-189.26 499,-162 407.32,-144.03 302.14,-111.24 248.86,-93.74"/>
<polygon fill="#63b8ff" stroke="#63b8ff" points="249.81,-90.37 239.22,-90.56 247.61,-97.02 249.81,-90.37"/>
</a>
</g>
</g>
<!-- Node10 -->
<g id="Node000010" class="node">
<title>Node10</title>
<g id="a_Node000010"><a xlink:title=" ">
<polygon fill="#e0e0e0" stroke="#999999" points="361.5,-24.5 314.5,-24.5 314.5,-5.5 361.5,-5.5 361.5,-24.5"/>
<text text-anchor="middle" x="338" y="-12.5" font-family="Helvetica,sans-Serif" font-size="10.00">vector</text>
</a>
</g>
</g>
<!-- Node7&#45;&gt;Node10 -->
<g id="edge33_Node000007_Node000010" class="edge">
<title>Node7&#45;&gt;Node10</title>
<g id="a_edge33_Node000007_Node000010"><a xlink:title=" ">
<path fill="none" stroke="#63b8ff" d="M887.38,-208.83C792.39,-201.13 583.03,-175.76 428,-96 419.6,-91.68 378.22,-53.6 354.6,-31.57"/>
<polygon fill="#63b8ff" stroke="#63b8ff" points="356.77,-28.81 347.07,-24.53 351.99,-33.92 356.77,-28.81"/>
</a>
</g>
</g>
<!-- Node11 -->
<g id="Node000011" class="node">
<title>Node11</title>
<g id="a_Node000011"><a xlink:href="shape_8h.html" target="_top" xlink:title=" ">
<polygon fill="white" stroke="#666666" points="1190.5,-156.5 1111.5,-156.5 1111.5,-137.5 1190.5,-137.5 1190.5,-156.5"/>
<text text-anchor="middle" x="1151" y="-144.5" font-family="Helvetica,sans-Serif" font-size="10.00">core/shape.h</text>
</a>
</g>
</g>
<!-- Node7&#45;&gt;Node11 -->
<g id="edge11_Node000007_Node000011" class="edge">
<title>Node7&#45;&gt;Node11</title>
<g id="a_edge11_Node000007_Node000011"><a xlink:title=" ">
<path fill="none" stroke="#63b8ff" d="M966.73,-203.37C1004.47,-192.03 1070.86,-172.08 1112.8,-159.48"/>
<polygon fill="#63b8ff" stroke="#63b8ff" points="1113.82,-162.83 1122.39,-156.6 1111.81,-156.12 1113.82,-162.83"/>
</a>
</g>
</g>
<!-- Node13 -->
<g id="Node000013" class="node">
<title>Node13</title>
<g id="a_Node000013"><a xlink:title=" ">
<polygon fill="#e0e0e0" stroke="#999999" points="1941,-24.5 1831,-24.5 1831,-5.5 1941,-5.5 1941,-24.5"/>
<text text-anchor="middle" x="1886" y="-12.5" font-family="Helvetica,sans-Serif" font-size="10.00">deal.II/base/point.h</text>
</a>
</g>
</g>
<!-- Node7&#45;&gt;Node13 -->
<g id="edge32_Node000007_Node000013" class="edge">
<title>Node7&#45;&gt;Node13</title>
<g id="a_edge32_Node000007_Node000013"><a xlink:title=" ">
<path fill="none" stroke="#63b8ff" d="M988.78,-208.17C1192.07,-192.61 1937.77,-133.17 1971,-96 1993.74,-70.56 1949.8,-43.98 1917.05,-28.76"/>
<polygon fill="#63b8ff" stroke="#63b8ff" points="1918.31,-25.49 1907.75,-24.6 1915.45,-31.88 1918.31,-25.49"/>
</a>
</g>
</g>
<!-- Node7&#45;&gt;Node40 -->
<g id="edge31_Node000007_Node000040" class="edge">
<title>Node7&#45;&gt;Node40</title>
<g id="a_edge31_Node000007_Node000040"><a xlink:title=" ">
<path fill="none" stroke="#63b8ff" d="M988.56,-210.66C1172.21,-205.62 1803.71,-186.87 2004,-162 2005.3,-161.84 2006.6,-161.67 2007.92,-161.49"/>
<polygon fill="#63b8ff" stroke="#63b8ff" points="2008.78,-164.89 2018.14,-159.92 2007.72,-157.98 2008.78,-164.89"/>
</a>
</g>
</g>
<!-- Node9 -->
<g id="Node000009" class="node">
<title>Node9</title>
<g id="a_Node000009"><a xlink:title=" ">
<polygon fill="#e0e0e0" stroke="#999999" points="273,-24.5 229,-24.5 229,-5.5 273,-5.5 273,-24.5"/>
<text text-anchor="middle" x="251" y="-12.5" font-family="Helvetica,sans-Serif" font-size="10.00">string</text>
</a>
</g>
</g>
<!-- Node8&#45;&gt;Node9 -->
<g id="edge9_Node000008_Node000009" class="edge">
<title>Node8&#45;&gt;Node9</title>
<g id="a_edge9_Node000008_Node000009"><a xlink:title=" ">
<path fill="none" stroke="#63b8ff" d="M218.99,-71.37C224.53,-61.78 233.63,-46.05 240.71,-33.8"/>
<polygon fill="#63b8ff" stroke="#63b8ff" points="243.88,-35.31 245.85,-24.91 237.82,-31.81 243.88,-35.31"/>
</a>
</g>
</g>
<!-- Node8&#45;&gt;Node10 -->
<g id="edge10_Node000008_Node000010" class="edge">
<title>Node8&#45;&gt;Node10</title>
<g id="a_edge10_Node000008_Node000010"><a xlink:title=" ">
<path fill="none" stroke="#63b8ff" d="M230.72,-71.37C251.62,-60.59 287.59,-42.02 312.07,-29.38"/>
<polygon fill="#63b8ff" stroke="#63b8ff" points="313.86,-32.4 321.15,-24.7 310.65,-26.18 313.86,-32.4"/>
</a>
</g>
</g>
<!-- Node12 -->
<g id="Node000012" class="node">
<title>Node12</title>
<g id="a_Node000012"><a xlink:href="tensors__and__points__dimension__manipulation_8h.html" target="_top" xlink:title=" ">
<polygon fill="#fff0f0" stroke="red" points="1962,-96 1810,-96 1810,-66 1962,-66 1962,-96"/>
<text text-anchor="start" x="1818" y="-84" font-family="Helvetica,sans-Serif" font-size="10.00">core/tensors_and_points</text>
<text text-anchor="middle" x="1886" y="-73" font-family="Helvetica,sans-Serif" font-size="10.00">_dimension_manipulation.h</text>
</a>
</g>
</g>
<!-- Node11&#45;&gt;Node12 -->
<g id="edge12_Node000011_Node000012" class="edge">
<title>Node11&#45;&gt;Node12</title>
<g id="a_edge12_Node000011_Node000012"><a xlink:title=" ">
<path fill="none" stroke="#63b8ff" d="M1190.74,-143.99C1291.94,-138.63 1567.58,-122.58 1796,-96 1797.28,-95.85 1798.57,-95.7 1799.87,-95.54"/>
<polygon fill="#63b8ff" stroke="#63b8ff" points="1800.47,-98.99 1809.95,-94.25 1799.58,-92.05 1800.47,-98.99"/>
</a>
</g>
</g>
<!-- Node11&#45;&gt;Node15 -->
<g id="edge14_Node000011_Node000015" class="edge">
<title>Node11&#45;&gt;Node15</title>
<g id="a_edge14_Node000011_Node000015"><a xlink:title=" ">
<path fill="none" stroke="#63b8ff" d="M1111.31,-144.45C1002.07,-139.91 687.76,-125.13 428,-96 416.09,-94.66 403.35,-92.89 391.3,-91.06"/>
<polygon fill="#63b8ff" stroke="#63b8ff" points="391.81,-87.6 381.39,-89.51 390.73,-94.51 391.81,-87.6"/>
</a>
</g>
</g>
<!-- Node20 -->
<g id="Node000020" class="node">
<title>Node20</title>
<g id="a_Node000020"><a xlink:title=" ">
<polygon fill="#e0e0e0" stroke="#999999" points="1167,-24.5 1027,-24.5 1027,-5.5 1167,-5.5 1167,-24.5"/>
<text text-anchor="middle" x="1097" y="-12.5" font-family="Helvetica,sans-Serif" font-size="10.00">deal.II/dofs/dof_handler.h</text>
</a>
</g>
</g>
<!-- Node11&#45;&gt;Node20 -->
<g id="edge26_Node000011_Node000020" class="edge">
<title>Node11&#45;&gt;Node20</title>
<g id="a_edge26_Node000011_Node000020"><a xlink:title=" ">
<path fill="none" stroke="#63b8ff" d="M1190.53,-145.8C1319.84,-144.75 1724.21,-138.09 1763,-96 1772.04,-86.2 1772.07,-75.77 1763,-66 1723.9,-23.85 1345.67,-17 1177.23,-16.05"/>
<polygon fill="#63b8ff" stroke="#63b8ff" points="1177.19,-12.55 1167.17,-16 1177.16,-19.55 1177.19,-12.55"/>
</a>
</g>
</g>
<!-- Node30 -->
<g id="Node000030" class="node">
<title>Node30</title>
<g id="a_Node000030"><a xlink:title=" ">
<polygon fill="#e0e0e0" stroke="#999999" points="589,-96 437,-96 437,-66 589,-66 589,-96"/>
<text text-anchor="start" x="445" y="-84" font-family="Helvetica,sans-Serif" font-size="10.00">deal.II/base/auto_derivative</text>
<text text-anchor="middle" x="513" y="-73" font-family="Helvetica,sans-Serif" font-size="10.00">_function.h</text>
</a>
</g>
</g>
<!-- Node11&#45;&gt;Node30 -->
<g id="edge20_Node000011_Node000030" class="edge">
<title>Node11&#45;&gt;Node30</title>
<g id="a_edge20_Node000011_Node000030"><a xlink:title=" ">
<path fill="none" stroke="#63b8ff" d="M1111.4,-143.38C1022.1,-137.27 798.01,-120.78 599.43,-95.99"/>
<polygon fill="#63b8ff" stroke="#63b8ff" points="599.75,-92.5 589.39,-94.72 598.88,-99.45 599.75,-92.5"/>
</a>
</g>
</g>
<!-- Node31 -->
<g id="Node000031" class="node">
<title>Node31</title>
<g id="a_Node000031"><a xlink:title=" ">
<polygon fill="#e0e0e0" stroke="#999999" points="732.5,-90.5 607.5,-90.5 607.5,-71.5 732.5,-71.5 732.5,-90.5"/>
<text text-anchor="middle" x="670" y="-78.5" font-family="Helvetica,sans-Serif" font-size="10.00">deal.II/base/function.h</text>
</a>
</g>
</g>
<!-- Node11&#45;&gt;Node31 -->
<g id="edge21_Node000011_Node000031" class="edge">
<title>Node11&#45;&gt;Node31</title>
<g id="a_edge21_Node000011_Node000031"><a xlink:title=" ">
<path fill="none" stroke="#63b8ff" d="M1111.39,-142.09C1038.2,-134.67 876.96,-117.34 742,-96 735.32,-94.94 728.32,-93.72 721.41,-92.45"/>
<polygon fill="#63b8ff" stroke="#63b8ff" points="721.89,-88.98 711.41,-90.57 720.59,-95.86 721.89,-88.98"/>
</a>
</g>
</g>
<!-- Node32 -->
<g id="Node000032" class="node">
<title>Node32</title>
<g id="a_Node000032"><a xlink:title=" ">
<polygon fill="#e0e0e0" stroke="#999999" points="875,-90.5 751,-90.5 751,-71.5 875,-71.5 875,-90.5"/>
<text text-anchor="middle" x="813" y="-78.5" font-family="Helvetica,sans-Serif" font-size="10.00">deal.II/grid/manifold.h</text>
</a>
</g>
</g>
<!-- Node11&#45;&gt;Node32 -->
<g id="edge22_Node000011_Node000032" class="edge">
<title>Node11&#45;&gt;Node32</title>
<g id="a_edge22_Node000011_Node000032"><a xlink:title=" ">
<path fill="none" stroke="#63b8ff" d="M1111.33,-138.62C1059.33,-128.94 965.31,-111.36 885,-96 879.15,-94.88 873.04,-93.7 866.95,-92.53"/>
<polygon fill="#63b8ff" stroke="#63b8ff" points="867.26,-89.02 856.78,-90.56 865.93,-95.9 867.26,-89.02"/>
</a>
</g>
</g>
<!-- Node33 -->
<g id="Node000033" class="node">
<title>Node33</title>
<g id="a_Node000033"><a xlink:title=" ">
<polygon fill="#e0e0e0" stroke="#999999" points="1008.5,-96 893.5,-96 893.5,-66 1008.5,-66 1008.5,-96"/>
<text text-anchor="start" x="901.5" y="-84" font-family="Helvetica,sans-Serif" font-size="10.00">deal.II/grid/manifold</text>
<text text-anchor="middle" x="951" y="-73" font-family="Helvetica,sans-Serif" font-size="10.00">_lib.h</text>
</a>
</g>
</g>
<!-- Node11&#45;&gt;Node33 -->
<g id="edge23_Node000011_Node000033" class="edge">
<title>Node11&#45;&gt;Node33</title>
<g id="a_edge23_Node000011_Node000033"><a xlink:title=" ">
<path fill="none" stroke="#63b8ff" d="M1124.03,-137.37C1093.56,-127.62 1043.19,-111.5 1004.64,-99.16"/>
<polygon fill="#63b8ff" stroke="#63b8ff" points="1005.7,-95.83 995.11,-96.12 1003.57,-102.5 1005.7,-95.83"/>
</a>
</g>
</g>
<!-- Node34 -->
<g id="Node000034" class="node">
<title>Node34</title>
<g id="a_Node000034"><a xlink:title=" ">
<polygon fill="#e0e0e0" stroke="#999999" points="1141.5,-96 1026.5,-96 1026.5,-66 1141.5,-66 1141.5,-96"/>
<text text-anchor="start" x="1034.5" y="-84" font-family="Helvetica,sans-Serif" font-size="10.00">boost/range/adaptor</text>
<text text-anchor="middle" x="1084" y="-73" font-family="Helvetica,sans-Serif" font-size="10.00">/map.hpp</text>
</a>
</g>
</g>
<!-- Node11&#45;&gt;Node34 -->
<g id="edge24_Node000011_Node000034" class="edge">
<title>Node11&#45;&gt;Node34</title>
<g id="a_edge24_Node000011_Node000034"><a xlink:title=" ">
<path fill="none" stroke="#63b8ff" d="M1141.96,-137.37C1132.79,-128.61 1118.25,-114.71 1106.02,-103.04"/>
<polygon fill="#63b8ff" stroke="#63b8ff" points="1108.43,-100.49 1098.78,-96.12 1103.59,-105.55 1108.43,-100.49"/>
</a>
</g>
</g>
<!-- Node35 -->
<g id="Node000035" class="node">
<title>Node35</title>
<g id="a_Node000035"><a xlink:title=" ">
<polygon fill="#e0e0e0" stroke="#999999" points="1276,-96 1160,-96 1160,-66 1276,-66 1276,-96"/>
<text text-anchor="start" x="1168" y="-84" font-family="Helvetica,sans-Serif" font-size="10.00">deal.II/base/function</text>
<text text-anchor="middle" x="1218" y="-73" font-family="Helvetica,sans-Serif" font-size="10.00">_signed_distance.h</text>
</a>
</g>
</g>
<!-- Node11&#45;&gt;Node35 -->
<g id="edge25_Node000011_Node000035" class="edge">
<title>Node11&#45;&gt;Node35</title>
<g id="a_edge25_Node000011_Node000035"><a xlink:title=" ">
<path fill="none" stroke="#63b8ff" d="M1160.04,-137.37C1169.21,-128.61 1183.75,-114.71 1195.98,-103.04"/>
<polygon fill="#63b8ff" stroke="#63b8ff" points="1198.41,-105.55 1203.22,-96.12 1193.57,-100.49 1198.41,-105.55"/>
</a>
</g>
</g>
<!-- Node36 -->
<g id="Node000036" class="node">
<title>Node36</title>
<g id="a_Node000036"><a xlink:title=" ">
<polygon fill="#e0e0e0" stroke="#999999" points="1422,-90.5 1294,-90.5 1294,-71.5 1422,-71.5 1422,-90.5"/>
<text text-anchor="middle" x="1358" y="-78.5" font-family="Helvetica,sans-Serif" font-size="10.00">deal.II/dofs/dof_tools.h</text>
</a>
</g>
</g>
<!-- Node11&#45;&gt;Node36 -->
<g id="edge27_Node000011_Node000036" class="edge">
<title>Node11&#45;&gt;Node36</title>
<g id="a_edge27_Node000011_Node000036"><a xlink:title=" ">
<path fill="none" stroke="#63b8ff" d="M1178.92,-137.37C1215.52,-126.05 1279.84,-106.16 1320.62,-93.56"/>
<polygon fill="#63b8ff" stroke="#63b8ff" points="1321.68,-96.89 1330.2,-90.6 1319.61,-90.21 1321.68,-96.89"/>
</a>
</g>
</g>
<!-- Node37 -->
<g id="Node000037" class="node">
<title>Node37</title>
<g id="a_Node000037"><a xlink:title=" ">
<polygon fill="#e0e0e0" stroke="#999999" points="1616,-90.5 1440,-90.5 1440,-71.5 1616,-71.5 1616,-90.5"/>
<text text-anchor="middle" x="1528" y="-78.5" font-family="Helvetica,sans-Serif" font-size="10.00">deal.II/physics/transformations.h</text>
</a>
</g>
</g>
<!-- Node11&#45;&gt;Node37 -->
<g id="edge28_Node000011_Node000037" class="edge">
<title>Node11&#45;&gt;Node37</title>
<g id="a_edge28_Node000011_Node000037"><a xlink:title=" ">
<path fill="none" stroke="#63b8ff" d="M1190.63,-139.27C1256.76,-128.05 1390,-105.43 1467.78,-92.22"/>
<polygon fill="#63b8ff" stroke="#63b8ff" points="1468.64,-95.63 1477.92,-90.5 1467.47,-88.73 1468.64,-95.63"/>
</a>
</g>
</g>
<!-- Node38 -->
<g id="Node000038" class="node">
<title>Node38</title>
<g id="a_Node000038"><a xlink:title=" ">
<polygon fill="#e0e0e0" stroke="#999999" points="1678,-90.5 1634,-90.5 1634,-71.5 1678,-71.5 1678,-90.5"/>
<text text-anchor="middle" x="1656" y="-78.5" font-family="Helvetica,sans-Serif" font-size="10.00">cfloat</text>
</a>
</g>
</g>
<!-- Node11&#45;&gt;Node38 -->
<g id="edge29_Node000011_Node000038" class="edge">
<title>Node11&#45;&gt;Node38</title>
<g id="a_edge29_Node000011_Node000038"><a xlink:title=" ">
<path fill="none" stroke="#63b8ff" d="M1190.79,-146.04C1273.28,-145.21 1468.26,-138.48 1625,-96 1626.68,-95.54 1628.39,-95.01 1630.1,-94.41"/>
<polygon fill="#63b8ff" stroke="#63b8ff" points="1631.67,-97.55 1639.63,-90.56 1629.05,-91.06 1631.67,-97.55"/>
</a>
</g>
</g>
<!-- Node39 -->
<g id="Node000039" class="node">
<title>Node39</title>
<g id="a_Node000039"><a xlink:title=" ">
<polygon fill="#e0e0e0" stroke="#999999" points="1754,-90.5 1696,-90.5 1696,-71.5 1754,-71.5 1754,-90.5"/>
<text text-anchor="middle" x="1725" y="-78.5" font-family="Helvetica,sans-Serif" font-size="10.00">memory</text>
</a>
</g>
</g>
<!-- Node11&#45;&gt;Node39 -->
<g id="edge30_Node000011_Node000039" class="edge">
<title>Node11&#45;&gt;Node39</title>
<g id="a_edge30_Node000011_Node000039"><a xlink:title=" ">
<path fill="none" stroke="#63b8ff" d="M1190.56,-145.8C1280.1,-144.6 1504.71,-137.34 1687,-96 1689.67,-95.39 1692.41,-94.65 1695.13,-93.82"/>
<polygon fill="#63b8ff" stroke="#63b8ff" points="1696.44,-97.07 1704.79,-90.55 1694.19,-90.44 1696.44,-97.07"/>
</a>
</g>
</g>
<!-- Node12&#45;&gt;Node13 -->
<g id="edge13_Node000012_Node000013" class="edge">
<title>Node12&#45;&gt;Node13</title>
<g id="a_edge13_Node000012_Node000013"><a xlink:title=" ">
<path fill="none" stroke="#63b8ff" d="M1886,-65.8C1886,-56.7 1886,-44.79 1886,-34.9"/>
<polygon fill="#63b8ff" stroke="#63b8ff" points="1889.5,-34.84 1886,-24.84 1882.5,-34.84 1889.5,-34.84"/>
</a>
</g>
</g>
<!-- Node15&#45;&gt;Node6 -->
<g id="edge15_Node000015_Node000006" class="edge">
<title>Node15&#45;&gt;Node6</title>
<g id="a_edge15_Node000015_Node000006"><a xlink:title=" ">
<path fill="none" stroke="#63b8ff" d="M309,-71.37C276.11,-61.58 221.65,-45.37 180.14,-33.01"/>
<polygon fill="#63b8ff" stroke="#63b8ff" points="181,-29.61 170.42,-30.12 179.01,-36.32 181,-29.61"/>
</a>
</g>
</g>
<!-- Node15&#45;&gt;Node9 -->
<g id="edge18_Node000015_Node000009" class="edge">
<title>Node15&#45;&gt;Node9</title>
<g id="a_edge18_Node000015_Node000009"><a xlink:title=" ">
<path fill="none" stroke="#63b8ff" d="M326.27,-71.37C312.13,-60.97 288.14,-43.32 271.05,-30.75"/>
<polygon fill="#63b8ff" stroke="#63b8ff" points="272.95,-27.81 262.83,-24.7 268.81,-33.44 272.95,-27.81"/>
</a>
</g>
</g>
<!-- Node15&#45;&gt;Node10 -->
<g id="edge19_Node000015_Node000010" class="edge">
<title>Node15&#45;&gt;Node10</title>
<g id="a_edge19_Node000015_Node000010"><a xlink:title=" ">
<path fill="none" stroke="#63b8ff" d="M338,-71.37C338,-62.16 338,-47.29 338,-35.27"/>
<polygon fill="#63b8ff" stroke="#63b8ff" points="341.5,-34.91 338,-24.91 334.5,-34.91 341.5,-34.91"/>
</a>
</g>
</g>
<!-- Node15&#45;&gt;Node13 -->
<g id="edge16_Node000015_Node000013" class="edge">
<title>Node15&#45;&gt;Node13</title>
<g id="a_edge16_Node000015_Node000013"><a xlink:title=" ">
<path fill="none" stroke="#63b8ff" d="M381.36,-72.18C396.11,-69.8 412.73,-67.44 428,-66 704.08,-39.89 1574.65,-21.86 1820.67,-17.2"/>
<polygon fill="#63b8ff" stroke="#63b8ff" points="1820.95,-20.69 1830.88,-17 1820.81,-13.69 1820.95,-20.69"/>
</a>
</g>
</g>
<!-- Node15&#45;&gt;Node20 -->
<g id="edge17_Node000015_Node000020" class="edge">
<title>Node15&#45;&gt;Node20</title>
<g id="a_edge17_Node000015_Node000020"><a xlink:title=" ">
<path fill="none" stroke="#63b8ff" d="M381.39,-72.53C396.15,-70.19 412.76,-67.75 428,-66 639.58,-41.68 890.24,-26.59 1016.19,-19.96"/>
<polygon fill="#63b8ff" stroke="#63b8ff" points="1016.71,-23.43 1026.51,-19.42 1016.34,-16.44 1016.71,-23.43"/>
</a>
</g>
</g>
</g>
</svg>
