<?xml version="1.0" encoding="UTF-8" standalone="no"?>
<!DOCTYPE svg PUBLIC "-//W3C//DTD SVG 1.1//EN"
 "http://www.w3.org/Graphics/SVG/1.1/DTD/svg11.dtd">
<!-- Generated by graphviz version 2.43.0 (0)
 -->
<!-- Title: /home/runner/work/lethe/lethe/source/core/mortar_coupling_manager.cc Pages: 1 -->
<svg width="1085pt" height="566pt"
 viewBox="0.00 0.00 1085.00 566.00" xmlns="http://www.w3.org/2000/svg" xmlns:xlink="http://www.w3.org/1999/xlink">
<g id="graph0" class="graph" transform="scale(1 1) rotate(0) translate(4 562)">
<title>/home/runner/work/lethe/lethe/source/core/mortar_coupling_manager.cc</title>
<!-- Node1 -->
<g id="Node000001" class="node">
<title>Node1</title>
<g id="a_Node000001"><a xlink:title=" ">
<polygon fill="#999999" stroke="#666666" points="577,-558 437,-558 437,-517 577,-517 577,-558"/>
<text text-anchor="start" x="445" y="-546" font-family="Helvetica,sans-Serif" font-size="10.00">/home/runner/work/lethe</text>
<text text-anchor="start" x="445" y="-535" font-family="Helvetica,sans-Serif" font-size="10.00">/lethe/source/core/mortar</text>
<text text-anchor="middle" x="507" y="-524" font-family="Helvetica,sans-Serif" font-size="10.00">_coupling_manager.cc</text>
</a>
</g>
</g>
<!-- Node2 -->
<g id="Node000002" class="node">
<title>Node2</title>
<g id="a_Node000002"><a xlink:title=" ">
<polygon fill="#e0e0e0" stroke="#999999" points="114,-409.5 0,-409.5 0,-390.5 114,-390.5 114,-409.5"/>
<text text-anchor="middle" x="57" y="-397.5" font-family="Helvetica,sans-Serif" font-size="10.00">deal.II/base/config.h</text>
</a>
</g>
</g>
<!-- Node1&#45;&gt;Node2 -->
<g id="edge1_Node000001_Node000002" class="edge">
<title>Node1&#45;&gt;Node2</title>
<g id="a_edge1_Node000001_Node000002"><a xlink:title=" ">
<path fill="none" stroke="#63b8ff" d="M436.58,-519.88C394.17,-509.5 339.23,-495.42 291,-481 218.34,-459.28 134.54,-429.45 89.57,-413.04"/>
<polygon fill="#63b8ff" stroke="#63b8ff" points="90.65,-409.7 80.06,-409.55 88.24,-416.28 90.65,-409.7"/>
</a>
</g>
</g>
<!-- Node3 -->
<g id="Node000003" class="node">
<title>Node3</title>
<g id="a_Node000003"><a xlink:href="mortar__coupling__manager_8h.html" target="_top" xlink:title=" ">
<polygon fill="white" stroke="#666666" points="420,-481 300,-481 300,-451 420,-451 420,-481"/>
<text text-anchor="start" x="308" y="-469" font-family="Helvetica,sans-Serif" font-size="10.00">core/mortar_coupling</text>
<text text-anchor="middle" x="360" y="-458" font-family="Helvetica,sans-Serif" font-size="10.00">_manager.h</text>
</a>
</g>
</g>
<!-- Node1&#45;&gt;Node3 -->
<g id="edge2_Node000001_Node000003" class="edge">
<title>Node1&#45;&gt;Node3</title>
<g id="a_edge2_Node000001_Node000003"><a xlink:title=" ">
<path fill="none" stroke="#63b8ff" d="M465.66,-516.96C444.75,-507.07 419.51,-495.13 398.94,-485.41"/>
<polygon fill="#63b8ff" stroke="#63b8ff" points="400.39,-482.22 389.85,-481.11 397.39,-488.55 400.39,-482.22"/>
</a>
</g>
</g>
<!-- Node56 -->
<g id="Node000056" class="node">
<title>Node56</title>
<g id="a_Node000056"><a xlink:title=" ">
<polygon fill="#e0e0e0" stroke="#999999" points="576,-475.5 438,-475.5 438,-456.5 576,-456.5 576,-475.5"/>
<text text-anchor="middle" x="507" y="-463.5" font-family="Helvetica,sans-Serif" font-size="10.00">deal.II/base/exceptions.h</text>
</a>
</g>
</g>
<!-- Node1&#45;&gt;Node56 -->
<g id="edge38_Node000001_Node000056" class="edge">
<title>Node1&#45;&gt;Node56</title>
<g id="a_edge38_Node000001_Node000056"><a xlink:title=" ">
<path fill="none" stroke="#63b8ff" d="M507,-516.77C507,-507.08 507,-495.46 507,-485.88"/>
<polygon fill="#63b8ff" stroke="#63b8ff" points="510.5,-485.82 507,-475.82 503.5,-485.82 510.5,-485.82"/>
</a>
</g>
</g>
<!-- Node57 -->
<g id="Node000057" class="node">
<title>Node57</title>
<g id="a_Node000057"><a xlink:title=" ">
<polygon fill="#e0e0e0" stroke="#999999" points="765.5,-481 594.5,-481 594.5,-451 765.5,-451 765.5,-481"/>
<text text-anchor="start" x="602.5" y="-469" font-family="Helvetica,sans-Serif" font-size="10.00">deal.II/base/mpi_noncontiguous</text>
<text text-anchor="middle" x="680" y="-458" font-family="Helvetica,sans-Serif" font-size="10.00">_partitioner.templates.h</text>
</a>
</g>
</g>
<!-- Node1&#45;&gt;Node57 -->
<g id="edge39_Node000001_Node000057" class="edge">
<title>Node1&#45;&gt;Node57</title>
<g id="a_edge39_Node000001_Node000057"><a xlink:title=" ">
<path fill="none" stroke="#63b8ff" d="M555.65,-516.96C580.8,-506.85 611.26,-494.62 635.74,-484.78"/>
<polygon fill="#63b8ff" stroke="#63b8ff" points="637.17,-487.98 645.14,-481 634.56,-481.48 637.17,-487.98"/>
</a>
</g>
</g>
<!-- Node58 -->
<g id="Node000058" class="node">
<title>Node58</title>
<g id="a_Node000058"><a xlink:title=" ">
<polygon fill="#e0e0e0" stroke="#999999" points="906.5,-475.5 783.5,-475.5 783.5,-456.5 906.5,-456.5 906.5,-475.5"/>
<text text-anchor="middle" x="845" y="-463.5" font-family="Helvetica,sans-Serif" font-size="10.00">deal.II/fe/fe_nothing.h</text>
</a>
</g>
</g>
<!-- Node1&#45;&gt;Node58 -->
<g id="edge40_Node000001_Node000058" class="edge">
<title>Node1&#45;&gt;Node58</title>
<g id="a_edge40_Node000001_Node000058"><a xlink:title=" ">
<path fill="none" stroke="#63b8ff" d="M577.03,-522.1C641.43,-508.86 735.41,-489.53 793.26,-477.64"/>
<polygon fill="#63b8ff" stroke="#63b8ff" points="794.18,-481.02 803.27,-475.58 792.77,-474.17 794.18,-481.02"/>
</a>
</g>
</g>
<!-- Node3&#45;&gt;Node2 -->
<g id="edge3_Node000003_Node000002" class="edge">
<title>Node3&#45;&gt;Node2</title>
<g id="a_edge3_Node000003_Node000002"><a xlink:title=" ">
<path fill="none" stroke="#63b8ff" d="M299.77,-452.28C243.35,-440.36 160,-422.76 107.11,-411.58"/>
<polygon fill="#63b8ff" stroke="#63b8ff" points="107.79,-408.15 97.28,-409.51 106.34,-415 107.79,-408.15"/>
</a>
</g>
</g>
<!-- Node4 -->
<g id="Node000004" class="node">
<title>Node4</title>
<g id="a_Node000004"><a xlink:href="lethe__grid__tools_8h.html" target="_top" xlink:title=" ">
<polygon fill="white" stroke="#666666" points="933,-409.5 805,-409.5 805,-390.5 933,-390.5 933,-409.5"/>
<text text-anchor="middle" x="869" y="-397.5" font-family="Helvetica,sans-Serif" font-size="10.00">core/lethe_grid_tools.h</text>
</a>
</g>
</g>
<!-- Node3&#45;&gt;Node4 -->
<g id="edge4_Node000003_Node000004" class="edge">
<title>Node3&#45;&gt;Node4</title>
<g id="a_edge4_Node000003_Node000004"><a xlink:title=" ">
<path fill="none" stroke="#63b8ff" d="M420.15,-452.42C423.14,-451.91 426.1,-451.44 429,-451 591.08,-426.67 633.79,-438.46 796,-415 803.2,-413.96 810.77,-412.7 818.2,-411.36"/>
<polygon fill="#63b8ff" stroke="#63b8ff" points="818.99,-414.77 828.19,-409.51 817.72,-407.89 818.99,-414.77"/>
</a>
</g>
</g>
<!-- Node7 -->
<g id="Node000007" class="node">
<title>Node7</title>
<g id="a_Node000007"><a xlink:href="parameters_8h.html" target="_top" xlink:title=" ">
<polygon fill="#fff0f0" stroke="red" points="280,-156.5 174,-156.5 174,-137.5 280,-137.5 280,-156.5"/>
<text text-anchor="middle" x="227" y="-144.5" font-family="Helvetica,sans-Serif" font-size="10.00">core/parameters.h</text>
</a>
</g>
</g>
<!-- Node3&#45;&gt;Node7 -->
<g id="edge33_Node000003_Node000007" class="edge">
<title>Node3&#45;&gt;Node7</title>
<g id="a_edge33_Node000003_Node000007"><a xlink:title=" ">
<path fill="none" stroke="#63b8ff" d="M299.85,-455.6C235.33,-441.69 142,-408.81 142,-335 142,-335 142,-335 142,-272.5 142,-238.33 142.1,-226.47 161,-198 171.11,-182.77 187.46,-170.34 201.35,-161.68"/>
<polygon fill="#63b8ff" stroke="#63b8ff" points="203.22,-164.64 210.04,-156.54 199.65,-158.62 203.22,-164.64"/>
</a>
</g>
</g>
<!-- Node18 -->
<g id="Node000018" class="node">
<title>Node18</title>
<g id="a_Node000018"><a xlink:href="core_2utilities_8h.html" target="_top" xlink:title=" ">
<polygon fill="#fff0f0" stroke="red" points="714,-90.5 628,-90.5 628,-71.5 714,-71.5 714,-90.5"/>
<text text-anchor="middle" x="671" y="-78.5" font-family="Helvetica,sans-Serif" font-size="10.00">core/utilities.h</text>
</a>
</g>
</g>
<!-- Node3&#45;&gt;Node18 -->
<g id="edge34_Node000003_Node000018" class="edge">
<title>Node3&#45;&gt;Node18</title>
<g id="a_edge34_Node000003_Node000018"><a xlink:title=" ">
<path fill="none" stroke="#63b8ff" d="M344.82,-450.95C328.16,-433.85 305.91,-404.81 323,-385 358.66,-343.67 512.81,-361.29 566,-349 613.25,-338.08 745.36,-322.13 774,-283 820.48,-219.49 730.75,-132 689.83,-97.18"/>
<polygon fill="#63b8ff" stroke="#63b8ff" points="691.83,-94.29 681.91,-90.58 687.35,-99.67 691.83,-94.29"/>
</a>
</g>
</g>
<!-- Node53 -->
<g id="Node000053" class="node">
<title>Node53</title>
<g id="a_Node000053"><a xlink:title=" ">
<polygon fill="#e0e0e0" stroke="#999999" points="502.5,-415 331.5,-415 331.5,-385 502.5,-385 502.5,-415"/>
<text text-anchor="start" x="339.5" y="-403" font-family="Helvetica,sans-Serif" font-size="10.00">deal.II/base/mpi_noncontiguous</text>
<text text-anchor="middle" x="417" y="-392" font-family="Helvetica,sans-Serif" font-size="10.00">_partitioner.h</text>
</a>
</g>
</g>
<!-- Node3&#45;&gt;Node53 -->
<g id="edge35_Node000003_Node000053" class="edge">
<title>Node3&#45;&gt;Node53</title>
<g id="a_edge35_Node000003_Node000053"><a xlink:title=" ">
<path fill="none" stroke="#63b8ff" d="M372.65,-450.8C379.96,-442.59 389.3,-432.1 397.52,-422.87"/>
<polygon fill="#63b8ff" stroke="#63b8ff" points="400.35,-424.96 404.39,-415.16 395.12,-420.3 400.35,-424.96"/>
</a>
</g>
</g>
<!-- Node54 -->
<g id="Node000054" class="node">
<title>Node54</title>
<g id="a_Node000054"><a xlink:title=" ">
<polygon fill="#e0e0e0" stroke="#999999" points="643,-409.5 521,-409.5 521,-390.5 643,-390.5 643,-409.5"/>
<text text-anchor="middle" x="582" y="-397.5" font-family="Helvetica,sans-Serif" font-size="10.00">deal.II/fe/fe_system.h</text>
</a>
</g>
</g>
<!-- Node3&#45;&gt;Node54 -->
<g id="edge36_Node000003_Node000054" class="edge">
<title>Node3&#45;&gt;Node54</title>
<g id="a_edge36_Node000003_Node000054"><a xlink:title=" ">
<path fill="none" stroke="#63b8ff" d="M408.72,-450.95C448.85,-439.38 505.05,-423.18 542.44,-412.41"/>
<polygon fill="#63b8ff" stroke="#63b8ff" points="543.82,-415.65 552.46,-409.52 541.88,-408.92 543.82,-415.65"/>
</a>
</g>
</g>
<!-- Node55 -->
<g id="Node000055" class="node">
<title>Node55</title>
<g id="a_Node000055"><a xlink:title=" ">
<polygon fill="#e0e0e0" stroke="#999999" points="786.5,-415 661.5,-415 661.5,-385 786.5,-385 786.5,-415"/>
<text text-anchor="start" x="669.5" y="-403" font-family="Helvetica,sans-Serif" font-size="10.00">deal.II/matrix_free</text>
<text text-anchor="middle" x="724" y="-392" font-family="Helvetica,sans-Serif" font-size="10.00">/fe_point_evaluation.h</text>
</a>
</g>
</g>
<!-- Node3&#45;&gt;Node55 -->
<g id="edge37_Node000003_Node000055" class="edge">
<title>Node3&#45;&gt;Node55</title>
<g id="a_edge37_Node000003_Node000055"><a xlink:title=" ">
<path fill="none" stroke="#63b8ff" d="M420.18,-452.64C423.16,-452.08 426.11,-451.53 429,-451 524.68,-433.58 551.5,-432.63 651.3,-415.09"/>
<polygon fill="#63b8ff" stroke="#63b8ff" points="651.96,-418.52 661.19,-413.34 650.74,-411.63 651.96,-418.52"/>
</a>
</g>
</g>
<!-- Node5 -->
<g id="Node000005" class="node">
<title>Node5</title>
<g id="a_Node000005"><a xlink:href="serial__solid_8h.html" target="_top" xlink:title=" ">
<polygon fill="white" stroke="#666666" points="556.5,-343.5 451.5,-343.5 451.5,-324.5 556.5,-324.5 556.5,-343.5"/>
<text text-anchor="middle" x="504" y="-331.5" font-family="Helvetica,sans-Serif" font-size="10.00">core/serial_solid.h</text>
</a>
</g>
</g>
<!-- Node4&#45;&gt;Node5 -->
<g id="edge5_Node000004_Node000005" class="edge">
<title>Node4&#45;&gt;Node5</title>
<g id="a_edge5_Node000004_Node000005"><a xlink:title=" ">
<path fill="none" stroke="#63b8ff" d="M825.41,-390.49C815.73,-388.65 805.52,-386.73 796,-385 716.59,-370.59 624.82,-355.06 565.67,-345.19"/>
<polygon fill="#63b8ff" stroke="#63b8ff" points="566.19,-341.73 555.75,-343.54 565.04,-348.64 566.19,-341.73"/>
</a>
</g>
</g>
<!-- Node17 -->
<g id="Node000017" class="node">
<title>Node17</title>
<g id="a_Node000017"><a xlink:title=" ">
<polygon fill="#e0e0e0" stroke="#999999" points="1033.5,-24.5 918.5,-24.5 918.5,-5.5 1033.5,-5.5 1033.5,-24.5"/>
<text text-anchor="middle" x="976" y="-12.5" font-family="Helvetica,sans-Serif" font-size="10.00">deal.II/base/tensor.h</text>
</a>
</g>
</g>
<!-- Node4&#45;&gt;Node17 -->
<g id="edge30_Node000004_Node000017" class="edge">
<title>Node4&#45;&gt;Node17</title>
<g id="a_edge30_Node000004_Node000017"><a xlink:title=" ">
<path fill="none" stroke="#63b8ff" d="M923.92,-390.45C985.55,-377.38 1077,-345.94 1077,-274.5 1077,-274.5 1077,-274.5 1077,-146 1077,-94.97 1027.88,-51.89 998.15,-30.49"/>
<polygon fill="#63b8ff" stroke="#63b8ff" points="999.83,-27.4 989.62,-24.56 995.83,-33.14 999.83,-27.4"/>
</a>
</g>
</g>
<!-- Node23 -->
<g id="Node000023" class="node">
<title>Node23</title>
<g id="a_Node000023"><a xlink:title=" ">
<polygon fill="#e0e0e0" stroke="#999999" points="900,-24.5 760,-24.5 760,-5.5 900,-5.5 900,-24.5"/>
<text text-anchor="middle" x="830" y="-12.5" font-family="Helvetica,sans-Serif" font-size="10.00">deal.II/dofs/dof_handler.h</text>
</a>
</g>
</g>
<!-- Node4&#45;&gt;Node23 -->
<g id="edge31_Node000004_Node000023" class="edge">
<title>Node4&#45;&gt;Node23</title>
<g id="a_edge31_Node000004_Node000023"><a xlink:title=" ">
<path fill="none" stroke="#63b8ff" d="M869,-390.25C869,-369.92 869,-317.95 869,-274.5 869,-274.5 869,-274.5 869,-146 869,-104.35 850.41,-58.24 838.9,-33.69"/>
<polygon fill="#63b8ff" stroke="#63b8ff" points="841.99,-32.03 834.47,-24.56 835.69,-35.08 841.99,-32.03"/>
</a>
</g>
</g>
<!-- Node52 -->
<g id="Node000052" class="node">
<title>Node52</title>
<g id="a_Node000052"><a xlink:title=" ">
<polygon fill="#e0e0e0" stroke="#999999" points="840.5,-349 735.5,-349 735.5,-319 840.5,-319 840.5,-349"/>
<text text-anchor="start" x="743.5" y="-337" font-family="Helvetica,sans-Serif" font-size="10.00">deal.II/fe/mapping</text>
<text text-anchor="middle" x="788" y="-326" font-family="Helvetica,sans-Serif" font-size="10.00">_q_cache.h</text>
</a>
</g>
</g>
<!-- Node4&#45;&gt;Node52 -->
<g id="edge32_Node000004_Node000052" class="edge">
<title>Node4&#45;&gt;Node52</title>
<g id="a_edge32_Node000004_Node000052"><a xlink:title=" ">
<path fill="none" stroke="#63b8ff" d="M858.08,-390.37C846.78,-381.44 828.74,-367.19 813.79,-355.38"/>
<polygon fill="#63b8ff" stroke="#63b8ff" points="815.88,-352.57 805.87,-349.12 811.54,-358.06 815.88,-352.57"/>
</a>
</g>
</g>
<!-- Node6 -->
<g id="Node000006" class="node">
<title>Node6</title>
<g id="a_Node000006"><a xlink:href="pvd__handler_8h.html" target="_top" xlink:title=" ">
<polygon fill="white" stroke="#666666" points="279.5,-222.5 170.5,-222.5 170.5,-203.5 279.5,-203.5 279.5,-222.5"/>
<text text-anchor="middle" x="225" y="-210.5" font-family="Helvetica,sans-Serif" font-size="10.00">core/pvd_handler.h</text>
</a>
</g>
</g>
<!-- Node5&#45;&gt;Node6 -->
<g id="edge6_Node000005_Node000006" class="edge">
<title>Node5&#45;&gt;Node6</title>
<g id="a_edge6_Node000005_Node000006"><a xlink:title=" ">
<path fill="none" stroke="#63b8ff" d="M451.4,-328.82C385.79,-322.58 278.64,-308.73 249,-283 234.51,-270.42 228.76,-248.61 226.49,-232.88"/>
<polygon fill="#63b8ff" stroke="#63b8ff" points="229.94,-232.27 225.37,-222.71 222.98,-233.03 229.94,-232.27"/>
</a>
</g>
</g>
<!-- Node5&#45;&gt;Node18 -->
<g id="edge25_Node000005_Node000018" class="edge">
<title>Node5&#45;&gt;Node18</title>
<g id="a_edge25_Node000005_Node000018"><a xlink:title=" ">
<path fill="none" stroke="#63b8ff" d="M497.23,-324.3C487.43,-310.55 471.73,-283.39 484,-264 503.99,-232.42 530.97,-251.55 560,-228 606.43,-190.33 644.47,-129.37 661.44,-99.56"/>
<polygon fill="#63b8ff" stroke="#63b8ff" points="664.56,-101.16 666.38,-90.72 658.45,-97.74 664.56,-101.16"/>
</a>
</g>
</g>
<!-- Node5&#45;&gt;Node23 -->
<g id="edge27_Node000005_Node000023" class="edge">
<title>Node5&#45;&gt;Node23</title>
<g id="a_edge27_Node000005_Node000023"><a xlink:title=" ">
<path fill="none" stroke="#63b8ff" d="M556.65,-333.65C613.92,-332.1 706.3,-322.82 774,-283 808.29,-262.83 831,-253.78 831,-214 831,-214 831,-214 831,-146 831,-106.45 830.53,-60.13 830.24,-34.84"/>
<polygon fill="#63b8ff" stroke="#63b8ff" points="833.73,-34.47 830.11,-24.52 826.73,-34.56 833.73,-34.47"/>
</a>
</g>
</g>
<!-- Node46 -->
<g id="Node000046" class="node">
<title>Node46</title>
<g id="a_Node000046"><a xlink:href="simulation__control_8h.html" target="_top" xlink:title="Simulation control classes for managing time&#45;stepping and iteration control in Lethe.">
<polygon fill="white" stroke="#666666" points="398,-283 258,-283 258,-264 398,-264 398,-283"/>
<text text-anchor="middle" x="328" y="-271" font-family="Helvetica,sans-Serif" font-size="10.00">core/simulation_control.h</text>
</a>
</g>
</g>
<!-- Node5&#45;&gt;Node46 -->
<g id="edge14_Node000005_Node000046" class="edge">
<title>Node5&#45;&gt;Node46</title>
<g id="a_edge14_Node000005_Node000046"><a xlink:title=" ">
<path fill="none" stroke="#63b8ff" d="M478.41,-324.49C448.04,-314.4 397.24,-297.51 363.18,-286.19"/>
<polygon fill="#63b8ff" stroke="#63b8ff" points="364.22,-282.85 353.62,-283.02 362.01,-289.49 364.22,-282.85"/>
</a>
</g>
</g>
<!-- Node49 -->
<g id="Node000049" class="node">
<title>Node49</title>
<g id="a_Node000049"><a xlink:title=" ">
<polygon fill="#e0e0e0" stroke="#999999" points="550.5,-228 419.5,-228 419.5,-198 550.5,-198 550.5,-228"/>
<text text-anchor="start" x="427.5" y="-216" font-family="Helvetica,sans-Serif" font-size="10.00">deal.II/particles/particle</text>
<text text-anchor="middle" x="485" y="-205" font-family="Helvetica,sans-Serif" font-size="10.00">_handler.h</text>
</a>
</g>
</g>
<!-- Node5&#45;&gt;Node49 -->
<g id="edge29_Node000005_Node000049" class="edge">
<title>Node5&#45;&gt;Node49</title>
<g id="a_edge29_Node000005_Node000049"><a xlink:title=" ">
<path fill="none" stroke="#63b8ff" d="M489.37,-324.43C476.29,-315.84 457.98,-301.26 450,-283 442.96,-266.89 452.26,-249.23 463.04,-235.8"/>
<polygon fill="#63b8ff" stroke="#63b8ff" points="465.87,-237.88 469.8,-228.04 460.59,-233.28 465.87,-237.88"/>
</a>
</g>
</g>
<!-- Node50 -->
<g id="Node000050" class="node">
<title>Node50</title>
<g id="a_Node000050"><a xlink:href="solid__objects__parameters_8h.html" target="_top" xlink:title="Parameter classes for solid objects used in Nitsche immersed boundary and DEM simulations.">
<polygon fill="white" stroke="#666666" points="114,-228 10,-228 10,-198 114,-198 114,-228"/>
<text text-anchor="start" x="18" y="-216" font-family="Helvetica,sans-Serif" font-size="10.00">core/solid_objects</text>
<text text-anchor="middle" x="62" y="-205" font-family="Helvetica,sans-Serif" font-size="10.00">_parameters.h</text>
</a>
</g>
</g>
<!-- Node5&#45;&gt;Node50 -->
<g id="edge19_Node000005_Node000050" class="edge">
<title>Node5&#45;&gt;Node50</title>
<g id="a_edge19_Node000005_Node000050"><a xlink:title=" ">
<path fill="none" stroke="#63b8ff" d="M451.37,-326.57C396.04,-319.05 306.79,-304.8 232,-283 185.6,-269.47 134.48,-247.74 100.54,-232.28"/>
<polygon fill="#63b8ff" stroke="#63b8ff" points="101.99,-229.1 91.44,-228.1 99.06,-235.46 101.99,-229.1"/>
</a>
</g>
</g>
<!-- Node15 -->
<g id="Node000015" class="node">
<title>Node15</title>
<g id="a_Node000015"><a xlink:href="tensors__and__points__dimension__manipulation_8h.html" target="_top" xlink:title=" ">
<polygon fill="#fff0f0" stroke="red" points="1049,-162 897,-162 897,-132 1049,-132 1049,-162"/>
<text text-anchor="start" x="905" y="-150" font-family="Helvetica,sans-Serif" font-size="10.00">core/tensors_and_points</text>
<text text-anchor="middle" x="973" y="-139" font-family="Helvetica,sans-Serif" font-size="10.00">_dimension_manipulation.h</text>
</a>
</g>
</g>
<!-- Node5&#45;&gt;Node15 -->
<g id="edge23_Node000005_Node000015" class="edge">
<title>Node5&#45;&gt;Node15</title>
<g id="a_edge23_Node000005_Node000015"><a xlink:title=" ">
<path fill="none" stroke="#63b8ff" d="M556.8,-329.48C639.67,-323.26 795.88,-308.5 845,-283 895.88,-256.59 937.73,-201.91 958.62,-170.86"/>
<polygon fill="#63b8ff" stroke="#63b8ff" points="961.61,-172.68 964.18,-162.4 955.76,-168.83 961.61,-172.68"/>
</a>
</g>
</g>
<!-- Node34 -->
<g id="Node000034" class="node">
<title>Node34</title>
<g id="a_Node000034"><a xlink:title=" ">
<polygon fill="#e0e0e0" stroke="#999999" points="617.5,-283 492.5,-283 492.5,-264 617.5,-264 617.5,-283"/>
<text text-anchor="middle" x="555" y="-271" font-family="Helvetica,sans-Serif" font-size="10.00">deal.II/base/function.h</text>
</a>
</g>
</g>
<!-- Node5&#45;&gt;Node34 -->
<g id="edge26_Node000005_Node000034" class="edge">
<title>Node5&#45;&gt;Node34</title>
<g id="a_edge26_Node000005_Node000034"><a xlink:title=" ">
<path fill="none" stroke="#63b8ff" d="M511.53,-324.37C519.21,-315.55 531.32,-301.66 540.81,-290.77"/>
<polygon fill="#63b8ff" stroke="#63b8ff" points="543.51,-293.01 547.44,-283.17 538.23,-288.41 543.51,-293.01"/>
</a>
</g>
</g>
<!-- Node51 -->
<g id="Node000051" class="node">
<title>Node51</title>
<g id="a_Node000051"><a xlink:title=" ">
<polygon fill="#e0e0e0" stroke="#999999" points="764.5,-283 635.5,-283 635.5,-264 764.5,-264 764.5,-283"/>
<text text-anchor="middle" x="700" y="-271" font-family="Helvetica,sans-Serif" font-size="10.00">deal.II/fe/mapping_fe.h</text>
</a>
</g>
</g>
<!-- Node5&#45;&gt;Node51 -->
<g id="edge28_Node000005_Node000051" class="edge">
<title>Node5&#45;&gt;Node51</title>
<g id="a_edge28_Node000005_Node000051"><a xlink:title=" ">
<path fill="none" stroke="#63b8ff" d="M532.5,-324.49C566.61,-314.31 623.87,-297.22 661.79,-285.9"/>
<polygon fill="#63b8ff" stroke="#63b8ff" points="662.88,-289.23 671.47,-283.02 660.88,-282.52 662.88,-289.23"/>
</a>
</g>
</g>
<!-- Node6&#45;&gt;Node7 -->
<g id="edge7_Node000006_Node000007" class="edge">
<title>Node6&#45;&gt;Node7</title>
<g id="a_edge7_Node000006_Node000007"><a xlink:title=" ">
<path fill="none" stroke="#63b8ff" d="M225.27,-203.37C225.56,-194.16 226.02,-179.29 226.4,-167.27"/>
<polygon fill="#63b8ff" stroke="#63b8ff" points="229.91,-167.01 226.72,-156.91 222.91,-166.79 229.91,-167.01"/>
</a>
</g>
</g>
<!-- Node7&#45;&gt;Node18 -->
<g id="edge8_Node000007_Node000018" class="edge">
<title>Node7&#45;&gt;Node18</title>
<g id="a_edge8_Node000007_Node000018"><a xlink:title=" ">
<path fill="none" stroke="#63b8ff" d="M280.12,-138.34C365.49,-126.04 532.32,-101.99 617.77,-89.67"/>
<polygon fill="#63b8ff" stroke="#63b8ff" points="618.38,-93.12 627.78,-88.23 617.38,-86.19 618.38,-93.12"/>
</a>
</g>
</g>
<!-- Node9 -->
<g id="Node000009" class="node">
<title>Node9</title>
<g id="a_Node000009"><a xlink:title=" ">
<polygon fill="#e0e0e0" stroke="#999999" points="291.5,-30 164.5,-30 164.5,0 291.5,0 291.5,-30"/>
<text text-anchor="start" x="172.5" y="-18" font-family="Helvetica,sans-Serif" font-size="10.00">deal.II/base/parameter</text>
<text text-anchor="middle" x="228" y="-7" font-family="Helvetica,sans-Serif" font-size="10.00">_handler.h</text>
</a>
</g>
</g>
<!-- Node7&#45;&gt;Node9 -->
<g id="edge12_Node000007_Node000009" class="edge">
<title>Node7&#45;&gt;Node9</title>
<g id="a_edge12_Node000007_Node000009"><a xlink:title=" ">
<path fill="none" stroke="#63b8ff" d="M227.07,-137.47C227.22,-118.04 227.59,-69.87 227.81,-40.36"/>
<polygon fill="#63b8ff" stroke="#63b8ff" points="231.31,-40.09 227.89,-30.07 224.31,-40.04 231.31,-40.09"/>
</a>
</g>
</g>
<!-- Node43 -->
<g id="Node000043" class="node">
<title>Node43</title>
<g id="a_Node000043"><a xlink:title=" ">
<polygon fill="#e0e0e0" stroke="#999999" points="199.5,-96 90.5,-96 90.5,-66 199.5,-66 199.5,-96"/>
<text text-anchor="start" x="98.5" y="-84" font-family="Helvetica,sans-Serif" font-size="10.00">deal.II/base/parsed</text>
<text text-anchor="middle" x="145" y="-73" font-family="Helvetica,sans-Serif" font-size="10.00">_function.h</text>
</a>
</g>
</g>
<!-- Node7&#45;&gt;Node43 -->
<g id="edge13_Node000007_Node000043" class="edge">
<title>Node7&#45;&gt;Node43</title>
<g id="a_edge13_Node000007_Node000043"><a xlink:title=" ">
<path fill="none" stroke="#63b8ff" d="M215.94,-137.37C204.51,-128.44 186.24,-114.19 171.11,-102.38"/>
<polygon fill="#63b8ff" stroke="#63b8ff" points="173.12,-99.51 163.09,-96.12 168.82,-105.03 173.12,-99.51"/>
</a>
</g>
</g>
<!-- Node18&#45;&gt;Node9 -->
<g id="edge9_Node000018_Node000009" class="edge">
<title>Node18&#45;&gt;Node9</title>
<g id="a_edge9_Node000018_Node000009"><a xlink:title=" ">
<path fill="none" stroke="#63b8ff" d="M627.72,-73.75C551.99,-62.81 394.68,-40.08 301.58,-26.63"/>
<polygon fill="#63b8ff" stroke="#63b8ff" points="302.06,-23.16 291.67,-25.2 301.06,-30.09 302.06,-23.16"/>
</a>
</g>
</g>
<!-- Node18&#45;&gt;Node17 -->
<g id="edge10_Node000018_Node000017" class="edge">
<title>Node18&#45;&gt;Node17</title>
<g id="a_edge10_Node000018_Node000017"><a xlink:title=" ">
<path fill="none" stroke="#63b8ff" d="M711.82,-71.44C767.06,-59.84 865.58,-39.17 925.44,-26.61"/>
<polygon fill="#63b8ff" stroke="#63b8ff" points="926.36,-29.99 935.42,-24.51 924.92,-23.14 926.36,-29.99"/>
</a>
</g>
</g>
<!-- Node18&#45;&gt;Node23 -->
<g id="edge11_Node000018_Node000023" class="edge">
<title>Node18&#45;&gt;Node23</title>
<g id="a_edge11_Node000018_Node000023"><a xlink:title=" ">
<path fill="none" stroke="#63b8ff" d="M692.44,-71.37C719.9,-60.32 767.68,-41.08 799.07,-28.45"/>
<polygon fill="#63b8ff" stroke="#63b8ff" points="800.67,-31.58 808.64,-24.6 798.06,-25.08 800.67,-31.58"/>
</a>
</g>
</g>
<!-- Node46&#45;&gt;Node7 -->
<g id="edge17_Node000046_Node000007" class="edge">
<title>Node46&#45;&gt;Node7</title>
<g id="a_edge17_Node000046_Node000007"><a xlink:title=" ">
<path fill="none" stroke="#63b8ff" d="M339.71,-263.94C357.64,-249.77 388.22,-220.75 372,-198 353.39,-171.9 320.22,-159.29 290.29,-153.25"/>
<polygon fill="#63b8ff" stroke="#63b8ff" points="290.76,-149.78 280.29,-151.45 289.51,-156.67 290.76,-149.78"/>
</a>
</g>
</g>
<!-- Node47 -->
<g id="Node000047" class="node">
<title>Node47</title>
<g id="a_Node000047"><a xlink:href="bdf_8h.html" target="_top" xlink:title=" ">
<polygon fill="#fff0f0" stroke="red" points="362.5,-222.5 297.5,-222.5 297.5,-203.5 362.5,-203.5 362.5,-222.5"/>
<text text-anchor="middle" x="330" y="-210.5" font-family="Helvetica,sans-Serif" font-size="10.00">core/bdf.h</text>
</a>
</g>
</g>
<!-- Node46&#45;&gt;Node47 -->
<g id="edge15_Node000046_Node000047" class="edge">
<title>Node46&#45;&gt;Node47</title>
<g id="a_edge15_Node000046_Node000047"><a xlink:title=" ">
<path fill="none" stroke="#63b8ff" d="M328.3,-263.87C328.57,-255.75 329,-243.31 329.35,-232.89"/>
<polygon fill="#63b8ff" stroke="#63b8ff" points="332.86,-232.78 329.7,-222.67 325.86,-232.54 332.86,-232.78"/>
</a>
</g>
</g>
<!-- Node46&#45;&gt;Node49 -->
<g id="edge18_Node000046_Node000049" class="edge">
<title>Node46&#45;&gt;Node49</title>
<g id="a_edge18_Node000046_Node000049"><a xlink:title=" ">
<path fill="none" stroke="#63b8ff" d="M350.83,-263.99C373.52,-255.54 409,-242.32 437.78,-231.59"/>
<polygon fill="#63b8ff" stroke="#63b8ff" points="439.11,-234.84 447.25,-228.06 436.66,-228.28 439.11,-234.84"/>
</a>
</g>
</g>
<!-- Node47&#45;&gt;Node7 -->
<g id="edge16_Node000047_Node000007" class="edge">
<title>Node47&#45;&gt;Node7</title>
<g id="a_edge16_Node000047_Node000007"><a xlink:title=" ">
<path fill="none" stroke="#63b8ff" d="M316.11,-203.37C299.06,-192.78 269.93,-174.67 249.63,-162.06"/>
<polygon fill="#63b8ff" stroke="#63b8ff" points="251.34,-159 241,-156.7 247.65,-164.95 251.34,-159"/>
</a>
</g>
</g>
<!-- Node50&#45;&gt;Node7 -->
<g id="edge20_Node000050_Node000007" class="edge">
<title>Node50&#45;&gt;Node7</title>
<g id="a_edge20_Node000050_Node000007"><a xlink:title=" ">
<path fill="none" stroke="#63b8ff" d="M98.21,-197.95C127.27,-186.68 167.67,-171.01 195.43,-160.25"/>
<polygon fill="#63b8ff" stroke="#63b8ff" points="196.98,-163.4 205.04,-156.52 194.45,-156.87 196.98,-163.4"/>
</a>
</g>
</g>
<!-- Node50&#45;&gt;Node9 -->
<g id="edge21_Node000050_Node000009" class="edge">
<title>Node50&#45;&gt;Node9</title>
<g id="a_edge21_Node000050_Node000009"><a xlink:title=" ">
<path fill="none" stroke="#63b8ff" d="M59.34,-197.65C54.93,-169.09 49.42,-104.56 81,-66 99.1,-43.9 127.41,-31.52 154.37,-24.62"/>
<polygon fill="#63b8ff" stroke="#63b8ff" points="155.28,-28 164.22,-22.31 153.69,-21.18 155.28,-28"/>
</a>
</g>
</g>
<!-- Node50&#45;&gt;Node43 -->
<g id="edge22_Node000050_Node000043" class="edge">
<title>Node50&#45;&gt;Node43</title>
<g id="a_edge22_Node000050_Node000043"><a xlink:title=" ">
<path fill="none" stroke="#63b8ff" d="M71.04,-197.84C85.32,-175.47 113.24,-131.74 130.39,-104.88"/>
<polygon fill="#63b8ff" stroke="#63b8ff" points="133.54,-106.45 135.97,-96.14 127.64,-102.69 133.54,-106.45"/>
</a>
</g>
</g>
<!-- Node15&#45;&gt;Node17 -->
<g id="edge24_Node000015_Node000017" class="edge">
<title>Node15&#45;&gt;Node17</title>
<g id="a_edge24_Node000015_Node000017"><a xlink:title=" ">
<path fill="none" stroke="#63b8ff" d="M973.33,-131.84C973.87,-108.34 974.96,-61.26 975.56,-34.93"/>
<polygon fill="#63b8ff" stroke="#63b8ff" points="979.07,-34.83 975.8,-24.75 972.07,-34.66 979.07,-34.83"/>
</a>
</g>
</g>
</g>
</svg>
