<?xml version="1.0" encoding="UTF-8" standalone="no"?>
<!DOCTYPE svg PUBLIC "-//W3C//DTD SVG 1.1//EN"
 "http://www.w3.org/Graphics/SVG/1.1/DTD/svg11.dtd">
<!-- Generated by graphviz version 2.43.0 (0)
 -->
<!-- Title: /home/runner/work/lethe/lethe/include/dem/multiphysics_integrator.h Pages: 1 -->
<svg width="2263pt" height="500pt"
 viewBox="0.00 0.00 2262.90 500.00" xmlns="http://www.w3.org/2000/svg" xmlns:xlink="http://www.w3.org/1999/xlink">
<g id="graph0" class="graph" transform="scale(1 1) rotate(0) translate(4 496)">
<title>/home/runner/work/lethe/lethe/include/dem/multiphysics_integrator.h</title>
<!-- Node1 -->
<g id="Node000001" class="node">
<title>Node1</title>
<g id="a_Node000001"><a xlink:title=" ">
<polygon fill="#999999" stroke="#666666" points="2191.9,-492 2018.9,-492 2018.9,-451 2191.9,-451 2191.9,-492"/>
<text text-anchor="start" x="2026.9" y="-480" font-family="Helvetica,sans-Serif" font-size="10.00">/home/runner/work/lethe</text>
<text text-anchor="start" x="2026.9" y="-469" font-family="Helvetica,sans-Serif" font-size="10.00">/lethe/include/dem/multiphysics</text>
<text text-anchor="middle" x="2105.4" y="-458" font-family="Helvetica,sans-Serif" font-size="10.00">_integrator.h</text>
</a>
</g>
</g>
<!-- Node2 -->
<g id="Node000002" class="node">
<title>Node2</title>
<g id="a_Node000002"><a xlink:href="dem__solver__parameters_8h.html" target="_top" xlink:title=" ">
<polygon fill="white" stroke="#666666" points="2105.9,-409.5 1936.9,-409.5 1936.9,-390.5 2105.9,-390.5 2105.9,-409.5"/>
<text text-anchor="middle" x="2021.4" y="-397.5" font-family="Helvetica,sans-Serif" font-size="10.00">dem/dem_solver_parameters.h</text>
</a>
</g>
</g>
<!-- Node1&#45;&gt;Node2 -->
<g id="edge1_Node000001_Node000002" class="edge">
<title>Node1&#45;&gt;Node2</title>
<g id="a_edge1_Node000001_Node000002"><a xlink:title=" ">
<path fill="none" stroke="#63b8ff" d="M2081.55,-450.77C2068.31,-439.81 2052.09,-426.39 2039.83,-416.25"/>
<polygon fill="#63b8ff" stroke="#63b8ff" points="2041.99,-413.5 2032.06,-409.82 2037.53,-418.89 2041.99,-413.5"/>
</a>
</g>
</g>
<!-- Node44 -->
<g id="Node000044" class="node">
<title>Node44</title>
<g id="a_Node000044"><a xlink:title=" ">
<polygon fill="#e0e0e0" stroke="#999999" points="2254.9,-415 2123.9,-415 2123.9,-385 2254.9,-385 2254.9,-415"/>
<text text-anchor="start" x="2131.9" y="-403" font-family="Helvetica,sans-Serif" font-size="10.00">deal.II/particles/particle</text>
<text text-anchor="middle" x="2189.4" y="-392" font-family="Helvetica,sans-Serif" font-size="10.00">_handler.h</text>
</a>
</g>
</g>
<!-- Node1&#45;&gt;Node44 -->
<g id="edge45_Node000001_Node000044" class="edge">
<title>Node1&#45;&gt;Node44</title>
<g id="a_edge45_Node000001_Node000044"><a xlink:title=" ">
<path fill="none" stroke="#63b8ff" d="M2129.24,-450.77C2140.33,-441.6 2153.5,-430.7 2164.69,-421.44"/>
<polygon fill="#63b8ff" stroke="#63b8ff" points="2166.96,-424.11 2172.43,-415.04 2162.49,-418.72 2166.96,-424.11"/>
</a>
</g>
</g>
<!-- Node3 -->
<g id="Node000003" class="node">
<title>Node3</title>
<g id="a_Node000003"><a xlink:href="parameters_8h.html" target="_top" xlink:title=" ">
<polygon fill="white" stroke="#666666" points="1966.4,-283 1860.4,-283 1860.4,-264 1966.4,-264 1966.4,-283"/>
<text text-anchor="middle" x="1913.4" y="-271" font-family="Helvetica,sans-Serif" font-size="10.00">core/parameters.h</text>
</a>
</g>
</g>
<!-- Node2&#45;&gt;Node3 -->
<g id="edge2_Node000002_Node000003" class="edge">
<title>Node2&#45;&gt;Node3</title>
<g id="a_edge2_Node000002_Node000003"><a xlink:title=" ">
<path fill="none" stroke="#63b8ff" d="M1993.74,-390.43C1973.51,-382.74 1946.98,-369.48 1931.4,-349 1919.21,-332.98 1915.14,-309.88 1913.85,-293.66"/>
<polygon fill="#63b8ff" stroke="#63b8ff" points="1917.33,-293.07 1913.33,-283.26 1910.33,-293.43 1917.33,-293.07"/>
</a>
</g>
</g>
<!-- Node42 -->
<g id="Node000042" class="node">
<title>Node42</title>
<g id="a_Node000042"><a xlink:href="parameters__lagrangian_8h.html" target="_top" xlink:title="Parameter structures for Lagrangian (DEM) particle simulations.">
<polygon fill="white" stroke="#666666" points="2102.9,-343.5 1939.9,-343.5 1939.9,-324.5 2102.9,-324.5 2102.9,-343.5"/>
<text text-anchor="middle" x="2021.4" y="-331.5" font-family="Helvetica,sans-Serif" font-size="10.00">core/parameters_lagrangian.h</text>
</a>
</g>
</g>
<!-- Node2&#45;&gt;Node42 -->
<g id="edge37_Node000002_Node000042" class="edge">
<title>Node2&#45;&gt;Node42</title>
<g id="a_edge37_Node000002_Node000042"><a xlink:title=" ">
<path fill="none" stroke="#63b8ff" d="M2021.4,-390.37C2021.4,-381.16 2021.4,-366.29 2021.4,-354.27"/>
<polygon fill="#63b8ff" stroke="#63b8ff" points="2024.9,-353.91 2021.4,-343.91 2017.9,-353.91 2024.9,-353.91"/>
</a>
</g>
</g>
<!-- Node43 -->
<g id="Node000043" class="node">
<title>Node43</title>
<g id="a_Node000043"><a xlink:href="solid__objects__parameters_8h.html" target="_top" xlink:title="Parameter classes for solid objects used in Nitsche immersed boundary and DEM simulations.">
<polygon fill="white" stroke="#666666" points="2225.4,-349 2121.4,-349 2121.4,-319 2225.4,-319 2225.4,-349"/>
<text text-anchor="start" x="2129.4" y="-337" font-family="Helvetica,sans-Serif" font-size="10.00">core/solid_objects</text>
<text text-anchor="middle" x="2173.4" y="-326" font-family="Helvetica,sans-Serif" font-size="10.00">_parameters.h</text>
</a>
</g>
</g>
<!-- Node2&#45;&gt;Node43 -->
<g id="edge41_Node000002_Node000043" class="edge">
<title>Node2&#45;&gt;Node43</title>
<g id="a_edge41_Node000002_Node000043"><a xlink:title=" ">
<path fill="none" stroke="#63b8ff" d="M2041.9,-390.37C2064.47,-380.87 2101.39,-365.32 2130.38,-353.11"/>
<polygon fill="#63b8ff" stroke="#63b8ff" points="2132.01,-356.22 2139.87,-349.12 2129.3,-349.77 2132.01,-356.22"/>
</a>
</g>
</g>
<!-- Node4 -->
<g id="Node000004" class="node">
<title>Node4</title>
<g id="a_Node000004"><a xlink:href="dimensionality_8h.html" target="_top" xlink:title=" ">
<polygon fill="white" stroke="#666666" points="2182.9,-156.5 2061.9,-156.5 2061.9,-137.5 2182.9,-137.5 2182.9,-156.5"/>
<text text-anchor="middle" x="2122.4" y="-144.5" font-family="Helvetica,sans-Serif" font-size="10.00">core/dimensionality.h</text>
</a>
</g>
</g>
<!-- Node3&#45;&gt;Node4 -->
<g id="edge3_Node000003_Node000004" class="edge">
<title>Node3&#45;&gt;Node4</title>
<g id="a_edge3_Node000003_Node000004"><a xlink:title=" ">
<path fill="none" stroke="#63b8ff" d="M1966.67,-267.94C2020.09,-262.17 2097.12,-250.2 2116.4,-228 2130.91,-211.28 2129.71,-184.47 2126.72,-166.55"/>
<polygon fill="#63b8ff" stroke="#63b8ff" points="2130.14,-165.83 2124.75,-156.71 2123.28,-167.21 2130.14,-165.83"/>
</a>
</g>
</g>
<!-- Node5 -->
<g id="Node000005" class="node">
<title>Node5</title>
<g id="a_Node000005"><a xlink:title=" ">
<polygon fill="#e0e0e0" stroke="#999999" points="2185.9,-30 2058.9,-30 2058.9,0 2185.9,0 2185.9,-30"/>
<text text-anchor="start" x="2066.9" y="-18" font-family="Helvetica,sans-Serif" font-size="10.00">deal.II/base/parameter</text>
<text text-anchor="middle" x="2122.4" y="-7" font-family="Helvetica,sans-Serif" font-size="10.00">_handler.h</text>
</a>
</g>
</g>
<!-- Node3&#45;&gt;Node5 -->
<g id="edge34_Node000003_Node000005" class="edge">
<title>Node3&#45;&gt;Node5</title>
<g id="a_edge34_Node000003_Node000005"><a xlink:title=" ">
<path fill="none" stroke="#63b8ff" d="M1860.37,-265.69C1808.23,-256.62 1740.01,-236.97 1766.4,-198 1790.55,-162.33 1817.44,-180.4 1856.4,-162 1943.17,-121.02 2041.14,-64.43 2090.43,-35.2"/>
<polygon fill="#63b8ff" stroke="#63b8ff" points="2092.25,-38.19 2099.06,-30.07 2088.67,-32.18 2092.25,-38.19"/>
</a>
</g>
</g>
<!-- Node6 -->
<g id="Node000006" class="node">
<title>Node6</title>
<g id="a_Node000006"><a xlink:href="ib__particle_8h.html" target="_top" xlink:title=" ">
<polygon fill="white" stroke="#666666" points="1460.9,-222.5 1359.9,-222.5 1359.9,-203.5 1460.9,-203.5 1460.9,-222.5"/>
<text text-anchor="middle" x="1410.4" y="-210.5" font-family="Helvetica,sans-Serif" font-size="10.00">core/ib_particle.h</text>
</a>
</g>
</g>
<!-- Node3&#45;&gt;Node6 -->
<g id="edge5_Node000003_Node000006" class="edge">
<title>Node3&#45;&gt;Node6</title>
<g id="a_edge5_Node000003_Node000006"><a xlink:title=" ">
<path fill="none" stroke="#63b8ff" d="M1860.04,-266.29C1765.78,-255.33 1570.4,-232.61 1471.13,-221.06"/>
<polygon fill="#63b8ff" stroke="#63b8ff" points="1471.29,-217.56 1460.96,-219.88 1470.49,-224.51 1471.29,-217.56"/>
</a>
</g>
</g>
<!-- Node14 -->
<g id="Node000014" class="node">
<title>Node14</title>
<g id="a_Node000014"><a xlink:href="core_2utilities_8h.html" target="_top" xlink:title=" ">
<polygon fill="#fff0f0" stroke="red" points="296.4,-90.5 210.4,-90.5 210.4,-71.5 296.4,-71.5 296.4,-90.5"/>
<text text-anchor="middle" x="253.4" y="-78.5" font-family="Helvetica,sans-Serif" font-size="10.00">core/utilities.h</text>
</a>
</g>
</g>
<!-- Node3&#45;&gt;Node14 -->
<g id="edge33_Node000003_Node000014" class="edge">
<title>Node3&#45;&gt;Node14</title>
<g id="a_edge33_Node000003_Node000014"><a xlink:title=" ">
<path fill="none" stroke="#63b8ff" d="M1860.24,-269.14C1760.4,-262.65 1538.08,-247.3 1351.4,-228 890.57,-180.37 773.91,-174.91 317.4,-96 311.65,-95.01 305.64,-93.85 299.71,-92.64"/>
<polygon fill="#63b8ff" stroke="#63b8ff" points="300.35,-89.19 289.84,-90.56 298.9,-96.04 300.35,-89.19"/>
</a>
</g>
</g>
<!-- Node39 -->
<g id="Node000039" class="node">
<title>Node39</title>
<g id="a_Node000039"><a xlink:title=" ">
<polygon fill="#e0e0e0" stroke="#999999" points="2043.9,-162 1934.9,-162 1934.9,-132 2043.9,-132 2043.9,-162"/>
<text text-anchor="start" x="1942.9" y="-150" font-family="Helvetica,sans-Serif" font-size="10.00">deal.II/base/parsed</text>
<text text-anchor="middle" x="1989.4" y="-139" font-family="Helvetica,sans-Serif" font-size="10.00">_function.h</text>
</a>
</g>
</g>
<!-- Node3&#45;&gt;Node39 -->
<g id="edge35_Node000003_Node000039" class="edge">
<title>Node3&#45;&gt;Node39</title>
<g id="a_edge35_Node000003_Node000039"><a xlink:title=" ">
<path fill="none" stroke="#63b8ff" d="M1914.47,-263.62C1916.55,-248.98 1922.17,-219.31 1935.4,-198 1942.24,-186.97 1952.15,-176.83 1961.62,-168.6"/>
<polygon fill="#63b8ff" stroke="#63b8ff" points="1963.93,-171.23 1969.4,-162.16 1959.46,-165.84 1963.93,-171.23"/>
</a>
</g>
</g>
<!-- Node40 -->
<g id="Node000040" class="node">
<title>Node40</title>
<g id="a_Node000040"><a xlink:href="multiphysics_8h.html" target="_top" xlink:title="Identifiers for multiphysics modules and their solution fields.">
<polygon fill="white" stroke="#666666" points="1887.4,-222.5 1775.4,-222.5 1775.4,-203.5 1887.4,-203.5 1887.4,-222.5"/>
<text text-anchor="middle" x="1831.4" y="-210.5" font-family="Helvetica,sans-Serif" font-size="10.00">core/multiphysics.h</text>
</a>
</g>
</g>
<!-- Node3&#45;&gt;Node40 -->
<g id="edge32_Node000003_Node000040" class="edge">
<title>Node3&#45;&gt;Node40</title>
<g id="a_edge32_Node000003_Node000040"><a xlink:title=" ">
<path fill="none" stroke="#63b8ff" d="M1901.3,-263.87C1888.34,-254.62 1867.54,-239.78 1851.99,-228.69"/>
<polygon fill="#63b8ff" stroke="#63b8ff" points="1853.72,-225.63 1843.55,-222.67 1849.65,-231.32 1853.72,-225.63"/>
</a>
</g>
</g>
<!-- Node41 -->
<g id="Node000041" class="node">
<title>Node41</title>
<g id="a_Node000041"><a xlink:title=" ">
<polygon fill="#e0e0e0" stroke="#999999" points="2106.9,-228 1943.9,-228 1943.9,-198 2106.9,-198 2106.9,-228"/>
<text text-anchor="start" x="1951.9" y="-216" font-family="Helvetica,sans-Serif" font-size="10.00">deal.II/multigrid/mg</text>
<text text-anchor="middle" x="2025.4" y="-205" font-family="Helvetica,sans-Serif" font-size="10.00">_transfer_global_coarsening.h</text>
</a>
</g>
</g>
<!-- Node3&#45;&gt;Node41 -->
<g id="edge36_Node000003_Node000041" class="edge">
<title>Node3&#45;&gt;Node41</title>
<g id="a_edge36_Node000003_Node000041"><a xlink:title=" ">
<path fill="none" stroke="#63b8ff" d="M1929.92,-263.87C1945.54,-255.71 1969.5,-243.2 1989.5,-232.75"/>
<polygon fill="#63b8ff" stroke="#63b8ff" points="1991.13,-235.85 1998.37,-228.11 1987.89,-229.64 1991.13,-235.85"/>
</a>
</g>
</g>
<!-- Node4&#45;&gt;Node5 -->
<g id="edge4_Node000004_Node000005" class="edge">
<title>Node4&#45;&gt;Node5</title>
<g id="a_edge4_Node000004_Node000005"><a xlink:title=" ">
<path fill="none" stroke="#63b8ff" d="M2122.4,-137.47C2122.4,-118.04 2122.4,-69.87 2122.4,-40.36"/>
<polygon fill="#63b8ff" stroke="#63b8ff" points="2125.9,-40.07 2122.4,-30.07 2118.9,-40.07 2125.9,-40.07"/>
</a>
</g>
</g>
<!-- Node7 -->
<g id="Node000007" class="node">
<title>Node7</title>
<g id="a_Node000007"><a xlink:href="dem__properties_8h.html" target="_top" xlink:title="DEM particle property definitions and output name management.">
<polygon fill="white" stroke="#666666" points="154.4,-90.5 28.4,-90.5 28.4,-71.5 154.4,-71.5 154.4,-90.5"/>
<text text-anchor="middle" x="91.4" y="-78.5" font-family="Helvetica,sans-Serif" font-size="10.00">core/dem_properties.h</text>
</a>
</g>
</g>
<!-- Node6&#45;&gt;Node7 -->
<g id="edge6_Node000006_Node000007" class="edge">
<title>Node6&#45;&gt;Node7</title>
<g id="a_edge6_Node000006_Node000007"><a xlink:title=" ">
<path fill="none" stroke="#63b8ff" d="M1359.64,-212.18C1140.09,-212.66 278.19,-211.34 168.4,-162 138.78,-148.69 114.8,-118.26 101.87,-99"/>
<polygon fill="#63b8ff" stroke="#63b8ff" points="104.79,-97.08 96.42,-90.57 98.91,-100.87 104.79,-97.08"/>
</a>
</g>
</g>
<!-- Node9 -->
<g id="Node000009" class="node">
<title>Node9</title>
<g id="a_Node000009"><a xlink:title=" ">
<polygon fill="#e0e0e0" stroke="#999999" points="205.9,-24.5 158.9,-24.5 158.9,-5.5 205.9,-5.5 205.9,-24.5"/>
<text text-anchor="middle" x="182.4" y="-12.5" font-family="Helvetica,sans-Serif" font-size="10.00">vector</text>
</a>
</g>
</g>
<!-- Node6&#45;&gt;Node9 -->
<g id="edge31_Node000006_Node000009" class="edge">
<title>Node6&#45;&gt;Node9</title>
<g id="a_edge31_Node000006_Node000009"><a xlink:title=" ">
<path fill="none" stroke="#63b8ff" d="M1359.73,-210.56C1141.64,-203.93 290.04,-173.22 201.4,-96 184.1,-80.94 181.03,-53.27 181.14,-34.76"/>
<polygon fill="#63b8ff" stroke="#63b8ff" points="184.65,-34.73 181.53,-24.6 177.65,-34.46 184.65,-34.73"/>
</a>
</g>
</g>
<!-- Node10 -->
<g id="Node000010" class="node">
<title>Node10</title>
<g id="a_Node000010"><a xlink:href="shape_8h.html" target="_top" xlink:title=" ">
<polygon fill="white" stroke="#666666" points="1133.9,-156.5 1054.9,-156.5 1054.9,-137.5 1133.9,-137.5 1133.9,-156.5"/>
<text text-anchor="middle" x="1094.4" y="-144.5" font-family="Helvetica,sans-Serif" font-size="10.00">core/shape.h</text>
</a>
</g>
</g>
<!-- Node6&#45;&gt;Node10 -->
<g id="edge9_Node000006_Node000010" class="edge">
<title>Node6&#45;&gt;Node10</title>
<g id="a_edge9_Node000006_Node000010"><a xlink:title=" ">
<path fill="none" stroke="#63b8ff" d="M1368.11,-203.44C1309.96,-191.66 1205.53,-170.51 1143.84,-158.01"/>
<polygon fill="#63b8ff" stroke="#63b8ff" points="1144.44,-154.57 1133.95,-156.01 1143.05,-161.43 1144.44,-154.57"/>
</a>
</g>
</g>
<!-- Node12 -->
<g id="Node000012" class="node">
<title>Node12</title>
<g id="a_Node000012"><a xlink:title=" ">
<polygon fill="#e0e0e0" stroke="#999999" points="1091.4,-24.5 981.4,-24.5 981.4,-5.5 1091.4,-5.5 1091.4,-24.5"/>
<text text-anchor="middle" x="1036.4" y="-12.5" font-family="Helvetica,sans-Serif" font-size="10.00">deal.II/base/point.h</text>
</a>
</g>
</g>
<!-- Node6&#45;&gt;Node12 -->
<g id="edge30_Node000006_Node000012" class="edge">
<title>Node6&#45;&gt;Node12</title>
<g id="a_edge30_Node000006_Node000012"><a xlink:title=" ">
<path fill="none" stroke="#63b8ff" d="M1460.98,-211.41C1599.02,-208.22 1964.4,-188.29 1849.4,-66 1823.89,-38.88 1290.02,-22.54 1101.56,-17.6"/>
<polygon fill="#63b8ff" stroke="#63b8ff" points="1101.61,-14.1 1091.52,-17.34 1101.42,-21.1 1101.61,-14.1"/>
</a>
</g>
</g>
<!-- Node6&#45;&gt;Node39 -->
<g id="edge29_Node000006_Node000039" class="edge">
<title>Node6&#45;&gt;Node39</title>
<g id="a_edge29_Node000006_Node000039"><a xlink:title=" ">
<path fill="none" stroke="#63b8ff" d="M1461.08,-207.04C1547.57,-198.49 1729.17,-180.14 1882.4,-162 1896.1,-160.38 1910.77,-158.53 1924.72,-156.72"/>
<polygon fill="#63b8ff" stroke="#63b8ff" points="1925.26,-160.18 1934.72,-155.42 1924.35,-153.24 1925.26,-160.18"/>
</a>
</g>
</g>
<!-- Node8 -->
<g id="Node000008" class="node">
<title>Node8</title>
<g id="a_Node000008"><a xlink:title=" ">
<polygon fill="#e0e0e0" stroke="#999999" points="113.4,-24.5 69.4,-24.5 69.4,-5.5 113.4,-5.5 113.4,-24.5"/>
<text text-anchor="middle" x="91.4" y="-12.5" font-family="Helvetica,sans-Serif" font-size="10.00">string</text>
</a>
</g>
</g>
<!-- Node7&#45;&gt;Node8 -->
<g id="edge7_Node000007_Node000008" class="edge">
<title>Node7&#45;&gt;Node8</title>
<g id="a_edge7_Node000007_Node000008"><a xlink:title=" ">
<path fill="none" stroke="#63b8ff" d="M91.4,-71.37C91.4,-62.16 91.4,-47.29 91.4,-35.27"/>
<polygon fill="#63b8ff" stroke="#63b8ff" points="94.9,-34.91 91.4,-24.91 87.9,-34.91 94.9,-34.91"/>
</a>
</g>
</g>
<!-- Node7&#45;&gt;Node9 -->
<g id="edge8_Node000007_Node000009" class="edge">
<title>Node7&#45;&gt;Node9</title>
<g id="a_edge8_Node000007_Node000009"><a xlink:title=" ">
<path fill="none" stroke="#63b8ff" d="M103.67,-71.37C118.46,-60.97 143.55,-43.32 161.43,-30.75"/>
<polygon fill="#63b8ff" stroke="#63b8ff" points="163.86,-33.31 170.03,-24.7 159.84,-27.59 163.86,-33.31"/>
</a>
</g>
</g>
<!-- Node11 -->
<g id="Node000011" class="node">
<title>Node11</title>
<g id="a_Node000011"><a xlink:href="tensors__and__points__dimension__manipulation_8h.html" target="_top" xlink:title=" ">
<polygon fill="#fff0f0" stroke="red" points="1112.4,-96 960.4,-96 960.4,-66 1112.4,-66 1112.4,-96"/>
<text text-anchor="start" x="968.4" y="-84" font-family="Helvetica,sans-Serif" font-size="10.00">core/tensors_and_points</text>
<text text-anchor="middle" x="1036.4" y="-73" font-family="Helvetica,sans-Serif" font-size="10.00">_dimension_manipulation.h</text>
</a>
</g>
</g>
<!-- Node10&#45;&gt;Node11 -->
<g id="edge10_Node000010_Node000011" class="edge">
<title>Node10&#45;&gt;Node11</title>
<g id="a_edge10_Node000010_Node000011"><a xlink:title=" ">
<path fill="none" stroke="#63b8ff" d="M1086.58,-137.37C1078.84,-128.83 1066.68,-115.41 1056.26,-103.92"/>
<polygon fill="#63b8ff" stroke="#63b8ff" points="1058.72,-101.42 1049.41,-96.36 1053.53,-106.12 1058.72,-101.42"/>
</a>
</g>
</g>
<!-- Node10&#45;&gt;Node14 -->
<g id="edge12_Node000010_Node000014" class="edge">
<title>Node10&#45;&gt;Node14</title>
<g id="a_edge12_Node000010_Node000014"><a xlink:title=" ">
<path fill="none" stroke="#63b8ff" d="M1054.56,-145.94C938.88,-145.24 593.16,-139.39 310.4,-96 304.98,-95.17 299.33,-94.07 293.78,-92.85"/>
<polygon fill="#63b8ff" stroke="#63b8ff" points="294.5,-89.43 283.96,-90.56 292.91,-96.24 294.5,-89.43"/>
</a>
</g>
</g>
<!-- Node19 -->
<g id="Node000019" class="node">
<title>Node19</title>
<g id="a_Node000019"><a xlink:title=" ">
<polygon fill="#e0e0e0" stroke="#999999" points="379.4,-24.5 239.4,-24.5 239.4,-5.5 379.4,-5.5 379.4,-24.5"/>
<text text-anchor="middle" x="309.4" y="-12.5" font-family="Helvetica,sans-Serif" font-size="10.00">deal.II/dofs/dof_handler.h</text>
</a>
</g>
</g>
<!-- Node10&#45;&gt;Node19 -->
<g id="edge24_Node000010_Node000019" class="edge">
<title>Node10&#45;&gt;Node19</title>
<g id="a_edge24_Node000010_Node000019"><a xlink:title=" ">
<path fill="none" stroke="#63b8ff" d="M1054.84,-145.74C908.43,-144.44 402.76,-137 344.4,-96 324.27,-81.86 315.6,-53.51 311.94,-34.64"/>
<polygon fill="#63b8ff" stroke="#63b8ff" points="315.36,-33.87 310.29,-24.57 308.46,-35 315.36,-33.87"/>
</a>
</g>
</g>
<!-- Node29 -->
<g id="Node000029" class="node">
<title>Node29</title>
<g id="a_Node000029"><a xlink:title=" ">
<polygon fill="#e0e0e0" stroke="#999999" points="1420.4,-96 1268.4,-96 1268.4,-66 1420.4,-66 1420.4,-96"/>
<text text-anchor="start" x="1276.4" y="-84" font-family="Helvetica,sans-Serif" font-size="10.00">deal.II/base/auto_derivative</text>
<text text-anchor="middle" x="1344.4" y="-73" font-family="Helvetica,sans-Serif" font-size="10.00">_function.h</text>
</a>
</g>
</g>
<!-- Node10&#45;&gt;Node29 -->
<g id="edge18_Node000010_Node000029" class="edge">
<title>Node10&#45;&gt;Node29</title>
<g id="a_edge18_Node000010_Node000029"><a xlink:title=" ">
<path fill="none" stroke="#63b8ff" d="M1127.85,-137.44C1166.57,-127.52 1231.21,-110.98 1279.81,-98.53"/>
<polygon fill="#63b8ff" stroke="#63b8ff" points="1280.79,-101.9 1289.61,-96.02 1279.06,-95.11 1280.79,-101.9"/>
</a>
</g>
</g>
<!-- Node30 -->
<g id="Node000030" class="node">
<title>Node30</title>
<g id="a_Node000030"><a xlink:title=" ">
<polygon fill="#e0e0e0" stroke="#999999" points="1563.9,-90.5 1438.9,-90.5 1438.9,-71.5 1563.9,-71.5 1563.9,-90.5"/>
<text text-anchor="middle" x="1501.4" y="-78.5" font-family="Helvetica,sans-Serif" font-size="10.00">deal.II/base/function.h</text>
</a>
</g>
</g>
<!-- Node10&#45;&gt;Node30 -->
<g id="edge19_Node000010_Node000030" class="edge">
<title>Node10&#45;&gt;Node30</title>
<g id="a_edge19_Node000010_Node000030"><a xlink:title=" ">
<path fill="none" stroke="#63b8ff" d="M1133.94,-140.67C1196.7,-132.08 1322.9,-114.29 1429.4,-96 1435.74,-94.91 1442.38,-93.71 1448.96,-92.47"/>
<polygon fill="#63b8ff" stroke="#63b8ff" points="1450.02,-95.83 1459.19,-90.53 1448.72,-88.96 1450.02,-95.83"/>
</a>
</g>
</g>
<!-- Node31 -->
<g id="Node000031" class="node">
<title>Node31</title>
<g id="a_Node000031"><a xlink:title=" ">
<polygon fill="#e0e0e0" stroke="#999999" points="1706.4,-90.5 1582.4,-90.5 1582.4,-71.5 1706.4,-71.5 1706.4,-90.5"/>
<text text-anchor="middle" x="1644.4" y="-78.5" font-family="Helvetica,sans-Serif" font-size="10.00">deal.II/grid/manifold.h</text>
</a>
</g>
</g>
<!-- Node10&#45;&gt;Node31 -->
<g id="edge20_Node000010_Node000031" class="edge">
<title>Node10&#45;&gt;Node31</title>
<g id="a_edge20_Node000010_Node000031"><a xlink:title=" ">
<path fill="none" stroke="#63b8ff" d="M1133.98,-143.09C1216.16,-136.78 1411.14,-120.41 1573.4,-96 1580.16,-94.98 1587.25,-93.77 1594.24,-92.48"/>
<polygon fill="#63b8ff" stroke="#63b8ff" points="1595.16,-95.87 1604.33,-90.56 1593.85,-88.99 1595.16,-95.87"/>
</a>
</g>
</g>
<!-- Node32 -->
<g id="Node000032" class="node">
<title>Node32</title>
<g id="a_Node000032"><a xlink:title=" ">
<polygon fill="#e0e0e0" stroke="#999999" points="1839.9,-96 1724.9,-96 1724.9,-66 1839.9,-66 1839.9,-96"/>
<text text-anchor="start" x="1732.9" y="-84" font-family="Helvetica,sans-Serif" font-size="10.00">deal.II/grid/manifold</text>
<text text-anchor="middle" x="1782.4" y="-73" font-family="Helvetica,sans-Serif" font-size="10.00">_lib.h</text>
</a>
</g>
</g>
<!-- Node10&#45;&gt;Node32 -->
<g id="edge21_Node000010_Node000032" class="edge">
<title>Node10&#45;&gt;Node32</title>
<g id="a_edge21_Node000010_Node000032"><a xlink:title=" ">
<path fill="none" stroke="#63b8ff" d="M1134.19,-144.53C1231.54,-140.57 1489.57,-127.82 1714.72,-95.96"/>
<polygon fill="#63b8ff" stroke="#63b8ff" points="1715.33,-99.41 1724.74,-94.53 1714.34,-92.48 1715.33,-99.41"/>
</a>
</g>
</g>
<!-- Node33 -->
<g id="Node000033" class="node">
<title>Node33</title>
<g id="a_Node000033"><a xlink:title=" ">
<polygon fill="#e0e0e0" stroke="#999999" points="467.9,-96 352.9,-96 352.9,-66 467.9,-66 467.9,-96"/>
<text text-anchor="start" x="360.9" y="-84" font-family="Helvetica,sans-Serif" font-size="10.00">boost/range/adaptor</text>
<text text-anchor="middle" x="410.4" y="-73" font-family="Helvetica,sans-Serif" font-size="10.00">/map.hpp</text>
</a>
</g>
</g>
<!-- Node10&#45;&gt;Node33 -->
<g id="edge22_Node000010_Node000033" class="edge">
<title>Node10&#45;&gt;Node33</title>
<g id="a_edge22_Node000010_Node000033"><a xlink:title=" ">
<path fill="none" stroke="#63b8ff" d="M1054.87,-144.51C958.14,-140.51 701.78,-127.68 478.02,-95.95"/>
<polygon fill="#63b8ff" stroke="#63b8ff" points="478.45,-92.48 468.06,-94.53 477.46,-99.41 478.45,-92.48"/>
</a>
</g>
</g>
<!-- Node34 -->
<g id="Node000034" class="node">
<title>Node34</title>
<g id="a_Node000034"><a xlink:title=" ">
<polygon fill="#e0e0e0" stroke="#999999" points="602.4,-96 486.4,-96 486.4,-66 602.4,-66 602.4,-96"/>
<text text-anchor="start" x="494.4" y="-84" font-family="Helvetica,sans-Serif" font-size="10.00">deal.II/base/function</text>
<text text-anchor="middle" x="544.4" y="-73" font-family="Helvetica,sans-Serif" font-size="10.00">_signed_distance.h</text>
</a>
</g>
</g>
<!-- Node10&#45;&gt;Node34 -->
<g id="edge23_Node000010_Node000034" class="edge">
<title>Node10&#45;&gt;Node34</title>
<g id="a_edge23_Node000010_Node000034"><a xlink:title=" ">
<path fill="none" stroke="#63b8ff" d="M1054.78,-143.29C973.63,-137.43 782.54,-122.1 612.32,-96.04"/>
<polygon fill="#63b8ff" stroke="#63b8ff" points="612.85,-92.58 602.44,-94.51 611.78,-99.5 612.85,-92.58"/>
</a>
</g>
</g>
<!-- Node35 -->
<g id="Node000035" class="node">
<title>Node35</title>
<g id="a_Node000035"><a xlink:title=" ">
<polygon fill="#e0e0e0" stroke="#999999" points="748.4,-90.5 620.4,-90.5 620.4,-71.5 748.4,-71.5 748.4,-90.5"/>
<text text-anchor="middle" x="684.4" y="-78.5" font-family="Helvetica,sans-Serif" font-size="10.00">deal.II/dofs/dof_tools.h</text>
</a>
</g>
</g>
<!-- Node10&#45;&gt;Node35 -->
<g id="edge25_Node000010_Node000035" class="edge">
<title>Node10&#45;&gt;Node35</title>
<g id="a_edge25_Node000010_Node000035"><a xlink:title=" ">
<path fill="none" stroke="#63b8ff" d="M1054.88,-140.69C991.84,-132.09 864.69,-114.24 757.4,-96 750.82,-94.88 743.91,-93.64 737.09,-92.38"/>
<polygon fill="#63b8ff" stroke="#63b8ff" points="737.66,-88.93 727.19,-90.52 736.37,-95.81 737.66,-88.93"/>
</a>
</g>
</g>
<!-- Node36 -->
<g id="Node000036" class="node">
<title>Node36</title>
<g id="a_Node000036"><a xlink:title=" ">
<polygon fill="#e0e0e0" stroke="#999999" points="942.4,-90.5 766.4,-90.5 766.4,-71.5 942.4,-71.5 942.4,-90.5"/>
<text text-anchor="middle" x="854.4" y="-78.5" font-family="Helvetica,sans-Serif" font-size="10.00">deal.II/physics/transformations.h</text>
</a>
</g>
</g>
<!-- Node10&#45;&gt;Node36 -->
<g id="edge26_Node000010_Node000036" class="edge">
<title>Node10&#45;&gt;Node36</title>
<g id="a_edge26_Node000010_Node000036"><a xlink:title=" ">
<path fill="none" stroke="#63b8ff" d="M1062.03,-137.37C1019.24,-125.96 943.75,-105.83 896.54,-93.24"/>
<polygon fill="#63b8ff" stroke="#63b8ff" points="897.2,-89.79 886.63,-90.6 895.39,-96.56 897.2,-89.79"/>
</a>
</g>
</g>
<!-- Node37 -->
<g id="Node000037" class="node">
<title>Node37</title>
<g id="a_Node000037"><a xlink:title=" ">
<polygon fill="#e0e0e0" stroke="#999999" points="1174.4,-90.5 1130.4,-90.5 1130.4,-71.5 1174.4,-71.5 1174.4,-90.5"/>
<text text-anchor="middle" x="1152.4" y="-78.5" font-family="Helvetica,sans-Serif" font-size="10.00">cfloat</text>
</a>
</g>
</g>
<!-- Node10&#45;&gt;Node37 -->
<g id="edge27_Node000010_Node000037" class="edge">
<title>Node10&#45;&gt;Node37</title>
<g id="a_edge27_Node000010_Node000037"><a xlink:title=" ">
<path fill="none" stroke="#63b8ff" d="M1102.22,-137.37C1111.25,-127.4 1126.3,-110.79 1137.57,-98.36"/>
<polygon fill="#63b8ff" stroke="#63b8ff" points="1140.21,-100.67 1144.33,-90.91 1135.02,-95.96 1140.21,-100.67"/>
</a>
</g>
</g>
<!-- Node38 -->
<g id="Node000038" class="node">
<title>Node38</title>
<g id="a_Node000038"><a xlink:title=" ">
<polygon fill="#e0e0e0" stroke="#999999" points="1250.4,-90.5 1192.4,-90.5 1192.4,-71.5 1250.4,-71.5 1250.4,-90.5"/>
<text text-anchor="middle" x="1221.4" y="-78.5" font-family="Helvetica,sans-Serif" font-size="10.00">memory</text>
</a>
</g>
</g>
<!-- Node10&#45;&gt;Node38 -->
<g id="edge28_Node000010_Node000038" class="edge">
<title>Node10&#45;&gt;Node38</title>
<g id="a_edge28_Node000010_Node000038"><a xlink:title=" ">
<path fill="none" stroke="#63b8ff" d="M1111.53,-137.37C1133.02,-126.54 1170.1,-107.85 1195.17,-95.22"/>
<polygon fill="#63b8ff" stroke="#63b8ff" points="1196.78,-98.32 1204.14,-90.7 1193.63,-92.07 1196.78,-98.32"/>
</a>
</g>
</g>
<!-- Node11&#45;&gt;Node12 -->
<g id="edge11_Node000011_Node000012" class="edge">
<title>Node11&#45;&gt;Node12</title>
<g id="a_edge11_Node000011_Node000012"><a xlink:title=" ">
<path fill="none" stroke="#63b8ff" d="M1036.4,-65.8C1036.4,-56.7 1036.4,-44.79 1036.4,-34.9"/>
<polygon fill="#63b8ff" stroke="#63b8ff" points="1039.9,-34.84 1036.4,-24.84 1032.9,-34.84 1039.9,-34.84"/>
</a>
</g>
</g>
<!-- Node14&#45;&gt;Node5 -->
<g id="edge13_Node000014_Node000005" class="edge">
<title>Node14&#45;&gt;Node5</title>
<g id="a_edge13_Node000014_Node000005"><a xlink:title=" ">
<path fill="none" stroke="#63b8ff" d="M296.77,-72.2C311.8,-69.8 328.8,-67.41 344.4,-66 683.29,-35.29 1756.41,-20.4 2048.42,-16.85"/>
<polygon fill="#63b8ff" stroke="#63b8ff" points="2048.52,-20.35 2058.47,-16.73 2048.43,-13.35 2048.52,-20.35"/>
</a>
</g>
</g>
<!-- Node14&#45;&gt;Node8 -->
<g id="edge16_Node000014_Node000008" class="edge">
<title>Node14&#45;&gt;Node8</title>
<g id="a_edge16_Node000014_Node000008"><a xlink:title=" ">
<path fill="none" stroke="#63b8ff" d="M231.55,-71.37C203.45,-60.27 154.47,-40.92 122.49,-28.28"/>
<polygon fill="#63b8ff" stroke="#63b8ff" points="123.74,-25.02 113.16,-24.6 121.17,-31.53 123.74,-25.02"/>
</a>
</g>
</g>
<!-- Node14&#45;&gt;Node9 -->
<g id="edge17_Node000014_Node000009" class="edge">
<title>Node14&#45;&gt;Node9</title>
<g id="a_edge17_Node000014_Node000009"><a xlink:title=" ">
<path fill="none" stroke="#63b8ff" d="M243.82,-71.37C232.56,-61.21 213.64,-44.16 199.76,-31.65"/>
<polygon fill="#63b8ff" stroke="#63b8ff" points="202.05,-29 192.28,-24.91 197.36,-34.2 202.05,-29"/>
</a>
</g>
</g>
<!-- Node14&#45;&gt;Node12 -->
<g id="edge14_Node000014_Node000012" class="edge">
<title>Node14&#45;&gt;Node12</title>
<g id="a_edge14_Node000014_Node000012"><a xlink:title=" ">
<path fill="none" stroke="#63b8ff" d="M296.81,-72.59C311.85,-70.22 328.83,-67.76 344.4,-66 574.03,-40.08 848.14,-24.93 971.09,-18.96"/>
<polygon fill="#63b8ff" stroke="#63b8ff" points="971.27,-22.46 981.09,-18.48 970.94,-15.47 971.27,-22.46"/>
</a>
</g>
</g>
<!-- Node14&#45;&gt;Node19 -->
<g id="edge15_Node000014_Node000019" class="edge">
<title>Node14&#45;&gt;Node19</title>
<g id="a_edge15_Node000014_Node000019"><a xlink:title=" ">
<path fill="none" stroke="#63b8ff" d="M260.95,-71.37C269.59,-61.5 283.93,-45.11 294.77,-32.72"/>
<polygon fill="#63b8ff" stroke="#63b8ff" points="297.65,-34.74 301.61,-24.91 292.39,-30.13 297.65,-34.74"/>
</a>
</g>
</g>
<!-- Node42&#45;&gt;Node3 -->
<g id="edge38_Node000042_Node000003" class="edge">
<title>Node42&#45;&gt;Node3</title>
<g id="a_edge38_Node000042_Node000003"><a xlink:title=" ">
<path fill="none" stroke="#63b8ff" d="M2005.46,-324.37C1987.75,-314.78 1958.94,-299.17 1938.26,-287.97"/>
<polygon fill="#63b8ff" stroke="#63b8ff" points="1939.86,-284.85 1929.4,-283.17 1936.52,-291.01 1939.86,-284.85"/>
</a>
</g>
</g>
<!-- Node42&#45;&gt;Node5 -->
<g id="edge39_Node000042_Node000005" class="edge">
<title>Node42&#45;&gt;Node5</title>
<g id="a_edge39_Node000042_Node000005"><a xlink:title=" ">
<path fill="none" stroke="#63b8ff" d="M2036.26,-324.48C2072.12,-302.9 2162.61,-242.08 2192.4,-162 2209.42,-116.24 2171.13,-65.38 2144.74,-37.39"/>
<polygon fill="#63b8ff" stroke="#63b8ff" points="2147.15,-34.85 2137.67,-30.13 2142.14,-39.73 2147.15,-34.85"/>
</a>
</g>
</g>
<!-- Node42&#45;&gt;Node8 -->
<g id="edge40_Node000042_Node000008" class="edge">
<title>Node42&#45;&gt;Node8</title>
<g id="a_edge40_Node000042_Node000008"><a xlink:title=" ">
<path fill="none" stroke="#63b8ff" d="M1939.67,-332.54C1561.57,-329.87 0.4,-312.85 0.4,-214 0.4,-214 0.4,-214 0.4,-146 0.4,-109.46 -1.19,-96.19 19.4,-66 30.19,-50.17 47.78,-37.82 62.87,-29.36"/>
<polygon fill="#63b8ff" stroke="#63b8ff" points="64.66,-32.37 71.86,-24.59 61.38,-26.18 64.66,-32.37"/>
</a>
</g>
</g>
<!-- Node43&#45;&gt;Node3 -->
<g id="edge42_Node000043_Node000003" class="edge">
<title>Node43&#45;&gt;Node3</title>
<g id="a_edge42_Node000043_Node000003"><a xlink:title=" ">
<path fill="none" stroke="#63b8ff" d="M2121.16,-320.99C2118.19,-320.32 2115.26,-319.65 2112.4,-319 2060.99,-307.35 2002.07,-294.2 1961.76,-285.24"/>
<polygon fill="#63b8ff" stroke="#63b8ff" points="1962.45,-281.8 1951.93,-283.05 1960.93,-288.64 1962.45,-281.8"/>
</a>
</g>
</g>
<!-- Node43&#45;&gt;Node5 -->
<g id="edge43_Node000043_Node000005" class="edge">
<title>Node43&#45;&gt;Node5</title>
<g id="a_edge43_Node000043_Node000005"><a xlink:title=" ">
<path fill="none" stroke="#63b8ff" d="M2190.26,-318.74C2212.65,-298.12 2249.4,-257.63 2249.4,-214 2249.4,-214 2249.4,-214 2249.4,-146 2249.4,-108.88 2249.46,-94.27 2225.4,-66 2213.6,-52.14 2197.08,-41.8 2180.71,-34.24"/>
<polygon fill="#63b8ff" stroke="#63b8ff" points="2181.69,-30.85 2171.12,-30.1 2178.92,-37.28 2181.69,-30.85"/>
</a>
</g>
</g>
<!-- Node43&#45;&gt;Node39 -->
<g id="edge44_Node000043_Node000039" class="edge">
<title>Node43&#45;&gt;Node39</title>
<g id="a_edge44_Node000043_Node000039"><a xlink:title=" ">
<path fill="none" stroke="#63b8ff" d="M2171.12,-318.73C2166.09,-291.61 2151.54,-232.29 2116.4,-198 2099.26,-181.28 2075.87,-169.97 2053.82,-162.4"/>
<polygon fill="#63b8ff" stroke="#63b8ff" points="2054.74,-159.02 2044.15,-159.28 2052.59,-165.68 2054.74,-159.02"/>
</a>
</g>
</g>
</g>
</svg>
