<?xml version="1.0" encoding="UTF-8" standalone="no"?>
<!DOCTYPE svg PUBLIC "-//W3C//DTD SVG 1.1//EN"
 "http://www.w3.org/Graphics/SVG/1.1/DTD/svg11.dtd">
<!-- Generated by graphviz version 2.43.0 (0)
 -->
<!-- Title: /home/runner/work/lethe/lethe/include/dem/multiphysics_integrator.h Pages: 1 -->
<svg width="340pt" height="126pt"
 viewBox="0.00 0.00 339.50 126.00" xmlns="http://www.w3.org/2000/svg" xmlns:xlink="http://www.w3.org/1999/xlink">
<g id="graph0" class="graph" transform="scale(1 1) rotate(0) translate(4 122)">
<title>/home/runner/work/lethe/lethe/include/dem/multiphysics_integrator.h</title>
<!-- Node1 -->
<g id="Node000001" class="node">
<title>Node1</title>
<g id="a_Node000001"><a xlink:title=" ">
<polygon fill="#999999" stroke="#666666" points="245,-118 72,-118 72,-77 245,-77 245,-118"/>
<text text-anchor="start" x="80" y="-106" font-family="Helvetica,sans-Serif" font-size="10.00">/home/runner/work/lethe</text>
<text text-anchor="start" x="80" y="-95" font-family="Helvetica,sans-Serif" font-size="10.00">/lethe/include/dem/multiphysics</text>
<text text-anchor="middle" x="158.5" y="-84" font-family="Helvetica,sans-Serif" font-size="10.00">_integrator.h</text>
</a>
</g>
</g>
<!-- Node2 -->
<g id="Node000002" class="node">
<title>Node2</title>
<g id="a_Node000002"><a xlink:href="dem_8cc.html" target="_top" xlink:title=" ">
<polygon fill="white" stroke="#666666" points="143,-35.5 0,-35.5 0,-5.5 143,-5.5 143,-35.5"/>
<text text-anchor="start" x="8" y="-23.5" font-family="Helvetica,sans-Serif" font-size="10.00">/home/runner/work/lethe</text>
<text text-anchor="middle" x="71.5" y="-12.5" font-family="Helvetica,sans-Serif" font-size="10.00">/lethe/source/dem/dem.cc</text>
</a>
</g>
</g>
<!-- Node1&#45;&gt;Node2 -->
<g id="edge1_Node000001_Node000002" class="edge">
<title>Node1&#45;&gt;Node2</title>
<g id="a_edge1_Node000001_Node000002"><a xlink:title=" ">
<path fill="none" stroke="#63b8ff" d="M127.96,-70.17C114.47,-58.55 99.16,-45.34 87.89,-35.63"/>
<polygon fill="#63b8ff" stroke="#63b8ff" points="125.78,-72.92 135.64,-76.79 130.35,-67.61 125.78,-72.92"/>
</a>
</g>
</g>
<!-- Node3 -->
<g id="Node000003" class="node">
<title>Node3</title>
<g id="a_Node000003"><a xlink:href="multiphysics__integrator_8cc.html" target="_top" xlink:title=" ">
<polygon fill="white" stroke="#666666" points="331.5,-41 161.5,-41 161.5,0 331.5,0 331.5,-41"/>
<text text-anchor="start" x="169.5" y="-29" font-family="Helvetica,sans-Serif" font-size="10.00">/home/runner/work/lethe</text>
<text text-anchor="start" x="169.5" y="-18" font-family="Helvetica,sans-Serif" font-size="10.00">/lethe/source/dem/multiphysics</text>
<text text-anchor="middle" x="246.5" y="-7" font-family="Helvetica,sans-Serif" font-size="10.00">_integrator.cc</text>
</a>
</g>
</g>
<!-- Node1&#45;&gt;Node3 -->
<g id="edge2_Node000001_Node000003" class="edge">
<title>Node1&#45;&gt;Node3</title>
<g id="a_edge2_Node000001_Node000003"><a xlink:title=" ">
<path fill="none" stroke="#63b8ff" d="M189.51,-70.07C200.71,-60.52 213.15,-49.93 223.53,-41.07"/>
<polygon fill="#63b8ff" stroke="#63b8ff" points="186.96,-67.64 181.62,-76.79 191.5,-72.97 186.96,-67.64"/>
</a>
</g>
</g>
</g>
</svg>
