<?xml version="1.0" encoding="UTF-8" standalone="no"?>
<!DOCTYPE svg PUBLIC "-//W3C//DTD SVG 1.1//EN"
 "http://www.w3.org/Graphics/SVG/1.1/DTD/svg11.dtd">
<!-- Generated by graphviz version 2.43.0 (0)
 -->
<!-- Title: /home/runner/work/lethe/lethe/include/solvers/navier_stokes_cls_assemblers.h Pages: 1 -->
<svg width="658pt" height="137pt"
 viewBox="0.00 0.00 658.00 137.00" xmlns="http://www.w3.org/2000/svg" xmlns:xlink="http://www.w3.org/1999/xlink">
<g id="graph0" class="graph" transform="scale(1 1) rotate(0) translate(4 133)">
<title>/home/runner/work/lethe/lethe/include/solvers/navier_stokes_cls_assemblers.h</title>
<!-- Node1 -->
<g id="Node000001" class="node">
<title>Node1</title>
<g id="a_Node000001"><a xlink:title=" ">
<polygon fill="#999999" stroke="#666666" points="392.5,-129 216.5,-129 216.5,-88 392.5,-88 392.5,-129"/>
<text text-anchor="start" x="224.5" y="-117" font-family="Helvetica,sans-Serif" font-size="10.00">/home/runner/work/lethe</text>
<text text-anchor="start" x="224.5" y="-106" font-family="Helvetica,sans-Serif" font-size="10.00">/lethe/include/solvers</text>
<text text-anchor="middle" x="304.5" y="-95" font-family="Helvetica,sans-Serif" font-size="10.00">/navier_stokes_cls_assemblers.h</text>
</a>
</g>
</g>
<!-- Node2 -->
<g id="Node000002" class="node">
<title>Node2</title>
<g id="a_Node000002"><a xlink:href="fluid__dynamics__sharp_8cc.html" target="_top" xlink:title=" ">
<polygon fill="white" stroke="#666666" points="139,-46.5 0,-46.5 0,-5.5 139,-5.5 139,-46.5"/>
<text text-anchor="start" x="8" y="-34.5" font-family="Helvetica,sans-Serif" font-size="10.00">/home/runner/work/lethe</text>
<text text-anchor="start" x="8" y="-23.5" font-family="Helvetica,sans-Serif" font-size="10.00">/lethe/source/fem&#45;dem</text>
<text text-anchor="middle" x="69.5" y="-12.5" font-family="Helvetica,sans-Serif" font-size="10.00">/fluid_dynamics_sharp.cc</text>
</a>
</g>
</g>
<!-- Node1&#45;&gt;Node2 -->
<g id="edge1_Node000001_Node000002" class="edge">
<title>Node1&#45;&gt;Node2</title>
<g id="a_edge1_Node000001_Node000002"><a xlink:title=" ">
<path fill="none" stroke="#63b8ff" d="M237.63,-84.59C202.56,-72.58 160.04,-58.01 126.54,-46.54"/>
<polygon fill="#63b8ff" stroke="#63b8ff" points="236.72,-87.98 247.31,-87.91 238.99,-81.36 236.72,-87.98"/>
</a>
</g>
</g>
<!-- Node3 -->
<g id="Node000003" class="node">
<title>Node3</title>
<g id="a_Node000003"><a xlink:href="fluid__dynamics__block_8cc.html" target="_top" xlink:title=" ">
<polygon fill="white" stroke="#666666" points="295.5,-46.5 157.5,-46.5 157.5,-5.5 295.5,-5.5 295.5,-46.5"/>
<text text-anchor="start" x="165.5" y="-34.5" font-family="Helvetica,sans-Serif" font-size="10.00">/home/runner/work/lethe</text>
<text text-anchor="start" x="165.5" y="-23.5" font-family="Helvetica,sans-Serif" font-size="10.00">/lethe/source/solvers</text>
<text text-anchor="middle" x="226.5" y="-12.5" font-family="Helvetica,sans-Serif" font-size="10.00">/fluid_dynamics_block.cc</text>
</a>
</g>
</g>
<!-- Node1&#45;&gt;Node3 -->
<g id="edge2_Node000001_Node000003" class="edge">
<title>Node1&#45;&gt;Node3</title>
<g id="a_edge2_Node000001_Node000003"><a xlink:title=" ">
<path fill="none" stroke="#63b8ff" d="M278.1,-80.26C267.43,-69.24 255.35,-56.77 245.56,-46.67"/>
<polygon fill="#63b8ff" stroke="#63b8ff" points="275.75,-82.85 285.22,-87.6 280.77,-77.98 275.75,-82.85"/>
</a>
</g>
</g>
<!-- Node4 -->
<g id="Node000004" class="node">
<title>Node4</title>
<g id="a_Node000004"><a xlink:href="fluid__dynamics__matrix__based_8cc.html" target="_top" xlink:title=" ">
<polygon fill="white" stroke="#666666" points="451,-52 314,-52 314,0 451,0 451,-52"/>
<text text-anchor="start" x="322" y="-40" font-family="Helvetica,sans-Serif" font-size="10.00">/home/runner/work/lethe</text>
<text text-anchor="start" x="322" y="-29" font-family="Helvetica,sans-Serif" font-size="10.00">/lethe/source/solvers</text>
<text text-anchor="start" x="322" y="-18" font-family="Helvetica,sans-Serif" font-size="10.00">/fluid_dynamics_matrix</text>
<text text-anchor="middle" x="382.5" y="-7" font-family="Helvetica,sans-Serif" font-size="10.00">_based.cc</text>
</a>
</g>
</g>
<!-- Node1&#45;&gt;Node4 -->
<g id="edge3_Node000001_Node000004" class="edge">
<title>Node1&#45;&gt;Node4</title>
<g id="a_edge3_Node000001_Node000004"><a xlink:title=" ">
<path fill="none" stroke="#63b8ff" d="M330.91,-80.25C339.71,-71.16 349.48,-61.08 358.13,-52.16"/>
<polygon fill="#63b8ff" stroke="#63b8ff" points="328.23,-77.98 323.78,-87.6 333.25,-82.85 328.23,-77.98"/>
</a>
</g>
</g>
<!-- Node5 -->
<g id="Node000005" class="node">
<title>Node5</title>
<g id="a_Node000005"><a xlink:href="navier__stokes__cls__assemblers_8cc.html" target="_top" xlink:title=" ">
<polygon fill="white" stroke="#666666" points="650,-46.5 469,-46.5 469,-5.5 650,-5.5 650,-46.5"/>
<text text-anchor="start" x="477" y="-34.5" font-family="Helvetica,sans-Serif" font-size="10.00">/home/runner/work/lethe</text>
<text text-anchor="start" x="477" y="-23.5" font-family="Helvetica,sans-Serif" font-size="10.00">/lethe/source/solvers</text>
<text text-anchor="middle" x="559.5" y="-12.5" font-family="Helvetica,sans-Serif" font-size="10.00">/navier_stokes_cls_assemblers.cc</text>
</a>
</g>
</g>
<!-- Node1&#45;&gt;Node5 -->
<g id="edge4_Node000001_Node000005" class="edge">
<title>Node1&#45;&gt;Node5</title>
<g id="a_edge4_Node000001_Node000005"><a xlink:title=" ">
<path fill="none" stroke="#63b8ff" d="M376.57,-84.75C414.73,-72.7 461.1,-58.06 497.61,-46.54"/>
<polygon fill="#63b8ff" stroke="#63b8ff" points="375.04,-81.56 366.55,-87.91 377.14,-88.24 375.04,-81.56"/>
</a>
</g>
</g>
</g>
</svg>
