<?xml version="1.0" encoding="UTF-8" standalone="no"?>
<!DOCTYPE svg PUBLIC "-//W3C//DTD SVG 1.1//EN"
 "http://www.w3.org/Graphics/SVG/1.1/DTD/svg11.dtd">
<!-- Generated by graphviz version 2.43.0 (0)
 -->
<!-- Title: /home/runner/work/lethe/lethe/include/core/newton_non_linear_solver_strategy.h Pages: 1 -->
<svg width="2163pt" height="434pt"
 viewBox="0.00 0.00 2163.00 434.00" xmlns="http://www.w3.org/2000/svg" xmlns:xlink="http://www.w3.org/1999/xlink">
<g id="graph0" class="graph" transform="scale(1 1) rotate(0) translate(4 430)">
<title>/home/runner/work/lethe/lethe/include/core/newton_non_linear_solver_strategy.h</title>
<!-- Node1 -->
<g id="Node000001" class="node">
<title>Node1</title>
<g id="a_Node000001"><a xlink:title=" ">
<polygon fill="#999999" stroke="#666666" points="562,-426 401,-426 401,-385 562,-385 562,-426"/>
<text text-anchor="start" x="409" y="-414" font-family="Helvetica,sans-Serif" font-size="10.00">/home/runner/work/lethe</text>
<text text-anchor="start" x="409" y="-403" font-family="Helvetica,sans-Serif" font-size="10.00">/lethe/include/core/newton</text>
<text text-anchor="middle" x="481.5" y="-392" font-family="Helvetica,sans-Serif" font-size="10.00">_non_linear_solver_strategy.h</text>
</a>
</g>
</g>
<!-- Node2 -->
<g id="Node000002" class="node">
<title>Node2</title>
<g id="a_Node000002"><a xlink:href="physics__solver__strategy_8h.html" target="_top" xlink:title=" ">
<polygon fill="white" stroke="#666666" points="538,-349 425,-349 425,-319 538,-319 538,-349"/>
<text text-anchor="start" x="433" y="-337" font-family="Helvetica,sans-Serif" font-size="10.00">core/physics_solver</text>
<text text-anchor="middle" x="481.5" y="-326" font-family="Helvetica,sans-Serif" font-size="10.00">_strategy.h</text>
</a>
</g>
</g>
<!-- Node1&#45;&gt;Node2 -->
<g id="edge1_Node000001_Node000002" class="edge">
<title>Node1&#45;&gt;Node2</title>
<g id="a_edge1_Node000001_Node000002"><a xlink:title=" ">
<path fill="none" stroke="#63b8ff" d="M481.5,-384.77C481.5,-376.85 481.5,-367.63 481.5,-359.3"/>
<polygon fill="#63b8ff" stroke="#63b8ff" points="485,-359.04 481.5,-349.04 478,-359.04 485,-359.04"/>
</a>
</g>
</g>
<!-- Node3 -->
<g id="Node000003" class="node">
<title>Node3</title>
<g id="a_Node000003"><a xlink:href="parameters_8h.html" target="_top" xlink:title=" ">
<polygon fill="white" stroke="#666666" points="534.5,-283 428.5,-283 428.5,-264 534.5,-264 534.5,-283"/>
<text text-anchor="middle" x="481.5" y="-271" font-family="Helvetica,sans-Serif" font-size="10.00">core/parameters.h</text>
</a>
</g>
</g>
<!-- Node2&#45;&gt;Node3 -->
<g id="edge2_Node000002_Node000003" class="edge">
<title>Node2&#45;&gt;Node3</title>
<g id="a_edge2_Node000002_Node000003"><a xlink:title=" ">
<path fill="none" stroke="#63b8ff" d="M481.5,-318.84C481.5,-311.21 481.5,-301.7 481.5,-293.45"/>
<polygon fill="#63b8ff" stroke="#63b8ff" points="485,-293.27 481.5,-283.27 478,-293.27 485,-293.27"/>
</a>
</g>
</g>
<!-- Node4 -->
<g id="Node000004" class="node">
<title>Node4</title>
<g id="a_Node000004"><a xlink:href="dimensionality_8h.html" target="_top" xlink:title=" ">
<polygon fill="white" stroke="#666666" points="121,-156.5 0,-156.5 0,-137.5 121,-137.5 121,-156.5"/>
<text text-anchor="middle" x="60.5" y="-144.5" font-family="Helvetica,sans-Serif" font-size="10.00">core/dimensionality.h</text>
</a>
</g>
</g>
<!-- Node3&#45;&gt;Node4 -->
<g id="edge3_Node000003_Node000004" class="edge">
<title>Node3&#45;&gt;Node4</title>
<g id="a_edge3_Node000003_Node000004"><a xlink:title=" ">
<path fill="none" stroke="#63b8ff" d="M428.27,-270.04C344.29,-265.42 185.44,-253.54 135.5,-228 107.23,-213.54 83.95,-183.95 71.17,-165.1"/>
<polygon fill="#63b8ff" stroke="#63b8ff" points="74.01,-163.05 65.62,-156.58 68.15,-166.87 74.01,-163.05"/>
</a>
</g>
</g>
<!-- Node5 -->
<g id="Node000005" class="node">
<title>Node5</title>
<g id="a_Node000005"><a xlink:title=" ">
<polygon fill="#e0e0e0" stroke="#999999" points="213,-30 86,-30 86,0 213,0 213,-30"/>
<text text-anchor="start" x="94" y="-18" font-family="Helvetica,sans-Serif" font-size="10.00">deal.II/base/parameter</text>
<text text-anchor="middle" x="149.5" y="-7" font-family="Helvetica,sans-Serif" font-size="10.00">_handler.h</text>
</a>
</g>
</g>
<!-- Node3&#45;&gt;Node5 -->
<g id="edge34_Node000003_Node000005" class="edge">
<title>Node3&#45;&gt;Node5</title>
<g id="a_edge34_Node000003_Node000005"><a xlink:title=" ">
<path fill="none" stroke="#63b8ff" d="M446.54,-263.97C395.36,-250.01 299.34,-218.07 236.5,-162 197.76,-127.43 171.17,-71.41 158.34,-39.76"/>
<polygon fill="#63b8ff" stroke="#63b8ff" points="161.57,-38.42 154.65,-30.39 155.06,-40.98 161.57,-38.42"/>
</a>
</g>
</g>
<!-- Node6 -->
<g id="Node000006" class="node">
<title>Node6</title>
<g id="a_Node000006"><a xlink:href="ib__particle_8h.html" target="_top" xlink:title=" ">
<polygon fill="white" stroke="#666666" points="532,-222.5 431,-222.5 431,-203.5 532,-203.5 532,-222.5"/>
<text text-anchor="middle" x="481.5" y="-210.5" font-family="Helvetica,sans-Serif" font-size="10.00">core/ib_particle.h</text>
</a>
</g>
</g>
<!-- Node3&#45;&gt;Node6 -->
<g id="edge5_Node000003_Node000006" class="edge">
<title>Node3&#45;&gt;Node6</title>
<g id="a_edge5_Node000003_Node000006"><a xlink:title=" ">
<path fill="none" stroke="#63b8ff" d="M481.5,-263.87C481.5,-255.75 481.5,-243.31 481.5,-232.89"/>
<polygon fill="#63b8ff" stroke="#63b8ff" points="485,-232.67 481.5,-222.67 478,-232.67 485,-232.67"/>
</a>
</g>
</g>
<!-- Node14 -->
<g id="Node000014" class="node">
<title>Node14</title>
<g id="a_Node000014"><a xlink:href="core_2utilities_8h.html" target="_top" xlink:title=" ">
<polygon fill="#fff0f0" stroke="red" points="445.5,-90.5 359.5,-90.5 359.5,-71.5 445.5,-71.5 445.5,-90.5"/>
<text text-anchor="middle" x="402.5" y="-78.5" font-family="Helvetica,sans-Serif" font-size="10.00">core/utilities.h</text>
</a>
</g>
</g>
<!-- Node3&#45;&gt;Node14 -->
<g id="edge33_Node000003_Node000014" class="edge">
<title>Node3&#45;&gt;Node14</title>
<g id="a_edge33_Node000003_Node000014"><a xlink:title=" ">
<path fill="none" stroke="#63b8ff" d="M463.1,-263.96C449.26,-256.5 431.09,-244.33 421.5,-228 397.73,-187.53 398.28,-130 400.5,-100.71"/>
<polygon fill="#63b8ff" stroke="#63b8ff" points="403.99,-100.91 401.41,-90.64 397.02,-100.28 403.99,-100.91"/>
</a>
</g>
</g>
<!-- Node39 -->
<g id="Node000039" class="node">
<title>Node39</title>
<g id="a_Node000039"><a xlink:title=" ">
<polygon fill="#e0e0e0" stroke="#999999" points="2155,-162 2046,-162 2046,-132 2155,-132 2155,-162"/>
<text text-anchor="start" x="2054" y="-150" font-family="Helvetica,sans-Serif" font-size="10.00">deal.II/base/parsed</text>
<text text-anchor="middle" x="2100.5" y="-139" font-family="Helvetica,sans-Serif" font-size="10.00">_function.h</text>
</a>
</g>
</g>
<!-- Node3&#45;&gt;Node39 -->
<g id="edge35_Node000003_Node000039" class="edge">
<title>Node3&#45;&gt;Node39</title>
<g id="a_edge35_Node000003_Node000039"><a xlink:title=" ">
<path fill="none" stroke="#63b8ff" d="M493.53,-263.74C505.7,-254.84 525.02,-240.61 541.5,-228 558.59,-214.92 559.26,-205.31 579.5,-198 731.29,-143.19 1871.14,-180.11 2031.5,-162 2032.8,-161.85 2034.11,-161.69 2035.43,-161.52"/>
<polygon fill="#63b8ff" stroke="#63b8ff" points="2036.26,-164.94 2045.65,-160.03 2035.25,-158.01 2036.26,-164.94"/>
</a>
</g>
</g>
<!-- Node40 -->
<g id="Node000040" class="node">
<title>Node40</title>
<g id="a_Node000040"><a xlink:href="multiphysics_8h.html" target="_top" xlink:title="Identifiers for multiphysics modules and their solution fields.">
<polygon fill="white" stroke="#666666" points="700.5,-222.5 588.5,-222.5 588.5,-203.5 700.5,-203.5 700.5,-222.5"/>
<text text-anchor="middle" x="644.5" y="-210.5" font-family="Helvetica,sans-Serif" font-size="10.00">core/multiphysics.h</text>
</a>
</g>
</g>
<!-- Node3&#45;&gt;Node40 -->
<g id="edge32_Node000003_Node000040" class="edge">
<title>Node3&#45;&gt;Node40</title>
<g id="a_edge32_Node000003_Node000040"><a xlink:title=" ">
<path fill="none" stroke="#63b8ff" d="M505.2,-263.99C533.09,-253.99 579.57,-237.3 611.1,-225.99"/>
<polygon fill="#63b8ff" stroke="#63b8ff" points="612.54,-229.19 620.77,-222.52 610.18,-222.6 612.54,-229.19"/>
</a>
</g>
</g>
<!-- Node41 -->
<g id="Node000041" class="node">
<title>Node41</title>
<g id="a_Node000041"><a xlink:title=" ">
<polygon fill="#e0e0e0" stroke="#999999" points="882,-228 719,-228 719,-198 882,-198 882,-228"/>
<text text-anchor="start" x="727" y="-216" font-family="Helvetica,sans-Serif" font-size="10.00">deal.II/multigrid/mg</text>
<text text-anchor="middle" x="800.5" y="-205" font-family="Helvetica,sans-Serif" font-size="10.00">_transfer_global_coarsening.h</text>
</a>
</g>
</g>
<!-- Node3&#45;&gt;Node41 -->
<g id="edge36_Node000003_Node000041" class="edge">
<title>Node3&#45;&gt;Node41</title>
<g id="a_edge36_Node000003_Node000041"><a xlink:title=" ">
<path fill="none" stroke="#63b8ff" d="M527.89,-263.99C576.58,-255.06 654.26,-240.82 714.27,-229.81"/>
<polygon fill="#63b8ff" stroke="#63b8ff" points="714.91,-233.25 724.12,-228.01 713.65,-226.37 714.91,-233.25"/>
</a>
</g>
</g>
<!-- Node4&#45;&gt;Node5 -->
<g id="edge4_Node000004_Node000005" class="edge">
<title>Node4&#45;&gt;Node5</title>
<g id="a_edge4_Node000004_Node000005"><a xlink:title=" ">
<path fill="none" stroke="#63b8ff" d="M66.34,-137.47C79.94,-117.61 114.08,-67.74 134.14,-38.44"/>
<polygon fill="#63b8ff" stroke="#63b8ff" points="137.11,-40.3 139.87,-30.07 131.33,-36.34 137.11,-40.3"/>
</a>
</g>
</g>
<!-- Node7 -->
<g id="Node000007" class="node">
<title>Node7</title>
<g id="a_Node000007"><a xlink:href="dem__properties_8h.html" target="_top" xlink:title="DEM particle property definitions and output name management.">
<polygon fill="white" stroke="#666666" points="341.5,-90.5 215.5,-90.5 215.5,-71.5 341.5,-71.5 341.5,-90.5"/>
<text text-anchor="middle" x="278.5" y="-78.5" font-family="Helvetica,sans-Serif" font-size="10.00">core/dem_properties.h</text>
</a>
</g>
</g>
<!-- Node6&#45;&gt;Node7 -->
<g id="edge6_Node000006_Node000007" class="edge">
<title>Node6&#45;&gt;Node7</title>
<g id="a_edge6_Node000006_Node000007"><a xlink:title=" ">
<path fill="none" stroke="#63b8ff" d="M468.18,-203.47C433.91,-181.53 342.44,-122.95 300.3,-95.96"/>
<polygon fill="#63b8ff" stroke="#63b8ff" points="302.18,-93.01 291.87,-90.56 298.4,-98.9 302.18,-93.01"/>
</a>
</g>
</g>
<!-- Node9 -->
<g id="Node000009" class="node">
<title>Node9</title>
<g id="a_Node000009"><a xlink:title=" ">
<polygon fill="#e0e0e0" stroke="#999999" points="302,-24.5 255,-24.5 255,-5.5 302,-5.5 302,-24.5"/>
<text text-anchor="middle" x="278.5" y="-12.5" font-family="Helvetica,sans-Serif" font-size="10.00">vector</text>
</a>
</g>
</g>
<!-- Node6&#45;&gt;Node9 -->
<g id="edge31_Node000006_Node000009" class="edge">
<title>Node6&#45;&gt;Node9</title>
<g id="a_edge31_Node000006_Node000009"><a xlink:title=" ">
<path fill="none" stroke="#63b8ff" d="M430.99,-207.24C366.17,-198.11 256.17,-171.71 206.5,-96 199.19,-84.85 200.32,-77.81 206.5,-66 215.14,-49.47 232.02,-37.31 247.25,-29.12"/>
<polygon fill="#63b8ff" stroke="#63b8ff" points="249.06,-32.13 256.44,-24.53 245.93,-25.87 249.06,-32.13"/>
</a>
</g>
</g>
<!-- Node10 -->
<g id="Node000010" class="node">
<title>Node10</title>
<g id="a_Node000010"><a xlink:href="shape_8h.html" target="_top" xlink:title=" ">
<polygon fill="white" stroke="#666666" points="1136,-156.5 1057,-156.5 1057,-137.5 1136,-137.5 1136,-156.5"/>
<text text-anchor="middle" x="1096.5" y="-144.5" font-family="Helvetica,sans-Serif" font-size="10.00">core/shape.h</text>
</a>
</g>
</g>
<!-- Node6&#45;&gt;Node10 -->
<g id="edge9_Node000006_Node000010" class="edge">
<title>Node6&#45;&gt;Node10</title>
<g id="a_edge9_Node000006_Node000010"><a xlink:title=" ">
<path fill="none" stroke="#63b8ff" d="M517.46,-203.44C526.87,-201.42 537.03,-199.45 546.5,-198 729.86,-170.03 950.17,-155.78 1046.88,-150.49"/>
<polygon fill="#63b8ff" stroke="#63b8ff" points="1047.16,-153.98 1056.95,-149.94 1046.78,-146.99 1047.16,-153.98"/>
</a>
</g>
</g>
<!-- Node12 -->
<g id="Node000012" class="node">
<title>Node12</title>
<g id="a_Node000012"><a xlink:title=" ">
<polygon fill="#e0e0e0" stroke="#999999" points="1968.5,-24.5 1858.5,-24.5 1858.5,-5.5 1968.5,-5.5 1968.5,-24.5"/>
<text text-anchor="middle" x="1913.5" y="-12.5" font-family="Helvetica,sans-Serif" font-size="10.00">deal.II/base/point.h</text>
</a>
</g>
</g>
<!-- Node6&#45;&gt;Node12 -->
<g id="edge30_Node000006_Node000012" class="edge">
<title>Node6&#45;&gt;Node12</title>
<g id="a_edge30_Node000006_Node000012"><a xlink:title=" ">
<path fill="none" stroke="#63b8ff" d="M511.23,-203.48C519.65,-201.36 528.88,-199.32 537.5,-198 805.07,-157 875.43,-180.44 1145.5,-162 1335.18,-149.05 1869.35,-235.53 1998.5,-96 2021.74,-70.89 1977.36,-44.11 1944.44,-28.78"/>
<polygon fill="#63b8ff" stroke="#63b8ff" points="1945.65,-25.49 1935.1,-24.58 1942.79,-31.87 1945.65,-25.49"/>
</a>
</g>
</g>
<!-- Node6&#45;&gt;Node39 -->
<g id="edge29_Node000006_Node000039" class="edge">
<title>Node6&#45;&gt;Node39</title>
<g id="a_edge29_Node000006_Node000039"><a xlink:title=" ">
<path fill="none" stroke="#63b8ff" d="M515.37,-203.45C525.33,-201.27 536.3,-199.21 546.5,-198 1202.09,-120.15 1375.46,-235.92 2031.5,-162 2032.8,-161.85 2034.11,-161.7 2035.43,-161.53"/>
<polygon fill="#63b8ff" stroke="#63b8ff" points="2036.26,-164.94 2045.65,-160.03 2035.25,-158.01 2036.26,-164.94"/>
</a>
</g>
</g>
<!-- Node8 -->
<g id="Node000008" class="node">
<title>Node8</title>
<g id="a_Node000008"><a xlink:title=" ">
<polygon fill="#e0e0e0" stroke="#999999" points="394.5,-24.5 350.5,-24.5 350.5,-5.5 394.5,-5.5 394.5,-24.5"/>
<text text-anchor="middle" x="372.5" y="-12.5" font-family="Helvetica,sans-Serif" font-size="10.00">string</text>
</a>
</g>
</g>
<!-- Node7&#45;&gt;Node8 -->
<g id="edge7_Node000007_Node000008" class="edge">
<title>Node7&#45;&gt;Node8</title>
<g id="a_edge7_Node000007_Node000008"><a xlink:title=" ">
<path fill="none" stroke="#63b8ff" d="M291.18,-71.37C306.59,-60.87 332.85,-43 351.35,-30.4"/>
<polygon fill="#63b8ff" stroke="#63b8ff" points="353.43,-33.22 359.72,-24.7 349.49,-27.43 353.43,-33.22"/>
</a>
</g>
</g>
<!-- Node7&#45;&gt;Node9 -->
<g id="edge8_Node000007_Node000009" class="edge">
<title>Node7&#45;&gt;Node9</title>
<g id="a_edge8_Node000007_Node000009"><a xlink:title=" ">
<path fill="none" stroke="#63b8ff" d="M278.5,-71.37C278.5,-62.16 278.5,-47.29 278.5,-35.27"/>
<polygon fill="#63b8ff" stroke="#63b8ff" points="282,-34.91 278.5,-24.91 275,-34.91 282,-34.91"/>
</a>
</g>
</g>
<!-- Node11 -->
<g id="Node000011" class="node">
<title>Node11</title>
<g id="a_Node000011"><a xlink:href="tensors__and__points__dimension__manipulation_8h.html" target="_top" xlink:title=" ">
<polygon fill="#fff0f0" stroke="red" points="1989.5,-96 1837.5,-96 1837.5,-66 1989.5,-66 1989.5,-96"/>
<text text-anchor="start" x="1845.5" y="-84" font-family="Helvetica,sans-Serif" font-size="10.00">core/tensors_and_points</text>
<text text-anchor="middle" x="1913.5" y="-73" font-family="Helvetica,sans-Serif" font-size="10.00">_dimension_manipulation.h</text>
</a>
</g>
</g>
<!-- Node10&#45;&gt;Node11 -->
<g id="edge10_Node000010_Node000011" class="edge">
<title>Node10&#45;&gt;Node11</title>
<g id="a_edge10_Node000010_Node000011"><a xlink:title=" ">
<path fill="none" stroke="#63b8ff" d="M1136.3,-144.61C1245.23,-140.53 1557.57,-126.93 1827.12,-96.09"/>
<polygon fill="#63b8ff" stroke="#63b8ff" points="1827.56,-99.56 1837.09,-94.94 1826.76,-92.61 1827.56,-99.56"/>
</a>
</g>
</g>
<!-- Node10&#45;&gt;Node14 -->
<g id="edge12_Node000010_Node000014" class="edge">
<title>Node10&#45;&gt;Node14</title>
<g id="a_edge12_Node000010_Node000014"><a xlink:title=" ">
<path fill="none" stroke="#63b8ff" d="M1056.74,-145.46C955.5,-143.52 680.09,-134.81 454.5,-96 449.8,-95.19 444.9,-94.15 440.07,-93"/>
<polygon fill="#63b8ff" stroke="#63b8ff" points="440.91,-89.6 430.35,-90.52 439.18,-96.38 440.91,-89.6"/>
</a>
</g>
</g>
<!-- Node19 -->
<g id="Node000019" class="node">
<title>Node19</title>
<g id="a_Node000019"><a xlink:title=" ">
<polygon fill="#e0e0e0" stroke="#999999" points="881.5,-24.5 741.5,-24.5 741.5,-5.5 881.5,-5.5 881.5,-24.5"/>
<text text-anchor="middle" x="811.5" y="-12.5" font-family="Helvetica,sans-Serif" font-size="10.00">deal.II/dofs/dof_handler.h</text>
</a>
</g>
</g>
<!-- Node10&#45;&gt;Node19 -->
<g id="edge24_Node000010_Node000019" class="edge">
<title>Node10&#45;&gt;Node19</title>
<g id="a_edge24_Node000010_Node000019"><a xlink:title=" ">
<path fill="none" stroke="#63b8ff" d="M1103.63,-137.48C1116.02,-121.6 1138.55,-87.2 1120.5,-66 1091.7,-32.17 973.64,-21.16 892.08,-17.62"/>
<polygon fill="#63b8ff" stroke="#63b8ff" points="891.96,-14.11 881.83,-17.2 891.68,-21.1 891.96,-14.11"/>
</a>
</g>
</g>
<!-- Node29 -->
<g id="Node000029" class="node">
<title>Node29</title>
<g id="a_Node000029"><a xlink:title=" ">
<polygon fill="#e0e0e0" stroke="#999999" points="691.5,-96 539.5,-96 539.5,-66 691.5,-66 691.5,-96"/>
<text text-anchor="start" x="547.5" y="-84" font-family="Helvetica,sans-Serif" font-size="10.00">deal.II/base/auto_derivative</text>
<text text-anchor="middle" x="615.5" y="-73" font-family="Helvetica,sans-Serif" font-size="10.00">_function.h</text>
</a>
</g>
</g>
<!-- Node10&#45;&gt;Node29 -->
<g id="edge18_Node000010_Node000029" class="edge">
<title>Node10&#45;&gt;Node29</title>
<g id="a_edge18_Node000010_Node000029"><a xlink:title=" ">
<path fill="none" stroke="#63b8ff" d="M1056.91,-141.46C987.44,-133.39 838.8,-115.67 702.15,-96.06"/>
<polygon fill="#63b8ff" stroke="#63b8ff" points="702.31,-92.55 691.91,-94.58 701.31,-99.47 702.31,-92.55"/>
</a>
</g>
</g>
<!-- Node30 -->
<g id="Node000030" class="node">
<title>Node30</title>
<g id="a_Node000030"><a xlink:title=" ">
<polygon fill="#e0e0e0" stroke="#999999" points="835,-90.5 710,-90.5 710,-71.5 835,-71.5 835,-90.5"/>
<text text-anchor="middle" x="772.5" y="-78.5" font-family="Helvetica,sans-Serif" font-size="10.00">deal.II/base/function.h</text>
</a>
</g>
</g>
<!-- Node10&#45;&gt;Node30 -->
<g id="edge19_Node000010_Node000030" class="edge">
<title>Node10&#45;&gt;Node30</title>
<g id="a_edge19_Node000010_Node000030"><a xlink:title=" ">
<path fill="none" stroke="#63b8ff" d="M1056.77,-138.15C998.71,-126.68 890.54,-105.32 825.67,-92.5"/>
<polygon fill="#63b8ff" stroke="#63b8ff" points="826.14,-89.03 815.65,-90.52 824.78,-95.9 826.14,-89.03"/>
</a>
</g>
</g>
<!-- Node31 -->
<g id="Node000031" class="node">
<title>Node31</title>
<g id="a_Node000031"><a xlink:title=" ">
<polygon fill="#e0e0e0" stroke="#999999" points="977.5,-90.5 853.5,-90.5 853.5,-71.5 977.5,-71.5 977.5,-90.5"/>
<text text-anchor="middle" x="915.5" y="-78.5" font-family="Helvetica,sans-Serif" font-size="10.00">deal.II/grid/manifold.h</text>
</a>
</g>
</g>
<!-- Node10&#45;&gt;Node31 -->
<g id="edge20_Node000010_Node000031" class="edge">
<title>Node10&#45;&gt;Node31</title>
<g id="a_edge20_Node000010_Node000031"><a xlink:title=" ">
<path fill="none" stroke="#63b8ff" d="M1072.09,-137.37C1040.42,-126.17 985.03,-106.58 949.32,-93.96"/>
<polygon fill="#63b8ff" stroke="#63b8ff" points="950.41,-90.63 939.81,-90.6 948.07,-97.23 950.41,-90.63"/>
</a>
</g>
</g>
<!-- Node32 -->
<g id="Node000032" class="node">
<title>Node32</title>
<g id="a_Node000032"><a xlink:title=" ">
<polygon fill="#e0e0e0" stroke="#999999" points="1111,-96 996,-96 996,-66 1111,-66 1111,-96"/>
<text text-anchor="start" x="1004" y="-84" font-family="Helvetica,sans-Serif" font-size="10.00">deal.II/grid/manifold</text>
<text text-anchor="middle" x="1053.5" y="-73" font-family="Helvetica,sans-Serif" font-size="10.00">_lib.h</text>
</a>
</g>
</g>
<!-- Node10&#45;&gt;Node32 -->
<g id="edge21_Node000010_Node000032" class="edge">
<title>Node10&#45;&gt;Node32</title>
<g id="a_edge21_Node000010_Node000032"><a xlink:title=" ">
<path fill="none" stroke="#63b8ff" d="M1090.7,-137.37C1085.13,-129.08 1076.47,-116.18 1068.9,-104.92"/>
<polygon fill="#63b8ff" stroke="#63b8ff" points="1071.63,-102.71 1063.15,-96.36 1065.82,-106.61 1071.63,-102.71"/>
</a>
</g>
</g>
<!-- Node33 -->
<g id="Node000033" class="node">
<title>Node33</title>
<g id="a_Node000033"><a xlink:title=" ">
<polygon fill="#e0e0e0" stroke="#999999" points="1283,-96 1168,-96 1168,-66 1283,-66 1283,-96"/>
<text text-anchor="start" x="1176" y="-84" font-family="Helvetica,sans-Serif" font-size="10.00">boost/range/adaptor</text>
<text text-anchor="middle" x="1225.5" y="-73" font-family="Helvetica,sans-Serif" font-size="10.00">/map.hpp</text>
</a>
</g>
</g>
<!-- Node10&#45;&gt;Node33 -->
<g id="edge22_Node000010_Node000033" class="edge">
<title>Node10&#45;&gt;Node33</title>
<g id="a_edge22_Node000010_Node000033"><a xlink:title=" ">
<path fill="none" stroke="#63b8ff" d="M1113.9,-137.37C1132.8,-127.99 1163.58,-112.72 1188.03,-100.59"/>
<polygon fill="#63b8ff" stroke="#63b8ff" points="1189.65,-103.7 1197.05,-96.12 1186.53,-97.42 1189.65,-103.7"/>
</a>
</g>
</g>
<!-- Node34 -->
<g id="Node000034" class="node">
<title>Node34</title>
<g id="a_Node000034"><a xlink:title=" ">
<polygon fill="#e0e0e0" stroke="#999999" points="1417.5,-96 1301.5,-96 1301.5,-66 1417.5,-66 1417.5,-96"/>
<text text-anchor="start" x="1309.5" y="-84" font-family="Helvetica,sans-Serif" font-size="10.00">deal.II/base/function</text>
<text text-anchor="middle" x="1359.5" y="-73" font-family="Helvetica,sans-Serif" font-size="10.00">_signed_distance.h</text>
</a>
</g>
</g>
<!-- Node10&#45;&gt;Node34 -->
<g id="edge23_Node000010_Node000034" class="edge">
<title>Node10&#45;&gt;Node34</title>
<g id="a_edge23_Node000010_Node000034"><a xlink:title=" ">
<path fill="none" stroke="#63b8ff" d="M1131.7,-137.44C1172.51,-127.5 1240.71,-110.91 1291.87,-98.46"/>
<polygon fill="#63b8ff" stroke="#63b8ff" points="1292.98,-101.79 1301.87,-96.02 1291.32,-94.99 1292.98,-101.79"/>
</a>
</g>
</g>
<!-- Node35 -->
<g id="Node000035" class="node">
<title>Node35</title>
<g id="a_Node000035"><a xlink:title=" ">
<polygon fill="#e0e0e0" stroke="#999999" points="1563.5,-90.5 1435.5,-90.5 1435.5,-71.5 1563.5,-71.5 1563.5,-90.5"/>
<text text-anchor="middle" x="1499.5" y="-78.5" font-family="Helvetica,sans-Serif" font-size="10.00">deal.II/dofs/dof_tools.h</text>
</a>
</g>
</g>
<!-- Node10&#45;&gt;Node35 -->
<g id="edge25_Node000010_Node000035" class="edge">
<title>Node10&#45;&gt;Node35</title>
<g id="a_edge25_Node000010_Node000035"><a xlink:title=" ">
<path fill="none" stroke="#63b8ff" d="M1136.2,-140.5C1198.26,-131.78 1321.99,-113.93 1426.5,-96 1432.84,-94.91 1439.49,-93.72 1446.07,-92.5"/>
<polygon fill="#63b8ff" stroke="#63b8ff" points="1447.14,-95.86 1456.32,-90.57 1445.84,-88.98 1447.14,-95.86"/>
</a>
</g>
</g>
<!-- Node36 -->
<g id="Node000036" class="node">
<title>Node36</title>
<g id="a_Node000036"><a xlink:title=" ">
<polygon fill="#e0e0e0" stroke="#999999" points="1757.5,-90.5 1581.5,-90.5 1581.5,-71.5 1757.5,-71.5 1757.5,-90.5"/>
<text text-anchor="middle" x="1669.5" y="-78.5" font-family="Helvetica,sans-Serif" font-size="10.00">deal.II/physics/transformations.h</text>
</a>
</g>
</g>
<!-- Node10&#45;&gt;Node36 -->
<g id="edge26_Node000010_Node000036" class="edge">
<title>Node10&#45;&gt;Node36</title>
<g id="a_edge26_Node000010_Node000036"><a xlink:title=" ">
<path fill="none" stroke="#63b8ff" d="M1136.05,-142.37C1217.72,-134.75 1410.89,-116.14 1572.5,-96 1582.38,-94.77 1592.81,-93.37 1603.02,-91.94"/>
<polygon fill="#63b8ff" stroke="#63b8ff" points="1603.72,-95.38 1613.13,-90.51 1602.74,-88.45 1603.72,-95.38"/>
</a>
</g>
</g>
<!-- Node37 -->
<g id="Node000037" class="node">
<title>Node37</title>
<g id="a_Node000037"><a xlink:title=" ">
<polygon fill="#e0e0e0" stroke="#999999" points="1819.5,-90.5 1775.5,-90.5 1775.5,-71.5 1819.5,-71.5 1819.5,-90.5"/>
<text text-anchor="middle" x="1797.5" y="-78.5" font-family="Helvetica,sans-Serif" font-size="10.00">cfloat</text>
</a>
</g>
</g>
<!-- Node10&#45;&gt;Node37 -->
<g id="edge27_Node000010_Node000037" class="edge">
<title>Node10&#45;&gt;Node37</title>
<g id="a_edge27_Node000010_Node000037"><a xlink:title=" ">
<path fill="none" stroke="#63b8ff" d="M1136.23,-144.85C1261.33,-140.95 1645.98,-126.69 1766.5,-96 1768.23,-95.56 1769.99,-95.03 1771.73,-94.43"/>
<polygon fill="#63b8ff" stroke="#63b8ff" points="1773.5,-97.49 1781.48,-90.52 1770.89,-91 1773.5,-97.49"/>
</a>
</g>
</g>
<!-- Node38 -->
<g id="Node000038" class="node">
<title>Node38</title>
<g id="a_Node000038"><a xlink:title=" ">
<polygon fill="#e0e0e0" stroke="#999999" points="521.5,-90.5 463.5,-90.5 463.5,-71.5 521.5,-71.5 521.5,-90.5"/>
<text text-anchor="middle" x="492.5" y="-78.5" font-family="Helvetica,sans-Serif" font-size="10.00">memory</text>
</a>
</g>
</g>
<!-- Node10&#45;&gt;Node38 -->
<g id="edge28_Node000010_Node000038" class="edge">
<title>Node10&#45;&gt;Node38</title>
<g id="a_edge28_Node000010_Node000038"><a xlink:title=" ">
<path fill="none" stroke="#63b8ff" d="M1056.84,-146.08C963.74,-145.49 724.46,-139.48 530.5,-96 527.83,-95.4 525.09,-94.66 522.36,-93.83"/>
<polygon fill="#63b8ff" stroke="#63b8ff" points="523.3,-90.46 512.71,-90.57 521.06,-97.09 523.3,-90.46"/>
</a>
</g>
</g>
<!-- Node11&#45;&gt;Node12 -->
<g id="edge11_Node000011_Node000012" class="edge">
<title>Node11&#45;&gt;Node12</title>
<g id="a_edge11_Node000011_Node000012"><a xlink:title=" ">
<path fill="none" stroke="#63b8ff" d="M1913.5,-65.8C1913.5,-56.7 1913.5,-44.79 1913.5,-34.9"/>
<polygon fill="#63b8ff" stroke="#63b8ff" points="1917,-34.84 1913.5,-24.84 1910,-34.84 1917,-34.84"/>
</a>
</g>
</g>
<!-- Node14&#45;&gt;Node5 -->
<g id="edge13_Node000014_Node000005" class="edge">
<title>Node14&#45;&gt;Node5</title>
<g id="a_edge13_Node000014_Node000005"><a xlink:title=" ">
<path fill="none" stroke="#63b8ff" d="M371.18,-71.46C364.37,-69.64 357.2,-67.73 350.5,-66 306.24,-54.54 256.37,-42.13 217.37,-32.54"/>
<polygon fill="#63b8ff" stroke="#63b8ff" points="217.74,-29.03 207.19,-30.04 216.07,-35.82 217.74,-29.03"/>
</a>
</g>
</g>
<!-- Node14&#45;&gt;Node8 -->
<g id="edge16_Node000014_Node000008" class="edge">
<title>Node14&#45;&gt;Node8</title>
<g id="a_edge16_Node000014_Node000008"><a xlink:title=" ">
<path fill="none" stroke="#63b8ff" d="M398.45,-71.37C394.01,-61.88 386.73,-46.36 381.01,-34.16"/>
<polygon fill="#63b8ff" stroke="#63b8ff" points="384.09,-32.47 376.67,-24.91 377.75,-35.45 384.09,-32.47"/>
</a>
</g>
</g>
<!-- Node14&#45;&gt;Node9 -->
<g id="edge17_Node000014_Node000009" class="edge">
<title>Node14&#45;&gt;Node9</title>
<g id="a_edge17_Node000014_Node000009"><a xlink:title=" ">
<path fill="none" stroke="#63b8ff" d="M385.78,-71.37C364.88,-60.59 328.91,-42.02 304.43,-29.38"/>
<polygon fill="#63b8ff" stroke="#63b8ff" points="305.85,-26.18 295.35,-24.7 302.64,-32.4 305.85,-26.18"/>
</a>
</g>
</g>
<!-- Node14&#45;&gt;Node12 -->
<g id="edge14_Node000014_Node000012" class="edge">
<title>Node14&#45;&gt;Node12</title>
<g id="a_edge14_Node000014_Node000012"><a xlink:title=" ">
<path fill="none" stroke="#63b8ff" d="M429.51,-71.47C437.48,-69.3 446.27,-67.23 454.5,-66 728.94,-24.91 1601.41,-17.53 1848.01,-16.26"/>
<polygon fill="#63b8ff" stroke="#63b8ff" points="1848.26,-19.76 1858.24,-16.21 1848.23,-12.76 1848.26,-19.76"/>
</a>
</g>
</g>
<!-- Node14&#45;&gt;Node19 -->
<g id="edge15_Node000014_Node000019" class="edge">
<title>Node14&#45;&gt;Node19</title>
<g id="a_edge15_Node000014_Node000019"><a xlink:title=" ">
<path fill="none" stroke="#63b8ff" d="M431.77,-71.44C439.15,-69.47 447.08,-67.51 454.5,-66 548.8,-46.78 658.61,-32.61 731.29,-24.36"/>
<polygon fill="#63b8ff" stroke="#63b8ff" points="731.74,-27.83 741.29,-23.23 730.96,-20.87 731.74,-27.83"/>
</a>
</g>
</g>
</g>
</svg>
