<?xml version="1.0" encoding="UTF-8" standalone="no"?>
<!DOCTYPE svg PUBLIC "-//W3C//DTD SVG 1.1//EN"
 "http://www.w3.org/Graphics/SVG/1.1/DTD/svg11.dtd">
<!-- Generated by graphviz version 2.43.0 (0)
 -->
<!-- Title: /home/runner/work/lethe/lethe/include/dem/output_force_torque_calculation.h Pages: 1 -->
<svg width="2246pt" height="302pt"
 viewBox="0.00 0.00 2246.00 302.00" xmlns="http://www.w3.org/2000/svg" xmlns:xlink="http://www.w3.org/1999/xlink">
<g id="graph0" class="graph" transform="scale(1 1) rotate(0) translate(4 298)">
<title>/home/runner/work/lethe/lethe/include/dem/output_force_torque_calculation.h</title>
<!-- Node1 -->
<g id="Node000001" class="node">
<title>Node1</title>
<g id="a_Node000001"><a xlink:title=" ">
<polygon fill="#999999" stroke="#666666" points="2181.5,-294 2030.5,-294 2030.5,-253 2181.5,-253 2181.5,-294"/>
<text text-anchor="start" x="2038.5" y="-282" font-family="Helvetica,sans-Serif" font-size="10.00">/home/runner/work/lethe</text>
<text text-anchor="start" x="2038.5" y="-271" font-family="Helvetica,sans-Serif" font-size="10.00">/lethe/include/dem/output</text>
<text text-anchor="middle" x="2106" y="-260" font-family="Helvetica,sans-Serif" font-size="10.00">_force_torque_calculation.h</text>
</a>
</g>
</g>
<!-- Node2 -->
<g id="Node000002" class="node">
<title>Node2</title>
<g id="a_Node000002"><a xlink:href="data__containers_8h.html" target="_top" xlink:title=" ">
<polygon fill="white" stroke="#666666" points="508,-217 380,-217 380,-198 508,-198 508,-217"/>
<text text-anchor="middle" x="444" y="-205" font-family="Helvetica,sans-Serif" font-size="10.00">dem/data_containers.h</text>
</a>
</g>
</g>
<!-- Node1&#45;&gt;Node2 -->
<g id="edge1_Node000001_Node000002" class="edge">
<title>Node1&#45;&gt;Node2</title>
<g id="a_edge1_Node000001_Node000002"><a xlink:title=" ">
<path fill="none" stroke="#63b8ff" d="M2030.27,-269.58C1752.83,-258.9 793.9,-221.97 518.5,-211.37"/>
<polygon fill="#63b8ff" stroke="#63b8ff" points="518.34,-207.86 508.22,-210.97 518.08,-214.86 518.34,-207.86"/>
</a>
</g>
</g>
<!-- Node5 -->
<g id="Node000005" class="node">
<title>Node5</title>
<g id="a_Node000005"><a xlink:title=" ">
<polygon fill="#e0e0e0" stroke="#999999" points="1532.5,-30 1431.5,-30 1431.5,0 1532.5,0 1532.5,-30"/>
<text text-anchor="start" x="1439.5" y="-18" font-family="Helvetica,sans-Serif" font-size="10.00">deal.II/base/table</text>
<text text-anchor="middle" x="1482" y="-7" font-family="Helvetica,sans-Serif" font-size="10.00">_handler.h</text>
</a>
</g>
</g>
<!-- Node1&#45;&gt;Node5 -->
<g id="edge38_Node000001_Node000005" class="edge">
<title>Node1&#45;&gt;Node5</title>
<g id="a_edge38_Node000001_Node000005"><a xlink:title=" ">
<path fill="none" stroke="#63b8ff" d="M2111.39,-252.92C2121.39,-211.78 2137.51,-116.04 2087,-66 2048.89,-28.24 1688.68,-18.92 1542.85,-16.68"/>
<polygon fill="#63b8ff" stroke="#63b8ff" points="1542.78,-13.18 1532.73,-16.53 1542.67,-20.18 1542.78,-13.18"/>
</a>
</g>
</g>
<!-- Node28 -->
<g id="Node000028" class="node">
<title>Node28</title>
<g id="a_Node000028"><a xlink:title=" ">
<polygon fill="#e0e0e0" stroke="#999999" points="2238,-217 2134,-217 2134,-198 2238,-198 2238,-217"/>
<text text-anchor="middle" x="2186" y="-205" font-family="Helvetica,sans-Serif" font-size="10.00">deal.II/base/mpi.h</text>
</a>
</g>
</g>
<!-- Node1&#45;&gt;Node28 -->
<g id="edge37_Node000001_Node000028" class="edge">
<title>Node1&#45;&gt;Node28</title>
<g id="a_edge37_Node000001_Node000028"><a xlink:title=" ">
<path fill="none" stroke="#63b8ff" d="M2130.44,-252.95C2142.18,-243.55 2156.05,-232.46 2167,-223.7"/>
<polygon fill="#63b8ff" stroke="#63b8ff" points="2169.43,-226.24 2175.05,-217.26 2165.05,-220.77 2169.43,-226.24"/>
</a>
</g>
</g>
<!-- Node3 -->
<g id="Node000003" class="node">
<title>Node3</title>
<g id="a_Node000003"><a xlink:href="utilities_8h.html" target="_top" xlink:title=" ">
<polygon fill="white" stroke="#666666" points="988,-156.5 902,-156.5 902,-137.5 988,-137.5 988,-156.5"/>
<text text-anchor="middle" x="945" y="-144.5" font-family="Helvetica,sans-Serif" font-size="10.00">core/utilities.h</text>
</a>
</g>
</g>
<!-- Node2&#45;&gt;Node3 -->
<g id="edge2_Node000002_Node000003" class="edge">
<title>Node2&#45;&gt;Node3</title>
<g id="a_edge2_Node000002_Node000003"><a xlink:title=" ">
<path fill="none" stroke="#63b8ff" d="M508.22,-199C608.23,-187.32 799.34,-165.01 892,-154.19"/>
<polygon fill="#63b8ff" stroke="#63b8ff" points="892.47,-157.66 902,-153.02 891.66,-150.7 892.47,-157.66"/>
</a>
</g>
</g>
<!-- Node10 -->
<g id="Node000010" class="node">
<title>Node10</title>
<g id="a_Node000010"><a xlink:title=" ">
<polygon fill="#e0e0e0" stroke="#999999" points="269.5,-90.5 154.5,-90.5 154.5,-71.5 269.5,-71.5 269.5,-90.5"/>
<text text-anchor="middle" x="212" y="-78.5" font-family="Helvetica,sans-Serif" font-size="10.00">deal.II/base/tensor.h</text>
</a>
</g>
</g>
<!-- Node2&#45;&gt;Node10 -->
<g id="edge31_Node000002_Node000010" class="edge">
<title>Node2&#45;&gt;Node10</title>
<g id="a_edge31_Node000002_Node000010"><a xlink:title=" ">
<path fill="none" stroke="#63b8ff" d="M379.87,-203.91C273.19,-198.94 68.76,-186.33 47,-162 13.3,-124.31 84.91,-102.6 144.14,-91.54"/>
<polygon fill="#63b8ff" stroke="#63b8ff" points="145.05,-94.93 154.28,-89.73 143.82,-88.04 145.05,-94.93"/>
</a>
</g>
</g>
<!-- Node13 -->
<g id="Node000013" class="node">
<title>Node13</title>
<g id="a_Node000013"><a xlink:title=" ">
<polygon fill="#e0e0e0" stroke="#999999" points="564.5,-96 433.5,-96 433.5,-66 564.5,-66 564.5,-96"/>
<text text-anchor="start" x="441.5" y="-84" font-family="Helvetica,sans-Serif" font-size="10.00">deal.II/particles/particle</text>
<text text-anchor="middle" x="499" y="-73" font-family="Helvetica,sans-Serif" font-size="10.00">_iterator.h</text>
</a>
</g>
</g>
<!-- Node2&#45;&gt;Node13 -->
<g id="edge33_Node000002_Node000013" class="edge">
<title>Node2&#45;&gt;Node13</title>
<g id="a_edge33_Node000002_Node000013"><a xlink:title=" ">
<path fill="none" stroke="#63b8ff" d="M508.12,-201.71C534.84,-196.16 563.45,-184.83 580,-162 587.83,-151.21 586.5,-143.64 580,-132 572.61,-118.75 560.1,-108.57 547.1,-100.97"/>
<polygon fill="#63b8ff" stroke="#63b8ff" points="548.53,-97.77 538.07,-96.11 545.22,-103.93 548.53,-97.77"/>
</a>
</g>
</g>
<!-- Node22 -->
<g id="Node000022" class="node">
<title>Node22</title>
<g id="a_Node000022"><a xlink:title=" ">
<polygon fill="#e0e0e0" stroke="#999999" points="629.5,-90.5 582.5,-90.5 582.5,-71.5 629.5,-71.5 629.5,-90.5"/>
<text text-anchor="middle" x="606" y="-78.5" font-family="Helvetica,sans-Serif" font-size="10.00">vector</text>
</a>
</g>
</g>
<!-- Node2&#45;&gt;Node22 -->
<g id="edge35_Node000002_Node000022" class="edge">
<title>Node2&#45;&gt;Node22</title>
<g id="a_edge35_Node000002_Node000022"><a xlink:title=" ">
<path fill="none" stroke="#63b8ff" d="M508.24,-203.56C539.3,-198.66 574.43,-187.34 596,-162 610.36,-145.13 610.79,-118.55 609.02,-100.71"/>
<polygon fill="#63b8ff" stroke="#63b8ff" points="612.47,-100.12 607.7,-90.66 605.53,-101.03 612.47,-100.12"/>
</a>
</g>
</g>
<!-- Node23 -->
<g id="Node000023" class="node">
<title>Node23</title>
<g id="a_Node000023"><a xlink:href="boundary__cells__info__struct_8h.html" target="_top" xlink:title=" ">
<polygon fill="white" stroke="#666666" points="170.5,-162 55.5,-162 55.5,-132 170.5,-132 170.5,-162"/>
<text text-anchor="start" x="63.5" y="-150" font-family="Helvetica,sans-Serif" font-size="10.00">dem/boundary_cells</text>
<text text-anchor="middle" x="113" y="-139" font-family="Helvetica,sans-Serif" font-size="10.00">_info_struct.h</text>
</a>
</g>
</g>
<!-- Node2&#45;&gt;Node23 -->
<g id="edge23_Node000002_Node000023" class="edge">
<title>Node2&#45;&gt;Node23</title>
<g id="a_edge23_Node000002_Node000023"><a xlink:title=" ">
<path fill="none" stroke="#63b8ff" d="M389.79,-198C338.54,-189.81 259.23,-176.78 180.77,-162.1"/>
<polygon fill="#63b8ff" stroke="#63b8ff" points="181.19,-158.62 170.72,-160.21 179.9,-165.5 181.19,-158.62"/>
</a>
</g>
</g>
<!-- Node24 -->
<g id="Node000024" class="node">
<title>Node24</title>
<g id="a_Node000024"><a xlink:title=" ">
<polygon fill="#e0e0e0" stroke="#999999" points="102,-96 0,-96 0,-66 102,-66 102,-96"/>
<text text-anchor="start" x="8" y="-84" font-family="Helvetica,sans-Serif" font-size="10.00">deal.II/distributed</text>
<text text-anchor="middle" x="51" y="-73" font-family="Helvetica,sans-Serif" font-size="10.00">/tria.h</text>
</a>
</g>
</g>
<!-- Node2&#45;&gt;Node24 -->
<g id="edge32_Node000002_Node000024" class="edge">
<title>Node2&#45;&gt;Node24</title>
<g id="a_edge32_Node000002_Node000024"><a xlink:title=" ">
<path fill="none" stroke="#63b8ff" d="M379.68,-204.13C270.29,-199.44 57.57,-187.15 35,-162 21.19,-146.61 28.33,-122.76 37.02,-105.1"/>
<polygon fill="#63b8ff" stroke="#63b8ff" points="40.25,-106.49 41.88,-96.02 34.08,-103.19 40.25,-106.49"/>
</a>
</g>
</g>
<!-- Node25 -->
<g id="Node000025" class="node">
<title>Node25</title>
<g id="a_Node000025"><a xlink:href="contact__info_8h.html" target="_top" xlink:title=" ">
<polygon fill="white" stroke="#666666" points="571,-156.5 461,-156.5 461,-137.5 571,-137.5 571,-156.5"/>
<text text-anchor="middle" x="516" y="-144.5" font-family="Helvetica,sans-Serif" font-size="10.00">dem/contact_info.h</text>
</a>
</g>
</g>
<!-- Node2&#45;&gt;Node25 -->
<g id="edge27_Node000002_Node000025" class="edge">
<title>Node2&#45;&gt;Node25</title>
<g id="a_edge27_Node000002_Node000025"><a xlink:title=" ">
<path fill="none" stroke="#63b8ff" d="M454.62,-197.87C465.9,-188.71 483.92,-174.06 497.53,-163.01"/>
<polygon fill="#63b8ff" stroke="#63b8ff" points="499.78,-165.69 505.33,-156.67 495.36,-160.26 499.78,-165.69"/>
</a>
</g>
</g>
<!-- Node26 -->
<g id="Node000026" class="node">
<title>Node26</title>
<g id="a_Node000026"><a xlink:title=" ">
<polygon fill="#e0e0e0" stroke="#999999" points="281.5,-156.5 188.5,-156.5 188.5,-137.5 281.5,-137.5 281.5,-156.5"/>
<text text-anchor="middle" x="235" y="-144.5" font-family="Helvetica,sans-Serif" font-size="10.00">unordered_map</text>
</a>
</g>
</g>
<!-- Node2&#45;&gt;Node26 -->
<g id="edge34_Node000002_Node000026" class="edge">
<title>Node2&#45;&gt;Node26</title>
<g id="a_edge34_Node000002_Node000026"><a xlink:title=" ">
<path fill="none" stroke="#63b8ff" d="M413.61,-197.99C377.08,-187.77 315.66,-170.58 275.23,-159.26"/>
<polygon fill="#63b8ff" stroke="#63b8ff" points="276,-155.84 265.43,-156.52 274.11,-162.58 276,-155.84"/>
</a>
</g>
</g>
<!-- Node27 -->
<g id="Node000027" class="node">
<title>Node27</title>
<g id="a_Node000027"><a xlink:href="unordered__dense_8h.html" target="_top" xlink:title=" ">
<polygon fill="white" stroke="#666666" points="442.5,-156.5 299.5,-156.5 299.5,-137.5 442.5,-137.5 442.5,-156.5"/>
<text text-anchor="middle" x="371" y="-144.5" font-family="Helvetica,sans-Serif" font-size="10.00">ankerl/unordered_dense.h</text>
</a>
</g>
</g>
<!-- Node2&#45;&gt;Node27 -->
<g id="edge36_Node000002_Node000027" class="edge">
<title>Node2&#45;&gt;Node27</title>
<g id="a_edge36_Node000002_Node000027"><a xlink:title=" ">
<path fill="none" stroke="#63b8ff" d="M433.23,-197.87C421.8,-188.71 403.52,-174.06 389.72,-163.01"/>
<polygon fill="#63b8ff" stroke="#63b8ff" points="391.81,-160.19 381.82,-156.67 387.43,-165.65 391.81,-160.19"/>
</a>
</g>
</g>
<!-- Node4 -->
<g id="Node000004" class="node">
<title>Node4</title>
<g id="a_Node000004"><a xlink:href="output__struct_8h.html" target="_top" xlink:title=" ">
<polygon fill="white" stroke="#666666" points="1002,-90.5 888,-90.5 888,-71.5 1002,-71.5 1002,-90.5"/>
<text text-anchor="middle" x="945" y="-78.5" font-family="Helvetica,sans-Serif" font-size="10.00">core/output_struct.h</text>
</a>
</g>
</g>
<!-- Node3&#45;&gt;Node4 -->
<g id="edge3_Node000003_Node000004" class="edge">
<title>Node3&#45;&gt;Node4</title>
<g id="a_edge3_Node000003_Node000004"><a xlink:title=" ">
<path fill="none" stroke="#63b8ff" d="M945,-137.37C945,-128.16 945,-113.29 945,-101.27"/>
<polygon fill="#63b8ff" stroke="#63b8ff" points="948.5,-100.91 945,-90.91 941.5,-100.91 948.5,-100.91"/>
</a>
</g>
</g>
<!-- Node3&#45;&gt;Node5 -->
<g id="edge9_Node000003_Node000005" class="edge">
<title>Node3&#45;&gt;Node5</title>
<g id="a_edge9_Node000003_Node000005"><a xlink:title=" ">
<path fill="none" stroke="#63b8ff" d="M988.22,-144.67C1106.22,-140.65 1427.5,-126.94 1463,-96 1478.67,-82.34 1482.66,-58.34 1483.19,-40.18"/>
<polygon fill="#63b8ff" stroke="#63b8ff" points="1486.69,-40.02 1483.15,-30.03 1479.69,-40.04 1486.69,-40.02"/>
</a>
</g>
</g>
<!-- Node7 -->
<g id="Node000007" class="node">
<title>Node7</title>
<g id="a_Node000007"><a xlink:title=" ">
<polygon fill="#e0e0e0" stroke="#999999" points="1150,-96 1020,-96 1020,-66 1150,-66 1150,-96"/>
<text text-anchor="start" x="1028" y="-84" font-family="Helvetica,sans-Serif" font-size="10.00">deal.II/base/conditional</text>
<text text-anchor="middle" x="1085" y="-73" font-family="Helvetica,sans-Serif" font-size="10.00">_ostream.h</text>
</a>
</g>
</g>
<!-- Node3&#45;&gt;Node7 -->
<g id="edge6_Node000003_Node000007" class="edge">
<title>Node3&#45;&gt;Node7</title>
<g id="a_edge6_Node000003_Node000007"><a xlink:title=" ">
<path fill="none" stroke="#63b8ff" d="M963.88,-137.37C984.49,-127.95 1018.09,-112.59 1044.68,-100.43"/>
<polygon fill="#63b8ff" stroke="#63b8ff" points="1046.48,-103.46 1054.12,-96.12 1043.57,-97.09 1046.48,-103.46"/>
</a>
</g>
</g>
<!-- Node8 -->
<g id="Node000008" class="node">
<title>Node8</title>
<g id="a_Node000008"><a xlink:title=" ">
<polygon fill="#e0e0e0" stroke="#999999" points="1295.5,-96 1168.5,-96 1168.5,-66 1295.5,-66 1295.5,-96"/>
<text text-anchor="start" x="1176.5" y="-84" font-family="Helvetica,sans-Serif" font-size="10.00">deal.II/base/parameter</text>
<text text-anchor="middle" x="1232" y="-73" font-family="Helvetica,sans-Serif" font-size="10.00">_handler.h</text>
</a>
</g>
</g>
<!-- Node3&#45;&gt;Node8 -->
<g id="edge7_Node000003_Node000008" class="edge">
<title>Node3&#45;&gt;Node8</title>
<g id="a_edge7_Node000003_Node000008"><a xlink:title=" ">
<path fill="none" stroke="#63b8ff" d="M983.41,-137.44C1028.22,-127.44 1103.3,-110.7 1159.25,-98.22"/>
<polygon fill="#63b8ff" stroke="#63b8ff" points="1160.11,-101.62 1169.11,-96.02 1158.59,-94.79 1160.11,-101.62"/>
</a>
</g>
</g>
<!-- Node9 -->
<g id="Node000009" class="node">
<title>Node9</title>
<g id="a_Node000009"><a xlink:title=" ">
<polygon fill="#e0e0e0" stroke="#999999" points="415,-90.5 305,-90.5 305,-71.5 415,-71.5 415,-90.5"/>
<text text-anchor="middle" x="360" y="-78.5" font-family="Helvetica,sans-Serif" font-size="10.00">deal.II/base/point.h</text>
</a>
</g>
</g>
<!-- Node3&#45;&gt;Node9 -->
<g id="edge8_Node000003_Node000009" class="edge">
<title>Node3&#45;&gt;Node9</title>
<g id="a_edge8_Node000003_Node000009"><a xlink:title=" ">
<path fill="none" stroke="#63b8ff" d="M901.99,-143.56C812.69,-138.13 600.88,-123.3 425,-96 418.79,-95.04 412.27,-93.85 405.87,-92.58"/>
<polygon fill="#63b8ff" stroke="#63b8ff" points="406.46,-89.12 395.96,-90.53 405.05,-95.98 406.46,-89.12"/>
</a>
</g>
</g>
<!-- Node3&#45;&gt;Node10 -->
<g id="edge10_Node000003_Node000010" class="edge">
<title>Node3&#45;&gt;Node10</title>
<g id="a_edge10_Node000003_Node000010"><a xlink:title=" ">
<path fill="none" stroke="#63b8ff" d="M901.96,-144C797.71,-138.87 523.45,-123.66 296,-96 287.15,-94.92 277.81,-93.58 268.7,-92.15"/>
<polygon fill="#63b8ff" stroke="#63b8ff" points="268.98,-88.65 258.55,-90.51 267.86,-95.56 268.98,-88.65"/>
</a>
</g>
</g>
<!-- Node11 -->
<g id="Node000011" class="node">
<title>Node11</title>
<g id="a_Node000011"><a xlink:title=" ">
<polygon fill="#e0e0e0" stroke="#999999" points="1454,-90.5 1314,-90.5 1314,-71.5 1454,-71.5 1454,-90.5"/>
<text text-anchor="middle" x="1384" y="-78.5" font-family="Helvetica,sans-Serif" font-size="10.00">deal.II/dofs/dof_handler.h</text>
</a>
</g>
</g>
<!-- Node3&#45;&gt;Node11 -->
<g id="edge11_Node000003_Node000011" class="edge">
<title>Node3&#45;&gt;Node11</title>
<g id="a_edge11_Node000003_Node000011"><a xlink:title=" ">
<path fill="none" stroke="#63b8ff" d="M988.02,-140.55C1055.62,-131.88 1190.79,-114.05 1305,-96 1312.37,-94.84 1320.11,-93.55 1327.74,-92.24"/>
<polygon fill="#63b8ff" stroke="#63b8ff" points="1328.43,-95.67 1337.68,-90.51 1327.23,-88.77 1328.43,-95.67"/>
</a>
</g>
</g>
<!-- Node12 -->
<g id="Node000012" class="node">
<title>Node12</title>
<g id="a_Node000012"><a xlink:title=" ">
<polygon fill="#e0e0e0" stroke="#999999" points="1629.5,-90.5 1510.5,-90.5 1510.5,-71.5 1629.5,-71.5 1629.5,-90.5"/>
<text text-anchor="middle" x="1570" y="-78.5" font-family="Helvetica,sans-Serif" font-size="10.00">deal.II/fe/fe_values.h</text>
</a>
</g>
</g>
<!-- Node3&#45;&gt;Node12 -->
<g id="edge12_Node000003_Node000012" class="edge">
<title>Node3&#45;&gt;Node12</title>
<g id="a_edge12_Node000003_Node000012"><a xlink:title=" ">
<path fill="none" stroke="#63b8ff" d="M988.03,-143.51C1081.04,-137.83 1307.64,-122.3 1496,-96 1503.38,-94.97 1511.15,-93.7 1518.76,-92.36"/>
<polygon fill="#63b8ff" stroke="#63b8ff" points="1519.42,-95.79 1528.63,-90.56 1518.16,-88.91 1519.42,-95.79"/>
</a>
</g>
</g>
<!-- Node3&#45;&gt;Node13 -->
<g id="edge13_Node000003_Node000013" class="edge">
<title>Node3&#45;&gt;Node13</title>
<g id="a_edge13_Node000003_Node000013"><a xlink:title=" ">
<path fill="none" stroke="#63b8ff" d="M901.77,-140.89C834.28,-132.77 699.58,-115.91 574.92,-96.1"/>
<polygon fill="#63b8ff" stroke="#63b8ff" points="575.24,-92.6 564.82,-94.48 574.14,-99.52 575.24,-92.6"/>
</a>
</g>
</g>
<!-- Node14 -->
<g id="Node000014" class="node">
<title>Node14</title>
<g id="a_Node000014"><a xlink:title=" ">
<polygon fill="#e0e0e0" stroke="#999999" points="1752.5,-96 1647.5,-96 1647.5,-66 1752.5,-66 1752.5,-96"/>
<text text-anchor="start" x="1655.5" y="-84" font-family="Helvetica,sans-Serif" font-size="10.00">boost/archive/text</text>
<text text-anchor="middle" x="1700" y="-73" font-family="Helvetica,sans-Serif" font-size="10.00">_iarchive.hpp</text>
</a>
</g>
</g>
<!-- Node3&#45;&gt;Node14 -->
<g id="edge14_Node000003_Node000014" class="edge">
<title>Node3&#45;&gt;Node14</title>
<g id="a_edge14_Node000003_Node000014"><a xlink:title=" ">
<path fill="none" stroke="#63b8ff" d="M988.3,-145.19C1096.4,-142.67 1386.9,-132.88 1637.18,-96.13"/>
<polygon fill="#63b8ff" stroke="#63b8ff" points="1637.82,-99.57 1647.19,-94.64 1636.79,-92.65 1637.82,-99.57"/>
</a>
</g>
</g>
<!-- Node15 -->
<g id="Node000015" class="node">
<title>Node15</title>
<g id="a_Node000015"><a xlink:title=" ">
<polygon fill="#e0e0e0" stroke="#999999" points="1875.5,-96 1770.5,-96 1770.5,-66 1875.5,-66 1875.5,-96"/>
<text text-anchor="start" x="1778.5" y="-84" font-family="Helvetica,sans-Serif" font-size="10.00">boost/archive/text</text>
<text text-anchor="middle" x="1823" y="-73" font-family="Helvetica,sans-Serif" font-size="10.00">_oarchive.hpp</text>
</a>
</g>
</g>
<!-- Node3&#45;&gt;Node15 -->
<g id="edge15_Node000003_Node000015" class="edge">
<title>Node3&#45;&gt;Node15</title>
<g id="a_edge15_Node000003_Node000015"><a xlink:title=" ">
<path fill="none" stroke="#63b8ff" d="M988.22,-145.85C1109,-144.9 1460.39,-138.53 1760.01,-96.14"/>
<polygon fill="#63b8ff" stroke="#63b8ff" points="1760.8,-99.56 1770.2,-94.68 1759.8,-92.63 1760.8,-99.56"/>
</a>
</g>
</g>
<!-- Node16 -->
<g id="Node000016" class="node">
<title>Node16</title>
<g id="a_Node000016"><a xlink:title=" ">
<polygon fill="#e0e0e0" stroke="#999999" points="2004,-96 1894,-96 1894,-66 2004,-66 2004,-96"/>
<text text-anchor="start" x="1902" y="-84" font-family="Helvetica,sans-Serif" font-size="10.00">boost/math/special</text>
<text text-anchor="middle" x="1949" y="-73" font-family="Helvetica,sans-Serif" font-size="10.00">_functions/erf.hpp</text>
</a>
</g>
</g>
<!-- Node3&#45;&gt;Node16 -->
<g id="edge16_Node000003_Node000016" class="edge">
<title>Node3&#45;&gt;Node16</title>
<g id="a_edge16_Node000003_Node000016"><a xlink:title=" ">
<path fill="none" stroke="#63b8ff" d="M988.33,-146.19C1121.06,-146.23 1533.7,-142.45 1883.86,-95.99"/>
<polygon fill="#63b8ff" stroke="#63b8ff" points="1884.5,-99.44 1893.94,-94.64 1883.57,-92.5 1884.5,-99.44"/>
</a>
</g>
</g>
<!-- Node17 -->
<g id="Node000017" class="node">
<title>Node17</title>
<g id="a_Node000017"><a xlink:title=" ">
<polygon fill="#e0e0e0" stroke="#999999" points="2077.5,-90.5 2022.5,-90.5 2022.5,-71.5 2077.5,-71.5 2077.5,-90.5"/>
<text text-anchor="middle" x="2050" y="-78.5" font-family="Helvetica,sans-Serif" font-size="10.00">fstream</text>
</a>
</g>
</g>
<!-- Node3&#45;&gt;Node17 -->
<g id="edge17_Node000003_Node000017" class="edge">
<title>Node3&#45;&gt;Node17</title>
<g id="a_edge17_Node000003_Node000017"><a xlink:title=" ">
<path fill="none" stroke="#63b8ff" d="M988.17,-145.78C1162.15,-144.64 1812.15,-137.6 2013,-96 2015.68,-95.44 2018.43,-94.72 2021.15,-93.9"/>
<polygon fill="#63b8ff" stroke="#63b8ff" points="2022.44,-97.16 2030.76,-90.59 2020.16,-90.54 2022.44,-97.16"/>
</a>
</g>
</g>
<!-- Node18 -->
<g id="Node000018" class="node">
<title>Node18</title>
<g id="a_Node000018"><a xlink:title=" ">
<polygon fill="#e0e0e0" stroke="#999999" points="686,-90.5 648,-90.5 648,-71.5 686,-71.5 686,-90.5"/>
<text text-anchor="middle" x="667" y="-78.5" font-family="Helvetica,sans-Serif" font-size="10.00">map</text>
</a>
</g>
</g>
<!-- Node3&#45;&gt;Node18 -->
<g id="edge18_Node000003_Node000018" class="edge">
<title>Node3&#45;&gt;Node18</title>
<g id="a_edge18_Node000003_Node000018"><a xlink:title=" ">
<path fill="none" stroke="#63b8ff" d="M901.62,-140.89C851.02,-134.12 765.34,-120.13 695,-96 693.95,-95.64 692.88,-95.24 691.81,-94.83"/>
<polygon fill="#63b8ff" stroke="#63b8ff" points="692.94,-91.5 682.38,-90.61 690.08,-97.88 692.94,-91.5"/>
</a>
</g>
</g>
<!-- Node19 -->
<g id="Node000019" class="node">
<title>Node19</title>
<g id="a_Node000019"><a xlink:title=" ">
<polygon fill="#e0e0e0" stroke="#999999" points="748,-90.5 704,-90.5 704,-71.5 748,-71.5 748,-90.5"/>
<text text-anchor="middle" x="726" y="-78.5" font-family="Helvetica,sans-Serif" font-size="10.00">regex</text>
</a>
</g>
</g>
<!-- Node3&#45;&gt;Node19 -->
<g id="edge19_Node000003_Node000019" class="edge">
<title>Node3&#45;&gt;Node19</title>
<g id="a_edge19_Node000003_Node000019"><a xlink:title=" ">
<path fill="none" stroke="#63b8ff" d="M905.54,-137.5C867.1,-128.75 807.27,-113.9 757,-96 755.61,-95.5 754.19,-94.97 752.77,-94.42"/>
<polygon fill="#63b8ff" stroke="#63b8ff" points="754.07,-91.17 743.5,-90.51 751.35,-97.62 754.07,-91.17"/>
</a>
</g>
</g>
<!-- Node20 -->
<g id="Node000020" class="node">
<title>Node20</title>
<g id="a_Node000020"><a xlink:title=" ">
<polygon fill="#e0e0e0" stroke="#999999" points="810,-90.5 766,-90.5 766,-71.5 810,-71.5 810,-90.5"/>
<text text-anchor="middle" x="788" y="-78.5" font-family="Helvetica,sans-Serif" font-size="10.00">string</text>
</a>
</g>
</g>
<!-- Node3&#45;&gt;Node20 -->
<g id="edge20_Node000003_Node000020" class="edge">
<title>Node3&#45;&gt;Node20</title>
<g id="a_edge20_Node000003_Node000020"><a xlink:title=" ">
<path fill="none" stroke="#63b8ff" d="M922.78,-137.36C897.72,-127.56 855.79,-110.98 820,-96 818.84,-95.51 817.65,-95.01 816.45,-94.5"/>
<polygon fill="#63b8ff" stroke="#63b8ff" points="817.82,-91.28 807.25,-90.54 815.05,-97.71 817.82,-91.28"/>
</a>
</g>
</g>
<!-- Node21 -->
<g id="Node000021" class="node">
<title>Node21</title>
<g id="a_Node000021"><a xlink:title=" ">
<polygon fill="#e0e0e0" stroke="#999999" points="869.5,-90.5 828.5,-90.5 828.5,-71.5 869.5,-71.5 869.5,-90.5"/>
<text text-anchor="middle" x="849" y="-78.5" font-family="Helvetica,sans-Serif" font-size="10.00">tuple</text>
</a>
</g>
</g>
<!-- Node3&#45;&gt;Node21 -->
<g id="edge21_Node000003_Node000021" class="edge">
<title>Node3&#45;&gt;Node21</title>
<g id="a_edge21_Node000003_Node000021"><a xlink:title=" ">
<path fill="none" stroke="#63b8ff" d="M932.05,-137.37C916.31,-126.87 889.5,-109 870.6,-96.4"/>
<polygon fill="#63b8ff" stroke="#63b8ff" points="872.31,-93.33 862.05,-90.7 868.43,-99.16 872.31,-93.33"/>
</a>
</g>
</g>
<!-- Node3&#45;&gt;Node22 -->
<g id="edge22_Node000003_Node000022" class="edge">
<title>Node3&#45;&gt;Node22</title>
<g id="a_edge22_Node000003_Node000022"><a xlink:title=" ">
<path fill="none" stroke="#63b8ff" d="M901.97,-142.24C842.08,-136.28 730.65,-122.51 639,-96 637.31,-95.51 635.6,-94.96 633.88,-94.37"/>
<polygon fill="#63b8ff" stroke="#63b8ff" points="634.81,-90.97 624.22,-90.65 632.29,-97.51 634.81,-90.97"/>
</a>
</g>
</g>
<!-- Node4&#45;&gt;Node5 -->
<g id="edge4_Node000004_Node000005" class="edge">
<title>Node4&#45;&gt;Node5</title>
<g id="a_edge4_Node000004_Node000005"><a xlink:title=" ">
<path fill="none" stroke="#63b8ff" d="M981.88,-71.48C991.33,-69.48 1001.51,-67.51 1011,-66 1157.43,-42.76 1331.23,-27.45 1421.22,-20.43"/>
<polygon fill="#63b8ff" stroke="#63b8ff" points="1421.54,-23.92 1431.24,-19.66 1421,-16.94 1421.54,-23.92"/>
</a>
</g>
</g>
<!-- Node6 -->
<g id="Node000006" class="node">
<title>Node6</title>
<g id="a_Node000006"><a xlink:title=" ">
<polygon fill="#e0e0e0" stroke="#999999" points="1004.5,-30 885.5,-30 885.5,0 1004.5,0 1004.5,-30"/>
<text text-anchor="start" x="893.5" y="-18" font-family="Helvetica,sans-Serif" font-size="10.00">deal.II/numerics/data</text>
<text text-anchor="middle" x="945" y="-7" font-family="Helvetica,sans-Serif" font-size="10.00">_postprocessor.h</text>
</a>
</g>
</g>
<!-- Node4&#45;&gt;Node6 -->
<g id="edge5_Node000004_Node000006" class="edge">
<title>Node4&#45;&gt;Node6</title>
<g id="a_edge5_Node000004_Node000006"><a xlink:title=" ">
<path fill="none" stroke="#63b8ff" d="M945,-71.37C945,-63.49 945,-51.45 945,-40.6"/>
<polygon fill="#63b8ff" stroke="#63b8ff" points="948.5,-40.36 945,-30.36 941.5,-40.36 948.5,-40.36"/>
</a>
</g>
</g>
<!-- Node23&#45;&gt;Node9 -->
<g id="edge24_Node000023_Node000009" class="edge">
<title>Node23&#45;&gt;Node9</title>
<g id="a_edge24_Node000023_Node000009"><a xlink:title=" ">
<path fill="none" stroke="#63b8ff" d="M167.21,-131.95C212.34,-120.26 275.72,-103.84 317.31,-93.06"/>
<polygon fill="#63b8ff" stroke="#63b8ff" points="318.33,-96.41 327.13,-90.52 316.57,-89.64 318.33,-96.41"/>
</a>
</g>
</g>
<!-- Node23&#45;&gt;Node10 -->
<g id="edge25_Node000023_Node000010" class="edge">
<title>Node23&#45;&gt;Node10</title>
<g id="a_edge25_Node000023_Node000010"><a xlink:title=" ">
<path fill="none" stroke="#63b8ff" d="M134.97,-131.8C151.41,-121.17 173.79,-106.7 190.19,-96.1"/>
<polygon fill="#63b8ff" stroke="#63b8ff" points="192.11,-99.03 198.61,-90.66 188.31,-93.15 192.11,-99.03"/>
</a>
</g>
</g>
<!-- Node23&#45;&gt;Node24 -->
<g id="edge26_Node000023_Node000024" class="edge">
<title>Node23&#45;&gt;Node24</title>
<g id="a_edge26_Node000023_Node000024"><a xlink:title=" ">
<path fill="none" stroke="#63b8ff" d="M99.24,-131.8C91.21,-123.51 80.93,-112.89 71.91,-103.59"/>
<polygon fill="#63b8ff" stroke="#63b8ff" points="74.19,-100.91 64.72,-96.16 69.17,-105.78 74.19,-100.91"/>
</a>
</g>
</g>
<!-- Node25&#45;&gt;Node9 -->
<g id="edge28_Node000025_Node000009" class="edge">
<title>Node25&#45;&gt;Node9</title>
<g id="a_edge28_Node000025_Node000009"><a xlink:title=" ">
<path fill="none" stroke="#63b8ff" d="M494.96,-137.37C468.02,-126.32 421.14,-107.08 390.34,-94.45"/>
<polygon fill="#63b8ff" stroke="#63b8ff" points="391.53,-91.15 380.95,-90.6 388.88,-97.63 391.53,-91.15"/>
</a>
</g>
</g>
<!-- Node25&#45;&gt;Node10 -->
<g id="edge29_Node000025_Node000010" class="edge">
<title>Node25&#45;&gt;Node10</title>
<g id="a_edge29_Node000025_Node000010"><a xlink:title=" ">
<path fill="none" stroke="#63b8ff" d="M477.43,-137.5C469.05,-135.67 460.23,-133.76 452,-132 387.11,-118.14 312.24,-102.62 263.61,-92.6"/>
<polygon fill="#63b8ff" stroke="#63b8ff" points="264.15,-89.14 253.65,-90.55 262.74,-95.99 264.15,-89.14"/>
</a>
</g>
</g>
<!-- Node25&#45;&gt;Node13 -->
<g id="edge30_Node000025_Node000013" class="edge">
<title>Node25&#45;&gt;Node13</title>
<g id="a_edge30_Node000025_Node000013"><a xlink:title=" ">
<path fill="none" stroke="#63b8ff" d="M513.71,-137.37C511.59,-129.4 508.35,-117.2 505.45,-106.27"/>
<polygon fill="#63b8ff" stroke="#63b8ff" points="508.76,-105.13 502.81,-96.36 502,-106.92 508.76,-105.13"/>
</a>
</g>
</g>
</g>
</svg>
