<?xml version="1.0" encoding="UTF-8" standalone="no"?>
<!DOCTYPE svg PUBLIC "-//W3C//DTD SVG 1.1//EN"
 "http://www.w3.org/Graphics/SVG/1.1/DTD/svg11.dtd">
<!-- Generated by graphviz version 2.43.0 (0)
 -->
<!-- Title: /home/runner/work/lethe/lethe/source/dem/output_force_torque_calculation.cc Pages: 1 -->
<svg width="1873pt" height="368pt"
 viewBox="0.00 0.00 1872.70 368.00" xmlns="http://www.w3.org/2000/svg" xmlns:xlink="http://www.w3.org/1999/xlink">
<g id="graph0" class="graph" transform="scale(1 1) rotate(0) translate(4 364)">
<title>/home/runner/work/lethe/lethe/source/dem/output_force_torque_calculation.cc</title>
<!-- Node1 -->
<g id="Node000001" class="node">
<title>Node1</title>
<g id="a_Node000001"><a xlink:title=" ">
<polygon fill="#999999" stroke="#666666" points="700.7,-360 545.7,-360 545.7,-319 700.7,-319 700.7,-360"/>
<text text-anchor="start" x="553.7" y="-348" font-family="Helvetica,sans-Serif" font-size="10.00">/home/runner/work/lethe</text>
<text text-anchor="start" x="553.7" y="-337" font-family="Helvetica,sans-Serif" font-size="10.00">/lethe/source/dem/output</text>
<text text-anchor="middle" x="623.2" y="-326" font-family="Helvetica,sans-Serif" font-size="10.00">_force_torque_calculation.cc</text>
</a>
</g>
</g>
<!-- Node2 -->
<g id="Node000002" class="node">
<title>Node2</title>
<g id="a_Node000002"><a xlink:href="output__force__torque__calculation_8h.html" target="_top" xlink:title=" ">
<polygon fill="white" stroke="#666666" points="424.2,-283 284.2,-283 284.2,-253 424.2,-253 424.2,-283"/>
<text text-anchor="start" x="292.2" y="-271" font-family="Helvetica,sans-Serif" font-size="10.00">dem/output_force_torque</text>
<text text-anchor="middle" x="354.2" y="-260" font-family="Helvetica,sans-Serif" font-size="10.00">_calculation.h</text>
</a>
</g>
</g>
<!-- Node1&#45;&gt;Node2 -->
<g id="edge1_Node000001_Node000002" class="edge">
<title>Node1&#45;&gt;Node2</title>
<g id="a_edge1_Node000001_Node000002"><a xlink:title=" ">
<path fill="none" stroke="#63b8ff" d="M547.56,-318.96C506.9,-308.45 457.31,-295.64 418.53,-285.62"/>
<polygon fill="#63b8ff" stroke="#63b8ff" points="418.96,-282.12 408.41,-283 417.21,-288.89 418.96,-282.12"/>
</a>
</g>
</g>
<!-- Node17 -->
<g id="Node000017" class="node">
<title>Node17</title>
<g id="a_Node000017"><a xlink:title=" ">
<polygon fill="#e0e0e0" stroke="#999999" points="1864.7,-90.5 1809.7,-90.5 1809.7,-71.5 1864.7,-71.5 1864.7,-90.5"/>
<text text-anchor="middle" x="1837.2" y="-78.5" font-family="Helvetica,sans-Serif" font-size="10.00">fstream</text>
</a>
</g>
</g>
<!-- Node1&#45;&gt;Node17 -->
<g id="edge38_Node000001_Node000017" class="edge">
<title>Node1&#45;&gt;Node17</title>
<g id="a_edge38_Node000001_Node000017"><a xlink:title=" ">
<path fill="none" stroke="#63b8ff" d="M700.79,-327.15C890.91,-298.36 1394.17,-216.12 1801.2,-96 1803.13,-95.43 1805.11,-94.8 1807.08,-94.14"/>
<polygon fill="#63b8ff" stroke="#63b8ff" points="1808.64,-97.3 1816.85,-90.6 1806.26,-90.71 1808.64,-97.3"/>
</a>
</g>
</g>
<!-- Node3 -->
<g id="Node000003" class="node">
<title>Node3</title>
<g id="a_Node000003"><a xlink:href="data__containers_8h.html" target="_top" xlink:title=" ">
<polygon fill="white" stroke="#666666" points="485.2,-217 357.2,-217 357.2,-198 485.2,-198 485.2,-217"/>
<text text-anchor="middle" x="421.2" y="-205" font-family="Helvetica,sans-Serif" font-size="10.00">dem/data_containers.h</text>
</a>
</g>
</g>
<!-- Node2&#45;&gt;Node3 -->
<g id="edge2_Node000002_Node000003" class="edge">
<title>Node2&#45;&gt;Node3</title>
<g id="a_edge2_Node000002_Node000003"><a xlink:title=" ">
<path fill="none" stroke="#63b8ff" d="M370.42,-252.84C380.45,-244.09 393.31,-232.85 403.59,-223.88"/>
<polygon fill="#63b8ff" stroke="#63b8ff" points="405.93,-226.48 411.17,-217.27 401.33,-221.21 405.93,-226.48"/>
</a>
</g>
</g>
<!-- Node6 -->
<g id="Node000006" class="node">
<title>Node6</title>
<g id="a_Node000006"><a xlink:title=" ">
<polygon fill="#e0e0e0" stroke="#999999" points="965.7,-30 864.7,-30 864.7,0 965.7,0 965.7,-30"/>
<text text-anchor="start" x="872.7" y="-18" font-family="Helvetica,sans-Serif" font-size="10.00">deal.II/base/table</text>
<text text-anchor="middle" x="915.2" y="-7" font-family="Helvetica,sans-Serif" font-size="10.00">_handler.h</text>
</a>
</g>
</g>
<!-- Node2&#45;&gt;Node6 -->
<g id="edge37_Node000002_Node000006" class="edge">
<title>Node2&#45;&gt;Node6</title>
<g id="a_edge37_Node000002_Node000006"><a xlink:title=" ">
<path fill="none" stroke="#63b8ff" d="M283.84,-252.98C161.63,-225.75 -68.73,-160.04 20.2,-66 48.86,-35.7 657.35,-21.08 854.29,-17.13"/>
<polygon fill="#63b8ff" stroke="#63b8ff" points="854.53,-20.63 864.46,-16.93 854.4,-13.63 854.53,-20.63"/>
</a>
</g>
</g>
<!-- Node27 -->
<g id="Node000027" class="node">
<title>Node27</title>
<g id="a_Node000027"><a xlink:title=" ">
<polygon fill="#e0e0e0" stroke="#999999" points="339.2,-217 235.2,-217 235.2,-198 339.2,-198 339.2,-217"/>
<text text-anchor="middle" x="287.2" y="-205" font-family="Helvetica,sans-Serif" font-size="10.00">deal.II/base/mpi.h</text>
</a>
</g>
</g>
<!-- Node2&#45;&gt;Node27 -->
<g id="edge36_Node000002_Node000027" class="edge">
<title>Node2&#45;&gt;Node27</title>
<g id="a_edge36_Node000002_Node000027"><a xlink:title=" ">
<path fill="none" stroke="#63b8ff" d="M337.99,-252.84C327.96,-244.09 315.1,-232.85 304.82,-223.88"/>
<polygon fill="#63b8ff" stroke="#63b8ff" points="307.08,-221.21 297.24,-217.27 302.48,-226.48 307.08,-221.21"/>
</a>
</g>
</g>
<!-- Node4 -->
<g id="Node000004" class="node">
<title>Node4</title>
<g id="a_Node000004"><a xlink:href="core_2utilities_8h.html" target="_top" xlink:title=" ">
<polygon fill="white" stroke="#666666" points="931.2,-156.5 845.2,-156.5 845.2,-137.5 931.2,-137.5 931.2,-156.5"/>
<text text-anchor="middle" x="888.2" y="-144.5" font-family="Helvetica,sans-Serif" font-size="10.00">core/utilities.h</text>
</a>
</g>
</g>
<!-- Node3&#45;&gt;Node4 -->
<g id="edge3_Node000003_Node000004" class="edge">
<title>Node3&#45;&gt;Node4</title>
<g id="a_edge3_Node000003_Node000004"><a xlink:title=" ">
<path fill="none" stroke="#63b8ff" d="M485.65,-198.43C578.58,-186.79 748.51,-165.5 834.83,-154.69"/>
<polygon fill="#63b8ff" stroke="#63b8ff" points="835.45,-158.14 844.93,-153.42 834.58,-151.19 835.45,-158.14"/>
</a>
</g>
</g>
<!-- Node11 -->
<g id="Node000011" class="node">
<title>Node11</title>
<g id="a_Node000011"><a xlink:title=" ">
<polygon fill="#e0e0e0" stroke="#999999" points="264.7,-90.5 149.7,-90.5 149.7,-71.5 264.7,-71.5 264.7,-90.5"/>
<text text-anchor="middle" x="207.2" y="-78.5" font-family="Helvetica,sans-Serif" font-size="10.00">deal.II/base/tensor.h</text>
</a>
</g>
</g>
<!-- Node3&#45;&gt;Node11 -->
<g id="edge30_Node000003_Node000011" class="edge">
<title>Node3&#45;&gt;Node11</title>
<g id="a_edge30_Node000003_Node000011"><a xlink:title=" ">
<path fill="none" stroke="#63b8ff" d="M367.32,-197.98C338,-191.5 302.13,-180.44 274.2,-162 249.72,-145.82 229.39,-118.08 217.77,-99.89"/>
<polygon fill="#63b8ff" stroke="#63b8ff" points="220.45,-97.59 212.23,-90.91 214.49,-101.26 220.45,-97.59"/>
</a>
</g>
</g>
<!-- Node14 -->
<g id="Node000014" class="node">
<title>Node14</title>
<g id="a_Node000014"><a xlink:title=" ">
<polygon fill="#e0e0e0" stroke="#999999" points="542.7,-96 411.7,-96 411.7,-66 542.7,-66 542.7,-96"/>
<text text-anchor="start" x="419.7" y="-84" font-family="Helvetica,sans-Serif" font-size="10.00">deal.II/particles/particle</text>
<text text-anchor="middle" x="477.2" y="-73" font-family="Helvetica,sans-Serif" font-size="10.00">_iterator.h</text>
</a>
</g>
</g>
<!-- Node3&#45;&gt;Node14 -->
<g id="edge32_Node000003_Node000014" class="edge">
<title>Node3&#45;&gt;Node14</title>
<g id="a_edge32_Node000003_Node000014"><a xlink:title=" ">
<path fill="none" stroke="#63b8ff" d="M422.48,-197.88C424.81,-183.63 430.52,-154.5 441.2,-132 445.77,-122.39 452.22,-112.7 458.4,-104.44"/>
<polygon fill="#63b8ff" stroke="#63b8ff" points="461.27,-106.46 464.66,-96.42 455.75,-102.15 461.27,-106.46"/>
</a>
</g>
</g>
<!-- Node21 -->
<g id="Node000021" class="node">
<title>Node21</title>
<g id="a_Node000021"><a xlink:title=" ">
<polygon fill="#e0e0e0" stroke="#999999" points="607.7,-90.5 560.7,-90.5 560.7,-71.5 607.7,-71.5 607.7,-90.5"/>
<text text-anchor="middle" x="584.2" y="-78.5" font-family="Helvetica,sans-Serif" font-size="10.00">vector</text>
</a>
</g>
</g>
<!-- Node3&#45;&gt;Node21 -->
<g id="edge34_Node000003_Node000021" class="edge">
<title>Node3&#45;&gt;Node21</title>
<g id="a_edge34_Node000003_Node000021"><a xlink:title=" ">
<path fill="none" stroke="#63b8ff" d="M485.27,-206.08C562.18,-204.06 684.42,-195.5 713.2,-162 721.89,-151.89 720.8,-142.96 713.2,-132 687.25,-94.55 659.52,-112.9 617.2,-96 616,-95.52 614.78,-95.02 613.54,-94.52"/>
<polygon fill="#63b8ff" stroke="#63b8ff" points="614.62,-91.18 604.04,-90.58 611.93,-97.64 614.62,-91.18"/>
</a>
</g>
</g>
<!-- Node22 -->
<g id="Node000022" class="node">
<title>Node22</title>
<g id="a_Node000022"><a xlink:href="boundary__cells__info__struct_8h.html" target="_top" xlink:title=" ">
<polygon fill="white" stroke="#666666" points="226.7,-162 111.7,-162 111.7,-132 226.7,-132 226.7,-162"/>
<text text-anchor="start" x="119.7" y="-150" font-family="Helvetica,sans-Serif" font-size="10.00">dem/boundary_cells</text>
<text text-anchor="middle" x="169.2" y="-139" font-family="Helvetica,sans-Serif" font-size="10.00">_info_struct.h</text>
</a>
</g>
</g>
<!-- Node3&#45;&gt;Node22 -->
<g id="edge22_Node000003_Node000022" class="edge">
<title>Node3&#45;&gt;Node22</title>
<g id="a_edge22_Node000003_Node000022"><a xlink:title=" ">
<path fill="none" stroke="#63b8ff" d="M384.56,-197.99C345.95,-189.03 284.26,-174.71 236.79,-163.69"/>
<polygon fill="#63b8ff" stroke="#63b8ff" points="237.42,-160.24 226.89,-161.39 235.84,-167.06 237.42,-160.24"/>
</a>
</g>
</g>
<!-- Node23 -->
<g id="Node000023" class="node">
<title>Node23</title>
<g id="a_Node000023"><a xlink:title=" ">
<polygon fill="#e0e0e0" stroke="#999999" points="131.2,-96 29.2,-96 29.2,-66 131.2,-66 131.2,-96"/>
<text text-anchor="start" x="37.2" y="-84" font-family="Helvetica,sans-Serif" font-size="10.00">deal.II/distributed</text>
<text text-anchor="middle" x="80.2" y="-73" font-family="Helvetica,sans-Serif" font-size="10.00">/tria.h</text>
</a>
</g>
</g>
<!-- Node3&#45;&gt;Node23 -->
<g id="edge31_Node000003_Node000023" class="edge">
<title>Node3&#45;&gt;Node23</title>
<g id="a_edge31_Node000003_Node000023"><a xlink:title=" ">
<path fill="none" stroke="#63b8ff" d="M356.92,-198.39C265.4,-186.72 107.97,-166.14 103.2,-162 87.41,-148.28 82.12,-124.5 80.51,-106.41"/>
<polygon fill="#63b8ff" stroke="#63b8ff" points="84,-106.07 79.93,-96.29 77.01,-106.48 84,-106.07"/>
</a>
</g>
</g>
<!-- Node24 -->
<g id="Node000024" class="node">
<title>Node24</title>
<g id="a_Node000024"><a xlink:href="contact__info_8h.html" target="_top" xlink:title=" ">
<polygon fill="white" stroke="#666666" points="393.2,-156.5 283.2,-156.5 283.2,-137.5 393.2,-137.5 393.2,-156.5"/>
<text text-anchor="middle" x="338.2" y="-144.5" font-family="Helvetica,sans-Serif" font-size="10.00">dem/contact_info.h</text>
</a>
</g>
</g>
<!-- Node3&#45;&gt;Node24 -->
<g id="edge26_Node000003_Node000024" class="edge">
<title>Node3&#45;&gt;Node24</title>
<g id="a_edge26_Node000003_Node000024"><a xlink:title=" ">
<path fill="none" stroke="#63b8ff" d="M408.96,-197.87C395.84,-188.62 374.79,-173.78 359.05,-162.69"/>
<polygon fill="#63b8ff" stroke="#63b8ff" points="360.69,-159.57 350.5,-156.67 356.66,-165.29 360.69,-159.57"/>
</a>
</g>
</g>
<!-- Node25 -->
<g id="Node000025" class="node">
<title>Node25</title>
<g id="a_Node000025"><a xlink:title=" ">
<polygon fill="#e0e0e0" stroke="#999999" points="542.7,-156.5 449.7,-156.5 449.7,-137.5 542.7,-137.5 542.7,-156.5"/>
<text text-anchor="middle" x="496.2" y="-144.5" font-family="Helvetica,sans-Serif" font-size="10.00">unordered_map</text>
</a>
</g>
</g>
<!-- Node3&#45;&gt;Node25 -->
<g id="edge33_Node000003_Node000025" class="edge">
<title>Node3&#45;&gt;Node25</title>
<g id="a_edge33_Node000003_Node000025"><a xlink:title=" ">
<path fill="none" stroke="#63b8ff" d="M432.27,-197.87C444.01,-188.71 462.79,-174.06 476.97,-163.01"/>
<polygon fill="#63b8ff" stroke="#63b8ff" points="479.36,-165.58 485.09,-156.67 475.06,-160.06 479.36,-165.58"/>
</a>
</g>
</g>
<!-- Node26 -->
<g id="Node000026" class="node">
<title>Node26</title>
<g id="a_Node000026"><a xlink:href="unordered__dense_8h.html" target="_top" xlink:title=" ">
<polygon fill="white" stroke="#666666" points="703.7,-156.5 560.7,-156.5 560.7,-137.5 703.7,-137.5 703.7,-156.5"/>
<text text-anchor="middle" x="632.2" y="-144.5" font-family="Helvetica,sans-Serif" font-size="10.00">ankerl/unordered_dense.h</text>
</a>
</g>
</g>
<!-- Node3&#45;&gt;Node26 -->
<g id="edge35_Node000003_Node000026" class="edge">
<title>Node3&#45;&gt;Node26</title>
<g id="a_edge35_Node000003_Node000026"><a xlink:title=" ">
<path fill="none" stroke="#63b8ff" d="M451.89,-197.99C488.76,-187.77 550.77,-170.58 591.59,-159.26"/>
<polygon fill="#63b8ff" stroke="#63b8ff" points="592.79,-162.56 601.49,-156.52 590.91,-155.82 592.79,-162.56"/>
</a>
</g>
</g>
<!-- Node5 -->
<g id="Node000005" class="node">
<title>Node5</title>
<g id="a_Node000005"><a xlink:href="output__struct_8h.html" target="_top" xlink:title=" ">
<polygon fill="white" stroke="#666666" points="1079.2,-90.5 965.2,-90.5 965.2,-71.5 1079.2,-71.5 1079.2,-90.5"/>
<text text-anchor="middle" x="1022.2" y="-78.5" font-family="Helvetica,sans-Serif" font-size="10.00">core/output_struct.h</text>
</a>
</g>
</g>
<!-- Node4&#45;&gt;Node5 -->
<g id="edge4_Node000004_Node000005" class="edge">
<title>Node4&#45;&gt;Node5</title>
<g id="a_edge4_Node000004_Node000005"><a xlink:title=" ">
<path fill="none" stroke="#63b8ff" d="M906.28,-137.37C929.05,-126.49 968.42,-107.69 994.88,-95.05"/>
<polygon fill="#63b8ff" stroke="#63b8ff" points="996.48,-98.17 1003.99,-90.7 993.46,-91.85 996.48,-98.17"/>
</a>
</g>
</g>
<!-- Node4&#45;&gt;Node6 -->
<g id="edge10_Node000004_Node000006" class="edge">
<title>Node4&#45;&gt;Node6</title>
<g id="a_edge10_Node000004_Node000006"><a xlink:title=" ">
<path fill="none" stroke="#63b8ff" d="M895.33,-137.47C902.71,-128.02 913.77,-112 918.2,-96 923.24,-77.83 922.09,-56.44 919.91,-40.36"/>
<polygon fill="#63b8ff" stroke="#63b8ff" points="923.31,-39.5 918.29,-30.17 916.4,-40.6 923.31,-39.5"/>
</a>
</g>
</g>
<!-- Node8 -->
<g id="Node000008" class="node">
<title>Node8</title>
<g id="a_Node000008"><a xlink:title=" ">
<polygon fill="#e0e0e0" stroke="#999999" points="1227.2,-96 1097.2,-96 1097.2,-66 1227.2,-66 1227.2,-96"/>
<text text-anchor="start" x="1105.2" y="-84" font-family="Helvetica,sans-Serif" font-size="10.00">deal.II/base/conditional</text>
<text text-anchor="middle" x="1162.2" y="-73" font-family="Helvetica,sans-Serif" font-size="10.00">_ostream.h</text>
</a>
</g>
</g>
<!-- Node4&#45;&gt;Node8 -->
<g id="edge7_Node000004_Node000008" class="edge">
<title>Node4&#45;&gt;Node8</title>
<g id="a_edge7_Node000004_Node000008"><a xlink:title=" ">
<path fill="none" stroke="#63b8ff" d="M924.87,-137.44C967.57,-127.46 1039.04,-110.77 1092.42,-98.3"/>
<polygon fill="#63b8ff" stroke="#63b8ff" points="1093.22,-101.71 1102.16,-96.02 1091.63,-94.89 1093.22,-101.71"/>
</a>
</g>
</g>
<!-- Node9 -->
<g id="Node000009" class="node">
<title>Node9</title>
<g id="a_Node000009"><a xlink:title=" ">
<polygon fill="#e0e0e0" stroke="#999999" points="1372.7,-96 1245.7,-96 1245.7,-66 1372.7,-66 1372.7,-96"/>
<text text-anchor="start" x="1253.7" y="-84" font-family="Helvetica,sans-Serif" font-size="10.00">deal.II/base/parameter</text>
<text text-anchor="middle" x="1309.2" y="-73" font-family="Helvetica,sans-Serif" font-size="10.00">_handler.h</text>
</a>
</g>
</g>
<!-- Node4&#45;&gt;Node9 -->
<g id="edge8_Node000004_Node000009" class="edge">
<title>Node4&#45;&gt;Node9</title>
<g id="a_edge8_Node000004_Node000009"><a xlink:title=" ">
<path fill="none" stroke="#63b8ff" d="M931.44,-140.45C995.47,-132.09 1119.51,-115.32 1235.42,-96.08"/>
<polygon fill="#63b8ff" stroke="#63b8ff" points="1236.25,-99.49 1245.54,-94.39 1235.1,-92.59 1236.25,-99.49"/>
</a>
</g>
</g>
<!-- Node10 -->
<g id="Node000010" class="node">
<title>Node10</title>
<g id="a_Node000010"><a xlink:title=" ">
<polygon fill="#e0e0e0" stroke="#999999" points="393.2,-90.5 283.2,-90.5 283.2,-71.5 393.2,-71.5 393.2,-90.5"/>
<text text-anchor="middle" x="338.2" y="-78.5" font-family="Helvetica,sans-Serif" font-size="10.00">deal.II/base/point.h</text>
</a>
</g>
</g>
<!-- Node4&#45;&gt;Node10 -->
<g id="edge9_Node000004_Node000010" class="edge">
<title>Node4&#45;&gt;Node10</title>
<g id="a_edge9_Node000004_Node000010"><a xlink:title=" ">
<path fill="none" stroke="#63b8ff" d="M844.98,-142.16C742.68,-132.96 487.96,-109.45 403.2,-96 397.07,-95.03 390.64,-93.84 384.32,-92.58"/>
<polygon fill="#63b8ff" stroke="#63b8ff" points="385.02,-89.15 374.51,-90.55 383.6,-96.01 385.02,-89.15"/>
</a>
</g>
</g>
<!-- Node4&#45;&gt;Node11 -->
<g id="edge11_Node000004_Node000011" class="edge">
<title>Node4&#45;&gt;Node11</title>
<g id="a_edge11_Node000004_Node000011"><a xlink:title=" ">
<path fill="none" stroke="#63b8ff" d="M845.11,-142.53C706.58,-131.36 281.29,-97.02 274.2,-96 267.57,-95.04 260.6,-93.82 253.77,-92.51"/>
<polygon fill="#63b8ff" stroke="#63b8ff" points="254.41,-89.07 243.92,-90.53 253.04,-95.93 254.41,-89.07"/>
</a>
</g>
</g>
<!-- Node12 -->
<g id="Node000012" class="node">
<title>Node12</title>
<g id="a_Node000012"><a xlink:title=" ">
<polygon fill="#e0e0e0" stroke="#999999" points="1531.2,-90.5 1391.2,-90.5 1391.2,-71.5 1531.2,-71.5 1531.2,-90.5"/>
<text text-anchor="middle" x="1461.2" y="-78.5" font-family="Helvetica,sans-Serif" font-size="10.00">deal.II/dofs/dof_handler.h</text>
</a>
</g>
</g>
<!-- Node4&#45;&gt;Node12 -->
<g id="edge12_Node000004_Node000012" class="edge">
<title>Node4&#45;&gt;Node12</title>
<g id="a_edge12_Node000004_Node000012"><a xlink:title=" ">
<path fill="none" stroke="#63b8ff" d="M931.28,-142.73C1017.26,-135.95 1216.14,-119.09 1382.2,-96 1390.15,-94.9 1398.52,-93.58 1406.72,-92.2"/>
<polygon fill="#63b8ff" stroke="#63b8ff" points="1407.33,-95.65 1416.59,-90.5 1406.14,-88.75 1407.33,-95.65"/>
</a>
</g>
</g>
<!-- Node13 -->
<g id="Node000013" class="node">
<title>Node13</title>
<g id="a_Node000013"><a xlink:title=" ">
<polygon fill="#e0e0e0" stroke="#999999" points="1668.7,-90.5 1549.7,-90.5 1549.7,-71.5 1668.7,-71.5 1668.7,-90.5"/>
<text text-anchor="middle" x="1609.2" y="-78.5" font-family="Helvetica,sans-Serif" font-size="10.00">deal.II/fe/fe_values.h</text>
</a>
</g>
</g>
<!-- Node4&#45;&gt;Node13 -->
<g id="edge13_Node000004_Node000013" class="edge">
<title>Node4&#45;&gt;Node13</title>
<g id="a_edge13_Node000004_Node000013"><a xlink:title=" ">
<path fill="none" stroke="#63b8ff" d="M931.51,-144.53C1036.4,-140.57 1312.23,-127.75 1540.2,-96 1547.04,-95.05 1554.21,-93.84 1561.24,-92.52"/>
<polygon fill="#63b8ff" stroke="#63b8ff" points="1562.24,-95.9 1571.39,-90.55 1560.9,-89.02 1562.24,-95.9"/>
</a>
</g>
</g>
<!-- Node4&#45;&gt;Node14 -->
<g id="edge14_Node000004_Node000014" class="edge">
<title>Node4&#45;&gt;Node14</title>
<g id="a_edge14_Node000004_Node000014"><a xlink:title=" ">
<path fill="none" stroke="#63b8ff" d="M845.16,-140.11C783.04,-131.5 664.4,-114.63 553.09,-96.11"/>
<polygon fill="#63b8ff" stroke="#63b8ff" points="553.47,-92.63 543.03,-94.43 552.32,-99.53 553.47,-92.63"/>
</a>
</g>
</g>
<!-- Node15 -->
<g id="Node000015" class="node">
<title>Node15</title>
<g id="a_Node000015"><a xlink:title=" ">
<polygon fill="#e0e0e0" stroke="#999999" points="1791.7,-96 1686.7,-96 1686.7,-66 1791.7,-66 1791.7,-96"/>
<text text-anchor="start" x="1694.7" y="-84" font-family="Helvetica,sans-Serif" font-size="10.00">boost/archive/text</text>
<text text-anchor="middle" x="1739.2" y="-73" font-family="Helvetica,sans-Serif" font-size="10.00">_iarchive.hpp</text>
</a>
</g>
</g>
<!-- Node4&#45;&gt;Node15 -->
<g id="edge15_Node000004_Node000015" class="edge">
<title>Node4&#45;&gt;Node15</title>
<g id="a_edge15_Node000004_Node000015"><a xlink:title=" ">
<path fill="none" stroke="#63b8ff" d="M931.28,-145.72C1049.21,-144.45 1387.28,-137.3 1676.15,-96.15"/>
<polygon fill="#63b8ff" stroke="#63b8ff" points="1677,-99.56 1686.4,-94.67 1676.01,-92.63 1677,-99.56"/>
</a>
</g>
</g>
<!-- Node16 -->
<g id="Node000016" class="node">
<title>Node16</title>
<g id="a_Node000016"><a xlink:title=" ">
<polygon fill="#e0e0e0" stroke="#999999" points="730.7,-96 625.7,-96 625.7,-66 730.7,-66 730.7,-96"/>
<text text-anchor="start" x="633.7" y="-84" font-family="Helvetica,sans-Serif" font-size="10.00">boost/archive/text</text>
<text text-anchor="middle" x="678.2" y="-73" font-family="Helvetica,sans-Serif" font-size="10.00">_oarchive.hpp</text>
</a>
</g>
</g>
<!-- Node4&#45;&gt;Node16 -->
<g id="edge16_Node000004_Node000016" class="edge">
<title>Node4&#45;&gt;Node16</title>
<g id="a_edge16_Node000004_Node000016"><a xlink:title=" ">
<path fill="none" stroke="#63b8ff" d="M859.88,-137.37C827.82,-127.6 774.78,-111.43 734.27,-99.09"/>
<polygon fill="#63b8ff" stroke="#63b8ff" points="735.11,-95.68 724.52,-96.12 733.07,-102.38 735.11,-95.68"/>
</a>
</g>
</g>
<!-- Node4&#45;&gt;Node17 -->
<g id="edge17_Node000004_Node000017" class="edge">
<title>Node4&#45;&gt;Node17</title>
<g id="a_edge17_Node000004_Node000017"><a xlink:title=" ">
<path fill="none" stroke="#63b8ff" d="M931.36,-144.44C1100.84,-138.19 1715.72,-114.47 1801.2,-96 1803.73,-95.45 1806.31,-94.76 1808.87,-93.96"/>
<polygon fill="#63b8ff" stroke="#63b8ff" points="1810.23,-97.19 1818.49,-90.56 1807.9,-90.59 1810.23,-97.19"/>
</a>
</g>
</g>
<!-- Node18 -->
<g id="Node000018" class="node">
<title>Node18</title>
<g id="a_Node000018"><a xlink:title=" ">
<polygon fill="#e0e0e0" stroke="#999999" points="787.2,-90.5 749.2,-90.5 749.2,-71.5 787.2,-71.5 787.2,-90.5"/>
<text text-anchor="middle" x="768.2" y="-78.5" font-family="Helvetica,sans-Serif" font-size="10.00">map</text>
</a>
</g>
</g>
<!-- Node4&#45;&gt;Node18 -->
<g id="edge18_Node000004_Node000018" class="edge">
<title>Node4&#45;&gt;Node18</title>
<g id="a_edge18_Node000004_Node000018"><a xlink:title=" ">
<path fill="none" stroke="#63b8ff" d="M872.02,-137.37C851.89,-126.63 817.29,-108.18 793.61,-95.55"/>
<polygon fill="#63b8ff" stroke="#63b8ff" points="794.99,-92.32 784.52,-90.7 791.69,-98.49 794.99,-92.32"/>
</a>
</g>
</g>
<!-- Node19 -->
<g id="Node000019" class="node">
<title>Node19</title>
<g id="a_Node000019"><a xlink:title=" ">
<polygon fill="#e0e0e0" stroke="#999999" points="849.2,-90.5 805.2,-90.5 805.2,-71.5 849.2,-71.5 849.2,-90.5"/>
<text text-anchor="middle" x="827.2" y="-78.5" font-family="Helvetica,sans-Serif" font-size="10.00">string</text>
</a>
</g>
</g>
<!-- Node4&#45;&gt;Node19 -->
<g id="edge19_Node000004_Node000019" class="edge">
<title>Node4&#45;&gt;Node19</title>
<g id="a_edge19_Node000004_Node000019"><a xlink:title=" ">
<path fill="none" stroke="#63b8ff" d="M879.98,-137.37C870.48,-127.4 854.65,-110.79 842.8,-98.36"/>
<polygon fill="#63b8ff" stroke="#63b8ff" points="845.13,-95.73 835.69,-90.91 840.06,-100.56 845.13,-95.73"/>
</a>
</g>
</g>
<!-- Node20 -->
<g id="Node000020" class="node">
<title>Node20</title>
<g id="a_Node000020"><a xlink:title=" ">
<polygon fill="#e0e0e0" stroke="#999999" points="908.7,-90.5 867.7,-90.5 867.7,-71.5 908.7,-71.5 908.7,-90.5"/>
<text text-anchor="middle" x="888.2" y="-78.5" font-family="Helvetica,sans-Serif" font-size="10.00">tuple</text>
</a>
</g>
</g>
<!-- Node4&#45;&gt;Node20 -->
<g id="edge20_Node000004_Node000020" class="edge">
<title>Node4&#45;&gt;Node20</title>
<g id="a_edge20_Node000004_Node000020"><a xlink:title=" ">
<path fill="none" stroke="#63b8ff" d="M888.2,-137.37C888.2,-128.16 888.2,-113.29 888.2,-101.27"/>
<polygon fill="#63b8ff" stroke="#63b8ff" points="891.7,-100.91 888.2,-90.91 884.7,-100.91 891.7,-100.91"/>
</a>
</g>
</g>
<!-- Node4&#45;&gt;Node21 -->
<g id="edge21_Node000004_Node000021" class="edge">
<title>Node4&#45;&gt;Node21</title>
<g id="a_edge21_Node000004_Node000021"><a xlink:title=" ">
<path fill="none" stroke="#63b8ff" d="M844.8,-140.97C790.7,-134.02 695.79,-119.61 617.2,-96 615.52,-95.5 613.81,-94.93 612.1,-94.33"/>
<polygon fill="#63b8ff" stroke="#63b8ff" points="613.03,-90.94 602.44,-90.58 610.5,-97.46 613.03,-90.94"/>
</a>
</g>
</g>
<!-- Node5&#45;&gt;Node6 -->
<g id="edge5_Node000005_Node000006" class="edge">
<title>Node5&#45;&gt;Node6</title>
<g id="a_edge5_Node000005_Node000006"><a xlink:title=" ">
<path fill="none" stroke="#63b8ff" d="M1007.77,-71.37C992.44,-62.2 967.69,-47.39 947.64,-35.4"/>
<polygon fill="#63b8ff" stroke="#63b8ff" points="949.18,-32.25 938.8,-30.12 945.59,-38.25 949.18,-32.25"/>
</a>
</g>
</g>
<!-- Node7 -->
<g id="Node000007" class="node">
<title>Node7</title>
<g id="a_Node000007"><a xlink:title=" ">
<polygon fill="#e0e0e0" stroke="#999999" points="1102.7,-30 983.7,-30 983.7,0 1102.7,0 1102.7,-30"/>
<text text-anchor="start" x="991.7" y="-18" font-family="Helvetica,sans-Serif" font-size="10.00">deal.II/numerics/data</text>
<text text-anchor="middle" x="1043.2" y="-7" font-family="Helvetica,sans-Serif" font-size="10.00">_postprocessor.h</text>
</a>
</g>
</g>
<!-- Node5&#45;&gt;Node7 -->
<g id="edge6_Node000005_Node000007" class="edge">
<title>Node5&#45;&gt;Node7</title>
<g id="a_edge6_Node000005_Node000007"><a xlink:title=" ">
<path fill="none" stroke="#63b8ff" d="M1025.04,-71.37C1027.68,-63.32 1031.74,-50.94 1035.35,-39.93"/>
<polygon fill="#63b8ff" stroke="#63b8ff" points="1038.7,-40.95 1038.49,-30.36 1032.05,-38.77 1038.7,-40.95"/>
</a>
</g>
</g>
<!-- Node22&#45;&gt;Node10 -->
<g id="edge23_Node000022_Node000010" class="edge">
<title>Node22&#45;&gt;Node10</title>
<g id="a_edge23_Node000022_Node000010"><a xlink:title=" ">
<path fill="none" stroke="#63b8ff" d="M206.29,-131.95C236.19,-120.63 277.8,-104.88 306.24,-94.1"/>
<polygon fill="#63b8ff" stroke="#63b8ff" points="307.6,-97.33 315.71,-90.52 305.12,-90.79 307.6,-97.33"/>
</a>
</g>
</g>
<!-- Node22&#45;&gt;Node11 -->
<g id="edge24_Node000022_Node000011" class="edge">
<title>Node22&#45;&gt;Node11</title>
<g id="a_edge24_Node000022_Node000011"><a xlink:title=" ">
<path fill="none" stroke="#63b8ff" d="M177.64,-131.8C183.27,-122.31 190.72,-109.76 196.74,-99.63"/>
<polygon fill="#63b8ff" stroke="#63b8ff" points="199.86,-101.23 201.95,-90.84 193.84,-97.66 199.86,-101.23"/>
</a>
</g>
</g>
<!-- Node22&#45;&gt;Node23 -->
<g id="edge25_Node000022_Node000023" class="edge">
<title>Node22&#45;&gt;Node23</title>
<g id="a_edge25_Node000022_Node000023"><a xlink:title=" ">
<path fill="none" stroke="#63b8ff" d="M149.45,-131.8C137.35,-123.1 121.68,-111.82 108.3,-102.2"/>
<polygon fill="#63b8ff" stroke="#63b8ff" points="110.06,-99.16 99.9,-96.16 105.98,-104.84 110.06,-99.16"/>
</a>
</g>
</g>
<!-- Node24&#45;&gt;Node10 -->
<g id="edge27_Node000024_Node000010" class="edge">
<title>Node24&#45;&gt;Node10</title>
<g id="a_edge27_Node000024_Node000010"><a xlink:title=" ">
<path fill="none" stroke="#63b8ff" d="M338.2,-137.37C338.2,-128.16 338.2,-113.29 338.2,-101.27"/>
<polygon fill="#63b8ff" stroke="#63b8ff" points="341.7,-100.91 338.2,-90.91 334.7,-100.91 341.7,-100.91"/>
</a>
</g>
</g>
<!-- Node24&#45;&gt;Node11 -->
<g id="edge28_Node000024_Node000011" class="edge">
<title>Node24&#45;&gt;Node11</title>
<g id="a_edge28_Node000024_Node000011"><a xlink:title=" ">
<path fill="none" stroke="#63b8ff" d="M320.54,-137.37C298.37,-126.54 260.12,-107.85 234.26,-95.22"/>
<polygon fill="#63b8ff" stroke="#63b8ff" points="235.53,-91.94 225.01,-90.7 232.46,-98.23 235.53,-91.94"/>
</a>
</g>
</g>
<!-- Node24&#45;&gt;Node14 -->
<g id="edge29_Node000024_Node000014" class="edge">
<title>Node24&#45;&gt;Node14</title>
<g id="a_edge29_Node000024_Node000014"><a xlink:title=" ">
<path fill="none" stroke="#63b8ff" d="M356.95,-137.37C377.41,-127.95 410.77,-112.59 437.17,-100.43"/>
<polygon fill="#63b8ff" stroke="#63b8ff" points="438.93,-103.48 446.55,-96.12 436,-97.12 438.93,-103.48"/>
</a>
</g>
</g>
</g>
</svg>
