<?xml version="1.0" encoding="UTF-8" standalone="no"?>
<!DOCTYPE svg PUBLIC "-//W3C//DTD SVG 1.1//EN"
 "http://www.w3.org/Graphics/SVG/1.1/DTD/svg11.dtd">
<!-- Generated by graphviz version 2.43.0 (0)
 -->
<!-- Title: /home/runner/work/lethe/lethe/include/core/output_struct.h Pages: 1 -->
<svg width="246pt" height="115pt"
 viewBox="0.00 0.00 246.00 115.00" xmlns="http://www.w3.org/2000/svg" xmlns:xlink="http://www.w3.org/1999/xlink">
<g id="graph0" class="graph" transform="scale(1 1) rotate(0) translate(4 111)">
<title>/home/runner/work/lethe/lethe/include/core/output_struct.h</title>
<!-- Node1 -->
<g id="Node000001" class="node">
<title>Node1</title>
<g id="a_Node000001"><a xlink:title=" ">
<polygon fill="#999999" stroke="#666666" points="185,-107 44,-107 44,-66 185,-66 185,-107"/>
<text text-anchor="start" x="52" y="-95" font-family="Helvetica,sans-Serif" font-size="10.00">/home/runner/work/lethe</text>
<text text-anchor="start" x="52" y="-84" font-family="Helvetica,sans-Serif" font-size="10.00">/lethe/include/core/output</text>
<text text-anchor="middle" x="114.5" y="-73" font-family="Helvetica,sans-Serif" font-size="10.00">_struct.h</text>
</a>
</g>
</g>
<!-- Node2 -->
<g id="Node000002" class="node">
<title>Node2</title>
<g id="a_Node000002"><a xlink:title=" ">
<polygon fill="#e0e0e0" stroke="#999999" points="101,-30 0,-30 0,0 101,0 101,-30"/>
<text text-anchor="start" x="8" y="-18" font-family="Helvetica,sans-Serif" font-size="10.00">deal.II/base/table</text>
<text text-anchor="middle" x="50.5" y="-7" font-family="Helvetica,sans-Serif" font-size="10.00">_handler.h</text>
</a>
</g>
</g>
<!-- Node1&#45;&gt;Node2 -->
<g id="edge1_Node000001_Node000002" class="edge">
<title>Node1&#45;&gt;Node2</title>
<g id="a_edge1_Node000001_Node000002"><a xlink:title=" ">
<path fill="none" stroke="#63b8ff" d="M96.33,-65.77C88.21,-56.95 78.63,-46.54 70.32,-37.53"/>
<polygon fill="#63b8ff" stroke="#63b8ff" points="72.78,-35.02 63.43,-30.04 67.63,-39.77 72.78,-35.02"/>
</a>
</g>
</g>
<!-- Node3 -->
<g id="Node000003" class="node">
<title>Node3</title>
<g id="a_Node000003"><a xlink:title=" ">
<polygon fill="#e0e0e0" stroke="#999999" points="238,-30 119,-30 119,0 238,0 238,-30"/>
<text text-anchor="start" x="127" y="-18" font-family="Helvetica,sans-Serif" font-size="10.00">deal.II/numerics/data</text>
<text text-anchor="middle" x="178.5" y="-7" font-family="Helvetica,sans-Serif" font-size="10.00">_postprocessor.h</text>
</a>
</g>
</g>
<!-- Node1&#45;&gt;Node3 -->
<g id="edge2_Node000001_Node000003" class="edge">
<title>Node1&#45;&gt;Node3</title>
<g id="a_edge2_Node000001_Node000003"><a xlink:title=" ">
<path fill="none" stroke="#63b8ff" d="M132.67,-65.77C140.79,-56.95 150.37,-46.54 158.68,-37.53"/>
<polygon fill="#63b8ff" stroke="#63b8ff" points="161.37,-39.77 165.57,-30.04 156.22,-35.02 161.37,-39.77"/>
</a>
</g>
</g>
</g>
</svg>
