<?xml version="1.0" encoding="UTF-8" standalone="no"?>
<!DOCTYPE svg PUBLIC "-//W3C//DTD SVG 1.1//EN"
 "http://www.w3.org/Graphics/SVG/1.1/DTD/svg11.dtd">
<!-- Generated by graphviz version 2.43.0 (0)
 -->
<!-- Title: /home/runner/work/lethe/lethe/include/dem/output_force_torque_calculation.h Pages: 1 -->
<svg width="1920pt" height="302pt"
 viewBox="0.00 0.00 1920.00 302.00" xmlns="http://www.w3.org/2000/svg" xmlns:xlink="http://www.w3.org/1999/xlink">
<g id="graph0" class="graph" transform="scale(1 1) rotate(0) translate(4 298)">
<title>/home/runner/work/lethe/lethe/include/dem/output_force_torque_calculation.h</title>
<!-- Node1 -->
<g id="Node000001" class="node">
<title>Node1</title>
<g id="a_Node000001"><a xlink:title=" ">
<polygon fill="#999999" stroke="#666666" points="383,-294 232,-294 232,-253 383,-253 383,-294"/>
<text text-anchor="start" x="240" y="-282" font-family="Helvetica,sans-Serif" font-size="10.00">/home/runner/work/lethe</text>
<text text-anchor="start" x="240" y="-271" font-family="Helvetica,sans-Serif" font-size="10.00">/lethe/include/dem/output</text>
<text text-anchor="middle" x="307.5" y="-260" font-family="Helvetica,sans-Serif" font-size="10.00">_force_torque_calculation.h</text>
</a>
</g>
</g>
<!-- Node2 -->
<g id="Node000002" class="node">
<title>Node2</title>
<g id="a_Node000002"><a xlink:href="data__containers_8h.html" target="_top" xlink:title=" ">
<polygon fill="white" stroke="#666666" points="371.5,-217 243.5,-217 243.5,-198 371.5,-198 371.5,-217"/>
<text text-anchor="middle" x="307.5" y="-205" font-family="Helvetica,sans-Serif" font-size="10.00">dem/data_containers.h</text>
</a>
</g>
</g>
<!-- Node1&#45;&gt;Node2 -->
<g id="edge1_Node000001_Node000002" class="edge">
<title>Node1&#45;&gt;Node2</title>
<g id="a_edge1_Node000001_Node000002"><a xlink:title=" ">
<path fill="none" stroke="#63b8ff" d="M307.5,-252.95C307.5,-244.85 307.5,-235.5 307.5,-227.47"/>
<polygon fill="#63b8ff" stroke="#63b8ff" points="311,-227.26 307.5,-217.26 304,-227.26 311,-227.26"/>
</a>
</g>
</g>
<!-- Node5 -->
<g id="Node000005" class="node">
<title>Node5</title>
<g id="a_Node000005"><a xlink:title=" ">
<polygon fill="#e0e0e0" stroke="#999999" points="733,-30 632,-30 632,0 733,0 733,-30"/>
<text text-anchor="start" x="640" y="-18" font-family="Helvetica,sans-Serif" font-size="10.00">deal.II/base/table</text>
<text text-anchor="middle" x="682.5" y="-7" font-family="Helvetica,sans-Serif" font-size="10.00">_handler.h</text>
</a>
</g>
</g>
<!-- Node1&#45;&gt;Node5 -->
<g id="edge36_Node000001_Node000005" class="edge">
<title>Node1&#45;&gt;Node5</title>
<g id="a_edge36_Node000001_Node000005"><a xlink:title=" ">
<path fill="none" stroke="#63b8ff" d="M231.76,-264.77C165.8,-253.73 73.3,-226.93 24.5,-162 -1.19,-127.83 -10.58,-97.34 18.5,-66 59.01,-22.32 464.81,-16.57 621.35,-15.98"/>
<polygon fill="#63b8ff" stroke="#63b8ff" points="621.75,-19.48 631.74,-15.95 621.73,-12.48 621.75,-19.48"/>
</a>
</g>
</g>
<!-- Node26 -->
<g id="Node000026" class="node">
<title>Node26</title>
<g id="a_Node000026"><a xlink:title=" ">
<polygon fill="#e0e0e0" stroke="#999999" points="493.5,-217 389.5,-217 389.5,-198 493.5,-198 493.5,-217"/>
<text text-anchor="middle" x="441.5" y="-205" font-family="Helvetica,sans-Serif" font-size="10.00">deal.II/base/mpi.h</text>
</a>
</g>
</g>
<!-- Node1&#45;&gt;Node26 -->
<g id="edge35_Node000001_Node000026" class="edge">
<title>Node1&#45;&gt;Node26</title>
<g id="a_edge35_Node000001_Node000026"><a xlink:title=" ">
<path fill="none" stroke="#63b8ff" d="M348.43,-252.95C369.8,-242.75 395.35,-230.54 414.27,-221.5"/>
<polygon fill="#63b8ff" stroke="#63b8ff" points="415.99,-224.56 423.51,-217.09 412.97,-218.24 415.99,-224.56"/>
</a>
</g>
</g>
<!-- Node3 -->
<g id="Node000003" class="node">
<title>Node3</title>
<g id="a_Node000003"><a xlink:href="core_2utilities_8h.html" target="_top" xlink:title=" ">
<polygon fill="white" stroke="#666666" points="1117.5,-156.5 1031.5,-156.5 1031.5,-137.5 1117.5,-137.5 1117.5,-156.5"/>
<text text-anchor="middle" x="1074.5" y="-144.5" font-family="Helvetica,sans-Serif" font-size="10.00">core/utilities.h</text>
</a>
</g>
</g>
<!-- Node2&#45;&gt;Node3 -->
<g id="edge2_Node000002_Node000003" class="edge">
<title>Node2&#45;&gt;Node3</title>
<g id="a_edge2_Node000002_Node000003"><a xlink:title=" ">
<path fill="none" stroke="#63b8ff" d="M371.57,-198.88C374.59,-198.57 377.57,-198.28 380.5,-198 619.23,-175.51 905.02,-157.84 1021.34,-151.03"/>
<polygon fill="#63b8ff" stroke="#63b8ff" points="1021.62,-154.52 1031.4,-150.44 1021.21,-147.53 1021.62,-154.52"/>
</a>
</g>
</g>
<!-- Node10 -->
<g id="Node000010" class="node">
<title>Node10</title>
<g id="a_Node000010"><a xlink:title=" ">
<polygon fill="#e0e0e0" stroke="#999999" points="311,-90.5 196,-90.5 196,-71.5 311,-71.5 311,-90.5"/>
<text text-anchor="middle" x="253.5" y="-78.5" font-family="Helvetica,sans-Serif" font-size="10.00">deal.II/base/tensor.h</text>
</a>
</g>
</g>
<!-- Node2&#45;&gt;Node10 -->
<g id="edge29_Node000002_Node000010" class="edge">
<title>Node2&#45;&gt;Node10</title>
<g id="a_edge29_Node000002_Node000010"><a xlink:title=" ">
<path fill="none" stroke="#63b8ff" d="M243.36,-204.87C173.58,-201.57 68.59,-191.68 43.5,-162 34.89,-151.82 35.23,-142.46 43.5,-132 61.1,-109.71 131.47,-96.29 185.96,-89.05"/>
<polygon fill="#63b8ff" stroke="#63b8ff" points="186.46,-92.51 195.93,-87.77 185.56,-85.57 186.46,-92.51"/>
</a>
</g>
</g>
<!-- Node13 -->
<g id="Node000013" class="node">
<title>Node13</title>
<g id="a_Node000013"><a xlink:title=" ">
<polygon fill="#e0e0e0" stroke="#999999" points="589,-96 458,-96 458,-66 589,-66 589,-96"/>
<text text-anchor="start" x="466" y="-84" font-family="Helvetica,sans-Serif" font-size="10.00">deal.II/particles/particle</text>
<text text-anchor="middle" x="523.5" y="-73" font-family="Helvetica,sans-Serif" font-size="10.00">_iterator.h</text>
</a>
</g>
</g>
<!-- Node2&#45;&gt;Node13 -->
<g id="edge31_Node000002_Node000013" class="edge">
<title>Node2&#45;&gt;Node13</title>
<g id="a_edge31_Node000002_Node000013"><a xlink:title=" ">
<path fill="none" stroke="#63b8ff" d="M371.57,-198.01C449.01,-187.44 569.87,-169.82 576.5,-162 592.48,-143.16 572.15,-119.29 552.23,-102.56"/>
<polygon fill="#63b8ff" stroke="#63b8ff" points="554.39,-99.81 544.4,-96.29 550.02,-105.27 554.39,-99.81"/>
</a>
</g>
</g>
<!-- Node20 -->
<g id="Node000020" class="node">
<title>Node20</title>
<g id="a_Node000020"><a xlink:title=" ">
<polygon fill="#e0e0e0" stroke="#999999" points="654,-90.5 607,-90.5 607,-71.5 654,-71.5 654,-90.5"/>
<text text-anchor="middle" x="630.5" y="-78.5" font-family="Helvetica,sans-Serif" font-size="10.00">vector</text>
</a>
</g>
</g>
<!-- Node2&#45;&gt;Node20 -->
<g id="edge33_Node000002_Node000020" class="edge">
<title>Node2&#45;&gt;Node20</title>
<g id="a_edge33_Node000002_Node000020"><a xlink:title=" ">
<path fill="none" stroke="#63b8ff" d="M371.7,-198.02C453.02,-187.05 583.69,-168.57 592.5,-162 612.39,-147.16 622.3,-119.23 626.91,-100.61"/>
<polygon fill="#63b8ff" stroke="#63b8ff" points="630.37,-101.18 629.1,-90.66 623.53,-99.68 630.37,-101.18"/>
</a>
</g>
</g>
<!-- Node21 -->
<g id="Node000021" class="node">
<title>Node21</title>
<g id="a_Node000021"><a xlink:href="boundary__cells__info__struct_8h.html" target="_top" xlink:title=" ">
<polygon fill="white" stroke="#666666" points="439,-162 324,-162 324,-132 439,-132 439,-162"/>
<text text-anchor="start" x="332" y="-150" font-family="Helvetica,sans-Serif" font-size="10.00">dem/boundary_cells</text>
<text text-anchor="middle" x="381.5" y="-139" font-family="Helvetica,sans-Serif" font-size="10.00">_info_struct.h</text>
</a>
</g>
</g>
<!-- Node2&#45;&gt;Node21 -->
<g id="edge21_Node000002_Node000021" class="edge">
<title>Node2&#45;&gt;Node21</title>
<g id="a_edge21_Node000002_Node000021"><a xlink:title=" ">
<path fill="none" stroke="#63b8ff" d="M318.42,-197.87C328.18,-190.15 342.87,-178.54 355.62,-168.46"/>
<polygon fill="#63b8ff" stroke="#63b8ff" points="357.97,-171.06 363.64,-162.11 353.63,-165.57 357.97,-171.06"/>
</a>
</g>
</g>
<!-- Node22 -->
<g id="Node000022" class="node">
<title>Node22</title>
<g id="a_Node000022"><a xlink:title=" ">
<polygon fill="#e0e0e0" stroke="#999999" points="129.5,-96 27.5,-96 27.5,-66 129.5,-66 129.5,-96"/>
<text text-anchor="start" x="35.5" y="-84" font-family="Helvetica,sans-Serif" font-size="10.00">deal.II/distributed</text>
<text text-anchor="middle" x="78.5" y="-73" font-family="Helvetica,sans-Serif" font-size="10.00">/tria.h</text>
</a>
</g>
</g>
<!-- Node2&#45;&gt;Node22 -->
<g id="edge30_Node000002_Node000022" class="edge">
<title>Node2&#45;&gt;Node22</title>
<g id="a_edge30_Node000002_Node000022"><a xlink:title=" ">
<path fill="none" stroke="#63b8ff" d="M243.21,-205.32C170.84,-202.48 59.88,-193.02 33.5,-162 18.14,-143.95 35.82,-119.86 53.33,-102.85"/>
<polygon fill="#63b8ff" stroke="#63b8ff" points="55.75,-105.38 60.73,-96.03 51.01,-100.24 55.75,-105.38"/>
</a>
</g>
</g>
<!-- Node23 -->
<g id="Node000023" class="node">
<title>Node23</title>
<g id="a_Node000023"><a xlink:href="contact__info_8h.html" target="_top" xlink:title=" ">
<polygon fill="white" stroke="#666666" points="567.5,-156.5 457.5,-156.5 457.5,-137.5 567.5,-137.5 567.5,-156.5"/>
<text text-anchor="middle" x="512.5" y="-144.5" font-family="Helvetica,sans-Serif" font-size="10.00">dem/contact_info.h</text>
</a>
</g>
</g>
<!-- Node2&#45;&gt;Node23 -->
<g id="edge25_Node000002_Node000023" class="edge">
<title>Node2&#45;&gt;Node23</title>
<g id="a_edge25_Node000002_Node000023"><a xlink:title=" ">
<path fill="none" stroke="#63b8ff" d="M337.3,-197.99C373.06,-187.79 433.13,-170.65 472.79,-159.33"/>
<polygon fill="#63b8ff" stroke="#63b8ff" points="474,-162.63 482.65,-156.52 472.07,-155.9 474,-162.63"/>
</a>
</g>
</g>
<!-- Node24 -->
<g id="Node000024" class="node">
<title>Node24</title>
<g id="a_Node000024"><a xlink:title=" ">
<polygon fill="#e0e0e0" stroke="#999999" points="145,-156.5 52,-156.5 52,-137.5 145,-137.5 145,-156.5"/>
<text text-anchor="middle" x="98.5" y="-144.5" font-family="Helvetica,sans-Serif" font-size="10.00">unordered_map</text>
</a>
</g>
</g>
<!-- Node2&#45;&gt;Node24 -->
<g id="edge32_Node000002_Node000024" class="edge">
<title>Node2&#45;&gt;Node24</title>
<g id="a_edge32_Node000002_Node000024"><a xlink:title=" ">
<path fill="none" stroke="#63b8ff" d="M277.11,-197.99C240.58,-187.77 179.16,-170.58 138.72,-159.26"/>
<polygon fill="#63b8ff" stroke="#63b8ff" points="139.5,-155.84 128.92,-156.52 137.61,-162.58 139.5,-155.84"/>
</a>
</g>
</g>
<!-- Node25 -->
<g id="Node000025" class="node">
<title>Node25</title>
<g id="a_Node000025"><a xlink:href="unordered__dense_8h.html" target="_top" xlink:title=" ">
<polygon fill="white" stroke="#666666" points="306,-156.5 163,-156.5 163,-137.5 306,-137.5 306,-156.5"/>
<text text-anchor="middle" x="234.5" y="-144.5" font-family="Helvetica,sans-Serif" font-size="10.00">ankerl/unordered_dense.h</text>
</a>
</g>
</g>
<!-- Node2&#45;&gt;Node25 -->
<g id="edge34_Node000002_Node000025" class="edge">
<title>Node2&#45;&gt;Node25</title>
<g id="a_edge34_Node000002_Node000025"><a xlink:title=" ">
<path fill="none" stroke="#63b8ff" d="M296.72,-197.87C285.3,-188.71 267.02,-174.06 253.22,-163.01"/>
<polygon fill="#63b8ff" stroke="#63b8ff" points="255.3,-160.19 245.31,-156.67 250.93,-165.65 255.3,-160.19"/>
</a>
</g>
</g>
<!-- Node4 -->
<g id="Node000004" class="node">
<title>Node4</title>
<g id="a_Node000004"><a xlink:href="output__struct_8h.html" target="_top" xlink:title=" ">
<polygon fill="white" stroke="#666666" points="1414.5,-90.5 1300.5,-90.5 1300.5,-71.5 1414.5,-71.5 1414.5,-90.5"/>
<text text-anchor="middle" x="1357.5" y="-78.5" font-family="Helvetica,sans-Serif" font-size="10.00">core/output_struct.h</text>
</a>
</g>
</g>
<!-- Node3&#45;&gt;Node4 -->
<g id="edge3_Node000003_Node000004" class="edge">
<title>Node3&#45;&gt;Node4</title>
<g id="a_edge3_Node000003_Node000004"><a xlink:title=" ">
<path fill="none" stroke="#63b8ff" d="M1112.37,-137.44C1163.41,-125.89 1254.28,-105.34 1309.89,-92.77"/>
<polygon fill="#63b8ff" stroke="#63b8ff" points="1310.87,-96.13 1319.85,-90.51 1309.32,-89.31 1310.87,-96.13"/>
</a>
</g>
</g>
<!-- Node3&#45;&gt;Node5 -->
<g id="edge9_Node000003_Node000005" class="edge">
<title>Node3&#45;&gt;Node5</title>
<g id="a_edge9_Node000003_Node000005"><a xlink:title=" ">
<path fill="none" stroke="#63b8ff" d="M1031.46,-146.13C943.88,-145.49 749.16,-139.12 701.5,-96 686.17,-82.13 682.1,-58.37 681.46,-40.33"/>
<polygon fill="#63b8ff" stroke="#63b8ff" points="684.96,-40.22 681.43,-30.24 677.96,-40.25 684.96,-40.22"/>
</a>
</g>
</g>
<!-- Node7 -->
<g id="Node000007" class="node">
<title>Node7</title>
<g id="a_Node000007"><a xlink:title=" ">
<polygon fill="#e0e0e0" stroke="#999999" points="840.5,-96 710.5,-96 710.5,-66 840.5,-66 840.5,-96"/>
<text text-anchor="start" x="718.5" y="-84" font-family="Helvetica,sans-Serif" font-size="10.00">deal.II/base/conditional</text>
<text text-anchor="middle" x="775.5" y="-73" font-family="Helvetica,sans-Serif" font-size="10.00">_ostream.h</text>
</a>
</g>
</g>
<!-- Node3&#45;&gt;Node7 -->
<g id="edge6_Node000003_Node000007" class="edge">
<title>Node3&#45;&gt;Node7</title>
<g id="a_edge6_Node000003_Node000007"><a xlink:title=" ">
<path fill="none" stroke="#63b8ff" d="M1034.48,-137.44C987.62,-127.41 909,-110.58 850.65,-98.09"/>
<polygon fill="#63b8ff" stroke="#63b8ff" points="851.24,-94.63 840.73,-95.96 849.78,-101.48 851.24,-94.63"/>
</a>
</g>
</g>
<!-- Node8 -->
<g id="Node000008" class="node">
<title>Node8</title>
<g id="a_Node000008"><a xlink:title=" ">
<polygon fill="#e0e0e0" stroke="#999999" points="986,-96 859,-96 859,-66 986,-66 986,-96"/>
<text text-anchor="start" x="867" y="-84" font-family="Helvetica,sans-Serif" font-size="10.00">deal.II/base/parameter</text>
<text text-anchor="middle" x="922.5" y="-73" font-family="Helvetica,sans-Serif" font-size="10.00">_handler.h</text>
</a>
</g>
</g>
<!-- Node3&#45;&gt;Node8 -->
<g id="edge7_Node000003_Node000008" class="edge">
<title>Node3&#45;&gt;Node8</title>
<g id="a_edge7_Node000003_Node000008"><a xlink:title=" ">
<path fill="none" stroke="#63b8ff" d="M1054,-137.37C1031.43,-127.87 994.5,-112.32 965.51,-100.11"/>
<polygon fill="#63b8ff" stroke="#63b8ff" points="966.6,-96.77 956.02,-96.12 963.88,-103.22 966.6,-96.77"/>
</a>
</g>
</g>
<!-- Node9 -->
<g id="Node000009" class="node">
<title>Node9</title>
<g id="a_Node000009"><a xlink:title=" ">
<polygon fill="#e0e0e0" stroke="#999999" points="439.5,-90.5 329.5,-90.5 329.5,-71.5 439.5,-71.5 439.5,-90.5"/>
<text text-anchor="middle" x="384.5" y="-78.5" font-family="Helvetica,sans-Serif" font-size="10.00">deal.II/base/point.h</text>
</a>
</g>
</g>
<!-- Node3&#45;&gt;Node9 -->
<g id="edge8_Node000003_Node000009" class="edge">
<title>Node3&#45;&gt;Node9</title>
<g id="a_edge8_Node000003_Node000009"><a xlink:title=" ">
<path fill="none" stroke="#63b8ff" d="M1031.46,-144.52C929.76,-140.59 666.77,-127.95 449.5,-96 443.2,-95.07 436.6,-93.9 430.12,-92.62"/>
<polygon fill="#63b8ff" stroke="#63b8ff" points="430.6,-89.15 420.1,-90.56 429.19,-96 430.6,-89.15"/>
</a>
</g>
</g>
<!-- Node3&#45;&gt;Node10 -->
<g id="edge10_Node000003_Node000010" class="edge">
<title>Node3&#45;&gt;Node10</title>
<g id="a_edge10_Node000003_Node000010"><a xlink:title=" ">
<path fill="none" stroke="#63b8ff" d="M1031.35,-145.25C915.69,-142.77 589.22,-132.8 320.5,-96 313.77,-95.08 306.71,-93.87 299.81,-92.55"/>
<polygon fill="#63b8ff" stroke="#63b8ff" points="300.34,-89.09 289.85,-90.56 298.97,-95.95 300.34,-89.09"/>
</a>
</g>
</g>
<!-- Node11 -->
<g id="Node000011" class="node">
<title>Node11</title>
<g id="a_Node000011"><a xlink:title=" ">
<polygon fill="#e0e0e0" stroke="#999999" points="1144.5,-90.5 1004.5,-90.5 1004.5,-71.5 1144.5,-71.5 1144.5,-90.5"/>
<text text-anchor="middle" x="1074.5" y="-78.5" font-family="Helvetica,sans-Serif" font-size="10.00">deal.II/dofs/dof_handler.h</text>
</a>
</g>
</g>
<!-- Node3&#45;&gt;Node11 -->
<g id="edge11_Node000003_Node000011" class="edge">
<title>Node3&#45;&gt;Node11</title>
<g id="a_edge11_Node000003_Node000011"><a xlink:title=" ">
<path fill="none" stroke="#63b8ff" d="M1074.5,-137.37C1074.5,-128.16 1074.5,-113.29 1074.5,-101.27"/>
<polygon fill="#63b8ff" stroke="#63b8ff" points="1078,-100.91 1074.5,-90.91 1071,-100.91 1078,-100.91"/>
</a>
</g>
</g>
<!-- Node12 -->
<g id="Node000012" class="node">
<title>Node12</title>
<g id="a_Node000012"><a xlink:title=" ">
<polygon fill="#e0e0e0" stroke="#999999" points="1282,-90.5 1163,-90.5 1163,-71.5 1282,-71.5 1282,-90.5"/>
<text text-anchor="middle" x="1222.5" y="-78.5" font-family="Helvetica,sans-Serif" font-size="10.00">deal.II/fe/fe_values.h</text>
</a>
</g>
</g>
<!-- Node3&#45;&gt;Node12 -->
<g id="edge12_Node000003_Node000012" class="edge">
<title>Node3&#45;&gt;Node12</title>
<g id="a_edge12_Node000003_Node000012"><a xlink:title=" ">
<path fill="none" stroke="#63b8ff" d="M1094.46,-137.37C1119.83,-126.39 1163.86,-107.36 1193.08,-94.72"/>
<polygon fill="#63b8ff" stroke="#63b8ff" points="1194.59,-97.88 1202.38,-90.7 1191.81,-91.46 1194.59,-97.88"/>
</a>
</g>
</g>
<!-- Node3&#45;&gt;Node13 -->
<g id="edge13_Node000003_Node000013" class="edge">
<title>Node3&#45;&gt;Node13</title>
<g id="a_edge13_Node000003_Node000013"><a xlink:title=" ">
<path fill="none" stroke="#63b8ff" d="M1031.36,-142.63C949.36,-135.98 765.16,-119.82 599.67,-96.09"/>
<polygon fill="#63b8ff" stroke="#63b8ff" points="599.69,-92.56 589.3,-94.59 598.69,-99.49 599.69,-92.56"/>
</a>
</g>
</g>
<!-- Node14 -->
<g id="Node000014" class="node">
<title>Node14</title>
<g id="a_Node000014"><a xlink:title=" ">
<polygon fill="#e0e0e0" stroke="#999999" points="1538,-96 1433,-96 1433,-66 1538,-66 1538,-96"/>
<text text-anchor="start" x="1441" y="-84" font-family="Helvetica,sans-Serif" font-size="10.00">boost/archive/text</text>
<text text-anchor="middle" x="1485.5" y="-73" font-family="Helvetica,sans-Serif" font-size="10.00">_iarchive.hpp</text>
</a>
</g>
</g>
<!-- Node3&#45;&gt;Node14 -->
<g id="edge14_Node000003_Node000014" class="edge">
<title>Node3&#45;&gt;Node14</title>
<g id="a_edge14_Node000003_Node000014"><a xlink:title=" ">
<path fill="none" stroke="#63b8ff" d="M1117.66,-140.94C1181.89,-133.17 1306.62,-117.13 1422.67,-96.06"/>
<polygon fill="#63b8ff" stroke="#63b8ff" points="1423.58,-99.45 1432.79,-94.2 1422.32,-92.56 1423.58,-99.45"/>
</a>
</g>
</g>
<!-- Node15 -->
<g id="Node000015" class="node">
<title>Node15</title>
<g id="a_Node000015"><a xlink:title=" ">
<polygon fill="#e0e0e0" stroke="#999999" points="1661,-96 1556,-96 1556,-66 1661,-66 1661,-96"/>
<text text-anchor="start" x="1564" y="-84" font-family="Helvetica,sans-Serif" font-size="10.00">boost/archive/text</text>
<text text-anchor="middle" x="1608.5" y="-73" font-family="Helvetica,sans-Serif" font-size="10.00">_oarchive.hpp</text>
</a>
</g>
</g>
<!-- Node3&#45;&gt;Node15 -->
<g id="edge15_Node000003_Node000015" class="edge">
<title>Node3&#45;&gt;Node15</title>
<g id="a_edge15_Node000003_Node000015"><a xlink:title=" ">
<path fill="none" stroke="#63b8ff" d="M1117.77,-143.18C1199.57,-137.46 1382.59,-122.86 1545.47,-96.22"/>
<polygon fill="#63b8ff" stroke="#63b8ff" points="1546.38,-99.62 1555.67,-94.53 1545.24,-92.71 1546.38,-99.62"/>
</a>
</g>
</g>
<!-- Node16 -->
<g id="Node000016" class="node">
<title>Node16</title>
<g id="a_Node000016"><a xlink:title=" ">
<polygon fill="#e0e0e0" stroke="#999999" points="1734,-90.5 1679,-90.5 1679,-71.5 1734,-71.5 1734,-90.5"/>
<text text-anchor="middle" x="1706.5" y="-78.5" font-family="Helvetica,sans-Serif" font-size="10.00">fstream</text>
</a>
</g>
</g>
<!-- Node3&#45;&gt;Node16 -->
<g id="edge16_Node000003_Node000016" class="edge">
<title>Node3&#45;&gt;Node16</title>
<g id="a_edge16_Node000003_Node000016"><a xlink:title=" ">
<path fill="none" stroke="#63b8ff" d="M1117.79,-146.58C1216.96,-147.01 1467.66,-142.91 1670.5,-96 1672.87,-95.45 1675.29,-94.78 1677.7,-94.02"/>
<polygon fill="#63b8ff" stroke="#63b8ff" points="1679.12,-97.23 1687.39,-90.6 1676.79,-90.63 1679.12,-97.23"/>
</a>
</g>
</g>
<!-- Node17 -->
<g id="Node000017" class="node">
<title>Node17</title>
<g id="a_Node000017"><a xlink:title=" ">
<polygon fill="#e0e0e0" stroke="#999999" points="1790.5,-90.5 1752.5,-90.5 1752.5,-71.5 1790.5,-71.5 1790.5,-90.5"/>
<text text-anchor="middle" x="1771.5" y="-78.5" font-family="Helvetica,sans-Serif" font-size="10.00">map</text>
</a>
</g>
</g>
<!-- Node3&#45;&gt;Node17 -->
<g id="edge17_Node000003_Node000017" class="edge">
<title>Node3&#45;&gt;Node17</title>
<g id="a_edge17_Node000003_Node000017"><a xlink:title=" ">
<path fill="none" stroke="#63b8ff" d="M1117.81,-144.95C1246.48,-141.48 1624.9,-128.71 1743.5,-96 1744.94,-95.6 1746.39,-95.13 1747.84,-94.6"/>
<polygon fill="#63b8ff" stroke="#63b8ff" points="1749.36,-97.76 1757.1,-90.53 1746.54,-91.35 1749.36,-97.76"/>
</a>
</g>
</g>
<!-- Node18 -->
<g id="Node000018" class="node">
<title>Node18</title>
<g id="a_Node000018"><a xlink:title=" ">
<polygon fill="#e0e0e0" stroke="#999999" points="1852.5,-90.5 1808.5,-90.5 1808.5,-71.5 1852.5,-71.5 1852.5,-90.5"/>
<text text-anchor="middle" x="1830.5" y="-78.5" font-family="Helvetica,sans-Serif" font-size="10.00">string</text>
</a>
</g>
</g>
<!-- Node3&#45;&gt;Node18 -->
<g id="edge18_Node000003_Node000018" class="edge">
<title>Node3&#45;&gt;Node18</title>
<g id="a_edge18_Node000003_Node000018"><a xlink:title=" ">
<path fill="none" stroke="#63b8ff" d="M1117.96,-145.02C1253.82,-141.63 1669.19,-128.79 1799.5,-96 1801.23,-95.56 1802.98,-95.04 1804.73,-94.44"/>
<polygon fill="#63b8ff" stroke="#63b8ff" points="1806.5,-97.51 1814.48,-90.54 1803.89,-91.01 1806.5,-97.51"/>
</a>
</g>
</g>
<!-- Node19 -->
<g id="Node000019" class="node">
<title>Node19</title>
<g id="a_Node000019"><a xlink:title=" ">
<polygon fill="#e0e0e0" stroke="#999999" points="1912,-90.5 1871,-90.5 1871,-71.5 1912,-71.5 1912,-90.5"/>
<text text-anchor="middle" x="1891.5" y="-78.5" font-family="Helvetica,sans-Serif" font-size="10.00">tuple</text>
</a>
</g>
</g>
<!-- Node3&#45;&gt;Node19 -->
<g id="edge19_Node000003_Node000019" class="edge">
<title>Node3&#45;&gt;Node19</title>
<g id="a_edge19_Node000003_Node000019"><a xlink:title=" ">
<path fill="none" stroke="#63b8ff" d="M1117.62,-145.37C1260.72,-142.93 1718.9,-132.42 1861.5,-96 1863.18,-95.57 1864.89,-95.05 1866.58,-94.46"/>
<polygon fill="#63b8ff" stroke="#63b8ff" points="1868.12,-97.61 1876.03,-90.56 1865.45,-91.14 1868.12,-97.61"/>
</a>
</g>
</g>
<!-- Node3&#45;&gt;Node20 -->
<g id="edge20_Node000003_Node000020" class="edge">
<title>Node3&#45;&gt;Node20</title>
<g id="a_edge20_Node000003_Node000020"><a xlink:title=" ">
<path fill="none" stroke="#63b8ff" d="M1031.24,-143.95C956.39,-139.67 798.26,-127.45 668.5,-96 665.99,-95.39 663.41,-94.67 660.85,-93.88"/>
<polygon fill="#63b8ff" stroke="#63b8ff" points="661.73,-90.48 651.13,-90.58 659.48,-97.11 661.73,-90.48"/>
</a>
</g>
</g>
<!-- Node4&#45;&gt;Node5 -->
<g id="edge4_Node000004_Node000005" class="edge">
<title>Node4&#45;&gt;Node5</title>
<g id="a_edge4_Node000004_Node000005"><a xlink:title=" ">
<path fill="none" stroke="#63b8ff" d="M1321.33,-71.46C1311.68,-69.42 1301.23,-67.43 1291.5,-66 1092.2,-36.8 853.52,-23.41 743.51,-18.44"/>
<polygon fill="#63b8ff" stroke="#63b8ff" points="743.42,-14.93 733.27,-17.99 743.11,-21.93 743.42,-14.93"/>
</a>
</g>
</g>
<!-- Node6 -->
<g id="Node000006" class="node">
<title>Node6</title>
<g id="a_Node000006"><a xlink:title=" ">
<polygon fill="#e0e0e0" stroke="#999999" points="1417,-30 1298,-30 1298,0 1417,0 1417,-30"/>
<text text-anchor="start" x="1306" y="-18" font-family="Helvetica,sans-Serif" font-size="10.00">deal.II/numerics/data</text>
<text text-anchor="middle" x="1357.5" y="-7" font-family="Helvetica,sans-Serif" font-size="10.00">_postprocessor.h</text>
</a>
</g>
</g>
<!-- Node4&#45;&gt;Node6 -->
<g id="edge5_Node000004_Node000006" class="edge">
<title>Node4&#45;&gt;Node6</title>
<g id="a_edge5_Node000004_Node000006"><a xlink:title=" ">
<path fill="none" stroke="#63b8ff" d="M1357.5,-71.37C1357.5,-63.49 1357.5,-51.45 1357.5,-40.6"/>
<polygon fill="#63b8ff" stroke="#63b8ff" points="1361,-40.36 1357.5,-30.36 1354,-40.36 1361,-40.36"/>
</a>
</g>
</g>
<!-- Node21&#45;&gt;Node9 -->
<g id="edge22_Node000021_Node000009" class="edge">
<title>Node21&#45;&gt;Node9</title>
<g id="a_edge22_Node000021_Node000009"><a xlink:title=" ">
<path fill="none" stroke="#63b8ff" d="M382.16,-131.8C382.59,-122.7 383.15,-110.79 383.61,-100.9"/>
<polygon fill="#63b8ff" stroke="#63b8ff" points="387.11,-101 384.08,-90.84 380.12,-100.67 387.11,-101"/>
</a>
</g>
</g>
<!-- Node21&#45;&gt;Node10 -->
<g id="edge23_Node000021_Node000010" class="edge">
<title>Node21&#45;&gt;Node10</title>
<g id="a_edge23_Node000021_Node000010"><a xlink:title=" ">
<path fill="none" stroke="#63b8ff" d="M353.41,-131.95C331.45,-120.98 301.16,-105.83 279.71,-95.11"/>
<polygon fill="#63b8ff" stroke="#63b8ff" points="281.04,-91.86 270.53,-90.52 277.91,-98.12 281.04,-91.86"/>
</a>
</g>
</g>
<!-- Node21&#45;&gt;Node22 -->
<g id="edge24_Node000021_Node000022" class="edge">
<title>Node21&#45;&gt;Node22</title>
<g id="a_edge24_Node000021_Node000022"><a xlink:title=" ">
<path fill="none" stroke="#63b8ff" d="M323.9,-133.78C321.06,-133.18 318.25,-132.58 315.5,-132 255.77,-119.37 187.57,-104.98 139.71,-94.89"/>
<polygon fill="#63b8ff" stroke="#63b8ff" points="140.32,-91.45 129.82,-92.81 138.88,-98.3 140.32,-91.45"/>
</a>
</g>
</g>
<!-- Node23&#45;&gt;Node9 -->
<g id="edge26_Node000023_Node000009" class="edge">
<title>Node23&#45;&gt;Node9</title>
<g id="a_edge26_Node000023_Node000009"><a xlink:title=" ">
<path fill="none" stroke="#63b8ff" d="M495.23,-137.37C473.57,-126.54 436.2,-107.85 410.93,-95.22"/>
<polygon fill="#63b8ff" stroke="#63b8ff" points="412.4,-92.04 401.89,-90.7 409.27,-98.3 412.4,-92.04"/>
</a>
</g>
</g>
<!-- Node23&#45;&gt;Node10 -->
<g id="edge27_Node000023_Node000010" class="edge">
<title>Node23&#45;&gt;Node10</title>
<g id="a_edge27_Node000023_Node000010"><a xlink:title=" ">
<path fill="none" stroke="#63b8ff" d="M477.84,-137.44C431.31,-125.94 348.64,-105.51 297.7,-92.92"/>
<polygon fill="#63b8ff" stroke="#63b8ff" points="298.5,-89.52 287.95,-90.51 296.82,-96.31 298.5,-89.52"/>
</a>
</g>
</g>
<!-- Node23&#45;&gt;Node13 -->
<g id="edge28_Node000023_Node000013" class="edge">
<title>Node23&#45;&gt;Node13</title>
<g id="a_edge28_Node000023_Node000013"><a xlink:title=" ">
<path fill="none" stroke="#63b8ff" d="M513.98,-137.37C515.35,-129.4 517.45,-117.2 519.33,-106.27"/>
<polygon fill="#63b8ff" stroke="#63b8ff" points="522.78,-106.81 521.03,-96.36 515.88,-105.62 522.78,-106.81"/>
</a>
</g>
</g>
</g>
</svg>
