<?xml version="1.0" encoding="UTF-8" standalone="no"?>
<!DOCTYPE svg PUBLIC "-//W3C//DTD SVG 1.1//EN"
 "http://www.w3.org/Graphics/SVG/1.1/DTD/svg11.dtd">
<!-- Generated by graphviz version 2.43.0 (0)
 -->
<!-- Title: /home/runner/work/lethe/lethe/source/core/parameters_cfd_dem.cc Pages: 1 -->
<svg width="407pt" height="236pt"
 viewBox="0.00 0.00 406.50 236.00" xmlns="http://www.w3.org/2000/svg" xmlns:xlink="http://www.w3.org/1999/xlink">
<g id="graph0" class="graph" transform="scale(1 1) rotate(0) translate(4 232)">
<title>/home/runner/work/lethe/lethe/source/core/parameters_cfd_dem.cc</title>
<!-- Node1 -->
<g id="Node000001" class="node">
<title>Node1</title>
<g id="a_Node000001"><a xlink:title=" ">
<polygon fill="#999999" stroke="#666666" points="289.5,-228 126.5,-228 126.5,-187 289.5,-187 289.5,-228"/>
<text text-anchor="start" x="134.5" y="-216" font-family="Helvetica,sans-Serif" font-size="10.00">/home/runner/work/lethe</text>
<text text-anchor="start" x="134.5" y="-205" font-family="Helvetica,sans-Serif" font-size="10.00">/lethe/source/core/parameters</text>
<text text-anchor="middle" x="208" y="-194" font-family="Helvetica,sans-Serif" font-size="10.00">_cfd_dem.cc</text>
</a>
</g>
</g>
<!-- Node2 -->
<g id="Node000002" class="node">
<title>Node2</title>
<g id="a_Node000002"><a xlink:href="parameters__cfd__dem_8h.html" target="_top" xlink:title="Parameter structures for CFD&#45;DEM coupled simulations.">
<polygon fill="white" stroke="#666666" points="266.5,-151 149.5,-151 149.5,-121 266.5,-121 266.5,-151"/>
<text text-anchor="start" x="157.5" y="-139" font-family="Helvetica,sans-Serif" font-size="10.00">core/parameters_cfd</text>
<text text-anchor="middle" x="208" y="-128" font-family="Helvetica,sans-Serif" font-size="10.00">_dem.h</text>
</a>
</g>
</g>
<!-- Node1&#45;&gt;Node2 -->
<g id="edge1_Node000001_Node000002" class="edge">
<title>Node1&#45;&gt;Node2</title>
<g id="a_edge1_Node000001_Node000002"><a xlink:title=" ">
<path fill="none" stroke="#63b8ff" d="M208,-186.77C208,-178.85 208,-169.63 208,-161.3"/>
<polygon fill="#63b8ff" stroke="#63b8ff" points="211.5,-161.04 208,-151.04 204.5,-161.04 211.5,-161.04"/>
</a>
</g>
</g>
<!-- Node3 -->
<g id="Node000003" class="node">
<title>Node3</title>
<g id="a_Node000003"><a xlink:href="sub__simulation__control_8h.html" target="_top" xlink:title="Controls smaller simulation blocks within simulations.">
<polygon fill="white" stroke="#666666" points="126.5,-85 11.5,-85 11.5,-55 126.5,-55 126.5,-85"/>
<text text-anchor="start" x="19.5" y="-73" font-family="Helvetica,sans-Serif" font-size="10.00">core/sub_simulation</text>
<text text-anchor="middle" x="69" y="-62" font-family="Helvetica,sans-Serif" font-size="10.00">_control.h</text>
</a>
</g>
</g>
<!-- Node2&#45;&gt;Node3 -->
<g id="edge2_Node000002_Node000003" class="edge">
<title>Node2&#45;&gt;Node3</title>
<g id="a_edge2_Node000002_Node000003"><a xlink:title=" ">
<path fill="none" stroke="#63b8ff" d="M177.5,-120.95C157.31,-111.66 130.63,-99.38 108.78,-89.32"/>
<polygon fill="#63b8ff" stroke="#63b8ff" points="109.98,-86.02 99.43,-85.01 107.05,-92.37 109.98,-86.02"/>
</a>
</g>
</g>
<!-- Node5 -->
<g id="Node000005" class="node">
<title>Node5</title>
<g id="a_Node000005"><a xlink:title=" ">
<polygon fill="#e0e0e0" stroke="#999999" points="271.5,-85 144.5,-85 144.5,-55 271.5,-55 271.5,-85"/>
<text text-anchor="start" x="152.5" y="-73" font-family="Helvetica,sans-Serif" font-size="10.00">deal.II/base/parameter</text>
<text text-anchor="middle" x="208" y="-62" font-family="Helvetica,sans-Serif" font-size="10.00">_handler.h</text>
</a>
</g>
</g>
<!-- Node2&#45;&gt;Node5 -->
<g id="edge4_Node000002_Node000005" class="edge">
<title>Node2&#45;&gt;Node5</title>
<g id="a_edge4_Node000002_Node000005"><a xlink:title=" ">
<path fill="none" stroke="#63b8ff" d="M208,-120.8C208,-113.34 208,-103.99 208,-95.41"/>
<polygon fill="#63b8ff" stroke="#63b8ff" points="211.5,-95.16 208,-85.16 204.5,-95.16 211.5,-95.16"/>
</a>
</g>
</g>
<!-- Node6 -->
<g id="Node000006" class="node">
<title>Node6</title>
<g id="a_Node000006"><a xlink:title=" ">
<polygon fill="#e0e0e0" stroke="#999999" points="398.5,-85 289.5,-85 289.5,-55 398.5,-55 398.5,-85"/>
<text text-anchor="start" x="297.5" y="-73" font-family="Helvetica,sans-Serif" font-size="10.00">deal.II/base/parsed</text>
<text text-anchor="middle" x="344" y="-62" font-family="Helvetica,sans-Serif" font-size="10.00">_function.h</text>
</a>
</g>
</g>
<!-- Node2&#45;&gt;Node6 -->
<g id="edge5_Node000002_Node000006" class="edge">
<title>Node2&#45;&gt;Node6</title>
<g id="a_edge5_Node000002_Node000006"><a xlink:title=" ">
<path fill="none" stroke="#63b8ff" d="M237.85,-120.95C257.6,-111.66 283.7,-99.38 305.08,-89.32"/>
<polygon fill="#63b8ff" stroke="#63b8ff" points="306.67,-92.44 314.22,-85.01 303.69,-86.1 306.67,-92.44"/>
</a>
</g>
</g>
<!-- Node4 -->
<g id="Node000004" class="node">
<title>Node4</title>
<g id="a_Node000004"><a xlink:title=" ">
<polygon fill="#e0e0e0" stroke="#999999" points="138,-19 0,-19 0,0 138,0 138,-19"/>
<text text-anchor="middle" x="69" y="-7" font-family="Helvetica,sans-Serif" font-size="10.00">deal.II/base/exceptions.h</text>
</a>
</g>
</g>
<!-- Node3&#45;&gt;Node4 -->
<g id="edge3_Node000003_Node000004" class="edge">
<title>Node3&#45;&gt;Node4</title>
<g id="a_edge3_Node000003_Node000004"><a xlink:title=" ">
<path fill="none" stroke="#63b8ff" d="M69,-54.84C69,-47.21 69,-37.7 69,-29.45"/>
<polygon fill="#63b8ff" stroke="#63b8ff" points="72.5,-29.27 69,-19.27 65.5,-29.27 72.5,-29.27"/>
</a>
</g>
</g>
</g>
</svg>
