<?xml version="1.0" encoding="UTF-8" standalone="no"?>
<!DOCTYPE svg PUBLIC "-//W3C//DTD SVG 1.1//EN"
 "http://www.w3.org/Graphics/SVG/1.1/DTD/svg11.dtd">
<!-- Generated by graphviz version 2.43.0 (0)
 -->
<!-- Title: /home/runner/work/lethe/lethe/source/core/parameters_multiphysics.cc Pages: 1 -->
<svg width="1999pt" height="423pt"
 viewBox="0.00 0.00 1999.00 423.00" xmlns="http://www.w3.org/2000/svg" xmlns:xlink="http://www.w3.org/1999/xlink">
<g id="graph0" class="graph" transform="scale(1 1) rotate(0) translate(4 419)">
<title>/home/runner/work/lethe/lethe/source/core/parameters_multiphysics.cc</title>
<!-- Node1 -->
<g id="Node000001" class="node">
<title>Node1</title>
<g id="a_Node000001"><a xlink:title=" ">
<polygon fill="#999999" stroke="#666666" points="402.5,-415 239.5,-415 239.5,-374 402.5,-374 402.5,-415"/>
<text text-anchor="start" x="247.5" y="-403" font-family="Helvetica,sans-Serif" font-size="10.00">/home/runner/work/lethe</text>
<text text-anchor="start" x="247.5" y="-392" font-family="Helvetica,sans-Serif" font-size="10.00">/lethe/source/core/parameters</text>
<text text-anchor="middle" x="321" y="-381" font-family="Helvetica,sans-Serif" font-size="10.00">_multiphysics.cc</text>
</a>
</g>
</g>
<!-- Node2 -->
<g id="Node000002" class="node">
<title>Node2</title>
<g id="a_Node000002"><a xlink:href="parameters__multiphysics_8h.html" target="_top" xlink:title=" ">
<polygon fill="white" stroke="#666666" points="407.5,-338 234.5,-338 234.5,-319 407.5,-319 407.5,-338"/>
<text text-anchor="middle" x="321" y="-326" font-family="Helvetica,sans-Serif" font-size="10.00">core/parameters_multiphysics.h</text>
</a>
</g>
</g>
<!-- Node1&#45;&gt;Node2 -->
<g id="edge1_Node000001_Node000002" class="edge">
<title>Node1&#45;&gt;Node2</title>
<g id="a_edge1_Node000001_Node000002"><a xlink:title=" ">
<path fill="none" stroke="#63b8ff" d="M321,-373.95C321,-365.85 321,-356.5 321,-348.47"/>
<polygon fill="#63b8ff" stroke="#63b8ff" points="324.5,-348.26 321,-338.26 317.5,-348.26 324.5,-348.26"/>
</a>
</g>
</g>
<!-- Node5 -->
<g id="Node000005" class="node">
<title>Node5</title>
<g id="a_Node000005"><a xlink:title=" ">
<polygon fill="#e0e0e0" stroke="#999999" points="139.5,-30 12.5,-30 12.5,0 139.5,0 139.5,-30"/>
<text text-anchor="start" x="20.5" y="-18" font-family="Helvetica,sans-Serif" font-size="10.00">deal.II/base/parameter</text>
<text text-anchor="middle" x="76" y="-7" font-family="Helvetica,sans-Serif" font-size="10.00">_handler.h</text>
</a>
</g>
</g>
<!-- Node1&#45;&gt;Node5 -->
<g id="edge41_Node000001_Node000005" class="edge">
<title>Node1&#45;&gt;Node5</title>
<g id="a_edge41_Node000001_Node000005"><a xlink:title=" ">
<path fill="none" stroke="#63b8ff" d="M239.17,-379.82C144.06,-361.55 0,-325.47 0,-274.5 0,-274.5 0,-274.5 0,-146 0,-103.02 31.35,-61.62 53.78,-37.51"/>
<polygon fill="#63b8ff" stroke="#63b8ff" points="56.58,-39.65 60.98,-30.01 51.53,-34.79 56.58,-39.65"/>
</a>
</g>
</g>
<!-- Node44 -->
<g id="Node000044" class="node">
<title>Node44</title>
<g id="a_Node000044"><a xlink:title=" ">
<polygon fill="#e0e0e0" stroke="#999999" points="564,-338 426,-338 426,-319 564,-319 564,-338"/>
<text text-anchor="middle" x="495" y="-326" font-family="Helvetica,sans-Serif" font-size="10.00">deal.II/base/exceptions.h</text>
</a>
</g>
</g>
<!-- Node1&#45;&gt;Node44 -->
<g id="edge40_Node000001_Node000044" class="edge">
<title>Node1&#45;&gt;Node44</title>
<g id="a_edge40_Node000001_Node000044"><a xlink:title=" ">
<path fill="none" stroke="#63b8ff" d="M374.15,-373.95C402.79,-363.42 437.22,-350.75 461.99,-341.64"/>
<polygon fill="#63b8ff" stroke="#63b8ff" points="463.46,-344.83 471.64,-338.09 461.05,-338.26 463.46,-344.83"/>
</a>
</g>
</g>
<!-- Node3 -->
<g id="Node000003" class="node">
<title>Node3</title>
<g id="a_Node000003"><a xlink:href="parameters_8h.html" target="_top" xlink:title=" ">
<polygon fill="white" stroke="#666666" points="374,-283 268,-283 268,-264 374,-264 374,-283"/>
<text text-anchor="middle" x="321" y="-271" font-family="Helvetica,sans-Serif" font-size="10.00">core/parameters.h</text>
</a>
</g>
</g>
<!-- Node2&#45;&gt;Node3 -->
<g id="edge2_Node000002_Node000003" class="edge">
<title>Node2&#45;&gt;Node3</title>
<g id="a_edge2_Node000002_Node000003"><a xlink:title=" ">
<path fill="none" stroke="#63b8ff" d="M321,-318.75C321,-311.8 321,-301.85 321,-293.13"/>
<polygon fill="#63b8ff" stroke="#63b8ff" points="324.5,-293.09 321,-283.09 317.5,-293.09 324.5,-293.09"/>
</a>
</g>
</g>
<!-- Node2&#45;&gt;Node5 -->
<g id="edge37_Node000002_Node000005" class="edge">
<title>Node2&#45;&gt;Node5</title>
<g id="a_edge37_Node000002_Node000005"><a xlink:title=" ">
<path fill="none" stroke="#63b8ff" d="M275.22,-318.98C195.12,-302.75 38,-264.49 38,-214 38,-214 38,-214 38,-146 38,-107.39 53.63,-64.83 64.85,-39.27"/>
<polygon fill="#63b8ff" stroke="#63b8ff" points="68.09,-40.59 69.03,-30.03 61.71,-37.7 68.09,-40.59"/>
</a>
</g>
</g>
<!-- Node42 -->
<g id="Node000042" class="node">
<title>Node42</title>
<g id="a_Node000042"><a xlink:title=" ">
<polygon fill="#e0e0e0" stroke="#999999" points="514,-283 392,-283 392,-264 514,-264 514,-283"/>
<text text-anchor="middle" x="453" y="-271" font-family="Helvetica,sans-Serif" font-size="10.00">deal.II/base/utilities.h</text>
</a>
</g>
</g>
<!-- Node2&#45;&gt;Node42 -->
<g id="edge38_Node000002_Node000042" class="edge">
<title>Node2&#45;&gt;Node42</title>
<g id="a_edge38_Node000002_Node000042"><a xlink:title=" ">
<path fill="none" stroke="#63b8ff" d="M342.21,-318.98C363.73,-310.34 397.28,-296.87 421.83,-287.02"/>
<polygon fill="#63b8ff" stroke="#63b8ff" points="423.43,-290.14 431.41,-283.17 420.82,-283.65 423.43,-290.14"/>
</a>
</g>
</g>
<!-- Node43 -->
<g id="Node000043" class="node">
<title>Node43</title>
<g id="a_Node000043"><a xlink:title=" ">
<polygon fill="#e0e0e0" stroke="#999999" points="596,-283 532,-283 532,-264 596,-264 596,-283"/>
<text text-anchor="middle" x="564" y="-271" font-family="Helvetica,sans-Serif" font-size="10.00">algorithm</text>
</a>
</g>
</g>
<!-- Node2&#45;&gt;Node43 -->
<g id="edge39_Node000002_Node000043" class="edge">
<title>Node2&#45;&gt;Node43</title>
<g id="a_edge39_Node000002_Node000043"><a xlink:title=" ">
<path fill="none" stroke="#63b8ff" d="M360.04,-318.98C404.32,-309.33 476.26,-293.64 521.81,-283.7"/>
<polygon fill="#63b8ff" stroke="#63b8ff" points="522.64,-287.1 531.66,-281.55 521.15,-280.26 522.64,-287.1"/>
</a>
</g>
</g>
<!-- Node4 -->
<g id="Node000004" class="node">
<title>Node4</title>
<g id="a_Node000004"><a xlink:href="dimensionality_8h.html" target="_top" xlink:title=" ">
<polygon fill="white" stroke="#666666" points="259.5,-156.5 138.5,-156.5 138.5,-137.5 259.5,-137.5 259.5,-156.5"/>
<text text-anchor="middle" x="199" y="-144.5" font-family="Helvetica,sans-Serif" font-size="10.00">core/dimensionality.h</text>
</a>
</g>
</g>
<!-- Node3&#45;&gt;Node4 -->
<g id="edge3_Node000003_Node000004" class="edge">
<title>Node3&#45;&gt;Node4</title>
<g id="a_edge3_Node000003_Node000004"><a xlink:title=" ">
<path fill="none" stroke="#63b8ff" d="M312.61,-263.94C292.42,-243.33 240.81,-190.67 214.67,-164"/>
<polygon fill="#63b8ff" stroke="#63b8ff" points="216.94,-161.31 207.44,-156.62 211.94,-166.21 216.94,-161.31"/>
</a>
</g>
</g>
<!-- Node3&#45;&gt;Node5 -->
<g id="edge34_Node000003_Node000005" class="edge">
<title>Node3&#45;&gt;Node5</title>
<g id="a_edge34_Node000003_Node000005"><a xlink:title=" ">
<path fill="none" stroke="#63b8ff" d="M294.45,-263.93C253.36,-249.38 174.39,-216.04 129,-162 98.75,-125.98 85.11,-71.26 79.5,-40.05"/>
<polygon fill="#63b8ff" stroke="#63b8ff" points="82.93,-39.35 77.83,-30.06 76.03,-40.5 82.93,-39.35"/>
</a>
</g>
</g>
<!-- Node6 -->
<g id="Node000006" class="node">
<title>Node6</title>
<g id="a_Node000006"><a xlink:href="ib__particle_8h.html" target="_top" xlink:title=" ">
<polygon fill="white" stroke="#666666" points="450.5,-222.5 349.5,-222.5 349.5,-203.5 450.5,-203.5 450.5,-222.5"/>
<text text-anchor="middle" x="400" y="-210.5" font-family="Helvetica,sans-Serif" font-size="10.00">core/ib_particle.h</text>
</a>
</g>
</g>
<!-- Node3&#45;&gt;Node6 -->
<g id="edge5_Node000003_Node000006" class="edge">
<title>Node3&#45;&gt;Node6</title>
<g id="a_edge5_Node000003_Node000006"><a xlink:title=" ">
<path fill="none" stroke="#63b8ff" d="M332.66,-263.87C345.14,-254.62 365.18,-239.78 380.16,-228.69"/>
<polygon fill="#63b8ff" stroke="#63b8ff" points="382.34,-231.43 388.3,-222.67 378.18,-225.81 382.34,-231.43"/>
</a>
</g>
</g>
<!-- Node14 -->
<g id="Node000014" class="node">
<title>Node14</title>
<g id="a_Node000014"><a xlink:href="core_2utilities_8h.html" target="_top" xlink:title=" ">
<polygon fill="#fff0f0" stroke="red" points="372,-90.5 286,-90.5 286,-71.5 372,-71.5 372,-90.5"/>
<text text-anchor="middle" x="329" y="-78.5" font-family="Helvetica,sans-Serif" font-size="10.00">core/utilities.h</text>
</a>
</g>
</g>
<!-- Node3&#45;&gt;Node14 -->
<g id="edge33_Node000003_Node000014" class="edge">
<title>Node3&#45;&gt;Node14</title>
<g id="a_edge33_Node000003_Node000014"><a xlink:title=" ">
<path fill="none" stroke="#63b8ff" d="M321.36,-263.82C322.58,-234.87 326.51,-141.2 328.21,-100.82"/>
<polygon fill="#63b8ff" stroke="#63b8ff" points="331.71,-100.87 328.63,-90.73 324.72,-100.58 331.71,-100.87"/>
</a>
</g>
</g>
<!-- Node39 -->
<g id="Node000039" class="node">
<title>Node39</title>
<g id="a_Node000039"><a xlink:title=" ">
<polygon fill="#e0e0e0" stroke="#999999" points="1144.5,-162 1035.5,-162 1035.5,-132 1144.5,-132 1144.5,-162"/>
<text text-anchor="start" x="1043.5" y="-150" font-family="Helvetica,sans-Serif" font-size="10.00">deal.II/base/parsed</text>
<text text-anchor="middle" x="1090" y="-139" font-family="Helvetica,sans-Serif" font-size="10.00">_function.h</text>
</a>
</g>
</g>
<!-- Node3&#45;&gt;Node39 -->
<g id="edge35_Node000003_Node000039" class="edge">
<title>Node3&#45;&gt;Node39</title>
<g id="a_edge35_Node000003_Node000039"><a xlink:title=" ">
<path fill="none" stroke="#63b8ff" d="M360.25,-263.94C388.94,-256.75 428.24,-244.9 460,-228 479,-217.89 477.92,-205.74 498,-198 605.04,-156.72 894.56,-177.65 1025.2,-162"/>
<polygon fill="#63b8ff" stroke="#63b8ff" points="1026,-165.43 1035.46,-160.65 1025.09,-158.49 1026,-165.43"/>
</a>
</g>
</g>
<!-- Node40 -->
<g id="Node000040" class="node">
<title>Node40</title>
<g id="a_Node000040"><a xlink:href="multiphysics_8h.html" target="_top" xlink:title="Identifiers for multiphysics modules and their solution fields.">
<polygon fill="white" stroke="#666666" points="619,-222.5 507,-222.5 507,-203.5 619,-203.5 619,-222.5"/>
<text text-anchor="middle" x="563" y="-210.5" font-family="Helvetica,sans-Serif" font-size="10.00">core/multiphysics.h</text>
</a>
</g>
</g>
<!-- Node3&#45;&gt;Node40 -->
<g id="edge32_Node000003_Node000040" class="edge">
<title>Node3&#45;&gt;Node40</title>
<g id="a_edge32_Node000003_Node000040"><a xlink:title=" ">
<path fill="none" stroke="#63b8ff" d="M356.19,-263.99C398.93,-253.66 471.12,-236.21 517.9,-224.9"/>
<polygon fill="#63b8ff" stroke="#63b8ff" points="518.87,-228.27 527.77,-222.52 517.23,-221.46 518.87,-228.27"/>
</a>
</g>
</g>
<!-- Node41 -->
<g id="Node000041" class="node">
<title>Node41</title>
<g id="a_Node000041"><a xlink:title=" ">
<polygon fill="#e0e0e0" stroke="#999999" points="800.5,-228 637.5,-228 637.5,-198 800.5,-198 800.5,-228"/>
<text text-anchor="start" x="645.5" y="-216" font-family="Helvetica,sans-Serif" font-size="10.00">deal.II/multigrid/mg</text>
<text text-anchor="middle" x="719" y="-205" font-family="Helvetica,sans-Serif" font-size="10.00">_transfer_global_coarsening.h</text>
</a>
</g>
</g>
<!-- Node3&#45;&gt;Node41 -->
<g id="edge36_Node000003_Node000041" class="edge">
<title>Node3&#45;&gt;Node41</title>
<g id="a_edge36_Node000003_Node000041"><a xlink:title=" ">
<path fill="none" stroke="#63b8ff" d="M374.26,-264.92C433.41,-256.48 532.02,-242.3 627.08,-228.13"/>
<polygon fill="#63b8ff" stroke="#63b8ff" points="627.78,-231.56 637.15,-226.63 626.75,-224.64 627.78,-231.56"/>
</a>
</g>
</g>
<!-- Node4&#45;&gt;Node5 -->
<g id="edge4_Node000004_Node000005" class="edge">
<title>Node4&#45;&gt;Node5</title>
<g id="a_edge4_Node000004_Node000005"><a xlink:title=" ">
<path fill="none" stroke="#63b8ff" d="M185.4,-137.48C171.34,-128.29 149.22,-112.71 133,-96 116.06,-78.56 100.31,-55.72 89.67,-38.92"/>
<polygon fill="#63b8ff" stroke="#63b8ff" points="92.56,-36.93 84.32,-30.27 86.61,-40.62 92.56,-36.93"/>
</a>
</g>
</g>
<!-- Node7 -->
<g id="Node000007" class="node">
<title>Node7</title>
<g id="a_Node000007"><a xlink:href="dem__properties_8h.html" target="_top" xlink:title="DEM particle property definitions and output name management.">
<polygon fill="white" stroke="#666666" points="268,-90.5 142,-90.5 142,-71.5 268,-71.5 268,-90.5"/>
<text text-anchor="middle" x="205" y="-78.5" font-family="Helvetica,sans-Serif" font-size="10.00">core/dem_properties.h</text>
</a>
</g>
</g>
<!-- Node6&#45;&gt;Node7 -->
<g id="edge6_Node000006_Node000007" class="edge">
<title>Node6&#45;&gt;Node7</title>
<g id="a_edge6_Node000006_Node000007"><a xlink:title=" ">
<path fill="none" stroke="#63b8ff" d="M387.21,-203.47C354.36,-181.57 266.79,-123.19 226.2,-96.13"/>
<polygon fill="#63b8ff" stroke="#63b8ff" points="228.1,-93.2 217.84,-90.56 224.22,-99.02 228.1,-93.2"/>
</a>
</g>
</g>
<!-- Node9 -->
<g id="Node000009" class="node">
<title>Node9</title>
<g id="a_Node000009"><a xlink:title=" ">
<polygon fill="#e0e0e0" stroke="#999999" points="352.5,-24.5 305.5,-24.5 305.5,-5.5 352.5,-5.5 352.5,-24.5"/>
<text text-anchor="middle" x="329" y="-12.5" font-family="Helvetica,sans-Serif" font-size="10.00">vector</text>
</a>
</g>
</g>
<!-- Node6&#45;&gt;Node9 -->
<g id="edge31_Node000006_Node000009" class="edge">
<title>Node6&#45;&gt;Node9</title>
<g id="a_edge31_Node000006_Node000009"><a xlink:title=" ">
<path fill="none" stroke="#63b8ff" d="M400.8,-203.19C402.55,-179.54 404.83,-113.24 381,-66 373.9,-51.92 361.2,-39.6 350.14,-30.71"/>
<polygon fill="#63b8ff" stroke="#63b8ff" points="352.19,-27.87 342.11,-24.6 347.95,-33.44 352.19,-27.87"/>
</a>
</g>
</g>
<!-- Node10 -->
<g id="Node000010" class="node">
<title>Node10</title>
<g id="a_Node000010"><a xlink:href="shape_8h.html" target="_top" xlink:title=" ">
<polygon fill="white" stroke="#666666" points="1017.5,-156.5 938.5,-156.5 938.5,-137.5 1017.5,-137.5 1017.5,-156.5"/>
<text text-anchor="middle" x="978" y="-144.5" font-family="Helvetica,sans-Serif" font-size="10.00">core/shape.h</text>
</a>
</g>
</g>
<!-- Node6&#45;&gt;Node10 -->
<g id="edge9_Node000006_Node000010" class="edge">
<title>Node6&#45;&gt;Node10</title>
<g id="a_edge9_Node000006_Node000010"><a xlink:title=" ">
<path fill="none" stroke="#63b8ff" d="M435.96,-203.48C445.37,-201.47 455.53,-199.48 465,-198 633.78,-171.69 836.09,-156.81 928.08,-150.95"/>
<polygon fill="#63b8ff" stroke="#63b8ff" points="928.46,-154.43 938.22,-150.31 928.02,-147.45 928.46,-154.43"/>
</a>
</g>
</g>
<!-- Node12 -->
<g id="Node000012" class="node">
<title>Node12</title>
<g id="a_Node000012"><a xlink:title=" ">
<polygon fill="#e0e0e0" stroke="#999999" points="493,-24.5 383,-24.5 383,-5.5 493,-5.5 493,-24.5"/>
<text text-anchor="middle" x="438" y="-12.5" font-family="Helvetica,sans-Serif" font-size="10.00">deal.II/base/point.h</text>
</a>
</g>
</g>
<!-- Node6&#45;&gt;Node12 -->
<g id="edge30_Node000006_Node000012" class="edge">
<title>Node6&#45;&gt;Node12</title>
<g id="a_edge30_Node000006_Node000012"><a xlink:title=" ">
<path fill="none" stroke="#63b8ff" d="M402.77,-203.22C405.84,-193.3 410.76,-176.61 414,-162 424.06,-116.59 431.89,-62.38 435.62,-34.54"/>
<polygon fill="#63b8ff" stroke="#63b8ff" points="439.09,-34.99 436.92,-24.62 432.15,-34.08 439.09,-34.99"/>
</a>
</g>
</g>
<!-- Node6&#45;&gt;Node39 -->
<g id="edge29_Node000006_Node000039" class="edge">
<title>Node6&#45;&gt;Node39</title>
<g id="a_edge29_Node000006_Node000039"><a xlink:title=" ">
<path fill="none" stroke="#63b8ff" d="M434.91,-203.49C444.61,-201.39 455.17,-199.37 465,-198 709.64,-164.01 777.43,-196.38 1025.42,-162.07"/>
<polygon fill="#63b8ff" stroke="#63b8ff" points="1026.04,-165.52 1035.46,-160.66 1025.07,-158.59 1026.04,-165.52"/>
</a>
</g>
</g>
<!-- Node8 -->
<g id="Node000008" class="node">
<title>Node8</title>
<g id="a_Node000008"><a xlink:title=" ">
<polygon fill="#e0e0e0" stroke="#999999" points="257,-24.5 213,-24.5 213,-5.5 257,-5.5 257,-24.5"/>
<text text-anchor="middle" x="235" y="-12.5" font-family="Helvetica,sans-Serif" font-size="10.00">string</text>
</a>
</g>
</g>
<!-- Node7&#45;&gt;Node8 -->
<g id="edge7_Node000007_Node000008" class="edge">
<title>Node7&#45;&gt;Node8</title>
<g id="a_edge7_Node000007_Node000008"><a xlink:title=" ">
<path fill="none" stroke="#63b8ff" d="M209.05,-71.37C213.49,-61.88 220.77,-46.36 226.49,-34.16"/>
<polygon fill="#63b8ff" stroke="#63b8ff" points="229.75,-35.45 230.83,-24.91 223.41,-32.47 229.75,-35.45"/>
</a>
</g>
</g>
<!-- Node7&#45;&gt;Node9 -->
<g id="edge8_Node000007_Node000009" class="edge">
<title>Node7&#45;&gt;Node9</title>
<g id="a_edge8_Node000007_Node000009"><a xlink:title=" ">
<path fill="none" stroke="#63b8ff" d="M221.72,-71.37C242.62,-60.59 278.59,-42.02 303.07,-29.38"/>
<polygon fill="#63b8ff" stroke="#63b8ff" points="304.86,-32.4 312.15,-24.7 301.65,-26.18 304.86,-32.4"/>
</a>
</g>
</g>
<!-- Node11 -->
<g id="Node000011" class="node">
<title>Node11</title>
<g id="a_Node000011"><a xlink:href="tensors__and__points__dimension__manipulation_8h.html" target="_top" xlink:title=" ">
<polygon fill="#fff0f0" stroke="red" points="618,-96 466,-96 466,-66 618,-66 618,-96"/>
<text text-anchor="start" x="474" y="-84" font-family="Helvetica,sans-Serif" font-size="10.00">core/tensors_and_points</text>
<text text-anchor="middle" x="542" y="-73" font-family="Helvetica,sans-Serif" font-size="10.00">_dimension_manipulation.h</text>
</a>
</g>
</g>
<!-- Node10&#45;&gt;Node11 -->
<g id="edge10_Node000010_Node000011" class="edge">
<title>Node10&#45;&gt;Node11</title>
<g id="a_edge10_Node000010_Node000011"><a xlink:title=" ">
<path fill="none" stroke="#63b8ff" d="M938.28,-140.4C873.93,-131.3 742.89,-112.64 632,-96 630.72,-95.81 629.44,-95.62 628.15,-95.42"/>
<polygon fill="#63b8ff" stroke="#63b8ff" points="628.51,-91.94 618.1,-93.9 627.46,-98.86 628.51,-91.94"/>
</a>
</g>
</g>
<!-- Node10&#45;&gt;Node14 -->
<g id="edge12_Node000010_Node000014" class="edge">
<title>Node10&#45;&gt;Node14</title>
<g id="a_edge12_Node000010_Node000014"><a xlink:title=" ">
<path fill="none" stroke="#63b8ff" d="M938.44,-142.38C851.38,-134.39 636.65,-114.44 457,-96 432.51,-93.49 405.4,-90.54 382.46,-88.01"/>
<polygon fill="#63b8ff" stroke="#63b8ff" points="382.56,-84.5 372.24,-86.87 381.79,-91.45 382.56,-84.5"/>
</a>
</g>
</g>
<!-- Node19 -->
<g id="Node000019" class="node">
<title>Node19</title>
<g id="a_Node000019"><a xlink:title=" ">
<polygon fill="#e0e0e0" stroke="#999999" points="683,-24.5 543,-24.5 543,-5.5 683,-5.5 683,-24.5"/>
<text text-anchor="middle" x="613" y="-12.5" font-family="Helvetica,sans-Serif" font-size="10.00">deal.II/dofs/dof_handler.h</text>
</a>
</g>
</g>
<!-- Node10&#45;&gt;Node19 -->
<g id="edge24_Node000010_Node000019" class="edge">
<title>Node10&#45;&gt;Node19</title>
<g id="a_edge24_Node000010_Node000019"><a xlink:title=" ">
<path fill="none" stroke="#63b8ff" d="M938.26,-143.65C864.41,-138.63 709.47,-124.9 665,-96 642.37,-81.29 627.48,-52.9 619.65,-34.2"/>
<polygon fill="#63b8ff" stroke="#63b8ff" points="622.84,-32.75 615.93,-24.72 616.32,-35.31 622.84,-32.75"/>
</a>
</g>
</g>
<!-- Node29 -->
<g id="Node000029" class="node">
<title>Node29</title>
<g id="a_Node000029"><a xlink:title=" ">
<polygon fill="#e0e0e0" stroke="#999999" points="826,-96 674,-96 674,-66 826,-66 826,-96"/>
<text text-anchor="start" x="682" y="-84" font-family="Helvetica,sans-Serif" font-size="10.00">deal.II/base/auto_derivative</text>
<text text-anchor="middle" x="750" y="-73" font-family="Helvetica,sans-Serif" font-size="10.00">_function.h</text>
</a>
</g>
</g>
<!-- Node10&#45;&gt;Node29 -->
<g id="edge18_Node000010_Node000029" class="edge">
<title>Node10&#45;&gt;Node29</title>
<g id="a_edge18_Node000010_Node000029"><a xlink:title=" ">
<path fill="none" stroke="#63b8ff" d="M947.25,-137.37C912.22,-127.54 854.13,-111.23 810.03,-98.85"/>
<polygon fill="#63b8ff" stroke="#63b8ff" points="810.86,-95.45 800.29,-96.12 808.97,-102.19 810.86,-95.45"/>
</a>
</g>
</g>
<!-- Node30 -->
<g id="Node000030" class="node">
<title>Node30</title>
<g id="a_Node000030"><a xlink:title=" ">
<polygon fill="#e0e0e0" stroke="#999999" points="969.5,-90.5 844.5,-90.5 844.5,-71.5 969.5,-71.5 969.5,-90.5"/>
<text text-anchor="middle" x="907" y="-78.5" font-family="Helvetica,sans-Serif" font-size="10.00">deal.II/base/function.h</text>
</a>
</g>
</g>
<!-- Node10&#45;&gt;Node30 -->
<g id="edge19_Node000010_Node000030" class="edge">
<title>Node10&#45;&gt;Node30</title>
<g id="a_edge19_Node000010_Node000030"><a xlink:title=" ">
<path fill="none" stroke="#63b8ff" d="M968.42,-137.37C957.16,-127.21 938.24,-110.16 924.37,-97.65"/>
<polygon fill="#63b8ff" stroke="#63b8ff" points="926.65,-95 916.88,-90.91 921.96,-100.2 926.65,-95"/>
</a>
</g>
</g>
<!-- Node31 -->
<g id="Node000031" class="node">
<title>Node31</title>
<g id="a_Node000031"><a xlink:title=" ">
<polygon fill="#e0e0e0" stroke="#999999" points="1112,-90.5 988,-90.5 988,-71.5 1112,-71.5 1112,-90.5"/>
<text text-anchor="middle" x="1050" y="-78.5" font-family="Helvetica,sans-Serif" font-size="10.00">deal.II/grid/manifold.h</text>
</a>
</g>
</g>
<!-- Node10&#45;&gt;Node31 -->
<g id="edge20_Node000010_Node000031" class="edge">
<title>Node10&#45;&gt;Node31</title>
<g id="a_edge20_Node000010_Node000031"><a xlink:title=" ">
<path fill="none" stroke="#63b8ff" d="M987.71,-137.37C999.13,-127.21 1018.32,-110.16 1032.39,-97.65"/>
<polygon fill="#63b8ff" stroke="#63b8ff" points="1034.83,-100.16 1039.98,-90.91 1030.18,-94.93 1034.83,-100.16"/>
</a>
</g>
</g>
<!-- Node32 -->
<g id="Node000032" class="node">
<title>Node32</title>
<g id="a_Node000032"><a xlink:title=" ">
<polygon fill="#e0e0e0" stroke="#999999" points="1245.5,-96 1130.5,-96 1130.5,-66 1245.5,-66 1245.5,-96"/>
<text text-anchor="start" x="1138.5" y="-84" font-family="Helvetica,sans-Serif" font-size="10.00">deal.II/grid/manifold</text>
<text text-anchor="middle" x="1188" y="-73" font-family="Helvetica,sans-Serif" font-size="10.00">_lib.h</text>
</a>
</g>
</g>
<!-- Node10&#45;&gt;Node32 -->
<g id="edge21_Node000010_Node000032" class="edge">
<title>Node10&#45;&gt;Node32</title>
<g id="a_edge21_Node000010_Node000032"><a xlink:title=" ">
<path fill="none" stroke="#63b8ff" d="M1006.32,-137.37C1038.38,-127.6 1091.42,-111.43 1131.94,-99.09"/>
<polygon fill="#63b8ff" stroke="#63b8ff" points="1133.14,-102.38 1141.68,-96.12 1131.1,-95.68 1133.14,-102.38"/>
</a>
</g>
</g>
<!-- Node33 -->
<g id="Node000033" class="node">
<title>Node33</title>
<g id="a_Node000033"><a xlink:title=" ">
<polygon fill="#e0e0e0" stroke="#999999" points="1378.5,-96 1263.5,-96 1263.5,-66 1378.5,-66 1378.5,-96"/>
<text text-anchor="start" x="1271.5" y="-84" font-family="Helvetica,sans-Serif" font-size="10.00">boost/range/adaptor</text>
<text text-anchor="middle" x="1321" y="-73" font-family="Helvetica,sans-Serif" font-size="10.00">/map.hpp</text>
</a>
</g>
</g>
<!-- Node10&#45;&gt;Node33 -->
<g id="edge22_Node000010_Node000033" class="edge">
<title>Node10&#45;&gt;Node33</title>
<g id="a_edge22_Node000010_Node000033"><a xlink:title=" ">
<path fill="none" stroke="#63b8ff" d="M1005.58,-137.49C1012.53,-135.52 1020,-133.55 1027,-132 1124.04,-110.56 1152.37,-114.38 1253.43,-96.22"/>
<polygon fill="#63b8ff" stroke="#63b8ff" points="1254.23,-99.63 1263.44,-94.39 1252.98,-92.75 1254.23,-99.63"/>
</a>
</g>
</g>
<!-- Node34 -->
<g id="Node000034" class="node">
<title>Node34</title>
<g id="a_Node000034"><a xlink:title=" ">
<polygon fill="#e0e0e0" stroke="#999999" points="1513,-96 1397,-96 1397,-66 1513,-66 1513,-96"/>
<text text-anchor="start" x="1405" y="-84" font-family="Helvetica,sans-Serif" font-size="10.00">deal.II/base/function</text>
<text text-anchor="middle" x="1455" y="-73" font-family="Helvetica,sans-Serif" font-size="10.00">_signed_distance.h</text>
</a>
</g>
</g>
<!-- Node10&#45;&gt;Node34 -->
<g id="edge23_Node000010_Node000034" class="edge">
<title>Node10&#45;&gt;Node34</title>
<g id="a_edge23_Node000010_Node000034"><a xlink:title=" ">
<path fill="none" stroke="#63b8ff" d="M1004.49,-137.5C1011.73,-135.43 1019.61,-133.41 1027,-132 1182.13,-102.35 1226.81,-119.77 1386.76,-96.07"/>
<polygon fill="#63b8ff" stroke="#63b8ff" points="1387.6,-99.48 1396.96,-94.52 1386.55,-92.56 1387.6,-99.48"/>
</a>
</g>
</g>
<!-- Node35 -->
<g id="Node000035" class="node">
<title>Node35</title>
<g id="a_Node000035"><a xlink:title=" ">
<polygon fill="#e0e0e0" stroke="#999999" points="1659,-90.5 1531,-90.5 1531,-71.5 1659,-71.5 1659,-90.5"/>
<text text-anchor="middle" x="1595" y="-78.5" font-family="Helvetica,sans-Serif" font-size="10.00">deal.II/dofs/dof_tools.h</text>
</a>
</g>
</g>
<!-- Node10&#45;&gt;Node35 -->
<g id="edge25_Node000010_Node000035" class="edge">
<title>Node10&#45;&gt;Node35</title>
<g id="a_edge25_Node000010_Node000035"><a xlink:title=" ">
<path fill="none" stroke="#63b8ff" d="M1004.21,-137.44C1011.52,-135.34 1019.51,-133.33 1027,-132 1244.19,-93.5 1303.31,-124.82 1522,-96 1529.47,-95.02 1537.34,-93.75 1545.02,-92.39"/>
<polygon fill="#63b8ff" stroke="#63b8ff" points="1545.78,-95.81 1554.97,-90.55 1544.51,-88.92 1545.78,-95.81"/>
</a>
</g>
</g>
<!-- Node36 -->
<g id="Node000036" class="node">
<title>Node36</title>
<g id="a_Node000036"><a xlink:title=" ">
<polygon fill="#e0e0e0" stroke="#999999" points="1853,-90.5 1677,-90.5 1677,-71.5 1853,-71.5 1853,-90.5"/>
<text text-anchor="middle" x="1765" y="-78.5" font-family="Helvetica,sans-Serif" font-size="10.00">deal.II/physics/transformations.h</text>
</a>
</g>
</g>
<!-- Node10&#45;&gt;Node36 -->
<g id="edge26_Node000010_Node000036" class="edge">
<title>Node10&#45;&gt;Node36</title>
<g id="a_edge26_Node000010_Node000036"><a xlink:title=" ">
<path fill="none" stroke="#63b8ff" d="M1003.69,-137.5C1011.13,-135.35 1019.32,-133.3 1027,-132 1308.36,-84.51 1384.08,-124.41 1668,-96 1678.95,-94.9 1690.57,-93.47 1701.8,-91.93"/>
<polygon fill="#63b8ff" stroke="#63b8ff" points="1702.57,-95.36 1711.99,-90.5 1701.6,-88.43 1702.57,-95.36"/>
</a>
</g>
</g>
<!-- Node37 -->
<g id="Node000037" class="node">
<title>Node37</title>
<g id="a_Node000037"><a xlink:title=" ">
<polygon fill="#e0e0e0" stroke="#999999" points="1915,-90.5 1871,-90.5 1871,-71.5 1915,-71.5 1915,-90.5"/>
<text text-anchor="middle" x="1893" y="-78.5" font-family="Helvetica,sans-Serif" font-size="10.00">cfloat</text>
</a>
</g>
</g>
<!-- Node10&#45;&gt;Node37 -->
<g id="edge27_Node000010_Node000037" class="edge">
<title>Node10&#45;&gt;Node37</title>
<g id="a_edge27_Node000010_Node000037"><a xlink:title=" ">
<path fill="none" stroke="#63b8ff" d="M1003.68,-137.44C1011.12,-135.29 1019.31,-133.25 1027,-132 1393.67,-72.57 1500.64,-182 1862,-96 1863.74,-95.59 1865.5,-95.08 1867.25,-94.49"/>
<polygon fill="#63b8ff" stroke="#63b8ff" points="1869,-97.57 1877,-90.62 1866.42,-91.06 1869,-97.57"/>
</a>
</g>
</g>
<!-- Node38 -->
<g id="Node000038" class="node">
<title>Node38</title>
<g id="a_Node000038"><a xlink:title=" ">
<polygon fill="#e0e0e0" stroke="#999999" points="1991,-90.5 1933,-90.5 1933,-71.5 1991,-71.5 1991,-90.5"/>
<text text-anchor="middle" x="1962" y="-78.5" font-family="Helvetica,sans-Serif" font-size="10.00">memory</text>
</a>
</g>
</g>
<!-- Node10&#45;&gt;Node38 -->
<g id="edge28_Node000010_Node000038" class="edge">
<title>Node10&#45;&gt;Node38</title>
<g id="a_edge28_Node000010_Node000038"><a xlink:title=" ">
<path fill="none" stroke="#63b8ff" d="M1003.43,-137.49C1010.93,-135.32 1019.23,-133.25 1027,-132 1420.94,-68.75 1532.69,-173.92 1924,-96 1926.84,-95.43 1929.76,-94.69 1932.65,-93.83"/>
<polygon fill="#63b8ff" stroke="#63b8ff" points="1933.86,-97.12 1942.22,-90.61 1931.63,-90.48 1933.86,-97.12"/>
</a>
</g>
</g>
<!-- Node11&#45;&gt;Node12 -->
<g id="edge11_Node000011_Node000012" class="edge">
<title>Node11&#45;&gt;Node12</title>
<g id="a_edge11_Node000011_Node000012"><a xlink:title=" ">
<path fill="none" stroke="#63b8ff" d="M519.18,-65.95C501.82,-55.27 478.06,-40.65 460.73,-29.98"/>
<polygon fill="#63b8ff" stroke="#63b8ff" points="462.19,-26.78 451.84,-24.52 458.52,-32.74 462.19,-26.78"/>
</a>
</g>
</g>
<!-- Node14&#45;&gt;Node5 -->
<g id="edge13_Node000014_Node000005" class="edge">
<title>Node14&#45;&gt;Node5</title>
<g id="a_edge13_Node000014_Node000005"><a xlink:title=" ">
<path fill="none" stroke="#63b8ff" d="M297.68,-71.46C290.87,-69.64 283.7,-67.73 277,-66 232.74,-54.54 182.87,-42.13 143.87,-32.54"/>
<polygon fill="#63b8ff" stroke="#63b8ff" points="144.24,-29.03 133.69,-30.04 142.57,-35.82 144.24,-29.03"/>
</a>
</g>
</g>
<!-- Node14&#45;&gt;Node8 -->
<g id="edge16_Node000014_Node000008" class="edge">
<title>Node14&#45;&gt;Node8</title>
<g id="a_edge16_Node000014_Node000008"><a xlink:title=" ">
<path fill="none" stroke="#63b8ff" d="M316.32,-71.37C300.91,-60.87 274.65,-43 256.15,-30.4"/>
<polygon fill="#63b8ff" stroke="#63b8ff" points="258.01,-27.43 247.78,-24.7 254.07,-33.22 258.01,-27.43"/>
</a>
</g>
</g>
<!-- Node14&#45;&gt;Node9 -->
<g id="edge17_Node000014_Node000009" class="edge">
<title>Node14&#45;&gt;Node9</title>
<g id="a_edge17_Node000014_Node000009"><a xlink:title=" ">
<path fill="none" stroke="#63b8ff" d="M329,-71.37C329,-62.16 329,-47.29 329,-35.27"/>
<polygon fill="#63b8ff" stroke="#63b8ff" points="332.5,-34.91 329,-24.91 325.5,-34.91 332.5,-34.91"/>
</a>
</g>
</g>
<!-- Node14&#45;&gt;Node12 -->
<g id="edge14_Node000014_Node000012" class="edge">
<title>Node14&#45;&gt;Node12</title>
<g id="a_edge14_Node000014_Node000012"><a xlink:title=" ">
<path fill="none" stroke="#63b8ff" d="M343.7,-71.37C361.82,-60.73 392.85,-42.51 414.34,-29.89"/>
<polygon fill="#63b8ff" stroke="#63b8ff" points="416.33,-32.78 423.18,-24.7 412.79,-26.74 416.33,-32.78"/>
</a>
</g>
</g>
<!-- Node14&#45;&gt;Node19 -->
<g id="edge15_Node000014_Node000019" class="edge">
<title>Node14&#45;&gt;Node19</title>
<g id="a_edge15_Node000014_Node000019"><a xlink:title=" ">
<path fill="none" stroke="#63b8ff" d="M367.01,-71.44C418.23,-59.89 509.42,-39.34 565.23,-26.77"/>
<polygon fill="#63b8ff" stroke="#63b8ff" points="566.23,-30.13 575.22,-24.51 564.69,-23.3 566.23,-30.13"/>
</a>
</g>
</g>
</g>
</svg>
