<?xml version="1.0" encoding="UTF-8" standalone="no"?>
<!DOCTYPE svg PUBLIC "-//W3C//DTD SVG 1.1//EN"
 "http://www.w3.org/Graphics/SVG/1.1/DTD/svg11.dtd">
<!-- Generated by graphviz version 2.43.0 (0)
 -->
<!-- Title: /home/runner/work/lethe/lethe/source/core/parameters.cc Pages: 1 -->
<svg width="2221pt" height="423pt"
 viewBox="0.00 0.00 2220.50 423.00" xmlns="http://www.w3.org/2000/svg" xmlns:xlink="http://www.w3.org/1999/xlink">
<g id="graph0" class="graph" transform="scale(1 1) rotate(0) translate(4 419)">
<title>/home/runner/work/lethe/lethe/source/core/parameters.cc</title>
<!-- Node1 -->
<g id="Node000001" class="node">
<title>Node1</title>
<g id="a_Node000001"><a xlink:title=" ">
<polygon fill="#999999" stroke="#666666" points="1804.5,-415 1628.5,-415 1628.5,-385 1804.5,-385 1804.5,-415"/>
<text text-anchor="start" x="1636.5" y="-403" font-family="Helvetica,sans-Serif" font-size="10.00">/home/runner/work/lethe</text>
<text text-anchor="middle" x="1716.5" y="-392" font-family="Helvetica,sans-Serif" font-size="10.00">/lethe/source/core/parameters.cc</text>
</a>
</g>
</g>
<!-- Node2 -->
<g id="Node000002" class="node">
<title>Node2</title>
<g id="a_Node000002"><a xlink:href="parameters_8h.html" target="_top" xlink:title=" ">
<polygon fill="white" stroke="#666666" points="1008.5,-349 902.5,-349 902.5,-330 1008.5,-330 1008.5,-349"/>
<text text-anchor="middle" x="955.5" y="-337" font-family="Helvetica,sans-Serif" font-size="10.00">core/parameters.h</text>
</a>
</g>
</g>
<!-- Node1&#45;&gt;Node2 -->
<g id="edge1_Node000001_Node000002" class="edge">
<title>Node1&#45;&gt;Node2</title>
<g id="a_edge1_Node000001_Node000002"><a xlink:title=" ">
<path fill="none" stroke="#63b8ff" d="M1628.46,-392.23C1473.27,-380.3 1154.62,-355.81 1018.93,-345.38"/>
<polygon fill="#63b8ff" stroke="#63b8ff" points="1018.95,-341.87 1008.71,-344.59 1018.41,-348.85 1018.95,-341.87"/>
</a>
</g>
</g>
<!-- Node14 -->
<g id="Node000014" class="node">
<title>Node14</title>
<g id="a_Node000014"><a xlink:href="core_2utilities_8h.html" target="_top" xlink:title=" ">
<polygon fill="white" stroke="#666666" points="1744.5,-156.5 1658.5,-156.5 1658.5,-137.5 1744.5,-137.5 1744.5,-156.5"/>
<text text-anchor="middle" x="1701.5" y="-144.5" font-family="Helvetica,sans-Serif" font-size="10.00">core/utilities.h</text>
</a>
</g>
</g>
<!-- Node1&#45;&gt;Node14 -->
<g id="edge50_Node000001_Node000014" class="edge">
<title>Node1&#45;&gt;Node14</title>
<g id="a_edge50_Node000001_Node000014"><a xlink:title=" ">
<path fill="none" stroke="#63b8ff" d="M1705.4,-384.6C1698.78,-375.08 1690.99,-361.99 1687.5,-349 1669.95,-283.77 1686.84,-202.58 1696.2,-166.63"/>
<polygon fill="#63b8ff" stroke="#63b8ff" points="1699.68,-167.19 1698.92,-156.62 1692.92,-165.35 1699.68,-167.19"/>
</a>
</g>
</g>
<!-- Node40 -->
<g id="Node000040" class="node">
<title>Node40</title>
<g id="a_Node000040"><a xlink:title=" ">
<polygon fill="#e0e0e0" stroke="#999999" points="1834.5,-349 1696.5,-349 1696.5,-330 1834.5,-330 1834.5,-349"/>
<text text-anchor="middle" x="1765.5" y="-337" font-family="Helvetica,sans-Serif" font-size="10.00">deal.II/base/exceptions.h</text>
</a>
</g>
</g>
<!-- Node1&#45;&gt;Node40 -->
<g id="edge51_Node000001_Node000040" class="edge">
<title>Node1&#45;&gt;Node40</title>
<g id="a_edge51_Node000001_Node000040"><a xlink:title=" ">
<path fill="none" stroke="#63b8ff" d="M1728.36,-384.84C1735.4,-376.43 1744.36,-365.74 1751.71,-356.96"/>
<polygon fill="#63b8ff" stroke="#63b8ff" points="1754.42,-359.18 1758.16,-349.27 1749.05,-354.68 1754.42,-359.18"/>
</a>
</g>
</g>
<!-- Node41 -->
<g id="Node000041" class="node">
<title>Node41</title>
<g id="a_Node000041"><a xlink:title=" ">
<polygon fill="#e0e0e0" stroke="#999999" points="1916.5,-349 1852.5,-349 1852.5,-330 1916.5,-330 1916.5,-349"/>
<text text-anchor="middle" x="1884.5" y="-337" font-family="Helvetica,sans-Serif" font-size="10.00">algorithm</text>
</a>
</g>
</g>
<!-- Node1&#45;&gt;Node41 -->
<g id="edge52_Node000001_Node000041" class="edge">
<title>Node1&#45;&gt;Node41</title>
<g id="a_edge52_Node000001_Node000041"><a xlink:title=" ">
<path fill="none" stroke="#63b8ff" d="M1756.74,-384.99C1785.27,-375.05 1823.15,-361.86 1850.23,-352.43"/>
<polygon fill="#63b8ff" stroke="#63b8ff" points="1851.4,-355.73 1859.69,-349.14 1849.1,-349.12 1851.4,-355.73"/>
</a>
</g>
</g>
<!-- Node3 -->
<g id="Node000003" class="node">
<title>Node3</title>
<g id="a_Node000003"><a xlink:href="dimensionality_8h.html" target="_top" xlink:title=" ">
<polygon fill="white" stroke="#666666" points="332,-222.5 211,-222.5 211,-203.5 332,-203.5 332,-222.5"/>
<text text-anchor="middle" x="271.5" y="-210.5" font-family="Helvetica,sans-Serif" font-size="10.00">core/dimensionality.h</text>
</a>
</g>
</g>
<!-- Node2&#45;&gt;Node3 -->
<g id="edge2_Node000002_Node000003" class="edge">
<title>Node2&#45;&gt;Node3</title>
<g id="a_edge2_Node000002_Node000003"><a xlink:title=" ">
<path fill="none" stroke="#63b8ff" d="M902.5,-330.5C846.87,-321.97 756.9,-307.82 679.5,-294 550.63,-270.98 399.59,-240.43 322.46,-224.57"/>
<polygon fill="#63b8ff" stroke="#63b8ff" points="323.03,-221.11 312.53,-222.52 321.62,-227.97 323.03,-221.11"/>
</a>
</g>
</g>
<!-- Node4 -->
<g id="Node000004" class="node">
<title>Node4</title>
<g id="a_Node000004"><a xlink:title=" ">
<polygon fill="#e0e0e0" stroke="#999999" points="127,-96 0,-96 0,-66 127,-66 127,-96"/>
<text text-anchor="start" x="8" y="-84" font-family="Helvetica,sans-Serif" font-size="10.00">deal.II/base/parameter</text>
<text text-anchor="middle" x="63.5" y="-73" font-family="Helvetica,sans-Serif" font-size="10.00">_handler.h</text>
</a>
</g>
</g>
<!-- Node2&#45;&gt;Node4 -->
<g id="edge47_Node000002_Node000004" class="edge">
<title>Node2&#45;&gt;Node4</title>
<g id="a_edge47_Node000002_Node000004"><a xlink:title=" ">
<path fill="none" stroke="#63b8ff" d="M902.2,-337.62C776.54,-334.09 453.36,-316.39 201.5,-228 140.36,-206.54 108.11,-215.47 71.5,-162 60.44,-145.84 59.1,-123.37 60.15,-106.36"/>
<polygon fill="#63b8ff" stroke="#63b8ff" points="63.66,-106.37 61.1,-96.09 56.69,-105.72 63.66,-106.37"/>
</a>
</g>
</g>
<!-- Node5 -->
<g id="Node000005" class="node">
<title>Node5</title>
<g id="a_Node000005"><a xlink:href="ib__particle_8h.html" target="_top" xlink:title=" ">
<polygon fill="white" stroke="#666666" points="1176,-288.5 1075,-288.5 1075,-269.5 1176,-269.5 1176,-288.5"/>
<text text-anchor="middle" x="1125.5" y="-276.5" font-family="Helvetica,sans-Serif" font-size="10.00">core/ib_particle.h</text>
</a>
</g>
</g>
<!-- Node2&#45;&gt;Node5 -->
<g id="edge4_Node000002_Node000005" class="edge">
<title>Node2&#45;&gt;Node5</title>
<g id="a_edge4_Node000002_Node000005"><a xlink:title=" ">
<path fill="none" stroke="#63b8ff" d="M980.22,-329.99C1009.43,-319.94 1058.2,-303.16 1091.09,-291.84"/>
<polygon fill="#63b8ff" stroke="#63b8ff" points="1092.43,-295.08 1100.75,-288.52 1090.16,-288.46 1092.43,-295.08"/>
</a>
</g>
</g>
<!-- Node2&#45;&gt;Node14 -->
<g id="edge46_Node000002_Node000014" class="edge">
<title>Node2&#45;&gt;Node14</title>
<g id="a_edge46_Node000002_Node000014"><a xlink:title=" ">
<path fill="none" stroke="#63b8ff" d="M1008.59,-334.23C1147.78,-322.36 1519.87,-285.92 1627.5,-228 1655.15,-213.12 1678.05,-183.91 1690.74,-165.21"/>
<polygon fill="#63b8ff" stroke="#63b8ff" points="1693.73,-167.03 1696.27,-156.74 1687.87,-163.2 1693.73,-167.03"/>
</a>
</g>
</g>
<!-- Node37 -->
<g id="Node000037" class="node">
<title>Node37</title>
<g id="a_Node000037"><a xlink:title=" ">
<polygon fill="#e0e0e0" stroke="#999999" points="1047,-228 938,-228 938,-198 1047,-198 1047,-228"/>
<text text-anchor="start" x="946" y="-216" font-family="Helvetica,sans-Serif" font-size="10.00">deal.II/base/parsed</text>
<text text-anchor="middle" x="992.5" y="-205" font-family="Helvetica,sans-Serif" font-size="10.00">_function.h</text>
</a>
</g>
</g>
<!-- Node2&#45;&gt;Node37 -->
<g id="edge48_Node000002_Node000037" class="edge">
<title>Node2&#45;&gt;Node37</title>
<g id="a_edge48_Node000002_Node000037"><a xlink:title=" ">
<path fill="none" stroke="#63b8ff" d="M965.3,-329.72C973.75,-321.45 985.37,-308.24 990.5,-294 996.93,-276.16 997.07,-254.6 995.8,-238.36"/>
<polygon fill="#63b8ff" stroke="#63b8ff" points="999.25,-237.67 994.76,-228.08 992.28,-238.38 999.25,-237.67"/>
</a>
</g>
</g>
<!-- Node38 -->
<g id="Node000038" class="node">
<title>Node38</title>
<g id="a_Node000038"><a xlink:href="multiphysics_8h.html" target="_top" xlink:title="Identifiers for multiphysics modules and their solution fields.">
<polygon fill="white" stroke="#666666" points="800.5,-288.5 688.5,-288.5 688.5,-269.5 800.5,-269.5 800.5,-288.5"/>
<text text-anchor="middle" x="744.5" y="-276.5" font-family="Helvetica,sans-Serif" font-size="10.00">core/multiphysics.h</text>
</a>
</g>
</g>
<!-- Node2&#45;&gt;Node38 -->
<g id="edge45_Node000002_Node000038" class="edge">
<title>Node2&#45;&gt;Node38</title>
<g id="a_edge45_Node000002_Node000038"><a xlink:title=" ">
<path fill="none" stroke="#63b8ff" d="M924.82,-329.99C887.94,-319.77 825.93,-302.58 785.11,-291.26"/>
<polygon fill="#63b8ff" stroke="#63b8ff" points="785.79,-287.82 775.22,-288.52 783.92,-294.56 785.79,-287.82"/>
</a>
</g>
</g>
<!-- Node39 -->
<g id="Node000039" class="node">
<title>Node39</title>
<g id="a_Node000039"><a xlink:title=" ">
<polygon fill="#e0e0e0" stroke="#999999" points="982,-294 819,-294 819,-264 982,-264 982,-294"/>
<text text-anchor="start" x="827" y="-282" font-family="Helvetica,sans-Serif" font-size="10.00">deal.II/multigrid/mg</text>
<text text-anchor="middle" x="900.5" y="-271" font-family="Helvetica,sans-Serif" font-size="10.00">_transfer_global_coarsening.h</text>
</a>
</g>
</g>
<!-- Node2&#45;&gt;Node39 -->
<g id="edge49_Node000002_Node000039" class="edge">
<title>Node2&#45;&gt;Node39</title>
<g id="a_edge49_Node000002_Node000039"><a xlink:title=" ">
<path fill="none" stroke="#63b8ff" d="M947.38,-329.87C940.41,-322.44 930.04,-311.42 920.82,-301.62"/>
<polygon fill="#63b8ff" stroke="#63b8ff" points="923.17,-299 913.77,-294.11 918.07,-303.8 923.17,-299"/>
</a>
</g>
</g>
<!-- Node3&#45;&gt;Node4 -->
<g id="edge3_Node000003_Node000004" class="edge">
<title>Node3&#45;&gt;Node4</title>
<g id="a_edge3_Node000003_Node000004"><a xlink:title=" ">
<path fill="none" stroke="#63b8ff" d="M210.78,-208.38C173.16,-203.14 126.15,-190.8 94.5,-162 78.64,-147.57 70.82,-124.08 67,-106.27"/>
<polygon fill="#63b8ff" stroke="#63b8ff" points="70.42,-105.5 65.15,-96.31 63.54,-106.78 70.42,-105.5"/>
</a>
</g>
</g>
<!-- Node6 -->
<g id="Node000006" class="node">
<title>Node6</title>
<g id="a_Node000006"><a xlink:href="dem__properties_8h.html" target="_top" xlink:title="DEM particle property definitions and output name management.">
<polygon fill="white" stroke="#666666" points="229.5,-156.5 103.5,-156.5 103.5,-137.5 229.5,-137.5 229.5,-156.5"/>
<text text-anchor="middle" x="166.5" y="-144.5" font-family="Helvetica,sans-Serif" font-size="10.00">core/dem_properties.h</text>
</a>
</g>
</g>
<!-- Node5&#45;&gt;Node6 -->
<g id="edge5_Node000005_Node000006" class="edge">
<title>Node5&#45;&gt;Node6</title>
<g id="a_edge5_Node000005_Node000006"><a xlink:title=" ">
<path fill="none" stroke="#63b8ff" d="M1121.14,-269.46C1111.82,-252.24 1088.1,-213.67 1055.5,-198 973.6,-158.64 328.73,-172.7 238.5,-162 230.76,-161.08 222.61,-159.8 214.69,-158.39"/>
<polygon fill="#63b8ff" stroke="#63b8ff" points="215.29,-154.94 204.82,-156.54 214.01,-161.82 215.29,-154.94"/>
</a>
</g>
</g>
<!-- Node9 -->
<g id="Node000009" class="node">
<title>Node9</title>
<g id="a_Node000009"><a xlink:title=" ">
<polygon fill="#e0e0e0" stroke="#999999" points="752,-90.5 705,-90.5 705,-71.5 752,-71.5 752,-90.5"/>
<text text-anchor="middle" x="728.5" y="-78.5" font-family="Helvetica,sans-Serif" font-size="10.00">vector</text>
</a>
</g>
</g>
<!-- Node5&#45;&gt;Node9 -->
<g id="edge44_Node000005_Node000009" class="edge">
<title>Node5&#45;&gt;Node9</title>
<g id="a_edge44_Node000005_Node000009"><a xlink:title=" ">
<path fill="none" stroke="#63b8ff" d="M1176.14,-278.49C1324.6,-278.42 1740.44,-266.52 1611.5,-132 1578.79,-97.88 807.61,-106.4 761.5,-96 759.33,-95.51 757.12,-94.88 754.93,-94.17"/>
<polygon fill="#63b8ff" stroke="#63b8ff" points="756.17,-90.9 745.58,-90.62 753.68,-97.44 756.17,-90.9"/>
</a>
</g>
</g>
<!-- Node10 -->
<g id="Node000010" class="node">
<title>Node10</title>
<g id="a_Node000010"><a xlink:href="shape_8h.html" target="_top" xlink:title=" ">
<polygon fill="white" stroke="#666666" points="1183,-222.5 1104,-222.5 1104,-203.5 1183,-203.5 1183,-222.5"/>
<text text-anchor="middle" x="1143.5" y="-210.5" font-family="Helvetica,sans-Serif" font-size="10.00">core/shape.h</text>
</a>
</g>
</g>
<!-- Node5&#45;&gt;Node10 -->
<g id="edge9_Node000005_Node000010" class="edge">
<title>Node5&#45;&gt;Node10</title>
<g id="a_edge9_Node000005_Node000010"><a xlink:title=" ">
<path fill="none" stroke="#63b8ff" d="M1127.93,-269.37C1130.54,-260.07 1134.79,-244.98 1138.18,-232.9"/>
<polygon fill="#63b8ff" stroke="#63b8ff" points="1141.66,-233.48 1141,-222.91 1134.92,-231.58 1141.66,-233.48"/>
</a>
</g>
</g>
<!-- Node12 -->
<g id="Node000012" class="node">
<title>Node12</title>
<g id="a_Node000012"><a xlink:title=" ">
<polygon fill="#e0e0e0" stroke="#999999" points="2212.5,-90.5 2102.5,-90.5 2102.5,-71.5 2212.5,-71.5 2212.5,-90.5"/>
<text text-anchor="middle" x="2157.5" y="-78.5" font-family="Helvetica,sans-Serif" font-size="10.00">deal.II/base/point.h</text>
</a>
</g>
</g>
<!-- Node5&#45;&gt;Node12 -->
<g id="edge43_Node000005_Node000012" class="edge">
<title>Node5&#45;&gt;Node12</title>
<g id="a_edge43_Node000005_Node000012"><a xlink:title=" ">
<path fill="none" stroke="#63b8ff" d="M1176.07,-278.01C1355.07,-277.17 1956.25,-266.45 2111.5,-162 2133.06,-147.5 2145.76,-119.26 2152.18,-100.52"/>
<polygon fill="#63b8ff" stroke="#63b8ff" points="2155.59,-101.34 2155.25,-90.75 2148.91,-99.24 2155.59,-101.34"/>
</a>
</g>
</g>
<!-- Node5&#45;&gt;Node37 -->
<g id="edge42_Node000005_Node000037" class="edge">
<title>Node5&#45;&gt;Node37</title>
<g id="a_edge42_Node000005_Node000037"><a xlink:title=" ">
<path fill="none" stroke="#63b8ff" d="M1107.56,-269.37C1088.07,-259.99 1056.34,-244.72 1031.14,-232.59"/>
<polygon fill="#63b8ff" stroke="#63b8ff" points="1032.36,-229.3 1021.83,-228.12 1029.33,-235.61 1032.36,-229.3"/>
</a>
</g>
</g>
<!-- Node7 -->
<g id="Node000007" class="node">
<title>Node7</title>
<g id="a_Node000007"><a xlink:title=" ">
<polygon fill="#e0e0e0" stroke="#999999" points="487.5,-90.5 443.5,-90.5 443.5,-71.5 487.5,-71.5 487.5,-90.5"/>
<text text-anchor="middle" x="465.5" y="-78.5" font-family="Helvetica,sans-Serif" font-size="10.00">string</text>
</a>
</g>
</g>
<!-- Node6&#45;&gt;Node7 -->
<g id="edge6_Node000006_Node000007" class="edge">
<title>Node6&#45;&gt;Node7</title>
<g id="a_edge6_Node000006_Node000007"><a xlink:title=" ">
<path fill="none" stroke="#63b8ff" d="M206.51,-137.44C266.46,-124.6 378.4,-100.64 433.37,-88.88"/>
<polygon fill="#63b8ff" stroke="#63b8ff" points="434.21,-92.28 443.26,-86.76 432.75,-85.43 434.21,-92.28"/>
</a>
</g>
</g>
<!-- Node8 -->
<g id="Node000008" class="node">
<title>Node8</title>
<g id="a_Node000008"><a xlink:title=" ">
<polygon fill="#e0e0e0" stroke="#999999" points="214,-90.5 145,-90.5 145,-71.5 214,-71.5 214,-90.5"/>
<text text-anchor="middle" x="179.5" y="-78.5" font-family="Helvetica,sans-Serif" font-size="10.00">type_traits</text>
</a>
</g>
</g>
<!-- Node6&#45;&gt;Node8 -->
<g id="edge7_Node000006_Node000008" class="edge">
<title>Node6&#45;&gt;Node8</title>
<g id="a_edge7_Node000006_Node000008"><a xlink:title=" ">
<path fill="none" stroke="#63b8ff" d="M168.25,-137.37C170.14,-128.07 173.21,-112.98 175.66,-100.9"/>
<polygon fill="#63b8ff" stroke="#63b8ff" points="179.13,-101.4 177.69,-90.91 172.27,-100.01 179.13,-101.4"/>
</a>
</g>
</g>
<!-- Node6&#45;&gt;Node9 -->
<g id="edge8_Node000006_Node000009" class="edge">
<title>Node6&#45;&gt;Node9</title>
<g id="a_edge8_Node000006_Node000009"><a xlink:title=" ">
<path fill="none" stroke="#63b8ff" d="M207.13,-137.43C217.34,-135.47 228.3,-133.51 238.5,-132 408.97,-106.78 614.69,-90.28 694.53,-84.4"/>
<polygon fill="#63b8ff" stroke="#63b8ff" points="695.23,-87.86 704.95,-83.64 694.72,-80.88 695.23,-87.86"/>
</a>
</g>
</g>
<!-- Node11 -->
<g id="Node000011" class="node">
<title>Node11</title>
<g id="a_Node000011"><a xlink:href="tensors__and__points__dimension__manipulation_8h.html" target="_top" xlink:title=" ">
<polygon fill="white" stroke="#666666" points="2102.5,-162 1950.5,-162 1950.5,-132 2102.5,-132 2102.5,-162"/>
<text text-anchor="start" x="1958.5" y="-150" font-family="Helvetica,sans-Serif" font-size="10.00">core/tensors_and_points</text>
<text text-anchor="middle" x="2026.5" y="-139" font-family="Helvetica,sans-Serif" font-size="10.00">_dimension_manipulation.h</text>
</a>
</g>
</g>
<!-- Node10&#45;&gt;Node11 -->
<g id="edge10_Node000010_Node000011" class="edge">
<title>Node10&#45;&gt;Node11</title>
<g id="a_edge10_Node000010_Node000011"><a xlink:title=" ">
<path fill="none" stroke="#63b8ff" d="M1183.16,-209.13C1316.86,-199.44 1753.15,-167.81 1940.15,-154.26"/>
<polygon fill="#63b8ff" stroke="#63b8ff" points="1940.49,-157.74 1950.21,-153.53 1939.98,-150.76 1940.49,-157.74"/>
</a>
</g>
</g>
<!-- Node10&#45;&gt;Node14 -->
<g id="edge13_Node000010_Node000014" class="edge">
<title>Node10&#45;&gt;Node14</title>
<g id="a_edge13_Node000010_Node000014"><a xlink:title=" ">
<path fill="none" stroke="#63b8ff" d="M1183.02,-208.42C1263.7,-200.98 1453.11,-182.77 1611.5,-162 1623.38,-160.44 1636.12,-158.58 1648.16,-156.73"/>
<polygon fill="#63b8ff" stroke="#63b8ff" points="1648.73,-160.18 1658.07,-155.19 1647.65,-153.27 1648.73,-160.18"/>
</a>
</g>
</g>
<!-- Node19 -->
<g id="Node000019" class="node">
<title>Node19</title>
<g id="a_Node000019"><a xlink:title=" ">
<polygon fill="#e0e0e0" stroke="#999999" points="910.5,-90.5 770.5,-90.5 770.5,-71.5 910.5,-71.5 910.5,-90.5"/>
<text text-anchor="middle" x="840.5" y="-78.5" font-family="Helvetica,sans-Serif" font-size="10.00">deal.II/dofs/dof_handler.h</text>
</a>
</g>
</g>
<!-- Node10&#45;&gt;Node19 -->
<g id="edge37_Node000010_Node000019" class="edge">
<title>Node10&#45;&gt;Node19</title>
<g id="a_edge37_Node000010_Node000019"><a xlink:title=" ">
<path fill="none" stroke="#63b8ff" d="M1114.56,-203.44C1106.51,-201.35 1097.72,-199.33 1089.5,-198 1031.57,-188.59 602.56,-204.89 562.5,-162 553.4,-152.26 553.95,-142.23 562.5,-132 563.38,-130.94 700.54,-106.64 781.84,-92.31"/>
<polygon fill="#63b8ff" stroke="#63b8ff" points="782.71,-95.71 791.95,-90.53 781.5,-88.82 782.71,-95.71"/>
</a>
</g>
</g>
<!-- Node27 -->
<g id="Node000027" class="node">
<title>Node27</title>
<g id="a_Node000027"><a xlink:title=" ">
<polygon fill="#e0e0e0" stroke="#999999" points="1602.5,-162 1450.5,-162 1450.5,-132 1602.5,-132 1602.5,-162"/>
<text text-anchor="start" x="1458.5" y="-150" font-family="Helvetica,sans-Serif" font-size="10.00">deal.II/base/auto_derivative</text>
<text text-anchor="middle" x="1526.5" y="-139" font-family="Helvetica,sans-Serif" font-size="10.00">_function.h</text>
</a>
</g>
</g>
<!-- Node10&#45;&gt;Node27 -->
<g id="edge31_Node000010_Node000027" class="edge">
<title>Node10&#45;&gt;Node27</title>
<g id="a_edge31_Node000010_Node000027"><a xlink:title=" ">
<path fill="none" stroke="#63b8ff" d="M1183.05,-205.39C1243.35,-195.32 1359.75,-175.86 1440.21,-162.42"/>
<polygon fill="#63b8ff" stroke="#63b8ff" points="1441.05,-165.83 1450.33,-160.73 1439.89,-158.92 1441.05,-165.83"/>
</a>
</g>
</g>
<!-- Node28 -->
<g id="Node000028" class="node">
<title>Node28</title>
<g id="a_Node000028"><a xlink:title=" ">
<polygon fill="#e0e0e0" stroke="#999999" points="373,-156.5 248,-156.5 248,-137.5 373,-137.5 373,-156.5"/>
<text text-anchor="middle" x="310.5" y="-144.5" font-family="Helvetica,sans-Serif" font-size="10.00">deal.II/base/function.h</text>
</a>
</g>
</g>
<!-- Node10&#45;&gt;Node28 -->
<g id="edge32_Node000010_Node000028" class="edge">
<title>Node10&#45;&gt;Node28</title>
<g id="a_edge32_Node000010_Node000028"><a xlink:title=" ">
<path fill="none" stroke="#63b8ff" d="M1115.14,-203.5C1106.94,-201.35 1097.92,-199.29 1089.5,-198 778.51,-150.27 694.81,-200.12 382.5,-162 374.94,-161.08 366.99,-159.82 359.23,-158.44"/>
<polygon fill="#63b8ff" stroke="#63b8ff" points="359.67,-154.96 349.2,-156.57 358.39,-161.84 359.67,-154.96"/>
</a>
</g>
</g>
<!-- Node29 -->
<g id="Node000029" class="node">
<title>Node29</title>
<g id="a_Node000029"><a xlink:title=" ">
<polygon fill="#e0e0e0" stroke="#999999" points="515.5,-156.5 391.5,-156.5 391.5,-137.5 515.5,-137.5 515.5,-156.5"/>
<text text-anchor="middle" x="453.5" y="-144.5" font-family="Helvetica,sans-Serif" font-size="10.00">deal.II/grid/manifold.h</text>
</a>
</g>
</g>
<!-- Node10&#45;&gt;Node29 -->
<g id="edge33_Node000010_Node000029" class="edge">
<title>Node10&#45;&gt;Node29</title>
<g id="a_edge33_Node000010_Node000029"><a xlink:title=" ">
<path fill="none" stroke="#63b8ff" d="M1114.85,-203.5C1106.72,-201.38 1097.82,-199.33 1089.5,-198 843.24,-158.53 777.01,-192.64 529.5,-162 521.45,-161 512.97,-159.7 504.71,-158.28"/>
<polygon fill="#63b8ff" stroke="#63b8ff" points="505.24,-154.82 494.78,-156.52 504.01,-161.72 505.24,-154.82"/>
</a>
</g>
</g>
<!-- Node30 -->
<g id="Node000030" class="node">
<title>Node30</title>
<g id="a_Node000030"><a xlink:title=" ">
<polygon fill="#e0e0e0" stroke="#999999" points="687,-162 572,-162 572,-132 687,-132 687,-162"/>
<text text-anchor="start" x="580" y="-150" font-family="Helvetica,sans-Serif" font-size="10.00">deal.II/grid/manifold</text>
<text text-anchor="middle" x="629.5" y="-139" font-family="Helvetica,sans-Serif" font-size="10.00">_lib.h</text>
</a>
</g>
</g>
<!-- Node10&#45;&gt;Node30 -->
<g id="edge34_Node000010_Node000030" class="edge">
<title>Node10&#45;&gt;Node30</title>
<g id="a_edge34_Node000010_Node000030"><a xlink:title=" ">
<path fill="none" stroke="#63b8ff" d="M1114.26,-203.5C1106.29,-201.43 1097.61,-199.41 1089.5,-198 919.48,-168.4 871.15,-187.55 697.03,-162.11"/>
<polygon fill="#63b8ff" stroke="#63b8ff" points="697.43,-158.63 687.02,-160.62 696.4,-165.55 697.43,-158.63"/>
</a>
</g>
</g>
<!-- Node31 -->
<g id="Node000031" class="node">
<title>Node31</title>
<g id="a_Node000031"><a xlink:title=" ">
<polygon fill="#e0e0e0" stroke="#999999" points="820,-162 705,-162 705,-132 820,-132 820,-162"/>
<text text-anchor="start" x="713" y="-150" font-family="Helvetica,sans-Serif" font-size="10.00">boost/range/adaptor</text>
<text text-anchor="middle" x="762.5" y="-139" font-family="Helvetica,sans-Serif" font-size="10.00">/map.hpp</text>
</a>
</g>
</g>
<!-- Node10&#45;&gt;Node31 -->
<g id="edge35_Node000010_Node000031" class="edge">
<title>Node10&#45;&gt;Node31</title>
<g id="a_edge35_Node000010_Node000031"><a xlink:title=" ">
<path fill="none" stroke="#63b8ff" d="M1113.09,-203.46C1105.43,-201.49 1097.2,-199.52 1089.5,-198 978.2,-175.94 946.18,-181.6 830.18,-162.03"/>
<polygon fill="#63b8ff" stroke="#63b8ff" points="830.64,-158.56 820.2,-160.32 829.46,-165.46 830.64,-158.56"/>
</a>
</g>
</g>
<!-- Node32 -->
<g id="Node000032" class="node">
<title>Node32</title>
<g id="a_Node000032"><a xlink:title=" ">
<polygon fill="#e0e0e0" stroke="#999999" points="954.5,-162 838.5,-162 838.5,-132 954.5,-132 954.5,-162"/>
<text text-anchor="start" x="846.5" y="-150" font-family="Helvetica,sans-Serif" font-size="10.00">deal.II/base/function</text>
<text text-anchor="middle" x="896.5" y="-139" font-family="Helvetica,sans-Serif" font-size="10.00">_signed_distance.h</text>
</a>
</g>
</g>
<!-- Node10&#45;&gt;Node32 -->
<g id="edge36_Node000010_Node000032" class="edge">
<title>Node10&#45;&gt;Node32</title>
<g id="a_edge36_Node000010_Node000032"><a xlink:title=" ">
<path fill="none" stroke="#63b8ff" d="M1110.44,-203.44C1072.2,-193.52 1008.33,-176.98 960.31,-164.53"/>
<polygon fill="#63b8ff" stroke="#63b8ff" points="961.19,-161.15 950.63,-162.02 959.43,-167.92 961.19,-161.15"/>
</a>
</g>
</g>
<!-- Node33 -->
<g id="Node000033" class="node">
<title>Node33</title>
<g id="a_Node000033"><a xlink:title=" ">
<polygon fill="#e0e0e0" stroke="#999999" points="1100.5,-156.5 972.5,-156.5 972.5,-137.5 1100.5,-137.5 1100.5,-156.5"/>
<text text-anchor="middle" x="1036.5" y="-144.5" font-family="Helvetica,sans-Serif" font-size="10.00">deal.II/dofs/dof_tools.h</text>
</a>
</g>
</g>
<!-- Node10&#45;&gt;Node33 -->
<g id="edge38_Node000010_Node000033" class="edge">
<title>Node10&#45;&gt;Node33</title>
<g id="a_edge38_Node000010_Node000033"><a xlink:title=" ">
<path fill="none" stroke="#63b8ff" d="M1129.07,-203.37C1111.28,-192.73 1080.82,-174.51 1059.72,-161.89"/>
<polygon fill="#63b8ff" stroke="#63b8ff" points="1061.42,-158.83 1051.04,-156.7 1057.83,-164.84 1061.42,-158.83"/>
</a>
</g>
</g>
<!-- Node34 -->
<g id="Node000034" class="node">
<title>Node34</title>
<g id="a_Node000034"><a xlink:title=" ">
<polygon fill="#e0e0e0" stroke="#999999" points="1294.5,-156.5 1118.5,-156.5 1118.5,-137.5 1294.5,-137.5 1294.5,-156.5"/>
<text text-anchor="middle" x="1206.5" y="-144.5" font-family="Helvetica,sans-Serif" font-size="10.00">deal.II/physics/transformations.h</text>
</a>
</g>
</g>
<!-- Node10&#45;&gt;Node34 -->
<g id="edge39_Node000010_Node000034" class="edge">
<title>Node10&#45;&gt;Node34</title>
<g id="a_edge39_Node000010_Node000034"><a xlink:title=" ">
<path fill="none" stroke="#63b8ff" d="M1152,-203.37C1161.8,-193.4 1178.16,-176.79 1190.39,-164.36"/>
<polygon fill="#63b8ff" stroke="#63b8ff" points="1193.21,-166.49 1197.73,-156.91 1188.22,-161.58 1193.21,-166.49"/>
</a>
</g>
</g>
<!-- Node35 -->
<g id="Node000035" class="node">
<title>Node35</title>
<g id="a_Node000035"><a xlink:title=" ">
<polygon fill="#e0e0e0" stroke="#999999" points="1356.5,-156.5 1312.5,-156.5 1312.5,-137.5 1356.5,-137.5 1356.5,-156.5"/>
<text text-anchor="middle" x="1334.5" y="-144.5" font-family="Helvetica,sans-Serif" font-size="10.00">cfloat</text>
</a>
</g>
</g>
<!-- Node10&#45;&gt;Node35 -->
<g id="edge40_Node000010_Node000035" class="edge">
<title>Node10&#45;&gt;Node35</title>
<g id="a_edge40_Node000010_Node000035"><a xlink:title=" ">
<path fill="none" stroke="#63b8ff" d="M1174.85,-203.42C1207.39,-194.24 1259.57,-178.71 1303.5,-162 1304.71,-161.54 1305.94,-161.05 1307.18,-160.55"/>
<polygon fill="#63b8ff" stroke="#63b8ff" points="1308.8,-163.67 1316.62,-156.52 1306.05,-157.23 1308.8,-163.67"/>
</a>
</g>
</g>
<!-- Node36 -->
<g id="Node000036" class="node">
<title>Node36</title>
<g id="a_Node000036"><a xlink:title=" ">
<polygon fill="#e0e0e0" stroke="#999999" points="1432.5,-156.5 1374.5,-156.5 1374.5,-137.5 1432.5,-137.5 1432.5,-156.5"/>
<text text-anchor="middle" x="1403.5" y="-144.5" font-family="Helvetica,sans-Serif" font-size="10.00">memory</text>
</a>
</g>
</g>
<!-- Node10&#45;&gt;Node36 -->
<g id="edge41_Node000010_Node000036" class="edge">
<title>Node10&#45;&gt;Node36</title>
<g id="a_edge41_Node000010_Node000036"><a xlink:title=" ">
<path fill="none" stroke="#63b8ff" d="M1183.2,-204.7C1227.93,-196.09 1302.61,-180.58 1365.5,-162 1367.64,-161.37 1369.83,-160.68 1372.02,-159.96"/>
<polygon fill="#63b8ff" stroke="#63b8ff" points="1373.27,-163.23 1381.56,-156.64 1370.97,-156.62 1373.27,-163.23"/>
</a>
</g>
</g>
<!-- Node11&#45;&gt;Node12 -->
<g id="edge11_Node000011_Node000012" class="edge">
<title>Node11&#45;&gt;Node12</title>
<g id="a_edge11_Node000011_Node000012"><a xlink:title=" ">
<path fill="none" stroke="#63b8ff" d="M2055.25,-131.95C2077.82,-120.93 2108.99,-105.7 2130.97,-94.96"/>
<polygon fill="#63b8ff" stroke="#63b8ff" points="2132.62,-98.05 2140.07,-90.52 2129.54,-91.76 2132.62,-98.05"/>
</a>
</g>
</g>
<!-- Node13 -->
<g id="Node000013" class="node">
<title>Node13</title>
<g id="a_Node000013"><a xlink:title=" ">
<polygon fill="#e0e0e0" stroke="#999999" points="2084,-90.5 1969,-90.5 1969,-71.5 2084,-71.5 2084,-90.5"/>
<text text-anchor="middle" x="2026.5" y="-78.5" font-family="Helvetica,sans-Serif" font-size="10.00">deal.II/base/tensor.h</text>
</a>
</g>
</g>
<!-- Node11&#45;&gt;Node13 -->
<g id="edge12_Node000011_Node000013" class="edge">
<title>Node11&#45;&gt;Node13</title>
<g id="a_edge12_Node000011_Node000013"><a xlink:title=" ">
<path fill="none" stroke="#63b8ff" d="M2026.5,-131.8C2026.5,-122.7 2026.5,-110.79 2026.5,-100.9"/>
<polygon fill="#63b8ff" stroke="#63b8ff" points="2030,-100.84 2026.5,-90.84 2023,-100.84 2030,-100.84"/>
</a>
</g>
</g>
<!-- Node14&#45;&gt;Node4 -->
<g id="edge17_Node000014_Node000004" class="edge">
<title>Node14&#45;&gt;Node4</title>
<g id="a_edge17_Node000014_Node000004"><a xlink:title=" ">
<path fill="none" stroke="#63b8ff" d="M1658.15,-138.09C1643.4,-135.71 1626.78,-133.37 1611.5,-132 961.27,-73.75 789.61,-165.92 137.14,-96.04"/>
<polygon fill="#63b8ff" stroke="#63b8ff" points="137.33,-92.54 127.02,-94.95 136.58,-99.5 137.33,-92.54"/>
</a>
</g>
</g>
<!-- Node14&#45;&gt;Node7 -->
<g id="edge28_Node000014_Node000007" class="edge">
<title>Node14&#45;&gt;Node7</title>
<g id="a_edge28_Node000014_Node000007"><a xlink:title=" ">
<path fill="none" stroke="#63b8ff" d="M1658.14,-138.22C1643.39,-135.85 1626.77,-133.48 1611.5,-132 1205.98,-92.62 1102.42,-116.38 695.5,-96 625,-92.47 542.42,-87.15 497.9,-84.19"/>
<polygon fill="#63b8ff" stroke="#63b8ff" points="497.91,-80.69 487.69,-83.51 497.44,-87.67 497.91,-80.69"/>
</a>
</g>
</g>
<!-- Node14&#45;&gt;Node9 -->
<g id="edge30_Node000014_Node000009" class="edge">
<title>Node14&#45;&gt;Node9</title>
<g id="a_edge30_Node000014_Node000009"><a xlink:title=" ">
<path fill="none" stroke="#63b8ff" d="M1671.55,-137.45C1662.89,-135.31 1653.38,-133.26 1644.5,-132 1255.62,-76.88 1144.72,-182.09 761.5,-96 759.33,-95.51 757.12,-94.89 754.93,-94.17"/>
<polygon fill="#63b8ff" stroke="#63b8ff" points="756.17,-90.9 745.58,-90.62 753.68,-97.45 756.17,-90.9"/>
</a>
</g>
</g>
<!-- Node14&#45;&gt;Node12 -->
<g id="edge18_Node000014_Node000012" class="edge">
<title>Node14&#45;&gt;Node12</title>
<g id="a_edge18_Node000014_Node000012"><a xlink:title=" ">
<path fill="none" stroke="#63b8ff" d="M1744.61,-141.76C1816.99,-134.37 1967.42,-117.79 2093.5,-96 2099.24,-95.01 2105.25,-93.85 2111.19,-92.64"/>
<polygon fill="#63b8ff" stroke="#63b8ff" points="2111.99,-96.04 2121.06,-90.56 2110.55,-89.19 2111.99,-96.04"/>
</a>
</g>
</g>
<!-- Node14&#45;&gt;Node13 -->
<g id="edge20_Node000014_Node000013" class="edge">
<title>Node14&#45;&gt;Node13</title>
<g id="a_edge20_Node000014_Node000013"><a xlink:title=" ">
<path fill="none" stroke="#63b8ff" d="M1744.9,-137.79C1796.21,-128.04 1884.13,-111.18 1959.5,-96 1964.89,-94.92 1970.52,-93.77 1976.12,-92.61"/>
<polygon fill="#63b8ff" stroke="#63b8ff" points="1977.05,-95.99 1986.13,-90.53 1975.63,-89.14 1977.05,-95.99"/>
</a>
</g>
</g>
<!-- Node15 -->
<g id="Node000015" class="node">
<title>Node15</title>
<g id="a_Node000015"><a xlink:href="output__struct_8h.html" target="_top" xlink:title=" ">
<polygon fill="#fff0f0" stroke="red" points="1950.5,-90.5 1836.5,-90.5 1836.5,-71.5 1950.5,-71.5 1950.5,-90.5"/>
<text text-anchor="middle" x="1893.5" y="-78.5" font-family="Helvetica,sans-Serif" font-size="10.00">core/output_struct.h</text>
</a>
</g>
</g>
<!-- Node14&#45;&gt;Node15 -->
<g id="edge14_Node000014_Node000015" class="edge">
<title>Node14&#45;&gt;Node15</title>
<g id="a_edge14_Node000014_Node000015"><a xlink:title=" ">
<path fill="none" stroke="#63b8ff" d="M1727.39,-137.37C1761.13,-126.12 1820.25,-106.42 1858.11,-93.8"/>
<polygon fill="#63b8ff" stroke="#63b8ff" points="1859.33,-97.08 1867.71,-90.6 1857.12,-90.44 1859.33,-97.08"/>
</a>
</g>
</g>
<!-- Node16 -->
<g id="Node000016" class="node">
<title>Node16</title>
<g id="a_Node000016"><a xlink:title=" ">
<polygon fill="#e0e0e0" stroke="#999999" points="1901,-30 1800,-30 1800,0 1901,0 1901,-30"/>
<text text-anchor="start" x="1808" y="-18" font-family="Helvetica,sans-Serif" font-size="10.00">deal.II/base/table</text>
<text text-anchor="middle" x="1850.5" y="-7" font-family="Helvetica,sans-Serif" font-size="10.00">_handler.h</text>
</a>
</g>
</g>
<!-- Node14&#45;&gt;Node16 -->
<g id="edge19_Node000014_Node000016" class="edge">
<title>Node14&#45;&gt;Node16</title>
<g id="a_edge19_Node000014_Node000016"><a xlink:title=" ">
<path fill="none" stroke="#63b8ff" d="M1721.48,-137.49C1740.33,-128.84 1768.72,-114.15 1789.5,-96 1808.48,-79.42 1825.44,-56.12 1836.63,-38.94"/>
<polygon fill="#63b8ff" stroke="#63b8ff" points="1839.83,-40.42 1842.23,-30.1 1833.92,-36.68 1839.83,-40.42"/>
</a>
</g>
</g>
<!-- Node18 -->
<g id="Node000018" class="node">
<title>Node18</title>
<g id="a_Node000018"><a xlink:title=" ">
<polygon fill="#e0e0e0" stroke="#999999" points="1058.5,-96 928.5,-96 928.5,-66 1058.5,-66 1058.5,-96"/>
<text text-anchor="start" x="936.5" y="-84" font-family="Helvetica,sans-Serif" font-size="10.00">deal.II/base/conditional</text>
<text text-anchor="middle" x="993.5" y="-73" font-family="Helvetica,sans-Serif" font-size="10.00">_ostream.h</text>
</a>
</g>
</g>
<!-- Node14&#45;&gt;Node18 -->
<g id="edge16_Node000014_Node000018" class="edge">
<title>Node14&#45;&gt;Node18</title>
<g id="a_edge16_Node000014_Node000018"><a xlink:title=" ">
<path fill="none" stroke="#63b8ff" d="M1670.94,-137.43C1662.44,-135.34 1653.16,-133.32 1644.5,-132 1393.73,-93.69 1324.21,-127.07 1068.75,-96.04"/>
<polygon fill="#63b8ff" stroke="#63b8ff" points="1069.15,-92.56 1058.8,-94.81 1068.3,-99.51 1069.15,-92.56"/>
</a>
</g>
</g>
<!-- Node14&#45;&gt;Node19 -->
<g id="edge21_Node000014_Node000019" class="edge">
<title>Node14&#45;&gt;Node19</title>
<g id="a_edge21_Node000014_Node000019"><a xlink:title=" ">
<path fill="none" stroke="#63b8ff" d="M1671.24,-137.43C1662.66,-135.31 1653.27,-133.28 1644.5,-132 1325.28,-85.31 1240.08,-132.22 919.5,-96 910.94,-95.03 901.91,-93.72 893.14,-92.28"/>
<polygon fill="#63b8ff" stroke="#63b8ff" points="893.44,-88.78 883,-90.54 892.26,-95.68 893.44,-88.78"/>
</a>
</g>
</g>
<!-- Node20 -->
<g id="Node000020" class="node">
<title>Node20</title>
<g id="a_Node000020"><a xlink:title=" ">
<polygon fill="#e0e0e0" stroke="#999999" points="1196,-90.5 1077,-90.5 1077,-71.5 1196,-71.5 1196,-90.5"/>
<text text-anchor="middle" x="1136.5" y="-78.5" font-family="Helvetica,sans-Serif" font-size="10.00">deal.II/fe/fe_values.h</text>
</a>
</g>
</g>
<!-- Node14&#45;&gt;Node20 -->
<g id="edge22_Node000014_Node000020" class="edge">
<title>Node14&#45;&gt;Node20</title>
<g id="a_edge22_Node000014_Node000020"><a xlink:title=" ">
<path fill="none" stroke="#63b8ff" d="M1670.62,-137.47C1662.21,-135.4 1653.05,-133.39 1644.5,-132 1450.84,-100.5 1398.72,-123.83 1204.5,-96 1197.77,-95.03 1190.7,-93.82 1183.77,-92.5"/>
<polygon fill="#63b8ff" stroke="#63b8ff" points="1184.26,-89.03 1173.77,-90.52 1182.9,-95.9 1184.26,-89.03"/>
</a>
</g>
</g>
<!-- Node21 -->
<g id="Node000021" class="node">
<title>Node21</title>
<g id="a_Node000021"><a xlink:title=" ">
<polygon fill="#e0e0e0" stroke="#999999" points="1345,-96 1214,-96 1214,-66 1345,-66 1345,-96"/>
<text text-anchor="start" x="1222" y="-84" font-family="Helvetica,sans-Serif" font-size="10.00">deal.II/particles/particle</text>
<text text-anchor="middle" x="1279.5" y="-73" font-family="Helvetica,sans-Serif" font-size="10.00">_iterator.h</text>
</a>
</g>
</g>
<!-- Node14&#45;&gt;Node21 -->
<g id="edge23_Node000014_Node000021" class="edge">
<title>Node14&#45;&gt;Node21</title>
<g id="a_edge23_Node000014_Node000021"><a xlink:title=" ">
<path fill="none" stroke="#63b8ff" d="M1669.69,-137.48C1661.52,-135.49 1652.72,-133.51 1644.5,-132 1519.59,-109.02 1484.05,-115.75 1355.47,-96.24"/>
<polygon fill="#63b8ff" stroke="#63b8ff" points="1355.65,-92.73 1345.23,-94.66 1354.58,-99.64 1355.65,-92.73"/>
</a>
</g>
</g>
<!-- Node22 -->
<g id="Node000022" class="node">
<title>Node22</title>
<g id="a_Node000022"><a xlink:title=" ">
<polygon fill="#e0e0e0" stroke="#999999" points="1468,-96 1363,-96 1363,-66 1468,-66 1468,-96"/>
<text text-anchor="start" x="1371" y="-84" font-family="Helvetica,sans-Serif" font-size="10.00">boost/archive/text</text>
<text text-anchor="middle" x="1415.5" y="-73" font-family="Helvetica,sans-Serif" font-size="10.00">_iarchive.hpp</text>
</a>
</g>
</g>
<!-- Node14&#45;&gt;Node22 -->
<g id="edge24_Node000014_Node000022" class="edge">
<title>Node14&#45;&gt;Node22</title>
<g id="a_edge24_Node000014_Node000022"><a xlink:title=" ">
<path fill="none" stroke="#63b8ff" d="M1667.48,-137.47C1659.92,-135.62 1651.95,-133.71 1644.5,-132 1573.13,-115.59 1552.7,-112.76 1477.96,-96.3"/>
<polygon fill="#63b8ff" stroke="#63b8ff" points="1478.58,-92.86 1468.06,-94.11 1477.07,-99.69 1478.58,-92.86"/>
</a>
</g>
</g>
<!-- Node23 -->
<g id="Node000023" class="node">
<title>Node23</title>
<g id="a_Node000023"><a xlink:title=" ">
<polygon fill="#e0e0e0" stroke="#999999" points="1591,-96 1486,-96 1486,-66 1591,-66 1591,-96"/>
<text text-anchor="start" x="1494" y="-84" font-family="Helvetica,sans-Serif" font-size="10.00">boost/archive/text</text>
<text text-anchor="middle" x="1538.5" y="-73" font-family="Helvetica,sans-Serif" font-size="10.00">_oarchive.hpp</text>
</a>
</g>
</g>
<!-- Node14&#45;&gt;Node23 -->
<g id="edge25_Node000014_Node000023" class="edge">
<title>Node14&#45;&gt;Node23</title>
<g id="a_edge25_Node000014_Node000023"><a xlink:title=" ">
<path fill="none" stroke="#63b8ff" d="M1679.52,-137.37C1655.1,-127.78 1615.02,-112.05 1583.82,-99.8"/>
<polygon fill="#63b8ff" stroke="#63b8ff" points="1585.04,-96.51 1574.45,-96.12 1582.48,-103.03 1585.04,-96.51"/>
</a>
</g>
</g>
<!-- Node24 -->
<g id="Node000024" class="node">
<title>Node24</title>
<g id="a_Node000024"><a xlink:title=" ">
<polygon fill="#e0e0e0" stroke="#999999" points="1664,-90.5 1609,-90.5 1609,-71.5 1664,-71.5 1664,-90.5"/>
<text text-anchor="middle" x="1636.5" y="-78.5" font-family="Helvetica,sans-Serif" font-size="10.00">fstream</text>
</a>
</g>
</g>
<!-- Node14&#45;&gt;Node24 -->
<g id="edge26_Node000014_Node000024" class="edge">
<title>Node14&#45;&gt;Node24</title>
<g id="a_edge26_Node000014_Node000024"><a xlink:title=" ">
<path fill="none" stroke="#63b8ff" d="M1692.73,-137.37C1682.52,-127.31 1665.42,-110.48 1652.76,-98.01"/>
<polygon fill="#63b8ff" stroke="#63b8ff" points="1655.13,-95.43 1645.54,-90.91 1650.21,-100.42 1655.13,-95.43"/>
</a>
</g>
</g>
<!-- Node25 -->
<g id="Node000025" class="node">
<title>Node25</title>
<g id="a_Node000025"><a xlink:title=" ">
<polygon fill="#e0e0e0" stroke="#999999" points="1720.5,-90.5 1682.5,-90.5 1682.5,-71.5 1720.5,-71.5 1720.5,-90.5"/>
<text text-anchor="middle" x="1701.5" y="-78.5" font-family="Helvetica,sans-Serif" font-size="10.00">map</text>
</a>
</g>
</g>
<!-- Node14&#45;&gt;Node25 -->
<g id="edge27_Node000014_Node000025" class="edge">
<title>Node14&#45;&gt;Node25</title>
<g id="a_edge27_Node000014_Node000025"><a xlink:title=" ">
<path fill="none" stroke="#63b8ff" d="M1701.5,-137.37C1701.5,-128.16 1701.5,-113.29 1701.5,-101.27"/>
<polygon fill="#63b8ff" stroke="#63b8ff" points="1705,-100.91 1701.5,-90.91 1698,-100.91 1705,-100.91"/>
</a>
</g>
</g>
<!-- Node26 -->
<g id="Node000026" class="node">
<title>Node26</title>
<g id="a_Node000026"><a xlink:title=" ">
<polygon fill="#e0e0e0" stroke="#999999" points="1780,-90.5 1739,-90.5 1739,-71.5 1780,-71.5 1780,-90.5"/>
<text text-anchor="middle" x="1759.5" y="-78.5" font-family="Helvetica,sans-Serif" font-size="10.00">tuple</text>
</a>
</g>
</g>
<!-- Node14&#45;&gt;Node26 -->
<g id="edge29_Node000014_Node000026" class="edge">
<title>Node14&#45;&gt;Node26</title>
<g id="a_edge29_Node000014_Node000026"><a xlink:title=" ">
<path fill="none" stroke="#63b8ff" d="M1709.32,-137.37C1718.35,-127.4 1733.41,-110.79 1744.67,-98.36"/>
<polygon fill="#63b8ff" stroke="#63b8ff" points="1747.31,-100.67 1751.43,-90.91 1742.12,-95.96 1747.31,-100.67"/>
</a>
</g>
</g>
<!-- Node15&#45;&gt;Node16 -->
<g id="edge15_Node000015_Node000016" class="edge">
<title>Node15&#45;&gt;Node16</title>
<g id="a_edge15_Node000015_Node000016"><a xlink:title=" ">
<path fill="none" stroke="#63b8ff" d="M1887.7,-71.37C1882.13,-63.08 1873.47,-50.18 1865.9,-38.92"/>
<polygon fill="#63b8ff" stroke="#63b8ff" points="1868.63,-36.71 1860.15,-30.36 1862.82,-40.61 1868.63,-36.71"/>
</a>
</g>
</g>
</g>
</svg>
