<?xml version="1.0" encoding="UTF-8" standalone="no"?>
<!DOCTYPE svg PUBLIC "-//W3C//DTD SVG 1.1//EN"
 "http://www.w3.org/Graphics/SVG/1.1/DTD/svg11.dtd">
<!-- Generated by graphviz version 2.43.0 (0)
 -->
<!-- Title: /home/runner/work/lethe/lethe/include/core/parameters_lagrangian.h Pages: 1 -->
<svg width="2144pt" height="434pt"
 viewBox="0.00 0.00 2143.50 434.00" xmlns="http://www.w3.org/2000/svg" xmlns:xlink="http://www.w3.org/1999/xlink">
<g id="graph0" class="graph" transform="scale(1 1) rotate(0) translate(4 430)">
<title>/home/runner/work/lethe/lethe/include/core/parameters_lagrangian.h</title>
<!-- Node1 -->
<g id="Node000001" class="node">
<title>Node1</title>
<g id="a_Node000001"><a xlink:title="Parameter structures for Lagrangian (DEM) particle simulations.">
<polygon fill="#999999" stroke="#666666" points="440.5,-426 274.5,-426 274.5,-385 440.5,-385 440.5,-426"/>
<text text-anchor="start" x="282.5" y="-414" font-family="Helvetica,sans-Serif" font-size="10.00">/home/runner/work/lethe</text>
<text text-anchor="start" x="282.5" y="-403" font-family="Helvetica,sans-Serif" font-size="10.00">/lethe/include/core/parameters</text>
<text text-anchor="middle" x="357.5" y="-392" font-family="Helvetica,sans-Serif" font-size="10.00">_lagrangian.h</text>
</a>
</g>
</g>
<!-- Node2 -->
<g id="Node000002" class="node">
<title>Node2</title>
<g id="a_Node000002"><a xlink:href="parameters_8h.html" target="_top" xlink:title=" ">
<polygon fill="white" stroke="#666666" points="410.5,-349 304.5,-349 304.5,-330 410.5,-330 410.5,-349"/>
<text text-anchor="middle" x="357.5" y="-337" font-family="Helvetica,sans-Serif" font-size="10.00">core/parameters.h</text>
</a>
</g>
</g>
<!-- Node1&#45;&gt;Node2 -->
<g id="edge1_Node000001_Node000002" class="edge">
<title>Node1&#45;&gt;Node2</title>
<g id="a_edge1_Node000001_Node000002"><a xlink:title=" ">
<path fill="none" stroke="#63b8ff" d="M357.5,-384.95C357.5,-376.85 357.5,-367.5 357.5,-359.47"/>
<polygon fill="#63b8ff" stroke="#63b8ff" points="361,-359.26 357.5,-349.26 354,-359.26 361,-359.26"/>
</a>
</g>
</g>
<!-- Node4 -->
<g id="Node000004" class="node">
<title>Node4</title>
<g id="a_Node000004"><a xlink:title=" ">
<polygon fill="#e0e0e0" stroke="#999999" points="127,-96 0,-96 0,-66 127,-66 127,-96"/>
<text text-anchor="start" x="8" y="-84" font-family="Helvetica,sans-Serif" font-size="10.00">deal.II/base/parameter</text>
<text text-anchor="middle" x="63.5" y="-73" font-family="Helvetica,sans-Serif" font-size="10.00">_handler.h</text>
</a>
</g>
</g>
<!-- Node1&#45;&gt;Node4 -->
<g id="edge51_Node000001_Node000004" class="edge">
<title>Node1&#45;&gt;Node4</title>
<g id="a_edge51_Node000001_Node000004"><a xlink:title=" ">
<path fill="none" stroke="#63b8ff" d="M274.26,-390.57C175.05,-371.55 22.5,-333.59 22.5,-280 22.5,-280 22.5,-280 22.5,-212 22.5,-173.35 39.19,-131.1 51.27,-105.58"/>
<polygon fill="#63b8ff" stroke="#63b8ff" points="54.54,-106.87 55.79,-96.35 48.25,-103.79 54.54,-106.87"/>
</a>
</g>
</g>
<!-- Node7 -->
<g id="Node000007" class="node">
<title>Node7</title>
<g id="a_Node000007"><a xlink:title=" ">
<polygon fill="#e0e0e0" stroke="#999999" points="190.5,-90.5 146.5,-90.5 146.5,-71.5 190.5,-71.5 190.5,-90.5"/>
<text text-anchor="middle" x="168.5" y="-78.5" font-family="Helvetica,sans-Serif" font-size="10.00">string</text>
</a>
</g>
</g>
<!-- Node1&#45;&gt;Node7 -->
<g id="edge54_Node000001_Node000007" class="edge">
<title>Node1&#45;&gt;Node7</title>
<g id="a_edge54_Node000001_Node000007"><a xlink:title=" ">
<path fill="none" stroke="#63b8ff" d="M331.33,-384.77C319.41,-374.92 305.72,-362.28 295.5,-349 249.54,-289.31 259.46,-261.23 218.5,-198 207.33,-180.76 198.76,-180.34 189.5,-162 179.62,-142.42 174.05,-117.72 171.17,-100.99"/>
<polygon fill="#63b8ff" stroke="#63b8ff" points="174.59,-100.17 169.58,-90.83 167.67,-101.25 174.59,-100.17"/>
</a>
</g>
</g>
<!-- Node25 -->
<g id="Node000025" class="node">
<title>Node25</title>
<g id="a_Node000025"><a xlink:title=" ">
<polygon fill="#e0e0e0" stroke="#999999" points="2000.5,-90.5 1962.5,-90.5 1962.5,-71.5 2000.5,-71.5 2000.5,-90.5"/>
<text text-anchor="middle" x="1981.5" y="-78.5" font-family="Helvetica,sans-Serif" font-size="10.00">map</text>
</a>
</g>
</g>
<!-- Node1&#45;&gt;Node25 -->
<g id="edge52_Node000001_Node000025" class="edge">
<title>Node1&#45;&gt;Node25</title>
<g id="a_edge52_Node000001_Node000025"><a xlink:title=" ">
<path fill="none" stroke="#63b8ff" d="M440.65,-402.88C784.27,-395.65 2075.5,-362.96 2075.5,-280 2075.5,-280 2075.5,-280 2075.5,-212 2075.5,-175.46 2077.37,-162 2056.5,-132 2044.84,-115.25 2025.6,-102.59 2009.53,-94.2"/>
<polygon fill="#63b8ff" stroke="#63b8ff" points="2011.03,-91.04 2000.51,-89.76 2007.93,-97.32 2011.03,-91.04"/>
</a>
</g>
</g>
<!-- Node41 -->
<g id="Node000041" class="node">
<title>Node41</title>
<g id="a_Node000041"><a xlink:title=" ">
<polygon fill="#e0e0e0" stroke="#999999" points="2135.5,-349 2103.5,-349 2103.5,-330 2135.5,-330 2135.5,-349"/>
<text text-anchor="middle" x="2119.5" y="-337" font-family="Helvetica,sans-Serif" font-size="10.00">set</text>
</a>
</g>
</g>
<!-- Node1&#45;&gt;Node41 -->
<g id="edge53_Node000001_Node000041" class="edge">
<title>Node1&#45;&gt;Node41</title>
<g id="a_edge53_Node000001_Node000041"><a xlink:title=" ">
<path fill="none" stroke="#63b8ff" d="M440.52,-404.52C740.27,-404.17 1765.92,-399.25 2089.5,-349 2090.79,-348.8 2092.11,-348.56 2093.44,-348.29"/>
<polygon fill="#63b8ff" stroke="#63b8ff" points="2094.6,-351.61 2103.47,-345.82 2092.92,-344.81 2094.6,-351.61"/>
</a>
</g>
</g>
<!-- Node3 -->
<g id="Node000003" class="node">
<title>Node3</title>
<g id="a_Node000003"><a xlink:href="dimensionality_8h.html" target="_top" xlink:title=" ">
<polygon fill="white" stroke="#666666" points="210,-222.5 89,-222.5 89,-203.5 210,-203.5 210,-222.5"/>
<text text-anchor="middle" x="149.5" y="-210.5" font-family="Helvetica,sans-Serif" font-size="10.00">core/dimensionality.h</text>
</a>
</g>
</g>
<!-- Node2&#45;&gt;Node3 -->
<g id="edge2_Node000002_Node000003" class="edge">
<title>Node2&#45;&gt;Node3</title>
<g id="a_edge2_Node000002_Node000003"><a xlink:title=" ">
<path fill="none" stroke="#63b8ff" d="M314.99,-329.97C287.64,-323.15 252.17,-311.75 224.5,-294 198.3,-277.2 174.97,-249.22 161.54,-231.2"/>
<polygon fill="#63b8ff" stroke="#63b8ff" points="164.15,-228.85 155.45,-222.8 158.48,-232.95 164.15,-228.85"/>
</a>
</g>
</g>
<!-- Node2&#45;&gt;Node4 -->
<g id="edge48_Node000002_Node000004" class="edge">
<title>Node2&#45;&gt;Node4</title>
<g id="a_edge48_Node000002_Node000004"><a xlink:title=" ">
<path fill="none" stroke="#63b8ff" d="M304.49,-335.2C238.22,-327.85 127.64,-304.17 79.5,-228 55.96,-190.76 56.91,-137.28 60.01,-106.45"/>
<polygon fill="#63b8ff" stroke="#63b8ff" points="63.53,-106.52 61.21,-96.18 56.57,-105.71 63.53,-106.52"/>
</a>
</g>
</g>
<!-- Node5 -->
<g id="Node000005" class="node">
<title>Node5</title>
<g id="a_Node000005"><a xlink:href="ib__particle_8h.html" target="_top" xlink:title=" ">
<polygon fill="white" stroke="#666666" points="407,-288.5 306,-288.5 306,-269.5 407,-269.5 407,-288.5"/>
<text text-anchor="middle" x="356.5" y="-276.5" font-family="Helvetica,sans-Serif" font-size="10.00">core/ib_particle.h</text>
</a>
</g>
</g>
<!-- Node2&#45;&gt;Node5 -->
<g id="edge4_Node000002_Node000005" class="edge">
<title>Node2&#45;&gt;Node5</title>
<g id="a_edge4_Node000002_Node000005"><a xlink:title=" ">
<path fill="none" stroke="#63b8ff" d="M357.35,-329.87C357.21,-321.75 357,-309.31 356.82,-298.89"/>
<polygon fill="#63b8ff" stroke="#63b8ff" points="360.32,-298.61 356.65,-288.67 353.32,-298.73 360.32,-298.61"/>
</a>
</g>
</g>
<!-- Node13 -->
<g id="Node000013" class="node">
<title>Node13</title>
<g id="a_Node000013"><a xlink:href="core_2utilities_8h.html" target="_top" xlink:title=" ">
<polygon fill="white" stroke="#666666" points="712.5,-156.5 626.5,-156.5 626.5,-137.5 712.5,-137.5 712.5,-156.5"/>
<text text-anchor="middle" x="669.5" y="-144.5" font-family="Helvetica,sans-Serif" font-size="10.00">core/utilities.h</text>
</a>
</g>
</g>
<!-- Node2&#45;&gt;Node13 -->
<g id="edge47_Node000002_Node000013" class="edge">
<title>Node2&#45;&gt;Node13</title>
<g id="a_edge47_Node000002_Node000013"><a xlink:title=" ">
<path fill="none" stroke="#63b8ff" d="M337.3,-329.91C323.03,-322.64 304.99,-310.71 296.5,-294 290.46,-282.11 288.59,-274.74 296.5,-264 334.77,-212.02 522.38,-173.2 616.06,-156.72"/>
<polygon fill="#63b8ff" stroke="#63b8ff" points="616.94,-160.12 626.19,-154.96 615.74,-153.22 616.94,-160.12"/>
</a>
</g>
</g>
<!-- Node38 -->
<g id="Node000038" class="node">
<title>Node38</title>
<g id="a_Node000038"><a xlink:title=" ">
<polygon fill="#e0e0e0" stroke="#999999" points="1201,-228 1092,-228 1092,-198 1201,-198 1201,-228"/>
<text text-anchor="start" x="1100" y="-216" font-family="Helvetica,sans-Serif" font-size="10.00">deal.II/base/parsed</text>
<text text-anchor="middle" x="1146.5" y="-205" font-family="Helvetica,sans-Serif" font-size="10.00">_function.h</text>
</a>
</g>
</g>
<!-- Node2&#45;&gt;Node38 -->
<g id="edge49_Node000002_Node000038" class="edge">
<title>Node2&#45;&gt;Node38</title>
<g id="a_edge49_Node000002_Node000038"><a xlink:title=" ">
<path fill="none" stroke="#63b8ff" d="M369.31,-329.71C381.26,-320.79 400.25,-306.54 416.5,-294 433.54,-280.85 434.38,-271.64 454.5,-264 582.46,-215.44 928.79,-245.81 1081.73,-227.99"/>
<polygon fill="#63b8ff" stroke="#63b8ff" points="1082.49,-231.42 1091.96,-226.68 1081.6,-224.48 1082.49,-231.42"/>
</a>
</g>
</g>
<!-- Node39 -->
<g id="Node000039" class="node">
<title>Node39</title>
<g id="a_Node000039"><a xlink:href="multiphysics_8h.html" target="_top" xlink:title="Identifiers for multiphysics modules and their solution fields.">
<polygon fill="white" stroke="#666666" points="575.5,-288.5 463.5,-288.5 463.5,-269.5 575.5,-269.5 575.5,-288.5"/>
<text text-anchor="middle" x="519.5" y="-276.5" font-family="Helvetica,sans-Serif" font-size="10.00">core/multiphysics.h</text>
</a>
</g>
</g>
<!-- Node2&#45;&gt;Node39 -->
<g id="edge46_Node000002_Node000039" class="edge">
<title>Node2&#45;&gt;Node39</title>
<g id="a_edge46_Node000002_Node000039"><a xlink:title=" ">
<path fill="none" stroke="#63b8ff" d="M381.06,-329.99C408.77,-319.99 454.97,-303.3 486.31,-291.99"/>
<polygon fill="#63b8ff" stroke="#63b8ff" points="487.7,-295.21 495.92,-288.52 485.32,-288.62 487.7,-295.21"/>
</a>
</g>
</g>
<!-- Node40 -->
<g id="Node000040" class="node">
<title>Node40</title>
<g id="a_Node000040"><a xlink:title=" ">
<polygon fill="#e0e0e0" stroke="#999999" points="757,-294 594,-294 594,-264 757,-264 757,-294"/>
<text text-anchor="start" x="602" y="-282" font-family="Helvetica,sans-Serif" font-size="10.00">deal.II/multigrid/mg</text>
<text text-anchor="middle" x="675.5" y="-271" font-family="Helvetica,sans-Serif" font-size="10.00">_transfer_global_coarsening.h</text>
</a>
</g>
</g>
<!-- Node2&#45;&gt;Node40 -->
<g id="edge50_Node000002_Node000040" class="edge">
<title>Node2&#45;&gt;Node40</title>
<g id="a_edge50_Node000002_Node000040"><a xlink:title=" ">
<path fill="none" stroke="#63b8ff" d="M403.74,-329.99C452.18,-321.08 529.4,-306.88 589.17,-295.88"/>
<polygon fill="#63b8ff" stroke="#63b8ff" points="590.15,-299.26 599.36,-294.01 588.89,-292.37 590.15,-299.26"/>
</a>
</g>
</g>
<!-- Node3&#45;&gt;Node4 -->
<g id="edge3_Node000003_Node000004" class="edge">
<title>Node3&#45;&gt;Node4</title>
<g id="a_edge3_Node000003_Node000004"><a xlink:title=" ">
<path fill="none" stroke="#63b8ff" d="M143.86,-203.47C130.72,-183.61 97.73,-133.74 78.35,-104.44"/>
<polygon fill="#63b8ff" stroke="#63b8ff" points="81.24,-102.48 72.81,-96.07 75.4,-106.34 81.24,-102.48"/>
</a>
</g>
</g>
<!-- Node6 -->
<g id="Node000006" class="node">
<title>Node6</title>
<g id="a_Node000006"><a xlink:href="dem__properties_8h.html" target="_top" xlink:title="DEM particle property definitions and output name management.">
<polygon fill="white" stroke="#666666" points="324.5,-156.5 198.5,-156.5 198.5,-137.5 324.5,-137.5 324.5,-156.5"/>
<text text-anchor="middle" x="261.5" y="-144.5" font-family="Helvetica,sans-Serif" font-size="10.00">core/dem_properties.h</text>
</a>
</g>
</g>
<!-- Node5&#45;&gt;Node6 -->
<g id="edge5_Node000005_Node000006" class="edge">
<title>Node5&#45;&gt;Node6</title>
<g id="a_edge5_Node000005_Node000006"><a xlink:title=" ">
<path fill="none" stroke="#63b8ff" d="M350.27,-269.47C334.84,-248.36 294.63,-193.34 274.05,-165.17"/>
<polygon fill="#63b8ff" stroke="#63b8ff" points="276.61,-162.74 267.88,-156.73 270.96,-166.87 276.61,-162.74"/>
</a>
</g>
</g>
<!-- Node8 -->
<g id="Node000008" class="node">
<title>Node8</title>
<g id="a_Node000008"><a xlink:title=" ">
<polygon fill="#e0e0e0" stroke="#999999" points="256,-90.5 209,-90.5 209,-71.5 256,-71.5 256,-90.5"/>
<text text-anchor="middle" x="232.5" y="-78.5" font-family="Helvetica,sans-Serif" font-size="10.00">vector</text>
</a>
</g>
</g>
<!-- Node5&#45;&gt;Node8 -->
<g id="edge45_Node000005_Node000008" class="edge">
<title>Node5&#45;&gt;Node8</title>
<g id="a_edge45_Node000005_Node000008"><a xlink:title=" ">
<path fill="none" stroke="#63b8ff" d="M357.67,-269.41C360.49,-245.18 365.25,-175.22 333.5,-132 328.81,-125.62 289.65,-107.31 261.5,-94.71"/>
<polygon fill="#63b8ff" stroke="#63b8ff" points="262.64,-91.39 252.08,-90.52 259.79,-97.78 262.64,-91.39"/>
</a>
</g>
</g>
<!-- Node9 -->
<g id="Node000009" class="node">
<title>Node9</title>
<g id="a_Node000009"><a xlink:href="shape_8h.html" target="_top" xlink:title=" ">
<polygon fill="white" stroke="#666666" points="1074,-222.5 995,-222.5 995,-203.5 1074,-203.5 1074,-222.5"/>
<text text-anchor="middle" x="1034.5" y="-210.5" font-family="Helvetica,sans-Serif" font-size="10.00">core/shape.h</text>
</a>
</g>
</g>
<!-- Node5&#45;&gt;Node9 -->
<g id="edge8_Node000005_Node000009" class="edge">
<title>Node5&#45;&gt;Node9</title>
<g id="a_edge8_Node000005_Node000009"><a xlink:title=" ">
<path fill="none" stroke="#63b8ff" d="M392.11,-269.45C401.61,-267.41 411.91,-265.42 421.5,-264 629.32,-233.28 879.77,-220.25 984.58,-215.86"/>
<polygon fill="#63b8ff" stroke="#63b8ff" points="985,-219.34 994.85,-215.44 984.72,-212.35 985,-219.34"/>
</a>
</g>
</g>
<!-- Node11 -->
<g id="Node000011" class="node">
<title>Node11</title>
<g id="a_Node000011"><a xlink:title=" ">
<polygon fill="#e0e0e0" stroke="#999999" points="384.5,-90.5 274.5,-90.5 274.5,-71.5 384.5,-71.5 384.5,-90.5"/>
<text text-anchor="middle" x="329.5" y="-78.5" font-family="Helvetica,sans-Serif" font-size="10.00">deal.II/base/point.h</text>
</a>
</g>
</g>
<!-- Node5&#45;&gt;Node11 -->
<g id="edge44_Node000005_Node000011" class="edge">
<title>Node5&#45;&gt;Node11</title>
<g id="a_edge44_Node000005_Node000011"><a xlink:title=" ">
<path fill="none" stroke="#63b8ff" d="M359.27,-269.49C366.27,-246.58 382.97,-181.95 366.5,-132 362.31,-119.28 353.49,-107.15 345.52,-98.02"/>
<polygon fill="#63b8ff" stroke="#63b8ff" points="347.95,-95.5 338.59,-90.55 342.82,-100.26 347.95,-95.5"/>
</a>
</g>
</g>
<!-- Node5&#45;&gt;Node38 -->
<g id="edge43_Node000005_Node000038" class="edge">
<title>Node5&#45;&gt;Node38</title>
<g id="a_edge43_Node000005_Node000038"><a xlink:title=" ">
<path fill="none" stroke="#63b8ff" d="M391.07,-269.5C400.85,-267.38 411.55,-265.33 421.5,-264 710.27,-225.3 789.8,-267.13 1081.93,-228.06"/>
<polygon fill="#63b8ff" stroke="#63b8ff" points="1082.53,-231.51 1091.96,-226.69 1081.58,-224.57 1082.53,-231.51"/>
</a>
</g>
</g>
<!-- Node6&#45;&gt;Node7 -->
<g id="edge6_Node000006_Node000007" class="edge">
<title>Node6&#45;&gt;Node7</title>
<g id="a_edge6_Node000006_Node000007"><a xlink:title=" ">
<path fill="none" stroke="#63b8ff" d="M248.96,-137.37C233.7,-126.87 207.73,-109 189.43,-96.4"/>
<polygon fill="#63b8ff" stroke="#63b8ff" points="191.36,-93.48 181.14,-90.7 187.39,-99.25 191.36,-93.48"/>
</a>
</g>
</g>
<!-- Node6&#45;&gt;Node8 -->
<g id="edge7_Node000006_Node000008" class="edge">
<title>Node6&#45;&gt;Node8</title>
<g id="a_edge7_Node000006_Node000008"><a xlink:title=" ">
<path fill="none" stroke="#63b8ff" d="M257.59,-137.37C253.29,-127.88 246.26,-112.36 240.73,-100.16"/>
<polygon fill="#63b8ff" stroke="#63b8ff" points="243.85,-98.57 236.54,-90.91 237.47,-101.46 243.85,-98.57"/>
</a>
</g>
</g>
<!-- Node10 -->
<g id="Node000010" class="node">
<title>Node10</title>
<g id="a_Node000010"><a xlink:href="tensors__and__points__dimension__manipulation_8h.html" target="_top" xlink:title=" ">
<polygon fill="white" stroke="#666666" points="570.5,-162 418.5,-162 418.5,-132 570.5,-132 570.5,-162"/>
<text text-anchor="start" x="426.5" y="-150" font-family="Helvetica,sans-Serif" font-size="10.00">core/tensors_and_points</text>
<text text-anchor="middle" x="494.5" y="-139" font-family="Helvetica,sans-Serif" font-size="10.00">_dimension_manipulation.h</text>
</a>
</g>
</g>
<!-- Node9&#45;&gt;Node10 -->
<g id="edge9_Node000009_Node000010" class="edge">
<title>Node9&#45;&gt;Node10</title>
<g id="a_edge9_Node000009_Node000010"><a xlink:title=" ">
<path fill="none" stroke="#63b8ff" d="M994.7,-208.17C916.14,-200.47 735.66,-182.14 584.5,-162 583.22,-161.83 581.93,-161.66 580.64,-161.48"/>
<polygon fill="#63b8ff" stroke="#63b8ff" points="580.96,-157.99 570.57,-160.07 579.99,-164.92 580.96,-157.99"/>
</a>
</g>
</g>
<!-- Node9&#45;&gt;Node13 -->
<g id="edge12_Node000009_Node000013" class="edge">
<title>Node9&#45;&gt;Node13</title>
<g id="a_edge12_Node000009_Node000013"><a xlink:title=" ">
<path fill="none" stroke="#63b8ff" d="M994.73,-207C935.04,-199.2 818.9,-182.83 721.5,-162 717.39,-161.12 713.11,-160.12 708.86,-159.06"/>
<polygon fill="#63b8ff" stroke="#63b8ff" points="709.63,-155.64 699.07,-156.53 707.88,-162.42 709.63,-155.64"/>
</a>
</g>
</g>
<!-- Node18 -->
<g id="Node000018" class="node">
<title>Node18</title>
<g id="a_Node000018"><a xlink:title=" ">
<polygon fill="#e0e0e0" stroke="#999999" points="676.5,-90.5 536.5,-90.5 536.5,-71.5 676.5,-71.5 676.5,-90.5"/>
<text text-anchor="middle" x="606.5" y="-78.5" font-family="Helvetica,sans-Serif" font-size="10.00">deal.II/dofs/dof_handler.h</text>
</a>
</g>
</g>
<!-- Node9&#45;&gt;Node18 -->
<g id="edge38_Node000009_Node000018" class="edge">
<title>Node9&#45;&gt;Node18</title>
<g id="a_edge38_Node000009_Node000018"><a xlink:title=" ">
<path fill="none" stroke="#63b8ff" d="M994.98,-209.98C896.13,-204.54 644.18,-188.23 617.5,-162 601.52,-146.29 601.21,-119.02 603.22,-100.74"/>
<polygon fill="#63b8ff" stroke="#63b8ff" points="606.71,-101.1 604.66,-90.7 599.78,-100.11 606.71,-101.1"/>
</a>
</g>
</g>
<!-- Node28 -->
<g id="Node000028" class="node">
<title>Node28</title>
<g id="a_Node000028"><a xlink:title=" ">
<polygon fill="#e0e0e0" stroke="#999999" points="882.5,-162 730.5,-162 730.5,-132 882.5,-132 882.5,-162"/>
<text text-anchor="start" x="738.5" y="-150" font-family="Helvetica,sans-Serif" font-size="10.00">deal.II/base/auto_derivative</text>
<text text-anchor="middle" x="806.5" y="-139" font-family="Helvetica,sans-Serif" font-size="10.00">_function.h</text>
</a>
</g>
</g>
<!-- Node9&#45;&gt;Node28 -->
<g id="edge32_Node000009_Node000028" class="edge">
<title>Node9&#45;&gt;Node28</title>
<g id="a_edge32_Node000009_Node000028"><a xlink:title=" ">
<path fill="none" stroke="#63b8ff" d="M1003.75,-203.37C968.72,-193.54 910.63,-177.23 866.53,-164.85"/>
<polygon fill="#63b8ff" stroke="#63b8ff" points="867.36,-161.45 856.79,-162.12 865.47,-168.19 867.36,-161.45"/>
</a>
</g>
</g>
<!-- Node29 -->
<g id="Node000029" class="node">
<title>Node29</title>
<g id="a_Node000029"><a xlink:title=" ">
<polygon fill="#e0e0e0" stroke="#999999" points="1026,-156.5 901,-156.5 901,-137.5 1026,-137.5 1026,-156.5"/>
<text text-anchor="middle" x="963.5" y="-144.5" font-family="Helvetica,sans-Serif" font-size="10.00">deal.II/base/function.h</text>
</a>
</g>
</g>
<!-- Node9&#45;&gt;Node29 -->
<g id="edge33_Node000009_Node000029" class="edge">
<title>Node9&#45;&gt;Node29</title>
<g id="a_edge33_Node000009_Node000029"><a xlink:title=" ">
<path fill="none" stroke="#63b8ff" d="M1024.92,-203.37C1013.66,-193.21 994.74,-176.16 980.87,-163.65"/>
<polygon fill="#63b8ff" stroke="#63b8ff" points="983.15,-161 973.38,-156.91 978.46,-166.2 983.15,-161"/>
</a>
</g>
</g>
<!-- Node30 -->
<g id="Node000030" class="node">
<title>Node30</title>
<g id="a_Node000030"><a xlink:title=" ">
<polygon fill="#e0e0e0" stroke="#999999" points="1168.5,-156.5 1044.5,-156.5 1044.5,-137.5 1168.5,-137.5 1168.5,-156.5"/>
<text text-anchor="middle" x="1106.5" y="-144.5" font-family="Helvetica,sans-Serif" font-size="10.00">deal.II/grid/manifold.h</text>
</a>
</g>
</g>
<!-- Node9&#45;&gt;Node30 -->
<g id="edge34_Node000009_Node000030" class="edge">
<title>Node9&#45;&gt;Node30</title>
<g id="a_edge34_Node000009_Node000030"><a xlink:title=" ">
<path fill="none" stroke="#63b8ff" d="M1044.21,-203.37C1055.63,-193.21 1074.82,-176.16 1088.89,-163.65"/>
<polygon fill="#63b8ff" stroke="#63b8ff" points="1091.33,-166.16 1096.48,-156.91 1086.68,-160.93 1091.33,-166.16"/>
</a>
</g>
</g>
<!-- Node31 -->
<g id="Node000031" class="node">
<title>Node31</title>
<g id="a_Node000031"><a xlink:title=" ">
<polygon fill="#e0e0e0" stroke="#999999" points="1302,-162 1187,-162 1187,-132 1302,-132 1302,-162"/>
<text text-anchor="start" x="1195" y="-150" font-family="Helvetica,sans-Serif" font-size="10.00">deal.II/grid/manifold</text>
<text text-anchor="middle" x="1244.5" y="-139" font-family="Helvetica,sans-Serif" font-size="10.00">_lib.h</text>
</a>
</g>
</g>
<!-- Node9&#45;&gt;Node31 -->
<g id="edge35_Node000009_Node000031" class="edge">
<title>Node9&#45;&gt;Node31</title>
<g id="a_edge35_Node000009_Node000031"><a xlink:title=" ">
<path fill="none" stroke="#63b8ff" d="M1062.82,-203.37C1094.88,-193.6 1147.92,-177.43 1188.44,-165.09"/>
<polygon fill="#63b8ff" stroke="#63b8ff" points="1189.64,-168.38 1198.18,-162.12 1187.6,-161.68 1189.64,-168.38"/>
</a>
</g>
</g>
<!-- Node32 -->
<g id="Node000032" class="node">
<title>Node32</title>
<g id="a_Node000032"><a xlink:title=" ">
<polygon fill="#e0e0e0" stroke="#999999" points="1435,-162 1320,-162 1320,-132 1435,-132 1435,-162"/>
<text text-anchor="start" x="1328" y="-150" font-family="Helvetica,sans-Serif" font-size="10.00">boost/range/adaptor</text>
<text text-anchor="middle" x="1377.5" y="-139" font-family="Helvetica,sans-Serif" font-size="10.00">/map.hpp</text>
</a>
</g>
</g>
<!-- Node9&#45;&gt;Node32 -->
<g id="edge36_Node000009_Node000032" class="edge">
<title>Node9&#45;&gt;Node32</title>
<g id="a_edge36_Node000009_Node000032"><a xlink:title=" ">
<path fill="none" stroke="#63b8ff" d="M1062.08,-203.49C1069.03,-201.52 1076.5,-199.55 1083.5,-198 1180.54,-176.56 1208.87,-180.38 1309.93,-162.22"/>
<polygon fill="#63b8ff" stroke="#63b8ff" points="1310.73,-165.63 1319.94,-160.39 1309.48,-158.75 1310.73,-165.63"/>
</a>
</g>
</g>
<!-- Node33 -->
<g id="Node000033" class="node">
<title>Node33</title>
<g id="a_Node000033"><a xlink:title=" ">
<polygon fill="#e0e0e0" stroke="#999999" points="1569.5,-162 1453.5,-162 1453.5,-132 1569.5,-132 1569.5,-162"/>
<text text-anchor="start" x="1461.5" y="-150" font-family="Helvetica,sans-Serif" font-size="10.00">deal.II/base/function</text>
<text text-anchor="middle" x="1511.5" y="-139" font-family="Helvetica,sans-Serif" font-size="10.00">_signed_distance.h</text>
</a>
</g>
</g>
<!-- Node9&#45;&gt;Node33 -->
<g id="edge37_Node000009_Node000033" class="edge">
<title>Node9&#45;&gt;Node33</title>
<g id="a_edge37_Node000009_Node000033"><a xlink:title=" ">
<path fill="none" stroke="#63b8ff" d="M1060.99,-203.5C1068.23,-201.43 1076.11,-199.41 1083.5,-198 1238.63,-168.35 1283.31,-185.77 1443.26,-162.07"/>
<polygon fill="#63b8ff" stroke="#63b8ff" points="1444.1,-165.48 1453.46,-160.52 1443.05,-158.56 1444.1,-165.48"/>
</a>
</g>
</g>
<!-- Node34 -->
<g id="Node000034" class="node">
<title>Node34</title>
<g id="a_Node000034"><a xlink:title=" ">
<polygon fill="#e0e0e0" stroke="#999999" points="1715.5,-156.5 1587.5,-156.5 1587.5,-137.5 1715.5,-137.5 1715.5,-156.5"/>
<text text-anchor="middle" x="1651.5" y="-144.5" font-family="Helvetica,sans-Serif" font-size="10.00">deal.II/dofs/dof_tools.h</text>
</a>
</g>
</g>
<!-- Node9&#45;&gt;Node34 -->
<g id="edge39_Node000009_Node000034" class="edge">
<title>Node9&#45;&gt;Node34</title>
<g id="a_edge39_Node000009_Node000034"><a xlink:title=" ">
<path fill="none" stroke="#63b8ff" d="M1060.71,-203.44C1068.02,-201.34 1076.01,-199.33 1083.5,-198 1300.69,-159.5 1359.81,-190.82 1578.5,-162 1585.97,-161.02 1593.84,-159.75 1601.52,-158.39"/>
<polygon fill="#63b8ff" stroke="#63b8ff" points="1602.28,-161.81 1611.47,-156.55 1601.01,-154.92 1602.28,-161.81"/>
</a>
</g>
</g>
<!-- Node35 -->
<g id="Node000035" class="node">
<title>Node35</title>
<g id="a_Node000035"><a xlink:title=" ">
<polygon fill="#e0e0e0" stroke="#999999" points="1909.5,-156.5 1733.5,-156.5 1733.5,-137.5 1909.5,-137.5 1909.5,-156.5"/>
<text text-anchor="middle" x="1821.5" y="-144.5" font-family="Helvetica,sans-Serif" font-size="10.00">deal.II/physics/transformations.h</text>
</a>
</g>
</g>
<!-- Node9&#45;&gt;Node35 -->
<g id="edge40_Node000009_Node000035" class="edge">
<title>Node9&#45;&gt;Node35</title>
<g id="a_edge40_Node000009_Node000035"><a xlink:title=" ">
<path fill="none" stroke="#63b8ff" d="M1060.19,-203.5C1067.63,-201.35 1075.82,-199.3 1083.5,-198 1364.86,-150.51 1440.58,-190.41 1724.5,-162 1735.45,-160.9 1747.07,-159.47 1758.3,-157.93"/>
<polygon fill="#63b8ff" stroke="#63b8ff" points="1759.07,-161.36 1768.49,-156.5 1758.1,-154.43 1759.07,-161.36"/>
</a>
</g>
</g>
<!-- Node36 -->
<g id="Node000036" class="node">
<title>Node36</title>
<g id="a_Node000036"><a xlink:title=" ">
<polygon fill="#e0e0e0" stroke="#999999" points="1971.5,-156.5 1927.5,-156.5 1927.5,-137.5 1971.5,-137.5 1971.5,-156.5"/>
<text text-anchor="middle" x="1949.5" y="-144.5" font-family="Helvetica,sans-Serif" font-size="10.00">cfloat</text>
</a>
</g>
</g>
<!-- Node9&#45;&gt;Node36 -->
<g id="edge41_Node000009_Node000036" class="edge">
<title>Node9&#45;&gt;Node36</title>
<g id="a_edge41_Node000009_Node000036"><a xlink:title=" ">
<path fill="none" stroke="#63b8ff" d="M1060.18,-203.44C1067.62,-201.29 1075.81,-199.25 1083.5,-198 1450.17,-138.57 1557.14,-248 1918.5,-162 1920.24,-161.59 1922,-161.08 1923.75,-160.49"/>
<polygon fill="#63b8ff" stroke="#63b8ff" points="1925.5,-163.57 1933.5,-156.62 1922.92,-157.06 1925.5,-163.57"/>
</a>
</g>
</g>
<!-- Node37 -->
<g id="Node000037" class="node">
<title>Node37</title>
<g id="a_Node000037"><a xlink:title=" ">
<polygon fill="#e0e0e0" stroke="#999999" points="2047.5,-156.5 1989.5,-156.5 1989.5,-137.5 2047.5,-137.5 2047.5,-156.5"/>
<text text-anchor="middle" x="2018.5" y="-144.5" font-family="Helvetica,sans-Serif" font-size="10.00">memory</text>
</a>
</g>
</g>
<!-- Node9&#45;&gt;Node37 -->
<g id="edge42_Node000009_Node000037" class="edge">
<title>Node9&#45;&gt;Node37</title>
<g id="a_edge42_Node000009_Node000037"><a xlink:title=" ">
<path fill="none" stroke="#63b8ff" d="M1059.93,-203.49C1067.43,-201.32 1075.73,-199.25 1083.5,-198 1477.44,-134.75 1589.19,-239.92 1980.5,-162 1983.34,-161.43 1986.26,-160.69 1989.15,-159.83"/>
<polygon fill="#63b8ff" stroke="#63b8ff" points="1990.36,-163.12 1998.72,-156.61 1988.13,-156.48 1990.36,-163.12"/>
</a>
</g>
</g>
<!-- Node10&#45;&gt;Node11 -->
<g id="edge10_Node000010_Node000011" class="edge">
<title>Node10&#45;&gt;Node11</title>
<g id="a_edge10_Node000010_Node000011"><a xlink:title=" ">
<path fill="none" stroke="#63b8ff" d="M458.29,-131.95C429.23,-120.68 388.83,-105.01 361.07,-94.25"/>
<polygon fill="#63b8ff" stroke="#63b8ff" points="362.05,-90.87 351.46,-90.52 359.52,-97.4 362.05,-90.87"/>
</a>
</g>
</g>
<!-- Node12 -->
<g id="Node000012" class="node">
<title>Node12</title>
<g id="a_Node000012"><a xlink:title=" ">
<polygon fill="#e0e0e0" stroke="#999999" points="518,-90.5 403,-90.5 403,-71.5 518,-71.5 518,-90.5"/>
<text text-anchor="middle" x="460.5" y="-78.5" font-family="Helvetica,sans-Serif" font-size="10.00">deal.II/base/tensor.h</text>
</a>
</g>
</g>
<!-- Node10&#45;&gt;Node12 -->
<g id="edge11_Node000010_Node000012" class="edge">
<title>Node10&#45;&gt;Node12</title>
<g id="a_edge11_Node000010_Node000012"><a xlink:title=" ">
<path fill="none" stroke="#63b8ff" d="M486.95,-131.8C481.97,-122.41 475.38,-110.02 470.03,-99.95"/>
<polygon fill="#63b8ff" stroke="#63b8ff" points="472.98,-98.03 465.2,-90.84 466.8,-101.32 472.98,-98.03"/>
</a>
</g>
</g>
<!-- Node13&#45;&gt;Node4 -->
<g id="edge16_Node000013_Node000004" class="edge">
<title>Node13&#45;&gt;Node4</title>
<g id="a_edge16_Node000013_Node000004"><a xlink:title=" ">
<path fill="none" stroke="#63b8ff" d="M626.1,-138.59C611.34,-136.25 594.73,-133.8 579.5,-132 383.77,-108.84 332.82,-122.36 137.5,-96 137.39,-95.99 137.29,-95.97 137.18,-95.96"/>
<polygon fill="#63b8ff" stroke="#63b8ff" points="137.61,-92.48 127.21,-94.5 136.59,-99.41 137.61,-92.48"/>
</a>
</g>
</g>
<!-- Node13&#45;&gt;Node7 -->
<g id="edge29_Node000013_Node000007" class="edge">
<title>Node13&#45;&gt;Node7</title>
<g id="a_edge29_Node000013_Node000007"><a xlink:title=" ">
<path fill="none" stroke="#63b8ff" d="M626.09,-138.71C611.33,-136.37 594.72,-133.9 579.5,-132 411.17,-110.95 363.47,-139.5 199.5,-96 197.81,-95.55 196.1,-95.02 194.39,-94.43"/>
<polygon fill="#63b8ff" stroke="#63b8ff" points="195.44,-91.08 184.86,-90.6 192.83,-97.58 195.44,-91.08"/>
</a>
</g>
</g>
<!-- Node13&#45;&gt;Node8 -->
<g id="edge31_Node000013_Node000008" class="edge">
<title>Node13&#45;&gt;Node8</title>
<g id="a_edge31_Node000013_Node000008"><a xlink:title=" ">
<path fill="none" stroke="#63b8ff" d="M626.06,-138.88C611.3,-136.56 594.7,-134.05 579.5,-132 440.29,-113.2 401.33,-131.8 265.5,-96 263.56,-95.49 261.58,-94.88 259.61,-94.22"/>
<polygon fill="#63b8ff" stroke="#63b8ff" points="260.57,-90.84 249.98,-90.52 258.06,-97.37 260.57,-90.84"/>
</a>
</g>
</g>
<!-- Node13&#45;&gt;Node11 -->
<g id="edge17_Node000013_Node000011" class="edge">
<title>Node13&#45;&gt;Node11</title>
<g id="a_edge17_Node000013_Node000011"><a xlink:title=" ">
<path fill="none" stroke="#63b8ff" d="M626.07,-138.55C571.81,-129.14 476.13,-112.21 394.5,-96 389.19,-94.95 383.65,-93.81 378.14,-92.65"/>
<polygon fill="#63b8ff" stroke="#63b8ff" points="378.81,-89.22 368.3,-90.57 377.35,-96.07 378.81,-89.22"/>
</a>
</g>
</g>
<!-- Node13&#45;&gt;Node12 -->
<g id="edge19_Node000013_Node000012" class="edge">
<title>Node13&#45;&gt;Node12</title>
<g id="a_edge19_Node000013_Node000012"><a xlink:title=" ">
<path fill="none" stroke="#63b8ff" d="M641.31,-137.37C604.36,-126.05 539.41,-106.16 498.24,-93.56"/>
<polygon fill="#63b8ff" stroke="#63b8ff" points="499.16,-90.18 488.57,-90.6 497.11,-96.87 499.16,-90.18"/>
</a>
</g>
</g>
<!-- Node14 -->
<g id="Node000014" class="node">
<title>Node14</title>
<g id="a_Node000014"><a xlink:href="output__struct_8h.html" target="_top" xlink:title=" ">
<polygon fill="#fff0f0" stroke="red" points="846.5,-90.5 732.5,-90.5 732.5,-71.5 846.5,-71.5 846.5,-90.5"/>
<text text-anchor="middle" x="789.5" y="-78.5" font-family="Helvetica,sans-Serif" font-size="10.00">core/output_struct.h</text>
</a>
</g>
</g>
<!-- Node13&#45;&gt;Node14 -->
<g id="edge13_Node000013_Node000014" class="edge">
<title>Node13&#45;&gt;Node14</title>
<g id="a_edge13_Node000013_Node000014"><a xlink:title=" ">
<path fill="none" stroke="#63b8ff" d="M685.68,-137.37C705.81,-126.63 740.41,-108.18 764.09,-95.55"/>
<polygon fill="#63b8ff" stroke="#63b8ff" points="766.01,-98.49 773.19,-90.7 762.72,-92.32 766.01,-98.49"/>
</a>
</g>
</g>
<!-- Node15 -->
<g id="Node000015" class="node">
<title>Node15</title>
<g id="a_Node000015"><a xlink:title=" ">
<polygon fill="#e0e0e0" stroke="#999999" points="797,-30 696,-30 696,0 797,0 797,-30"/>
<text text-anchor="start" x="704" y="-18" font-family="Helvetica,sans-Serif" font-size="10.00">deal.II/base/table</text>
<text text-anchor="middle" x="746.5" y="-7" font-family="Helvetica,sans-Serif" font-size="10.00">_handler.h</text>
</a>
</g>
</g>
<!-- Node13&#45;&gt;Node15 -->
<g id="edge18_Node000013_Node000015" class="edge">
<title>Node13&#45;&gt;Node15</title>
<g id="a_edge18_Node000013_Node000015"><a xlink:title=" ">
<path fill="none" stroke="#63b8ff" d="M674.55,-137.47C686.27,-117.69 715.6,-68.17 732.98,-38.82"/>
<polygon fill="#63b8ff" stroke="#63b8ff" points="736.08,-40.45 738.17,-30.07 730.06,-36.89 736.08,-40.45"/>
</a>
</g>
</g>
<!-- Node17 -->
<g id="Node000017" class="node">
<title>Node17</title>
<g id="a_Node000017"><a xlink:title=" ">
<polygon fill="#e0e0e0" stroke="#999999" points="994.5,-96 864.5,-96 864.5,-66 994.5,-66 994.5,-96"/>
<text text-anchor="start" x="872.5" y="-84" font-family="Helvetica,sans-Serif" font-size="10.00">deal.II/base/conditional</text>
<text text-anchor="middle" x="929.5" y="-73" font-family="Helvetica,sans-Serif" font-size="10.00">_ostream.h</text>
</a>
</g>
</g>
<!-- Node13&#45;&gt;Node17 -->
<g id="edge15_Node000013_Node000017" class="edge">
<title>Node13&#45;&gt;Node17</title>
<g id="a_edge15_Node000013_Node000017"><a xlink:title=" ">
<path fill="none" stroke="#63b8ff" d="M700.54,-137.5C707.43,-135.65 714.71,-133.73 721.5,-132 767.38,-120.31 819.15,-107.86 859.56,-98.31"/>
<polygon fill="#63b8ff" stroke="#63b8ff" points="860.39,-101.71 869.32,-96.01 858.78,-94.9 860.39,-101.71"/>
</a>
</g>
</g>
<!-- Node13&#45;&gt;Node18 -->
<g id="edge20_Node000013_Node000018" class="edge">
<title>Node13&#45;&gt;Node18</title>
<g id="a_edge20_Node000013_Node000018"><a xlink:title=" ">
<path fill="none" stroke="#63b8ff" d="M661,-137.37C651.2,-127.4 634.84,-110.79 622.61,-98.36"/>
<polygon fill="#63b8ff" stroke="#63b8ff" points="624.78,-95.58 615.27,-90.91 619.79,-100.49 624.78,-95.58"/>
</a>
</g>
</g>
<!-- Node19 -->
<g id="Node000019" class="node">
<title>Node19</title>
<g id="a_Node000019"><a xlink:title=" ">
<polygon fill="#e0e0e0" stroke="#999999" points="1132,-90.5 1013,-90.5 1013,-71.5 1132,-71.5 1132,-90.5"/>
<text text-anchor="middle" x="1072.5" y="-78.5" font-family="Helvetica,sans-Serif" font-size="10.00">deal.II/fe/fe_values.h</text>
</a>
</g>
</g>
<!-- Node13&#45;&gt;Node19 -->
<g id="edge21_Node000013_Node000019" class="edge">
<title>Node13&#45;&gt;Node19</title>
<g id="a_edge21_Node000013_Node000019"><a xlink:title=" ">
<path fill="none" stroke="#63b8ff" d="M698.49,-137.45C705.94,-135.46 713.98,-133.49 721.5,-132 845.46,-107.52 878.84,-116.58 1003.5,-96 1009.75,-94.97 1016.3,-93.78 1022.77,-92.54"/>
<polygon fill="#63b8ff" stroke="#63b8ff" points="1023.68,-95.93 1032.82,-90.57 1022.33,-89.06 1023.68,-95.93"/>
</a>
</g>
</g>
<!-- Node20 -->
<g id="Node000020" class="node">
<title>Node20</title>
<g id="a_Node000020"><a xlink:title=" ">
<polygon fill="#e0e0e0" stroke="#999999" points="1281,-96 1150,-96 1150,-66 1281,-66 1281,-96"/>
<text text-anchor="start" x="1158" y="-84" font-family="Helvetica,sans-Serif" font-size="10.00">deal.II/particles/particle</text>
<text text-anchor="middle" x="1215.5" y="-73" font-family="Helvetica,sans-Serif" font-size="10.00">_iterator.h</text>
</a>
</g>
</g>
<!-- Node13&#45;&gt;Node20 -->
<g id="edge22_Node000013_Node000020" class="edge">
<title>Node13&#45;&gt;Node20</title>
<g id="a_edge22_Node000013_Node000020"><a xlink:title=" ">
<path fill="none" stroke="#63b8ff" d="M697.63,-137.45C705.31,-135.38 713.67,-133.38 721.5,-132 902.77,-100.09 954.09,-120.69 1139.7,-96.15"/>
<polygon fill="#63b8ff" stroke="#63b8ff" points="1140.35,-99.6 1149.79,-94.79 1139.41,-92.66 1140.35,-99.6"/>
</a>
</g>
</g>
<!-- Node21 -->
<g id="Node000021" class="node">
<title>Node21</title>
<g id="a_Node000021"><a xlink:title=" ">
<polygon fill="#e0e0e0" stroke="#999999" points="1404,-96 1299,-96 1299,-66 1404,-66 1404,-96"/>
<text text-anchor="start" x="1307" y="-84" font-family="Helvetica,sans-Serif" font-size="10.00">boost/archive/text</text>
<text text-anchor="middle" x="1351.5" y="-73" font-family="Helvetica,sans-Serif" font-size="10.00">_iarchive.hpp</text>
</a>
</g>
</g>
<!-- Node13&#45;&gt;Node21 -->
<g id="edge23_Node000013_Node000021" class="edge">
<title>Node13&#45;&gt;Node21</title>
<g id="a_edge23_Node000013_Node000021"><a xlink:title=" ">
<path fill="none" stroke="#63b8ff" d="M697.07,-137.48C704.9,-135.36 713.47,-133.32 721.5,-132 968.24,-91.4 1037.91,-131.38 1288.55,-96.12"/>
<polygon fill="#63b8ff" stroke="#63b8ff" points="1289.3,-99.55 1298.7,-94.67 1288.3,-92.62 1289.3,-99.55"/>
</a>
</g>
</g>
<!-- Node22 -->
<g id="Node000022" class="node">
<title>Node22</title>
<g id="a_Node000022"><a xlink:title=" ">
<polygon fill="#e0e0e0" stroke="#999999" points="1527,-96 1422,-96 1422,-66 1527,-66 1527,-96"/>
<text text-anchor="start" x="1430" y="-84" font-family="Helvetica,sans-Serif" font-size="10.00">boost/archive/text</text>
<text text-anchor="middle" x="1474.5" y="-73" font-family="Helvetica,sans-Serif" font-size="10.00">_oarchive.hpp</text>
</a>
</g>
</g>
<!-- Node13&#45;&gt;Node22 -->
<g id="edge24_Node000013_Node000022" class="edge">
<title>Node13&#45;&gt;Node22</title>
<g id="a_edge24_Node000013_Node000022"><a xlink:title=" ">
<path fill="none" stroke="#63b8ff" d="M696.79,-137.49C704.69,-135.35 713.37,-133.29 721.5,-132 1022.39,-84.22 1106.68,-137.44 1411.69,-96.09"/>
<polygon fill="#63b8ff" stroke="#63b8ff" points="1412.27,-99.54 1421.7,-94.71 1411.32,-92.61 1412.27,-99.54"/>
</a>
</g>
</g>
<!-- Node23 -->
<g id="Node000023" class="node">
<title>Node23</title>
<g id="a_Node000023"><a xlink:title=" ">
<polygon fill="#e0e0e0" stroke="#999999" points="1655.5,-96 1545.5,-96 1545.5,-66 1655.5,-66 1655.5,-96"/>
<text text-anchor="start" x="1553.5" y="-84" font-family="Helvetica,sans-Serif" font-size="10.00">boost/math/special</text>
<text text-anchor="middle" x="1600.5" y="-73" font-family="Helvetica,sans-Serif" font-size="10.00">_functions/erf.hpp</text>
</a>
</g>
</g>
<!-- Node13&#45;&gt;Node23 -->
<g id="edge25_Node000013_Node000023" class="edge">
<title>Node13&#45;&gt;Node23</title>
<g id="a_edge25_Node000013_Node000023"><a xlink:title=" ">
<path fill="none" stroke="#63b8ff" d="M696.79,-137.45C704.68,-135.31 713.37,-133.26 721.5,-132 1076.57,-77.04 1175.2,-141.72 1535.53,-95.95"/>
<polygon fill="#63b8ff" stroke="#63b8ff" points="1535.98,-99.42 1545.45,-94.67 1535.08,-92.48 1535.98,-99.42"/>
</a>
</g>
</g>
<!-- Node24 -->
<g id="Node000024" class="node">
<title>Node24</title>
<g id="a_Node000024"><a xlink:title=" ">
<polygon fill="#e0e0e0" stroke="#999999" points="1729,-90.5 1674,-90.5 1674,-71.5 1729,-71.5 1729,-90.5"/>
<text text-anchor="middle" x="1701.5" y="-78.5" font-family="Helvetica,sans-Serif" font-size="10.00">fstream</text>
</a>
</g>
</g>
<!-- Node13&#45;&gt;Node24 -->
<g id="edge26_Node000013_Node000024" class="edge">
<title>Node13&#45;&gt;Node24</title>
<g id="a_edge26_Node000013_Node000024"><a xlink:title=" ">
<path fill="none" stroke="#63b8ff" d="M696.51,-137.49C704.48,-135.32 713.27,-133.25 721.5,-132 1136.17,-69.08 1253.44,-179.3 1664.5,-96 1667.18,-95.46 1669.93,-94.74 1672.65,-93.92"/>
<polygon fill="#63b8ff" stroke="#63b8ff" points="1673.94,-97.18 1682.26,-90.62 1671.67,-90.56 1673.94,-97.18"/>
</a>
</g>
</g>
<!-- Node13&#45;&gt;Node25 -->
<g id="edge27_Node000013_Node000025" class="edge">
<title>Node13&#45;&gt;Node25</title>
<g id="a_edge27_Node000013_Node000025"><a xlink:title=" ">
<path fill="none" stroke="#63b8ff" d="M696.51,-137.46C704.48,-135.29 713.27,-133.22 721.5,-132 1222.49,-57.67 1355.39,-133.14 1860.5,-96 1891.92,-93.69 1927.74,-89.33 1952.2,-86.08"/>
<polygon fill="#63b8ff" stroke="#63b8ff" points="1952.82,-89.53 1962.27,-84.73 1951.89,-82.6 1952.82,-89.53"/>
</a>
</g>
</g>
<!-- Node26 -->
<g id="Node000026" class="node">
<title>Node26</title>
<g id="a_Node000026"><a xlink:title=" ">
<polygon fill="#e0e0e0" stroke="#999999" points="1791.5,-90.5 1747.5,-90.5 1747.5,-71.5 1791.5,-71.5 1791.5,-90.5"/>
<text text-anchor="middle" x="1769.5" y="-78.5" font-family="Helvetica,sans-Serif" font-size="10.00">regex</text>
</a>
</g>
</g>
<!-- Node13&#45;&gt;Node26 -->
<g id="edge28_Node000013_Node000026" class="edge">
<title>Node13&#45;&gt;Node26</title>
<g id="a_edge28_Node000013_Node000026"><a xlink:title=" ">
<path fill="none" stroke="#63b8ff" d="M696.51,-137.48C704.48,-135.31 713.27,-133.24 721.5,-132 945.13,-98.39 1518.3,-147.51 1738.5,-96 1740.24,-95.59 1742,-95.09 1743.75,-94.51"/>
<polygon fill="#63b8ff" stroke="#63b8ff" points="1745.5,-97.58 1753.51,-90.65 1742.92,-91.08 1745.5,-97.58"/>
</a>
</g>
</g>
<!-- Node27 -->
<g id="Node000027" class="node">
<title>Node27</title>
<g id="a_Node000027"><a xlink:title=" ">
<polygon fill="#e0e0e0" stroke="#999999" points="1851,-90.5 1810,-90.5 1810,-71.5 1851,-71.5 1851,-90.5"/>
<text text-anchor="middle" x="1830.5" y="-78.5" font-family="Helvetica,sans-Serif" font-size="10.00">tuple</text>
</a>
</g>
</g>
<!-- Node13&#45;&gt;Node27 -->
<g id="edge30_Node000013_Node000027" class="edge">
<title>Node13&#45;&gt;Node27</title>
<g id="a_edge30_Node000013_Node000027"><a xlink:title=" ">
<path fill="none" stroke="#63b8ff" d="M696.51,-137.47C704.48,-135.29 713.27,-133.23 721.5,-132 958.78,-96.58 1567.18,-151.86 1800.5,-96 1802.23,-95.59 1803.98,-95.07 1805.72,-94.48"/>
<polygon fill="#63b8ff" stroke="#63b8ff" points="1807.45,-97.55 1815.36,-90.51 1804.78,-91.08 1807.45,-97.55"/>
</a>
</g>
</g>
<!-- Node14&#45;&gt;Node15 -->
<g id="edge14_Node000014_Node000015" class="edge">
<title>Node14&#45;&gt;Node15</title>
<g id="a_edge14_Node000014_Node000015"><a xlink:title=" ">
<path fill="none" stroke="#63b8ff" d="M783.7,-71.37C778.13,-63.08 769.47,-50.18 761.9,-38.92"/>
<polygon fill="#63b8ff" stroke="#63b8ff" points="764.63,-36.71 756.15,-30.36 758.82,-40.61 764.63,-36.71"/>
</a>
</g>
</g>
</g>
</svg>
