<?xml version="1.0" encoding="UTF-8" standalone="no"?>
<!DOCTYPE svg PUBLIC "-//W3C//DTD SVG 1.1//EN"
 "http://www.w3.org/Graphics/SVG/1.1/DTD/svg11.dtd">
<!-- Generated by graphviz version 2.43.0 (0)
 -->
<!-- Title: /home/runner/work/lethe/lethe/source/core/parameters_lagrangian.cc Pages: 1 -->
<svg width="2259pt" height="423pt"
 viewBox="0.00 0.00 2258.90 423.00" xmlns="http://www.w3.org/2000/svg" xmlns:xlink="http://www.w3.org/1999/xlink">
<g id="graph0" class="graph" transform="scale(1 1) rotate(0) translate(4 419)">
<title>/home/runner/work/lethe/lethe/source/core/parameters_lagrangian.cc</title>
<!-- Node1 -->
<g id="Node000001" class="node">
<title>Node1</title>
<g id="a_Node000001"><a xlink:title=" ">
<polygon fill="#999999" stroke="#666666" points="2197.9,-415 2034.9,-415 2034.9,-374 2197.9,-374 2197.9,-415"/>
<text text-anchor="start" x="2042.9" y="-403" font-family="Helvetica,sans-Serif" font-size="10.00">/home/runner/work/lethe</text>
<text text-anchor="start" x="2042.9" y="-392" font-family="Helvetica,sans-Serif" font-size="10.00">/lethe/source/core/parameters</text>
<text text-anchor="middle" x="2116.4" y="-381" font-family="Helvetica,sans-Serif" font-size="10.00">_lagrangian.cc</text>
</a>
</g>
</g>
<!-- Node2 -->
<g id="Node000002" class="node">
<title>Node2</title>
<g id="a_Node000002"><a xlink:href="parameters__lagrangian_8h.html" target="_top" xlink:title="Parameter structures for Lagrangian (DEM) particle simulations.">
<polygon fill="white" stroke="#666666" points="2119.9,-338 1956.9,-338 1956.9,-319 2119.9,-319 2119.9,-338"/>
<text text-anchor="middle" x="2038.4" y="-326" font-family="Helvetica,sans-Serif" font-size="10.00">core/parameters_lagrangian.h</text>
</a>
</g>
</g>
<!-- Node1&#45;&gt;Node2 -->
<g id="edge1_Node000001_Node000002" class="edge">
<title>Node1&#45;&gt;Node2</title>
<g id="a_edge1_Node000001_Node000002"><a xlink:title=" ">
<path fill="none" stroke="#63b8ff" d="M2092.57,-373.95C2081.12,-364.55 2067.59,-353.46 2056.93,-344.7"/>
<polygon fill="#63b8ff" stroke="#63b8ff" points="2059.03,-341.9 2049.07,-338.26 2054.58,-347.31 2059.03,-341.9"/>
</a>
</g>
</g>
<!-- Node41 -->
<g id="Node000041" class="node">
<title>Node41</title>
<g id="a_Node000041"><a xlink:title=" ">
<polygon fill="#e0e0e0" stroke="#999999" points="2250.9,-338 2137.9,-338 2137.9,-319 2250.9,-319 2250.9,-338"/>
<text text-anchor="middle" x="2194.4" y="-326" font-family="Helvetica,sans-Serif" font-size="10.00">deal.II/grid/grid_in.h</text>
</a>
</g>
</g>
<!-- Node1&#45;&gt;Node41 -->
<g id="edge42_Node000001_Node000041" class="edge">
<title>Node1&#45;&gt;Node41</title>
<g id="a_edge42_Node000001_Node000041"><a xlink:title=" ">
<path fill="none" stroke="#63b8ff" d="M2140.22,-373.95C2151.68,-364.55 2165.2,-353.46 2175.87,-344.7"/>
<polygon fill="#63b8ff" stroke="#63b8ff" points="2178.21,-347.31 2183.72,-338.26 2173.77,-341.9 2178.21,-347.31"/>
</a>
</g>
</g>
<!-- Node3 -->
<g id="Node000003" class="node">
<title>Node3</title>
<g id="a_Node000003"><a xlink:href="parameters_8h.html" target="_top" xlink:title=" ">
<polygon fill="white" stroke="#666666" points="1725.4,-283 1619.4,-283 1619.4,-264 1725.4,-264 1725.4,-283"/>
<text text-anchor="middle" x="1672.4" y="-271" font-family="Helvetica,sans-Serif" font-size="10.00">core/parameters.h</text>
</a>
</g>
</g>
<!-- Node2&#45;&gt;Node3 -->
<g id="edge2_Node000002_Node000003" class="edge">
<title>Node2&#45;&gt;Node3</title>
<g id="a_edge2_Node000002_Node000003"><a xlink:title=" ">
<path fill="none" stroke="#63b8ff" d="M1979.59,-318.98C1912.8,-309.31 1804.22,-293.59 1735.64,-283.66"/>
<polygon fill="#63b8ff" stroke="#63b8ff" points="1735.81,-280.15 1725.41,-282.18 1734.8,-287.07 1735.81,-280.15"/>
</a>
</g>
</g>
<!-- Node5 -->
<g id="Node000005" class="node">
<title>Node5</title>
<g id="a_Node000005"><a xlink:title=" ">
<polygon fill="#e0e0e0" stroke="#999999" points="2012.9,-30 1885.9,-30 1885.9,0 2012.9,0 2012.9,-30"/>
<text text-anchor="start" x="1893.9" y="-18" font-family="Helvetica,sans-Serif" font-size="10.00">deal.II/base/parameter</text>
<text text-anchor="middle" x="1949.4" y="-7" font-family="Helvetica,sans-Serif" font-size="10.00">_handler.h</text>
</a>
</g>
</g>
<!-- Node2&#45;&gt;Node5 -->
<g id="edge38_Node000002_Node000005" class="edge">
<title>Node2&#45;&gt;Node5</title>
<g id="a_edge38_Node000002_Node000005"><a xlink:title=" ">
<path fill="none" stroke="#63b8ff" d="M2038.4,-318.96C2038.4,-300.05 2038.4,-253.21 2038.4,-214 2038.4,-214 2038.4,-214 2038.4,-146 2038.4,-101.13 2001.86,-60.39 1975.6,-36.91"/>
<polygon fill="#63b8ff" stroke="#63b8ff" points="1977.69,-34.08 1967.84,-30.19 1973.11,-39.38 1977.69,-34.08"/>
</a>
</g>
</g>
<!-- Node8 -->
<g id="Node000008" class="node">
<title>Node8</title>
<g id="a_Node000008"><a xlink:title=" ">
<polygon fill="#e0e0e0" stroke="#999999" points="113.4,-24.5 69.4,-24.5 69.4,-5.5 113.4,-5.5 113.4,-24.5"/>
<text text-anchor="middle" x="91.4" y="-12.5" font-family="Helvetica,sans-Serif" font-size="10.00">string</text>
</a>
</g>
</g>
<!-- Node2&#45;&gt;Node8 -->
<g id="edge41_Node000002_Node000008" class="edge">
<title>Node2&#45;&gt;Node8</title>
<g id="a_edge41_Node000002_Node000008"><a xlink:title=" ">
<path fill="none" stroke="#63b8ff" d="M1956.62,-327.3C1576.45,-325.83 0.4,-313.72 0.4,-214 0.4,-214 0.4,-214 0.4,-146 0.4,-109.46 -1.19,-96.19 19.4,-66 30.19,-50.17 47.78,-37.82 62.87,-29.36"/>
<polygon fill="#63b8ff" stroke="#63b8ff" points="64.66,-32.37 71.86,-24.59 61.38,-26.18 64.66,-32.37"/>
</a>
</g>
</g>
<!-- Node25 -->
<g id="Node000025" class="node">
<title>Node25</title>
<g id="a_Node000025"><a xlink:title=" ">
<polygon fill="#e0e0e0" stroke="#999999" points="2082.4,-24.5 2044.4,-24.5 2044.4,-5.5 2082.4,-5.5 2082.4,-24.5"/>
<text text-anchor="middle" x="2063.4" y="-12.5" font-family="Helvetica,sans-Serif" font-size="10.00">map</text>
</a>
</g>
</g>
<!-- Node2&#45;&gt;Node25 -->
<g id="edge39_Node000002_Node000025" class="edge">
<title>Node2&#45;&gt;Node25</title>
<g id="a_edge39_Node000002_Node000025"><a xlink:title=" ">
<path fill="none" stroke="#63b8ff" d="M2043.37,-319C2053.67,-300.54 2076.4,-255.14 2076.4,-214 2076.4,-214 2076.4,-214 2076.4,-146 2076.4,-106.27 2070.31,-60.04 2066.47,-34.81"/>
<polygon fill="#63b8ff" stroke="#63b8ff" points="2069.9,-34.13 2064.89,-24.8 2062.99,-35.22 2069.9,-34.13"/>
</a>
</g>
</g>
<!-- Node40 -->
<g id="Node000040" class="node">
<title>Node40</title>
<g id="a_Node000040"><a xlink:title=" ">
<polygon fill="#e0e0e0" stroke="#999999" points="2136.4,-283 2104.4,-283 2104.4,-264 2136.4,-264 2136.4,-283"/>
<text text-anchor="middle" x="2120.4" y="-271" font-family="Helvetica,sans-Serif" font-size="10.00">set</text>
</a>
</g>
</g>
<!-- Node2&#45;&gt;Node40 -->
<g id="edge40_Node000002_Node000040" class="edge">
<title>Node2&#45;&gt;Node40</title>
<g id="a_edge40_Node000002_Node000040"><a xlink:title=" ">
<path fill="none" stroke="#63b8ff" d="M2051.57,-318.98C2064.17,-310.84 2083.4,-298.41 2098.34,-288.76"/>
<polygon fill="#63b8ff" stroke="#63b8ff" points="2100.48,-291.54 2106.98,-283.17 2096.68,-285.66 2100.48,-291.54"/>
</a>
</g>
</g>
<!-- Node4 -->
<g id="Node000004" class="node">
<title>Node4</title>
<g id="a_Node000004"><a xlink:href="dimensionality_8h.html" target="_top" xlink:title=" ">
<polygon fill="white" stroke="#666666" points="2009.9,-156.5 1888.9,-156.5 1888.9,-137.5 2009.9,-137.5 2009.9,-156.5"/>
<text text-anchor="middle" x="1949.4" y="-144.5" font-family="Helvetica,sans-Serif" font-size="10.00">core/dimensionality.h</text>
</a>
</g>
</g>
<!-- Node3&#45;&gt;Node4 -->
<g id="edge3_Node000003_Node000004" class="edge">
<title>Node3&#45;&gt;Node4</title>
<g id="a_edge3_Node000003_Node000004"><a xlink:title=" ">
<path fill="none" stroke="#63b8ff" d="M1725.69,-269.41C1768.31,-264.97 1828.36,-254.19 1874.4,-228 1901.86,-212.38 1925.24,-183.39 1938.28,-164.93"/>
<polygon fill="#63b8ff" stroke="#63b8ff" points="1941.23,-166.82 1943.98,-156.59 1935.45,-162.87 1941.23,-166.82"/>
</a>
</g>
</g>
<!-- Node3&#45;&gt;Node5 -->
<g id="edge35_Node000003_Node000005" class="edge">
<title>Node3&#45;&gt;Node5</title>
<g id="a_edge35_Node000003_Node000005"><a xlink:title=" ">
<path fill="none" stroke="#63b8ff" d="M1725.4,-270.65C1761.94,-266.73 1809.5,-256.05 1841.4,-228 1875.98,-197.59 1859.9,-173.24 1880.4,-132 1896.99,-98.62 1919.6,-61.93 1934.35,-38.94"/>
<polygon fill="#63b8ff" stroke="#63b8ff" points="1937.47,-40.55 1939.96,-30.26 1931.59,-36.75 1937.47,-40.55"/>
</a>
</g>
</g>
<!-- Node6 -->
<g id="Node000006" class="node">
<title>Node6</title>
<g id="a_Node000006"><a xlink:href="ib__particle_8h.html" target="_top" xlink:title=" ">
<polygon fill="white" stroke="#666666" points="685.9,-222.5 584.9,-222.5 584.9,-203.5 685.9,-203.5 685.9,-222.5"/>
<text text-anchor="middle" x="635.4" y="-210.5" font-family="Helvetica,sans-Serif" font-size="10.00">core/ib_particle.h</text>
</a>
</g>
</g>
<!-- Node3&#45;&gt;Node6 -->
<g id="edge5_Node000003_Node000006" class="edge">
<title>Node3&#45;&gt;Node6</title>
<g id="a_edge5_Node000003_Node000006"><a xlink:title=" ">
<path fill="none" stroke="#63b8ff" d="M1619.19,-269.5C1443.46,-259.59 882.31,-227.93 696.1,-217.42"/>
<polygon fill="#63b8ff" stroke="#63b8ff" points="696.12,-213.92 685.94,-216.85 695.73,-220.91 696.12,-213.92"/>
</a>
</g>
</g>
<!-- Node14 -->
<g id="Node000014" class="node">
<title>Node14</title>
<g id="a_Node000014"><a xlink:href="core_2utilities_8h.html" target="_top" xlink:title=" ">
<polygon fill="#fff0f0" stroke="red" points="1840.4,-90.5 1754.4,-90.5 1754.4,-71.5 1840.4,-71.5 1840.4,-90.5"/>
<text text-anchor="middle" x="1797.4" y="-78.5" font-family="Helvetica,sans-Serif" font-size="10.00">core/utilities.h</text>
</a>
</g>
</g>
<!-- Node3&#45;&gt;Node14 -->
<g id="edge34_Node000003_Node000014" class="edge">
<title>Node3&#45;&gt;Node14</title>
<g id="a_edge34_Node000003_Node000014"><a xlink:title=" ">
<path fill="none" stroke="#63b8ff" d="M1619.11,-265.16C1568.77,-255.79 1504.42,-236.02 1529.4,-198 1555.67,-158 1688.97,-113.9 1757.13,-93.51"/>
<polygon fill="#63b8ff" stroke="#63b8ff" points="1758.5,-96.76 1767.09,-90.56 1756.51,-90.05 1758.5,-96.76"/>
</a>
</g>
</g>
<!-- Node37 -->
<g id="Node000037" class="node">
<title>Node37</title>
<g id="a_Node000037"><a xlink:title=" ">
<polygon fill="#e0e0e0" stroke="#999999" points="1382.9,-162 1273.9,-162 1273.9,-132 1382.9,-132 1382.9,-162"/>
<text text-anchor="start" x="1281.9" y="-150" font-family="Helvetica,sans-Serif" font-size="10.00">deal.II/base/parsed</text>
<text text-anchor="middle" x="1328.4" y="-139" font-family="Helvetica,sans-Serif" font-size="10.00">_function.h</text>
</a>
</g>
</g>
<!-- Node3&#45;&gt;Node37 -->
<g id="edge36_Node000003_Node000037" class="edge">
<title>Node3&#45;&gt;Node37</title>
<g id="a_edge36_Node000003_Node000037"><a xlink:title=" ">
<path fill="none" stroke="#63b8ff" d="M1628.65,-263.95C1592.6,-256.31 1540.43,-243.87 1496.4,-228 1448.62,-210.77 1396.16,-184.53 1362.79,-166.85"/>
<polygon fill="#63b8ff" stroke="#63b8ff" points="1364.38,-163.73 1353.91,-162.1 1361.08,-169.9 1364.38,-163.73"/>
</a>
</g>
</g>
<!-- Node38 -->
<g id="Node000038" class="node">
<title>Node38</title>
<g id="a_Node000038"><a xlink:href="multiphysics_8h.html" target="_top" xlink:title="Identifiers for multiphysics modules and their solution fields.">
<polygon fill="white" stroke="#666666" points="1650.4,-222.5 1538.4,-222.5 1538.4,-203.5 1650.4,-203.5 1650.4,-222.5"/>
<text text-anchor="middle" x="1594.4" y="-210.5" font-family="Helvetica,sans-Serif" font-size="10.00">core/multiphysics.h</text>
</a>
</g>
</g>
<!-- Node3&#45;&gt;Node38 -->
<g id="edge33_Node000003_Node000038" class="edge">
<title>Node3&#45;&gt;Node38</title>
<g id="a_edge33_Node000003_Node000038"><a xlink:title=" ">
<path fill="none" stroke="#63b8ff" d="M1660.89,-263.87C1648.56,-254.62 1628.78,-239.78 1613.99,-228.69"/>
<polygon fill="#63b8ff" stroke="#63b8ff" points="1616.05,-225.87 1605.95,-222.67 1611.85,-231.47 1616.05,-225.87"/>
</a>
</g>
</g>
<!-- Node39 -->
<g id="Node000039" class="node">
<title>Node39</title>
<g id="a_Node000039"><a xlink:title=" ">
<polygon fill="#e0e0e0" stroke="#999999" points="1831.9,-228 1668.9,-228 1668.9,-198 1831.9,-198 1831.9,-228"/>
<text text-anchor="start" x="1676.9" y="-216" font-family="Helvetica,sans-Serif" font-size="10.00">deal.II/multigrid/mg</text>
<text text-anchor="middle" x="1750.4" y="-205" font-family="Helvetica,sans-Serif" font-size="10.00">_transfer_global_coarsening.h</text>
</a>
</g>
</g>
<!-- Node3&#45;&gt;Node39 -->
<g id="edge37_Node000003_Node000039" class="edge">
<title>Node3&#45;&gt;Node39</title>
<g id="a_edge37_Node000003_Node000039"><a xlink:title=" ">
<path fill="none" stroke="#63b8ff" d="M1683.91,-263.87C1694.29,-256.08 1709.98,-244.32 1723.5,-234.17"/>
<polygon fill="#63b8ff" stroke="#63b8ff" points="1725.68,-236.91 1731.58,-228.11 1721.48,-231.31 1725.68,-236.91"/>
</a>
</g>
</g>
<!-- Node4&#45;&gt;Node5 -->
<g id="edge4_Node000004_Node000005" class="edge">
<title>Node4&#45;&gt;Node5</title>
<g id="a_edge4_Node000004_Node000005"><a xlink:title=" ">
<path fill="none" stroke="#63b8ff" d="M1949.4,-137.47C1949.4,-118.04 1949.4,-69.87 1949.4,-40.36"/>
<polygon fill="#63b8ff" stroke="#63b8ff" points="1952.9,-40.07 1949.4,-30.07 1945.9,-40.07 1952.9,-40.07"/>
</a>
</g>
</g>
<!-- Node7 -->
<g id="Node000007" class="node">
<title>Node7</title>
<g id="a_Node000007"><a xlink:href="dem__properties_8h.html" target="_top" xlink:title="DEM particle property definitions and output name management.">
<polygon fill="white" stroke="#666666" points="154.4,-90.5 28.4,-90.5 28.4,-71.5 154.4,-71.5 154.4,-90.5"/>
<text text-anchor="middle" x="91.4" y="-78.5" font-family="Helvetica,sans-Serif" font-size="10.00">core/dem_properties.h</text>
</a>
</g>
</g>
<!-- Node6&#45;&gt;Node7 -->
<g id="edge6_Node000006_Node000007" class="edge">
<title>Node6&#45;&gt;Node7</title>
<g id="a_edge6_Node000006_Node000007"><a xlink:title=" ">
<path fill="none" stroke="#63b8ff" d="M584.71,-210.91C479.4,-207.95 240.71,-197.43 168.4,-162 139.52,-147.85 115.58,-118.17 102.41,-99.21"/>
<polygon fill="#63b8ff" stroke="#63b8ff" points="105.15,-97.01 96.68,-90.64 99.33,-100.9 105.15,-97.01"/>
</a>
</g>
</g>
<!-- Node9 -->
<g id="Node000009" class="node">
<title>Node9</title>
<g id="a_Node000009"><a xlink:title=" ">
<polygon fill="#e0e0e0" stroke="#999999" points="205.9,-24.5 158.9,-24.5 158.9,-5.5 205.9,-5.5 205.9,-24.5"/>
<text text-anchor="middle" x="182.4" y="-12.5" font-family="Helvetica,sans-Serif" font-size="10.00">vector</text>
</a>
</g>
</g>
<!-- Node6&#45;&gt;Node9 -->
<g id="edge32_Node000006_Node000009" class="edge">
<title>Node6&#45;&gt;Node9</title>
<g id="a_edge32_Node000006_Node000009"><a xlink:title=" ">
<path fill="none" stroke="#63b8ff" d="M584.62,-208.71C501.88,-202.66 342.22,-187.98 292.4,-162 238.8,-134.05 204.07,-66.87 189.79,-34.31"/>
<polygon fill="#63b8ff" stroke="#63b8ff" points="192.85,-32.55 185.74,-24.7 186.4,-35.27 192.85,-32.55"/>
</a>
</g>
</g>
<!-- Node10 -->
<g id="Node000010" class="node">
<title>Node10</title>
<g id="a_Node000010"><a xlink:href="shape_8h.html" target="_top" xlink:title=" ">
<polygon fill="white" stroke="#666666" points="1122.9,-156.5 1043.9,-156.5 1043.9,-137.5 1122.9,-137.5 1122.9,-156.5"/>
<text text-anchor="middle" x="1083.4" y="-144.5" font-family="Helvetica,sans-Serif" font-size="10.00">core/shape.h</text>
</a>
</g>
</g>
<!-- Node6&#45;&gt;Node10 -->
<g id="edge9_Node000006_Node000010" class="edge">
<title>Node6&#45;&gt;Node10</title>
<g id="a_edge9_Node000006_Node000010"><a xlink:title=" ">
<path fill="none" stroke="#63b8ff" d="M685.92,-204.78C772.45,-192.42 947.96,-167.35 1033.83,-155.08"/>
<polygon fill="#63b8ff" stroke="#63b8ff" points="1034.44,-158.53 1043.85,-153.65 1033.45,-151.6 1034.44,-158.53"/>
</a>
</g>
</g>
<!-- Node12 -->
<g id="Node000012" class="node">
<title>Node12</title>
<g id="a_Node000012"><a xlink:title=" ">
<polygon fill="#e0e0e0" stroke="#999999" points="379.4,-24.5 269.4,-24.5 269.4,-5.5 379.4,-5.5 379.4,-24.5"/>
<text text-anchor="middle" x="324.4" y="-12.5" font-family="Helvetica,sans-Serif" font-size="10.00">deal.II/base/point.h</text>
</a>
</g>
</g>
<!-- Node6&#45;&gt;Node12 -->
<g id="edge31_Node000006_Node000012" class="edge">
<title>Node6&#45;&gt;Node12</title>
<g id="a_edge31_Node000006_Node000012"><a xlink:title=" ">
<path fill="none" stroke="#63b8ff" d="M584.67,-204.73C487.52,-189.65 281.11,-151.69 239.4,-96 231.4,-85.33 232.78,-77.57 239.4,-66 249.51,-48.32 268.58,-36.27 286.1,-28.44"/>
<polygon fill="#63b8ff" stroke="#63b8ff" points="287.7,-31.57 295.61,-24.52 285.03,-25.1 287.7,-31.57"/>
</a>
</g>
</g>
<!-- Node6&#45;&gt;Node37 -->
<g id="edge30_Node000006_Node000037" class="edge">
<title>Node6&#45;&gt;Node37</title>
<g id="a_edge30_Node000006_Node000037"><a xlink:title=" ">
<path fill="none" stroke="#63b8ff" d="M686.07,-207.32C809.54,-195.92 1125.81,-166.71 1263.13,-154.03"/>
<polygon fill="#63b8ff" stroke="#63b8ff" points="1263.86,-157.48 1273.49,-153.07 1263.21,-150.51 1263.86,-157.48"/>
</a>
</g>
</g>
<!-- Node7&#45;&gt;Node8 -->
<g id="edge7_Node000007_Node000008" class="edge">
<title>Node7&#45;&gt;Node8</title>
<g id="a_edge7_Node000007_Node000008"><a xlink:title=" ">
<path fill="none" stroke="#63b8ff" d="M91.4,-71.37C91.4,-62.16 91.4,-47.29 91.4,-35.27"/>
<polygon fill="#63b8ff" stroke="#63b8ff" points="94.9,-34.91 91.4,-24.91 87.9,-34.91 94.9,-34.91"/>
</a>
</g>
</g>
<!-- Node7&#45;&gt;Node9 -->
<g id="edge8_Node000007_Node000009" class="edge">
<title>Node7&#45;&gt;Node9</title>
<g id="a_edge8_Node000007_Node000009"><a xlink:title=" ">
<path fill="none" stroke="#63b8ff" d="M103.67,-71.37C118.46,-60.97 143.55,-43.32 161.43,-30.75"/>
<polygon fill="#63b8ff" stroke="#63b8ff" points="163.86,-33.31 170.03,-24.7 159.84,-27.59 163.86,-33.31"/>
</a>
</g>
</g>
<!-- Node11 -->
<g id="Node000011" class="node">
<title>Node11</title>
<g id="a_Node000011"><a xlink:href="tensors__and__points__dimension__manipulation_8h.html" target="_top" xlink:title=" ">
<polygon fill="#fff0f0" stroke="red" points="400.4,-96 248.4,-96 248.4,-66 400.4,-66 400.4,-96"/>
<text text-anchor="start" x="256.4" y="-84" font-family="Helvetica,sans-Serif" font-size="10.00">core/tensors_and_points</text>
<text text-anchor="middle" x="324.4" y="-73" font-family="Helvetica,sans-Serif" font-size="10.00">_dimension_manipulation.h</text>
</a>
</g>
</g>
<!-- Node10&#45;&gt;Node11 -->
<g id="edge10_Node000010_Node000011" class="edge">
<title>Node10&#45;&gt;Node11</title>
<g id="a_edge10_Node000010_Node000011"><a xlink:title=" ">
<path fill="none" stroke="#63b8ff" d="M1043.77,-144.3C941.01,-139.62 657.31,-125.02 411.03,-96.12"/>
<polygon fill="#63b8ff" stroke="#63b8ff" points="411.15,-92.62 400.81,-94.92 410.33,-99.57 411.15,-92.62"/>
</a>
</g>
</g>
<!-- Node10&#45;&gt;Node14 -->
<g id="edge12_Node000010_Node000014" class="edge">
<title>Node10&#45;&gt;Node14</title>
<g id="a_edge12_Node000010_Node000014"><a xlink:title=" ">
<path fill="none" stroke="#63b8ff" d="M1122.94,-142.91C1159.61,-140.06 1215.69,-135.71 1264.4,-132 1477.71,-115.75 1533.43,-131.47 1744.4,-96 1749.19,-95.19 1754.18,-94.15 1759.1,-93"/>
<polygon fill="#63b8ff" stroke="#63b8ff" points="1760.15,-96.35 1769,-90.53 1758.45,-89.56 1760.15,-96.35"/>
</a>
</g>
</g>
<!-- Node19 -->
<g id="Node000019" class="node">
<title>Node19</title>
<g id="a_Node000019"><a xlink:title=" ">
<polygon fill="#e0e0e0" stroke="#999999" points="1867.4,-24.5 1727.4,-24.5 1727.4,-5.5 1867.4,-5.5 1867.4,-24.5"/>
<text text-anchor="middle" x="1797.4" y="-12.5" font-family="Helvetica,sans-Serif" font-size="10.00">deal.II/dofs/dof_handler.h</text>
</a>
</g>
</g>
<!-- Node10&#45;&gt;Node19 -->
<g id="edge25_Node000010_Node000019" class="edge">
<title>Node10&#45;&gt;Node19</title>
<g id="a_edge25_Node000010_Node000019"><a xlink:title=" ">
<path fill="none" stroke="#63b8ff" d="M1122.93,-142.76C1159.59,-139.8 1215.66,-135.38 1264.4,-132 1329.36,-127.49 1804.79,-143.44 1849.4,-96 1868.43,-75.76 1840.2,-47.7 1818.47,-30.75"/>
<polygon fill="#63b8ff" stroke="#63b8ff" points="1820.39,-27.82 1810.28,-24.64 1816.2,-33.43 1820.39,-27.82"/>
</a>
</g>
</g>
<!-- Node27 -->
<g id="Node000027" class="node">
<title>Node27</title>
<g id="a_Node000027"><a xlink:title=" ">
<polygon fill="#e0e0e0" stroke="#999999" points="1316.4,-96 1164.4,-96 1164.4,-66 1316.4,-66 1316.4,-96"/>
<text text-anchor="start" x="1172.4" y="-84" font-family="Helvetica,sans-Serif" font-size="10.00">deal.II/base/auto_derivative</text>
<text text-anchor="middle" x="1240.4" y="-73" font-family="Helvetica,sans-Serif" font-size="10.00">_function.h</text>
</a>
</g>
</g>
<!-- Node10&#45;&gt;Node27 -->
<g id="edge19_Node000010_Node000027" class="edge">
<title>Node10&#45;&gt;Node27</title>
<g id="a_edge19_Node000010_Node000027"><a xlink:title=" ">
<path fill="none" stroke="#63b8ff" d="M1104.57,-137.37C1127.98,-127.82 1166.36,-112.18 1196.35,-99.95"/>
<polygon fill="#63b8ff" stroke="#63b8ff" points="1197.83,-103.13 1205.77,-96.12 1195.19,-96.65 1197.83,-103.13"/>
</a>
</g>
</g>
<!-- Node28 -->
<g id="Node000028" class="node">
<title>Node28</title>
<g id="a_Node000028"><a xlink:title=" ">
<polygon fill="#e0e0e0" stroke="#999999" points="1459.9,-90.5 1334.9,-90.5 1334.9,-71.5 1459.9,-71.5 1459.9,-90.5"/>
<text text-anchor="middle" x="1397.4" y="-78.5" font-family="Helvetica,sans-Serif" font-size="10.00">deal.II/base/function.h</text>
</a>
</g>
</g>
<!-- Node10&#45;&gt;Node28 -->
<g id="edge20_Node000010_Node000028" class="edge">
<title>Node10&#45;&gt;Node28</title>
<g id="a_edge20_Node000010_Node000028"><a xlink:title=" ">
<path fill="none" stroke="#63b8ff" d="M1123.17,-137.89C1179.6,-126.39 1282.98,-105.32 1345.42,-92.59"/>
<polygon fill="#63b8ff" stroke="#63b8ff" points="1346.35,-95.98 1355.45,-90.55 1344.96,-89.12 1346.35,-95.98"/>
</a>
</g>
</g>
<!-- Node29 -->
<g id="Node000029" class="node">
<title>Node29</title>
<g id="a_Node000029"><a xlink:title=" ">
<polygon fill="#e0e0e0" stroke="#999999" points="1602.4,-90.5 1478.4,-90.5 1478.4,-71.5 1602.4,-71.5 1602.4,-90.5"/>
<text text-anchor="middle" x="1540.4" y="-78.5" font-family="Helvetica,sans-Serif" font-size="10.00">deal.II/grid/manifold.h</text>
</a>
</g>
</g>
<!-- Node10&#45;&gt;Node29 -->
<g id="edge21_Node000010_Node000029" class="edge">
<title>Node10&#45;&gt;Node29</title>
<g id="a_edge21_Node000010_Node000029"><a xlink:title=" ">
<path fill="none" stroke="#63b8ff" d="M1123.14,-141.67C1193.12,-133.87 1342.81,-116.34 1468.4,-96 1475.07,-94.92 1482.07,-93.68 1488.98,-92.41"/>
<polygon fill="#63b8ff" stroke="#63b8ff" points="1489.8,-95.81 1498.98,-90.52 1488.5,-88.93 1489.8,-95.81"/>
</a>
</g>
</g>
<!-- Node30 -->
<g id="Node000030" class="node">
<title>Node30</title>
<g id="a_Node000030"><a xlink:title=" ">
<polygon fill="#e0e0e0" stroke="#999999" points="1735.9,-96 1620.9,-96 1620.9,-66 1735.9,-66 1735.9,-96"/>
<text text-anchor="start" x="1628.9" y="-84" font-family="Helvetica,sans-Serif" font-size="10.00">deal.II/grid/manifold</text>
<text text-anchor="middle" x="1678.4" y="-73" font-family="Helvetica,sans-Serif" font-size="10.00">_lib.h</text>
</a>
</g>
</g>
<!-- Node10&#45;&gt;Node30 -->
<g id="edge22_Node000010_Node000030" class="edge">
<title>Node10&#45;&gt;Node30</title>
<g id="a_edge22_Node000010_Node000030"><a xlink:title=" ">
<path fill="none" stroke="#63b8ff" d="M1122.9,-142.84C1225.52,-134.53 1499.66,-111.73 1610.81,-95.93"/>
<polygon fill="#63b8ff" stroke="#63b8ff" points="1611.34,-99.39 1620.73,-94.48 1610.33,-92.47 1611.34,-99.39"/>
</a>
</g>
</g>
<!-- Node31 -->
<g id="Node000031" class="node">
<title>Node31</title>
<g id="a_Node000031"><a xlink:title=" ">
<polygon fill="#e0e0e0" stroke="#999999" points="533.9,-96 418.9,-96 418.9,-66 533.9,-66 533.9,-96"/>
<text text-anchor="start" x="426.9" y="-84" font-family="Helvetica,sans-Serif" font-size="10.00">boost/range/adaptor</text>
<text text-anchor="middle" x="476.4" y="-73" font-family="Helvetica,sans-Serif" font-size="10.00">/map.hpp</text>
</a>
</g>
</g>
<!-- Node10&#45;&gt;Node31 -->
<g id="edge23_Node000010_Node000031" class="edge">
<title>Node10&#45;&gt;Node31</title>
<g id="a_edge23_Node000010_Node000031"><a xlink:title=" ">
<path fill="none" stroke="#63b8ff" d="M1043.58,-143.87C955.43,-138.81 737.01,-124.45 544.1,-95.98"/>
<polygon fill="#63b8ff" stroke="#63b8ff" points="544.47,-92.5 534.07,-94.48 543.44,-99.42 544.47,-92.5"/>
</a>
</g>
</g>
<!-- Node32 -->
<g id="Node000032" class="node">
<title>Node32</title>
<g id="a_Node000032"><a xlink:title=" ">
<polygon fill="#e0e0e0" stroke="#999999" points="668.4,-96 552.4,-96 552.4,-66 668.4,-66 668.4,-96"/>
<text text-anchor="start" x="560.4" y="-84" font-family="Helvetica,sans-Serif" font-size="10.00">deal.II/base/function</text>
<text text-anchor="middle" x="610.4" y="-73" font-family="Helvetica,sans-Serif" font-size="10.00">_signed_distance.h</text>
</a>
</g>
</g>
<!-- Node10&#45;&gt;Node32 -->
<g id="edge24_Node000010_Node000032" class="edge">
<title>Node10&#45;&gt;Node32</title>
<g id="a_edge24_Node000010_Node000032"><a xlink:title=" ">
<path fill="none" stroke="#63b8ff" d="M1043.76,-142.23C972.64,-135.22 818.49,-118.94 678.5,-96.09"/>
<polygon fill="#63b8ff" stroke="#63b8ff" points="678.88,-92.61 668.45,-94.44 677.74,-99.52 678.88,-92.61"/>
</a>
</g>
</g>
<!-- Node33 -->
<g id="Node000033" class="node">
<title>Node33</title>
<g id="a_Node000033"><a xlink:title=" ">
<polygon fill="#e0e0e0" stroke="#999999" points="814.4,-90.5 686.4,-90.5 686.4,-71.5 814.4,-71.5 814.4,-90.5"/>
<text text-anchor="middle" x="750.4" y="-78.5" font-family="Helvetica,sans-Serif" font-size="10.00">deal.II/dofs/dof_tools.h</text>
</a>
</g>
</g>
<!-- Node10&#45;&gt;Node33 -->
<g id="edge26_Node000010_Node000033" class="edge">
<title>Node10&#45;&gt;Node33</title>
<g id="a_edge26_Node000010_Node000033"><a xlink:title=" ">
<path fill="none" stroke="#63b8ff" d="M1043.89,-138.41C984.49,-126.99 871.99,-105.37 804.85,-92.46"/>
<polygon fill="#63b8ff" stroke="#63b8ff" points="805.36,-89 794.88,-90.55 804.04,-95.87 805.36,-89"/>
</a>
</g>
</g>
<!-- Node34 -->
<g id="Node000034" class="node">
<title>Node34</title>
<g id="a_Node000034"><a xlink:title=" ">
<polygon fill="#e0e0e0" stroke="#999999" points="1008.4,-90.5 832.4,-90.5 832.4,-71.5 1008.4,-71.5 1008.4,-90.5"/>
<text text-anchor="middle" x="920.4" y="-78.5" font-family="Helvetica,sans-Serif" font-size="10.00">deal.II/physics/transformations.h</text>
</a>
</g>
</g>
<!-- Node10&#45;&gt;Node34 -->
<g id="edge27_Node000010_Node000034" class="edge">
<title>Node10&#45;&gt;Node34</title>
<g id="a_edge27_Node000010_Node000034"><a xlink:title=" ">
<path fill="none" stroke="#63b8ff" d="M1061.41,-137.37C1033.14,-126.27 983.86,-106.92 951.69,-94.28"/>
<polygon fill="#63b8ff" stroke="#63b8ff" points="952.88,-90.99 942.29,-90.6 950.32,-97.51 952.88,-90.99"/>
</a>
</g>
</g>
<!-- Node35 -->
<g id="Node000035" class="node">
<title>Node35</title>
<g id="a_Node000035"><a xlink:title=" ">
<polygon fill="#e0e0e0" stroke="#999999" points="1070.4,-90.5 1026.4,-90.5 1026.4,-71.5 1070.4,-71.5 1070.4,-90.5"/>
<text text-anchor="middle" x="1048.4" y="-78.5" font-family="Helvetica,sans-Serif" font-size="10.00">cfloat</text>
</a>
</g>
</g>
<!-- Node10&#45;&gt;Node35 -->
<g id="edge28_Node000010_Node000035" class="edge">
<title>Node10&#45;&gt;Node35</title>
<g id="a_edge28_Node000010_Node000035"><a xlink:title=" ">
<path fill="none" stroke="#63b8ff" d="M1078.68,-137.37C1073.44,-127.78 1064.83,-112.05 1058.13,-99.8"/>
<polygon fill="#63b8ff" stroke="#63b8ff" points="1061.14,-98 1053.27,-90.91 1054.99,-101.36 1061.14,-98"/>
</a>
</g>
</g>
<!-- Node36 -->
<g id="Node000036" class="node">
<title>Node36</title>
<g id="a_Node000036"><a xlink:title=" ">
<polygon fill="#e0e0e0" stroke="#999999" points="1146.4,-90.5 1088.4,-90.5 1088.4,-71.5 1146.4,-71.5 1146.4,-90.5"/>
<text text-anchor="middle" x="1117.4" y="-78.5" font-family="Helvetica,sans-Serif" font-size="10.00">memory</text>
</a>
</g>
</g>
<!-- Node10&#45;&gt;Node36 -->
<g id="edge29_Node000010_Node000036" class="edge">
<title>Node10&#45;&gt;Node36</title>
<g id="a_edge29_Node000010_Node000036"><a xlink:title=" ">
<path fill="none" stroke="#63b8ff" d="M1087.98,-137.37C1093.07,-127.78 1101.43,-112.05 1107.94,-99.8"/>
<polygon fill="#63b8ff" stroke="#63b8ff" points="1111.07,-101.38 1112.67,-90.91 1104.88,-98.09 1111.07,-101.38"/>
</a>
</g>
</g>
<!-- Node11&#45;&gt;Node12 -->
<g id="edge11_Node000011_Node000012" class="edge">
<title>Node11&#45;&gt;Node12</title>
<g id="a_edge11_Node000011_Node000012"><a xlink:title=" ">
<path fill="none" stroke="#63b8ff" d="M324.4,-65.8C324.4,-56.7 324.4,-44.79 324.4,-34.9"/>
<polygon fill="#63b8ff" stroke="#63b8ff" points="327.9,-34.84 324.4,-24.84 320.9,-34.84 327.9,-34.84"/>
</a>
</g>
</g>
<!-- Node14&#45;&gt;Node5 -->
<g id="edge13_Node000014_Node000005" class="edge">
<title>Node14&#45;&gt;Node5</title>
<g id="a_edge13_Node000014_Node000005"><a xlink:title=" ">
<path fill="none" stroke="#63b8ff" d="M1817.9,-71.37C1840.47,-61.87 1877.39,-46.32 1906.38,-34.11"/>
<polygon fill="#63b8ff" stroke="#63b8ff" points="1908.01,-37.22 1915.87,-30.12 1905.3,-30.77 1908.01,-37.22"/>
</a>
</g>
</g>
<!-- Node14&#45;&gt;Node8 -->
<g id="edge17_Node000014_Node000008" class="edge">
<title>Node14&#45;&gt;Node8</title>
<g id="a_edge17_Node000014_Node000008"><a xlink:title=" ">
<path fill="none" stroke="#63b8ff" d="M1770.14,-71.49C1761.95,-69.28 1752.88,-67.2 1744.4,-66 1042.31,33.23 852.51,-121.71 149.4,-30 140.85,-28.89 131.74,-27.02 123.33,-25"/>
<polygon fill="#63b8ff" stroke="#63b8ff" points="124.05,-21.58 113.5,-22.51 122.33,-28.36 124.05,-21.58"/>
</a>
</g>
</g>
<!-- Node14&#45;&gt;Node9 -->
<g id="edge18_Node000014_Node000009" class="edge">
<title>Node14&#45;&gt;Node9</title>
<g id="a_edge18_Node000014_Node000009"><a xlink:title=" ">
<path fill="none" stroke="#63b8ff" d="M1770.14,-71.5C1761.95,-69.29 1752.88,-67.21 1744.4,-66 1417.81,-19.56 588.59,-63.24 260.4,-30 245.78,-28.52 229.79,-25.84 216.11,-23.22"/>
<polygon fill="#63b8ff" stroke="#63b8ff" points="216.65,-19.76 206.16,-21.24 215.29,-26.62 216.65,-19.76"/>
</a>
</g>
</g>
<!-- Node14&#45;&gt;Node12 -->
<g id="edge14_Node000014_Node000012" class="edge">
<title>Node14&#45;&gt;Node12</title>
<g id="a_edge14_Node000014_Node000012"><a xlink:title=" ">
<path fill="none" stroke="#63b8ff" d="M1769.86,-71.48C1761.74,-69.31 1752.78,-67.24 1744.4,-66 1477.81,-26.6 631.94,-18.03 389.76,-16.37"/>
<polygon fill="#63b8ff" stroke="#63b8ff" points="389.73,-12.87 379.7,-16.3 389.68,-19.87 389.73,-12.87"/>
</a>
</g>
</g>
<!-- Node14&#45;&gt;Node19 -->
<g id="edge15_Node000014_Node000019" class="edge">
<title>Node14&#45;&gt;Node19</title>
<g id="a_edge15_Node000014_Node000019"><a xlink:title=" ">
<path fill="none" stroke="#63b8ff" d="M1797.4,-71.37C1797.4,-62.16 1797.4,-47.29 1797.4,-35.27"/>
<polygon fill="#63b8ff" stroke="#63b8ff" points="1800.9,-34.91 1797.4,-24.91 1793.9,-34.91 1800.9,-34.91"/>
</a>
</g>
</g>
<!-- Node14&#45;&gt;Node25 -->
<g id="edge16_Node000014_Node000025" class="edge">
<title>Node14&#45;&gt;Node25</title>
<g id="a_edge16_Node000014_Node000025"><a xlink:title=" ">
<path fill="none" stroke="#63b8ff" d="M1840.46,-71.9C1886.01,-62.99 1959.8,-47.59 2022.4,-30 2026.36,-28.89 2030.5,-27.61 2034.56,-26.29"/>
<polygon fill="#63b8ff" stroke="#63b8ff" points="2035.99,-29.5 2044.34,-22.99 2033.75,-22.87 2035.99,-29.5"/>
</a>
</g>
</g>
</g>
</svg>
