<?xml version="1.0" encoding="UTF-8" standalone="no"?>
<!DOCTYPE svg PUBLIC "-//W3C//DTD SVG 1.1//EN"
 "http://www.w3.org/Graphics/SVG/1.1/DTD/svg11.dtd">
<!-- Generated by graphviz version 2.43.0 (0)
 -->
<!-- Title: /home/runner/work/lethe/lethe/include/dem/particle_wall_broad_search.h Pages: 1 -->
<svg width="1887pt" height="544pt"
 viewBox="0.00 0.00 1886.80 544.00" xmlns="http://www.w3.org/2000/svg" xmlns:xlink="http://www.w3.org/1999/xlink">
<g id="graph0" class="graph" transform="scale(1 1) rotate(0) translate(4 540)">
<title>/home/runner/work/lethe/lethe/include/dem/particle_wall_broad_search.h</title>
<!-- Node1 -->
<g id="Node000001" class="node">
<title>Node1</title>
<g id="a_Node000001"><a xlink:title=" ">
<polygon fill="#999999" stroke="#666666" points="1250.3,-536 1103.3,-536 1103.3,-495 1250.3,-495 1250.3,-536"/>
<text text-anchor="start" x="1111.3" y="-524" font-family="Helvetica,sans-Serif" font-size="10.00">/home/runner/work/lethe</text>
<text text-anchor="start" x="1111.3" y="-513" font-family="Helvetica,sans-Serif" font-size="10.00">/lethe/include/dem/particle</text>
<text text-anchor="middle" x="1176.8" y="-502" font-family="Helvetica,sans-Serif" font-size="10.00">_wall_broad_search.h</text>
</a>
</g>
</g>
<!-- Node2 -->
<g id="Node000002" class="node">
<title>Node2</title>
<g id="a_Node000002"><a xlink:href="dem__contact__manager_8h.html" target="_top" xlink:title=" ">
<polygon fill="white" stroke="#666666" points="1166.3,-459 1029.3,-459 1029.3,-418 1166.3,-418 1166.3,-459"/>
<text text-anchor="start" x="1037.3" y="-447" font-family="Helvetica,sans-Serif" font-size="10.00">/home/runner/work/lethe</text>
<text text-anchor="start" x="1037.3" y="-436" font-family="Helvetica,sans-Serif" font-size="10.00">/lethe/include/dem/dem</text>
<text text-anchor="middle" x="1097.8" y="-425" font-family="Helvetica,sans-Serif" font-size="10.00">_contact_manager.h</text>
</a>
</g>
</g>
<!-- Node1&#45;&gt;Node2 -->
<g id="edge1_Node000001_Node000002" class="edge">
<title>Node1&#45;&gt;Node2</title>
<g id="a_edge1_Node000001_Node000002"><a xlink:title=" ">
<path fill="none" stroke="#63b8ff" d="M1148.67,-487.79C1138.69,-478.32 1127.65,-467.84 1118.42,-459.07"/>
<polygon fill="#63b8ff" stroke="#63b8ff" points="1146.38,-490.45 1156.04,-494.79 1151.2,-485.37 1146.38,-490.45"/>
</a>
</g>
</g>
<!-- Node30 -->
<g id="Node000030" class="node">
<title>Node30</title>
<g id="a_Node000030"><a xlink:href="particle__wall__broad__search_8cc.html" target="_top" xlink:title=" ">
<polygon fill="white" stroke="#666666" points="1328.8,-459 1184.8,-459 1184.8,-418 1328.8,-418 1328.8,-459"/>
<text text-anchor="start" x="1192.8" y="-447" font-family="Helvetica,sans-Serif" font-size="10.00">/home/runner/work/lethe</text>
<text text-anchor="start" x="1192.8" y="-436" font-family="Helvetica,sans-Serif" font-size="10.00">/lethe/source/dem/particle</text>
<text text-anchor="middle" x="1256.8" y="-425" font-family="Helvetica,sans-Serif" font-size="10.00">_wall_broad_search.cc</text>
</a>
</g>
</g>
<!-- Node1&#45;&gt;Node30 -->
<g id="edge47_Node000001_Node000030" class="edge">
<title>Node1&#45;&gt;Node30</title>
<g id="a_edge47_Node000001_Node000030"><a xlink:title=" ">
<path fill="none" stroke="#63b8ff" d="M1205.29,-487.79C1215.39,-478.32 1226.57,-467.84 1235.92,-459.07"/>
<polygon fill="#63b8ff" stroke="#63b8ff" points="1202.72,-485.4 1197.82,-494.79 1207.51,-490.51 1202.72,-485.4"/>
</a>
</g>
</g>
<!-- Node3 -->
<g id="Node000003" class="node">
<title>Node3</title>
<g id="a_Node000003"><a xlink:href="dem_8h.html" target="_top" xlink:title=" ">
<polygon fill="white" stroke="#666666" points="750.3,-294 609.3,-294 609.3,-264 750.3,-264 750.3,-294"/>
<text text-anchor="start" x="617.3" y="-282" font-family="Helvetica,sans-Serif" font-size="10.00">/home/runner/work/lethe</text>
<text text-anchor="middle" x="679.8" y="-271" font-family="Helvetica,sans-Serif" font-size="10.00">/lethe/include/dem/dem.h</text>
</a>
</g>
</g>
<!-- Node2&#45;&gt;Node3 -->
<g id="edge2_Node000002_Node000003" class="edge">
<title>Node2&#45;&gt;Node3</title>
<g id="a_edge2_Node000002_Node000003"><a xlink:title=" ">
<path fill="none" stroke="#63b8ff" d="M1032.49,-414.54C1004.77,-404.69 972.15,-392.94 942.8,-382 861.12,-351.54 765.88,-314.13 715.42,-294.15"/>
<polygon fill="#63b8ff" stroke="#63b8ff" points="1031.48,-417.9 1042.07,-417.94 1033.82,-411.3 1031.48,-417.9"/>
</a>
</g>
</g>
<!-- Node4 -->
<g id="Node000004" class="node">
<title>Node4</title>
<g id="a_Node000004"><a xlink:href="cfd__dem__coupling_8h.html" target="_top" xlink:title=" ">
<polygon fill="white" stroke="#666666" points="261.3,-123.5 124.3,-123.5 124.3,-82.5 261.3,-82.5 261.3,-123.5"/>
<text text-anchor="start" x="132.3" y="-111.5" font-family="Helvetica,sans-Serif" font-size="10.00">/home/runner/work/lethe</text>
<text text-anchor="start" x="132.3" y="-100.5" font-family="Helvetica,sans-Serif" font-size="10.00">/lethe/include/fem&#45;dem</text>
<text text-anchor="middle" x="192.8" y="-89.5" font-family="Helvetica,sans-Serif" font-size="10.00">/cfd_dem_coupling.h</text>
</a>
</g>
</g>
<!-- Node2&#45;&gt;Node4 -->
<g id="edge42_Node000002_Node000004" class="edge">
<title>Node2&#45;&gt;Node4</title>
<g id="a_edge42_Node000002_Node000004"><a xlink:title=" ">
<path fill="none" stroke="#63b8ff" d="M1018.89,-433.6C813.99,-422.42 269.9,-385.75 110.8,-305 43.3,-270.74 -30.26,-226.56 13.8,-165 38.74,-130.16 84.76,-114.99 123.9,-108.49"/>
<polygon fill="#63b8ff" stroke="#63b8ff" points="1018.8,-437.1 1028.98,-434.14 1019.18,-430.11 1018.8,-437.1"/>
</a>
</g>
</g>
<!-- Node6 -->
<g id="Node000006" class="node">
<title>Node6</title>
<g id="a_Node000006"><a xlink:href="cfd__dem__coupling__matrix__free_8h.html" target="_top" xlink:title=" ">
<polygon fill="white" stroke="#666666" points="434.3,-211.5 255.3,-211.5 255.3,-170.5 434.3,-170.5 434.3,-211.5"/>
<text text-anchor="start" x="263.3" y="-199.5" font-family="Helvetica,sans-Serif" font-size="10.00">/home/runner/work/lethe</text>
<text text-anchor="start" x="263.3" y="-188.5" font-family="Helvetica,sans-Serif" font-size="10.00">/lethe/include/fem&#45;dem</text>
<text text-anchor="middle" x="344.8" y="-177.5" font-family="Helvetica,sans-Serif" font-size="10.00">/cfd_dem_coupling_matrix_free.h</text>
</a>
</g>
</g>
<!-- Node2&#45;&gt;Node6 -->
<g id="edge43_Node000002_Node000006" class="edge">
<title>Node2&#45;&gt;Node6</title>
<g id="a_edge43_Node000002_Node000006"><a xlink:title=" ">
<path fill="none" stroke="#63b8ff" d="M1019.09,-436.99C919.05,-434.49 741.91,-423.83 596.8,-382 521.35,-360.25 499.51,-353.55 437.8,-305 403.45,-277.98 373.28,-236.26 357.17,-211.79"/>
<polygon fill="#63b8ff" stroke="#63b8ff" points="1019.04,-440.49 1029.12,-437.22 1019.2,-433.49 1019.04,-440.49"/>
</a>
</g>
</g>
<!-- Node11 -->
<g id="Node000011" class="node">
<title>Node11</title>
<g id="a_Node000011"><a xlink:href="force__chains__visualization_8h.html" target="_top" xlink:title=" ">
<polygon fill="white" stroke="#666666" points="1089.3,-382 952.3,-382 952.3,-341 1089.3,-341 1089.3,-382"/>
<text text-anchor="start" x="960.3" y="-370" font-family="Helvetica,sans-Serif" font-size="10.00">/home/runner/work/lethe</text>
<text text-anchor="start" x="960.3" y="-359" font-family="Helvetica,sans-Serif" font-size="10.00">/lethe/include/dem/force</text>
<text text-anchor="middle" x="1020.8" y="-348" font-family="Helvetica,sans-Serif" font-size="10.00">_chains_visualization.h</text>
</a>
</g>
</g>
<!-- Node2&#45;&gt;Node11 -->
<g id="edge11_Node000002_Node000011" class="edge">
<title>Node2&#45;&gt;Node11</title>
<g id="a_edge11_Node000002_Node000011"><a xlink:title=" ">
<path fill="none" stroke="#63b8ff" d="M1070.38,-410.79C1060.65,-401.32 1049.9,-390.84 1040.9,-382.07"/>
<polygon fill="#63b8ff" stroke="#63b8ff" points="1067.96,-413.32 1077.57,-417.79 1072.85,-408.31 1067.96,-413.32"/>
</a>
</g>
</g>
<!-- Node17 -->
<g id="Node000017" class="node">
<title>Node17</title>
<g id="a_Node000017"><a xlink:href="log__collision__data_8h.html" target="_top" xlink:title=" ">
<polygon fill="white" stroke="#666666" points="1244.3,-382 1107.3,-382 1107.3,-341 1244.3,-341 1244.3,-382"/>
<text text-anchor="start" x="1115.3" y="-370" font-family="Helvetica,sans-Serif" font-size="10.00">/home/runner/work/lethe</text>
<text text-anchor="start" x="1115.3" y="-359" font-family="Helvetica,sans-Serif" font-size="10.00">/lethe/include/dem/log</text>
<text text-anchor="middle" x="1175.8" y="-348" font-family="Helvetica,sans-Serif" font-size="10.00">_collision_data.h</text>
</a>
</g>
</g>
<!-- Node2&#45;&gt;Node17 -->
<g id="edge24_Node000002_Node000017" class="edge">
<title>Node2&#45;&gt;Node17</title>
<g id="a_edge24_Node000002_Node000017"><a xlink:title=" ">
<path fill="none" stroke="#63b8ff" d="M1125.58,-410.79C1135.43,-401.32 1146.32,-390.84 1155.44,-382.07"/>
<polygon fill="#63b8ff" stroke="#63b8ff" points="1123.08,-408.34 1118.29,-417.79 1127.93,-413.39 1123.08,-408.34"/>
</a>
</g>
</g>
<!-- Node19 -->
<g id="Node000019" class="node">
<title>Node19</title>
<g id="a_Node000019"><a xlink:href="particle__wall__contact__force_8h.html" target="_top" xlink:title=" ">
<polygon fill="white" stroke="#666666" points="753.3,-382 606.3,-382 606.3,-341 753.3,-341 753.3,-382"/>
<text text-anchor="start" x="614.3" y="-370" font-family="Helvetica,sans-Serif" font-size="10.00">/home/runner/work/lethe</text>
<text text-anchor="start" x="614.3" y="-359" font-family="Helvetica,sans-Serif" font-size="10.00">/lethe/include/dem/particle</text>
<text text-anchor="middle" x="679.8" y="-348" font-family="Helvetica,sans-Serif" font-size="10.00">_wall_contact_force.h</text>
</a>
</g>
</g>
<!-- Node2&#45;&gt;Node19 -->
<g id="edge29_Node000002_Node000019" class="edge">
<title>Node2&#45;&gt;Node19</title>
<g id="a_edge29_Node000002_Node000019"><a xlink:title=" ">
<path fill="none" stroke="#63b8ff" d="M1019.2,-423.4C942.87,-409.7 827.88,-389.07 753.32,-375.69"/>
<polygon fill="#63b8ff" stroke="#63b8ff" points="1018.78,-426.88 1029.24,-425.2 1020.02,-419.99 1018.78,-426.88"/>
</a>
</g>
</g>
<!-- Node25 -->
<g id="Node000025" class="node">
<title>Node25</title>
<g id="a_Node000025"><a xlink:href="ray__tracing_8h.html" target="_top" xlink:title=" ">
<polygon fill="white" stroke="#666666" points="1399.3,-382 1262.3,-382 1262.3,-341 1399.3,-341 1399.3,-382"/>
<text text-anchor="start" x="1270.3" y="-370" font-family="Helvetica,sans-Serif" font-size="10.00">/home/runner/work/lethe</text>
<text text-anchor="start" x="1270.3" y="-359" font-family="Helvetica,sans-Serif" font-size="10.00">/lethe/include/dem/ray</text>
<text text-anchor="middle" x="1330.8" y="-348" font-family="Helvetica,sans-Serif" font-size="10.00">_tracing.h</text>
</a>
</g>
</g>
<!-- Node2&#45;&gt;Node25 -->
<g id="edge40_Node000002_Node000025" class="edge">
<title>Node2&#45;&gt;Node25</title>
<g id="a_edge40_Node000002_Node000025"><a xlink:title=" ">
<path fill="none" stroke="#63b8ff" d="M1168.29,-414.81C1200.76,-404.36 1238.91,-392.08 1270.09,-382.04"/>
<polygon fill="#63b8ff" stroke="#63b8ff" points="1166.86,-411.59 1158.41,-417.99 1169,-418.26 1166.86,-411.59"/>
</a>
</g>
</g>
<!-- Node27 -->
<g id="Node000027" class="node">
<title>Node27</title>
<g id="a_Node000027"><a xlink:href="dem__contact__manager_8cc.html" target="_top" xlink:title=" ">
<polygon fill="white" stroke="#666666" points="1554.3,-382 1417.3,-382 1417.3,-341 1554.3,-341 1554.3,-382"/>
<text text-anchor="start" x="1425.3" y="-370" font-family="Helvetica,sans-Serif" font-size="10.00">/home/runner/work/lethe</text>
<text text-anchor="start" x="1425.3" y="-359" font-family="Helvetica,sans-Serif" font-size="10.00">/lethe/source/dem/dem</text>
<text text-anchor="middle" x="1485.8" y="-348" font-family="Helvetica,sans-Serif" font-size="10.00">_contact_manager.cc</text>
</a>
</g>
</g>
<!-- Node2&#45;&gt;Node27 -->
<g id="edge44_Node000002_Node000027" class="edge">
<title>Node2&#45;&gt;Node27</title>
<g id="a_edge44_Node000002_Node000027"><a xlink:title=" ">
<path fill="none" stroke="#63b8ff" d="M1176.56,-417.95C1280.25,-397.59 1309.23,-402.25 1408.8,-382 1411.5,-381.45 1414.25,-380.87 1417.03,-380.26"/>
<polygon fill="#63b8ff" stroke="#63b8ff" points="1175.75,-414.54 1166.63,-419.93 1177.12,-421.41 1175.75,-414.54"/>
</a>
</g>
</g>
<!-- Node28 -->
<g id="Node000028" class="node">
<title>Node28</title>
<g id="a_Node000028"><a xlink:href="particle__particle__broad__search_8cc.html" target="_top" xlink:title=" ">
<polygon fill="white" stroke="#666666" points="1716.8,-382 1572.8,-382 1572.8,-341 1716.8,-341 1716.8,-382"/>
<text text-anchor="start" x="1580.8" y="-370" font-family="Helvetica,sans-Serif" font-size="10.00">/home/runner/work/lethe</text>
<text text-anchor="start" x="1580.8" y="-359" font-family="Helvetica,sans-Serif" font-size="10.00">/lethe/source/dem/particle</text>
<text text-anchor="middle" x="1644.8" y="-348" font-family="Helvetica,sans-Serif" font-size="10.00">_particle_broad_search.cc</text>
</a>
</g>
</g>
<!-- Node2&#45;&gt;Node28 -->
<g id="edge45_Node000002_Node000028" class="edge">
<title>Node2&#45;&gt;Node28</title>
<g id="a_edge45_Node000002_Node000028"><a xlink:title=" ">
<path fill="none" stroke="#63b8ff" d="M1176.46,-418.04C1348.29,-389.69 1396.12,-409.81 1563.8,-382 1566.65,-381.53 1569.56,-381.01 1572.48,-380.45"/>
<polygon fill="#63b8ff" stroke="#63b8ff" points="1175.86,-414.59 1166.58,-419.7 1177.02,-421.49 1175.86,-414.59"/>
</a>
</g>
</g>
<!-- Node29 -->
<g id="Node000029" class="node">
<title>Node29</title>
<g id="a_Node000029"><a xlink:href="particle__particle__fine__search_8cc.html" target="_top" xlink:title=" ">
<polygon fill="white" stroke="#666666" points="1878.8,-382 1734.8,-382 1734.8,-341 1878.8,-341 1878.8,-382"/>
<text text-anchor="start" x="1742.8" y="-370" font-family="Helvetica,sans-Serif" font-size="10.00">/home/runner/work/lethe</text>
<text text-anchor="start" x="1742.8" y="-359" font-family="Helvetica,sans-Serif" font-size="10.00">/lethe/source/dem/particle</text>
<text text-anchor="middle" x="1806.8" y="-348" font-family="Helvetica,sans-Serif" font-size="10.00">_particle_fine_search.cc</text>
</a>
</g>
</g>
<!-- Node2&#45;&gt;Node29 -->
<g id="edge46_Node000002_Node000029" class="edge">
<title>Node2&#45;&gt;Node29</title>
<g id="a_edge46_Node000002_Node000029"><a xlink:title=" ">
<path fill="none" stroke="#63b8ff" d="M1176.77,-418.02C1419.66,-381.18 1486.92,-418.3 1725.8,-382 1728.66,-381.57 1731.57,-381.08 1734.5,-380.55"/>
<polygon fill="#63b8ff" stroke="#63b8ff" points="1175.91,-414.61 1166.57,-419.6 1176.98,-421.53 1175.91,-414.61"/>
</a>
</g>
</g>
<!-- Node3&#45;&gt;Node4 -->
<g id="edge3_Node000003_Node000004" class="edge">
<title>Node3&#45;&gt;Node4</title>
<g id="a_edge3_Node000003_Node000004"><a xlink:title=" ">
<path fill="none" stroke="#63b8ff" d="M630.49,-260.89C620.43,-257.88 609.85,-255.06 599.8,-253 522.34,-237.13 310.3,-262.74 245.8,-217 214.69,-194.94 201.31,-149.8 195.98,-123.75"/>
<polygon fill="#63b8ff" stroke="#63b8ff" points="629.75,-264.32 640.33,-263.94 631.82,-257.63 629.75,-264.32"/>
</a>
</g>
</g>
<!-- Node3&#45;&gt;Node6 -->
<g id="edge5_Node000003_Node000006" class="edge">
<title>Node3&#45;&gt;Node6</title>
<g id="a_edge5_Node000003_Node000006"><a xlink:title=" ">
<path fill="none" stroke="#63b8ff" d="M627.11,-260.9C618.03,-258.14 608.67,-255.4 599.8,-253 530.69,-234.31 512.38,-233.85 442.8,-217 435.63,-215.26 428.18,-213.43 420.73,-211.56"/>
<polygon fill="#63b8ff" stroke="#63b8ff" points="626.21,-264.29 636.8,-263.89 628.28,-257.6 626.21,-264.29"/>
</a>
</g>
</g>
<!-- Node8 -->
<g id="Node000008" class="node">
<title>Node8</title>
<g id="a_Node000008"><a xlink:href="fluid__dynamics__vans_8h.html" target="_top" xlink:title=" ">
<polygon fill="white" stroke="#666666" points="589.3,-211.5 452.3,-211.5 452.3,-170.5 589.3,-170.5 589.3,-211.5"/>
<text text-anchor="start" x="460.3" y="-199.5" font-family="Helvetica,sans-Serif" font-size="10.00">/home/runner/work/lethe</text>
<text text-anchor="start" x="460.3" y="-188.5" font-family="Helvetica,sans-Serif" font-size="10.00">/lethe/include/fem&#45;dem</text>
<text text-anchor="middle" x="520.8" y="-177.5" font-family="Helvetica,sans-Serif" font-size="10.00">/fluid_dynamics_vans.h</text>
</a>
</g>
</g>
<!-- Node3&#45;&gt;Node8 -->
<g id="edge7_Node000003_Node000008" class="edge">
<title>Node3&#45;&gt;Node8</title>
<g id="a_edge7_Node000003_Node000008"><a xlink:title=" ">
<path fill="none" stroke="#63b8ff" d="M644.77,-259.06C618.76,-244.99 583.39,-225.85 557.08,-211.62"/>
<polygon fill="#63b8ff" stroke="#63b8ff" points="643.44,-262.31 653.9,-263.99 646.77,-256.16 643.44,-262.31"/>
</a>
</g>
</g>
<!-- Node10 -->
<g id="Node000010" class="node">
<title>Node10</title>
<g id="a_Node000010"><a xlink:href="dem_8cc.html" target="_top" xlink:title=" ">
<polygon fill="white" stroke="#666666" points="750.3,-206 607.3,-206 607.3,-176 750.3,-176 750.3,-206"/>
<text text-anchor="start" x="615.3" y="-194" font-family="Helvetica,sans-Serif" font-size="10.00">/home/runner/work/lethe</text>
<text text-anchor="middle" x="678.8" y="-183" font-family="Helvetica,sans-Serif" font-size="10.00">/lethe/source/dem/dem.cc</text>
</a>
</g>
</g>
<!-- Node3&#45;&gt;Node10 -->
<g id="edge10_Node000003_Node000010" class="edge">
<title>Node3&#45;&gt;Node10</title>
<g id="a_edge10_Node000003_Node000010"><a xlink:title=" ">
<path fill="none" stroke="#63b8ff" d="M679.51,-253.49C679.34,-238.2 679.11,-219.05 678.97,-206.22"/>
<polygon fill="#63b8ff" stroke="#63b8ff" points="676.02,-253.84 679.63,-263.8 683.02,-253.76 676.02,-253.84"/>
</a>
</g>
</g>
<!-- Node5 -->
<g id="Node000005" class="node">
<title>Node5</title>
<g id="a_Node000005"><a xlink:href="cfd__dem__coupling_8cc.html" target="_top" xlink:title=" ">
<polygon fill="white" stroke="#666666" points="261.3,-41 124.3,-41 124.3,0 261.3,0 261.3,-41"/>
<text text-anchor="start" x="132.3" y="-29" font-family="Helvetica,sans-Serif" font-size="10.00">/home/runner/work/lethe</text>
<text text-anchor="start" x="132.3" y="-18" font-family="Helvetica,sans-Serif" font-size="10.00">/lethe/source/fem&#45;dem</text>
<text text-anchor="middle" x="192.8" y="-7" font-family="Helvetica,sans-Serif" font-size="10.00">/cfd_dem_coupling.cc</text>
</a>
</g>
</g>
<!-- Node4&#45;&gt;Node5 -->
<g id="edge4_Node000004_Node000005" class="edge">
<title>Node4&#45;&gt;Node5</title>
<g id="a_edge4_Node000004_Node000005"><a xlink:title=" ">
<path fill="none" stroke="#63b8ff" d="M192.8,-71.87C192.8,-61.6 192.8,-50.4 192.8,-41.17"/>
<polygon fill="#63b8ff" stroke="#63b8ff" points="189.3,-72.1 192.8,-82.1 196.3,-72.1 189.3,-72.1"/>
</a>
</g>
</g>
<!-- Node7 -->
<g id="Node000007" class="node">
<title>Node7</title>
<g id="a_Node000007"><a xlink:href="cfd__dem__coupling__matrix__free_8cc.html" target="_top" xlink:title=" ">
<polygon fill="white" stroke="#666666" points="425.8,-129 279.8,-129 279.8,-77 425.8,-77 425.8,-129"/>
<text text-anchor="start" x="287.8" y="-117" font-family="Helvetica,sans-Serif" font-size="10.00">/home/runner/work/lethe</text>
<text text-anchor="start" x="287.8" y="-106" font-family="Helvetica,sans-Serif" font-size="10.00">/lethe/source/fem&#45;dem</text>
<text text-anchor="start" x="287.8" y="-95" font-family="Helvetica,sans-Serif" font-size="10.00">/cfd_dem_coupling_matrix</text>
<text text-anchor="middle" x="352.8" y="-84" font-family="Helvetica,sans-Serif" font-size="10.00">_free.cc</text>
</a>
</g>
</g>
<!-- Node6&#45;&gt;Node7 -->
<g id="edge6_Node000006_Node000007" class="edge">
<title>Node6&#45;&gt;Node7</title>
<g id="a_edge6_Node000006_Node000007"><a xlink:title=" ">
<path fill="none" stroke="#63b8ff" d="M347.55,-160.44C348.49,-150.31 349.54,-139.08 350.44,-129.32"/>
<polygon fill="#63b8ff" stroke="#63b8ff" points="344.06,-160.2 346.62,-170.49 351.03,-160.85 344.06,-160.2"/>
</a>
</g>
</g>
<!-- Node8&#45;&gt;Node4 -->
<g id="edge8_Node000008_Node000004" class="edge">
<title>Node8&#45;&gt;Node4</title>
<g id="a_edge8_Node000008_Node000004"><a xlink:title=" ">
<path fill="none" stroke="#63b8ff" d="M451.92,-167.5C448.85,-166.63 445.8,-165.79 442.8,-165 367.29,-145.05 346.31,-148.95 270.8,-129 264.61,-127.37 258.19,-125.53 251.81,-123.62"/>
<polygon fill="#63b8ff" stroke="#63b8ff" points="451.21,-170.94 461.79,-170.38 453.17,-164.22 451.21,-170.94"/>
</a>
</g>
</g>
<!-- Node9 -->
<g id="Node000009" class="node">
<title>Node9</title>
<g id="a_Node000009"><a xlink:href="fluid__dynamics__vans_8cc.html" target="_top" xlink:title=" ">
<polygon fill="white" stroke="#666666" points="589.3,-123.5 452.3,-123.5 452.3,-82.5 589.3,-82.5 589.3,-123.5"/>
<text text-anchor="start" x="460.3" y="-111.5" font-family="Helvetica,sans-Serif" font-size="10.00">/home/runner/work/lethe</text>
<text text-anchor="start" x="460.3" y="-100.5" font-family="Helvetica,sans-Serif" font-size="10.00">/lethe/source/fem&#45;dem</text>
<text text-anchor="middle" x="520.8" y="-89.5" font-family="Helvetica,sans-Serif" font-size="10.00">/fluid_dynamics_vans.cc</text>
</a>
</g>
</g>
<!-- Node8&#45;&gt;Node9 -->
<g id="edge9_Node000008_Node000009" class="edge">
<title>Node8&#45;&gt;Node9</title>
<g id="a_edge9_Node000008_Node000009"><a xlink:title=" ">
<path fill="none" stroke="#63b8ff" d="M520.8,-160.36C520.8,-148.26 520.8,-134.58 520.8,-123.74"/>
<polygon fill="#63b8ff" stroke="#63b8ff" points="517.3,-160.49 520.8,-170.49 524.3,-160.49 517.3,-160.49"/>
</a>
</g>
</g>
<!-- Node11&#45;&gt;Node3 -->
<g id="edge12_Node000011_Node000003" class="edge">
<title>Node11&#45;&gt;Node3</title>
<g id="a_edge12_Node000011_Node000003"><a xlink:title=" ">
<path fill="none" stroke="#63b8ff" d="M942.36,-345.96C890.05,-335.76 819.94,-321.11 758.8,-305 746.56,-301.77 733.4,-297.81 721.4,-294"/>
<polygon fill="#63b8ff" stroke="#63b8ff" points="941.76,-349.41 952.24,-347.88 943.09,-342.54 941.76,-349.41"/>
</a>
</g>
</g>
<!-- Node12 -->
<g id="Node000012" class="node">
<title>Node12</title>
<g id="a_Node000012"><a xlink:href="set__particle__particle__contact__force__model_8h.html" target="_top" xlink:title=" ">
<polygon fill="white" stroke="#666666" points="1141.8,-305 999.8,-305 999.8,-253 1141.8,-253 1141.8,-305"/>
<text text-anchor="start" x="1007.8" y="-293" font-family="Helvetica,sans-Serif" font-size="10.00">/home/runner/work/lethe</text>
<text text-anchor="start" x="1007.8" y="-282" font-family="Helvetica,sans-Serif" font-size="10.00">/lethe/include/dem/set</text>
<text text-anchor="start" x="1007.8" y="-271" font-family="Helvetica,sans-Serif" font-size="10.00">_particle_particle_contact</text>
<text text-anchor="middle" x="1070.8" y="-260" font-family="Helvetica,sans-Serif" font-size="10.00">_force_model.h</text>
</a>
</g>
</g>
<!-- Node11&#45;&gt;Node12 -->
<g id="edge13_Node000011_Node000012" class="edge">
<title>Node11&#45;&gt;Node12</title>
<g id="a_edge13_Node000011_Node000012"><a xlink:title=" ">
<path fill="none" stroke="#63b8ff" d="M1038.58,-331.88C1044,-323.15 1049.91,-313.63 1055.18,-305.16"/>
<polygon fill="#63b8ff" stroke="#63b8ff" points="1035.46,-330.26 1033.16,-340.6 1041.41,-333.95 1035.46,-330.26"/>
</a>
</g>
</g>
<!-- Node14 -->
<g id="Node000014" class="node">
<title>Node14</title>
<g id="a_Node000014"><a xlink:href="fluid__dynamics__sharp_8cc.html" target="_top" xlink:title=" ">
<polygon fill="white" stroke="#666666" points="1384.3,-123.5 1245.3,-123.5 1245.3,-82.5 1384.3,-82.5 1384.3,-123.5"/>
<text text-anchor="start" x="1253.3" y="-111.5" font-family="Helvetica,sans-Serif" font-size="10.00">/home/runner/work/lethe</text>
<text text-anchor="start" x="1253.3" y="-100.5" font-family="Helvetica,sans-Serif" font-size="10.00">/lethe/source/fem&#45;dem</text>
<text text-anchor="middle" x="1314.8" y="-89.5" font-family="Helvetica,sans-Serif" font-size="10.00">/fluid_dynamics_sharp.cc</text>
</a>
</g>
</g>
<!-- Node11&#45;&gt;Node14 -->
<g id="edge23_Node000011_Node000014" class="edge">
<title>Node11&#45;&gt;Node14</title>
<g id="a_edge23_Node000011_Node000014"><a xlink:title=" ">
<path fill="none" stroke="#63b8ff" d="M1099.51,-341.07C1193.45,-324.25 1235.55,-361.13 1306.8,-305 1340.26,-278.64 1336.18,-258.72 1344.8,-217 1349.48,-194.37 1350.04,-187.51 1344.8,-165 1341.4,-150.4 1333.99,-135.27 1327.39,-123.74"/>
<polygon fill="#63b8ff" stroke="#63b8ff" points="1098.78,-337.64 1089.64,-343 1100.13,-344.51 1098.78,-337.64"/>
</a>
</g>
</g>
<!-- Node15 -->
<g id="Node000015" class="node">
<title>Node15</title>
<g id="a_Node000015"><a xlink:href="set__particle__particle__contact__force__model_8cc.html" target="_top" xlink:title=" ">
<polygon fill="white" stroke="#666666" points="1065.8,-217 923.8,-217 923.8,-165 1065.8,-165 1065.8,-217"/>
<text text-anchor="start" x="931.8" y="-205" font-family="Helvetica,sans-Serif" font-size="10.00">/home/runner/work/lethe</text>
<text text-anchor="start" x="931.8" y="-194" font-family="Helvetica,sans-Serif" font-size="10.00">/lethe/source/dem/set</text>
<text text-anchor="start" x="931.8" y="-183" font-family="Helvetica,sans-Serif" font-size="10.00">_particle_particle_contact</text>
<text text-anchor="middle" x="994.8" y="-172" font-family="Helvetica,sans-Serif" font-size="10.00">_force_model.cc</text>
</a>
</g>
</g>
<!-- Node11&#45;&gt;Node15 -->
<g id="edge22_Node000011_Node000015" class="edge">
<title>Node11&#45;&gt;Node15</title>
<g id="a_edge22_Node000011_Node000015"><a xlink:title=" ">
<path fill="none" stroke="#63b8ff" d="M1002.07,-332.27C997.46,-323.85 993.17,-314.36 990.8,-305 983.34,-275.5 986.38,-240.3 989.94,-217.11"/>
<polygon fill="#63b8ff" stroke="#63b8ff" points="999.06,-334.06 1007.12,-340.94 1005.11,-330.54 999.06,-334.06"/>
</a>
</g>
</g>
<!-- Node16 -->
<g id="Node000016" class="node">
<title>Node16</title>
<g id="a_Node000016"><a xlink:href="force__chains__visualization_8cc.html" target="_top" xlink:title=" ">
<polygon fill="white" stroke="#666666" points="1297.3,-299.5 1160.3,-299.5 1160.3,-258.5 1297.3,-258.5 1297.3,-299.5"/>
<text text-anchor="start" x="1168.3" y="-287.5" font-family="Helvetica,sans-Serif" font-size="10.00">/home/runner/work/lethe</text>
<text text-anchor="start" x="1168.3" y="-276.5" font-family="Helvetica,sans-Serif" font-size="10.00">/lethe/source/dem/force</text>
<text text-anchor="middle" x="1228.8" y="-265.5" font-family="Helvetica,sans-Serif" font-size="10.00">_chains_visualization.cc</text>
</a>
</g>
</g>
<!-- Node11&#45;&gt;Node16 -->
<g id="edge21_Node000011_Node000016" class="edge">
<title>Node11&#45;&gt;Node16</title>
<g id="a_edge21_Node000011_Node000016"><a xlink:title=" ">
<path fill="none" stroke="#63b8ff" d="M1080.78,-337.29C1111.67,-325.33 1148.92,-310.92 1178.32,-299.54"/>
<polygon fill="#63b8ff" stroke="#63b8ff" points="1079.48,-334.04 1071.42,-340.91 1082.01,-340.57 1079.48,-334.04"/>
</a>
</g>
</g>
<!-- Node12&#45;&gt;Node5 -->
<g id="edge18_Node000012_Node000005" class="edge">
<title>Node12&#45;&gt;Node5</title>
<g id="a_edge18_Node000012_Node000005"><a xlink:title=" ">
<path fill="none" stroke="#63b8ff" d="M1092.2,-243.67C1104.45,-219.18 1114.12,-186.84 1095.8,-165 989.07,-37.76 453.51,-22.65 261.47,-21.38"/>
<polygon fill="#63b8ff" stroke="#63b8ff" points="1089.03,-242.17 1087.43,-252.64 1095.21,-245.45 1089.03,-242.17"/>
</a>
</g>
</g>
<!-- Node12&#45;&gt;Node7 -->
<g id="edge19_Node000012_Node000007" class="edge">
<title>Node12&#45;&gt;Node7</title>
<g id="a_edge19_Node000012_Node000007"><a xlink:title=" ">
<path fill="none" stroke="#63b8ff" d="M1083.81,-242.99C1090.6,-217.99 1093.99,-185.32 1074.8,-165 1026.5,-113.87 512.19,-140.48 442.8,-129 437.36,-128.1 431.78,-127 426.19,-125.76"/>
<polygon fill="#63b8ff" stroke="#63b8ff" points="1080.37,-242.25 1080.85,-252.83 1087.08,-244.26 1080.37,-242.25"/>
</a>
</g>
</g>
<!-- Node12&#45;&gt;Node10 -->
<g id="edge16_Node000012_Node000010" class="edge">
<title>Node12&#45;&gt;Node10</title>
<g id="a_edge16_Node000012_Node000010"><a xlink:title=" ">
<path fill="none" stroke="#63b8ff" d="M989.75,-264.67C926.46,-253.66 836.5,-236.67 758.8,-217 746.39,-213.86 733.05,-209.92 720.9,-206.11"/>
<polygon fill="#63b8ff" stroke="#63b8ff" points="989.23,-268.13 999.68,-266.39 990.42,-261.23 989.23,-268.13"/>
</a>
</g>
</g>
<!-- Node13 -->
<g id="Node000013" class="node">
<title>Node13</title>
<g id="a_Node000013"><a xlink:href="fluid__dynamics__sharp_8h.html" target="_top" xlink:title=" ">
<polygon fill="white" stroke="#666666" points="1335.3,-211.5 1198.3,-211.5 1198.3,-170.5 1335.3,-170.5 1335.3,-211.5"/>
<text text-anchor="start" x="1206.3" y="-199.5" font-family="Helvetica,sans-Serif" font-size="10.00">/home/runner/work/lethe</text>
<text text-anchor="start" x="1206.3" y="-188.5" font-family="Helvetica,sans-Serif" font-size="10.00">/lethe/include/fem&#45;dem</text>
<text text-anchor="middle" x="1266.8" y="-177.5" font-family="Helvetica,sans-Serif" font-size="10.00">/fluid_dynamics_sharp.h</text>
</a>
</g>
</g>
<!-- Node12&#45;&gt;Node13 -->
<g id="edge14_Node000012_Node000013" class="edge">
<title>Node12&#45;&gt;Node13</title>
<g id="a_edge14_Node000012_Node000013"><a xlink:title=" ">
<path fill="none" stroke="#63b8ff" d="M1137.35,-248.8C1165.36,-236.51 1197.2,-222.54 1222.29,-211.53"/>
<polygon fill="#63b8ff" stroke="#63b8ff" points="1135.77,-245.67 1128.02,-252.89 1138.58,-252.08 1135.77,-245.67"/>
</a>
</g>
</g>
<!-- Node12&#45;&gt;Node14 -->
<g id="edge20_Node000012_Node000014" class="edge">
<title>Node12&#45;&gt;Node14</title>
<g id="a_edge20_Node000012_Node000014"><a xlink:title=" ">
<path fill="none" stroke="#63b8ff" d="M1112.42,-246.43C1123.62,-237.33 1135.48,-227.12 1145.8,-217 1167.41,-195.8 1165.91,-183.59 1189.8,-165 1211.72,-147.95 1239.17,-133.9 1262.76,-123.61"/>
<polygon fill="#63b8ff" stroke="#63b8ff" points="1110.03,-243.86 1104.42,-252.84 1114.41,-249.32 1110.03,-243.86"/>
</a>
</g>
</g>
<!-- Node12&#45;&gt;Node15 -->
<g id="edge17_Node000012_Node000015" class="edge">
<title>Node12&#45;&gt;Node15</title>
<g id="a_edge17_Node000012_Node000015"><a xlink:title=" ">
<path fill="none" stroke="#63b8ff" d="M1041.7,-245.08C1033.52,-235.81 1024.75,-225.89 1017.03,-217.16"/>
<polygon fill="#63b8ff" stroke="#63b8ff" points="1039.16,-247.49 1048.41,-252.66 1044.41,-242.85 1039.16,-247.49"/>
</a>
</g>
</g>
<!-- Node13&#45;&gt;Node14 -->
<g id="edge15_Node000013_Node000014" class="edge">
<title>Node13&#45;&gt;Node14</title>
<g id="a_edge15_Node000013_Node000014"><a xlink:title=" ">
<path fill="none" stroke="#63b8ff" d="M1282.73,-161.46C1289.63,-149.09 1297.55,-134.91 1303.78,-123.74"/>
<polygon fill="#63b8ff" stroke="#63b8ff" points="1279.51,-160.05 1277.69,-170.49 1285.62,-163.46 1279.51,-160.05"/>
</a>
</g>
</g>
<!-- Node17&#45;&gt;Node3 -->
<g id="edge25_Node000017_Node000003" class="edge">
<title>Node17&#45;&gt;Node3</title>
<g id="a_edge25_Node000017_Node000003"><a xlink:title=" ">
<path fill="none" stroke="#63b8ff" d="M1097.04,-340.82C947.37,-315.19 904.35,-335.41 758.8,-305 745.56,-302.23 731.4,-298.13 718.77,-294.04"/>
<polygon fill="#63b8ff" stroke="#63b8ff" points="1096.6,-344.3 1107.06,-342.57 1097.81,-337.4 1096.6,-344.3"/>
</a>
</g>
</g>
<!-- Node17&#45;&gt;Node13 -->
<g id="edge26_Node000017_Node000013" class="edge">
<title>Node17&#45;&gt;Node13</title>
<g id="a_edge26_Node000017_Node000013"><a xlink:title=" ">
<path fill="none" stroke="#63b8ff" d="M1248.99,-337.51C1274.87,-327.78 1299.42,-316.14 1306.8,-305 1326.34,-275.51 1302.29,-235.35 1283.92,-211.7"/>
<polygon fill="#63b8ff" stroke="#63b8ff" points="1247.62,-334.28 1239.42,-341 1250.02,-340.86 1247.62,-334.28"/>
</a>
</g>
</g>
<!-- Node17&#45;&gt;Node14 -->
<g id="edge28_Node000017_Node000014" class="edge">
<title>Node17&#45;&gt;Node14</title>
<g id="a_edge28_Node000017_Node000014"><a xlink:title=" ">
<path fill="none" stroke="#63b8ff" d="M1250.28,-337.56C1280.74,-327.17 1311.67,-315 1323.8,-305 1359.2,-275.81 1365.33,-261.16 1377.8,-217 1384.08,-194.76 1386.82,-186.28 1377.8,-165 1370.79,-148.46 1356.86,-134.21 1343.87,-123.65"/>
<polygon fill="#63b8ff" stroke="#63b8ff" points="1248.79,-334.37 1240.43,-340.87 1251.02,-341.01 1248.79,-334.37"/>
</a>
</g>
</g>
<!-- Node18 -->
<g id="Node000018" class="node">
<title>Node18</title>
<g id="a_Node000018"><a xlink:href="log__collision__data_8cc.html" target="_top" xlink:title=" ">
<polygon fill="white" stroke="#666666" points="1567.3,-299.5 1430.3,-299.5 1430.3,-258.5 1567.3,-258.5 1567.3,-299.5"/>
<text text-anchor="start" x="1438.3" y="-287.5" font-family="Helvetica,sans-Serif" font-size="10.00">/home/runner/work/lethe</text>
<text text-anchor="start" x="1438.3" y="-276.5" font-family="Helvetica,sans-Serif" font-size="10.00">/lethe/source/dem/log</text>
<text text-anchor="middle" x="1498.8" y="-265.5" font-family="Helvetica,sans-Serif" font-size="10.00">_collision_data.cc</text>
</a>
</g>
</g>
<!-- Node17&#45;&gt;Node18 -->
<g id="edge27_Node000017_Node000018" class="edge">
<title>Node17&#45;&gt;Node18</title>
<g id="a_edge27_Node000017_Node000018"><a xlink:title=" ">
<path fill="none" stroke="#63b8ff" d="M1254.77,-340.81C1327.3,-323.99 1347.51,-322.85 1415.8,-305 1422.21,-303.33 1428.86,-301.49 1435.49,-299.59"/>
<polygon fill="#63b8ff" stroke="#63b8ff" points="1253.62,-337.49 1244.68,-343.18 1255.21,-344.3 1253.62,-337.49"/>
</a>
</g>
</g>
<!-- Node19&#45;&gt;Node3 -->
<g id="edge30_Node000019_Node000003" class="edge">
<title>Node19&#45;&gt;Node3</title>
<g id="a_edge30_Node000019_Node000003"><a xlink:title=" ">
<path fill="none" stroke="#63b8ff" d="M679.8,-330.26C679.8,-317.96 679.8,-304.33 679.8,-294.37"/>
<polygon fill="#63b8ff" stroke="#63b8ff" points="676.3,-330.6 679.8,-340.6 683.3,-330.6 676.3,-330.6"/>
</a>
</g>
</g>
<!-- Node20 -->
<g id="Node000020" class="node">
<title>Node20</title>
<g id="a_Node000020"><a xlink:href="set__particle__wall__contact__force__model_8h.html" target="_top" xlink:title=" ">
<polygon fill="white" stroke="#666666" points="257.3,-305 120.3,-305 120.3,-253 257.3,-253 257.3,-305"/>
<text text-anchor="start" x="128.3" y="-293" font-family="Helvetica,sans-Serif" font-size="10.00">/home/runner/work/lethe</text>
<text text-anchor="start" x="128.3" y="-282" font-family="Helvetica,sans-Serif" font-size="10.00">/lethe/include/dem/set</text>
<text text-anchor="start" x="128.3" y="-271" font-family="Helvetica,sans-Serif" font-size="10.00">_particle_wall_contact</text>
<text text-anchor="middle" x="188.8" y="-260" font-family="Helvetica,sans-Serif" font-size="10.00">_force_model.h</text>
</a>
</g>
</g>
<!-- Node19&#45;&gt;Node20 -->
<g id="edge31_Node000019_Node000020" class="edge">
<title>Node19&#45;&gt;Node20</title>
<g id="a_edge31_Node000019_Node000020"><a xlink:title=" ">
<path fill="none" stroke="#63b8ff" d="M596.39,-346.82C500.97,-331.18 346.5,-305.86 257.65,-291.29"/>
<polygon fill="#63b8ff" stroke="#63b8ff" points="595.86,-350.28 606.29,-348.45 596.99,-343.38 595.86,-350.28"/>
</a>
</g>
</g>
<!-- Node22 -->
<g id="Node000022" class="node">
<title>Node22</title>
<g id="a_Node000022"><a xlink:href="ib__particles__dem_8h.html" target="_top" xlink:title=" ">
<polygon fill="white" stroke="#666666" points="905.3,-299.5 768.3,-299.5 768.3,-258.5 905.3,-258.5 905.3,-299.5"/>
<text text-anchor="start" x="776.3" y="-287.5" font-family="Helvetica,sans-Serif" font-size="10.00">/home/runner/work/lethe</text>
<text text-anchor="start" x="776.3" y="-276.5" font-family="Helvetica,sans-Serif" font-size="10.00">/lethe/include/fem&#45;dem</text>
<text text-anchor="middle" x="836.8" y="-265.5" font-family="Helvetica,sans-Serif" font-size="10.00">/ib_particles_dem.h</text>
</a>
</g>
</g>
<!-- Node19&#45;&gt;Node22 -->
<g id="edge36_Node000019_Node000022" class="edge">
<title>Node19&#45;&gt;Node22</title>
<g id="a_edge36_Node000019_Node000022"><a xlink:title=" ">
<path fill="none" stroke="#63b8ff" d="M727.36,-336.11C750.15,-324.43 777.08,-310.62 798.52,-299.63"/>
<polygon fill="#63b8ff" stroke="#63b8ff" points="725.51,-333.13 718.21,-340.81 728.7,-339.36 725.51,-333.13"/>
</a>
</g>
</g>
<!-- Node24 -->
<g id="Node000024" class="node">
<title>Node24</title>
<g id="a_Node000024"><a xlink:href="particle__wall__contact__force_8cc.html" target="_top" xlink:title=" ">
<polygon fill="white" stroke="#666666" points="590.8,-299.5 446.8,-299.5 446.8,-258.5 590.8,-258.5 590.8,-299.5"/>
<text text-anchor="start" x="454.8" y="-287.5" font-family="Helvetica,sans-Serif" font-size="10.00">/home/runner/work/lethe</text>
<text text-anchor="start" x="454.8" y="-276.5" font-family="Helvetica,sans-Serif" font-size="10.00">/lethe/source/dem/particle</text>
<text text-anchor="middle" x="518.8" y="-265.5" font-family="Helvetica,sans-Serif" font-size="10.00">_wall_contact_force.cc</text>
</a>
</g>
</g>
<!-- Node19&#45;&gt;Node24 -->
<g id="edge39_Node000019_Node000024" class="edge">
<title>Node19&#45;&gt;Node24</title>
<g id="a_edge39_Node000019_Node000024"><a xlink:title=" ">
<path fill="none" stroke="#63b8ff" d="M631.34,-336.27C607.9,-324.55 580.14,-310.67 558.06,-299.63"/>
<polygon fill="#63b8ff" stroke="#63b8ff" points="629.91,-339.47 640.41,-340.81 633.04,-333.2 629.91,-339.47"/>
</a>
</g>
</g>
<!-- Node20&#45;&gt;Node5 -->
<g id="edge34_Node000020_Node000005" class="edge">
<title>Node20&#45;&gt;Node5</title>
<g id="a_edge34_Node000020_Node000005"><a xlink:title=" ">
<path fill="none" stroke="#63b8ff" d="M110.16,-270.9C74.63,-263.31 35.77,-247.93 13.8,-217 -36.11,-146.75 82.76,-74.67 150.21,-41.03"/>
<polygon fill="#63b8ff" stroke="#63b8ff" points="109.59,-274.35 120.07,-272.84 110.93,-267.48 109.59,-274.35"/>
</a>
</g>
</g>
<!-- Node20&#45;&gt;Node7 -->
<g id="edge35_Node000020_Node000007" class="edge">
<title>Node20&#45;&gt;Node7</title>
<g id="a_edge35_Node000020_Node000007"><a xlink:title=" ">
<path fill="none" stroke="#63b8ff" d="M200.13,-243.48C209.41,-219.29 224.51,-187.4 245.8,-165 259.57,-150.51 277.56,-138.46 294.84,-129.01"/>
<polygon fill="#63b8ff" stroke="#63b8ff" points="196.79,-242.4 196.62,-253 203.36,-244.83 196.79,-242.4"/>
</a>
</g>
</g>
<!-- Node20&#45;&gt;Node10 -->
<g id="edge32_Node000020_Node000010" class="edge">
<title>Node20&#45;&gt;Node10</title>
<g id="a_edge32_Node000020_Node000010"><a xlink:title=" ">
<path fill="none" stroke="#63b8ff" d="M267.51,-269.84C350.35,-260.43 484.23,-242.84 597.8,-217 610.86,-214.03 624.87,-210.01 637.5,-206.07"/>
<polygon fill="#63b8ff" stroke="#63b8ff" points="266.96,-266.38 257.41,-270.98 267.74,-273.34 266.96,-266.38"/>
</a>
</g>
</g>
<!-- Node21 -->
<g id="Node000021" class="node">
<title>Node21</title>
<g id="a_Node000021"><a xlink:href="set__particle__wall__contact__force__model_8cc.html" target="_top" xlink:title=" ">
<polygon fill="white" stroke="#666666" points="160.3,-217 23.3,-217 23.3,-165 160.3,-165 160.3,-217"/>
<text text-anchor="start" x="31.3" y="-205" font-family="Helvetica,sans-Serif" font-size="10.00">/home/runner/work/lethe</text>
<text text-anchor="start" x="31.3" y="-194" font-family="Helvetica,sans-Serif" font-size="10.00">/lethe/source/dem/set</text>
<text text-anchor="start" x="31.3" y="-183" font-family="Helvetica,sans-Serif" font-size="10.00">_particle_wall_contact</text>
<text text-anchor="middle" x="91.8" y="-172" font-family="Helvetica,sans-Serif" font-size="10.00">_force_model.cc</text>
</a>
</g>
</g>
<!-- Node20&#45;&gt;Node21 -->
<g id="edge33_Node000020_Node000021" class="edge">
<title>Node20&#45;&gt;Node21</title>
<g id="a_edge33_Node000020_Node000021"><a xlink:title=" ">
<path fill="none" stroke="#63b8ff" d="M152.86,-246.13C142.12,-236.62 130.51,-226.32 120.32,-217.29"/>
<polygon fill="#63b8ff" stroke="#63b8ff" points="150.68,-248.88 160.48,-252.89 155.32,-243.64 150.68,-248.88"/>
</a>
</g>
</g>
<!-- Node22&#45;&gt;Node13 -->
<g id="edge37_Node000022_Node000013" class="edge">
<title>Node22&#45;&gt;Node13</title>
<g id="a_edge37_Node000022_Node000013"><a xlink:title=" ">
<path fill="none" stroke="#63b8ff" d="M915.54,-262.25C996.42,-246.08 1121.06,-221.15 1198.08,-205.74"/>
<polygon fill="#63b8ff" stroke="#63b8ff" points="914.53,-258.88 905.41,-264.28 915.9,-265.75 914.53,-258.88"/>
</a>
</g>
</g>
<!-- Node23 -->
<g id="Node000023" class="node">
<title>Node23</title>
<g id="a_Node000023"><a xlink:href="ib__particles__dem_8cc.html" target="_top" xlink:title=" ">
<polygon fill="white" stroke="#666666" points="905.3,-211.5 768.3,-211.5 768.3,-170.5 905.3,-170.5 905.3,-211.5"/>
<text text-anchor="start" x="776.3" y="-199.5" font-family="Helvetica,sans-Serif" font-size="10.00">/home/runner/work/lethe</text>
<text text-anchor="start" x="776.3" y="-188.5" font-family="Helvetica,sans-Serif" font-size="10.00">/lethe/source/fem&#45;dem</text>
<text text-anchor="middle" x="836.8" y="-177.5" font-family="Helvetica,sans-Serif" font-size="10.00">/ib_particles_dem.cc</text>
</a>
</g>
</g>
<!-- Node22&#45;&gt;Node23 -->
<g id="edge38_Node000022_Node000023" class="edge">
<title>Node22&#45;&gt;Node23</title>
<g id="a_edge38_Node000022_Node000023"><a xlink:title=" ">
<path fill="none" stroke="#63b8ff" d="M836.8,-248.36C836.8,-236.26 836.8,-222.58 836.8,-211.74"/>
<polygon fill="#63b8ff" stroke="#63b8ff" points="833.3,-248.49 836.8,-258.49 840.3,-248.49 833.3,-248.49"/>
</a>
</g>
</g>
<!-- Node26 -->
<g id="Node000026" class="node">
<title>Node26</title>
<g id="a_Node000026"><a xlink:href="ray__tracing_8cc.html" target="_top" xlink:title=" ">
<polygon fill="white" stroke="#666666" points="1722.3,-299.5 1585.3,-299.5 1585.3,-258.5 1722.3,-258.5 1722.3,-299.5"/>
<text text-anchor="start" x="1593.3" y="-287.5" font-family="Helvetica,sans-Serif" font-size="10.00">/home/runner/work/lethe</text>
<text text-anchor="start" x="1593.3" y="-276.5" font-family="Helvetica,sans-Serif" font-size="10.00">/lethe/source/dem/ray</text>
<text text-anchor="middle" x="1653.8" y="-265.5" font-family="Helvetica,sans-Serif" font-size="10.00">_tracing.cc</text>
</a>
</g>
</g>
<!-- Node25&#45;&gt;Node26 -->
<g id="edge41_Node000025_Node000026" class="edge">
<title>Node25&#45;&gt;Node26</title>
<g id="a_edge41_Node000025_Node000026"><a xlink:title=" ">
<path fill="none" stroke="#63b8ff" d="M1409.64,-340.86C1484.91,-323.79 1506.08,-324 1576.8,-305 1582.91,-303.36 1589.25,-301.52 1595.55,-299.61"/>
<polygon fill="#63b8ff" stroke="#63b8ff" points="1408.64,-337.5 1399.67,-343.15 1410.2,-344.32 1408.64,-337.5"/>
</a>
</g>
</g>
</g>
</svg>
