<?xml version="1.0" encoding="UTF-8" standalone="no"?>
<!DOCTYPE svg PUBLIC "-//W3C//DTD SVG 1.1//EN"
 "http://www.w3.org/Graphics/SVG/1.1/DTD/svg11.dtd">
<!-- Generated by graphviz version 2.43.0 (0)
 -->
<!-- Title: /home/runner/work/lethe/lethe/include/dem/particle_particle_fine_search.h Pages: 1 -->
<svg width="1871pt" height="302pt"
 viewBox="0.00 0.00 1871.00 302.00" xmlns="http://www.w3.org/2000/svg" xmlns:xlink="http://www.w3.org/1999/xlink">
<g id="graph0" class="graph" transform="scale(1 1) rotate(0) translate(4 298)">
<title>/home/runner/work/lethe/lethe/include/dem/particle_particle_fine_search.h</title>
<!-- Node1 -->
<g id="Node000001" class="node">
<title>Node1</title>
<g id="a_Node000001"><a xlink:title=" ">
<polygon fill="#999999" stroke="#666666" points="215,-294 68,-294 68,-253 215,-253 215,-294"/>
<text text-anchor="start" x="76" y="-282" font-family="Helvetica,sans-Serif" font-size="10.00">/home/runner/work/lethe</text>
<text text-anchor="start" x="76" y="-271" font-family="Helvetica,sans-Serif" font-size="10.00">/lethe/include/dem/particle</text>
<text text-anchor="middle" x="141.5" y="-260" font-family="Helvetica,sans-Serif" font-size="10.00">_particle_fine_search.h</text>
</a>
</g>
</g>
<!-- Node2 -->
<g id="Node000002" class="node">
<title>Node2</title>
<g id="a_Node000002"><a xlink:href="contact__type_8h.html" target="_top" xlink:title=" ">
<polygon fill="white" stroke="#666666" points="113,-217 0,-217 0,-198 113,-198 113,-217"/>
<text text-anchor="middle" x="56.5" y="-205" font-family="Helvetica,sans-Serif" font-size="10.00">dem/contact_type.h</text>
</a>
</g>
</g>
<!-- Node1&#45;&gt;Node2 -->
<g id="edge1_Node000001_Node000002" class="edge">
<title>Node1&#45;&gt;Node2</title>
<g id="a_edge1_Node000001_Node000002"><a xlink:title=" ">
<path fill="none" stroke="#63b8ff" d="M115.54,-252.95C102.93,-243.46 88.03,-232.24 76.35,-223.44"/>
<polygon fill="#63b8ff" stroke="#63b8ff" points="78.23,-220.48 68.14,-217.26 74.02,-226.07 78.23,-220.48"/>
</a>
</g>
</g>
<!-- Node3 -->
<g id="Node000003" class="node">
<title>Node3</title>
<g id="a_Node000003"><a xlink:href="data__containers_8h.html" target="_top" xlink:title=" ">
<polygon fill="white" stroke="#666666" points="520.5,-217 392.5,-217 392.5,-198 520.5,-198 520.5,-217"/>
<text text-anchor="middle" x="456.5" y="-205" font-family="Helvetica,sans-Serif" font-size="10.00">dem/data_containers.h</text>
</a>
</g>
</g>
<!-- Node1&#45;&gt;Node3 -->
<g id="edge2_Node000001_Node000003" class="edge">
<title>Node1&#45;&gt;Node3</title>
<g id="a_edge2_Node000001_Node000003"><a xlink:title=" ">
<path fill="none" stroke="#63b8ff" d="M215.35,-257.49C273.49,-245.68 353.04,-229.52 404.6,-219.05"/>
<polygon fill="#63b8ff" stroke="#63b8ff" points="405.42,-222.45 414.52,-217.03 404.02,-215.59 405.42,-222.45"/>
</a>
</g>
</g>
<!-- Node11 -->
<g id="Node000011" class="node">
<title>Node11</title>
<g id="a_Node000011"><a xlink:title=" ">
<polygon fill="#e0e0e0" stroke="#999999" points="262,-90.5 147,-90.5 147,-71.5 262,-71.5 262,-90.5"/>
<text text-anchor="middle" x="204.5" y="-78.5" font-family="Helvetica,sans-Serif" font-size="10.00">deal.II/base/tensor.h</text>
</a>
</g>
</g>
<!-- Node1&#45;&gt;Node11 -->
<g id="edge36_Node000001_Node000011" class="edge">
<title>Node1&#45;&gt;Node11</title>
<g id="a_edge36_Node000001_Node000011"><a xlink:title=" ">
<path fill="none" stroke="#63b8ff" d="M147.54,-252.88C155.98,-225.66 171.91,-174.92 186.5,-132 190.08,-121.47 194.28,-109.76 197.73,-100.32"/>
<polygon fill="#63b8ff" stroke="#63b8ff" points="201.06,-101.41 201.22,-90.82 194.49,-99 201.06,-101.41"/>
</a>
</g>
</g>
<!-- Node4 -->
<g id="Node000004" class="node">
<title>Node4</title>
<g id="a_Node000004"><a xlink:href="core_2utilities_8h.html" target="_top" xlink:title=" ">
<polygon fill="white" stroke="#666666" points="1245.5,-156.5 1159.5,-156.5 1159.5,-137.5 1245.5,-137.5 1245.5,-156.5"/>
<text text-anchor="middle" x="1202.5" y="-144.5" font-family="Helvetica,sans-Serif" font-size="10.00">core/utilities.h</text>
</a>
</g>
</g>
<!-- Node3&#45;&gt;Node4 -->
<g id="edge3_Node000003_Node000004" class="edge">
<title>Node3&#45;&gt;Node4</title>
<g id="a_edge3_Node000003_Node000004"><a xlink:title=" ">
<path fill="none" stroke="#63b8ff" d="M520.75,-201.46C665.59,-190.1 1015.36,-162.68 1149.19,-152.18"/>
<polygon fill="#63b8ff" stroke="#63b8ff" points="1149.51,-155.67 1159.2,-151.4 1148.96,-148.69 1149.51,-155.67"/>
</a>
</g>
</g>
<!-- Node3&#45;&gt;Node11 -->
<g id="edge30_Node000003_Node000011" class="edge">
<title>Node3&#45;&gt;Node11</title>
<g id="a_edge30_Node000003_Node000011"><a xlink:title=" ">
<path fill="none" stroke="#63b8ff" d="M392.27,-204.57C324.07,-201 222.8,-190.85 198.5,-162 184.1,-144.9 190.11,-117.8 196.61,-99.95"/>
<polygon fill="#63b8ff" stroke="#63b8ff" points="199.86,-101.25 200.33,-90.67 193.36,-98.64 199.86,-101.25"/>
</a>
</g>
</g>
<!-- Node14 -->
<g id="Node000014" class="node">
<title>Node14</title>
<g id="a_Node000014"><a xlink:title=" ">
<polygon fill="#e0e0e0" stroke="#999999" points="540,-96 409,-96 409,-66 540,-66 540,-96"/>
<text text-anchor="start" x="417" y="-84" font-family="Helvetica,sans-Serif" font-size="10.00">deal.II/particles/particle</text>
<text text-anchor="middle" x="474.5" y="-73" font-family="Helvetica,sans-Serif" font-size="10.00">_iterator.h</text>
</a>
</g>
</g>
<!-- Node3&#45;&gt;Node14 -->
<g id="edge32_Node000003_Node000014" class="edge">
<title>Node3&#45;&gt;Node14</title>
<g id="a_edge32_Node000003_Node000014"><a xlink:title=" ">
<path fill="none" stroke="#63b8ff" d="M520.6,-205.42C593.48,-202.67 705.83,-193.32 732.5,-162 741.15,-151.85 740.98,-142.29 732.5,-132 731.76,-131.1 625.91,-110.8 550.04,-96.35"/>
<polygon fill="#63b8ff" stroke="#63b8ff" points="550.5,-92.87 540.02,-94.44 549.19,-99.75 550.5,-92.87"/>
</a>
</g>
</g>
<!-- Node21 -->
<g id="Node000021" class="node">
<title>Node21</title>
<g id="a_Node000021"><a xlink:title=" ">
<polygon fill="#e0e0e0" stroke="#999999" points="1863,-90.5 1816,-90.5 1816,-71.5 1863,-71.5 1863,-90.5"/>
<text text-anchor="middle" x="1839.5" y="-78.5" font-family="Helvetica,sans-Serif" font-size="10.00">vector</text>
</a>
</g>
</g>
<!-- Node3&#45;&gt;Node21 -->
<g id="edge34_Node000003_Node000021" class="edge">
<title>Node3&#45;&gt;Node21</title>
<g id="a_edge34_Node000003_Node000021"><a xlink:title=" ">
<path fill="none" stroke="#63b8ff" d="M520.74,-204.4C656.45,-199.64 982.25,-186.48 1254.5,-162 1491.36,-140.7 1551.9,-140.6 1785.5,-96 1792.28,-94.71 1799.46,-93.05 1806.3,-91.33"/>
<polygon fill="#63b8ff" stroke="#63b8ff" points="1807.2,-94.71 1815.99,-88.8 1805.43,-87.94 1807.2,-94.71"/>
</a>
</g>
</g>
<!-- Node22 -->
<g id="Node000022" class="node">
<title>Node22</title>
<g id="a_Node000022"><a xlink:href="boundary__cells__info__struct_8h.html" target="_top" xlink:title=" ">
<polygon fill="white" stroke="#666666" points="323,-162 208,-162 208,-132 323,-132 323,-162"/>
<text text-anchor="start" x="216" y="-150" font-family="Helvetica,sans-Serif" font-size="10.00">dem/boundary_cells</text>
<text text-anchor="middle" x="265.5" y="-139" font-family="Helvetica,sans-Serif" font-size="10.00">_info_struct.h</text>
</a>
</g>
</g>
<!-- Node3&#45;&gt;Node22 -->
<g id="edge22_Node000003_Node000022" class="edge">
<title>Node3&#45;&gt;Node22</title>
<g id="a_edge22_Node000003_Node000022"><a xlink:title=" ">
<path fill="none" stroke="#63b8ff" d="M428.73,-197.99C400.64,-189.39 356.45,-175.86 321.13,-165.04"/>
<polygon fill="#63b8ff" stroke="#63b8ff" points="322.01,-161.65 311.42,-162.06 319.96,-168.34 322.01,-161.65"/>
</a>
</g>
</g>
<!-- Node23 -->
<g id="Node000023" class="node">
<title>Node23</title>
<g id="a_Node000023"><a xlink:title=" ">
<polygon fill="#e0e0e0" stroke="#999999" points="128.5,-96 26.5,-96 26.5,-66 128.5,-66 128.5,-96"/>
<text text-anchor="start" x="34.5" y="-84" font-family="Helvetica,sans-Serif" font-size="10.00">deal.II/distributed</text>
<text text-anchor="middle" x="77.5" y="-73" font-family="Helvetica,sans-Serif" font-size="10.00">/tria.h</text>
</a>
</g>
</g>
<!-- Node3&#45;&gt;Node23 -->
<g id="edge31_Node000003_Node000023" class="edge">
<title>Node3&#45;&gt;Node23</title>
<g id="a_edge31_Node000003_Node000023"><a xlink:title=" ">
<path fill="none" stroke="#63b8ff" d="M392.26,-204.32C336.04,-200.48 253.17,-190.05 186.5,-162 153.07,-147.94 120.29,-121.71 99.56,-103.13"/>
<polygon fill="#63b8ff" stroke="#63b8ff" points="101.7,-100.34 91.96,-96.17 96.97,-105.51 101.7,-100.34"/>
</a>
</g>
</g>
<!-- Node24 -->
<g id="Node000024" class="node">
<title>Node24</title>
<g id="a_Node000024"><a xlink:href="contact__info_8h.html" target="_top" xlink:title=" ">
<polygon fill="white" stroke="#666666" points="451.5,-156.5 341.5,-156.5 341.5,-137.5 451.5,-137.5 451.5,-156.5"/>
<text text-anchor="middle" x="396.5" y="-144.5" font-family="Helvetica,sans-Serif" font-size="10.00">dem/contact_info.h</text>
</a>
</g>
</g>
<!-- Node3&#45;&gt;Node24 -->
<g id="edge26_Node000003_Node000024" class="edge">
<title>Node3&#45;&gt;Node24</title>
<g id="a_edge26_Node000003_Node000024"><a xlink:title=" ">
<path fill="none" stroke="#63b8ff" d="M447.65,-197.87C438.52,-188.97 424.08,-174.89 412.86,-163.95"/>
<polygon fill="#63b8ff" stroke="#63b8ff" points="414.99,-161.14 405.39,-156.67 410.11,-166.15 414.99,-161.14"/>
</a>
</g>
</g>
<!-- Node25 -->
<g id="Node000025" class="node">
<title>Node25</title>
<g id="a_Node000025"><a xlink:title=" ">
<polygon fill="#e0e0e0" stroke="#999999" points="563,-156.5 470,-156.5 470,-137.5 563,-137.5 563,-156.5"/>
<text text-anchor="middle" x="516.5" y="-144.5" font-family="Helvetica,sans-Serif" font-size="10.00">unordered_map</text>
</a>
</g>
</g>
<!-- Node3&#45;&gt;Node25 -->
<g id="edge33_Node000003_Node000025" class="edge">
<title>Node3&#45;&gt;Node25</title>
<g id="a_edge33_Node000003_Node000025"><a xlink:title=" ">
<path fill="none" stroke="#63b8ff" d="M465.35,-197.87C474.48,-188.97 488.92,-174.89 500.14,-163.95"/>
<polygon fill="#63b8ff" stroke="#63b8ff" points="502.89,-166.15 507.61,-156.67 498.01,-161.14 502.89,-166.15"/>
</a>
</g>
</g>
<!-- Node26 -->
<g id="Node000026" class="node">
<title>Node26</title>
<g id="a_Node000026"><a xlink:href="unordered__dense_8h.html" target="_top" xlink:title=" ">
<polygon fill="white" stroke="#666666" points="724,-156.5 581,-156.5 581,-137.5 724,-137.5 724,-156.5"/>
<text text-anchor="middle" x="652.5" y="-144.5" font-family="Helvetica,sans-Serif" font-size="10.00">ankerl/unordered_dense.h</text>
</a>
</g>
</g>
<!-- Node3&#45;&gt;Node26 -->
<g id="edge35_Node000003_Node000026" class="edge">
<title>Node3&#45;&gt;Node26</title>
<g id="a_edge35_Node000003_Node000026"><a xlink:title=" ">
<path fill="none" stroke="#63b8ff" d="M485,-197.99C519.11,-187.81 576.37,-170.72 614.29,-159.4"/>
<polygon fill="#63b8ff" stroke="#63b8ff" points="615.38,-162.73 623.97,-156.52 613.38,-156.02 615.38,-162.73"/>
</a>
</g>
</g>
<!-- Node5 -->
<g id="Node000005" class="node">
<title>Node5</title>
<g id="a_Node000005"><a xlink:href="output__struct_8h.html" target="_top" xlink:title=" ">
<polygon fill="white" stroke="#666666" points="672.5,-90.5 558.5,-90.5 558.5,-71.5 672.5,-71.5 672.5,-90.5"/>
<text text-anchor="middle" x="615.5" y="-78.5" font-family="Helvetica,sans-Serif" font-size="10.00">core/output_struct.h</text>
</a>
</g>
</g>
<!-- Node4&#45;&gt;Node5 -->
<g id="edge4_Node000004_Node000005" class="edge">
<title>Node4&#45;&gt;Node5</title>
<g id="a_edge4_Node000004_Node000005"><a xlink:title=" ">
<path fill="none" stroke="#63b8ff" d="M1159.41,-143.52C1069.96,-138.02 857.76,-123.06 681.5,-96 675.19,-95.03 668.58,-93.84 662.08,-92.57"/>
<polygon fill="#63b8ff" stroke="#63b8ff" points="662.52,-89.08 652.02,-90.52 661.12,-95.94 662.52,-89.08"/>
</a>
</g>
</g>
<!-- Node6 -->
<g id="Node000006" class="node">
<title>Node6</title>
<g id="a_Node000006"><a xlink:title=" ">
<polygon fill="#e0e0e0" stroke="#999999" points="1316,-30 1215,-30 1215,0 1316,0 1316,-30"/>
<text text-anchor="start" x="1223" y="-18" font-family="Helvetica,sans-Serif" font-size="10.00">deal.II/base/table</text>
<text text-anchor="middle" x="1265.5" y="-7" font-family="Helvetica,sans-Serif" font-size="10.00">_handler.h</text>
</a>
</g>
</g>
<!-- Node4&#45;&gt;Node6 -->
<g id="edge10_Node000004_Node000006" class="edge">
<title>Node4&#45;&gt;Node6</title>
<g id="a_edge10_Node000004_Node000006"><a xlink:title=" ">
<path fill="none" stroke="#63b8ff" d="M1245.81,-143.76C1375.16,-136.87 1750.87,-115.26 1768.5,-96 1777.5,-86.17 1777.45,-75.88 1768.5,-66 1739.32,-33.77 1453.88,-21.48 1326.42,-17.57"/>
<polygon fill="#63b8ff" stroke="#63b8ff" points="1326.16,-14.06 1316.06,-17.26 1325.95,-21.05 1326.16,-14.06"/>
</a>
</g>
</g>
<!-- Node8 -->
<g id="Node000008" class="node">
<title>Node8</title>
<g id="a_Node000008"><a xlink:title=" ">
<polygon fill="#e0e0e0" stroke="#999999" points="820.5,-96 690.5,-96 690.5,-66 820.5,-66 820.5,-96"/>
<text text-anchor="start" x="698.5" y="-84" font-family="Helvetica,sans-Serif" font-size="10.00">deal.II/base/conditional</text>
<text text-anchor="middle" x="755.5" y="-73" font-family="Helvetica,sans-Serif" font-size="10.00">_ostream.h</text>
</a>
</g>
</g>
<!-- Node4&#45;&gt;Node8 -->
<g id="edge7_Node000004_Node000008" class="edge">
<title>Node4&#45;&gt;Node8</title>
<g id="a_edge7_Node000004_Node000008"><a xlink:title=" ">
<path fill="none" stroke="#63b8ff" d="M1159.43,-140.93C1090.03,-132.61 949.21,-115.04 830.5,-96 830.4,-95.98 830.3,-95.97 830.19,-95.95"/>
<polygon fill="#63b8ff" stroke="#63b8ff" points="830.95,-92.53 820.51,-94.34 829.8,-99.43 830.95,-92.53"/>
</a>
</g>
</g>
<!-- Node9 -->
<g id="Node000009" class="node">
<title>Node9</title>
<g id="a_Node000009"><a xlink:title=" ">
<polygon fill="#e0e0e0" stroke="#999999" points="966,-96 839,-96 839,-66 966,-66 966,-96"/>
<text text-anchor="start" x="847" y="-84" font-family="Helvetica,sans-Serif" font-size="10.00">deal.II/base/parameter</text>
<text text-anchor="middle" x="902.5" y="-73" font-family="Helvetica,sans-Serif" font-size="10.00">_handler.h</text>
</a>
</g>
</g>
<!-- Node4&#45;&gt;Node9 -->
<g id="edge8_Node000004_Node000009" class="edge">
<title>Node4&#45;&gt;Node9</title>
<g id="a_edge8_Node000004_Node000009"><a xlink:title=" ">
<path fill="none" stroke="#63b8ff" d="M1162.35,-137.44C1114.88,-127.31 1034.93,-110.25 976.22,-97.73"/>
<polygon fill="#63b8ff" stroke="#63b8ff" points="976.76,-94.26 966.25,-95.6 975.3,-101.11 976.76,-94.26"/>
</a>
</g>
</g>
<!-- Node10 -->
<g id="Node000010" class="node">
<title>Node10</title>
<g id="a_Node000010"><a xlink:title=" ">
<polygon fill="#e0e0e0" stroke="#999999" points="390.5,-90.5 280.5,-90.5 280.5,-71.5 390.5,-71.5 390.5,-90.5"/>
<text text-anchor="middle" x="335.5" y="-78.5" font-family="Helvetica,sans-Serif" font-size="10.00">deal.II/base/point.h</text>
</a>
</g>
</g>
<!-- Node4&#45;&gt;Node10 -->
<g id="edge9_Node000004_Node000010" class="edge">
<title>Node4&#45;&gt;Node10</title>
<g id="a_edge9_Node000004_Node000010"><a xlink:title=" ">
<path fill="none" stroke="#63b8ff" d="M1159.18,-145.63C1038.35,-144.1 687.59,-136.24 399.5,-96 393.14,-95.11 386.48,-93.94 379.95,-92.64"/>
<polygon fill="#63b8ff" stroke="#63b8ff" points="380.37,-89.15 369.87,-90.53 378.94,-96 380.37,-89.15"/>
</a>
</g>
</g>
<!-- Node4&#45;&gt;Node11 -->
<g id="edge11_Node000004_Node000011" class="edge">
<title>Node4&#45;&gt;Node11</title>
<g id="a_edge11_Node000004_Node000011"><a xlink:title=" ">
<path fill="none" stroke="#63b8ff" d="M1159.44,-144.56C1000.46,-139.11 446.75,-118.88 271.5,-96 264.69,-95.11 257.54,-93.91 250.56,-92.58"/>
<polygon fill="#63b8ff" stroke="#63b8ff" points="250.98,-89.1 240.49,-90.57 249.61,-95.96 250.98,-89.1"/>
</a>
</g>
</g>
<!-- Node12 -->
<g id="Node000012" class="node">
<title>Node12</title>
<g id="a_Node000012"><a xlink:title=" ">
<polygon fill="#e0e0e0" stroke="#999999" points="1124.5,-90.5 984.5,-90.5 984.5,-71.5 1124.5,-71.5 1124.5,-90.5"/>
<text text-anchor="middle" x="1054.5" y="-78.5" font-family="Helvetica,sans-Serif" font-size="10.00">deal.II/dofs/dof_handler.h</text>
</a>
</g>
</g>
<!-- Node4&#45;&gt;Node12 -->
<g id="edge12_Node000004_Node000012" class="edge">
<title>Node4&#45;&gt;Node12</title>
<g id="a_edge12_Node000004_Node000012"><a xlink:title=" ">
<path fill="none" stroke="#63b8ff" d="M1182.54,-137.37C1157.16,-126.39 1113.14,-107.36 1083.91,-94.72"/>
<polygon fill="#63b8ff" stroke="#63b8ff" points="1085.18,-91.46 1074.62,-90.7 1082.41,-97.88 1085.18,-91.46"/>
</a>
</g>
</g>
<!-- Node13 -->
<g id="Node000013" class="node">
<title>Node13</title>
<g id="a_Node000013"><a xlink:title=" ">
<polygon fill="#e0e0e0" stroke="#999999" points="1262,-90.5 1143,-90.5 1143,-71.5 1262,-71.5 1262,-90.5"/>
<text text-anchor="middle" x="1202.5" y="-78.5" font-family="Helvetica,sans-Serif" font-size="10.00">deal.II/fe/fe_values.h</text>
</a>
</g>
</g>
<!-- Node4&#45;&gt;Node13 -->
<g id="edge13_Node000004_Node000013" class="edge">
<title>Node4&#45;&gt;Node13</title>
<g id="a_edge13_Node000004_Node000013"><a xlink:title=" ">
<path fill="none" stroke="#63b8ff" d="M1202.5,-137.37C1202.5,-128.16 1202.5,-113.29 1202.5,-101.27"/>
<polygon fill="#63b8ff" stroke="#63b8ff" points="1206,-100.91 1202.5,-90.91 1199,-100.91 1206,-100.91"/>
</a>
</g>
</g>
<!-- Node4&#45;&gt;Node14 -->
<g id="edge14_Node000004_Node000014" class="edge">
<title>Node4&#45;&gt;Node14</title>
<g id="a_edge14_Node000004_Node000014"><a xlink:title=" ">
<path fill="none" stroke="#63b8ff" d="M1159.16,-144.3C1055.67,-139.9 785.85,-126.38 550.41,-96.02"/>
<polygon fill="#63b8ff" stroke="#63b8ff" points="550.65,-92.52 540.29,-94.7 549.75,-99.46 550.65,-92.52"/>
</a>
</g>
</g>
<!-- Node15 -->
<g id="Node000015" class="node">
<title>Node15</title>
<g id="a_Node000015"><a xlink:title=" ">
<polygon fill="#e0e0e0" stroke="#999999" points="1458,-96 1353,-96 1353,-66 1458,-66 1458,-96"/>
<text text-anchor="start" x="1361" y="-84" font-family="Helvetica,sans-Serif" font-size="10.00">boost/archive/text</text>
<text text-anchor="middle" x="1405.5" y="-73" font-family="Helvetica,sans-Serif" font-size="10.00">_iarchive.hpp</text>
</a>
</g>
</g>
<!-- Node4&#45;&gt;Node15 -->
<g id="edge15_Node000004_Node000015" class="edge">
<title>Node4&#45;&gt;Node15</title>
<g id="a_edge15_Node000004_Node000015"><a xlink:title=" ">
<path fill="none" stroke="#63b8ff" d="M1229.88,-137.37C1260.81,-127.62 1311.92,-111.5 1351.06,-99.16"/>
<polygon fill="#63b8ff" stroke="#63b8ff" points="1352.24,-102.46 1360.73,-96.12 1350.14,-95.78 1352.24,-102.46"/>
</a>
</g>
</g>
<!-- Node16 -->
<g id="Node000016" class="node">
<title>Node16</title>
<g id="a_Node000016"><a xlink:title=" ">
<polygon fill="#e0e0e0" stroke="#999999" points="1581,-96 1476,-96 1476,-66 1581,-66 1581,-96"/>
<text text-anchor="start" x="1484" y="-84" font-family="Helvetica,sans-Serif" font-size="10.00">boost/archive/text</text>
<text text-anchor="middle" x="1528.5" y="-73" font-family="Helvetica,sans-Serif" font-size="10.00">_oarchive.hpp</text>
</a>
</g>
</g>
<!-- Node4&#45;&gt;Node16 -->
<g id="edge16_Node000004_Node000016" class="edge">
<title>Node4&#45;&gt;Node16</title>
<g id="a_edge16_Node000004_Node000016"><a xlink:title=" ">
<path fill="none" stroke="#63b8ff" d="M1245.75,-138.38C1296.29,-129.35 1382.69,-113.55 1466.07,-96.26"/>
<polygon fill="#63b8ff" stroke="#63b8ff" points="1466.88,-99.66 1475.96,-94.2 1465.45,-92.81 1466.88,-99.66"/>
</a>
</g>
</g>
<!-- Node17 -->
<g id="Node000017" class="node">
<title>Node17</title>
<g id="a_Node000017"><a xlink:title=" ">
<polygon fill="#e0e0e0" stroke="#999999" points="1335,-90.5 1280,-90.5 1280,-71.5 1335,-71.5 1335,-90.5"/>
<text text-anchor="middle" x="1307.5" y="-78.5" font-family="Helvetica,sans-Serif" font-size="10.00">fstream</text>
</a>
</g>
</g>
<!-- Node4&#45;&gt;Node17 -->
<g id="edge17_Node000004_Node000017" class="edge">
<title>Node4&#45;&gt;Node17</title>
<g id="a_edge17_Node000004_Node000017"><a xlink:title=" ">
<path fill="none" stroke="#63b8ff" d="M1216.66,-137.37C1234.04,-126.78 1263.74,-108.67 1284.43,-96.06"/>
<polygon fill="#63b8ff" stroke="#63b8ff" points="1286.51,-98.89 1293.23,-90.7 1282.87,-92.92 1286.51,-98.89"/>
</a>
</g>
</g>
<!-- Node18 -->
<g id="Node000018" class="node">
<title>Node18</title>
<g id="a_Node000018"><a xlink:title=" ">
<polygon fill="#e0e0e0" stroke="#999999" points="1637.5,-90.5 1599.5,-90.5 1599.5,-71.5 1637.5,-71.5 1637.5,-90.5"/>
<text text-anchor="middle" x="1618.5" y="-78.5" font-family="Helvetica,sans-Serif" font-size="10.00">map</text>
</a>
</g>
</g>
<!-- Node4&#45;&gt;Node18 -->
<g id="edge18_Node000004_Node000018" class="edge">
<title>Node4&#45;&gt;Node18</title>
<g id="a_edge18_Node000004_Node000018"><a xlink:title=" ">
<path fill="none" stroke="#63b8ff" d="M1245.68,-145.12C1318.38,-142.62 1469.18,-132.99 1590.5,-96 1591.76,-95.62 1593.03,-95.18 1594.3,-94.71"/>
<polygon fill="#63b8ff" stroke="#63b8ff" points="1596.04,-97.76 1603.77,-90.52 1593.21,-91.36 1596.04,-97.76"/>
</a>
</g>
</g>
<!-- Node19 -->
<g id="Node000019" class="node">
<title>Node19</title>
<g id="a_Node000019"><a xlink:title=" ">
<polygon fill="#e0e0e0" stroke="#999999" points="1699.5,-90.5 1655.5,-90.5 1655.5,-71.5 1699.5,-71.5 1699.5,-90.5"/>
<text text-anchor="middle" x="1677.5" y="-78.5" font-family="Helvetica,sans-Serif" font-size="10.00">string</text>
</a>
</g>
</g>
<!-- Node4&#45;&gt;Node19 -->
<g id="edge19_Node000004_Node000019" class="edge">
<title>Node4&#45;&gt;Node19</title>
<g id="a_edge19_Node000004_Node000019"><a xlink:title=" ">
<path fill="none" stroke="#63b8ff" d="M1245.57,-145.57C1325.87,-143.81 1503.26,-135.36 1646.5,-96 1648.18,-95.54 1649.89,-95 1651.6,-94.4"/>
<polygon fill="#63b8ff" stroke="#63b8ff" points="1653.17,-97.54 1661.12,-90.54 1650.54,-91.05 1653.17,-97.54"/>
</a>
</g>
</g>
<!-- Node20 -->
<g id="Node000020" class="node">
<title>Node20</title>
<g id="a_Node000020"><a xlink:title=" ">
<polygon fill="#e0e0e0" stroke="#999999" points="1759,-90.5 1718,-90.5 1718,-71.5 1759,-71.5 1759,-90.5"/>
<text text-anchor="middle" x="1738.5" y="-78.5" font-family="Helvetica,sans-Serif" font-size="10.00">tuple</text>
</a>
</g>
</g>
<!-- Node4&#45;&gt;Node20 -->
<g id="edge20_Node000004_Node000020" class="edge">
<title>Node4&#45;&gt;Node20</title>
<g id="a_edge20_Node000004_Node000020"><a xlink:title=" ">
<path fill="none" stroke="#63b8ff" d="M1245.7,-146.59C1334.21,-146.74 1541.85,-141.68 1708.5,-96 1709.99,-95.59 1711.5,-95.11 1713,-94.59"/>
<polygon fill="#63b8ff" stroke="#63b8ff" points="1714.78,-97.64 1722.69,-90.59 1712.11,-91.17 1714.78,-97.64"/>
</a>
</g>
</g>
<!-- Node4&#45;&gt;Node21 -->
<g id="edge21_Node000004_Node000021" class="edge">
<title>Node4&#45;&gt;Node21</title>
<g id="a_edge21_Node000004_Node000021"><a xlink:title=" ">
<path fill="none" stroke="#63b8ff" d="M1245.74,-143.91C1364.75,-137.9 1695.29,-119.54 1801.5,-96 1804.17,-95.41 1806.92,-94.67 1809.64,-93.85"/>
<polygon fill="#63b8ff" stroke="#63b8ff" points="1810.94,-97.1 1819.29,-90.59 1808.7,-90.47 1810.94,-97.1"/>
</a>
</g>
</g>
<!-- Node5&#45;&gt;Node6 -->
<g id="edge5_Node000005_Node000006" class="edge">
<title>Node5&#45;&gt;Node6</title>
<g id="a_edge5_Node000005_Node000006"><a xlink:title=" ">
<path fill="none" stroke="#63b8ff" d="M651.66,-71.49C661.32,-69.45 671.77,-67.44 681.5,-66 871.22,-37.87 1098.13,-24.06 1204.64,-18.73"/>
<polygon fill="#63b8ff" stroke="#63b8ff" points="1205.05,-22.21 1214.87,-18.22 1204.71,-15.22 1205.05,-22.21"/>
</a>
</g>
</g>
<!-- Node7 -->
<g id="Node000007" class="node">
<title>Node7</title>
<g id="a_Node000007"><a xlink:title=" ">
<polygon fill="#e0e0e0" stroke="#999999" points="675,-30 556,-30 556,0 675,0 675,-30"/>
<text text-anchor="start" x="564" y="-18" font-family="Helvetica,sans-Serif" font-size="10.00">deal.II/numerics/data</text>
<text text-anchor="middle" x="615.5" y="-7" font-family="Helvetica,sans-Serif" font-size="10.00">_postprocessor.h</text>
</a>
</g>
</g>
<!-- Node5&#45;&gt;Node7 -->
<g id="edge6_Node000005_Node000007" class="edge">
<title>Node5&#45;&gt;Node7</title>
<g id="a_edge6_Node000005_Node000007"><a xlink:title=" ">
<path fill="none" stroke="#63b8ff" d="M615.5,-71.37C615.5,-63.49 615.5,-51.45 615.5,-40.6"/>
<polygon fill="#63b8ff" stroke="#63b8ff" points="619,-40.36 615.5,-30.36 612,-40.36 619,-40.36"/>
</a>
</g>
</g>
<!-- Node22&#45;&gt;Node10 -->
<g id="edge23_Node000022_Node000010" class="edge">
<title>Node22&#45;&gt;Node10</title>
<g id="a_edge23_Node000022_Node000010"><a xlink:title=" ">
<path fill="none" stroke="#63b8ff" d="M281.04,-131.8C292.06,-121.72 306.85,-108.19 318.24,-97.78"/>
<polygon fill="#63b8ff" stroke="#63b8ff" points="320.81,-100.18 325.83,-90.84 316.08,-95.01 320.81,-100.18"/>
</a>
</g>
</g>
<!-- Node22&#45;&gt;Node11 -->
<g id="edge24_Node000022_Node000011" class="edge">
<title>Node22&#45;&gt;Node11</title>
<g id="a_edge24_Node000022_Node000011"><a xlink:title=" ">
<path fill="none" stroke="#63b8ff" d="M251.96,-131.8C242.45,-121.82 229.72,-108.46 219.83,-98.09"/>
<polygon fill="#63b8ff" stroke="#63b8ff" points="222.36,-95.67 212.93,-90.84 217.3,-100.5 222.36,-95.67"/>
</a>
</g>
</g>
<!-- Node22&#45;&gt;Node23 -->
<g id="edge25_Node000022_Node000023" class="edge">
<title>Node22&#45;&gt;Node23</title>
<g id="a_edge25_Node000022_Node000023"><a xlink:title=" ">
<path fill="none" stroke="#63b8ff" d="M224.24,-131.95C195.96,-122.33 158.25,-109.49 128.15,-99.24"/>
<polygon fill="#63b8ff" stroke="#63b8ff" points="129.26,-95.92 118.66,-96.01 127,-102.55 129.26,-95.92"/>
</a>
</g>
</g>
<!-- Node24&#45;&gt;Node10 -->
<g id="edge27_Node000024_Node000010" class="edge">
<title>Node24&#45;&gt;Node10</title>
<g id="a_edge27_Node000024_Node000010"><a xlink:title=" ">
<path fill="none" stroke="#63b8ff" d="M388.27,-137.37C378.78,-127.4 362.94,-110.79 351.09,-98.36"/>
<polygon fill="#63b8ff" stroke="#63b8ff" points="353.42,-95.73 343.99,-90.91 348.35,-100.56 353.42,-95.73"/>
</a>
</g>
</g>
<!-- Node24&#45;&gt;Node11 -->
<g id="edge28_Node000024_Node000011" class="edge">
<title>Node24&#45;&gt;Node11</title>
<g id="a_edge28_Node000024_Node000011"><a xlink:title=" ">
<path fill="none" stroke="#63b8ff" d="M370.61,-137.37C336.87,-126.12 277.75,-106.42 239.89,-93.8"/>
<polygon fill="#63b8ff" stroke="#63b8ff" points="240.88,-90.44 230.29,-90.6 238.67,-97.08 240.88,-90.44"/>
</a>
</g>
</g>
<!-- Node24&#45;&gt;Node14 -->
<g id="edge29_Node000024_Node000014" class="edge">
<title>Node24&#45;&gt;Node14</title>
<g id="a_edge29_Node000024_Node000014"><a xlink:title=" ">
<path fill="none" stroke="#63b8ff" d="M407.02,-137.37C417.8,-128.53 434.95,-114.45 449.27,-102.71"/>
<polygon fill="#63b8ff" stroke="#63b8ff" points="451.79,-105.16 457.3,-96.12 447.35,-99.75 451.79,-105.16"/>
</a>
</g>
</g>
</g>
</svg>
