<?xml version="1.0" encoding="UTF-8" standalone="no"?>
<!DOCTYPE svg PUBLIC "-//W3C//DTD SVG 1.1//EN"
 "http://www.w3.org/Graphics/SVG/1.1/DTD/svg11.dtd">
<!-- Generated by graphviz version 2.43.0 (0)
 -->
<!-- Title: /home/runner/work/lethe/lethe/include/dem/particle_heat_transfer.h Pages: 1 -->
<svg width="1154pt" height="544pt"
 viewBox="0.00 0.00 1154.00 544.00" xmlns="http://www.w3.org/2000/svg" xmlns:xlink="http://www.w3.org/1999/xlink">
<g id="graph0" class="graph" transform="scale(1 1) rotate(0) translate(4 540)">
<title>/home/runner/work/lethe/lethe/include/dem/particle_heat_transfer.h</title>
<!-- Node1 -->
<g id="Node000001" class="node">
<title>Node1</title>
<g id="a_Node000001"><a xlink:title=" ">
<polygon fill="#999999" stroke="#666666" points="907,-536 760,-536 760,-495 907,-495 907,-536"/>
<text text-anchor="start" x="768" y="-524" font-family="Helvetica,sans-Serif" font-size="10.00">/home/runner/work/lethe</text>
<text text-anchor="start" x="768" y="-513" font-family="Helvetica,sans-Serif" font-size="10.00">/lethe/include/dem/particle</text>
<text text-anchor="middle" x="833.5" y="-502" font-family="Helvetica,sans-Serif" font-size="10.00">_heat_transfer.h</text>
</a>
</g>
</g>
<!-- Node2 -->
<g id="Node000002" class="node">
<title>Node2</title>
<g id="a_Node000002"><a xlink:href="particle__particle__contact__force_8h.html" target="_top" xlink:title=" ">
<polygon fill="white" stroke="#666666" points="743,-459 596,-459 596,-418 743,-418 743,-459"/>
<text text-anchor="start" x="604" y="-447" font-family="Helvetica,sans-Serif" font-size="10.00">/home/runner/work/lethe</text>
<text text-anchor="start" x="604" y="-436" font-family="Helvetica,sans-Serif" font-size="10.00">/lethe/include/dem/particle</text>
<text text-anchor="middle" x="669.5" y="-425" font-family="Helvetica,sans-Serif" font-size="10.00">_particle_contact_force.h</text>
</a>
</g>
</g>
<!-- Node1&#45;&gt;Node2 -->
<g id="edge1_Node000001_Node000002" class="edge">
<title>Node1&#45;&gt;Node2</title>
<g id="a_edge1_Node000001_Node000002"><a xlink:title=" ">
<path fill="none" stroke="#63b8ff" d="M781.51,-490.72C759.18,-480.51 733.42,-468.73 712.23,-459.04"/>
<polygon fill="#63b8ff" stroke="#63b8ff" points="780.29,-494.01 790.84,-494.99 783.2,-487.65 780.29,-494.01"/>
</a>
</g>
</g>
<!-- Node20 -->
<g id="Node000020" class="node">
<title>Node20</title>
<g id="a_Node000020"><a xlink:href="particle__heat__transfer_8cc.html" target="_top" xlink:title=" ">
<polygon fill="white" stroke="#666666" points="905.5,-459 761.5,-459 761.5,-418 905.5,-418 905.5,-459"/>
<text text-anchor="start" x="769.5" y="-447" font-family="Helvetica,sans-Serif" font-size="10.00">/home/runner/work/lethe</text>
<text text-anchor="start" x="769.5" y="-436" font-family="Helvetica,sans-Serif" font-size="10.00">/lethe/source/dem/particle</text>
<text text-anchor="middle" x="833.5" y="-425" font-family="Helvetica,sans-Serif" font-size="10.00">_heat_transfer.cc</text>
</a>
</g>
</g>
<!-- Node1&#45;&gt;Node20 -->
<g id="edge26_Node000001_Node000020" class="edge">
<title>Node1&#45;&gt;Node20</title>
<g id="a_edge26_Node000001_Node000020"><a xlink:title=" ">
<path fill="none" stroke="#63b8ff" d="M833.5,-484.69C833.5,-476.08 833.5,-466.9 833.5,-459.07"/>
<polygon fill="#63b8ff" stroke="#63b8ff" points="830,-484.79 833.5,-494.79 837,-484.79 830,-484.79"/>
</a>
</g>
</g>
<!-- Node21 -->
<g id="Node000021" class="node">
<title>Node21</title>
<g id="a_Node000021"><a xlink:href="particle__wall__contact__force_8cc.html" target="_top" xlink:title=" ">
<polygon fill="white" stroke="#666666" points="1067.5,-459 923.5,-459 923.5,-418 1067.5,-418 1067.5,-459"/>
<text text-anchor="start" x="931.5" y="-447" font-family="Helvetica,sans-Serif" font-size="10.00">/home/runner/work/lethe</text>
<text text-anchor="start" x="931.5" y="-436" font-family="Helvetica,sans-Serif" font-size="10.00">/lethe/source/dem/particle</text>
<text text-anchor="middle" x="995.5" y="-425" font-family="Helvetica,sans-Serif" font-size="10.00">_wall_contact_force.cc</text>
</a>
</g>
</g>
<!-- Node1&#45;&gt;Node21 -->
<g id="edge27_Node000001_Node000021" class="edge">
<title>Node1&#45;&gt;Node21</title>
<g id="a_edge27_Node000001_Node000021"><a xlink:title=" ">
<path fill="none" stroke="#63b8ff" d="M884.86,-490.72C906.91,-480.51 932.36,-468.73 953.29,-459.04"/>
<polygon fill="#63b8ff" stroke="#63b8ff" points="883.24,-487.61 875.64,-494.99 886.19,-493.97 883.24,-487.61"/>
</a>
</g>
</g>
<!-- Node3 -->
<g id="Node000003" class="node">
<title>Node3</title>
<g id="a_Node000003"><a xlink:href="dem_8h.html" target="_top" xlink:title=" ">
<polygon fill="white" stroke="#666666" points="423,-294 282,-294 282,-264 423,-264 423,-294"/>
<text text-anchor="start" x="290" y="-282" font-family="Helvetica,sans-Serif" font-size="10.00">/home/runner/work/lethe</text>
<text text-anchor="middle" x="352.5" y="-271" font-family="Helvetica,sans-Serif" font-size="10.00">/lethe/include/dem/dem.h</text>
</a>
</g>
</g>
<!-- Node2&#45;&gt;Node3 -->
<g id="edge2_Node000002_Node000003" class="edge">
<title>Node2&#45;&gt;Node3</title>
<g id="a_edge2_Node000002_Node000003"><a xlink:title=" ">
<path fill="none" stroke="#63b8ff" d="M620.88,-413.34C553.78,-380 434.94,-320.96 380.8,-294.06"/>
<polygon fill="#63b8ff" stroke="#63b8ff" points="619.48,-416.56 629.99,-417.87 622.59,-410.29 619.48,-416.56"/>
</a>
</g>
</g>
<!-- Node11 -->
<g id="Node000011" class="node">
<title>Node11</title>
<g id="a_Node000011"><a xlink:href="force__chains__visualization_8h.html" target="_top" xlink:title=" ">
<polygon fill="white" stroke="#666666" points="738,-382 601,-382 601,-341 738,-341 738,-382"/>
<text text-anchor="start" x="609" y="-370" font-family="Helvetica,sans-Serif" font-size="10.00">/home/runner/work/lethe</text>
<text text-anchor="start" x="609" y="-359" font-family="Helvetica,sans-Serif" font-size="10.00">/lethe/include/dem/force</text>
<text text-anchor="middle" x="669.5" y="-348" font-family="Helvetica,sans-Serif" font-size="10.00">_chains_visualization.h</text>
</a>
</g>
</g>
<!-- Node2&#45;&gt;Node11 -->
<g id="edge11_Node000002_Node000011" class="edge">
<title>Node2&#45;&gt;Node11</title>
<g id="a_edge11_Node000002_Node000011"><a xlink:title=" ">
<path fill="none" stroke="#63b8ff" d="M669.5,-407.69C669.5,-399.08 669.5,-389.9 669.5,-382.07"/>
<polygon fill="#63b8ff" stroke="#63b8ff" points="666,-407.79 669.5,-417.79 673,-407.79 666,-407.79"/>
</a>
</g>
</g>
<!-- Node12 -->
<g id="Node000012" class="node">
<title>Node12</title>
<g id="a_Node000012"><a xlink:href="set__particle__particle__contact__force__model_8h.html" target="_top" xlink:title=" ">
<polygon fill="white" stroke="#666666" points="642.5,-305 500.5,-305 500.5,-253 642.5,-253 642.5,-305"/>
<text text-anchor="start" x="508.5" y="-293" font-family="Helvetica,sans-Serif" font-size="10.00">/home/runner/work/lethe</text>
<text text-anchor="start" x="508.5" y="-282" font-family="Helvetica,sans-Serif" font-size="10.00">/lethe/include/dem/set</text>
<text text-anchor="start" x="508.5" y="-271" font-family="Helvetica,sans-Serif" font-size="10.00">_particle_particle_contact</text>
<text text-anchor="middle" x="571.5" y="-260" font-family="Helvetica,sans-Serif" font-size="10.00">_force_model.h</text>
</a>
</g>
</g>
<!-- Node2&#45;&gt;Node12 -->
<g id="edge20_Node000002_Node000012" class="edge">
<title>Node2&#45;&gt;Node12</title>
<g id="a_edge20_Node000002_Node000012"><a xlink:title=" ">
<path fill="none" stroke="#63b8ff" d="M621.96,-412.27C610.41,-404.05 599.19,-393.91 591.5,-382 576.63,-358.95 572.37,-327.31 571.36,-305.41"/>
<polygon fill="#63b8ff" stroke="#63b8ff" points="620.13,-415.25 630.38,-417.91 624.02,-409.44 620.13,-415.25"/>
</a>
</g>
</g>
<!-- Node15 -->
<g id="Node000015" class="node">
<title>Node15</title>
<g id="a_Node000015"><a xlink:href="ib__particles__dem_8h.html" target="_top" xlink:title=" ">
<polygon fill="white" stroke="#666666" points="942,-382 805,-382 805,-341 942,-341 942,-382"/>
<text text-anchor="start" x="813" y="-370" font-family="Helvetica,sans-Serif" font-size="10.00">/home/runner/work/lethe</text>
<text text-anchor="start" x="813" y="-359" font-family="Helvetica,sans-Serif" font-size="10.00">/lethe/include/fem&#45;dem</text>
<text text-anchor="middle" x="873.5" y="-348" font-family="Helvetica,sans-Serif" font-size="10.00">/ib_particles_dem.h</text>
</a>
</g>
</g>
<!-- Node2&#45;&gt;Node15 -->
<g id="edge21_Node000002_Node000015" class="edge">
<title>Node2&#45;&gt;Node15</title>
<g id="a_edge21_Node000002_Node000015"><a xlink:title=" ">
<path fill="none" stroke="#63b8ff" d="M731.95,-414.54C760.22,-404.15 793.29,-391.99 820.35,-382.04"/>
<polygon fill="#63b8ff" stroke="#63b8ff" points="730.74,-411.25 722.57,-417.99 733.16,-417.82 730.74,-411.25"/>
</a>
</g>
</g>
<!-- Node19 -->
<g id="Node000019" class="node">
<title>Node19</title>
<g id="a_Node000019"><a xlink:href="particle__particle__contact__force_8cc.html" target="_top" xlink:title=" ">
<polygon fill="white" stroke="#666666" points="1104.5,-382 960.5,-382 960.5,-341 1104.5,-341 1104.5,-382"/>
<text text-anchor="start" x="968.5" y="-370" font-family="Helvetica,sans-Serif" font-size="10.00">/home/runner/work/lethe</text>
<text text-anchor="start" x="968.5" y="-359" font-family="Helvetica,sans-Serif" font-size="10.00">/lethe/source/dem/particle</text>
<text text-anchor="middle" x="1032.5" y="-348" font-family="Helvetica,sans-Serif" font-size="10.00">_particle_contact_force.cc</text>
</a>
</g>
</g>
<!-- Node2&#45;&gt;Node19 -->
<g id="edge25_Node000002_Node000019" class="edge">
<title>Node2&#45;&gt;Node19</title>
<g id="a_edge25_Node000002_Node000019"><a xlink:title=" ">
<path fill="none" stroke="#63b8ff" d="M753.21,-417.91C842.2,-399.75 866.64,-399.87 951.5,-382 954.33,-381.4 957.21,-380.78 960.12,-380.14"/>
<polygon fill="#63b8ff" stroke="#63b8ff" points="752.31,-414.52 743.22,-419.97 753.72,-421.38 752.31,-414.52"/>
</a>
</g>
</g>
<!-- Node4 -->
<g id="Node000004" class="node">
<title>Node4</title>
<g id="a_Node000004"><a xlink:href="cfd__dem__coupling_8h.html" target="_top" xlink:title=" ">
<polygon fill="white" stroke="#666666" points="137,-123.5 0,-123.5 0,-82.5 137,-82.5 137,-123.5"/>
<text text-anchor="start" x="8" y="-111.5" font-family="Helvetica,sans-Serif" font-size="10.00">/home/runner/work/lethe</text>
<text text-anchor="start" x="8" y="-100.5" font-family="Helvetica,sans-Serif" font-size="10.00">/lethe/include/fem&#45;dem</text>
<text text-anchor="middle" x="68.5" y="-89.5" font-family="Helvetica,sans-Serif" font-size="10.00">/cfd_dem_coupling.h</text>
</a>
</g>
</g>
<!-- Node3&#45;&gt;Node4 -->
<g id="edge3_Node000003_Node000004" class="edge">
<title>Node3&#45;&gt;Node4</title>
<g id="a_edge3_Node000003_Node000004"><a xlink:title=" ">
<path fill="none" stroke="#63b8ff" d="M271.81,-273.69C188.77,-267.36 67.54,-252.22 38.5,-217 16.29,-190.06 37.47,-148.31 53.76,-123.81"/>
<polygon fill="#63b8ff" stroke="#63b8ff" points="271.76,-277.19 281.99,-274.43 272.27,-270.21 271.76,-277.19"/>
</a>
</g>
</g>
<!-- Node6 -->
<g id="Node000006" class="node">
<title>Node6</title>
<g id="a_Node000006"><a xlink:href="cfd__dem__coupling__matrix__free_8h.html" target="_top" xlink:title=" ">
<polygon fill="white" stroke="#666666" points="382,-211.5 203,-211.5 203,-170.5 382,-170.5 382,-211.5"/>
<text text-anchor="start" x="211" y="-199.5" font-family="Helvetica,sans-Serif" font-size="10.00">/home/runner/work/lethe</text>
<text text-anchor="start" x="211" y="-188.5" font-family="Helvetica,sans-Serif" font-size="10.00">/lethe/include/fem&#45;dem</text>
<text text-anchor="middle" x="292.5" y="-177.5" font-family="Helvetica,sans-Serif" font-size="10.00">/cfd_dem_coupling_matrix_free.h</text>
</a>
</g>
</g>
<!-- Node3&#45;&gt;Node6 -->
<g id="edge5_Node000003_Node000006" class="edge">
<title>Node3&#45;&gt;Node6</title>
<g id="a_edge5_Node000003_Node000006"><a xlink:title=" ">
<path fill="none" stroke="#63b8ff" d="M336.78,-255.46C327.3,-241.88 315.34,-224.73 306.24,-211.69"/>
<polygon fill="#63b8ff" stroke="#63b8ff" points="334,-257.6 342.59,-263.8 339.74,-253.59 334,-257.6"/>
</a>
</g>
</g>
<!-- Node8 -->
<g id="Node000008" class="node">
<title>Node8</title>
<g id="a_Node000008"><a xlink:href="fluid__dynamics__vans_8h.html" target="_top" xlink:title=" ">
<polygon fill="white" stroke="#666666" points="185,-211.5 48,-211.5 48,-170.5 185,-170.5 185,-211.5"/>
<text text-anchor="start" x="56" y="-199.5" font-family="Helvetica,sans-Serif" font-size="10.00">/home/runner/work/lethe</text>
<text text-anchor="start" x="56" y="-188.5" font-family="Helvetica,sans-Serif" font-size="10.00">/lethe/include/fem&#45;dem</text>
<text text-anchor="middle" x="116.5" y="-177.5" font-family="Helvetica,sans-Serif" font-size="10.00">/fluid_dynamics_vans.h</text>
</a>
</g>
</g>
<!-- Node3&#45;&gt;Node8 -->
<g id="edge7_Node000003_Node000008" class="edge">
<title>Node3&#45;&gt;Node8</title>
<g id="a_edge7_Node000003_Node000008"><a xlink:title=" ">
<path fill="none" stroke="#63b8ff" d="M304.52,-260.52C265.61,-246.34 210.76,-226.35 170.35,-211.62"/>
<polygon fill="#63b8ff" stroke="#63b8ff" points="303.46,-263.86 314.06,-263.99 305.86,-257.28 303.46,-263.86"/>
</a>
</g>
</g>
<!-- Node10 -->
<g id="Node000010" class="node">
<title>Node10</title>
<g id="a_Node000010"><a xlink:href="dem_8cc.html" target="_top" xlink:title=" ">
<polygon fill="white" stroke="#666666" points="543,-206 400,-206 400,-176 543,-176 543,-206"/>
<text text-anchor="start" x="408" y="-194" font-family="Helvetica,sans-Serif" font-size="10.00">/home/runner/work/lethe</text>
<text text-anchor="middle" x="471.5" y="-183" font-family="Helvetica,sans-Serif" font-size="10.00">/lethe/source/dem/dem.cc</text>
</a>
</g>
</g>
<!-- Node3&#45;&gt;Node10 -->
<g id="edge10_Node000003_Node000010" class="edge">
<title>Node3&#45;&gt;Node10</title>
<g id="a_edge10_Node000003_Node000010"><a xlink:title=" ">
<path fill="none" stroke="#63b8ff" d="M380.19,-257.99C402.26,-242.04 432.59,-220.12 452.12,-206"/>
<polygon fill="#63b8ff" stroke="#63b8ff" points="377.94,-255.3 371.88,-263.99 382.04,-260.97 377.94,-255.3"/>
</a>
</g>
</g>
<!-- Node5 -->
<g id="Node000005" class="node">
<title>Node5</title>
<g id="a_Node000005"><a xlink:href="cfd__dem__coupling_8cc.html" target="_top" xlink:title=" ">
<polygon fill="white" stroke="#666666" points="407,-41 270,-41 270,0 407,0 407,-41"/>
<text text-anchor="start" x="278" y="-29" font-family="Helvetica,sans-Serif" font-size="10.00">/home/runner/work/lethe</text>
<text text-anchor="start" x="278" y="-18" font-family="Helvetica,sans-Serif" font-size="10.00">/lethe/source/fem&#45;dem</text>
<text text-anchor="middle" x="338.5" y="-7" font-family="Helvetica,sans-Serif" font-size="10.00">/cfd_dem_coupling.cc</text>
</a>
</g>
</g>
<!-- Node4&#45;&gt;Node5 -->
<g id="edge4_Node000004_Node000005" class="edge">
<title>Node4&#45;&gt;Node5</title>
<g id="a_edge4_Node000004_Node000005"><a xlink:title=" ">
<path fill="none" stroke="#63b8ff" d="M137.71,-79.41C140.34,-78.59 142.94,-77.78 145.5,-77 186.51,-64.45 232.66,-51.15 269.55,-40.71"/>
<polygon fill="#63b8ff" stroke="#63b8ff" points="136.62,-76.08 128.13,-82.42 138.72,-82.76 136.62,-76.08"/>
</a>
</g>
</g>
<!-- Node7 -->
<g id="Node000007" class="node">
<title>Node7</title>
<g id="a_Node000007"><a xlink:href="cfd__dem__coupling__matrix__free_8cc.html" target="_top" xlink:title=" ">
<polygon fill="white" stroke="#666666" points="519.5,-129 373.5,-129 373.5,-77 519.5,-77 519.5,-129"/>
<text text-anchor="start" x="381.5" y="-117" font-family="Helvetica,sans-Serif" font-size="10.00">/home/runner/work/lethe</text>
<text text-anchor="start" x="381.5" y="-106" font-family="Helvetica,sans-Serif" font-size="10.00">/lethe/source/fem&#45;dem</text>
<text text-anchor="start" x="381.5" y="-95" font-family="Helvetica,sans-Serif" font-size="10.00">/cfd_dem_coupling_matrix</text>
<text text-anchor="middle" x="446.5" y="-84" font-family="Helvetica,sans-Serif" font-size="10.00">_free.cc</text>
</a>
</g>
</g>
<!-- Node6&#45;&gt;Node7 -->
<g id="edge6_Node000006_Node000007" class="edge">
<title>Node6&#45;&gt;Node7</title>
<g id="a_edge6_Node000006_Node000007"><a xlink:title=" ">
<path fill="none" stroke="#63b8ff" d="M336.22,-165.58C356.63,-154.19 380.89,-140.64 401.45,-129.16"/>
<polygon fill="#63b8ff" stroke="#63b8ff" points="334.47,-162.55 327.44,-170.49 337.88,-168.67 334.47,-162.55"/>
</a>
</g>
</g>
<!-- Node8&#45;&gt;Node4 -->
<g id="edge8_Node000008_Node000004" class="edge">
<title>Node8&#45;&gt;Node4</title>
<g id="a_edge8_Node000008_Node000004"><a xlink:title=" ">
<path fill="none" stroke="#63b8ff" d="M100.57,-161.46C93.67,-149.09 85.75,-134.91 79.51,-123.74"/>
<polygon fill="#63b8ff" stroke="#63b8ff" points="97.68,-163.46 105.61,-170.49 103.79,-160.05 97.68,-163.46"/>
</a>
</g>
</g>
<!-- Node9 -->
<g id="Node000009" class="node">
<title>Node9</title>
<g id="a_Node000009"><a xlink:href="fluid__dynamics__vans_8cc.html" target="_top" xlink:title=" ">
<polygon fill="white" stroke="#666666" points="292,-123.5 155,-123.5 155,-82.5 292,-82.5 292,-123.5"/>
<text text-anchor="start" x="163" y="-111.5" font-family="Helvetica,sans-Serif" font-size="10.00">/home/runner/work/lethe</text>
<text text-anchor="start" x="163" y="-100.5" font-family="Helvetica,sans-Serif" font-size="10.00">/lethe/source/fem&#45;dem</text>
<text text-anchor="middle" x="223.5" y="-89.5" font-family="Helvetica,sans-Serif" font-size="10.00">/fluid_dynamics_vans.cc</text>
</a>
</g>
</g>
<!-- Node8&#45;&gt;Node9 -->
<g id="edge9_Node000008_Node000009" class="edge">
<title>Node8&#45;&gt;Node9</title>
<g id="a_edge9_Node000008_Node000009"><a xlink:title=" ">
<path fill="none" stroke="#63b8ff" d="M148.88,-163.98C164.96,-151.05 184.09,-135.68 198.95,-123.74"/>
<polygon fill="#63b8ff" stroke="#63b8ff" points="146.38,-161.49 140.78,-170.49 150.77,-166.95 146.38,-161.49"/>
</a>
</g>
</g>
<!-- Node11&#45;&gt;Node3 -->
<g id="edge12_Node000011_Node000003" class="edge">
<title>Node11&#45;&gt;Node3</title>
<g id="a_edge12_Node000011_Node000003"><a xlink:title=" ">
<path fill="none" stroke="#63b8ff" d="M590.67,-340.48C533.75,-326.03 458.3,-306.87 407.72,-294.02"/>
<polygon fill="#63b8ff" stroke="#63b8ff" points="590.16,-343.96 600.72,-343.03 591.88,-337.18 590.16,-343.96"/>
</a>
</g>
</g>
<!-- Node11&#45;&gt;Node12 -->
<g id="edge13_Node000011_Node000012" class="edge">
<title>Node11&#45;&gt;Node12</title>
<g id="a_edge13_Node000011_Node000012"><a xlink:title=" ">
<path fill="none" stroke="#63b8ff" d="M637.56,-334.26C626.23,-324.96 613.5,-314.5 602.27,-305.28"/>
<polygon fill="#63b8ff" stroke="#63b8ff" points="635.58,-337.16 645.53,-340.81 640.02,-331.76 635.58,-337.16"/>
</a>
</g>
</g>
<!-- Node13 -->
<g id="Node000013" class="node">
<title>Node13</title>
<g id="a_Node000013"><a xlink:href="set__particle__particle__contact__force__model_8cc.html" target="_top" xlink:title=" ">
<polygon fill="white" stroke="#666666" points="779.5,-217 637.5,-217 637.5,-165 779.5,-165 779.5,-217"/>
<text text-anchor="start" x="645.5" y="-205" font-family="Helvetica,sans-Serif" font-size="10.00">/home/runner/work/lethe</text>
<text text-anchor="start" x="645.5" y="-194" font-family="Helvetica,sans-Serif" font-size="10.00">/lethe/source/dem/set</text>
<text text-anchor="start" x="645.5" y="-183" font-family="Helvetica,sans-Serif" font-size="10.00">_particle_particle_contact</text>
<text text-anchor="middle" x="708.5" y="-172" font-family="Helvetica,sans-Serif" font-size="10.00">_force_model.cc</text>
</a>
</g>
</g>
<!-- Node11&#45;&gt;Node13 -->
<g id="edge19_Node000011_Node000013" class="edge">
<title>Node11&#45;&gt;Node13</title>
<g id="a_edge19_Node000011_Node000013"><a xlink:title=" ">
<path fill="none" stroke="#63b8ff" d="M674.02,-331.01C677.59,-309.29 683.02,-279.13 689.5,-253 692.46,-241.05 696.43,-227.99 699.97,-217.04"/>
<polygon fill="#63b8ff" stroke="#63b8ff" points="670.56,-330.5 672.43,-340.93 677.47,-331.61 670.56,-330.5"/>
</a>
</g>
</g>
<!-- Node14 -->
<g id="Node000014" class="node">
<title>Node14</title>
<g id="a_Node000014"><a xlink:href="force__chains__visualization_8cc.html" target="_top" xlink:title=" ">
<polygon fill="white" stroke="#666666" points="836,-299.5 699,-299.5 699,-258.5 836,-258.5 836,-299.5"/>
<text text-anchor="start" x="707" y="-287.5" font-family="Helvetica,sans-Serif" font-size="10.00">/home/runner/work/lethe</text>
<text text-anchor="start" x="707" y="-276.5" font-family="Helvetica,sans-Serif" font-size="10.00">/lethe/source/dem/force</text>
<text text-anchor="middle" x="767.5" y="-265.5" font-family="Helvetica,sans-Serif" font-size="10.00">_chains_visualization.cc</text>
</a>
</g>
</g>
<!-- Node11&#45;&gt;Node14 -->
<g id="edge18_Node000011_Node000014" class="edge">
<title>Node11&#45;&gt;Node14</title>
<g id="a_edge18_Node000011_Node000014"><a xlink:title=" ">
<path fill="none" stroke="#63b8ff" d="M701.26,-334.41C714.96,-323.15 730.72,-310.21 743.43,-299.77"/>
<polygon fill="#63b8ff" stroke="#63b8ff" points="698.98,-331.76 693.47,-340.81 703.42,-337.16 698.98,-331.76"/>
</a>
</g>
</g>
<!-- Node12&#45;&gt;Node5 -->
<g id="edge16_Node000012_Node000005" class="edge">
<title>Node12&#45;&gt;Node5</title>
<g id="a_edge16_Node000012_Node000005"><a xlink:title=" ">
<path fill="none" stroke="#63b8ff" d="M574.22,-242.55C574.75,-234.18 575.23,-225.28 575.5,-217 577.65,-151.4 579.44,-118.38 528.5,-77 494.23,-49.16 446.49,-35.28 407.44,-28.37"/>
<polygon fill="#63b8ff" stroke="#63b8ff" points="570.71,-242.58 573.52,-252.79 577.69,-243.05 570.71,-242.58"/>
</a>
</g>
</g>
<!-- Node12&#45;&gt;Node7 -->
<g id="edge17_Node000012_Node000007" class="edge">
<title>Node12&#45;&gt;Node7</title>
<g id="a_edge17_Node000012_Node000007"><a xlink:title=" ">
<path fill="none" stroke="#63b8ff" d="M572.72,-242.73C571.86,-218.84 567.3,-187.62 551.5,-165 541.06,-150.05 525.68,-138.24 509.9,-129.15"/>
<polygon fill="#63b8ff" stroke="#63b8ff" points="569.22,-242.87 572.88,-252.81 576.22,-242.75 569.22,-242.87"/>
</a>
</g>
</g>
<!-- Node12&#45;&gt;Node10 -->
<g id="edge14_Node000012_Node000010" class="edge">
<title>Node12&#45;&gt;Node10</title>
<g id="a_edge14_Node000012_Node000010"><a xlink:title=" ">
<path fill="none" stroke="#63b8ff" d="M534.6,-246.26C518.5,-232.42 500.46,-216.91 487.81,-206.03"/>
<polygon fill="#63b8ff" stroke="#63b8ff" points="532.44,-249.03 542.31,-252.89 537.01,-243.72 532.44,-249.03"/>
</a>
</g>
</g>
<!-- Node12&#45;&gt;Node13 -->
<g id="edge15_Node000012_Node000013" class="edge">
<title>Node12&#45;&gt;Node13</title>
<g id="a_edge15_Node000012_Node000013"><a xlink:title=" ">
<path fill="none" stroke="#63b8ff" d="M620.07,-247.51C635.83,-237.62 653.13,-226.76 668.22,-217.29"/>
<polygon fill="#63b8ff" stroke="#63b8ff" points="618.1,-244.61 611.49,-252.89 621.82,-250.54 618.1,-244.61"/>
</a>
</g>
</g>
<!-- Node16 -->
<g id="Node000016" class="node">
<title>Node16</title>
<g id="a_Node000016"><a xlink:href="fluid__dynamics__sharp_8h.html" target="_top" xlink:title=" ">
<polygon fill="white" stroke="#666666" points="991,-299.5 854,-299.5 854,-258.5 991,-258.5 991,-299.5"/>
<text text-anchor="start" x="862" y="-287.5" font-family="Helvetica,sans-Serif" font-size="10.00">/home/runner/work/lethe</text>
<text text-anchor="start" x="862" y="-276.5" font-family="Helvetica,sans-Serif" font-size="10.00">/lethe/include/fem&#45;dem</text>
<text text-anchor="middle" x="922.5" y="-265.5" font-family="Helvetica,sans-Serif" font-size="10.00">/fluid_dynamics_sharp.h</text>
</a>
</g>
</g>
<!-- Node15&#45;&gt;Node16 -->
<g id="edge22_Node000015_Node000016" class="edge">
<title>Node15&#45;&gt;Node16</title>
<g id="a_edge22_Node000015_Node000016"><a xlink:title=" ">
<path fill="none" stroke="#63b8ff" d="M890.86,-331.98C897.37,-321.29 904.61,-309.38 910.53,-299.67"/>
<polygon fill="#63b8ff" stroke="#63b8ff" points="887.82,-330.24 885.61,-340.6 893.8,-333.88 887.82,-330.24"/>
</a>
</g>
</g>
<!-- Node18 -->
<g id="Node000018" class="node">
<title>Node18</title>
<g id="a_Node000018"><a xlink:href="ib__particles__dem_8cc.html" target="_top" xlink:title=" ">
<polygon fill="white" stroke="#666666" points="1146,-299.5 1009,-299.5 1009,-258.5 1146,-258.5 1146,-299.5"/>
<text text-anchor="start" x="1017" y="-287.5" font-family="Helvetica,sans-Serif" font-size="10.00">/home/runner/work/lethe</text>
<text text-anchor="start" x="1017" y="-276.5" font-family="Helvetica,sans-Serif" font-size="10.00">/lethe/source/fem&#45;dem</text>
<text text-anchor="middle" x="1077.5" y="-265.5" font-family="Helvetica,sans-Serif" font-size="10.00">/ib_particles_dem.cc</text>
</a>
</g>
</g>
<!-- Node15&#45;&gt;Node18 -->
<g id="edge24_Node000015_Node000018" class="edge">
<title>Node15&#45;&gt;Node18</title>
<g id="a_edge24_Node000015_Node000018"><a xlink:title=" ">
<path fill="none" stroke="#63b8ff" d="M932.72,-337.13C962.94,-325.21 999.28,-310.87 1027.99,-299.54"/>
<polygon fill="#63b8ff" stroke="#63b8ff" points="931.16,-333.98 923.14,-340.91 933.73,-340.5 931.16,-333.98"/>
</a>
</g>
</g>
<!-- Node17 -->
<g id="Node000017" class="node">
<title>Node17</title>
<g id="a_Node000017"><a xlink:href="fluid__dynamics__sharp_8cc.html" target="_top" xlink:title=" ">
<polygon fill="white" stroke="#666666" points="992,-211.5 853,-211.5 853,-170.5 992,-170.5 992,-211.5"/>
<text text-anchor="start" x="861" y="-199.5" font-family="Helvetica,sans-Serif" font-size="10.00">/home/runner/work/lethe</text>
<text text-anchor="start" x="861" y="-188.5" font-family="Helvetica,sans-Serif" font-size="10.00">/lethe/source/fem&#45;dem</text>
<text text-anchor="middle" x="922.5" y="-177.5" font-family="Helvetica,sans-Serif" font-size="10.00">/fluid_dynamics_sharp.cc</text>
</a>
</g>
</g>
<!-- Node16&#45;&gt;Node17 -->
<g id="edge23_Node000016_Node000017" class="edge">
<title>Node16&#45;&gt;Node17</title>
<g id="a_edge23_Node000016_Node000017"><a xlink:title=" ">
<path fill="none" stroke="#63b8ff" d="M922.5,-248.36C922.5,-236.26 922.5,-222.58 922.5,-211.74"/>
<polygon fill="#63b8ff" stroke="#63b8ff" points="919,-248.49 922.5,-258.49 926,-248.49 919,-248.49"/>
</a>
</g>
</g>
</g>
</svg>
