<?xml version="1.0" encoding="UTF-8" standalone="no"?>
<!DOCTYPE svg PUBLIC "-//W3C//DTD SVG 1.1//EN"
 "http://www.w3.org/Graphics/SVG/1.1/DTD/svg11.dtd">
<!-- Generated by graphviz version 2.43.0 (0)
 -->
<!-- Title: /home/runner/work/lethe/lethe/include/dem/particle_particle_broad_search.h Pages: 1 -->
<svg width="1537pt" height="544pt"
 viewBox="0.00 0.00 1537.28 544.00" xmlns="http://www.w3.org/2000/svg" xmlns:xlink="http://www.w3.org/1999/xlink">
<g id="graph0" class="graph" transform="scale(1 1) rotate(0) translate(4 540)">
<title>/home/runner/work/lethe/lethe/include/dem/particle_particle_broad_search.h</title>
<!-- Node1 -->
<g id="Node000001" class="node">
<title>Node1</title>
<g id="a_Node000001"><a xlink:title=" ">
<polygon fill="#999999" stroke="#666666" points="941.78,-536 794.78,-536 794.78,-495 941.78,-495 941.78,-536"/>
<text text-anchor="start" x="802.78" y="-524" font-family="Helvetica,sans-Serif" font-size="10.00">/home/runner/work/lethe</text>
<text text-anchor="start" x="802.78" y="-513" font-family="Helvetica,sans-Serif" font-size="10.00">/lethe/include/dem/particle</text>
<text text-anchor="middle" x="868.28" y="-502" font-family="Helvetica,sans-Serif" font-size="10.00">_particle_broad_search.h</text>
</a>
</g>
</g>
<!-- Node2 -->
<g id="Node000002" class="node">
<title>Node2</title>
<g id="a_Node000002"><a xlink:href="dem__contact__manager_8h.html" target="_top" xlink:title=" ">
<polygon fill="white" stroke="#666666" points="888.78,-459 751.78,-459 751.78,-418 888.78,-418 888.78,-459"/>
<text text-anchor="start" x="759.78" y="-447" font-family="Helvetica,sans-Serif" font-size="10.00">/home/runner/work/lethe</text>
<text text-anchor="start" x="759.78" y="-436" font-family="Helvetica,sans-Serif" font-size="10.00">/lethe/include/dem/dem</text>
<text text-anchor="middle" x="820.28" y="-425" font-family="Helvetica,sans-Serif" font-size="10.00">_contact_manager.h</text>
</a>
</g>
</g>
<!-- Node1&#45;&gt;Node2 -->
<g id="edge1_Node000001_Node000002" class="edge">
<title>Node1&#45;&gt;Node2</title>
<g id="a_edge1_Node000001_Node000002"><a xlink:title=" ">
<path fill="none" stroke="#63b8ff" d="M850.11,-486.11C844.34,-477.09 838.09,-467.33 832.81,-459.07"/>
<polygon fill="#63b8ff" stroke="#63b8ff" points="847.33,-488.26 855.67,-494.79 853.22,-484.49 847.33,-488.26"/>
</a>
</g>
</g>
<!-- Node28 -->
<g id="Node000028" class="node">
<title>Node28</title>
<g id="a_Node000028"><a xlink:href="particle__particle__broad__search_8cc.html" target="_top" xlink:title=" ">
<polygon fill="white" stroke="#666666" points="1529.28,-382 1385.28,-382 1385.28,-341 1529.28,-341 1529.28,-382"/>
<text text-anchor="start" x="1393.28" y="-370" font-family="Helvetica,sans-Serif" font-size="10.00">/home/runner/work/lethe</text>
<text text-anchor="start" x="1393.28" y="-359" font-family="Helvetica,sans-Serif" font-size="10.00">/lethe/source/dem/particle</text>
<text text-anchor="middle" x="1457.28" y="-348" font-family="Helvetica,sans-Serif" font-size="10.00">_particle_broad_search.cc</text>
</a>
</g>
</g>
<!-- Node1&#45;&gt;Node28 -->
<g id="edge42_Node000001_Node000028" class="edge">
<title>Node1&#45;&gt;Node28</title>
<g id="a_edge42_Node000001_Node000028"><a xlink:title=" ">
<path fill="none" stroke="#63b8ff" d="M951.88,-492.93C1067.76,-463.02 1275.28,-409.47 1384.88,-381.18"/>
<polygon fill="#63b8ff" stroke="#63b8ff" points="950.79,-489.59 941.98,-495.48 952.54,-496.37 950.79,-489.59"/>
</a>
</g>
</g>
<!-- Node3 -->
<g id="Node000003" class="node">
<title>Node3</title>
<g id="a_Node000003"><a xlink:href="dem_8h.html" target="_top" xlink:title=" ">
<polygon fill="white" stroke="#666666" points="534.78,-294 393.78,-294 393.78,-264 534.78,-264 534.78,-294"/>
<text text-anchor="start" x="401.78" y="-282" font-family="Helvetica,sans-Serif" font-size="10.00">/home/runner/work/lethe</text>
<text text-anchor="middle" x="464.28" y="-271" font-family="Helvetica,sans-Serif" font-size="10.00">/lethe/include/dem/dem.h</text>
</a>
</g>
</g>
<!-- Node2&#45;&gt;Node3 -->
<g id="edge2_Node000002_Node000003" class="edge">
<title>Node2&#45;&gt;Node3</title>
<g id="a_edge2_Node000002_Node000003"><a xlink:title=" ">
<path fill="none" stroke="#63b8ff" d="M741.34,-436.23C682.78,-432 603.06,-419.04 543.28,-382 508.06,-360.17 482.48,-316.63 471.01,-294.15"/>
<polygon fill="#63b8ff" stroke="#63b8ff" points="741.44,-439.75 751.65,-436.91 741.9,-432.76 741.44,-439.75"/>
</a>
</g>
</g>
<!-- Node4 -->
<g id="Node000004" class="node">
<title>Node4</title>
<g id="a_Node000004"><a xlink:href="cfd__dem__coupling_8h.html" target="_top" xlink:title=" ">
<polygon fill="white" stroke="#666666" points="839.78,-123.5 702.78,-123.5 702.78,-82.5 839.78,-82.5 839.78,-123.5"/>
<text text-anchor="start" x="710.78" y="-111.5" font-family="Helvetica,sans-Serif" font-size="10.00">/home/runner/work/lethe</text>
<text text-anchor="start" x="710.78" y="-100.5" font-family="Helvetica,sans-Serif" font-size="10.00">/lethe/include/fem&#45;dem</text>
<text text-anchor="middle" x="771.28" y="-89.5" font-family="Helvetica,sans-Serif" font-size="10.00">/cfd_dem_coupling.h</text>
</a>
</g>
</g>
<!-- Node2&#45;&gt;Node4 -->
<g id="edge37_Node000002_Node000004" class="edge">
<title>Node2&#45;&gt;Node4</title>
<g id="a_edge37_Node000002_Node000004"><a xlink:title=" ">
<path fill="none" stroke="#63b8ff" d="M766,-412.36C754.49,-404.35 743.85,-394.3 737.28,-382 710.26,-331.43 720.14,-307.71 737.28,-253 743.1,-234.41 755.72,-235.34 762.28,-217 773.41,-185.87 773.8,-146.93 772.76,-123.84"/>
<polygon fill="#63b8ff" stroke="#63b8ff" points="764.18,-415.35 774.48,-417.82 767.97,-409.46 764.18,-415.35"/>
</a>
</g>
</g>
<!-- Node6 -->
<g id="Node000006" class="node">
<title>Node6</title>
<g id="a_Node000006"><a xlink:href="cfd__dem__coupling__matrix__free_8h.html" target="_top" xlink:title=" ">
<polygon fill="white" stroke="#666666" points="368.78,-211.5 189.78,-211.5 189.78,-170.5 368.78,-170.5 368.78,-211.5"/>
<text text-anchor="start" x="197.78" y="-199.5" font-family="Helvetica,sans-Serif" font-size="10.00">/home/runner/work/lethe</text>
<text text-anchor="start" x="197.78" y="-188.5" font-family="Helvetica,sans-Serif" font-size="10.00">/lethe/include/fem&#45;dem</text>
<text text-anchor="middle" x="279.28" y="-177.5" font-family="Helvetica,sans-Serif" font-size="10.00">/cfd_dem_coupling_matrix_free.h</text>
</a>
</g>
</g>
<!-- Node2&#45;&gt;Node6 -->
<g id="edge38_Node000002_Node000006" class="edge">
<title>Node2&#45;&gt;Node6</title>
<g id="a_edge38_Node000002_Node000006"><a xlink:title=" ">
<path fill="none" stroke="#63b8ff" d="M741.4,-433.35C674.38,-427.64 576.68,-414.1 497.28,-382 440.93,-359.22 428.22,-346.99 384.28,-305 363.39,-285.04 364.63,-274.45 345.28,-253 332,-238.29 315.66,-223.16 302.55,-211.65"/>
<polygon fill="#63b8ff" stroke="#63b8ff" points="741.23,-436.84 751.48,-434.16 741.79,-429.87 741.23,-436.84"/>
</a>
</g>
</g>
<!-- Node11 -->
<g id="Node000011" class="node">
<title>Node11</title>
<g id="a_Node000011"><a xlink:href="force__chains__visualization_8h.html" target="_top" xlink:title=" ">
<polygon fill="white" stroke="#666666" points="336.78,-382 199.78,-382 199.78,-341 336.78,-341 336.78,-382"/>
<text text-anchor="start" x="207.78" y="-370" font-family="Helvetica,sans-Serif" font-size="10.00">/home/runner/work/lethe</text>
<text text-anchor="start" x="207.78" y="-359" font-family="Helvetica,sans-Serif" font-size="10.00">/lethe/include/dem/force</text>
<text text-anchor="middle" x="268.28" y="-348" font-family="Helvetica,sans-Serif" font-size="10.00">_chains_visualization.h</text>
</a>
</g>
</g>
<!-- Node2&#45;&gt;Node11 -->
<g id="edge11_Node000002_Node000011" class="edge">
<title>Node2&#45;&gt;Node11</title>
<g id="a_edge11_Node000002_Node000011"><a xlink:title=" ">
<path fill="none" stroke="#63b8ff" d="M741.34,-430.9C647.81,-422.45 487.48,-405.98 351.28,-382 346.61,-381.18 341.82,-380.26 337,-379.28"/>
<polygon fill="#63b8ff" stroke="#63b8ff" points="741.3,-434.41 751.57,-431.82 741.93,-427.44 741.3,-434.41"/>
</a>
</g>
</g>
<!-- Node15 -->
<g id="Node000015" class="node">
<title>Node15</title>
<g id="a_Node000015"><a xlink:href="log__collision__data_8h.html" target="_top" xlink:title=" ">
<polygon fill="white" stroke="#666666" points="689.78,-382 552.78,-382 552.78,-341 689.78,-341 689.78,-382"/>
<text text-anchor="start" x="560.78" y="-370" font-family="Helvetica,sans-Serif" font-size="10.00">/home/runner/work/lethe</text>
<text text-anchor="start" x="560.78" y="-359" font-family="Helvetica,sans-Serif" font-size="10.00">/lethe/include/dem/log</text>
<text text-anchor="middle" x="621.28" y="-348" font-family="Helvetica,sans-Serif" font-size="10.00">_collision_data.h</text>
</a>
</g>
</g>
<!-- Node2&#45;&gt;Node15 -->
<g id="edge20_Node000002_Node000015" class="edge">
<title>Node2&#45;&gt;Node15</title>
<g id="a_edge20_Node000002_Node000015"><a xlink:title=" ">
<path fill="none" stroke="#63b8ff" d="M759,-414.4C731.5,-404.04 699.41,-391.95 673.13,-382.04"/>
<polygon fill="#63b8ff" stroke="#63b8ff" points="757.92,-417.74 768.51,-417.99 760.39,-411.19 757.92,-417.74"/>
</a>
</g>
</g>
<!-- Node17 -->
<g id="Node000017" class="node">
<title>Node17</title>
<g id="a_Node000017"><a xlink:href="particle__wall__contact__force_8h.html" target="_top" xlink:title=" ">
<polygon fill="white" stroke="#666666" points="893.78,-382 746.78,-382 746.78,-341 893.78,-341 893.78,-382"/>
<text text-anchor="start" x="754.78" y="-370" font-family="Helvetica,sans-Serif" font-size="10.00">/home/runner/work/lethe</text>
<text text-anchor="start" x="754.78" y="-359" font-family="Helvetica,sans-Serif" font-size="10.00">/lethe/include/dem/particle</text>
<text text-anchor="middle" x="820.28" y="-348" font-family="Helvetica,sans-Serif" font-size="10.00">_wall_contact_force.h</text>
</a>
</g>
</g>
<!-- Node2&#45;&gt;Node17 -->
<g id="edge23_Node000002_Node000017" class="edge">
<title>Node2&#45;&gt;Node17</title>
<g id="a_edge23_Node000002_Node000017"><a xlink:title=" ">
<path fill="none" stroke="#63b8ff" d="M820.28,-407.69C820.28,-399.08 820.28,-389.9 820.28,-382.07"/>
<polygon fill="#63b8ff" stroke="#63b8ff" points="816.78,-407.79 820.28,-417.79 823.78,-407.79 816.78,-407.79"/>
</a>
</g>
</g>
<!-- Node25 -->
<g id="Node000025" class="node">
<title>Node25</title>
<g id="a_Node000025"><a xlink:href="ray__tracing_8h.html" target="_top" xlink:title=" ">
<polygon fill="white" stroke="#666666" points="1366.78,-382 1229.78,-382 1229.78,-341 1366.78,-341 1366.78,-382"/>
<text text-anchor="start" x="1237.78" y="-370" font-family="Helvetica,sans-Serif" font-size="10.00">/home/runner/work/lethe</text>
<text text-anchor="start" x="1237.78" y="-359" font-family="Helvetica,sans-Serif" font-size="10.00">/lethe/include/dem/ray</text>
<text text-anchor="middle" x="1298.28" y="-348" font-family="Helvetica,sans-Serif" font-size="10.00">_tracing.h</text>
</a>
</g>
</g>
<!-- Node2&#45;&gt;Node25 -->
<g id="edge35_Node000002_Node000025" class="edge">
<title>Node2&#45;&gt;Node25</title>
<g id="a_edge35_Node000002_Node000025"><a xlink:title=" ">
<path fill="none" stroke="#63b8ff" d="M899.06,-429.09C980.03,-419.86 1109.55,-403.46 1220.28,-382 1223.29,-381.42 1226.37,-380.79 1229.46,-380.13"/>
<polygon fill="#63b8ff" stroke="#63b8ff" points="898.49,-425.64 888.95,-430.24 899.28,-432.59 898.49,-425.64"/>
</a>
</g>
</g>
<!-- Node27 -->
<g id="Node000027" class="node">
<title>Node27</title>
<g id="a_Node000027"><a xlink:href="dem__contact__manager_8cc.html" target="_top" xlink:title=" ">
<polygon fill="white" stroke="#666666" points="1048.78,-382 911.78,-382 911.78,-341 1048.78,-341 1048.78,-382"/>
<text text-anchor="start" x="919.78" y="-370" font-family="Helvetica,sans-Serif" font-size="10.00">/home/runner/work/lethe</text>
<text text-anchor="start" x="919.78" y="-359" font-family="Helvetica,sans-Serif" font-size="10.00">/lethe/source/dem/dem</text>
<text text-anchor="middle" x="980.28" y="-348" font-family="Helvetica,sans-Serif" font-size="10.00">_contact_manager.cc</text>
</a>
</g>
</g>
<!-- Node2&#45;&gt;Node27 -->
<g id="edge39_Node000002_Node000027" class="edge">
<title>Node2&#45;&gt;Node27</title>
<g id="a_edge39_Node000002_Node000027"><a xlink:title=" ">
<path fill="none" stroke="#63b8ff" d="M871,-413.72C892.78,-403.51 917.92,-391.73 938.59,-382.04"/>
<polygon fill="#63b8ff" stroke="#63b8ff" points="869.47,-410.58 861.9,-417.99 872.44,-416.92 869.47,-410.58"/>
</a>
</g>
</g>
<!-- Node2&#45;&gt;Node28 -->
<g id="edge40_Node000002_Node000028" class="edge">
<title>Node2&#45;&gt;Node28</title>
<g id="a_edge40_Node000002_Node000028"><a xlink:title=" ">
<path fill="none" stroke="#63b8ff" d="M899.19,-432.94C1007.2,-425.95 1206.91,-410.31 1375.28,-382 1378.45,-381.47 1381.69,-380.88 1384.95,-380.25"/>
<polygon fill="#63b8ff" stroke="#63b8ff" points="898.78,-429.46 889.02,-433.59 899.23,-436.45 898.78,-429.46"/>
</a>
</g>
</g>
<!-- Node29 -->
<g id="Node000029" class="node">
<title>Node29</title>
<g id="a_Node000029"><a xlink:href="particle__particle__fine__search_8cc.html" target="_top" xlink:title=" ">
<polygon fill="white" stroke="#666666" points="1211.28,-382 1067.28,-382 1067.28,-341 1211.28,-341 1211.28,-382"/>
<text text-anchor="start" x="1075.28" y="-370" font-family="Helvetica,sans-Serif" font-size="10.00">/home/runner/work/lethe</text>
<text text-anchor="start" x="1075.28" y="-359" font-family="Helvetica,sans-Serif" font-size="10.00">/lethe/source/dem/particle</text>
<text text-anchor="middle" x="1139.28" y="-348" font-family="Helvetica,sans-Serif" font-size="10.00">_particle_fine_search.cc</text>
</a>
</g>
</g>
<!-- Node2&#45;&gt;Node29 -->
<g id="edge41_Node000002_Node000029" class="edge">
<title>Node2&#45;&gt;Node29</title>
<g id="a_edge41_Node000002_Node000029"><a xlink:title=" ">
<path fill="none" stroke="#63b8ff" d="M898.93,-419.15C945.07,-408.37 1004.5,-394.46 1057.28,-382 1060.41,-381.26 1063.61,-380.5 1066.85,-379.74"/>
<polygon fill="#63b8ff" stroke="#63b8ff" points="897.94,-415.79 889,-421.47 899.53,-422.61 897.94,-415.79"/>
</a>
</g>
</g>
<!-- Node3&#45;&gt;Node4 -->
<g id="edge3_Node000003_Node000004" class="edge">
<title>Node3&#45;&gt;Node4</title>
<g id="a_edge3_Node000003_Node000004"><a xlink:title=" ">
<path fill="none" stroke="#63b8ff" d="M515,-260.98C524.35,-258.12 534.07,-255.33 543.28,-253 626.19,-232.06 667.62,-272.95 732.28,-217 759.74,-193.23 767.88,-149.16 770.28,-123.64"/>
<polygon fill="#63b8ff" stroke="#63b8ff" points="513.93,-257.64 505.43,-263.97 516.01,-264.33 513.93,-257.64"/>
</a>
</g>
</g>
<!-- Node3&#45;&gt;Node6 -->
<g id="edge5_Node000003_Node000006" class="edge">
<title>Node3&#45;&gt;Node6</title>
<g id="a_edge5_Node000003_Node000006"><a xlink:title=" ">
<path fill="none" stroke="#63b8ff" d="M424.72,-259.61C394.35,-245.49 352.5,-226.04 321.49,-211.62"/>
<polygon fill="#63b8ff" stroke="#63b8ff" points="423.6,-262.95 434.14,-263.99 426.55,-256.6 423.6,-262.95"/>
</a>
</g>
</g>
<!-- Node8 -->
<g id="Node000008" class="node">
<title>Node8</title>
<g id="a_Node000008"><a xlink:href="fluid__dynamics__vans_8h.html" target="_top" xlink:title=" ">
<polygon fill="white" stroke="#666666" points="723.78,-211.5 586.78,-211.5 586.78,-170.5 723.78,-170.5 723.78,-211.5"/>
<text text-anchor="start" x="594.78" y="-199.5" font-family="Helvetica,sans-Serif" font-size="10.00">/home/runner/work/lethe</text>
<text text-anchor="start" x="594.78" y="-188.5" font-family="Helvetica,sans-Serif" font-size="10.00">/lethe/include/fem&#45;dem</text>
<text text-anchor="middle" x="655.28" y="-177.5" font-family="Helvetica,sans-Serif" font-size="10.00">/fluid_dynamics_vans.h</text>
</a>
</g>
</g>
<!-- Node3&#45;&gt;Node8 -->
<g id="edge7_Node000003_Node000008" class="edge">
<title>Node3&#45;&gt;Node8</title>
<g id="a_edge7_Node000003_Node000008"><a xlink:title=" ">
<path fill="none" stroke="#63b8ff" d="M504.72,-259.79C536.11,-245.66 579.54,-226.1 611.7,-211.62"/>
<polygon fill="#63b8ff" stroke="#63b8ff" points="503.07,-256.69 495.39,-263.99 505.95,-263.08 503.07,-256.69"/>
</a>
</g>
</g>
<!-- Node10 -->
<g id="Node000010" class="node">
<title>Node10</title>
<g id="a_Node000010"><a xlink:href="dem_8cc.html" target="_top" xlink:title=" ">
<polygon fill="white" stroke="#666666" points="529.78,-206 386.78,-206 386.78,-176 529.78,-176 529.78,-206"/>
<text text-anchor="start" x="394.78" y="-194" font-family="Helvetica,sans-Serif" font-size="10.00">/home/runner/work/lethe</text>
<text text-anchor="middle" x="458.28" y="-183" font-family="Helvetica,sans-Serif" font-size="10.00">/lethe/source/dem/dem.cc</text>
</a>
</g>
</g>
<!-- Node3&#45;&gt;Node10 -->
<g id="edge10_Node000003_Node000010" class="edge">
<title>Node3&#45;&gt;Node10</title>
<g id="a_edge10_Node000003_Node000010"><a xlink:title=" ">
<path fill="none" stroke="#63b8ff" d="M462.57,-253.49C461.5,-238.2 460.17,-219.05 459.27,-206.22"/>
<polygon fill="#63b8ff" stroke="#63b8ff" points="459.1,-254.07 463.29,-263.8 466.08,-253.58 459.1,-254.07"/>
</a>
</g>
</g>
<!-- Node5 -->
<g id="Node000005" class="node">
<title>Node5</title>
<g id="a_Node000005"><a xlink:href="cfd__dem__coupling_8cc.html" target="_top" xlink:title=" ">
<polygon fill="white" stroke="#666666" points="839.78,-41 702.78,-41 702.78,0 839.78,0 839.78,-41"/>
<text text-anchor="start" x="710.78" y="-29" font-family="Helvetica,sans-Serif" font-size="10.00">/home/runner/work/lethe</text>
<text text-anchor="start" x="710.78" y="-18" font-family="Helvetica,sans-Serif" font-size="10.00">/lethe/source/fem&#45;dem</text>
<text text-anchor="middle" x="771.28" y="-7" font-family="Helvetica,sans-Serif" font-size="10.00">/cfd_dem_coupling.cc</text>
</a>
</g>
</g>
<!-- Node4&#45;&gt;Node5 -->
<g id="edge4_Node000004_Node000005" class="edge">
<title>Node4&#45;&gt;Node5</title>
<g id="a_edge4_Node000004_Node000005"><a xlink:title=" ">
<path fill="none" stroke="#63b8ff" d="M771.28,-71.87C771.28,-61.6 771.28,-50.4 771.28,-41.17"/>
<polygon fill="#63b8ff" stroke="#63b8ff" points="767.78,-72.1 771.28,-82.1 774.78,-72.1 767.78,-72.1"/>
</a>
</g>
</g>
<!-- Node7 -->
<g id="Node000007" class="node">
<title>Node7</title>
<g id="a_Node000007"><a xlink:href="cfd__dem__coupling__matrix__free_8cc.html" target="_top" xlink:title=" ">
<polygon fill="white" stroke="#666666" points="352.28,-129 206.28,-129 206.28,-77 352.28,-77 352.28,-129"/>
<text text-anchor="start" x="214.28" y="-117" font-family="Helvetica,sans-Serif" font-size="10.00">/home/runner/work/lethe</text>
<text text-anchor="start" x="214.28" y="-106" font-family="Helvetica,sans-Serif" font-size="10.00">/lethe/source/fem&#45;dem</text>
<text text-anchor="start" x="214.28" y="-95" font-family="Helvetica,sans-Serif" font-size="10.00">/cfd_dem_coupling_matrix</text>
<text text-anchor="middle" x="279.28" y="-84" font-family="Helvetica,sans-Serif" font-size="10.00">_free.cc</text>
</a>
</g>
</g>
<!-- Node6&#45;&gt;Node7 -->
<g id="edge6_Node000006_Node000007" class="edge">
<title>Node6&#45;&gt;Node7</title>
<g id="a_edge6_Node000006_Node000007"><a xlink:title=" ">
<path fill="none" stroke="#63b8ff" d="M279.28,-160.44C279.28,-150.31 279.28,-139.08 279.28,-129.32"/>
<polygon fill="#63b8ff" stroke="#63b8ff" points="275.78,-160.49 279.28,-170.49 282.78,-160.49 275.78,-160.49"/>
</a>
</g>
</g>
<!-- Node8&#45;&gt;Node4 -->
<g id="edge8_Node000008_Node000004" class="edge">
<title>Node8&#45;&gt;Node4</title>
<g id="a_edge8_Node000008_Node000004"><a xlink:title=" ">
<path fill="none" stroke="#63b8ff" d="M689.9,-164.33C707.44,-151.33 728.4,-135.79 744.66,-123.74"/>
<polygon fill="#63b8ff" stroke="#63b8ff" points="687.55,-161.72 681.6,-170.49 691.72,-167.34 687.55,-161.72"/>
</a>
</g>
</g>
<!-- Node9 -->
<g id="Node000009" class="node">
<title>Node9</title>
<g id="a_Node000009"><a xlink:href="fluid__dynamics__vans_8cc.html" target="_top" xlink:title=" ">
<polygon fill="white" stroke="#666666" points="684.78,-123.5 547.78,-123.5 547.78,-82.5 684.78,-82.5 684.78,-123.5"/>
<text text-anchor="start" x="555.78" y="-111.5" font-family="Helvetica,sans-Serif" font-size="10.00">/home/runner/work/lethe</text>
<text text-anchor="start" x="555.78" y="-100.5" font-family="Helvetica,sans-Serif" font-size="10.00">/lethe/source/fem&#45;dem</text>
<text text-anchor="middle" x="616.28" y="-89.5" font-family="Helvetica,sans-Serif" font-size="10.00">/fluid_dynamics_vans.cc</text>
</a>
</g>
</g>
<!-- Node8&#45;&gt;Node9 -->
<g id="edge9_Node000008_Node000009" class="edge">
<title>Node8&#45;&gt;Node9</title>
<g id="a_edge9_Node000008_Node000009"><a xlink:title=" ">
<path fill="none" stroke="#63b8ff" d="M642.17,-161.09C636.6,-148.81 630.25,-134.8 625.23,-123.74"/>
<polygon fill="#63b8ff" stroke="#63b8ff" points="639.11,-162.82 646.43,-170.49 645.49,-159.93 639.11,-162.82"/>
</a>
</g>
</g>
<!-- Node11&#45;&gt;Node3 -->
<g id="edge12_Node000011_Node000003" class="edge">
<title>Node11&#45;&gt;Node3</title>
<g id="a_edge12_Node000011_Node000003"><a xlink:title=" ">
<path fill="none" stroke="#63b8ff" d="M325.31,-337.08C359.2,-323.16 401.08,-305.96 429.95,-294.1"/>
<polygon fill="#63b8ff" stroke="#63b8ff" points="323.9,-333.87 315.98,-340.91 326.56,-340.35 323.9,-333.87"/>
</a>
</g>
</g>
<!-- Node12 -->
<g id="Node000012" class="node">
<title>Node12</title>
<g id="a_Node000012"><a xlink:href="set__particle__particle__contact__force__model_8h.html" target="_top" xlink:title=" ">
<polygon fill="white" stroke="#666666" points="143.28,-305 1.28,-305 1.28,-253 143.28,-253 143.28,-305"/>
<text text-anchor="start" x="9.28" y="-293" font-family="Helvetica,sans-Serif" font-size="10.00">/home/runner/work/lethe</text>
<text text-anchor="start" x="9.28" y="-282" font-family="Helvetica,sans-Serif" font-size="10.00">/lethe/include/dem/set</text>
<text text-anchor="start" x="9.28" y="-271" font-family="Helvetica,sans-Serif" font-size="10.00">_particle_particle_contact</text>
<text text-anchor="middle" x="72.28" y="-260" font-family="Helvetica,sans-Serif" font-size="10.00">_force_model.h</text>
</a>
</g>
</g>
<!-- Node11&#45;&gt;Node12 -->
<g id="edge13_Node000011_Node000012" class="edge">
<title>Node11&#45;&gt;Node12</title>
<g id="a_edge13_Node000011_Node000012"><a xlink:title=" ">
<path fill="none" stroke="#63b8ff" d="M211.09,-337.01C186.64,-326.97 158.08,-315.24 133.24,-305.04"/>
<polygon fill="#63b8ff" stroke="#63b8ff" points="210,-340.35 220.58,-340.91 212.66,-333.87 210,-340.35"/>
</a>
</g>
</g>
<!-- Node13 -->
<g id="Node000013" class="node">
<title>Node13</title>
<g id="a_Node000013"><a xlink:href="set__particle__particle__contact__force__model_8cc.html" target="_top" xlink:title=" ">
<polygon fill="white" stroke="#666666" points="171.28,-217 29.28,-217 29.28,-165 171.28,-165 171.28,-217"/>
<text text-anchor="start" x="37.28" y="-205" font-family="Helvetica,sans-Serif" font-size="10.00">/home/runner/work/lethe</text>
<text text-anchor="start" x="37.28" y="-194" font-family="Helvetica,sans-Serif" font-size="10.00">/lethe/source/dem/set</text>
<text text-anchor="start" x="37.28" y="-183" font-family="Helvetica,sans-Serif" font-size="10.00">_particle_particle_contact</text>
<text text-anchor="middle" x="100.28" y="-172" font-family="Helvetica,sans-Serif" font-size="10.00">_force_model.cc</text>
</a>
</g>
</g>
<!-- Node11&#45;&gt;Node13 -->
<g id="edge19_Node000011_Node000013" class="edge">
<title>Node11&#45;&gt;Node13</title>
<g id="a_edge19_Node000011_Node000013"><a xlink:title=" ">
<path fill="none" stroke="#63b8ff" d="M227.23,-334.98C214.7,-326.25 201.33,-315.91 190.28,-305 169.91,-284.89 170.02,-275.46 152.28,-253 142.79,-240.99 131.86,-228.04 122.47,-217.17"/>
<polygon fill="#63b8ff" stroke="#63b8ff" points="225.5,-338.03 235.73,-340.76 229.43,-332.24 225.5,-338.03"/>
</a>
</g>
</g>
<!-- Node14 -->
<g id="Node000014" class="node">
<title>Node14</title>
<g id="a_Node000014"><a xlink:href="force__chains__visualization_8cc.html" target="_top" xlink:title=" ">
<polygon fill="white" stroke="#666666" points="336.78,-299.5 199.78,-299.5 199.78,-258.5 336.78,-258.5 336.78,-299.5"/>
<text text-anchor="start" x="207.78" y="-287.5" font-family="Helvetica,sans-Serif" font-size="10.00">/home/runner/work/lethe</text>
<text text-anchor="start" x="207.78" y="-276.5" font-family="Helvetica,sans-Serif" font-size="10.00">/lethe/source/dem/force</text>
<text text-anchor="middle" x="268.28" y="-265.5" font-family="Helvetica,sans-Serif" font-size="10.00">_chains_visualization.cc</text>
</a>
</g>
</g>
<!-- Node11&#45;&gt;Node14 -->
<g id="edge18_Node000011_Node000014" class="edge">
<title>Node11&#45;&gt;Node14</title>
<g id="a_edge18_Node000011_Node000014"><a xlink:title=" ">
<path fill="none" stroke="#63b8ff" d="M268.28,-330.37C268.28,-320.1 268.28,-308.9 268.28,-299.67"/>
<polygon fill="#63b8ff" stroke="#63b8ff" points="264.78,-330.6 268.28,-340.6 271.78,-330.6 264.78,-330.6"/>
</a>
</g>
</g>
<!-- Node12&#45;&gt;Node5 -->
<g id="edge16_Node000012_Node000005" class="edge">
<title>Node12&#45;&gt;Node5</title>
<g id="a_edge16_Node000012_Node000005"><a xlink:title=" ">
<path fill="none" stroke="#63b8ff" d="M28.6,-245.77C20.34,-237.4 12.86,-227.69 8.28,-217 -0.82,-195.76 -4.14,-184.49 8.28,-165 58.09,-86.87 107.88,-101.36 197.28,-77 374.77,-28.63 593.19,-21.1 702.34,-20.71"/>
<polygon fill="#63b8ff" stroke="#63b8ff" points="26.33,-248.45 36,-252.78 31.14,-243.36 26.33,-248.45"/>
</a>
</g>
</g>
<!-- Node12&#45;&gt;Node7 -->
<g id="edge17_Node000012_Node000007" class="edge">
<title>Node12&#45;&gt;Node7</title>
<g id="a_edge17_Node000012_Node000007"><a xlink:title=" ">
<path fill="none" stroke="#63b8ff" d="M39.18,-245.01C19.31,-221.16 1.25,-189.03 20.28,-165 43.11,-136.16 137.76,-119.6 206.05,-111.2"/>
<polygon fill="#63b8ff" stroke="#63b8ff" points="36.73,-247.52 45.94,-252.76 42.01,-242.92 36.73,-247.52"/>
</a>
</g>
</g>
<!-- Node12&#45;&gt;Node10 -->
<g id="edge14_Node000012_Node000010" class="edge">
<title>Node12&#45;&gt;Node10</title>
<g id="a_edge14_Node000012_Node000010"><a xlink:title=" ">
<path fill="none" stroke="#63b8ff" d="M153.24,-260.64C165.64,-258.04 178.29,-255.42 190.28,-253 273.24,-236.23 295.16,-237.51 377.28,-217 389.84,-213.86 403.34,-209.93 415.65,-206.11"/>
<polygon fill="#63b8ff" stroke="#63b8ff" points="152.43,-257.23 143.37,-262.72 153.88,-264.08 152.43,-257.23"/>
</a>
</g>
</g>
<!-- Node12&#45;&gt;Node13 -->
<g id="edge15_Node000012_Node000013" class="edge">
<title>Node12&#45;&gt;Node13</title>
<g id="a_edge15_Node000012_Node000013"><a xlink:title=" ">
<path fill="none" stroke="#63b8ff" d="M83.63,-243.12C86.46,-234.43 89.44,-225.28 92.09,-217.16"/>
<polygon fill="#63b8ff" stroke="#63b8ff" points="80.3,-242.07 80.53,-252.66 86.95,-244.24 80.3,-242.07"/>
</a>
</g>
</g>
<!-- Node15&#45;&gt;Node3 -->
<g id="edge21_Node000015_Node000003" class="edge">
<title>Node15&#45;&gt;Node3</title>
<g id="a_edge21_Node000015_Node000003"><a xlink:title=" ">
<path fill="none" stroke="#63b8ff" d="M573.68,-336.09C546.95,-322.39 514.53,-305.77 491.95,-294.19"/>
<polygon fill="#63b8ff" stroke="#63b8ff" points="572.38,-339.36 582.87,-340.81 575.57,-333.13 572.38,-339.36"/>
</a>
</g>
</g>
<!-- Node16 -->
<g id="Node000016" class="node">
<title>Node16</title>
<g id="a_Node000016"><a xlink:href="log__collision__data_8cc.html" target="_top" xlink:title=" ">
<polygon fill="white" stroke="#666666" points="689.78,-299.5 552.78,-299.5 552.78,-258.5 689.78,-258.5 689.78,-299.5"/>
<text text-anchor="start" x="560.78" y="-287.5" font-family="Helvetica,sans-Serif" font-size="10.00">/home/runner/work/lethe</text>
<text text-anchor="start" x="560.78" y="-276.5" font-family="Helvetica,sans-Serif" font-size="10.00">/lethe/source/dem/log</text>
<text text-anchor="middle" x="621.28" y="-265.5" font-family="Helvetica,sans-Serif" font-size="10.00">_collision_data.cc</text>
</a>
</g>
</g>
<!-- Node15&#45;&gt;Node16 -->
<g id="edge22_Node000015_Node000016" class="edge">
<title>Node15&#45;&gt;Node16</title>
<g id="a_edge22_Node000015_Node000016"><a xlink:title=" ">
<path fill="none" stroke="#63b8ff" d="M621.28,-330.37C621.28,-320.1 621.28,-308.9 621.28,-299.67"/>
<polygon fill="#63b8ff" stroke="#63b8ff" points="617.78,-330.6 621.28,-340.6 624.78,-330.6 617.78,-330.6"/>
</a>
</g>
</g>
<!-- Node17&#45;&gt;Node3 -->
<g id="edge24_Node000017_Node000003" class="edge">
<title>Node17&#45;&gt;Node3</title>
<g id="a_edge24_Node000017_Node000003"><a xlink:title=" ">
<path fill="none" stroke="#63b8ff" d="M736.5,-346.17C681.28,-336.12 607.55,-321.56 543.28,-305 531.02,-301.84 517.85,-297.9 505.85,-294.09"/>
<polygon fill="#63b8ff" stroke="#63b8ff" points="736.13,-349.66 746.59,-347.99 737.37,-342.77 736.13,-349.66"/>
</a>
</g>
</g>
<!-- Node18 -->
<g id="Node000018" class="node">
<title>Node18</title>
<g id="a_Node000018"><a xlink:href="set__particle__wall__contact__force__model_8h.html" target="_top" xlink:title=" ">
<polygon fill="white" stroke="#666666" points="1045.78,-305 908.78,-305 908.78,-253 1045.78,-253 1045.78,-305"/>
<text text-anchor="start" x="916.78" y="-293" font-family="Helvetica,sans-Serif" font-size="10.00">/home/runner/work/lethe</text>
<text text-anchor="start" x="916.78" y="-282" font-family="Helvetica,sans-Serif" font-size="10.00">/lethe/include/dem/set</text>
<text text-anchor="start" x="916.78" y="-271" font-family="Helvetica,sans-Serif" font-size="10.00">_particle_wall_contact</text>
<text text-anchor="middle" x="977.28" y="-260" font-family="Helvetica,sans-Serif" font-size="10.00">_force_model.h</text>
</a>
</g>
</g>
<!-- Node17&#45;&gt;Node18 -->
<g id="edge25_Node000017_Node000018" class="edge">
<title>Node17&#45;&gt;Node18</title>
<g id="a_edge25_Node000017_Node000018"><a xlink:title=" ">
<path fill="none" stroke="#63b8ff" d="M867.82,-336.13C886.95,-326.32 909,-315.01 928.27,-305.13"/>
<polygon fill="#63b8ff" stroke="#63b8ff" points="865.99,-333.13 858.69,-340.81 869.18,-339.36 865.99,-333.13"/>
</a>
</g>
</g>
<!-- Node20 -->
<g id="Node000020" class="node">
<title>Node20</title>
<g id="a_Node000020"><a xlink:href="ib__particles__dem_8h.html" target="_top" xlink:title=" ">
<polygon fill="white" stroke="#666666" points="1200.78,-299.5 1063.78,-299.5 1063.78,-258.5 1200.78,-258.5 1200.78,-299.5"/>
<text text-anchor="start" x="1071.78" y="-287.5" font-family="Helvetica,sans-Serif" font-size="10.00">/home/runner/work/lethe</text>
<text text-anchor="start" x="1071.78" y="-276.5" font-family="Helvetica,sans-Serif" font-size="10.00">/lethe/include/fem&#45;dem</text>
<text text-anchor="middle" x="1132.28" y="-265.5" font-family="Helvetica,sans-Serif" font-size="10.00">/ib_particles_dem.h</text>
</a>
</g>
</g>
<!-- Node17&#45;&gt;Node20 -->
<g id="edge30_Node000017_Node000020" class="edge">
<title>Node17&#45;&gt;Node20</title>
<g id="a_edge30_Node000017_Node000020"><a xlink:title=" ">
<path fill="none" stroke="#63b8ff" d="M903.91,-340.63C971.5,-324.81 990.4,-322.77 1054.28,-305 1060.31,-303.32 1066.57,-301.48 1072.8,-299.59"/>
<polygon fill="#63b8ff" stroke="#63b8ff" points="902.97,-337.26 894.04,-342.96 904.57,-344.07 902.97,-337.26"/>
</a>
</g>
</g>
<!-- Node24 -->
<g id="Node000024" class="node">
<title>Node24</title>
<g id="a_Node000024"><a xlink:href="particle__wall__contact__force_8cc.html" target="_top" xlink:title=" ">
<polygon fill="white" stroke="#666666" points="890.28,-299.5 746.28,-299.5 746.28,-258.5 890.28,-258.5 890.28,-299.5"/>
<text text-anchor="start" x="754.28" y="-287.5" font-family="Helvetica,sans-Serif" font-size="10.00">/home/runner/work/lethe</text>
<text text-anchor="start" x="754.28" y="-276.5" font-family="Helvetica,sans-Serif" font-size="10.00">/lethe/source/dem/particle</text>
<text text-anchor="middle" x="818.28" y="-265.5" font-family="Helvetica,sans-Serif" font-size="10.00">_wall_contact_force.cc</text>
</a>
</g>
</g>
<!-- Node17&#45;&gt;Node24 -->
<g id="edge34_Node000017_Node000024" class="edge">
<title>Node17&#45;&gt;Node24</title>
<g id="a_edge34_Node000017_Node000024"><a xlink:title=" ">
<path fill="none" stroke="#63b8ff" d="M819.53,-330.37C819.28,-320.1 819,-308.9 818.77,-299.67"/>
<polygon fill="#63b8ff" stroke="#63b8ff" points="816.04,-330.69 819.78,-340.6 823.03,-330.52 816.04,-330.69"/>
</a>
</g>
</g>
<!-- Node18&#45;&gt;Node5 -->
<g id="edge28_Node000018_Node000005" class="edge">
<title>Node18&#45;&gt;Node5</title>
<g id="a_edge28_Node000018_Node000005"><a xlink:title=" ">
<path fill="none" stroke="#63b8ff" d="M980.15,-242.69C980.46,-219.22 977.68,-188.51 964.28,-165 930.57,-105.88 861.54,-63.87 815.84,-41.15"/>
<polygon fill="#63b8ff" stroke="#63b8ff" points="976.64,-242.81 979.82,-252.92 983.64,-243.04 976.64,-242.81"/>
</a>
</g>
</g>
<!-- Node18&#45;&gt;Node7 -->
<g id="edge29_Node000018_Node000007" class="edge">
<title>Node18&#45;&gt;Node7</title>
<g id="a_edge29_Node000018_Node000007"><a xlink:title=" ">
<path fill="none" stroke="#63b8ff" d="M898.6,-253.13C755.9,-225.75 699.49,-286.86 577.28,-217 552.2,-202.66 562.45,-180.81 538.28,-165 482.51,-128.52 407.36,-113.78 352.37,-107.87"/>
<polygon fill="#63b8ff" stroke="#63b8ff" points="898.08,-256.6 908.58,-255.16 899.47,-249.74 898.08,-256.6"/>
</a>
</g>
</g>
<!-- Node18&#45;&gt;Node10 -->
<g id="edge26_Node000018_Node000010" class="edge">
<title>Node18&#45;&gt;Node10</title>
<g id="a_edge26_Node000018_Node000010"><a xlink:title=" ">
<path fill="none" stroke="#63b8ff" d="M898.61,-253.08C742.18,-221.69 696.76,-246.64 544.28,-217 529.93,-214.21 514.53,-210.1 500.77,-206.01"/>
<polygon fill="#63b8ff" stroke="#63b8ff" points="898.08,-256.54 908.58,-255.12 899.49,-249.68 898.08,-256.54"/>
</a>
</g>
</g>
<!-- Node19 -->
<g id="Node000019" class="node">
<title>Node19</title>
<g id="a_Node000019"><a xlink:href="set__particle__wall__contact__force__model_8cc.html" target="_top" xlink:title=" ">
<polygon fill="white" stroke="#666666" points="955.78,-217 818.78,-217 818.78,-165 955.78,-165 955.78,-217"/>
<text text-anchor="start" x="826.78" y="-205" font-family="Helvetica,sans-Serif" font-size="10.00">/home/runner/work/lethe</text>
<text text-anchor="start" x="826.78" y="-194" font-family="Helvetica,sans-Serif" font-size="10.00">/lethe/source/dem/set</text>
<text text-anchor="start" x="826.78" y="-183" font-family="Helvetica,sans-Serif" font-size="10.00">_particle_wall_contact</text>
<text text-anchor="middle" x="887.28" y="-172" font-family="Helvetica,sans-Serif" font-size="10.00">_force_model.cc</text>
</a>
</g>
</g>
<!-- Node18&#45;&gt;Node19 -->
<g id="edge27_Node000018_Node000019" class="edge">
<title>Node18&#45;&gt;Node19</title>
<g id="a_edge27_Node000018_Node000019"><a xlink:title=" ">
<path fill="none" stroke="#63b8ff" d="M943.41,-245.63C933.55,-236.21 922.93,-226.06 913.61,-217.16"/>
<polygon fill="#63b8ff" stroke="#63b8ff" points="941.11,-248.28 950.76,-252.66 945.95,-243.22 941.11,-248.28"/>
</a>
</g>
</g>
<!-- Node21 -->
<g id="Node000021" class="node">
<title>Node21</title>
<g id="a_Node000021"><a xlink:href="fluid__dynamics__sharp_8h.html" target="_top" xlink:title=" ">
<polygon fill="white" stroke="#666666" points="1326.78,-211.5 1189.78,-211.5 1189.78,-170.5 1326.78,-170.5 1326.78,-211.5"/>
<text text-anchor="start" x="1197.78" y="-199.5" font-family="Helvetica,sans-Serif" font-size="10.00">/home/runner/work/lethe</text>
<text text-anchor="start" x="1197.78" y="-188.5" font-family="Helvetica,sans-Serif" font-size="10.00">/lethe/include/fem&#45;dem</text>
<text text-anchor="middle" x="1258.28" y="-177.5" font-family="Helvetica,sans-Serif" font-size="10.00">/fluid_dynamics_sharp.h</text>
</a>
</g>
</g>
<!-- Node20&#45;&gt;Node21 -->
<g id="edge31_Node000020_Node000021" class="edge">
<title>Node20&#45;&gt;Node21</title>
<g id="a_edge31_Node000020_Node000021"><a xlink:title=" ">
<path fill="none" stroke="#63b8ff" d="M1169.37,-252.69C1188.52,-239.61 1211.55,-223.9 1229.36,-211.74"/>
<polygon fill="#63b8ff" stroke="#63b8ff" points="1167.16,-249.96 1160.87,-258.49 1171.1,-255.74 1167.16,-249.96"/>
</a>
</g>
</g>
<!-- Node23 -->
<g id="Node000023" class="node">
<title>Node23</title>
<g id="a_Node000023"><a xlink:href="ib__particles__dem_8cc.html" target="_top" xlink:title=" ">
<polygon fill="white" stroke="#666666" points="1171.78,-211.5 1034.78,-211.5 1034.78,-170.5 1171.78,-170.5 1171.78,-211.5"/>
<text text-anchor="start" x="1042.78" y="-199.5" font-family="Helvetica,sans-Serif" font-size="10.00">/home/runner/work/lethe</text>
<text text-anchor="start" x="1042.78" y="-188.5" font-family="Helvetica,sans-Serif" font-size="10.00">/lethe/source/fem&#45;dem</text>
<text text-anchor="middle" x="1103.28" y="-177.5" font-family="Helvetica,sans-Serif" font-size="10.00">/ib_particles_dem.cc</text>
</a>
</g>
</g>
<!-- Node20&#45;&gt;Node23 -->
<g id="edge33_Node000020_Node000023" class="edge">
<title>Node20&#45;&gt;Node23</title>
<g id="a_edge33_Node000020_Node000023"><a xlink:title=" ">
<path fill="none" stroke="#63b8ff" d="M1122.41,-248.73C1118.3,-236.53 1113.63,-222.69 1109.93,-211.74"/>
<polygon fill="#63b8ff" stroke="#63b8ff" points="1119.19,-250.13 1125.7,-258.49 1125.82,-247.89 1119.19,-250.13"/>
</a>
</g>
</g>
<!-- Node22 -->
<g id="Node000022" class="node">
<title>Node22</title>
<g id="a_Node000022"><a xlink:href="fluid__dynamics__sharp_8cc.html" target="_top" xlink:title=" ">
<polygon fill="white" stroke="#666666" points="1327.78,-123.5 1188.78,-123.5 1188.78,-82.5 1327.78,-82.5 1327.78,-123.5"/>
<text text-anchor="start" x="1196.78" y="-111.5" font-family="Helvetica,sans-Serif" font-size="10.00">/home/runner/work/lethe</text>
<text text-anchor="start" x="1196.78" y="-100.5" font-family="Helvetica,sans-Serif" font-size="10.00">/lethe/source/fem&#45;dem</text>
<text text-anchor="middle" x="1258.28" y="-89.5" font-family="Helvetica,sans-Serif" font-size="10.00">/fluid_dynamics_sharp.cc</text>
</a>
</g>
</g>
<!-- Node21&#45;&gt;Node22 -->
<g id="edge32_Node000021_Node000022" class="edge">
<title>Node21&#45;&gt;Node22</title>
<g id="a_edge32_Node000021_Node000022"><a xlink:title=" ">
<path fill="none" stroke="#63b8ff" d="M1258.28,-160.36C1258.28,-148.26 1258.28,-134.58 1258.28,-123.74"/>
<polygon fill="#63b8ff" stroke="#63b8ff" points="1254.78,-160.49 1258.28,-170.49 1261.78,-160.49 1254.78,-160.49"/>
</a>
</g>
</g>
<!-- Node26 -->
<g id="Node000026" class="node">
<title>Node26</title>
<g id="a_Node000026"><a xlink:href="ray__tracing_8cc.html" target="_top" xlink:title=" ">
<polygon fill="white" stroke="#666666" points="1366.78,-299.5 1229.78,-299.5 1229.78,-258.5 1366.78,-258.5 1366.78,-299.5"/>
<text text-anchor="start" x="1237.78" y="-287.5" font-family="Helvetica,sans-Serif" font-size="10.00">/home/runner/work/lethe</text>
<text text-anchor="start" x="1237.78" y="-276.5" font-family="Helvetica,sans-Serif" font-size="10.00">/lethe/source/dem/ray</text>
<text text-anchor="middle" x="1298.28" y="-265.5" font-family="Helvetica,sans-Serif" font-size="10.00">_tracing.cc</text>
</a>
</g>
</g>
<!-- Node25&#45;&gt;Node26 -->
<g id="edge36_Node000025_Node000026" class="edge">
<title>Node25&#45;&gt;Node26</title>
<g id="a_edge36_Node000025_Node000026"><a xlink:title=" ">
<path fill="none" stroke="#63b8ff" d="M1298.28,-330.37C1298.28,-320.1 1298.28,-308.9 1298.28,-299.67"/>
<polygon fill="#63b8ff" stroke="#63b8ff" points="1294.78,-330.6 1298.28,-340.6 1301.78,-330.6 1294.78,-330.6"/>
</a>
</g>
</g>
</g>
</svg>
