<?xml version="1.0" encoding="UTF-8" standalone="no"?>
<!DOCTYPE svg PUBLIC "-//W3C//DTD SVG 1.1//EN"
 "http://www.w3.org/Graphics/SVG/1.1/DTD/svg11.dtd">
<!-- Generated by graphviz version 2.43.0 (0)
 -->
<!-- Title: /home/runner/work/lethe/lethe/include/dem/particle_wall_contact_force.h Pages: 1 -->
<svg width="1094pt" height="390pt"
 viewBox="0.00 0.00 1094.00 390.00" xmlns="http://www.w3.org/2000/svg" xmlns:xlink="http://www.w3.org/1999/xlink">
<g id="graph0" class="graph" transform="scale(1 1) rotate(0) translate(4 386)">
<title>/home/runner/work/lethe/lethe/include/dem/particle_wall_contact_force.h</title>
<!-- Node1 -->
<g id="Node000001" class="node">
<title>Node1</title>
<g id="a_Node000001"><a xlink:title=" ">
<polygon fill="#999999" stroke="#666666" points="760,-382 613,-382 613,-341 760,-341 760,-382"/>
<text text-anchor="start" x="621" y="-370" font-family="Helvetica,sans-Serif" font-size="10.00">/home/runner/work/lethe</text>
<text text-anchor="start" x="621" y="-359" font-family="Helvetica,sans-Serif" font-size="10.00">/lethe/include/dem/particle</text>
<text text-anchor="middle" x="686.5" y="-348" font-family="Helvetica,sans-Serif" font-size="10.00">_wall_contact_force.h</text>
</a>
</g>
</g>
<!-- Node2 -->
<g id="Node000002" class="node">
<title>Node2</title>
<g id="a_Node000002"><a xlink:href="dem_8h.html" target="_top" xlink:title=" ">
<polygon fill="white" stroke="#666666" points="363,-294 222,-294 222,-264 363,-264 363,-294"/>
<text text-anchor="start" x="230" y="-282" font-family="Helvetica,sans-Serif" font-size="10.00">/home/runner/work/lethe</text>
<text text-anchor="middle" x="292.5" y="-271" font-family="Helvetica,sans-Serif" font-size="10.00">/lethe/include/dem/dem.h</text>
</a>
</g>
</g>
<!-- Node1&#45;&gt;Node2 -->
<g id="edge1_Node000001_Node000002" class="edge">
<title>Node1&#45;&gt;Node2</title>
<g id="a_edge1_Node000001_Node000002"><a xlink:title=" ">
<path fill="none" stroke="#63b8ff" d="M602.91,-343.42C530.96,-328.72 428.41,-307.77 361.17,-294.03"/>
<polygon fill="#63b8ff" stroke="#63b8ff" points="602.36,-346.88 612.85,-345.45 603.76,-340.02 602.36,-346.88"/>
</a>
</g>
</g>
<!-- Node10 -->
<g id="Node000010" class="node">
<title>Node10</title>
<g id="a_Node000010"><a xlink:href="set__particle__wall__contact__force__model_8h.html" target="_top" xlink:title=" ">
<polygon fill="white" stroke="#666666" points="678,-305 541,-305 541,-253 678,-253 678,-305"/>
<text text-anchor="start" x="549" y="-293" font-family="Helvetica,sans-Serif" font-size="10.00">/home/runner/work/lethe</text>
<text text-anchor="start" x="549" y="-282" font-family="Helvetica,sans-Serif" font-size="10.00">/lethe/include/dem/set</text>
<text text-anchor="start" x="549" y="-271" font-family="Helvetica,sans-Serif" font-size="10.00">_particle_wall_contact</text>
<text text-anchor="middle" x="609.5" y="-260" font-family="Helvetica,sans-Serif" font-size="10.00">_force_model.h</text>
</a>
</g>
</g>
<!-- Node1&#45;&gt;Node10 -->
<g id="edge10_Node000001_Node000010" class="edge">
<title>Node1&#45;&gt;Node10</title>
<g id="a_edge10_Node000001_Node000010"><a xlink:title=" ">
<path fill="none" stroke="#63b8ff" d="M660.43,-333.25C651.74,-324.16 642.1,-314.08 633.56,-305.16"/>
<polygon fill="#63b8ff" stroke="#63b8ff" points="658.02,-335.79 667.47,-340.6 663.08,-330.96 658.02,-335.79"/>
</a>
</g>
</g>
<!-- Node12 -->
<g id="Node000012" class="node">
<title>Node12</title>
<g id="a_Node000012"><a xlink:href="ib__particles__dem_8h.html" target="_top" xlink:title=" ">
<polygon fill="white" stroke="#666666" points="881,-299.5 744,-299.5 744,-258.5 881,-258.5 881,-299.5"/>
<text text-anchor="start" x="752" y="-287.5" font-family="Helvetica,sans-Serif" font-size="10.00">/home/runner/work/lethe</text>
<text text-anchor="start" x="752" y="-276.5" font-family="Helvetica,sans-Serif" font-size="10.00">/lethe/include/fem&#45;dem</text>
<text text-anchor="middle" x="812.5" y="-265.5" font-family="Helvetica,sans-Serif" font-size="10.00">/ib_particles_dem.h</text>
</a>
</g>
</g>
<!-- Node1&#45;&gt;Node12 -->
<g id="edge15_Node000001_Node000012" class="edge">
<title>Node1&#45;&gt;Node12</title>
<g id="a_edge15_Node000001_Node000012"><a xlink:title=" ">
<path fill="none" stroke="#63b8ff" d="M725.86,-335.35C743.81,-323.88 764.76,-310.5 781.56,-299.77"/>
<polygon fill="#63b8ff" stroke="#63b8ff" points="723.87,-332.47 717.32,-340.81 727.63,-338.37 723.87,-332.47"/>
</a>
</g>
</g>
<!-- Node16 -->
<g id="Node000016" class="node">
<title>Node16</title>
<g id="a_Node000016"><a xlink:href="particle__wall__contact__force_8cc.html" target="_top" xlink:title=" ">
<polygon fill="white" stroke="#666666" points="1043.5,-299.5 899.5,-299.5 899.5,-258.5 1043.5,-258.5 1043.5,-299.5"/>
<text text-anchor="start" x="907.5" y="-287.5" font-family="Helvetica,sans-Serif" font-size="10.00">/home/runner/work/lethe</text>
<text text-anchor="start" x="907.5" y="-276.5" font-family="Helvetica,sans-Serif" font-size="10.00">/lethe/source/dem/particle</text>
<text text-anchor="middle" x="971.5" y="-265.5" font-family="Helvetica,sans-Serif" font-size="10.00">_wall_contact_force.cc</text>
</a>
</g>
</g>
<!-- Node1&#45;&gt;Node16 -->
<g id="edge19_Node000001_Node000016" class="edge">
<title>Node1&#45;&gt;Node16</title>
<g id="a_edge19_Node000001_Node000016"><a xlink:title=" ">
<path fill="none" stroke="#63b8ff" d="M770.06,-338.45C807.05,-328.51 851.02,-316.46 890.5,-305 896.44,-303.28 902.6,-301.45 908.77,-299.59"/>
<polygon fill="#63b8ff" stroke="#63b8ff" points="769.07,-335.09 760.32,-341.06 770.88,-341.85 769.07,-335.09"/>
</a>
</g>
</g>
<!-- Node3 -->
<g id="Node000003" class="node">
<title>Node3</title>
<g id="a_Node000003"><a xlink:href="cfd__dem__coupling_8h.html" target="_top" xlink:title=" ">
<polygon fill="white" stroke="#666666" points="137,-123.5 0,-123.5 0,-82.5 137,-82.5 137,-123.5"/>
<text text-anchor="start" x="8" y="-111.5" font-family="Helvetica,sans-Serif" font-size="10.00">/home/runner/work/lethe</text>
<text text-anchor="start" x="8" y="-100.5" font-family="Helvetica,sans-Serif" font-size="10.00">/lethe/include/fem&#45;dem</text>
<text text-anchor="middle" x="68.5" y="-89.5" font-family="Helvetica,sans-Serif" font-size="10.00">/cfd_dem_coupling.h</text>
</a>
</g>
</g>
<!-- Node2&#45;&gt;Node3 -->
<g id="edge2_Node000002_Node000003" class="edge">
<title>Node2&#45;&gt;Node3</title>
<g id="a_edge2_Node000002_Node000003"><a xlink:title=" ">
<path fill="none" stroke="#63b8ff" d="M211.92,-269.45C145.86,-260.59 59.9,-244.14 38.5,-217 16.89,-189.58 37.86,-148 53.95,-123.66"/>
<polygon fill="#63b8ff" stroke="#63b8ff" points="211.55,-272.94 221.92,-270.76 212.46,-265.99 211.55,-272.94"/>
</a>
</g>
</g>
<!-- Node5 -->
<g id="Node000005" class="node">
<title>Node5</title>
<g id="a_Node000005"><a xlink:href="cfd__dem__coupling__matrix__free_8h.html" target="_top" xlink:title=" ">
<polygon fill="white" stroke="#666666" points="382,-211.5 203,-211.5 203,-170.5 382,-170.5 382,-211.5"/>
<text text-anchor="start" x="211" y="-199.5" font-family="Helvetica,sans-Serif" font-size="10.00">/home/runner/work/lethe</text>
<text text-anchor="start" x="211" y="-188.5" font-family="Helvetica,sans-Serif" font-size="10.00">/lethe/include/fem&#45;dem</text>
<text text-anchor="middle" x="292.5" y="-177.5" font-family="Helvetica,sans-Serif" font-size="10.00">/cfd_dem_coupling_matrix_free.h</text>
</a>
</g>
</g>
<!-- Node2&#45;&gt;Node5 -->
<g id="edge4_Node000002_Node000005" class="edge">
<title>Node2&#45;&gt;Node5</title>
<g id="a_edge4_Node000002_Node000005"><a xlink:title=" ">
<path fill="none" stroke="#63b8ff" d="M292.5,-253.5C292.5,-240.25 292.5,-224.11 292.5,-211.69"/>
<polygon fill="#63b8ff" stroke="#63b8ff" points="289,-253.8 292.5,-263.8 296,-253.8 289,-253.8"/>
</a>
</g>
</g>
<!-- Node7 -->
<g id="Node000007" class="node">
<title>Node7</title>
<g id="a_Node000007"><a xlink:href="fluid__dynamics__vans_8h.html" target="_top" xlink:title=" ">
<polygon fill="white" stroke="#666666" points="185,-211.5 48,-211.5 48,-170.5 185,-170.5 185,-211.5"/>
<text text-anchor="start" x="56" y="-199.5" font-family="Helvetica,sans-Serif" font-size="10.00">/home/runner/work/lethe</text>
<text text-anchor="start" x="56" y="-188.5" font-family="Helvetica,sans-Serif" font-size="10.00">/lethe/include/fem&#45;dem</text>
<text text-anchor="middle" x="116.5" y="-177.5" font-family="Helvetica,sans-Serif" font-size="10.00">/fluid_dynamics_vans.h</text>
</a>
</g>
</g>
<!-- Node2&#45;&gt;Node7 -->
<g id="edge6_Node000002_Node000007" class="edge">
<title>Node2&#45;&gt;Node7</title>
<g id="a_edge6_Node000002_Node000007"><a xlink:title=" ">
<path fill="none" stroke="#63b8ff" d="M254.49,-259.42C225.62,-245.32 186.03,-225.98 156.66,-211.62"/>
<polygon fill="#63b8ff" stroke="#63b8ff" points="253.31,-262.75 263.83,-263.99 256.38,-256.46 253.31,-262.75"/>
</a>
</g>
</g>
<!-- Node9 -->
<g id="Node000009" class="node">
<title>Node9</title>
<g id="a_Node000009"><a xlink:href="dem_8cc.html" target="_top" xlink:title=" ">
<polygon fill="white" stroke="#666666" points="543,-206 400,-206 400,-176 543,-176 543,-206"/>
<text text-anchor="start" x="408" y="-194" font-family="Helvetica,sans-Serif" font-size="10.00">/home/runner/work/lethe</text>
<text text-anchor="middle" x="471.5" y="-183" font-family="Helvetica,sans-Serif" font-size="10.00">/lethe/source/dem/dem.cc</text>
</a>
</g>
</g>
<!-- Node2&#45;&gt;Node9 -->
<g id="edge9_Node000002_Node000009" class="edge">
<title>Node2&#45;&gt;Node9</title>
<g id="a_edge9_Node000002_Node000009"><a xlink:title=" ">
<path fill="none" stroke="#63b8ff" d="M330.67,-259.66C364.09,-243.6 411.93,-220.62 442.35,-206"/>
<polygon fill="#63b8ff" stroke="#63b8ff" points="329.16,-256.51 321.66,-263.99 332.19,-262.82 329.16,-256.51"/>
</a>
</g>
</g>
<!-- Node4 -->
<g id="Node000004" class="node">
<title>Node4</title>
<g id="a_Node000004"><a xlink:href="cfd__dem__coupling_8cc.html" target="_top" xlink:title=" ">
<polygon fill="white" stroke="#666666" points="407,-41 270,-41 270,0 407,0 407,-41"/>
<text text-anchor="start" x="278" y="-29" font-family="Helvetica,sans-Serif" font-size="10.00">/home/runner/work/lethe</text>
<text text-anchor="start" x="278" y="-18" font-family="Helvetica,sans-Serif" font-size="10.00">/lethe/source/fem&#45;dem</text>
<text text-anchor="middle" x="338.5" y="-7" font-family="Helvetica,sans-Serif" font-size="10.00">/cfd_dem_coupling.cc</text>
</a>
</g>
</g>
<!-- Node3&#45;&gt;Node4 -->
<g id="edge3_Node000003_Node000004" class="edge">
<title>Node3&#45;&gt;Node4</title>
<g id="a_edge3_Node000003_Node000004"><a xlink:title=" ">
<path fill="none" stroke="#63b8ff" d="M137.71,-79.41C140.34,-78.59 142.94,-77.78 145.5,-77 186.51,-64.45 232.66,-51.15 269.55,-40.71"/>
<polygon fill="#63b8ff" stroke="#63b8ff" points="136.62,-76.08 128.13,-82.42 138.72,-82.76 136.62,-76.08"/>
</a>
</g>
</g>
<!-- Node6 -->
<g id="Node000006" class="node">
<title>Node6</title>
<g id="a_Node000006"><a xlink:href="cfd__dem__coupling__matrix__free_8cc.html" target="_top" xlink:title=" ">
<polygon fill="white" stroke="#666666" points="519.5,-129 373.5,-129 373.5,-77 519.5,-77 519.5,-129"/>
<text text-anchor="start" x="381.5" y="-117" font-family="Helvetica,sans-Serif" font-size="10.00">/home/runner/work/lethe</text>
<text text-anchor="start" x="381.5" y="-106" font-family="Helvetica,sans-Serif" font-size="10.00">/lethe/source/fem&#45;dem</text>
<text text-anchor="start" x="381.5" y="-95" font-family="Helvetica,sans-Serif" font-size="10.00">/cfd_dem_coupling_matrix</text>
<text text-anchor="middle" x="446.5" y="-84" font-family="Helvetica,sans-Serif" font-size="10.00">_free.cc</text>
</a>
</g>
</g>
<!-- Node5&#45;&gt;Node6 -->
<g id="edge5_Node000005_Node000006" class="edge">
<title>Node5&#45;&gt;Node6</title>
<g id="a_edge5_Node000005_Node000006"><a xlink:title=" ">
<path fill="none" stroke="#63b8ff" d="M336.22,-165.58C356.63,-154.19 380.89,-140.64 401.45,-129.16"/>
<polygon fill="#63b8ff" stroke="#63b8ff" points="334.47,-162.55 327.44,-170.49 337.88,-168.67 334.47,-162.55"/>
</a>
</g>
</g>
<!-- Node7&#45;&gt;Node3 -->
<g id="edge7_Node000007_Node000003" class="edge">
<title>Node7&#45;&gt;Node3</title>
<g id="a_edge7_Node000007_Node000003"><a xlink:title=" ">
<path fill="none" stroke="#63b8ff" d="M100.57,-161.46C93.67,-149.09 85.75,-134.91 79.51,-123.74"/>
<polygon fill="#63b8ff" stroke="#63b8ff" points="97.68,-163.46 105.61,-170.49 103.79,-160.05 97.68,-163.46"/>
</a>
</g>
</g>
<!-- Node8 -->
<g id="Node000008" class="node">
<title>Node8</title>
<g id="a_Node000008"><a xlink:href="fluid__dynamics__vans_8cc.html" target="_top" xlink:title=" ">
<polygon fill="white" stroke="#666666" points="292,-123.5 155,-123.5 155,-82.5 292,-82.5 292,-123.5"/>
<text text-anchor="start" x="163" y="-111.5" font-family="Helvetica,sans-Serif" font-size="10.00">/home/runner/work/lethe</text>
<text text-anchor="start" x="163" y="-100.5" font-family="Helvetica,sans-Serif" font-size="10.00">/lethe/source/fem&#45;dem</text>
<text text-anchor="middle" x="223.5" y="-89.5" font-family="Helvetica,sans-Serif" font-size="10.00">/fluid_dynamics_vans.cc</text>
</a>
</g>
</g>
<!-- Node7&#45;&gt;Node8 -->
<g id="edge8_Node000007_Node000008" class="edge">
<title>Node7&#45;&gt;Node8</title>
<g id="a_edge8_Node000007_Node000008"><a xlink:title=" ">
<path fill="none" stroke="#63b8ff" d="M148.88,-163.98C164.96,-151.05 184.09,-135.68 198.95,-123.74"/>
<polygon fill="#63b8ff" stroke="#63b8ff" points="146.38,-161.49 140.78,-170.49 150.77,-166.95 146.38,-161.49"/>
</a>
</g>
</g>
<!-- Node10&#45;&gt;Node4 -->
<g id="edge13_Node000010_Node000004" class="edge">
<title>Node10&#45;&gt;Node4</title>
<g id="a_edge13_Node000010_Node000004"><a xlink:title=" ">
<path fill="none" stroke="#63b8ff" d="M606.11,-242.57C599.64,-196.39 581.09,-116.83 528.5,-77 493.44,-50.44 445.94,-36.57 407.2,-29.33"/>
<polygon fill="#63b8ff" stroke="#63b8ff" points="602.66,-243.25 607.41,-252.72 609.61,-242.36 602.66,-243.25"/>
</a>
</g>
</g>
<!-- Node10&#45;&gt;Node6 -->
<g id="edge14_Node000010_Node000006" class="edge">
<title>Node10&#45;&gt;Node6</title>
<g id="a_edge14_Node000010_Node000006"><a xlink:title=" ">
<path fill="none" stroke="#63b8ff" d="M597.61,-243.08C588.05,-218.97 572.72,-187.35 551.5,-165 537.86,-150.63 520.08,-138.58 503.04,-129.1"/>
<polygon fill="#63b8ff" stroke="#63b8ff" points="594.39,-244.48 601.23,-252.58 600.93,-241.99 594.39,-244.48"/>
</a>
</g>
</g>
<!-- Node10&#45;&gt;Node9 -->
<g id="edge11_Node000010_Node000009" class="edge">
<title>Node10&#45;&gt;Node9</title>
<g id="a_edge11_Node000010_Node000009"><a xlink:title=" ">
<path fill="none" stroke="#63b8ff" d="M560.68,-247.58C537.96,-233.41 512.03,-217.25 494.01,-206.03"/>
<polygon fill="#63b8ff" stroke="#63b8ff" points="558.88,-250.58 569.21,-252.89 562.58,-244.63 558.88,-250.58"/>
</a>
</g>
</g>
<!-- Node11 -->
<g id="Node000011" class="node">
<title>Node11</title>
<g id="a_Node000011"><a xlink:href="set__particle__wall__contact__force__model_8cc.html" target="_top" xlink:title=" ">
<polygon fill="white" stroke="#666666" points="775,-217 638,-217 638,-165 775,-165 775,-217"/>
<text text-anchor="start" x="646" y="-205" font-family="Helvetica,sans-Serif" font-size="10.00">/home/runner/work/lethe</text>
<text text-anchor="start" x="646" y="-194" font-family="Helvetica,sans-Serif" font-size="10.00">/lethe/source/dem/set</text>
<text text-anchor="start" x="646" y="-183" font-family="Helvetica,sans-Serif" font-size="10.00">_particle_wall_contact</text>
<text text-anchor="middle" x="706.5" y="-172" font-family="Helvetica,sans-Serif" font-size="10.00">_force_model.cc</text>
</a>
</g>
</g>
<!-- Node10&#45;&gt;Node11 -->
<g id="edge12_Node000010_Node000011" class="edge">
<title>Node10&#45;&gt;Node11</title>
<g id="a_edge12_Node000010_Node000011"><a xlink:title=" ">
<path fill="none" stroke="#63b8ff" d="M645.44,-246.13C656.18,-236.62 667.79,-226.32 677.98,-217.29"/>
<polygon fill="#63b8ff" stroke="#63b8ff" points="642.98,-243.64 637.82,-252.89 647.62,-248.88 642.98,-243.64"/>
</a>
</g>
</g>
<!-- Node13 -->
<g id="Node000013" class="node">
<title>Node13</title>
<g id="a_Node000013"><a xlink:href="fluid__dynamics__sharp_8h.html" target="_top" xlink:title=" ">
<polygon fill="white" stroke="#666666" points="1085,-211.5 948,-211.5 948,-170.5 1085,-170.5 1085,-211.5"/>
<text text-anchor="start" x="956" y="-199.5" font-family="Helvetica,sans-Serif" font-size="10.00">/home/runner/work/lethe</text>
<text text-anchor="start" x="956" y="-188.5" font-family="Helvetica,sans-Serif" font-size="10.00">/lethe/include/fem&#45;dem</text>
<text text-anchor="middle" x="1016.5" y="-177.5" font-family="Helvetica,sans-Serif" font-size="10.00">/fluid_dynamics_sharp.h</text>
</a>
</g>
</g>
<!-- Node12&#45;&gt;Node13 -->
<g id="edge16_Node000012_Node000013" class="edge">
<title>Node12&#45;&gt;Node13</title>
<g id="a_edge16_Node000012_Node000013"><a xlink:title=" ">
<path fill="none" stroke="#63b8ff" d="M868.02,-254.6C899.99,-241.12 939.73,-224.37 970.04,-211.59"/>
<polygon fill="#63b8ff" stroke="#63b8ff" points="866.65,-251.38 858.79,-258.49 869.37,-257.83 866.65,-251.38"/>
</a>
</g>
</g>
<!-- Node15 -->
<g id="Node000015" class="node">
<title>Node15</title>
<g id="a_Node000015"><a xlink:href="ib__particles__dem_8cc.html" target="_top" xlink:title=" ">
<polygon fill="white" stroke="#666666" points="930,-211.5 793,-211.5 793,-170.5 930,-170.5 930,-211.5"/>
<text text-anchor="start" x="801" y="-199.5" font-family="Helvetica,sans-Serif" font-size="10.00">/home/runner/work/lethe</text>
<text text-anchor="start" x="801" y="-188.5" font-family="Helvetica,sans-Serif" font-size="10.00">/lethe/source/fem&#45;dem</text>
<text text-anchor="middle" x="861.5" y="-177.5" font-family="Helvetica,sans-Serif" font-size="10.00">/ib_particles_dem.cc</text>
</a>
</g>
</g>
<!-- Node12&#45;&gt;Node15 -->
<g id="edge18_Node000012_Node000015" class="edge">
<title>Node12&#45;&gt;Node15</title>
<g id="a_edge18_Node000012_Node000015"><a xlink:title=" ">
<path fill="none" stroke="#63b8ff" d="M828.76,-249.46C835.81,-237.09 843.89,-222.91 850.26,-211.74"/>
<polygon fill="#63b8ff" stroke="#63b8ff" points="825.53,-248.06 823.62,-258.49 831.61,-251.53 825.53,-248.06"/>
</a>
</g>
</g>
<!-- Node14 -->
<g id="Node000014" class="node">
<title>Node14</title>
<g id="a_Node000014"><a xlink:href="fluid__dynamics__sharp_8cc.html" target="_top" xlink:title=" ">
<polygon fill="white" stroke="#666666" points="1086,-123.5 947,-123.5 947,-82.5 1086,-82.5 1086,-123.5"/>
<text text-anchor="start" x="955" y="-111.5" font-family="Helvetica,sans-Serif" font-size="10.00">/home/runner/work/lethe</text>
<text text-anchor="start" x="955" y="-100.5" font-family="Helvetica,sans-Serif" font-size="10.00">/lethe/source/fem&#45;dem</text>
<text text-anchor="middle" x="1016.5" y="-89.5" font-family="Helvetica,sans-Serif" font-size="10.00">/fluid_dynamics_sharp.cc</text>
</a>
</g>
</g>
<!-- Node13&#45;&gt;Node14 -->
<g id="edge17_Node000013_Node000014" class="edge">
<title>Node13&#45;&gt;Node14</title>
<g id="a_edge17_Node000013_Node000014"><a xlink:title=" ">
<path fill="none" stroke="#63b8ff" d="M1016.5,-160.36C1016.5,-148.26 1016.5,-134.58 1016.5,-123.74"/>
<polygon fill="#63b8ff" stroke="#63b8ff" points="1013,-160.49 1016.5,-170.49 1020,-160.49 1013,-160.49"/>
</a>
</g>
</g>
</g>
</svg>
