<?xml version="1.0" encoding="UTF-8" standalone="no"?>
<!DOCTYPE svg PUBLIC "-//W3C//DTD SVG 1.1//EN"
 "http://www.w3.org/Graphics/SVG/1.1/DTD/svg11.dtd">
<!-- Generated by graphviz version 2.43.0 (0)
 -->
<!-- Title: /home/runner/work/lethe/lethe/include/dem/particle_particle_broad_search.h Pages: 1 -->
<svg width="2035pt" height="379pt"
 viewBox="0.00 0.00 2034.50 379.00" xmlns="http://www.w3.org/2000/svg" xmlns:xlink="http://www.w3.org/1999/xlink">
<g id="graph0" class="graph" transform="scale(1 1) rotate(0) translate(4 375)">
<title>/home/runner/work/lethe/lethe/include/dem/particle_particle_broad_search.h</title>
<!-- Node1 -->
<g id="Node000001" class="node">
<title>Node1</title>
<g id="a_Node000001"><a xlink:title=" ">
<polygon fill="#999999" stroke="#666666" points="1132.5,-371 985.5,-371 985.5,-330 1132.5,-330 1132.5,-371"/>
<text text-anchor="start" x="993.5" y="-359" font-family="Helvetica,sans-Serif" font-size="10.00">/home/runner/work/lethe</text>
<text text-anchor="start" x="993.5" y="-348" font-family="Helvetica,sans-Serif" font-size="10.00">/lethe/include/dem/particle</text>
<text text-anchor="middle" x="1059" y="-337" font-family="Helvetica,sans-Serif" font-size="10.00">_particle_broad_search.h</text>
</a>
</g>
</g>
<!-- Node2 -->
<g id="Node000002" class="node">
<title>Node2</title>
<g id="a_Node000002"><a xlink:href="adaptive__sparse__contacts_8h.html" target="_top" xlink:title=" ">
<polygon fill="white" stroke="#666666" points="1120,-294 998,-294 998,-264 1120,-264 1120,-294"/>
<text text-anchor="start" x="1006" y="-282" font-family="Helvetica,sans-Serif" font-size="10.00">dem/adaptive_sparse</text>
<text text-anchor="middle" x="1059" y="-271" font-family="Helvetica,sans-Serif" font-size="10.00">_contacts.h</text>
</a>
</g>
</g>
<!-- Node1&#45;&gt;Node2 -->
<g id="edge1_Node000001_Node000002" class="edge">
<title>Node1&#45;&gt;Node2</title>
<g id="a_edge1_Node000001_Node000002"><a xlink:title=" ">
<path fill="none" stroke="#63b8ff" d="M1059,-329.77C1059,-321.85 1059,-312.63 1059,-304.3"/>
<polygon fill="#63b8ff" stroke="#63b8ff" points="1062.5,-304.04 1059,-294.04 1055.5,-304.04 1062.5,-304.04"/>
</a>
</g>
</g>
<!-- Node3 -->
<g id="Node000003" class="node">
<title>Node3</title>
<g id="a_Node000003"><a xlink:href="data__containers_8h.html" target="_top" xlink:title=" ">
<polygon fill="white" stroke="#666666" points="587,-222.5 459,-222.5 459,-203.5 587,-203.5 587,-222.5"/>
<text text-anchor="middle" x="523" y="-210.5" font-family="Helvetica,sans-Serif" font-size="10.00">dem/data_containers.h</text>
</a>
</g>
</g>
<!-- Node1&#45;&gt;Node3 -->
<g id="edge46_Node000001_Node000003" class="edge">
<title>Node1&#45;&gt;Node3</title>
<g id="a_edge46_Node000001_Node000003"><a xlink:title=" ">
<path fill="none" stroke="#63b8ff" d="M985.26,-340.1C921.13,-331.07 826.04,-315.59 745,-294 674.45,-275.2 594.54,-243.81 552.49,-226.46"/>
<polygon fill="#63b8ff" stroke="#63b8ff" points="553.71,-223.18 543.14,-222.58 551.03,-229.64 553.71,-223.18"/>
</a>
</g>
</g>
<!-- Node14 -->
<g id="Node000014" class="node">
<title>Node14</title>
<g id="a_Node000014"><a xlink:title=" ">
<polygon fill="#e0e0e0" stroke="#999999" points="513.5,-96 382.5,-96 382.5,-66 513.5,-66 513.5,-96"/>
<text text-anchor="start" x="390.5" y="-84" font-family="Helvetica,sans-Serif" font-size="10.00">deal.II/particles/particle</text>
<text text-anchor="middle" x="448" y="-73" font-family="Helvetica,sans-Serif" font-size="10.00">_iterator.h</text>
</a>
</g>
</g>
<!-- Node1&#45;&gt;Node14 -->
<g id="edge49_Node000001_Node000014" class="edge">
<title>Node1&#45;&gt;Node14</title>
<g id="a_edge49_Node000001_Node000014"><a xlink:title=" ">
<path fill="none" stroke="#63b8ff" d="M985.21,-334.15C922.67,-317.66 834.39,-285.66 778,-228 745.8,-195.08 774.95,-160.78 739,-132 665.47,-73.14 621.72,-110.35 523.8,-95.98"/>
<polygon fill="#63b8ff" stroke="#63b8ff" points="524.27,-92.51 513.84,-94.36 523.15,-99.42 524.27,-92.51"/>
</a>
</g>
</g>
<!-- Node33 -->
<g id="Node000033" class="node">
<title>Node33</title>
<g id="a_Node000033"><a xlink:title=" ">
<polygon fill="#e0e0e0" stroke="#999999" points="1591.5,-228 1460.5,-228 1460.5,-198 1591.5,-198 1591.5,-228"/>
<text text-anchor="start" x="1468.5" y="-216" font-family="Helvetica,sans-Serif" font-size="10.00">deal.II/particles/particle</text>
<text text-anchor="middle" x="1526" y="-205" font-family="Helvetica,sans-Serif" font-size="10.00">_handler.h</text>
</a>
</g>
</g>
<!-- Node1&#45;&gt;Node33 -->
<g id="edge48_Node000001_Node000033" class="edge">
<title>Node1&#45;&gt;Node33</title>
<g id="a_edge48_Node000001_Node000033"><a xlink:title=" ">
<path fill="none" stroke="#63b8ff" d="M1083.69,-329.92C1115.47,-304.72 1166.7,-264.13 1167,-264 1282.21,-215.43 1322.39,-246.78 1446,-228 1447.29,-227.8 1448.6,-227.6 1449.91,-227.4"/>
<polygon fill="#63b8ff" stroke="#63b8ff" points="1450.79,-230.8 1460.12,-225.77 1449.69,-223.89 1450.79,-230.8"/>
</a>
</g>
</g>
<!-- Node34 -->
<g id="Node000034" class="node">
<title>Node34</title>
<g id="a_Node000034"><a xlink:title=" ">
<polygon fill="#e0e0e0" stroke="#999999" points="1316,-288.5 1176,-288.5 1176,-269.5 1316,-269.5 1316,-288.5"/>
<text text-anchor="middle" x="1246" y="-276.5" font-family="Helvetica,sans-Serif" font-size="10.00">deal.II/particles/particle.h</text>
</a>
</g>
</g>
<!-- Node1&#45;&gt;Node34 -->
<g id="edge47_Node000001_Node000034" class="edge">
<title>Node1&#45;&gt;Node34</title>
<g id="a_edge47_Node000001_Node000034"><a xlink:title=" ">
<path fill="none" stroke="#63b8ff" d="M1111.59,-329.96C1144.3,-317.8 1185.33,-302.55 1213.4,-292.11"/>
<polygon fill="#63b8ff" stroke="#63b8ff" points="1214.97,-295.27 1223.12,-288.5 1212.53,-288.71 1214.97,-295.27"/>
</a>
</g>
</g>
<!-- Node2&#45;&gt;Node3 -->
<g id="edge2_Node000002_Node000003" class="edge">
<title>Node2&#45;&gt;Node3</title>
<g id="a_edge2_Node000002_Node000003"><a xlink:title=" ">
<path fill="none" stroke="#63b8ff" d="M997.78,-270.69C898.79,-258.87 703.93,-235.6 597.21,-222.86"/>
<polygon fill="#63b8ff" stroke="#63b8ff" points="597.51,-219.37 587.16,-221.66 596.68,-226.32 597.51,-219.37"/>
</a>
</g>
</g>
<!-- Node11 -->
<g id="Node000011" class="node">
<title>Node11</title>
<g id="a_Node000011"><a xlink:title=" ">
<polygon fill="#e0e0e0" stroke="#999999" points="235.5,-90.5 120.5,-90.5 120.5,-71.5 235.5,-71.5 235.5,-90.5"/>
<text text-anchor="middle" x="178" y="-78.5" font-family="Helvetica,sans-Serif" font-size="10.00">deal.II/base/tensor.h</text>
</a>
</g>
</g>
<!-- Node2&#45;&gt;Node11 -->
<g id="edge39_Node000002_Node000011" class="edge">
<title>Node2&#45;&gt;Node11</title>
<g id="a_edge39_Node000002_Node000011"><a xlink:title=" ">
<path fill="none" stroke="#63b8ff" d="M997.95,-275.17C799.79,-265.36 184.14,-229.63 129,-162 111.9,-141.03 137.63,-113.59 157.8,-96.91"/>
<polygon fill="#63b8ff" stroke="#63b8ff" points="160.01,-99.61 165.69,-90.67 155.67,-94.12 160.01,-99.61"/>
</a>
</g>
</g>
<!-- Node12 -->
<g id="Node000012" class="node">
<title>Node12</title>
<g id="a_Node000012"><a xlink:title=" ">
<polygon fill="#e0e0e0" stroke="#999999" points="1961,-90.5 1821,-90.5 1821,-71.5 1961,-71.5 1961,-90.5"/>
<text text-anchor="middle" x="1891" y="-78.5" font-family="Helvetica,sans-Serif" font-size="10.00">deal.II/dofs/dof_handler.h</text>
</a>
</g>
</g>
<!-- Node2&#45;&gt;Node12 -->
<g id="edge40_Node000002_Node000012" class="edge">
<title>Node2&#45;&gt;Node12</title>
<g id="a_edge40_Node000002_Node000012"><a xlink:title=" ">
<path fill="none" stroke="#63b8ff" d="M1120.15,-265.31C1122.46,-264.86 1124.75,-264.42 1127,-264 1220.05,-246.45 1254.82,-275.04 1337,-228 1385.45,-200.27 1368.5,-157.81 1418,-132 1495.96,-91.36 1724.86,-107.68 1812,-96 1820.05,-94.92 1828.53,-93.61 1836.82,-92.22"/>
<polygon fill="#63b8ff" stroke="#63b8ff" points="1837.55,-95.65 1846.81,-90.51 1836.37,-88.75 1837.55,-95.65"/>
</a>
</g>
</g>
<!-- Node23 -->
<g id="Node000023" class="node">
<title>Node23</title>
<g id="a_Node000023"><a xlink:title=" ">
<polygon fill="#e0e0e0" stroke="#999999" points="2026.5,-90.5 1979.5,-90.5 1979.5,-71.5 2026.5,-71.5 2026.5,-90.5"/>
<text text-anchor="middle" x="2003" y="-78.5" font-family="Helvetica,sans-Serif" font-size="10.00">vector</text>
</a>
</g>
</g>
<!-- Node2&#45;&gt;Node23 -->
<g id="edge45_Node000002_Node000023" class="edge">
<title>Node2&#45;&gt;Node23</title>
<g id="a_edge45_Node000002_Node000023"><a xlink:title=" ">
<path fill="none" stroke="#63b8ff" d="M1120.13,-265.25C1122.45,-264.82 1124.75,-264.4 1127,-264 1232.76,-245.16 1261.72,-253.8 1366,-228 1405.3,-218.28 1412.93,-208.6 1452,-198 1678.45,-136.54 1745.69,-164.85 1970,-96 1971.68,-95.49 1973.38,-94.91 1975.1,-94.31"/>
<polygon fill="#63b8ff" stroke="#63b8ff" points="1976.71,-97.43 1984.75,-90.54 1974.16,-90.91 1976.71,-97.43"/>
</a>
</g>
</g>
<!-- Node29 -->
<g id="Node000029" class="node">
<title>Node29</title>
<g id="a_Node000029"><a xlink:href="dem__action__manager_8h.html" target="_top" xlink:title=" ">
<polygon fill="white" stroke="#666666" points="1214.5,-222.5 1059.5,-222.5 1059.5,-203.5 1214.5,-203.5 1214.5,-222.5"/>
<text text-anchor="middle" x="1137" y="-210.5" font-family="Helvetica,sans-Serif" font-size="10.00">dem/dem_action_manager.h</text>
</a>
</g>
</g>
<!-- Node2&#45;&gt;Node29 -->
<g id="edge38_Node000002_Node000029" class="edge">
<title>Node2&#45;&gt;Node29</title>
<g id="a_edge38_Node000002_Node000029"><a xlink:title=" ">
<path fill="none" stroke="#63b8ff" d="M1076.31,-263.8C1088.71,-253.62 1105.4,-239.93 1118.13,-229.48"/>
<polygon fill="#63b8ff" stroke="#63b8ff" points="1120.71,-231.89 1126.22,-222.84 1116.27,-226.48 1120.71,-231.89"/>
</a>
</g>
</g>
<!-- Node30 -->
<g id="Node000030" class="node">
<title>Node30</title>
<g id="a_Node000030"><a xlink:title=" ">
<polygon fill="#e0e0e0" stroke="#999999" points="1327.5,-228 1232.5,-228 1232.5,-198 1327.5,-198 1327.5,-228"/>
<text text-anchor="start" x="1240.5" y="-216" font-family="Helvetica,sans-Serif" font-size="10.00">deal.II/lac/affine</text>
<text text-anchor="middle" x="1280" y="-205" font-family="Helvetica,sans-Serif" font-size="10.00">_constraints.h</text>
</a>
</g>
</g>
<!-- Node2&#45;&gt;Node30 -->
<g id="edge41_Node000002_Node000030" class="edge">
<title>Node2&#45;&gt;Node30</title>
<g id="a_edge41_Node000002_Node000030"><a xlink:title=" ">
<path fill="none" stroke="#63b8ff" d="M1107.5,-263.95C1141.41,-254.13 1186.85,-240.98 1222.57,-230.63"/>
<polygon fill="#63b8ff" stroke="#63b8ff" points="1223.74,-233.94 1232.37,-227.79 1221.79,-227.21 1223.74,-233.94"/>
</a>
</g>
</g>
<!-- Node31 -->
<g id="Node000031" class="node">
<title>Node31</title>
<g id="a_Node000031"><a xlink:title=" ">
<polygon fill="#e0e0e0" stroke="#999999" points="905,-228 787,-228 787,-198 905,-198 905,-228"/>
<text text-anchor="start" x="795" y="-216" font-family="Helvetica,sans-Serif" font-size="10.00">deal.II/lac/la_parallel</text>
<text text-anchor="middle" x="846" y="-205" font-family="Helvetica,sans-Serif" font-size="10.00">_vector.h</text>
</a>
</g>
</g>
<!-- Node2&#45;&gt;Node31 -->
<g id="edge42_Node000002_Node000031" class="edge">
<title>Node2&#45;&gt;Node31</title>
<g id="a_edge42_Node000002_Node000031"><a xlink:title=" ">
<path fill="none" stroke="#63b8ff" d="M1012.26,-263.95C979.93,-254.24 936.75,-241.27 902.5,-230.98"/>
<polygon fill="#63b8ff" stroke="#63b8ff" points="903.22,-227.54 892.63,-228.01 901.2,-234.24 903.22,-227.54"/>
</a>
</g>
</g>
<!-- Node32 -->
<g id="Node000032" class="node">
<title>Node32</title>
<g id="a_Node000032"><a xlink:title=" ">
<polygon fill="#e0e0e0" stroke="#999999" points="1041,-228 923,-228 923,-198 1041,-198 1041,-228"/>
<text text-anchor="start" x="931" y="-216" font-family="Helvetica,sans-Serif" font-size="10.00">deal.II/lac/la_parallel</text>
<text text-anchor="middle" x="982" y="-205" font-family="Helvetica,sans-Serif" font-size="10.00">_vector.templates.h</text>
</a>
</g>
</g>
<!-- Node2&#45;&gt;Node32 -->
<g id="edge43_Node000002_Node000032" class="edge">
<title>Node2&#45;&gt;Node32</title>
<g id="a_edge43_Node000002_Node000032"><a xlink:title=" ">
<path fill="none" stroke="#63b8ff" d="M1041.91,-263.8C1031.64,-255.26 1018.4,-244.25 1006.97,-234.75"/>
<polygon fill="#63b8ff" stroke="#63b8ff" points="1008.97,-231.86 999.04,-228.16 1004.49,-237.25 1008.97,-231.86"/>
</a>
</g>
</g>
<!-- Node2&#45;&gt;Node33 -->
<g id="edge44_Node000002_Node000033" class="edge">
<title>Node2&#45;&gt;Node33</title>
<g id="a_edge44_Node000002_Node000033"><a xlink:title=" ">
<path fill="none" stroke="#63b8ff" d="M1120.34,-266.19C1124.95,-265.41 1129.55,-264.67 1134,-264 1272.03,-243.18 1307.86,-248.04 1446,-228 1447.3,-227.81 1448.6,-227.62 1449.92,-227.42"/>
<polygon fill="#63b8ff" stroke="#63b8ff" points="1450.78,-230.83 1460.13,-225.84 1449.71,-223.91 1450.78,-230.83"/>
</a>
</g>
</g>
<!-- Node4 -->
<g id="Node000004" class="node">
<title>Node4</title>
<g id="a_Node000004"><a xlink:href="utilities_8h.html" target="_top" xlink:title=" ">
<polygon fill="white" stroke="#666666" points="910,-156.5 824,-156.5 824,-137.5 910,-137.5 910,-156.5"/>
<text text-anchor="middle" x="867" y="-144.5" font-family="Helvetica,sans-Serif" font-size="10.00">core/utilities.h</text>
</a>
</g>
</g>
<!-- Node3&#45;&gt;Node4 -->
<g id="edge3_Node000003_Node000004" class="edge">
<title>Node3&#45;&gt;Node4</title>
<g id="a_edge3_Node000003_Node000004"><a xlink:title=" ">
<path fill="none" stroke="#63b8ff" d="M569.04,-203.44C632.6,-191.61 746.96,-170.33 814.01,-157.86"/>
<polygon fill="#63b8ff" stroke="#63b8ff" points="814.75,-161.28 823.94,-156.01 813.47,-154.4 814.75,-161.28"/>
</a>
</g>
</g>
<!-- Node3&#45;&gt;Node11 -->
<g id="edge32_Node000003_Node000011" class="edge">
<title>Node3&#45;&gt;Node11</title>
<g id="a_edge32_Node000003_Node000011"><a xlink:title=" ">
<path fill="none" stroke="#63b8ff" d="M458.9,-205.05C413.21,-198.33 351.25,-185.57 301,-162 281.2,-152.71 280.09,-144.28 262,-132 242.45,-118.73 219.32,-105.11 202.29,-95.44"/>
<polygon fill="#63b8ff" stroke="#63b8ff" points="203.94,-92.35 193.51,-90.5 200.51,-98.45 203.94,-92.35"/>
</a>
</g>
</g>
<!-- Node3&#45;&gt;Node14 -->
<g id="edge34_Node000003_Node000014" class="edge">
<title>Node3&#45;&gt;Node14</title>
<g id="a_edge34_Node000003_Node000014"><a xlink:title=" ">
<path fill="none" stroke="#63b8ff" d="M509.3,-203.4C496.4,-194.59 477.54,-179.69 467,-162 456.87,-145 452.14,-122.95 449.93,-106.31"/>
<polygon fill="#63b8ff" stroke="#63b8ff" points="453.4,-105.81 448.81,-96.26 446.44,-106.58 453.4,-105.81"/>
</a>
</g>
</g>
<!-- Node3&#45;&gt;Node23 -->
<g id="edge36_Node000003_Node000023" class="edge">
<title>Node3&#45;&gt;Node23</title>
<g id="a_edge36_Node000003_Node000023"><a xlink:title=" ">
<path fill="none" stroke="#63b8ff" d="M587.26,-205.72C734.25,-191.48 1106.34,-156.09 1418,-132 1663.12,-113.05 1730.8,-152.81 1970,-96 1972.16,-95.49 1974.37,-94.84 1976.56,-94.12"/>
<polygon fill="#63b8ff" stroke="#63b8ff" points="1977.81,-97.38 1985.9,-90.54 1975.31,-90.85 1977.81,-97.38"/>
</a>
</g>
</g>
<!-- Node24 -->
<g id="Node000024" class="node">
<title>Node24</title>
<g id="a_Node000024"><a xlink:href="boundary__cells__info__struct_8h.html" target="_top" xlink:title=" ">
<polygon fill="white" stroke="#666666" points="253.5,-162 138.5,-162 138.5,-132 253.5,-132 253.5,-162"/>
<text text-anchor="start" x="146.5" y="-150" font-family="Helvetica,sans-Serif" font-size="10.00">dem/boundary_cells</text>
<text text-anchor="middle" x="196" y="-139" font-family="Helvetica,sans-Serif" font-size="10.00">_info_struct.h</text>
</a>
</g>
</g>
<!-- Node3&#45;&gt;Node24 -->
<g id="edge24_Node000003_Node000024" class="edge">
<title>Node3&#45;&gt;Node24</title>
<g id="a_edge24_Node000003_Node000024"><a xlink:title=" ">
<path fill="none" stroke="#63b8ff" d="M479.24,-203.44C423.98,-192.62 328.33,-173.9 263.64,-161.24"/>
<polygon fill="#63b8ff" stroke="#63b8ff" points="264.02,-157.75 253.53,-159.26 262.67,-164.62 264.02,-157.75"/>
</a>
</g>
</g>
<!-- Node25 -->
<g id="Node000025" class="node">
<title>Node25</title>
<g id="a_Node000025"><a xlink:title=" ">
<polygon fill="#e0e0e0" stroke="#999999" points="102,-96 0,-96 0,-66 102,-66 102,-96"/>
<text text-anchor="start" x="8" y="-84" font-family="Helvetica,sans-Serif" font-size="10.00">deal.II/distributed</text>
<text text-anchor="middle" x="51" y="-73" font-family="Helvetica,sans-Serif" font-size="10.00">/tria.h</text>
</a>
</g>
</g>
<!-- Node3&#45;&gt;Node25 -->
<g id="edge33_Node000003_Node000025" class="edge">
<title>Node3&#45;&gt;Node25</title>
<g id="a_edge33_Node000003_Node000025"><a xlink:title=" ">
<path fill="none" stroke="#63b8ff" d="M458.93,-208.98C362.54,-203.59 185.47,-190.13 129,-162 102.62,-148.86 80.08,-123.14 66.11,-104.4"/>
<polygon fill="#63b8ff" stroke="#63b8ff" points="68.82,-102.17 60.14,-96.1 63.14,-106.26 68.82,-102.17"/>
</a>
</g>
</g>
<!-- Node26 -->
<g id="Node000026" class="node">
<title>Node26</title>
<g id="a_Node000026"><a xlink:href="contact__info_8h.html" target="_top" xlink:title=" ">
<polygon fill="white" stroke="#666666" points="420,-156.5 310,-156.5 310,-137.5 420,-137.5 420,-156.5"/>
<text text-anchor="middle" x="365" y="-144.5" font-family="Helvetica,sans-Serif" font-size="10.00">dem/contact_info.h</text>
</a>
</g>
</g>
<!-- Node3&#45;&gt;Node26 -->
<g id="edge28_Node000003_Node000026" class="edge">
<title>Node3&#45;&gt;Node26</title>
<g id="a_edge28_Node000003_Node000026"><a xlink:title=" ">
<path fill="none" stroke="#63b8ff" d="M501.69,-203.37C474.4,-192.32 426.93,-173.08 395.73,-160.45"/>
<polygon fill="#63b8ff" stroke="#63b8ff" points="396.81,-157.11 386.22,-156.6 394.18,-163.59 396.81,-157.11"/>
</a>
</g>
</g>
<!-- Node27 -->
<g id="Node000027" class="node">
<title>Node27</title>
<g id="a_Node000027"><a xlink:title=" ">
<polygon fill="#e0e0e0" stroke="#999999" points="569.5,-156.5 476.5,-156.5 476.5,-137.5 569.5,-137.5 569.5,-156.5"/>
<text text-anchor="middle" x="523" y="-144.5" font-family="Helvetica,sans-Serif" font-size="10.00">unordered_map</text>
</a>
</g>
</g>
<!-- Node3&#45;&gt;Node27 -->
<g id="edge35_Node000003_Node000027" class="edge">
<title>Node3&#45;&gt;Node27</title>
<g id="a_edge35_Node000003_Node000027"><a xlink:title=" ">
<path fill="none" stroke="#63b8ff" d="M523,-203.37C523,-194.16 523,-179.29 523,-167.27"/>
<polygon fill="#63b8ff" stroke="#63b8ff" points="526.5,-166.91 523,-156.91 519.5,-166.91 526.5,-166.91"/>
</a>
</g>
</g>
<!-- Node28 -->
<g id="Node000028" class="node">
<title>Node28</title>
<g id="a_Node000028"><a xlink:href="unordered__dense_8h.html" target="_top" xlink:title=" ">
<polygon fill="white" stroke="#666666" points="730.5,-156.5 587.5,-156.5 587.5,-137.5 730.5,-137.5 730.5,-156.5"/>
<text text-anchor="middle" x="659" y="-144.5" font-family="Helvetica,sans-Serif" font-size="10.00">ankerl/unordered_dense.h</text>
</a>
</g>
</g>
<!-- Node3&#45;&gt;Node28 -->
<g id="edge37_Node000003_Node000028" class="edge">
<title>Node3&#45;&gt;Node28</title>
<g id="a_edge37_Node000003_Node000028"><a xlink:title=" ">
<path fill="none" stroke="#63b8ff" d="M541.34,-203.37C564.46,-192.49 604.41,-173.69 631.27,-161.05"/>
<polygon fill="#63b8ff" stroke="#63b8ff" points="632.96,-164.12 640.51,-156.7 629.98,-157.79 632.96,-164.12"/>
</a>
</g>
</g>
<!-- Node5 -->
<g id="Node000005" class="node">
<title>Node5</title>
<g id="a_Node000005"><a xlink:href="output__struct_8h.html" target="_top" xlink:title=" ">
<polygon fill="white" stroke="#666666" points="924,-90.5 810,-90.5 810,-71.5 924,-71.5 924,-90.5"/>
<text text-anchor="middle" x="867" y="-78.5" font-family="Helvetica,sans-Serif" font-size="10.00">core/output_struct.h</text>
</a>
</g>
</g>
<!-- Node4&#45;&gt;Node5 -->
<g id="edge4_Node000004_Node000005" class="edge">
<title>Node4&#45;&gt;Node5</title>
<g id="a_edge4_Node000004_Node000005"><a xlink:title=" ">
<path fill="none" stroke="#63b8ff" d="M867,-137.37C867,-128.16 867,-113.29 867,-101.27"/>
<polygon fill="#63b8ff" stroke="#63b8ff" points="870.5,-100.91 867,-90.91 863.5,-100.91 870.5,-100.91"/>
</a>
</g>
</g>
<!-- Node6 -->
<g id="Node000006" class="node">
<title>Node6</title>
<g id="a_Node000006"><a xlink:title=" ">
<polygon fill="#e0e0e0" stroke="#999999" points="832.5,-30 731.5,-30 731.5,0 832.5,0 832.5,-30"/>
<text text-anchor="start" x="739.5" y="-18" font-family="Helvetica,sans-Serif" font-size="10.00">deal.II/base/table</text>
<text text-anchor="middle" x="782" y="-7" font-family="Helvetica,sans-Serif" font-size="10.00">_handler.h</text>
</a>
</g>
</g>
<!-- Node4&#45;&gt;Node6 -->
<g id="edge10_Node000004_Node000006" class="edge">
<title>Node4&#45;&gt;Node6</title>
<g id="a_edge10_Node000004_Node000006"><a xlink:title=" ">
<path fill="none" stroke="#63b8ff" d="M849.68,-137.34C834.52,-128.87 813.09,-114.54 801,-96 790.13,-79.32 785.46,-57.08 783.47,-40.28"/>
<polygon fill="#63b8ff" stroke="#63b8ff" points="786.93,-39.76 782.5,-30.14 779.97,-40.42 786.93,-39.76"/>
</a>
</g>
</g>
<!-- Node8 -->
<g id="Node000008" class="node">
<title>Node8</title>
<g id="a_Node000008"><a xlink:title=" ">
<polygon fill="#e0e0e0" stroke="#999999" points="1072,-96 942,-96 942,-66 1072,-66 1072,-96"/>
<text text-anchor="start" x="950" y="-84" font-family="Helvetica,sans-Serif" font-size="10.00">deal.II/base/conditional</text>
<text text-anchor="middle" x="1007" y="-73" font-family="Helvetica,sans-Serif" font-size="10.00">_ostream.h</text>
</a>
</g>
</g>
<!-- Node4&#45;&gt;Node8 -->
<g id="edge7_Node000004_Node000008" class="edge">
<title>Node4&#45;&gt;Node8</title>
<g id="a_edge7_Node000004_Node000008"><a xlink:title=" ">
<path fill="none" stroke="#63b8ff" d="M885.88,-137.37C906.49,-127.95 940.09,-112.59 966.68,-100.43"/>
<polygon fill="#63b8ff" stroke="#63b8ff" points="968.48,-103.46 976.12,-96.12 965.57,-97.09 968.48,-103.46"/>
</a>
</g>
</g>
<!-- Node9 -->
<g id="Node000009" class="node">
<title>Node9</title>
<g id="a_Node000009"><a xlink:title=" ">
<polygon fill="#e0e0e0" stroke="#999999" points="1217.5,-96 1090.5,-96 1090.5,-66 1217.5,-66 1217.5,-96"/>
<text text-anchor="start" x="1098.5" y="-84" font-family="Helvetica,sans-Serif" font-size="10.00">deal.II/base/parameter</text>
<text text-anchor="middle" x="1154" y="-73" font-family="Helvetica,sans-Serif" font-size="10.00">_handler.h</text>
</a>
</g>
</g>
<!-- Node4&#45;&gt;Node9 -->
<g id="edge8_Node000004_Node000009" class="edge">
<title>Node4&#45;&gt;Node9</title>
<g id="a_edge8_Node000004_Node000009"><a xlink:title=" ">
<path fill="none" stroke="#63b8ff" d="M905.41,-137.44C950.22,-127.44 1025.3,-110.7 1081.25,-98.22"/>
<polygon fill="#63b8ff" stroke="#63b8ff" points="1082.11,-101.62 1091.11,-96.02 1080.59,-94.79 1082.11,-101.62"/>
</a>
</g>
</g>
<!-- Node10 -->
<g id="Node000010" class="node">
<title>Node10</title>
<g id="a_Node000010"><a xlink:title=" ">
<polygon fill="#e0e0e0" stroke="#999999" points="364,-90.5 254,-90.5 254,-71.5 364,-71.5 364,-90.5"/>
<text text-anchor="middle" x="309" y="-78.5" font-family="Helvetica,sans-Serif" font-size="10.00">deal.II/base/point.h</text>
</a>
</g>
</g>
<!-- Node4&#45;&gt;Node10 -->
<g id="edge9_Node000004_Node000010" class="edge">
<title>Node4&#45;&gt;Node10</title>
<g id="a_edge9_Node000004_Node000010"><a xlink:title=" ">
<path fill="none" stroke="#63b8ff" d="M823.76,-141.15C798.96,-138.4 767.24,-134.93 739,-132 576.42,-115.11 534.45,-121.51 373,-96 367.03,-95.06 360.77,-93.9 354.61,-92.66"/>
<polygon fill="#63b8ff" stroke="#63b8ff" points="354.91,-89.15 344.4,-90.52 353.47,-96 354.91,-89.15"/>
</a>
</g>
</g>
<!-- Node4&#45;&gt;Node11 -->
<g id="edge11_Node000004_Node000011" class="edge">
<title>Node4&#45;&gt;Node11</title>
<g id="a_edge11_Node000004_Node000011"><a xlink:title=" ">
<path fill="none" stroke="#63b8ff" d="M823.79,-140.88C799,-138.04 767.27,-134.58 739,-132 519.77,-112.03 463,-126.58 245,-96 238.28,-95.06 231.22,-93.84 224.32,-92.51"/>
<polygon fill="#63b8ff" stroke="#63b8ff" points="224.85,-89.05 214.36,-90.52 223.47,-95.91 224.85,-89.05"/>
</a>
</g>
</g>
<!-- Node4&#45;&gt;Node12 -->
<g id="edge12_Node000004_Node000012" class="edge">
<title>Node4&#45;&gt;Node12</title>
<g id="a_edge12_Node000004_Node000012"><a xlink:title=" ">
<path fill="none" stroke="#63b8ff" d="M910.14,-144.42C1070.69,-138.44 1633.58,-116.45 1812,-96 1820.55,-95.02 1829.58,-93.7 1838.36,-92.25"/>
<polygon fill="#63b8ff" stroke="#63b8ff" points="1839.23,-95.65 1848.5,-90.52 1838.05,-88.75 1839.23,-95.65"/>
</a>
</g>
</g>
<!-- Node13 -->
<g id="Node000013" class="node">
<title>Node13</title>
<g id="a_Node000013"><a xlink:title=" ">
<polygon fill="#e0e0e0" stroke="#999999" points="1354.5,-90.5 1235.5,-90.5 1235.5,-71.5 1354.5,-71.5 1354.5,-90.5"/>
<text text-anchor="middle" x="1295" y="-78.5" font-family="Helvetica,sans-Serif" font-size="10.00">deal.II/fe/fe_values.h</text>
</a>
</g>
</g>
<!-- Node4&#45;&gt;Node13 -->
<g id="edge13_Node000004_Node000013" class="edge">
<title>Node4&#45;&gt;Node13</title>
<g id="a_edge13_Node000004_Node000013"><a xlink:title=" ">
<path fill="none" stroke="#63b8ff" d="M910.09,-140.94C977.77,-132.77 1113.05,-115.62 1227,-96 1233.16,-94.94 1239.61,-93.73 1245.99,-92.49"/>
<polygon fill="#63b8ff" stroke="#63b8ff" points="1246.77,-95.9 1255.89,-90.51 1245.4,-89.04 1246.77,-95.9"/>
</a>
</g>
</g>
<!-- Node4&#45;&gt;Node14 -->
<g id="edge14_Node000004_Node000014" class="edge">
<title>Node4&#45;&gt;Node14</title>
<g id="a_edge14_Node000004_Node000014"><a xlink:title=" ">
<path fill="none" stroke="#63b8ff" d="M823.95,-139.54C807.96,-137.16 789.65,-134.44 773,-132 665.07,-116.19 635.42,-114.4 523.8,-96.09"/>
<polygon fill="#63b8ff" stroke="#63b8ff" points="524.26,-92.62 513.82,-94.45 523.12,-99.53 524.26,-92.62"/>
</a>
</g>
</g>
<!-- Node15 -->
<g id="Node000015" class="node">
<title>Node15</title>
<g id="a_Node000015"><a xlink:title=" ">
<polygon fill="#e0e0e0" stroke="#999999" points="1477.5,-96 1372.5,-96 1372.5,-66 1477.5,-66 1477.5,-96"/>
<text text-anchor="start" x="1380.5" y="-84" font-family="Helvetica,sans-Serif" font-size="10.00">boost/archive/text</text>
<text text-anchor="middle" x="1425" y="-73" font-family="Helvetica,sans-Serif" font-size="10.00">_iarchive.hpp</text>
</a>
</g>
</g>
<!-- Node4&#45;&gt;Node15 -->
<g id="edge15_Node000004_Node000015" class="edge">
<title>Node4&#45;&gt;Node15</title>
<g id="a_edge15_Node000004_Node000015"><a xlink:title=" ">
<path fill="none" stroke="#63b8ff" d="M910.12,-143.49C994.98,-138.15 1189.75,-123.95 1362.16,-96.18"/>
<polygon fill="#63b8ff" stroke="#63b8ff" points="1362.87,-99.61 1372.18,-94.55 1361.75,-92.7 1362.87,-99.61"/>
</a>
</g>
</g>
<!-- Node16 -->
<g id="Node000016" class="node">
<title>Node16</title>
<g id="a_Node000016"><a xlink:title=" ">
<polygon fill="#e0e0e0" stroke="#999999" points="1600.5,-96 1495.5,-96 1495.5,-66 1600.5,-66 1600.5,-96"/>
<text text-anchor="start" x="1503.5" y="-84" font-family="Helvetica,sans-Serif" font-size="10.00">boost/archive/text</text>
<text text-anchor="middle" x="1548" y="-73" font-family="Helvetica,sans-Serif" font-size="10.00">_oarchive.hpp</text>
</a>
</g>
</g>
<!-- Node4&#45;&gt;Node16 -->
<g id="edge16_Node000004_Node000016" class="edge">
<title>Node4&#45;&gt;Node16</title>
<g id="a_edge16_Node000004_Node000016"><a xlink:title=" ">
<path fill="none" stroke="#63b8ff" d="M910.1,-144.68C1009.79,-141.15 1264.09,-129.53 1485.03,-96.17"/>
<polygon fill="#63b8ff" stroke="#63b8ff" points="1485.83,-99.59 1495.19,-94.61 1484.78,-92.67 1485.83,-99.59"/>
</a>
</g>
</g>
<!-- Node17 -->
<g id="Node000017" class="node">
<title>Node17</title>
<g id="a_Node000017"><a xlink:title=" ">
<polygon fill="#e0e0e0" stroke="#999999" points="1729,-96 1619,-96 1619,-66 1729,-66 1729,-96"/>
<text text-anchor="start" x="1627" y="-84" font-family="Helvetica,sans-Serif" font-size="10.00">boost/math/special</text>
<text text-anchor="middle" x="1674" y="-73" font-family="Helvetica,sans-Serif" font-size="10.00">_functions/erf.hpp</text>
</a>
</g>
</g>
<!-- Node4&#45;&gt;Node17 -->
<g id="edge17_Node000004_Node000017" class="edge">
<title>Node4&#45;&gt;Node17</title>
<g id="a_edge17_Node000004_Node000017"><a xlink:title=" ">
<path fill="none" stroke="#63b8ff" d="M910.36,-145.32C1023.72,-143.08 1338.2,-133.78 1608.92,-96"/>
<polygon fill="#63b8ff" stroke="#63b8ff" points="1609.52,-99.45 1618.94,-94.59 1608.55,-92.52 1609.52,-99.45"/>
</a>
</g>
</g>
<!-- Node18 -->
<g id="Node000018" class="node">
<title>Node18</title>
<g id="a_Node000018"><a xlink:title=" ">
<polygon fill="#e0e0e0" stroke="#999999" points="1802.5,-90.5 1747.5,-90.5 1747.5,-71.5 1802.5,-71.5 1802.5,-90.5"/>
<text text-anchor="middle" x="1775" y="-78.5" font-family="Helvetica,sans-Serif" font-size="10.00">fstream</text>
</a>
</g>
</g>
<!-- Node4&#45;&gt;Node18 -->
<g id="edge18_Node000004_Node000018" class="edge">
<title>Node4&#45;&gt;Node18</title>
<g id="a_edge18_Node000004_Node000018"><a xlink:title=" ">
<path fill="none" stroke="#63b8ff" d="M910.03,-145.26C1062.6,-142.36 1577.16,-130.2 1738,-96 1740.68,-95.43 1743.42,-94.7 1746.14,-93.87"/>
<polygon fill="#63b8ff" stroke="#63b8ff" points="1747.44,-97.12 1755.75,-90.55 1745.15,-90.51 1747.44,-97.12"/>
</a>
</g>
</g>
<!-- Node19 -->
<g id="Node000019" class="node">
<title>Node19</title>
<g id="a_Node000019"><a xlink:title=" ">
<polygon fill="#e0e0e0" stroke="#999999" points="570,-90.5 532,-90.5 532,-71.5 570,-71.5 570,-90.5"/>
<text text-anchor="middle" x="551" y="-78.5" font-family="Helvetica,sans-Serif" font-size="10.00">map</text>
</a>
</g>
</g>
<!-- Node4&#45;&gt;Node19 -->
<g id="edge19_Node000004_Node000019" class="edge">
<title>Node4&#45;&gt;Node19</title>
<g id="a_edge19_Node000004_Node000019"><a xlink:title=" ">
<path fill="none" stroke="#63b8ff" d="M823.71,-139.2C749.06,-127.36 601.87,-103.52 579,-96 577.78,-95.6 576.55,-95.15 575.31,-94.67"/>
<polygon fill="#63b8ff" stroke="#63b8ff" points="576.62,-91.42 566.06,-90.54 573.76,-97.81 576.62,-91.42"/>
</a>
</g>
</g>
<!-- Node20 -->
<g id="Node000020" class="node">
<title>Node20</title>
<g id="a_Node000020"><a xlink:title=" ">
<polygon fill="#e0e0e0" stroke="#999999" points="632,-90.5 588,-90.5 588,-71.5 632,-71.5 632,-90.5"/>
<text text-anchor="middle" x="610" y="-78.5" font-family="Helvetica,sans-Serif" font-size="10.00">regex</text>
</a>
</g>
</g>
<!-- Node4&#45;&gt;Node20 -->
<g id="edge20_Node000004_Node000020" class="edge">
<title>Node4&#45;&gt;Node20</title>
<g id="a_edge20_Node000004_Node000020"><a xlink:title=" ">
<path fill="none" stroke="#63b8ff" d="M823.8,-139.18C777.78,-131.28 703.16,-116.66 641,-96 639.6,-95.53 638.18,-95.03 636.75,-94.49"/>
<polygon fill="#63b8ff" stroke="#63b8ff" points="638.03,-91.23 627.45,-90.64 635.35,-97.7 638.03,-91.23"/>
</a>
</g>
</g>
<!-- Node21 -->
<g id="Node000021" class="node">
<title>Node21</title>
<g id="a_Node000021"><a xlink:title=" ">
<polygon fill="#e0e0e0" stroke="#999999" points="694,-90.5 650,-90.5 650,-71.5 694,-71.5 694,-90.5"/>
<text text-anchor="middle" x="672" y="-78.5" font-family="Helvetica,sans-Serif" font-size="10.00">string</text>
</a>
</g>
</g>
<!-- Node4&#45;&gt;Node21 -->
<g id="edge21_Node000004_Node000021" class="edge">
<title>Node4&#45;&gt;Node21</title>
<g id="a_edge21_Node000004_Node000021"><a xlink:title=" ">
<path fill="none" stroke="#63b8ff" d="M834.54,-137.43C801.15,-128.31 747.85,-112.88 703,-96 701.79,-95.54 700.56,-95.06 699.32,-94.56"/>
<polygon fill="#63b8ff" stroke="#63b8ff" points="700.44,-91.24 689.87,-90.54 697.7,-97.68 700.44,-91.24"/>
</a>
</g>
</g>
<!-- Node22 -->
<g id="Node000022" class="node">
<title>Node22</title>
<g id="a_Node000022"><a xlink:title=" ">
<polygon fill="#e0e0e0" stroke="#999999" points="753.5,-90.5 712.5,-90.5 712.5,-71.5 753.5,-71.5 753.5,-90.5"/>
<text text-anchor="middle" x="733" y="-78.5" font-family="Helvetica,sans-Serif" font-size="10.00">tuple</text>
</a>
</g>
</g>
<!-- Node4&#45;&gt;Node22 -->
<g id="edge22_Node000004_Node000022" class="edge">
<title>Node4&#45;&gt;Node22</title>
<g id="a_edge22_Node000004_Node000022"><a xlink:title=" ">
<path fill="none" stroke="#63b8ff" d="M848.93,-137.37C826.15,-126.49 786.78,-107.69 760.32,-95.05"/>
<polygon fill="#63b8ff" stroke="#63b8ff" points="761.75,-91.85 751.21,-90.7 758.73,-98.17 761.75,-91.85"/>
</a>
</g>
</g>
<!-- Node4&#45;&gt;Node23 -->
<g id="edge23_Node000004_Node000023" class="edge">
<title>Node4&#45;&gt;Node23</title>
<g id="a_edge23_Node000004_Node000023"><a xlink:title=" ">
<path fill="none" stroke="#63b8ff" d="M910.13,-144.95C1101.05,-140.18 1865.43,-119.74 1970,-96 1972.17,-95.51 1974.38,-94.88 1976.57,-94.16"/>
<polygon fill="#63b8ff" stroke="#63b8ff" points="1977.81,-97.43 1985.92,-90.61 1975.33,-90.89 1977.81,-97.43"/>
</a>
</g>
</g>
<!-- Node5&#45;&gt;Node6 -->
<g id="edge5_Node000005_Node000006" class="edge">
<title>Node5&#45;&gt;Node6</title>
<g id="a_edge5_Node000005_Node000006"><a xlink:title=" ">
<path fill="none" stroke="#63b8ff" d="M855.54,-71.37C843.68,-62.44 824.75,-48.19 809.06,-36.38"/>
<polygon fill="#63b8ff" stroke="#63b8ff" points="810.84,-33.33 800.75,-30.12 806.63,-38.93 810.84,-33.33"/>
</a>
</g>
</g>
<!-- Node7 -->
<g id="Node000007" class="node">
<title>Node7</title>
<g id="a_Node000007"><a xlink:title=" ">
<polygon fill="#e0e0e0" stroke="#999999" points="969.5,-30 850.5,-30 850.5,0 969.5,0 969.5,-30"/>
<text text-anchor="start" x="858.5" y="-18" font-family="Helvetica,sans-Serif" font-size="10.00">deal.II/numerics/data</text>
<text text-anchor="middle" x="910" y="-7" font-family="Helvetica,sans-Serif" font-size="10.00">_postprocessor.h</text>
</a>
</g>
</g>
<!-- Node5&#45;&gt;Node7 -->
<g id="edge6_Node000005_Node000007" class="edge">
<title>Node5&#45;&gt;Node7</title>
<g id="a_edge6_Node000005_Node000007"><a xlink:title=" ">
<path fill="none" stroke="#63b8ff" d="M872.8,-71.37C878.37,-63.08 887.03,-50.18 894.6,-38.92"/>
<polygon fill="#63b8ff" stroke="#63b8ff" points="897.68,-40.61 900.35,-30.36 891.87,-36.71 897.68,-40.61"/>
</a>
</g>
</g>
<!-- Node24&#45;&gt;Node10 -->
<g id="edge25_Node000024_Node000010" class="edge">
<title>Node24&#45;&gt;Node10</title>
<g id="a_edge25_Node000024_Node000010"><a xlink:title=" ">
<path fill="none" stroke="#63b8ff" d="M220.8,-131.95C239.92,-121.13 266.2,-106.24 285.09,-95.54"/>
<polygon fill="#63b8ff" stroke="#63b8ff" points="286.99,-98.49 293.96,-90.52 283.54,-92.4 286.99,-98.49"/>
</a>
</g>
</g>
<!-- Node24&#45;&gt;Node11 -->
<g id="edge26_Node000024_Node000011" class="edge">
<title>Node24&#45;&gt;Node11</title>
<g id="a_edge26_Node000024_Node000011"><a xlink:title=" ">
<path fill="none" stroke="#63b8ff" d="M192.01,-131.8C189.42,-122.6 186.02,-110.53 183.23,-100.58"/>
<polygon fill="#63b8ff" stroke="#63b8ff" points="186.56,-99.52 180.49,-90.84 179.83,-101.42 186.56,-99.52"/>
</a>
</g>
</g>
<!-- Node24&#45;&gt;Node25 -->
<g id="edge27_Node000024_Node000025" class="edge">
<title>Node24&#45;&gt;Node25</title>
<g id="a_edge27_Node000024_Node000025"><a xlink:title=" ">
<path fill="none" stroke="#63b8ff" d="M164.18,-131.95C143.03,-122.62 115.04,-110.27 92.19,-100.18"/>
<polygon fill="#63b8ff" stroke="#63b8ff" points="93.31,-96.85 82.75,-96.01 90.48,-103.25 93.31,-96.85"/>
</a>
</g>
</g>
<!-- Node26&#45;&gt;Node10 -->
<g id="edge29_Node000026_Node000010" class="edge">
<title>Node26&#45;&gt;Node10</title>
<g id="a_edge29_Node000026_Node000010"><a xlink:title=" ">
<path fill="none" stroke="#63b8ff" d="M357.45,-137.37C348.81,-127.5 334.47,-111.11 323.63,-98.72"/>
<polygon fill="#63b8ff" stroke="#63b8ff" points="326.01,-96.13 316.79,-90.91 320.74,-100.74 326.01,-96.13"/>
</a>
</g>
</g>
<!-- Node26&#45;&gt;Node11 -->
<g id="edge30_Node000026_Node000011" class="edge">
<title>Node26&#45;&gt;Node11</title>
<g id="a_edge30_Node000026_Node000011"><a xlink:title=" ">
<path fill="none" stroke="#63b8ff" d="M339.78,-137.37C307.07,-126.17 249.83,-106.58 212.94,-93.96"/>
<polygon fill="#63b8ff" stroke="#63b8ff" points="213.71,-90.52 203.12,-90.6 211.45,-97.15 213.71,-90.52"/>
</a>
</g>
</g>
<!-- Node26&#45;&gt;Node14 -->
<g id="edge31_Node000026_Node000014" class="edge">
<title>Node26&#45;&gt;Node14</title>
<g id="a_edge31_Node000026_Node000014"><a xlink:title=" ">
<path fill="none" stroke="#63b8ff" d="M376.19,-137.37C387.77,-128.44 406.26,-114.19 421.57,-102.38"/>
<polygon fill="#63b8ff" stroke="#63b8ff" points="423.91,-104.99 429.69,-96.12 419.64,-99.45 423.91,-104.99"/>
</a>
</g>
</g>
</g>
</svg>
