<?xml version="1.0" encoding="UTF-8" standalone="no"?>
<!DOCTYPE svg PUBLIC "-//W3C//DTD SVG 1.1//EN"
 "http://www.w3.org/Graphics/SVG/1.1/DTD/svg11.dtd">
<!-- Generated by graphviz version 2.43.0 (0)
 -->
<!-- Title: /home/runner/work/lethe/lethe/include/dem/particle_particle_broad_search.h Pages: 1 -->
<svg width="1844pt" height="379pt"
 viewBox="0.00 0.00 1843.50 379.00" xmlns="http://www.w3.org/2000/svg" xmlns:xlink="http://www.w3.org/1999/xlink">
<g id="graph0" class="graph" transform="scale(1 1) rotate(0) translate(4 375)">
<title>/home/runner/work/lethe/lethe/include/dem/particle_particle_broad_search.h</title>
<!-- Node1 -->
<g id="Node000001" class="node">
<title>Node1</title>
<g id="a_Node000001"><a xlink:title=" ">
<polygon fill="#999999" stroke="#666666" points="1132.5,-371 985.5,-371 985.5,-330 1132.5,-330 1132.5,-371"/>
<text text-anchor="start" x="993.5" y="-359" font-family="Helvetica,sans-Serif" font-size="10.00">/home/runner/work/lethe</text>
<text text-anchor="start" x="993.5" y="-348" font-family="Helvetica,sans-Serif" font-size="10.00">/lethe/include/dem/particle</text>
<text text-anchor="middle" x="1059" y="-337" font-family="Helvetica,sans-Serif" font-size="10.00">_particle_broad_search.h</text>
</a>
</g>
</g>
<!-- Node2 -->
<g id="Node000002" class="node">
<title>Node2</title>
<g id="a_Node000002"><a xlink:href="adaptive__sparse__contacts_8h.html" target="_top" xlink:title=" ">
<polygon fill="white" stroke="#666666" points="1120,-294 998,-294 998,-264 1120,-264 1120,-294"/>
<text text-anchor="start" x="1006" y="-282" font-family="Helvetica,sans-Serif" font-size="10.00">dem/adaptive_sparse</text>
<text text-anchor="middle" x="1059" y="-271" font-family="Helvetica,sans-Serif" font-size="10.00">_contacts.h</text>
</a>
</g>
</g>
<!-- Node1&#45;&gt;Node2 -->
<g id="edge1_Node000001_Node000002" class="edge">
<title>Node1&#45;&gt;Node2</title>
<g id="a_edge1_Node000001_Node000002"><a xlink:title=" ">
<path fill="none" stroke="#63b8ff" d="M1059,-329.77C1059,-321.85 1059,-312.63 1059,-304.3"/>
<polygon fill="#63b8ff" stroke="#63b8ff" points="1062.5,-304.04 1059,-294.04 1055.5,-304.04 1062.5,-304.04"/>
</a>
</g>
</g>
<!-- Node3 -->
<g id="Node000003" class="node">
<title>Node3</title>
<g id="a_Node000003"><a xlink:href="data__containers_8h.html" target="_top" xlink:title=" ">
<polygon fill="white" stroke="#666666" points="587,-222.5 459,-222.5 459,-203.5 587,-203.5 587,-222.5"/>
<text text-anchor="middle" x="523" y="-210.5" font-family="Helvetica,sans-Serif" font-size="10.00">dem/data_containers.h</text>
</a>
</g>
</g>
<!-- Node1&#45;&gt;Node3 -->
<g id="edge44_Node000001_Node000003" class="edge">
<title>Node1&#45;&gt;Node3</title>
<g id="a_edge44_Node000001_Node000003"><a xlink:title=" ">
<path fill="none" stroke="#63b8ff" d="M985.26,-340.1C921.13,-331.07 826.04,-315.59 745,-294 674.45,-275.2 594.54,-243.81 552.49,-226.46"/>
<polygon fill="#63b8ff" stroke="#63b8ff" points="553.71,-223.18 543.14,-222.58 551.03,-229.64 553.71,-223.18"/>
</a>
</g>
</g>
<!-- Node14 -->
<g id="Node000014" class="node">
<title>Node14</title>
<g id="a_Node000014"><a xlink:title=" ">
<polygon fill="#e0e0e0" stroke="#999999" points="513.5,-96 382.5,-96 382.5,-66 513.5,-66 513.5,-96"/>
<text text-anchor="start" x="390.5" y="-84" font-family="Helvetica,sans-Serif" font-size="10.00">deal.II/particles/particle</text>
<text text-anchor="middle" x="448" y="-73" font-family="Helvetica,sans-Serif" font-size="10.00">_iterator.h</text>
</a>
</g>
</g>
<!-- Node1&#45;&gt;Node14 -->
<g id="edge47_Node000001_Node000014" class="edge">
<title>Node1&#45;&gt;Node14</title>
<g id="a_edge47_Node000001_Node000014"><a xlink:title=" ">
<path fill="none" stroke="#63b8ff" d="M985.21,-334.15C922.67,-317.66 834.39,-285.66 778,-228 745.8,-195.08 774.95,-160.78 739,-132 665.47,-73.14 621.72,-110.35 523.8,-95.98"/>
<polygon fill="#63b8ff" stroke="#63b8ff" points="524.27,-92.51 513.84,-94.36 523.15,-99.42 524.27,-92.51"/>
</a>
</g>
</g>
<!-- Node31 -->
<g id="Node000031" class="node">
<title>Node31</title>
<g id="a_Node000031"><a xlink:title=" ">
<polygon fill="#e0e0e0" stroke="#999999" points="1591.5,-228 1460.5,-228 1460.5,-198 1591.5,-198 1591.5,-228"/>
<text text-anchor="start" x="1468.5" y="-216" font-family="Helvetica,sans-Serif" font-size="10.00">deal.II/particles/particle</text>
<text text-anchor="middle" x="1526" y="-205" font-family="Helvetica,sans-Serif" font-size="10.00">_handler.h</text>
</a>
</g>
</g>
<!-- Node1&#45;&gt;Node31 -->
<g id="edge46_Node000001_Node000031" class="edge">
<title>Node1&#45;&gt;Node31</title>
<g id="a_edge46_Node000001_Node000031"><a xlink:title=" ">
<path fill="none" stroke="#63b8ff" d="M1083.69,-329.92C1115.47,-304.72 1166.7,-264.13 1167,-264 1282.21,-215.43 1322.39,-246.78 1446,-228 1447.29,-227.8 1448.6,-227.6 1449.91,-227.4"/>
<polygon fill="#63b8ff" stroke="#63b8ff" points="1450.79,-230.8 1460.12,-225.77 1449.69,-223.89 1450.79,-230.8"/>
</a>
</g>
</g>
<!-- Node32 -->
<g id="Node000032" class="node">
<title>Node32</title>
<g id="a_Node000032"><a xlink:title=" ">
<polygon fill="#e0e0e0" stroke="#999999" points="1316,-288.5 1176,-288.5 1176,-269.5 1316,-269.5 1316,-288.5"/>
<text text-anchor="middle" x="1246" y="-276.5" font-family="Helvetica,sans-Serif" font-size="10.00">deal.II/particles/particle.h</text>
</a>
</g>
</g>
<!-- Node1&#45;&gt;Node32 -->
<g id="edge45_Node000001_Node000032" class="edge">
<title>Node1&#45;&gt;Node32</title>
<g id="a_edge45_Node000001_Node000032"><a xlink:title=" ">
<path fill="none" stroke="#63b8ff" d="M1111.59,-329.96C1144.3,-317.8 1185.33,-302.55 1213.4,-292.11"/>
<polygon fill="#63b8ff" stroke="#63b8ff" points="1214.97,-295.27 1223.12,-288.5 1212.53,-288.71 1214.97,-295.27"/>
</a>
</g>
</g>
<!-- Node2&#45;&gt;Node3 -->
<g id="edge2_Node000002_Node000003" class="edge">
<title>Node2&#45;&gt;Node3</title>
<g id="a_edge2_Node000002_Node000003"><a xlink:title=" ">
<path fill="none" stroke="#63b8ff" d="M997.78,-270.69C898.79,-258.87 703.93,-235.6 597.21,-222.86"/>
<polygon fill="#63b8ff" stroke="#63b8ff" points="597.51,-219.37 587.16,-221.66 596.68,-226.32 597.51,-219.37"/>
</a>
</g>
</g>
<!-- Node11 -->
<g id="Node000011" class="node">
<title>Node11</title>
<g id="a_Node000011"><a xlink:title=" ">
<polygon fill="#e0e0e0" stroke="#999999" points="235.5,-90.5 120.5,-90.5 120.5,-71.5 235.5,-71.5 235.5,-90.5"/>
<text text-anchor="middle" x="178" y="-78.5" font-family="Helvetica,sans-Serif" font-size="10.00">deal.II/base/tensor.h</text>
</a>
</g>
</g>
<!-- Node2&#45;&gt;Node11 -->
<g id="edge37_Node000002_Node000011" class="edge">
<title>Node2&#45;&gt;Node11</title>
<g id="a_edge37_Node000002_Node000011"><a xlink:title=" ">
<path fill="none" stroke="#63b8ff" d="M997.95,-275.17C799.79,-265.36 184.14,-229.63 129,-162 111.9,-141.03 137.63,-113.59 157.8,-96.91"/>
<polygon fill="#63b8ff" stroke="#63b8ff" points="160.01,-99.61 165.69,-90.67 155.67,-94.12 160.01,-99.61"/>
</a>
</g>
</g>
<!-- Node12 -->
<g id="Node000012" class="node">
<title>Node12</title>
<g id="a_Node000012"><a xlink:title=" ">
<polygon fill="#e0e0e0" stroke="#999999" points="1770,-90.5 1630,-90.5 1630,-71.5 1770,-71.5 1770,-90.5"/>
<text text-anchor="middle" x="1700" y="-78.5" font-family="Helvetica,sans-Serif" font-size="10.00">deal.II/dofs/dof_handler.h</text>
</a>
</g>
</g>
<!-- Node2&#45;&gt;Node12 -->
<g id="edge38_Node000002_Node000012" class="edge">
<title>Node2&#45;&gt;Node12</title>
<g id="a_edge38_Node000002_Node000012"><a xlink:title=" ">
<path fill="none" stroke="#63b8ff" d="M1120.15,-265.31C1122.46,-264.86 1124.75,-264.42 1127,-264 1220.05,-246.45 1254.82,-275.04 1337,-228 1385.45,-200.27 1369.63,-159.87 1418,-132 1418,-132 1559.27,-106.95 1641.83,-92.31"/>
<polygon fill="#63b8ff" stroke="#63b8ff" points="1642.61,-95.73 1651.84,-90.54 1641.39,-88.84 1642.61,-95.73"/>
</a>
</g>
</g>
<!-- Node21 -->
<g id="Node000021" class="node">
<title>Node21</title>
<g id="a_Node000021"><a xlink:title=" ">
<polygon fill="#e0e0e0" stroke="#999999" points="1835.5,-90.5 1788.5,-90.5 1788.5,-71.5 1835.5,-71.5 1835.5,-90.5"/>
<text text-anchor="middle" x="1812" y="-78.5" font-family="Helvetica,sans-Serif" font-size="10.00">vector</text>
</a>
</g>
</g>
<!-- Node2&#45;&gt;Node21 -->
<g id="edge43_Node000002_Node000021" class="edge">
<title>Node2&#45;&gt;Node21</title>
<g id="a_edge43_Node000002_Node000021"><a xlink:title=" ">
<path fill="none" stroke="#63b8ff" d="M1120.13,-265.25C1122.45,-264.82 1124.75,-264.4 1127,-264 1232.76,-245.16 1261.72,-253.8 1366,-228 1405.3,-218.28 1413.56,-210.7 1452,-198 1596.56,-150.25 1636.08,-148.46 1779,-96 1780.39,-95.49 1781.8,-94.96 1783.23,-94.4"/>
<polygon fill="#63b8ff" stroke="#63b8ff" points="1784.63,-97.61 1792.58,-90.61 1782,-91.12 1784.63,-97.61"/>
</a>
</g>
</g>
<!-- Node27 -->
<g id="Node000027" class="node">
<title>Node27</title>
<g id="a_Node000027"><a xlink:href="dem__action__manager_8h.html" target="_top" xlink:title=" ">
<polygon fill="white" stroke="#666666" points="1214.5,-222.5 1059.5,-222.5 1059.5,-203.5 1214.5,-203.5 1214.5,-222.5"/>
<text text-anchor="middle" x="1137" y="-210.5" font-family="Helvetica,sans-Serif" font-size="10.00">dem/dem_action_manager.h</text>
</a>
</g>
</g>
<!-- Node2&#45;&gt;Node27 -->
<g id="edge36_Node000002_Node000027" class="edge">
<title>Node2&#45;&gt;Node27</title>
<g id="a_edge36_Node000002_Node000027"><a xlink:title=" ">
<path fill="none" stroke="#63b8ff" d="M1076.31,-263.8C1088.71,-253.62 1105.4,-239.93 1118.13,-229.48"/>
<polygon fill="#63b8ff" stroke="#63b8ff" points="1120.71,-231.89 1126.22,-222.84 1116.27,-226.48 1120.71,-231.89"/>
</a>
</g>
</g>
<!-- Node28 -->
<g id="Node000028" class="node">
<title>Node28</title>
<g id="a_Node000028"><a xlink:title=" ">
<polygon fill="#e0e0e0" stroke="#999999" points="1327.5,-228 1232.5,-228 1232.5,-198 1327.5,-198 1327.5,-228"/>
<text text-anchor="start" x="1240.5" y="-216" font-family="Helvetica,sans-Serif" font-size="10.00">deal.II/lac/affine</text>
<text text-anchor="middle" x="1280" y="-205" font-family="Helvetica,sans-Serif" font-size="10.00">_constraints.h</text>
</a>
</g>
</g>
<!-- Node2&#45;&gt;Node28 -->
<g id="edge39_Node000002_Node000028" class="edge">
<title>Node2&#45;&gt;Node28</title>
<g id="a_edge39_Node000002_Node000028"><a xlink:title=" ">
<path fill="none" stroke="#63b8ff" d="M1107.5,-263.95C1141.41,-254.13 1186.85,-240.98 1222.57,-230.63"/>
<polygon fill="#63b8ff" stroke="#63b8ff" points="1223.74,-233.94 1232.37,-227.79 1221.79,-227.21 1223.74,-233.94"/>
</a>
</g>
</g>
<!-- Node29 -->
<g id="Node000029" class="node">
<title>Node29</title>
<g id="a_Node000029"><a xlink:title=" ">
<polygon fill="#e0e0e0" stroke="#999999" points="905,-228 787,-228 787,-198 905,-198 905,-228"/>
<text text-anchor="start" x="795" y="-216" font-family="Helvetica,sans-Serif" font-size="10.00">deal.II/lac/la_parallel</text>
<text text-anchor="middle" x="846" y="-205" font-family="Helvetica,sans-Serif" font-size="10.00">_vector.h</text>
</a>
</g>
</g>
<!-- Node2&#45;&gt;Node29 -->
<g id="edge40_Node000002_Node000029" class="edge">
<title>Node2&#45;&gt;Node29</title>
<g id="a_edge40_Node000002_Node000029"><a xlink:title=" ">
<path fill="none" stroke="#63b8ff" d="M1012.26,-263.95C979.93,-254.24 936.75,-241.27 902.5,-230.98"/>
<polygon fill="#63b8ff" stroke="#63b8ff" points="903.22,-227.54 892.63,-228.01 901.2,-234.24 903.22,-227.54"/>
</a>
</g>
</g>
<!-- Node30 -->
<g id="Node000030" class="node">
<title>Node30</title>
<g id="a_Node000030"><a xlink:title=" ">
<polygon fill="#e0e0e0" stroke="#999999" points="1041,-228 923,-228 923,-198 1041,-198 1041,-228"/>
<text text-anchor="start" x="931" y="-216" font-family="Helvetica,sans-Serif" font-size="10.00">deal.II/lac/la_parallel</text>
<text text-anchor="middle" x="982" y="-205" font-family="Helvetica,sans-Serif" font-size="10.00">_vector.templates.h</text>
</a>
</g>
</g>
<!-- Node2&#45;&gt;Node30 -->
<g id="edge41_Node000002_Node000030" class="edge">
<title>Node2&#45;&gt;Node30</title>
<g id="a_edge41_Node000002_Node000030"><a xlink:title=" ">
<path fill="none" stroke="#63b8ff" d="M1041.91,-263.8C1031.64,-255.26 1018.4,-244.25 1006.97,-234.75"/>
<polygon fill="#63b8ff" stroke="#63b8ff" points="1008.97,-231.86 999.04,-228.16 1004.49,-237.25 1008.97,-231.86"/>
</a>
</g>
</g>
<!-- Node2&#45;&gt;Node31 -->
<g id="edge42_Node000002_Node000031" class="edge">
<title>Node2&#45;&gt;Node31</title>
<g id="a_edge42_Node000002_Node000031"><a xlink:title=" ">
<path fill="none" stroke="#63b8ff" d="M1120.34,-266.19C1124.95,-265.41 1129.55,-264.67 1134,-264 1272.03,-243.18 1307.86,-248.04 1446,-228 1447.3,-227.81 1448.6,-227.62 1449.92,-227.42"/>
<polygon fill="#63b8ff" stroke="#63b8ff" points="1450.78,-230.83 1460.13,-225.84 1449.71,-223.91 1450.78,-230.83"/>
</a>
</g>
</g>
<!-- Node4 -->
<g id="Node000004" class="node">
<title>Node4</title>
<g id="a_Node000004"><a xlink:href="core_2utilities_8h.html" target="_top" xlink:title=" ">
<polygon fill="white" stroke="#666666" points="932,-156.5 846,-156.5 846,-137.5 932,-137.5 932,-156.5"/>
<text text-anchor="middle" x="889" y="-144.5" font-family="Helvetica,sans-Serif" font-size="10.00">core/utilities.h</text>
</a>
</g>
</g>
<!-- Node3&#45;&gt;Node4 -->
<g id="edge3_Node000003_Node000004" class="edge">
<title>Node3&#45;&gt;Node4</title>
<g id="a_edge3_Node000003_Node000004"><a xlink:title=" ">
<path fill="none" stroke="#63b8ff" d="M571.98,-203.44C640.58,-191.44 764.8,-169.72 835.67,-157.33"/>
<polygon fill="#63b8ff" stroke="#63b8ff" points="836.48,-160.74 845.72,-155.57 835.27,-153.84 836.48,-160.74"/>
</a>
</g>
</g>
<!-- Node3&#45;&gt;Node11 -->
<g id="edge30_Node000003_Node000011" class="edge">
<title>Node3&#45;&gt;Node11</title>
<g id="a_edge30_Node000003_Node000011"><a xlink:title=" ">
<path fill="none" stroke="#63b8ff" d="M458.9,-205.05C413.21,-198.33 351.25,-185.57 301,-162 281.2,-152.71 280.09,-144.28 262,-132 242.45,-118.73 219.32,-105.11 202.29,-95.44"/>
<polygon fill="#63b8ff" stroke="#63b8ff" points="203.94,-92.35 193.51,-90.5 200.51,-98.45 203.94,-92.35"/>
</a>
</g>
</g>
<!-- Node3&#45;&gt;Node14 -->
<g id="edge32_Node000003_Node000014" class="edge">
<title>Node3&#45;&gt;Node14</title>
<g id="a_edge32_Node000003_Node000014"><a xlink:title=" ">
<path fill="none" stroke="#63b8ff" d="M509.3,-203.4C496.4,-194.59 477.54,-179.69 467,-162 456.87,-145 452.14,-122.95 449.93,-106.31"/>
<polygon fill="#63b8ff" stroke="#63b8ff" points="453.4,-105.81 448.81,-96.26 446.44,-106.58 453.4,-105.81"/>
</a>
</g>
</g>
<!-- Node3&#45;&gt;Node21 -->
<g id="edge34_Node000003_Node000021" class="edge">
<title>Node3&#45;&gt;Node21</title>
<g id="a_edge34_Node000003_Node000021"><a xlink:title=" ">
<path fill="none" stroke="#63b8ff" d="M587.07,-206.35C839.07,-184.1 1749.73,-103.37 1779,-96 1780.95,-95.51 1782.93,-94.92 1784.9,-94.27"/>
<polygon fill="#63b8ff" stroke="#63b8ff" points="1786.44,-97.43 1794.54,-90.59 1783.95,-90.88 1786.44,-97.43"/>
</a>
</g>
</g>
<!-- Node22 -->
<g id="Node000022" class="node">
<title>Node22</title>
<g id="a_Node000022"><a xlink:href="boundary__cells__info__struct_8h.html" target="_top" xlink:title=" ">
<polygon fill="white" stroke="#666666" points="253.5,-162 138.5,-162 138.5,-132 253.5,-132 253.5,-162"/>
<text text-anchor="start" x="146.5" y="-150" font-family="Helvetica,sans-Serif" font-size="10.00">dem/boundary_cells</text>
<text text-anchor="middle" x="196" y="-139" font-family="Helvetica,sans-Serif" font-size="10.00">_info_struct.h</text>
</a>
</g>
</g>
<!-- Node3&#45;&gt;Node22 -->
<g id="edge22_Node000003_Node000022" class="edge">
<title>Node3&#45;&gt;Node22</title>
<g id="a_edge22_Node000003_Node000022"><a xlink:title=" ">
<path fill="none" stroke="#63b8ff" d="M479.24,-203.44C423.98,-192.62 328.33,-173.9 263.64,-161.24"/>
<polygon fill="#63b8ff" stroke="#63b8ff" points="264.02,-157.75 253.53,-159.26 262.67,-164.62 264.02,-157.75"/>
</a>
</g>
</g>
<!-- Node23 -->
<g id="Node000023" class="node">
<title>Node23</title>
<g id="a_Node000023"><a xlink:title=" ">
<polygon fill="#e0e0e0" stroke="#999999" points="102,-96 0,-96 0,-66 102,-66 102,-96"/>
<text text-anchor="start" x="8" y="-84" font-family="Helvetica,sans-Serif" font-size="10.00">deal.II/distributed</text>
<text text-anchor="middle" x="51" y="-73" font-family="Helvetica,sans-Serif" font-size="10.00">/tria.h</text>
</a>
</g>
</g>
<!-- Node3&#45;&gt;Node23 -->
<g id="edge31_Node000003_Node000023" class="edge">
<title>Node3&#45;&gt;Node23</title>
<g id="a_edge31_Node000003_Node000023"><a xlink:title=" ">
<path fill="none" stroke="#63b8ff" d="M458.93,-208.98C362.54,-203.59 185.47,-190.13 129,-162 102.62,-148.86 80.08,-123.14 66.11,-104.4"/>
<polygon fill="#63b8ff" stroke="#63b8ff" points="68.82,-102.17 60.14,-96.1 63.14,-106.26 68.82,-102.17"/>
</a>
</g>
</g>
<!-- Node24 -->
<g id="Node000024" class="node">
<title>Node24</title>
<g id="a_Node000024"><a xlink:href="contact__info_8h.html" target="_top" xlink:title=" ">
<polygon fill="white" stroke="#666666" points="420,-156.5 310,-156.5 310,-137.5 420,-137.5 420,-156.5"/>
<text text-anchor="middle" x="365" y="-144.5" font-family="Helvetica,sans-Serif" font-size="10.00">dem/contact_info.h</text>
</a>
</g>
</g>
<!-- Node3&#45;&gt;Node24 -->
<g id="edge26_Node000003_Node000024" class="edge">
<title>Node3&#45;&gt;Node24</title>
<g id="a_edge26_Node000003_Node000024"><a xlink:title=" ">
<path fill="none" stroke="#63b8ff" d="M501.69,-203.37C474.4,-192.32 426.93,-173.08 395.73,-160.45"/>
<polygon fill="#63b8ff" stroke="#63b8ff" points="396.81,-157.11 386.22,-156.6 394.18,-163.59 396.81,-157.11"/>
</a>
</g>
</g>
<!-- Node25 -->
<g id="Node000025" class="node">
<title>Node25</title>
<g id="a_Node000025"><a xlink:title=" ">
<polygon fill="#e0e0e0" stroke="#999999" points="569.5,-156.5 476.5,-156.5 476.5,-137.5 569.5,-137.5 569.5,-156.5"/>
<text text-anchor="middle" x="523" y="-144.5" font-family="Helvetica,sans-Serif" font-size="10.00">unordered_map</text>
</a>
</g>
</g>
<!-- Node3&#45;&gt;Node25 -->
<g id="edge33_Node000003_Node000025" class="edge">
<title>Node3&#45;&gt;Node25</title>
<g id="a_edge33_Node000003_Node000025"><a xlink:title=" ">
<path fill="none" stroke="#63b8ff" d="M523,-203.37C523,-194.16 523,-179.29 523,-167.27"/>
<polygon fill="#63b8ff" stroke="#63b8ff" points="526.5,-166.91 523,-156.91 519.5,-166.91 526.5,-166.91"/>
</a>
</g>
</g>
<!-- Node26 -->
<g id="Node000026" class="node">
<title>Node26</title>
<g id="a_Node000026"><a xlink:href="unordered__dense_8h.html" target="_top" xlink:title=" ">
<polygon fill="white" stroke="#666666" points="730.5,-156.5 587.5,-156.5 587.5,-137.5 730.5,-137.5 730.5,-156.5"/>
<text text-anchor="middle" x="659" y="-144.5" font-family="Helvetica,sans-Serif" font-size="10.00">ankerl/unordered_dense.h</text>
</a>
</g>
</g>
<!-- Node3&#45;&gt;Node26 -->
<g id="edge35_Node000003_Node000026" class="edge">
<title>Node3&#45;&gt;Node26</title>
<g id="a_edge35_Node000003_Node000026"><a xlink:title=" ">
<path fill="none" stroke="#63b8ff" d="M541.34,-203.37C564.46,-192.49 604.41,-173.69 631.27,-161.05"/>
<polygon fill="#63b8ff" stroke="#63b8ff" points="632.96,-164.12 640.51,-156.7 629.98,-157.79 632.96,-164.12"/>
</a>
</g>
</g>
<!-- Node5 -->
<g id="Node000005" class="node">
<title>Node5</title>
<g id="a_Node000005"><a xlink:href="output__struct_8h.html" target="_top" xlink:title=" ">
<polygon fill="white" stroke="#666666" points="806,-90.5 692,-90.5 692,-71.5 806,-71.5 806,-90.5"/>
<text text-anchor="middle" x="749" y="-78.5" font-family="Helvetica,sans-Serif" font-size="10.00">core/output_struct.h</text>
</a>
</g>
</g>
<!-- Node4&#45;&gt;Node5 -->
<g id="edge4_Node000004_Node000005" class="edge">
<title>Node4&#45;&gt;Node5</title>
<g id="a_edge4_Node000004_Node000005"><a xlink:title=" ">
<path fill="none" stroke="#63b8ff" d="M870.12,-137.37C846.22,-126.44 804.83,-107.52 777.18,-94.88"/>
<polygon fill="#63b8ff" stroke="#63b8ff" points="778.58,-91.67 768.03,-90.7 775.67,-98.04 778.58,-91.67"/>
</a>
</g>
</g>
<!-- Node6 -->
<g id="Node000006" class="node">
<title>Node6</title>
<g id="a_Node000006"><a xlink:title=" ">
<polygon fill="#e0e0e0" stroke="#999999" points="714.5,-30 613.5,-30 613.5,0 714.5,0 714.5,-30"/>
<text text-anchor="start" x="621.5" y="-18" font-family="Helvetica,sans-Serif" font-size="10.00">deal.II/base/table</text>
<text text-anchor="middle" x="664" y="-7" font-family="Helvetica,sans-Serif" font-size="10.00">_handler.h</text>
</a>
</g>
</g>
<!-- Node4&#45;&gt;Node6 -->
<g id="edge10_Node000004_Node000006" class="edge">
<title>Node4&#45;&gt;Node6</title>
<g id="a_edge10_Node000004_Node000006"><a xlink:title=" ">
<path fill="none" stroke="#63b8ff" d="M845.62,-140.82C792.14,-133.55 705.52,-118.63 683,-96 668.57,-81.5 664.34,-58.18 663.42,-40.44"/>
<polygon fill="#63b8ff" stroke="#63b8ff" points="666.91,-40.18 663.2,-30.25 659.91,-40.33 666.91,-40.18"/>
</a>
</g>
</g>
<!-- Node8 -->
<g id="Node000008" class="node">
<title>Node8</title>
<g id="a_Node000008"><a xlink:title=" ">
<polygon fill="#e0e0e0" stroke="#999999" points="954,-96 824,-96 824,-66 954,-66 954,-96"/>
<text text-anchor="start" x="832" y="-84" font-family="Helvetica,sans-Serif" font-size="10.00">deal.II/base/conditional</text>
<text text-anchor="middle" x="889" y="-73" font-family="Helvetica,sans-Serif" font-size="10.00">_ostream.h</text>
</a>
</g>
</g>
<!-- Node4&#45;&gt;Node8 -->
<g id="edge7_Node000004_Node000008" class="edge">
<title>Node4&#45;&gt;Node8</title>
<g id="a_edge7_Node000004_Node000008"><a xlink:title=" ">
<path fill="none" stroke="#63b8ff" d="M889,-137.37C889,-129.49 889,-117.45 889,-106.6"/>
<polygon fill="#63b8ff" stroke="#63b8ff" points="892.5,-106.36 889,-96.36 885.5,-106.36 892.5,-106.36"/>
</a>
</g>
</g>
<!-- Node9 -->
<g id="Node000009" class="node">
<title>Node9</title>
<g id="a_Node000009"><a xlink:title=" ">
<polygon fill="#e0e0e0" stroke="#999999" points="1099.5,-96 972.5,-96 972.5,-66 1099.5,-66 1099.5,-96"/>
<text text-anchor="start" x="980.5" y="-84" font-family="Helvetica,sans-Serif" font-size="10.00">deal.II/base/parameter</text>
<text text-anchor="middle" x="1036" y="-73" font-family="Helvetica,sans-Serif" font-size="10.00">_handler.h</text>
</a>
</g>
</g>
<!-- Node4&#45;&gt;Node9 -->
<g id="edge8_Node000004_Node000009" class="edge">
<title>Node4&#45;&gt;Node9</title>
<g id="a_edge8_Node000004_Node000009"><a xlink:title=" ">
<path fill="none" stroke="#63b8ff" d="M908.83,-137.37C930.65,-127.87 966.36,-112.32 994.4,-100.11"/>
<polygon fill="#63b8ff" stroke="#63b8ff" points="995.81,-103.32 1003.58,-96.12 993.01,-96.9 995.81,-103.32"/>
</a>
</g>
</g>
<!-- Node10 -->
<g id="Node000010" class="node">
<title>Node10</title>
<g id="a_Node000010"><a xlink:title=" ">
<polygon fill="#e0e0e0" stroke="#999999" points="364,-90.5 254,-90.5 254,-71.5 364,-71.5 364,-90.5"/>
<text text-anchor="middle" x="309" y="-78.5" font-family="Helvetica,sans-Serif" font-size="10.00">deal.II/base/point.h</text>
</a>
</g>
</g>
<!-- Node4&#45;&gt;Node10 -->
<g id="edge9_Node000004_Node000010" class="edge">
<title>Node4&#45;&gt;Node10</title>
<g id="a_edge9_Node000004_Node000010"><a xlink:title=" ">
<path fill="none" stroke="#63b8ff" d="M845.99,-141.97C726.24,-130.74 396.26,-99.66 373,-96 367.03,-95.06 360.77,-93.91 354.61,-92.67"/>
<polygon fill="#63b8ff" stroke="#63b8ff" points="354.91,-89.16 344.4,-90.53 353.47,-96.01 354.91,-89.16"/>
</a>
</g>
</g>
<!-- Node4&#45;&gt;Node11 -->
<g id="edge11_Node000004_Node000011" class="edge">
<title>Node4&#45;&gt;Node11</title>
<g id="a_edge11_Node000004_Node000011"><a xlink:title=" ">
<path fill="none" stroke="#63b8ff" d="M845.7,-141.72C815.75,-138.82 774.97,-134.99 739,-132 519.62,-113.77 463,-126.58 245,-96 238.28,-95.06 231.22,-93.84 224.32,-92.51"/>
<polygon fill="#63b8ff" stroke="#63b8ff" points="224.85,-89.05 214.36,-90.52 223.47,-95.91 224.85,-89.05"/>
</a>
</g>
</g>
<!-- Node4&#45;&gt;Node12 -->
<g id="edge12_Node000004_Node000012" class="edge">
<title>Node4&#45;&gt;Node12</title>
<g id="a_edge12_Node000004_Node000012"><a xlink:title=" ">
<path fill="none" stroke="#63b8ff" d="M932.06,-144.67C1045.27,-140.83 1360.54,-127.88 1621,-96 1629.35,-94.98 1638.15,-93.66 1646.73,-92.24"/>
<polygon fill="#63b8ff" stroke="#63b8ff" points="1647.4,-95.68 1656.66,-90.54 1646.22,-88.78 1647.4,-95.68"/>
</a>
</g>
</g>
<!-- Node13 -->
<g id="Node000013" class="node">
<title>Node13</title>
<g id="a_Node000013"><a xlink:title=" ">
<polygon fill="#e0e0e0" stroke="#999999" points="1236.5,-90.5 1117.5,-90.5 1117.5,-71.5 1236.5,-71.5 1236.5,-90.5"/>
<text text-anchor="middle" x="1177" y="-78.5" font-family="Helvetica,sans-Serif" font-size="10.00">deal.II/fe/fe_values.h</text>
</a>
</g>
</g>
<!-- Node4&#45;&gt;Node13 -->
<g id="edge13_Node000004_Node000013" class="edge">
<title>Node4&#45;&gt;Node13</title>
<g id="a_edge13_Node000004_Node000013"><a xlink:title=" ">
<path fill="none" stroke="#63b8ff" d="M927.54,-137.44C979.6,-125.87 1072.35,-105.26 1128.91,-92.69"/>
<polygon fill="#63b8ff" stroke="#63b8ff" points="1129.68,-96.1 1138.69,-90.51 1128.16,-89.27 1129.68,-96.1"/>
</a>
</g>
</g>
<!-- Node4&#45;&gt;Node14 -->
<g id="edge14_Node000004_Node000014" class="edge">
<title>Node4&#45;&gt;Node14</title>
<g id="a_edge14_Node000004_Node000014"><a xlink:title=" ">
<path fill="none" stroke="#63b8ff" d="M845.8,-140.79C779.04,-132.59 646.56,-115.71 523.77,-96.08"/>
<polygon fill="#63b8ff" stroke="#63b8ff" points="524.25,-92.61 513.82,-94.47 523.14,-99.52 524.25,-92.61"/>
</a>
</g>
</g>
<!-- Node15 -->
<g id="Node000015" class="node">
<title>Node15</title>
<g id="a_Node000015"><a xlink:title=" ">
<polygon fill="#e0e0e0" stroke="#999999" points="1359.5,-96 1254.5,-96 1254.5,-66 1359.5,-66 1359.5,-96"/>
<text text-anchor="start" x="1262.5" y="-84" font-family="Helvetica,sans-Serif" font-size="10.00">boost/archive/text</text>
<text text-anchor="middle" x="1307" y="-73" font-family="Helvetica,sans-Serif" font-size="10.00">_iarchive.hpp</text>
</a>
</g>
</g>
<!-- Node4&#45;&gt;Node15 -->
<g id="edge15_Node000004_Node000015" class="edge">
<title>Node4&#45;&gt;Node15</title>
<g id="a_edge15_Node000004_Node000015"><a xlink:title=" ">
<path fill="none" stroke="#63b8ff" d="M932.06,-141.19C997.5,-133.61 1126.09,-117.67 1244.52,-96.18"/>
<polygon fill="#63b8ff" stroke="#63b8ff" points="1245.28,-99.6 1254.49,-94.36 1244.02,-92.72 1245.28,-99.6"/>
</a>
</g>
</g>
<!-- Node16 -->
<g id="Node000016" class="node">
<title>Node16</title>
<g id="a_Node000016"><a xlink:title=" ">
<polygon fill="#e0e0e0" stroke="#999999" points="1482.5,-96 1377.5,-96 1377.5,-66 1482.5,-66 1482.5,-96"/>
<text text-anchor="start" x="1385.5" y="-84" font-family="Helvetica,sans-Serif" font-size="10.00">boost/archive/text</text>
<text text-anchor="middle" x="1430" y="-73" font-family="Helvetica,sans-Serif" font-size="10.00">_oarchive.hpp</text>
</a>
</g>
</g>
<!-- Node4&#45;&gt;Node16 -->
<g id="edge16_Node000004_Node000016" class="edge">
<title>Node4&#45;&gt;Node16</title>
<g id="a_edge16_Node000004_Node000016"><a xlink:title=" ">
<path fill="none" stroke="#63b8ff" d="M932.26,-143.27C1015.03,-137.66 1201.6,-123.16 1367.3,-96.17"/>
<polygon fill="#63b8ff" stroke="#63b8ff" points="1367.88,-99.62 1377.18,-94.54 1366.74,-92.71 1367.88,-99.62"/>
</a>
</g>
</g>
<!-- Node17 -->
<g id="Node000017" class="node">
<title>Node17</title>
<g id="a_Node000017"><a xlink:title=" ">
<polygon fill="#e0e0e0" stroke="#999999" points="1555.5,-90.5 1500.5,-90.5 1500.5,-71.5 1555.5,-71.5 1555.5,-90.5"/>
<text text-anchor="middle" x="1528" y="-78.5" font-family="Helvetica,sans-Serif" font-size="10.00">fstream</text>
</a>
</g>
</g>
<!-- Node4&#45;&gt;Node17 -->
<g id="edge17_Node000004_Node000017" class="edge">
<title>Node4&#45;&gt;Node17</title>
<g id="a_edge17_Node000004_Node000017"><a xlink:title=" ">
<path fill="none" stroke="#63b8ff" d="M932.05,-146.64C1031.87,-147.23 1286.26,-143.48 1492,-96 1494.37,-95.45 1496.79,-94.78 1499.2,-94.03"/>
<polygon fill="#63b8ff" stroke="#63b8ff" points="1500.63,-97.24 1508.89,-90.61 1498.3,-90.64 1500.63,-97.24"/>
</a>
</g>
</g>
<!-- Node18 -->
<g id="Node000018" class="node">
<title>Node18</title>
<g id="a_Node000018"><a xlink:title=" ">
<polygon fill="#e0e0e0" stroke="#999999" points="1612,-90.5 1574,-90.5 1574,-71.5 1612,-71.5 1612,-90.5"/>
<text text-anchor="middle" x="1593" y="-78.5" font-family="Helvetica,sans-Serif" font-size="10.00">map</text>
</a>
</g>
</g>
<!-- Node4&#45;&gt;Node18 -->
<g id="edge18_Node000004_Node000018" class="edge">
<title>Node4&#45;&gt;Node18</title>
<g id="a_edge18_Node000004_Node000018"><a xlink:title=" ">
<path fill="none" stroke="#63b8ff" d="M932.3,-144.99C1061.88,-141.62 1445.02,-129.04 1565,-96 1566.44,-95.6 1567.9,-95.13 1569.34,-94.6"/>
<polygon fill="#63b8ff" stroke="#63b8ff" points="1570.86,-97.76 1578.61,-90.53 1568.05,-91.35 1570.86,-97.76"/>
</a>
</g>
</g>
<!-- Node19 -->
<g id="Node000019" class="node">
<title>Node19</title>
<g id="a_Node000019"><a xlink:title=" ">
<polygon fill="#e0e0e0" stroke="#999999" points="576,-90.5 532,-90.5 532,-71.5 576,-71.5 576,-90.5"/>
<text text-anchor="middle" x="554" y="-78.5" font-family="Helvetica,sans-Serif" font-size="10.00">string</text>
</a>
</g>
</g>
<!-- Node4&#45;&gt;Node19 -->
<g id="edge19_Node000004_Node000019" class="edge">
<title>Node4&#45;&gt;Node19</title>
<g id="a_edge19_Node000004_Node000019"><a xlink:title=" ">
<path fill="none" stroke="#63b8ff" d="M845.95,-140.33C774.14,-130.64 633.06,-110.53 585,-96 583.37,-95.51 581.71,-94.95 580.05,-94.34"/>
<polygon fill="#63b8ff" stroke="#63b8ff" points="581.33,-91.08 570.75,-90.52 578.67,-97.56 581.33,-91.08"/>
</a>
</g>
</g>
<!-- Node20 -->
<g id="Node000020" class="node">
<title>Node20</title>
<g id="a_Node000020"><a xlink:title=" ">
<polygon fill="#e0e0e0" stroke="#999999" points="635.5,-90.5 594.5,-90.5 594.5,-71.5 635.5,-71.5 635.5,-90.5"/>
<text text-anchor="middle" x="615" y="-78.5" font-family="Helvetica,sans-Serif" font-size="10.00">tuple</text>
</a>
</g>
</g>
<!-- Node4&#45;&gt;Node20 -->
<g id="edge20_Node000004_Node000020" class="edge">
<title>Node4&#45;&gt;Node20</title>
<g id="a_edge20_Node000004_Node000020"><a xlink:title=" ">
<path fill="none" stroke="#63b8ff" d="M845.69,-139.28C797.37,-131.24 717.16,-116.29 650,-96 648.12,-95.43 646.2,-94.81 644.28,-94.14"/>
<polygon fill="#63b8ff" stroke="#63b8ff" points="645.37,-90.81 634.78,-90.61 642.93,-97.37 645.37,-90.81"/>
</a>
</g>
</g>
<!-- Node4&#45;&gt;Node21 -->
<g id="edge21_Node000004_Node000021" class="edge">
<title>Node4&#45;&gt;Node21</title>
<g id="a_edge21_Node000004_Node000021"><a xlink:title=" ">
<path fill="none" stroke="#63b8ff" d="M932.22,-144.45C1099.08,-138.33 1696.15,-115.28 1779,-96 1781.17,-95.5 1783.37,-94.86 1785.56,-94.14"/>
<polygon fill="#63b8ff" stroke="#63b8ff" points="1786.81,-97.41 1794.91,-90.57 1784.32,-90.87 1786.81,-97.41"/>
</a>
</g>
</g>
<!-- Node5&#45;&gt;Node6 -->
<g id="edge5_Node000005_Node000006" class="edge">
<title>Node5&#45;&gt;Node6</title>
<g id="a_edge5_Node000005_Node000006"><a xlink:title=" ">
<path fill="none" stroke="#63b8ff" d="M737.54,-71.37C725.68,-62.44 706.75,-48.19 691.06,-36.38"/>
<polygon fill="#63b8ff" stroke="#63b8ff" points="692.84,-33.33 682.75,-30.12 688.63,-38.93 692.84,-33.33"/>
</a>
</g>
</g>
<!-- Node7 -->
<g id="Node000007" class="node">
<title>Node7</title>
<g id="a_Node000007"><a xlink:title=" ">
<polygon fill="#e0e0e0" stroke="#999999" points="851.5,-30 732.5,-30 732.5,0 851.5,0 851.5,-30"/>
<text text-anchor="start" x="740.5" y="-18" font-family="Helvetica,sans-Serif" font-size="10.00">deal.II/numerics/data</text>
<text text-anchor="middle" x="792" y="-7" font-family="Helvetica,sans-Serif" font-size="10.00">_postprocessor.h</text>
</a>
</g>
</g>
<!-- Node5&#45;&gt;Node7 -->
<g id="edge6_Node000005_Node000007" class="edge">
<title>Node5&#45;&gt;Node7</title>
<g id="a_edge6_Node000005_Node000007"><a xlink:title=" ">
<path fill="none" stroke="#63b8ff" d="M754.8,-71.37C760.37,-63.08 769.03,-50.18 776.6,-38.92"/>
<polygon fill="#63b8ff" stroke="#63b8ff" points="779.68,-40.61 782.35,-30.36 773.87,-36.71 779.68,-40.61"/>
</a>
</g>
</g>
<!-- Node22&#45;&gt;Node10 -->
<g id="edge23_Node000022_Node000010" class="edge">
<title>Node22&#45;&gt;Node10</title>
<g id="a_edge23_Node000022_Node000010"><a xlink:title=" ">
<path fill="none" stroke="#63b8ff" d="M220.8,-131.95C239.92,-121.13 266.2,-106.24 285.09,-95.54"/>
<polygon fill="#63b8ff" stroke="#63b8ff" points="286.99,-98.49 293.96,-90.52 283.54,-92.4 286.99,-98.49"/>
</a>
</g>
</g>
<!-- Node22&#45;&gt;Node11 -->
<g id="edge24_Node000022_Node000011" class="edge">
<title>Node22&#45;&gt;Node11</title>
<g id="a_edge24_Node000022_Node000011"><a xlink:title=" ">
<path fill="none" stroke="#63b8ff" d="M192.01,-131.8C189.42,-122.6 186.02,-110.53 183.23,-100.58"/>
<polygon fill="#63b8ff" stroke="#63b8ff" points="186.56,-99.52 180.49,-90.84 179.83,-101.42 186.56,-99.52"/>
</a>
</g>
</g>
<!-- Node22&#45;&gt;Node23 -->
<g id="edge25_Node000022_Node000023" class="edge">
<title>Node22&#45;&gt;Node23</title>
<g id="a_edge25_Node000022_Node000023"><a xlink:title=" ">
<path fill="none" stroke="#63b8ff" d="M164.18,-131.95C143.03,-122.62 115.04,-110.27 92.19,-100.18"/>
<polygon fill="#63b8ff" stroke="#63b8ff" points="93.31,-96.85 82.75,-96.01 90.48,-103.25 93.31,-96.85"/>
</a>
</g>
</g>
<!-- Node24&#45;&gt;Node10 -->
<g id="edge27_Node000024_Node000010" class="edge">
<title>Node24&#45;&gt;Node10</title>
<g id="a_edge27_Node000024_Node000010"><a xlink:title=" ">
<path fill="none" stroke="#63b8ff" d="M357.45,-137.37C348.81,-127.5 334.47,-111.11 323.63,-98.72"/>
<polygon fill="#63b8ff" stroke="#63b8ff" points="326.01,-96.13 316.79,-90.91 320.74,-100.74 326.01,-96.13"/>
</a>
</g>
</g>
<!-- Node24&#45;&gt;Node11 -->
<g id="edge28_Node000024_Node000011" class="edge">
<title>Node24&#45;&gt;Node11</title>
<g id="a_edge28_Node000024_Node000011"><a xlink:title=" ">
<path fill="none" stroke="#63b8ff" d="M339.78,-137.37C307.07,-126.17 249.83,-106.58 212.94,-93.96"/>
<polygon fill="#63b8ff" stroke="#63b8ff" points="213.71,-90.52 203.12,-90.6 211.45,-97.15 213.71,-90.52"/>
</a>
</g>
</g>
<!-- Node24&#45;&gt;Node14 -->
<g id="edge29_Node000024_Node000014" class="edge">
<title>Node24&#45;&gt;Node14</title>
<g id="a_edge29_Node000024_Node000014"><a xlink:title=" ">
<path fill="none" stroke="#63b8ff" d="M376.19,-137.37C387.77,-128.44 406.26,-114.19 421.57,-102.38"/>
<polygon fill="#63b8ff" stroke="#63b8ff" points="423.91,-104.99 429.69,-96.12 419.64,-99.45 423.91,-104.99"/>
</a>
</g>
</g>
</g>
</svg>
