<?xml version="1.0" encoding="UTF-8" standalone="no"?>
<!DOCTYPE svg PUBLIC "-//W3C//DTD SVG 1.1//EN"
 "http://www.w3.org/Graphics/SVG/1.1/DTD/svg11.dtd">
<!-- Generated by graphviz version 2.43.0 (0)
 -->
<!-- Title: /home/runner/work/lethe/lethe/source/dem/particle_point_line_fine_search.cc Pages: 1 -->
<svg width="1891pt" height="368pt"
 viewBox="0.00 0.00 1890.50 368.00" xmlns="http://www.w3.org/2000/svg" xmlns:xlink="http://www.w3.org/1999/xlink">
<g id="graph0" class="graph" transform="scale(1 1) rotate(0) translate(4 364)">
<title>/home/runner/work/lethe/lethe/source/dem/particle_point_line_fine_search.cc</title>
<!-- Node1 -->
<g id="Node000001" class="node">
<title>Node1</title>
<g id="a_Node000001"><a xlink:title=" ">
<polygon fill="#999999" stroke="#666666" points="657,-360 513,-360 513,-319 657,-319 657,-360"/>
<text text-anchor="start" x="521" y="-348" font-family="Helvetica,sans-Serif" font-size="10.00">/home/runner/work/lethe</text>
<text text-anchor="start" x="521" y="-337" font-family="Helvetica,sans-Serif" font-size="10.00">/lethe/source/dem/particle</text>
<text text-anchor="middle" x="585" y="-326" font-family="Helvetica,sans-Serif" font-size="10.00">_point_line_fine_search.cc</text>
</a>
</g>
</g>
<!-- Node2 -->
<g id="Node000002" class="node">
<title>Node2</title>
<g id="a_Node000002"><a xlink:href="dem__properties_8h.html" target="_top" xlink:title="DEM particle property definitions and output name management.">
<polygon fill="white" stroke="#666666" points="1858,-156.5 1732,-156.5 1732,-137.5 1858,-137.5 1858,-156.5"/>
<text text-anchor="middle" x="1795" y="-144.5" font-family="Helvetica,sans-Serif" font-size="10.00">core/dem_properties.h</text>
</a>
</g>
</g>
<!-- Node1&#45;&gt;Node2 -->
<g id="edge1_Node000001_Node000002" class="edge">
<title>Node1&#45;&gt;Node2</title>
<g id="a_edge1_Node000001_Node000002"><a xlink:title=" ">
<path fill="none" stroke="#63b8ff" d="M607.87,-318.61C634.6,-295.8 677.64,-260.59 697,-253 744.79,-234.26 1482.93,-173.24 1721.35,-153.92"/>
<polygon fill="#63b8ff" stroke="#63b8ff" points="1721.96,-157.38 1731.65,-153.09 1721.4,-150.41 1721.96,-157.38"/>
</a>
</g>
</g>
<!-- Node5 -->
<g id="Node000005" class="node">
<title>Node5</title>
<g id="a_Node000005"><a xlink:href="tensors__and__points__dimension__manipulation_8h.html" target="_top" xlink:title=" ">
<polygon fill="white" stroke="#666666" points="152,-162 0,-162 0,-132 152,-132 152,-162"/>
<text text-anchor="start" x="8" y="-150" font-family="Helvetica,sans-Serif" font-size="10.00">core/tensors_and_points</text>
<text text-anchor="middle" x="76" y="-139" font-family="Helvetica,sans-Serif" font-size="10.00">_dimension_manipulation.h</text>
</a>
</g>
</g>
<!-- Node1&#45;&gt;Node5 -->
<g id="edge4_Node000001_Node000005" class="edge">
<title>Node1&#45;&gt;Node5</title>
<g id="a_edge4_Node000001_Node000005"><a xlink:title=" ">
<path fill="none" stroke="#63b8ff" d="M532.45,-318.83C432.87,-281.56 218.17,-201.21 123.03,-165.6"/>
<polygon fill="#63b8ff" stroke="#63b8ff" points="124.25,-162.32 113.66,-162.1 121.8,-168.88 124.25,-162.32"/>
</a>
</g>
</g>
<!-- Node8 -->
<g id="Node000008" class="node">
<title>Node8</title>
<g id="a_Node000008"><a xlink:href="contact__info_8h.html" target="_top" xlink:title=" ">
<polygon fill="white" stroke="#666666" points="452,-156.5 342,-156.5 342,-137.5 452,-137.5 452,-156.5"/>
<text text-anchor="middle" x="397" y="-144.5" font-family="Helvetica,sans-Serif" font-size="10.00">dem/contact_info.h</text>
</a>
</g>
</g>
<!-- Node1&#45;&gt;Node8 -->
<g id="edge7_Node000001_Node000008" class="edge">
<title>Node1&#45;&gt;Node8</title>
<g id="a_edge7_Node000001_Node000008"><a xlink:title=" ">
<path fill="none" stroke="#63b8ff" d="M561.02,-318.82C548.76,-308.48 533.76,-295.4 521,-283 478.97,-242.15 433.23,-190.2 410.88,-164.27"/>
<polygon fill="#63b8ff" stroke="#63b8ff" points="413.4,-161.83 404.23,-156.53 408.09,-166.39 413.4,-161.83"/>
</a>
</g>
</g>
<!-- Node10 -->
<g id="Node000010" class="node">
<title>Node10</title>
<g id="a_Node000010"><a xlink:href="particle__point__line__fine__search_8h.html" target="_top" xlink:title=" ">
<polygon fill="white" stroke="#666666" points="640,-283 530,-283 530,-253 640,-253 640,-283"/>
<text text-anchor="start" x="538" y="-271" font-family="Helvetica,sans-Serif" font-size="10.00">dem/particle_point</text>
<text text-anchor="middle" x="585" y="-260" font-family="Helvetica,sans-Serif" font-size="10.00">_line_fine_search.h</text>
</a>
</g>
</g>
<!-- Node1&#45;&gt;Node10 -->
<g id="edge11_Node000001_Node000010" class="edge">
<title>Node1&#45;&gt;Node10</title>
<g id="a_edge11_Node000001_Node000010"><a xlink:title=" ">
<path fill="none" stroke="#63b8ff" d="M585,-318.77C585,-310.85 585,-301.63 585,-293.3"/>
<polygon fill="#63b8ff" stroke="#63b8ff" points="588.5,-293.04 585,-283.04 581.5,-293.04 588.5,-293.04"/>
</a>
</g>
</g>
<!-- Node29 -->
<g id="Node000029" class="node">
<title>Node29</title>
<g id="a_Node000029"><a xlink:title=" ">
<polygon fill="#e0e0e0" stroke="#999999" points="836.5,-283 705.5,-283 705.5,-253 836.5,-253 836.5,-283"/>
<text text-anchor="start" x="713.5" y="-271" font-family="Helvetica,sans-Serif" font-size="10.00">deal.II/particles/particle</text>
<text text-anchor="middle" x="771" y="-260" font-family="Helvetica,sans-Serif" font-size="10.00">_handler.h</text>
</a>
</g>
</g>
<!-- Node1&#45;&gt;Node29 -->
<g id="edge43_Node000001_Node000029" class="edge">
<title>Node1&#45;&gt;Node29</title>
<g id="a_edge43_Node000001_Node000029"><a xlink:title=" ">
<path fill="none" stroke="#63b8ff" d="M637.31,-318.96C664.58,-308.76 697.67,-296.4 724.11,-286.52"/>
<polygon fill="#63b8ff" stroke="#63b8ff" points="725.38,-289.78 733.52,-283 722.93,-283.23 725.38,-289.78"/>
</a>
</g>
</g>
<!-- Node3 -->
<g id="Node000003" class="node">
<title>Node3</title>
<g id="a_Node000003"><a xlink:title=" ">
<polygon fill="#e0e0e0" stroke="#999999" points="1817,-90.5 1773,-90.5 1773,-71.5 1817,-71.5 1817,-90.5"/>
<text text-anchor="middle" x="1795" y="-78.5" font-family="Helvetica,sans-Serif" font-size="10.00">string</text>
</a>
</g>
</g>
<!-- Node2&#45;&gt;Node3 -->
<g id="edge2_Node000002_Node000003" class="edge">
<title>Node2&#45;&gt;Node3</title>
<g id="a_edge2_Node000002_Node000003"><a xlink:title=" ">
<path fill="none" stroke="#63b8ff" d="M1795,-137.37C1795,-128.16 1795,-113.29 1795,-101.27"/>
<polygon fill="#63b8ff" stroke="#63b8ff" points="1798.5,-100.91 1795,-90.91 1791.5,-100.91 1798.5,-100.91"/>
</a>
</g>
</g>
<!-- Node4 -->
<g id="Node000004" class="node">
<title>Node4</title>
<g id="a_Node000004"><a xlink:title=" ">
<polygon fill="#e0e0e0" stroke="#999999" points="1882.5,-90.5 1835.5,-90.5 1835.5,-71.5 1882.5,-71.5 1882.5,-90.5"/>
<text text-anchor="middle" x="1859" y="-78.5" font-family="Helvetica,sans-Serif" font-size="10.00">vector</text>
</a>
</g>
</g>
<!-- Node2&#45;&gt;Node4 -->
<g id="edge3_Node000002_Node000004" class="edge">
<title>Node2&#45;&gt;Node4</title>
<g id="a_edge3_Node000002_Node000004"><a xlink:title=" ">
<path fill="none" stroke="#63b8ff" d="M1803.63,-137.37C1813.69,-127.31 1830.52,-110.48 1842.99,-98.01"/>
<polygon fill="#63b8ff" stroke="#63b8ff" points="1845.5,-100.45 1850.09,-90.91 1840.55,-95.5 1845.5,-100.45"/>
</a>
</g>
</g>
<!-- Node6 -->
<g id="Node000006" class="node">
<title>Node6</title>
<g id="a_Node000006"><a xlink:title=" ">
<polygon fill="#e0e0e0" stroke="#999999" points="291,-90.5 181,-90.5 181,-71.5 291,-71.5 291,-90.5"/>
<text text-anchor="middle" x="236" y="-78.5" font-family="Helvetica,sans-Serif" font-size="10.00">deal.II/base/point.h</text>
</a>
</g>
</g>
<!-- Node5&#45;&gt;Node6 -->
<g id="edge5_Node000005_Node000006" class="edge">
<title>Node5&#45;&gt;Node6</title>
<g id="a_edge5_Node000005_Node000006"><a xlink:title=" ">
<path fill="none" stroke="#63b8ff" d="M111.11,-131.95C139.3,-120.68 178.47,-105.01 205.39,-94.25"/>
<polygon fill="#63b8ff" stroke="#63b8ff" points="206.72,-97.48 214.71,-90.52 204.12,-90.98 206.72,-97.48"/>
</a>
</g>
</g>
<!-- Node7 -->
<g id="Node000007" class="node">
<title>Node7</title>
<g id="a_Node000007"><a xlink:title=" ">
<polygon fill="#e0e0e0" stroke="#999999" points="162.5,-90.5 47.5,-90.5 47.5,-71.5 162.5,-71.5 162.5,-90.5"/>
<text text-anchor="middle" x="105" y="-78.5" font-family="Helvetica,sans-Serif" font-size="10.00">deal.II/base/tensor.h</text>
</a>
</g>
</g>
<!-- Node5&#45;&gt;Node7 -->
<g id="edge6_Node000005_Node000007" class="edge">
<title>Node5&#45;&gt;Node7</title>
<g id="a_edge6_Node000005_Node000007"><a xlink:title=" ">
<path fill="none" stroke="#63b8ff" d="M82.44,-131.8C86.65,-122.5 92.19,-110.27 96.73,-100.26"/>
<polygon fill="#63b8ff" stroke="#63b8ff" points="100.05,-101.4 100.99,-90.84 93.68,-98.51 100.05,-101.4"/>
</a>
</g>
</g>
<!-- Node8&#45;&gt;Node6 -->
<g id="edge8_Node000008_Node000006" class="edge">
<title>Node8&#45;&gt;Node6</title>
<g id="a_edge8_Node000008_Node000006"><a xlink:title=" ">
<path fill="none" stroke="#63b8ff" d="M375.29,-137.37C347.48,-126.32 299.1,-107.08 267.32,-94.45"/>
<polygon fill="#63b8ff" stroke="#63b8ff" points="268.21,-91.04 257.63,-90.6 265.63,-97.54 268.21,-91.04"/>
</a>
</g>
</g>
<!-- Node8&#45;&gt;Node7 -->
<g id="edge9_Node000008_Node000007" class="edge">
<title>Node8&#45;&gt;Node7</title>
<g id="a_edge9_Node000008_Node000007"><a xlink:title=" ">
<path fill="none" stroke="#63b8ff" d="M357.92,-137.44C305.15,-125.87 211.11,-105.26 153.76,-92.69"/>
<polygon fill="#63b8ff" stroke="#63b8ff" points="154.36,-89.24 143.85,-90.51 152.86,-96.07 154.36,-89.24"/>
</a>
</g>
</g>
<!-- Node9 -->
<g id="Node000009" class="node">
<title>Node9</title>
<g id="a_Node000009"><a xlink:title=" ">
<polygon fill="#e0e0e0" stroke="#999999" points="560.5,-96 429.5,-96 429.5,-66 560.5,-66 560.5,-96"/>
<text text-anchor="start" x="437.5" y="-84" font-family="Helvetica,sans-Serif" font-size="10.00">deal.II/particles/particle</text>
<text text-anchor="middle" x="495" y="-73" font-family="Helvetica,sans-Serif" font-size="10.00">_iterator.h</text>
</a>
</g>
</g>
<!-- Node8&#45;&gt;Node9 -->
<g id="edge10_Node000008_Node000009" class="edge">
<title>Node8&#45;&gt;Node9</title>
<g id="a_edge10_Node000008_Node000009"><a xlink:title=" ">
<path fill="none" stroke="#63b8ff" d="M410.22,-137.37C424.14,-128.28 446.52,-113.66 464.8,-101.72"/>
<polygon fill="#63b8ff" stroke="#63b8ff" points="466.93,-104.51 473.39,-96.12 463.1,-98.65 466.93,-104.51"/>
</a>
</g>
</g>
<!-- Node11 -->
<g id="Node000011" class="node">
<title>Node11</title>
<g id="a_Node000011"><a xlink:href="data__containers_8h.html" target="_top" xlink:title=" ">
<polygon fill="white" stroke="#666666" points="649,-217 521,-217 521,-198 649,-198 649,-217"/>
<text text-anchor="middle" x="585" y="-205" font-family="Helvetica,sans-Serif" font-size="10.00">dem/data_containers.h</text>
</a>
</g>
</g>
<!-- Node10&#45;&gt;Node11 -->
<g id="edge12_Node000010_Node000011" class="edge">
<title>Node10&#45;&gt;Node11</title>
<g id="a_edge12_Node000010_Node000011"><a xlink:title=" ">
<path fill="none" stroke="#63b8ff" d="M585,-252.84C585,-245.21 585,-235.7 585,-227.45"/>
<polygon fill="#63b8ff" stroke="#63b8ff" points="588.5,-227.27 585,-217.27 581.5,-227.27 588.5,-227.27"/>
</a>
</g>
</g>
<!-- Node11&#45;&gt;Node4 -->
<g id="edge41_Node000011_Node000004" class="edge">
<title>Node11&#45;&gt;Node4</title>
<g id="a_edge41_Node000011_Node000004"><a xlink:title=" ">
<path fill="none" stroke="#63b8ff" d="M649.26,-199.36C653.91,-198.88 658.52,-198.43 663,-198 1179.54,-148.88 1322.79,-222.52 1826,-96 1827.95,-95.51 1829.93,-94.92 1831.9,-94.27"/>
<polygon fill="#63b8ff" stroke="#63b8ff" points="1833.44,-97.43 1841.54,-90.6 1830.95,-90.89 1833.44,-97.43"/>
</a>
</g>
</g>
<!-- Node11&#45;&gt;Node7 -->
<g id="edge37_Node000011_Node000007" class="edge">
<title>Node11&#45;&gt;Node7</title>
<g id="a_edge37_Node000011_Node000007"><a xlink:title=" ">
<path fill="none" stroke="#63b8ff" d="M521,-203.63C426.65,-198.64 255.3,-186.47 199,-162 190.08,-158.12 146.57,-119.54 121.99,-97.4"/>
<polygon fill="#63b8ff" stroke="#63b8ff" points="124.23,-94.71 114.46,-90.6 119.53,-99.9 124.23,-94.71"/>
</a>
</g>
</g>
<!-- Node11&#45;&gt;Node8 -->
<g id="edge36_Node000011_Node000008" class="edge">
<title>Node11&#45;&gt;Node8</title>
<g id="a_edge36_Node000011_Node000008"><a xlink:title=" ">
<path fill="none" stroke="#63b8ff" d="M557.66,-197.99C525.08,-187.86 470.49,-170.87 434.11,-159.55"/>
<polygon fill="#63b8ff" stroke="#63b8ff" points="434.96,-156.15 424.37,-156.52 432.88,-162.83 434.96,-156.15"/>
</a>
</g>
</g>
<!-- Node11&#45;&gt;Node9 -->
<g id="edge39_Node000011_Node000009" class="edge">
<title>Node11&#45;&gt;Node9</title>
<g id="a_edge39_Node000011_Node000009"><a xlink:title=" ">
<path fill="none" stroke="#63b8ff" d="M649.29,-199.19C695.59,-192.44 752.39,-180.61 767,-162 775.23,-151.51 775.54,-142.24 767,-132 740.17,-99.82 628.05,-103.49 570.85,-95.87"/>
<polygon fill="#63b8ff" stroke="#63b8ff" points="571.27,-92.39 560.85,-94.31 570.19,-99.31 571.27,-92.39"/>
</a>
</g>
</g>
<!-- Node12 -->
<g id="Node000012" class="node">
<title>Node12</title>
<g id="a_Node000012"><a xlink:href="core_2utilities_8h.html" target="_top" xlink:title=" ">
<polygon fill="white" stroke="#666666" points="1097,-156.5 1011,-156.5 1011,-137.5 1097,-137.5 1097,-156.5"/>
<text text-anchor="middle" x="1054" y="-144.5" font-family="Helvetica,sans-Serif" font-size="10.00">core/utilities.h</text>
</a>
</g>
</g>
<!-- Node11&#45;&gt;Node12 -->
<g id="edge13_Node000011_Node000012" class="edge">
<title>Node11&#45;&gt;Node12</title>
<g id="a_edge13_Node000011_Node000012"><a xlink:title=" ">
<path fill="none" stroke="#63b8ff" d="M649.23,-198.49C742.52,-186.85 913.83,-165.48 1000.61,-154.66"/>
<polygon fill="#63b8ff" stroke="#63b8ff" points="1001.27,-158.1 1010.76,-153.39 1000.41,-151.16 1001.27,-158.1"/>
</a>
</g>
</g>
<!-- Node25 -->
<g id="Node000025" class="node">
<title>Node25</title>
<g id="a_Node000025"><a xlink:href="boundary__cells__info__struct_8h.html" target="_top" xlink:title=" ">
<polygon fill="white" stroke="#666666" points="323.5,-162 208.5,-162 208.5,-132 323.5,-132 323.5,-162"/>
<text text-anchor="start" x="216.5" y="-150" font-family="Helvetica,sans-Serif" font-size="10.00">dem/boundary_cells</text>
<text text-anchor="middle" x="266" y="-139" font-family="Helvetica,sans-Serif" font-size="10.00">_info_struct.h</text>
</a>
</g>
</g>
<!-- Node11&#45;&gt;Node25 -->
<g id="edge32_Node000011_Node000025" class="edge">
<title>Node11&#45;&gt;Node25</title>
<g id="a_edge32_Node000011_Node000025"><a xlink:title=" ">
<path fill="none" stroke="#63b8ff" d="M533.75,-197.93C484.97,-189.67 409.22,-176.55 333.87,-162.13"/>
<polygon fill="#63b8ff" stroke="#63b8ff" points="334.2,-158.63 323.72,-160.18 332.88,-165.51 334.2,-158.63"/>
</a>
</g>
</g>
<!-- Node26 -->
<g id="Node000026" class="node">
<title>Node26</title>
<g id="a_Node000026"><a xlink:title=" ">
<polygon fill="#e0e0e0" stroke="#999999" points="411,-96 309,-96 309,-66 411,-66 411,-96"/>
<text text-anchor="start" x="317" y="-84" font-family="Helvetica,sans-Serif" font-size="10.00">deal.II/distributed</text>
<text text-anchor="middle" x="360" y="-73" font-family="Helvetica,sans-Serif" font-size="10.00">/tria.h</text>
</a>
</g>
</g>
<!-- Node11&#45;&gt;Node26 -->
<g id="edge38_Node000011_Node000026" class="edge">
<title>Node11&#45;&gt;Node26</title>
<g id="a_edge38_Node000011_Node000026"><a xlink:title=" ">
<path fill="none" stroke="#63b8ff" d="M642.63,-197.98C696.81,-187.64 765.28,-167.08 734,-132 689.27,-81.83 505.57,-105.73 421.19,-95.63"/>
<polygon fill="#63b8ff" stroke="#63b8ff" points="421.57,-92.15 411.17,-94.18 420.57,-99.07 421.57,-92.15"/>
</a>
</g>
</g>
<!-- Node27 -->
<g id="Node000027" class="node">
<title>Node27</title>
<g id="a_Node000027"><a xlink:title=" ">
<polygon fill="#e0e0e0" stroke="#999999" points="563.5,-156.5 470.5,-156.5 470.5,-137.5 563.5,-137.5 563.5,-156.5"/>
<text text-anchor="middle" x="517" y="-144.5" font-family="Helvetica,sans-Serif" font-size="10.00">unordered_map</text>
</a>
</g>
</g>
<!-- Node11&#45;&gt;Node27 -->
<g id="edge40_Node000011_Node000027" class="edge">
<title>Node11&#45;&gt;Node27</title>
<g id="a_edge40_Node000011_Node000027"><a xlink:title=" ">
<path fill="none" stroke="#63b8ff" d="M574.97,-197.87C564.42,-188.8 547.61,-174.34 534.81,-163.32"/>
<polygon fill="#63b8ff" stroke="#63b8ff" points="536.94,-160.54 527.07,-156.67 532.37,-165.84 536.94,-160.54"/>
</a>
</g>
</g>
<!-- Node28 -->
<g id="Node000028" class="node">
<title>Node28</title>
<g id="a_Node000028"><a xlink:href="unordered__dense_8h.html" target="_top" xlink:title=" ">
<polygon fill="white" stroke="#666666" points="724.5,-156.5 581.5,-156.5 581.5,-137.5 724.5,-137.5 724.5,-156.5"/>
<text text-anchor="middle" x="653" y="-144.5" font-family="Helvetica,sans-Serif" font-size="10.00">ankerl/unordered_dense.h</text>
</a>
</g>
</g>
<!-- Node11&#45;&gt;Node28 -->
<g id="edge42_Node000011_Node000028" class="edge">
<title>Node11&#45;&gt;Node28</title>
<g id="a_edge42_Node000011_Node000028"><a xlink:title=" ">
<path fill="none" stroke="#63b8ff" d="M595.03,-197.87C605.58,-188.8 622.39,-174.34 635.19,-163.32"/>
<polygon fill="#63b8ff" stroke="#63b8ff" points="637.63,-165.84 642.93,-156.67 633.06,-160.54 637.63,-165.84"/>
</a>
</g>
</g>
<!-- Node12&#45;&gt;Node3 -->
<g id="edge29_Node000012_Node000003" class="edge">
<title>Node12&#45;&gt;Node3</title>
<g id="a_edge29_Node000012_Node000003"><a xlink:title=" ">
<path fill="none" stroke="#63b8ff" d="M1097.09,-143.85C1240.99,-136.56 1699.49,-112.28 1764,-96 1765.73,-95.56 1767.49,-95.03 1769.24,-94.44"/>
<polygon fill="#63b8ff" stroke="#63b8ff" points="1771,-97.5 1778.98,-90.53 1768.4,-91.01 1771,-97.5"/>
</a>
</g>
</g>
<!-- Node12&#45;&gt;Node4 -->
<g id="edge31_Node000012_Node000004" class="edge">
<title>Node12&#45;&gt;Node4</title>
<g id="a_edge31_Node000012_Node000004"><a xlink:title=" ">
<path fill="none" stroke="#63b8ff" d="M1097.09,-144.06C1249.12,-137.08 1755.06,-112.83 1826,-96 1828.16,-95.49 1830.37,-94.84 1832.56,-94.12"/>
<polygon fill="#63b8ff" stroke="#63b8ff" points="1833.81,-97.38 1841.9,-90.54 1831.31,-90.85 1833.81,-97.38"/>
</a>
</g>
</g>
<!-- Node12&#45;&gt;Node6 -->
<g id="edge19_Node000012_Node000006" class="edge">
<title>Node12&#45;&gt;Node6</title>
<g id="a_edge19_Node000012_Node000006"><a xlink:title=" ">
<path fill="none" stroke="#63b8ff" d="M1011,-143.99C872.49,-137.4 438.98,-115.7 300,-96 293.64,-95.1 286.98,-93.92 280.45,-92.62"/>
<polygon fill="#63b8ff" stroke="#63b8ff" points="280.88,-89.13 270.37,-90.51 279.44,-95.98 280.88,-89.13"/>
</a>
</g>
</g>
<!-- Node12&#45;&gt;Node7 -->
<g id="edge21_Node000012_Node000007" class="edge">
<title>Node12&#45;&gt;Node7</title>
<g id="a_edge21_Node000012_Node000007"><a xlink:title=" ">
<path fill="none" stroke="#63b8ff" d="M1010.98,-143.94C845.56,-135.97 255.53,-107.03 172,-96 165.19,-95.1 158.05,-93.89 151.06,-92.57"/>
<polygon fill="#63b8ff" stroke="#63b8ff" points="151.49,-89.08 140.99,-90.55 150.11,-95.95 151.49,-89.08"/>
</a>
</g>
</g>
<!-- Node12&#45;&gt;Node9 -->
<g id="edge24_Node000012_Node000009" class="edge">
<title>Node12&#45;&gt;Node9</title>
<g id="a_edge24_Node000012_Node000009"><a xlink:title=" ">
<path fill="none" stroke="#63b8ff" d="M1010.8,-142.73C927.67,-136.17 739.52,-120.09 570.86,-96.04"/>
<polygon fill="#63b8ff" stroke="#63b8ff" points="571.2,-92.56 560.8,-94.6 570.2,-99.49 571.2,-92.56"/>
</a>
</g>
</g>
<!-- Node13 -->
<g id="Node000013" class="node">
<title>Node13</title>
<g id="a_Node000013"><a xlink:href="output__struct_8h.html" target="_top" xlink:title=" ">
<polygon fill="white" stroke="#666666" points="1303,-90.5 1189,-90.5 1189,-71.5 1303,-71.5 1303,-90.5"/>
<text text-anchor="middle" x="1246" y="-78.5" font-family="Helvetica,sans-Serif" font-size="10.00">core/output_struct.h</text>
</a>
</g>
</g>
<!-- Node12&#45;&gt;Node13 -->
<g id="edge14_Node000012_Node000013" class="edge">
<title>Node12&#45;&gt;Node13</title>
<g id="a_edge14_Node000012_Node000013"><a xlink:title=" ">
<path fill="none" stroke="#63b8ff" d="M1079.89,-137.37C1113.63,-126.12 1172.75,-106.42 1210.61,-93.8"/>
<polygon fill="#63b8ff" stroke="#63b8ff" points="1211.83,-97.08 1220.21,-90.6 1209.62,-90.44 1211.83,-97.08"/>
</a>
</g>
</g>
<!-- Node14 -->
<g id="Node000014" class="node">
<title>Node14</title>
<g id="a_Node000014"><a xlink:title=" ">
<polygon fill="#e0e0e0" stroke="#999999" points="1211.5,-30 1110.5,-30 1110.5,0 1211.5,0 1211.5,-30"/>
<text text-anchor="start" x="1118.5" y="-18" font-family="Helvetica,sans-Serif" font-size="10.00">deal.II/base/table</text>
<text text-anchor="middle" x="1161" y="-7" font-family="Helvetica,sans-Serif" font-size="10.00">_handler.h</text>
</a>
</g>
</g>
<!-- Node12&#45;&gt;Node14 -->
<g id="edge20_Node000012_Node000014" class="edge">
<title>Node12&#45;&gt;Node14</title>
<g id="a_edge20_Node000012_Node000014"><a xlink:title=" ">
<path fill="none" stroke="#63b8ff" d="M1080.66,-137.45C1100.51,-129.71 1126.71,-116.38 1142,-96 1154.02,-79.98 1158.57,-57.5 1160.23,-40.44"/>
<polygon fill="#63b8ff" stroke="#63b8ff" points="1163.74,-40.36 1160.95,-30.14 1156.76,-39.87 1163.74,-40.36"/>
</a>
</g>
</g>
<!-- Node16 -->
<g id="Node000016" class="node">
<title>Node16</title>
<g id="a_Node000016"><a xlink:title=" ">
<polygon fill="#e0e0e0" stroke="#999999" points="1451,-96 1321,-96 1321,-66 1451,-66 1451,-96"/>
<text text-anchor="start" x="1329" y="-84" font-family="Helvetica,sans-Serif" font-size="10.00">deal.II/base/conditional</text>
<text text-anchor="middle" x="1386" y="-73" font-family="Helvetica,sans-Serif" font-size="10.00">_ostream.h</text>
</a>
</g>
</g>
<!-- Node12&#45;&gt;Node16 -->
<g id="edge17_Node000012_Node000016" class="edge">
<title>Node12&#45;&gt;Node16</title>
<g id="a_edge17_Node000012_Node000016"><a xlink:title=" ">
<path fill="none" stroke="#63b8ff" d="M1097.06,-137.7C1151.13,-127.28 1244.79,-109.22 1310.8,-96.5"/>
<polygon fill="#63b8ff" stroke="#63b8ff" points="1311.58,-99.91 1320.73,-94.58 1310.25,-93.04 1311.58,-99.91"/>
</a>
</g>
</g>
<!-- Node17 -->
<g id="Node000017" class="node">
<title>Node17</title>
<g id="a_Node000017"><a xlink:title=" ">
<polygon fill="#e0e0e0" stroke="#999999" points="1596.5,-96 1469.5,-96 1469.5,-66 1596.5,-66 1596.5,-96"/>
<text text-anchor="start" x="1477.5" y="-84" font-family="Helvetica,sans-Serif" font-size="10.00">deal.II/base/parameter</text>
<text text-anchor="middle" x="1533" y="-73" font-family="Helvetica,sans-Serif" font-size="10.00">_handler.h</text>
</a>
</g>
</g>
<!-- Node12&#45;&gt;Node17 -->
<g id="edge18_Node000012_Node000017" class="edge">
<title>Node12&#45;&gt;Node17</title>
<g id="a_edge18_Node000012_Node000017"><a xlink:title=" ">
<path fill="none" stroke="#63b8ff" d="M1097.1,-141.65C1169.65,-134.12 1320.97,-117.52 1459.4,-96.02"/>
<polygon fill="#63b8ff" stroke="#63b8ff" points="1460,-99.47 1469.34,-94.47 1458.92,-92.56 1460,-99.47"/>
</a>
</g>
</g>
<!-- Node18 -->
<g id="Node000018" class="node">
<title>Node18</title>
<g id="a_Node000018"><a xlink:title=" ">
<polygon fill="#e0e0e0" stroke="#999999" points="1755,-90.5 1615,-90.5 1615,-71.5 1755,-71.5 1755,-90.5"/>
<text text-anchor="middle" x="1685" y="-78.5" font-family="Helvetica,sans-Serif" font-size="10.00">deal.II/dofs/dof_handler.h</text>
</a>
</g>
</g>
<!-- Node12&#45;&gt;Node18 -->
<g id="edge22_Node000012_Node000018" class="edge">
<title>Node12&#45;&gt;Node18</title>
<g id="a_edge22_Node000012_Node000018"><a xlink:title=" ">
<path fill="none" stroke="#63b8ff" d="M1097.08,-143.35C1190.22,-137.35 1417.15,-121.24 1606,-96 1614.05,-94.92 1622.53,-93.61 1630.83,-92.23"/>
<polygon fill="#63b8ff" stroke="#63b8ff" points="1631.55,-95.65 1640.81,-90.51 1630.37,-88.76 1631.55,-95.65"/>
</a>
</g>
</g>
<!-- Node19 -->
<g id="Node000019" class="node">
<title>Node19</title>
<g id="a_Node000019"><a xlink:title=" ">
<polygon fill="#e0e0e0" stroke="#999999" points="697.5,-90.5 578.5,-90.5 578.5,-71.5 697.5,-71.5 697.5,-90.5"/>
<text text-anchor="middle" x="638" y="-78.5" font-family="Helvetica,sans-Serif" font-size="10.00">deal.II/fe/fe_values.h</text>
</a>
</g>
</g>
<!-- Node12&#45;&gt;Node19 -->
<g id="edge23_Node000012_Node000019" class="edge">
<title>Node12&#45;&gt;Node19</title>
<g id="a_edge23_Node000012_Node000019"><a xlink:title=" ">
<path fill="none" stroke="#63b8ff" d="M1010.87,-140.59C945.13,-132.16 816,-114.89 707,-96 700.84,-94.93 694.38,-93.73 687.99,-92.49"/>
<polygon fill="#63b8ff" stroke="#63b8ff" points="688.55,-89.04 678.06,-90.53 687.19,-95.9 688.55,-89.04"/>
</a>
</g>
</g>
<!-- Node20 -->
<g id="Node000020" class="node">
<title>Node20</title>
<g id="a_Node000020"><a xlink:title=" ">
<polygon fill="#e0e0e0" stroke="#999999" points="820.5,-96 715.5,-96 715.5,-66 820.5,-66 820.5,-96"/>
<text text-anchor="start" x="723.5" y="-84" font-family="Helvetica,sans-Serif" font-size="10.00">boost/archive/text</text>
<text text-anchor="middle" x="768" y="-73" font-family="Helvetica,sans-Serif" font-size="10.00">_iarchive.hpp</text>
</a>
</g>
</g>
<!-- Node12&#45;&gt;Node20 -->
<g id="edge25_Node000012_Node000020" class="edge">
<title>Node12&#45;&gt;Node20</title>
<g id="a_edge25_Node000012_Node000020"><a xlink:title=" ">
<path fill="none" stroke="#63b8ff" d="M1015.55,-137.45C972.93,-127.96 901.87,-112.12 830.79,-96.17"/>
<polygon fill="#63b8ff" stroke="#63b8ff" points="831.29,-92.7 820.76,-93.92 829.75,-99.53 831.29,-92.7"/>
</a>
</g>
</g>
<!-- Node21 -->
<g id="Node000021" class="node">
<title>Node21</title>
<g id="a_Node000021"><a xlink:title=" ">
<polygon fill="#e0e0e0" stroke="#999999" points="943.5,-96 838.5,-96 838.5,-66 943.5,-66 943.5,-96"/>
<text text-anchor="start" x="846.5" y="-84" font-family="Helvetica,sans-Serif" font-size="10.00">boost/archive/text</text>
<text text-anchor="middle" x="891" y="-73" font-family="Helvetica,sans-Serif" font-size="10.00">_oarchive.hpp</text>
</a>
</g>
</g>
<!-- Node12&#45;&gt;Node21 -->
<g id="edge26_Node000012_Node000021" class="edge">
<title>Node12&#45;&gt;Node21</title>
<g id="a_edge26_Node000012_Node000021"><a xlink:title=" ">
<path fill="none" stroke="#63b8ff" d="M1032.02,-137.37C1007.6,-127.78 967.52,-112.05 936.32,-99.8"/>
<polygon fill="#63b8ff" stroke="#63b8ff" points="937.54,-96.51 926.95,-96.12 934.98,-103.03 937.54,-96.51"/>
</a>
</g>
</g>
<!-- Node22 -->
<g id="Node000022" class="node">
<title>Node22</title>
<g id="a_Node000022"><a xlink:title=" ">
<polygon fill="#e0e0e0" stroke="#999999" points="1016.5,-90.5 961.5,-90.5 961.5,-71.5 1016.5,-71.5 1016.5,-90.5"/>
<text text-anchor="middle" x="989" y="-78.5" font-family="Helvetica,sans-Serif" font-size="10.00">fstream</text>
</a>
</g>
</g>
<!-- Node12&#45;&gt;Node22 -->
<g id="edge27_Node000012_Node000022" class="edge">
<title>Node12&#45;&gt;Node22</title>
<g id="a_edge27_Node000012_Node000022"><a xlink:title=" ">
<path fill="none" stroke="#63b8ff" d="M1045.23,-137.37C1035.02,-127.31 1017.92,-110.48 1005.26,-98.01"/>
<polygon fill="#63b8ff" stroke="#63b8ff" points="1007.63,-95.43 998.04,-90.91 1002.71,-100.42 1007.63,-95.43"/>
</a>
</g>
</g>
<!-- Node23 -->
<g id="Node000023" class="node">
<title>Node23</title>
<g id="a_Node000023"><a xlink:title=" ">
<polygon fill="#e0e0e0" stroke="#999999" points="1073,-90.5 1035,-90.5 1035,-71.5 1073,-71.5 1073,-90.5"/>
<text text-anchor="middle" x="1054" y="-78.5" font-family="Helvetica,sans-Serif" font-size="10.00">map</text>
</a>
</g>
</g>
<!-- Node12&#45;&gt;Node23 -->
<g id="edge28_Node000012_Node000023" class="edge">
<title>Node12&#45;&gt;Node23</title>
<g id="a_edge28_Node000012_Node000023"><a xlink:title=" ">
<path fill="none" stroke="#63b8ff" d="M1054,-137.37C1054,-128.16 1054,-113.29 1054,-101.27"/>
<polygon fill="#63b8ff" stroke="#63b8ff" points="1057.5,-100.91 1054,-90.91 1050.5,-100.91 1057.5,-100.91"/>
</a>
</g>
</g>
<!-- Node24 -->
<g id="Node000024" class="node">
<title>Node24</title>
<g id="a_Node000024"><a xlink:title=" ">
<polygon fill="#e0e0e0" stroke="#999999" points="1132.5,-90.5 1091.5,-90.5 1091.5,-71.5 1132.5,-71.5 1132.5,-90.5"/>
<text text-anchor="middle" x="1112" y="-78.5" font-family="Helvetica,sans-Serif" font-size="10.00">tuple</text>
</a>
</g>
</g>
<!-- Node12&#45;&gt;Node24 -->
<g id="edge30_Node000012_Node000024" class="edge">
<title>Node12&#45;&gt;Node24</title>
<g id="a_edge30_Node000012_Node000024"><a xlink:title=" ">
<path fill="none" stroke="#63b8ff" d="M1061.82,-137.37C1070.85,-127.4 1085.91,-110.79 1097.17,-98.36"/>
<polygon fill="#63b8ff" stroke="#63b8ff" points="1099.81,-100.67 1103.93,-90.91 1094.62,-95.96 1099.81,-100.67"/>
</a>
</g>
</g>
<!-- Node13&#45;&gt;Node14 -->
<g id="edge15_Node000013_Node000014" class="edge">
<title>Node13&#45;&gt;Node14</title>
<g id="a_edge15_Node000013_Node000014"><a xlink:title=" ">
<path fill="none" stroke="#63b8ff" d="M1234.54,-71.37C1222.68,-62.44 1203.75,-48.19 1188.06,-36.38"/>
<polygon fill="#63b8ff" stroke="#63b8ff" points="1189.84,-33.33 1179.75,-30.12 1185.63,-38.93 1189.84,-33.33"/>
</a>
</g>
</g>
<!-- Node15 -->
<g id="Node000015" class="node">
<title>Node15</title>
<g id="a_Node000015"><a xlink:title=" ">
<polygon fill="#e0e0e0" stroke="#999999" points="1348.5,-30 1229.5,-30 1229.5,0 1348.5,0 1348.5,-30"/>
<text text-anchor="start" x="1237.5" y="-18" font-family="Helvetica,sans-Serif" font-size="10.00">deal.II/numerics/data</text>
<text text-anchor="middle" x="1289" y="-7" font-family="Helvetica,sans-Serif" font-size="10.00">_postprocessor.h</text>
</a>
</g>
</g>
<!-- Node13&#45;&gt;Node15 -->
<g id="edge16_Node000013_Node000015" class="edge">
<title>Node13&#45;&gt;Node15</title>
<g id="a_edge16_Node000013_Node000015"><a xlink:title=" ">
<path fill="none" stroke="#63b8ff" d="M1251.8,-71.37C1257.37,-63.08 1266.03,-50.18 1273.6,-38.92"/>
<polygon fill="#63b8ff" stroke="#63b8ff" points="1276.68,-40.61 1279.35,-30.36 1270.87,-36.71 1276.68,-40.61"/>
</a>
</g>
</g>
<!-- Node25&#45;&gt;Node6 -->
<g id="edge33_Node000025_Node000006" class="edge">
<title>Node25&#45;&gt;Node6</title>
<g id="a_edge33_Node000025_Node000006"><a xlink:title=" ">
<path fill="none" stroke="#63b8ff" d="M259.34,-131.8C254.94,-122.41 249.13,-110.02 244.41,-99.95"/>
<polygon fill="#63b8ff" stroke="#63b8ff" points="247.56,-98.41 240.15,-90.84 241.22,-101.38 247.56,-98.41"/>
</a>
</g>
</g>
<!-- Node25&#45;&gt;Node7 -->
<g id="edge34_Node000025_Node000007" class="edge">
<title>Node25&#45;&gt;Node7</title>
<g id="a_edge34_Node000025_Node000007"><a xlink:title=" ">
<path fill="none" stroke="#63b8ff" d="M230.67,-131.95C202.31,-120.68 162.89,-105.01 135.8,-94.25"/>
<polygon fill="#63b8ff" stroke="#63b8ff" points="137.01,-90.96 126.43,-90.52 134.43,-97.46 137.01,-90.96"/>
</a>
</g>
</g>
<!-- Node25&#45;&gt;Node26 -->
<g id="edge35_Node000025_Node000026" class="edge">
<title>Node25&#45;&gt;Node26</title>
<g id="a_edge35_Node000025_Node000026"><a xlink:title=" ">
<path fill="none" stroke="#63b8ff" d="M286.86,-131.8C299.76,-123.01 316.51,-111.61 330.73,-101.93"/>
<polygon fill="#63b8ff" stroke="#63b8ff" points="332.9,-104.69 339.2,-96.16 328.96,-98.9 332.9,-104.69"/>
</a>
</g>
</g>
</g>
</svg>
