<?xml version="1.0" encoding="UTF-8" standalone="no"?>
<!DOCTYPE svg PUBLIC "-//W3C//DTD SVG 1.1//EN"
 "http://www.w3.org/Graphics/SVG/1.1/DTD/svg11.dtd">
<!-- Generated by graphviz version 2.43.0 (0)
 -->
<!-- Title: /home/runner/work/lethe/lethe/include/dem/particle_particle_broad_search.h Pages: 1 -->
<svg width="1834pt" height="544pt"
 viewBox="0.00 0.00 1833.95 544.00" xmlns="http://www.w3.org/2000/svg" xmlns:xlink="http://www.w3.org/1999/xlink">
<g id="graph0" class="graph" transform="scale(1 1) rotate(0) translate(4 540)">
<title>/home/runner/work/lethe/lethe/include/dem/particle_particle_broad_search.h</title>
<!-- Node1 -->
<g id="Node000001" class="node">
<title>Node1</title>
<g id="a_Node000001"><a xlink:title=" ">
<polygon fill="#999999" stroke="#666666" points="1243.45,-536 1096.45,-536 1096.45,-495 1243.45,-495 1243.45,-536"/>
<text text-anchor="start" x="1104.45" y="-524" font-family="Helvetica,sans-Serif" font-size="10.00">/home/runner/work/lethe</text>
<text text-anchor="start" x="1104.45" y="-513" font-family="Helvetica,sans-Serif" font-size="10.00">/lethe/include/dem/particle</text>
<text text-anchor="middle" x="1169.95" y="-502" font-family="Helvetica,sans-Serif" font-size="10.00">_particle_broad_search.h</text>
</a>
</g>
</g>
<!-- Node2 -->
<g id="Node000002" class="node">
<title>Node2</title>
<g id="a_Node000002"><a xlink:href="dem__contact__manager_8h.html" target="_top" xlink:title=" ">
<polygon fill="white" stroke="#666666" points="1190.45,-459 1053.45,-459 1053.45,-418 1190.45,-418 1190.45,-459"/>
<text text-anchor="start" x="1061.45" y="-447" font-family="Helvetica,sans-Serif" font-size="10.00">/home/runner/work/lethe</text>
<text text-anchor="start" x="1061.45" y="-436" font-family="Helvetica,sans-Serif" font-size="10.00">/lethe/include/dem/dem</text>
<text text-anchor="middle" x="1121.95" y="-425" font-family="Helvetica,sans-Serif" font-size="10.00">_contact_manager.h</text>
</a>
</g>
</g>
<!-- Node1&#45;&gt;Node2 -->
<g id="edge1_Node000001_Node000002" class="edge">
<title>Node1&#45;&gt;Node2</title>
<g id="a_edge1_Node000001_Node000002"><a xlink:title=" ">
<path fill="none" stroke="#63b8ff" d="M1151.78,-486.11C1146.01,-477.09 1139.76,-467.33 1134.47,-459.07"/>
<polygon fill="#63b8ff" stroke="#63b8ff" points="1149,-488.26 1157.34,-494.79 1154.89,-484.49 1149,-488.26"/>
</a>
</g>
</g>
<!-- Node28 -->
<g id="Node000028" class="node">
<title>Node28</title>
<g id="a_Node000028"><a xlink:href="particle__particle__broad__search_8cc.html" target="_top" xlink:title=" ">
<polygon fill="white" stroke="#666666" points="1825.95,-382 1681.95,-382 1681.95,-341 1825.95,-341 1825.95,-382"/>
<text text-anchor="start" x="1689.95" y="-370" font-family="Helvetica,sans-Serif" font-size="10.00">/home/runner/work/lethe</text>
<text text-anchor="start" x="1689.95" y="-359" font-family="Helvetica,sans-Serif" font-size="10.00">/lethe/source/dem/particle</text>
<text text-anchor="middle" x="1753.95" y="-348" font-family="Helvetica,sans-Serif" font-size="10.00">_particle_broad_search.cc</text>
</a>
</g>
</g>
<!-- Node1&#45;&gt;Node28 -->
<g id="edge47_Node000001_Node000028" class="edge">
<title>Node1&#45;&gt;Node28</title>
<g id="a_edge47_Node000001_Node000028"><a xlink:title=" ">
<path fill="none" stroke="#63b8ff" d="M1253.43,-492.77C1368.33,-462.86 1573.31,-409.52 1681.87,-381.26"/>
<polygon fill="#63b8ff" stroke="#63b8ff" points="1252.41,-489.42 1243.62,-495.33 1254.17,-496.19 1252.41,-489.42"/>
</a>
</g>
</g>
<!-- Node3 -->
<g id="Node000003" class="node">
<title>Node3</title>
<g id="a_Node000003"><a xlink:href="dem_8h.html" target="_top" xlink:title=" ">
<polygon fill="white" stroke="#666666" points="787.45,-294 646.45,-294 646.45,-264 787.45,-264 787.45,-294"/>
<text text-anchor="start" x="654.45" y="-282" font-family="Helvetica,sans-Serif" font-size="10.00">/home/runner/work/lethe</text>
<text text-anchor="middle" x="716.95" y="-271" font-family="Helvetica,sans-Serif" font-size="10.00">/lethe/include/dem/dem.h</text>
</a>
</g>
</g>
<!-- Node2&#45;&gt;Node3 -->
<g id="edge2_Node000002_Node000003" class="edge">
<title>Node2&#45;&gt;Node3</title>
<g id="a_edge2_Node000002_Node000003"><a xlink:title=" ">
<path fill="none" stroke="#63b8ff" d="M1043.12,-431.07C986.94,-424.24 910.74,-410.28 848.95,-382 800.23,-359.7 752.99,-316.36 730.53,-294.04"/>
<polygon fill="#63b8ff" stroke="#63b8ff" points="1043.03,-434.59 1053.37,-432.27 1043.84,-427.63 1043.03,-434.59"/>
</a>
</g>
</g>
<!-- Node4 -->
<g id="Node000004" class="node">
<title>Node4</title>
<g id="a_Node000004"><a xlink:href="cfd__dem__coupling_8h.html" target="_top" xlink:title=" ">
<polygon fill="white" stroke="#666666" points="493.45,-123.5 356.45,-123.5 356.45,-82.5 493.45,-82.5 493.45,-123.5"/>
<text text-anchor="start" x="364.45" y="-111.5" font-family="Helvetica,sans-Serif" font-size="10.00">/home/runner/work/lethe</text>
<text text-anchor="start" x="364.45" y="-100.5" font-family="Helvetica,sans-Serif" font-size="10.00">/lethe/include/fem&#45;dem</text>
<text text-anchor="middle" x="424.95" y="-89.5" font-family="Helvetica,sans-Serif" font-size="10.00">/cfd_dem_coupling.h</text>
</a>
</g>
</g>
<!-- Node2&#45;&gt;Node4 -->
<g id="edge42_Node000002_Node000004" class="edge">
<title>Node2&#45;&gt;Node4</title>
<g id="a_edge42_Node000002_Node000004"><a xlink:title=" ">
<path fill="none" stroke="#63b8ff" d="M1043.12,-436.87C826.91,-433.73 230.25,-415.03 73.95,-305 19.15,-266.42 -25.79,-215.78 17.95,-165 60.79,-115.26 251.81,-105.5 356.23,-103.95"/>
<polygon fill="#63b8ff" stroke="#63b8ff" points="1043.39,-440.38 1053.43,-437.02 1043.48,-433.38 1043.39,-440.38"/>
</a>
</g>
</g>
<!-- Node6 -->
<g id="Node000006" class="node">
<title>Node6</title>
<g id="a_Node000006"><a xlink:href="cfd__dem__coupling__matrix__free_8h.html" target="_top" xlink:title=" ">
<polygon fill="white" stroke="#666666" points="948.45,-211.5 769.45,-211.5 769.45,-170.5 948.45,-170.5 948.45,-211.5"/>
<text text-anchor="start" x="777.45" y="-199.5" font-family="Helvetica,sans-Serif" font-size="10.00">/home/runner/work/lethe</text>
<text text-anchor="start" x="777.45" y="-188.5" font-family="Helvetica,sans-Serif" font-size="10.00">/lethe/include/fem&#45;dem</text>
<text text-anchor="middle" x="858.95" y="-177.5" font-family="Helvetica,sans-Serif" font-size="10.00">/cfd_dem_coupling_matrix_free.h</text>
</a>
</g>
</g>
<!-- Node2&#45;&gt;Node6 -->
<g id="edge43_Node000002_Node000006" class="edge">
<title>Node2&#45;&gt;Node6</title>
<g id="a_edge43_Node000002_Node000006"><a xlink:title=" ">
<path fill="none" stroke="#63b8ff" d="M1043.34,-428.21C984.16,-419.54 909.81,-404.54 888.95,-382 844.94,-334.45 850.4,-249.86 855.63,-211.67"/>
<polygon fill="#63b8ff" stroke="#63b8ff" points="1043.05,-431.7 1053.44,-429.65 1044.03,-424.77 1043.05,-431.7"/>
</a>
</g>
</g>
<!-- Node11 -->
<g id="Node000011" class="node">
<title>Node11</title>
<g id="a_Node000011"><a xlink:href="force__chains__visualization_8h.html" target="_top" xlink:title=" ">
<polygon fill="white" stroke="#666666" points="1035.45,-382 898.45,-382 898.45,-341 1035.45,-341 1035.45,-382"/>
<text text-anchor="start" x="906.45" y="-370" font-family="Helvetica,sans-Serif" font-size="10.00">/home/runner/work/lethe</text>
<text text-anchor="start" x="906.45" y="-359" font-family="Helvetica,sans-Serif" font-size="10.00">/lethe/include/dem/force</text>
<text text-anchor="middle" x="966.95" y="-348" font-family="Helvetica,sans-Serif" font-size="10.00">_chains_visualization.h</text>
</a>
</g>
</g>
<!-- Node2&#45;&gt;Node11 -->
<g id="edge11_Node000002_Node000011" class="edge">
<title>Node2&#45;&gt;Node11</title>
<g id="a_edge11_Node000002_Node000011"><a xlink:title=" ">
<path fill="none" stroke="#63b8ff" d="M1072.52,-413.59C1051.49,-403.41 1027.27,-391.69 1007.33,-382.04"/>
<polygon fill="#63b8ff" stroke="#63b8ff" points="1071.1,-416.79 1081.63,-417.99 1074.15,-410.48 1071.1,-416.79"/>
</a>
</g>
</g>
<!-- Node17 -->
<g id="Node000017" class="node">
<title>Node17</title>
<g id="a_Node000017"><a xlink:href="log__collision__data_8h.html" target="_top" xlink:title=" ">
<polygon fill="white" stroke="#666666" points="1508.45,-382 1371.45,-382 1371.45,-341 1508.45,-341 1508.45,-382"/>
<text text-anchor="start" x="1379.45" y="-370" font-family="Helvetica,sans-Serif" font-size="10.00">/home/runner/work/lethe</text>
<text text-anchor="start" x="1379.45" y="-359" font-family="Helvetica,sans-Serif" font-size="10.00">/lethe/include/dem/log</text>
<text text-anchor="middle" x="1439.95" y="-348" font-family="Helvetica,sans-Serif" font-size="10.00">_collision_data.h</text>
</a>
</g>
</g>
<!-- Node2&#45;&gt;Node17 -->
<g id="edge24_Node000002_Node000017" class="edge">
<title>Node2&#45;&gt;Node17</title>
<g id="a_edge24_Node000002_Node000017"><a xlink:title=" ">
<path fill="none" stroke="#63b8ff" d="M1200.36,-419.74C1247.28,-409.01 1308.09,-394.96 1361.95,-382 1364.93,-381.28 1367.98,-380.54 1371.06,-379.79"/>
<polygon fill="#63b8ff" stroke="#63b8ff" points="1199.53,-416.34 1190.56,-421.97 1201.09,-423.16 1199.53,-416.34"/>
</a>
</g>
</g>
<!-- Node19 -->
<g id="Node000019" class="node">
<title>Node19</title>
<g id="a_Node000019"><a xlink:href="particle__wall__contact__force_8h.html" target="_top" xlink:title=" ">
<polygon fill="white" stroke="#666666" points="570.45,-382 423.45,-382 423.45,-341 570.45,-341 570.45,-382"/>
<text text-anchor="start" x="431.45" y="-370" font-family="Helvetica,sans-Serif" font-size="10.00">/home/runner/work/lethe</text>
<text text-anchor="start" x="431.45" y="-359" font-family="Helvetica,sans-Serif" font-size="10.00">/lethe/include/dem/particle</text>
<text text-anchor="middle" x="496.95" y="-348" font-family="Helvetica,sans-Serif" font-size="10.00">_wall_contact_force.h</text>
</a>
</g>
</g>
<!-- Node2&#45;&gt;Node19 -->
<g id="edge29_Node000002_Node000019" class="edge">
<title>Node2&#45;&gt;Node19</title>
<g id="a_edge29_Node000002_Node000019"><a xlink:title=" ">
<path fill="none" stroke="#63b8ff" d="M1043.27,-428.06C921.52,-413.45 689.16,-385.57 570.56,-371.33"/>
<polygon fill="#63b8ff" stroke="#63b8ff" points="1042.93,-431.54 1053.27,-429.26 1043.76,-424.59 1042.93,-431.54"/>
</a>
</g>
</g>
<!-- Node25 -->
<g id="Node000025" class="node">
<title>Node25</title>
<g id="a_Node000025"><a xlink:href="ray__tracing_8h.html" target="_top" xlink:title=" ">
<polygon fill="white" stroke="#666666" points="1663.45,-382 1526.45,-382 1526.45,-341 1663.45,-341 1663.45,-382"/>
<text text-anchor="start" x="1534.45" y="-370" font-family="Helvetica,sans-Serif" font-size="10.00">/home/runner/work/lethe</text>
<text text-anchor="start" x="1534.45" y="-359" font-family="Helvetica,sans-Serif" font-size="10.00">/lethe/include/dem/ray</text>
<text text-anchor="middle" x="1594.95" y="-348" font-family="Helvetica,sans-Serif" font-size="10.00">_tracing.h</text>
</a>
</g>
</g>
<!-- Node2&#45;&gt;Node25 -->
<g id="edge40_Node000002_Node000025" class="edge">
<title>Node2&#45;&gt;Node25</title>
<g id="a_edge40_Node000002_Node000025"><a xlink:title=" ">
<path fill="none" stroke="#63b8ff" d="M1200.46,-428.94C1280.46,-419.64 1407.92,-403.23 1516.95,-382 1519.96,-381.41 1523.03,-380.78 1526.13,-380.12"/>
<polygon fill="#63b8ff" stroke="#63b8ff" points="1199.99,-425.47 1190.46,-430.09 1200.8,-432.42 1199.99,-425.47"/>
</a>
</g>
</g>
<!-- Node27 -->
<g id="Node000027" class="node">
<title>Node27</title>
<g id="a_Node000027"><a xlink:href="dem__contact__manager_8cc.html" target="_top" xlink:title=" ">
<polygon fill="white" stroke="#666666" points="1190.45,-382 1053.45,-382 1053.45,-341 1190.45,-341 1190.45,-382"/>
<text text-anchor="start" x="1061.45" y="-370" font-family="Helvetica,sans-Serif" font-size="10.00">/home/runner/work/lethe</text>
<text text-anchor="start" x="1061.45" y="-359" font-family="Helvetica,sans-Serif" font-size="10.00">/lethe/source/dem/dem</text>
<text text-anchor="middle" x="1121.95" y="-348" font-family="Helvetica,sans-Serif" font-size="10.00">_contact_manager.cc</text>
</a>
</g>
</g>
<!-- Node2&#45;&gt;Node27 -->
<g id="edge44_Node000002_Node000027" class="edge">
<title>Node2&#45;&gt;Node27</title>
<g id="a_edge44_Node000002_Node000027"><a xlink:title=" ">
<path fill="none" stroke="#63b8ff" d="M1121.95,-407.69C1121.95,-399.08 1121.95,-389.9 1121.95,-382.07"/>
<polygon fill="#63b8ff" stroke="#63b8ff" points="1118.45,-407.79 1121.95,-417.79 1125.45,-407.79 1118.45,-407.79"/>
</a>
</g>
</g>
<!-- Node2&#45;&gt;Node28 -->
<g id="edge45_Node000002_Node000028" class="edge">
<title>Node2&#45;&gt;Node28</title>
<g id="a_edge45_Node000002_Node000028"><a xlink:title=" ">
<path fill="none" stroke="#63b8ff" d="M1200.59,-432.86C1307.73,-425.79 1505.32,-410.09 1671.95,-382 1675.12,-381.46 1678.36,-380.88 1681.62,-380.25"/>
<polygon fill="#63b8ff" stroke="#63b8ff" points="1200.25,-429.38 1190.5,-433.52 1200.71,-436.36 1200.25,-429.38"/>
</a>
</g>
</g>
<!-- Node29 -->
<g id="Node000029" class="node">
<title>Node29</title>
<g id="a_Node000029"><a xlink:href="particle__particle__fine__search_8cc.html" target="_top" xlink:title=" ">
<polygon fill="white" stroke="#666666" points="1352.95,-382 1208.95,-382 1208.95,-341 1352.95,-341 1352.95,-382"/>
<text text-anchor="start" x="1216.95" y="-370" font-family="Helvetica,sans-Serif" font-size="10.00">/home/runner/work/lethe</text>
<text text-anchor="start" x="1216.95" y="-359" font-family="Helvetica,sans-Serif" font-size="10.00">/lethe/source/dem/particle</text>
<text text-anchor="middle" x="1280.95" y="-348" font-family="Helvetica,sans-Serif" font-size="10.00">_particle_fine_search.cc</text>
</a>
</g>
</g>
<!-- Node2&#45;&gt;Node29 -->
<g id="edge46_Node000002_Node000029" class="edge">
<title>Node2&#45;&gt;Node29</title>
<g id="a_edge46_Node000002_Node000029"><a xlink:title=" ">
<path fill="none" stroke="#63b8ff" d="M1172.36,-413.72C1194,-403.51 1218.98,-391.73 1239.52,-382.04"/>
<polygon fill="#63b8ff" stroke="#63b8ff" points="1170.86,-410.56 1163.31,-417.99 1173.84,-416.89 1170.86,-410.56"/>
</a>
</g>
</g>
<!-- Node3&#45;&gt;Node4 -->
<g id="edge3_Node000003_Node000004" class="edge">
<title>Node3&#45;&gt;Node4</title>
<g id="a_edge3_Node000003_Node000004"><a xlink:title=" ">
<path fill="none" stroke="#63b8ff" d="M636.39,-262.27C558.33,-246.69 450.72,-224.14 443.95,-217 420.13,-191.88 419.91,-148.7 422.22,-123.62"/>
<polygon fill="#63b8ff" stroke="#63b8ff" points="635.74,-265.71 646.23,-264.23 637.11,-258.85 635.74,-265.71"/>
</a>
</g>
</g>
<!-- Node3&#45;&gt;Node6 -->
<g id="edge5_Node000003_Node000006" class="edge">
<title>Node3&#45;&gt;Node6</title>
<g id="a_edge5_Node000003_Node000006"><a xlink:title=" ">
<path fill="none" stroke="#63b8ff" d="M748.84,-258.68C772.01,-244.65 803.26,-225.73 826.55,-211.62"/>
<polygon fill="#63b8ff" stroke="#63b8ff" points="746.82,-255.82 740.08,-263.99 750.44,-261.8 746.82,-255.82"/>
</a>
</g>
</g>
<!-- Node8 -->
<g id="Node000008" class="node">
<title>Node8</title>
<g id="a_Node000008"><a xlink:href="fluid__dynamics__vans_8h.html" target="_top" xlink:title=" ">
<polygon fill="white" stroke="#666666" points="751.45,-211.5 614.45,-211.5 614.45,-170.5 751.45,-170.5 751.45,-211.5"/>
<text text-anchor="start" x="622.45" y="-199.5" font-family="Helvetica,sans-Serif" font-size="10.00">/home/runner/work/lethe</text>
<text text-anchor="start" x="622.45" y="-188.5" font-family="Helvetica,sans-Serif" font-size="10.00">/lethe/include/fem&#45;dem</text>
<text text-anchor="middle" x="682.95" y="-177.5" font-family="Helvetica,sans-Serif" font-size="10.00">/fluid_dynamics_vans.h</text>
</a>
</g>
</g>
<!-- Node3&#45;&gt;Node8 -->
<g id="edge7_Node000003_Node000008" class="edge">
<title>Node3&#45;&gt;Node8</title>
<g id="a_edge7_Node000003_Node000008"><a xlink:title=" ">
<path fill="none" stroke="#63b8ff" d="M707.57,-254.29C702.28,-240.9 695.74,-224.36 690.73,-211.69"/>
<polygon fill="#63b8ff" stroke="#63b8ff" points="704.4,-255.79 711.33,-263.8 710.91,-253.21 704.4,-255.79"/>
</a>
</g>
</g>
<!-- Node10 -->
<g id="Node000010" class="node">
<title>Node10</title>
<g id="a_Node000010"><a xlink:href="dem_8cc.html" target="_top" xlink:title=" ">
<polygon fill="white" stroke="#666666" points="596.45,-206 453.45,-206 453.45,-176 596.45,-176 596.45,-206"/>
<text text-anchor="start" x="461.45" y="-194" font-family="Helvetica,sans-Serif" font-size="10.00">/home/runner/work/lethe</text>
<text text-anchor="middle" x="524.95" y="-183" font-family="Helvetica,sans-Serif" font-size="10.00">/lethe/source/dem/dem.cc</text>
</a>
</g>
</g>
<!-- Node3&#45;&gt;Node10 -->
<g id="edge10_Node000003_Node000010" class="edge">
<title>Node3&#45;&gt;Node10</title>
<g id="a_edge10_Node000003_Node000010"><a xlink:title=" ">
<path fill="none" stroke="#63b8ff" d="M676.46,-259.86C640.59,-243.8 588.98,-220.68 556.21,-206"/>
<polygon fill="#63b8ff" stroke="#63b8ff" points="675.11,-263.1 685.67,-263.99 677.98,-256.71 675.11,-263.1"/>
</a>
</g>
</g>
<!-- Node5 -->
<g id="Node000005" class="node">
<title>Node5</title>
<g id="a_Node000005"><a xlink:href="cfd__dem__coupling_8cc.html" target="_top" xlink:title=" ">
<polygon fill="white" stroke="#666666" points="493.45,-41 356.45,-41 356.45,0 493.45,0 493.45,-41"/>
<text text-anchor="start" x="364.45" y="-29" font-family="Helvetica,sans-Serif" font-size="10.00">/home/runner/work/lethe</text>
<text text-anchor="start" x="364.45" y="-18" font-family="Helvetica,sans-Serif" font-size="10.00">/lethe/source/fem&#45;dem</text>
<text text-anchor="middle" x="424.95" y="-7" font-family="Helvetica,sans-Serif" font-size="10.00">/cfd_dem_coupling.cc</text>
</a>
</g>
</g>
<!-- Node4&#45;&gt;Node5 -->
<g id="edge4_Node000004_Node000005" class="edge">
<title>Node4&#45;&gt;Node5</title>
<g id="a_edge4_Node000004_Node000005"><a xlink:title=" ">
<path fill="none" stroke="#63b8ff" d="M424.95,-71.87C424.95,-61.6 424.95,-50.4 424.95,-41.17"/>
<polygon fill="#63b8ff" stroke="#63b8ff" points="421.45,-72.1 424.95,-82.1 428.45,-72.1 421.45,-72.1"/>
</a>
</g>
</g>
<!-- Node7 -->
<g id="Node000007" class="node">
<title>Node7</title>
<g id="a_Node000007"><a xlink:href="cfd__dem__coupling__matrix__free_8cc.html" target="_top" xlink:title=" ">
<polygon fill="white" stroke="#666666" points="931.95,-129 785.95,-129 785.95,-77 931.95,-77 931.95,-129"/>
<text text-anchor="start" x="793.95" y="-117" font-family="Helvetica,sans-Serif" font-size="10.00">/home/runner/work/lethe</text>
<text text-anchor="start" x="793.95" y="-106" font-family="Helvetica,sans-Serif" font-size="10.00">/lethe/source/fem&#45;dem</text>
<text text-anchor="start" x="793.95" y="-95" font-family="Helvetica,sans-Serif" font-size="10.00">/cfd_dem_coupling_matrix</text>
<text text-anchor="middle" x="858.95" y="-84" font-family="Helvetica,sans-Serif" font-size="10.00">_free.cc</text>
</a>
</g>
</g>
<!-- Node6&#45;&gt;Node7 -->
<g id="edge6_Node000006_Node000007" class="edge">
<title>Node6&#45;&gt;Node7</title>
<g id="a_edge6_Node000006_Node000007"><a xlink:title=" ">
<path fill="none" stroke="#63b8ff" d="M858.95,-160.44C858.95,-150.31 858.95,-139.08 858.95,-129.32"/>
<polygon fill="#63b8ff" stroke="#63b8ff" points="855.45,-160.49 858.95,-170.49 862.45,-160.49 855.45,-160.49"/>
</a>
</g>
</g>
<!-- Node8&#45;&gt;Node4 -->
<g id="edge8_Node000008_Node000004" class="edge">
<title>Node8&#45;&gt;Node4</title>
<g id="a_edge8_Node000008_Node000004"><a xlink:title=" ">
<path fill="none" stroke="#63b8ff" d="M614.81,-167.29C574.02,-153.69 522.7,-136.59 483.71,-123.59"/>
<polygon fill="#63b8ff" stroke="#63b8ff" points="613.81,-170.64 624.4,-170.49 616.02,-164 613.81,-170.64"/>
</a>
</g>
</g>
<!-- Node9 -->
<g id="Node000009" class="node">
<title>Node9</title>
<g id="a_Node000009"><a xlink:href="fluid__dynamics__vans_8cc.html" target="_top" xlink:title=" ">
<polygon fill="white" stroke="#666666" points="751.45,-123.5 614.45,-123.5 614.45,-82.5 751.45,-82.5 751.45,-123.5"/>
<text text-anchor="start" x="622.45" y="-111.5" font-family="Helvetica,sans-Serif" font-size="10.00">/home/runner/work/lethe</text>
<text text-anchor="start" x="622.45" y="-100.5" font-family="Helvetica,sans-Serif" font-size="10.00">/lethe/source/fem&#45;dem</text>
<text text-anchor="middle" x="682.95" y="-89.5" font-family="Helvetica,sans-Serif" font-size="10.00">/fluid_dynamics_vans.cc</text>
</a>
</g>
</g>
<!-- Node8&#45;&gt;Node9 -->
<g id="edge9_Node000008_Node000009" class="edge">
<title>Node8&#45;&gt;Node9</title>
<g id="a_edge9_Node000008_Node000009"><a xlink:title=" ">
<path fill="none" stroke="#63b8ff" d="M682.95,-160.36C682.95,-148.26 682.95,-134.58 682.95,-123.74"/>
<polygon fill="#63b8ff" stroke="#63b8ff" points="679.45,-160.49 682.95,-170.49 686.45,-160.49 679.45,-160.49"/>
</a>
</g>
</g>
<!-- Node11&#45;&gt;Node3 -->
<g id="edge12_Node000011_Node000003" class="edge">
<title>Node11&#45;&gt;Node3</title>
<g id="a_edge12_Node000011_Node000003"><a xlink:title=" ">
<path fill="none" stroke="#63b8ff" d="M896.42,-337.79C852.8,-323.75 798.19,-306.16 760.73,-294.1"/>
<polygon fill="#63b8ff" stroke="#63b8ff" points="895.52,-341.18 906.11,-340.91 897.66,-334.51 895.52,-341.18"/>
</a>
</g>
</g>
<!-- Node12 -->
<g id="Node000012" class="node">
<title>Node12</title>
<g id="a_Node000012"><a xlink:href="set__particle__particle__contact__force__model_8h.html" target="_top" xlink:title=" ">
<polygon fill="white" stroke="#666666" points="1047.95,-305 905.95,-305 905.95,-253 1047.95,-253 1047.95,-305"/>
<text text-anchor="start" x="913.95" y="-293" font-family="Helvetica,sans-Serif" font-size="10.00">/home/runner/work/lethe</text>
<text text-anchor="start" x="913.95" y="-282" font-family="Helvetica,sans-Serif" font-size="10.00">/lethe/include/dem/set</text>
<text text-anchor="start" x="913.95" y="-271" font-family="Helvetica,sans-Serif" font-size="10.00">_particle_particle_contact</text>
<text text-anchor="middle" x="976.95" y="-260" font-family="Helvetica,sans-Serif" font-size="10.00">_force_model.h</text>
</a>
</g>
</g>
<!-- Node11&#45;&gt;Node12 -->
<g id="edge13_Node000011_Node000012" class="edge">
<title>Node11&#45;&gt;Node12</title>
<g id="a_edge13_Node000011_Node000012"><a xlink:title=" ">
<path fill="none" stroke="#63b8ff" d="M970.67,-330.49C971.71,-322.15 972.82,-313.19 973.82,-305.16"/>
<polygon fill="#63b8ff" stroke="#63b8ff" points="967.18,-330.25 969.42,-340.6 974.13,-331.11 967.18,-330.25"/>
</a>
</g>
</g>
<!-- Node14 -->
<g id="Node000014" class="node">
<title>Node14</title>
<g id="a_Node000014"><a xlink:href="fluid__dynamics__sharp_8cc.html" target="_top" xlink:title=" ">
<polygon fill="white" stroke="#666666" points="1377.45,-123.5 1238.45,-123.5 1238.45,-82.5 1377.45,-82.5 1377.45,-123.5"/>
<text text-anchor="start" x="1246.45" y="-111.5" font-family="Helvetica,sans-Serif" font-size="10.00">/home/runner/work/lethe</text>
<text text-anchor="start" x="1246.45" y="-100.5" font-family="Helvetica,sans-Serif" font-size="10.00">/lethe/source/fem&#45;dem</text>
<text text-anchor="middle" x="1307.95" y="-89.5" font-family="Helvetica,sans-Serif" font-size="10.00">/fluid_dynamics_sharp.cc</text>
</a>
</g>
</g>
<!-- Node11&#45;&gt;Node14 -->
<g id="edge23_Node000011_Node000014" class="edge">
<title>Node11&#45;&gt;Node14</title>
<g id="a_edge23_Node000011_Node000014"><a xlink:title=" ">
<path fill="none" stroke="#63b8ff" d="M1045.59,-340.82C1136.41,-323.68 1171.63,-350.63 1247.95,-305 1273.21,-289.9 1265.1,-270.24 1288.95,-253 1326.89,-225.57 1361.09,-255.35 1387.95,-217 1401.21,-198.07 1398.2,-185.71 1387.95,-165 1379.27,-147.47 1362.87,-133.6 1347.17,-123.55"/>
<polygon fill="#63b8ff" stroke="#63b8ff" points="1044.84,-337.4 1035.74,-342.81 1046.23,-344.26 1044.84,-337.4"/>
</a>
</g>
</g>
<!-- Node15 -->
<g id="Node000015" class="node">
<title>Node15</title>
<g id="a_Node000015"><a xlink:href="set__particle__particle__contact__force__model_8cc.html" target="_top" xlink:title=" ">
<polygon fill="white" stroke="#666666" points="1378.95,-217 1236.95,-217 1236.95,-165 1378.95,-165 1378.95,-217"/>
<text text-anchor="start" x="1244.95" y="-205" font-family="Helvetica,sans-Serif" font-size="10.00">/home/runner/work/lethe</text>
<text text-anchor="start" x="1244.95" y="-194" font-family="Helvetica,sans-Serif" font-size="10.00">/lethe/source/dem/set</text>
<text text-anchor="start" x="1244.95" y="-183" font-family="Helvetica,sans-Serif" font-size="10.00">_particle_particle_contact</text>
<text text-anchor="middle" x="1307.95" y="-172" font-family="Helvetica,sans-Serif" font-size="10.00">_force_model.cc</text>
</a>
</g>
</g>
<!-- Node11&#45;&gt;Node15 -->
<g id="edge22_Node000011_Node000015" class="edge">
<title>Node11&#45;&gt;Node15</title>
<g id="a_edge22_Node000011_Node000015"><a xlink:title=" ">
<path fill="none" stroke="#63b8ff" d="M1045.65,-340.76C1120.68,-325.21 1149.13,-342.64 1211.95,-305 1237.92,-289.44 1236.35,-276.08 1255.95,-253 1265.95,-241.23 1277.05,-228.19 1286.42,-217.21"/>
<polygon fill="#63b8ff" stroke="#63b8ff" points="1044.77,-337.37 1035.76,-342.94 1046.28,-344.2 1044.77,-337.37"/>
</a>
</g>
</g>
<!-- Node16 -->
<g id="Node000016" class="node">
<title>Node16</title>
<g id="a_Node000016"><a xlink:href="force__chains__visualization_8cc.html" target="_top" xlink:title=" ">
<polygon fill="white" stroke="#666666" points="1203.45,-299.5 1066.45,-299.5 1066.45,-258.5 1203.45,-258.5 1203.45,-299.5"/>
<text text-anchor="start" x="1074.45" y="-287.5" font-family="Helvetica,sans-Serif" font-size="10.00">/home/runner/work/lethe</text>
<text text-anchor="start" x="1074.45" y="-276.5" font-family="Helvetica,sans-Serif" font-size="10.00">/lethe/source/dem/force</text>
<text text-anchor="middle" x="1134.95" y="-265.5" font-family="Helvetica,sans-Serif" font-size="10.00">_chains_visualization.cc</text>
</a>
</g>
</g>
<!-- Node11&#45;&gt;Node16 -->
<g id="edge21_Node000011_Node000016" class="edge">
<title>Node11&#45;&gt;Node16</title>
<g id="a_edge21_Node000011_Node000016"><a xlink:title=" ">
<path fill="none" stroke="#63b8ff" d="M1017.19,-336.42C1041.71,-324.67 1070.84,-310.72 1093.98,-299.63"/>
<polygon fill="#63b8ff" stroke="#63b8ff" points="1015.55,-333.33 1008.04,-340.81 1018.58,-339.64 1015.55,-333.33"/>
</a>
</g>
</g>
<!-- Node12&#45;&gt;Node5 -->
<g id="edge18_Node000012_Node000005" class="edge">
<title>Node12&#45;&gt;Node5</title>
<g id="a_edge18_Node000012_Node000005"><a xlink:title=" ">
<path fill="none" stroke="#63b8ff" d="M983.35,-242.6C989.56,-195.43 991.71,-113.67 940.95,-77 871.11,-26.54 617.63,-20.5 493.88,-20.67"/>
<polygon fill="#63b8ff" stroke="#63b8ff" points="979.86,-242.28 981.89,-252.67 986.79,-243.28 979.86,-242.28"/>
</a>
</g>
</g>
<!-- Node12&#45;&gt;Node7 -->
<g id="edge19_Node000012_Node000007" class="edge">
<title>Node12&#45;&gt;Node7</title>
<g id="a_edge19_Node000012_Node000007"><a xlink:title=" ">
<path fill="none" stroke="#63b8ff" d="M977.94,-242.88C976.99,-219.06 972.4,-187.86 956.95,-165 946.96,-150.23 932.07,-138.35 916.89,-129.15"/>
<polygon fill="#63b8ff" stroke="#63b8ff" points="974.45,-243 978.15,-252.93 981.44,-242.86 974.45,-243"/>
</a>
</g>
</g>
<!-- Node12&#45;&gt;Node10 -->
<g id="edge16_Node000012_Node000010" class="edge">
<title>Node12&#45;&gt;Node10</title>
<g id="a_edge16_Node000012_Node000010"><a xlink:title=" ">
<path fill="none" stroke="#63b8ff" d="M895.77,-266.05C803.5,-252.23 658.73,-229.75 604.95,-217 592.2,-213.98 578.53,-209.99 566.16,-206.09"/>
<polygon fill="#63b8ff" stroke="#63b8ff" points="895.51,-269.55 905.92,-267.57 896.54,-262.63 895.51,-269.55"/>
</a>
</g>
</g>
<!-- Node13 -->
<g id="Node000013" class="node">
<title>Node13</title>
<g id="a_Node000013"><a xlink:href="fluid__dynamics__sharp_8h.html" target="_top" xlink:title=" ">
<polygon fill="white" stroke="#666666" points="1180.45,-211.5 1043.45,-211.5 1043.45,-170.5 1180.45,-170.5 1180.45,-211.5"/>
<text text-anchor="start" x="1051.45" y="-199.5" font-family="Helvetica,sans-Serif" font-size="10.00">/home/runner/work/lethe</text>
<text text-anchor="start" x="1051.45" y="-188.5" font-family="Helvetica,sans-Serif" font-size="10.00">/lethe/include/fem&#45;dem</text>
<text text-anchor="middle" x="1111.95" y="-177.5" font-family="Helvetica,sans-Serif" font-size="10.00">/fluid_dynamics_sharp.h</text>
</a>
</g>
</g>
<!-- Node12&#45;&gt;Node13 -->
<g id="edge14_Node000012_Node000013" class="edge">
<title>Node12&#45;&gt;Node13</title>
<g id="a_edge14_Node000012_Node000013"><a xlink:title=" ">
<path fill="none" stroke="#63b8ff" d="M1024.81,-247.51C1043.6,-235.54 1064.61,-222.16 1081.29,-211.53"/>
<polygon fill="#63b8ff" stroke="#63b8ff" points="1022.91,-244.57 1016.36,-252.89 1026.67,-250.47 1022.91,-244.57"/>
</a>
</g>
</g>
<!-- Node12&#45;&gt;Node14 -->
<g id="edge20_Node000012_Node000014" class="edge">
<title>Node12&#45;&gt;Node14</title>
<g id="a_edge20_Node000012_Node000014"><a xlink:title=" ">
<path fill="none" stroke="#63b8ff" d="M1057.93,-252.9C1117.75,-237.35 1141.2,-249.44 1188.95,-217 1212.84,-200.77 1207.6,-185.51 1227.95,-165 1243.2,-149.62 1262.45,-134.83 1278.24,-123.67"/>
<polygon fill="#63b8ff" stroke="#63b8ff" points="1056.71,-249.61 1048.01,-255.65 1058.58,-256.35 1056.71,-249.61"/>
</a>
</g>
</g>
<!-- Node12&#45;&gt;Node15 -->
<g id="edge17_Node000012_Node000015" class="edge">
<title>Node12&#45;&gt;Node15</title>
<g id="a_edge17_Node000012_Node000015"><a xlink:title=" ">
<path fill="none" stroke="#63b8ff" d="M1057.73,-252.89C1131.66,-233.85 1152.8,-234.9 1222.95,-217 1227.42,-215.86 1232.01,-214.64 1236.63,-213.38"/>
<polygon fill="#63b8ff" stroke="#63b8ff" points="1056.74,-249.53 1047.95,-255.45 1058.51,-256.31 1056.74,-249.53"/>
</a>
</g>
</g>
<!-- Node13&#45;&gt;Node14 -->
<g id="edge15_Node000013_Node000014" class="edge">
<title>Node13&#45;&gt;Node14</title>
<g id="a_edge15_Node000013_Node000014"><a xlink:title=" ">
<path fill="none" stroke="#63b8ff" d="M1165.68,-166.42C1196.34,-152.97 1234.31,-136.31 1263.31,-123.59"/>
<polygon fill="#63b8ff" stroke="#63b8ff" points="1164.17,-163.26 1156.42,-170.49 1166.99,-169.67 1164.17,-163.26"/>
</a>
</g>
</g>
<!-- Node17&#45;&gt;Node3 -->
<g id="edge25_Node000017_Node000003" class="edge">
<title>Node17&#45;&gt;Node3</title>
<g id="a_edge25_Node000017_Node000003"><a xlink:title=" ">
<path fill="none" stroke="#63b8ff" d="M1361.27,-341.05C1155.61,-308.35 1099.81,-326.92 896.95,-305 860.87,-301.1 820.89,-295.66 787.78,-290.85"/>
<polygon fill="#63b8ff" stroke="#63b8ff" points="1360.74,-344.51 1371.17,-342.64 1361.86,-337.6 1360.74,-344.51"/>
</a>
</g>
</g>
<!-- Node17&#45;&gt;Node13 -->
<g id="edge26_Node000017_Node000013" class="edge">
<title>Node17&#45;&gt;Node13</title>
<g id="a_edge26_Node000017_Node000013"><a xlink:title=" ">
<path fill="none" stroke="#63b8ff" d="M1450.8,-331.29C1457.59,-307.44 1462.01,-274.32 1443.95,-253 1412.49,-215.87 1275.75,-226.13 1227.95,-217 1212.57,-214.06 1196.1,-210.67 1180.54,-207.34"/>
<polygon fill="#63b8ff" stroke="#63b8ff" points="1447.45,-330.29 1447.8,-340.88 1454.13,-332.37 1447.45,-330.29"/>
</a>
</g>
</g>
<!-- Node17&#45;&gt;Node14 -->
<g id="edge28_Node000017_Node000014" class="edge">
<title>Node17&#45;&gt;Node14</title>
<g id="a_edge28_Node000017_Node000014"><a xlink:title=" ">
<path fill="none" stroke="#63b8ff" d="M1455.6,-331.89C1459.44,-323.47 1463,-314.08 1464.95,-305 1478.65,-241.23 1466.34,-211.84 1420.95,-165 1403.8,-147.31 1380.41,-133.53 1359.35,-123.57"/>
<polygon fill="#63b8ff" stroke="#63b8ff" points="1452.44,-330.38 1451.23,-340.91 1458.74,-333.43 1452.44,-330.38"/>
</a>
</g>
</g>
<!-- Node18 -->
<g id="Node000018" class="node">
<title>Node18</title>
<g id="a_Node000018"><a xlink:href="log__collision__data_8cc.html" target="_top" xlink:title=" ">
<polygon fill="white" stroke="#666666" points="1435.45,-299.5 1298.45,-299.5 1298.45,-258.5 1435.45,-258.5 1435.45,-299.5"/>
<text text-anchor="start" x="1306.45" y="-287.5" font-family="Helvetica,sans-Serif" font-size="10.00">/home/runner/work/lethe</text>
<text text-anchor="start" x="1306.45" y="-276.5" font-family="Helvetica,sans-Serif" font-size="10.00">/lethe/source/dem/log</text>
<text text-anchor="middle" x="1366.95" y="-265.5" font-family="Helvetica,sans-Serif" font-size="10.00">_collision_data.cc</text>
</a>
</g>
</g>
<!-- Node17&#45;&gt;Node18 -->
<g id="edge27_Node000017_Node000018" class="edge">
<title>Node17&#45;&gt;Node18</title>
<g id="a_edge27_Node000017_Node000018"><a xlink:title=" ">
<path fill="none" stroke="#63b8ff" d="M1414.95,-332.94C1405.04,-322 1393.86,-309.68 1384.78,-299.67"/>
<polygon fill="#63b8ff" stroke="#63b8ff" points="1412.59,-335.54 1421.9,-340.6 1417.78,-330.84 1412.59,-335.54"/>
</a>
</g>
</g>
<!-- Node19&#45;&gt;Node3 -->
<g id="edge30_Node000019_Node000003" class="edge">
<title>Node19&#45;&gt;Node3</title>
<g id="a_edge30_Node000019_Node000003"><a xlink:title=" ">
<path fill="none" stroke="#63b8ff" d="M559.98,-337.43C598.2,-323.45 645.73,-306.06 678.41,-294.1"/>
<polygon fill="#63b8ff" stroke="#63b8ff" points="558.67,-334.19 550.48,-340.91 561.08,-340.76 558.67,-334.19"/>
</a>
</g>
</g>
<!-- Node20 -->
<g id="Node000020" class="node">
<title>Node20</title>
<g id="a_Node000020"><a xlink:href="set__particle__wall__contact__force__model_8h.html" target="_top" xlink:title=" ">
<polygon fill="white" stroke="#666666" points="382.45,-305 245.45,-305 245.45,-253 382.45,-253 382.45,-305"/>
<text text-anchor="start" x="253.45" y="-293" font-family="Helvetica,sans-Serif" font-size="10.00">/home/runner/work/lethe</text>
<text text-anchor="start" x="253.45" y="-282" font-family="Helvetica,sans-Serif" font-size="10.00">/lethe/include/dem/set</text>
<text text-anchor="start" x="253.45" y="-271" font-family="Helvetica,sans-Serif" font-size="10.00">_particle_wall_contact</text>
<text text-anchor="middle" x="313.95" y="-260" font-family="Helvetica,sans-Serif" font-size="10.00">_force_model.h</text>
</a>
</g>
</g>
<!-- Node19&#45;&gt;Node20 -->
<g id="edge31_Node000019_Node000020" class="edge">
<title>Node19&#45;&gt;Node20</title>
<g id="a_edge31_Node000019_Node000020"><a xlink:title=" ">
<path fill="none" stroke="#63b8ff" d="M442.75,-336.66C420.17,-326.73 393.94,-315.19 371.07,-305.13"/>
<polygon fill="#63b8ff" stroke="#63b8ff" points="441.62,-339.98 452.18,-340.81 444.44,-333.58 441.62,-339.98"/>
</a>
</g>
</g>
<!-- Node22 -->
<g id="Node000022" class="node">
<title>Node22</title>
<g id="a_Node000022"><a xlink:href="ib__particles__dem_8h.html" target="_top" xlink:title=" ">
<polygon fill="white" stroke="#666666" points="565.45,-299.5 428.45,-299.5 428.45,-258.5 565.45,-258.5 565.45,-299.5"/>
<text text-anchor="start" x="436.45" y="-287.5" font-family="Helvetica,sans-Serif" font-size="10.00">/home/runner/work/lethe</text>
<text text-anchor="start" x="436.45" y="-276.5" font-family="Helvetica,sans-Serif" font-size="10.00">/lethe/include/fem&#45;dem</text>
<text text-anchor="middle" x="496.95" y="-265.5" font-family="Helvetica,sans-Serif" font-size="10.00">/ib_particles_dem.h</text>
</a>
</g>
</g>
<!-- Node19&#45;&gt;Node22 -->
<g id="edge36_Node000019_Node000022" class="edge">
<title>Node19&#45;&gt;Node22</title>
<g id="a_edge36_Node000019_Node000022"><a xlink:title=" ">
<path fill="none" stroke="#63b8ff" d="M496.95,-330.37C496.95,-320.1 496.95,-308.9 496.95,-299.67"/>
<polygon fill="#63b8ff" stroke="#63b8ff" points="493.45,-330.6 496.95,-340.6 500.45,-330.6 493.45,-330.6"/>
</a>
</g>
</g>
<!-- Node24 -->
<g id="Node000024" class="node">
<title>Node24</title>
<g id="a_Node000024"><a xlink:href="particle__wall__contact__force_8cc.html" target="_top" xlink:title=" ">
<polygon fill="white" stroke="#666666" points="226.95,-299.5 82.95,-299.5 82.95,-258.5 226.95,-258.5 226.95,-299.5"/>
<text text-anchor="start" x="90.95" y="-287.5" font-family="Helvetica,sans-Serif" font-size="10.00">/home/runner/work/lethe</text>
<text text-anchor="start" x="90.95" y="-276.5" font-family="Helvetica,sans-Serif" font-size="10.00">/lethe/source/dem/particle</text>
<text text-anchor="middle" x="154.95" y="-265.5" font-family="Helvetica,sans-Serif" font-size="10.00">_wall_contact_force.cc</text>
</a>
</g>
</g>
<!-- Node19&#45;&gt;Node24 -->
<g id="edge39_Node000019_Node000024" class="edge">
<title>Node19&#45;&gt;Node24</title>
<g id="a_edge39_Node000019_Node000024"><a xlink:title=" ">
<path fill="none" stroke="#63b8ff" d="M413.34,-344.71C361.9,-334.5 294.79,-320.3 235.95,-305 229.54,-303.33 222.88,-301.48 216.26,-299.56"/>
<polygon fill="#63b8ff" stroke="#63b8ff" points="412.92,-348.19 423.41,-346.7 414.27,-341.33 412.92,-348.19"/>
</a>
</g>
</g>
<!-- Node20&#45;&gt;Node5 -->
<g id="edge34_Node000020_Node000005" class="edge">
<title>Node20&#45;&gt;Node5</title>
<g id="a_edge34_Node000020_Node000005"><a xlink:title=" ">
<path fill="none" stroke="#63b8ff" d="M260.93,-246.63C251.23,-238.3 242.45,-228.39 236.95,-217 226.89,-196.19 226.94,-185.83 236.95,-165 265.76,-105.05 333.39,-63.51 379.17,-41.08"/>
<polygon fill="#63b8ff" stroke="#63b8ff" points="258.86,-249.46 268.85,-252.97 263.23,-243.99 258.86,-249.46"/>
</a>
</g>
</g>
<!-- Node20&#45;&gt;Node7 -->
<g id="edge35_Node000020_Node000007" class="edge">
<title>Node20&#45;&gt;Node7</title>
<g id="a_edge35_Node000020_Node000007"><a xlink:title=" ">
<path fill="none" stroke="#63b8ff" d="M270.27,-245.77C262.01,-237.4 254.53,-227.69 249.95,-217 240.85,-195.76 234.19,-181.91 249.95,-165 288.68,-123.44 703.86,-137.99 759.95,-129 768.35,-127.65 777.08,-125.93 785.72,-124.03"/>
<polygon fill="#63b8ff" stroke="#63b8ff" points="268,-248.45 277.67,-252.78 272.81,-243.36 268,-248.45"/>
</a>
</g>
</g>
<!-- Node20&#45;&gt;Node10 -->
<g id="edge32_Node000020_Node000010" class="edge">
<title>Node20&#45;&gt;Node10</title>
<g id="a_edge32_Node000020_Node000010"><a xlink:title=" ">
<path fill="none" stroke="#63b8ff" d="M384.93,-249.07C420.53,-234.56 462.01,-217.65 490.54,-206.03"/>
<polygon fill="#63b8ff" stroke="#63b8ff" points="383.48,-245.88 375.54,-252.89 386.13,-252.36 383.48,-245.88"/>
</a>
</g>
</g>
<!-- Node21 -->
<g id="Node000021" class="node">
<title>Node21</title>
<g id="a_Node000021"><a xlink:href="set__particle__wall__contact__force__model_8cc.html" target="_top" xlink:title=" ">
<polygon fill="white" stroke="#666666" points="164.45,-217 27.45,-217 27.45,-165 164.45,-165 164.45,-217"/>
<text text-anchor="start" x="35.45" y="-205" font-family="Helvetica,sans-Serif" font-size="10.00">/home/runner/work/lethe</text>
<text text-anchor="start" x="35.45" y="-194" font-family="Helvetica,sans-Serif" font-size="10.00">/lethe/source/dem/set</text>
<text text-anchor="start" x="35.45" y="-183" font-family="Helvetica,sans-Serif" font-size="10.00">_particle_wall_contact</text>
<text text-anchor="middle" x="95.95" y="-172" font-family="Helvetica,sans-Serif" font-size="10.00">_force_model.cc</text>
</a>
</g>
</g>
<!-- Node20&#45;&gt;Node21 -->
<g id="edge33_Node000020_Node000021" class="edge">
<title>Node20&#45;&gt;Node21</title>
<g id="a_edge33_Node000020_Node000021"><a xlink:title=" ">
<path fill="none" stroke="#63b8ff" d="M240.78,-249.14C214.49,-238.77 185.08,-227.16 159.67,-217.14"/>
<polygon fill="#63b8ff" stroke="#63b8ff" points="239.72,-252.48 250.31,-252.89 242.29,-245.97 239.72,-252.48"/>
</a>
</g>
</g>
<!-- Node22&#45;&gt;Node13 -->
<g id="edge37_Node000022_Node000013" class="edge">
<title>Node22&#45;&gt;Node13</title>
<g id="a_edge37_Node000022_Node000013"><a xlink:title=" ">
<path fill="none" stroke="#63b8ff" d="M575.51,-263.05C595.51,-259.5 616.99,-255.9 636.95,-253 778.58,-232.41 815.15,-236.4 956.95,-217 985.3,-213.12 1016.47,-208.22 1043.38,-203.78"/>
<polygon fill="#63b8ff" stroke="#63b8ff" points="574.74,-259.63 565.52,-264.84 575.98,-266.52 574.74,-259.63"/>
</a>
</g>
</g>
<!-- Node23 -->
<g id="Node000023" class="node">
<title>Node23</title>
<g id="a_Node000023"><a xlink:href="ib__particles__dem_8cc.html" target="_top" xlink:title=" ">
<polygon fill="white" stroke="#666666" points="396.45,-211.5 259.45,-211.5 259.45,-170.5 396.45,-170.5 396.45,-211.5"/>
<text text-anchor="start" x="267.45" y="-199.5" font-family="Helvetica,sans-Serif" font-size="10.00">/home/runner/work/lethe</text>
<text text-anchor="start" x="267.45" y="-188.5" font-family="Helvetica,sans-Serif" font-size="10.00">/lethe/source/fem&#45;dem</text>
<text text-anchor="middle" x="327.95" y="-177.5" font-family="Helvetica,sans-Serif" font-size="10.00">/ib_particles_dem.cc</text>
</a>
</g>
</g>
<!-- Node22&#45;&gt;Node23 -->
<g id="edge38_Node000022_Node000023" class="edge">
<title>Node22&#45;&gt;Node23</title>
<g id="a_edge38_Node000022_Node000023"><a xlink:title=" ">
<path fill="none" stroke="#63b8ff" d="M449.58,-253.9C423.34,-240.54 391.12,-224.15 366.44,-211.59"/>
<polygon fill="#63b8ff" stroke="#63b8ff" points="448.1,-257.07 458.6,-258.49 451.27,-250.83 448.1,-257.07"/>
</a>
</g>
</g>
<!-- Node26 -->
<g id="Node000026" class="node">
<title>Node26</title>
<g id="a_Node000026"><a xlink:href="ray__tracing_8cc.html" target="_top" xlink:title=" ">
<polygon fill="white" stroke="#666666" points="1667.45,-299.5 1530.45,-299.5 1530.45,-258.5 1667.45,-258.5 1667.45,-299.5"/>
<text text-anchor="start" x="1538.45" y="-287.5" font-family="Helvetica,sans-Serif" font-size="10.00">/home/runner/work/lethe</text>
<text text-anchor="start" x="1538.45" y="-276.5" font-family="Helvetica,sans-Serif" font-size="10.00">/lethe/source/dem/ray</text>
<text text-anchor="middle" x="1598.95" y="-265.5" font-family="Helvetica,sans-Serif" font-size="10.00">_tracing.cc</text>
</a>
</g>
</g>
<!-- Node25&#45;&gt;Node26 -->
<g id="edge41_Node000025_Node000026" class="edge">
<title>Node25&#45;&gt;Node26</title>
<g id="a_edge41_Node000025_Node000026"><a xlink:title=" ">
<path fill="none" stroke="#63b8ff" d="M1596.44,-330.37C1596.95,-320.1 1597.51,-308.9 1597.97,-299.67"/>
<polygon fill="#63b8ff" stroke="#63b8ff" points="1592.94,-330.44 1595.94,-340.6 1599.93,-330.79 1592.94,-330.44"/>
</a>
</g>
</g>
</g>
</svg>
