<?xml version="1.0" encoding="UTF-8" standalone="no"?>
<!DOCTYPE svg PUBLIC "-//W3C//DTD SVG 1.1//EN"
 "http://www.w3.org/Graphics/SVG/1.1/DTD/svg11.dtd">
<!-- Generated by graphviz version 2.43.0 (0)
 -->
<!-- Title: /home/runner/work/lethe/lethe/source/dem/particle_point_line_broad_search.cc Pages: 1 -->
<svg width="1884pt" height="445pt"
 viewBox="0.00 0.00 1883.50 445.00" xmlns="http://www.w3.org/2000/svg" xmlns:xlink="http://www.w3.org/1999/xlink">
<g id="graph0" class="graph" transform="scale(1 1) rotate(0) translate(4 441)">
<title>/home/runner/work/lethe/lethe/source/dem/particle_point_line_broad_search.cc</title>
<!-- Node1 -->
<g id="Node000001" class="node">
<title>Node1</title>
<g id="a_Node000001"><a xlink:title=" ">
<polygon fill="#999999" stroke="#666666" points="711,-437 557,-437 557,-396 711,-396 711,-437"/>
<text text-anchor="start" x="565" y="-425" font-family="Helvetica,sans-Serif" font-size="10.00">/home/runner/work/lethe</text>
<text text-anchor="start" x="565" y="-414" font-family="Helvetica,sans-Serif" font-size="10.00">/lethe/source/dem/particle</text>
<text text-anchor="middle" x="634" y="-403" font-family="Helvetica,sans-Serif" font-size="10.00">_point_line_broad_search.cc</text>
</a>
</g>
</g>
<!-- Node2 -->
<g id="Node000002" class="node">
<title>Node2</title>
<g id="a_Node000002"><a xlink:href="dem__properties_8h.html" target="_top" xlink:title="DEM particle property definitions and output name management.">
<polygon fill="white" stroke="#666666" points="126,-156.5 0,-156.5 0,-137.5 126,-137.5 126,-156.5"/>
<text text-anchor="middle" x="63" y="-144.5" font-family="Helvetica,sans-Serif" font-size="10.00">core/dem_properties.h</text>
</a>
</g>
</g>
<!-- Node1&#45;&gt;Node2 -->
<g id="edge1_Node000001_Node000002" class="edge">
<title>Node1&#45;&gt;Node2</title>
<g id="a_edge1_Node000001_Node000002"><a xlink:title=" ">
<path fill="none" stroke="#63b8ff" d="M556.85,-402.12C412.87,-375.41 112.36,-310.85 52,-228 38.82,-209.91 46.36,-183.26 53.9,-165.77"/>
<polygon fill="#63b8ff" stroke="#63b8ff" points="57.09,-167.21 58.18,-156.67 50.76,-164.23 57.09,-167.21"/>
</a>
</g>
</g>
<!-- Node5 -->
<g id="Node000005" class="node">
<title>Node5</title>
<g id="a_Node000005"><a xlink:href="particle__point__line__broad__search_8h.html" target="_top" xlink:title=" ">
<polygon fill="white" stroke="#666666" points="1353.5,-360 1234.5,-360 1234.5,-330 1353.5,-330 1353.5,-360"/>
<text text-anchor="start" x="1242.5" y="-348" font-family="Helvetica,sans-Serif" font-size="10.00">dem/particle_point</text>
<text text-anchor="middle" x="1294" y="-337" font-family="Helvetica,sans-Serif" font-size="10.00">_line_broad_search.h</text>
</a>
</g>
</g>
<!-- Node1&#45;&gt;Node5 -->
<g id="edge4_Node000001_Node000005" class="edge">
<title>Node1&#45;&gt;Node5</title>
<g id="a_edge4_Node000001_Node000005"><a xlink:title=" ">
<path fill="none" stroke="#63b8ff" d="M711,-407.39C840.49,-393.76 1099.85,-366.44 1224.28,-353.34"/>
<polygon fill="#63b8ff" stroke="#63b8ff" points="1224.87,-356.8 1234.44,-352.27 1224.13,-349.84 1224.87,-356.8"/>
</a>
</g>
</g>
<!-- Node3 -->
<g id="Node000003" class="node">
<title>Node3</title>
<g id="a_Node000003"><a xlink:title=" ">
<polygon fill="#e0e0e0" stroke="#999999" points="149,-90.5 105,-90.5 105,-71.5 149,-71.5 149,-90.5"/>
<text text-anchor="middle" x="127" y="-78.5" font-family="Helvetica,sans-Serif" font-size="10.00">string</text>
</a>
</g>
</g>
<!-- Node2&#45;&gt;Node3 -->
<g id="edge2_Node000002_Node000003" class="edge">
<title>Node2&#45;&gt;Node3</title>
<g id="a_edge2_Node000002_Node000003"><a xlink:title=" ">
<path fill="none" stroke="#63b8ff" d="M71.63,-137.37C81.69,-127.31 98.52,-110.48 110.99,-98.01"/>
<polygon fill="#63b8ff" stroke="#63b8ff" points="113.5,-100.45 118.09,-90.91 108.55,-95.5 113.5,-100.45"/>
</a>
</g>
</g>
<!-- Node4 -->
<g id="Node000004" class="node">
<title>Node4</title>
<g id="a_Node000004"><a xlink:title=" ">
<polygon fill="#e0e0e0" stroke="#999999" points="86.5,-90.5 39.5,-90.5 39.5,-71.5 86.5,-71.5 86.5,-90.5"/>
<text text-anchor="middle" x="63" y="-78.5" font-family="Helvetica,sans-Serif" font-size="10.00">vector</text>
</a>
</g>
</g>
<!-- Node2&#45;&gt;Node4 -->
<g id="edge3_Node000002_Node000004" class="edge">
<title>Node2&#45;&gt;Node4</title>
<g id="a_edge3_Node000002_Node000004"><a xlink:title=" ">
<path fill="none" stroke="#63b8ff" d="M63,-137.37C63,-128.16 63,-113.29 63,-101.27"/>
<polygon fill="#63b8ff" stroke="#63b8ff" points="66.5,-100.91 63,-90.91 59.5,-100.91 66.5,-100.91"/>
</a>
</g>
</g>
<!-- Node6 -->
<g id="Node000006" class="node">
<title>Node6</title>
<g id="a_Node000006"><a xlink:href="adaptive__sparse__contacts_8h.html" target="_top" xlink:title=" ">
<polygon fill="white" stroke="#666666" points="794,-294 672,-294 672,-264 794,-264 794,-294"/>
<text text-anchor="start" x="680" y="-282" font-family="Helvetica,sans-Serif" font-size="10.00">dem/adaptive_sparse</text>
<text text-anchor="middle" x="733" y="-271" font-family="Helvetica,sans-Serif" font-size="10.00">_contacts.h</text>
</a>
</g>
</g>
<!-- Node5&#45;&gt;Node6 -->
<g id="edge5_Node000005_Node000006" class="edge">
<title>Node5&#45;&gt;Node6</title>
<g id="a_edge5_Node000005_Node000006"><a xlink:title=" ">
<path fill="none" stroke="#63b8ff" d="M1234.49,-337.21C1130.44,-325.34 915.91,-300.87 804.17,-288.12"/>
<polygon fill="#63b8ff" stroke="#63b8ff" points="804.35,-284.62 794.02,-286.96 803.56,-291.57 804.35,-284.62"/>
</a>
</g>
</g>
<!-- Node7 -->
<g id="Node000007" class="node">
<title>Node7</title>
<g id="a_Node000007"><a xlink:href="data__containers_8h.html" target="_top" xlink:title=" ">
<polygon fill="white" stroke="#666666" points="1358,-222.5 1230,-222.5 1230,-203.5 1358,-203.5 1358,-222.5"/>
<text text-anchor="middle" x="1294" y="-210.5" font-family="Helvetica,sans-Serif" font-size="10.00">dem/data_containers.h</text>
</a>
</g>
</g>
<!-- Node5&#45;&gt;Node7 -->
<g id="edge48_Node000005_Node000007" class="edge">
<title>Node5&#45;&gt;Node7</title>
<g id="a_edge48_Node000005_Node000007"><a xlink:title=" ">
<path fill="none" stroke="#63b8ff" d="M1294,-329.84C1294,-306.34 1294,-259.26 1294,-232.93"/>
<polygon fill="#63b8ff" stroke="#63b8ff" points="1297.5,-232.75 1294,-222.75 1290.5,-232.75 1297.5,-232.75"/>
</a>
</g>
</g>
<!-- Node18 -->
<g id="Node000018" class="node">
<title>Node18</title>
<g id="a_Node000018"><a xlink:title=" ">
<polygon fill="#e0e0e0" stroke="#999999" points="1875.5,-96 1744.5,-96 1744.5,-66 1875.5,-66 1875.5,-96"/>
<text text-anchor="start" x="1752.5" y="-84" font-family="Helvetica,sans-Serif" font-size="10.00">deal.II/particles/particle</text>
<text text-anchor="middle" x="1810" y="-73" font-family="Helvetica,sans-Serif" font-size="10.00">_iterator.h</text>
</a>
</g>
</g>
<!-- Node5&#45;&gt;Node18 -->
<g id="edge49_Node000005_Node000018" class="edge">
<title>Node5&#45;&gt;Node18</title>
<g id="a_edge49_Node000005_Node000018"><a xlink:title=" ">
<path fill="none" stroke="#63b8ff" d="M1353.72,-334.95C1450.96,-317.43 1644.88,-270.62 1767,-162 1784.04,-146.84 1795.55,-123.28 1802.34,-105.65"/>
<polygon fill="#63b8ff" stroke="#63b8ff" points="1805.7,-106.65 1805.8,-96.06 1799.11,-104.28 1805.7,-106.65"/>
</a>
</g>
</g>
<!-- Node26 -->
<g id="Node000026" class="node">
<title>Node26</title>
<g id="a_Node000026"><a xlink:href="contact__info_8h.html" target="_top" xlink:title=" ">
<polygon fill="white" stroke="#666666" points="1726,-156.5 1616,-156.5 1616,-137.5 1726,-137.5 1726,-156.5"/>
<text text-anchor="middle" x="1671" y="-144.5" font-family="Helvetica,sans-Serif" font-size="10.00">dem/contact_info.h</text>
</a>
</g>
</g>
<!-- Node5&#45;&gt;Node26 -->
<g id="edge47_Node000005_Node000026" class="edge">
<title>Node5&#45;&gt;Node26</title>
<g id="a_edge47_Node000005_Node000026"><a xlink:title=" ">
<path fill="none" stroke="#63b8ff" d="M1321.11,-329.9C1391.11,-293.51 1577.18,-196.78 1645.44,-161.29"/>
<polygon fill="#63b8ff" stroke="#63b8ff" points="1647.36,-164.23 1654.62,-156.51 1644.14,-158.02 1647.36,-164.23"/>
</a>
</g>
</g>
<!-- Node6&#45;&gt;Node4 -->
<g id="edge46_Node000006_Node000004" class="edge">
<title>Node6&#45;&gt;Node4</title>
<g id="a_edge46_Node000006_Node000004"><a xlink:title=" ">
<path fill="none" stroke="#63b8ff" d="M745.63,-263.71C759.39,-246.37 777.39,-217.09 761,-198 663.63,-84.55 239.82,-136.84 96,-96 94.11,-95.46 92.19,-94.85 90.27,-94.18"/>
<polygon fill="#63b8ff" stroke="#63b8ff" points="91.45,-90.88 80.86,-90.53 88.92,-97.41 91.45,-90.88"/>
</a>
</g>
</g>
<!-- Node6&#45;&gt;Node7 -->
<g id="edge6_Node000006_Node000007" class="edge">
<title>Node6&#45;&gt;Node7</title>
<g id="a_edge6_Node000006_Node000007"><a xlink:title=" ">
<path fill="none" stroke="#63b8ff" d="M794.1,-271.03C897.79,-259.2 1107.8,-235.24 1219.77,-222.47"/>
<polygon fill="#63b8ff" stroke="#63b8ff" points="1220.42,-225.92 1229.96,-221.31 1219.63,-218.96 1220.42,-225.92"/>
</a>
</g>
</g>
<!-- Node15 -->
<g id="Node000015" class="node">
<title>Node15</title>
<g id="a_Node000015"><a xlink:title=" ">
<polygon fill="#e0e0e0" stroke="#999999" points="1597.5,-90.5 1482.5,-90.5 1482.5,-71.5 1597.5,-71.5 1597.5,-90.5"/>
<text text-anchor="middle" x="1540" y="-78.5" font-family="Helvetica,sans-Serif" font-size="10.00">deal.II/base/tensor.h</text>
</a>
</g>
</g>
<!-- Node6&#45;&gt;Node15 -->
<g id="edge40_Node000006_Node000015" class="edge">
<title>Node6&#45;&gt;Node15</title>
<g id="a_edge40_Node000006_Node000015"><a xlink:title=" ">
<path fill="none" stroke="#63b8ff" d="M766.3,-263.97C837.64,-234.53 1011.1,-166.2 1163,-132 1298.32,-101.53 1336.09,-118.21 1473,-96 1479.24,-94.99 1485.77,-93.79 1492.21,-92.53"/>
<polygon fill="#63b8ff" stroke="#63b8ff" points="1493.09,-95.93 1502.2,-90.52 1491.7,-89.07 1493.09,-95.93"/>
</a>
</g>
</g>
<!-- Node16 -->
<g id="Node000016" class="node">
<title>Node16</title>
<g id="a_Node000016"><a xlink:title=" ">
<polygon fill="#e0e0e0" stroke="#999999" points="307,-90.5 167,-90.5 167,-71.5 307,-71.5 307,-90.5"/>
<text text-anchor="middle" x="237" y="-78.5" font-family="Helvetica,sans-Serif" font-size="10.00">deal.II/dofs/dof_handler.h</text>
</a>
</g>
</g>
<!-- Node6&#45;&gt;Node16 -->
<g id="edge41_Node000006_Node000016" class="edge">
<title>Node6&#45;&gt;Node16</title>
<g id="a_edge41_Node000006_Node000016"><a xlink:title=" ">
<path fill="none" stroke="#63b8ff" d="M759.45,-263.86C772.43,-255.36 786.79,-243.22 794,-228 812.25,-189.44 823.01,-163.28 794,-132 757.86,-93.03 369.74,-102.59 317,-96 308.65,-94.96 299.85,-93.64 291.26,-92.23"/>
<polygon fill="#63b8ff" stroke="#63b8ff" points="291.76,-88.77 281.31,-90.55 290.59,-95.67 291.76,-88.77"/>
</a>
</g>
</g>
<!-- Node29 -->
<g id="Node000029" class="node">
<title>Node29</title>
<g id="a_Node000029"><a xlink:href="dem__action__manager_8h.html" target="_top" xlink:title=" ">
<polygon fill="white" stroke="#666666" points="216.5,-222.5 61.5,-222.5 61.5,-203.5 216.5,-203.5 216.5,-222.5"/>
<text text-anchor="middle" x="139" y="-210.5" font-family="Helvetica,sans-Serif" font-size="10.00">dem/dem_action_manager.h</text>
</a>
</g>
</g>
<!-- Node6&#45;&gt;Node29 -->
<g id="edge39_Node000006_Node000029" class="edge">
<title>Node6&#45;&gt;Node29</title>
<g id="a_edge39_Node000006_Node000029"><a xlink:title=" ">
<path fill="none" stroke="#63b8ff" d="M671.99,-273.2C576.62,-265.42 386.52,-248.81 226,-228 217.18,-226.86 207.88,-225.51 198.78,-224.11"/>
<polygon fill="#63b8ff" stroke="#63b8ff" points="199.03,-220.61 188.61,-222.52 197.95,-227.53 199.03,-220.61"/>
</a>
</g>
</g>
<!-- Node30 -->
<g id="Node000030" class="node">
<title>Node30</title>
<g id="a_Node000030"><a xlink:title=" ">
<polygon fill="#e0e0e0" stroke="#999999" points="329.5,-228 234.5,-228 234.5,-198 329.5,-198 329.5,-228"/>
<text text-anchor="start" x="242.5" y="-216" font-family="Helvetica,sans-Serif" font-size="10.00">deal.II/lac/affine</text>
<text text-anchor="middle" x="282" y="-205" font-family="Helvetica,sans-Serif" font-size="10.00">_constraints.h</text>
</a>
</g>
</g>
<!-- Node6&#45;&gt;Node30 -->
<g id="edge42_Node000006_Node000030" class="edge">
<title>Node6&#45;&gt;Node30</title>
<g id="a_edge42_Node000006_Node000030"><a xlink:title=" ">
<path fill="none" stroke="#63b8ff" d="M671.92,-272.44C596.23,-265.06 463.19,-250.5 339.81,-228.01"/>
<polygon fill="#63b8ff" stroke="#63b8ff" points="340.28,-224.54 329.81,-226.16 339.01,-231.42 340.28,-224.54"/>
</a>
</g>
</g>
<!-- Node31 -->
<g id="Node000031" class="node">
<title>Node31</title>
<g id="a_Node000031"><a xlink:title=" ">
<polygon fill="#e0e0e0" stroke="#999999" points="466,-228 348,-228 348,-198 466,-198 466,-228"/>
<text text-anchor="start" x="356" y="-216" font-family="Helvetica,sans-Serif" font-size="10.00">deal.II/lac/la_parallel</text>
<text text-anchor="middle" x="407" y="-205" font-family="Helvetica,sans-Serif" font-size="10.00">_vector.h</text>
</a>
</g>
</g>
<!-- Node6&#45;&gt;Node31 -->
<g id="edge43_Node000006_Node000031" class="edge">
<title>Node6&#45;&gt;Node31</title>
<g id="a_edge43_Node000006_Node000031"><a xlink:title=" ">
<path fill="none" stroke="#63b8ff" d="M671.97,-266.38C622.02,-256.82 549.23,-242.79 476.58,-228.3"/>
<polygon fill="#63b8ff" stroke="#63b8ff" points="476.82,-224.78 466.33,-226.26 475.45,-231.65 476.82,-224.78"/>
</a>
</g>
</g>
<!-- Node32 -->
<g id="Node000032" class="node">
<title>Node32</title>
<g id="a_Node000032"><a xlink:title=" ">
<polygon fill="#e0e0e0" stroke="#999999" points="602,-228 484,-228 484,-198 602,-198 602,-228"/>
<text text-anchor="start" x="492" y="-216" font-family="Helvetica,sans-Serif" font-size="10.00">deal.II/lac/la_parallel</text>
<text text-anchor="middle" x="543" y="-205" font-family="Helvetica,sans-Serif" font-size="10.00">_vector.templates.h</text>
</a>
</g>
</g>
<!-- Node6&#45;&gt;Node32 -->
<g id="edge44_Node000006_Node000032" class="edge">
<title>Node6&#45;&gt;Node32</title>
<g id="a_edge44_Node000006_Node000032"><a xlink:title=" ">
<path fill="none" stroke="#63b8ff" d="M691.3,-263.95C662.72,-254.33 624.61,-241.49 594.19,-231.24"/>
<polygon fill="#63b8ff" stroke="#63b8ff" points="595.19,-227.89 584.6,-228.01 592.96,-234.52 595.19,-227.89"/>
</a>
</g>
</g>
<!-- Node33 -->
<g id="Node000033" class="node">
<title>Node33</title>
<g id="a_Node000033"><a xlink:title=" ">
<polygon fill="#e0e0e0" stroke="#999999" points="751.5,-228 620.5,-228 620.5,-198 751.5,-198 751.5,-228"/>
<text text-anchor="start" x="628.5" y="-216" font-family="Helvetica,sans-Serif" font-size="10.00">deal.II/particles/particle</text>
<text text-anchor="middle" x="686" y="-205" font-family="Helvetica,sans-Serif" font-size="10.00">_handler.h</text>
</a>
</g>
</g>
<!-- Node6&#45;&gt;Node33 -->
<g id="edge45_Node000006_Node000033" class="edge">
<title>Node6&#45;&gt;Node33</title>
<g id="a_edge45_Node000006_Node000033"><a xlink:title=" ">
<path fill="none" stroke="#63b8ff" d="M722.57,-263.8C716.67,-255.76 709.15,-245.53 702.47,-236.43"/>
<polygon fill="#63b8ff" stroke="#63b8ff" points="705.14,-234.15 696.4,-228.16 699.5,-238.3 705.14,-234.15"/>
</a>
</g>
</g>
<!-- Node7&#45;&gt;Node4 -->
<g id="edge37_Node000007_Node000004" class="edge">
<title>Node7&#45;&gt;Node4</title>
<g id="a_edge37_Node000007_Node000004"><a xlink:title=" ">
<path fill="none" stroke="#63b8ff" d="M1230,-209.06C1147.09,-204.18 998.56,-191.81 875,-162 837.68,-153 831.6,-139.74 794,-132 489.75,-69.34 398.71,-165.72 96,-96 93.83,-95.5 91.63,-94.87 89.43,-94.15"/>
<polygon fill="#63b8ff" stroke="#63b8ff" points="90.68,-90.88 80.09,-90.59 88.19,-97.42 90.68,-90.88"/>
</a>
</g>
</g>
<!-- Node8 -->
<g id="Node000008" class="node">
<title>Node8</title>
<g id="a_Node000008"><a xlink:href="core_2utilities_8h.html" target="_top" xlink:title=" ">
<polygon fill="white" stroke="#666666" points="970,-156.5 884,-156.5 884,-137.5 970,-137.5 970,-156.5"/>
<text text-anchor="middle" x="927" y="-144.5" font-family="Helvetica,sans-Serif" font-size="10.00">core/utilities.h</text>
</a>
</g>
</g>
<!-- Node7&#45;&gt;Node8 -->
<g id="edge7_Node000007_Node000008" class="edge">
<title>Node7&#45;&gt;Node8</title>
<g id="a_edge7_Node000007_Node000008"><a xlink:title=" ">
<path fill="none" stroke="#63b8ff" d="M1244.89,-203.44C1176,-191.42 1051.2,-169.66 980.19,-157.28"/>
<polygon fill="#63b8ff" stroke="#63b8ff" points="980.57,-153.79 970.12,-155.52 979.37,-160.68 980.57,-153.79"/>
</a>
</g>
</g>
<!-- Node7&#45;&gt;Node15 -->
<g id="edge33_Node000007_Node000015" class="edge">
<title>Node7&#45;&gt;Node15</title>
<g id="a_edge33_Node000007_Node000015"><a xlink:title=" ">
<path fill="none" stroke="#63b8ff" d="M1327.16,-203.45C1356.55,-195.14 1400.09,-180.99 1435,-162 1454.21,-151.55 1456.62,-145.27 1474,-132 1489.41,-120.24 1506.9,-106.99 1520.01,-97.09"/>
<polygon fill="#63b8ff" stroke="#63b8ff" points="1522.43,-99.65 1528.3,-90.83 1518.21,-94.06 1522.43,-99.65"/>
</a>
</g>
</g>
<!-- Node7&#45;&gt;Node18 -->
<g id="edge35_Node000007_Node000018" class="edge">
<title>Node7&#45;&gt;Node18</title>
<g id="a_edge35_Node000007_Node000018"><a xlink:title=" ">
<path fill="none" stroke="#63b8ff" d="M1358.38,-210.12C1464.43,-206.14 1670.53,-194.37 1735,-162 1760.85,-149.02 1782.44,-123.27 1795.71,-104.48"/>
<polygon fill="#63b8ff" stroke="#63b8ff" points="1798.65,-106.39 1801.38,-96.15 1792.86,-102.45 1798.65,-106.39"/>
</a>
</g>
</g>
<!-- Node24 -->
<g id="Node000024" class="node">
<title>Node24</title>
<g id="a_Node000024"><a xlink:href="boundary__cells__info__struct_8h.html" target="_top" xlink:title=" ">
<polygon fill="white" stroke="#666666" points="1597.5,-162 1482.5,-162 1482.5,-132 1597.5,-132 1597.5,-162"/>
<text text-anchor="start" x="1490.5" y="-150" font-family="Helvetica,sans-Serif" font-size="10.00">dem/boundary_cells</text>
<text text-anchor="middle" x="1540" y="-139" font-family="Helvetica,sans-Serif" font-size="10.00">_info_struct.h</text>
</a>
</g>
</g>
<!-- Node7&#45;&gt;Node24 -->
<g id="edge25_Node000007_Node000024" class="edge">
<title>Node7&#45;&gt;Node24</title>
<g id="a_edge25_Node000007_Node000024"><a xlink:title=" ">
<path fill="none" stroke="#63b8ff" d="M1326.92,-203.44C1364.93,-193.55 1428.36,-177.05 1476.15,-164.61"/>
<polygon fill="#63b8ff" stroke="#63b8ff" points="1477.3,-167.93 1486.09,-162.02 1475.53,-161.16 1477.3,-167.93"/>
</a>
</g>
</g>
<!-- Node25 -->
<g id="Node000025" class="node">
<title>Node25</title>
<g id="a_Node000025"><a xlink:title=" ">
<polygon fill="#e0e0e0" stroke="#999999" points="1464,-96 1362,-96 1362,-66 1464,-66 1464,-96"/>
<text text-anchor="start" x="1370" y="-84" font-family="Helvetica,sans-Serif" font-size="10.00">deal.II/distributed</text>
<text text-anchor="middle" x="1413" y="-73" font-family="Helvetica,sans-Serif" font-size="10.00">/tria.h</text>
</a>
</g>
</g>
<!-- Node7&#45;&gt;Node25 -->
<g id="edge34_Node000007_Node000025" class="edge">
<title>Node7&#45;&gt;Node25</title>
<g id="a_edge34_Node000007_Node000025"><a xlink:title=" ">
<path fill="none" stroke="#63b8ff" d="M1252.34,-203.42C1203.76,-191.56 1133.59,-167.5 1163,-132 1188.75,-100.91 1296.7,-104.3 1351.97,-95.85"/>
<polygon fill="#63b8ff" stroke="#63b8ff" points="1352.74,-99.27 1361.97,-94.06 1351.51,-92.38 1352.74,-99.27"/>
</a>
</g>
</g>
<!-- Node7&#45;&gt;Node26 -->
<g id="edge29_Node000007_Node000026" class="edge">
<title>Node7&#45;&gt;Node26</title>
<g id="a_edge29_Node000007_Node000026"><a xlink:title=" ">
<path fill="none" stroke="#63b8ff" d="M1353.89,-203.47C1417.02,-194.23 1519.27,-178.59 1607,-162 1612.45,-160.97 1618.14,-159.82 1623.79,-158.64"/>
<polygon fill="#63b8ff" stroke="#63b8ff" points="1624.8,-162.01 1633.85,-156.5 1623.34,-155.16 1624.8,-162.01"/>
</a>
</g>
</g>
<!-- Node27 -->
<g id="Node000027" class="node">
<title>Node27</title>
<g id="a_Node000027"><a xlink:title=" ">
<polygon fill="#e0e0e0" stroke="#999999" points="1264.5,-156.5 1171.5,-156.5 1171.5,-137.5 1264.5,-137.5 1264.5,-156.5"/>
<text text-anchor="middle" x="1218" y="-144.5" font-family="Helvetica,sans-Serif" font-size="10.00">unordered_map</text>
</a>
</g>
</g>
<!-- Node7&#45;&gt;Node27 -->
<g id="edge36_Node000007_Node000027" class="edge">
<title>Node7&#45;&gt;Node27</title>
<g id="a_edge36_Node000007_Node000027"><a xlink:title=" ">
<path fill="none" stroke="#63b8ff" d="M1283.75,-203.37C1271.69,-193.21 1251.44,-176.16 1236.59,-163.65"/>
<polygon fill="#63b8ff" stroke="#63b8ff" points="1238.48,-160.67 1228.57,-156.91 1233.97,-166.02 1238.48,-160.67"/>
</a>
</g>
</g>
<!-- Node28 -->
<g id="Node000028" class="node">
<title>Node28</title>
<g id="a_Node000028"><a xlink:href="unordered__dense_8h.html" target="_top" xlink:title=" ">
<polygon fill="white" stroke="#666666" points="1425.5,-156.5 1282.5,-156.5 1282.5,-137.5 1425.5,-137.5 1425.5,-156.5"/>
<text text-anchor="middle" x="1354" y="-144.5" font-family="Helvetica,sans-Serif" font-size="10.00">ankerl/unordered_dense.h</text>
</a>
</g>
</g>
<!-- Node7&#45;&gt;Node28 -->
<g id="edge38_Node000007_Node000028" class="edge">
<title>Node7&#45;&gt;Node28</title>
<g id="a_edge38_Node000007_Node000028"><a xlink:title=" ">
<path fill="none" stroke="#63b8ff" d="M1302.09,-203.37C1311.43,-193.4 1327.01,-176.79 1338.66,-164.36"/>
<polygon fill="#63b8ff" stroke="#63b8ff" points="1341.37,-166.59 1345.65,-156.91 1336.26,-161.81 1341.37,-166.59"/>
</a>
</g>
</g>
<!-- Node8&#45;&gt;Node3 -->
<g id="edge22_Node000008_Node000003" class="edge">
<title>Node8&#45;&gt;Node3</title>
<g id="a_edge22_Node000008_Node000003"><a xlink:title=" ">
<path fill="none" stroke="#63b8ff" d="M896.74,-137.43C888.16,-135.32 878.77,-133.29 870,-132 556.51,-86 465.97,-170.5 158,-96 156.26,-95.58 154.5,-95.06 152.75,-94.48"/>
<polygon fill="#63b8ff" stroke="#63b8ff" points="153.59,-91.05 143,-90.6 151,-97.55 153.59,-91.05"/>
</a>
</g>
</g>
<!-- Node8&#45;&gt;Node4 -->
<g id="edge24_Node000008_Node000004" class="edge">
<title>Node8&#45;&gt;Node4</title>
<g id="a_edge24_Node000008_Node000004"><a xlink:title=" ">
<path fill="none" stroke="#63b8ff" d="M897.04,-137.48C888.38,-135.34 878.87,-133.28 870,-132 529.18,-82.7 431.78,-172.45 96,-96 93.83,-95.51 91.62,-94.88 89.43,-94.16"/>
<polygon fill="#63b8ff" stroke="#63b8ff" points="90.67,-90.89 80.08,-90.6 88.19,-97.43 90.67,-90.89"/>
</a>
</g>
</g>
<!-- Node9 -->
<g id="Node000009" class="node">
<title>Node9</title>
<g id="a_Node000009"><a xlink:href="output__struct_8h.html" target="_top" xlink:title=" ">
<polygon fill="#fff0f0" stroke="red" points="667,-90.5 553,-90.5 553,-71.5 667,-71.5 667,-90.5"/>
<text text-anchor="middle" x="610" y="-78.5" font-family="Helvetica,sans-Serif" font-size="10.00">core/output_struct.h</text>
</a>
</g>
</g>
<!-- Node8&#45;&gt;Node9 -->
<g id="edge8_Node000008_Node000009" class="edge">
<title>Node8&#45;&gt;Node9</title>
<g id="a_edge8_Node000008_Node000009"><a xlink:title=" ">
<path fill="none" stroke="#63b8ff" d="M893.62,-137.46C885.88,-135.58 877.67,-133.65 870,-132 784.27,-113.53 762.01,-113.1 676,-96 670.61,-94.93 664.99,-93.78 659.39,-92.62"/>
<polygon fill="#63b8ff" stroke="#63b8ff" points="659.91,-89.15 649.4,-90.53 658.47,-96 659.91,-89.15"/>
</a>
</g>
</g>
<!-- Node10 -->
<g id="Node000010" class="node">
<title>Node10</title>
<g id="a_Node000010"><a xlink:title=" ">
<polygon fill="#e0e0e0" stroke="#999999" points="617.5,-30 516.5,-30 516.5,0 617.5,0 617.5,-30"/>
<text text-anchor="start" x="524.5" y="-18" font-family="Helvetica,sans-Serif" font-size="10.00">deal.II/base/table</text>
<text text-anchor="middle" x="567" y="-7" font-family="Helvetica,sans-Serif" font-size="10.00">_handler.h</text>
</a>
</g>
</g>
<!-- Node8&#45;&gt;Node10 -->
<g id="edge13_Node000008_Node000010" class="edge">
<title>Node8&#45;&gt;Node10</title>
<g id="a_edge13_Node000008_Node000010"><a xlink:title=" ">
<path fill="none" stroke="#63b8ff" d="M895.5,-137.48C887.25,-135.47 878.33,-133.48 870,-132 798.23,-119.28 592.63,-150.29 544,-96 529.88,-80.23 539.44,-56.32 550.22,-38.74"/>
<polygon fill="#63b8ff" stroke="#63b8ff" points="553.26,-40.48 555.84,-30.21 547.42,-36.63 553.26,-40.48"/>
</a>
</g>
</g>
<!-- Node12 -->
<g id="Node000012" class="node">
<title>Node12</title>
<g id="a_Node000012"><a xlink:title=" ">
<polygon fill="#e0e0e0" stroke="#999999" points="815,-96 685,-96 685,-66 815,-66 815,-96"/>
<text text-anchor="start" x="693" y="-84" font-family="Helvetica,sans-Serif" font-size="10.00">deal.II/base/conditional</text>
<text text-anchor="middle" x="750" y="-73" font-family="Helvetica,sans-Serif" font-size="10.00">_ostream.h</text>
</a>
</g>
</g>
<!-- Node8&#45;&gt;Node12 -->
<g id="edge10_Node000008_Node000012" class="edge">
<title>Node8&#45;&gt;Node12</title>
<g id="a_edge10_Node000008_Node000012"><a xlink:title=" ">
<path fill="none" stroke="#63b8ff" d="M903.13,-137.37C876.5,-127.74 832.72,-111.91 798.78,-99.64"/>
<polygon fill="#63b8ff" stroke="#63b8ff" points="799.63,-96.22 789.04,-96.12 797.25,-102.81 799.63,-96.22"/>
</a>
</g>
</g>
<!-- Node13 -->
<g id="Node000013" class="node">
<title>Node13</title>
<g id="a_Node000013"><a xlink:title=" ">
<polygon fill="#e0e0e0" stroke="#999999" points="960.5,-96 833.5,-96 833.5,-66 960.5,-66 960.5,-96"/>
<text text-anchor="start" x="841.5" y="-84" font-family="Helvetica,sans-Serif" font-size="10.00">deal.II/base/parameter</text>
<text text-anchor="middle" x="897" y="-73" font-family="Helvetica,sans-Serif" font-size="10.00">_handler.h</text>
</a>
</g>
</g>
<!-- Node8&#45;&gt;Node13 -->
<g id="edge11_Node000008_Node000013" class="edge">
<title>Node8&#45;&gt;Node13</title>
<g id="a_edge11_Node000008_Node000013"><a xlink:title=" ">
<path fill="none" stroke="#63b8ff" d="M922.95,-137.37C919.14,-129.24 913.26,-116.69 908.06,-105.59"/>
<polygon fill="#63b8ff" stroke="#63b8ff" points="911.14,-103.93 903.73,-96.36 904.81,-106.9 911.14,-103.93"/>
</a>
</g>
</g>
<!-- Node14 -->
<g id="Node000014" class="node">
<title>Node14</title>
<g id="a_Node000014"><a xlink:title=" ">
<polygon fill="#e0e0e0" stroke="#999999" points="1726,-90.5 1616,-90.5 1616,-71.5 1726,-71.5 1726,-90.5"/>
<text text-anchor="middle" x="1671" y="-78.5" font-family="Helvetica,sans-Serif" font-size="10.00">deal.II/base/point.h</text>
</a>
</g>
</g>
<!-- Node8&#45;&gt;Node14 -->
<g id="edge12_Node000008_Node000014" class="edge">
<title>Node8&#45;&gt;Node14</title>
<g id="a_edge12_Node000008_Node000014"><a xlink:title=" ">
<path fill="none" stroke="#63b8ff" d="M970.35,-143.17C1110.25,-134 1544.26,-105.12 1607,-96 1613.28,-95.09 1619.86,-93.91 1626.31,-92.62"/>
<polygon fill="#63b8ff" stroke="#63b8ff" points="1627.22,-96.01 1636.29,-90.53 1625.78,-89.16 1627.22,-96.01"/>
</a>
</g>
</g>
<!-- Node8&#45;&gt;Node15 -->
<g id="edge14_Node000008_Node000015" class="edge">
<title>Node8&#45;&gt;Node15</title>
<g id="a_edge14_Node000008_Node000015"><a xlink:title=" ">
<path fill="none" stroke="#63b8ff" d="M970.25,-142.68C1081.58,-134.05 1376.04,-110.52 1473,-96 1479.4,-95.04 1486.11,-93.86 1492.71,-92.59"/>
<polygon fill="#63b8ff" stroke="#63b8ff" points="1493.81,-95.94 1502.93,-90.54 1492.43,-89.07 1493.81,-95.94"/>
</a>
</g>
</g>
<!-- Node8&#45;&gt;Node16 -->
<g id="edge15_Node000008_Node000016" class="edge">
<title>Node8&#45;&gt;Node16</title>
<g id="a_edge15_Node000008_Node000016"><a xlink:title=" ">
<path fill="none" stroke="#63b8ff" d="M896.43,-137.44C887.94,-135.35 878.66,-133.33 870,-132 626.58,-94.48 561.55,-125.27 317,-96 308.55,-94.99 299.63,-93.68 290.94,-92.26"/>
<polygon fill="#63b8ff" stroke="#63b8ff" points="291.33,-88.77 280.89,-90.56 290.16,-95.68 291.33,-88.77"/>
</a>
</g>
</g>
<!-- Node17 -->
<g id="Node000017" class="node">
<title>Node17</title>
<g id="a_Node000017"><a xlink:title=" ">
<polygon fill="#e0e0e0" stroke="#999999" points="1097.5,-90.5 978.5,-90.5 978.5,-71.5 1097.5,-71.5 1097.5,-90.5"/>
<text text-anchor="middle" x="1038" y="-78.5" font-family="Helvetica,sans-Serif" font-size="10.00">deal.II/fe/fe_values.h</text>
</a>
</g>
</g>
<!-- Node8&#45;&gt;Node17 -->
<g id="edge16_Node000008_Node000017" class="edge">
<title>Node8&#45;&gt;Node17</title>
<g id="a_edge16_Node000008_Node000017"><a xlink:title=" ">
<path fill="none" stroke="#63b8ff" d="M941.97,-137.37C960.51,-126.68 992.31,-108.35 1014.2,-95.72"/>
<polygon fill="#63b8ff" stroke="#63b8ff" points="1016,-98.73 1022.91,-90.7 1012.5,-92.66 1016,-98.73"/>
</a>
</g>
</g>
<!-- Node8&#45;&gt;Node18 -->
<g id="edge17_Node000008_Node000018" class="edge">
<title>Node8&#45;&gt;Node18</title>
<g id="a_edge17_Node000008_Node000018"><a xlink:title=" ">
<path fill="none" stroke="#63b8ff" d="M970.14,-143.4C1125.53,-134.04 1651.37,-102.27 1734.26,-95.66"/>
<polygon fill="#63b8ff" stroke="#63b8ff" points="1734.58,-99.14 1744.22,-94.75 1733.94,-92.17 1734.58,-99.14"/>
</a>
</g>
</g>
<!-- Node19 -->
<g id="Node000019" class="node">
<title>Node19</title>
<g id="a_Node000019"><a xlink:title=" ">
<polygon fill="#e0e0e0" stroke="#999999" points="1220.5,-96 1115.5,-96 1115.5,-66 1220.5,-66 1220.5,-96"/>
<text text-anchor="start" x="1123.5" y="-84" font-family="Helvetica,sans-Serif" font-size="10.00">boost/archive/text</text>
<text text-anchor="middle" x="1168" y="-73" font-family="Helvetica,sans-Serif" font-size="10.00">_iarchive.hpp</text>
</a>
</g>
</g>
<!-- Node8&#45;&gt;Node19 -->
<g id="edge18_Node000008_Node000019" class="edge">
<title>Node8&#45;&gt;Node19</title>
<g id="a_edge18_Node000008_Node000019"><a xlink:title=" ">
<path fill="none" stroke="#63b8ff" d="M959.5,-137.37C996.81,-127.46 1058.85,-110.99 1105.58,-98.58"/>
<polygon fill="#63b8ff" stroke="#63b8ff" points="1106.54,-101.94 1115.3,-95.99 1104.74,-95.18 1106.54,-101.94"/>
</a>
</g>
</g>
<!-- Node20 -->
<g id="Node000020" class="node">
<title>Node20</title>
<g id="a_Node000020"><a xlink:title=" ">
<polygon fill="#e0e0e0" stroke="#999999" points="1343.5,-96 1238.5,-96 1238.5,-66 1343.5,-66 1343.5,-96"/>
<text text-anchor="start" x="1246.5" y="-84" font-family="Helvetica,sans-Serif" font-size="10.00">boost/archive/text</text>
<text text-anchor="middle" x="1291" y="-73" font-family="Helvetica,sans-Serif" font-size="10.00">_oarchive.hpp</text>
</a>
</g>
</g>
<!-- Node8&#45;&gt;Node20 -->
<g id="edge19_Node000008_Node000020" class="edge">
<title>Node8&#45;&gt;Node20</title>
<g id="a_edge19_Node000008_Node000020"><a xlink:title=" ">
<path fill="none" stroke="#63b8ff" d="M970.3,-139.72C1027.29,-131.26 1130.77,-115.25 1228.43,-96.24"/>
<polygon fill="#63b8ff" stroke="#63b8ff" points="1229.33,-99.63 1238.47,-94.27 1227.99,-92.76 1229.33,-99.63"/>
</a>
</g>
</g>
<!-- Node21 -->
<g id="Node000021" class="node">
<title>Node21</title>
<g id="a_Node000021"><a xlink:title=" ">
<polygon fill="#e0e0e0" stroke="#999999" points="380.5,-90.5 325.5,-90.5 325.5,-71.5 380.5,-71.5 380.5,-90.5"/>
<text text-anchor="middle" x="353" y="-78.5" font-family="Helvetica,sans-Serif" font-size="10.00">fstream</text>
</a>
</g>
</g>
<!-- Node8&#45;&gt;Node21 -->
<g id="edge20_Node000008_Node000021" class="edge">
<title>Node8&#45;&gt;Node21</title>
<g id="a_edge20_Node000008_Node000021"><a xlink:title=" ">
<path fill="none" stroke="#63b8ff" d="M896.13,-137.43C887.71,-135.36 878.55,-133.36 870,-132 658.73,-98.37 598.86,-142.33 390,-96 387.48,-95.44 384.9,-94.74 382.33,-93.96"/>
<polygon fill="#63b8ff" stroke="#63b8ff" points="383.24,-90.57 372.65,-90.63 380.97,-97.19 383.24,-90.57"/>
</a>
</g>
</g>
<!-- Node22 -->
<g id="Node000022" class="node">
<title>Node22</title>
<g id="a_Node000022"><a xlink:title=" ">
<polygon fill="#e0e0e0" stroke="#999999" points="437,-90.5 399,-90.5 399,-71.5 437,-71.5 437,-90.5"/>
<text text-anchor="middle" x="418" y="-78.5" font-family="Helvetica,sans-Serif" font-size="10.00">map</text>
</a>
</g>
</g>
<!-- Node8&#45;&gt;Node22 -->
<g id="edge21_Node000008_Node000022" class="edge">
<title>Node8&#45;&gt;Node22</title>
<g id="a_edge21_Node000008_Node000022"><a xlink:title=" ">
<path fill="none" stroke="#63b8ff" d="M896.12,-137.49C887.7,-135.42 878.55,-133.4 870,-132 683.82,-101.4 628.98,-145.84 447,-96 445.55,-95.6 444.09,-95.14 442.63,-94.62"/>
<polygon fill="#63b8ff" stroke="#63b8ff" points="443.82,-91.32 433.25,-90.64 441.09,-97.77 443.82,-91.32"/>
</a>
</g>
</g>
<!-- Node23 -->
<g id="Node000023" class="node">
<title>Node23</title>
<g id="a_Node000023"><a xlink:title=" ">
<polygon fill="#e0e0e0" stroke="#999999" points="496.5,-90.5 455.5,-90.5 455.5,-71.5 496.5,-71.5 496.5,-90.5"/>
<text text-anchor="middle" x="476" y="-78.5" font-family="Helvetica,sans-Serif" font-size="10.00">tuple</text>
</a>
</g>
</g>
<!-- Node8&#45;&gt;Node23 -->
<g id="edge23_Node000008_Node000023" class="edge">
<title>Node8&#45;&gt;Node23</title>
<g id="a_edge23_Node000008_Node000023"><a xlink:title=" ">
<path fill="none" stroke="#63b8ff" d="M895.81,-137.5C887.47,-135.46 878.44,-133.45 870,-132 711.97,-104.81 666.75,-134.15 511,-96 508.69,-95.44 506.34,-94.75 503.99,-93.99"/>
<polygon fill="#63b8ff" stroke="#63b8ff" points="505.17,-90.69 494.57,-90.55 502.77,-97.27 505.17,-90.69"/>
</a>
</g>
</g>
<!-- Node9&#45;&gt;Node10 -->
<g id="edge9_Node000009_Node000010" class="edge">
<title>Node9&#45;&gt;Node10</title>
<g id="a_edge9_Node000009_Node000010"><a xlink:title=" ">
<path fill="none" stroke="#63b8ff" d="M604.2,-71.37C598.63,-63.08 589.97,-50.18 582.4,-38.92"/>
<polygon fill="#63b8ff" stroke="#63b8ff" points="585.13,-36.71 576.65,-30.36 579.32,-40.61 585.13,-36.71"/>
</a>
</g>
</g>
<!-- Node24&#45;&gt;Node14 -->
<g id="edge26_Node000024_Node000014" class="edge">
<title>Node24&#45;&gt;Node14</title>
<g id="a_edge26_Node000024_Node000014"><a xlink:title=" ">
<path fill="none" stroke="#63b8ff" d="M1568.75,-131.95C1591.32,-120.93 1622.49,-105.7 1644.47,-94.96"/>
<polygon fill="#63b8ff" stroke="#63b8ff" points="1646.12,-98.05 1653.57,-90.52 1643.04,-91.76 1646.12,-98.05"/>
</a>
</g>
</g>
<!-- Node24&#45;&gt;Node15 -->
<g id="edge27_Node000024_Node000015" class="edge">
<title>Node24&#45;&gt;Node15</title>
<g id="a_edge27_Node000024_Node000015"><a xlink:title=" ">
<path fill="none" stroke="#63b8ff" d="M1540,-131.8C1540,-122.7 1540,-110.79 1540,-100.9"/>
<polygon fill="#63b8ff" stroke="#63b8ff" points="1543.5,-100.84 1540,-90.84 1536.5,-100.84 1543.5,-100.84"/>
</a>
</g>
</g>
<!-- Node24&#45;&gt;Node25 -->
<g id="edge28_Node000024_Node000025" class="edge">
<title>Node24&#45;&gt;Node25</title>
<g id="a_edge28_Node000024_Node000025"><a xlink:title=" ">
<path fill="none" stroke="#63b8ff" d="M1512.13,-131.95C1493.85,-122.74 1469.75,-110.6 1449.88,-100.59"/>
<polygon fill="#63b8ff" stroke="#63b8ff" points="1451.31,-97.39 1440.81,-96.01 1448.16,-103.64 1451.31,-97.39"/>
</a>
</g>
</g>
<!-- Node26&#45;&gt;Node14 -->
<g id="edge30_Node000026_Node000014" class="edge">
<title>Node26&#45;&gt;Node14</title>
<g id="a_edge30_Node000026_Node000014"><a xlink:title=" ">
<path fill="none" stroke="#63b8ff" d="M1671,-137.37C1671,-128.16 1671,-113.29 1671,-101.27"/>
<polygon fill="#63b8ff" stroke="#63b8ff" points="1674.5,-100.91 1671,-90.91 1667.5,-100.91 1674.5,-100.91"/>
</a>
</g>
</g>
<!-- Node26&#45;&gt;Node15 -->
<g id="edge31_Node000026_Node000015" class="edge">
<title>Node26&#45;&gt;Node15</title>
<g id="a_edge31_Node000026_Node000015"><a xlink:title=" ">
<path fill="none" stroke="#63b8ff" d="M1653.33,-137.37C1631.16,-126.54 1592.92,-107.85 1567.05,-95.22"/>
<polygon fill="#63b8ff" stroke="#63b8ff" points="1568.33,-91.94 1557.81,-90.7 1565.25,-98.23 1568.33,-91.94"/>
</a>
</g>
</g>
<!-- Node26&#45;&gt;Node18 -->
<g id="edge32_Node000026_Node000018" class="edge">
<title>Node26&#45;&gt;Node18</title>
<g id="a_edge32_Node000026_Node000018"><a xlink:title=" ">
<path fill="none" stroke="#63b8ff" d="M1689.75,-137.37C1710.21,-127.95 1743.57,-112.59 1769.97,-100.43"/>
<polygon fill="#63b8ff" stroke="#63b8ff" points="1771.72,-103.48 1779.34,-96.12 1768.8,-97.12 1771.72,-103.48"/>
</a>
</g>
</g>
</g>
</svg>
