<?xml version="1.0" encoding="UTF-8" standalone="no"?>
<!DOCTYPE svg PUBLIC "-//W3C//DTD SVG 1.1//EN"
 "http://www.w3.org/Graphics/SVG/1.1/DTD/svg11.dtd">
<!-- Generated by graphviz version 2.43.0 (0)
 -->
<!-- Title: /home/runner/work/lethe/lethe/include/dem/particle_particle_fine_search.h Pages: 1 -->
<svg width="2035pt" height="302pt"
 viewBox="0.00 0.00 2034.50 302.00" xmlns="http://www.w3.org/2000/svg" xmlns:xlink="http://www.w3.org/1999/xlink">
<g id="graph0" class="graph" transform="scale(1 1) rotate(0) translate(4 298)">
<title>/home/runner/work/lethe/lethe/include/dem/particle_particle_fine_search.h</title>
<!-- Node1 -->
<g id="Node000001" class="node">
<title>Node1</title>
<g id="a_Node000001"><a xlink:title=" ">
<polygon fill="#999999" stroke="#666666" points="315.5,-294 168.5,-294 168.5,-253 315.5,-253 315.5,-294"/>
<text text-anchor="start" x="176.5" y="-282" font-family="Helvetica,sans-Serif" font-size="10.00">/home/runner/work/lethe</text>
<text text-anchor="start" x="176.5" y="-271" font-family="Helvetica,sans-Serif" font-size="10.00">/lethe/include/dem/particle</text>
<text text-anchor="middle" x="242" y="-260" font-family="Helvetica,sans-Serif" font-size="10.00">_particle_fine_search.h</text>
</a>
</g>
</g>
<!-- Node2 -->
<g id="Node000002" class="node">
<title>Node2</title>
<g id="a_Node000002"><a xlink:href="data__containers_8h.html" target="_top" xlink:title=" ">
<polygon fill="white" stroke="#666666" points="494,-217 366,-217 366,-198 494,-198 494,-217"/>
<text text-anchor="middle" x="430" y="-205" font-family="Helvetica,sans-Serif" font-size="10.00">dem/data_containers.h</text>
</a>
</g>
</g>
<!-- Node1&#45;&gt;Node2 -->
<g id="edge1_Node000001_Node000002" class="edge">
<title>Node1&#45;&gt;Node2</title>
<g id="a_edge1_Node000001_Node000002"><a xlink:title=" ">
<path fill="none" stroke="#63b8ff" d="M299.43,-252.95C330.64,-242.32 368.23,-229.53 395.05,-220.4"/>
<polygon fill="#63b8ff" stroke="#63b8ff" points="396.42,-223.63 404.76,-217.09 394.17,-217 396.42,-223.63"/>
</a>
</g>
</g>
<!-- Node10 -->
<g id="Node000010" class="node">
<title>Node10</title>
<g id="a_Node000010"><a xlink:title=" ">
<polygon fill="#e0e0e0" stroke="#999999" points="235.5,-90.5 120.5,-90.5 120.5,-71.5 235.5,-71.5 235.5,-90.5"/>
<text text-anchor="middle" x="178" y="-78.5" font-family="Helvetica,sans-Serif" font-size="10.00">deal.II/base/tensor.h</text>
</a>
</g>
</g>
<!-- Node1&#45;&gt;Node10 -->
<g id="edge37_Node000001_Node000010" class="edge">
<title>Node1&#45;&gt;Node10</title>
<g id="a_edge37_Node000001_Node000010"><a xlink:title=" ">
<path fill="none" stroke="#63b8ff" d="M221.11,-252.85C201.03,-232.38 171.99,-198.29 160,-162 153.04,-140.96 161.21,-115.92 168.67,-99.53"/>
<polygon fill="#63b8ff" stroke="#63b8ff" points="171.81,-101.07 173.09,-90.56 165.53,-97.98 171.81,-101.07"/>
</a>
</g>
</g>
<!-- Node3 -->
<g id="Node000003" class="node">
<title>Node3</title>
<g id="a_Node000003"><a xlink:href="utilities_8h.html" target="_top" xlink:title=" ">
<polygon fill="white" stroke="#666666" points="1168,-156.5 1082,-156.5 1082,-137.5 1168,-137.5 1168,-156.5"/>
<text text-anchor="middle" x="1125" y="-144.5" font-family="Helvetica,sans-Serif" font-size="10.00">core/utilities.h</text>
</a>
</g>
</g>
<!-- Node2&#45;&gt;Node3 -->
<g id="edge2_Node000002_Node000003" class="edge">
<title>Node2&#45;&gt;Node3</title>
<g id="a_edge2_Node000002_Node000003"><a xlink:title=" ">
<path fill="none" stroke="#63b8ff" d="M494.14,-201.1C630.27,-189.64 945.93,-163.07 1071.79,-152.48"/>
<polygon fill="#63b8ff" stroke="#63b8ff" points="1072.28,-155.95 1081.95,-151.62 1071.69,-148.97 1072.28,-155.95"/>
</a>
</g>
</g>
<!-- Node2&#45;&gt;Node10 -->
<g id="edge31_Node000002_Node000010" class="edge">
<title>Node2&#45;&gt;Node10</title>
<g id="a_edge31_Node000002_Node000010"><a xlink:title=" ">
<path fill="none" stroke="#63b8ff" d="M365.77,-204.57C297.57,-201 196.3,-190.85 172,-162 157.6,-144.9 163.61,-117.8 170.11,-99.95"/>
<polygon fill="#63b8ff" stroke="#63b8ff" points="173.36,-101.25 173.83,-90.67 166.86,-98.64 173.36,-101.25"/>
</a>
</g>
</g>
<!-- Node13 -->
<g id="Node000013" class="node">
<title>Node13</title>
<g id="a_Node000013"><a xlink:title=" ">
<polygon fill="#e0e0e0" stroke="#999999" points="513.5,-96 382.5,-96 382.5,-66 513.5,-66 513.5,-96"/>
<text text-anchor="start" x="390.5" y="-84" font-family="Helvetica,sans-Serif" font-size="10.00">deal.II/particles/particle</text>
<text text-anchor="middle" x="448" y="-73" font-family="Helvetica,sans-Serif" font-size="10.00">_iterator.h</text>
</a>
</g>
</g>
<!-- Node2&#45;&gt;Node13 -->
<g id="edge33_Node000002_Node000013" class="edge">
<title>Node2&#45;&gt;Node13</title>
<g id="a_edge33_Node000002_Node000013"><a xlink:title=" ">
<path fill="none" stroke="#63b8ff" d="M494.1,-205.42C566.98,-202.67 679.33,-193.32 706,-162 714.65,-151.85 714.48,-142.29 706,-132 705.26,-131.1 599.41,-110.8 523.54,-96.35"/>
<polygon fill="#63b8ff" stroke="#63b8ff" points="524,-92.87 513.52,-94.44 522.69,-99.75 524,-92.87"/>
</a>
</g>
</g>
<!-- Node22 -->
<g id="Node000022" class="node">
<title>Node22</title>
<g id="a_Node000022"><a xlink:title=" ">
<polygon fill="#e0e0e0" stroke="#999999" points="2026.5,-90.5 1979.5,-90.5 1979.5,-71.5 2026.5,-71.5 2026.5,-90.5"/>
<text text-anchor="middle" x="2003" y="-78.5" font-family="Helvetica,sans-Serif" font-size="10.00">vector</text>
</a>
</g>
</g>
<!-- Node2&#45;&gt;Node22 -->
<g id="edge35_Node000002_Node000022" class="edge">
<title>Node2&#45;&gt;Node22</title>
<g id="a_edge35_Node000002_Node000022"><a xlink:title=" ">
<path fill="none" stroke="#63b8ff" d="M494.08,-204.8C747.92,-197.63 1683.1,-166.86 1970,-96 1971.95,-95.52 1973.93,-94.94 1975.9,-94.29"/>
<polygon fill="#63b8ff" stroke="#63b8ff" points="1977.44,-97.45 1985.54,-90.62 1974.95,-90.9 1977.44,-97.45"/>
</a>
</g>
</g>
<!-- Node23 -->
<g id="Node000023" class="node">
<title>Node23</title>
<g id="a_Node000023"><a xlink:href="boundary__cells__info__struct_8h.html" target="_top" xlink:title=" ">
<polygon fill="white" stroke="#666666" points="296.5,-162 181.5,-162 181.5,-132 296.5,-132 296.5,-162"/>
<text text-anchor="start" x="189.5" y="-150" font-family="Helvetica,sans-Serif" font-size="10.00">dem/boundary_cells</text>
<text text-anchor="middle" x="239" y="-139" font-family="Helvetica,sans-Serif" font-size="10.00">_info_struct.h</text>
</a>
</g>
</g>
<!-- Node2&#45;&gt;Node23 -->
<g id="edge23_Node000002_Node000023" class="edge">
<title>Node2&#45;&gt;Node23</title>
<g id="a_edge23_Node000002_Node000023"><a xlink:title=" ">
<path fill="none" stroke="#63b8ff" d="M402.23,-197.99C374.14,-189.39 329.95,-175.86 294.63,-165.04"/>
<polygon fill="#63b8ff" stroke="#63b8ff" points="295.51,-161.65 284.92,-162.06 293.46,-168.34 295.51,-161.65"/>
</a>
</g>
</g>
<!-- Node24 -->
<g id="Node000024" class="node">
<title>Node24</title>
<g id="a_Node000024"><a xlink:title=" ">
<polygon fill="#e0e0e0" stroke="#999999" points="102,-96 0,-96 0,-66 102,-66 102,-96"/>
<text text-anchor="start" x="8" y="-84" font-family="Helvetica,sans-Serif" font-size="10.00">deal.II/distributed</text>
<text text-anchor="middle" x="51" y="-73" font-family="Helvetica,sans-Serif" font-size="10.00">/tria.h</text>
</a>
</g>
</g>
<!-- Node2&#45;&gt;Node24 -->
<g id="edge32_Node000002_Node000024" class="edge">
<title>Node2&#45;&gt;Node24</title>
<g id="a_edge32_Node000002_Node000024"><a xlink:title=" ">
<path fill="none" stroke="#63b8ff" d="M365.76,-204.32C309.54,-200.48 226.67,-190.05 160,-162 126.57,-147.94 93.79,-121.71 73.06,-103.13"/>
<polygon fill="#63b8ff" stroke="#63b8ff" points="75.2,-100.34 65.46,-96.17 70.47,-105.51 75.2,-100.34"/>
</a>
</g>
</g>
<!-- Node25 -->
<g id="Node000025" class="node">
<title>Node25</title>
<g id="a_Node000025"><a xlink:href="contact__info_8h.html" target="_top" xlink:title=" ">
<polygon fill="white" stroke="#666666" points="425,-156.5 315,-156.5 315,-137.5 425,-137.5 425,-156.5"/>
<text text-anchor="middle" x="370" y="-144.5" font-family="Helvetica,sans-Serif" font-size="10.00">dem/contact_info.h</text>
</a>
</g>
</g>
<!-- Node2&#45;&gt;Node25 -->
<g id="edge27_Node000002_Node000025" class="edge">
<title>Node2&#45;&gt;Node25</title>
<g id="a_edge27_Node000002_Node000025"><a xlink:title=" ">
<path fill="none" stroke="#63b8ff" d="M421.15,-197.87C412.02,-188.97 397.58,-174.89 386.36,-163.95"/>
<polygon fill="#63b8ff" stroke="#63b8ff" points="388.49,-161.14 378.89,-156.67 383.61,-166.15 388.49,-161.14"/>
</a>
</g>
</g>
<!-- Node26 -->
<g id="Node000026" class="node">
<title>Node26</title>
<g id="a_Node000026"><a xlink:title=" ">
<polygon fill="#e0e0e0" stroke="#999999" points="536.5,-156.5 443.5,-156.5 443.5,-137.5 536.5,-137.5 536.5,-156.5"/>
<text text-anchor="middle" x="490" y="-144.5" font-family="Helvetica,sans-Serif" font-size="10.00">unordered_map</text>
</a>
</g>
</g>
<!-- Node2&#45;&gt;Node26 -->
<g id="edge34_Node000002_Node000026" class="edge">
<title>Node2&#45;&gt;Node26</title>
<g id="a_edge34_Node000002_Node000026"><a xlink:title=" ">
<path fill="none" stroke="#63b8ff" d="M438.85,-197.87C447.98,-188.97 462.42,-174.89 473.64,-163.95"/>
<polygon fill="#63b8ff" stroke="#63b8ff" points="476.39,-166.15 481.11,-156.67 471.51,-161.14 476.39,-166.15"/>
</a>
</g>
</g>
<!-- Node27 -->
<g id="Node000027" class="node">
<title>Node27</title>
<g id="a_Node000027"><a xlink:href="unordered__dense_8h.html" target="_top" xlink:title=" ">
<polygon fill="white" stroke="#666666" points="697.5,-156.5 554.5,-156.5 554.5,-137.5 697.5,-137.5 697.5,-156.5"/>
<text text-anchor="middle" x="626" y="-144.5" font-family="Helvetica,sans-Serif" font-size="10.00">ankerl/unordered_dense.h</text>
</a>
</g>
</g>
<!-- Node2&#45;&gt;Node27 -->
<g id="edge36_Node000002_Node000027" class="edge">
<title>Node2&#45;&gt;Node27</title>
<g id="a_edge36_Node000002_Node000027"><a xlink:title=" ">
<path fill="none" stroke="#63b8ff" d="M458.5,-197.99C492.61,-187.81 549.87,-170.72 587.79,-159.4"/>
<polygon fill="#63b8ff" stroke="#63b8ff" points="588.88,-162.73 597.47,-156.52 586.88,-156.02 588.88,-162.73"/>
</a>
</g>
</g>
<!-- Node4 -->
<g id="Node000004" class="node">
<title>Node4</title>
<g id="a_Node000004"><a xlink:href="output__struct_8h.html" target="_top" xlink:title=" ">
<polygon fill="white" stroke="#666666" points="743,-90.5 629,-90.5 629,-71.5 743,-71.5 743,-90.5"/>
<text text-anchor="middle" x="686" y="-78.5" font-family="Helvetica,sans-Serif" font-size="10.00">core/output_struct.h</text>
</a>
</g>
</g>
<!-- Node3&#45;&gt;Node4 -->
<g id="edge3_Node000003_Node000004" class="edge">
<title>Node3&#45;&gt;Node4</title>
<g id="a_edge3_Node000003_Node000004"><a xlink:title=" ">
<path fill="none" stroke="#63b8ff" d="M1081.76,-141.28C1012.09,-133.44 870.78,-116.53 752,-96 746.16,-94.99 740.05,-93.83 734,-92.63"/>
<polygon fill="#63b8ff" stroke="#63b8ff" points="734.45,-89.14 723.95,-90.56 733.04,-96 734.45,-89.14"/>
</a>
</g>
</g>
<!-- Node5 -->
<g id="Node000005" class="node">
<title>Node5</title>
<g id="a_Node000005"><a xlink:title=" ">
<polygon fill="#e0e0e0" stroke="#999999" points="651.5,-30 550.5,-30 550.5,0 651.5,0 651.5,-30"/>
<text text-anchor="start" x="558.5" y="-18" font-family="Helvetica,sans-Serif" font-size="10.00">deal.II/base/table</text>
<text text-anchor="middle" x="601" y="-7" font-family="Helvetica,sans-Serif" font-size="10.00">_handler.h</text>
</a>
</g>
</g>
<!-- Node3&#45;&gt;Node5 -->
<g id="edge9_Node000003_Node000005" class="edge">
<title>Node3&#45;&gt;Node5</title>
<g id="a_edge9_Node000003_Node000005"><a xlink:title=" ">
<path fill="none" stroke="#63b8ff" d="M1081.62,-144.55C965.57,-140.28 654.46,-126.11 620,-96 604.35,-82.32 600.35,-58.32 599.82,-40.17"/>
<polygon fill="#63b8ff" stroke="#63b8ff" points="603.32,-40.03 599.85,-30.02 596.32,-40.01 603.32,-40.03"/>
</a>
</g>
</g>
<!-- Node7 -->
<g id="Node000007" class="node">
<title>Node7</title>
<g id="a_Node000007"><a xlink:title=" ">
<polygon fill="#e0e0e0" stroke="#999999" points="891,-96 761,-96 761,-66 891,-66 891,-96"/>
<text text-anchor="start" x="769" y="-84" font-family="Helvetica,sans-Serif" font-size="10.00">deal.II/base/conditional</text>
<text text-anchor="middle" x="826" y="-73" font-family="Helvetica,sans-Serif" font-size="10.00">_ostream.h</text>
</a>
</g>
</g>
<!-- Node3&#45;&gt;Node7 -->
<g id="edge6_Node000003_Node000007" class="edge">
<title>Node3&#45;&gt;Node7</title>
<g id="a_edge6_Node000003_Node000007"><a xlink:title=" ">
<path fill="none" stroke="#63b8ff" d="M1084.99,-137.44C1038.13,-127.41 959.5,-110.58 901.15,-98.09"/>
<polygon fill="#63b8ff" stroke="#63b8ff" points="901.75,-94.63 891.24,-95.96 900.28,-101.48 901.75,-94.63"/>
</a>
</g>
</g>
<!-- Node8 -->
<g id="Node000008" class="node">
<title>Node8</title>
<g id="a_Node000008"><a xlink:title=" ">
<polygon fill="#e0e0e0" stroke="#999999" points="1036.5,-96 909.5,-96 909.5,-66 1036.5,-66 1036.5,-96"/>
<text text-anchor="start" x="917.5" y="-84" font-family="Helvetica,sans-Serif" font-size="10.00">deal.II/base/parameter</text>
<text text-anchor="middle" x="973" y="-73" font-family="Helvetica,sans-Serif" font-size="10.00">_handler.h</text>
</a>
</g>
</g>
<!-- Node3&#45;&gt;Node8 -->
<g id="edge7_Node000003_Node000008" class="edge">
<title>Node3&#45;&gt;Node8</title>
<g id="a_edge7_Node000003_Node000008"><a xlink:title=" ">
<path fill="none" stroke="#63b8ff" d="M1104.5,-137.37C1081.93,-127.87 1045,-112.32 1016.02,-100.11"/>
<polygon fill="#63b8ff" stroke="#63b8ff" points="1017.1,-96.77 1006.52,-96.12 1014.38,-103.22 1017.1,-96.77"/>
</a>
</g>
</g>
<!-- Node9 -->
<g id="Node000009" class="node">
<title>Node9</title>
<g id="a_Node000009"><a xlink:title=" ">
<polygon fill="#e0e0e0" stroke="#999999" points="364,-90.5 254,-90.5 254,-71.5 364,-71.5 364,-90.5"/>
<text text-anchor="middle" x="309" y="-78.5" font-family="Helvetica,sans-Serif" font-size="10.00">deal.II/base/point.h</text>
</a>
</g>
</g>
<!-- Node3&#45;&gt;Node9 -->
<g id="edge8_Node000003_Node000009" class="edge">
<title>Node3&#45;&gt;Node9</title>
<g id="a_edge8_Node000003_Node000009"><a xlink:title=" ">
<path fill="none" stroke="#63b8ff" d="M1081.95,-145.38C966.54,-143.23 640.84,-133.98 373,-96 366.64,-95.1 359.98,-93.91 353.45,-92.62"/>
<polygon fill="#63b8ff" stroke="#63b8ff" points="353.88,-89.13 343.37,-90.5 352.44,-95.98 353.88,-89.13"/>
</a>
</g>
</g>
<!-- Node3&#45;&gt;Node10 -->
<g id="edge10_Node000003_Node000010" class="edge">
<title>Node3&#45;&gt;Node10</title>
<g id="a_edge10_Node000003_Node000010"><a xlink:title=" ">
<path fill="none" stroke="#63b8ff" d="M1081.94,-144.41C928.64,-138.6 409.79,-117.77 245,-96 238.19,-95.1 231.05,-93.89 224.06,-92.56"/>
<polygon fill="#63b8ff" stroke="#63b8ff" points="224.49,-89.08 213.99,-90.55 223.11,-95.94 224.49,-89.08"/>
</a>
</g>
</g>
<!-- Node11 -->
<g id="Node000011" class="node">
<title>Node11</title>
<g id="a_Node000011"><a xlink:title=" ">
<polygon fill="#e0e0e0" stroke="#999999" points="1195,-90.5 1055,-90.5 1055,-71.5 1195,-71.5 1195,-90.5"/>
<text text-anchor="middle" x="1125" y="-78.5" font-family="Helvetica,sans-Serif" font-size="10.00">deal.II/dofs/dof_handler.h</text>
</a>
</g>
</g>
<!-- Node3&#45;&gt;Node11 -->
<g id="edge11_Node000003_Node000011" class="edge">
<title>Node3&#45;&gt;Node11</title>
<g id="a_edge11_Node000003_Node000011"><a xlink:title=" ">
<path fill="none" stroke="#63b8ff" d="M1125,-137.37C1125,-128.16 1125,-113.29 1125,-101.27"/>
<polygon fill="#63b8ff" stroke="#63b8ff" points="1128.5,-100.91 1125,-90.91 1121.5,-100.91 1128.5,-100.91"/>
</a>
</g>
</g>
<!-- Node12 -->
<g id="Node000012" class="node">
<title>Node12</title>
<g id="a_Node000012"><a xlink:title=" ">
<polygon fill="#e0e0e0" stroke="#999999" points="1332.5,-90.5 1213.5,-90.5 1213.5,-71.5 1332.5,-71.5 1332.5,-90.5"/>
<text text-anchor="middle" x="1273" y="-78.5" font-family="Helvetica,sans-Serif" font-size="10.00">deal.II/fe/fe_values.h</text>
</a>
</g>
</g>
<!-- Node3&#45;&gt;Node12 -->
<g id="edge12_Node000003_Node000012" class="edge">
<title>Node3&#45;&gt;Node12</title>
<g id="a_edge12_Node000003_Node000012"><a xlink:title=" ">
<path fill="none" stroke="#63b8ff" d="M1144.96,-137.37C1170.34,-126.39 1214.36,-107.36 1243.59,-94.72"/>
<polygon fill="#63b8ff" stroke="#63b8ff" points="1245.09,-97.88 1252.88,-90.7 1242.32,-91.46 1245.09,-97.88"/>
</a>
</g>
</g>
<!-- Node3&#45;&gt;Node13 -->
<g id="edge13_Node000003_Node000013" class="edge">
<title>Node3&#45;&gt;Node13</title>
<g id="a_edge13_Node000003_Node000013"><a xlink:title=" ">
<path fill="none" stroke="#63b8ff" d="M1081.69,-143.96C983.93,-139.03 738.53,-124.77 523.91,-96.17"/>
<polygon fill="#63b8ff" stroke="#63b8ff" points="524.09,-92.67 513.71,-94.8 523.15,-99.6 524.09,-92.67"/>
</a>
</g>
</g>
<!-- Node14 -->
<g id="Node000014" class="node">
<title>Node14</title>
<g id="a_Node000014"><a xlink:title=" ">
<polygon fill="#e0e0e0" stroke="#999999" points="1584.5,-96 1479.5,-96 1479.5,-66 1584.5,-66 1584.5,-96"/>
<text text-anchor="start" x="1487.5" y="-84" font-family="Helvetica,sans-Serif" font-size="10.00">boost/archive/text</text>
<text text-anchor="middle" x="1532" y="-73" font-family="Helvetica,sans-Serif" font-size="10.00">_iarchive.hpp</text>
</a>
</g>
</g>
<!-- Node3&#45;&gt;Node14 -->
<g id="edge14_Node000003_Node000014" class="edge">
<title>Node3&#45;&gt;Node14</title>
<g id="a_edge14_Node000003_Node000014"><a xlink:title=" ">
<path fill="none" stroke="#63b8ff" d="M1168.21,-140.84C1231.86,-133 1354.77,-116.93 1469.3,-96.04"/>
<polygon fill="#63b8ff" stroke="#63b8ff" points="1470.09,-99.45 1479.29,-94.2 1468.82,-92.56 1470.09,-99.45"/>
</a>
</g>
</g>
<!-- Node15 -->
<g id="Node000015" class="node">
<title>Node15</title>
<g id="a_Node000015"><a xlink:title=" ">
<polygon fill="#e0e0e0" stroke="#999999" points="1707.5,-96 1602.5,-96 1602.5,-66 1707.5,-66 1707.5,-96"/>
<text text-anchor="start" x="1610.5" y="-84" font-family="Helvetica,sans-Serif" font-size="10.00">boost/archive/text</text>
<text text-anchor="middle" x="1655" y="-73" font-family="Helvetica,sans-Serif" font-size="10.00">_oarchive.hpp</text>
</a>
</g>
</g>
<!-- Node3&#45;&gt;Node15 -->
<g id="edge15_Node000003_Node000015" class="edge">
<title>Node3&#45;&gt;Node15</title>
<g id="a_edge15_Node000003_Node000015"><a xlink:title=" ">
<path fill="none" stroke="#63b8ff" d="M1168.23,-143.13C1249.5,-137.35 1430.7,-122.68 1592.07,-96.21"/>
<polygon fill="#63b8ff" stroke="#63b8ff" points="1592.88,-99.62 1602.18,-94.53 1591.74,-92.72 1592.88,-99.62"/>
</a>
</g>
</g>
<!-- Node16 -->
<g id="Node000016" class="node">
<title>Node16</title>
<g id="a_Node000016"><a xlink:title=" ">
<polygon fill="#e0e0e0" stroke="#999999" points="1461,-96 1351,-96 1351,-66 1461,-66 1461,-96"/>
<text text-anchor="start" x="1359" y="-84" font-family="Helvetica,sans-Serif" font-size="10.00">boost/math/special</text>
<text text-anchor="middle" x="1406" y="-73" font-family="Helvetica,sans-Serif" font-size="10.00">_functions/erf.hpp</text>
</a>
</g>
</g>
<!-- Node3&#45;&gt;Node16 -->
<g id="edge16_Node000003_Node000016" class="edge">
<title>Node3&#45;&gt;Node16</title>
<g id="a_edge16_Node000003_Node000016"><a xlink:title=" ">
<path fill="none" stroke="#63b8ff" d="M1162.61,-137.44C1208.15,-127.06 1285.63,-109.42 1340.94,-96.82"/>
<polygon fill="#63b8ff" stroke="#63b8ff" points="1342.02,-100.16 1350.99,-94.53 1340.46,-93.34 1342.02,-100.16"/>
</a>
</g>
</g>
<!-- Node17 -->
<g id="Node000017" class="node">
<title>Node17</title>
<g id="a_Node000017"><a xlink:title=" ">
<polygon fill="#e0e0e0" stroke="#999999" points="1780.5,-90.5 1725.5,-90.5 1725.5,-71.5 1780.5,-71.5 1780.5,-90.5"/>
<text text-anchor="middle" x="1753" y="-78.5" font-family="Helvetica,sans-Serif" font-size="10.00">fstream</text>
</a>
</g>
</g>
<!-- Node3&#45;&gt;Node17 -->
<g id="edge17_Node000003_Node000017" class="edge">
<title>Node3&#45;&gt;Node17</title>
<g id="a_edge17_Node000003_Node000017"><a xlink:title=" ">
<path fill="none" stroke="#63b8ff" d="M1168,-146.55C1266.51,-146.9 1515.53,-142.66 1717,-96 1719.37,-95.45 1721.79,-94.78 1724.2,-94.02"/>
<polygon fill="#63b8ff" stroke="#63b8ff" points="1725.63,-97.23 1733.89,-90.6 1723.3,-90.63 1725.63,-97.23"/>
</a>
</g>
</g>
<!-- Node18 -->
<g id="Node000018" class="node">
<title>Node18</title>
<g id="a_Node000018"><a xlink:title=" ">
<polygon fill="#e0e0e0" stroke="#999999" points="1837,-90.5 1799,-90.5 1799,-71.5 1837,-71.5 1837,-90.5"/>
<text text-anchor="middle" x="1818" y="-78.5" font-family="Helvetica,sans-Serif" font-size="10.00">map</text>
</a>
</g>
</g>
<!-- Node3&#45;&gt;Node18 -->
<g id="edge18_Node000003_Node000018" class="edge">
<title>Node3&#45;&gt;Node18</title>
<g id="a_edge18_Node000003_Node000018"><a xlink:title=" ">
<path fill="none" stroke="#63b8ff" d="M1168.05,-144.93C1295.96,-141.42 1672.12,-128.54 1790,-96 1791.44,-95.6 1792.89,-95.13 1794.34,-94.6"/>
<polygon fill="#63b8ff" stroke="#63b8ff" points="1795.86,-97.76 1803.61,-90.53 1793.04,-91.35 1795.86,-97.76"/>
</a>
</g>
</g>
<!-- Node19 -->
<g id="Node000019" class="node">
<title>Node19</title>
<g id="a_Node000019"><a xlink:title=" ">
<polygon fill="#e0e0e0" stroke="#999999" points="1899,-90.5 1855,-90.5 1855,-71.5 1899,-71.5 1899,-90.5"/>
<text text-anchor="middle" x="1877" y="-78.5" font-family="Helvetica,sans-Serif" font-size="10.00">regex</text>
</a>
</g>
</g>
<!-- Node3&#45;&gt;Node19 -->
<g id="edge19_Node000003_Node000019" class="edge">
<title>Node3&#45;&gt;Node19</title>
<g id="a_edge19_Node000003_Node000019"><a xlink:title=" ">
<path fill="none" stroke="#63b8ff" d="M1168.22,-145C1303.34,-141.58 1716.42,-128.64 1846,-96 1847.73,-95.56 1849.49,-95.04 1851.24,-94.44"/>
<polygon fill="#63b8ff" stroke="#63b8ff" points="1853,-97.51 1860.98,-90.53 1850.4,-91.01 1853,-97.51"/>
</a>
</g>
</g>
<!-- Node20 -->
<g id="Node000020" class="node">
<title>Node20</title>
<g id="a_Node000020"><a xlink:title=" ">
<polygon fill="#e0e0e0" stroke="#999999" points="1961,-90.5 1917,-90.5 1917,-71.5 1961,-71.5 1961,-90.5"/>
<text text-anchor="middle" x="1939" y="-78.5" font-family="Helvetica,sans-Serif" font-size="10.00">string</text>
</a>
</g>
</g>
<!-- Node3&#45;&gt;Node20 -->
<g id="edge20_Node000003_Node000020" class="edge">
<title>Node3&#45;&gt;Node20</title>
<g id="a_edge20_Node000003_Node000020"><a xlink:title=" ">
<path fill="none" stroke="#63b8ff" d="M1168.13,-145.28C1310.74,-142.58 1765.99,-131.35 1908,-96 1909.73,-95.57 1911.49,-95.04 1913.24,-94.45"/>
<polygon fill="#63b8ff" stroke="#63b8ff" points="1915,-97.52 1922.99,-90.55 1912.4,-91.02 1915,-97.52"/>
</a>
</g>
</g>
<!-- Node21 -->
<g id="Node000021" class="node">
<title>Node21</title>
<g id="a_Node000021"><a xlink:title=" ">
<polygon fill="#e0e0e0" stroke="#999999" points="572.5,-90.5 531.5,-90.5 531.5,-71.5 572.5,-71.5 572.5,-90.5"/>
<text text-anchor="middle" x="552" y="-78.5" font-family="Helvetica,sans-Serif" font-size="10.00">tuple</text>
</a>
</g>
</g>
<!-- Node3&#45;&gt;Node21 -->
<g id="edge21_Node000003_Node000021" class="edge">
<title>Node3&#45;&gt;Node21</title>
<g id="a_edge21_Node000003_Node000021"><a xlink:title=" ">
<path fill="none" stroke="#63b8ff" d="M1081.77,-146.16C989.52,-145.61 767.1,-139.42 587,-96 584.69,-95.44 582.33,-94.76 579.99,-94.01"/>
<polygon fill="#63b8ff" stroke="#63b8ff" points="581.16,-90.71 570.57,-90.58 578.77,-97.29 581.16,-90.71"/>
</a>
</g>
</g>
<!-- Node3&#45;&gt;Node22 -->
<g id="edge22_Node000003_Node000022" class="edge">
<title>Node3&#45;&gt;Node22</title>
<g id="a_edge22_Node000003_Node000022"><a xlink:title=" ">
<path fill="none" stroke="#63b8ff" d="M1168.22,-144.31C1329.6,-137.87 1891.71,-114.35 1970,-96 1972.17,-95.49 1974.37,-94.85 1976.56,-94.13"/>
<polygon fill="#63b8ff" stroke="#63b8ff" points="1977.81,-97.4 1985.91,-90.56 1975.32,-90.86 1977.81,-97.4"/>
</a>
</g>
</g>
<!-- Node4&#45;&gt;Node5 -->
<g id="edge4_Node000004_Node000005" class="edge">
<title>Node4&#45;&gt;Node5</title>
<g id="a_edge4_Node000004_Node000005"><a xlink:title=" ">
<path fill="none" stroke="#63b8ff" d="M674.54,-71.37C662.68,-62.44 643.75,-48.19 628.06,-36.38"/>
<polygon fill="#63b8ff" stroke="#63b8ff" points="629.84,-33.33 619.75,-30.12 625.63,-38.93 629.84,-33.33"/>
</a>
</g>
</g>
<!-- Node6 -->
<g id="Node000006" class="node">
<title>Node6</title>
<g id="a_Node000006"><a xlink:title=" ">
<polygon fill="#e0e0e0" stroke="#999999" points="788.5,-30 669.5,-30 669.5,0 788.5,0 788.5,-30"/>
<text text-anchor="start" x="677.5" y="-18" font-family="Helvetica,sans-Serif" font-size="10.00">deal.II/numerics/data</text>
<text text-anchor="middle" x="729" y="-7" font-family="Helvetica,sans-Serif" font-size="10.00">_postprocessor.h</text>
</a>
</g>
</g>
<!-- Node4&#45;&gt;Node6 -->
<g id="edge5_Node000004_Node000006" class="edge">
<title>Node4&#45;&gt;Node6</title>
<g id="a_edge5_Node000004_Node000006"><a xlink:title=" ">
<path fill="none" stroke="#63b8ff" d="M691.8,-71.37C697.37,-63.08 706.03,-50.18 713.6,-38.92"/>
<polygon fill="#63b8ff" stroke="#63b8ff" points="716.68,-40.61 719.35,-30.36 710.87,-36.71 716.68,-40.61"/>
</a>
</g>
</g>
<!-- Node23&#45;&gt;Node9 -->
<g id="edge24_Node000023_Node000009" class="edge">
<title>Node23&#45;&gt;Node9</title>
<g id="a_edge24_Node000023_Node000009"><a xlink:title=" ">
<path fill="none" stroke="#63b8ff" d="M254.54,-131.8C265.56,-121.72 280.35,-108.19 291.74,-97.78"/>
<polygon fill="#63b8ff" stroke="#63b8ff" points="294.31,-100.18 299.33,-90.84 289.58,-95.01 294.31,-100.18"/>
</a>
</g>
</g>
<!-- Node23&#45;&gt;Node10 -->
<g id="edge25_Node000023_Node000010" class="edge">
<title>Node23&#45;&gt;Node10</title>
<g id="a_edge25_Node000023_Node000010"><a xlink:title=" ">
<path fill="none" stroke="#63b8ff" d="M225.46,-131.8C215.95,-121.82 203.22,-108.46 193.33,-98.09"/>
<polygon fill="#63b8ff" stroke="#63b8ff" points="195.86,-95.67 186.43,-90.84 190.8,-100.5 195.86,-95.67"/>
</a>
</g>
</g>
<!-- Node23&#45;&gt;Node24 -->
<g id="edge26_Node000023_Node000024" class="edge">
<title>Node23&#45;&gt;Node24</title>
<g id="a_edge26_Node000023_Node000024"><a xlink:title=" ">
<path fill="none" stroke="#63b8ff" d="M197.74,-131.95C169.46,-122.33 131.75,-109.49 101.65,-99.24"/>
<polygon fill="#63b8ff" stroke="#63b8ff" points="102.76,-95.92 92.16,-96.01 100.5,-102.55 102.76,-95.92"/>
</a>
</g>
</g>
<!-- Node25&#45;&gt;Node9 -->
<g id="edge28_Node000025_Node000009" class="edge">
<title>Node25&#45;&gt;Node9</title>
<g id="a_edge28_Node000025_Node000009"><a xlink:title=" ">
<path fill="none" stroke="#63b8ff" d="M361.77,-137.37C352.28,-127.4 336.44,-110.79 324.59,-98.36"/>
<polygon fill="#63b8ff" stroke="#63b8ff" points="326.92,-95.73 317.49,-90.91 321.85,-100.56 326.92,-95.73"/>
</a>
</g>
</g>
<!-- Node25&#45;&gt;Node10 -->
<g id="edge29_Node000025_Node000010" class="edge">
<title>Node25&#45;&gt;Node10</title>
<g id="a_edge29_Node000025_Node000010"><a xlink:title=" ">
<path fill="none" stroke="#63b8ff" d="M344.11,-137.37C310.37,-126.12 251.25,-106.42 213.39,-93.8"/>
<polygon fill="#63b8ff" stroke="#63b8ff" points="214.38,-90.44 203.79,-90.6 212.17,-97.08 214.38,-90.44"/>
</a>
</g>
</g>
<!-- Node25&#45;&gt;Node13 -->
<g id="edge30_Node000025_Node000013" class="edge">
<title>Node25&#45;&gt;Node13</title>
<g id="a_edge30_Node000025_Node000013"><a xlink:title=" ">
<path fill="none" stroke="#63b8ff" d="M380.52,-137.37C391.3,-128.53 408.45,-114.45 422.77,-102.71"/>
<polygon fill="#63b8ff" stroke="#63b8ff" points="425.29,-105.16 430.8,-96.12 420.85,-99.75 425.29,-105.16"/>
</a>
</g>
</g>
</g>
</svg>
