<?xml version="1.0" encoding="UTF-8" standalone="no"?>
<!DOCTYPE svg PUBLIC "-//W3C//DTD SVG 1.1//EN"
 "http://www.w3.org/Graphics/SVG/1.1/DTD/svg11.dtd">
<!-- Generated by graphviz version 2.43.0 (0)
 -->
<!-- Title: /home/runner/work/lethe/lethe/include/dem/periodic_boundaries_manipulator.h Pages: 1 -->
<svg width="619pt" height="368pt"
 viewBox="0.00 0.00 619.00 368.00" xmlns="http://www.w3.org/2000/svg" xmlns:xlink="http://www.w3.org/1999/xlink">
<g id="graph0" class="graph" transform="scale(1 1) rotate(0) translate(4 364)">
<title>/home/runner/work/lethe/lethe/include/dem/periodic_boundaries_manipulator.h</title>
<!-- Node1 -->
<g id="Node000001" class="node">
<title>Node1</title>
<g id="a_Node000001"><a xlink:title=" ">
<polygon fill="#999999" stroke="#666666" points="387,-360 238,-360 238,-319 387,-319 387,-360"/>
<text text-anchor="start" x="246" y="-348" font-family="Helvetica,sans-Serif" font-size="10.00">/home/runner/work/lethe</text>
<text text-anchor="start" x="246" y="-337" font-family="Helvetica,sans-Serif" font-size="10.00">/lethe/include/dem/periodic</text>
<text text-anchor="middle" x="312.5" y="-326" font-family="Helvetica,sans-Serif" font-size="10.00">_boundaries_manipulator.h</text>
</a>
</g>
</g>
<!-- Node2 -->
<g id="Node000002" class="node">
<title>Node2</title>
<g id="a_Node000002"><a xlink:href="dem_8h.html" target="_top" xlink:title=" ">
<polygon fill="white" stroke="#666666" points="334,-277.5 193,-277.5 193,-247.5 334,-247.5 334,-277.5"/>
<text text-anchor="start" x="201" y="-265.5" font-family="Helvetica,sans-Serif" font-size="10.00">/home/runner/work/lethe</text>
<text text-anchor="middle" x="263.5" y="-254.5" font-family="Helvetica,sans-Serif" font-size="10.00">/lethe/include/dem/dem.h</text>
</a>
</g>
</g>
<!-- Node1&#45;&gt;Node2 -->
<g id="edge1_Node000001_Node000002" class="edge">
<title>Node1&#45;&gt;Node2</title>
<g id="a_edge1_Node000001_Node000002"><a xlink:title=" ">
<path fill="none" stroke="#63b8ff" d="M294.05,-310.26C286.83,-299.21 278.87,-287.02 272.88,-277.86"/>
<polygon fill="#63b8ff" stroke="#63b8ff" points="291.23,-312.34 299.63,-318.79 297.09,-308.51 291.23,-312.34"/>
</a>
</g>
</g>
<!-- Node3 -->
<g id="Node000003" class="node">
<title>Node3</title>
<g id="a_Node000003"><a xlink:href="cfd__dem__coupling_8h.html" target="_top" xlink:title=" ">
<polygon fill="white" stroke="#666666" points="137,-123.5 0,-123.5 0,-82.5 137,-82.5 137,-123.5"/>
<text text-anchor="start" x="8" y="-111.5" font-family="Helvetica,sans-Serif" font-size="10.00">/home/runner/work/lethe</text>
<text text-anchor="start" x="8" y="-100.5" font-family="Helvetica,sans-Serif" font-size="10.00">/lethe/include/fem&#45;dem</text>
<text text-anchor="middle" x="68.5" y="-89.5" font-family="Helvetica,sans-Serif" font-size="10.00">/cfd_dem_coupling.h</text>
</a>
</g>
</g>
<!-- Node1&#45;&gt;Node3 -->
<g id="edge10_Node000001_Node000003" class="edge">
<title>Node1&#45;&gt;Node3</title>
<g id="a_edge10_Node000001_Node000003"><a xlink:title=" ">
<path fill="none" stroke="#63b8ff" d="M229.2,-315.56C175.64,-295.97 110.33,-261.87 78.5,-206 63.97,-180.49 64.01,-145.49 65.88,-123.83"/>
<polygon fill="#63b8ff" stroke="#63b8ff" points="228.11,-318.89 238.71,-318.94 230.45,-312.29 228.11,-318.89"/>
</a>
</g>
</g>
<!-- Node5 -->
<g id="Node000005" class="node">
<title>Node5</title>
<g id="a_Node000005"><a xlink:href="cfd__dem__coupling__matrix__free_8h.html" target="_top" xlink:title=" ">
<polygon fill="white" stroke="#666666" points="611,-206 432,-206 432,-165 611,-165 611,-206"/>
<text text-anchor="start" x="440" y="-194" font-family="Helvetica,sans-Serif" font-size="10.00">/home/runner/work/lethe</text>
<text text-anchor="start" x="440" y="-183" font-family="Helvetica,sans-Serif" font-size="10.00">/lethe/include/fem&#45;dem</text>
<text text-anchor="middle" x="521.5" y="-172" font-family="Helvetica,sans-Serif" font-size="10.00">/cfd_dem_coupling_matrix_free.h</text>
</a>
</g>
</g>
<!-- Node1&#45;&gt;Node5 -->
<g id="edge11_Node000001_Node000005" class="edge">
<title>Node1&#45;&gt;Node5</title>
<g id="a_edge11_Node000001_Node000005"><a xlink:title=" ">
<path fill="none" stroke="#63b8ff" d="M327,-310.01C339.07,-288.76 358.04,-260.35 381.5,-242 401.48,-226.38 426.41,-214.62 449.69,-206.05"/>
<polygon fill="#63b8ff" stroke="#63b8ff" points="323.85,-308.47 322.1,-318.91 329.99,-311.84 323.85,-308.47"/>
</a>
</g>
</g>
<!-- Node10 -->
<g id="Node000010" class="node">
<title>Node10</title>
<g id="a_Node000010"><a xlink:href="periodic__boundaries__manipulator_8cc.html" target="_top" xlink:title=" ">
<polygon fill="white" stroke="#666666" points="544,-283 391,-283 391,-242 544,-242 544,-283"/>
<text text-anchor="start" x="399" y="-271" font-family="Helvetica,sans-Serif" font-size="10.00">/home/runner/work/lethe</text>
<text text-anchor="start" x="399" y="-260" font-family="Helvetica,sans-Serif" font-size="10.00">/lethe/source/dem/periodic</text>
<text text-anchor="middle" x="467.5" y="-249" font-family="Helvetica,sans-Serif" font-size="10.00">_boundaries_manipulator.cc</text>
</a>
</g>
</g>
<!-- Node1&#45;&gt;Node10 -->
<g id="edge12_Node000001_Node000010" class="edge">
<title>Node1&#45;&gt;Node10</title>
<g id="a_edge12_Node000001_Node000010"><a xlink:title=" ">
<path fill="none" stroke="#63b8ff" d="M361.92,-314.59C382.96,-304.41 407.18,-292.69 427.11,-283.04"/>
<polygon fill="#63b8ff" stroke="#63b8ff" points="360.3,-311.48 352.82,-318.99 363.35,-317.79 360.3,-311.48"/>
</a>
</g>
</g>
<!-- Node2&#45;&gt;Node3 -->
<g id="edge2_Node000002_Node000003" class="edge">
<title>Node2&#45;&gt;Node3</title>
<g id="a_edge2_Node000002_Node000003"><a xlink:title=" ">
<path fill="none" stroke="#63b8ff" d="M182.78,-247.42C155.69,-239.22 127.15,-226.31 106.5,-206 83.73,-183.61 74.46,-146.33 70.79,-123.58"/>
<polygon fill="#63b8ff" stroke="#63b8ff" points="182.1,-250.86 192.67,-250.23 184.01,-244.13 182.1,-250.86"/>
</a>
</g>
</g>
<!-- Node2&#45;&gt;Node5 -->
<g id="edge4_Node000002_Node000005" class="edge">
<title>Node2&#45;&gt;Node5</title>
<g id="a_edge4_Node000002_Node000005"><a xlink:title=" ">
<path fill="none" stroke="#63b8ff" d="M321.43,-244.66C360.75,-233.23 412.86,-218.08 454.05,-206.11"/>
<polygon fill="#63b8ff" stroke="#63b8ff" points="320.35,-241.33 311.73,-247.48 322.3,-248.05 320.35,-241.33"/>
</a>
</g>
</g>
<!-- Node7 -->
<g id="Node000007" class="node">
<title>Node7</title>
<g id="a_Node000007"><a xlink:href="fluid__dynamics__vans_8h.html" target="_top" xlink:title=" ">
<polygon fill="white" stroke="#666666" points="253,-206 116,-206 116,-165 253,-165 253,-206"/>
<text text-anchor="start" x="124" y="-194" font-family="Helvetica,sans-Serif" font-size="10.00">/home/runner/work/lethe</text>
<text text-anchor="start" x="124" y="-183" font-family="Helvetica,sans-Serif" font-size="10.00">/lethe/include/fem&#45;dem</text>
<text text-anchor="middle" x="184.5" y="-172" font-family="Helvetica,sans-Serif" font-size="10.00">/fluid_dynamics_vans.h</text>
</a>
</g>
</g>
<!-- Node2&#45;&gt;Node7 -->
<g id="edge6_Node000002_Node000007" class="edge">
<title>Node2&#45;&gt;Node7</title>
<g id="a_edge6_Node000002_Node000007"><a xlink:title=" ">
<path fill="none" stroke="#63b8ff" d="M241.26,-240.38C229.96,-229.66 216.33,-216.72 205.25,-206.2"/>
<polygon fill="#63b8ff" stroke="#63b8ff" points="238.98,-243.05 248.64,-247.39 243.8,-237.97 238.98,-243.05"/>
</a>
</g>
</g>
<!-- Node9 -->
<g id="Node000009" class="node">
<title>Node9</title>
<g id="a_Node000009"><a xlink:href="dem_8cc.html" target="_top" xlink:title=" ">
<polygon fill="white" stroke="#666666" points="414,-200.5 271,-200.5 271,-170.5 414,-170.5 414,-200.5"/>
<text text-anchor="start" x="279" y="-188.5" font-family="Helvetica,sans-Serif" font-size="10.00">/home/runner/work/lethe</text>
<text text-anchor="middle" x="342.5" y="-177.5" font-family="Helvetica,sans-Serif" font-size="10.00">/lethe/source/dem/dem.cc</text>
</a>
</g>
</g>
<!-- Node2&#45;&gt;Node9 -->
<g id="edge9_Node000002_Node000009" class="edge">
<title>Node2&#45;&gt;Node9</title>
<g id="a_edge9_Node000002_Node000009"><a xlink:title=" ">
<path fill="none" stroke="#63b8ff" d="M285.81,-240.32C299.23,-227.58 315.92,-211.74 327.71,-200.54"/>
<polygon fill="#63b8ff" stroke="#63b8ff" points="283.2,-237.97 278.36,-247.39 288.02,-243.05 283.2,-237.97"/>
</a>
</g>
</g>
<!-- Node4 -->
<g id="Node000004" class="node">
<title>Node4</title>
<g id="a_Node000004"><a xlink:href="cfd__dem__coupling_8cc.html" target="_top" xlink:title=" ">
<polygon fill="white" stroke="#666666" points="137,-41 0,-41 0,0 137,0 137,-41"/>
<text text-anchor="start" x="8" y="-29" font-family="Helvetica,sans-Serif" font-size="10.00">/home/runner/work/lethe</text>
<text text-anchor="start" x="8" y="-18" font-family="Helvetica,sans-Serif" font-size="10.00">/lethe/source/fem&#45;dem</text>
<text text-anchor="middle" x="68.5" y="-7" font-family="Helvetica,sans-Serif" font-size="10.00">/cfd_dem_coupling.cc</text>
</a>
</g>
</g>
<!-- Node3&#45;&gt;Node4 -->
<g id="edge3_Node000003_Node000004" class="edge">
<title>Node3&#45;&gt;Node4</title>
<g id="a_edge3_Node000003_Node000004"><a xlink:title=" ">
<path fill="none" stroke="#63b8ff" d="M68.5,-71.87C68.5,-61.6 68.5,-50.4 68.5,-41.17"/>
<polygon fill="#63b8ff" stroke="#63b8ff" points="65,-72.1 68.5,-82.1 72,-72.1 65,-72.1"/>
</a>
</g>
</g>
<!-- Node6 -->
<g id="Node000006" class="node">
<title>Node6</title>
<g id="a_Node000006"><a xlink:href="cfd__dem__coupling__matrix__free_8cc.html" target="_top" xlink:title=" ">
<polygon fill="white" stroke="#666666" points="594.5,-129 448.5,-129 448.5,-77 594.5,-77 594.5,-129"/>
<text text-anchor="start" x="456.5" y="-117" font-family="Helvetica,sans-Serif" font-size="10.00">/home/runner/work/lethe</text>
<text text-anchor="start" x="456.5" y="-106" font-family="Helvetica,sans-Serif" font-size="10.00">/lethe/source/fem&#45;dem</text>
<text text-anchor="start" x="456.5" y="-95" font-family="Helvetica,sans-Serif" font-size="10.00">/cfd_dem_coupling_matrix</text>
<text text-anchor="middle" x="521.5" y="-84" font-family="Helvetica,sans-Serif" font-size="10.00">_free.cc</text>
</a>
</g>
</g>
<!-- Node5&#45;&gt;Node6 -->
<g id="edge5_Node000005_Node000006" class="edge">
<title>Node5&#45;&gt;Node6</title>
<g id="a_edge5_Node000005_Node000006"><a xlink:title=" ">
<path fill="none" stroke="#63b8ff" d="M521.5,-154.49C521.5,-146.15 521.5,-137.19 521.5,-129.16"/>
<polygon fill="#63b8ff" stroke="#63b8ff" points="518,-154.6 521.5,-164.6 525,-154.6 518,-154.6"/>
</a>
</g>
</g>
<!-- Node7&#45;&gt;Node3 -->
<g id="edge7_Node000007_Node000003" class="edge">
<title>Node7&#45;&gt;Node3</title>
<g id="a_edge7_Node000007_Node000003"><a xlink:title=" ">
<path fill="none" stroke="#63b8ff" d="M147.81,-159.04C131.38,-147.64 112.31,-134.4 96.99,-123.77"/>
<polygon fill="#63b8ff" stroke="#63b8ff" points="145.91,-161.98 156.12,-164.81 149.9,-156.23 145.91,-161.98"/>
</a>
</g>
</g>
<!-- Node8 -->
<g id="Node000008" class="node">
<title>Node8</title>
<g id="a_Node000008"><a xlink:href="fluid__dynamics__vans_8cc.html" target="_top" xlink:title=" ">
<polygon fill="white" stroke="#666666" points="292,-123.5 155,-123.5 155,-82.5 292,-82.5 292,-123.5"/>
<text text-anchor="start" x="163" y="-111.5" font-family="Helvetica,sans-Serif" font-size="10.00">/home/runner/work/lethe</text>
<text text-anchor="start" x="163" y="-100.5" font-family="Helvetica,sans-Serif" font-size="10.00">/lethe/source/fem&#45;dem</text>
<text text-anchor="middle" x="223.5" y="-89.5" font-family="Helvetica,sans-Serif" font-size="10.00">/fluid_dynamics_vans.cc</text>
</a>
</g>
</g>
<!-- Node7&#45;&gt;Node8 -->
<g id="edge8_Node000007_Node000008" class="edge">
<title>Node7&#45;&gt;Node8</title>
<g id="a_edge8_Node000007_Node000008"><a xlink:title=" ">
<path fill="none" stroke="#63b8ff" d="M198.63,-155.34C203.73,-144.81 209.36,-133.19 213.97,-123.67"/>
<polygon fill="#63b8ff" stroke="#63b8ff" points="195.35,-154.08 194.14,-164.6 201.65,-157.13 195.35,-154.08"/>
</a>
</g>
</g>
</g>
</svg>
