<?xml version="1.0" encoding="UTF-8" standalone="no"?>
<!DOCTYPE svg PUBLIC "-//W3C//DTD SVG 1.1//EN"
 "http://www.w3.org/Graphics/SVG/1.1/DTD/svg11.dtd">
<!-- Generated by graphviz version 2.43.0 (0)
 -->
<!-- Title: /home/runner/work/lethe/lethe/source/dem/periodic_boundaries_manipulator.cc Pages: 1 -->
<svg width="1844pt" height="379pt"
 viewBox="0.00 0.00 1843.50 379.00" xmlns="http://www.w3.org/2000/svg" xmlns:xlink="http://www.w3.org/1999/xlink">
<g id="graph0" class="graph" transform="scale(1 1) rotate(0) translate(4 375)">
<title>/home/runner/work/lethe/lethe/source/dem/periodic_boundaries_manipulator.cc</title>
<!-- Node1 -->
<g id="Node000001" class="node">
<title>Node1</title>
<g id="a_Node000001"><a xlink:title=" ">
<polygon fill="#999999" stroke="#666666" points="1186.5,-371 1033.5,-371 1033.5,-330 1186.5,-330 1186.5,-371"/>
<text text-anchor="start" x="1041.5" y="-359" font-family="Helvetica,sans-Serif" font-size="10.00">/home/runner/work/lethe</text>
<text text-anchor="start" x="1041.5" y="-348" font-family="Helvetica,sans-Serif" font-size="10.00">/lethe/source/dem/periodic</text>
<text text-anchor="middle" x="1110" y="-337" font-family="Helvetica,sans-Serif" font-size="10.00">_boundaries_manipulator.cc</text>
</a>
</g>
</g>
<!-- Node2 -->
<g id="Node000002" class="node">
<title>Node2</title>
<g id="a_Node000002"><a xlink:href="tensors__and__points__dimension__manipulation_8h.html" target="_top" xlink:title=" ">
<polygon fill="white" stroke="#666666" points="310,-162 158,-162 158,-132 310,-132 310,-162"/>
<text text-anchor="start" x="166" y="-150" font-family="Helvetica,sans-Serif" font-size="10.00">core/tensors_and_points</text>
<text text-anchor="middle" x="234" y="-139" font-family="Helvetica,sans-Serif" font-size="10.00">_dimension_manipulation.h</text>
</a>
</g>
</g>
<!-- Node1&#45;&gt;Node2 -->
<g id="edge1_Node000001_Node000002" class="edge">
<title>Node1&#45;&gt;Node2</title>
<g id="a_edge1_Node000001_Node000002"><a xlink:title=" ">
<path fill="none" stroke="#63b8ff" d="M1033.4,-345.14C823.67,-332.41 252.08,-292.09 199,-228 184.87,-210.94 198.27,-187.3 212.37,-170.14"/>
<polygon fill="#63b8ff" stroke="#63b8ff" points="215.29,-172.13 219.24,-162.3 210.02,-167.52 215.29,-172.13"/>
</a>
</g>
</g>
<!-- Node5 -->
<g id="Node000005" class="node">
<title>Node5</title>
<g id="a_Node000005"><a xlink:href="periodic__boundaries__manipulator_8h.html" target="_top" xlink:title=" ">
<polygon fill="white" stroke="#666666" points="696,-294 556,-294 556,-264 696,-264 696,-294"/>
<text text-anchor="start" x="564" y="-282" font-family="Helvetica,sans-Serif" font-size="10.00">dem/periodic_boundaries</text>
<text text-anchor="middle" x="626" y="-271" font-family="Helvetica,sans-Serif" font-size="10.00">_manipulator.h</text>
</a>
</g>
</g>
<!-- Node1&#45;&gt;Node5 -->
<g id="edge4_Node000001_Node000005" class="edge">
<title>Node1&#45;&gt;Node5</title>
<g id="a_edge4_Node000001_Node000005"><a xlink:title=" ">
<path fill="none" stroke="#63b8ff" d="M1033.31,-338.49C943.9,-325.65 796.83,-304.53 706.02,-291.49"/>
<polygon fill="#63b8ff" stroke="#63b8ff" points="706.44,-288.02 696.05,-290.06 705.45,-294.94 706.44,-288.02"/>
</a>
</g>
</g>
<!-- Node7 -->
<g id="Node000007" class="node">
<title>Node7</title>
<g id="a_Node000007"><a xlink:title=" ">
<polygon fill="#e0e0e0" stroke="#999999" points="102,-96 0,-96 0,-66 102,-66 102,-96"/>
<text text-anchor="start" x="8" y="-84" font-family="Helvetica,sans-Serif" font-size="10.00">deal.II/distributed</text>
<text text-anchor="middle" x="51" y="-73" font-family="Helvetica,sans-Serif" font-size="10.00">/tria.h</text>
</a>
</g>
</g>
<!-- Node1&#45;&gt;Node7 -->
<g id="edge47_Node000001_Node000007" class="edge">
<title>Node1&#45;&gt;Node7</title>
<g id="a_edge47_Node000001_Node000007"><a xlink:title=" ">
<path fill="none" stroke="#63b8ff" d="M1033.34,-347.58C857.55,-342.64 429.8,-327.48 290,-294 180.22,-267.71 128.23,-260.45 73,-162 63.23,-144.58 57.59,-122.57 54.47,-106.05"/>
<polygon fill="#63b8ff" stroke="#63b8ff" points="57.9,-105.35 52.77,-96.08 51,-106.53 57.9,-105.35"/>
</a>
</g>
</g>
<!-- Node16 -->
<g id="Node000016" class="node">
<title>Node16</title>
<g id="a_Node000016"><a xlink:title=" ">
<polygon fill="#e0e0e0" stroke="#999999" points="1835.5,-90.5 1716.5,-90.5 1716.5,-71.5 1835.5,-71.5 1835.5,-90.5"/>
<text text-anchor="middle" x="1776" y="-78.5" font-family="Helvetica,sans-Serif" font-size="10.00">deal.II/fe/fe_values.h</text>
</a>
</g>
</g>
<!-- Node1&#45;&gt;Node16 -->
<g id="edge49_Node000001_Node000016" class="edge">
<title>Node1&#45;&gt;Node16</title>
<g id="a_edge49_Node000001_Node000016"><a xlink:title=" ">
<path fill="none" stroke="#63b8ff" d="M1108.96,-329.9C1109.04,-310.65 1112.28,-281.67 1129,-264 1171.29,-219.3 1583.16,-124.7 1726.85,-92.78"/>
<polygon fill="#63b8ff" stroke="#63b8ff" points="1727.71,-96.17 1736.72,-90.59 1726.2,-89.34 1727.71,-96.17"/>
</a>
</g>
</g>
<!-- Node26 -->
<g id="Node000026" class="node">
<title>Node26</title>
<g id="a_Node000026"><a xlink:title=" ">
<polygon fill="#e0e0e0" stroke="#999999" points="1063.5,-156.5 970.5,-156.5 970.5,-137.5 1063.5,-137.5 1063.5,-156.5"/>
<text text-anchor="middle" x="1017" y="-144.5" font-family="Helvetica,sans-Serif" font-size="10.00">unordered_map</text>
</a>
</g>
</g>
<!-- Node1&#45;&gt;Node26 -->
<g id="edge52_Node000001_Node000026" class="edge">
<title>Node1&#45;&gt;Node26</title>
<g id="a_edge52_Node000001_Node000026"><a xlink:title=" ">
<path fill="none" stroke="#63b8ff" d="M1100.91,-329.81C1082.87,-290.71 1042.74,-203.78 1025.33,-166.05"/>
<polygon fill="#63b8ff" stroke="#63b8ff" points="1028.43,-164.41 1021.06,-156.8 1022.07,-167.34 1028.43,-164.41"/>
</a>
</g>
</g>
<!-- Node30 -->
<g id="Node000030" class="node">
<title>Node30</title>
<g id="a_Node000030"><a xlink:title=" ">
<polygon fill="#e0e0e0" stroke="#999999" points="1267.5,-294 1138.5,-294 1138.5,-264 1267.5,-264 1267.5,-294"/>
<text text-anchor="start" x="1146.5" y="-282" font-family="Helvetica,sans-Serif" font-size="10.00">deal.II/base/quadrature</text>
<text text-anchor="middle" x="1203" y="-271" font-family="Helvetica,sans-Serif" font-size="10.00">_lib.h</text>
</a>
</g>
</g>
<!-- Node1&#45;&gt;Node30 -->
<g id="edge46_Node000001_Node000030" class="edge">
<title>Node1&#45;&gt;Node30</title>
<g id="a_edge46_Node000001_Node000030"><a xlink:title=" ">
<path fill="none" stroke="#63b8ff" d="M1136.4,-329.77C1148.79,-320.51 1163.54,-309.49 1176.01,-300.17"/>
<polygon fill="#63b8ff" stroke="#63b8ff" points="1178.3,-302.83 1184.22,-294.04 1174.11,-297.22 1178.3,-302.83"/>
</a>
</g>
</g>
<!-- Node31 -->
<g id="Node000031" class="node">
<title>Node31</title>
<g id="a_Node000031"><a xlink:title=" ">
<polygon fill="#e0e0e0" stroke="#999999" points="1378,-288.5 1286,-288.5 1286,-269.5 1378,-269.5 1378,-288.5"/>
<text text-anchor="middle" x="1332" y="-276.5" font-family="Helvetica,sans-Serif" font-size="10.00">deal.II/fe/fe_q.h</text>
</a>
</g>
</g>
<!-- Node1&#45;&gt;Node31 -->
<g id="edge48_Node000001_Node000031" class="edge">
<title>Node1&#45;&gt;Node31</title>
<g id="a_edge48_Node000001_Node000031"><a xlink:title=" ">
<path fill="none" stroke="#63b8ff" d="M1172.43,-329.96C1211.95,-317.58 1261.69,-302.01 1295.04,-291.57"/>
<polygon fill="#63b8ff" stroke="#63b8ff" points="1296.34,-294.83 1304.84,-288.5 1294.25,-288.15 1296.34,-294.83"/>
</a>
</g>
</g>
<!-- Node32 -->
<g id="Node000032" class="node">
<title>Node32</title>
<g id="a_Node000032"><a xlink:title=" ">
<polygon fill="#e0e0e0" stroke="#999999" points="1460,-288.5 1396,-288.5 1396,-269.5 1460,-269.5 1460,-288.5"/>
<text text-anchor="middle" x="1428" y="-276.5" font-family="Helvetica,sans-Serif" font-size="10.00">algorithm</text>
</a>
</g>
</g>
<!-- Node1&#45;&gt;Node32 -->
<g id="edge50_Node000001_Node000032" class="edge">
<title>Node1&#45;&gt;Node32</title>
<g id="a_edge50_Node000001_Node000032"><a xlink:title=" ">
<path fill="none" stroke="#63b8ff" d="M1186.75,-336.92C1242.71,-327.07 1320.11,-312.04 1387,-294 1389.63,-293.29 1392.34,-292.5 1395.05,-291.67"/>
<polygon fill="#63b8ff" stroke="#63b8ff" points="1396.31,-294.94 1404.75,-288.53 1394.16,-288.28 1396.31,-294.94"/>
</a>
</g>
</g>
<!-- Node33 -->
<g id="Node000033" class="node">
<title>Node33</title>
<g id="a_Node000033"><a xlink:title=" ">
<polygon fill="#e0e0e0" stroke="#999999" points="1528,-288.5 1478,-288.5 1478,-269.5 1528,-269.5 1528,-288.5"/>
<text text-anchor="middle" x="1503" y="-276.5" font-family="Helvetica,sans-Serif" font-size="10.00">ranges</text>
</a>
</g>
</g>
<!-- Node1&#45;&gt;Node33 -->
<g id="edge51_Node000001_Node000033" class="edge">
<title>Node1&#45;&gt;Node33</title>
<g id="a_edge51_Node000001_Node000033"><a xlink:title=" ">
<path fill="none" stroke="#63b8ff" d="M1186.75,-342.95C1260.21,-335.45 1373.63,-320.6 1469,-294 1470.94,-293.46 1472.91,-292.84 1474.89,-292.17"/>
<polygon fill="#63b8ff" stroke="#63b8ff" points="1476.45,-295.32 1484.57,-288.52 1473.98,-288.77 1476.45,-295.32"/>
</a>
</g>
</g>
<!-- Node3 -->
<g id="Node000003" class="node">
<title>Node3</title>
<g id="a_Node000003"><a xlink:title=" ">
<polygon fill="#e0e0e0" stroke="#999999" points="420,-90.5 310,-90.5 310,-71.5 420,-71.5 420,-90.5"/>
<text text-anchor="middle" x="365" y="-78.5" font-family="Helvetica,sans-Serif" font-size="10.00">deal.II/base/point.h</text>
</a>
</g>
</g>
<!-- Node2&#45;&gt;Node3 -->
<g id="edge2_Node000002_Node000003" class="edge">
<title>Node2&#45;&gt;Node3</title>
<g id="a_edge2_Node000002_Node000003"><a xlink:title=" ">
<path fill="none" stroke="#63b8ff" d="M262.75,-131.95C285.32,-120.93 316.49,-105.7 338.47,-94.96"/>
<polygon fill="#63b8ff" stroke="#63b8ff" points="340.12,-98.05 347.57,-90.52 337.04,-91.76 340.12,-98.05"/>
</a>
</g>
</g>
<!-- Node4 -->
<g id="Node000004" class="node">
<title>Node4</title>
<g id="a_Node000004"><a xlink:title=" ">
<polygon fill="#e0e0e0" stroke="#999999" points="291.5,-90.5 176.5,-90.5 176.5,-71.5 291.5,-71.5 291.5,-90.5"/>
<text text-anchor="middle" x="234" y="-78.5" font-family="Helvetica,sans-Serif" font-size="10.00">deal.II/base/tensor.h</text>
</a>
</g>
</g>
<!-- Node2&#45;&gt;Node4 -->
<g id="edge3_Node000002_Node000004" class="edge">
<title>Node2&#45;&gt;Node4</title>
<g id="a_edge3_Node000002_Node000004"><a xlink:title=" ">
<path fill="none" stroke="#63b8ff" d="M234,-131.8C234,-122.7 234,-110.79 234,-100.9"/>
<polygon fill="#63b8ff" stroke="#63b8ff" points="237.5,-100.84 234,-90.84 230.5,-100.84 237.5,-100.84"/>
</a>
</g>
</g>
<!-- Node6 -->
<g id="Node000006" class="node">
<title>Node6</title>
<g id="a_Node000006"><a xlink:href="boundary__cells__info__struct_8h.html" target="_top" xlink:title=" ">
<polygon fill="white" stroke="#666666" points="443.5,-162 328.5,-162 328.5,-132 443.5,-132 443.5,-162"/>
<text text-anchor="start" x="336.5" y="-150" font-family="Helvetica,sans-Serif" font-size="10.00">dem/boundary_cells</text>
<text text-anchor="middle" x="386" y="-139" font-family="Helvetica,sans-Serif" font-size="10.00">_info_struct.h</text>
</a>
</g>
</g>
<!-- Node5&#45;&gt;Node6 -->
<g id="edge5_Node000005_Node000006" class="edge">
<title>Node5&#45;&gt;Node6</title>
<g id="a_edge5_Node000005_Node000006"><a xlink:title=" ">
<path fill="none" stroke="#63b8ff" d="M599.86,-263.84C556.49,-240.35 469.63,-193.3 421.01,-166.96"/>
<polygon fill="#63b8ff" stroke="#63b8ff" points="422.57,-163.83 412.11,-162.14 419.23,-169.98 422.57,-163.83"/>
</a>
</g>
</g>
<!-- Node5&#45;&gt;Node7 -->
<g id="edge41_Node000005_Node000007" class="edge">
<title>Node5&#45;&gt;Node7</title>
<g id="a_edge41_Node000005_Node000007"><a xlink:title=" ">
<path fill="none" stroke="#63b8ff" d="M555.58,-273.72C451.71,-266.73 262.8,-251.29 199,-228 148.98,-209.74 135.84,-200.45 99,-162 83.08,-145.38 70.04,-122.56 61.59,-105.54"/>
<polygon fill="#63b8ff" stroke="#63b8ff" points="64.64,-103.8 57.16,-96.29 58.32,-106.82 64.64,-103.8"/>
</a>
</g>
</g>
<!-- Node8 -->
<g id="Node000008" class="node">
<title>Node8</title>
<g id="a_Node000008"><a xlink:href="data__containers_8h.html" target="_top" xlink:title=" ">
<polygon fill="white" stroke="#666666" points="690,-222.5 562,-222.5 562,-203.5 690,-203.5 690,-222.5"/>
<text text-anchor="middle" x="626" y="-210.5" font-family="Helvetica,sans-Serif" font-size="10.00">dem/data_containers.h</text>
</a>
</g>
</g>
<!-- Node5&#45;&gt;Node8 -->
<g id="edge9_Node000005_Node000008" class="edge">
<title>Node5&#45;&gt;Node8</title>
<g id="a_edge9_Node000005_Node000008"><a xlink:title=" ">
<path fill="none" stroke="#63b8ff" d="M626,-263.8C626,-254.7 626,-242.79 626,-232.9"/>
<polygon fill="#63b8ff" stroke="#63b8ff" points="629.5,-232.84 626,-222.84 622.5,-232.84 629.5,-232.84"/>
</a>
</g>
</g>
<!-- Node21 -->
<g id="Node000021" class="node">
<title>Node21</title>
<g id="a_Node000021"><a xlink:title=" ">
<polygon fill="#e0e0e0" stroke="#999999" points="158,-90.5 120,-90.5 120,-71.5 158,-71.5 158,-90.5"/>
<text text-anchor="middle" x="139" y="-78.5" font-family="Helvetica,sans-Serif" font-size="10.00">map</text>
</a>
</g>
</g>
<!-- Node5&#45;&gt;Node21 -->
<g id="edge43_Node000005_Node000021" class="edge">
<title>Node5&#45;&gt;Node21</title>
<g id="a_edge43_Node000005_Node000021"><a xlink:title=" ">
<path fill="none" stroke="#63b8ff" d="M582.07,-263.86C527.57,-246.67 431.63,-217.54 348,-198 260.48,-177.55 210.8,-227.27 149,-162 133.7,-145.84 133.55,-118.89 135.63,-100.79"/>
<polygon fill="#63b8ff" stroke="#63b8ff" points="139.1,-101.25 137.1,-90.84 132.17,-100.22 139.1,-101.25"/>
</a>
</g>
</g>
<!-- Node24 -->
<g id="Node000024" class="node">
<title>Node24</title>
<g id="a_Node000024"><a xlink:title=" ">
<polygon fill="#e0e0e0" stroke="#999999" points="1698.5,-90.5 1651.5,-90.5 1651.5,-71.5 1698.5,-71.5 1698.5,-90.5"/>
<text text-anchor="middle" x="1675" y="-78.5" font-family="Helvetica,sans-Serif" font-size="10.00">vector</text>
</a>
</g>
</g>
<!-- Node5&#45;&gt;Node24 -->
<g id="edge45_Node000005_Node000024" class="edge">
<title>Node5&#45;&gt;Node24</title>
<g id="a_edge45_Node000005_Node000024"><a xlink:title=" ">
<path fill="none" stroke="#63b8ff" d="M696.12,-270.59C755.72,-263.2 843.12,-249.75 917,-228 988.83,-206.85 1006.31,-197.93 1072,-162 1092.77,-150.64 1093.63,-139.74 1116,-132 1337.85,-55.19 1414.98,-151.88 1643,-96 1644.94,-95.52 1646.92,-94.94 1648.88,-94.28"/>
<polygon fill="#63b8ff" stroke="#63b8ff" points="1650.41,-97.44 1658.44,-90.53 1647.85,-90.92 1650.41,-97.44"/>
</a>
</g>
</g>
<!-- Node5&#45;&gt;Node26 -->
<g id="edge44_Node000005_Node000026" class="edge">
<title>Node5&#45;&gt;Node26</title>
<g id="a_edge44_Node000005_Node000026"><a xlink:title=" ">
<path fill="none" stroke="#63b8ff" d="M696.21,-269.51C746.29,-262.08 814.63,-249.09 872,-228 918.79,-210.8 968.72,-180.19 996.07,-162.24"/>
<polygon fill="#63b8ff" stroke="#63b8ff" points="998.05,-165.12 1004.44,-156.67 994.17,-159.29 998.05,-165.12"/>
</a>
</g>
</g>
<!-- Node28 -->
<g id="Node000028" class="node">
<title>Node28</title>
<g id="a_Node000028"><a xlink:href="dem__action__manager_8h.html" target="_top" xlink:title=" ">
<polygon fill="white" stroke="#666666" points="863.5,-222.5 708.5,-222.5 708.5,-203.5 863.5,-203.5 863.5,-222.5"/>
<text text-anchor="middle" x="786" y="-210.5" font-family="Helvetica,sans-Serif" font-size="10.00">dem/dem_action_manager.h</text>
</a>
</g>
</g>
<!-- Node5&#45;&gt;Node28 -->
<g id="edge40_Node000005_Node000028" class="edge">
<title>Node5&#45;&gt;Node28</title>
<g id="a_edge40_Node000005_Node000028"><a xlink:title=" ">
<path fill="none" stroke="#63b8ff" d="M661.11,-263.95C689.3,-252.68 728.47,-237.01 755.39,-226.25"/>
<polygon fill="#63b8ff" stroke="#63b8ff" points="756.72,-229.48 764.71,-222.52 754.12,-222.98 756.72,-229.48"/>
</a>
</g>
</g>
<!-- Node29 -->
<g id="Node000029" class="node">
<title>Node29</title>
<g id="a_Node000029"><a xlink:title=" ">
<polygon fill="#e0e0e0" stroke="#999999" points="339.5,-228 208.5,-228 208.5,-198 339.5,-198 339.5,-228"/>
<text text-anchor="start" x="216.5" y="-216" font-family="Helvetica,sans-Serif" font-size="10.00">deal.II/particles/particle</text>
<text text-anchor="middle" x="274" y="-205" font-family="Helvetica,sans-Serif" font-size="10.00">_handler.h</text>
</a>
</g>
</g>
<!-- Node5&#45;&gt;Node29 -->
<g id="edge42_Node000005_Node000029" class="edge">
<title>Node5&#45;&gt;Node29</title>
<g id="a_edge42_Node000005_Node000029"><a xlink:title=" ">
<path fill="none" stroke="#63b8ff" d="M555.61,-265.2C495.94,-254.35 410.56,-238.83 349.48,-227.72"/>
<polygon fill="#63b8ff" stroke="#63b8ff" points="349.97,-224.26 339.51,-225.91 348.72,-231.14 349.97,-224.26"/>
</a>
</g>
</g>
<!-- Node6&#45;&gt;Node3 -->
<g id="edge6_Node000006_Node000003" class="edge">
<title>Node6&#45;&gt;Node3</title>
<g id="a_edge6_Node000006_Node000003"><a xlink:title=" ">
<path fill="none" stroke="#63b8ff" d="M381.34,-131.8C378.32,-122.6 374.36,-110.53 371.1,-100.58"/>
<polygon fill="#63b8ff" stroke="#63b8ff" points="374.35,-99.25 367.9,-90.84 367.69,-101.44 374.35,-99.25"/>
</a>
</g>
</g>
<!-- Node6&#45;&gt;Node4 -->
<g id="edge7_Node000006_Node000004" class="edge">
<title>Node6&#45;&gt;Node4</title>
<g id="a_edge7_Node000006_Node000004"><a xlink:title=" ">
<path fill="none" stroke="#63b8ff" d="M352.64,-131.95C326.1,-120.78 289.31,-105.29 263.76,-94.53"/>
<polygon fill="#63b8ff" stroke="#63b8ff" points="264.8,-91.17 254.23,-90.52 262.09,-97.62 264.8,-91.17"/>
</a>
</g>
</g>
<!-- Node6&#45;&gt;Node7 -->
<g id="edge8_Node000006_Node000007" class="edge">
<title>Node6&#45;&gt;Node7</title>
<g id="a_edge8_Node000006_Node000007"><a xlink:title=" ">
<path fill="none" stroke="#63b8ff" d="M328.28,-133.81C325.14,-133.19 322.03,-132.58 319,-132 229.91,-114.99 204.61,-114.67 111.82,-96.1"/>
<polygon fill="#63b8ff" stroke="#63b8ff" points="112.51,-92.66 102.02,-94.12 111.13,-99.53 112.51,-92.66"/>
</a>
</g>
</g>
<!-- Node8&#45;&gt;Node4 -->
<g id="edge34_Node000008_Node000004" class="edge">
<title>Node8&#45;&gt;Node4</title>
<g id="a_edge34_Node000008_Node000004"><a xlink:title=" ">
<path fill="none" stroke="#63b8ff" d="M595.1,-203.47C566.97,-195.03 524.79,-180.69 491,-162 471.86,-151.42 471.78,-141.33 452,-132 444.31,-128.37 344.99,-106.28 283.1,-92.7"/>
<polygon fill="#63b8ff" stroke="#63b8ff" points="283.65,-89.24 273.13,-90.52 282.15,-96.08 283.65,-89.24"/>
</a>
</g>
</g>
<!-- Node8&#45;&gt;Node6 -->
<g id="edge29_Node000008_Node000006" class="edge">
<title>Node8&#45;&gt;Node6</title>
<g id="a_edge29_Node000008_Node000006"><a xlink:title=" ">
<path fill="none" stroke="#63b8ff" d="M593.63,-203.37C556.6,-193.49 495.09,-177.09 448.61,-164.7"/>
<polygon fill="#63b8ff" stroke="#63b8ff" points="449.5,-161.31 438.93,-162.12 447.69,-168.07 449.5,-161.31"/>
</a>
</g>
</g>
<!-- Node8&#45;&gt;Node7 -->
<g id="edge35_Node000008_Node000007" class="edge">
<title>Node8&#45;&gt;Node7</title>
<g id="a_edge35_Node000008_Node000007"><a xlink:title=" ">
<path fill="none" stroke="#63b8ff" d="M561.79,-209.81C449.41,-205.22 222.03,-192.41 149,-162 117.64,-148.94 88.39,-122.45 70.16,-103.54"/>
<polygon fill="#63b8ff" stroke="#63b8ff" points="72.67,-101.1 63.27,-96.2 67.57,-105.89 72.67,-101.1"/>
</a>
</g>
</g>
<!-- Node9 -->
<g id="Node000009" class="node">
<title>Node9</title>
<g id="a_Node000009"><a xlink:href="core_2utilities_8h.html" target="_top" xlink:title=" ">
<polygon fill="white" stroke="#666666" points="914,-156.5 828,-156.5 828,-137.5 914,-137.5 914,-156.5"/>
<text text-anchor="middle" x="871" y="-144.5" font-family="Helvetica,sans-Serif" font-size="10.00">core/utilities.h</text>
</a>
</g>
</g>
<!-- Node8&#45;&gt;Node9 -->
<g id="edge10_Node000008_Node000009" class="edge">
<title>Node8&#45;&gt;Node9</title>
<g id="a_edge10_Node000008_Node000009"><a xlink:title=" ">
<path fill="none" stroke="#63b8ff" d="M658.79,-203.44C702.61,-191.99 780.34,-171.68 828.58,-159.08"/>
<polygon fill="#63b8ff" stroke="#63b8ff" points="829.62,-162.43 838.41,-156.51 827.85,-155.66 829.62,-162.43"/>
</a>
</g>
</g>
<!-- Node17 -->
<g id="Node000017" class="node">
<title>Node17</title>
<g id="a_Node000017"><a xlink:title=" ">
<polygon fill="#e0e0e0" stroke="#999999" points="569.5,-96 438.5,-96 438.5,-66 569.5,-66 569.5,-96"/>
<text text-anchor="start" x="446.5" y="-84" font-family="Helvetica,sans-Serif" font-size="10.00">deal.II/particles/particle</text>
<text text-anchor="middle" x="504" y="-73" font-family="Helvetica,sans-Serif" font-size="10.00">_iterator.h</text>
</a>
</g>
</g>
<!-- Node8&#45;&gt;Node17 -->
<g id="edge36_Node000008_Node000017" class="edge">
<title>Node8&#45;&gt;Node17</title>
<g id="a_edge36_Node000008_Node000017"><a xlink:title=" ">
<path fill="none" stroke="#63b8ff" d="M671.36,-203.48C712.24,-194.78 767.89,-180 781,-162 788.85,-151.22 789.56,-142.22 781,-132 753.44,-99.09 638.5,-103.49 580.06,-95.89"/>
<polygon fill="#63b8ff" stroke="#63b8ff" points="580.26,-92.38 569.84,-94.32 579.2,-99.3 580.26,-92.38"/>
</a>
</g>
</g>
<!-- Node8&#45;&gt;Node24 -->
<g id="edge38_Node000008_Node000024" class="edge">
<title>Node8&#45;&gt;Node24</title>
<g id="a_edge38_Node000008_Node000024"><a xlink:title=" ">
<path fill="none" stroke="#63b8ff" d="M669.19,-203.49C678.98,-201.63 689.34,-199.7 699,-198 798.3,-180.5 830.68,-202.55 923,-162 942.7,-153.35 940.87,-139.59 961,-132 1103.01,-78.46 1495.32,-130.98 1643,-96 1644.95,-95.54 1646.92,-94.96 1648.89,-94.31"/>
<polygon fill="#63b8ff" stroke="#63b8ff" points="1650.41,-97.48 1658.45,-90.59 1647.86,-90.96 1650.41,-97.48"/>
</a>
</g>
</g>
<!-- Node25 -->
<g id="Node000025" class="node">
<title>Node25</title>
<g id="a_Node000025"><a xlink:href="contact__info_8h.html" target="_top" xlink:title=" ">
<polygon fill="white" stroke="#666666" points="772,-156.5 662,-156.5 662,-137.5 772,-137.5 772,-156.5"/>
<text text-anchor="middle" x="717" y="-144.5" font-family="Helvetica,sans-Serif" font-size="10.00">dem/contact_info.h</text>
</a>
</g>
</g>
<!-- Node8&#45;&gt;Node25 -->
<g id="edge30_Node000008_Node000025" class="edge">
<title>Node8&#45;&gt;Node25</title>
<g id="a_edge30_Node000008_Node000025"><a xlink:title=" ">
<path fill="none" stroke="#63b8ff" d="M638.27,-203.37C653.06,-192.97 678.15,-175.32 696.03,-162.75"/>
<polygon fill="#63b8ff" stroke="#63b8ff" points="698.46,-165.31 704.63,-156.7 694.44,-159.59 698.46,-165.31"/>
</a>
</g>
</g>
<!-- Node8&#45;&gt;Node26 -->
<g id="edge37_Node000008_Node000026" class="edge">
<title>Node8&#45;&gt;Node26</title>
<g id="a_edge37_Node000008_Node000026"><a xlink:title=" ">
<path fill="none" stroke="#63b8ff" d="M668.4,-203.5C678.41,-201.59 689.07,-199.65 699,-198 812.78,-179.13 842.58,-182.92 956,-162 961.34,-161.01 966.93,-159.88 972.45,-158.69"/>
<polygon fill="#63b8ff" stroke="#63b8ff" points="973.26,-162.1 982.27,-156.52 971.75,-155.26 973.26,-162.1"/>
</a>
</g>
</g>
<!-- Node27 -->
<g id="Node000027" class="node">
<title>Node27</title>
<g id="a_Node000027"><a xlink:href="unordered__dense_8h.html" target="_top" xlink:title=" ">
<polygon fill="white" stroke="#666666" points="643.5,-156.5 500.5,-156.5 500.5,-137.5 643.5,-137.5 643.5,-156.5"/>
<text text-anchor="middle" x="572" y="-144.5" font-family="Helvetica,sans-Serif" font-size="10.00">ankerl/unordered_dense.h</text>
</a>
</g>
</g>
<!-- Node8&#45;&gt;Node27 -->
<g id="edge39_Node000008_Node000027" class="edge">
<title>Node8&#45;&gt;Node27</title>
<g id="a_edge39_Node000008_Node000027"><a xlink:title=" ">
<path fill="none" stroke="#63b8ff" d="M618.72,-203.37C610.39,-193.5 596.56,-177.11 586.11,-164.72"/>
<polygon fill="#63b8ff" stroke="#63b8ff" points="588.64,-162.29 579.51,-156.91 583.29,-166.81 588.64,-162.29"/>
</a>
</g>
</g>
<!-- Node9&#45;&gt;Node3 -->
<g id="edge16_Node000009_Node000003" class="edge">
<title>Node9&#45;&gt;Node3</title>
<g id="a_edge16_Node000009_Node000003"><a xlink:title=" ">
<path fill="none" stroke="#63b8ff" d="M827.58,-138.77C812.82,-136.44 796.21,-133.96 781,-132 625.03,-111.91 584.29,-120.84 429,-96 423.1,-95.06 416.93,-93.91 410.84,-92.68"/>
<polygon fill="#63b8ff" stroke="#63b8ff" points="411.25,-89.19 400.74,-90.57 409.81,-96.05 411.25,-89.19"/>
</a>
</g>
</g>
<!-- Node9&#45;&gt;Node4 -->
<g id="edge18_Node000009_Node000004" class="edge">
<title>Node9&#45;&gt;Node4</title>
<g id="a_edge18_Node000009_Node000004"><a xlink:title=" ">
<path fill="none" stroke="#63b8ff" d="M827.61,-138.54C812.85,-136.19 796.24,-133.75 781,-132 568.47,-107.54 512.83,-125.94 301,-96 294.28,-95.05 287.22,-93.83 280.32,-92.5"/>
<polygon fill="#63b8ff" stroke="#63b8ff" points="280.85,-89.04 270.36,-90.5 279.47,-95.9 280.85,-89.04"/>
</a>
</g>
</g>
<!-- Node10 -->
<g id="Node000010" class="node">
<title>Node10</title>
<g id="a_Node000010"><a xlink:href="output__struct_8h.html" target="_top" xlink:title=" ">
<polygon fill="white" stroke="#666666" points="702,-90.5 588,-90.5 588,-71.5 702,-71.5 702,-90.5"/>
<text text-anchor="middle" x="645" y="-78.5" font-family="Helvetica,sans-Serif" font-size="10.00">core/output_struct.h</text>
</a>
</g>
</g>
<!-- Node9&#45;&gt;Node10 -->
<g id="edge11_Node000009_Node000010" class="edge">
<title>Node9&#45;&gt;Node10</title>
<g id="a_edge11_Node000009_Node000010"><a xlink:title=" ">
<path fill="none" stroke="#63b8ff" d="M840.52,-137.37C800.39,-126 729.74,-106 685.25,-93.4"/>
<polygon fill="#63b8ff" stroke="#63b8ff" points="685.93,-89.95 675.36,-90.6 684.02,-96.69 685.93,-89.95"/>
</a>
</g>
</g>
<!-- Node11 -->
<g id="Node000011" class="node">
<title>Node11</title>
<g id="a_Node000011"><a xlink:title=" ">
<polygon fill="#e0e0e0" stroke="#999999" points="1027.5,-30 926.5,-30 926.5,0 1027.5,0 1027.5,-30"/>
<text text-anchor="start" x="934.5" y="-18" font-family="Helvetica,sans-Serif" font-size="10.00">deal.II/base/table</text>
<text text-anchor="middle" x="977" y="-7" font-family="Helvetica,sans-Serif" font-size="10.00">_handler.h</text>
</a>
</g>
</g>
<!-- Node9&#45;&gt;Node11 -->
<g id="edge17_Node000009_Node000011" class="edge">
<title>Node9&#45;&gt;Node11</title>
<g id="a_edge17_Node000009_Node000011"><a xlink:title=" ">
<path fill="none" stroke="#63b8ff" d="M903.74,-137.43C911.65,-135.51 920.1,-133.57 928,-132 979.82,-121.69 1128.59,-136.09 1163,-96 1202.15,-50.4 1106.04,-30.02 1037.88,-21.52"/>
<polygon fill="#63b8ff" stroke="#63b8ff" points="1037.97,-18.01 1027.63,-20.3 1037.14,-24.96 1037.97,-18.01"/>
</a>
</g>
</g>
<!-- Node13 -->
<g id="Node000013" class="node">
<title>Node13</title>
<g id="a_Node000013"><a xlink:title=" ">
<polygon fill="#e0e0e0" stroke="#999999" points="850,-96 720,-96 720,-66 850,-66 850,-96"/>
<text text-anchor="start" x="728" y="-84" font-family="Helvetica,sans-Serif" font-size="10.00">deal.II/base/conditional</text>
<text text-anchor="middle" x="785" y="-73" font-family="Helvetica,sans-Serif" font-size="10.00">_ostream.h</text>
</a>
</g>
</g>
<!-- Node9&#45;&gt;Node13 -->
<g id="edge14_Node000009_Node000013" class="edge">
<title>Node9&#45;&gt;Node13</title>
<g id="a_edge14_Node000009_Node000013"><a xlink:title=" ">
<path fill="none" stroke="#63b8ff" d="M859.4,-137.37C847.41,-128.44 828.25,-114.19 812.38,-102.38"/>
<polygon fill="#63b8ff" stroke="#63b8ff" points="814.08,-99.28 803.97,-96.12 809.9,-104.89 814.08,-99.28"/>
</a>
</g>
</g>
<!-- Node14 -->
<g id="Node000014" class="node">
<title>Node14</title>
<g id="a_Node000014"><a xlink:title=" ">
<polygon fill="#e0e0e0" stroke="#999999" points="995.5,-96 868.5,-96 868.5,-66 995.5,-66 995.5,-96"/>
<text text-anchor="start" x="876.5" y="-84" font-family="Helvetica,sans-Serif" font-size="10.00">deal.II/base/parameter</text>
<text text-anchor="middle" x="932" y="-73" font-family="Helvetica,sans-Serif" font-size="10.00">_handler.h</text>
</a>
</g>
</g>
<!-- Node9&#45;&gt;Node14 -->
<g id="edge15_Node000009_Node000014" class="edge">
<title>Node9&#45;&gt;Node14</title>
<g id="a_edge15_Node000009_Node000014"><a xlink:title=" ">
<path fill="none" stroke="#63b8ff" d="M879.23,-137.37C887.36,-128.83 900.16,-115.41 911.11,-103.92"/>
<polygon fill="#63b8ff" stroke="#63b8ff" points="913.95,-106.01 918.31,-96.36 908.88,-101.18 913.95,-106.01"/>
</a>
</g>
</g>
<!-- Node15 -->
<g id="Node000015" class="node">
<title>Node15</title>
<g id="a_Node000015"><a xlink:title=" ">
<polygon fill="#e0e0e0" stroke="#999999" points="1154,-90.5 1014,-90.5 1014,-71.5 1154,-71.5 1154,-90.5"/>
<text text-anchor="middle" x="1084" y="-78.5" font-family="Helvetica,sans-Serif" font-size="10.00">deal.II/dofs/dof_handler.h</text>
</a>
</g>
</g>
<!-- Node9&#45;&gt;Node15 -->
<g id="edge19_Node000009_Node000015" class="edge">
<title>Node9&#45;&gt;Node15</title>
<g id="a_edge19_Node000009_Node000015"><a xlink:title=" ">
<path fill="none" stroke="#63b8ff" d="M899.73,-137.37C937.47,-126.03 1003.86,-106.08 1045.8,-93.48"/>
<polygon fill="#63b8ff" stroke="#63b8ff" points="1046.82,-96.83 1055.39,-90.6 1044.81,-90.12 1046.82,-96.83"/>
</a>
</g>
</g>
<!-- Node9&#45;&gt;Node16 -->
<g id="edge20_Node000009_Node000016" class="edge">
<title>Node9&#45;&gt;Node16</title>
<g id="a_edge20_Node000009_Node000016"><a xlink:title=" ">
<path fill="none" stroke="#63b8ff" d="M914.37,-138.3C929.12,-135.94 945.74,-133.55 961,-132 1291.68,-98.41 1378.23,-137.64 1708,-96 1715.15,-95.1 1722.67,-93.85 1730,-92.47"/>
<polygon fill="#63b8ff" stroke="#63b8ff" points="1730.69,-95.9 1739.82,-90.53 1729.34,-89.04 1730.69,-95.9"/>
</a>
</g>
</g>
<!-- Node9&#45;&gt;Node17 -->
<g id="edge21_Node000009_Node000017" class="edge">
<title>Node9&#45;&gt;Node17</title>
<g id="a_edge21_Node000009_Node000017"><a xlink:title=" ">
<path fill="none" stroke="#63b8ff" d="M838.26,-137.43C830.35,-135.51 821.9,-133.57 814,-132 713.51,-112 684.89,-113.58 579.89,-96.11"/>
<polygon fill="#63b8ff" stroke="#63b8ff" points="580.27,-92.62 569.83,-94.41 579.11,-99.52 580.27,-92.62"/>
</a>
</g>
</g>
<!-- Node18 -->
<g id="Node000018" class="node">
<title>Node18</title>
<g id="a_Node000018"><a xlink:title=" ">
<polygon fill="#e0e0e0" stroke="#999999" points="1315.5,-96 1210.5,-96 1210.5,-66 1315.5,-66 1315.5,-96"/>
<text text-anchor="start" x="1218.5" y="-84" font-family="Helvetica,sans-Serif" font-size="10.00">boost/archive/text</text>
<text text-anchor="middle" x="1263" y="-73" font-family="Helvetica,sans-Serif" font-size="10.00">_iarchive.hpp</text>
</a>
</g>
</g>
<!-- Node9&#45;&gt;Node18 -->
<g id="edge22_Node000009_Node000018" class="edge">
<title>Node9&#45;&gt;Node18</title>
<g id="a_edge22_Node000009_Node000018"><a xlink:title=" ">
<path fill="none" stroke="#63b8ff" d="M903.12,-137.47C911.21,-135.5 919.89,-133.54 928,-132 1046.08,-109.63 1077.55,-116.3 1196,-96 1197.46,-95.75 1198.94,-95.49 1200.44,-95.22"/>
<polygon fill="#63b8ff" stroke="#63b8ff" points="1201.21,-98.64 1210.4,-93.37 1199.93,-91.76 1201.21,-98.64"/>
</a>
</g>
</g>
<!-- Node19 -->
<g id="Node000019" class="node">
<title>Node19</title>
<g id="a_Node000019"><a xlink:title=" ">
<polygon fill="#e0e0e0" stroke="#999999" points="1438.5,-96 1333.5,-96 1333.5,-66 1438.5,-66 1438.5,-96"/>
<text text-anchor="start" x="1341.5" y="-84" font-family="Helvetica,sans-Serif" font-size="10.00">boost/archive/text</text>
<text text-anchor="middle" x="1386" y="-73" font-family="Helvetica,sans-Serif" font-size="10.00">_oarchive.hpp</text>
</a>
</g>
</g>
<!-- Node9&#45;&gt;Node19 -->
<g id="edge23_Node000009_Node000019" class="edge">
<title>Node9&#45;&gt;Node19</title>
<g id="a_edge23_Node000009_Node000019"><a xlink:title=" ">
<path fill="none" stroke="#63b8ff" d="M902.18,-137.45C910.52,-135.41 919.56,-133.41 928,-132 1099.07,-103.38 1147.64,-122.77 1323.23,-95.96"/>
<polygon fill="#63b8ff" stroke="#63b8ff" points="1323.98,-99.38 1333.33,-94.39 1322.91,-92.47 1323.98,-99.38"/>
</a>
</g>
</g>
<!-- Node20 -->
<g id="Node000020" class="node">
<title>Node20</title>
<g id="a_Node000020"><a xlink:title=" ">
<polygon fill="#e0e0e0" stroke="#999999" points="1511.5,-90.5 1456.5,-90.5 1456.5,-71.5 1511.5,-71.5 1511.5,-90.5"/>
<text text-anchor="middle" x="1484" y="-78.5" font-family="Helvetica,sans-Serif" font-size="10.00">fstream</text>
</a>
</g>
</g>
<!-- Node9&#45;&gt;Node20 -->
<g id="edge24_Node000009_Node000020" class="edge">
<title>Node9&#45;&gt;Node20</title>
<g id="a_edge24_Node000009_Node000020"><a xlink:title=" ">
<path fill="none" stroke="#63b8ff" d="M901.57,-137.47C910.07,-135.38 919.34,-133.35 928,-132 1156.45,-96.29 1221.13,-145.44 1447,-96 1449.68,-95.41 1452.41,-94.67 1455.13,-93.83"/>
<polygon fill="#63b8ff" stroke="#63b8ff" points="1456.44,-97.09 1464.74,-90.5 1454.14,-90.47 1456.44,-97.09"/>
</a>
</g>
</g>
<!-- Node9&#45;&gt;Node21 -->
<g id="edge25_Node000009_Node000021" class="edge">
<title>Node9&#45;&gt;Node21</title>
<g id="a_edge25_Node000009_Node000021"><a xlink:title=" ">
<path fill="none" stroke="#63b8ff" d="M827.62,-138.39C812.87,-136.03 796.25,-133.63 781,-132 509.19,-102.96 431.09,-166.57 167,-96 165.56,-95.61 164.1,-95.15 162.65,-94.63"/>
<polygon fill="#63b8ff" stroke="#63b8ff" points="163.94,-91.37 153.38,-90.58 161.14,-97.79 163.94,-91.37"/>
</a>
</g>
</g>
<!-- Node22 -->
<g id="Node000022" class="node">
<title>Node22</title>
<g id="a_Node000022"><a xlink:title=" ">
<polygon fill="#e0e0e0" stroke="#999999" points="1574,-90.5 1530,-90.5 1530,-71.5 1574,-71.5 1574,-90.5"/>
<text text-anchor="middle" x="1552" y="-78.5" font-family="Helvetica,sans-Serif" font-size="10.00">string</text>
</a>
</g>
</g>
<!-- Node9&#45;&gt;Node22 -->
<g id="edge26_Node000009_Node000022" class="edge">
<title>Node9&#45;&gt;Node22</title>
<g id="a_edge26_Node000009_Node000022"><a xlink:title=" ">
<path fill="none" stroke="#63b8ff" d="M901.27,-137.49C909.84,-135.37 919.24,-133.33 928,-132 1189.05,-92.35 1264.68,-159.38 1521,-96 1522.73,-95.57 1524.49,-95.05 1526.24,-94.46"/>
<polygon fill="#63b8ff" stroke="#63b8ff" points="1528,-97.52 1535.99,-90.56 1525.4,-91.03 1528,-97.52"/>
</a>
</g>
</g>
<!-- Node23 -->
<g id="Node000023" class="node">
<title>Node23</title>
<g id="a_Node000023"><a xlink:title=" ">
<polygon fill="#e0e0e0" stroke="#999999" points="1633.5,-90.5 1592.5,-90.5 1592.5,-71.5 1633.5,-71.5 1633.5,-90.5"/>
<text text-anchor="middle" x="1613" y="-78.5" font-family="Helvetica,sans-Serif" font-size="10.00">tuple</text>
</a>
</g>
</g>
<!-- Node9&#45;&gt;Node23 -->
<g id="edge27_Node000009_Node000023" class="edge">
<title>Node9&#45;&gt;Node23</title>
<g id="a_edge27_Node000009_Node000023"><a xlink:title=" ">
<path fill="none" stroke="#63b8ff" d="M901.26,-137.46C909.84,-135.34 919.23,-133.31 928,-132 1216.37,-89.04 1300.21,-166.93 1583,-96 1584.69,-95.58 1586.39,-95.06 1588.09,-94.47"/>
<polygon fill="#63b8ff" stroke="#63b8ff" points="1589.62,-97.63 1597.54,-90.58 1586.96,-91.16 1589.62,-97.63"/>
</a>
</g>
</g>
<!-- Node9&#45;&gt;Node24 -->
<g id="edge28_Node000009_Node000024" class="edge">
<title>Node9&#45;&gt;Node24</title>
<g id="a_edge28_Node000009_Node000024"><a xlink:title=" ">
<path fill="none" stroke="#63b8ff" d="M901.26,-137.43C909.84,-135.31 919.23,-133.29 928,-132 1242.81,-85.84 1333.3,-168.96 1643,-96 1644.95,-95.54 1646.93,-94.97 1648.89,-94.32"/>
<polygon fill="#63b8ff" stroke="#63b8ff" points="1650.41,-97.48 1658.45,-90.59 1647.87,-90.96 1650.41,-97.48"/>
</a>
</g>
</g>
<!-- Node10&#45;&gt;Node11 -->
<g id="edge12_Node000010_Node000011" class="edge">
<title>Node10&#45;&gt;Node11</title>
<g id="a_edge12_Node000010_Node000011"><a xlink:title=" ">
<path fill="none" stroke="#63b8ff" d="M684.41,-71.48C693.15,-69.64 702.39,-67.72 711,-66 781.34,-51.93 862.38,-36.86 916.35,-26.99"/>
<polygon fill="#63b8ff" stroke="#63b8ff" points="917.23,-30.38 926.43,-25.14 915.97,-23.5 917.23,-30.38"/>
</a>
</g>
</g>
<!-- Node12 -->
<g id="Node000012" class="node">
<title>Node12</title>
<g id="a_Node000012"><a xlink:title=" ">
<polygon fill="#e0e0e0" stroke="#999999" points="704.5,-30 585.5,-30 585.5,0 704.5,0 704.5,-30"/>
<text text-anchor="start" x="593.5" y="-18" font-family="Helvetica,sans-Serif" font-size="10.00">deal.II/numerics/data</text>
<text text-anchor="middle" x="645" y="-7" font-family="Helvetica,sans-Serif" font-size="10.00">_postprocessor.h</text>
</a>
</g>
</g>
<!-- Node10&#45;&gt;Node12 -->
<g id="edge13_Node000010_Node000012" class="edge">
<title>Node10&#45;&gt;Node12</title>
<g id="a_edge13_Node000010_Node000012"><a xlink:title=" ">
<path fill="none" stroke="#63b8ff" d="M645,-71.37C645,-63.49 645,-51.45 645,-40.6"/>
<polygon fill="#63b8ff" stroke="#63b8ff" points="648.5,-40.36 645,-30.36 641.5,-40.36 648.5,-40.36"/>
</a>
</g>
</g>
<!-- Node25&#45;&gt;Node3 -->
<g id="edge31_Node000025_Node000003" class="edge">
<title>Node25&#45;&gt;Node3</title>
<g id="a_edge31_Node000025_Node000003"><a xlink:title=" ">
<path fill="none" stroke="#63b8ff" d="M678.92,-137.45C670.1,-135.57 660.74,-133.64 652,-132 553.34,-113.42 527.63,-114.73 429,-96 423.62,-94.98 418.01,-93.85 412.43,-92.68"/>
<polygon fill="#63b8ff" stroke="#63b8ff" points="413,-89.23 402.49,-90.57 411.54,-96.07 413,-89.23"/>
</a>
</g>
</g>
<!-- Node25&#45;&gt;Node4 -->
<g id="edge32_Node000025_Node000004" class="edge">
<title>Node25&#45;&gt;Node4</title>
<g id="a_edge32_Node000025_Node000004"><a xlink:title=" ">
<path fill="none" stroke="#63b8ff" d="M680.69,-137.44C671.38,-135.45 661.35,-133.48 652,-132 497.11,-107.45 455.96,-120.07 301,-96 294.68,-95.02 288.06,-93.83 281.54,-92.57"/>
<polygon fill="#63b8ff" stroke="#63b8ff" points="281.93,-89.08 271.44,-90.54 280.55,-95.94 281.93,-89.08"/>
</a>
</g>
</g>
<!-- Node25&#45;&gt;Node17 -->
<g id="edge33_Node000025_Node000017" class="edge">
<title>Node25&#45;&gt;Node17</title>
<g id="a_edge33_Node000025_Node000017"><a xlink:title=" ">
<path fill="none" stroke="#63b8ff" d="M688.27,-137.37C655.68,-127.58 601.73,-111.37 560.6,-99.01"/>
<polygon fill="#63b8ff" stroke="#63b8ff" points="561.56,-95.64 550.98,-96.12 559.55,-102.35 561.56,-95.64"/>
</a>
</g>
</g>
</g>
</svg>
