<?xml version="1.0" encoding="UTF-8" standalone="no"?>
<!DOCTYPE svg PUBLIC "-//W3C//DTD SVG 1.1//EN"
 "http://www.w3.org/Graphics/SVG/1.1/DTD/svg11.dtd">
<!-- Generated by graphviz version 2.43.0 (0)
 -->
<!-- Title: /home/runner/work/lethe/lethe/include/dem/periodic_boundaries_manipulator.h Pages: 1 -->
<svg width="2035pt" height="313pt"
 viewBox="0.00 0.00 2034.50 313.00" xmlns="http://www.w3.org/2000/svg" xmlns:xlink="http://www.w3.org/1999/xlink">
<g id="graph0" class="graph" transform="scale(1 1) rotate(0) translate(4 309)">
<title>/home/runner/work/lethe/lethe/include/dem/periodic_boundaries_manipulator.h</title>
<!-- Node1 -->
<g id="Node000001" class="node">
<title>Node1</title>
<g id="a_Node000001"><a xlink:title=" ">
<polygon fill="#999999" stroke="#666666" points="1352.5,-305 1203.5,-305 1203.5,-264 1352.5,-264 1352.5,-305"/>
<text text-anchor="start" x="1211.5" y="-293" font-family="Helvetica,sans-Serif" font-size="10.00">/home/runner/work/lethe</text>
<text text-anchor="start" x="1211.5" y="-282" font-family="Helvetica,sans-Serif" font-size="10.00">/lethe/include/dem/periodic</text>
<text text-anchor="middle" x="1278" y="-271" font-family="Helvetica,sans-Serif" font-size="10.00">_boundaries_manipulator.h</text>
</a>
</g>
</g>
<!-- Node2 -->
<g id="Node000002" class="node">
<title>Node2</title>
<g id="a_Node000002"><a xlink:href="boundary__cells__info__struct_8h.html" target="_top" xlink:title=" ">
<polygon fill="white" stroke="#666666" points="336.5,-162 221.5,-162 221.5,-132 336.5,-132 336.5,-162"/>
<text text-anchor="start" x="229.5" y="-150" font-family="Helvetica,sans-Serif" font-size="10.00">dem/boundary_cells</text>
<text text-anchor="middle" x="279" y="-139" font-family="Helvetica,sans-Serif" font-size="10.00">_info_struct.h</text>
</a>
</g>
</g>
<!-- Node1&#45;&gt;Node2 -->
<g id="edge1_Node000001_Node000002" class="edge">
<title>Node1&#45;&gt;Node2</title>
<g id="a_edge1_Node000001_Node000002"><a xlink:title=" ">
<path fill="none" stroke="#63b8ff" d="M1203.44,-276.82C1045.8,-262.05 667.17,-223.15 346.67,-163.05"/>
<polygon fill="#63b8ff" stroke="#63b8ff" points="347.2,-159.59 336.73,-161.17 345.9,-166.47 347.2,-159.59"/>
</a>
</g>
</g>
<!-- Node5 -->
<g id="Node000005" class="node">
<title>Node5</title>
<g id="a_Node000005"><a xlink:title=" ">
<polygon fill="#e0e0e0" stroke="#999999" points="102,-96 0,-96 0,-66 102,-66 102,-96"/>
<text text-anchor="start" x="8" y="-84" font-family="Helvetica,sans-Serif" font-size="10.00">deal.II/distributed</text>
<text text-anchor="middle" x="51" y="-73" font-family="Helvetica,sans-Serif" font-size="10.00">/tria.h</text>
</a>
</g>
</g>
<!-- Node1&#45;&gt;Node5 -->
<g id="edge39_Node000001_Node000005" class="edge">
<title>Node1&#45;&gt;Node5</title>
<g id="a_edge39_Node000001_Node000005"><a xlink:title=" ">
<path fill="none" stroke="#63b8ff" d="M1203.17,-282.18C980.25,-277.23 324.33,-254.93 135,-162 107.56,-148.53 83.14,-122.92 67.79,-104.29"/>
<polygon fill="#63b8ff" stroke="#63b8ff" points="70.38,-101.92 61.4,-96.29 64.91,-106.29 70.38,-101.92"/>
</a>
</g>
</g>
<!-- Node6 -->
<g id="Node000006" class="node">
<title>Node6</title>
<g id="a_Node000006"><a xlink:href="data__containers_8h.html" target="_top" xlink:title=" ">
<polygon fill="white" stroke="#666666" points="907,-222.5 779,-222.5 779,-203.5 907,-203.5 907,-222.5"/>
<text text-anchor="middle" x="843" y="-210.5" font-family="Helvetica,sans-Serif" font-size="10.00">dem/data_containers.h</text>
</a>
</g>
</g>
<!-- Node1&#45;&gt;Node6 -->
<g id="edge5_Node000001_Node000006" class="edge">
<title>Node1&#45;&gt;Node6</title>
<g id="a_edge5_Node000001_Node000006"><a xlink:title=" ">
<path fill="none" stroke="#63b8ff" d="M1203.22,-271.55C1119.53,-258.18 985.36,-236.74 906.54,-224.15"/>
<polygon fill="#63b8ff" stroke="#63b8ff" points="906.7,-220.63 896.27,-222.51 905.59,-227.55 906.7,-220.63"/>
</a>
</g>
</g>
<!-- Node24 -->
<g id="Node000024" class="node">
<title>Node24</title>
<g id="a_Node000024"><a xlink:title=" ">
<polygon fill="#e0e0e0" stroke="#999999" points="2026.5,-90.5 1979.5,-90.5 1979.5,-71.5 2026.5,-71.5 2026.5,-90.5"/>
<text text-anchor="middle" x="2003" y="-78.5" font-family="Helvetica,sans-Serif" font-size="10.00">vector</text>
</a>
</g>
</g>
<!-- Node1&#45;&gt;Node24 -->
<g id="edge42_Node000001_Node000024" class="edge">
<title>Node1&#45;&gt;Node24</title>
<g id="a_edge42_Node000001_Node000024"><a xlink:title=" ">
<path fill="none" stroke="#63b8ff" d="M1293.72,-263.72C1310.77,-243.74 1339.87,-213.66 1372,-198 1614.36,-79.87 1711.27,-171.83 1970,-96 1971.68,-95.51 1973.4,-94.95 1975.11,-94.36"/>
<polygon fill="#63b8ff" stroke="#63b8ff" points="1976.71,-97.49 1984.78,-90.62 1974.19,-90.96 1976.71,-97.49"/>
</a>
</g>
</g>
<!-- Node26 -->
<g id="Node000026" class="node">
<title>Node26</title>
<g id="a_Node000026"><a xlink:title=" ">
<polygon fill="#e0e0e0" stroke="#999999" points="1324.5,-156.5 1231.5,-156.5 1231.5,-137.5 1324.5,-137.5 1324.5,-156.5"/>
<text text-anchor="middle" x="1278" y="-144.5" font-family="Helvetica,sans-Serif" font-size="10.00">unordered_map</text>
</a>
</g>
</g>
<!-- Node1&#45;&gt;Node26 -->
<g id="edge41_Node000001_Node000026" class="edge">
<title>Node1&#45;&gt;Node26</title>
<g id="a_edge41_Node000001_Node000026"><a xlink:title=" ">
<path fill="none" stroke="#63b8ff" d="M1278,-263.8C1278,-237.83 1278,-192.45 1278,-166.89"/>
<polygon fill="#63b8ff" stroke="#63b8ff" points="1281.5,-166.69 1278,-156.69 1274.5,-166.69 1281.5,-166.69"/>
</a>
</g>
</g>
<!-- Node28 -->
<g id="Node000028" class="node">
<title>Node28</title>
<g id="a_Node000028"><a xlink:href="dem__action__manager_8h.html" target="_top" xlink:title=" ">
<polygon fill="white" stroke="#666666" points="1536.5,-222.5 1381.5,-222.5 1381.5,-203.5 1536.5,-203.5 1536.5,-222.5"/>
<text text-anchor="middle" x="1459" y="-210.5" font-family="Helvetica,sans-Serif" font-size="10.00">dem/dem_action_manager.h</text>
</a>
</g>
</g>
<!-- Node1&#45;&gt;Node28 -->
<g id="edge38_Node000001_Node000028" class="edge">
<title>Node1&#45;&gt;Node28</title>
<g id="a_edge38_Node000001_Node000028"><a xlink:title=" ">
<path fill="none" stroke="#63b8ff" d="M1328.9,-263.96C1360.56,-251.8 1400.28,-236.55 1427.45,-226.11"/>
<polygon fill="#63b8ff" stroke="#63b8ff" points="1428.77,-229.36 1436.85,-222.5 1426.26,-222.82 1428.77,-229.36"/>
</a>
</g>
</g>
<!-- Node29 -->
<g id="Node000029" class="node">
<title>Node29</title>
<g id="a_Node000029"><a xlink:title=" ">
<polygon fill="#e0e0e0" stroke="#999999" points="1685.5,-228 1554.5,-228 1554.5,-198 1685.5,-198 1685.5,-228"/>
<text text-anchor="start" x="1562.5" y="-216" font-family="Helvetica,sans-Serif" font-size="10.00">deal.II/particles/particle</text>
<text text-anchor="middle" x="1620" y="-205" font-family="Helvetica,sans-Serif" font-size="10.00">_handler.h</text>
</a>
</g>
</g>
<!-- Node1&#45;&gt;Node29 -->
<g id="edge40_Node000001_Node000029" class="edge">
<title>Node1&#45;&gt;Node29</title>
<g id="a_edge40_Node000001_Node000029"><a xlink:title=" ">
<path fill="none" stroke="#63b8ff" d="M1352.63,-268.33C1409.46,-256.79 1487.37,-240.95 1544.43,-229.36"/>
<polygon fill="#63b8ff" stroke="#63b8ff" points="1545.37,-232.74 1554.47,-227.32 1543.98,-225.88 1545.37,-232.74"/>
</a>
</g>
</g>
<!-- Node3 -->
<g id="Node000003" class="node">
<title>Node3</title>
<g id="a_Node000003"><a xlink:title=" ">
<polygon fill="#e0e0e0" stroke="#999999" points="364,-90.5 254,-90.5 254,-71.5 364,-71.5 364,-90.5"/>
<text text-anchor="middle" x="309" y="-78.5" font-family="Helvetica,sans-Serif" font-size="10.00">deal.II/base/point.h</text>
</a>
</g>
</g>
<!-- Node2&#45;&gt;Node3 -->
<g id="edge2_Node000002_Node000003" class="edge">
<title>Node2&#45;&gt;Node3</title>
<g id="a_edge2_Node000002_Node000003"><a xlink:title=" ">
<path fill="none" stroke="#63b8ff" d="M285.66,-131.8C290.06,-122.41 295.87,-110.02 300.59,-99.95"/>
<polygon fill="#63b8ff" stroke="#63b8ff" points="303.78,-101.38 304.85,-90.84 297.44,-98.41 303.78,-101.38"/>
</a>
</g>
</g>
<!-- Node4 -->
<g id="Node000004" class="node">
<title>Node4</title>
<g id="a_Node000004"><a xlink:title=" ">
<polygon fill="#e0e0e0" stroke="#999999" points="235.5,-90.5 120.5,-90.5 120.5,-71.5 235.5,-71.5 235.5,-90.5"/>
<text text-anchor="middle" x="178" y="-78.5" font-family="Helvetica,sans-Serif" font-size="10.00">deal.II/base/tensor.h</text>
</a>
</g>
</g>
<!-- Node2&#45;&gt;Node4 -->
<g id="edge3_Node000002_Node000004" class="edge">
<title>Node2&#45;&gt;Node4</title>
<g id="a_edge3_Node000002_Node000004"><a xlink:title=" ">
<path fill="none" stroke="#63b8ff" d="M256.58,-131.8C239.81,-121.17 216.99,-106.7 200.25,-96.1"/>
<polygon fill="#63b8ff" stroke="#63b8ff" points="201.98,-93.05 191.66,-90.66 198.24,-98.97 201.98,-93.05"/>
</a>
</g>
</g>
<!-- Node2&#45;&gt;Node5 -->
<g id="edge4_Node000002_Node000005" class="edge">
<title>Node2&#45;&gt;Node5</title>
<g id="a_edge4_Node000002_Node000005"><a xlink:title=" ">
<path fill="none" stroke="#63b8ff" d="M228.96,-131.95C194.22,-122.2 147.75,-109.16 111.01,-98.84"/>
<polygon fill="#63b8ff" stroke="#63b8ff" points="111.49,-95.35 100.92,-96.01 109.6,-102.08 111.49,-95.35"/>
</a>
</g>
</g>
<!-- Node6&#45;&gt;Node2 -->
<g id="edge27_Node000006_Node000002" class="edge">
<title>Node6&#45;&gt;Node2</title>
<g id="a_edge27_Node000006_Node000002"><a xlink:title=" ">
<path fill="none" stroke="#63b8ff" d="M778.69,-207.34C684.51,-200.09 503.67,-184.55 351,-162 349.54,-161.78 348.07,-161.56 346.59,-161.33"/>
<polygon fill="#63b8ff" stroke="#63b8ff" points="347.13,-157.87 336.69,-159.7 345.99,-164.78 347.13,-157.87"/>
</a>
</g>
</g>
<!-- Node6&#45;&gt;Node4 -->
<g id="edge32_Node000006_Node000004" class="edge">
<title>Node6&#45;&gt;Node4</title>
<g id="a_edge32_Node000006_Node000004"><a xlink:title=" ">
<path fill="none" stroke="#63b8ff" d="M778.72,-209.28C669.83,-203.96 454.1,-190.17 384,-162 363.71,-153.85 364.46,-141.97 345,-132 309.24,-113.68 265.65,-100.92 231.98,-92.87"/>
<polygon fill="#63b8ff" stroke="#63b8ff" points="232.4,-89.38 221.86,-90.52 230.81,-96.19 232.4,-89.38"/>
</a>
</g>
</g>
<!-- Node6&#45;&gt;Node5 -->
<g id="edge33_Node000006_Node000005" class="edge">
<title>Node6&#45;&gt;Node5</title>
<g id="a_edge33_Node000006_Node000005"><a xlink:title=" ">
<path fill="none" stroke="#63b8ff" d="M778.76,-210.01C640.22,-205.21 317.38,-191.18 212,-162 163.68,-148.62 112.6,-120.53 81.26,-101.46"/>
<polygon fill="#63b8ff" stroke="#63b8ff" points="82.92,-98.38 72.58,-96.1 79.25,-104.33 82.92,-98.38"/>
</a>
</g>
</g>
<!-- Node7 -->
<g id="Node000007" class="node">
<title>Node7</title>
<g id="a_Node000007"><a xlink:href="core_2utilities_8h.html" target="_top" xlink:title=" ">
<polygon fill="white" stroke="#666666" points="1013,-156.5 927,-156.5 927,-137.5 1013,-137.5 1013,-156.5"/>
<text text-anchor="middle" x="970" y="-144.5" font-family="Helvetica,sans-Serif" font-size="10.00">core/utilities.h</text>
</a>
</g>
</g>
<!-- Node6&#45;&gt;Node7 -->
<g id="edge6_Node000006_Node000007" class="edge">
<title>Node6&#45;&gt;Node7</title>
<g id="a_edge6_Node000006_Node000007"><a xlink:title=" ">
<path fill="none" stroke="#63b8ff" d="M860.13,-203.37C881.62,-192.54 918.7,-173.85 943.77,-161.22"/>
<polygon fill="#63b8ff" stroke="#63b8ff" points="945.38,-164.32 952.74,-156.7 942.23,-158.07 945.38,-164.32"/>
</a>
</g>
</g>
<!-- Node15 -->
<g id="Node000015" class="node">
<title>Node15</title>
<g id="a_Node000015"><a xlink:title=" ">
<polygon fill="#e0e0e0" stroke="#999999" points="513.5,-96 382.5,-96 382.5,-66 513.5,-66 513.5,-96"/>
<text text-anchor="start" x="390.5" y="-84" font-family="Helvetica,sans-Serif" font-size="10.00">deal.II/particles/particle</text>
<text text-anchor="middle" x="448" y="-73" font-family="Helvetica,sans-Serif" font-size="10.00">_iterator.h</text>
</a>
</g>
</g>
<!-- Node6&#45;&gt;Node15 -->
<g id="edge34_Node000006_Node000015" class="edge">
<title>Node6&#45;&gt;Node15</title>
<g id="a_edge34_Node000006_Node000015"><a xlink:title=" ">
<path fill="none" stroke="#63b8ff" d="M817.08,-203.47C752.96,-182.37 585.9,-127.38 500.27,-99.2"/>
<polygon fill="#63b8ff" stroke="#63b8ff" points="501.33,-95.87 490.74,-96.07 499.15,-102.52 501.33,-95.87"/>
</a>
</g>
</g>
<!-- Node6&#45;&gt;Node24 -->
<g id="edge36_Node000006_Node000024" class="edge">
<title>Node6&#45;&gt;Node24</title>
<g id="a_edge36_Node000006_Node000024"><a xlink:title=" ">
<path fill="none" stroke="#63b8ff" d="M907.3,-212.09C977.67,-210.05 1092.5,-200.35 1183,-162 1203.13,-153.47 1201.47,-139.54 1222,-132 1378.22,-74.64 1807.77,-133.07 1970,-96 1972.17,-95.5 1974.38,-94.87 1976.57,-94.16"/>
<polygon fill="#63b8ff" stroke="#63b8ff" points="1977.81,-97.43 1985.92,-90.6 1975.32,-90.88 1977.81,-97.43"/>
</a>
</g>
</g>
<!-- Node25 -->
<g id="Node000025" class="node">
<title>Node25</title>
<g id="a_Node000025"><a xlink:href="contact__info_8h.html" target="_top" xlink:title=" ">
<polygon fill="white" stroke="#666666" points="503,-156.5 393,-156.5 393,-137.5 503,-137.5 503,-156.5"/>
<text text-anchor="middle" x="448" y="-144.5" font-family="Helvetica,sans-Serif" font-size="10.00">dem/contact_info.h</text>
</a>
</g>
</g>
<!-- Node6&#45;&gt;Node25 -->
<g id="edge28_Node000006_Node000025" class="edge">
<title>Node6&#45;&gt;Node25</title>
<g id="a_edge28_Node000006_Node000025"><a xlink:title=" ">
<path fill="none" stroke="#63b8ff" d="M790.14,-203.44C717.71,-191.7 587.83,-170.66 510.62,-158.15"/>
<polygon fill="#63b8ff" stroke="#63b8ff" points="510.98,-154.66 500.55,-156.51 509.86,-161.57 510.98,-154.66"/>
</a>
</g>
</g>
<!-- Node6&#45;&gt;Node26 -->
<g id="edge35_Node000006_Node000026" class="edge">
<title>Node6&#45;&gt;Node26</title>
<g id="a_edge35_Node000006_Node000026"><a xlink:title=" ">
<path fill="none" stroke="#63b8ff" d="M907.14,-205.26C981.86,-196.98 1108.87,-181.59 1217,-162 1222.35,-161.03 1227.93,-159.91 1233.46,-158.72"/>
<polygon fill="#63b8ff" stroke="#63b8ff" points="1234.27,-162.13 1243.28,-156.56 1232.76,-155.3 1234.27,-162.13"/>
</a>
</g>
</g>
<!-- Node27 -->
<g id="Node000027" class="node">
<title>Node27</title>
<g id="a_Node000027"><a xlink:href="unordered__dense_8h.html" target="_top" xlink:title=" ">
<polygon fill="white" stroke="#666666" points="1174.5,-156.5 1031.5,-156.5 1031.5,-137.5 1174.5,-137.5 1174.5,-156.5"/>
<text text-anchor="middle" x="1103" y="-144.5" font-family="Helvetica,sans-Serif" font-size="10.00">ankerl/unordered_dense.h</text>
</a>
</g>
</g>
<!-- Node6&#45;&gt;Node27 -->
<g id="edge37_Node000006_Node000027" class="edge">
<title>Node6&#45;&gt;Node27</title>
<g id="a_edge37_Node000006_Node000027"><a xlink:title=" ">
<path fill="none" stroke="#63b8ff" d="M877.79,-203.44C924.5,-191.94 1007.48,-171.51 1058.63,-158.92"/>
<polygon fill="#63b8ff" stroke="#63b8ff" points="1059.54,-162.3 1068.41,-156.51 1057.86,-155.51 1059.54,-162.3"/>
</a>
</g>
</g>
<!-- Node7&#45;&gt;Node3 -->
<g id="edge12_Node000007_Node000003" class="edge">
<title>Node7&#45;&gt;Node3</title>
<g id="a_edge12_Node000007_Node000003"><a xlink:title=" ">
<path fill="none" stroke="#63b8ff" d="M926.7,-144.33C827.99,-140.1 578.96,-127.01 373,-96 366.8,-95.07 360.3,-93.89 353.92,-92.61"/>
<polygon fill="#63b8ff" stroke="#63b8ff" points="354.56,-89.17 344.06,-90.54 353.13,-96.02 354.56,-89.17"/>
</a>
</g>
</g>
<!-- Node7&#45;&gt;Node4 -->
<g id="edge14_Node000007_Node000004" class="edge">
<title>Node7&#45;&gt;Node4</title>
<g id="a_edge14_Node000007_Node000004"><a xlink:title=" ">
<path fill="none" stroke="#63b8ff" d="M926.89,-145.09C814.26,-142.26 502.14,-131.56 245,-96 238.28,-95.07 231.22,-93.86 224.31,-92.54"/>
<polygon fill="#63b8ff" stroke="#63b8ff" points="224.85,-89.07 214.35,-90.54 223.47,-95.94 224.85,-89.07"/>
</a>
</g>
</g>
<!-- Node8 -->
<g id="Node000008" class="node">
<title>Node8</title>
<g id="a_Node000008"><a xlink:href="output__struct_8h.html" target="_top" xlink:title=" ">
<polygon fill="white" stroke="#666666" points="1509,-90.5 1395,-90.5 1395,-71.5 1509,-71.5 1509,-90.5"/>
<text text-anchor="middle" x="1452" y="-78.5" font-family="Helvetica,sans-Serif" font-size="10.00">core/output_struct.h</text>
</a>
</g>
</g>
<!-- Node7&#45;&gt;Node8 -->
<g id="edge7_Node000007_Node000008" class="edge">
<title>Node7&#45;&gt;Node8</title>
<g id="a_edge7_Node000007_Node000008"><a xlink:title=" ">
<path fill="none" stroke="#63b8ff" d="M998.42,-137.45C1006.02,-135.41 1014.28,-133.42 1022,-132 1179.72,-103.06 1222.38,-119.54 1381,-96 1387.85,-94.98 1395.04,-93.76 1402.1,-92.46"/>
<polygon fill="#63b8ff" stroke="#63b8ff" points="1403.14,-95.82 1412.31,-90.52 1401.83,-88.94 1403.14,-95.82"/>
</a>
</g>
</g>
<!-- Node9 -->
<g id="Node000009" class="node">
<title>Node9</title>
<g id="a_Node000009"><a xlink:title=" ">
<polygon fill="#e0e0e0" stroke="#999999" points="1417.5,-30 1316.5,-30 1316.5,0 1417.5,0 1417.5,-30"/>
<text text-anchor="start" x="1324.5" y="-18" font-family="Helvetica,sans-Serif" font-size="10.00">deal.II/base/table</text>
<text text-anchor="middle" x="1367" y="-7" font-family="Helvetica,sans-Serif" font-size="10.00">_handler.h</text>
</a>
</g>
</g>
<!-- Node7&#45;&gt;Node9 -->
<g id="edge13_Node000007_Node000009" class="edge">
<title>Node7&#45;&gt;Node9</title>
<g id="a_edge13_Node000007_Node000009"><a xlink:title=" ">
<path fill="none" stroke="#63b8ff" d="M998.7,-137.43C1006.23,-135.42 1014.37,-133.44 1022,-132 1093.4,-118.52 1292.28,-143.81 1347,-96 1362.7,-82.29 1367.01,-58.29 1367.81,-40.15"/>
<polygon fill="#63b8ff" stroke="#63b8ff" points="1371.31,-40.05 1367.93,-30.01 1364.31,-39.97 1371.31,-40.05"/>
</a>
</g>
</g>
<!-- Node11 -->
<g id="Node000011" class="node">
<title>Node11</title>
<g id="a_Node000011"><a xlink:title=" ">
<polygon fill="#e0e0e0" stroke="#999999" points="1657,-96 1527,-96 1527,-66 1657,-66 1657,-96"/>
<text text-anchor="start" x="1535" y="-84" font-family="Helvetica,sans-Serif" font-size="10.00">deal.II/base/conditional</text>
<text text-anchor="middle" x="1592" y="-73" font-family="Helvetica,sans-Serif" font-size="10.00">_ostream.h</text>
</a>
</g>
</g>
<!-- Node7&#45;&gt;Node11 -->
<g id="edge10_Node000007_Node000011" class="edge">
<title>Node7&#45;&gt;Node11</title>
<g id="a_edge10_Node000007_Node000011"><a xlink:title=" ">
<path fill="none" stroke="#63b8ff" d="M997.85,-137.45C1005.6,-135.36 1014.07,-133.34 1022,-132 1236.62,-95.66 1297.01,-123.71 1516.46,-96.09"/>
<polygon fill="#63b8ff" stroke="#63b8ff" points="1517.22,-99.52 1526.7,-94.77 1516.33,-92.58 1517.22,-99.52"/>
</a>
</g>
</g>
<!-- Node12 -->
<g id="Node000012" class="node">
<title>Node12</title>
<g id="a_Node000012"><a xlink:title=" ">
<polygon fill="#e0e0e0" stroke="#999999" points="1802.5,-96 1675.5,-96 1675.5,-66 1802.5,-66 1802.5,-96"/>
<text text-anchor="start" x="1683.5" y="-84" font-family="Helvetica,sans-Serif" font-size="10.00">deal.II/base/parameter</text>
<text text-anchor="middle" x="1739" y="-73" font-family="Helvetica,sans-Serif" font-size="10.00">_handler.h</text>
</a>
</g>
</g>
<!-- Node7&#45;&gt;Node12 -->
<g id="edge11_Node000007_Node000012" class="edge">
<title>Node7&#45;&gt;Node12</title>
<g id="a_edge11_Node000007_Node000012"><a xlink:title=" ">
<path fill="none" stroke="#63b8ff" d="M997.57,-137.44C1005.39,-135.32 1013.97,-133.29 1022,-132 1301.72,-87.03 1379.66,-130.04 1665.13,-95.97"/>
<polygon fill="#63b8ff" stroke="#63b8ff" points="1665.87,-99.4 1675.38,-94.72 1665.03,-92.45 1665.87,-99.4"/>
</a>
</g>
</g>
<!-- Node13 -->
<g id="Node000013" class="node">
<title>Node13</title>
<g id="a_Node000013"><a xlink:title=" ">
<polygon fill="#e0e0e0" stroke="#999999" points="1961,-90.5 1821,-90.5 1821,-71.5 1961,-71.5 1961,-90.5"/>
<text text-anchor="middle" x="1891" y="-78.5" font-family="Helvetica,sans-Serif" font-size="10.00">deal.II/dofs/dof_handler.h</text>
</a>
</g>
</g>
<!-- Node7&#45;&gt;Node13 -->
<g id="edge15_Node000007_Node000013" class="edge">
<title>Node7&#45;&gt;Node13</title>
<g id="a_edge15_Node000007_Node000013"><a xlink:title=" ">
<path fill="none" stroke="#63b8ff" d="M997.29,-137.46C1005.19,-135.31 1013.87,-133.26 1022,-132 1369.3,-77.99 1462.67,-134.75 1812,-96 1820.75,-95.03 1830,-93.68 1838.96,-92.21"/>
<polygon fill="#63b8ff" stroke="#63b8ff" points="1839.65,-95.64 1848.92,-90.5 1838.47,-88.74 1839.65,-95.64"/>
</a>
</g>
</g>
<!-- Node14 -->
<g id="Node000014" class="node">
<title>Node14</title>
<g id="a_Node000014"><a xlink:title=" ">
<polygon fill="#e0e0e0" stroke="#999999" points="650.5,-90.5 531.5,-90.5 531.5,-71.5 650.5,-71.5 650.5,-90.5"/>
<text text-anchor="middle" x="591" y="-78.5" font-family="Helvetica,sans-Serif" font-size="10.00">deal.II/fe/fe_values.h</text>
</a>
</g>
</g>
<!-- Node7&#45;&gt;Node14 -->
<g id="edge16_Node000007_Node000014" class="edge">
<title>Node7&#45;&gt;Node14</title>
<g id="a_edge16_Node000007_Node000014"><a xlink:title=" ">
<path fill="none" stroke="#63b8ff" d="M926.88,-139.68C866.75,-130.72 754.34,-113.47 659,-96 653.15,-94.93 647.03,-93.75 640.96,-92.55"/>
<polygon fill="#63b8ff" stroke="#63b8ff" points="641.35,-89.05 630.86,-90.51 639.97,-95.92 641.35,-89.05"/>
</a>
</g>
</g>
<!-- Node7&#45;&gt;Node15 -->
<g id="edge17_Node000007_Node000015" class="edge">
<title>Node7&#45;&gt;Node15</title>
<g id="a_edge17_Node000007_Node000015"><a xlink:title=" ">
<path fill="none" stroke="#63b8ff" d="M926.92,-142.29C848.63,-135.3 677.57,-118.95 523.82,-96.21"/>
<polygon fill="#63b8ff" stroke="#63b8ff" points="524.13,-92.72 513.72,-94.7 523.1,-99.64 524.13,-92.72"/>
</a>
</g>
</g>
<!-- Node16 -->
<g id="Node000016" class="node">
<title>Node16</title>
<g id="a_Node000016"><a xlink:title=" ">
<polygon fill="#e0e0e0" stroke="#999999" points="773.5,-96 668.5,-96 668.5,-66 773.5,-66 773.5,-96"/>
<text text-anchor="start" x="676.5" y="-84" font-family="Helvetica,sans-Serif" font-size="10.00">boost/archive/text</text>
<text text-anchor="middle" x="721" y="-73" font-family="Helvetica,sans-Serif" font-size="10.00">_iarchive.hpp</text>
</a>
</g>
</g>
<!-- Node7&#45;&gt;Node16 -->
<g id="edge18_Node000007_Node000016" class="edge">
<title>Node7&#45;&gt;Node16</title>
<g id="a_edge18_Node000007_Node000016"><a xlink:title=" ">
<path fill="none" stroke="#63b8ff" d="M936.68,-137.44C897.62,-127.4 832.07,-110.55 783.47,-98.06"/>
<polygon fill="#63b8ff" stroke="#63b8ff" points="784.24,-94.64 773.68,-95.54 782.49,-101.42 784.24,-94.64"/>
</a>
</g>
</g>
<!-- Node17 -->
<g id="Node000017" class="node">
<title>Node17</title>
<g id="a_Node000017"><a xlink:title=" ">
<polygon fill="#e0e0e0" stroke="#999999" points="896.5,-96 791.5,-96 791.5,-66 896.5,-66 896.5,-96"/>
<text text-anchor="start" x="799.5" y="-84" font-family="Helvetica,sans-Serif" font-size="10.00">boost/archive/text</text>
<text text-anchor="middle" x="844" y="-73" font-family="Helvetica,sans-Serif" font-size="10.00">_oarchive.hpp</text>
</a>
</g>
</g>
<!-- Node7&#45;&gt;Node17 -->
<g id="edge19_Node000007_Node000017" class="edge">
<title>Node7&#45;&gt;Node17</title>
<g id="a_edge19_Node000007_Node000017"><a xlink:title=" ">
<path fill="none" stroke="#63b8ff" d="M953.01,-137.37C934.62,-128.03 904.75,-112.86 880.92,-100.75"/>
<polygon fill="#63b8ff" stroke="#63b8ff" points="882.29,-97.52 871.79,-96.12 879.12,-103.76 882.29,-97.52"/>
</a>
</g>
</g>
<!-- Node18 -->
<g id="Node000018" class="node">
<title>Node18</title>
<g id="a_Node000018"><a xlink:title=" ">
<polygon fill="#e0e0e0" stroke="#999999" points="1025,-96 915,-96 915,-66 1025,-66 1025,-96"/>
<text text-anchor="start" x="923" y="-84" font-family="Helvetica,sans-Serif" font-size="10.00">boost/math/special</text>
<text text-anchor="middle" x="970" y="-73" font-family="Helvetica,sans-Serif" font-size="10.00">_functions/erf.hpp</text>
</a>
</g>
</g>
<!-- Node7&#45;&gt;Node18 -->
<g id="edge20_Node000007_Node000018" class="edge">
<title>Node7&#45;&gt;Node18</title>
<g id="a_edge20_Node000007_Node000018"><a xlink:title=" ">
<path fill="none" stroke="#63b8ff" d="M970,-137.37C970,-129.49 970,-117.45 970,-106.6"/>
<polygon fill="#63b8ff" stroke="#63b8ff" points="973.5,-106.36 970,-96.36 966.5,-106.36 973.5,-106.36"/>
</a>
</g>
</g>
<!-- Node19 -->
<g id="Node000019" class="node">
<title>Node19</title>
<g id="a_Node000019"><a xlink:title=" ">
<polygon fill="#e0e0e0" stroke="#999999" points="1098.5,-90.5 1043.5,-90.5 1043.5,-71.5 1098.5,-71.5 1098.5,-90.5"/>
<text text-anchor="middle" x="1071" y="-78.5" font-family="Helvetica,sans-Serif" font-size="10.00">fstream</text>
</a>
</g>
</g>
<!-- Node7&#45;&gt;Node19 -->
<g id="edge21_Node000007_Node000019" class="edge">
<title>Node7&#45;&gt;Node19</title>
<g id="a_edge21_Node000007_Node000019"><a xlink:title=" ">
<path fill="none" stroke="#63b8ff" d="M983.62,-137.37C1000.34,-126.78 1028.91,-108.67 1048.81,-96.06"/>
<polygon fill="#63b8ff" stroke="#63b8ff" points="1050.7,-99.01 1057.27,-90.7 1046.95,-93.1 1050.7,-99.01"/>
</a>
</g>
</g>
<!-- Node20 -->
<g id="Node000020" class="node">
<title>Node20</title>
<g id="a_Node000020"><a xlink:title=" ">
<polygon fill="#e0e0e0" stroke="#999999" points="1155,-90.5 1117,-90.5 1117,-71.5 1155,-71.5 1155,-90.5"/>
<text text-anchor="middle" x="1136" y="-78.5" font-family="Helvetica,sans-Serif" font-size="10.00">map</text>
</a>
</g>
</g>
<!-- Node7&#45;&gt;Node20 -->
<g id="edge22_Node000007_Node000020" class="edge">
<title>Node7&#45;&gt;Node20</title>
<g id="a_edge22_Node000007_Node000020"><a xlink:title=" ">
<path fill="none" stroke="#63b8ff" d="M995.8,-137.45C1023.56,-128.04 1068.87,-112.12 1107,-96 1107.86,-95.64 1108.72,-95.26 1109.6,-94.88"/>
<polygon fill="#63b8ff" stroke="#63b8ff" points="1111.33,-97.94 1118.95,-90.58 1108.41,-91.58 1111.33,-97.94"/>
</a>
</g>
</g>
<!-- Node21 -->
<g id="Node000021" class="node">
<title>Node21</title>
<g id="a_Node000021"><a xlink:title=" ">
<polygon fill="#e0e0e0" stroke="#999999" points="1217,-90.5 1173,-90.5 1173,-71.5 1217,-71.5 1217,-90.5"/>
<text text-anchor="middle" x="1195" y="-78.5" font-family="Helvetica,sans-Serif" font-size="10.00">regex</text>
</a>
</g>
</g>
<!-- Node7&#45;&gt;Node21 -->
<g id="edge23_Node000007_Node000021" class="edge">
<title>Node7&#45;&gt;Node21</title>
<g id="a_edge23_Node000007_Node000021"><a xlink:title=" ">
<path fill="none" stroke="#63b8ff" d="M1001.33,-137.49C1008.14,-135.66 1015.31,-133.75 1022,-132 1084.99,-115.54 1102.54,-117.48 1164,-96 1165.39,-95.51 1166.81,-94.99 1168.23,-94.44"/>
<polygon fill="#63b8ff" stroke="#63b8ff" points="1169.65,-97.64 1177.51,-90.54 1166.94,-91.18 1169.65,-97.64"/>
</a>
</g>
</g>
<!-- Node22 -->
<g id="Node000022" class="node">
<title>Node22</title>
<g id="a_Node000022"><a xlink:title=" ">
<polygon fill="#e0e0e0" stroke="#999999" points="1279,-90.5 1235,-90.5 1235,-71.5 1279,-71.5 1279,-90.5"/>
<text text-anchor="middle" x="1257" y="-78.5" font-family="Helvetica,sans-Serif" font-size="10.00">string</text>
</a>
</g>
</g>
<!-- Node7&#45;&gt;Node22 -->
<g id="edge24_Node000007_Node000022" class="edge">
<title>Node7&#45;&gt;Node22</title>
<g id="a_edge24_Node000007_Node000022"><a xlink:title=" ">
<path fill="none" stroke="#63b8ff" d="M999.86,-137.48C1007.08,-135.55 1014.79,-133.6 1022,-132 1111.87,-112.01 1138.03,-123.16 1226,-96 1227.45,-95.55 1228.91,-95.06 1230.38,-94.52"/>
<polygon fill="#63b8ff" stroke="#63b8ff" points="1231.98,-97.65 1239.92,-90.63 1229.34,-91.17 1231.98,-97.65"/>
</a>
</g>
</g>
<!-- Node23 -->
<g id="Node000023" class="node">
<title>Node23</title>
<g id="a_Node000023"><a xlink:title=" ">
<polygon fill="#e0e0e0" stroke="#999999" points="1338.5,-90.5 1297.5,-90.5 1297.5,-71.5 1338.5,-71.5 1338.5,-90.5"/>
<text text-anchor="middle" x="1318" y="-78.5" font-family="Helvetica,sans-Serif" font-size="10.00">tuple</text>
</a>
</g>
</g>
<!-- Node7&#45;&gt;Node23 -->
<g id="edge25_Node000007_Node000023" class="edge">
<title>Node7&#45;&gt;Node23</title>
<g id="a_edge25_Node000007_Node000023"><a xlink:title=" ">
<path fill="none" stroke="#63b8ff" d="M999,-137.49C1006.45,-135.49 1014.48,-133.51 1022,-132 1138.95,-108.44 1173.53,-129.61 1288,-96 1289.45,-95.57 1290.91,-95.09 1292.38,-94.56"/>
<polygon fill="#63b8ff" stroke="#63b8ff" points="1293.95,-97.7 1301.84,-90.63 1291.27,-91.23 1293.95,-97.7"/>
</a>
</g>
</g>
<!-- Node7&#45;&gt;Node24 -->
<g id="edge26_Node000007_Node000024" class="edge">
<title>Node7&#45;&gt;Node24</title>
<g id="a_edge26_Node000007_Node000024"><a xlink:title=" ">
<path fill="none" stroke="#63b8ff" d="M997.01,-137.49C1004.98,-135.32 1013.77,-133.25 1022,-132 1230.44,-100.4 1764.24,-141.92 1970,-96 1972.17,-95.52 1974.38,-94.89 1976.57,-94.18"/>
<polygon fill="#63b8ff" stroke="#63b8ff" points="1977.82,-97.45 1985.92,-90.63 1975.33,-90.91 1977.82,-97.45"/>
</a>
</g>
</g>
<!-- Node8&#45;&gt;Node9 -->
<g id="edge8_Node000008_Node000009" class="edge">
<title>Node8&#45;&gt;Node9</title>
<g id="a_edge8_Node000008_Node000009"><a xlink:title=" ">
<path fill="none" stroke="#63b8ff" d="M1440.54,-71.37C1428.68,-62.44 1409.75,-48.19 1394.06,-36.38"/>
<polygon fill="#63b8ff" stroke="#63b8ff" points="1395.84,-33.33 1385.75,-30.12 1391.63,-38.93 1395.84,-33.33"/>
</a>
</g>
</g>
<!-- Node10 -->
<g id="Node000010" class="node">
<title>Node10</title>
<g id="a_Node000010"><a xlink:title=" ">
<polygon fill="#e0e0e0" stroke="#999999" points="1554.5,-30 1435.5,-30 1435.5,0 1554.5,0 1554.5,-30"/>
<text text-anchor="start" x="1443.5" y="-18" font-family="Helvetica,sans-Serif" font-size="10.00">deal.II/numerics/data</text>
<text text-anchor="middle" x="1495" y="-7" font-family="Helvetica,sans-Serif" font-size="10.00">_postprocessor.h</text>
</a>
</g>
</g>
<!-- Node8&#45;&gt;Node10 -->
<g id="edge9_Node000008_Node000010" class="edge">
<title>Node8&#45;&gt;Node10</title>
<g id="a_edge9_Node000008_Node000010"><a xlink:title=" ">
<path fill="none" stroke="#63b8ff" d="M1457.8,-71.37C1463.37,-63.08 1472.03,-50.18 1479.6,-38.92"/>
<polygon fill="#63b8ff" stroke="#63b8ff" points="1482.68,-40.61 1485.35,-30.36 1476.87,-36.71 1482.68,-40.61"/>
</a>
</g>
</g>
<!-- Node25&#45;&gt;Node3 -->
<g id="edge29_Node000025_Node000003" class="edge">
<title>Node25&#45;&gt;Node3</title>
<g id="a_edge29_Node000025_Node000003"><a xlink:title=" ">
<path fill="none" stroke="#63b8ff" d="M429.25,-137.37C405.52,-126.44 364.43,-107.52 336.98,-94.88"/>
<polygon fill="#63b8ff" stroke="#63b8ff" points="338.44,-91.7 327.89,-90.7 335.51,-98.06 338.44,-91.7"/>
</a>
</g>
</g>
<!-- Node25&#45;&gt;Node4 -->
<g id="edge30_Node000025_Node000004" class="edge">
<title>Node25&#45;&gt;Node4</title>
<g id="a_edge30_Node000025_Node000004"><a xlink:title=" ">
<path fill="none" stroke="#63b8ff" d="M411.87,-137.44C363.27,-125.92 276.83,-105.43 223.75,-92.84"/>
<polygon fill="#63b8ff" stroke="#63b8ff" points="224.46,-89.42 213.92,-90.51 222.84,-96.23 224.46,-89.42"/>
</a>
</g>
</g>
<!-- Node25&#45;&gt;Node15 -->
<g id="edge31_Node000025_Node000015" class="edge">
<title>Node25&#45;&gt;Node15</title>
<g id="a_edge31_Node000025_Node000015"><a xlink:title=" ">
<path fill="none" stroke="#63b8ff" d="M448,-137.37C448,-129.49 448,-117.45 448,-106.6"/>
<polygon fill="#63b8ff" stroke="#63b8ff" points="451.5,-106.36 448,-96.36 444.5,-106.36 451.5,-106.36"/>
</a>
</g>
</g>
</g>
</svg>
