<?xml version="1.0" encoding="UTF-8" standalone="no"?>
<!DOCTYPE svg PUBLIC "-//W3C//DTD SVG 1.1//EN"
 "http://www.w3.org/Graphics/SVG/1.1/DTD/svg11.dtd">
<!-- Generated by graphviz version 2.43.0 (0)
 -->
<!-- Title: /home/runner/work/lethe/lethe/include/dem/periodic_boundaries_manipulator.h Pages: 1 -->
<svg width="1844pt" height="313pt"
 viewBox="0.00 0.00 1844.00 313.00" xmlns="http://www.w3.org/2000/svg" xmlns:xlink="http://www.w3.org/1999/xlink">
<g id="graph0" class="graph" transform="scale(1 1) rotate(0) translate(4 309)">
<title>/home/runner/work/lethe/lethe/include/dem/periodic_boundaries_manipulator.h</title>
<!-- Node1 -->
<g id="Node000001" class="node">
<title>Node1</title>
<g id="a_Node000001"><a xlink:title=" ">
<polygon fill="#999999" stroke="#666666" points="1300.5,-305 1151.5,-305 1151.5,-264 1300.5,-264 1300.5,-305"/>
<text text-anchor="start" x="1159.5" y="-293" font-family="Helvetica,sans-Serif" font-size="10.00">/home/runner/work/lethe</text>
<text text-anchor="start" x="1159.5" y="-282" font-family="Helvetica,sans-Serif" font-size="10.00">/lethe/include/dem/periodic</text>
<text text-anchor="middle" x="1226" y="-271" font-family="Helvetica,sans-Serif" font-size="10.00">_boundaries_manipulator.h</text>
</a>
</g>
</g>
<!-- Node2 -->
<g id="Node000002" class="node">
<title>Node2</title>
<g id="a_Node000002"><a xlink:href="boundary__cells__info__struct_8h.html" target="_top" xlink:title=" ">
<polygon fill="white" stroke="#666666" points="234.5,-162 119.5,-162 119.5,-132 234.5,-132 234.5,-162"/>
<text text-anchor="start" x="127.5" y="-150" font-family="Helvetica,sans-Serif" font-size="10.00">dem/boundary_cells</text>
<text text-anchor="middle" x="177" y="-139" font-family="Helvetica,sans-Serif" font-size="10.00">_info_struct.h</text>
</a>
</g>
</g>
<!-- Node1&#45;&gt;Node2 -->
<g id="edge1_Node000001_Node000002" class="edge">
<title>Node1&#45;&gt;Node2</title>
<g id="a_edge1_Node000001_Node000002"><a xlink:title=" ">
<path fill="none" stroke="#63b8ff" d="M1151.46,-282.6C1016.03,-279.94 720.92,-269.45 476,-228 388.1,-213.12 288.56,-183.93 229.38,-165.22"/>
<polygon fill="#63b8ff" stroke="#63b8ff" points="230.11,-161.79 219.52,-162.09 227.99,-168.46 230.11,-161.79"/>
</a>
</g>
</g>
<!-- Node5 -->
<g id="Node000005" class="node">
<title>Node5</title>
<g id="a_Node000005"><a xlink:title=" ">
<polygon fill="#e0e0e0" stroke="#999999" points="102,-96 0,-96 0,-66 102,-66 102,-96"/>
<text text-anchor="start" x="8" y="-84" font-family="Helvetica,sans-Serif" font-size="10.00">deal.II/distributed</text>
<text text-anchor="middle" x="51" y="-73" font-family="Helvetica,sans-Serif" font-size="10.00">/tria.h</text>
</a>
</g>
</g>
<!-- Node1&#45;&gt;Node5 -->
<g id="edge37_Node000001_Node000005" class="edge">
<title>Node1&#45;&gt;Node5</title>
<g id="a_edge37_Node000001_Node000005"><a xlink:title=" ">
<path fill="none" stroke="#63b8ff" d="M1151.42,-283.38C998.37,-282.14 638.15,-274.08 340,-228 220.05,-209.46 162.83,-245.77 75,-162 59.81,-147.51 54.12,-123.83 52.05,-105.98"/>
<polygon fill="#63b8ff" stroke="#63b8ff" points="55.54,-105.67 51.19,-96.01 48.56,-106.27 55.54,-105.67"/>
</a>
</g>
</g>
<!-- Node6 -->
<g id="Node000006" class="node">
<title>Node6</title>
<g id="a_Node000006"><a xlink:href="data__containers_8h.html" target="_top" xlink:title=" ">
<polygon fill="white" stroke="#666666" points="613,-222.5 485,-222.5 485,-203.5 613,-203.5 613,-222.5"/>
<text text-anchor="middle" x="549" y="-210.5" font-family="Helvetica,sans-Serif" font-size="10.00">dem/data_containers.h</text>
</a>
</g>
</g>
<!-- Node1&#45;&gt;Node6 -->
<g id="edge5_Node000001_Node000006" class="edge">
<title>Node1&#45;&gt;Node6</title>
<g id="a_edge5_Node000001_Node000006"><a xlink:title=" ">
<path fill="none" stroke="#63b8ff" d="M1151.29,-275.83C1021.05,-262.46 753.92,-235.04 623.69,-221.67"/>
<polygon fill="#63b8ff" stroke="#63b8ff" points="623.72,-218.15 613.42,-220.61 623.01,-225.12 623.72,-218.15"/>
</a>
</g>
</g>
<!-- Node19 -->
<g id="Node000019" class="node">
<title>Node19</title>
<g id="a_Node000019"><a xlink:title=" ">
<polygon fill="#e0e0e0" stroke="#999999" points="1836,-90.5 1798,-90.5 1798,-71.5 1836,-71.5 1836,-90.5"/>
<text text-anchor="middle" x="1817" y="-78.5" font-family="Helvetica,sans-Serif" font-size="10.00">map</text>
</a>
</g>
</g>
<!-- Node1&#45;&gt;Node19 -->
<g id="edge39_Node000001_Node000019" class="edge">
<title>Node1&#45;&gt;Node19</title>
<g id="a_edge39_Node000001_Node000019"><a xlink:title=" ">
<path fill="none" stroke="#63b8ff" d="M1238.18,-263.91C1251.57,-244.1 1274.96,-214.15 1303,-198 1493.88,-88.08 1579.51,-167.07 1788,-96 1789.22,-95.58 1790.46,-95.13 1791.69,-94.65"/>
<polygon fill="#63b8ff" stroke="#63b8ff" points="1793.27,-97.78 1801.03,-90.56 1790.47,-91.36 1793.27,-97.78"/>
</a>
</g>
</g>
<!-- Node22 -->
<g id="Node000022" class="node">
<title>Node22</title>
<g id="a_Node000022"><a xlink:title=" ">
<polygon fill="#e0e0e0" stroke="#999999" points="1779.5,-90.5 1732.5,-90.5 1732.5,-71.5 1779.5,-71.5 1779.5,-90.5"/>
<text text-anchor="middle" x="1756" y="-78.5" font-family="Helvetica,sans-Serif" font-size="10.00">vector</text>
</a>
</g>
</g>
<!-- Node1&#45;&gt;Node22 -->
<g id="edge41_Node000001_Node000022" class="edge">
<title>Node1&#45;&gt;Node22</title>
<g id="a_edge41_Node000001_Node000022"><a xlink:title=" ">
<path fill="none" stroke="#63b8ff" d="M1225.21,-264C1225.06,-230.98 1230.08,-164.53 1270,-132 1348.29,-68.21 1624.92,-120.03 1723,-96 1724.95,-95.52 1726.93,-94.94 1728.91,-94.29"/>
<polygon fill="#63b8ff" stroke="#63b8ff" points="1730.44,-97.46 1738.55,-90.64 1727.96,-90.91 1730.44,-97.46"/>
</a>
</g>
</g>
<!-- Node24 -->
<g id="Node000024" class="node">
<title>Node24</title>
<g id="a_Node000024"><a xlink:title=" ">
<polygon fill="#e0e0e0" stroke="#999999" points="1217.5,-156.5 1124.5,-156.5 1124.5,-137.5 1217.5,-137.5 1217.5,-156.5"/>
<text text-anchor="middle" x="1171" y="-144.5" font-family="Helvetica,sans-Serif" font-size="10.00">unordered_map</text>
</a>
</g>
</g>
<!-- Node1&#45;&gt;Node24 -->
<g id="edge40_Node000001_Node000024" class="edge">
<title>Node1&#45;&gt;Node24</title>
<g id="a_edge40_Node000001_Node000024"><a xlink:title=" ">
<path fill="none" stroke="#63b8ff" d="M1218,-263.8C1207.37,-237.59 1188.71,-191.63 1178.39,-166.21"/>
<polygon fill="#63b8ff" stroke="#63b8ff" points="1181.53,-164.63 1174.53,-156.69 1175.04,-167.27 1181.53,-164.63"/>
</a>
</g>
</g>
<!-- Node26 -->
<g id="Node000026" class="node">
<title>Node26</title>
<g id="a_Node000026"><a xlink:href="dem__action__manager_8h.html" target="_top" xlink:title=" ">
<polygon fill="white" stroke="#666666" points="1467.5,-222.5 1312.5,-222.5 1312.5,-203.5 1467.5,-203.5 1467.5,-222.5"/>
<text text-anchor="middle" x="1390" y="-210.5" font-family="Helvetica,sans-Serif" font-size="10.00">dem/dem_action_manager.h</text>
</a>
</g>
</g>
<!-- Node1&#45;&gt;Node26 -->
<g id="edge36_Node000001_Node000026" class="edge">
<title>Node1&#45;&gt;Node26</title>
<g id="a_edge36_Node000001_Node000026"><a xlink:title=" ">
<path fill="none" stroke="#63b8ff" d="M1272.12,-263.96C1300.43,-251.96 1335.85,-236.95 1360.44,-226.53"/>
<polygon fill="#63b8ff" stroke="#63b8ff" points="1362.09,-229.63 1369.93,-222.5 1359.36,-223.18 1362.09,-229.63"/>
</a>
</g>
</g>
<!-- Node27 -->
<g id="Node000027" class="node">
<title>Node27</title>
<g id="a_Node000027"><a xlink:title=" ">
<polygon fill="#e0e0e0" stroke="#999999" points="1616.5,-228 1485.5,-228 1485.5,-198 1616.5,-198 1616.5,-228"/>
<text text-anchor="start" x="1493.5" y="-216" font-family="Helvetica,sans-Serif" font-size="10.00">deal.II/particles/particle</text>
<text text-anchor="middle" x="1551" y="-205" font-family="Helvetica,sans-Serif" font-size="10.00">_handler.h</text>
</a>
</g>
</g>
<!-- Node1&#45;&gt;Node27 -->
<g id="edge38_Node000001_Node000027" class="edge">
<title>Node1&#45;&gt;Node27</title>
<g id="a_edge38_Node000001_Node000027"><a xlink:title=" ">
<path fill="none" stroke="#63b8ff" d="M1300.56,-267.56C1352.94,-256.35 1422.76,-241.42 1475.37,-230.17"/>
<polygon fill="#63b8ff" stroke="#63b8ff" points="1476.27,-233.56 1485.32,-228.05 1474.81,-226.71 1476.27,-233.56"/>
</a>
</g>
</g>
<!-- Node3 -->
<g id="Node000003" class="node">
<title>Node3</title>
<g id="a_Node000003"><a xlink:title=" ">
<polygon fill="#e0e0e0" stroke="#999999" points="364,-90.5 254,-90.5 254,-71.5 364,-71.5 364,-90.5"/>
<text text-anchor="middle" x="309" y="-78.5" font-family="Helvetica,sans-Serif" font-size="10.00">deal.II/base/point.h</text>
</a>
</g>
</g>
<!-- Node2&#45;&gt;Node3 -->
<g id="edge2_Node000002_Node000003" class="edge">
<title>Node2&#45;&gt;Node3</title>
<g id="a_edge2_Node000002_Node000003"><a xlink:title=" ">
<path fill="none" stroke="#63b8ff" d="M205.97,-131.95C228.71,-120.93 260.12,-105.7 282.27,-94.96"/>
<polygon fill="#63b8ff" stroke="#63b8ff" points="283.96,-98.03 291.43,-90.52 280.91,-91.73 283.96,-98.03"/>
</a>
</g>
</g>
<!-- Node4 -->
<g id="Node000004" class="node">
<title>Node4</title>
<g id="a_Node000004"><a xlink:title=" ">
<polygon fill="#e0e0e0" stroke="#999999" points="235.5,-90.5 120.5,-90.5 120.5,-71.5 235.5,-71.5 235.5,-90.5"/>
<text text-anchor="middle" x="178" y="-78.5" font-family="Helvetica,sans-Serif" font-size="10.00">deal.II/base/tensor.h</text>
</a>
</g>
</g>
<!-- Node2&#45;&gt;Node4 -->
<g id="edge3_Node000002_Node000004" class="edge">
<title>Node2&#45;&gt;Node4</title>
<g id="a_edge3_Node000002_Node000004"><a xlink:title=" ">
<path fill="none" stroke="#63b8ff" d="M177.22,-131.8C177.36,-122.7 177.55,-110.79 177.7,-100.9"/>
<polygon fill="#63b8ff" stroke="#63b8ff" points="181.21,-100.9 177.86,-90.84 174.21,-100.79 181.21,-100.9"/>
</a>
</g>
</g>
<!-- Node2&#45;&gt;Node5 -->
<g id="edge4_Node000002_Node000005" class="edge">
<title>Node2&#45;&gt;Node5</title>
<g id="a_edge4_Node000002_Node000005"><a xlink:title=" ">
<path fill="none" stroke="#63b8ff" d="M149.35,-131.95C131.21,-122.74 107.3,-110.6 87.59,-100.59"/>
<polygon fill="#63b8ff" stroke="#63b8ff" points="89.09,-97.42 78.59,-96.01 85.92,-103.66 89.09,-97.42"/>
</a>
</g>
</g>
<!-- Node6&#45;&gt;Node2 -->
<g id="edge25_Node000006_Node000002" class="edge">
<title>Node6&#45;&gt;Node2</title>
<g id="a_edge25_Node000006_Node000002"><a xlink:title=" ">
<path fill="none" stroke="#63b8ff" d="M495.27,-203.49C435.19,-193.87 335,-177.52 249,-162 247.55,-161.74 246.09,-161.47 244.61,-161.2"/>
<polygon fill="#63b8ff" stroke="#63b8ff" points="245.21,-157.75 234.74,-159.37 243.94,-164.64 245.21,-157.75"/>
</a>
</g>
</g>
<!-- Node6&#45;&gt;Node4 -->
<g id="edge30_Node000006_Node000004" class="edge">
<title>Node6&#45;&gt;Node4</title>
<g id="a_edge30_Node000006_Node000004"><a xlink:title=" ">
<path fill="none" stroke="#63b8ff" d="M484.73,-208.41C429.03,-203.36 347.33,-191.21 282,-162 281.92,-161.97 227.25,-119.9 197.22,-96.79"/>
<polygon fill="#63b8ff" stroke="#63b8ff" points="199.18,-93.88 189.12,-90.56 194.91,-99.43 199.18,-93.88"/>
</a>
</g>
</g>
<!-- Node6&#45;&gt;Node5 -->
<g id="edge31_Node000006_Node000005" class="edge">
<title>Node6&#45;&gt;Node5</title>
<g id="a_edge31_Node000006_Node000005"><a xlink:title=" ">
<path fill="none" stroke="#63b8ff" d="M484.9,-210.91C378.81,-208.09 172.25,-198.01 110,-162 87.61,-149.05 71.21,-123.84 61.47,-105.17"/>
<polygon fill="#63b8ff" stroke="#63b8ff" points="64.55,-103.51 56.98,-96.1 58.28,-106.61 64.55,-103.51"/>
</a>
</g>
</g>
<!-- Node7 -->
<g id="Node000007" class="node">
<title>Node7</title>
<g id="a_Node000007"><a xlink:href="core_2utilities_8h.html" target="_top" xlink:title=" ">
<polygon fill="white" stroke="#666666" points="1068,-156.5 982,-156.5 982,-137.5 1068,-137.5 1068,-156.5"/>
<text text-anchor="middle" x="1025" y="-144.5" font-family="Helvetica,sans-Serif" font-size="10.00">core/utilities.h</text>
</a>
</g>
</g>
<!-- Node6&#45;&gt;Node7 -->
<g id="edge6_Node000006_Node000007" class="edge">
<title>Node6&#45;&gt;Node7</title>
<g id="a_edge6_Node000006_Node000007"><a xlink:title=" ">
<path fill="none" stroke="#63b8ff" d="M612.7,-203.44C707.37,-190.71 883.49,-167.03 971.73,-155.16"/>
<polygon fill="#63b8ff" stroke="#63b8ff" points="972.34,-158.61 981.79,-153.81 971.41,-151.67 972.34,-158.61"/>
</a>
</g>
</g>
<!-- Node15 -->
<g id="Node000015" class="node">
<title>Node15</title>
<g id="a_Node000015"><a xlink:title=" ">
<polygon fill="#e0e0e0" stroke="#999999" points="513.5,-96 382.5,-96 382.5,-66 513.5,-66 513.5,-96"/>
<text text-anchor="start" x="390.5" y="-84" font-family="Helvetica,sans-Serif" font-size="10.00">deal.II/particles/particle</text>
<text text-anchor="middle" x="448" y="-73" font-family="Helvetica,sans-Serif" font-size="10.00">_iterator.h</text>
</a>
</g>
</g>
<!-- Node6&#45;&gt;Node15 -->
<g id="edge32_Node000006_Node000015" class="edge">
<title>Node6&#45;&gt;Node15</title>
<g id="a_edge32_Node000006_Node000015"><a xlink:title=" ">
<path fill="none" stroke="#63b8ff" d="M555.86,-203.33C567.25,-187.8 587.36,-154.76 572,-132 564.1,-120.3 535.71,-108.43 508.08,-99.19"/>
<polygon fill="#63b8ff" stroke="#63b8ff" points="508.97,-95.8 498.37,-96.04 506.8,-102.45 508.97,-95.8"/>
</a>
</g>
</g>
<!-- Node6&#45;&gt;Node22 -->
<g id="edge34_Node000006_Node000022" class="edge">
<title>Node6&#45;&gt;Node22</title>
<g id="a_edge34_Node000006_Node000022"><a xlink:title=" ">
<path fill="none" stroke="#63b8ff" d="M613.26,-210.44C734.97,-206.76 994.32,-195.16 1077,-162 1096.97,-153.99 1094.89,-139.65 1115,-132 1241.49,-83.85 1591.22,-126.88 1723,-96 1725.17,-95.49 1727.37,-94.85 1729.56,-94.13"/>
<polygon fill="#63b8ff" stroke="#63b8ff" points="1730.81,-97.4 1738.91,-90.56 1728.32,-90.86 1730.81,-97.4"/>
</a>
</g>
</g>
<!-- Node23 -->
<g id="Node000023" class="node">
<title>Node23</title>
<g id="a_Node000023"><a xlink:href="contact__info_8h.html" target="_top" xlink:title=" ">
<polygon fill="white" stroke="#666666" points="563,-156.5 453,-156.5 453,-137.5 563,-137.5 563,-156.5"/>
<text text-anchor="middle" x="508" y="-144.5" font-family="Helvetica,sans-Serif" font-size="10.00">dem/contact_info.h</text>
</a>
</g>
</g>
<!-- Node6&#45;&gt;Node23 -->
<g id="edge26_Node000006_Node000023" class="edge">
<title>Node6&#45;&gt;Node23</title>
<g id="a_edge26_Node000006_Node000023"><a xlink:title=" ">
<path fill="none" stroke="#63b8ff" d="M543.47,-203.37C537.27,-193.69 527.05,-177.74 519.17,-165.44"/>
<polygon fill="#63b8ff" stroke="#63b8ff" points="522.05,-163.44 513.7,-156.91 516.15,-167.21 522.05,-163.44"/>
</a>
</g>
</g>
<!-- Node6&#45;&gt;Node24 -->
<g id="edge33_Node000006_Node000024" class="edge">
<title>Node6&#45;&gt;Node24</title>
<g id="a_edge33_Node000006_Node000024"><a xlink:title=" ">
<path fill="none" stroke="#63b8ff" d="M613.29,-209.13C717.92,-203.82 931.34,-190.33 1110,-162 1115.77,-161.08 1121.82,-159.94 1127.76,-158.69"/>
<polygon fill="#63b8ff" stroke="#63b8ff" points="1128.58,-162.09 1137.6,-156.53 1127.08,-155.26 1128.58,-162.09"/>
</a>
</g>
</g>
<!-- Node25 -->
<g id="Node000025" class="node">
<title>Node25</title>
<g id="a_Node000025"><a xlink:href="unordered__dense_8h.html" target="_top" xlink:title=" ">
<polygon fill="white" stroke="#666666" points="434.5,-156.5 291.5,-156.5 291.5,-137.5 434.5,-137.5 434.5,-156.5"/>
<text text-anchor="middle" x="363" y="-144.5" font-family="Helvetica,sans-Serif" font-size="10.00">ankerl/unordered_dense.h</text>
</a>
</g>
</g>
<!-- Node6&#45;&gt;Node25 -->
<g id="edge35_Node000006_Node000025" class="edge">
<title>Node6&#45;&gt;Node25</title>
<g id="a_edge35_Node000006_Node000025"><a xlink:title=" ">
<path fill="none" stroke="#63b8ff" d="M523.92,-203.37C491.38,-192.17 434.45,-172.58 397.76,-159.96"/>
<polygon fill="#63b8ff" stroke="#63b8ff" points="398.58,-156.54 387.98,-156.6 396.3,-163.16 398.58,-156.54"/>
</a>
</g>
</g>
<!-- Node7&#45;&gt;Node3 -->
<g id="edge12_Node000007_Node000003" class="edge">
<title>Node7&#45;&gt;Node3</title>
<g id="a_edge12_Node000007_Node000003"><a xlink:title=" ">
<path fill="none" stroke="#63b8ff" d="M981.66,-144.75C876.71,-141.29 600.73,-129.47 373,-96 366.72,-95.08 360.14,-93.89 353.69,-92.6"/>
<polygon fill="#63b8ff" stroke="#63b8ff" points="354.22,-89.14 343.72,-90.51 352.79,-95.99 354.22,-89.14"/>
</a>
</g>
</g>
<!-- Node7&#45;&gt;Node4 -->
<g id="edge14_Node000007_Node000004" class="edge">
<title>Node7&#45;&gt;Node4</title>
<g id="a_edge14_Node000007_Node000004"><a xlink:title=" ">
<path fill="none" stroke="#63b8ff" d="M981.66,-145.38C863.17,-143.21 524,-133.9 245,-96 238.2,-95.08 231.05,-93.86 224.06,-92.52"/>
<polygon fill="#63b8ff" stroke="#63b8ff" points="224.49,-89.04 214,-90.5 223.12,-95.9 224.49,-89.04"/>
</a>
</g>
</g>
<!-- Node8 -->
<g id="Node000008" class="node">
<title>Node8</title>
<g id="a_Node000008"><a xlink:href="output__struct_8h.html" target="_top" xlink:title=" ">
<polygon fill="white" stroke="#666666" points="1566,-90.5 1452,-90.5 1452,-71.5 1566,-71.5 1566,-90.5"/>
<text text-anchor="middle" x="1509" y="-78.5" font-family="Helvetica,sans-Serif" font-size="10.00">core/output_struct.h</text>
</a>
</g>
</g>
<!-- Node7&#45;&gt;Node8 -->
<g id="edge7_Node000007_Node000008" class="edge">
<title>Node7&#45;&gt;Node8</title>
<g id="a_edge7_Node000007_Node000008"><a xlink:title=" ">
<path fill="none" stroke="#63b8ff" d="M1056.49,-137.43C1064.74,-135.41 1073.67,-133.44 1082,-132 1238.71,-104.97 1280.7,-119.41 1438,-96 1444.85,-94.98 1452.03,-93.75 1459.1,-92.45"/>
<polygon fill="#63b8ff" stroke="#63b8ff" points="1460.14,-95.82 1469.31,-90.51 1458.83,-88.94 1460.14,-95.82"/>
</a>
</g>
</g>
<!-- Node9 -->
<g id="Node000009" class="node">
<title>Node9</title>
<g id="a_Node000009"><a xlink:title=" ">
<polygon fill="#e0e0e0" stroke="#999999" points="1474.5,-30 1373.5,-30 1373.5,0 1474.5,0 1474.5,-30"/>
<text text-anchor="start" x="1381.5" y="-18" font-family="Helvetica,sans-Serif" font-size="10.00">deal.II/base/table</text>
<text text-anchor="middle" x="1424" y="-7" font-family="Helvetica,sans-Serif" font-size="10.00">_handler.h</text>
</a>
</g>
</g>
<!-- Node7&#45;&gt;Node9 -->
<g id="edge13_Node000007_Node000009" class="edge">
<title>Node7&#45;&gt;Node9</title>
<g id="a_edge13_Node000007_Node000009"><a xlink:title=" ">
<path fill="none" stroke="#63b8ff" d="M1056.5,-137.49C1064.75,-135.47 1073.67,-133.48 1082,-132 1152.89,-119.39 1349.8,-143.4 1404,-96 1419.69,-82.28 1424,-58.28 1424.8,-40.14"/>
<polygon fill="#63b8ff" stroke="#63b8ff" points="1428.31,-40.05 1424.92,-30.01 1421.31,-39.96 1428.31,-40.05"/>
</a>
</g>
</g>
<!-- Node11 -->
<g id="Node000011" class="node">
<title>Node11</title>
<g id="a_Node000011"><a xlink:title=" ">
<polygon fill="#e0e0e0" stroke="#999999" points="1714,-96 1584,-96 1584,-66 1714,-66 1714,-96"/>
<text text-anchor="start" x="1592" y="-84" font-family="Helvetica,sans-Serif" font-size="10.00">deal.II/base/conditional</text>
<text text-anchor="middle" x="1649" y="-73" font-family="Helvetica,sans-Serif" font-size="10.00">_ostream.h</text>
</a>
</g>
</g>
<!-- Node7&#45;&gt;Node11 -->
<g id="edge10_Node000007_Node000011" class="edge">
<title>Node7&#45;&gt;Node11</title>
<g id="a_edge10_Node000007_Node000011"><a xlink:title=" ">
<path fill="none" stroke="#63b8ff" d="M1055.57,-137.49C1064.07,-135.4 1073.34,-133.37 1082,-132 1295.71,-98.2 1355.36,-123.67 1573.52,-96.08"/>
<polygon fill="#63b8ff" stroke="#63b8ff" points="1574.22,-99.52 1583.69,-94.77 1573.33,-92.58 1574.22,-99.52"/>
</a>
</g>
</g>
<!-- Node12 -->
<g id="Node000012" class="node">
<title>Node12</title>
<g id="a_Node000012"><a xlink:title=" ">
<polygon fill="#e0e0e0" stroke="#999999" points="658.5,-96 531.5,-96 531.5,-66 658.5,-66 658.5,-96"/>
<text text-anchor="start" x="539.5" y="-84" font-family="Helvetica,sans-Serif" font-size="10.00">deal.II/base/parameter</text>
<text text-anchor="middle" x="595" y="-73" font-family="Helvetica,sans-Serif" font-size="10.00">_handler.h</text>
</a>
</g>
</g>
<!-- Node7&#45;&gt;Node12 -->
<g id="edge11_Node000007_Node000012" class="edge">
<title>Node7&#45;&gt;Node12</title>
<g id="a_edge11_Node000007_Node000012"><a xlink:title=" ">
<path fill="none" stroke="#63b8ff" d="M981.75,-140.66C916.34,-132.42 788.09,-115.66 668.71,-96.06"/>
<polygon fill="#63b8ff" stroke="#63b8ff" points="669.1,-92.58 658.67,-94.41 667.96,-99.49 669.1,-92.58"/>
</a>
</g>
</g>
<!-- Node13 -->
<g id="Node000013" class="node">
<title>Node13</title>
<g id="a_Node000013"><a xlink:title=" ">
<polygon fill="#e0e0e0" stroke="#999999" points="817,-90.5 677,-90.5 677,-71.5 817,-71.5 817,-90.5"/>
<text text-anchor="middle" x="747" y="-78.5" font-family="Helvetica,sans-Serif" font-size="10.00">deal.II/dofs/dof_handler.h</text>
</a>
</g>
</g>
<!-- Node7&#45;&gt;Node13 -->
<g id="edge15_Node000007_Node000013" class="edge">
<title>Node7&#45;&gt;Node13</title>
<g id="a_edge15_Node000007_Node000013"><a xlink:title=" ">
<path fill="none" stroke="#63b8ff" d="M987.8,-137.44C937.65,-125.89 848.39,-105.34 793.76,-92.77"/>
<polygon fill="#63b8ff" stroke="#63b8ff" points="794.51,-89.35 783.98,-90.51 792.94,-96.17 794.51,-89.35"/>
</a>
</g>
</g>
<!-- Node14 -->
<g id="Node000014" class="node">
<title>Node14</title>
<g id="a_Node000014"><a xlink:title=" ">
<polygon fill="#e0e0e0" stroke="#999999" points="954.5,-90.5 835.5,-90.5 835.5,-71.5 954.5,-71.5 954.5,-90.5"/>
<text text-anchor="middle" x="895" y="-78.5" font-family="Helvetica,sans-Serif" font-size="10.00">deal.II/fe/fe_values.h</text>
</a>
</g>
</g>
<!-- Node7&#45;&gt;Node14 -->
<g id="edge16_Node000007_Node000014" class="edge">
<title>Node7&#45;&gt;Node14</title>
<g id="a_edge16_Node000007_Node000014"><a xlink:title=" ">
<path fill="none" stroke="#63b8ff" d="M1007.47,-137.37C985.47,-126.54 947.51,-107.85 921.85,-95.22"/>
<polygon fill="#63b8ff" stroke="#63b8ff" points="923.19,-91.98 912.67,-90.7 920.1,-98.26 923.19,-91.98"/>
</a>
</g>
</g>
<!-- Node7&#45;&gt;Node15 -->
<g id="edge17_Node000007_Node000015" class="edge">
<title>Node7&#45;&gt;Node15</title>
<g id="a_edge17_Node000007_Node000015"><a xlink:title=" ">
<path fill="none" stroke="#63b8ff" d="M981.78,-142.99C896.19,-136.75 698.88,-120.99 523.63,-96.16"/>
<polygon fill="#63b8ff" stroke="#63b8ff" points="524.11,-92.69 513.72,-94.74 523.12,-99.62 524.11,-92.69"/>
</a>
</g>
</g>
<!-- Node16 -->
<g id="Node000016" class="node">
<title>Node16</title>
<g id="a_Node000016"><a xlink:title=" ">
<polygon fill="#e0e0e0" stroke="#999999" points="1077.5,-96 972.5,-96 972.5,-66 1077.5,-66 1077.5,-96"/>
<text text-anchor="start" x="980.5" y="-84" font-family="Helvetica,sans-Serif" font-size="10.00">boost/archive/text</text>
<text text-anchor="middle" x="1025" y="-73" font-family="Helvetica,sans-Serif" font-size="10.00">_iarchive.hpp</text>
</a>
</g>
</g>
<!-- Node7&#45;&gt;Node16 -->
<g id="edge18_Node000007_Node000016" class="edge">
<title>Node7&#45;&gt;Node16</title>
<g id="a_edge18_Node000007_Node000016"><a xlink:title=" ">
<path fill="none" stroke="#63b8ff" d="M1025,-137.37C1025,-129.49 1025,-117.45 1025,-106.6"/>
<polygon fill="#63b8ff" stroke="#63b8ff" points="1028.5,-106.36 1025,-96.36 1021.5,-106.36 1028.5,-106.36"/>
</a>
</g>
</g>
<!-- Node17 -->
<g id="Node000017" class="node">
<title>Node17</title>
<g id="a_Node000017"><a xlink:title=" ">
<polygon fill="#e0e0e0" stroke="#999999" points="1200.5,-96 1095.5,-96 1095.5,-66 1200.5,-66 1200.5,-96"/>
<text text-anchor="start" x="1103.5" y="-84" font-family="Helvetica,sans-Serif" font-size="10.00">boost/archive/text</text>
<text text-anchor="middle" x="1148" y="-73" font-family="Helvetica,sans-Serif" font-size="10.00">_oarchive.hpp</text>
</a>
</g>
</g>
<!-- Node7&#45;&gt;Node17 -->
<g id="edge19_Node000007_Node000017" class="edge">
<title>Node7&#45;&gt;Node17</title>
<g id="a_edge19_Node000007_Node000017"><a xlink:title=" ">
<path fill="none" stroke="#63b8ff" d="M1041.59,-137.37C1059.53,-128.03 1088.7,-112.86 1111.96,-100.75"/>
<polygon fill="#63b8ff" stroke="#63b8ff" points="1113.62,-103.84 1120.87,-96.12 1110.38,-97.63 1113.62,-103.84"/>
</a>
</g>
</g>
<!-- Node18 -->
<g id="Node000018" class="node">
<title>Node18</title>
<g id="a_Node000018"><a xlink:title=" ">
<polygon fill="#e0e0e0" stroke="#999999" points="1273.5,-90.5 1218.5,-90.5 1218.5,-71.5 1273.5,-71.5 1273.5,-90.5"/>
<text text-anchor="middle" x="1246" y="-78.5" font-family="Helvetica,sans-Serif" font-size="10.00">fstream</text>
</a>
</g>
</g>
<!-- Node7&#45;&gt;Node18 -->
<g id="edge20_Node000007_Node000018" class="edge">
<title>Node7&#45;&gt;Node18</title>
<g id="a_edge20_Node000007_Node000018"><a xlink:title=" ">
<path fill="none" stroke="#63b8ff" d="M1058.03,-137.43C1102.97,-125.71 1180.97,-105.09 1209,-96 1210.86,-95.4 1212.77,-94.75 1214.69,-94.09"/>
<polygon fill="#63b8ff" stroke="#63b8ff" points="1216,-97.34 1224.21,-90.64 1213.62,-90.75 1216,-97.34"/>
</a>
</g>
</g>
<!-- Node7&#45;&gt;Node19 -->
<g id="edge21_Node000007_Node000019" class="edge">
<title>Node7&#45;&gt;Node19</title>
<g id="a_edge21_Node000007_Node000019"><a xlink:title=" ">
<path fill="none" stroke="#63b8ff" d="M1068.37,-138.35C1083.13,-135.99 1099.74,-133.59 1115,-132 1412.92,-100.94 1497.89,-170.57 1788,-96 1789.49,-95.62 1790.99,-95.16 1792.49,-94.64"/>
<polygon fill="#63b8ff" stroke="#63b8ff" points="1794.23,-97.7 1802.08,-90.59 1791.51,-91.25 1794.23,-97.7"/>
</a>
</g>
</g>
<!-- Node20 -->
<g id="Node000020" class="node">
<title>Node20</title>
<g id="a_Node000020"><a xlink:title=" ">
<polygon fill="#e0e0e0" stroke="#999999" points="1336,-90.5 1292,-90.5 1292,-71.5 1336,-71.5 1336,-90.5"/>
<text text-anchor="middle" x="1314" y="-78.5" font-family="Helvetica,sans-Serif" font-size="10.00">string</text>
</a>
</g>
</g>
<!-- Node7&#45;&gt;Node20 -->
<g id="edge22_Node000007_Node000020" class="edge">
<title>Node7&#45;&gt;Node20</title>
<g id="a_edge22_Node000007_Node000020"><a xlink:title=" ">
<path fill="none" stroke="#63b8ff" d="M1058.38,-137.43C1066.11,-135.55 1074.33,-133.63 1082,-132 1170.34,-113.22 1195.59,-122.28 1282,-96 1283.64,-95.5 1285.3,-94.95 1286.96,-94.35"/>
<polygon fill="#63b8ff" stroke="#63b8ff" points="1288.35,-97.56 1296.34,-90.61 1285.75,-91.06 1288.35,-97.56"/>
</a>
</g>
</g>
<!-- Node21 -->
<g id="Node000021" class="node">
<title>Node21</title>
<g id="a_Node000021"><a xlink:title=" ">
<polygon fill="#e0e0e0" stroke="#999999" points="1395.5,-90.5 1354.5,-90.5 1354.5,-71.5 1395.5,-71.5 1395.5,-90.5"/>
<text text-anchor="middle" x="1375" y="-78.5" font-family="Helvetica,sans-Serif" font-size="10.00">tuple</text>
</a>
</g>
</g>
<!-- Node7&#45;&gt;Node21 -->
<g id="edge23_Node000007_Node000021" class="edge">
<title>Node7&#45;&gt;Node21</title>
<g id="a_edge23_Node000007_Node000021"><a xlink:title=" ">
<path fill="none" stroke="#63b8ff" d="M1057.13,-137.49C1065.21,-135.52 1073.89,-133.55 1082,-132 1197.89,-109.9 1231.82,-129.32 1345,-96 1346.45,-95.57 1347.91,-95.09 1349.38,-94.56"/>
<polygon fill="#63b8ff" stroke="#63b8ff" points="1350.95,-97.69 1358.84,-90.62 1348.27,-91.23 1350.95,-97.69"/>
</a>
</g>
</g>
<!-- Node7&#45;&gt;Node22 -->
<g id="edge24_Node000007_Node000022" class="edge">
<title>Node7&#45;&gt;Node22</title>
<g id="a_edge24_Node000007_Node000022"><a xlink:title=" ">
<path fill="none" stroke="#63b8ff" d="M1055.26,-137.47C1063.84,-135.35 1073.23,-133.31 1082,-132 1364.2,-89.79 1445.09,-160.68 1723,-96 1725.17,-95.5 1727.37,-94.86 1729.56,-94.14"/>
<polygon fill="#63b8ff" stroke="#63b8ff" points="1730.81,-97.41 1738.91,-90.57 1728.32,-90.87 1730.81,-97.41"/>
</a>
</g>
</g>
<!-- Node8&#45;&gt;Node9 -->
<g id="edge8_Node000008_Node000009" class="edge">
<title>Node8&#45;&gt;Node9</title>
<g id="a_edge8_Node000008_Node000009"><a xlink:title=" ">
<path fill="none" stroke="#63b8ff" d="M1497.54,-71.37C1485.68,-62.44 1466.75,-48.19 1451.06,-36.38"/>
<polygon fill="#63b8ff" stroke="#63b8ff" points="1452.84,-33.33 1442.75,-30.12 1448.63,-38.93 1452.84,-33.33"/>
</a>
</g>
</g>
<!-- Node10 -->
<g id="Node000010" class="node">
<title>Node10</title>
<g id="a_Node000010"><a xlink:title=" ">
<polygon fill="#e0e0e0" stroke="#999999" points="1611.5,-30 1492.5,-30 1492.5,0 1611.5,0 1611.5,-30"/>
<text text-anchor="start" x="1500.5" y="-18" font-family="Helvetica,sans-Serif" font-size="10.00">deal.II/numerics/data</text>
<text text-anchor="middle" x="1552" y="-7" font-family="Helvetica,sans-Serif" font-size="10.00">_postprocessor.h</text>
</a>
</g>
</g>
<!-- Node8&#45;&gt;Node10 -->
<g id="edge9_Node000008_Node000010" class="edge">
<title>Node8&#45;&gt;Node10</title>
<g id="a_edge9_Node000008_Node000010"><a xlink:title=" ">
<path fill="none" stroke="#63b8ff" d="M1514.8,-71.37C1520.37,-63.08 1529.03,-50.18 1536.6,-38.92"/>
<polygon fill="#63b8ff" stroke="#63b8ff" points="1539.68,-40.61 1542.35,-30.36 1533.87,-36.71 1539.68,-40.61"/>
</a>
</g>
</g>
<!-- Node23&#45;&gt;Node3 -->
<g id="edge27_Node000023_Node000003" class="edge">
<title>Node23&#45;&gt;Node3</title>
<g id="a_edge27_Node000023_Node000003"><a xlink:title=" ">
<path fill="none" stroke="#63b8ff" d="M481.16,-137.37C446.13,-126.1 384.66,-106.33 345.44,-93.72"/>
<polygon fill="#63b8ff" stroke="#63b8ff" points="346.32,-90.33 335.73,-90.6 344.18,-96.99 346.32,-90.33"/>
</a>
</g>
</g>
<!-- Node23&#45;&gt;Node4 -->
<g id="edge28_Node000023_Node000004" class="edge">
<title>Node23&#45;&gt;Node4</title>
<g id="a_edge28_Node000023_Node000004"><a xlink:title=" ">
<path fill="none" stroke="#63b8ff" d="M469.2,-137.43C460.59,-135.59 451.49,-133.69 443,-132 355.27,-114.58 332.78,-113.15 245,-96 239.53,-94.93 233.82,-93.79 228.14,-92.63"/>
<polygon fill="#63b8ff" stroke="#63b8ff" points="228.5,-89.13 218,-90.54 227.09,-95.98 228.5,-89.13"/>
</a>
</g>
</g>
<!-- Node23&#45;&gt;Node15 -->
<g id="edge29_Node000023_Node000015" class="edge">
<title>Node23&#45;&gt;Node15</title>
<g id="a_edge29_Node000023_Node000015"><a xlink:title=" ">
<path fill="none" stroke="#63b8ff" d="M499.91,-137.37C491.9,-128.83 479.32,-115.41 468.55,-103.92"/>
<polygon fill="#63b8ff" stroke="#63b8ff" points="470.86,-101.26 461.46,-96.36 465.75,-106.05 470.86,-101.26"/>
</a>
</g>
</g>
</g>
</svg>
