<?xml version="1.0" encoding="UTF-8" standalone="no"?>
<!DOCTYPE svg PUBLIC "-//W3C//DTD SVG 1.1//EN"
 "http://www.w3.org/Graphics/SVG/1.1/DTD/svg11.dtd">
<!-- Generated by graphviz version 2.43.0 (0)
 -->
<!-- Title: /home/runner/work/lethe/lethe/source/dem/periodic_boundaries_manipulator.cc Pages: 1 -->
<svg width="2034pt" height="379pt"
 viewBox="0.00 0.00 2033.50 379.00" xmlns="http://www.w3.org/2000/svg" xmlns:xlink="http://www.w3.org/1999/xlink">
<g id="graph0" class="graph" transform="scale(1 1) rotate(0) translate(4 375)">
<title>/home/runner/work/lethe/lethe/source/dem/periodic_boundaries_manipulator.cc</title>
<!-- Node1 -->
<g id="Node000001" class="node">
<title>Node1</title>
<g id="a_Node000001"><a xlink:title=" ">
<polygon fill="#999999" stroke="#666666" points="1210.5,-371 1057.5,-371 1057.5,-330 1210.5,-330 1210.5,-371"/>
<text text-anchor="start" x="1065.5" y="-359" font-family="Helvetica,sans-Serif" font-size="10.00">/home/runner/work/lethe</text>
<text text-anchor="start" x="1065.5" y="-348" font-family="Helvetica,sans-Serif" font-size="10.00">/lethe/source/dem/periodic</text>
<text text-anchor="middle" x="1134" y="-337" font-family="Helvetica,sans-Serif" font-size="10.00">_boundaries_manipulator.cc</text>
</a>
</g>
</g>
<!-- Node2 -->
<g id="Node000002" class="node">
<title>Node2</title>
<g id="a_Node000002"><a xlink:href="tensors__and__points__dimension__manipulation_8h.html" target="_top" xlink:title=" ">
<polygon fill="white" stroke="#666666" points="269,-162 117,-162 117,-132 269,-132 269,-162"/>
<text text-anchor="start" x="125" y="-150" font-family="Helvetica,sans-Serif" font-size="10.00">core/tensors_and_points</text>
<text text-anchor="middle" x="193" y="-139" font-family="Helvetica,sans-Serif" font-size="10.00">_dimension_manipulation.h</text>
</a>
</g>
</g>
<!-- Node1&#45;&gt;Node2 -->
<g id="edge1_Node000001_Node000002" class="edge">
<title>Node1&#45;&gt;Node2</title>
<g id="a_edge1_Node000001_Node000002"><a xlink:title=" ">
<path fill="none" stroke="#63b8ff" d="M1057.31,-348.35C913.07,-343.91 593.51,-323.14 345,-228 301.59,-211.38 254.69,-185.34 224.64,-167.51"/>
<polygon fill="#63b8ff" stroke="#63b8ff" points="226.26,-164.4 215.88,-162.26 222.66,-170.41 226.26,-164.4"/>
</a>
</g>
</g>
<!-- Node5 -->
<g id="Node000005" class="node">
<title>Node5</title>
<g id="a_Node000005"><a xlink:href="periodic__boundaries__manipulator_8h.html" target="_top" xlink:title=" ">
<polygon fill="white" stroke="#666666" points="756,-294 616,-294 616,-264 756,-264 756,-294"/>
<text text-anchor="start" x="624" y="-282" font-family="Helvetica,sans-Serif" font-size="10.00">dem/periodic_boundaries</text>
<text text-anchor="middle" x="686" y="-271" font-family="Helvetica,sans-Serif" font-size="10.00">_manipulator.h</text>
</a>
</g>
</g>
<!-- Node1&#45;&gt;Node5 -->
<g id="edge4_Node000001_Node000005" class="edge">
<title>Node1&#45;&gt;Node5</title>
<g id="a_edge4_Node000001_Node000005"><a xlink:title=" ">
<path fill="none" stroke="#63b8ff" d="M1057.5,-337.63C976.41,-325.05 848.9,-305.27 766.37,-292.47"/>
<polygon fill="#63b8ff" stroke="#63b8ff" points="766.71,-288.98 756.29,-290.9 765.63,-295.9 766.71,-288.98"/>
</a>
</g>
</g>
<!-- Node7 -->
<g id="Node000007" class="node">
<title>Node7</title>
<g id="a_Node000007"><a xlink:title=" ">
<polygon fill="#e0e0e0" stroke="#999999" points="102,-96 0,-96 0,-66 102,-66 102,-96"/>
<text text-anchor="start" x="8" y="-84" font-family="Helvetica,sans-Serif" font-size="10.00">deal.II/distributed</text>
<text text-anchor="middle" x="51" y="-73" font-family="Helvetica,sans-Serif" font-size="10.00">/tria.h</text>
</a>
</g>
</g>
<!-- Node1&#45;&gt;Node7 -->
<g id="edge48_Node000001_Node000007" class="edge">
<title>Node1&#45;&gt;Node7</title>
<g id="a_edge48_Node000001_Node000007"><a xlink:title=" ">
<path fill="none" stroke="#63b8ff" d="M1057.39,-346.35C853.1,-336.99 299.77,-305.03 136,-228 93.67,-208.09 74.99,-203.81 54,-162 45.35,-144.78 45.19,-122.75 46.86,-106.17"/>
<polygon fill="#63b8ff" stroke="#63b8ff" points="50.34,-106.53 48.15,-96.17 43.4,-105.64 50.34,-106.53"/>
</a>
</g>
</g>
<!-- Node16 -->
<g id="Node000016" class="node">
<title>Node16</title>
<g id="a_Node000016"><a xlink:title=" ">
<polygon fill="#e0e0e0" stroke="#999999" points="2025.5,-90.5 1906.5,-90.5 1906.5,-71.5 2025.5,-71.5 2025.5,-90.5"/>
<text text-anchor="middle" x="1966" y="-78.5" font-family="Helvetica,sans-Serif" font-size="10.00">deal.II/fe/fe_values.h</text>
</a>
</g>
</g>
<!-- Node1&#45;&gt;Node16 -->
<g id="edge50_Node000001_Node000016" class="edge">
<title>Node1&#45;&gt;Node16</title>
<g id="a_edge50_Node000001_Node000016"><a xlink:title=" ">
<path fill="none" stroke="#63b8ff" d="M1137.48,-329.78C1141.99,-310.16 1151.81,-280.63 1172,-264 1186.79,-251.82 1745.46,-129.85 1916.65,-92.69"/>
<polygon fill="#63b8ff" stroke="#63b8ff" points="1917.62,-96.06 1926.65,-90.52 1916.13,-89.22 1917.62,-96.06"/>
</a>
</g>
</g>
<!-- Node28 -->
<g id="Node000028" class="node">
<title>Node28</title>
<g id="a_Node000028"><a xlink:title=" ">
<polygon fill="#e0e0e0" stroke="#999999" points="1067.5,-156.5 974.5,-156.5 974.5,-137.5 1067.5,-137.5 1067.5,-156.5"/>
<text text-anchor="middle" x="1021" y="-144.5" font-family="Helvetica,sans-Serif" font-size="10.00">unordered_map</text>
</a>
</g>
</g>
<!-- Node1&#45;&gt;Node28 -->
<g id="edge52_Node000001_Node000028" class="edge">
<title>Node1&#45;&gt;Node28</title>
<g id="a_edge52_Node000001_Node000028"><a xlink:title=" ">
<path fill="none" stroke="#63b8ff" d="M1122.96,-329.81C1100.94,-290.54 1051.86,-203.03 1030.85,-165.57"/>
<polygon fill="#63b8ff" stroke="#63b8ff" points="1033.88,-163.81 1025.93,-156.8 1027.77,-167.23 1033.88,-163.81"/>
</a>
</g>
</g>
<!-- Node32 -->
<g id="Node000032" class="node">
<title>Node32</title>
<g id="a_Node000032"><a xlink:title=" ">
<polygon fill="#e0e0e0" stroke="#999999" points="1310.5,-294 1181.5,-294 1181.5,-264 1310.5,-264 1310.5,-294"/>
<text text-anchor="start" x="1189.5" y="-282" font-family="Helvetica,sans-Serif" font-size="10.00">deal.II/base/quadrature</text>
<text text-anchor="middle" x="1246" y="-271" font-family="Helvetica,sans-Serif" font-size="10.00">_lib.h</text>
</a>
</g>
</g>
<!-- Node1&#45;&gt;Node32 -->
<g id="edge47_Node000001_Node000032" class="edge">
<title>Node1&#45;&gt;Node32</title>
<g id="a_edge47_Node000001_Node000032"><a xlink:title=" ">
<path fill="none" stroke="#63b8ff" d="M1165.5,-329.96C1180.86,-320.42 1199.28,-308.99 1214.63,-299.47"/>
<polygon fill="#63b8ff" stroke="#63b8ff" points="1216.61,-302.36 1223.26,-294.11 1212.91,-296.41 1216.61,-302.36"/>
</a>
</g>
</g>
<!-- Node33 -->
<g id="Node000033" class="node">
<title>Node33</title>
<g id="a_Node000033"><a xlink:title=" ">
<polygon fill="#e0e0e0" stroke="#999999" points="1421,-288.5 1329,-288.5 1329,-269.5 1421,-269.5 1421,-288.5"/>
<text text-anchor="middle" x="1375" y="-276.5" font-family="Helvetica,sans-Serif" font-size="10.00">deal.II/fe/fe_q.h</text>
</a>
</g>
</g>
<!-- Node1&#45;&gt;Node33 -->
<g id="edge49_Node000001_Node000033" class="edge">
<title>Node1&#45;&gt;Node33</title>
<g id="a_edge49_Node000001_Node000033"><a xlink:title=" ">
<path fill="none" stroke="#63b8ff" d="M1201.77,-329.96C1245.04,-317.48 1299.61,-301.74 1335.81,-291.3"/>
<polygon fill="#63b8ff" stroke="#63b8ff" points="1336.87,-294.64 1345.51,-288.5 1334.93,-287.91 1336.87,-294.64"/>
</a>
</g>
</g>
<!-- Node34 -->
<g id="Node000034" class="node">
<title>Node34</title>
<g id="a_Node000034"><a xlink:title=" ">
<polygon fill="#e0e0e0" stroke="#999999" points="1503,-288.5 1439,-288.5 1439,-269.5 1503,-269.5 1503,-288.5"/>
<text text-anchor="middle" x="1471" y="-276.5" font-family="Helvetica,sans-Serif" font-size="10.00">algorithm</text>
</a>
</g>
</g>
<!-- Node1&#45;&gt;Node34 -->
<g id="edge51_Node000001_Node000034" class="edge">
<title>Node1&#45;&gt;Node34</title>
<g id="a_edge51_Node000001_Node000034"><a xlink:title=" ">
<path fill="none" stroke="#63b8ff" d="M1210.72,-338.22C1270.87,-328.63 1356.43,-313.35 1430,-294 1432.64,-293.31 1435.35,-292.53 1438.06,-291.7"/>
<polygon fill="#63b8ff" stroke="#63b8ff" points="1439.31,-294.98 1447.76,-288.58 1437.17,-288.31 1439.31,-294.98"/>
</a>
</g>
</g>
<!-- Node3 -->
<g id="Node000003" class="node">
<title>Node3</title>
<g id="a_Node000003"><a xlink:title=" ">
<polygon fill="#e0e0e0" stroke="#999999" points="230,-90.5 120,-90.5 120,-71.5 230,-71.5 230,-90.5"/>
<text text-anchor="middle" x="175" y="-78.5" font-family="Helvetica,sans-Serif" font-size="10.00">deal.II/base/point.h</text>
</a>
</g>
</g>
<!-- Node2&#45;&gt;Node3 -->
<g id="edge2_Node000002_Node000003" class="edge">
<title>Node2&#45;&gt;Node3</title>
<g id="a_edge2_Node000002_Node000003"><a xlink:title=" ">
<path fill="none" stroke="#63b8ff" d="M189.01,-131.8C186.42,-122.6 183.02,-110.53 180.23,-100.58"/>
<polygon fill="#63b8ff" stroke="#63b8ff" points="183.56,-99.52 177.49,-90.84 176.83,-101.42 183.56,-99.52"/>
</a>
</g>
</g>
<!-- Node4 -->
<g id="Node000004" class="node">
<title>Node4</title>
<g id="a_Node000004"><a xlink:title=" ">
<polygon fill="#e0e0e0" stroke="#999999" points="363.5,-90.5 248.5,-90.5 248.5,-71.5 363.5,-71.5 363.5,-90.5"/>
<text text-anchor="middle" x="306" y="-78.5" font-family="Helvetica,sans-Serif" font-size="10.00">deal.II/base/tensor.h</text>
</a>
</g>
</g>
<!-- Node2&#45;&gt;Node4 -->
<g id="edge3_Node000002_Node000004" class="edge">
<title>Node2&#45;&gt;Node4</title>
<g id="a_edge3_Node000002_Node000004"><a xlink:title=" ">
<path fill="none" stroke="#63b8ff" d="M217.8,-131.95C236.92,-121.13 263.2,-106.24 282.09,-95.54"/>
<polygon fill="#63b8ff" stroke="#63b8ff" points="283.99,-98.49 290.96,-90.52 280.54,-92.4 283.99,-98.49"/>
</a>
</g>
</g>
<!-- Node6 -->
<g id="Node000006" class="node">
<title>Node6</title>
<g id="a_Node000006"><a xlink:href="boundary__cells__info__struct_8h.html" target="_top" xlink:title=" ">
<polygon fill="white" stroke="#666666" points="402.5,-162 287.5,-162 287.5,-132 402.5,-132 402.5,-162"/>
<text text-anchor="start" x="295.5" y="-150" font-family="Helvetica,sans-Serif" font-size="10.00">dem/boundary_cells</text>
<text text-anchor="middle" x="345" y="-139" font-family="Helvetica,sans-Serif" font-size="10.00">_info_struct.h</text>
</a>
</g>
</g>
<!-- Node5&#45;&gt;Node6 -->
<g id="edge5_Node000005_Node000006" class="edge">
<title>Node5&#45;&gt;Node6</title>
<g id="a_edge5_Node000005_Node000006"><a xlink:title=" ">
<path fill="none" stroke="#63b8ff" d="M615.92,-276.03C532.42,-272.2 399.68,-260.97 364,-228 348.82,-213.98 344.73,-190.23 344.05,-172.24"/>
<polygon fill="#63b8ff" stroke="#63b8ff" points="347.55,-172.16 343.98,-162.18 340.55,-172.2 347.55,-172.16"/>
</a>
</g>
</g>
<!-- Node5&#45;&gt;Node7 -->
<g id="edge43_Node000005_Node000007" class="edge">
<title>Node5&#45;&gt;Node7</title>
<g id="a_edge43_Node000005_Node000007"><a xlink:title=" ">
<path fill="none" stroke="#63b8ff" d="M615.98,-274.13C472.24,-264.73 150.9,-235.81 74,-162 58.98,-147.58 53.58,-124.05 51.73,-106.23"/>
<polygon fill="#63b8ff" stroke="#63b8ff" points="55.2,-105.72 50.98,-96.01 48.22,-106.23 55.2,-105.72"/>
</a>
</g>
</g>
<!-- Node8 -->
<g id="Node000008" class="node">
<title>Node8</title>
<g id="a_Node000008"><a xlink:href="data__containers_8h.html" target="_top" xlink:title=" ">
<polygon fill="white" stroke="#666666" points="824,-222.5 696,-222.5 696,-203.5 824,-203.5 824,-222.5"/>
<text text-anchor="middle" x="760" y="-210.5" font-family="Helvetica,sans-Serif" font-size="10.00">dem/data_containers.h</text>
</a>
</g>
</g>
<!-- Node5&#45;&gt;Node8 -->
<g id="edge9_Node000005_Node000008" class="edge">
<title>Node5&#45;&gt;Node8</title>
<g id="a_edge9_Node000005_Node000008"><a xlink:title=" ">
<path fill="none" stroke="#63b8ff" d="M702.42,-263.8C714.19,-253.62 730.02,-239.93 742.1,-229.48"/>
<polygon fill="#63b8ff" stroke="#63b8ff" points="744.5,-232.03 749.77,-222.84 739.92,-226.74 744.5,-232.03"/>
</a>
</g>
</g>
<!-- Node26 -->
<g id="Node000026" class="node">
<title>Node26</title>
<g id="a_Node000026"><a xlink:title=" ">
<polygon fill="#e0e0e0" stroke="#999999" points="1888.5,-90.5 1841.5,-90.5 1841.5,-71.5 1888.5,-71.5 1888.5,-90.5"/>
<text text-anchor="middle" x="1865" y="-78.5" font-family="Helvetica,sans-Serif" font-size="10.00">vector</text>
</a>
</g>
</g>
<!-- Node5&#45;&gt;Node26 -->
<g id="edge46_Node000005_Node000026" class="edge">
<title>Node5&#45;&gt;Node26</title>
<g id="a_edge46_Node000005_Node000026"><a xlink:title=" ">
<path fill="none" stroke="#63b8ff" d="M747.02,-263.99C786.35,-254.61 838.46,-241.55 884,-228 970.49,-202.26 992.46,-196.12 1076,-162 1104.71,-150.27 1108.94,-139.62 1139,-132 1438.4,-56.15 1532.42,-167.05 1833,-96 1834.95,-95.54 1836.92,-94.97 1838.89,-94.31"/>
<polygon fill="#63b8ff" stroke="#63b8ff" points="1840.41,-97.48 1848.45,-90.59 1837.87,-90.96 1840.41,-97.48"/>
</a>
</g>
</g>
<!-- Node5&#45;&gt;Node28 -->
<g id="edge45_Node000005_Node000028" class="edge">
<title>Node5&#45;&gt;Node28</title>
<g id="a_edge45_Node000005_Node000028"><a xlink:title=" ">
<path fill="none" stroke="#63b8ff" d="M730.04,-263.97C759.41,-254.38 798.76,-241.09 833,-228 890.39,-206.06 956.19,-177.19 992.74,-160.81"/>
<polygon fill="#63b8ff" stroke="#63b8ff" points="994.56,-163.83 1002.24,-156.53 991.69,-157.44 994.56,-163.83"/>
</a>
</g>
</g>
<!-- Node30 -->
<g id="Node000030" class="node">
<title>Node30</title>
<g id="a_Node000030"><a xlink:href="dem__action__manager_8h.html" target="_top" xlink:title=" ">
<polygon fill="white" stroke="#666666" points="528.5,-222.5 373.5,-222.5 373.5,-203.5 528.5,-203.5 528.5,-222.5"/>
<text text-anchor="middle" x="451" y="-210.5" font-family="Helvetica,sans-Serif" font-size="10.00">dem/dem_action_manager.h</text>
</a>
</g>
</g>
<!-- Node5&#45;&gt;Node30 -->
<g id="edge42_Node000005_Node000030" class="edge">
<title>Node5&#45;&gt;Node30</title>
<g id="a_edge42_Node000005_Node000030"><a xlink:title=" ">
<path fill="none" stroke="#63b8ff" d="M634.43,-263.95C591.67,-252.31 531.7,-235.98 492.12,-225.2"/>
<polygon fill="#63b8ff" stroke="#63b8ff" points="492.84,-221.77 482.27,-222.52 491,-228.52 492.84,-221.77"/>
</a>
</g>
</g>
<!-- Node31 -->
<g id="Node000031" class="node">
<title>Node31</title>
<g id="a_Node000031"><a xlink:title=" ">
<polygon fill="#e0e0e0" stroke="#999999" points="677.5,-228 546.5,-228 546.5,-198 677.5,-198 677.5,-228"/>
<text text-anchor="start" x="554.5" y="-216" font-family="Helvetica,sans-Serif" font-size="10.00">deal.II/particles/particle</text>
<text text-anchor="middle" x="612" y="-205" font-family="Helvetica,sans-Serif" font-size="10.00">_handler.h</text>
</a>
</g>
</g>
<!-- Node5&#45;&gt;Node31 -->
<g id="edge44_Node000005_Node000031" class="edge">
<title>Node5&#45;&gt;Node31</title>
<g id="a_edge44_Node000005_Node000031"><a xlink:title=" ">
<path fill="none" stroke="#63b8ff" d="M669.58,-263.8C659.71,-255.26 646.98,-244.25 636,-234.75"/>
<polygon fill="#63b8ff" stroke="#63b8ff" points="638.23,-232.06 628.38,-228.16 633.65,-237.35 638.23,-232.06"/>
</a>
</g>
</g>
<!-- Node6&#45;&gt;Node3 -->
<g id="edge6_Node000006_Node000003" class="edge">
<title>Node6&#45;&gt;Node3</title>
<g id="a_edge6_Node000006_Node000003"><a xlink:title=" ">
<path fill="none" stroke="#63b8ff" d="M307.69,-131.95C277.62,-120.63 235.76,-104.88 207.15,-94.1"/>
<polygon fill="#63b8ff" stroke="#63b8ff" points="208.22,-90.77 197.62,-90.52 205.75,-97.32 208.22,-90.77"/>
</a>
</g>
</g>
<!-- Node6&#45;&gt;Node4 -->
<g id="edge7_Node000006_Node000004" class="edge">
<title>Node6&#45;&gt;Node4</title>
<g id="a_edge7_Node000006_Node000004"><a xlink:title=" ">
<path fill="none" stroke="#63b8ff" d="M336.34,-131.8C330.56,-122.31 322.92,-109.76 316.74,-99.63"/>
<polygon fill="#63b8ff" stroke="#63b8ff" points="319.58,-97.56 311.39,-90.84 313.6,-101.21 319.58,-97.56"/>
</a>
</g>
</g>
<!-- Node6&#45;&gt;Node7 -->
<g id="edge8_Node000006_Node000007" class="edge">
<title>Node6&#45;&gt;Node7</title>
<g id="a_edge8_Node000006_Node000007"><a xlink:title=" ">
<path fill="none" stroke="#63b8ff" d="M287.34,-133.81C233.65,-122.44 156.47,-106.03 112.07,-96.21"/>
<polygon fill="#63b8ff" stroke="#63b8ff" points="112.57,-92.73 102.05,-93.98 111.05,-99.57 112.57,-92.73"/>
</a>
</g>
</g>
<!-- Node8&#45;&gt;Node4 -->
<g id="edge36_Node000008_Node000004" class="edge">
<title>Node8&#45;&gt;Node4</title>
<g id="a_edge36_Node000008_Node000004"><a xlink:title=" ">
<path fill="none" stroke="#63b8ff" d="M756.51,-203.4C749.13,-186.42 730.17,-148.78 701,-132 637.25,-95.32 444.62,-107.65 372,-96 365.78,-95 359.25,-93.8 352.83,-92.54"/>
<polygon fill="#63b8ff" stroke="#63b8ff" points="353.38,-89.08 342.88,-90.5 351.98,-95.93 353.38,-89.08"/>
</a>
</g>
</g>
<!-- Node8&#45;&gt;Node6 -->
<g id="edge31_Node000008_Node000006" class="edge">
<title>Node8&#45;&gt;Node6</title>
<g id="a_edge31_Node000008_Node000006"><a xlink:title=" ">
<path fill="none" stroke="#63b8ff" d="M717.03,-203.44C706.87,-201.54 696.07,-199.61 686,-198 567.49,-179.05 534.24,-182.6 412.62,-162.2"/>
<polygon fill="#63b8ff" stroke="#63b8ff" points="412.99,-158.71 402.54,-160.48 411.81,-165.61 412.99,-158.71"/>
</a>
</g>
</g>
<!-- Node8&#45;&gt;Node7 -->
<g id="edge37_Node000008_Node000007" class="edge">
<title>Node8&#45;&gt;Node7</title>
<g id="a_edge37_Node000008_Node000007"><a xlink:title=" ">
<path fill="none" stroke="#63b8ff" d="M719.82,-203.45C708.89,-201.39 697.03,-199.38 686,-198 558.3,-182.01 220.51,-224.48 108,-162 85.66,-149.59 69.94,-124.29 60.75,-105.45"/>
<polygon fill="#63b8ff" stroke="#63b8ff" points="63.89,-103.91 56.53,-96.29 57.53,-106.83 63.89,-103.91"/>
</a>
</g>
</g>
<!-- Node9 -->
<g id="Node000009" class="node">
<title>Node9</title>
<g id="a_Node000009"><a xlink:href="core_2utilities_8h.html" target="_top" xlink:title=" ">
<polygon fill="white" stroke="#666666" points="918,-156.5 832,-156.5 832,-137.5 918,-137.5 918,-156.5"/>
<text text-anchor="middle" x="875" y="-144.5" font-family="Helvetica,sans-Serif" font-size="10.00">core/utilities.h</text>
</a>
</g>
</g>
<!-- Node8&#45;&gt;Node9 -->
<g id="edge10_Node000008_Node000009" class="edge">
<title>Node8&#45;&gt;Node9</title>
<g id="a_edge10_Node000008_Node000009"><a xlink:title=" ">
<path fill="none" stroke="#63b8ff" d="M775.51,-203.37C794.71,-192.68 827.66,-174.35 850.35,-161.72"/>
<polygon fill="#63b8ff" stroke="#63b8ff" points="852.33,-164.62 859.37,-156.7 848.93,-158.5 852.33,-164.62"/>
</a>
</g>
</g>
<!-- Node17 -->
<g id="Node000017" class="node">
<title>Node17</title>
<g id="a_Node000017"><a xlink:title=" ">
<polygon fill="#e0e0e0" stroke="#999999" points="512.5,-96 381.5,-96 381.5,-66 512.5,-66 512.5,-96"/>
<text text-anchor="start" x="389.5" y="-84" font-family="Helvetica,sans-Serif" font-size="10.00">deal.II/particles/particle</text>
<text text-anchor="middle" x="447" y="-73" font-family="Helvetica,sans-Serif" font-size="10.00">_iterator.h</text>
</a>
</g>
</g>
<!-- Node8&#45;&gt;Node17 -->
<g id="edge38_Node000008_Node000017" class="edge">
<title>Node8&#45;&gt;Node17</title>
<g id="a_edge38_Node000008_Node000017"><a xlink:title=" ">
<path fill="none" stroke="#63b8ff" d="M760.05,-203.46C759.66,-186.93 756.27,-150.56 735,-132 664.73,-70.71 619.05,-110.14 522.85,-96.15"/>
<polygon fill="#63b8ff" stroke="#63b8ff" points="523.19,-92.66 512.75,-94.51 522.07,-99.57 523.19,-92.66"/>
</a>
</g>
</g>
<!-- Node8&#45;&gt;Node26 -->
<g id="edge40_Node000008_Node000026" class="edge">
<title>Node8&#45;&gt;Node26</title>
<g id="a_edge40_Node000008_Node000026"><a xlink:title=" ">
<path fill="none" stroke="#63b8ff" d="M804.65,-203.45C839.33,-195.69 887.93,-182.32 927,-162 946.09,-152.07 944.82,-139.48 965,-132 1146.03,-64.92 1644.89,-139.43 1833,-96 1834.95,-95.55 1836.93,-94.98 1838.9,-94.34"/>
<polygon fill="#63b8ff" stroke="#63b8ff" points="1840.41,-97.51 1848.46,-90.62 1837.87,-90.98 1840.41,-97.51"/>
</a>
</g>
</g>
<!-- Node27 -->
<g id="Node000027" class="node">
<title>Node27</title>
<g id="a_Node000027"><a xlink:href="contact__info_8h.html" target="_top" xlink:title=" ">
<polygon fill="white" stroke="#666666" points="692,-156.5 582,-156.5 582,-137.5 692,-137.5 692,-156.5"/>
<text text-anchor="middle" x="637" y="-144.5" font-family="Helvetica,sans-Serif" font-size="10.00">dem/contact_info.h</text>
</a>
</g>
</g>
<!-- Node8&#45;&gt;Node27 -->
<g id="edge32_Node000008_Node000027" class="edge">
<title>Node8&#45;&gt;Node27</title>
<g id="a_edge32_Node000008_Node000027"><a xlink:title=" ">
<path fill="none" stroke="#63b8ff" d="M743.41,-203.37C722.69,-192.59 687,-174.02 662.72,-161.38"/>
<polygon fill="#63b8ff" stroke="#63b8ff" points="664.2,-158.21 653.72,-156.7 660.97,-164.42 664.2,-158.21"/>
</a>
</g>
</g>
<!-- Node8&#45;&gt;Node28 -->
<g id="edge39_Node000008_Node000028" class="edge">
<title>Node8&#45;&gt;Node28</title>
<g id="a_edge39_Node000008_Node000028"><a xlink:title=" ">
<path fill="none" stroke="#63b8ff" d="M794.93,-203.44C841.81,-191.94 925.12,-171.51 976.46,-158.92"/>
<polygon fill="#63b8ff" stroke="#63b8ff" points="977.4,-162.3 986.28,-156.51 975.73,-155.5 977.4,-162.3"/>
</a>
</g>
</g>
<!-- Node29 -->
<g id="Node000029" class="node">
<title>Node29</title>
<g id="a_Node000029"><a xlink:href="unordered__dense_8h.html" target="_top" xlink:title=" ">
<polygon fill="white" stroke="#666666" points="563.5,-156.5 420.5,-156.5 420.5,-137.5 563.5,-137.5 563.5,-156.5"/>
<text text-anchor="middle" x="492" y="-144.5" font-family="Helvetica,sans-Serif" font-size="10.00">ankerl/unordered_dense.h</text>
</a>
</g>
</g>
<!-- Node8&#45;&gt;Node29 -->
<g id="edge41_Node000008_Node000029" class="edge">
<title>Node8&#45;&gt;Node29</title>
<g id="a_edge41_Node000008_Node000029"><a xlink:title=" ">
<path fill="none" stroke="#63b8ff" d="M724.13,-203.44C675.9,-191.92 590.1,-171.43 537.41,-158.84"/>
<polygon fill="#63b8ff" stroke="#63b8ff" points="538.19,-155.43 527.65,-156.51 536.57,-162.24 538.19,-155.43"/>
</a>
</g>
</g>
<!-- Node9&#45;&gt;Node3 -->
<g id="edge16_Node000009_Node000003" class="edge">
<title>Node9&#45;&gt;Node3</title>
<g id="a_edge16_Node000009_Node000003"><a xlink:title=" ">
<path fill="none" stroke="#63b8ff" d="M831.74,-142.49C796.54,-139.64 745.56,-135.53 701,-132 495.69,-115.74 442.75,-126.08 239,-96 232.72,-95.07 226.14,-93.89 219.69,-92.6"/>
<polygon fill="#63b8ff" stroke="#63b8ff" points="220.22,-89.13 209.72,-90.5 218.79,-95.98 220.22,-89.13"/>
</a>
</g>
</g>
<!-- Node9&#45;&gt;Node4 -->
<g id="edge18_Node000009_Node000004" class="edge">
<title>Node9&#45;&gt;Node4</title>
<g id="a_edge18_Node000009_Node000004"><a xlink:title=" ">
<path fill="none" stroke="#63b8ff" d="M831.8,-141.67C804.13,-138.9 767.45,-135.23 735,-132 573.67,-115.93 532.21,-120.86 372,-96 365.77,-95.03 359.24,-93.85 352.82,-92.6"/>
<polygon fill="#63b8ff" stroke="#63b8ff" points="353.37,-89.13 342.87,-90.57 351.97,-95.99 353.37,-89.13"/>
</a>
</g>
</g>
<!-- Node10 -->
<g id="Node000010" class="node">
<title>Node10</title>
<g id="a_Node000010"><a xlink:href="output__struct_8h.html" target="_top" xlink:title=" ">
<polygon fill="white" stroke="#666666" points="1248,-90.5 1134,-90.5 1134,-71.5 1248,-71.5 1248,-90.5"/>
<text text-anchor="middle" x="1191" y="-78.5" font-family="Helvetica,sans-Serif" font-size="10.00">core/output_struct.h</text>
</a>
</g>
</g>
<!-- Node9&#45;&gt;Node10 -->
<g id="edge11_Node000009_Node000010" class="edge">
<title>Node9&#45;&gt;Node10</title>
<g id="a_edge11_Node000009_Node000010"><a xlink:title=" ">
<path fill="none" stroke="#63b8ff" d="M908.39,-137.49C916.12,-135.61 924.33,-133.67 932,-132 1015.11,-113.85 1036.49,-112.23 1120,-96 1125.77,-94.88 1131.8,-93.7 1137.8,-92.52"/>
<polygon fill="#63b8ff" stroke="#63b8ff" points="1138.69,-95.91 1147.83,-90.55 1137.34,-89.05 1138.69,-95.91"/>
</a>
</g>
</g>
<!-- Node11 -->
<g id="Node000011" class="node">
<title>Node11</title>
<g id="a_Node000011"><a xlink:title=" ">
<polygon fill="#e0e0e0" stroke="#999999" points="1156.5,-30 1055.5,-30 1055.5,0 1156.5,0 1156.5,-30"/>
<text text-anchor="start" x="1063.5" y="-18" font-family="Helvetica,sans-Serif" font-size="10.00">deal.II/base/table</text>
<text text-anchor="middle" x="1106" y="-7" font-family="Helvetica,sans-Serif" font-size="10.00">_handler.h</text>
</a>
</g>
</g>
<!-- Node9&#45;&gt;Node11 -->
<g id="edge17_Node000009_Node000011" class="edge">
<title>Node9&#45;&gt;Node11</title>
<g id="a_edge17_Node000009_Node000011"><a xlink:title=" ">
<path fill="none" stroke="#63b8ff" d="M909.35,-137.5C916.81,-135.67 924.67,-133.76 932,-132 1000.35,-115.62 1035.92,-145.32 1086,-96 1100.61,-81.61 1105.13,-58.27 1106.28,-40.51"/>
<polygon fill="#63b8ff" stroke="#63b8ff" points="1109.79,-40.41 1106.62,-30.29 1102.79,-40.17 1109.79,-40.41"/>
</a>
</g>
</g>
<!-- Node13 -->
<g id="Node000013" class="node">
<title>Node13</title>
<g id="a_Node000013"><a xlink:title=" ">
<polygon fill="#e0e0e0" stroke="#999999" points="1396,-96 1266,-96 1266,-66 1396,-66 1396,-96"/>
<text text-anchor="start" x="1274" y="-84" font-family="Helvetica,sans-Serif" font-size="10.00">deal.II/base/conditional</text>
<text text-anchor="middle" x="1331" y="-73" font-family="Helvetica,sans-Serif" font-size="10.00">_ostream.h</text>
</a>
</g>
</g>
<!-- Node9&#45;&gt;Node13 -->
<g id="edge14_Node000009_Node000013" class="edge">
<title>Node9&#45;&gt;Node13</title>
<g id="a_edge14_Node000009_Node000013"><a xlink:title=" ">
<path fill="none" stroke="#63b8ff" d="M906.5,-137.48C914.75,-135.47 923.67,-133.48 932,-132 1071.88,-107.18 1111.51,-117.05 1255.58,-96.13"/>
<polygon fill="#63b8ff" stroke="#63b8ff" points="1256.29,-99.56 1265.68,-94.64 1255.27,-92.64 1256.29,-99.56"/>
</a>
</g>
</g>
<!-- Node14 -->
<g id="Node000014" class="node">
<title>Node14</title>
<g id="a_Node000014"><a xlink:title=" ">
<polygon fill="#e0e0e0" stroke="#999999" points="1541.5,-96 1414.5,-96 1414.5,-66 1541.5,-66 1541.5,-96"/>
<text text-anchor="start" x="1422.5" y="-84" font-family="Helvetica,sans-Serif" font-size="10.00">deal.II/base/parameter</text>
<text text-anchor="middle" x="1478" y="-73" font-family="Helvetica,sans-Serif" font-size="10.00">_handler.h</text>
</a>
</g>
</g>
<!-- Node9&#45;&gt;Node14 -->
<g id="edge15_Node000009_Node000014" class="edge">
<title>Node9&#45;&gt;Node14</title>
<g id="a_edge15_Node000009_Node000014"><a xlink:title=" ">
<path fill="none" stroke="#63b8ff" d="M905.87,-137.43C914.29,-135.37 923.45,-133.37 932,-132 1136.94,-99.26 1194.24,-123.13 1404.25,-95.98"/>
<polygon fill="#63b8ff" stroke="#63b8ff" points="1404.91,-99.42 1414.37,-94.64 1404,-92.48 1404.91,-99.42"/>
</a>
</g>
</g>
<!-- Node15 -->
<g id="Node000015" class="node">
<title>Node15</title>
<g id="a_Node000015"><a xlink:title=" ">
<polygon fill="#e0e0e0" stroke="#999999" points="1700,-90.5 1560,-90.5 1560,-71.5 1700,-71.5 1700,-90.5"/>
<text text-anchor="middle" x="1630" y="-78.5" font-family="Helvetica,sans-Serif" font-size="10.00">deal.II/dofs/dof_handler.h</text>
</a>
</g>
</g>
<!-- Node9&#45;&gt;Node15 -->
<g id="edge19_Node000009_Node000015" class="edge">
<title>Node9&#45;&gt;Node15</title>
<g id="a_edge19_Node000009_Node000015"><a xlink:title=" ">
<path fill="none" stroke="#63b8ff" d="M905.26,-137.48C913.84,-135.36 923.23,-133.32 932,-132 1204.06,-91.02 1276.71,-127.77 1550,-96 1558.65,-94.99 1567.78,-93.66 1576.66,-92.21"/>
<polygon fill="#63b8ff" stroke="#63b8ff" points="1577.26,-95.66 1586.54,-90.54 1576.09,-88.76 1577.26,-95.66"/>
</a>
</g>
</g>
<!-- Node9&#45;&gt;Node16 -->
<g id="edge20_Node000009_Node000016" class="edge">
<title>Node9&#45;&gt;Node16</title>
<g id="a_edge20_Node000009_Node000016"><a xlink:title=" ">
<path fill="none" stroke="#63b8ff" d="M918.36,-138.22C933.11,-135.84 949.73,-133.48 965,-132 1378.05,-92.04 1486.05,-146.01 1898,-96 1905.24,-95.12 1912.85,-93.88 1920.26,-92.49"/>
<polygon fill="#63b8ff" stroke="#63b8ff" points="1921.05,-95.9 1930.19,-90.52 1919.7,-89.03 1921.05,-95.9"/>
</a>
</g>
</g>
<!-- Node9&#45;&gt;Node17 -->
<g id="edge21_Node000009_Node000017" class="edge">
<title>Node9&#45;&gt;Node17</title>
<g id="a_edge21_Node000009_Node000017"><a xlink:title=" ">
<path fill="none" stroke="#63b8ff" d="M831.73,-140C750.04,-128.67 577.01,-104.58 522.69,-96.18"/>
<polygon fill="#63b8ff" stroke="#63b8ff" points="523.16,-92.72 512.74,-94.6 522.07,-99.63 523.16,-92.72"/>
</a>
</g>
</g>
<!-- Node18 -->
<g id="Node000018" class="node">
<title>Node18</title>
<g id="a_Node000018"><a xlink:title=" ">
<polygon fill="#e0e0e0" stroke="#999999" points="1823.5,-96 1718.5,-96 1718.5,-66 1823.5,-66 1823.5,-96"/>
<text text-anchor="start" x="1726.5" y="-84" font-family="Helvetica,sans-Serif" font-size="10.00">boost/archive/text</text>
<text text-anchor="middle" x="1771" y="-73" font-family="Helvetica,sans-Serif" font-size="10.00">_iarchive.hpp</text>
</a>
</g>
</g>
<!-- Node9&#45;&gt;Node18 -->
<g id="edge22_Node000009_Node000018" class="edge">
<title>Node9&#45;&gt;Node18</title>
<g id="a_edge22_Node000009_Node000018"><a xlink:title=" ">
<path fill="none" stroke="#63b8ff" d="M904.96,-137.48C913.62,-135.34 923.13,-133.28 932,-132 1270.89,-83.01 1364.62,-141.12 1708.37,-95.88"/>
<polygon fill="#63b8ff" stroke="#63b8ff" points="1708.9,-99.34 1718.35,-94.55 1707.97,-92.41 1708.9,-99.34"/>
</a>
</g>
</g>
<!-- Node19 -->
<g id="Node000019" class="node">
<title>Node19</title>
<g id="a_Node000019"><a xlink:title=" ">
<polygon fill="#e0e0e0" stroke="#999999" points="635.5,-96 530.5,-96 530.5,-66 635.5,-66 635.5,-96"/>
<text text-anchor="start" x="538.5" y="-84" font-family="Helvetica,sans-Serif" font-size="10.00">boost/archive/text</text>
<text text-anchor="middle" x="583" y="-73" font-family="Helvetica,sans-Serif" font-size="10.00">_oarchive.hpp</text>
</a>
</g>
</g>
<!-- Node9&#45;&gt;Node19 -->
<g id="edge23_Node000009_Node000019" class="edge">
<title>Node9&#45;&gt;Node19</title>
<g id="a_edge23_Node000009_Node000019"><a xlink:title=" ">
<path fill="none" stroke="#63b8ff" d="M835.09,-137.43C791.17,-127.97 718.23,-112.19 645.55,-96.11"/>
<polygon fill="#63b8ff" stroke="#63b8ff" points="646.28,-92.69 635.76,-93.94 644.77,-99.52 646.28,-92.69"/>
</a>
</g>
</g>
<!-- Node20 -->
<g id="Node000020" class="node">
<title>Node20</title>
<g id="a_Node000020"><a xlink:title=" ">
<polygon fill="#e0e0e0" stroke="#999999" points="764,-96 654,-96 654,-66 764,-66 764,-96"/>
<text text-anchor="start" x="662" y="-84" font-family="Helvetica,sans-Serif" font-size="10.00">boost/math/special</text>
<text text-anchor="middle" x="709" y="-73" font-family="Helvetica,sans-Serif" font-size="10.00">_functions/erf.hpp</text>
</a>
</g>
</g>
<!-- Node9&#45;&gt;Node20 -->
<g id="edge24_Node000009_Node000020" class="edge">
<title>Node9&#45;&gt;Node20</title>
<g id="a_edge24_Node000009_Node000020"><a xlink:title=" ">
<path fill="none" stroke="#63b8ff" d="M852.61,-137.37C827.75,-127.78 786.93,-112.05 755.16,-99.8"/>
<polygon fill="#63b8ff" stroke="#63b8ff" points="756.2,-96.45 745.61,-96.12 753.68,-102.98 756.2,-96.45"/>
</a>
</g>
</g>
<!-- Node21 -->
<g id="Node000021" class="node">
<title>Node21</title>
<g id="a_Node000021"><a xlink:title=" ">
<polygon fill="#e0e0e0" stroke="#999999" points="837.5,-90.5 782.5,-90.5 782.5,-71.5 837.5,-71.5 837.5,-90.5"/>
<text text-anchor="middle" x="810" y="-78.5" font-family="Helvetica,sans-Serif" font-size="10.00">fstream</text>
</a>
</g>
</g>
<!-- Node9&#45;&gt;Node21 -->
<g id="edge25_Node000009_Node000021" class="edge">
<title>Node9&#45;&gt;Node21</title>
<g id="a_edge25_Node000009_Node000021"><a xlink:title=" ">
<path fill="none" stroke="#63b8ff" d="M866.23,-137.37C856.02,-127.31 838.92,-110.48 826.26,-98.01"/>
<polygon fill="#63b8ff" stroke="#63b8ff" points="828.63,-95.43 819.04,-90.91 823.71,-100.42 828.63,-95.43"/>
</a>
</g>
</g>
<!-- Node22 -->
<g id="Node000022" class="node">
<title>Node22</title>
<g id="a_Node000022"><a xlink:title=" ">
<polygon fill="#e0e0e0" stroke="#999999" points="894,-90.5 856,-90.5 856,-71.5 894,-71.5 894,-90.5"/>
<text text-anchor="middle" x="875" y="-78.5" font-family="Helvetica,sans-Serif" font-size="10.00">map</text>
</a>
</g>
</g>
<!-- Node9&#45;&gt;Node22 -->
<g id="edge26_Node000009_Node000022" class="edge">
<title>Node9&#45;&gt;Node22</title>
<g id="a_edge26_Node000009_Node000022"><a xlink:title=" ">
<path fill="none" stroke="#63b8ff" d="M875,-137.37C875,-128.16 875,-113.29 875,-101.27"/>
<polygon fill="#63b8ff" stroke="#63b8ff" points="878.5,-100.91 875,-90.91 871.5,-100.91 878.5,-100.91"/>
</a>
</g>
</g>
<!-- Node23 -->
<g id="Node000023" class="node">
<title>Node23</title>
<g id="a_Node000023"><a xlink:title=" ">
<polygon fill="#e0e0e0" stroke="#999999" points="956,-90.5 912,-90.5 912,-71.5 956,-71.5 956,-90.5"/>
<text text-anchor="middle" x="934" y="-78.5" font-family="Helvetica,sans-Serif" font-size="10.00">regex</text>
</a>
</g>
</g>
<!-- Node9&#45;&gt;Node23 -->
<g id="edge27_Node000009_Node000023" class="edge">
<title>Node9&#45;&gt;Node23</title>
<g id="a_edge27_Node000009_Node000023"><a xlink:title=" ">
<path fill="none" stroke="#63b8ff" d="M882.96,-137.37C892.14,-127.4 907.46,-110.79 918.92,-98.36"/>
<polygon fill="#63b8ff" stroke="#63b8ff" points="921.59,-100.63 925.79,-90.91 916.44,-95.89 921.59,-100.63"/>
</a>
</g>
</g>
<!-- Node24 -->
<g id="Node000024" class="node">
<title>Node24</title>
<g id="a_Node000024"><a xlink:title=" ">
<polygon fill="#e0e0e0" stroke="#999999" points="1018,-90.5 974,-90.5 974,-71.5 1018,-71.5 1018,-90.5"/>
<text text-anchor="middle" x="996" y="-78.5" font-family="Helvetica,sans-Serif" font-size="10.00">string</text>
</a>
</g>
</g>
<!-- Node9&#45;&gt;Node24 -->
<g id="edge28_Node000009_Node000024" class="edge">
<title>Node9&#45;&gt;Node24</title>
<g id="a_edge28_Node000009_Node000024"><a xlink:title=" ">
<path fill="none" stroke="#63b8ff" d="M891.32,-137.37C911.71,-126.59 946.81,-108.02 970.7,-95.38"/>
<polygon fill="#63b8ff" stroke="#63b8ff" points="972.35,-98.47 979.55,-90.7 969.08,-92.28 972.35,-98.47"/>
</a>
</g>
</g>
<!-- Node25 -->
<g id="Node000025" class="node">
<title>Node25</title>
<g id="a_Node000025"><a xlink:title=" ">
<polygon fill="#e0e0e0" stroke="#999999" points="1077.5,-90.5 1036.5,-90.5 1036.5,-71.5 1077.5,-71.5 1077.5,-90.5"/>
<text text-anchor="middle" x="1057" y="-78.5" font-family="Helvetica,sans-Serif" font-size="10.00">tuple</text>
</a>
</g>
</g>
<!-- Node9&#45;&gt;Node25 -->
<g id="edge29_Node000009_Node000025" class="edge">
<title>Node9&#45;&gt;Node25</title>
<g id="a_edge29_Node000009_Node000025"><a xlink:title=" ">
<path fill="none" stroke="#63b8ff" d="M904.51,-137.43C935.41,-128.2 985.16,-112.58 1027,-96 1028.02,-95.6 1029.05,-95.18 1030.08,-94.75"/>
<polygon fill="#63b8ff" stroke="#63b8ff" points="1031.65,-97.88 1039.39,-90.64 1028.82,-91.48 1031.65,-97.88"/>
</a>
</g>
</g>
<!-- Node9&#45;&gt;Node26 -->
<g id="edge30_Node000009_Node000026" class="edge">
<title>Node9&#45;&gt;Node26</title>
<g id="a_edge30_Node000009_Node000026"><a xlink:title=" ">
<path fill="none" stroke="#63b8ff" d="M904.95,-137.45C913.61,-135.3 923.12,-133.25 932,-132 1130.41,-103.96 1637.72,-140.94 1833,-96 1834.95,-95.55 1836.93,-94.99 1838.9,-94.34"/>
<polygon fill="#63b8ff" stroke="#63b8ff" points="1840.41,-97.51 1848.46,-90.63 1837.87,-90.98 1840.41,-97.51"/>
</a>
</g>
</g>
<!-- Node10&#45;&gt;Node11 -->
<g id="edge12_Node000010_Node000011" class="edge">
<title>Node10&#45;&gt;Node11</title>
<g id="a_edge12_Node000010_Node000011"><a xlink:title=" ">
<path fill="none" stroke="#63b8ff" d="M1179.54,-71.37C1167.68,-62.44 1148.75,-48.19 1133.06,-36.38"/>
<polygon fill="#63b8ff" stroke="#63b8ff" points="1134.84,-33.33 1124.75,-30.12 1130.63,-38.93 1134.84,-33.33"/>
</a>
</g>
</g>
<!-- Node12 -->
<g id="Node000012" class="node">
<title>Node12</title>
<g id="a_Node000012"><a xlink:title=" ">
<polygon fill="#e0e0e0" stroke="#999999" points="1293.5,-30 1174.5,-30 1174.5,0 1293.5,0 1293.5,-30"/>
<text text-anchor="start" x="1182.5" y="-18" font-family="Helvetica,sans-Serif" font-size="10.00">deal.II/numerics/data</text>
<text text-anchor="middle" x="1234" y="-7" font-family="Helvetica,sans-Serif" font-size="10.00">_postprocessor.h</text>
</a>
</g>
</g>
<!-- Node10&#45;&gt;Node12 -->
<g id="edge13_Node000010_Node000012" class="edge">
<title>Node10&#45;&gt;Node12</title>
<g id="a_edge13_Node000010_Node000012"><a xlink:title=" ">
<path fill="none" stroke="#63b8ff" d="M1196.8,-71.37C1202.37,-63.08 1211.03,-50.18 1218.6,-38.92"/>
<polygon fill="#63b8ff" stroke="#63b8ff" points="1221.68,-40.61 1224.35,-30.36 1215.87,-36.71 1221.68,-40.61"/>
</a>
</g>
</g>
<!-- Node27&#45;&gt;Node3 -->
<g id="edge33_Node000027_Node000003" class="edge">
<title>Node27&#45;&gt;Node3</title>
<g id="a_edge33_Node000027_Node000003"><a xlink:title=" ">
<path fill="none" stroke="#63b8ff" d="M600.69,-137.48C591.37,-135.49 581.34,-133.51 572,-132 425.04,-108.3 385.92,-119.94 239,-96 233.1,-95.04 226.93,-93.88 220.85,-92.65"/>
<polygon fill="#63b8ff" stroke="#63b8ff" points="221.26,-89.16 210.75,-90.53 219.82,-96.01 221.26,-89.16"/>
</a>
</g>
</g>
<!-- Node27&#45;&gt;Node4 -->
<g id="edge34_Node000027_Node000004" class="edge">
<title>Node27&#45;&gt;Node4</title>
<g id="a_edge34_Node000027_Node000004"><a xlink:title=" ">
<path fill="none" stroke="#63b8ff" d="M598.55,-137.49C589.83,-135.63 580.61,-133.7 572,-132 483.4,-114.49 460.63,-113.37 372,-96 366.61,-94.94 360.98,-93.81 355.39,-92.65"/>
<polygon fill="#63b8ff" stroke="#63b8ff" points="355.9,-89.18 345.4,-90.57 354.47,-96.03 355.9,-89.18"/>
</a>
</g>
</g>
<!-- Node27&#45;&gt;Node17 -->
<g id="edge35_Node000027_Node000017" class="edge">
<title>Node27&#45;&gt;Node17</title>
<g id="a_edge35_Node000027_Node000017"><a xlink:title=" ">
<path fill="none" stroke="#63b8ff" d="M611.38,-137.37C582.55,-127.66 534.99,-111.64 498.42,-99.32"/>
<polygon fill="#63b8ff" stroke="#63b8ff" points="499.5,-95.99 488.91,-96.12 497.27,-102.62 499.5,-95.99"/>
</a>
</g>
</g>
</g>
</svg>
