<?xml version="1.0" encoding="UTF-8" standalone="no"?>
<!DOCTYPE svg PUBLIC "-//W3C//DTD SVG 1.1//EN"
 "http://www.w3.org/Graphics/SVG/1.1/DTD/svg11.dtd">
<!-- Generated by graphviz version 2.43.0 (0)
 -->
<!-- Title: /home/runner/work/lethe/lethe/include/core/phase_change.h Pages: 1 -->
<svg width="2861pt" height="434pt"
 viewBox="0.00 0.00 2861.00 434.00" xmlns="http://www.w3.org/2000/svg" xmlns:xlink="http://www.w3.org/1999/xlink">
<g id="graph0" class="graph" transform="scale(1 1) rotate(0) translate(4 430)">
<title>/home/runner/work/lethe/lethe/include/core/phase_change.h</title>
<!-- Node1 -->
<g id="Node000001" class="node">
<title>Node1</title>
<g id="a_Node000001"><a xlink:title=" ">
<polygon fill="#999999" stroke="#666666" points="1209,-426 1070,-426 1070,-385 1209,-385 1209,-426"/>
<text text-anchor="start" x="1078" y="-414" font-family="Helvetica,sans-Serif" font-size="10.00">/home/runner/work/lethe</text>
<text text-anchor="start" x="1078" y="-403" font-family="Helvetica,sans-Serif" font-size="10.00">/lethe/include/core/phase</text>
<text text-anchor="middle" x="1139.5" y="-392" font-family="Helvetica,sans-Serif" font-size="10.00">_change.h</text>
</a>
</g>
</g>
<!-- Node2 -->
<g id="Node000002" class="node">
<title>Node2</title>
<g id="a_Node000002"><a xlink:href="parameters_8h.html" target="_top" xlink:title=" ">
<polygon fill="white" stroke="#666666" points="1192.5,-349 1086.5,-349 1086.5,-330 1192.5,-330 1192.5,-349"/>
<text text-anchor="middle" x="1139.5" y="-337" font-family="Helvetica,sans-Serif" font-size="10.00">core/parameters.h</text>
</a>
</g>
</g>
<!-- Node1&#45;&gt;Node2 -->
<g id="edge1_Node000001_Node000002" class="edge">
<title>Node1&#45;&gt;Node2</title>
<g id="a_edge1_Node000001_Node000002"><a xlink:title=" ">
<path fill="none" stroke="#63b8ff" d="M1139.5,-384.95C1139.5,-376.85 1139.5,-367.5 1139.5,-359.47"/>
<polygon fill="#63b8ff" stroke="#63b8ff" points="1143,-359.26 1139.5,-349.26 1136,-359.26 1143,-359.26"/>
</a>
</g>
</g>
<!-- Node3 -->
<g id="Node000003" class="node">
<title>Node3</title>
<g id="a_Node000003"><a xlink:href="dimensionality_8h.html" target="_top" xlink:title=" ">
<polygon fill="white" stroke="#666666" points="121,-222.5 0,-222.5 0,-203.5 121,-203.5 121,-222.5"/>
<text text-anchor="middle" x="60.5" y="-210.5" font-family="Helvetica,sans-Serif" font-size="10.00">core/dimensionality.h</text>
</a>
</g>
</g>
<!-- Node2&#45;&gt;Node3 -->
<g id="edge2_Node000002_Node000003" class="edge">
<title>Node2&#45;&gt;Node3</title>
<g id="a_edge2_Node000002_Node000003"><a xlink:title=" ">
<path fill="none" stroke="#63b8ff" d="M1086.42,-338.48C891.51,-338.08 222.04,-333.79 135.5,-294 106.5,-280.66 83.31,-250.48 70.77,-231.24"/>
<polygon fill="#63b8ff" stroke="#63b8ff" points="73.61,-229.18 65.34,-222.55 67.67,-232.89 73.61,-229.18"/>
</a>
</g>
</g>
<!-- Node4 -->
<g id="Node000004" class="node">
<title>Node4</title>
<g id="a_Node000004"><a xlink:title=" ">
<polygon fill="#e0e0e0" stroke="#999999" points="213,-96 86,-96 86,-66 213,-66 213,-96"/>
<text text-anchor="start" x="94" y="-84" font-family="Helvetica,sans-Serif" font-size="10.00">deal.II/base/parameter</text>
<text text-anchor="middle" x="149.5" y="-73" font-family="Helvetica,sans-Serif" font-size="10.00">_handler.h</text>
</a>
</g>
</g>
<!-- Node2&#45;&gt;Node4 -->
<g id="edge48_Node000002_Node000004" class="edge">
<title>Node2&#45;&gt;Node4</title>
<g id="a_edge48_Node000002_Node000004"><a xlink:title=" ">
<path fill="none" stroke="#63b8ff" d="M1086.21,-338.35C913.62,-336.89 373.11,-324.56 233.5,-228 190.53,-198.28 166.62,-138.93 156.1,-105.78"/>
<polygon fill="#63b8ff" stroke="#63b8ff" points="159.39,-104.57 153.15,-96.01 152.69,-106.6 159.39,-104.57"/>
</a>
</g>
</g>
<!-- Node5 -->
<g id="Node000005" class="node">
<title>Node5</title>
<g id="a_Node000005"><a xlink:href="ib__particle_8h.html" target="_top" xlink:title=" ">
<polygon fill="white" stroke="#666666" points="749,-288.5 648,-288.5 648,-269.5 749,-269.5 749,-288.5"/>
<text text-anchor="middle" x="698.5" y="-276.5" font-family="Helvetica,sans-Serif" font-size="10.00">core/ib_particle.h</text>
</a>
</g>
</g>
<!-- Node2&#45;&gt;Node5 -->
<g id="edge4_Node000002_Node000005" class="edge">
<title>Node2&#45;&gt;Node5</title>
<g id="a_edge4_Node000002_Node000005"><a xlink:title=" ">
<path fill="none" stroke="#63b8ff" d="M1086.31,-331.44C1003.89,-320.51 845.83,-299.54 759.11,-288.04"/>
<polygon fill="#63b8ff" stroke="#63b8ff" points="759.53,-284.57 749.16,-286.72 758.61,-291.5 759.53,-284.57"/>
</a>
</g>
</g>
<!-- Node13 -->
<g id="Node000013" class="node">
<title>Node13</title>
<g id="a_Node000013"><a xlink:href="utilities_8h.html" target="_top" xlink:title=" ">
<polygon fill="white" stroke="#666666" points="2027.5,-156.5 1941.5,-156.5 1941.5,-137.5 2027.5,-137.5 2027.5,-156.5"/>
<text text-anchor="middle" x="1984.5" y="-144.5" font-family="Helvetica,sans-Serif" font-size="10.00">core/utilities.h</text>
</a>
</g>
</g>
<!-- Node2&#45;&gt;Node13 -->
<g id="edge47_Node000002_Node000013" class="edge">
<title>Node2&#45;&gt;Node13</title>
<g id="a_edge47_Node000002_Node000013"><a xlink:title=" ">
<path fill="none" stroke="#63b8ff" d="M1148.14,-329.87C1164.66,-313.93 1202.57,-280.04 1241.5,-264 1519.98,-149.22 1614.65,-213.04 1911.5,-162 1917.84,-160.91 1924.49,-159.71 1931.07,-158.49"/>
<polygon fill="#63b8ff" stroke="#63b8ff" points="1932.14,-161.85 1941.32,-156.57 1930.84,-154.97 1932.14,-161.85"/>
</a>
</g>
</g>
<!-- Node38 -->
<g id="Node000038" class="node">
<title>Node38</title>
<g id="a_Node000038"><a xlink:title=" ">
<polygon fill="#e0e0e0" stroke="#999999" points="1194,-228 1085,-228 1085,-198 1194,-198 1194,-228"/>
<text text-anchor="start" x="1093" y="-216" font-family="Helvetica,sans-Serif" font-size="10.00">deal.II/base/parsed</text>
<text text-anchor="middle" x="1139.5" y="-205" font-family="Helvetica,sans-Serif" font-size="10.00">_function.h</text>
</a>
</g>
</g>
<!-- Node2&#45;&gt;Node38 -->
<g id="edge49_Node000002_Node000038" class="edge">
<title>Node2&#45;&gt;Node38</title>
<g id="a_edge49_Node000002_Node000038"><a xlink:title=" ">
<path fill="none" stroke="#63b8ff" d="M1139.5,-329.94C1139.5,-311.32 1139.5,-266.53 1139.5,-238.39"/>
<polygon fill="#63b8ff" stroke="#63b8ff" points="1143,-238.16 1139.5,-228.16 1136,-238.16 1143,-238.16"/>
</a>
</g>
</g>
<!-- Node39 -->
<g id="Node000039" class="node">
<title>Node39</title>
<g id="a_Node000039"><a xlink:href="multiphysics_8h.html" target="_top" xlink:title="Identifiers for multiphysics modules and their solution fields.">
<polygon fill="white" stroke="#666666" points="1362.5,-288.5 1250.5,-288.5 1250.5,-269.5 1362.5,-269.5 1362.5,-288.5"/>
<text text-anchor="middle" x="1306.5" y="-276.5" font-family="Helvetica,sans-Serif" font-size="10.00">core/multiphysics.h</text>
</a>
</g>
</g>
<!-- Node2&#45;&gt;Node39 -->
<g id="edge46_Node000002_Node000039" class="edge">
<title>Node2&#45;&gt;Node39</title>
<g id="a_edge46_Node000002_Node000039"><a xlink:title=" ">
<path fill="none" stroke="#63b8ff" d="M1163.78,-329.99C1192.48,-319.94 1240.39,-303.16 1272.7,-291.84"/>
<polygon fill="#63b8ff" stroke="#63b8ff" points="1273.91,-295.13 1282.19,-288.52 1271.59,-288.52 1273.91,-295.13"/>
</a>
</g>
</g>
<!-- Node40 -->
<g id="Node000040" class="node">
<title>Node40</title>
<g id="a_Node000040"><a xlink:title=" ">
<polygon fill="#e0e0e0" stroke="#999999" points="1544,-294 1381,-294 1381,-264 1544,-264 1544,-294"/>
<text text-anchor="start" x="1389" y="-282" font-family="Helvetica,sans-Serif" font-size="10.00">deal.II/multigrid/mg</text>
<text text-anchor="middle" x="1462.5" y="-271" font-family="Helvetica,sans-Serif" font-size="10.00">_transfer_global_coarsening.h</text>
</a>
</g>
</g>
<!-- Node2&#45;&gt;Node40 -->
<g id="edge50_Node000002_Node000040" class="edge">
<title>Node2&#45;&gt;Node40</title>
<g id="a_edge50_Node000002_Node000040"><a xlink:title=" ">
<path fill="none" stroke="#63b8ff" d="M1186.47,-329.99C1235.77,-321.06 1314.43,-306.82 1375.19,-295.81"/>
<polygon fill="#63b8ff" stroke="#63b8ff" points="1375.94,-299.23 1385.16,-294.01 1374.69,-292.35 1375.94,-299.23"/>
</a>
</g>
</g>
<!-- Node3&#45;&gt;Node4 -->
<g id="edge3_Node000003_Node000004" class="edge">
<title>Node3&#45;&gt;Node4</title>
<g id="a_edge3_Node000003_Node000004"><a xlink:title=" ">
<path fill="none" stroke="#63b8ff" d="M66.34,-203.47C79.94,-183.61 114.08,-133.74 134.14,-104.44"/>
<polygon fill="#63b8ff" stroke="#63b8ff" points="137.11,-106.3 139.87,-96.07 131.33,-102.34 137.11,-106.3"/>
</a>
</g>
</g>
<!-- Node6 -->
<g id="Node000006" class="node">
<title>Node6</title>
<g id="a_Node000006"><a xlink:href="dem__properties_8h.html" target="_top" xlink:title="DEM particle property definitions and output name management.">
<polygon fill="white" stroke="#666666" points="341.5,-156.5 215.5,-156.5 215.5,-137.5 341.5,-137.5 341.5,-156.5"/>
<text text-anchor="middle" x="278.5" y="-144.5" font-family="Helvetica,sans-Serif" font-size="10.00">core/dem_properties.h</text>
</a>
</g>
</g>
<!-- Node5&#45;&gt;Node6 -->
<g id="edge5_Node000005_Node000006" class="edge">
<title>Node5&#45;&gt;Node6</title>
<g id="a_edge5_Node000005_Node000006"><a xlink:title=" ">
<path fill="none" stroke="#63b8ff" d="M647.75,-274.64C565.07,-268.5 405.48,-253.68 355.5,-228 326.9,-213.3 302.88,-183.79 289.61,-165.01"/>
<polygon fill="#63b8ff" stroke="#63b8ff" points="292.36,-162.83 283.84,-156.54 286.57,-166.77 292.36,-162.83"/>
</a>
</g>
</g>
<!-- Node8 -->
<g id="Node000008" class="node">
<title>Node8</title>
<g id="a_Node000008"><a xlink:title=" ">
<polygon fill="#e0e0e0" stroke="#999999" points="302,-90.5 255,-90.5 255,-71.5 302,-71.5 302,-90.5"/>
<text text-anchor="middle" x="278.5" y="-78.5" font-family="Helvetica,sans-Serif" font-size="10.00">vector</text>
</a>
</g>
</g>
<!-- Node5&#45;&gt;Node8 -->
<g id="edge45_Node000005_Node000008" class="edge">
<title>Node5&#45;&gt;Node8</title>
<g id="a_edge45_Node000005_Node000008"><a xlink:title=" ">
<path fill="none" stroke="#63b8ff" d="M647.71,-278.13C572.53,-276.85 428.16,-268.68 313.5,-228 260.84,-209.32 233.73,-210.79 206.5,-162 200,-150.36 200.32,-143.81 206.5,-132 215.14,-115.47 232.02,-103.31 247.25,-95.12"/>
<polygon fill="#63b8ff" stroke="#63b8ff" points="249.06,-98.13 256.44,-90.53 245.93,-91.87 249.06,-98.13"/>
</a>
</g>
</g>
<!-- Node9 -->
<g id="Node000009" class="node">
<title>Node9</title>
<g id="a_Node000009"><a xlink:href="shape_8h.html" target="_top" xlink:title=" ">
<polygon fill="white" stroke="#666666" points="1067,-222.5 988,-222.5 988,-203.5 1067,-203.5 1067,-222.5"/>
<text text-anchor="middle" x="1027.5" y="-210.5" font-family="Helvetica,sans-Serif" font-size="10.00">core/shape.h</text>
</a>
</g>
</g>
<!-- Node5&#45;&gt;Node9 -->
<g id="edge8_Node000005_Node000009" class="edge">
<title>Node5&#45;&gt;Node9</title>
<g id="a_edge8_Node000005_Node000009"><a xlink:title=" ">
<path fill="none" stroke="#63b8ff" d="M742.53,-269.44C803.69,-257.54 914.04,-236.07 977.99,-223.63"/>
<polygon fill="#63b8ff" stroke="#63b8ff" points="978.7,-227.06 987.85,-221.71 977.36,-220.19 978.7,-227.06"/>
</a>
</g>
</g>
<!-- Node11 -->
<g id="Node000011" class="node">
<title>Node11</title>
<g id="a_Node000011"><a xlink:title=" ">
<polygon fill="#e0e0e0" stroke="#999999" points="1329.5,-90.5 1219.5,-90.5 1219.5,-71.5 1329.5,-71.5 1329.5,-90.5"/>
<text text-anchor="middle" x="1274.5" y="-78.5" font-family="Helvetica,sans-Serif" font-size="10.00">deal.II/base/point.h</text>
</a>
</g>
</g>
<!-- Node5&#45;&gt;Node11 -->
<g id="edge44_Node000005_Node000011" class="edge">
<title>Node5&#45;&gt;Node11</title>
<g id="a_edge44_Node000005_Node000011"><a xlink:title=" ">
<path fill="none" stroke="#63b8ff" d="M647.95,-272.41C540.78,-258.74 306.98,-218.25 388.5,-132 402.59,-117.09 1006.85,-92.37 1209.23,-84.49"/>
<polygon fill="#63b8ff" stroke="#63b8ff" points="1209.56,-87.98 1219.42,-84.1 1209.29,-80.99 1209.56,-87.98"/>
</a>
</g>
</g>
<!-- Node5&#45;&gt;Node38 -->
<g id="edge43_Node000005_Node000038" class="edge">
<title>Node5&#45;&gt;Node38</title>
<g id="a_edge43_Node000005_Node000038"><a xlink:title=" ">
<path fill="none" stroke="#63b8ff" d="M749.01,-272.66C819.63,-264.89 952.04,-249.24 1074.8,-228.03"/>
<polygon fill="#63b8ff" stroke="#63b8ff" points="1075.5,-231.46 1084.75,-226.29 1074.29,-224.56 1075.5,-231.46"/>
</a>
</g>
</g>
<!-- Node7 -->
<g id="Node000007" class="node">
<title>Node7</title>
<g id="a_Node000007"><a xlink:title=" ">
<polygon fill="#e0e0e0" stroke="#999999" points="783.5,-90.5 739.5,-90.5 739.5,-71.5 783.5,-71.5 783.5,-90.5"/>
<text text-anchor="middle" x="761.5" y="-78.5" font-family="Helvetica,sans-Serif" font-size="10.00">string</text>
</a>
</g>
</g>
<!-- Node6&#45;&gt;Node7 -->
<g id="edge6_Node000006_Node000007" class="edge">
<title>Node6&#45;&gt;Node7</title>
<g id="a_edge6_Node000006_Node000007"><a xlink:title=" ">
<path fill="none" stroke="#63b8ff" d="M322.81,-137.5C333.49,-135.57 344.89,-133.62 355.5,-132 494.12,-110.88 660.41,-92.6 729.24,-85.34"/>
<polygon fill="#63b8ff" stroke="#63b8ff" points="729.85,-88.79 739.43,-84.27 729.12,-81.83 729.85,-88.79"/>
</a>
</g>
</g>
<!-- Node6&#45;&gt;Node8 -->
<g id="edge7_Node000006_Node000008" class="edge">
<title>Node6&#45;&gt;Node8</title>
<g id="a_edge7_Node000006_Node000008"><a xlink:title=" ">
<path fill="none" stroke="#63b8ff" d="M278.5,-137.37C278.5,-128.16 278.5,-113.29 278.5,-101.27"/>
<polygon fill="#63b8ff" stroke="#63b8ff" points="282,-100.91 278.5,-90.91 275,-100.91 282,-100.91"/>
</a>
</g>
</g>
<!-- Node10 -->
<g id="Node000010" class="node">
<title>Node10</title>
<g id="a_Node000010"><a xlink:href="tensors__and__points__dimension__manipulation_8h.html" target="_top" xlink:title=" ">
<polygon fill="white" stroke="#666666" points="1885.5,-162 1733.5,-162 1733.5,-132 1885.5,-132 1885.5,-162"/>
<text text-anchor="start" x="1741.5" y="-150" font-family="Helvetica,sans-Serif" font-size="10.00">core/tensors_and_points</text>
<text text-anchor="middle" x="1809.5" y="-139" font-family="Helvetica,sans-Serif" font-size="10.00">_dimension_manipulation.h</text>
</a>
</g>
</g>
<!-- Node9&#45;&gt;Node10 -->
<g id="edge9_Node000009_Node000010" class="edge">
<title>Node9&#45;&gt;Node10</title>
<g id="a_edge9_Node000009_Node000010"><a xlink:title=" ">
<path fill="none" stroke="#63b8ff" d="M1052.66,-203.49C1059.95,-201.35 1067.97,-199.29 1075.5,-198 1356.91,-149.81 1435.5,-192.5 1722.79,-162.1"/>
<polygon fill="#63b8ff" stroke="#63b8ff" points="1723.53,-165.54 1733.1,-160.98 1722.78,-158.58 1723.53,-165.54"/>
</a>
</g>
</g>
<!-- Node9&#45;&gt;Node13 -->
<g id="edge12_Node000009_Node000013" class="edge">
<title>Node9&#45;&gt;Node13</title>
<g id="a_edge12_Node000009_Node000013"><a xlink:title=" ">
<path fill="none" stroke="#63b8ff" d="M1052.65,-203.43C1059.93,-201.28 1067.96,-199.24 1075.5,-198 1449.48,-136.49 1552.29,-215.46 1927.5,-162 1933.05,-161.21 1938.84,-160.11 1944.52,-158.88"/>
<polygon fill="#63b8ff" stroke="#63b8ff" points="1945.6,-162.22 1954.55,-156.54 1944.01,-155.4 1945.6,-162.22"/>
</a>
</g>
</g>
<!-- Node18 -->
<g id="Node000018" class="node">
<title>Node18</title>
<g id="a_Node000018"><a xlink:title=" ">
<polygon fill="#e0e0e0" stroke="#999999" points="1621.5,-90.5 1481.5,-90.5 1481.5,-71.5 1621.5,-71.5 1621.5,-90.5"/>
<text text-anchor="middle" x="1551.5" y="-78.5" font-family="Helvetica,sans-Serif" font-size="10.00">deal.II/dofs/dof_handler.h</text>
</a>
</g>
</g>
<!-- Node9&#45;&gt;Node18 -->
<g id="edge38_Node000009_Node000018" class="edge">
<title>Node9&#45;&gt;Node18</title>
<g id="a_edge38_Node000009_Node000018"><a xlink:title=" ">
<path fill="none" stroke="#63b8ff" d="M1052.65,-203.44C1059.94,-201.29 1067.96,-199.25 1075.5,-198 1120.43,-190.57 1863.01,-194.9 1894.5,-162 1903.72,-152.37 1903.27,-142.05 1894.5,-132 1855.72,-87.55 1689.79,-105.09 1631.5,-96 1624.04,-94.84 1616.2,-93.55 1608.47,-92.24"/>
<polygon fill="#63b8ff" stroke="#63b8ff" points="1608.86,-88.75 1598.41,-90.51 1607.67,-95.65 1608.86,-88.75"/>
</a>
</g>
</g>
<!-- Node28 -->
<g id="Node000028" class="node">
<title>Node28</title>
<g id="a_Node000028"><a xlink:title=" ">
<polygon fill="#e0e0e0" stroke="#999999" points="1295.5,-162 1143.5,-162 1143.5,-132 1295.5,-132 1295.5,-162"/>
<text text-anchor="start" x="1151.5" y="-150" font-family="Helvetica,sans-Serif" font-size="10.00">deal.II/base/auto_derivative</text>
<text text-anchor="middle" x="1219.5" y="-139" font-family="Helvetica,sans-Serif" font-size="10.00">_function.h</text>
</a>
</g>
</g>
<!-- Node9&#45;&gt;Node28 -->
<g id="edge32_Node000009_Node000028" class="edge">
<title>Node9&#45;&gt;Node28</title>
<g id="a_edge32_Node000009_Node000028"><a xlink:title=" ">
<path fill="none" stroke="#63b8ff" d="M1053.39,-203.37C1082.52,-193.66 1130.58,-177.64 1167.53,-165.32"/>
<polygon fill="#63b8ff" stroke="#63b8ff" points="1168.77,-168.6 1177.15,-162.12 1166.56,-161.96 1168.77,-168.6"/>
</a>
</g>
</g>
<!-- Node29 -->
<g id="Node000029" class="node">
<title>Node29</title>
<g id="a_Node000029"><a xlink:title=" ">
<polygon fill="#e0e0e0" stroke="#999999" points="1439,-156.5 1314,-156.5 1314,-137.5 1439,-137.5 1439,-156.5"/>
<text text-anchor="middle" x="1376.5" y="-144.5" font-family="Helvetica,sans-Serif" font-size="10.00">deal.II/base/function.h</text>
</a>
</g>
</g>
<!-- Node9&#45;&gt;Node29 -->
<g id="edge33_Node000009_Node000029" class="edge">
<title>Node9&#45;&gt;Node29</title>
<g id="a_edge33_Node000009_Node000029"><a xlink:title=" ">
<path fill="none" stroke="#63b8ff" d="M1054.5,-203.47C1061.31,-201.5 1068.64,-199.53 1075.5,-198 1176.05,-175.53 1203.03,-179.84 1304.5,-162 1310.76,-160.9 1317.31,-159.7 1323.8,-158.47"/>
<polygon fill="#63b8ff" stroke="#63b8ff" points="1324.74,-161.86 1333.91,-156.55 1323.43,-154.98 1324.74,-161.86"/>
</a>
</g>
</g>
<!-- Node30 -->
<g id="Node000030" class="node">
<title>Node30</title>
<g id="a_Node000030"><a xlink:title=" ">
<polygon fill="#e0e0e0" stroke="#999999" points="1581.5,-156.5 1457.5,-156.5 1457.5,-137.5 1581.5,-137.5 1581.5,-156.5"/>
<text text-anchor="middle" x="1519.5" y="-144.5" font-family="Helvetica,sans-Serif" font-size="10.00">deal.II/grid/manifold.h</text>
</a>
</g>
</g>
<!-- Node9&#45;&gt;Node30 -->
<g id="edge34_Node000009_Node000030" class="edge">
<title>Node9&#45;&gt;Node30</title>
<g id="a_edge34_Node000009_Node000030"><a xlink:title=" ">
<path fill="none" stroke="#63b8ff" d="M1053.44,-203.47C1060.53,-201.41 1068.25,-199.39 1075.5,-198 1238.61,-166.61 1283.12,-185.88 1447.5,-162 1454.6,-160.97 1462.07,-159.71 1469.4,-158.38"/>
<polygon fill="#63b8ff" stroke="#63b8ff" points="1470.07,-161.81 1479.25,-156.53 1468.78,-154.93 1470.07,-161.81"/>
</a>
</g>
</g>
<!-- Node31 -->
<g id="Node000031" class="node">
<title>Node31</title>
<g id="a_Node000031"><a xlink:title=" ">
<polygon fill="#e0e0e0" stroke="#999999" points="1715,-162 1600,-162 1600,-132 1715,-132 1715,-162"/>
<text text-anchor="start" x="1608" y="-150" font-family="Helvetica,sans-Serif" font-size="10.00">deal.II/grid/manifold</text>
<text text-anchor="middle" x="1657.5" y="-139" font-family="Helvetica,sans-Serif" font-size="10.00">_lib.h</text>
</a>
</g>
</g>
<!-- Node9&#45;&gt;Node31 -->
<g id="edge35_Node000009_Node000031" class="edge">
<title>Node9&#45;&gt;Node31</title>
<g id="a_edge35_Node000009_Node000031"><a xlink:title=" ">
<path fill="none" stroke="#63b8ff" d="M1052.92,-203.49C1060.14,-201.37 1068.07,-199.33 1075.5,-198 1298.17,-158.22 1361.45,-192.54 1589.9,-161.93"/>
<polygon fill="#63b8ff" stroke="#63b8ff" points="1590.41,-165.39 1599.84,-160.57 1589.46,-158.45 1590.41,-165.39"/>
</a>
</g>
</g>
<!-- Node32 -->
<g id="Node000032" class="node">
<title>Node32</title>
<g id="a_Node000032"><a xlink:title=" ">
<polygon fill="#e0e0e0" stroke="#999999" points="513,-162 398,-162 398,-132 513,-132 513,-162"/>
<text text-anchor="start" x="406" y="-150" font-family="Helvetica,sans-Serif" font-size="10.00">boost/range/adaptor</text>
<text text-anchor="middle" x="455.5" y="-139" font-family="Helvetica,sans-Serif" font-size="10.00">/map.hpp</text>
</a>
</g>
</g>
<!-- Node9&#45;&gt;Node32 -->
<g id="edge36_Node000009_Node000032" class="edge">
<title>Node9&#45;&gt;Node32</title>
<g id="a_edge36_Node000009_Node000032"><a xlink:title=" ">
<path fill="none" stroke="#63b8ff" d="M987.71,-209.52C903.78,-203.97 702.36,-189.01 523.3,-162.01"/>
<polygon fill="#63b8ff" stroke="#63b8ff" points="523.59,-158.51 513.17,-160.46 522.53,-165.43 523.59,-158.51"/>
</a>
</g>
</g>
<!-- Node33 -->
<g id="Node000033" class="node">
<title>Node33</title>
<g id="a_Node000033"><a xlink:title=" ">
<polygon fill="#e0e0e0" stroke="#999999" points="647.5,-162 531.5,-162 531.5,-132 647.5,-132 647.5,-162"/>
<text text-anchor="start" x="539.5" y="-150" font-family="Helvetica,sans-Serif" font-size="10.00">deal.II/base/function</text>
<text text-anchor="middle" x="589.5" y="-139" font-family="Helvetica,sans-Serif" font-size="10.00">_signed_distance.h</text>
</a>
</g>
</g>
<!-- Node9&#45;&gt;Node33 -->
<g id="edge37_Node000009_Node000033" class="edge">
<title>Node9&#45;&gt;Node33</title>
<g id="a_edge37_Node000009_Node000033"><a xlink:title=" ">
<path fill="none" stroke="#63b8ff" d="M987.82,-207.6C921.59,-200.06 784.1,-183.52 657.79,-162.14"/>
<polygon fill="#63b8ff" stroke="#63b8ff" points="658,-158.63 647.56,-160.4 656.82,-165.53 658,-158.63"/>
</a>
</g>
</g>
<!-- Node34 -->
<g id="Node000034" class="node">
<title>Node34</title>
<g id="a_Node000034"><a xlink:title=" ">
<polygon fill="#e0e0e0" stroke="#999999" points="793.5,-156.5 665.5,-156.5 665.5,-137.5 793.5,-137.5 793.5,-156.5"/>
<text text-anchor="middle" x="729.5" y="-144.5" font-family="Helvetica,sans-Serif" font-size="10.00">deal.II/dofs/dof_tools.h</text>
</a>
</g>
</g>
<!-- Node9&#45;&gt;Node34 -->
<g id="edge39_Node000009_Node000034" class="edge">
<title>Node9&#45;&gt;Node34</title>
<g id="a_edge39_Node000009_Node000034"><a xlink:title=" ">
<path fill="none" stroke="#63b8ff" d="M987.93,-203.5C934.16,-191.95 838.02,-171.31 779.38,-158.71"/>
<polygon fill="#63b8ff" stroke="#63b8ff" points="779.75,-155.21 769.24,-156.53 778.28,-162.06 779.75,-155.21"/>
</a>
</g>
</g>
<!-- Node35 -->
<g id="Node000035" class="node">
<title>Node35</title>
<g id="a_Node000035"><a xlink:title=" ">
<polygon fill="#e0e0e0" stroke="#999999" points="987.5,-156.5 811.5,-156.5 811.5,-137.5 987.5,-137.5 987.5,-156.5"/>
<text text-anchor="middle" x="899.5" y="-144.5" font-family="Helvetica,sans-Serif" font-size="10.00">deal.II/physics/transformations.h</text>
</a>
</g>
</g>
<!-- Node9&#45;&gt;Node35 -->
<g id="edge40_Node000009_Node000035" class="edge">
<title>Node9&#45;&gt;Node35</title>
<g id="a_edge40_Node000009_Node000035"><a xlink:title=" ">
<path fill="none" stroke="#63b8ff" d="M1010.24,-203.37C988.58,-192.54 951.21,-173.85 925.93,-161.22"/>
<polygon fill="#63b8ff" stroke="#63b8ff" points="927.41,-158.04 916.9,-156.7 924.28,-164.3 927.41,-158.04"/>
</a>
</g>
</g>
<!-- Node36 -->
<g id="Node000036" class="node">
<title>Node36</title>
<g id="a_Node000036"><a xlink:title=" ">
<polygon fill="#e0e0e0" stroke="#999999" points="1049.5,-156.5 1005.5,-156.5 1005.5,-137.5 1049.5,-137.5 1049.5,-156.5"/>
<text text-anchor="middle" x="1027.5" y="-144.5" font-family="Helvetica,sans-Serif" font-size="10.00">cfloat</text>
</a>
</g>
</g>
<!-- Node9&#45;&gt;Node36 -->
<g id="edge41_Node000009_Node000036" class="edge">
<title>Node9&#45;&gt;Node36</title>
<g id="a_edge41_Node000009_Node000036"><a xlink:title=" ">
<path fill="none" stroke="#63b8ff" d="M1027.5,-203.37C1027.5,-194.16 1027.5,-179.29 1027.5,-167.27"/>
<polygon fill="#63b8ff" stroke="#63b8ff" points="1031,-166.91 1027.5,-156.91 1024,-166.91 1031,-166.91"/>
</a>
</g>
</g>
<!-- Node37 -->
<g id="Node000037" class="node">
<title>Node37</title>
<g id="a_Node000037"><a xlink:title=" ">
<polygon fill="#e0e0e0" stroke="#999999" points="1125.5,-156.5 1067.5,-156.5 1067.5,-137.5 1125.5,-137.5 1125.5,-156.5"/>
<text text-anchor="middle" x="1096.5" y="-144.5" font-family="Helvetica,sans-Serif" font-size="10.00">memory</text>
</a>
</g>
</g>
<!-- Node9&#45;&gt;Node37 -->
<g id="edge42_Node000009_Node000037" class="edge">
<title>Node9&#45;&gt;Node37</title>
<g id="a_edge42_Node000009_Node000037"><a xlink:title=" ">
<path fill="none" stroke="#63b8ff" d="M1036.81,-203.37C1047.65,-193.31 1065.8,-176.48 1079.24,-164.01"/>
<polygon fill="#63b8ff" stroke="#63b8ff" points="1081.95,-166.27 1086.9,-156.91 1077.19,-161.14 1081.95,-166.27"/>
</a>
</g>
</g>
<!-- Node10&#45;&gt;Node11 -->
<g id="edge10_Node000010_Node000011" class="edge">
<title>Node10&#45;&gt;Node11</title>
<g id="a_edge10_Node000010_Node000011"><a xlink:title=" ">
<path fill="none" stroke="#63b8ff" d="M1733.08,-133.15C1730.19,-132.75 1727.32,-132.36 1724.5,-132 1553.61,-109.99 1508.76,-122.46 1338.5,-96 1332.52,-95.07 1326.27,-93.92 1320.11,-92.69"/>
<polygon fill="#63b8ff" stroke="#63b8ff" points="1320.4,-89.18 1309.9,-90.55 1318.97,-96.03 1320.4,-89.18"/>
</a>
</g>
</g>
<!-- Node12 -->
<g id="Node000012" class="node">
<title>Node12</title>
<g id="a_Node000012"><a xlink:title=" ">
<polygon fill="#e0e0e0" stroke="#999999" points="1463,-90.5 1348,-90.5 1348,-71.5 1463,-71.5 1463,-90.5"/>
<text text-anchor="middle" x="1405.5" y="-78.5" font-family="Helvetica,sans-Serif" font-size="10.00">deal.II/base/tensor.h</text>
</a>
</g>
</g>
<!-- Node10&#45;&gt;Node12 -->
<g id="edge11_Node000010_Node000012" class="edge">
<title>Node10&#45;&gt;Node12</title>
<g id="a_edge11_Node000010_Node000012"><a xlink:title=" ">
<path fill="none" stroke="#63b8ff" d="M1733.06,-133.33C1730.17,-132.88 1727.31,-132.43 1724.5,-132 1612.68,-114.81 1583.93,-115.58 1472.5,-96 1466.65,-94.97 1460.53,-93.81 1454.47,-92.61"/>
<polygon fill="#63b8ff" stroke="#63b8ff" points="1454.89,-89.12 1444.39,-90.57 1453.49,-95.98 1454.89,-89.12"/>
</a>
</g>
</g>
<!-- Node13&#45;&gt;Node4 -->
<g id="edge16_Node000013_Node000004" class="edge">
<title>Node13&#45;&gt;Node4</title>
<g id="a_edge16_Node000013_Node000004"><a xlink:title=" ">
<path fill="none" stroke="#63b8ff" d="M1941.15,-138.07C1926.4,-135.69 1909.78,-133.35 1894.5,-132 1164.28,-67.52 976.02,-157.01 245.5,-96 238.29,-95.4 230.79,-94.6 223.31,-93.7"/>
<polygon fill="#63b8ff" stroke="#63b8ff" points="223.51,-90.19 213.15,-92.4 222.62,-97.14 223.51,-90.19"/>
</a>
</g>
</g>
<!-- Node13&#45;&gt;Node7 -->
<g id="edge29_Node000013_Node000007" class="edge">
<title>Node13&#45;&gt;Node7</title>
<g id="a_edge29_Node000013_Node000007"><a xlink:title=" ">
<path fill="none" stroke="#63b8ff" d="M1941.14,-138.26C1926.38,-135.9 1909.76,-133.52 1894.5,-132 1672.33,-109.89 954.61,-87.71 793.71,-82.94"/>
<polygon fill="#63b8ff" stroke="#63b8ff" points="793.61,-79.44 783.51,-82.64 793.41,-86.43 793.61,-79.44"/>
</a>
</g>
</g>
<!-- Node13&#45;&gt;Node8 -->
<g id="edge31_Node000013_Node000008" class="edge">
<title>Node13&#45;&gt;Node8</title>
<g id="a_edge31_Node000013_Node000008"><a xlink:title=" ">
<path fill="none" stroke="#63b8ff" d="M1941.15,-138.15C1926.39,-135.77 1909.77,-133.42 1894.5,-132 1379.14,-84.13 1247.83,-112.01 730.5,-96 574.18,-91.16 387.45,-85.38 312.29,-83.05"/>
<polygon fill="#63b8ff" stroke="#63b8ff" points="312.13,-79.54 302.03,-82.73 311.91,-86.54 312.13,-79.54"/>
</a>
</g>
</g>
<!-- Node13&#45;&gt;Node11 -->
<g id="edge17_Node000013_Node000011" class="edge">
<title>Node13&#45;&gt;Node11</title>
<g id="a_edge17_Node000013_Node000011"><a xlink:title=" ">
<path fill="none" stroke="#63b8ff" d="M1941.12,-138.45C1926.36,-136.09 1909.75,-133.68 1894.5,-132 1648.35,-104.94 1583.71,-130.56 1338.5,-96 1332.14,-95.1 1325.48,-93.92 1318.95,-92.63"/>
<polygon fill="#63b8ff" stroke="#63b8ff" points="1319.38,-89.14 1308.87,-90.52 1317.94,-95.99 1319.38,-89.14"/>
</a>
</g>
</g>
<!-- Node13&#45;&gt;Node12 -->
<g id="edge19_Node000013_Node000012" class="edge">
<title>Node13&#45;&gt;Node12</title>
<g id="a_edge19_Node000013_Node000012"><a xlink:title=" ">
<path fill="none" stroke="#63b8ff" d="M1941.1,-138.63C1926.34,-136.29 1909.73,-133.83 1894.5,-132 1707.61,-109.52 1658.75,-123.3 1472.5,-96 1465.86,-95.03 1458.9,-93.8 1452.07,-92.49"/>
<polygon fill="#63b8ff" stroke="#63b8ff" points="1452.71,-89.04 1442.22,-90.51 1451.33,-95.91 1452.71,-89.04"/>
</a>
</g>
</g>
<!-- Node14 -->
<g id="Node000014" class="node">
<title>Node14</title>
<g id="a_Node000014"><a xlink:href="output__struct_8h.html" target="_top" xlink:title=" ">
<polygon fill="#fff0f0" stroke="red" points="2257.5,-90.5 2143.5,-90.5 2143.5,-71.5 2257.5,-71.5 2257.5,-90.5"/>
<text text-anchor="middle" x="2200.5" y="-78.5" font-family="Helvetica,sans-Serif" font-size="10.00">core/output_struct.h</text>
</a>
</g>
</g>
<!-- Node13&#45;&gt;Node14 -->
<g id="edge13_Node000013_Node000014" class="edge">
<title>Node13&#45;&gt;Node14</title>
<g id="a_edge13_Node000013_Node000014"><a xlink:title=" ">
<path fill="none" stroke="#63b8ff" d="M2013.63,-137.37C2051.9,-126.03 2119.23,-106.08 2161.76,-93.48"/>
<polygon fill="#63b8ff" stroke="#63b8ff" points="2162.89,-96.79 2171.49,-90.6 2160.9,-90.08 2162.89,-96.79"/>
</a>
</g>
</g>
<!-- Node15 -->
<g id="Node000015" class="node">
<title>Node15</title>
<g id="a_Node000015"><a xlink:title=" ">
<polygon fill="#e0e0e0" stroke="#999999" points="2293,-30 2192,-30 2192,0 2293,0 2293,-30"/>
<text text-anchor="start" x="2200" y="-18" font-family="Helvetica,sans-Serif" font-size="10.00">deal.II/base/table</text>
<text text-anchor="middle" x="2242.5" y="-7" font-family="Helvetica,sans-Serif" font-size="10.00">_handler.h</text>
</a>
</g>
</g>
<!-- Node13&#45;&gt;Node15 -->
<g id="edge18_Node000013_Node000015" class="edge">
<title>Node13&#45;&gt;Node15</title>
<g id="a_edge18_Node000013_Node000015"><a xlink:title=" ">
<path fill="none" stroke="#63b8ff" d="M2027.55,-144.86C2098.83,-141.97 2236.51,-131.77 2266.5,-96 2280.14,-79.72 2270.32,-55.88 2259.41,-38.46"/>
<polygon fill="#63b8ff" stroke="#63b8ff" points="2262.22,-36.36 2253.73,-30.01 2256.41,-40.27 2262.22,-36.36"/>
</a>
</g>
</g>
<!-- Node17 -->
<g id="Node000017" class="node">
<title>Node17</title>
<g id="a_Node000017"><a xlink:title=" ">
<polygon fill="#e0e0e0" stroke="#999999" points="2443.5,-96 2313.5,-96 2313.5,-66 2443.5,-66 2443.5,-96"/>
<text text-anchor="start" x="2321.5" y="-84" font-family="Helvetica,sans-Serif" font-size="10.00">deal.II/base/conditional</text>
<text text-anchor="middle" x="2378.5" y="-73" font-family="Helvetica,sans-Serif" font-size="10.00">_ostream.h</text>
</a>
</g>
</g>
<!-- Node13&#45;&gt;Node17 -->
<g id="edge15_Node000013_Node000017" class="edge">
<title>Node13&#45;&gt;Node17</title>
<g id="a_edge15_Node000013_Node000017"><a xlink:title=" ">
<path fill="none" stroke="#63b8ff" d="M2027.59,-139.41C2088.3,-130.07 2202.44,-112.3 2299.5,-96 2300.77,-95.79 2302.06,-95.57 2303.36,-95.35"/>
<polygon fill="#63b8ff" stroke="#63b8ff" points="2304.15,-98.76 2313.42,-93.63 2302.97,-91.86 2304.15,-98.76"/>
</a>
</g>
</g>
<!-- Node13&#45;&gt;Node18 -->
<g id="edge20_Node000013_Node000018" class="edge">
<title>Node13&#45;&gt;Node18</title>
<g id="a_edge20_Node000013_Node000018"><a xlink:title=" ">
<path fill="none" stroke="#63b8ff" d="M1952.69,-137.47C1944.52,-135.48 1935.72,-133.5 1927.5,-132 1797.14,-108.15 1762.59,-115.43 1631.5,-96 1623.85,-94.87 1615.81,-93.58 1607.89,-92.25"/>
<polygon fill="#63b8ff" stroke="#63b8ff" points="1608.41,-88.79 1597.97,-90.55 1607.24,-95.69 1608.41,-88.79"/>
</a>
</g>
</g>
<!-- Node19 -->
<g id="Node000019" class="node">
<title>Node19</title>
<g id="a_Node000019"><a xlink:title=" ">
<polygon fill="#e0e0e0" stroke="#999999" points="2581,-90.5 2462,-90.5 2462,-71.5 2581,-71.5 2581,-90.5"/>
<text text-anchor="middle" x="2521.5" y="-78.5" font-family="Helvetica,sans-Serif" font-size="10.00">deal.II/fe/fe_values.h</text>
</a>
</g>
</g>
<!-- Node13&#45;&gt;Node19 -->
<g id="edge21_Node000013_Node000019" class="edge">
<title>Node13&#45;&gt;Node19</title>
<g id="a_edge21_Node000013_Node000019"><a xlink:title=" ">
<path fill="none" stroke="#63b8ff" d="M2027.58,-142.76C2110.27,-136.23 2296.85,-120.05 2452.5,-96 2458.92,-95.01 2465.65,-93.82 2472.28,-92.57"/>
<polygon fill="#63b8ff" stroke="#63b8ff" points="2473.43,-95.91 2482.57,-90.56 2472.08,-89.04 2473.43,-95.91"/>
</a>
</g>
</g>
<!-- Node20 -->
<g id="Node000020" class="node">
<title>Node20</title>
<g id="a_Node000020"><a xlink:title=" ">
<polygon fill="#e0e0e0" stroke="#999999" points="2730,-96 2599,-96 2599,-66 2730,-66 2730,-96"/>
<text text-anchor="start" x="2607" y="-84" font-family="Helvetica,sans-Serif" font-size="10.00">deal.II/particles/particle</text>
<text text-anchor="middle" x="2664.5" y="-73" font-family="Helvetica,sans-Serif" font-size="10.00">_iterator.h</text>
</a>
</g>
</g>
<!-- Node13&#45;&gt;Node20 -->
<g id="edge22_Node000013_Node000020" class="edge">
<title>Node13&#45;&gt;Node20</title>
<g id="a_edge22_Node000013_Node000020"><a xlink:title=" ">
<path fill="none" stroke="#63b8ff" d="M2027.65,-143.99C2125.69,-139.1 2372.86,-124.89 2588.85,-96.14"/>
<polygon fill="#63b8ff" stroke="#63b8ff" points="2589.35,-99.6 2598.79,-94.8 2588.41,-92.66 2589.35,-99.6"/>
</a>
</g>
</g>
<!-- Node21 -->
<g id="Node000021" class="node">
<title>Node21</title>
<g id="a_Node000021"><a xlink:title=" ">
<polygon fill="#e0e0e0" stroke="#999999" points="2853,-96 2748,-96 2748,-66 2853,-66 2853,-96"/>
<text text-anchor="start" x="2756" y="-84" font-family="Helvetica,sans-Serif" font-size="10.00">boost/archive/text</text>
<text text-anchor="middle" x="2800.5" y="-73" font-family="Helvetica,sans-Serif" font-size="10.00">_iarchive.hpp</text>
</a>
</g>
</g>
<!-- Node13&#45;&gt;Node21 -->
<g id="edge23_Node000013_Node000021" class="edge">
<title>Node13&#45;&gt;Node21</title>
<g id="a_edge23_Node000013_Node000021"><a xlink:title=" ">
<path fill="none" stroke="#63b8ff" d="M2027.74,-145.54C2142.25,-143.82 2462.84,-135.68 2737.53,-96.14"/>
<polygon fill="#63b8ff" stroke="#63b8ff" points="2738.31,-99.57 2747.7,-94.66 2737.3,-92.64 2738.31,-99.57"/>
</a>
</g>
</g>
<!-- Node22 -->
<g id="Node000022" class="node">
<title>Node22</title>
<g id="a_Node000022"><a xlink:title=" ">
<polygon fill="#e0e0e0" stroke="#999999" points="1745,-96 1640,-96 1640,-66 1745,-66 1745,-96"/>
<text text-anchor="start" x="1648" y="-84" font-family="Helvetica,sans-Serif" font-size="10.00">boost/archive/text</text>
<text text-anchor="middle" x="1692.5" y="-73" font-family="Helvetica,sans-Serif" font-size="10.00">_oarchive.hpp</text>
</a>
</g>
</g>
<!-- Node13&#45;&gt;Node22 -->
<g id="edge24_Node000013_Node000022" class="edge">
<title>Node13&#45;&gt;Node22</title>
<g id="a_edge24_Node000013_Node000022"><a xlink:title=" ">
<path fill="none" stroke="#63b8ff" d="M1950.49,-137.44C1942.93,-135.59 1934.95,-133.69 1927.5,-132 1853.9,-115.31 1832.87,-112.83 1755.03,-96.09"/>
<polygon fill="#63b8ff" stroke="#63b8ff" points="1755.77,-92.67 1745.25,-93.98 1754.29,-99.51 1755.77,-92.67"/>
</a>
</g>
</g>
<!-- Node23 -->
<g id="Node000023" class="node">
<title>Node23</title>
<g id="a_Node000023"><a xlink:title=" ">
<polygon fill="#e0e0e0" stroke="#999999" points="1873.5,-96 1763.5,-96 1763.5,-66 1873.5,-66 1873.5,-96"/>
<text text-anchor="start" x="1771.5" y="-84" font-family="Helvetica,sans-Serif" font-size="10.00">boost/math/special</text>
<text text-anchor="middle" x="1818.5" y="-73" font-family="Helvetica,sans-Serif" font-size="10.00">_functions/erf.hpp</text>
</a>
</g>
</g>
<!-- Node13&#45;&gt;Node23 -->
<g id="edge25_Node000013_Node000023" class="edge">
<title>Node13&#45;&gt;Node23</title>
<g id="a_edge25_Node000013_Node000023"><a xlink:title=" ">
<path fill="none" stroke="#63b8ff" d="M1962.11,-137.37C1937.25,-127.78 1896.43,-112.05 1864.66,-99.8"/>
<polygon fill="#63b8ff" stroke="#63b8ff" points="1865.7,-96.45 1855.11,-96.12 1863.18,-102.98 1865.7,-96.45"/>
</a>
</g>
</g>
<!-- Node24 -->
<g id="Node000024" class="node">
<title>Node24</title>
<g id="a_Node000024"><a xlink:title=" ">
<polygon fill="#e0e0e0" stroke="#999999" points="1947,-90.5 1892,-90.5 1892,-71.5 1947,-71.5 1947,-90.5"/>
<text text-anchor="middle" x="1919.5" y="-78.5" font-family="Helvetica,sans-Serif" font-size="10.00">fstream</text>
</a>
</g>
</g>
<!-- Node13&#45;&gt;Node24 -->
<g id="edge26_Node000013_Node000024" class="edge">
<title>Node13&#45;&gt;Node24</title>
<g id="a_edge26_Node000013_Node000024"><a xlink:title=" ">
<path fill="none" stroke="#63b8ff" d="M1975.73,-137.37C1965.52,-127.31 1948.42,-110.48 1935.76,-98.01"/>
<polygon fill="#63b8ff" stroke="#63b8ff" points="1938.13,-95.43 1928.54,-90.91 1933.21,-100.42 1938.13,-95.43"/>
</a>
</g>
</g>
<!-- Node25 -->
<g id="Node000025" class="node">
<title>Node25</title>
<g id="a_Node000025"><a xlink:title=" ">
<polygon fill="#e0e0e0" stroke="#999999" points="2003.5,-90.5 1965.5,-90.5 1965.5,-71.5 2003.5,-71.5 2003.5,-90.5"/>
<text text-anchor="middle" x="1984.5" y="-78.5" font-family="Helvetica,sans-Serif" font-size="10.00">map</text>
</a>
</g>
</g>
<!-- Node13&#45;&gt;Node25 -->
<g id="edge27_Node000013_Node000025" class="edge">
<title>Node13&#45;&gt;Node25</title>
<g id="a_edge27_Node000013_Node000025"><a xlink:title=" ">
<path fill="none" stroke="#63b8ff" d="M1984.5,-137.37C1984.5,-128.16 1984.5,-113.29 1984.5,-101.27"/>
<polygon fill="#63b8ff" stroke="#63b8ff" points="1988,-100.91 1984.5,-90.91 1981,-100.91 1988,-100.91"/>
</a>
</g>
</g>
<!-- Node26 -->
<g id="Node000026" class="node">
<title>Node26</title>
<g id="a_Node000026"><a xlink:title=" ">
<polygon fill="#e0e0e0" stroke="#999999" points="2065.5,-90.5 2021.5,-90.5 2021.5,-71.5 2065.5,-71.5 2065.5,-90.5"/>
<text text-anchor="middle" x="2043.5" y="-78.5" font-family="Helvetica,sans-Serif" font-size="10.00">regex</text>
</a>
</g>
</g>
<!-- Node13&#45;&gt;Node26 -->
<g id="edge28_Node000013_Node000026" class="edge">
<title>Node13&#45;&gt;Node26</title>
<g id="a_edge28_Node000013_Node000026"><a xlink:title=" ">
<path fill="none" stroke="#63b8ff" d="M1992.46,-137.37C2001.64,-127.4 2016.96,-110.79 2028.42,-98.36"/>
<polygon fill="#63b8ff" stroke="#63b8ff" points="2031.09,-100.63 2035.29,-90.91 2025.94,-95.89 2031.09,-100.63"/>
</a>
</g>
</g>
<!-- Node27 -->
<g id="Node000027" class="node">
<title>Node27</title>
<g id="a_Node000027"><a xlink:title=" ">
<polygon fill="#e0e0e0" stroke="#999999" points="2125,-90.5 2084,-90.5 2084,-71.5 2125,-71.5 2125,-90.5"/>
<text text-anchor="middle" x="2104.5" y="-78.5" font-family="Helvetica,sans-Serif" font-size="10.00">tuple</text>
</a>
</g>
</g>
<!-- Node13&#45;&gt;Node27 -->
<g id="edge30_Node000013_Node000027" class="edge">
<title>Node13&#45;&gt;Node27</title>
<g id="a_edge30_Node000013_Node000027"><a xlink:title=" ">
<path fill="none" stroke="#63b8ff" d="M2000.68,-137.37C2020.81,-126.63 2055.41,-108.18 2079.09,-95.55"/>
<polygon fill="#63b8ff" stroke="#63b8ff" points="2081.01,-98.49 2088.19,-90.7 2077.72,-92.32 2081.01,-98.49"/>
</a>
</g>
</g>
<!-- Node14&#45;&gt;Node15 -->
<g id="edge14_Node000014_Node000015" class="edge">
<title>Node14&#45;&gt;Node15</title>
<g id="a_edge14_Node000014_Node000015"><a xlink:title=" ">
<path fill="none" stroke="#63b8ff" d="M2206.16,-71.37C2211.61,-63.08 2220.07,-50.18 2227.46,-38.92"/>
<polygon fill="#63b8ff" stroke="#63b8ff" points="2230.52,-40.64 2233.08,-30.36 2224.66,-36.8 2230.52,-40.64"/>
</a>
</g>
</g>
</g>
</svg>
