<?xml version="1.0" encoding="UTF-8" standalone="no"?>
<!DOCTYPE svg PUBLIC "-//W3C//DTD SVG 1.1//EN"
 "http://www.w3.org/Graphics/SVG/1.1/DTD/svg11.dtd">
<!-- Generated by graphviz version 2.43.0 (0)
 -->
<!-- Title: /home/runner/work/lethe/lethe/include/solvers/physics_subequations_solver.h Pages: 1 -->
<svg width="1841pt" height="390pt"
 viewBox="0.00 0.00 1840.50 390.00" xmlns="http://www.w3.org/2000/svg" xmlns:xlink="http://www.w3.org/1999/xlink">
<g id="graph0" class="graph" transform="scale(1 1) rotate(0) translate(4 386)">
<title>/home/runner/work/lethe/lethe/include/solvers/physics_subequations_solver.h</title>
<!-- Node1 -->
<g id="Node000001" class="node">
<title>Node1</title>
<g id="a_Node000001"><a xlink:title=" ">
<polygon fill="#999999" stroke="#666666" points="1435.5,-382 1265.5,-382 1265.5,-341 1435.5,-341 1435.5,-382"/>
<text text-anchor="start" x="1273.5" y="-370" font-family="Helvetica,sans-Serif" font-size="10.00">/home/runner/work/lethe</text>
<text text-anchor="start" x="1273.5" y="-359" font-family="Helvetica,sans-Serif" font-size="10.00">/lethe/include/solvers</text>
<text text-anchor="middle" x="1350.5" y="-348" font-family="Helvetica,sans-Serif" font-size="10.00">/physics_subequations_solver.h</text>
</a>
</g>
</g>
<!-- Node2 -->
<g id="Node000002" class="node">
<title>Node2</title>
<g id="a_Node000002"><a xlink:href="particle__projector_8h.html" target="_top" xlink:title=" ">
<polygon fill="white" stroke="#666666" points="638,-305 501,-305 501,-264 638,-264 638,-305"/>
<text text-anchor="start" x="509" y="-293" font-family="Helvetica,sans-Serif" font-size="10.00">/home/runner/work/lethe</text>
<text text-anchor="start" x="509" y="-282" font-family="Helvetica,sans-Serif" font-size="10.00">/lethe/include/fem&#45;dem</text>
<text text-anchor="middle" x="569.5" y="-271" font-family="Helvetica,sans-Serif" font-size="10.00">/particle_projector.h</text>
</a>
</g>
</g>
<!-- Node1&#45;&gt;Node2 -->
<g id="edge1_Node000001_Node000002" class="edge">
<title>Node1&#45;&gt;Node2</title>
<g id="a_edge1_Node000001_Node000002"><a xlink:title=" ">
<path fill="none" stroke="#63b8ff" d="M1255.15,-351.34C1095.54,-336.02 778.03,-305.53 638.26,-292.1"/>
<polygon fill="#63b8ff" stroke="#63b8ff" points="1255.14,-354.86 1265.43,-352.33 1255.81,-347.89 1255.14,-354.86"/>
</a>
</g>
</g>
<!-- Node14 -->
<g id="Node000014" class="node">
<title>Node14</title>
<g id="a_Node000014"><a xlink:href="cls__linear__subequations__solver_8h.html" target="_top" xlink:title=" ">
<polygon fill="white" stroke="#666666" points="1365,-228 1228,-228 1228,-176 1365,-176 1365,-228"/>
<text text-anchor="start" x="1236" y="-216" font-family="Helvetica,sans-Serif" font-size="10.00">/home/runner/work/lethe</text>
<text text-anchor="start" x="1236" y="-205" font-family="Helvetica,sans-Serif" font-size="10.00">/lethe/include/solvers</text>
<text text-anchor="start" x="1236" y="-194" font-family="Helvetica,sans-Serif" font-size="10.00">/cls_linear_subequations</text>
<text text-anchor="middle" x="1296.5" y="-183" font-family="Helvetica,sans-Serif" font-size="10.00">_solver.h</text>
</a>
</g>
</g>
<!-- Node1&#45;&gt;Node14 -->
<g id="edge16_Node000001_Node000014" class="edge">
<title>Node1&#45;&gt;Node14</title>
<g id="a_edge16_Node000001_Node000014"><a xlink:title=" ">
<path fill="none" stroke="#63b8ff" d="M1329.98,-332.53C1324.56,-324.04 1319.2,-314.45 1315.5,-305 1305.64,-279.84 1300.81,-249.15 1298.51,-228.04"/>
<polygon fill="#63b8ff" stroke="#63b8ff" points="1327.12,-334.55 1335.58,-340.93 1332.95,-330.67 1327.12,-334.55"/>
</a>
</g>
</g>
<!-- Node24 -->
<g id="Node000024" class="node">
<title>Node24</title>
<g id="a_Node000024"><a xlink:href="cls__pde__based__interface__reinitialization_8h.html" target="_top" xlink:title=" ">
<polygon fill="white" stroke="#666666" points="1794.5,-228 1654.5,-228 1654.5,-176 1794.5,-176 1794.5,-228"/>
<text text-anchor="start" x="1662.5" y="-216" font-family="Helvetica,sans-Serif" font-size="10.00">/home/runner/work/lethe</text>
<text text-anchor="start" x="1662.5" y="-205" font-family="Helvetica,sans-Serif" font-size="10.00">/lethe/include/solvers</text>
<text text-anchor="start" x="1662.5" y="-194" font-family="Helvetica,sans-Serif" font-size="10.00">/cls_pde_based_interface</text>
<text text-anchor="middle" x="1724.5" y="-183" font-family="Helvetica,sans-Serif" font-size="10.00">_reinitialization.h</text>
</a>
</g>
</g>
<!-- Node1&#45;&gt;Node24 -->
<g id="edge28_Node000001_Node000024" class="edge">
<title>Node1&#45;&gt;Node24</title>
<g id="a_edge28_Node000001_Node000024"><a xlink:title=" ">
<path fill="none" stroke="#63b8ff" d="M1412.62,-337.33C1438.11,-327.62 1467.83,-316.04 1494.5,-305 1555.04,-279.93 1623.6,-249.22 1669.99,-228.09"/>
<polygon fill="#63b8ff" stroke="#63b8ff" points="1411.18,-334.13 1403.07,-340.95 1413.67,-340.68 1411.18,-334.13"/>
</a>
</g>
</g>
<!-- Node26 -->
<g id="Node000026" class="node">
<title>Node26</title>
<g id="a_Node000026"><a xlink:href="cls__subequations__interface_8h.html" target="_top" xlink:title=" ">
<polygon fill="white" stroke="#666666" points="1486,-305 1325,-305 1325,-264 1486,-264 1486,-305"/>
<text text-anchor="start" x="1333" y="-293" font-family="Helvetica,sans-Serif" font-size="10.00">/home/runner/work/lethe</text>
<text text-anchor="start" x="1333" y="-282" font-family="Helvetica,sans-Serif" font-size="10.00">/lethe/include/solvers</text>
<text text-anchor="middle" x="1405.5" y="-271" font-family="Helvetica,sans-Serif" font-size="10.00">/cls_subequations_interface.h</text>
</a>
</g>
</g>
<!-- Node1&#45;&gt;Node26 -->
<g id="edge31_Node000001_Node000026" class="edge">
<title>Node1&#45;&gt;Node26</title>
<g id="a_edge31_Node000001_Node000026"><a xlink:title=" ">
<path fill="none" stroke="#63b8ff" d="M1370.91,-332.67C1377.63,-323.5 1384.97,-313.5 1391.15,-305.07"/>
<polygon fill="#63b8ff" stroke="#63b8ff" points="1368.04,-330.66 1364.95,-340.79 1373.69,-334.8 1368.04,-330.66"/>
</a>
</g>
</g>
<!-- Node3 -->
<g id="Node000003" class="node">
<title>Node3</title>
<g id="a_Node000003"><a xlink:href="fluid__dynamics__vans_8h.html" target="_top" xlink:title=" ">
<polygon fill="white" stroke="#666666" points="292,-222.5 155,-222.5 155,-181.5 292,-181.5 292,-222.5"/>
<text text-anchor="start" x="163" y="-210.5" font-family="Helvetica,sans-Serif" font-size="10.00">/home/runner/work/lethe</text>
<text text-anchor="start" x="163" y="-199.5" font-family="Helvetica,sans-Serif" font-size="10.00">/lethe/include/fem&#45;dem</text>
<text text-anchor="middle" x="223.5" y="-188.5" font-family="Helvetica,sans-Serif" font-size="10.00">/fluid_dynamics_vans.h</text>
</a>
</g>
</g>
<!-- Node2&#45;&gt;Node3 -->
<g id="edge2_Node000002_Node000003" class="edge">
<title>Node2&#45;&gt;Node3</title>
<g id="a_edge2_Node000002_Node000003"><a xlink:title=" ">
<path fill="none" stroke="#63b8ff" d="M491.01,-266.7C441.91,-256.02 377.41,-241.67 320.5,-228 311.28,-225.79 301.6,-223.38 292.05,-220.97"/>
<polygon fill="#63b8ff" stroke="#63b8ff" points="490.41,-270.15 500.93,-268.85 491.9,-263.31 490.41,-270.15"/>
</a>
</g>
</g>
<!-- Node6 -->
<g id="Node000006" class="node">
<title>Node6</title>
<g id="a_Node000006"><a xlink:href="fluid__dynamics__vans_8cc.html" target="_top" xlink:title=" ">
<polygon fill="white" stroke="#666666" points="292,-134.5 155,-134.5 155,-93.5 292,-93.5 292,-134.5"/>
<text text-anchor="start" x="163" y="-122.5" font-family="Helvetica,sans-Serif" font-size="10.00">/home/runner/work/lethe</text>
<text text-anchor="start" x="163" y="-111.5" font-family="Helvetica,sans-Serif" font-size="10.00">/lethe/source/fem&#45;dem</text>
<text text-anchor="middle" x="223.5" y="-100.5" font-family="Helvetica,sans-Serif" font-size="10.00">/fluid_dynamics_vans.cc</text>
</a>
</g>
</g>
<!-- Node2&#45;&gt;Node6 -->
<g id="edge14_Node000002_Node000006" class="edge">
<title>Node2&#45;&gt;Node6</title>
<g id="a_edge14_Node000002_Node000006"><a xlink:title=" ">
<path fill="none" stroke="#63b8ff" d="M490.53,-269.65C451.8,-260.95 405.27,-247.59 366.5,-228 365.67,-227.58 288.94,-166.84 248.23,-134.59"/>
<polygon fill="#63b8ff" stroke="#63b8ff" points="490.2,-273.16 500.72,-271.87 491.69,-266.32 490.2,-273.16"/>
</a>
</g>
</g>
<!-- Node7 -->
<g id="Node000007" class="node">
<title>Node7</title>
<g id="a_Node000007"><a xlink:href="fluid__dynamics__vans__matrix__free_8h.html" target="_top" xlink:title=" ">
<polygon fill="white" stroke="#666666" points="569,-222.5 376,-222.5 376,-181.5 569,-181.5 569,-222.5"/>
<text text-anchor="start" x="384" y="-210.5" font-family="Helvetica,sans-Serif" font-size="10.00">/home/runner/work/lethe</text>
<text text-anchor="start" x="384" y="-199.5" font-family="Helvetica,sans-Serif" font-size="10.00">/lethe/include/fem&#45;dem</text>
<text text-anchor="middle" x="472.5" y="-188.5" font-family="Helvetica,sans-Serif" font-size="10.00">/fluid_dynamics_vans_matrix_free.h</text>
</a>
</g>
</g>
<!-- Node2&#45;&gt;Node7 -->
<g id="edge6_Node000002_Node000007" class="edge">
<title>Node2&#45;&gt;Node7</title>
<g id="a_edge6_Node000002_Node000007"><a xlink:title=" ">
<path fill="none" stroke="#63b8ff" d="M537.82,-257.21C524.27,-245.96 508.73,-233.06 496.2,-222.67"/>
<polygon fill="#63b8ff" stroke="#63b8ff" points="535.59,-259.91 545.52,-263.6 540.06,-254.52 535.59,-259.91"/>
</a>
</g>
</g>
<!-- Node11 -->
<g id="Node000011" class="node">
<title>Node11</title>
<g id="a_Node000011"><a xlink:href="fluid__dynamics__vans__matrix__free__operators_8h.html" target="_top" xlink:title=" ">
<polygon fill="white" stroke="#666666" points="746,-228 587,-228 587,-176 746,-176 746,-228"/>
<text text-anchor="start" x="595" y="-216" font-family="Helvetica,sans-Serif" font-size="10.00">/home/runner/work/lethe</text>
<text text-anchor="start" x="595" y="-205" font-family="Helvetica,sans-Serif" font-size="10.00">/lethe/include/fem&#45;dem</text>
<text text-anchor="start" x="595" y="-194" font-family="Helvetica,sans-Serif" font-size="10.00">/fluid_dynamics_vans_matrix</text>
<text text-anchor="middle" x="666.5" y="-183" font-family="Helvetica,sans-Serif" font-size="10.00">_free_operators.h</text>
</a>
</g>
</g>
<!-- Node2&#45;&gt;Node11 -->
<g id="edge10_Node000002_Node000011" class="edge">
<title>Node2&#45;&gt;Node11</title>
<g id="a_edge10_Node000002_Node000011"><a xlink:title=" ">
<path fill="none" stroke="#63b8ff" d="M601.36,-257.06C612.56,-247.76 625.12,-237.35 636.19,-228.16"/>
<polygon fill="#63b8ff" stroke="#63b8ff" points="598.94,-254.52 593.48,-263.6 603.41,-259.91 598.94,-254.52"/>
</a>
</g>
</g>
<!-- Node13 -->
<g id="Node000013" class="node">
<title>Node13</title>
<g id="a_Node000013"><a xlink:href="particle__projector_8cc.html" target="_top" xlink:title=" ">
<polygon fill="white" stroke="#666666" points="901,-222.5 764,-222.5 764,-181.5 901,-181.5 901,-222.5"/>
<text text-anchor="start" x="772" y="-210.5" font-family="Helvetica,sans-Serif" font-size="10.00">/home/runner/work/lethe</text>
<text text-anchor="start" x="772" y="-199.5" font-family="Helvetica,sans-Serif" font-size="10.00">/lethe/source/fem&#45;dem</text>
<text text-anchor="middle" x="832.5" y="-188.5" font-family="Helvetica,sans-Serif" font-size="10.00">/particle_projector.cc</text>
</a>
</g>
</g>
<!-- Node2&#45;&gt;Node13 -->
<g id="edge15_Node000002_Node000013" class="edge">
<title>Node2&#45;&gt;Node13</title>
<g id="a_edge15_Node000002_Node000013"><a xlink:title=" ">
<path fill="none" stroke="#63b8ff" d="M645.66,-261C679.1,-251.03 718.79,-239.08 754.5,-228 760.07,-226.27 765.85,-224.46 771.64,-222.63"/>
<polygon fill="#63b8ff" stroke="#63b8ff" points="644.54,-257.68 635.95,-263.89 646.53,-264.39 644.54,-257.68"/>
</a>
</g>
</g>
<!-- Node4 -->
<g id="Node000004" class="node">
<title>Node4</title>
<g id="a_Node000004"><a xlink:href="cfd__dem__coupling_8h.html" target="_top" xlink:title=" ">
<polygon fill="white" stroke="#666666" points="137,-134.5 0,-134.5 0,-93.5 137,-93.5 137,-134.5"/>
<text text-anchor="start" x="8" y="-122.5" font-family="Helvetica,sans-Serif" font-size="10.00">/home/runner/work/lethe</text>
<text text-anchor="start" x="8" y="-111.5" font-family="Helvetica,sans-Serif" font-size="10.00">/lethe/include/fem&#45;dem</text>
<text text-anchor="middle" x="68.5" y="-100.5" font-family="Helvetica,sans-Serif" font-size="10.00">/cfd_dem_coupling.h</text>
</a>
</g>
</g>
<!-- Node3&#45;&gt;Node4 -->
<g id="edge3_Node000003_Node000004" class="edge">
<title>Node3&#45;&gt;Node4</title>
<g id="a_edge3_Node000003_Node000004"><a xlink:title=" ">
<path fill="none" stroke="#63b8ff" d="M179.43,-176.55C155.47,-163.26 126.24,-147.04 103.8,-134.59"/>
<polygon fill="#63b8ff" stroke="#63b8ff" points="177.89,-179.69 188.33,-181.49 181.28,-173.57 177.89,-179.69"/>
</a>
</g>
</g>
<!-- Node3&#45;&gt;Node6 -->
<g id="edge5_Node000003_Node000006" class="edge">
<title>Node3&#45;&gt;Node6</title>
<g id="a_edge5_Node000003_Node000006"><a xlink:title=" ">
<path fill="none" stroke="#63b8ff" d="M223.5,-171.36C223.5,-159.26 223.5,-145.58 223.5,-134.74"/>
<polygon fill="#63b8ff" stroke="#63b8ff" points="220,-171.49 223.5,-181.49 227,-171.49 220,-171.49"/>
</a>
</g>
</g>
<!-- Node5 -->
<g id="Node000005" class="node">
<title>Node5</title>
<g id="a_Node000005"><a xlink:href="cfd__dem__coupling_8cc.html" target="_top" xlink:title=" ">
<polygon fill="white" stroke="#666666" points="137,-46.5 0,-46.5 0,-5.5 137,-5.5 137,-46.5"/>
<text text-anchor="start" x="8" y="-34.5" font-family="Helvetica,sans-Serif" font-size="10.00">/home/runner/work/lethe</text>
<text text-anchor="start" x="8" y="-23.5" font-family="Helvetica,sans-Serif" font-size="10.00">/lethe/source/fem&#45;dem</text>
<text text-anchor="middle" x="68.5" y="-12.5" font-family="Helvetica,sans-Serif" font-size="10.00">/cfd_dem_coupling.cc</text>
</a>
</g>
</g>
<!-- Node4&#45;&gt;Node5 -->
<g id="edge4_Node000004_Node000005" class="edge">
<title>Node4&#45;&gt;Node5</title>
<g id="a_edge4_Node000004_Node000005"><a xlink:title=" ">
<path fill="none" stroke="#63b8ff" d="M68.5,-83.36C68.5,-71.26 68.5,-57.58 68.5,-46.74"/>
<polygon fill="#63b8ff" stroke="#63b8ff" points="65,-83.49 68.5,-93.49 72,-83.49 65,-83.49"/>
</a>
</g>
</g>
<!-- Node8 -->
<g id="Node000008" class="node">
<title>Node8</title>
<g id="a_Node000008"><a xlink:href="cfd__dem__coupling__matrix__free_8h.html" target="_top" xlink:title=" ">
<polygon fill="white" stroke="#666666" points="489,-134.5 310,-134.5 310,-93.5 489,-93.5 489,-134.5"/>
<text text-anchor="start" x="318" y="-122.5" font-family="Helvetica,sans-Serif" font-size="10.00">/home/runner/work/lethe</text>
<text text-anchor="start" x="318" y="-111.5" font-family="Helvetica,sans-Serif" font-size="10.00">/lethe/include/fem&#45;dem</text>
<text text-anchor="middle" x="399.5" y="-100.5" font-family="Helvetica,sans-Serif" font-size="10.00">/cfd_dem_coupling_matrix_free.h</text>
</a>
</g>
</g>
<!-- Node7&#45;&gt;Node8 -->
<g id="edge7_Node000007_Node000008" class="edge">
<title>Node7&#45;&gt;Node8</title>
<g id="a_edge7_Node000007_Node000008"><a xlink:title=" ">
<path fill="none" stroke="#63b8ff" d="M449.19,-173.54C438.48,-160.92 426.02,-146.24 416.25,-134.74"/>
<polygon fill="#63b8ff" stroke="#63b8ff" points="446.8,-176.13 455.94,-181.49 452.13,-171.6 446.8,-176.13"/>
</a>
</g>
</g>
<!-- Node10 -->
<g id="Node000010" class="node">
<title>Node10</title>
<g id="a_Node000010"><a xlink:href="fluid__dynamics__vans__matrix__free_8cc.html" target="_top" xlink:title=" ">
<polygon fill="white" stroke="#666666" points="666,-140 507,-140 507,-88 666,-88 666,-140"/>
<text text-anchor="start" x="515" y="-128" font-family="Helvetica,sans-Serif" font-size="10.00">/home/runner/work/lethe</text>
<text text-anchor="start" x="515" y="-117" font-family="Helvetica,sans-Serif" font-size="10.00">/lethe/source/fem&#45;dem</text>
<text text-anchor="start" x="515" y="-106" font-family="Helvetica,sans-Serif" font-size="10.00">/fluid_dynamics_vans_matrix</text>
<text text-anchor="middle" x="586.5" y="-95" font-family="Helvetica,sans-Serif" font-size="10.00">_free.cc</text>
</a>
</g>
</g>
<!-- Node7&#45;&gt;Node10 -->
<g id="edge9_Node000007_Node000010" class="edge">
<title>Node7&#45;&gt;Node10</title>
<g id="a_edge9_Node000007_Node000010"><a xlink:title=" ">
<path fill="none" stroke="#63b8ff" d="M506.67,-175.22C521.32,-164.17 538.37,-151.31 552.94,-140.32"/>
<polygon fill="#63b8ff" stroke="#63b8ff" points="504.24,-172.67 498.37,-181.49 508.46,-178.26 504.24,-172.67"/>
</a>
</g>
</g>
<!-- Node9 -->
<g id="Node000009" class="node">
<title>Node9</title>
<g id="a_Node000009"><a xlink:href="cfd__dem__coupling__matrix__free_8cc.html" target="_top" xlink:title=" ">
<polygon fill="white" stroke="#666666" points="598.5,-52 452.5,-52 452.5,0 598.5,0 598.5,-52"/>
<text text-anchor="start" x="460.5" y="-40" font-family="Helvetica,sans-Serif" font-size="10.00">/home/runner/work/lethe</text>
<text text-anchor="start" x="460.5" y="-29" font-family="Helvetica,sans-Serif" font-size="10.00">/lethe/source/fem&#45;dem</text>
<text text-anchor="start" x="460.5" y="-18" font-family="Helvetica,sans-Serif" font-size="10.00">/cfd_dem_coupling_matrix</text>
<text text-anchor="middle" x="525.5" y="-7" font-family="Helvetica,sans-Serif" font-size="10.00">_free.cc</text>
</a>
</g>
</g>
<!-- Node8&#45;&gt;Node9 -->
<g id="edge8_Node000008_Node000009" class="edge">
<title>Node8&#45;&gt;Node9</title>
<g id="a_edge8_Node000008_Node000009"><a xlink:title=" ">
<path fill="none" stroke="#63b8ff" d="M436.37,-87.84C452.75,-76.66 472,-63.52 488.41,-52.32"/>
<polygon fill="#63b8ff" stroke="#63b8ff" points="434.38,-84.96 428.09,-93.49 438.32,-90.74 434.38,-84.96"/>
</a>
</g>
</g>
<!-- Node11&#45;&gt;Node9 -->
<g id="edge11_Node000011_Node000009" class="edge">
<title>Node11&#45;&gt;Node9</title>
<g id="a_edge11_Node000011_Node000009"><a xlink:title=" ">
<path fill="none" stroke="#63b8ff" d="M679.51,-166.05C686.06,-142.12 689.75,-110.72 674.5,-88 657.29,-62.35 627.17,-47.48 598.5,-38.86"/>
<polygon fill="#63b8ff" stroke="#63b8ff" points="676.11,-165.22 676.58,-175.81 682.81,-167.24 676.11,-165.22"/>
</a>
</g>
</g>
<!-- Node11&#45;&gt;Node10 -->
<g id="edge12_Node000011_Node000010" class="edge">
<title>Node11&#45;&gt;Node10</title>
<g id="a_edge12_Node000011_Node000010"><a xlink:title=" ">
<path fill="none" stroke="#63b8ff" d="M635.87,-168.08C627.26,-158.81 618.02,-148.89 609.9,-140.16"/>
<polygon fill="#63b8ff" stroke="#63b8ff" points="633.56,-170.72 642.93,-175.66 638.68,-165.96 633.56,-170.72"/>
</a>
</g>
</g>
<!-- Node12 -->
<g id="Node000012" class="node">
<title>Node12</title>
<g id="a_Node000012"><a xlink:href="fluid__dynamics__vans__matrix__free__operators_8cc.html" target="_top" xlink:title=" ">
<polygon fill="white" stroke="#666666" points="880,-140 721,-140 721,-88 880,-88 880,-140"/>
<text text-anchor="start" x="729" y="-128" font-family="Helvetica,sans-Serif" font-size="10.00">/home/runner/work/lethe</text>
<text text-anchor="start" x="729" y="-117" font-family="Helvetica,sans-Serif" font-size="10.00">/lethe/source/fem&#45;dem</text>
<text text-anchor="start" x="729" y="-106" font-family="Helvetica,sans-Serif" font-size="10.00">/fluid_dynamics_vans_matrix</text>
<text text-anchor="middle" x="800.5" y="-95" font-family="Helvetica,sans-Serif" font-size="10.00">_free_operators.cc</text>
</a>
</g>
</g>
<!-- Node11&#45;&gt;Node12 -->
<g id="edge13_Node000011_Node000012" class="edge">
<title>Node11&#45;&gt;Node12</title>
<g id="a_edge13_Node000011_Node000012"><a xlink:title=" ">
<path fill="none" stroke="#63b8ff" d="M714.43,-170.24C729.73,-160.42 746.48,-149.67 761.1,-140.29"/>
<polygon fill="#63b8ff" stroke="#63b8ff" points="712.14,-167.55 705.62,-175.89 715.92,-173.44 712.14,-167.55"/>
</a>
</g>
</g>
<!-- Node15 -->
<g id="Node000015" class="node">
<title>Node15</title>
<g id="a_Node000015"><a xlink:href="cls_8h.html" target="_top" xlink:title=" ">
<polygon fill="white" stroke="#666666" points="1044.5,-129 898.5,-129 898.5,-99 1044.5,-99 1044.5,-129"/>
<text text-anchor="start" x="906.5" y="-117" font-family="Helvetica,sans-Serif" font-size="10.00">/home/runner/work/lethe</text>
<text text-anchor="middle" x="971.5" y="-106" font-family="Helvetica,sans-Serif" font-size="10.00">/lethe/include/solvers/cls.h</text>
</a>
</g>
</g>
<!-- Node14&#45;&gt;Node15 -->
<g id="edge17_Node000014_Node000015" class="edge">
<title>Node14&#45;&gt;Node15</title>
<g id="a_edge17_Node000014_Node000015"><a xlink:title=" ">
<path fill="none" stroke="#63b8ff" d="M1217.96,-182.34C1170.24,-170.74 1108.18,-155.19 1053.5,-140 1041.31,-136.61 1028.18,-132.72 1016.07,-129.03"/>
<polygon fill="#63b8ff" stroke="#63b8ff" points="1217.37,-185.8 1227.92,-184.75 1219.02,-178.99 1217.37,-185.8"/>
</a>
</g>
</g>
<!-- Node18 -->
<g id="Node000018" class="node">
<title>Node18</title>
<g id="a_Node000018"><a xlink:href="cls__curvature__projection_8h.html" target="_top" xlink:title=" ">
<polygon fill="white" stroke="#666666" points="1210.5,-134.5 1062.5,-134.5 1062.5,-93.5 1210.5,-93.5 1210.5,-134.5"/>
<text text-anchor="start" x="1070.5" y="-122.5" font-family="Helvetica,sans-Serif" font-size="10.00">/home/runner/work/lethe</text>
<text text-anchor="start" x="1070.5" y="-111.5" font-family="Helvetica,sans-Serif" font-size="10.00">/lethe/include/solvers</text>
<text text-anchor="middle" x="1136.5" y="-100.5" font-family="Helvetica,sans-Serif" font-size="10.00">/cls_curvature_projection.h</text>
</a>
</g>
</g>
<!-- Node14&#45;&gt;Node18 -->
<g id="edge20_Node000014_Node000018" class="edge">
<title>Node14&#45;&gt;Node18</title>
<g id="a_edge20_Node000014_Node000018"><a xlink:title=" ">
<path fill="none" stroke="#63b8ff" d="M1240.98,-171.16C1218.41,-159.03 1192.96,-145.35 1172.84,-134.53"/>
<polygon fill="#63b8ff" stroke="#63b8ff" points="1239.33,-174.24 1249.79,-175.89 1242.64,-168.08 1239.33,-174.24"/>
</a>
</g>
</g>
<!-- Node20 -->
<g id="Node000020" class="node">
<title>Node20</title>
<g id="a_Node000020"><a xlink:href="cls__subequations__interface_8cc.html" target="_top" xlink:title=" ">
<polygon fill="white" stroke="#666666" points="1417.5,-46.5 1251.5,-46.5 1251.5,-5.5 1417.5,-5.5 1417.5,-46.5"/>
<text text-anchor="start" x="1259.5" y="-34.5" font-family="Helvetica,sans-Serif" font-size="10.00">/home/runner/work/lethe</text>
<text text-anchor="start" x="1259.5" y="-23.5" font-family="Helvetica,sans-Serif" font-size="10.00">/lethe/source/solvers</text>
<text text-anchor="middle" x="1334.5" y="-12.5" font-family="Helvetica,sans-Serif" font-size="10.00">/cls_subequations_interface.cc</text>
</a>
</g>
</g>
<!-- Node14&#45;&gt;Node20 -->
<g id="edge27_Node000014_Node000020" class="edge">
<title>Node14&#45;&gt;Node20</title>
<g id="a_edge27_Node000014_Node000020"><a xlink:title=" ">
<path fill="none" stroke="#63b8ff" d="M1270.28,-167.4C1265.03,-158.91 1260.27,-149.49 1257.5,-140 1251.01,-117.82 1247.44,-108.81 1257.5,-88 1265.89,-70.65 1281.88,-56.73 1297.12,-46.6"/>
<polygon fill="#63b8ff" stroke="#63b8ff" points="1267.45,-169.46 1275.87,-175.89 1273.29,-165.61 1267.45,-169.46"/>
</a>
</g>
</g>
<!-- Node21 -->
<g id="Node000021" class="node">
<title>Node21</title>
<g id="a_Node000021"><a xlink:href="cls__phase__gradient__projection_8h.html" target="_top" xlink:title=" ">
<polygon fill="white" stroke="#666666" points="1442.5,-134.5 1266.5,-134.5 1266.5,-93.5 1442.5,-93.5 1442.5,-134.5"/>
<text text-anchor="start" x="1274.5" y="-122.5" font-family="Helvetica,sans-Serif" font-size="10.00">/home/runner/work/lethe</text>
<text text-anchor="start" x="1274.5" y="-111.5" font-family="Helvetica,sans-Serif" font-size="10.00">/lethe/include/solvers</text>
<text text-anchor="middle" x="1354.5" y="-100.5" font-family="Helvetica,sans-Serif" font-size="10.00">/cls_phase_gradient_projection.h</text>
</a>
</g>
</g>
<!-- Node14&#45;&gt;Node21 -->
<g id="edge23_Node000014_Node000021" class="edge">
<title>Node14&#45;&gt;Node21</title>
<g id="a_edge23_Node000014_Node000021"><a xlink:title=" ">
<path fill="none" stroke="#63b8ff" d="M1319.37,-167.09C1326.78,-156.11 1334.74,-144.3 1341.21,-134.7"/>
<polygon fill="#63b8ff" stroke="#63b8ff" points="1316.28,-165.41 1313.59,-175.66 1322.08,-169.33 1316.28,-165.41"/>
</a>
</g>
</g>
<!-- Node23 -->
<g id="Node000023" class="node">
<title>Node23</title>
<g id="a_Node000023"><a xlink:href="cls__linear__subequations__solver_8cc.html" target="_top" xlink:title=" ">
<polygon fill="white" stroke="#666666" points="1598,-140 1461,-140 1461,-88 1598,-88 1598,-140"/>
<text text-anchor="start" x="1469" y="-128" font-family="Helvetica,sans-Serif" font-size="10.00">/home/runner/work/lethe</text>
<text text-anchor="start" x="1469" y="-117" font-family="Helvetica,sans-Serif" font-size="10.00">/lethe/source/solvers</text>
<text text-anchor="start" x="1469" y="-106" font-family="Helvetica,sans-Serif" font-size="10.00">/cls_linear_subequations</text>
<text text-anchor="middle" x="1529.5" y="-95" font-family="Helvetica,sans-Serif" font-size="10.00">_solver.cc</text>
</a>
</g>
</g>
<!-- Node14&#45;&gt;Node23 -->
<g id="edge26_Node000014_Node000023" class="edge">
<title>Node14&#45;&gt;Node23</title>
<g id="a_edge26_Node000014_Node000023"><a xlink:title=" ">
<path fill="none" stroke="#63b8ff" d="M1373.97,-172.41C1402.24,-161.97 1433.99,-150.25 1461.4,-140.14"/>
<polygon fill="#63b8ff" stroke="#63b8ff" points="1372.69,-169.15 1364.52,-175.89 1375.11,-175.71 1372.69,-169.15"/>
</a>
</g>
</g>
<!-- Node16 -->
<g id="Node000016" class="node">
<title>Node16</title>
<g id="a_Node000016"><a xlink:href="cls_8cc.html" target="_top" xlink:title=" ">
<polygon fill="white" stroke="#666666" points="881,-46.5 744,-46.5 744,-5.5 881,-5.5 881,-46.5"/>
<text text-anchor="start" x="752" y="-34.5" font-family="Helvetica,sans-Serif" font-size="10.00">/home/runner/work/lethe</text>
<text text-anchor="start" x="752" y="-23.5" font-family="Helvetica,sans-Serif" font-size="10.00">/lethe/source/solvers</text>
<text text-anchor="middle" x="812.5" y="-12.5" font-family="Helvetica,sans-Serif" font-size="10.00">/cls.cc</text>
</a>
</g>
</g>
<!-- Node15&#45;&gt;Node16 -->
<g id="edge18_Node000015_Node000016" class="edge">
<title>Node15&#45;&gt;Node16</title>
<g id="a_edge18_Node000015_Node000016"><a xlink:title=" ">
<path fill="none" stroke="#63b8ff" d="M936.47,-94.06C910.46,-79.99 875.09,-60.85 848.78,-46.62"/>
<polygon fill="#63b8ff" stroke="#63b8ff" points="935.14,-97.31 945.6,-98.99 938.47,-91.16 935.14,-97.31"/>
</a>
</g>
</g>
<!-- Node17 -->
<g id="Node000017" class="node">
<title>Node17</title>
<g id="a_Node000017"><a xlink:href="multiphysics__interface_8cc.html" target="_top" xlink:title=" ">
<polygon fill="white" stroke="#666666" points="1043.5,-46.5 899.5,-46.5 899.5,-5.5 1043.5,-5.5 1043.5,-46.5"/>
<text text-anchor="start" x="907.5" y="-34.5" font-family="Helvetica,sans-Serif" font-size="10.00">/home/runner/work/lethe</text>
<text text-anchor="start" x="907.5" y="-23.5" font-family="Helvetica,sans-Serif" font-size="10.00">/lethe/source/solvers</text>
<text text-anchor="middle" x="971.5" y="-12.5" font-family="Helvetica,sans-Serif" font-size="10.00">/multiphysics_interface.cc</text>
</a>
</g>
</g>
<!-- Node15&#45;&gt;Node17 -->
<g id="edge19_Node000015_Node000017" class="edge">
<title>Node15&#45;&gt;Node17</title>
<g id="a_edge19_Node000015_Node000017"><a xlink:title=" ">
<path fill="none" stroke="#63b8ff" d="M971.5,-88.5C971.5,-75.25 971.5,-59.11 971.5,-46.69"/>
<polygon fill="#63b8ff" stroke="#63b8ff" points="968,-88.8 971.5,-98.8 975,-88.8 968,-88.8"/>
</a>
</g>
</g>
<!-- Node19 -->
<g id="Node000019" class="node">
<title>Node19</title>
<g id="a_Node000019"><a xlink:href="cls__curvature__projection_8cc.html" target="_top" xlink:title=" ">
<polygon fill="white" stroke="#666666" points="1213.5,-46.5 1061.5,-46.5 1061.5,-5.5 1213.5,-5.5 1213.5,-46.5"/>
<text text-anchor="start" x="1069.5" y="-34.5" font-family="Helvetica,sans-Serif" font-size="10.00">/home/runner/work/lethe</text>
<text text-anchor="start" x="1069.5" y="-23.5" font-family="Helvetica,sans-Serif" font-size="10.00">/lethe/source/solvers</text>
<text text-anchor="middle" x="1137.5" y="-12.5" font-family="Helvetica,sans-Serif" font-size="10.00">/cls_curvature_projection.cc</text>
</a>
</g>
</g>
<!-- Node18&#45;&gt;Node19 -->
<g id="edge21_Node000018_Node000019" class="edge">
<title>Node18&#45;&gt;Node19</title>
<g id="a_edge21_Node000018_Node000019"><a xlink:title=" ">
<path fill="none" stroke="#63b8ff" d="M1136.84,-83.36C1136.99,-71.26 1137.14,-57.58 1137.27,-46.74"/>
<polygon fill="#63b8ff" stroke="#63b8ff" points="1133.34,-83.45 1136.73,-93.49 1140.34,-83.53 1133.34,-83.45"/>
</a>
</g>
</g>
<!-- Node18&#45;&gt;Node20 -->
<g id="edge22_Node000018_Node000020" class="edge">
<title>Node18&#45;&gt;Node20</title>
<g id="a_edge22_Node000018_Node000020"><a xlink:title=" ">
<path fill="none" stroke="#63b8ff" d="M1190.78,-89.42C1221.75,-75.97 1260.11,-59.31 1289.41,-46.59"/>
<polygon fill="#63b8ff" stroke="#63b8ff" points="1189.21,-86.29 1181.43,-93.49 1192,-92.71 1189.21,-86.29"/>
</a>
</g>
</g>
<!-- Node21&#45;&gt;Node20 -->
<g id="edge25_Node000021_Node000020" class="edge">
<title>Node21&#45;&gt;Node20</title>
<g id="a_edge25_Node000021_Node000020"><a xlink:title=" ">
<path fill="none" stroke="#63b8ff" d="M1347.69,-83.73C1344.86,-71.53 1341.64,-57.69 1339.09,-46.74"/>
<polygon fill="#63b8ff" stroke="#63b8ff" points="1344.29,-84.54 1349.96,-93.49 1351.11,-82.95 1344.29,-84.54"/>
</a>
</g>
</g>
<!-- Node22 -->
<g id="Node000022" class="node">
<title>Node22</title>
<g id="a_Node000022"><a xlink:href="cls__phase__gradient__projection_8cc.html" target="_top" xlink:title=" ">
<polygon fill="white" stroke="#666666" points="1617,-46.5 1436,-46.5 1436,-5.5 1617,-5.5 1617,-46.5"/>
<text text-anchor="start" x="1444" y="-34.5" font-family="Helvetica,sans-Serif" font-size="10.00">/home/runner/work/lethe</text>
<text text-anchor="start" x="1444" y="-23.5" font-family="Helvetica,sans-Serif" font-size="10.00">/lethe/source/solvers</text>
<text text-anchor="middle" x="1526.5" y="-12.5" font-family="Helvetica,sans-Serif" font-size="10.00">/cls_phase_gradient_projection.cc</text>
</a>
</g>
</g>
<!-- Node21&#45;&gt;Node22 -->
<g id="edge24_Node000021_Node000022" class="edge">
<title>Node21&#45;&gt;Node22</title>
<g id="a_edge24_Node000021_Node000022"><a xlink:title=" ">
<path fill="none" stroke="#63b8ff" d="M1402.7,-88.9C1429.42,-75.54 1462.21,-59.15 1487.33,-46.59"/>
<polygon fill="#63b8ff" stroke="#63b8ff" points="1400.91,-85.88 1393.53,-93.49 1404.04,-92.14 1400.91,-85.88"/>
</a>
</g>
</g>
<!-- Node24&#45;&gt;Node20 -->
<g id="edge30_Node000024_Node000020" class="edge">
<title>Node24&#45;&gt;Node20</title>
<g id="a_edge30_Node000024_Node000020"><a xlink:title=" ">
<path fill="none" stroke="#63b8ff" d="M1701.42,-167.38C1679.55,-135.95 1648.84,-93.1 1640.5,-88 1558.23,-37.66 1520.71,-72.67 1426.5,-52 1418.98,-50.35 1411.16,-48.48 1403.39,-46.51"/>
<polygon fill="#63b8ff" stroke="#63b8ff" points="1698.76,-169.67 1707.33,-175.9 1704.51,-165.68 1698.76,-169.67"/>
</a>
</g>
</g>
<!-- Node25 -->
<g id="Node000025" class="node">
<title>Node25</title>
<g id="a_Node000025"><a xlink:href="cls__pde__based__interface__reinitialization_8cc.html" target="_top" xlink:title=" ">
<polygon fill="white" stroke="#666666" points="1832.5,-140 1692.5,-140 1692.5,-88 1832.5,-88 1832.5,-140"/>
<text text-anchor="start" x="1700.5" y="-128" font-family="Helvetica,sans-Serif" font-size="10.00">/home/runner/work/lethe</text>
<text text-anchor="start" x="1700.5" y="-117" font-family="Helvetica,sans-Serif" font-size="10.00">/lethe/source/solvers</text>
<text text-anchor="start" x="1700.5" y="-106" font-family="Helvetica,sans-Serif" font-size="10.00">/cls_pde_based_interface</text>
<text text-anchor="middle" x="1762.5" y="-95" font-family="Helvetica,sans-Serif" font-size="10.00">_reinitialization.cc</text>
</a>
</g>
</g>
<!-- Node24&#45;&gt;Node25 -->
<g id="edge29_Node000024_Node000025" class="edge">
<title>Node24&#45;&gt;Node25</title>
<g id="a_edge29_Node000024_Node000025"><a xlink:title=" ">
<path fill="none" stroke="#63b8ff" d="M1739.79,-166.4C1743.67,-157.63 1747.76,-148.36 1751.38,-140.16"/>
<polygon fill="#63b8ff" stroke="#63b8ff" points="1736.54,-165.1 1735.7,-175.66 1742.94,-167.93 1736.54,-165.1"/>
</a>
</g>
</g>
<!-- Node26&#45;&gt;Node14 -->
<g id="edge33_Node000026_Node000014" class="edge">
<title>Node26&#45;&gt;Node14</title>
<g id="a_edge33_Node000026_Node000014"><a xlink:title=" ">
<path fill="none" stroke="#63b8ff" d="M1370.71,-257.81C1357.92,-248.36 1343.46,-237.68 1330.73,-228.28"/>
<polygon fill="#63b8ff" stroke="#63b8ff" points="1368.71,-260.68 1378.84,-263.81 1372.87,-255.05 1368.71,-260.68"/>
</a>
</g>
</g>
<!-- Node26&#45;&gt;Node15 -->
<g id="edge32_Node000026_Node000015" class="edge">
<title>Node26&#45;&gt;Node15</title>
<g id="a_edge32_Node000026_Node000015"><a xlink:title=" ">
<path fill="none" stroke="#63b8ff" d="M1321.09,-261.17C1288.68,-251.89 1251.55,-240.39 1218.5,-228 1136.59,-197.28 1043.7,-151.75 998.74,-129"/>
<polygon fill="#63b8ff" stroke="#63b8ff" points="1320.42,-264.62 1330.99,-263.98 1322.33,-257.89 1320.42,-264.62"/>
</a>
</g>
</g>
<!-- Node26&#45;&gt;Node20 -->
<g id="edge35_Node000026_Node000020" class="edge">
<title>Node26&#45;&gt;Node20</title>
<g id="a_edge35_Node000026_Node000020"><a xlink:title=" ">
<path fill="none" stroke="#63b8ff" d="M1463.21,-259.78C1540.53,-224.65 1661.96,-155.65 1606.5,-88 1554.78,-24.91 1505.91,-70.71 1426.5,-52 1419.33,-50.31 1411.87,-48.45 1404.45,-46.54"/>
<polygon fill="#63b8ff" stroke="#63b8ff" points="1461.71,-256.61 1454.01,-263.89 1464.57,-263 1461.71,-256.61"/>
</a>
</g>
</g>
<!-- Node26&#45;&gt;Node24 -->
<g id="edge34_Node000026_Node000024" class="edge">
<title>Node26&#45;&gt;Node24</title>
<g id="a_edge34_Node000026_Node000024"><a xlink:title=" ">
<path fill="none" stroke="#63b8ff" d="M1496.04,-263.39C1539.82,-253.35 1593.05,-240.65 1640.5,-228 1645.06,-226.78 1649.74,-225.5 1654.46,-224.17"/>
<polygon fill="#63b8ff" stroke="#63b8ff" points="1495.24,-259.99 1486.27,-265.63 1496.8,-266.81 1495.24,-259.99"/>
</a>
</g>
</g>
</g>
</svg>
