<?xml version="1.0" encoding="UTF-8" standalone="no"?>
<!DOCTYPE svg PUBLIC "-//W3C//DTD SVG 1.1//EN"
 "http://www.w3.org/Graphics/SVG/1.1/DTD/svg11.dtd">
<!-- Generated by graphviz version 2.43.0 (0)
 -->
<!-- Title: /home/runner/work/lethe/lethe/include/core/physics_solver.h Pages: 1 -->
<svg width="872pt" height="489pt"
 viewBox="0.00 0.00 872.09 489.00" xmlns="http://www.w3.org/2000/svg" xmlns:xlink="http://www.w3.org/1999/xlink">
<g id="graph0" class="graph" transform="scale(1 1) rotate(0) translate(4 485)">
<title>/home/runner/work/lethe/lethe/include/core/physics_solver.h</title>
<!-- Node1 -->
<g id="Node000001" class="node">
<title>Node1</title>
<g id="a_Node000001"><a xlink:title=" ">
<polygon fill="#999999" stroke="#666666" points="539.59,-481 393.59,-481 393.59,-440 539.59,-440 539.59,-481"/>
<text text-anchor="start" x="401.59" y="-469" font-family="Helvetica,sans-Serif" font-size="10.00">/home/runner/work/lethe</text>
<text text-anchor="start" x="401.59" y="-458" font-family="Helvetica,sans-Serif" font-size="10.00">/lethe/include/core/physics</text>
<text text-anchor="middle" x="466.59" y="-447" font-family="Helvetica,sans-Serif" font-size="10.00">_solver.h</text>
</a>
</g>
</g>
<!-- Node2 -->
<g id="Node000002" class="node">
<title>Node2</title>
<g id="a_Node000002"><a xlink:href="inexact__newton__non__linear__solver__strategy_8h.html" target="_top" xlink:title=" ">
<polygon fill="white" stroke="#666666" points="751.09,-404 590.09,-404 590.09,-374 751.09,-374 751.09,-404"/>
<text text-anchor="start" x="598.09" y="-392" font-family="Helvetica,sans-Serif" font-size="10.00">core/inexact_newton</text>
<text text-anchor="middle" x="670.59" y="-381" font-family="Helvetica,sans-Serif" font-size="10.00">_non_linear_solver_strategy.h</text>
</a>
</g>
</g>
<!-- Node1&#45;&gt;Node2 -->
<g id="edge1_Node000001_Node000002" class="edge">
<title>Node1&#45;&gt;Node2</title>
<g id="a_edge1_Node000001_Node000002"><a xlink:title=" ">
<path fill="none" stroke="#63b8ff" d="M523.95,-439.96C554.13,-429.68 590.8,-417.18 619.92,-407.26"/>
<polygon fill="#63b8ff" stroke="#63b8ff" points="621.14,-410.54 629.48,-404 618.89,-403.92 621.14,-410.54"/>
</a>
</g>
</g>
<!-- Node3 -->
<g id="Node000003" class="node">
<title>Node3</title>
<g id="a_Node000003"><a xlink:href="physics__solver__strategy_8h.html" target="_top" xlink:title=" ">
<polygon fill="white" stroke="#666666" points="492.09,-338 379.09,-338 379.09,-308 492.09,-308 492.09,-338"/>
<text text-anchor="start" x="387.09" y="-326" font-family="Helvetica,sans-Serif" font-size="10.00">core/physics_solver</text>
<text text-anchor="middle" x="435.59" y="-315" font-family="Helvetica,sans-Serif" font-size="10.00">_strategy.h</text>
</a>
</g>
</g>
<!-- Node1&#45;&gt;Node3 -->
<g id="edge33_Node000001_Node000003" class="edge">
<title>Node1&#45;&gt;Node3</title>
<g id="a_edge33_Node000001_Node000003"><a xlink:title=" ">
<path fill="none" stroke="#63b8ff" d="M504.18,-439.93C530.5,-423.5 558.37,-398.8 542.59,-374 533.06,-359.03 517.75,-348.47 501.66,-341.05"/>
<polygon fill="#63b8ff" stroke="#63b8ff" points="502.7,-337.69 492.13,-337.03 499.98,-344.14 502.7,-337.69"/>
</a>
</g>
</g>
<!-- Node4 -->
<g id="Node000004" class="node">
<title>Node4</title>
<g id="a_Node000004"><a xlink:href="parameters_8h.html" target="_top" xlink:title=" ">
<polygon fill="white" stroke="#666666" points="318.59,-272 212.59,-272 212.59,-253 318.59,-253 318.59,-272"/>
<text text-anchor="middle" x="265.59" y="-260" font-family="Helvetica,sans-Serif" font-size="10.00">core/parameters.h</text>
</a>
</g>
</g>
<!-- Node1&#45;&gt;Node4 -->
<g id="edge32_Node000001_Node000004" class="edge">
<title>Node1&#45;&gt;Node4</title>
<g id="a_edge32_Node000001_Node000004"><a xlink:title=" ">
<path fill="none" stroke="#63b8ff" d="M393.44,-459.62C294.85,-458.05 127.18,-448.67 88.59,-404 75.48,-388.82 79.8,-327.26 96.59,-308 110.66,-291.86 160.61,-279.98 202.59,-272.58"/>
<polygon fill="#63b8ff" stroke="#63b8ff" points="203.24,-276.02 212.51,-270.89 202.06,-269.12 203.24,-276.02"/>
</a>
</g>
</g>
<!-- Node45 -->
<g id="Node000045" class="node">
<title>Node45</title>
<g id="a_Node000045"><a xlink:href="kinsol__newton__non__linear__solver__strategy_8h.html" target="_top" xlink:title=" ">
<polygon fill="white" stroke="#666666" points="259.09,-404 98.09,-404 98.09,-374 259.09,-374 259.09,-404"/>
<text text-anchor="start" x="106.09" y="-392" font-family="Helvetica,sans-Serif" font-size="10.00">core/kinsol_newton</text>
<text text-anchor="middle" x="178.59" y="-381" font-family="Helvetica,sans-Serif" font-size="10.00">_non_linear_solver_strategy.h</text>
</a>
</g>
</g>
<!-- Node1&#45;&gt;Node45 -->
<g id="edge24_Node000001_Node000045" class="edge">
<title>Node1&#45;&gt;Node45</title>
<g id="a_edge24_Node000001_Node000045"><a xlink:title=" ">
<path fill="none" stroke="#63b8ff" d="M393.54,-441.87C348.46,-430.99 291,-417.13 246.84,-406.47"/>
<polygon fill="#63b8ff" stroke="#63b8ff" points="247.6,-403.05 237.05,-404.11 245.95,-409.86 247.6,-403.05"/>
</a>
</g>
</g>
<!-- Node47 -->
<g id="Node000047" class="node">
<title>Node47</title>
<g id="a_Node000047"><a xlink:href="linear__solver__strategy_8h.html" target="_top" xlink:title=" ">
<polygon fill="white" stroke="#666666" points="381.59,-404 277.59,-404 277.59,-374 381.59,-374 381.59,-404"/>
<text text-anchor="start" x="285.59" y="-392" font-family="Helvetica,sans-Serif" font-size="10.00">core/linear_solver</text>
<text text-anchor="middle" x="329.59" y="-381" font-family="Helvetica,sans-Serif" font-size="10.00">_strategy.h</text>
</a>
</g>
</g>
<!-- Node1&#45;&gt;Node47 -->
<g id="edge28_Node000001_Node000047" class="edge">
<title>Node1&#45;&gt;Node47</title>
<g id="a_edge28_Node000001_Node000047"><a xlink:title=" ">
<path fill="none" stroke="#63b8ff" d="M428.06,-439.96C408.74,-430.16 385.47,-418.35 366.4,-408.67"/>
<polygon fill="#63b8ff" stroke="#63b8ff" points="367.91,-405.52 357.41,-404.11 364.74,-411.76 367.91,-405.52"/>
</a>
</g>
</g>
<!-- Node48 -->
<g id="Node000048" class="node">
<title>Node48</title>
<g id="a_Node000048"><a xlink:href="newton__non__linear__solver__strategy_8h.html" target="_top" xlink:title=" ">
<polygon fill="white" stroke="#666666" points="533.09,-404 400.09,-404 400.09,-374 533.09,-374 533.09,-404"/>
<text text-anchor="start" x="408.09" y="-392" font-family="Helvetica,sans-Serif" font-size="10.00">core/newton_non_linear</text>
<text text-anchor="middle" x="466.59" y="-381" font-family="Helvetica,sans-Serif" font-size="10.00">_solver_strategy.h</text>
</a>
</g>
</g>
<!-- Node1&#45;&gt;Node48 -->
<g id="edge30_Node000001_Node000048" class="edge">
<title>Node1&#45;&gt;Node48</title>
<g id="a_edge30_Node000001_Node000048"><a xlink:title=" ">
<path fill="none" stroke="#63b8ff" d="M466.59,-439.77C466.59,-431.85 466.59,-422.63 466.59,-414.3"/>
<polygon fill="#63b8ff" stroke="#63b8ff" points="470.09,-414.04 466.59,-404.04 463.09,-414.04 470.09,-414.04"/>
</a>
</g>
</g>
<!-- Node49 -->
<g id="Node000049" class="node">
<title>Node49</title>
<g id="a_Node000049"><a xlink:title=" ">
<polygon fill="#e0e0e0" stroke="#999999" points="864.09,-404 769.09,-404 769.09,-374 864.09,-374 864.09,-404"/>
<text text-anchor="start" x="777.09" y="-392" font-family="Helvetica,sans-Serif" font-size="10.00">deal.II/lac/affine</text>
<text text-anchor="middle" x="816.59" y="-381" font-family="Helvetica,sans-Serif" font-size="10.00">_constraints.h</text>
</a>
</g>
</g>
<!-- Node1&#45;&gt;Node49 -->
<g id="edge34_Node000001_Node000049" class="edge">
<title>Node1&#45;&gt;Node49</title>
<g id="a_edge34_Node000001_Node000049"><a xlink:title=" ">
<path fill="none" stroke="#63b8ff" d="M539.62,-446.94C596.93,-436.8 678.91,-421.67 759.19,-404.24"/>
<polygon fill="#63b8ff" stroke="#63b8ff" points="759.95,-407.66 768.97,-402.1 758.46,-400.82 759.95,-407.66"/>
</a>
</g>
</g>
<!-- Node2&#45;&gt;Node3 -->
<g id="edge2_Node000002_Node000003" class="edge">
<title>Node2&#45;&gt;Node3</title>
<g id="a_edge2_Node000002_Node000003"><a xlink:title=" ">
<path fill="none" stroke="#63b8ff" d="M619.01,-373.95C583.05,-364.16 534.89,-351.05 496.95,-340.71"/>
<polygon fill="#63b8ff" stroke="#63b8ff" points="497.61,-337.26 487.04,-338.01 495.77,-344.02 497.61,-337.26"/>
</a>
</g>
</g>
<!-- Node44 -->
<g id="Node000044" class="node">
<title>Node44</title>
<g id="a_Node000044"><a xlink:title=" ">
<polygon fill="#e0e0e0" stroke="#999999" points="698.59,-332.5 642.59,-332.5 642.59,-313.5 698.59,-313.5 698.59,-332.5"/>
<text text-anchor="middle" x="670.59" y="-320.5" font-family="Helvetica,sans-Serif" font-size="10.00">iomanip</text>
</a>
</g>
</g>
<!-- Node2&#45;&gt;Node44 -->
<g id="edge23_Node000002_Node000044" class="edge">
<title>Node2&#45;&gt;Node44</title>
<g id="a_edge23_Node000002_Node000044"><a xlink:title=" ">
<path fill="none" stroke="#63b8ff" d="M670.59,-373.8C670.59,-364.7 670.59,-352.79 670.59,-342.9"/>
<polygon fill="#63b8ff" stroke="#63b8ff" points="674.09,-342.84 670.59,-332.84 667.09,-342.84 674.09,-342.84"/>
</a>
</g>
</g>
<!-- Node3&#45;&gt;Node4 -->
<g id="edge3_Node000003_Node000004" class="edge">
<title>Node3&#45;&gt;Node4</title>
<g id="a_edge3_Node000003_Node000004"><a xlink:title=" ">
<path fill="none" stroke="#63b8ff" d="M394.87,-307.99C366,-298.05 327.67,-284.86 300.26,-275.43"/>
<polygon fill="#63b8ff" stroke="#63b8ff" points="301.29,-272.08 290.69,-272.14 299.01,-278.7 301.29,-272.08"/>
</a>
</g>
</g>
<!-- Node43 -->
<g id="Node000043" class="node">
<title>Node43</title>
<g id="a_Node000043"><a xlink:title=" ">
<polygon fill="#e0e0e0" stroke="#999999" points="504.59,-272 366.59,-272 366.59,-253 504.59,-253 504.59,-272"/>
<text text-anchor="middle" x="435.59" y="-260" font-family="Helvetica,sans-Serif" font-size="10.00">deal.II/base/exceptions.h</text>
</a>
</g>
</g>
<!-- Node3&#45;&gt;Node43 -->
<g id="edge22_Node000003_Node000043" class="edge">
<title>Node3&#45;&gt;Node43</title>
<g id="a_edge22_Node000003_Node000043"><a xlink:title=" ">
<path fill="none" stroke="#63b8ff" d="M435.59,-307.84C435.59,-300.21 435.59,-290.7 435.59,-282.45"/>
<polygon fill="#63b8ff" stroke="#63b8ff" points="439.09,-282.27 435.59,-272.27 432.09,-282.27 439.09,-282.27"/>
</a>
</g>
</g>
<!-- Node5 -->
<g id="Node000005" class="node">
<title>Node5</title>
<g id="a_Node000005"><a xlink:href="dimensionality_8h.html" target="_top" xlink:title=" ">
<polygon fill="white" stroke="#666666" points="133.09,-85 12.09,-85 12.09,-66 133.09,-66 133.09,-85"/>
<text text-anchor="middle" x="72.59" y="-73" font-family="Helvetica,sans-Serif" font-size="10.00">core/dimensionality.h</text>
</a>
</g>
</g>
<!-- Node4&#45;&gt;Node5 -->
<g id="edge4_Node000004_Node000005" class="edge">
<title>Node4&#45;&gt;Node5</title>
<g id="a_edge4_Node000004_Node000005"><a xlink:title=" ">
<path fill="none" stroke="#63b8ff" d="M235.44,-252.86C214.45,-245.74 186.73,-234.03 166.59,-217 125.07,-181.9 94.41,-124.03 80.64,-94.72"/>
<polygon fill="#63b8ff" stroke="#63b8ff" points="83.68,-92.95 76.34,-85.31 77.32,-95.86 83.68,-92.95"/>
</a>
</g>
</g>
<!-- Node6 -->
<g id="Node000006" class="node">
<title>Node6</title>
<g id="a_Node000006"><a xlink:title=" ">
<polygon fill="#e0e0e0" stroke="#999999" points="136.09,-30 9.09,-30 9.09,0 136.09,0 136.09,-30"/>
<text text-anchor="start" x="17.09" y="-18" font-family="Helvetica,sans-Serif" font-size="10.00">deal.II/base/parameter</text>
<text text-anchor="middle" x="72.59" y="-7" font-family="Helvetica,sans-Serif" font-size="10.00">_handler.h</text>
</a>
</g>
</g>
<!-- Node4&#45;&gt;Node6 -->
<g id="edge19_Node000004_Node000006" class="edge">
<title>Node4&#45;&gt;Node6</title>
<g id="a_edge19_Node000004_Node000006"><a xlink:title=" ">
<path fill="none" stroke="#63b8ff" d="M226.31,-253C199.4,-246.03 163.65,-234.43 135.59,-217 64.84,-173.06 34.6,-161.88 2.59,-85 -5.87,-64.69 11.94,-47.34 31.71,-35.11"/>
<polygon fill="#63b8ff" stroke="#63b8ff" points="33.62,-38.05 40.54,-30.03 30.13,-31.99 33.62,-38.05"/>
</a>
</g>
</g>
<!-- Node7 -->
<g id="Node000007" class="node">
<title>Node7</title>
<g id="a_Node000007"><a xlink:href="ib__particle_8h.html" target="_top" xlink:title=" ">
<polygon fill="white" stroke="#666666" points="316.09,-211.5 215.09,-211.5 215.09,-192.5 316.09,-192.5 316.09,-211.5"/>
<text text-anchor="middle" x="265.59" y="-199.5" font-family="Helvetica,sans-Serif" font-size="10.00">core/ib_particle.h</text>
</a>
</g>
</g>
<!-- Node4&#45;&gt;Node7 -->
<g id="edge6_Node000004_Node000007" class="edge">
<title>Node4&#45;&gt;Node7</title>
<g id="a_edge6_Node000004_Node000007"><a xlink:title=" ">
<path fill="none" stroke="#63b8ff" d="M265.59,-252.87C265.59,-244.75 265.59,-232.31 265.59,-221.89"/>
<polygon fill="#63b8ff" stroke="#63b8ff" points="269.09,-221.67 265.59,-211.67 262.09,-221.67 269.09,-221.67"/>
</a>
</g>
</g>
<!-- Node15 -->
<g id="Node000015" class="node">
<title>Node15</title>
<g id="a_Node000015"><a xlink:href="core_2utilities_8h.html" target="_top" xlink:title=" ">
<polygon fill="#fff0f0" stroke="red" points="237.59,-85 151.59,-85 151.59,-66 237.59,-66 237.59,-85"/>
<text text-anchor="middle" x="194.59" y="-73" font-family="Helvetica,sans-Serif" font-size="10.00">core/utilities.h</text>
</a>
</g>
</g>
<!-- Node4&#45;&gt;Node15 -->
<g id="edge18_Node000004_Node000015" class="edge">
<title>Node4&#45;&gt;Node15</title>
<g id="a_edge18_Node000004_Node000015"><a xlink:title=" ">
<path fill="none" stroke="#63b8ff" d="M249.52,-252.93C222,-237.13 167,-200.49 148.59,-151 143.94,-138.5 143.38,-133.28 148.59,-121 153.57,-109.25 163.34,-99.09 172.6,-91.45"/>
<polygon fill="#63b8ff" stroke="#63b8ff" points="174.99,-94.03 180.8,-85.18 170.73,-88.47 174.99,-94.03"/>
</a>
</g>
</g>
<!-- Node40 -->
<g id="Node000040" class="node">
<title>Node40</title>
<g id="a_Node000040"><a xlink:title=" ">
<polygon fill="#e0e0e0" stroke="#999999" points="585.09,-151 476.09,-151 476.09,-121 585.09,-121 585.09,-151"/>
<text text-anchor="start" x="484.09" y="-139" font-family="Helvetica,sans-Serif" font-size="10.00">deal.II/base/parsed</text>
<text text-anchor="middle" x="530.59" y="-128" font-family="Helvetica,sans-Serif" font-size="10.00">_function.h</text>
</a>
</g>
</g>
<!-- Node4&#45;&gt;Node40 -->
<g id="edge20_Node000004_Node000040" class="edge">
<title>Node4&#45;&gt;Node40</title>
<g id="a_edge20_Node000004_Node000040"><a xlink:title=" ">
<path fill="none" stroke="#63b8ff" d="M277.37,-252.67C289.29,-243.71 308.26,-229.44 324.59,-217 341.98,-203.75 344.12,-196.97 363.59,-187 395.67,-170.57 434.05,-158.6 465.92,-150.51"/>
<polygon fill="#63b8ff" stroke="#63b8ff" points="467.16,-153.81 476.03,-148.01 465.48,-147.01 467.16,-153.81"/>
</a>
</g>
</g>
<!-- Node41 -->
<g id="Node000041" class="node">
<title>Node41</title>
<g id="a_Node000041"><a xlink:href="multiphysics_8h.html" target="_top" xlink:title="Identifiers for multiphysics modules and their solution fields.">
<polygon fill="white" stroke="#666666" points="484.59,-211.5 372.59,-211.5 372.59,-192.5 484.59,-192.5 484.59,-211.5"/>
<text text-anchor="middle" x="428.59" y="-199.5" font-family="Helvetica,sans-Serif" font-size="10.00">core/multiphysics.h</text>
</a>
</g>
</g>
<!-- Node4&#45;&gt;Node41 -->
<g id="edge17_Node000004_Node000041" class="edge">
<title>Node4&#45;&gt;Node41</title>
<g id="a_edge17_Node000004_Node000041"><a xlink:title=" ">
<path fill="none" stroke="#63b8ff" d="M289.29,-252.99C317.17,-242.99 363.66,-226.3 395.19,-214.99"/>
<polygon fill="#63b8ff" stroke="#63b8ff" points="396.63,-218.19 404.86,-211.52 394.26,-211.6 396.63,-218.19"/>
</a>
</g>
</g>
<!-- Node42 -->
<g id="Node000042" class="node">
<title>Node42</title>
<g id="a_Node000042"><a xlink:title=" ">
<polygon fill="#e0e0e0" stroke="#999999" points="666.09,-217 503.09,-217 503.09,-187 666.09,-187 666.09,-217"/>
<text text-anchor="start" x="511.09" y="-205" font-family="Helvetica,sans-Serif" font-size="10.00">deal.II/multigrid/mg</text>
<text text-anchor="middle" x="584.59" y="-194" font-family="Helvetica,sans-Serif" font-size="10.00">_transfer_global_coarsening.h</text>
</a>
</g>
</g>
<!-- Node4&#45;&gt;Node42 -->
<g id="edge21_Node000004_Node000042" class="edge">
<title>Node4&#45;&gt;Node42</title>
<g id="a_edge21_Node000004_Node000042"><a xlink:title=" ">
<path fill="none" stroke="#63b8ff" d="M311.97,-252.99C360.67,-244.06 438.35,-229.82 498.35,-218.81"/>
<polygon fill="#63b8ff" stroke="#63b8ff" points="499,-222.25 508.2,-217.01 497.74,-215.37 499,-222.25"/>
</a>
</g>
</g>
<!-- Node5&#45;&gt;Node6 -->
<g id="edge5_Node000005_Node000006" class="edge">
<title>Node5&#45;&gt;Node6</title>
<g id="a_edge5_Node000005_Node000006"><a xlink:title=" ">
<path fill="none" stroke="#63b8ff" d="M72.59,-65.87C72.59,-59.11 72.59,-49.35 72.59,-40.26"/>
<polygon fill="#63b8ff" stroke="#63b8ff" points="76.09,-40.11 72.59,-30.11 69.09,-40.11 76.09,-40.11"/>
</a>
</g>
</g>
<!-- Node8 -->
<g id="Node000008" class="node">
<title>Node8</title>
<g id="a_Node000008"><a xlink:href="dem__properties_8h.html" target="_top" xlink:title="DEM particle property definitions and output name management.">
<polygon fill="#fff0f0" stroke="red" points="419.59,-85 293.59,-85 293.59,-66 419.59,-66 419.59,-85"/>
<text text-anchor="middle" x="356.59" y="-73" font-family="Helvetica,sans-Serif" font-size="10.00">core/dem_properties.h</text>
</a>
</g>
</g>
<!-- Node7&#45;&gt;Node8 -->
<g id="edge7_Node000007_Node000008" class="edge">
<title>Node7&#45;&gt;Node8</title>
<g id="a_edge7_Node000007_Node000008"><a xlink:title=" ">
<path fill="none" stroke="#63b8ff" d="M271.84,-192.44C286.78,-172.01 324.74,-120.07 344.39,-93.19"/>
<polygon fill="#63b8ff" stroke="#63b8ff" points="347.21,-95.26 350.29,-85.12 341.56,-91.13 347.21,-95.26"/>
</a>
</g>
</g>
<!-- Node10 -->
<g id="Node000010" class="node">
<title>Node10</title>
<g id="a_Node000010"><a xlink:title=" ">
<polygon fill="#e0e0e0" stroke="#999999" points="289.09,-24.5 242.09,-24.5 242.09,-5.5 289.09,-5.5 289.09,-24.5"/>
<text text-anchor="middle" x="265.59" y="-12.5" font-family="Helvetica,sans-Serif" font-size="10.00">vector</text>
</a>
</g>
</g>
<!-- Node7&#45;&gt;Node10 -->
<g id="edge16_Node000007_Node000010" class="edge">
<title>Node7&#45;&gt;Node10</title>
<g id="a_edge16_Node000007_Node000010"><a xlink:title=" ">
<path fill="none" stroke="#63b8ff" d="M265.59,-192.08C265.59,-163.57 265.59,-74.24 265.59,-34.91"/>
<polygon fill="#63b8ff" stroke="#63b8ff" points="269.09,-34.83 265.59,-24.83 262.09,-34.83 269.09,-34.83"/>
</a>
</g>
</g>
<!-- Node11 -->
<g id="Node000011" class="node">
<title>Node11</title>
<g id="a_Node000011"><a xlink:href="shape_8h.html" target="_top" xlink:title=" ">
<polygon fill="#fff0f0" stroke="red" points="237.09,-145.5 158.09,-145.5 158.09,-126.5 237.09,-126.5 237.09,-145.5"/>
<text text-anchor="middle" x="197.59" y="-133.5" font-family="Helvetica,sans-Serif" font-size="10.00">core/shape.h</text>
</a>
</g>
</g>
<!-- Node7&#45;&gt;Node11 -->
<g id="edge9_Node000007_Node000011" class="edge">
<title>Node7&#45;&gt;Node11</title>
<g id="a_edge9_Node000007_Node000011"><a xlink:title=" ">
<path fill="none" stroke="#63b8ff" d="M256.42,-192.37C245.73,-182.31 227.84,-165.48 214.59,-153.01"/>
<polygon fill="#63b8ff" stroke="#63b8ff" points="216.73,-150.21 207.05,-145.91 211.93,-155.31 216.73,-150.21"/>
</a>
</g>
</g>
<!-- Node13 -->
<g id="Node000013" class="node">
<title>Node13</title>
<g id="a_Node000013"><a xlink:title=" ">
<polygon fill="#e0e0e0" stroke="#999999" points="459.59,-24.5 349.59,-24.5 349.59,-5.5 459.59,-5.5 459.59,-24.5"/>
<text text-anchor="middle" x="404.59" y="-12.5" font-family="Helvetica,sans-Serif" font-size="10.00">deal.II/base/point.h</text>
</a>
</g>
</g>
<!-- Node7&#45;&gt;Node13 -->
<g id="edge15_Node000007_Node000013" class="edge">
<title>Node7&#45;&gt;Node13</title>
<g id="a_edge15_Node000007_Node000013"><a xlink:title=" ">
<path fill="none" stroke="#63b8ff" d="M289.14,-192.48C326.74,-177.45 399.05,-142.26 428.59,-85 437.27,-68.17 427.66,-47.5 418.14,-33.2"/>
<polygon fill="#63b8ff" stroke="#63b8ff" points="420.79,-30.88 412.1,-24.82 415.11,-34.98 420.79,-30.88"/>
</a>
</g>
</g>
<!-- Node7&#45;&gt;Node40 -->
<g id="edge14_Node000007_Node000040" class="edge">
<title>Node7&#45;&gt;Node40</title>
<g id="a_edge14_Node000007_Node000040"><a xlink:title=" ">
<path fill="none" stroke="#63b8ff" d="M301.05,-192.44C343.18,-182.26 414.3,-165.09 466.23,-152.54"/>
<polygon fill="#63b8ff" stroke="#63b8ff" points="467.11,-155.93 476.01,-150.18 465.47,-149.13 467.11,-155.93"/>
</a>
</g>
</g>
<!-- Node8&#45;&gt;Node10 -->
<g id="edge8_Node000008_Node000010" class="edge">
<title>Node8&#45;&gt;Node10</title>
<g id="a_edge8_Node000008_Node000010"><a xlink:title=" ">
<path fill="none" stroke="#63b8ff" d="M343.16,-65.87C328.51,-56.45 304.83,-41.23 287.48,-30.08"/>
<polygon fill="#63b8ff" stroke="#63b8ff" points="289.37,-27.13 279.07,-24.67 285.59,-33.02 289.37,-27.13"/>
</a>
</g>
</g>
<!-- Node11&#45;&gt;Node15 -->
<g id="edge10_Node000011_Node000015" class="edge">
<title>Node11&#45;&gt;Node15</title>
<g id="a_edge10_Node000011_Node000015"><a xlink:title=" ">
<path fill="none" stroke="#63b8ff" d="M197.14,-126.37C196.73,-118.25 196.09,-105.81 195.56,-95.39"/>
<polygon fill="#63b8ff" stroke="#63b8ff" points="199.04,-94.97 195.03,-85.17 192.05,-95.33 199.04,-94.97"/>
</a>
</g>
</g>
<!-- Node15&#45;&gt;Node6 -->
<g id="edge11_Node000015_Node000006" class="edge">
<title>Node15&#45;&gt;Node6</title>
<g id="a_edge11_Node000015_Node000006"><a xlink:title=" ">
<path fill="none" stroke="#63b8ff" d="M176.85,-65.99C159.73,-57.79 133.25,-45.09 111.26,-34.55"/>
<polygon fill="#63b8ff" stroke="#63b8ff" points="112.68,-31.35 102.15,-30.18 109.66,-37.66 112.68,-31.35"/>
</a>
</g>
</g>
<!-- Node15&#45;&gt;Node10 -->
<g id="edge13_Node000015_Node000010" class="edge">
<title>Node15&#45;&gt;Node10</title>
<g id="a_edge13_Node000015_Node000010"><a xlink:title=" ">
<path fill="none" stroke="#63b8ff" d="M205.06,-65.87C216.07,-56.8 233.62,-42.34 246.99,-31.32"/>
<polygon fill="#63b8ff" stroke="#63b8ff" points="249.58,-33.73 255.07,-24.67 245.12,-28.33 249.58,-33.73"/>
</a>
</g>
</g>
<!-- Node15&#45;&gt;Node13 -->
<g id="edge12_Node000015_Node000013" class="edge">
<title>Node15&#45;&gt;Node13</title>
<g id="a_edge12_Node000015_Node000013"><a xlink:title=" ">
<path fill="none" stroke="#63b8ff" d="M225.12,-65.99C261.83,-55.77 323.54,-38.58 364.17,-27.26"/>
<polygon fill="#63b8ff" stroke="#63b8ff" points="365.32,-30.57 374.01,-24.52 363.44,-23.83 365.32,-30.57"/>
</a>
</g>
</g>
<!-- Node45&#45;&gt;Node3 -->
<g id="edge26_Node000045_Node000003" class="edge">
<title>Node45&#45;&gt;Node3</title>
<g id="a_edge26_Node000045_Node000003"><a xlink:title=" ">
<path fill="none" stroke="#63b8ff" d="M234.99,-373.95C274.66,-364.08 327.88,-350.82 369.54,-340.45"/>
<polygon fill="#63b8ff" stroke="#63b8ff" points="370.46,-343.83 379.32,-338.01 368.77,-337.03 370.46,-343.83"/>
</a>
</g>
</g>
<!-- Node45&#45;&gt;Node4 -->
<g id="edge25_Node000045_Node000004" class="edge">
<title>Node45&#45;&gt;Node4</title>
<g id="a_edge25_Node000045_Node000004"><a xlink:title=" ">
<path fill="none" stroke="#63b8ff" d="M205.26,-373.92C219.19,-365.29 235.4,-353.01 245.59,-338 256.96,-321.23 261.87,-298.27 263.99,-282.28"/>
<polygon fill="#63b8ff" stroke="#63b8ff" points="267.5,-282.38 265.09,-272.07 260.54,-281.63 267.5,-282.38"/>
</a>
</g>
</g>
<!-- Node46 -->
<g id="Node000046" class="node">
<title>Node46</title>
<g id="a_Node000046"><a xlink:title=" ">
<polygon fill="#e0e0e0" stroke="#999999" points="237.09,-332.5 106.09,-332.5 106.09,-313.5 237.09,-313.5 237.09,-332.5"/>
<text text-anchor="middle" x="171.59" y="-320.5" font-family="Helvetica,sans-Serif" font-size="10.00">deal.II/sundials/kinsol.h</text>
</a>
</g>
</g>
<!-- Node45&#45;&gt;Node46 -->
<g id="edge27_Node000045_Node000046" class="edge">
<title>Node45&#45;&gt;Node46</title>
<g id="a_edge27_Node000045_Node000046"><a xlink:title=" ">
<path fill="none" stroke="#63b8ff" d="M177.03,-373.8C176.04,-364.7 174.74,-352.79 173.65,-342.9"/>
<polygon fill="#63b8ff" stroke="#63b8ff" points="177.12,-342.4 172.55,-332.84 170.16,-343.17 177.12,-342.4"/>
</a>
</g>
</g>
<!-- Node47&#45;&gt;Node3 -->
<g id="edge29_Node000047_Node000003" class="edge">
<title>Node47&#45;&gt;Node3</title>
<g id="a_edge29_Node000047_Node000003"><a xlink:title=" ">
<path fill="none" stroke="#63b8ff" d="M352.85,-373.95C367.76,-364.95 387.32,-353.14 403.67,-343.27"/>
<polygon fill="#63b8ff" stroke="#63b8ff" points="405.63,-346.18 412.38,-338.01 402.01,-340.18 405.63,-346.18"/>
</a>
</g>
</g>
<!-- Node48&#45;&gt;Node3 -->
<g id="edge31_Node000048_Node000003" class="edge">
<title>Node48&#45;&gt;Node3</title>
<g id="a_edge31_Node000048_Node000003"><a xlink:title=" ">
<path fill="none" stroke="#63b8ff" d="M459.71,-373.8C455.93,-366.01 451.16,-356.16 446.86,-347.28"/>
<polygon fill="#63b8ff" stroke="#63b8ff" points="449.96,-345.64 442.45,-338.16 443.66,-348.69 449.96,-345.64"/>
</a>
</g>
</g>
</g>
</svg>
