<?xml version="1.0" encoding="UTF-8" standalone="no"?>
<!DOCTYPE svg PUBLIC "-//W3C//DTD SVG 1.1//EN"
 "http://www.w3.org/Graphics/SVG/1.1/DTD/svg11.dtd">
<!-- Generated by graphviz version 2.43.0 (0)
 -->
<!-- Title: /home/runner/work/lethe/lethe/include/solvers/physics_subequations_solver.h Pages: 1 -->
<svg width="1843pt" height="390pt"
 viewBox="0.00 0.00 1842.50 390.00" xmlns="http://www.w3.org/2000/svg" xmlns:xlink="http://www.w3.org/1999/xlink">
<g id="graph0" class="graph" transform="scale(1 1) rotate(0) translate(4 386)">
<title>/home/runner/work/lethe/lethe/include/solvers/physics_subequations_solver.h</title>
<!-- Node1 -->
<g id="Node000001" class="node">
<title>Node1</title>
<g id="a_Node000001"><a xlink:title=" ">
<polygon fill="#999999" stroke="#666666" points="1203.5,-382 1033.5,-382 1033.5,-341 1203.5,-341 1203.5,-382"/>
<text text-anchor="start" x="1041.5" y="-370" font-family="Helvetica,sans-Serif" font-size="10.00">/home/runner/work/lethe</text>
<text text-anchor="start" x="1041.5" y="-359" font-family="Helvetica,sans-Serif" font-size="10.00">/lethe/include/solvers</text>
<text text-anchor="middle" x="1118.5" y="-348" font-family="Helvetica,sans-Serif" font-size="10.00">/physics_subequations_solver.h</text>
</a>
</g>
</g>
<!-- Node2 -->
<g id="Node000002" class="node">
<title>Node2</title>
<g id="a_Node000002"><a xlink:href="particle__projector_8h.html" target="_top" xlink:title=" ">
<polygon fill="white" stroke="#666666" points="547,-305 410,-305 410,-264 547,-264 547,-305"/>
<text text-anchor="start" x="418" y="-293" font-family="Helvetica,sans-Serif" font-size="10.00">/home/runner/work/lethe</text>
<text text-anchor="start" x="418" y="-282" font-family="Helvetica,sans-Serif" font-size="10.00">/lethe/include/fem&#45;dem</text>
<text text-anchor="middle" x="478.5" y="-271" font-family="Helvetica,sans-Serif" font-size="10.00">/particle_projector.h</text>
</a>
</g>
</g>
<!-- Node1&#45;&gt;Node2 -->
<g id="edge1_Node000001_Node000002" class="edge">
<title>Node1&#45;&gt;Node2</title>
<g id="a_edge1_Node000001_Node000002"><a xlink:title=" ">
<path fill="none" stroke="#63b8ff" d="M1023.2,-349.33C892.77,-334.05 661.8,-306.98 547.09,-293.54"/>
<polygon fill="#63b8ff" stroke="#63b8ff" points="1022.84,-352.81 1033.18,-350.5 1023.66,-345.86 1022.84,-352.81"/>
</a>
</g>
</g>
<!-- Node14 -->
<g id="Node000014" class="node">
<title>Node14</title>
<g id="a_Node000014"><a xlink:href="cls__algebraic__interface__reinitialization_8h.html" target="_top" xlink:title=" ">
<polygon fill="white" stroke="#666666" points="1133,-228 996,-228 996,-176 1133,-176 1133,-228"/>
<text text-anchor="start" x="1004" y="-216" font-family="Helvetica,sans-Serif" font-size="10.00">/home/runner/work/lethe</text>
<text text-anchor="start" x="1004" y="-205" font-family="Helvetica,sans-Serif" font-size="10.00">/lethe/include/solvers</text>
<text text-anchor="start" x="1004" y="-194" font-family="Helvetica,sans-Serif" font-size="10.00">/cls_algebraic_interface</text>
<text text-anchor="middle" x="1064.5" y="-183" font-family="Helvetica,sans-Serif" font-size="10.00">_reinitialization.h</text>
</a>
</g>
</g>
<!-- Node1&#45;&gt;Node14 -->
<g id="edge16_Node000001_Node000014" class="edge">
<title>Node1&#45;&gt;Node14</title>
<g id="a_edge16_Node000001_Node000014"><a xlink:title=" ">
<path fill="none" stroke="#63b8ff" d="M1097.98,-332.53C1092.56,-324.04 1087.2,-314.45 1083.5,-305 1073.64,-279.84 1068.81,-249.15 1066.51,-228.04"/>
<polygon fill="#63b8ff" stroke="#63b8ff" points="1095.12,-334.55 1103.58,-340.93 1100.95,-330.67 1095.12,-334.55"/>
</a>
</g>
</g>
<!-- Node17 -->
<g id="Node000017" class="node">
<title>Node17</title>
<g id="a_Node000017"><a xlink:href="cls__linear__subequations__solver_8h.html" target="_top" xlink:title=" ">
<polygon fill="white" stroke="#666666" points="1432,-228 1295,-228 1295,-176 1432,-176 1432,-228"/>
<text text-anchor="start" x="1303" y="-216" font-family="Helvetica,sans-Serif" font-size="10.00">/home/runner/work/lethe</text>
<text text-anchor="start" x="1303" y="-205" font-family="Helvetica,sans-Serif" font-size="10.00">/lethe/include/solvers</text>
<text text-anchor="start" x="1303" y="-194" font-family="Helvetica,sans-Serif" font-size="10.00">/cls_linear_subequations</text>
<text text-anchor="middle" x="1363.5" y="-183" font-family="Helvetica,sans-Serif" font-size="10.00">_solver.h</text>
</a>
</g>
</g>
<!-- Node1&#45;&gt;Node17 -->
<g id="edge19_Node000001_Node000017" class="edge">
<title>Node1&#45;&gt;Node17</title>
<g id="a_edge19_Node000001_Node000017"><a xlink:title=" ">
<path fill="none" stroke="#63b8ff" d="M1196.07,-337.44C1218.46,-329 1242.29,-318.21 1262.5,-305 1294.83,-283.86 1325.04,-250.93 1343.84,-228.23"/>
<polygon fill="#63b8ff" stroke="#63b8ff" points="1194.77,-334.19 1186.58,-340.91 1197.17,-340.76 1194.77,-334.19"/>
</a>
</g>
</g>
<!-- Node26 -->
<g id="Node000026" class="node">
<title>Node26</title>
<g id="a_Node000026"><a xlink:href="cls__subequations__interface_8h.html" target="_top" xlink:title=" ">
<polygon fill="white" stroke="#666666" points="1254,-305 1093,-305 1093,-264 1254,-264 1254,-305"/>
<text text-anchor="start" x="1101" y="-293" font-family="Helvetica,sans-Serif" font-size="10.00">/home/runner/work/lethe</text>
<text text-anchor="start" x="1101" y="-282" font-family="Helvetica,sans-Serif" font-size="10.00">/lethe/include/solvers</text>
<text text-anchor="middle" x="1173.5" y="-271" font-family="Helvetica,sans-Serif" font-size="10.00">/cls_subequations_interface.h</text>
</a>
</g>
</g>
<!-- Node1&#45;&gt;Node26 -->
<g id="edge31_Node000001_Node000026" class="edge">
<title>Node1&#45;&gt;Node26</title>
<g id="a_edge31_Node000001_Node000026"><a xlink:title=" ">
<path fill="none" stroke="#63b8ff" d="M1138.91,-332.67C1145.63,-323.5 1152.97,-313.5 1159.15,-305.07"/>
<polygon fill="#63b8ff" stroke="#63b8ff" points="1136.04,-330.66 1132.95,-340.79 1141.69,-334.8 1136.04,-330.66"/>
</a>
</g>
</g>
<!-- Node3 -->
<g id="Node000003" class="node">
<title>Node3</title>
<g id="a_Node000003"><a xlink:href="fluid__dynamics__vans_8h.html" target="_top" xlink:title=" ">
<polygon fill="white" stroke="#666666" points="261,-222.5 124,-222.5 124,-181.5 261,-181.5 261,-222.5"/>
<text text-anchor="start" x="132" y="-210.5" font-family="Helvetica,sans-Serif" font-size="10.00">/home/runner/work/lethe</text>
<text text-anchor="start" x="132" y="-199.5" font-family="Helvetica,sans-Serif" font-size="10.00">/lethe/include/fem&#45;dem</text>
<text text-anchor="middle" x="192.5" y="-188.5" font-family="Helvetica,sans-Serif" font-size="10.00">/fluid_dynamics_vans.h</text>
</a>
</g>
</g>
<!-- Node2&#45;&gt;Node3 -->
<g id="edge2_Node000002_Node000003" class="edge">
<title>Node2&#45;&gt;Node3</title>
<g id="a_edge2_Node000002_Node000003"><a xlink:title=" ">
<path fill="none" stroke="#63b8ff" d="M399.88,-262.51C362.19,-252.32 316.44,-239.76 275.5,-228 269.43,-226.25 263.11,-224.41 256.8,-222.54"/>
<polygon fill="#63b8ff" stroke="#63b8ff" points="399.22,-265.96 409.78,-265.18 401.04,-259.2 399.22,-265.96"/>
</a>
</g>
</g>
<!-- Node6 -->
<g id="Node000006" class="node">
<title>Node6</title>
<g id="a_Node000006"><a xlink:href="fluid__dynamics__vans_8cc.html" target="_top" xlink:title=" ">
<polygon fill="white" stroke="#666666" points="292,-134.5 155,-134.5 155,-93.5 292,-93.5 292,-134.5"/>
<text text-anchor="start" x="163" y="-122.5" font-family="Helvetica,sans-Serif" font-size="10.00">/home/runner/work/lethe</text>
<text text-anchor="start" x="163" y="-111.5" font-family="Helvetica,sans-Serif" font-size="10.00">/lethe/source/fem&#45;dem</text>
<text text-anchor="middle" x="223.5" y="-100.5" font-family="Helvetica,sans-Serif" font-size="10.00">/fluid_dynamics_vans.cc</text>
</a>
</g>
</g>
<!-- Node2&#45;&gt;Node6 -->
<g id="edge14_Node000002_Node000006" class="edge">
<title>Node2&#45;&gt;Node6</title>
<g id="a_edge14_Node000002_Node000006"><a xlink:title=" ">
<path fill="none" stroke="#63b8ff" d="M400.16,-268.62C369.59,-260.19 335.49,-247.33 308.5,-228 285.01,-211.18 286.86,-199.09 269.5,-176 259.14,-162.22 247.44,-146.7 238.43,-134.77"/>
<polygon fill="#63b8ff" stroke="#63b8ff" points="399.38,-272.04 409.94,-271.2 401.17,-265.27 399.38,-272.04"/>
</a>
</g>
</g>
<!-- Node7 -->
<g id="Node000007" class="node">
<title>Node7</title>
<g id="a_Node000007"><a xlink:href="fluid__dynamics__vans__matrix__free_8h.html" target="_top" xlink:title=" ">
<polygon fill="white" stroke="#666666" points="666,-222.5 473,-222.5 473,-181.5 666,-181.5 666,-222.5"/>
<text text-anchor="start" x="481" y="-210.5" font-family="Helvetica,sans-Serif" font-size="10.00">/home/runner/work/lethe</text>
<text text-anchor="start" x="481" y="-199.5" font-family="Helvetica,sans-Serif" font-size="10.00">/lethe/include/fem&#45;dem</text>
<text text-anchor="middle" x="569.5" y="-188.5" font-family="Helvetica,sans-Serif" font-size="10.00">/fluid_dynamics_vans_matrix_free.h</text>
</a>
</g>
</g>
<!-- Node2&#45;&gt;Node7 -->
<g id="edge6_Node000002_Node000007" class="edge">
<title>Node2&#45;&gt;Node7</title>
<g id="a_edge6_Node000002_Node000007"><a xlink:title=" ">
<path fill="none" stroke="#63b8ff" d="M508.58,-256.89C521.2,-245.72 535.62,-232.97 547.26,-222.67"/>
<polygon fill="#63b8ff" stroke="#63b8ff" points="506.17,-254.35 500.99,-263.6 510.8,-259.6 506.17,-254.35"/>
</a>
</g>
</g>
<!-- Node11 -->
<g id="Node000011" class="node">
<title>Node11</title>
<g id="a_Node000011"><a xlink:href="fluid__dynamics__vans__matrix__free__operators_8h.html" target="_top" xlink:title=" ">
<polygon fill="white" stroke="#666666" points="843,-228 684,-228 684,-176 843,-176 843,-228"/>
<text text-anchor="start" x="692" y="-216" font-family="Helvetica,sans-Serif" font-size="10.00">/home/runner/work/lethe</text>
<text text-anchor="start" x="692" y="-205" font-family="Helvetica,sans-Serif" font-size="10.00">/lethe/include/fem&#45;dem</text>
<text text-anchor="start" x="692" y="-194" font-family="Helvetica,sans-Serif" font-size="10.00">/fluid_dynamics_vans_matrix</text>
<text text-anchor="middle" x="763.5" y="-183" font-family="Helvetica,sans-Serif" font-size="10.00">_free_operators.h</text>
</a>
</g>
</g>
<!-- Node2&#45;&gt;Node11 -->
<g id="edge10_Node000002_Node000011" class="edge">
<title>Node2&#45;&gt;Node11</title>
<g id="a_edge10_Node000002_Node000011"><a xlink:title=" ">
<path fill="none" stroke="#63b8ff" d="M556.98,-261.33C596.46,-250.18 644.22,-236.69 683.86,-225.5"/>
<polygon fill="#63b8ff" stroke="#63b8ff" points="555.8,-258.03 547.13,-264.12 557.7,-264.77 555.8,-258.03"/>
</a>
</g>
</g>
<!-- Node13 -->
<g id="Node000013" class="node">
<title>Node13</title>
<g id="a_Node000013"><a xlink:href="particle__projector_8cc.html" target="_top" xlink:title=" ">
<polygon fill="white" stroke="#666666" points="455,-222.5 318,-222.5 318,-181.5 455,-181.5 455,-222.5"/>
<text text-anchor="start" x="326" y="-210.5" font-family="Helvetica,sans-Serif" font-size="10.00">/home/runner/work/lethe</text>
<text text-anchor="start" x="326" y="-199.5" font-family="Helvetica,sans-Serif" font-size="10.00">/lethe/source/fem&#45;dem</text>
<text text-anchor="middle" x="386.5" y="-188.5" font-family="Helvetica,sans-Serif" font-size="10.00">/particle_projector.cc</text>
</a>
</g>
</g>
<!-- Node2&#45;&gt;Node13 -->
<g id="edge15_Node000002_Node000013" class="edge">
<title>Node2&#45;&gt;Node13</title>
<g id="a_edge15_Node000002_Node000013"><a xlink:title=" ">
<path fill="none" stroke="#63b8ff" d="M448.09,-256.89C435.33,-245.72 420.75,-232.97 408.98,-222.67"/>
<polygon fill="#63b8ff" stroke="#63b8ff" points="445.93,-259.65 455.76,-263.6 450.54,-254.38 445.93,-259.65"/>
</a>
</g>
</g>
<!-- Node4 -->
<g id="Node000004" class="node">
<title>Node4</title>
<g id="a_Node000004"><a xlink:href="cfd__dem__coupling_8h.html" target="_top" xlink:title=" ">
<polygon fill="white" stroke="#666666" points="137,-134.5 0,-134.5 0,-93.5 137,-93.5 137,-134.5"/>
<text text-anchor="start" x="8" y="-122.5" font-family="Helvetica,sans-Serif" font-size="10.00">/home/runner/work/lethe</text>
<text text-anchor="start" x="8" y="-111.5" font-family="Helvetica,sans-Serif" font-size="10.00">/lethe/include/fem&#45;dem</text>
<text text-anchor="middle" x="68.5" y="-100.5" font-family="Helvetica,sans-Serif" font-size="10.00">/cfd_dem_coupling.h</text>
</a>
</g>
</g>
<!-- Node3&#45;&gt;Node4 -->
<g id="edge3_Node000003_Node000004" class="edge">
<title>Node3&#45;&gt;Node4</title>
<g id="a_edge3_Node000003_Node000004"><a xlink:title=" ">
<path fill="none" stroke="#63b8ff" d="M156,-175.69C137.15,-162.61 114.49,-146.9 96.96,-134.74"/>
<polygon fill="#63b8ff" stroke="#63b8ff" points="154.15,-178.66 164.36,-181.49 158.14,-172.91 154.15,-178.66"/>
</a>
</g>
</g>
<!-- Node3&#45;&gt;Node6 -->
<g id="edge5_Node000003_Node000006" class="edge">
<title>Node3&#45;&gt;Node6</title>
<g id="a_edge5_Node000003_Node000006"><a xlink:title=" ">
<path fill="none" stroke="#63b8ff" d="M203.05,-171.73C207.45,-159.53 212.44,-145.69 216.39,-134.74"/>
<polygon fill="#63b8ff" stroke="#63b8ff" points="199.63,-170.89 199.53,-181.49 206.22,-173.26 199.63,-170.89"/>
</a>
</g>
</g>
<!-- Node5 -->
<g id="Node000005" class="node">
<title>Node5</title>
<g id="a_Node000005"><a xlink:href="cfd__dem__coupling_8cc.html" target="_top" xlink:title=" ">
<polygon fill="white" stroke="#666666" points="137,-46.5 0,-46.5 0,-5.5 137,-5.5 137,-46.5"/>
<text text-anchor="start" x="8" y="-34.5" font-family="Helvetica,sans-Serif" font-size="10.00">/home/runner/work/lethe</text>
<text text-anchor="start" x="8" y="-23.5" font-family="Helvetica,sans-Serif" font-size="10.00">/lethe/source/fem&#45;dem</text>
<text text-anchor="middle" x="68.5" y="-12.5" font-family="Helvetica,sans-Serif" font-size="10.00">/cfd_dem_coupling.cc</text>
</a>
</g>
</g>
<!-- Node4&#45;&gt;Node5 -->
<g id="edge4_Node000004_Node000005" class="edge">
<title>Node4&#45;&gt;Node5</title>
<g id="a_edge4_Node000004_Node000005"><a xlink:title=" ">
<path fill="none" stroke="#63b8ff" d="M68.5,-83.36C68.5,-71.26 68.5,-57.58 68.5,-46.74"/>
<polygon fill="#63b8ff" stroke="#63b8ff" points="65,-83.49 68.5,-93.49 72,-83.49 65,-83.49"/>
</a>
</g>
</g>
<!-- Node8 -->
<g id="Node000008" class="node">
<title>Node8</title>
<g id="a_Node000008"><a xlink:href="cfd__dem__coupling__matrix__free_8h.html" target="_top" xlink:title=" ">
<polygon fill="white" stroke="#666666" points="489,-134.5 310,-134.5 310,-93.5 489,-93.5 489,-134.5"/>
<text text-anchor="start" x="318" y="-122.5" font-family="Helvetica,sans-Serif" font-size="10.00">/home/runner/work/lethe</text>
<text text-anchor="start" x="318" y="-111.5" font-family="Helvetica,sans-Serif" font-size="10.00">/lethe/include/fem&#45;dem</text>
<text text-anchor="middle" x="399.5" y="-100.5" font-family="Helvetica,sans-Serif" font-size="10.00">/cfd_dem_coupling_matrix_free.h</text>
</a>
</g>
</g>
<!-- Node7&#45;&gt;Node8 -->
<g id="edge7_Node000007_Node000008" class="edge">
<title>Node7&#45;&gt;Node8</title>
<g id="a_edge7_Node000007_Node000008"><a xlink:title=" ">
<path fill="none" stroke="#63b8ff" d="M521.86,-176.9C495.45,-163.54 463.05,-147.15 438.22,-134.59"/>
<polygon fill="#63b8ff" stroke="#63b8ff" points="520.42,-180.09 530.92,-181.49 523.58,-173.85 520.42,-180.09"/>
</a>
</g>
</g>
<!-- Node10 -->
<g id="Node000010" class="node">
<title>Node10</title>
<g id="a_Node000010"><a xlink:href="fluid__dynamics__vans__matrix__free_8cc.html" target="_top" xlink:title=" ">
<polygon fill="white" stroke="#666666" points="666,-140 507,-140 507,-88 666,-88 666,-140"/>
<text text-anchor="start" x="515" y="-128" font-family="Helvetica,sans-Serif" font-size="10.00">/home/runner/work/lethe</text>
<text text-anchor="start" x="515" y="-117" font-family="Helvetica,sans-Serif" font-size="10.00">/lethe/source/fem&#45;dem</text>
<text text-anchor="start" x="515" y="-106" font-family="Helvetica,sans-Serif" font-size="10.00">/fluid_dynamics_vans_matrix</text>
<text text-anchor="middle" x="586.5" y="-95" font-family="Helvetica,sans-Serif" font-size="10.00">_free.cc</text>
</a>
</g>
</g>
<!-- Node7&#45;&gt;Node10 -->
<g id="edge9_Node000007_Node000010" class="edge">
<title>Node7&#45;&gt;Node10</title>
<g id="a_edge9_Node000007_Node000010"><a xlink:title=" ">
<path fill="none" stroke="#63b8ff" d="M575.34,-171.44C577.35,-161.31 579.57,-150.08 581.5,-140.32"/>
<polygon fill="#63b8ff" stroke="#63b8ff" points="571.86,-171 573.36,-181.49 578.73,-172.35 571.86,-171"/>
</a>
</g>
</g>
<!-- Node9 -->
<g id="Node000009" class="node">
<title>Node9</title>
<g id="a_Node000009"><a xlink:href="cfd__dem__coupling__matrix__free_8cc.html" target="_top" xlink:title=" ">
<polygon fill="white" stroke="#666666" points="694.5,-52 548.5,-52 548.5,0 694.5,0 694.5,-52"/>
<text text-anchor="start" x="556.5" y="-40" font-family="Helvetica,sans-Serif" font-size="10.00">/home/runner/work/lethe</text>
<text text-anchor="start" x="556.5" y="-29" font-family="Helvetica,sans-Serif" font-size="10.00">/lethe/source/fem&#45;dem</text>
<text text-anchor="start" x="556.5" y="-18" font-family="Helvetica,sans-Serif" font-size="10.00">/cfd_dem_coupling_matrix</text>
<text text-anchor="middle" x="621.5" y="-7" font-family="Helvetica,sans-Serif" font-size="10.00">_free.cc</text>
</a>
</g>
</g>
<!-- Node8&#45;&gt;Node9 -->
<g id="edge8_Node000008_Node000009" class="edge">
<title>Node8&#45;&gt;Node9</title>
<g id="a_edge8_Node000008_Node000009"><a xlink:title=" ">
<path fill="none" stroke="#63b8ff" d="M459.39,-89.8C489.42,-78.16 525.85,-64.05 556.56,-52.16"/>
<polygon fill="#63b8ff" stroke="#63b8ff" points="457.94,-86.61 449.88,-93.49 460.46,-93.14 457.94,-86.61"/>
</a>
</g>
</g>
<!-- Node11&#45;&gt;Node9 -->
<g id="edge11_Node000011_Node000009" class="edge">
<title>Node11&#45;&gt;Node9</title>
<g id="a_edge11_Node000011_Node000009"><a xlink:title=" ">
<path fill="none" stroke="#63b8ff" d="M825.39,-169.77C835.9,-161.57 845.38,-151.68 851.5,-140 862.22,-119.53 865.59,-106.32 851.5,-88 832.32,-63.08 754.61,-46.22 694.76,-36.65"/>
<polygon fill="#63b8ff" stroke="#63b8ff" points="823.24,-167 817.19,-175.7 827.34,-172.67 823.24,-167"/>
</a>
</g>
</g>
<!-- Node11&#45;&gt;Node10 -->
<g id="edge12_Node000011_Node000010" class="edge">
<title>Node11&#45;&gt;Node10</title>
<g id="a_edge12_Node000011_Node000010"><a xlink:title=" ">
<path fill="none" stroke="#63b8ff" d="M702.68,-171.45C681.71,-161.26 658.42,-149.94 638.24,-140.14"/>
<polygon fill="#63b8ff" stroke="#63b8ff" points="701.3,-174.67 711.83,-175.89 704.36,-168.38 701.3,-174.67"/>
</a>
</g>
</g>
<!-- Node12 -->
<g id="Node000012" class="node">
<title>Node12</title>
<g id="a_Node000012"><a xlink:href="fluid__dynamics__vans__matrix__free__operators_8cc.html" target="_top" xlink:title=" ">
<polygon fill="white" stroke="#666666" points="843,-140 684,-140 684,-88 843,-88 843,-140"/>
<text text-anchor="start" x="692" y="-128" font-family="Helvetica,sans-Serif" font-size="10.00">/home/runner/work/lethe</text>
<text text-anchor="start" x="692" y="-117" font-family="Helvetica,sans-Serif" font-size="10.00">/lethe/source/fem&#45;dem</text>
<text text-anchor="start" x="692" y="-106" font-family="Helvetica,sans-Serif" font-size="10.00">/fluid_dynamics_vans_matrix</text>
<text text-anchor="middle" x="763.5" y="-95" font-family="Helvetica,sans-Serif" font-size="10.00">_free_operators.cc</text>
</a>
</g>
</g>
<!-- Node11&#45;&gt;Node12 -->
<g id="edge13_Node000011_Node000012" class="edge">
<title>Node11&#45;&gt;Node12</title>
<g id="a_edge13_Node000011_Node000012"><a xlink:title=" ">
<path fill="none" stroke="#63b8ff" d="M763.5,-165.56C763.5,-157.04 763.5,-148.1 763.5,-140.16"/>
<polygon fill="#63b8ff" stroke="#63b8ff" points="760,-165.66 763.5,-175.66 767,-165.66 760,-165.66"/>
</a>
</g>
</g>
<!-- Node15 -->
<g id="Node000015" class="node">
<title>Node15</title>
<g id="a_Node000015"><a xlink:href="cls__algebraic__interface__reinitialization_8cc.html" target="_top" xlink:title=" ">
<polygon fill="white" stroke="#666666" points="1036,-140 899,-140 899,-88 1036,-88 1036,-140"/>
<text text-anchor="start" x="907" y="-128" font-family="Helvetica,sans-Serif" font-size="10.00">/home/runner/work/lethe</text>
<text text-anchor="start" x="907" y="-117" font-family="Helvetica,sans-Serif" font-size="10.00">/lethe/source/solvers</text>
<text text-anchor="start" x="907" y="-106" font-family="Helvetica,sans-Serif" font-size="10.00">/cls_algebraic_interface</text>
<text text-anchor="middle" x="967.5" y="-95" font-family="Helvetica,sans-Serif" font-size="10.00">_reinitialization.cc</text>
</a>
</g>
</g>
<!-- Node14&#45;&gt;Node15 -->
<g id="edge17_Node000014_Node000015" class="edge">
<title>Node14&#45;&gt;Node15</title>
<g id="a_edge17_Node000014_Node000015"><a xlink:title=" ">
<path fill="none" stroke="#63b8ff" d="M1028.56,-169.13C1017.82,-159.62 1006.21,-149.32 996.02,-140.29"/>
<polygon fill="#63b8ff" stroke="#63b8ff" points="1026.38,-171.88 1036.18,-175.89 1031.02,-166.64 1026.38,-171.88"/>
</a>
</g>
</g>
<!-- Node16 -->
<g id="Node000016" class="node">
<title>Node16</title>
<g id="a_Node000016"><a xlink:href="cls__subequations__interface_8cc.html" target="_top" xlink:title=" ">
<polygon fill="white" stroke="#666666" points="1418.5,-46.5 1252.5,-46.5 1252.5,-5.5 1418.5,-5.5 1418.5,-46.5"/>
<text text-anchor="start" x="1260.5" y="-34.5" font-family="Helvetica,sans-Serif" font-size="10.00">/home/runner/work/lethe</text>
<text text-anchor="start" x="1260.5" y="-23.5" font-family="Helvetica,sans-Serif" font-size="10.00">/lethe/source/solvers</text>
<text text-anchor="middle" x="1335.5" y="-12.5" font-family="Helvetica,sans-Serif" font-size="10.00">/cls_subequations_interface.cc</text>
</a>
</g>
</g>
<!-- Node14&#45;&gt;Node16 -->
<g id="edge18_Node000014_Node000016" class="edge">
<title>Node14&#45;&gt;Node16</title>
<g id="a_edge18_Node000014_Node000016"><a xlink:title=" ">
<path fill="none" stroke="#63b8ff" d="M1060.9,-165.81C1060.38,-140.94 1064.13,-108.49 1083.5,-88 1133.28,-35.35 1172.17,-69.41 1242.5,-52 1249.48,-50.27 1256.74,-48.42 1263.98,-46.53"/>
<polygon fill="#63b8ff" stroke="#63b8ff" points="1057.41,-166.12 1061.35,-175.95 1064.4,-165.81 1057.41,-166.12"/>
</a>
</g>
</g>
<!-- Node17&#45;&gt;Node16 -->
<g id="edge30_Node000017_Node000016" class="edge">
<title>Node17&#45;&gt;Node16</title>
<g id="a_edge30_Node000017_Node000016"><a xlink:title=" ">
<path fill="none" stroke="#63b8ff" d="M1336.61,-167.48C1331.23,-158.99 1326.35,-149.55 1323.5,-140 1314.02,-108.24 1322.15,-69.5 1328.86,-46.62"/>
<polygon fill="#63b8ff" stroke="#63b8ff" points="1333.85,-169.64 1342.35,-175.96 1339.65,-165.72 1333.85,-169.64"/>
</a>
</g>
</g>
<!-- Node18 -->
<g id="Node000018" class="node">
<title>Node18</title>
<g id="a_Node000018"><a xlink:href="cls_8h.html" target="_top" xlink:title=" ">
<polygon fill="white" stroke="#666666" points="1238.5,-129 1092.5,-129 1092.5,-99 1238.5,-99 1238.5,-129"/>
<text text-anchor="start" x="1100.5" y="-117" font-family="Helvetica,sans-Serif" font-size="10.00">/home/runner/work/lethe</text>
<text text-anchor="middle" x="1165.5" y="-106" font-family="Helvetica,sans-Serif" font-size="10.00">/lethe/include/solvers/cls.h</text>
</a>
</g>
</g>
<!-- Node17&#45;&gt;Node18 -->
<g id="edge20_Node000017_Node000018" class="edge">
<title>Node17&#45;&gt;Node18</title>
<g id="a_edge20_Node000017_Node000018"><a xlink:title=" ">
<path fill="none" stroke="#63b8ff" d="M1296.46,-171.88C1263.16,-157.42 1224.44,-140.6 1197.79,-129.03"/>
<polygon fill="#63b8ff" stroke="#63b8ff" points="1295.13,-175.12 1305.7,-175.89 1297.92,-168.7 1295.13,-175.12"/>
</a>
</g>
</g>
<!-- Node21 -->
<g id="Node000021" class="node">
<title>Node21</title>
<g id="a_Node000021"><a xlink:href="cls__curvature__projection_8h.html" target="_top" xlink:title=" ">
<polygon fill="white" stroke="#666666" points="1830.5,-134.5 1682.5,-134.5 1682.5,-93.5 1830.5,-93.5 1830.5,-134.5"/>
<text text-anchor="start" x="1690.5" y="-122.5" font-family="Helvetica,sans-Serif" font-size="10.00">/home/runner/work/lethe</text>
<text text-anchor="start" x="1690.5" y="-111.5" font-family="Helvetica,sans-Serif" font-size="10.00">/lethe/include/solvers</text>
<text text-anchor="middle" x="1756.5" y="-100.5" font-family="Helvetica,sans-Serif" font-size="10.00">/cls_curvature_projection.h</text>
</a>
</g>
</g>
<!-- Node17&#45;&gt;Node21 -->
<g id="edge23_Node000017_Node000021" class="edge">
<title>Node17&#45;&gt;Node21</title>
<g id="a_edge23_Node000017_Node000021"><a xlink:title=" ">
<path fill="none" stroke="#63b8ff" d="M1442.13,-187.73C1505.07,-176.58 1595.43,-159.39 1673.5,-140 1680.22,-138.33 1687.2,-136.46 1694.14,-134.5"/>
<polygon fill="#63b8ff" stroke="#63b8ff" points="1441.51,-184.29 1432.27,-189.47 1442.72,-191.18 1441.51,-184.29"/>
</a>
</g>
</g>
<!-- Node23 -->
<g id="Node000023" class="node">
<title>Node23</title>
<g id="a_Node000023"><a xlink:href="cls__phase__gradient__projection_8h.html" target="_top" xlink:title=" ">
<polygon fill="white" stroke="#666666" points="1664.5,-134.5 1488.5,-134.5 1488.5,-93.5 1664.5,-93.5 1664.5,-134.5"/>
<text text-anchor="start" x="1496.5" y="-122.5" font-family="Helvetica,sans-Serif" font-size="10.00">/home/runner/work/lethe</text>
<text text-anchor="start" x="1496.5" y="-111.5" font-family="Helvetica,sans-Serif" font-size="10.00">/lethe/include/solvers</text>
<text text-anchor="middle" x="1576.5" y="-100.5" font-family="Helvetica,sans-Serif" font-size="10.00">/cls_phase_gradient_projection.h</text>
</a>
</g>
</g>
<!-- Node17&#45;&gt;Node23 -->
<g id="edge26_Node000017_Node000023" class="edge">
<title>Node17&#45;&gt;Node23</title>
<g id="a_edge26_Node000017_Node000023"><a xlink:title=" ">
<path fill="none" stroke="#63b8ff" d="M1435.03,-172.12C1465.66,-159.75 1500.62,-145.64 1528.13,-134.53"/>
<polygon fill="#63b8ff" stroke="#63b8ff" points="1433.64,-168.9 1425.68,-175.89 1436.26,-175.4 1433.64,-168.9"/>
</a>
</g>
</g>
<!-- Node25 -->
<g id="Node000025" class="node">
<title>Node25</title>
<g id="a_Node000025"><a xlink:href="cls__linear__subequations__solver_8cc.html" target="_top" xlink:title=" ">
<polygon fill="white" stroke="#666666" points="1470,-140 1333,-140 1333,-88 1470,-88 1470,-140"/>
<text text-anchor="start" x="1341" y="-128" font-family="Helvetica,sans-Serif" font-size="10.00">/home/runner/work/lethe</text>
<text text-anchor="start" x="1341" y="-117" font-family="Helvetica,sans-Serif" font-size="10.00">/lethe/source/solvers</text>
<text text-anchor="start" x="1341" y="-106" font-family="Helvetica,sans-Serif" font-size="10.00">/cls_linear_subequations</text>
<text text-anchor="middle" x="1401.5" y="-95" font-family="Helvetica,sans-Serif" font-size="10.00">_solver.cc</text>
</a>
</g>
</g>
<!-- Node17&#45;&gt;Node25 -->
<g id="edge29_Node000017_Node000025" class="edge">
<title>Node17&#45;&gt;Node25</title>
<g id="a_edge29_Node000017_Node000025"><a xlink:title=" ">
<path fill="none" stroke="#63b8ff" d="M1378.79,-166.4C1382.67,-157.63 1386.76,-148.36 1390.38,-140.16"/>
<polygon fill="#63b8ff" stroke="#63b8ff" points="1375.54,-165.1 1374.7,-175.66 1381.94,-167.93 1375.54,-165.1"/>
</a>
</g>
</g>
<!-- Node19 -->
<g id="Node000019" class="node">
<title>Node19</title>
<g id="a_Node000019"><a xlink:href="cls_8cc.html" target="_top" xlink:title=" ">
<polygon fill="white" stroke="#666666" points="1234,-46.5 1097,-46.5 1097,-5.5 1234,-5.5 1234,-46.5"/>
<text text-anchor="start" x="1105" y="-34.5" font-family="Helvetica,sans-Serif" font-size="10.00">/home/runner/work/lethe</text>
<text text-anchor="start" x="1105" y="-23.5" font-family="Helvetica,sans-Serif" font-size="10.00">/lethe/source/solvers</text>
<text text-anchor="middle" x="1165.5" y="-12.5" font-family="Helvetica,sans-Serif" font-size="10.00">/cls.cc</text>
</a>
</g>
</g>
<!-- Node18&#45;&gt;Node19 -->
<g id="edge21_Node000018_Node000019" class="edge">
<title>Node18&#45;&gt;Node19</title>
<g id="a_edge21_Node000018_Node000019"><a xlink:title=" ">
<path fill="none" stroke="#63b8ff" d="M1165.5,-88.5C1165.5,-75.25 1165.5,-59.11 1165.5,-46.69"/>
<polygon fill="#63b8ff" stroke="#63b8ff" points="1162,-88.8 1165.5,-98.8 1169,-88.8 1162,-88.8"/>
</a>
</g>
</g>
<!-- Node20 -->
<g id="Node000020" class="node">
<title>Node20</title>
<g id="a_Node000020"><a xlink:href="multiphysics__interface_8cc.html" target="_top" xlink:title=" ">
<polygon fill="white" stroke="#666666" points="1078.5,-46.5 934.5,-46.5 934.5,-5.5 1078.5,-5.5 1078.5,-46.5"/>
<text text-anchor="start" x="942.5" y="-34.5" font-family="Helvetica,sans-Serif" font-size="10.00">/home/runner/work/lethe</text>
<text text-anchor="start" x="942.5" y="-23.5" font-family="Helvetica,sans-Serif" font-size="10.00">/lethe/source/solvers</text>
<text text-anchor="middle" x="1006.5" y="-12.5" font-family="Helvetica,sans-Serif" font-size="10.00">/multiphysics_interface.cc</text>
</a>
</g>
</g>
<!-- Node18&#45;&gt;Node20 -->
<g id="edge22_Node000018_Node000020" class="edge">
<title>Node18&#45;&gt;Node20</title>
<g id="a_edge22_Node000018_Node000020"><a xlink:title=" ">
<path fill="none" stroke="#63b8ff" d="M1130.47,-94.06C1104.46,-79.99 1069.09,-60.85 1042.78,-46.62"/>
<polygon fill="#63b8ff" stroke="#63b8ff" points="1129.14,-97.31 1139.6,-98.99 1132.47,-91.16 1129.14,-97.31"/>
</a>
</g>
</g>
<!-- Node21&#45;&gt;Node16 -->
<g id="edge25_Node000021_Node000016" class="edge">
<title>Node21&#45;&gt;Node16</title>
<g id="a_edge25_Node000021_Node000016"><a xlink:title=" ">
<path fill="none" stroke="#63b8ff" d="M1684.4,-90.74C1680.73,-89.78 1677.08,-88.86 1673.5,-88 1585.67,-66.94 1562.38,-68.05 1473.5,-52 1455.77,-48.8 1436.76,-45.36 1418.69,-42.09"/>
<polygon fill="#63b8ff" stroke="#63b8ff" points="1683.6,-94.15 1694.17,-93.39 1685.43,-87.4 1683.6,-94.15"/>
</a>
</g>
</g>
<!-- Node22 -->
<g id="Node000022" class="node">
<title>Node22</title>
<g id="a_Node000022"><a xlink:href="cls__curvature__projection_8cc.html" target="_top" xlink:title=" ">
<polygon fill="white" stroke="#666666" points="1834.5,-46.5 1682.5,-46.5 1682.5,-5.5 1834.5,-5.5 1834.5,-46.5"/>
<text text-anchor="start" x="1690.5" y="-34.5" font-family="Helvetica,sans-Serif" font-size="10.00">/home/runner/work/lethe</text>
<text text-anchor="start" x="1690.5" y="-23.5" font-family="Helvetica,sans-Serif" font-size="10.00">/lethe/source/solvers</text>
<text text-anchor="middle" x="1758.5" y="-12.5" font-family="Helvetica,sans-Serif" font-size="10.00">/cls_curvature_projection.cc</text>
</a>
</g>
</g>
<!-- Node21&#45;&gt;Node22 -->
<g id="edge24_Node000021_Node000022" class="edge">
<title>Node21&#45;&gt;Node22</title>
<g id="a_edge24_Node000021_Node000022"><a xlink:title=" ">
<path fill="none" stroke="#63b8ff" d="M1757.19,-83.36C1757.47,-71.26 1757.79,-57.58 1758.04,-46.74"/>
<polygon fill="#63b8ff" stroke="#63b8ff" points="1753.69,-83.41 1756.95,-93.49 1760.69,-83.57 1753.69,-83.41"/>
</a>
</g>
</g>
<!-- Node23&#45;&gt;Node16 -->
<g id="edge28_Node000023_Node000016" class="edge">
<title>Node23&#45;&gt;Node16</title>
<g id="a_edge28_Node000023_Node000016"><a xlink:title=" ">
<path fill="none" stroke="#63b8ff" d="M1512.37,-90.11C1474.35,-76.55 1426.66,-59.53 1390.39,-46.59"/>
<polygon fill="#63b8ff" stroke="#63b8ff" points="1511.22,-93.42 1521.81,-93.49 1513.57,-86.83 1511.22,-93.42"/>
</a>
</g>
</g>
<!-- Node24 -->
<g id="Node000024" class="node">
<title>Node24</title>
<g id="a_Node000024"><a xlink:href="cls__phase__gradient__projection_8cc.html" target="_top" xlink:title=" ">
<polygon fill="white" stroke="#666666" points="1664,-46.5 1483,-46.5 1483,-5.5 1664,-5.5 1664,-46.5"/>
<text text-anchor="start" x="1491" y="-34.5" font-family="Helvetica,sans-Serif" font-size="10.00">/home/runner/work/lethe</text>
<text text-anchor="start" x="1491" y="-23.5" font-family="Helvetica,sans-Serif" font-size="10.00">/lethe/source/solvers</text>
<text text-anchor="middle" x="1573.5" y="-12.5" font-family="Helvetica,sans-Serif" font-size="10.00">/cls_phase_gradient_projection.cc</text>
</a>
</g>
</g>
<!-- Node23&#45;&gt;Node24 -->
<g id="edge27_Node000023_Node000024" class="edge">
<title>Node23&#45;&gt;Node24</title>
<g id="a_edge27_Node000023_Node000024"><a xlink:title=" ">
<path fill="none" stroke="#63b8ff" d="M1575.47,-83.36C1575.04,-71.26 1574.57,-57.58 1574.19,-46.74"/>
<polygon fill="#63b8ff" stroke="#63b8ff" points="1571.97,-83.61 1575.82,-93.49 1578.97,-83.37 1571.97,-83.61"/>
</a>
</g>
</g>
<!-- Node26&#45;&gt;Node14 -->
<g id="edge33_Node000026_Node000014" class="edge">
<title>Node26&#45;&gt;Node14</title>
<g id="a_edge33_Node000026_Node000014"><a xlink:title=" ">
<path fill="none" stroke="#63b8ff" d="M1138.71,-257.81C1125.92,-248.36 1111.46,-237.68 1098.73,-228.28"/>
<polygon fill="#63b8ff" stroke="#63b8ff" points="1136.71,-260.68 1146.84,-263.81 1140.87,-255.05 1136.71,-260.68"/>
</a>
</g>
</g>
<!-- Node26&#45;&gt;Node16 -->
<g id="edge35_Node000026_Node000016" class="edge">
<title>Node26&#45;&gt;Node16</title>
<g id="a_edge35_Node000026_Node000016"><a xlink:title=" ">
<path fill="none" stroke="#63b8ff" d="M1191.29,-255.33C1224.35,-202.99 1294.47,-91.97 1323.01,-46.77"/>
<polygon fill="#63b8ff" stroke="#63b8ff" points="1188.32,-253.47 1185.94,-263.8 1194.24,-257.21 1188.32,-253.47"/>
</a>
</g>
</g>
<!-- Node26&#45;&gt;Node17 -->
<g id="edge34_Node000026_Node000017" class="edge">
<title>Node26&#45;&gt;Node17</title>
<g id="a_edge34_Node000026_Node000017"><a xlink:title=" ">
<path fill="none" stroke="#63b8ff" d="M1229.46,-259.79C1252.97,-249.83 1280.34,-238.23 1304.19,-228.13"/>
<polygon fill="#63b8ff" stroke="#63b8ff" points="1227.82,-256.68 1219.98,-263.81 1230.55,-263.13 1227.82,-256.68"/>
</a>
</g>
</g>
<!-- Node26&#45;&gt;Node18 -->
<g id="edge32_Node000026_Node000018" class="edge">
<title>Node26&#45;&gt;Node18</title>
<g id="a_edge32_Node000026_Node000018"><a xlink:title=" ">
<path fill="none" stroke="#63b8ff" d="M1172.09,-253.76C1170.35,-217.17 1167.47,-156.53 1166.17,-129.16"/>
<polygon fill="#63b8ff" stroke="#63b8ff" points="1168.6,-254.02 1172.57,-263.84 1175.59,-253.69 1168.6,-254.02"/>
</a>
</g>
</g>
</g>
</svg>
