<?xml version="1.0" encoding="UTF-8" standalone="no"?>
<!DOCTYPE svg PUBLIC "-//W3C//DTD SVG 1.1//EN"
 "http://www.w3.org/Graphics/SVG/1.1/DTD/svg11.dtd">
<!-- Generated by graphviz version 2.43.0 (0)
 -->
<!-- Title: /home/runner/work/lethe/lethe/source/solvers/postprocessing_velocities.cc Pages: 1 -->
<svg width="2435pt" height="445pt"
 viewBox="0.00 0.00 2434.50 445.00" xmlns="http://www.w3.org/2000/svg" xmlns:xlink="http://www.w3.org/1999/xlink">
<g id="graph0" class="graph" transform="scale(1 1) rotate(0) translate(4 441)">
<title>/home/runner/work/lethe/lethe/source/solvers/postprocessing_velocities.cc</title>
<!-- Node1 -->
<g id="Node000001" class="node">
<title>Node1</title>
<g id="a_Node000001"><a xlink:title=" ">
<polygon fill="#999999" stroke="#666666" points="995.5,-437 836.5,-437 836.5,-396 995.5,-396 995.5,-437"/>
<text text-anchor="start" x="844.5" y="-425" font-family="Helvetica,sans-Serif" font-size="10.00">/home/runner/work/lethe</text>
<text text-anchor="start" x="844.5" y="-414" font-family="Helvetica,sans-Serif" font-size="10.00">/lethe/source/solvers</text>
<text text-anchor="middle" x="916" y="-403" font-family="Helvetica,sans-Serif" font-size="10.00">/postprocessing_velocities.cc</text>
</a>
</g>
</g>
<!-- Node2 -->
<g id="Node000002" class="node">
<title>Node2</title>
<g id="a_Node000002"><a xlink:href="vector_8h.html" target="_top" xlink:title=" ">
<polygon fill="white" stroke="#666666" points="487,-354.5 407,-354.5 407,-335.5 487,-335.5 487,-354.5"/>
<text text-anchor="middle" x="447" y="-342.5" font-family="Helvetica,sans-Serif" font-size="10.00">core/vector.h</text>
</a>
</g>
</g>
<!-- Node1&#45;&gt;Node2 -->
<g id="edge1_Node000001_Node000002" class="edge">
<title>Node1&#45;&gt;Node2</title>
<g id="a_edge1_Node000001_Node000002"><a xlink:title=" ">
<path fill="none" stroke="#63b8ff" d="M836.44,-403.71C739.45,-389.34 578.45,-365.48 497.19,-353.44"/>
<polygon fill="#63b8ff" stroke="#63b8ff" points="497.62,-349.96 487.22,-351.96 496.6,-356.89 497.62,-349.96"/>
</a>
</g>
</g>
<!-- Node9 -->
<g id="Node000009" class="node">
<title>Node9</title>
<g id="a_Node000009"><a xlink:href="postprocessing__velocities_8h.html" target="_top" xlink:title=" ">
<polygon fill="white" stroke="#666666" points="980,-360 852,-360 852,-330 980,-330 980,-360"/>
<text text-anchor="start" x="860" y="-348" font-family="Helvetica,sans-Serif" font-size="10.00">solvers/postprocessing</text>
<text text-anchor="middle" x="916" y="-337" font-family="Helvetica,sans-Serif" font-size="10.00">_velocities.h</text>
</a>
</g>
</g>
<!-- Node1&#45;&gt;Node9 -->
<g id="edge8_Node000001_Node000009" class="edge">
<title>Node1&#45;&gt;Node9</title>
<g id="a_edge8_Node000001_Node000009"><a xlink:title=" ">
<path fill="none" stroke="#63b8ff" d="M916,-395.77C916,-387.85 916,-378.63 916,-370.3"/>
<polygon fill="#63b8ff" stroke="#63b8ff" points="919.5,-370.04 916,-360.04 912.5,-370.04 919.5,-370.04"/>
</a>
</g>
</g>
<!-- Node32 -->
<g id="Node000032" class="node">
<title>Node32</title>
<g id="a_Node000032"><a xlink:title=" ">
<polygon fill="#e0e0e0" stroke="#999999" points="2426.5,-24.5 2371.5,-24.5 2371.5,-5.5 2426.5,-5.5 2426.5,-24.5"/>
<text text-anchor="middle" x="2399" y="-12.5" font-family="Helvetica,sans-Serif" font-size="10.00">fstream</text>
</a>
</g>
</g>
<!-- Node1&#45;&gt;Node32 -->
<g id="edge46_Node000001_Node000032" class="edge">
<title>Node1&#45;&gt;Node32</title>
<g id="a_edge46_Node000001_Node000032"><a xlink:title=" ">
<path fill="none" stroke="#63b8ff" d="M995.54,-412.54C1306.1,-400.48 2420,-352.2 2420,-280 2420,-280 2420,-280 2420,-146 2420,-105.95 2410.17,-59.84 2403.96,-34.72"/>
<polygon fill="#63b8ff" stroke="#63b8ff" points="2407.28,-33.57 2401.41,-24.75 2400.5,-35.3 2407.28,-33.57"/>
</a>
</g>
</g>
<!-- Node3 -->
<g id="Node000003" class="node">
<title>Node3</title>
<g id="a_Node000003"><a xlink:title=" ">
<polygon fill="#e0e0e0" stroke="#999999" points="506,-294 388,-294 388,-264 506,-264 506,-294"/>
<text text-anchor="start" x="396" y="-282" font-family="Helvetica,sans-Serif" font-size="10.00">deal.II/lac/la_parallel</text>
<text text-anchor="middle" x="447" y="-271" font-family="Helvetica,sans-Serif" font-size="10.00">_block_vector.h</text>
</a>
</g>
</g>
<!-- Node2&#45;&gt;Node3 -->
<g id="edge2_Node000002_Node000003" class="edge">
<title>Node2&#45;&gt;Node3</title>
<g id="a_edge2_Node000002_Node000003"><a xlink:title=" ">
<path fill="none" stroke="#63b8ff" d="M447,-335.37C447,-327.49 447,-315.45 447,-304.6"/>
<polygon fill="#63b8ff" stroke="#63b8ff" points="450.5,-304.36 447,-294.36 443.5,-304.36 450.5,-304.36"/>
</a>
</g>
</g>
<!-- Node4 -->
<g id="Node000004" class="node">
<title>Node4</title>
<g id="a_Node000004"><a xlink:title=" ">
<polygon fill="#e0e0e0" stroke="#999999" points="642,-294 524,-294 524,-264 642,-264 642,-294"/>
<text text-anchor="start" x="532" y="-282" font-family="Helvetica,sans-Serif" font-size="10.00">deal.II/lac/la_parallel</text>
<text text-anchor="middle" x="583" y="-271" font-family="Helvetica,sans-Serif" font-size="10.00">_vector.h</text>
</a>
</g>
</g>
<!-- Node2&#45;&gt;Node4 -->
<g id="edge3_Node000002_Node000004" class="edge">
<title>Node2&#45;&gt;Node4</title>
<g id="a_edge3_Node000002_Node000004"><a xlink:title=" ">
<path fill="none" stroke="#63b8ff" d="M465.34,-335.37C485.36,-325.95 518,-310.59 543.83,-298.43"/>
<polygon fill="#63b8ff" stroke="#63b8ff" points="545.45,-301.54 553,-294.12 542.47,-295.21 545.45,-301.54"/>
</a>
</g>
</g>
<!-- Node5 -->
<g id="Node000005" class="node">
<title>Node5</title>
<g id="a_Node000005"><a xlink:title=" ">
<polygon fill="#e0e0e0" stroke="#999999" points="779.5,-294 660.5,-294 660.5,-264 779.5,-264 779.5,-294"/>
<text text-anchor="start" x="668.5" y="-282" font-family="Helvetica,sans-Serif" font-size="10.00">deal.II/lac/read_write</text>
<text text-anchor="middle" x="720" y="-271" font-family="Helvetica,sans-Serif" font-size="10.00">_vector.h</text>
</a>
</g>
</g>
<!-- Node2&#45;&gt;Node5 -->
<g id="edge4_Node000002_Node000005" class="edge">
<title>Node2&#45;&gt;Node5</title>
<g id="a_edge4_Node000002_Node000005"><a xlink:title=" ">
<path fill="none" stroke="#63b8ff" d="M483.53,-335.44C526.05,-325.47 597.22,-308.78 650.39,-296.32"/>
<polygon fill="#63b8ff" stroke="#63b8ff" points="651.5,-299.65 660.44,-293.96 649.9,-292.84 651.5,-299.65"/>
</a>
</g>
</g>
<!-- Node6 -->
<g id="Node000006" class="node">
<title>Node6</title>
<g id="a_Node000006"><a xlink:title=" ">
<polygon fill="#e0e0e0" stroke="#999999" points="134,-294 0,-294 0,-264 134,-264 134,-294"/>
<text text-anchor="start" x="8" y="-282" font-family="Helvetica,sans-Serif" font-size="10.00">deal.II/lac/trilinos</text>
<text text-anchor="middle" x="67" y="-271" font-family="Helvetica,sans-Serif" font-size="10.00">_parallel_block_vector.h</text>
</a>
</g>
</g>
<!-- Node2&#45;&gt;Node6 -->
<g id="edge5_Node000002_Node000006" class="edge">
<title>Node2&#45;&gt;Node6</title>
<g id="a_edge5_Node000002_Node000006"><a xlink:title=" ">
<path fill="none" stroke="#63b8ff" d="M406.64,-337.61C350.24,-328.64 244.42,-311.59 144.12,-294.18"/>
<polygon fill="#63b8ff" stroke="#63b8ff" points="144.58,-290.7 134.12,-292.44 143.38,-297.6 144.58,-290.7"/>
</a>
</g>
</g>
<!-- Node7 -->
<g id="Node000007" class="node">
<title>Node7</title>
<g id="a_Node000007"><a xlink:title=" ">
<polygon fill="#e0e0e0" stroke="#999999" points="253.5,-294 152.5,-294 152.5,-264 253.5,-264 253.5,-294"/>
<text text-anchor="start" x="160.5" y="-282" font-family="Helvetica,sans-Serif" font-size="10.00">deal.II/lac/trilinos</text>
<text text-anchor="middle" x="203" y="-271" font-family="Helvetica,sans-Serif" font-size="10.00">_vector.h</text>
</a>
</g>
</g>
<!-- Node2&#45;&gt;Node7 -->
<g id="edge6_Node000002_Node000007" class="edge">
<title>Node2&#45;&gt;Node7</title>
<g id="a_edge6_Node000002_Node000007"><a xlink:title=" ">
<path fill="none" stroke="#63b8ff" d="M414.35,-335.44C375.91,-325.35 311.3,-308.41 263.61,-295.9"/>
<polygon fill="#63b8ff" stroke="#63b8ff" points="264.27,-292.45 253.7,-293.3 262.49,-299.22 264.27,-292.45"/>
</a>
</g>
</g>
<!-- Node8 -->
<g id="Node000008" class="node">
<title>Node8</title>
<g id="a_Node000008"><a xlink:title=" ">
<polygon fill="#e0e0e0" stroke="#999999" points="370,-294 272,-294 272,-264 370,-264 370,-294"/>
<text text-anchor="start" x="280" y="-282" font-family="Helvetica,sans-Serif" font-size="10.00">deal.II/lac/vector</text>
<text text-anchor="middle" x="321" y="-271" font-family="Helvetica,sans-Serif" font-size="10.00">_operation.h</text>
</a>
</g>
</g>
<!-- Node2&#45;&gt;Node8 -->
<g id="edge7_Node000002_Node000008" class="edge">
<title>Node2&#45;&gt;Node8</title>
<g id="a_edge7_Node000002_Node000008"><a xlink:title=" ">
<path fill="none" stroke="#63b8ff" d="M430.01,-335.37C411.62,-326.03 381.75,-310.86 357.92,-298.75"/>
<polygon fill="#63b8ff" stroke="#63b8ff" points="359.29,-295.52 348.79,-294.12 356.12,-301.76 359.29,-295.52"/>
</a>
</g>
</g>
<!-- Node10 -->
<g id="Node000010" class="node">
<title>Node10</title>
<g id="a_Node000010"><a xlink:href="parameters_8h.html" target="_top" xlink:title=" ">
<polygon fill="white" stroke="#666666" points="1032,-288.5 926,-288.5 926,-269.5 1032,-269.5 1032,-288.5"/>
<text text-anchor="middle" x="979" y="-276.5" font-family="Helvetica,sans-Serif" font-size="10.00">core/parameters.h</text>
</a>
</g>
</g>
<!-- Node9&#45;&gt;Node10 -->
<g id="edge9_Node000009_Node000010" class="edge">
<title>Node9&#45;&gt;Node10</title>
<g id="a_edge9_Node000009_Node000010"><a xlink:title=" ">
<path fill="none" stroke="#63b8ff" d="M929.98,-329.8C939.8,-319.82 952.96,-306.46 963.17,-296.09"/>
<polygon fill="#63b8ff" stroke="#63b8ff" points="965.77,-298.43 970.29,-288.84 960.78,-293.52 965.77,-298.43"/>
</a>
</g>
</g>
<!-- Node49 -->
<g id="Node000049" class="node">
<title>Node49</title>
<g id="a_Node000049"><a xlink:title=" ">
<polygon fill="#e0e0e0" stroke="#999999" points="908,-294 798,-294 798,-264 908,-264 908,-294"/>
<text text-anchor="start" x="806" y="-282" font-family="Helvetica,sans-Serif" font-size="10.00">deal.II/distributed</text>
<text text-anchor="middle" x="853" y="-271" font-family="Helvetica,sans-Serif" font-size="10.00">/solution_transfer.h</text>
</a>
</g>
</g>
<!-- Node9&#45;&gt;Node49 -->
<g id="edge45_Node000009_Node000049" class="edge">
<title>Node9&#45;&gt;Node49</title>
<g id="a_edge45_Node000009_Node000049"><a xlink:title=" ">
<path fill="none" stroke="#63b8ff" d="M902.02,-329.8C893.78,-321.43 883.2,-310.68 873.98,-301.31"/>
<polygon fill="#63b8ff" stroke="#63b8ff" points="876.45,-298.84 866.94,-294.16 871.46,-303.75 876.45,-298.84"/>
</a>
</g>
</g>
<!-- Node11 -->
<g id="Node000011" class="node">
<title>Node11</title>
<g id="a_Node000011"><a xlink:href="dimensionality_8h.html" target="_top" xlink:title=" ">
<polygon fill="white" stroke="#666666" points="549.5,-156.5 428.5,-156.5 428.5,-137.5 549.5,-137.5 549.5,-156.5"/>
<text text-anchor="middle" x="489" y="-144.5" font-family="Helvetica,sans-Serif" font-size="10.00">core/dimensionality.h</text>
</a>
</g>
</g>
<!-- Node10&#45;&gt;Node11 -->
<g id="edge10_Node000010_Node000011" class="edge">
<title>Node10&#45;&gt;Node11</title>
<g id="a_edge10_Node000010_Node000011"><a xlink:title=" ">
<path fill="none" stroke="#63b8ff" d="M942.68,-269.44C934.27,-267.56 925.34,-265.64 917,-264 822.37,-245.37 796.15,-253 703,-228 634.7,-209.67 557.73,-178.07 517.3,-160.57"/>
<polygon fill="#63b8ff" stroke="#63b8ff" points="518.63,-157.33 508.07,-156.55 515.84,-163.75 518.63,-157.33"/>
</a>
</g>
</g>
<!-- Node12 -->
<g id="Node000012" class="node">
<title>Node12</title>
<g id="a_Node000012"><a xlink:title=" ">
<polygon fill="#e0e0e0" stroke="#999999" points="552.5,-30 425.5,-30 425.5,0 552.5,0 552.5,-30"/>
<text text-anchor="start" x="433.5" y="-18" font-family="Helvetica,sans-Serif" font-size="10.00">deal.II/base/parameter</text>
<text text-anchor="middle" x="489" y="-7" font-family="Helvetica,sans-Serif" font-size="10.00">_handler.h</text>
</a>
</g>
</g>
<!-- Node10&#45;&gt;Node12 -->
<g id="edge42_Node000010_Node000012" class="edge">
<title>Node10&#45;&gt;Node12</title>
<g id="a_edge42_Node000010_Node000012"><a xlink:title=" ">
<path fill="none" stroke="#63b8ff" d="M944.04,-269.43C935.25,-267.46 925.81,-265.51 917,-264 805.65,-244.95 484.55,-254 419,-162 389.98,-121.27 435.11,-66.63 465.34,-37.09"/>
<polygon fill="#63b8ff" stroke="#63b8ff" points="467.81,-39.57 472.65,-30.15 462.99,-34.5 467.81,-39.57"/>
</a>
</g>
</g>
<!-- Node13 -->
<g id="Node000013" class="node">
<title>Node13</title>
<g id="a_Node000013"><a xlink:href="ib__particle_8h.html" target="_top" xlink:title=" ">
<polygon fill="white" stroke="#666666" points="1449.5,-222.5 1348.5,-222.5 1348.5,-203.5 1449.5,-203.5 1449.5,-222.5"/>
<text text-anchor="middle" x="1399" y="-210.5" font-family="Helvetica,sans-Serif" font-size="10.00">core/ib_particle.h</text>
</a>
</g>
</g>
<!-- Node10&#45;&gt;Node13 -->
<g id="edge12_Node000010_Node000013" class="edge">
<title>Node10&#45;&gt;Node13</title>
<g id="a_edge12_Node000010_Node000013"><a xlink:title=" ">
<path fill="none" stroke="#63b8ff" d="M1032.19,-269.89C1110.38,-257.98 1255.95,-235.8 1338.25,-223.26"/>
<polygon fill="#63b8ff" stroke="#63b8ff" points="1338.85,-226.71 1348.2,-221.74 1337.79,-219.79 1338.85,-226.71"/>
</a>
</g>
</g>
<!-- Node21 -->
<g id="Node000021" class="node">
<title>Node21</title>
<g id="a_Node000021"><a xlink:href="utilities_8h.html" target="_top" xlink:title=" ">
<polygon fill="#fff0f0" stroke="red" points="810,-90.5 724,-90.5 724,-71.5 810,-71.5 810,-90.5"/>
<text text-anchor="middle" x="767" y="-78.5" font-family="Helvetica,sans-Serif" font-size="10.00">core/utilities.h</text>
</a>
</g>
</g>
<!-- Node10&#45;&gt;Node21 -->
<g id="edge41_Node000010_Node000021" class="edge">
<title>Node10&#45;&gt;Node21</title>
<g id="a_edge41_Node000010_Node000021"><a xlink:title=" ">
<path fill="none" stroke="#63b8ff" d="M988.33,-269.16C1003.24,-253.93 1029.28,-222.06 1014,-198 989.95,-160.13 866.32,-114.82 803.6,-93.79"/>
<polygon fill="#63b8ff" stroke="#63b8ff" points="804.67,-90.46 794.08,-90.63 802.47,-97.1 804.67,-90.46"/>
</a>
</g>
</g>
<!-- Node46 -->
<g id="Node000046" class="node">
<title>Node46</title>
<g id="a_Node000046"><a xlink:title=" ">
<polygon fill="#e0e0e0" stroke="#999999" points="2391.5,-162 2282.5,-162 2282.5,-132 2391.5,-132 2391.5,-162"/>
<text text-anchor="start" x="2290.5" y="-150" font-family="Helvetica,sans-Serif" font-size="10.00">deal.II/base/parsed</text>
<text text-anchor="middle" x="2337" y="-139" font-family="Helvetica,sans-Serif" font-size="10.00">_function.h</text>
</a>
</g>
</g>
<!-- Node10&#45;&gt;Node46 -->
<g id="edge43_Node000010_Node000046" class="edge">
<title>Node10&#45;&gt;Node46</title>
<g id="a_edge43_Node000010_Node000046"><a xlink:title=" ">
<path fill="none" stroke="#63b8ff" d="M1032.04,-275.33C1208.42,-266.01 1791.1,-231.62 2268,-162 2269.47,-161.78 2270.96,-161.56 2272.47,-161.32"/>
<polygon fill="#63b8ff" stroke="#63b8ff" points="2273.2,-164.75 2282.48,-159.64 2272.04,-157.84 2273.2,-164.75"/>
</a>
</g>
</g>
<!-- Node47 -->
<g id="Node000047" class="node">
<title>Node47</title>
<g id="a_Node000047"><a xlink:href="multiphysics_8h.html" target="_top" xlink:title="Identifiers for multiphysics modules and their solution fields.">
<polygon fill="white" stroke="#666666" points="824,-222.5 712,-222.5 712,-203.5 824,-203.5 824,-222.5"/>
<text text-anchor="middle" x="768" y="-210.5" font-family="Helvetica,sans-Serif" font-size="10.00">core/multiphysics.h</text>
</a>
</g>
</g>
<!-- Node10&#45;&gt;Node47 -->
<g id="edge40_Node000010_Node000047" class="edge">
<title>Node10&#45;&gt;Node47</title>
<g id="a_edge40_Node000010_Node000047"><a xlink:title=" ">
<path fill="none" stroke="#63b8ff" d="M950.54,-269.37C913.24,-258.05 847.67,-238.16 806.1,-225.56"/>
<polygon fill="#63b8ff" stroke="#63b8ff" points="806.93,-222.15 796.34,-222.6 804.9,-228.85 806.93,-222.15"/>
</a>
</g>
</g>
<!-- Node48 -->
<g id="Node000048" class="node">
<title>Node48</title>
<g id="a_Node000048"><a xlink:title=" ">
<polygon fill="#e0e0e0" stroke="#999999" points="1005.5,-228 842.5,-228 842.5,-198 1005.5,-198 1005.5,-228"/>
<text text-anchor="start" x="850.5" y="-216" font-family="Helvetica,sans-Serif" font-size="10.00">deal.II/multigrid/mg</text>
<text text-anchor="middle" x="924" y="-205" font-family="Helvetica,sans-Serif" font-size="10.00">_transfer_global_coarsening.h</text>
</a>
</g>
</g>
<!-- Node10&#45;&gt;Node48 -->
<g id="edge44_Node000010_Node000048" class="edge">
<title>Node10&#45;&gt;Node48</title>
<g id="a_edge44_Node000010_Node000048"><a xlink:title=" ">
<path fill="none" stroke="#63b8ff" d="M971.58,-269.37C964.32,-260.91 952.93,-247.67 943.12,-236.25"/>
<polygon fill="#63b8ff" stroke="#63b8ff" points="945.51,-233.66 936.34,-228.36 940.2,-238.23 945.51,-233.66"/>
</a>
</g>
</g>
<!-- Node11&#45;&gt;Node12 -->
<g id="edge11_Node000011_Node000012" class="edge">
<title>Node11&#45;&gt;Node12</title>
<g id="a_edge11_Node000011_Node000012"><a xlink:title=" ">
<path fill="none" stroke="#63b8ff" d="M489,-137.47C489,-118.04 489,-69.87 489,-40.36"/>
<polygon fill="#63b8ff" stroke="#63b8ff" points="492.5,-40.07 489,-30.07 485.5,-40.07 492.5,-40.07"/>
</a>
</g>
</g>
<!-- Node14 -->
<g id="Node000014" class="node">
<title>Node14</title>
<g id="a_Node000014"><a xlink:href="dem__properties_8h.html" target="_top" xlink:title="DEM particle property definitions and output name management.">
<polygon fill="white" stroke="#666666" points="706,-90.5 580,-90.5 580,-71.5 706,-71.5 706,-90.5"/>
<text text-anchor="middle" x="643" y="-78.5" font-family="Helvetica,sans-Serif" font-size="10.00">core/dem_properties.h</text>
</a>
</g>
</g>
<!-- Node13&#45;&gt;Node14 -->
<g id="edge13_Node000013_Node000014" class="edge">
<title>Node13&#45;&gt;Node14</title>
<g id="a_edge13_Node000013_Node000014"><a xlink:title=" ">
<path fill="none" stroke="#63b8ff" d="M1348.3,-203.83C1234.75,-185.44 951.41,-139.02 715,-96 708.83,-94.88 702.38,-93.67 695.97,-92.45"/>
<polygon fill="#63b8ff" stroke="#63b8ff" points="696.47,-88.98 685.99,-90.53 695.15,-95.86 696.47,-88.98"/>
</a>
</g>
</g>
<!-- Node16 -->
<g id="Node000016" class="node">
<title>Node16</title>
<g id="a_Node000016"><a xlink:title=" ">
<polygon fill="#e0e0e0" stroke="#999999" points="666.5,-24.5 619.5,-24.5 619.5,-5.5 666.5,-5.5 666.5,-24.5"/>
<text text-anchor="middle" x="643" y="-12.5" font-family="Helvetica,sans-Serif" font-size="10.00">vector</text>
</a>
</g>
</g>
<!-- Node13&#45;&gt;Node16 -->
<g id="edge39_Node000013_Node000016" class="edge">
<title>Node13&#45;&gt;Node16</title>
<g id="a_edge39_Node000013_Node000016"><a xlink:title=" ">
<path fill="none" stroke="#63b8ff" d="M1348.33,-208.81C1176.08,-197.45 620.98,-156.38 571,-96 551.09,-71.95 587.85,-45.21 615.78,-29.54"/>
<polygon fill="#63b8ff" stroke="#63b8ff" points="617.68,-32.49 624.82,-24.67 614.36,-26.33 617.68,-32.49"/>
</a>
</g>
</g>
<!-- Node17 -->
<g id="Node000017" class="node">
<title>Node17</title>
<g id="a_Node000017"><a xlink:href="shape_8h.html" target="_top" xlink:title=" ">
<polygon fill="white" stroke="#666666" points="1516.5,-156.5 1437.5,-156.5 1437.5,-137.5 1516.5,-137.5 1516.5,-156.5"/>
<text text-anchor="middle" x="1477" y="-144.5" font-family="Helvetica,sans-Serif" font-size="10.00">core/shape.h</text>
</a>
</g>
</g>
<!-- Node13&#45;&gt;Node17 -->
<g id="edge16_Node000013_Node000017" class="edge">
<title>Node13&#45;&gt;Node17</title>
<g id="a_edge16_Node000013_Node000017"><a xlink:title=" ">
<path fill="none" stroke="#63b8ff" d="M1409.52,-203.37C1422.08,-193.06 1443.31,-175.65 1458.6,-163.09"/>
<polygon fill="#63b8ff" stroke="#63b8ff" points="1460.89,-165.75 1466.4,-156.7 1456.45,-160.34 1460.89,-165.75"/>
</a>
</g>
</g>
<!-- Node19 -->
<g id="Node000019" class="node">
<title>Node19</title>
<g id="a_Node000019"><a xlink:title=" ">
<polygon fill="#e0e0e0" stroke="#999999" points="2333,-24.5 2223,-24.5 2223,-5.5 2333,-5.5 2333,-24.5"/>
<text text-anchor="middle" x="2278" y="-12.5" font-family="Helvetica,sans-Serif" font-size="10.00">deal.II/base/point.h</text>
</a>
</g>
</g>
<!-- Node13&#45;&gt;Node19 -->
<g id="edge38_Node000013_Node000019" class="edge">
<title>Node13&#45;&gt;Node19</title>
<g id="a_edge38_Node000013_Node000019"><a xlink:title=" ">
<path fill="none" stroke="#63b8ff" d="M1449.75,-209.76C1639.82,-200.85 2301.76,-165.05 2363,-96 2385.64,-70.47 2341.73,-43.92 2309.01,-28.73"/>
<polygon fill="#63b8ff" stroke="#63b8ff" points="2310.29,-25.46 2299.73,-24.57 2307.43,-31.85 2310.29,-25.46"/>
</a>
</g>
</g>
<!-- Node13&#45;&gt;Node46 -->
<g id="edge37_Node000013_Node000046" class="edge">
<title>Node13&#45;&gt;Node46</title>
<g id="a_edge37_Node000013_Node000046"><a xlink:title=" ">
<path fill="none" stroke="#63b8ff" d="M1449.67,-210.04C1610.47,-203.66 2108.02,-182.72 2268,-162 2269.3,-161.83 2270.6,-161.65 2271.92,-161.47"/>
<polygon fill="#63b8ff" stroke="#63b8ff" points="2272.79,-164.87 2282.13,-159.87 2271.71,-157.96 2272.79,-164.87"/>
</a>
</g>
</g>
<!-- Node15 -->
<g id="Node000015" class="node">
<title>Node15</title>
<g id="a_Node000015"><a xlink:title=" ">
<polygon fill="#e0e0e0" stroke="#999999" points="759,-24.5 715,-24.5 715,-5.5 759,-5.5 759,-24.5"/>
<text text-anchor="middle" x="737" y="-12.5" font-family="Helvetica,sans-Serif" font-size="10.00">string</text>
</a>
</g>
</g>
<!-- Node14&#45;&gt;Node15 -->
<g id="edge14_Node000014_Node000015" class="edge">
<title>Node14&#45;&gt;Node15</title>
<g id="a_edge14_Node000014_Node000015"><a xlink:title=" ">
<path fill="none" stroke="#63b8ff" d="M655.68,-71.37C671.09,-60.87 697.35,-43 715.85,-30.4"/>
<polygon fill="#63b8ff" stroke="#63b8ff" points="717.93,-33.22 724.22,-24.7 713.99,-27.43 717.93,-33.22"/>
</a>
</g>
</g>
<!-- Node14&#45;&gt;Node16 -->
<g id="edge15_Node000014_Node000016" class="edge">
<title>Node14&#45;&gt;Node16</title>
<g id="a_edge15_Node000014_Node000016"><a xlink:title=" ">
<path fill="none" stroke="#63b8ff" d="M643,-71.37C643,-62.16 643,-47.29 643,-35.27"/>
<polygon fill="#63b8ff" stroke="#63b8ff" points="646.5,-34.91 643,-24.91 639.5,-34.91 646.5,-34.91"/>
</a>
</g>
</g>
<!-- Node18 -->
<g id="Node000018" class="node">
<title>Node18</title>
<g id="a_Node000018"><a xlink:href="tensors__and__points__dimension__manipulation_8h.html" target="_top" xlink:title=" ">
<polygon fill="#fff0f0" stroke="red" points="2354,-96 2202,-96 2202,-66 2354,-66 2354,-96"/>
<text text-anchor="start" x="2210" y="-84" font-family="Helvetica,sans-Serif" font-size="10.00">core/tensors_and_points</text>
<text text-anchor="middle" x="2278" y="-73" font-family="Helvetica,sans-Serif" font-size="10.00">_dimension_manipulation.h</text>
</a>
</g>
</g>
<!-- Node17&#45;&gt;Node18 -->
<g id="edge17_Node000017_Node000018" class="edge">
<title>Node17&#45;&gt;Node18</title>
<g id="a_edge17_Node000017_Node000018"><a xlink:title=" ">
<path fill="none" stroke="#63b8ff" d="M1516.71,-144.53C1623.91,-140.29 1928.33,-126.41 2191.46,-96.11"/>
<polygon fill="#63b8ff" stroke="#63b8ff" points="2192.06,-99.56 2201.59,-94.93 2191.25,-92.61 2192.06,-99.56"/>
</a>
</g>
</g>
<!-- Node17&#45;&gt;Node21 -->
<g id="edge19_Node000017_Node000021" class="edge">
<title>Node17&#45;&gt;Node21</title>
<g id="a_edge19_Node000017_Node000021"><a xlink:title=" ">
<path fill="none" stroke="#63b8ff" d="M1437.38,-145.56C1334.56,-143.88 1051.06,-135.7 819,-96 814.29,-95.2 809.4,-94.15 804.57,-93"/>
<polygon fill="#63b8ff" stroke="#63b8ff" points="805.41,-89.6 794.85,-90.53 803.68,-96.39 805.41,-89.6"/>
</a>
</g>
</g>
<!-- Node26 -->
<g id="Node000026" class="node">
<title>Node26</title>
<g id="a_Node000026"><a xlink:title=" ">
<polygon fill="#e0e0e0" stroke="#999999" points="1514,-24.5 1374,-24.5 1374,-5.5 1514,-5.5 1514,-24.5"/>
<text text-anchor="middle" x="1444" y="-12.5" font-family="Helvetica,sans-Serif" font-size="10.00">deal.II/dofs/dof_handler.h</text>
</a>
</g>
</g>
<!-- Node17&#45;&gt;Node26 -->
<g id="edge32_Node000017_Node000026" class="edge">
<title>Node17&#45;&gt;Node26</title>
<g id="a_edge32_Node000017_Node000026"><a xlink:title=" ">
<path fill="none" stroke="#63b8ff" d="M1516.68,-145.37C1636.28,-143.05 1987.12,-133.13 2021,-96 2029.99,-86.15 2030.01,-75.83 2021,-66 1988.12,-30.14 1675.12,-19.92 1524.38,-17.07"/>
<polygon fill="#63b8ff" stroke="#63b8ff" points="1524.31,-13.57 1514.25,-16.89 1524.19,-20.57 1524.31,-13.57"/>
</a>
</g>
</g>
<!-- Node36 -->
<g id="Node000036" class="node">
<title>Node36</title>
<g id="a_Node000036"><a xlink:title=" ">
<polygon fill="#e0e0e0" stroke="#999999" points="1592,-96 1440,-96 1440,-66 1592,-66 1592,-96"/>
<text text-anchor="start" x="1448" y="-84" font-family="Helvetica,sans-Serif" font-size="10.00">deal.II/base/auto_derivative</text>
<text text-anchor="middle" x="1516" y="-73" font-family="Helvetica,sans-Serif" font-size="10.00">_function.h</text>
</a>
</g>
</g>
<!-- Node17&#45;&gt;Node36 -->
<g id="edge26_Node000017_Node000036" class="edge">
<title>Node17&#45;&gt;Node36</title>
<g id="a_edge26_Node000017_Node000036"><a xlink:title=" ">
<path fill="none" stroke="#63b8ff" d="M1482.26,-137.37C1487.31,-129.08 1495.17,-116.18 1502.03,-104.92"/>
<polygon fill="#63b8ff" stroke="#63b8ff" points="1505.03,-106.72 1507.25,-96.36 1499.06,-103.08 1505.03,-106.72"/>
</a>
</g>
</g>
<!-- Node37 -->
<g id="Node000037" class="node">
<title>Node37</title>
<g id="a_Node000037"><a xlink:title=" ">
<polygon fill="#e0e0e0" stroke="#999999" points="1735.5,-90.5 1610.5,-90.5 1610.5,-71.5 1735.5,-71.5 1735.5,-90.5"/>
<text text-anchor="middle" x="1673" y="-78.5" font-family="Helvetica,sans-Serif" font-size="10.00">deal.II/base/function.h</text>
</a>
</g>
</g>
<!-- Node17&#45;&gt;Node37 -->
<g id="edge27_Node000017_Node000037" class="edge">
<title>Node17&#45;&gt;Node37</title>
<g id="a_edge27_Node000017_Node000037"><a xlink:title=" ">
<path fill="none" stroke="#63b8ff" d="M1503.43,-137.37C1537.87,-126.12 1598.22,-106.42 1636.87,-93.8"/>
<polygon fill="#63b8ff" stroke="#63b8ff" points="1638.25,-97.03 1646.67,-90.6 1636.08,-90.37 1638.25,-97.03"/>
</a>
</g>
</g>
<!-- Node38 -->
<g id="Node000038" class="node">
<title>Node38</title>
<g id="a_Node000038"><a xlink:title=" ">
<polygon fill="#e0e0e0" stroke="#999999" points="1878,-90.5 1754,-90.5 1754,-71.5 1878,-71.5 1878,-90.5"/>
<text text-anchor="middle" x="1816" y="-78.5" font-family="Helvetica,sans-Serif" font-size="10.00">deal.II/grid/manifold.h</text>
</a>
</g>
</g>
<!-- Node17&#45;&gt;Node38 -->
<g id="edge28_Node000017_Node000038" class="edge">
<title>Node17&#45;&gt;Node38</title>
<g id="a_edge28_Node000017_Node000038"><a xlink:title=" ">
<path fill="none" stroke="#63b8ff" d="M1516.53,-138.76C1568.83,-129.14 1663.89,-111.56 1745,-96 1750.85,-94.88 1756.97,-93.69 1763.05,-92.5"/>
<polygon fill="#63b8ff" stroke="#63b8ff" points="1764.07,-95.87 1773.21,-90.51 1762.73,-89 1764.07,-95.87"/>
</a>
</g>
</g>
<!-- Node39 -->
<g id="Node000039" class="node">
<title>Node39</title>
<g id="a_Node000039"><a xlink:title=" ">
<polygon fill="#e0e0e0" stroke="#999999" points="2011.5,-96 1896.5,-96 1896.5,-66 2011.5,-66 2011.5,-96"/>
<text text-anchor="start" x="1904.5" y="-84" font-family="Helvetica,sans-Serif" font-size="10.00">deal.II/grid/manifold</text>
<text text-anchor="middle" x="1954" y="-73" font-family="Helvetica,sans-Serif" font-size="10.00">_lib.h</text>
</a>
</g>
</g>
<!-- Node17&#45;&gt;Node39 -->
<g id="edge29_Node000017_Node000039" class="edge">
<title>Node17&#45;&gt;Node39</title>
<g id="a_edge29_Node000017_Node000039"><a xlink:title=" ">
<path fill="none" stroke="#63b8ff" d="M1516.74,-142.28C1588.43,-135.33 1744.34,-119.1 1886.13,-96.05"/>
<polygon fill="#63b8ff" stroke="#63b8ff" points="1887.01,-99.45 1896.31,-94.38 1885.88,-92.54 1887.01,-99.45"/>
</a>
</g>
</g>
<!-- Node40 -->
<g id="Node000040" class="node">
<title>Node40</title>
<g id="a_Node000040"><a xlink:title=" ">
<polygon fill="#e0e0e0" stroke="#999999" points="2183.5,-96 2068.5,-96 2068.5,-66 2183.5,-66 2183.5,-96"/>
<text text-anchor="start" x="2076.5" y="-84" font-family="Helvetica,sans-Serif" font-size="10.00">boost/range/adaptor</text>
<text text-anchor="middle" x="2126" y="-73" font-family="Helvetica,sans-Serif" font-size="10.00">/map.hpp</text>
</a>
</g>
</g>
<!-- Node17&#45;&gt;Node40 -->
<g id="edge30_Node000017_Node000040" class="edge">
<title>Node17&#45;&gt;Node40</title>
<g id="a_edge30_Node000017_Node000040"><a xlink:title=" ">
<path fill="none" stroke="#63b8ff" d="M1516.69,-144.01C1610.49,-138.99 1853.11,-124.16 2054,-96 2055.46,-95.8 2056.93,-95.58 2058.42,-95.36"/>
<polygon fill="#63b8ff" stroke="#63b8ff" points="2059,-98.81 2068.32,-93.77 2057.89,-91.9 2059,-98.81"/>
</a>
</g>
</g>
<!-- Node41 -->
<g id="Node000041" class="node">
<title>Node41</title>
<g id="a_Node000041"><a xlink:title=" ">
<polygon fill="#e0e0e0" stroke="#999999" points="944,-96 828,-96 828,-66 944,-66 944,-96"/>
<text text-anchor="start" x="836" y="-84" font-family="Helvetica,sans-Serif" font-size="10.00">deal.II/base/function</text>
<text text-anchor="middle" x="886" y="-73" font-family="Helvetica,sans-Serif" font-size="10.00">_signed_distance.h</text>
</a>
</g>
</g>
<!-- Node17&#45;&gt;Node41 -->
<g id="edge31_Node000017_Node000041" class="edge">
<title>Node17&#45;&gt;Node41</title>
<g id="a_edge31_Node000017_Node000041"><a xlink:title=" ">
<path fill="none" stroke="#63b8ff" d="M1437.38,-143.72C1351.24,-138.45 1140.39,-123.8 954.01,-96.04"/>
<polygon fill="#63b8ff" stroke="#63b8ff" points="954.44,-92.57 944.03,-94.54 953.4,-99.49 954.44,-92.57"/>
</a>
</g>
</g>
<!-- Node42 -->
<g id="Node000042" class="node">
<title>Node42</title>
<g id="a_Node000042"><a xlink:title=" ">
<polygon fill="#e0e0e0" stroke="#999999" points="1090,-90.5 962,-90.5 962,-71.5 1090,-71.5 1090,-90.5"/>
<text text-anchor="middle" x="1026" y="-78.5" font-family="Helvetica,sans-Serif" font-size="10.00">deal.II/dofs/dof_tools.h</text>
</a>
</g>
</g>
<!-- Node17&#45;&gt;Node42 -->
<g id="edge33_Node000017_Node000042" class="edge">
<title>Node17&#45;&gt;Node42</title>
<g id="a_edge33_Node000017_Node000042"><a xlink:title=" ">
<path fill="none" stroke="#63b8ff" d="M1437.44,-141.53C1368.51,-133.58 1222.01,-115.91 1099,-96 1092.32,-94.92 1085.32,-93.69 1078.41,-92.43"/>
<polygon fill="#63b8ff" stroke="#63b8ff" points="1078.86,-88.95 1068.39,-90.56 1077.58,-95.83 1078.86,-88.95"/>
</a>
</g>
</g>
<!-- Node43 -->
<g id="Node000043" class="node">
<title>Node43</title>
<g id="a_Node000043"><a xlink:title=" ">
<polygon fill="#e0e0e0" stroke="#999999" points="1284,-90.5 1108,-90.5 1108,-71.5 1284,-71.5 1284,-90.5"/>
<text text-anchor="middle" x="1196" y="-78.5" font-family="Helvetica,sans-Serif" font-size="10.00">deal.II/physics/transformations.h</text>
</a>
</g>
</g>
<!-- Node17&#45;&gt;Node43 -->
<g id="edge34_Node000017_Node000043" class="edge">
<title>Node17&#45;&gt;Node43</title>
<g id="a_edge34_Node000017_Node000043"><a xlink:title=" ">
<path fill="none" stroke="#63b8ff" d="M1439.39,-137.44C1388.71,-125.89 1298.48,-105.34 1243.27,-92.77"/>
<polygon fill="#63b8ff" stroke="#63b8ff" points="1243.91,-89.32 1233.38,-90.51 1242.36,-96.15 1243.91,-89.32"/>
</a>
</g>
</g>
<!-- Node44 -->
<g id="Node000044" class="node">
<title>Node44</title>
<g id="a_Node000044"><a xlink:title=" ">
<polygon fill="#e0e0e0" stroke="#999999" points="1346,-90.5 1302,-90.5 1302,-71.5 1346,-71.5 1346,-90.5"/>
<text text-anchor="middle" x="1324" y="-78.5" font-family="Helvetica,sans-Serif" font-size="10.00">cfloat</text>
</a>
</g>
</g>
<!-- Node17&#45;&gt;Node44 -->
<g id="edge35_Node000017_Node000044" class="edge">
<title>Node17&#45;&gt;Node44</title>
<g id="a_edge35_Node000017_Node000044"><a xlink:title=" ">
<path fill="none" stroke="#63b8ff" d="M1455.31,-137.38C1430.84,-127.59 1389.9,-111.03 1355,-96 1354,-95.57 1352.98,-95.13 1351.95,-94.68"/>
<polygon fill="#63b8ff" stroke="#63b8ff" points="1353.2,-91.4 1342.64,-90.55 1350.36,-97.8 1353.2,-91.4"/>
</a>
</g>
</g>
<!-- Node45 -->
<g id="Node000045" class="node">
<title>Node45</title>
<g id="a_Node000045"><a xlink:title=" ">
<polygon fill="#e0e0e0" stroke="#999999" points="1422,-90.5 1364,-90.5 1364,-71.5 1422,-71.5 1422,-90.5"/>
<text text-anchor="middle" x="1393" y="-78.5" font-family="Helvetica,sans-Serif" font-size="10.00">memory</text>
</a>
</g>
</g>
<!-- Node17&#45;&gt;Node45 -->
<g id="edge36_Node000017_Node000045" class="edge">
<title>Node17&#45;&gt;Node45</title>
<g id="a_edge36_Node000017_Node000045"><a xlink:title=" ">
<path fill="none" stroke="#63b8ff" d="M1465.67,-137.37C1452.14,-127.06 1429.28,-109.65 1412.81,-97.09"/>
<polygon fill="#63b8ff" stroke="#63b8ff" points="1414.49,-93.98 1404.42,-90.7 1410.25,-99.54 1414.49,-93.98"/>
</a>
</g>
</g>
<!-- Node18&#45;&gt;Node19 -->
<g id="edge18_Node000018_Node000019" class="edge">
<title>Node18&#45;&gt;Node19</title>
<g id="a_edge18_Node000018_Node000019"><a xlink:title=" ">
<path fill="none" stroke="#63b8ff" d="M2278,-65.8C2278,-56.7 2278,-44.79 2278,-34.9"/>
<polygon fill="#63b8ff" stroke="#63b8ff" points="2281.5,-34.84 2278,-24.84 2274.5,-34.84 2281.5,-34.84"/>
</a>
</g>
</g>
<!-- Node21&#45;&gt;Node12 -->
<g id="edge20_Node000021_Node000012" class="edge">
<title>Node21&#45;&gt;Node12</title>
<g id="a_edge20_Node000021_Node000012"><a xlink:title=" ">
<path fill="none" stroke="#63b8ff" d="M736.26,-71.48C729.29,-69.61 721.9,-67.69 715,-66 664.38,-53.59 607.05,-40.92 562.79,-31.44"/>
<polygon fill="#63b8ff" stroke="#63b8ff" points="563.5,-28.02 552.99,-29.35 562.03,-34.86 563.5,-28.02"/>
</a>
</g>
</g>
<!-- Node21&#45;&gt;Node15 -->
<g id="edge24_Node000021_Node000015" class="edge">
<title>Node21&#45;&gt;Node15</title>
<g id="a_edge24_Node000021_Node000015"><a xlink:title=" ">
<path fill="none" stroke="#63b8ff" d="M762.95,-71.37C758.51,-61.88 751.23,-46.36 745.51,-34.16"/>
<polygon fill="#63b8ff" stroke="#63b8ff" points="748.59,-32.47 741.17,-24.91 742.25,-35.45 748.59,-32.47"/>
</a>
</g>
</g>
<!-- Node21&#45;&gt;Node16 -->
<g id="edge25_Node000021_Node000016" class="edge">
<title>Node21&#45;&gt;Node16</title>
<g id="a_edge25_Node000021_Node000016"><a xlink:title=" ">
<path fill="none" stroke="#63b8ff" d="M750.28,-71.37C729.38,-60.59 693.41,-42.02 668.93,-29.38"/>
<polygon fill="#63b8ff" stroke="#63b8ff" points="670.35,-26.18 659.85,-24.7 667.14,-32.4 670.35,-26.18"/>
</a>
</g>
</g>
<!-- Node21&#45;&gt;Node19 -->
<g id="edge21_Node000021_Node000019" class="edge">
<title>Node21&#45;&gt;Node19</title>
<g id="a_edge21_Node000021_Node000019"><a xlink:title=" ">
<path fill="none" stroke="#63b8ff" d="M794.01,-71.47C801.98,-69.3 810.77,-67.23 819,-66 957.67,-45.24 1946.82,-23.01 2212.47,-17.36"/>
<polygon fill="#63b8ff" stroke="#63b8ff" points="2212.8,-20.86 2222.72,-17.15 2212.65,-13.86 2212.8,-20.86"/>
</a>
</g>
</g>
<!-- Node21&#45;&gt;Node26 -->
<g id="edge22_Node000021_Node000026" class="edge">
<title>Node21&#45;&gt;Node26</title>
<g id="a_edge22_Node000021_Node000026"><a xlink:title=" ">
<path fill="none" stroke="#63b8ff" d="M794.86,-71.49C802.61,-69.4 811.08,-67.37 819,-66 1012.59,-32.49 1243.88,-21.38 1363.48,-17.74"/>
<polygon fill="#63b8ff" stroke="#63b8ff" points="1363.75,-21.23 1373.65,-17.44 1363.55,-14.23 1363.75,-21.23"/>
</a>
</g>
</g>
<!-- Node21&#45;&gt;Node32 -->
<g id="edge23_Node000021_Node000032" class="edge">
<title>Node21&#45;&gt;Node32</title>
<g id="a_edge23_Node000021_Node000032"><a xlink:title=" ">
<path fill="none" stroke="#63b8ff" d="M793.73,-71.49C801.77,-69.29 810.67,-67.2 819,-66 1489.14,30.7 1670.83,-119.28 2342,-30 2348.36,-29.15 2355.05,-27.88 2361.51,-26.43"/>
<polygon fill="#63b8ff" stroke="#63b8ff" points="2362.49,-29.79 2371.4,-24.06 2360.86,-22.99 2362.49,-29.79"/>
</a>
</g>
</g>
</g>
</svg>
