<?xml version="1.0" encoding="UTF-8" standalone="no"?>
<!DOCTYPE svg PUBLIC "-//W3C//DTD SVG 1.1//EN"
 "http://www.w3.org/Graphics/SVG/1.1/DTD/svg11.dtd">
<!-- Generated by graphviz version 2.43.0 (0)
 -->
<!-- Title: /home/runner/work/lethe/lethe/source/core/pvd_handler.cc Pages: 1 -->
<svg width="2026pt" height="423pt"
 viewBox="0.00 0.00 2026.10 423.00" xmlns="http://www.w3.org/2000/svg" xmlns:xlink="http://www.w3.org/1999/xlink">
<g id="graph0" class="graph" transform="scale(1 1) rotate(0) translate(4 419)">
<title>/home/runner/work/lethe/lethe/source/core/pvd_handler.cc</title>
<!-- Node1 -->
<g id="Node000001" class="node">
<title>Node1</title>
<g id="a_Node000001"><a xlink:title=" ">
<polygon fill="#999999" stroke="#666666" points="1247.1,-415 1110.1,-415 1110.1,-374 1247.1,-374 1247.1,-415"/>
<text text-anchor="start" x="1118.1" y="-403" font-family="Helvetica,sans-Serif" font-size="10.00">/home/runner/work/lethe</text>
<text text-anchor="start" x="1118.1" y="-392" font-family="Helvetica,sans-Serif" font-size="10.00">/lethe/source/core/pvd</text>
<text text-anchor="middle" x="1178.6" y="-381" font-family="Helvetica,sans-Serif" font-size="10.00">_handler.cc</text>
</a>
</g>
</g>
<!-- Node2 -->
<g id="Node000002" class="node">
<title>Node2</title>
<g id="a_Node000002"><a xlink:href="pvd__handler_8h.html" target="_top" xlink:title=" ">
<polygon fill="white" stroke="#666666" points="1192.1,-338 1083.1,-338 1083.1,-319 1192.1,-319 1192.1,-338"/>
<text text-anchor="middle" x="1137.6" y="-326" font-family="Helvetica,sans-Serif" font-size="10.00">core/pvd_handler.h</text>
</a>
</g>
</g>
<!-- Node1&#45;&gt;Node2 -->
<g id="edge1_Node000001_Node000002" class="edge">
<title>Node1&#45;&gt;Node2</title>
<g id="a_edge1_Node000001_Node000002"><a xlink:title=" ">
<path fill="none" stroke="#63b8ff" d="M1166.08,-373.95C1160.53,-365.3 1154.07,-355.2 1148.7,-346.82"/>
<polygon fill="#63b8ff" stroke="#63b8ff" points="1151.56,-344.79 1143.22,-338.26 1145.66,-348.57 1151.56,-344.79"/>
</a>
</g>
</g>
<!-- Node25 -->
<g id="Node000025" class="node">
<title>Node25</title>
<g id="a_Node000025"><a xlink:title=" ">
<polygon fill="#e0e0e0" stroke="#999999" points="2018.1,-24.5 1963.1,-24.5 1963.1,-5.5 2018.1,-5.5 2018.1,-24.5"/>
<text text-anchor="middle" x="1990.6" y="-12.5" font-family="Helvetica,sans-Serif" font-size="10.00">fstream</text>
</a>
</g>
</g>
<!-- Node1&#45;&gt;Node25 -->
<g id="edge38_Node000001_Node000025" class="edge">
<title>Node1&#45;&gt;Node25</title>
<g id="a_edge38_Node000001_Node000025"><a xlink:title=" ">
<path fill="none" stroke="#63b8ff" d="M1247.12,-390.89C1446.39,-382.4 2011.6,-351.51 2011.6,-274.5 2011.6,-274.5 2011.6,-274.5 2011.6,-146 2011.6,-105.95 2001.77,-59.84 1995.56,-34.72"/>
<polygon fill="#63b8ff" stroke="#63b8ff" points="1998.88,-33.57 1993.01,-24.75 1992.1,-35.3 1998.88,-33.57"/>
</a>
</g>
</g>
<!-- Node3 -->
<g id="Node000003" class="node">
<title>Node3</title>
<g id="a_Node000003"><a xlink:href="parameters_8h.html" target="_top" xlink:title=" ">
<polygon fill="white" stroke="#666666" points="778.6,-283 672.6,-283 672.6,-264 778.6,-264 778.6,-283"/>
<text text-anchor="middle" x="725.6" y="-271" font-family="Helvetica,sans-Serif" font-size="10.00">core/parameters.h</text>
</a>
</g>
</g>
<!-- Node2&#45;&gt;Node3 -->
<g id="edge2_Node000002_Node000003" class="edge">
<title>Node2&#45;&gt;Node3</title>
<g id="a_edge2_Node000002_Node000003"><a xlink:title=" ">
<path fill="none" stroke="#63b8ff" d="M1082.89,-320.46C1006.8,-310.67 869.33,-292.99 788.9,-282.64"/>
<polygon fill="#63b8ff" stroke="#63b8ff" points="789.27,-279.16 778.9,-281.36 788.38,-286.1 789.27,-279.16"/>
</a>
</g>
</g>
<!-- Node4 -->
<g id="Node000004" class="node">
<title>Node4</title>
<g id="a_Node000004"><a xlink:href="dimensionality_8h.html" target="_top" xlink:title=" ">
<polygon fill="white" stroke="#666666" points="141.1,-156.5 20.1,-156.5 20.1,-137.5 141.1,-137.5 141.1,-156.5"/>
<text text-anchor="middle" x="80.6" y="-144.5" font-family="Helvetica,sans-Serif" font-size="10.00">core/dimensionality.h</text>
</a>
</g>
</g>
<!-- Node3&#45;&gt;Node4 -->
<g id="edge3_Node000003_Node000004" class="edge">
<title>Node3&#45;&gt;Node4</title>
<g id="a_edge3_Node000003_Node000004"><a xlink:title=" ">
<path fill="none" stroke="#63b8ff" d="M672.54,-264.81C616.87,-256.54 526.86,-242.59 449.6,-228 332.8,-205.94 196.33,-174.99 126.66,-158.82"/>
<polygon fill="#63b8ff" stroke="#63b8ff" points="127.4,-155.4 116.87,-156.54 125.82,-162.22 127.4,-155.4"/>
</a>
</g>
</g>
<!-- Node5 -->
<g id="Node000005" class="node">
<title>Node5</title>
<g id="a_Node000005"><a xlink:title=" ">
<polygon fill="#e0e0e0" stroke="#999999" points="144.1,-30 17.1,-30 17.1,0 144.1,0 144.1,-30"/>
<text text-anchor="start" x="25.1" y="-18" font-family="Helvetica,sans-Serif" font-size="10.00">deal.II/base/parameter</text>
<text text-anchor="middle" x="80.6" y="-7" font-family="Helvetica,sans-Serif" font-size="10.00">_handler.h</text>
</a>
</g>
</g>
<!-- Node3&#45;&gt;Node5 -->
<g id="edge35_Node000003_Node000005" class="edge">
<title>Node3&#45;&gt;Node5</title>
<g id="a_edge35_Node000003_Node000005"><a xlink:title=" ">
<path fill="none" stroke="#63b8ff" d="M672.35,-273.06C520.83,-273.36 92.93,-264.93 10.6,-162 -20.8,-122.74 25.84,-67.08 56.8,-37.09"/>
<polygon fill="#63b8ff" stroke="#63b8ff" points="59.4,-39.45 64.28,-30.05 54.6,-34.36 59.4,-39.45"/>
</a>
</g>
</g>
<!-- Node6 -->
<g id="Node000006" class="node">
<title>Node6</title>
<g id="a_Node000006"><a xlink:href="ib__particle_8h.html" target="_top" xlink:title=" ">
<polygon fill="white" stroke="#666666" points="1034.1,-222.5 933.1,-222.5 933.1,-203.5 1034.1,-203.5 1034.1,-222.5"/>
<text text-anchor="middle" x="983.6" y="-210.5" font-family="Helvetica,sans-Serif" font-size="10.00">core/ib_particle.h</text>
</a>
</g>
</g>
<!-- Node3&#45;&gt;Node6 -->
<g id="edge5_Node000003_Node000006" class="edge">
<title>Node3&#45;&gt;Node6</title>
<g id="a_edge5_Node000003_Node000006"><a xlink:title=" ">
<path fill="none" stroke="#63b8ff" d="M763.12,-263.99C808.88,-253.62 886.29,-236.07 936.15,-224.76"/>
<polygon fill="#63b8ff" stroke="#63b8ff" points="937.06,-228.14 946.04,-222.52 935.52,-221.31 937.06,-228.14"/>
</a>
</g>
</g>
<!-- Node14 -->
<g id="Node000014" class="node">
<title>Node14</title>
<g id="a_Node000014"><a xlink:href="core_2utilities_8h.html" target="_top" xlink:title=" ">
<polygon fill="#fff0f0" stroke="red" points="401.6,-90.5 315.6,-90.5 315.6,-71.5 401.6,-71.5 401.6,-90.5"/>
<text text-anchor="middle" x="358.6" y="-78.5" font-family="Helvetica,sans-Serif" font-size="10.00">core/utilities.h</text>
</a>
</g>
</g>
<!-- Node3&#45;&gt;Node14 -->
<g id="edge34_Node000003_Node000014" class="edge">
<title>Node3&#45;&gt;Node14</title>
<g id="a_edge34_Node000003_Node000014"><a xlink:title=" ">
<path fill="none" stroke="#63b8ff" d="M735.61,-263.6C750.86,-248.94 776.58,-219.24 760.6,-198 755.02,-190.57 501.29,-120.84 399.86,-93.21"/>
<polygon fill="#63b8ff" stroke="#63b8ff" points="400.53,-89.76 389.97,-90.51 398.69,-96.52 400.53,-89.76"/>
</a>
</g>
</g>
<!-- Node39 -->
<g id="Node000039" class="node">
<title>Node39</title>
<g id="a_Node000039"><a xlink:title=" ">
<polygon fill="#e0e0e0" stroke="#999999" points="1983.1,-162 1874.1,-162 1874.1,-132 1983.1,-132 1983.1,-162"/>
<text text-anchor="start" x="1882.1" y="-150" font-family="Helvetica,sans-Serif" font-size="10.00">deal.II/base/parsed</text>
<text text-anchor="middle" x="1928.6" y="-139" font-family="Helvetica,sans-Serif" font-size="10.00">_function.h</text>
</a>
</g>
</g>
<!-- Node3&#45;&gt;Node39 -->
<g id="edge36_Node000003_Node000039" class="edge">
<title>Node3&#45;&gt;Node39</title>
<g id="a_edge36_Node000003_Node000039"><a xlink:title=" ">
<path fill="none" stroke="#63b8ff" d="M778.69,-269.28C941.14,-259.01 1445.61,-224 1859.6,-162 1861.08,-161.78 1862.57,-161.55 1864.07,-161.31"/>
<polygon fill="#63b8ff" stroke="#63b8ff" points="1864.81,-164.73 1874.08,-159.6 1863.64,-157.83 1864.81,-164.73"/>
</a>
</g>
</g>
<!-- Node40 -->
<g id="Node000040" class="node">
<title>Node40</title>
<g id="a_Node000040"><a xlink:href="multiphysics_8h.html" target="_top" xlink:title="Identifiers for multiphysics modules and their solution fields.">
<polygon fill="white" stroke="#666666" points="570.6,-222.5 458.6,-222.5 458.6,-203.5 570.6,-203.5 570.6,-222.5"/>
<text text-anchor="middle" x="514.6" y="-210.5" font-family="Helvetica,sans-Serif" font-size="10.00">core/multiphysics.h</text>
</a>
</g>
</g>
<!-- Node3&#45;&gt;Node40 -->
<g id="edge33_Node000003_Node000040" class="edge">
<title>Node3&#45;&gt;Node40</title>
<g id="a_edge33_Node000003_Node000040"><a xlink:title=" ">
<path fill="none" stroke="#63b8ff" d="M694.92,-263.99C658.04,-253.77 596.03,-236.58 555.21,-225.26"/>
<polygon fill="#63b8ff" stroke="#63b8ff" points="555.89,-221.82 545.32,-222.52 554.02,-228.56 555.89,-221.82"/>
</a>
</g>
</g>
<!-- Node41 -->
<g id="Node000041" class="node">
<title>Node41</title>
<g id="a_Node000041"><a xlink:title=" ">
<polygon fill="#e0e0e0" stroke="#999999" points="752.1,-228 589.1,-228 589.1,-198 752.1,-198 752.1,-228"/>
<text text-anchor="start" x="597.1" y="-216" font-family="Helvetica,sans-Serif" font-size="10.00">deal.II/multigrid/mg</text>
<text text-anchor="middle" x="670.6" y="-205" font-family="Helvetica,sans-Serif" font-size="10.00">_transfer_global_coarsening.h</text>
</a>
</g>
</g>
<!-- Node3&#45;&gt;Node41 -->
<g id="edge37_Node000003_Node000041" class="edge">
<title>Node3&#45;&gt;Node41</title>
<g id="a_edge37_Node000003_Node000041"><a xlink:title=" ">
<path fill="none" stroke="#63b8ff" d="M717.49,-263.87C710.51,-256.44 700.14,-245.42 690.93,-235.62"/>
<polygon fill="#63b8ff" stroke="#63b8ff" points="693.27,-233 683.87,-228.11 688.17,-237.8 693.27,-233"/>
</a>
</g>
</g>
<!-- Node4&#45;&gt;Node5 -->
<g id="edge4_Node000004_Node000005" class="edge">
<title>Node4&#45;&gt;Node5</title>
<g id="a_edge4_Node000004_Node000005"><a xlink:title=" ">
<path fill="none" stroke="#63b8ff" d="M80.6,-137.47C80.6,-118.04 80.6,-69.87 80.6,-40.36"/>
<polygon fill="#63b8ff" stroke="#63b8ff" points="84.1,-40.07 80.6,-30.07 77.1,-40.07 84.1,-40.07"/>
</a>
</g>
</g>
<!-- Node7 -->
<g id="Node000007" class="node">
<title>Node7</title>
<g id="a_Node000007"><a xlink:href="dem__properties_8h.html" target="_top" xlink:title="DEM particle property definitions and output name management.">
<polygon fill="white" stroke="#666666" points="297.6,-90.5 171.6,-90.5 171.6,-71.5 297.6,-71.5 297.6,-90.5"/>
<text text-anchor="middle" x="234.6" y="-78.5" font-family="Helvetica,sans-Serif" font-size="10.00">core/dem_properties.h</text>
</a>
</g>
</g>
<!-- Node6&#45;&gt;Node7 -->
<g id="edge6_Node000006_Node000007" class="edge">
<title>Node6&#45;&gt;Node7</title>
<g id="a_edge6_Node000006_Node000007"><a xlink:title=" ">
<path fill="none" stroke="#63b8ff" d="M933,-203.73C820.34,-185.22 540.33,-138.74 306.6,-96 300.44,-94.87 293.98,-93.66 287.57,-92.44"/>
<polygon fill="#63b8ff" stroke="#63b8ff" points="288.08,-88.97 277.6,-90.52 286.76,-95.85 288.08,-88.97"/>
</a>
</g>
</g>
<!-- Node9 -->
<g id="Node000009" class="node">
<title>Node9</title>
<g id="a_Node000009"><a xlink:title=" ">
<polygon fill="#e0e0e0" stroke="#999999" points="258.1,-24.5 211.1,-24.5 211.1,-5.5 258.1,-5.5 258.1,-24.5"/>
<text text-anchor="middle" x="234.6" y="-12.5" font-family="Helvetica,sans-Serif" font-size="10.00">vector</text>
</a>
</g>
</g>
<!-- Node6&#45;&gt;Node9 -->
<g id="edge32_Node000006_Node000009" class="edge">
<title>Node6&#45;&gt;Node9</title>
<g id="a_edge32_Node000006_Node000009"><a xlink:title=" ">
<path fill="none" stroke="#63b8ff" d="M933.07,-208.76C761.93,-197.26 212.11,-155.87 162.6,-96 142.71,-71.94 179.46,-45.2 207.39,-29.53"/>
<polygon fill="#63b8ff" stroke="#63b8ff" points="209.29,-32.49 216.43,-24.67 205.97,-26.33 209.29,-32.49"/>
</a>
</g>
</g>
<!-- Node10 -->
<g id="Node000010" class="node">
<title>Node10</title>
<g id="a_Node000010"><a xlink:href="shape_8h.html" target="_top" xlink:title=" ">
<polygon fill="white" stroke="#666666" points="1085.1,-156.5 1006.1,-156.5 1006.1,-137.5 1085.1,-137.5 1085.1,-156.5"/>
<text text-anchor="middle" x="1045.6" y="-144.5" font-family="Helvetica,sans-Serif" font-size="10.00">core/shape.h</text>
</a>
</g>
</g>
<!-- Node6&#45;&gt;Node10 -->
<g id="edge9_Node000006_Node000010" class="edge">
<title>Node6&#45;&gt;Node10</title>
<g id="a_edge9_Node000006_Node000010"><a xlink:title=" ">
<path fill="none" stroke="#63b8ff" d="M991.96,-203.37C1001.62,-193.4 1017.71,-176.79 1029.75,-164.36"/>
<polygon fill="#63b8ff" stroke="#63b8ff" points="1032.53,-166.52 1036.98,-156.91 1027.5,-161.65 1032.53,-166.52"/>
</a>
</g>
</g>
<!-- Node12 -->
<g id="Node000012" class="node">
<title>Node12</title>
<g id="a_Node000012"><a xlink:title=" ">
<polygon fill="#e0e0e0" stroke="#999999" points="1924.6,-24.5 1814.6,-24.5 1814.6,-5.5 1924.6,-5.5 1924.6,-24.5"/>
<text text-anchor="middle" x="1869.6" y="-12.5" font-family="Helvetica,sans-Serif" font-size="10.00">deal.II/base/point.h</text>
</a>
</g>
</g>
<!-- Node6&#45;&gt;Node12 -->
<g id="edge31_Node000006_Node000012" class="edge">
<title>Node6&#45;&gt;Node12</title>
<g id="a_edge31_Node000006_Node000012"><a xlink:title=" ">
<path fill="none" stroke="#63b8ff" d="M1034.4,-209.8C1225.4,-201.03 1892.86,-165.56 1954.6,-96 1977.25,-70.48 1933.34,-43.92 1900.62,-28.73"/>
<polygon fill="#63b8ff" stroke="#63b8ff" points="1901.89,-25.47 1891.33,-24.58 1899.03,-31.86 1901.89,-25.47"/>
</a>
</g>
</g>
<!-- Node6&#45;&gt;Node39 -->
<g id="edge30_Node000006_Node000039" class="edge">
<title>Node6&#45;&gt;Node39</title>
<g id="a_edge30_Node000006_Node000039"><a xlink:title=" ">
<path fill="none" stroke="#63b8ff" d="M1034.2,-211.64C1168.97,-210.13 1547.64,-202.34 1859.6,-162 1860.9,-161.83 1862.21,-161.65 1863.52,-161.47"/>
<polygon fill="#63b8ff" stroke="#63b8ff" points="1864.39,-164.87 1873.73,-159.87 1863.31,-157.96 1864.39,-164.87"/>
</a>
</g>
</g>
<!-- Node8 -->
<g id="Node000008" class="node">
<title>Node8</title>
<g id="a_Node000008"><a xlink:title=" ">
<polygon fill="#e0e0e0" stroke="#999999" points="350.6,-24.5 306.6,-24.5 306.6,-5.5 350.6,-5.5 350.6,-24.5"/>
<text text-anchor="middle" x="328.6" y="-12.5" font-family="Helvetica,sans-Serif" font-size="10.00">string</text>
</a>
</g>
</g>
<!-- Node7&#45;&gt;Node8 -->
<g id="edge7_Node000007_Node000008" class="edge">
<title>Node7&#45;&gt;Node8</title>
<g id="a_edge7_Node000007_Node000008"><a xlink:title=" ">
<path fill="none" stroke="#63b8ff" d="M247.28,-71.37C262.7,-60.87 288.95,-43 307.45,-30.4"/>
<polygon fill="#63b8ff" stroke="#63b8ff" points="309.53,-33.22 315.83,-24.7 305.59,-27.43 309.53,-33.22"/>
</a>
</g>
</g>
<!-- Node7&#45;&gt;Node9 -->
<g id="edge8_Node000007_Node000009" class="edge">
<title>Node7&#45;&gt;Node9</title>
<g id="a_edge8_Node000007_Node000009"><a xlink:title=" ">
<path fill="none" stroke="#63b8ff" d="M234.6,-71.37C234.6,-62.16 234.6,-47.29 234.6,-35.27"/>
<polygon fill="#63b8ff" stroke="#63b8ff" points="238.1,-34.91 234.6,-24.91 231.1,-34.91 238.1,-34.91"/>
</a>
</g>
</g>
<!-- Node11 -->
<g id="Node000011" class="node">
<title>Node11</title>
<g id="a_Node000011"><a xlink:href="tensors__and__points__dimension__manipulation_8h.html" target="_top" xlink:title=" ">
<polygon fill="#fff0f0" stroke="red" points="1945.6,-96 1793.6,-96 1793.6,-66 1945.6,-66 1945.6,-96"/>
<text text-anchor="start" x="1801.6" y="-84" font-family="Helvetica,sans-Serif" font-size="10.00">core/tensors_and_points</text>
<text text-anchor="middle" x="1869.6" y="-73" font-family="Helvetica,sans-Serif" font-size="10.00">_dimension_manipulation.h</text>
</a>
</g>
</g>
<!-- Node10&#45;&gt;Node11 -->
<g id="edge10_Node000010_Node000011" class="edge">
<title>Node10&#45;&gt;Node11</title>
<g id="a_edge10_Node000010_Node000011"><a xlink:title=" ">
<path fill="none" stroke="#63b8ff" d="M1085.38,-144.65C1194.98,-140.64 1510.76,-127.17 1783.12,-96.1"/>
<polygon fill="#63b8ff" stroke="#63b8ff" points="1783.66,-99.56 1793.2,-94.94 1782.86,-92.61 1783.66,-99.56"/>
</a>
</g>
</g>
<!-- Node10&#45;&gt;Node14 -->
<g id="edge12_Node000010_Node000014" class="edge">
<title>Node10&#45;&gt;Node14</title>
<g id="a_edge12_Node000010_Node000014"><a xlink:title=" ">
<path fill="none" stroke="#63b8ff" d="M1006.01,-143.84C885.79,-137.14 526.12,-115.92 410.6,-96 405.9,-95.19 401,-94.14 396.18,-92.99"/>
<polygon fill="#63b8ff" stroke="#63b8ff" points="397.01,-89.59 386.46,-90.51 395.28,-96.38 397.01,-89.59"/>
</a>
</g>
</g>
<!-- Node19 -->
<g id="Node000019" class="node">
<title>Node19</title>
<g id="a_Node000019"><a xlink:title=" ">
<polygon fill="#e0e0e0" stroke="#999999" points="1105.6,-24.5 965.6,-24.5 965.6,-5.5 1105.6,-5.5 1105.6,-24.5"/>
<text text-anchor="middle" x="1035.6" y="-12.5" font-family="Helvetica,sans-Serif" font-size="10.00">deal.II/dofs/dof_handler.h</text>
</a>
</g>
</g>
<!-- Node10&#45;&gt;Node19 -->
<g id="edge25_Node000010_Node000019" class="edge">
<title>Node10&#45;&gt;Node19</title>
<g id="a_edge25_Node000010_Node000019"><a xlink:title=" ">
<path fill="none" stroke="#63b8ff" d="M1085.18,-146.52C1225.3,-147.71 1685.67,-145.68 1612.6,-66 1579.72,-30.14 1266.73,-19.92 1115.98,-17.07"/>
<polygon fill="#63b8ff" stroke="#63b8ff" points="1115.92,-13.57 1105.86,-16.89 1115.79,-20.57 1115.92,-13.57"/>
</a>
</g>
</g>
<!-- Node29 -->
<g id="Node000029" class="node">
<title>Node29</title>
<g id="a_Node000029"><a xlink:title=" ">
<polygon fill="#e0e0e0" stroke="#999999" points="1183.6,-96 1031.6,-96 1031.6,-66 1183.6,-66 1183.6,-96"/>
<text text-anchor="start" x="1039.6" y="-84" font-family="Helvetica,sans-Serif" font-size="10.00">deal.II/base/auto_derivative</text>
<text text-anchor="middle" x="1107.6" y="-73" font-family="Helvetica,sans-Serif" font-size="10.00">_function.h</text>
</a>
</g>
</g>
<!-- Node10&#45;&gt;Node29 -->
<g id="edge19_Node000010_Node000029" class="edge">
<title>Node10&#45;&gt;Node29</title>
<g id="a_edge19_Node000010_Node000029"><a xlink:title=" ">
<path fill="none" stroke="#63b8ff" d="M1053.96,-137.37C1062.32,-128.75 1075.49,-115.15 1086.69,-103.59"/>
<polygon fill="#63b8ff" stroke="#63b8ff" points="1089.25,-105.98 1093.69,-96.36 1084.22,-101.11 1089.25,-105.98"/>
</a>
</g>
</g>
<!-- Node30 -->
<g id="Node000030" class="node">
<title>Node30</title>
<g id="a_Node000030"><a xlink:title=" ">
<polygon fill="#e0e0e0" stroke="#999999" points="1327.1,-90.5 1202.1,-90.5 1202.1,-71.5 1327.1,-71.5 1327.1,-90.5"/>
<text text-anchor="middle" x="1264.6" y="-78.5" font-family="Helvetica,sans-Serif" font-size="10.00">deal.II/base/function.h</text>
</a>
</g>
</g>
<!-- Node10&#45;&gt;Node30 -->
<g id="edge20_Node000010_Node000030" class="edge">
<title>Node10&#45;&gt;Node30</title>
<g id="a_edge20_Node000010_Node000030"><a xlink:title=" ">
<path fill="none" stroke="#63b8ff" d="M1075.14,-137.37C1113.94,-126.03 1182.2,-106.08 1225.33,-93.48"/>
<polygon fill="#63b8ff" stroke="#63b8ff" points="1226.57,-96.76 1235.19,-90.6 1224.61,-90.04 1226.57,-96.76"/>
</a>
</g>
</g>
<!-- Node31 -->
<g id="Node000031" class="node">
<title>Node31</title>
<g id="a_Node000031"><a xlink:title=" ">
<polygon fill="#e0e0e0" stroke="#999999" points="1469.6,-90.5 1345.6,-90.5 1345.6,-71.5 1469.6,-71.5 1469.6,-90.5"/>
<text text-anchor="middle" x="1407.6" y="-78.5" font-family="Helvetica,sans-Serif" font-size="10.00">deal.II/grid/manifold.h</text>
</a>
</g>
</g>
<!-- Node10&#45;&gt;Node31 -->
<g id="edge21_Node000010_Node000031" class="edge">
<title>Node10&#45;&gt;Node31</title>
<g id="a_edge21_Node000010_Node000031"><a xlink:title=" ">
<path fill="none" stroke="#63b8ff" d="M1085.19,-139.51C1141.24,-130.26 1246.87,-112.55 1336.6,-96 1342.68,-94.88 1349.05,-93.67 1355.37,-92.45"/>
<polygon fill="#63b8ff" stroke="#63b8ff" points="1356.06,-95.88 1365.21,-90.54 1354.73,-89.01 1356.06,-95.88"/>
</a>
</g>
</g>
<!-- Node32 -->
<g id="Node000032" class="node">
<title>Node32</title>
<g id="a_Node000032"><a xlink:title=" ">
<polygon fill="#e0e0e0" stroke="#999999" points="1603.1,-96 1488.1,-96 1488.1,-66 1603.1,-66 1603.1,-96"/>
<text text-anchor="start" x="1496.1" y="-84" font-family="Helvetica,sans-Serif" font-size="10.00">deal.II/grid/manifold</text>
<text text-anchor="middle" x="1545.6" y="-73" font-family="Helvetica,sans-Serif" font-size="10.00">_lib.h</text>
</a>
</g>
</g>
<!-- Node10&#45;&gt;Node32 -->
<g id="edge22_Node000010_Node000032" class="edge">
<title>Node10&#45;&gt;Node32</title>
<g id="a_edge22_Node000010_Node000032"><a xlink:title=" ">
<path fill="none" stroke="#63b8ff" d="M1085.17,-142.65C1159.9,-136.05 1327.05,-120.04 1478,-96"/>
<polygon fill="#63b8ff" stroke="#63b8ff" points="1478.6,-99.44 1487.92,-94.4 1477.49,-92.53 1478.6,-99.44"/>
</a>
</g>
</g>
<!-- Node33 -->
<g id="Node000033" class="node">
<title>Node33</title>
<g id="a_Node000033"><a xlink:title=" ">
<polygon fill="#e0e0e0" stroke="#999999" points="1775.1,-96 1660.1,-96 1660.1,-66 1775.1,-66 1775.1,-96"/>
<text text-anchor="start" x="1668.1" y="-84" font-family="Helvetica,sans-Serif" font-size="10.00">boost/range/adaptor</text>
<text text-anchor="middle" x="1717.6" y="-73" font-family="Helvetica,sans-Serif" font-size="10.00">/map.hpp</text>
</a>
</g>
</g>
<!-- Node10&#45;&gt;Node33 -->
<g id="edge23_Node000010_Node000033" class="edge">
<title>Node10&#45;&gt;Node33</title>
<g id="a_edge23_Node000010_Node000033"><a xlink:title=" ">
<path fill="none" stroke="#63b8ff" d="M1085.44,-144.18C1181.92,-139.46 1435.68,-125.07 1645.6,-96 1647.06,-95.8 1648.53,-95.59 1650.02,-95.36"/>
<polygon fill="#63b8ff" stroke="#63b8ff" points="1650.6,-98.82 1659.93,-93.79 1649.5,-91.9 1650.6,-98.82"/>
</a>
</g>
</g>
<!-- Node34 -->
<g id="Node000034" class="node">
<title>Node34</title>
<g id="a_Node000034"><a xlink:title=" ">
<polygon fill="#e0e0e0" stroke="#999999" points="535.6,-96 419.6,-96 419.6,-66 535.6,-66 535.6,-96"/>
<text text-anchor="start" x="427.6" y="-84" font-family="Helvetica,sans-Serif" font-size="10.00">deal.II/base/function</text>
<text text-anchor="middle" x="477.6" y="-73" font-family="Helvetica,sans-Serif" font-size="10.00">_signed_distance.h</text>
</a>
</g>
</g>
<!-- Node10&#45;&gt;Node34 -->
<g id="edge24_Node000010_Node000034" class="edge">
<title>Node10&#45;&gt;Node34</title>
<g id="a_edge24_Node000010_Node000034"><a xlink:title=" ">
<path fill="none" stroke="#63b8ff" d="M1005.8,-143.47C922.35,-137.87 722.82,-122.84 545.66,-96.05"/>
<polygon fill="#63b8ff" stroke="#63b8ff" points="546.05,-92.57 535.64,-94.52 544.99,-99.49 546.05,-92.57"/>
</a>
</g>
</g>
<!-- Node35 -->
<g id="Node000035" class="node">
<title>Node35</title>
<g id="a_Node000035"><a xlink:title=" ">
<polygon fill="#e0e0e0" stroke="#999999" points="681.6,-90.5 553.6,-90.5 553.6,-71.5 681.6,-71.5 681.6,-90.5"/>
<text text-anchor="middle" x="617.6" y="-78.5" font-family="Helvetica,sans-Serif" font-size="10.00">deal.II/dofs/dof_tools.h</text>
</a>
</g>
</g>
<!-- Node10&#45;&gt;Node35 -->
<g id="edge26_Node000010_Node000035" class="edge">
<title>Node10&#45;&gt;Node35</title>
<g id="a_edge26_Node000010_Node000035"><a xlink:title=" ">
<path fill="none" stroke="#63b8ff" d="M1005.84,-141.05C940.09,-132.73 804.65,-114.96 690.6,-96 684.02,-94.91 677.11,-93.68 670.29,-92.43"/>
<polygon fill="#63b8ff" stroke="#63b8ff" points="670.86,-88.97 660.39,-90.57 669.57,-95.85 670.86,-88.97"/>
</a>
</g>
</g>
<!-- Node36 -->
<g id="Node000036" class="node">
<title>Node36</title>
<g id="a_Node000036"><a xlink:title=" ">
<polygon fill="#e0e0e0" stroke="#999999" points="875.6,-90.5 699.6,-90.5 699.6,-71.5 875.6,-71.5 875.6,-90.5"/>
<text text-anchor="middle" x="787.6" y="-78.5" font-family="Helvetica,sans-Serif" font-size="10.00">deal.II/physics/transformations.h</text>
</a>
</g>
</g>
<!-- Node10&#45;&gt;Node36 -->
<g id="edge27_Node000010_Node000036" class="edge">
<title>Node10&#45;&gt;Node36</title>
<g id="a_edge27_Node000010_Node000036"><a xlink:title=" ">
<path fill="none" stroke="#63b8ff" d="M1011.08,-137.44C964.73,-125.94 882.38,-105.51 831.63,-92.92"/>
<polygon fill="#63b8ff" stroke="#63b8ff" points="832.47,-89.52 821.93,-90.51 830.79,-96.32 832.47,-89.52"/>
</a>
</g>
</g>
<!-- Node37 -->
<g id="Node000037" class="node">
<title>Node37</title>
<g id="a_Node000037"><a xlink:title=" ">
<polygon fill="#e0e0e0" stroke="#999999" points="937.6,-90.5 893.6,-90.5 893.6,-71.5 937.6,-71.5 937.6,-90.5"/>
<text text-anchor="middle" x="915.6" y="-78.5" font-family="Helvetica,sans-Serif" font-size="10.00">cfloat</text>
</a>
</g>
</g>
<!-- Node10&#45;&gt;Node37 -->
<g id="edge28_Node000010_Node000037" class="edge">
<title>Node10&#45;&gt;Node37</title>
<g id="a_edge28_Node000010_Node000037"><a xlink:title=" ">
<path fill="none" stroke="#63b8ff" d="M1028.07,-137.37C1006.07,-126.54 968.12,-107.85 942.45,-95.22"/>
<polygon fill="#63b8ff" stroke="#63b8ff" points="943.79,-91.98 933.27,-90.7 940.7,-98.26 943.79,-91.98"/>
</a>
</g>
</g>
<!-- Node38 -->
<g id="Node000038" class="node">
<title>Node38</title>
<g id="a_Node000038"><a xlink:title=" ">
<polygon fill="#e0e0e0" stroke="#999999" points="1013.6,-90.5 955.6,-90.5 955.6,-71.5 1013.6,-71.5 1013.6,-90.5"/>
<text text-anchor="middle" x="984.6" y="-78.5" font-family="Helvetica,sans-Serif" font-size="10.00">memory</text>
</a>
</g>
</g>
<!-- Node10&#45;&gt;Node38 -->
<g id="edge29_Node000010_Node000038" class="edge">
<title>Node10&#45;&gt;Node38</title>
<g id="a_edge29_Node000010_Node000038"><a xlink:title=" ">
<path fill="none" stroke="#63b8ff" d="M1037.38,-137.37C1027.88,-127.4 1012.05,-110.79 1000.2,-98.36"/>
<polygon fill="#63b8ff" stroke="#63b8ff" points="1002.52,-95.73 993.09,-90.91 997.46,-100.56 1002.52,-95.73"/>
</a>
</g>
</g>
<!-- Node11&#45;&gt;Node12 -->
<g id="edge11_Node000011_Node000012" class="edge">
<title>Node11&#45;&gt;Node12</title>
<g id="a_edge11_Node000011_Node000012"><a xlink:title=" ">
<path fill="none" stroke="#63b8ff" d="M1869.6,-65.8C1869.6,-56.7 1869.6,-44.79 1869.6,-34.9"/>
<polygon fill="#63b8ff" stroke="#63b8ff" points="1873.1,-34.84 1869.6,-24.84 1866.1,-34.84 1873.1,-34.84"/>
</a>
</g>
</g>
<!-- Node14&#45;&gt;Node5 -->
<g id="edge13_Node000014_Node000005" class="edge">
<title>Node14&#45;&gt;Node5</title>
<g id="a_edge13_Node000014_Node000005"><a xlink:title=" ">
<path fill="none" stroke="#63b8ff" d="M327.87,-71.48C320.89,-69.61 313.5,-67.69 306.6,-66 255.98,-53.59 198.65,-40.92 154.4,-31.44"/>
<polygon fill="#63b8ff" stroke="#63b8ff" points="155.1,-28.02 144.59,-29.35 153.64,-34.86 155.1,-28.02"/>
</a>
</g>
</g>
<!-- Node14&#45;&gt;Node8 -->
<g id="edge17_Node000014_Node000008" class="edge">
<title>Node14&#45;&gt;Node8</title>
<g id="a_edge17_Node000014_Node000008"><a xlink:title=" ">
<path fill="none" stroke="#63b8ff" d="M354.56,-71.37C350.11,-61.88 342.83,-46.36 337.12,-34.16"/>
<polygon fill="#63b8ff" stroke="#63b8ff" points="340.19,-32.47 332.78,-24.91 333.85,-35.45 340.19,-32.47"/>
</a>
</g>
</g>
<!-- Node14&#45;&gt;Node9 -->
<g id="edge18_Node000014_Node000009" class="edge">
<title>Node14&#45;&gt;Node9</title>
<g id="a_edge18_Node000014_Node000009"><a xlink:title=" ">
<path fill="none" stroke="#63b8ff" d="M341.88,-71.37C320.99,-60.59 285.01,-42.02 260.53,-29.38"/>
<polygon fill="#63b8ff" stroke="#63b8ff" points="261.95,-26.18 251.46,-24.7 258.74,-32.4 261.95,-26.18"/>
</a>
</g>
</g>
<!-- Node14&#45;&gt;Node12 -->
<g id="edge14_Node000014_Node000012" class="edge">
<title>Node14&#45;&gt;Node12</title>
<g id="a_edge14_Node000014_Node000012"><a xlink:title=" ">
<path fill="none" stroke="#63b8ff" d="M385.61,-71.47C393.58,-69.3 402.37,-67.23 410.6,-66 549.27,-45.24 1538.42,-23.01 1804.07,-17.36"/>
<polygon fill="#63b8ff" stroke="#63b8ff" points="1804.4,-20.86 1814.33,-17.15 1804.26,-13.86 1804.4,-20.86"/>
</a>
</g>
</g>
<!-- Node14&#45;&gt;Node19 -->
<g id="edge15_Node000014_Node000019" class="edge">
<title>Node14&#45;&gt;Node19</title>
<g id="a_edge15_Node000014_Node000019"><a xlink:title=" ">
<path fill="none" stroke="#63b8ff" d="M386.46,-71.49C394.21,-69.4 402.68,-67.37 410.6,-66 604.19,-32.49 835.48,-21.38 955.08,-17.74"/>
<polygon fill="#63b8ff" stroke="#63b8ff" points="955.36,-21.23 965.25,-17.44 955.15,-14.23 955.36,-21.23"/>
</a>
</g>
</g>
<!-- Node14&#45;&gt;Node25 -->
<g id="edge16_Node000014_Node000025" class="edge">
<title>Node14&#45;&gt;Node25</title>
<g id="a_edge16_Node000014_Node000025"><a xlink:title=" ">
<path fill="none" stroke="#63b8ff" d="M385.34,-71.49C393.38,-69.29 402.27,-67.2 410.6,-66 1080.74,30.7 1262.44,-119.28 1933.6,-30 1939.97,-29.15 1946.65,-27.88 1953.11,-26.43"/>
<polygon fill="#63b8ff" stroke="#63b8ff" points="1954.09,-29.79 1963,-24.06 1952.46,-22.99 1954.09,-29.79"/>
</a>
</g>
</g>
</g>
</svg>
