<?xml version="1.0" encoding="UTF-8" standalone="no"?>
<!DOCTYPE svg PUBLIC "-//W3C//DTD SVG 1.1//EN"
 "http://www.w3.org/Graphics/SVG/1.1/DTD/svg11.dtd">
<!-- Generated by graphviz version 2.43.0 (0)
 -->
<!-- Title: /home/runner/work/lethe/lethe/source/dem/ray_tracing_solver_parameters.cc Pages: 1 -->
<svg width="2170pt" height="555pt"
 viewBox="0.00 0.00 2169.84 555.00" xmlns="http://www.w3.org/2000/svg" xmlns:xlink="http://www.w3.org/1999/xlink">
<g id="graph0" class="graph" transform="scale(1 1) rotate(0) translate(4 551)">
<title>/home/runner/work/lethe/lethe/source/dem/ray_tracing_solver_parameters.cc</title>
<!-- Node1 -->
<g id="Node000001" class="node">
<title>Node1</title>
<g id="a_Node000001"><a xlink:title=" ">
<polygon fill="#999999" stroke="#666666" points="343,-547 177,-547 177,-506 343,-506 343,-547"/>
<text text-anchor="start" x="185" y="-535" font-family="Helvetica,sans-Serif" font-size="10.00">/home/runner/work/lethe</text>
<text text-anchor="start" x="185" y="-524" font-family="Helvetica,sans-Serif" font-size="10.00">/lethe/source/dem/ray</text>
<text text-anchor="middle" x="260" y="-513" font-family="Helvetica,sans-Serif" font-size="10.00">_tracing_solver_parameters.cc</text>
</a>
</g>
</g>
<!-- Node2 -->
<g id="Node000002" class="node">
<title>Node2</title>
<g id="a_Node000002"><a xlink:href="ray__tracing__solver__parameters_8h.html" target="_top" xlink:title=" ">
<polygon fill="white" stroke="#666666" points="325.5,-470 194.5,-470 194.5,-440 325.5,-440 325.5,-470"/>
<text text-anchor="start" x="202.5" y="-458" font-family="Helvetica,sans-Serif" font-size="10.00">dem/ray_tracing_solver</text>
<text text-anchor="middle" x="260" y="-447" font-family="Helvetica,sans-Serif" font-size="10.00">_parameters.h</text>
</a>
</g>
</g>
<!-- Node1&#45;&gt;Node2 -->
<g id="edge1_Node000001_Node000002" class="edge">
<title>Node1&#45;&gt;Node2</title>
<g id="a_edge1_Node000001_Node000002"><a xlink:title=" ">
<path fill="none" stroke="#63b8ff" d="M260,-505.77C260,-497.85 260,-488.63 260,-480.3"/>
<polygon fill="#63b8ff" stroke="#63b8ff" points="263.5,-480.04 260,-470.04 256.5,-480.04 263.5,-480.04"/>
</a>
</g>
</g>
<!-- Node3 -->
<g id="Node000003" class="node">
<title>Node3</title>
<g id="a_Node000003"><a xlink:href="parameters_8h.html" target="_top" xlink:title=" ">
<polygon fill="white" stroke="#666666" points="332,-283 226,-283 226,-264 332,-264 332,-283"/>
<text text-anchor="middle" x="279" y="-271" font-family="Helvetica,sans-Serif" font-size="10.00">core/parameters.h</text>
</a>
</g>
</g>
<!-- Node2&#45;&gt;Node3 -->
<g id="edge2_Node000002_Node000003" class="edge">
<title>Node2&#45;&gt;Node3</title>
<g id="a_edge2_Node000002_Node000003"><a xlink:title=" ">
<path fill="none" stroke="#63b8ff" d="M261.49,-439.91C264.89,-407.85 273.19,-329.38 277.01,-293.26"/>
<polygon fill="#63b8ff" stroke="#63b8ff" points="280.51,-293.45 278.09,-283.13 273.55,-292.71 280.51,-293.45"/>
</a>
</g>
</g>
<!-- Node42 -->
<g id="Node000042" class="node">
<title>Node42</title>
<g id="a_Node000042"><a xlink:href="parameters__lagrangian_8h.html" target="_top" xlink:title="Parameter structures for Lagrangian (DEM) particle simulations.">
<polygon fill="white" stroke="#666666" points="203.5,-343.5 40.5,-343.5 40.5,-324.5 203.5,-324.5 203.5,-343.5"/>
<text text-anchor="middle" x="122" y="-331.5" font-family="Helvetica,sans-Serif" font-size="10.00">core/parameters_lagrangian.h</text>
</a>
</g>
</g>
<!-- Node2&#45;&gt;Node42 -->
<g id="edge37_Node000002_Node000042" class="edge">
<title>Node2&#45;&gt;Node42</title>
<g id="a_edge37_Node000002_Node000042"><a xlink:title=" ">
<path fill="none" stroke="#63b8ff" d="M243.63,-439.88C217.6,-417.44 166.98,-373.78 139.98,-350.5"/>
<polygon fill="#63b8ff" stroke="#63b8ff" points="141.96,-347.59 132.1,-343.71 137.39,-352.89 141.96,-347.59"/>
</a>
</g>
</g>
<!-- Node43 -->
<g id="Node000043" class="node">
<title>Node43</title>
<g id="a_Node000043"><a xlink:href="simulation__control_8h.html" target="_top" xlink:title="Simulation control classes for managing time&#45;stepping and iteration control in Lethe.">
<polygon fill="white" stroke="#666666" points="428,-404 288,-404 288,-385 428,-385 428,-404"/>
<text text-anchor="middle" x="358" y="-392" font-family="Helvetica,sans-Serif" font-size="10.00">core/simulation_control.h</text>
</a>
</g>
</g>
<!-- Node2&#45;&gt;Node43 -->
<g id="edge41_Node000002_Node000043" class="edge">
<title>Node2&#45;&gt;Node43</title>
<g id="a_edge41_Node000002_Node000043"><a xlink:title=" ">
<path fill="none" stroke="#63b8ff" d="M283.72,-439.84C299.2,-430.6 319.32,-418.59 334.71,-409.4"/>
<polygon fill="#63b8ff" stroke="#63b8ff" points="336.81,-412.23 343.6,-404.09 333.22,-406.21 336.81,-412.23"/>
</a>
</g>
</g>
<!-- Node4 -->
<g id="Node000004" class="node">
<title>Node4</title>
<g id="a_Node000004"><a xlink:href="dimensionality_8h.html" target="_top" xlink:title=" ">
<polygon fill="white" stroke="#666666" points="225.5,-156.5 104.5,-156.5 104.5,-137.5 225.5,-137.5 225.5,-156.5"/>
<text text-anchor="middle" x="165" y="-144.5" font-family="Helvetica,sans-Serif" font-size="10.00">core/dimensionality.h</text>
</a>
</g>
</g>
<!-- Node3&#45;&gt;Node4 -->
<g id="edge3_Node000003_Node000004" class="edge">
<title>Node3&#45;&gt;Node4</title>
<g id="a_edge3_Node000003_Node000004"><a xlink:title=" ">
<path fill="none" stroke="#63b8ff" d="M225.89,-271.3C193.44,-267.47 154.21,-256.64 133,-228 118.46,-208.37 135.49,-181.24 149.73,-164.16"/>
<polygon fill="#63b8ff" stroke="#63b8ff" points="152.35,-166.47 156.34,-156.66 147.1,-161.84 152.35,-166.47"/>
</a>
</g>
</g>
<!-- Node5 -->
<g id="Node000005" class="node">
<title>Node5</title>
<g id="a_Node000005"><a xlink:title=" ">
<polygon fill="#e0e0e0" stroke="#999999" points="158.5,-30 31.5,-30 31.5,0 158.5,0 158.5,-30"/>
<text text-anchor="start" x="39.5" y="-18" font-family="Helvetica,sans-Serif" font-size="10.00">deal.II/base/parameter</text>
<text text-anchor="middle" x="95" y="-7" font-family="Helvetica,sans-Serif" font-size="10.00">_handler.h</text>
</a>
</g>
</g>
<!-- Node3&#45;&gt;Node5 -->
<g id="edge34_Node000003_Node000005" class="edge">
<title>Node3&#45;&gt;Node5</title>
<g id="a_edge34_Node000003_Node000005"><a xlink:title=" ">
<path fill="none" stroke="#63b8ff" d="M225.82,-268.58C193.09,-263.64 152.14,-252.59 124,-228 70.25,-181.03 80.85,-85.13 89.48,-40.22"/>
<polygon fill="#63b8ff" stroke="#63b8ff" points="92.96,-40.7 91.54,-30.2 86.1,-39.29 92.96,-40.7"/>
</a>
</g>
</g>
<!-- Node6 -->
<g id="Node000006" class="node">
<title>Node6</title>
<g id="a_Node000006"><a xlink:href="ib__particle_8h.html" target="_top" xlink:title=" ">
<polygon fill="white" stroke="#666666" points="463.5,-222.5 362.5,-222.5 362.5,-203.5 463.5,-203.5 463.5,-222.5"/>
<text text-anchor="middle" x="413" y="-210.5" font-family="Helvetica,sans-Serif" font-size="10.00">core/ib_particle.h</text>
</a>
</g>
</g>
<!-- Node3&#45;&gt;Node6 -->
<g id="edge5_Node000003_Node000006" class="edge">
<title>Node3&#45;&gt;Node6</title>
<g id="a_edge5_Node000003_Node000006"><a xlink:title=" ">
<path fill="none" stroke="#63b8ff" d="M298.48,-263.99C321.01,-254.16 358.31,-237.88 384.19,-226.58"/>
<polygon fill="#63b8ff" stroke="#63b8ff" points="385.73,-229.73 393.49,-222.52 382.93,-223.31 385.73,-229.73"/>
</a>
</g>
</g>
<!-- Node14 -->
<g id="Node000014" class="node">
<title>Node14</title>
<g id="a_Node000014"><a xlink:href="core_2utilities_8h.html" target="_top" xlink:title=" ">
<polygon fill="#fff0f0" stroke="red" points="565,-90.5 479,-90.5 479,-71.5 565,-71.5 565,-90.5"/>
<text text-anchor="middle" x="522" y="-78.5" font-family="Helvetica,sans-Serif" font-size="10.00">core/utilities.h</text>
</a>
</g>
</g>
<!-- Node3&#45;&gt;Node14 -->
<g id="edge33_Node000003_Node000014" class="edge">
<title>Node3&#45;&gt;Node14</title>
<g id="a_edge33_Node000003_Node000014"><a xlink:title=" ">
<path fill="none" stroke="#63b8ff" d="M327.24,-263.97C381.1,-254.06 462.18,-237.8 473,-228 509.89,-194.57 519.04,-132.52 521.29,-101.18"/>
<polygon fill="#63b8ff" stroke="#63b8ff" points="524.8,-100.97 521.85,-90.8 517.81,-100.59 524.8,-100.97"/>
</a>
</g>
</g>
<!-- Node39 -->
<g id="Node000039" class="node">
<title>Node39</title>
<g id="a_Node000039"><a xlink:title=" ">
<polygon fill="#e0e0e0" stroke="#999999" points="384.5,-162 275.5,-162 275.5,-132 384.5,-132 384.5,-162"/>
<text text-anchor="start" x="283.5" y="-150" font-family="Helvetica,sans-Serif" font-size="10.00">deal.II/base/parsed</text>
<text text-anchor="middle" x="330" y="-139" font-family="Helvetica,sans-Serif" font-size="10.00">_function.h</text>
</a>
</g>
</g>
<!-- Node3&#45;&gt;Node39 -->
<g id="edge35_Node000003_Node000039" class="edge">
<title>Node3&#45;&gt;Node39</title>
<g id="a_edge35_Node000003_Node000039"><a xlink:title=" ">
<path fill="none" stroke="#63b8ff" d="M287.91,-263.81C295.99,-255.4 307.58,-241.92 314,-228 322.09,-210.44 326.11,-188.86 328.09,-172.54"/>
<polygon fill="#63b8ff" stroke="#63b8ff" points="331.61,-172.51 329.16,-162.2 324.65,-171.79 331.61,-172.51"/>
</a>
</g>
</g>
<!-- Node40 -->
<g id="Node000040" class="node">
<title>Node40</title>
<g id="a_Node000040"><a xlink:href="multiphysics_8h.html" target="_top" xlink:title="Identifiers for multiphysics modules and their solution fields.">
<polygon fill="white" stroke="#666666" points="632,-222.5 520,-222.5 520,-203.5 632,-203.5 632,-222.5"/>
<text text-anchor="middle" x="576" y="-210.5" font-family="Helvetica,sans-Serif" font-size="10.00">core/multiphysics.h</text>
</a>
</g>
</g>
<!-- Node3&#45;&gt;Node40 -->
<g id="edge32_Node000003_Node000040" class="edge">
<title>Node3&#45;&gt;Node40</title>
<g id="a_edge32_Node000003_Node000040"><a xlink:title=" ">
<path fill="none" stroke="#63b8ff" d="M322.95,-263.94C368.69,-255.01 442.38,-240.6 506,-228 511.69,-226.87 517.63,-225.69 523.55,-224.51"/>
<polygon fill="#63b8ff" stroke="#63b8ff" points="524.31,-227.93 533.44,-222.54 522.94,-221.06 524.31,-227.93"/>
</a>
</g>
</g>
<!-- Node41 -->
<g id="Node000041" class="node">
<title>Node41</title>
<g id="a_Node000041"><a xlink:title=" ">
<polygon fill="#e0e0e0" stroke="#999999" points="305.5,-228 142.5,-228 142.5,-198 305.5,-198 305.5,-228"/>
<text text-anchor="start" x="150.5" y="-216" font-family="Helvetica,sans-Serif" font-size="10.00">deal.II/multigrid/mg</text>
<text text-anchor="middle" x="224" y="-205" font-family="Helvetica,sans-Serif" font-size="10.00">_transfer_global_coarsening.h</text>
</a>
</g>
</g>
<!-- Node3&#45;&gt;Node41 -->
<g id="edge36_Node000003_Node000041" class="edge">
<title>Node3&#45;&gt;Node41</title>
<g id="a_edge36_Node000003_Node000041"><a xlink:title=" ">
<path fill="none" stroke="#63b8ff" d="M270.88,-263.87C263.91,-256.44 253.54,-245.42 244.32,-235.62"/>
<polygon fill="#63b8ff" stroke="#63b8ff" points="246.67,-233 237.27,-228.11 241.57,-237.8 246.67,-233"/>
</a>
</g>
</g>
<!-- Node4&#45;&gt;Node5 -->
<g id="edge4_Node000004_Node000005" class="edge">
<title>Node4&#45;&gt;Node5</title>
<g id="a_edge4_Node000004_Node000005"><a xlink:title=" ">
<path fill="none" stroke="#63b8ff" d="M160.41,-137.47C149.8,-117.78 123.32,-68.59 107.49,-39.2"/>
<polygon fill="#63b8ff" stroke="#63b8ff" points="110.4,-37.21 102.57,-30.07 104.23,-40.53 110.4,-37.21"/>
</a>
</g>
</g>
<!-- Node7 -->
<g id="Node000007" class="node">
<title>Node7</title>
<g id="a_Node000007"><a xlink:href="dem__properties_8h.html" target="_top" xlink:title="DEM particle property definitions and output name management.">
<polygon fill="white" stroke="#666666" points="423,-90.5 297,-90.5 297,-71.5 423,-71.5 423,-90.5"/>
<text text-anchor="middle" x="360" y="-78.5" font-family="Helvetica,sans-Serif" font-size="10.00">core/dem_properties.h</text>
</a>
</g>
</g>
<!-- Node6&#45;&gt;Node7 -->
<g id="edge6_Node000006_Node000007" class="edge">
<title>Node6&#45;&gt;Node7</title>
<g id="a_edge6_Node000006_Node000007"><a xlink:title=" ">
<path fill="none" stroke="#63b8ff" d="M411.81,-203.28C409.54,-188.23 403.83,-156.64 393,-132 387.8,-120.17 379.87,-108.04 373.09,-98.69"/>
<polygon fill="#63b8ff" stroke="#63b8ff" points="375.87,-96.57 367.06,-90.68 370.28,-100.78 375.87,-96.57"/>
</a>
</g>
</g>
<!-- Node9 -->
<g id="Node000009" class="node">
<title>Node9</title>
<g id="a_Node000009"><a xlink:title=" ">
<polygon fill="#e0e0e0" stroke="#999999" points="496.5,-24.5 449.5,-24.5 449.5,-5.5 496.5,-5.5 496.5,-24.5"/>
<text text-anchor="middle" x="473" y="-12.5" font-family="Helvetica,sans-Serif" font-size="10.00">vector</text>
</a>
</g>
</g>
<!-- Node6&#45;&gt;Node9 -->
<g id="edge31_Node000006_Node000009" class="edge">
<title>Node6&#45;&gt;Node9</title>
<g id="a_edge31_Node000006_Node000009"><a xlink:title=" ">
<path fill="none" stroke="#63b8ff" d="M415.66,-203.33C424.75,-173.6 454.81,-75.43 467.39,-34.34"/>
<polygon fill="#63b8ff" stroke="#63b8ff" points="470.79,-35.16 470.38,-24.57 464.1,-33.11 470.79,-35.16"/>
</a>
</g>
</g>
<!-- Node10 -->
<g id="Node000010" class="node">
<title>Node10</title>
<g id="a_Node000010"><a xlink:href="shape_8h.html" target="_top" xlink:title=" ">
<polygon fill="white" stroke="#666666" points="1354.5,-156.5 1275.5,-156.5 1275.5,-137.5 1354.5,-137.5 1354.5,-156.5"/>
<text text-anchor="middle" x="1315" y="-144.5" font-family="Helvetica,sans-Serif" font-size="10.00">core/shape.h</text>
</a>
</g>
</g>
<!-- Node6&#45;&gt;Node10 -->
<g id="edge9_Node000006_Node000010" class="edge">
<title>Node6&#45;&gt;Node10</title>
<g id="a_edge9_Node000006_Node000010"><a xlink:title=" ">
<path fill="none" stroke="#63b8ff" d="M463.52,-204C478.75,-201.8 495.53,-199.58 511,-198 795.51,-168.88 1138.53,-154.38 1265.02,-149.72"/>
<polygon fill="#63b8ff" stroke="#63b8ff" points="1265.3,-153.21 1275.17,-149.35 1265.05,-146.22 1265.3,-153.21"/>
</a>
</g>
</g>
<!-- Node12 -->
<g id="Node000012" class="node">
<title>Node12</title>
<g id="a_Node000012"><a xlink:title=" ">
<polygon fill="#e0e0e0" stroke="#999999" points="648,-24.5 538,-24.5 538,-5.5 648,-5.5 648,-24.5"/>
<text text-anchor="middle" x="593" y="-12.5" font-family="Helvetica,sans-Serif" font-size="10.00">deal.II/base/point.h</text>
</a>
</g>
</g>
<!-- Node6&#45;&gt;Node12 -->
<g id="edge30_Node000006_Node000012" class="edge">
<title>Node6&#45;&gt;Node12</title>
<g id="a_edge30_Node000006_Node000012"><a xlink:title=" ">
<path fill="none" stroke="#63b8ff" d="M432.87,-203.44C467.29,-187.55 537.78,-150.11 574,-96 586.26,-77.69 590.64,-52.37 592.19,-35.15"/>
<polygon fill="#63b8ff" stroke="#63b8ff" points="595.71,-34.92 592.87,-24.72 588.73,-34.47 595.71,-34.92"/>
</a>
</g>
</g>
<!-- Node6&#45;&gt;Node39 -->
<g id="edge29_Node000006_Node000039" class="edge">
<title>Node6&#45;&gt;Node39</title>
<g id="a_edge29_Node000006_Node000039"><a xlink:title=" ">
<path fill="none" stroke="#63b8ff" d="M401.81,-203.37C390.23,-194.44 371.74,-180.19 356.43,-168.38"/>
<polygon fill="#63b8ff" stroke="#63b8ff" points="358.36,-165.45 348.31,-162.12 354.09,-170.99 358.36,-165.45"/>
</a>
</g>
</g>
<!-- Node8 -->
<g id="Node000008" class="node">
<title>Node8</title>
<g id="a_Node000008"><a xlink:title=" ">
<polygon fill="#e0e0e0" stroke="#999999" points="382,-24.5 338,-24.5 338,-5.5 382,-5.5 382,-24.5"/>
<text text-anchor="middle" x="360" y="-12.5" font-family="Helvetica,sans-Serif" font-size="10.00">string</text>
</a>
</g>
</g>
<!-- Node7&#45;&gt;Node8 -->
<g id="edge7_Node000007_Node000008" class="edge">
<title>Node7&#45;&gt;Node8</title>
<g id="a_edge7_Node000007_Node000008"><a xlink:title=" ">
<path fill="none" stroke="#63b8ff" d="M360,-71.37C360,-62.16 360,-47.29 360,-35.27"/>
<polygon fill="#63b8ff" stroke="#63b8ff" points="363.5,-34.91 360,-24.91 356.5,-34.91 363.5,-34.91"/>
</a>
</g>
</g>
<!-- Node7&#45;&gt;Node9 -->
<g id="edge8_Node000007_Node000009" class="edge">
<title>Node7&#45;&gt;Node9</title>
<g id="a_edge8_Node000007_Node000009"><a xlink:title=" ">
<path fill="none" stroke="#63b8ff" d="M375.24,-71.37C394.11,-60.68 426.48,-42.35 448.77,-29.72"/>
<polygon fill="#63b8ff" stroke="#63b8ff" points="450.66,-32.67 457.64,-24.7 447.21,-26.58 450.66,-32.67"/>
</a>
</g>
</g>
<!-- Node11 -->
<g id="Node000011" class="node">
<title>Node11</title>
<g id="a_Node000011"><a xlink:href="tensors__and__points__dimension__manipulation_8h.html" target="_top" xlink:title=" ">
<polygon fill="#fff0f0" stroke="red" points="2146,-96 1994,-96 1994,-66 2146,-66 2146,-96"/>
<text text-anchor="start" x="2002" y="-84" font-family="Helvetica,sans-Serif" font-size="10.00">core/tensors_and_points</text>
<text text-anchor="middle" x="2070" y="-73" font-family="Helvetica,sans-Serif" font-size="10.00">_dimension_manipulation.h</text>
</a>
</g>
</g>
<!-- Node10&#45;&gt;Node11 -->
<g id="edge10_Node000010_Node000011" class="edge">
<title>Node10&#45;&gt;Node11</title>
<g id="a_edge10_Node000010_Node000011"><a xlink:title=" ">
<path fill="none" stroke="#63b8ff" d="M1354.77,-144.27C1457.24,-139.54 1738.86,-124.87 1983.44,-96.12"/>
<polygon fill="#63b8ff" stroke="#63b8ff" points="1984.07,-99.57 1993.59,-94.91 1983.25,-92.62 1984.07,-99.57"/>
</a>
</g>
</g>
<!-- Node10&#45;&gt;Node14 -->
<g id="edge12_Node000010_Node000014" class="edge">
<title>Node10&#45;&gt;Node14</title>
<g id="a_edge12_Node000010_Node000014"><a xlink:title=" ">
<path fill="none" stroke="#63b8ff" d="M1275.23,-143.48C1171.99,-136.84 886.92,-117.86 650,-96 625.48,-93.74 598.37,-90.83 575.44,-88.25"/>
<polygon fill="#63b8ff" stroke="#63b8ff" points="575.55,-84.74 565.21,-87.1 574.76,-91.7 575.55,-84.74"/>
</a>
</g>
</g>
<!-- Node19 -->
<g id="Node000019" class="node">
<title>Node19</title>
<g id="a_Node000019"><a xlink:title=" ">
<polygon fill="#e0e0e0" stroke="#999999" points="1525,-24.5 1385,-24.5 1385,-5.5 1525,-5.5 1525,-24.5"/>
<text text-anchor="middle" x="1455" y="-12.5" font-family="Helvetica,sans-Serif" font-size="10.00">deal.II/dofs/dof_handler.h</text>
</a>
</g>
</g>
<!-- Node10&#45;&gt;Node19 -->
<g id="edge24_Node000010_Node000019" class="edge">
<title>Node10&#45;&gt;Node19</title>
<g id="a_edge24_Node000010_Node000019"><a xlink:title=" ">
<path fill="none" stroke="#63b8ff" d="M1354.59,-145.14C1517.3,-141.4 2127.23,-125.47 2155,-96 2164.14,-86.3 2164.09,-75.76 2155,-66 2113.53,-21.47 1710.52,-15.99 1535.48,-15.73"/>
<polygon fill="#63b8ff" stroke="#63b8ff" points="1535.3,-12.23 1525.29,-15.72 1535.29,-19.23 1535.3,-12.23"/>
</a>
</g>
</g>
<!-- Node29 -->
<g id="Node000029" class="node">
<title>Node29</title>
<g id="a_Node000029"><a xlink:title=" ">
<polygon fill="#e0e0e0" stroke="#999999" points="887,-96 735,-96 735,-66 887,-66 887,-96"/>
<text text-anchor="start" x="743" y="-84" font-family="Helvetica,sans-Serif" font-size="10.00">deal.II/base/auto_derivative</text>
<text text-anchor="middle" x="811" y="-73" font-family="Helvetica,sans-Serif" font-size="10.00">_function.h</text>
</a>
</g>
</g>
<!-- Node10&#45;&gt;Node29 -->
<g id="edge18_Node000010_Node000029" class="edge">
<title>Node10&#45;&gt;Node29</title>
<g id="a_edge18_Node000010_Node000029"><a xlink:title=" ">
<path fill="none" stroke="#63b8ff" d="M1275.45,-141.83C1202.84,-134.06 1043.15,-116.4 897.43,-96.02"/>
<polygon fill="#63b8ff" stroke="#63b8ff" points="897.8,-92.54 887.41,-94.61 896.82,-99.47 897.8,-92.54"/>
</a>
</g>
</g>
<!-- Node30 -->
<g id="Node000030" class="node">
<title>Node30</title>
<g id="a_Node000030"><a xlink:title=" ">
<polygon fill="#e0e0e0" stroke="#999999" points="1030.5,-90.5 905.5,-90.5 905.5,-71.5 1030.5,-71.5 1030.5,-90.5"/>
<text text-anchor="middle" x="968" y="-78.5" font-family="Helvetica,sans-Serif" font-size="10.00">deal.II/base/function.h</text>
</a>
</g>
</g>
<!-- Node10&#45;&gt;Node30 -->
<g id="edge19_Node000010_Node000030" class="edge">
<title>Node10&#45;&gt;Node30</title>
<g id="a_edge19_Node000010_Node000030"><a xlink:title=" ">
<path fill="none" stroke="#63b8ff" d="M1275.35,-138.95C1221.88,-129.4 1123.69,-111.74 1040,-96 1033.92,-94.86 1027.56,-93.64 1021.24,-92.43"/>
<polygon fill="#63b8ff" stroke="#63b8ff" points="1021.87,-88.98 1011.39,-90.53 1020.54,-95.86 1021.87,-88.98"/>
</a>
</g>
</g>
<!-- Node31 -->
<g id="Node000031" class="node">
<title>Node31</title>
<g id="a_Node000031"><a xlink:title=" ">
<polygon fill="#e0e0e0" stroke="#999999" points="1173,-90.5 1049,-90.5 1049,-71.5 1173,-71.5 1173,-90.5"/>
<text text-anchor="middle" x="1111" y="-78.5" font-family="Helvetica,sans-Serif" font-size="10.00">deal.II/grid/manifold.h</text>
</a>
</g>
</g>
<!-- Node10&#45;&gt;Node31 -->
<g id="edge20_Node000010_Node000031" class="edge">
<title>Node10&#45;&gt;Node31</title>
<g id="a_edge20_Node000010_Node000031"><a xlink:title=" ">
<path fill="none" stroke="#63b8ff" d="M1287.49,-137.37C1251.49,-126.08 1188.29,-106.25 1148.09,-93.64"/>
<polygon fill="#63b8ff" stroke="#63b8ff" points="1148.99,-90.25 1138.4,-90.6 1146.9,-96.93 1148.99,-90.25"/>
</a>
</g>
</g>
<!-- Node32 -->
<g id="Node000032" class="node">
<title>Node32</title>
<g id="a_Node000032"><a xlink:title=" ">
<polygon fill="#e0e0e0" stroke="#999999" points="1306.5,-96 1191.5,-96 1191.5,-66 1306.5,-66 1306.5,-96"/>
<text text-anchor="start" x="1199.5" y="-84" font-family="Helvetica,sans-Serif" font-size="10.00">deal.II/grid/manifold</text>
<text text-anchor="middle" x="1249" y="-73" font-family="Helvetica,sans-Serif" font-size="10.00">_lib.h</text>
</a>
</g>
</g>
<!-- Node10&#45;&gt;Node32 -->
<g id="edge21_Node000010_Node000032" class="edge">
<title>Node10&#45;&gt;Node32</title>
<g id="a_edge21_Node000010_Node000032"><a xlink:title=" ">
<path fill="none" stroke="#63b8ff" d="M1306.1,-137.37C1297.15,-128.69 1283.01,-114.98 1271.03,-103.37"/>
<polygon fill="#63b8ff" stroke="#63b8ff" points="1273.17,-100.56 1263.56,-96.12 1268.3,-105.59 1273.17,-100.56"/>
</a>
</g>
</g>
<!-- Node33 -->
<g id="Node000033" class="node">
<title>Node33</title>
<g id="a_Node000033"><a xlink:title=" ">
<polygon fill="#e0e0e0" stroke="#999999" points="1439.5,-96 1324.5,-96 1324.5,-66 1439.5,-66 1439.5,-96"/>
<text text-anchor="start" x="1332.5" y="-84" font-family="Helvetica,sans-Serif" font-size="10.00">boost/range/adaptor</text>
<text text-anchor="middle" x="1382" y="-73" font-family="Helvetica,sans-Serif" font-size="10.00">/map.hpp</text>
</a>
</g>
</g>
<!-- Node10&#45;&gt;Node33 -->
<g id="edge22_Node000010_Node000033" class="edge">
<title>Node10&#45;&gt;Node33</title>
<g id="a_edge22_Node000010_Node000033"><a xlink:title=" ">
<path fill="none" stroke="#63b8ff" d="M1324.04,-137.37C1333.21,-128.61 1347.75,-114.71 1359.98,-103.04"/>
<polygon fill="#63b8ff" stroke="#63b8ff" points="1362.41,-105.55 1367.22,-96.12 1357.57,-100.49 1362.41,-105.55"/>
</a>
</g>
</g>
<!-- Node34 -->
<g id="Node000034" class="node">
<title>Node34</title>
<g id="a_Node000034"><a xlink:title=" ">
<polygon fill="#e0e0e0" stroke="#999999" points="1574,-96 1458,-96 1458,-66 1574,-66 1574,-96"/>
<text text-anchor="start" x="1466" y="-84" font-family="Helvetica,sans-Serif" font-size="10.00">deal.II/base/function</text>
<text text-anchor="middle" x="1516" y="-73" font-family="Helvetica,sans-Serif" font-size="10.00">_signed_distance.h</text>
</a>
</g>
</g>
<!-- Node10&#45;&gt;Node34 -->
<g id="edge23_Node000010_Node000034" class="edge">
<title>Node10&#45;&gt;Node34</title>
<g id="a_edge23_Node000010_Node000034"><a xlink:title=" ">
<path fill="none" stroke="#63b8ff" d="M1342.11,-137.37C1372.73,-127.62 1423.34,-111.5 1462.09,-99.16"/>
<polygon fill="#63b8ff" stroke="#63b8ff" points="1463.2,-102.48 1471.67,-96.12 1461.08,-95.81 1463.2,-102.48"/>
</a>
</g>
</g>
<!-- Node35 -->
<g id="Node000035" class="node">
<title>Node35</title>
<g id="a_Node000035"><a xlink:title=" ">
<polygon fill="#e0e0e0" stroke="#999999" points="1720,-90.5 1592,-90.5 1592,-71.5 1720,-71.5 1720,-90.5"/>
<text text-anchor="middle" x="1656" y="-78.5" font-family="Helvetica,sans-Serif" font-size="10.00">deal.II/dofs/dof_tools.h</text>
</a>
</g>
</g>
<!-- Node10&#45;&gt;Node35 -->
<g id="edge25_Node000010_Node000035" class="edge">
<title>Node10&#45;&gt;Node35</title>
<g id="a_edge25_Node000010_Node000035"><a xlink:title=" ">
<path fill="none" stroke="#63b8ff" d="M1354.52,-138.69C1406.81,-129.01 1501.85,-111.35 1583,-96 1589.07,-94.85 1595.43,-93.64 1601.75,-92.43"/>
<polygon fill="#63b8ff" stroke="#63b8ff" points="1602.45,-95.87 1611.61,-90.55 1601.13,-88.99 1602.45,-95.87"/>
</a>
</g>
</g>
<!-- Node36 -->
<g id="Node000036" class="node">
<title>Node36</title>
<g id="a_Node000036"><a xlink:title=" ">
<polygon fill="#e0e0e0" stroke="#999999" points="1914,-90.5 1738,-90.5 1738,-71.5 1914,-71.5 1914,-90.5"/>
<text text-anchor="middle" x="1826" y="-78.5" font-family="Helvetica,sans-Serif" font-size="10.00">deal.II/physics/transformations.h</text>
</a>
</g>
</g>
<!-- Node10&#45;&gt;Node36 -->
<g id="edge26_Node000010_Node000036" class="edge">
<title>Node10&#45;&gt;Node36</title>
<g id="a_edge26_Node000010_Node000036"><a xlink:title=" ">
<path fill="none" stroke="#63b8ff" d="M1354.71,-141.51C1428.51,-133.11 1591.74,-114.19 1729,-96 1738.51,-94.74 1748.54,-93.35 1758.4,-91.96"/>
<polygon fill="#63b8ff" stroke="#63b8ff" points="1759.18,-95.39 1768.58,-90.51 1758.19,-88.46 1759.18,-95.39"/>
</a>
</g>
</g>
<!-- Node37 -->
<g id="Node000037" class="node">
<title>Node37</title>
<g id="a_Node000037"><a xlink:title=" ">
<polygon fill="#e0e0e0" stroke="#999999" points="1976,-90.5 1932,-90.5 1932,-71.5 1976,-71.5 1976,-90.5"/>
<text text-anchor="middle" x="1954" y="-78.5" font-family="Helvetica,sans-Serif" font-size="10.00">cfloat</text>
</a>
</g>
</g>
<!-- Node10&#45;&gt;Node37 -->
<g id="edge27_Node000010_Node000037" class="edge">
<title>Node10&#45;&gt;Node37</title>
<g id="a_edge27_Node000010_Node000037"><a xlink:title=" ">
<path fill="none" stroke="#63b8ff" d="M1354.73,-144.5C1471.93,-139.8 1814.82,-123.98 1923,-96 1924.69,-95.56 1926.4,-95.04 1928.11,-94.46"/>
<polygon fill="#63b8ff" stroke="#63b8ff" points="1929.67,-97.6 1937.65,-90.64 1927.06,-91.11 1929.67,-97.6"/>
</a>
</g>
</g>
<!-- Node38 -->
<g id="Node000038" class="node">
<title>Node38</title>
<g id="a_Node000038"><a xlink:title=" ">
<polygon fill="#e0e0e0" stroke="#999999" points="717,-90.5 659,-90.5 659,-71.5 717,-71.5 717,-90.5"/>
<text text-anchor="middle" x="688" y="-78.5" font-family="Helvetica,sans-Serif" font-size="10.00">memory</text>
</a>
</g>
</g>
<!-- Node10&#45;&gt;Node38 -->
<g id="edge28_Node000010_Node000038" class="edge">
<title>Node10&#45;&gt;Node38</title>
<g id="a_edge28_Node000010_Node000038"><a xlink:title=" ">
<path fill="none" stroke="#63b8ff" d="M1275.16,-146.27C1179.33,-146.14 928.86,-141.12 726,-96 723.33,-95.41 720.58,-94.67 717.86,-93.84"/>
<polygon fill="#63b8ff" stroke="#63b8ff" points="718.8,-90.47 708.21,-90.59 716.56,-97.1 718.8,-90.47"/>
</a>
</g>
</g>
<!-- Node11&#45;&gt;Node12 -->
<g id="edge11_Node000011_Node000012" class="edge">
<title>Node11&#45;&gt;Node12</title>
<g id="a_edge11_Node000011_Node000012"><a xlink:title=" ">
<path fill="none" stroke="#63b8ff" d="M1993.61,-66.95C1990.7,-66.6 1987.83,-66.28 1985,-66 1722.71,-39.8 897.65,-21.96 658.54,-17.25"/>
<polygon fill="#63b8ff" stroke="#63b8ff" points="658.34,-13.74 648.27,-17.04 658.2,-20.74 658.34,-13.74"/>
</a>
</g>
</g>
<!-- Node14&#45;&gt;Node5 -->
<g id="edge13_Node000014_Node000005" class="edge">
<title>Node14&#45;&gt;Node5</title>
<g id="a_edge13_Node000014_Node000005"><a xlink:title=" ">
<path fill="none" stroke="#63b8ff" d="M478.98,-73.24C464.1,-70.93 447.32,-68.33 432,-66 341.48,-52.24 237.2,-36.84 168.91,-26.81"/>
<polygon fill="#63b8ff" stroke="#63b8ff" points="169.09,-23.3 158.69,-25.31 168.07,-30.23 169.09,-23.3"/>
</a>
</g>
</g>
<!-- Node14&#45;&gt;Node8 -->
<g id="edge16_Node000014_Node000008" class="edge">
<title>Node14&#45;&gt;Node8</title>
<g id="a_edge16_Node000014_Node000008"><a xlink:title=" ">
<path fill="none" stroke="#63b8ff" d="M500.15,-71.37C472.05,-60.27 423.07,-40.92 391.1,-28.28"/>
<polygon fill="#63b8ff" stroke="#63b8ff" points="392.35,-25.02 381.76,-24.6 389.77,-31.53 392.35,-25.02"/>
</a>
</g>
</g>
<!-- Node14&#45;&gt;Node9 -->
<g id="edge17_Node000014_Node000009" class="edge">
<title>Node14&#45;&gt;Node9</title>
<g id="a_edge17_Node000014_Node000009"><a xlink:title=" ">
<path fill="none" stroke="#63b8ff" d="M515.39,-71.37C507.91,-61.59 495.53,-45.42 486.07,-33.08"/>
<polygon fill="#63b8ff" stroke="#63b8ff" points="488.68,-30.72 479.82,-24.91 483.12,-34.97 488.68,-30.72"/>
</a>
</g>
</g>
<!-- Node14&#45;&gt;Node12 -->
<g id="edge14_Node000014_Node000012" class="edge">
<title>Node14&#45;&gt;Node12</title>
<g id="a_edge14_Node000014_Node000012"><a xlink:title=" ">
<path fill="none" stroke="#63b8ff" d="M531.58,-71.37C542.84,-61.21 561.76,-44.16 575.63,-31.65"/>
<polygon fill="#63b8ff" stroke="#63b8ff" points="578.04,-34.2 583.12,-24.91 573.35,-29 578.04,-34.2"/>
</a>
</g>
</g>
<!-- Node14&#45;&gt;Node19 -->
<g id="edge15_Node000014_Node000019" class="edge">
<title>Node14&#45;&gt;Node19</title>
<g id="a_edge15_Node000014_Node000019"><a xlink:title=" ">
<path fill="none" stroke="#63b8ff" d="M565.2,-74.76C589.99,-71.89 621.71,-68.42 650,-66 915,-43.29 1229.91,-26.76 1374.79,-19.73"/>
<polygon fill="#63b8ff" stroke="#63b8ff" points="1375.11,-23.22 1384.93,-19.24 1374.77,-16.23 1375.11,-23.22"/>
</a>
</g>
</g>
<!-- Node42&#45;&gt;Node3 -->
<g id="edge38_Node000042_Node000003" class="edge">
<title>Node42&#45;&gt;Node3</title>
<g id="a_edge38_Node000042_Node000003"><a xlink:title=" ">
<path fill="none" stroke="#63b8ff" d="M144.83,-324.49C171.57,-314.53 216.08,-297.95 246.44,-286.63"/>
<polygon fill="#63b8ff" stroke="#63b8ff" points="247.99,-289.79 256.14,-283.02 245.55,-283.23 247.99,-289.79"/>
</a>
</g>
</g>
<!-- Node42&#45;&gt;Node5 -->
<g id="edge39_Node000042_Node000005" class="edge">
<title>Node42&#45;&gt;Node5</title>
<g id="a_edge39_Node000042_Node000005"><a xlink:title=" ">
<path fill="none" stroke="#63b8ff" d="M92.06,-324.41C70.42,-316.78 41.95,-303.59 24,-283 2.67,-258.52 0,-246.47 0,-214 0,-214 0,-214 0,-146 0,-100.2 38.91,-59.78 66.92,-36.61"/>
<polygon fill="#63b8ff" stroke="#63b8ff" points="69.23,-39.25 74.85,-30.27 64.86,-33.78 69.23,-39.25"/>
</a>
</g>
</g>
<!-- Node42&#45;&gt;Node8 -->
<g id="edge40_Node000042_Node000008" class="edge">
<title>Node42&#45;&gt;Node8</title>
<g id="a_edge40_Node000042_Node000008"><a xlink:title=" ">
<path fill="none" stroke="#63b8ff" d="M117.18,-324.47C101.22,-294.99 53.38,-195.65 95,-132 147.52,-51.67 269.31,-26.63 327.67,-19.1"/>
<polygon fill="#63b8ff" stroke="#63b8ff" points="328.29,-22.55 337.8,-17.89 327.46,-15.6 328.29,-22.55"/>
</a>
</g>
</g>
<!-- Node43&#45;&gt;Node3 -->
<g id="edge46_Node000043_Node000003" class="edge">
<title>Node43&#45;&gt;Node3</title>
<g id="a_edge46_Node000043_Node000003"><a xlink:title=" ">
<path fill="none" stroke="#63b8ff" d="M348.74,-384.92C339.88,-376.38 326.48,-362.62 317,-349 304.46,-330.99 293.49,-308.28 286.6,-292.7"/>
<polygon fill="#63b8ff" stroke="#63b8ff" points="289.67,-291 282.51,-283.19 283.24,-293.76 289.67,-291"/>
</a>
</g>
</g>
<!-- Node44 -->
<g id="Node000044" class="node">
<title>Node44</title>
<g id="a_Node000044"><a xlink:href="bdf_8h.html" target="_top" xlink:title=" ">
<polygon fill="white" stroke="#666666" points="391.5,-343.5 326.5,-343.5 326.5,-324.5 391.5,-324.5 391.5,-343.5"/>
<text text-anchor="middle" x="359" y="-331.5" font-family="Helvetica,sans-Serif" font-size="10.00">core/bdf.h</text>
</a>
</g>
</g>
<!-- Node43&#45;&gt;Node44 -->
<g id="edge42_Node000043_Node000044" class="edge">
<title>Node43&#45;&gt;Node44</title>
<g id="a_edge42_Node000043_Node000044"><a xlink:title=" ">
<path fill="none" stroke="#63b8ff" d="M358.15,-384.87C358.29,-376.75 358.5,-364.31 358.68,-353.89"/>
<polygon fill="#63b8ff" stroke="#63b8ff" points="362.18,-353.73 358.85,-343.67 355.18,-353.61 362.18,-353.73"/>
</a>
</g>
</g>
<!-- Node46 -->
<g id="Node000046" class="node">
<title>Node46</title>
<g id="a_Node000046"><a xlink:title=" ">
<polygon fill="#e0e0e0" stroke="#999999" points="540.5,-349 409.5,-349 409.5,-319 540.5,-319 540.5,-349"/>
<text text-anchor="start" x="417.5" y="-337" font-family="Helvetica,sans-Serif" font-size="10.00">deal.II/particles/particle</text>
<text text-anchor="middle" x="475" y="-326" font-family="Helvetica,sans-Serif" font-size="10.00">_handler.h</text>
</a>
</g>
</g>
<!-- Node43&#45;&gt;Node46 -->
<g id="edge47_Node000043_Node000046" class="edge">
<title>Node43&#45;&gt;Node46</title>
<g id="a_edge47_Node000043_Node000046"><a xlink:title=" ">
<path fill="none" stroke="#63b8ff" d="M375.01,-384.99C391.35,-376.82 416.59,-364.2 437.63,-353.69"/>
<polygon fill="#63b8ff" stroke="#63b8ff" points="439.27,-356.78 446.64,-349.18 436.14,-350.52 439.27,-356.78"/>
</a>
</g>
</g>
<!-- Node44&#45;&gt;Node3 -->
<g id="edge43_Node000044_Node000003" class="edge">
<title>Node44&#45;&gt;Node3</title>
<g id="a_edge43_Node000044_Node000003"><a xlink:title=" ">
<path fill="none" stroke="#63b8ff" d="M347.2,-324.37C334.55,-315.12 314.26,-300.28 299.09,-289.19"/>
<polygon fill="#63b8ff" stroke="#63b8ff" points="300.99,-286.24 290.85,-283.17 296.86,-291.9 300.99,-286.24"/>
</a>
</g>
</g>
<!-- Node44&#45;&gt;Node9 -->
<g id="edge45_Node000044_Node000009" class="edge">
<title>Node44&#45;&gt;Node9</title>
<g id="a_edge45_Node000044_Node000009"><a xlink:title=" ">
<path fill="none" stroke="#63b8ff" d="M383.15,-324.42C450.72,-300.36 637.1,-233.62 641,-228 676.75,-176.54 655.03,-146.22 574,-66 555.15,-47.34 527.95,-34.43 506.53,-26.4"/>
<polygon fill="#63b8ff" stroke="#63b8ff" points="507.43,-23.01 496.84,-22.95 505.09,-29.6 507.43,-23.01"/>
</a>
</g>
</g>
<!-- Node45 -->
<g id="Node000045" class="node">
<title>Node45</title>
<g id="a_Node000045"><a xlink:title=" ">
<polygon fill="#e0e0e0" stroke="#999999" points="456,-283 350,-283 350,-264 456,-264 456,-283"/>
<text text-anchor="middle" x="403" y="-271" font-family="Helvetica,sans-Serif" font-size="10.00">deal.II/lac/vector.h</text>
</a>
</g>
</g>
<!-- Node44&#45;&gt;Node45 -->
<g id="edge44_Node000044_Node000045" class="edge">
<title>Node44&#45;&gt;Node45</title>
<g id="a_edge44_Node000044_Node000045"><a xlink:title=" ">
<path fill="none" stroke="#63b8ff" d="M365.49,-324.37C371.99,-315.73 382.16,-302.2 390.28,-291.42"/>
<polygon fill="#63b8ff" stroke="#63b8ff" points="393.27,-293.26 396.48,-283.17 387.67,-289.06 393.27,-293.26"/>
</a>
</g>
</g>
</g>
</svg>
