<?xml version="1.0" encoding="UTF-8" standalone="no"?>
<!DOCTYPE svg PUBLIC "-//W3C//DTD SVG 1.1//EN"
 "http://www.w3.org/Graphics/SVG/1.1/DTD/svg11.dtd">
<!-- Generated by graphviz version 2.43.0 (0)
 -->
<!-- Title: /home/runner/work/lethe/lethe/include/dem/read_mesh.h Pages: 1 -->
<svg width="461pt" height="126pt"
 viewBox="0.00 0.00 461.00 126.00" xmlns="http://www.w3.org/2000/svg" xmlns:xlink="http://www.w3.org/1999/xlink">
<g id="graph0" class="graph" transform="scale(1 1) rotate(0) translate(4 122)">
<title>/home/runner/work/lethe/lethe/include/dem/read_mesh.h</title>
<!-- Node1 -->
<g id="Node000001" class="node">
<title>Node1</title>
<g id="a_Node000001"><a xlink:title=" ">
<polygon fill="#999999" stroke="#666666" points="298,-118 161,-118 161,-77 298,-77 298,-118"/>
<text text-anchor="start" x="169" y="-106" font-family="Helvetica,sans-Serif" font-size="10.00">/home/runner/work/lethe</text>
<text text-anchor="start" x="169" y="-95" font-family="Helvetica,sans-Serif" font-size="10.00">/lethe/include/dem/read</text>
<text text-anchor="middle" x="229.5" y="-84" font-family="Helvetica,sans-Serif" font-size="10.00">_mesh.h</text>
</a>
</g>
</g>
<!-- Node2 -->
<g id="Node000002" class="node">
<title>Node2</title>
<g id="a_Node000002"><a xlink:href="dem_8cc.html" target="_top" xlink:title=" ">
<polygon fill="white" stroke="#666666" points="143,-35.5 0,-35.5 0,-5.5 143,-5.5 143,-35.5"/>
<text text-anchor="start" x="8" y="-23.5" font-family="Helvetica,sans-Serif" font-size="10.00">/home/runner/work/lethe</text>
<text text-anchor="middle" x="71.5" y="-12.5" font-family="Helvetica,sans-Serif" font-size="10.00">/lethe/source/dem/dem.cc</text>
</a>
</g>
</g>
<!-- Node1&#45;&gt;Node2 -->
<g id="edge1_Node000001_Node000002" class="edge">
<title>Node1&#45;&gt;Node2</title>
<g id="a_edge1_Node000001_Node000002"><a xlink:title=" ">
<path fill="none" stroke="#63b8ff" d="M179.2,-72.62C153.59,-60.47 123.33,-46.1 101.41,-35.7"/>
<polygon fill="#63b8ff" stroke="#63b8ff" points="177.87,-75.86 188.4,-76.99 180.87,-69.54 177.87,-75.86"/>
</a>
</g>
</g>
<!-- Node3 -->
<g id="Node000003" class="node">
<title>Node3</title>
<g id="a_Node000003"><a xlink:href="ray__tracing_8cc.html" target="_top" xlink:title=" ">
<polygon fill="white" stroke="#666666" points="298,-41 161,-41 161,0 298,0 298,-41"/>
<text text-anchor="start" x="169" y="-29" font-family="Helvetica,sans-Serif" font-size="10.00">/home/runner/work/lethe</text>
<text text-anchor="start" x="169" y="-18" font-family="Helvetica,sans-Serif" font-size="10.00">/lethe/source/dem/ray</text>
<text text-anchor="middle" x="229.5" y="-7" font-family="Helvetica,sans-Serif" font-size="10.00">_tracing.cc</text>
</a>
</g>
</g>
<!-- Node1&#45;&gt;Node3 -->
<g id="edge2_Node000001_Node000003" class="edge">
<title>Node1&#45;&gt;Node3</title>
<g id="a_edge2_Node000001_Node000003"><a xlink:title=" ">
<path fill="none" stroke="#63b8ff" d="M229.5,-66.69C229.5,-58.08 229.5,-48.9 229.5,-41.07"/>
<polygon fill="#63b8ff" stroke="#63b8ff" points="226,-66.79 229.5,-76.79 233,-66.79 226,-66.79"/>
</a>
</g>
</g>
<!-- Node4 -->
<g id="Node000004" class="node">
<title>Node4</title>
<g id="a_Node000004"><a xlink:href="read__mesh_8cc.html" target="_top" xlink:title=" ">
<polygon fill="white" stroke="#666666" points="453,-41 316,-41 316,0 453,0 453,-41"/>
<text text-anchor="start" x="324" y="-29" font-family="Helvetica,sans-Serif" font-size="10.00">/home/runner/work/lethe</text>
<text text-anchor="start" x="324" y="-18" font-family="Helvetica,sans-Serif" font-size="10.00">/lethe/source/dem/read</text>
<text text-anchor="middle" x="384.5" y="-7" font-family="Helvetica,sans-Serif" font-size="10.00">_mesh.cc</text>
</a>
</g>
</g>
<!-- Node1&#45;&gt;Node4 -->
<g id="edge3_Node000001_Node000004" class="edge">
<title>Node1&#45;&gt;Node4</title>
<g id="a_edge3_Node000001_Node000004"><a xlink:title=" ">
<path fill="none" stroke="#63b8ff" d="M278.92,-72.59C299.96,-62.41 324.18,-50.69 344.11,-41.04"/>
<polygon fill="#63b8ff" stroke="#63b8ff" points="277.3,-69.48 269.82,-76.99 280.35,-75.79 277.3,-69.48"/>
</a>
</g>
</g>
</g>
</svg>
