<?xml version="1.0" encoding="UTF-8" standalone="no"?>
<!DOCTYPE svg PUBLIC "-//W3C//DTD SVG 1.1//EN"
 "http://www.w3.org/Graphics/SVG/1.1/DTD/svg11.dtd">
<!-- Generated by graphviz version 2.43.0 (0)
 -->
<!-- Title: /home/runner/work/lethe/lethe/source/core/sdirk_stage_data.cc Pages: 1 -->
<svg width="2800pt" height="489pt"
 viewBox="0.00 0.00 2800.00 489.00" xmlns="http://www.w3.org/2000/svg" xmlns:xlink="http://www.w3.org/1999/xlink">
<g id="graph0" class="graph" transform="scale(1 1) rotate(0) translate(4 485)">
<title>/home/runner/work/lethe/lethe/source/core/sdirk_stage_data.cc</title>
<!-- Node1 -->
<g id="Node000001" class="node">
<title>Node1</title>
<g id="a_Node000001"><a xlink:title=" ">
<polygon fill="#999999" stroke="#666666" points="2569,-481 2432,-481 2432,-440 2569,-440 2569,-481"/>
<text text-anchor="start" x="2440" y="-469" font-family="Helvetica,sans-Serif" font-size="10.00">/home/runner/work/lethe</text>
<text text-anchor="start" x="2440" y="-458" font-family="Helvetica,sans-Serif" font-size="10.00">/lethe/source/core/sdirk</text>
<text text-anchor="middle" x="2500.5" y="-447" font-family="Helvetica,sans-Serif" font-size="10.00">_stage_data.cc</text>
</a>
</g>
</g>
<!-- Node2 -->
<g id="Node000002" class="node">
<title>Node2</title>
<g id="a_Node000002"><a xlink:href="parameters_8h.html" target="_top" xlink:title=" ">
<polygon fill="white" stroke="#666666" points="1253.5,-349 1147.5,-349 1147.5,-330 1253.5,-330 1253.5,-349"/>
<text text-anchor="middle" x="1200.5" y="-337" font-family="Helvetica,sans-Serif" font-size="10.00">core/parameters.h</text>
</a>
</g>
</g>
<!-- Node1&#45;&gt;Node2 -->
<g id="edge1_Node000001_Node000002" class="edge">
<title>Node1&#45;&gt;Node2</title>
<g id="a_edge1_Node000001_Node000002"><a xlink:title=" ">
<path fill="none" stroke="#63b8ff" d="M2431.98,-453.23C2205.42,-432.49 1482.46,-366.31 1263.77,-346.29"/>
<polygon fill="#63b8ff" stroke="#63b8ff" points="1264.02,-342.8 1253.74,-345.37 1263.38,-349.77 1264.02,-342.8"/>
</a>
</g>
</g>
<!-- Node8 -->
<g id="Node000008" class="node">
<title>Node8</title>
<g id="a_Node000008"><a xlink:title=" ">
<polygon fill="#e0e0e0" stroke="#999999" points="2344,-90.5 2297,-90.5 2297,-71.5 2344,-71.5 2344,-90.5"/>
<text text-anchor="middle" x="2320.5" y="-78.5" font-family="Helvetica,sans-Serif" font-size="10.00">vector</text>
</a>
</g>
</g>
<!-- Node1&#45;&gt;Node8 -->
<g id="edge56_Node000001_Node000008" class="edge">
<title>Node1&#45;&gt;Node8</title>
<g id="a_edge56_Node000001_Node000008"><a xlink:title=" ">
<path fill="none" stroke="#63b8ff" d="M2431.91,-440.09C2412.43,-431.71 2392.69,-420.03 2378.5,-404 2358.89,-381.84 2358.5,-370.09 2358.5,-340.5 2358.5,-340.5 2358.5,-340.5 2358.5,-212 2358.5,-170.44 2340.39,-124.3 2329.17,-99.71"/>
<polygon fill="#63b8ff" stroke="#63b8ff" points="2332.29,-98.12 2324.86,-90.57 2325.96,-101.11 2332.29,-98.12"/>
</a>
</g>
</g>
<!-- Node39 -->
<g id="Node000039" class="node">
<title>Node39</title>
<g id="a_Node000039"><a xlink:href="sdirk__stage__data_8h.html" target="_top" xlink:title=" ">
<polygon fill="white" stroke="#666666" points="2520,-404 2387,-404 2387,-385 2520,-385 2520,-404"/>
<text text-anchor="middle" x="2453.5" y="-392" font-family="Helvetica,sans-Serif" font-size="10.00">core/sdirk_stage_data.h</text>
</a>
</g>
</g>
<!-- Node1&#45;&gt;Node39 -->
<g id="edge49_Node000001_Node000039" class="edge">
<title>Node1&#45;&gt;Node39</title>
<g id="a_edge49_Node000001_Node000039"><a xlink:title=" ">
<path fill="none" stroke="#63b8ff" d="M2486.14,-439.95C2479.72,-431.2 2472.22,-420.99 2466.02,-412.56"/>
<polygon fill="#63b8ff" stroke="#63b8ff" points="2468.67,-410.25 2459.93,-404.26 2463.03,-414.39 2468.67,-410.25"/>
</a>
</g>
</g>
<!-- Node40 -->
<g id="Node000040" class="node">
<title>Node40</title>
<g id="a_Node000040"><a xlink:title=" ">
<polygon fill="#e0e0e0" stroke="#999999" points="2597,-349 2468,-349 2468,-330 2597,-330 2597,-349"/>
<text text-anchor="middle" x="2532.5" y="-337" font-family="Helvetica,sans-Serif" font-size="10.00">deal.II/lac/full_matrix.h</text>
</a>
</g>
</g>
<!-- Node1&#45;&gt;Node40 -->
<g id="edge54_Node000001_Node000040" class="edge">
<title>Node1&#45;&gt;Node40</title>
<g id="a_edge54_Node000001_Node000040"><a xlink:title=" ">
<path fill="none" stroke="#63b8ff" d="M2513.47,-439.81C2519.51,-429.57 2526.09,-416.59 2529.5,-404 2533.43,-389.48 2534.03,-372.43 2533.72,-359.65"/>
<polygon fill="#63b8ff" stroke="#63b8ff" points="2537.21,-359.15 2533.26,-349.31 2530.21,-359.46 2537.21,-359.15"/>
</a>
</g>
</g>
<!-- Node41 -->
<g id="Node000041" class="node">
<title>Node41</title>
<g id="a_Node000041"><a xlink:title=" ">
<polygon fill="#e0e0e0" stroke="#999999" points="2714.5,-404 2576.5,-404 2576.5,-385 2714.5,-385 2714.5,-404"/>
<text text-anchor="middle" x="2645.5" y="-392" font-family="Helvetica,sans-Serif" font-size="10.00">deal.II/base/exceptions.h</text>
</a>
</g>
</g>
<!-- Node1&#45;&gt;Node41 -->
<g id="edge53_Node000001_Node000041" class="edge">
<title>Node1&#45;&gt;Node41</title>
<g id="a_edge53_Node000001_Node000041"><a xlink:title=" ">
<path fill="none" stroke="#63b8ff" d="M2544.79,-439.95C2568.23,-429.6 2596.33,-417.2 2616.88,-408.13"/>
<polygon fill="#63b8ff" stroke="#63b8ff" points="2618.3,-411.33 2626.03,-404.09 2615.47,-404.93 2618.3,-411.33"/>
</a>
</g>
</g>
<!-- Node42 -->
<g id="Node000042" class="node">
<title>Node42</title>
<g id="a_Node000042"><a xlink:title=" ">
<polygon fill="#e0e0e0" stroke="#999999" points="2792,-404 2733,-404 2733,-385 2792,-385 2792,-404"/>
<text text-anchor="middle" x="2762.5" y="-392" font-family="Helvetica,sans-Serif" font-size="10.00">numbers</text>
</a>
</g>
</g>
<!-- Node1&#45;&gt;Node42 -->
<g id="edge55_Node000001_Node000042" class="edge">
<title>Node1&#45;&gt;Node42</title>
<g id="a_edge55_Node000001_Node000042"><a xlink:title=" ">
<path fill="none" stroke="#63b8ff" d="M2569.34,-442.68C2618.4,-430.7 2682.6,-415.02 2723.21,-405.1"/>
<polygon fill="#63b8ff" stroke="#63b8ff" points="2724.11,-408.48 2733,-402.71 2722.45,-401.68 2724.11,-408.48"/>
</a>
</g>
</g>
<!-- Node3 -->
<g id="Node000003" class="node">
<title>Node3</title>
<g id="a_Node000003"><a xlink:href="dimensionality_8h.html" target="_top" xlink:title=" ">
<polygon fill="white" stroke="#666666" points="675,-222.5 554,-222.5 554,-203.5 675,-203.5 675,-222.5"/>
<text text-anchor="middle" x="614.5" y="-210.5" font-family="Helvetica,sans-Serif" font-size="10.00">core/dimensionality.h</text>
</a>
</g>
</g>
<!-- Node2&#45;&gt;Node3 -->
<g id="edge2_Node000002_Node000003" class="edge">
<title>Node2&#45;&gt;Node3</title>
<g id="a_edge2_Node000002_Node000003"><a xlink:title=" ">
<path fill="none" stroke="#63b8ff" d="M1152.69,-329.98C1105.13,-321.38 1030.13,-307.48 965.5,-294 855.36,-271.03 726.57,-240.81 659.81,-224.89"/>
<polygon fill="#63b8ff" stroke="#63b8ff" points="660.57,-221.47 650.03,-222.55 658.94,-228.28 660.57,-221.47"/>
</a>
</g>
</g>
<!-- Node4 -->
<g id="Node000004" class="node">
<title>Node4</title>
<g id="a_Node000004"><a xlink:title=" ">
<polygon fill="#e0e0e0" stroke="#999999" points="127,-96 0,-96 0,-66 127,-66 127,-96"/>
<text text-anchor="start" x="8" y="-84" font-family="Helvetica,sans-Serif" font-size="10.00">deal.II/base/parameter</text>
<text text-anchor="middle" x="63.5" y="-73" font-family="Helvetica,sans-Serif" font-size="10.00">_handler.h</text>
</a>
</g>
</g>
<!-- Node2&#45;&gt;Node4 -->
<g id="edge46_Node000002_Node000004" class="edge">
<title>Node2&#45;&gt;Node4</title>
<g id="a_edge46_Node000002_Node000004"><a xlink:title=" ">
<path fill="none" stroke="#63b8ff" d="M1147.27,-334.05C1074.49,-327.54 940,-313.97 826.5,-294 551.9,-245.69 233.54,-140.88 113.08,-99.4"/>
<polygon fill="#63b8ff" stroke="#63b8ff" points="113.99,-96.01 103.4,-96.06 111.71,-102.63 113.99,-96.01"/>
</a>
</g>
</g>
<!-- Node5 -->
<g id="Node000005" class="node">
<title>Node5</title>
<g id="a_Node000005"><a xlink:href="ib__particle_8h.html" target="_top" xlink:title=" ">
<polygon fill="white" stroke="#666666" points="1363,-288.5 1262,-288.5 1262,-269.5 1363,-269.5 1363,-288.5"/>
<text text-anchor="middle" x="1312.5" y="-276.5" font-family="Helvetica,sans-Serif" font-size="10.00">core/ib_particle.h</text>
</a>
</g>
</g>
<!-- Node2&#45;&gt;Node5 -->
<g id="edge4_Node000002_Node000005" class="edge">
<title>Node2&#45;&gt;Node5</title>
<g id="a_edge4_Node000002_Node000005"><a xlink:title=" ">
<path fill="none" stroke="#63b8ff" d="M1217.03,-329.87C1235.47,-320.23 1265.54,-304.53 1287.01,-293.31"/>
<polygon fill="#63b8ff" stroke="#63b8ff" points="1288.66,-296.4 1295.91,-288.67 1285.42,-290.19 1288.66,-296.4"/>
</a>
</g>
</g>
<!-- Node13 -->
<g id="Node000013" class="node">
<title>Node13</title>
<g id="a_Node000013"><a xlink:href="core_2utilities_8h.html" target="_top" xlink:title=" ">
<polygon fill="white" stroke="#666666" points="566.5,-156.5 480.5,-156.5 480.5,-137.5 566.5,-137.5 566.5,-156.5"/>
<text text-anchor="middle" x="523.5" y="-144.5" font-family="Helvetica,sans-Serif" font-size="10.00">core/utilities.h</text>
</a>
</g>
</g>
<!-- Node2&#45;&gt;Node13 -->
<g id="edge45_Node000002_Node000013" class="edge">
<title>Node2&#45;&gt;Node13</title>
<g id="a_edge45_Node000002_Node000013"><a xlink:title=" ">
<path fill="none" stroke="#63b8ff" d="M1170.1,-329.94C1060.73,-299.17 687.32,-194.1 563.65,-159.3"/>
<polygon fill="#63b8ff" stroke="#63b8ff" points="564.39,-155.87 553.82,-156.53 562.5,-162.61 564.39,-155.87"/>
</a>
</g>
</g>
<!-- Node36 -->
<g id="Node000036" class="node">
<title>Node36</title>
<g id="a_Node000036"><a xlink:title=" ">
<polygon fill="#e0e0e0" stroke="#999999" points="1255,-228 1146,-228 1146,-198 1255,-198 1255,-228"/>
<text text-anchor="start" x="1154" y="-216" font-family="Helvetica,sans-Serif" font-size="10.00">deal.II/base/parsed</text>
<text text-anchor="middle" x="1200.5" y="-205" font-family="Helvetica,sans-Serif" font-size="10.00">_function.h</text>
</a>
</g>
</g>
<!-- Node2&#45;&gt;Node36 -->
<g id="edge47_Node000002_Node000036" class="edge">
<title>Node2&#45;&gt;Node36</title>
<g id="a_edge47_Node000002_Node000036"><a xlink:title=" ">
<path fill="none" stroke="#63b8ff" d="M1200.5,-329.94C1200.5,-311.32 1200.5,-266.53 1200.5,-238.39"/>
<polygon fill="#63b8ff" stroke="#63b8ff" points="1204,-238.16 1200.5,-228.16 1197,-238.16 1204,-238.16"/>
</a>
</g>
</g>
<!-- Node37 -->
<g id="Node000037" class="node">
<title>Node37</title>
<g id="a_Node000037"><a xlink:href="multiphysics_8h.html" target="_top" xlink:title="Identifiers for multiphysics modules and their solution fields.">
<polygon fill="white" stroke="#666666" points="1493.5,-288.5 1381.5,-288.5 1381.5,-269.5 1493.5,-269.5 1493.5,-288.5"/>
<text text-anchor="middle" x="1437.5" y="-276.5" font-family="Helvetica,sans-Serif" font-size="10.00">core/multiphysics.h</text>
</a>
</g>
</g>
<!-- Node2&#45;&gt;Node37 -->
<g id="edge44_Node000002_Node000037" class="edge">
<title>Node2&#45;&gt;Node37</title>
<g id="a_edge44_Node000002_Node000037"><a xlink:title=" ">
<path fill="none" stroke="#63b8ff" d="M1234.96,-329.99C1276.74,-319.68 1347.22,-302.28 1393.04,-290.97"/>
<polygon fill="#63b8ff" stroke="#63b8ff" points="1394.13,-294.31 1403,-288.52 1392.45,-287.52 1394.13,-294.31"/>
</a>
</g>
</g>
<!-- Node38 -->
<g id="Node000038" class="node">
<title>Node38</title>
<g id="a_Node000038"><a xlink:title=" ">
<polygon fill="#e0e0e0" stroke="#999999" points="386,-294 223,-294 223,-264 386,-264 386,-294"/>
<text text-anchor="start" x="231" y="-282" font-family="Helvetica,sans-Serif" font-size="10.00">deal.II/multigrid/mg</text>
<text text-anchor="middle" x="304.5" y="-271" font-family="Helvetica,sans-Serif" font-size="10.00">_transfer_global_coarsening.h</text>
</a>
</g>
</g>
<!-- Node2&#45;&gt;Node38 -->
<g id="edge48_Node000002_Node000038" class="edge">
<title>Node2&#45;&gt;Node38</title>
<g id="a_edge48_Node000002_Node000038"><a xlink:title=" ">
<path fill="none" stroke="#63b8ff" d="M1147.48,-337.19C1019.04,-333.65 681.12,-322.21 400.5,-294 399.18,-293.87 397.85,-293.73 396.51,-293.59"/>
<polygon fill="#63b8ff" stroke="#63b8ff" points="396.47,-290.06 386.14,-292.41 395.68,-297.02 396.47,-290.06"/>
</a>
</g>
</g>
<!-- Node3&#45;&gt;Node4 -->
<g id="edge3_Node000003_Node000004" class="edge">
<title>Node3&#45;&gt;Node4</title>
<g id="a_edge3_Node000003_Node000004"><a xlink:title=" ">
<path fill="none" stroke="#63b8ff" d="M582.24,-203.46C552.56,-194.98 507.79,-180.56 471.5,-162 450.75,-151.39 450.26,-140.34 428.5,-132 309.38,-86.36 267.71,-114.85 137.13,-95.98"/>
<polygon fill="#63b8ff" stroke="#63b8ff" points="137.57,-92.5 127.16,-94.47 136.52,-99.42 137.57,-92.5"/>
</a>
</g>
</g>
<!-- Node6 -->
<g id="Node000006" class="node">
<title>Node6</title>
<g id="a_Node000006"><a xlink:href="dem__properties_8h.html" target="_top" xlink:title="DEM particle property definitions and output name management.">
<polygon fill="white" stroke="#666666" points="2254.5,-156.5 2128.5,-156.5 2128.5,-137.5 2254.5,-137.5 2254.5,-156.5"/>
<text text-anchor="middle" x="2191.5" y="-144.5" font-family="Helvetica,sans-Serif" font-size="10.00">core/dem_properties.h</text>
</a>
</g>
</g>
<!-- Node5&#45;&gt;Node6 -->
<g id="edge5_Node000005_Node000006" class="edge">
<title>Node5&#45;&gt;Node6</title>
<g id="a_edge5_Node000005_Node000006"><a xlink:title=" ">
<path fill="none" stroke="#63b8ff" d="M1346.65,-269.45C1355.07,-267.5 1364.08,-265.55 1372.5,-264 1702.02,-203.2 1788.91,-216.67 2119.5,-162 2126.08,-160.91 2132.99,-159.68 2139.81,-158.41"/>
<polygon fill="#63b8ff" stroke="#63b8ff" points="2140.52,-161.84 2149.69,-156.54 2139.22,-154.96 2140.52,-161.84"/>
</a>
</g>
</g>
<!-- Node5&#45;&gt;Node8 -->
<g id="edge43_Node000005_Node000008" class="edge">
<title>Node5&#45;&gt;Node8</title>
<g id="a_edge43_Node000005_Node000008"><a xlink:title=" ">
<path fill="none" stroke="#63b8ff" d="M1344.38,-269.49C1353.41,-267.37 1363.29,-265.33 1372.5,-264 1648.32,-224.19 1722.66,-267.69 1998.5,-228 2126.77,-209.55 2181.56,-243.27 2282.5,-162 2301.83,-146.44 2311.89,-118.69 2316.69,-100.32"/>
<polygon fill="#63b8ff" stroke="#63b8ff" points="2320.11,-101.05 2318.98,-90.51 2313.3,-99.45 2320.11,-101.05"/>
</a>
</g>
</g>
<!-- Node9 -->
<g id="Node000009" class="node">
<title>Node9</title>
<g id="a_Node000009"><a xlink:href="shape_8h.html" target="_top" xlink:title=" ">
<polygon fill="white" stroke="#666666" points="1352,-222.5 1273,-222.5 1273,-203.5 1352,-203.5 1352,-222.5"/>
<text text-anchor="middle" x="1312.5" y="-210.5" font-family="Helvetica,sans-Serif" font-size="10.00">core/shape.h</text>
</a>
</g>
</g>
<!-- Node5&#45;&gt;Node9 -->
<g id="edge8_Node000005_Node000009" class="edge">
<title>Node5&#45;&gt;Node9</title>
<g id="a_edge8_Node000005_Node000009"><a xlink:title=" ">
<path fill="none" stroke="#63b8ff" d="M1312.5,-269.37C1312.5,-260.16 1312.5,-245.29 1312.5,-233.27"/>
<polygon fill="#63b8ff" stroke="#63b8ff" points="1316,-232.91 1312.5,-222.91 1309,-232.91 1316,-232.91"/>
</a>
</g>
</g>
<!-- Node11 -->
<g id="Node000011" class="node">
<title>Node11</title>
<g id="a_Node000011"><a xlink:title=" ">
<polygon fill="#e0e0e0" stroke="#999999" points="2089.5,-90.5 1979.5,-90.5 1979.5,-71.5 2089.5,-71.5 2089.5,-90.5"/>
<text text-anchor="middle" x="2034.5" y="-78.5" font-family="Helvetica,sans-Serif" font-size="10.00">deal.II/base/point.h</text>
</a>
</g>
</g>
<!-- Node5&#45;&gt;Node11 -->
<g id="edge42_Node000005_Node000011" class="edge">
<title>Node5&#45;&gt;Node11</title>
<g id="a_edge42_Node000005_Node000011"><a xlink:title=" ">
<path fill="none" stroke="#63b8ff" d="M1345.67,-269.43C1354.35,-267.42 1363.74,-265.44 1372.5,-264 1536.85,-237.02 1579.99,-246.53 1745.5,-228 1976.14,-202.18 2110.11,-336.17 2263.5,-162 2312.91,-105.89 2183.66,-89.13 2099.78,-84.13"/>
<polygon fill="#63b8ff" stroke="#63b8ff" points="2099.97,-80.63 2089.79,-83.57 2099.58,-87.62 2099.97,-80.63"/>
</a>
</g>
</g>
<!-- Node5&#45;&gt;Node36 -->
<g id="edge41_Node000005_Node000036" class="edge">
<title>Node5&#45;&gt;Node36</title>
<g id="a_edge41_Node000005_Node000036"><a xlink:title=" ">
<path fill="none" stroke="#63b8ff" d="M1297.4,-269.37C1281.27,-260.16 1255.2,-245.26 1234.16,-233.24"/>
<polygon fill="#63b8ff" stroke="#63b8ff" points="1235.62,-230.04 1225.2,-228.12 1232.15,-236.12 1235.62,-230.04"/>
</a>
</g>
</g>
<!-- Node7 -->
<g id="Node000007" class="node">
<title>Node7</title>
<g id="a_Node000007"><a xlink:title=" ">
<polygon fill="#e0e0e0" stroke="#999999" points="1872.5,-90.5 1828.5,-90.5 1828.5,-71.5 1872.5,-71.5 1872.5,-90.5"/>
<text text-anchor="middle" x="1850.5" y="-78.5" font-family="Helvetica,sans-Serif" font-size="10.00">string</text>
</a>
</g>
</g>
<!-- Node6&#45;&gt;Node7 -->
<g id="edge6_Node000006_Node000007" class="edge">
<title>Node6&#45;&gt;Node7</title>
<g id="a_edge6_Node000006_Node000007"><a xlink:title=" ">
<path fill="none" stroke="#63b8ff" d="M2147.72,-137.43C2138.41,-135.62 2128.63,-133.74 2119.5,-132 2034.11,-115.76 1933.35,-97.19 1882.83,-87.92"/>
<polygon fill="#63b8ff" stroke="#63b8ff" points="1883.3,-84.45 1872.83,-86.09 1882.04,-91.33 1883.3,-84.45"/>
</a>
</g>
</g>
<!-- Node6&#45;&gt;Node8 -->
<g id="edge7_Node000006_Node000008" class="edge">
<title>Node6&#45;&gt;Node8</title>
<g id="a_edge7_Node000006_Node000008"><a xlink:title=" ">
<path fill="none" stroke="#63b8ff" d="M2208.9,-137.37C2230.73,-126.54 2268.39,-107.85 2293.86,-95.22"/>
<polygon fill="#63b8ff" stroke="#63b8ff" points="2295.56,-98.28 2302.97,-90.7 2292.45,-92.01 2295.56,-98.28"/>
</a>
</g>
</g>
<!-- Node10 -->
<g id="Node000010" class="node">
<title>Node10</title>
<g id="a_Node000010"><a xlink:href="tensors__and__points__dimension__manipulation_8h.html" target="_top" xlink:title=" ">
<polygon fill="white" stroke="#666666" points="2110.5,-162 1958.5,-162 1958.5,-132 2110.5,-132 2110.5,-162"/>
<text text-anchor="start" x="1966.5" y="-150" font-family="Helvetica,sans-Serif" font-size="10.00">core/tensors_and_points</text>
<text text-anchor="middle" x="2034.5" y="-139" font-family="Helvetica,sans-Serif" font-size="10.00">_dimension_manipulation.h</text>
</a>
</g>
</g>
<!-- Node9&#45;&gt;Node10 -->
<g id="edge9_Node000009_Node000010" class="edge">
<title>Node9&#45;&gt;Node10</title>
<g id="a_edge9_Node000009_Node000010"><a xlink:title=" ">
<path fill="none" stroke="#63b8ff" d="M1352.12,-210.06C1450.99,-204.98 1716.63,-189.77 1948.13,-162.1"/>
<polygon fill="#63b8ff" stroke="#63b8ff" points="1948.58,-165.57 1958.09,-160.9 1947.74,-158.62 1948.58,-165.57"/>
</a>
</g>
</g>
<!-- Node9&#45;&gt;Node13 -->
<g id="edge12_Node000009_Node000013" class="edge">
<title>Node9&#45;&gt;Node13</title>
<g id="a_edge12_Node000009_Node000013"><a xlink:title=" ">
<path fill="none" stroke="#63b8ff" d="M1287.35,-203.48C1280.06,-201.33 1272.03,-199.28 1264.5,-198 962.18,-146.73 878.34,-210.13 575.5,-162 570.68,-161.23 565.65,-160.2 560.72,-159.03"/>
<polygon fill="#63b8ff" stroke="#63b8ff" points="561.35,-155.58 550.79,-156.51 559.62,-162.36 561.35,-155.58"/>
</a>
</g>
</g>
<!-- Node18 -->
<g id="Node000018" class="node">
<title>Node18</title>
<g id="a_Node000018"><a xlink:title=" ">
<polygon fill="#e0e0e0" stroke="#999999" points="1368.5,-90.5 1228.5,-90.5 1228.5,-71.5 1368.5,-71.5 1368.5,-90.5"/>
<text text-anchor="middle" x="1298.5" y="-78.5" font-family="Helvetica,sans-Serif" font-size="10.00">deal.II/dofs/dof_handler.h</text>
</a>
</g>
</g>
<!-- Node9&#45;&gt;Node18 -->
<g id="edge36_Node000009_Node000018" class="edge">
<title>Node9&#45;&gt;Node18</title>
<g id="a_edge36_Node000009_Node000018"><a xlink:title=" ">
<path fill="none" stroke="#63b8ff" d="M1315.26,-203.5C1319.63,-188.78 1327.12,-157.67 1321.5,-132 1319.04,-120.76 1313.8,-109.03 1308.95,-99.76"/>
<polygon fill="#63b8ff" stroke="#63b8ff" points="1311.89,-97.85 1303.98,-90.8 1305.77,-101.24 1311.89,-97.85"/>
</a>
</g>
</g>
<!-- Node26 -->
<g id="Node000026" class="node">
<title>Node26</title>
<g id="a_Node000026"><a xlink:title=" ">
<polygon fill="#e0e0e0" stroke="#999999" points="1520.5,-162 1368.5,-162 1368.5,-132 1520.5,-132 1520.5,-162"/>
<text text-anchor="start" x="1376.5" y="-150" font-family="Helvetica,sans-Serif" font-size="10.00">deal.II/base/auto_derivative</text>
<text text-anchor="middle" x="1444.5" y="-139" font-family="Helvetica,sans-Serif" font-size="10.00">_function.h</text>
</a>
</g>
</g>
<!-- Node9&#45;&gt;Node26 -->
<g id="edge30_Node000009_Node000026" class="edge">
<title>Node9&#45;&gt;Node26</title>
<g id="a_edge30_Node000009_Node000026"><a xlink:title=" ">
<path fill="none" stroke="#63b8ff" d="M1330.3,-203.37C1349.65,-193.99 1381.14,-178.72 1406.15,-166.59"/>
<polygon fill="#63b8ff" stroke="#63b8ff" points="1407.92,-169.63 1415.39,-162.12 1404.86,-163.33 1407.92,-169.63"/>
</a>
</g>
</g>
<!-- Node27 -->
<g id="Node000027" class="node">
<title>Node27</title>
<g id="a_Node000027"><a xlink:title=" ">
<polygon fill="#e0e0e0" stroke="#999999" points="1664,-156.5 1539,-156.5 1539,-137.5 1664,-137.5 1664,-156.5"/>
<text text-anchor="middle" x="1601.5" y="-144.5" font-family="Helvetica,sans-Serif" font-size="10.00">deal.II/base/function.h</text>
</a>
</g>
</g>
<!-- Node9&#45;&gt;Node27 -->
<g id="edge31_Node000009_Node000027" class="edge">
<title>Node9&#45;&gt;Node27</title>
<g id="a_edge31_Node000009_Node000027"><a xlink:title=" ">
<path fill="none" stroke="#63b8ff" d="M1351.18,-203.44C1403.41,-191.87 1496.49,-171.26 1553.24,-158.69"/>
<polygon fill="#63b8ff" stroke="#63b8ff" points="1554.05,-162.09 1563.05,-156.51 1552.53,-155.26 1554.05,-162.09"/>
</a>
</g>
</g>
<!-- Node28 -->
<g id="Node000028" class="node">
<title>Node28</title>
<g id="a_Node000028"><a xlink:title=" ">
<polygon fill="#e0e0e0" stroke="#999999" points="1806.5,-156.5 1682.5,-156.5 1682.5,-137.5 1806.5,-137.5 1806.5,-156.5"/>
<text text-anchor="middle" x="1744.5" y="-144.5" font-family="Helvetica,sans-Serif" font-size="10.00">deal.II/grid/manifold.h</text>
</a>
</g>
</g>
<!-- Node9&#45;&gt;Node28 -->
<g id="edge32_Node000009_Node000028" class="edge">
<title>Node9&#45;&gt;Node28</title>
<g id="a_edge32_Node000009_Node000028"><a xlink:title=" ">
<path fill="none" stroke="#63b8ff" d="M1352.14,-207.26C1418.72,-199.13 1557.12,-181.52 1673.5,-162 1679.84,-160.94 1686.49,-159.74 1693.06,-158.5"/>
<polygon fill="#63b8ff" stroke="#63b8ff" points="1694.11,-161.86 1703.27,-156.54 1692.79,-154.99 1694.11,-161.86"/>
</a>
</g>
</g>
<!-- Node29 -->
<g id="Node000029" class="node">
<title>Node29</title>
<g id="a_Node000029"><a xlink:title=" ">
<polygon fill="#e0e0e0" stroke="#999999" points="1940,-162 1825,-162 1825,-132 1940,-132 1940,-162"/>
<text text-anchor="start" x="1833" y="-150" font-family="Helvetica,sans-Serif" font-size="10.00">deal.II/grid/manifold</text>
<text text-anchor="middle" x="1882.5" y="-139" font-family="Helvetica,sans-Serif" font-size="10.00">_lib.h</text>
</a>
</g>
</g>
<!-- Node9&#45;&gt;Node29 -->
<g id="edge33_Node000009_Node000029" class="edge">
<title>Node9&#45;&gt;Node29</title>
<g id="a_edge33_Node000009_Node000029"><a xlink:title=" ">
<path fill="none" stroke="#63b8ff" d="M1352.13,-209.51C1435.72,-203.94 1636.35,-188.94 1814.74,-162"/>
<polygon fill="#63b8ff" stroke="#63b8ff" points="1815.47,-165.43 1824.83,-160.46 1814.41,-158.51 1815.47,-165.43"/>
</a>
</g>
</g>
<!-- Node30 -->
<g id="Node000030" class="node">
<title>Node30</title>
<g id="a_Node000030"><a xlink:title=" ">
<polygon fill="#e0e0e0" stroke="#999999" points="700,-162 585,-162 585,-132 700,-132 700,-162"/>
<text text-anchor="start" x="593" y="-150" font-family="Helvetica,sans-Serif" font-size="10.00">boost/range/adaptor</text>
<text text-anchor="middle" x="642.5" y="-139" font-family="Helvetica,sans-Serif" font-size="10.00">/map.hpp</text>
</a>
</g>
</g>
<!-- Node9&#45;&gt;Node30 -->
<g id="edge34_Node000009_Node000030" class="edge">
<title>Node9&#45;&gt;Node30</title>
<g id="a_edge34_Node000009_Node000030"><a xlink:title=" ">
<path fill="none" stroke="#63b8ff" d="M1287.09,-203.46C1279.86,-201.35 1271.94,-199.31 1264.5,-198 1024.27,-155.7 956.21,-194.32 710.11,-161.92"/>
<polygon fill="#63b8ff" stroke="#63b8ff" points="710.53,-158.45 700.15,-160.59 709.6,-165.39 710.53,-158.45"/>
</a>
</g>
</g>
<!-- Node31 -->
<g id="Node000031" class="node">
<title>Node31</title>
<g id="a_Node000031"><a xlink:title=" ">
<polygon fill="#e0e0e0" stroke="#999999" points="834.5,-162 718.5,-162 718.5,-132 834.5,-132 834.5,-162"/>
<text text-anchor="start" x="726.5" y="-150" font-family="Helvetica,sans-Serif" font-size="10.00">deal.II/base/function</text>
<text text-anchor="middle" x="776.5" y="-139" font-family="Helvetica,sans-Serif" font-size="10.00">_signed_distance.h</text>
</a>
</g>
</g>
<!-- Node9&#45;&gt;Node31 -->
<g id="edge35_Node000009_Node000031" class="edge">
<title>Node9&#45;&gt;Node31</title>
<g id="a_edge35_Node000009_Node000031"><a xlink:title=" ">
<path fill="none" stroke="#63b8ff" d="M1286.82,-203.49C1279.66,-201.4 1271.84,-199.37 1264.5,-198 1083.14,-164.15 1031.13,-188.37 844.67,-162.04"/>
<polygon fill="#63b8ff" stroke="#63b8ff" points="844.93,-158.54 834.53,-160.57 843.93,-165.46 844.93,-158.54"/>
</a>
</g>
</g>
<!-- Node32 -->
<g id="Node000032" class="node">
<title>Node32</title>
<g id="a_Node000032"><a xlink:title=" ">
<polygon fill="#e0e0e0" stroke="#999999" points="980.5,-156.5 852.5,-156.5 852.5,-137.5 980.5,-137.5 980.5,-156.5"/>
<text text-anchor="middle" x="916.5" y="-144.5" font-family="Helvetica,sans-Serif" font-size="10.00">deal.II/dofs/dof_tools.h</text>
</a>
</g>
</g>
<!-- Node9&#45;&gt;Node32 -->
<g id="edge37_Node000009_Node000032" class="edge">
<title>Node9&#45;&gt;Node32</title>
<g id="a_edge37_Node000009_Node000032"><a xlink:title=" ">
<path fill="none" stroke="#63b8ff" d="M1286.03,-203.49C1279.08,-201.47 1271.55,-199.48 1264.5,-198 1143.87,-172.67 1111.19,-181.62 989.5,-162 982.82,-160.92 975.82,-159.7 968.91,-158.44"/>
<polygon fill="#63b8ff" stroke="#63b8ff" points="969.36,-154.96 958.89,-156.57 968.08,-161.84 969.36,-154.96"/>
</a>
</g>
</g>
<!-- Node33 -->
<g id="Node000033" class="node">
<title>Node33</title>
<g id="a_Node000033"><a xlink:title=" ">
<polygon fill="#e0e0e0" stroke="#999999" points="1174.5,-156.5 998.5,-156.5 998.5,-137.5 1174.5,-137.5 1174.5,-156.5"/>
<text text-anchor="middle" x="1086.5" y="-144.5" font-family="Helvetica,sans-Serif" font-size="10.00">deal.II/physics/transformations.h</text>
</a>
</g>
</g>
<!-- Node9&#45;&gt;Node33 -->
<g id="edge38_Node000009_Node000033" class="edge">
<title>Node9&#45;&gt;Node33</title>
<g id="a_edge38_Node000009_Node000033"><a xlink:title=" ">
<path fill="none" stroke="#63b8ff" d="M1283.32,-203.44C1277.11,-201.63 1270.59,-199.74 1264.5,-198 1217.39,-184.51 1163.18,-169.33 1127.08,-159.27"/>
<polygon fill="#63b8ff" stroke="#63b8ff" points="1127.97,-155.89 1117.4,-156.58 1126.09,-162.63 1127.97,-155.89"/>
</a>
</g>
</g>
<!-- Node34 -->
<g id="Node000034" class="node">
<title>Node34</title>
<g id="a_Node000034"><a xlink:title=" ">
<polygon fill="#e0e0e0" stroke="#999999" points="1236.5,-156.5 1192.5,-156.5 1192.5,-137.5 1236.5,-137.5 1236.5,-156.5"/>
<text text-anchor="middle" x="1214.5" y="-144.5" font-family="Helvetica,sans-Serif" font-size="10.00">cfloat</text>
</a>
</g>
</g>
<!-- Node9&#45;&gt;Node34 -->
<g id="edge39_Node000009_Node000034" class="edge">
<title>Node9&#45;&gt;Node34</title>
<g id="a_edge39_Node000009_Node000034"><a xlink:title=" ">
<path fill="none" stroke="#63b8ff" d="M1299.28,-203.37C1283.14,-192.82 1255.59,-174.84 1236.29,-162.23"/>
<polygon fill="#63b8ff" stroke="#63b8ff" points="1238.11,-159.24 1227.82,-156.7 1234.28,-165.1 1238.11,-159.24"/>
</a>
</g>
</g>
<!-- Node35 -->
<g id="Node000035" class="node">
<title>Node35</title>
<g id="a_Node000035"><a xlink:title=" ">
<polygon fill="#e0e0e0" stroke="#999999" points="1312.5,-156.5 1254.5,-156.5 1254.5,-137.5 1312.5,-137.5 1312.5,-156.5"/>
<text text-anchor="middle" x="1283.5" y="-144.5" font-family="Helvetica,sans-Serif" font-size="10.00">memory</text>
</a>
</g>
</g>
<!-- Node9&#45;&gt;Node35 -->
<g id="edge40_Node000009_Node000035" class="edge">
<title>Node9&#45;&gt;Node35</title>
<g id="a_edge40_Node000009_Node000035"><a xlink:title=" ">
<path fill="none" stroke="#63b8ff" d="M1308.59,-203.37C1304.29,-193.88 1297.26,-178.36 1291.73,-166.16"/>
<polygon fill="#63b8ff" stroke="#63b8ff" points="1294.85,-164.57 1287.54,-156.91 1288.47,-167.46 1294.85,-164.57"/>
</a>
</g>
</g>
<!-- Node10&#45;&gt;Node11 -->
<g id="edge10_Node000010_Node000011" class="edge">
<title>Node10&#45;&gt;Node11</title>
<g id="a_edge10_Node000010_Node000011"><a xlink:title=" ">
<path fill="none" stroke="#63b8ff" d="M2034.5,-131.8C2034.5,-122.7 2034.5,-110.79 2034.5,-100.9"/>
<polygon fill="#63b8ff" stroke="#63b8ff" points="2038,-100.84 2034.5,-90.84 2031,-100.84 2038,-100.84"/>
</a>
</g>
</g>
<!-- Node12 -->
<g id="Node000012" class="node">
<title>Node12</title>
<g id="a_Node000012"><a xlink:title=" ">
<polygon fill="#e0e0e0" stroke="#999999" points="1633,-90.5 1518,-90.5 1518,-71.5 1633,-71.5 1633,-90.5"/>
<text text-anchor="middle" x="1575.5" y="-78.5" font-family="Helvetica,sans-Serif" font-size="10.00">deal.II/base/tensor.h</text>
</a>
</g>
</g>
<!-- Node10&#45;&gt;Node12 -->
<g id="edge11_Node000010_Node000012" class="edge">
<title>Node10&#45;&gt;Node12</title>
<g id="a_edge11_Node000010_Node000012"><a xlink:title=" ">
<path fill="none" stroke="#63b8ff" d="M1958.06,-133.3C1955.17,-132.85 1952.31,-132.42 1949.5,-132 1842.76,-116.08 1718.51,-99.94 1643.49,-90.46"/>
<polygon fill="#63b8ff" stroke="#63b8ff" points="1643.6,-86.95 1633.24,-89.17 1642.72,-93.89 1643.6,-86.95"/>
</a>
</g>
</g>
<!-- Node13&#45;&gt;Node4 -->
<g id="edge16_Node000013_Node000004" class="edge">
<title>Node13&#45;&gt;Node4</title>
<g id="a_edge16_Node000013_Node000004"><a xlink:title=" ">
<path fill="none" stroke="#63b8ff" d="M492,-137.48C483.75,-135.46 474.83,-133.47 466.5,-132 324.47,-106.92 284.2,-117.41 137.44,-96.04"/>
<polygon fill="#63b8ff" stroke="#63b8ff" points="137.55,-92.52 127.15,-94.52 136.53,-99.45 137.55,-92.52"/>
</a>
</g>
</g>
<!-- Node13&#45;&gt;Node7 -->
<g id="edge27_Node000013_Node000007" class="edge">
<title>Node13&#45;&gt;Node7</title>
<g id="a_edge27_Node000013_Node000007"><a xlink:title=" ">
<path fill="none" stroke="#63b8ff" d="M550.51,-137.47C558.48,-135.3 567.27,-133.23 575.5,-132 810.14,-96.93 1405.56,-107.97 1642.5,-96 1704.72,-92.86 1777.3,-87.61 1818.18,-84.51"/>
<polygon fill="#63b8ff" stroke="#63b8ff" points="1818.65,-87.99 1828.35,-83.74 1818.11,-81.01 1818.65,-87.99"/>
</a>
</g>
</g>
<!-- Node13&#45;&gt;Node8 -->
<g id="edge29_Node000013_Node000008" class="edge">
<title>Node13&#45;&gt;Node8</title>
<g id="a_edge29_Node000013_Node000008"><a xlink:title=" ">
<path fill="none" stroke="#63b8ff" d="M550.23,-137.49C558.27,-135.29 567.17,-133.2 575.5,-132 910.57,-83.65 1760.28,-110.66 2098.5,-96 2165.33,-93.1 2243.36,-87.72 2286.84,-84.54"/>
<polygon fill="#63b8ff" stroke="#63b8ff" points="2287.14,-88.02 2296.86,-83.8 2286.63,-81.04 2287.14,-88.02"/>
</a>
</g>
</g>
<!-- Node13&#45;&gt;Node11 -->
<g id="edge17_Node000013_Node000011" class="edge">
<title>Node13&#45;&gt;Node11</title>
<g id="a_edge17_Node000013_Node000011"><a xlink:title=" ">
<path fill="none" stroke="#63b8ff" d="M550.5,-137.44C558.47,-135.26 567.27,-133.2 575.5,-132 862.77,-89.97 1591.68,-113.24 1881.5,-96 1910.3,-94.29 1942.09,-91.52 1969.19,-88.9"/>
<polygon fill="#63b8ff" stroke="#63b8ff" points="1969.72,-92.36 1979.33,-87.9 1969.03,-85.4 1969.72,-92.36"/>
</a>
</g>
</g>
<!-- Node13&#45;&gt;Node12 -->
<g id="edge19_Node000013_Node000012" class="edge">
<title>Node13&#45;&gt;Node12</title>
<g id="a_edge19_Node000013_Node000012"><a xlink:title=" ">
<path fill="none" stroke="#63b8ff" d="M550.79,-137.46C558.68,-135.31 567.37,-133.26 575.5,-132 928.08,-77.3 1021.29,-116.58 1377.5,-96 1420.92,-93.49 1469.66,-90.05 1507.92,-87.21"/>
<polygon fill="#63b8ff" stroke="#63b8ff" points="1508.2,-90.7 1517.91,-86.46 1507.68,-83.72 1508.2,-90.7"/>
</a>
</g>
</g>
<!-- Node14 -->
<g id="Node000014" class="node">
<title>Node14</title>
<g id="a_Node000014"><a xlink:href="output__struct_8h.html" target="_top" xlink:title=" ">
<polygon fill="#fff0f0" stroke="red" points="259.5,-90.5 145.5,-90.5 145.5,-71.5 259.5,-71.5 259.5,-90.5"/>
<text text-anchor="middle" x="202.5" y="-78.5" font-family="Helvetica,sans-Serif" font-size="10.00">core/output_struct.h</text>
</a>
</g>
</g>
<!-- Node13&#45;&gt;Node14 -->
<g id="edge13_Node000013_Node000014" class="edge">
<title>Node13&#45;&gt;Node14</title>
<g id="a_edge13_Node000013_Node000014"><a xlink:title=" ">
<path fill="none" stroke="#63b8ff" d="M490.12,-137.47C482.38,-135.58 474.17,-133.66 466.5,-132 381.21,-113.59 359.19,-112.44 273.5,-96 267.65,-94.88 261.53,-93.69 255.45,-92.5"/>
<polygon fill="#63b8ff" stroke="#63b8ff" points="255.77,-89 245.29,-90.51 254.43,-95.87 255.77,-89"/>
</a>
</g>
</g>
<!-- Node15 -->
<g id="Node000015" class="node">
<title>Node15</title>
<g id="a_Node000015"><a xlink:title=" ">
<polygon fill="#e0e0e0" stroke="#999999" points="295,-30 194,-30 194,0 295,0 295,-30"/>
<text text-anchor="start" x="202" y="-18" font-family="Helvetica,sans-Serif" font-size="10.00">deal.II/base/table</text>
<text text-anchor="middle" x="244.5" y="-7" font-family="Helvetica,sans-Serif" font-size="10.00">_handler.h</text>
</a>
</g>
</g>
<!-- Node13&#45;&gt;Node15 -->
<g id="edge18_Node000013_Node000015" class="edge">
<title>Node13&#45;&gt;Node15</title>
<g id="a_edge18_Node000013_Node000015"><a xlink:title=" ">
<path fill="none" stroke="#63b8ff" d="M489.16,-137.45C481.7,-135.63 473.84,-133.73 466.5,-132 395.55,-115.31 368.01,-135.11 306.5,-96 284.4,-81.95 267.02,-57.15 256.36,-38.87"/>
<polygon fill="#63b8ff" stroke="#63b8ff" points="259.33,-37.03 251.4,-30 253.22,-40.44 259.33,-37.03"/>
</a>
</g>
</g>
<!-- Node17 -->
<g id="Node000017" class="node">
<title>Node17</title>
<g id="a_Node000017"><a xlink:title=" ">
<polygon fill="#e0e0e0" stroke="#999999" points="445.5,-96 315.5,-96 315.5,-66 445.5,-66 445.5,-96"/>
<text text-anchor="start" x="323.5" y="-84" font-family="Helvetica,sans-Serif" font-size="10.00">deal.II/base/conditional</text>
<text text-anchor="middle" x="380.5" y="-73" font-family="Helvetica,sans-Serif" font-size="10.00">_ostream.h</text>
</a>
</g>
</g>
<!-- Node13&#45;&gt;Node17 -->
<g id="edge15_Node000013_Node000017" class="edge">
<title>Node13&#45;&gt;Node17</title>
<g id="a_edge15_Node000013_Node000017"><a xlink:title=" ">
<path fill="none" stroke="#63b8ff" d="M504.21,-137.37C483.07,-127.91 448.54,-112.45 421.33,-100.27"/>
<polygon fill="#63b8ff" stroke="#63b8ff" points="422.6,-97.01 412.04,-96.12 419.74,-103.4 422.6,-97.01"/>
</a>
</g>
</g>
<!-- Node13&#45;&gt;Node18 -->
<g id="edge20_Node000013_Node000018" class="edge">
<title>Node13&#45;&gt;Node18</title>
<g id="a_edge20_Node000013_Node000018"><a xlink:title=" ">
<path fill="none" stroke="#63b8ff" d="M551.07,-137.46C558.89,-135.34 567.47,-133.31 575.5,-132 839.61,-89 909.92,-119.26 1176.5,-96 1190.65,-94.77 1205.7,-93.22 1220.22,-91.62"/>
<polygon fill="#63b8ff" stroke="#63b8ff" points="1220.62,-95.1 1230.17,-90.5 1219.84,-88.14 1220.62,-95.1"/>
</a>
</g>
</g>
<!-- Node19 -->
<g id="Node000019" class="node">
<title>Node19</title>
<g id="a_Node000019"><a xlink:title=" ">
<polygon fill="#e0e0e0" stroke="#999999" points="583,-90.5 464,-90.5 464,-71.5 583,-71.5 583,-90.5"/>
<text text-anchor="middle" x="523.5" y="-78.5" font-family="Helvetica,sans-Serif" font-size="10.00">deal.II/fe/fe_values.h</text>
</a>
</g>
</g>
<!-- Node13&#45;&gt;Node19 -->
<g id="edge21_Node000013_Node000019" class="edge">
<title>Node13&#45;&gt;Node19</title>
<g id="a_edge21_Node000013_Node000019"><a xlink:title=" ">
<path fill="none" stroke="#63b8ff" d="M523.5,-137.37C523.5,-128.16 523.5,-113.29 523.5,-101.27"/>
<polygon fill="#63b8ff" stroke="#63b8ff" points="527,-100.91 523.5,-90.91 520,-100.91 527,-100.91"/>
</a>
</g>
</g>
<!-- Node20 -->
<g id="Node000020" class="node">
<title>Node20</title>
<g id="a_Node000020"><a xlink:title=" ">
<polygon fill="#e0e0e0" stroke="#999999" points="732,-96 601,-96 601,-66 732,-66 732,-96"/>
<text text-anchor="start" x="609" y="-84" font-family="Helvetica,sans-Serif" font-size="10.00">deal.II/particles/particle</text>
<text text-anchor="middle" x="666.5" y="-73" font-family="Helvetica,sans-Serif" font-size="10.00">_iterator.h</text>
</a>
</g>
</g>
<!-- Node13&#45;&gt;Node20 -->
<g id="edge22_Node000013_Node000020" class="edge">
<title>Node13&#45;&gt;Node20</title>
<g id="a_edge22_Node000013_Node000020"><a xlink:title=" ">
<path fill="none" stroke="#63b8ff" d="M542.79,-137.37C563.93,-127.91 598.46,-112.45 625.67,-100.27"/>
<polygon fill="#63b8ff" stroke="#63b8ff" points="627.26,-103.4 634.96,-96.12 624.4,-97.01 627.26,-103.4"/>
</a>
</g>
</g>
<!-- Node21 -->
<g id="Node000021" class="node">
<title>Node21</title>
<g id="a_Node000021"><a xlink:title=" ">
<polygon fill="#e0e0e0" stroke="#999999" points="855,-96 750,-96 750,-66 855,-66 855,-96"/>
<text text-anchor="start" x="758" y="-84" font-family="Helvetica,sans-Serif" font-size="10.00">boost/archive/text</text>
<text text-anchor="middle" x="802.5" y="-73" font-family="Helvetica,sans-Serif" font-size="10.00">_iarchive.hpp</text>
</a>
</g>
</g>
<!-- Node13&#45;&gt;Node21 -->
<g id="edge23_Node000013_Node000021" class="edge">
<title>Node13&#45;&gt;Node21</title>
<g id="a_edge23_Node000013_Node000021"><a xlink:title=" ">
<path fill="none" stroke="#63b8ff" d="M554.23,-137.46C561.21,-135.6 568.6,-133.68 575.5,-132 645.44,-114.97 665.59,-112.45 739.9,-96.12"/>
<polygon fill="#63b8ff" stroke="#63b8ff" points="740.73,-99.52 749.74,-93.94 739.22,-92.68 740.73,-99.52"/>
</a>
</g>
</g>
<!-- Node22 -->
<g id="Node000022" class="node">
<title>Node22</title>
<g id="a_Node000022"><a xlink:title=" ">
<polygon fill="#e0e0e0" stroke="#999999" points="978,-96 873,-96 873,-66 978,-66 978,-96"/>
<text text-anchor="start" x="881" y="-84" font-family="Helvetica,sans-Serif" font-size="10.00">boost/archive/text</text>
<text text-anchor="middle" x="925.5" y="-73" font-family="Helvetica,sans-Serif" font-size="10.00">_oarchive.hpp</text>
</a>
</g>
</g>
<!-- Node13&#45;&gt;Node22 -->
<g id="edge24_Node000013_Node000022" class="edge">
<title>Node13&#45;&gt;Node22</title>
<g id="a_edge24_Node000013_Node000022"><a xlink:title=" ">
<path fill="none" stroke="#63b8ff" d="M552.49,-137.43C559.94,-135.44 567.98,-133.48 575.5,-132 698.87,-107.8 734.63,-117.69 862.61,-96.03"/>
<polygon fill="#63b8ff" stroke="#63b8ff" points="863.55,-99.42 872.81,-94.27 862.36,-92.52 863.55,-99.42"/>
</a>
</g>
</g>
<!-- Node23 -->
<g id="Node000023" class="node">
<title>Node23</title>
<g id="a_Node000023"><a xlink:title=" ">
<polygon fill="#e0e0e0" stroke="#999999" points="1051,-90.5 996,-90.5 996,-71.5 1051,-71.5 1051,-90.5"/>
<text text-anchor="middle" x="1023.5" y="-78.5" font-family="Helvetica,sans-Serif" font-size="10.00">fstream</text>
</a>
</g>
</g>
<!-- Node13&#45;&gt;Node23 -->
<g id="edge25_Node000013_Node000023" class="edge">
<title>Node13&#45;&gt;Node23</title>
<g id="a_edge25_Node000013_Node000023"><a xlink:title=" ">
<path fill="none" stroke="#63b8ff" d="M551.63,-137.46C559.31,-135.39 567.67,-133.38 575.5,-132 756.5,-99.98 808.49,-137.73 987.5,-96 989.87,-95.45 992.29,-94.77 994.7,-94.02"/>
<polygon fill="#63b8ff" stroke="#63b8ff" points="996.13,-97.22 1004.39,-90.59 993.79,-90.62 996.13,-97.22"/>
</a>
</g>
</g>
<!-- Node24 -->
<g id="Node000024" class="node">
<title>Node24</title>
<g id="a_Node000024"><a xlink:title=" ">
<polygon fill="#e0e0e0" stroke="#999999" points="1107.5,-90.5 1069.5,-90.5 1069.5,-71.5 1107.5,-71.5 1107.5,-90.5"/>
<text text-anchor="middle" x="1088.5" y="-78.5" font-family="Helvetica,sans-Serif" font-size="10.00">map</text>
</a>
</g>
</g>
<!-- Node13&#45;&gt;Node24 -->
<g id="edge26_Node000013_Node000024" class="edge">
<title>Node13&#45;&gt;Node24</title>
<g id="a_edge26_Node000013_Node000024"><a xlink:title=" ">
<path fill="none" stroke="#63b8ff" d="M551.35,-137.46C559.1,-135.37 567.57,-133.35 575.5,-132 788.59,-95.74 852.12,-153.42 1060.5,-96 1061.94,-95.6 1063.4,-95.13 1064.84,-94.6"/>
<polygon fill="#63b8ff" stroke="#63b8ff" points="1066.36,-97.76 1074.11,-90.53 1063.54,-91.35 1066.36,-97.76"/>
</a>
</g>
</g>
<!-- Node25 -->
<g id="Node000025" class="node">
<title>Node25</title>
<g id="a_Node000025"><a xlink:title=" ">
<polygon fill="#e0e0e0" stroke="#999999" points="1167,-90.5 1126,-90.5 1126,-71.5 1167,-71.5 1167,-90.5"/>
<text text-anchor="middle" x="1146.5" y="-78.5" font-family="Helvetica,sans-Serif" font-size="10.00">tuple</text>
</a>
</g>
</g>
<!-- Node13&#45;&gt;Node25 -->
<g id="edge28_Node000013_Node000025" class="edge">
<title>Node13&#45;&gt;Node25</title>
<g id="a_edge28_Node000013_Node000025"><a xlink:title=" ">
<path fill="none" stroke="#63b8ff" d="M551.07,-137.5C558.9,-135.38 567.48,-133.33 575.5,-132 813.21,-92.49 883.11,-155.98 1116.5,-96 1118.18,-95.57 1119.89,-95.04 1121.59,-94.45"/>
<polygon fill="#63b8ff" stroke="#63b8ff" points="1123.12,-97.6 1131.03,-90.55 1120.45,-91.13 1123.12,-97.6"/>
</a>
</g>
</g>
<!-- Node14&#45;&gt;Node15 -->
<g id="edge14_Node000014_Node000015" class="edge">
<title>Node14&#45;&gt;Node15</title>
<g id="a_edge14_Node000014_Node000015"><a xlink:title=" ">
<path fill="none" stroke="#63b8ff" d="M208.16,-71.37C213.61,-63.08 222.07,-50.18 229.46,-38.92"/>
<polygon fill="#63b8ff" stroke="#63b8ff" points="232.52,-40.64 235.08,-30.36 226.66,-36.8 232.52,-40.64"/>
</a>
</g>
</g>
<!-- Node39&#45;&gt;Node2 -->
<g id="edge50_Node000039_Node000002" class="edge">
<title>Node39&#45;&gt;Node2</title>
<g id="a_edge50_Node000039_Node000002"><a xlink:title=" ">
<path fill="none" stroke="#63b8ff" d="M2386.58,-390.67C2168.03,-381.43 1477.12,-352.2 1263.84,-343.18"/>
<polygon fill="#63b8ff" stroke="#63b8ff" points="1263.89,-339.68 1253.75,-342.75 1263.59,-346.67 1263.89,-339.68"/>
</a>
</g>
</g>
<!-- Node39&#45;&gt;Node8 -->
<g id="edge52_Node000039_Node000008" class="edge">
<title>Node39&#45;&gt;Node8</title>
<g id="a_edge52_Node000039_Node000008"><a xlink:title=" ">
<path fill="none" stroke="#63b8ff" d="M2449.71,-384.86C2441.85,-366.14 2424.5,-320.27 2424.5,-280 2424.5,-280 2424.5,-280 2424.5,-212 2424.5,-160.44 2374,-117.61 2343.38,-96.38"/>
<polygon fill="#63b8ff" stroke="#63b8ff" points="2345.22,-93.4 2334.96,-90.74 2341.32,-99.22 2345.22,-93.4"/>
</a>
</g>
</g>
<!-- Node39&#45;&gt;Node40 -->
<g id="edge51_Node000039_Node000040" class="edge">
<title>Node39&#45;&gt;Node40</title>
<g id="a_edge51_Node000039_Node000040"><a xlink:title=" ">
<path fill="none" stroke="#63b8ff" d="M2466.19,-384.98C2478.33,-376.84 2496.86,-364.41 2511.25,-354.76"/>
<polygon fill="#63b8ff" stroke="#63b8ff" points="2513.22,-357.65 2519.58,-349.17 2509.32,-351.84 2513.22,-357.65"/>
</a>
</g>
</g>
</g>
</svg>
