<?xml version="1.0" encoding="UTF-8" standalone="no"?>
<!DOCTYPE svg PUBLIC "-//W3C//DTD SVG 1.1//EN"
 "http://www.w3.org/Graphics/SVG/1.1/DTD/svg11.dtd">
<!-- Generated by graphviz version 2.43.0 (0)
 -->
<!-- Title: /home/runner/work/lethe/lethe/source/core/serial_solid.cc Pages: 1 -->
<svg width="2234pt" height="489pt"
 viewBox="0.00 0.00 2234.00 489.00" xmlns="http://www.w3.org/2000/svg" xmlns:xlink="http://www.w3.org/1999/xlink">
<g id="graph0" class="graph" transform="scale(1 1) rotate(0) translate(4 485)">
<title>/home/runner/work/lethe/lethe/source/core/serial_solid.cc</title>
<!-- Node1 -->
<g id="Node000001" class="node">
<title>Node1</title>
<g id="a_Node000001"><a xlink:title=" ">
<polygon fill="#999999" stroke="#666666" points="1425.5,-481 1288.5,-481 1288.5,-440 1425.5,-440 1425.5,-481"/>
<text text-anchor="start" x="1296.5" y="-469" font-family="Helvetica,sans-Serif" font-size="10.00">/home/runner/work/lethe</text>
<text text-anchor="start" x="1296.5" y="-458" font-family="Helvetica,sans-Serif" font-size="10.00">/lethe/source/core/serial</text>
<text text-anchor="middle" x="1357" y="-447" font-family="Helvetica,sans-Serif" font-size="10.00">_solid.cc</text>
</a>
</g>
</g>
<!-- Node2 -->
<g id="Node000002" class="node">
<title>Node2</title>
<g id="a_Node000002"><a xlink:href="lethe__grid__tools_8h.html" target="_top" xlink:title=" ">
<polygon fill="white" stroke="#666666" points="172,-398.5 44,-398.5 44,-379.5 172,-379.5 172,-398.5"/>
<text text-anchor="middle" x="108" y="-386.5" font-family="Helvetica,sans-Serif" font-size="10.00">core/lethe_grid_tools.h</text>
</a>
</g>
</g>
<!-- Node1&#45;&gt;Node2 -->
<g id="edge1_Node000001_Node000002" class="edge">
<title>Node1&#45;&gt;Node2</title>
<g id="a_edge1_Node000001_Node000002"><a xlink:title=" ">
<path fill="none" stroke="#63b8ff" d="M1288.45,-459.36C1107.6,-458.33 602.87,-451.09 186,-404 177.55,-403.05 168.63,-401.74 159.97,-400.3"/>
<polygon fill="#63b8ff" stroke="#63b8ff" points="160.4,-396.82 149.95,-398.56 159.21,-403.72 160.4,-396.82"/>
</a>
</g>
</g>
<!-- Node14 -->
<g id="Node000014" class="node">
<title>Node14</title>
<g id="a_Node000014"><a xlink:title=" ">
<polygon fill="#e0e0e0" stroke="#999999" points="446,-24.5 336,-24.5 336,-5.5 446,-5.5 446,-24.5"/>
<text text-anchor="middle" x="391" y="-12.5" font-family="Helvetica,sans-Serif" font-size="10.00">deal.II/base/point.h</text>
</a>
</g>
</g>
<!-- Node1&#45;&gt;Node14 -->
<g id="edge48_Node000001_Node000014" class="edge">
<title>Node1&#45;&gt;Node14</title>
<g id="a_edge48_Node000001_Node000014"><a xlink:title=" ">
<path fill="none" stroke="#63b8ff" d="M1288.42,-460.36C1060.98,-461.48 339.18,-450.73 219,-272 157.03,-179.84 308.37,-68.98 368.06,-30.21"/>
<polygon fill="#63b8ff" stroke="#63b8ff" points="370.27,-32.95 376.81,-24.62 366.5,-27.06 370.27,-32.95"/>
</a>
</g>
</g>
<!-- Node27 -->
<g id="Node000027" class="node">
<title>Node27</title>
<g id="a_Node000027"><a xlink:title=" ">
<polygon fill="#e0e0e0" stroke="#999999" points="1250.5,-24.5 1195.5,-24.5 1195.5,-5.5 1250.5,-5.5 1250.5,-24.5"/>
<text text-anchor="middle" x="1223" y="-12.5" font-family="Helvetica,sans-Serif" font-size="10.00">fstream</text>
</a>
</g>
</g>
<!-- Node1&#45;&gt;Node27 -->
<g id="edge57_Node000001_Node000027" class="edge">
<title>Node1&#45;&gt;Node27</title>
<g id="a_edge57_Node000001_Node000027"><a xlink:title=" ">
<path fill="none" stroke="#63b8ff" d="M1288.37,-442.38C1268.42,-434.05 1248.63,-421.82 1236,-404 1199.74,-352.83 1223,-326.21 1223,-263.5 1223,-263.5 1223,-263.5 1223,-140.5 1223,-102.99 1223,-59.13 1223,-34.76"/>
<polygon fill="#63b8ff" stroke="#63b8ff" points="1226.5,-34.75 1223,-24.75 1219.5,-34.75 1226.5,-34.75"/>
</a>
</g>
</g>
<!-- Node51 -->
<g id="Node000051" class="node">
<title>Node51</title>
<g id="a_Node000051"><a xlink:href="solutions__output_8h.html" target="_top" xlink:title=" ">
<polygon fill="white" stroke="#666666" points="1117.5,-398.5 986.5,-398.5 986.5,-379.5 1117.5,-379.5 1117.5,-398.5"/>
<text text-anchor="middle" x="1052" y="-386.5" font-family="Helvetica,sans-Serif" font-size="10.00">core/solutions_output.h</text>
</a>
</g>
</g>
<!-- Node1&#45;&gt;Node51 -->
<g id="edge44_Node000001_Node000051" class="edge">
<title>Node1&#45;&gt;Node51</title>
<g id="a_edge44_Node000001_Node000051"><a xlink:title=" ">
<path fill="none" stroke="#63b8ff" d="M1288.17,-443.82C1230.64,-430.71 1150.1,-412.35 1099.51,-400.83"/>
<polygon fill="#63b8ff" stroke="#63b8ff" points="1100.03,-397.35 1089.5,-398.55 1098.47,-404.18 1100.03,-397.35"/>
</a>
</g>
</g>
<!-- Node52 -->
<g id="Node000052" class="node">
<title>Node52</title>
<g id="a_Node000052"><a xlink:title=" ">
<polygon fill="#e0e0e0" stroke="#999999" points="1194.5,-338 1075.5,-338 1075.5,-308 1194.5,-308 1194.5,-338"/>
<text text-anchor="start" x="1083.5" y="-326" font-family="Helvetica,sans-Serif" font-size="10.00">deal.II/numerics/data</text>
<text text-anchor="middle" x="1135" y="-315" font-family="Helvetica,sans-Serif" font-size="10.00">_out.h</text>
</a>
</g>
</g>
<!-- Node1&#45;&gt;Node52 -->
<g id="edge55_Node000001_Node000052" class="edge">
<title>Node1&#45;&gt;Node52</title>
<g id="a_edge55_Node000001_Node000052"><a xlink:title=" ">
<path fill="none" stroke="#63b8ff" d="M1288.17,-443.07C1260.16,-434.33 1228.46,-421.65 1203,-404 1180.93,-388.7 1161.74,-364.52 1149.43,-346.74"/>
<polygon fill="#63b8ff" stroke="#63b8ff" points="1152.11,-344.46 1143.64,-338.11 1146.3,-348.36 1152.11,-344.46"/>
</a>
</g>
</g>
<!-- Node54 -->
<g id="Node000054" class="node">
<title>Node54</title>
<g id="a_Node000054"><a xlink:title=" ">
<polygon fill="#e0e0e0" stroke="#999999" points="1337,-398.5 1245,-398.5 1245,-379.5 1337,-379.5 1337,-398.5"/>
<text text-anchor="middle" x="1291" y="-386.5" font-family="Helvetica,sans-Serif" font-size="10.00">deal.II/fe/fe_q.h</text>
</a>
</g>
</g>
<!-- Node1&#45;&gt;Node54 -->
<g id="edge49_Node000001_Node000054" class="edge">
<title>Node1&#45;&gt;Node54</title>
<g id="a_edge49_Node000001_Node000054"><a xlink:title=" ">
<path fill="none" stroke="#63b8ff" d="M1338.26,-439.77C1328.16,-429.13 1315.85,-416.16 1306.32,-406.13"/>
<polygon fill="#63b8ff" stroke="#63b8ff" points="1308.8,-403.66 1299.38,-398.82 1303.72,-408.48 1308.8,-403.66"/>
</a>
</g>
</g>
<!-- Node55 -->
<g id="Node000055" class="node">
<title>Node55</title>
<g id="a_Node000055"><a xlink:title=" ">
<polygon fill="#e0e0e0" stroke="#999999" points="1492.5,-398.5 1355.5,-398.5 1355.5,-379.5 1492.5,-379.5 1492.5,-398.5"/>
<text text-anchor="middle" x="1424" y="-386.5" font-family="Helvetica,sans-Serif" font-size="10.00">deal.II/fe/fe_simplex_p.h</text>
</a>
</g>
</g>
<!-- Node1&#45;&gt;Node55 -->
<g id="edge50_Node000001_Node000055" class="edge">
<title>Node1&#45;&gt;Node55</title>
<g id="a_edge50_Node000001_Node000055"><a xlink:title=" ">
<path fill="none" stroke="#63b8ff" d="M1376.02,-439.77C1386.28,-429.13 1398.78,-416.16 1408.45,-406.13"/>
<polygon fill="#63b8ff" stroke="#63b8ff" points="1411.08,-408.45 1415.5,-398.82 1406.04,-403.59 1411.08,-408.45"/>
</a>
</g>
</g>
<!-- Node56 -->
<g id="Node000056" class="node">
<title>Node56</title>
<g id="a_Node000056"><a xlink:title=" ">
<polygon fill="#e0e0e0" stroke="#999999" points="1633,-398.5 1511,-398.5 1511,-379.5 1633,-379.5 1633,-398.5"/>
<text text-anchor="middle" x="1572" y="-386.5" font-family="Helvetica,sans-Serif" font-size="10.00">deal.II/fe/fe_system.h</text>
</a>
</g>
</g>
<!-- Node1&#45;&gt;Node56 -->
<g id="edge51_Node000001_Node000056" class="edge">
<title>Node1&#45;&gt;Node56</title>
<g id="a_edge51_Node000001_Node000056"><a xlink:title=" ">
<path fill="none" stroke="#63b8ff" d="M1417.46,-439.96C1455.57,-427.64 1503.49,-412.15 1535.79,-401.71"/>
<polygon fill="#63b8ff" stroke="#63b8ff" points="1537.26,-404.91 1545.69,-398.5 1535.1,-398.25 1537.26,-404.91"/>
</a>
</g>
</g>
<!-- Node57 -->
<g id="Node000057" class="node">
<title>Node57</title>
<g id="a_Node000057"><a xlink:title=" ">
<polygon fill="#e0e0e0" stroke="#999999" points="1802.5,-398.5 1651.5,-398.5 1651.5,-379.5 1802.5,-379.5 1802.5,-398.5"/>
<text text-anchor="middle" x="1727" y="-386.5" font-family="Helvetica,sans-Serif" font-size="10.00">deal.II/grid/grid_generator.h</text>
</a>
</g>
</g>
<!-- Node1&#45;&gt;Node57 -->
<g id="edge52_Node000001_Node000057" class="edge">
<title>Node1&#45;&gt;Node57</title>
<g id="a_edge52_Node000001_Node000057"><a xlink:title=" ">
<path fill="none" stroke="#63b8ff" d="M1425.73,-446.59C1496.65,-433.27 1605.9,-412.75 1671.52,-400.42"/>
<polygon fill="#63b8ff" stroke="#63b8ff" points="1672.48,-403.8 1681.67,-398.52 1671.19,-396.92 1672.48,-403.8"/>
</a>
</g>
</g>
<!-- Node58 -->
<g id="Node000058" class="node">
<title>Node58</title>
<g id="a_Node000058"><a xlink:title=" ">
<polygon fill="#e0e0e0" stroke="#999999" points="1933.5,-398.5 1820.5,-398.5 1820.5,-379.5 1933.5,-379.5 1933.5,-398.5"/>
<text text-anchor="middle" x="1877" y="-386.5" font-family="Helvetica,sans-Serif" font-size="10.00">deal.II/grid/grid_in.h</text>
</a>
</g>
</g>
<!-- Node1&#45;&gt;Node58 -->
<g id="edge53_Node000001_Node000058" class="edge">
<title>Node1&#45;&gt;Node58</title>
<g id="a_edge53_Node000001_Node000058"><a xlink:title=" ">
<path fill="none" stroke="#63b8ff" d="M1425.88,-453.06C1515.25,-444.26 1675.85,-426.92 1812,-404 1817.91,-403.01 1824.09,-401.84 1830.19,-400.61"/>
<polygon fill="#63b8ff" stroke="#63b8ff" points="1831.25,-403.97 1840.33,-398.51 1829.83,-397.11 1831.25,-403.97"/>
</a>
</g>
</g>
<!-- Node59 -->
<g id="Node000059" class="node">
<title>Node59</title>
<g id="a_Node000059"><a xlink:title=" ">
<polygon fill="#e0e0e0" stroke="#999999" points="2080,-398.5 1952,-398.5 1952,-379.5 2080,-379.5 2080,-398.5"/>
<text text-anchor="middle" x="2016" y="-386.5" font-family="Helvetica,sans-Serif" font-size="10.00">deal.II/grid/grid_tools.h</text>
</a>
</g>
</g>
<!-- Node1&#45;&gt;Node59 -->
<g id="edge54_Node000001_Node000059" class="edge">
<title>Node1&#45;&gt;Node59</title>
<g id="a_edge54_Node000001_Node000059"><a xlink:title=" ">
<path fill="none" stroke="#63b8ff" d="M1425.81,-455.11C1535.57,-447.64 1756.86,-430.6 1943,-404 1950.2,-402.97 1957.77,-401.72 1965.2,-400.38"/>
<polygon fill="#63b8ff" stroke="#63b8ff" points="1965.99,-403.8 1975.19,-398.54 1964.72,-396.91 1965.99,-403.8"/>
</a>
</g>
</g>
<!-- Node60 -->
<g id="Node000060" class="node">
<title>Node60</title>
<g id="a_Node000060"><a xlink:title=" ">
<polygon fill="#e0e0e0" stroke="#999999" points="2226,-404 2098,-404 2098,-374 2226,-374 2226,-404"/>
<text text-anchor="start" x="2106" y="-392" font-family="Helvetica,sans-Serif" font-size="10.00">deal.II/numerics/vector</text>
<text text-anchor="middle" x="2162" y="-381" font-family="Helvetica,sans-Serif" font-size="10.00">_tools.h</text>
</a>
</g>
</g>
<!-- Node1&#45;&gt;Node60 -->
<g id="edge56_Node000001_Node000060" class="edge">
<title>Node1&#45;&gt;Node60</title>
<g id="a_edge56_Node000001_Node000060"><a xlink:title=" ">
<path fill="none" stroke="#63b8ff" d="M1425.64,-456.9C1553.88,-451.48 1838.65,-436.76 2088,-404.03"/>
<polygon fill="#63b8ff" stroke="#63b8ff" points="2088.52,-407.49 2097.97,-402.71 2087.6,-400.55 2088.52,-407.49"/>
</a>
</g>
</g>
<!-- Node3 -->
<g id="Node000003" class="node">
<title>Node3</title>
<g id="a_Node000003"><a xlink:href="serial__solid_8h.html" target="_top" xlink:title=" ">
<polygon fill="white" stroke="#666666" points="495.5,-332.5 390.5,-332.5 390.5,-313.5 495.5,-313.5 495.5,-332.5"/>
<text text-anchor="middle" x="443" y="-320.5" font-family="Helvetica,sans-Serif" font-size="10.00">core/serial_solid.h</text>
</a>
</g>
</g>
<!-- Node2&#45;&gt;Node3 -->
<g id="edge2_Node000002_Node000003" class="edge">
<title>Node2&#45;&gt;Node3</title>
<g id="a_edge2_Node000002_Node000003"><a xlink:title=" ">
<path fill="none" stroke="#63b8ff" d="M152.83,-379.44C213.76,-367.8 322.61,-347 388.28,-334.45"/>
<polygon fill="#63b8ff" stroke="#63b8ff" points="389.27,-337.83 398.43,-332.51 387.95,-330.95 389.27,-337.83"/>
</a>
</g>
</g>
<!-- Node15 -->
<g id="Node000015" class="node">
<title>Node15</title>
<g id="a_Node000015"><a xlink:title=" ">
<polygon fill="#e0e0e0" stroke="#999999" points="159.5,-24.5 44.5,-24.5 44.5,-5.5 159.5,-5.5 159.5,-24.5"/>
<text text-anchor="middle" x="102" y="-12.5" font-family="Helvetica,sans-Serif" font-size="10.00">deal.II/base/tensor.h</text>
</a>
</g>
</g>
<!-- Node2&#45;&gt;Node15 -->
<g id="edge41_Node000002_Node000015" class="edge">
<title>Node2&#45;&gt;Node15</title>
<g id="a_edge41_Node000002_Node000015"><a xlink:title=" ">
<path fill="none" stroke="#63b8ff" d="M84.5,-379.46C65.63,-371.47 39.76,-357.78 24,-338 2.32,-310.79 0,-298.29 0,-263.5 0,-263.5 0,-263.5 0,-140.5 0,-105.71 2.78,-93.56 24,-66 36.39,-49.91 55.52,-37.53 71.74,-29.12"/>
<polygon fill="#63b8ff" stroke="#63b8ff" points="73.45,-32.18 80.88,-24.62 70.36,-25.9 73.45,-32.18"/>
</a>
</g>
</g>
<!-- Node21 -->
<g id="Node000021" class="node">
<title>Node21</title>
<g id="a_Node000021"><a xlink:title=" ">
<polygon fill="#e0e0e0" stroke="#999999" points="318,-24.5 178,-24.5 178,-5.5 318,-5.5 318,-24.5"/>
<text text-anchor="middle" x="248" y="-12.5" font-family="Helvetica,sans-Serif" font-size="10.00">deal.II/dofs/dof_handler.h</text>
</a>
</g>
</g>
<!-- Node2&#45;&gt;Node21 -->
<g id="edge42_Node000002_Node000021" class="edge">
<title>Node2&#45;&gt;Node21</title>
<g id="a_edge42_Node000002_Node000021"><a xlink:title=" ">
<path fill="none" stroke="#63b8ff" d="M96.04,-379.43C84.35,-370.43 66.9,-355.19 57,-338 39.95,-308.39 38,-297.67 38,-263.5 38,-263.5 38,-263.5 38,-140.5 38,-106.33 32.91,-90.24 57,-66 66.96,-55.98 143.31,-38.13 196.41,-26.69"/>
<polygon fill="#63b8ff" stroke="#63b8ff" points="197.32,-30.07 206.36,-24.56 195.85,-23.23 197.32,-30.07"/>
</a>
</g>
</g>
<!-- Node50 -->
<g id="Node000050" class="node">
<title>Node50</title>
<g id="a_Node000050"><a xlink:title=" ">
<polygon fill="#e0e0e0" stroke="#999999" points="171.5,-338 66.5,-338 66.5,-308 171.5,-308 171.5,-338"/>
<text text-anchor="start" x="74.5" y="-326" font-family="Helvetica,sans-Serif" font-size="10.00">deal.II/fe/mapping</text>
<text text-anchor="middle" x="119" y="-315" font-family="Helvetica,sans-Serif" font-size="10.00">_q_cache.h</text>
</a>
</g>
</g>
<!-- Node2&#45;&gt;Node50 -->
<g id="edge43_Node000002_Node000050" class="edge">
<title>Node2&#45;&gt;Node50</title>
<g id="a_edge43_Node000002_Node000050"><a xlink:title=" ">
<path fill="none" stroke="#63b8ff" d="M109.48,-379.37C110.85,-371.4 112.95,-359.2 114.83,-348.27"/>
<polygon fill="#63b8ff" stroke="#63b8ff" points="118.29,-348.81 116.53,-338.36 111.39,-347.62 118.29,-348.81"/>
</a>
</g>
</g>
<!-- Node4 -->
<g id="Node000004" class="node">
<title>Node4</title>
<g id="a_Node000004"><a xlink:href="pvd__handler_8h.html" target="_top" xlink:title=" ">
<polygon fill="white" stroke="#666666" points="939.5,-272 830.5,-272 830.5,-253 939.5,-253 939.5,-272"/>
<text text-anchor="middle" x="885" y="-260" font-family="Helvetica,sans-Serif" font-size="10.00">core/pvd_handler.h</text>
</a>
</g>
</g>
<!-- Node3&#45;&gt;Node4 -->
<g id="edge3_Node000003_Node000004" class="edge">
<title>Node3&#45;&gt;Node4</title>
<g id="a_edge3_Node000003_Node000004"><a xlink:title=" ">
<path fill="none" stroke="#63b8ff" d="M495.88,-315C577.1,-304.25 732.37,-283.7 820.22,-272.07"/>
<polygon fill="#63b8ff" stroke="#63b8ff" points="820.88,-275.52 830.33,-270.74 819.96,-268.58 820.88,-275.52"/>
</a>
</g>
</g>
<!-- Node16 -->
<g id="Node000016" class="node">
<title>Node16</title>
<g id="a_Node000016"><a xlink:href="core_2utilities_8h.html" target="_top" xlink:title=" ">
<polygon fill="#fff0f0" stroke="red" points="434,-90.5 348,-90.5 348,-71.5 434,-71.5 434,-90.5"/>
<text text-anchor="middle" x="391" y="-78.5" font-family="Helvetica,sans-Serif" font-size="10.00">core/utilities.h</text>
</a>
</g>
</g>
<!-- Node3&#45;&gt;Node16 -->
<g id="edge36_Node000003_Node000016" class="edge">
<title>Node3&#45;&gt;Node16</title>
<g id="a_edge36_Node000003_Node000016"><a xlink:title=" ">
<path fill="none" stroke="#63b8ff" d="M441.15,-313.46C433.66,-278.91 405.52,-149.04 395,-100.47"/>
<polygon fill="#63b8ff" stroke="#63b8ff" points="398.42,-99.72 392.88,-90.69 391.58,-101.2 398.42,-99.72"/>
</a>
</g>
</g>
<!-- Node3&#45;&gt;Node21 -->
<g id="edge38_Node000003_Node000021" class="edge">
<title>Node3&#45;&gt;Node21</title>
<g id="a_edge38_Node000003_Node000021"><a xlink:title=" ">
<path fill="none" stroke="#63b8ff" d="M437.58,-313.5C411.12,-271.98 295.33,-90.27 258.97,-33.21"/>
<polygon fill="#63b8ff" stroke="#63b8ff" points="261.81,-31.16 253.49,-24.61 255.91,-34.92 261.81,-31.16"/>
</a>
</g>
</g>
<!-- Node44 -->
<g id="Node000044" class="node">
<title>Node44</title>
<g id="a_Node000044"><a xlink:href="simulation__control_8h.html" target="_top" xlink:title="Simulation control classes for managing time&#45;stepping and iteration control in Lethe.">
<polygon fill="white" stroke="#666666" points="774,-272 634,-272 634,-253 774,-253 774,-272"/>
<text text-anchor="middle" x="704" y="-260" font-family="Helvetica,sans-Serif" font-size="10.00">core/simulation_control.h</text>
</a>
</g>
</g>
<!-- Node3&#45;&gt;Node44 -->
<g id="edge22_Node000003_Node000044" class="edge">
<title>Node3&#45;&gt;Node44</title>
<g id="a_edge22_Node000003_Node000044"><a xlink:title=" ">
<path fill="none" stroke="#63b8ff" d="M480.95,-313.49C527.25,-303.12 605.55,-285.57 655.99,-274.26"/>
<polygon fill="#63b8ff" stroke="#63b8ff" points="657.01,-277.62 666,-272.02 655.48,-270.79 657.01,-277.62"/>
</a>
</g>
</g>
<!-- Node47 -->
<g id="Node000047" class="node">
<title>Node47</title>
<g id="a_Node000047"><a xlink:title=" ">
<polygon fill="#e0e0e0" stroke="#999999" points="614.5,-217 483.5,-217 483.5,-187 614.5,-187 614.5,-217"/>
<text text-anchor="start" x="491.5" y="-205" font-family="Helvetica,sans-Serif" font-size="10.00">deal.II/particles/particle</text>
<text text-anchor="middle" x="549" y="-194" font-family="Helvetica,sans-Serif" font-size="10.00">_handler.h</text>
</a>
</g>
</g>
<!-- Node3&#45;&gt;Node47 -->
<g id="edge40_Node000003_Node000047" class="edge">
<title>Node3&#45;&gt;Node47</title>
<g id="a_edge40_Node000003_Node000047"><a xlink:title=" ">
<path fill="none" stroke="#63b8ff" d="M446.39,-313.19C452.04,-299.29 464.41,-271.92 481,-253 491.11,-241.48 504.31,-231.02 516.39,-222.69"/>
<polygon fill="#63b8ff" stroke="#63b8ff" points="518.54,-225.46 524.93,-217.01 514.66,-219.63 518.54,-225.46"/>
</a>
</g>
</g>
<!-- Node48 -->
<g id="Node000048" class="node">
<title>Node48</title>
<g id="a_Node000048"><a xlink:href="solid__objects__parameters_8h.html" target="_top" xlink:title="Parameter classes for solid objects used in Nitsche immersed boundary and DEM simulations.">
<polygon fill="white" stroke="#666666" points="1047,-217 943,-217 943,-187 1047,-187 1047,-217"/>
<text text-anchor="start" x="951" y="-205" font-family="Helvetica,sans-Serif" font-size="10.00">core/solid_objects</text>
<text text-anchor="middle" x="995" y="-194" font-family="Helvetica,sans-Serif" font-size="10.00">_parameters.h</text>
</a>
</g>
</g>
<!-- Node3&#45;&gt;Node48 -->
<g id="edge29_Node000003_Node000048" class="edge">
<title>Node3&#45;&gt;Node48</title>
<g id="a_edge29_Node000003_Node000048"><a xlink:title=" ">
<path fill="none" stroke="#63b8ff" d="M495.7,-319.43C563.54,-314.96 684.4,-303.02 783,-272 801.01,-266.33 803.41,-259.86 821,-253 857.38,-238.82 899.43,-226.62 933.08,-217.83"/>
<polygon fill="#63b8ff" stroke="#63b8ff" points="933.97,-221.21 942.78,-215.33 932.23,-214.44 933.97,-221.21"/>
</a>
</g>
</g>
<!-- Node13 -->
<g id="Node000013" class="node">
<title>Node13</title>
<g id="a_Node000013"><a xlink:href="tensors__and__points__dimension__manipulation_8h.html" target="_top" xlink:title=" ">
<polygon fill="white" stroke="#666666" points="218,-96 66,-96 66,-66 218,-66 218,-96"/>
<text text-anchor="start" x="74" y="-84" font-family="Helvetica,sans-Serif" font-size="10.00">core/tensors_and_points</text>
<text text-anchor="middle" x="142" y="-73" font-family="Helvetica,sans-Serif" font-size="10.00">_dimension_manipulation.h</text>
</a>
</g>
</g>
<!-- Node3&#45;&gt;Node13 -->
<g id="edge33_Node000003_Node000013" class="edge">
<title>Node3&#45;&gt;Node13</title>
<g id="a_edge33_Node000003_Node000013"><a xlink:title=" ">
<path fill="none" stroke="#63b8ff" d="M390.33,-315.94C332.5,-308.32 244.47,-293.57 219,-272 168,-228.81 150.39,-146.75 144.62,-106.08"/>
<polygon fill="#63b8ff" stroke="#63b8ff" points="148.07,-105.47 143.32,-96 141.13,-106.37 148.07,-105.47"/>
</a>
</g>
</g>
<!-- Node32 -->
<g id="Node000032" class="node">
<title>Node32</title>
<g id="a_Node000032"><a xlink:title=" ">
<polygon fill="#e0e0e0" stroke="#999999" points="615.5,-272 490.5,-272 490.5,-253 615.5,-253 615.5,-272"/>
<text text-anchor="middle" x="553" y="-260" font-family="Helvetica,sans-Serif" font-size="10.00">deal.II/base/function.h</text>
</a>
</g>
</g>
<!-- Node3&#45;&gt;Node32 -->
<g id="edge37_Node000003_Node000032" class="edge">
<title>Node3&#45;&gt;Node32</title>
<g id="a_edge37_Node000003_Node000032"><a xlink:title=" ">
<path fill="none" stroke="#63b8ff" d="M459.23,-313.37C477.27,-303.78 506.62,-288.17 527.68,-276.97"/>
<polygon fill="#63b8ff" stroke="#63b8ff" points="529.52,-279.95 536.7,-272.17 526.23,-273.77 529.52,-279.95"/>
</a>
</g>
</g>
<!-- Node49 -->
<g id="Node000049" class="node">
<title>Node49</title>
<g id="a_Node000049"><a xlink:title=" ">
<polygon fill="#e0e0e0" stroke="#999999" points="357.5,-272 228.5,-272 228.5,-253 357.5,-253 357.5,-272"/>
<text text-anchor="middle" x="293" y="-260" font-family="Helvetica,sans-Serif" font-size="10.00">deal.II/fe/mapping_fe.h</text>
</a>
</g>
</g>
<!-- Node3&#45;&gt;Node49 -->
<g id="edge39_Node000003_Node000049" class="edge">
<title>Node3&#45;&gt;Node49</title>
<g id="a_edge39_Node000003_Node000049"><a xlink:title=" ">
<path fill="none" stroke="#63b8ff" d="M421.19,-313.49C395.75,-303.57 353.49,-287.09 324.49,-275.78"/>
<polygon fill="#63b8ff" stroke="#63b8ff" points="325.43,-272.39 314.84,-272.02 322.88,-278.91 325.43,-272.39"/>
</a>
</g>
</g>
<!-- Node5 -->
<g id="Node000005" class="node">
<title>Node5</title>
<g id="a_Node000005"><a xlink:href="parameters_8h.html" target="_top" xlink:title=" ">
<polygon fill="white" stroke="#666666" points="864,-151 758,-151 758,-132 864,-132 864,-151"/>
<text text-anchor="middle" x="811" y="-139" font-family="Helvetica,sans-Serif" font-size="10.00">core/parameters.h</text>
</a>
</g>
</g>
<!-- Node4&#45;&gt;Node5 -->
<g id="edge4_Node000004_Node000005" class="edge">
<title>Node4&#45;&gt;Node5</title>
<g id="a_edge4_Node000004_Node000005"><a xlink:title=" ">
<path fill="none" stroke="#63b8ff" d="M879.68,-252.94C867.63,-233.57 838.06,-186.02 821.93,-160.08"/>
<polygon fill="#63b8ff" stroke="#63b8ff" points="824.73,-157.95 816.47,-151.3 818.78,-161.64 824.73,-157.95"/>
</a>
</g>
</g>
<!-- Node6 -->
<g id="Node000006" class="node">
<title>Node6</title>
<g id="a_Node000006"><a xlink:href="dimensionality_8h.html" target="_top" xlink:title=" ">
<polygon fill="white" stroke="#666666" points="950.5,-90.5 829.5,-90.5 829.5,-71.5 950.5,-71.5 950.5,-90.5"/>
<text text-anchor="middle" x="890" y="-78.5" font-family="Helvetica,sans-Serif" font-size="10.00">core/dimensionality.h</text>
</a>
</g>
</g>
<!-- Node5&#45;&gt;Node6 -->
<g id="edge5_Node000005_Node000006" class="edge">
<title>Node5&#45;&gt;Node6</title>
<g id="a_edge5_Node000005_Node000006"><a xlink:title=" ">
<path fill="none" stroke="#63b8ff" d="M822.66,-131.87C835.14,-122.62 855.18,-107.78 870.16,-96.69"/>
<polygon fill="#63b8ff" stroke="#63b8ff" points="872.34,-99.43 878.3,-90.67 868.18,-93.81 872.34,-99.43"/>
</a>
</g>
</g>
<!-- Node7 -->
<g id="Node000007" class="node">
<title>Node7</title>
<g id="a_Node000007"><a xlink:title=" ">
<polygon fill="#e0e0e0" stroke="#999999" points="909.5,-30 782.5,-30 782.5,0 909.5,0 909.5,-30"/>
<text text-anchor="start" x="790.5" y="-18" font-family="Helvetica,sans-Serif" font-size="10.00">deal.II/base/parameter</text>
<text text-anchor="middle" x="846" y="-7" font-family="Helvetica,sans-Serif" font-size="10.00">_handler.h</text>
</a>
</g>
</g>
<!-- Node5&#45;&gt;Node7 -->
<g id="edge19_Node000005_Node000007" class="edge">
<title>Node5&#45;&gt;Node7</title>
<g id="a_edge19_Node000005_Node000007"><a xlink:title=" ">
<path fill="none" stroke="#63b8ff" d="M811.05,-131.57C811.37,-117.37 812.92,-88.9 820,-66 822.83,-56.86 827.28,-47.41 831.72,-39.22"/>
<polygon fill="#63b8ff" stroke="#63b8ff" points="834.9,-40.7 836.81,-30.28 828.82,-37.24 834.9,-40.7"/>
</a>
</g>
</g>
<!-- Node8 -->
<g id="Node000008" class="node">
<title>Node8</title>
<g id="a_Node000008"><a xlink:href="ib__particle_8h.html" target="_top" xlink:title=" ">
<polygon fill="#fff0f0" stroke="red" points="772.5,-90.5 671.5,-90.5 671.5,-71.5 772.5,-71.5 772.5,-90.5"/>
<text text-anchor="middle" x="722" y="-78.5" font-family="Helvetica,sans-Serif" font-size="10.00">core/ib_particle.h</text>
</a>
</g>
</g>
<!-- Node5&#45;&gt;Node8 -->
<g id="edge7_Node000005_Node000008" class="edge">
<title>Node5&#45;&gt;Node8</title>
<g id="a_edge7_Node000005_Node000008"><a xlink:title=" ">
<path fill="none" stroke="#63b8ff" d="M797.87,-131.87C783.67,-122.54 760.8,-107.51 743.88,-96.38"/>
<polygon fill="#63b8ff" stroke="#63b8ff" points="745.47,-93.24 735.19,-90.67 741.62,-99.08 745.47,-93.24"/>
</a>
</g>
</g>
<!-- Node41 -->
<g id="Node000041" class="node">
<title>Node41</title>
<g id="a_Node000041"><a xlink:title=" ">
<polygon fill="#e0e0e0" stroke="#999999" points="1177.5,-30 1068.5,-30 1068.5,0 1177.5,0 1177.5,-30"/>
<text text-anchor="start" x="1076.5" y="-18" font-family="Helvetica,sans-Serif" font-size="10.00">deal.II/base/parsed</text>
<text text-anchor="middle" x="1123" y="-7" font-family="Helvetica,sans-Serif" font-size="10.00">_function.h</text>
</a>
</g>
</g>
<!-- Node5&#45;&gt;Node41 -->
<g id="edge20_Node000005_Node000041" class="edge">
<title>Node5&#45;&gt;Node41</title>
<g id="a_edge20_Node000005_Node000041"><a xlink:title=" ">
<path fill="none" stroke="#63b8ff" d="M864.28,-138.11C935.27,-133.92 1055.9,-122.96 1090,-96 1107.24,-82.37 1115.56,-58.19 1119.51,-39.98"/>
<polygon fill="#63b8ff" stroke="#63b8ff" points="1122.97,-40.54 1121.37,-30.06 1116.09,-39.24 1122.97,-40.54"/>
</a>
</g>
</g>
<!-- Node42 -->
<g id="Node000042" class="node">
<title>Node42</title>
<g id="a_Node000042"><a xlink:href="multiphysics_8h.html" target="_top" xlink:title="Identifiers for multiphysics modules and their solution fields.">
<polygon fill="white" stroke="#666666" points="1081,-90.5 969,-90.5 969,-71.5 1081,-71.5 1081,-90.5"/>
<text text-anchor="middle" x="1025" y="-78.5" font-family="Helvetica,sans-Serif" font-size="10.00">core/multiphysics.h</text>
</a>
</g>
</g>
<!-- Node5&#45;&gt;Node42 -->
<g id="edge11_Node000005_Node000042" class="edge">
<title>Node5&#45;&gt;Node42</title>
<g id="a_edge11_Node000005_Node000042"><a xlink:title=" ">
<path fill="none" stroke="#63b8ff" d="M842.12,-131.99C879.6,-121.75 942.68,-104.5 984.07,-93.19"/>
<polygon fill="#63b8ff" stroke="#63b8ff" points="985.12,-96.53 993.85,-90.52 983.28,-89.78 985.12,-96.53"/>
</a>
</g>
</g>
<!-- Node5&#45;&gt;Node16 -->
<g id="edge12_Node000005_Node000016" class="edge">
<title>Node5&#45;&gt;Node16</title>
<g id="a_edge12_Node000005_Node000016"><a xlink:title=" ">
<path fill="none" stroke="#63b8ff" d="M757.9,-133.21C754.89,-132.8 751.91,-132.39 749,-132 629.91,-115.84 599.94,-113.24 481,-96 469.02,-94.26 456.15,-92.31 444.01,-90.43"/>
<polygon fill="#63b8ff" stroke="#63b8ff" points="444.42,-86.96 434,-88.88 443.35,-93.87 444.42,-86.96"/>
</a>
</g>
</g>
<!-- Node43 -->
<g id="Node000043" class="node">
<title>Node43</title>
<g id="a_Node000043"><a xlink:title=" ">
<polygon fill="#e0e0e0" stroke="#999999" points="653.5,-96 490.5,-96 490.5,-66 653.5,-66 653.5,-96"/>
<text text-anchor="start" x="498.5" y="-84" font-family="Helvetica,sans-Serif" font-size="10.00">deal.II/multigrid/mg</text>
<text text-anchor="middle" x="572" y="-73" font-family="Helvetica,sans-Serif" font-size="10.00">_transfer_global_coarsening.h</text>
</a>
</g>
</g>
<!-- Node5&#45;&gt;Node43 -->
<g id="edge21_Node000005_Node000043" class="edge">
<title>Node5&#45;&gt;Node43</title>
<g id="a_edge21_Node000005_Node000043"><a xlink:title=" ">
<path fill="none" stroke="#63b8ff" d="M776.25,-131.99C740.5,-123.24 683.91,-109.39 639.35,-98.48"/>
<polygon fill="#63b8ff" stroke="#63b8ff" points="640,-95.04 629.46,-96.06 638.34,-101.84 640,-95.04"/>
</a>
</g>
</g>
<!-- Node6&#45;&gt;Node7 -->
<g id="edge6_Node000006_Node000007" class="edge">
<title>Node6&#45;&gt;Node7</title>
<g id="a_edge6_Node000006_Node000007"><a xlink:title=" ">
<path fill="none" stroke="#63b8ff" d="M884.07,-71.37C878.37,-63.08 869.5,-50.18 861.76,-38.92"/>
<polygon fill="#63b8ff" stroke="#63b8ff" points="864.42,-36.62 855.87,-30.36 858.65,-40.58 864.42,-36.62"/>
</a>
</g>
</g>
<!-- Node8&#45;&gt;Node41 -->
<g id="edge8_Node000008_Node000041" class="edge">
<title>Node8&#45;&gt;Node41</title>
<g id="a_edge8_Node000008_Node000041"><a xlink:title=" ">
<path fill="none" stroke="#63b8ff" d="M772.79,-71.89C845.44,-60.3 979.04,-38.98 1058.57,-26.28"/>
<polygon fill="#63b8ff" stroke="#63b8ff" points="1059.14,-29.74 1068.46,-24.7 1058.04,-22.82 1059.14,-29.74"/>
</a>
</g>
</g>
<!-- Node8&#45;&gt;Node14 -->
<g id="edge9_Node000008_Node000014" class="edge">
<title>Node8&#45;&gt;Node14</title>
<g id="a_edge9_Node000008_Node000014"><a xlink:title=" ">
<path fill="none" stroke="#63b8ff" d="M686.86,-71.45C678.71,-69.56 670.07,-67.64 662,-66 570.49,-47.38 546.63,-47.98 455,-30 449.7,-28.96 444.16,-27.82 438.66,-26.66"/>
<polygon fill="#63b8ff" stroke="#63b8ff" points="439.36,-23.23 428.85,-24.56 437.89,-30.08 439.36,-23.23"/>
</a>
</g>
</g>
<!-- Node11 -->
<g id="Node000011" class="node">
<title>Node11</title>
<g id="a_Node000011"><a xlink:title=" ">
<polygon fill="#e0e0e0" stroke="#999999" points="511.5,-24.5 464.5,-24.5 464.5,-5.5 511.5,-5.5 511.5,-24.5"/>
<text text-anchor="middle" x="488" y="-12.5" font-family="Helvetica,sans-Serif" font-size="10.00">vector</text>
</a>
</g>
</g>
<!-- Node8&#45;&gt;Node11 -->
<g id="edge10_Node000008_Node000011" class="edge">
<title>Node8&#45;&gt;Node11</title>
<g id="a_edge10_Node000008_Node000011"><a xlink:title=" ">
<path fill="none" stroke="#63b8ff" d="M690.44,-71.37C646.35,-59.31 566.65,-37.51 521.52,-25.17"/>
<polygon fill="#63b8ff" stroke="#63b8ff" points="522.21,-21.73 511.64,-22.47 520.36,-28.48 522.21,-21.73"/>
</a>
</g>
</g>
<!-- Node16&#45;&gt;Node7 -->
<g id="edge13_Node000016_Node000007" class="edge">
<title>Node16&#45;&gt;Node7</title>
<g id="a_edge13_Node000016_Node000007"><a xlink:title=" ">
<path fill="none" stroke="#63b8ff" d="M434.01,-73.15C448.88,-70.82 465.67,-68.24 481,-66 581.79,-51.26 698.44,-35.51 772.2,-25.71"/>
<polygon fill="#63b8ff" stroke="#63b8ff" points="772.87,-29.15 782.32,-24.37 771.95,-22.21 772.87,-29.15"/>
</a>
</g>
</g>
<!-- Node16&#45;&gt;Node14 -->
<g id="edge14_Node000016_Node000014" class="edge">
<title>Node16&#45;&gt;Node14</title>
<g id="a_edge14_Node000016_Node000014"><a xlink:title=" ">
<path fill="none" stroke="#63b8ff" d="M391,-71.37C391,-62.16 391,-47.29 391,-35.27"/>
<polygon fill="#63b8ff" stroke="#63b8ff" points="394.5,-34.91 391,-24.91 387.5,-34.91 394.5,-34.91"/>
</a>
</g>
</g>
<!-- Node16&#45;&gt;Node11 -->
<g id="edge18_Node000016_Node000011" class="edge">
<title>Node16&#45;&gt;Node11</title>
<g id="a_edge18_Node000016_Node000011"><a xlink:title=" ">
<path fill="none" stroke="#63b8ff" d="M404.08,-71.37C420.06,-60.82 447.33,-42.84 466.43,-30.23"/>
<polygon fill="#63b8ff" stroke="#63b8ff" points="468.4,-33.13 474.82,-24.7 464.54,-27.28 468.4,-33.13"/>
</a>
</g>
</g>
<!-- Node16&#45;&gt;Node15 -->
<g id="edge15_Node000016_Node000015" class="edge">
<title>Node16&#45;&gt;Node15</title>
<g id="a_edge15_Node000016_Node000015"><a xlink:title=" ">
<path fill="none" stroke="#63b8ff" d="M352.32,-71.44C300.09,-59.87 207.01,-39.26 150.26,-26.69"/>
<polygon fill="#63b8ff" stroke="#63b8ff" points="150.97,-23.26 140.45,-24.51 149.45,-30.09 150.97,-23.26"/>
</a>
</g>
</g>
<!-- Node16&#45;&gt;Node21 -->
<g id="edge16_Node000016_Node000021" class="edge">
<title>Node16&#45;&gt;Node21</title>
<g id="a_edge16_Node000016_Node000021"><a xlink:title=" ">
<path fill="none" stroke="#63b8ff" d="M371.71,-71.37C347.3,-60.44 305.03,-41.52 276.79,-28.88"/>
<polygon fill="#63b8ff" stroke="#63b8ff" points="277.99,-25.59 267.44,-24.7 275.13,-31.98 277.99,-25.59"/>
</a>
</g>
</g>
<!-- Node16&#45;&gt;Node27 -->
<g id="edge17_Node000016_Node000027" class="edge">
<title>Node16&#45;&gt;Node27</title>
<g id="a_edge17_Node000016_Node000027"><a xlink:title=" ">
<path fill="none" stroke="#63b8ff" d="M434.37,-72.33C449.13,-69.96 465.74,-67.57 481,-66 793.53,-33.81 879.78,-95.78 1187,-30 1189.52,-29.46 1192.1,-28.76 1194.66,-27.97"/>
<polygon fill="#63b8ff" stroke="#63b8ff" points="1196.03,-31.21 1204.29,-24.58 1193.7,-24.6 1196.03,-31.21"/>
</a>
</g>
</g>
<!-- Node44&#45;&gt;Node5 -->
<g id="edge27_Node000044_Node000005" class="edge">
<title>Node44&#45;&gt;Node5</title>
<g id="a_edge27_Node000044_Node000005"><a xlink:title=" ">
<path fill="none" stroke="#63b8ff" d="M711.7,-252.94C729.35,-233.31 773,-184.76 796.11,-159.07"/>
<polygon fill="#63b8ff" stroke="#63b8ff" points="799,-161.08 803.09,-151.3 793.8,-156.4 799,-161.08"/>
</a>
</g>
</g>
<!-- Node45 -->
<g id="Node000045" class="node">
<title>Node45</title>
<g id="a_Node000045"><a xlink:href="bdf_8h.html" target="_top" xlink:title=" ">
<polygon fill="white" stroke="#666666" points="731.5,-211.5 666.5,-211.5 666.5,-192.5 731.5,-192.5 731.5,-211.5"/>
<text text-anchor="middle" x="699" y="-199.5" font-family="Helvetica,sans-Serif" font-size="10.00">core/bdf.h</text>
</a>
</g>
</g>
<!-- Node44&#45;&gt;Node45 -->
<g id="edge23_Node000044_Node000045" class="edge">
<title>Node44&#45;&gt;Node45</title>
<g id="a_edge23_Node000044_Node000045"><a xlink:title=" ">
<path fill="none" stroke="#63b8ff" d="M703.26,-252.87C702.57,-244.75 701.5,-232.31 700.61,-221.89"/>
<polygon fill="#63b8ff" stroke="#63b8ff" points="704.08,-221.33 699.74,-211.67 697.11,-221.93 704.08,-221.33"/>
</a>
</g>
</g>
<!-- Node44&#45;&gt;Node47 -->
<g id="edge28_Node000044_Node000047" class="edge">
<title>Node44&#45;&gt;Node47</title>
<g id="a_edge28_Node000044_Node000047"><a xlink:title=" ">
<path fill="none" stroke="#63b8ff" d="M681.46,-252.99C659.15,-244.57 624.33,-231.43 595.99,-220.73"/>
<polygon fill="#63b8ff" stroke="#63b8ff" points="596.86,-217.32 586.26,-217.06 594.38,-223.87 596.86,-217.32"/>
</a>
</g>
</g>
<!-- Node45&#45;&gt;Node5 -->
<g id="edge24_Node000045_Node000005" class="edge">
<title>Node45&#45;&gt;Node5</title>
<g id="a_edge24_Node000045_Node000005"><a xlink:title=" ">
<path fill="none" stroke="#63b8ff" d="M715.53,-192.37C733.97,-182.73 764.04,-167.03 785.51,-155.81"/>
<polygon fill="#63b8ff" stroke="#63b8ff" points="787.16,-158.9 794.41,-151.17 783.92,-152.69 787.16,-158.9"/>
</a>
</g>
</g>
<!-- Node45&#45;&gt;Node11 -->
<g id="edge26_Node000045_Node000011" class="edge">
<title>Node45&#45;&gt;Node11</title>
<g id="a_edge26_Node000045_Node000011"><a xlink:title=" ">
<path fill="none" stroke="#63b8ff" d="M666.32,-196.21C616.24,-186.92 522.01,-161.27 481,-96 469.33,-77.43 474.65,-51.46 480.48,-34.21"/>
<polygon fill="#63b8ff" stroke="#63b8ff" points="483.8,-35.33 484.03,-24.74 477.25,-32.87 483.8,-35.33"/>
</a>
</g>
</g>
<!-- Node46 -->
<g id="Node000046" class="node">
<title>Node46</title>
<g id="a_Node000046"><a xlink:title=" ">
<polygon fill="#e0e0e0" stroke="#999999" points="740,-151 634,-151 634,-132 740,-132 740,-151"/>
<text text-anchor="middle" x="687" y="-139" font-family="Helvetica,sans-Serif" font-size="10.00">deal.II/lac/vector.h</text>
</a>
</g>
</g>
<!-- Node45&#45;&gt;Node46 -->
<g id="edge25_Node000045_Node000046" class="edge">
<title>Node45&#45;&gt;Node46</title>
<g id="a_edge25_Node000045_Node000046"><a xlink:title=" ">
<path fill="none" stroke="#63b8ff" d="M697.23,-192.37C695.55,-184.16 692.96,-171.54 690.81,-161.05"/>
<polygon fill="#63b8ff" stroke="#63b8ff" points="694.22,-160.26 688.78,-151.17 687.36,-161.67 694.22,-160.26"/>
</a>
</g>
</g>
<!-- Node48&#45;&gt;Node5 -->
<g id="edge30_Node000048_Node000005" class="edge">
<title>Node48&#45;&gt;Node5</title>
<g id="a_edge30_Node000048_Node000005"><a xlink:title=" ">
<path fill="none" stroke="#63b8ff" d="M950.93,-186.99C919.31,-176.94 877.22,-163.55 847.48,-154.1"/>
<polygon fill="#63b8ff" stroke="#63b8ff" points="848.49,-150.75 837.9,-151.05 846.37,-157.42 848.49,-150.75"/>
</a>
</g>
</g>
<!-- Node48&#45;&gt;Node7 -->
<g id="edge31_Node000048_Node000007" class="edge">
<title>Node48&#45;&gt;Node7</title>
<g id="a_edge31_Node000048_Node000007"><a xlink:title=" ">
<path fill="none" stroke="#63b8ff" d="M1017.85,-186.92C1055.78,-161.83 1124.33,-108.08 1090,-66 1068.79,-40 983.62,-27.15 919.83,-21.06"/>
<polygon fill="#63b8ff" stroke="#63b8ff" points="920.07,-17.57 909.79,-20.14 919.43,-24.54 920.07,-17.57"/>
</a>
</g>
</g>
<!-- Node48&#45;&gt;Node41 -->
<g id="edge32_Node000048_Node000041" class="edge">
<title>Node48&#45;&gt;Node41</title>
<g id="a_edge32_Node000048_Node000041"><a xlink:title=" ">
<path fill="none" stroke="#63b8ff" d="M1047.06,-194.69C1074.53,-188.42 1105.98,-175.92 1123,-151 1145.6,-117.9 1138.01,-68.79 1130.48,-39.82"/>
<polygon fill="#63b8ff" stroke="#63b8ff" points="1133.83,-38.81 1127.76,-30.13 1127.09,-40.7 1133.83,-38.81"/>
</a>
</g>
</g>
<!-- Node13&#45;&gt;Node14 -->
<g id="edge34_Node000013_Node000014" class="edge">
<title>Node13&#45;&gt;Node14</title>
<g id="a_edge34_Node000013_Node000014"><a xlink:title=" ">
<path fill="none" stroke="#63b8ff" d="M196.64,-65.95C242.14,-54.26 306.04,-37.84 347.96,-27.06"/>
<polygon fill="#63b8ff" stroke="#63b8ff" points="349.05,-30.4 357.86,-24.52 347.31,-23.62 349.05,-30.4"/>
</a>
</g>
</g>
<!-- Node13&#45;&gt;Node15 -->
<g id="edge35_Node000013_Node000015" class="edge">
<title>Node13&#45;&gt;Node15</title>
<g id="a_edge35_Node000013_Node000015"><a xlink:title=" ">
<path fill="none" stroke="#63b8ff" d="M133.12,-65.8C127.19,-56.31 119.35,-43.76 113.02,-33.63"/>
<polygon fill="#63b8ff" stroke="#63b8ff" points="115.8,-31.47 107.53,-24.84 109.86,-35.18 115.8,-31.47"/>
</a>
</g>
</g>
<!-- Node51&#45;&gt;Node4 -->
<g id="edge45_Node000051_Node000004" class="edge">
<title>Node51&#45;&gt;Node4</title>
<g id="a_edge45_Node000051_Node000004"><a xlink:title=" ">
<path fill="none" stroke="#63b8ff" d="M1051.8,-379.21C1050.94,-362.88 1046.75,-327.76 1027,-308 1006.43,-287.41 976.46,-276.32 949.35,-270.37"/>
<polygon fill="#63b8ff" stroke="#63b8ff" points="950.01,-266.93 939.51,-268.39 948.63,-273.79 950.01,-266.93"/>
</a>
</g>
</g>
<!-- Node51&#45;&gt;Node52 -->
<g id="edge46_Node000051_Node000052" class="edge">
<title>Node51&#45;&gt;Node52</title>
<g id="a_edge46_Node000051_Node000052"><a xlink:title=" ">
<path fill="none" stroke="#63b8ff" d="M1063.19,-379.37C1074.77,-370.44 1093.26,-356.19 1108.57,-344.38"/>
<polygon fill="#63b8ff" stroke="#63b8ff" points="1110.91,-346.99 1116.69,-338.12 1106.64,-341.45 1110.91,-346.99"/>
</a>
</g>
</g>
<!-- Node53 -->
<g id="Node000053" class="node">
<title>Node53</title>
<g id="a_Node000053"><a xlink:title=" ">
<polygon fill="#e0e0e0" stroke="#999999" points="1018.5,-338 899.5,-338 899.5,-308 1018.5,-308 1018.5,-338"/>
<text text-anchor="start" x="907.5" y="-326" font-family="Helvetica,sans-Serif" font-size="10.00">deal.II/numerics/data</text>
<text text-anchor="middle" x="959" y="-315" font-family="Helvetica,sans-Serif" font-size="10.00">_out_faces.h</text>
</a>
</g>
</g>
<!-- Node51&#45;&gt;Node53 -->
<g id="edge47_Node000051_Node000053" class="edge">
<title>Node51&#45;&gt;Node53</title>
<g id="a_edge47_Node000051_Node000053"><a xlink:title=" ">
<path fill="none" stroke="#63b8ff" d="M1039.46,-379.37C1026.37,-370.36 1005.39,-355.92 988.13,-344.05"/>
<polygon fill="#63b8ff" stroke="#63b8ff" points="989.73,-340.9 979.51,-338.12 985.77,-346.67 989.73,-340.9"/>
</a>
</g>
</g>
</g>
</svg>
