<?xml version="1.0" encoding="UTF-8" standalone="no"?>
<!DOCTYPE svg PUBLIC "-//W3C//DTD SVG 1.1//EN"
 "http://www.w3.org/Graphics/SVG/1.1/DTD/svg11.dtd">
<!-- Generated by graphviz version 2.43.0 (0)
 -->
<!-- Title: /home/runner/work/lethe/lethe/include/core/shape_parsing.h Pages: 1 -->
<svg width="2115pt" height="302pt"
 viewBox="0.00 0.00 2114.50 302.00" xmlns="http://www.w3.org/2000/svg" xmlns:xlink="http://www.w3.org/1999/xlink">
<g id="graph0" class="graph" transform="scale(1 1) rotate(0) translate(4 298)">
<title>/home/runner/work/lethe/lethe/include/core/shape_parsing.h</title>
<!-- Node1 -->
<g id="Node000001" class="node">
<title>Node1</title>
<g id="a_Node000001"><a xlink:title=" ">
<polygon fill="#999999" stroke="#666666" points="996,-294 857,-294 857,-253 996,-253 996,-294"/>
<text text-anchor="start" x="865" y="-282" font-family="Helvetica,sans-Serif" font-size="10.00">/home/runner/work/lethe</text>
<text text-anchor="start" x="865" y="-271" font-family="Helvetica,sans-Serif" font-size="10.00">/lethe/include/core/shape</text>
<text text-anchor="middle" x="926.5" y="-260" font-family="Helvetica,sans-Serif" font-size="10.00">_parsing.h</text>
</a>
</g>
</g>
<!-- Node2 -->
<g id="Node000002" class="node">
<title>Node2</title>
<g id="a_Node000002"><a xlink:href="shape_8h.html" target="_top" xlink:title=" ">
<polygon fill="white" stroke="#666666" points="1302,-217 1223,-217 1223,-198 1302,-198 1302,-217"/>
<text text-anchor="middle" x="1262.5" y="-205" font-family="Helvetica,sans-Serif" font-size="10.00">core/shape.h</text>
</a>
</g>
</g>
<!-- Node1&#45;&gt;Node2 -->
<g id="edge1_Node000001_Node000002" class="edge">
<title>Node1&#45;&gt;Node2</title>
<g id="a_edge1_Node000001_Node000002"><a xlink:title=" ">
<path fill="none" stroke="#63b8ff" d="M996.12,-259.24C1060.86,-246.91 1155.68,-228.85 1213,-217.93"/>
<polygon fill="#63b8ff" stroke="#63b8ff" points="1213.74,-221.35 1222.91,-216.04 1212.43,-214.47 1213.74,-221.35"/>
</a>
</g>
</g>
<!-- Node6 -->
<g id="Node000006" class="node">
<title>Node6</title>
<g id="a_Node000006"><a xlink:href="core_2utilities_8h.html" target="_top" xlink:title=" ">
<polygon fill="white" stroke="#666666" points="563.5,-156.5 477.5,-156.5 477.5,-137.5 563.5,-137.5 563.5,-156.5"/>
<text text-anchor="middle" x="520.5" y="-144.5" font-family="Helvetica,sans-Serif" font-size="10.00">core/utilities.h</text>
</a>
</g>
</g>
<!-- Node1&#45;&gt;Node6 -->
<g id="edge35_Node000001_Node000006" class="edge">
<title>Node1&#45;&gt;Node6</title>
<g id="a_edge35_Node000001_Node000006"><a xlink:title=" ">
<path fill="none" stroke="#63b8ff" d="M862.62,-252.91C777.05,-226.67 627.96,-180.95 558.34,-159.6"/>
<polygon fill="#63b8ff" stroke="#63b8ff" points="559.24,-156.22 548.66,-156.63 557.19,-162.91 559.24,-156.22"/>
</a>
</g>
</g>
<!-- Node3 -->
<g id="Node000003" class="node">
<title>Node3</title>
<g id="a_Node000003"><a xlink:href="tensors__and__points__dimension__manipulation_8h.html" target="_top" xlink:title=" ">
<polygon fill="white" stroke="#666666" points="1898.5,-162 1746.5,-162 1746.5,-132 1898.5,-132 1898.5,-162"/>
<text text-anchor="start" x="1754.5" y="-150" font-family="Helvetica,sans-Serif" font-size="10.00">core/tensors_and_points</text>
<text text-anchor="middle" x="1822.5" y="-139" font-family="Helvetica,sans-Serif" font-size="10.00">_dimension_manipulation.h</text>
</a>
</g>
</g>
<!-- Node2&#45;&gt;Node3 -->
<g id="edge2_Node000002_Node000003" class="edge">
<title>Node2&#45;&gt;Node3</title>
<g id="a_edge2_Node000002_Node000003"><a xlink:title=" ">
<path fill="none" stroke="#63b8ff" d="M1302.01,-203.74C1382,-197.94 1569,-183.36 1736.12,-162.12"/>
<polygon fill="#63b8ff" stroke="#63b8ff" points="1736.61,-165.59 1746.08,-160.85 1735.72,-158.65 1736.61,-165.59"/>
</a>
</g>
</g>
<!-- Node2&#45;&gt;Node6 -->
<g id="edge5_Node000002_Node000006" class="edge">
<title>Node2&#45;&gt;Node6</title>
<g id="a_edge5_Node000002_Node000006"><a xlink:title=" ">
<path fill="none" stroke="#63b8ff" d="M1222.9,-206.68C1116.77,-206.59 817.37,-202.45 572.5,-162 567.74,-161.21 562.78,-160.17 557.89,-159.02"/>
<polygon fill="#63b8ff" stroke="#63b8ff" points="558.63,-155.59 548.07,-156.52 556.9,-162.37 558.63,-155.59"/>
</a>
</g>
</g>
<!-- Node12 -->
<g id="Node000012" class="node">
<title>Node12</title>
<g id="a_Node000012"><a xlink:title=" ">
<polygon fill="#e0e0e0" stroke="#999999" points="1961.5,-90.5 1821.5,-90.5 1821.5,-71.5 1961.5,-71.5 1961.5,-90.5"/>
<text text-anchor="middle" x="1891.5" y="-78.5" font-family="Helvetica,sans-Serif" font-size="10.00">deal.II/dofs/dof_handler.h</text>
</a>
</g>
</g>
<!-- Node2&#45;&gt;Node12 -->
<g id="edge30_Node000002_Node000012" class="edge">
<title>Node2&#45;&gt;Node12</title>
<g id="a_edge30_Node000002_Node000012"><a xlink:title=" ">
<path fill="none" stroke="#63b8ff" d="M1302.26,-206.83C1436.39,-207.52 1866.19,-206.26 1907.5,-162 1923.16,-145.23 1912.59,-117.65 1902.72,-99.65"/>
<polygon fill="#63b8ff" stroke="#63b8ff" points="1905.58,-97.61 1897.48,-90.77 1899.55,-101.16 1905.58,-97.61"/>
</a>
</g>
</g>
<!-- Node22 -->
<g id="Node000022" class="node">
<title>Node22</title>
<g id="a_Node000022"><a xlink:title=" ">
<polygon fill="#e0e0e0" stroke="#999999" points="2106.5,-162 1954.5,-162 1954.5,-132 2106.5,-132 2106.5,-162"/>
<text text-anchor="start" x="1962.5" y="-150" font-family="Helvetica,sans-Serif" font-size="10.00">deal.II/base/auto_derivative</text>
<text text-anchor="middle" x="2030.5" y="-139" font-family="Helvetica,sans-Serif" font-size="10.00">_function.h</text>
</a>
</g>
</g>
<!-- Node2&#45;&gt;Node22 -->
<g id="edge24_Node000002_Node000022" class="edge">
<title>Node2&#45;&gt;Node22</title>
<g id="a_edge24_Node000002_Node000022"><a xlink:title=" ">
<path fill="none" stroke="#63b8ff" d="M1302.35,-205.12C1407.13,-201.23 1698.97,-188.66 1940.5,-162 1941.78,-161.86 1943.07,-161.71 1944.37,-161.56"/>
<polygon fill="#63b8ff" stroke="#63b8ff" points="1944.96,-165.01 1954.45,-160.32 1944.1,-158.07 1944.96,-165.01"/>
</a>
</g>
</g>
<!-- Node23 -->
<g id="Node000023" class="node">
<title>Node23</title>
<g id="a_Node000023"><a xlink:title=" ">
<polygon fill="#e0e0e0" stroke="#999999" points="707,-156.5 582,-156.5 582,-137.5 707,-137.5 707,-156.5"/>
<text text-anchor="middle" x="644.5" y="-144.5" font-family="Helvetica,sans-Serif" font-size="10.00">deal.II/base/function.h</text>
</a>
</g>
</g>
<!-- Node2&#45;&gt;Node23 -->
<g id="edge25_Node000002_Node000023" class="edge">
<title>Node2&#45;&gt;Node23</title>
<g id="a_edge25_Node000002_Node000023"><a xlink:title=" ">
<path fill="none" stroke="#63b8ff" d="M1222.94,-204.78C1132.76,-200.53 905.17,-187.95 716.5,-162 709.3,-161.01 701.73,-159.77 694.32,-158.43"/>
<polygon fill="#63b8ff" stroke="#63b8ff" points="694.83,-154.96 684.36,-156.57 693.54,-161.84 694.83,-154.96"/>
</a>
</g>
</g>
<!-- Node24 -->
<g id="Node000024" class="node">
<title>Node24</title>
<g id="a_Node000024"><a xlink:title=" ">
<polygon fill="#e0e0e0" stroke="#999999" points="849.5,-156.5 725.5,-156.5 725.5,-137.5 849.5,-137.5 849.5,-156.5"/>
<text text-anchor="middle" x="787.5" y="-144.5" font-family="Helvetica,sans-Serif" font-size="10.00">deal.II/grid/manifold.h</text>
</a>
</g>
</g>
<!-- Node2&#45;&gt;Node24 -->
<g id="edge26_Node000002_Node000024" class="edge">
<title>Node2&#45;&gt;Node24</title>
<g id="a_edge26_Node000002_Node000024"><a xlink:title=" ">
<path fill="none" stroke="#63b8ff" d="M1222.79,-203.25C1150.2,-197.07 991.37,-182.38 858.5,-162 851.74,-160.96 844.65,-159.73 837.67,-158.44"/>
<polygon fill="#63b8ff" stroke="#63b8ff" points="838.05,-154.95 827.57,-156.52 836.74,-161.83 838.05,-154.95"/>
</a>
</g>
</g>
<!-- Node25 -->
<g id="Node000025" class="node">
<title>Node25</title>
<g id="a_Node000025"><a xlink:title=" ">
<polygon fill="#e0e0e0" stroke="#999999" points="983,-162 868,-162 868,-132 983,-132 983,-162"/>
<text text-anchor="start" x="876" y="-150" font-family="Helvetica,sans-Serif" font-size="10.00">deal.II/grid/manifold</text>
<text text-anchor="middle" x="925.5" y="-139" font-family="Helvetica,sans-Serif" font-size="10.00">_lib.h</text>
</a>
</g>
</g>
<!-- Node2&#45;&gt;Node25 -->
<g id="edge27_Node000002_Node000025" class="edge">
<title>Node2&#45;&gt;Node25</title>
<g id="a_edge27_Node000002_Node000025"><a xlink:title=" ">
<path fill="none" stroke="#63b8ff" d="M1222.9,-200.59C1171.99,-192.85 1080.6,-178.53 993.15,-162.26"/>
<polygon fill="#63b8ff" stroke="#63b8ff" points="993.53,-158.77 983.06,-160.37 992.25,-165.65 993.53,-158.77"/>
</a>
</g>
</g>
<!-- Node26 -->
<g id="Node000026" class="node">
<title>Node26</title>
<g id="a_Node000026"><a xlink:title=" ">
<polygon fill="#e0e0e0" stroke="#999999" points="1116,-162 1001,-162 1001,-132 1116,-132 1116,-162"/>
<text text-anchor="start" x="1009" y="-150" font-family="Helvetica,sans-Serif" font-size="10.00">boost/range/adaptor</text>
<text text-anchor="middle" x="1058.5" y="-139" font-family="Helvetica,sans-Serif" font-size="10.00">/map.hpp</text>
</a>
</g>
</g>
<!-- Node2&#45;&gt;Node26 -->
<g id="edge28_Node000002_Node000026" class="edge">
<title>Node2&#45;&gt;Node26</title>
<g id="a_edge28_Node000002_Node000026"><a xlink:title=" ">
<path fill="none" stroke="#63b8ff" d="M1232.84,-197.99C1202.71,-189.35 1155.23,-175.74 1117.43,-164.9"/>
<polygon fill="#63b8ff" stroke="#63b8ff" points="1118.12,-161.46 1107.54,-162.06 1116.19,-168.19 1118.12,-161.46"/>
</a>
</g>
</g>
<!-- Node27 -->
<g id="Node000027" class="node">
<title>Node27</title>
<g id="a_Node000027"><a xlink:title=" ">
<polygon fill="#e0e0e0" stroke="#999999" points="1250.5,-162 1134.5,-162 1134.5,-132 1250.5,-132 1250.5,-162"/>
<text text-anchor="start" x="1142.5" y="-150" font-family="Helvetica,sans-Serif" font-size="10.00">deal.II/base/function</text>
<text text-anchor="middle" x="1192.5" y="-139" font-family="Helvetica,sans-Serif" font-size="10.00">_signed_distance.h</text>
</a>
</g>
</g>
<!-- Node2&#45;&gt;Node27 -->
<g id="edge29_Node000002_Node000027" class="edge">
<title>Node2&#45;&gt;Node27</title>
<g id="a_edge29_Node000002_Node000027"><a xlink:title=" ">
<path fill="none" stroke="#63b8ff" d="M1252.17,-197.87C1243.02,-190.22 1229.31,-178.76 1217.33,-168.75"/>
<polygon fill="#63b8ff" stroke="#63b8ff" points="1219.31,-165.84 1209.39,-162.11 1214.82,-171.21 1219.31,-165.84"/>
</a>
</g>
</g>
<!-- Node28 -->
<g id="Node000028" class="node">
<title>Node28</title>
<g id="a_Node000028"><a xlink:title=" ">
<polygon fill="#e0e0e0" stroke="#999999" points="1396.5,-156.5 1268.5,-156.5 1268.5,-137.5 1396.5,-137.5 1396.5,-156.5"/>
<text text-anchor="middle" x="1332.5" y="-144.5" font-family="Helvetica,sans-Serif" font-size="10.00">deal.II/dofs/dof_tools.h</text>
</a>
</g>
</g>
<!-- Node2&#45;&gt;Node28 -->
<g id="edge31_Node000002_Node000028" class="edge">
<title>Node2&#45;&gt;Node28</title>
<g id="a_edge31_Node000002_Node000028"><a xlink:title=" ">
<path fill="none" stroke="#63b8ff" d="M1272.83,-197.87C1283.69,-188.8 1300.99,-174.34 1314.17,-163.32"/>
<polygon fill="#63b8ff" stroke="#63b8ff" points="1316.7,-165.77 1322.13,-156.67 1312.21,-160.39 1316.7,-165.77"/>
</a>
</g>
</g>
<!-- Node29 -->
<g id="Node000029" class="node">
<title>Node29</title>
<g id="a_Node000029"><a xlink:title=" ">
<polygon fill="#e0e0e0" stroke="#999999" points="1590.5,-156.5 1414.5,-156.5 1414.5,-137.5 1590.5,-137.5 1590.5,-156.5"/>
<text text-anchor="middle" x="1502.5" y="-144.5" font-family="Helvetica,sans-Serif" font-size="10.00">deal.II/physics/transformations.h</text>
</a>
</g>
</g>
<!-- Node2&#45;&gt;Node29 -->
<g id="edge32_Node000002_Node000029" class="edge">
<title>Node2&#45;&gt;Node29</title>
<g id="a_edge32_Node000002_Node000029"><a xlink:title=" ">
<path fill="none" stroke="#63b8ff" d="M1297.4,-197.99C1339.79,-187.66 1411.37,-170.21 1457.77,-158.9"/>
<polygon fill="#63b8ff" stroke="#63b8ff" points="1458.67,-162.29 1467.56,-156.52 1457.02,-155.48 1458.67,-162.29"/>
</a>
</g>
</g>
<!-- Node30 -->
<g id="Node000030" class="node">
<title>Node30</title>
<g id="a_Node000030"><a xlink:title=" ">
<polygon fill="#e0e0e0" stroke="#999999" points="1652.5,-156.5 1608.5,-156.5 1608.5,-137.5 1652.5,-137.5 1652.5,-156.5"/>
<text text-anchor="middle" x="1630.5" y="-144.5" font-family="Helvetica,sans-Serif" font-size="10.00">cfloat</text>
</a>
</g>
</g>
<!-- Node2&#45;&gt;Node30 -->
<g id="edge33_Node000002_Node000030" class="edge">
<title>Node2&#45;&gt;Node30</title>
<g id="a_edge33_Node000002_Node000030"><a xlink:title=" ">
<path fill="none" stroke="#63b8ff" d="M1302.18,-205.01C1365.97,-201.79 1494.79,-191.85 1599.5,-162 1601.14,-161.53 1602.8,-160.99 1604.47,-160.4"/>
<polygon fill="#63b8ff" stroke="#63b8ff" points="1605.83,-163.63 1613.78,-156.63 1603.2,-157.14 1605.83,-163.63"/>
</a>
</g>
</g>
<!-- Node31 -->
<g id="Node000031" class="node">
<title>Node31</title>
<g id="a_Node000031"><a xlink:title=" ">
<polygon fill="#e0e0e0" stroke="#999999" points="1728.5,-156.5 1670.5,-156.5 1670.5,-137.5 1728.5,-137.5 1728.5,-156.5"/>
<text text-anchor="middle" x="1699.5" y="-144.5" font-family="Helvetica,sans-Serif" font-size="10.00">memory</text>
</a>
</g>
</g>
<!-- Node2&#45;&gt;Node31 -->
<g id="edge34_Node000002_Node000031" class="edge">
<title>Node2&#45;&gt;Node31</title>
<g id="a_edge34_Node000002_Node000031"><a xlink:title=" ">
<path fill="none" stroke="#63b8ff" d="M1302.12,-205.25C1374.43,-202.27 1532.28,-192.53 1661.5,-162 1664.01,-161.41 1666.59,-160.69 1669.16,-159.91"/>
<polygon fill="#63b8ff" stroke="#63b8ff" points="1670.52,-163.14 1678.87,-156.63 1668.28,-156.51 1670.52,-163.14"/>
</a>
</g>
</g>
<!-- Node4 -->
<g id="Node000004" class="node">
<title>Node4</title>
<g id="a_Node000004"><a xlink:title=" ">
<polygon fill="#e0e0e0" stroke="#999999" points="1732.5,-90.5 1622.5,-90.5 1622.5,-71.5 1732.5,-71.5 1732.5,-90.5"/>
<text text-anchor="middle" x="1677.5" y="-78.5" font-family="Helvetica,sans-Serif" font-size="10.00">deal.II/base/point.h</text>
</a>
</g>
</g>
<!-- Node3&#45;&gt;Node4 -->
<g id="edge3_Node000003_Node000004" class="edge">
<title>Node3&#45;&gt;Node4</title>
<g id="a_edge3_Node000003_Node000004"><a xlink:title=" ">
<path fill="none" stroke="#63b8ff" d="M1790.68,-131.95C1765.47,-120.83 1730.57,-105.42 1706.21,-94.67"/>
<polygon fill="#63b8ff" stroke="#63b8ff" points="1707.36,-91.35 1696.8,-90.52 1704.53,-97.76 1707.36,-91.35"/>
</a>
</g>
</g>
<!-- Node5 -->
<g id="Node000005" class="node">
<title>Node5</title>
<g id="a_Node000005"><a xlink:title=" ">
<polygon fill="#e0e0e0" stroke="#999999" points="1463,-90.5 1348,-90.5 1348,-71.5 1463,-71.5 1463,-90.5"/>
<text text-anchor="middle" x="1405.5" y="-78.5" font-family="Helvetica,sans-Serif" font-size="10.00">deal.II/base/tensor.h</text>
</a>
</g>
</g>
<!-- Node3&#45;&gt;Node5 -->
<g id="edge4_Node000003_Node000005" class="edge">
<title>Node3&#45;&gt;Node5</title>
<g id="a_edge4_Node000003_Node000005"><a xlink:title=" ">
<path fill="none" stroke="#63b8ff" d="M1746.05,-133.36C1743.17,-132.9 1740.31,-132.44 1737.5,-132 1646.04,-117.58 1540.26,-101.81 1473.14,-91.91"/>
<polygon fill="#63b8ff" stroke="#63b8ff" points="1473.52,-88.43 1463.12,-90.43 1472.5,-95.35 1473.52,-88.43"/>
</a>
</g>
</g>
<!-- Node6&#45;&gt;Node4 -->
<g id="edge11_Node000006_Node000004" class="edge">
<title>Node6&#45;&gt;Node4</title>
<g id="a_edge11_Node000006_Node000004"><a xlink:title=" ">
<path fill="none" stroke="#63b8ff" d="M547.78,-137.43C555.68,-135.28 564.37,-133.24 572.5,-132 967.79,-71.65 1072.21,-117.56 1471.5,-96 1518.69,-93.45 1571.9,-89.82 1612.42,-86.89"/>
<polygon fill="#63b8ff" stroke="#63b8ff" points="1612.72,-90.38 1622.44,-86.16 1612.21,-83.39 1612.72,-90.38"/>
</a>
</g>
</g>
<!-- Node6&#45;&gt;Node5 -->
<g id="edge13_Node000006_Node000005" class="edge">
<title>Node6&#45;&gt;Node5</title>
<g id="a_edge13_Node000006_Node000005"><a xlink:title=" ">
<path fill="none" stroke="#63b8ff" d="M547.79,-137.48C555.69,-135.33 564.37,-133.28 572.5,-132 893.39,-81.49 979.04,-125.9 1302.5,-96 1314.43,-94.9 1327.11,-93.42 1339.33,-91.85"/>
<polygon fill="#63b8ff" stroke="#63b8ff" points="1340.02,-95.29 1349.47,-90.5 1339.1,-88.35 1340.02,-95.29"/>
</a>
</g>
</g>
<!-- Node7 -->
<g id="Node000007" class="node">
<title>Node7</title>
<g id="a_Node000007"><a xlink:href="output__struct_8h.html" target="_top" xlink:title=" ">
<polygon fill="white" stroke="#666666" points="714.5,-90.5 600.5,-90.5 600.5,-71.5 714.5,-71.5 714.5,-90.5"/>
<text text-anchor="middle" x="657.5" y="-78.5" font-family="Helvetica,sans-Serif" font-size="10.00">core/output_struct.h</text>
</a>
</g>
</g>
<!-- Node6&#45;&gt;Node7 -->
<g id="edge6_Node000006_Node000007" class="edge">
<title>Node6&#45;&gt;Node7</title>
<g id="a_edge6_Node000006_Node000007"><a xlink:title=" ">
<path fill="none" stroke="#63b8ff" d="M538.98,-137.37C562.26,-126.49 602.51,-107.69 629.56,-95.05"/>
<polygon fill="#63b8ff" stroke="#63b8ff" points="631.3,-98.1 638.88,-90.7 628.34,-91.76 631.3,-98.1"/>
</a>
</g>
</g>
<!-- Node8 -->
<g id="Node000008" class="node">
<title>Node8</title>
<g id="a_Node000008"><a xlink:title=" ">
<polygon fill="#e0e0e0" stroke="#999999" points="623,-30 522,-30 522,0 623,0 623,-30"/>
<text text-anchor="start" x="530" y="-18" font-family="Helvetica,sans-Serif" font-size="10.00">deal.II/base/table</text>
<text text-anchor="middle" x="572.5" y="-7" font-family="Helvetica,sans-Serif" font-size="10.00">_handler.h</text>
</a>
</g>
</g>
<!-- Node6&#45;&gt;Node8 -->
<g id="edge12_Node000006_Node000008" class="edge">
<title>Node6&#45;&gt;Node8</title>
<g id="a_edge12_Node000006_Node000008"><a xlink:title=" ">
<path fill="none" stroke="#63b8ff" d="M527.33,-137.28C534.56,-127.68 545.81,-111.52 552.5,-96 560.24,-78.06 565.41,-56.5 568.55,-40.29"/>
<polygon fill="#63b8ff" stroke="#63b8ff" points="572.07,-40.49 570.41,-30.03 565.19,-39.25 572.07,-40.49"/>
</a>
</g>
</g>
<!-- Node10 -->
<g id="Node000010" class="node">
<title>Node10</title>
<g id="a_Node000010"><a xlink:title=" ">
<polygon fill="#e0e0e0" stroke="#999999" points="862.5,-96 732.5,-96 732.5,-66 862.5,-66 862.5,-96"/>
<text text-anchor="start" x="740.5" y="-84" font-family="Helvetica,sans-Serif" font-size="10.00">deal.II/base/conditional</text>
<text text-anchor="middle" x="797.5" y="-73" font-family="Helvetica,sans-Serif" font-size="10.00">_ostream.h</text>
</a>
</g>
</g>
<!-- Node6&#45;&gt;Node10 -->
<g id="edge9_Node000006_Node000010" class="edge">
<title>Node6&#45;&gt;Node10</title>
<g id="a_edge9_Node000006_Node000010"><a xlink:title=" ">
<path fill="none" stroke="#63b8ff" d="M551.24,-137.48C558.21,-135.62 565.6,-133.69 572.5,-132 622.25,-119.78 678.52,-107.28 722.33,-97.83"/>
<polygon fill="#63b8ff" stroke="#63b8ff" points="723.3,-101.2 732.34,-95.68 721.83,-94.36 723.3,-101.2"/>
</a>
</g>
</g>
<!-- Node11 -->
<g id="Node000011" class="node">
<title>Node11</title>
<g id="a_Node000011"><a xlink:title=" ">
<polygon fill="#e0e0e0" stroke="#999999" points="1008,-96 881,-96 881,-66 1008,-66 1008,-96"/>
<text text-anchor="start" x="889" y="-84" font-family="Helvetica,sans-Serif" font-size="10.00">deal.II/base/parameter</text>
<text text-anchor="middle" x="944.5" y="-73" font-family="Helvetica,sans-Serif" font-size="10.00">_handler.h</text>
</a>
</g>
</g>
<!-- Node6&#45;&gt;Node11 -->
<g id="edge10_Node000006_Node000011" class="edge">
<title>Node6&#45;&gt;Node11</title>
<g id="a_edge10_Node000006_Node000011"><a xlink:title=" ">
<path fill="none" stroke="#63b8ff" d="M549.21,-137.48C556.74,-135.47 564.88,-133.48 572.5,-132 700.7,-107.16 737.47,-116.15 870.66,-96.04"/>
<polygon fill="#63b8ff" stroke="#63b8ff" points="871.49,-99.46 880.84,-94.48 870.43,-92.54 871.49,-99.46"/>
</a>
</g>
</g>
<!-- Node6&#45;&gt;Node12 -->
<g id="edge14_Node000006_Node000012" class="edge">
<title>Node6&#45;&gt;Node12</title>
<g id="a_edge14_Node000006_Node000012"><a xlink:title=" ">
<path fill="none" stroke="#63b8ff" d="M547.51,-137.45C555.48,-135.28 564.27,-133.22 572.5,-132 829.6,-93.96 1482.1,-112.08 1741.5,-96 1764.14,-94.6 1788.65,-92.54 1811.17,-90.43"/>
<polygon fill="#63b8ff" stroke="#63b8ff" points="1811.74,-93.89 1821.36,-89.46 1811.08,-86.92 1811.74,-93.89"/>
</a>
</g>
</g>
<!-- Node13 -->
<g id="Node000013" class="node">
<title>Node13</title>
<g id="a_Node000013"><a xlink:title=" ">
<polygon fill="#e0e0e0" stroke="#999999" points="1145,-90.5 1026,-90.5 1026,-71.5 1145,-71.5 1145,-90.5"/>
<text text-anchor="middle" x="1085.5" y="-78.5" font-family="Helvetica,sans-Serif" font-size="10.00">deal.II/fe/fe_values.h</text>
</a>
</g>
</g>
<!-- Node6&#45;&gt;Node13 -->
<g id="edge15_Node000006_Node000013" class="edge">
<title>Node6&#45;&gt;Node13</title>
<g id="a_edge15_Node000006_Node000013"><a xlink:title=" ">
<path fill="none" stroke="#63b8ff" d="M548.36,-137.5C556.11,-135.41 564.58,-133.38 572.5,-132 767.56,-98.12 820.47,-123.73 1016.5,-96 1023.33,-95.03 1030.5,-93.81 1037.53,-92.5"/>
<polygon fill="#63b8ff" stroke="#63b8ff" points="1038.53,-95.87 1047.68,-90.52 1037.19,-89 1038.53,-95.87"/>
</a>
</g>
</g>
<!-- Node14 -->
<g id="Node000014" class="node">
<title>Node14</title>
<g id="a_Node000014"><a xlink:title=" ">
<polygon fill="#e0e0e0" stroke="#999999" points="1294,-96 1163,-96 1163,-66 1294,-66 1294,-96"/>
<text text-anchor="start" x="1171" y="-84" font-family="Helvetica,sans-Serif" font-size="10.00">deal.II/particles/particle</text>
<text text-anchor="middle" x="1228.5" y="-73" font-family="Helvetica,sans-Serif" font-size="10.00">_iterator.h</text>
</a>
</g>
</g>
<!-- Node6&#45;&gt;Node14 -->
<g id="edge16_Node000006_Node000014" class="edge">
<title>Node6&#45;&gt;Node14</title>
<g id="a_edge16_Node000006_Node000014"><a xlink:title=" ">
<path fill="none" stroke="#63b8ff" d="M548.07,-137.47C555.9,-135.35 564.47,-133.32 572.5,-132 824.57,-90.69 894.96,-126.85 1152.69,-95.98"/>
<polygon fill="#63b8ff" stroke="#63b8ff" points="1153.22,-99.44 1162.72,-94.75 1152.37,-92.49 1153.22,-99.44"/>
</a>
</g>
</g>
<!-- Node15 -->
<g id="Node000015" class="node">
<title>Node15</title>
<g id="a_Node000015"><a xlink:title=" ">
<polygon fill="#e0e0e0" stroke="#999999" points="105,-96 0,-96 0,-66 105,-66 105,-96"/>
<text text-anchor="start" x="8" y="-84" font-family="Helvetica,sans-Serif" font-size="10.00">boost/archive/text</text>
<text text-anchor="middle" x="52.5" y="-73" font-family="Helvetica,sans-Serif" font-size="10.00">_iarchive.hpp</text>
</a>
</g>
</g>
<!-- Node6&#45;&gt;Node15 -->
<g id="edge17_Node000006_Node000015" class="edge">
<title>Node6&#45;&gt;Node15</title>
<g id="a_edge17_Node000006_Node000015"><a xlink:title=" ">
<path fill="none" stroke="#63b8ff" d="M477.21,-142.17C404.36,-135.39 252.48,-119.88 114.88,-96.14"/>
<polygon fill="#63b8ff" stroke="#63b8ff" points="115.46,-92.68 105,-94.41 114.25,-99.58 115.46,-92.68"/>
</a>
</g>
</g>
<!-- Node16 -->
<g id="Node000016" class="node">
<title>Node16</title>
<g id="a_Node000016"><a xlink:title=" ">
<polygon fill="#e0e0e0" stroke="#999999" points="228,-96 123,-96 123,-66 228,-66 228,-96"/>
<text text-anchor="start" x="131" y="-84" font-family="Helvetica,sans-Serif" font-size="10.00">boost/archive/text</text>
<text text-anchor="middle" x="175.5" y="-73" font-family="Helvetica,sans-Serif" font-size="10.00">_oarchive.hpp</text>
</a>
</g>
</g>
<!-- Node6&#45;&gt;Node16 -->
<g id="edge18_Node000006_Node000016" class="edge">
<title>Node6&#45;&gt;Node16</title>
<g id="a_edge18_Node000006_Node000016"><a xlink:title=" ">
<path fill="none" stroke="#63b8ff" d="M477.07,-139.06C423.2,-130.31 328.35,-114.37 237.9,-96.23"/>
<polygon fill="#63b8ff" stroke="#63b8ff" points="238.53,-92.79 228.04,-94.24 237.15,-99.65 238.53,-92.79"/>
</a>
</g>
</g>
<!-- Node17 -->
<g id="Node000017" class="node">
<title>Node17</title>
<g id="a_Node000017"><a xlink:title=" ">
<polygon fill="#e0e0e0" stroke="#999999" points="301,-90.5 246,-90.5 246,-71.5 301,-71.5 301,-90.5"/>
<text text-anchor="middle" x="273.5" y="-78.5" font-family="Helvetica,sans-Serif" font-size="10.00">fstream</text>
</a>
</g>
</g>
<!-- Node6&#45;&gt;Node17 -->
<g id="edge19_Node000006_Node000017" class="edge">
<title>Node6&#45;&gt;Node17</title>
<g id="a_edge19_Node000006_Node000017"><a xlink:title=" ">
<path fill="none" stroke="#63b8ff" d="M477.44,-137.43C434.68,-128.54 367.47,-113.48 310.5,-96 308.58,-95.41 306.61,-94.77 304.64,-94.11"/>
<polygon fill="#63b8ff" stroke="#63b8ff" points="305.46,-90.68 294.86,-90.61 303.1,-97.27 305.46,-90.68"/>
</a>
</g>
</g>
<!-- Node18 -->
<g id="Node000018" class="node">
<title>Node18</title>
<g id="a_Node000018"><a xlink:title=" ">
<polygon fill="#e0e0e0" stroke="#999999" points="357.5,-90.5 319.5,-90.5 319.5,-71.5 357.5,-71.5 357.5,-90.5"/>
<text text-anchor="middle" x="338.5" y="-78.5" font-family="Helvetica,sans-Serif" font-size="10.00">map</text>
</a>
</g>
</g>
<!-- Node6&#45;&gt;Node18 -->
<g id="edge20_Node000006_Node000018" class="edge">
<title>Node6&#45;&gt;Node18</title>
<g id="a_edge20_Node000006_Node000018"><a xlink:title=" ">
<path fill="none" stroke="#63b8ff" d="M489.63,-137.46C458.18,-128.41 408.25,-113.1 366.5,-96 365.64,-95.65 364.77,-95.28 363.9,-94.9"/>
<polygon fill="#63b8ff" stroke="#63b8ff" points="365.14,-91.62 354.6,-90.56 362.18,-97.96 365.14,-91.62"/>
</a>
</g>
</g>
<!-- Node19 -->
<g id="Node000019" class="node">
<title>Node19</title>
<g id="a_Node000019"><a xlink:title=" ">
<polygon fill="#e0e0e0" stroke="#999999" points="419.5,-90.5 375.5,-90.5 375.5,-71.5 419.5,-71.5 419.5,-90.5"/>
<text text-anchor="middle" x="397.5" y="-78.5" font-family="Helvetica,sans-Serif" font-size="10.00">string</text>
</a>
</g>
</g>
<!-- Node6&#45;&gt;Node19 -->
<g id="edge21_Node000006_Node000019" class="edge">
<title>Node6&#45;&gt;Node19</title>
<g id="a_edge21_Node000006_Node000019"><a xlink:title=" ">
<path fill="none" stroke="#63b8ff" d="M503.91,-137.37C483.19,-126.59 447.5,-108.02 423.22,-95.38"/>
<polygon fill="#63b8ff" stroke="#63b8ff" points="424.7,-92.21 414.22,-90.7 421.47,-98.42 424.7,-92.21"/>
</a>
</g>
</g>
<!-- Node20 -->
<g id="Node000020" class="node">
<title>Node20</title>
<g id="a_Node000020"><a xlink:title=" ">
<polygon fill="#e0e0e0" stroke="#999999" points="479,-90.5 438,-90.5 438,-71.5 479,-71.5 479,-90.5"/>
<text text-anchor="middle" x="458.5" y="-78.5" font-family="Helvetica,sans-Serif" font-size="10.00">tuple</text>
</a>
</g>
</g>
<!-- Node6&#45;&gt;Node20 -->
<g id="edge22_Node000006_Node000020" class="edge">
<title>Node6&#45;&gt;Node20</title>
<g id="a_edge22_Node000006_Node000020"><a xlink:title=" ">
<path fill="none" stroke="#63b8ff" d="M512.14,-137.37C502.49,-127.4 486.39,-110.79 474.35,-98.36"/>
<polygon fill="#63b8ff" stroke="#63b8ff" points="476.6,-95.65 467.13,-90.91 471.57,-100.52 476.6,-95.65"/>
</a>
</g>
</g>
<!-- Node21 -->
<g id="Node000021" class="node">
<title>Node21</title>
<g id="a_Node000021"><a xlink:title=" ">
<polygon fill="#e0e0e0" stroke="#999999" points="544,-90.5 497,-90.5 497,-71.5 544,-71.5 544,-90.5"/>
<text text-anchor="middle" x="520.5" y="-78.5" font-family="Helvetica,sans-Serif" font-size="10.00">vector</text>
</a>
</g>
</g>
<!-- Node6&#45;&gt;Node21 -->
<g id="edge23_Node000006_Node000021" class="edge">
<title>Node6&#45;&gt;Node21</title>
<g id="a_edge23_Node000006_Node000021"><a xlink:title=" ">
<path fill="none" stroke="#63b8ff" d="M520.5,-137.37C520.5,-128.16 520.5,-113.29 520.5,-101.27"/>
<polygon fill="#63b8ff" stroke="#63b8ff" points="524,-100.91 520.5,-90.91 517,-100.91 524,-100.91"/>
</a>
</g>
</g>
<!-- Node7&#45;&gt;Node8 -->
<g id="edge7_Node000007_Node000008" class="edge">
<title>Node7&#45;&gt;Node8</title>
<g id="a_edge7_Node000007_Node000008"><a xlink:title=" ">
<path fill="none" stroke="#63b8ff" d="M646.04,-71.37C634.18,-62.44 615.25,-48.19 599.56,-36.38"/>
<polygon fill="#63b8ff" stroke="#63b8ff" points="601.34,-33.33 591.25,-30.12 597.13,-38.93 601.34,-33.33"/>
</a>
</g>
</g>
<!-- Node9 -->
<g id="Node000009" class="node">
<title>Node9</title>
<g id="a_Node000009"><a xlink:title=" ">
<polygon fill="#e0e0e0" stroke="#999999" points="760,-30 641,-30 641,0 760,0 760,-30"/>
<text text-anchor="start" x="649" y="-18" font-family="Helvetica,sans-Serif" font-size="10.00">deal.II/numerics/data</text>
<text text-anchor="middle" x="700.5" y="-7" font-family="Helvetica,sans-Serif" font-size="10.00">_postprocessor.h</text>
</a>
</g>
</g>
<!-- Node7&#45;&gt;Node9 -->
<g id="edge8_Node000007_Node000009" class="edge">
<title>Node7&#45;&gt;Node9</title>
<g id="a_edge8_Node000007_Node000009"><a xlink:title=" ">
<path fill="none" stroke="#63b8ff" d="M663.3,-71.37C668.87,-63.08 677.53,-50.18 685.1,-38.92"/>
<polygon fill="#63b8ff" stroke="#63b8ff" points="688.18,-40.61 690.85,-30.36 682.37,-36.71 688.18,-40.61"/>
</a>
</g>
</g>
</g>
</svg>
