<?xml version="1.0" encoding="UTF-8" standalone="no"?>
<!DOCTYPE svg PUBLIC "-//W3C//DTD SVG 1.1//EN"
 "http://www.w3.org/Graphics/SVG/1.1/DTD/svg11.dtd">
<!-- Generated by graphviz version 2.43.0 (0)
 -->
<!-- Title: /home/runner/work/lethe/lethe/include/core/shape.h Pages: 1 -->
<svg width="2112pt" height="236pt"
 viewBox="0.00 0.00 2112.00 236.00" xmlns="http://www.w3.org/2000/svg" xmlns:xlink="http://www.w3.org/1999/xlink">
<g id="graph0" class="graph" transform="scale(1 1) rotate(0) translate(4 232)">
<title>/home/runner/work/lethe/lethe/include/core/shape.h</title>
<!-- Node1 -->
<g id="Node000001" class="node">
<title>Node1</title>
<g id="a_Node000001"><a xlink:title=" ">
<polygon fill="#999999" stroke="#666666" points="1375,-228 1227,-228 1227,-198 1375,-198 1375,-228"/>
<text text-anchor="start" x="1235" y="-216" font-family="Helvetica,sans-Serif" font-size="10.00">/home/runner/work/lethe</text>
<text text-anchor="middle" x="1301" y="-205" font-family="Helvetica,sans-Serif" font-size="10.00">/lethe/include/core/shape.h</text>
</a>
</g>
</g>
<!-- Node2 -->
<g id="Node000002" class="node">
<title>Node2</title>
<g id="a_Node000002"><a xlink:href="tensors__and__points__dimension__manipulation_8h.html" target="_top" xlink:title=" ">
<polygon fill="white" stroke="#666666" points="262,-162 110,-162 110,-132 262,-132 262,-162"/>
<text text-anchor="start" x="118" y="-150" font-family="Helvetica,sans-Serif" font-size="10.00">core/tensors_and_points</text>
<text text-anchor="middle" x="186" y="-139" font-family="Helvetica,sans-Serif" font-size="10.00">_dimension_manipulation.h</text>
</a>
</g>
</g>
<!-- Node1&#45;&gt;Node2 -->
<g id="edge1_Node000001_Node000002" class="edge">
<title>Node1&#45;&gt;Node2</title>
<g id="a_edge1_Node000001_Node000002"><a xlink:title=" ">
<path fill="none" stroke="#63b8ff" d="M1226.98,-207.75C1028.38,-196.35 484.49,-165.13 272.35,-152.96"/>
<polygon fill="#63b8ff" stroke="#63b8ff" points="272.38,-149.45 262.2,-152.37 271.98,-156.44 272.38,-149.45"/>
</a>
</g>
</g>
<!-- Node5 -->
<g id="Node000005" class="node">
<title>Node5</title>
<g id="a_Node000005"><a xlink:href="utilities_8h.html" target="_top" xlink:title=" ">
<polygon fill="white" stroke="#666666" points="769,-156.5 683,-156.5 683,-137.5 769,-137.5 769,-156.5"/>
<text text-anchor="middle" x="726" y="-144.5" font-family="Helvetica,sans-Serif" font-size="10.00">core/utilities.h</text>
</a>
</g>
</g>
<!-- Node1&#45;&gt;Node5 -->
<g id="edge4_Node000001_Node000005" class="edge">
<title>Node1&#45;&gt;Node5</title>
<g id="a_edge4_Node000001_Node000005"><a xlink:title=" ">
<path fill="none" stroke="#63b8ff" d="M1226.85,-208.83C1125,-203.59 936.41,-190.69 778,-162 773.53,-161.19 768.89,-160.19 764.3,-159.09"/>
<polygon fill="#63b8ff" stroke="#63b8ff" points="764.97,-155.65 754.41,-156.57 763.24,-162.43 764.97,-155.65"/>
</a>
</g>
</g>
<!-- Node11 -->
<g id="Node000011" class="node">
<title>Node11</title>
<g id="a_Node000011"><a xlink:title=" ">
<polygon fill="#e0e0e0" stroke="#999999" points="402,-90.5 262,-90.5 262,-71.5 402,-71.5 402,-90.5"/>
<text text-anchor="middle" x="332" y="-78.5" font-family="Helvetica,sans-Serif" font-size="10.00">deal.II/dofs/dof_handler.h</text>
</a>
</g>
</g>
<!-- Node1&#45;&gt;Node11 -->
<g id="edge31_Node000001_Node000011" class="edge">
<title>Node1&#45;&gt;Node11</title>
<g id="a_edge31_Node000001_Node000011"><a xlink:title=" ">
<path fill="none" stroke="#63b8ff" d="M1226.74,-209.69C1108.94,-205.21 872.26,-192.91 674,-162 563.28,-144.74 435.28,-111.03 371.87,-93.39"/>
<polygon fill="#63b8ff" stroke="#63b8ff" points="372.47,-89.92 361.9,-90.6 370.58,-96.66 372.47,-89.92"/>
</a>
</g>
</g>
<!-- Node23 -->
<g id="Node000023" class="node">
<title>Node23</title>
<g id="a_Node000023"><a xlink:title=" ">
<polygon fill="#e0e0e0" stroke="#999999" points="939,-162 787,-162 787,-132 939,-132 939,-162"/>
<text text-anchor="start" x="795" y="-150" font-family="Helvetica,sans-Serif" font-size="10.00">deal.II/base/auto_derivative</text>
<text text-anchor="middle" x="863" y="-139" font-family="Helvetica,sans-Serif" font-size="10.00">_function.h</text>
</a>
</g>
</g>
<!-- Node1&#45;&gt;Node23 -->
<g id="edge25_Node000001_Node000023" class="edge">
<title>Node1&#45;&gt;Node23</title>
<g id="a_edge25_Node000001_Node000023"><a xlink:title=" ">
<path fill="none" stroke="#63b8ff" d="M1226.77,-201.9C1157.72,-192.4 1051.68,-177.56 949.31,-162.03"/>
<polygon fill="#63b8ff" stroke="#63b8ff" points="949.83,-158.57 939.42,-160.52 948.78,-165.49 949.83,-158.57"/>
</a>
</g>
</g>
<!-- Node24 -->
<g id="Node000024" class="node">
<title>Node24</title>
<g id="a_Node000024"><a xlink:title=" ">
<polygon fill="#e0e0e0" stroke="#999999" points="1082.5,-156.5 957.5,-156.5 957.5,-137.5 1082.5,-137.5 1082.5,-156.5"/>
<text text-anchor="middle" x="1020" y="-144.5" font-family="Helvetica,sans-Serif" font-size="10.00">deal.II/base/function.h</text>
</a>
</g>
</g>
<!-- Node1&#45;&gt;Node24 -->
<g id="edge26_Node000001_Node000024" class="edge">
<title>Node1&#45;&gt;Node24</title>
<g id="a_edge26_Node000001_Node000024"><a xlink:title=" ">
<path fill="none" stroke="#63b8ff" d="M1239.33,-197.95C1187.56,-186.16 1114.66,-169.56 1067.37,-158.79"/>
<polygon fill="#63b8ff" stroke="#63b8ff" points="1067.92,-155.33 1057.4,-156.52 1066.37,-162.15 1067.92,-155.33"/>
</a>
</g>
</g>
<!-- Node25 -->
<g id="Node000025" class="node">
<title>Node25</title>
<g id="a_Node000025"><a xlink:title=" ">
<polygon fill="#e0e0e0" stroke="#999999" points="1225,-156.5 1101,-156.5 1101,-137.5 1225,-137.5 1225,-156.5"/>
<text text-anchor="middle" x="1163" y="-144.5" font-family="Helvetica,sans-Serif" font-size="10.00">deal.II/grid/manifold.h</text>
</a>
</g>
</g>
<!-- Node1&#45;&gt;Node25 -->
<g id="edge27_Node000001_Node000025" class="edge">
<title>Node1&#45;&gt;Node25</title>
<g id="a_edge27_Node000001_Node000025"><a xlink:title=" ">
<path fill="none" stroke="#63b8ff" d="M1270.72,-197.95C1246.83,-186.88 1213.8,-171.56 1190.64,-160.82"/>
<polygon fill="#63b8ff" stroke="#63b8ff" points="1191.91,-157.55 1181.37,-156.52 1188.96,-163.9 1191.91,-157.55"/>
</a>
</g>
</g>
<!-- Node26 -->
<g id="Node000026" class="node">
<title>Node26</title>
<g id="a_Node000026"><a xlink:title=" ">
<polygon fill="#e0e0e0" stroke="#999999" points="1358.5,-162 1243.5,-162 1243.5,-132 1358.5,-132 1358.5,-162"/>
<text text-anchor="start" x="1251.5" y="-150" font-family="Helvetica,sans-Serif" font-size="10.00">deal.II/grid/manifold</text>
<text text-anchor="middle" x="1301" y="-139" font-family="Helvetica,sans-Serif" font-size="10.00">_lib.h</text>
</a>
</g>
</g>
<!-- Node1&#45;&gt;Node26 -->
<g id="edge28_Node000001_Node000026" class="edge">
<title>Node1&#45;&gt;Node26</title>
<g id="a_edge28_Node000001_Node000026"><a xlink:title=" ">
<path fill="none" stroke="#63b8ff" d="M1301,-197.8C1301,-190.34 1301,-180.99 1301,-172.41"/>
<polygon fill="#63b8ff" stroke="#63b8ff" points="1304.5,-172.16 1301,-162.16 1297.5,-172.16 1304.5,-172.16"/>
</a>
</g>
</g>
<!-- Node27 -->
<g id="Node000027" class="node">
<title>Node27</title>
<g id="a_Node000027"><a xlink:title=" ">
<polygon fill="#e0e0e0" stroke="#999999" points="1491.5,-162 1376.5,-162 1376.5,-132 1491.5,-132 1491.5,-162"/>
<text text-anchor="start" x="1384.5" y="-150" font-family="Helvetica,sans-Serif" font-size="10.00">boost/range/adaptor</text>
<text text-anchor="middle" x="1434" y="-139" font-family="Helvetica,sans-Serif" font-size="10.00">/map.hpp</text>
</a>
</g>
</g>
<!-- Node1&#45;&gt;Node27 -->
<g id="edge29_Node000001_Node000027" class="edge">
<title>Node1&#45;&gt;Node27</title>
<g id="a_edge29_Node000001_Node000027"><a xlink:title=" ">
<path fill="none" stroke="#63b8ff" d="M1330.19,-197.95C1349.42,-188.7 1374.8,-176.49 1395.66,-166.45"/>
<polygon fill="#63b8ff" stroke="#63b8ff" points="1397.39,-169.5 1404.88,-162.01 1394.35,-163.19 1397.39,-169.5"/>
</a>
</g>
</g>
<!-- Node28 -->
<g id="Node000028" class="node">
<title>Node28</title>
<g id="a_Node000028"><a xlink:title=" ">
<polygon fill="#e0e0e0" stroke="#999999" points="1626,-162 1510,-162 1510,-132 1626,-132 1626,-162"/>
<text text-anchor="start" x="1518" y="-150" font-family="Helvetica,sans-Serif" font-size="10.00">deal.II/base/function</text>
<text text-anchor="middle" x="1568" y="-139" font-family="Helvetica,sans-Serif" font-size="10.00">_signed_distance.h</text>
</a>
</g>
</g>
<!-- Node1&#45;&gt;Node28 -->
<g id="edge30_Node000001_Node000028" class="edge">
<title>Node1&#45;&gt;Node28</title>
<g id="a_edge30_Node000001_Node000028"><a xlink:title=" ">
<path fill="none" stroke="#63b8ff" d="M1359.59,-197.95C1400.89,-188.06 1456.34,-174.77 1499.65,-164.38"/>
<polygon fill="#63b8ff" stroke="#63b8ff" points="1500.63,-167.75 1509.54,-162.01 1499,-160.94 1500.63,-167.75"/>
</a>
</g>
</g>
<!-- Node29 -->
<g id="Node000029" class="node">
<title>Node29</title>
<g id="a_Node000029"><a xlink:title=" ">
<polygon fill="#e0e0e0" stroke="#999999" points="1772,-156.5 1644,-156.5 1644,-137.5 1772,-137.5 1772,-156.5"/>
<text text-anchor="middle" x="1708" y="-144.5" font-family="Helvetica,sans-Serif" font-size="10.00">deal.II/dofs/dof_tools.h</text>
</a>
</g>
</g>
<!-- Node1&#45;&gt;Node29 -->
<g id="edge32_Node000001_Node000029" class="edge">
<title>Node1&#45;&gt;Node29</title>
<g id="a_edge32_Node000001_Node000029"><a xlink:title=" ">
<path fill="none" stroke="#63b8ff" d="M1375.1,-201.79C1442.87,-192.25 1545.85,-177.22 1635,-162 1641.58,-160.88 1648.48,-159.64 1655.31,-158.37"/>
<polygon fill="#63b8ff" stroke="#63b8ff" points="1656.02,-161.8 1665.21,-156.51 1654.73,-154.92 1656.02,-161.8"/>
</a>
</g>
</g>
<!-- Node30 -->
<g id="Node000030" class="node">
<title>Node30</title>
<g id="a_Node000030"><a xlink:title=" ">
<polygon fill="#e0e0e0" stroke="#999999" points="1966,-156.5 1790,-156.5 1790,-137.5 1966,-137.5 1966,-156.5"/>
<text text-anchor="middle" x="1878" y="-144.5" font-family="Helvetica,sans-Serif" font-size="10.00">deal.II/physics/transformations.h</text>
</a>
</g>
</g>
<!-- Node1&#45;&gt;Node30 -->
<g id="edge33_Node000001_Node000030" class="edge">
<title>Node1&#45;&gt;Node30</title>
<g id="a_edge33_Node000001_Node000030"><a xlink:title=" ">
<path fill="none" stroke="#63b8ff" d="M1375.11,-205.2C1469.5,-196.32 1637.57,-179.81 1781,-162 1790.88,-160.77 1801.31,-159.38 1811.52,-157.95"/>
<polygon fill="#63b8ff" stroke="#63b8ff" points="1812.22,-161.39 1821.63,-156.52 1811.24,-154.46 1812.22,-161.39"/>
</a>
</g>
</g>
<!-- Node31 -->
<g id="Node000031" class="node">
<title>Node31</title>
<g id="a_Node000031"><a xlink:title=" ">
<polygon fill="#e0e0e0" stroke="#999999" points="2028,-156.5 1984,-156.5 1984,-137.5 2028,-137.5 2028,-156.5"/>
<text text-anchor="middle" x="2006" y="-144.5" font-family="Helvetica,sans-Serif" font-size="10.00">cfloat</text>
</a>
</g>
</g>
<!-- Node1&#45;&gt;Node31 -->
<g id="edge34_Node000001_Node000031" class="edge">
<title>Node1&#45;&gt;Node31</title>
<g id="a_edge34_Node000001_Node000031"><a xlink:title=" ">
<path fill="none" stroke="#63b8ff" d="M1375.2,-209.76C1525.96,-204.67 1863.28,-190.42 1975,-162 1976.73,-161.56 1978.49,-161.03 1980.24,-160.43"/>
<polygon fill="#63b8ff" stroke="#63b8ff" points="1982,-163.49 1989.98,-156.52 1979.39,-157 1982,-163.49"/>
</a>
</g>
</g>
<!-- Node32 -->
<g id="Node000032" class="node">
<title>Node32</title>
<g id="a_Node000032"><a xlink:title=" ">
<polygon fill="#e0e0e0" stroke="#999999" points="2104,-156.5 2046,-156.5 2046,-137.5 2104,-137.5 2104,-156.5"/>
<text text-anchor="middle" x="2075" y="-144.5" font-family="Helvetica,sans-Serif" font-size="10.00">memory</text>
</a>
</g>
</g>
<!-- Node1&#45;&gt;Node32 -->
<g id="edge35_Node000001_Node000032" class="edge">
<title>Node1&#45;&gt;Node32</title>
<g id="a_edge35_Node000001_Node000032"><a xlink:title=" ">
<path fill="none" stroke="#63b8ff" d="M1375.07,-209.65C1535.82,-204.1 1912.22,-188.65 2037,-162 2039.84,-161.39 2042.75,-160.62 2045.63,-159.75"/>
<polygon fill="#63b8ff" stroke="#63b8ff" points="2046.85,-163.03 2055.2,-156.5 2044.61,-156.4 2046.85,-163.03"/>
</a>
</g>
</g>
<!-- Node3 -->
<g id="Node000003" class="node">
<title>Node3</title>
<g id="a_Node000003"><a xlink:title=" ">
<polygon fill="#e0e0e0" stroke="#999999" points="110,-90.5 0,-90.5 0,-71.5 110,-71.5 110,-90.5"/>
<text text-anchor="middle" x="55" y="-78.5" font-family="Helvetica,sans-Serif" font-size="10.00">deal.II/base/point.h</text>
</a>
</g>
</g>
<!-- Node2&#45;&gt;Node3 -->
<g id="edge2_Node000002_Node000003" class="edge">
<title>Node2&#45;&gt;Node3</title>
<g id="a_edge2_Node000002_Node000003"><a xlink:title=" ">
<path fill="none" stroke="#63b8ff" d="M157.25,-131.95C134.68,-120.93 103.51,-105.7 81.53,-94.96"/>
<polygon fill="#63b8ff" stroke="#63b8ff" points="82.96,-91.76 72.43,-90.52 79.88,-98.05 82.96,-91.76"/>
</a>
</g>
</g>
<!-- Node4 -->
<g id="Node000004" class="node">
<title>Node4</title>
<g id="a_Node000004"><a xlink:title=" ">
<polygon fill="#e0e0e0" stroke="#999999" points="243.5,-90.5 128.5,-90.5 128.5,-71.5 243.5,-71.5 243.5,-90.5"/>
<text text-anchor="middle" x="186" y="-78.5" font-family="Helvetica,sans-Serif" font-size="10.00">deal.II/base/tensor.h</text>
</a>
</g>
</g>
<!-- Node2&#45;&gt;Node4 -->
<g id="edge3_Node000002_Node000004" class="edge">
<title>Node2&#45;&gt;Node4</title>
<g id="a_edge3_Node000002_Node000004"><a xlink:title=" ">
<path fill="none" stroke="#63b8ff" d="M186,-131.8C186,-122.7 186,-110.79 186,-100.9"/>
<polygon fill="#63b8ff" stroke="#63b8ff" points="189.5,-100.84 186,-90.84 182.5,-100.84 189.5,-100.84"/>
</a>
</g>
</g>
<!-- Node5&#45;&gt;Node3 -->
<g id="edge10_Node000005_Node000003" class="edge">
<title>Node5&#45;&gt;Node3</title>
<g id="a_edge10_Node000005_Node000003"><a xlink:title=" ">
<path fill="none" stroke="#63b8ff" d="M682.72,-144.42C582.88,-140.33 328.93,-127.46 119,-96 112.8,-95.07 106.3,-93.89 99.92,-92.62"/>
<polygon fill="#63b8ff" stroke="#63b8ff" points="100.56,-89.17 90.05,-90.55 99.12,-96.02 100.56,-89.17"/>
</a>
</g>
</g>
<!-- Node5&#45;&gt;Node4 -->
<g id="edge12_Node000005_Node000004" class="edge">
<title>Node5&#45;&gt;Node4</title>
<g id="a_edge12_Node000005_Node000004"><a xlink:title=" ">
<path fill="none" stroke="#63b8ff" d="M682.77,-142.89C599.33,-136.58 410.44,-120.71 253,-96 246.68,-95.01 240.06,-93.82 233.54,-92.55"/>
<polygon fill="#63b8ff" stroke="#63b8ff" points="233.93,-89.06 223.44,-90.52 232.55,-95.92 233.93,-89.06"/>
</a>
</g>
</g>
<!-- Node6 -->
<g id="Node000006" class="node">
<title>Node6</title>
<g id="a_Node000006"><a xlink:href="output__struct_8h.html" target="_top" xlink:title=" ">
<polygon fill="white" stroke="#666666" points="951,-90.5 837,-90.5 837,-71.5 951,-71.5 951,-90.5"/>
<text text-anchor="middle" x="894" y="-78.5" font-family="Helvetica,sans-Serif" font-size="10.00">core/output_struct.h</text>
</a>
</g>
</g>
<!-- Node5&#45;&gt;Node6 -->
<g id="edge5_Node000005_Node000006" class="edge">
<title>Node5&#45;&gt;Node6</title>
<g id="a_edge5_Node000005_Node000006"><a xlink:title=" ">
<path fill="none" stroke="#63b8ff" d="M748.66,-137.37C777.8,-126.27 828.59,-106.92 861.75,-94.28"/>
<polygon fill="#63b8ff" stroke="#63b8ff" points="863.34,-97.43 871.43,-90.6 860.84,-90.89 863.34,-97.43"/>
</a>
</g>
</g>
<!-- Node7 -->
<g id="Node000007" class="node">
<title>Node7</title>
<g id="a_Node000007"><a xlink:title=" ">
<polygon fill="#e0e0e0" stroke="#999999" points="859.5,-30 758.5,-30 758.5,0 859.5,0 859.5,-30"/>
<text text-anchor="start" x="766.5" y="-18" font-family="Helvetica,sans-Serif" font-size="10.00">deal.II/base/table</text>
<text text-anchor="middle" x="809" y="-7" font-family="Helvetica,sans-Serif" font-size="10.00">_handler.h</text>
</a>
</g>
</g>
<!-- Node5&#45;&gt;Node7 -->
<g id="edge11_Node000005_Node000007" class="edge">
<title>Node5&#45;&gt;Node7</title>
<g id="a_edge11_Node000005_Node000007"><a xlink:title=" ">
<path fill="none" stroke="#63b8ff" d="M741.93,-137.45C756.39,-128.87 777.2,-114.31 789,-96 799.81,-79.22 804.78,-56.98 807.06,-40.21"/>
<polygon fill="#63b8ff" stroke="#63b8ff" points="810.56,-40.42 808.21,-30.09 803.61,-39.64 810.56,-40.42"/>
</a>
</g>
</g>
<!-- Node9 -->
<g id="Node000009" class="node">
<title>Node9</title>
<g id="a_Node000009"><a xlink:title=" ">
<polygon fill="#e0e0e0" stroke="#999999" points="1099,-96 969,-96 969,-66 1099,-66 1099,-96"/>
<text text-anchor="start" x="977" y="-84" font-family="Helvetica,sans-Serif" font-size="10.00">deal.II/base/conditional</text>
<text text-anchor="middle" x="1034" y="-73" font-family="Helvetica,sans-Serif" font-size="10.00">_ostream.h</text>
</a>
</g>
</g>
<!-- Node5&#45;&gt;Node9 -->
<g id="edge8_Node000005_Node000009" class="edge">
<title>Node5&#45;&gt;Node9</title>
<g id="a_edge8_Node000005_Node000009"><a xlink:title=" ">
<path fill="none" stroke="#63b8ff" d="M756.16,-137.5C763.29,-135.59 770.9,-133.65 778,-132 795.5,-127.94 889.68,-109.7 958.75,-96.42"/>
<polygon fill="#63b8ff" stroke="#63b8ff" points="959.58,-99.82 968.74,-94.5 958.26,-92.95 959.58,-99.82"/>
</a>
</g>
</g>
<!-- Node10 -->
<g id="Node000010" class="node">
<title>Node10</title>
<g id="a_Node000010"><a xlink:title=" ">
<polygon fill="#e0e0e0" stroke="#999999" points="1244.5,-96 1117.5,-96 1117.5,-66 1244.5,-66 1244.5,-96"/>
<text text-anchor="start" x="1125.5" y="-84" font-family="Helvetica,sans-Serif" font-size="10.00">deal.II/base/parameter</text>
<text text-anchor="middle" x="1181" y="-73" font-family="Helvetica,sans-Serif" font-size="10.00">_handler.h</text>
</a>
</g>
</g>
<!-- Node5&#45;&gt;Node10 -->
<g id="edge9_Node000005_Node000010" class="edge">
<title>Node5&#45;&gt;Node10</title>
<g id="a_edge9_Node000005_Node000010"><a xlink:title=" ">
<path fill="none" stroke="#63b8ff" d="M754.43,-137.5C762.03,-135.46 770.28,-133.45 778,-132 919.74,-105.35 960.29,-117.34 1107.06,-96.04"/>
<polygon fill="#63b8ff" stroke="#63b8ff" points="1107.97,-99.45 1117.35,-94.52 1106.95,-92.52 1107.97,-99.45"/>
</a>
</g>
</g>
<!-- Node5&#45;&gt;Node11 -->
<g id="edge13_Node000005_Node000011" class="edge">
<title>Node5&#45;&gt;Node11</title>
<g id="a_edge13_Node000005_Node000011"><a xlink:title=" ">
<path fill="none" stroke="#63b8ff" d="M682.91,-139.41C622.2,-130.07 508.06,-112.3 411,-96 403.92,-94.81 396.48,-93.53 389.13,-92.25"/>
<polygon fill="#63b8ff" stroke="#63b8ff" points="389.64,-88.78 379.18,-90.5 388.43,-95.68 389.64,-88.78"/>
</a>
</g>
</g>
<!-- Node12 -->
<g id="Node000012" class="node">
<title>Node12</title>
<g id="a_Node000012"><a xlink:title=" ">
<polygon fill="#e0e0e0" stroke="#999999" points="1381.5,-90.5 1262.5,-90.5 1262.5,-71.5 1381.5,-71.5 1381.5,-90.5"/>
<text text-anchor="middle" x="1322" y="-78.5" font-family="Helvetica,sans-Serif" font-size="10.00">deal.II/fe/fe_values.h</text>
</a>
</g>
</g>
<!-- Node5&#45;&gt;Node12 -->
<g id="edge14_Node000005_Node000012" class="edge">
<title>Node5&#45;&gt;Node12</title>
<g id="a_edge14_Node000005_Node000012"><a xlink:title=" ">
<path fill="none" stroke="#63b8ff" d="M753.85,-137.47C761.61,-135.38 770.07,-133.35 778,-132 987.13,-96.27 1043.89,-125.45 1254,-96 1260.74,-95.06 1267.81,-93.85 1274.74,-92.54"/>
<polygon fill="#63b8ff" stroke="#63b8ff" points="1275.6,-95.93 1284.74,-90.56 1274.25,-89.07 1275.6,-95.93"/>
</a>
</g>
</g>
<!-- Node13 -->
<g id="Node000013" class="node">
<title>Node13</title>
<g id="a_Node000013"><a xlink:title=" ">
<polygon fill="#e0e0e0" stroke="#999999" points="1530.5,-96 1399.5,-96 1399.5,-66 1530.5,-66 1530.5,-96"/>
<text text-anchor="start" x="1407.5" y="-84" font-family="Helvetica,sans-Serif" font-size="10.00">deal.II/particles/particle</text>
<text text-anchor="middle" x="1465" y="-73" font-family="Helvetica,sans-Serif" font-size="10.00">_iterator.h</text>
</a>
</g>
</g>
<!-- Node5&#45;&gt;Node13 -->
<g id="edge15_Node000005_Node000013" class="edge">
<title>Node5&#45;&gt;Node13</title>
<g id="a_edge15_Node000005_Node000013"><a xlink:title=" ">
<path fill="none" stroke="#63b8ff" d="M753.57,-137.45C761.39,-135.34 769.97,-133.3 778,-132 1044.1,-88.83 1118.34,-128.44 1389.17,-96.11"/>
<polygon fill="#63b8ff" stroke="#63b8ff" points="1389.8,-99.56 1399.3,-94.88 1388.95,-92.62 1389.8,-99.56"/>
</a>
</g>
</g>
<!-- Node14 -->
<g id="Node000014" class="node">
<title>Node14</title>
<g id="a_Node000014"><a xlink:title=" ">
<polygon fill="#e0e0e0" stroke="#999999" points="1653.5,-96 1548.5,-96 1548.5,-66 1653.5,-66 1653.5,-96"/>
<text text-anchor="start" x="1556.5" y="-84" font-family="Helvetica,sans-Serif" font-size="10.00">boost/archive/text</text>
<text text-anchor="middle" x="1601" y="-73" font-family="Helvetica,sans-Serif" font-size="10.00">_iarchive.hpp</text>
</a>
</g>
</g>
<!-- Node5&#45;&gt;Node14 -->
<g id="edge16_Node000005_Node000014" class="edge">
<title>Node5&#45;&gt;Node14</title>
<g id="a_edge16_Node000005_Node000014"><a xlink:title=" ">
<path fill="none" stroke="#63b8ff" d="M753.29,-137.47C761.19,-135.32 769.87,-133.27 778,-132 1109.7,-80.14 1202.3,-140.89 1538.2,-96.08"/>
<polygon fill="#63b8ff" stroke="#63b8ff" points="1538.77,-99.53 1548.21,-94.72 1537.83,-92.6 1538.77,-99.53"/>
</a>
</g>
</g>
<!-- Node15 -->
<g id="Node000015" class="node">
<title>Node15</title>
<g id="a_Node000015"><a xlink:title=" ">
<polygon fill="#e0e0e0" stroke="#999999" points="1776.5,-96 1671.5,-96 1671.5,-66 1776.5,-66 1776.5,-96"/>
<text text-anchor="start" x="1679.5" y="-84" font-family="Helvetica,sans-Serif" font-size="10.00">boost/archive/text</text>
<text text-anchor="middle" x="1724" y="-73" font-family="Helvetica,sans-Serif" font-size="10.00">_oarchive.hpp</text>
</a>
</g>
</g>
<!-- Node5&#45;&gt;Node15 -->
<g id="edge17_Node000005_Node000015" class="edge">
<title>Node5&#45;&gt;Node15</title>
<g id="a_edge17_Node000005_Node000015"><a xlink:title=" ">
<path fill="none" stroke="#63b8ff" d="M753.28,-137.43C761.18,-135.29 769.87,-133.24 778,-132 1163.81,-72.97 1271,-146.97 1661.06,-96.09"/>
<polygon fill="#63b8ff" stroke="#63b8ff" points="1661.75,-99.53 1671.21,-94.74 1660.84,-92.59 1661.75,-99.53"/>
</a>
</g>
</g>
<!-- Node16 -->
<g id="Node000016" class="node">
<title>Node16</title>
<g id="a_Node000016"><a xlink:title=" ">
<polygon fill="#e0e0e0" stroke="#999999" points="1905,-96 1795,-96 1795,-66 1905,-66 1905,-96"/>
<text text-anchor="start" x="1803" y="-84" font-family="Helvetica,sans-Serif" font-size="10.00">boost/math/special</text>
<text text-anchor="middle" x="1850" y="-73" font-family="Helvetica,sans-Serif" font-size="10.00">_functions/erf.hpp</text>
</a>
</g>
</g>
<!-- Node5&#45;&gt;Node16 -->
<g id="edge18_Node000005_Node000016" class="edge">
<title>Node5&#45;&gt;Node16</title>
<g id="a_edge18_Node000005_Node000016"><a xlink:title=" ">
<path fill="none" stroke="#63b8ff" d="M753.01,-137.48C760.98,-135.31 769.77,-133.24 778,-132 1217.94,-65.8 1339.41,-150.82 1784.71,-95.98"/>
<polygon fill="#63b8ff" stroke="#63b8ff" points="1785.46,-99.41 1794.95,-94.7 1784.59,-92.47 1785.46,-99.41"/>
</a>
</g>
</g>
<!-- Node17 -->
<g id="Node000017" class="node">
<title>Node17</title>
<g id="a_Node000017"><a xlink:title=" ">
<polygon fill="#e0e0e0" stroke="#999999" points="475.5,-90.5 420.5,-90.5 420.5,-71.5 475.5,-71.5 475.5,-90.5"/>
<text text-anchor="middle" x="448" y="-78.5" font-family="Helvetica,sans-Serif" font-size="10.00">fstream</text>
</a>
</g>
</g>
<!-- Node5&#45;&gt;Node17 -->
<g id="edge19_Node000005_Node000017" class="edge">
<title>Node5&#45;&gt;Node17</title>
<g id="a_edge19_Node000005_Node000017"><a xlink:title=" ">
<path fill="none" stroke="#63b8ff" d="M682.84,-139.15C634.22,-130.96 553.11,-115.82 485,-96 482.86,-95.38 480.66,-94.69 478.46,-93.95"/>
<polygon fill="#63b8ff" stroke="#63b8ff" points="479.53,-90.62 468.94,-90.58 477.19,-97.22 479.53,-90.62"/>
</a>
</g>
</g>
<!-- Node18 -->
<g id="Node000018" class="node">
<title>Node18</title>
<g id="a_Node000018"><a xlink:title=" ">
<polygon fill="#e0e0e0" stroke="#999999" points="532,-90.5 494,-90.5 494,-71.5 532,-71.5 532,-90.5"/>
<text text-anchor="middle" x="513" y="-78.5" font-family="Helvetica,sans-Serif" font-size="10.00">map</text>
</a>
</g>
</g>
<!-- Node5&#45;&gt;Node18 -->
<g id="edge20_Node000005_Node000018" class="edge">
<title>Node5&#45;&gt;Node18</title>
<g id="a_edge20_Node000005_Node000018"><a xlink:title=" ">
<path fill="none" stroke="#63b8ff" d="M685.21,-137.44C647.22,-128.9 589.35,-114.41 541,-96 539.98,-95.61 538.96,-95.2 537.92,-94.77"/>
<polygon fill="#63b8ff" stroke="#63b8ff" points="539.29,-91.55 528.74,-90.56 536.37,-97.91 539.29,-91.55"/>
</a>
</g>
</g>
<!-- Node19 -->
<g id="Node000019" class="node">
<title>Node19</title>
<g id="a_Node000019"><a xlink:title=" ">
<polygon fill="#e0e0e0" stroke="#999999" points="594,-90.5 550,-90.5 550,-71.5 594,-71.5 594,-90.5"/>
<text text-anchor="middle" x="572" y="-78.5" font-family="Helvetica,sans-Serif" font-size="10.00">regex</text>
</a>
</g>
</g>
<!-- Node5&#45;&gt;Node19 -->
<g id="edge21_Node000005_Node000019" class="edge">
<title>Node5&#45;&gt;Node19</title>
<g id="a_edge21_Node000005_Node000019"><a xlink:title=" ">
<path fill="none" stroke="#63b8ff" d="M704.12,-137.4C679.44,-127.63 638.17,-111.08 603,-96 602,-95.57 600.98,-95.13 599.95,-94.68"/>
<polygon fill="#63b8ff" stroke="#63b8ff" points="601.2,-91.41 590.64,-90.56 598.36,-97.81 601.2,-91.41"/>
</a>
</g>
</g>
<!-- Node20 -->
<g id="Node000020" class="node">
<title>Node20</title>
<g id="a_Node000020"><a xlink:title=" ">
<polygon fill="#e0e0e0" stroke="#999999" points="656,-90.5 612,-90.5 612,-71.5 656,-71.5 656,-90.5"/>
<text text-anchor="middle" x="634" y="-78.5" font-family="Helvetica,sans-Serif" font-size="10.00">string</text>
</a>
</g>
</g>
<!-- Node5&#45;&gt;Node20 -->
<g id="edge22_Node000005_Node000020" class="edge">
<title>Node5&#45;&gt;Node20</title>
<g id="a_edge22_Node000005_Node000020"><a xlink:title=" ">
<path fill="none" stroke="#63b8ff" d="M713.59,-137.37C698.64,-126.97 673.28,-109.32 655.2,-96.75"/>
<polygon fill="#63b8ff" stroke="#63b8ff" points="656.71,-93.54 646.5,-90.7 652.72,-99.28 656.71,-93.54"/>
</a>
</g>
</g>
<!-- Node21 -->
<g id="Node000021" class="node">
<title>Node21</title>
<g id="a_Node000021"><a xlink:title=" ">
<polygon fill="#e0e0e0" stroke="#999999" points="715.5,-90.5 674.5,-90.5 674.5,-71.5 715.5,-71.5 715.5,-90.5"/>
<text text-anchor="middle" x="695" y="-78.5" font-family="Helvetica,sans-Serif" font-size="10.00">tuple</text>
</a>
</g>
</g>
<!-- Node5&#45;&gt;Node21 -->
<g id="edge23_Node000005_Node000021" class="edge">
<title>Node5&#45;&gt;Node21</title>
<g id="a_edge23_Node000005_Node000021"><a xlink:title=" ">
<path fill="none" stroke="#63b8ff" d="M721.82,-137.37C717.22,-127.88 709.71,-112.36 703.8,-100.16"/>
<polygon fill="#63b8ff" stroke="#63b8ff" points="706.82,-98.38 699.31,-90.91 700.52,-101.43 706.82,-98.38"/>
</a>
</g>
</g>
<!-- Node22 -->
<g id="Node000022" class="node">
<title>Node22</title>
<g id="a_Node000022"><a xlink:title=" ">
<polygon fill="#e0e0e0" stroke="#999999" points="780.5,-90.5 733.5,-90.5 733.5,-71.5 780.5,-71.5 780.5,-90.5"/>
<text text-anchor="middle" x="757" y="-78.5" font-family="Helvetica,sans-Serif" font-size="10.00">vector</text>
</a>
</g>
</g>
<!-- Node5&#45;&gt;Node22 -->
<g id="edge24_Node000005_Node000022" class="edge">
<title>Node5&#45;&gt;Node22</title>
<g id="a_edge24_Node000005_Node000022"><a xlink:title=" ">
<path fill="none" stroke="#63b8ff" d="M730.18,-137.37C734.78,-127.88 742.29,-112.36 748.2,-100.16"/>
<polygon fill="#63b8ff" stroke="#63b8ff" points="751.48,-101.43 752.69,-90.91 745.18,-98.38 751.48,-101.43"/>
</a>
</g>
</g>
<!-- Node6&#45;&gt;Node7 -->
<g id="edge6_Node000006_Node000007" class="edge">
<title>Node6&#45;&gt;Node7</title>
<g id="a_edge6_Node000006_Node000007"><a xlink:title=" ">
<path fill="none" stroke="#63b8ff" d="M882.54,-71.37C870.68,-62.44 851.75,-48.19 836.06,-36.38"/>
<polygon fill="#63b8ff" stroke="#63b8ff" points="837.84,-33.33 827.75,-30.12 833.63,-38.93 837.84,-33.33"/>
</a>
</g>
</g>
<!-- Node8 -->
<g id="Node000008" class="node">
<title>Node8</title>
<g id="a_Node000008"><a xlink:title=" ">
<polygon fill="#e0e0e0" stroke="#999999" points="996.5,-30 877.5,-30 877.5,0 996.5,0 996.5,-30"/>
<text text-anchor="start" x="885.5" y="-18" font-family="Helvetica,sans-Serif" font-size="10.00">deal.II/numerics/data</text>
<text text-anchor="middle" x="937" y="-7" font-family="Helvetica,sans-Serif" font-size="10.00">_postprocessor.h</text>
</a>
</g>
</g>
<!-- Node6&#45;&gt;Node8 -->
<g id="edge7_Node000006_Node000008" class="edge">
<title>Node6&#45;&gt;Node8</title>
<g id="a_edge7_Node000006_Node000008"><a xlink:title=" ">
<path fill="none" stroke="#63b8ff" d="M899.8,-71.37C905.37,-63.08 914.03,-50.18 921.6,-38.92"/>
<polygon fill="#63b8ff" stroke="#63b8ff" points="924.68,-40.61 927.35,-30.36 918.87,-36.71 924.68,-40.61"/>
</a>
</g>
</g>
</g>
</svg>
