<?xml version="1.0" encoding="UTF-8" standalone="no"?>
<!DOCTYPE svg PUBLIC "-//W3C//DTD SVG 1.1//EN"
 "http://www.w3.org/Graphics/SVG/1.1/DTD/svg11.dtd">
<!-- Generated by graphviz version 2.43.0 (0)
 -->
<!-- Title: /home/runner/work/lethe/lethe/source/core/simulation_control.cc Pages: 1 -->
<svg width="960pt" height="478pt"
 viewBox="0.00 0.00 960.00 478.00" xmlns="http://www.w3.org/2000/svg" xmlns:xlink="http://www.w3.org/1999/xlink">
<g id="graph0" class="graph" transform="scale(1 1) rotate(0) translate(4 474)">
<title>/home/runner/work/lethe/lethe/source/core/simulation_control.cc</title>
<!-- Node1 -->
<g id="Node000001" class="node">
<title>Node1</title>
<g id="a_Node000001"><a xlink:title=" ">
<polygon fill="#999999" stroke="#666666" points="873,-470 715,-470 715,-429 873,-429 873,-470"/>
<text text-anchor="start" x="723" y="-458" font-family="Helvetica,sans-Serif" font-size="10.00">/home/runner/work/lethe</text>
<text text-anchor="start" x="723" y="-447" font-family="Helvetica,sans-Serif" font-size="10.00">/lethe/source/core/simulation</text>
<text text-anchor="middle" x="794" y="-436" font-family="Helvetica,sans-Serif" font-size="10.00">_control.cc</text>
</a>
</g>
</g>
<!-- Node2 -->
<g id="Node000002" class="node">
<title>Node2</title>
<g id="a_Node000002"><a xlink:href="simulation__control_8h.html" target="_top" xlink:title="Simulation control classes for managing time&#45;stepping and iteration control in Lethe.">
<polygon fill="white" stroke="#666666" points="572,-393 432,-393 432,-374 572,-374 572,-393"/>
<text text-anchor="middle" x="502" y="-381" font-family="Helvetica,sans-Serif" font-size="10.00">core/simulation_control.h</text>
</a>
</g>
</g>
<!-- Node1&#45;&gt;Node2 -->
<g id="edge1_Node000001_Node000002" class="edge">
<title>Node1&#45;&gt;Node2</title>
<g id="a_edge1_Node000001_Node000002"><a xlink:title=" ">
<path fill="none" stroke="#63b8ff" d="M714.98,-431.18C662.64,-419.71 595.65,-405.03 550.91,-395.22"/>
<polygon fill="#63b8ff" stroke="#63b8ff" points="551.39,-391.74 540.87,-393.02 549.89,-398.58 551.39,-391.74"/>
</a>
</g>
</g>
<!-- Node26 -->
<g id="Node000026" class="node">
<title>Node26</title>
<g id="a_Node000026"><a xlink:title=" ">
<polygon fill="#e0e0e0" stroke="#999999" points="812.5,-24.5 757.5,-24.5 757.5,-5.5 812.5,-5.5 812.5,-24.5"/>
<text text-anchor="middle" x="785" y="-12.5" font-family="Helvetica,sans-Serif" font-size="10.00">fstream</text>
</a>
</g>
</g>
<!-- Node1&#45;&gt;Node26 -->
<g id="edge29_Node000001_Node000026" class="edge">
<title>Node1&#45;&gt;Node26</title>
<g id="a_edge29_Node000001_Node000026"><a xlink:title=" ">
<path fill="none" stroke="#63b8ff" d="M794,-428.66C794,-404.09 794,-360.96 794,-324 794,-324 794,-324 794,-135 794,-99.55 789.98,-58.33 787.31,-34.89"/>
<polygon fill="#63b8ff" stroke="#63b8ff" points="790.75,-34.16 786.1,-24.64 783.8,-34.98 790.75,-34.16"/>
</a>
</g>
</g>
<!-- Node38 -->
<g id="Node000038" class="node">
<title>Node38</title>
<g id="a_Node000038"><a xlink:title=" ">
<polygon fill="#e0e0e0" stroke="#999999" points="579,-85 535,-85 535,-66 579,-66 579,-85"/>
<text text-anchor="middle" x="557" y="-73" font-family="Helvetica,sans-Serif" font-size="10.00">cfloat</text>
</a>
</g>
</g>
<!-- Node1&#45;&gt;Node38 -->
<g id="edge28_Node000001_Node000038" class="edge">
<title>Node1&#45;&gt;Node38</title>
<g id="a_edge28_Node000001_Node000038"><a xlink:title=" ">
<path fill="none" stroke="#63b8ff" d="M772.42,-428.74C749.96,-405.91 718,-366.04 718,-324 718,-324 718,-324 718,-201 718,-136.32 635.67,-100.48 588.76,-85.31"/>
<polygon fill="#63b8ff" stroke="#63b8ff" points="589.64,-81.92 579.05,-82.3 587.56,-88.6 589.64,-81.92"/>
</a>
</g>
</g>
<!-- Node45 -->
<g id="Node000045" class="node">
<title>Node45</title>
<g id="a_Node000045"><a xlink:title=" ">
<polygon fill="#e0e0e0" stroke="#999999" points="878,-393 822,-393 822,-374 878,-374 878,-393"/>
<text text-anchor="middle" x="850" y="-381" font-family="Helvetica,sans-Serif" font-size="10.00">iomanip</text>
</a>
</g>
</g>
<!-- Node1&#45;&gt;Node45 -->
<g id="edge30_Node000001_Node000045" class="edge">
<title>Node1&#45;&gt;Node45</title>
<g id="a_edge30_Node000001_Node000045"><a xlink:title=" ">
<path fill="none" stroke="#63b8ff" d="M811.11,-428.95C818.92,-420.02 828.08,-409.55 835.55,-401.02"/>
<polygon fill="#63b8ff" stroke="#63b8ff" points="838.38,-403.09 842.33,-393.26 833.12,-398.48 838.38,-403.09"/>
</a>
</g>
</g>
<!-- Node46 -->
<g id="Node000046" class="node">
<title>Node46</title>
<g id="a_Node000046"><a xlink:title=" ">
<polygon fill="#e0e0e0" stroke="#999999" points="952,-393 896,-393 896,-374 952,-374 952,-393"/>
<text text-anchor="middle" x="924" y="-381" font-family="Helvetica,sans-Serif" font-size="10.00">sstream</text>
</a>
</g>
</g>
<!-- Node1&#45;&gt;Node46 -->
<g id="edge31_Node000001_Node000046" class="edge">
<title>Node1&#45;&gt;Node46</title>
<g id="a_edge31_Node000001_Node000046"><a xlink:title=" ">
<path fill="none" stroke="#63b8ff" d="M833.71,-428.95C854.34,-418.79 879.01,-406.65 897.34,-397.63"/>
<polygon fill="#63b8ff" stroke="#63b8ff" points="899.12,-400.65 906.55,-393.09 896.03,-394.37 899.12,-400.65"/>
</a>
</g>
</g>
<!-- Node3 -->
<g id="Node000003" class="node">
<title>Node3</title>
<g id="a_Node000003"><a xlink:href="bdf_8h.html" target="_top" xlink:title=" ">
<polygon fill="white" stroke="#666666" points="241.5,-332.5 176.5,-332.5 176.5,-313.5 241.5,-313.5 241.5,-332.5"/>
<text text-anchor="middle" x="209" y="-320.5" font-family="Helvetica,sans-Serif" font-size="10.00">core/bdf.h</text>
</a>
</g>
</g>
<!-- Node2&#45;&gt;Node3 -->
<g id="edge2_Node000002_Node000003" class="edge">
<title>Node2&#45;&gt;Node3</title>
<g id="a_edge2_Node000002_Node000003"><a xlink:title=" ">
<path fill="none" stroke="#63b8ff" d="M459.4,-373.99C403.81,-362.9 307.12,-343.59 251.56,-332.5"/>
<polygon fill="#63b8ff" stroke="#63b8ff" points="252.17,-329.05 241.68,-330.53 250.8,-335.92 252.17,-329.05"/>
</a>
</g>
</g>
<!-- Node4 -->
<g id="Node000004" class="node">
<title>Node4</title>
<g id="a_Node000004"><a xlink:href="parameters_8h.html" target="_top" xlink:title=" ">
<polygon fill="white" stroke="#666666" points="602,-272 496,-272 496,-253 602,-253 602,-272"/>
<text text-anchor="middle" x="549" y="-260" font-family="Helvetica,sans-Serif" font-size="10.00">core/parameters.h</text>
</a>
</g>
</g>
<!-- Node2&#45;&gt;Node4 -->
<g id="edge26_Node000002_Node000004" class="edge">
<title>Node2&#45;&gt;Node4</title>
<g id="a_edge26_Node000002_Node000004"><a xlink:title=" ">
<path fill="none" stroke="#63b8ff" d="M508.37,-373.7C514.42,-365 523.39,-351.13 529,-338 536.88,-319.57 542.38,-297.22 545.59,-281.84"/>
<polygon fill="#63b8ff" stroke="#63b8ff" points="549.03,-282.51 547.53,-272.03 542.16,-281.16 549.03,-282.51"/>
</a>
</g>
</g>
<!-- Node44 -->
<g id="Node000044" class="node">
<title>Node44</title>
<g id="a_Node000044"><a xlink:title=" ">
<polygon fill="#e0e0e0" stroke="#999999" points="520.5,-338 389.5,-338 389.5,-308 520.5,-308 520.5,-338"/>
<text text-anchor="start" x="397.5" y="-326" font-family="Helvetica,sans-Serif" font-size="10.00">deal.II/particles/particle</text>
<text text-anchor="middle" x="455" y="-315" font-family="Helvetica,sans-Serif" font-size="10.00">_handler.h</text>
</a>
</g>
</g>
<!-- Node2&#45;&gt;Node44 -->
<g id="edge27_Node000002_Node000044" class="edge">
<title>Node2&#45;&gt;Node44</title>
<g id="a_edge27_Node000002_Node000044"><a xlink:title=" ">
<path fill="none" stroke="#63b8ff" d="M495.06,-373.87C489.22,-366.59 480.59,-355.85 472.84,-346.2"/>
<polygon fill="#63b8ff" stroke="#63b8ff" points="475.33,-343.72 466.34,-338.11 469.87,-348.1 475.33,-343.72"/>
</a>
</g>
</g>
<!-- Node3&#45;&gt;Node4 -->
<g id="edge3_Node000003_Node000004" class="edge">
<title>Node3&#45;&gt;Node4</title>
<g id="a_edge3_Node000003_Node000004"><a xlink:title=" ">
<path fill="none" stroke="#63b8ff" d="M241.6,-316.39C298.55,-306.59 416.95,-286.22 489.05,-273.82"/>
<polygon fill="#63b8ff" stroke="#63b8ff" points="490.07,-277.19 499.34,-272.05 488.89,-270.29 490.07,-277.19"/>
</a>
</g>
</g>
<!-- Node10 -->
<g id="Node000010" class="node">
<title>Node10</title>
<g id="a_Node000010"><a xlink:title=" ">
<polygon fill="#e0e0e0" stroke="#999999" points="307.5,-24.5 260.5,-24.5 260.5,-5.5 307.5,-5.5 307.5,-24.5"/>
<text text-anchor="middle" x="284" y="-12.5" font-family="Helvetica,sans-Serif" font-size="10.00">vector</text>
</a>
</g>
</g>
<!-- Node3&#45;&gt;Node10 -->
<g id="edge25_Node000003_Node000010" class="edge">
<title>Node3&#45;&gt;Node10</title>
<g id="a_edge25_Node000003_Node000010"><a xlink:title=" ">
<path fill="none" stroke="#63b8ff" d="M198.57,-313.34C177.96,-295.19 134,-250.86 134,-203 134,-203 134,-203 134,-135 134,-75.82 206.55,-41.4 250.74,-25.92"/>
<polygon fill="#63b8ff" stroke="#63b8ff" points="251.87,-29.23 260.23,-22.73 249.64,-22.6 251.87,-29.23"/>
</a>
</g>
</g>
<!-- Node43 -->
<g id="Node000043" class="node">
<title>Node43</title>
<g id="a_Node000043"><a xlink:title=" ">
<polygon fill="#e0e0e0" stroke="#999999" points="106,-272 0,-272 0,-253 106,-253 106,-272"/>
<text text-anchor="middle" x="53" y="-260" font-family="Helvetica,sans-Serif" font-size="10.00">deal.II/lac/vector.h</text>
</a>
</g>
</g>
<!-- Node3&#45;&gt;Node43 -->
<g id="edge24_Node000003_Node000043" class="edge">
<title>Node3&#45;&gt;Node43</title>
<g id="a_edge24_Node000003_Node000043"><a xlink:title=" ">
<path fill="none" stroke="#63b8ff" d="M186.32,-313.49C159.74,-303.53 115.52,-286.95 85.36,-275.63"/>
<polygon fill="#63b8ff" stroke="#63b8ff" points="86.3,-272.25 75.71,-272.02 83.85,-278.81 86.3,-272.25"/>
</a>
</g>
</g>
<!-- Node5 -->
<g id="Node000005" class="node">
<title>Node5</title>
<g id="a_Node000005"><a xlink:href="dimensionality_8h.html" target="_top" xlink:title=" ">
<polygon fill="white" stroke="#666666" points="727.5,-85 606.5,-85 606.5,-66 727.5,-66 727.5,-85"/>
<text text-anchor="middle" x="667" y="-73" font-family="Helvetica,sans-Serif" font-size="10.00">core/dimensionality.h</text>
</a>
</g>
</g>
<!-- Node4&#45;&gt;Node5 -->
<g id="edge4_Node000004_Node000005" class="edge">
<title>Node4&#45;&gt;Node5</title>
<g id="a_edge4_Node000004_Node000005"><a xlink:title=" ">
<path fill="none" stroke="#63b8ff" d="M572.47,-252.94C589.09,-245.75 610.71,-233.9 624,-217 652.82,-180.34 662.41,-124.39 665.53,-95.39"/>
<polygon fill="#63b8ff" stroke="#63b8ff" points="669.05,-95.35 666.49,-85.07 662.08,-94.7 669.05,-95.35"/>
</a>
</g>
</g>
<!-- Node6 -->
<g id="Node000006" class="node">
<title>Node6</title>
<g id="a_Node000006"><a xlink:title=" ">
<polygon fill="#e0e0e0" stroke="#999999" points="730.5,-30 603.5,-30 603.5,0 730.5,0 730.5,-30"/>
<text text-anchor="start" x="611.5" y="-18" font-family="Helvetica,sans-Serif" font-size="10.00">deal.II/base/parameter</text>
<text text-anchor="middle" x="667" y="-7" font-family="Helvetica,sans-Serif" font-size="10.00">_handler.h</text>
</a>
</g>
</g>
<!-- Node4&#45;&gt;Node6 -->
<g id="edge21_Node000004_Node000006" class="edge">
<title>Node4&#45;&gt;Node6</title>
<g id="a_edge21_Node000004_Node000006"><a xlink:title=" ">
<path fill="none" stroke="#63b8ff" d="M578.38,-252.93C599.2,-245.78 626.88,-234.01 647,-217 701.03,-171.31 715.32,-152.67 736,-85 738.47,-76.92 739.84,-73.52 736,-66 729.62,-53.5 718.5,-43.41 707.03,-35.64"/>
<polygon fill="#63b8ff" stroke="#63b8ff" points="708.59,-32.49 698.26,-30.16 704.88,-38.43 708.59,-32.49"/>
</a>
</g>
</g>
<!-- Node7 -->
<g id="Node000007" class="node">
<title>Node7</title>
<g id="a_Node000007"><a xlink:href="ib__particle_8h.html" target="_top" xlink:title=" ">
<polygon fill="white" stroke="#666666" points="263.5,-211.5 162.5,-211.5 162.5,-192.5 263.5,-192.5 263.5,-211.5"/>
<text text-anchor="middle" x="213" y="-199.5" font-family="Helvetica,sans-Serif" font-size="10.00">core/ib_particle.h</text>
</a>
</g>
</g>
<!-- Node4&#45;&gt;Node7 -->
<g id="edge6_Node000004_Node000007" class="edge">
<title>Node4&#45;&gt;Node7</title>
<g id="a_edge6_Node000004_Node000007"><a xlink:title=" ">
<path fill="none" stroke="#63b8ff" d="M495.89,-254.05C440.18,-245.98 350.14,-232.2 273,-217 268.01,-216.02 262.81,-214.92 257.64,-213.78"/>
<polygon fill="#63b8ff" stroke="#63b8ff" points="258.34,-210.35 247.81,-211.55 256.79,-217.17 258.34,-210.35"/>
</a>
</g>
</g>
<!-- Node15 -->
<g id="Node000015" class="node">
<title>Node15</title>
<g id="a_Node000015"><a xlink:href="utilities_8h.html" target="_top" xlink:title=" ">
<polygon fill="#fff0f0" stroke="red" points="499,-85 413,-85 413,-66 499,-66 499,-85"/>
<text text-anchor="middle" x="456" y="-73" font-family="Helvetica,sans-Serif" font-size="10.00">core/utilities.h</text>
</a>
</g>
</g>
<!-- Node4&#45;&gt;Node15 -->
<g id="edge20_Node000004_Node000015" class="edge">
<title>Node4&#45;&gt;Node15</title>
<g id="a_edge20_Node000004_Node000015"><a xlink:title=" ">
<path fill="none" stroke="#63b8ff" d="M562.51,-252.79C573.98,-244.77 590.1,-231.87 600,-217 624.26,-180.57 648.65,-155.73 622,-121 608.21,-103.03 552.39,-90.72 509.24,-83.68"/>
<polygon fill="#63b8ff" stroke="#63b8ff" points="509.56,-80.19 499.14,-82.09 508.47,-87.1 509.56,-80.19"/>
</a>
</g>
</g>
<!-- Node40 -->
<g id="Node000040" class="node">
<title>Node40</title>
<g id="a_Node000040"><a xlink:title=" ">
<polygon fill="#e0e0e0" stroke="#999999" points="613.5,-151 504.5,-151 504.5,-121 613.5,-121 613.5,-151"/>
<text text-anchor="start" x="512.5" y="-139" font-family="Helvetica,sans-Serif" font-size="10.00">deal.II/base/parsed</text>
<text text-anchor="middle" x="559" y="-128" font-family="Helvetica,sans-Serif" font-size="10.00">_function.h</text>
</a>
</g>
</g>
<!-- Node4&#45;&gt;Node40 -->
<g id="edge22_Node000004_Node000040" class="edge">
<title>Node4&#45;&gt;Node40</title>
<g id="a_edge22_Node000004_Node000040"><a xlink:title=" ">
<path fill="none" stroke="#63b8ff" d="M558.88,-252.75C567.39,-244.5 579.05,-231.3 584,-217 590.6,-197.92 582.7,-176.02 574.08,-159.96"/>
<polygon fill="#63b8ff" stroke="#63b8ff" points="577.07,-158.14 569.03,-151.25 571.02,-161.65 577.07,-158.14"/>
</a>
</g>
</g>
<!-- Node41 -->
<g id="Node000041" class="node">
<title>Node41</title>
<g id="a_Node000041"><a xlink:href="multiphysics_8h.html" target="_top" xlink:title="Identifiers for multiphysics modules and their solution fields.">
<polygon fill="white" stroke="#666666" points="394,-211.5 282,-211.5 282,-192.5 394,-192.5 394,-211.5"/>
<text text-anchor="middle" x="338" y="-199.5" font-family="Helvetica,sans-Serif" font-size="10.00">core/multiphysics.h</text>
</a>
</g>
</g>
<!-- Node4&#45;&gt;Node41 -->
<g id="edge19_Node000004_Node000041" class="edge">
<title>Node4&#45;&gt;Node41</title>
<g id="a_edge19_Node000004_Node000041"><a xlink:title=" ">
<path fill="none" stroke="#63b8ff" d="M518.32,-252.99C481.44,-242.77 419.43,-225.58 378.61,-214.26"/>
<polygon fill="#63b8ff" stroke="#63b8ff" points="379.29,-210.82 368.72,-211.52 377.42,-217.56 379.29,-210.82"/>
</a>
</g>
</g>
<!-- Node42 -->
<g id="Node000042" class="node">
<title>Node42</title>
<g id="a_Node000042"><a xlink:title=" ">
<polygon fill="#e0e0e0" stroke="#999999" points="575.5,-217 412.5,-217 412.5,-187 575.5,-187 575.5,-217"/>
<text text-anchor="start" x="420.5" y="-205" font-family="Helvetica,sans-Serif" font-size="10.00">deal.II/multigrid/mg</text>
<text text-anchor="middle" x="494" y="-194" font-family="Helvetica,sans-Serif" font-size="10.00">_transfer_global_coarsening.h</text>
</a>
</g>
</g>
<!-- Node4&#45;&gt;Node42 -->
<g id="edge23_Node000004_Node000042" class="edge">
<title>Node4&#45;&gt;Node42</title>
<g id="a_edge23_Node000004_Node000042"><a xlink:title=" ">
<path fill="none" stroke="#63b8ff" d="M540.88,-252.87C533.91,-245.44 523.54,-234.42 514.32,-224.62"/>
<polygon fill="#63b8ff" stroke="#63b8ff" points="516.67,-222 507.27,-217.11 511.57,-226.8 516.67,-222"/>
</a>
</g>
</g>
<!-- Node5&#45;&gt;Node6 -->
<g id="edge5_Node000005_Node000006" class="edge">
<title>Node5&#45;&gt;Node6</title>
<g id="a_edge5_Node000005_Node000006"><a xlink:title=" ">
<path fill="none" stroke="#63b8ff" d="M667,-65.87C667,-59.11 667,-49.35 667,-40.26"/>
<polygon fill="#63b8ff" stroke="#63b8ff" points="670.5,-40.11 667,-30.11 663.5,-40.11 670.5,-40.11"/>
</a>
</g>
</g>
<!-- Node8 -->
<g id="Node000008" class="node">
<title>Node8</title>
<g id="a_Node000008"><a xlink:href="dem__properties_8h.html" target="_top" xlink:title="DEM particle property definitions and output name management.">
<polygon fill="#fff0f0" stroke="red" points="288,-145.5 162,-145.5 162,-126.5 288,-126.5 288,-145.5"/>
<text text-anchor="middle" x="225" y="-133.5" font-family="Helvetica,sans-Serif" font-size="10.00">core/dem_properties.h</text>
</a>
</g>
</g>
<!-- Node7&#45;&gt;Node8 -->
<g id="edge7_Node000007_Node000008" class="edge">
<title>Node7&#45;&gt;Node8</title>
<g id="a_edge7_Node000007_Node000008"><a xlink:title=" ">
<path fill="none" stroke="#63b8ff" d="M214.62,-192.37C216.36,-183.07 219.19,-167.98 221.46,-155.9"/>
<polygon fill="#63b8ff" stroke="#63b8ff" points="224.93,-156.38 223.33,-145.91 218.05,-155.09 224.93,-156.38"/>
</a>
</g>
</g>
<!-- Node7&#45;&gt;Node10 -->
<g id="edge18_Node000007_Node000010" class="edge">
<title>Node7&#45;&gt;Node10</title>
<g id="a_edge18_Node000007_Node000010"><a xlink:title=" ">
<path fill="none" stroke="#63b8ff" d="M241.46,-192.39C260.89,-184.86 285.17,-171.8 297,-151 318.16,-113.77 302.7,-61.31 291.96,-34.04"/>
<polygon fill="#63b8ff" stroke="#63b8ff" points="295.11,-32.5 288.04,-24.61 288.65,-35.19 295.11,-32.5"/>
</a>
</g>
</g>
<!-- Node11 -->
<g id="Node000011" class="node">
<title>Node11</title>
<g id="a_Node000011"><a xlink:href="shape_8h.html" target="_top" xlink:title=" ">
<polygon fill="#fff0f0" stroke="red" points="486.5,-145.5 407.5,-145.5 407.5,-126.5 486.5,-126.5 486.5,-145.5"/>
<text text-anchor="middle" x="447" y="-133.5" font-family="Helvetica,sans-Serif" font-size="10.00">core/shape.h</text>
</a>
</g>
</g>
<!-- Node7&#45;&gt;Node11 -->
<g id="edge9_Node000007_Node000011" class="edge">
<title>Node7&#45;&gt;Node11</title>
<g id="a_edge9_Node000007_Node000011"><a xlink:title=" ">
<path fill="none" stroke="#63b8ff" d="M244.56,-192.37C286.28,-180.96 359.88,-160.83 405.91,-148.24"/>
<polygon fill="#63b8ff" stroke="#63b8ff" points="406.85,-151.61 415.57,-145.6 405,-144.86 406.85,-151.61"/>
</a>
</g>
</g>
<!-- Node13 -->
<g id="Node000013" class="node">
<title>Node13</title>
<g id="a_Node000013"><a xlink:title=" ">
<polygon fill="#e0e0e0" stroke="#999999" points="490,-24.5 380,-24.5 380,-5.5 490,-5.5 490,-24.5"/>
<text text-anchor="middle" x="435" y="-12.5" font-family="Helvetica,sans-Serif" font-size="10.00">deal.II/base/point.h</text>
</a>
</g>
</g>
<!-- Node7&#45;&gt;Node13 -->
<g id="edge17_Node000007_Node000013" class="edge">
<title>Node7&#45;&gt;Node13</title>
<g id="a_edge17_Node000007_Node000013"><a xlink:title=" ">
<path fill="none" stroke="#63b8ff" d="M237.42,-192.34C259.31,-183.86 291.63,-169.53 316,-151 362.25,-115.83 404.11,-60.51 423.54,-32.88"/>
<polygon fill="#63b8ff" stroke="#63b8ff" points="426.43,-34.86 429.25,-24.64 420.68,-30.87 426.43,-34.86"/>
</a>
</g>
</g>
<!-- Node7&#45;&gt;Node40 -->
<g id="edge16_Node000007_Node000040" class="edge">
<title>Node7&#45;&gt;Node40</title>
<g id="a_edge16_Node000007_Node000040"><a xlink:title=" ">
<path fill="none" stroke="#63b8ff" d="M247.81,-192.45C256.05,-190.55 264.81,-188.62 273,-187 368,-168.24 395.13,-169.58 494.39,-151.04"/>
<polygon fill="#63b8ff" stroke="#63b8ff" points="495.05,-154.48 504.23,-149.19 493.75,-147.6 495.05,-154.48"/>
</a>
</g>
</g>
<!-- Node8&#45;&gt;Node10 -->
<g id="edge8_Node000008_Node000010" class="edge">
<title>Node8&#45;&gt;Node10</title>
<g id="a_edge8_Node000008_Node000010"><a xlink:title=" ">
<path fill="none" stroke="#63b8ff" d="M229.24,-126.44C238.81,-107.15 262.21,-59.94 275.11,-33.93"/>
<polygon fill="#63b8ff" stroke="#63b8ff" points="278.33,-35.32 279.64,-24.8 272.06,-32.21 278.33,-35.32"/>
</a>
</g>
</g>
<!-- Node11&#45;&gt;Node15 -->
<g id="edge10_Node000011_Node000015" class="edge">
<title>Node11&#45;&gt;Node15</title>
<g id="a_edge10_Node000011_Node000015"><a xlink:title=" ">
<path fill="none" stroke="#63b8ff" d="M448.33,-126.37C449.59,-118.16 451.53,-105.54 453.15,-95.05"/>
<polygon fill="#63b8ff" stroke="#63b8ff" points="456.61,-95.58 454.67,-85.17 449.69,-94.52 456.61,-95.58"/>
</a>
</g>
</g>
<!-- Node11&#45;&gt;Node38 -->
<g id="edge15_Node000011_Node000038" class="edge">
<title>Node11&#45;&gt;Node38</title>
<g id="a_edge15_Node000011_Node000038"><a xlink:title=" ">
<path fill="none" stroke="#63b8ff" d="M463.23,-126.37C481.27,-116.78 510.62,-101.17 531.68,-89.97"/>
<polygon fill="#63b8ff" stroke="#63b8ff" points="533.52,-92.95 540.7,-85.17 530.23,-86.77 533.52,-92.95"/>
</a>
</g>
</g>
<!-- Node15&#45;&gt;Node6 -->
<g id="edge11_Node000015_Node000006" class="edge">
<title>Node15&#45;&gt;Node6</title>
<g id="a_edge11_Node000015_Node000006"><a xlink:title=" ">
<path fill="none" stroke="#63b8ff" d="M486.68,-65.99C517.98,-57.32 567.37,-43.62 606.55,-32.76"/>
<polygon fill="#63b8ff" stroke="#63b8ff" points="607.57,-36.11 616.27,-30.06 605.7,-29.36 607.57,-36.11"/>
</a>
</g>
</g>
<!-- Node15&#45;&gt;Node10 -->
<g id="edge14_Node000015_Node000010" class="edge">
<title>Node15&#45;&gt;Node10</title>
<g id="a_edge14_Node000015_Node000010"><a xlink:title=" ">
<path fill="none" stroke="#63b8ff" d="M430.99,-65.99C401.01,-55.8 350.67,-38.68 317.4,-27.36"/>
<polygon fill="#63b8ff" stroke="#63b8ff" points="318.25,-23.95 307.66,-24.05 316,-30.58 318.25,-23.95"/>
</a>
</g>
</g>
<!-- Node15&#45;&gt;Node13 -->
<g id="edge12_Node000015_Node000013" class="edge">
<title>Node15&#45;&gt;Node13</title>
<g id="a_edge12_Node000015_Node000013"><a xlink:title=" ">
<path fill="none" stroke="#63b8ff" d="M452.9,-65.87C449.92,-57.57 445.33,-44.78 441.54,-34.22"/>
<polygon fill="#63b8ff" stroke="#63b8ff" points="444.78,-32.9 438.11,-24.67 438.2,-35.26 444.78,-32.9"/>
</a>
</g>
</g>
<!-- Node15&#45;&gt;Node26 -->
<g id="edge13_Node000015_Node000026" class="edge">
<title>Node15&#45;&gt;Node26</title>
<g id="a_edge13_Node000015_Node000026"><a xlink:title=" ">
<path fill="none" stroke="#63b8ff" d="M499.16,-68.47C566.68,-58.9 694.22,-40.28 739,-30 742.36,-29.23 745.83,-28.34 749.28,-27.4"/>
<polygon fill="#63b8ff" stroke="#63b8ff" points="750.26,-30.76 758.9,-24.63 748.32,-24.03 750.26,-30.76"/>
</a>
</g>
</g>
</g>
</svg>
