<?xml version="1.0" encoding="UTF-8" standalone="no"?>
<!DOCTYPE svg PUBLIC "-//W3C//DTD SVG 1.1//EN"
 "http://www.w3.org/Graphics/SVG/1.1/DTD/svg11.dtd">
<!-- Generated by graphviz version 2.43.0 (0)
 -->
<!-- Title: /home/runner/work/lethe/lethe/include/core/solid_objects_parameters.h Pages: 1 -->
<svg width="2560pt" height="434pt"
 viewBox="0.00 0.00 2560.29 434.00" xmlns="http://www.w3.org/2000/svg" xmlns:xlink="http://www.w3.org/1999/xlink">
<g id="graph0" class="graph" transform="scale(1 1) rotate(0) translate(4 430)">
<title>/home/runner/work/lethe/lethe/include/core/solid_objects_parameters.h</title>
<!-- Node1 -->
<g id="Node000001" class="node">
<title>Node1</title>
<g id="a_Node000001"><a xlink:title="Parameter classes for solid objects used in Nitsche immersed boundary and DEM simulations.">
<polygon fill="#999999" stroke="#666666" points="1871.29,-426 1734.29,-426 1734.29,-385 1871.29,-385 1871.29,-426"/>
<text text-anchor="start" x="1742.29" y="-414" font-family="Helvetica,sans-Serif" font-size="10.00">/home/runner/work/lethe</text>
<text text-anchor="start" x="1742.29" y="-403" font-family="Helvetica,sans-Serif" font-size="10.00">/lethe/include/core/solid</text>
<text text-anchor="middle" x="1802.79" y="-392" font-family="Helvetica,sans-Serif" font-size="10.00">_objects_parameters.h</text>
</a>
</g>
</g>
<!-- Node2 -->
<g id="Node000002" class="node">
<title>Node2</title>
<g id="a_Node000002"><a xlink:href="parameters_8h.html" target="_top" xlink:title=" ">
<polygon fill="white" stroke="#666666" points="1855.79,-349 1749.79,-349 1749.79,-330 1855.79,-330 1855.79,-349"/>
<text text-anchor="middle" x="1802.79" y="-337" font-family="Helvetica,sans-Serif" font-size="10.00">core/parameters.h</text>
</a>
</g>
</g>
<!-- Node1&#45;&gt;Node2 -->
<g id="edge1_Node000001_Node000002" class="edge">
<title>Node1&#45;&gt;Node2</title>
<g id="a_edge1_Node000001_Node000002"><a xlink:title=" ">
<path fill="none" stroke="#63b8ff" d="M1802.79,-384.95C1802.79,-376.85 1802.79,-367.5 1802.79,-359.47"/>
<polygon fill="#63b8ff" stroke="#63b8ff" points="1806.29,-359.26 1802.79,-349.26 1799.29,-359.26 1806.29,-359.26"/>
</a>
</g>
</g>
<!-- Node4 -->
<g id="Node000004" class="node">
<title>Node4</title>
<g id="a_Node000004"><a xlink:title=" ">
<polygon fill="#e0e0e0" stroke="#999999" points="2552.29,-96 2425.29,-96 2425.29,-66 2552.29,-66 2552.29,-96"/>
<text text-anchor="start" x="2433.29" y="-84" font-family="Helvetica,sans-Serif" font-size="10.00">deal.II/base/parameter</text>
<text text-anchor="middle" x="2488.79" y="-73" font-family="Helvetica,sans-Serif" font-size="10.00">_handler.h</text>
</a>
</g>
</g>
<!-- Node1&#45;&gt;Node4 -->
<g id="edge49_Node000001_Node000004" class="edge">
<title>Node1&#45;&gt;Node4</title>
<g id="a_edge49_Node000001_Node000004"><a xlink:title=" ">
<path fill="none" stroke="#63b8ff" d="M1871.5,-405.21C2034.45,-405.04 2430.79,-393.03 2430.79,-280 2430.79,-280 2430.79,-280 2430.79,-212 2430.79,-171.5 2454.56,-129.58 2471.67,-104.65"/>
<polygon fill="#63b8ff" stroke="#63b8ff" points="2474.68,-106.46 2477.61,-96.27 2468.97,-102.41 2474.68,-106.46"/>
</a>
</g>
</g>
<!-- Node36 -->
<g id="Node000036" class="node">
<title>Node36</title>
<g id="a_Node000036"><a xlink:title=" ">
<polygon fill="#e0e0e0" stroke="#999999" points="1579.29,-228 1470.29,-228 1470.29,-198 1579.29,-198 1579.29,-228"/>
<text text-anchor="start" x="1478.29" y="-216" font-family="Helvetica,sans-Serif" font-size="10.00">deal.II/base/parsed</text>
<text text-anchor="middle" x="1524.79" y="-205" font-family="Helvetica,sans-Serif" font-size="10.00">_function.h</text>
</a>
</g>
</g>
<!-- Node1&#45;&gt;Node36 -->
<g id="edge50_Node000001_Node000036" class="edge">
<title>Node1&#45;&gt;Node36</title>
<g id="a_edge50_Node000001_Node000036"><a xlink:title=" ">
<path fill="none" stroke="#63b8ff" d="M1734.13,-391.74C1676.49,-377.53 1596.04,-348.91 1547.79,-294 1534.21,-278.54 1528.62,-255.51 1526.34,-238.13"/>
<polygon fill="#63b8ff" stroke="#63b8ff" points="1529.81,-237.74 1525.3,-228.16 1522.85,-238.46 1529.81,-237.74"/>
</a>
</g>
</g>
<!-- Node3 -->
<g id="Node000003" class="node">
<title>Node3</title>
<g id="a_Node000003"><a xlink:href="dimensionality_8h.html" target="_top" xlink:title=" ">
<polygon fill="white" stroke="#666666" points="2345.29,-222.5 2224.29,-222.5 2224.29,-203.5 2345.29,-203.5 2345.29,-222.5"/>
<text text-anchor="middle" x="2284.79" y="-210.5" font-family="Helvetica,sans-Serif" font-size="10.00">core/dimensionality.h</text>
</a>
</g>
</g>
<!-- Node2&#45;&gt;Node3 -->
<g id="edge2_Node000002_Node000003" class="edge">
<title>Node2&#45;&gt;Node3</title>
<g id="a_edge2_Node000002_Node000003"><a xlink:title=" ">
<path fill="none" stroke="#63b8ff" d="M1856.04,-334.43C1915.4,-328.98 2013.85,-317.17 2095.79,-294 2156.28,-276.9 2223.16,-245.38 2258.89,-227.43"/>
<polygon fill="#63b8ff" stroke="#63b8ff" points="2260.78,-230.4 2268.11,-222.75 2257.61,-224.15 2260.78,-230.4"/>
</a>
</g>
</g>
<!-- Node2&#45;&gt;Node4 -->
<g id="edge46_Node000002_Node000004" class="edge">
<title>Node2&#45;&gt;Node4</title>
<g id="a_edge46_Node000002_Node000004"><a xlink:title=" ">
<path fill="none" stroke="#63b8ff" d="M1825.62,-329.97C1923.26,-293.46 2306.95,-149.99 2441.7,-99.61"/>
<polygon fill="#63b8ff" stroke="#63b8ff" points="2443.2,-102.78 2451.34,-96 2440.75,-96.23 2443.2,-102.78"/>
</a>
</g>
</g>
<!-- Node5 -->
<g id="Node000005" class="node">
<title>Node5</title>
<g id="a_Node000005"><a xlink:href="ib__particle_8h.html" target="_top" xlink:title=" ">
<polygon fill="white" stroke="#666666" points="653.29,-288.5 552.29,-288.5 552.29,-269.5 653.29,-269.5 653.29,-288.5"/>
<text text-anchor="middle" x="602.79" y="-276.5" font-family="Helvetica,sans-Serif" font-size="10.00">core/ib_particle.h</text>
</a>
</g>
</g>
<!-- Node2&#45;&gt;Node5 -->
<g id="edge4_Node000002_Node000005" class="edge">
<title>Node2&#45;&gt;Node5</title>
<g id="a_edge4_Node000002_Node000005"><a xlink:title=" ">
<path fill="none" stroke="#63b8ff" d="M1749.68,-335.91C1553.75,-326.36 872.1,-293.13 663.75,-282.97"/>
<polygon fill="#63b8ff" stroke="#63b8ff" points="663.77,-279.47 653.61,-282.48 663.43,-286.46 663.77,-279.47"/>
</a>
</g>
</g>
<!-- Node13 -->
<g id="Node000013" class="node">
<title>Node13</title>
<g id="a_Node000013"><a xlink:href="core_2utilities_8h.html" target="_top" xlink:title=" ">
<polygon fill="white" stroke="#666666" points="1824.79,-156.5 1738.79,-156.5 1738.79,-137.5 1824.79,-137.5 1824.79,-156.5"/>
<text text-anchor="middle" x="1781.79" y="-144.5" font-family="Helvetica,sans-Serif" font-size="10.00">core/utilities.h</text>
</a>
</g>
</g>
<!-- Node2&#45;&gt;Node13 -->
<g id="edge45_Node000002_Node000013" class="edge">
<title>Node2&#45;&gt;Node13</title>
<g id="a_edge45_Node000002_Node000013"><a xlink:title=" ">
<path fill="none" stroke="#63b8ff" d="M1840.81,-329.85C1859.92,-323.37 1881.39,-312.36 1892.79,-294 1899.83,-282.67 1897.76,-276.37 1892.79,-264 1874.79,-219.15 1830.25,-181.84 1803.38,-162.43"/>
<polygon fill="#63b8ff" stroke="#63b8ff" points="1805.21,-159.43 1795.01,-156.55 1801.18,-165.16 1805.21,-159.43"/>
</a>
</g>
</g>
<!-- Node2&#45;&gt;Node36 -->
<g id="edge47_Node000002_Node000036" class="edge">
<title>Node2&#45;&gt;Node36</title>
<g id="a_edge47_Node000002_Node000036"><a xlink:title=" ">
<path fill="none" stroke="#63b8ff" d="M1749.58,-338.55C1702.07,-336.23 1632.37,-326.79 1581.79,-294 1560.57,-280.24 1544.8,-255.56 1535.3,-237.24"/>
<polygon fill="#63b8ff" stroke="#63b8ff" points="1538.34,-235.51 1530.78,-228.08 1532.06,-238.6 1538.34,-235.51"/>
</a>
</g>
</g>
<!-- Node37 -->
<g id="Node000037" class="node">
<title>Node37</title>
<g id="a_Node000037"><a xlink:href="multiphysics_8h.html" target="_top" xlink:title="Identifiers for multiphysics modules and their solution fields.">
<polygon fill="white" stroke="#666666" points="1702.79,-288.5 1590.79,-288.5 1590.79,-269.5 1702.79,-269.5 1702.79,-288.5"/>
<text text-anchor="middle" x="1646.79" y="-276.5" font-family="Helvetica,sans-Serif" font-size="10.00">core/multiphysics.h</text>
</a>
</g>
</g>
<!-- Node2&#45;&gt;Node37 -->
<g id="edge44_Node000002_Node000037" class="edge">
<title>Node2&#45;&gt;Node37</title>
<g id="a_edge44_Node000002_Node000037"><a xlink:title=" ">
<path fill="none" stroke="#63b8ff" d="M1780.11,-329.99C1753.54,-320.03 1709.32,-303.45 1679.15,-292.13"/>
<polygon fill="#63b8ff" stroke="#63b8ff" points="1680.1,-288.75 1669.5,-288.52 1677.64,-295.31 1680.1,-288.75"/>
</a>
</g>
</g>
<!-- Node38 -->
<g id="Node000038" class="node">
<title>Node38</title>
<g id="a_Node000038"><a xlink:title=" ">
<polygon fill="#e0e0e0" stroke="#999999" points="1884.29,-294 1721.29,-294 1721.29,-264 1884.29,-264 1884.29,-294"/>
<text text-anchor="start" x="1729.29" y="-282" font-family="Helvetica,sans-Serif" font-size="10.00">deal.II/multigrid/mg</text>
<text text-anchor="middle" x="1802.79" y="-271" font-family="Helvetica,sans-Serif" font-size="10.00">_transfer_global_coarsening.h</text>
</a>
</g>
</g>
<!-- Node2&#45;&gt;Node38 -->
<g id="edge48_Node000002_Node000038" class="edge">
<title>Node2&#45;&gt;Node38</title>
<g id="a_edge48_Node000002_Node000038"><a xlink:title=" ">
<path fill="none" stroke="#63b8ff" d="M1802.79,-329.87C1802.79,-323.11 1802.79,-313.35 1802.79,-304.26"/>
<polygon fill="#63b8ff" stroke="#63b8ff" points="1806.29,-304.11 1802.79,-294.11 1799.29,-304.11 1806.29,-304.11"/>
</a>
</g>
</g>
<!-- Node3&#45;&gt;Node4 -->
<g id="edge3_Node000003_Node000004" class="edge">
<title>Node3&#45;&gt;Node4</title>
<g id="a_edge3_Node000003_Node000004"><a xlink:title=" ">
<path fill="none" stroke="#63b8ff" d="M2298.18,-203.47C2330.42,-182.92 2413.06,-130.26 2458.22,-101.49"/>
<polygon fill="#63b8ff" stroke="#63b8ff" points="2460.17,-104.39 2466.72,-96.07 2456.41,-98.49 2460.17,-104.39"/>
</a>
</g>
</g>
<!-- Node6 -->
<g id="Node000006" class="node">
<title>Node6</title>
<g id="a_Node000006"><a xlink:href="dem__properties_8h.html" target="_top" xlink:title="DEM particle property definitions and output name management.">
<polygon fill="white" stroke="#666666" points="139.79,-156.5 13.79,-156.5 13.79,-137.5 139.79,-137.5 139.79,-156.5"/>
<text text-anchor="middle" x="76.79" y="-144.5" font-family="Helvetica,sans-Serif" font-size="10.00">core/dem_properties.h</text>
</a>
</g>
</g>
<!-- Node5&#45;&gt;Node6 -->
<g id="edge5_Node000005_Node000006" class="edge">
<title>Node5&#45;&gt;Node6</title>
<g id="a_edge5_Node000005_Node000006"><a xlink:title=" ">
<path fill="none" stroke="#63b8ff" d="M552.12,-276.66C449.89,-273.26 222.83,-262.01 153.79,-228 124.95,-213.79 101,-184.13 87.81,-165.19"/>
<polygon fill="#63b8ff" stroke="#63b8ff" points="90.56,-162.99 82.08,-156.63 84.74,-166.89 90.56,-162.99"/>
</a>
</g>
</g>
<!-- Node8 -->
<g id="Node000008" class="node">
<title>Node8</title>
<g id="a_Node000008"><a xlink:title=" ">
<polygon fill="#e0e0e0" stroke="#999999" points="100.29,-90.5 53.29,-90.5 53.29,-71.5 100.29,-71.5 100.29,-90.5"/>
<text text-anchor="middle" x="76.79" y="-78.5" font-family="Helvetica,sans-Serif" font-size="10.00">vector</text>
</a>
</g>
</g>
<!-- Node5&#45;&gt;Node8 -->
<g id="edge43_Node000005_Node000008" class="edge">
<title>Node5&#45;&gt;Node8</title>
<g id="a_edge43_Node000005_Node000008"><a xlink:title=" ">
<path fill="none" stroke="#63b8ff" d="M552.21,-275.72C443.81,-270.37 192.43,-255.36 111.79,-228 58.88,-210.05 32.02,-210.79 4.79,-162 -1.7,-150.36 -1.39,-143.81 4.79,-132 13.44,-115.47 30.31,-103.31 45.55,-95.12"/>
<polygon fill="#63b8ff" stroke="#63b8ff" points="47.35,-98.13 54.74,-90.53 44.23,-91.87 47.35,-98.13"/>
</a>
</g>
</g>
<!-- Node9 -->
<g id="Node000009" class="node">
<title>Node9</title>
<g id="a_Node000009"><a xlink:href="shape_8h.html" target="_top" xlink:title=" ">
<polygon fill="white" stroke="#666666" points="1076.29,-222.5 997.29,-222.5 997.29,-203.5 1076.29,-203.5 1076.29,-222.5"/>
<text text-anchor="middle" x="1036.79" y="-210.5" font-family="Helvetica,sans-Serif" font-size="10.00">core/shape.h</text>
</a>
</g>
</g>
<!-- Node5&#45;&gt;Node9 -->
<g id="edge8_Node000005_Node000009" class="edge">
<title>Node5&#45;&gt;Node9</title>
<g id="a_edge8_Node000005_Node000009"><a xlink:title=" ">
<path fill="none" stroke="#63b8ff" d="M653.43,-270.53C737.25,-258.17 903.83,-233.61 987.06,-221.33"/>
<polygon fill="#63b8ff" stroke="#63b8ff" points="987.64,-224.79 997.03,-219.86 986.62,-217.86 987.64,-224.79"/>
</a>
</g>
</g>
<!-- Node11 -->
<g id="Node000011" class="node">
<title>Node11</title>
<g id="a_Node000011"><a xlink:title=" ">
<polygon fill="#e0e0e0" stroke="#999999" points="1074.79,-90.5 964.79,-90.5 964.79,-71.5 1074.79,-71.5 1074.79,-90.5"/>
<text text-anchor="middle" x="1019.79" y="-78.5" font-family="Helvetica,sans-Serif" font-size="10.00">deal.II/base/point.h</text>
</a>
</g>
</g>
<!-- Node5&#45;&gt;Node11 -->
<g id="edge42_Node000005_Node000011" class="edge">
<title>Node5&#45;&gt;Node11</title>
<g id="a_edge42_Node000005_Node000011"><a xlink:title=" ">
<path fill="none" stroke="#63b8ff" d="M551.93,-276.71C418.84,-271.73 77.91,-247.62 186.79,-132 213.01,-104.17 762.49,-88.24 954.37,-83.51"/>
<polygon fill="#63b8ff" stroke="#63b8ff" points="954.68,-87 964.59,-83.26 954.51,-80 954.68,-87"/>
</a>
</g>
</g>
<!-- Node5&#45;&gt;Node36 -->
<g id="edge41_Node000005_Node000036" class="edge">
<title>Node5&#45;&gt;Node36</title>
<g id="a_edge41_Node000005_Node000036"><a xlink:title=" ">
<path fill="none" stroke="#63b8ff" d="M653.35,-274.49C809.84,-263.63 1286.19,-230.56 1460.24,-218.48"/>
<polygon fill="#63b8ff" stroke="#63b8ff" points="1460.54,-221.97 1470.27,-217.78 1460.06,-214.99 1460.54,-221.97"/>
</a>
</g>
</g>
<!-- Node7 -->
<g id="Node000007" class="node">
<title>Node7</title>
<g id="a_Node000007"><a xlink:title=" ">
<polygon fill="#e0e0e0" stroke="#999999" points="554.79,-90.5 510.79,-90.5 510.79,-71.5 554.79,-71.5 554.79,-90.5"/>
<text text-anchor="middle" x="532.79" y="-78.5" font-family="Helvetica,sans-Serif" font-size="10.00">string</text>
</a>
</g>
</g>
<!-- Node6&#45;&gt;Node7 -->
<g id="edge6_Node000006_Node000007" class="edge">
<title>Node6&#45;&gt;Node7</title>
<g id="a_edge6_Node000006_Node000007"><a xlink:title=" ">
<path fill="none" stroke="#63b8ff" d="M121.52,-137.49C132.09,-135.58 143.32,-133.64 153.79,-132 281.74,-111.94 434.84,-93.41 500.41,-85.73"/>
<polygon fill="#63b8ff" stroke="#63b8ff" points="501,-89.19 510.53,-84.55 500.19,-82.24 501,-89.19"/>
</a>
</g>
</g>
<!-- Node6&#45;&gt;Node8 -->
<g id="edge7_Node000006_Node000008" class="edge">
<title>Node6&#45;&gt;Node8</title>
<g id="a_edge7_Node000006_Node000008"><a xlink:title=" ">
<path fill="none" stroke="#63b8ff" d="M76.79,-137.37C76.79,-128.16 76.79,-113.29 76.79,-101.27"/>
<polygon fill="#63b8ff" stroke="#63b8ff" points="80.29,-100.91 76.79,-90.91 73.29,-100.91 80.29,-100.91"/>
</a>
</g>
</g>
<!-- Node10 -->
<g id="Node000010" class="node">
<title>Node10</title>
<g id="a_Node000010"><a xlink:href="tensors__and__points__dimension__manipulation_8h.html" target="_top" xlink:title=" ">
<polygon fill="white" stroke="#666666" points="1368.79,-162 1216.79,-162 1216.79,-132 1368.79,-132 1368.79,-162"/>
<text text-anchor="start" x="1224.79" y="-150" font-family="Helvetica,sans-Serif" font-size="10.00">core/tensors_and_points</text>
<text text-anchor="middle" x="1292.79" y="-139" font-family="Helvetica,sans-Serif" font-size="10.00">_dimension_manipulation.h</text>
</a>
</g>
</g>
<!-- Node9&#45;&gt;Node10 -->
<g id="edge9_Node000009_Node000010" class="edge">
<title>Node9&#45;&gt;Node10</title>
<g id="a_edge9_Node000009_Node000010"><a xlink:title=" ">
<path fill="none" stroke="#63b8ff" d="M1071.05,-203.44C1110.78,-193.5 1177.17,-176.91 1226.97,-164.46"/>
<polygon fill="#63b8ff" stroke="#63b8ff" points="1227.84,-167.85 1236.69,-162.02 1226.14,-161.05 1227.84,-167.85"/>
</a>
</g>
</g>
<!-- Node9&#45;&gt;Node13 -->
<g id="edge12_Node000009_Node000013" class="edge">
<title>Node9&#45;&gt;Node13</title>
<g id="a_edge12_Node000009_Node000013"><a xlink:title=" ">
<path fill="none" stroke="#63b8ff" d="M1076.5,-211.71C1182.92,-210.37 1483.15,-202.95 1728.79,-162 1733.59,-161.2 1738.58,-160.16 1743.49,-159.01"/>
<polygon fill="#63b8ff" stroke="#63b8ff" points="1744.55,-162.36 1753.4,-156.54 1742.85,-155.57 1744.55,-162.36"/>
</a>
</g>
</g>
<!-- Node18 -->
<g id="Node000018" class="node">
<title>Node18</title>
<g id="a_Node000018"><a xlink:title=" ">
<polygon fill="#e0e0e0" stroke="#999999" points="1366.79,-90.5 1226.79,-90.5 1226.79,-71.5 1366.79,-71.5 1366.79,-90.5"/>
<text text-anchor="middle" x="1296.79" y="-78.5" font-family="Helvetica,sans-Serif" font-size="10.00">deal.II/dofs/dof_handler.h</text>
</a>
</g>
</g>
<!-- Node9&#45;&gt;Node18 -->
<g id="edge36_Node000009_Node000018" class="edge">
<title>Node9&#45;&gt;Node18</title>
<g id="a_edge36_Node000009_Node000018"><a xlink:title=" ">
<path fill="none" stroke="#63b8ff" d="M1076.33,-212.36C1157.64,-212.18 1339.21,-206.65 1377.79,-162 1399.52,-136.86 1357.78,-110.24 1326.56,-94.92"/>
<polygon fill="#63b8ff" stroke="#63b8ff" points="1327.83,-91.65 1317.29,-90.55 1324.84,-97.98 1327.83,-91.65"/>
</a>
</g>
</g>
<!-- Node26 -->
<g id="Node000026" class="node">
<title>Node26</title>
<g id="a_Node000026"><a xlink:title=" ">
<polygon fill="#e0e0e0" stroke="#999999" points="1576.79,-162 1424.79,-162 1424.79,-132 1576.79,-132 1576.79,-162"/>
<text text-anchor="start" x="1432.79" y="-150" font-family="Helvetica,sans-Serif" font-size="10.00">deal.II/base/auto_derivative</text>
<text text-anchor="middle" x="1500.79" y="-139" font-family="Helvetica,sans-Serif" font-size="10.00">_function.h</text>
</a>
</g>
</g>
<!-- Node9&#45;&gt;Node26 -->
<g id="edge30_Node000009_Node000026" class="edge">
<title>Node9&#45;&gt;Node26</title>
<g id="a_edge30_Node000009_Node000026"><a xlink:title=" ">
<path fill="none" stroke="#63b8ff" d="M1076.41,-206.99C1144.72,-198.28 1289.07,-179.6 1410.79,-162 1412.07,-161.82 1413.36,-161.63 1414.65,-161.44"/>
<polygon fill="#63b8ff" stroke="#63b8ff" points="1415.32,-164.88 1424.7,-159.95 1414.3,-157.95 1415.32,-164.88"/>
</a>
</g>
</g>
<!-- Node27 -->
<g id="Node000027" class="node">
<title>Node27</title>
<g id="a_Node000027"><a xlink:title=" ">
<polygon fill="#e0e0e0" stroke="#999999" points="1720.29,-156.5 1595.29,-156.5 1595.29,-137.5 1720.29,-137.5 1720.29,-156.5"/>
<text text-anchor="middle" x="1657.79" y="-144.5" font-family="Helvetica,sans-Serif" font-size="10.00">deal.II/base/function.h</text>
</a>
</g>
</g>
<!-- Node9&#45;&gt;Node27 -->
<g id="edge31_Node000009_Node000027" class="edge">
<title>Node9&#45;&gt;Node27</title>
<g id="a_edge31_Node000009_Node000027"><a xlink:title=" ">
<path fill="none" stroke="#63b8ff" d="M1076.57,-209.76C1167.23,-204.36 1396.05,-189.02 1585.79,-162 1592.9,-160.99 1600.37,-159.74 1607.7,-158.42"/>
<polygon fill="#63b8ff" stroke="#63b8ff" points="1608.37,-161.85 1617.55,-156.57 1607.08,-154.97 1608.37,-161.85"/>
</a>
</g>
</g>
<!-- Node28 -->
<g id="Node000028" class="node">
<title>Node28</title>
<g id="a_Node000028"><a xlink:title=" ">
<polygon fill="#e0e0e0" stroke="#999999" points="319.79,-156.5 195.79,-156.5 195.79,-137.5 319.79,-137.5 319.79,-156.5"/>
<text text-anchor="middle" x="257.79" y="-144.5" font-family="Helvetica,sans-Serif" font-size="10.00">deal.II/grid/manifold.h</text>
</a>
</g>
</g>
<!-- Node9&#45;&gt;Node28 -->
<g id="edge32_Node000009_Node000028" class="edge">
<title>Node9&#45;&gt;Node28</title>
<g id="a_edge32_Node000009_Node000028"><a xlink:title=" ">
<path fill="none" stroke="#63b8ff" d="M997.09,-210.92C889.23,-207.63 581.93,-195.76 328.79,-162 321.52,-161.03 313.86,-159.77 306.38,-158.41"/>
<polygon fill="#63b8ff" stroke="#63b8ff" points="306.82,-154.93 296.34,-156.5 305.51,-161.81 306.82,-154.93"/>
</a>
</g>
</g>
<!-- Node29 -->
<g id="Node000029" class="node">
<title>Node29</title>
<g id="a_Node000029"><a xlink:title=" ">
<polygon fill="#e0e0e0" stroke="#999999" points="453.29,-162 338.29,-162 338.29,-132 453.29,-132 453.29,-162"/>
<text text-anchor="start" x="346.29" y="-150" font-family="Helvetica,sans-Serif" font-size="10.00">deal.II/grid/manifold</text>
<text text-anchor="middle" x="395.79" y="-139" font-family="Helvetica,sans-Serif" font-size="10.00">_lib.h</text>
</a>
</g>
</g>
<!-- Node9&#45;&gt;Node29 -->
<g id="edge33_Node000009_Node000029" class="edge">
<title>Node9&#45;&gt;Node29</title>
<g id="a_edge33_Node000009_Node000029"><a xlink:title=" ">
<path fill="none" stroke="#63b8ff" d="M997.21,-210.23C905.17,-205.75 669.5,-192.23 463.41,-162.13"/>
<polygon fill="#63b8ff" stroke="#63b8ff" points="463.72,-158.63 453.31,-160.63 462.69,-165.56 463.72,-158.63"/>
</a>
</g>
</g>
<!-- Node30 -->
<g id="Node000030" class="node">
<title>Node30</title>
<g id="a_Node000030"><a xlink:title=" ">
<polygon fill="#e0e0e0" stroke="#999999" points="586.29,-162 471.29,-162 471.29,-132 586.29,-132 586.29,-162"/>
<text text-anchor="start" x="479.29" y="-150" font-family="Helvetica,sans-Serif" font-size="10.00">boost/range/adaptor</text>
<text text-anchor="middle" x="528.79" y="-139" font-family="Helvetica,sans-Serif" font-size="10.00">/map.hpp</text>
</a>
</g>
</g>
<!-- Node9&#45;&gt;Node30 -->
<g id="edge34_Node000009_Node000030" class="edge">
<title>Node9&#45;&gt;Node30</title>
<g id="a_edge34_Node000009_Node000030"><a xlink:title=" ">
<path fill="none" stroke="#63b8ff" d="M997.09,-208.75C921.29,-202.27 750.54,-186.37 596.59,-162.02"/>
<polygon fill="#63b8ff" stroke="#63b8ff" points="596.9,-158.53 586.47,-160.41 595.8,-165.44 596.9,-158.53"/>
</a>
</g>
</g>
<!-- Node31 -->
<g id="Node000031" class="node">
<title>Node31</title>
<g id="a_Node000031"><a xlink:title=" ">
<polygon fill="#e0e0e0" stroke="#999999" points="720.79,-162 604.79,-162 604.79,-132 720.79,-132 720.79,-162"/>
<text text-anchor="start" x="612.79" y="-150" font-family="Helvetica,sans-Serif" font-size="10.00">deal.II/base/function</text>
<text text-anchor="middle" x="662.79" y="-139" font-family="Helvetica,sans-Serif" font-size="10.00">_signed_distance.h</text>
</a>
</g>
</g>
<!-- Node9&#45;&gt;Node31 -->
<g id="edge35_Node000009_Node000031" class="edge">
<title>Node9&#45;&gt;Node31</title>
<g id="a_edge35_Node000009_Node000031"><a xlink:title=" ">
<path fill="none" stroke="#63b8ff" d="M996.96,-206.09C940.2,-197.55 832.58,-180.88 730.99,-162.17"/>
<polygon fill="#63b8ff" stroke="#63b8ff" points="731.34,-158.68 720.87,-160.3 730.06,-165.56 731.34,-158.68"/>
</a>
</g>
</g>
<!-- Node32 -->
<g id="Node000032" class="node">
<title>Node32</title>
<g id="a_Node000032"><a xlink:title=" ">
<polygon fill="#e0e0e0" stroke="#999999" points="866.79,-156.5 738.79,-156.5 738.79,-137.5 866.79,-137.5 866.79,-156.5"/>
<text text-anchor="middle" x="802.79" y="-144.5" font-family="Helvetica,sans-Serif" font-size="10.00">deal.II/dofs/dof_tools.h</text>
</a>
</g>
</g>
<!-- Node9&#45;&gt;Node32 -->
<g id="edge37_Node000009_Node000032" class="edge">
<title>Node9&#45;&gt;Node32</title>
<g id="a_edge37_Node000009_Node000032"><a xlink:title=" ">
<path fill="none" stroke="#63b8ff" d="M1005.24,-203.37C963.51,-191.96 889.91,-171.83 843.89,-159.24"/>
<polygon fill="#63b8ff" stroke="#63b8ff" points="844.79,-155.86 834.22,-156.6 842.95,-162.61 844.79,-155.86"/>
</a>
</g>
</g>
<!-- Node33 -->
<g id="Node000033" class="node">
<title>Node33</title>
<g id="a_Node000033"><a xlink:title=" ">
<polygon fill="#e0e0e0" stroke="#999999" points="1060.79,-156.5 884.79,-156.5 884.79,-137.5 1060.79,-137.5 1060.79,-156.5"/>
<text text-anchor="middle" x="972.79" y="-144.5" font-family="Helvetica,sans-Serif" font-size="10.00">deal.II/physics/transformations.h</text>
</a>
</g>
</g>
<!-- Node9&#45;&gt;Node33 -->
<g id="edge38_Node000009_Node000033" class="edge">
<title>Node9&#45;&gt;Node33</title>
<g id="a_edge38_Node000009_Node000033"><a xlink:title=" ">
<path fill="none" stroke="#63b8ff" d="M1028.16,-203.37C1018.1,-193.31 1001.27,-176.48 988.8,-164.01"/>
<polygon fill="#63b8ff" stroke="#63b8ff" points="991.25,-161.5 981.7,-156.91 986.3,-166.45 991.25,-161.5"/>
</a>
</g>
</g>
<!-- Node34 -->
<g id="Node000034" class="node">
<title>Node34</title>
<g id="a_Node000034"><a xlink:title=" ">
<polygon fill="#e0e0e0" stroke="#999999" points="1122.79,-156.5 1078.79,-156.5 1078.79,-137.5 1122.79,-137.5 1122.79,-156.5"/>
<text text-anchor="middle" x="1100.79" y="-144.5" font-family="Helvetica,sans-Serif" font-size="10.00">cfloat</text>
</a>
</g>
</g>
<!-- Node9&#45;&gt;Node34 -->
<g id="edge39_Node000009_Node000034" class="edge">
<title>Node9&#45;&gt;Node34</title>
<g id="a_edge39_Node000009_Node000034"><a xlink:title=" ">
<path fill="none" stroke="#63b8ff" d="M1045.43,-203.37C1055.48,-193.31 1072.32,-176.48 1084.79,-164.01"/>
<polygon fill="#63b8ff" stroke="#63b8ff" points="1087.29,-166.45 1091.89,-156.91 1082.34,-161.5 1087.29,-166.45"/>
</a>
</g>
</g>
<!-- Node35 -->
<g id="Node000035" class="node">
<title>Node35</title>
<g id="a_Node000035"><a xlink:title=" ">
<polygon fill="#e0e0e0" stroke="#999999" points="1198.79,-156.5 1140.79,-156.5 1140.79,-137.5 1198.79,-137.5 1198.79,-156.5"/>
<text text-anchor="middle" x="1169.79" y="-144.5" font-family="Helvetica,sans-Serif" font-size="10.00">memory</text>
</a>
</g>
</g>
<!-- Node9&#45;&gt;Node35 -->
<g id="edge40_Node000009_Node000035" class="edge">
<title>Node9&#45;&gt;Node35</title>
<g id="a_edge40_Node000009_Node000035"><a xlink:title=" ">
<path fill="none" stroke="#63b8ff" d="M1054.73,-203.37C1077.34,-192.49 1116.41,-173.69 1142.67,-161.05"/>
<polygon fill="#63b8ff" stroke="#63b8ff" points="1144.22,-164.19 1151.72,-156.7 1141.19,-157.88 1144.22,-164.19"/>
</a>
</g>
</g>
<!-- Node10&#45;&gt;Node11 -->
<g id="edge10_Node000010_Node000011" class="edge">
<title>Node10&#45;&gt;Node11</title>
<g id="a_edge10_Node000010_Node000011"><a xlink:title=" ">
<path fill="none" stroke="#63b8ff" d="M1232.88,-131.95C1182.69,-120.19 1112.06,-103.63 1066.11,-92.86"/>
<polygon fill="#63b8ff" stroke="#63b8ff" points="1066.66,-89.39 1056.13,-90.52 1065.06,-96.21 1066.66,-89.39"/>
</a>
</g>
</g>
<!-- Node12 -->
<g id="Node000012" class="node">
<title>Node12</title>
<g id="a_Node000012"><a xlink:title=" ">
<polygon fill="#e0e0e0" stroke="#999999" points="1208.29,-90.5 1093.29,-90.5 1093.29,-71.5 1208.29,-71.5 1208.29,-90.5"/>
<text text-anchor="middle" x="1150.79" y="-78.5" font-family="Helvetica,sans-Serif" font-size="10.00">deal.II/base/tensor.h</text>
</a>
</g>
</g>
<!-- Node10&#45;&gt;Node12 -->
<g id="edge11_Node000010_Node000012" class="edge">
<title>Node10&#45;&gt;Node12</title>
<g id="a_edge11_Node000010_Node000012"><a xlink:title=" ">
<path fill="none" stroke="#63b8ff" d="M1261.63,-131.95C1236.95,-120.83 1202.77,-105.42 1178.91,-94.67"/>
<polygon fill="#63b8ff" stroke="#63b8ff" points="1180.25,-91.44 1169.69,-90.52 1177.37,-97.82 1180.25,-91.44"/>
</a>
</g>
</g>
<!-- Node13&#45;&gt;Node4 -->
<g id="edge16_Node000013_Node000004" class="edge">
<title>Node13&#45;&gt;Node4</title>
<g id="a_edge16_Node000013_Node000004"><a xlink:title=" ">
<path fill="none" stroke="#63b8ff" d="M1825.09,-144.29C1926.55,-139.91 2187.66,-126.53 2415.13,-96.13"/>
<polygon fill="#63b8ff" stroke="#63b8ff" points="2415.81,-99.57 2425.26,-94.76 2414.88,-92.63 2415.81,-99.57"/>
</a>
</g>
</g>
<!-- Node13&#45;&gt;Node7 -->
<g id="edge27_Node000013_Node000007" class="edge">
<title>Node13&#45;&gt;Node7</title>
<g id="a_edge27_Node000013_Node000007"><a xlink:title=" ">
<path fill="none" stroke="#63b8ff" d="M1753.98,-137.44C1745.93,-135.3 1737.07,-133.25 1728.79,-132 1669.67,-123.06 750.08,-89.78 565.07,-83.15"/>
<polygon fill="#63b8ff" stroke="#63b8ff" points="565.02,-79.65 554.9,-82.79 564.77,-86.64 565.02,-79.65"/>
</a>
</g>
</g>
<!-- Node13&#45;&gt;Node8 -->
<g id="edge29_Node000013_Node000008" class="edge">
<title>Node13&#45;&gt;Node8</title>
<g id="a_edge29_Node000013_Node000008"><a xlink:title=" ">
<path fill="none" stroke="#63b8ff" d="M1754.26,-137.45C1746.14,-135.28 1737.18,-133.21 1728.79,-132 1458.83,-92.91 774.45,-104.49 501.79,-96 356.51,-91.48 183.3,-85.63 111.07,-83.17"/>
<polygon fill="#63b8ff" stroke="#63b8ff" points="110.87,-79.66 100.76,-82.82 110.63,-86.66 110.87,-79.66"/>
</a>
</g>
</g>
<!-- Node13&#45;&gt;Node11 -->
<g id="edge17_Node000013_Node000011" class="edge">
<title>Node13&#45;&gt;Node11</title>
<g id="a_edge17_Node000013_Node000011"><a xlink:title=" ">
<path fill="none" stroke="#63b8ff" d="M1753.69,-137.44C1745.71,-135.33 1736.97,-133.29 1728.79,-132 1445.21,-87.11 1368.27,-134.8 1083.79,-96 1077.43,-95.13 1070.77,-93.97 1064.24,-92.68"/>
<polygon fill="#63b8ff" stroke="#63b8ff" points="1064.66,-89.19 1054.16,-90.57 1063.23,-96.04 1064.66,-89.19"/>
</a>
</g>
</g>
<!-- Node13&#45;&gt;Node12 -->
<g id="edge19_Node000013_Node000012" class="edge">
<title>Node13&#45;&gt;Node12</title>
<g id="a_edge19_Node000013_Node000012"><a xlink:title=" ">
<path fill="none" stroke="#63b8ff" d="M1753.4,-137.45C1745.5,-135.36 1736.87,-133.34 1728.79,-132 1504.19,-94.76 1443.3,-127.36 1217.79,-96 1211.07,-95.07 1204.02,-93.85 1197.11,-92.53"/>
<polygon fill="#63b8ff" stroke="#63b8ff" points="1197.64,-89.07 1187.15,-90.53 1196.27,-95.93 1197.64,-89.07"/>
</a>
</g>
</g>
<!-- Node14 -->
<g id="Node000014" class="node">
<title>Node14</title>
<g id="a_Node000014"><a xlink:href="output__struct_8h.html" target="_top" xlink:title=" ">
<polygon fill="#fff0f0" stroke="red" points="1934.79,-90.5 1820.79,-90.5 1820.79,-71.5 1934.79,-71.5 1934.79,-90.5"/>
<text text-anchor="middle" x="1877.79" y="-78.5" font-family="Helvetica,sans-Serif" font-size="10.00">core/output_struct.h</text>
</a>
</g>
</g>
<!-- Node13&#45;&gt;Node14 -->
<g id="edge13_Node000013_Node000014" class="edge">
<title>Node13&#45;&gt;Node14</title>
<g id="a_edge13_Node000013_Node000014"><a xlink:title=" ">
<path fill="none" stroke="#63b8ff" d="M1794.74,-137.37C1810.49,-126.87 1837.3,-109 1856.19,-96.4"/>
<polygon fill="#63b8ff" stroke="#63b8ff" points="1858.37,-99.16 1864.75,-90.7 1854.48,-93.33 1858.37,-99.16"/>
</a>
</g>
</g>
<!-- Node15 -->
<g id="Node000015" class="node">
<title>Node15</title>
<g id="a_Node000015"><a xlink:title=" ">
<polygon fill="#e0e0e0" stroke="#999999" points="1970.29,-30 1869.29,-30 1869.29,0 1970.29,0 1970.29,-30"/>
<text text-anchor="start" x="1877.29" y="-18" font-family="Helvetica,sans-Serif" font-size="10.00">deal.II/base/table</text>
<text text-anchor="middle" x="1919.79" y="-7" font-family="Helvetica,sans-Serif" font-size="10.00">_handler.h</text>
</a>
</g>
</g>
<!-- Node13&#45;&gt;Node15 -->
<g id="edge18_Node000013_Node000015" class="edge">
<title>Node13&#45;&gt;Node15</title>
<g id="a_edge18_Node000013_Node000015"><a xlink:title=" ">
<path fill="none" stroke="#63b8ff" d="M1824.9,-145.94C1863.03,-143.3 1916.71,-132.71 1943.79,-96 1956.22,-79.17 1947.01,-55.9 1936.61,-38.79"/>
<polygon fill="#63b8ff" stroke="#63b8ff" points="1939.26,-36.44 1930.84,-30 1933.41,-40.28 1939.26,-36.44"/>
</a>
</g>
</g>
<!-- Node17 -->
<g id="Node000017" class="node">
<title>Node17</title>
<g id="a_Node000017"><a xlink:title=" ">
<polygon fill="#e0e0e0" stroke="#999999" points="2120.79,-96 1990.79,-96 1990.79,-66 2120.79,-66 2120.79,-96"/>
<text text-anchor="start" x="1998.79" y="-84" font-family="Helvetica,sans-Serif" font-size="10.00">deal.II/base/conditional</text>
<text text-anchor="middle" x="2055.79" y="-73" font-family="Helvetica,sans-Serif" font-size="10.00">_ostream.h</text>
</a>
</g>
</g>
<!-- Node13&#45;&gt;Node17 -->
<g id="edge15_Node000013_Node000017" class="edge">
<title>Node13&#45;&gt;Node17</title>
<g id="a_edge15_Node000013_Node000017"><a xlink:title=" ">
<path fill="none" stroke="#63b8ff" d="M1818.46,-137.44C1861.16,-127.46 1932.63,-110.77 1986.01,-98.3"/>
<polygon fill="#63b8ff" stroke="#63b8ff" points="1986.81,-101.71 1995.75,-96.02 1985.22,-94.89 1986.81,-101.71"/>
</a>
</g>
</g>
<!-- Node13&#45;&gt;Node18 -->
<g id="edge20_Node000013_Node000018" class="edge">
<title>Node13&#45;&gt;Node18</title>
<g id="a_edge20_Node000013_Node000018"><a xlink:title=" ">
<path fill="none" stroke="#63b8ff" d="M1752.82,-137.47C1745.07,-135.43 1736.66,-133.43 1728.79,-132 1573.64,-103.78 1531.99,-117.77 1375.79,-96 1368.03,-94.92 1359.87,-93.64 1351.85,-92.29"/>
<polygon fill="#63b8ff" stroke="#63b8ff" points="1352.27,-88.81 1341.82,-90.57 1351.09,-95.71 1352.27,-88.81"/>
</a>
</g>
</g>
<!-- Node19 -->
<g id="Node000019" class="node">
<title>Node19</title>
<g id="a_Node000019"><a xlink:title=" ">
<polygon fill="#e0e0e0" stroke="#999999" points="2258.29,-90.5 2139.29,-90.5 2139.29,-71.5 2258.29,-71.5 2258.29,-90.5"/>
<text text-anchor="middle" x="2198.79" y="-78.5" font-family="Helvetica,sans-Serif" font-size="10.00">deal.II/fe/fe_values.h</text>
</a>
</g>
</g>
<!-- Node13&#45;&gt;Node19 -->
<g id="edge21_Node000013_Node000019" class="edge">
<title>Node13&#45;&gt;Node19</title>
<g id="a_edge21_Node000013_Node000019"><a xlink:title=" ">
<path fill="none" stroke="#63b8ff" d="M1825.05,-140.6C1890.98,-132.18 2020.49,-114.93 2129.79,-96 2135.96,-94.93 2142.42,-93.73 2148.8,-92.49"/>
<polygon fill="#63b8ff" stroke="#63b8ff" points="2149.6,-95.91 2158.73,-90.53 2148.24,-89.04 2149.6,-95.91"/>
</a>
</g>
</g>
<!-- Node20 -->
<g id="Node000020" class="node">
<title>Node20</title>
<g id="a_Node000020"><a xlink:title=" ">
<polygon fill="#e0e0e0" stroke="#999999" points="2407.29,-96 2276.29,-96 2276.29,-66 2407.29,-66 2407.29,-96"/>
<text text-anchor="start" x="2284.29" y="-84" font-family="Helvetica,sans-Serif" font-size="10.00">deal.II/particles/particle</text>
<text text-anchor="middle" x="2341.79" y="-73" font-family="Helvetica,sans-Serif" font-size="10.00">_iterator.h</text>
</a>
</g>
</g>
<!-- Node13&#45;&gt;Node20 -->
<g id="edge22_Node000013_Node000020" class="edge">
<title>Node13&#45;&gt;Node20</title>
<g id="a_edge22_Node000013_Node000020"><a xlink:title=" ">
<path fill="none" stroke="#63b8ff" d="M1824.85,-142.8C1908.16,-136.34 2097.38,-120.38 2266.02,-96.19"/>
<polygon fill="#63b8ff" stroke="#63b8ff" points="2266.68,-99.63 2276.07,-94.73 2265.68,-92.7 2266.68,-99.63"/>
</a>
</g>
</g>
<!-- Node21 -->
<g id="Node000021" class="node">
<title>Node21</title>
<g id="a_Node000021"><a xlink:title=" ">
<polygon fill="#e0e0e0" stroke="#999999" points="1490.29,-96 1385.29,-96 1385.29,-66 1490.29,-66 1490.29,-96"/>
<text text-anchor="start" x="1393.29" y="-84" font-family="Helvetica,sans-Serif" font-size="10.00">boost/archive/text</text>
<text text-anchor="middle" x="1437.79" y="-73" font-family="Helvetica,sans-Serif" font-size="10.00">_iarchive.hpp</text>
</a>
</g>
</g>
<!-- Node13&#45;&gt;Node21 -->
<g id="edge23_Node000013_Node000021" class="edge">
<title>Node13&#45;&gt;Node21</title>
<g id="a_edge23_Node000013_Node000021"><a xlink:title=" ">
<path fill="none" stroke="#63b8ff" d="M1751.65,-137.46C1744.22,-135.52 1736.25,-133.56 1728.79,-132 1630.7,-111.42 1602.16,-115.31 1500.4,-96.22"/>
<polygon fill="#63b8ff" stroke="#63b8ff" points="1500.79,-92.73 1490.32,-94.3 1499.49,-99.61 1500.79,-92.73"/>
</a>
</g>
</g>
<!-- Node22 -->
<g id="Node000022" class="node">
<title>Node22</title>
<g id="a_Node000022"><a xlink:title=" ">
<polygon fill="#e0e0e0" stroke="#999999" points="1613.29,-96 1508.29,-96 1508.29,-66 1613.29,-66 1613.29,-96"/>
<text text-anchor="start" x="1516.29" y="-84" font-family="Helvetica,sans-Serif" font-size="10.00">boost/archive/text</text>
<text text-anchor="middle" x="1560.79" y="-73" font-family="Helvetica,sans-Serif" font-size="10.00">_oarchive.hpp</text>
</a>
</g>
</g>
<!-- Node13&#45;&gt;Node22 -->
<g id="edge24_Node000013_Node000022" class="edge">
<title>Node13&#45;&gt;Node22</title>
<g id="a_edge24_Node000013_Node000022"><a xlink:title=" ">
<path fill="none" stroke="#63b8ff" d="M1751.99,-137.37C1718.1,-127.56 1661.96,-111.3 1619.25,-98.93"/>
<polygon fill="#63b8ff" stroke="#63b8ff" points="1620.12,-95.54 1609.54,-96.12 1618.17,-102.26 1620.12,-95.54"/>
</a>
</g>
</g>
<!-- Node23 -->
<g id="Node000023" class="node">
<title>Node23</title>
<g id="a_Node000023"><a xlink:title=" ">
<polygon fill="#e0e0e0" stroke="#999999" points="1686.29,-90.5 1631.29,-90.5 1631.29,-71.5 1686.29,-71.5 1686.29,-90.5"/>
<text text-anchor="middle" x="1658.79" y="-78.5" font-family="Helvetica,sans-Serif" font-size="10.00">fstream</text>
</a>
</g>
</g>
<!-- Node13&#45;&gt;Node23 -->
<g id="edge25_Node000013_Node000023" class="edge">
<title>Node13&#45;&gt;Node23</title>
<g id="a_edge25_Node000013_Node000023"><a xlink:title=" ">
<path fill="none" stroke="#63b8ff" d="M1765.21,-137.37C1744.48,-126.59 1708.8,-108.02 1684.52,-95.38"/>
<polygon fill="#63b8ff" stroke="#63b8ff" points="1686,-92.21 1675.51,-90.7 1682.77,-98.42 1686,-92.21"/>
</a>
</g>
</g>
<!-- Node24 -->
<g id="Node000024" class="node">
<title>Node24</title>
<g id="a_Node000024"><a xlink:title=" ">
<polygon fill="#e0e0e0" stroke="#999999" points="1742.79,-90.5 1704.79,-90.5 1704.79,-71.5 1742.79,-71.5 1742.79,-90.5"/>
<text text-anchor="middle" x="1723.79" y="-78.5" font-family="Helvetica,sans-Serif" font-size="10.00">map</text>
</a>
</g>
</g>
<!-- Node13&#45;&gt;Node24 -->
<g id="edge26_Node000013_Node000024" class="edge">
<title>Node13&#45;&gt;Node24</title>
<g id="a_edge26_Node000013_Node000024"><a xlink:title=" ">
<path fill="none" stroke="#63b8ff" d="M1773.97,-137.37C1764.94,-127.4 1749.89,-110.79 1738.62,-98.36"/>
<polygon fill="#63b8ff" stroke="#63b8ff" points="1741.17,-95.96 1731.86,-90.91 1735.99,-100.67 1741.17,-95.96"/>
</a>
</g>
</g>
<!-- Node25 -->
<g id="Node000025" class="node">
<title>Node25</title>
<g id="a_Node000025"><a xlink:title=" ">
<polygon fill="#e0e0e0" stroke="#999999" points="1802.29,-90.5 1761.29,-90.5 1761.29,-71.5 1802.29,-71.5 1802.29,-90.5"/>
<text text-anchor="middle" x="1781.79" y="-78.5" font-family="Helvetica,sans-Serif" font-size="10.00">tuple</text>
</a>
</g>
</g>
<!-- Node13&#45;&gt;Node25 -->
<g id="edge28_Node000013_Node000025" class="edge">
<title>Node13&#45;&gt;Node25</title>
<g id="a_edge28_Node000013_Node000025"><a xlink:title=" ">
<path fill="none" stroke="#63b8ff" d="M1781.79,-137.37C1781.79,-128.16 1781.79,-113.29 1781.79,-101.27"/>
<polygon fill="#63b8ff" stroke="#63b8ff" points="1785.29,-100.91 1781.79,-90.91 1778.29,-100.91 1785.29,-100.91"/>
</a>
</g>
</g>
<!-- Node14&#45;&gt;Node15 -->
<g id="edge14_Node000014_Node000015" class="edge">
<title>Node14&#45;&gt;Node15</title>
<g id="a_edge14_Node000014_Node000015"><a xlink:title=" ">
<path fill="none" stroke="#63b8ff" d="M1883.46,-71.37C1888.9,-63.08 1897.36,-50.18 1904.75,-38.92"/>
<polygon fill="#63b8ff" stroke="#63b8ff" points="1907.81,-40.64 1910.37,-30.36 1901.96,-36.8 1907.81,-40.64"/>
</a>
</g>
</g>
</g>
</svg>
