<?xml version="1.0" encoding="UTF-8" standalone="no"?>
<!DOCTYPE svg PUBLIC "-//W3C//DTD SVG 1.1//EN"
 "http://www.w3.org/Graphics/SVG/1.1/DTD/svg11.dtd">
<!-- Generated by graphviz version 2.43.0 (0)
 -->
<!-- Title: /home/runner/work/lethe/lethe/include/core/solutions_output.h Pages: 1 -->
<svg width="2517pt" height="489pt"
 viewBox="0.00 0.00 2517.00 489.00" xmlns="http://www.w3.org/2000/svg" xmlns:xlink="http://www.w3.org/1999/xlink">
<g id="graph0" class="graph" transform="scale(1 1) rotate(0) translate(4 485)">
<title>/home/runner/work/lethe/lethe/include/core/solutions_output.h</title>
<!-- Node1 -->
<g id="Node000001" class="node">
<title>Node1</title>
<g id="a_Node000001"><a xlink:title=" ">
<polygon fill="#999999" stroke="#666666" points="1739.5,-481 1585.5,-481 1585.5,-440 1739.5,-440 1739.5,-481"/>
<text text-anchor="start" x="1593.5" y="-469" font-family="Helvetica,sans-Serif" font-size="10.00">/home/runner/work/lethe</text>
<text text-anchor="start" x="1593.5" y="-458" font-family="Helvetica,sans-Serif" font-size="10.00">/lethe/include/core/solutions</text>
<text text-anchor="middle" x="1662.5" y="-447" font-family="Helvetica,sans-Serif" font-size="10.00">_output.h</text>
</a>
</g>
</g>
<!-- Node2 -->
<g id="Node000002" class="node">
<title>Node2</title>
<g id="a_Node000002"><a xlink:href="interface__tools_8h.html" target="_top" xlink:title=" ">
<polygon fill="white" stroke="#666666" points="390,-398.5 237,-398.5 237,-357.5 390,-357.5 390,-398.5"/>
<text text-anchor="start" x="245" y="-386.5" font-family="Helvetica,sans-Serif" font-size="10.00">/home/runner/work/lethe</text>
<text text-anchor="start" x="245" y="-375.5" font-family="Helvetica,sans-Serif" font-size="10.00">/lethe/include/core/interface</text>
<text text-anchor="middle" x="313.5" y="-364.5" font-family="Helvetica,sans-Serif" font-size="10.00">_tools.h</text>
</a>
</g>
</g>
<!-- Node1&#45;&gt;Node2 -->
<g id="edge1_Node000001_Node000002" class="edge">
<title>Node1&#45;&gt;Node2</title>
<g id="a_edge1_Node000001_Node000002"><a xlink:title=" ">
<path fill="none" stroke="#63b8ff" d="M1574.99,-458.19C1328.3,-454.08 630.57,-439.58 404.5,-404 395.76,-402.62 386.66,-400.72 377.74,-398.56"/>
<polygon fill="#63b8ff" stroke="#63b8ff" points="1575.28,-461.69 1585.33,-458.36 1575.39,-454.69 1575.28,-461.69"/>
</a>
</g>
</g>
<!-- Node7 -->
<g id="Node000007" class="node">
<title>Node7</title>
<g id="a_Node000007"><a xlink:href="navier__stokes__base_8h.html" target="_top" xlink:title=" ">
<polygon fill="white" stroke="#666666" points="1460,-398.5 1323,-398.5 1323,-357.5 1460,-357.5 1460,-398.5"/>
<text text-anchor="start" x="1331" y="-386.5" font-family="Helvetica,sans-Serif" font-size="10.00">/home/runner/work/lethe</text>
<text text-anchor="start" x="1331" y="-375.5" font-family="Helvetica,sans-Serif" font-size="10.00">/lethe/include/solvers</text>
<text text-anchor="middle" x="1391.5" y="-364.5" font-family="Helvetica,sans-Serif" font-size="10.00">/navier_stokes_base.h</text>
</a>
</g>
</g>
<!-- Node1&#45;&gt;Node7 -->
<g id="edge6_Node000001_Node000007" class="edge">
<title>Node1&#45;&gt;Node7</title>
<g id="a_edge6_Node000001_Node000007"><a xlink:title=" ">
<path fill="none" stroke="#63b8ff" d="M1586.94,-437.05C1546.2,-424.95 1496.4,-410.16 1457.27,-398.54"/>
<polygon fill="#63b8ff" stroke="#63b8ff" points="1585.97,-440.42 1596.55,-439.91 1587.96,-433.71 1585.97,-440.42"/>
</a>
</g>
</g>
<!-- Node12 -->
<g id="Node000012" class="node">
<title>Node12</title>
<g id="a_Node000012"><a xlink:href="fluid__dynamics__sharp_8cc.html" target="_top" xlink:title=" ">
<polygon fill="white" stroke="#666666" points="1565,-134.5 1426,-134.5 1426,-93.5 1565,-93.5 1565,-134.5"/>
<text text-anchor="start" x="1434" y="-122.5" font-family="Helvetica,sans-Serif" font-size="10.00">/home/runner/work/lethe</text>
<text text-anchor="start" x="1434" y="-111.5" font-family="Helvetica,sans-Serif" font-size="10.00">/lethe/source/fem&#45;dem</text>
<text text-anchor="middle" x="1495.5" y="-100.5" font-family="Helvetica,sans-Serif" font-size="10.00">/fluid_dynamics_sharp.cc</text>
</a>
</g>
</g>
<!-- Node1&#45;&gt;Node12 -->
<g id="edge32_Node000001_Node000012" class="edge">
<title>Node1&#45;&gt;Node12</title>
<g id="a_edge32_Node000001_Node000012"><a xlink:title=" ">
<path fill="none" stroke="#63b8ff" d="M1662.02,-429.52C1660.44,-365.06 1653.65,-215.89 1624.5,-176 1610.03,-156.2 1587.46,-142.59 1565.22,-133.35"/>
<polygon fill="#63b8ff" stroke="#63b8ff" points="1658.53,-429.89 1662.25,-439.82 1665.53,-429.74 1658.53,-429.89"/>
</a>
</g>
</g>
<!-- Node15 -->
<g id="Node000015" class="node">
<title>Node15</title>
<g id="a_Node000015"><a xlink:href="cfd__dem__coupling_8cc.html" target="_top" xlink:title=" ">
<polygon fill="white" stroke="#666666" points="618,-46.5 481,-46.5 481,-5.5 618,-5.5 618,-46.5"/>
<text text-anchor="start" x="489" y="-34.5" font-family="Helvetica,sans-Serif" font-size="10.00">/home/runner/work/lethe</text>
<text text-anchor="start" x="489" y="-23.5" font-family="Helvetica,sans-Serif" font-size="10.00">/lethe/source/fem&#45;dem</text>
<text text-anchor="middle" x="549.5" y="-12.5" font-family="Helvetica,sans-Serif" font-size="10.00">/cfd_dem_coupling.cc</text>
</a>
</g>
</g>
<!-- Node1&#45;&gt;Node15 -->
<g id="edge30_Node000001_Node000015" class="edge">
<title>Node1&#45;&gt;Node15</title>
<g id="a_edge30_Node000001_Node000015"><a xlink:title=" ">
<path fill="none" stroke="#63b8ff" d="M1574.95,-457.38C1337.86,-451.29 695.02,-432.34 603.5,-404 511.47,-375.5 418.5,-387.35 418.5,-291 418.5,-291 418.5,-291 418.5,-201 418.5,-150.07 407.94,-129.47 437.5,-88 450.67,-69.52 471.25,-56.06 491.2,-46.56"/>
<polygon fill="#63b8ff" stroke="#63b8ff" points="1575.16,-460.89 1585.25,-457.64 1575.34,-453.89 1575.16,-460.89"/>
</a>
</g>
</g>
<!-- Node18 -->
<g id="Node000018" class="node">
<title>Node18</title>
<g id="a_Node000018"><a xlink:href="fluid__dynamics__nitsche_8cc.html" target="_top" xlink:title=" ">
<polygon fill="white" stroke="#666666" points="594,-134.5 447,-134.5 447,-93.5 594,-93.5 594,-134.5"/>
<text text-anchor="start" x="455" y="-122.5" font-family="Helvetica,sans-Serif" font-size="10.00">/home/runner/work/lethe</text>
<text text-anchor="start" x="455" y="-111.5" font-family="Helvetica,sans-Serif" font-size="10.00">/lethe/source/solvers</text>
<text text-anchor="middle" x="520.5" y="-100.5" font-family="Helvetica,sans-Serif" font-size="10.00">/fluid_dynamics_nitsche.cc</text>
</a>
</g>
</g>
<!-- Node1&#45;&gt;Node18 -->
<g id="edge33_Node000001_Node000018" class="edge">
<title>Node1&#45;&gt;Node18</title>
<g id="a_edge33_Node000001_Node000018"><a xlink:title=" ">
<path fill="none" stroke="#63b8ff" d="M1575,-445.82C1504.39,-434.72 1402.51,-418.58 1313.5,-404 937.93,-342.48 705.69,-531.06 475.5,-228 453.66,-199.25 481.07,-158.49 501.69,-134.59"/>
<polygon fill="#63b8ff" stroke="#63b8ff" points="1574.76,-449.32 1585.19,-447.42 1575.85,-442.41 1574.76,-449.32"/>
</a>
</g>
</g>
<!-- Node23 -->
<g id="Node000023" class="node">
<title>Node23</title>
<g id="a_Node000023"><a xlink:href="cfd__dem__coupling__matrix__free_8cc.html" target="_top" xlink:title=" ">
<polygon fill="white" stroke="#666666" points="1439.5,-52 1293.5,-52 1293.5,0 1439.5,0 1439.5,-52"/>
<text text-anchor="start" x="1301.5" y="-40" font-family="Helvetica,sans-Serif" font-size="10.00">/home/runner/work/lethe</text>
<text text-anchor="start" x="1301.5" y="-29" font-family="Helvetica,sans-Serif" font-size="10.00">/lethe/source/fem&#45;dem</text>
<text text-anchor="start" x="1301.5" y="-18" font-family="Helvetica,sans-Serif" font-size="10.00">/cfd_dem_coupling_matrix</text>
<text text-anchor="middle" x="1366.5" y="-7" font-family="Helvetica,sans-Serif" font-size="10.00">_free.cc</text>
</a>
</g>
</g>
<!-- Node1&#45;&gt;Node23 -->
<g id="edge31_Node000001_Node000023" class="edge">
<title>Node1&#45;&gt;Node23</title>
<g id="a_edge31_Node000001_Node000023"><a xlink:title=" ">
<path fill="none" stroke="#63b8ff" d="M1667.89,-429.8C1673.51,-396.23 1681.5,-339.88 1681.5,-291 1681.5,-291 1681.5,-291 1681.5,-201 1681.5,-91.04 1532.61,-50.03 1439.56,-35.14"/>
<polygon fill="#63b8ff" stroke="#63b8ff" points="1664.41,-429.42 1666.16,-439.87 1671.3,-430.6 1664.41,-429.42"/>
</a>
</g>
</g>
<!-- Node26 -->
<g id="Node000026" class="node">
<title>Node26</title>
<g id="a_Node000026"><a xlink:href="navier__stokes__base_8cc.html" target="_top" xlink:title=" ">
<polygon fill="white" stroke="#666666" points="1615,-310.5 1478,-310.5 1478,-269.5 1615,-269.5 1615,-310.5"/>
<text text-anchor="start" x="1486" y="-298.5" font-family="Helvetica,sans-Serif" font-size="10.00">/home/runner/work/lethe</text>
<text text-anchor="start" x="1486" y="-287.5" font-family="Helvetica,sans-Serif" font-size="10.00">/lethe/source/solvers</text>
<text text-anchor="middle" x="1546.5" y="-276.5" font-family="Helvetica,sans-Serif" font-size="10.00">/navier_stokes_base.cc</text>
</a>
</g>
</g>
<!-- Node1&#45;&gt;Node26 -->
<g id="edge34_Node000001_Node000026" class="edge">
<title>Node1&#45;&gt;Node26</title>
<g id="a_edge34_Node000001_Node000026"><a xlink:title=" ">
<path fill="none" stroke="#63b8ff" d="M1643.05,-431.24C1619.48,-397.01 1580.41,-340.26 1559.95,-310.53"/>
<polygon fill="#63b8ff" stroke="#63b8ff" points="1640.41,-433.59 1648.97,-439.84 1646.18,-429.62 1640.41,-433.59"/>
</a>
</g>
</g>
<!-- Node27 -->
<g id="Node000027" class="node">
<title>Node27</title>
<g id="a_Node000027"><a xlink:href="serial__solid_8cc.html" target="_top" xlink:title=" ">
<polygon fill="white" stroke="#666666" points="1847,-398.5 1710,-398.5 1710,-357.5 1847,-357.5 1847,-398.5"/>
<text text-anchor="start" x="1718" y="-386.5" font-family="Helvetica,sans-Serif" font-size="10.00">/home/runner/work/lethe</text>
<text text-anchor="start" x="1718" y="-375.5" font-family="Helvetica,sans-Serif" font-size="10.00">/lethe/source/core/serial</text>
<text text-anchor="middle" x="1778.5" y="-364.5" font-family="Helvetica,sans-Serif" font-size="10.00">_solid.cc</text>
</a>
</g>
</g>
<!-- Node1&#45;&gt;Node27 -->
<g id="edge26_Node000001_Node000027" class="edge">
<title>Node1&#45;&gt;Node27</title>
<g id="a_edge26_Node000001_Node000027"><a xlink:title=" ">
<path fill="none" stroke="#63b8ff" d="M1699.19,-434.04C1715.62,-422.64 1734.69,-409.4 1750.01,-398.77"/>
<polygon fill="#63b8ff" stroke="#63b8ff" points="1697.1,-431.23 1690.88,-439.81 1701.09,-436.98 1697.1,-431.23"/>
</a>
</g>
</g>
<!-- Node28 -->
<g id="Node000028" class="node">
<title>Node28</title>
<g id="a_Node000028"><a xlink:href="solutions__output_8cc.html" target="_top" xlink:title=" ">
<polygon fill="white" stroke="#666666" points="2016,-398.5 1865,-398.5 1865,-357.5 2016,-357.5 2016,-398.5"/>
<text text-anchor="start" x="1873" y="-386.5" font-family="Helvetica,sans-Serif" font-size="10.00">/home/runner/work/lethe</text>
<text text-anchor="start" x="1873" y="-375.5" font-family="Helvetica,sans-Serif" font-size="10.00">/lethe/source/core/solutions</text>
<text text-anchor="middle" x="1940.5" y="-364.5" font-family="Helvetica,sans-Serif" font-size="10.00">_output.cc</text>
</a>
</g>
</g>
<!-- Node1&#45;&gt;Node28 -->
<g id="edge27_Node000001_Node000028" class="edge">
<title>Node1&#45;&gt;Node28</title>
<g id="a_edge27_Node000001_Node000028"><a xlink:title=" ">
<path fill="none" stroke="#63b8ff" d="M1741.44,-437.12C1776.67,-427.08 1818.69,-415.03 1856.5,-404 1862.49,-402.25 1868.71,-400.42 1874.95,-398.58"/>
<polygon fill="#63b8ff" stroke="#63b8ff" points="1740.35,-433.79 1731.69,-439.9 1742.26,-440.53 1740.35,-433.79"/>
</a>
</g>
</g>
<!-- Node29 -->
<g id="Node000029" class="node">
<title>Node29</title>
<g id="a_Node000029"><a xlink:href="dem_8cc.html" target="_top" xlink:title=" ">
<polygon fill="white" stroke="#666666" points="2177,-393 2034,-393 2034,-363 2177,-363 2177,-393"/>
<text text-anchor="start" x="2042" y="-381" font-family="Helvetica,sans-Serif" font-size="10.00">/home/runner/work/lethe</text>
<text text-anchor="middle" x="2105.5" y="-370" font-family="Helvetica,sans-Serif" font-size="10.00">/lethe/source/dem/dem.cc</text>
</a>
</g>
</g>
<!-- Node1&#45;&gt;Node29 -->
<g id="edge28_Node000001_Node000029" class="edge">
<title>Node1&#45;&gt;Node29</title>
<g id="a_edge28_Node000001_Node000029"><a xlink:title=" ">
<path fill="none" stroke="#63b8ff" d="M1749.82,-449.91C1823.79,-440.89 1932.36,-425.54 2025.5,-404 2038.4,-401.02 2052.24,-396.99 2064.72,-393.05"/>
<polygon fill="#63b8ff" stroke="#63b8ff" points="1749.13,-446.47 1739.62,-451.14 1749.97,-453.42 1749.13,-446.47"/>
</a>
</g>
</g>
<!-- Node30 -->
<g id="Node000030" class="node">
<title>Node30</title>
<g id="a_Node000030"><a xlink:href="lagrangian__post__processing_8cc.html" target="_top" xlink:title=" ">
<polygon fill="white" stroke="#666666" points="2354,-398.5 2195,-398.5 2195,-357.5 2354,-357.5 2354,-398.5"/>
<text text-anchor="start" x="2203" y="-386.5" font-family="Helvetica,sans-Serif" font-size="10.00">/home/runner/work/lethe</text>
<text text-anchor="start" x="2203" y="-375.5" font-family="Helvetica,sans-Serif" font-size="10.00">/lethe/source/dem/lagrangian</text>
<text text-anchor="middle" x="2274.5" y="-364.5" font-family="Helvetica,sans-Serif" font-size="10.00">_post_processing.cc</text>
</a>
</g>
</g>
<!-- Node1&#45;&gt;Node30 -->
<g id="edge29_Node000001_Node000030" class="edge">
<title>Node1&#45;&gt;Node30</title>
<g id="a_edge29_Node000001_Node000030"><a xlink:title=" ">
<path fill="none" stroke="#63b8ff" d="M1750.11,-454.82C1854.72,-448.17 2034.61,-433.39 2186.5,-404 2194.3,-402.49 2202.4,-400.62 2210.4,-398.58"/>
<polygon fill="#63b8ff" stroke="#63b8ff" points="1749.68,-451.34 1739.92,-455.46 1750.11,-458.33 1749.68,-451.34"/>
</a>
</g>
</g>
<!-- Node31 -->
<g id="Node000031" class="node">
<title>Node31</title>
<g id="a_Node000031"><a xlink:href="vof__algebraic__interface__reinitialization_8cc.html" target="_top" xlink:title=" ">
<polygon fill="white" stroke="#666666" points="2509,-404 2372,-404 2372,-352 2509,-352 2509,-404"/>
<text text-anchor="start" x="2380" y="-392" font-family="Helvetica,sans-Serif" font-size="10.00">/home/runner/work/lethe</text>
<text text-anchor="start" x="2380" y="-381" font-family="Helvetica,sans-Serif" font-size="10.00">/lethe/source/solvers</text>
<text text-anchor="start" x="2380" y="-370" font-family="Helvetica,sans-Serif" font-size="10.00">/vof_algebraic_interface</text>
<text text-anchor="middle" x="2440.5" y="-359" font-family="Helvetica,sans-Serif" font-size="10.00">_reinitialization.cc</text>
</a>
</g>
</g>
<!-- Node1&#45;&gt;Node31 -->
<g id="edge35_Node000001_Node000031" class="edge">
<title>Node1&#45;&gt;Node31</title>
<g id="a_edge35_Node000001_Node000031"><a xlink:title=" ">
<path fill="none" stroke="#63b8ff" d="M1749.71,-459.14C1883.19,-457.13 2145.58,-447.38 2363.5,-404 2366.26,-403.45 2369.05,-402.84 2371.87,-402.17"/>
<polygon fill="#63b8ff" stroke="#63b8ff" points="1749.5,-455.64 1739.55,-459.28 1749.6,-462.64 1749.5,-455.64"/>
</a>
</g>
</g>
<!-- Node3 -->
<g id="Node000003" class="node">
<title>Node3</title>
<g id="a_Node000003"><a xlink:href="vof_8h.html" target="_top" xlink:title=" ">
<polygon fill="white" stroke="#666666" points="221.5,-305 73.5,-305 73.5,-275 221.5,-275 221.5,-305"/>
<text text-anchor="start" x="81.5" y="-293" font-family="Helvetica,sans-Serif" font-size="10.00">/home/runner/work/lethe</text>
<text text-anchor="middle" x="147.5" y="-282" font-family="Helvetica,sans-Serif" font-size="10.00">/lethe/include/solvers/vof.h</text>
</a>
</g>
</g>
<!-- Node2&#45;&gt;Node3 -->
<g id="edge2_Node000002_Node000003" class="edge">
<title>Node2&#45;&gt;Node3</title>
<g id="a_edge2_Node000002_Node000003"><a xlink:title=" ">
<path fill="none" stroke="#63b8ff" d="M266.87,-352.84C237.14,-337.44 199.63,-318.01 174.68,-305.08"/>
<polygon fill="#63b8ff" stroke="#63b8ff" points="265.34,-355.99 275.83,-357.49 268.56,-349.78 265.34,-355.99"/>
</a>
</g>
</g>
<!-- Node6 -->
<g id="Node000006" class="node">
<title>Node6</title>
<g id="a_Node000006"><a xlink:href="interface__tools_8cc.html" target="_top" xlink:title=" ">
<polygon fill="white" stroke="#666666" points="389.5,-310.5 239.5,-310.5 239.5,-269.5 389.5,-269.5 389.5,-310.5"/>
<text text-anchor="start" x="247.5" y="-298.5" font-family="Helvetica,sans-Serif" font-size="10.00">/home/runner/work/lethe</text>
<text text-anchor="start" x="247.5" y="-287.5" font-family="Helvetica,sans-Serif" font-size="10.00">/lethe/source/core/interface</text>
<text text-anchor="middle" x="314.5" y="-276.5" font-family="Helvetica,sans-Serif" font-size="10.00">_tools.cc</text>
</a>
</g>
</g>
<!-- Node2&#45;&gt;Node6 -->
<g id="edge5_Node000002_Node000006" class="edge">
<title>Node2&#45;&gt;Node6</title>
<g id="a_edge5_Node000002_Node000006"><a xlink:title=" ">
<path fill="none" stroke="#63b8ff" d="M313.84,-347.36C313.99,-335.26 314.14,-321.58 314.27,-310.74"/>
<polygon fill="#63b8ff" stroke="#63b8ff" points="310.34,-347.45 313.73,-357.49 317.34,-347.53 310.34,-347.45"/>
</a>
</g>
</g>
<!-- Node4 -->
<g id="Node000004" class="node">
<title>Node4</title>
<g id="a_Node000004"><a xlink:href="multiphysics__interface_8cc.html" target="_top" xlink:title=" ">
<polygon fill="white" stroke="#666666" points="299.5,-222.5 155.5,-222.5 155.5,-181.5 299.5,-181.5 299.5,-222.5"/>
<text text-anchor="start" x="163.5" y="-210.5" font-family="Helvetica,sans-Serif" font-size="10.00">/home/runner/work/lethe</text>
<text text-anchor="start" x="163.5" y="-199.5" font-family="Helvetica,sans-Serif" font-size="10.00">/lethe/source/solvers</text>
<text text-anchor="middle" x="227.5" y="-188.5" font-family="Helvetica,sans-Serif" font-size="10.00">/multiphysics_interface.cc</text>
</a>
</g>
</g>
<!-- Node3&#45;&gt;Node4 -->
<g id="edge3_Node000003_Node000004" class="edge">
<title>Node3&#45;&gt;Node4</title>
<g id="a_edge3_Node000003_Node000004"><a xlink:title=" ">
<path fill="none" stroke="#63b8ff" d="M167.75,-267.23C180.5,-253.53 196.82,-235.98 209.18,-222.69"/>
<polygon fill="#63b8ff" stroke="#63b8ff" points="164.96,-265.09 160.71,-274.8 170.08,-269.86 164.96,-265.09"/>
</a>
</g>
</g>
<!-- Node5 -->
<g id="Node000005" class="node">
<title>Node5</title>
<g id="a_Node000005"><a xlink:href="vof_8cc.html" target="_top" xlink:title=" ">
<polygon fill="white" stroke="#666666" points="137,-222.5 0,-222.5 0,-181.5 137,-181.5 137,-222.5"/>
<text text-anchor="start" x="8" y="-210.5" font-family="Helvetica,sans-Serif" font-size="10.00">/home/runner/work/lethe</text>
<text text-anchor="start" x="8" y="-199.5" font-family="Helvetica,sans-Serif" font-size="10.00">/lethe/source/solvers</text>
<text text-anchor="middle" x="68.5" y="-188.5" font-family="Helvetica,sans-Serif" font-size="10.00">/vof.cc</text>
</a>
</g>
</g>
<!-- Node3&#45;&gt;Node5 -->
<g id="edge4_Node000003_Node000005" class="edge">
<title>Node3&#45;&gt;Node5</title>
<g id="a_edge4_Node000003_Node000005"><a xlink:title=" ">
<path fill="none" stroke="#63b8ff" d="M127.51,-267.23C114.92,-253.53 98.8,-235.98 86.59,-222.69"/>
<polygon fill="#63b8ff" stroke="#63b8ff" points="125.11,-269.8 134.45,-274.8 130.27,-265.07 125.11,-269.8"/>
</a>
</g>
</g>
<!-- Node8 -->
<g id="Node000008" class="node">
<title>Node8</title>
<g id="a_Node000008"><a xlink:href="fluid__dynamics__block_8h.html" target="_top" xlink:title=" ">
<polygon fill="white" stroke="#666666" points="1460,-310.5 1323,-310.5 1323,-269.5 1460,-269.5 1460,-310.5"/>
<text text-anchor="start" x="1331" y="-298.5" font-family="Helvetica,sans-Serif" font-size="10.00">/home/runner/work/lethe</text>
<text text-anchor="start" x="1331" y="-287.5" font-family="Helvetica,sans-Serif" font-size="10.00">/lethe/include/solvers</text>
<text text-anchor="middle" x="1391.5" y="-276.5" font-family="Helvetica,sans-Serif" font-size="10.00">/fluid_dynamics_block.h</text>
</a>
</g>
</g>
<!-- Node7&#45;&gt;Node8 -->
<g id="edge7_Node000007_Node000008" class="edge">
<title>Node7&#45;&gt;Node8</title>
<g id="a_edge7_Node000007_Node000008"><a xlink:title=" ">
<path fill="none" stroke="#63b8ff" d="M1391.5,-347.36C1391.5,-335.26 1391.5,-321.58 1391.5,-310.74"/>
<polygon fill="#63b8ff" stroke="#63b8ff" points="1388,-347.49 1391.5,-357.49 1395,-347.49 1388,-347.49"/>
</a>
</g>
</g>
<!-- Node10 -->
<g id="Node000010" class="node">
<title>Node10</title>
<g id="a_Node000010"><a xlink:href="fluid__dynamics__matrix__based_8h.html" target="_top" xlink:title=" ">
<polygon fill="white" stroke="#666666" points="938,-316 801,-316 801,-264 938,-264 938,-316"/>
<text text-anchor="start" x="809" y="-304" font-family="Helvetica,sans-Serif" font-size="10.00">/home/runner/work/lethe</text>
<text text-anchor="start" x="809" y="-293" font-family="Helvetica,sans-Serif" font-size="10.00">/lethe/include/solvers</text>
<text text-anchor="start" x="809" y="-282" font-family="Helvetica,sans-Serif" font-size="10.00">/fluid_dynamics_matrix</text>
<text text-anchor="middle" x="869.5" y="-271" font-family="Helvetica,sans-Serif" font-size="10.00">_based.h</text>
</a>
</g>
</g>
<!-- Node7&#45;&gt;Node10 -->
<g id="edge9_Node000007_Node000010" class="edge">
<title>Node7&#45;&gt;Node10</title>
<g id="a_edge9_Node000007_Node000010"><a xlink:title=" ">
<path fill="none" stroke="#63b8ff" d="M1313.06,-364.08C1211.17,-347.29 1034.91,-318.25 938.1,-302.3"/>
<polygon fill="#63b8ff" stroke="#63b8ff" points="1312.55,-367.54 1322.99,-365.71 1313.69,-360.63 1312.55,-367.54"/>
</a>
</g>
</g>
<!-- Node20 -->
<g id="Node000020" class="node">
<title>Node20</title>
<g id="a_Node000020"><a xlink:href="fluid__dynamics__matrix__free_8h.html" target="_top" xlink:title=" ">
<polygon fill="white" stroke="#666666" points="1304.5,-310.5 1140.5,-310.5 1140.5,-269.5 1304.5,-269.5 1304.5,-310.5"/>
<text text-anchor="start" x="1148.5" y="-298.5" font-family="Helvetica,sans-Serif" font-size="10.00">/home/runner/work/lethe</text>
<text text-anchor="start" x="1148.5" y="-287.5" font-family="Helvetica,sans-Serif" font-size="10.00">/lethe/include/solvers</text>
<text text-anchor="middle" x="1222.5" y="-276.5" font-family="Helvetica,sans-Serif" font-size="10.00">/fluid_dynamics_matrix_free.h</text>
</a>
</g>
</g>
<!-- Node7&#45;&gt;Node20 -->
<g id="edge19_Node000007_Node000020" class="edge">
<title>Node7&#45;&gt;Node20</title>
<g id="a_edge19_Node000007_Node000020"><a xlink:title=" ">
<path fill="none" stroke="#63b8ff" d="M1344.14,-352.9C1317.89,-339.54 1285.67,-323.15 1260.99,-310.59"/>
<polygon fill="#63b8ff" stroke="#63b8ff" points="1342.65,-356.07 1353.15,-357.49 1345.83,-349.83 1342.65,-356.07"/>
</a>
</g>
</g>
<!-- Node7&#45;&gt;Node26 -->
<g id="edge25_Node000007_Node000026" class="edge">
<title>Node7&#45;&gt;Node26</title>
<g id="a_edge25_Node000007_Node000026"><a xlink:title=" ">
<path fill="none" stroke="#63b8ff" d="M1435.57,-352.55C1459.53,-339.26 1488.76,-323.04 1511.2,-310.59"/>
<polygon fill="#63b8ff" stroke="#63b8ff" points="1433.72,-349.57 1426.67,-357.49 1437.11,-355.69 1433.72,-349.57"/>
</a>
</g>
</g>
<!-- Node9 -->
<g id="Node000009" class="node">
<title>Node9</title>
<g id="a_Node000009"><a xlink:href="fluid__dynamics__block_8cc.html" target="_top" xlink:title=" ">
<polygon fill="white" stroke="#666666" points="1615.5,-222.5 1477.5,-222.5 1477.5,-181.5 1615.5,-181.5 1615.5,-222.5"/>
<text text-anchor="start" x="1485.5" y="-210.5" font-family="Helvetica,sans-Serif" font-size="10.00">/home/runner/work/lethe</text>
<text text-anchor="start" x="1485.5" y="-199.5" font-family="Helvetica,sans-Serif" font-size="10.00">/lethe/source/solvers</text>
<text text-anchor="middle" x="1546.5" y="-188.5" font-family="Helvetica,sans-Serif" font-size="10.00">/fluid_dynamics_block.cc</text>
</a>
</g>
</g>
<!-- Node8&#45;&gt;Node9 -->
<g id="edge8_Node000008_Node000009" class="edge">
<title>Node8&#45;&gt;Node9</title>
<g id="a_edge8_Node000008_Node000009"><a xlink:title=" ">
<path fill="none" stroke="#63b8ff" d="M1435.57,-264.55C1459.53,-251.26 1488.76,-235.04 1511.2,-222.59"/>
<polygon fill="#63b8ff" stroke="#63b8ff" points="1433.72,-261.57 1426.67,-269.49 1437.11,-267.69 1433.72,-261.57"/>
</a>
</g>
</g>
<!-- Node11 -->
<g id="Node000011" class="node">
<title>Node11</title>
<g id="a_Node000011"><a xlink:href="fluid__dynamics__sharp_8h.html" target="_top" xlink:title=" ">
<polygon fill="white" stroke="#666666" points="1304,-222.5 1167,-222.5 1167,-181.5 1304,-181.5 1304,-222.5"/>
<text text-anchor="start" x="1175" y="-210.5" font-family="Helvetica,sans-Serif" font-size="10.00">/home/runner/work/lethe</text>
<text text-anchor="start" x="1175" y="-199.5" font-family="Helvetica,sans-Serif" font-size="10.00">/lethe/include/fem&#45;dem</text>
<text text-anchor="middle" x="1235.5" y="-188.5" font-family="Helvetica,sans-Serif" font-size="10.00">/fluid_dynamics_sharp.h</text>
</a>
</g>
</g>
<!-- Node10&#45;&gt;Node11 -->
<g id="edge10_Node000010_Node000011" class="edge">
<title>Node10&#45;&gt;Node11</title>
<g id="a_edge10_Node000010_Node000011"><a xlink:title=" ">
<path fill="none" stroke="#63b8ff" d="M947.91,-274.62C1006.11,-263.41 1087.22,-246.65 1157.5,-228 1163.68,-226.36 1170.11,-224.52 1176.49,-222.61"/>
<polygon fill="#63b8ff" stroke="#63b8ff" points="947.21,-271.19 938.04,-276.51 948.52,-278.07 947.21,-271.19"/>
</a>
</g>
</g>
<!-- Node13 -->
<g id="Node000013" class="node">
<title>Node13</title>
<g id="a_Node000013"><a xlink:href="fluid__dynamics__vans_8h.html" target="_top" xlink:title=" ">
<polygon fill="white" stroke="#666666" points="783,-222.5 646,-222.5 646,-181.5 783,-181.5 783,-222.5"/>
<text text-anchor="start" x="654" y="-210.5" font-family="Helvetica,sans-Serif" font-size="10.00">/home/runner/work/lethe</text>
<text text-anchor="start" x="654" y="-199.5" font-family="Helvetica,sans-Serif" font-size="10.00">/lethe/include/fem&#45;dem</text>
<text text-anchor="middle" x="714.5" y="-188.5" font-family="Helvetica,sans-Serif" font-size="10.00">/fluid_dynamics_vans.h</text>
</a>
</g>
</g>
<!-- Node10&#45;&gt;Node13 -->
<g id="edge12_Node000010_Node000013" class="edge">
<title>Node10&#45;&gt;Node13</title>
<g id="a_edge12_Node000010_Node000013"><a xlink:title=" ">
<path fill="none" stroke="#63b8ff" d="M815.42,-258.99C793.63,-246.9 769.11,-233.3 749.7,-222.53"/>
<polygon fill="#63b8ff" stroke="#63b8ff" points="813.81,-262.1 824.25,-263.89 817.2,-255.98 813.81,-262.1"/>
</a>
</g>
</g>
<!-- Node17 -->
<g id="Node000017" class="node">
<title>Node17</title>
<g id="a_Node000017"><a xlink:href="fluid__dynamics__nitsche_8h.html" target="_top" xlink:title=" ">
<polygon fill="white" stroke="#666666" points="628,-222.5 485,-222.5 485,-181.5 628,-181.5 628,-222.5"/>
<text text-anchor="start" x="493" y="-210.5" font-family="Helvetica,sans-Serif" font-size="10.00">/home/runner/work/lethe</text>
<text text-anchor="start" x="493" y="-199.5" font-family="Helvetica,sans-Serif" font-size="10.00">/lethe/include/solvers</text>
<text text-anchor="middle" x="556.5" y="-188.5" font-family="Helvetica,sans-Serif" font-size="10.00">/fluid_dynamics_nitsche.h</text>
</a>
</g>
</g>
<!-- Node10&#45;&gt;Node17 -->
<g id="edge16_Node000010_Node000017" class="edge">
<title>Node10&#45;&gt;Node17</title>
<g id="a_edge16_Node000010_Node000017"><a xlink:title=" ">
<path fill="none" stroke="#63b8ff" d="M791.2,-269.47C745.86,-257.93 687.8,-242.72 636.5,-228 630.49,-226.27 624.23,-224.42 618,-222.54"/>
<polygon fill="#63b8ff" stroke="#63b8ff" points="790.41,-272.88 800.96,-271.96 792.13,-266.1 790.41,-272.88"/>
</a>
</g>
</g>
<!-- Node19 -->
<g id="Node000019" class="node">
<title>Node19</title>
<g id="a_Node000019"><a xlink:href="fluid__dynamics__matrix__based_8cc.html" target="_top" xlink:title=" ">
<polygon fill="white" stroke="#666666" points="938,-228 801,-228 801,-176 938,-176 938,-228"/>
<text text-anchor="start" x="809" y="-216" font-family="Helvetica,sans-Serif" font-size="10.00">/home/runner/work/lethe</text>
<text text-anchor="start" x="809" y="-205" font-family="Helvetica,sans-Serif" font-size="10.00">/lethe/source/solvers</text>
<text text-anchor="start" x="809" y="-194" font-family="Helvetica,sans-Serif" font-size="10.00">/fluid_dynamics_matrix</text>
<text text-anchor="middle" x="869.5" y="-183" font-family="Helvetica,sans-Serif" font-size="10.00">_based.cc</text>
</a>
</g>
</g>
<!-- Node10&#45;&gt;Node19 -->
<g id="edge18_Node000010_Node000019" class="edge">
<title>Node10&#45;&gt;Node19</title>
<g id="a_edge18_Node000010_Node000019"><a xlink:title=" ">
<path fill="none" stroke="#63b8ff" d="M869.5,-253.56C869.5,-245.04 869.5,-236.1 869.5,-228.16"/>
<polygon fill="#63b8ff" stroke="#63b8ff" points="866,-253.66 869.5,-263.66 873,-253.66 866,-253.66"/>
</a>
</g>
</g>
<!-- Node11&#45;&gt;Node12 -->
<g id="edge11_Node000011_Node000012" class="edge">
<title>Node11&#45;&gt;Node12</title>
<g id="a_edge11_Node000011_Node000012"><a xlink:title=" ">
<path fill="none" stroke="#63b8ff" d="M1304.17,-178.29C1345.27,-164.69 1396.99,-147.59 1436.29,-134.59"/>
<polygon fill="#63b8ff" stroke="#63b8ff" points="1302.89,-175.02 1294.5,-181.49 1305.09,-181.67 1302.89,-175.02"/>
</a>
</g>
</g>
<!-- Node14 -->
<g id="Node000014" class="node">
<title>Node14</title>
<g id="a_Node000014"><a xlink:href="cfd__dem__coupling_8h.html" target="_top" xlink:title=" ">
<polygon fill="white" stroke="#666666" points="749,-134.5 612,-134.5 612,-93.5 749,-93.5 749,-134.5"/>
<text text-anchor="start" x="620" y="-122.5" font-family="Helvetica,sans-Serif" font-size="10.00">/home/runner/work/lethe</text>
<text text-anchor="start" x="620" y="-111.5" font-family="Helvetica,sans-Serif" font-size="10.00">/lethe/include/fem&#45;dem</text>
<text text-anchor="middle" x="680.5" y="-100.5" font-family="Helvetica,sans-Serif" font-size="10.00">/cfd_dem_coupling.h</text>
</a>
</g>
</g>
<!-- Node13&#45;&gt;Node14 -->
<g id="edge13_Node000013_Node000014" class="edge">
<title>Node13&#45;&gt;Node14</title>
<g id="a_edge13_Node000013_Node000014"><a xlink:title=" ">
<path fill="none" stroke="#63b8ff" d="M703.07,-172.09C698.22,-159.81 692.68,-145.8 688.3,-134.74"/>
<polygon fill="#63b8ff" stroke="#63b8ff" points="699.85,-173.47 706.78,-181.49 706.36,-170.9 699.85,-173.47"/>
</a>
</g>
</g>
<!-- Node16 -->
<g id="Node000016" class="node">
<title>Node16</title>
<g id="a_Node000016"><a xlink:href="fluid__dynamics__vans_8cc.html" target="_top" xlink:title=" ">
<polygon fill="white" stroke="#666666" points="904,-134.5 767,-134.5 767,-93.5 904,-93.5 904,-134.5"/>
<text text-anchor="start" x="775" y="-122.5" font-family="Helvetica,sans-Serif" font-size="10.00">/home/runner/work/lethe</text>
<text text-anchor="start" x="775" y="-111.5" font-family="Helvetica,sans-Serif" font-size="10.00">/lethe/source/fem&#45;dem</text>
<text text-anchor="middle" x="835.5" y="-100.5" font-family="Helvetica,sans-Serif" font-size="10.00">/fluid_dynamics_vans.cc</text>
</a>
</g>
</g>
<!-- Node13&#45;&gt;Node16 -->
<g id="edge15_Node000013_Node000016" class="edge">
<title>Node13&#45;&gt;Node16</title>
<g id="a_edge15_Node000013_Node000016"><a xlink:title=" ">
<path fill="none" stroke="#63b8ff" d="M750.12,-175.69C768.51,-162.61 790.62,-146.9 807.73,-134.74"/>
<polygon fill="#63b8ff" stroke="#63b8ff" points="748.08,-172.84 741.96,-181.49 752.14,-178.54 748.08,-172.84"/>
</a>
</g>
</g>
<!-- Node14&#45;&gt;Node15 -->
<g id="edge14_Node000014_Node000015" class="edge">
<title>Node14&#45;&gt;Node15</title>
<g id="a_edge14_Node000014_Node000015"><a xlink:title=" ">
<path fill="none" stroke="#63b8ff" d="M642.21,-87.86C622.24,-74.75 598.17,-58.95 579.56,-46.74"/>
<polygon fill="#63b8ff" stroke="#63b8ff" points="640.49,-90.92 650.77,-93.49 644.34,-85.07 640.49,-90.92"/>
</a>
</g>
</g>
<!-- Node17&#45;&gt;Node18 -->
<g id="edge17_Node000017_Node000018" class="edge">
<title>Node17&#45;&gt;Node18</title>
<g id="a_edge17_Node000017_Node000018"><a xlink:title=" ">
<path fill="none" stroke="#63b8ff" d="M544.4,-172.09C539.26,-159.81 533.39,-145.8 528.76,-134.74"/>
<polygon fill="#63b8ff" stroke="#63b8ff" points="541.24,-173.61 548.33,-181.49 547.7,-170.91 541.24,-173.61"/>
</a>
</g>
</g>
<!-- Node21 -->
<g id="Node000021" class="node">
<title>Node21</title>
<g id="a_Node000021"><a xlink:href="fluid__dynamics__vans__matrix__free_8h.html" target="_top" xlink:title=" ">
<polygon fill="white" stroke="#666666" points="1149,-222.5 956,-222.5 956,-181.5 1149,-181.5 1149,-222.5"/>
<text text-anchor="start" x="964" y="-210.5" font-family="Helvetica,sans-Serif" font-size="10.00">/home/runner/work/lethe</text>
<text text-anchor="start" x="964" y="-199.5" font-family="Helvetica,sans-Serif" font-size="10.00">/lethe/include/fem&#45;dem</text>
<text text-anchor="middle" x="1052.5" y="-188.5" font-family="Helvetica,sans-Serif" font-size="10.00">/fluid_dynamics_vans_matrix_free.h</text>
</a>
</g>
</g>
<!-- Node20&#45;&gt;Node21 -->
<g id="edge20_Node000020_Node000021" class="edge">
<title>Node20&#45;&gt;Node21</title>
<g id="a_edge20_Node000020_Node000021"><a xlink:title=" ">
<path fill="none" stroke="#63b8ff" d="M1174.86,-264.9C1148.45,-251.54 1116.05,-235.15 1091.22,-222.59"/>
<polygon fill="#63b8ff" stroke="#63b8ff" points="1173.42,-268.09 1183.92,-269.49 1176.58,-261.85 1173.42,-268.09"/>
</a>
</g>
</g>
<!-- Node25 -->
<g id="Node000025" class="node">
<title>Node25</title>
<g id="a_Node000025"><a xlink:href="fluid__dynamics__matrix__free_8cc.html" target="_top" xlink:title=" ">
<polygon fill="white" stroke="#666666" points="1459,-228 1322,-228 1322,-176 1459,-176 1459,-228"/>
<text text-anchor="start" x="1330" y="-216" font-family="Helvetica,sans-Serif" font-size="10.00">/home/runner/work/lethe</text>
<text text-anchor="start" x="1330" y="-205" font-family="Helvetica,sans-Serif" font-size="10.00">/lethe/source/solvers</text>
<text text-anchor="start" x="1330" y="-194" font-family="Helvetica,sans-Serif" font-size="10.00">/fluid_dynamics_matrix</text>
<text text-anchor="middle" x="1390.5" y="-183" font-family="Helvetica,sans-Serif" font-size="10.00">_free.cc</text>
</a>
</g>
</g>
<!-- Node20&#45;&gt;Node25 -->
<g id="edge24_Node000020_Node000025" class="edge">
<title>Node20&#45;&gt;Node25</title>
<g id="a_edge24_Node000020_Node000025"><a xlink:title=" ">
<path fill="none" stroke="#63b8ff" d="M1269.6,-264.89C1291.98,-253.43 1318.72,-239.74 1341.36,-228.16"/>
<polygon fill="#63b8ff" stroke="#63b8ff" points="1267.93,-261.81 1260.62,-269.49 1271.12,-268.04 1267.93,-261.81"/>
</a>
</g>
</g>
<!-- Node22 -->
<g id="Node000022" class="node">
<title>Node22</title>
<g id="a_Node000022"><a xlink:href="cfd__dem__coupling__matrix__free_8h.html" target="_top" xlink:title=" ">
<polygon fill="white" stroke="#666666" points="1142,-134.5 963,-134.5 963,-93.5 1142,-93.5 1142,-134.5"/>
<text text-anchor="start" x="971" y="-122.5" font-family="Helvetica,sans-Serif" font-size="10.00">/home/runner/work/lethe</text>
<text text-anchor="start" x="971" y="-111.5" font-family="Helvetica,sans-Serif" font-size="10.00">/lethe/include/fem&#45;dem</text>
<text text-anchor="middle" x="1052.5" y="-100.5" font-family="Helvetica,sans-Serif" font-size="10.00">/cfd_dem_coupling_matrix_free.h</text>
</a>
</g>
</g>
<!-- Node21&#45;&gt;Node22 -->
<g id="edge21_Node000021_Node000022" class="edge">
<title>Node21&#45;&gt;Node22</title>
<g id="a_edge21_Node000021_Node000022"><a xlink:title=" ">
<path fill="none" stroke="#63b8ff" d="M1052.5,-171.36C1052.5,-159.26 1052.5,-145.58 1052.5,-134.74"/>
<polygon fill="#63b8ff" stroke="#63b8ff" points="1049,-171.49 1052.5,-181.49 1056,-171.49 1049,-171.49"/>
</a>
</g>
</g>
<!-- Node24 -->
<g id="Node000024" class="node">
<title>Node24</title>
<g id="a_Node000024"><a xlink:href="fluid__dynamics__vans__matrix__free_8cc.html" target="_top" xlink:title=" ">
<polygon fill="white" stroke="#666666" points="1319,-140 1160,-140 1160,-88 1319,-88 1319,-140"/>
<text text-anchor="start" x="1168" y="-128" font-family="Helvetica,sans-Serif" font-size="10.00">/home/runner/work/lethe</text>
<text text-anchor="start" x="1168" y="-117" font-family="Helvetica,sans-Serif" font-size="10.00">/lethe/source/fem&#45;dem</text>
<text text-anchor="start" x="1168" y="-106" font-family="Helvetica,sans-Serif" font-size="10.00">/fluid_dynamics_vans_matrix</text>
<text text-anchor="middle" x="1239.5" y="-95" font-family="Helvetica,sans-Serif" font-size="10.00">_free.cc</text>
</a>
</g>
</g>
<!-- Node21&#45;&gt;Node24 -->
<g id="edge23_Node000021_Node000024" class="edge">
<title>Node21&#45;&gt;Node24</title>
<g id="a_edge23_Node000021_Node000024"><a xlink:title=" ">
<path fill="none" stroke="#63b8ff" d="M1104.27,-177.19C1129.31,-165.68 1159.38,-151.85 1184.8,-140.16"/>
<polygon fill="#63b8ff" stroke="#63b8ff" points="1102.56,-174.13 1094.93,-181.49 1105.48,-180.49 1102.56,-174.13"/>
</a>
</g>
</g>
<!-- Node22&#45;&gt;Node23 -->
<g id="edge22_Node000022_Node000023" class="edge">
<title>Node22&#45;&gt;Node23</title>
<g id="a_edge22_Node000022_Node000023"><a xlink:title=" ">
<path fill="none" stroke="#63b8ff" d="M1133.44,-90.83C1182.83,-77.3 1245.46,-60.15 1293.35,-47.03"/>
<polygon fill="#63b8ff" stroke="#63b8ff" points="1132.47,-87.47 1123.75,-93.49 1134.32,-94.22 1132.47,-87.47"/>
</a>
</g>
</g>
</g>
</svg>
