<?xml version="1.0" encoding="UTF-8" standalone="no"?>
<!DOCTYPE svg PUBLIC "-//W3C//DTD SVG 1.1//EN"
 "http://www.w3.org/Graphics/SVG/1.1/DTD/svg11.dtd">
<!-- Generated by graphviz version 2.43.0 (0)
 -->
<!-- Title: /home/runner/work/lethe/lethe/source/solvers/source_terms.cc Pages: 1 -->
<svg width="482pt" height="170pt"
 viewBox="0.00 0.00 481.50 170.00" xmlns="http://www.w3.org/2000/svg" xmlns:xlink="http://www.w3.org/1999/xlink">
<g id="graph0" class="graph" transform="scale(1 1) rotate(0) translate(4 166)">
<title>/home/runner/work/lethe/lethe/source/solvers/source_terms.cc</title>
<!-- Node1 -->
<g id="Node000001" class="node">
<title>Node1</title>
<g id="a_Node000001"><a xlink:title=" ">
<polygon fill="#999999" stroke="#666666" points="343,-162 206,-162 206,-121 343,-121 343,-162"/>
<text text-anchor="start" x="214" y="-150" font-family="Helvetica,sans-Serif" font-size="10.00">/home/runner/work/lethe</text>
<text text-anchor="start" x="214" y="-139" font-family="Helvetica,sans-Serif" font-size="10.00">/lethe/source/solvers</text>
<text text-anchor="middle" x="274.5" y="-128" font-family="Helvetica,sans-Serif" font-size="10.00">/source_terms.cc</text>
</a>
</g>
</g>
<!-- Node2 -->
<g id="Node000002" class="node">
<title>Node2</title>
<g id="a_Node000002"><a xlink:href="source__terms_8h.html" target="_top" xlink:title=" ">
<polygon fill="white" stroke="#666666" points="339.5,-85 209.5,-85 209.5,-66 339.5,-66 339.5,-85"/>
<text text-anchor="middle" x="274.5" y="-73" font-family="Helvetica,sans-Serif" font-size="10.00">solvers/source_terms.h</text>
</a>
</g>
</g>
<!-- Node1&#45;&gt;Node2 -->
<g id="edge1_Node000001_Node000002" class="edge">
<title>Node1&#45;&gt;Node2</title>
<g id="a_edge1_Node000001_Node000002"><a xlink:title=" ">
<path fill="none" stroke="#63b8ff" d="M274.5,-120.95C274.5,-112.85 274.5,-103.5 274.5,-95.47"/>
<polygon fill="#63b8ff" stroke="#63b8ff" points="278,-95.26 274.5,-85.26 271,-95.26 278,-95.26"/>
</a>
</g>
</g>
<!-- Node3 -->
<g id="Node000003" class="node">
<title>Node3</title>
<g id="a_Node000003"><a xlink:title=" ">
<polygon fill="#e0e0e0" stroke="#999999" points="125,-24.5 0,-24.5 0,-5.5 125,-5.5 125,-24.5"/>
<text text-anchor="middle" x="62.5" y="-12.5" font-family="Helvetica,sans-Serif" font-size="10.00">deal.II/base/function.h</text>
</a>
</g>
</g>
<!-- Node2&#45;&gt;Node3 -->
<g id="edge2_Node000002_Node000003" class="edge">
<title>Node2&#45;&gt;Node3</title>
<g id="a_edge2_Node000002_Node000003"><a xlink:title=" ">
<path fill="none" stroke="#63b8ff" d="M243.67,-65.99C206.54,-55.75 144.05,-38.5 103.04,-27.19"/>
<polygon fill="#63b8ff" stroke="#63b8ff" points="103.93,-23.8 93.36,-24.52 102.07,-30.55 103.93,-23.8"/>
</a>
</g>
</g>
<!-- Node4 -->
<g id="Node000004" class="node">
<title>Node4</title>
<g id="a_Node000004"><a xlink:title=" ">
<polygon fill="#e0e0e0" stroke="#999999" points="270,-30 143,-30 143,0 270,0 270,-30"/>
<text text-anchor="start" x="151" y="-18" font-family="Helvetica,sans-Serif" font-size="10.00">deal.II/base/parameter</text>
<text text-anchor="middle" x="206.5" y="-7" font-family="Helvetica,sans-Serif" font-size="10.00">_handler.h</text>
</a>
</g>
</g>
<!-- Node2&#45;&gt;Node4 -->
<g id="edge3_Node000002_Node000004" class="edge">
<title>Node2&#45;&gt;Node4</title>
<g id="a_edge3_Node000002_Node000004"><a xlink:title=" ">
<path fill="none" stroke="#63b8ff" d="M264.47,-65.87C255.58,-58.22 242.25,-46.76 230.62,-36.75"/>
<polygon fill="#63b8ff" stroke="#63b8ff" points="232.77,-33.98 222.91,-30.11 228.2,-39.29 232.77,-33.98"/>
</a>
</g>
</g>
<!-- Node5 -->
<g id="Node000005" class="node">
<title>Node5</title>
<g id="a_Node000005"><a xlink:title=" ">
<polygon fill="#e0e0e0" stroke="#999999" points="397,-30 288,-30 288,0 397,0 397,-30"/>
<text text-anchor="start" x="296" y="-18" font-family="Helvetica,sans-Serif" font-size="10.00">deal.II/base/parsed</text>
<text text-anchor="middle" x="342.5" y="-7" font-family="Helvetica,sans-Serif" font-size="10.00">_function.h</text>
</a>
</g>
</g>
<!-- Node2&#45;&gt;Node5 -->
<g id="edge4_Node000002_Node000005" class="edge">
<title>Node2&#45;&gt;Node5</title>
<g id="a_edge4_Node000002_Node000005"><a xlink:title=" ">
<path fill="none" stroke="#63b8ff" d="M284.53,-65.87C293.42,-58.22 306.75,-46.76 318.38,-36.75"/>
<polygon fill="#63b8ff" stroke="#63b8ff" points="320.8,-39.29 326.09,-30.11 316.23,-33.98 320.8,-39.29"/>
</a>
</g>
</g>
<!-- Node6 -->
<g id="Node000006" class="node">
<title>Node6</title>
<g id="a_Node000006"><a xlink:title=" ">
<polygon fill="#e0e0e0" stroke="#999999" points="473.5,-24.5 415.5,-24.5 415.5,-5.5 473.5,-5.5 473.5,-24.5"/>
<text text-anchor="middle" x="444.5" y="-12.5" font-family="Helvetica,sans-Serif" font-size="10.00">memory</text>
</a>
</g>
</g>
<!-- Node2&#45;&gt;Node6 -->
<g id="edge5_Node000002_Node000006" class="edge">
<title>Node2&#45;&gt;Node6</title>
<g id="a_edge5_Node000002_Node000006"><a xlink:title=" ">
<path fill="none" stroke="#63b8ff" d="M300.87,-65.85C327.57,-57.04 370.01,-42.87 406.5,-30 408.34,-29.35 410.23,-28.68 412.13,-27.99"/>
<polygon fill="#63b8ff" stroke="#63b8ff" points="413.43,-31.25 421.63,-24.54 411.04,-24.67 413.43,-31.25"/>
</a>
</g>
</g>
</g>
</svg>
