<?xml version="1.0" encoding="UTF-8" standalone="no"?>
<!DOCTYPE svg PUBLIC "-//W3C//DTD SVG 1.1//EN"
 "http://www.w3.org/Graphics/SVG/1.1/DTD/svg11.dtd">
<!-- Generated by graphviz version 2.43.0 (0)
 -->
<!-- Title: /home/runner/work/lethe/lethe/include/solvers/stabilization.h Pages: 1 -->
<svg width="1462pt" height="214pt"
 viewBox="0.00 0.00 1461.50 214.00" xmlns="http://www.w3.org/2000/svg" xmlns:xlink="http://www.w3.org/1999/xlink">
<g id="graph0" class="graph" transform="scale(1 1) rotate(0) translate(4 210)">
<title>/home/runner/work/lethe/lethe/include/solvers/stabilization.h</title>
<!-- Node1 -->
<g id="Node000001" class="node">
<title>Node1</title>
<g id="a_Node000001"><a xlink:title=" ">
<polygon fill="#999999" stroke="#666666" points="819.5,-206 682.5,-206 682.5,-165 819.5,-165 819.5,-206"/>
<text text-anchor="start" x="690.5" y="-194" font-family="Helvetica,sans-Serif" font-size="10.00">/home/runner/work/lethe</text>
<text text-anchor="start" x="690.5" y="-183" font-family="Helvetica,sans-Serif" font-size="10.00">/lethe/include/solvers</text>
<text text-anchor="middle" x="751" y="-172" font-family="Helvetica,sans-Serif" font-size="10.00">/stabilization.h</text>
</a>
</g>
</g>
<!-- Node2 -->
<g id="Node000002" class="node">
<title>Node2</title>
<g id="a_Node000002"><a xlink:href="tracer_8h.html" target="_top" xlink:title=" ">
<polygon fill="white" stroke="#666666" points="219.5,-123.5 82.5,-123.5 82.5,-82.5 219.5,-82.5 219.5,-123.5"/>
<text text-anchor="start" x="90.5" y="-111.5" font-family="Helvetica,sans-Serif" font-size="10.00">/home/runner/work/lethe</text>
<text text-anchor="start" x="90.5" y="-100.5" font-family="Helvetica,sans-Serif" font-size="10.00">/lethe/include/solvers</text>
<text text-anchor="middle" x="151" y="-89.5" font-family="Helvetica,sans-Serif" font-size="10.00">/tracer.h</text>
</a>
</g>
</g>
<!-- Node1&#45;&gt;Node2 -->
<g id="edge1_Node000001_Node000002" class="edge">
<title>Node1&#45;&gt;Node2</title>
<g id="a_edge1_Node000001_Node000002"><a xlink:title=" ">
<path fill="none" stroke="#63b8ff" d="M672.32,-181.14C569.46,-175.62 384.12,-161.75 229,-129 221.9,-127.5 214.54,-125.61 207.3,-123.54"/>
<polygon fill="#63b8ff" stroke="#63b8ff" points="672.15,-184.64 682.32,-181.67 672.51,-177.65 672.15,-184.64"/>
</a>
</g>
</g>
<!-- Node5 -->
<g id="Node000005" class="node">
<title>Node5</title>
<g id="a_Node000005"><a xlink:href="vans__assemblers_8cc.html" target="_top" xlink:title=" ">
<polygon fill="white" stroke="#666666" points="374.5,-123.5 237.5,-123.5 237.5,-82.5 374.5,-82.5 374.5,-123.5"/>
<text text-anchor="start" x="245.5" y="-111.5" font-family="Helvetica,sans-Serif" font-size="10.00">/home/runner/work/lethe</text>
<text text-anchor="start" x="245.5" y="-100.5" font-family="Helvetica,sans-Serif" font-size="10.00">/lethe/source/fem&#45;dem</text>
<text text-anchor="middle" x="306" y="-89.5" font-family="Helvetica,sans-Serif" font-size="10.00">/vans_assemblers.cc</text>
</a>
</g>
</g>
<!-- Node1&#45;&gt;Node5 -->
<g id="edge4_Node000001_Node000005" class="edge">
<title>Node1&#45;&gt;Node5</title>
<g id="a_edge4_Node000001_Node000005"><a xlink:title=" ">
<path fill="none" stroke="#63b8ff" d="M672.12,-176.27C597.33,-167.6 482.12,-151.99 384,-129 377.35,-127.44 370.46,-125.59 363.64,-123.61"/>
<polygon fill="#63b8ff" stroke="#63b8ff" points="672.07,-179.79 682.4,-177.45 672.86,-172.83 672.07,-179.79"/>
</a>
</g>
</g>
<!-- Node6 -->
<g id="Node000006" class="node">
<title>Node6</title>
<g id="a_Node000006"><a xlink:href="isothermal__compressible__navier__stokes__assembler_8cc.html" target="_top" xlink:title=" ">
<polygon fill="white" stroke="#666666" points="551,-129 393,-129 393,-77 551,-77 551,-129"/>
<text text-anchor="start" x="401" y="-117" font-family="Helvetica,sans-Serif" font-size="10.00">/home/runner/work/lethe</text>
<text text-anchor="start" x="401" y="-106" font-family="Helvetica,sans-Serif" font-size="10.00">/lethe/source/solvers</text>
<text text-anchor="start" x="401" y="-95" font-family="Helvetica,sans-Serif" font-size="10.00">/isothermal_compressible</text>
<text text-anchor="middle" x="472" y="-84" font-family="Helvetica,sans-Serif" font-size="10.00">_navier_stokes_assembler.cc</text>
</a>
</g>
</g>
<!-- Node1&#45;&gt;Node6 -->
<g id="edge5_Node000001_Node000006" class="edge">
<title>Node1&#45;&gt;Node6</title>
<g id="a_edge5_Node000001_Node000006"><a xlink:title=" ">
<path fill="none" stroke="#63b8ff" d="M673.1,-162.02C635.03,-151.04 589.32,-137.85 551.1,-126.82"/>
<polygon fill="#63b8ff" stroke="#63b8ff" points="672.53,-165.5 683.11,-164.91 674.47,-158.78 672.53,-165.5"/>
</a>
</g>
</g>
<!-- Node7 -->
<g id="Node000007" class="node">
<title>Node7</title>
<g id="a_Node000007"><a xlink:href="isothermal__compressible__navier__stokes__cls__assembler_8cc.html" target="_top" xlink:title=" ">
<polygon fill="white" stroke="#666666" points="745.5,-129 568.5,-129 568.5,-77 745.5,-77 745.5,-129"/>
<text text-anchor="start" x="576.5" y="-117" font-family="Helvetica,sans-Serif" font-size="10.00">/home/runner/work/lethe</text>
<text text-anchor="start" x="576.5" y="-106" font-family="Helvetica,sans-Serif" font-size="10.00">/lethe/source/solvers</text>
<text text-anchor="start" x="576.5" y="-95" font-family="Helvetica,sans-Serif" font-size="10.00">/isothermal_compressible</text>
<text text-anchor="middle" x="657" y="-84" font-family="Helvetica,sans-Serif" font-size="10.00">_navier_stokes_cls_assembler.cc</text>
</a>
</g>
</g>
<!-- Node1&#45;&gt;Node7 -->
<g id="edge6_Node000001_Node000007" class="edge">
<title>Node1&#45;&gt;Node7</title>
<g id="a_edge6_Node000001_Node000007"><a xlink:title=" ">
<path fill="none" stroke="#63b8ff" d="M720.13,-158.06C709.27,-148.76 697.1,-138.35 686.37,-129.16"/>
<polygon fill="#63b8ff" stroke="#63b8ff" points="717.89,-160.75 727.76,-164.6 722.45,-155.44 717.89,-160.75"/>
</a>
</g>
</g>
<!-- Node8 -->
<g id="Node000008" class="node">
<title>Node8</title>
<g id="a_Node000008"><a xlink:href="navier__stokes__assemblers_8cc.html" target="_top" xlink:title=" ">
<polygon fill="white" stroke="#666666" points="926,-123.5 764,-123.5 764,-82.5 926,-82.5 926,-123.5"/>
<text text-anchor="start" x="772" y="-111.5" font-family="Helvetica,sans-Serif" font-size="10.00">/home/runner/work/lethe</text>
<text text-anchor="start" x="772" y="-100.5" font-family="Helvetica,sans-Serif" font-size="10.00">/lethe/source/solvers</text>
<text text-anchor="middle" x="845" y="-89.5" font-family="Helvetica,sans-Serif" font-size="10.00">/navier_stokes_assemblers.cc</text>
</a>
</g>
</g>
<!-- Node1&#45;&gt;Node8 -->
<g id="edge7_Node000001_Node000008" class="edge">
<title>Node1&#45;&gt;Node8</title>
<g id="a_edge7_Node000001_Node000008"><a xlink:title=" ">
<path fill="none" stroke="#63b8ff" d="M782.07,-157.89C795.11,-146.72 810.01,-133.97 822.03,-123.67"/>
<polygon fill="#63b8ff" stroke="#63b8ff" points="779.55,-155.44 774.24,-164.6 784.11,-160.75 779.55,-155.44"/>
</a>
</g>
</g>
<!-- Node9 -->
<g id="Node000009" class="node">
<title>Node9</title>
<g id="a_Node000009"><a xlink:href="navier__stokes__cahn__hilliard__assemblers_8cc.html" target="_top" xlink:title=" ">
<polygon fill="white" stroke="#666666" points="1099.5,-129 944.5,-129 944.5,-77 1099.5,-77 1099.5,-129"/>
<text text-anchor="start" x="952.5" y="-117" font-family="Helvetica,sans-Serif" font-size="10.00">/home/runner/work/lethe</text>
<text text-anchor="start" x="952.5" y="-106" font-family="Helvetica,sans-Serif" font-size="10.00">/lethe/source/solvers</text>
<text text-anchor="start" x="952.5" y="-95" font-family="Helvetica,sans-Serif" font-size="10.00">/navier_stokes_cahn_hilliard</text>
<text text-anchor="middle" x="1022" y="-84" font-family="Helvetica,sans-Serif" font-size="10.00">_assemblers.cc</text>
</a>
</g>
</g>
<!-- Node1&#45;&gt;Node9 -->
<g id="edge8_Node000001_Node000009" class="edge">
<title>Node1&#45;&gt;Node9</title>
<g id="a_edge8_Node000001_Node000009"><a xlink:title=" ">
<path fill="none" stroke="#63b8ff" d="M826.59,-162.05C863.25,-151.16 907.24,-138.09 944.19,-127.11"/>
<polygon fill="#63b8ff" stroke="#63b8ff" points="825.54,-158.71 816.95,-164.91 827.53,-165.42 825.54,-158.71"/>
</a>
</g>
</g>
<!-- Node10 -->
<g id="Node000010" class="node">
<title>Node10</title>
<g id="a_Node000010"><a xlink:href="navier__stokes__cls__assemblers_8cc.html" target="_top" xlink:title=" ">
<polygon fill="white" stroke="#666666" points="1298.5,-123.5 1117.5,-123.5 1117.5,-82.5 1298.5,-82.5 1298.5,-123.5"/>
<text text-anchor="start" x="1125.5" y="-111.5" font-family="Helvetica,sans-Serif" font-size="10.00">/home/runner/work/lethe</text>
<text text-anchor="start" x="1125.5" y="-100.5" font-family="Helvetica,sans-Serif" font-size="10.00">/lethe/source/solvers</text>
<text text-anchor="middle" x="1208" y="-89.5" font-family="Helvetica,sans-Serif" font-size="10.00">/navier_stokes_cls_assemblers.cc</text>
</a>
</g>
</g>
<!-- Node1&#45;&gt;Node10 -->
<g id="edge9_Node000001_Node000010" class="edge">
<title>Node1&#45;&gt;Node10</title>
<g id="a_edge9_Node000001_Node000010"><a xlink:title=" ">
<path fill="none" stroke="#63b8ff" d="M829.65,-174.46C902.43,-164.66 1013.49,-148.42 1109,-129 1117.08,-127.36 1125.49,-125.49 1133.84,-123.53"/>
<polygon fill="#63b8ff" stroke="#63b8ff" points="829.08,-171.01 819.64,-175.8 830.01,-177.94 829.08,-171.01"/>
</a>
</g>
</g>
<!-- Node11 -->
<g id="Node000011" class="node">
<title>Node11</title>
<g id="a_Node000011"><a xlink:href="stabilization_8cc.html" target="_top" xlink:title=" ">
<polygon fill="white" stroke="#666666" points="1453.5,-123.5 1316.5,-123.5 1316.5,-82.5 1453.5,-82.5 1453.5,-123.5"/>
<text text-anchor="start" x="1324.5" y="-111.5" font-family="Helvetica,sans-Serif" font-size="10.00">/home/runner/work/lethe</text>
<text text-anchor="start" x="1324.5" y="-100.5" font-family="Helvetica,sans-Serif" font-size="10.00">/lethe/source/solvers</text>
<text text-anchor="middle" x="1385" y="-89.5" font-family="Helvetica,sans-Serif" font-size="10.00">/stabilization.cc</text>
</a>
</g>
</g>
<!-- Node1&#45;&gt;Node11 -->
<g id="edge10_Node000001_Node000011" class="edge">
<title>Node1&#45;&gt;Node11</title>
<g id="a_edge10_Node000001_Node000011"><a xlink:title=" ">
<path fill="none" stroke="#63b8ff" d="M830.12,-181.95C938.84,-177.25 1140.07,-164.2 1308,-129 1315.02,-127.53 1322.29,-125.65 1329.45,-123.59"/>
<polygon fill="#63b8ff" stroke="#63b8ff" points="829.73,-178.47 819.89,-182.38 830.03,-185.46 829.73,-178.47"/>
</a>
</g>
</g>
<!-- Node3 -->
<g id="Node000003" class="node">
<title>Node3</title>
<g id="a_Node000003"><a xlink:href="multiphysics__interface_8cc.html" target="_top" xlink:title=" ">
<polygon fill="white" stroke="#666666" points="144,-41 0,-41 0,0 144,0 144,-41"/>
<text text-anchor="start" x="8" y="-29" font-family="Helvetica,sans-Serif" font-size="10.00">/home/runner/work/lethe</text>
<text text-anchor="start" x="8" y="-18" font-family="Helvetica,sans-Serif" font-size="10.00">/lethe/source/solvers</text>
<text text-anchor="middle" x="72" y="-7" font-family="Helvetica,sans-Serif" font-size="10.00">/multiphysics_interface.cc</text>
</a>
</g>
</g>
<!-- Node2&#45;&gt;Node3 -->
<g id="edge2_Node000002_Node000003" class="edge">
<title>Node2&#45;&gt;Node3</title>
<g id="a_edge2_Node000002_Node000003"><a xlink:title=" ">
<path fill="none" stroke="#63b8ff" d="M124.26,-74.76C113.46,-63.74 101.22,-51.27 91.3,-41.17"/>
<polygon fill="#63b8ff" stroke="#63b8ff" points="121.97,-77.42 131.47,-82.1 126.97,-72.51 121.97,-77.42"/>
</a>
</g>
</g>
<!-- Node4 -->
<g id="Node000004" class="node">
<title>Node4</title>
<g id="a_Node000004"><a xlink:href="tracer_8cc.html" target="_top" xlink:title=" ">
<polygon fill="white" stroke="#666666" points="299.5,-41 162.5,-41 162.5,0 299.5,0 299.5,-41"/>
<text text-anchor="start" x="170.5" y="-29" font-family="Helvetica,sans-Serif" font-size="10.00">/home/runner/work/lethe</text>
<text text-anchor="start" x="170.5" y="-18" font-family="Helvetica,sans-Serif" font-size="10.00">/lethe/source/solvers</text>
<text text-anchor="middle" x="231" y="-7" font-family="Helvetica,sans-Serif" font-size="10.00">/tracer.cc</text>
</a>
</g>
</g>
<!-- Node2&#45;&gt;Node4 -->
<g id="edge3_Node000002_Node000004" class="edge">
<title>Node2&#45;&gt;Node4</title>
<g id="a_edge3_Node000002_Node000004"><a xlink:title=" ">
<path fill="none" stroke="#63b8ff" d="M178.07,-74.76C189.02,-63.74 201.41,-51.27 211.45,-41.17"/>
<polygon fill="#63b8ff" stroke="#63b8ff" points="175.34,-72.54 170.78,-82.1 180.31,-77.48 175.34,-72.54"/>
</a>
</g>
</g>
</g>
</svg>
