<?xml version="1.0" encoding="UTF-8" standalone="no"?>
<!DOCTYPE svg PUBLIC "-//W3C//DTD SVG 1.1//EN"
 "http://www.w3.org/Graphics/SVG/1.1/DTD/svg11.dtd">
<!-- Generated by graphviz version 2.43.0 (0)
 -->
<!-- Title: /home/runner/work/lethe/lethe/include/solvers/stabilization.h Pages: 1 -->
<svg width="1467pt" height="214pt"
 viewBox="0.00 0.00 1466.50 214.00" xmlns="http://www.w3.org/2000/svg" xmlns:xlink="http://www.w3.org/1999/xlink">
<g id="graph0" class="graph" transform="scale(1 1) rotate(0) translate(4 210)">
<title>/home/runner/work/lethe/lethe/include/solvers/stabilization.h</title>
<!-- Node1 -->
<g id="Node000001" class="node">
<title>Node1</title>
<g id="a_Node000001"><a xlink:title=" ">
<polygon fill="#999999" stroke="#666666" points="821.5,-206 684.5,-206 684.5,-165 821.5,-165 821.5,-206"/>
<text text-anchor="start" x="692.5" y="-194" font-family="Helvetica,sans-Serif" font-size="10.00">/home/runner/work/lethe</text>
<text text-anchor="start" x="692.5" y="-183" font-family="Helvetica,sans-Serif" font-size="10.00">/lethe/include/solvers</text>
<text text-anchor="middle" x="753" y="-172" font-family="Helvetica,sans-Serif" font-size="10.00">/stabilization.h</text>
</a>
</g>
</g>
<!-- Node2 -->
<g id="Node000002" class="node">
<title>Node2</title>
<g id="a_Node000002"><a xlink:href="tracer_8h.html" target="_top" xlink:title=" ">
<polygon fill="white" stroke="#666666" points="219.5,-123.5 82.5,-123.5 82.5,-82.5 219.5,-82.5 219.5,-123.5"/>
<text text-anchor="start" x="90.5" y="-111.5" font-family="Helvetica,sans-Serif" font-size="10.00">/home/runner/work/lethe</text>
<text text-anchor="start" x="90.5" y="-100.5" font-family="Helvetica,sans-Serif" font-size="10.00">/lethe/include/solvers</text>
<text text-anchor="middle" x="151" y="-89.5" font-family="Helvetica,sans-Serif" font-size="10.00">/tracer.h</text>
</a>
</g>
</g>
<!-- Node1&#45;&gt;Node2 -->
<g id="edge1_Node000001_Node000002" class="edge">
<title>Node1&#45;&gt;Node2</title>
<g id="a_edge1_Node000001_Node000002"><a xlink:title=" ">
<path fill="none" stroke="#63b8ff" d="M674.45,-181.19C571.28,-175.71 384.93,-161.88 229,-129 221.9,-127.5 214.54,-125.61 207.3,-123.54"/>
<polygon fill="#63b8ff" stroke="#63b8ff" points="674.31,-184.69 684.47,-181.71 674.67,-177.7 674.31,-184.69"/>
</a>
</g>
</g>
<!-- Node5 -->
<g id="Node000005" class="node">
<title>Node5</title>
<g id="a_Node000005"><a xlink:href="vans__assemblers_8cc.html" target="_top" xlink:title=" ">
<polygon fill="white" stroke="#666666" points="374.5,-123.5 237.5,-123.5 237.5,-82.5 374.5,-82.5 374.5,-123.5"/>
<text text-anchor="start" x="245.5" y="-111.5" font-family="Helvetica,sans-Serif" font-size="10.00">/home/runner/work/lethe</text>
<text text-anchor="start" x="245.5" y="-100.5" font-family="Helvetica,sans-Serif" font-size="10.00">/lethe/source/fem&#45;dem</text>
<text text-anchor="middle" x="306" y="-89.5" font-family="Helvetica,sans-Serif" font-size="10.00">/vans_assemblers.cc</text>
</a>
</g>
</g>
<!-- Node1&#45;&gt;Node5 -->
<g id="edge4_Node000001_Node000005" class="edge">
<title>Node1&#45;&gt;Node5</title>
<g id="a_edge4_Node000001_Node000005"><a xlink:title=" ">
<path fill="none" stroke="#63b8ff" d="M674.03,-176.35C598.84,-167.71 482.81,-152.11 384,-129 377.35,-127.45 370.46,-125.6 363.64,-123.61"/>
<polygon fill="#63b8ff" stroke="#63b8ff" points="674.04,-179.87 684.37,-177.52 674.82,-172.92 674.04,-179.87"/>
</a>
</g>
</g>
<!-- Node6 -->
<g id="Node000006" class="node">
<title>Node6</title>
<g id="a_Node000006"><a xlink:href="isothermal__compressible__navier__stokes__assembler_8cc.html" target="_top" xlink:title=" ">
<polygon fill="white" stroke="#666666" points="551,-129 393,-129 393,-77 551,-77 551,-129"/>
<text text-anchor="start" x="401" y="-117" font-family="Helvetica,sans-Serif" font-size="10.00">/home/runner/work/lethe</text>
<text text-anchor="start" x="401" y="-106" font-family="Helvetica,sans-Serif" font-size="10.00">/lethe/source/solvers</text>
<text text-anchor="start" x="401" y="-95" font-family="Helvetica,sans-Serif" font-size="10.00">/isothermal_compressible</text>
<text text-anchor="middle" x="472" y="-84" font-family="Helvetica,sans-Serif" font-size="10.00">_navier_stokes_assembler.cc</text>
</a>
</g>
</g>
<!-- Node1&#45;&gt;Node6 -->
<g id="edge5_Node000001_Node000006" class="edge">
<title>Node1&#45;&gt;Node6</title>
<g id="a_edge5_Node000001_Node000006"><a xlink:title=" ">
<path fill="none" stroke="#63b8ff" d="M674.99,-162.15C636.39,-151.1 589.9,-137.78 551.16,-126.68"/>
<polygon fill="#63b8ff" stroke="#63b8ff" points="674.04,-165.52 684.62,-164.91 675.97,-158.79 674.04,-165.52"/>
</a>
</g>
</g>
<!-- Node7 -->
<g id="Node000007" class="node">
<title>Node7</title>
<g id="a_Node000007"><a xlink:href="isothermal__compressible__navier__stokes__vof__assembler_8cc.html" target="_top" xlink:title=" ">
<polygon fill="white" stroke="#666666" points="748.5,-129 569.5,-129 569.5,-77 748.5,-77 748.5,-129"/>
<text text-anchor="start" x="577.5" y="-117" font-family="Helvetica,sans-Serif" font-size="10.00">/home/runner/work/lethe</text>
<text text-anchor="start" x="577.5" y="-106" font-family="Helvetica,sans-Serif" font-size="10.00">/lethe/source/solvers</text>
<text text-anchor="start" x="577.5" y="-95" font-family="Helvetica,sans-Serif" font-size="10.00">/isothermal_compressible</text>
<text text-anchor="middle" x="659" y="-84" font-family="Helvetica,sans-Serif" font-size="10.00">_navier_stokes_vof_assembler.cc</text>
</a>
</g>
</g>
<!-- Node1&#45;&gt;Node7 -->
<g id="edge6_Node000001_Node000007" class="edge">
<title>Node1&#45;&gt;Node7</title>
<g id="a_edge6_Node000001_Node000007"><a xlink:title=" ">
<path fill="none" stroke="#63b8ff" d="M722.13,-158.06C711.27,-148.76 699.1,-138.35 688.37,-129.16"/>
<polygon fill="#63b8ff" stroke="#63b8ff" points="719.89,-160.75 729.76,-164.6 724.45,-155.44 719.89,-160.75"/>
</a>
</g>
</g>
<!-- Node8 -->
<g id="Node000008" class="node">
<title>Node8</title>
<g id="a_Node000008"><a xlink:href="navier__stokes__assemblers_8cc.html" target="_top" xlink:title=" ">
<polygon fill="white" stroke="#666666" points="929,-123.5 767,-123.5 767,-82.5 929,-82.5 929,-123.5"/>
<text text-anchor="start" x="775" y="-111.5" font-family="Helvetica,sans-Serif" font-size="10.00">/home/runner/work/lethe</text>
<text text-anchor="start" x="775" y="-100.5" font-family="Helvetica,sans-Serif" font-size="10.00">/lethe/source/solvers</text>
<text text-anchor="middle" x="848" y="-89.5" font-family="Helvetica,sans-Serif" font-size="10.00">/navier_stokes_assemblers.cc</text>
</a>
</g>
</g>
<!-- Node1&#45;&gt;Node8 -->
<g id="edge7_Node000001_Node000008" class="edge">
<title>Node1&#45;&gt;Node8</title>
<g id="a_edge7_Node000001_Node000008"><a xlink:title=" ">
<path fill="none" stroke="#63b8ff" d="M784.4,-157.89C797.58,-146.72 812.64,-133.97 824.79,-123.67"/>
<polygon fill="#63b8ff" stroke="#63b8ff" points="781.85,-155.47 776.48,-164.6 786.38,-160.81 781.85,-155.47"/>
</a>
</g>
</g>
<!-- Node9 -->
<g id="Node000009" class="node">
<title>Node9</title>
<g id="a_Node000009"><a xlink:href="navier__stokes__cahn__hilliard__assemblers_8cc.html" target="_top" xlink:title=" ">
<polygon fill="white" stroke="#666666" points="1102.5,-129 947.5,-129 947.5,-77 1102.5,-77 1102.5,-129"/>
<text text-anchor="start" x="955.5" y="-117" font-family="Helvetica,sans-Serif" font-size="10.00">/home/runner/work/lethe</text>
<text text-anchor="start" x="955.5" y="-106" font-family="Helvetica,sans-Serif" font-size="10.00">/lethe/source/solvers</text>
<text text-anchor="start" x="955.5" y="-95" font-family="Helvetica,sans-Serif" font-size="10.00">/navier_stokes_cahn_hilliard</text>
<text text-anchor="middle" x="1025" y="-84" font-family="Helvetica,sans-Serif" font-size="10.00">_assemblers.cc</text>
</a>
</g>
</g>
<!-- Node1&#45;&gt;Node9 -->
<g id="edge8_Node000001_Node000009" class="edge">
<title>Node1&#45;&gt;Node9</title>
<g id="a_edge8_Node000001_Node000009"><a xlink:title=" ">
<path fill="none" stroke="#63b8ff" d="M828.91,-162.03C865.86,-151.1 910.22,-137.97 947.39,-126.97"/>
<polygon fill="#63b8ff" stroke="#63b8ff" points="827.79,-158.72 819.19,-164.91 829.77,-165.43 827.79,-158.72"/>
</a>
</g>
</g>
<!-- Node10 -->
<g id="Node000010" class="node">
<title>Node10</title>
<g id="a_Node000010"><a xlink:href="navier__stokes__vof__assemblers_8cc.html" target="_top" xlink:title=" ">
<polygon fill="white" stroke="#666666" points="1303.5,-123.5 1120.5,-123.5 1120.5,-82.5 1303.5,-82.5 1303.5,-123.5"/>
<text text-anchor="start" x="1128.5" y="-111.5" font-family="Helvetica,sans-Serif" font-size="10.00">/home/runner/work/lethe</text>
<text text-anchor="start" x="1128.5" y="-100.5" font-family="Helvetica,sans-Serif" font-size="10.00">/lethe/source/solvers</text>
<text text-anchor="middle" x="1212" y="-89.5" font-family="Helvetica,sans-Serif" font-size="10.00">/navier_stokes_vof_assemblers.cc</text>
</a>
</g>
</g>
<!-- Node1&#45;&gt;Node10 -->
<g id="edge9_Node000001_Node000010" class="edge">
<title>Node1&#45;&gt;Node10</title>
<g id="a_edge9_Node000001_Node000010"><a xlink:title=" ">
<path fill="none" stroke="#63b8ff" d="M831.86,-174.42C904.84,-164.6 1016.2,-148.34 1112,-129 1120.16,-127.35 1128.65,-125.48 1137.09,-123.52"/>
<polygon fill="#63b8ff" stroke="#63b8ff" points="831.27,-170.97 821.82,-175.77 832.19,-177.91 831.27,-170.97"/>
</a>
</g>
</g>
<!-- Node11 -->
<g id="Node000011" class="node">
<title>Node11</title>
<g id="a_Node000011"><a xlink:href="stabilization_8cc.html" target="_top" xlink:title=" ">
<polygon fill="white" stroke="#666666" points="1458.5,-123.5 1321.5,-123.5 1321.5,-82.5 1458.5,-82.5 1458.5,-123.5"/>
<text text-anchor="start" x="1329.5" y="-111.5" font-family="Helvetica,sans-Serif" font-size="10.00">/home/runner/work/lethe</text>
<text text-anchor="start" x="1329.5" y="-100.5" font-family="Helvetica,sans-Serif" font-size="10.00">/lethe/source/solvers</text>
<text text-anchor="middle" x="1390" y="-89.5" font-family="Helvetica,sans-Serif" font-size="10.00">/stabilization.cc</text>
</a>
</g>
</g>
<!-- Node1&#45;&gt;Node11 -->
<g id="edge10_Node000001_Node000011" class="edge">
<title>Node1&#45;&gt;Node11</title>
<g id="a_edge10_Node000001_Node000011"><a xlink:title=" ">
<path fill="none" stroke="#63b8ff" d="M832.09,-182.01C941.3,-177.37 1143.94,-164.39 1313,-129 1320.02,-127.53 1327.29,-125.66 1334.45,-123.59"/>
<polygon fill="#63b8ff" stroke="#63b8ff" points="831.67,-178.53 821.82,-182.44 831.96,-185.52 831.67,-178.53"/>
</a>
</g>
</g>
<!-- Node3 -->
<g id="Node000003" class="node">
<title>Node3</title>
<g id="a_Node000003"><a xlink:href="multiphysics__interface_8cc.html" target="_top" xlink:title=" ">
<polygon fill="white" stroke="#666666" points="144,-41 0,-41 0,0 144,0 144,-41"/>
<text text-anchor="start" x="8" y="-29" font-family="Helvetica,sans-Serif" font-size="10.00">/home/runner/work/lethe</text>
<text text-anchor="start" x="8" y="-18" font-family="Helvetica,sans-Serif" font-size="10.00">/lethe/source/solvers</text>
<text text-anchor="middle" x="72" y="-7" font-family="Helvetica,sans-Serif" font-size="10.00">/multiphysics_interface.cc</text>
</a>
</g>
</g>
<!-- Node2&#45;&gt;Node3 -->
<g id="edge2_Node000002_Node000003" class="edge">
<title>Node2&#45;&gt;Node3</title>
<g id="a_edge2_Node000002_Node000003"><a xlink:title=" ">
<path fill="none" stroke="#63b8ff" d="M124.26,-74.76C113.46,-63.74 101.22,-51.27 91.3,-41.17"/>
<polygon fill="#63b8ff" stroke="#63b8ff" points="121.97,-77.42 131.47,-82.1 126.97,-72.51 121.97,-77.42"/>
</a>
</g>
</g>
<!-- Node4 -->
<g id="Node000004" class="node">
<title>Node4</title>
<g id="a_Node000004"><a xlink:href="tracer_8cc.html" target="_top" xlink:title=" ">
<polygon fill="white" stroke="#666666" points="299.5,-41 162.5,-41 162.5,0 299.5,0 299.5,-41"/>
<text text-anchor="start" x="170.5" y="-29" font-family="Helvetica,sans-Serif" font-size="10.00">/home/runner/work/lethe</text>
<text text-anchor="start" x="170.5" y="-18" font-family="Helvetica,sans-Serif" font-size="10.00">/lethe/source/solvers</text>
<text text-anchor="middle" x="231" y="-7" font-family="Helvetica,sans-Serif" font-size="10.00">/tracer.cc</text>
</a>
</g>
</g>
<!-- Node2&#45;&gt;Node4 -->
<g id="edge3_Node000002_Node000004" class="edge">
<title>Node2&#45;&gt;Node4</title>
<g id="a_edge3_Node000002_Node000004"><a xlink:title=" ">
<path fill="none" stroke="#63b8ff" d="M178.07,-74.76C189.02,-63.74 201.41,-51.27 211.45,-41.17"/>
<polygon fill="#63b8ff" stroke="#63b8ff" points="175.34,-72.54 170.78,-82.1 180.31,-77.48 175.34,-72.54"/>
</a>
</g>
</g>
</g>
</svg>
