<?xml version="1.0" encoding="UTF-8" standalone="no"?>
<!DOCTYPE svg PUBLIC "-//W3C//DTD SVG 1.1//EN"
 "http://www.w3.org/Graphics/SVG/1.1/DTD/svg11.dtd">
<!-- Generated by graphviz version 2.43.0 (0)
 -->
<!-- Title: /home/runner/work/lethe/lethe/source/solvers/stabilization.cc Pages: 1 -->
<svg width="1970pt" height="500pt"
 viewBox="0.00 0.00 1970.00 500.00" xmlns="http://www.w3.org/2000/svg" xmlns:xlink="http://www.w3.org/1999/xlink">
<g id="graph0" class="graph" transform="scale(1 1) rotate(0) translate(4 496)">
<title>/home/runner/work/lethe/lethe/source/solvers/stabilization.cc</title>
<!-- Node1 -->
<g id="Node000001" class="node">
<title>Node1</title>
<g id="a_Node000001"><a xlink:title=" ">
<polygon fill="#999999" stroke="#666666" points="1357,-492 1220,-492 1220,-451 1357,-451 1357,-492"/>
<text text-anchor="start" x="1228" y="-480" font-family="Helvetica,sans-Serif" font-size="10.00">/home/runner/work/lethe</text>
<text text-anchor="start" x="1228" y="-469" font-family="Helvetica,sans-Serif" font-size="10.00">/lethe/source/solvers</text>
<text text-anchor="middle" x="1288.5" y="-458" font-family="Helvetica,sans-Serif" font-size="10.00">/stabilization.cc</text>
</a>
</g>
</g>
<!-- Node2 -->
<g id="Node000002" class="node">
<title>Node2</title>
<g id="a_Node000002"><a xlink:href="lethe__grid__tools_8h.html" target="_top" xlink:title=" ">
<polygon fill="white" stroke="#666666" points="1137.5,-415 1009.5,-415 1009.5,-396 1137.5,-396 1137.5,-415"/>
<text text-anchor="middle" x="1073.5" y="-403" font-family="Helvetica,sans-Serif" font-size="10.00">core/lethe_grid_tools.h</text>
</a>
</g>
</g>
<!-- Node1&#45;&gt;Node2 -->
<g id="edge1_Node000001_Node000002" class="edge">
<title>Node1&#45;&gt;Node2</title>
<g id="a_edge1_Node000001_Node000002"><a xlink:title=" ">
<path fill="none" stroke="#63b8ff" d="M1222.82,-450.95C1186.54,-440.15 1142.73,-427.11 1111.98,-417.95"/>
<polygon fill="#63b8ff" stroke="#63b8ff" points="1112.66,-414.51 1102.08,-415.01 1110.67,-421.22 1112.66,-414.51"/>
</a>
</g>
</g>
<!-- Node51 -->
<g id="Node000051" class="node">
<title>Node51</title>
<g id="a_Node000051"><a xlink:href="stabilization_8h.html" target="_top" xlink:title=" ">
<polygon fill="white" stroke="#666666" points="1624.5,-415 1500.5,-415 1500.5,-396 1624.5,-396 1624.5,-415"/>
<text text-anchor="middle" x="1562.5" y="-403" font-family="Helvetica,sans-Serif" font-size="10.00">solvers/stabilization.h</text>
</a>
</g>
</g>
<!-- Node1&#45;&gt;Node51 -->
<g id="edge40_Node000001_Node000051" class="edge">
<title>Node1&#45;&gt;Node51</title>
<g id="a_edge40_Node000001_Node000051"><a xlink:title=" ">
<path fill="none" stroke="#63b8ff" d="M1357.29,-454.43C1407,-442.82 1472.79,-427.45 1516.32,-417.29"/>
<polygon fill="#63b8ff" stroke="#63b8ff" points="1517.13,-420.69 1526.07,-415.01 1515.54,-413.88 1517.13,-420.69"/>
</a>
</g>
</g>
<!-- Node3 -->
<g id="Node000003" class="node">
<title>Node3</title>
<g id="a_Node000003"><a xlink:href="serial__solid_8h.html" target="_top" xlink:title=" ">
<polygon fill="white" stroke="#666666" points="634,-354.5 529,-354.5 529,-335.5 634,-335.5 634,-354.5"/>
<text text-anchor="middle" x="581.5" y="-342.5" font-family="Helvetica,sans-Serif" font-size="10.00">core/serial_solid.h</text>
</a>
</g>
</g>
<!-- Node2&#45;&gt;Node3 -->
<g id="edge2_Node000002_Node000003" class="edge">
<title>Node2&#45;&gt;Node3</title>
<g id="a_edge2_Node000002_Node000003"><a xlink:title=" ">
<path fill="none" stroke="#63b8ff" d="M1009.43,-396.88C914.64,-385.61 738.16,-364.63 644.18,-353.45"/>
<polygon fill="#63b8ff" stroke="#63b8ff" points="644.58,-349.98 634.24,-352.27 643.76,-356.93 644.58,-349.98"/>
</a>
</g>
</g>
<!-- Node15 -->
<g id="Node000015" class="node">
<title>Node15</title>
<g id="a_Node000015"><a xlink:title=" ">
<polygon fill="#e0e0e0" stroke="#999999" points="887,-24.5 772,-24.5 772,-5.5 887,-5.5 887,-24.5"/>
<text text-anchor="middle" x="829.5" y="-12.5" font-family="Helvetica,sans-Serif" font-size="10.00">deal.II/base/tensor.h</text>
</a>
</g>
</g>
<!-- Node2&#45;&gt;Node15 -->
<g id="edge37_Node000002_Node000015" class="edge">
<title>Node2&#45;&gt;Node15</title>
<g id="a_edge37_Node000002_Node000015"><a xlink:title=" ">
<path fill="none" stroke="#63b8ff" d="M1055.25,-395.97C1041.18,-388.45 1022.35,-376.18 1011.5,-360 991.15,-329.65 992.5,-316.54 992.5,-280 992.5,-280 992.5,-280 992.5,-146 992.5,-82.84 916.78,-45.39 868.56,-27.94"/>
<polygon fill="#63b8ff" stroke="#63b8ff" points="869.61,-24.6 859.02,-24.62 867.31,-31.21 869.61,-24.6"/>
</a>
</g>
</g>
<!-- Node21 -->
<g id="Node000021" class="node">
<title>Node21</title>
<g id="a_Node000021"><a xlink:title=" ">
<polygon fill="#e0e0e0" stroke="#999999" points="1045.5,-24.5 905.5,-24.5 905.5,-5.5 1045.5,-5.5 1045.5,-24.5"/>
<text text-anchor="middle" x="975.5" y="-12.5" font-family="Helvetica,sans-Serif" font-size="10.00">deal.II/dofs/dof_handler.h</text>
</a>
</g>
</g>
<!-- Node2&#45;&gt;Node21 -->
<g id="edge38_Node000002_Node000021" class="edge">
<title>Node2&#45;&gt;Node21</title>
<g id="a_edge38_Node000002_Node000021"><a xlink:title=" ">
<path fill="none" stroke="#63b8ff" d="M1091.4,-395.86C1105.22,-388.28 1123.73,-375.98 1134.5,-360 1154.97,-329.6 1154.5,-316.65 1154.5,-280 1154.5,-280 1154.5,-280 1154.5,-146 1154.5,-79.97 1073.77,-44 1020.74,-27.49"/>
<polygon fill="#63b8ff" stroke="#63b8ff" points="1021.45,-24.05 1010.86,-24.54 1019.44,-30.75 1021.45,-24.05"/>
</a>
</g>
</g>
<!-- Node50 -->
<g id="Node000050" class="node">
<title>Node50</title>
<g id="a_Node000050"><a xlink:title=" ">
<polygon fill="#e0e0e0" stroke="#999999" points="1126,-360 1021,-360 1021,-330 1126,-330 1126,-360"/>
<text text-anchor="start" x="1029" y="-348" font-family="Helvetica,sans-Serif" font-size="10.00">deal.II/fe/mapping</text>
<text text-anchor="middle" x="1073.5" y="-337" font-family="Helvetica,sans-Serif" font-size="10.00">_q_cache.h</text>
</a>
</g>
</g>
<!-- Node2&#45;&gt;Node50 -->
<g id="edge39_Node000002_Node000050" class="edge">
<title>Node2&#45;&gt;Node50</title>
<g id="a_edge39_Node000002_Node000050"><a xlink:title=" ">
<path fill="none" stroke="#63b8ff" d="M1073.5,-395.87C1073.5,-389.11 1073.5,-379.35 1073.5,-370.26"/>
<polygon fill="#63b8ff" stroke="#63b8ff" points="1077,-370.11 1073.5,-360.11 1070,-370.11 1077,-370.11"/>
</a>
</g>
</g>
<!-- Node4 -->
<g id="Node000004" class="node">
<title>Node4</title>
<g id="a_Node000004"><a xlink:href="pvd__handler_8h.html" target="_top" xlink:title=" ">
<polygon fill="white" stroke="#666666" points="255,-222.5 146,-222.5 146,-203.5 255,-203.5 255,-222.5"/>
<text text-anchor="middle" x="200.5" y="-210.5" font-family="Helvetica,sans-Serif" font-size="10.00">core/pvd_handler.h</text>
</a>
</g>
</g>
<!-- Node3&#45;&gt;Node4 -->
<g id="edge3_Node000003_Node000004" class="edge">
<title>Node3&#45;&gt;Node4</title>
<g id="a_edge3_Node000003_Node000004"><a xlink:title=" ">
<path fill="none" stroke="#63b8ff" d="M528.73,-342.13C444.74,-338.2 285.52,-326.58 240.5,-294 220.19,-279.31 209.59,-251.34 204.53,-232.68"/>
<polygon fill="#63b8ff" stroke="#63b8ff" points="207.87,-231.59 202.11,-222.7 201.07,-233.24 207.87,-231.59"/>
</a>
</g>
</g>
<!-- Node16 -->
<g id="Node000016" class="node">
<title>Node16</title>
<g id="a_Node000016"><a xlink:href="utilities_8h.html" target="_top" xlink:title=" ">
<polygon fill="#fff0f0" stroke="red" points="822.5,-90.5 736.5,-90.5 736.5,-71.5 822.5,-71.5 822.5,-90.5"/>
<text text-anchor="middle" x="779.5" y="-78.5" font-family="Helvetica,sans-Serif" font-size="10.00">core/utilities.h</text>
</a>
</g>
</g>
<!-- Node3&#45;&gt;Node16 -->
<g id="edge32_Node000003_Node000016" class="edge">
<title>Node3&#45;&gt;Node16</title>
<g id="a_edge32_Node000003_Node000016"><a xlink:title=" ">
<path fill="none" stroke="#63b8ff" d="M634.32,-338.41C665.34,-332.4 702.95,-319.92 726.5,-294 776.3,-239.19 746.85,-203.67 765.5,-132 768.21,-121.59 771.43,-110.02 774.11,-100.64"/>
<polygon fill="#63b8ff" stroke="#63b8ff" points="777.53,-101.4 776.92,-90.82 770.8,-99.47 777.53,-101.4"/>
</a>
</g>
</g>
<!-- Node3&#45;&gt;Node21 -->
<g id="edge34_Node000003_Node000021" class="edge">
<title>Node3&#45;&gt;Node21</title>
<g id="a_edge34_Node000003_Node000021"><a xlink:title=" ">
<path fill="none" stroke="#63b8ff" d="M634.15,-336.88C736.97,-321.5 954.5,-281.03 954.5,-214 954.5,-214 954.5,-214 954.5,-146 954.5,-105.95 964.33,-59.84 970.54,-34.72"/>
<polygon fill="#63b8ff" stroke="#63b8ff" points="974,-35.3 973.09,-24.75 967.22,-33.57 974,-35.3"/>
</a>
</g>
</g>
<!-- Node44 -->
<g id="Node000044" class="node">
<title>Node44</title>
<g id="a_Node000044"><a xlink:href="simulation__control_8h.html" target="_top" xlink:title="Simulation control classes for managing time&#45;stepping and iteration control in Lethe.">
<polygon fill="white" stroke="#666666" points="389.5,-288.5 249.5,-288.5 249.5,-269.5 389.5,-269.5 389.5,-288.5"/>
<text text-anchor="middle" x="319.5" y="-276.5" font-family="Helvetica,sans-Serif" font-size="10.00">core/simulation_control.h</text>
</a>
</g>
</g>
<!-- Node3&#45;&gt;Node44 -->
<g id="edge19_Node000003_Node000044" class="edge">
<title>Node3&#45;&gt;Node44</title>
<g id="a_edge19_Node000003_Node000044"><a xlink:title=" ">
<path fill="none" stroke="#63b8ff" d="M546.44,-335.44C499.38,-323.94 415.75,-303.51 364.21,-290.92"/>
<polygon fill="#63b8ff" stroke="#63b8ff" points="364.9,-287.49 354.36,-288.51 363.24,-294.29 364.9,-287.49"/>
</a>
</g>
</g>
<!-- Node47 -->
<g id="Node000047" class="node">
<title>Node47</title>
<g id="a_Node000047"><a xlink:title=" ">
<polygon fill="#e0e0e0" stroke="#999999" points="526,-228 395,-228 395,-198 526,-198 526,-228"/>
<text text-anchor="start" x="403" y="-216" font-family="Helvetica,sans-Serif" font-size="10.00">deal.II/particles/particle</text>
<text text-anchor="middle" x="460.5" y="-205" font-family="Helvetica,sans-Serif" font-size="10.00">_handler.h</text>
</a>
</g>
</g>
<!-- Node3&#45;&gt;Node47 -->
<g id="edge36_Node000003_Node000047" class="edge">
<title>Node3&#45;&gt;Node47</title>
<g id="a_edge36_Node000003_Node000047"><a xlink:title=" ">
<path fill="none" stroke="#63b8ff" d="M528.93,-340.67C496.55,-335.57 457.37,-323.27 436.5,-294 424.43,-277.06 433.42,-253.99 443.66,-236.98"/>
<polygon fill="#63b8ff" stroke="#63b8ff" points="446.83,-238.51 449.35,-228.22 440.96,-234.7 446.83,-238.51"/>
</a>
</g>
</g>
<!-- Node48 -->
<g id="Node000048" class="node">
<title>Node48</title>
<g id="a_Node000048"><a xlink:href="solid__objects__parameters_8h.html" target="_top" xlink:title="Parameter classes for solid objects used in Nitsche immersed boundary and DEM simulations.">
<polygon fill="white" stroke="#666666" points="118.5,-228 14.5,-228 14.5,-198 118.5,-198 118.5,-228"/>
<text text-anchor="start" x="22.5" y="-216" font-family="Helvetica,sans-Serif" font-size="10.00">core/solid_objects</text>
<text text-anchor="middle" x="66.5" y="-205" font-family="Helvetica,sans-Serif" font-size="10.00">_parameters.h</text>
</a>
</g>
</g>
<!-- Node3&#45;&gt;Node48 -->
<g id="edge26_Node000003_Node000048" class="edge">
<title>Node3&#45;&gt;Node48</title>
<g id="a_edge26_Node000003_Node000048"><a xlink:title=" ">
<path fill="none" stroke="#63b8ff" d="M528.98,-342.81C456.35,-339.84 321.95,-329.54 213.5,-294 169.9,-279.71 124.16,-252.61 95.5,-233.94"/>
<polygon fill="#63b8ff" stroke="#63b8ff" points="97.1,-230.8 86.83,-228.2 93.24,-236.64 97.1,-230.8"/>
</a>
</g>
</g>
<!-- Node13 -->
<g id="Node000013" class="node">
<title>Node13</title>
<g id="a_Node000013"><a xlink:href="tensors__and__points__dimension__manipulation_8h.html" target="_top" xlink:title=" ">
<polygon fill="#fff0f0" stroke="red" points="926.5,-162 774.5,-162 774.5,-132 926.5,-132 926.5,-162"/>
<text text-anchor="start" x="782.5" y="-150" font-family="Helvetica,sans-Serif" font-size="10.00">core/tensors_and_points</text>
<text text-anchor="middle" x="850.5" y="-139" font-family="Helvetica,sans-Serif" font-size="10.00">_dimension_manipulation.h</text>
</a>
</g>
</g>
<!-- Node3&#45;&gt;Node13 -->
<g id="edge30_Node000003_Node000013" class="edge">
<title>Node3&#45;&gt;Node13</title>
<g id="a_edge30_Node000003_Node000013"><a xlink:title=" ">
<path fill="none" stroke="#63b8ff" d="M634.2,-339.54C672.47,-334.02 723.77,-321.66 760.5,-294 802.78,-262.16 829.74,-204.14 842.27,-171.65"/>
<polygon fill="#63b8ff" stroke="#63b8ff" points="845.63,-172.66 845.83,-162.07 839.07,-170.22 845.63,-172.66"/>
</a>
</g>
</g>
<!-- Node32 -->
<g id="Node000032" class="node">
<title>Node32</title>
<g id="a_Node000032"><a xlink:title=" ">
<polygon fill="#e0e0e0" stroke="#999999" points="571,-288.5 446,-288.5 446,-269.5 571,-269.5 571,-288.5"/>
<text text-anchor="middle" x="508.5" y="-276.5" font-family="Helvetica,sans-Serif" font-size="10.00">deal.II/base/function.h</text>
</a>
</g>
</g>
<!-- Node3&#45;&gt;Node32 -->
<g id="edge33_Node000003_Node000032" class="edge">
<title>Node3&#45;&gt;Node32</title>
<g id="a_edge33_Node000003_Node000032"><a xlink:title=" ">
<path fill="none" stroke="#63b8ff" d="M571.65,-335.37C560.07,-325.21 540.62,-308.16 526.36,-295.65"/>
<polygon fill="#63b8ff" stroke="#63b8ff" points="528.48,-292.87 518.66,-288.91 523.87,-298.13 528.48,-292.87"/>
</a>
</g>
</g>
<!-- Node49 -->
<g id="Node000049" class="node">
<title>Node49</title>
<g id="a_Node000049"><a xlink:title=" ">
<polygon fill="#e0e0e0" stroke="#999999" points="718,-288.5 589,-288.5 589,-269.5 718,-269.5 718,-288.5"/>
<text text-anchor="middle" x="653.5" y="-276.5" font-family="Helvetica,sans-Serif" font-size="10.00">deal.II/fe/mapping_fe.h</text>
</a>
</g>
</g>
<!-- Node3&#45;&gt;Node49 -->
<g id="edge35_Node000003_Node000049" class="edge">
<title>Node3&#45;&gt;Node49</title>
<g id="a_edge35_Node000003_Node000049"><a xlink:title=" ">
<path fill="none" stroke="#63b8ff" d="M591.21,-335.37C602.63,-325.21 621.82,-308.16 635.89,-295.65"/>
<polygon fill="#63b8ff" stroke="#63b8ff" points="638.33,-298.16 643.48,-288.91 633.68,-292.93 638.33,-298.16"/>
</a>
</g>
</g>
<!-- Node5 -->
<g id="Node000005" class="node">
<title>Node5</title>
<g id="a_Node000005"><a xlink:href="parameters_8h.html" target="_top" xlink:title=" ">
<polygon fill="white" stroke="#666666" points="314.5,-156.5 208.5,-156.5 208.5,-137.5 314.5,-137.5 314.5,-156.5"/>
<text text-anchor="middle" x="261.5" y="-144.5" font-family="Helvetica,sans-Serif" font-size="10.00">core/parameters.h</text>
</a>
</g>
</g>
<!-- Node4&#45;&gt;Node5 -->
<g id="edge4_Node000004_Node000005" class="edge">
<title>Node4&#45;&gt;Node5</title>
<g id="a_edge4_Node000004_Node000005"><a xlink:title=" ">
<path fill="none" stroke="#63b8ff" d="M208.73,-203.37C218.22,-193.4 234.06,-176.79 245.91,-164.36"/>
<polygon fill="#63b8ff" stroke="#63b8ff" points="248.65,-166.56 253.01,-156.91 243.58,-161.73 248.65,-166.56"/>
</a>
</g>
</g>
<!-- Node6 -->
<g id="Node000006" class="node">
<title>Node6</title>
<g id="a_Node000006"><a xlink:href="dimensionality_8h.html" target="_top" xlink:title=" ">
<polygon fill="white" stroke="#666666" points="211,-90.5 90,-90.5 90,-71.5 211,-71.5 211,-90.5"/>
<text text-anchor="middle" x="150.5" y="-78.5" font-family="Helvetica,sans-Serif" font-size="10.00">core/dimensionality.h</text>
</a>
</g>
</g>
<!-- Node5&#45;&gt;Node6 -->
<g id="edge5_Node000005_Node000006" class="edge">
<title>Node5&#45;&gt;Node6</title>
<g id="a_edge5_Node000005_Node000006"><a xlink:title=" ">
<path fill="none" stroke="#63b8ff" d="M246.53,-137.37C227.99,-126.68 196.19,-108.35 174.3,-95.72"/>
<polygon fill="#63b8ff" stroke="#63b8ff" points="176,-92.66 165.59,-90.7 172.5,-98.73 176,-92.66"/>
</a>
</g>
</g>
<!-- Node7 -->
<g id="Node000007" class="node">
<title>Node7</title>
<g id="a_Node000007"><a xlink:title=" ">
<polygon fill="#e0e0e0" stroke="#999999" points="127,-30 0,-30 0,0 127,0 127,-30"/>
<text text-anchor="start" x="8" y="-18" font-family="Helvetica,sans-Serif" font-size="10.00">deal.II/base/parameter</text>
<text text-anchor="middle" x="63.5" y="-7" font-family="Helvetica,sans-Serif" font-size="10.00">_handler.h</text>
</a>
</g>
</g>
<!-- Node5&#45;&gt;Node7 -->
<g id="edge16_Node000005_Node000007" class="edge">
<title>Node5&#45;&gt;Node7</title>
<g id="a_edge16_Node000005_Node000007"><a xlink:title=" ">
<path fill="none" stroke="#63b8ff" d="M208.45,-145.47C167.78,-142.12 113.24,-130.77 80.5,-96 66.55,-81.19 62.89,-57.9 62.37,-40.26"/>
<polygon fill="#63b8ff" stroke="#63b8ff" points="65.87,-40.14 62.39,-30.14 58.87,-40.13 65.87,-40.14"/>
</a>
</g>
</g>
<!-- Node8 -->
<g id="Node000008" class="node">
<title>Node8</title>
<g id="a_Node000008"><a xlink:href="ib__particle_8h.html" target="_top" xlink:title=" ">
<polygon fill="#fff0f0" stroke="red" points="680,-90.5 579,-90.5 579,-71.5 680,-71.5 680,-90.5"/>
<text text-anchor="middle" x="629.5" y="-78.5" font-family="Helvetica,sans-Serif" font-size="10.00">core/ib_particle.h</text>
</a>
</g>
</g>
<!-- Node5&#45;&gt;Node8 -->
<g id="edge7_Node000005_Node000008" class="edge">
<title>Node5&#45;&gt;Node8</title>
<g id="a_edge7_Node000005_Node000008"><a xlink:title=" ">
<path fill="none" stroke="#63b8ff" d="M297.14,-137.46C305.74,-135.54 314.93,-133.59 323.5,-132 432.14,-111.82 460.93,-116.57 569.5,-96 574.56,-95.04 579.84,-93.95 585.07,-92.8"/>
<polygon fill="#63b8ff" stroke="#63b8ff" points="586.03,-96.18 595.02,-90.57 584.5,-89.35 586.03,-96.18"/>
</a>
</g>
</g>
<!-- Node41 -->
<g id="Node000041" class="node">
<title>Node41</title>
<g id="a_Node000041"><a xlink:title=" ">
<polygon fill="#e0e0e0" stroke="#999999" points="294,-30 185,-30 185,0 294,0 294,-30"/>
<text text-anchor="start" x="193" y="-18" font-family="Helvetica,sans-Serif" font-size="10.00">deal.II/base/parsed</text>
<text text-anchor="middle" x="239.5" y="-7" font-family="Helvetica,sans-Serif" font-size="10.00">_function.h</text>
</a>
</g>
</g>
<!-- Node5&#45;&gt;Node41 -->
<g id="edge17_Node000005_Node000041" class="edge">
<title>Node5&#45;&gt;Node41</title>
<g id="a_edge17_Node000005_Node000041"><a xlink:title=" ">
<path fill="none" stroke="#63b8ff" d="M260.06,-137.47C256.75,-117.95 248.54,-69.45 243.56,-39.97"/>
<polygon fill="#63b8ff" stroke="#63b8ff" points="247,-39.34 241.88,-30.07 240.1,-40.51 247,-39.34"/>
</a>
</g>
</g>
<!-- Node42 -->
<g id="Node000042" class="node">
<title>Node42</title>
<g id="a_Node000042"><a xlink:href="multiphysics_8h.html" target="_top" xlink:title="Identifiers for multiphysics modules and their solution fields.">
<polygon fill="white" stroke="#666666" points="379.5,-90.5 267.5,-90.5 267.5,-71.5 379.5,-71.5 379.5,-90.5"/>
<text text-anchor="middle" x="323.5" y="-78.5" font-family="Helvetica,sans-Serif" font-size="10.00">core/multiphysics.h</text>
</a>
</g>
</g>
<!-- Node5&#45;&gt;Node42 -->
<g id="edge10_Node000005_Node000042" class="edge">
<title>Node5&#45;&gt;Node42</title>
<g id="a_edge10_Node000005_Node000042"><a xlink:title=" ">
<path fill="none" stroke="#63b8ff" d="M269.86,-137.37C279.51,-127.4 295.61,-110.79 307.65,-98.36"/>
<polygon fill="#63b8ff" stroke="#63b8ff" points="310.43,-100.52 314.87,-90.91 305.4,-95.65 310.43,-100.52"/>
</a>
</g>
</g>
<!-- Node5&#45;&gt;Node16 -->
<g id="edge11_Node000005_Node000016" class="edge">
<title>Node5&#45;&gt;Node16</title>
<g id="a_edge11_Node000005_Node000016"><a xlink:title=" ">
<path fill="none" stroke="#63b8ff" d="M295.79,-137.46C304.76,-135.45 314.46,-133.46 323.5,-132 484.42,-106 526.77,-116.4 688.5,-96 700.64,-94.47 713.66,-92.6 725.95,-90.73"/>
<polygon fill="#63b8ff" stroke="#63b8ff" points="726.71,-94.16 736.06,-89.18 725.64,-87.24 726.71,-94.16"/>
</a>
</g>
</g>
<!-- Node43 -->
<g id="Node000043" class="node">
<title>Node43</title>
<g id="a_Node000043"><a xlink:title=" ">
<polygon fill="#e0e0e0" stroke="#999999" points="561,-96 398,-96 398,-66 561,-66 561,-96"/>
<text text-anchor="start" x="406" y="-84" font-family="Helvetica,sans-Serif" font-size="10.00">deal.II/multigrid/mg</text>
<text text-anchor="middle" x="479.5" y="-73" font-family="Helvetica,sans-Serif" font-size="10.00">_transfer_global_coarsening.h</text>
</a>
</g>
</g>
<!-- Node5&#45;&gt;Node43 -->
<g id="edge18_Node000005_Node000043" class="edge">
<title>Node5&#45;&gt;Node43</title>
<g id="a_edge18_Node000005_Node000043"><a xlink:title=" ">
<path fill="none" stroke="#63b8ff" d="M290.9,-137.37C324.25,-127.58 379.47,-111.37 421.57,-99.01"/>
<polygon fill="#63b8ff" stroke="#63b8ff" points="422.81,-102.29 431.42,-96.12 420.84,-95.57 422.81,-102.29"/>
</a>
</g>
</g>
<!-- Node6&#45;&gt;Node7 -->
<g id="edge6_Node000006_Node000007" class="edge">
<title>Node6&#45;&gt;Node7</title>
<g id="a_edge6_Node000006_Node000007"><a xlink:title=" ">
<path fill="none" stroke="#63b8ff" d="M138.77,-71.37C126.52,-62.36 106.9,-47.92 90.75,-36.05"/>
<polygon fill="#63b8ff" stroke="#63b8ff" points="92.82,-33.22 82.69,-30.12 88.67,-38.86 92.82,-33.22"/>
</a>
</g>
</g>
<!-- Node8&#45;&gt;Node41 -->
<g id="edge8_Node000008_Node000041" class="edge">
<title>Node8&#45;&gt;Node41</title>
<g id="a_edge8_Node000008_Node000041"><a xlink:title=" ">
<path fill="none" stroke="#63b8ff" d="M595.02,-71.46C586.69,-69.54 577.8,-67.59 569.5,-66 477.76,-48.37 370.68,-33.12 303.98,-24.24"/>
<polygon fill="#63b8ff" stroke="#63b8ff" points="304.4,-20.76 294.03,-22.92 303.49,-27.7 304.4,-20.76"/>
</a>
</g>
</g>
<!-- Node11 -->
<g id="Node000011" class="node">
<title>Node11</title>
<g id="a_Node000011"><a xlink:title=" ">
<polygon fill="#e0e0e0" stroke="#999999" points="732,-24.5 685,-24.5 685,-5.5 732,-5.5 732,-24.5"/>
<text text-anchor="middle" x="708.5" y="-12.5" font-family="Helvetica,sans-Serif" font-size="10.00">vector</text>
</a>
</g>
</g>
<!-- Node8&#45;&gt;Node11 -->
<g id="edge9_Node000008_Node000011" class="edge">
<title>Node8&#45;&gt;Node11</title>
<g id="a_edge9_Node000008_Node000011"><a xlink:title=" ">
<path fill="none" stroke="#63b8ff" d="M640.15,-71.37C652.88,-61.06 674.38,-43.65 689.87,-31.09"/>
<polygon fill="#63b8ff" stroke="#63b8ff" points="692.2,-33.71 697.76,-24.7 687.79,-28.27 692.2,-33.71"/>
</a>
</g>
</g>
<!-- Node16&#45;&gt;Node7 -->
<g id="edge12_Node000016_Node000007" class="edge">
<title>Node16&#45;&gt;Node7</title>
<g id="a_edge12_Node000016_Node000007"><a xlink:title=" ">
<path fill="none" stroke="#63b8ff" d="M736.09,-72.57C721.05,-70.2 704.07,-67.74 688.5,-66 461.35,-40.6 402.98,-52.18 175.5,-30 163.11,-28.79 149.98,-27.32 137.23,-25.79"/>
<polygon fill="#63b8ff" stroke="#63b8ff" points="137.46,-22.3 127.11,-24.56 136.61,-29.24 137.46,-22.3"/>
</a>
</g>
</g>
<!-- Node16&#45;&gt;Node11 -->
<g id="edge15_Node000016_Node000011" class="edge">
<title>Node16&#45;&gt;Node11</title>
<g id="a_edge15_Node000016_Node000011"><a xlink:title=" ">
<path fill="none" stroke="#63b8ff" d="M769.92,-71.37C758.66,-61.21 739.74,-44.16 725.87,-31.65"/>
<polygon fill="#63b8ff" stroke="#63b8ff" points="728.15,-29 718.38,-24.91 723.46,-34.2 728.15,-29"/>
</a>
</g>
</g>
<!-- Node16&#45;&gt;Node15 -->
<g id="edge13_Node000016_Node000015" class="edge">
<title>Node16&#45;&gt;Node15</title>
<g id="a_edge13_Node000016_Node000015"><a xlink:title=" ">
<path fill="none" stroke="#63b8ff" d="M786.24,-71.37C793.88,-61.59 806.51,-45.42 816.16,-33.08"/>
<polygon fill="#63b8ff" stroke="#63b8ff" points="819.14,-34.94 822.54,-24.91 813.63,-30.63 819.14,-34.94"/>
</a>
</g>
</g>
<!-- Node16&#45;&gt;Node21 -->
<g id="edge14_Node000016_Node000021" class="edge">
<title>Node16&#45;&gt;Node21</title>
<g id="a_edge14_Node000016_Node000021"><a xlink:title=" ">
<path fill="none" stroke="#63b8ff" d="M805.93,-71.37C840.37,-60.12 900.72,-40.42 939.37,-27.8"/>
<polygon fill="#63b8ff" stroke="#63b8ff" points="940.75,-31.03 949.17,-24.6 938.58,-24.37 940.75,-31.03"/>
</a>
</g>
</g>
<!-- Node44&#45;&gt;Node5 -->
<g id="edge24_Node000044_Node000005" class="edge">
<title>Node44&#45;&gt;Node5</title>
<g id="a_edge24_Node000044_Node000005"><a xlink:title=" ">
<path fill="none" stroke="#63b8ff" d="M315.69,-269.47C306.36,-248.54 282.15,-194.3 269.49,-165.91"/>
<polygon fill="#63b8ff" stroke="#63b8ff" points="272.67,-164.44 265.4,-156.73 266.27,-167.29 272.67,-164.44"/>
</a>
</g>
</g>
<!-- Node45 -->
<g id="Node000045" class="node">
<title>Node45</title>
<g id="a_Node000045"><a xlink:href="bdf_8h.html" target="_top" xlink:title=" ">
<polygon fill="white" stroke="#666666" points="377,-222.5 312,-222.5 312,-203.5 377,-203.5 377,-222.5"/>
<text text-anchor="middle" x="344.5" y="-210.5" font-family="Helvetica,sans-Serif" font-size="10.00">core/bdf.h</text>
</a>
</g>
</g>
<!-- Node44&#45;&gt;Node45 -->
<g id="edge20_Node000044_Node000045" class="edge">
<title>Node44&#45;&gt;Node45</title>
<g id="a_edge20_Node000044_Node000045"><a xlink:title=" ">
<path fill="none" stroke="#63b8ff" d="M322.87,-269.37C326.54,-259.97 332.52,-244.67 337.26,-232.53"/>
<polygon fill="#63b8ff" stroke="#63b8ff" points="340.64,-233.49 341.02,-222.91 334.12,-230.95 340.64,-233.49"/>
</a>
</g>
</g>
<!-- Node44&#45;&gt;Node47 -->
<g id="edge25_Node000044_Node000047" class="edge">
<title>Node44&#45;&gt;Node47</title>
<g id="a_edge25_Node000044_Node000047"><a xlink:title=" ">
<path fill="none" stroke="#63b8ff" d="M338.52,-269.37C359.36,-259.91 393.41,-244.45 420.24,-232.27"/>
<polygon fill="#63b8ff" stroke="#63b8ff" points="421.74,-235.44 429.4,-228.12 418.85,-229.06 421.74,-235.44"/>
</a>
</g>
</g>
<!-- Node45&#45;&gt;Node5 -->
<g id="edge21_Node000045_Node000005" class="edge">
<title>Node45&#45;&gt;Node5</title>
<g id="a_edge21_Node000045_Node000005"><a xlink:title=" ">
<path fill="none" stroke="#63b8ff" d="M333.31,-203.37C319.94,-193.06 297.35,-175.65 281.08,-163.09"/>
<polygon fill="#63b8ff" stroke="#63b8ff" points="282.84,-160.03 272.78,-156.7 278.56,-165.58 282.84,-160.03"/>
</a>
</g>
</g>
<!-- Node45&#45;&gt;Node11 -->
<g id="edge23_Node000045_Node000011" class="edge">
<title>Node45&#45;&gt;Node11</title>
<g id="a_edge23_Node000045_Node000011"><a xlink:title=" ">
<path fill="none" stroke="#63b8ff" d="M369.65,-203.39C374.88,-201.61 380.37,-199.74 385.5,-198 520.07,-152.38 592.11,-200.4 688.5,-96 703.87,-79.35 707.88,-52.72 708.7,-34.8"/>
<polygon fill="#63b8ff" stroke="#63b8ff" points="712.2,-34.77 708.87,-24.71 705.2,-34.65 712.2,-34.77"/>
</a>
</g>
</g>
<!-- Node46 -->
<g id="Node000046" class="node">
<title>Node46</title>
<g id="a_Node000046"><a xlink:title=" ">
<polygon fill="#e0e0e0" stroke="#999999" points="438.5,-156.5 332.5,-156.5 332.5,-137.5 438.5,-137.5 438.5,-156.5"/>
<text text-anchor="middle" x="385.5" y="-144.5" font-family="Helvetica,sans-Serif" font-size="10.00">deal.II/lac/vector.h</text>
</a>
</g>
</g>
<!-- Node45&#45;&gt;Node46 -->
<g id="edge22_Node000045_Node000046" class="edge">
<title>Node45&#45;&gt;Node46</title>
<g id="a_edge22_Node000045_Node000046"><a xlink:title=" ">
<path fill="none" stroke="#63b8ff" d="M350.03,-203.37C356.23,-193.69 366.45,-177.74 374.33,-165.44"/>
<polygon fill="#63b8ff" stroke="#63b8ff" points="377.35,-167.21 379.8,-156.91 371.45,-163.44 377.35,-167.21"/>
</a>
</g>
</g>
<!-- Node48&#45;&gt;Node5 -->
<g id="edge27_Node000048_Node000005" class="edge">
<title>Node48&#45;&gt;Node5</title>
<g id="a_edge27_Node000048_Node000005"><a xlink:title=" ">
<path fill="none" stroke="#63b8ff" d="M109.29,-197.95C144.24,-186.48 193.06,-170.46 225.9,-159.68"/>
<polygon fill="#63b8ff" stroke="#63b8ff" points="227.14,-162.96 235.55,-156.52 224.96,-156.31 227.14,-162.96"/>
</a>
</g>
</g>
<!-- Node48&#45;&gt;Node7 -->
<g id="edge28_Node000048_Node000007" class="edge">
<title>Node48&#45;&gt;Node7</title>
<g id="a_edge28_Node000048_Node000007"><a xlink:title=" ">
<path fill="none" stroke="#63b8ff" d="M59.59,-197.96C55.15,-188.15 49.81,-174.6 47.5,-162 39.67,-119.34 49.31,-68.91 56.66,-39.87"/>
<polygon fill="#63b8ff" stroke="#63b8ff" points="60.05,-40.76 59.23,-30.19 53.28,-38.96 60.05,-40.76"/>
</a>
</g>
</g>
<!-- Node48&#45;&gt;Node41 -->
<g id="edge29_Node000048_Node000041" class="edge">
<title>Node48&#45;&gt;Node41</title>
<g id="a_edge29_Node000048_Node000041"><a xlink:title=" ">
<path fill="none" stroke="#63b8ff" d="M63.18,-197.65C57.48,-169.1 49.24,-104.58 80.5,-66 92.79,-50.83 136.3,-37.76 174.71,-28.79"/>
<polygon fill="#63b8ff" stroke="#63b8ff" points="175.88,-32.11 184.85,-26.49 174.33,-25.29 175.88,-32.11"/>
</a>
</g>
</g>
<!-- Node13&#45;&gt;Node15 -->
<g id="edge31_Node000013_Node000015" class="edge">
<title>Node13&#45;&gt;Node15</title>
<g id="a_edge31_Node000013_Node000015"><a xlink:title=" ">
<path fill="none" stroke="#63b8ff" d="M848.21,-131.84C844.42,-108.34 836.81,-61.26 832.56,-34.93"/>
<polygon fill="#63b8ff" stroke="#63b8ff" points="835.96,-34.06 830.91,-24.75 829.05,-35.18 835.96,-34.06"/>
</a>
</g>
</g>
<!-- Node52 -->
<g id="Node000052" class="node">
<title>Node52</title>
<g id="a_Node000052"><a xlink:href="vector_8h.html" target="_top" xlink:title=" ">
<polygon fill="white" stroke="#666666" points="1543.5,-354.5 1463.5,-354.5 1463.5,-335.5 1543.5,-335.5 1543.5,-354.5"/>
<text text-anchor="middle" x="1503.5" y="-342.5" font-family="Helvetica,sans-Serif" font-size="10.00">core/vector.h</text>
</a>
</g>
</g>
<!-- Node51&#45;&gt;Node52 -->
<g id="edge41_Node000051_Node000052" class="edge">
<title>Node51&#45;&gt;Node52</title>
<g id="a_edge41_Node000051_Node000052"><a xlink:title=" ">
<path fill="none" stroke="#63b8ff" d="M1553.79,-395.87C1544.82,-386.97 1530.62,-372.89 1519.59,-361.95"/>
<polygon fill="#63b8ff" stroke="#63b8ff" points="1521.81,-359.22 1512.24,-354.67 1516.88,-364.19 1521.81,-359.22"/>
</a>
</g>
</g>
<!-- Node59 -->
<g id="Node000059" class="node">
<title>Node59</title>
<g id="a_Node000059"><a xlink:title=" ">
<polygon fill="#e0e0e0" stroke="#999999" points="1683.5,-354.5 1561.5,-354.5 1561.5,-335.5 1683.5,-335.5 1683.5,-354.5"/>
<text text-anchor="middle" x="1622.5" y="-342.5" font-family="Helvetica,sans-Serif" font-size="10.00">deal.II/base/utilities.h</text>
</a>
</g>
</g>
<!-- Node51&#45;&gt;Node59 -->
<g id="edge48_Node000051_Node000059" class="edge">
<title>Node51&#45;&gt;Node59</title>
<g id="a_edge48_Node000051_Node000059"><a xlink:title=" ">
<path fill="none" stroke="#63b8ff" d="M1571.35,-395.87C1580.48,-386.97 1594.92,-372.89 1606.14,-361.95"/>
<polygon fill="#63b8ff" stroke="#63b8ff" points="1608.89,-364.15 1613.61,-354.67 1604.01,-359.14 1608.89,-364.15"/>
</a>
</g>
</g>
<!-- Node60 -->
<g id="Node000060" class="node">
<title>Node60</title>
<g id="a_Node000060"><a xlink:title=" ">
<polygon fill="#e0e0e0" stroke="#999999" points="1749,-354.5 1702,-354.5 1702,-335.5 1749,-335.5 1749,-354.5"/>
<text text-anchor="middle" x="1725.5" y="-342.5" font-family="Helvetica,sans-Serif" font-size="10.00">cmath</text>
</a>
</g>
</g>
<!-- Node51&#45;&gt;Node60 -->
<g id="edge49_Node000051_Node000060" class="edge">
<title>Node51&#45;&gt;Node60</title>
<g id="a_edge49_Node000051_Node000060"><a xlink:title=" ">
<path fill="none" stroke="#63b8ff" d="M1589.34,-395.93C1615.77,-387.35 1657.19,-373.51 1692.5,-360 1693.88,-359.47 1695.29,-358.92 1696.71,-358.36"/>
<polygon fill="#63b8ff" stroke="#63b8ff" points="1698.13,-361.56 1706.05,-354.52 1695.47,-355.08 1698.13,-361.56"/>
</a>
</g>
</g>
<!-- Node53 -->
<g id="Node000053" class="node">
<title>Node53</title>
<g id="a_Node000053"><a xlink:title=" ">
<polygon fill="#e0e0e0" stroke="#999999" points="1688.5,-294 1570.5,-294 1570.5,-264 1688.5,-264 1688.5,-294"/>
<text text-anchor="start" x="1578.5" y="-282" font-family="Helvetica,sans-Serif" font-size="10.00">deal.II/lac/la_parallel</text>
<text text-anchor="middle" x="1629.5" y="-271" font-family="Helvetica,sans-Serif" font-size="10.00">_block_vector.h</text>
</a>
</g>
</g>
<!-- Node52&#45;&gt;Node53 -->
<g id="edge42_Node000052_Node000053" class="edge">
<title>Node52&#45;&gt;Node53</title>
<g id="a_edge42_Node000052_Node000053"><a xlink:title=" ">
<path fill="none" stroke="#63b8ff" d="M1520.49,-335.37C1538.88,-326.03 1568.75,-310.86 1592.58,-298.75"/>
<polygon fill="#63b8ff" stroke="#63b8ff" points="1594.38,-301.76 1601.71,-294.12 1591.21,-295.52 1594.38,-301.76"/>
</a>
</g>
</g>
<!-- Node54 -->
<g id="Node000054" class="node">
<title>Node54</title>
<g id="a_Node000054"><a xlink:title=" ">
<polygon fill="#e0e0e0" stroke="#999999" points="1824.5,-294 1706.5,-294 1706.5,-264 1824.5,-264 1824.5,-294"/>
<text text-anchor="start" x="1714.5" y="-282" font-family="Helvetica,sans-Serif" font-size="10.00">deal.II/lac/la_parallel</text>
<text text-anchor="middle" x="1765.5" y="-271" font-family="Helvetica,sans-Serif" font-size="10.00">_vector.h</text>
</a>
</g>
</g>
<!-- Node52&#45;&gt;Node54 -->
<g id="edge43_Node000052_Node000054" class="edge">
<title>Node52&#45;&gt;Node54</title>
<g id="a_edge43_Node000052_Node000054"><a xlink:title=" ">
<path fill="none" stroke="#63b8ff" d="M1532.46,-335.48C1539.03,-333.61 1545.99,-331.69 1552.5,-330 1600.32,-317.56 1654.53,-304.86 1696.3,-295.37"/>
<polygon fill="#63b8ff" stroke="#63b8ff" points="1697.11,-298.77 1706.09,-293.15 1695.57,-291.94 1697.11,-298.77"/>
</a>
</g>
</g>
<!-- Node55 -->
<g id="Node000055" class="node">
<title>Node55</title>
<g id="a_Node000055"><a xlink:title=" ">
<polygon fill="#e0e0e0" stroke="#999999" points="1962,-294 1843,-294 1843,-264 1962,-264 1962,-294"/>
<text text-anchor="start" x="1851" y="-282" font-family="Helvetica,sans-Serif" font-size="10.00">deal.II/lac/read_write</text>
<text text-anchor="middle" x="1902.5" y="-271" font-family="Helvetica,sans-Serif" font-size="10.00">_vector.h</text>
</a>
</g>
</g>
<!-- Node52&#45;&gt;Node55 -->
<g id="edge44_Node000052_Node000055" class="edge">
<title>Node52&#45;&gt;Node55</title>
<g id="a_edge44_Node000052_Node000055"><a xlink:title=" ">
<path fill="none" stroke="#63b8ff" d="M1530.53,-335.49C1537.63,-333.47 1545.31,-331.48 1552.5,-330 1672.7,-305.28 1707.52,-314.05 1832.74,-294.03"/>
<polygon fill="#63b8ff" stroke="#63b8ff" points="1833.4,-297.47 1842.71,-292.41 1832.28,-290.56 1833.4,-297.47"/>
</a>
</g>
</g>
<!-- Node56 -->
<g id="Node000056" class="node">
<title>Node56</title>
<g id="a_Node000056"><a xlink:title=" ">
<polygon fill="#e0e0e0" stroke="#999999" points="1316.5,-294 1182.5,-294 1182.5,-264 1316.5,-264 1316.5,-294"/>
<text text-anchor="start" x="1190.5" y="-282" font-family="Helvetica,sans-Serif" font-size="10.00">deal.II/lac/trilinos</text>
<text text-anchor="middle" x="1249.5" y="-271" font-family="Helvetica,sans-Serif" font-size="10.00">_parallel_block_vector.h</text>
</a>
</g>
</g>
<!-- Node52&#45;&gt;Node56 -->
<g id="edge45_Node000052_Node000056" class="edge">
<title>Node52&#45;&gt;Node56</title>
<g id="a_edge45_Node000052_Node000056"><a xlink:title=" ">
<path fill="none" stroke="#63b8ff" d="M1469.51,-335.44C1430.18,-325.52 1364.5,-308.98 1315.12,-296.53"/>
<polygon fill="#63b8ff" stroke="#63b8ff" points="1315.71,-293.07 1305.16,-294.02 1314,-299.86 1315.71,-293.07"/>
</a>
</g>
</g>
<!-- Node57 -->
<g id="Node000057" class="node">
<title>Node57</title>
<g id="a_Node000057"><a xlink:title=" ">
<polygon fill="#e0e0e0" stroke="#999999" points="1436,-294 1335,-294 1335,-264 1436,-264 1436,-294"/>
<text text-anchor="start" x="1343" y="-282" font-family="Helvetica,sans-Serif" font-size="10.00">deal.II/lac/trilinos</text>
<text text-anchor="middle" x="1385.5" y="-271" font-family="Helvetica,sans-Serif" font-size="10.00">_vector.h</text>
</a>
</g>
</g>
<!-- Node52&#45;&gt;Node57 -->
<g id="edge46_Node000052_Node000057" class="edge">
<title>Node52&#45;&gt;Node57</title>
<g id="a_edge46_Node000052_Node000057"><a xlink:title=" ">
<path fill="none" stroke="#63b8ff" d="M1487.59,-335.37C1470.45,-326.07 1442.64,-310.99 1420.37,-298.91"/>
<polygon fill="#63b8ff" stroke="#63b8ff" points="1421.98,-295.81 1411.53,-294.12 1418.65,-301.96 1421.98,-295.81"/>
</a>
</g>
</g>
<!-- Node58 -->
<g id="Node000058" class="node">
<title>Node58</title>
<g id="a_Node000058"><a xlink:title=" ">
<polygon fill="#e0e0e0" stroke="#999999" points="1552.5,-294 1454.5,-294 1454.5,-264 1552.5,-264 1552.5,-294"/>
<text text-anchor="start" x="1462.5" y="-282" font-family="Helvetica,sans-Serif" font-size="10.00">deal.II/lac/vector</text>
<text text-anchor="middle" x="1503.5" y="-271" font-family="Helvetica,sans-Serif" font-size="10.00">_operation.h</text>
</a>
</g>
</g>
<!-- Node52&#45;&gt;Node58 -->
<g id="edge47_Node000052_Node000058" class="edge">
<title>Node52&#45;&gt;Node58</title>
<g id="a_edge47_Node000052_Node000058"><a xlink:title=" ">
<path fill="none" stroke="#63b8ff" d="M1503.5,-335.37C1503.5,-327.49 1503.5,-315.45 1503.5,-304.6"/>
<polygon fill="#63b8ff" stroke="#63b8ff" points="1507,-304.36 1503.5,-294.36 1500,-304.36 1507,-304.36"/>
</a>
</g>
</g>
</g>
</svg>
