<?xml version="1.0" encoding="UTF-8" standalone="no"?>
<!DOCTYPE svg PUBLIC "-//W3C//DTD SVG 1.1//EN"
 "http://www.w3.org/Graphics/SVG/1.1/DTD/svg11.dtd">
<!-- Generated by graphviz version 2.43.0 (0)
 -->
<!-- Title: /home/runner/work/lethe/lethe/include/solvers/tracer_scratch_data.h Pages: 1 -->
<svg width="1552pt" height="621pt"
 viewBox="0.00 0.00 1552.00 621.00" xmlns="http://www.w3.org/2000/svg" xmlns:xlink="http://www.w3.org/1999/xlink">
<g id="graph0" class="graph" transform="scale(1 1) rotate(0) translate(4 617)">
<title>/home/runner/work/lethe/lethe/include/solvers/tracer_scratch_data.h</title>
<!-- Node1 -->
<g id="Node000001" class="node">
<title>Node1</title>
<g id="a_Node000001"><a xlink:title=" ">
<polygon fill="#999999" stroke="#666666" points="1050.5,-613 913.5,-613 913.5,-572 1050.5,-572 1050.5,-613"/>
<text text-anchor="start" x="921.5" y="-601" font-family="Helvetica,sans-Serif" font-size="10.00">/home/runner/work/lethe</text>
<text text-anchor="start" x="921.5" y="-590" font-family="Helvetica,sans-Serif" font-size="10.00">/lethe/include/solvers</text>
<text text-anchor="middle" x="982" y="-579" font-family="Helvetica,sans-Serif" font-size="10.00">/tracer_scratch_data.h</text>
</a>
</g>
</g>
<!-- Node2 -->
<g id="Node000002" class="node">
<title>Node2</title>
<g id="a_Node000002"><a xlink:href="ale_8h.html" target="_top" xlink:title=" ">
<polygon fill="white" stroke="#666666" points="193.5,-90.5 128.5,-90.5 128.5,-71.5 193.5,-71.5 193.5,-90.5"/>
<text text-anchor="middle" x="161" y="-78.5" font-family="Helvetica,sans-Serif" font-size="10.00">core/ale.h</text>
</a>
</g>
</g>
<!-- Node1&#45;&gt;Node2 -->
<g id="edge1_Node000001_Node000002" class="edge">
<title>Node1&#45;&gt;Node2</title>
<g id="a_edge1_Node000001_Node000002"><a xlink:title=" ">
<path fill="none" stroke="#63b8ff" d="M913.34,-589.26C690.23,-581.09 0,-548.34 0,-456 0,-456 0,-456 0,-201 0,-141.94 70.93,-108.86 118.63,-93.28"/>
<polygon fill="#63b8ff" stroke="#63b8ff" points="119.92,-96.55 128.42,-90.22 117.83,-89.87 119.92,-96.55"/>
</a>
</g>
</g>
<!-- Node6 -->
<g id="Node000006" class="node">
<title>Node6</title>
<g id="a_Node000006"><a xlink:href="physical__properties__manager_8h.html" target="_top" xlink:title=" ">
<polygon fill="white" stroke="#666666" points="731,-536 581,-536 581,-506 731,-506 731,-536"/>
<text text-anchor="start" x="589" y="-524" font-family="Helvetica,sans-Serif" font-size="10.00">solvers/physical_properties</text>
<text text-anchor="middle" x="656" y="-513" font-family="Helvetica,sans-Serif" font-size="10.00">_manager.h</text>
</a>
</g>
</g>
<!-- Node1&#45;&gt;Node6 -->
<g id="edge5_Node000001_Node000006" class="edge">
<title>Node1&#45;&gt;Node6</title>
<g id="a_edge5_Node000001_Node000006"><a xlink:title=" ">
<path fill="none" stroke="#63b8ff" d="M913.26,-576.85C860.15,-565.52 786.7,-549.86 731.87,-538.18"/>
<polygon fill="#63b8ff" stroke="#63b8ff" points="732.37,-534.7 721.86,-536.04 730.91,-541.55 732.37,-534.7"/>
</a>
</g>
</g>
<!-- Node64 -->
<g id="Node000064" class="node">
<title>Node64</title>
<g id="a_Node000064"><a xlink:href="physics__scratch__data_8h.html" target="_top" xlink:title=" ">
<polygon fill="white" stroke="#666666" points="881,-536 749,-536 749,-506 881,-506 881,-536"/>
<text text-anchor="start" x="757" y="-524" font-family="Helvetica,sans-Serif" font-size="10.00">solvers/physics_scratch</text>
<text text-anchor="middle" x="815" y="-513" font-family="Helvetica,sans-Serif" font-size="10.00">_data.h</text>
</a>
</g>
</g>
<!-- Node1&#45;&gt;Node64 -->
<g id="edge61_Node000001_Node000064" class="edge">
<title>Node1&#45;&gt;Node64</title>
<g id="a_edge61_Node000001_Node000064"><a xlink:title=" ">
<path fill="none" stroke="#63b8ff" d="M935.04,-571.96C910.87,-561.9 881.62,-549.73 858.04,-539.91"/>
<polygon fill="#63b8ff" stroke="#63b8ff" points="859.23,-536.61 848.65,-536 856.54,-543.08 859.23,-536.61"/>
</a>
</g>
</g>
<!-- Node65 -->
<g id="Node000065" class="node">
<title>Node65</title>
<g id="a_Node000065"><a xlink:title=" ">
<polygon fill="#e0e0e0" stroke="#999999" points="1065,-530.5 899,-530.5 899,-511.5 1065,-511.5 1065,-530.5"/>
<text text-anchor="middle" x="982" y="-518.5" font-family="Helvetica,sans-Serif" font-size="10.00">deal.II/dofs/dof_renumbering.h</text>
</a>
</g>
</g>
<!-- Node1&#45;&gt;Node65 -->
<g id="edge62_Node000001_Node000065" class="edge">
<title>Node1&#45;&gt;Node65</title>
<g id="a_edge62_Node000001_Node000065"><a xlink:title=" ">
<path fill="none" stroke="#63b8ff" d="M982,-571.77C982,-562.08 982,-550.46 982,-540.88"/>
<polygon fill="#63b8ff" stroke="#63b8ff" points="985.5,-540.82 982,-530.82 978.5,-540.82 985.5,-540.82"/>
</a>
</g>
</g>
<!-- Node66 -->
<g id="Node000066" class="node">
<title>Node66</title>
<g id="a_Node000066"><a xlink:title=" ">
<polygon fill="#e0e0e0" stroke="#999999" points="1204.5,-536 1083.5,-536 1083.5,-506 1204.5,-506 1204.5,-536"/>
<text text-anchor="start" x="1091.5" y="-524" font-family="Helvetica,sans-Serif" font-size="10.00">deal.II/fe/fe_interface</text>
<text text-anchor="middle" x="1144" y="-513" font-family="Helvetica,sans-Serif" font-size="10.00">_values.h</text>
</a>
</g>
</g>
<!-- Node1&#45;&gt;Node66 -->
<g id="edge63_Node000001_Node000066" class="edge">
<title>Node1&#45;&gt;Node66</title>
<g id="a_edge63_Node000001_Node000066"><a xlink:title=" ">
<path fill="none" stroke="#63b8ff" d="M1027.56,-571.96C1050.89,-561.94 1079.12,-549.83 1101.94,-540.04"/>
<polygon fill="#63b8ff" stroke="#63b8ff" points="1103.55,-543.16 1111.36,-536 1100.79,-536.73 1103.55,-543.16"/>
</a>
</g>
</g>
<!-- Node67 -->
<g id="Node000067" class="node">
<title>Node67</title>
<g id="a_Node000067"><a xlink:title=" ">
<polygon fill="#e0e0e0" stroke="#999999" points="1345,-530.5 1223,-530.5 1223,-511.5 1345,-511.5 1345,-530.5"/>
<text text-anchor="middle" x="1284" y="-518.5" font-family="Helvetica,sans-Serif" font-size="10.00">deal.II/fe/fe_system.h</text>
</a>
</g>
</g>
<!-- Node1&#45;&gt;Node67 -->
<g id="edge64_Node000001_Node000067" class="edge">
<title>Node1&#45;&gt;Node67</title>
<g id="a_edge64_Node000001_Node000067"><a xlink:title=" ">
<path fill="none" stroke="#63b8ff" d="M1050.53,-575.73C1107.51,-562.62 1187.1,-544.3 1237.07,-532.8"/>
<polygon fill="#63b8ff" stroke="#63b8ff" points="1238,-536.18 1246.96,-530.52 1236.43,-529.36 1238,-536.18"/>
</a>
</g>
</g>
<!-- Node68 -->
<g id="Node000068" class="node">
<title>Node68</title>
<g id="a_Node000068"><a xlink:title=" ">
<polygon fill="#e0e0e0" stroke="#999999" points="1491,-536 1363,-536 1363,-506 1491,-506 1491,-536"/>
<text text-anchor="start" x="1371" y="-524" font-family="Helvetica,sans-Serif" font-size="10.00">deal.II/numerics/vector</text>
<text text-anchor="middle" x="1427" y="-513" font-family="Helvetica,sans-Serif" font-size="10.00">_tools.h</text>
</a>
</g>
</g>
<!-- Node1&#45;&gt;Node68 -->
<g id="edge65_Node000001_Node000068" class="edge">
<title>Node1&#45;&gt;Node68</title>
<g id="a_edge65_Node000001_Node000068"><a xlink:title=" ">
<path fill="none" stroke="#63b8ff" d="M1050.7,-582.12C1123.26,-572.01 1241.27,-555.02 1352.85,-536.16"/>
<polygon fill="#63b8ff" stroke="#63b8ff" points="1353.66,-539.57 1362.93,-534.44 1352.49,-532.67 1353.66,-539.57"/>
</a>
</g>
</g>
<!-- Node3 -->
<g id="Node000003" class="node">
<title>Node3</title>
<g id="a_Node000003"><a xlink:title=" ">
<polygon fill="#e0e0e0" stroke="#999999" points="186.5,-24.5 61.5,-24.5 61.5,-5.5 186.5,-5.5 186.5,-24.5"/>
<text text-anchor="middle" x="124" y="-12.5" font-family="Helvetica,sans-Serif" font-size="10.00">deal.II/base/function.h</text>
</a>
</g>
</g>
<!-- Node2&#45;&gt;Node3 -->
<g id="edge2_Node000002_Node000003" class="edge">
<title>Node2&#45;&gt;Node3</title>
<g id="a_edge2_Node000002_Node000003"><a xlink:title=" ">
<path fill="none" stroke="#63b8ff" d="M156.01,-71.37C150.47,-61.78 141.37,-46.05 134.29,-33.8"/>
<polygon fill="#63b8ff" stroke="#63b8ff" points="137.18,-31.81 129.15,-24.91 131.12,-35.31 137.18,-31.81"/>
</a>
</g>
</g>
<!-- Node4 -->
<g id="Node000004" class="node">
<title>Node4</title>
<g id="a_Node000004"><a xlink:title=" ">
<polygon fill="#e0e0e0" stroke="#999999" points="750.5,-30 623.5,-30 623.5,0 750.5,0 750.5,-30"/>
<text text-anchor="start" x="631.5" y="-18" font-family="Helvetica,sans-Serif" font-size="10.00">deal.II/base/parameter</text>
<text text-anchor="middle" x="687" y="-7" font-family="Helvetica,sans-Serif" font-size="10.00">_handler.h</text>
</a>
</g>
</g>
<!-- Node2&#45;&gt;Node4 -->
<g id="edge3_Node000002_Node000004" class="edge">
<title>Node2&#45;&gt;Node4</title>
<g id="a_edge3_Node000002_Node000004"><a xlink:title=" ">
<path fill="none" stroke="#63b8ff" d="M193.64,-75.12C212.68,-72.33 237.18,-68.83 259,-66 383.22,-49.87 528.05,-33.45 613.38,-24.02"/>
<polygon fill="#63b8ff" stroke="#63b8ff" points="613.93,-27.48 623.49,-22.91 613.16,-20.52 613.93,-27.48"/>
</a>
</g>
</g>
<!-- Node5 -->
<g id="Node000005" class="node">
<title>Node5</title>
<g id="a_Node000005"><a xlink:title=" ">
<polygon fill="#e0e0e0" stroke="#999999" points="313.5,-30 204.5,-30 204.5,0 313.5,0 313.5,-30"/>
<text text-anchor="start" x="212.5" y="-18" font-family="Helvetica,sans-Serif" font-size="10.00">deal.II/base/parsed</text>
<text text-anchor="middle" x="259" y="-7" font-family="Helvetica,sans-Serif" font-size="10.00">_function.h</text>
</a>
</g>
</g>
<!-- Node2&#45;&gt;Node5 -->
<g id="edge4_Node000002_Node000005" class="edge">
<title>Node2&#45;&gt;Node5</title>
<g id="a_edge4_Node000002_Node000005"><a xlink:title=" ">
<path fill="none" stroke="#63b8ff" d="M174.22,-71.37C188.14,-62.28 210.52,-47.66 228.8,-35.72"/>
<polygon fill="#63b8ff" stroke="#63b8ff" points="230.93,-38.51 237.39,-30.12 227.1,-32.65 230.93,-38.51"/>
</a>
</g>
</g>
<!-- Node7 -->
<g id="Node000007" class="node">
<title>Node7</title>
<g id="a_Node000007"><a xlink:href="density__model_8h.html" target="_top" xlink:title=" ">
<polygon fill="white" stroke="#666666" points="576,-464.5 454,-464.5 454,-445.5 576,-445.5 576,-464.5"/>
<text text-anchor="middle" x="515" y="-452.5" font-family="Helvetica,sans-Serif" font-size="10.00">core/density_model.h</text>
</a>
</g>
</g>
<!-- Node6&#45;&gt;Node7 -->
<g id="edge6_Node000006_Node000007" class="edge">
<title>Node6&#45;&gt;Node7</title>
<g id="a_edge6_Node000006_Node000007"><a xlink:title=" ">
<path fill="none" stroke="#63b8ff" d="M625.06,-505.95C600.55,-494.83 566.61,-479.42 542.92,-468.67"/>
<polygon fill="#63b8ff" stroke="#63b8ff" points="544.32,-465.46 533.76,-464.52 541.42,-471.84 544.32,-465.46"/>
</a>
</g>
</g>
<!-- Node49 -->
<g id="Node000049" class="node">
<title>Node49</title>
<g id="a_Node000049"><a xlink:href="electric__conductivity__model_8h.html" target="_top" xlink:title=" ">
<polygon fill="white" stroke="#666666" points="720,-404 578,-404 578,-374 720,-374 720,-404"/>
<text text-anchor="start" x="586" y="-392" font-family="Helvetica,sans-Serif" font-size="10.00">core/electric_conductivity</text>
<text text-anchor="middle" x="649" y="-381" font-family="Helvetica,sans-Serif" font-size="10.00">_model.h</text>
</a>
</g>
</g>
<!-- Node6&#45;&gt;Node49 -->
<g id="edge24_Node000006_Node000049" class="edge">
<title>Node6&#45;&gt;Node49</title>
<g id="a_edge24_Node000006_Node000049"><a xlink:title=" ">
<path fill="none" stroke="#63b8ff" d="M687.7,-505.94C702.17,-497.72 717.87,-485.8 726,-470 732.1,-458.14 732.36,-451.72 726,-440 718.89,-426.91 706.72,-416.72 694.12,-409.05"/>
<polygon fill="#63b8ff" stroke="#63b8ff" points="695.82,-405.99 685.38,-404.14 692.39,-412.09 695.82,-405.99"/>
</a>
</g>
</g>
<!-- Node50 -->
<g id="Node000050" class="node">
<title>Node50</title>
<g id="a_Node000050"><a xlink:href="electric__permittivity__model_8h.html" target="_top" xlink:title=" ">
<polygon fill="white" stroke="#666666" points="878,-404 738,-404 738,-374 878,-374 878,-404"/>
<text text-anchor="start" x="746" y="-392" font-family="Helvetica,sans-Serif" font-size="10.00">core/electric_permittivity</text>
<text text-anchor="middle" x="808" y="-381" font-family="Helvetica,sans-Serif" font-size="10.00">_model.h</text>
</a>
</g>
</g>
<!-- Node6&#45;&gt;Node50 -->
<g id="edge27_Node000006_Node000050" class="edge">
<title>Node6&#45;&gt;Node50</title>
<g id="a_edge27_Node000006_Node000050"><a xlink:title=" ">
<path fill="none" stroke="#63b8ff" d="M686.76,-505.84C704.27,-496.95 726.02,-484.45 743,-470 762.85,-453.11 781.15,-429.55 793.24,-412.37"/>
<polygon fill="#63b8ff" stroke="#63b8ff" points="796.18,-414.27 798.97,-404.04 790.42,-410.3 796.18,-414.27"/>
</a>
</g>
</g>
<!-- Node51 -->
<g id="Node000051" class="node">
<title>Node51</title>
<g id="a_Node000051"><a xlink:href="magnetic__permeability__model_8h.html" target="_top" xlink:title=" ">
<polygon fill="white" stroke="#666666" points="1386,-404 1232,-404 1232,-374 1386,-374 1386,-404"/>
<text text-anchor="start" x="1240" y="-392" font-family="Helvetica,sans-Serif" font-size="10.00">core/magnetic_permeability</text>
<text text-anchor="middle" x="1309" y="-381" font-family="Helvetica,sans-Serif" font-size="10.00">_model.h</text>
</a>
</g>
</g>
<!-- Node6&#45;&gt;Node51 -->
<g id="edge30_Node000006_Node000051" class="edge">
<title>Node6&#45;&gt;Node51</title>
<g id="a_edge30_Node000006_Node000051"><a xlink:title=" ">
<path fill="none" stroke="#63b8ff" d="M731.06,-507.19C734.08,-506.77 737.07,-506.37 740,-506 922.35,-482.87 975.31,-520.66 1152,-470 1199.11,-456.49 1248.73,-428.57 1279.28,-409.55"/>
<polygon fill="#63b8ff" stroke="#63b8ff" points="1281.16,-412.51 1287.75,-404.21 1277.43,-406.59 1281.16,-412.51"/>
</a>
</g>
</g>
<!-- Node52 -->
<g id="Node000052" class="node">
<title>Node52</title>
<g id="a_Node000052"><a xlink:href="mobility__cahn__hilliard__model_8h.html" target="_top" xlink:title=" ">
<polygon fill="white" stroke="#666666" points="987,-470 877,-470 877,-440 987,-440 987,-470"/>
<text text-anchor="start" x="885" y="-458" font-family="Helvetica,sans-Serif" font-size="10.00">core/mobility_cahn</text>
<text text-anchor="middle" x="932" y="-447" font-family="Helvetica,sans-Serif" font-size="10.00">_hilliard_model.h</text>
</a>
</g>
</g>
<!-- Node6&#45;&gt;Node52 -->
<g id="edge33_Node000006_Node000052" class="edge">
<title>Node6&#45;&gt;Node52</title>
<g id="a_edge33_Node000006_Node000052"><a xlink:title=" ">
<path fill="none" stroke="#63b8ff" d="M716.57,-505.95C761.07,-495.64 821.45,-481.64 866.96,-471.08"/>
<polygon fill="#63b8ff" stroke="#63b8ff" points="867.78,-474.48 876.73,-468.82 866.2,-467.67 867.78,-474.48"/>
</a>
</g>
</g>
<!-- Node54 -->
<g id="Node000054" class="node">
<title>Node54</title>
<g id="a_Node000054"><a xlink:href="rheological__model_8h.html" target="_top" xlink:title=" ">
<polygon fill="white" stroke="#666666" points="1544,-398.5 1404,-398.5 1404,-379.5 1544,-379.5 1544,-398.5"/>
<text text-anchor="middle" x="1474" y="-386.5" font-family="Helvetica,sans-Serif" font-size="10.00">core/rheological_model.h</text>
</a>
</g>
</g>
<!-- Node6&#45;&gt;Node54 -->
<g id="edge37_Node000006_Node000054" class="edge">
<title>Node6&#45;&gt;Node54</title>
<g id="a_edge37_Node000006_Node000054"><a xlink:title=" ">
<path fill="none" stroke="#63b8ff" d="M731.06,-507.16C734.08,-506.75 737.06,-506.36 740,-506 944,-481.08 998.86,-507.1 1201,-470 1289.81,-453.7 1391,-419.89 1441.59,-401.88"/>
<polygon fill="#63b8ff" stroke="#63b8ff" points="1442.79,-405.17 1451.02,-398.5 1440.43,-398.58 1442.79,-405.17"/>
</a>
</g>
</g>
<!-- Node55 -->
<g id="Node000055" class="node">
<title>Node55</title>
<g id="a_Node000055"><a xlink:href="specific__heat__model_8h.html" target="_top" xlink:title=" ">
<polygon fill="white" stroke="#666666" points="132,-404 28,-404 28,-374 132,-374 132,-404"/>
<text text-anchor="start" x="36" y="-392" font-family="Helvetica,sans-Serif" font-size="10.00">core/specific_heat</text>
<text text-anchor="middle" x="80" y="-381" font-family="Helvetica,sans-Serif" font-size="10.00">_model.h</text>
</a>
</g>
</g>
<!-- Node6&#45;&gt;Node55 -->
<g id="edge40_Node000006_Node000055" class="edge">
<title>Node6&#45;&gt;Node55</title>
<g id="a_edge40_Node000006_Node000055"><a xlink:title=" ">
<path fill="none" stroke="#63b8ff" d="M580.89,-517.68C498.7,-513.55 363.76,-502.04 252,-470 201.22,-455.44 146.54,-427.71 112.79,-409.04"/>
<polygon fill="#63b8ff" stroke="#63b8ff" points="114.28,-405.86 103.85,-404.03 110.86,-411.97 114.28,-405.86"/>
</a>
</g>
</g>
<!-- Node57 -->
<g id="Node000057" class="node">
<title>Node57</title>
<g id="a_Node000057"><a xlink:href="surface__tension__model_8h.html" target="_top" xlink:title=" ">
<polygon fill="white" stroke="#666666" points="398,-470 280,-470 280,-440 398,-440 398,-470"/>
<text text-anchor="start" x="288" y="-458" font-family="Helvetica,sans-Serif" font-size="10.00">core/surface_tension</text>
<text text-anchor="middle" x="339" y="-447" font-family="Helvetica,sans-Serif" font-size="10.00">_model.h</text>
</a>
</g>
</g>
<!-- Node6&#45;&gt;Node57 -->
<g id="edge45_Node000006_Node000057" class="edge">
<title>Node6&#45;&gt;Node57</title>
<g id="a_edge45_Node000006_Node000057"><a xlink:title=" ">
<path fill="none" stroke="#63b8ff" d="M586.43,-505.95C533.44,-495.26 460.84,-480.6 407.99,-469.93"/>
<polygon fill="#63b8ff" stroke="#63b8ff" points="408.52,-466.47 398.03,-467.92 407.14,-473.33 408.52,-466.47"/>
</a>
</g>
</g>
<!-- Node58 -->
<g id="Node000058" class="node">
<title>Node58</title>
<g id="a_Node000058"><a xlink:href="thermal__conductivity__model_8h.html" target="_top" xlink:title=" ">
<polygon fill="white" stroke="#666666" points="484,-404 340,-404 340,-374 484,-374 484,-404"/>
<text text-anchor="start" x="348" y="-392" font-family="Helvetica,sans-Serif" font-size="10.00">core/thermal_conductivity</text>
<text text-anchor="middle" x="412" y="-381" font-family="Helvetica,sans-Serif" font-size="10.00">_model.h</text>
</a>
</g>
</g>
<!-- Node6&#45;&gt;Node58 -->
<g id="edge48_Node000006_Node000058" class="edge">
<title>Node6&#45;&gt;Node58</title>
<g id="a_edge48_Node000006_Node000058"><a xlink:title=" ">
<path fill="none" stroke="#63b8ff" d="M580.93,-509.58C528.92,-501.02 465.48,-487.47 445,-470 428.45,-455.89 420.06,-432.15 415.9,-414.19"/>
<polygon fill="#63b8ff" stroke="#63b8ff" points="419.28,-413.25 413.87,-404.14 412.42,-414.64 419.28,-413.25"/>
</a>
</g>
</g>
<!-- Node59 -->
<g id="Node000059" class="node">
<title>Node59</title>
<g id="a_Node000059"><a xlink:href="thermal__expansion__model_8h.html" target="_top" xlink:title=" ">
<polygon fill="white" stroke="#666666" points="322,-404 188,-404 188,-374 322,-374 322,-404"/>
<text text-anchor="start" x="196" y="-392" font-family="Helvetica,sans-Serif" font-size="10.00">core/thermal_expansion</text>
<text text-anchor="middle" x="255" y="-381" font-family="Helvetica,sans-Serif" font-size="10.00">_model.h</text>
</a>
</g>
</g>
<!-- Node6&#45;&gt;Node59 -->
<g id="edge52_Node000006_Node000059" class="edge">
<title>Node6&#45;&gt;Node59</title>
<g id="a_edge52_Node000006_Node000059"><a xlink:title=" ">
<path fill="none" stroke="#63b8ff" d="M580.67,-520.28C481.48,-519.01 314.53,-510.66 271,-470 256.01,-456 252.86,-432.25 252.95,-414.26"/>
<polygon fill="#63b8ff" stroke="#63b8ff" points="256.45,-414.31 253.33,-404.19 249.45,-414.05 256.45,-414.31"/>
</a>
</g>
</g>
<!-- Node60 -->
<g id="Node000060" class="node">
<title>Node60</title>
<g id="a_Node000060"><a xlink:href="tracer__diffusivity__model_8h.html" target="_top" xlink:title=" ">
<polygon fill="white" stroke="#666666" points="717.5,-470 594.5,-470 594.5,-440 717.5,-440 717.5,-470"/>
<text text-anchor="start" x="602.5" y="-458" font-family="Helvetica,sans-Serif" font-size="10.00">core/tracer_diffusivity</text>
<text text-anchor="middle" x="656" y="-447" font-family="Helvetica,sans-Serif" font-size="10.00">_model.h</text>
</a>
</g>
</g>
<!-- Node6&#45;&gt;Node60 -->
<g id="edge55_Node000006_Node000060" class="edge">
<title>Node6&#45;&gt;Node60</title>
<g id="a_edge55_Node000006_Node000060"><a xlink:title=" ">
<path fill="none" stroke="#63b8ff" d="M656,-505.8C656,-498.34 656,-488.99 656,-480.41"/>
<polygon fill="#63b8ff" stroke="#63b8ff" points="659.5,-480.16 656,-470.16 652.5,-480.16 659.5,-480.16"/>
</a>
</g>
</g>
<!-- Node61 -->
<g id="Node000061" class="node">
<title>Node61</title>
<g id="a_Node000061"><a xlink:href="tracer__reaction__model_8h.html" target="_top" xlink:title=" ">
<polygon fill="white" stroke="#666666" points="1143,-470 1029,-470 1029,-440 1143,-440 1143,-470"/>
<text text-anchor="start" x="1037" y="-458" font-family="Helvetica,sans-Serif" font-size="10.00">core/tracer_reaction</text>
<text text-anchor="middle" x="1086" y="-447" font-family="Helvetica,sans-Serif" font-size="10.00">_model.h</text>
</a>
</g>
</g>
<!-- Node6&#45;&gt;Node61 -->
<g id="edge57_Node000006_Node000061" class="edge">
<title>Node6&#45;&gt;Node61</title>
<g id="a_edge57_Node000006_Node000061"><a xlink:title=" ">
<path fill="none" stroke="#63b8ff" d="M731.09,-507.39C734.1,-506.91 737.08,-506.45 740,-506 853.57,-488.55 882.34,-486.83 996,-470 1003.4,-468.9 1011.13,-467.74 1018.82,-466.56"/>
<polygon fill="#63b8ff" stroke="#63b8ff" points="1019.53,-469.99 1028.89,-465.01 1018.47,-463.07 1019.53,-469.99"/>
</a>
</g>
</g>
<!-- Node8 -->
<g id="Node000008" class="node">
<title>Node8</title>
<g id="a_Node000008"><a xlink:href="physical__property__model_8h.html" target="_top" xlink:title=" ">
<polygon fill="white" stroke="#666666" points="713,-338 585,-338 585,-308 713,-308 713,-338"/>
<text text-anchor="start" x="593" y="-326" font-family="Helvetica,sans-Serif" font-size="10.00">core/physical_property</text>
<text text-anchor="middle" x="649" y="-315" font-family="Helvetica,sans-Serif" font-size="10.00">_model.h</text>
</a>
</g>
</g>
<!-- Node7&#45;&gt;Node8 -->
<g id="edge7_Node000007_Node000008" class="edge">
<title>Node7&#45;&gt;Node8</title>
<g id="a_edge7_Node000007_Node000008"><a xlink:title=" ">
<path fill="none" stroke="#63b8ff" d="M518.2,-445.32C524.38,-429.49 539.31,-395.58 561,-374 573.69,-361.38 590.21,-350.88 605.51,-342.82"/>
<polygon fill="#63b8ff" stroke="#63b8ff" points="607.48,-345.75 614.83,-338.12 604.33,-339.5 607.48,-345.75"/>
</a>
</g>
</g>
<!-- Node9 -->
<g id="Node000009" class="node">
<title>Node9</title>
<g id="a_Node000009"><a xlink:href="parameters_8h.html" target="_top" xlink:title=" ">
<polygon fill="white" stroke="#666666" points="669,-151 563,-151 563,-132 669,-132 669,-151"/>
<text text-anchor="middle" x="616" y="-139" font-family="Helvetica,sans-Serif" font-size="10.00">core/parameters.h</text>
</a>
</g>
</g>
<!-- Node8&#45;&gt;Node9 -->
<g id="edge8_Node000008_Node000009" class="edge">
<title>Node8&#45;&gt;Node9</title>
<g id="a_edge8_Node000008_Node000009"><a xlink:title=" ">
<path fill="none" stroke="#63b8ff" d="M662.51,-307.85C685.1,-282.41 725.71,-227.83 701,-187 691.86,-171.89 675.71,-161.67 659.93,-154.87"/>
<polygon fill="#63b8ff" stroke="#63b8ff" points="660.81,-151.46 650.22,-151.07 658.26,-157.97 660.81,-151.46"/>
</a>
</g>
</g>
<!-- Node45 -->
<g id="Node000045" class="node">
<title>Node45</title>
<g id="a_Node000045"><a xlink:href="simulation__control_8h.html" target="_top" xlink:title="Simulation control classes for managing time&#45;stepping and iteration control in Lethe.">
<polygon fill="white" stroke="#666666" points="637,-272 497,-272 497,-253 637,-253 637,-272"/>
<text text-anchor="middle" x="567" y="-260" font-family="Helvetica,sans-Serif" font-size="10.00">core/simulation_control.h</text>
</a>
</g>
</g>
<!-- Node8&#45;&gt;Node45 -->
<g id="edge19_Node000008_Node000045" class="edge">
<title>Node8&#45;&gt;Node45</title>
<g id="a_edge19_Node000008_Node000045"><a xlink:title=" ">
<path fill="none" stroke="#63b8ff" d="M629.15,-307.84C616.52,-298.83 600.2,-287.18 587.45,-278.09"/>
<polygon fill="#63b8ff" stroke="#63b8ff" points="589.46,-275.22 579.29,-272.27 585.4,-280.92 589.46,-275.22"/>
</a>
</g>
</g>
<!-- Node9&#45;&gt;Node4 -->
<g id="edge16_Node000009_Node000004" class="edge">
<title>Node9&#45;&gt;Node4</title>
<g id="a_edge16_Node000009_Node000004"><a xlink:title=" ">
<path fill="none" stroke="#63b8ff" d="M669.26,-134.4C715.96,-127.82 778.71,-115.58 794,-96 814.44,-69.82 778.53,-47.9 742.92,-33.66"/>
<polygon fill="#63b8ff" stroke="#63b8ff" points="744.01,-30.33 733.42,-30.03 741.51,-36.87 744.01,-30.33"/>
</a>
</g>
</g>
<!-- Node9&#45;&gt;Node5 -->
<g id="edge17_Node000009_Node000005" class="edge">
<title>Node9&#45;&gt;Node5</title>
<g id="a_edge17_Node000009_Node000005"><a xlink:title=" ">
<path fill="none" stroke="#63b8ff" d="M562.83,-137.7C468.25,-132.16 278.77,-118.38 259,-96 245.83,-81.09 247.4,-57.81 251.34,-40.2"/>
<polygon fill="#63b8ff" stroke="#63b8ff" points="254.84,-40.66 253.98,-30.1 248.06,-38.88 254.84,-40.66"/>
</a>
</g>
</g>
<!-- Node10 -->
<g id="Node000010" class="node">
<title>Node10</title>
<g id="a_Node000010"><a xlink:href="dimensionality_8h.html" target="_top" xlink:title=" ">
<polygon fill="white" stroke="#666666" points="963.5,-90.5 842.5,-90.5 842.5,-71.5 963.5,-71.5 963.5,-90.5"/>
<text text-anchor="middle" x="903" y="-78.5" font-family="Helvetica,sans-Serif" font-size="10.00">core/dimensionality.h</text>
</a>
</g>
</g>
<!-- Node9&#45;&gt;Node10 -->
<g id="edge9_Node000009_Node000010" class="edge">
<title>Node9&#45;&gt;Node10</title>
<g id="a_edge9_Node000009_Node000010"><a xlink:title=" ">
<path fill="none" stroke="#63b8ff" d="M657.73,-131.99C708.96,-121.55 795.83,-103.85 851.25,-92.55"/>
<polygon fill="#63b8ff" stroke="#63b8ff" points="852.12,-95.94 861.22,-90.52 850.72,-89.08 852.12,-95.94"/>
</a>
</g>
</g>
<!-- Node11 -->
<g id="Node000011" class="node">
<title>Node11</title>
<g id="a_Node000011"><a xlink:href="ib__particle_8h.html" target="_top" xlink:title=" ">
<polygon fill="#fff0f0" stroke="red" points="369.5,-90.5 268.5,-90.5 268.5,-71.5 369.5,-71.5 369.5,-90.5"/>
<text text-anchor="middle" x="319" y="-78.5" font-family="Helvetica,sans-Serif" font-size="10.00">core/ib_particle.h</text>
</a>
</g>
</g>
<!-- Node9&#45;&gt;Node11 -->
<g id="edge11_Node000009_Node000011" class="edge">
<title>Node9&#45;&gt;Node11</title>
<g id="a_edge11_Node000009_Node000011"><a xlink:title=" ">
<path fill="none" stroke="#63b8ff" d="M567.31,-132C519.31,-123.47 443.93,-109.66 379,-96 374.28,-95.01 369.35,-93.93 364.45,-92.82"/>
<polygon fill="#63b8ff" stroke="#63b8ff" points="365.01,-89.36 354.48,-90.55 363.45,-96.19 365.01,-89.36"/>
</a>
</g>
</g>
<!-- Node43 -->
<g id="Node000043" class="node">
<title>Node43</title>
<g id="a_Node000043"><a xlink:href="multiphysics_8h.html" target="_top" xlink:title="Identifiers for multiphysics modules and their solution fields.">
<polygon fill="white" stroke="#666666" points="500,-90.5 388,-90.5 388,-71.5 500,-71.5 500,-90.5"/>
<text text-anchor="middle" x="444" y="-78.5" font-family="Helvetica,sans-Serif" font-size="10.00">core/multiphysics.h</text>
</a>
</g>
</g>
<!-- Node9&#45;&gt;Node43 -->
<g id="edge13_Node000009_Node000043" class="edge">
<title>Node9&#45;&gt;Node43</title>
<g id="a_edge13_Node000009_Node000043"><a xlink:title=" ">
<path fill="none" stroke="#63b8ff" d="M590.99,-131.99C561.44,-121.94 512.09,-105.16 478.81,-93.84"/>
<polygon fill="#63b8ff" stroke="#63b8ff" points="479.63,-90.42 469.04,-90.52 477.38,-97.05 479.63,-90.42"/>
</a>
</g>
</g>
<!-- Node19 -->
<g id="Node000019" class="node">
<title>Node19</title>
<g id="a_Node000019"><a xlink:href="core_2utilities_8h.html" target="_top" xlink:title=" ">
<polygon fill="#fff0f0" stroke="red" points="604,-90.5 518,-90.5 518,-71.5 604,-71.5 604,-90.5"/>
<text text-anchor="middle" x="561" y="-78.5" font-family="Helvetica,sans-Serif" font-size="10.00">core/utilities.h</text>
</a>
</g>
</g>
<!-- Node9&#45;&gt;Node19 -->
<g id="edge14_Node000009_Node000019" class="edge">
<title>Node9&#45;&gt;Node19</title>
<g id="a_edge14_Node000009_Node000019"><a xlink:title=" ">
<path fill="none" stroke="#63b8ff" d="M607.88,-131.87C599.6,-123.05 586.53,-109.16 576.3,-98.27"/>
<polygon fill="#63b8ff" stroke="#63b8ff" points="578.55,-95.56 569.15,-90.67 573.45,-100.35 578.55,-95.56"/>
</a>
</g>
</g>
<!-- Node44 -->
<g id="Node000044" class="node">
<title>Node44</title>
<g id="a_Node000044"><a xlink:title=" ">
<polygon fill="#e0e0e0" stroke="#999999" points="785.5,-96 622.5,-96 622.5,-66 785.5,-66 785.5,-96"/>
<text text-anchor="start" x="630.5" y="-84" font-family="Helvetica,sans-Serif" font-size="10.00">deal.II/multigrid/mg</text>
<text text-anchor="middle" x="704" y="-73" font-family="Helvetica,sans-Serif" font-size="10.00">_transfer_global_coarsening.h</text>
</a>
</g>
</g>
<!-- Node9&#45;&gt;Node44 -->
<g id="edge18_Node000009_Node000044" class="edge">
<title>Node9&#45;&gt;Node44</title>
<g id="a_edge18_Node000009_Node000044"><a xlink:title=" ">
<path fill="none" stroke="#63b8ff" d="M628.98,-131.87C640.81,-124 658.73,-112.09 674.09,-101.89"/>
<polygon fill="#63b8ff" stroke="#63b8ff" points="676.38,-104.57 682.77,-96.11 672.5,-98.74 676.38,-104.57"/>
</a>
</g>
</g>
<!-- Node10&#45;&gt;Node4 -->
<g id="edge10_Node000010_Node000004" class="edge">
<title>Node10&#45;&gt;Node4</title>
<g id="a_edge10_Node000010_Node000004"><a xlink:title=" ">
<path fill="none" stroke="#63b8ff" d="M873.87,-71.37C840.82,-61.58 786.11,-45.37 744.4,-33.01"/>
<polygon fill="#63b8ff" stroke="#63b8ff" points="745.22,-29.6 734.64,-30.12 743.23,-36.31 745.22,-29.6"/>
</a>
</g>
</g>
<!-- Node11&#45;&gt;Node5 -->
<g id="edge12_Node000011_Node000005" class="edge">
<title>Node11&#45;&gt;Node5</title>
<g id="a_edge12_Node000011_Node000005"><a xlink:title=" ">
<path fill="none" stroke="#63b8ff" d="M310.91,-71.37C302.9,-62.83 290.32,-49.41 279.55,-37.92"/>
<polygon fill="#63b8ff" stroke="#63b8ff" points="281.86,-35.26 272.46,-30.36 276.75,-40.05 281.86,-35.26"/>
</a>
</g>
</g>
<!-- Node19&#45;&gt;Node4 -->
<g id="edge15_Node000019_Node000004" class="edge">
<title>Node19&#45;&gt;Node4</title>
<g id="a_edge15_Node000019_Node000004"><a xlink:title=" ">
<path fill="none" stroke="#63b8ff" d="M577.99,-71.37C596.38,-62.03 626.25,-46.86 650.08,-34.75"/>
<polygon fill="#63b8ff" stroke="#63b8ff" points="651.88,-37.76 659.21,-30.12 648.71,-31.52 651.88,-37.76"/>
</a>
</g>
</g>
<!-- Node45&#45;&gt;Node9 -->
<g id="edge22_Node000045_Node000009" class="edge">
<title>Node45&#45;&gt;Node9</title>
<g id="a_edge22_Node000045_Node000009"><a xlink:title=" ">
<path fill="none" stroke="#63b8ff" d="M523.19,-252.97C503.06,-246.62 481.04,-235.69 469,-217 461.78,-205.79 461.05,-197.71 469,-187 488.27,-161.03 522.28,-149.68 552.74,-144.92"/>
<polygon fill="#63b8ff" stroke="#63b8ff" points="553.46,-148.36 562.9,-143.55 552.52,-141.42 553.46,-148.36"/>
</a>
</g>
</g>
<!-- Node46 -->
<g id="Node000046" class="node">
<title>Node46</title>
<g id="a_Node000046"><a xlink:href="bdf_8h.html" target="_top" xlink:title=" ">
<polygon fill="#fff0f0" stroke="red" points="543.5,-211.5 478.5,-211.5 478.5,-192.5 543.5,-192.5 543.5,-211.5"/>
<text text-anchor="middle" x="511" y="-199.5" font-family="Helvetica,sans-Serif" font-size="10.00">core/bdf.h</text>
</a>
</g>
</g>
<!-- Node45&#45;&gt;Node46 -->
<g id="edge20_Node000045_Node000046" class="edge">
<title>Node45&#45;&gt;Node46</title>
<g id="a_edge20_Node000045_Node000046"><a xlink:title=" ">
<path fill="none" stroke="#63b8ff" d="M558.74,-252.87C550.22,-243.97 536.74,-229.89 526.27,-218.95"/>
<polygon fill="#63b8ff" stroke="#63b8ff" points="528.74,-216.47 519.3,-211.67 523.68,-221.31 528.74,-216.47"/>
</a>
</g>
</g>
<!-- Node48 -->
<g id="Node000048" class="node">
<title>Node48</title>
<g id="a_Node000048"><a xlink:title=" ">
<polygon fill="#e0e0e0" stroke="#999999" points="692.5,-217 561.5,-217 561.5,-187 692.5,-187 692.5,-217"/>
<text text-anchor="start" x="569.5" y="-205" font-family="Helvetica,sans-Serif" font-size="10.00">deal.II/particles/particle</text>
<text text-anchor="middle" x="627" y="-194" font-family="Helvetica,sans-Serif" font-size="10.00">_handler.h</text>
</a>
</g>
</g>
<!-- Node45&#45;&gt;Node48 -->
<g id="edge23_Node000045_Node000048" class="edge">
<title>Node45&#45;&gt;Node48</title>
<g id="a_edge23_Node000045_Node000048"><a xlink:title=" ">
<path fill="none" stroke="#63b8ff" d="M575.85,-252.87C583.54,-245.37 595,-234.2 605.13,-224.33"/>
<polygon fill="#63b8ff" stroke="#63b8ff" points="607.81,-226.6 612.52,-217.11 602.92,-221.59 607.81,-226.6"/>
</a>
</g>
</g>
<!-- Node46&#45;&gt;Node9 -->
<g id="edge21_Node000046_Node000009" class="edge">
<title>Node46&#45;&gt;Node9</title>
<g id="a_edge21_Node000046_Node000009"><a xlink:title=" ">
<path fill="none" stroke="#63b8ff" d="M526.49,-192.37C543.63,-182.82 571.47,-167.31 591.56,-156.12"/>
<polygon fill="#63b8ff" stroke="#63b8ff" points="593.41,-159.09 600.44,-151.17 590,-152.98 593.41,-159.09"/>
</a>
</g>
</g>
<!-- Node49&#45;&gt;Node8 -->
<g id="edge26_Node000049_Node000008" class="edge">
<title>Node49&#45;&gt;Node8</title>
<g id="a_edge26_Node000049_Node000008"><a xlink:title=" ">
<path fill="none" stroke="#63b8ff" d="M649,-373.8C649,-366.34 649,-356.99 649,-348.41"/>
<polygon fill="#63b8ff" stroke="#63b8ff" points="652.5,-348.16 649,-338.16 645.5,-348.16 652.5,-348.16"/>
</a>
</g>
</g>
<!-- Node49&#45;&gt;Node9 -->
<g id="edge25_Node000049_Node000009" class="edge">
<title>Node49&#45;&gt;Node9</title>
<g id="a_edge25_Node000049_Node000009"><a xlink:title=" ">
<path fill="none" stroke="#63b8ff" d="M682.78,-373.85C697.65,-365.71 713.62,-353.9 722,-338 737.42,-308.75 776.89,-272.73 719,-187 708.33,-171.2 690.76,-160.98 673.13,-154.37"/>
<polygon fill="#63b8ff" stroke="#63b8ff" points="673.97,-150.96 663.38,-151.07 671.72,-157.59 673.97,-150.96"/>
</a>
</g>
</g>
<!-- Node50&#45;&gt;Node8 -->
<g id="edge29_Node000050_Node000008" class="edge">
<title>Node50&#45;&gt;Node8</title>
<g id="a_edge29_Node000050_Node000008"><a xlink:title=" ">
<path fill="none" stroke="#63b8ff" d="M773.11,-373.95C749.6,-364.49 718.4,-351.93 693.16,-341.78"/>
<polygon fill="#63b8ff" stroke="#63b8ff" points="694.4,-338.5 683.81,-338.01 691.78,-344.99 694.4,-338.5"/>
</a>
</g>
</g>
<!-- Node50&#45;&gt;Node9 -->
<g id="edge28_Node000050_Node000009" class="edge">
<title>Node50&#45;&gt;Node9</title>
<g id="a_edge28_Node000050_Node000009"><a xlink:title=" ">
<path fill="none" stroke="#63b8ff" d="M807.47,-373.92C805.35,-337.81 794.77,-240.96 742,-187 725.19,-169.81 701.33,-159.24 678.89,-152.76"/>
<polygon fill="#63b8ff" stroke="#63b8ff" points="679.61,-149.33 669.05,-150.14 677.81,-156.09 679.61,-149.33"/>
</a>
</g>
</g>
<!-- Node51&#45;&gt;Node8 -->
<g id="edge32_Node000051_Node000008" class="edge">
<title>Node51&#45;&gt;Node8</title>
<g id="a_edge32_Node000051_Node000008"><a xlink:title=" ">
<path fill="none" stroke="#63b8ff" d="M1231.68,-375.13C1228.75,-374.74 1225.85,-374.36 1223,-374 1044.39,-351.71 833.27,-336.05 723.59,-328.72"/>
<polygon fill="#63b8ff" stroke="#63b8ff" points="723.51,-325.2 713.3,-328.03 723.04,-332.19 723.51,-325.2"/>
</a>
</g>
</g>
<!-- Node51&#45;&gt;Node9 -->
<g id="edge31_Node000051_Node000009" class="edge">
<title>Node51&#45;&gt;Node9</title>
<g id="a_edge31_Node000051_Node000009"><a xlink:title=" ">
<path fill="none" stroke="#63b8ff" d="M1278.19,-373.94C1200.06,-338.68 987.33,-245.21 803,-187 758.79,-173.04 707.48,-161.12 669.81,-153.15"/>
<polygon fill="#63b8ff" stroke="#63b8ff" points="670.07,-149.62 659.56,-151 668.63,-156.48 670.07,-149.62"/>
</a>
</g>
</g>
<!-- Node53 -->
<g id="Node000053" class="node">
<title>Node53</title>
<g id="a_Node000053"><a xlink:href="interface__property__model_8h.html" target="_top" xlink:title=" ">
<polygon fill="white" stroke="#666666" points="1027.5,-404 896.5,-404 896.5,-374 1027.5,-374 1027.5,-404"/>
<text text-anchor="start" x="904.5" y="-392" font-family="Helvetica,sans-Serif" font-size="10.00">core/interface_property</text>
<text text-anchor="middle" x="962" y="-381" font-family="Helvetica,sans-Serif" font-size="10.00">_model.h</text>
</a>
</g>
</g>
<!-- Node52&#45;&gt;Node53 -->
<g id="edge34_Node000052_Node000053" class="edge">
<title>Node52&#45;&gt;Node53</title>
<g id="a_edge34_Node000052_Node000053"><a xlink:title=" ">
<path fill="none" stroke="#63b8ff" d="M938.66,-439.8C942.31,-432.01 946.93,-422.16 951.09,-413.28"/>
<polygon fill="#63b8ff" stroke="#63b8ff" points="954.29,-414.7 955.36,-404.16 947.95,-411.73 954.29,-414.7"/>
</a>
</g>
</g>
<!-- Node53&#45;&gt;Node8 -->
<g id="edge36_Node000053_Node000008" class="edge">
<title>Node53&#45;&gt;Node8</title>
<g id="a_edge36_Node000053_Node000008"><a xlink:title=" ">
<path fill="none" stroke="#63b8ff" d="M896.38,-374.58C845.78,-364.24 775.77,-349.92 723.14,-339.16"/>
<polygon fill="#63b8ff" stroke="#63b8ff" points="723.69,-335.7 713.19,-337.12 722.29,-342.56 723.69,-335.7"/>
</a>
</g>
</g>
<!-- Node53&#45;&gt;Node9 -->
<g id="edge35_Node000053_Node000009" class="edge">
<title>Node53&#45;&gt;Node9</title>
<g id="a_edge35_Node000053_Node000009"><a xlink:title=" ">
<path fill="none" stroke="#63b8ff" d="M952.47,-373.91C927.01,-337.35 853.49,-238.7 768,-187 740.96,-170.64 707.55,-160 678.95,-153.24"/>
<polygon fill="#63b8ff" stroke="#63b8ff" points="679.58,-149.8 669.06,-151.01 678.04,-156.63 679.58,-149.8"/>
</a>
</g>
</g>
<!-- Node54&#45;&gt;Node8 -->
<g id="edge39_Node000054_Node000008" class="edge">
<title>Node54&#45;&gt;Node8</title>
<g id="a_edge39_Node000054_Node000008"><a xlink:title=" ">
<path fill="none" stroke="#63b8ff" d="M1430.66,-379.45C1419.11,-377.41 1406.61,-375.41 1395,-374 1150.12,-344.18 857.69,-331.08 723.27,-326.31"/>
<polygon fill="#63b8ff" stroke="#63b8ff" points="723.2,-322.8 713.08,-325.95 722.96,-329.8 723.2,-322.8"/>
</a>
</g>
</g>
<!-- Node54&#45;&gt;Node9 -->
<g id="edge38_Node000054_Node000009" class="edge">
<title>Node54&#45;&gt;Node9</title>
<g id="a_edge38_Node000054_Node000009"><a xlink:title=" ">
<path fill="none" stroke="#63b8ff" d="M1451.78,-379.48C1372.6,-349.38 1096.31,-246.65 861,-187 799.84,-171.5 728.79,-159.21 679,-151.51"/>
<polygon fill="#63b8ff" stroke="#63b8ff" points="679.44,-148.03 669.02,-149.98 678.38,-154.95 679.44,-148.03"/>
</a>
</g>
</g>
<!-- Node55&#45;&gt;Node8 -->
<g id="edge44_Node000055_Node000008" class="edge">
<title>Node55&#45;&gt;Node8</title>
<g id="a_edge44_Node000055_Node000008"><a xlink:title=" ">
<path fill="none" stroke="#63b8ff" d="M132.11,-380.29C147.22,-378.14 163.75,-375.89 179,-374 318.52,-356.72 481.8,-340.17 574.55,-331.12"/>
<polygon fill="#63b8ff" stroke="#63b8ff" points="575.07,-334.59 584.68,-330.13 574.39,-327.62 575.07,-334.59"/>
</a>
</g>
</g>
<!-- Node55&#45;&gt;Node9 -->
<g id="edge41_Node000055_Node000009" class="edge">
<title>Node55&#45;&gt;Node9</title>
<g id="a_edge41_Node000055_Node000009"><a xlink:title=" ">
<path fill="none" stroke="#63b8ff" d="M93.65,-373.91C130.83,-336.48 238.62,-234.18 350,-187 415.75,-159.15 497.57,-148.69 552.97,-144.78"/>
<polygon fill="#63b8ff" stroke="#63b8ff" points="553.25,-148.27 563,-144.13 552.79,-141.29 553.25,-148.27"/>
</a>
</g>
</g>
<!-- Node56 -->
<g id="Node000056" class="node">
<title>Node56</title>
<g id="a_Node000056"><a xlink:href="phase__change_8h.html" target="_top" xlink:title=" ">
<polygon fill="white" stroke="#666666" points="314.5,-332.5 195.5,-332.5 195.5,-313.5 314.5,-313.5 314.5,-332.5"/>
<text text-anchor="middle" x="255" y="-320.5" font-family="Helvetica,sans-Serif" font-size="10.00">core/phase_change.h</text>
</a>
</g>
</g>
<!-- Node55&#45;&gt;Node56 -->
<g id="edge42_Node000055_Node000056" class="edge">
<title>Node55&#45;&gt;Node56</title>
<g id="a_edge42_Node000055_Node000056"><a xlink:title=" ">
<path fill="none" stroke="#63b8ff" d="M118.4,-373.95C149.5,-362.58 192.83,-346.74 222.29,-335.96"/>
<polygon fill="#63b8ff" stroke="#63b8ff" points="223.52,-339.24 231.71,-332.52 221.12,-332.66 223.52,-339.24"/>
</a>
</g>
</g>
<!-- Node56&#45;&gt;Node9 -->
<g id="edge43_Node000056_Node000009" class="edge">
<title>Node56&#45;&gt;Node9</title>
<g id="a_edge43_Node000056_Node000009"><a xlink:title=" ">
<path fill="none" stroke="#63b8ff" d="M261.29,-313.35C279.44,-289.06 334.67,-219.89 398,-187 446.28,-161.92 507.43,-150.97 552.66,-146.19"/>
<polygon fill="#63b8ff" stroke="#63b8ff" points="553.03,-149.67 562.64,-145.21 552.35,-142.71 553.03,-149.67"/>
</a>
</g>
</g>
<!-- Node57&#45;&gt;Node53 -->
<g id="edge46_Node000057_Node000053" class="edge">
<title>Node57&#45;&gt;Node53</title>
<g id="a_edge46_Node000057_Node000053"><a xlink:title=" ">
<path fill="none" stroke="#63b8ff" d="M398.09,-445.66C413.35,-443.66 429.77,-441.62 445,-440 637.73,-419.44 689.92,-429.76 886.15,-404.01"/>
<polygon fill="#63b8ff" stroke="#63b8ff" points="886.76,-407.46 896.21,-402.68 885.84,-400.52 886.76,-407.46"/>
</a>
</g>
</g>
<!-- Node57&#45;&gt;Node56 -->
<g id="edge47_Node000057_Node000056" class="edge">
<title>Node57&#45;&gt;Node56</title>
<g id="a_edge47_Node000057_Node000056"><a xlink:title=" ">
<path fill="none" stroke="#63b8ff" d="M279.96,-452.11C244.54,-447.55 202.01,-435.3 179,-404 171.1,-393.26 172.67,-385.74 179,-374 188.15,-357.03 205.85,-344.88 221.86,-336.81"/>
<polygon fill="#63b8ff" stroke="#63b8ff" points="223.45,-339.93 231.02,-332.52 220.48,-333.59 223.45,-339.93"/>
</a>
</g>
</g>
<!-- Node58&#45;&gt;Node8 -->
<g id="edge51_Node000058_Node000008" class="edge">
<title>Node58&#45;&gt;Node8</title>
<g id="a_edge51_Node000058_Node000008"><a xlink:title=" ">
<path fill="none" stroke="#63b8ff" d="M464.01,-373.95C500.28,-364.16 548.85,-351.05 587.11,-340.71"/>
<polygon fill="#63b8ff" stroke="#63b8ff" points="588.37,-344 597.11,-338.01 586.54,-337.24 588.37,-344"/>
</a>
</g>
</g>
<!-- Node58&#45;&gt;Node9 -->
<g id="edge49_Node000058_Node000009" class="edge">
<title>Node58&#45;&gt;Node9</title>
<g id="a_edge49_Node000058_Node000009"><a xlink:title=" ">
<path fill="none" stroke="#63b8ff" d="M410.91,-373.84C408.95,-337.53 409.01,-240.25 460,-187 483.9,-162.04 520.74,-150.78 552.61,-145.83"/>
<polygon fill="#63b8ff" stroke="#63b8ff" points="553.33,-149.26 562.76,-144.43 552.38,-142.33 553.33,-149.26"/>
</a>
</g>
</g>
<!-- Node58&#45;&gt;Node56 -->
<g id="edge50_Node000058_Node000056" class="edge">
<title>Node58&#45;&gt;Node56</title>
<g id="a_edge50_Node000058_Node000056"><a xlink:title=" ">
<path fill="none" stroke="#63b8ff" d="M377.55,-373.95C350.01,-362.73 311.79,-347.15 285.39,-336.39"/>
<polygon fill="#63b8ff" stroke="#63b8ff" points="286.48,-333.05 275.89,-332.52 283.83,-339.53 286.48,-333.05"/>
</a>
</g>
</g>
<!-- Node59&#45;&gt;Node8 -->
<g id="edge54_Node000059_Node000008" class="edge">
<title>Node59&#45;&gt;Node8</title>
<g id="a_edge54_Node000059_Node000008"><a xlink:title=" ">
<path fill="none" stroke="#63b8ff" d="M322.12,-375.54C325.12,-375.01 328.09,-374.5 331,-374 414.41,-359.76 510.38,-344.88 574.89,-335.09"/>
<polygon fill="#63b8ff" stroke="#63b8ff" points="575.6,-338.52 584.97,-333.56 574.55,-331.6 575.6,-338.52"/>
</a>
</g>
</g>
<!-- Node59&#45;&gt;Node56 -->
<g id="edge53_Node000059_Node000056" class="edge">
<title>Node59&#45;&gt;Node56</title>
<g id="a_edge53_Node000059_Node000056"><a xlink:title=" ">
<path fill="none" stroke="#63b8ff" d="M255,-373.8C255,-364.7 255,-352.79 255,-342.9"/>
<polygon fill="#63b8ff" stroke="#63b8ff" points="258.5,-342.84 255,-332.84 251.5,-342.84 258.5,-342.84"/>
</a>
</g>
</g>
<!-- Node60&#45;&gt;Node8 -->
<g id="edge56_Node000060_Node000008" class="edge">
<title>Node60&#45;&gt;Node8</title>
<g id="a_edge56_Node000060_Node000008"><a xlink:title=" ">
<path fill="none" stroke="#63b8ff" d="M612.75,-439.95C596.01,-432.15 578.6,-420.59 569,-404 562.32,-392.46 562.54,-385.66 569,-374 576.35,-360.73 588.86,-350.52 601.83,-342.89"/>
<polygon fill="#63b8ff" stroke="#63b8ff" points="603.7,-345.85 610.82,-338.01 600.36,-339.7 603.7,-345.85"/>
</a>
</g>
</g>
<!-- Node61&#45;&gt;Node8 -->
<g id="edge58_Node000061_Node000008" class="edge">
<title>Node61&#45;&gt;Node8</title>
<g id="a_edge58_Node000061_Node000008"><a xlink:title=" ">
<path fill="none" stroke="#63b8ff" d="M1081.4,-439.69C1074.63,-421.18 1060.13,-389.48 1036,-374 985.68,-341.72 820.78,-330.18 723.22,-326.13"/>
<polygon fill="#63b8ff" stroke="#63b8ff" points="723.26,-322.63 713.12,-325.73 722.98,-329.62 723.26,-322.63"/>
</a>
</g>
</g>
<!-- Node62 -->
<g id="Node000062" class="node">
<title>Node62</title>
<g id="a_Node000062"><a xlink:title=" ">
<polygon fill="#e0e0e0" stroke="#999999" points="1148,-398.5 1084,-398.5 1084,-379.5 1148,-379.5 1148,-398.5"/>
<text text-anchor="middle" x="1116" y="-386.5" font-family="Helvetica,sans-Serif" font-size="10.00">algorithm</text>
</a>
</g>
</g>
<!-- Node61&#45;&gt;Node62 -->
<g id="edge59_Node000061_Node000062" class="edge">
<title>Node61&#45;&gt;Node62</title>
<g id="a_edge59_Node000061_Node000062"><a xlink:title=" ">
<path fill="none" stroke="#63b8ff" d="M1092.66,-439.8C1097.06,-430.41 1102.87,-418.02 1107.59,-407.95"/>
<polygon fill="#63b8ff" stroke="#63b8ff" points="1110.78,-409.38 1111.85,-398.84 1104.44,-406.41 1110.78,-409.38"/>
</a>
</g>
</g>
<!-- Node63 -->
<g id="Node000063" class="node">
<title>Node63</title>
<g id="a_Node000063"><a xlink:title=" ">
<polygon fill="#e0e0e0" stroke="#999999" points="1213.5,-398.5 1166.5,-398.5 1166.5,-379.5 1213.5,-379.5 1213.5,-398.5"/>
<text text-anchor="middle" x="1190" y="-386.5" font-family="Helvetica,sans-Serif" font-size="10.00">cmath</text>
</a>
</g>
</g>
<!-- Node61&#45;&gt;Node63 -->
<g id="edge60_Node000061_Node000063" class="edge">
<title>Node61&#45;&gt;Node63</title>
<g id="a_edge60_Node000061_Node000063"><a xlink:title=" ">
<path fill="none" stroke="#63b8ff" d="M1108.82,-439.95C1126.18,-429.27 1149.94,-414.65 1167.27,-403.98"/>
<polygon fill="#63b8ff" stroke="#63b8ff" points="1169.48,-406.74 1176.16,-398.52 1165.81,-400.78 1169.48,-406.74"/>
</a>
</g>
</g>
</g>
</svg>
