<?xml version="1.0" encoding="UTF-8" standalone="no"?>
<!DOCTYPE svg PUBLIC "-//W3C//DTD SVG 1.1//EN"
 "http://www.w3.org/Graphics/SVG/1.1/DTD/svg11.dtd">
<!-- Generated by graphviz version 2.43.0 (0)
 -->
<!-- Title: /home/runner/work/lethe/lethe/include/solvers/tracer_scratch_data.h Pages: 1 -->
<svg width="541pt" height="280pt"
 viewBox="0.00 0.00 540.50 280.00" xmlns="http://www.w3.org/2000/svg" xmlns:xlink="http://www.w3.org/1999/xlink">
<g id="graph0" class="graph" transform="scale(1 1) rotate(0) translate(4 276)">
<title>/home/runner/work/lethe/lethe/include/solvers/tracer_scratch_data.h</title>
<!-- Node1 -->
<g id="Node000001" class="node">
<title>Node1</title>
<g id="a_Node000001"><a xlink:title=" ">
<polygon fill="#999999" stroke="#666666" points="328.5,-272 191.5,-272 191.5,-231 328.5,-231 328.5,-272"/>
<text text-anchor="start" x="199.5" y="-260" font-family="Helvetica,sans-Serif" font-size="10.00">/home/runner/work/lethe</text>
<text text-anchor="start" x="199.5" y="-249" font-family="Helvetica,sans-Serif" font-size="10.00">/lethe/include/solvers</text>
<text text-anchor="middle" x="260" y="-238" font-family="Helvetica,sans-Serif" font-size="10.00">/tracer_scratch_data.h</text>
</a>
</g>
</g>
<!-- Node2 -->
<g id="Node000002" class="node">
<title>Node2</title>
<g id="a_Node000002"><a xlink:href="tracer_8h.html" target="_top" xlink:title=" ">
<polygon fill="white" stroke="#666666" points="183.5,-118 46.5,-118 46.5,-77 183.5,-77 183.5,-118"/>
<text text-anchor="start" x="54.5" y="-106" font-family="Helvetica,sans-Serif" font-size="10.00">/home/runner/work/lethe</text>
<text text-anchor="start" x="54.5" y="-95" font-family="Helvetica,sans-Serif" font-size="10.00">/lethe/include/solvers</text>
<text text-anchor="middle" x="115" y="-84" font-family="Helvetica,sans-Serif" font-size="10.00">/tracer.h</text>
</a>
</g>
</g>
<!-- Node1&#45;&gt;Node2 -->
<g id="edge1_Node000001_Node000002" class="edge">
<title>Node1&#45;&gt;Node2</title>
<g id="a_edge1_Node000001_Node000002"><a xlink:title=" ">
<path fill="none" stroke="#63b8ff" d="M229.13,-224.28C218.95,-215.27 207.75,-204.95 198,-195 173.09,-169.59 146.69,-137.98 130.52,-118.01"/>
<polygon fill="#63b8ff" stroke="#63b8ff" points="226.84,-226.93 236.67,-230.89 231.45,-221.67 226.84,-226.93"/>
</a>
</g>
</g>
<!-- Node4 -->
<g id="Node000004" class="node">
<title>Node4</title>
<g id="a_Node000004"><a xlink:href="tracer_8cc.html" target="_top" xlink:title=" ">
<polygon fill="white" stroke="#666666" points="299.5,-41 162.5,-41 162.5,0 299.5,0 299.5,-41"/>
<text text-anchor="start" x="170.5" y="-29" font-family="Helvetica,sans-Serif" font-size="10.00">/home/runner/work/lethe</text>
<text text-anchor="start" x="170.5" y="-18" font-family="Helvetica,sans-Serif" font-size="10.00">/lethe/source/solvers</text>
<text text-anchor="middle" x="231" y="-7" font-family="Helvetica,sans-Serif" font-size="10.00">/tracer.cc</text>
</a>
</g>
</g>
<!-- Node1&#45;&gt;Node4 -->
<g id="edge8_Node000001_Node000004" class="edge">
<title>Node1&#45;&gt;Node4</title>
<g id="a_edge8_Node000001_Node000004"><a xlink:title=" ">
<path fill="none" stroke="#63b8ff" d="M241.75,-221.94C237.34,-213.58 233.26,-204.21 231,-195 217.64,-140.59 223.69,-73.65 228,-41.12"/>
<polygon fill="#63b8ff" stroke="#63b8ff" points="238.82,-223.88 246.78,-230.88 244.93,-220.45 238.82,-223.88"/>
</a>
</g>
</g>
<!-- Node5 -->
<g id="Node000005" class="node">
<title>Node5</title>
<g id="a_Node000005"><a xlink:href="tracer__assemblers_8h.html" target="_top" xlink:title=" ">
<polygon fill="white" stroke="#666666" points="377.5,-195 240.5,-195 240.5,-154 377.5,-154 377.5,-195"/>
<text text-anchor="start" x="248.5" y="-183" font-family="Helvetica,sans-Serif" font-size="10.00">/home/runner/work/lethe</text>
<text text-anchor="start" x="248.5" y="-172" font-family="Helvetica,sans-Serif" font-size="10.00">/lethe/include/solvers</text>
<text text-anchor="middle" x="309" y="-161" font-family="Helvetica,sans-Serif" font-size="10.00">/tracer_assemblers.h</text>
</a>
</g>
</g>
<!-- Node1&#45;&gt;Node5 -->
<g id="edge4_Node000001_Node000005" class="edge">
<title>Node1&#45;&gt;Node5</title>
<g id="a_edge4_Node000001_Node000005"><a xlink:title=" ">
<path fill="none" stroke="#63b8ff" d="M278.36,-222.39C284.31,-213.3 290.76,-203.41 296.21,-195.07"/>
<polygon fill="#63b8ff" stroke="#63b8ff" points="275.41,-220.51 272.87,-230.79 281.27,-224.34 275.41,-220.51"/>
</a>
</g>
</g>
<!-- Node7 -->
<g id="Node000007" class="node">
<title>Node7</title>
<g id="a_Node000007"><a xlink:href="tracer__scratch__data_8cc.html" target="_top" xlink:title=" ">
<polygon fill="white" stroke="#666666" points="532.5,-195 395.5,-195 395.5,-154 532.5,-154 532.5,-195"/>
<text text-anchor="start" x="403.5" y="-183" font-family="Helvetica,sans-Serif" font-size="10.00">/home/runner/work/lethe</text>
<text text-anchor="start" x="403.5" y="-172" font-family="Helvetica,sans-Serif" font-size="10.00">/lethe/source/solvers</text>
<text text-anchor="middle" x="464" y="-161" font-family="Helvetica,sans-Serif" font-size="10.00">/tracer_scratch_data.cc</text>
</a>
</g>
</g>
<!-- Node1&#45;&gt;Node7 -->
<g id="edge9_Node000001_Node000007" class="edge">
<title>Node1&#45;&gt;Node7</title>
<g id="a_edge9_Node000001_Node000007"><a xlink:title=" ">
<path fill="none" stroke="#63b8ff" d="M322.45,-227.54C350.72,-217.15 383.79,-204.99 410.85,-195.04"/>
<polygon fill="#63b8ff" stroke="#63b8ff" points="321.24,-224.25 313.07,-230.99 323.66,-230.82 321.24,-224.25"/>
</a>
</g>
</g>
<!-- Node3 -->
<g id="Node000003" class="node">
<title>Node3</title>
<g id="a_Node000003"><a xlink:href="multiphysics__interface_8cc.html" target="_top" xlink:title=" ">
<polygon fill="white" stroke="#666666" points="144,-41 0,-41 0,0 144,0 144,-41"/>
<text text-anchor="start" x="8" y="-29" font-family="Helvetica,sans-Serif" font-size="10.00">/home/runner/work/lethe</text>
<text text-anchor="start" x="8" y="-18" font-family="Helvetica,sans-Serif" font-size="10.00">/lethe/source/solvers</text>
<text text-anchor="middle" x="72" y="-7" font-family="Helvetica,sans-Serif" font-size="10.00">/multiphysics_interface.cc</text>
</a>
</g>
</g>
<!-- Node2&#45;&gt;Node3 -->
<g id="edge2_Node000002_Node000003" class="edge">
<title>Node2&#45;&gt;Node3</title>
<g id="a_edge2_Node000002_Node000003"><a xlink:title=" ">
<path fill="none" stroke="#63b8ff" d="M98.72,-68.11C93.55,-59.09 87.95,-49.33 83.22,-41.07"/>
<polygon fill="#63b8ff" stroke="#63b8ff" points="95.69,-69.86 103.7,-76.79 101.76,-66.38 95.69,-69.86"/>
</a>
</g>
</g>
<!-- Node2&#45;&gt;Node4 -->
<g id="edge3_Node000002_Node000004" class="edge">
<title>Node2&#45;&gt;Node4</title>
<g id="a_edge3_Node000002_Node000004"><a xlink:title=" ">
<path fill="none" stroke="#63b8ff" d="M153.87,-71.37C169.09,-61.53 186.29,-50.41 200.57,-41.17"/>
<polygon fill="#63b8ff" stroke="#63b8ff" points="151.67,-68.62 145.17,-76.99 155.47,-74.5 151.67,-68.62"/>
</a>
</g>
</g>
<!-- Node5&#45;&gt;Node2 -->
<g id="edge5_Node000005_Node000002" class="edge">
<title>Node5&#45;&gt;Node2</title>
<g id="a_edge5_Node000005_Node000002"><a xlink:title=" ">
<path fill="none" stroke="#63b8ff" d="M248.91,-150.27C222.18,-139.94 191.06,-127.9 165.55,-118.04"/>
<polygon fill="#63b8ff" stroke="#63b8ff" points="247.95,-153.65 258.54,-153.99 250.47,-147.12 247.95,-153.65"/>
</a>
</g>
</g>
<!-- Node5&#45;&gt;Node4 -->
<g id="edge6_Node000005_Node000004" class="edge">
<title>Node5&#45;&gt;Node4</title>
<g id="a_edge6_Node000005_Node000004"><a xlink:title=" ">
<path fill="none" stroke="#63b8ff" d="M286.97,-145.8C280.7,-137.19 274.17,-127.46 269,-118 255.19,-92.72 243.8,-61.34 237.2,-41.37"/>
<polygon fill="#63b8ff" stroke="#63b8ff" points="284.31,-148.09 293.11,-154 289.92,-143.9 284.31,-148.09"/>
</a>
</g>
</g>
<!-- Node6 -->
<g id="Node000006" class="node">
<title>Node6</title>
<g id="a_Node000006"><a xlink:href="tracer__assemblers_8cc.html" target="_top" xlink:title=" ">
<polygon fill="white" stroke="#666666" points="415.5,-118 278.5,-118 278.5,-77 415.5,-77 415.5,-118"/>
<text text-anchor="start" x="286.5" y="-106" font-family="Helvetica,sans-Serif" font-size="10.00">/home/runner/work/lethe</text>
<text text-anchor="start" x="286.5" y="-95" font-family="Helvetica,sans-Serif" font-size="10.00">/lethe/source/solvers</text>
<text text-anchor="middle" x="347" y="-84" font-family="Helvetica,sans-Serif" font-size="10.00">/tracer_assemblers.cc</text>
</a>
</g>
</g>
<!-- Node5&#45;&gt;Node6 -->
<g id="edge7_Node000005_Node000006" class="edge">
<title>Node5&#45;&gt;Node6</title>
<g id="a_edge7_Node000005_Node000006"><a xlink:title=" ">
<path fill="none" stroke="#63b8ff" d="M323.53,-144.83C328.06,-135.89 332.95,-126.24 337.08,-118.07"/>
<polygon fill="#63b8ff" stroke="#63b8ff" points="320.38,-143.29 318.98,-153.79 326.63,-146.46 320.38,-143.29"/>
</a>
</g>
</g>
</g>
</svg>
