<?xml version="1.0" encoding="UTF-8" standalone="no"?>
<!DOCTYPE svg PUBLIC "-//W3C//DTD SVG 1.1//EN"
 "http://www.w3.org/Graphics/SVG/1.1/DTD/svg11.dtd">
<!-- Generated by graphviz version 2.43.0 (0)
 -->
<!-- Title: /home/runner/work/lethe/lethe/source/core/tracer_diffusivity_model.cc Pages: 1 -->
<svg width="855pt" height="610pt"
 viewBox="0.00 0.00 855.06 610.00" xmlns="http://www.w3.org/2000/svg" xmlns:xlink="http://www.w3.org/1999/xlink">
<g id="graph0" class="graph" transform="scale(1 1) rotate(0) translate(4 606)">
<title>/home/runner/work/lethe/lethe/source/core/tracer_diffusivity_model.cc</title>
<!-- Node1 -->
<g id="Node000001" class="node">
<title>Node1</title>
<g id="a_Node000001"><a xlink:title=" ">
<polygon fill="#999999" stroke="#666666" points="535.5,-602 398.5,-602 398.5,-561 535.5,-561 535.5,-602"/>
<text text-anchor="start" x="406.5" y="-590" font-family="Helvetica,sans-Serif" font-size="10.00">/home/runner/work/lethe</text>
<text text-anchor="start" x="406.5" y="-579" font-family="Helvetica,sans-Serif" font-size="10.00">/lethe/source/core/tracer</text>
<text text-anchor="middle" x="467" y="-568" font-family="Helvetica,sans-Serif" font-size="10.00">_diffusivity_model.cc</text>
</a>
</g>
</g>
<!-- Node2 -->
<g id="Node000002" class="node">
<title>Node2</title>
<g id="a_Node000002"><a xlink:href="tracer__diffusivity__model_8h.html" target="_top" xlink:title=" ">
<polygon fill="white" stroke="#666666" points="528.5,-525 405.5,-525 405.5,-495 528.5,-495 528.5,-525"/>
<text text-anchor="start" x="413.5" y="-513" font-family="Helvetica,sans-Serif" font-size="10.00">core/tracer_diffusivity</text>
<text text-anchor="middle" x="467" y="-502" font-family="Helvetica,sans-Serif" font-size="10.00">_model.h</text>
</a>
</g>
</g>
<!-- Node1&#45;&gt;Node2 -->
<g id="edge1_Node000001_Node000002" class="edge">
<title>Node1&#45;&gt;Node2</title>
<g id="a_edge1_Node000001_Node000002"><a xlink:title=" ">
<path fill="none" stroke="#63b8ff" d="M467,-560.77C467,-552.85 467,-543.63 467,-535.3"/>
<polygon fill="#63b8ff" stroke="#63b8ff" points="470.5,-535.04 467,-525.04 463.5,-535.04 470.5,-535.04"/>
</a>
</g>
</g>
<!-- Node3 -->
<g id="Node000003" class="node">
<title>Node3</title>
<g id="a_Node000003"><a xlink:href="physical__property__model_8h.html" target="_top" xlink:title=" ">
<polygon fill="white" stroke="#666666" points="531,-459 403,-459 403,-429 531,-429 531,-459"/>
<text text-anchor="start" x="411" y="-447" font-family="Helvetica,sans-Serif" font-size="10.00">core/physical_property</text>
<text text-anchor="middle" x="467" y="-436" font-family="Helvetica,sans-Serif" font-size="10.00">_model.h</text>
</a>
</g>
</g>
<!-- Node2&#45;&gt;Node3 -->
<g id="edge2_Node000002_Node000003" class="edge">
<title>Node2&#45;&gt;Node3</title>
<g id="a_edge2_Node000002_Node000003"><a xlink:title=" ">
<path fill="none" stroke="#63b8ff" d="M467,-494.8C467,-487.34 467,-477.99 467,-469.41"/>
<polygon fill="#63b8ff" stroke="#63b8ff" points="470.5,-469.16 467,-459.16 463.5,-469.16 470.5,-469.16"/>
</a>
</g>
</g>
<!-- Node4 -->
<g id="Node000004" class="node">
<title>Node4</title>
<g id="a_Node000004"><a xlink:href="parameters_8h.html" target="_top" xlink:title=" ">
<polygon fill="white" stroke="#666666" points="552,-272 446,-272 446,-253 552,-253 552,-272"/>
<text text-anchor="middle" x="499" y="-260" font-family="Helvetica,sans-Serif" font-size="10.00">core/parameters.h</text>
</a>
</g>
</g>
<!-- Node3&#45;&gt;Node4 -->
<g id="edge3_Node000003_Node000004" class="edge">
<title>Node3&#45;&gt;Node4</title>
<g id="a_edge3_Node000003_Node000004"><a xlink:title=" ">
<path fill="none" stroke="#63b8ff" d="M481.3,-428.97C499.3,-410.2 529.27,-374.99 541,-338 545.03,-325.29 545.92,-320.39 541,-308 536.48,-296.63 527.53,-286.48 519.04,-278.76"/>
<polygon fill="#63b8ff" stroke="#63b8ff" points="521.11,-275.92 511.21,-272.14 516.59,-281.27 521.11,-275.92"/>
</a>
</g>
</g>
<!-- Node43 -->
<g id="Node000043" class="node">
<title>Node43</title>
<g id="a_Node000043"><a xlink:href="simulation__control_8h.html" target="_top" xlink:title="Simulation control classes for managing time&#45;stepping and iteration control in Lethe.">
<polygon fill="white" stroke="#666666" points="488,-393 348,-393 348,-374 488,-374 488,-393"/>
<text text-anchor="middle" x="418" y="-381" font-family="Helvetica,sans-Serif" font-size="10.00">core/simulation_control.h</text>
</a>
</g>
</g>
<!-- Node3&#45;&gt;Node43 -->
<g id="edge22_Node000003_Node000043" class="edge">
<title>Node3&#45;&gt;Node43</title>
<g id="a_edge22_Node000003_Node000043"><a xlink:title=" ">
<path fill="none" stroke="#63b8ff" d="M455.14,-428.84C448.1,-420.43 439.14,-409.74 431.79,-400.96"/>
<polygon fill="#63b8ff" stroke="#63b8ff" points="434.45,-398.68 425.34,-393.27 429.08,-403.18 434.45,-398.68"/>
</a>
</g>
</g>
<!-- Node5 -->
<g id="Node000005" class="node">
<title>Node5</title>
<g id="a_Node000005"><a xlink:href="dimensionality_8h.html" target="_top" xlink:title=" ">
<polygon fill="white" stroke="#666666" points="816.5,-85 695.5,-85 695.5,-66 816.5,-66 816.5,-85"/>
<text text-anchor="middle" x="756" y="-73" font-family="Helvetica,sans-Serif" font-size="10.00">core/dimensionality.h</text>
</a>
</g>
</g>
<!-- Node4&#45;&gt;Node5 -->
<g id="edge4_Node000004_Node000005" class="edge">
<title>Node4&#45;&gt;Node5</title>
<g id="a_edge4_Node000004_Node000005"><a xlink:title=" ">
<path fill="none" stroke="#63b8ff" d="M552.11,-261.24C627.1,-259.61 758.21,-251.73 788,-217 818.44,-181.52 787.39,-122.97 768.4,-93.94"/>
<polygon fill="#63b8ff" stroke="#63b8ff" points="771.04,-91.6 762.53,-85.3 765.25,-95.54 771.04,-91.6"/>
</a>
</g>
</g>
<!-- Node6 -->
<g id="Node000006" class="node">
<title>Node6</title>
<g id="a_Node000006"><a xlink:title=" ">
<polygon fill="#e0e0e0" stroke="#999999" points="819.5,-30 692.5,-30 692.5,0 819.5,0 819.5,-30"/>
<text text-anchor="start" x="700.5" y="-18" font-family="Helvetica,sans-Serif" font-size="10.00">deal.II/base/parameter</text>
<text text-anchor="middle" x="756" y="-7" font-family="Helvetica,sans-Serif" font-size="10.00">_handler.h</text>
</a>
</g>
</g>
<!-- Node4&#45;&gt;Node6 -->
<g id="edge19_Node000004_Node000006" class="edge">
<title>Node4&#45;&gt;Node6</title>
<g id="a_edge19_Node000004_Node000006"><a xlink:title=" ">
<path fill="none" stroke="#63b8ff" d="M552.17,-261.28C630.96,-259.77 773.16,-252.1 808,-217 855.61,-169.03 856.93,-126.1 826,-66 819.46,-53.28 808.01,-43.09 796.25,-35.3"/>
<polygon fill="#63b8ff" stroke="#63b8ff" points="798.05,-32.3 787.7,-30.06 794.39,-38.27 798.05,-32.3"/>
</a>
</g>
</g>
<!-- Node7 -->
<g id="Node000007" class="node">
<title>Node7</title>
<g id="a_Node000007"><a xlink:href="ib__particle_8h.html" target="_top" xlink:title=" ">
<polygon fill="white" stroke="#666666" points="290.5,-211.5 189.5,-211.5 189.5,-192.5 290.5,-192.5 290.5,-211.5"/>
<text text-anchor="middle" x="240" y="-199.5" font-family="Helvetica,sans-Serif" font-size="10.00">core/ib_particle.h</text>
</a>
</g>
</g>
<!-- Node4&#45;&gt;Node7 -->
<g id="edge6_Node000004_Node000007" class="edge">
<title>Node4&#45;&gt;Node7</title>
<g id="a_edge6_Node000004_Node000007"><a xlink:title=" ">
<path fill="none" stroke="#63b8ff" d="M461.34,-252.99C415.4,-242.62 337.69,-225.07 287.64,-213.76"/>
<polygon fill="#63b8ff" stroke="#63b8ff" points="288.23,-210.31 277.71,-211.52 286.69,-217.13 288.23,-210.31"/>
</a>
</g>
</g>
<!-- Node15 -->
<g id="Node000015" class="node">
<title>Node15</title>
<g id="a_Node000015"><a xlink:href="utilities_8h.html" target="_top" xlink:title=" ">
<polygon fill="#fff0f0" stroke="red" points="334,-85 248,-85 248,-66 334,-66 334,-85"/>
<text text-anchor="middle" x="291" y="-73" font-family="Helvetica,sans-Serif" font-size="10.00">core/utilities.h</text>
</a>
</g>
</g>
<!-- Node4&#45;&gt;Node15 -->
<g id="edge18_Node000004_Node000015" class="edge">
<title>Node4&#45;&gt;Node15</title>
<g id="a_edge18_Node000004_Node000015"><a xlink:title=" ">
<path fill="none" stroke="#63b8ff" d="M493.88,-252.88C488.81,-244.09 481.1,-229.94 476,-217 459.74,-175.77 480.33,-152.35 449,-121 421.61,-93.6 378.76,-82.75 344.59,-78.6"/>
<polygon fill="#63b8ff" stroke="#63b8ff" points="344.6,-75.09 334.29,-77.52 343.87,-82.05 344.6,-75.09"/>
</a>
</g>
</g>
<!-- Node40 -->
<g id="Node000040" class="node">
<title>Node40</title>
<g id="a_Node000040"><a xlink:title=" ">
<polygon fill="#e0e0e0" stroke="#999999" points="440.5,-151 331.5,-151 331.5,-121 440.5,-121 440.5,-151"/>
<text text-anchor="start" x="339.5" y="-139" font-family="Helvetica,sans-Serif" font-size="10.00">deal.II/base/parsed</text>
<text text-anchor="middle" x="386" y="-128" font-family="Helvetica,sans-Serif" font-size="10.00">_function.h</text>
</a>
</g>
</g>
<!-- Node4&#45;&gt;Node40 -->
<g id="edge20_Node000004_Node000040" class="edge">
<title>Node4&#45;&gt;Node40</title>
<g id="a_edge20_Node000004_Node000040"><a xlink:title=" ">
<path fill="none" stroke="#63b8ff" d="M486.15,-252.87C474.21,-244.5 456.33,-231.05 443,-217 426.26,-199.36 410.49,-176.55 399.79,-159.8"/>
<polygon fill="#63b8ff" stroke="#63b8ff" points="402.68,-157.81 394.4,-151.19 396.74,-161.53 402.68,-157.81"/>
</a>
</g>
</g>
<!-- Node41 -->
<g id="Node000041" class="node">
<title>Node41</title>
<g id="a_Node000041"><a xlink:href="multiphysics_8h.html" target="_top" xlink:title="Identifiers for multiphysics modules and their solution fields.">
<polygon fill="white" stroke="#666666" points="597,-211.5 485,-211.5 485,-192.5 597,-192.5 597,-211.5"/>
<text text-anchor="middle" x="541" y="-199.5" font-family="Helvetica,sans-Serif" font-size="10.00">core/multiphysics.h</text>
</a>
</g>
</g>
<!-- Node4&#45;&gt;Node41 -->
<g id="edge17_Node000004_Node000041" class="edge">
<title>Node4&#45;&gt;Node41</title>
<g id="a_edge17_Node000004_Node000041"><a xlink:title=" ">
<path fill="none" stroke="#63b8ff" d="M505.2,-252.87C511.4,-244.23 521.11,-230.7 528.86,-219.92"/>
<polygon fill="#63b8ff" stroke="#63b8ff" points="531.79,-221.83 534.78,-211.67 526.1,-217.75 531.79,-221.83"/>
</a>
</g>
</g>
<!-- Node42 -->
<g id="Node000042" class="node">
<title>Node42</title>
<g id="a_Node000042"><a xlink:title=" ">
<polygon fill="#e0e0e0" stroke="#999999" points="778.5,-217 615.5,-217 615.5,-187 778.5,-187 778.5,-217"/>
<text text-anchor="start" x="623.5" y="-205" font-family="Helvetica,sans-Serif" font-size="10.00">deal.II/multigrid/mg</text>
<text text-anchor="middle" x="697" y="-194" font-family="Helvetica,sans-Serif" font-size="10.00">_transfer_global_coarsening.h</text>
</a>
</g>
</g>
<!-- Node4&#45;&gt;Node42 -->
<g id="edge21_Node000004_Node000042" class="edge">
<title>Node4&#45;&gt;Node42</title>
<g id="a_edge21_Node000004_Node000042"><a xlink:title=" ">
<path fill="none" stroke="#63b8ff" d="M527.79,-252.99C557.03,-244.35 603.11,-230.74 639.8,-219.9"/>
<polygon fill="#63b8ff" stroke="#63b8ff" points="640.8,-223.25 649.4,-217.06 638.82,-216.54 640.8,-223.25"/>
</a>
</g>
</g>
<!-- Node5&#45;&gt;Node6 -->
<g id="edge5_Node000005_Node000006" class="edge">
<title>Node5&#45;&gt;Node6</title>
<g id="a_edge5_Node000005_Node000006"><a xlink:title=" ">
<path fill="none" stroke="#63b8ff" d="M756,-65.87C756,-59.11 756,-49.35 756,-40.26"/>
<polygon fill="#63b8ff" stroke="#63b8ff" points="759.5,-40.11 756,-30.11 752.5,-40.11 759.5,-40.11"/>
</a>
</g>
</g>
<!-- Node8 -->
<g id="Node000008" class="node">
<title>Node8</title>
<g id="a_Node000008"><a xlink:href="dem__properties_8h.html" target="_top" xlink:title="DEM particle property definitions and output name management.">
<polygon fill="#fff0f0" stroke="red" points="192,-85 66,-85 66,-66 192,-66 192,-85"/>
<text text-anchor="middle" x="129" y="-73" font-family="Helvetica,sans-Serif" font-size="10.00">core/dem_properties.h</text>
</a>
</g>
</g>
<!-- Node7&#45;&gt;Node8 -->
<g id="edge7_Node000007_Node000008" class="edge">
<title>Node7&#45;&gt;Node8</title>
<g id="a_edge7_Node000007_Node000008"><a xlink:title=" ">
<path fill="none" stroke="#63b8ff" d="M231.33,-192.31C221.59,-182.46 205.37,-165.84 192,-151 174.56,-131.65 155.33,-108.65 142.76,-93.38"/>
<polygon fill="#63b8ff" stroke="#63b8ff" points="145.24,-90.89 136.2,-85.37 139.83,-95.32 145.24,-90.89"/>
</a>
</g>
</g>
<!-- Node10 -->
<g id="Node000010" class="node">
<title>Node10</title>
<g id="a_Node000010"><a xlink:title=" ">
<polygon fill="#e0e0e0" stroke="#999999" points="128.5,-24.5 81.5,-24.5 81.5,-5.5 128.5,-5.5 128.5,-24.5"/>
<text text-anchor="middle" x="105" y="-12.5" font-family="Helvetica,sans-Serif" font-size="10.00">vector</text>
</a>
</g>
</g>
<!-- Node7&#45;&gt;Node10 -->
<g id="edge16_Node000007_Node000010" class="edge">
<title>Node7&#45;&gt;Node10</title>
<g id="a_edge16_Node000007_Node000010"><a xlink:title=" ">
<path fill="none" stroke="#63b8ff" d="M210.89,-192.44C168.14,-178.13 89.91,-144.82 57,-85 46.12,-65.22 65.91,-44.15 83.29,-30.57"/>
<polygon fill="#63b8ff" stroke="#63b8ff" points="85.49,-33.29 91.47,-24.55 81.34,-27.66 85.49,-33.29"/>
</a>
</g>
</g>
<!-- Node11 -->
<g id="Node000011" class="node">
<title>Node11</title>
<g id="a_Node000011"><a xlink:href="shape_8h.html" target="_top" xlink:title=" ">
<polygon fill="#fff0f0" stroke="red" points="313.5,-145.5 234.5,-145.5 234.5,-126.5 313.5,-126.5 313.5,-145.5"/>
<text text-anchor="middle" x="274" y="-133.5" font-family="Helvetica,sans-Serif" font-size="10.00">core/shape.h</text>
</a>
</g>
</g>
<!-- Node7&#45;&gt;Node11 -->
<g id="edge9_Node000007_Node000011" class="edge">
<title>Node7&#45;&gt;Node11</title>
<g id="a_edge9_Node000007_Node000011"><a xlink:title=" ">
<path fill="none" stroke="#63b8ff" d="M244.59,-192.37C249.68,-182.78 258.04,-167.05 264.54,-154.8"/>
<polygon fill="#63b8ff" stroke="#63b8ff" points="267.67,-156.38 269.27,-145.91 261.49,-153.09 267.67,-156.38"/>
</a>
</g>
</g>
<!-- Node13 -->
<g id="Node000013" class="node">
<title>Node13</title>
<g id="a_Node000013"><a xlink:title=" ">
<polygon fill="#e0e0e0" stroke="#999999" points="299,-24.5 189,-24.5 189,-5.5 299,-5.5 299,-24.5"/>
<text text-anchor="middle" x="244" y="-12.5" font-family="Helvetica,sans-Serif" font-size="10.00">deal.II/base/point.h</text>
</a>
</g>
</g>
<!-- Node7&#45;&gt;Node13 -->
<g id="edge15_Node000007_Node000013" class="edge">
<title>Node7&#45;&gt;Node13</title>
<g id="a_edge15_Node000007_Node000013"><a xlink:title=" ">
<path fill="none" stroke="#63b8ff" d="M236.55,-192.32C232.84,-182.49 227.18,-165.88 225,-151 218.86,-109.2 230.52,-60.06 238.14,-34.13"/>
<polygon fill="#63b8ff" stroke="#63b8ff" points="241.5,-35.12 241.1,-24.53 234.81,-33.06 241.5,-35.12"/>
</a>
</g>
</g>
<!-- Node7&#45;&gt;Node40 -->
<g id="edge14_Node000007_Node000040" class="edge">
<title>Node7&#45;&gt;Node40</title>
<g id="a_edge14_Node000007_Node000040"><a xlink:title=" ">
<path fill="none" stroke="#63b8ff" d="M259.69,-192.37C281.27,-182.91 316.53,-167.45 344.32,-155.27"/>
<polygon fill="#63b8ff" stroke="#63b8ff" points="346.05,-158.34 353.8,-151.12 343.23,-151.92 346.05,-158.34"/>
</a>
</g>
</g>
<!-- Node8&#45;&gt;Node10 -->
<g id="edge8_Node000008_Node000010" class="edge">
<title>Node8&#45;&gt;Node10</title>
<g id="a_edge8_Node000008_Node000010"><a xlink:title=" ">
<path fill="none" stroke="#63b8ff" d="M125.46,-65.87C122.06,-57.57 116.81,-44.78 112.48,-34.22"/>
<polygon fill="#63b8ff" stroke="#63b8ff" points="115.59,-32.59 108.56,-24.67 109.11,-35.25 115.59,-32.59"/>
</a>
</g>
</g>
<!-- Node11&#45;&gt;Node15 -->
<g id="edge10_Node000011_Node000015" class="edge">
<title>Node11&#45;&gt;Node15</title>
<g id="a_edge10_Node000011_Node000015"><a xlink:title=" ">
<path fill="none" stroke="#63b8ff" d="M276.51,-126.37C278.89,-118.16 282.56,-105.54 285.61,-95.05"/>
<polygon fill="#63b8ff" stroke="#63b8ff" points="289.05,-95.75 288.48,-85.17 282.33,-93.79 289.05,-95.75"/>
</a>
</g>
</g>
<!-- Node15&#45;&gt;Node6 -->
<g id="edge11_Node000015_Node000006" class="edge">
<title>Node15&#45;&gt;Node6</title>
<g id="a_edge11_Node000015_Node000006"><a xlink:title=" ">
<path fill="none" stroke="#63b8ff" d="M334.33,-69.05C413.92,-59.04 584.21,-37.61 682.29,-25.27"/>
<polygon fill="#63b8ff" stroke="#63b8ff" points="682.94,-28.72 692.43,-24 682.07,-21.77 682.94,-28.72"/>
</a>
</g>
</g>
<!-- Node15&#45;&gt;Node10 -->
<g id="edge13_Node000015_Node000010" class="edge">
<title>Node15&#45;&gt;Node10</title>
<g id="a_edge13_Node000015_Node000010"><a xlink:title=" ">
<path fill="none" stroke="#63b8ff" d="M263.95,-65.99C230.76,-55.55 174.46,-37.85 138.54,-26.55"/>
<polygon fill="#63b8ff" stroke="#63b8ff" points="139.13,-23.07 128.54,-23.4 137.03,-29.74 139.13,-23.07"/>
</a>
</g>
</g>
<!-- Node15&#45;&gt;Node13 -->
<g id="edge12_Node000015_Node000013" class="edge">
<title>Node15&#45;&gt;Node13</title>
<g id="a_edge12_Node000015_Node000013"><a xlink:title=" ">
<path fill="none" stroke="#63b8ff" d="M284.06,-65.87C277.05,-57.14 266.04,-43.43 257.33,-32.59"/>
<polygon fill="#63b8ff" stroke="#63b8ff" points="259.96,-30.27 250.96,-24.67 254.5,-34.66 259.96,-30.27"/>
</a>
</g>
</g>
<!-- Node43&#45;&gt;Node4 -->
<g id="edge27_Node000043_Node000004" class="edge">
<title>Node43&#45;&gt;Node4</title>
<g id="a_edge27_Node000043_Node000004"><a xlink:title=" ">
<path fill="none" stroke="#63b8ff" d="M410.06,-373.59C397.99,-358.92 377.86,-329.2 392,-308 402.6,-292.11 420.05,-281.89 437.81,-275.31"/>
<polygon fill="#63b8ff" stroke="#63b8ff" points="439.29,-278.51 447.67,-272.02 437.08,-271.87 439.29,-278.51"/>
</a>
</g>
</g>
<!-- Node44 -->
<g id="Node000044" class="node">
<title>Node44</title>
<g id="a_Node000044"><a xlink:href="bdf_8h.html" target="_top" xlink:title=" ">
<polygon fill="white" stroke="#666666" points="344.5,-332.5 279.5,-332.5 279.5,-313.5 344.5,-313.5 344.5,-332.5"/>
<text text-anchor="middle" x="312" y="-320.5" font-family="Helvetica,sans-Serif" font-size="10.00">core/bdf.h</text>
</a>
</g>
</g>
<!-- Node43&#45;&gt;Node44 -->
<g id="edge23_Node000043_Node000044" class="edge">
<title>Node43&#45;&gt;Node44</title>
<g id="a_edge23_Node000043_Node000044"><a xlink:title=" ">
<path fill="none" stroke="#63b8ff" d="M402.36,-373.87C385.06,-364.32 356.95,-348.81 336.67,-337.62"/>
<polygon fill="#63b8ff" stroke="#63b8ff" points="338.15,-334.43 327.7,-332.67 334.77,-340.56 338.15,-334.43"/>
</a>
</g>
</g>
<!-- Node46 -->
<g id="Node000046" class="node">
<title>Node46</title>
<g id="a_Node000046"><a xlink:title=" ">
<polygon fill="#e0e0e0" stroke="#999999" points="532.5,-338 401.5,-338 401.5,-308 532.5,-308 532.5,-338"/>
<text text-anchor="start" x="409.5" y="-326" font-family="Helvetica,sans-Serif" font-size="10.00">deal.II/particles/particle</text>
<text text-anchor="middle" x="467" y="-315" font-family="Helvetica,sans-Serif" font-size="10.00">_handler.h</text>
</a>
</g>
</g>
<!-- Node43&#45;&gt;Node46 -->
<g id="edge28_Node000043_Node000046" class="edge">
<title>Node43&#45;&gt;Node46</title>
<g id="a_edge28_Node000043_Node000046"><a xlink:title=" ">
<path fill="none" stroke="#63b8ff" d="M425.23,-373.87C431.39,-366.52 440.5,-355.63 448.65,-345.91"/>
<polygon fill="#63b8ff" stroke="#63b8ff" points="451.44,-348.03 455.18,-338.11 446.07,-343.53 451.44,-348.03"/>
</a>
</g>
</g>
<!-- Node44&#45;&gt;Node4 -->
<g id="edge24_Node000044_Node000004" class="edge">
<title>Node44&#45;&gt;Node4</title>
<g id="a_edge24_Node000044_Node000004"><a xlink:title=" ">
<path fill="none" stroke="#63b8ff" d="M339.19,-313.49C371.6,-303.36 425.9,-286.37 462.08,-275.05"/>
<polygon fill="#63b8ff" stroke="#63b8ff" points="463.28,-278.34 471.78,-272.02 461.19,-271.66 463.28,-278.34"/>
</a>
</g>
</g>
<!-- Node44&#45;&gt;Node10 -->
<g id="edge26_Node000044_Node000010" class="edge">
<title>Node44&#45;&gt;Node10</title>
<g id="a_edge26_Node000044_Node000010"><a xlink:title=" ">
<path fill="none" stroke="#63b8ff" d="M279.49,-316.74C199.58,-302.89 0,-262.35 0,-203 0,-203 0,-203 0,-135 0,-86.85 48.93,-48.99 79.98,-29.8"/>
<polygon fill="#63b8ff" stroke="#63b8ff" points="81.79,-32.8 88.59,-24.67 78.21,-26.78 81.79,-32.8"/>
</a>
</g>
</g>
<!-- Node45 -->
<g id="Node000045" class="node">
<title>Node45</title>
<g id="a_Node000045"><a xlink:title=" ">
<polygon fill="#e0e0e0" stroke="#999999" points="365,-272 259,-272 259,-253 365,-253 365,-272"/>
<text text-anchor="middle" x="312" y="-260" font-family="Helvetica,sans-Serif" font-size="10.00">deal.II/lac/vector.h</text>
</a>
</g>
</g>
<!-- Node44&#45;&gt;Node45 -->
<g id="edge25_Node000044_Node000045" class="edge">
<title>Node44&#45;&gt;Node45</title>
<g id="a_edge25_Node000044_Node000045"><a xlink:title=" ">
<path fill="none" stroke="#63b8ff" d="M312,-313.37C312,-305.25 312,-292.81 312,-282.39"/>
<polygon fill="#63b8ff" stroke="#63b8ff" points="315.5,-282.17 312,-272.17 308.5,-282.17 315.5,-282.17"/>
</a>
</g>
</g>
</g>
</svg>
