<?xml version="1.0" encoding="UTF-8" standalone="no"?>
<!DOCTYPE svg PUBLIC "-//W3C//DTD SVG 1.1//EN"
 "http://www.w3.org/Graphics/SVG/1.1/DTD/svg11.dtd">
<!-- Generated by graphviz version 2.43.0 (0)
 -->
<!-- Title: /home/runner/work/lethe/lethe/source/dem/update_fine_search_candidates.cc Pages: 1 -->
<svg width="2087pt" height="313pt"
 viewBox="0.00 0.00 2086.50 313.00" xmlns="http://www.w3.org/2000/svg" xmlns:xlink="http://www.w3.org/1999/xlink">
<g id="graph0" class="graph" transform="scale(1 1) rotate(0) translate(4 309)">
<title>/home/runner/work/lethe/lethe/source/dem/update_fine_search_candidates.cc</title>
<!-- Node1 -->
<g id="Node000001" class="node">
<title>Node1</title>
<g id="a_Node000001"><a xlink:title=" ">
<polygon fill="#999999" stroke="#666666" points="592.5,-305 443.5,-305 443.5,-264 592.5,-264 592.5,-305"/>
<text text-anchor="start" x="451.5" y="-293" font-family="Helvetica,sans-Serif" font-size="10.00">/home/runner/work/lethe</text>
<text text-anchor="start" x="451.5" y="-282" font-family="Helvetica,sans-Serif" font-size="10.00">/lethe/source/dem/update</text>
<text text-anchor="middle" x="518" y="-271" font-family="Helvetica,sans-Serif" font-size="10.00">_fine_search_candidates.cc</text>
</a>
</g>
</g>
<!-- Node2 -->
<g id="Node000002" class="node">
<title>Node2</title>
<g id="a_Node000002"><a xlink:href="data__containers_8h.html" target="_top" xlink:title=" ">
<polygon fill="white" stroke="#666666" points="507,-222.5 379,-222.5 379,-203.5 507,-203.5 507,-222.5"/>
<text text-anchor="middle" x="443" y="-210.5" font-family="Helvetica,sans-Serif" font-size="10.00">dem/data_containers.h</text>
</a>
</g>
</g>
<!-- Node1&#45;&gt;Node2 -->
<g id="edge1_Node000001_Node000002" class="edge">
<title>Node1&#45;&gt;Node2</title>
<g id="a_edge1_Node000001_Node000002"><a xlink:title=" ">
<path fill="none" stroke="#63b8ff" d="M496.71,-263.77C485.11,-253.02 470.96,-239.91 460.09,-229.84"/>
<polygon fill="#63b8ff" stroke="#63b8ff" points="462.23,-227.05 452.52,-222.82 457.47,-232.18 462.23,-227.05"/>
</a>
</g>
</g>
<!-- Node28 -->
<g id="Node000028" class="node">
<title>Node28</title>
<g id="a_Node000028"><a xlink:href="update__fine__search__candidates_8h.html" target="_top" xlink:title=" ">
<polygon fill="white" stroke="#666666" points="861,-228 725,-228 725,-198 861,-198 861,-228"/>
<text text-anchor="start" x="733" y="-216" font-family="Helvetica,sans-Serif" font-size="10.00">dem/update_fine_search</text>
<text text-anchor="middle" x="793" y="-205" font-family="Helvetica,sans-Serif" font-size="10.00">_candidates.h</text>
</a>
</g>
</g>
<!-- Node1&#45;&gt;Node28 -->
<g id="edge37_Node000001_Node000028" class="edge">
<title>Node1&#45;&gt;Node28</title>
<g id="a_edge37_Node000001_Node000028"><a xlink:title=" ">
<path fill="none" stroke="#63b8ff" d="M592.78,-264.6C634.95,-253.94 687.14,-240.75 727.66,-230.51"/>
<polygon fill="#63b8ff" stroke="#63b8ff" points="728.59,-233.89 737.43,-228.04 726.88,-227.1 728.59,-233.89"/>
</a>
</g>
</g>
<!-- Node3 -->
<g id="Node000003" class="node">
<title>Node3</title>
<g id="a_Node000003"><a xlink:href="utilities_8h.html" target="_top" xlink:title=" ">
<polygon fill="white" stroke="#666666" points="1081,-156.5 995,-156.5 995,-137.5 1081,-137.5 1081,-156.5"/>
<text text-anchor="middle" x="1038" y="-144.5" font-family="Helvetica,sans-Serif" font-size="10.00">core/utilities.h</text>
</a>
</g>
</g>
<!-- Node2&#45;&gt;Node3 -->
<g id="edge2_Node000002_Node000003" class="edge">
<title>Node2&#45;&gt;Node3</title>
<g id="a_edge2_Node000002_Node000003"><a xlink:title=" ">
<path fill="none" stroke="#63b8ff" d="M507.24,-205.09C625.43,-192.38 875.24,-165.51 984.71,-153.73"/>
<polygon fill="#63b8ff" stroke="#63b8ff" points="985.29,-157.19 994.86,-152.64 984.54,-150.23 985.29,-157.19"/>
</a>
</g>
</g>
<!-- Node10 -->
<g id="Node000010" class="node">
<title>Node10</title>
<g id="a_Node000010"><a xlink:title=" ">
<polygon fill="#e0e0e0" stroke="#999999" points="269.5,-90.5 154.5,-90.5 154.5,-71.5 269.5,-71.5 269.5,-90.5"/>
<text text-anchor="middle" x="212" y="-78.5" font-family="Helvetica,sans-Serif" font-size="10.00">deal.II/base/tensor.h</text>
</a>
</g>
</g>
<!-- Node2&#45;&gt;Node10 -->
<g id="edge31_Node000002_Node000010" class="edge">
<title>Node2&#45;&gt;Node10</title>
<g id="a_edge31_Node000002_Node000010"><a xlink:title=" ">
<path fill="none" stroke="#63b8ff" d="M378.84,-208.5C272.12,-202.02 67.63,-186.52 46,-162 12.34,-123.84 84.58,-102.22 144.13,-91.31"/>
<polygon fill="#63b8ff" stroke="#63b8ff" points="145.06,-94.7 154.31,-89.53 143.86,-87.81 145.06,-94.7"/>
</a>
</g>
</g>
<!-- Node13 -->
<g id="Node000013" class="node">
<title>Node13</title>
<g id="a_Node000013"><a xlink:title=" ">
<polygon fill="#e0e0e0" stroke="#999999" points="564.5,-96 433.5,-96 433.5,-66 564.5,-66 564.5,-96"/>
<text text-anchor="start" x="441.5" y="-84" font-family="Helvetica,sans-Serif" font-size="10.00">deal.II/particles/particle</text>
<text text-anchor="middle" x="499" y="-73" font-family="Helvetica,sans-Serif" font-size="10.00">_iterator.h</text>
</a>
</g>
</g>
<!-- Node2&#45;&gt;Node13 -->
<g id="edge33_Node000002_Node000013" class="edge">
<title>Node2&#45;&gt;Node13</title>
<g id="a_edge33_Node000002_Node000013"><a xlink:title=" ">
<path fill="none" stroke="#63b8ff" d="M507.07,-204.83C534.22,-198.26 563.38,-185.75 580,-162 587.64,-151.07 586.5,-143.64 580,-132 572.61,-118.75 560.1,-108.57 547.1,-100.97"/>
<polygon fill="#63b8ff" stroke="#63b8ff" points="548.53,-97.77 538.07,-96.11 545.22,-103.93 548.53,-97.77"/>
</a>
</g>
</g>
<!-- Node22 -->
<g id="Node000022" class="node">
<title>Node22</title>
<g id="a_Node000022"><a xlink:title=" ">
<polygon fill="#e0e0e0" stroke="#999999" points="629.5,-90.5 582.5,-90.5 582.5,-71.5 629.5,-71.5 629.5,-90.5"/>
<text text-anchor="middle" x="606" y="-78.5" font-family="Helvetica,sans-Serif" font-size="10.00">vector</text>
</a>
</g>
</g>
<!-- Node2&#45;&gt;Node22 -->
<g id="edge35_Node000002_Node000022" class="edge">
<title>Node2&#45;&gt;Node22</title>
<g id="a_edge35_Node000002_Node000022"><a xlink:title=" ">
<path fill="none" stroke="#63b8ff" d="M507.2,-207.16C539.03,-201.27 575.23,-188.68 597,-162 610.98,-144.86 611.12,-118.34 609.18,-100.59"/>
<polygon fill="#63b8ff" stroke="#63b8ff" points="612.64,-100.02 607.77,-90.6 605.7,-100.99 612.64,-100.02"/>
</a>
</g>
</g>
<!-- Node23 -->
<g id="Node000023" class="node">
<title>Node23</title>
<g id="a_Node000023"><a xlink:href="boundary__cells__info__struct_8h.html" target="_top" xlink:title=" ">
<polygon fill="white" stroke="#666666" points="170.5,-162 55.5,-162 55.5,-132 170.5,-132 170.5,-162"/>
<text text-anchor="start" x="63.5" y="-150" font-family="Helvetica,sans-Serif" font-size="10.00">dem/boundary_cells</text>
<text text-anchor="middle" x="113" y="-139" font-family="Helvetica,sans-Serif" font-size="10.00">_info_struct.h</text>
</a>
</g>
</g>
<!-- Node2&#45;&gt;Node23 -->
<g id="edge23_Node000002_Node000023" class="edge">
<title>Node2&#45;&gt;Node23</title>
<g id="a_edge23_Node000002_Node000023"><a xlink:title=" ">
<path fill="none" stroke="#63b8ff" d="M396.21,-203.46C345.45,-194.12 261.78,-178.52 180.48,-162.27"/>
<polygon fill="#63b8ff" stroke="#63b8ff" points="181.07,-158.82 170.58,-160.29 179.7,-165.69 181.07,-158.82"/>
</a>
</g>
</g>
<!-- Node24 -->
<g id="Node000024" class="node">
<title>Node24</title>
<g id="a_Node000024"><a xlink:title=" ">
<polygon fill="#e0e0e0" stroke="#999999" points="102,-96 0,-96 0,-66 102,-66 102,-96"/>
<text text-anchor="start" x="8" y="-84" font-family="Helvetica,sans-Serif" font-size="10.00">deal.II/distributed</text>
<text text-anchor="middle" x="51" y="-73" font-family="Helvetica,sans-Serif" font-size="10.00">/tria.h</text>
</a>
</g>
</g>
<!-- Node2&#45;&gt;Node24 -->
<g id="edge32_Node000002_Node000024" class="edge">
<title>Node2&#45;&gt;Node24</title>
<g id="a_edge32_Node000002_Node000024"><a xlink:title=" ">
<path fill="none" stroke="#63b8ff" d="M378.66,-208.74C269.22,-202.54 56.43,-187.34 34,-162 20.34,-146.57 27.63,-122.93 36.51,-105.34"/>
<polygon fill="#63b8ff" stroke="#63b8ff" points="39.74,-106.73 41.48,-96.28 33.6,-103.36 39.74,-106.73"/>
</a>
</g>
</g>
<!-- Node25 -->
<g id="Node000025" class="node">
<title>Node25</title>
<g id="a_Node000025"><a xlink:href="contact__info_8h.html" target="_top" xlink:title=" ">
<polygon fill="white" stroke="#666666" points="571,-156.5 461,-156.5 461,-137.5 571,-137.5 571,-156.5"/>
<text text-anchor="middle" x="516" y="-144.5" font-family="Helvetica,sans-Serif" font-size="10.00">dem/contact_info.h</text>
</a>
</g>
</g>
<!-- Node2&#45;&gt;Node25 -->
<g id="edge27_Node000002_Node000025" class="edge">
<title>Node2&#45;&gt;Node25</title>
<g id="a_edge27_Node000002_Node000025"><a xlink:title=" ">
<path fill="none" stroke="#63b8ff" d="M452.85,-203.37C464.43,-193.21 483.88,-176.16 498.14,-163.65"/>
<polygon fill="#63b8ff" stroke="#63b8ff" points="500.63,-166.13 505.84,-156.91 496.02,-160.87 500.63,-166.13"/>
</a>
</g>
</g>
<!-- Node26 -->
<g id="Node000026" class="node">
<title>Node26</title>
<g id="a_Node000026"><a xlink:title=" ">
<polygon fill="#e0e0e0" stroke="#999999" points="281.5,-156.5 188.5,-156.5 188.5,-137.5 281.5,-137.5 281.5,-156.5"/>
<text text-anchor="middle" x="235" y="-144.5" font-family="Helvetica,sans-Serif" font-size="10.00">unordered_map</text>
</a>
</g>
</g>
<!-- Node2&#45;&gt;Node26 -->
<g id="edge34_Node000002_Node000026" class="edge">
<title>Node2&#45;&gt;Node26</title>
<g id="a_edge34_Node000002_Node000026"><a xlink:title=" ">
<path fill="none" stroke="#63b8ff" d="M414.95,-203.37C378.17,-192.05 313.53,-172.16 272.56,-159.56"/>
<polygon fill="#63b8ff" stroke="#63b8ff" points="273.53,-156.19 262.94,-156.6 271.47,-162.88 273.53,-156.19"/>
</a>
</g>
</g>
<!-- Node27 -->
<g id="Node000027" class="node">
<title>Node27</title>
<g id="a_Node000027"><a xlink:href="unordered__dense_8h.html" target="_top" xlink:title=" ">
<polygon fill="white" stroke="#666666" points="442.5,-156.5 299.5,-156.5 299.5,-137.5 442.5,-137.5 442.5,-156.5"/>
<text text-anchor="middle" x="371" y="-144.5" font-family="Helvetica,sans-Serif" font-size="10.00">ankerl/unordered_dense.h</text>
</a>
</g>
</g>
<!-- Node2&#45;&gt;Node27 -->
<g id="edge36_Node000002_Node000027" class="edge">
<title>Node2&#45;&gt;Node27</title>
<g id="a_edge36_Node000002_Node000027"><a xlink:title=" ">
<path fill="none" stroke="#63b8ff" d="M433.29,-203.37C421.87,-193.21 402.68,-176.16 388.61,-163.65"/>
<polygon fill="#63b8ff" stroke="#63b8ff" points="390.82,-160.93 381.02,-156.91 386.17,-166.16 390.82,-160.93"/>
</a>
</g>
</g>
<!-- Node4 -->
<g id="Node000004" class="node">
<title>Node4</title>
<g id="a_Node000004"><a xlink:href="output__struct_8h.html" target="_top" xlink:title=" ">
<polygon fill="white" stroke="#666666" points="1489,-90.5 1375,-90.5 1375,-71.5 1489,-71.5 1489,-90.5"/>
<text text-anchor="middle" x="1432" y="-78.5" font-family="Helvetica,sans-Serif" font-size="10.00">core/output_struct.h</text>
</a>
</g>
</g>
<!-- Node3&#45;&gt;Node4 -->
<g id="edge3_Node000003_Node000004" class="edge">
<title>Node3&#45;&gt;Node4</title>
<g id="a_edge3_Node000003_Node000004"><a xlink:title=" ">
<path fill="none" stroke="#63b8ff" d="M1066.99,-137.46C1074.44,-135.47 1082.48,-133.5 1090,-132 1211.33,-107.87 1244.06,-116.85 1366,-96 1371.92,-94.99 1378.11,-93.82 1384.23,-92.6"/>
<polygon fill="#63b8ff" stroke="#63b8ff" points="1385.31,-95.95 1394.4,-90.51 1383.91,-89.09 1385.31,-95.95"/>
</a>
</g>
</g>
<!-- Node5 -->
<g id="Node000005" class="node">
<title>Node5</title>
<g id="a_Node000005"><a xlink:title=" ">
<polygon fill="#e0e0e0" stroke="#999999" points="1031.5,-30 930.5,-30 930.5,0 1031.5,0 1031.5,-30"/>
<text text-anchor="start" x="938.5" y="-18" font-family="Helvetica,sans-Serif" font-size="10.00">deal.II/base/table</text>
<text text-anchor="middle" x="981" y="-7" font-family="Helvetica,sans-Serif" font-size="10.00">_handler.h</text>
</a>
</g>
</g>
<!-- Node3&#45;&gt;Node5 -->
<g id="edge9_Node000003_Node000005" class="edge">
<title>Node3&#45;&gt;Node5</title>
<g id="a_edge9_Node000003_Node000005"><a xlink:title=" ">
<path fill="none" stroke="#63b8ff" d="M994.85,-146.75C908.19,-147.24 717.78,-142.82 677,-96 668.24,-85.95 668.37,-76.16 677,-66 707.52,-30.05 840.23,-19.9 919.87,-17.07"/>
<polygon fill="#63b8ff" stroke="#63b8ff" points="920.38,-20.55 930.26,-16.73 920.15,-13.56 920.38,-20.55"/>
</a>
</g>
</g>
<!-- Node7 -->
<g id="Node000007" class="node">
<title>Node7</title>
<g id="a_Node000007"><a xlink:title=" ">
<polygon fill="#e0e0e0" stroke="#999999" points="1637,-96 1507,-96 1507,-66 1637,-66 1637,-96"/>
<text text-anchor="start" x="1515" y="-84" font-family="Helvetica,sans-Serif" font-size="10.00">deal.II/base/conditional</text>
<text text-anchor="middle" x="1572" y="-73" font-family="Helvetica,sans-Serif" font-size="10.00">_ostream.h</text>
</a>
</g>
</g>
<!-- Node3&#45;&gt;Node7 -->
<g id="edge6_Node000003_Node000007" class="edge">
<title>Node3&#45;&gt;Node7</title>
<g id="a_edge6_Node000003_Node000007"><a xlink:title=" ">
<path fill="none" stroke="#63b8ff" d="M1066.13,-137.46C1073.81,-135.4 1082.18,-133.39 1090,-132 1266,-100.79 1315.89,-120.22 1496.58,-96.1"/>
<polygon fill="#63b8ff" stroke="#63b8ff" points="1497.25,-99.54 1506.69,-94.72 1496.31,-92.6 1497.25,-99.54"/>
</a>
</g>
</g>
<!-- Node8 -->
<g id="Node000008" class="node">
<title>Node8</title>
<g id="a_Node000008"><a xlink:title=" ">
<polygon fill="#e0e0e0" stroke="#999999" points="1782.5,-96 1655.5,-96 1655.5,-66 1782.5,-66 1782.5,-96"/>
<text text-anchor="start" x="1663.5" y="-84" font-family="Helvetica,sans-Serif" font-size="10.00">deal.II/base/parameter</text>
<text text-anchor="middle" x="1719" y="-73" font-family="Helvetica,sans-Serif" font-size="10.00">_handler.h</text>
</a>
</g>
</g>
<!-- Node3&#45;&gt;Node8 -->
<g id="edge7_Node000003_Node000008" class="edge">
<title>Node3&#45;&gt;Node8</title>
<g id="a_edge7_Node000003_Node000008"><a xlink:title=" ">
<path fill="none" stroke="#63b8ff" d="M1065.57,-137.49C1073.4,-135.37 1081.98,-133.33 1090,-132 1331.09,-92.15 1398.6,-126.45 1645.39,-95.94"/>
<polygon fill="#63b8ff" stroke="#63b8ff" points="1645.89,-99.41 1655.37,-94.69 1645.01,-92.46 1645.89,-99.41"/>
</a>
</g>
</g>
<!-- Node9 -->
<g id="Node000009" class="node">
<title>Node9</title>
<g id="a_Node000009"><a xlink:title=" ">
<polygon fill="#e0e0e0" stroke="#999999" points="415,-90.5 305,-90.5 305,-71.5 415,-71.5 415,-90.5"/>
<text text-anchor="middle" x="360" y="-78.5" font-family="Helvetica,sans-Serif" font-size="10.00">deal.II/base/point.h</text>
</a>
</g>
</g>
<!-- Node3&#45;&gt;Node9 -->
<g id="edge8_Node000003_Node000009" class="edge">
<title>Node3&#45;&gt;Node9</title>
<g id="a_edge8_Node000003_Node000009"><a xlink:title=" ">
<path fill="none" stroke="#63b8ff" d="M994.97,-144.48C894.51,-140.5 636.87,-127.8 424,-96 417.8,-95.07 411.3,-93.9 404.92,-92.62"/>
<polygon fill="#63b8ff" stroke="#63b8ff" points="405.56,-89.18 395.05,-90.56 404.12,-96.03 405.56,-89.18"/>
</a>
</g>
</g>
<!-- Node3&#45;&gt;Node10 -->
<g id="edge10_Node000003_Node000010" class="edge">
<title>Node3&#45;&gt;Node10</title>
<g id="a_edge10_Node000003_Node000010"><a xlink:title=" ">
<path fill="none" stroke="#63b8ff" d="M994.79,-144.57C880.43,-140.46 560.5,-126.88 296,-96 286.94,-94.94 277.37,-93.58 268.06,-92.13"/>
<polygon fill="#63b8ff" stroke="#63b8ff" points="268.53,-88.66 258.1,-90.52 267.41,-95.57 268.53,-88.66"/>
</a>
</g>
</g>
<!-- Node11 -->
<g id="Node000011" class="node">
<title>Node11</title>
<g id="a_Node000011"><a xlink:title=" ">
<polygon fill="#e0e0e0" stroke="#999999" points="1941,-90.5 1801,-90.5 1801,-71.5 1941,-71.5 1941,-90.5"/>
<text text-anchor="middle" x="1871" y="-78.5" font-family="Helvetica,sans-Serif" font-size="10.00">deal.II/dofs/dof_handler.h</text>
</a>
</g>
</g>
<!-- Node3&#45;&gt;Node11 -->
<g id="edge11_Node000003_Node000011" class="edge">
<title>Node3&#45;&gt;Node11</title>
<g id="a_edge11_Node000003_Node000011"><a xlink:title=" ">
<path fill="none" stroke="#63b8ff" d="M1065.29,-137.49C1073.19,-135.34 1081.87,-133.29 1090,-132 1398.56,-83.12 1481.59,-131.33 1792,-96 1800.55,-95.03 1809.58,-93.71 1818.36,-92.27"/>
<polygon fill="#63b8ff" stroke="#63b8ff" points="1819.24,-95.67 1828.5,-90.53 1818.05,-88.77 1819.24,-95.67"/>
</a>
</g>
</g>
<!-- Node12 -->
<g id="Node000012" class="node">
<title>Node12</title>
<g id="a_Node000012"><a xlink:title=" ">
<polygon fill="#e0e0e0" stroke="#999999" points="2078.5,-90.5 1959.5,-90.5 1959.5,-71.5 2078.5,-71.5 2078.5,-90.5"/>
<text text-anchor="middle" x="2019" y="-78.5" font-family="Helvetica,sans-Serif" font-size="10.00">deal.II/fe/fe_values.h</text>
</a>
</g>
</g>
<!-- Node3&#45;&gt;Node12 -->
<g id="edge12_Node000003_Node000012" class="edge">
<title>Node3&#45;&gt;Node12</title>
<g id="a_edge12_Node000003_Node000012"><a xlink:title=" ">
<path fill="none" stroke="#63b8ff" d="M1065.28,-137.44C1073.18,-135.29 1081.87,-133.25 1090,-132 1468.12,-73.92 1570.24,-142.18 1950,-96 1957.26,-95.12 1964.89,-93.88 1972.33,-92.51"/>
<polygon fill="#63b8ff" stroke="#63b8ff" points="1973.15,-95.92 1982.29,-90.57 1971.81,-89.04 1973.15,-95.92"/>
</a>
</g>
</g>
<!-- Node3&#45;&gt;Node13 -->
<g id="edge13_Node000003_Node000013" class="edge">
<title>Node3&#45;&gt;Node13</title>
<g id="a_edge13_Node000003_Node000013"><a xlink:title=" ">
<path fill="none" stroke="#63b8ff" d="M994.9,-142.52C914.32,-135.77 735.16,-119.58 574.77,-96.19"/>
<polygon fill="#63b8ff" stroke="#63b8ff" points="575.12,-92.71 564.72,-94.72 574.11,-99.63 575.12,-92.71"/>
</a>
</g>
</g>
<!-- Node14 -->
<g id="Node000014" class="node">
<title>Node14</title>
<g id="a_Node000014"><a xlink:title=" ">
<polygon fill="#e0e0e0" stroke="#999999" points="791.5,-96 686.5,-96 686.5,-66 791.5,-66 791.5,-96"/>
<text text-anchor="start" x="694.5" y="-84" font-family="Helvetica,sans-Serif" font-size="10.00">boost/archive/text</text>
<text text-anchor="middle" x="739" y="-73" font-family="Helvetica,sans-Serif" font-size="10.00">_iarchive.hpp</text>
</a>
</g>
</g>
<!-- Node3&#45;&gt;Node14 -->
<g id="edge14_Node000003_Node000014" class="edge">
<title>Node3&#45;&gt;Node14</title>
<g id="a_edge14_Node000003_Node000014"><a xlink:title=" ">
<path fill="none" stroke="#63b8ff" d="M996.25,-137.47C950.73,-128.12 875.48,-112.5 801.51,-96.31"/>
<polygon fill="#63b8ff" stroke="#63b8ff" points="802.08,-92.85 791.56,-94.13 800.58,-99.69 802.08,-92.85"/>
</a>
</g>
</g>
<!-- Node15 -->
<g id="Node000015" class="node">
<title>Node15</title>
<g id="a_Node000015"><a xlink:title=" ">
<polygon fill="#e0e0e0" stroke="#999999" points="914.5,-96 809.5,-96 809.5,-66 914.5,-66 914.5,-96"/>
<text text-anchor="start" x="817.5" y="-84" font-family="Helvetica,sans-Serif" font-size="10.00">boost/archive/text</text>
<text text-anchor="middle" x="862" y="-73" font-family="Helvetica,sans-Serif" font-size="10.00">_oarchive.hpp</text>
</a>
</g>
</g>
<!-- Node3&#45;&gt;Node15 -->
<g id="edge15_Node000003_Node000015" class="edge">
<title>Node3&#45;&gt;Node15</title>
<g id="a_edge15_Node000003_Node000015"><a xlink:title=" ">
<path fill="none" stroke="#63b8ff" d="M1014.26,-137.37C987.79,-127.74 944.25,-111.91 910.5,-99.64"/>
<polygon fill="#63b8ff" stroke="#63b8ff" points="911.41,-96.24 900.82,-96.12 909.02,-102.82 911.41,-96.24"/>
</a>
</g>
</g>
<!-- Node16 -->
<g id="Node000016" class="node">
<title>Node16</title>
<g id="a_Node000016"><a xlink:title=" ">
<polygon fill="#e0e0e0" stroke="#999999" points="1043,-96 933,-96 933,-66 1043,-66 1043,-96"/>
<text text-anchor="start" x="941" y="-84" font-family="Helvetica,sans-Serif" font-size="10.00">boost/math/special</text>
<text text-anchor="middle" x="988" y="-73" font-family="Helvetica,sans-Serif" font-size="10.00">_functions/erf.hpp</text>
</a>
</g>
</g>
<!-- Node3&#45;&gt;Node16 -->
<g id="edge16_Node000003_Node000016" class="edge">
<title>Node3&#45;&gt;Node16</title>
<g id="a_edge16_Node000003_Node000016"><a xlink:title=" ">
<path fill="none" stroke="#63b8ff" d="M1031.26,-137.37C1024.65,-128.91 1014.3,-115.67 1005.39,-104.25"/>
<polygon fill="#63b8ff" stroke="#63b8ff" points="1008.13,-102.09 999.22,-96.36 1002.62,-106.4 1008.13,-102.09"/>
</a>
</g>
</g>
<!-- Node17 -->
<g id="Node000017" class="node">
<title>Node17</title>
<g id="a_Node000017"><a xlink:title=" ">
<polygon fill="#e0e0e0" stroke="#999999" points="1116.5,-90.5 1061.5,-90.5 1061.5,-71.5 1116.5,-71.5 1116.5,-90.5"/>
<text text-anchor="middle" x="1089" y="-78.5" font-family="Helvetica,sans-Serif" font-size="10.00">fstream</text>
</a>
</g>
</g>
<!-- Node3&#45;&gt;Node17 -->
<g id="edge17_Node000003_Node000017" class="edge">
<title>Node3&#45;&gt;Node17</title>
<g id="a_edge17_Node000003_Node000017"><a xlink:title=" ">
<path fill="none" stroke="#63b8ff" d="M1044.88,-137.37C1052.67,-127.59 1065.55,-111.42 1075.39,-99.08"/>
<polygon fill="#63b8ff" stroke="#63b8ff" points="1078.41,-100.91 1081.9,-90.91 1072.93,-96.54 1078.41,-100.91"/>
</a>
</g>
</g>
<!-- Node18 -->
<g id="Node000018" class="node">
<title>Node18</title>
<g id="a_Node000018"><a xlink:title=" ">
<polygon fill="#e0e0e0" stroke="#999999" points="1173,-90.5 1135,-90.5 1135,-71.5 1173,-71.5 1173,-90.5"/>
<text text-anchor="middle" x="1154" y="-78.5" font-family="Helvetica,sans-Serif" font-size="10.00">map</text>
</a>
</g>
</g>
<!-- Node3&#45;&gt;Node18 -->
<g id="edge18_Node000003_Node000018" class="edge">
<title>Node3&#45;&gt;Node18</title>
<g id="a_edge18_Node000003_Node000018"><a xlink:title=" ">
<path fill="none" stroke="#63b8ff" d="M1053.64,-137.37C1073.1,-126.63 1106.55,-108.18 1129.44,-95.55"/>
<polygon fill="#63b8ff" stroke="#63b8ff" points="1131.17,-98.59 1138.23,-90.7 1127.79,-92.47 1131.17,-98.59"/>
</a>
</g>
</g>
<!-- Node19 -->
<g id="Node000019" class="node">
<title>Node19</title>
<g id="a_Node000019"><a xlink:title=" ">
<polygon fill="#e0e0e0" stroke="#999999" points="1235,-90.5 1191,-90.5 1191,-71.5 1235,-71.5 1235,-90.5"/>
<text text-anchor="middle" x="1213" y="-78.5" font-family="Helvetica,sans-Serif" font-size="10.00">regex</text>
</a>
</g>
</g>
<!-- Node3&#45;&gt;Node19 -->
<g id="edge19_Node000003_Node000019" class="edge">
<title>Node3&#45;&gt;Node19</title>
<g id="a_edge19_Node000003_Node000019"><a xlink:title=" ">
<path fill="none" stroke="#63b8ff" d="M1064.8,-137.49C1093.92,-128.07 1141.68,-112.07 1182,-96 1183.17,-95.53 1184.37,-95.05 1185.57,-94.55"/>
<polygon fill="#63b8ff" stroke="#63b8ff" points="1186.97,-97.75 1194.76,-90.57 1184.19,-91.33 1186.97,-97.75"/>
</a>
</g>
</g>
<!-- Node20 -->
<g id="Node000020" class="node">
<title>Node20</title>
<g id="a_Node000020"><a xlink:title=" ">
<polygon fill="#e0e0e0" stroke="#999999" points="1297,-90.5 1253,-90.5 1253,-71.5 1297,-71.5 1297,-90.5"/>
<text text-anchor="middle" x="1275" y="-78.5" font-family="Helvetica,sans-Serif" font-size="10.00">string</text>
</a>
</g>
</g>
<!-- Node3&#45;&gt;Node20 -->
<g id="edge20_Node000003_Node000020" class="edge">
<title>Node3&#45;&gt;Node20</title>
<g id="a_edge20_Node000003_Node000020"><a xlink:title=" ">
<path fill="none" stroke="#63b8ff" d="M1069.03,-137.46C1075.92,-135.62 1083.2,-133.71 1090,-132 1158.17,-114.86 1177.43,-118.57 1244,-96 1245.4,-95.53 1246.82,-95.01 1248.24,-94.47"/>
<polygon fill="#63b8ff" stroke="#63b8ff" points="1249.65,-97.68 1257.53,-90.6 1246.96,-91.21 1249.65,-97.68"/>
</a>
</g>
</g>
<!-- Node21 -->
<g id="Node000021" class="node">
<title>Node21</title>
<g id="a_Node000021"><a xlink:title=" ">
<polygon fill="#e0e0e0" stroke="#999999" points="1356.5,-90.5 1315.5,-90.5 1315.5,-71.5 1356.5,-71.5 1356.5,-90.5"/>
<text text-anchor="middle" x="1336" y="-78.5" font-family="Helvetica,sans-Serif" font-size="10.00">tuple</text>
</a>
</g>
</g>
<!-- Node3&#45;&gt;Node21 -->
<g id="edge21_Node000003_Node000021" class="edge">
<title>Node3&#45;&gt;Node21</title>
<g id="a_edge21_Node000003_Node000021"><a xlink:title=" ">
<path fill="none" stroke="#63b8ff" d="M1067.85,-137.43C1075.07,-135.5 1082.78,-133.57 1090,-132 1185.1,-111.32 1213.05,-124.84 1306,-96 1307.44,-95.55 1308.9,-95.05 1310.36,-94.51"/>
<polygon fill="#63b8ff" stroke="#63b8ff" points="1311.96,-97.64 1319.81,-90.53 1309.24,-91.18 1311.96,-97.64"/>
</a>
</g>
</g>
<!-- Node3&#45;&gt;Node22 -->
<g id="edge22_Node000003_Node000022" class="edge">
<title>Node3&#45;&gt;Node22</title>
<g id="a_edge22_Node000003_Node000022"><a xlink:title=" ">
<path fill="none" stroke="#63b8ff" d="M994.86,-143.73C921.75,-139.17 769.26,-126.6 644,-96 641.49,-95.39 638.92,-94.66 636.35,-93.87"/>
<polygon fill="#63b8ff" stroke="#63b8ff" points="637.24,-90.47 626.64,-90.57 634.98,-97.1 637.24,-90.47"/>
</a>
</g>
</g>
<!-- Node4&#45;&gt;Node5 -->
<g id="edge4_Node000004_Node000005" class="edge">
<title>Node4&#45;&gt;Node5</title>
<g id="a_edge4_Node000004_Node000005"><a xlink:title=" ">
<path fill="none" stroke="#63b8ff" d="M1394.41,-71.48C1385.15,-69.54 1375.24,-67.58 1366,-66 1252.1,-46.56 1118.09,-30.73 1041.99,-22.4"/>
<polygon fill="#63b8ff" stroke="#63b8ff" points="1041.96,-18.87 1031.64,-21.27 1041.21,-25.83 1041.96,-18.87"/>
</a>
</g>
</g>
<!-- Node6 -->
<g id="Node000006" class="node">
<title>Node6</title>
<g id="a_Node000006"><a xlink:title=" ">
<polygon fill="#e0e0e0" stroke="#999999" points="1491.5,-30 1372.5,-30 1372.5,0 1491.5,0 1491.5,-30"/>
<text text-anchor="start" x="1380.5" y="-18" font-family="Helvetica,sans-Serif" font-size="10.00">deal.II/numerics/data</text>
<text text-anchor="middle" x="1432" y="-7" font-family="Helvetica,sans-Serif" font-size="10.00">_postprocessor.h</text>
</a>
</g>
</g>
<!-- Node4&#45;&gt;Node6 -->
<g id="edge5_Node000004_Node000006" class="edge">
<title>Node4&#45;&gt;Node6</title>
<g id="a_edge5_Node000004_Node000006"><a xlink:title=" ">
<path fill="none" stroke="#63b8ff" d="M1432,-71.37C1432,-63.49 1432,-51.45 1432,-40.6"/>
<polygon fill="#63b8ff" stroke="#63b8ff" points="1435.5,-40.36 1432,-30.36 1428.5,-40.36 1435.5,-40.36"/>
</a>
</g>
</g>
<!-- Node23&#45;&gt;Node9 -->
<g id="edge24_Node000023_Node000009" class="edge">
<title>Node23&#45;&gt;Node9</title>
<g id="a_edge24_Node000023_Node000009"><a xlink:title=" ">
<path fill="none" stroke="#63b8ff" d="M167.21,-131.95C212.34,-120.26 275.72,-103.84 317.31,-93.06"/>
<polygon fill="#63b8ff" stroke="#63b8ff" points="318.33,-96.41 327.13,-90.52 316.57,-89.64 318.33,-96.41"/>
</a>
</g>
</g>
<!-- Node23&#45;&gt;Node10 -->
<g id="edge25_Node000023_Node000010" class="edge">
<title>Node23&#45;&gt;Node10</title>
<g id="a_edge25_Node000023_Node000010"><a xlink:title=" ">
<path fill="none" stroke="#63b8ff" d="M134.97,-131.8C151.41,-121.17 173.79,-106.7 190.19,-96.1"/>
<polygon fill="#63b8ff" stroke="#63b8ff" points="192.11,-99.03 198.61,-90.66 188.31,-93.15 192.11,-99.03"/>
</a>
</g>
</g>
<!-- Node23&#45;&gt;Node24 -->
<g id="edge26_Node000023_Node000024" class="edge">
<title>Node23&#45;&gt;Node24</title>
<g id="a_edge26_Node000023_Node000024"><a xlink:title=" ">
<path fill="none" stroke="#63b8ff" d="M99.24,-131.8C91.21,-123.51 80.93,-112.89 71.91,-103.59"/>
<polygon fill="#63b8ff" stroke="#63b8ff" points="74.19,-100.91 64.72,-96.16 69.17,-105.78 74.19,-100.91"/>
</a>
</g>
</g>
<!-- Node25&#45;&gt;Node9 -->
<g id="edge28_Node000025_Node000009" class="edge">
<title>Node25&#45;&gt;Node9</title>
<g id="a_edge28_Node000025_Node000009"><a xlink:title=" ">
<path fill="none" stroke="#63b8ff" d="M494.96,-137.37C468.02,-126.32 421.14,-107.08 390.34,-94.45"/>
<polygon fill="#63b8ff" stroke="#63b8ff" points="391.53,-91.15 380.95,-90.6 388.88,-97.63 391.53,-91.15"/>
</a>
</g>
</g>
<!-- Node25&#45;&gt;Node10 -->
<g id="edge29_Node000025_Node000010" class="edge">
<title>Node25&#45;&gt;Node10</title>
<g id="a_edge29_Node000025_Node000010"><a xlink:title=" ">
<path fill="none" stroke="#63b8ff" d="M476.48,-137.45C468.07,-135.64 459.24,-133.75 451,-132 386.15,-118.23 311.35,-102.63 262.95,-92.57"/>
<polygon fill="#63b8ff" stroke="#63b8ff" points="263.54,-89.12 253.04,-90.51 262.12,-95.97 263.54,-89.12"/>
</a>
</g>
</g>
<!-- Node25&#45;&gt;Node13 -->
<g id="edge30_Node000025_Node000013" class="edge">
<title>Node25&#45;&gt;Node13</title>
<g id="a_edge30_Node000025_Node000013"><a xlink:title=" ">
<path fill="none" stroke="#63b8ff" d="M513.71,-137.37C511.59,-129.4 508.35,-117.2 505.45,-106.27"/>
<polygon fill="#63b8ff" stroke="#63b8ff" points="508.76,-105.13 502.81,-96.36 502,-106.92 508.76,-105.13"/>
</a>
</g>
</g>
<!-- Node29 -->
<g id="Node000029" class="node">
<title>Node29</title>
<g id="a_Node000029"><a xlink:href="contact__type_8h.html" target="_top" xlink:title=" ">
<polygon fill="white" stroke="#666666" points="1212.5,-156.5 1099.5,-156.5 1099.5,-137.5 1212.5,-137.5 1212.5,-156.5"/>
<text text-anchor="middle" x="1156" y="-144.5" font-family="Helvetica,sans-Serif" font-size="10.00">dem/contact_type.h</text>
</a>
</g>
</g>
<!-- Node28&#45;&gt;Node29 -->
<g id="edge38_Node000028_Node000029" class="edge">
<title>Node28&#45;&gt;Node29</title>
<g id="a_edge38_Node000028_Node000029"><a xlink:title=" ">
<path fill="none" stroke="#63b8ff" d="M861.27,-201.35C921.56,-191.74 1011.79,-176.87 1090,-162 1095.47,-160.96 1101.18,-159.83 1106.85,-158.66"/>
<polygon fill="#63b8ff" stroke="#63b8ff" points="1107.89,-162.02 1116.97,-156.56 1106.47,-155.17 1107.89,-162.02"/>
</a>
</g>
</g>
</g>
</svg>
