<?xml version="1.0" encoding="UTF-8" standalone="no"?>
<!DOCTYPE svg PUBLIC "-//W3C//DTD SVG 1.1//EN"
 "http://www.w3.org/Graphics/SVG/1.1/DTD/svg11.dtd">
<!-- Generated by graphviz version 2.43.0 (0)
 -->
<!-- Title: /home/runner/work/lethe/lethe/include/dem/update_local_particle_containers.h Pages: 1 -->
<svg width="1844pt" height="313pt"
 viewBox="0.00 0.00 1843.50 313.00" xmlns="http://www.w3.org/2000/svg" xmlns:xlink="http://www.w3.org/1999/xlink">
<g id="graph0" class="graph" transform="scale(1 1) rotate(0) translate(4 309)">
<title>/home/runner/work/lethe/lethe/include/dem/update_local_particle_containers.h</title>
<!-- Node1 -->
<g id="Node000001" class="node">
<title>Node1</title>
<g id="a_Node000001"><a xlink:title=" ">
<polygon fill="#999999" stroke="#666666" points="650,-305 498,-305 498,-264 650,-264 650,-305"/>
<text text-anchor="start" x="506" y="-293" font-family="Helvetica,sans-Serif" font-size="10.00">/home/runner/work/lethe</text>
<text text-anchor="start" x="506" y="-282" font-family="Helvetica,sans-Serif" font-size="10.00">/lethe/include/dem/update</text>
<text text-anchor="middle" x="574" y="-271" font-family="Helvetica,sans-Serif" font-size="10.00">_local_particle_containers.h</text>
</a>
</g>
</g>
<!-- Node2 -->
<g id="Node000002" class="node">
<title>Node2</title>
<g id="a_Node000002"><a xlink:href="contact__info_8h.html" target="_top" xlink:title=" ">
<polygon fill="white" stroke="#666666" points="633,-156.5 523,-156.5 523,-137.5 633,-137.5 633,-156.5"/>
<text text-anchor="middle" x="578" y="-144.5" font-family="Helvetica,sans-Serif" font-size="10.00">dem/contact_info.h</text>
</a>
</g>
</g>
<!-- Node1&#45;&gt;Node2 -->
<g id="edge1_Node000001_Node000002" class="edge">
<title>Node1&#45;&gt;Node2</title>
<g id="a_edge1_Node000001_Node000002"><a xlink:title=" ">
<path fill="none" stroke="#63b8ff" d="M584.39,-263.8C589.26,-253.45 594.54,-240.38 597,-228 599.6,-214.92 599.41,-211.11 597,-198 594.98,-186.98 590.64,-175.25 586.62,-165.92"/>
<polygon fill="#63b8ff" stroke="#63b8ff" points="589.7,-164.22 582.36,-156.57 583.33,-167.12 589.7,-164.22"/>
</a>
</g>
</g>
<!-- Node6 -->
<g id="Node000006" class="node">
<title>Node6</title>
<g id="a_Node000006"><a xlink:href="contact__type_8h.html" target="_top" xlink:title=" ">
<polygon fill="white" stroke="#666666" points="588.5,-222.5 475.5,-222.5 475.5,-203.5 588.5,-203.5 588.5,-222.5"/>
<text text-anchor="middle" x="532" y="-210.5" font-family="Helvetica,sans-Serif" font-size="10.00">dem/contact_type.h</text>
</a>
</g>
</g>
<!-- Node1&#45;&gt;Node6 -->
<g id="edge5_Node000001_Node000006" class="edge">
<title>Node1&#45;&gt;Node6</title>
<g id="a_edge5_Node000001_Node000006"><a xlink:title=" ">
<path fill="none" stroke="#63b8ff" d="M562.08,-263.77C555.97,-253.66 548.58,-241.44 542.66,-231.64"/>
<polygon fill="#63b8ff" stroke="#63b8ff" points="545.5,-229.57 537.33,-222.82 539.51,-233.19 545.5,-229.57"/>
</a>
</g>
</g>
<!-- Node7 -->
<g id="Node000007" class="node">
<title>Node7</title>
<g id="a_Node000007"><a xlink:href="data__containers_8h.html" target="_top" xlink:title=" ">
<polygon fill="white" stroke="#666666" points="457,-222.5 329,-222.5 329,-203.5 457,-203.5 457,-222.5"/>
<text text-anchor="middle" x="393" y="-210.5" font-family="Helvetica,sans-Serif" font-size="10.00">dem/data_containers.h</text>
</a>
</g>
</g>
<!-- Node1&#45;&gt;Node7 -->
<g id="edge6_Node000001_Node000007" class="edge">
<title>Node1&#45;&gt;Node7</title>
<g id="a_edge6_Node000001_Node000007"><a xlink:title=" ">
<path fill="none" stroke="#63b8ff" d="M523.1,-263.96C491.44,-251.8 451.72,-236.55 424.55,-226.11"/>
<polygon fill="#63b8ff" stroke="#63b8ff" points="425.74,-222.82 415.15,-222.5 423.23,-229.36 425.74,-222.82"/>
</a>
</g>
</g>
<!-- Node27 -->
<g id="Node000027" class="node">
<title>Node27</title>
<g id="a_Node000027"><a xlink:title=" ">
<polygon fill="#e0e0e0" stroke="#999999" points="776.5,-228 645.5,-228 645.5,-198 776.5,-198 776.5,-228"/>
<text text-anchor="start" x="653.5" y="-216" font-family="Helvetica,sans-Serif" font-size="10.00">deal.II/particles/particle</text>
<text text-anchor="middle" x="711" y="-205" font-family="Helvetica,sans-Serif" font-size="10.00">_handler.h</text>
</a>
</g>
</g>
<!-- Node1&#45;&gt;Node27 -->
<g id="edge37_Node000001_Node000027" class="edge">
<title>Node1&#45;&gt;Node27</title>
<g id="a_edge37_Node000001_Node000027"><a xlink:title=" ">
<path fill="none" stroke="#63b8ff" d="M612.53,-263.96C631.84,-254.16 655.12,-242.35 674.19,-232.67"/>
<polygon fill="#63b8ff" stroke="#63b8ff" points="675.85,-235.76 683.18,-228.11 672.68,-229.52 675.85,-235.76"/>
</a>
</g>
</g>
<!-- Node3 -->
<g id="Node000003" class="node">
<title>Node3</title>
<g id="a_Node000003"><a xlink:title=" ">
<polygon fill="#e0e0e0" stroke="#999999" points="364,-90.5 254,-90.5 254,-71.5 364,-71.5 364,-90.5"/>
<text text-anchor="middle" x="309" y="-78.5" font-family="Helvetica,sans-Serif" font-size="10.00">deal.II/base/point.h</text>
</a>
</g>
</g>
<!-- Node2&#45;&gt;Node3 -->
<g id="edge2_Node000002_Node000003" class="edge">
<title>Node2&#45;&gt;Node3</title>
<g id="a_edge2_Node000002_Node000003"><a xlink:title=" ">
<path fill="none" stroke="#63b8ff" d="M542,-137.44C493.58,-125.92 407.46,-105.43 354.58,-92.84"/>
<polygon fill="#63b8ff" stroke="#63b8ff" points="355.32,-89.42 344.79,-90.51 353.7,-96.23 355.32,-89.42"/>
</a>
</g>
</g>
<!-- Node4 -->
<g id="Node000004" class="node">
<title>Node4</title>
<g id="a_Node000004"><a xlink:title=" ">
<polygon fill="#e0e0e0" stroke="#999999" points="235.5,-90.5 120.5,-90.5 120.5,-71.5 235.5,-71.5 235.5,-90.5"/>
<text text-anchor="middle" x="178" y="-78.5" font-family="Helvetica,sans-Serif" font-size="10.00">deal.II/base/tensor.h</text>
</a>
</g>
</g>
<!-- Node2&#45;&gt;Node4 -->
<g id="edge3_Node000002_Node000004" class="edge">
<title>Node2&#45;&gt;Node4</title>
<g id="a_edge3_Node000002_Node000004"><a xlink:title=" ">
<path fill="none" stroke="#63b8ff" d="M540.98,-137.5C531.86,-135.55 522.1,-133.59 513,-132 394.61,-111.33 363.45,-116.3 245,-96 239.07,-94.98 232.87,-93.82 226.73,-92.61"/>
<polygon fill="#63b8ff" stroke="#63b8ff" points="227.02,-89.1 216.53,-90.55 225.63,-95.96 227.02,-89.1"/>
</a>
</g>
</g>
<!-- Node5 -->
<g id="Node000005" class="node">
<title>Node5</title>
<g id="a_Node000005"><a xlink:title=" ">
<polygon fill="#e0e0e0" stroke="#999999" points="513.5,-96 382.5,-96 382.5,-66 513.5,-66 513.5,-96"/>
<text text-anchor="start" x="390.5" y="-84" font-family="Helvetica,sans-Serif" font-size="10.00">deal.II/particles/particle</text>
<text text-anchor="middle" x="448" y="-73" font-family="Helvetica,sans-Serif" font-size="10.00">_iterator.h</text>
</a>
</g>
</g>
<!-- Node2&#45;&gt;Node5 -->
<g id="edge4_Node000002_Node000005" class="edge">
<title>Node2&#45;&gt;Node5</title>
<g id="a_edge4_Node000002_Node000005"><a xlink:title=" ">
<path fill="none" stroke="#63b8ff" d="M560.47,-137.37C541.42,-127.99 510.4,-112.72 485.77,-100.59"/>
<polygon fill="#63b8ff" stroke="#63b8ff" points="487.19,-97.39 476.67,-96.12 484.1,-103.67 487.19,-97.39"/>
</a>
</g>
</g>
<!-- Node7&#45;&gt;Node2 -->
<g id="edge30_Node000007_Node000002" class="edge">
<title>Node7&#45;&gt;Node2</title>
<g id="a_edge30_Node000007_Node000002"><a xlink:title=" ">
<path fill="none" stroke="#63b8ff" d="M417.95,-203.37C450.31,-192.17 506.94,-172.58 543.43,-159.96"/>
<polygon fill="#63b8ff" stroke="#63b8ff" points="544.84,-163.17 553.15,-156.6 542.56,-156.56 544.84,-163.17"/>
</a>
</g>
</g>
<!-- Node7&#45;&gt;Node4 -->
<g id="edge31_Node000007_Node000004" class="edge">
<title>Node7&#45;&gt;Node4</title>
<g id="a_edge31_Node000007_Node000004"><a xlink:title=" ">
<path fill="none" stroke="#63b8ff" d="M328.74,-210C253.5,-206.15 135.62,-194.89 108,-162 88.06,-138.26 124.44,-111.22 151.81,-95.44"/>
<polygon fill="#63b8ff" stroke="#63b8ff" points="153.6,-98.45 160.65,-90.54 150.2,-92.33 153.6,-98.45"/>
</a>
</g>
</g>
<!-- Node7&#45;&gt;Node5 -->
<g id="edge33_Node000007_Node000005" class="edge">
<title>Node7&#45;&gt;Node5</title>
<g id="a_edge33_Node000007_Node000005"><a xlink:title=" ">
<path fill="none" stroke="#63b8ff" d="M437.16,-203.5C508.26,-189.75 640.37,-163.99 642,-162 650.45,-151.69 650.17,-142.54 642,-132 634.39,-122.17 574.77,-107.73 523.61,-96.89"/>
<polygon fill="#63b8ff" stroke="#63b8ff" points="524.01,-93.4 513.51,-94.77 522.58,-100.25 524.01,-93.4"/>
</a>
</g>
</g>
<!-- Node8 -->
<g id="Node000008" class="node">
<title>Node8</title>
<g id="a_Node000008"><a xlink:href="core_2utilities_8h.html" target="_top" xlink:title=" ">
<polygon fill="white" stroke="#666666" points="972,-156.5 886,-156.5 886,-137.5 972,-137.5 972,-156.5"/>
<text text-anchor="middle" x="929" y="-144.5" font-family="Helvetica,sans-Serif" font-size="10.00">core/utilities.h</text>
</a>
</g>
</g>
<!-- Node7&#45;&gt;Node8 -->
<g id="edge7_Node000007_Node000008" class="edge">
<title>Node7&#45;&gt;Node8</title>
<g id="a_edge7_Node000007_Node000008"><a xlink:title=" ">
<path fill="none" stroke="#63b8ff" d="M434.21,-203.49C444.56,-201.52 455.66,-199.55 466,-198 613.72,-175.9 789.35,-159.66 875.68,-152.33"/>
<polygon fill="#63b8ff" stroke="#63b8ff" points="876.09,-155.81 885.76,-151.48 875.5,-148.83 876.09,-155.81"/>
</a>
</g>
</g>
<!-- Node22 -->
<g id="Node000022" class="node">
<title>Node22</title>
<g id="a_Node000022"><a xlink:title=" ">
<polygon fill="#e0e0e0" stroke="#999999" points="1835.5,-90.5 1788.5,-90.5 1788.5,-71.5 1835.5,-71.5 1835.5,-90.5"/>
<text text-anchor="middle" x="1812" y="-78.5" font-family="Helvetica,sans-Serif" font-size="10.00">vector</text>
</a>
</g>
</g>
<!-- Node7&#45;&gt;Node22 -->
<g id="edge35_Node000007_Node000022" class="edge">
<title>Node7&#45;&gt;Node22</title>
<g id="a_edge35_Node000007_Node000022"><a xlink:title=" ">
<path fill="none" stroke="#63b8ff" d="M433.02,-203.43C443.7,-201.39 455.25,-199.4 466,-198 1046.84,-122.28 1212.08,-239.45 1780,-96 1781.9,-95.52 1783.82,-94.94 1785.74,-94.29"/>
<polygon fill="#63b8ff" stroke="#63b8ff" points="1787.06,-97.53 1795.1,-90.63 1784.51,-91.02 1787.06,-97.53"/>
</a>
</g>
</g>
<!-- Node23 -->
<g id="Node000023" class="node">
<title>Node23</title>
<g id="a_Node000023"><a xlink:href="boundary__cells__info__struct_8h.html" target="_top" xlink:title=" ">
<polygon fill="white" stroke="#666666" points="232.5,-162 117.5,-162 117.5,-132 232.5,-132 232.5,-162"/>
<text text-anchor="start" x="125.5" y="-150" font-family="Helvetica,sans-Serif" font-size="10.00">dem/boundary_cells</text>
<text text-anchor="middle" x="175" y="-139" font-family="Helvetica,sans-Serif" font-size="10.00">_info_struct.h</text>
</a>
</g>
</g>
<!-- Node7&#45;&gt;Node23 -->
<g id="edge26_Node000007_Node000023" class="edge">
<title>Node7&#45;&gt;Node23</title>
<g id="a_edge26_Node000007_Node000023"><a xlink:title=" ">
<path fill="none" stroke="#63b8ff" d="M363.6,-203.37C330.25,-193.58 275.03,-177.37 232.93,-165.01"/>
<polygon fill="#63b8ff" stroke="#63b8ff" points="233.66,-161.57 223.08,-162.12 231.69,-168.29 233.66,-161.57"/>
</a>
</g>
</g>
<!-- Node24 -->
<g id="Node000024" class="node">
<title>Node24</title>
<g id="a_Node000024"><a xlink:title=" ">
<polygon fill="#e0e0e0" stroke="#999999" points="102,-96 0,-96 0,-66 102,-66 102,-96"/>
<text text-anchor="start" x="8" y="-84" font-family="Helvetica,sans-Serif" font-size="10.00">deal.II/distributed</text>
<text text-anchor="middle" x="51" y="-73" font-family="Helvetica,sans-Serif" font-size="10.00">/tria.h</text>
</a>
</g>
</g>
<!-- Node7&#45;&gt;Node24 -->
<g id="edge32_Node000007_Node000024" class="edge">
<title>Node7&#45;&gt;Node24</title>
<g id="a_edge32_Node000007_Node000024"><a xlink:title=" ">
<path fill="none" stroke="#63b8ff" d="M328.72,-207.33C253.75,-200.81 135.44,-186.9 99,-162 79.25,-148.51 66.32,-123.97 58.9,-105.61"/>
<polygon fill="#63b8ff" stroke="#63b8ff" points="62.14,-104.28 55.35,-96.16 55.59,-106.75 62.14,-104.28"/>
</a>
</g>
</g>
<!-- Node25 -->
<g id="Node000025" class="node">
<title>Node25</title>
<g id="a_Node000025"><a xlink:title=" ">
<polygon fill="#e0e0e0" stroke="#999999" points="343.5,-156.5 250.5,-156.5 250.5,-137.5 343.5,-137.5 343.5,-156.5"/>
<text text-anchor="middle" x="297" y="-144.5" font-family="Helvetica,sans-Serif" font-size="10.00">unordered_map</text>
</a>
</g>
</g>
<!-- Node7&#45;&gt;Node25 -->
<g id="edge34_Node000007_Node000025" class="edge">
<title>Node7&#45;&gt;Node25</title>
<g id="a_edge34_Node000007_Node000025"><a xlink:title=" ">
<path fill="none" stroke="#63b8ff" d="M380.05,-203.37C364.31,-192.87 337.5,-175 318.6,-162.4"/>
<polygon fill="#63b8ff" stroke="#63b8ff" points="320.31,-159.33 310.05,-156.7 316.43,-165.16 320.31,-159.33"/>
</a>
</g>
</g>
<!-- Node26 -->
<g id="Node000026" class="node">
<title>Node26</title>
<g id="a_Node000026"><a xlink:href="unordered__dense_8h.html" target="_top" xlink:title=" ">
<polygon fill="white" stroke="#666666" points="504.5,-156.5 361.5,-156.5 361.5,-137.5 504.5,-137.5 504.5,-156.5"/>
<text text-anchor="middle" x="433" y="-144.5" font-family="Helvetica,sans-Serif" font-size="10.00">ankerl/unordered_dense.h</text>
</a>
</g>
</g>
<!-- Node7&#45;&gt;Node26 -->
<g id="edge36_Node000007_Node000026" class="edge">
<title>Node7&#45;&gt;Node26</title>
<g id="a_edge36_Node000007_Node000026"><a xlink:title=" ">
<path fill="none" stroke="#63b8ff" d="M398.39,-203.37C404.44,-193.69 414.41,-177.74 422.1,-165.44"/>
<polygon fill="#63b8ff" stroke="#63b8ff" points="425.1,-167.24 427.43,-156.91 419.17,-163.53 425.1,-167.24"/>
</a>
</g>
</g>
<!-- Node8&#45;&gt;Node3 -->
<g id="edge13_Node000008_Node000003" class="edge">
<title>Node8&#45;&gt;Node3</title>
<g id="a_edge13_Node000008_Node000003"><a xlink:title=" ">
<path fill="none" stroke="#63b8ff" d="M885.88,-143.97C792.12,-139.16 562.91,-125.19 373,-96 366.8,-95.05 360.31,-93.86 353.93,-92.57"/>
<polygon fill="#63b8ff" stroke="#63b8ff" points="354.57,-89.13 344.06,-90.5 353.13,-95.98 354.57,-89.13"/>
</a>
</g>
</g>
<!-- Node8&#45;&gt;Node4 -->
<g id="edge15_Node000008_Node000004" class="edge">
<title>Node8&#45;&gt;Node4</title>
<g id="a_edge15_Node000008_Node000004"><a xlink:title=" ">
<path fill="none" stroke="#63b8ff" d="M885.95,-143.61C756.13,-136.27 369.84,-113.53 245,-96 238.28,-95.06 231.22,-93.84 224.32,-92.51"/>
<polygon fill="#63b8ff" stroke="#63b8ff" points="224.85,-89.05 214.36,-90.51 223.47,-95.91 224.85,-89.05"/>
</a>
</g>
</g>
<!-- Node8&#45;&gt;Node5 -->
<g id="edge18_Node000008_Node000005" class="edge">
<title>Node8&#45;&gt;Node5</title>
<g id="a_edge18_Node000008_Node000005"><a xlink:title=" ">
<path fill="none" stroke="#63b8ff" d="M885.8,-141.62C813.08,-134.05 661.39,-117.39 523.62,-96.2"/>
<polygon fill="#63b8ff" stroke="#63b8ff" points="524.15,-92.74 513.73,-94.66 523.08,-99.65 524.15,-92.74"/>
</a>
</g>
</g>
<!-- Node9 -->
<g id="Node000009" class="node">
<title>Node9</title>
<g id="a_Node000009"><a xlink:href="output__struct_8h.html" target="_top" xlink:title=" ">
<polygon fill="white" stroke="#666666" points="1181,-90.5 1067,-90.5 1067,-71.5 1181,-71.5 1181,-90.5"/>
<text text-anchor="middle" x="1124" y="-78.5" font-family="Helvetica,sans-Serif" font-size="10.00">core/output_struct.h</text>
</a>
</g>
</g>
<!-- Node8&#45;&gt;Node9 -->
<g id="edge8_Node000008_Node000009" class="edge">
<title>Node8&#45;&gt;Node9</title>
<g id="a_edge8_Node000008_Node000009"><a xlink:title=" ">
<path fill="none" stroke="#63b8ff" d="M955.3,-137.37C989.56,-126.12 1049.61,-106.42 1088.05,-93.8"/>
<polygon fill="#63b8ff" stroke="#63b8ff" points="1089.4,-97.04 1097.81,-90.6 1087.21,-90.39 1089.4,-97.04"/>
</a>
</g>
</g>
<!-- Node10 -->
<g id="Node000010" class="node">
<title>Node10</title>
<g id="a_Node000010"><a xlink:title=" ">
<polygon fill="#e0e0e0" stroke="#999999" points="1089.5,-30 988.5,-30 988.5,0 1089.5,0 1089.5,-30"/>
<text text-anchor="start" x="996.5" y="-18" font-family="Helvetica,sans-Serif" font-size="10.00">deal.II/base/table</text>
<text text-anchor="middle" x="1039" y="-7" font-family="Helvetica,sans-Serif" font-size="10.00">_handler.h</text>
</a>
</g>
</g>
<!-- Node8&#45;&gt;Node10 -->
<g id="edge14_Node000008_Node000010" class="edge">
<title>Node8&#45;&gt;Node10</title>
<g id="a_edge14_Node000008_Node000010"><a xlink:title=" ">
<path fill="none" stroke="#63b8ff" d="M956.61,-137.39C976.82,-129.69 1003.33,-116.42 1019,-96 1031.22,-80.07 1036.06,-57.57 1037.93,-40.5"/>
<polygon fill="#63b8ff" stroke="#63b8ff" points="1041.44,-40.43 1038.78,-30.18 1034.47,-39.86 1041.44,-40.43"/>
</a>
</g>
</g>
<!-- Node12 -->
<g id="Node000012" class="node">
<title>Node12</title>
<g id="a_Node000012"><a xlink:title=" ">
<polygon fill="#e0e0e0" stroke="#999999" points="1329,-96 1199,-96 1199,-66 1329,-66 1329,-96"/>
<text text-anchor="start" x="1207" y="-84" font-family="Helvetica,sans-Serif" font-size="10.00">deal.II/base/conditional</text>
<text text-anchor="middle" x="1264" y="-73" font-family="Helvetica,sans-Serif" font-size="10.00">_ostream.h</text>
</a>
</g>
</g>
<!-- Node8&#45;&gt;Node12 -->
<g id="edge11_Node000008_Node000012" class="edge">
<title>Node8&#45;&gt;Node12</title>
<g id="a_edge11_Node000008_Node000012"><a xlink:title=" ">
<path fill="none" stroke="#63b8ff" d="M972.11,-137.76C1026.82,-127.31 1122.1,-109.11 1188.87,-96.35"/>
<polygon fill="#63b8ff" stroke="#63b8ff" points="1189.76,-99.75 1198.92,-94.43 1188.44,-92.87 1189.76,-99.75"/>
</a>
</g>
</g>
<!-- Node13 -->
<g id="Node000013" class="node">
<title>Node13</title>
<g id="a_Node000013"><a xlink:title=" ">
<polygon fill="#e0e0e0" stroke="#999999" points="1474.5,-96 1347.5,-96 1347.5,-66 1474.5,-66 1474.5,-96"/>
<text text-anchor="start" x="1355.5" y="-84" font-family="Helvetica,sans-Serif" font-size="10.00">deal.II/base/parameter</text>
<text text-anchor="middle" x="1411" y="-73" font-family="Helvetica,sans-Serif" font-size="10.00">_handler.h</text>
</a>
</g>
</g>
<!-- Node8&#45;&gt;Node13 -->
<g id="edge12_Node000008_Node000013" class="edge">
<title>Node8&#45;&gt;Node13</title>
<g id="a_edge12_Node000008_Node000013"><a xlink:title=" ">
<path fill="none" stroke="#63b8ff" d="M972.12,-141.7C1045.09,-134.21 1197.76,-117.64 1337.32,-96.04"/>
<polygon fill="#63b8ff" stroke="#63b8ff" points="1338,-99.47 1347.34,-94.47 1336.92,-92.56 1338,-99.47"/>
</a>
</g>
</g>
<!-- Node14 -->
<g id="Node000014" class="node">
<title>Node14</title>
<g id="a_Node000014"><a xlink:title=" ">
<polygon fill="#e0e0e0" stroke="#999999" points="1633,-90.5 1493,-90.5 1493,-71.5 1633,-71.5 1633,-90.5"/>
<text text-anchor="middle" x="1563" y="-78.5" font-family="Helvetica,sans-Serif" font-size="10.00">deal.II/dofs/dof_handler.h</text>
</a>
</g>
</g>
<!-- Node8&#45;&gt;Node14 -->
<g id="edge16_Node000008_Node000014" class="edge">
<title>Node8&#45;&gt;Node14</title>
<g id="a_edge16_Node000008_Node000014"><a xlink:title=" ">
<path fill="none" stroke="#63b8ff" d="M972.32,-143.36C1065.96,-137.39 1294.13,-121.33 1484,-96 1492.05,-94.93 1500.53,-93.62 1508.83,-92.23"/>
<polygon fill="#63b8ff" stroke="#63b8ff" points="1509.55,-95.66 1518.81,-90.52 1508.37,-88.76 1509.55,-95.66"/>
</a>
</g>
</g>
<!-- Node15 -->
<g id="Node000015" class="node">
<title>Node15</title>
<g id="a_Node000015"><a xlink:title=" ">
<polygon fill="#e0e0e0" stroke="#999999" points="1770.5,-90.5 1651.5,-90.5 1651.5,-71.5 1770.5,-71.5 1770.5,-90.5"/>
<text text-anchor="middle" x="1711" y="-78.5" font-family="Helvetica,sans-Serif" font-size="10.00">deal.II/fe/fe_values.h</text>
</a>
</g>
</g>
<!-- Node8&#45;&gt;Node15 -->
<g id="edge17_Node000008_Node000015" class="edge">
<title>Node8&#45;&gt;Node15</title>
<g id="a_edge17_Node000008_Node000015"><a xlink:title=" ">
<path fill="none" stroke="#63b8ff" d="M972.2,-144.93C1083.61,-141.74 1389.63,-130.3 1642,-96 1648.92,-95.06 1656.18,-93.84 1663.29,-92.52"/>
<polygon fill="#63b8ff" stroke="#63b8ff" points="1664.4,-95.87 1673.55,-90.52 1663.07,-89 1664.4,-95.87"/>
</a>
</g>
</g>
<!-- Node16 -->
<g id="Node000016" class="node">
<title>Node16</title>
<g id="a_Node000016"><a xlink:title=" ">
<polygon fill="#e0e0e0" stroke="#999999" points="636.5,-96 531.5,-96 531.5,-66 636.5,-66 636.5,-96"/>
<text text-anchor="start" x="539.5" y="-84" font-family="Helvetica,sans-Serif" font-size="10.00">boost/archive/text</text>
<text text-anchor="middle" x="584" y="-73" font-family="Helvetica,sans-Serif" font-size="10.00">_iarchive.hpp</text>
</a>
</g>
</g>
<!-- Node8&#45;&gt;Node16 -->
<g id="edge19_Node000008_Node000016" class="edge">
<title>Node8&#45;&gt;Node16</title>
<g id="a_edge19_Node000008_Node000016"><a xlink:title=" ">
<path fill="none" stroke="#63b8ff" d="M885.57,-139.06C831.7,-130.31 736.85,-114.37 646.4,-96.23"/>
<polygon fill="#63b8ff" stroke="#63b8ff" points="647.03,-92.79 636.54,-94.24 645.65,-99.65 647.03,-92.79"/>
</a>
</g>
</g>
<!-- Node17 -->
<g id="Node000017" class="node">
<title>Node17</title>
<g id="a_Node000017"><a xlink:title=" ">
<polygon fill="#e0e0e0" stroke="#999999" points="759.5,-96 654.5,-96 654.5,-66 759.5,-66 759.5,-96"/>
<text text-anchor="start" x="662.5" y="-84" font-family="Helvetica,sans-Serif" font-size="10.00">boost/archive/text</text>
<text text-anchor="middle" x="707" y="-73" font-family="Helvetica,sans-Serif" font-size="10.00">_oarchive.hpp</text>
</a>
</g>
</g>
<!-- Node8&#45;&gt;Node17 -->
<g id="edge20_Node000008_Node000017" class="edge">
<title>Node8&#45;&gt;Node17</title>
<g id="a_edge20_Node000008_Node000017"><a xlink:title=" ">
<path fill="none" stroke="#63b8ff" d="M899.06,-137.37C865.02,-127.56 808.62,-111.3 765.73,-98.93"/>
<polygon fill="#63b8ff" stroke="#63b8ff" points="766.54,-95.52 755.96,-96.12 764.6,-102.25 766.54,-95.52"/>
</a>
</g>
</g>
<!-- Node18 -->
<g id="Node000018" class="node">
<title>Node18</title>
<g id="a_Node000018"><a xlink:title=" ">
<polygon fill="#e0e0e0" stroke="#999999" points="832.5,-90.5 777.5,-90.5 777.5,-71.5 832.5,-71.5 832.5,-90.5"/>
<text text-anchor="middle" x="805" y="-78.5" font-family="Helvetica,sans-Serif" font-size="10.00">fstream</text>
</a>
</g>
</g>
<!-- Node8&#45;&gt;Node18 -->
<g id="edge21_Node000008_Node000018" class="edge">
<title>Node8&#45;&gt;Node18</title>
<g id="a_edge21_Node000008_Node000018"><a xlink:title=" ">
<path fill="none" stroke="#63b8ff" d="M912.28,-137.37C891.38,-126.59 855.41,-108.02 830.93,-95.38"/>
<polygon fill="#63b8ff" stroke="#63b8ff" points="832.35,-92.18 821.85,-90.7 829.14,-98.4 832.35,-92.18"/>
</a>
</g>
</g>
<!-- Node19 -->
<g id="Node000019" class="node">
<title>Node19</title>
<g id="a_Node000019"><a xlink:title=" ">
<polygon fill="#e0e0e0" stroke="#999999" points="889,-90.5 851,-90.5 851,-71.5 889,-71.5 889,-90.5"/>
<text text-anchor="middle" x="870" y="-78.5" font-family="Helvetica,sans-Serif" font-size="10.00">map</text>
</a>
</g>
</g>
<!-- Node8&#45;&gt;Node19 -->
<g id="edge22_Node000008_Node000019" class="edge">
<title>Node8&#45;&gt;Node19</title>
<g id="a_edge22_Node000008_Node000019"><a xlink:title=" ">
<path fill="none" stroke="#63b8ff" d="M921.04,-137.37C911.86,-127.4 896.54,-110.79 885.08,-98.36"/>
<polygon fill="#63b8ff" stroke="#63b8ff" points="887.56,-95.89 878.21,-90.91 882.41,-100.63 887.56,-95.89"/>
</a>
</g>
</g>
<!-- Node20 -->
<g id="Node000020" class="node">
<title>Node20</title>
<g id="a_Node000020"><a xlink:title=" ">
<polygon fill="#e0e0e0" stroke="#999999" points="951,-90.5 907,-90.5 907,-71.5 951,-71.5 951,-90.5"/>
<text text-anchor="middle" x="929" y="-78.5" font-family="Helvetica,sans-Serif" font-size="10.00">string</text>
</a>
</g>
</g>
<!-- Node8&#45;&gt;Node20 -->
<g id="edge23_Node000008_Node000020" class="edge">
<title>Node8&#45;&gt;Node20</title>
<g id="a_edge23_Node000008_Node000020"><a xlink:title=" ">
<path fill="none" stroke="#63b8ff" d="M929,-137.37C929,-128.16 929,-113.29 929,-101.27"/>
<polygon fill="#63b8ff" stroke="#63b8ff" points="932.5,-100.91 929,-90.91 925.5,-100.91 932.5,-100.91"/>
</a>
</g>
</g>
<!-- Node21 -->
<g id="Node000021" class="node">
<title>Node21</title>
<g id="a_Node000021"><a xlink:title=" ">
<polygon fill="#e0e0e0" stroke="#999999" points="1010.5,-90.5 969.5,-90.5 969.5,-71.5 1010.5,-71.5 1010.5,-90.5"/>
<text text-anchor="middle" x="990" y="-78.5" font-family="Helvetica,sans-Serif" font-size="10.00">tuple</text>
</a>
</g>
</g>
<!-- Node8&#45;&gt;Node21 -->
<g id="edge24_Node000008_Node000021" class="edge">
<title>Node8&#45;&gt;Node21</title>
<g id="a_edge24_Node000008_Node000021"><a xlink:title=" ">
<path fill="none" stroke="#63b8ff" d="M937.23,-137.37C946.72,-127.4 962.56,-110.79 974.41,-98.36"/>
<polygon fill="#63b8ff" stroke="#63b8ff" points="977.15,-100.56 981.51,-90.91 972.08,-95.73 977.15,-100.56"/>
</a>
</g>
</g>
<!-- Node8&#45;&gt;Node22 -->
<g id="edge25_Node000008_Node000022" class="edge">
<title>Node8&#45;&gt;Node22</title>
<g id="a_edge25_Node000008_Node000022"><a xlink:title=" ">
<path fill="none" stroke="#63b8ff" d="M972.25,-144.35C1134.44,-138.06 1701.21,-114.91 1780,-96 1781.95,-95.53 1783.92,-94.95 1785.89,-94.3"/>
<polygon fill="#63b8ff" stroke="#63b8ff" points="1787.41,-97.46 1795.45,-90.57 1784.86,-90.94 1787.41,-97.46"/>
</a>
</g>
</g>
<!-- Node9&#45;&gt;Node10 -->
<g id="edge9_Node000009_Node000010" class="edge">
<title>Node9&#45;&gt;Node10</title>
<g id="a_edge9_Node000009_Node000010"><a xlink:title=" ">
<path fill="none" stroke="#63b8ff" d="M1112.54,-71.37C1100.68,-62.44 1081.75,-48.19 1066.06,-36.38"/>
<polygon fill="#63b8ff" stroke="#63b8ff" points="1067.84,-33.33 1057.75,-30.12 1063.63,-38.93 1067.84,-33.33"/>
</a>
</g>
</g>
<!-- Node11 -->
<g id="Node000011" class="node">
<title>Node11</title>
<g id="a_Node000011"><a xlink:title=" ">
<polygon fill="#e0e0e0" stroke="#999999" points="1226.5,-30 1107.5,-30 1107.5,0 1226.5,0 1226.5,-30"/>
<text text-anchor="start" x="1115.5" y="-18" font-family="Helvetica,sans-Serif" font-size="10.00">deal.II/numerics/data</text>
<text text-anchor="middle" x="1167" y="-7" font-family="Helvetica,sans-Serif" font-size="10.00">_postprocessor.h</text>
</a>
</g>
</g>
<!-- Node9&#45;&gt;Node11 -->
<g id="edge10_Node000009_Node000011" class="edge">
<title>Node9&#45;&gt;Node11</title>
<g id="a_edge10_Node000009_Node000011"><a xlink:title=" ">
<path fill="none" stroke="#63b8ff" d="M1129.8,-71.37C1135.37,-63.08 1144.03,-50.18 1151.6,-38.92"/>
<polygon fill="#63b8ff" stroke="#63b8ff" points="1154.68,-40.61 1157.35,-30.36 1148.87,-36.71 1154.68,-40.61"/>
</a>
</g>
</g>
<!-- Node23&#45;&gt;Node3 -->
<g id="edge27_Node000023_Node000003" class="edge">
<title>Node23&#45;&gt;Node3</title>
<g id="a_edge27_Node000023_Node000003"><a xlink:title=" ">
<path fill="none" stroke="#63b8ff" d="M204.41,-131.95C227.49,-120.93 259.38,-105.7 281.86,-94.96"/>
<polygon fill="#63b8ff" stroke="#63b8ff" points="283.65,-97.99 291.17,-90.52 280.63,-91.67 283.65,-97.99"/>
</a>
</g>
</g>
<!-- Node23&#45;&gt;Node4 -->
<g id="edge28_Node000023_Node000004" class="edge">
<title>Node23&#45;&gt;Node4</title>
<g id="a_edge28_Node000023_Node000004"><a xlink:title=" ">
<path fill="none" stroke="#63b8ff" d="M175.67,-131.8C176.09,-122.7 176.65,-110.79 177.11,-100.9"/>
<polygon fill="#63b8ff" stroke="#63b8ff" points="180.61,-101 177.59,-90.84 173.62,-100.67 180.61,-101"/>
</a>
</g>
</g>
<!-- Node23&#45;&gt;Node24 -->
<g id="edge29_Node000023_Node000024" class="edge">
<title>Node23&#45;&gt;Node24</title>
<g id="a_edge29_Node000023_Node000024"><a xlink:title=" ">
<path fill="none" stroke="#63b8ff" d="M147.79,-131.95C130.02,-122.78 106.62,-110.71 87.28,-100.72"/>
<polygon fill="#63b8ff" stroke="#63b8ff" points="88.64,-97.49 78.15,-96.01 85.43,-103.71 88.64,-97.49"/>
</a>
</g>
</g>
</g>
</svg>
