<?xml version="1.0" encoding="UTF-8" standalone="no"?>
<!DOCTYPE svg PUBLIC "-//W3C//DTD SVG 1.1//EN"
 "http://www.w3.org/Graphics/SVG/1.1/DTD/svg11.dtd">
<!-- Generated by graphviz version 2.43.0 (0)
 -->
<!-- Title: /home/runner/work/lethe/lethe/source/dem/update_local_particle_containers.cc Pages: 1 -->
<svg width="1988pt" height="379pt"
 viewBox="0.00 0.00 1987.97 379.00" xmlns="http://www.w3.org/2000/svg" xmlns:xlink="http://www.w3.org/1999/xlink">
<g id="graph0" class="graph" transform="scale(1 1) rotate(0) translate(4 375)">
<title>/home/runner/work/lethe/lethe/source/dem/update_local_particle_containers.cc</title>
<!-- Node1 -->
<g id="Node000001" class="node">
<title>Node1</title>
<g id="a_Node000001"><a xlink:title=" ">
<polygon fill="#999999" stroke="#666666" points="1635,-371 1478,-371 1478,-330 1635,-330 1635,-371"/>
<text text-anchor="start" x="1486" y="-359" font-family="Helvetica,sans-Serif" font-size="10.00">/home/runner/work/lethe</text>
<text text-anchor="start" x="1486" y="-348" font-family="Helvetica,sans-Serif" font-size="10.00">/lethe/source/dem/update</text>
<text text-anchor="middle" x="1556.5" y="-337" font-family="Helvetica,sans-Serif" font-size="10.00">_local_particle_containers.cc</text>
</a>
</g>
</g>
<!-- Node2 -->
<g id="Node000002" class="node">
<title>Node2</title>
<g id="a_Node000002"><a xlink:href="dem__action__manager_8h.html" target="_top" xlink:title=" ">
<polygon fill="white" stroke="#666666" points="1465,-288.5 1310,-288.5 1310,-269.5 1465,-269.5 1465,-288.5"/>
<text text-anchor="middle" x="1387.5" y="-276.5" font-family="Helvetica,sans-Serif" font-size="10.00">dem/dem_action_manager.h</text>
</a>
</g>
</g>
<!-- Node1&#45;&gt;Node2 -->
<g id="edge1_Node000001_Node000002" class="edge">
<title>Node1&#45;&gt;Node2</title>
<g id="a_edge1_Node000001_Node000002"><a xlink:title=" ">
<path fill="none" stroke="#63b8ff" d="M1508.97,-329.96C1479.67,-317.9 1442.98,-302.81 1417.63,-292.39"/>
<polygon fill="#63b8ff" stroke="#63b8ff" points="1418.76,-289.07 1408.18,-288.5 1416.1,-295.54 1418.76,-289.07"/>
</a>
</g>
</g>
<!-- Node3 -->
<g id="Node000003" class="node">
<title>Node3</title>
<g id="a_Node000003"><a xlink:href="update__local__particle__containers_8h.html" target="_top" xlink:title=" ">
<polygon fill="white" stroke="#666666" points="1629.5,-294 1483.5,-294 1483.5,-264 1629.5,-264 1629.5,-294"/>
<text text-anchor="start" x="1491.5" y="-282" font-family="Helvetica,sans-Serif" font-size="10.00">dem/update_local_particle</text>
<text text-anchor="middle" x="1556.5" y="-271" font-family="Helvetica,sans-Serif" font-size="10.00">_containers.h</text>
</a>
</g>
</g>
<!-- Node1&#45;&gt;Node3 -->
<g id="edge2_Node000001_Node000003" class="edge">
<title>Node1&#45;&gt;Node3</title>
<g id="a_edge2_Node000001_Node000003"><a xlink:title=" ">
<path fill="none" stroke="#63b8ff" d="M1556.5,-329.77C1556.5,-321.85 1556.5,-312.63 1556.5,-304.3"/>
<polygon fill="#63b8ff" stroke="#63b8ff" points="1560,-304.04 1556.5,-294.04 1553,-304.04 1560,-304.04"/>
</a>
</g>
</g>
<!-- Node29 -->
<g id="Node000029" class="node">
<title>Node29</title>
<g id="a_Node000029"><a xlink:title=" ">
<polygon fill="#e0e0e0" stroke="#999999" points="1770,-228 1639,-228 1639,-198 1770,-198 1770,-228"/>
<text text-anchor="start" x="1647" y="-216" font-family="Helvetica,sans-Serif" font-size="10.00">deal.II/particles/particle</text>
<text text-anchor="middle" x="1704.5" y="-205" font-family="Helvetica,sans-Serif" font-size="10.00">_handler.h</text>
</a>
</g>
</g>
<!-- Node1&#45;&gt;Node29 -->
<g id="edge40_Node000001_Node000029" class="edge">
<title>Node1&#45;&gt;Node29</title>
<g id="a_edge40_Node000001_Node000029"><a xlink:title=" ">
<path fill="none" stroke="#63b8ff" d="M1590.01,-329.9C1605.53,-320.07 1623.75,-307.42 1638.5,-294 1657.78,-276.46 1676.36,-253.18 1688.87,-236.25"/>
<polygon fill="#63b8ff" stroke="#63b8ff" points="1691.78,-238.2 1694.83,-228.05 1686.12,-234.08 1691.78,-238.2"/>
</a>
</g>
</g>
<!-- Node4 -->
<g id="Node000004" class="node">
<title>Node4</title>
<g id="a_Node000004"><a xlink:href="contact__info_8h.html" target="_top" xlink:title=" ">
<polygon fill="white" stroke="#666666" points="1481.5,-156.5 1371.5,-156.5 1371.5,-137.5 1481.5,-137.5 1481.5,-156.5"/>
<text text-anchor="middle" x="1426.5" y="-144.5" font-family="Helvetica,sans-Serif" font-size="10.00">dem/contact_info.h</text>
</a>
</g>
</g>
<!-- Node3&#45;&gt;Node4 -->
<g id="edge3_Node000003_Node000004" class="edge">
<title>Node3&#45;&gt;Node4</title>
<g id="a_edge3_Node000003_Node000004"><a xlink:title=" ">
<path fill="none" stroke="#63b8ff" d="M1531.55,-263.96C1516.64,-254.86 1497.86,-242.1 1483.5,-228 1464.17,-209.03 1446.89,-182.8 1436.55,-165.63"/>
<polygon fill="#63b8ff" stroke="#63b8ff" points="1439.38,-163.54 1431.3,-156.68 1433.34,-167.08 1439.38,-163.54"/>
</a>
</g>
</g>
<!-- Node8 -->
<g id="Node000008" class="node">
<title>Node8</title>
<g id="a_Node000008"><a xlink:href="contact__type_8h.html" target="_top" xlink:title=" ">
<polygon fill="white" stroke="#666666" points="1436,-222.5 1323,-222.5 1323,-203.5 1436,-203.5 1436,-222.5"/>
<text text-anchor="middle" x="1379.5" y="-210.5" font-family="Helvetica,sans-Serif" font-size="10.00">dem/contact_type.h</text>
</a>
</g>
</g>
<!-- Node3&#45;&gt;Node8 -->
<g id="edge7_Node000003_Node000008" class="edge">
<title>Node3&#45;&gt;Node8</title>
<g id="a_edge7_Node000003_Node000008"><a xlink:title=" ">
<path fill="none" stroke="#63b8ff" d="M1517.66,-263.95C1486.21,-252.58 1442.38,-236.74 1412.59,-225.96"/>
<polygon fill="#63b8ff" stroke="#63b8ff" points="1413.65,-222.63 1403.06,-222.52 1411.27,-229.21 1413.65,-222.63"/>
</a>
</g>
</g>
<!-- Node9 -->
<g id="Node000009" class="node">
<title>Node9</title>
<g id="a_Node000009"><a xlink:href="data__containers_8h.html" target="_top" xlink:title=" ">
<polygon fill="white" stroke="#666666" points="1620.5,-222.5 1492.5,-222.5 1492.5,-203.5 1620.5,-203.5 1620.5,-222.5"/>
<text text-anchor="middle" x="1556.5" y="-210.5" font-family="Helvetica,sans-Serif" font-size="10.00">dem/data_containers.h</text>
</a>
</g>
</g>
<!-- Node3&#45;&gt;Node9 -->
<g id="edge8_Node000003_Node000009" class="edge">
<title>Node3&#45;&gt;Node9</title>
<g id="a_edge8_Node000003_Node000009"><a xlink:title=" ">
<path fill="none" stroke="#63b8ff" d="M1556.5,-263.8C1556.5,-254.7 1556.5,-242.79 1556.5,-232.9"/>
<polygon fill="#63b8ff" stroke="#63b8ff" points="1560,-232.84 1556.5,-222.84 1553,-232.84 1560,-232.84"/>
</a>
</g>
</g>
<!-- Node3&#45;&gt;Node29 -->
<g id="edge39_Node000003_Node000029" class="edge">
<title>Node3&#45;&gt;Node29</title>
<g id="a_edge39_Node000003_Node000029"><a xlink:title=" ">
<path fill="none" stroke="#63b8ff" d="M1588.98,-263.95C1610.67,-254.58 1639.39,-242.16 1662.77,-232.05"/>
<polygon fill="#63b8ff" stroke="#63b8ff" points="1664.31,-235.19 1672.1,-228.01 1661.53,-228.77 1664.31,-235.19"/>
</a>
</g>
</g>
<!-- Node5 -->
<g id="Node000005" class="node">
<title>Node5</title>
<g id="a_Node000005"><a xlink:title=" ">
<polygon fill="#e0e0e0" stroke="#999999" points="1519.5,-90.5 1409.5,-90.5 1409.5,-71.5 1519.5,-71.5 1519.5,-90.5"/>
<text text-anchor="middle" x="1464.5" y="-78.5" font-family="Helvetica,sans-Serif" font-size="10.00">deal.II/base/point.h</text>
</a>
</g>
</g>
<!-- Node4&#45;&gt;Node5 -->
<g id="edge4_Node000004_Node000005" class="edge">
<title>Node4&#45;&gt;Node5</title>
<g id="a_edge4_Node000004_Node000005"><a xlink:title=" ">
<path fill="none" stroke="#63b8ff" d="M1431.62,-137.37C1437.32,-127.78 1446.66,-112.05 1453.93,-99.8"/>
<polygon fill="#63b8ff" stroke="#63b8ff" points="1457.12,-101.29 1459.21,-90.91 1451.1,-97.72 1457.12,-101.29"/>
</a>
</g>
</g>
<!-- Node6 -->
<g id="Node000006" class="node">
<title>Node6</title>
<g id="a_Node000006"><a xlink:title=" ">
<polygon fill="#e0e0e0" stroke="#999999" points="1653,-90.5 1538,-90.5 1538,-71.5 1653,-71.5 1653,-90.5"/>
<text text-anchor="middle" x="1595.5" y="-78.5" font-family="Helvetica,sans-Serif" font-size="10.00">deal.II/base/tensor.h</text>
</a>
</g>
</g>
<!-- Node4&#45;&gt;Node6 -->
<g id="edge5_Node000004_Node000006" class="edge">
<title>Node4&#45;&gt;Node6</title>
<g id="a_edge5_Node000004_Node000006"><a xlink:title=" ">
<path fill="none" stroke="#63b8ff" d="M1449.29,-137.37C1478.6,-126.27 1529.7,-106.92 1563.06,-94.28"/>
<polygon fill="#63b8ff" stroke="#63b8ff" points="1564.69,-97.41 1572.8,-90.6 1562.21,-90.86 1564.69,-97.41"/>
</a>
</g>
</g>
<!-- Node7 -->
<g id="Node000007" class="node">
<title>Node7</title>
<g id="a_Node000007"><a xlink:title=" ">
<polygon fill="#e0e0e0" stroke="#999999" points="1391,-96 1260,-96 1260,-66 1391,-66 1391,-96"/>
<text text-anchor="start" x="1268" y="-84" font-family="Helvetica,sans-Serif" font-size="10.00">deal.II/particles/particle</text>
<text text-anchor="middle" x="1325.5" y="-73" font-family="Helvetica,sans-Serif" font-size="10.00">_iterator.h</text>
</a>
</g>
</g>
<!-- Node4&#45;&gt;Node7 -->
<g id="edge6_Node000004_Node000007" class="edge">
<title>Node4&#45;&gt;Node7</title>
<g id="a_edge6_Node000004_Node000007"><a xlink:title=" ">
<path fill="none" stroke="#63b8ff" d="M1412.88,-137.37C1398.47,-128.24 1375.25,-113.53 1356.37,-101.56"/>
<polygon fill="#63b8ff" stroke="#63b8ff" points="1358.1,-98.51 1347.78,-96.12 1354.35,-104.42 1358.1,-98.51"/>
</a>
</g>
</g>
<!-- Node9&#45;&gt;Node4 -->
<g id="edge32_Node000009_Node000004" class="edge">
<title>Node9&#45;&gt;Node4</title>
<g id="a_edge32_Node000009_Node000004"><a xlink:title=" ">
<path fill="none" stroke="#63b8ff" d="M1538.97,-203.37C1516.97,-192.54 1479.01,-173.85 1453.35,-161.22"/>
<polygon fill="#63b8ff" stroke="#63b8ff" points="1454.69,-157.98 1444.17,-156.7 1451.6,-164.26 1454.69,-157.98"/>
</a>
</g>
</g>
<!-- Node9&#45;&gt;Node6 -->
<g id="edge33_Node000009_Node000006" class="edge">
<title>Node9&#45;&gt;Node6</title>
<g id="a_edge33_Node000009_Node000006"><a xlink:title=" ">
<path fill="none" stroke="#63b8ff" d="M1549,-203.3C1537.01,-188.28 1516.1,-156.73 1528.5,-132 1536.51,-116.04 1552.29,-103.87 1566.53,-95.53"/>
<polygon fill="#63b8ff" stroke="#63b8ff" points="1568.47,-98.47 1575.57,-90.61 1565.12,-92.32 1568.47,-98.47"/>
</a>
</g>
</g>
<!-- Node9&#45;&gt;Node7 -->
<g id="edge35_Node000009_Node000007" class="edge">
<title>Node9&#45;&gt;Node7</title>
<g id="a_edge35_Node000009_Node000007"><a xlink:title=" ">
<path fill="none" stroke="#63b8ff" d="M1502.73,-203.45C1452.99,-194.61 1383.67,-179.65 1362.5,-162 1345.4,-147.75 1335.79,-123.87 1330.68,-105.9"/>
<polygon fill="#63b8ff" stroke="#63b8ff" points="1334.04,-104.93 1328.16,-96.12 1327.26,-106.67 1334.04,-104.93"/>
</a>
</g>
</g>
<!-- Node10 -->
<g id="Node000010" class="node">
<title>Node10</title>
<g id="a_Node000010"><a xlink:href="core_2utilities_8h.html" target="_top" xlink:title=" ">
<polygon fill="white" stroke="#666666" points="1105.5,-156.5 1019.5,-156.5 1019.5,-137.5 1105.5,-137.5 1105.5,-156.5"/>
<text text-anchor="middle" x="1062.5" y="-144.5" font-family="Helvetica,sans-Serif" font-size="10.00">core/utilities.h</text>
</a>
</g>
</g>
<!-- Node9&#45;&gt;Node10 -->
<g id="edge9_Node000009_Node000010" class="edge">
<title>Node9&#45;&gt;Node10</title>
<g id="a_edge9_Node000009_Node000010"><a xlink:title=" ">
<path fill="none" stroke="#63b8ff" d="M1492.42,-203.7C1394.01,-190.95 1207.45,-166.78 1115.9,-154.92"/>
<polygon fill="#63b8ff" stroke="#63b8ff" points="1116.11,-151.42 1105.75,-153.6 1115.22,-158.36 1116.11,-151.42"/>
</a>
</g>
</g>
<!-- Node24 -->
<g id="Node000024" class="node">
<title>Node24</title>
<g id="a_Node000024"><a xlink:title=" ">
<polygon fill="#e0e0e0" stroke="#999999" points="1718,-90.5 1671,-90.5 1671,-71.5 1718,-71.5 1718,-90.5"/>
<text text-anchor="middle" x="1694.5" y="-78.5" font-family="Helvetica,sans-Serif" font-size="10.00">vector</text>
</a>
</g>
</g>
<!-- Node9&#45;&gt;Node24 -->
<g id="edge37_Node000009_Node000024" class="edge">
<title>Node9&#45;&gt;Node24</title>
<g id="a_edge37_Node000009_Node000024"><a xlink:title=" ">
<path fill="none" stroke="#63b8ff" d="M1588.69,-203.46C1611.62,-195.91 1641.77,-182.8 1661.5,-162 1677.86,-144.75 1686.6,-118.25 1690.9,-100.54"/>
<polygon fill="#63b8ff" stroke="#63b8ff" points="1694.36,-101.09 1693.07,-90.58 1687.52,-99.6 1694.36,-101.09"/>
</a>
</g>
</g>
<!-- Node25 -->
<g id="Node000025" class="node">
<title>Node25</title>
<g id="a_Node000025"><a xlink:href="boundary__cells__info__struct_8h.html" target="_top" xlink:title=" ">
<polygon fill="white" stroke="#666666" points="1653,-162 1538,-162 1538,-132 1653,-132 1653,-162"/>
<text text-anchor="start" x="1546" y="-150" font-family="Helvetica,sans-Serif" font-size="10.00">dem/boundary_cells</text>
<text text-anchor="middle" x="1595.5" y="-139" font-family="Helvetica,sans-Serif" font-size="10.00">_info_struct.h</text>
</a>
</g>
</g>
<!-- Node9&#45;&gt;Node25 -->
<g id="edge28_Node000009_Node000025" class="edge">
<title>Node9&#45;&gt;Node25</title>
<g id="a_edge28_Node000009_Node000025"><a xlink:title=" ">
<path fill="none" stroke="#63b8ff" d="M1561.76,-203.37C1566.81,-195.08 1574.67,-182.18 1581.53,-170.92"/>
<polygon fill="#63b8ff" stroke="#63b8ff" points="1584.53,-172.72 1586.75,-162.36 1578.56,-169.08 1584.53,-172.72"/>
</a>
</g>
</g>
<!-- Node26 -->
<g id="Node000026" class="node">
<title>Node26</title>
<g id="a_Node000026"><a xlink:title=" ">
<polygon fill="#e0e0e0" stroke="#999999" points="1941.5,-96 1839.5,-96 1839.5,-66 1941.5,-66 1941.5,-96"/>
<text text-anchor="start" x="1847.5" y="-84" font-family="Helvetica,sans-Serif" font-size="10.00">deal.II/distributed</text>
<text text-anchor="middle" x="1890.5" y="-73" font-family="Helvetica,sans-Serif" font-size="10.00">/tria.h</text>
</a>
</g>
</g>
<!-- Node9&#45;&gt;Node26 -->
<g id="edge34_Node000009_Node000026" class="edge">
<title>Node9&#45;&gt;Node26</title>
<g id="a_edge34_Node000009_Node000026"><a xlink:title=" ">
<path fill="none" stroke="#63b8ff" d="M1597.7,-203.46C1608.05,-201.49 1619.16,-199.53 1629.5,-198 1705.53,-186.75 1922.06,-219.11 1973.5,-162 1993.41,-139.9 1962.22,-116.5 1932.56,-100.75"/>
<polygon fill="#63b8ff" stroke="#63b8ff" points="1933.96,-97.54 1923.47,-96.12 1930.79,-103.78 1933.96,-97.54"/>
</a>
</g>
</g>
<!-- Node27 -->
<g id="Node000027" class="node">
<title>Node27</title>
<g id="a_Node000027"><a xlink:title=" ">
<polygon fill="#e0e0e0" stroke="#999999" points="1803,-156.5 1710,-156.5 1710,-137.5 1803,-137.5 1803,-156.5"/>
<text text-anchor="middle" x="1756.5" y="-144.5" font-family="Helvetica,sans-Serif" font-size="10.00">unordered_map</text>
</a>
</g>
</g>
<!-- Node9&#45;&gt;Node27 -->
<g id="edge36_Node000009_Node000027" class="edge">
<title>Node9&#45;&gt;Node27</title>
<g id="a_edge36_Node000009_Node000027"><a xlink:title=" ">
<path fill="none" stroke="#63b8ff" d="M1583.47,-203.37C1618.69,-192.1 1680.46,-172.33 1719.88,-159.72"/>
<polygon fill="#63b8ff" stroke="#63b8ff" points="1721.18,-162.98 1729.64,-156.6 1719.04,-156.31 1721.18,-162.98"/>
</a>
</g>
</g>
<!-- Node28 -->
<g id="Node000028" class="node">
<title>Node28</title>
<g id="a_Node000028"><a xlink:href="unordered__dense_8h.html" target="_top" xlink:title=" ">
<polygon fill="white" stroke="#666666" points="1964,-156.5 1821,-156.5 1821,-137.5 1964,-137.5 1964,-156.5"/>
<text text-anchor="middle" x="1892.5" y="-144.5" font-family="Helvetica,sans-Serif" font-size="10.00">ankerl/unordered_dense.h</text>
</a>
</g>
</g>
<!-- Node9&#45;&gt;Node28 -->
<g id="edge38_Node000009_Node000028" class="edge">
<title>Node9&#45;&gt;Node28</title>
<g id="a_edge38_Node000009_Node000028"><a xlink:title=" ">
<path fill="none" stroke="#63b8ff" d="M1600.89,-203.47C1610.33,-201.66 1620.25,-199.77 1629.5,-198 1701.34,-184.28 1784.23,-168.54 1837.45,-158.44"/>
<polygon fill="#63b8ff" stroke="#63b8ff" points="1838.18,-161.86 1847.35,-156.56 1836.88,-154.99 1838.18,-161.86"/>
</a>
</g>
</g>
<!-- Node10&#45;&gt;Node5 -->
<g id="edge15_Node000010_Node000005" class="edge">
<title>Node10&#45;&gt;Node5</title>
<g id="a_edge15_Node000010_Node000005"><a xlink:title=" ">
<path fill="none" stroke="#63b8ff" d="M1105.74,-140.5C1170.01,-132.11 1294.46,-115.08 1399.5,-96 1405.04,-94.99 1410.82,-93.86 1416.56,-92.69"/>
<polygon fill="#63b8ff" stroke="#63b8ff" points="1417.7,-96.03 1426.77,-90.56 1416.27,-89.18 1417.7,-96.03"/>
</a>
</g>
</g>
<!-- Node10&#45;&gt;Node6 -->
<g id="edge17_Node000010_Node000006" class="edge">
<title>Node10&#45;&gt;Node6</title>
<g id="a_edge17_Node000010_Node000006"><a xlink:title=" ">
<path fill="none" stroke="#63b8ff" d="M1105.73,-142.8C1188.25,-136.38 1373.78,-120.4 1528.5,-96 1534.82,-95 1541.44,-93.81 1547.96,-92.54"/>
<polygon fill="#63b8ff" stroke="#63b8ff" points="1548.95,-95.91 1558.06,-90.51 1547.56,-89.05 1548.95,-95.91"/>
</a>
</g>
</g>
<!-- Node10&#45;&gt;Node7 -->
<g id="edge20_Node000010_Node000007" class="edge">
<title>Node10&#45;&gt;Node7</title>
<g id="a_edge20_Node000010_Node000007"><a xlink:title=" ">
<path fill="none" stroke="#63b8ff" d="M1097.7,-137.44C1138.51,-127.5 1206.71,-110.91 1257.87,-98.46"/>
<polygon fill="#63b8ff" stroke="#63b8ff" points="1258.98,-101.79 1267.87,-96.02 1257.32,-94.99 1258.98,-101.79"/>
</a>
</g>
</g>
<!-- Node11 -->
<g id="Node000011" class="node">
<title>Node11</title>
<g id="a_Node000011"><a xlink:href="output__struct_8h.html" target="_top" xlink:title=" ">
<polygon fill="white" stroke="#666666" points="116.5,-90.5 2.5,-90.5 2.5,-71.5 116.5,-71.5 116.5,-90.5"/>
<text text-anchor="middle" x="59.5" y="-78.5" font-family="Helvetica,sans-Serif" font-size="10.00">core/output_struct.h</text>
</a>
</g>
</g>
<!-- Node10&#45;&gt;Node11 -->
<g id="edge10_Node000010_Node000011" class="edge">
<title>Node10&#45;&gt;Node11</title>
<g id="a_edge10_Node000010_Node000011"><a xlink:title=" ">
<path fill="none" stroke="#63b8ff" d="M1019.32,-146.08C885.78,-145.82 467.89,-141.17 125.5,-96 118.71,-95.1 111.58,-93.89 104.62,-92.54"/>
<polygon fill="#63b8ff" stroke="#63b8ff" points="105.1,-89.07 94.6,-90.51 103.71,-95.93 105.1,-89.07"/>
</a>
</g>
</g>
<!-- Node12 -->
<g id="Node000012" class="node">
<title>Node12</title>
<g id="a_Node000012"><a xlink:title=" ">
<polygon fill="#e0e0e0" stroke="#999999" points="760,-30 659,-30 659,0 760,0 760,-30"/>
<text text-anchor="start" x="667" y="-18" font-family="Helvetica,sans-Serif" font-size="10.00">deal.II/base/table</text>
<text text-anchor="middle" x="709.5" y="-7" font-family="Helvetica,sans-Serif" font-size="10.00">_handler.h</text>
</a>
</g>
</g>
<!-- Node10&#45;&gt;Node12 -->
<g id="edge16_Node000010_Node000012" class="edge">
<title>Node10&#45;&gt;Node12</title>
<g id="a_edge16_Node000010_Node000012"><a xlink:title=" ">
<path fill="none" stroke="#63b8ff" d="M1105.81,-138.94C1161.32,-128.15 1246.48,-104.63 1211.5,-66 1182.41,-33.87 898.2,-21.53 770.77,-17.59"/>
<polygon fill="#63b8ff" stroke="#63b8ff" points="770.51,-14.08 760.41,-17.28 770.3,-21.08 770.51,-14.08"/>
</a>
</g>
</g>
<!-- Node14 -->
<g id="Node000014" class="node">
<title>Node14</title>
<g id="a_Node000014"><a xlink:title=" ">
<polygon fill="#e0e0e0" stroke="#999999" points="264.5,-96 134.5,-96 134.5,-66 264.5,-66 264.5,-96"/>
<text text-anchor="start" x="142.5" y="-84" font-family="Helvetica,sans-Serif" font-size="10.00">deal.II/base/conditional</text>
<text text-anchor="middle" x="199.5" y="-73" font-family="Helvetica,sans-Serif" font-size="10.00">_ostream.h</text>
</a>
</g>
</g>
<!-- Node10&#45;&gt;Node14 -->
<g id="edge13_Node000010_Node000014" class="edge">
<title>Node10&#45;&gt;Node14</title>
<g id="a_edge13_Node000010_Node000014"><a xlink:title=" ">
<path fill="none" stroke="#63b8ff" d="M1019.13,-145.13C901.16,-142.38 564.43,-131.84 275.07,-96.09"/>
<polygon fill="#63b8ff" stroke="#63b8ff" points="275.16,-92.57 264.8,-94.81 274.29,-99.52 275.16,-92.57"/>
</a>
</g>
</g>
<!-- Node15 -->
<g id="Node000015" class="node">
<title>Node15</title>
<g id="a_Node000015"><a xlink:title=" ">
<polygon fill="#e0e0e0" stroke="#999999" points="410,-96 283,-96 283,-66 410,-66 410,-96"/>
<text text-anchor="start" x="291" y="-84" font-family="Helvetica,sans-Serif" font-size="10.00">deal.II/base/parameter</text>
<text text-anchor="middle" x="346.5" y="-73" font-family="Helvetica,sans-Serif" font-size="10.00">_handler.h</text>
</a>
</g>
</g>
<!-- Node10&#45;&gt;Node15 -->
<g id="edge14_Node000010_Node000015" class="edge">
<title>Node10&#45;&gt;Node15</title>
<g id="a_edge14_Node000010_Node000015"><a xlink:title=" ">
<path fill="none" stroke="#63b8ff" d="M1019.43,-144.32C917.22,-139.97 651.87,-126.58 420.1,-95.97"/>
<polygon fill="#63b8ff" stroke="#63b8ff" points="420.51,-92.49 410.13,-94.64 419.58,-99.43 420.51,-92.49"/>
</a>
</g>
</g>
<!-- Node16 -->
<g id="Node000016" class="node">
<title>Node16</title>
<g id="a_Node000016"><a xlink:title=" ">
<polygon fill="#e0e0e0" stroke="#999999" points="568.5,-90.5 428.5,-90.5 428.5,-71.5 568.5,-71.5 568.5,-90.5"/>
<text text-anchor="middle" x="498.5" y="-78.5" font-family="Helvetica,sans-Serif" font-size="10.00">deal.II/dofs/dof_handler.h</text>
</a>
</g>
</g>
<!-- Node10&#45;&gt;Node16 -->
<g id="edge18_Node000010_Node000016" class="edge">
<title>Node10&#45;&gt;Node16</title>
<g id="a_edge18_Node000010_Node000016"><a xlink:title=" ">
<path fill="none" stroke="#63b8ff" d="M1019.23,-142.6C934.3,-135.7 739.92,-118.73 577.5,-96 569.74,-94.91 561.58,-93.63 553.56,-92.29"/>
<polygon fill="#63b8ff" stroke="#63b8ff" points="553.98,-88.81 543.53,-90.56 552.79,-95.7 553.98,-88.81"/>
</a>
</g>
</g>
<!-- Node17 -->
<g id="Node000017" class="node">
<title>Node17</title>
<g id="a_Node000017"><a xlink:title=" ">
<polygon fill="#e0e0e0" stroke="#999999" points="706,-90.5 587,-90.5 587,-71.5 706,-71.5 706,-90.5"/>
<text text-anchor="middle" x="646.5" y="-78.5" font-family="Helvetica,sans-Serif" font-size="10.00">deal.II/fe/fe_values.h</text>
</a>
</g>
</g>
<!-- Node10&#45;&gt;Node17 -->
<g id="edge19_Node000010_Node000017" class="edge">
<title>Node10&#45;&gt;Node17</title>
<g id="a_edge19_Node000010_Node000017"><a xlink:title=" ">
<path fill="none" stroke="#63b8ff" d="M1019.24,-140.64C953.3,-132.27 823.78,-115.08 714.5,-96 708.57,-94.96 702.36,-93.8 696.21,-92.59"/>
<polygon fill="#63b8ff" stroke="#63b8ff" points="696.47,-89.08 685.98,-90.55 695.1,-95.94 696.47,-89.08"/>
</a>
</g>
</g>
<!-- Node18 -->
<g id="Node000018" class="node">
<title>Node18</title>
<g id="a_Node000018"><a xlink:title=" ">
<polygon fill="#e0e0e0" stroke="#999999" points="829,-96 724,-96 724,-66 829,-66 829,-96"/>
<text text-anchor="start" x="732" y="-84" font-family="Helvetica,sans-Serif" font-size="10.00">boost/archive/text</text>
<text text-anchor="middle" x="776.5" y="-73" font-family="Helvetica,sans-Serif" font-size="10.00">_iarchive.hpp</text>
</a>
</g>
</g>
<!-- Node10&#45;&gt;Node18 -->
<g id="edge21_Node000010_Node000018" class="edge">
<title>Node10&#45;&gt;Node18</title>
<g id="a_edge21_Node000010_Node000018"><a xlink:title=" ">
<path fill="none" stroke="#63b8ff" d="M1023.86,-137.5C981.04,-128.06 909.66,-112.27 839.03,-96.34"/>
<polygon fill="#63b8ff" stroke="#63b8ff" points="839.59,-92.88 829.07,-94.09 838.05,-99.71 839.59,-92.88"/>
</a>
</g>
</g>
<!-- Node19 -->
<g id="Node000019" class="node">
<title>Node19</title>
<g id="a_Node000019"><a xlink:title=" ">
<polygon fill="#e0e0e0" stroke="#999999" points="952,-96 847,-96 847,-66 952,-66 952,-96"/>
<text text-anchor="start" x="855" y="-84" font-family="Helvetica,sans-Serif" font-size="10.00">boost/archive/text</text>
<text text-anchor="middle" x="899.5" y="-73" font-family="Helvetica,sans-Serif" font-size="10.00">_oarchive.hpp</text>
</a>
</g>
</g>
<!-- Node10&#45;&gt;Node19 -->
<g id="edge22_Node000010_Node000019" class="edge">
<title>Node10&#45;&gt;Node19</title>
<g id="a_edge22_Node000010_Node000019"><a xlink:title=" ">
<path fill="none" stroke="#63b8ff" d="M1040.52,-137.37C1016.1,-127.78 976.02,-112.05 944.82,-99.8"/>
<polygon fill="#63b8ff" stroke="#63b8ff" points="946.04,-96.51 935.45,-96.12 943.48,-103.03 946.04,-96.51"/>
</a>
</g>
</g>
<!-- Node20 -->
<g id="Node000020" class="node">
<title>Node20</title>
<g id="a_Node000020"><a xlink:title=" ">
<polygon fill="#e0e0e0" stroke="#999999" points="1025,-90.5 970,-90.5 970,-71.5 1025,-71.5 1025,-90.5"/>
<text text-anchor="middle" x="997.5" y="-78.5" font-family="Helvetica,sans-Serif" font-size="10.00">fstream</text>
</a>
</g>
</g>
<!-- Node10&#45;&gt;Node20 -->
<g id="edge23_Node000010_Node000020" class="edge">
<title>Node10&#45;&gt;Node20</title>
<g id="a_edge23_Node000010_Node000020"><a xlink:title=" ">
<path fill="none" stroke="#63b8ff" d="M1053.73,-137.37C1043.52,-127.31 1026.42,-110.48 1013.76,-98.01"/>
<polygon fill="#63b8ff" stroke="#63b8ff" points="1016.13,-95.43 1006.54,-90.91 1011.21,-100.42 1016.13,-95.43"/>
</a>
</g>
</g>
<!-- Node21 -->
<g id="Node000021" class="node">
<title>Node21</title>
<g id="a_Node000021"><a xlink:title=" ">
<polygon fill="#e0e0e0" stroke="#999999" points="1081.5,-90.5 1043.5,-90.5 1043.5,-71.5 1081.5,-71.5 1081.5,-90.5"/>
<text text-anchor="middle" x="1062.5" y="-78.5" font-family="Helvetica,sans-Serif" font-size="10.00">map</text>
</a>
</g>
</g>
<!-- Node10&#45;&gt;Node21 -->
<g id="edge24_Node000010_Node000021" class="edge">
<title>Node10&#45;&gt;Node21</title>
<g id="a_edge24_Node000010_Node000021"><a xlink:title=" ">
<path fill="none" stroke="#63b8ff" d="M1062.5,-137.37C1062.5,-128.16 1062.5,-113.29 1062.5,-101.27"/>
<polygon fill="#63b8ff" stroke="#63b8ff" points="1066,-100.91 1062.5,-90.91 1059,-100.91 1066,-100.91"/>
</a>
</g>
</g>
<!-- Node22 -->
<g id="Node000022" class="node">
<title>Node22</title>
<g id="a_Node000022"><a xlink:title=" ">
<polygon fill="#e0e0e0" stroke="#999999" points="1143.5,-90.5 1099.5,-90.5 1099.5,-71.5 1143.5,-71.5 1143.5,-90.5"/>
<text text-anchor="middle" x="1121.5" y="-78.5" font-family="Helvetica,sans-Serif" font-size="10.00">string</text>
</a>
</g>
</g>
<!-- Node10&#45;&gt;Node22 -->
<g id="edge25_Node000010_Node000022" class="edge">
<title>Node10&#45;&gt;Node22</title>
<g id="a_edge25_Node000010_Node000022"><a xlink:title=" ">
<path fill="none" stroke="#63b8ff" d="M1070.46,-137.37C1079.64,-127.4 1094.96,-110.79 1106.42,-98.36"/>
<polygon fill="#63b8ff" stroke="#63b8ff" points="1109.09,-100.63 1113.29,-90.91 1103.94,-95.89 1109.09,-100.63"/>
</a>
</g>
</g>
<!-- Node23 -->
<g id="Node000023" class="node">
<title>Node23</title>
<g id="a_Node000023"><a xlink:title=" ">
<polygon fill="#e0e0e0" stroke="#999999" points="1203,-90.5 1162,-90.5 1162,-71.5 1203,-71.5 1203,-90.5"/>
<text text-anchor="middle" x="1182.5" y="-78.5" font-family="Helvetica,sans-Serif" font-size="10.00">tuple</text>
</a>
</g>
</g>
<!-- Node10&#45;&gt;Node23 -->
<g id="edge26_Node000010_Node000023" class="edge">
<title>Node10&#45;&gt;Node23</title>
<g id="a_edge26_Node000010_Node000023"><a xlink:title=" ">
<path fill="none" stroke="#63b8ff" d="M1078.68,-137.37C1098.81,-126.63 1133.41,-108.18 1157.09,-95.55"/>
<polygon fill="#63b8ff" stroke="#63b8ff" points="1159.01,-98.49 1166.19,-90.7 1155.72,-92.32 1159.01,-98.49"/>
</a>
</g>
</g>
<!-- Node10&#45;&gt;Node24 -->
<g id="edge27_Node000010_Node000024" class="edge">
<title>Node10&#45;&gt;Node24</title>
<g id="a_edge27_Node000010_Node000024"><a xlink:title=" ">
<path fill="none" stroke="#63b8ff" d="M1105.81,-144.17C1224.97,-138.85 1555.89,-122.1 1661.5,-96 1663.45,-95.52 1665.43,-94.94 1667.4,-94.29"/>
<polygon fill="#63b8ff" stroke="#63b8ff" points="1668.94,-97.45 1677.04,-90.62 1666.45,-90.9 1668.94,-97.45"/>
</a>
</g>
</g>
<!-- Node11&#45;&gt;Node12 -->
<g id="edge11_Node000011_Node000012" class="edge">
<title>Node11&#45;&gt;Node12</title>
<g id="a_edge11_Node000011_Node000012"><a xlink:title=" ">
<path fill="none" stroke="#63b8ff" d="M95.66,-71.49C105.32,-69.45 115.77,-67.44 125.5,-66 315.22,-37.87 542.13,-24.06 648.64,-18.73"/>
<polygon fill="#63b8ff" stroke="#63b8ff" points="649.05,-22.21 658.87,-18.22 648.71,-15.22 649.05,-22.21"/>
</a>
</g>
</g>
<!-- Node13 -->
<g id="Node000013" class="node">
<title>Node13</title>
<g id="a_Node000013"><a xlink:title=" ">
<polygon fill="#e0e0e0" stroke="#999999" points="119,-30 0,-30 0,0 119,0 119,-30"/>
<text text-anchor="start" x="8" y="-18" font-family="Helvetica,sans-Serif" font-size="10.00">deal.II/numerics/data</text>
<text text-anchor="middle" x="59.5" y="-7" font-family="Helvetica,sans-Serif" font-size="10.00">_postprocessor.h</text>
</a>
</g>
</g>
<!-- Node11&#45;&gt;Node13 -->
<g id="edge12_Node000011_Node000013" class="edge">
<title>Node11&#45;&gt;Node13</title>
<g id="a_edge12_Node000011_Node000013"><a xlink:title=" ">
<path fill="none" stroke="#63b8ff" d="M59.5,-71.37C59.5,-63.49 59.5,-51.45 59.5,-40.6"/>
<polygon fill="#63b8ff" stroke="#63b8ff" points="63,-40.36 59.5,-30.36 56,-40.36 63,-40.36"/>
</a>
</g>
</g>
<!-- Node25&#45;&gt;Node5 -->
<g id="edge29_Node000025_Node000005" class="edge">
<title>Node25&#45;&gt;Node5</title>
<g id="a_edge29_Node000025_Node000005"><a xlink:title=" ">
<path fill="none" stroke="#63b8ff" d="M1566.75,-131.95C1544.18,-120.93 1513.01,-105.7 1491.03,-94.96"/>
<polygon fill="#63b8ff" stroke="#63b8ff" points="1492.46,-91.76 1481.93,-90.52 1489.38,-98.05 1492.46,-91.76"/>
</a>
</g>
</g>
<!-- Node25&#45;&gt;Node6 -->
<g id="edge30_Node000025_Node000006" class="edge">
<title>Node25&#45;&gt;Node6</title>
<g id="a_edge30_Node000025_Node000006"><a xlink:title=" ">
<path fill="none" stroke="#63b8ff" d="M1595.5,-131.8C1595.5,-122.7 1595.5,-110.79 1595.5,-100.9"/>
<polygon fill="#63b8ff" stroke="#63b8ff" points="1599,-100.84 1595.5,-90.84 1592,-100.84 1599,-100.84"/>
</a>
</g>
</g>
<!-- Node25&#45;&gt;Node26 -->
<g id="edge31_Node000025_Node000026" class="edge">
<title>Node25&#45;&gt;Node26</title>
<g id="a_edge31_Node000025_Node000026"><a xlink:title=" ">
<path fill="none" stroke="#63b8ff" d="M1653.08,-133.51C1703.85,-122.49 1777.62,-106.49 1829.42,-95.25"/>
<polygon fill="#63b8ff" stroke="#63b8ff" points="1830.44,-98.61 1839.47,-93.07 1828.95,-91.77 1830.44,-98.61"/>
</a>
</g>
</g>
</g>
</svg>
