<?xml version="1.0" encoding="UTF-8" standalone="no"?>
<!DOCTYPE svg PUBLIC "-//W3C//DTD SVG 1.1//EN"
 "http://www.w3.org/Graphics/SVG/1.1/DTD/svg11.dtd">
<!-- Generated by graphviz version 2.43.0 (0)
 -->
<!-- Title: /home/runner/work/lethe/lethe/source/dem/update_fine_search_candidates.cc Pages: 1 -->
<svg width="1896pt" height="313pt"
 viewBox="0.00 0.00 1895.50 313.00" xmlns="http://www.w3.org/2000/svg" xmlns:xlink="http://www.w3.org/1999/xlink">
<g id="graph0" class="graph" transform="scale(1 1) rotate(0) translate(4 309)">
<title>/home/runner/work/lethe/lethe/source/dem/update_fine_search_candidates.cc</title>
<!-- Node1 -->
<g id="Node000001" class="node">
<title>Node1</title>
<g id="a_Node000001"><a xlink:title=" ">
<polygon fill="#999999" stroke="#666666" points="592.5,-305 443.5,-305 443.5,-264 592.5,-264 592.5,-305"/>
<text text-anchor="start" x="451.5" y="-293" font-family="Helvetica,sans-Serif" font-size="10.00">/home/runner/work/lethe</text>
<text text-anchor="start" x="451.5" y="-282" font-family="Helvetica,sans-Serif" font-size="10.00">/lethe/source/dem/update</text>
<text text-anchor="middle" x="518" y="-271" font-family="Helvetica,sans-Serif" font-size="10.00">_fine_search_candidates.cc</text>
</a>
</g>
</g>
<!-- Node2 -->
<g id="Node000002" class="node">
<title>Node2</title>
<g id="a_Node000002"><a xlink:href="data__containers_8h.html" target="_top" xlink:title=" ">
<polygon fill="white" stroke="#666666" points="507,-222.5 379,-222.5 379,-203.5 507,-203.5 507,-222.5"/>
<text text-anchor="middle" x="443" y="-210.5" font-family="Helvetica,sans-Serif" font-size="10.00">dem/data_containers.h</text>
</a>
</g>
</g>
<!-- Node1&#45;&gt;Node2 -->
<g id="edge1_Node000001_Node000002" class="edge">
<title>Node1&#45;&gt;Node2</title>
<g id="a_edge1_Node000001_Node000002"><a xlink:title=" ">
<path fill="none" stroke="#63b8ff" d="M496.71,-263.77C485.11,-253.02 470.96,-239.91 460.09,-229.84"/>
<polygon fill="#63b8ff" stroke="#63b8ff" points="462.23,-227.05 452.52,-222.82 457.47,-232.18 462.23,-227.05"/>
</a>
</g>
</g>
<!-- Node26 -->
<g id="Node000026" class="node">
<title>Node26</title>
<g id="a_Node000026"><a xlink:href="update__fine__search__candidates_8h.html" target="_top" xlink:title=" ">
<polygon fill="white" stroke="#666666" points="798,-228 662,-228 662,-198 798,-198 798,-228"/>
<text text-anchor="start" x="670" y="-216" font-family="Helvetica,sans-Serif" font-size="10.00">dem/update_fine_search</text>
<text text-anchor="middle" x="730" y="-205" font-family="Helvetica,sans-Serif" font-size="10.00">_candidates.h</text>
</a>
</g>
</g>
<!-- Node1&#45;&gt;Node26 -->
<g id="edge35_Node000001_Node000026" class="edge">
<title>Node1&#45;&gt;Node26</title>
<g id="a_edge35_Node000001_Node000026"><a xlink:title=" ">
<path fill="none" stroke="#63b8ff" d="M577.62,-263.96C609.11,-253.63 647.41,-241.07 677.74,-231.13"/>
<polygon fill="#63b8ff" stroke="#63b8ff" points="678.87,-234.45 687.28,-228 676.69,-227.79 678.87,-234.45"/>
</a>
</g>
</g>
<!-- Node3 -->
<g id="Node000003" class="node">
<title>Node3</title>
<g id="a_Node000003"><a xlink:href="core_2utilities_8h.html" target="_top" xlink:title=" ">
<polygon fill="white" stroke="#666666" points="935,-156.5 849,-156.5 849,-137.5 935,-137.5 935,-156.5"/>
<text text-anchor="middle" x="892" y="-144.5" font-family="Helvetica,sans-Serif" font-size="10.00">core/utilities.h</text>
</a>
</g>
</g>
<!-- Node2&#45;&gt;Node3 -->
<g id="edge2_Node000002_Node000003" class="edge">
<title>Node2&#45;&gt;Node3</title>
<g id="a_edge2_Node000002_Node000003"><a xlink:title=" ">
<path fill="none" stroke="#63b8ff" d="M503.09,-203.44C591.29,-190.86 754.44,-167.61 838.64,-155.61"/>
<polygon fill="#63b8ff" stroke="#63b8ff" points="839.35,-159.04 848.75,-154.16 838.36,-152.11 839.35,-159.04"/>
</a>
</g>
</g>
<!-- Node10 -->
<g id="Node000010" class="node">
<title>Node10</title>
<g id="a_Node000010"><a xlink:title=" ">
<polygon fill="#e0e0e0" stroke="#999999" points="269.5,-90.5 154.5,-90.5 154.5,-71.5 269.5,-71.5 269.5,-90.5"/>
<text text-anchor="middle" x="212" y="-78.5" font-family="Helvetica,sans-Serif" font-size="10.00">deal.II/base/tensor.h</text>
</a>
</g>
</g>
<!-- Node2&#45;&gt;Node10 -->
<g id="edge29_Node000002_Node000010" class="edge">
<title>Node2&#45;&gt;Node10</title>
<g id="a_edge29_Node000002_Node000010"><a xlink:title=" ">
<path fill="none" stroke="#63b8ff" d="M378.84,-208.5C272.12,-202.02 67.63,-186.52 46,-162 12.34,-123.84 84.58,-102.22 144.13,-91.31"/>
<polygon fill="#63b8ff" stroke="#63b8ff" points="145.06,-94.7 154.31,-89.53 143.86,-87.81 145.06,-94.7"/>
</a>
</g>
</g>
<!-- Node13 -->
<g id="Node000013" class="node">
<title>Node13</title>
<g id="a_Node000013"><a xlink:title=" ">
<polygon fill="#e0e0e0" stroke="#999999" points="564.5,-96 433.5,-96 433.5,-66 564.5,-66 564.5,-96"/>
<text text-anchor="start" x="441.5" y="-84" font-family="Helvetica,sans-Serif" font-size="10.00">deal.II/particles/particle</text>
<text text-anchor="middle" x="499" y="-73" font-family="Helvetica,sans-Serif" font-size="10.00">_iterator.h</text>
</a>
</g>
</g>
<!-- Node2&#45;&gt;Node13 -->
<g id="edge31_Node000002_Node000013" class="edge">
<title>Node2&#45;&gt;Node13</title>
<g id="a_edge31_Node000002_Node000013"><a xlink:title=" ">
<path fill="none" stroke="#63b8ff" d="M507.07,-204.83C534.22,-198.26 563.38,-185.75 580,-162 587.64,-151.07 586.5,-143.64 580,-132 572.61,-118.75 560.1,-108.57 547.1,-100.97"/>
<polygon fill="#63b8ff" stroke="#63b8ff" points="548.53,-97.77 538.07,-96.11 545.22,-103.93 548.53,-97.77"/>
</a>
</g>
</g>
<!-- Node20 -->
<g id="Node000020" class="node">
<title>Node20</title>
<g id="a_Node000020"><a xlink:title=" ">
<polygon fill="#e0e0e0" stroke="#999999" points="629.5,-90.5 582.5,-90.5 582.5,-71.5 629.5,-71.5 629.5,-90.5"/>
<text text-anchor="middle" x="606" y="-78.5" font-family="Helvetica,sans-Serif" font-size="10.00">vector</text>
</a>
</g>
</g>
<!-- Node2&#45;&gt;Node20 -->
<g id="edge33_Node000002_Node000020" class="edge">
<title>Node2&#45;&gt;Node20</title>
<g id="a_edge33_Node000002_Node000020"><a xlink:title=" ">
<path fill="none" stroke="#63b8ff" d="M507.2,-207.16C539.03,-201.27 575.23,-188.68 597,-162 610.98,-144.86 611.12,-118.34 609.18,-100.59"/>
<polygon fill="#63b8ff" stroke="#63b8ff" points="612.64,-100.02 607.77,-90.6 605.7,-100.99 612.64,-100.02"/>
</a>
</g>
</g>
<!-- Node21 -->
<g id="Node000021" class="node">
<title>Node21</title>
<g id="a_Node000021"><a xlink:href="boundary__cells__info__struct_8h.html" target="_top" xlink:title=" ">
<polygon fill="white" stroke="#666666" points="170.5,-162 55.5,-162 55.5,-132 170.5,-132 170.5,-162"/>
<text text-anchor="start" x="63.5" y="-150" font-family="Helvetica,sans-Serif" font-size="10.00">dem/boundary_cells</text>
<text text-anchor="middle" x="113" y="-139" font-family="Helvetica,sans-Serif" font-size="10.00">_info_struct.h</text>
</a>
</g>
</g>
<!-- Node2&#45;&gt;Node21 -->
<g id="edge21_Node000002_Node000021" class="edge">
<title>Node2&#45;&gt;Node21</title>
<g id="a_edge21_Node000002_Node000021"><a xlink:title=" ">
<path fill="none" stroke="#63b8ff" d="M396.21,-203.46C345.45,-194.12 261.78,-178.52 180.48,-162.27"/>
<polygon fill="#63b8ff" stroke="#63b8ff" points="181.07,-158.82 170.58,-160.29 179.7,-165.69 181.07,-158.82"/>
</a>
</g>
</g>
<!-- Node22 -->
<g id="Node000022" class="node">
<title>Node22</title>
<g id="a_Node000022"><a xlink:title=" ">
<polygon fill="#e0e0e0" stroke="#999999" points="102,-96 0,-96 0,-66 102,-66 102,-96"/>
<text text-anchor="start" x="8" y="-84" font-family="Helvetica,sans-Serif" font-size="10.00">deal.II/distributed</text>
<text text-anchor="middle" x="51" y="-73" font-family="Helvetica,sans-Serif" font-size="10.00">/tria.h</text>
</a>
</g>
</g>
<!-- Node2&#45;&gt;Node22 -->
<g id="edge30_Node000002_Node000022" class="edge">
<title>Node2&#45;&gt;Node22</title>
<g id="a_edge30_Node000002_Node000022"><a xlink:title=" ">
<path fill="none" stroke="#63b8ff" d="M378.66,-208.74C269.22,-202.54 56.43,-187.34 34,-162 20.34,-146.57 27.63,-122.93 36.51,-105.34"/>
<polygon fill="#63b8ff" stroke="#63b8ff" points="39.74,-106.73 41.48,-96.28 33.6,-103.36 39.74,-106.73"/>
</a>
</g>
</g>
<!-- Node23 -->
<g id="Node000023" class="node">
<title>Node23</title>
<g id="a_Node000023"><a xlink:href="contact__info_8h.html" target="_top" xlink:title=" ">
<polygon fill="white" stroke="#666666" points="571,-156.5 461,-156.5 461,-137.5 571,-137.5 571,-156.5"/>
<text text-anchor="middle" x="516" y="-144.5" font-family="Helvetica,sans-Serif" font-size="10.00">dem/contact_info.h</text>
</a>
</g>
</g>
<!-- Node2&#45;&gt;Node23 -->
<g id="edge25_Node000002_Node000023" class="edge">
<title>Node2&#45;&gt;Node23</title>
<g id="a_edge25_Node000002_Node000023"><a xlink:title=" ">
<path fill="none" stroke="#63b8ff" d="M452.85,-203.37C464.43,-193.21 483.88,-176.16 498.14,-163.65"/>
<polygon fill="#63b8ff" stroke="#63b8ff" points="500.63,-166.13 505.84,-156.91 496.02,-160.87 500.63,-166.13"/>
</a>
</g>
</g>
<!-- Node24 -->
<g id="Node000024" class="node">
<title>Node24</title>
<g id="a_Node000024"><a xlink:title=" ">
<polygon fill="#e0e0e0" stroke="#999999" points="281.5,-156.5 188.5,-156.5 188.5,-137.5 281.5,-137.5 281.5,-156.5"/>
<text text-anchor="middle" x="235" y="-144.5" font-family="Helvetica,sans-Serif" font-size="10.00">unordered_map</text>
</a>
</g>
</g>
<!-- Node2&#45;&gt;Node24 -->
<g id="edge32_Node000002_Node000024" class="edge">
<title>Node2&#45;&gt;Node24</title>
<g id="a_edge32_Node000002_Node000024"><a xlink:title=" ">
<path fill="none" stroke="#63b8ff" d="M414.95,-203.37C378.17,-192.05 313.53,-172.16 272.56,-159.56"/>
<polygon fill="#63b8ff" stroke="#63b8ff" points="273.53,-156.19 262.94,-156.6 271.47,-162.88 273.53,-156.19"/>
</a>
</g>
</g>
<!-- Node25 -->
<g id="Node000025" class="node">
<title>Node25</title>
<g id="a_Node000025"><a xlink:href="unordered__dense_8h.html" target="_top" xlink:title=" ">
<polygon fill="white" stroke="#666666" points="442.5,-156.5 299.5,-156.5 299.5,-137.5 442.5,-137.5 442.5,-156.5"/>
<text text-anchor="middle" x="371" y="-144.5" font-family="Helvetica,sans-Serif" font-size="10.00">ankerl/unordered_dense.h</text>
</a>
</g>
</g>
<!-- Node2&#45;&gt;Node25 -->
<g id="edge34_Node000002_Node000025" class="edge">
<title>Node2&#45;&gt;Node25</title>
<g id="a_edge34_Node000002_Node000025"><a xlink:title=" ">
<path fill="none" stroke="#63b8ff" d="M433.29,-203.37C421.87,-193.21 402.68,-176.16 388.61,-163.65"/>
<polygon fill="#63b8ff" stroke="#63b8ff" points="390.82,-160.93 381.02,-156.91 386.17,-166.16 390.82,-160.93"/>
</a>
</g>
</g>
<!-- Node4 -->
<g id="Node000004" class="node">
<title>Node4</title>
<g id="a_Node000004"><a xlink:href="output__struct_8h.html" target="_top" xlink:title=" ">
<polygon fill="white" stroke="#666666" points="1136,-90.5 1022,-90.5 1022,-71.5 1136,-71.5 1136,-90.5"/>
<text text-anchor="middle" x="1079" y="-78.5" font-family="Helvetica,sans-Serif" font-size="10.00">core/output_struct.h</text>
</a>
</g>
</g>
<!-- Node3&#45;&gt;Node4 -->
<g id="edge3_Node000003_Node000004" class="edge">
<title>Node3&#45;&gt;Node4</title>
<g id="a_edge3_Node000003_Node000004"><a xlink:title=" ">
<path fill="none" stroke="#63b8ff" d="M917.22,-137.37C949.93,-126.17 1007.17,-106.58 1044.06,-93.96"/>
<polygon fill="#63b8ff" stroke="#63b8ff" points="1045.55,-97.15 1053.88,-90.6 1043.29,-90.52 1045.55,-97.15"/>
</a>
</g>
</g>
<!-- Node5 -->
<g id="Node000005" class="node">
<title>Node5</title>
<g id="a_Node000005"><a xlink:title=" ">
<polygon fill="#e0e0e0" stroke="#999999" points="1530.5,-30 1429.5,-30 1429.5,0 1530.5,0 1530.5,-30"/>
<text text-anchor="start" x="1437.5" y="-18" font-family="Helvetica,sans-Serif" font-size="10.00">deal.II/base/table</text>
<text text-anchor="middle" x="1480" y="-7" font-family="Helvetica,sans-Serif" font-size="10.00">_handler.h</text>
</a>
</g>
</g>
<!-- Node3&#45;&gt;Node5 -->
<g id="edge9_Node000003_Node000005" class="edge">
<title>Node3&#45;&gt;Node5</title>
<g id="a_edge9_Node000003_Node000005"><a xlink:title=" ">
<path fill="none" stroke="#63b8ff" d="M919.29,-137.46C927.19,-135.31 935.87,-133.26 944,-132 987.47,-125.24 1704.61,-127.8 1735,-96 1794.47,-33.76 1633.78,-19.71 1540.83,-16.7"/>
<polygon fill="#63b8ff" stroke="#63b8ff" points="1540.77,-13.2 1530.67,-16.41 1540.57,-20.19 1540.77,-13.2"/>
</a>
</g>
</g>
<!-- Node7 -->
<g id="Node000007" class="node">
<title>Node7</title>
<g id="a_Node000007"><a xlink:title=" ">
<polygon fill="#e0e0e0" stroke="#999999" points="1284,-96 1154,-96 1154,-66 1284,-66 1284,-96"/>
<text text-anchor="start" x="1162" y="-84" font-family="Helvetica,sans-Serif" font-size="10.00">deal.II/base/conditional</text>
<text text-anchor="middle" x="1219" y="-73" font-family="Helvetica,sans-Serif" font-size="10.00">_ostream.h</text>
</a>
</g>
</g>
<!-- Node3&#45;&gt;Node7 -->
<g id="edge6_Node000003_Node000007" class="edge">
<title>Node3&#45;&gt;Node7</title>
<g id="a_edge6_Node000003_Node000007"><a xlink:title=" ">
<path fill="none" stroke="#63b8ff" d="M921.86,-137.49C929.08,-135.56 936.79,-133.61 944,-132 1029.45,-112.88 1054.04,-112.44 1143.58,-96.24"/>
<polygon fill="#63b8ff" stroke="#63b8ff" points="1144.43,-99.64 1153.64,-94.4 1143.17,-92.76 1144.43,-99.64"/>
</a>
</g>
</g>
<!-- Node8 -->
<g id="Node000008" class="node">
<title>Node8</title>
<g id="a_Node000008"><a xlink:title=" ">
<polygon fill="#e0e0e0" stroke="#999999" points="1429.5,-96 1302.5,-96 1302.5,-66 1429.5,-66 1429.5,-96"/>
<text text-anchor="start" x="1310.5" y="-84" font-family="Helvetica,sans-Serif" font-size="10.00">deal.II/base/parameter</text>
<text text-anchor="middle" x="1366" y="-73" font-family="Helvetica,sans-Serif" font-size="10.00">_handler.h</text>
</a>
</g>
</g>
<!-- Node3&#45;&gt;Node8 -->
<g id="edge7_Node000003_Node000008" class="edge">
<title>Node3&#45;&gt;Node8</title>
<g id="a_edge7_Node000003_Node000008"><a xlink:title=" ">
<path fill="none" stroke="#63b8ff" d="M920.42,-137.47C928.02,-135.43 936.28,-133.43 944,-132 1094.19,-104.22 1136.98,-118.11 1292.44,-95.98"/>
<polygon fill="#63b8ff" stroke="#63b8ff" points="1292.96,-99.44 1302.35,-94.54 1291.96,-92.51 1292.96,-99.44"/>
</a>
</g>
</g>
<!-- Node9 -->
<g id="Node000009" class="node">
<title>Node9</title>
<g id="a_Node000009"><a xlink:title=" ">
<polygon fill="#e0e0e0" stroke="#999999" points="415,-90.5 305,-90.5 305,-71.5 415,-71.5 415,-90.5"/>
<text text-anchor="middle" x="360" y="-78.5" font-family="Helvetica,sans-Serif" font-size="10.00">deal.II/base/point.h</text>
</a>
</g>
</g>
<!-- Node3&#45;&gt;Node9 -->
<g id="edge8_Node000003_Node000009" class="edge">
<title>Node3&#45;&gt;Node9</title>
<g id="a_edge8_Node000003_Node000009"><a xlink:title=" ">
<path fill="none" stroke="#63b8ff" d="M848.88,-142.97C766.13,-136.81 579.47,-121.23 424,-96 418.1,-95.04 411.93,-93.89 405.84,-92.66"/>
<polygon fill="#63b8ff" stroke="#63b8ff" points="406.25,-89.17 395.75,-90.54 404.82,-96.02 406.25,-89.17"/>
</a>
</g>
</g>
<!-- Node3&#45;&gt;Node10 -->
<g id="edge10_Node000003_Node000010" class="edge">
<title>Node3&#45;&gt;Node10</title>
<g id="a_edge10_Node000003_Node000010"><a xlink:title=" ">
<path fill="none" stroke="#63b8ff" d="M848.87,-143.59C750.54,-137.83 502.32,-121.8 296,-96 287.26,-94.91 278.04,-93.56 269.03,-92.15"/>
<polygon fill="#63b8ff" stroke="#63b8ff" points="269.42,-88.67 258.99,-90.53 268.31,-95.58 269.42,-88.67"/>
</a>
</g>
</g>
<!-- Node11 -->
<g id="Node000011" class="node">
<title>Node11</title>
<g id="a_Node000011"><a xlink:title=" ">
<polygon fill="#e0e0e0" stroke="#999999" points="1588,-90.5 1448,-90.5 1448,-71.5 1588,-71.5 1588,-90.5"/>
<text text-anchor="middle" x="1518" y="-78.5" font-family="Helvetica,sans-Serif" font-size="10.00">deal.II/dofs/dof_handler.h</text>
</a>
</g>
</g>
<!-- Node3&#45;&gt;Node11 -->
<g id="edge11_Node000003_Node000011" class="edge">
<title>Node3&#45;&gt;Node11</title>
<g id="a_edge11_Node000003_Node000011"><a xlink:title=" ">
<path fill="none" stroke="#63b8ff" d="M919.85,-137.45C927.6,-135.36 936.07,-133.34 944,-132 1161.48,-95.16 1220.11,-123.28 1439,-96 1447.35,-94.96 1456.15,-93.63 1464.73,-92.21"/>
<polygon fill="#63b8ff" stroke="#63b8ff" points="1465.39,-95.65 1474.66,-90.51 1464.21,-88.75 1465.39,-95.65"/>
</a>
</g>
</g>
<!-- Node12 -->
<g id="Node000012" class="node">
<title>Node12</title>
<g id="a_Node000012"><a xlink:title=" ">
<polygon fill="#e0e0e0" stroke="#999999" points="1725.5,-90.5 1606.5,-90.5 1606.5,-71.5 1725.5,-71.5 1725.5,-90.5"/>
<text text-anchor="middle" x="1666" y="-78.5" font-family="Helvetica,sans-Serif" font-size="10.00">deal.II/fe/fe_values.h</text>
</a>
</g>
</g>
<!-- Node3&#45;&gt;Node12 -->
<g id="edge12_Node000003_Node000012" class="edge">
<title>Node3&#45;&gt;Node12</title>
<g id="a_edge12_Node000003_Node000012"><a xlink:title=" ">
<path fill="none" stroke="#63b8ff" d="M919.56,-137.44C927.39,-135.32 935.97,-133.29 944,-132 1230.99,-85.97 1308.7,-133 1597,-96 1604.17,-95.08 1611.71,-93.84 1619.06,-92.47"/>
<polygon fill="#63b8ff" stroke="#63b8ff" points="1619.78,-95.9 1628.92,-90.55 1618.44,-89.03 1619.78,-95.9"/>
</a>
</g>
</g>
<!-- Node3&#45;&gt;Node13 -->
<g id="edge13_Node000003_Node000013" class="edge">
<title>Node3&#45;&gt;Node13</title>
<g id="a_edge13_Node000003_Node000013"><a xlink:title=" ">
<path fill="none" stroke="#63b8ff" d="M848.85,-139.68C789.38,-130.87 678.66,-114.12 574.78,-96.28"/>
<polygon fill="#63b8ff" stroke="#63b8ff" points="575.2,-92.8 564.75,-94.55 574.01,-99.7 575.2,-92.8"/>
</a>
</g>
</g>
<!-- Node14 -->
<g id="Node000014" class="node">
<title>Node14</title>
<g id="a_Node000014"><a xlink:title=" ">
<polygon fill="#e0e0e0" stroke="#999999" points="1887.5,-96 1782.5,-96 1782.5,-66 1887.5,-66 1887.5,-96"/>
<text text-anchor="start" x="1790.5" y="-84" font-family="Helvetica,sans-Serif" font-size="10.00">boost/archive/text</text>
<text text-anchor="middle" x="1835" y="-73" font-family="Helvetica,sans-Serif" font-size="10.00">_iarchive.hpp</text>
</a>
</g>
</g>
<!-- Node3&#45;&gt;Node14 -->
<g id="edge14_Node000003_Node000014" class="edge">
<title>Node3&#45;&gt;Node14</title>
<g id="a_edge14_Node000003_Node000014"><a xlink:title=" ">
<path fill="none" stroke="#63b8ff" d="M919.29,-137.45C927.18,-135.3 935.87,-133.26 944,-132 1306.27,-76.01 1404.28,-141.64 1768,-96 1769.47,-95.82 1770.96,-95.61 1772.46,-95.4"/>
<polygon fill="#63b8ff" stroke="#63b8ff" points="1773.14,-98.84 1782.47,-93.82 1772.04,-91.92 1773.14,-98.84"/>
</a>
</g>
</g>
<!-- Node15 -->
<g id="Node000015" class="node">
<title>Node15</title>
<g id="a_Node000015"><a xlink:title=" ">
<polygon fill="#e0e0e0" stroke="#999999" points="752.5,-96 647.5,-96 647.5,-66 752.5,-66 752.5,-96"/>
<text text-anchor="start" x="655.5" y="-84" font-family="Helvetica,sans-Serif" font-size="10.00">boost/archive/text</text>
<text text-anchor="middle" x="700" y="-73" font-family="Helvetica,sans-Serif" font-size="10.00">_oarchive.hpp</text>
</a>
</g>
</g>
<!-- Node3&#45;&gt;Node15 -->
<g id="edge15_Node000003_Node000015" class="edge">
<title>Node3&#45;&gt;Node15</title>
<g id="a_edge15_Node000003_Node000015"><a xlink:title=" ">
<path fill="none" stroke="#63b8ff" d="M866.11,-137.37C836.98,-127.66 788.92,-111.64 751.97,-99.32"/>
<polygon fill="#63b8ff" stroke="#63b8ff" points="752.94,-95.96 742.35,-96.12 750.73,-102.6 752.94,-95.96"/>
</a>
</g>
</g>
<!-- Node16 -->
<g id="Node000016" class="node">
<title>Node16</title>
<g id="a_Node000016"><a xlink:title=" ">
<polygon fill="#e0e0e0" stroke="#999999" points="825.5,-90.5 770.5,-90.5 770.5,-71.5 825.5,-71.5 825.5,-90.5"/>
<text text-anchor="middle" x="798" y="-78.5" font-family="Helvetica,sans-Serif" font-size="10.00">fstream</text>
</a>
</g>
</g>
<!-- Node3&#45;&gt;Node16 -->
<g id="edge16_Node000003_Node000016" class="edge">
<title>Node3&#45;&gt;Node16</title>
<g id="a_edge16_Node000003_Node000016"><a xlink:title=" ">
<path fill="none" stroke="#63b8ff" d="M879.32,-137.37C863.91,-126.87 837.65,-109 819.15,-96.4"/>
<polygon fill="#63b8ff" stroke="#63b8ff" points="821.01,-93.43 810.78,-90.7 817.07,-99.22 821.01,-93.43"/>
</a>
</g>
</g>
<!-- Node17 -->
<g id="Node000017" class="node">
<title>Node17</title>
<g id="a_Node000017"><a xlink:title=" ">
<polygon fill="#e0e0e0" stroke="#999999" points="882,-90.5 844,-90.5 844,-71.5 882,-71.5 882,-90.5"/>
<text text-anchor="middle" x="863" y="-78.5" font-family="Helvetica,sans-Serif" font-size="10.00">map</text>
</a>
</g>
</g>
<!-- Node3&#45;&gt;Node17 -->
<g id="edge17_Node000003_Node000017" class="edge">
<title>Node3&#45;&gt;Node17</title>
<g id="a_edge17_Node000003_Node000017"><a xlink:title=" ">
<path fill="none" stroke="#63b8ff" d="M888.09,-137.37C883.79,-127.88 876.76,-112.36 871.23,-100.16"/>
<polygon fill="#63b8ff" stroke="#63b8ff" points="874.35,-98.57 867.04,-90.91 867.97,-101.46 874.35,-98.57"/>
</a>
</g>
</g>
<!-- Node18 -->
<g id="Node000018" class="node">
<title>Node18</title>
<g id="a_Node000018"><a xlink:title=" ">
<polygon fill="#e0e0e0" stroke="#999999" points="944,-90.5 900,-90.5 900,-71.5 944,-71.5 944,-90.5"/>
<text text-anchor="middle" x="922" y="-78.5" font-family="Helvetica,sans-Serif" font-size="10.00">string</text>
</a>
</g>
</g>
<!-- Node3&#45;&gt;Node18 -->
<g id="edge18_Node000003_Node000018" class="edge">
<title>Node3&#45;&gt;Node18</title>
<g id="a_edge18_Node000003_Node000018"><a xlink:title=" ">
<path fill="none" stroke="#63b8ff" d="M896.05,-137.37C900.49,-127.88 907.77,-112.36 913.49,-100.16"/>
<polygon fill="#63b8ff" stroke="#63b8ff" points="916.75,-101.45 917.83,-90.91 910.41,-98.47 916.75,-101.45"/>
</a>
</g>
</g>
<!-- Node19 -->
<g id="Node000019" class="node">
<title>Node19</title>
<g id="a_Node000019"><a xlink:title=" ">
<polygon fill="#e0e0e0" stroke="#999999" points="1003.5,-90.5 962.5,-90.5 962.5,-71.5 1003.5,-71.5 1003.5,-90.5"/>
<text text-anchor="middle" x="983" y="-78.5" font-family="Helvetica,sans-Serif" font-size="10.00">tuple</text>
</a>
</g>
</g>
<!-- Node3&#45;&gt;Node19 -->
<g id="edge19_Node000003_Node000019" class="edge">
<title>Node3&#45;&gt;Node19</title>
<g id="a_edge19_Node000003_Node000019"><a xlink:title=" ">
<path fill="none" stroke="#63b8ff" d="M904.27,-137.37C919.06,-126.97 944.15,-109.32 962.03,-96.75"/>
<polygon fill="#63b8ff" stroke="#63b8ff" points="964.46,-99.31 970.63,-90.7 960.44,-93.59 964.46,-99.31"/>
</a>
</g>
</g>
<!-- Node3&#45;&gt;Node20 -->
<g id="edge20_Node000003_Node000020" class="edge">
<title>Node3&#45;&gt;Node20</title>
<g id="a_edge20_Node000003_Node000020"><a xlink:title=" ">
<path fill="none" stroke="#63b8ff" d="M848.59,-140.4C797.44,-133.13 710.27,-118.62 638,-96 636.37,-95.49 634.71,-94.92 633.05,-94.32"/>
<polygon fill="#63b8ff" stroke="#63b8ff" points="634.26,-91.03 623.68,-90.55 631.65,-97.53 634.26,-91.03"/>
</a>
</g>
</g>
<!-- Node4&#45;&gt;Node5 -->
<g id="edge4_Node000004_Node000005" class="edge">
<title>Node4&#45;&gt;Node5</title>
<g id="a_edge4_Node000004_Node000005"><a xlink:title=" ">
<path fill="none" stroke="#63b8ff" d="M1117.31,-71.46C1126.37,-69.56 1136.01,-67.62 1145,-66 1240.5,-48.76 1352.09,-32.97 1419.33,-23.92"/>
<polygon fill="#63b8ff" stroke="#63b8ff" points="1419.88,-27.38 1429.33,-22.58 1418.96,-20.44 1419.88,-27.38"/>
</a>
</g>
</g>
<!-- Node6 -->
<g id="Node000006" class="node">
<title>Node6</title>
<g id="a_Node000006"><a xlink:title=" ">
<polygon fill="#e0e0e0" stroke="#999999" points="1138.5,-30 1019.5,-30 1019.5,0 1138.5,0 1138.5,-30"/>
<text text-anchor="start" x="1027.5" y="-18" font-family="Helvetica,sans-Serif" font-size="10.00">deal.II/numerics/data</text>
<text text-anchor="middle" x="1079" y="-7" font-family="Helvetica,sans-Serif" font-size="10.00">_postprocessor.h</text>
</a>
</g>
</g>
<!-- Node4&#45;&gt;Node6 -->
<g id="edge5_Node000004_Node000006" class="edge">
<title>Node4&#45;&gt;Node6</title>
<g id="a_edge5_Node000004_Node000006"><a xlink:title=" ">
<path fill="none" stroke="#63b8ff" d="M1079,-71.37C1079,-63.49 1079,-51.45 1079,-40.6"/>
<polygon fill="#63b8ff" stroke="#63b8ff" points="1082.5,-40.36 1079,-30.36 1075.5,-40.36 1082.5,-40.36"/>
</a>
</g>
</g>
<!-- Node21&#45;&gt;Node9 -->
<g id="edge22_Node000021_Node000009" class="edge">
<title>Node21&#45;&gt;Node9</title>
<g id="a_edge22_Node000021_Node000009"><a xlink:title=" ">
<path fill="none" stroke="#63b8ff" d="M167.21,-131.95C212.34,-120.26 275.72,-103.84 317.31,-93.06"/>
<polygon fill="#63b8ff" stroke="#63b8ff" points="318.33,-96.41 327.13,-90.52 316.57,-89.64 318.33,-96.41"/>
</a>
</g>
</g>
<!-- Node21&#45;&gt;Node10 -->
<g id="edge23_Node000021_Node000010" class="edge">
<title>Node21&#45;&gt;Node10</title>
<g id="a_edge23_Node000021_Node000010"><a xlink:title=" ">
<path fill="none" stroke="#63b8ff" d="M134.97,-131.8C151.41,-121.17 173.79,-106.7 190.19,-96.1"/>
<polygon fill="#63b8ff" stroke="#63b8ff" points="192.11,-99.03 198.61,-90.66 188.31,-93.15 192.11,-99.03"/>
</a>
</g>
</g>
<!-- Node21&#45;&gt;Node22 -->
<g id="edge24_Node000021_Node000022" class="edge">
<title>Node21&#45;&gt;Node22</title>
<g id="a_edge24_Node000021_Node000022"><a xlink:title=" ">
<path fill="none" stroke="#63b8ff" d="M99.24,-131.8C91.21,-123.51 80.93,-112.89 71.91,-103.59"/>
<polygon fill="#63b8ff" stroke="#63b8ff" points="74.19,-100.91 64.72,-96.16 69.17,-105.78 74.19,-100.91"/>
</a>
</g>
</g>
<!-- Node23&#45;&gt;Node9 -->
<g id="edge26_Node000023_Node000009" class="edge">
<title>Node23&#45;&gt;Node9</title>
<g id="a_edge26_Node000023_Node000009"><a xlink:title=" ">
<path fill="none" stroke="#63b8ff" d="M494.96,-137.37C468.02,-126.32 421.14,-107.08 390.34,-94.45"/>
<polygon fill="#63b8ff" stroke="#63b8ff" points="391.53,-91.15 380.95,-90.6 388.88,-97.63 391.53,-91.15"/>
</a>
</g>
</g>
<!-- Node23&#45;&gt;Node10 -->
<g id="edge27_Node000023_Node000010" class="edge">
<title>Node23&#45;&gt;Node10</title>
<g id="a_edge27_Node000023_Node000010"><a xlink:title=" ">
<path fill="none" stroke="#63b8ff" d="M476.48,-137.45C468.07,-135.64 459.24,-133.75 451,-132 386.15,-118.23 311.35,-102.63 262.95,-92.57"/>
<polygon fill="#63b8ff" stroke="#63b8ff" points="263.54,-89.12 253.04,-90.51 262.12,-95.97 263.54,-89.12"/>
</a>
</g>
</g>
<!-- Node23&#45;&gt;Node13 -->
<g id="edge28_Node000023_Node000013" class="edge">
<title>Node23&#45;&gt;Node13</title>
<g id="a_edge28_Node000023_Node000013"><a xlink:title=" ">
<path fill="none" stroke="#63b8ff" d="M513.71,-137.37C511.59,-129.4 508.35,-117.2 505.45,-106.27"/>
<polygon fill="#63b8ff" stroke="#63b8ff" points="508.76,-105.13 502.81,-96.36 502,-106.92 508.76,-105.13"/>
</a>
</g>
</g>
<!-- Node27 -->
<g id="Node000027" class="node">
<title>Node27</title>
<g id="a_Node000027"><a xlink:href="contact__type_8h.html" target="_top" xlink:title=" ">
<polygon fill="white" stroke="#666666" points="1066.5,-156.5 953.5,-156.5 953.5,-137.5 1066.5,-137.5 1066.5,-156.5"/>
<text text-anchor="middle" x="1010" y="-144.5" font-family="Helvetica,sans-Serif" font-size="10.00">dem/contact_type.h</text>
</a>
</g>
</g>
<!-- Node26&#45;&gt;Node27 -->
<g id="edge36_Node000026_Node000027" class="edge">
<title>Node26&#45;&gt;Node27</title>
<g id="a_edge36_Node000026_Node000027"><a xlink:title=" ">
<path fill="none" stroke="#63b8ff" d="M791.45,-197.95C843.04,-186.16 915.67,-169.56 962.79,-158.79"/>
<polygon fill="#63b8ff" stroke="#63b8ff" points="963.77,-162.16 972.74,-156.52 962.21,-155.33 963.77,-162.16"/>
</a>
</g>
</g>
</g>
</svg>
