<?xml version="1.0" encoding="UTF-8" standalone="no"?>
<!DOCTYPE svg PUBLIC "-//W3C//DTD SVG 1.1//EN"
 "http://www.w3.org/Graphics/SVG/1.1/DTD/svg11.dtd">
<!-- Generated by graphviz version 2.43.0 (0)
 -->
<!-- Title: /home/runner/work/lethe/lethe/include/dem/update_local_particle_containers.h Pages: 1 -->
<svg width="2035pt" height="313pt"
 viewBox="0.00 0.00 2034.50 313.00" xmlns="http://www.w3.org/2000/svg" xmlns:xlink="http://www.w3.org/1999/xlink">
<g id="graph0" class="graph" transform="scale(1 1) rotate(0) translate(4 309)">
<title>/home/runner/work/lethe/lethe/include/dem/update_local_particle_containers.h</title>
<!-- Node1 -->
<g id="Node000001" class="node">
<title>Node1</title>
<g id="a_Node000001"><a xlink:title=" ">
<polygon fill="#999999" stroke="#666666" points="650,-305 498,-305 498,-264 650,-264 650,-305"/>
<text text-anchor="start" x="506" y="-293" font-family="Helvetica,sans-Serif" font-size="10.00">/home/runner/work/lethe</text>
<text text-anchor="start" x="506" y="-282" font-family="Helvetica,sans-Serif" font-size="10.00">/lethe/include/dem/update</text>
<text text-anchor="middle" x="574" y="-271" font-family="Helvetica,sans-Serif" font-size="10.00">_local_particle_containers.h</text>
</a>
</g>
</g>
<!-- Node2 -->
<g id="Node000002" class="node">
<title>Node2</title>
<g id="a_Node000002"><a xlink:href="contact__info_8h.html" target="_top" xlink:title=" ">
<polygon fill="white" stroke="#666666" points="633,-156.5 523,-156.5 523,-137.5 633,-137.5 633,-156.5"/>
<text text-anchor="middle" x="578" y="-144.5" font-family="Helvetica,sans-Serif" font-size="10.00">dem/contact_info.h</text>
</a>
</g>
</g>
<!-- Node1&#45;&gt;Node2 -->
<g id="edge1_Node000001_Node000002" class="edge">
<title>Node1&#45;&gt;Node2</title>
<g id="a_edge1_Node000001_Node000002"><a xlink:title=" ">
<path fill="none" stroke="#63b8ff" d="M584.39,-263.8C589.26,-253.45 594.54,-240.38 597,-228 599.6,-214.92 599.41,-211.11 597,-198 594.98,-186.98 590.64,-175.25 586.62,-165.92"/>
<polygon fill="#63b8ff" stroke="#63b8ff" points="589.7,-164.22 582.36,-156.57 583.33,-167.12 589.7,-164.22"/>
</a>
</g>
</g>
<!-- Node6 -->
<g id="Node000006" class="node">
<title>Node6</title>
<g id="a_Node000006"><a xlink:href="contact__type_8h.html" target="_top" xlink:title=" ">
<polygon fill="white" stroke="#666666" points="588.5,-222.5 475.5,-222.5 475.5,-203.5 588.5,-203.5 588.5,-222.5"/>
<text text-anchor="middle" x="532" y="-210.5" font-family="Helvetica,sans-Serif" font-size="10.00">dem/contact_type.h</text>
</a>
</g>
</g>
<!-- Node1&#45;&gt;Node6 -->
<g id="edge5_Node000001_Node000006" class="edge">
<title>Node1&#45;&gt;Node6</title>
<g id="a_edge5_Node000001_Node000006"><a xlink:title=" ">
<path fill="none" stroke="#63b8ff" d="M562.08,-263.77C555.97,-253.66 548.58,-241.44 542.66,-231.64"/>
<polygon fill="#63b8ff" stroke="#63b8ff" points="545.5,-229.57 537.33,-222.82 539.51,-233.19 545.5,-229.57"/>
</a>
</g>
</g>
<!-- Node7 -->
<g id="Node000007" class="node">
<title>Node7</title>
<g id="a_Node000007"><a xlink:href="data__containers_8h.html" target="_top" xlink:title=" ">
<polygon fill="white" stroke="#666666" points="457,-222.5 329,-222.5 329,-203.5 457,-203.5 457,-222.5"/>
<text text-anchor="middle" x="393" y="-210.5" font-family="Helvetica,sans-Serif" font-size="10.00">dem/data_containers.h</text>
</a>
</g>
</g>
<!-- Node1&#45;&gt;Node7 -->
<g id="edge6_Node000001_Node000007" class="edge">
<title>Node1&#45;&gt;Node7</title>
<g id="a_edge6_Node000001_Node000007"><a xlink:title=" ">
<path fill="none" stroke="#63b8ff" d="M523.1,-263.96C491.44,-251.8 451.72,-236.55 424.55,-226.11"/>
<polygon fill="#63b8ff" stroke="#63b8ff" points="425.74,-222.82 415.15,-222.5 423.23,-229.36 425.74,-222.82"/>
</a>
</g>
</g>
<!-- Node29 -->
<g id="Node000029" class="node">
<title>Node29</title>
<g id="a_Node000029"><a xlink:title=" ">
<polygon fill="#e0e0e0" stroke="#999999" points="776.5,-228 645.5,-228 645.5,-198 776.5,-198 776.5,-228"/>
<text text-anchor="start" x="653.5" y="-216" font-family="Helvetica,sans-Serif" font-size="10.00">deal.II/particles/particle</text>
<text text-anchor="middle" x="711" y="-205" font-family="Helvetica,sans-Serif" font-size="10.00">_handler.h</text>
</a>
</g>
</g>
<!-- Node1&#45;&gt;Node29 -->
<g id="edge39_Node000001_Node000029" class="edge">
<title>Node1&#45;&gt;Node29</title>
<g id="a_edge39_Node000001_Node000029"><a xlink:title=" ">
<path fill="none" stroke="#63b8ff" d="M612.53,-263.96C631.84,-254.16 655.12,-242.35 674.19,-232.67"/>
<polygon fill="#63b8ff" stroke="#63b8ff" points="675.85,-235.76 683.18,-228.11 672.68,-229.52 675.85,-235.76"/>
</a>
</g>
</g>
<!-- Node3 -->
<g id="Node000003" class="node">
<title>Node3</title>
<g id="a_Node000003"><a xlink:title=" ">
<polygon fill="#e0e0e0" stroke="#999999" points="364,-90.5 254,-90.5 254,-71.5 364,-71.5 364,-90.5"/>
<text text-anchor="middle" x="309" y="-78.5" font-family="Helvetica,sans-Serif" font-size="10.00">deal.II/base/point.h</text>
</a>
</g>
</g>
<!-- Node2&#45;&gt;Node3 -->
<g id="edge2_Node000002_Node000003" class="edge">
<title>Node2&#45;&gt;Node3</title>
<g id="a_edge2_Node000002_Node000003"><a xlink:title=" ">
<path fill="none" stroke="#63b8ff" d="M542,-137.44C493.58,-125.92 407.46,-105.43 354.58,-92.84"/>
<polygon fill="#63b8ff" stroke="#63b8ff" points="355.32,-89.42 344.79,-90.51 353.7,-96.23 355.32,-89.42"/>
</a>
</g>
</g>
<!-- Node4 -->
<g id="Node000004" class="node">
<title>Node4</title>
<g id="a_Node000004"><a xlink:title=" ">
<polygon fill="#e0e0e0" stroke="#999999" points="235.5,-90.5 120.5,-90.5 120.5,-71.5 235.5,-71.5 235.5,-90.5"/>
<text text-anchor="middle" x="178" y="-78.5" font-family="Helvetica,sans-Serif" font-size="10.00">deal.II/base/tensor.h</text>
</a>
</g>
</g>
<!-- Node2&#45;&gt;Node4 -->
<g id="edge3_Node000002_Node000004" class="edge">
<title>Node2&#45;&gt;Node4</title>
<g id="a_edge3_Node000002_Node000004"><a xlink:title=" ">
<path fill="none" stroke="#63b8ff" d="M540.98,-137.5C531.86,-135.55 522.1,-133.59 513,-132 394.61,-111.33 363.45,-116.3 245,-96 239.07,-94.98 232.87,-93.82 226.73,-92.61"/>
<polygon fill="#63b8ff" stroke="#63b8ff" points="227.02,-89.1 216.53,-90.55 225.63,-95.96 227.02,-89.1"/>
</a>
</g>
</g>
<!-- Node5 -->
<g id="Node000005" class="node">
<title>Node5</title>
<g id="a_Node000005"><a xlink:title=" ">
<polygon fill="#e0e0e0" stroke="#999999" points="513.5,-96 382.5,-96 382.5,-66 513.5,-66 513.5,-96"/>
<text text-anchor="start" x="390.5" y="-84" font-family="Helvetica,sans-Serif" font-size="10.00">deal.II/particles/particle</text>
<text text-anchor="middle" x="448" y="-73" font-family="Helvetica,sans-Serif" font-size="10.00">_iterator.h</text>
</a>
</g>
</g>
<!-- Node2&#45;&gt;Node5 -->
<g id="edge4_Node000002_Node000005" class="edge">
<title>Node2&#45;&gt;Node5</title>
<g id="a_edge4_Node000002_Node000005"><a xlink:title=" ">
<path fill="none" stroke="#63b8ff" d="M560.47,-137.37C541.42,-127.99 510.4,-112.72 485.77,-100.59"/>
<polygon fill="#63b8ff" stroke="#63b8ff" points="487.19,-97.39 476.67,-96.12 484.1,-103.67 487.19,-97.39"/>
</a>
</g>
</g>
<!-- Node7&#45;&gt;Node2 -->
<g id="edge32_Node000007_Node000002" class="edge">
<title>Node7&#45;&gt;Node2</title>
<g id="a_edge32_Node000007_Node000002"><a xlink:title=" ">
<path fill="none" stroke="#63b8ff" d="M417.95,-203.37C450.31,-192.17 506.94,-172.58 543.43,-159.96"/>
<polygon fill="#63b8ff" stroke="#63b8ff" points="544.84,-163.17 553.15,-156.6 542.56,-156.56 544.84,-163.17"/>
</a>
</g>
</g>
<!-- Node7&#45;&gt;Node4 -->
<g id="edge33_Node000007_Node000004" class="edge">
<title>Node7&#45;&gt;Node4</title>
<g id="a_edge33_Node000007_Node000004"><a xlink:title=" ">
<path fill="none" stroke="#63b8ff" d="M328.74,-210C253.5,-206.15 135.62,-194.89 108,-162 88.06,-138.26 124.44,-111.22 151.81,-95.44"/>
<polygon fill="#63b8ff" stroke="#63b8ff" points="153.6,-98.45 160.65,-90.54 150.2,-92.33 153.6,-98.45"/>
</a>
</g>
</g>
<!-- Node7&#45;&gt;Node5 -->
<g id="edge35_Node000007_Node000005" class="edge">
<title>Node7&#45;&gt;Node5</title>
<g id="a_edge35_Node000007_Node000005"><a xlink:title=" ">
<path fill="none" stroke="#63b8ff" d="M437.16,-203.5C508.26,-189.75 640.37,-163.99 642,-162 650.45,-151.69 650.17,-142.54 642,-132 634.39,-122.17 574.77,-107.73 523.61,-96.89"/>
<polygon fill="#63b8ff" stroke="#63b8ff" points="524.01,-93.4 513.51,-94.77 522.58,-100.25 524.01,-93.4"/>
</a>
</g>
</g>
<!-- Node8 -->
<g id="Node000008" class="node">
<title>Node8</title>
<g id="a_Node000008"><a xlink:href="core_2utilities_8h.html" target="_top" xlink:title=" ">
<polygon fill="white" stroke="#666666" points="1273,-156.5 1187,-156.5 1187,-137.5 1273,-137.5 1273,-156.5"/>
<text text-anchor="middle" x="1230" y="-144.5" font-family="Helvetica,sans-Serif" font-size="10.00">core/utilities.h</text>
</a>
</g>
</g>
<!-- Node7&#45;&gt;Node8 -->
<g id="edge7_Node000007_Node000008" class="edge">
<title>Node7&#45;&gt;Node8</title>
<g id="a_edge7_Node000007_Node000008"><a xlink:title=" ">
<path fill="none" stroke="#63b8ff" d="M432.64,-203.47C443.42,-201.41 455.12,-199.39 466,-198 731.46,-163.99 1051.94,-152.55 1176.69,-149.21"/>
<polygon fill="#63b8ff" stroke="#63b8ff" points="1176.84,-152.71 1186.74,-148.95 1176.65,-145.71 1176.84,-152.71"/>
</a>
</g>
</g>
<!-- Node24 -->
<g id="Node000024" class="node">
<title>Node24</title>
<g id="a_Node000024"><a xlink:title=" ">
<polygon fill="#e0e0e0" stroke="#999999" points="2026.5,-90.5 1979.5,-90.5 1979.5,-71.5 2026.5,-71.5 2026.5,-90.5"/>
<text text-anchor="middle" x="2003" y="-78.5" font-family="Helvetica,sans-Serif" font-size="10.00">vector</text>
</a>
</g>
</g>
<!-- Node7&#45;&gt;Node24 -->
<g id="edge37_Node000007_Node000024" class="edge">
<title>Node7&#45;&gt;Node24</title>
<g id="a_edge37_Node000007_Node000024"><a xlink:title=" ">
<path fill="none" stroke="#63b8ff" d="M431.86,-203.46C442.85,-201.34 454.85,-199.31 466,-198 826.55,-155.7 919.86,-187.32 1282,-162 1588.87,-140.55 1673.24,-173.29 1971,-96 1972.89,-95.51 1974.82,-94.92 1976.73,-94.26"/>
<polygon fill="#63b8ff" stroke="#63b8ff" points="1978.06,-97.5 1986.09,-90.59 1975.5,-90.99 1978.06,-97.5"/>
</a>
</g>
</g>
<!-- Node25 -->
<g id="Node000025" class="node">
<title>Node25</title>
<g id="a_Node000025"><a xlink:href="boundary__cells__info__struct_8h.html" target="_top" xlink:title=" ">
<polygon fill="white" stroke="#666666" points="232.5,-162 117.5,-162 117.5,-132 232.5,-132 232.5,-162"/>
<text text-anchor="start" x="125.5" y="-150" font-family="Helvetica,sans-Serif" font-size="10.00">dem/boundary_cells</text>
<text text-anchor="middle" x="175" y="-139" font-family="Helvetica,sans-Serif" font-size="10.00">_info_struct.h</text>
</a>
</g>
</g>
<!-- Node7&#45;&gt;Node25 -->
<g id="edge28_Node000007_Node000025" class="edge">
<title>Node7&#45;&gt;Node25</title>
<g id="a_edge28_Node000007_Node000025"><a xlink:title=" ">
<path fill="none" stroke="#63b8ff" d="M363.6,-203.37C330.25,-193.58 275.03,-177.37 232.93,-165.01"/>
<polygon fill="#63b8ff" stroke="#63b8ff" points="233.66,-161.57 223.08,-162.12 231.69,-168.29 233.66,-161.57"/>
</a>
</g>
</g>
<!-- Node26 -->
<g id="Node000026" class="node">
<title>Node26</title>
<g id="a_Node000026"><a xlink:title=" ">
<polygon fill="#e0e0e0" stroke="#999999" points="102,-96 0,-96 0,-66 102,-66 102,-96"/>
<text text-anchor="start" x="8" y="-84" font-family="Helvetica,sans-Serif" font-size="10.00">deal.II/distributed</text>
<text text-anchor="middle" x="51" y="-73" font-family="Helvetica,sans-Serif" font-size="10.00">/tria.h</text>
</a>
</g>
</g>
<!-- Node7&#45;&gt;Node26 -->
<g id="edge34_Node000007_Node000026" class="edge">
<title>Node7&#45;&gt;Node26</title>
<g id="a_edge34_Node000007_Node000026"><a xlink:title=" ">
<path fill="none" stroke="#63b8ff" d="M328.72,-207.33C253.75,-200.81 135.44,-186.9 99,-162 79.25,-148.51 66.32,-123.97 58.9,-105.61"/>
<polygon fill="#63b8ff" stroke="#63b8ff" points="62.14,-104.28 55.35,-96.16 55.59,-106.75 62.14,-104.28"/>
</a>
</g>
</g>
<!-- Node27 -->
<g id="Node000027" class="node">
<title>Node27</title>
<g id="a_Node000027"><a xlink:title=" ">
<polygon fill="#e0e0e0" stroke="#999999" points="343.5,-156.5 250.5,-156.5 250.5,-137.5 343.5,-137.5 343.5,-156.5"/>
<text text-anchor="middle" x="297" y="-144.5" font-family="Helvetica,sans-Serif" font-size="10.00">unordered_map</text>
</a>
</g>
</g>
<!-- Node7&#45;&gt;Node27 -->
<g id="edge36_Node000007_Node000027" class="edge">
<title>Node7&#45;&gt;Node27</title>
<g id="a_edge36_Node000007_Node000027"><a xlink:title=" ">
<path fill="none" stroke="#63b8ff" d="M380.05,-203.37C364.31,-192.87 337.5,-175 318.6,-162.4"/>
<polygon fill="#63b8ff" stroke="#63b8ff" points="320.31,-159.33 310.05,-156.7 316.43,-165.16 320.31,-159.33"/>
</a>
</g>
</g>
<!-- Node28 -->
<g id="Node000028" class="node">
<title>Node28</title>
<g id="a_Node000028"><a xlink:href="unordered__dense_8h.html" target="_top" xlink:title=" ">
<polygon fill="white" stroke="#666666" points="504.5,-156.5 361.5,-156.5 361.5,-137.5 504.5,-137.5 504.5,-156.5"/>
<text text-anchor="middle" x="433" y="-144.5" font-family="Helvetica,sans-Serif" font-size="10.00">ankerl/unordered_dense.h</text>
</a>
</g>
</g>
<!-- Node7&#45;&gt;Node28 -->
<g id="edge38_Node000007_Node000028" class="edge">
<title>Node7&#45;&gt;Node28</title>
<g id="a_edge38_Node000007_Node000028"><a xlink:title=" ">
<path fill="none" stroke="#63b8ff" d="M398.39,-203.37C404.44,-193.69 414.41,-177.74 422.1,-165.44"/>
<polygon fill="#63b8ff" stroke="#63b8ff" points="425.1,-167.24 427.43,-156.91 419.17,-163.53 425.1,-167.24"/>
</a>
</g>
</g>
<!-- Node8&#45;&gt;Node3 -->
<g id="edge13_Node000008_Node000003" class="edge">
<title>Node8&#45;&gt;Node3</title>
<g id="a_edge13_Node000008_Node000003"><a xlink:title=" ">
<path fill="none" stroke="#63b8ff" d="M1186.97,-145.87C1061.11,-144.99 683.05,-138.69 373,-96 366.64,-95.12 359.98,-93.95 353.45,-92.66"/>
<polygon fill="#63b8ff" stroke="#63b8ff" points="353.87,-89.18 343.37,-90.56 352.44,-96.03 353.87,-89.18"/>
</a>
</g>
</g>
<!-- Node8&#45;&gt;Node4 -->
<g id="edge15_Node000008_Node000004" class="edge">
<title>Node8&#45;&gt;Node4</title>
<g id="a_edge15_Node000008_Node000004"><a xlink:title=" ">
<path fill="none" stroke="#63b8ff" d="M1186.58,-146.19C1048.41,-146.3 606.71,-142.68 245,-96 238.11,-95.11 230.87,-93.9 223.81,-92.56"/>
<polygon fill="#63b8ff" stroke="#63b8ff" points="224.13,-89.05 213.64,-90.52 222.76,-95.91 224.13,-89.05"/>
</a>
</g>
</g>
<!-- Node8&#45;&gt;Node5 -->
<g id="edge18_Node000008_Node000005" class="edge">
<title>Node8&#45;&gt;Node5</title>
<g id="a_edge18_Node000008_Node000005"><a xlink:title=" ">
<path fill="none" stroke="#63b8ff" d="M1186.79,-144.66C1077.51,-140.9 781.15,-128.43 524.07,-96.03"/>
<polygon fill="#63b8ff" stroke="#63b8ff" points="524.15,-92.51 513.78,-94.72 523.26,-99.45 524.15,-92.51"/>
</a>
</g>
</g>
<!-- Node9 -->
<g id="Node000009" class="node">
<title>Node9</title>
<g id="a_Node000009"><a xlink:href="output__struct_8h.html" target="_top" xlink:title=" ">
<polygon fill="white" stroke="#666666" points="1668,-90.5 1554,-90.5 1554,-71.5 1668,-71.5 1668,-90.5"/>
<text text-anchor="middle" x="1611" y="-78.5" font-family="Helvetica,sans-Serif" font-size="10.00">core/output_struct.h</text>
</a>
</g>
</g>
<!-- Node8&#45;&gt;Node9 -->
<g id="edge8_Node000008_Node000009" class="edge">
<title>Node8&#45;&gt;Node9</title>
<g id="a_edge8_Node000008_Node000009"><a xlink:title=" ">
<path fill="none" stroke="#63b8ff" d="M1273.21,-139.52C1333.19,-130.41 1445.02,-113.02 1540,-96 1546.17,-94.89 1552.63,-93.69 1559.03,-92.46"/>
<polygon fill="#63b8ff" stroke="#63b8ff" points="1559.85,-95.87 1569,-90.53 1558.51,-89 1559.85,-95.87"/>
</a>
</g>
</g>
<!-- Node10 -->
<g id="Node000010" class="node">
<title>Node10</title>
<g id="a_Node000010"><a xlink:title=" ">
<polygon fill="#e0e0e0" stroke="#999999" points="1576.5,-30 1475.5,-30 1475.5,0 1576.5,0 1576.5,-30"/>
<text text-anchor="start" x="1483.5" y="-18" font-family="Helvetica,sans-Serif" font-size="10.00">deal.II/base/table</text>
<text text-anchor="middle" x="1526" y="-7" font-family="Helvetica,sans-Serif" font-size="10.00">_handler.h</text>
</a>
</g>
</g>
<!-- Node8&#45;&gt;Node10 -->
<g id="edge14_Node000008_Node000010" class="edge">
<title>Node8&#45;&gt;Node10</title>
<g id="a_edge14_Node000008_Node000010"><a xlink:title=" ">
<path fill="none" stroke="#63b8ff" d="M1273.21,-143.77C1342.22,-139.32 1472.94,-126.95 1506,-96 1521.13,-81.83 1525.54,-58.11 1526.52,-40.16"/>
<polygon fill="#63b8ff" stroke="#63b8ff" points="1530.02,-40.2 1526.76,-30.13 1523.02,-40.04 1530.02,-40.2"/>
</a>
</g>
</g>
<!-- Node12 -->
<g id="Node000012" class="node">
<title>Node12</title>
<g id="a_Node000012"><a xlink:title=" ">
<polygon fill="#e0e0e0" stroke="#999999" points="1816,-96 1686,-96 1686,-66 1816,-66 1816,-96"/>
<text text-anchor="start" x="1694" y="-84" font-family="Helvetica,sans-Serif" font-size="10.00">deal.II/base/conditional</text>
<text text-anchor="middle" x="1751" y="-73" font-family="Helvetica,sans-Serif" font-size="10.00">_ostream.h</text>
</a>
</g>
</g>
<!-- Node8&#45;&gt;Node12 -->
<g id="edge11_Node000008_Node000012" class="edge">
<title>Node8&#45;&gt;Node12</title>
<g id="a_edge11_Node000008_Node000012"><a xlink:title=" ">
<path fill="none" stroke="#63b8ff" d="M1273.29,-142.25C1351.56,-135.24 1521.98,-118.89 1675.58,-96.14"/>
<polygon fill="#63b8ff" stroke="#63b8ff" points="1676.3,-99.58 1685.68,-94.64 1675.27,-92.65 1676.3,-99.58"/>
</a>
</g>
</g>
<!-- Node13 -->
<g id="Node000013" class="node">
<title>Node13</title>
<g id="a_Node000013"><a xlink:title=" ">
<polygon fill="#e0e0e0" stroke="#999999" points="1961.5,-96 1834.5,-96 1834.5,-66 1961.5,-66 1961.5,-96"/>
<text text-anchor="start" x="1842.5" y="-84" font-family="Helvetica,sans-Serif" font-size="10.00">deal.II/base/parameter</text>
<text text-anchor="middle" x="1898" y="-73" font-family="Helvetica,sans-Serif" font-size="10.00">_handler.h</text>
</a>
</g>
</g>
<!-- Node8&#45;&gt;Node13 -->
<g id="edge12_Node000008_Node000013" class="edge">
<title>Node8&#45;&gt;Node13</title>
<g id="a_edge12_Node000008_Node000013"><a xlink:title=" ">
<path fill="none" stroke="#63b8ff" d="M1273.1,-143.94C1369.83,-138.99 1611.64,-124.73 1824.26,-95.99"/>
<polygon fill="#63b8ff" stroke="#63b8ff" points="1824.93,-99.44 1834.36,-94.61 1823.98,-92.5 1824.93,-99.44"/>
</a>
</g>
</g>
<!-- Node14 -->
<g id="Node000014" class="node">
<title>Node14</title>
<g id="a_Node000014"><a xlink:title=" ">
<polygon fill="#e0e0e0" stroke="#999999" points="672,-90.5 532,-90.5 532,-71.5 672,-71.5 672,-90.5"/>
<text text-anchor="middle" x="602" y="-78.5" font-family="Helvetica,sans-Serif" font-size="10.00">deal.II/dofs/dof_handler.h</text>
</a>
</g>
</g>
<!-- Node8&#45;&gt;Node14 -->
<g id="edge16_Node000008_Node000014" class="edge">
<title>Node8&#45;&gt;Node14</title>
<g id="a_edge16_Node000008_Node000014"><a xlink:title=" ">
<path fill="none" stroke="#63b8ff" d="M1186.8,-143.31C1093.95,-137.27 868.59,-121.12 681,-96 672.95,-94.92 664.47,-93.61 656.18,-92.22"/>
<polygon fill="#63b8ff" stroke="#63b8ff" points="656.63,-88.75 646.19,-90.51 655.45,-95.65 656.63,-88.75"/>
</a>
</g>
</g>
<!-- Node15 -->
<g id="Node000015" class="node">
<title>Node15</title>
<g id="a_Node000015"><a xlink:title=" ">
<polygon fill="#e0e0e0" stroke="#999999" points="809.5,-90.5 690.5,-90.5 690.5,-71.5 809.5,-71.5 809.5,-90.5"/>
<text text-anchor="middle" x="750" y="-78.5" font-family="Helvetica,sans-Serif" font-size="10.00">deal.II/fe/fe_values.h</text>
</a>
</g>
</g>
<!-- Node8&#45;&gt;Node15 -->
<g id="edge17_Node000008_Node000015" class="edge">
<title>Node8&#45;&gt;Node15</title>
<g id="a_edge17_Node000008_Node000015"><a xlink:title=" ">
<path fill="none" stroke="#63b8ff" d="M1186.83,-141.94C1111.64,-134.61 951.87,-117.87 818,-96 811.75,-94.98 805.21,-93.79 798.75,-92.54"/>
<polygon fill="#63b8ff" stroke="#63b8ff" points="799.23,-89.07 788.73,-90.55 797.86,-95.93 799.23,-89.07"/>
</a>
</g>
</g>
<!-- Node16 -->
<g id="Node000016" class="node">
<title>Node16</title>
<g id="a_Node000016"><a xlink:title=" ">
<polygon fill="#e0e0e0" stroke="#999999" points="932.5,-96 827.5,-96 827.5,-66 932.5,-66 932.5,-96"/>
<text text-anchor="start" x="835.5" y="-84" font-family="Helvetica,sans-Serif" font-size="10.00">boost/archive/text</text>
<text text-anchor="middle" x="880" y="-73" font-family="Helvetica,sans-Serif" font-size="10.00">_iarchive.hpp</text>
</a>
</g>
</g>
<!-- Node8&#45;&gt;Node16 -->
<g id="edge19_Node000008_Node000016" class="edge">
<title>Node8&#45;&gt;Node16</title>
<g id="a_edge19_Node000008_Node000016"><a xlink:title=" ">
<path fill="none" stroke="#63b8ff" d="M1186.78,-139.27C1132.15,-130.61 1035,-114.64 942.61,-96.27"/>
<polygon fill="#63b8ff" stroke="#63b8ff" points="943.03,-92.78 932.53,-94.25 941.65,-99.64 943.03,-92.78"/>
</a>
</g>
</g>
<!-- Node17 -->
<g id="Node000017" class="node">
<title>Node17</title>
<g id="a_Node000017"><a xlink:title=" ">
<polygon fill="#e0e0e0" stroke="#999999" points="1055.5,-96 950.5,-96 950.5,-66 1055.5,-66 1055.5,-96"/>
<text text-anchor="start" x="958.5" y="-84" font-family="Helvetica,sans-Serif" font-size="10.00">boost/archive/text</text>
<text text-anchor="middle" x="1003" y="-73" font-family="Helvetica,sans-Serif" font-size="10.00">_oarchive.hpp</text>
</a>
</g>
</g>
<!-- Node8&#45;&gt;Node17 -->
<g id="edge20_Node000008_Node000017" class="edge">
<title>Node8&#45;&gt;Node17</title>
<g id="a_edge20_Node000008_Node000017"><a xlink:title=" ">
<path fill="none" stroke="#63b8ff" d="M1199.39,-137.37C1164.51,-127.54 1106.67,-111.23 1062.77,-98.85"/>
<polygon fill="#63b8ff" stroke="#63b8ff" points="1063.64,-95.46 1053.07,-96.12 1061.74,-102.2 1063.64,-95.46"/>
</a>
</g>
</g>
<!-- Node18 -->
<g id="Node000018" class="node">
<title>Node18</title>
<g id="a_Node000018"><a xlink:title=" ">
<polygon fill="#e0e0e0" stroke="#999999" points="1184,-96 1074,-96 1074,-66 1184,-66 1184,-96"/>
<text text-anchor="start" x="1082" y="-84" font-family="Helvetica,sans-Serif" font-size="10.00">boost/math/special</text>
<text text-anchor="middle" x="1129" y="-73" font-family="Helvetica,sans-Serif" font-size="10.00">_functions/erf.hpp</text>
</a>
</g>
</g>
<!-- Node8&#45;&gt;Node18 -->
<g id="edge21_Node000008_Node000018" class="edge">
<title>Node8&#45;&gt;Node18</title>
<g id="a_edge21_Node000008_Node000018"><a xlink:title=" ">
<path fill="none" stroke="#63b8ff" d="M1216.38,-137.37C1201.97,-128.24 1178.75,-113.53 1159.87,-101.56"/>
<polygon fill="#63b8ff" stroke="#63b8ff" points="1161.6,-98.51 1151.28,-96.12 1157.85,-104.42 1161.6,-98.51"/>
</a>
</g>
</g>
<!-- Node19 -->
<g id="Node000019" class="node">
<title>Node19</title>
<g id="a_Node000019"><a xlink:title=" ">
<polygon fill="#e0e0e0" stroke="#999999" points="1257.5,-90.5 1202.5,-90.5 1202.5,-71.5 1257.5,-71.5 1257.5,-90.5"/>
<text text-anchor="middle" x="1230" y="-78.5" font-family="Helvetica,sans-Serif" font-size="10.00">fstream</text>
</a>
</g>
</g>
<!-- Node8&#45;&gt;Node19 -->
<g id="edge22_Node000008_Node000019" class="edge">
<title>Node8&#45;&gt;Node19</title>
<g id="a_edge22_Node000008_Node000019"><a xlink:title=" ">
<path fill="none" stroke="#63b8ff" d="M1230,-137.37C1230,-128.16 1230,-113.29 1230,-101.27"/>
<polygon fill="#63b8ff" stroke="#63b8ff" points="1233.5,-100.91 1230,-90.91 1226.5,-100.91 1233.5,-100.91"/>
</a>
</g>
</g>
<!-- Node20 -->
<g id="Node000020" class="node">
<title>Node20</title>
<g id="a_Node000020"><a xlink:title=" ">
<polygon fill="#e0e0e0" stroke="#999999" points="1314,-90.5 1276,-90.5 1276,-71.5 1314,-71.5 1314,-90.5"/>
<text text-anchor="middle" x="1295" y="-78.5" font-family="Helvetica,sans-Serif" font-size="10.00">map</text>
</a>
</g>
</g>
<!-- Node8&#45;&gt;Node20 -->
<g id="edge23_Node000008_Node000020" class="edge">
<title>Node8&#45;&gt;Node20</title>
<g id="a_edge23_Node000008_Node000020"><a xlink:title=" ">
<path fill="none" stroke="#63b8ff" d="M1238.77,-137.37C1248.98,-127.31 1266.08,-110.48 1278.74,-98.01"/>
<polygon fill="#63b8ff" stroke="#63b8ff" points="1281.29,-100.42 1285.96,-90.91 1276.37,-95.43 1281.29,-100.42"/>
</a>
</g>
</g>
<!-- Node21 -->
<g id="Node000021" class="node">
<title>Node21</title>
<g id="a_Node000021"><a xlink:title=" ">
<polygon fill="#e0e0e0" stroke="#999999" points="1376,-90.5 1332,-90.5 1332,-71.5 1376,-71.5 1376,-90.5"/>
<text text-anchor="middle" x="1354" y="-78.5" font-family="Helvetica,sans-Serif" font-size="10.00">regex</text>
</a>
</g>
</g>
<!-- Node8&#45;&gt;Node21 -->
<g id="edge24_Node000008_Node000021" class="edge">
<title>Node8&#45;&gt;Node21</title>
<g id="a_edge24_Node000008_Node000021"><a xlink:title=" ">
<path fill="none" stroke="#63b8ff" d="M1246.72,-137.37C1267.62,-126.59 1303.59,-108.02 1328.07,-95.38"/>
<polygon fill="#63b8ff" stroke="#63b8ff" points="1329.86,-98.4 1337.15,-90.7 1326.65,-92.18 1329.86,-98.4"/>
</a>
</g>
</g>
<!-- Node22 -->
<g id="Node000022" class="node">
<title>Node22</title>
<g id="a_Node000022"><a xlink:title=" ">
<polygon fill="#e0e0e0" stroke="#999999" points="1438,-90.5 1394,-90.5 1394,-71.5 1438,-71.5 1438,-90.5"/>
<text text-anchor="middle" x="1416" y="-78.5" font-family="Helvetica,sans-Serif" font-size="10.00">string</text>
</a>
</g>
</g>
<!-- Node8&#45;&gt;Node22 -->
<g id="edge25_Node000008_Node000022" class="edge">
<title>Node8&#45;&gt;Node22</title>
<g id="a_edge25_Node000008_Node000022"><a xlink:title=" ">
<path fill="none" stroke="#63b8ff" d="M1259.77,-137.48C1291.23,-128.22 1342.13,-112.53 1385,-96 1386.18,-95.55 1387.37,-95.07 1388.58,-94.58"/>
<polygon fill="#63b8ff" stroke="#63b8ff" points="1389.97,-97.79 1397.78,-90.64 1387.21,-91.36 1389.97,-97.79"/>
</a>
</g>
</g>
<!-- Node23 -->
<g id="Node000023" class="node">
<title>Node23</title>
<g id="a_Node000023"><a xlink:title=" ">
<polygon fill="#e0e0e0" stroke="#999999" points="1497.5,-90.5 1456.5,-90.5 1456.5,-71.5 1497.5,-71.5 1497.5,-90.5"/>
<text text-anchor="middle" x="1477" y="-78.5" font-family="Helvetica,sans-Serif" font-size="10.00">tuple</text>
</a>
</g>
</g>
<!-- Node8&#45;&gt;Node23 -->
<g id="edge26_Node000008_Node000023" class="edge">
<title>Node8&#45;&gt;Node23</title>
<g id="a_edge26_Node000008_Node000023"><a xlink:title=" ">
<path fill="none" stroke="#63b8ff" d="M1273.16,-138.82C1317.49,-130.81 1388.15,-116.26 1447,-96 1448.22,-95.58 1449.46,-95.12 1450.71,-94.64"/>
<polygon fill="#63b8ff" stroke="#63b8ff" points="1452.3,-97.77 1460.12,-90.63 1449.55,-91.33 1452.3,-97.77"/>
</a>
</g>
</g>
<!-- Node8&#45;&gt;Node24 -->
<g id="edge27_Node000008_Node000024" class="edge">
<title>Node8&#45;&gt;Node24</title>
<g id="a_edge27_Node000008_Node000024"><a xlink:title=" ">
<path fill="none" stroke="#63b8ff" d="M1273.43,-145.03C1411.22,-141.64 1837.3,-128.7 1971,-96 1972.94,-95.52 1974.92,-94.94 1976.88,-94.28"/>
<polygon fill="#63b8ff" stroke="#63b8ff" points="1978.41,-97.44 1986.44,-90.54 1975.85,-90.92 1978.41,-97.44"/>
</a>
</g>
</g>
<!-- Node9&#45;&gt;Node10 -->
<g id="edge9_Node000009_Node000010" class="edge">
<title>Node9&#45;&gt;Node10</title>
<g id="a_edge9_Node000009_Node000010"><a xlink:title=" ">
<path fill="none" stroke="#63b8ff" d="M1599.54,-71.37C1587.68,-62.44 1568.75,-48.19 1553.06,-36.38"/>
<polygon fill="#63b8ff" stroke="#63b8ff" points="1554.84,-33.33 1544.75,-30.12 1550.63,-38.93 1554.84,-33.33"/>
</a>
</g>
</g>
<!-- Node11 -->
<g id="Node000011" class="node">
<title>Node11</title>
<g id="a_Node000011"><a xlink:title=" ">
<polygon fill="#e0e0e0" stroke="#999999" points="1713.5,-30 1594.5,-30 1594.5,0 1713.5,0 1713.5,-30"/>
<text text-anchor="start" x="1602.5" y="-18" font-family="Helvetica,sans-Serif" font-size="10.00">deal.II/numerics/data</text>
<text text-anchor="middle" x="1654" y="-7" font-family="Helvetica,sans-Serif" font-size="10.00">_postprocessor.h</text>
</a>
</g>
</g>
<!-- Node9&#45;&gt;Node11 -->
<g id="edge10_Node000009_Node000011" class="edge">
<title>Node9&#45;&gt;Node11</title>
<g id="a_edge10_Node000009_Node000011"><a xlink:title=" ">
<path fill="none" stroke="#63b8ff" d="M1616.8,-71.37C1622.37,-63.08 1631.03,-50.18 1638.6,-38.92"/>
<polygon fill="#63b8ff" stroke="#63b8ff" points="1641.68,-40.61 1644.35,-30.36 1635.87,-36.71 1641.68,-40.61"/>
</a>
</g>
</g>
<!-- Node25&#45;&gt;Node3 -->
<g id="edge29_Node000025_Node000003" class="edge">
<title>Node25&#45;&gt;Node3</title>
<g id="a_edge29_Node000025_Node000003"><a xlink:title=" ">
<path fill="none" stroke="#63b8ff" d="M204.41,-131.95C227.49,-120.93 259.38,-105.7 281.86,-94.96"/>
<polygon fill="#63b8ff" stroke="#63b8ff" points="283.65,-97.99 291.17,-90.52 280.63,-91.67 283.65,-97.99"/>
</a>
</g>
</g>
<!-- Node25&#45;&gt;Node4 -->
<g id="edge30_Node000025_Node000004" class="edge">
<title>Node25&#45;&gt;Node4</title>
<g id="a_edge30_Node000025_Node000004"><a xlink:title=" ">
<path fill="none" stroke="#63b8ff" d="M175.67,-131.8C176.09,-122.7 176.65,-110.79 177.11,-100.9"/>
<polygon fill="#63b8ff" stroke="#63b8ff" points="180.61,-101 177.59,-90.84 173.62,-100.67 180.61,-101"/>
</a>
</g>
</g>
<!-- Node25&#45;&gt;Node26 -->
<g id="edge31_Node000025_Node000026" class="edge">
<title>Node25&#45;&gt;Node26</title>
<g id="a_edge31_Node000025_Node000026"><a xlink:title=" ">
<path fill="none" stroke="#63b8ff" d="M147.79,-131.95C130.02,-122.78 106.62,-110.71 87.28,-100.72"/>
<polygon fill="#63b8ff" stroke="#63b8ff" points="88.64,-97.49 78.15,-96.01 85.43,-103.71 88.64,-97.49"/>
</a>
</g>
</g>
</g>
</svg>
