<?xml version="1.0" encoding="UTF-8" standalone="no"?>
<!DOCTYPE svg PUBLIC "-//W3C//DTD SVG 1.1//EN"
 "http://www.w3.org/Graphics/SVG/1.1/DTD/svg11.dtd">
<!-- Generated by graphviz version 2.43.0 (0)
 -->
<!-- Title: /home/runner/work/lethe/lethe/source/core/utilities.cc Pages: 1 -->
<svg width="1954pt" height="225pt"
 viewBox="0.00 0.00 1954.00 225.00" xmlns="http://www.w3.org/2000/svg" xmlns:xlink="http://www.w3.org/1999/xlink">
<g id="graph0" class="graph" transform="scale(1 1) rotate(0) translate(4 221)">
<title>/home/runner/work/lethe/lethe/source/core/utilities.cc</title>
<!-- Node1 -->
<g id="Node000001" class="node">
<title>Node1</title>
<g id="a_Node000001"><a xlink:title=" ">
<polygon fill="#999999" stroke="#666666" points="1274,-217 1117,-217 1117,-187 1274,-187 1274,-217"/>
<text text-anchor="start" x="1125" y="-205" font-family="Helvetica,sans-Serif" font-size="10.00">/home/runner/work/lethe</text>
<text text-anchor="middle" x="1195.5" y="-194" font-family="Helvetica,sans-Serif" font-size="10.00">/lethe/source/core/utilities.cc</text>
</a>
</g>
</g>
<!-- Node2 -->
<g id="Node000002" class="node">
<title>Node2</title>
<g id="a_Node000002"><a xlink:title=" ">
<polygon fill="#e0e0e0" stroke="#999999" points="1134,-151 1045,-151 1045,-132 1134,-132 1134,-151"/>
<text text-anchor="middle" x="1089.5" y="-139" font-family="Helvetica,sans-Serif" font-size="10.00">core/revision.h</text>
</a>
</g>
</g>
<!-- Node1&#45;&gt;Node2 -->
<g id="edge1_Node000001_Node000002" class="edge">
<title>Node1&#45;&gt;Node2</title>
<g id="a_edge1_Node000001_Node000002"><a xlink:title=" ">
<path fill="none" stroke="#63b8ff" d="M1170.11,-186.99C1153.21,-177.66 1131.12,-165.47 1114.34,-156.21"/>
<polygon fill="#63b8ff" stroke="#63b8ff" points="1115.6,-152.91 1105.15,-151.14 1112.22,-159.04 1115.6,-152.91"/>
</a>
</g>
</g>
<!-- Node3 -->
<g id="Node000003" class="node">
<title>Node3</title>
<g id="a_Node000003"><a xlink:href="utilities_8h.html" target="_top" xlink:title=" ">
<polygon fill="white" stroke="#666666" points="1238.5,-151 1152.5,-151 1152.5,-132 1238.5,-132 1238.5,-151"/>
<text text-anchor="middle" x="1195.5" y="-139" font-family="Helvetica,sans-Serif" font-size="10.00">core/utilities.h</text>
</a>
</g>
</g>
<!-- Node1&#45;&gt;Node3 -->
<g id="edge2_Node000001_Node000003" class="edge">
<title>Node1&#45;&gt;Node3</title>
<g id="a_edge2_Node000001_Node000003"><a xlink:title=" ">
<path fill="none" stroke="#63b8ff" d="M1195.5,-186.84C1195.5,-179.21 1195.5,-169.7 1195.5,-161.45"/>
<polygon fill="#63b8ff" stroke="#63b8ff" points="1199,-161.27 1195.5,-151.27 1192,-161.27 1199,-161.27"/>
</a>
</g>
</g>
<!-- Node23 -->
<g id="Node000023" class="node">
<title>Node23</title>
<g id="a_Node000023"><a xlink:title=" ">
<polygon fill="#e0e0e0" stroke="#999999" points="1380.5,-151 1256.5,-151 1256.5,-132 1380.5,-132 1380.5,-151"/>
<text text-anchor="middle" x="1318.5" y="-139" font-family="Helvetica,sans-Serif" font-size="10.00">deal.II/base/revision.h</text>
</a>
</g>
</g>
<!-- Node1&#45;&gt;Node23 -->
<g id="edge23_Node000001_Node000023" class="edge">
<title>Node1&#45;&gt;Node23</title>
<g id="a_edge23_Node000001_Node000023"><a xlink:title=" ">
<path fill="none" stroke="#63b8ff" d="M1224.96,-186.99C1245.12,-177.4 1271.64,-164.79 1291.3,-155.44"/>
<polygon fill="#63b8ff" stroke="#63b8ff" points="1292.81,-158.6 1300.34,-151.14 1289.8,-152.27 1292.81,-158.6"/>
</a>
</g>
</g>
<!-- Node4 -->
<g id="Node000004" class="node">
<title>Node4</title>
<g id="a_Node000004"><a xlink:href="output__struct_8h.html" target="_top" xlink:title=" ">
<polygon fill="white" stroke="#666666" points="192.5,-90.5 78.5,-90.5 78.5,-71.5 192.5,-71.5 192.5,-90.5"/>
<text text-anchor="middle" x="135.5" y="-78.5" font-family="Helvetica,sans-Serif" font-size="10.00">core/output_struct.h</text>
</a>
</g>
</g>
<!-- Node3&#45;&gt;Node4 -->
<g id="edge3_Node000003_Node000004" class="edge">
<title>Node3&#45;&gt;Node4</title>
<g id="a_edge3_Node000003_Node000004"><a xlink:title=" ">
<path fill="none" stroke="#63b8ff" d="M1152.42,-133.04C1149.41,-132.64 1146.41,-132.29 1143.5,-132 726.63,-90.13 617.28,-147.66 201.5,-96 194.63,-95.15 187.41,-93.94 180.37,-92.59"/>
<polygon fill="#63b8ff" stroke="#63b8ff" points="180.75,-89.09 170.25,-90.53 179.35,-95.95 180.75,-89.09"/>
</a>
</g>
</g>
<!-- Node5 -->
<g id="Node000005" class="node">
<title>Node5</title>
<g id="a_Node000005"><a xlink:title=" ">
<polygon fill="#e0e0e0" stroke="#999999" points="101,-30 0,-30 0,0 101,0 101,-30"/>
<text text-anchor="start" x="8" y="-18" font-family="Helvetica,sans-Serif" font-size="10.00">deal.II/base/table</text>
<text text-anchor="middle" x="50.5" y="-7" font-family="Helvetica,sans-Serif" font-size="10.00">_handler.h</text>
</a>
</g>
</g>
<!-- Node3&#45;&gt;Node5 -->
<g id="edge9_Node000003_Node000005" class="edge">
<title>Node3&#45;&gt;Node5</title>
<g id="a_edge9_Node000003_Node000005"><a xlink:title=" ">
<path fill="none" stroke="#63b8ff" d="M1152.43,-133.02C1149.41,-132.63 1146.41,-132.29 1143.5,-132 1084.08,-126.17 115.71,-133.8 69.5,-96 53.41,-82.84 49.48,-58.77 49.08,-40.46"/>
<polygon fill="#63b8ff" stroke="#63b8ff" points="52.58,-40.25 49.19,-30.21 45.58,-40.17 52.58,-40.25"/>
</a>
</g>
</g>
<!-- Node7 -->
<g id="Node000007" class="node">
<title>Node7</title>
<g id="a_Node000007"><a xlink:title=" ">
<polygon fill="#e0e0e0" stroke="#999999" points="340.5,-96 210.5,-96 210.5,-66 340.5,-66 340.5,-96"/>
<text text-anchor="start" x="218.5" y="-84" font-family="Helvetica,sans-Serif" font-size="10.00">deal.II/base/conditional</text>
<text text-anchor="middle" x="275.5" y="-73" font-family="Helvetica,sans-Serif" font-size="10.00">_ostream.h</text>
</a>
</g>
</g>
<!-- Node3&#45;&gt;Node7 -->
<g id="edge6_Node000003_Node000007" class="edge">
<title>Node3&#45;&gt;Node7</title>
<g id="a_edge6_Node000003_Node000007"><a xlink:title=" ">
<path fill="none" stroke="#63b8ff" d="M1152.42,-133.06C1149.41,-132.66 1146.41,-132.3 1143.5,-132 795.84,-95.82 702.7,-135.71 350.82,-95.9"/>
<polygon fill="#63b8ff" stroke="#63b8ff" points="351.2,-92.42 340.87,-94.76 350.4,-99.37 351.2,-92.42"/>
</a>
</g>
</g>
<!-- Node8 -->
<g id="Node000008" class="node">
<title>Node8</title>
<g id="a_Node000008"><a xlink:title=" ">
<polygon fill="#e0e0e0" stroke="#999999" points="486,-96 359,-96 359,-66 486,-66 486,-96"/>
<text text-anchor="start" x="367" y="-84" font-family="Helvetica,sans-Serif" font-size="10.00">deal.II/base/parameter</text>
<text text-anchor="middle" x="422.5" y="-73" font-family="Helvetica,sans-Serif" font-size="10.00">_handler.h</text>
</a>
</g>
</g>
<!-- Node3&#45;&gt;Node8 -->
<g id="edge7_Node000003_Node000008" class="edge">
<title>Node3&#45;&gt;Node8</title>
<g id="a_edge7_Node000003_Node000008"><a xlink:title=" ">
<path fill="none" stroke="#63b8ff" d="M1152.42,-133.1C1149.4,-132.69 1146.41,-132.32 1143.5,-132 860.12,-101.06 783.57,-130.54 496.43,-95.98"/>
<polygon fill="#63b8ff" stroke="#63b8ff" points="496.47,-92.46 486.12,-94.72 495.62,-99.41 496.47,-92.46"/>
</a>
</g>
</g>
<!-- Node9 -->
<g id="Node000009" class="node">
<title>Node9</title>
<g id="a_Node000009"><a xlink:title=" ">
<polygon fill="#e0e0e0" stroke="#999999" points="614.5,-90.5 504.5,-90.5 504.5,-71.5 614.5,-71.5 614.5,-90.5"/>
<text text-anchor="middle" x="559.5" y="-78.5" font-family="Helvetica,sans-Serif" font-size="10.00">deal.II/base/point.h</text>
</a>
</g>
</g>
<!-- Node3&#45;&gt;Node9 -->
<g id="edge8_Node000003_Node000009" class="edge">
<title>Node3&#45;&gt;Node9</title>
<g id="a_edge8_Node000003_Node000009"><a xlink:title=" ">
<path fill="none" stroke="#63b8ff" d="M1152.41,-133.14C1149.4,-132.72 1146.41,-132.34 1143.5,-132 913.82,-105.32 853.44,-128.43 624.5,-96 618.12,-95.1 611.44,-93.92 604.89,-92.64"/>
<polygon fill="#63b8ff" stroke="#63b8ff" points="605.26,-89.14 594.76,-90.55 603.85,-96 605.26,-89.14"/>
</a>
</g>
</g>
<!-- Node10 -->
<g id="Node000010" class="node">
<title>Node10</title>
<g id="a_Node000010"><a xlink:title=" ">
<polygon fill="#e0e0e0" stroke="#999999" points="748,-90.5 633,-90.5 633,-71.5 748,-71.5 748,-90.5"/>
<text text-anchor="middle" x="690.5" y="-78.5" font-family="Helvetica,sans-Serif" font-size="10.00">deal.II/base/tensor.h</text>
</a>
</g>
</g>
<!-- Node3&#45;&gt;Node10 -->
<g id="edge10_Node000003_Node000010" class="edge">
<title>Node3&#45;&gt;Node10</title>
<g id="a_edge10_Node000003_Node000010"><a xlink:title=" ">
<path fill="none" stroke="#63b8ff" d="M1152.4,-133.22C1149.39,-132.78 1146.4,-132.37 1143.5,-132 972.6,-110.09 927.88,-121.66 757.5,-96 751.1,-95.04 744.39,-93.85 737.79,-92.58"/>
<polygon fill="#63b8ff" stroke="#63b8ff" points="738.07,-89.06 727.58,-90.53 736.69,-95.93 738.07,-89.06"/>
</a>
</g>
</g>
<!-- Node11 -->
<g id="Node000011" class="node">
<title>Node11</title>
<g id="a_Node000011"><a xlink:title=" ">
<polygon fill="#e0e0e0" stroke="#999999" points="906.5,-90.5 766.5,-90.5 766.5,-71.5 906.5,-71.5 906.5,-90.5"/>
<text text-anchor="middle" x="836.5" y="-78.5" font-family="Helvetica,sans-Serif" font-size="10.00">deal.II/dofs/dof_handler.h</text>
</a>
</g>
</g>
<!-- Node3&#45;&gt;Node11 -->
<g id="edge11_Node000003_Node000011" class="edge">
<title>Node3&#45;&gt;Node11</title>
<g id="a_edge11_Node000003_Node000011"><a xlink:title=" ">
<path fill="none" stroke="#63b8ff" d="M1152.37,-133.43C1149.37,-132.95 1146.39,-132.47 1143.5,-132 1042.65,-115.76 1017.26,-112.8 916.5,-96 909.42,-94.82 902,-93.56 894.65,-92.29"/>
<polygon fill="#63b8ff" stroke="#63b8ff" points="895.16,-88.82 884.71,-90.56 893.96,-95.72 895.16,-88.82"/>
</a>
</g>
</g>
<!-- Node12 -->
<g id="Node000012" class="node">
<title>Node12</title>
<g id="a_Node000012"><a xlink:title=" ">
<polygon fill="#e0e0e0" stroke="#999999" points="1044,-90.5 925,-90.5 925,-71.5 1044,-71.5 1044,-90.5"/>
<text text-anchor="middle" x="984.5" y="-78.5" font-family="Helvetica,sans-Serif" font-size="10.00">deal.II/fe/fe_values.h</text>
</a>
</g>
</g>
<!-- Node3&#45;&gt;Node12 -->
<g id="edge12_Node000003_Node000012" class="edge">
<title>Node3&#45;&gt;Node12</title>
<g id="a_edge12_Node000003_Node000012"><a xlink:title=" ">
<path fill="none" stroke="#63b8ff" d="M1164.82,-131.99C1127.94,-121.77 1065.93,-104.58 1025.11,-93.26"/>
<polygon fill="#63b8ff" stroke="#63b8ff" points="1025.79,-89.82 1015.22,-90.52 1023.92,-96.56 1025.79,-89.82"/>
</a>
</g>
</g>
<!-- Node13 -->
<g id="Node000013" class="node">
<title>Node13</title>
<g id="a_Node000013"><a xlink:title=" ">
<polygon fill="#e0e0e0" stroke="#999999" points="1193,-96 1062,-96 1062,-66 1193,-66 1193,-96"/>
<text text-anchor="start" x="1070" y="-84" font-family="Helvetica,sans-Serif" font-size="10.00">deal.II/particles/particle</text>
<text text-anchor="middle" x="1127.5" y="-73" font-family="Helvetica,sans-Serif" font-size="10.00">_iterator.h</text>
</a>
</g>
</g>
<!-- Node3&#45;&gt;Node13 -->
<g id="edge13_Node000003_Node000013" class="edge">
<title>Node3&#45;&gt;Node13</title>
<g id="a_edge13_Node000003_Node000013"><a xlink:title=" ">
<path fill="none" stroke="#63b8ff" d="M1185.47,-131.87C1176.58,-124.22 1163.25,-112.76 1151.62,-102.75"/>
<polygon fill="#63b8ff" stroke="#63b8ff" points="1153.77,-99.98 1143.91,-96.11 1149.2,-105.29 1153.77,-99.98"/>
</a>
</g>
</g>
<!-- Node14 -->
<g id="Node000014" class="node">
<title>Node14</title>
<g id="a_Node000014"><a xlink:title=" ">
<polygon fill="#e0e0e0" stroke="#999999" points="1316,-96 1211,-96 1211,-66 1316,-66 1316,-96"/>
<text text-anchor="start" x="1219" y="-84" font-family="Helvetica,sans-Serif" font-size="10.00">boost/archive/text</text>
<text text-anchor="middle" x="1263.5" y="-73" font-family="Helvetica,sans-Serif" font-size="10.00">_iarchive.hpp</text>
</a>
</g>
</g>
<!-- Node3&#45;&gt;Node14 -->
<g id="edge14_Node000003_Node000014" class="edge">
<title>Node3&#45;&gt;Node14</title>
<g id="a_edge14_Node000003_Node000014"><a xlink:title=" ">
<path fill="none" stroke="#63b8ff" d="M1205.53,-131.87C1214.42,-124.22 1227.75,-112.76 1239.38,-102.75"/>
<polygon fill="#63b8ff" stroke="#63b8ff" points="1241.8,-105.29 1247.09,-96.11 1237.23,-99.98 1241.8,-105.29"/>
</a>
</g>
</g>
<!-- Node15 -->
<g id="Node000015" class="node">
<title>Node15</title>
<g id="a_Node000015"><a xlink:title=" ">
<polygon fill="#e0e0e0" stroke="#999999" points="1439,-96 1334,-96 1334,-66 1439,-66 1439,-96"/>
<text text-anchor="start" x="1342" y="-84" font-family="Helvetica,sans-Serif" font-size="10.00">boost/archive/text</text>
<text text-anchor="middle" x="1386.5" y="-73" font-family="Helvetica,sans-Serif" font-size="10.00">_oarchive.hpp</text>
</a>
</g>
</g>
<!-- Node3&#45;&gt;Node15 -->
<g id="edge15_Node000003_Node000015" class="edge">
<title>Node3&#45;&gt;Node15</title>
<g id="a_edge15_Node000003_Node000015"><a xlink:title=" ">
<path fill="none" stroke="#63b8ff" d="M1223.27,-131.99C1251.36,-123.39 1295.55,-109.86 1330.87,-99.04"/>
<polygon fill="#63b8ff" stroke="#63b8ff" points="1332.04,-102.34 1340.58,-96.06 1329.99,-95.65 1332.04,-102.34"/>
</a>
</g>
</g>
<!-- Node16 -->
<g id="Node000016" class="node">
<title>Node16</title>
<g id="a_Node000016"><a xlink:title=" ">
<polygon fill="#e0e0e0" stroke="#999999" points="1567.5,-96 1457.5,-96 1457.5,-66 1567.5,-66 1567.5,-96"/>
<text text-anchor="start" x="1465.5" y="-84" font-family="Helvetica,sans-Serif" font-size="10.00">boost/math/special</text>
<text text-anchor="middle" x="1512.5" y="-73" font-family="Helvetica,sans-Serif" font-size="10.00">_functions/erf.hpp</text>
</a>
</g>
</g>
<!-- Node3&#45;&gt;Node16 -->
<g id="edge16_Node000003_Node000016" class="edge">
<title>Node3&#45;&gt;Node16</title>
<g id="a_edge16_Node000003_Node000016"><a xlink:title=" ">
<path fill="none" stroke="#63b8ff" d="M1238.58,-133.48C1286.94,-125.47 1368,-111.69 1447.22,-96.21"/>
<polygon fill="#63b8ff" stroke="#63b8ff" points="1448.23,-99.57 1457.37,-94.21 1446.88,-92.7 1448.23,-99.57"/>
</a>
</g>
</g>
<!-- Node17 -->
<g id="Node000017" class="node">
<title>Node17</title>
<g id="a_Node000017"><a xlink:title=" ">
<polygon fill="#e0e0e0" stroke="#999999" points="1641,-90.5 1586,-90.5 1586,-71.5 1641,-71.5 1641,-90.5"/>
<text text-anchor="middle" x="1613.5" y="-78.5" font-family="Helvetica,sans-Serif" font-size="10.00">fstream</text>
</a>
</g>
</g>
<!-- Node3&#45;&gt;Node17 -->
<g id="edge17_Node000003_Node000017" class="edge">
<title>Node3&#45;&gt;Node17</title>
<g id="a_edge17_Node000003_Node000017"><a xlink:title=" ">
<path fill="none" stroke="#63b8ff" d="M1238.6,-133.27C1241.61,-132.82 1244.6,-132.4 1247.5,-132 1393.25,-112.13 1433.46,-130.3 1576.5,-96 1578.95,-95.41 1581.47,-94.7 1583.97,-93.92"/>
<polygon fill="#63b8ff" stroke="#63b8ff" points="1585.13,-97.22 1593.43,-90.65 1582.84,-90.61 1585.13,-97.22"/>
</a>
</g>
</g>
<!-- Node18 -->
<g id="Node000018" class="node">
<title>Node18</title>
<g id="a_Node000018"><a xlink:title=" ">
<polygon fill="#e0e0e0" stroke="#999999" points="1697.5,-90.5 1659.5,-90.5 1659.5,-71.5 1697.5,-71.5 1697.5,-90.5"/>
<text text-anchor="middle" x="1678.5" y="-78.5" font-family="Helvetica,sans-Serif" font-size="10.00">map</text>
</a>
</g>
</g>
<!-- Node3&#45;&gt;Node18 -->
<g id="edge18_Node000003_Node000018" class="edge">
<title>Node3&#45;&gt;Node18</title>
<g id="a_edge18_Node000003_Node000018"><a xlink:title=" ">
<path fill="none" stroke="#63b8ff" d="M1238.6,-133.21C1241.61,-132.77 1244.6,-132.37 1247.5,-132 1425.91,-109.48 1477.5,-145.07 1650.5,-96 1651.76,-95.64 1653.04,-95.23 1654.31,-94.77"/>
<polygon fill="#63b8ff" stroke="#63b8ff" points="1656.03,-97.83 1663.81,-90.63 1653.24,-91.42 1656.03,-97.83"/>
</a>
</g>
</g>
<!-- Node19 -->
<g id="Node000019" class="node">
<title>Node19</title>
<g id="a_Node000019"><a xlink:title=" ">
<polygon fill="#e0e0e0" stroke="#999999" points="1759.5,-90.5 1715.5,-90.5 1715.5,-71.5 1759.5,-71.5 1759.5,-90.5"/>
<text text-anchor="middle" x="1737.5" y="-78.5" font-family="Helvetica,sans-Serif" font-size="10.00">regex</text>
</a>
</g>
</g>
<!-- Node3&#45;&gt;Node19 -->
<g id="edge19_Node000003_Node000019" class="edge">
<title>Node3&#45;&gt;Node19</title>
<g id="a_edge19_Node000003_Node000019"><a xlink:title=" ">
<path fill="none" stroke="#63b8ff" d="M1238.59,-133.17C1241.6,-132.75 1244.59,-132.35 1247.5,-132 1450.65,-107.47 1508.3,-146.87 1706.5,-96 1708.23,-95.56 1709.98,-95.02 1711.73,-94.42"/>
<polygon fill="#63b8ff" stroke="#63b8ff" points="1713.5,-97.48 1721.47,-90.51 1710.89,-90.99 1713.5,-97.48"/>
</a>
</g>
</g>
<!-- Node20 -->
<g id="Node000020" class="node">
<title>Node20</title>
<g id="a_Node000020"><a xlink:title=" ">
<polygon fill="#e0e0e0" stroke="#999999" points="1821.5,-90.5 1777.5,-90.5 1777.5,-71.5 1821.5,-71.5 1821.5,-90.5"/>
<text text-anchor="middle" x="1799.5" y="-78.5" font-family="Helvetica,sans-Serif" font-size="10.00">string</text>
</a>
</g>
</g>
<!-- Node3&#45;&gt;Node20 -->
<g id="edge20_Node000003_Node000020" class="edge">
<title>Node3&#45;&gt;Node20</title>
<g id="a_edge20_Node000003_Node000020"><a xlink:title=" ">
<path fill="none" stroke="#63b8ff" d="M1238.59,-133.14C1241.6,-132.72 1244.59,-132.34 1247.5,-132 1478.06,-105.25 1543.41,-152.66 1768.5,-96 1770.23,-95.56 1771.99,-95.04 1773.74,-94.44"/>
<polygon fill="#63b8ff" stroke="#63b8ff" points="1775.5,-97.51 1783.48,-90.54 1772.9,-91.01 1775.5,-97.51"/>
</a>
</g>
</g>
<!-- Node21 -->
<g id="Node000021" class="node">
<title>Node21</title>
<g id="a_Node000021"><a xlink:title=" ">
<polygon fill="#e0e0e0" stroke="#999999" points="1881,-90.5 1840,-90.5 1840,-71.5 1881,-71.5 1881,-90.5"/>
<text text-anchor="middle" x="1860.5" y="-78.5" font-family="Helvetica,sans-Serif" font-size="10.00">tuple</text>
</a>
</g>
</g>
<!-- Node3&#45;&gt;Node21 -->
<g id="edge21_Node000003_Node000021" class="edge">
<title>Node3&#45;&gt;Node21</title>
<g id="a_edge21_Node000003_Node000021"><a xlink:title=" ">
<path fill="none" stroke="#63b8ff" d="M1238.58,-133.12C1241.6,-132.7 1244.59,-132.33 1247.5,-132 1505.48,-103.02 1578.91,-160.01 1830.5,-96 1832.18,-95.57 1833.89,-95.05 1835.59,-94.46"/>
<polygon fill="#63b8ff" stroke="#63b8ff" points="1837.12,-97.61 1845.03,-90.56 1834.45,-91.14 1837.12,-97.61"/>
</a>
</g>
</g>
<!-- Node22 -->
<g id="Node000022" class="node">
<title>Node22</title>
<g id="a_Node000022"><a xlink:title=" ">
<polygon fill="#e0e0e0" stroke="#999999" points="1946,-90.5 1899,-90.5 1899,-71.5 1946,-71.5 1946,-90.5"/>
<text text-anchor="middle" x="1922.5" y="-78.5" font-family="Helvetica,sans-Serif" font-size="10.00">vector</text>
</a>
</g>
</g>
<!-- Node3&#45;&gt;Node22 -->
<g id="edge22_Node000003_Node000022" class="edge">
<title>Node3&#45;&gt;Node22</title>
<g id="a_edge22_Node000003_Node000022"><a xlink:title=" ">
<path fill="none" stroke="#63b8ff" d="M1238.58,-133.1C1241.6,-132.69 1244.59,-132.32 1247.5,-132 1532.03,-100.87 1612.09,-162.41 1890.5,-96 1892.45,-95.54 1894.42,-94.96 1896.39,-94.31"/>
<polygon fill="#63b8ff" stroke="#63b8ff" points="1897.91,-97.47 1905.95,-90.57 1895.36,-90.95 1897.91,-97.47"/>
</a>
</g>
</g>
<!-- Node4&#45;&gt;Node5 -->
<g id="edge4_Node000004_Node000005" class="edge">
<title>Node4&#45;&gt;Node5</title>
<g id="a_edge4_Node000004_Node000005"><a xlink:title=" ">
<path fill="none" stroke="#63b8ff" d="M124.04,-71.37C112.18,-62.44 93.25,-48.19 77.56,-36.38"/>
<polygon fill="#63b8ff" stroke="#63b8ff" points="79.34,-33.33 69.25,-30.12 75.13,-38.93 79.34,-33.33"/>
</a>
</g>
</g>
<!-- Node6 -->
<g id="Node000006" class="node">
<title>Node6</title>
<g id="a_Node000006"><a xlink:title=" ">
<polygon fill="#e0e0e0" stroke="#999999" points="238,-30 119,-30 119,0 238,0 238,-30"/>
<text text-anchor="start" x="127" y="-18" font-family="Helvetica,sans-Serif" font-size="10.00">deal.II/numerics/data</text>
<text text-anchor="middle" x="178.5" y="-7" font-family="Helvetica,sans-Serif" font-size="10.00">_postprocessor.h</text>
</a>
</g>
</g>
<!-- Node4&#45;&gt;Node6 -->
<g id="edge5_Node000004_Node000006" class="edge">
<title>Node4&#45;&gt;Node6</title>
<g id="a_edge5_Node000004_Node000006"><a xlink:title=" ">
<path fill="none" stroke="#63b8ff" d="M141.3,-71.37C146.87,-63.08 155.53,-50.18 163.1,-38.92"/>
<polygon fill="#63b8ff" stroke="#63b8ff" points="166.18,-40.61 168.85,-30.36 160.37,-36.71 166.18,-40.61"/>
</a>
</g>
</g>
</g>
</svg>
