<?xml version="1.0" encoding="UTF-8" standalone="no"?>
<!DOCTYPE svg PUBLIC "-//W3C//DTD SVG 1.1//EN"
 "http://www.w3.org/Graphics/SVG/1.1/DTD/svg11.dtd">
<!-- Generated by graphviz version 2.43.0 (0)
 -->
<!-- Title: /home/runner/work/lethe/lethe/source/core/utilities.cc Pages: 1 -->
<svg width="1763pt" height="236pt"
 viewBox="0.00 0.00 1763.00 236.00" xmlns="http://www.w3.org/2000/svg" xmlns:xlink="http://www.w3.org/1999/xlink">
<g id="graph0" class="graph" transform="scale(1 1) rotate(0) translate(4 232)">
<title>/home/runner/work/lethe/lethe/source/core/utilities.cc</title>
<!-- Node1 -->
<g id="Node000001" class="node">
<title>Node1</title>
<g id="a_Node000001"><a xlink:title=" ">
<polygon fill="#999999" stroke="#666666" points="1400,-228 1243,-228 1243,-198 1400,-198 1400,-228"/>
<text text-anchor="start" x="1251" y="-216" font-family="Helvetica,sans-Serif" font-size="10.00">/home/runner/work/lethe</text>
<text text-anchor="middle" x="1321.5" y="-205" font-family="Helvetica,sans-Serif" font-size="10.00">/lethe/source/core/utilities.cc</text>
</a>
</g>
</g>
<!-- Node2 -->
<g id="Node000002" class="node">
<title>Node2</title>
<g id="a_Node000002"><a xlink:title=" ">
<polygon fill="#e0e0e0" stroke="#999999" points="994,-156.5 905,-156.5 905,-137.5 994,-137.5 994,-156.5"/>
<text text-anchor="middle" x="949.5" y="-144.5" font-family="Helvetica,sans-Serif" font-size="10.00">core/revision.h</text>
</a>
</g>
</g>
<!-- Node1&#45;&gt;Node2 -->
<g id="edge1_Node000001_Node000002" class="edge">
<title>Node1&#45;&gt;Node2</title>
<g id="a_edge1_Node000001_Node000002"><a xlink:title=" ">
<path fill="none" stroke="#63b8ff" d="M1242.7,-201.79C1178.11,-192.91 1084.48,-178.82 1003.5,-162 999.11,-161.09 994.55,-160.05 990.02,-158.96"/>
<polygon fill="#63b8ff" stroke="#63b8ff" points="990.77,-155.54 980.22,-156.52 989.08,-162.33 990.77,-155.54"/>
</a>
</g>
</g>
<!-- Node3 -->
<g id="Node000003" class="node">
<title>Node3</title>
<g id="a_Node000003"><a xlink:href="core_2utilities_8h.html" target="_top" xlink:title=" ">
<polygon fill="white" stroke="#666666" points="1098.5,-156.5 1012.5,-156.5 1012.5,-137.5 1098.5,-137.5 1098.5,-156.5"/>
<text text-anchor="middle" x="1055.5" y="-144.5" font-family="Helvetica,sans-Serif" font-size="10.00">core/utilities.h</text>
</a>
</g>
</g>
<!-- Node1&#45;&gt;Node3 -->
<g id="edge2_Node000001_Node000003" class="edge">
<title>Node1&#45;&gt;Node3</title>
<g id="a_edge2_Node000001_Node000003"><a xlink:title=" ">
<path fill="none" stroke="#63b8ff" d="M1259.09,-198C1216.34,-188.26 1158.38,-174.79 1107.5,-162 1103.89,-161.09 1100.14,-160.13 1096.39,-159.15"/>
<polygon fill="#63b8ff" stroke="#63b8ff" points="1097.09,-155.71 1086.53,-156.54 1095.3,-162.48 1097.09,-155.71"/>
</a>
</g>
</g>
<!-- Node21 -->
<g id="Node000021" class="node">
<title>Node21</title>
<g id="a_Node000021"><a xlink:title=" ">
<polygon fill="#e0e0e0" stroke="#999999" points="1240.5,-156.5 1116.5,-156.5 1116.5,-137.5 1240.5,-137.5 1240.5,-156.5"/>
<text text-anchor="middle" x="1178.5" y="-144.5" font-family="Helvetica,sans-Serif" font-size="10.00">deal.II/base/revision.h</text>
</a>
</g>
</g>
<!-- Node1&#45;&gt;Node21 -->
<g id="edge21_Node000001_Node000021" class="edge">
<title>Node1&#45;&gt;Node21</title>
<g id="a_edge21_Node000001_Node000021"><a xlink:title=" ">
<path fill="none" stroke="#63b8ff" d="M1290.12,-197.95C1265.26,-186.83 1230.84,-171.42 1206.82,-160.67"/>
<polygon fill="#63b8ff" stroke="#63b8ff" points="1208.09,-157.41 1197.53,-156.52 1205.23,-163.8 1208.09,-157.41"/>
</a>
</g>
</g>
<!-- Node22 -->
<g id="Node000022" class="node">
<title>Node22</title>
<g id="a_Node000022"><a xlink:title=" ">
<polygon fill="#e0e0e0" stroke="#999999" points="1384,-162 1259,-162 1259,-132 1384,-132 1384,-162"/>
<text text-anchor="start" x="1267" y="-150" font-family="Helvetica,sans-Serif" font-size="10.00">boost/algorithm/string</text>
<text text-anchor="middle" x="1321.5" y="-139" font-family="Helvetica,sans-Serif" font-size="10.00">/replace.hpp</text>
</a>
</g>
</g>
<!-- Node1&#45;&gt;Node22 -->
<g id="edge22_Node000001_Node000022" class="edge">
<title>Node1&#45;&gt;Node22</title>
<g id="a_edge22_Node000001_Node000022"><a xlink:title=" ">
<path fill="none" stroke="#63b8ff" d="M1321.5,-197.8C1321.5,-190.34 1321.5,-180.99 1321.5,-172.41"/>
<polygon fill="#63b8ff" stroke="#63b8ff" points="1325,-172.16 1321.5,-162.16 1318,-172.16 1325,-172.16"/>
</a>
</g>
</g>
<!-- Node23 -->
<g id="Node000023" class="node">
<title>Node23</title>
<g id="a_Node000023"><a xlink:title=" ">
<polygon fill="#e0e0e0" stroke="#999999" points="1470.5,-156.5 1402.5,-156.5 1402.5,-137.5 1470.5,-137.5 1470.5,-156.5"/>
<text text-anchor="middle" x="1436.5" y="-144.5" font-family="Helvetica,sans-Serif" font-size="10.00">filesystem</text>
</a>
</g>
</g>
<!-- Node1&#45;&gt;Node23 -->
<g id="edge23_Node000001_Node000023" class="edge">
<title>Node1&#45;&gt;Node23</title>
<g id="a_edge23_Node000001_Node000023"><a xlink:title=" ">
<path fill="none" stroke="#63b8ff" d="M1346.74,-197.95C1366.28,-187.08 1393.18,-172.11 1412.43,-161.4"/>
<polygon fill="#63b8ff" stroke="#63b8ff" points="1414.16,-164.44 1421.2,-156.52 1410.76,-158.32 1414.16,-164.44"/>
</a>
</g>
</g>
<!-- Node24 -->
<g id="Node000024" class="node">
<title>Node24</title>
<g id="a_Node000024"><a xlink:title=" ">
<polygon fill="#e0e0e0" stroke="#999999" points="1532.5,-156.5 1488.5,-156.5 1488.5,-137.5 1532.5,-137.5 1532.5,-156.5"/>
<text text-anchor="middle" x="1510.5" y="-144.5" font-family="Helvetica,sans-Serif" font-size="10.00">regex</text>
</a>
</g>
</g>
<!-- Node1&#45;&gt;Node24 -->
<g id="edge24_Node000001_Node000024" class="edge">
<title>Node1&#45;&gt;Node24</title>
<g id="a_edge24_Node000001_Node000024"><a xlink:title=" ">
<path fill="none" stroke="#63b8ff" d="M1371.12,-197.93C1402.51,-188.63 1443.76,-175.67 1479.5,-162 1480.71,-161.54 1481.94,-161.05 1483.18,-160.55"/>
<polygon fill="#63b8ff" stroke="#63b8ff" points="1484.8,-163.66 1492.62,-156.51 1482.05,-157.22 1484.8,-163.66"/>
</a>
</g>
</g>
<!-- Node25 -->
<g id="Node000025" class="node">
<title>Node25</title>
<g id="a_Node000025"><a xlink:title=" ">
<polygon fill="#e0e0e0" stroke="#999999" points="1620,-156.5 1551,-156.5 1551,-137.5 1620,-137.5 1620,-156.5"/>
<text text-anchor="middle" x="1585.5" y="-144.5" font-family="Helvetica,sans-Serif" font-size="10.00">type_traits</text>
</a>
</g>
</g>
<!-- Node1&#45;&gt;Node25 -->
<g id="edge25_Node000001_Node000025" class="edge">
<title>Node1&#45;&gt;Node25</title>
<g id="a_edge25_Node000001_Node000025"><a xlink:title=" ">
<path fill="none" stroke="#63b8ff" d="M1390.25,-197.94C1433.82,-188.64 1491.23,-175.68 1541.5,-162 1544.33,-161.23 1547.25,-160.39 1550.17,-159.53"/>
<polygon fill="#63b8ff" stroke="#63b8ff" points="1551.48,-162.79 1560.02,-156.51 1549.43,-156.09 1551.48,-162.79"/>
</a>
</g>
</g>
<!-- Node4 -->
<g id="Node000004" class="node">
<title>Node4</title>
<g id="a_Node000004"><a xlink:href="output__struct_8h.html" target="_top" xlink:title=" ">
<polygon fill="white" stroke="#666666" points="192.5,-90.5 78.5,-90.5 78.5,-71.5 192.5,-71.5 192.5,-90.5"/>
<text text-anchor="middle" x="135.5" y="-78.5" font-family="Helvetica,sans-Serif" font-size="10.00">core/output_struct.h</text>
</a>
</g>
</g>
<!-- Node3&#45;&gt;Node4 -->
<g id="edge3_Node000003_Node000004" class="edge">
<title>Node3&#45;&gt;Node4</title>
<g id="a_edge3_Node000003_Node000004"><a xlink:title=" ">
<path fill="none" stroke="#63b8ff" d="M1028.21,-137.46C1020.32,-135.31 1011.63,-133.26 1003.5,-132 650.92,-77.3 555.43,-141.17 201.5,-96 194.71,-95.13 187.58,-93.93 180.62,-92.6"/>
<polygon fill="#63b8ff" stroke="#63b8ff" points="181.09,-89.12 170.6,-90.56 179.7,-95.98 181.09,-89.12"/>
</a>
</g>
</g>
<!-- Node5 -->
<g id="Node000005" class="node">
<title>Node5</title>
<g id="a_Node000005"><a xlink:title=" ">
<polygon fill="#e0e0e0" stroke="#999999" points="101,-30 0,-30 0,0 101,0 101,-30"/>
<text text-anchor="start" x="8" y="-18" font-family="Helvetica,sans-Serif" font-size="10.00">deal.II/base/table</text>
<text text-anchor="middle" x="50.5" y="-7" font-family="Helvetica,sans-Serif" font-size="10.00">_handler.h</text>
</a>
</g>
</g>
<!-- Node3&#45;&gt;Node5 -->
<g id="edge9_Node000003_Node000005" class="edge">
<title>Node3&#45;&gt;Node5</title>
<g id="a_edge9_Node000003_Node000005"><a xlink:title=" ">
<path fill="none" stroke="#63b8ff" d="M1028.49,-137.5C1020.52,-135.32 1011.73,-133.25 1003.5,-132 952.16,-124.2 109.61,-128.98 69.5,-96 53.44,-82.8 49.51,-58.74 49.1,-40.44"/>
<polygon fill="#63b8ff" stroke="#63b8ff" points="52.6,-40.23 49.21,-30.19 45.6,-40.16 52.6,-40.23"/>
</a>
</g>
</g>
<!-- Node7 -->
<g id="Node000007" class="node">
<title>Node7</title>
<g id="a_Node000007"><a xlink:title=" ">
<polygon fill="#e0e0e0" stroke="#999999" points="340.5,-96 210.5,-96 210.5,-66 340.5,-66 340.5,-96"/>
<text text-anchor="start" x="218.5" y="-84" font-family="Helvetica,sans-Serif" font-size="10.00">deal.II/base/conditional</text>
<text text-anchor="middle" x="275.5" y="-73" font-family="Helvetica,sans-Serif" font-size="10.00">_ostream.h</text>
</a>
</g>
</g>
<!-- Node3&#45;&gt;Node7 -->
<g id="edge6_Node000003_Node000007" class="edge">
<title>Node3&#45;&gt;Node7</title>
<g id="a_edge6_Node000003_Node000007"><a xlink:title=" ">
<path fill="none" stroke="#63b8ff" d="M1027.94,-137.44C1020.11,-135.32 1011.53,-133.29 1003.5,-132 719.73,-86.49 640.84,-129.75 350.83,-95.9"/>
<polygon fill="#63b8ff" stroke="#63b8ff" points="351.21,-92.42 340.87,-94.72 350.39,-99.37 351.21,-92.42"/>
</a>
</g>
</g>
<!-- Node8 -->
<g id="Node000008" class="node">
<title>Node8</title>
<g id="a_Node000008"><a xlink:title=" ">
<polygon fill="#e0e0e0" stroke="#999999" points="486,-96 359,-96 359,-66 486,-66 486,-96"/>
<text text-anchor="start" x="367" y="-84" font-family="Helvetica,sans-Serif" font-size="10.00">deal.II/base/parameter</text>
<text text-anchor="middle" x="422.5" y="-73" font-family="Helvetica,sans-Serif" font-size="10.00">_handler.h</text>
</a>
</g>
</g>
<!-- Node3&#45;&gt;Node8 -->
<g id="edge7_Node000003_Node000008" class="edge">
<title>Node3&#45;&gt;Node8</title>
<g id="a_edge7_Node000003_Node000008"><a xlink:title=" ">
<path fill="none" stroke="#63b8ff" d="M1027.65,-137.45C1019.9,-135.35 1011.43,-133.34 1003.5,-132 783.57,-94.96 721.73,-124.48 496.29,-95.97"/>
<polygon fill="#63b8ff" stroke="#63b8ff" points="496.49,-92.47 486.13,-94.66 495.6,-99.41 496.49,-92.47"/>
</a>
</g>
</g>
<!-- Node9 -->
<g id="Node000009" class="node">
<title>Node9</title>
<g id="a_Node000009"><a xlink:title=" ">
<polygon fill="#e0e0e0" stroke="#999999" points="614.5,-90.5 504.5,-90.5 504.5,-71.5 614.5,-71.5 614.5,-90.5"/>
<text text-anchor="middle" x="559.5" y="-78.5" font-family="Helvetica,sans-Serif" font-size="10.00">deal.II/base/point.h</text>
</a>
</g>
</g>
<!-- Node3&#45;&gt;Node9 -->
<g id="edge8_Node000003_Node000009" class="edge">
<title>Node3&#45;&gt;Node9</title>
<g id="a_edge8_Node000003_Node000009"><a xlink:title=" ">
<path fill="none" stroke="#63b8ff" d="M1027.36,-137.5C1019.68,-135.43 1011.32,-133.41 1003.5,-132 837,-101.9 791.72,-121.86 624.5,-96 618.29,-95.04 611.77,-93.85 605.37,-92.58"/>
<polygon fill="#63b8ff" stroke="#63b8ff" points="605.96,-89.13 595.46,-90.53 604.54,-95.98 605.96,-89.13"/>
</a>
</g>
</g>
<!-- Node10 -->
<g id="Node000010" class="node">
<title>Node10</title>
<g id="a_Node000010"><a xlink:title=" ">
<polygon fill="#e0e0e0" stroke="#999999" points="748,-90.5 633,-90.5 633,-71.5 748,-71.5 748,-90.5"/>
<text text-anchor="middle" x="690.5" y="-78.5" font-family="Helvetica,sans-Serif" font-size="10.00">deal.II/base/tensor.h</text>
</a>
</g>
</g>
<!-- Node3&#45;&gt;Node10 -->
<g id="edge10_Node000003_Node000010" class="edge">
<title>Node3&#45;&gt;Node10</title>
<g id="a_edge10_Node000003_Node000010"><a xlink:title=" ">
<path fill="none" stroke="#63b8ff" d="M1026.22,-137.47C1018.84,-135.5 1010.92,-133.54 1003.5,-132 895.3,-109.6 866.3,-115.31 757.5,-96 751.65,-94.96 745.54,-93.8 739.48,-92.59"/>
<polygon fill="#63b8ff" stroke="#63b8ff" points="739.89,-89.1 729.39,-90.54 738.5,-95.96 739.89,-89.1"/>
</a>
</g>
</g>
<!-- Node11 -->
<g id="Node000011" class="node">
<title>Node11</title>
<g id="a_Node000011"><a xlink:title=" ">
<polygon fill="#e0e0e0" stroke="#999999" points="906.5,-90.5 766.5,-90.5 766.5,-71.5 906.5,-71.5 906.5,-90.5"/>
<text text-anchor="middle" x="836.5" y="-78.5" font-family="Helvetica,sans-Serif" font-size="10.00">deal.II/dofs/dof_handler.h</text>
</a>
</g>
</g>
<!-- Node3&#45;&gt;Node11 -->
<g id="edge11_Node000003_Node000011" class="edge">
<title>Node3&#45;&gt;Node11</title>
<g id="a_edge11_Node000003_Node000011"><a xlink:title=" ">
<path fill="none" stroke="#63b8ff" d="M1025.96,-137.37C987.16,-126.03 918.9,-106.08 875.78,-93.48"/>
<polygon fill="#63b8ff" stroke="#63b8ff" points="876.5,-90.04 865.92,-90.6 874.53,-96.76 876.5,-90.04"/>
</a>
</g>
</g>
<!-- Node12 -->
<g id="Node000012" class="node">
<title>Node12</title>
<g id="a_Node000012"><a xlink:title=" ">
<polygon fill="#e0e0e0" stroke="#999999" points="1044,-90.5 925,-90.5 925,-71.5 1044,-71.5 1044,-90.5"/>
<text text-anchor="middle" x="984.5" y="-78.5" font-family="Helvetica,sans-Serif" font-size="10.00">deal.II/fe/fe_values.h</text>
</a>
</g>
</g>
<!-- Node3&#45;&gt;Node12 -->
<g id="edge12_Node000003_Node000012" class="edge">
<title>Node3&#45;&gt;Node12</title>
<g id="a_edge12_Node000003_Node000012"><a xlink:title=" ">
<path fill="none" stroke="#63b8ff" d="M1045.92,-137.37C1034.66,-127.21 1015.74,-110.16 1001.87,-97.65"/>
<polygon fill="#63b8ff" stroke="#63b8ff" points="1004.15,-95 994.38,-90.91 999.46,-100.2 1004.15,-95"/>
</a>
</g>
</g>
<!-- Node13 -->
<g id="Node000013" class="node">
<title>Node13</title>
<g id="a_Node000013"><a xlink:title=" ">
<polygon fill="#e0e0e0" stroke="#999999" points="1193,-96 1062,-96 1062,-66 1193,-66 1193,-96"/>
<text text-anchor="start" x="1070" y="-84" font-family="Helvetica,sans-Serif" font-size="10.00">deal.II/particles/particle</text>
<text text-anchor="middle" x="1127.5" y="-73" font-family="Helvetica,sans-Serif" font-size="10.00">_iterator.h</text>
</a>
</g>
</g>
<!-- Node3&#45;&gt;Node13 -->
<g id="edge13_Node000003_Node000013" class="edge">
<title>Node3&#45;&gt;Node13</title>
<g id="a_edge13_Node000003_Node000013"><a xlink:title=" ">
<path fill="none" stroke="#63b8ff" d="M1065.21,-137.37C1075.06,-128.61 1090.7,-114.71 1103.84,-103.04"/>
<polygon fill="#63b8ff" stroke="#63b8ff" points="1106.47,-105.38 1111.62,-96.12 1101.82,-100.14 1106.47,-105.38"/>
</a>
</g>
</g>
<!-- Node14 -->
<g id="Node000014" class="node">
<title>Node14</title>
<g id="a_Node000014"><a xlink:title=" ">
<polygon fill="#e0e0e0" stroke="#999999" points="1316,-96 1211,-96 1211,-66 1316,-66 1316,-96"/>
<text text-anchor="start" x="1219" y="-84" font-family="Helvetica,sans-Serif" font-size="10.00">boost/archive/text</text>
<text text-anchor="middle" x="1263.5" y="-73" font-family="Helvetica,sans-Serif" font-size="10.00">_iarchive.hpp</text>
</a>
</g>
</g>
<!-- Node3&#45;&gt;Node14 -->
<g id="edge14_Node000003_Node000014" class="edge">
<title>Node3&#45;&gt;Node14</title>
<g id="a_edge14_Node000003_Node000014"><a xlink:title=" ">
<path fill="none" stroke="#63b8ff" d="M1083.55,-137.37C1115.31,-127.6 1167.84,-111.43 1207.97,-99.09"/>
<polygon fill="#63b8ff" stroke="#63b8ff" points="1209.1,-102.4 1217.62,-96.12 1207.04,-95.71 1209.1,-102.4"/>
</a>
</g>
</g>
<!-- Node15 -->
<g id="Node000015" class="node">
<title>Node15</title>
<g id="a_Node000015"><a xlink:title=" ">
<polygon fill="#e0e0e0" stroke="#999999" points="1439,-96 1334,-96 1334,-66 1439,-66 1439,-96"/>
<text text-anchor="start" x="1342" y="-84" font-family="Helvetica,sans-Serif" font-size="10.00">boost/archive/text</text>
<text text-anchor="middle" x="1386.5" y="-73" font-family="Helvetica,sans-Serif" font-size="10.00">_oarchive.hpp</text>
</a>
</g>
</g>
<!-- Node3&#45;&gt;Node15 -->
<g id="edge15_Node000003_Node000015" class="edge">
<title>Node3&#45;&gt;Node15</title>
<g id="a_edge15_Node000003_Node000015"><a xlink:title=" ">
<path fill="none" stroke="#63b8ff" d="M1085.07,-137.49C1092.37,-135.54 1100.19,-133.58 1107.5,-132 1200.38,-111.88 1227.42,-114.77 1324.08,-96.2"/>
<polygon fill="#63b8ff" stroke="#63b8ff" points="1324.83,-99.62 1333.97,-94.27 1323.49,-92.75 1324.83,-99.62"/>
</a>
</g>
</g>
<!-- Node16 -->
<g id="Node000016" class="node">
<title>Node16</title>
<g id="a_Node000016"><a xlink:title=" ">
<polygon fill="#e0e0e0" stroke="#999999" points="1512,-90.5 1457,-90.5 1457,-71.5 1512,-71.5 1512,-90.5"/>
<text text-anchor="middle" x="1484.5" y="-78.5" font-family="Helvetica,sans-Serif" font-size="10.00">fstream</text>
</a>
</g>
</g>
<!-- Node3&#45;&gt;Node16 -->
<g id="edge16_Node000003_Node000016" class="edge">
<title>Node3&#45;&gt;Node16</title>
<g id="a_edge16_Node000003_Node000016"><a xlink:title=" ">
<path fill="none" stroke="#63b8ff" d="M1083.92,-137.48C1091.53,-135.44 1099.78,-133.44 1107.5,-132 1257.32,-104.1 1300.4,-131.93 1448.5,-96 1450.86,-95.43 1453.28,-94.73 1455.69,-93.97"/>
<polygon fill="#63b8ff" stroke="#63b8ff" points="1457.12,-97.17 1465.37,-90.52 1454.78,-90.58 1457.12,-97.17"/>
</a>
</g>
</g>
<!-- Node17 -->
<g id="Node000017" class="node">
<title>Node17</title>
<g id="a_Node000017"><a xlink:title=" ">
<polygon fill="#e0e0e0" stroke="#999999" points="1568.5,-90.5 1530.5,-90.5 1530.5,-71.5 1568.5,-71.5 1568.5,-90.5"/>
<text text-anchor="middle" x="1549.5" y="-78.5" font-family="Helvetica,sans-Serif" font-size="10.00">map</text>
</a>
</g>
</g>
<!-- Node3&#45;&gt;Node17 -->
<g id="edge17_Node000003_Node000017" class="edge">
<title>Node3&#45;&gt;Node17</title>
<g id="a_edge17_Node000003_Node000017"><a xlink:title=" ">
<path fill="none" stroke="#63b8ff" d="M1083.63,-137.46C1091.31,-135.39 1099.67,-133.38 1107.5,-132 1289.38,-99.87 1343.76,-146.19 1521.5,-96 1522.77,-95.64 1524.04,-95.23 1525.31,-94.77"/>
<polygon fill="#63b8ff" stroke="#63b8ff" points="1527.03,-97.84 1534.81,-90.64 1524.24,-91.42 1527.03,-97.84"/>
</a>
</g>
</g>
<!-- Node18 -->
<g id="Node000018" class="node">
<title>Node18</title>
<g id="a_Node000018"><a xlink:title=" ">
<polygon fill="#e0e0e0" stroke="#999999" points="1630.5,-90.5 1586.5,-90.5 1586.5,-71.5 1630.5,-71.5 1630.5,-90.5"/>
<text text-anchor="middle" x="1608.5" y="-78.5" font-family="Helvetica,sans-Serif" font-size="10.00">string</text>
</a>
</g>
</g>
<!-- Node3&#45;&gt;Node18 -->
<g id="edge18_Node000003_Node000018" class="edge">
<title>Node3&#45;&gt;Node18</title>
<g id="a_edge18_Node000003_Node000018"><a xlink:title=" ">
<path fill="none" stroke="#63b8ff" d="M1083.35,-137.47C1091.11,-135.38 1099.58,-133.36 1107.5,-132 1313.99,-96.61 1374.53,-147.9 1577.5,-96 1579.23,-95.56 1580.99,-95.02 1582.73,-94.43"/>
<polygon fill="#63b8ff" stroke="#63b8ff" points="1584.5,-97.49 1592.48,-90.51 1581.89,-90.99 1584.5,-97.49"/>
</a>
</g>
</g>
<!-- Node19 -->
<g id="Node000019" class="node">
<title>Node19</title>
<g id="a_Node000019"><a xlink:title=" ">
<polygon fill="#e0e0e0" stroke="#999999" points="1690,-90.5 1649,-90.5 1649,-71.5 1690,-71.5 1690,-90.5"/>
<text text-anchor="middle" x="1669.5" y="-78.5" font-family="Helvetica,sans-Serif" font-size="10.00">tuple</text>
</a>
</g>
</g>
<!-- Node3&#45;&gt;Node19 -->
<g id="edge19_Node000003_Node000019" class="edge">
<title>Node3&#45;&gt;Node19</title>
<g id="a_edge19_Node000003_Node000019"><a xlink:title=" ">
<path fill="none" stroke="#63b8ff" d="M1083.35,-137.43C1091.1,-135.34 1099.57,-133.32 1107.5,-132 1341.26,-93.01 1410.01,-155.11 1639.5,-96 1641.18,-95.57 1642.89,-95.04 1644.59,-94.45"/>
<polygon fill="#63b8ff" stroke="#63b8ff" points="1646.12,-97.6 1654.03,-90.54 1643.45,-91.13 1646.12,-97.6"/>
</a>
</g>
</g>
<!-- Node20 -->
<g id="Node000020" class="node">
<title>Node20</title>
<g id="a_Node000020"><a xlink:title=" ">
<polygon fill="#e0e0e0" stroke="#999999" points="1755,-90.5 1708,-90.5 1708,-71.5 1755,-71.5 1755,-90.5"/>
<text text-anchor="middle" x="1731.5" y="-78.5" font-family="Helvetica,sans-Serif" font-size="10.00">vector</text>
</a>
</g>
</g>
<!-- Node3&#45;&gt;Node20 -->
<g id="edge20_Node000003_Node000020" class="edge">
<title>Node3&#45;&gt;Node20</title>
<g id="a_edge20_Node000003_Node000020"><a xlink:title=" ">
<path fill="none" stroke="#63b8ff" d="M1083.07,-137.47C1090.9,-135.35 1099.47,-133.31 1107.5,-132 1367.65,-89.52 1443.24,-157.78 1699.5,-96 1701.45,-95.53 1703.42,-94.95 1705.39,-94.29"/>
<polygon fill="#63b8ff" stroke="#63b8ff" points="1706.91,-97.46 1714.95,-90.56 1704.36,-90.94 1706.91,-97.46"/>
</a>
</g>
</g>
<!-- Node4&#45;&gt;Node5 -->
<g id="edge4_Node000004_Node000005" class="edge">
<title>Node4&#45;&gt;Node5</title>
<g id="a_edge4_Node000004_Node000005"><a xlink:title=" ">
<path fill="none" stroke="#63b8ff" d="M124.04,-71.37C112.18,-62.44 93.25,-48.19 77.56,-36.38"/>
<polygon fill="#63b8ff" stroke="#63b8ff" points="79.34,-33.33 69.25,-30.12 75.13,-38.93 79.34,-33.33"/>
</a>
</g>
</g>
<!-- Node6 -->
<g id="Node000006" class="node">
<title>Node6</title>
<g id="a_Node000006"><a xlink:title=" ">
<polygon fill="#e0e0e0" stroke="#999999" points="238,-30 119,-30 119,0 238,0 238,-30"/>
<text text-anchor="start" x="127" y="-18" font-family="Helvetica,sans-Serif" font-size="10.00">deal.II/numerics/data</text>
<text text-anchor="middle" x="178.5" y="-7" font-family="Helvetica,sans-Serif" font-size="10.00">_postprocessor.h</text>
</a>
</g>
</g>
<!-- Node4&#45;&gt;Node6 -->
<g id="edge5_Node000004_Node000006" class="edge">
<title>Node4&#45;&gt;Node6</title>
<g id="a_edge5_Node000004_Node000006"><a xlink:title=" ">
<path fill="none" stroke="#63b8ff" d="M141.3,-71.37C146.87,-63.08 155.53,-50.18 163.1,-38.92"/>
<polygon fill="#63b8ff" stroke="#63b8ff" points="166.18,-40.61 168.85,-30.36 160.37,-36.71 166.18,-40.61"/>
</a>
</g>
</g>
</g>
</svg>
