<?xml version="1.0" encoding="UTF-8" standalone="no"?>
<!DOCTYPE svg PUBLIC "-//W3C//DTD SVG 1.1//EN"
 "http://www.w3.org/Graphics/SVG/1.1/DTD/svg11.dtd">
<!-- Generated by graphviz version 2.43.0 (0)
 -->
<!-- Title: /home/runner/work/lethe/lethe/source/dem/visualization.cc Pages: 1 -->
<svg width="1257pt" height="544pt"
 viewBox="0.00 0.00 1256.50 544.00" xmlns="http://www.w3.org/2000/svg" xmlns:xlink="http://www.w3.org/1999/xlink">
<g id="graph0" class="graph" transform="scale(1 1) rotate(0) translate(4 540)">
<title>/home/runner/work/lethe/lethe/source/dem/visualization.cc</title>
<!-- Node1 -->
<g id="Node000001" class="node">
<title>Node1</title>
<g id="a_Node000001"><a xlink:title=" ">
<polygon fill="#999999" stroke="#666666" points="1110.5,-536 927.5,-536 927.5,-506 1110.5,-506 1110.5,-536"/>
<text text-anchor="start" x="935.5" y="-524" font-family="Helvetica,sans-Serif" font-size="10.00">/home/runner/work/lethe</text>
<text text-anchor="middle" x="1019" y="-513" font-family="Helvetica,sans-Serif" font-size="10.00">/lethe/source/dem/visualization.cc</text>
</a>
</g>
</g>
<!-- Node2 -->
<g id="Node000002" class="node">
<title>Node2</title>
<g id="a_Node000002"><a xlink:href="visualization_8h.html" target="_top" xlink:title=" ">
<polygon fill="white" stroke="#666666" points="1008.5,-464.5 895.5,-464.5 895.5,-445.5 1008.5,-445.5 1008.5,-464.5"/>
<text text-anchor="middle" x="952" y="-452.5" font-family="Helvetica,sans-Serif" font-size="10.00">dem/visualization.h</text>
</a>
</g>
</g>
<!-- Node1&#45;&gt;Node2 -->
<g id="edge1_Node000001_Node000002" class="edge">
<title>Node1&#45;&gt;Node2</title>
<g id="a_edge1_Node000001_Node000002"><a xlink:title=" ">
<path fill="none" stroke="#63b8ff" d="M1004.13,-505.8C993.58,-495.72 979.42,-482.19 968.52,-471.78"/>
<polygon fill="#63b8ff" stroke="#63b8ff" points="970.91,-469.22 961.26,-464.84 966.07,-474.28 970.91,-469.22"/>
</a>
</g>
</g>
<!-- Node48 -->
<g id="Node000048" class="node">
<title>Node48</title>
<g id="a_Node000048"><a xlink:title=" ">
<polygon fill="#e0e0e0" stroke="#999999" points="1145.5,-470 1026.5,-470 1026.5,-440 1145.5,-440 1145.5,-470"/>
<text text-anchor="start" x="1034.5" y="-458" font-family="Helvetica,sans-Serif" font-size="10.00">deal.II/numerics/data</text>
<text text-anchor="middle" x="1086" y="-447" font-family="Helvetica,sans-Serif" font-size="10.00">_out.h</text>
</a>
</g>
</g>
<!-- Node1&#45;&gt;Node48 -->
<g id="edge40_Node000001_Node000048" class="edge">
<title>Node1&#45;&gt;Node48</title>
<g id="a_edge40_Node000001_Node000048"><a xlink:title=" ">
<path fill="none" stroke="#63b8ff" d="M1033.87,-505.8C1042.63,-497.43 1053.88,-486.68 1063.69,-477.31"/>
<polygon fill="#63b8ff" stroke="#63b8ff" points="1066.36,-479.6 1071.17,-470.16 1061.52,-474.54 1066.36,-479.6"/>
</a>
</g>
</g>
<!-- Node3 -->
<g id="Node000003" class="node">
<title>Node3</title>
<g id="a_Node000003"><a xlink:href="dem__solver__parameters_8h.html" target="_top" xlink:title=" ">
<polygon fill="white" stroke="#666666" points="570.5,-398.5 401.5,-398.5 401.5,-379.5 570.5,-379.5 570.5,-398.5"/>
<text text-anchor="middle" x="486" y="-386.5" font-family="Helvetica,sans-Serif" font-size="10.00">dem/dem_solver_parameters.h</text>
</a>
</g>
</g>
<!-- Node2&#45;&gt;Node3 -->
<g id="edge2_Node000002_Node000003" class="edge">
<title>Node2&#45;&gt;Node3</title>
<g id="a_edge2_Node000002_Node000003"><a xlink:title=" ">
<path fill="none" stroke="#63b8ff" d="M895.33,-446.22C810.69,-434.59 651.31,-412.7 558.37,-399.94"/>
<polygon fill="#63b8ff" stroke="#63b8ff" points="558.59,-396.44 548.2,-398.54 557.63,-403.37 558.59,-396.44"/>
</a>
</g>
</g>
<!-- Node10 -->
<g id="Node000010" class="node">
<title>Node10</title>
<g id="a_Node000010"><a xlink:title=" ">
<polygon fill="#e0e0e0" stroke="#999999" points="755.5,-24.5 708.5,-24.5 708.5,-5.5 755.5,-5.5 755.5,-24.5"/>
<text text-anchor="middle" x="732" y="-12.5" font-family="Helvetica,sans-Serif" font-size="10.00">vector</text>
</a>
</g>
</g>
<!-- Node2&#45;&gt;Node10 -->
<g id="edge39_Node000002_Node000010" class="edge">
<title>Node2&#45;&gt;Node10</title>
<g id="a_edge39_Node000002_Node000010"><a xlink:title=" ">
<path fill="none" stroke="#63b8ff" d="M947.64,-445.43C937.66,-424.98 914,-371.5 914,-324 914,-324 914,-324 914,-135 914,-64.92 818.31,-33.91 765.7,-22.15"/>
<polygon fill="#63b8ff" stroke="#63b8ff" points="766.3,-18.7 755.79,-20.05 764.85,-25.54 766.3,-18.7"/>
</a>
</g>
</g>
<!-- Node29 -->
<g id="Node000029" class="node">
<title>Node29</title>
<g id="a_Node000029"><a xlink:title=" ">
<polygon fill="#e0e0e0" stroke="#999999" points="893.5,-24.5 852.5,-24.5 852.5,-5.5 893.5,-5.5 893.5,-24.5"/>
<text text-anchor="middle" x="873" y="-12.5" font-family="Helvetica,sans-Serif" font-size="10.00">tuple</text>
</a>
</g>
</g>
<!-- Node2&#45;&gt;Node29 -->
<g id="edge38_Node000002_Node000029" class="edge">
<title>Node2&#45;&gt;Node29</title>
<g id="a_edge38_Node000002_Node000029"><a xlink:title=" ">
<path fill="none" stroke="#63b8ff" d="M952,-445.48C952,-424.71 952,-369.82 952,-324 952,-324 952,-324 952,-135 952,-102.53 945.9,-93.09 928,-66 918.93,-52.27 905.25,-39.82 893.81,-30.77"/>
<polygon fill="#63b8ff" stroke="#63b8ff" points="895.68,-27.8 885.6,-24.55 891.46,-33.38 895.68,-27.8"/>
</a>
</g>
</g>
<!-- Node46 -->
<g id="Node000046" class="node">
<title>Node46</title>
<g id="a_Node000046"><a xlink:title=" ">
<polygon fill="#e0e0e0" stroke="#999999" points="1099.5,-404 980.5,-404 980.5,-374 1099.5,-374 1099.5,-404"/>
<text text-anchor="start" x="988.5" y="-392" font-family="Helvetica,sans-Serif" font-size="10.00">deal.II/base/data_out</text>
<text text-anchor="middle" x="1040" y="-381" font-family="Helvetica,sans-Serif" font-size="10.00">_base.h</text>
</a>
</g>
</g>
<!-- Node2&#45;&gt;Node46 -->
<g id="edge36_Node000002_Node000046" class="edge">
<title>Node2&#45;&gt;Node46</title>
<g id="a_edge36_Node000002_Node000046"><a xlink:title=" ">
<path fill="none" stroke="#63b8ff" d="M963.87,-445.37C976.25,-436.36 996.11,-421.92 1012.43,-410.05"/>
<polygon fill="#63b8ff" stroke="#63b8ff" points="1014.56,-412.83 1020.59,-404.12 1010.45,-407.17 1014.56,-412.83"/>
</a>
</g>
</g>
<!-- Node47 -->
<g id="Node000047" class="node">
<title>Node47</title>
<g id="a_Node000047"><a xlink:title=" ">
<polygon fill="#e0e0e0" stroke="#999999" points="1248.5,-404 1117.5,-404 1117.5,-374 1248.5,-374 1248.5,-404"/>
<text text-anchor="start" x="1125.5" y="-392" font-family="Helvetica,sans-Serif" font-size="10.00">deal.II/particles/particle</text>
<text text-anchor="middle" x="1183" y="-381" font-family="Helvetica,sans-Serif" font-size="10.00">_handler.h</text>
</a>
</g>
</g>
<!-- Node2&#45;&gt;Node47 -->
<g id="edge37_Node000002_Node000047" class="edge">
<title>Node2&#45;&gt;Node47</title>
<g id="a_edge37_Node000002_Node000047"><a xlink:title=" ">
<path fill="none" stroke="#63b8ff" d="M983.15,-445.37C1018.65,-435.54 1077.5,-419.23 1122.18,-406.85"/>
<polygon fill="#63b8ff" stroke="#63b8ff" points="1123.35,-410.16 1132.05,-404.12 1121.48,-403.41 1123.35,-410.16"/>
</a>
</g>
</g>
<!-- Node4 -->
<g id="Node000004" class="node">
<title>Node4</title>
<g id="a_Node000004"><a xlink:href="parameters_8h.html" target="_top" xlink:title=" ">
<polygon fill="white" stroke="#666666" points="499,-272 393,-272 393,-253 499,-253 499,-272"/>
<text text-anchor="middle" x="446" y="-260" font-family="Helvetica,sans-Serif" font-size="10.00">core/parameters.h</text>
</a>
</g>
</g>
<!-- Node3&#45;&gt;Node4 -->
<g id="edge3_Node000003_Node000004" class="edge">
<title>Node3&#45;&gt;Node4</title>
<g id="a_edge3_Node000003_Node000004"><a xlink:title=" ">
<path fill="none" stroke="#63b8ff" d="M481.88,-379.3C477.32,-369.44 469.97,-352.82 465,-338 458.78,-319.44 453.45,-297.71 450.03,-282.52"/>
<polygon fill="#63b8ff" stroke="#63b8ff" points="453.36,-281.36 447.81,-272.34 446.52,-282.86 453.36,-281.36"/>
</a>
</g>
</g>
<!-- Node43 -->
<g id="Node000043" class="node">
<title>Node43</title>
<g id="a_Node000043"><a xlink:href="parameters__lagrangian_8h.html" target="_top" xlink:title="Parameter structures for Lagrangian (DEM) particle simulations.">
<polygon fill="white" stroke="#666666" points="185.5,-332.5 22.5,-332.5 22.5,-313.5 185.5,-313.5 185.5,-332.5"/>
<text text-anchor="middle" x="104" y="-320.5" font-family="Helvetica,sans-Serif" font-size="10.00">core/parameters_lagrangian.h</text>
</a>
</g>
</g>
<!-- Node3&#45;&gt;Node43 -->
<g id="edge26_Node000003_Node000043" class="edge">
<title>Node3&#45;&gt;Node43</title>
<g id="a_edge26_Node000003_Node000043"><a xlink:title=" ">
<path fill="none" stroke="#63b8ff" d="M434.88,-379.44C364.98,-367.72 239.74,-346.74 165.02,-334.22"/>
<polygon fill="#63b8ff" stroke="#63b8ff" points="165.26,-330.71 154.82,-332.51 164.1,-337.62 165.26,-330.71"/>
</a>
</g>
</g>
<!-- Node45 -->
<g id="Node000045" class="node">
<title>Node45</title>
<g id="a_Node000045"><a xlink:href="solid__objects__parameters_8h.html" target="_top" xlink:title="Parameter classes for solid objects used in Nitsche immersed boundary and DEM simulations.">
<polygon fill="white" stroke="#666666" points="578,-338 474,-338 474,-308 578,-308 578,-338"/>
<text text-anchor="start" x="482" y="-326" font-family="Helvetica,sans-Serif" font-size="10.00">core/solid_objects</text>
<text text-anchor="middle" x="526" y="-315" font-family="Helvetica,sans-Serif" font-size="10.00">_parameters.h</text>
</a>
</g>
</g>
<!-- Node3&#45;&gt;Node45 -->
<g id="edge32_Node000003_Node000045" class="edge">
<title>Node3&#45;&gt;Node45</title>
<g id="a_edge32_Node000003_Node000045"><a xlink:title=" ">
<path fill="none" stroke="#63b8ff" d="M491.39,-379.37C496.58,-371.08 504.64,-358.18 511.67,-346.92"/>
<polygon fill="#63b8ff" stroke="#63b8ff" points="514.69,-348.7 517.02,-338.36 508.76,-344.99 514.69,-348.7"/>
</a>
</g>
</g>
<!-- Node5 -->
<g id="Node000005" class="node">
<title>Node5</title>
<g id="a_Node000005"><a xlink:href="dimensionality_8h.html" target="_top" xlink:title=" ">
<polygon fill="white" stroke="#666666" points="288.5,-145.5 167.5,-145.5 167.5,-126.5 288.5,-126.5 288.5,-145.5"/>
<text text-anchor="middle" x="228" y="-133.5" font-family="Helvetica,sans-Serif" font-size="10.00">core/dimensionality.h</text>
</a>
</g>
</g>
<!-- Node4&#45;&gt;Node5 -->
<g id="edge4_Node000004_Node000005" class="edge">
<title>Node4&#45;&gt;Node5</title>
<g id="a_edge4_Node000004_Node000005"><a xlink:title=" ">
<path fill="none" stroke="#63b8ff" d="M453.6,-252.72C465.63,-237.7 486.13,-206.81 470,-187 448.69,-160.83 362.16,-147.94 298.64,-141.9"/>
<polygon fill="#63b8ff" stroke="#63b8ff" points="298.93,-138.41 288.65,-140.98 298.29,-145.38 298.93,-138.41"/>
</a>
</g>
</g>
<!-- Node6 -->
<g id="Node000006" class="node">
<title>Node6</title>
<g id="a_Node000006"><a xlink:title=" ">
<polygon fill="#e0e0e0" stroke="#999999" points="291.5,-30 164.5,-30 164.5,0 291.5,0 291.5,-30"/>
<text text-anchor="start" x="172.5" y="-18" font-family="Helvetica,sans-Serif" font-size="10.00">deal.II/base/parameter</text>
<text text-anchor="middle" x="228" y="-7" font-family="Helvetica,sans-Serif" font-size="10.00">_handler.h</text>
</a>
</g>
</g>
<!-- Node4&#45;&gt;Node6 -->
<g id="edge23_Node000004_Node000006" class="edge">
<title>Node4&#45;&gt;Node6</title>
<g id="a_edge23_Node000004_Node000006"><a xlink:title=" ">
<path fill="none" stroke="#63b8ff" d="M392.76,-261.2C317.98,-259.53 187.64,-251.57 158,-217 111.99,-163.33 173.84,-77.62 208.04,-37.73"/>
<polygon fill="#63b8ff" stroke="#63b8ff" points="210.71,-39.99 214.67,-30.17 205.45,-35.38 210.71,-39.99"/>
</a>
</g>
</g>
<!-- Node7 -->
<g id="Node000007" class="node">
<title>Node7</title>
<g id="a_Node000007"><a xlink:href="ib__particle_8h.html" target="_top" xlink:title=" ">
<polygon fill="white" stroke="#666666" points="741.5,-211.5 640.5,-211.5 640.5,-192.5 741.5,-192.5 741.5,-211.5"/>
<text text-anchor="middle" x="691" y="-199.5" font-family="Helvetica,sans-Serif" font-size="10.00">core/ib_particle.h</text>
</a>
</g>
</g>
<!-- Node4&#45;&gt;Node7 -->
<g id="edge6_Node000004_Node000007" class="edge">
<title>Node4&#45;&gt;Node7</title>
<g id="a_edge6_Node000004_Node000007"><a xlink:title=" ">
<path fill="none" stroke="#63b8ff" d="M481.63,-252.99C524.9,-242.66 597.98,-225.21 645.34,-213.9"/>
<polygon fill="#63b8ff" stroke="#63b8ff" points="646.42,-217.24 655.33,-211.52 644.79,-210.43 646.42,-217.24"/>
</a>
</g>
</g>
<!-- Node15 -->
<g id="Node000015" class="node">
<title>Node15</title>
<g id="a_Node000015"><a xlink:href="core_2utilities_8h.html" target="_top" xlink:title=" ">
<polygon fill="#fff0f0" stroke="red" points="538,-85 452,-85 452,-66 538,-66 538,-85"/>
<text text-anchor="middle" x="495" y="-73" font-family="Helvetica,sans-Serif" font-size="10.00">core/utilities.h</text>
</a>
</g>
</g>
<!-- Node4&#45;&gt;Node15 -->
<g id="edge22_Node000004_Node000015" class="edge">
<title>Node4&#45;&gt;Node15</title>
<g id="a_edge22_Node000004_Node000015"><a xlink:title=" ">
<path fill="none" stroke="#63b8ff" d="M457.04,-252.96C466.58,-244.85 479.8,-231.75 486,-217 503.08,-176.39 500.57,-123.31 497.59,-95.46"/>
<polygon fill="#63b8ff" stroke="#63b8ff" points="501.02,-94.68 496.34,-85.17 494.07,-95.52 501.02,-94.68"/>
</a>
</g>
</g>
<!-- Node40 -->
<g id="Node000040" class="node">
<title>Node40</title>
<g id="a_Node000040"><a xlink:title=" ">
<polygon fill="#e0e0e0" stroke="#999999" points="885.5,-151 776.5,-151 776.5,-121 885.5,-121 885.5,-151"/>
<text text-anchor="start" x="784.5" y="-139" font-family="Helvetica,sans-Serif" font-size="10.00">deal.II/base/parsed</text>
<text text-anchor="middle" x="831" y="-128" font-family="Helvetica,sans-Serif" font-size="10.00">_function.h</text>
</a>
</g>
</g>
<!-- Node4&#45;&gt;Node40 -->
<g id="edge24_Node000004_Node000040" class="edge">
<title>Node4&#45;&gt;Node40</title>
<g id="a_edge24_Node000004_Node000040"><a xlink:title=" ">
<path fill="none" stroke="#63b8ff" d="M499.3,-257.77C574.66,-251.83 707.96,-238.6 751,-217 777.79,-203.55 801.07,-177.7 815.51,-159.02"/>
<polygon fill="#63b8ff" stroke="#63b8ff" points="818.31,-161.12 821.5,-151.01 812.71,-156.92 818.31,-161.12"/>
</a>
</g>
</g>
<!-- Node41 -->
<g id="Node000041" class="node">
<title>Node41</title>
<g id="a_Node000041"><a xlink:href="multiphysics_8h.html" target="_top" xlink:title="Identifiers for multiphysics modules and their solution fields.">
<polygon fill="white" stroke="#666666" points="279,-211.5 167,-211.5 167,-192.5 279,-192.5 279,-211.5"/>
<text text-anchor="middle" x="223" y="-199.5" font-family="Helvetica,sans-Serif" font-size="10.00">core/multiphysics.h</text>
</a>
</g>
</g>
<!-- Node4&#45;&gt;Node41 -->
<g id="edge21_Node000004_Node000041" class="edge">
<title>Node4&#45;&gt;Node41</title>
<g id="a_edge21_Node000004_Node000041"><a xlink:title=" ">
<path fill="none" stroke="#63b8ff" d="M413.57,-252.99C374.43,-242.73 308.51,-225.43 265.37,-214.12"/>
<polygon fill="#63b8ff" stroke="#63b8ff" points="266.03,-210.67 255.47,-211.52 264.25,-217.44 266.03,-210.67"/>
</a>
</g>
</g>
<!-- Node42 -->
<g id="Node000042" class="node">
<title>Node42</title>
<g id="a_Node000042"><a xlink:title=" ">
<polygon fill="#e0e0e0" stroke="#999999" points="460.5,-217 297.5,-217 297.5,-187 460.5,-187 460.5,-217"/>
<text text-anchor="start" x="305.5" y="-205" font-family="Helvetica,sans-Serif" font-size="10.00">deal.II/multigrid/mg</text>
<text text-anchor="middle" x="379" y="-194" font-family="Helvetica,sans-Serif" font-size="10.00">_transfer_global_coarsening.h</text>
</a>
</g>
</g>
<!-- Node4&#45;&gt;Node42 -->
<g id="edge25_Node000004_Node000042" class="edge">
<title>Node4&#45;&gt;Node42</title>
<g id="a_edge25_Node000004_Node000042"><a xlink:title=" ">
<path fill="none" stroke="#63b8ff" d="M436.11,-252.87C427.36,-245.22 414.23,-233.76 402.76,-223.75"/>
<polygon fill="#63b8ff" stroke="#63b8ff" points="405,-221.06 395.17,-217.11 400.4,-226.33 405,-221.06"/>
</a>
</g>
</g>
<!-- Node5&#45;&gt;Node6 -->
<g id="edge5_Node000005_Node000006" class="edge">
<title>Node5&#45;&gt;Node6</title>
<g id="a_edge5_Node000005_Node000006"><a xlink:title=" ">
<path fill="none" stroke="#63b8ff" d="M228,-126.44C228,-108.64 228,-67.07 228,-40.31"/>
<polygon fill="#63b8ff" stroke="#63b8ff" points="231.5,-40.2 228,-30.2 224.5,-40.2 231.5,-40.2"/>
</a>
</g>
</g>
<!-- Node8 -->
<g id="Node000008" class="node">
<title>Node8</title>
<g id="a_Node000008"><a xlink:href="dem__properties_8h.html" target="_top" xlink:title="DEM particle property definitions and output name management.">
<polygon fill="white" stroke="#666666" points="682,-85 556,-85 556,-66 682,-66 682,-85"/>
<text text-anchor="middle" x="619" y="-73" font-family="Helvetica,sans-Serif" font-size="10.00">core/dem_properties.h</text>
</a>
</g>
</g>
<!-- Node7&#45;&gt;Node8 -->
<g id="edge7_Node000007_Node000008" class="edge">
<title>Node7&#45;&gt;Node8</title>
<g id="a_edge7_Node000007_Node000008"><a xlink:title=" ">
<path fill="none" stroke="#63b8ff" d="M687.57,-192.29C681.49,-177.25 668.06,-145.68 653,-121 647.12,-111.37 639.59,-101.33 633.11,-93.23"/>
<polygon fill="#63b8ff" stroke="#63b8ff" points="635.66,-90.82 626.61,-85.31 630.25,-95.26 635.66,-90.82"/>
</a>
</g>
</g>
<!-- Node7&#45;&gt;Node10 -->
<g id="edge20_Node000007_Node000010" class="edge">
<title>Node7&#45;&gt;Node10</title>
<g id="a_edge20_Node000007_Node000010"><a xlink:title=" ">
<path fill="none" stroke="#63b8ff" d="M698.93,-192.19C706.88,-182.76 718.68,-166.99 724,-151 737.24,-111.22 735.9,-61.25 733.88,-34.66"/>
<polygon fill="#63b8ff" stroke="#63b8ff" points="737.35,-34.15 732.98,-24.5 730.38,-34.77 737.35,-34.15"/>
</a>
</g>
</g>
<!-- Node11 -->
<g id="Node000011" class="node">
<title>Node11</title>
<g id="a_Node000011"><a xlink:href="shape_8h.html" target="_top" xlink:title=" ">
<polygon fill="#fff0f0" stroke="red" points="643.5,-145.5 564.5,-145.5 564.5,-126.5 643.5,-126.5 643.5,-145.5"/>
<text text-anchor="middle" x="604" y="-133.5" font-family="Helvetica,sans-Serif" font-size="10.00">core/shape.h</text>
</a>
</g>
</g>
<!-- Node7&#45;&gt;Node11 -->
<g id="edge10_Node000007_Node000011" class="edge">
<title>Node7&#45;&gt;Node11</title>
<g id="a_edge10_Node000007_Node000011"><a xlink:title=" ">
<path fill="none" stroke="#63b8ff" d="M679.27,-192.37C665.13,-181.97 641.14,-164.32 624.05,-151.75"/>
<polygon fill="#63b8ff" stroke="#63b8ff" points="625.95,-148.81 615.83,-145.7 621.81,-154.44 625.95,-148.81"/>
</a>
</g>
</g>
<!-- Node13 -->
<g id="Node000013" class="node">
<title>Node13</title>
<g id="a_Node000013"><a xlink:title=" ">
<polygon fill="#e0e0e0" stroke="#999999" points="675,-24.5 565,-24.5 565,-5.5 675,-5.5 675,-24.5"/>
<text text-anchor="middle" x="620" y="-12.5" font-family="Helvetica,sans-Serif" font-size="10.00">deal.II/base/point.h</text>
</a>
</g>
</g>
<!-- Node7&#45;&gt;Node13 -->
<g id="edge19_Node000007_Node000013" class="edge">
<title>Node7&#45;&gt;Node13</title>
<g id="a_edge19_Node000007_Node000013"><a xlink:title=" ">
<path fill="none" stroke="#63b8ff" d="M693.54,-192.47C699.69,-170.16 713.24,-108.86 691,-66 682.49,-49.6 665.85,-37.44 650.82,-29.22"/>
<polygon fill="#63b8ff" stroke="#63b8ff" points="652.26,-26.03 641.76,-24.61 649.09,-32.27 652.26,-26.03"/>
</a>
</g>
</g>
<!-- Node7&#45;&gt;Node40 -->
<g id="edge18_Node000007_Node000040" class="edge">
<title>Node7&#45;&gt;Node40</title>
<g id="a_edge18_Node000007_Node000040"><a xlink:title=" ">
<path fill="none" stroke="#63b8ff" d="M709.88,-192.37C730.49,-182.95 764.09,-167.59 790.68,-155.43"/>
<polygon fill="#63b8ff" stroke="#63b8ff" points="792.48,-158.46 800.12,-151.12 789.57,-152.09 792.48,-158.46"/>
</a>
</g>
</g>
<!-- Node9 -->
<g id="Node000009" class="node">
<title>Node9</title>
<g id="a_Node000009"><a xlink:title=" ">
<polygon fill="#e0e0e0" stroke="#999999" points="517,-24.5 473,-24.5 473,-5.5 517,-5.5 517,-24.5"/>
<text text-anchor="middle" x="495" y="-12.5" font-family="Helvetica,sans-Serif" font-size="10.00">string</text>
</a>
</g>
</g>
<!-- Node8&#45;&gt;Node9 -->
<g id="edge8_Node000008_Node000009" class="edge">
<title>Node8&#45;&gt;Node9</title>
<g id="a_edge8_Node000008_Node000009"><a xlink:title=" ">
<path fill="none" stroke="#63b8ff" d="M600.97,-65.99C580.31,-56.25 546.22,-40.16 522.3,-28.88"/>
<polygon fill="#63b8ff" stroke="#63b8ff" points="523.59,-25.62 513.05,-24.52 520.6,-31.95 523.59,-25.62"/>
</a>
</g>
</g>
<!-- Node8&#45;&gt;Node10 -->
<g id="edge9_Node000008_Node000010" class="edge">
<title>Node8&#45;&gt;Node10</title>
<g id="a_edge9_Node000008_Node000010"><a xlink:title=" ">
<path fill="none" stroke="#63b8ff" d="M635.67,-65.87C654.28,-56.23 684.62,-40.53 706.28,-29.31"/>
<polygon fill="#63b8ff" stroke="#63b8ff" points="707.99,-32.37 715.26,-24.67 704.77,-26.16 707.99,-32.37"/>
</a>
</g>
</g>
<!-- Node11&#45;&gt;Node15 -->
<g id="edge11_Node000011_Node000015" class="edge">
<title>Node11&#45;&gt;Node15</title>
<g id="a_edge11_Node000011_Node000015"><a xlink:title=" ">
<path fill="none" stroke="#63b8ff" d="M587.92,-126.37C570.05,-116.78 540.96,-101.17 520.09,-89.97"/>
<polygon fill="#63b8ff" stroke="#63b8ff" points="521.62,-86.81 511.15,-85.17 518.31,-92.98 521.62,-86.81"/>
</a>
</g>
</g>
<!-- Node15&#45;&gt;Node6 -->
<g id="edge12_Node000015_Node000006" class="edge">
<title>Node15&#45;&gt;Node6</title>
<g id="a_edge12_Node000015_Node000006"><a xlink:title=" ">
<path fill="none" stroke="#63b8ff" d="M456.18,-65.99C415.77,-57.14 351.52,-43.06 301.48,-32.1"/>
<polygon fill="#63b8ff" stroke="#63b8ff" points="302.19,-28.67 291.67,-29.95 300.69,-35.51 302.19,-28.67"/>
</a>
</g>
</g>
<!-- Node15&#45;&gt;Node9 -->
<g id="edge15_Node000015_Node000009" class="edge">
<title>Node15&#45;&gt;Node9</title>
<g id="a_edge15_Node000015_Node000009"><a xlink:title=" ">
<path fill="none" stroke="#63b8ff" d="M495,-65.87C495,-57.75 495,-45.31 495,-34.89"/>
<polygon fill="#63b8ff" stroke="#63b8ff" points="498.5,-34.67 495,-24.67 491.5,-34.67 498.5,-34.67"/>
</a>
</g>
</g>
<!-- Node15&#45;&gt;Node10 -->
<g id="edge17_Node000015_Node000010" class="edge">
<title>Node15&#45;&gt;Node10</title>
<g id="a_edge17_Node000015_Node000010"><a xlink:title=" ">
<path fill="none" stroke="#63b8ff" d="M533.88,-65.97C572.19,-57.42 632.33,-43.61 684,-30 688.69,-28.77 693.61,-27.4 698.44,-26.03"/>
<polygon fill="#63b8ff" stroke="#63b8ff" points="699.51,-29.37 708.14,-23.23 697.56,-22.64 699.51,-29.37"/>
</a>
</g>
</g>
<!-- Node15&#45;&gt;Node13 -->
<g id="edge13_Node000015_Node000013" class="edge">
<title>Node15&#45;&gt;Node13</title>
<g id="a_edge13_Node000015_Node000013"><a xlink:title=" ">
<path fill="none" stroke="#63b8ff" d="M513.18,-65.99C534.01,-56.25 568.37,-40.16 592.48,-28.88"/>
<polygon fill="#63b8ff" stroke="#63b8ff" points="594.23,-31.93 601.8,-24.52 591.26,-25.59 594.23,-31.93"/>
</a>
</g>
</g>
<!-- Node27 -->
<g id="Node000027" class="node">
<title>Node27</title>
<g id="a_Node000027"><a xlink:title=" ">
<polygon fill="#e0e0e0" stroke="#999999" points="83,-24.5 45,-24.5 45,-5.5 83,-5.5 83,-24.5"/>
<text text-anchor="middle" x="64" y="-12.5" font-family="Helvetica,sans-Serif" font-size="10.00">map</text>
</a>
</g>
</g>
<!-- Node15&#45;&gt;Node27 -->
<g id="edge14_Node000015_Node000027" class="edge">
<title>Node15&#45;&gt;Node27</title>
<g id="a_edge14_Node000015_Node000027"><a xlink:title=" ">
<path fill="none" stroke="#63b8ff" d="M451.75,-69.16C387.12,-61.1 261.53,-45.16 155,-30 134.33,-27.06 111.06,-23.47 93.22,-20.67"/>
<polygon fill="#63b8ff" stroke="#63b8ff" points="93.58,-17.18 83.15,-19.08 92.49,-24.09 93.58,-17.18"/>
</a>
</g>
</g>
<!-- Node15&#45;&gt;Node29 -->
<g id="edge16_Node000015_Node000029" class="edge">
<title>Node15&#45;&gt;Node29</title>
<g id="a_edge16_Node000015_Node000029"><a xlink:title=" ">
<path fill="none" stroke="#63b8ff" d="M538.12,-67.42C541.13,-66.93 544.11,-66.46 547,-66 655.61,-48.79 784.73,-29.26 842.46,-20.58"/>
<polygon fill="#63b8ff" stroke="#63b8ff" points="843.02,-24.04 852.39,-19.09 841.98,-17.11 843.02,-24.04"/>
</a>
</g>
</g>
<!-- Node43&#45;&gt;Node4 -->
<g id="edge27_Node000043_Node000004" class="edge">
<title>Node43&#45;&gt;Node4</title>
<g id="a_edge27_Node000043_Node000004"><a xlink:title=" ">
<path fill="none" stroke="#63b8ff" d="M153.73,-313.49C215.28,-302.97 320.01,-285.05 385.97,-273.77"/>
<polygon fill="#63b8ff" stroke="#63b8ff" points="386.94,-277.15 396.21,-272.02 385.76,-270.25 386.94,-277.15"/>
</a>
</g>
</g>
<!-- Node43&#45;&gt;Node6 -->
<g id="edge28_Node000043_Node000006" class="edge">
<title>Node43&#45;&gt;Node6</title>
<g id="a_edge28_Node000043_Node000006"><a xlink:title=" ">
<path fill="none" stroke="#63b8ff" d="M93.07,-313.19C82.36,-304 66.33,-288.62 57,-272 41.43,-244.26 38,-234.81 38,-203 38,-203 38,-203 38,-135 38,-77.56 101.13,-46.8 154.61,-31.05"/>
<polygon fill="#63b8ff" stroke="#63b8ff" points="155.79,-34.36 164.47,-28.28 153.89,-27.62 155.79,-34.36"/>
</a>
</g>
</g>
<!-- Node43&#45;&gt;Node9 -->
<g id="edge31_Node000043_Node000009" class="edge">
<title>Node43&#45;&gt;Node9</title>
<g id="a_edge31_Node000043_Node000009"><a xlink:title=" ">
<path fill="none" stroke="#63b8ff" d="M104.83,-313.2C107.57,-289.13 118.59,-221.69 158,-187 205.9,-144.83 238.89,-177.37 297,-151 369.34,-118.18 443.92,-59.22 477.15,-31.37"/>
<polygon fill="#63b8ff" stroke="#63b8ff" points="479.67,-33.82 485.04,-24.69 475.15,-28.48 479.67,-33.82"/>
</a>
</g>
</g>
<!-- Node43&#45;&gt;Node27 -->
<g id="edge29_Node000043_Node000027" class="edge">
<title>Node43&#45;&gt;Node27</title>
<g id="a_edge29_Node000043_Node000027"><a xlink:title=" ">
<path fill="none" stroke="#63b8ff" d="M82.45,-313.42C64.49,-305.25 39.42,-291.33 24,-272 3.75,-246.62 0,-235.47 0,-203 0,-203 0,-203 0,-135 0,-94.2 29.54,-53.92 48.48,-32.28"/>
<polygon fill="#63b8ff" stroke="#63b8ff" points="51.24,-34.44 55.37,-24.69 46.06,-29.74 51.24,-34.44"/>
</a>
</g>
</g>
<!-- Node44 -->
<g id="Node000044" class="node">
<title>Node44</title>
<g id="a_Node000044"><a xlink:title=" ">
<polygon fill="#e0e0e0" stroke="#999999" points="98,-272 66,-272 66,-253 98,-253 98,-272"/>
<text text-anchor="middle" x="82" y="-260" font-family="Helvetica,sans-Serif" font-size="10.00">set</text>
</a>
</g>
</g>
<!-- Node43&#45;&gt;Node44 -->
<g id="edge30_Node000043_Node000044" class="edge">
<title>Node43&#45;&gt;Node44</title>
<g id="a_edge30_Node000043_Node000044"><a xlink:title=" ">
<path fill="none" stroke="#63b8ff" d="M100.75,-313.37C97.63,-305.07 92.82,-292.28 88.85,-281.72"/>
<polygon fill="#63b8ff" stroke="#63b8ff" points="92.06,-280.3 85.26,-272.17 85.5,-282.76 92.06,-280.3"/>
</a>
</g>
</g>
<!-- Node45&#45;&gt;Node4 -->
<g id="edge33_Node000045_Node000004" class="edge">
<title>Node45&#45;&gt;Node4</title>
<g id="a_edge33_Node000045_Node000004"><a xlink:title=" ">
<path fill="none" stroke="#63b8ff" d="M506.63,-307.84C494.43,-298.91 478.69,-287.41 466.31,-278.35"/>
<polygon fill="#63b8ff" stroke="#63b8ff" points="468.13,-275.34 457.99,-272.27 463.99,-280.99 468.13,-275.34"/>
</a>
</g>
</g>
<!-- Node45&#45;&gt;Node6 -->
<g id="edge34_Node000045_Node000006" class="edge">
<title>Node45&#45;&gt;Node6</title>
<g id="a_edge34_Node000045_Node000006"><a xlink:title=" ">
<path fill="none" stroke="#63b8ff" d="M525.1,-307.89C522.77,-281.57 514.54,-224.26 486,-187 428.89,-112.44 329.51,-59.99 272.19,-34.2"/>
<polygon fill="#63b8ff" stroke="#63b8ff" points="273.59,-30.99 263.03,-30.15 270.76,-37.39 273.59,-30.99"/>
</a>
</g>
</g>
<!-- Node45&#45;&gt;Node40 -->
<g id="edge35_Node000045_Node000040" class="edge">
<title>Node45&#45;&gt;Node40</title>
<g id="a_edge35_Node000045_Node000040"><a xlink:title=" ">
<path fill="none" stroke="#63b8ff" d="M578,-311.35C634.19,-297.64 723.74,-269.12 784,-217 801.62,-201.76 814.33,-178.21 822.06,-160.6"/>
<polygon fill="#63b8ff" stroke="#63b8ff" points="825.43,-161.6 826.03,-151.03 818.96,-158.92 825.43,-161.6"/>
</a>
</g>
</g>
</g>
</svg>
