<?xml version="1.0" encoding="UTF-8" standalone="no"?>
<!DOCTYPE svg PUBLIC "-//W3C//DTD SVG 1.1//EN"
 "http://www.w3.org/Graphics/SVG/1.1/DTD/svg11.dtd">
<!-- Generated by graphviz version 2.43.0 (0)
 -->
<!-- Title: /home/runner/work/lethe/lethe/include/solvers/vof.h Pages: 1 -->
<svg width="308pt" height="115pt"
 viewBox="0.00 0.00 307.50 115.00" xmlns="http://www.w3.org/2000/svg" xmlns:xlink="http://www.w3.org/1999/xlink">
<g id="graph0" class="graph" transform="scale(1 1) rotate(0) translate(4 111)">
<title>/home/runner/work/lethe/lethe/include/solvers/vof.h</title>
<!-- Node1 -->
<g id="Node000001" class="node">
<title>Node1</title>
<g id="a_Node000001"><a xlink:title=" ">
<polygon fill="#999999" stroke="#666666" points="225,-107 77,-107 77,-77 225,-77 225,-107"/>
<text text-anchor="start" x="85" y="-95" font-family="Helvetica,sans-Serif" font-size="10.00">/home/runner/work/lethe</text>
<text text-anchor="middle" x="151" y="-84" font-family="Helvetica,sans-Serif" font-size="10.00">/lethe/include/solvers/vof.h</text>
</a>
</g>
</g>
<!-- Node2 -->
<g id="Node000002" class="node">
<title>Node2</title>
<g id="a_Node000002"><a xlink:href="multiphysics__interface_8cc.html" target="_top" xlink:title=" ">
<polygon fill="white" stroke="#666666" points="144,-41 0,-41 0,0 144,0 144,-41"/>
<text text-anchor="start" x="8" y="-29" font-family="Helvetica,sans-Serif" font-size="10.00">/home/runner/work/lethe</text>
<text text-anchor="start" x="8" y="-18" font-family="Helvetica,sans-Serif" font-size="10.00">/lethe/source/solvers</text>
<text text-anchor="middle" x="72" y="-7" font-family="Helvetica,sans-Serif" font-size="10.00">/multiphysics_interface.cc</text>
</a>
</g>
</g>
<!-- Node1&#45;&gt;Node2 -->
<g id="edge1_Node000001_Node000002" class="edge">
<title>Node1&#45;&gt;Node2</title>
<g id="a_edge1_Node000001_Node000002"><a xlink:title=" ">
<path fill="none" stroke="#63b8ff" d="M127.39,-70.23C116.89,-60.99 104.59,-50.17 94.25,-41.07"/>
<polygon fill="#63b8ff" stroke="#63b8ff" points="125.19,-72.96 135.01,-76.94 129.82,-67.7 125.19,-72.96"/>
</a>
</g>
</g>
<!-- Node3 -->
<g id="Node000003" class="node">
<title>Node3</title>
<g id="a_Node000003"><a xlink:href="vof_8cc.html" target="_top" xlink:title=" ">
<polygon fill="white" stroke="#666666" points="299.5,-41 162.5,-41 162.5,0 299.5,0 299.5,-41"/>
<text text-anchor="start" x="170.5" y="-29" font-family="Helvetica,sans-Serif" font-size="10.00">/home/runner/work/lethe</text>
<text text-anchor="start" x="170.5" y="-18" font-family="Helvetica,sans-Serif" font-size="10.00">/lethe/source/solvers</text>
<text text-anchor="middle" x="231" y="-7" font-family="Helvetica,sans-Serif" font-size="10.00">/vof.cc</text>
</a>
</g>
</g>
<!-- Node1&#45;&gt;Node3 -->
<g id="edge2_Node000001_Node000003" class="edge">
<title>Node1&#45;&gt;Node3</title>
<g id="a_edge2_Node000001_Node000003"><a xlink:title=" ">
<path fill="none" stroke="#63b8ff" d="M174.9,-70.23C185.54,-60.99 198,-50.17 208.47,-41.07"/>
<polygon fill="#63b8ff" stroke="#63b8ff" points="172.44,-67.74 167.19,-76.94 177.03,-73.02 172.44,-67.74"/>
</a>
</g>
</g>
</g>
</svg>
