<?xml version="1.0" encoding="UTF-8" standalone="no"?>
<!DOCTYPE svg PUBLIC "-//W3C//DTD SVG 1.1//EN"
 "http://www.w3.org/Graphics/SVG/1.1/DTD/svg11.dtd">
<!-- Generated by graphviz version 2.43.0 (0)
 -->
<!-- Title: /home/runner/work/lethe/lethe/include/solvers/vof_scratch_data.h Pages: 1 -->
<svg width="1065pt" height="302pt"
 viewBox="0.00 0.00 1065.00 302.00" xmlns="http://www.w3.org/2000/svg" xmlns:xlink="http://www.w3.org/1999/xlink">
<g id="graph0" class="graph" transform="scale(1 1) rotate(0) translate(4 298)">
<title>/home/runner/work/lethe/lethe/include/solvers/vof_scratch_data.h</title>
<!-- Node1 -->
<g id="Node000001" class="node">
<title>Node1</title>
<g id="a_Node000001"><a xlink:title=" ">
<polygon fill="#999999" stroke="#666666" points="544,-294 407,-294 407,-253 544,-253 544,-294"/>
<text text-anchor="start" x="415" y="-282" font-family="Helvetica,sans-Serif" font-size="10.00">/home/runner/work/lethe</text>
<text text-anchor="start" x="415" y="-271" font-family="Helvetica,sans-Serif" font-size="10.00">/lethe/include/solvers</text>
<text text-anchor="middle" x="475.5" y="-260" font-family="Helvetica,sans-Serif" font-size="10.00">/vof_scratch_data.h</text>
</a>
</g>
</g>
<!-- Node2 -->
<g id="Node000002" class="node">
<title>Node2</title>
<g id="a_Node000002"><a xlink:href="vof_8h.html" target="_top" xlink:title=" ">
<polygon fill="white" stroke="#666666" points="458.5,-118 310.5,-118 310.5,-88 458.5,-88 458.5,-118"/>
<text text-anchor="start" x="318.5" y="-106" font-family="Helvetica,sans-Serif" font-size="10.00">/home/runner/work/lethe</text>
<text text-anchor="middle" x="384.5" y="-95" font-family="Helvetica,sans-Serif" font-size="10.00">/lethe/include/solvers/vof.h</text>
</a>
</g>
</g>
<!-- Node1&#45;&gt;Node2 -->
<g id="edge1_Node000001_Node000002" class="edge">
<title>Node1&#45;&gt;Node2</title>
<g id="a_edge1_Node000001_Node000002"><a xlink:title=" ">
<path fill="none" stroke="#63b8ff" d="M475.6,-242.85C474.47,-220.17 470.19,-188.83 456.5,-165 445.16,-145.25 424.9,-128.97 408.76,-118.2"/>
<polygon fill="#63b8ff" stroke="#63b8ff" points="472.11,-243.03 475.93,-252.91 479.1,-242.8 472.11,-243.03"/>
</a>
</g>
</g>
<!-- Node5 -->
<g id="Node000005" class="node">
<title>Node5</title>
<g id="a_Node000005"><a xlink:href="vof__algebraic__interface__reinitialization_8h.html" target="_top" xlink:title=" ">
<polygon fill="white" stroke="#666666" points="447,-217 310,-217 310,-165 447,-165 447,-217"/>
<text text-anchor="start" x="318" y="-205" font-family="Helvetica,sans-Serif" font-size="10.00">/home/runner/work/lethe</text>
<text text-anchor="start" x="318" y="-194" font-family="Helvetica,sans-Serif" font-size="10.00">/lethe/include/solvers</text>
<text text-anchor="start" x="318" y="-183" font-family="Helvetica,sans-Serif" font-size="10.00">/vof_algebraic_interface</text>
<text text-anchor="middle" x="378.5" y="-172" font-family="Helvetica,sans-Serif" font-size="10.00">_reinitialization.h</text>
</a>
</g>
</g>
<!-- Node1&#45;&gt;Node5 -->
<g id="edge4_Node000001_Node000005" class="edge">
<title>Node1&#45;&gt;Node5</title>
<g id="a_edge4_Node000001_Node000005"><a xlink:title=" ">
<path fill="none" stroke="#63b8ff" d="M443.64,-246.06C432.44,-236.76 419.88,-226.35 408.81,-217.16"/>
<polygon fill="#63b8ff" stroke="#63b8ff" points="441.59,-248.91 451.52,-252.6 446.06,-243.52 441.59,-248.91"/>
</a>
</g>
</g>
<!-- Node8 -->
<g id="Node000008" class="node">
<title>Node8</title>
<g id="a_Node000008"><a xlink:href="vof__assemblers_8h.html" target="_top" xlink:title=" ">
<polygon fill="white" stroke="#666666" points="292,-211.5 155,-211.5 155,-170.5 292,-170.5 292,-211.5"/>
<text text-anchor="start" x="163" y="-199.5" font-family="Helvetica,sans-Serif" font-size="10.00">/home/runner/work/lethe</text>
<text text-anchor="start" x="163" y="-188.5" font-family="Helvetica,sans-Serif" font-size="10.00">/lethe/include/solvers</text>
<text text-anchor="middle" x="223.5" y="-177.5" font-family="Helvetica,sans-Serif" font-size="10.00">/vof_assemblers.h</text>
</a>
</g>
</g>
<!-- Node1&#45;&gt;Node8 -->
<g id="edge7_Node000001_Node000008" class="edge">
<title>Node1&#45;&gt;Node8</title>
<g id="a_edge7_Node000001_Node000008"><a xlink:title=" ">
<path fill="none" stroke="#63b8ff" d="M403.88,-249.91C372.18,-239.88 334.47,-227.9 300.5,-217 295.01,-215.24 289.31,-213.4 283.6,-211.56"/>
<polygon fill="#63b8ff" stroke="#63b8ff" points="402.92,-253.27 413.51,-252.95 405.03,-246.6 402.92,-253.27"/>
</a>
</g>
</g>
<!-- Node10 -->
<g id="Node000010" class="node">
<title>Node10</title>
<g id="a_Node000010"><a xlink:href="vof__linear__subequations__solver_8h.html" target="_top" xlink:title=" ">
<polygon fill="white" stroke="#666666" points="643,-217 504,-217 504,-165 643,-165 643,-217"/>
<text text-anchor="start" x="512" y="-205" font-family="Helvetica,sans-Serif" font-size="10.00">/home/runner/work/lethe</text>
<text text-anchor="start" x="512" y="-194" font-family="Helvetica,sans-Serif" font-size="10.00">/lethe/include/solvers</text>
<text text-anchor="start" x="512" y="-183" font-family="Helvetica,sans-Serif" font-size="10.00">/vof_linear_subequations</text>
<text text-anchor="middle" x="573.5" y="-172" font-family="Helvetica,sans-Serif" font-size="10.00">_solver.h</text>
</a>
</g>
</g>
<!-- Node1&#45;&gt;Node10 -->
<g id="edge11_Node000001_Node000010" class="edge">
<title>Node1&#45;&gt;Node10</title>
<g id="a_edge11_Node000001_Node000010"><a xlink:title=" ">
<path fill="none" stroke="#63b8ff" d="M507.44,-246.26C518.77,-236.96 531.5,-226.5 542.73,-217.28"/>
<polygon fill="#63b8ff" stroke="#63b8ff" points="504.98,-243.76 499.47,-252.81 509.42,-249.16 504.98,-243.76"/>
</a>
</g>
</g>
<!-- Node16 -->
<g id="Node000016" class="node">
<title>Node16</title>
<g id="a_Node000016"><a xlink:href="vof__scratch__data_8cc.html" target="_top" xlink:title=" ">
<polygon fill="white" stroke="#666666" points="798,-211.5 661,-211.5 661,-170.5 798,-170.5 798,-211.5"/>
<text text-anchor="start" x="669" y="-199.5" font-family="Helvetica,sans-Serif" font-size="10.00">/home/runner/work/lethe</text>
<text text-anchor="start" x="669" y="-188.5" font-family="Helvetica,sans-Serif" font-size="10.00">/lethe/source/solvers</text>
<text text-anchor="middle" x="729.5" y="-177.5" font-family="Helvetica,sans-Serif" font-size="10.00">/vof_scratch_data.cc</text>
</a>
</g>
</g>
<!-- Node1&#45;&gt;Node16 -->
<g id="edge21_Node000001_Node000016" class="edge">
<title>Node1&#45;&gt;Node16</title>
<g id="a_edge21_Node000001_Node000016"><a xlink:title=" ">
<path fill="none" stroke="#63b8ff" d="M548.35,-249.84C580.33,-239.85 618.3,-227.91 652.5,-217 657.99,-215.25 663.7,-213.42 669.41,-211.57"/>
<polygon fill="#63b8ff" stroke="#63b8ff" points="547.13,-246.55 538.63,-252.88 549.21,-253.24 547.13,-246.55"/>
</a>
</g>
</g>
<!-- Node3 -->
<g id="Node000003" class="node">
<title>Node3</title>
<g id="a_Node000003"><a xlink:href="multiphysics__interface_8cc.html" target="_top" xlink:title=" ">
<polygon fill="white" stroke="#666666" points="439.5,-41 295.5,-41 295.5,0 439.5,0 439.5,-41"/>
<text text-anchor="start" x="303.5" y="-29" font-family="Helvetica,sans-Serif" font-size="10.00">/home/runner/work/lethe</text>
<text text-anchor="start" x="303.5" y="-18" font-family="Helvetica,sans-Serif" font-size="10.00">/lethe/source/solvers</text>
<text text-anchor="middle" x="367.5" y="-7" font-family="Helvetica,sans-Serif" font-size="10.00">/multiphysics_interface.cc</text>
</a>
</g>
</g>
<!-- Node2&#45;&gt;Node3 -->
<g id="edge2_Node000002_Node000003" class="edge">
<title>Node2&#45;&gt;Node3</title>
<g id="a_edge2_Node000002_Node000003"><a xlink:title=" ">
<path fill="none" stroke="#63b8ff" d="M379.42,-77.94C376.93,-66.17 373.98,-52.19 371.64,-41.09"/>
<polygon fill="#63b8ff" stroke="#63b8ff" points="376.05,-78.92 381.54,-87.98 382.9,-77.47 376.05,-78.92"/>
</a>
</g>
</g>
<!-- Node4 -->
<g id="Node000004" class="node">
<title>Node4</title>
<g id="a_Node000004"><a xlink:href="vof_8cc.html" target="_top" xlink:title=" ">
<polygon fill="white" stroke="#666666" points="277,-41 140,-41 140,0 277,0 277,-41"/>
<text text-anchor="start" x="148" y="-29" font-family="Helvetica,sans-Serif" font-size="10.00">/home/runner/work/lethe</text>
<text text-anchor="start" x="148" y="-18" font-family="Helvetica,sans-Serif" font-size="10.00">/lethe/source/solvers</text>
<text text-anchor="middle" x="208.5" y="-7" font-family="Helvetica,sans-Serif" font-size="10.00">/vof.cc</text>
</a>
</g>
</g>
<!-- Node2&#45;&gt;Node4 -->
<g id="edge3_Node000002_Node000004" class="edge">
<title>Node2&#45;&gt;Node4</title>
<g id="a_edge3_Node000002_Node000004"><a xlink:title=" ">
<path fill="none" stroke="#63b8ff" d="M344.43,-83.67C316.65,-70.96 279.69,-54.06 251.33,-41.09"/>
<polygon fill="#63b8ff" stroke="#63b8ff" points="343.29,-87 353.84,-87.98 346.21,-80.64 343.29,-87"/>
</a>
</g>
</g>
<!-- Node6 -->
<g id="Node000006" class="node">
<title>Node6</title>
<g id="a_Node000006"><a xlink:href="vof__algebraic__interface__reinitialization_8cc.html" target="_top" xlink:title=" ">
<polygon fill="white" stroke="#666666" points="292,-129 155,-129 155,-77 292,-77 292,-129"/>
<text text-anchor="start" x="163" y="-117" font-family="Helvetica,sans-Serif" font-size="10.00">/home/runner/work/lethe</text>
<text text-anchor="start" x="163" y="-106" font-family="Helvetica,sans-Serif" font-size="10.00">/lethe/source/solvers</text>
<text text-anchor="start" x="163" y="-95" font-family="Helvetica,sans-Serif" font-size="10.00">/vof_algebraic_interface</text>
<text text-anchor="middle" x="223.5" y="-84" font-family="Helvetica,sans-Serif" font-size="10.00">_reinitialization.cc</text>
</a>
</g>
</g>
<!-- Node5&#45;&gt;Node6 -->
<g id="edge5_Node000005_Node000006" class="edge">
<title>Node5&#45;&gt;Node6</title>
<g id="a_edge5_Node000005_Node000006"><a xlink:title=" ">
<path fill="none" stroke="#63b8ff" d="M324.5,-160.04C306.32,-149.95 286.24,-138.81 268.81,-129.14"/>
<polygon fill="#63b8ff" stroke="#63b8ff" points="322.81,-163.1 333.25,-164.89 326.2,-156.98 322.81,-163.1"/>
</a>
</g>
</g>
<!-- Node7 -->
<g id="Node000007" class="node">
<title>Node7</title>
<g id="a_Node000007"><a xlink:href="vof__subequations__interface_8cc.html" target="_top" xlink:title=" ">
<polygon fill="white" stroke="#666666" points="625.5,-41 457.5,-41 457.5,0 625.5,0 625.5,-41"/>
<text text-anchor="start" x="465.5" y="-29" font-family="Helvetica,sans-Serif" font-size="10.00">/home/runner/work/lethe</text>
<text text-anchor="start" x="465.5" y="-18" font-family="Helvetica,sans-Serif" font-size="10.00">/lethe/source/solvers</text>
<text text-anchor="middle" x="541.5" y="-7" font-family="Helvetica,sans-Serif" font-size="10.00">/vof_subequations_interface.cc</text>
</a>
</g>
</g>
<!-- Node5&#45;&gt;Node7 -->
<g id="edge6_Node000005_Node000007" class="edge">
<title>Node5&#45;&gt;Node7</title>
<g id="a_edge6_Node000005_Node000007"><a xlink:title=" ">
<path fill="none" stroke="#63b8ff" d="M430.11,-159.34C443.06,-150.42 456.41,-140.07 467.5,-129 494.44,-102.11 517.89,-64.22 530.83,-41.34"/>
<polygon fill="#63b8ff" stroke="#63b8ff" points="428.05,-156.51 421.69,-164.99 431.94,-162.33 428.05,-156.51"/>
</a>
</g>
</g>
<!-- Node8&#45;&gt;Node2 -->
<g id="edge8_Node000008_Node000002" class="edge">
<title>Node8&#45;&gt;Node2</title>
<g id="a_edge8_Node000008_Node000002"><a xlink:title=" ">
<path fill="none" stroke="#63b8ff" d="M269.09,-165.65C297.88,-150.27 334.04,-130.95 358.14,-118.08"/>
<polygon fill="#63b8ff" stroke="#63b8ff" points="267.2,-162.69 260.03,-170.49 270.5,-168.86 267.2,-162.69"/>
</a>
</g>
</g>
<!-- Node8&#45;&gt;Node6 -->
<g id="edge9_Node000008_Node000006" class="edge">
<title>Node8&#45;&gt;Node6</title>
<g id="a_edge9_Node000008_Node000006"><a xlink:title=" ">
<path fill="none" stroke="#63b8ff" d="M223.5,-160.44C223.5,-150.31 223.5,-139.08 223.5,-129.32"/>
<polygon fill="#63b8ff" stroke="#63b8ff" points="220,-160.49 223.5,-170.49 227,-160.49 220,-160.49"/>
</a>
</g>
</g>
<!-- Node9 -->
<g id="Node000009" class="node">
<title>Node9</title>
<g id="a_Node000009"><a xlink:href="vof__assemblers_8cc.html" target="_top" xlink:title=" ">
<polygon fill="white" stroke="#666666" points="137,-123.5 0,-123.5 0,-82.5 137,-82.5 137,-123.5"/>
<text text-anchor="start" x="8" y="-111.5" font-family="Helvetica,sans-Serif" font-size="10.00">/home/runner/work/lethe</text>
<text text-anchor="start" x="8" y="-100.5" font-family="Helvetica,sans-Serif" font-size="10.00">/lethe/source/solvers</text>
<text text-anchor="middle" x="68.5" y="-89.5" font-family="Helvetica,sans-Serif" font-size="10.00">/vof_assemblers.cc</text>
</a>
</g>
</g>
<!-- Node8&#45;&gt;Node9 -->
<g id="edge10_Node000008_Node000009" class="edge">
<title>Node8&#45;&gt;Node9</title>
<g id="a_edge10_Node000008_Node000009"><a xlink:title=" ">
<path fill="none" stroke="#63b8ff" d="M179.43,-165.55C155.47,-152.26 126.24,-136.04 103.8,-123.59"/>
<polygon fill="#63b8ff" stroke="#63b8ff" points="177.89,-168.69 188.33,-170.49 181.28,-162.57 177.89,-168.69"/>
</a>
</g>
</g>
<!-- Node10&#45;&gt;Node2 -->
<g id="edge12_Node000010_Node000002" class="edge">
<title>Node10&#45;&gt;Node2</title>
<g id="a_edge12_Node000010_Node000002"><a xlink:title=" ">
<path fill="none" stroke="#63b8ff" d="M509.1,-160.7C477.4,-146.27 440.65,-129.55 415.32,-118.03"/>
<polygon fill="#63b8ff" stroke="#63b8ff" points="507.77,-163.94 518.33,-164.89 510.67,-157.57 507.77,-163.94"/>
</a>
</g>
</g>
<!-- Node10&#45;&gt;Node7 -->
<g id="edge20_Node000010_Node000007" class="edge">
<title>Node10&#45;&gt;Node7</title>
<g id="a_edge20_Node000010_Node000007"><a xlink:title=" ">
<path fill="none" stroke="#63b8ff" d="M553.38,-155.66C549.34,-147.21 545.68,-138 543.5,-129 536.24,-99.07 537.51,-63.06 539.33,-41.25"/>
<polygon fill="#63b8ff" stroke="#63b8ff" points="550.38,-157.49 558.02,-164.83 556.62,-154.33 550.38,-157.49"/>
</a>
</g>
</g>
<!-- Node11 -->
<g id="Node000011" class="node">
<title>Node11</title>
<g id="a_Node000011"><a xlink:href="vof__curvature__projection_8h.html" target="_top" xlink:title=" ">
<polygon fill="white" stroke="#666666" points="702.5,-123.5 552.5,-123.5 552.5,-82.5 702.5,-82.5 702.5,-123.5"/>
<text text-anchor="start" x="560.5" y="-111.5" font-family="Helvetica,sans-Serif" font-size="10.00">/home/runner/work/lethe</text>
<text text-anchor="start" x="560.5" y="-100.5" font-family="Helvetica,sans-Serif" font-size="10.00">/lethe/include/solvers</text>
<text text-anchor="middle" x="627.5" y="-89.5" font-family="Helvetica,sans-Serif" font-size="10.00">/vof_curvature_projection.h</text>
</a>
</g>
</g>
<!-- Node10&#45;&gt;Node11 -->
<g id="edge13_Node000010_Node000011" class="edge">
<title>Node10&#45;&gt;Node11</title>
<g id="a_edge13_Node000010_Node000011"><a xlink:title=" ">
<path fill="none" stroke="#63b8ff" d="M594.79,-156.09C601.69,-145.11 609.1,-133.3 615.13,-123.7"/>
<polygon fill="#63b8ff" stroke="#63b8ff" points="591.76,-154.33 589.41,-164.66 597.69,-158.05 591.76,-154.33"/>
</a>
</g>
</g>
<!-- Node13 -->
<g id="Node000013" class="node">
<title>Node13</title>
<g id="a_Node000013"><a xlink:href="vof__phase__gradient__projection_8h.html" target="_top" xlink:title=" ">
<polygon fill="white" stroke="#666666" points="900,-123.5 721,-123.5 721,-82.5 900,-82.5 900,-123.5"/>
<text text-anchor="start" x="729" y="-111.5" font-family="Helvetica,sans-Serif" font-size="10.00">/home/runner/work/lethe</text>
<text text-anchor="start" x="729" y="-100.5" font-family="Helvetica,sans-Serif" font-size="10.00">/lethe/include/solvers</text>
<text text-anchor="middle" x="810.5" y="-89.5" font-family="Helvetica,sans-Serif" font-size="10.00">/vof_phase_gradient_projection.h</text>
</a>
</g>
</g>
<!-- Node10&#45;&gt;Node13 -->
<g id="edge16_Node000010_Node000013" class="edge">
<title>Node10&#45;&gt;Node13</title>
<g id="a_edge16_Node000010_Node000013"><a xlink:title=" ">
<path fill="none" stroke="#63b8ff" d="M652.21,-161.44C686.5,-149 725.81,-134.73 756.68,-123.53"/>
<polygon fill="#63b8ff" stroke="#63b8ff" points="650.89,-158.19 642.69,-164.89 653.28,-164.77 650.89,-158.19"/>
</a>
</g>
</g>
<!-- Node15 -->
<g id="Node000015" class="node">
<title>Node15</title>
<g id="a_Node000015"><a xlink:href="vof__linear__subequations__solver_8cc.html" target="_top" xlink:title=" ">
<polygon fill="white" stroke="#666666" points="1057,-129 918,-129 918,-77 1057,-77 1057,-129"/>
<text text-anchor="start" x="926" y="-117" font-family="Helvetica,sans-Serif" font-size="10.00">/home/runner/work/lethe</text>
<text text-anchor="start" x="926" y="-106" font-family="Helvetica,sans-Serif" font-size="10.00">/lethe/source/solvers</text>
<text text-anchor="start" x="926" y="-95" font-family="Helvetica,sans-Serif" font-size="10.00">/vof_linear_subequations</text>
<text text-anchor="middle" x="987.5" y="-84" font-family="Helvetica,sans-Serif" font-size="10.00">_solver.cc</text>
</a>
</g>
</g>
<!-- Node10&#45;&gt;Node15 -->
<g id="edge19_Node000010_Node000015" class="edge">
<title>Node10&#45;&gt;Node15</title>
<g id="a_edge19_Node000010_Node000015"><a xlink:title=" ">
<path fill="none" stroke="#63b8ff" d="M652.91,-165.09C766.8,-140.31 800.14,-153.99 909.5,-129 912.27,-128.37 915.09,-127.68 917.92,-126.95"/>
<polygon fill="#63b8ff" stroke="#63b8ff" points="652.11,-161.68 643.11,-167.28 653.64,-168.52 652.11,-161.68"/>
</a>
</g>
</g>
<!-- Node11&#45;&gt;Node7 -->
<g id="edge15_Node000011_Node000007" class="edge">
<title>Node11&#45;&gt;Node7</title>
<g id="a_edge15_Node000011_Node000007"><a xlink:title=" ">
<path fill="none" stroke="#63b8ff" d="M598.73,-75.07C586.88,-63.98 573.41,-51.37 562.51,-41.17"/>
<polygon fill="#63b8ff" stroke="#63b8ff" points="596.55,-77.82 606.24,-82.1 601.33,-72.71 596.55,-77.82"/>
</a>
</g>
</g>
<!-- Node12 -->
<g id="Node000012" class="node">
<title>Node12</title>
<g id="a_Node000012"><a xlink:href="vof__curvature__projection_8cc.html" target="_top" xlink:title=" ">
<polygon fill="white" stroke="#666666" points="799,-41 644,-41 644,0 799,0 799,-41"/>
<text text-anchor="start" x="652" y="-29" font-family="Helvetica,sans-Serif" font-size="10.00">/home/runner/work/lethe</text>
<text text-anchor="start" x="652" y="-18" font-family="Helvetica,sans-Serif" font-size="10.00">/lethe/source/solvers</text>
<text text-anchor="middle" x="721.5" y="-7" font-family="Helvetica,sans-Serif" font-size="10.00">/vof_curvature_projection.cc</text>
</a>
</g>
</g>
<!-- Node11&#45;&gt;Node12 -->
<g id="edge14_Node000011_Node000012" class="edge">
<title>Node11&#45;&gt;Node12</title>
<g id="a_edge14_Node000011_Node000012"><a xlink:title=" ">
<path fill="none" stroke="#63b8ff" d="M658.57,-75.39C671.61,-64.22 686.51,-51.47 698.53,-41.17"/>
<polygon fill="#63b8ff" stroke="#63b8ff" points="656.05,-72.94 650.74,-82.1 660.61,-78.25 656.05,-72.94"/>
</a>
</g>
</g>
<!-- Node13&#45;&gt;Node7 -->
<g id="edge18_Node000013_Node000007" class="edge">
<title>Node13&#45;&gt;Node7</title>
<g id="a_edge18_Node000013_Node000007"><a xlink:title=" ">
<path fill="none" stroke="#63b8ff" d="M735.24,-79.48C694.85,-67.39 645.55,-52.64 606.79,-41.04"/>
<polygon fill="#63b8ff" stroke="#63b8ff" points="734.46,-82.9 745.04,-82.41 736.46,-76.19 734.46,-82.9"/>
</a>
</g>
</g>
<!-- Node14 -->
<g id="Node000014" class="node">
<title>Node14</title>
<g id="a_Node000014"><a xlink:href="vof__phase__gradient__projection_8cc.html" target="_top" xlink:title=" ">
<polygon fill="white" stroke="#666666" points="1000,-41 817,-41 817,0 1000,0 1000,-41"/>
<text text-anchor="start" x="825" y="-29" font-family="Helvetica,sans-Serif" font-size="10.00">/home/runner/work/lethe</text>
<text text-anchor="start" x="825" y="-18" font-family="Helvetica,sans-Serif" font-size="10.00">/lethe/source/solvers</text>
<text text-anchor="middle" x="908.5" y="-7" font-family="Helvetica,sans-Serif" font-size="10.00">/vof_phase_gradient_projection.cc</text>
</a>
</g>
</g>
<!-- Node13&#45;&gt;Node14 -->
<g id="edge17_Node000013_Node000014" class="edge">
<title>Node13&#45;&gt;Node14</title>
<g id="a_edge17_Node000013_Node000014"><a xlink:title=" ">
<path fill="none" stroke="#63b8ff" d="M842.26,-75.91C855.96,-64.65 871.72,-51.71 884.43,-41.27"/>
<polygon fill="#63b8ff" stroke="#63b8ff" points="839.98,-73.26 834.47,-82.31 844.42,-78.66 839.98,-73.26"/>
</a>
</g>
</g>
</g>
</svg>
