<?xml version="1.0" encoding="UTF-8" standalone="no"?>
<!DOCTYPE svg PUBLIC "-//W3C//DTD SVG 1.1//EN"
 "http://www.w3.org/Graphics/SVG/1.1/DTD/svg11.dtd">
<!-- Generated by graphviz version 2.43.0 (0)
 -->
<!-- Title: /home/runner/work/lethe/lethe/include/solvers/vof_subequations_interface.h Pages: 1 -->
<svg width="1103pt" height="302pt"
 viewBox="0.00 0.00 1103.00 302.00" xmlns="http://www.w3.org/2000/svg" xmlns:xlink="http://www.w3.org/1999/xlink">
<g id="graph0" class="graph" transform="scale(1 1) rotate(0) translate(4 298)">
<title>/home/runner/work/lethe/lethe/include/solvers/vof_subequations_interface.h</title>
<!-- Node1 -->
<g id="Node000001" class="node">
<title>Node1</title>
<g id="a_Node000001"><a xlink:title=" ">
<polygon fill="#999999" stroke="#666666" points="726.5,-294 562.5,-294 562.5,-253 726.5,-253 726.5,-294"/>
<text text-anchor="start" x="570.5" y="-282" font-family="Helvetica,sans-Serif" font-size="10.00">/home/runner/work/lethe</text>
<text text-anchor="start" x="570.5" y="-271" font-family="Helvetica,sans-Serif" font-size="10.00">/lethe/include/solvers</text>
<text text-anchor="middle" x="644.5" y="-260" font-family="Helvetica,sans-Serif" font-size="10.00">/vof_subequations_interface.h</text>
</a>
</g>
</g>
<!-- Node2 -->
<g id="Node000002" class="node">
<title>Node2</title>
<g id="a_Node000002"><a xlink:href="vof_8h.html" target="_top" xlink:title=" ">
<polygon fill="white" stroke="#666666" points="301.5,-118 153.5,-118 153.5,-88 301.5,-88 301.5,-118"/>
<text text-anchor="start" x="161.5" y="-106" font-family="Helvetica,sans-Serif" font-size="10.00">/home/runner/work/lethe</text>
<text text-anchor="middle" x="227.5" y="-95" font-family="Helvetica,sans-Serif" font-size="10.00">/lethe/include/solvers/vof.h</text>
</a>
</g>
</g>
<!-- Node1&#45;&gt;Node2 -->
<g id="edge1_Node000001_Node000002" class="edge">
<title>Node1&#45;&gt;Node2</title>
<g id="a_edge1_Node000001_Node000002"><a xlink:title=" ">
<path fill="none" stroke="#63b8ff" d="M581.84,-249.4C555.68,-239.61 525.04,-227.96 497.5,-217 411.33,-182.72 310.8,-139.88 260.18,-118.12"/>
<polygon fill="#63b8ff" stroke="#63b8ff" points="580.66,-252.69 591.25,-252.91 583.11,-246.14 580.66,-252.69"/>
</a>
</g>
</g>
<!-- Node5 -->
<g id="Node000005" class="node">
<title>Node5</title>
<g id="a_Node000005"><a xlink:href="vof__algebraic__interface__reinitialization_8h.html" target="_top" xlink:title=" ">
<polygon fill="white" stroke="#666666" points="998,-217 861,-217 861,-165 998,-165 998,-217"/>
<text text-anchor="start" x="869" y="-205" font-family="Helvetica,sans-Serif" font-size="10.00">/home/runner/work/lethe</text>
<text text-anchor="start" x="869" y="-194" font-family="Helvetica,sans-Serif" font-size="10.00">/lethe/include/solvers</text>
<text text-anchor="start" x="869" y="-183" font-family="Helvetica,sans-Serif" font-size="10.00">/vof_algebraic_interface</text>
<text text-anchor="middle" x="929.5" y="-172" font-family="Helvetica,sans-Serif" font-size="10.00">_reinitialization.h</text>
</a>
</g>
</g>
<!-- Node1&#45;&gt;Node5 -->
<g id="edge4_Node000001_Node000005" class="edge">
<title>Node1&#45;&gt;Node5</title>
<g id="a_edge4_Node000001_Node000005"><a xlink:title=" ">
<path fill="none" stroke="#63b8ff" d="M723.73,-250.12C766.79,-237.96 819.52,-223.06 860.82,-211.4"/>
<polygon fill="#63b8ff" stroke="#63b8ff" points="722.53,-246.82 713.85,-252.91 724.43,-253.56 722.53,-246.82"/>
</a>
</g>
</g>
<!-- Node7 -->
<g id="Node000007" class="node">
<title>Node7</title>
<g id="a_Node000007"><a xlink:href="vof__subequations__interface_8cc.html" target="_top" xlink:title=" ">
<polygon fill="white" stroke="#666666" points="758.5,-41 590.5,-41 590.5,0 758.5,0 758.5,-41"/>
<text text-anchor="start" x="598.5" y="-29" font-family="Helvetica,sans-Serif" font-size="10.00">/home/runner/work/lethe</text>
<text text-anchor="start" x="598.5" y="-18" font-family="Helvetica,sans-Serif" font-size="10.00">/lethe/source/solvers</text>
<text text-anchor="middle" x="674.5" y="-7" font-family="Helvetica,sans-Serif" font-size="10.00">/vof_subequations_interface.cc</text>
</a>
</g>
</g>
<!-- Node1&#45;&gt;Node7 -->
<g id="edge17_Node000001_Node000007" class="edge">
<title>Node1&#45;&gt;Node7</title>
<g id="a_edge17_Node000001_Node000007"><a xlink:title=" ">
<path fill="none" stroke="#63b8ff" d="M650.29,-242.75C651.79,-234.44 653.32,-225.38 654.5,-217 663.53,-152.98 670.15,-76.62 672.98,-41.26"/>
<polygon fill="#63b8ff" stroke="#63b8ff" points="646.81,-242.31 648.43,-252.78 653.7,-243.59 646.81,-242.31"/>
</a>
</g>
</g>
<!-- Node8 -->
<g id="Node000008" class="node">
<title>Node8</title>
<g id="a_Node000008"><a xlink:href="vof__linear__subequations__solver_8h.html" target="_top" xlink:title=" ">
<polygon fill="white" stroke="#666666" points="646,-217 507,-217 507,-165 646,-165 646,-217"/>
<text text-anchor="start" x="515" y="-205" font-family="Helvetica,sans-Serif" font-size="10.00">/home/runner/work/lethe</text>
<text text-anchor="start" x="515" y="-194" font-family="Helvetica,sans-Serif" font-size="10.00">/lethe/include/solvers</text>
<text text-anchor="start" x="515" y="-183" font-family="Helvetica,sans-Serif" font-size="10.00">/vof_linear_subequations</text>
<text text-anchor="middle" x="576.5" y="-172" font-family="Helvetica,sans-Serif" font-size="10.00">_solver.h</text>
</a>
</g>
</g>
<!-- Node1&#45;&gt;Node8 -->
<g id="edge7_Node000001_Node000008" class="edge">
<title>Node1&#45;&gt;Node8</title>
<g id="a_edge7_Node000001_Node000008"><a xlink:title=" ">
<path fill="none" stroke="#63b8ff" d="M621.02,-244.7C613.46,-235.75 605.14,-225.9 597.75,-217.16"/>
<polygon fill="#63b8ff" stroke="#63b8ff" points="618.56,-247.22 627.69,-252.6 623.91,-242.7 618.56,-247.22"/>
</a>
</g>
</g>
<!-- Node3 -->
<g id="Node000003" class="node">
<title>Node3</title>
<g id="a_Node000003"><a xlink:href="multiphysics__interface_8cc.html" target="_top" xlink:title=" ">
<polygon fill="white" stroke="#666666" points="299.5,-41 155.5,-41 155.5,0 299.5,0 299.5,-41"/>
<text text-anchor="start" x="163.5" y="-29" font-family="Helvetica,sans-Serif" font-size="10.00">/home/runner/work/lethe</text>
<text text-anchor="start" x="163.5" y="-18" font-family="Helvetica,sans-Serif" font-size="10.00">/lethe/source/solvers</text>
<text text-anchor="middle" x="227.5" y="-7" font-family="Helvetica,sans-Serif" font-size="10.00">/multiphysics_interface.cc</text>
</a>
</g>
</g>
<!-- Node2&#45;&gt;Node3 -->
<g id="edge2_Node000002_Node000003" class="edge">
<title>Node2&#45;&gt;Node3</title>
<g id="a_edge2_Node000002_Node000003"><a xlink:title=" ">
<path fill="none" stroke="#63b8ff" d="M227.5,-77.94C227.5,-66.17 227.5,-52.19 227.5,-41.09"/>
<polygon fill="#63b8ff" stroke="#63b8ff" points="224,-77.98 227.5,-87.98 231,-77.98 224,-77.98"/>
</a>
</g>
</g>
<!-- Node4 -->
<g id="Node000004" class="node">
<title>Node4</title>
<g id="a_Node000004"><a xlink:href="vof_8cc.html" target="_top" xlink:title=" ">
<polygon fill="white" stroke="#666666" points="137,-41 0,-41 0,0 137,0 137,-41"/>
<text text-anchor="start" x="8" y="-29" font-family="Helvetica,sans-Serif" font-size="10.00">/home/runner/work/lethe</text>
<text text-anchor="start" x="8" y="-18" font-family="Helvetica,sans-Serif" font-size="10.00">/lethe/source/solvers</text>
<text text-anchor="middle" x="68.5" y="-7" font-family="Helvetica,sans-Serif" font-size="10.00">/vof.cc</text>
</a>
</g>
</g>
<!-- Node2&#45;&gt;Node4 -->
<g id="edge3_Node000002_Node000004" class="edge">
<title>Node2&#45;&gt;Node4</title>
<g id="a_edge3_Node000002_Node000004"><a xlink:title=" ">
<path fill="none" stroke="#63b8ff" d="M190.64,-83.34C165.62,-70.67 132.59,-53.95 107.19,-41.09"/>
<polygon fill="#63b8ff" stroke="#63b8ff" points="189.3,-86.58 199.8,-87.98 192.46,-80.34 189.3,-86.58"/>
</a>
</g>
</g>
<!-- Node6 -->
<g id="Node000006" class="node">
<title>Node6</title>
<g id="a_Node000006"><a xlink:href="vof__algebraic__interface__reinitialization_8cc.html" target="_top" xlink:title=" ">
<polygon fill="white" stroke="#666666" points="1095,-129 958,-129 958,-77 1095,-77 1095,-129"/>
<text text-anchor="start" x="966" y="-117" font-family="Helvetica,sans-Serif" font-size="10.00">/home/runner/work/lethe</text>
<text text-anchor="start" x="966" y="-106" font-family="Helvetica,sans-Serif" font-size="10.00">/lethe/source/solvers</text>
<text text-anchor="start" x="966" y="-95" font-family="Helvetica,sans-Serif" font-size="10.00">/vof_algebraic_interface</text>
<text text-anchor="middle" x="1026.5" y="-84" font-family="Helvetica,sans-Serif" font-size="10.00">_reinitialization.cc</text>
</a>
</g>
</g>
<!-- Node5&#45;&gt;Node6 -->
<g id="edge5_Node000005_Node000006" class="edge">
<title>Node5&#45;&gt;Node6</title>
<g id="a_edge5_Node000005_Node000006"><a xlink:title=" ">
<path fill="none" stroke="#63b8ff" d="M965.44,-158.13C976.18,-148.62 987.79,-138.32 997.98,-129.29"/>
<polygon fill="#63b8ff" stroke="#63b8ff" points="962.98,-155.64 957.82,-164.89 967.62,-160.88 962.98,-155.64"/>
</a>
</g>
</g>
<!-- Node5&#45;&gt;Node7 -->
<g id="edge6_Node000005_Node000007" class="edge">
<title>Node5&#45;&gt;Node7</title>
<g id="a_edge6_Node000005_Node000007"><a xlink:title=" ">
<path fill="none" stroke="#63b8ff" d="M933.05,-154.86C933.54,-130.01 929.79,-97.57 910.5,-77 905.08,-71.21 824.2,-53 758.62,-39"/>
<polygon fill="#63b8ff" stroke="#63b8ff" points="929.55,-154.85 932.61,-164.99 936.54,-155.15 929.55,-154.85"/>
</a>
</g>
</g>
<!-- Node8&#45;&gt;Node2 -->
<g id="edge8_Node000008_Node000002" class="edge">
<title>Node8&#45;&gt;Node2</title>
<g id="a_edge8_Node000008_Node000002"><a xlink:title=" ">
<path fill="none" stroke="#63b8ff" d="M496.72,-173.17C443.71,-161.63 372.67,-145.47 310.5,-129 297.99,-125.69 284.52,-121.78 272.14,-118.05"/>
<polygon fill="#63b8ff" stroke="#63b8ff" points="496.22,-176.64 506.74,-175.34 497.71,-169.8 496.22,-176.64"/>
</a>
</g>
</g>
<!-- Node8&#45;&gt;Node7 -->
<g id="edge16_Node000008_Node000007" class="edge">
<title>Node8&#45;&gt;Node7</title>
<g id="a_edge16_Node000008_Node000007"><a xlink:title=" ">
<path fill="none" stroke="#63b8ff" d="M612.83,-157.46C621.06,-148.81 629.22,-139.05 635.5,-129 653.07,-100.88 664.31,-63.7 670.01,-41.25"/>
<polygon fill="#63b8ff" stroke="#63b8ff" points="610.15,-155.19 605.61,-164.77 615.13,-160.11 610.15,-155.19"/>
</a>
</g>
</g>
<!-- Node9 -->
<g id="Node000009" class="node">
<title>Node9</title>
<g id="a_Node000009"><a xlink:href="vof__curvature__projection_8h.html" target="_top" xlink:title=" ">
<polygon fill="white" stroke="#666666" points="469.5,-123.5 319.5,-123.5 319.5,-82.5 469.5,-82.5 469.5,-123.5"/>
<text text-anchor="start" x="327.5" y="-111.5" font-family="Helvetica,sans-Serif" font-size="10.00">/home/runner/work/lethe</text>
<text text-anchor="start" x="327.5" y="-100.5" font-family="Helvetica,sans-Serif" font-size="10.00">/lethe/include/solvers</text>
<text text-anchor="middle" x="394.5" y="-89.5" font-family="Helvetica,sans-Serif" font-size="10.00">/vof_curvature_projection.h</text>
</a>
</g>
</g>
<!-- Node8&#45;&gt;Node9 -->
<g id="edge9_Node000008_Node000009" class="edge">
<title>Node8&#45;&gt;Node9</title>
<g id="a_edge9_Node000008_Node000009"><a xlink:title=" ">
<path fill="none" stroke="#63b8ff" d="M514.02,-160.48C488.18,-148.27 458.93,-134.44 435.83,-123.53"/>
<polygon fill="#63b8ff" stroke="#63b8ff" points="512.83,-163.79 523.37,-164.89 515.82,-157.46 512.83,-163.79"/>
</a>
</g>
</g>
<!-- Node11 -->
<g id="Node000011" class="node">
<title>Node11</title>
<g id="a_Node000011"><a xlink:href="vof__phase__gradient__projection_8h.html" target="_top" xlink:title=" ">
<polygon fill="white" stroke="#666666" points="901,-123.5 722,-123.5 722,-82.5 901,-82.5 901,-123.5"/>
<text text-anchor="start" x="730" y="-111.5" font-family="Helvetica,sans-Serif" font-size="10.00">/home/runner/work/lethe</text>
<text text-anchor="start" x="730" y="-100.5" font-family="Helvetica,sans-Serif" font-size="10.00">/lethe/include/solvers</text>
<text text-anchor="middle" x="811.5" y="-89.5" font-family="Helvetica,sans-Serif" font-size="10.00">/vof_phase_gradient_projection.h</text>
</a>
</g>
</g>
<!-- Node8&#45;&gt;Node11 -->
<g id="edge12_Node000008_Node000011" class="edge">
<title>Node8&#45;&gt;Node11</title>
<g id="a_edge12_Node000008_Node000011"><a xlink:title=" ">
<path fill="none" stroke="#63b8ff" d="M654.55,-161.44C688.54,-149 727.52,-134.73 758.13,-123.53"/>
<polygon fill="#63b8ff" stroke="#63b8ff" points="653.29,-158.17 645.1,-164.89 655.7,-164.74 653.29,-158.17"/>
</a>
</g>
</g>
<!-- Node13 -->
<g id="Node000013" class="node">
<title>Node13</title>
<g id="a_Node000013"><a xlink:href="vof__linear__subequations__solver_8cc.html" target="_top" xlink:title=" ">
<polygon fill="white" stroke="#666666" points="627,-129 488,-129 488,-77 627,-77 627,-129"/>
<text text-anchor="start" x="496" y="-117" font-family="Helvetica,sans-Serif" font-size="10.00">/home/runner/work/lethe</text>
<text text-anchor="start" x="496" y="-106" font-family="Helvetica,sans-Serif" font-size="10.00">/lethe/source/solvers</text>
<text text-anchor="start" x="496" y="-95" font-family="Helvetica,sans-Serif" font-size="10.00">/vof_linear_subequations</text>
<text text-anchor="middle" x="557.5" y="-84" font-family="Helvetica,sans-Serif" font-size="10.00">_solver.cc</text>
</a>
</g>
</g>
<!-- Node8&#45;&gt;Node13 -->
<g id="edge15_Node000008_Node000013" class="edge">
<title>Node8&#45;&gt;Node13</title>
<g id="a_edge15_Node000008_Node000013"><a xlink:title=" ">
<path fill="none" stroke="#63b8ff" d="M568.73,-154.84C566.83,-146.23 564.83,-137.19 563.06,-129.16"/>
<polygon fill="#63b8ff" stroke="#63b8ff" points="565.33,-155.65 570.9,-164.66 572.16,-154.14 565.33,-155.65"/>
</a>
</g>
</g>
<!-- Node9&#45;&gt;Node7 -->
<g id="edge11_Node000009_Node000007" class="edge">
<title>Node9&#45;&gt;Node7</title>
<g id="a_edge11_Node000009_Node000007"><a xlink:title=" ">
<path fill="none" stroke="#63b8ff" d="M469.65,-79.58C472.64,-78.7 475.6,-77.84 478.5,-77 520.27,-64.87 567.15,-51.58 604.59,-41.05"/>
<polygon fill="#63b8ff" stroke="#63b8ff" points="468.66,-76.22 460.05,-82.4 470.63,-82.94 468.66,-76.22"/>
</a>
</g>
</g>
<!-- Node10 -->
<g id="Node000010" class="node">
<title>Node10</title>
<g id="a_Node000010"><a xlink:href="vof__curvature__projection_8cc.html" target="_top" xlink:title=" ">
<polygon fill="white" stroke="#666666" points="473,-41 318,-41 318,0 473,0 473,-41"/>
<text text-anchor="start" x="326" y="-29" font-family="Helvetica,sans-Serif" font-size="10.00">/home/runner/work/lethe</text>
<text text-anchor="start" x="326" y="-18" font-family="Helvetica,sans-Serif" font-size="10.00">/lethe/source/solvers</text>
<text text-anchor="middle" x="395.5" y="-7" font-family="Helvetica,sans-Serif" font-size="10.00">/vof_curvature_projection.cc</text>
</a>
</g>
</g>
<!-- Node9&#45;&gt;Node10 -->
<g id="edge10_Node000009_Node000010" class="edge">
<title>Node9&#45;&gt;Node10</title>
<g id="a_edge10_Node000009_Node000010"><a xlink:title=" ">
<path fill="none" stroke="#63b8ff" d="M394.87,-71.87C395,-61.6 395.14,-50.4 395.26,-41.17"/>
<polygon fill="#63b8ff" stroke="#63b8ff" points="391.37,-72.06 394.75,-82.1 398.37,-72.15 391.37,-72.06"/>
</a>
</g>
</g>
<!-- Node11&#45;&gt;Node7 -->
<g id="edge14_Node000011_Node000007" class="edge">
<title>Node11&#45;&gt;Node7</title>
<g id="a_edge14_Node000011_Node000007"><a xlink:title=" ">
<path fill="none" stroke="#63b8ff" d="M769.23,-77.16C749.6,-65.63 726.57,-52.1 708.14,-41.27"/>
<polygon fill="#63b8ff" stroke="#63b8ff" points="767.59,-80.26 777.99,-82.31 771.14,-74.22 767.59,-80.26"/>
</a>
</g>
</g>
<!-- Node12 -->
<g id="Node000012" class="node">
<title>Node12</title>
<g id="a_Node000012"><a xlink:href="vof__phase__gradient__projection_8cc.html" target="_top" xlink:title=" ">
<polygon fill="white" stroke="#666666" points="960,-41 777,-41 777,0 960,0 960,-41"/>
<text text-anchor="start" x="785" y="-29" font-family="Helvetica,sans-Serif" font-size="10.00">/home/runner/work/lethe</text>
<text text-anchor="start" x="785" y="-18" font-family="Helvetica,sans-Serif" font-size="10.00">/lethe/source/solvers</text>
<text text-anchor="middle" x="868.5" y="-7" font-family="Helvetica,sans-Serif" font-size="10.00">/vof_phase_gradient_projection.cc</text>
</a>
</g>
</g>
<!-- Node11&#45;&gt;Node12 -->
<g id="edge13_Node000011_Node000012" class="edge">
<title>Node11&#45;&gt;Node12</title>
<g id="a_edge13_Node000011_Node000012"><a xlink:title=" ">
<path fill="none" stroke="#63b8ff" d="M831.47,-73.8C839.1,-63.02 847.62,-50.98 854.57,-41.17"/>
<polygon fill="#63b8ff" stroke="#63b8ff" points="828.51,-71.92 825.59,-82.1 834.23,-75.96 828.51,-71.92"/>
</a>
</g>
</g>
</g>
</svg>
