<?xml version="1.0" encoding="UTF-8" standalone="no"?>
<!DOCTYPE svg PUBLIC "-//W3C//DTD SVG 1.1//EN"
 "http://www.w3.org/Graphics/SVG/1.1/DTD/svg11.dtd">
<!-- Generated by graphviz version 2.43.0 (0)
 -->
<!-- Title: /home/runner/work/lethe/lethe/include/solvers/vof_assemblers.h Pages: 1 -->
<svg width="544pt" height="214pt"
 viewBox="0.00 0.00 543.50 214.00" xmlns="http://www.w3.org/2000/svg" xmlns:xlink="http://www.w3.org/1999/xlink">
<g id="graph0" class="graph" transform="scale(1 1) rotate(0) translate(4 210)">
<title>/home/runner/work/lethe/lethe/include/solvers/vof_assemblers.h</title>
<!-- Node1 -->
<g id="Node000001" class="node">
<title>Node1</title>
<g id="a_Node000001"><a xlink:title=" ">
<polygon fill="#999999" stroke="#666666" points="380.5,-206 243.5,-206 243.5,-165 380.5,-165 380.5,-206"/>
<text text-anchor="start" x="251.5" y="-194" font-family="Helvetica,sans-Serif" font-size="10.00">/home/runner/work/lethe</text>
<text text-anchor="start" x="251.5" y="-183" font-family="Helvetica,sans-Serif" font-size="10.00">/lethe/include/solvers</text>
<text text-anchor="middle" x="312" y="-172" font-family="Helvetica,sans-Serif" font-size="10.00">/vof_assemblers.h</text>
</a>
</g>
</g>
<!-- Node2 -->
<g id="Node000002" class="node">
<title>Node2</title>
<g id="a_Node000002"><a xlink:href="vof_8h.html" target="_top" xlink:title=" ">
<polygon fill="white" stroke="#666666" points="225,-118 77,-118 77,-88 225,-88 225,-118"/>
<text text-anchor="start" x="85" y="-106" font-family="Helvetica,sans-Serif" font-size="10.00">/home/runner/work/lethe</text>
<text text-anchor="middle" x="151" y="-95" font-family="Helvetica,sans-Serif" font-size="10.00">/lethe/include/solvers/vof.h</text>
</a>
</g>
</g>
<!-- Node1&#45;&gt;Node2 -->
<g id="edge1_Node000001_Node000002" class="edge">
<title>Node1&#45;&gt;Node2</title>
<g id="a_edge1_Node000001_Node000002"><a xlink:title=" ">
<path fill="none" stroke="#63b8ff" d="M263.52,-160.26C235.94,-146.47 202.38,-129.69 179.13,-118.06"/>
<polygon fill="#63b8ff" stroke="#63b8ff" points="262.11,-163.47 272.61,-164.81 265.24,-157.2 262.11,-163.47"/>
</a>
</g>
</g>
<!-- Node5 -->
<g id="Node000005" class="node">
<title>Node5</title>
<g id="a_Node000005"><a xlink:href="vof__algebraic__interface__reinitialization_8cc.html" target="_top" xlink:title=" ">
<polygon fill="white" stroke="#666666" points="380.5,-129 243.5,-129 243.5,-77 380.5,-77 380.5,-129"/>
<text text-anchor="start" x="251.5" y="-117" font-family="Helvetica,sans-Serif" font-size="10.00">/home/runner/work/lethe</text>
<text text-anchor="start" x="251.5" y="-106" font-family="Helvetica,sans-Serif" font-size="10.00">/lethe/source/solvers</text>
<text text-anchor="start" x="251.5" y="-95" font-family="Helvetica,sans-Serif" font-size="10.00">/vof_algebraic_interface</text>
<text text-anchor="middle" x="312" y="-84" font-family="Helvetica,sans-Serif" font-size="10.00">_reinitialization.cc</text>
</a>
</g>
</g>
<!-- Node1&#45;&gt;Node5 -->
<g id="edge4_Node000001_Node000005" class="edge">
<title>Node1&#45;&gt;Node5</title>
<g id="a_edge4_Node000001_Node000005"><a xlink:title=" ">
<path fill="none" stroke="#63b8ff" d="M312,-154.49C312,-146.15 312,-137.19 312,-129.16"/>
<polygon fill="#63b8ff" stroke="#63b8ff" points="308.5,-154.6 312,-164.6 315.5,-154.6 308.5,-154.6"/>
</a>
</g>
</g>
<!-- Node6 -->
<g id="Node000006" class="node">
<title>Node6</title>
<g id="a_Node000006"><a xlink:href="vof__assemblers_8cc.html" target="_top" xlink:title=" ">
<polygon fill="white" stroke="#666666" points="535.5,-123.5 398.5,-123.5 398.5,-82.5 535.5,-82.5 535.5,-123.5"/>
<text text-anchor="start" x="406.5" y="-111.5" font-family="Helvetica,sans-Serif" font-size="10.00">/home/runner/work/lethe</text>
<text text-anchor="start" x="406.5" y="-100.5" font-family="Helvetica,sans-Serif" font-size="10.00">/lethe/source/solvers</text>
<text text-anchor="middle" x="467" y="-89.5" font-family="Helvetica,sans-Serif" font-size="10.00">/vof_assemblers.cc</text>
</a>
</g>
</g>
<!-- Node1&#45;&gt;Node6 -->
<g id="edge5_Node000001_Node000006" class="edge">
<title>Node1&#45;&gt;Node6</title>
<g id="a_edge5_Node000001_Node000006"><a xlink:title=" ">
<path fill="none" stroke="#63b8ff" d="M358.96,-160.11C381.45,-148.43 408.04,-134.62 429.21,-123.63"/>
<polygon fill="#63b8ff" stroke="#63b8ff" points="357.18,-157.09 349.92,-164.81 360.4,-163.3 357.18,-157.09"/>
</a>
</g>
</g>
<!-- Node3 -->
<g id="Node000003" class="node">
<title>Node3</title>
<g id="a_Node000003"><a xlink:href="multiphysics__interface_8cc.html" target="_top" xlink:title=" ">
<polygon fill="white" stroke="#666666" points="144,-41 0,-41 0,0 144,0 144,-41"/>
<text text-anchor="start" x="8" y="-29" font-family="Helvetica,sans-Serif" font-size="10.00">/home/runner/work/lethe</text>
<text text-anchor="start" x="8" y="-18" font-family="Helvetica,sans-Serif" font-size="10.00">/lethe/source/solvers</text>
<text text-anchor="middle" x="72" y="-7" font-family="Helvetica,sans-Serif" font-size="10.00">/multiphysics_interface.cc</text>
</a>
</g>
</g>
<!-- Node2&#45;&gt;Node3 -->
<g id="edge2_Node000002_Node000003" class="edge">
<title>Node2&#45;&gt;Node3</title>
<g id="a_edge2_Node000002_Node000003"><a xlink:title=" ">
<path fill="none" stroke="#63b8ff" d="M130.17,-80.78C118.1,-68.48 103.01,-53.1 91.22,-41.09"/>
<polygon fill="#63b8ff" stroke="#63b8ff" points="127.74,-83.29 137.24,-87.98 132.73,-78.39 127.74,-83.29"/>
</a>
</g>
</g>
<!-- Node4 -->
<g id="Node000004" class="node">
<title>Node4</title>
<g id="a_Node000004"><a xlink:href="vof_8cc.html" target="_top" xlink:title=" ">
<polygon fill="white" stroke="#666666" points="299.5,-41 162.5,-41 162.5,0 299.5,0 299.5,-41"/>
<text text-anchor="start" x="170.5" y="-29" font-family="Helvetica,sans-Serif" font-size="10.00">/home/runner/work/lethe</text>
<text text-anchor="start" x="170.5" y="-18" font-family="Helvetica,sans-Serif" font-size="10.00">/lethe/source/solvers</text>
<text text-anchor="middle" x="231" y="-7" font-family="Helvetica,sans-Serif" font-size="10.00">/vof.cc</text>
</a>
</g>
</g>
<!-- Node2&#45;&gt;Node4 -->
<g id="edge3_Node000002_Node000004" class="edge">
<title>Node2&#45;&gt;Node4</title>
<g id="a_edge3_Node000002_Node000004"><a xlink:title=" ">
<path fill="none" stroke="#63b8ff" d="M172.09,-80.78C184.32,-68.48 199.6,-53.1 211.53,-41.09"/>
<polygon fill="#63b8ff" stroke="#63b8ff" points="169.5,-78.42 164.93,-87.98 174.47,-83.35 169.5,-78.42"/>
</a>
</g>
</g>
</g>
</svg>
