<?xml version="1.0" encoding="UTF-8" standalone="no"?>
<!DOCTYPE svg PUBLIC "-//W3C//DTD SVG 1.1//EN"
 "http://www.w3.org/Graphics/SVG/1.1/DTD/svg11.dtd">
<!-- Generated by graphviz version 2.43.0 (0)
 -->
<!-- Title: /home/runner/work/lethe/lethe/include/dem/write_checkpoint.h Pages: 1 -->
<svg width="306pt" height="126pt"
 viewBox="0.00 0.00 306.00 126.00" xmlns="http://www.w3.org/2000/svg" xmlns:xlink="http://www.w3.org/1999/xlink">
<g id="graph0" class="graph" transform="scale(1 1) rotate(0) translate(4 122)">
<title>/home/runner/work/lethe/lethe/include/dem/write_checkpoint.h</title>
<!-- Node1 -->
<g id="Node000001" class="node">
<title>Node1</title>
<g id="a_Node000001"><a xlink:title=" ">
<polygon fill="#999999" stroke="#666666" points="219,-118 82,-118 82,-77 219,-77 219,-118"/>
<text text-anchor="start" x="90" y="-106" font-family="Helvetica,sans-Serif" font-size="10.00">/home/runner/work/lethe</text>
<text text-anchor="start" x="90" y="-95" font-family="Helvetica,sans-Serif" font-size="10.00">/lethe/include/dem/write</text>
<text text-anchor="middle" x="150.5" y="-84" font-family="Helvetica,sans-Serif" font-size="10.00">_checkpoint.h</text>
</a>
</g>
</g>
<!-- Node2 -->
<g id="Node000002" class="node">
<title>Node2</title>
<g id="a_Node000002"><a xlink:href="dem_8cc.html" target="_top" xlink:title=" ">
<polygon fill="white" stroke="#666666" points="143,-35.5 0,-35.5 0,-5.5 143,-5.5 143,-35.5"/>
<text text-anchor="start" x="8" y="-23.5" font-family="Helvetica,sans-Serif" font-size="10.00">/home/runner/work/lethe</text>
<text text-anchor="middle" x="71.5" y="-12.5" font-family="Helvetica,sans-Serif" font-size="10.00">/lethe/source/dem/dem.cc</text>
</a>
</g>
</g>
<!-- Node1&#45;&gt;Node2 -->
<g id="edge1_Node000001_Node000002" class="edge">
<title>Node1&#45;&gt;Node2</title>
<g id="a_edge1_Node000001_Node000002"><a xlink:title=" ">
<path fill="none" stroke="#63b8ff" d="M122.47,-69.89C110.4,-58.43 96.76,-45.48 86.63,-35.86"/>
<polygon fill="#63b8ff" stroke="#63b8ff" points="120.08,-72.45 129.74,-76.79 124.9,-67.37 120.08,-72.45"/>
</a>
</g>
</g>
<!-- Node3 -->
<g id="Node000003" class="node">
<title>Node3</title>
<g id="a_Node000003"><a xlink:href="write__checkpoint_8cc.html" target="_top" xlink:title=" ">
<polygon fill="white" stroke="#666666" points="298,-41 161,-41 161,0 298,0 298,-41"/>
<text text-anchor="start" x="169" y="-29" font-family="Helvetica,sans-Serif" font-size="10.00">/home/runner/work/lethe</text>
<text text-anchor="start" x="169" y="-18" font-family="Helvetica,sans-Serif" font-size="10.00">/lethe/source/dem/write</text>
<text text-anchor="middle" x="229.5" y="-7" font-family="Helvetica,sans-Serif" font-size="10.00">_checkpoint.cc</text>
</a>
</g>
</g>
<!-- Node1&#45;&gt;Node3 -->
<g id="edge2_Node000001_Node000003" class="edge">
<title>Node1&#45;&gt;Node3</title>
<g id="a_edge2_Node000001_Node000003"><a xlink:title=" ">
<path fill="none" stroke="#63b8ff" d="M178.63,-69.79C188.61,-60.32 199.65,-49.84 208.88,-41.07"/>
<polygon fill="#63b8ff" stroke="#63b8ff" points="176.1,-67.37 171.26,-76.79 180.92,-72.45 176.1,-67.37"/>
</a>
</g>
</g>
</g>
</svg>
